<?xml version="1.0" encoding="UTF-8"?>
<svg xmlns="http://www.w3.org/2000/svg" xmlns:xlink="http://www.w3.org/1999/xlink" width="400px" height="400px" viewBox="0 0 400 400" version="1.1">
<g id="surface1">
<path style=" stroke:none;fill-rule:nonzero;fill:rgb(49.019608%,87.45098%,58.823529%);fill-opacity:1;" d="M 91.066406 98.667969 C 89.066406 98.265625 87.332031 96.265625 87.066406 94.132812 C 85.199219 72.800781 83.332031 51.332031 81.601562 29.734375 C 81.464844 27.464844 83.066406 26 85.199219 26.398438 C 129.464844 33.734375 173.734375 4.800781 218 8.800781 C 218.132812 8.800781 218.265625 8.800781 218.398438 8.800781 C 219.332031 8.933594 220.265625 9.464844 220.933594 10.265625 C 221.734375 11.066406 222.265625 12.265625 222.398438 13.332031 C 224.265625 34.667969 226.132812 56.132812 227.867188 77.734375 C 228 78.800781 227.601562 79.734375 226.933594 80.398438 C 226.265625 81.066406 225.332031 81.199219 224.265625 81.066406 C 179.867188 73.734375 135.601562 102.667969 91.332031 98.667969 C 91.199219 98.667969 91.066406 98.667969 91.066406 98.667969 Z M 91.066406 98.667969 "/>
<path style=" stroke:none;fill-rule:nonzero;fill:rgb(31.764706%,34.901961%,47.45098%);fill-opacity:1;" d="M 218.265625 12.933594 C 220.132812 34.265625 222 55.601562 223.734375 77.066406 C 179.464844 70 135.199219 98.933594 90.933594 94.667969 C 89.066406 73.332031 87.199219 52 85.464844 30.535156 C 129.734375 37.601562 174 8.667969 218.265625 12.933594 M 218.398438 4.933594 C 218.132812 4.933594 217.867188 4.800781 217.734375 4.800781 C 173.332031 0.933594 129.066406 29.867188 84.800781 22.398438 C 82.667969 22 80.667969 22.535156 79.332031 23.601562 C 78 24.800781 77.332031 26.667969 77.464844 28.800781 C 79.332031 50.398438 81.199219 72 82.933594 93.464844 C 83.332031 97.734375 86.800781 101.867188 90.933594 102.667969 C 91.199219 102.667969 91.464844 102.800781 91.601562 102.800781 C 135.867188 106.667969 180.132812 77.734375 224.398438 85.199219 C 226.535156 85.601562 228.535156 85.066406 229.867188 84 C 231.199219 82.800781 231.867188 80.933594 231.734375 78.800781 C 229.867188 57.199219 228 35.601562 226.265625 14.132812 C 225.867188 9.734375 222.398438 5.601562 218.398438 4.933594 Z M 218.398438 4.933594 "/>
<path style=" stroke:none;fill-rule:nonzero;fill:rgb(0%,78.431373%,32.54902%);fill-opacity:1;" d="M 216.800781 60 C 215.867188 49.601562 215.066406 39.199219 214.132812 28.800781 C 208.398438 28.535156 203.199219 24.132812 202.667969 18.265625 C 169.066406 20.265625 135.601562 36.535156 102 37.199219 C 102.535156 43.066406 98.265625 48 92.398438 47.464844 C 93.332031 57.867188 94.132812 68.265625 95.066406 78.667969 C 100.800781 78.933594 106 83.332031 106.535156 89.199219 C 140.132812 87.199219 173.601562 70.933594 207.199219 70.265625 C 206.800781 64.398438 211.066406 59.464844 216.800781 60 Z M 216.800781 60 "/>
<path style=" stroke:none;fill-rule:nonzero;fill:rgb(49.019608%,87.45098%,58.823529%);fill-opacity:1;" d="M 179.199219 47.734375 C 180.667969 63.734375 170.800781 79.066406 157.332031 82.667969 C 143.867188 86.265625 131.734375 75.867188 130.265625 59.734375 C 128.800781 43.734375 138.667969 28.398438 152.132812 24.800781 C 165.601562 21.199219 177.734375 31.601562 179.199219 47.734375 Z M 179.199219 47.734375 "/>
<path style=" stroke:none;fill-rule:nonzero;fill:rgb(49.019608%,87.45098%,58.823529%);fill-opacity:1;" d="M 120.398438 61.601562 C 120.800781 66.535156 117.464844 71.332031 112.800781 71.734375 C 108.132812 72.265625 104 68.265625 103.601562 63.199219 C 103.199219 58.132812 106.535156 54 111.199219 53.601562 C 115.867188 53.199219 120 56.667969 120.398438 61.601562 Z M 120.398438 61.601562 "/>
<path style=" stroke:none;fill-rule:nonzero;fill:rgb(49.019608%,87.45098%,58.823529%);fill-opacity:1;" d="M 205.734375 44.265625 C 206.132812 49.332031 202.800781 53.464844 198.132812 53.867188 C 193.464844 54.265625 189.332031 50.933594 188.933594 45.867188 C 188.535156 40.933594 191.867188 36.132812 196.535156 35.734375 C 201.199219 35.199219 205.199219 39.199219 205.734375 44.265625 Z M 205.734375 44.265625 "/>
<path style=" stroke:none;fill-rule:nonzero;fill:rgb(31.764706%,34.901961%,47.45098%);fill-opacity:1;" d="M 161.332031 55.734375 C 160 55.734375 158.800781 54.667969 158.667969 53.332031 C 158.398438 49.867188 160.800781 46.398438 164.265625 45.601562 C 166.132812 45.066406 168 45.464844 169.464844 46.535156 C 170.933594 47.601562 171.734375 49.199219 172 50.933594 C 172.132812 52.398438 171.066406 53.734375 169.601562 53.867188 C 168.132812 54 166.800781 52.933594 166.667969 51.464844 C 166.667969 51.199219 166.535156 51.066406 166.398438 50.933594 C 166.265625 50.800781 166 50.800781 165.601562 50.800781 C 164.667969 51.066406 163.867188 52.132812 164 52.933594 C 164.132812 54.398438 163.066406 55.734375 161.601562 55.867188 C 161.601562 55.734375 161.464844 55.734375 161.332031 55.734375 Z M 161.332031 55.734375 "/>
<path style=" stroke:none;fill-rule:nonzero;fill:rgb(31.764706%,34.901961%,47.45098%);fill-opacity:1;" d="M 140.132812 61.199219 C 138.800781 61.199219 137.601562 60.132812 137.464844 58.800781 C 137.199219 55.332031 139.601562 52 143.066406 51.066406 C 144.933594 50.535156 146.800781 50.933594 148.265625 52 C 149.734375 52.933594 150.535156 54.535156 150.667969 56.398438 C 150.800781 57.867188 149.734375 59.199219 148.265625 59.332031 C 146.800781 59.464844 145.464844 58.398438 145.332031 56.933594 C 145.332031 56.667969 145.199219 56.535156 145.066406 56.398438 C 144.933594 56.265625 144.535156 56.265625 144.265625 56.265625 C 143.332031 56.535156 142.535156 57.464844 142.667969 58.398438 C 142.800781 59.867188 141.734375 61.199219 140.265625 61.332031 C 140.265625 61.199219 140.265625 61.199219 140.132812 61.199219 Z M 140.132812 61.199219 "/>
<path style=" stroke:none;fill-rule:nonzero;fill:rgb(31.764706%,34.901961%,47.45098%);fill-opacity:1;" d="M 152.398438 70.398438 C 149.601562 70.398438 146.800781 69.601562 144.535156 68 C 143.332031 67.199219 143.066406 65.464844 143.867188 64.265625 C 144.667969 63.066406 146.398438 62.800781 147.601562 63.601562 C 149.734375 65.066406 152.398438 65.464844 155.199219 64.667969 C 158.132812 63.867188 160.933594 62 162.800781 59.332031 C 163.601562 58.132812 165.332031 57.867188 166.535156 58.800781 C 167.734375 59.601562 168 61.332031 167.066406 62.535156 C 164.398438 66.265625 160.667969 68.800781 156.398438 70 C 155.199219 70.132812 153.734375 70.398438 152.398438 70.398438 Z M 152.398438 70.398438 "/>
<path style=" stroke:none;fill-rule:nonzero;fill:rgb(31.764706%,34.901961%,47.45098%);fill-opacity:1;" d="M 146.933594 42.535156 C 146.132812 42.933594 145.332031 43.332031 144.535156 43.601562 C 143.734375 44 142.933594 44.265625 142.132812 44.667969 C 141.332031 45.066406 140.535156 45.332031 139.734375 45.734375 C 138.933594 46.132812 138.132812 46.398438 137.332031 46.667969 C 137.199219 46.667969 136.933594 46.800781 136.800781 46.800781 C 135.601562 47.199219 134.265625 46.535156 134.132812 45.332031 C 134 44.800781 134.132812 44.265625 134.398438 43.734375 C 135.066406 42.398438 136 41.332031 137.066406 40.398438 C 138.132812 39.464844 139.332031 38.800781 140.535156 38.265625 C 141.734375 37.734375 143.066406 37.464844 144.265625 37.332031 C 145.601562 37.199219 146.800781 37.332031 148 37.867188 C 149.066406 38.398438 149.464844 39.734375 148.667969 40.933594 C 148.398438 41.464844 148 41.867188 147.464844 42.132812 C 147.199219 42.398438 147.066406 42.398438 146.933594 42.535156 Z M 146.933594 42.535156 "/>
<path style=" stroke:none;fill-rule:nonzero;fill:rgb(31.764706%,34.901961%,47.45098%);fill-opacity:1;" d="M 170 38.265625 C 169.066406 38.398438 168.265625 38.398438 167.464844 38.535156 C 166.667969 38.535156 165.867188 38.667969 165.066406 38.667969 C 164.265625 38.667969 163.464844 38.800781 162.667969 38.800781 C 161.867188 38.933594 161.066406 38.933594 160.132812 38.933594 C 160 38.933594 159.734375 38.933594 159.601562 38.933594 C 158.398438 38.933594 157.464844 38 157.601562 36.667969 C 157.734375 36.132812 158 35.601562 158.265625 35.199219 C 159.332031 34.132812 160.535156 33.332031 161.734375 32.800781 C 162.933594 32.265625 164.265625 32 165.464844 31.867188 C 166.667969 31.734375 168 31.867188 169.066406 32.265625 C 170.265625 32.667969 171.332031 33.199219 172.265625 34.132812 C 173.066406 35.066406 172.800781 36.535156 171.867188 37.464844 C 171.464844 37.867188 170.933594 38.132812 170.398438 38.132812 C 170.398438 38.265625 170.265625 38.265625 170 38.265625 Z M 170 38.265625 "/>
<path style=" stroke:none;fill-rule:nonzero;fill:rgb(98.431373%,74.117647%,1.568627%);fill-opacity:1;" d="M 49.734375 250.933594 C 39.601562 243.867188 37.199219 229.867188 44.265625 219.867188 L 94.933594 147.464844 C 102 137.332031 116 134.933594 126 142 C 136.132812 149.066406 138.535156 163.066406 131.464844 173.066406 L 80.800781 245.464844 C 73.734375 255.601562 59.734375 258 49.734375 250.933594 Z M 49.734375 250.933594 "/>
<path style=" stroke:none;fill-rule:nonzero;fill:rgb(26.27451%,55.686275%,86.27451%);fill-opacity:1;" d="M 160.265625 260.265625 C 149.066406 265.464844 135.734375 260.535156 130.535156 249.464844 L 93.199219 169.332031 C 88 158.132812 92.933594 144.800781 104 139.601562 C 115.199219 134.398438 128.535156 139.332031 133.734375 150.398438 L 171.066406 230.535156 C 176.265625 241.734375 171.464844 255.066406 160.265625 260.265625 Z M 160.265625 260.265625 "/>
<path style=" stroke:none;fill-rule:nonzero;fill:rgb(20.392157%,66.27451%,32.156863%);fill-opacity:1;" d="M 85.464844 232.398438 C 85.464844 244.917969 75.320312 255.066406 62.800781 255.066406 C 50.28125 255.066406 40.132812 244.917969 40.132812 232.398438 C 40.132812 219.882812 50.28125 209.734375 62.800781 209.734375 C 75.320312 209.734375 85.464844 219.882812 85.464844 232.398438 Z M 85.464844 232.398438 "/>
<path style=" stroke:none;fill-rule:nonzero;fill:rgb(100%,100%,100%);fill-opacity:1;" d="M 299.734375 260.800781 L 295.734375 253.867188 L 281.867188 261.867188 L 285.867188 268.800781 L 278.933594 272.800781 L 270.933594 258.933594 L 257.066406 266.933594 L 265.066406 280.800781 L 258.132812 284.800781 L 230.132812 236.265625 L 216.265625 244.265625 L 264.265625 327.332031 L 257.332031 331.332031 L 249.332031 317.601562 L 242.398438 321.601562 L 238.398438 314.667969 L 224.535156 322.667969 L 232.535156 336.535156 L 239.464844 332.535156 L 243.464844 339.332031 L 250.398438 335.332031 L 258.398438 349.199219 L 265.332031 345.199219 L 273.332031 359.066406 L 280.265625 355.066406 L 288.265625 368.933594 L 295.199219 364.933594 L 303.199219 378.800781 L 358.667969 346.800781 L 350.667969 332.933594 L 357.601562 328.933594 L 313.601562 252.800781 Z M 299.734375 260.800781 "/>
<path style=" stroke:none;fill-rule:nonzero;fill:rgb(100%,100%,100%);fill-opacity:1;" d="M 317.617188 259.707031 L 324.546875 255.707031 L 352.546875 304.203125 L 345.617188 308.203125 Z M 317.617188 259.707031 "/>
<path style=" stroke:none;fill-rule:nonzero;fill:rgb(84.705882%,92.156863%,98.431373%);fill-opacity:1;" d="M 317.617188 259.707031 L 324.546875 255.707031 L 352.546875 304.203125 L 345.617188 308.203125 Z M 317.617188 259.707031 "/>
<path style=" stroke:none;fill-rule:nonzero;fill:rgb(31.764706%,34.901961%,47.45098%);fill-opacity:1;" d="M 209.347656 248.285156 L 216.277344 244.285156 L 264.277344 327.421875 L 257.347656 331.421875 Z M 209.347656 248.285156 "/>
<path style=" stroke:none;fill-rule:nonzero;fill:rgb(31.764706%,34.901961%,47.45098%);fill-opacity:1;" d="M 212.265625 237.324219 L 226.121094 229.324219 L 230.121094 236.253906 L 216.265625 244.253906 Z M 212.265625 237.324219 "/>
<path style=" stroke:none;fill-rule:nonzero;fill:rgb(31.764706%,34.901961%,47.45098%);fill-opacity:1;" d="M 266.933594 252 L 253.066406 260 L 237.066406 232.265625 L 230.132812 236.265625 L 266.132812 298.667969 L 273.066406 294.667969 L 257.066406 266.933594 L 270.933594 258.933594 Z M 266.933594 252 "/>
<path style=" stroke:none;fill-rule:nonzero;fill:rgb(31.764706%,34.901961%,47.45098%);fill-opacity:1;" d="M 291.734375 246.933594 L 270.933594 258.933594 L 286.933594 286.667969 L 293.867188 282.667969 L 281.867188 261.867188 L 295.734375 253.867188 Z M 291.734375 246.933594 "/>
<path style=" stroke:none;fill-rule:nonzero;fill:rgb(31.764706%,34.901961%,47.45098%);fill-opacity:1;" d="M 345.5625 308.109375 L 352.492188 304.109375 L 364.492188 324.894531 L 357.5625 328.894531 Z M 345.5625 308.109375 "/>
<path style=" stroke:none;fill-rule:nonzero;fill:rgb(84.705882%,92.156863%,98.431373%);fill-opacity:1;" d="M 338.632812 312.113281 L 345.558594 308.113281 L 357.558594 328.894531 L 350.632812 332.894531 Z M 338.632812 312.113281 "/>
<path style=" stroke:none;fill-rule:nonzero;fill:rgb(84.705882%,92.156863%,98.431373%);fill-opacity:1;" d="M 343.707031 336.910156 L 350.632812 332.910156 L 358.632812 346.765625 L 351.707031 350.765625 Z M 343.707031 336.910156 "/>
<path style=" stroke:none;fill-rule:nonzero;fill:rgb(31.764706%,34.901961%,47.45098%);fill-opacity:1;" d="M 350.667969 332.933594 L 358.667969 346.800781 L 303.199219 378.800781 L 295.199219 364.933594 L 288.265625 368.933594 L 300.265625 389.734375 L 369.601562 349.734375 L 357.601562 328.933594 Z M 350.667969 332.933594 "/>
<path style=" stroke:none;fill-rule:nonzero;fill:rgb(31.764706%,34.901961%,47.45098%);fill-opacity:1;" d="M 273.308594 359.066406 L 280.234375 355.066406 L 288.234375 368.921875 L 281.308594 372.921875 Z M 273.308594 359.066406 "/>
<path style=" stroke:none;fill-rule:nonzero;fill:rgb(31.764706%,34.901961%,47.45098%);fill-opacity:1;" d="M 258.371094 349.203125 L 265.296875 345.203125 L 273.296875 359.058594 L 266.371094 363.058594 Z M 258.371094 349.203125 "/>
<path style=" stroke:none;fill-rule:nonzero;fill:rgb(31.764706%,34.901961%,47.45098%);fill-opacity:1;" d="M 243.433594 339.34375 L 250.359375 335.34375 L 258.359375 349.199219 L 251.433594 353.199219 Z M 243.433594 339.34375 "/>
<path style=" stroke:none;fill-rule:nonzero;fill:rgb(31.764706%,34.901961%,47.45098%);fill-opacity:1;" d="M 232.5625 336.523438 L 239.492188 332.523438 L 243.492188 339.453125 L 236.5625 343.453125 Z M 232.5625 336.523438 "/>
<path style=" stroke:none;fill-rule:nonzero;fill:rgb(31.764706%,34.901961%,47.45098%);fill-opacity:1;" d="M 238.421875 314.65625 L 245.351562 310.65625 L 249.351562 317.582031 L 242.421875 321.582031 Z M 238.421875 314.65625 "/>
<path style=" stroke:none;fill-rule:nonzero;fill:rgb(31.764706%,34.901961%,47.45098%);fill-opacity:1;" d="M 234.398438 307.734375 L 213.601562 319.734375 L 225.601562 340.535156 L 232.535156 336.535156 L 224.535156 322.667969 L 238.398438 314.667969 Z M 234.398438 307.734375 "/>
<path style=" stroke:none;fill-rule:nonzero;fill:rgb(31.764706%,34.901961%,47.45098%);fill-opacity:1;" d="M 309.601562 245.867188 L 295.734375 253.867188 L 311.734375 281.601562 L 318.667969 277.601562 L 306.667969 256.800781 L 313.601562 252.800781 Z M 309.601562 245.867188 "/>
<path style=" stroke:none;fill-rule:nonzero;fill:rgb(31.764706%,34.901961%,47.45098%);fill-opacity:1;" d="M 313.609375 252.761719 L 320.535156 248.761719 L 324.535156 255.6875 L 317.609375 259.6875 Z M 313.609375 252.761719 "/>
<path style=" stroke:none;fill-rule:nonzero;fill:rgb(31.764706%,34.901961%,47.45098%);fill-opacity:1;" d="M 324.550781 255.703125 L 331.480469 251.703125 L 359.480469 300.199219 L 352.550781 304.199219 Z M 324.550781 255.703125 "/>
<path style=" stroke:none;fill-rule:nonzero;fill:rgb(31.764706%,34.901961%,47.45098%);fill-opacity:1;" d="M 279.058594 315.75 L 285.988281 311.75 L 301.988281 339.460938 L 295.058594 343.460938 Z M 279.058594 315.75 "/>
<path style=" stroke:none;fill-rule:nonzero;fill:rgb(31.764706%,34.901961%,47.45098%);fill-opacity:1;" d="M 292.921875 307.746094 L 299.851562 303.746094 L 315.851562 331.457031 L 308.921875 335.457031 Z M 292.921875 307.746094 "/>
<path style=" stroke:none;fill-rule:nonzero;fill:rgb(31.764706%,34.901961%,47.45098%);fill-opacity:1;" d="M 306.789062 299.738281 L 313.714844 295.738281 L 329.714844 323.453125 L 322.789062 327.453125 Z M 306.789062 299.738281 "/>
<path style=" stroke:none;fill-rule:nonzero;fill:rgb(49.019608%,87.45098%,58.823529%);fill-opacity:1;" d="M 179.464844 372.265625 C 179.332031 372.265625 179.199219 372.265625 179.066406 372.132812 C 134.800781 360.265625 90.535156 381.464844 46.265625 366.398438 C 45.199219 366 44.265625 365.199219 43.601562 364.265625 C 42.933594 363.199219 42.535156 362.132812 42.667969 361.066406 C 44.535156 340.667969 46.398438 320.132812 48.132812 299.601562 C 48.265625 298.535156 48.800781 297.734375 49.601562 297.199219 C 50.265625 296.800781 51.199219 296.667969 52.132812 296.800781 C 52.265625 296.800781 52.398438 296.800781 52.535156 296.933594 C 96.800781 308.800781 141.066406 287.601562 185.332031 302.667969 C 187.601562 303.464844 189.199219 305.867188 188.933594 308 C 187.066406 328.398438 185.199219 348.933594 183.464844 369.464844 C 183.332031 371.464844 181.601562 372.667969 179.464844 372.265625 Z M 179.464844 372.265625 "/>
<path style=" stroke:none;fill-rule:nonzero;fill:rgb(31.764706%,34.901961%,47.45098%);fill-opacity:1;" d="M 52.132812 300.933594 C 96.398438 312.933594 140.667969 291.734375 184.933594 306.535156 C 183.066406 327.066406 181.199219 347.601562 179.464844 368.265625 C 135.199219 356.265625 90.933594 377.464844 46.667969 362.667969 C 48.535156 342.132812 50.398438 321.601562 52.132812 300.933594 M 52.132812 292.933594 C 50.265625 292.535156 48.398438 292.800781 46.933594 293.734375 C 45.332031 294.667969 44.265625 296.398438 44.132812 298.398438 C 42.265625 318.800781 40.398438 339.199219 38.667969 359.601562 C 38.265625 363.867188 41.601562 368.933594 46 370.535156 C 90.265625 385.734375 134.535156 364.535156 178.800781 376.265625 C 179.066406 376.265625 179.199219 376.398438 179.464844 376.398438 C 181.332031 376.800781 183.199219 376.535156 184.667969 375.601562 C 186.265625 374.667969 187.332031 372.933594 187.464844 370.933594 C 189.332031 350.535156 191.199219 330.132812 192.933594 309.734375 C 193.332031 305.464844 190 300.398438 185.601562 298.800781 C 141.332031 283.601562 97.066406 304.800781 52.800781 293.066406 C 52.667969 293.066406 52.398438 292.933594 52.132812 292.933594 Z M 52.132812 292.933594 "/>
<path style=" stroke:none;fill-rule:nonzero;fill:rgb(0%,78.431373%,32.54902%);fill-opacity:1;" d="M 175.332031 351.066406 C 176.265625 340.933594 177.066406 330.800781 178 320.667969 C 172.265625 319.199219 167.867188 313.867188 168.398438 308.132812 C 134.800781 302.933594 101.332031 313.332031 67.734375 309.464844 C 67.199219 315.199219 62.132812 319.464844 56.265625 318.132812 C 55.332031 328.265625 54.535156 338.398438 53.601562 348.535156 C 59.332031 350 63.734375 355.332031 63.199219 361.066406 C 96.800781 366.265625 130.265625 355.867188 163.867188 359.734375 C 164.398438 353.867188 169.464844 349.734375 175.332031 351.066406 Z M 175.332031 351.066406 "/>
<path style=" stroke:none;fill-rule:nonzero;fill:rgb(49.019608%,87.45098%,58.823529%);fill-opacity:1;" d="M 140.265625 332.933594 C 138.800781 349.199219 126.800781 363.199219 113.199219 364.535156 C 99.734375 365.867188 89.867188 352.800781 91.332031 336.398438 C 92.800781 320.132812 104.800781 306.132812 118.398438 304.800781 C 131.867188 303.464844 141.734375 316.398438 140.265625 332.933594 Z M 140.265625 332.933594 "/>
<path style=" stroke:none;fill-rule:nonzero;fill:rgb(49.019608%,87.45098%,58.823529%);fill-opacity:1;" d="M 81.601562 336.398438 C 81.199219 341.464844 77.066406 345.464844 72.398438 345.199219 C 67.734375 344.800781 64.398438 340.132812 64.800781 335.199219 C 65.199219 330.265625 69.332031 326.667969 74 326.933594 C 78.667969 327.332031 82 331.332031 81.601562 336.398438 Z M 81.601562 336.398438 "/>
<path style=" stroke:none;fill-rule:nonzero;fill:rgb(49.019608%,87.45098%,58.823529%);fill-opacity:1;" d="M 166.800781 334 C 166.398438 338.933594 162.265625 342.535156 157.601562 342.265625 C 152.933594 342 149.601562 337.867188 150 332.800781 C 150.398438 327.734375 154.535156 323.734375 159.199219 324 C 163.867188 324.398438 167.332031 329.066406 166.800781 334 Z M 166.800781 334 "/>
<path style=" stroke:none;fill-rule:nonzero;fill:rgb(0%,78.431373%,32.54902%);fill-opacity:1;" d="M 119.734375 338.667969 C 119.867188 337.066406 118.398438 336.667969 115.199219 336.667969 C 109.734375 336.535156 105.464844 335.734375 105.734375 329.066406 C 106.132812 324.800781 109.066406 321.734375 114 320.398438 C 114.132812 319.332031 114.132812 318.265625 114.265625 317.332031 C 116.265625 317.199219 118.265625 316.933594 120.265625 316.800781 C 120.132812 317.867188 120.132812 318.933594 120 319.867188 C 123.199219 320.132812 125.332031 321.734375 126.398438 324.535156 C 126.535156 324.667969 126.535156 324.667969 126.535156 324.800781 C 126.667969 325.066406 126.800781 325.332031 126.800781 325.601562 C 124.800781 326.667969 122.800781 327.734375 120.800781 328.800781 C 120.667969 328.398438 120.535156 328 120.265625 327.734375 C 119.601562 326.265625 118.667969 325.601562 116.398438 325.734375 C 113.601562 326 112.265625 326.667969 112.132812 328.398438 C 112 329.867188 113.601562 330.265625 116.667969 330.398438 C 121.867188 330.535156 126.535156 331.332031 126 337.867188 C 125.601562 342.132812 122.535156 345.464844 117.601562 346.800781 C 117.464844 347.867188 117.464844 348.933594 117.332031 350 C 115.332031 350.132812 113.332031 350.398438 111.332031 350.535156 C 111.464844 349.464844 111.464844 348.398438 111.601562 347.332031 C 107.734375 347.066406 105.332031 345.332031 104.398438 342 C 104.265625 341.601562 104.132812 341.199219 104.132812 340.800781 C 106.132812 339.867188 108.265625 339.066406 110.265625 338.132812 C 110.398438 338.535156 110.535156 338.933594 110.667969 339.332031 C 111.199219 340.933594 112.535156 341.601562 114.800781 341.464844 C 118 341.332031 119.601562 340.398438 119.734375 338.667969 Z M 119.734375 338.667969 "/>
<path style=" stroke:none;fill-rule:nonzero;fill:rgb(98.431373%,69.019608%,25.098039%);fill-opacity:1;" d="M 324.398438 191.601562 C 322.667969 191.601562 321.066406 191.464844 319.332031 191.332031 L 298.132812 189.464844 C 297.066406 189.332031 296.132812 188.800781 295.464844 188 C 294.800781 187.199219 294.398438 186.132812 294.535156 185.066406 L 303.867188 78.800781 C 304 77.734375 304.535156 76.800781 305.332031 76.132812 C 306 75.464844 306.933594 75.199219 307.867188 75.199219 C 308 75.199219 308.132812 75.199219 308.265625 75.199219 L 329.464844 77.066406 C 360.933594 79.867188 384.398438 107.734375 381.601562 139.199219 C 378.800781 168.667969 353.734375 191.601562 324.398438 191.601562 Z M 324.398438 191.601562 "/>
<path style=" stroke:none;fill-rule:nonzero;fill:rgb(31.764706%,34.901961%,47.45098%);fill-opacity:1;" d="M 329.601562 73.199219 L 308.398438 71.332031 C 308.132812 71.332031 308 71.332031 307.734375 71.332031 C 305.867188 71.332031 304 72 302.535156 73.199219 C 300.933594 74.535156 299.867188 76.535156 299.734375 78.667969 L 290.398438 184.933594 C 290 189.332031 293.332031 193.199219 297.734375 193.601562 L 318.933594 195.464844 C 320.667969 195.601562 322.535156 195.734375 324.398438 195.734375 C 339.734375 195.734375 354.398438 190 365.734375 179.734375 C 377.199219 169.332031 384.132812 155.199219 385.464844 139.734375 C 388.265625 105.867188 363.332031 76.132812 329.601562 73.199219 Z M 362.800781 171.066406 L 338.800781 168.933594 C 336.535156 168.800781 334.667969 170.398438 334.398438 172.535156 C 334.265625 174.800781 335.867188 176.667969 338 176.933594 L 354.132812 178.398438 C 345.601562 184.265625 335.199219 187.601562 324.265625 187.601562 C 322.667969 187.601562 321.199219 187.464844 319.601562 187.332031 L 298.398438 185.464844 L 307.734375 79.199219 L 328.933594 81.066406 C 341.734375 82.132812 352.933594 87.734375 361.464844 96 L 345.332031 94.667969 C 343.066406 94.535156 341.199219 96.132812 340.933594 98.265625 C 340.800781 100.535156 342.398438 102.398438 344.535156 102.667969 L 368.535156 104.800781 C 370.800781 108.265625 372.800781 112 374.265625 116 L 351.601562 114 C 349.332031 113.867188 347.464844 115.464844 347.199219 117.601562 C 347.066406 119.867188 348.667969 121.734375 350.800781 122 L 375.867188 124.132812 C 376 124.132812 376.132812 124.132812 376.265625 124.132812 C 376.398438 124.132812 376.398438 124.132812 376.535156 124.132812 C 377.199219 127.601562 377.601562 131.332031 377.464844 134.933594 L 355.199219 132.933594 C 352.933594 132.800781 351.066406 134.398438 350.800781 136.535156 C 350.667969 138.800781 352.265625 140.667969 354.398438 140.933594 L 376.667969 142.933594 C 376.132812 146.535156 375.066406 150.132812 373.867188 153.464844 C 373.734375 153.464844 373.464844 153.332031 373.332031 153.332031 L 348.265625 151.199219 C 346 151.066406 344.132812 152.667969 343.867188 154.800781 C 343.734375 157.066406 345.332031 158.933594 347.464844 159.199219 L 370.132812 161.199219 C 368.265625 164.667969 365.734375 168.132812 362.800781 171.066406 Z M 362.800781 171.066406 "/>
<path style=" stroke:none;fill-rule:nonzero;fill:rgb(97.254902%,84.705882%,52.54902%);fill-opacity:1;" d="M 303.066406 189.734375 C 301.332031 189.734375 299.734375 189.601562 298 189.464844 C 266.535156 186.667969 243.066406 158.800781 245.867188 127.332031 C 248.398438 98 273.464844 74.933594 302.933594 74.933594 C 304.667969 74.933594 306.265625 75.066406 308 75.199219 C 323.199219 76.535156 337.066406 83.734375 346.933594 95.464844 C 356.800781 107.199219 361.464844 122 360.132812 137.332031 C 357.601562 166.800781 332.535156 189.734375 303.066406 189.734375 Z M 303.066406 189.734375 "/>
<path style=" stroke:none;fill-rule:nonzero;fill:rgb(31.764706%,34.901961%,47.45098%);fill-opacity:1;" d="M 302.933594 79.066406 C 304.535156 79.066406 306 79.199219 307.601562 79.332031 C 336.933594 81.867188 358.667969 107.734375 356.132812 137.066406 C 353.734375 164.800781 330.398438 185.734375 303.066406 185.734375 C 301.464844 185.734375 300 185.601562 298.398438 185.464844 C 269.066406 182.933594 247.332031 157.066406 249.867188 127.734375 C 252.265625 100 275.601562 79.066406 302.933594 79.066406 M 302.933594 71.066406 C 287.601562 71.066406 272.933594 76.800781 261.601562 87.066406 C 250.132812 97.464844 243.199219 111.601562 241.867188 127.066406 C 240.398438 143.332031 245.464844 159.332031 256 171.867188 C 266.535156 184.398438 281.332031 192.132812 297.601562 193.601562 C 299.332031 193.734375 301.199219 193.867188 303.066406 193.867188 C 318.398438 193.867188 333.066406 188.132812 344.398438 177.867188 C 355.867188 167.464844 362.800781 153.332031 364.132812 137.867188 C 365.601562 121.601562 360.535156 105.601562 350 93.066406 C 339.464844 80.535156 324.667969 72.800781 308.398438 71.332031 C 306.535156 71.199219 304.800781 71.066406 302.933594 71.066406 Z M 302.933594 71.066406 "/>
<path style=" stroke:none;fill-rule:nonzero;fill:rgb(98.823529%,92.156863%,76.078431%);fill-opacity:1;" d="M 315.199219 80.535156 L 258.398438 161.601562 C 261.464844 166.265625 265.066406 170.265625 269.332031 173.867188 L 330.398438 86.667969 C 325.734375 83.867188 320.667969 81.734375 315.199219 80.535156 Z M 315.199219 80.535156 "/>
<path style=" stroke:none;fill-rule:nonzero;fill:rgb(98.823529%,92.156863%,76.078431%);fill-opacity:1;" d="M 336.933594 91.199219 L 276 178.398438 C 279.066406 180.265625 282.398438 181.734375 285.867188 182.933594 L 344.667969 99.066406 C 342.265625 96.132812 339.734375 93.601562 336.933594 91.199219 Z M 336.933594 91.199219 "/>
<path style=" stroke:none;fill-rule:nonzero;fill:rgb(97.254902%,84.705882%,52.54902%);fill-opacity:1;" d="M 303.066406 173.734375 C 301.867188 173.734375 300.667969 173.734375 299.464844 173.601562 C 276.800781 171.601562 259.867188 151.464844 261.867188 128.800781 C 263.734375 107.601562 281.734375 91.066406 303.066406 91.066406 C 304.265625 91.066406 305.464844 91.066406 306.667969 91.199219 C 329.332031 93.199219 346.265625 113.332031 344.265625 136 C 342.398438 157.199219 324.265625 173.734375 303.066406 173.734375 Z M 303.066406 173.734375 "/>
<path style=" stroke:none;fill-rule:nonzero;fill:rgb(31.764706%,34.901961%,47.45098%);fill-opacity:1;" d="M 302.933594 95.066406 C 304 95.066406 305.066406 95.066406 306.265625 95.199219 C 326.800781 96.933594 342 115.066406 340.265625 135.601562 C 338.535156 155.066406 322.265625 169.734375 303.066406 169.734375 C 302 169.734375 300.933594 169.734375 299.734375 169.601562 C 279.199219 167.867188 264 149.734375 265.734375 129.199219 C 267.601562 109.734375 283.867188 95.066406 302.933594 95.066406 M 302.933594 87.066406 C 291.601562 87.066406 280.800781 91.332031 272.398438 98.933594 C 264 106.667969 258.800781 117.066406 257.734375 128.535156 C 255.601562 153.464844 274 175.464844 298.933594 177.601562 C 300.265625 177.734375 301.601562 177.734375 302.933594 177.734375 C 314.265625 177.734375 325.066406 173.464844 333.464844 165.867188 C 341.867188 158.132812 347.066406 147.734375 348.132812 136.265625 C 349.199219 124.265625 345.464844 112.398438 337.734375 103.199219 C 330 93.867188 319.066406 88.265625 306.933594 87.199219 C 305.601562 87.066406 304.265625 87.066406 302.933594 87.066406 Z M 302.933594 87.066406 "/>
<path style=" stroke:none;fill-rule:nonzero;fill:rgb(98.823529%,92.156863%,76.078431%);fill-opacity:1;" d="M 312.933594 96.398438 L 272.667969 154 C 275.734375 158.398438 279.867188 162.132812 284.667969 164.800781 L 327.332031 103.867188 C 323.066406 100.535156 318.265625 97.867188 312.933594 96.398438 Z M 312.933594 96.398438 "/>
<path style=" stroke:none;fill-rule:nonzero;fill:rgb(98.823529%,92.156863%,76.078431%);fill-opacity:1;" d="M 332.800781 109.867188 L 292 168.132812 C 294.535156 168.933594 297.066406 169.464844 299.734375 169.601562 C 301.066406 169.734375 302.535156 169.734375 303.867188 169.734375 L 338.398438 120.535156 C 337.066406 116.667969 335.199219 113.066406 332.800781 109.867188 Z M 332.800781 109.867188 "/>
<path style=" stroke:none;fill-rule:nonzero;fill:rgb(31.764706%,34.901961%,47.45098%);fill-opacity:1;" d="M 319.464844 132.800781 C 319.332031 132.800781 319.199219 132.800781 319.066406 132.800781 C 316.800781 132.667969 315.199219 130.667969 315.464844 128.535156 C 315.464844 128 315.332031 127.734375 315.199219 127.601562 C 315.066406 127.464844 314.800781 127.199219 314.265625 127.066406 C 313.464844 126.933594 312.933594 127.601562 312.800781 128.265625 C 312.667969 130.535156 310.667969 132.132812 308.398438 131.867188 C 306.132812 131.734375 304.535156 129.734375 304.800781 127.464844 C 305.066406 124.933594 306.132812 122.667969 308.132812 121.066406 C 310 119.464844 312.535156 118.667969 314.933594 118.933594 C 317.464844 119.199219 319.601562 120.265625 321.332031 122.265625 C 322.933594 124.132812 323.734375 126.535156 323.464844 129.066406 C 323.199219 131.199219 321.464844 132.800781 319.464844 132.800781 Z M 319.464844 132.800781 "/>
<path style=" stroke:none;fill-rule:nonzero;fill:rgb(31.764706%,34.901961%,47.45098%);fill-opacity:1;" d="M 292.800781 130.535156 C 292.667969 130.535156 292.535156 130.535156 292.398438 130.535156 C 290.132812 130.398438 288.535156 128.398438 288.800781 126.265625 C 288.800781 125.601562 288.265625 124.933594 287.601562 124.800781 C 287.066406 124.800781 286.800781 124.933594 286.667969 125.066406 C 286.535156 125.199219 286.265625 125.464844 286.132812 126 C 286 128.132812 284 129.867188 281.867188 129.601562 C 279.601562 129.464844 278 127.464844 278.265625 125.332031 C 278.535156 122.800781 279.601562 120.535156 281.601562 118.933594 C 283.464844 117.332031 285.867188 116.535156 288.398438 116.800781 C 293.464844 117.199219 297.332031 121.734375 296.933594 126.933594 C 296.667969 128.933594 294.933594 130.535156 292.800781 130.535156 Z M 292.800781 130.535156 "/>
<path style=" stroke:none;fill-rule:nonzero;fill:rgb(31.764706%,34.901961%,47.45098%);fill-opacity:1;" d="M 324.132812 117.464844 C 322.800781 117.199219 321.601562 116.800781 320.535156 116.667969 C 319.464844 116.398438 318.398438 116.132812 317.332031 116 C 316.398438 115.867188 315.332031 115.734375 314.265625 115.601562 C 313.199219 115.464844 311.867188 115.464844 310.398438 115.199219 C 308.800781 114.933594 307.734375 113.464844 308 111.867188 C 308.132812 111.066406 308.535156 110.398438 309.199219 110 L 309.332031 110 C 310.535156 109.199219 312 108.535156 313.601562 108.132812 C 315.199219 107.734375 317.066406 107.734375 318.800781 108 C 322.132812 108.535156 325.332031 110.398438 327.199219 113.066406 C 328.132812 114.398438 327.734375 116.132812 326.535156 117.066406 C 325.867188 117.464844 325.066406 117.734375 324.398438 117.464844 Z M 324.132812 117.464844 "/>
<path style=" stroke:none;fill-rule:nonzero;fill:rgb(31.764706%,34.901961%,47.45098%);fill-opacity:1;" d="M 277.199219 108.800781 C 279.464844 106.535156 282.933594 105.332031 286.398438 105.332031 C 288.132812 105.332031 290 105.734375 291.464844 106.398438 C 293.066406 107.066406 294.265625 107.867188 295.332031 108.933594 C 296.398438 110 296.535156 111.867188 295.332031 112.933594 C 294.800781 113.464844 294 113.867188 293.199219 113.734375 C 291.601562 113.734375 290.398438 113.464844 289.332031 113.332031 C 288.265625 113.199219 287.199219 113.199219 286.265625 113.199219 C 285.199219 113.199219 284.132812 113.199219 283.066406 113.332031 C 282 113.332031 280.800781 113.464844 279.332031 113.601562 L 279.066406 113.601562 C 277.464844 113.601562 276.265625 112.398438 276.132812 110.800781 C 276.398438 110 276.667969 109.332031 277.199219 108.800781 Z M 277.199219 108.800781 "/>
<path style=" stroke:none;fill-rule:nonzero;fill:rgb(31.764706%,34.901961%,47.45098%);fill-opacity:1;" d="M 313.332031 136.265625 L 286.800781 134 C 286.667969 134 286.535156 134 286.265625 134 C 283.464844 134 281.199219 136.132812 280.933594 138.933594 C 280.535156 143.867188 282 148.800781 285.199219 152.535156 C 288.398438 156.398438 292.933594 158.667969 297.867188 159.066406 C 298.398438 159.066406 298.933594 159.199219 299.464844 159.199219 C 309.199219 159.199219 317.199219 151.867188 318 142.132812 C 318.535156 139.199219 316.265625 136.535156 313.332031 136.265625 Z M 313.332031 136.265625 "/>
<path style=" stroke:none;fill-rule:nonzero;fill:rgb(87.843137%,51.372549%,50.196078%);fill-opacity:1;" d="M 299.265625 144.882812 C 293.835938 144.40625 289.265625 145.984375 289.054688 148.40625 C 288.839844 150.824219 293.070312 153.171875 298.5 153.648438 C 303.925781 154.125 308.5 152.546875 308.710938 150.125 C 308.921875 147.703125 304.695312 145.355469 299.265625 144.882812 Z M 299.265625 144.882812 "/>
<path style=" stroke:none;fill-rule:nonzero;fill:rgb(100%,84.705882%,52.54902%);fill-opacity:1;" d="M 279.199219 31.199219 C 275.734375 31.199219 272.800781 28.265625 272.800781 24.800781 C 272.800781 23.601562 271.867188 22.667969 270.667969 22.667969 C 269.464844 22.667969 268.535156 23.601562 268.535156 24.800781 C 268.535156 28.265625 265.601562 31.199219 262.132812 31.199219 C 260.933594 31.199219 260 32.132812 260 33.332031 C 260 34.535156 260.933594 35.464844 262.132812 35.464844 C 265.601562 35.464844 268.535156 38.398438 268.535156 41.867188 C 268.535156 43.066406 269.464844 44 270.667969 44 C 271.867188 44 272.800781 43.066406 272.800781 41.867188 C 272.800781 38.398438 275.734375 35.464844 279.199219 35.464844 C 280.398438 35.464844 281.332031 34.535156 281.332031 33.332031 C 281.332031 32.132812 280.398438 31.199219 279.199219 31.199219 Z M 279.199219 31.199219 "/>
<path style=" stroke:none;fill-rule:nonzero;fill:rgb(100%,84.705882%,52.54902%);fill-opacity:1;" d="M 66.667969 120.667969 C 66.667969 122.507812 65.175781 124 63.332031 124 C 61.492188 124 60 122.507812 60 120.667969 C 60 118.824219 61.492188 117.332031 63.332031 117.332031 C 65.175781 117.332031 66.667969 118.824219 66.667969 120.667969 Z M 66.667969 120.667969 "/>
<path style=" stroke:none;fill-rule:nonzero;fill:rgb(100%,84.705882%,52.54902%);fill-opacity:1;" d="M 342.667969 44.667969 C 342.667969 47.242188 340.578125 49.332031 338 49.332031 C 335.421875 49.332031 333.332031 47.242188 333.332031 44.667969 C 333.332031 42.089844 335.421875 40 338 40 C 340.578125 40 342.667969 42.089844 342.667969 44.667969 Z M 342.667969 44.667969 "/>
<path style=" stroke:none;fill-rule:nonzero;fill:rgb(100%,84.705882%,52.54902%);fill-opacity:1;" d="M 218.667969 180 L 209.332031 180 L 209.332031 170.667969 C 209.332031 168.398438 207.601562 166.667969 205.332031 166.667969 C 203.066406 166.667969 201.332031 168.398438 201.332031 170.667969 L 201.332031 180 L 192 180 C 189.734375 180 188 181.734375 188 184 C 188 186.265625 189.734375 188 192 188 L 201.332031 188 L 201.332031 197.332031 C 201.332031 199.601562 203.066406 201.332031 205.332031 201.332031 C 207.601562 201.332031 209.332031 199.601562 209.332031 197.332031 L 209.332031 188 L 218.667969 188 C 220.933594 188 222.667969 186.265625 222.667969 184 C 222.667969 181.734375 220.933594 180 218.667969 180 Z M 218.667969 180 "/>
<path style=" stroke:none;fill-rule:nonzero;fill:rgb(100%,84.705882%,52.54902%);fill-opacity:1;" d="M 36 77.332031 L 26.667969 77.332031 L 26.667969 68 C 26.667969 65.734375 24.933594 64 22.667969 64 C 20.398438 64 18.667969 65.734375 18.667969 68 L 18.667969 77.332031 L 9.332031 77.332031 C 7.066406 77.332031 5.332031 79.066406 5.332031 81.332031 C 5.332031 83.601562 7.066406 85.332031 9.332031 85.332031 L 18.667969 85.332031 L 18.667969 94.667969 C 18.667969 96.933594 20.398438 98.667969 22.667969 98.667969 C 24.933594 98.667969 26.667969 96.933594 26.667969 94.667969 L 26.667969 85.332031 L 36 85.332031 C 38.265625 85.332031 40 83.601562 40 81.332031 C 40 79.066406 38.265625 77.332031 36 77.332031 Z M 36 77.332031 "/>
<path style=" stroke:none;fill-rule:nonzero;fill:rgb(100%,84.705882%,52.54902%);fill-opacity:1;" d="M 40.265625 273.601562 C 36.265625 273.601562 33.066406 270.398438 33.066406 266.398438 C 33.066406 265.066406 32 264 30.667969 264 C 29.332031 264 28.265625 265.066406 28.265625 266.398438 C 28.265625 270.398438 25.066406 273.601562 21.066406 273.601562 C 19.734375 273.601562 18.667969 274.667969 18.667969 276 C 18.667969 277.332031 19.734375 278.398438 21.066406 278.398438 C 25.066406 278.398438 28.265625 281.601562 28.265625 285.601562 C 28.265625 286.933594 29.332031 288 30.667969 288 C 32 288 33.066406 286.933594 33.066406 285.601562 C 33.066406 281.601562 36.265625 278.398438 40.265625 278.398438 C 41.601562 278.398438 42.667969 277.332031 42.667969 276 C 42.667969 274.667969 41.601562 273.601562 40.265625 273.601562 Z M 40.265625 273.601562 "/>
<path style=" stroke:none;fill-rule:nonzero;fill:rgb(100%,84.705882%,52.54902%);fill-opacity:1;" d="M 25.332031 176.667969 C 25.332031 179.980469 22.648438 182.667969 19.332031 182.667969 C 16.019531 182.667969 13.332031 179.980469 13.332031 176.667969 C 13.332031 173.351562 16.019531 170.667969 19.332031 170.667969 C 22.648438 170.667969 25.332031 173.351562 25.332031 176.667969 Z M 25.332031 176.667969 "/>
<path style=" stroke:none;fill-rule:nonzero;fill:rgb(100%,84.705882%,52.54902%);fill-opacity:1;" d="M 20 343.332031 C 20 345.175781 18.507812 346.667969 16.667969 346.667969 C 14.824219 346.667969 13.332031 345.175781 13.332031 343.332031 C 13.332031 341.492188 14.824219 340 16.667969 340 C 18.507812 340 20 341.492188 20 343.332031 Z M 20 343.332031 "/>
<path style=" stroke:none;fill-rule:nonzero;fill:rgb(100%,84.705882%,52.54902%);fill-opacity:1;" d="M 386.933594 276.265625 C 382.933594 276.265625 379.734375 273.066406 379.734375 269.066406 C 379.734375 267.734375 378.667969 266.667969 377.332031 266.667969 C 376 266.667969 374.933594 267.734375 374.933594 269.066406 C 374.933594 273.066406 371.734375 276.265625 367.734375 276.265625 C 366.398438 276.265625 365.332031 277.332031 365.332031 278.667969 C 365.332031 280 366.398438 281.066406 367.734375 281.066406 C 371.734375 281.066406 374.933594 284.265625 374.933594 288.265625 C 374.933594 289.601562 376 290.667969 377.332031 290.667969 C 378.667969 290.667969 379.734375 289.601562 379.734375 288.265625 C 379.734375 284.265625 382.933594 281.066406 386.933594 281.066406 C 388.265625 281.066406 389.332031 280 389.332031 278.667969 C 389.332031 277.332031 388.265625 276.265625 386.933594 276.265625 Z M 386.933594 276.265625 "/>
<path style=" stroke:none;fill-rule:nonzero;fill:rgb(100%,84.705882%,52.54902%);fill-opacity:1;" d="M 381.332031 208.667969 C 381.332031 211.980469 378.648438 214.667969 375.332031 214.667969 C 372.019531 214.667969 369.332031 211.980469 369.332031 208.667969 C 369.332031 205.351562 372.019531 202.667969 375.332031 202.667969 C 378.648438 202.667969 381.332031 205.351562 381.332031 208.667969 Z M 381.332031 208.667969 "/>
<path style=" stroke:none;fill-rule:nonzero;fill:rgb(100%,84.705882%,52.54902%);fill-opacity:1;" d="M 324 222 C 324 223.839844 322.507812 225.332031 320.667969 225.332031 C 318.824219 225.332031 317.332031 223.839844 317.332031 222 C 317.332031 220.160156 318.824219 218.667969 320.667969 218.667969 C 322.507812 218.667969 324 220.160156 324 222 Z M 324 222 "/>
<path style=" stroke:none;fill-rule:nonzero;fill:rgb(100%,84.705882%,52.54902%);fill-opacity:1;" d="M 52 28.667969 C 52 31.980469 49.3125 34.667969 46 34.667969 C 42.6875 34.667969 40 31.980469 40 28.667969 C 40 25.351562 42.6875 22.667969 46 22.667969 C 49.3125 22.667969 52 25.351562 52 28.667969 Z M 52 28.667969 "/>
<path style=" stroke:none;fill-rule:nonzero;fill:rgb(100%,84.705882%,52.54902%);fill-opacity:1;" d="M 165.867188 131.199219 C 162.398438 131.199219 159.464844 128.265625 159.464844 124.800781 C 159.464844 123.601562 158.535156 122.667969 157.332031 122.667969 C 156.132812 122.667969 155.199219 123.601562 155.199219 124.800781 C 155.199219 128.265625 152.265625 131.199219 148.800781 131.199219 C 147.601562 131.199219 146.667969 132.132812 146.667969 133.332031 C 146.667969 134.535156 147.601562 135.464844 148.800781 135.464844 C 152.265625 135.464844 155.199219 138.398438 155.199219 141.867188 C 155.199219 143.066406 156.132812 144 157.332031 144 C 158.535156 144 159.464844 143.066406 159.464844 141.867188 C 159.464844 138.398438 162.398438 135.464844 165.867188 135.464844 C 167.066406 135.464844 168 134.535156 168 133.332031 C 168 132.132812 167.066406 131.199219 165.867188 131.199219 Z M 165.867188 131.199219 "/>
<path style=" stroke:none;fill-rule:nonzero;fill:rgb(100%,84.705882%,52.54902%);fill-opacity:1;" d="M 218.667969 120 C 218.667969 122.210938 216.875 124 214.667969 124 C 212.457031 124 210.667969 122.210938 210.667969 120 C 210.667969 117.789062 212.457031 116 214.667969 116 C 216.875 116 218.667969 117.789062 218.667969 120 Z M 218.667969 120 "/>
</g>
</svg>
