<?xml version="1.0" encoding="utf-8"?>
<!-- Generator: Adobe Illustrator 26.0.2, SVG Export Plug-In . SVG Version: 6.00 Build 0)  -->
<svg version="1.1" id="Facebook_x5F_Hub-Facebook_x5F_Ad_x5F_Attributes"
	 xmlns="http://www.w3.org/2000/svg" xmlns:xlink="http://www.w3.org/1999/xlink" x="0px" y="0px" viewBox="0 0 400 400"
	 style="enable-background:new 0 0 400 400;" xml:space="preserve">
<style type="text/css">
	.st0{fill:#515979;}
	.st1{fill:#FFFFFF;}
	.st2{fill:#667683;}
	.st3{fill:#EF7D7D;}
	.st4{fill:#FFE8A0;}
	.st5{fill:#7DDF96;}
	.st6{fill:#FDE1D9;}
	.st7{fill:#B4ECFB;}
	.st8{fill:#D8F5DF;}
	.st9{fill:#6ADAF7;}
	.st10{fill:#F89D81;}
	.st11{fill:#1877F2;}
	.st12{fill:none;}
	.st13{fill:#FFD886;}
</style>
<g>
	<path class="st0" d="M188.28,341.72c-1.44,0-2.89-0.02-4.32-0.07c-0.83-0.03-1.48-0.72-1.45-1.55c0.03-0.83,0.73-1.51,1.55-1.45
		c1.4,0.04,2.82,0.07,4.22,0.07l0.72,0c0,0,0,0,0.01,0c0.83,0,1.5,0.67,1.5,1.49c0,0.83-0.67,1.5-1.49,1.51L188.28,341.72z
		 M197.99,341.37c-0.78,0-1.44-0.6-1.49-1.39c-0.06-0.83,0.56-1.54,1.39-1.6c1.63-0.12,3.28-0.27,4.92-0.44
		c0.81-0.09,1.56,0.5,1.65,1.33c0.09,0.82-0.5,1.56-1.33,1.65c-1.68,0.18-3.37,0.33-5.03,0.45
		C198.07,341.37,198.03,341.37,197.99,341.37z M175.03,341.07c-0.05,0-0.1,0-0.15-0.01c-1.67-0.16-3.35-0.36-5.02-0.59
		c-0.82-0.11-1.4-0.87-1.29-1.69c0.11-0.82,0.86-1.4,1.69-1.29c1.63,0.22,3.28,0.41,4.91,0.57c0.82,0.08,1.43,0.82,1.35,1.64
		C176.45,340.5,175.8,341.07,175.03,341.07z M211.87,339.65c-0.71,0-1.35-0.51-1.47-1.24c-0.15-0.82,0.4-1.59,1.21-1.74
		c1.61-0.29,3.24-0.61,4.85-0.96c0.81-0.18,1.61,0.34,1.78,1.15s-0.34,1.61-1.15,1.78c-1.64,0.36-3.31,0.68-4.96,0.98
		C212.05,339.64,211.96,339.65,211.87,339.65z M161.2,338.99c-0.1,0-0.2-0.01-0.3-0.03c-1.65-0.34-3.31-0.71-4.93-1.11
		c-0.8-0.2-1.3-1.01-1.1-1.81c0.2-0.8,1.01-1.3,1.81-1.1c1.59,0.39,3.21,0.75,4.82,1.08c0.81,0.17,1.33,0.96,1.17,1.77
		C162.52,338.5,161.9,338.99,161.2,338.99z M225.5,336.49c-0.65,0-1.25-0.43-1.44-1.08c-0.23-0.8,0.23-1.63,1.03-1.86
		c1.56-0.45,3.15-0.94,4.72-1.46c0.79-0.26,1.63,0.17,1.89,0.96c0.26,0.79-0.17,1.63-0.96,1.89c-1.61,0.53-3.23,1.03-4.83,1.49
		C225.78,336.47,225.64,336.49,225.5,336.49z M147.66,335.46c-0.15,0-0.3-0.02-0.45-0.07c-1.58-0.5-3.2-1.05-4.8-1.62
		c-0.78-0.28-1.19-1.14-0.91-1.92c0.28-0.78,1.14-1.18,1.92-0.91c1.57,0.56,3.15,1.1,4.7,1.59c0.79,0.25,1.23,1.09,0.98,1.88
		C148.89,335.05,148.3,335.46,147.66,335.46z M238.72,331.91c-0.59,0-1.15-0.35-1.39-0.94c-0.31-0.77,0.06-1.64,0.83-1.95
		c1.51-0.61,3.03-1.27,4.53-1.94c0.76-0.34,1.64,0,1.98,0.75c0.34,0.75,0,1.64-0.75,1.98c-1.53,0.69-3.09,1.36-4.63,1.98
		C239.1,331.87,238.91,331.91,238.72,331.91z M134.54,330.52c-0.2,0-0.4-0.04-0.6-0.13c-1.54-0.67-3.09-1.39-4.6-2.12
		c-0.75-0.36-1.06-1.26-0.7-2c0.36-0.75,1.25-1.06,2-0.7c1.48,0.71,2.99,1.41,4.5,2.07c0.76,0.33,1.1,1.22,0.77,1.98
		C135.67,330.19,135.12,330.52,134.54,330.52z M251.37,325.98c-0.54,0-1.05-0.29-1.32-0.79c-0.39-0.73-0.11-1.64,0.62-2.03
		c1.45-0.77,2.9-1.58,4.31-2.4c0.72-0.42,1.63-0.18,2.05,0.54s0.17,1.63-0.54,2.05c-1.44,0.84-2.92,1.67-4.4,2.46
		C251.85,325.92,251.61,325.98,251.37,325.98z M263.34,318.76c-0.48,0-0.95-0.23-1.24-0.66c-0.46-0.69-0.29-1.62,0.4-2.08
		c1.37-0.92,2.72-1.88,4.04-2.84c0.67-0.49,1.61-0.34,2.1,0.32s0.34,1.61-0.32,2.1c-1.34,0.98-2.73,1.96-4.13,2.91
		C263.92,318.68,263.63,318.76,263.34,318.76z M274.49,310.34c-0.43,0-0.85-0.18-1.15-0.54c-0.53-0.63-0.45-1.58,0.18-2.11
		c1.25-1.05,2.51-2.15,3.72-3.25c0.61-0.56,1.56-0.51,2.12,0.1c0.56,0.61,0.51,1.56-0.1,2.12c-1.24,1.13-2.52,2.24-3.81,3.32
		C275.18,310.22,274.83,310.34,274.49,310.34z M284.72,300.79c-0.38,0-0.75-0.14-1.04-0.42c-0.6-0.58-0.61-1.53-0.04-2.12
		c1.14-1.18,2.27-2.4,3.37-3.62c0.55-0.62,1.5-0.67,2.12-0.11c0.62,0.55,0.67,1.5,0.11,2.12c-1.12,1.25-2.28,2.49-3.44,3.7
		C285.51,300.64,285.12,300.79,284.72,300.79z M293.91,290.24c-0.32,0-0.65-0.1-0.92-0.32c-0.65-0.51-0.77-1.45-0.26-2.11
		c1.01-1.29,2.01-2.62,2.98-3.95c0.49-0.67,1.42-0.82,2.09-0.33c0.67,0.49,0.82,1.42,0.33,2.09c-0.98,1.36-2.01,2.71-3.04,4.04
		C294.8,290.04,294.36,290.24,293.91,290.24z M301.96,278.79c-0.27,0-0.55-0.07-0.8-0.23c-0.7-0.44-0.91-1.37-0.47-2.07
		c0.88-1.4,1.73-2.82,2.55-4.24c0.41-0.72,1.33-0.96,2.05-0.55c0.72,0.41,0.96,1.33,0.55,2.05c-0.84,1.45-1.71,2.91-2.61,4.34
		C302.95,278.54,302.46,278.79,301.96,278.79z M72.71,275.69c-0.51,0-1.01-0.26-1.29-0.74c-0.85-1.44-1.68-2.91-2.48-4.39
		c-0.39-0.73-0.12-1.64,0.6-2.03c0.73-0.4,1.64-0.12,2.03,0.61c0.78,1.45,1.6,2.89,2.43,4.29c0.42,0.71,0.18,1.63-0.53,2.05
		C73.23,275.62,72.97,275.69,72.71,275.69z M308.77,266.55c-0.22,0-0.45-0.05-0.66-0.15c-0.74-0.36-1.05-1.26-0.69-2.01
		c0.73-1.49,1.43-3,2.09-4.49c0.34-0.76,1.22-1.1,1.98-0.76c0.76,0.34,1.1,1.22,0.76,1.98c-0.68,1.52-1.4,3.07-2.14,4.59
		C309.86,266.24,309.33,266.55,308.77,266.55z M66.25,263.3c-0.57,0-1.11-0.33-1.37-0.88c-0.69-1.52-1.37-3.07-2.01-4.62
		c-0.32-0.77,0.05-1.64,0.81-1.96c0.77-0.31,1.64,0.05,1.96,0.81c0.63,1.52,1.29,3.04,1.96,4.52c0.34,0.75,0.01,1.64-0.74,1.99
		C66.67,263.26,66.45,263.3,66.25,263.3z M314.27,253.66c-0.17,0-0.34-0.03-0.51-0.09c-0.78-0.28-1.18-1.15-0.89-1.92
		c0.56-1.54,1.11-3.12,1.61-4.69c0.25-0.79,1.1-1.22,1.89-0.96c0.79,0.25,1.22,1.1,0.96,1.89c-0.52,1.61-1.07,3.22-1.65,4.79
		C315.46,253.29,314.88,253.66,314.27,253.66z M61.11,250.3c-0.63,0-1.21-0.4-1.42-1.02c-0.53-1.59-1.04-3.21-1.52-4.82
		c-0.23-0.79,0.22-1.63,1.02-1.86c0.8-0.24,1.63,0.22,1.86,1.01c0.46,1.58,0.96,3.16,1.48,4.71c0.26,0.79-0.16,1.64-0.94,1.9
		C61.43,250.28,61.27,250.3,61.11,250.3z M318.38,240.28c-0.12,0-0.24-0.01-0.36-0.04c-0.8-0.2-1.29-1.01-1.09-1.82
		c0.4-1.59,0.77-3.21,1.11-4.82c0.17-0.81,0.97-1.32,1.78-1.16c0.81,0.17,1.33,0.97,1.16,1.78c-0.35,1.64-0.73,3.3-1.13,4.92
		C319.66,239.82,319.05,240.28,318.38,240.28z M57.36,236.83c-0.69,0-1.31-0.48-1.46-1.17c-0.36-1.64-0.7-3.3-1-4.95
		c-0.15-0.81,0.39-1.6,1.21-1.75c0.82-0.15,1.6,0.39,1.75,1.21c0.3,1.61,0.63,3.24,0.98,4.84c0.18,0.81-0.33,1.61-1.14,1.79
		C57.58,236.81,57.47,236.83,57.36,236.83z M321.06,226.55c-0.07,0-0.14,0-0.21-0.01c-0.82-0.12-1.39-0.88-1.28-1.7
		c0.23-1.62,0.43-3.27,0.6-4.91c0.08-0.82,0.82-1.41,1.65-1.34c0.82,0.08,1.42,0.82,1.34,1.65c-0.17,1.68-0.38,3.36-0.61,5.02
		C322.44,226,321.79,226.55,321.06,226.55z M55.05,223.03c-0.75,0-1.4-0.56-1.49-1.33c-0.19-1.66-0.35-3.35-0.48-5.03
		c-0.06-0.83,0.55-1.55,1.38-1.61c0.82-0.08,1.55,0.55,1.61,1.38c0.13,1.64,0.28,3.3,0.47,4.92c0.09,0.82-0.5,1.57-1.32,1.66
		C55.16,223.03,55.1,223.03,55.05,223.03z M322.29,212.61c-0.02,0-0.04,0-0.06,0c-0.83-0.03-1.47-0.73-1.44-1.55
		c0.06-1.63,0.09-3.29,0.09-4.94c0-0.96-0.01-1.93-0.03-2.89c-0.02-0.83,0.64-1.51,1.47-1.53c0.8,0,1.51,0.64,1.53,1.47
		c0.02,0.98,0.03,1.96,0.03,2.95c0,1.68-0.03,3.38-0.09,5.05C323.76,211.98,323.1,212.61,322.29,212.61z M54.18,209.07
		c-0.82,0-1.49-0.66-1.5-1.48c-0.01-0.49-0.01-0.98-0.01-1.47c0-1.2,0.02-2.39,0.05-3.58c0.02-0.81,0.69-1.46,1.5-1.46
		c0.01,0,0.03,0,0.04,0c0.83,0.02,1.48,0.71,1.46,1.54c-0.03,1.17-0.05,2.33-0.05,3.51c0,0.48,0,0.96,0.01,1.44
		c0.01,0.83-0.65,1.51-1.48,1.52C54.19,209.07,54.19,209.07,54.18,209.07z M321.86,195.71c-0.77,0-1.42-0.59-1.49-1.37
		c-0.14-1.63-0.32-3.28-0.52-4.91c-0.1-0.82,0.48-1.57,1.3-1.68c0.82-0.1,1.57,0.48,1.68,1.3c0.21,1.67,0.39,3.36,0.54,5.03
		c0.07,0.83-0.54,1.55-1.36,1.62C321.95,195.71,321.9,195.71,321.86,195.71z M54.75,195.09c-0.05,0-0.09,0-0.14-0.01
		c-0.83-0.08-1.43-0.81-1.36-1.63c0.15-1.67,0.34-3.36,0.56-5.02c0.11-0.82,0.86-1.41,1.68-1.29c0.82,0.11,1.4,0.86,1.29,1.68
		c-0.21,1.63-0.4,3.28-0.55,4.91C56.17,194.51,55.52,195.09,54.75,195.09z M319.91,181.86c-0.7,0-1.33-0.5-1.47-1.21
		c-0.31-1.62-0.66-3.24-1.03-4.83c-0.19-0.81,0.31-1.61,1.12-1.8c0.81-0.19,1.61,0.31,1.8,1.12c0.38,1.63,0.74,3.29,1.06,4.94
		c0.16,0.81-0.37,1.6-1.19,1.76C320.1,181.85,320.01,181.86,319.91,181.86z M56.76,181.25c-0.1,0-0.2-0.01-0.29-0.03
		c-0.81-0.16-1.34-0.95-1.18-1.76c0.33-1.65,0.69-3.31,1.08-4.94c0.19-0.81,1-1.3,1.81-1.11c0.81,0.19,1.3,1,1.11,1.81
		c-0.38,1.59-0.74,3.22-1.06,4.83C58.09,180.75,57.47,181.25,56.76,181.25z M316.52,168.29c-0.64,0-1.24-0.42-1.43-1.06
		c-0.48-1.57-1-3.15-1.54-4.7c-0.27-0.78,0.14-1.64,0.92-1.91c0.78-0.27,1.64,0.14,1.91,0.92c0.55,1.58,1.08,3.2,1.57,4.8
		c0.24,0.79-0.2,1.63-1,1.87C316.82,168.27,316.67,168.29,316.52,168.29z M60.22,167.69c-0.15,0-0.3-0.02-0.45-0.07
		c-0.79-0.25-1.23-1.09-0.99-1.88c0.5-1.62,1.04-3.24,1.6-4.81c0.28-0.78,1.13-1.19,1.91-0.91c0.78,0.28,1.19,1.13,0.91,1.91
		c-0.54,1.54-1.07,3.12-1.56,4.7C61.45,167.28,60.86,167.69,60.22,167.69z M311.74,155.16c-0.58,0-1.14-0.34-1.38-0.91
		c-0.64-1.49-1.31-3.01-2.01-4.5c-0.35-0.75-0.03-1.64,0.72-2c0.75-0.35,1.64-0.03,2,0.72c0.72,1.52,1.41,3.07,2.06,4.6
		c0.32,0.76-0.03,1.64-0.79,1.97C312.13,155.12,311.93,155.16,311.74,155.16z M65.08,154.55c-0.2,0-0.4-0.04-0.59-0.12
		c-0.76-0.33-1.11-1.21-0.78-1.97c0.66-1.54,1.37-3.09,2.09-4.61c0.36-0.75,1.25-1.07,2-0.71c0.75,0.36,1.07,1.25,0.71,2
		c-0.71,1.49-1.4,3.01-2.05,4.51C66.22,154.21,65.66,154.55,65.08,154.55z M305.6,142.61c-0.53,0-1.04-0.28-1.31-0.77
		c-0.79-1.42-1.62-2.86-2.47-4.27c-0.43-0.71-0.2-1.63,0.51-2.06c0.71-0.43,1.63-0.2,2.06,0.51c0.87,1.44,1.73,2.91,2.53,4.37
		c0.4,0.72,0.14,1.64-0.58,2.04C306.1,142.55,305.85,142.61,305.6,142.61z M71.3,141.99c-0.25,0-0.5-0.06-0.73-0.19
		c-0.72-0.41-0.98-1.32-0.57-2.04c0.82-1.47,1.69-2.93,2.56-4.37c0.43-0.71,1.36-0.93,2.06-0.5c0.71,0.43,0.93,1.36,0.5,2.06
		c-0.86,1.4-1.7,2.84-2.51,4.27C72.33,141.72,71.82,141.99,71.3,141.99z M298.19,130.76c-0.47,0-0.94-0.22-1.23-0.64
		c-0.94-1.34-1.92-2.68-2.91-3.99c-0.5-0.66-0.37-1.6,0.29-2.1c0.66-0.5,1.6-0.37,2.1,0.29c1.01,1.34,2.01,2.71,2.97,4.08
		c0.48,0.68,0.31,1.61-0.37,2.09C298.79,130.67,298.49,130.76,298.19,130.76z M78.79,130.16c-0.3,0-0.6-0.09-0.87-0.28
		c-0.68-0.48-0.84-1.42-0.36-2.09c0.96-1.36,1.97-2.73,3-4.07c0.5-0.66,1.45-0.78,2.1-0.28c0.66,0.5,0.78,1.44,0.28,2.1
		c-1.01,1.31-1.99,2.65-2.94,3.98C79.72,129.94,79.26,130.16,78.79,130.16z M289.58,119.74c-0.42,0-0.84-0.18-1.13-0.52
		c-1.07-1.23-2.18-2.47-3.31-3.67c-0.57-0.6-0.53-1.55,0.07-2.12c0.6-0.57,1.55-0.53,2.12,0.07c1.15,1.23,2.29,2.49,3.38,3.75
		c0.54,0.63,0.48,1.57-0.15,2.12C290.28,119.62,289.93,119.74,289.58,119.74z M87.46,119.18c-0.35,0-0.7-0.12-0.99-0.37
		c-0.62-0.55-0.68-1.49-0.14-2.12c1.11-1.26,2.25-2.52,3.41-3.74c0.57-0.6,1.52-0.63,2.12-0.06c0.6,0.57,0.63,1.52,0.06,2.12
		c-1.13,1.19-2.25,2.42-3.33,3.65C88.29,119,87.88,119.18,87.46,119.18z M279.88,109.67c-0.37,0-0.74-0.13-1.03-0.4
		c-1.2-1.12-2.43-2.23-3.67-3.31c-0.63-0.54-0.69-1.49-0.15-2.12c0.54-0.63,1.49-0.69,2.12-0.15c1.27,1.1,2.53,2.24,3.76,3.39
		c0.6,0.57,0.64,1.52,0.07,2.12C280.68,109.51,280.28,109.67,279.88,109.67z M97.23,109.16c-0.4,0-0.81-0.16-1.1-0.48
		c-0.56-0.61-0.53-1.56,0.08-2.12c1.23-1.14,2.5-2.27,3.77-3.36c0.63-0.54,1.58-0.47,2.12,0.16c0.54,0.63,0.47,1.58-0.16,2.12
		c-1.25,1.07-2.49,2.18-3.69,3.29C97.96,109.02,97.59,109.16,97.23,109.16z M269.17,100.65c-0.32,0-0.63-0.1-0.9-0.3
		c-1.31-1-2.66-1.98-4-2.91c-0.68-0.48-0.84-1.41-0.37-2.09c0.48-0.68,1.41-0.84,2.09-0.37c1.37,0.96,2.74,1.96,4.09,2.98
		c0.66,0.5,0.79,1.44,0.29,2.1C270.08,100.44,269.63,100.65,269.17,100.65z M107.97,100.2c-0.46,0-0.91-0.21-1.2-0.6
		c-0.5-0.66-0.36-1.6,0.3-2.1c1.34-1,2.72-2,4.1-2.95c0.68-0.47,1.62-0.3,2.09,0.38c0.47,0.68,0.3,1.62-0.38,2.09
		c-1.35,0.93-2.69,1.9-4.01,2.89C108.6,100.11,108.29,100.2,107.97,100.2z M257.59,92.79c-0.26,0-0.53-0.07-0.78-0.22
		c-1.41-0.85-2.85-1.69-4.28-2.48c-0.72-0.4-0.99-1.31-0.58-2.04c0.4-0.73,1.32-0.98,2.04-0.58c1.47,0.81,2.94,1.67,4.38,2.54
		c0.71,0.43,0.94,1.35,0.51,2.06C258.59,92.53,258.1,92.79,257.59,92.79z M119.59,92.42c-0.51,0-1.01-0.26-1.29-0.73
		c-0.42-0.71-0.19-1.63,0.52-2.06c1.43-0.86,2.91-1.7,4.38-2.51c0.73-0.4,1.64-0.13,2.04,0.59c0.4,0.73,0.13,1.64-0.59,2.04
		c-1.44,0.79-2.88,1.61-4.28,2.45C120.11,92.35,119.85,92.42,119.59,92.42z M245.24,86.18c-0.21,0-0.43-0.05-0.64-0.14
		c-1.48-0.7-3-1.38-4.52-2.02c-0.76-0.32-1.12-1.2-0.79-1.97c0.32-0.76,1.21-1.12,1.97-0.79c1.55,0.66,3.11,1.36,4.62,2.07
		c0.75,0.35,1.07,1.25,0.72,2C246.35,85.86,245.81,86.18,245.24,86.18z M131.94,85.89c-0.57,0-1.11-0.32-1.36-0.87
		c-0.35-0.75-0.02-1.64,0.73-1.99c1.52-0.71,3.07-1.39,4.61-2.03c0.76-0.32,1.64,0.04,1.96,0.8c0.32,0.76-0.04,1.64-0.8,1.96
		c-1.5,0.63-3.02,1.3-4.51,1.99C132.36,85.84,132.15,85.89,131.94,85.89z M232.27,80.89c-0.16,0-0.33-0.03-0.49-0.08
		c-1.56-0.54-3.15-1.06-4.71-1.54c-0.79-0.24-1.24-1.08-1-1.87c0.24-0.79,1.08-1.24,1.87-1c1.6,0.49,3.22,1.02,4.82,1.57
		c0.78,0.27,1.2,1.13,0.93,1.91C233.47,80.5,232.89,80.89,232.27,80.89z M144.89,80.68c-0.62,0-1.21-0.39-1.42-1.02
		c-0.27-0.78,0.15-1.64,0.93-1.9c1.59-0.54,3.2-1.06,4.81-1.54c0.8-0.24,1.63,0.21,1.87,1c0.24,0.79-0.21,1.63-1,1.87
		c-1.57,0.47-3.16,0.98-4.71,1.51C145.22,80.66,145.05,80.68,144.89,80.68z M218.81,77c-0.11,0-0.23-0.01-0.34-0.04
		c-1.59-0.37-3.22-0.72-4.83-1.03c-0.81-0.16-1.34-0.94-1.19-1.76c0.16-0.81,0.94-1.35,1.76-1.19c1.65,0.32,3.31,0.67,4.94,1.05
		c0.81,0.19,1.31,0.99,1.12,1.8C220.11,76.53,219.49,77,218.81,77z M158.35,76.86c-0.68,0-1.3-0.47-1.46-1.17
		c-0.18-0.81,0.32-1.61,1.13-1.8c1.63-0.37,3.29-0.72,4.95-1.03c0.81-0.15,1.6,0.38,1.75,1.19c0.15,0.81-0.38,1.6-1.2,1.75
		c-1.62,0.31-3.25,0.65-4.84,1.01C158.57,76.85,158.46,76.86,158.35,76.86z M205.04,74.55c-0.06,0-0.12,0-0.19-0.01
		c-1.63-0.2-3.28-0.38-4.91-0.52c-0.83-0.07-1.44-0.8-1.36-1.62c0.07-0.83,0.8-1.44,1.62-1.36c1.67,0.15,3.36,0.32,5.03,0.53
		c0.82,0.1,1.41,0.85,1.3,1.67C206.43,73.99,205.79,74.55,205.04,74.55z M172.13,74.47c-0.75,0-1.4-0.56-1.49-1.32
		c-0.1-0.82,0.49-1.57,1.31-1.67c1.67-0.2,3.36-0.37,5.03-0.51c0.83-0.07,1.55,0.55,1.62,1.37c0.07,0.83-0.55,1.55-1.37,1.62
		c-1.63,0.13-3.29,0.3-4.92,0.5C172.25,74.47,172.19,74.47,172.13,74.47z M191.09,73.54c-0.01,0-0.02,0-0.03,0
		c-0.95-0.02-1.92-0.03-2.87-0.03c-0.69,0-1.39,0.01-2.08,0.02c-0.01,0-0.02,0-0.02,0c-0.82,0-1.49-0.66-1.5-1.48
		c-0.01-0.83,0.65-1.51,1.48-1.52c0.74-0.01,1.47-0.01,2.21-0.02c0.95,0,1.9,0.01,2.84,0.03c0.83,0.02,1.49,0.7,1.47,1.53
		C192.57,72.89,191.9,73.54,191.09,73.54z"/>
</g>
<g>
	<g>
		<g>
			<path class="st1" d="M177.28,219.16c-7.17,0-13-5.83-13-13v-180c0-7.17,5.83-13,13-13h200c7.17,0,13,5.83,13,13v180
				c0,7.17-5.83,13-13,13H177.28z"/>
		</g>
		<g>
			<path class="st0" d="M377.28,16.16c5.52,0,10,4.48,10,10v180c0,5.52-4.48,10-10,10h-200c-5.52,0-10-4.48-10-10v-180
				c0-5.52,4.48-10,10-10H377.28 M377.28,10.16h-200c-8.82,0-16,7.18-16,16v180c0,8.82,7.18,16,16,16h200c8.82,0,16-7.18,16-16v-180
				C393.28,17.34,386.1,10.16,377.28,10.16L377.28,10.16z"/>
		</g>
	</g>
	<g>
		<g>
			<path class="st2" d="M167.28,47.16c-1.66,0-3-1.34-3-3v-18c0-7.17,5.83-13,13-13h200c7.17,0,13,5.83,13,13v18c0,1.66-1.34,3-3,3
				H167.28z"/>
		</g>
		<g>
			<path class="st0" d="M377.28,16.16c5.52,0,10,4.48,10,10v18h-220v-18c0-5.52,4.48-10,10-10H377.28 M377.28,10.16h-200
				c-8.82,0-16,7.18-16,16v18c0,3.31,2.69,6,6,6h220c3.31,0,6-2.69,6-6v-18C393.28,17.34,386.1,10.16,377.28,10.16L377.28,10.16z"/>
		</g>
	</g>
	<g>
		<g>
			<path class="st1" d="M257.28,37.16c-3.86,0-7-3.14-7-7s3.14-7,7-7h114c3.86,0,7,3.14,7,7s-3.14,7-7,7H257.28z"/>
		</g>
		<g>
			<g>
				<path class="st0" d="M371.28,26.16c2.21,0,4,1.79,4,4s-1.79,4-4,4h-114c-2.21,0-4-1.79-4-4s1.79-4,4-4H371.28 M371.28,20.16
					h-114c-5.51,0-10,4.49-10,10s4.49,10,10,10h114c5.51,0,10-4.49,10-10S376.79,20.16,371.28,20.16L371.28,20.16z"/>
			</g>
		</g>
	</g>
	<g>
		<g>
			<circle class="st3" cx="183.28" cy="30.16" r="7"/>
		</g>
		<g>
			<g>
				<path class="st0" d="M183.28,26.16c2.21,0,4,1.79,4,4c0,2.21-1.79,4-4,4s-4-1.79-4-4C179.28,27.95,181.07,26.16,183.28,26.16
					 M183.28,20.16c-5.51,0-10,4.49-10,10s4.49,10,10,10c5.51,0,10-4.49,10-10S188.79,20.16,183.28,20.16L183.28,20.16z"/>
			</g>
		</g>
	</g>
	<g>
		<g>
			<circle class="st4" cx="207.28" cy="30.16" r="7"/>
		</g>
		<g>
			<g>
				<path class="st0" d="M207.28,26.16c2.21,0,4,1.79,4,4c0,2.21-1.79,4-4,4c-2.21,0-4-1.79-4-4
					C203.28,27.95,205.07,26.16,207.28,26.16 M207.28,20.16c-5.51,0-10,4.49-10,10s4.49,10,10,10s10-4.49,10-10
					S212.79,20.16,207.28,20.16L207.28,20.16z"/>
			</g>
		</g>
	</g>
	<g>
		<g>
			<circle class="st5" cx="231.28" cy="30.16" r="7"/>
		</g>
		<g>
			<g>
				<path class="st0" d="M231.28,26.16c2.21,0,4,1.79,4,4c0,2.21-1.79,4-4,4c-2.21,0-4-1.79-4-4
					C227.28,27.95,229.07,26.16,231.28,26.16 M231.28,20.16c-5.51,0-10,4.49-10,10s4.49,10,10,10s10-4.49,10-10
					S236.79,20.16,231.28,20.16L231.28,20.16z"/>
			</g>
		</g>
	</g>
	<g>
		<g>
			<g>
				<g>
					<path class="st0" d="M298.78,86.76c-0.32,0-0.64-0.08-0.94-0.24c-1.89-1.02-5.21-1.02-7.11,0c-0.97,0.52-2.19,0.16-2.71-0.82
						c-0.52-0.97-0.16-2.19,0.82-2.71c3.05-1.64,7.84-1.64,10.89,0c0.97,0.52,1.34,1.73,0.82,2.71
						C300.18,86.38,299.49,86.76,298.78,86.76z"/>
				</g>
				<g>
					<g>
						<circle class="st0" cx="294.28" cy="76.01" r="8"/>
					</g>
					<g>
						<circle class="st1" cx="296.28" cy="76.01" r="2"/>
					</g>
				</g>
				<g>
					<path class="st0" d="M288.42,59.69c3.68-3.11,9.5-3.68,13.48-0.8c1.83,1.3,4.9,4.78,2.04,6.4c-0.73,0.35-1.49,0.16-2.13-0.21
						c-3.12-1.93-6.26-2.5-9.86-2.01c-0.77,0.07-1.51,0.18-2.23,0.14C287.88,63.24,287.02,60.83,288.42,59.69L288.42,59.69z"/>
				</g>
				<g>
					<path class="st0" d="M264.78,86.76c-0.32,0-0.64-0.08-0.94-0.24c-1.89-1.02-5.21-1.02-7.11,0c-0.97,0.52-2.18,0.16-2.71-0.82
						c-0.52-0.97-0.16-2.19,0.82-2.71c3.05-1.64,7.84-1.64,10.89,0c0.97,0.52,1.34,1.73,0.82,2.71
						C266.18,86.38,265.49,86.76,264.78,86.76z"/>
				</g>
				<g>
					<g>
						<circle class="st0" cx="260.28" cy="76.01" r="8"/>
					</g>
					<g>
						<circle class="st1" cx="262.28" cy="76.01" r="2"/>
					</g>
				</g>
				<g>
					<path class="st0" d="M264.24,63.21c-2.9-0.28-6.02-0.65-8.74,0.51c-0.95,0.32-2.01,1.02-3.12,1.54c-1.68,0.88-3.57-1-2.75-2.68
						c1.9-4.63,7.88-6.6,12.45-5.07c1.95,0.65,6.2,2.34,4.3,4.99C265.83,63.17,265,63.25,264.24,63.21L264.24,63.21z"/>
				</g>
			</g>
		</g>
		<g>
			<g>
				<circle class="st6" cx="236.28" cy="83.66" r="2.5"/>
			</g>
			<g>
				<circle class="st6" cx="241.78" cy="94.66" r="2.5"/>
			</g>
			<g>
				<circle class="st6" cx="230.78" cy="94.66" r="2.5"/>
			</g>
		</g>
		<g>
			<g>
				<circle class="st6" cx="318.28" cy="83.66" r="2.5"/>
			</g>
			<g>
				<circle class="st6" cx="323.78" cy="94.66" r="2.5"/>
			</g>
			<g>
				<circle class="st6" cx="312.78" cy="94.66" r="2.5"/>
			</g>
		</g>
		<g>
			<path class="st0" d="M295.28,90.16L295.28,90.16h-36.01c-2.76,0-5,2.24-5,5c0,12.68,10.32,23,23,23c12.62,0,22.9-10.22,23-22.82
				c0-0.06,0-0.12,0-0.18C300.28,92.4,298.04,90.16,295.28,90.16z"/>
			<g>
				<g>
					<ellipse class="st3" cx="277.28" cy="107.16" rx="13.39" ry="6"/>
				</g>
			</g>
		</g>
	</g>
	<g>
		<circle class="st7" cx="283.28" cy="151.16" r="20"/>
	</g>
	<g>
		<g>
			<polygon class="st8" points="325.28,169.16 336.28,152.16 342.28,156.16 348.28,147.16 354.28,151.16 360.28,143.16 
				366.28,147.16 375.28,136.16 375.28,169.16 			"/>
		</g>
		<g>
			<path class="st5" d="M325.28,171.16c-0.37,0-0.75-0.1-1.08-0.32c-0.93-0.6-1.19-1.84-0.59-2.77l11-17
				c0.29-0.45,0.75-0.76,1.27-0.87c0.52-0.11,1.07,0,1.51,0.29l4.34,2.89l4.89-7.34c0.61-0.92,1.85-1.17,2.77-0.55l4.43,2.95
				l4.87-6.49c0.64-0.85,1.83-1.05,2.71-0.46l4.49,2.99l7.85-9.6c0.7-0.85,1.96-0.98,2.81-0.28c0.85,0.7,0.98,1.96,0.28,2.81l-9,11
				c-0.65,0.8-1.8,0.97-2.66,0.4l-4.43-2.95l-4.87,6.49c-0.64,0.85-1.83,1.05-2.71,0.46l-4.34-2.89l-4.89,7.34
				c-0.61,0.92-1.85,1.17-2.77,0.55l-4.31-2.88l-9.9,15.3C326.57,170.84,325.93,171.16,325.28,171.16z"/>
		</g>
		<g>
			<path class="st0" d="M325.28,165.66h-6c-0.83,0-1.5-0.67-1.5-1.5s0.67-1.5,1.5-1.5h6c0.83,0,1.5,0.67,1.5,1.5
				S326.11,165.66,325.28,165.66z"/>
		</g>
		<g>
			<path class="st0" d="M325.28,155.66h-6c-0.83,0-1.5-0.67-1.5-1.5s0.67-1.5,1.5-1.5h6c0.83,0,1.5,0.67,1.5,1.5
				S326.11,155.66,325.28,155.66z"/>
		</g>
		<g>
			<path class="st0" d="M325.28,145.66h-6c-0.83,0-1.5-0.67-1.5-1.5s0.67-1.5,1.5-1.5h6c0.83,0,1.5,0.67,1.5,1.5
				S326.11,145.66,325.28,145.66z"/>
		</g>
		<g>
			<path class="st0" d="M325.28,135.66h-6c-0.83,0-1.5-0.67-1.5-1.5s0.67-1.5,1.5-1.5h6c0.83,0,1.5,0.67,1.5,1.5
				S326.11,135.66,325.28,135.66z"/>
		</g>
		<g>
			<path class="st0" d="M370.28,176.66c-0.83,0-1.5-0.67-1.5-1.5v-6c0-0.83,0.67-1.5,1.5-1.5s1.5,0.67,1.5,1.5v6
				C371.78,175.99,371.11,176.66,370.28,176.66z"/>
		</g>
		<g>
			<path class="st0" d="M360.28,176.66c-0.83,0-1.5-0.67-1.5-1.5v-6c0-0.83,0.67-1.5,1.5-1.5s1.5,0.67,1.5,1.5v6
				C361.78,175.99,361.11,176.66,360.28,176.66z"/>
		</g>
		<g>
			<path class="st0" d="M350.28,176.66c-0.83,0-1.5-0.67-1.5-1.5v-6c0-0.83,0.67-1.5,1.5-1.5s1.5,0.67,1.5,1.5v6
				C351.78,175.99,351.11,176.66,350.28,176.66z"/>
		</g>
		<g>
			<path class="st0" d="M340.28,176.66c-0.83,0-1.5-0.67-1.5-1.5v-6c0-0.83,0.67-1.5,1.5-1.5s1.5,0.67,1.5,1.5v6
				C341.78,175.99,341.11,176.66,340.28,176.66z"/>
		</g>
		<g>
			<path class="st0" d="M330.28,176.66c-0.83,0-1.5-0.67-1.5-1.5v-6c0-0.83,0.67-1.5,1.5-1.5s1.5,0.67,1.5,1.5v6
				C331.78,175.99,331.11,176.66,330.28,176.66z"/>
		</g>
		<g>
			<path class="st0" d="M375.28,171.16h-50c-1.1,0-2-0.9-2-2v-40c0-1.1,0.9-2,2-2s2,0.9,2,2v38h48c1.1,0,2,0.9,2,2
				S376.38,171.16,375.28,171.16z"/>
		</g>
		<g>
			<path class="st0" d="M371.28,189.16h-36c-1.1,0-2-0.9-2-2l0,0c0-1.1,0.9-2,2-2h36c1.1,0,2,0.9,2,2l0,0
				C373.28,188.27,372.38,189.16,371.28,189.16z"/>
		</g>
		<g>
			<circle class="st5" cx="326.28" cy="187.16" r="3"/>
		</g>
		<g>
			<path class="st0" d="M357.28,197.16h-22c-1.1,0-2-0.9-2-2l0,0c0-1.1,0.9-2,2-2h22c1.1,0,2,0.9,2,2l0,0
				C359.28,196.27,358.38,197.16,357.28,197.16z"/>
		</g>
	</g>
	<g>
		<path class="st0" d="M303.28,189.16h-30c-1.1,0-2-0.9-2-2l0,0c0-1.1,0.9-2,2-2h30c1.1,0,2,0.9,2,2l0,0
			C305.28,188.27,304.38,189.16,303.28,189.16z"/>
	</g>
	<g>
		<circle class="st9" cx="264.28" cy="187.16" r="3"/>
	</g>
	<g>
		<path class="st0" d="M293.28,197.16h-20c-1.1,0-2-0.9-2-2l0,0c0-1.1,0.9-2,2-2h20c1.1,0,2,0.9,2,2l0,0
			C295.28,196.27,294.38,197.16,293.28,197.16z"/>
	</g>
	<g>
		<circle class="st7" cx="264.28" cy="195.16" r="3"/>
	</g>
	<g>
		<g>
			<path class="st0" d="M184.28,159.66h-6c-0.83,0-1.5-0.67-1.5-1.5s0.67-1.5,1.5-1.5h6c0.83,0,1.5,0.67,1.5,1.5
				S185.11,159.66,184.28,159.66z"/>
		</g>
		<g>
			<path class="st0" d="M184.28,147.66h-6c-0.83,0-1.5-0.67-1.5-1.5s0.67-1.5,1.5-1.5h6c0.83,0,1.5,0.67,1.5,1.5
				S185.11,147.66,184.28,147.66z"/>
		</g>
		<g>
			<path class="st0" d="M184.28,135.66h-6c-0.83,0-1.5-0.67-1.5-1.5s0.67-1.5,1.5-1.5h6c0.83,0,1.5,0.67,1.5,1.5
				S185.11,135.66,184.28,135.66z"/>
		</g>
		<g>
			<path class="st0" d="M210.28,176.66c-0.83,0-1.5-0.67-1.5-1.5v-6c0-0.83,0.67-1.5,1.5-1.5s1.5,0.67,1.5,1.5v6
				C211.78,175.99,211.11,176.66,210.28,176.66z"/>
		</g>
		<g>
			<path class="st0" d="M195.28,176.66c-0.83,0-1.5-0.67-1.5-1.5v-6c0-0.83,0.67-1.5,1.5-1.5s1.5,0.67,1.5,1.5v6
				C196.78,175.99,196.11,176.66,195.28,176.66z"/>
		</g>
		<g>
			<path class="st0" d="M230.28,189.16h-36c-1.1,0-2-0.9-2-2l0,0c0-1.1,0.9-2,2-2h36c1.1,0,2,0.9,2,2l0,0
				C232.28,188.27,231.38,189.16,230.28,189.16z"/>
		</g>
		<g>
			<circle class="st4" cx="185.28" cy="187.16" r="3"/>
		</g>
		<g>
			<path class="st0" d="M210.28,197.16h-16c-1.1,0-2-0.9-2-2l0,0c0-1.1,0.9-2,2-2h16c1.1,0,2,0.9,2,2l0,0
				C212.28,196.27,211.38,197.16,210.28,197.16z"/>
		</g>
		<g>
			<circle class="st10" cx="185.28" cy="195.16" r="3"/>
		</g>
		<g>
			<rect x="189.28" y="145.16" class="st4" width="6" height="24"/>
		</g>
		<g>
			<rect x="195.28" y="133.16" class="st10" width="6" height="36"/>
		</g>
		<g>
			<rect x="204.28" y="139.16" class="st4" width="6" height="30"/>
		</g>
		<g>
			<rect x="210.28" y="153.16" class="st10" width="6" height="16"/>
		</g>
		<g>
			<path class="st0" d="M225.28,176.66c-0.83,0-1.5-0.67-1.5-1.5v-6c0-0.83,0.67-1.5,1.5-1.5s1.5,0.67,1.5,1.5v6
				C226.78,175.99,226.11,176.66,225.28,176.66z"/>
		</g>
		<g>
			<rect x="219.28" y="147.16" class="st4" width="6" height="22"/>
		</g>
		<g>
			<rect x="225.28" y="143.16" class="st10" width="6" height="26"/>
		</g>
		<g>
			<path class="st0" d="M240.28,176.66c-0.83,0-1.5-0.67-1.5-1.5v-6c0-0.83,0.67-1.5,1.5-1.5s1.5,0.67,1.5,1.5v6
				C241.78,175.99,241.11,176.66,240.28,176.66z"/>
		</g>
		<g>
			<rect x="234.28" y="131.16" class="st4" width="6" height="38"/>
		</g>
		<g>
			<rect x="240.28" y="137.16" class="st10" width="6" height="32"/>
		</g>
		<g>
			<path class="st0" d="M249.28,171.16h-65c-1.1,0-2-0.9-2-2v-40c0-1.1,0.9-2,2-2s2,0.9,2,2v38h63c1.1,0,2,0.9,2,2
				S250.38,171.16,249.28,171.16z"/>
		</g>
	</g>
	<g>
		<path class="st9" d="M283.28,128.16v23h23C306.28,138.46,295.98,128.16,283.28,128.16z"/>
	</g>
</g>
<g>
	<path class="st11" d="M88.02,233.88c-44.18,0-80,35.82-80,80c0,39.93,29.25,73.03,67.5,79.03l0-55.9H55.21l0-23.12h20.31l0-17.62
		c0-20.05,11.94-31.12,30.22-31.12c8.75,0,17.91,1.56,17.91,1.56l0,19.69l-10.09,0c-9.94,0-13.04,6.17-13.04,12.49v15.01l22.19,0
		L119.16,337h-18.64l0,55.9c38.25-6,67.5-39.1,67.5-79.03C168.02,269.7,132.2,233.88,88.02,233.88z"/>
</g>
<g>
	<rect x="-0.72" y="0.16" class="st12" width="400" height="400"/>
</g>
<g>
	<g>
		<path class="st13" d="M205.22,260.38c2.98,0,5.4-2.42,5.4-5.4c0-0.99,0.81-1.8,1.8-1.8s1.8,0.81,1.8,1.8c0,2.98,2.42,5.4,5.4,5.4
			c0.99,0,1.8,0.81,1.8,1.8s-0.81,1.8-1.8,1.8c-2.98,0-5.4,2.42-5.4,5.4c0,0.99-0.81,1.8-1.8,1.8s-1.8-0.81-1.8-1.8
			c0-2.98-2.42-5.4-5.4-5.4c-0.99,0-1.8-0.81-1.8-1.8S204.23,260.38,205.22,260.38z"/>
	</g>
</g>
<g>
	<g>
		<circle class="st13" cx="105.28" cy="169.16" r="3"/>
	</g>
</g>
<g>
	<g>
		<circle class="st13" cx="260.28" cy="351.65" r="3"/>
	</g>
</g>
<g>
	<g>
		<circle class="st13" cx="255.13" cy="274.18" r="3"/>
	</g>
</g>
<g>
	<g>
		<circle class="st13" cx="325.28" cy="313.39" r="3"/>
	</g>
</g>
<g>
	<g>
		<circle class="st13" cx="48.07" cy="59.98" r="3"/>
	</g>
</g>
<g>
	<circle class="st13" cx="120.52" cy="137.16" r="4.5"/>
</g>
<g>
	<circle class="st13" cx="325.28" cy="348.65" r="4.5"/>
</g>
<g>
	<circle class="st13" cx="105.28" cy="44.16" r="4.5"/>
</g>
<path class="st13" d="M48.07,104.16h-6v-6c0-1.66-1.34-3-3-3s-3,1.34-3,3v6h-6c-1.66,0-3,1.34-3,3s1.34,3,3,3h6v6c0,1.66,1.34,3,3,3
	s3-1.34,3-3v-6h6c1.66,0,3-1.34,3-3S49.73,104.16,48.07,104.16z"/>
</svg>
