<?xml version="1.0" encoding="utf-8"?>
<!-- Generator: Adobe Illustrator 25.4.1, SVG Export Plug-In . SVG Version: 6.00 Build 0)  -->
<svg version="1.1" id="google-ads-targeting" xmlns="http://www.w3.org/2000/svg" xmlns:xlink="http://www.w3.org/1999/xlink"
	 x="0px" y="0px" viewBox="0 0 400 400" style="enable-background:new 0 0 400 400;" xml:space="preserve">
<style type="text/css">
	.st0{fill:none;}
	.st1{fill:#DC646E;}
	.st2{fill:#515979;}
	.st3{fill:#EF7D7D;}
	.st4{fill:#FFFFFF;}
	.st5{fill:#FFD886;}
	.st6{fill:#9E8271;}
	.st7{fill:#FBBD04;}
	.st8{fill:#438EDC;}
	.st9{fill:#34A952;}
	.st10{fill:#00C853;}
	.st11{fill:#2196F3;}
	.st12{fill:#D8EBFB;}
	.st13{fill:#FDE1D9;}
</style>
<g>
	<rect class="st0" width="400" height="400"/>
	<path class="st1" d="M104.5,346.25c-1.24,0-2.25-1.01-2.25-2.25V239c0-1.24,1.01-2.25,2.25-2.25h15
		c21.92,0,39.75,24.56,39.75,54.75s-17.83,54.75-39.75,54.75H104.5z"/>
	<path class="st2" d="M119.5,239c20.71,0,37.5,23.51,37.5,52.5c0,28.99-16.79,52.5-37.5,52.5h-15V239H119.5 M119.5,234.5h-15
		c-2.49,0-4.5,2.01-4.5,4.5v105c0,2.49,2.01,4.5,4.5,4.5h15c11.51,0,22.23-6.13,30.18-17.26c7.62-10.67,11.82-24.79,11.82-39.74
		c0-14.95-4.2-29.07-11.82-39.74C141.73,240.63,131.01,234.5,119.5,234.5L119.5,234.5z"/>
	<ellipse class="st3" cx="104.5" cy="291.5" rx="39.75" ry="54.75"/>
	<path class="st2" d="M104.5,239c20.71,0,37.5,23.51,37.5,52.5S125.21,344,104.5,344S67,320.49,67,291.5S83.79,239,104.5,239
		 M104.5,234.5c-11.51,0-22.23,6.13-30.18,17.26C66.7,262.43,62.5,276.55,62.5,291.5s4.2,29.07,11.82,39.74
		c7.95,11.13,18.67,17.26,30.18,17.26s22.23-6.13,30.18-17.26c7.62-10.67,11.82-24.79,11.82-39.74s-4.2-29.07-11.82-39.74
		C126.73,240.63,116.01,234.5,104.5,234.5L104.5,234.5z"/>
	<ellipse class="st4" cx="102.5" cy="291.5" rx="29.5" ry="41.5"/>
	<ellipse class="st3" cx="102.5" cy="291.5" rx="21" ry="31.5"/>
	<ellipse class="st4" cx="102.5" cy="291.5" rx="13.5" ry="22.5"/>
	<ellipse class="st3" cx="102.5" cy="291.5" rx="5.5" ry="12"/>
	<path class="st5" d="M29.5,290c-0.83,0-1.6-0.46-1.99-1.2l-4.5-8.5c-0.37-0.7-0.35-1.54,0.06-2.21c0.41-0.68,1.14-1.09,1.93-1.09
		h18c0.83,0,1.6,0.46,1.99,1.2l4.5,8.5c0.37,0.7,0.35,1.54-0.06,2.21c-0.41,0.68-1.14,1.09-1.93,1.09H29.5z"/>
	<path class="st2" d="M43,279.25l4.5,8.5h-18l-4.5-8.5H43 M43,274.75H25c-1.58,0-3.04,0.83-3.86,2.18
		c-0.81,1.35-0.86,3.03-0.12,4.43l4.5,8.5c0.78,1.47,2.31,2.39,3.98,2.39h18c1.58,0,3.04-0.83,3.86-2.18
		c0.81-1.35,0.86-3.03,0.12-4.43l-4.5-8.5C46.2,275.67,44.67,274.75,43,274.75L43,274.75z"/>
	<path class="st5" d="M25,306c-0.79,0-1.52-0.41-1.93-1.09c-0.41-0.68-0.43-1.52-0.06-2.21l4.5-8.5c0.39-0.74,1.15-1.2,1.99-1.2h18
		c0.79,0,1.52,0.41,1.93,1.09c0.41,0.68,0.43,1.52,0.06,2.21l-4.5,8.5c-0.39,0.74-1.15,1.2-1.99,1.2H25z"/>
	<path class="st2" d="M47.5,295.25l-4.5,8.5H25l4.5-8.5H47.5 M47.5,290.75h-18c-1.67,0-3.2,0.92-3.98,2.39l-4.5,8.5
		c-0.74,1.39-0.69,3.07,0.12,4.43c0.81,1.35,2.28,2.18,3.86,2.18h18c1.67,0,3.2-0.92,3.98-2.39l4.5-8.5
		c0.74-1.39,0.69-3.07-0.12-4.43C50.54,291.58,49.08,290.75,47.5,290.75L47.5,290.75z M47.5,299.75L47.5,299.75L47.5,299.75
		L47.5,299.75z"/>
	<path class="st6" d="M26.5,295.25c-1.24,0-2.25-1.01-2.25-2.25v-3c0-1.24,1.01-2.25,2.25-2.25H100c2.07,0,3.75,1.68,3.75,3.75
		s-1.68,3.75-3.75,3.75H26.5z"/>
	<path class="st2" d="M100,290c0.83,0,1.5,0.67,1.5,1.5s-0.67,1.5-1.5,1.5H26.5v-3H100 M100,285.5H26.5c-2.49,0-4.5,2.01-4.5,4.5v3
		c0,2.49,2.01,4.5,4.5,4.5H100c3.31,0,6-2.69,6-6S103.31,285.5,100,285.5L100,285.5z"/>
	<path class="st7" d="M216.58,193.23L216.58,193.23c-11.98-6.92-16.12-22.37-9.2-34.35l49.72-86.13
		c6.92-11.98,22.37-16.12,34.35-9.2l0,0c11.98,6.92,16.12,22.37,9.2,34.35l-49.72,86.13C244.02,196,228.57,200.15,216.58,193.23z"/>
	<path class="st8" d="M341.45,192.87L341.45,192.87c-11.98,6.92-27.43,2.77-34.35-9.2l-49.72-86.13
		c-6.92-11.98-2.77-27.43,9.2-34.35l0,0c11.98-6.92,27.43-2.77,34.35,9.2l49.72,86.13C357.57,170.48,353.42,185.95,341.45,192.87z"
		/>
	<circle class="st9" cx="229.5" cy="171.08" r="25.5"/>
	<path class="st4" d="M30,163c-3.31,0-6-2.69-6-6V43c0-3.31,2.69-6,6-6h114c3.31,0,6,2.69,6,6v97c0,0.8-0.32,1.56-0.88,2.12l-20,20
		c-0.56,0.56-1.33,0.88-2.12,0.88H30z"/>
	<path class="st2" d="M144,40c1.66,0,3,1.34,3,3v97l-20,20H30c-1.66,0-3-1.34-3-3V43c0-1.66,1.34-3,3-3H144 M144,34H30
		c-4.96,0-9,4.04-9,9v114c0,4.96,4.04,9,9,9h97c1.59,0,3.12-0.63,4.24-1.76l20-20c1.13-1.13,1.76-2.65,1.76-4.24V43
		C153,38.04,148.96,34,144,34L144,34z"/>
	<path class="st10" d="M119.5,105h-75c-1.38,0-2.5-1.12-2.5-2.5l0,0c0-1.38,1.12-2.5,2.5-2.5h75c1.38,0,2.5,1.12,2.5,2.5l0,0
		C122,103.88,120.88,105,119.5,105z"/>
	<path class="st2" d="M109.5,125h-65c-1.38,0-2.5-1.12-2.5-2.5l0,0c0-1.38,1.12-2.5,2.5-2.5h65c1.38,0,2.5,1.12,2.5,2.5l0,0
		C112,123.88,110.88,125,109.5,125z"/>
	<path class="st2" d="M95.5,135h-51c-1.38,0-2.5-1.12-2.5-2.5l0,0c0-1.38,1.12-2.5,2.5-2.5h51c1.38,0,2.5,1.12,2.5,2.5l0,0
		C98,133.88,96.88,135,95.5,135z"/>
	<path class="st2" d="M79.5,145h-35c-1.38,0-2.5-1.12-2.5-2.5l0,0c0-1.38,1.12-2.5,2.5-2.5h35c1.38,0,2.5,1.12,2.5,2.5l0,0
		C82,143.88,80.88,145,79.5,145z"/>
	<path class="st11" d="M101.5,115h-57c-1.38,0-2.5-1.12-2.5-2.5l0,0c0-1.38,1.12-2.5,2.5-2.5h57c1.38,0,2.5,1.12,2.5,2.5l0,0
		C104,113.88,102.88,115,101.5,115z"/>
	<path class="st12" d="M127,163c-0.39,0-0.78-0.07-1.15-0.23c-1.12-0.46-1.85-1.56-1.85-2.77v-17c0-3.31,2.69-6,6-6h17
		c1.21,0,2.31,0.73,2.77,1.85s0.21,2.41-0.65,3.27l-20,20C128.55,162.7,127.78,163,127,163z"/>
	<path class="st2" d="M147,140l-20,20v-17c0-1.66,1.34-3,3-3H147 M147,134h-17c-4.96,0-9,4.04-9,9v17c0,2.43,1.46,4.61,3.7,5.54
		c0.74,0.31,1.52,0.46,2.29,0.46c1.56,0,3.1-0.61,4.24-1.76l20-20c1.72-1.72,2.23-4.3,1.3-6.54C151.61,135.46,149.43,134,147,134
		L147,134z M147,146L147,146L147,146L147,146z"/>
	<circle class="st13" cx="113" cy="79" r="2"/>
	<circle class="st13" cx="121" cy="79" r="2"/>
	<circle class="st13" cx="117" cy="71" r="2"/>
	<circle class="st13" cx="53" cy="79" r="2"/>
	<circle class="st13" cx="61" cy="79" r="2"/>
	<circle class="st13" cx="57" cy="71" r="2"/>
	<path class="st2" d="M95.03,73.78c-0.62,0-1.2-0.39-1.42-1.01c-0.27-0.78,0.15-1.64,0.93-1.91c2.24-0.77,5.74-0.77,7.98,0
		c0.78,0.27,1.2,1.12,0.93,1.91s-1.13,1.2-1.91,0.93c-1.6-0.55-4.42-0.55-6.02,0C95.35,73.75,95.19,73.78,95.03,73.78z"/>
	<circle class="st2" cx="98.53" cy="65.59" r="6"/>
	<circle class="st4" cx="100.03" cy="65.59" r="1.5"/>
	<path class="st2" d="M95.09,51.65c0.97-0.61,1.86-0.91,2.88-1.12c0.99-0.21,2.03-0.24,3.08-0.12c1.04,0.11,2.1,0.44,3.07,0.95
		c0.97,0.5,1.83,1.28,2.42,2.19c0.52,0.8,0.29,1.86-0.51,2.38c-0.38,0.24-0.81,0.32-1.22,0.25l-0.4-0.07
		c-0.78-0.13-1.39-0.32-2.04-0.43c-0.65-0.1-1.27-0.25-1.96-0.33l-2.11-0.25c-0.72-0.08-1.55-0.12-2.25-0.28l-0.42-0.09
		c-0.92-0.2-1.5-1.11-1.29-2.02C94.44,52.26,94.72,51.88,95.09,51.65z"/>
	<path class="st2" d="M78.97,73.78c-0.16,0-0.33-0.03-0.49-0.08c-1.6-0.55-4.42-0.55-6.02,0c-0.78,0.27-1.64-0.15-1.91-0.93
		c-0.27-0.78,0.15-1.64,0.93-1.91c2.24-0.77,5.74-0.77,7.98,0c0.78,0.27,1.2,1.12,0.93,1.91C80.18,73.39,79.6,73.78,78.97,73.78z"/>
	<circle class="st2" cx="75.47" cy="65.59" r="6"/>
	<circle class="st4" cx="76.97" cy="65.59" r="1.5"/>
	<path class="st2" d="M77.94,54.84c-0.7,0.15-1.53,0.2-2.25,0.28l-2.11,0.25c-0.68,0.08-1.31,0.22-1.96,0.33
		c-0.65,0.11-1.26,0.3-2.04,0.43l-0.39,0.07c-0.94,0.16-1.83-0.47-1.98-1.41c-0.07-0.44,0.03-0.87,0.25-1.22
		c0.59-0.92,1.45-1.69,2.42-2.19c0.96-0.52,2.02-0.84,3.07-0.95c1.04-0.12,2.08-0.08,3.08,0.12c1.01,0.21,1.9,0.51,2.88,1.12
		c0.79,0.5,1.03,1.55,0.54,2.34c-0.25,0.4-0.64,0.66-1.07,0.76L77.94,54.84z"/>
	<path class="st2" d="M87.31,84.97c-4.55,0-9.21-1.07-13.25-3.21c-0.98-0.52-1.35-1.73-0.83-2.7c0.52-0.98,1.73-1.35,2.7-0.83
		c6.83,3.63,16.09,3.64,22.02,0.03c0.94-0.58,2.17-0.28,2.75,0.67c0.57,0.94,0.28,2.17-0.67,2.75
		C96.43,83.87,91.93,84.97,87.31,84.97z"/>
	<path class="st2" d="M83.26,88.08c1.22,0.34,2.49,0.43,3.75,0.48c0.63,0.03,1.26-0.05,1.89-0.12c0.63-0.07,1.25-0.18,1.85-0.36
		c0.68-0.21,1.4,0.17,1.61,0.85c0.14,0.45,0.01,0.92-0.29,1.25l-0.79,0.85c-0.61,0.66-1.32,1-2.04,1.25
		c-0.73,0.21-1.48,0.32-2.23,0.27c-0.37-0.02-0.75-0.04-1.12-0.11c-0.37-0.06-0.74-0.15-1.09-0.27c-0.72-0.24-1.42-0.57-2.04-1.13
		L82,90.38c-0.55-0.49-0.6-1.34-0.11-1.89C82.24,88.08,82.78,87.95,83.26,88.08z"/>
	<path class="st2" d="M242.57,323.5h-5c-0.83,0-1.5-0.67-1.5-1.5s0.67-1.5,1.5-1.5h5c0.83,0,1.5,0.67,1.5,1.5
		S243.4,323.5,242.57,323.5z M228.57,323.5h-5c-0.83,0-1.5-0.67-1.5-1.5s0.67-1.5,1.5-1.5h5c0.83,0,1.5,0.67,1.5,1.5
		S229.4,323.5,228.57,323.5z M214.57,323.5H211c-0.55,0-1.1-0.04-1.64-0.12c-0.82-0.12-1.39-0.88-1.27-1.7
		c0.12-0.82,0.88-1.39,1.7-1.27c0.4,0.06,0.8,0.09,1.21,0.09h3.57c0.83,0,1.5,0.67,1.5,1.5S215.4,323.5,214.57,323.5z
		 M202.36,318.54c-0.52,0-1.02-0.27-1.3-0.74c-0.97-1.66-1.51-3.55-1.56-5.47c-0.02-0.83,0.63-1.52,1.46-1.54
		c0.84-0.05,1.52,0.63,1.54,1.46c0.04,1.42,0.44,2.82,1.15,4.04c0.42,0.71,0.18,1.63-0.54,2.05
		C202.88,318.47,202.62,318.54,202.36,318.54z M201,304.79c-0.83,0-1.5-0.67-1.5-1.5V302c0-1.06-0.19-2.1-0.58-3.08
		c-0.3-0.77,0.08-1.64,0.85-1.94c0.77-0.3,1.64,0.08,1.94,0.85c0.52,1.33,0.78,2.74,0.78,4.17v1.29
		C202.5,304.11,201.83,304.79,201,304.79z M193.96,293.94c-0.15,0-0.3-0.02-0.44-0.07c-0.81-0.25-1.66-0.38-2.51-0.38h-2
		c-0.83,0-1.5-0.67-1.5-1.5s0.67-1.5,1.5-1.5h2c1.16,0,2.3,0.17,3.4,0.51c0.79,0.24,1.24,1.08,0.99,1.88
		C195.19,293.53,194.6,293.94,193.96,293.94z M180,293.5h-5c-0.83,0-1.5-0.67-1.5-1.5s0.67-1.5,1.5-1.5h5c0.83,0,1.5,0.67,1.5,1.5
		S180.83,293.5,180,293.5z M166,293.5h-5c-0.83,0-1.5-0.67-1.5-1.5s0.67-1.5,1.5-1.5h5c0.83,0,1.5,0.67,1.5,1.5
		S166.83,293.5,166,293.5z"/>
	<path class="st2" d="M112,235.5c-0.83,0-1.5-0.67-1.5-1.5v-5c0-0.83,0.67-1.5,1.5-1.5s1.5,0.67,1.5,1.5v5
		C113.5,234.83,112.83,235.5,112,235.5z M112,221.5c-0.83,0-1.5-0.67-1.5-1.5v-5c0-0.83,0.67-1.5,1.5-1.5s1.5,0.67,1.5,1.5v5
		C113.5,220.83,112.83,221.5,112,221.5z M108.97,208.33c-0.38,0-0.75-0.14-1.05-0.42c-1.02-0.99-2.28-1.72-3.64-2.1
		c-0.8-0.22-1.27-1.05-1.04-1.85c0.22-0.8,1.05-1.26,1.85-1.04c1.85,0.51,3.55,1.49,4.93,2.83c0.59,0.58,0.61,1.53,0.03,2.12
		C109.75,208.18,109.36,208.33,108.97,208.33z M95.71,205.5H93c-0.88,0-1.76-0.1-2.6-0.3c-0.81-0.19-1.31-0.99-1.12-1.8
		c0.19-0.81,1-1.31,1.8-1.12c0.63,0.15,1.27,0.22,1.93,0.22h2.71c0.83,0,1.5,0.67,1.5,1.5S96.54,205.5,95.71,205.5z M83.96,199.78
		c-0.56,0-1.1-0.32-1.36-0.86c-0.73-1.55-1.11-3.2-1.11-4.93v-0.57c0-0.83,0.67-1.5,1.5-1.5s1.5,0.67,1.5,1.5V194
		c0,1.28,0.27,2.5,0.82,3.64c0.36,0.75,0.04,1.64-0.71,2C84.4,199.74,84.18,199.78,83.96,199.78z M83,185.93
		c-0.83,0-1.5-0.67-1.5-1.5v-5c0-0.83,0.67-1.5,1.5-1.5s1.5,0.67,1.5,1.5v5C84.5,185.26,83.83,185.93,83,185.93z M83,171.93
		c-0.83,0-1.5-0.67-1.5-1.5v-5c0-0.83,0.67-1.5,1.5-1.5s1.5,0.67,1.5,1.5v5C84.5,171.26,83.83,171.93,83,171.93z"/>
	<path class="st4" d="M252,380c-3.31,0-6-2.69-6-6V260c0-3.31,2.69-6,6-6h114c3.31,0,6,2.69,6,6v97c0,0.8-0.32,1.56-0.88,2.12
		l-20,20c-0.56,0.56-1.33,0.88-2.12,0.88H252z"/>
	<path class="st2" d="M366,257c1.66,0,3,1.34,3,3v97l-20,20h-97c-1.66,0-3-1.34-3-3V260c0-1.66,1.34-3,3-3H366 M366,251H252
		c-4.96,0-9,4.04-9,9v114c0,4.96,4.04,9,9,9h97c1.59,0,3.12-0.63,4.24-1.76l20-20c1.13-1.13,1.76-2.65,1.76-4.24v-97
		C375,255.04,370.96,251,366,251L366,251z"/>
	<path class="st10" d="M335.5,322h-69c-1.38,0-2.5-1.12-2.5-2.5l0,0c0-1.38,1.12-2.5,2.5-2.5h69c1.38,0,2.5,1.12,2.5,2.5l0,0
		C338,320.88,336.88,322,335.5,322z"/>
	<path class="st2" d="M321.5,342h-55c-1.38,0-2.5-1.12-2.5-2.5l0,0c0-1.38,1.12-2.5,2.5-2.5h55c1.38,0,2.5,1.12,2.5,2.5l0,0
		C324,340.88,322.88,342,321.5,342z"/>
	<path class="st2" d="M331.5,352h-65c-1.38,0-2.5-1.12-2.5-2.5l0,0c0-1.38,1.12-2.5,2.5-2.5h65c1.38,0,2.5,1.12,2.5,2.5l0,0
		C334,350.88,332.88,352,331.5,352z"/>
	<path class="st2" d="M311.5,362h-45c-1.38,0-2.5-1.12-2.5-2.5l0,0c0-1.38,1.12-2.5,2.5-2.5h45c1.38,0,2.5,1.12,2.5,2.5l0,0
		C314,360.88,312.88,362,311.5,362z"/>
	<path class="st11" d="M329.5,332h-63c-1.38,0-2.5-1.12-2.5-2.5l0,0c0-1.38,1.12-2.5,2.5-2.5h63c1.38,0,2.5,1.12,2.5,2.5l0,0
		C332,330.88,330.88,332,329.5,332z"/>
	<path class="st12" d="M349,380c-0.39,0-0.78-0.07-1.15-0.23c-1.12-0.46-1.85-1.56-1.85-2.77v-17c0-3.31,2.69-6,6-6h17
		c1.21,0,2.31,0.73,2.77,1.85c0.46,1.12,0.21,2.41-0.65,3.27l-20,20C350.55,379.7,349.78,380,349,380z"/>
	<path class="st2" d="M369,357l-20,20v-17c0-1.66,1.34-3,3-3H369 M369,351h-17c-4.96,0-9,4.04-9,9v17c0,2.43,1.46,4.61,3.7,5.54
		c0.74,0.31,1.52,0.46,2.29,0.46c1.56,0,3.1-0.61,4.24-1.76l20-20c1.72-1.72,2.23-4.3,1.3-6.54C373.61,352.46,371.43,351,369,351
		L369,351z M369,363L369,363L369,363L369,363z"/>
	<path class="st2" d="M324.53,286.59c-1.1,0-2-0.9-2-2c0-1.65-1.35-3-3-3s-3,1.35-3,3c0,1.1-0.9,2-2,2s-2-0.9-2-2c0-3.86,3.14-7,7-7
		s7,3.14,7,7C326.53,285.69,325.63,286.59,324.53,286.59z"/>
	<path class="st2" d="M317.09,268.65c0.97-0.61,1.86-0.91,2.88-1.12c0.99-0.21,2.03-0.24,3.08-0.12c1.04,0.11,2.1,0.44,3.07,0.95
		c0.97,0.5,1.83,1.28,2.42,2.19c0.52,0.8,0.29,1.86-0.51,2.38c-0.38,0.24-0.81,0.32-1.22,0.25l-0.4-0.07
		c-0.78-0.13-1.39-0.32-2.04-0.43c-0.65-0.1-1.27-0.25-1.96-0.33l-2.11-0.25c-0.72-0.08-1.55-0.12-2.25-0.28l-0.42-0.09
		c-0.92-0.2-1.5-1.11-1.29-2.02C316.44,269.26,316.72,268.88,317.09,268.65z"/>
	<path class="st2" d="M303.47,286.59c-1.1,0-2-0.9-2-2c0-1.65-1.35-3-3-3s-3,1.35-3,3c0,1.1-0.9,2-2,2s-2-0.9-2-2c0-3.86,3.14-7,7-7
		s7,3.14,7,7C305.47,285.69,304.58,286.59,303.47,286.59z"/>
	<path class="st2" d="M299.94,271.84c-0.7,0.15-1.53,0.2-2.25,0.28l-2.11,0.25c-0.68,0.08-1.3,0.22-1.96,0.33
		c-0.65,0.11-1.26,0.3-2.04,0.43l-0.39,0.07c-0.94,0.16-1.83-0.47-1.98-1.41c-0.07-0.44,0.03-0.87,0.25-1.22
		c0.59-0.92,1.45-1.69,2.42-2.19c0.96-0.52,2.02-0.84,3.07-0.95c1.04-0.12,2.08-0.08,3.08,0.12c1.01,0.21,1.9,0.51,2.88,1.12
		c0.79,0.5,1.03,1.55,0.54,2.34c-0.25,0.4-0.64,0.66-1.07,0.76L299.94,271.84z"/>
	<path class="st2" d="M321.01,290h-24c-2.21,0-4,1.79-4,4c0,8.82,7.18,16,16,16c8.77,0,15.91-7.09,16-15.84c0-0.05,0-0.11,0-0.16
		C325,291.79,323.21,290,321.01,290z"/>
	<ellipse class="st3" cx="309" cy="302" rx="8.93" ry="4"/>
	<circle class="st13" cx="335" cy="296" r="2"/>
	<circle class="st13" cx="343" cy="296" r="2"/>
	<circle class="st13" cx="339" cy="288" r="2"/>
	<circle class="st13" cx="275" cy="296" r="2"/>
	<circle class="st13" cx="283" cy="296" r="2"/>
	<circle class="st13" cx="279" cy="288" r="2"/>
	<path class="st5" d="M189.6,104.4c2.65,0,4.8-2.15,4.8-4.8c0-0.88,0.72-1.6,1.6-1.6c0.88,0,1.6,0.72,1.6,1.6
		c0,2.65,2.15,4.8,4.8,4.8c0.88,0,1.6,0.72,1.6,1.6s-0.72,1.6-1.6,1.6c-2.65,0-4.8,2.15-4.8,4.8c0,0.88-0.72,1.6-1.6,1.6
		c-0.88,0-1.6-0.72-1.6-1.6c0-2.65-2.15-4.8-4.8-4.8c-0.88,0-1.6-0.72-1.6-1.6S188.72,104.4,189.6,104.4z"/>
	<circle class="st5" cx="201.5" cy="136.5" r="2.5"/>
	<circle class="st5" cx="169" cy="149" r="3"/>
	<path class="st5" d="M343,220h-7v-7c0-1.66-1.34-3-3-3s-3,1.34-3,3v7h-7c-1.66,0-3,1.34-3,3s1.34,3,3,3h7v7c0,1.66,1.34,3,3,3
		s3-1.34,3-3v-7h7c1.66,0,3-1.34,3-3S344.66,220,343,220z"/>
	<path class="st5" d="M322.8,61.2c2.98,0,5.4-2.42,5.4-5.4c0-0.99,0.81-1.8,1.8-1.8c0.99,0,1.8,0.81,1.8,1.8
		c0,2.98,2.42,5.4,5.4,5.4c0.99,0,1.8,0.81,1.8,1.8s-0.81,1.8-1.8,1.8c-2.98,0-5.4,2.42-5.4,5.4c0,0.99-0.81,1.8-1.8,1.8
		c-0.99,0-1.8-0.81-1.8-1.8c0-2.98-2.42-5.4-5.4-5.4c-0.99,0-1.8-0.81-1.8-1.8S321.81,61.2,322.8,61.2z"/>
	<circle class="st5" cx="297" cy="38" r="3"/>
	<circle class="st5" cx="370.5" cy="196.5" r="4.5"/>
</g>
</svg>
