<?xml version="1.0" encoding="utf-8"?>
<!-- Generator: Adobe Illustrator 26.0.2, SVG Export Plug-In . SVG Version: 6.00 Build 0)  -->
<svg version="1.1" id="Facebook_x5F_Hub-Facebook_x5F_Messanger_x5F_Ads"
	 xmlns="http://www.w3.org/2000/svg" xmlns:xlink="http://www.w3.org/1999/xlink" x="0px" y="0px" viewBox="0 0 400 400"
	 style="enable-background:new 0 0 400 400;" xml:space="preserve">
<style type="text/css">
	.st0{fill:#1877F2;}
	.st1{fill:#FFD886;}
	.st2{fill:none;}
	.st3{fill:#6ADAF7;}
	.st4{fill:#515979;}
	.st5{fill:#C7BCFF;}
	.st6{fill:#FFFFFF;}
	.st7{fill:#B4ECFB;}
	.st8{fill:#E3DDFF;}
	.st9{fill:#D8EBFB;}
	.st10{fill:#F3F9FE;}
	.st11{fill:#EF7D7D;}
	.st12{fill:#747A94;}
</style>
<g>
	<path class="st0" d="M112.67,219.54c-44.18,0-80,35.82-80,80c0,39.93,29.25,73.03,67.5,79.03l0-55.9H79.86l0-23.12h20.31l0-17.62
		c0-20.05,11.94-31.12,30.22-31.13c8.75,0,17.91,1.56,17.91,1.56l0,19.69l-10.09,0c-9.94,0-13.04,6.17-13.04,12.49l0,15.01l22.19,0
		l-3.55,23.12l-18.64,0l0,55.9c38.25-6,67.5-39.1,67.5-79.03C192.67,255.36,156.86,219.54,112.67,219.54z"/>
</g>
<g>
	<path class="st1" d="M225.13,37.46c-2.17,0-3.94-1.77-3.94-3.94c0-0.72-0.59-1.31-1.31-1.31s-1.31,0.59-1.31,1.31
		c0,2.17-1.77,3.94-3.94,3.94c-0.72,0-1.31,0.59-1.31,1.31s0.59,1.31,1.31,1.31c2.17,0,3.94,1.77,3.94,3.94
		c0,0.72,0.59,1.31,1.31,1.31s1.31-0.59,1.31-1.31c0-2.17,1.77-3.94,3.94-3.94c0.72,0,1.31-0.59,1.31-1.31
		S225.85,37.46,225.13,37.46z"/>
</g>
<g>
	<path class="st1" d="M57.3,153.06c-3.31,0-6-2.69-6-6c0-1.1-0.9-2-2-2c-1.1,0-2,0.9-2,2c0,3.31-2.69,6-6,6c-1.1,0-2,0.9-2,2
		c0,1.1,0.9,2,2,2c3.31,0,6,2.69,6,6c0,1.1,0.9,2,2,2c1.1,0,2-0.9,2-2c0-3.31,2.69-6,6-6c1.1,0,2-0.9,2-2
		C59.3,153.96,58.41,153.06,57.3,153.06z"/>
</g>
<g>
	<path class="st1" d="M328.91,153.06c-3.31,0-6-2.69-6-6c0-1.1-0.9-2-2-2s-2,0.9-2,2c0,3.31-2.69,6-6,6c-1.1,0-2,0.9-2,2
		c0,1.1,0.9,2,2,2c3.31,0,6,2.69,6,6c0,1.1,0.9,2,2,2s2-0.9,2-2c0-3.31,2.69-6,6-6c1.1,0,2-0.9,2-2
		C330.91,153.96,330.02,153.06,328.91,153.06z"/>
</g>
<g>
	<circle class="st1" cx="302.51" cy="100.22" r="4.5"/>
</g>
<g>
	<circle class="st1" cx="96.67" cy="187.72" r="4.5"/>
</g>
<g>
	<circle class="st1" cx="230.94" cy="253.76" r="4.5"/>
</g>
<g>
	<circle class="st1" cx="262.67" cy="370.23" r="4.5"/>
</g>
<g>
	<circle class="st1" cx="285.99" cy="65.22" r="2.5"/>
</g>
<g>
	<circle class="st1" cx="341.96" cy="92.22" r="2.5"/>
</g>
<g>
	<circle class="st1" cx="252.21" cy="56.22" r="2.5"/>
</g>
<g>
	<circle class="st1" cx="292.99" cy="119.06" r="2.5"/>
</g>
<g>
	<circle class="st1" cx="75.63" cy="174.31" r="2.5"/>
</g>
<g>
	<circle class="st1" cx="215.17" cy="233.26" r="2.5"/>
</g>
<g>
	<circle class="st1" cx="226.44" cy="279.26" r="2.5"/>
</g>
<g>
	<circle class="st1" cx="246.8" cy="352.23" r="2.5"/>
</g>
<g>
	<circle class="st1" cx="67.25" cy="200" r="2.5"/>
</g>
<g>
	<circle class="st1" cx="132.67" cy="200" r="2.5"/>
</g>
<g>
	<path class="st1" d="M338.91,53.22h-6v-6c0-1.66-1.34-3-3-3s-3,1.34-3,3v6h-6c-1.66,0-3,1.34-3,3s1.34,3,3,3h6v6c0,1.66,1.34,3,3,3
		s3-1.34,3-3v-6h6c1.66,0,3-1.34,3-3S340.57,53.22,338.91,53.22z"/>
	<path class="st1" d="M219.67,358.23h-6v-6c0-1.66-1.34-3-3-3s-3,1.34-3,3v6h-6c-1.66,0-3,1.34-3,3s1.34,3,3,3h6v6
		c0,1.66,1.34,3,3,3s3-1.34,3-3v-6h6c1.66,0,3-1.34,3-3S221.33,358.23,219.67,358.23z"/>
</g>
<g>
	<rect x="-0.63" y="0.79" class="st2" width="400" height="400"/>
</g>
<g>
	<g>
		<g>
			<path class="st3" d="M92.67,135.22c-0.39,0-0.78-0.07-1.15-0.23c-1.12-0.46-1.85-1.56-1.85-2.77v-21h-23c-9.37,0-17-7.63-17-17
				v-48c0-9.37,7.63-17,17-17h102c9.37,0,17,7.63,17,17v48c0,9.37-7.63,17-17,17h-50.76l-23.12,23.12
				C94.22,134.91,93.45,135.22,92.67,135.22z"/>
		</g>
		<g>
			<path class="st4" d="M168.67,32.22c7.73,0,14,6.27,14,14v48c0,7.73-6.27,14-14,14h-52l-24,24v-24h-26c-7.73,0-14-6.27-14-14v-48
				c0-7.73,6.27-14,14-14H168.67 M168.67,26.22h-102c-11.03,0-20,8.97-20,20v48c0,11.03,8.97,20,20,20h20v18
				c0,2.43,1.46,4.61,3.7,5.54c0.74,0.31,1.52,0.46,2.29,0.46c1.56,0,3.1-0.61,4.24-1.76l22.24-22.24h49.51c11.03,0,20-8.97,20-20
				v-48C188.67,35.19,179.7,26.22,168.67,26.22L168.67,26.22z"/>
		</g>
	</g>
	<g>
		<circle class="st4" cx="117.67" cy="70.22" r="7"/>
	</g>
	<g>
		<circle class="st4" cx="89.67" cy="70.22" r="7"/>
	</g>
	<g>
		<circle class="st4" cx="145.67" cy="70.22" r="7"/>
	</g>
	<g>
		<g>
			<path class="st5" d="M222.67,195.22c-0.78,0-1.55-0.3-2.12-0.88l-23.12-23.12h-50.76c-9.37,0-17-7.63-17-17v-48
				c0-9.37,7.63-17,17-17h102c9.37,0,17,7.63,17,17v48c0,9.37-7.63,17-17,17h-23v21c0,1.21-0.73,2.31-1.85,2.77
				C223.45,195.14,223.06,195.22,222.67,195.22z"/>
		</g>
		<g>
			<path class="st4" d="M248.67,92.22c7.73,0,14,6.27,14,14v48c0,7.73-6.27,14-14,14h-26v24l-24-24h-52c-7.73,0-14-6.27-14-14v-48
				c0-7.73,6.27-14,14-14H248.67 M248.67,86.22h-102c-11.03,0-20,8.97-20,20v48c0,11.03,8.97,20,20,20h49.51l22.24,22.24
				c1.15,1.15,2.68,1.76,4.24,1.76c0.77,0,1.55-0.15,2.29-0.46c2.24-0.93,3.7-3.12,3.7-5.54v-18h20c11.03,0,20-8.97,20-20v-48
				C268.67,95.19,259.7,86.22,248.67,86.22L248.67,86.22z"/>
		</g>
	</g>
	<g>
		<g>
			<path class="st4" d="M216.17,135.81c-0.32,0-0.64-0.08-0.94-0.24c-1.89-1.02-5.21-1.02-7.11,0c-0.97,0.52-2.18,0.16-2.71-0.82
				c-0.52-0.97-0.16-2.19,0.82-2.71c3.05-1.64,7.84-1.64,10.89,0c0.97,0.52,1.34,1.73,0.82,2.71
				C217.57,135.43,216.88,135.81,216.17,135.81z"/>
		</g>
		<g>
			<g>
				<circle class="st4" cx="211.67" cy="126.06" r="7"/>
			</g>
			<g>
				<circle class="st6" cx="213.42" cy="126.06" r="1.75"/>
			</g>
		</g>
		<g>
			<path class="st4" d="M206.7,111.05c3.24-2.9,8.49-3.41,12.08-0.78c1.82,1.28,4.35,4.61,1.57,6.06c-0.7,0.31-1.41,0.12-2.04-0.19
				c-1.67-0.77-2.8-1.34-4.5-1.56c-1.59-0.26-3.57-0.04-5.21-0.01c0,0-0.78-0.08-0.78-0.08
				C206.14,114.38,205.43,112.11,206.7,111.05L206.7,111.05z"/>
		</g>
		<g>
			<path class="st4" d="M186.17,135.81c-0.32,0-0.64-0.08-0.94-0.24c-1.89-1.02-5.22-1.02-7.11,0c-0.98,0.52-2.19,0.16-2.71-0.82
				c-0.52-0.97-0.16-2.19,0.82-2.71c3.05-1.64,7.84-1.64,10.89,0c0.97,0.52,1.34,1.73,0.82,2.71
				C187.57,135.43,186.88,135.81,186.17,135.81z"/>
		</g>
		<g>
			<g>
				<circle class="st4" cx="181.67" cy="126.06" r="7"/>
			</g>
			<g>
				<circle class="st6" cx="183.42" cy="126.06" r="1.75"/>
			</g>
		</g>
		<g>
			<path class="st4" d="M184.74,114.57c-1.64-0.03-3.62-0.25-5.21,0.01c-1.71,0.22-2.84,0.78-4.5,1.56c-1.13,0.65-2.6,0.36-3.13-0.9
				c-0.22-0.53-0.21-1.1,0-1.59c0.54-1.28,1.41-2.51,2.67-3.38c2.96-2.22,7.23-2.17,10.35-0.44c1.45,0.74,3.33,2.28,1.88,4.02
				C186.3,114.46,185.47,114.51,184.74,114.57L184.74,114.57z"/>
		</g>
	</g>
	<g>
		<path class="st4" d="M197.04,147.08c-5.29,0-10.71-1.42-15.4-4.27c-0.94-0.57-1.25-1.8-0.67-2.75c0.57-0.94,1.8-1.24,2.75-0.67
			c8,4.86,18.86,4.87,25.82,0.03c0.91-0.63,2.15-0.41,2.78,0.5s0.41,2.15-0.5,2.78C207.62,145.62,202.4,147.08,197.04,147.08z"/>
	</g>
	<g>
		<path class="st4" d="M192.5,150.2c2.7,0.79,5.66,0.86,8.34,0c1.29-0.47,2.34,1.21,1.39,2.17c0,0-0.72,0.76-0.72,0.76
			c-2.84,2.68-7.68,2.05-10.33-0.58C190.06,151.59,191.12,149.73,192.5,150.2L192.5,150.2z"/>
	</g>
	<g>
		<path class="st7" d="M174.67,56.22c-1.1,0-2-0.9-2-2v-6c0-3.31-2.69-6-6-6h-7.75c-1.1,0-2-0.9-2-2s0.9-2,2-2h7.75
			c5.51,0,10,4.49,10,10v6C176.67,55.32,175.78,56.22,174.67,56.22z"/>
	</g>
	<g>
		<path class="st8" d="M254.67,116.22c-1.1,0-2-0.9-2-2v-6c0-3.31-2.69-6-6-6h-7.75c-1.1,0-2-0.9-2-2s0.9-2,2-2h7.75
			c5.51,0,10,4.49,10,10v6C256.67,115.32,255.78,116.22,254.67,116.22z"/>
	</g>
</g>
<g>
	<g>
		<g>
			<path class="st9" d="M289.99,348.76c-3.86,0-7-3.14-7-7v-126c0-3.86,3.14-7,7-7h62c3.86,0,7,3.14,7,7v126c0,3.86-3.14,7-7,7
				H289.99z"/>
		</g>
		<g>
			<g>
				<path class="st4" d="M351.99,211.76c2.21,0,4,1.79,4,4v126c0,2.21-1.79,4-4,4h-62c-2.21,0-4-1.79-4-4v-126c0-2.21,1.79-4,4-4
					H351.99 M351.99,205.76h-62c-5.51,0-10,4.49-10,10v126c0,5.51,4.49,10,10,10h62c5.51,0,10-4.49,10-10v-126
					C361.99,210.25,357.5,205.76,351.99,205.76L351.99,205.76z"/>
			</g>
		</g>
	</g>
	<g>
		<g>
			<polygon class="st10" points="308.99,345.76 292.99,345.76 316.99,211.76 332.99,211.76 			"/>
		</g>
		<g>
			<polygon class="st10" points="324.99,345.76 314.99,345.76 338.99,211.76 348.99,211.76 			"/>
		</g>
	</g>
	<g>
		<path class="st4" d="M279.99,250.76c-1.66,0-3-1.34-3-3v-12c0-1.66,1.34-3,3-3s3,1.34,3,3v12
			C282.99,249.42,281.64,250.76,279.99,250.76z"/>
	</g>
	<g>
		<path class="st4" d="M279.99,274.76c-1.66,0-3-1.34-3-3v-12c0-1.66,1.34-3,3-3s3,1.34,3,3v12
			C282.99,273.42,281.64,274.76,279.99,274.76z"/>
	</g>
	<g>
		<path class="st4" d="M361.99,262.76c-1.66,0-3-1.34-3-3v-12c0-1.66,1.34-3,3-3s3,1.34,3,3v12
			C364.99,261.42,363.64,262.76,361.99,262.76z"/>
	</g>
	<g>
		<path class="st4" d="M335.99,341.76h-30c-1.1,0-2-0.9-2-2s0.9-2,2-2h30c1.1,0,2,0.9,2,2S337.09,341.76,335.99,341.76z"/>
	</g>
	<g>
		<g>
			<g>
				<path class="st4" d="M335.01,280.76c-0.16,0-0.33-0.03-0.49-0.08c-1.6-0.55-4.42-0.55-6.02,0c-0.79,0.27-1.64-0.15-1.91-0.93
					c-0.27-0.78,0.15-1.64,0.93-1.91c2.24-0.77,5.74-0.77,7.98,0c0.78,0.27,1.2,1.12,0.93,1.91
					C336.22,280.37,335.63,280.76,335.01,280.76z"/>
			</g>
			<g>
				<g>
					<circle class="st4" cx="331.51" cy="272.57" r="6"/>
				</g>
				<g>
					<circle class="st6" cx="333.01" cy="272.57" r="1.5"/>
				</g>
			</g>
			<g>
				<path class="st4" d="M328.4,258.73c3.02-1.72,6.69-1.65,9.73-0.02c1.81,0.93,4.35,3.84,1.77,5.43
					c-0.53,0.31-1.14,0.27-1.71,0.22c-3.34-0.42-6.38-1.23-9.46-2.64C327.44,261.21,327.19,259.47,328.4,258.73L328.4,258.73z"/>
			</g>
		</g>
		<g>
			<g>
				<path class="st4" d="M313.96,280.76c-0.16,0-0.33-0.03-0.49-0.08c-1.6-0.55-4.42-0.55-6.02,0c-0.79,0.27-1.64-0.15-1.91-0.93
					c-0.27-0.78,0.15-1.64,0.93-1.91c2.24-0.77,5.74-0.77,7.98,0c0.78,0.27,1.2,1.12,0.93,1.91
					C315.16,280.37,314.58,280.76,313.96,280.76z"/>
			</g>
			<g>
				<g>
					<circle class="st4" cx="310.46" cy="272.57" r="6"/>
				</g>
				<g>
					<circle class="st6" cx="311.96" cy="272.57" r="1.5"/>
				</g>
			</g>
			<g>
				<path class="st4" d="M313.24,261.71c-3.08,1.41-6.12,2.22-9.46,2.64c-1.36,0.25-2.69-0.47-2.8-1.93
					c0.45-3.92,6.13-5.43,9.43-4.82c1.53,0.27,4.87,1.12,3.72,3.36C313.93,261.33,313.59,261.54,313.24,261.71L313.24,261.71z"/>
			</g>
		</g>
		<g>
			<path class="st4" d="M332.99,284.98h-24c-1.06,0-2.08,0.42-2.83,1.17c-0.75,0.75-1.17,1.77-1.17,2.83c0,8.82,7.18,16,16,16
				c8.82,0,16-7.18,16-16C336.99,286.77,335.2,284.98,332.99,284.98z"/>
			<g>
				<g>
					<ellipse class="st11" cx="320.99" cy="296.98" rx="8.93" ry="4"/>
				</g>
			</g>
		</g>
	</g>
	<g>
		<g>
			<path class="st12" d="M308.68,222.76c-1.66,0-3.16-1.04-3.75-2.59l-4.28-11.41h40.66l-4.28,11.4c-0.58,1.55-2.09,2.6-3.75,2.6
				H308.68z"/>
		</g>
		<g>
			<g>
				<path class="st4" d="M336.99,211.76l-2.76,7.35c-0.15,0.39-0.52,0.65-0.94,0.65h-24.61c-0.42,0-0.79-0.26-0.94-0.65l-2.76-7.35
					H336.99 M345.64,205.76h-8.66h-32h-8.66l3.04,8.11l2.76,7.35c1.02,2.72,3.65,4.54,6.55,4.54h24.61c2.9,0,5.54-1.83,6.55-4.54
					l2.76-7.35L345.64,205.76L345.64,205.76z"/>
			</g>
		</g>
	</g>
	<g>
		<path class="st4" d="M328.99,217.76h-16c-1.1,0-2-0.9-2-2s0.9-2,2-2h16c1.1,0,2,0.9,2,2S330.09,217.76,328.99,217.76z"/>
	</g>
</g>
</svg>
