<?xml version="1.0" encoding="utf-8"?>
<!-- Generator: Adobe Illustrator 26.0.2, SVG Export Plug-In . SVG Version: 6.00 Build 0)  -->
<svg version="1.1" id="Google_x5F_Hub-Google_x5F_Ads_x5F_Optimization"
	 xmlns="http://www.w3.org/2000/svg" xmlns:xlink="http://www.w3.org/1999/xlink" x="0px" y="0px" viewBox="0 0 400 400"
	 style="enable-background:new 0 0 400 400;" xml:space="preserve">
<style type="text/css">
	.st0{fill:none;}
	.st1{fill:#FFD886;}
	.st2{fill:#FFFFFF;}
	.st3{fill:#515979;}
	.st4{fill:#00C853;}
	.st5{fill:#2196F3;}
	.st6{fill:#D8EBFB;}
	.st7{fill:#EF7D7D;}
	.st8{fill:#FDE1D9;}
	.st9{fill:#667683;}
	.st10{fill:#949FA8;}
	.st11{fill:#B4ECFB;}
	.st12{fill:#75A5C3;}
	.st13{opacity:0.2;}
	.st14{fill:#9FC0D5;}
	.st15{fill:#FFE8A0;}
	.st16{fill:#508CB4;}
	.st17{fill:#507396;}
	.st18{fill:#85AFCB;}
	.st19{fill:#F89D81;}
	.st20{fill:#FABBA7;}
	.st21{fill:#6ADAF7;}
	.st22{fill:#46B9E6;}
	.st23{fill:#FBBD04;}
	.st24{fill:#438EDC;}
	.st25{fill:#34A952;}
</style>
<g>
	<rect x="-0.7" class="st0" width="400" height="400"/>
</g>
<g>
	<path class="st1" d="M384.77,145.84c-2.32,0-4.2-1.88-4.2-4.2c0-0.77-0.63-1.4-1.4-1.4s-1.4,0.63-1.4,1.4c0,2.32-1.88,4.2-4.2,4.2
		c-0.77,0-1.4,0.63-1.4,1.4s0.63,1.4,1.4,1.4c2.32,0,4.2,1.88,4.2,4.2c0,0.77,0.63,1.4,1.4,1.4s1.4-0.63,1.4-1.4
		c0-2.32,1.88-4.2,4.2-4.2c0.77,0,1.4-0.63,1.4-1.4S385.55,145.84,384.77,145.84z"/>
</g>
<path class="st1" d="M37.87,16.18h-6v-6c0-1.66-1.34-3-3-3s-3,1.34-3,3v6h-6c-1.66,0-3,1.34-3,3s1.34,3,3,3h6v6c0,1.66,1.34,3,3,3
	s3-1.34,3-3v-6h6c1.66,0,3-1.34,3-3S39.52,16.18,37.87,16.18z"/>
<g>
	<g>
		<circle class="st1" cx="40.1" cy="71.31" r="3"/>
	</g>
</g>
<g>
	<g>
		<circle class="st1" cx="37.1" cy="194.48" r="3"/>
	</g>
</g>
<g>
	<g>
		<circle class="st1" cx="70.57" cy="31.96" r="3"/>
	</g>
</g>
<g>
	<g>
		<circle class="st1" cx="153.3" cy="197.48" r="3"/>
	</g>
</g>
<g>
	<g>
		<circle class="st1" cx="63.43" cy="383.98" r="3"/>
	</g>
</g>
<g>
	<g>
		<circle class="st1" cx="202.3" cy="77.18" r="3"/>
	</g>
</g>
<g>
	<g>
		<circle class="st1" cx="179.64" cy="225.59" r="3"/>
	</g>
</g>
<g>
	<g>
		<circle class="st1" cx="199.3" cy="124.18" r="3"/>
	</g>
</g>
<g>
	<g>
		<circle class="st1" cx="176.64" cy="138.93" r="3"/>
	</g>
</g>
<g>
	<g>
		<circle class="st1" cx="343.1" cy="161.38" r="3"/>
	</g>
</g>
<g>
	<circle class="st1" cx="90.82" cy="363.87" r="4.5"/>
</g>
<g>
	<circle class="st1" cx="179.64" cy="169.48" r="4.5"/>
</g>
<g>
	<circle class="st1" cx="19.87" cy="225.59" r="4.5"/>
</g>
<g>
	<g>
		<g>
			<path class="st2" d="M230.17,142.18c-3.31,0-6-2.69-6-6v-114c0-3.31,2.69-6,6-6h114c3.31,0,6,2.69,6,6v97
				c0,0.8-0.32,1.56-0.88,2.12l-20,20c-0.56,0.56-1.33,0.88-2.12,0.88H230.17z"/>
		</g>
		<g>
			<path class="st3" d="M344.17,19.18c1.66,0,3,1.34,3,3v97l-20,20h-97c-1.66,0-3-1.34-3-3v-114c0-1.66,1.34-3,3-3H344.17
				 M344.17,13.18h-114c-4.96,0-9,4.04-9,9v114c0,4.96,4.04,9,9,9h97c1.59,0,3.12-0.63,4.24-1.76l20-20
				c1.13-1.13,1.76-2.65,1.76-4.24v-97C353.17,17.22,349.14,13.18,344.17,13.18L344.17,13.18z"/>
		</g>
	</g>
	<g>
		<path class="st4" d="M313.67,84.18h-69c-1.38,0-2.5-1.12-2.5-2.5l0,0c0-1.38,1.12-2.5,2.5-2.5h69c1.38,0,2.5,1.12,2.5,2.5l0,0
			C316.17,83.06,315.06,84.18,313.67,84.18z"/>
	</g>
	<g>
		<path class="st3" d="M299.67,104.18h-55c-1.38,0-2.5-1.12-2.5-2.5l0,0c0-1.38,1.12-2.5,2.5-2.5h55c1.38,0,2.5,1.12,2.5,2.5l0,0
			C302.17,103.06,301.06,104.18,299.67,104.18z"/>
	</g>
	<g>
		<path class="st3" d="M309.67,114.18h-65c-1.38,0-2.5-1.12-2.5-2.5l0,0c0-1.38,1.12-2.5,2.5-2.5h65c1.38,0,2.5,1.12,2.5,2.5l0,0
			C312.17,113.06,311.06,114.18,309.67,114.18z"/>
	</g>
	<g>
		<path class="st3" d="M289.67,124.18h-45c-1.38,0-2.5-1.12-2.5-2.5l0,0c0-1.38,1.12-2.5,2.5-2.5h45c1.38,0,2.5,1.12,2.5,2.5l0,0
			C292.17,123.06,291.06,124.18,289.67,124.18z"/>
	</g>
	<g>
		<path class="st5" d="M307.67,94.18h-63c-1.38,0-2.5-1.12-2.5-2.5l0,0c0-1.38,1.12-2.5,2.5-2.5h63c1.38,0,2.5,1.12,2.5,2.5l0,0
			C310.17,93.06,309.06,94.18,307.67,94.18z"/>
	</g>
	<g>
		<g>
			<path class="st6" d="M327.17,142.18c-0.39,0-0.78-0.07-1.15-0.23c-1.12-0.46-1.85-1.56-1.85-2.77v-17c0-3.31,2.69-6,6-6h17
				c1.21,0,2.31,0.73,2.77,1.85c0.46,1.12,0.21,2.41-0.65,3.27l-20,20C328.72,141.88,327.95,142.18,327.17,142.18z"/>
		</g>
		<g>
			<g>
				<path class="st3" d="M347.17,119.18l-20,20v-17c0-1.66,1.34-3,3-3H347.17 M347.17,113.18h-17c-4.96,0-9,4.04-9,9v17
					c0,2.43,1.46,4.61,3.7,5.54c0.74,0.31,1.52,0.46,2.29,0.46c1.56,0,3.1-0.61,4.24-1.76l20-20c1.72-1.72,2.23-4.3,1.3-6.54
					C351.79,114.64,349.6,113.18,347.17,113.18L347.17,113.18z M347.17,125.18L347.17,125.18L347.17,125.18L347.17,125.18z"/>
			</g>
		</g>
	</g>
	<g>
		<g>
			<g>
				<g>
					<path class="st3" d="M302.7,48.77c-1.1,0-2-0.9-2-2c0-1.65-1.35-3-3-3s-3,1.35-3,3c0,1.1-0.9,2-2,2s-2-0.9-2-2
						c0-3.86,3.14-7,7-7s7,3.14,7,7C304.7,47.87,303.8,48.77,302.7,48.77z"/>
				</g>
			</g>
			<g>
				<path class="st3" d="M295.27,30.83c3.57-2.19,8.99-1.73,11.44,1.9c0.84,1.2-0.31,2.92-1.73,2.64c-1.57-0.27-2.86-0.63-4.4-0.83
					c-1.46-0.21-3.36-0.28-4.78-0.61C294.34,33.66,294.01,31.56,295.27,30.83L295.27,30.83z"/>
			</g>
		</g>
		<g>
			<g>
				<g>
					<path class="st3" d="M281.65,48.77c-1.1,0-2-0.9-2-2c0-1.65-1.35-3-3-3s-3,1.35-3,3c0,1.1-0.9,2-2,2s-2-0.9-2-2
						c0-3.86,3.14-7,7-7s7,3.14,7,7C283.65,47.87,282.75,48.77,281.65,48.77z"/>
				</g>
			</g>
			<g>
				<path class="st3" d="M278.12,34.02c-1.25,0.24-3.08,0.34-4.36,0.52c-1.54,0.19-2.82,0.55-4.39,0.82
					c-0.94,0.16-1.83-0.47-1.98-1.41c-0.07-0.44,0.03-0.88,0.25-1.22c1.79-2.76,5.51-3.65,8.57-3.02c1.01,0.21,1.9,0.51,2.88,1.12
					C280.56,31.83,279.83,33.9,278.12,34.02L278.12,34.02z"/>
			</g>
		</g>
		<g>
			<path class="st3" d="M299.18,52.18L299.18,52.18h-24c-2.21,0-4,1.79-4,4c0,8.82,7.18,16,16,16c8.77,0,15.91-7.09,16-15.84
				c0-0.05,0-0.11,0-0.16C303.18,53.97,301.39,52.18,299.18,52.18z"/>
			<g>
				<g>
					<ellipse class="st7" cx="287.17" cy="64.18" rx="8.93" ry="4"/>
				</g>
			</g>
		</g>
	</g>
	<g>
		<g>
			<circle class="st8" cx="313.17" cy="58.18" r="2"/>
		</g>
		<g>
			<circle class="st8" cx="321.17" cy="58.18" r="2"/>
		</g>
		<g>
			<circle class="st8" cx="317.17" cy="50.18" r="2"/>
		</g>
	</g>
	<g>
		<g>
			<circle class="st8" cx="253.17" cy="58.18" r="2"/>
		</g>
		<g>
			<circle class="st8" cx="261.17" cy="58.18" r="2"/>
		</g>
		<g>
			<circle class="st8" cx="257.17" cy="50.18" r="2"/>
		</g>
	</g>
</g>
<g>
	<g>
		<g>
			<path class="st9" d="M230.42,383.48c-1.07,0-2.06-0.57-2.6-1.5c-0.54-0.93-0.54-2.07,0-3l89.42-154.88
				c0.4-0.69,1.05-1.19,1.82-1.4c0.25-0.07,0.52-0.1,0.78-0.1c0.52,0,1.04,0.14,1.5,0.4l8.66,5c1.43,0.83,1.93,2.66,1.1,4.1
				l-86.54,149.88c-0.54,0.93-1.53,1.5-2.6,1.5H230.42z"/>
		</g>
		<g>
			<path class="st3" d="M319.84,225.59l8.66,5l-86.54,149.88h-11.55L319.84,225.59 M319.84,219.59c-0.52,0-1.04,0.07-1.55,0.2
				c-1.54,0.41-2.85,1.42-3.64,2.8l-89.42,154.88c-1.07,1.86-1.07,4.14,0,6c1.07,1.86,3.05,3,5.2,3h11.55c2.14,0,4.12-1.14,5.2-3
				l86.54-149.88c1.66-2.87,0.67-6.54-2.2-8.2l-8.66-5C321.92,219.86,320.89,219.59,319.84,219.59L319.84,219.59z"/>
		</g>
	</g>
	<g>
		<g>
			<path class="st9" d="M356.38,383.48c-1.07,0-2.06-0.57-2.6-1.5l-86.54-149.88c-0.83-1.44-0.34-3.27,1.1-4.1l8.66-5
				c0.46-0.27,0.98-0.4,1.5-0.4c0.26,0,0.52,0.03,0.78,0.1c0.77,0.21,1.42,0.71,1.82,1.4l89.42,154.88c0.54,0.93,0.54,2.07,0,3
				c-0.54,0.93-1.53,1.5-2.6,1.5H356.38z"/>
		</g>
		<g>
			<path class="st3" d="M278.5,225.59l89.42,154.88h-11.55l-86.54-149.88L278.5,225.59 M278.5,219.59c-1.04,0-2.08,0.27-3,0.8
				l-8.66,5c-2.87,1.66-3.85,5.33-2.2,8.2l86.54,149.88c1.07,1.86,3.05,3,5.2,3h11.55c2.14,0,4.12-1.14,5.2-3
				c1.07-1.86,1.07-4.14,0-6L283.7,222.59c-0.8-1.38-2.11-2.38-3.64-2.8C279.55,219.66,279.02,219.59,278.5,219.59L278.5,219.59z"/>
		</g>
	</g>
	<g>
		<g>
			<path class="st9" d="M294.17,383.48c-1.66,0-3-1.34-3-3v-215c0-1.66,1.34-3,3-3h10c1.66,0,3,1.34,3,3v215c0,1.66-1.34,3-3,3
				H294.17z"/>
		</g>
		<g>
			<path class="st3" d="M304.17,165.48v215h-10v-215H304.17 M304.17,159.48h-10c-3.31,0-6,2.69-6,6v215c0,3.31,2.69,6,6,6h10
				c3.31,0,6-2.69,6-6v-215C310.17,162.16,307.49,159.48,304.17,159.48L304.17,159.48z"/>
		</g>
	</g>
	<g>
		<rect x="294.17" y="165.48" class="st10" width="10" height="4"/>
	</g>
	<g>
		<g>
			<path class="st2" d="M219.17,310.48c-1.66,0-3-1.34-3-3v-120c0-1.66,1.34-3,3-3h160c1.66,0,3,1.34,3,3v120c0,1.66-1.34,3-3,3
				H219.17z"/>
		</g>
		<g>
			<path class="st3" d="M379.17,187.48v120h-160v-120H379.17 M379.17,181.48h-160c-3.31,0-6,2.69-6,6v120c0,3.31,2.69,6,6,6h160
				c3.31,0,6-2.69,6-6v-120C385.17,184.16,382.49,181.48,379.17,181.48L379.17,181.48z"/>
		</g>
	</g>
	<g>
		<rect x="230.17" y="214.48" class="st11" width="138" height="82"/>
	</g>
	<g>
		<g>
			<path class="st12" d="M212.17,322.48c-3.31,0-6-2.69-6-6s2.69-6,6-6h174c3.31,0,6,2.69,6,6s-2.69,6-6,6H212.17z"/>
		</g>
		<g>
			<path class="st3" d="M386.17,313.48c1.66,0,3,1.34,3,3s-1.34,3-3,3h-174c-1.66,0-3-1.34-3-3s1.34-3,3-3H386.17 M386.17,307.48
				h-174c-4.96,0-9,4.04-9,9s4.04,9,9,9h174c4.96,0,9-4.04,9-9S391.14,307.48,386.17,307.48L386.17,307.48z"/>
		</g>
	</g>
	<g class="st13">
		<rect x="294.17" y="325.48" class="st3" width="10" height="12"/>
	</g>
	<g class="st13">
		<polygon class="st3" points="324.63,325.48 331.55,337.48 343.1,337.48 336.17,325.48 		"/>
	</g>
	<g class="st13">
		<polygon class="st3" points="262.18,325.48 255.25,337.48 266.79,337.48 273.72,325.48 		"/>
	</g>
	<g>
		<g>
			<path class="st12" d="M214.17,200.48c-1.66,0-3-1.34-3-3v-10c0-1.66,1.34-3,3-3h170c1.66,0,3,1.34,3,3v10c0,1.66-1.34,3-3,3
				H214.17z"/>
		</g>
		<g>
			<g>
				<path class="st3" d="M384.17,187.48v10h-170v-10H384.17 M384.17,181.48h-170c-3.31,0-6,2.69-6,6v10c0,3.31,2.69,6,6,6h170
					c3.31,0,6-2.69,6-6v-10C390.17,184.16,387.49,181.48,384.17,181.48L384.17,181.48z"/>
			</g>
		</g>
	</g>
	<g>
		<rect x="214.17" y="187.48" class="st14" width="170" height="4"/>
	</g>
	<g>
		<g>
			<g>
				<g>
					<g>
						<path class="st3" d="M314.7,226.28c-1.1,0-2-0.9-2-2c0-1.65-1.35-3-3-3s-3,1.35-3,3c0,1.1-0.9,2-2,2s-2-0.9-2-2
							c0-3.86,3.14-7,7-7s7,3.14,7,7C316.7,225.39,315.8,226.28,314.7,226.28z"/>
					</g>
				</g>
				<g>
					<path class="st3" d="M307.27,208.34c3.57-2.19,8.99-1.73,11.44,1.9c0.84,1.2-0.31,2.92-1.73,2.64
						c-1.57-0.27-2.86-0.63-4.4-0.83c-1.46-0.21-3.36-0.28-4.78-0.61C306.34,211.17,306.01,209.08,307.27,208.34L307.27,208.34z"/>
				</g>
			</g>
			<g>
				<g>
					<g>
						<path class="st3" d="M293.65,226.28c-1.1,0-2-0.9-2-2c0-1.65-1.35-3-3-3s-3,1.35-3,3c0,1.1-0.9,2-2,2s-2-0.9-2-2
							c0-3.86,3.14-7,7-7s7,3.14,7,7C295.65,225.39,294.75,226.28,293.65,226.28z"/>
					</g>
				</g>
				<g>
					<path class="st3" d="M290.12,211.54c-1.25,0.24-3.08,0.34-4.36,0.52c-1.54,0.19-2.82,0.55-4.39,0.82
						c-0.94,0.16-1.83-0.47-1.98-1.41c-0.07-0.44,0.03-0.88,0.25-1.22c1.78-2.76,5.51-3.65,8.57-3.02c1.01,0.21,1.9,0.51,2.88,1.12
						C292.56,209.35,291.83,211.42,290.12,211.54L290.12,211.54z"/>
				</g>
			</g>
		</g>
		<g>
			<path class="st3" d="M299.46,237.51c-4.22,0-8.54-1.08-12.29-3.25c-0.96-0.55-1.28-1.78-0.73-2.73c0.55-0.95,1.77-1.28,2.73-0.73
				c6.17,3.57,14.54,3.59,19.89,0.03c0.92-0.61,2.16-0.36,2.77,0.56c0.61,0.92,0.36,2.16-0.56,2.77
				C307.93,236.4,303.75,237.51,299.46,237.51z"/>
		</g>
		<g>
			<path class="st3" d="M295.43,240.62c2.43,0.64,5.05,0.65,7.48,0c1.3-0.4,2.27,1.31,1.29,2.22c-0.77,0.81-1.77,1.66-2.81,1.92
				c-2.19,0.67-4.71,0.42-6.47-1.18c0,0-0.76-0.74-0.76-0.74C293.17,241.91,294.16,240.23,295.43,240.62L295.43,240.62z"/>
		</g>
	</g>
	<g>
		<polygon class="st15" points="230.17,296.48 268.17,261.48 284.17,275.48 319.17,246.48 336.17,264.48 368.17,237.48 
			368.17,296.48 		"/>
	</g>
	<g>
		<path class="st3" d="M230.18,299.48c-0.81,0-1.62-0.33-2.21-0.97c-1.12-1.22-1.04-3.12,0.17-4.24l38-35
			c1.13-1.04,2.86-1.06,4.01-0.05l14.08,12.32l33.03-27.37c1.22-1.01,3.01-0.9,4.09,0.25l15.05,15.94l29.83-25.17
			c1.26-1.07,3.16-0.91,4.23,0.36s0.91,3.16-0.36,4.23l-32,27c-1.22,1.03-3.02,0.92-4.12-0.23l-15.07-15.96l-32.83,27.21
			c-1.13,0.94-2.78,0.92-3.89-0.05l-13.97-12.23l-36.02,33.18C231.63,299.21,230.9,299.48,230.18,299.48z"/>
	</g>
</g>
<g>
	<g>
		<g>
			<path class="st16" d="M85.88,190.32c-1.04,0-2.03-0.54-2.58-1.48c-0.69-1.17-0.51-2.65,0.44-3.62
				c14.44-14.82,17.62-29.1,8.51-38.21c-0.65-0.65-0.97-1.57-0.86-2.49s0.64-1.73,1.43-2.21l21.21-12.73
				c0.48-0.29,1.01-0.43,1.54-0.43c0.99,0,1.95,0.49,2.53,1.38c0.46,0.71,11.19,17.69,4.55,33.08
				c-8.1,18.76-34.84,26.28-35.98,26.59C86.41,190.29,86.15,190.32,85.88,190.32z"/>
		</g>
		<g>
			<path class="st3" d="M115.58,132.17c0,0,10.4,16.17,4.32,30.27c-7.62,17.65-34.02,24.89-34.02,24.89
				c16.05-16.47,18.68-32.23,8.49-42.43L115.58,132.17 M115.58,126.17c-1.05,0-2.12,0.28-3.08,0.86l-21.21,12.73
				c-1.58,0.95-2.64,2.58-2.87,4.41c-0.23,1.83,0.41,3.67,1.71,4.98c3.74,3.74,10.41,14.55-8.54,34c-1.89,1.94-2.25,4.9-0.87,7.24
				c1.1,1.86,3.08,2.95,5.17,2.95c0.53,0,1.06-0.07,1.59-0.21c1.19-0.33,29.28-8.23,37.94-28.3c7.27-16.83-4.28-35.12-4.78-35.89
				C119.48,127.14,117.55,126.17,115.58,126.17L115.58,126.17z"/>
		</g>
	</g>
	<g>
		<path class="st17" d="M115.58,132.17L94.37,144.9c3.74,3.74,5.74,8.22,6.01,13.21c4.54-2.41,12.05-6.6,20.66-12.26
			C119.37,138.07,115.58,132.17,115.58,132.17z"/>
	</g>
	<g>
		<g>
			<path class="st16" d="M26.48,130.93c-0.52,0-1.05-0.14-1.52-0.42c-1.17-0.69-1.73-2.07-1.37-3.38
				c0.31-1.13,7.83-27.88,26.59-35.98C53.5,89.73,57.15,89,61.05,89c11.66,0,21.79,6.43,22.21,6.7c1.36,0.88,1.78,2.68,0.95,4.07
				l-12.73,21.21c-0.48,0.79-1.29,1.32-2.21,1.43c-0.12,0.01-0.25,0.02-0.37,0.02c-0.79,0-1.56-0.31-2.12-0.88
				c-3.43-3.43-7.54-5.17-12.22-5.17c-7.82,0-16.81,4.73-25.99,13.68C28,130.63,27.25,130.93,26.48,130.93z"/>
		</g>
		<g>
			<path class="st3" d="M61.05,92c10.91,0,20.59,6.23,20.59,6.23l-12.73,21.21c-4.02-4.02-8.9-6.04-14.34-6.04
				c-8.38,0-18.1,4.8-28.08,14.53c0,0,7.24-26.4,24.89-34.02C54.56,92.53,57.86,92,61.05,92 M61.05,86c-4.31,0-8.36,0.81-12.05,2.4
				c-20.07,8.66-27.97,36.75-28.3,37.94c-0.72,2.61,0.41,5.38,2.74,6.75c0.95,0.56,2,0.83,3.05,0.83c1.53,0,3.04-0.58,4.19-1.7
				c8.49-8.27,16.97-12.83,23.9-12.83c3.91,0,7.22,1.4,10.1,4.29c1.13,1.13,2.66,1.76,4.24,1.76c0.24,0,0.49-0.01,0.73-0.04
				c1.83-0.23,3.46-1.28,4.41-2.87l12.73-21.21c1.67-2.78,0.83-6.38-1.9-8.13C84.43,92.89,73.58,86,61.05,86L61.05,86z"/>
		</g>
	</g>
	<g>
		<path class="st18" d="M58.45,100.98c7.46-3.22,15.5-1.82,21.42,0.21l1.78-2.96c0,0-16.17-10.4-30.27-4.32
			c-17.65,7.62-24.89,34.02-24.89,34.02c5.22-5.09,10.37-8.82,15.29-11.23C45.73,110.37,51.21,104.1,58.45,100.98z"/>
	</g>
	<g>
		<g>
			<path class="st12" d="M80.23,156.38c-0.77,0-1.54-0.3-2.12-0.88l-19.8-19.8c-1.01-1.01-1.17-2.6-0.38-3.79l5.66-8.49
				c0.5-0.75,1.31-1.23,2.2-1.32c0.1-0.01,0.2-0.01,0.3-0.01c0.79,0,1.56,0.31,2.12,0.88l22.63,22.63c0.64,0.64,0.95,1.52,0.86,2.42
				s-0.57,1.7-1.32,2.2l-8.49,5.66C81.38,156.22,80.8,156.38,80.23,156.38z"/>
		</g>
		<g>
			<path class="st3" d="M66.08,125.1l22.63,22.63l-8.49,5.66l-19.8-19.8L66.08,125.1 M66.08,119.1c-0.2,0-0.39,0.01-0.59,0.03
				c-1.79,0.18-3.4,1.15-4.4,2.64l-5.66,8.49c-1.59,2.38-1.27,5.55,0.75,7.57l19.8,19.8c1.16,1.16,2.7,1.76,4.24,1.76
				c1.15,0,2.31-0.33,3.33-1.01l8.49-5.66c1.5-1,2.47-2.61,2.64-4.4c0.18-1.79-0.46-3.56-1.73-4.83l-22.63-22.63
				C69.2,119.72,67.67,119.1,66.08,119.1L66.08,119.1z"/>
		</g>
	</g>
	<g>
		<g>
			<path class="st19" d="M94.37,147.9c-0.78,0-1.55-0.3-2.12-0.88l-25.46-25.46c-0.9-0.9-1.13-2.27-0.59-3.42
				c0.64-1.35,16.06-33.27,40.18-57.4c19.44-19.44,46.15-30.58,73.29-30.58l0.98,0c1.63,0.02,2.95,1.34,2.97,2.97
				c0.27,27.5-10.87,54.57-30.58,74.28c-24.13,24.13-56.05,39.54-57.4,40.18C95.25,147.8,94.81,147.9,94.37,147.9z"/>
		</g>
		<g>
			<path class="st3" d="M179.68,33.17c0.32,0,0.64,0,0.95,0c0.26,25.92-9.92,52.35-29.7,72.12c-24.04,24.04-56.57,39.6-56.57,39.6
				l-25.46-25.46c0,0,15.56-32.53,39.6-56.57C128.05,43.34,154.07,33.17,179.68,33.17 M179.68,27.17
				c-27.93,0-55.42,11.47-75.41,31.46c-24.49,24.49-40.11,56.86-40.77,58.22c-1.1,2.29-0.63,5.03,1.17,6.83l25.46,25.46
				c1.15,1.15,2.69,1.76,4.24,1.76c0.88,0,1.76-0.19,2.59-0.59c1.37-0.65,33.74-16.28,58.22-40.77
				c20.27-20.27,31.73-48.13,31.46-76.43c-0.03-3.27-2.67-5.91-5.94-5.94C180.36,27.17,180.02,27.17,179.68,27.17L179.68,27.17z"/>
		</g>
	</g>
	<g>
		<path class="st16" d="M144.63,39.59l29.59,29.59c4.37-11.62,6.54-23.87,6.42-36.01C168.5,33.05,156.25,35.22,144.63,39.59z"/>
	</g>
	<g>
		<path class="st16" d="M174.22,69.18c4.37-11.62,6.54-23.87,6.42-36.01c-9.72,3.53-19.76,7.52-29.8,12.63L174.22,69.18z"/>
	</g>
	<g>
		<path class="st20" d="M115.58,69.94c11.37-10.41,23.3-18.07,35.25-24.14l-6.2-6.2c-13.2,4.96-25.61,12.75-36.13,23.27
			c-24.04,24.04-39.6,56.57-39.6,56.57l7.07,7.07C75.98,126.51,90.51,92.91,115.58,69.94z"/>
	</g>
	<g>
		<path class="st18" d="M180.64,33.17c-1.44-0.01-2.88,0.01-4.32,0.06c-0.11,0-0.23,0.01-0.34,0.01c-1.37,0.05-2.75,0.14-4.12,0.25
			c-0.17,0.01-0.35,0.03-0.52,0.04c-1.34,0.11-2.68,0.26-4.01,0.43c-0.2,0.03-0.41,0.05-0.61,0.08c-1.32,0.18-2.64,0.38-3.96,0.61
			c-0.21,0.04-0.42,0.07-0.63,0.11c-1.32,0.24-2.63,0.5-3.95,0.8c-0.19,0.04-0.39,0.09-0.58,0.13c-1.33,0.3-2.66,0.63-3.98,0.99
			c-0.16,0.04-0.31,0.09-0.47,0.13c-1.36,0.38-2.72,0.78-4.06,1.22c-0.08,0.03-0.17,0.06-0.25,0.09c-1.2,0.39-2.39,0.82-3.58,1.25
			c-0.2,0.08-0.41,0.15-0.61,0.23l6.2,6.2C160.87,40.7,170.91,36.71,180.64,33.17z"/>
	</g>
	<g>
		<path class="st3" d="M174.27,76.48c-0.77,0-1.54-0.29-2.12-0.88l-33.94-33.94c-1.17-1.17-1.17-3.07,0-4.24
			c1.17-1.17,3.07-1.17,4.24,0l33.94,33.94c1.17,1.17,1.17,3.07,0,4.24C175.81,76.19,175.04,76.48,174.27,76.48z"/>
	</g>
	<g>
		<g>
			<path class="st16" d="M57.66,161.24c-1.36,0-2.64-0.53-3.6-1.49c-1.93-1.93-2-5.02-0.15-7.04l35.56-39.37
				c1.49-1.62,3.58-2.54,5.76-2.54c2.08,0,4.04,0.81,5.51,2.28c1.52,1.52,2.33,3.53,2.28,5.68s-0.94,4.12-2.52,5.57l-39.41,35.59
				C60.16,160.76,58.94,161.24,57.66,161.24C57.66,161.24,57.66,161.24,57.66,161.24z"/>
		</g>
		<g>
			<path class="st3" d="M95.22,113.8c1.22,0,2.45,0.47,3.39,1.4h0c1.93,1.93,1.86,5.07-0.15,6.92l-39.39,35.57
				c-0.4,0.37-0.91,0.55-1.41,0.55c-0.54,0-1.07-0.2-1.48-0.61v0c-0.79-0.79-0.82-2.06-0.06-2.89l35.57-39.39
				C92.64,114.31,93.93,113.8,95.22,113.8 M95.22,107.8c-3.01,0-5.91,1.27-7.95,3.49l-35.6,39.43c-2.91,3.17-2.8,8.08,0.27,11.15
				c1.53,1.53,3.56,2.37,5.72,2.37c2.03,0,3.97-0.76,5.47-2.13l39.35-35.54c2.19-2.01,3.46-4.82,3.53-7.75
				c0.06-2.93-1.09-5.79-3.16-7.86C100.82,108.92,98.11,107.8,95.22,107.8L95.22,107.8z"/>
		</g>
	</g>
	<g>
		<g>
			<path class="st12" d="M133.24,127.37c-0.77,0-1.54-0.3-2.12-0.88l-43.8-43.8c-1.05-1.05-1.17-2.72-0.28-3.91
				c1.22-1.64,2.48-3.28,3.74-4.87c0.53-0.67,1.32-1.08,2.18-1.13c0.06,0,0.12,0,0.17,0c0.79,0,1.56,0.31,2.12,0.88l44.92,44.92
				c0.61,0.61,0.92,1.44,0.87,2.3c-0.05,0.86-0.46,1.65-1.14,2.18c-1.59,1.25-3.22,2.51-4.87,3.73
				C134.5,127.17,133.87,127.37,133.24,127.37z"/>
		</g>
		<g>
			<path class="st3" d="M93.12,75.77l44.92,44.92c-1.6,1.27-3.21,2.5-4.8,3.68l-43.8-43.8C90.63,78.97,91.86,77.37,93.12,75.77
				 M93.12,69.77c-0.12,0-0.23,0-0.35,0.01c-1.71,0.1-3.3,0.93-4.36,2.27c-1.28,1.62-2.55,3.28-3.79,4.94
				c-1.78,2.39-1.54,5.72,0.57,7.83l43.8,43.8c1.16,1.16,2.7,1.76,4.24,1.76c1.25,0,2.51-0.39,3.58-1.19
				c1.66-1.24,3.32-2.51,4.94-3.79c1.34-1.06,2.17-2.65,2.27-4.36c0.1-1.71-0.54-3.38-1.75-4.59L97.36,71.53
				C96.24,70.4,94.71,69.77,93.12,69.77L93.12,69.77z"/>
		</g>
	</g>
	<g>
		<g>
			<path class="st21" d="M137.5,92.31c-4.27,0-8.29-1.66-11.31-4.69c-6.24-6.24-6.24-16.39,0-22.63c3.02-3.02,7.04-4.69,11.31-4.69
				c4.27,0,8.29,1.66,11.31,4.69c3.02,3.02,4.69,7.04,4.69,11.31c0,4.27-1.66,8.29-4.69,11.31
				C145.79,90.64,141.78,92.31,137.5,92.31z"/>
		</g>
		<g>
			<path class="st3" d="M137.5,63.31c3.33,0,6.65,1.27,9.19,3.81c5.08,5.08,5.08,13.31,0,18.38c-2.54,2.54-5.87,3.81-9.19,3.81
				c-3.33,0-6.65-1.27-9.19-3.81c-5.08-5.08-5.08-13.31,0-18.38C130.85,64.58,134.17,63.31,137.5,63.31 M137.5,57.31
				c-5.08,0-9.85,1.98-13.44,5.56c-7.41,7.41-7.41,19.46,0,26.87c3.59,3.59,8.36,5.56,13.44,5.56c5.08,0,9.85-1.98,13.44-5.56
				c7.41-7.41,7.41-19.46,0-26.87C147.35,59.28,142.58,57.31,137.5,57.31L137.5,57.31z"/>
		</g>
	</g>
	<g>
		<g>
			<path class="st22" d="M130.43,73.48c5.08-5.08,13.31-5.08,18.38,0c0.63,0.63,1.18,1.3,1.65,2.01c-0.19-3.05-1.44-6.05-3.77-8.38
				c-5.08-5.08-13.31-5.08-18.38,0c-4.45,4.45-5,11.32-1.65,16.37C126.44,79.89,127.68,76.22,130.43,73.48z"/>
		</g>
	</g>
	<g>
		<path class="st14" d="M93.12,75.77c-1.27,1.6-2.5,3.21-3.68,4.8l7.07,7.07c1.19-1.6,2.42-3.2,3.68-4.8L93.12,75.77z"/>
	</g>
</g>
<g>
	<g>
		<path class="st23" d="M29.11,368.08L29.11,368.08c-13.58-7.84-18.27-25.35-10.43-38.93l56.35-97.62
			c7.84-13.58,25.35-18.27,38.93-10.43l0,0c13.58,7.84,18.27,25.35,10.43,38.93l-56.35,97.62C60.2,371.21,42.69,375.92,29.11,368.08
			z"/>
	</g>
	<g>
		<path class="st24" d="M170.62,367.66L170.62,367.66c-13.58,7.84-31.09,3.14-38.93-10.43l-56.35-97.62
			c-7.84-13.58-3.14-31.09,10.43-38.93l0,0c13.58-7.84,31.09-3.14,38.93,10.43l56.35,97.62
			C188.89,342.29,184.19,359.82,170.62,367.66z"/>
	</g>
	<g>
		<circle class="st25" cx="43.75" cy="342.97" r="28.9"/>
	</g>
</g>
</svg>
