<?xml version="1.0" encoding="utf-8"?>
<!-- Generator: Adobe Illustrator 25.0.1, SVG Export Plug-In . SVG Version: 6.00 Build 0)  -->
<svg version="1.1" id="Layer_1" xmlns="http://www.w3.org/2000/svg" xmlns:xlink="http://www.w3.org/1999/xlink" x="0px" y="0px"
	 viewBox="0 0 318.1 125.2" style="enable-background:new 0 0 318.1 125.2;" xml:space="preserve">
<style type="text/css">
	.st0{fill:#FDE4DD;}
	.st1{fill:#515979;}
	.st2{fill:#FACDBF;}
	.st3{fill:#7DDF96;}
	.st4{fill:#00C853;}
	.st5{opacity:0.6;}
	.st6{fill:#FFEBEB;}
	.st7{fill:#FFFFFF;}
	.st8{fill:#B29D90;}
	.st9{fill:#9E8271;}
	.st10{opacity:0.4;}
</style>
<g>
	<g id="Layer_2_1_">
		<g id="Layer_1-2">
			<path class="st0" d="M24.2,152.6c-0.4,0-0.7-0.2-1-0.4l-20-20c-0.6-0.6-0.6-1.5,0-2c0,0,0,0,0.1-0.1l40.5-36.4
				c1.3-3.1,11.9-27.7,16.8-32.5c0.8-0.8,3.2-3.2,18-4.6c7.1-0.7,13.8-0.8,13.9-0.8h0c0.8,0,1.4,0.7,1.4,1.4c0,0.2-0.1,0.4-0.1,0.6
				l-14,28.3c0,0.1-0.1,0.1-0.1,0.1l-15.7,24.1c0,0.1-0.1,0.1-0.1,0.2l-38.5,41.6C25,152.5,24.6,152.6,24.2,152.6L24.2,152.6z"/>
			<path class="st1" d="M92.4,57.1l-14,28.3l-15.7,24.1l-38.5,41.6l-20-20l40.7-36.7c0,0,11.7-27.5,16.6-32.4
				C66,57.6,92.4,57.1,92.4,57.1 M92.4,54.2L92.4,54.2c-0.3,0-6.8,0.1-14,0.8c-13.8,1.3-17.4,3.5-18.9,5.1c-4.9,4.9-14.9,28-17,32.7
				L2.2,129c-1.2,1.1-1.3,2.9-0.2,4.1c0,0,0.1,0.1,0.1,0.1l20,20c0.5,0.5,1.3,0.8,2,0.8h0.1c0.8,0,1.5-0.4,2.1-0.9l38.5-41.6
				c0.1-0.1,0.2-0.2,0.3-0.4L80.8,87c0.1-0.1,0.1-0.2,0.2-0.3l14-28.3c0.7-1.4,0.1-3.2-1.3-3.9C93.3,54.3,92.8,54.2,92.4,54.2
				L92.4,54.2z"/>
			<g>
				<path class="st2" d="M80.2,81.8l12.2-24.7c0,0-12.5,0.2-21.7,1.9l-2.2,6c-0.2,0.6-0.1,1.3,0.3,1.8L80.2,81.8z"/>
			</g>
			<path class="st0" d="M78.5,97.9c-1.1,0-2.2-0.1-3.4-0.2c-0.5-0.1-1-0.4-1.2-0.9l-3.1-7.5c-0.3-0.6,0-1.3,0.5-1.7l10.6-7.4
				c0.2-0.2,0.5-0.3,0.8-0.3c0.1,0,0.2,0,0.3,0c0.4,0.1,0.7,0.3,0.9,0.6l3.8,5.5c0.2,0.3,0.3,0.6,0.2,1c-0.1,0.7-0.9,7.4-4,9.6
				C83,97.5,81.1,97.9,78.5,97.9z"/>
			<path class="st1" d="M82.8,81.4l3.8,5.5c0,0-0.7,6.7-3.4,8.6c-1,0.7-3,0.9-4.8,0.9c-1.1,0-2.1-0.1-3.2-0.2l-3.1-7.5L82.8,81.4
				 M82.7,78.6c-0.6,0-1.2,0.2-1.6,0.5l-10.6,7.4c-1.1,0.8-1.5,2.2-1,3.5l3.1,7.5c0.4,1,1.3,1.6,2.3,1.8c1.2,0.1,2.4,0.2,3.6,0.2
				c3,0,5.1-0.5,6.4-1.4c3.4-2.4,4.4-8.7,4.6-10.6c0.1-0.7-0.1-1.4-0.5-2l-3.8-5.5c-0.4-0.6-1.1-1.1-1.9-1.2
				C83.1,78.6,83,78.6,82.7,78.6L82.7,78.6z"/>
			<g>
				<path class="st2" d="M86.6,87c0,0-0.7,6.7-3.4,8.6c-2.1,1.4-8,0.7-8,0.7l-3.1-7.5l10.6-7.4L86.6,87z"/>
			</g>
			<path class="st0" d="M82.5,91c-0.5,0-0.9-0.2-1.2-0.7l-4.3-6.8c-0.4-0.6-0.3-1.3,0.2-1.8l9.1-9.1c0.6-0.6,1.5-0.6,2,0
				c0,0,0,0,0,0l4.8,4.8c0.2,0.2,0.4,0.6,0.4,0.9c0.1,0.8,0.4,7.5-2.2,10.1C89.2,90.5,83.6,90.9,82.5,91L82.5,91z"/>
			<path class="st1" d="M87.3,73.6l4.8,4.8c0,0,0.4,6.7-1.8,9c-1.8,1.8-7.7,2.1-7.7,2.1l-4.3-6.8L87.3,73.6 M87.3,70.8
				c-0.8,0-1.5,0.3-2,0.8l-9.1,9.1c-1,1-1.1,2.4-0.4,3.6l4.3,6.8c0.5,0.8,1.4,1.3,2.4,1.3h0.2c1.7-0.1,7.2-0.6,9.6-3
				c3-3,2.8-9.4,2.7-11.3c0-0.7-0.3-1.4-0.8-1.8l-4.8-4.8C88.8,71.1,88,70.8,87.3,70.8L87.3,70.8z"/>
			<g>
				<path class="st2" d="M92,78.4c0,0,0.4,6.7-1.8,9c-1.8,1.8-7.7,2.1-7.7,2.1l-4.3-6.8l9.1-9.1L92,78.4z"/>
			</g>
			<g>
				<polygon class="st2" points="19.1,146.1 59.1,111.2 62.7,109.6 24.2,151.2 				"/>
			</g>
			<path class="st3" d="M101.2,81.2c-0.3,0-0.5-0.1-0.7-0.2L74.5,65.4c-0.6-0.4-0.9-1.1-0.6-1.8c7.9-19.7,18.9-38.1,32.6-54.4
				c0.5-0.6,1.3-0.7,1.9-0.3l25.9,15.5c0.7,0.4,0.9,1.3,0.5,2c0,0.1-0.1,0.1-0.1,0.2c-13.5,16.1-24.3,34.2-32.1,53.7
				c-0.2,0.4-0.5,0.7-0.9,0.8C101.5,81.1,101.3,81.2,101.2,81.2z"/>
			<path class="st1" d="M107.6,10.1l25.9,15.5C120,41.9,109,60.1,101.2,79.7L75.2,64.2C83.1,44.6,94,26.4,107.6,10.1 M107.6,7.3
				c-0.9,0-1.7,0.4-2.2,1C91.6,24.7,80.6,43.2,72.6,63.1c-0.5,1.3,0,2.8,1.2,3.5l25.9,15.5c1.4,0.8,3.1,0.4,4-1
				c0.1-0.1,0.1-0.3,0.2-0.4c7.8-19.3,18.5-37.3,31.9-53.3c1-1.2,0.9-3-0.4-4.1c-0.1-0.1-0.2-0.2-0.4-0.3L109.1,7.7
				C108.6,7.4,108.1,7.3,107.6,7.3z"/>
			<path class="st4" d="M96.6,53.8c-4.5-2.7-7.4-7.3-7.6-11.7c-3,5.4-5.8,10.8-8.3,16.5c2.4,1.5,3.3,4.5,2.3,7.1l12.5,7.5
				c0.8-2.2,3.3-3.3,5.5-2.4c0.3,0.1,0.5,0.2,0.8,0.4c2.5-5.6,5.3-11.1,8.3-16.5C106.2,56.7,101.1,56.5,96.6,53.8z M96.4,63.8
				c-1,2-3.3,2.6-5.4,1.4c-2-1.2-3-3.8-2-5.8c0.9-2,3.4-2.6,5.4-1.4C96.5,59.2,97.4,61.8,96.4,63.8L96.4,63.8z"/>
			<path class="st4" d="M105.2,17.6c-3.8,4.9-7.3,9.9-10.6,15.1c4-1.9,9.3-1.5,13.9,1.2c4.6,2.7,7.1,7.1,7.2,11.4
				c3.3-5.2,6.8-10.2,10.6-15.1c-2-1.1-2.8-3.7-1.7-5.8c0.1-0.3,0.3-0.5,0.5-0.7l-12.5-7.5C110.8,18.4,107.7,19,105.2,17.6z
				 M117.2,29c-1.3,1.8-4,2.2-6.1,1s-2.7-3.7-1.3-5.4c1.3-1.8,4.1-2.2,6.1-1S118.5,27.2,117.2,29L117.2,29z"/>
			<path class="st4" d="M105.1,42.9c-0.6-0.4-1.3,0.1-2.2,1.3c-1.6,2.1-3,3.6-5.8,2.2c-1.7-1-2.3-2.8-1.4-5l-1.3-0.7
				c0.5-0.8,1-1.6,1.5-2.4l1.2,0.7c0.9-1.1,2.4-1.7,3.8-1.5c0.1,0,0.1,0,0.2,0l0.5,0.1c-0.1,1-0.3,2-0.4,3l-0.7,0
				c-0.8-0.1-1.6,0.3-1.9,1.1c-0.7,1.2-0.7,1.8,0,2.2c0.6,0.4,1.2-0.2,2.1-1.4c1.5-2,3.2-3.6,5.9-2.1c1.7,1,2.2,2.9,1.4,5.1l1.3,0.8
				c-0.5,0.8-1,1.6-1.4,2.4l-1.3-0.8c-1.2,1.4-2.6,2-4.2,1.8l-0.6-0.1c0.2-1,0.4-2,0.6-3l0.6,0.1c0.8,0.1,1.5-0.3,2-1.2
				C105.8,44.2,105.8,43.4,105.1,42.9z"/>
			<path class="st3" d="M99.6,86.7c-0.3,0-0.7-0.1-0.9-0.3L74.5,65.7c-0.5-0.5-0.7-1.2-0.3-1.8c11.7-19.1,26.4-36.2,43.4-50.7
				c0.3-0.2,0.6-0.3,0.9-0.3c0.3,0,0.7,0.1,0.9,0.3l24.2,20.7c0.3,0.3,0.5,0.7,0.5,1.1c0,0.4-0.2,0.8-0.5,1.1
				c-16.8,14.3-31.3,31.2-42.8,50c-0.2,0.4-0.6,0.6-1,0.7C99.8,86.7,99.7,86.7,99.6,86.7z"/>
			<path class="st1" d="M118.6,14.2l24.2,20.7c-16.9,14.4-31.5,31.4-43.1,50.4L75.5,64.6C87.1,45.6,101.7,28.6,118.6,14.2
				 M118.6,11.3c-0.7,0-1.3,0.2-1.9,0.7C99.6,26.6,84.8,43.9,73,63.1c-0.7,1.2-0.5,2.8,0.6,3.7l24.2,20.7c0.5,0.4,1.2,0.7,1.9,0.7
				c0.2,0,0.3,0,0.5,0c0.8-0.1,1.6-0.6,2-1.3c11.5-18.7,25.8-35.5,42.5-49.7c1.2-1,1.4-2.9,0.3-4.1c-0.1-0.1-0.2-0.2-0.3-0.3
				L120.5,12C119.9,11.6,119.3,11.3,118.6,11.3z"/>
			<path class="st4" d="M99.4,57.6c-4.2-3.6-6.4-8.9-5.8-13.5c-4.1,5-7.9,10.2-11.5,15.6c2.2,2,2.7,5.3,1.1,7.8l11.7,10
				c1.3-2.1,4-2.8,6.1-1.6c0.3,0.2,0.5,0.3,0.7,0.5c3.6-5.4,7.4-10.6,11.5-15.6C108.9,62.3,103.7,61.2,99.4,57.6z M97.5,67.9
				c-1.3,1.9-3.9,2.2-5.8,0.5s-2.4-4.5-1.1-6.4c1.3-1.9,4-2.1,5.9-0.5C98.4,63.1,98.8,66,97.5,67.9L97.5,67.9z"/>
			<path class="st4" d="M114.8,21.5c-4.8,4.4-9.3,9-13.7,13.8c4.5-1.2,10,0,14.2,3.7c4.2,3.6,6.1,8.6,5.4,13.1
				c4.3-4.8,8.9-9.4,13.7-13.8c-1.9-1.5-2.2-4.3-0.7-6.3c0.2-0.2,0.4-0.5,0.6-0.6l-11.7-10C120.4,23.3,117.1,23.4,114.8,21.5z
				 M125.3,35.5c-1.7,1.6-4.6,1.6-6.5,0s-2.1-4.3-0.4-5.9s4.6-1.6,6.5,0.1C126.8,31.3,126.9,33.9,125.3,35.5z"/>
			<path class="st4" d="M110.2,47.8c-0.6-0.5-1.3-0.1-2.5,1c-2,1.9-3.8,3.2-6.4,1.2c-1.6-1.4-1.8-3.3-0.5-5.5l-1.2-1
				c0.6-0.8,1.3-1.5,1.9-2.3l1.2,1c1.2-1,2.8-1.4,4.3-0.9c0.1,0,0.1,0,0.2,0l0.5,0.1c-0.3,1-0.6,2-1,3l-0.6-0.1
				c-0.8-0.2-1.5-0.1-2.2,0.8c-0.9,1.1-1.1,1.7-0.4,2.3c0.6,0.5,1.3,0,2.4-1c1.9-1.8,4-3.2,6.4-1.1c1.6,1.4,1.8,3.4,0.5,5.5l1.2,1
				c-0.7,0.8-1.3,1.5-1.9,2.3l-1.2-1c-1.5,1.3-3,1.7-4.7,1.1l-0.6-0.2c0.4-1,0.7-2,1.1-3l0.6,0.2c0.8,0.3,1.6,0,2.3-0.9
				C110.7,49.2,110.9,48.4,110.2,47.8z"/>
			<path class="st3" d="M95.5,92.5c-0.4,0-0.8-0.2-1.1-0.6L74.1,65.3c-0.4-0.6-0.4-1.3,0.1-1.9c16.2-17.1,35.1-31.5,55.8-42.6
				c0.6-0.3,1.4-0.2,1.8,0.4l20.3,26.6c0.5,0.6,0.4,1.5-0.3,2c-0.1,0-0.1,0.1-0.2,0.1C131.3,61,112.7,75.2,96.6,92
				C96.4,92.3,96,92.5,95.5,92.5L95.5,92.5z"/>
			<path class="st1" d="M130.8,22.1l20.3,26.6C130.5,59.8,111.8,74.1,95.6,91L75.3,64.4C91.4,47.5,110.2,33.2,130.8,22.1
				 M130.8,19.2c-0.5,0-0.9,0.1-1.4,0.3c-20.9,11.3-39.8,25.7-56.2,42.9c-1,1-1.1,2.6-0.2,3.7l20.3,26.6c0.5,0.7,1.3,1.1,2.1,1.1
				h0.2c0.8,0,1.5-0.3,2.1-0.9c15.9-16.7,34.4-30.8,54.7-41.8c1.4-0.8,1.9-2.5,1.2-3.9c-0.1-0.1-0.2-0.3-0.2-0.4l-13-17l-7.3-9.6
				C132.5,19.6,131.7,19.2,130.8,19.2L130.8,19.2z"/>
			<path class="st4" d="M101.5,62.5c-3.6-4.7-4.6-10.6-3-15.2c-5.3,4.3-10.4,8.8-15.3,13.6c1.8,2.5,1.6,6-0.6,8.3L92.4,82
				c1.8-1.9,4.7-2,6.6-0.2c0.2,0.2,0.4,0.5,0.6,0.7c4.9-4.8,10-9.3,15.3-13.6C110.3,69.4,105.1,67.2,101.5,62.5z M97.3,72.7
				c-1.8,1.7-4.5,1.4-6.1-0.7c-1.6-2.1-1.5-5.2,0.3-6.9c1.8-1.7,4.6-1.3,6.2,0.8C99.3,68,99.1,71,97.3,72.7z"/>
			<path class="st4" d="M125.3,28.7c-5.9,3.5-11.6,7.2-17.1,11.2c4.9-0.3,10.2,2.2,13.8,6.9c3.6,4.7,4.4,10.3,2.7,14.7
				c5.5-4,11.2-7.7,17.1-11.2c-1.6-2-1.4-5,0.7-6.6c0.2-0.2,0.5-0.4,0.8-0.5l-9.8-12.8C130.7,31.9,127.3,31.2,125.3,28.7z M133,45.4
				c-2.1,1.3-5,0.7-6.6-1.4c-1.6-2.1-1.2-4.9,0.8-6.1c2.1-1.3,5.1-0.6,6.7,1.5S135,44.2,133,45.4L133,45.4z"/>
			<path class="st4" d="M114.7,54.8c-0.5-0.7-1.3-0.4-2.8,0.5c-2.5,1.5-4.6,2.5-6.9-0.2c-1.3-1.7-1.2-3.8,0.6-5.8l-1-1.3
				c0.8-0.6,1.7-1.3,2.5-1.9l1,1.3c1.4-0.8,3.1-0.8,4.6,0c0.1,0,0.1,0,0.2,0.1l0.5,0.2c-0.6,1-1.1,1.9-1.6,2.9l-0.6-0.3
				c-0.8-0.4-1.5-0.4-2.4,0.3c-1.2,0.9-1.5,1.5-1,2.3c0.5,0.6,1.3,0.3,2.7-0.5c2.4-1.4,4.8-2.4,6.9,0.3c1.4,1.8,1.1,3.9-0.7,5.8
				l1,1.3c-0.8,0.6-1.7,1.3-2.5,1.9l-1-1.3c-1.8,1-3.5,1-5,0.1l-0.6-0.4c0.6-1,1.2-1.9,1.8-2.8l0.6,0.3c0.8,0.5,1.7,0.3,2.6-0.4
				C114.9,56.3,115.3,55.5,114.7,54.8z"/>
			<path class="st0" d="M59.1,111.2C78,108,79.6,97.4,80.8,91.6l17.5-21.4c2.6-3.3,2-8.2-1.3-10.8c-3.2-2.5-7.9-2.1-10.6,1.1
				l-15,18.3c0,0-3.8,0.5-6.1,2.2"/>
			<path class="st1" d="M59.1,112.6c-0.8,0.1-1.5-0.5-1.6-1.3s0.5-1.5,1.3-1.6c17.3-2.9,19.2-11.9,20.4-17.8l0.1-0.7
				c0-0.2,0.1-0.4,0.3-0.6l17.5-21.4c2.2-2.6,1.9-6.6-0.7-8.8s-6.6-1.9-8.8,0.7c-0.1,0.1-0.1,0.1-0.2,0.2l-15,18.3
				c-0.2,0.3-0.6,0.5-0.9,0.5c0,0-3.5,0.5-5.5,1.9c-0.7,0.5-1.6,0.3-2-0.4c-0.4-0.6-0.3-1.5,0.3-2c2-1.4,5-2.1,6.2-2.3l14.7-17.9
				c3.3-3.8,9-4.3,12.9-1c3.7,3.2,4.3,8.7,1.3,12.5L82.2,92.2l-0.1,0.3c-1.2,5.9-3.6,16.8-22.8,20C59.3,112.6,59.2,112.6,59.1,112.6
				z"/>
			<g class="st5">
				<path class="st6" d="M86.2,65.6L89,62c1.8-1.8,4.7-1.7,6.5,0.1c1.8,1.8,1.7,4.7-0.1,6.5l0,0L93,71.5
					C89.9,70.3,87.4,68.6,86.2,65.6z"/>
			</g>
			<path class="st7" d="M92.6,71.3c0.9-2.2-0.1-4.8-2.4-5.7c-1.3-0.5-2.7-0.4-3.9,0.3C87.5,68.6,89.8,70.2,92.6,71.3z"/>
			<path class="st0" d="M66.1,75.2c3.2-0.5,6.2,1.7,6.2,1.7"/>
			<path class="st1" d="M72.3,78.3c-0.3,0-0.6-0.1-0.8-0.3c0,0-2.6-1.8-5.2-1.4c-0.8,0.1-1.5-0.4-1.6-1.2c-0.1-0.8,0.4-1.5,1.2-1.6
				c3.8-0.5,7.1,1.8,7.3,1.9c0.6,0.5,0.8,1.4,0.3,2C73.2,78.1,72.8,78.3,72.3,78.3L72.3,78.3z"/>
			<path class="st0" d="M82.4,71.9c0,0,1.6,2,5.2,4.1"/>
			<path class="st1" d="M87.7,77c-0.2,0-0.3,0-0.5-0.1c-3.8-2.2-5.4-4.2-5.5-4.3c-0.3-0.4-0.3-1,0.1-1.4c0.4-0.3,1-0.3,1.4,0.1l0,0
				c0,0,1.5,1.9,5,3.9c0.5,0.3,0.6,0.9,0.3,1.3c0,0,0,0,0,0C88.3,76.8,88,77,87.7,77z"/>
		</g>
	</g>
</g>
<g>
	<g id="Layer_2_2_">
		<g id="Layer_1-2_1_">
			<path class="st8" d="M294.8,152.4c-0.4,0-0.8-0.2-1-0.5l-38.5-41.6c-0.1-0.1-0.1-0.1-0.1-0.2l-15.7-24.1c0,0-0.1-0.1-0.1-0.1
				l-14-28.3c-0.4-0.7-0.1-1.6,0.7-1.9c0.2-0.1,0.4-0.1,0.6-0.1h0c0.1,0,6.7,0.1,13.9,0.8c14.8,1.4,17.2,3.8,18,4.6
				c4.8,4.8,15.4,29.4,16.8,32.5l40.5,36.4c0.3,0.3,0.5,0.6,0.5,1c0,0.4-0.1,0.8-0.4,1.1l-20,20
				C295.6,152.2,295.3,152.4,294.8,152.4L294.8,152.4z"/>
			<path class="st1" d="M226.6,56.8c0,0,26.4,0.5,30.9,5c4.9,4.9,16.6,32.4,16.6,32.4l40.7,36.6l-20,20l-38.5-41.6l-15.7-24.1
				L226.6,56.8 M226.7,54c-1.6,0-2.9,1.3-2.9,2.9c0,0.4,0.1,0.9,0.3,1.3l14,28.3c0,0.1,0.1,0.2,0.2,0.3l15.7,24.1
				c0.1,0.1,0.2,0.3,0.3,0.4l38.5,41.6c0.5,0.6,1.3,0.9,2.1,0.9h0.1c0.8,0,1.5-0.3,2-0.8l20-20c1.1-1.1,1.1-2.9,0-4.1
				c0,0-0.1-0.1-0.1-0.1l-40.3-36.2c-2-4.7-12.1-27.8-17-32.7c-1.5-1.5-5.2-3.7-18.9-5.1C233.5,54.1,227,54,226.7,54L226.7,54z"/>
			<path class="st9" d="M235.8,82.5l-9.2-25.7c0,0,14.2,0.3,23.5,2.2l1.2,5.3c0.1,0.6,0,1.3-0.5,1.7L235.8,82.5z"/>
			<path class="st8" d="M240.6,97.6c-2.6,0-4.5-0.4-5.6-1.2c-3.1-2.2-3.9-8.8-4-9.6l-0.1-0.5l5-7.2l12.7,8.9l-3.8,9.3l-0.8,0.1
				C242.8,97.6,241.7,97.6,240.6,97.6L240.6,97.6z"/>
			<path class="st1" d="M236.3,81.2l10.6,7.4l-3.1,7.5c-1.1,0.1-2.1,0.2-3.2,0.2c-1.7,0-3.7-0.2-4.8-0.9c-2.6-1.9-3.4-8.6-3.4-8.6
				L236.3,81.2 M235.5,77.2l-1.6,2.4l-3.8,5.5l-0.6,0.9l0.1,1.1c0.2,1.9,1.1,8.2,4.6,10.6c1.4,1,3.5,1.4,6.4,1.4
				c1.2,0,2.4-0.1,3.6-0.2l1.7-0.2l0.6-1.6l3.1-7.5l0.9-2.1l-1.9-1.3l-10.6-7.4L235.5,77.2L235.5,77.2z"/>
			<path class="st9" d="M232.4,86.7c0,0,0.7,6.7,3.4,8.6c2.1,1.4,8,0.7,8,0.7l3.1-7.5l-10.6-7.4L232.4,86.7z"/>
			<path class="st8" d="M236.5,90.7c-1.1-0.1-6.6-0.5-8.6-2.5c-2.7-2.7-2.3-9.4-2.2-10.1l0-0.5l6.2-6.2l11,11l-5.4,8.5L236.5,90.7z"
				/>
			<path class="st1" d="M231.8,73.4l9.1,9.1l-4.3,6.8c0,0-5.9-0.3-7.7-2.1c-2.3-2.3-1.8-9-1.8-9L231.8,73.4 M231.8,69.3l-2,2
				l-4.8,4.8l-0.8,0.8l-0.1,1.1c-0.1,1.9-0.3,8.3,2.7,11.3c2.4,2.4,8,2.9,9.6,3l1.7,0.1l0.9-1.4l4.3-6.8l1.3-2l-1.6-1.7l-9.1-9.1
				L231.8,69.3L231.8,69.3z"/>
			<path class="st9" d="M227,78.2c0,0-0.5,6.7,1.8,9c1.8,1.8,7.7,2.1,7.7,2.1l4.3-6.8l-9.1-9.1L227,78.2z"/>
			<polygon class="st9" points="299.9,145.8 259.9,110.9 256.3,109.3 294.8,150.9 			"/>
			<path class="st3" d="M216.9,78.2c-0.2,0-0.4,0-0.6-0.1c-0.4-0.2-0.7-0.5-0.8-0.9c-6-20.1-15.2-39.1-27.1-56.4
				c-0.5-0.7-0.3-1.6,0.4-2c0.1,0,0.1-0.1,0.2-0.1l27.2-13.1c0.6-0.3,1.4-0.1,1.8,0.5c12.1,17.5,21.4,36.8,27.5,57.2
				c0.2,0.7-0.1,1.4-0.8,1.7L217.5,78C217.3,78.1,217.1,78.2,216.9,78.2z"/>
			<path class="st1" d="M216.8,6.9c12,17.4,21.3,36.5,27.3,56.8l-27.2,13.1c-6.1-20.2-15.3-39.4-27.3-56.8L216.8,6.9 M216.8,4
				c-0.4,0-0.9,0.1-1.2,0.3l-27.2,13.1c-1.4,0.7-2,2.4-1.3,3.8c0.1,0.1,0.1,0.3,0.2,0.4c11.9,17.1,20.9,36,26.9,55.9
				c0.4,1.2,1.5,2.1,2.8,2.1c0.4,0,0.9-0.1,1.2-0.3l12.8-6.2l14.4-6.9c1.3-0.6,1.9-2.1,1.5-3.4c-6.1-20.5-15.5-40-27.7-57.6
				C218.6,4.5,217.8,4,216.8,4z"/>
			<path class="st4" d="M213.7,30.4c4.8-2.3,10.2-2.1,13.9,0.1c-2.8-5.5-5.9-10.8-9.2-16c-2.6,1.1-5.6,0.3-7.2-2l-13.2,6.3
				c1.4,1.9,0.9,4.6-1,5.9c-0.2,0.2-0.5,0.3-0.7,0.4c3.3,5.2,6.4,10.5,9.2,16C206,36.9,209,32.7,213.7,30.4z M205.5,24.8
				c-1.2-1.9-0.4-4.2,1.8-5.3c2.1-1.1,4.9-0.4,6,1.5c1.1,1.9,0.3,4.3-1.8,5.3C209.3,27.3,206.6,26.7,205.5,24.8z"/>
			<path class="st4" d="M239.2,57.6c-2-5.8-4.3-11.5-6.8-17.2c-0.6,4.3-3.8,8.6-8.6,11c-4.8,2.3-9.9,2-13.5-0.3
				c2.5,5.6,4.8,11.3,6.8,17.2c2.1-1.1,4.6-0.3,5.7,1.8c0.1,0.3,0.2,0.5,0.3,0.8l13.1-6.3C235.5,61.8,236.7,58.9,239.2,57.6z
				 M223.1,61.3c-0.8-2.1,0.3-4.6,2.5-5.6c2.1-1,4.5-0.2,5.3,1.9c0.7,2.1-0.4,4.6-2.6,5.6C226.1,64.2,223.8,63.4,223.1,61.3z"/>
			<path class="st4" d="M218.1,43.5c0.7-0.3,0.6-1.1,0.1-2.5c-0.9-2.5-1.4-4.5,1.4-6c1.8-0.9,3.6-0.3,5,1.6l1.3-0.6
				c0.4,0.8,0.8,1.7,1.2,2.6l-1.3,0.6c0.4,1.4,0.1,2.9-0.8,4c0,0.1-0.1,0.1-0.1,0.1c-0.1,0.1-0.2,0.2-0.3,0.4
				c-0.8-0.7-1.5-1.3-2.3-2l0.4-0.5c0.5-0.6,0.6-1.5,0.2-2.2c-0.6-1.2-1.1-1.6-1.8-1.2c-0.6,0.3-0.5,1.1,0,2.5
				c0.8,2.4,1.3,4.7-1.5,6c-1.8,0.9-3.6,0.3-5-1.7l-1.4,0.7c-0.4-0.9-0.8-1.7-1.2-2.6l1.3-0.6c-0.6-1.8-0.3-3.3,0.8-4.5l0.4-0.4
				c0.7,0.7,1.4,1.4,2.2,2.1l-0.4,0.4c-0.6,0.6-0.6,1.4-0.1,2.4C216.7,43.4,217.4,43.8,218.1,43.5z"/>
			<path class="st3" d="M219.1,84.8c-0.1,0-0.2,0-0.3,0c-0.4-0.1-0.8-0.3-1-0.7c-10.9-19.2-24.7-36.6-41-51.6
				c-0.6-0.5-0.6-1.4-0.1-2c0.1-0.1,0.1-0.1,0.2-0.2l24.9-19.8c0.6-0.4,1.3-0.4,1.9,0.1c16.5,15.1,30.5,32.8,41.5,52.3
				c0.3,0.6,0.2,1.4-0.4,1.8L220,84.4C219.7,84.6,219.4,84.8,219.1,84.8z"/>
			<path class="st1" d="M202.8,11.6c16.4,15,30.3,32.6,41.2,51.9l-24.9,19.8c-10.9-19.4-24.8-36.9-41.2-51.9L202.8,11.6 M202.8,8.7
				c-0.7,0-1.3,0.2-1.8,0.6L176,29.1c-1.2,1-1.5,2.8-0.5,4c0.1,0.1,0.2,0.2,0.3,0.3c16.2,14.8,29.9,32.1,40.7,51.2
				c0.4,0.7,1.1,1.2,2,1.4c0.2,0,0.4,0.1,0.6,0.1c0.7,0,1.3-0.2,1.8-0.6l11.7-9.3l13.3-10.5c1.1-0.9,1.4-2.4,0.7-3.7
				c-11.1-19.6-25.2-37.4-41.8-52.6C204.2,9,203.5,8.7,202.8,8.7z"/>
			<path class="st4" d="M205.1,36.5c4.4-3.5,9.9-4.6,14.3-3.2c-4.2-5-8.5-9.7-13.1-14.3c-2.4,1.8-5.7,1.6-7.9-0.4l-12,9.5
				c1.8,1.6,2,4.5,0.4,6.3c-0.2,0.2-0.4,0.4-0.7,0.6c4.6,4.6,9,9.3,13.2,14.3C198.6,44.9,200.7,39.9,205.1,36.5z M195.3,32.6
				c-1.6-1.7-1.3-4.2,0.6-5.8c1.9-1.6,4.9-1.5,6.5,0.2c1.6,1.7,1.3,4.3-0.6,5.9C199.8,34.4,196.9,34.3,195.3,32.6z"/>
			<path class="st4" d="M237.5,58.4c-3.4-5.5-7-10.9-10.9-16c0.4,4.6-1.9,9.8-6.3,13.2c-4.4,3.5-9.7,4.3-13.9,2.8
				c3.9,5.2,7.5,10.5,11,16c1.9-1.6,4.7-1.4,6.3,0.5c0.2,0.2,0.4,0.5,0.5,0.7l12-9.5C234.7,63.6,235.3,60.4,237.5,58.4z M221.8,66
				c-1.3-2-0.7-4.8,1.2-6.3c2-1.6,4.6-1.3,5.9,0.7c1.3,2,0.6,4.8-1.3,6.4S223.1,68,221.8,66z"/>
			<path class="st4" d="M212.6,48.9c0.6-0.5,0.4-1.3-0.5-2.6c-1.4-2.3-2.4-4.4,0-6.5c1.6-1.3,3.6-1.2,5.5,0.5l1.2-1
				c0.6,0.8,1.2,1.6,1.9,2.3l-1.2,1c0.8,1.3,0.8,3,0.1,4.3c0,0.1,0,0.1-0.1,0.2c-0.1,0.1-0.1,0.3-0.2,0.4c-0.9-0.5-1.9-1-2.8-1.5
				c0.1-0.2,0.2-0.4,0.3-0.6c0.4-0.8,0.3-1.4-0.3-2.3c-0.9-1.1-1.5-1.4-2.2-0.9c-0.6,0.5-0.3,1.3,0.6,2.6c1.4,2.2,2.4,4.5-0.2,6.5
				c-1.7,1.3-3.7,1.1-5.5-0.5l-1.2,1c-0.6-0.8-1.3-1.6-1.9-2.3l1.2-1c-1-1.7-1-3.3-0.2-4.8l0.3-0.5c0.9,0.5,1.8,1.1,2.7,1.7
				l-0.3,0.6c-0.4,0.8-0.3,1.6,0.4,2.5C211.2,49.1,211.9,49.4,212.6,48.9z"/>
			<path class="st3" d="M221.9,90.8c-0.4,0-0.8-0.2-1.1-0.5c-14.8-17.9-32.4-33.4-52.1-45.8c-0.7-0.4-0.9-1.3-0.4-2
				c0-0.1,0.1-0.1,0.1-0.2l22.1-25.2c0.3-0.3,0.7-0.5,1.1-0.5c0.3,0,0.5,0.1,0.8,0.2c19.9,12.6,37.7,28.2,52.8,46.4
				c0.5,0.5,0.4,1.3,0,1.9L223,90.3C222.7,90.6,222.3,90.8,221.9,90.8L221.9,90.8z"/>
			<path class="st1" d="M191.6,18.1c19.8,12.5,37.5,28.1,52.4,46.1l-22.1,25.2c-14.9-18-32.6-33.6-52.4-46.1L191.6,18.1 M191.6,15.2
				c-0.8,0-1.6,0.3-2.2,1l-22.1,25.2c-1,1.2-0.9,3,0.3,4.1c0.1,0.1,0.2,0.2,0.3,0.3c19.5,12.4,37,27.7,51.7,45.5
				c0.5,0.6,1.3,1,2.2,1h0c0.8,0,1.6-0.3,2.2-1l22.1-25.2c0.9-1.1,1-2.6,0.1-3.7c-15.1-18.3-33.1-34-53.1-46.7
				C192.7,15.4,192.1,15.2,191.6,15.2z"/>
			<path class="st4" d="M198.6,43.4c3.9-4.4,9.4-6.6,14.3-5.9c-5.2-4.4-10.7-8.5-16.3-12.3c-2.1,2.3-5.6,2.7-8.2,1.1l-10.7,12.1
				c2.2,1.4,2.9,4.3,1.5,6.5c-0.2,0.3-0.3,0.5-0.6,0.7c5.6,3.9,11.1,8,16.3,12.3C193.5,53.4,194.7,47.8,198.6,43.4z M187.8,41.3
				c-2-1.4-2.2-4.1-0.5-6.1c1.7-2,4.8-2.5,6.8-1.1c2,1.4,2.2,4.2,0.4,6.2S189.8,42.7,187.8,41.3z"/>
			<path class="st4" d="M236.4,60.1c-4.6-5.1-9.3-9.9-14.3-14.6c1.2,4.7-0.2,10.5-4.1,14.9c-3.9,4.4-9.2,6.3-13.9,5.5
				c5,4.6,9.8,9.5,14.3,14.6c1.6-2,4.6-2.3,6.6-0.6c0.2,0.2,0.5,0.4,0.7,0.7l10.7-12.1C234.4,66,234.4,62.5,236.4,60.1z M221.5,70.9
				c-1.7-1.8-1.6-4.8,0.1-6.8c1.7-2,4.5-2.2,6.2-0.4s1.6,4.9-0.2,6.9C225.9,72.6,223.2,72.7,221.5,70.9L221.5,70.9z"/>
			<path class="st4" d="M208.8,54.9c0.6-0.6,0.1-1.4-1-2.6c-1.9-2.2-3.4-4.1-1.2-6.8c1.4-1.7,3.5-1.9,5.8-0.5l1.1-1.2
				c0.8,0.7,1.6,1.4,2.4,2.1l-1.1,1.2c1.1,1.2,1.4,2.9,0.9,4.5c0,0.1,0,0.1,0,0.2c-0.1,0.2-0.1,0.3-0.1,0.5c-1.1-0.4-2.1-0.7-3.2-1
				c0.1-0.2,0.1-0.4,0.2-0.7c0.2-0.9,0.1-1.6-0.8-2.3c-1.1-1-1.8-1.2-2.4-0.5c-0.5,0.6,0,1.4,1.1,2.6c1.9,2.1,3.3,4.2,1.1,6.8
				c-1.5,1.7-3.6,1.8-5.8,0.5l-1.1,1.3c-0.8-0.7-1.6-1.4-2.4-2.1l1.1-1.2c-1.3-1.6-1.7-3.2-1.1-4.9c0.1-0.2,0.2-0.4,0.2-0.6
				c1,0.4,2.1,0.8,3.1,1.2c-0.1,0.2-0.1,0.4-0.2,0.6c-0.3,0.9,0,1.7,0.9,2.5C207.3,55.4,208.2,55.6,208.8,54.9z"/>
			<path class="st8" d="M259.9,110.9c-18.9-3.2-20.5-13.7-21.7-19.6L220.7,70c-2.7-3.3-2.2-8.1,1.1-10.8s8.1-2.2,10.8,1.1l15,18.3
				c0,0,3.8,0.5,6.1,2.2"/>
			<path class="st1" d="M259.9,112.3c-0.1,0-0.2,0-0.2,0c-19.2-3.3-21.5-14.2-22.8-20l-0.1-0.3l-17.3-21.1
				c-3.2-3.9-2.6-9.6,1.3-12.8c0,0,0,0,0,0c3.9-3.2,9.6-2.6,12.8,1.3c0,0,0,0,0,0l14.7,17.9c1.2,0.2,4.2,0.9,6.2,2.3
				c0.7,0.5,0.8,1.4,0.4,2c-0.5,0.7-1.4,0.8-2,0.4c0,0,0,0,0,0c-2-1.4-5.4-1.9-5.5-1.9c-0.4-0.1-0.7-0.2-0.9-0.5l-15-18.3
				c-2.2-2.7-6.1-3.1-8.8-0.9c-2.7,2.2-3.1,6.1-0.9,8.8l17.5,21.4c0.1,0.2,0.2,0.4,0.3,0.6l0.1,0.7c1.2,5.9,3.2,14.9,20.4,17.8
				c0.8,0.1,1.3,0.9,1.2,1.7C261.2,111.8,260.6,112.3,259.9,112.3L259.9,112.3z"/>
			<g class="st10">
				<path class="st7" d="M232.9,65.3l-2.9-3.6c-1.8-1.8-4.7-1.7-6.5,0.1c-1.8,1.8-1.7,4.7,0.1,6.5l0,0l2.5,2.9
					C229.1,70,231.6,68.3,232.9,65.3z"/>
			</g>
			<g>
				<path class="st7" d="M226.4,71.1c-0.9-2.2,0.2-4.8,2.4-5.7c1.3-0.5,2.7-0.4,3.9,0.3C231.5,68.3,229.2,69.9,226.4,71.1z"/>
			</g>
			<path class="st0" d="M252.9,74.9c-3.2-0.5-6.2,1.7-6.2,1.7"/>
			<path class="st1" d="M246.7,78c-0.8,0-1.4-0.6-1.4-1.4c0-0.5,0.2-0.9,0.6-1.2c0.1-0.1,3.5-2.4,7.3-1.9c0.8,0.1,1.3,0.8,1.2,1.6
				c-0.1,0.8-0.8,1.3-1.6,1.2c-2.6-0.4-5.2,1.4-5.2,1.4C247.3,77.9,247,78,246.7,78z"/>
			<path class="st0" d="M236.6,71.7c0,0-1.6,2-5.2,4.1"/>
			<path class="st1" d="M231.4,76.7c-0.5,0-1-0.4-1-1c0-0.3,0.2-0.6,0.5-0.8c3.4-2,5-3.8,5-3.9c0.3-0.4,0.9-0.5,1.4-0.1c0,0,0,0,0,0
				c0.4,0.3,0.5,0.9,0.1,1.3c-0.1,0.1-1.7,2.1-5.5,4.3C231.7,76.7,231.6,76.7,231.4,76.7z"/>
		</g>
	</g>
</g>
</svg>
