<?xml version="1.0" encoding="utf-8"?>
<!-- Generator: Adobe Illustrator 26.0.2, SVG Export Plug-In . SVG Version: 6.00 Build 0)  -->
<svg version="1.1" id="seo-agency-illustration-02" xmlns="http://www.w3.org/2000/svg" xmlns:xlink="http://www.w3.org/1999/xlink"
	 x="0px" y="0px" viewBox="0 0 400 400" style="enable-background:new 0 0 400 400;" xml:space="preserve">
<style type="text/css">
	.st0{fill:#FFFFFF;}
	.st1{fill:#515979;}
	.st2{fill:#D8EBFB;}
	.st3{fill:#FDE1D9;}
	.st4{fill:#FFE8A0;}
	.st5{fill:#7DDF96;}
	.st6{fill:#FFEBEB;}
	.st7{fill:#FFD886;}
	.st8{fill:#FBB040;}
	.st9{fill:#75A5C3;}
	.st10{fill:#EF7D7D;}
	.st11{fill:none;}
</style>
<g>
	<g>
		<g>
			<path class="st0" d="M105.33,330.67c-5.15,0-9.33-4.19-9.33-9.33V78.67c0-5.15,4.19-9.33,9.33-9.33H268
				c1.06,0,2.08,0.42,2.83,1.17l32,32c0.75,0.75,1.17,1.77,1.17,2.83v216c0,5.15-4.19,9.33-9.33,9.33H105.33z"/>
		</g>
		<g>
			<path class="st1" d="M268,73.33l32,32v216c0,2.95-2.39,5.33-5.33,5.33H105.33c-2.95,0-5.33-2.39-5.33-5.33V78.67
				c0-2.95,2.39-5.33,5.33-5.33H268 M268,65.33H105.33C97.98,65.33,92,71.31,92,78.67v242.67c0,7.35,5.98,13.33,13.33,13.33h189.33
				c7.35,0,13.33-5.98,13.33-13.33v-216c0-2.12-0.84-4.16-2.34-5.66l-32-32C272.16,66.18,270.12,65.33,268,65.33L268,65.33z"/>
		</g>
	</g>
	<g>
		<g>
			<path class="st2" d="M274.4,109.33c-5.73,0-10.4-4.67-10.4-10.4v-25.6c0-1.62,0.97-3.08,2.47-3.7c0.49-0.21,1.02-0.3,1.53-0.3
				c1.04,0,2.07,0.41,2.83,1.17l32,32c1.14,1.14,1.49,2.86,0.87,4.36c-0.62,1.49-2.08,2.47-3.7,2.47H274.4z"/>
		</g>
		<g>
			<path class="st1" d="M268,73.33l32,32h-25.6c-3.53,0-6.4-2.87-6.4-6.4V73.33 M268,65.33c-1.03,0-2.07,0.2-3.06,0.61
				c-2.99,1.24-4.94,4.16-4.94,7.39v25.6c0,7.94,6.46,14.4,14.4,14.4H300c3.24,0,6.15-1.95,7.39-4.94c1.24-2.99,0.55-6.43-1.73-8.72
				l-32-32C272.13,66.15,270.08,65.33,268,65.33L268,65.33z"/>
		</g>
	</g>
	<g>
		<path class="st1" d="M212.19,111.38c4.9-4.15,12.66-4.91,17.98-1.06c2.44,1.74,6.53,6.37,2.72,8.53
			c-0.98,0.47-1.99,0.22-2.85-0.28c-4.15-2.57-8.35-3.34-13.15-2.69c-1.03,0.09-2.01,0.24-2.98,0.19
			C211.47,116.11,210.33,112.89,212.19,111.38L212.19,111.38z"/>
	</g>
	<g>
		<path class="st1" d="M185.28,116.07c-3.87-0.37-8.02-0.86-11.66,0.68c-1.27,0.43-2.68,1.36-4.16,2.06
			c-2.24,1.17-4.76-1.33-3.67-3.57c2.54-6.18,10.5-8.8,16.6-6.76c2.6,0.86,8.26,3.12,5.73,6.65
			C187.4,116.02,186.3,116.12,185.28,116.07L185.28,116.07z"/>
	</g>
	<g>
		<circle class="st3" cx="149.33" cy="140.67" r="3.33"/>
	</g>
	<g>
		<circle class="st3" cx="156.67" cy="155.33" r="3.33"/>
	</g>
	<g>
		<circle class="st3" cx="142" cy="155.33" r="3.33"/>
	</g>
	<g>
		<circle class="st3" cx="250.67" cy="140.67" r="3.33"/>
	</g>
	<g>
		<circle class="st3" cx="258" cy="155.33" r="3.33"/>
	</g>
	<g>
		<circle class="st3" cx="243.33" cy="155.33" r="3.33"/>
	</g>
	<g>
		<g>
			<path class="st1" d="M213.33,239.33c-0.89,0-1.79-0.36-2.44-1.07l-17.33-18.67c-1.25-1.35-1.17-3.46,0.17-4.71
				c1.35-1.25,3.46-1.17,4.71,0.17l17.33,18.67c1.25,1.35,1.17,3.46-0.17,4.71C214.96,239.04,214.15,239.33,213.33,239.33z"/>
		</g>
		<g>
			<path class="st1" d="M194.67,239.33c-0.85,0-1.71-0.33-2.36-0.98c-1.3-1.3-1.3-3.41,0-4.71l18.67-18.67c1.3-1.3,3.41-1.3,4.71,0
				c1.3,1.3,1.3,3.41,0,4.71l-18.67,18.67C196.37,239.01,195.52,239.33,194.67,239.33z"/>
		</g>
	</g>
	<g>
		<g>
			<path class="st1" d="M180,234c-0.85,0-1.71-0.33-2.36-0.98l-18.67-18.67c-1.3-1.3-1.3-3.41,0-4.71c1.3-1.3,3.41-1.3,4.71,0
				l18.67,18.67c1.3,1.3,1.3,3.41,0,4.71C181.71,233.67,180.85,234,180,234z"/>
		</g>
		<g>
			<path class="st1" d="M162.67,234c-0.81,0-1.63-0.29-2.27-0.89c-1.35-1.25-1.43-3.36-0.17-4.71l17.33-18.67
				c1.25-1.35,3.36-1.43,4.71-0.17c1.35,1.25,1.43,3.36,0.17,4.71l-17.33,18.67C164.45,233.64,163.56,234,162.67,234z"/>
		</g>
	</g>
	<g>
		<g>
			<path class="st1" d="M140.43,207.72c-0.78,0-1.57-0.27-2.2-0.83l-17.15-15.06c-1.38-1.22-1.52-3.32-0.3-4.7
				c1.22-1.38,3.32-1.52,4.7-0.3l17.15,15.06c1.38,1.21,1.52,3.32,0.3,4.7C142.27,207.34,141.35,207.72,140.43,207.72z"/>
		</g>
		<g>
			<path class="st1" d="M123.99,208.05c-0.85,0-1.7-0.32-2.35-0.97c-1.31-1.3-1.31-3.41-0.01-4.71l16.02-16.11
				c1.3-1.3,3.41-1.31,4.71-0.01c1.31,1.3,1.31,3.41,0.01,4.71l-16.02,16.11C125.7,207.73,124.85,208.05,123.99,208.05z"/>
		</g>
	</g>
	<g>
		<g>
			<path class="st1" d="M279.86,202.76c-0.91,0-1.82-0.37-2.47-1.1l-15.8-17.45c-1.24-1.36-1.13-3.47,0.23-4.71
				c1.37-1.24,3.48-1.13,4.71,0.23l15.8,17.45c1.24,1.36,1.13,3.47-0.23,4.71C281.46,202.48,280.65,202.76,279.86,202.76z"/>
		</g>
		<g>
			<path class="st1" d="M262.57,201.36c-0.99,0-1.98-0.44-2.63-1.29c-1.13-1.45-0.87-3.55,0.58-4.68l18.69-14.55
				c1.46-1.13,3.55-0.87,4.68,0.58c1.13,1.45,0.87,3.55-0.58,4.68l-18.69,14.55C264.01,201.13,263.28,201.36,262.57,201.36z"/>
		</g>
	</g>
	<g>
		<g>
			<path class="st1" d="M248,238c-0.89,0-1.79-0.36-2.44-1.07l-17.33-18.67c-1.25-1.35-1.17-3.46,0.17-4.71
				c1.35-1.25,3.46-1.17,4.71,0.17l17.33,18.67c1.25,1.35,1.17,3.46-0.17,4.71C249.63,237.71,248.81,238,248,238z"/>
		</g>
		<g>
			<path class="st1" d="M230.67,238c-0.85,0-1.71-0.33-2.36-0.98c-1.3-1.3-1.3-3.41,0-4.71l18.67-18.67c1.3-1.3,3.41-1.3,4.71,0
				c1.3,1.3,1.3,3.41,0,4.71l-18.67,18.67C232.37,237.67,231.52,238,230.67,238z"/>
		</g>
	</g>
	<g>
		<path class="st1" d="M241.33,272.67c-7.72,0-14-6.28-14-14c0-7.72,6.28-14,14-14c7.72,0,14,6.28,14,14
			C255.33,266.39,249.05,272.67,241.33,272.67z M241.33,251.33c-4.04,0-7.33,3.29-7.33,7.33c0,4.04,3.29,7.33,7.33,7.33
			s7.33-3.29,7.33-7.33C248.67,254.62,245.38,251.33,241.33,251.33z"/>
	</g>
	<g>
		<path class="st1" d="M229.33,308.67c-7.72,0-14-6.28-14-14c0-7.72,6.28-14,14-14c7.72,0,14,6.28,14,14
			C243.33,302.39,237.05,308.67,229.33,308.67z M229.33,287.33c-4.04,0-7.33,3.29-7.33,7.33s3.29,7.33,7.33,7.33
			s7.33-3.29,7.33-7.33S233.38,287.33,229.33,287.33z"/>
	</g>
	<g>
		<path class="st1" d="M174.67,267.33c-7.72,0-14-6.28-14-14s6.28-14,14-14c7.72,0,14,6.28,14,14S182.39,267.33,174.67,267.33z
			 M174.67,246c-4.04,0-7.33,3.29-7.33,7.33c0,4.04,3.29,7.33,7.33,7.33c4.04,0,7.33-3.29,7.33-7.33
			C182,249.29,178.71,246,174.67,246z"/>
	</g>
	<g>
		<path class="st1" d="M273.33,283.33c-7.72,0-14-6.28-14-14c0-7.72,6.28-14,14-14c7.72,0,14,6.28,14,14
			C287.33,277.05,281.05,283.33,273.33,283.33z M273.33,262c-4.04,0-7.33,3.29-7.33,7.33s3.29,7.33,7.33,7.33s7.33-3.29,7.33-7.33
			S277.38,262,273.33,262z"/>
	</g>
	<g>
		<path class="st1" d="M132,304.67c-7.72,0-14-6.28-14-14c0-7.72,6.28-14,14-14s14,6.28,14,14C146,298.39,139.72,304.67,132,304.67z
			 M132,283.33c-4.04,0-7.33,3.29-7.33,7.33S127.96,298,132,298c4.04,0,7.33-3.29,7.33-7.33S136.04,283.33,132,283.33z"/>
	</g>
	<g>
		<path class="st1" d="M184,311.33c-7.72,0-14-6.28-14-14c0-7.72,6.28-14,14-14s14,6.28,14,14C198,305.05,191.72,311.33,184,311.33z
			 M184,290c-4.04,0-7.33,3.29-7.33,7.33s3.29,7.33,7.33,7.33s7.33-3.29,7.33-7.33S188.04,290,184,290z"/>
	</g>
	<g>
		<g>
			<path class="st4" d="M136.44,243.62c-1.68,0-3.12-1.26-3.31-2.97l-2.85-25.92c-0.2-1.83,1.12-3.48,2.95-3.68
				c1.83-0.2,3.48,1.12,3.68,2.95l2.85,25.92c0.2,1.83-1.12,3.48-2.95,3.68C136.68,243.61,136.56,243.62,136.44,243.62z"/>
		</g>
		<g>
			<path class="st4" d="M124.47,218.36c-1.73,0-3.19-1.34-3.32-3.09c-0.13-1.84,1.25-3.43,3.08-3.57l18.23-1.33
				c1.82-0.15,3.43,1.25,3.57,3.08c0.13,1.84-1.25,3.43-3.08,3.57l-18.23,1.33C124.64,218.35,124.55,218.36,124.47,218.36z"/>
		</g>
	</g>
	<g>
		<g>
			<path class="st4" d="M269.67,241.91c-0.05,0-0.11,0-0.17,0c-1.84-0.09-3.26-1.65-3.17-3.49l1.3-26.64
				c0.09-1.84,1.66-3.26,3.49-3.17c1.84,0.09,3.26,1.65,3.17,3.49l-1.3,26.64C272.91,240.53,271.44,241.91,269.67,241.91z"/>
		</g>
		<g>
			<path class="st4" d="M280.3,214.88c-0.03,0-0.07,0-0.1,0l-18.65-0.54c-1.84-0.05-3.29-1.59-3.24-3.43s1.59-3.32,3.43-3.24
				l18.65,0.54c1.84,0.05,3.29,1.59,3.24,3.43C283.58,213.45,282.1,214.88,280.3,214.88z"/>
		</g>
	</g>
	<g>
		<g>
			<path class="st5" d="M195.83,261.99c-0.7,0-1.41-0.22-2.01-0.68c-1.47-1.11-1.76-3.2-0.65-4.67l10.22-13.49
				c0.57-0.75,1.42-1.22,2.35-1.31c0.94-0.08,1.86,0.22,2.55,0.85l12.92,11.76c1.36,1.24,1.46,3.35,0.22,4.71
				c-1.24,1.36-3.35,1.46-4.71,0.22l-10.22-9.3l-8.02,10.59C197.84,261.54,196.84,261.99,195.83,261.99z"/>
		</g>
		<g>
			<path class="st5" d="M215.59,279.78c-1.08,0-2.15-0.53-2.79-1.5c-0.41-0.62-9.98-15.39-10.08-33.1
				c-0.01-1.84,1.47-3.34,3.32-3.35c0.01,0,0.01,0,0.02,0c1.83,0,3.32,1.48,3.33,3.32c0.09,15.76,8.89,29.33,8.98,29.47
				c1.01,1.54,0.58,3.61-0.95,4.62C216.85,279.6,216.21,279.78,215.59,279.78z"/>
		</g>
	</g>
	<g>
		<g>
			<path class="st5" d="M132.97,268.17c-0.42,0-0.85-0.08-1.26-0.25c-1.7-0.7-2.52-2.65-1.82-4.35l6.21-15.15
				c0.37-0.91,1.12-1.6,2.05-1.9c0.93-0.3,1.95-0.18,2.78,0.33l14.87,9.16c1.57,0.97,2.05,3.02,1.09,4.59
				c-0.96,1.57-3.02,2.06-4.59,1.09l-11.52-7.1l-4.72,11.52C135.53,267.39,134.28,268.17,132.97,268.17z"/>
		</g>
		<g>
			<path class="st5" d="M164.13,292.49c-0.84,0-1.69-0.32-2.34-0.96c-0.85-0.84-20.93-20.77-25.85-41.06
				c-0.43-1.79,0.67-3.59,2.46-4.02c1.79-0.43,3.59,0.67,4.02,2.45c4.46,18.43,23.85,37.69,24.04,37.88
				c1.31,1.29,1.33,3.4,0.04,4.71C165.85,292.16,164.99,292.49,164.13,292.49z"/>
		</g>
	</g>
	<g>
		<g>
			<g>
				<path class="st6" d="M201.53,355.46c-1.18,0-2.28-0.62-2.89-1.67c-0.69-1.19-0.57-2.68,0.29-3.75l16.12-20.08
					c0.64-0.79,1.59-1.25,2.6-1.25c0.08,0,0.17,0,0.25,0.01c1.1,0.08,2.08,0.7,2.63,1.66l9.33,16.17c0.55,0.95,0.6,2.12,0.12,3.11
					c-0.48,0.99-1.41,1.69-2.5,1.85l-25.45,3.92C201.86,355.45,201.7,355.46,201.53,355.46z"/>
			</g>
			<g>
				<path class="st1" d="M217.64,332.05l9.33,16.17l-25.45,3.92L217.64,332.05 M217.64,325.38c-2.01,0-3.93,0.91-5.2,2.49
					l-16.12,20.08c-1.72,2.14-1.95,5.13-0.57,7.51c1.2,2.08,3.42,3.33,5.77,3.33c0.34,0,0.68-0.03,1.02-0.08l25.45-3.92
					c2.18-0.33,4.05-1.72,5-3.71c0.95-1.98,0.86-4.31-0.24-6.22l-9.33-16.17c-1.1-1.91-3.07-3.15-5.26-3.31
					C217.98,325.39,217.81,325.38,217.64,325.38L217.64,325.38z"/>
			</g>
		</g>
		<g>
			<polygon class="st1" points="201.53,352.13 206.46,344.67 210.46,351.59 			"/>
		</g>
		<g>
			<g>
				<path class="st7" d="M226.98,351.55c-1.15,0-2.27-0.6-2.89-1.67l-9.33-16.17c-0.44-0.77-0.56-1.68-0.33-2.53
					c0.23-0.85,0.79-1.58,1.55-2.02l98.15-56.67c0.52-0.3,1.1-0.45,1.66-0.45c1.15,0,2.27,0.6,2.89,1.67l9.33,16.17
					c0.44,0.77,0.56,1.68,0.33,2.53c-0.23,0.85-0.79,1.58-1.55,2.02l-98.15,56.67C228.12,351.4,227.55,351.55,226.98,351.55z"/>
			</g>
			<g>
				<path class="st1" d="M315.79,275.38l9.33,16.17l-98.15,56.67l-9.33-16.17L315.79,275.38 M315.79,268.71
					c-1.16,0-2.31,0.3-3.33,0.89l-98.15,56.67c-1.53,0.88-2.65,2.34-3.11,4.05c-0.46,1.71-0.22,3.53,0.67,5.06l9.33,16.17
					c1.23,2.14,3.48,3.33,5.78,3.33c1.13,0,2.28-0.29,3.33-0.89l98.15-56.67c3.19-1.84,4.28-5.92,2.44-9.11l-9.33-16.17
					c-0.88-1.53-2.34-2.65-4.05-3.11C316.95,268.79,316.37,268.71,315.79,268.71L315.79,268.71z"/>
			</g>
		</g>
		<g>
			
				<rect x="269.05" y="259.17" transform="matrix(0.5 0.866 -0.866 0.5 410.3832 -79.1295)" class="st8" width="9.33" height="113.33"/>
		</g>
		<g>
			<g>
				
					<rect x="322.19" y="264.8" transform="matrix(0.866 -0.5 0.5 0.866 -94.4042 202.5922)" class="st9" width="17.33" height="25.33"/>
			</g>
			<g>
				<path class="st1" d="M330.81,266.71l9.33,16.17l-9.24,5.33l-9.33-16.17L330.81,266.71 M333.25,257.61l-5.77,3.33l-9.24,5.33
					l-5.77,3.33l3.33,5.77l9.33,16.17l3.33,5.77l5.77-3.33l9.24-5.33l5.77-3.33l-3.33-5.77l-9.33-16.17L333.25,257.61L333.25,257.61
					z"/>
			</g>
		</g>
		<g>
			<g>
				<path class="st10" d="M332.94,262.4l10.39-6c1.01-0.58,2.17-0.89,3.33-0.89c2.38,0,4.59,1.28,5.78,3.33l5.33,9.24
					c0.89,1.54,1.13,3.34,0.67,5.06c-0.46,1.72-1.57,3.16-3.11,4.05l-10.39,6L332.94,262.4z"/>
			</g>
			<g>
				<path class="st1" d="M346.66,259.51c0.92,0,1.82,0.48,2.31,1.33l5.33,9.24c0.74,1.28,0.3,2.91-0.98,3.64l-6.93,4l-8-13.86
					l6.93-4C345.75,259.63,346.21,259.51,346.66,259.51 M346.66,251.51L346.66,251.51c-1.87,0-3.71,0.49-5.33,1.43l-6.93,4l-6.93,4
					l4,6.93l8,13.86l4,6.93l6.93-4l6.93-4c5.09-2.94,6.85-9.48,3.9-14.57l-5.33-9.24C354,253.55,350.46,251.51,346.66,251.51
					L346.66,251.51z"/>
			</g>
		</g>
		<g>
			<path class="st1" d="M222.31,342.8c-0.92,0-1.82-0.48-2.31-1.33c-0.74-1.28-0.3-2.91,0.98-3.64l98.15-56.67
				c1.27-0.74,2.91-0.3,3.64,0.98c0.74,1.28,0.3,2.91-0.98,3.64l-98.15,56.67C223.23,342.68,222.77,342.8,222.31,342.8z"/>
		</g>
	</g>
	<g>
		<g>
			<path class="st1" d="M189.36,140.67c-1.84,0-3.33-1.49-3.33-3.33c0-3.31-2.69-6-6-6s-6,2.69-6,6c0,1.84-1.49,3.33-3.33,3.33
				c-1.84,0-3.33-1.49-3.33-3.33c0-6.98,5.68-12.67,12.67-12.67s12.67,5.68,12.67,12.67C192.7,139.17,191.2,140.67,189.36,140.67z"
				/>
		</g>
	</g>
	<g>
		<g>
			<path class="st1" d="M229.3,140.67c-1.84,0-3.33-1.49-3.33-3.33c0-3.31-2.69-6-6-6s-6,2.69-6,6c0,1.84-1.49,3.33-3.33,3.33
				s-3.33-1.49-3.33-3.33c0-6.98,5.68-12.67,12.67-12.67s12.67,5.68,12.67,12.67C232.64,139.17,231.14,140.67,229.3,140.67z"/>
		</g>
	</g>
	<g>
		<path class="st1" d="M200.55,160.4c-8.02,0-16.25-2.36-23.36-7.08c-1.23-0.81-1.56-2.47-0.75-3.7c0.81-1.23,2.47-1.56,3.7-0.75
			c12.26,8.14,28.91,8.15,39.58,0.03c1.17-0.89,2.85-0.67,3.74,0.51c0.89,1.17,0.66,2.85-0.51,3.74
			C216.6,157.98,208.68,160.4,200.55,160.4z"/>
	</g>
	<g>
		<path class="st1" d="M194.43,164.53c3.6,1.05,7.54,1.15,11.13,0c1.71-0.62,3.12,1.61,1.85,2.89c0,0-0.96,1.01-0.96,1.01
			c-3.78,3.57-10.24,2.73-13.77-0.78C191.18,166.39,192.6,163.91,194.43,164.53L194.43,164.53z"/>
	</g>
	<g>
		<rect class="st11" width="400" height="400"/>
	</g>
	<g>
		<g>
			<path class="st7" d="M264.13,365.87c3.53,0,6.4-2.87,6.4-6.4c0-1.18,0.96-2.13,2.13-2.13s2.13,0.96,2.13,2.13
				c0,3.53,2.87,6.4,6.4,6.4c1.18,0,2.13,0.96,2.13,2.13s-0.96,2.13-2.13,2.13c-3.53,0-6.4,2.87-6.4,6.4c0,1.18-0.96,2.13-2.13,2.13
				s-2.13-0.96-2.13-2.13c0-3.53-2.87-6.4-6.4-6.4c-1.18,0-2.13-0.96-2.13-2.13S262.96,365.87,264.13,365.87z"/>
		</g>
		<g>
			<path class="st7" d="M77.47,352.53c3.53,0,6.4-2.87,6.4-6.4c0-1.18,0.96-2.13,2.13-2.13c1.18,0,2.13,0.96,2.13,2.13
				c0,3.53,2.87,6.4,6.4,6.4c1.18,0,2.13,0.96,2.13,2.13c0,1.18-0.96,2.13-2.13,2.13c-3.53,0-6.4,2.87-6.4,6.4
				c0,1.18-0.96,2.13-2.13,2.13c-1.18,0-2.13-0.96-2.13-2.13c0-3.53-2.87-6.4-6.4-6.4c-1.18,0-2.13-0.96-2.13-2.13
				C75.33,353.49,76.29,352.53,77.47,352.53z"/>
		</g>
		<g>
			<path class="st7" d="M8.4,110.93c3.97,0,7.2-3.23,7.2-7.2c0-1.33,1.07-2.4,2.4-2.4c1.33,0,2.4,1.07,2.4,2.4
				c0,3.97,3.23,7.2,7.2,7.2c1.33,0,2.4,1.07,2.4,2.4c0,1.33-1.07,2.4-2.4,2.4c-3.97,0-7.2,3.23-7.2,7.2c0,1.33-1.07,2.4-2.4,2.4
				c-1.33,0-2.4-1.07-2.4-2.4c0-3.97-3.23-7.2-7.2-7.2c-1.33,0-2.4-1.07-2.4-2.4C6,112.01,7.07,110.93,8.4,110.93z"/>
		</g>
		<g>
			<path class="st7" d="M365.73,128.27c3.97,0,7.2-3.23,7.2-7.2c0-1.33,1.07-2.4,2.4-2.4c1.33,0,2.4,1.07,2.4,2.4
				c0,3.97,3.23,7.2,7.2,7.2c1.33,0,2.4,1.07,2.4,2.4s-1.07,2.4-2.4,2.4c-3.97,0-7.2,3.23-7.2,7.2c0,1.33-1.07,2.4-2.4,2.4
				c-1.33,0-2.4-1.07-2.4-2.4c0-3.97-3.23-7.2-7.2-7.2c-1.33,0-2.4-1.07-2.4-2.4S364.41,128.27,365.73,128.27z"/>
		</g>
		<g>
			<circle class="st7" cx="351.33" cy="377.33" r="4"/>
		</g>
		<g>
			<circle class="st7" cx="14.67" cy="346" r="3.33"/>
		</g>
		<g>
			<circle class="st7" cx="50.67" cy="167.33" r="3.33"/>
		</g>
		<g>
			<circle class="st7" cx="378.67" cy="322" r="6"/>
		</g>
		<g>
			<circle class="st7" cx="45.33" cy="308.67" r="6"/>
		</g>
		<g>
			<circle class="st7" cx="344.67" cy="189.33" r="5.33"/>
		</g>
		<g>
			<circle class="st7" cx="37.33" cy="38" r="3.33"/>
		</g>
		<g>
			<circle class="st7" cx="150.67" cy="30.67" r="4"/>
		</g>
		<path class="st7" d="M352.67,40h-9.33v-9.33c0-2.21-1.79-4-4-4c-2.21,0-4,1.79-4,4V40H326c-2.21,0-4,1.79-4,4s1.79,4,4,4h9.33
			v9.33c0,2.21,1.79,4,4,4c2.21,0,4-1.79,4-4V48h9.33c2.21,0,4-1.79,4-4S354.88,40,352.67,40z"/>
	</g>
</g>
</svg>
