<?xml version="1.0" encoding="utf-8"?>
<!-- Generator: Adobe Illustrator 26.0.3, SVG Export Plug-In . SVG Version: 6.00 Build 0)  -->
<svg version="1.1" id="Desktop_00000112610624403438192460000011520434507610260158_"
	 xmlns="http://www.w3.org/2000/svg" xmlns:xlink="http://www.w3.org/1999/xlink" x="0px" y="0px" viewBox="0 0 1700 740"
	 style="enable-background:new 0 0 1700 740;" xml:space="preserve">
<style type="text/css">
	.st0{fill:none;}
	.st1{fill:#0CAA41;}
	.st2{fill:#515979;}
	.st3{fill:#EF7D7D;}
	.st4{fill:#F29797;}
	.st5{fill:#FFFFFF;}
	.st6{fill:#FFD886;}
</style>
<g>
	<rect class="st0" width="1700" height="740"/>
</g>
<g>
	<g>
		<g id="wordmark_00000176006791047964593790000005555834252883352242_">
			<path class="st1" d="M183.27,494.52h-4.6c-0.28,0-0.49,0.21-0.49,0.49v2.44c-1.18-1.88-3.55-3.41-6.76-3.41
				c-5.16,0-9.61,3.9-9.61,10.8s4.25,10.73,9.82,10.73c3,0,5.36-1.25,6.69-3.2v1.32c0,3-1.46,5.36-6.13,5.36
				c-2.37,0-4.25-0.77-5.85-2.23c-0.21-0.21-0.56-0.14-0.7,0.07l-2.09,3.48c-0.28,0.42-0.21,0.7-0.07,0.84c2.16,1.88,4.88,3,8.92,3
				c8.78,0,11.36-4.88,11.36-10.24v-19.02C183.76,494.73,183.55,494.52,183.27,494.52z M172.96,510.55c-3.14,0-5.43-2.23-5.43-5.57
				s2.3-5.57,5.43-5.57s5.43,2.16,5.43,5.57C178.4,508.39,176.1,510.55,172.96,510.55z M193.79,486.72v28.22
				c0,0.28-0.21,0.49-0.49,0.49h-4.6c-0.28,0-0.49-0.21-0.49-0.49v-28.22c0-0.28,0.21-0.49,0.49-0.49h4.6
				C193.58,486.23,193.79,486.44,193.79,486.72z M207.45,494.11c-4.39,0-7.66,1.46-9.13,4.32c-0.07,0.21,0,0.49,0.14,0.56l3.34,2.37
				c0.21,0.14,0.49,0.07,0.63-0.14c0.91-1.67,3-2.23,5.02-2.23c2.44,0,3.62,0.91,3.62,2.09v0.35c0,0.49-0.28,0.77-1.11,0.84
				l-5.71,0.49c-3.83,0.35-6.69,2.72-6.69,6.55c0,3.83,2.93,6.48,7.04,6.48c3.27,0,5.36-1.6,6.41-3.27v2.37
				c0,0.28,0.21,0.49,0.49,0.49h4.6c0.28,0,0.49-0.21,0.49-0.49v-12.4C216.58,496.75,213.51,494.11,207.45,494.11z M211.07,506.99
				c0,2.3-1.88,4.32-4.81,4.32c-1.95,0-2.93-0.91-2.93-2.23c0-1.18,0.91-2.02,2.58-2.3l5.16-0.63V506.99z M238.45,509.08
				c0,4.74-3.48,6.76-8.99,6.76c-3.83,0-7.11-1.05-8.99-3.14c-0.14-0.14-0.14-0.42,0-0.63l2.65-3.41c0.14-0.21,0.49-0.21,0.7,0
				c1.39,1.46,3.55,2.3,6.2,2.3c1.53,0,2.79-0.42,2.79-1.6c0-1.11-1.11-1.39-4.6-2.16c-3.07-0.63-6.9-2.02-6.9-6.55
				c0-4.18,3.34-6.62,8.78-6.62c3.62,0,6.2,1.11,8.01,2.79c0.21,0.14,0.21,0.42,0.07,0.63l-2.51,3.27
				c-0.14,0.21-0.49,0.28-0.63,0.07c-1.25-1.11-3.27-1.81-5.29-1.81c-1.74,0-2.65,0.56-2.65,1.46c0,1.05,1.11,1.32,4.81,2.09
				C235.39,503.37,238.45,504.7,238.45,509.08z M259.63,509.08c0,4.74-3.48,6.76-8.99,6.76c-3.83,0-7.11-1.05-8.99-3.14
				c-0.14-0.14-0.14-0.42,0-0.63l2.65-3.41c0.14-0.21,0.49-0.21,0.7,0c1.39,1.46,3.55,2.3,6.2,2.3c1.53,0,2.79-0.42,2.79-1.6
				c0-1.11-1.11-1.39-4.6-2.16c-3.07-0.63-6.9-2.02-6.9-6.55c0-4.18,3.34-6.62,8.78-6.62c3.62,0,6.2,1.11,8.01,2.79
				c0.21,0.14,0.21,0.42,0.07,0.63l-2.51,3.27c-0.14,0.21-0.49,0.28-0.63,0.07c-1.25-1.11-3.27-1.81-5.29-1.81
				c-1.74,0-2.65,0.56-2.65,1.46c0,1.05,1.11,1.32,4.81,2.09C256.57,503.37,259.63,504.7,259.63,509.08z M284.09,486.23h-4.6
				c-0.28,0-0.49,0.21-0.49,0.49v10.87c-1.39-2.02-3.76-3.55-6.97-3.55c-5.09,0-9.41,3.9-9.41,10.94c0,7.04,4.32,10.94,9.48,10.94
				c3.07,0,5.43-1.32,6.9-3.48v2.44c0,0.28,0.21,0.49,0.49,0.49h4.6c0.28,0,0.49-0.21,0.49-0.49v-28.22
				C284.57,486.44,284.36,486.23,284.09,486.23z M273.77,510.55c-3.14,0-5.43-2.23-5.43-5.57s2.3-5.57,5.43-5.57
				c3.07,0,5.43,2.16,5.43,5.57C279.21,508.39,276.84,510.55,273.77,510.55z M299.13,494.04c-6.41,0-11.22,4.39-11.22,10.94
				c0,6.48,4.81,10.94,11.22,10.94s11.22-4.39,11.22-10.94C310.35,498.49,305.61,494.04,299.13,494.04z M299.13,510.48
				c-3.14,0-5.57-2.23-5.57-5.57s2.44-5.57,5.57-5.57s5.57,2.23,5.57,5.57C304.71,508.32,302.27,510.48,299.13,510.48z
				 M324.63,494.04c-6.41,0-11.22,4.39-11.22,10.94c0,6.48,4.81,10.94,11.22,10.94s11.22-4.39,11.22-10.94
				C335.85,498.49,331.04,494.04,324.63,494.04z M324.63,510.48c-3.14,0-5.57-2.23-5.57-5.57s2.44-5.57,5.57-5.57
				s5.57,2.23,5.57,5.57C330.14,508.32,327.77,510.48,324.63,510.48z M353.83,495.01c0-0.21-0.14-0.42-0.35-0.56
				c-0.42-0.21-1.05-0.35-2.37-0.35c-2.93,0-5.5,1.46-6.62,3.83v-2.93c0-0.28-0.21-0.49-0.49-0.49h-4.39
				c-0.28,0-0.49,0.21-0.49,0.49v19.93c0,0.28,0.21,0.49,0.49,0.49h4.6c0.28,0,0.49-0.21,0.49-0.49v-8.92
				c0-3.97,2.79-5.99,6.41-5.99c0.84,0,1.67,0.21,2.09,0.35c0.28,0.07,0.56-0.14,0.56-0.42L353.83,495.01z"/>
		</g>
		<g id="icon_00000164493402114719702640000015123251002962608046_">
			<path class="st1" d="M277.05,374.2c7.04,0,12.82,5.71,12.82,12.82l0,0h-51.21v52.53c0,0.28-0.21,0.49-0.49,0.49h-11.84
				c-0.28,0-0.49-0.21-0.49-0.49v-52.53l0,0c0-7.04,5.71-12.82,12.82-12.82l0,0H277.05z M277.05,451.05h-51.21l0,0
				c0,7.04,5.71,12.82,12.82,12.82h38.39l0,0c7.04,0,12.82-5.71,12.82-12.82l0,0v-52.6c0-0.28-0.21-0.49-0.49-0.49h-11.84
				c-0.28,0-0.49,0.21-0.49,0.49V451.05L277.05,451.05z"/>
		</g>
	</g>
	<g>
		<g>
			<path class="st1" d="M291.16,462.15v0.27h-0.5v1.31h-0.36v-1.31h-0.5v-0.27H291.16z M292.24,463.05c0,0.05,0,0.05,0.05,0.09
				c0,0.05,0,0.05,0.05,0.09c0-0.05,0-0.05,0.05-0.09c0,0,0-0.05,0.05-0.09l0.45-0.82c0-0.05,0.05-0.05,0.05-0.05h0.05h0.27v1.63
				h-0.32v-1.04l0.05-0.23l-0.5,0.91c-0.05,0.05-0.05,0.09-0.14,0.09h-0.05c-0.05,0-0.09-0.05-0.14-0.09l-0.5-0.91v0.18v1h-0.32
				v-1.63h0.27c0.05,0,0.05,0,0.05,0l0.05,0.05L292.24,463.05z"/>
		</g>
	</g>
</g>
<g>
	<g>
		<g id="wordmark_00000176735425424769943700000014469912641867402408_">
			<path class="st1" d="M341.45,170.36h-4.6c-0.28,0-0.49,0.21-0.49,0.49v2.44c-1.18-1.88-3.55-3.41-6.76-3.41
				c-5.16,0-9.61,3.9-9.61,10.8c0,6.9,4.25,10.73,9.82,10.73c3,0,5.36-1.25,6.69-3.2v1.32c0,3-1.46,5.36-6.13,5.36
				c-2.37,0-4.25-0.77-5.85-2.23c-0.21-0.21-0.56-0.14-0.7,0.07l-2.09,3.48c-0.28,0.42-0.21,0.7-0.07,0.84c2.16,1.88,4.88,3,8.92,3
				c8.78,0,11.36-4.88,11.36-10.24v-19.02C341.94,170.57,341.73,170.36,341.45,170.36z M331.14,186.38c-3.14,0-5.43-2.23-5.43-5.57
				s2.3-5.57,5.43-5.57s5.43,2.16,5.43,5.57C336.58,184.22,334.28,186.38,331.14,186.38z M351.97,162.55v28.22
				c0,0.28-0.21,0.49-0.49,0.49h-4.6c-0.28,0-0.49-0.21-0.49-0.49v-28.22c0-0.28,0.21-0.49,0.49-0.49h4.6
				C351.77,162.07,351.97,162.28,351.97,162.55z M365.63,169.94c-4.39,0-7.66,1.46-9.13,4.32c-0.07,0.21,0,0.49,0.14,0.56l3.34,2.37
				c0.21,0.14,0.49,0.07,0.63-0.14c0.91-1.67,3-2.23,5.02-2.23c2.44,0,3.62,0.91,3.62,2.09v0.35c0,0.49-0.28,0.77-1.11,0.84
				l-5.71,0.49c-3.83,0.35-6.69,2.72-6.69,6.55s2.93,6.48,7.04,6.48c3.27,0,5.36-1.6,6.41-3.27v2.37c0,0.28,0.21,0.49,0.49,0.49h4.6
				c0.28,0,0.49-0.21,0.49-0.49v-12.4C374.76,172.59,371.69,169.94,365.63,169.94z M369.25,182.83c0,2.3-1.88,4.32-4.81,4.32
				c-1.95,0-2.93-0.91-2.93-2.23c0-1.18,0.91-2.02,2.58-2.3l5.16-0.63V182.83z M396.63,184.92c0,4.74-3.48,6.76-8.99,6.76
				c-3.83,0-7.11-1.05-8.99-3.14c-0.14-0.14-0.14-0.42,0-0.63l2.65-3.41c0.14-0.21,0.49-0.21,0.7,0c1.39,1.46,3.55,2.3,6.2,2.3
				c1.53,0,2.79-0.42,2.79-1.6c0-1.11-1.11-1.39-4.6-2.16c-3.07-0.63-6.9-2.02-6.9-6.55c0-4.18,3.34-6.62,8.78-6.62
				c3.62,0,6.2,1.11,8.01,2.79c0.21,0.14,0.21,0.42,0.07,0.63l-2.51,3.27c-0.14,0.21-0.49,0.28-0.63,0.07
				c-1.25-1.11-3.27-1.81-5.29-1.81c-1.74,0-2.65,0.56-2.65,1.46c0,1.05,1.11,1.32,4.81,2.09
				C393.57,179.21,396.63,180.53,396.63,184.92z M417.81,184.92c0,4.74-3.48,6.76-8.99,6.76c-3.83,0-7.11-1.05-8.99-3.14
				c-0.14-0.14-0.14-0.42,0-0.63l2.65-3.41c0.14-0.21,0.49-0.21,0.7,0c1.39,1.46,3.55,2.3,6.2,2.3c1.53,0,2.79-0.42,2.79-1.6
				c0-1.11-1.11-1.39-4.6-2.16c-3.07-0.63-6.9-2.02-6.9-6.55c0-4.18,3.34-6.62,8.78-6.62c3.62,0,6.2,1.11,8.01,2.79
				c0.21,0.14,0.21,0.42,0.07,0.63l-2.51,3.27c-0.14,0.21-0.49,0.28-0.63,0.07c-1.25-1.11-3.27-1.81-5.29-1.81
				c-1.74,0-2.65,0.56-2.65,1.46c0,1.05,1.11,1.32,4.81,2.09C414.75,179.21,417.81,180.53,417.81,184.92z M442.27,162.07h-4.6
				c-0.28,0-0.49,0.21-0.49,0.49v10.87c-1.39-2.02-3.76-3.55-6.97-3.55c-5.09,0-9.41,3.9-9.41,10.94c0,7.04,4.32,10.94,9.48,10.94
				c3.07,0,5.43-1.32,6.9-3.48v2.44c0,0.28,0.21,0.49,0.49,0.49h4.6c0.28,0,0.49-0.21,0.49-0.49v-28.22
				C442.76,162.28,442.55,162.07,442.27,162.07z M431.96,186.38c-3.14,0-5.43-2.23-5.43-5.57s2.3-5.57,5.43-5.57
				c3.07,0,5.43,2.16,5.43,5.57S435.02,186.38,431.96,186.38z M457.32,169.87c-6.41,0-11.22,4.39-11.22,10.94
				c0,6.48,4.81,10.94,11.22,10.94s11.22-4.39,11.22-10.94C468.53,174.33,463.8,169.87,457.32,169.87z M457.32,186.31
				c-3.14,0-5.57-2.23-5.57-5.57s2.44-5.57,5.57-5.57s5.57,2.23,5.57,5.57C462.89,184.15,460.45,186.31,457.32,186.31z
				 M482.82,169.87c-6.41,0-11.22,4.39-11.22,10.94c0,6.48,4.81,10.94,11.22,10.94c6.41,0,11.22-4.39,11.22-10.94
				C494.03,174.33,489.23,169.87,482.82,169.87z M482.82,186.31c-3.14,0-5.57-2.23-5.57-5.57s2.44-5.57,5.57-5.57
				c3.14,0,5.57,2.23,5.57,5.57C488.32,184.15,485.95,186.31,482.82,186.31z M512.01,170.85c0-0.21-0.14-0.42-0.35-0.56
				c-0.42-0.21-1.05-0.35-2.37-0.35c-2.93,0-5.5,1.46-6.62,3.83v-2.93c0-0.28-0.21-0.49-0.49-0.49h-4.39
				c-0.28,0-0.49,0.21-0.49,0.49v19.93c0,0.28,0.21,0.49,0.49,0.49h4.6c0.28,0,0.49-0.21,0.49-0.49v-8.92
				c0-3.97,2.79-5.99,6.41-5.99c0.84,0,1.67,0.21,2.09,0.35c0.28,0.07,0.56-0.14,0.56-0.42L512.01,170.85z"/>
		</g>
		<g id="icon_00000128473328483595375270000010605787223436074169_">
			<path class="st1" d="M435.23,50.04c7.04,0,12.82,5.71,12.82,12.82l0,0h-51.21v52.53c0,0.28-0.21,0.49-0.49,0.49h-11.84
				c-0.28,0-0.49-0.21-0.49-0.49V62.86l0,0c0-7.04,5.71-12.82,12.82-12.82l0,0L435.23,50.04z M435.23,126.88h-51.21l0,0
				c0,7.04,5.71,12.82,12.82,12.82h38.39l0,0c7.04,0,12.82-5.71,12.82-12.82l0,0v-52.6c0-0.28-0.21-0.49-0.49-0.49h-11.84
				c-0.28,0-0.49,0.21-0.49,0.49L435.23,126.88L435.23,126.88z"/>
		</g>
	</g>
	<g>
		<g>
			<path class="st1" d="M449.34,137.98v0.27h-0.5v1.31h-0.36v-1.31h-0.5v-0.27H449.34z M450.43,138.89c0,0.05,0,0.05,0.05,0.09
				c0,0.05,0,0.05,0.05,0.09c0-0.05,0-0.05,0.05-0.09c0,0,0-0.05,0.05-0.09l0.45-0.82c0-0.05,0.05-0.05,0.05-0.05h0.05h0.27v1.63
				h-0.32v-1.04l0.05-0.23l-0.5,0.91c-0.05,0.05-0.05,0.09-0.14,0.09h-0.05c-0.05,0-0.09-0.05-0.14-0.09l-0.5-0.91v0.18v1h-0.32
				v-1.63h0.27c0.05,0,0.05,0,0.05,0l0.05,0.05L450.43,138.89z"/>
		</g>
	</g>
</g>
<g>
	<g>
		<g id="wordmark_00000120548026355756365770000014579458076925977522_">
			<path class="st1" d="M1334.28,483.19h-4.6c-0.28,0-0.49,0.21-0.49,0.49v2.44c-1.18-1.88-3.55-3.41-6.76-3.41
				c-5.16,0-9.61,3.9-9.61,10.8s4.25,10.73,9.82,10.73c3,0,5.36-1.25,6.69-3.2v1.32c0,3-1.46,5.36-6.13,5.36
				c-2.37,0-4.25-0.77-5.85-2.23c-0.21-0.21-0.56-0.14-0.7,0.07l-2.09,3.48c-0.28,0.42-0.21,0.7-0.07,0.84c2.16,1.88,4.88,3,8.92,3
				c8.78,0,11.36-4.88,11.36-10.24v-19.02C1334.77,483.4,1334.56,483.19,1334.28,483.19z M1323.97,499.22
				c-3.14,0-5.43-2.23-5.43-5.57s2.3-5.57,5.43-5.57c3.14,0,5.43,2.16,5.43,5.57C1329.4,497.06,1327.1,499.22,1323.97,499.22z
				 M1344.8,475.39v28.22c0,0.28-0.21,0.49-0.49,0.49h-4.6c-0.28,0-0.49-0.21-0.49-0.49v-28.22c0-0.28,0.21-0.49,0.49-0.49h4.6
				C1344.59,474.9,1344.8,475.11,1344.8,475.39z M1358.46,482.77c-4.39,0-7.66,1.46-9.13,4.32c-0.07,0.21,0,0.49,0.14,0.56
				l3.34,2.37c0.21,0.14,0.49,0.07,0.63-0.14c0.91-1.67,3-2.23,5.02-2.23c2.44,0,3.62,0.91,3.62,2.09v0.35
				c0,0.49-0.28,0.77-1.11,0.84l-5.71,0.49c-3.83,0.35-6.69,2.72-6.69,6.55c0,3.83,2.93,6.48,7.04,6.48c3.27,0,5.36-1.6,6.41-3.27
				v2.37c0,0.28,0.21,0.49,0.49,0.49h4.6c0.28,0,0.49-0.21,0.49-0.49v-12.4C1367.58,485.42,1364.52,482.77,1358.46,482.77z
				 M1362.08,495.66c0,2.3-1.88,4.32-4.81,4.32c-1.95,0-2.93-0.91-2.93-2.23c0-1.18,0.91-2.02,2.58-2.3l5.16-0.63V495.66z
				 M1389.46,497.75c0,4.74-3.48,6.76-8.99,6.76c-3.83,0-7.11-1.05-8.99-3.14c-0.14-0.14-0.14-0.42,0-0.63l2.65-3.41
				c0.14-0.21,0.49-0.21,0.7,0c1.39,1.46,3.55,2.3,6.2,2.3c1.53,0,2.79-0.42,2.79-1.6c0-1.11-1.11-1.39-4.6-2.16
				c-3.07-0.63-6.9-2.02-6.9-6.55c0-4.18,3.34-6.62,8.78-6.62c3.62,0,6.2,1.11,8.01,2.79c0.21,0.14,0.21,0.42,0.07,0.63l-2.51,3.27
				c-0.14,0.21-0.49,0.28-0.63,0.07c-1.25-1.11-3.27-1.81-5.29-1.81c-1.74,0-2.65,0.56-2.65,1.46c0,1.05,1.11,1.32,4.81,2.09
				C1386.39,492.04,1389.46,493.36,1389.46,497.75z M1410.64,497.75c0,4.74-3.48,6.76-8.99,6.76c-3.83,0-7.11-1.05-8.99-3.14
				c-0.14-0.14-0.14-0.42,0-0.63l2.65-3.41c0.14-0.21,0.49-0.21,0.7,0c1.39,1.46,3.55,2.3,6.2,2.3c1.53,0,2.79-0.42,2.79-1.6
				c0-1.11-1.11-1.39-4.6-2.16c-3.07-0.63-6.9-2.02-6.9-6.55c0-4.18,3.34-6.62,8.78-6.62c3.62,0,6.2,1.11,8.01,2.79
				c0.21,0.14,0.21,0.42,0.07,0.63l-2.51,3.27c-0.14,0.21-0.49,0.28-0.63,0.07c-1.25-1.11-3.27-1.81-5.29-1.81
				c-1.74,0-2.65,0.56-2.65,1.46c0,1.05,1.11,1.32,4.81,2.09C1407.57,492.04,1410.64,493.36,1410.64,497.75z M1435.09,474.9h-4.6
				c-0.28,0-0.49,0.21-0.49,0.49v10.87c-1.39-2.02-3.76-3.55-6.97-3.55c-5.09,0-9.41,3.9-9.41,10.94s4.32,10.94,9.48,10.94
				c3.07,0,5.43-1.32,6.9-3.48v2.44c0,0.28,0.21,0.49,0.49,0.49h4.6c0.28,0,0.49-0.21,0.49-0.49v-28.22
				C1435.58,475.11,1435.37,474.9,1435.09,474.9z M1424.78,499.22c-3.14,0-5.43-2.23-5.43-5.57s2.3-5.57,5.43-5.57
				c3.07,0,5.43,2.16,5.43,5.57C1430.22,497.06,1427.85,499.22,1424.78,499.22z M1450.14,482.7c-6.41,0-11.22,4.39-11.22,10.94
				c0,6.48,4.81,10.94,11.22,10.94s11.22-4.39,11.22-10.94C1461.36,487.16,1456.62,482.7,1450.14,482.7z M1450.14,499.15
				c-3.14,0-5.57-2.23-5.57-5.57s2.44-5.57,5.57-5.57s5.57,2.23,5.57,5.57C1455.71,496.99,1453.28,499.15,1450.14,499.15z
				 M1475.64,482.7c-6.41,0-11.22,4.39-11.22,10.94c0,6.48,4.81,10.94,11.22,10.94s11.22-4.39,11.22-10.94
				C1486.86,487.16,1482.05,482.7,1475.64,482.7z M1475.64,499.15c-3.14,0-5.57-2.23-5.57-5.57s2.44-5.57,5.57-5.57
				c3.14,0,5.57,2.23,5.57,5.57C1481.14,496.99,1478.78,499.15,1475.64,499.15z M1504.83,483.68c0-0.21-0.14-0.42-0.35-0.56
				c-0.42-0.21-1.05-0.35-2.37-0.35c-2.93,0-5.5,1.46-6.62,3.83v-2.93c0-0.28-0.21-0.49-0.49-0.49h-4.39
				c-0.28,0-0.49,0.21-0.49,0.49v19.93c0,0.28,0.21,0.49,0.49,0.49h4.6c0.28,0,0.49-0.21,0.49-0.49v-8.92
				c0-3.97,2.79-5.99,6.41-5.99c0.84,0,1.67,0.21,2.09,0.35c0.28,0.07,0.56-0.14,0.56-0.42L1504.83,483.68z"/>
		</g>
		<g id="icon_00000170267388173675113700000015764938733496074928_">
			<path class="st1" d="M1428.06,362.87c7.04,0,12.82,5.71,12.82,12.82l0,0h-51.21v52.53c0,0.28-0.21,0.49-0.49,0.49h-11.84
				c-0.28,0-0.49-0.21-0.49-0.49v-52.53l0,0c0-7.04,5.71-12.82,12.82-12.82l0,0H1428.06z M1428.06,439.72h-51.21l0,0
				c0,7.04,5.71,12.82,12.82,12.82h38.39l0,0c7.04,0,12.82-5.71,12.82-12.82l0,0v-52.6c0-0.28-0.21-0.49-0.49-0.49h-11.84
				c-0.28,0-0.49,0.21-0.49,0.49V439.72L1428.06,439.72z"/>
		</g>
	</g>
	<g>
		<g>
			<path class="st1" d="M1442.16,450.82v0.27h-0.5v1.31h-0.36v-1.31h-0.5v-0.27H1442.16z M1443.25,451.72c0,0.05,0,0.05,0.05,0.09
				c0,0.05,0,0.05,0.05,0.09c0-0.05,0-0.05,0.05-0.09c0,0,0-0.05,0.05-0.09l0.45-0.82c0-0.05,0.05-0.05,0.05-0.05h0.05h0.27v1.63
				h-0.32v-1.04l0.05-0.23l-0.5,0.91c-0.05,0.05-0.05,0.09-0.14,0.09h-0.05c-0.05,0-0.09-0.05-0.14-0.09l-0.5-0.91v0.18v1h-0.32
				v-1.63h0.27c0.05,0,0.05,0,0.05,0l0.05,0.05L1443.25,451.72z"/>
		</g>
	</g>
</g>
<g>
	<g>
		<g id="wordmark_00000145025284128163570080000008735634427652179362_">
			<path class="st1" d="M1004.1,484.25h-4.6c-0.28,0-0.49,0.21-0.49,0.49v2.44c-1.18-1.88-3.55-3.41-6.76-3.41
				c-5.16,0-9.61,3.9-9.61,10.8c0,6.9,4.25,10.73,9.82,10.73c3,0,5.36-1.25,6.69-3.2v1.32c0,3-1.46,5.36-6.13,5.36
				c-2.37,0-4.25-0.77-5.85-2.23c-0.21-0.21-0.56-0.14-0.7,0.07l-2.09,3.48c-0.28,0.42-0.21,0.7-0.07,0.84c2.16,1.88,4.88,3,8.92,3
				c8.78,0,11.36-4.88,11.36-10.24v-19.02C1004.59,484.45,1004.38,484.25,1004.1,484.25z M993.79,500.27
				c-3.14,0-5.43-2.23-5.43-5.57s2.3-5.57,5.43-5.57c3.14,0,5.43,2.16,5.43,5.57C999.23,498.11,996.93,500.27,993.79,500.27z
				 M1014.62,476.44v28.22c0,0.28-0.21,0.49-0.49,0.49h-4.6c-0.28,0-0.49-0.21-0.49-0.49v-28.22c0-0.28,0.21-0.49,0.49-0.49h4.6
				C1014.41,475.95,1014.62,476.16,1014.62,476.44z M1028.28,483.83c-4.39,0-7.66,1.46-9.13,4.32c-0.07,0.21,0,0.49,0.14,0.56
				l3.34,2.37c0.21,0.14,0.49,0.07,0.63-0.14c0.91-1.67,3-2.23,5.02-2.23c2.44,0,3.62,0.91,3.62,2.09v0.35
				c0,0.49-0.28,0.77-1.11,0.84l-5.71,0.49c-3.83,0.35-6.69,2.72-6.69,6.55c0,3.83,2.93,6.48,7.04,6.48c3.27,0,5.36-1.6,6.41-3.27
				v2.37c0,0.28,0.21,0.49,0.49,0.49h4.6c0.28,0,0.49-0.21,0.49-0.49v-12.4C1037.41,486.47,1034.34,483.83,1028.28,483.83z
				 M1031.9,496.72c0,2.3-1.88,4.32-4.81,4.32c-1.95,0-2.93-0.91-2.93-2.23c0-1.18,0.91-2.02,2.58-2.3l5.16-0.63V496.72z
				 M1059.28,498.81c0,4.74-3.48,6.76-8.99,6.76c-3.83,0-7.11-1.05-8.99-3.14c-0.14-0.14-0.14-0.42,0-0.63l2.65-3.41
				c0.14-0.21,0.49-0.21,0.7,0c1.39,1.46,3.55,2.3,6.2,2.3c1.53,0,2.79-0.42,2.79-1.6c0-1.11-1.11-1.39-4.6-2.16
				c-3.07-0.63-6.9-2.02-6.9-6.55c0-4.18,3.34-6.62,8.78-6.62c3.62,0,6.2,1.11,8.01,2.79c0.21,0.14,0.21,0.42,0.07,0.63l-2.51,3.27
				c-0.14,0.21-0.49,0.28-0.63,0.07c-1.25-1.11-3.27-1.81-5.29-1.81c-1.74,0-2.65,0.56-2.65,1.46c0,1.05,1.11,1.32,4.81,2.09
				C1056.22,493.09,1059.28,494.42,1059.28,498.81z M1080.46,498.81c0,4.74-3.48,6.76-8.99,6.76c-3.83,0-7.11-1.05-8.99-3.14
				c-0.14-0.14-0.14-0.42,0-0.63l2.65-3.41c0.14-0.21,0.49-0.21,0.7,0c1.39,1.46,3.55,2.3,6.2,2.3c1.53,0,2.79-0.42,2.79-1.6
				c0-1.11-1.11-1.39-4.6-2.16c-3.07-0.63-6.9-2.02-6.9-6.55c0-4.18,3.34-6.62,8.78-6.62c3.62,0,6.2,1.11,8.01,2.79
				c0.21,0.14,0.21,0.42,0.07,0.63l-2.51,3.27c-0.14,0.21-0.49,0.28-0.63,0.07c-1.25-1.11-3.27-1.81-5.29-1.81
				c-1.74,0-2.65,0.56-2.65,1.46c0,1.05,1.11,1.32,4.81,2.09C1077.4,493.09,1080.46,494.42,1080.46,498.81z M1104.92,475.95h-4.6
				c-0.28,0-0.49,0.21-0.49,0.49v10.87c-1.39-2.02-3.76-3.55-6.97-3.55c-5.09,0-9.41,3.9-9.41,10.94c0,7.04,4.32,10.94,9.48,10.94
				c3.07,0,5.43-1.32,6.9-3.48v2.44c0,0.28,0.21,0.49,0.49,0.49h4.6c0.28,0,0.49-0.21,0.49-0.49v-28.22
				C1105.4,476.16,1105.19,475.95,1104.92,475.95z M1094.6,500.27c-3.14,0-5.43-2.23-5.43-5.57s2.3-5.57,5.43-5.57
				c3.07,0,5.43,2.16,5.43,5.57C1100.04,498.11,1097.67,500.27,1094.6,500.27z M1119.96,483.76c-6.41,0-11.22,4.39-11.22,10.94
				c0,6.48,4.81,10.94,11.22,10.94s11.22-4.39,11.22-10.94C1131.18,488.22,1126.44,483.76,1119.96,483.76z M1119.96,500.2
				c-3.14,0-5.57-2.23-5.57-5.57s2.44-5.57,5.57-5.57c3.14,0,5.57,2.23,5.57,5.57C1125.54,498.04,1123.1,500.2,1119.96,500.2z
				 M1145.46,483.76c-6.41,0-11.22,4.39-11.22,10.94c0,6.48,4.81,10.94,11.22,10.94s11.22-4.39,11.22-10.94
				C1156.68,488.22,1151.87,483.76,1145.46,483.76z M1145.46,500.2c-3.14,0-5.57-2.23-5.57-5.57s2.44-5.57,5.57-5.57
				c3.14,0,5.57,2.23,5.57,5.57C1150.97,498.04,1148.6,500.2,1145.46,500.2z M1174.66,484.73c0-0.21-0.14-0.42-0.35-0.56
				c-0.42-0.21-1.05-0.35-2.37-0.35c-2.93,0-5.5,1.46-6.62,3.83v-2.93c0-0.28-0.21-0.49-0.49-0.49h-4.39
				c-0.28,0-0.49,0.21-0.49,0.49v19.93c0,0.28,0.21,0.49,0.49,0.49h4.6c0.28,0,0.49-0.21,0.49-0.49v-8.92
				c0-3.97,2.79-5.99,6.41-5.99c0.84,0,1.67,0.21,2.09,0.35c0.28,0.07,0.56-0.14,0.56-0.42L1174.66,484.73z"/>
		</g>
		<g id="icon_00000057137572818551972030000009872870137408375708_">
			<path class="st1" d="M1097.88,363.92c7.04,0,12.82,5.71,12.82,12.82l0,0h-51.21v52.53c0,0.28-0.21,0.49-0.49,0.49h-11.84
				c-0.28,0-0.49-0.21-0.49-0.49v-52.53l0,0c0-7.04,5.71-12.82,12.82-12.82l0,0H1097.88z M1097.88,440.77h-51.21l0,0
				c0,7.04,5.71,12.82,12.82,12.82h38.39l0,0c7.04,0,12.82-5.71,12.82-12.82l0,0v-52.6c0-0.28-0.21-0.49-0.49-0.49h-11.84
				c-0.28,0-0.49,0.21-0.49,0.49V440.77L1097.88,440.77z"/>
		</g>
	</g>
	<g>
		<g>
			<path class="st1" d="M1111.99,451.87v0.27h-0.5v1.31h-0.36v-1.31h-0.5v-0.27H1111.99z M1113.07,452.78c0,0.05,0,0.05,0.05,0.09
				c0,0.05,0,0.05,0.05,0.09c0-0.05,0-0.05,0.05-0.09c0,0,0-0.05,0.05-0.09l0.45-0.82c0-0.05,0.05-0.05,0.05-0.05h0.05h0.27v1.63
				h-0.32v-1.04l0.05-0.23l-0.5,0.91c-0.05,0.05-0.05,0.09-0.14,0.09h-0.05c-0.05,0-0.09-0.05-0.14-0.09l-0.5-0.91v0.18v1h-0.32
				v-1.63h0.27c0.05,0,0.05,0,0.05,0l0.05,0.05L1113.07,452.78z"/>
		</g>
	</g>
</g>
<g>
	<g>
		<g id="wordmark_00000124848749456853022220000016034245487935003562_">
			<path class="st1" d="M1309.7,242.51h-4.6c-0.28,0-0.49,0.21-0.49,0.49v2.44c-1.18-1.88-3.55-3.41-6.76-3.41
				c-5.16,0-9.61,3.9-9.61,10.8c0,6.9,4.25,10.73,9.82,10.73c3,0,5.36-1.25,6.69-3.2v1.32c0,3-1.46,5.36-6.13,5.36
				c-2.37,0-4.25-0.77-5.85-2.23c-0.21-0.21-0.56-0.14-0.7,0.07l-2.09,3.48c-0.28,0.42-0.21,0.7-0.07,0.84c2.16,1.88,4.88,3,8.92,3
				c8.78,0,11.36-4.88,11.36-10.24v-19.02C1310.19,242.72,1309.98,242.51,1309.7,242.51z M1299.39,258.53
				c-3.14,0-5.43-2.23-5.43-5.57c0-3.34,2.3-5.57,5.43-5.57s5.43,2.16,5.43,5.57S1302.53,258.53,1299.39,258.53z M1320.22,234.7
				v28.22c0,0.28-0.21,0.49-0.49,0.49h-4.6c-0.28,0-0.49-0.21-0.49-0.49V234.7c0-0.28,0.21-0.49,0.49-0.49h4.6
				C1320.01,234.22,1320.22,234.42,1320.22,234.7z M1333.88,242.09c-4.39,0-7.66,1.46-9.13,4.32c-0.07,0.21,0,0.49,0.14,0.56
				l3.34,2.37c0.21,0.14,0.49,0.07,0.63-0.14c0.91-1.67,3-2.23,5.02-2.23c2.44,0,3.62,0.91,3.62,2.09v0.35
				c0,0.49-0.28,0.77-1.11,0.84l-5.71,0.49c-3.83,0.35-6.69,2.72-6.69,6.55c0,3.83,2.93,6.48,7.04,6.48c3.27,0,5.36-1.6,6.41-3.27
				v2.37c0,0.28,0.21,0.49,0.49,0.49h4.6c0.28,0,0.49-0.21,0.49-0.49v-12.4C1343,244.74,1339.94,242.09,1333.88,242.09z
				 M1337.5,254.98c0,2.3-1.88,4.32-4.81,4.32c-1.95,0-2.93-0.91-2.93-2.23c0-1.18,0.91-2.02,2.58-2.3l5.16-0.63V254.98z
				 M1364.88,257.07c0,4.74-3.48,6.76-8.99,6.76c-3.83,0-7.11-1.05-8.99-3.14c-0.14-0.14-0.14-0.42,0-0.63l2.65-3.41
				c0.14-0.21,0.49-0.21,0.7,0c1.39,1.46,3.55,2.3,6.2,2.3c1.53,0,2.79-0.42,2.79-1.6c0-1.11-1.11-1.39-4.6-2.16
				c-3.07-0.63-6.9-2.02-6.9-6.55c0-4.18,3.34-6.62,8.78-6.62c3.62,0,6.2,1.11,8.01,2.79c0.21,0.14,0.21,0.42,0.07,0.63l-2.51,3.27
				c-0.14,0.21-0.49,0.28-0.63,0.07c-1.25-1.11-3.27-1.81-5.29-1.81c-1.74,0-2.65,0.56-2.65,1.46c0,1.05,1.11,1.32,4.81,2.09
				C1361.81,251.35,1364.88,252.68,1364.88,257.07z M1386.06,257.07c0,4.74-3.48,6.76-8.99,6.76c-3.83,0-7.11-1.05-8.99-3.14
				c-0.14-0.14-0.14-0.42,0-0.63l2.65-3.41c0.14-0.21,0.49-0.21,0.7,0c1.39,1.46,3.55,2.3,6.2,2.3c1.53,0,2.79-0.42,2.79-1.6
				c0-1.11-1.11-1.39-4.6-2.16c-3.07-0.63-6.9-2.02-6.9-6.55c0-4.18,3.34-6.62,8.78-6.62c3.62,0,6.2,1.11,8.01,2.79
				c0.21,0.14,0.21,0.42,0.07,0.63l-2.51,3.27c-0.14,0.21-0.49,0.28-0.63,0.07c-1.25-1.11-3.27-1.81-5.29-1.81
				c-1.74,0-2.65,0.56-2.65,1.46c0,1.05,1.11,1.32,4.81,2.09C1382.99,251.35,1386.06,252.68,1386.06,257.07z M1410.51,234.22h-4.6
				c-0.28,0-0.49,0.21-0.49,0.49v10.87c-1.39-2.02-3.76-3.55-6.97-3.55c-5.09,0-9.41,3.9-9.41,10.94c0,7.04,4.32,10.94,9.48,10.94
				c3.07,0,5.43-1.32,6.9-3.48v2.44c0,0.28,0.21,0.49,0.49,0.49h4.6c0.28,0,0.49-0.21,0.49-0.49v-28.22
				C1411,234.42,1410.79,234.22,1410.51,234.22z M1400.2,258.53c-3.14,0-5.43-2.23-5.43-5.57c0-3.34,2.3-5.57,5.43-5.57
				c3.07,0,5.43,2.16,5.43,5.57S1403.27,258.53,1400.2,258.53z M1425.56,242.02c-6.41,0-11.22,4.39-11.22,10.94
				c0,6.48,4.81,10.94,11.22,10.94s11.22-4.39,11.22-10.94C1436.78,246.48,1432.04,242.02,1425.56,242.02z M1425.56,258.46
				c-3.14,0-5.57-2.23-5.57-5.57c0-3.34,2.44-5.57,5.57-5.57c3.14,0,5.57,2.23,5.57,5.57
				C1431.14,256.3,1428.7,258.46,1425.56,258.46z M1451.06,242.02c-6.41,0-11.22,4.39-11.22,10.94c0,6.48,4.81,10.94,11.22,10.94
				s11.22-4.39,11.22-10.94C1462.28,246.48,1457.47,242.02,1451.06,242.02z M1451.06,258.46c-3.14,0-5.57-2.23-5.57-5.57
				c0-3.34,2.44-5.57,5.57-5.57s5.57,2.23,5.57,5.57C1456.57,256.3,1454.2,258.46,1451.06,258.46z M1480.25,242.99
				c0-0.21-0.14-0.42-0.35-0.56c-0.42-0.21-1.05-0.35-2.37-0.35c-2.93,0-5.5,1.46-6.62,3.83v-2.93c0-0.28-0.21-0.49-0.49-0.49h-4.39
				c-0.28,0-0.49,0.21-0.49,0.49v19.93c0,0.28,0.21,0.49,0.49,0.49h4.6c0.28,0,0.49-0.21,0.49-0.49V254c0-3.97,2.79-5.99,6.41-5.99
				c0.84,0,1.67,0.21,2.09,0.35c0.28,0.07,0.56-0.14,0.56-0.42L1480.25,242.99z"/>
		</g>
		<g id="icon_00000013153322694764594130000003728285707136156855_">
			<path class="st1" d="M1403.48,122.19c7.04,0,12.82,5.71,12.82,12.82l0,0h-51.21v52.53c0,0.28-0.21,0.49-0.49,0.49h-11.84
				c-0.28,0-0.49-0.21-0.49-0.49v-52.53l0,0c0-7.04,5.71-12.82,12.82-12.82l0,0H1403.48z M1403.48,199.03h-51.21l0,0
				c0,7.04,5.71,12.82,12.82,12.82h38.39l0,0c7.04,0,12.82-5.71,12.82-12.82l0,0v-52.6c0-0.28-0.21-0.49-0.49-0.49h-11.84
				c-0.28,0-0.49,0.21-0.49,0.49V199.03L1403.48,199.03z"/>
		</g>
	</g>
	<g>
		<g>
			<path class="st1" d="M1417.59,210.13v0.27h-0.5v1.31h-0.36v-1.31h-0.5v-0.27H1417.59z M1418.67,211.04c0,0.05,0,0.05,0.05,0.09
				c0,0.05,0,0.05,0.05,0.09c0-0.05,0-0.05,0.05-0.09c0,0,0-0.05,0.05-0.09l0.45-0.82c0-0.05,0.05-0.05,0.05-0.05h0.05h0.27v1.63
				h-0.32v-1.04l0.05-0.23l-0.5,0.91c-0.05,0.05-0.05,0.09-0.14,0.09h-0.05c-0.05,0-0.09-0.05-0.14-0.09l-0.5-0.91v0.18v1h-0.32
				v-1.63h0.27c0.05,0,0.05,0,0.05,0l0.05,0.05L1418.67,211.04z"/>
		</g>
	</g>
</g>
<g>
	<g>
		<g id="wordmark_00000002367848560279598620000002899012782515417267_">
			<path class="st1" d="M741.83,339.64h-4.6c-0.28,0-0.49,0.21-0.49,0.49v2.44c-1.18-1.88-3.55-3.41-6.76-3.41
				c-5.16,0-9.61,3.9-9.61,10.8c0,6.9,4.25,10.73,9.82,10.73c3,0,5.36-1.25,6.69-3.2v1.32c0,3-1.46,5.36-6.13,5.36
				c-2.37,0-4.25-0.77-5.85-2.23c-0.21-0.21-0.56-0.14-0.7,0.07l-2.09,3.48c-0.28,0.42-0.21,0.7-0.07,0.84c2.16,1.88,4.88,3,8.92,3
				c8.78,0,11.36-4.88,11.36-10.24v-19.02C742.31,339.85,742.1,339.64,741.83,339.64z M731.51,355.67c-3.14,0-5.43-2.23-5.43-5.57
				c0-3.34,2.3-5.57,5.43-5.57c3.14,0,5.43,2.16,5.43,5.57C736.95,353.51,734.65,355.67,731.51,355.67z M752.35,331.84v28.22
				c0,0.28-0.21,0.49-0.49,0.49h-4.6c-0.28,0-0.49-0.21-0.49-0.49v-28.22c0-0.28,0.21-0.49,0.49-0.49h4.6
				C752.14,331.35,752.35,331.56,752.35,331.84z M766,339.22c-4.39,0-7.66,1.46-9.13,4.32c-0.07,0.21,0,0.49,0.14,0.56l3.34,2.37
				c0.21,0.14,0.49,0.07,0.63-0.14c0.91-1.67,3-2.23,5.02-2.23c2.44,0,3.62,0.91,3.62,2.09v0.35c0,0.49-0.28,0.77-1.11,0.84
				l-5.71,0.49c-3.83,0.35-6.69,2.72-6.69,6.55c0,3.83,2.93,6.48,7.04,6.48c3.27,0,5.36-1.6,6.41-3.27v2.37
				c0,0.28,0.21,0.49,0.49,0.49h4.6c0.28,0,0.49-0.21,0.49-0.49v-12.4C775.13,341.87,772.06,339.22,766,339.22z M769.62,352.11
				c0,2.3-1.88,4.32-4.81,4.32c-1.95,0-2.93-0.91-2.93-2.23c0-1.18,0.91-2.02,2.58-2.3l5.16-0.63V352.11z M797,354.2
				c0,4.74-3.48,6.76-8.99,6.76c-3.83,0-7.11-1.05-8.99-3.14c-0.14-0.14-0.14-0.42,0-0.63l2.65-3.41c0.14-0.21,0.49-0.21,0.7,0
				c1.39,1.46,3.55,2.3,6.2,2.3c1.53,0,2.79-0.42,2.79-1.6c0-1.11-1.11-1.39-4.6-2.16c-3.07-0.63-6.9-2.02-6.9-6.55
				c0-4.18,3.34-6.62,8.78-6.62c3.62,0,6.2,1.11,8.01,2.79c0.21,0.14,0.21,0.42,0.07,0.63l-2.51,3.27
				c-0.14,0.21-0.49,0.28-0.63,0.07c-1.25-1.11-3.27-1.81-5.29-1.81c-1.74,0-2.65,0.56-2.65,1.46c0,1.05,1.11,1.32,4.81,2.09
				C793.94,348.49,797,349.81,797,354.2z M818.18,354.2c0,4.74-3.48,6.76-8.99,6.76c-3.83,0-7.11-1.05-8.99-3.14
				c-0.14-0.14-0.14-0.42,0-0.63l2.65-3.41c0.14-0.21,0.49-0.21,0.7,0c1.39,1.46,3.55,2.3,6.2,2.3c1.53,0,2.79-0.42,2.79-1.6
				c0-1.11-1.11-1.39-4.6-2.16c-3.07-0.63-6.9-2.02-6.9-6.55c0-4.18,3.34-6.62,8.78-6.62c3.62,0,6.2,1.11,8.01,2.79
				c0.21,0.14,0.21,0.42,0.07,0.63l-2.51,3.27c-0.14,0.21-0.49,0.28-0.63,0.07c-1.25-1.11-3.27-1.81-5.29-1.81
				c-1.74,0-2.65,0.56-2.65,1.46c0,1.05,1.11,1.32,4.81,2.09C815.12,348.49,818.18,349.81,818.18,354.2z M842.64,331.35h-4.6
				c-0.28,0-0.49,0.21-0.49,0.49v10.87c-1.39-2.02-3.76-3.55-6.97-3.55c-5.09,0-9.41,3.9-9.41,10.94c0,7.04,4.32,10.94,9.48,10.94
				c3.07,0,5.43-1.32,6.9-3.48v2.44c0,0.28,0.21,0.49,0.49,0.49h4.6c0.28,0,0.49-0.21,0.49-0.49v-28.22
				C843.13,331.56,842.92,331.35,842.64,331.35z M832.33,355.67c-3.14,0-5.43-2.23-5.43-5.57c0-3.34,2.3-5.57,5.43-5.57
				c3.07,0,5.43,2.16,5.43,5.57C837.76,353.51,835.39,355.67,832.33,355.67z M857.69,339.15c-6.41,0-11.22,4.39-11.22,10.94
				c0,6.48,4.81,10.94,11.22,10.94c6.41,0,11.22-4.39,11.22-10.94C868.9,343.61,864.17,339.15,857.69,339.15z M857.69,355.6
				c-3.14,0-5.57-2.23-5.57-5.57c0-3.34,2.44-5.57,5.57-5.57c3.14,0,5.57,2.23,5.57,5.57C863.26,353.44,860.82,355.6,857.69,355.6z
				 M883.19,339.15c-6.41,0-11.22,4.39-11.22,10.94c0,6.48,4.81,10.94,11.22,10.94s11.22-4.39,11.22-10.94
				C894.4,343.61,889.6,339.15,883.19,339.15z M883.19,355.6c-3.14,0-5.57-2.23-5.57-5.57c0-3.34,2.44-5.57,5.57-5.57
				c3.14,0,5.57,2.23,5.57,5.57C888.69,353.44,886.32,355.6,883.19,355.6z M912.38,340.13c0-0.21-0.14-0.42-0.35-0.56
				c-0.42-0.21-1.05-0.35-2.37-0.35c-2.93,0-5.5,1.46-6.62,3.83v-2.93c0-0.28-0.21-0.49-0.49-0.49h-4.39
				c-0.28,0-0.49,0.21-0.49,0.49v19.93c0,0.28,0.21,0.49,0.49,0.49h4.6c0.28,0,0.49-0.21,0.49-0.49v-8.92
				c0-3.97,2.79-5.99,6.41-5.99c0.84,0,1.67,0.21,2.09,0.35c0.28,0.07,0.56-0.14,0.56-0.42L912.38,340.13z"/>
		</g>
		<g id="icon_00000176761801455549926100000001534982583642575025_">
			<path class="st1" d="M835.6,219.32c7.04,0,12.82,5.71,12.82,12.82l0,0h-51.21v52.53c0,0.28-0.21,0.49-0.49,0.49h-11.84
				c-0.28,0-0.49-0.21-0.49-0.49v-52.53l0,0c0-7.04,5.71-12.82,12.82-12.82l0,0H835.6z M835.6,296.17h-51.21l0,0
				c0,7.04,5.71,12.82,12.82,12.82h38.39l0,0c7.04,0,12.82-5.71,12.82-12.82l0,0v-52.6c0-0.28-0.21-0.49-0.49-0.49h-11.84
				c-0.28,0-0.49,0.21-0.49,0.49V296.17L835.6,296.17z"/>
		</g>
	</g>
	<g>
		<g>
			<path class="st1" d="M849.71,307.27v0.27h-0.5v1.31h-0.36v-1.31h-0.5v-0.27H849.71z M850.8,308.17c0,0.05,0,0.05,0.05,0.09
				c0,0.05,0,0.05,0.05,0.09c0-0.05,0-0.05,0.05-0.09c0,0,0-0.05,0.05-0.09l0.45-0.82c0-0.05,0.05-0.05,0.05-0.05h0.05h0.27v1.63
				h-0.32v-1.04l0.05-0.23l-0.5,0.91c-0.05,0.05-0.05,0.09-0.14,0.09h-0.05c-0.05,0-0.09-0.05-0.14-0.09l-0.5-0.91v0.18v1h-0.32
				v-1.63h0.27c0.05,0,0.05,0,0.05,0l0.05,0.05L850.8,308.17z"/>
		</g>
	</g>
</g>
<g>
	<g>
		<g id="wordmark_00000060011443360861275040000018404700910067401626_">
			<path class="st1" d="M574.72,696.98h-4.6c-0.28,0-0.49,0.21-0.49,0.49v2.44c-1.18-1.88-3.55-3.41-6.76-3.41
				c-5.16,0-9.61,3.9-9.61,10.8s4.25,10.73,9.82,10.73c3,0,5.36-1.25,6.69-3.2v1.32c0,3-1.46,5.36-6.13,5.36
				c-2.37,0-4.25-0.77-5.85-2.23c-0.21-0.21-0.56-0.14-0.7,0.07l-2.09,3.48c-0.28,0.42-0.21,0.7-0.07,0.84c2.16,1.88,4.88,3,8.92,3
				c8.78,0,11.36-4.88,11.36-10.24V697.4C575.21,697.19,575,696.98,574.72,696.98z M564.41,713.01c-3.14,0-5.43-2.23-5.43-5.57
				s2.3-5.57,5.43-5.57c3.14,0,5.43,2.16,5.43,5.57S567.54,713.01,564.41,713.01z M585.24,689.18v28.22c0,0.28-0.21,0.49-0.49,0.49
				h-4.6c-0.28,0-0.49-0.21-0.49-0.49v-28.22c0-0.28,0.21-0.49,0.49-0.49h4.6C585.03,688.69,585.24,688.9,585.24,689.18z
				 M598.89,696.57c-4.39,0-7.66,1.46-9.13,4.32c-0.07,0.21,0,0.49,0.14,0.56l3.34,2.37c0.21,0.14,0.49,0.07,0.63-0.14
				c0.91-1.67,3-2.23,5.02-2.23c2.44,0,3.62,0.91,3.62,2.09v0.35c0,0.49-0.28,0.77-1.11,0.84l-5.71,0.49
				c-3.83,0.35-6.69,2.72-6.69,6.55c0,3.83,2.93,6.48,7.04,6.48c3.27,0,5.36-1.6,6.41-3.27v2.37c0,0.28,0.21,0.49,0.49,0.49h4.6
				c0.28,0,0.49-0.21,0.49-0.49v-12.4C608.02,699.21,604.95,696.57,598.89,696.57z M602.52,709.46c0,2.3-1.88,4.32-4.81,4.32
				c-1.95,0-2.93-0.91-2.93-2.23c0-1.18,0.91-2.02,2.58-2.3l5.16-0.63V709.46z M629.9,711.55c0,4.74-3.48,6.76-8.99,6.76
				c-3.83,0-7.11-1.05-8.99-3.14c-0.14-0.14-0.14-0.42,0-0.63l2.65-3.41c0.14-0.21,0.49-0.21,0.7,0c1.39,1.46,3.55,2.3,6.2,2.3
				c1.53,0,2.79-0.42,2.79-1.6c0-1.11-1.11-1.39-4.6-2.16c-3.07-0.63-6.9-2.02-6.9-6.55c0-4.18,3.34-6.62,8.78-6.62
				c3.62,0,6.2,1.11,8.01,2.79c0.21,0.14,0.21,0.42,0.07,0.63l-2.51,3.27c-0.14,0.21-0.49,0.28-0.63,0.07
				c-1.25-1.11-3.27-1.81-5.29-1.81c-1.74,0-2.65,0.56-2.65,1.46c0,1.05,1.11,1.32,4.81,2.09
				C626.83,705.83,629.9,707.16,629.9,711.55z M651.08,711.55c0,4.74-3.48,6.76-8.99,6.76c-3.83,0-7.11-1.05-8.99-3.14
				c-0.14-0.14-0.14-0.42,0-0.63l2.65-3.41c0.14-0.21,0.49-0.21,0.7,0c1.39,1.46,3.55,2.3,6.2,2.3c1.53,0,2.79-0.42,2.79-1.6
				c0-1.11-1.11-1.39-4.6-2.16c-3.07-0.63-6.9-2.02-6.9-6.55c0-4.18,3.34-6.62,8.78-6.62c3.62,0,6.2,1.11,8.01,2.79
				c0.21,0.14,0.21,0.42,0.07,0.63l-2.51,3.27c-0.14,0.21-0.49,0.28-0.63,0.07c-1.25-1.11-3.27-1.81-5.29-1.81
				c-1.74,0-2.65,0.56-2.65,1.46c0,1.05,1.11,1.32,4.81,2.09C648.01,705.83,651.08,707.16,651.08,711.55z M675.53,688.69h-4.6
				c-0.28,0-0.49,0.21-0.49,0.49v10.87c-1.39-2.02-3.76-3.55-6.97-3.55c-5.09,0-9.41,3.9-9.41,10.94s4.32,10.94,9.48,10.94
				c3.07,0,5.43-1.32,6.9-3.48v2.44c0,0.28,0.21,0.49,0.49,0.49h4.6c0.28,0,0.49-0.21,0.49-0.49v-28.22
				C676.02,688.9,675.81,688.69,675.53,688.69z M665.22,713.01c-3.14,0-5.43-2.23-5.43-5.57s2.3-5.57,5.43-5.57
				c3.07,0,5.43,2.16,5.43,5.57S668.28,713.01,665.22,713.01z M690.58,696.5c-6.41,0-11.22,4.39-11.22,10.94
				c0,6.48,4.81,10.94,11.22,10.94s11.22-4.39,11.22-10.94C701.8,700.96,697.06,696.5,690.58,696.5z M690.58,712.94
				c-3.14,0-5.57-2.23-5.57-5.57c0-3.34,2.44-5.57,5.57-5.57c3.14,0,5.57,2.23,5.57,5.57C696.15,710.78,693.71,712.94,690.58,712.94
				z M716.08,696.5c-6.41,0-11.22,4.39-11.22,10.94c0,6.48,4.81,10.94,11.22,10.94s11.22-4.39,11.22-10.94
				C727.3,700.96,722.49,696.5,716.08,696.5z M716.08,712.94c-3.14,0-5.57-2.23-5.57-5.57c0-3.34,2.44-5.57,5.57-5.57
				c3.14,0,5.57,2.23,5.57,5.57C721.58,710.78,719.21,712.94,716.08,712.94z M745.27,697.47c0-0.21-0.14-0.42-0.35-0.56
				c-0.42-0.21-1.05-0.35-2.37-0.35c-2.93,0-5.5,1.46-6.62,3.83v-2.93c0-0.28-0.21-0.49-0.49-0.49h-4.39
				c-0.28,0-0.49,0.21-0.49,0.49v19.93c0,0.28,0.21,0.49,0.49,0.49h4.6c0.28,0,0.49-0.21,0.49-0.49v-8.92
				c0-3.97,2.79-5.99,6.41-5.99c0.84,0,1.67,0.21,2.09,0.35c0.28,0.07,0.56-0.14,0.56-0.42L745.27,697.47z"/>
		</g>
		<g id="icon_00000083079711643995280260000011903285051035193783_">
			<path class="st1" d="M668.49,576.66c7.04,0,12.82,5.71,12.82,12.82l0,0h-51.21v52.53c0,0.28-0.21,0.49-0.49,0.49h-11.84
				c-0.28,0-0.49-0.21-0.49-0.49v-52.53l0,0c0-7.04,5.71-12.82,12.82-12.82l0,0H668.49z M668.49,653.51h-51.21l0,0
				c0,7.04,5.71,12.82,12.82,12.82h38.39l0,0c7.04,0,12.82-5.71,12.82-12.82l0,0v-52.6c0-0.28-0.21-0.49-0.49-0.49h-11.84
				c-0.28,0-0.49,0.21-0.49,0.49V653.51L668.49,653.51z"/>
		</g>
	</g>
	<g>
		<g>
			<path class="st1" d="M682.6,664.61v0.27h-0.5v1.31h-0.36v-1.31h-0.5v-0.27H682.6z M683.69,665.51c0,0.05,0,0.05,0.05,0.09
				c0,0.05,0,0.05,0.05,0.09c0-0.05,0-0.05,0.05-0.09c0,0,0-0.05,0.05-0.09l0.45-0.82c0-0.05,0.05-0.05,0.05-0.05h0.05h0.27v1.63
				h-0.32v-1.04l0.05-0.23l-0.5,0.91c-0.05,0.05-0.05,0.09-0.14,0.09h-0.05c-0.05,0-0.09-0.05-0.14-0.09l-0.5-0.91v0.18v1h-0.32
				v-1.63h0.27c0.05,0,0.05,0,0.05,0l0.05,0.05L683.69,665.51z"/>
		</g>
	</g>
</g>
<g>
	<g>
		<path class="st2" d="M896.12,669.02c-11.06-8.6-57.86-47.9-47.88-89.92l136.21,32.35c-9.98,42.02-69.45,56.08-83.2,58.79
			C899.44,670.6,897.58,670.16,896.12,669.02z"/>
	</g>
	<g>
		<circle class="st2" cx="889" cy="588.78" r="41.89"/>
	</g>
	<g>
		<circle class="st2" cx="943.69" cy="601.77" r="41.89"/>
	</g>
	<g>
		<circle class="st3" cx="943.69" cy="601.77" r="35.53"/>
	</g>
	<g>
		<circle class="st3" cx="889" cy="588.78" r="35.53"/>
	</g>
	<g>
		<path class="st3" d="M900.05,663.9c0,0-55.89-40.08-45.62-83.33l123.83,29.41C967.99,653.23,900.05,663.9,900.05,663.9z"/>
	</g>
	<g>
		<path class="st4" d="M863.53,588.19c4.53-19.09,23.69-30.89,42.78-26.36c3.5,0.83,6.75,2.16,9.71,3.88
			c-4.72-5.54-11.18-9.68-18.8-11.49c-19.09-4.53-38.24,7.27-42.78,26.36c-9.26,38.99,35.25,75.4,44.1,82.19
			C882.87,648.64,856.15,619.23,863.53,588.19z"/>
	</g>
	<g>
		<path class="st2" d="M925.92,619.25l-28.9-6.86c-2.28-0.54-4.57,0.87-5.11,3.15c-2.43,10.24,3.92,20.55,14.16,22.99
			c10.19,2.42,20.44-3.85,22.95-14c0.02-0.05,0.03-0.11,0.04-0.17C929.61,622.08,928.2,619.8,925.92,619.25z"/>
	</g>
	<g>
		<g>
			
				<ellipse transform="matrix(0.2311 -0.9729 0.9729 0.2311 85.8053 1367.7322)" class="st3" cx="908.2" cy="629.58" rx="4.95" ry="11.05"/>
		</g>
	</g>
	<g>
		<g>
			<g>
				<path class="st2" d="M926.06,592.07c3.95-1.97,9.11-1.28,12.21,1.98c1.63,1.64,3.55,5.59,0.39,6.51
					c-0.78,0.19-1.47-0.16-2.07-0.58c-2.23-1.6-4.11-2.55-6.78-3.13c-1.16-0.3-2.49-0.44-3.57-0.95
					C924.56,595.3,924.48,592.8,926.06,592.07L926.06,592.07z"/>
			</g>
			<g>
				<path class="st2" d="M906.42,591.32c-2.49-0.56-5.09-1.42-7.64-1.23c-0.89-0.01-2.07,0.27-3.18,0.34
					c-1.85,0.24-3.09-2.11-1.9-3.51c2.77-3.7,8.53-3.95,12.26-1.67c1.79,1.06,5.13,3.66,2.71,5.74
					C908.03,591.51,907.17,591.4,906.42,591.32L906.42,591.32z"/>
			</g>
			<g>
				<g>
					<path class="st2" d="M904.58,608.19c-1.42-0.34-2.31-1.77-1.97-3.19c0.34-1.42-0.54-2.85-1.97-3.19
						c-1.42-0.34-2.85,0.54-3.19,1.97c-0.34,1.42-1.77,2.31-3.19,1.97c-1.42-0.34-2.31-1.77-1.97-3.19c1.01-4.27,5.31-6.91,9.58-5.9
						s6.91,5.31,5.9,9.58C907.44,607.65,906.01,608.53,904.58,608.19z"/>
				</g>
			</g>
			<g>
				<g>
					<path class="st2" d="M931.37,614.55c-1.42-0.34-2.31-1.77-1.97-3.19c0.34-1.42-0.54-2.85-1.97-3.19
						c-1.42-0.34-2.85,0.54-3.19,1.97c-0.34,1.42-1.77,2.31-3.19,1.97c-1.42-0.34-2.31-1.77-1.97-3.19c1.01-4.27,5.31-6.91,9.58-5.9
						c4.27,1.01,6.91,5.31,5.9,9.58C934.22,614.01,932.79,614.89,931.37,614.55z"/>
				</g>
			</g>
		</g>
	</g>
</g>
<g>
	<g>
		<path class="st2" d="M1593.27,487.44c-11.06-8.6-57.86-47.9-47.88-89.92l136.21,32.35c-9.98,42.02-69.45,56.08-83.2,58.79
			C1596.59,489.01,1594.73,488.57,1593.27,487.44z"/>
	</g>
	<g>
		<circle class="st2" cx="1586.15" cy="407.2" r="41.89"/>
	</g>
	<g>
		<circle class="st2" cx="1640.84" cy="420.19" r="41.89"/>
	</g>
	<g>
		<circle class="st3" cx="1640.84" cy="420.19" r="35.53"/>
	</g>
	<g>
		<circle class="st3" cx="1586.15" cy="407.2" r="35.53"/>
	</g>
	<g>
		<path class="st3" d="M1597.2,482.31c0,0-55.89-40.08-45.62-83.33l123.83,29.41C1665.14,471.64,1597.2,482.31,1597.2,482.31z"/>
	</g>
	<g>
		<path class="st4" d="M1560.67,406.6c4.53-19.09,23.69-30.89,42.78-26.36c3.5,0.83,6.75,2.16,9.71,3.88
			c-4.72-5.54-11.18-9.68-18.8-11.49c-19.09-4.53-38.24,7.27-42.78,26.36c-9.26,38.99,35.25,75.4,44.1,82.19
			C1580.02,467.05,1553.3,437.64,1560.67,406.6z"/>
	</g>
	<g>
		<path class="st2" d="M1623.07,437.67l-28.9-6.86c-2.28-0.54-4.57,0.87-5.11,3.15c-2.43,10.24,3.92,20.55,14.16,22.99
			c10.19,2.42,20.44-3.85,22.95-14c0.02-0.05,0.03-0.11,0.04-0.17C1626.75,440.5,1625.35,438.21,1623.07,437.67z"/>
	</g>
	<g>
		<g>
			
				<ellipse transform="matrix(0.2311 -0.9729 0.9729 0.2311 798.5408 1906.3856)" class="st3" cx="1605.35" cy="447.99" rx="4.95" ry="11.05"/>
		</g>
	</g>
	<g>
		<g>
			<g>
				<path class="st2" d="M1623.21,410.48c3.95-1.97,9.11-1.28,12.21,1.98c1.63,1.64,3.55,5.59,0.39,6.51
					c-0.78,0.19-1.47-0.16-2.07-0.58c-2.23-1.6-4.11-2.55-6.78-3.13c-1.16-0.3-2.49-0.44-3.57-0.95
					C1621.71,413.71,1621.63,411.21,1623.21,410.48L1623.21,410.48z"/>
			</g>
			<g>
				<path class="st2" d="M1603.57,409.73c-2.49-0.56-5.09-1.42-7.64-1.23c-0.89-0.01-2.07,0.27-3.18,0.34
					c-1.85,0.24-3.09-2.11-1.9-3.51c2.77-3.7,8.53-3.95,12.26-1.67c1.79,1.06,5.13,3.66,2.71,5.74
					C1605.18,409.93,1604.32,409.81,1603.57,409.73L1603.57,409.73z"/>
			</g>
			<g>
				<g>
					<path class="st2" d="M1601.73,426.6c-1.42-0.34-2.31-1.77-1.97-3.19c0.34-1.42-0.54-2.85-1.97-3.19
						c-1.42-0.34-2.85,0.54-3.19,1.97c-0.34,1.42-1.77,2.31-3.19,1.97s-2.31-1.77-1.97-3.19c1.01-4.27,5.31-6.91,9.58-5.9
						c4.27,1.01,6.91,5.31,5.9,9.58C1604.59,426.06,1603.16,426.94,1601.73,426.6z"/>
				</g>
			</g>
			<g>
				<g>
					<path class="st2" d="M1628.52,432.97c-1.42-0.34-2.31-1.77-1.97-3.19c0.34-1.42-0.54-2.85-1.97-3.19
						c-1.42-0.34-2.85,0.54-3.19,1.97c-0.34,1.42-1.77,2.31-3.19,1.97c-1.42-0.34-2.31-1.77-1.97-3.19c1.01-4.27,5.31-6.91,9.58-5.9
						c4.27,1.01,6.91,5.31,5.9,9.58C1631.37,432.42,1629.94,433.3,1628.52,432.97z"/>
				</g>
			</g>
		</g>
	</g>
</g>
<g>
	<g>
		<path class="st2" d="M1048.4,336.48c-10.79-8.94-56.33-49.69-45.05-91.37l135.13,36.59c-11.29,41.68-71.17,53.88-84.99,56.16
			C1051.68,338.16,1049.83,337.66,1048.4,336.48z"/>
	</g>
	<g>
		<circle class="st2" cx="1043.8" cy="256.06" r="41.89"/>
	</g>
	<g>
		<circle class="st2" cx="1098.05" cy="270.75" r="41.89"/>
	</g>
	<g>
		<circle class="st3" cx="1098.05" cy="270.75" r="35.53"/>
	</g>
	<g>
		<circle class="st3" cx="1043.8" cy="256.06" r="35.53"/>
	</g>
	<g>
		<path class="st3" d="M1052.49,331.48c0,0-54.61-41.81-42.99-84.71l122.85,33.26C1120.73,322.94,1052.49,331.48,1052.49,331.48z"/>
	</g>
	<g>
		<path class="st4" d="M1018.35,254.66c5.13-18.94,24.64-30.14,43.58-25.01c3.47,0.94,6.68,2.37,9.58,4.18
			c-4.55-5.68-10.87-10.03-18.43-12.07c-18.94-5.13-38.45,6.07-43.58,25.01c-10.47,38.68,32.88,76.46,41.51,83.53
			C1035.8,315.69,1010.01,285.46,1018.35,254.66z"/>
	</g>
	<g>
		<path class="st2" d="M1079.74,287.66l-28.67-7.76c-2.26-0.61-4.59,0.72-5.2,2.99c-2.75,10.16,3.28,20.67,13.44,23.42
			c10.11,2.74,20.55-3.21,23.37-13.27c0.02-0.05,0.03-0.11,0.05-0.16C1083.34,290.61,1082.01,288.28,1079.74,287.66z"/>
	</g>
	<g>
		<g>
			
				<ellipse transform="matrix(0.2614 -0.9652 0.9652 0.2614 497.1286 1244.5026)" class="st3" cx="1061.71" cy="297.43" rx="4.95" ry="11.05"/>
		</g>
	</g>
	<g>
		<g>
			<g>
				<path class="st2" d="M1080.74,260.49c4.01-1.85,9.14-0.99,12.14,2.36c1.57,1.69,3.37,5.7,0.18,6.52
					c-0.79,0.16-1.46-0.21-2.05-0.65c-2.18-1.67-4.03-2.68-6.68-3.34c-1.15-0.34-2.48-0.51-3.54-1.06
					C1079.14,263.68,1079.13,261.18,1080.74,260.49L1080.74,260.49z"/>
			</g>
			<g>
				<path class="st2" d="M1061.13,259.13c-2.48-0.64-5.04-1.58-7.6-1.46c-0.89-0.04-2.08,0.21-3.19,0.24
					c-1.86,0.18-3.02-2.21-1.79-3.57c2.88-3.61,8.65-3.68,12.31-1.29c1.76,1.12,5.02,3.82,2.53,5.82
					C1062.73,259.38,1061.87,259.24,1061.13,259.13L1061.13,259.13z"/>
			</g>
			<g>
				<g>
					<path class="st2" d="M1058.76,275.94c-1.41-0.38-2.25-1.84-1.87-3.25c0.38-1.41-0.45-2.87-1.87-3.25s-2.87,0.46-3.25,1.87
						c-0.38,1.41-1.84,2.25-3.25,1.87c-1.41-0.38-2.25-1.84-1.87-3.25c1.15-4.23,5.52-6.75,9.76-5.6s6.75,5.52,5.6,9.76
						C1061.63,275.49,1060.18,276.32,1058.76,275.94z"/>
				</g>
			</g>
			<g>
				<g>
					<path class="st2" d="M1085.34,283.13c-1.41-0.38-2.25-1.84-1.87-3.25c0.38-1.41-0.45-2.87-1.87-3.25
						c-1.41-0.38-2.87,0.46-3.25,1.87c-0.38,1.41-1.84,2.25-3.25,1.87c-1.41-0.38-2.25-1.84-1.87-3.25c1.15-4.23,5.52-6.75,9.76-5.6
						c4.23,1.15,6.75,5.52,5.6,9.76C1088.21,282.68,1086.75,283.52,1085.34,283.13z"/>
				</g>
			</g>
		</g>
	</g>
</g>
<g>
	<g>
		<path class="st2" d="M1486.68,710.01c-10.79-8.94-56.33-49.69-45.05-91.37l135.13,36.59c-11.29,41.68-71.17,53.88-84.99,56.16
			C1489.95,711.69,1488.1,711.19,1486.68,710.01z"/>
	</g>
	<g>
		<circle class="st2" cx="1482.07" cy="629.59" r="41.89"/>
	</g>
	<g>
		<circle class="st2" cx="1536.33" cy="644.28" r="41.89"/>
	</g>
	<g>
		<circle class="st3" cx="1536.33" cy="644.28" r="35.53"/>
	</g>
	<g>
		<circle class="st3" cx="1482.07" cy="629.59" r="35.53"/>
	</g>
	<g>
		<path class="st3" d="M1490.77,705.02c0,0-54.61-41.81-42.99-84.71l122.85,33.26C1559.01,696.47,1490.77,705.02,1490.77,705.02z"/>
	</g>
	<g>
		<path class="st4" d="M1456.63,628.2c5.13-18.94,24.64-30.14,43.58-25.01c3.47,0.94,6.68,2.37,9.58,4.18
			c-4.55-5.68-10.87-10.03-18.43-12.07c-18.94-5.13-38.45,6.07-43.58,25.01c-10.47,38.68,32.88,76.46,41.51,83.53
			C1474.07,689.22,1448.29,658.99,1456.63,628.2z"/>
	</g>
	<g>
		<path class="st2" d="M1518.02,661.2l-28.67-7.76c-2.26-0.61-4.59,0.72-5.2,2.99c-2.75,10.16,3.28,20.67,13.44,23.42
			c10.11,2.74,20.55-3.21,23.37-13.27c0.02-0.05,0.03-0.11,0.05-0.16C1521.61,664.14,1520.28,661.81,1518.02,661.2z"/>
	</g>
	<g>
		<g>
			
				<ellipse transform="matrix(0.2614 -0.9652 0.9652 0.2614 460.3038 1943.4523)" class="st3" cx="1499.99" cy="670.97" rx="4.95" ry="11.05"/>
		</g>
	</g>
	<g>
		<g>
			<g>
				<path class="st2" d="M1519.01,634.03c4.01-1.85,9.14-0.99,12.14,2.36c1.57,1.69,3.37,5.7,0.18,6.52
					c-0.79,0.16-1.46-0.21-2.05-0.65c-2.18-1.67-4.03-2.68-6.68-3.34c-1.15-0.34-2.48-0.51-3.54-1.06
					C1517.41,637.22,1517.4,634.71,1519.01,634.03L1519.01,634.03z"/>
			</g>
			<g>
				<path class="st2" d="M1499.4,632.67c-2.48-0.64-5.04-1.58-7.6-1.46c-0.89-0.04-2.08,0.21-3.19,0.24
					c-1.86,0.18-3.02-2.21-1.79-3.57c2.88-3.61,8.65-3.68,12.31-1.29c1.76,1.12,5.02,3.82,2.53,5.82
					C1501,632.91,1500.15,632.77,1499.4,632.67L1499.4,632.67z"/>
			</g>
			<g>
				<g>
					<path class="st2" d="M1497.04,649.48c-1.41-0.38-2.25-1.84-1.87-3.25c0.38-1.41-0.45-2.87-1.87-3.25
						c-1.41-0.38-2.87,0.46-3.25,1.87c-0.38,1.41-1.84,2.25-3.25,1.87c-1.41-0.38-2.25-1.84-1.87-3.25c1.15-4.23,5.52-6.75,9.76-5.6
						c4.23,1.15,6.75,5.52,5.6,9.76C1499.91,649.02,1498.45,649.86,1497.04,649.48z"/>
				</g>
			</g>
			<g>
				<g>
					<path class="st2" d="M1523.61,656.67c-1.41-0.38-2.25-1.84-1.87-3.25c0.38-1.41-0.45-2.87-1.87-3.25
						c-1.41-0.38-2.87,0.46-3.25,1.87c-0.38,1.41-1.84,2.25-3.25,1.87c-1.41-0.38-2.25-1.84-1.87-3.25c1.15-4.23,5.52-6.75,9.76-5.6
						c4.23,1.15,6.75,5.52,5.6,9.76C1526.48,656.22,1525.02,657.05,1523.61,656.67z"/>
				</g>
			</g>
		</g>
	</g>
</g>
<g>
	<g>
		<path class="st2" d="M80.08,170.77c-10.79-8.94-56.33-49.69-45.05-91.37l135.13,36.59c-11.29,41.68-71.17,53.88-84.99,56.16
			C83.36,172.45,81.5,171.94,80.08,170.77z"/>
	</g>
	<g>
		<circle class="st2" cx="75.48" cy="90.34" r="41.89"/>
	</g>
	<g>
		<circle class="st2" cx="129.73" cy="105.03" r="41.89"/>
	</g>
	<g>
		<circle class="st3" cx="129.73" cy="105.03" r="35.53"/>
	</g>
	<g>
		<circle class="st3" cx="75.48" cy="90.34" r="35.53"/>
	</g>
	<g>
		<path class="st3" d="M84.17,165.77c0,0-54.61-41.81-42.99-84.71l122.85,33.26C152.41,157.22,84.17,165.77,84.17,165.77z"/>
	</g>
	<g>
		<path class="st4" d="M50.03,88.95c5.13-18.94,24.64-30.14,43.58-25.01c3.47,0.94,6.68,2.37,9.58,4.18
			c-4.55-5.68-10.87-10.03-18.43-12.07c-18.94-5.13-38.45,6.07-43.58,25.01c-10.47,38.68,32.88,76.46,41.51,83.53
			C67.48,149.98,41.69,119.74,50.03,88.95z"/>
	</g>
	<g>
		<path class="st2" d="M111.42,121.95l-28.67-7.76c-2.26-0.61-4.59,0.72-5.2,2.99c-2.75,10.16,3.28,20.67,13.44,23.42
			c10.11,2.74,20.55-3.21,23.37-13.27c0.02-0.05,0.03-0.11,0.05-0.16C115.02,124.89,113.68,122.56,111.42,121.95z"/>
	</g>
	<g>
		<g>
			
				<ellipse transform="matrix(0.2614 -0.9652 0.9652 0.2614 -58.1592 187.4363)" class="st3" cx="93.39" cy="131.72" rx="4.95" ry="11.05"/>
		</g>
	</g>
	<g>
		<g>
			<g>
				<path class="st2" d="M112.41,94.78c4.01-1.85,9.14-0.99,12.14,2.36c1.57,1.69,3.37,5.7,0.18,6.52
					c-0.79,0.16-1.46-0.21-2.05-0.65c-2.18-1.67-4.03-2.68-6.68-3.34c-1.15-0.34-2.48-0.51-3.54-1.06
					C110.82,97.97,110.81,95.46,112.41,94.78L112.41,94.78z"/>
			</g>
			<g>
				<path class="st2" d="M92.8,93.42c-2.48-0.64-5.04-1.58-7.6-1.46c-0.89-0.04-2.08,0.21-3.19,0.24c-1.86,0.18-3.02-2.21-1.79-3.57
					c2.88-3.61,8.65-3.68,12.31-1.29c1.76,1.12,5.02,3.82,2.53,5.82C94.41,93.66,93.55,93.52,92.8,93.42L92.8,93.42z"/>
			</g>
			<g>
				<g>
					<path class="st2" d="M90.44,110.23c-1.41-0.38-2.25-1.84-1.87-3.25c0.38-1.41-0.45-2.87-1.87-3.25
						c-1.41-0.38-2.87,0.46-3.25,1.87c-0.38,1.41-1.84,2.25-3.25,1.87s-2.25-1.84-1.87-3.25c1.15-4.23,5.52-6.75,9.76-5.6
						c4.23,1.15,6.75,5.52,5.6,9.76C93.31,109.77,91.86,110.61,90.44,110.23z"/>
				</g>
			</g>
			<g>
				<g>
					<path class="st2" d="M117.01,117.42c-1.41-0.38-2.25-1.84-1.87-3.25c0.38-1.41-0.45-2.87-1.87-3.25s-2.87,0.46-3.25,1.87
						c-0.38,1.41-1.84,2.25-3.25,1.87s-2.25-1.84-1.87-3.25c1.15-4.23,5.52-6.75,9.76-5.6c4.23,1.15,6.75,5.52,5.6,9.76
						C119.88,116.97,118.43,117.8,117.01,117.42z"/>
				</g>
			</g>
		</g>
	</g>
</g>
<g>
	<g>
		<path class="st2" d="M447.84,496.51c-2.53-13.78-11.32-74.26,24.08-98.99l80.16,114.78c-35.4,24.73-89.16-4.34-101.23-11.46
			C449.27,499.9,448.17,498.33,447.84,496.51z"/>
	</g>
	<g>
		<circle class="st2" cx="495.91" cy="431.88" r="41.89"/>
	</g>
	<g>
		<circle class="st2" cx="528.1" cy="477.96" r="41.89"/>
	</g>
	<g>
		<circle class="st3" cx="528.1" cy="477.96" r="35.53"/>
	</g>
	<g>
		<circle class="st3" cx="495.91" cy="431.88" r="35.53"/>
	</g>
	<g>
		<path class="st3" d="M454.18,495.3c0,0-15.06-67.11,21.38-92.56l72.88,104.34C512,532.54,454.18,495.3,454.18,495.3z"/>
	</g>
	<g>
		<path class="st4" d="M477.29,414.48c16.09-11.24,38.24-7.3,49.47,8.78c2.06,2.95,3.6,6.1,4.66,9.35
			c0.16-7.28-1.9-14.66-6.39-21.09c-11.24-16.09-33.39-20.02-49.47-8.78c-32.85,22.95-23.85,79.74-21.76,90.7
			C451.51,472.48,451.13,432.75,477.29,414.48z"/>
	</g>
	<g>
		<path class="st2" d="M503.2,479.19l-17.01-24.35c-1.34-1.92-3.99-2.39-5.91-1.05c-8.63,6.03-10.75,17.95-4.72,26.58
			c5.99,8.58,17.82,10.72,26.44,4.82c0.05-0.03,0.1-0.06,0.14-0.1C504.07,483.75,504.54,481.11,503.2,479.19z"/>
	</g>
	<g>
		<g>
			
				<ellipse transform="matrix(0.8198 -0.5726 0.5726 0.8198 -185.0085 362.2219)" class="st3" cx="483.1" cy="475.11" rx="4.95" ry="11.05"/>
		</g>
	</g>
	<g>
		<g>
			<g>
				<path class="st2" d="M521.39,458.98c4.26,1.16,7.65,5.1,7.79,9.6c0.12,2.31-1.08,6.54-4.04,5.12c-0.71-0.38-0.99-1.1-1.16-1.81
					c-0.6-2.68-1.37-4.64-2.98-6.85c-0.67-1-1.57-1.98-2.03-3.08C518.12,460.4,519.72,458.48,521.39,458.98L521.39,458.98z"/>
			</g>
			<g>
				<path class="st2" d="M507.23,445.35c-1.49-2.08-2.85-4.45-4.89-6c-0.66-0.6-1.73-1.18-2.6-1.86c-1.54-1.06-0.9-3.63,0.92-3.88
					c4.52-0.92,9,2.73,10.27,6.91c0.63,1.98,1.4,6.15-1.79,6.09C508.3,446.57,507.73,445.91,507.23,445.35L507.23,445.35z"/>
			</g>
			<g>
				<g>
					<path class="st2" d="M494.63,456.73c-0.84-1.2-0.55-2.85,0.66-3.69c1.2-0.84,1.49-2.49,0.66-3.69
						c-0.84-1.2-2.49-1.49-3.69-0.66c-1.2,0.84-2.85,0.55-3.69-0.66c-0.84-1.2-0.55-2.85,0.66-3.69c3.6-2.51,8.56-1.63,11.08,1.97
						c2.51,3.6,1.63,8.56-1.97,11.08C497.12,458.23,495.47,457.93,494.63,456.73z"/>
				</g>
			</g>
			<g>
				<g>
					<path class="st2" d="M510.39,479.3c-0.84-1.2-0.55-2.85,0.66-3.69c1.2-0.84,1.49-2.49,0.66-3.69c-0.84-1.2-2.49-1.49-3.69-0.66
						c-1.2,0.84-2.85,0.55-3.69-0.66c-0.84-1.2-0.55-2.85,0.66-3.69c3.6-2.51,8.56-1.63,11.08,1.97s1.63,8.56-1.97,11.08
						C512.88,480.79,511.23,480.5,510.39,479.3z"/>
				</g>
			</g>
		</g>
	</g>
</g>
<g>
	<g>
		<g>
			<path class="st2" d="M1264.43,424.19c-14.01-0.28-75.02-3.79-92.15-43.44l128.52-55.53c17.13,39.64-22.12,86.48-31.52,96.87
				C1268.04,423.47,1266.28,424.23,1264.43,424.19z"/>
		</g>
		<g>
			<circle class="st2" cx="1210.74" cy="364.14" r="41.89"/>
		</g>
		<g>
			<circle class="st2" cx="1262.34" cy="341.84" r="41.89"/>
		</g>
		<g>
			<circle class="st3" cx="1262.34" cy="341.84" r="35.53"/>
		</g>
		<g>
			<circle class="st3" cx="1210.74" cy="364.14" r="35.53"/>
		</g>
		<g>
			<path class="st3" d="M1264.52,417.73c0,0-68.76,1.3-86.39-39.5l116.83-50.48C1312.59,368.55,1264.52,417.73,1264.52,417.73z"/>
		</g>
		<g>
			<path class="st4" d="M1189.97,378.89c-7.78-18.01,0.51-38.93,18.52-46.71c3.3-1.43,6.7-2.31,10.1-2.69
				c-7.1-1.61-14.75-1.07-21.94,2.03c-18.01,7.78-26.31,28.7-18.52,46.71c15.89,36.79,73.34,39.35,84.5,39.5
				C1241.62,415.77,1202.62,408.18,1189.97,378.89z"/>
		</g>
	</g>
	<g>
		<g>
			<path class="st2" d="M1251.94,369.2c-0.44,0-0.87-0.14-1.24-0.43c-0.87-0.69-1.01-1.94-0.32-2.81c2.15-2.72,6.55-4.61,10-4.32
				c1.1,0.09,1.92,1.06,1.82,2.16c-0.09,1.1-1.06,1.91-2.16,1.82c-2.14-0.18-5.19,1.14-6.53,2.82
				C1253.11,368.94,1252.53,369.2,1251.94,369.2z"/>
		</g>
		<g>
			<circle class="st2" cx="1253" cy="358.3" r="7"/>
		</g>
		<g>
			<circle class="st5" cx="1254.61" cy="357.61" r="1.75"/>
		</g>
		<g>
			<path class="st2" d="M1242.48,346.49c1.83-3.95,6.44-6.5,10.78-5.51c2.17,0.45,5.83,2.51,3.85,4.94
				c-0.52,0.56-1.24,0.67-1.94,0.63c-3.09-0.25-5.59,0.34-8.28,1.81c-0.66,0.35-1.32,0.66-2,0.84
				C1243.29,349.77,1241.73,347.97,1242.48,346.49L1242.48,346.49z"/>
		</g>
		<g>
			<path class="st2" d="M1228.07,379.51c-0.44,0-0.87-0.14-1.24-0.43c-0.87-0.69-1.01-1.94-0.32-2.81c2.15-2.71,6.54-4.62,10-4.32
				c1.1,0.09,1.92,1.06,1.82,2.16c-0.09,1.1-1.06,1.92-2.16,1.82c-2.13-0.17-5.19,1.14-6.53,2.82
				C1229.25,379.25,1228.66,379.51,1228.07,379.51z"/>
		</g>
		<g>
			<circle class="st2" cx="1229.13" cy="368.61" r="7"/>
		</g>
		<g>
			<circle class="st5" cx="1230.74" cy="367.92" r="1.75"/>
		</g>
		<g>
			<path class="st2" d="M1227.39,356.84c-1.52,0.63-3.42,1.2-4.78,2.07c-1.48,0.88-2.29,1.85-3.52,3.22
				c-0.76,1.04-2.26,1.37-3.23,0.41c-0.41-0.39-0.62-0.93-0.63-1.46c-0.02-1.39,0.3-2.87,1.11-4.16c1.84-3.21,5.78-4.86,9.33-4.51
				c1.64,0.12,3.95,0.75,3.32,2.94C1228.78,356.13,1228.03,356.51,1227.39,356.84L1227.39,356.84z"/>
		</g>
		<g>
			<path class="st2" d="M1238.84,383.86c-1.49,0-2.99-0.12-4.48-0.38c-1.09-0.19-1.82-1.22-1.63-2.31c0.19-1.09,1.21-1.82,2.31-1.63
				c8.65,1.49,17.81-2.45,21.77-9.37c0.55-0.96,1.77-1.29,2.73-0.74c0.96,0.55,1.29,1.77,0.74,2.73
				C1256.14,379.4,1247.72,383.86,1238.84,383.86z"/>
		</g>
		<g>
			<path class="st2" d="M1246.23,385.93c2.1-0.25,4.16-0.96,5.96-2.07c1.14-0.52,2.3-2.44,3.57-1.15c0.67,0.66,0.16,1.63-0.1,2.33
				c-0.34,0.92-0.92,1.59-1.57,2.17c-2.24,1.84-5.42,2.49-8.15,1.39C1244.54,388.17,1244.78,386.05,1246.23,385.93L1246.23,385.93z"
				/>
		</g>
	</g>
</g>
<g>
	<g>
		<g>
			<path class="st2" d="M1164.52,159.35c-9.79-10.03-50.8-55.33-35.2-95.6l130.55,50.57c-15.6,40.27-76.43,46.11-90.42,46.93
				C1167.59,161.37,1165.81,160.68,1164.52,159.35z"/>
		</g>
		<g>
			<circle class="st2" cx="1168.38" cy="78.89" r="41.89"/>
		</g>
		<g>
			<circle class="st2" cx="1220.79" cy="99.2" r="41.89"/>
		</g>
		<g>
			<circle class="st3" cx="1220.79" cy="99.2" r="35.53"/>
		</g>
		<g>
			<circle class="st3" cx="1168.38" cy="78.89" r="35.53"/>
		</g>
		<g>
			<path class="st3" d="M1169.11,154.81c0,0-49.92-47.31-33.86-88.76l118.68,45.98C1237.87,153.48,1169.11,154.81,1169.11,154.81z"
				/>
		</g>
		<g>
			<path class="st4" d="M1143.22,74.83c7.09-18.3,27.67-27.38,45.97-20.3c3.35,1.3,6.4,3.06,9.09,5.16
				c-3.93-6.13-9.76-11.11-17.06-13.94c-18.3-7.09-38.88,2-45.97,20.3c-14.48,37.37,24.67,79.49,32.51,87.43
				C1154.16,137.36,1131.69,104.58,1143.22,74.83z"/>
		</g>
	</g>
	<g>
		<g>
			<path class="st2" d="M1203.98,115.23c-0.56,0-1.12-0.24-1.52-0.7c-1.4-1.63-4.5-2.83-6.63-2.57c-1.09,0.14-2.09-0.64-2.23-1.74
				c-0.13-1.1,0.64-2.09,1.74-2.23c3.44-0.43,7.9,1.3,10.16,3.93c0.72,0.84,0.62,2.1-0.22,2.82
				C1204.91,115.07,1204.44,115.23,1203.98,115.23z"/>
		</g>
		<g>
			<circle class="st2" cx="1202.59" cy="104.37" r="7"/>
		</g>
		<g>
			<circle class="st5" cx="1204.22" cy="105.01" r="1.75"/>
		</g>
		<g>
			<path class="st2" d="M1203.37,88.58c4.07-1.53,9.15-0.11,11.54,3.63c1.23,1.85,2.39,5.87-0.72,6.22
				c-0.76,0.04-1.35-0.4-1.83-0.91c-1.79-1.97-3.36-3.22-5.87-4.07c-1.07-0.42-2.34-0.67-3.32-1.25
				C1201.65,91.48,1201.8,89.11,1203.37,88.58L1203.37,88.58z"/>
		</g>
		<g>
			<path class="st2" d="M1179.74,105.83c-0.56,0-1.12-0.24-1.52-0.7c-1.4-1.63-4.5-2.83-6.63-2.57c-1.09,0.14-2.09-0.64-2.23-1.74
				c-0.13-1.1,0.64-2.09,1.74-2.23c3.44-0.42,7.9,1.3,10.16,3.93c0.72,0.84,0.62,2.1-0.22,2.82
				C1180.66,105.68,1180.2,105.83,1179.74,105.83z"/>
		</g>
		<g>
			<circle class="st2" cx="1178.34" cy="94.98" r="7"/>
		</g>
		<g>
			<circle class="st5" cx="1179.97" cy="95.61" r="1.75"/>
		</g>
		<g>
			<path class="st2" d="M1185.36,85.37c-1.52-0.62-3.28-1.54-4.86-1.87c-1.67-0.41-2.93-0.29-4.76-0.17
				c-1.29,0.2-2.56-0.6-2.59-1.97c-0.02-0.57,0.21-1.1,0.57-1.48c0.96-1,2.22-1.83,3.71-2.19c3.56-1,7.53,0.59,9.81,3.33
				c1.08,1.23,2.29,3.31,0.3,4.42C1186.85,85.84,1186.05,85.58,1185.36,85.37L1185.36,85.37z"/>
		</g>
		<g>
			<path class="st2" d="M1192.27,120.14c-7.78,0-15.71-4.03-20.63-10.9c-0.64-0.9-0.44-2.15,0.46-2.79c0.9-0.65,2.15-0.44,2.79,0.46
				c5.12,7.14,14.41,10.75,22.09,8.59c1.06-0.3,2.17,0.32,2.47,1.39c0.3,1.06-0.32,2.17-1.39,2.47
				C1196.18,119.88,1194.23,120.14,1192.27,120.14z"/>
		</g>
		<g>
			<path class="st2" d="M1178.38,119.31c2.23,1.71,4.96,2.85,7.78,3.02c1.37,0.03,1.75,1.97,0.51,2.52
				c-3.74,2.25-8.73-0.08-10.37-3.83C1175.6,119.73,1177.27,118.38,1178.38,119.31L1178.38,119.31z"/>
		</g>
	</g>
</g>
<g>
	<g>
		<g>
			<path class="st2" d="M763.31,540.14c-14.01-0.28-75.02-3.79-92.15-43.44l128.52-55.53c17.13,39.64-22.12,86.48-31.52,96.87
				C766.91,539.42,765.15,540.18,763.31,540.14z"/>
		</g>
		<g>
			<circle class="st2" cx="709.62" cy="480.09" r="41.89"/>
		</g>
		<g>
			<circle class="st2" cx="761.22" cy="457.79" r="41.89"/>
		</g>
		<g>
			<circle class="st3" cx="761.22" cy="457.79" r="35.53"/>
		</g>
		<g>
			<circle class="st3" cx="709.62" cy="480.09" r="35.53"/>
		</g>
		<g>
			<path class="st3" d="M763.39,533.68c0,0-68.76,1.3-86.39-39.5l116.83-50.48C811.46,484.5,763.39,533.68,763.39,533.68z"/>
		</g>
		<g>
			<path class="st4" d="M688.84,494.84c-7.78-18.01,0.51-38.93,18.52-46.71c3.3-1.43,6.7-2.31,10.1-2.69
				c-7.1-1.61-14.75-1.07-21.94,2.03c-18.01,7.78-26.31,28.7-18.52,46.71c15.89,36.79,73.34,39.35,84.5,39.5
				C740.5,531.72,701.49,524.13,688.84,494.84z"/>
		</g>
	</g>
	<g>
		<g>
			<path class="st2" d="M750.81,485.15c-0.44,0-0.87-0.14-1.24-0.43c-0.87-0.69-1.01-1.94-0.32-2.81c2.15-2.72,6.55-4.61,10-4.32
				c1.1,0.09,1.92,1.06,1.82,2.16s-1.06,1.92-2.16,1.82c-2.14-0.19-5.19,1.14-6.53,2.82C751.99,484.89,751.4,485.15,750.81,485.15z"
				/>
		</g>
		<g>
			<circle class="st2" cx="751.87" cy="474.25" r="7"/>
		</g>
		<g>
			<circle class="st5" cx="753.48" cy="473.56" r="1.75"/>
		</g>
		<g>
			<path class="st2" d="M741.35,462.44c1.83-3.95,6.44-6.5,10.78-5.51c2.17,0.45,5.83,2.51,3.85,4.94
				c-0.52,0.56-1.24,0.67-1.94,0.63c-3.09-0.25-5.59,0.34-8.28,1.81c-0.66,0.35-1.32,0.66-2,0.84
				C742.16,465.72,740.61,463.92,741.35,462.44L741.35,462.44z"/>
		</g>
		<g>
			<path class="st2" d="M726.95,495.46c-0.44,0-0.87-0.14-1.24-0.43c-0.87-0.69-1.01-1.94-0.32-2.81c2.15-2.71,6.54-4.6,10-4.32
				c1.1,0.09,1.92,1.06,1.82,2.16s-1.05,1.92-2.16,1.82c-2.14-0.19-5.19,1.14-6.53,2.82C728.12,495.2,727.54,495.46,726.95,495.46z"
				/>
		</g>
		<g>
			<circle class="st2" cx="728.01" cy="484.56" r="7"/>
		</g>
		<g>
			<circle class="st5" cx="729.61" cy="483.87" r="1.75"/>
		</g>
		<g>
			<path class="st2" d="M726.27,472.79c-1.52,0.63-3.42,1.2-4.78,2.07c-1.48,0.88-2.29,1.85-3.52,3.22
				c-0.76,1.04-2.26,1.37-3.23,0.41c-0.41-0.39-0.62-0.93-0.63-1.46c-0.02-1.39,0.3-2.87,1.11-4.16c1.84-3.21,5.78-4.86,9.33-4.51
				c1.64,0.12,3.95,0.75,3.32,2.94C727.65,472.08,726.91,472.46,726.27,472.79L726.27,472.79z"/>
		</g>
		<g>
			<path class="st2" d="M737.72,499.81c-1.49,0-2.99-0.12-4.48-0.38c-1.09-0.19-1.82-1.22-1.63-2.31c0.19-1.09,1.22-1.81,2.31-1.63
				c8.66,1.5,17.81-2.45,21.77-9.37c0.55-0.96,1.77-1.29,2.73-0.74c0.96,0.55,1.29,1.77,0.74,2.73
				C755.01,495.35,746.59,499.81,737.72,499.81z"/>
		</g>
		<g>
			<path class="st2" d="M745.1,501.88c2.1-0.25,4.16-0.96,5.96-2.07c1.14-0.52,2.3-2.44,3.57-1.15c0.67,0.66,0.16,1.63-0.1,2.33
				c-0.34,0.92-0.92,1.59-1.57,2.17c-2.24,1.84-5.42,2.49-8.15,1.39C743.41,504.13,743.65,502,745.1,501.88L745.1,501.88z"/>
		</g>
	</g>
</g>
<g>
	<g>
		<g>
			<path class="st2" d="M1285.52,628.55c-11.6,7.86-63.45,40.2-100.32,17.72l72.89-119.53c36.87,22.49,31.85,83.39,30.17,97.3
				C1288.05,625.88,1287.05,627.51,1285.52,628.55z"/>
		</g>
		<g>
			<circle class="st2" cx="1207.01" cy="610.5" r="41.89"/>
		</g>
		<g>
			<circle class="st2" cx="1236.28" cy="562.51" r="41.89"/>
		</g>
		<g>
			<circle class="st3" cx="1236.28" cy="562.51" r="35.53"/>
		</g>
		<g>
			<circle class="st3" cx="1207.01" cy="610.5" r="35.53"/>
		</g>
		<g>
			<path class="st3" d="M1281.86,623.23c0,0-55.4,40.75-93.35,17.61l66.27-108.66C1292.73,555.32,1281.86,623.23,1281.86,623.23z"/>
		</g>
		<g>
			<path class="st4" d="M1198.56,634.54c-16.75-10.22-22.05-32.08-11.83-48.83c1.87-3.07,4.14-5.75,6.69-8.03
				c-6.73,2.78-12.66,7.63-16.74,14.32c-10.22,16.75-4.92,38.62,11.83,48.83c34.21,20.87,82.61-10.2,91.8-16.52
				C1262.04,634.84,1225.8,651.15,1198.56,634.54z"/>
		</g>
	</g>
	<g>
		<g>
			<path class="st2" d="M1242.43,591.22c-0.04,0-0.08,0-0.11,0c-1.1-0.06-1.95-1-1.89-2.11c0.19-3.46,2.68-7.54,5.67-9.3
				c0.95-0.56,2.18-0.24,2.74,0.71c0.56,0.95,0.24,2.18-0.71,2.74c-1.85,1.09-3.58,3.92-3.7,6.07
				C1244.36,590.4,1243.48,591.22,1242.43,591.22z"/>
		</g>
		<g>
			<circle class="st2" cx="1238.15" cy="581.34" r="7"/>
		</g>
		<g>
			<circle class="st5" cx="1239.06" cy="579.85" r="1.75"/>
		</g>
		<g>
			<path class="st2" d="M1222.74,577.77c-0.79-4.28,1.51-9.03,5.62-10.72c2.04-0.88,6.2-1.32,5.99,1.81
				c-0.1,0.76-0.63,1.26-1.22,1.64c-2.26,1.41-3.77,2.74-5.05,5.05c-0.6,0.98-1.07,2.18-1.82,3.05
				C1225.3,579.98,1222.99,579.41,1222.74,577.77L1222.74,577.77z"/>
		</g>
		<g>
			<path class="st2" d="M1228.89,613.42c-0.04,0-0.07,0-0.11,0c-1.1-0.06-1.95-1-1.89-2.11c0.19-3.46,2.68-7.54,5.67-9.3
				c0.95-0.56,2.18-0.24,2.74,0.71c0.56,0.95,0.24,2.18-0.71,2.74c-1.85,1.09-3.58,3.92-3.7,6.07
				C1230.83,612.59,1229.94,613.42,1228.89,613.42z"/>
		</g>
		<g>
			<circle class="st2" cx="1224.61" cy="603.54" r="7"/>
		</g>
		<g>
			<circle class="st5" cx="1225.52" cy="602.05" r="1.75"/>
		</g>
		<g>
			<path class="st2" d="M1216.4,594.93c-0.88,1.39-2.1,2.96-2.7,4.45c-0.7,1.57-0.81,2.83-1.02,4.66c-0.03,1.3-1.04,2.41-2.4,2.2
				c-0.56-0.08-1.04-0.4-1.36-0.82c-0.81-1.12-1.41-2.51-1.5-4.04c-0.35-3.68,1.91-7.31,5.01-9.07c1.41-0.85,3.66-1.67,4.41,0.48
				C1217.12,593.55,1216.73,594.29,1216.4,594.93L1216.4,594.93z"/>
		</g>
		<g>
			<path class="st2" d="M1236.6,612.85c-0.75,0-1.46-0.42-1.81-1.14c-0.47-1-0.05-2.19,0.95-2.67c7.93-3.77,13.13-12.28,12.37-20.22
				c-0.1-1.1,0.7-2.08,1.8-2.18c1.09-0.11,2.08,0.7,2.18,1.8c0.93,9.71-5.09,19.67-14.63,24.22
				C1237.18,612.79,1236.89,612.85,1236.6,612.85z"/>
		</g>
		<g>
			<path class="st2" d="M1248.57,607.82c2.08-1.89,3.68-4.38,4.35-7.12c0.27-1.34,2.25-1.37,2.57-0.06c0,0,0.27,1.01,0.27,1.01
				c0.81,3.82-2.25,7.62-5.88,8.51C1248.49,610.62,1247.46,608.74,1248.57,607.82L1248.57,607.82z"/>
		</g>
	</g>
</g>
<g>
	<g>
		<g>
			<path class="st2" d="M142.52,423.05c-11.6,7.86-63.45,40.2-100.32,17.72l72.89-119.53c36.87,22.49,31.85,83.39,30.17,97.3
				C145.05,420.37,144.05,422.01,142.52,423.05z"/>
		</g>
		<g>
			<circle class="st2" cx="64.02" cy="405" r="41.89"/>
		</g>
		<g>
			<circle class="st2" cx="93.29" cy="357.01" r="41.89"/>
		</g>
		<g>
			<circle class="st3" cx="93.29" cy="357.01" r="35.53"/>
		</g>
		<g>
			<circle class="st3" cx="64.02" cy="405" r="35.53"/>
		</g>
		<g>
			<path class="st3" d="M138.87,417.73c0,0-55.4,40.75-93.35,17.61l66.27-108.66C149.73,349.82,138.87,417.73,138.87,417.73z"/>
		</g>
		<g>
			<path class="st4" d="M55.57,429.04c-16.75-10.22-22.05-32.08-11.83-48.83c1.87-3.07,4.14-5.75,6.69-8.03
				c-6.73,2.78-12.66,7.63-16.74,14.32c-10.22,16.75-4.92,38.62,11.83,48.83c34.21,20.87,82.61-10.2,91.8-16.52
				C119.04,429.34,82.81,445.65,55.57,429.04z"/>
		</g>
	</g>
	<g>
		<g>
			<path class="st2" d="M99.43,385.72c-0.04,0-0.07,0-0.11,0c-1.1-0.06-1.95-1-1.89-2.11c0.19-3.46,2.68-7.54,5.67-9.3
				c0.95-0.56,2.18-0.24,2.74,0.71c0.56,0.95,0.24,2.18-0.71,2.74c-1.85,1.09-3.58,3.92-3.7,6.07
				C101.37,384.89,100.48,385.72,99.43,385.72z"/>
		</g>
		<g>
			<circle class="st2" cx="95.16" cy="375.84" r="7"/>
		</g>
		<g>
			<circle class="st5" cx="96.07" cy="374.35" r="1.75"/>
		</g>
		<g>
			<path class="st2" d="M79.75,372.27c-0.79-4.28,1.51-9.03,5.62-10.72c2.04-0.88,6.2-1.32,5.99,1.81c-0.1,0.76-0.63,1.26-1.22,1.64
				c-2.26,1.41-3.77,2.74-5.05,5.05c-0.6,0.98-1.07,2.18-1.82,3.05C82.3,374.48,79.99,373.91,79.75,372.27L79.75,372.27z"/>
		</g>
		<g>
			<path class="st2" d="M85.89,407.92c-0.04,0-0.07,0-0.11,0c-1.1-0.06-1.95-1-1.89-2.11c0.19-3.46,2.68-7.54,5.67-9.3
				c0.95-0.56,2.18-0.24,2.74,0.71c0.56,0.95,0.24,2.18-0.71,2.74c-1.85,1.09-3.58,3.92-3.7,6.07
				C87.83,407.09,86.95,407.92,85.89,407.92z"/>
		</g>
		<g>
			<circle class="st2" cx="81.62" cy="398.04" r="7"/>
		</g>
		<g>
			<circle class="st5" cx="82.53" cy="396.54" r="1.75"/>
		</g>
		<g>
			<path class="st2" d="M73.4,389.43c-0.88,1.39-2.1,2.96-2.7,4.45c-0.7,1.57-0.81,2.83-1.02,4.66c-0.03,1.3-1.04,2.41-2.4,2.2
				c-0.56-0.08-1.04-0.4-1.36-0.82c-0.81-1.12-1.41-2.51-1.5-4.04c-0.35-3.68,1.91-7.31,5.01-9.07c1.41-0.85,3.66-1.67,4.41,0.48
				C74.12,388.05,73.73,388.79,73.4,389.43L73.4,389.43z"/>
		</g>
		<g>
			<path class="st2" d="M93.61,407.35c-0.75,0-1.46-0.42-1.81-1.14c-0.48-1-0.05-2.19,0.95-2.67c7.93-3.78,13.13-12.28,12.37-20.22
				c-0.11-1.1,0.7-2.08,1.8-2.18c1.11-0.1,2.08,0.7,2.18,1.8c0.93,9.71-5.09,19.67-14.63,24.22
				C94.19,407.29,93.9,407.35,93.61,407.35z"/>
		</g>
		<g>
			<path class="st2" d="M105.57,402.31c2.08-1.89,3.68-4.38,4.35-7.12c0.27-1.34,2.25-1.37,2.57-0.06c0,0,0.27,1.01,0.27,1.01
				c0.81,3.82-2.25,7.62-5.88,8.51C105.49,405.12,104.46,403.24,105.57,402.31L105.57,402.31z"/>
		</g>
	</g>
</g>
<g>
	<g>
		<g>
			<path class="st2" d="M58.57,632.18c6.46-12.44,36.64-65.58,79.76-63.37l-7.15,139.82c-43.13-2.21-67.73-58.14-72.88-71.18
				C57.62,635.74,57.71,633.82,58.57,632.18z"/>
		</g>
		<g>
			<circle class="st2" cx="136.19" cy="610.65" r="41.89"/>
		</g>
		<g>
			<circle class="st2" cx="133.32" cy="666.79" r="41.89"/>
		</g>
		<g>
			<circle class="st3" cx="133.32" cy="666.79" r="35.53"/>
		</g>
		<g>
			<circle class="st3" cx="136.19" cy="610.65" r="35.53"/>
		</g>
		<g>
			<path class="st3" d="M64.32,635.12c0,0,29.3-62.22,73.69-59.95l-6.5,127.11C87.11,700.01,64.32,635.12,64.32,635.12z"/>
		</g>
		<g>
			<path class="st4" d="M132.17,585.49c19.6,1,34.67,17.7,33.67,37.3c-0.18,3.59-0.9,7.03-2.06,10.25c4.59-5.65,7.5-12.75,7.9-20.57
				c1-19.6-14.07-36.3-33.67-37.3c-40.02-2.05-67.77,48.32-72.85,58.26C76.22,615.46,100.3,583.86,132.17,585.49z"/>
		</g>
	</g>
	<g>
		<g>
			<path class="st2" d="M114.73,657.22c-0.35,0-0.71-0.09-1.03-0.29c-0.95-0.57-1.25-1.8-0.68-2.75c1.11-1.84,1.28-5.16,0.36-7.1
				c-0.47-1-0.04-2.19,0.95-2.66c1-0.47,2.19-0.04,2.66,0.95c1.48,3.13,1.24,7.91-0.56,10.88
				C116.07,656.88,115.41,657.22,114.73,657.22z"/>
		</g>
		<g>
			<circle class="st2" cx="122.7" cy="651.12" r="7"/>
		</g>
		<g>
			<circle class="st5" cx="122.61" cy="652.87" r="1.75"/>
		</g>
		<g>
			<path class="st2" d="M137.95,646.92c2.73,3.39,2.98,8.66,0.17,12.1c-1.37,1.75-4.83,4.11-6.13,1.26
				c-0.28-0.71-0.05-1.41,0.3-2.02c1.59-2.66,2.17-5.16,2.04-8.23c-0.02-0.74-0.01-1.48,0.13-2.17
				C134.65,646.2,136.96,645.6,137.95,646.92L137.95,646.92z"/>
		</g>
		<g>
			<path class="st2" d="M116.06,631.26c-0.35,0-0.71-0.09-1.03-0.29c-0.95-0.57-1.25-1.8-0.68-2.75c1.11-1.84,1.28-5.16,0.36-7.1
				c-0.47-1-0.04-2.19,0.95-2.66c1-0.47,2.19-0.04,2.66,0.95c1.48,3.13,1.24,7.91-0.56,10.88
				C117.4,630.91,116.74,631.26,116.06,631.26z"/>
		</g>
		<g>
			<circle class="st2" cx="124.03" cy="625.16" r="7"/>
		</g>
		<g>
			<circle class="st5" cx="123.94" cy="626.91" r="1.75"/>
		</g>
		<g>
			<path class="st2" d="M135.35,628.81c0.11-1.64,0.44-3.6,0.26-5.2c-0.13-1.72-0.64-2.87-1.33-4.58c-0.59-1.16-0.23-2.62,1.06-3.08
				c0.54-0.19,1.11-0.15,1.58,0.08c1.25,0.6,2.44,1.54,3.24,2.84c2.06,3.07,1.8,7.33-0.09,10.36c-0.82,1.41-2.45,3.21-4.11,1.67
				C135.38,630.37,135.37,629.54,135.35,628.81L135.35,628.81z"/>
		</g>
		<g>
			<path class="st2" d="M108.72,652.41c-0.64,0-1.28-0.31-1.66-0.88c-5.45-8.1-4.9-19.72,1.33-28.26c0.65-0.89,1.9-1.09,2.79-0.44
				c0.89,0.65,1.09,1.9,0.44,2.79c-5.17,7.09-5.7,17.05-1.24,23.67c0.62,0.92,0.37,2.16-0.54,2.78
				C109.49,652.3,109.11,652.41,108.72,652.41z"/>
		</g>
		<g>
			<path class="st2" d="M100.93,632.81c-0.92,2.65-1.15,5.61-0.43,8.33c0.4,1.31-1.33,2.28-2.23,1.28c0,0-0.72-0.76-0.72-0.76
				c-2.53-2.97-1.65-7.77,1.11-10.29C99.67,630.3,101.47,631.46,100.93,632.81L100.93,632.81z"/>
		</g>
	</g>
</g>
<g>
	<g>
		<g>
			<path class="st2" d="M605.69,305.02c-13.88-1.92-74.06-12.56-86.42-53.94L653.4,211c12.36,41.38-32.11,83.29-42.66,92.51
				C609.36,304.73,607.52,305.28,605.69,305.02z"/>
		</g>
		<g>
			<circle class="st2" cx="559.41" cy="239.09" r="41.89"/>
		</g>
		<g>
			<circle class="st2" cx="613.26" cy="223" r="41.89"/>
		</g>
		<g>
			<circle class="st3" cx="613.26" cy="223" r="35.53"/>
		</g>
		<g>
			<circle class="st3" cx="559.41" cy="239.09" r="35.53"/>
		</g>
		<g>
			<path class="st3" d="M606.53,298.62c0,0-68.44-6.77-81.17-49.36l121.94-36.44C660.03,255.41,606.53,298.62,606.53,298.62z"/>
		</g>
		<g>
			<path class="st4" d="M537.04,251.31c-5.62-18.8,5.07-38.6,23.87-44.22c3.45-1.03,6.93-1.51,10.35-1.49
				c-6.86-2.43-14.52-2.8-22.03-0.55c-18.8,5.62-29.49,25.41-23.87,44.22c11.47,38.4,68.22,47.68,79.29,49.13
				C584.02,293.99,546.18,281.88,537.04,251.31z"/>
		</g>
	</g>
	<g>
		<g>
			<path class="st2" d="M599.96,248.96c-0.51,0-1.03-0.2-1.42-0.59c-0.78-0.78-0.78-2.05,0.01-2.83c2.46-2.44,7.04-3.81,10.44-3.12
				c1.08,0.22,1.78,1.28,1.56,2.36s-1.28,1.78-2.36,1.56c-2.1-0.43-5.29,0.52-6.81,2.04C600.98,248.77,600.47,248.96,599.96,248.96z
				"/>
		</g>
		<g>
			<circle class="st2" cx="602.06" cy="238.25" r="7"/>
		</g>
		<g>
			<circle class="st5" cx="603.73" cy="237.75" r="1.75"/>
		</g>
		<g>
			<path class="st2" d="M592.99,225.29c2.28-3.71,7.16-5.7,11.35-4.21c2.1,0.71,5.49,3.17,3.24,5.36c-0.58,0.5-1.31,0.52-2.01,0.4
				c-3.03-0.61-5.59-0.32-8.43,0.83c-0.69,0.27-1.39,0.5-2.09,0.6C593.41,228.64,592.08,226.67,592.99,225.29L592.99,225.29z"/>
		</g>
		<g>
			<path class="st2" d="M575.05,256.41c-0.51,0-1.03-0.2-1.42-0.59c-0.78-0.78-0.78-2.05,0.01-2.83c2.46-2.44,7.04-3.81,10.44-3.12
				c1.08,0.22,1.78,1.28,1.56,2.36c-0.22,1.08-1.28,1.78-2.36,1.56c-2.1-0.43-5.29,0.52-6.81,2.04
				C576.07,256.21,575.56,256.41,575.05,256.41z"/>
		</g>
		<g>
			<circle class="st2" cx="577.14" cy="245.69" r="7"/>
		</g>
		<g>
			<circle class="st5" cx="578.82" cy="245.19" r="1.75"/>
		</g>
		<g>
			<path class="st2" d="M576.8,233.8c-1.58,0.44-3.54,0.79-4.99,1.5c-1.57,0.7-2.49,1.56-3.87,2.78c-0.88,0.94-2.4,1.09-3.26,0.03
				c-0.36-0.44-0.51-0.99-0.46-1.52c0.15-1.38,0.63-2.81,1.59-4c2.21-2.97,6.31-4.15,9.79-3.39c1.61,0.31,3.84,1.21,2.95,3.31
				C578.26,233.25,577.47,233.54,576.8,233.8L576.8,233.8z"/>
		</g>
		<g>
			<path class="st2" d="M588.12,262.15c-2.51,0-5.04-0.35-7.52-1.09c-1.06-0.31-1.66-1.43-1.35-2.49c0.31-1.06,1.43-1.66,2.49-1.35
				c8.42,2.5,17.98-0.34,22.72-6.76c0.66-0.89,1.91-1.07,2.8-0.42c0.89,0.66,1.07,1.91,0.42,2.8
				C603.29,258.78,595.86,262.15,588.12,262.15z"/>
		</g>
		<g>
			<path class="st2" d="M592.09,264.89c2.81-0.02,5.67-0.8,8-2.39c1.1-0.82,2.59,0.49,1.95,1.68c-0.5,1.13-1.27,2.29-2.28,2.9
				c-2.44,1.56-5.67,1.84-8.26,0.43C590.15,266.93,590.64,264.84,592.09,264.89L592.09,264.89z"/>
		</g>
	</g>
</g>
<g>
	<g>
		<g>
			<path class="st2" d="M382.63,701.85c-13.99-0.82-74.82-6.7-90.39-46.98l130.57-50.5c15.58,40.28-25.46,85.55-35.26,95.58
				C386.27,701.27,384.48,701.96,382.63,701.85z"/>
		</g>
		<g>
			<circle class="st2" cx="331.31" cy="639.76" r="41.89"/>
		</g>
		<g>
			<circle class="st2" cx="383.74" cy="619.48" r="41.89"/>
		</g>
		<g>
			<circle class="st3" cx="383.74" cy="619.48" r="35.53"/>
		</g>
		<g>
			<circle class="st3" cx="331.31" cy="639.76" r="35.53"/>
		</g>
		<g>
			<path class="st3" d="M382.97,695.4c0,0-68.76-1.37-84.79-42.83l118.7-45.91C432.91,648.12,382.97,695.4,382.97,695.4z"/>
		</g>
		<g>
			<path class="st4" d="M309.98,653.7c-7.08-18.3,2.02-38.88,20.32-45.96c3.35-1.3,6.79-2.05,10.2-2.3
				c-7.03-1.89-14.69-1.65-22,1.18c-18.3,7.08-27.4,27.65-20.32,45.96c14.46,37.38,71.76,42.17,82.9,42.75
				C360.17,692.56,321.49,683.45,309.98,653.7z"/>
		</g>
	</g>
	<g>
		<g>
			<path class="st2" d="M372.36,646.42c-0.46,0-0.92-0.16-1.3-0.48c-0.84-0.72-0.94-1.98-0.22-2.82c2.26-2.63,6.72-4.36,10.16-3.93
				c1.1,0.14,1.87,1.13,1.74,2.23s-1.13,1.88-2.23,1.74c-2.13-0.26-5.23,0.93-6.63,2.57C373.48,646.18,372.92,646.42,372.36,646.42z
				"/>
		</g>
		<g>
			<circle class="st2" cx="373.76" cy="635.57" r="7"/>
		</g>
		<g>
			<circle class="st5" cx="375.4" cy="634.93" r="1.75"/>
		</g>
		<g>
			<path class="st2" d="M363.71,623.36c1.98-3.88,6.69-6.25,10.98-5.09c2.15,0.54,5.72,2.73,3.65,5.09
				c-0.54,0.54-1.27,0.62-1.97,0.56c-3.07-0.37-5.6,0.12-8.34,1.49c-0.67,0.32-1.34,0.61-2.04,0.76
				C364.39,626.67,362.91,624.8,363.71,623.36L363.71,623.36z"/>
		</g>
		<g>
			<path class="st2" d="M348.11,655.8c-0.46,0-0.92-0.16-1.3-0.48c-0.84-0.72-0.94-1.98-0.22-2.82c2.26-2.63,6.71-4.36,10.16-3.93
				c1.1,0.14,1.87,1.13,1.74,2.23c-0.14,1.1-1.13,1.88-2.23,1.74c-2.13-0.26-5.23,0.93-6.63,2.57
				C349.23,655.56,348.68,655.8,348.11,655.8z"/>
		</g>
		<g>
			<circle class="st2" cx="349.51" cy="644.95" r="7"/>
		</g>
		<g>
			<circle class="st5" cx="351.15" cy="644.31" r="1.75"/>
		</g>
		<g>
			<path class="st2" d="M348.23,633.12c-1.54,0.57-3.47,1.07-4.85,1.89c-1.51,0.82-2.36,1.75-3.64,3.08
				c-0.8,1.01-2.31,1.28-3.24,0.29c-0.4-0.41-0.59-0.95-0.57-1.48c0.04-1.39,0.41-2.85,1.27-4.12c1.96-3.14,5.96-4.64,9.5-4.15
				c1.63,0.18,3.92,0.9,3.2,3.07C349.64,632.46,348.89,632.8,348.23,633.12L348.23,633.12z"/>
		</g>
		<g>
			<path class="st2" d="M359.66,660.58c-1.82,0-3.67-0.19-5.49-0.58c-1.08-0.23-1.77-1.29-1.54-2.37c0.23-1.08,1.29-1.77,2.37-1.54
				c8.59,1.83,17.89-1.76,22.12-8.52c0.58-0.94,1.82-1.22,2.76-0.64c0.94,0.59,1.22,1.82,0.64,2.76
				C376.25,656.5,368.16,660.58,359.66,660.58z"/>
		</g>
		<g>
			<path class="st2" d="M365.92,662.91c2.11-0.17,4.2-0.79,6.04-1.83c1.16-0.47,2.4-2.35,3.61-1.01c0.64,0.68,0.1,1.63-0.19,2.33
				c-0.37,0.9-0.98,1.55-1.65,2.11c-2.31,1.75-5.51,2.28-8.2,1.08C364.15,665.09,364.48,662.97,365.92,662.91L365.92,662.91z"/>
		</g>
	</g>
</g>
<g>
	<g>
		<g>
			<path class="st2" d="M1612.27,141.59c-13.99-0.82-74.82-6.7-90.39-46.98l130.57-50.5c15.58,40.28-25.46,85.55-35.26,95.58
				C1615.9,141,1614.11,141.7,1612.27,141.59z"/>
		</g>
		<g>
			<circle class="st2" cx="1560.95" cy="79.5" r="41.89"/>
		</g>
		<g>
			<circle class="st2" cx="1613.37" cy="59.22" r="41.89"/>
		</g>
		<g>
			<circle class="st3" cx="1613.37" cy="59.22" r="35.53"/>
		</g>
		<g>
			<circle class="st3" cx="1560.95" cy="79.5" r="35.53"/>
		</g>
		<g>
			<path class="st3" d="M1612.6,135.14c0,0-68.76-1.37-84.79-42.83l118.7-45.91C1662.55,87.86,1612.6,135.14,1612.6,135.14z"/>
		</g>
		<g>
			<path class="st4" d="M1539.61,93.43c-7.08-18.3,2.02-38.88,20.32-45.96c3.35-1.3,6.79-2.05,10.2-2.3
				c-7.03-1.89-14.69-1.65-22,1.18c-18.3,7.08-27.4,27.65-20.32,45.96c14.46,37.38,71.76,42.17,82.9,42.75
				C1589.8,132.29,1551.12,123.19,1539.61,93.43z"/>
		</g>
	</g>
	<g>
		<g>
			<path class="st2" d="M1602,86.16c-0.46,0-0.92-0.16-1.3-0.48c-0.84-0.72-0.93-1.98-0.21-2.82c2.26-2.63,6.72-4.35,10.16-3.93
				c1.1,0.14,1.88,1.13,1.74,2.23c-0.14,1.1-1.12,1.87-2.23,1.74c-2.14-0.27-5.23,0.93-6.63,2.56
				C1603.12,85.92,1602.56,86.16,1602,86.16z"/>
		</g>
		<g>
			<circle class="st2" cx="1603.4" cy="75.3" r="7"/>
		</g>
		<g>
			<circle class="st5" cx="1605.03" cy="74.67" r="1.75"/>
		</g>
		<g>
			<path class="st2" d="M1593.34,63.1c1.98-3.88,6.69-6.25,10.98-5.09c2.15,0.54,5.72,2.73,3.65,5.09
				c-0.54,0.54-1.27,0.62-1.97,0.56c-3.07-0.37-5.6,0.12-8.34,1.49c-0.67,0.32-1.34,0.61-2.04,0.76
				C1594.03,66.4,1592.54,64.54,1593.34,63.1L1593.34,63.1z"/>
		</g>
		<g>
			<path class="st2" d="M1577.75,95.54c-0.46,0-0.92-0.16-1.3-0.48c-0.84-0.72-0.93-1.98-0.21-2.82c2.26-2.63,6.71-4.36,10.16-3.93
				c1.1,0.14,1.88,1.13,1.74,2.23c-0.14,1.1-1.14,1.87-2.23,1.74c-2.13-0.27-5.23,0.93-6.63,2.56
				C1578.87,95.3,1578.31,95.54,1577.75,95.54z"/>
		</g>
		<g>
			<circle class="st2" cx="1579.15" cy="84.68" r="7"/>
		</g>
		<g>
			<circle class="st5" cx="1580.78" cy="84.05" r="1.75"/>
		</g>
		<g>
			<path class="st2" d="M1577.87,72.85c-1.54,0.57-3.47,1.07-4.85,1.89c-1.51,0.82-2.36,1.75-3.64,3.08
				c-0.8,1.01-2.31,1.28-3.24,0.29c-0.4-0.41-0.59-0.95-0.57-1.48c0.04-1.39,0.41-2.85,1.27-4.12c1.96-3.14,5.96-4.64,9.5-4.15
				c1.63,0.18,3.92,0.9,3.2,3.07C1579.28,72.2,1578.52,72.54,1577.87,72.85L1577.87,72.85z"/>
		</g>
		<g>
			<path class="st2" d="M1589.29,100.31c-1.82,0-3.67-0.19-5.49-0.58c-1.08-0.23-1.77-1.29-1.54-2.37c0.23-1.08,1.29-1.77,2.37-1.54
				c8.59,1.83,17.89-1.76,22.12-8.52c0.59-0.94,1.82-1.22,2.76-0.64c0.94,0.58,1.22,1.82,0.64,2.76
				C1605.89,96.23,1597.79,100.31,1589.29,100.31z"/>
		</g>
		<g>
			<path class="st2" d="M1595.56,102.65c2.11-0.17,4.2-0.79,6.04-1.83c1.16-0.47,2.4-2.35,3.61-1.01c0.64,0.68,0.1,1.63-0.19,2.33
				c-0.37,0.9-0.98,1.55-1.65,2.11c-2.31,1.75-5.51,2.28-8.2,1.08C1593.78,104.83,1594.11,102.71,1595.56,102.65L1595.56,102.65z"/>
		</g>
	</g>
</g>
<g>
	<g>
		<g>
			<path class="st2" d="M248.4,332.56c-7.13-12.06-36.25-65.79-11.56-101.22l114.85,80.06c-24.7,35.43-85.18,26.7-98.96,24.17
				C250.92,335.25,249.34,334.15,248.4,332.56z"/>
		</g>
		<g>
			<circle class="st2" cx="271.21" cy="255.3" r="41.89"/>
		</g>
		<g>
			<circle class="st2" cx="317.33" cy="287.45" r="41.89"/>
		</g>
		<g>
			<circle class="st3" cx="317.33" cy="287.45" r="35.53"/>
		</g>
		<g>
			<circle class="st3" cx="271.21" cy="255.3" r="35.53"/>
		</g>
		<g>
			<path class="st3" d="M253.94,329.24c0,0-37.29-57.79-11.87-94.25l104.41,72.78C321.06,344.23,253.94,329.24,253.94,329.24z"/>
		</g>
		<g>
			<path class="st4" d="M247.74,245.4c11.22-16.1,33.37-20.05,49.47-8.83c2.95,2.06,5.49,4.48,7.61,7.17
				c-2.36-6.88-6.85-13.11-13.27-17.59c-16.1-11.22-38.24-7.27-49.47,8.83c-22.92,32.87,5.13,83.07,10.88,92.64
				C243.56,308.74,229.49,271.57,247.74,245.4z"/>
		</g>
	</g>
	<g>
		<g>
			<path class="st2" d="M297.68,299.1c-0.73,0-1.43-0.4-1.78-1.1c-0.97-1.92-3.7-3.82-5.83-4.07c-1.1-0.13-1.88-1.12-1.75-2.22
				c0.13-1.1,1.13-1.88,2.22-1.75c3.44,0.4,7.37,3.14,8.93,6.23c0.5,0.98,0.11,2.19-0.88,2.69
				C298.29,299.03,297.98,299.1,297.68,299.1z"/>
		</g>
		<g>
			<circle class="st2" cx="298.41" cy="288.16" r="7"/>
		</g>
		<g>
			<circle class="st5" cx="299.85" cy="289.17" r="1.75"/>
		</g>
		<g>
			<path class="st2" d="M302.92,273c4.32-0.53,8.92,2.06,10.36,6.26c0.76,2.09,0.93,6.27-2.18,5.87c-0.75-0.14-1.22-0.71-1.56-1.32
				c-1.27-2.34-2.51-3.93-4.74-5.35c-0.94-0.66-2.11-1.2-2.93-2C300.56,275.42,301.27,273.15,302.92,273L302.92,273z"/>
		</g>
		<g>
			<path class="st2" d="M276.35,284.23c-0.73,0-1.43-0.4-1.79-1.1c-0.97-1.92-3.7-3.82-5.83-4.07c-1.1-0.13-1.88-1.12-1.75-2.22
				c0.13-1.1,1.12-1.88,2.22-1.75c3.44,0.4,7.37,3.14,8.93,6.23c0.5,0.99,0.11,2.19-0.88,2.69
				C276.96,284.16,276.65,284.23,276.35,284.23z"/>
		</g>
		<g>
			<circle class="st2" cx="277.09" cy="273.3" r="7"/>
		</g>
		<g>
			<circle class="st5" cx="278.52" cy="274.3" r="1.75"/>
		</g>
		<g>
			<path class="st2" d="M286.18,265.62c-2.75-2.23-5.21-3.91-8.86-4.27c-1.3-0.11-2.34-1.19-2.05-2.53c0.12-0.56,0.46-1.02,0.91-1.3
				c1.17-0.74,2.59-1.26,4.12-1.25c3.7-0.12,7.17,2.35,8.75,5.56c0.76,1.45,1.44,3.75-0.75,4.37
				C287.51,266.43,286.8,265.99,286.18,265.62L286.18,265.62z"/>
		</g>
		<g>
			<path class="st2" d="M289.77,301.66c-9.5,0-18.71-6.53-22.57-16.1c-0.41-1.02,0.08-2.19,1.11-2.6c1.02-0.41,2.19,0.08,2.6,1.11
				c3.28,8.14,11.45,13.86,19.43,13.58c1.1-0.03,2.03,0.83,2.07,1.93c0.04,1.1-0.83,2.03-1.93,2.07
				C290.24,301.66,290,301.66,289.77,301.66z"/>
		</g>
		<g>
			<path class="st2" d="M271.36,296.94c1.76,2.19,4.15,3.94,6.84,4.77c1.32,0.35,1.23,2.33-0.1,2.57c0,0-1.03,0.21-1.03,0.21
				c-3.86,0.57-7.47-2.71-8.14-6.39C268.56,296.69,270.5,295.78,271.36,296.94L271.36,296.94z"/>
		</g>
	</g>
</g>
<g>
	<path class="st6" d="M1549.71,242.72c-2.65,0-4.8-2.15-4.8-4.8c0-0.88-0.72-1.6-1.6-1.6s-1.6,0.72-1.6,1.6c0,2.65-2.15,4.8-4.8,4.8
		c-0.88,0-1.6,0.72-1.6,1.6c0,0.88,0.72,1.6,1.6,1.6c2.65,0,4.8,2.15,4.8,4.8c0,0.88,0.72,1.6,1.6,1.6s1.6-0.72,1.6-1.6
		c0-2.65,2.15-4.8,4.8-4.8c0.88,0,1.6-0.72,1.6-1.6C1551.31,243.44,1550.59,242.72,1549.71,242.72z"/>
</g>
<g>
	<path class="st6" d="M191.04,312.96c-2.65,0-4.8-2.15-4.8-4.8c0-0.88-0.72-1.6-1.6-1.6c-0.88,0-1.6,0.72-1.6,1.6
		c0,2.65-2.15,4.8-4.8,4.8c-0.88,0-1.6,0.72-1.6,1.6s0.72,1.6,1.6,1.6c2.65,0,4.8,2.15,4.8,4.8c0,0.88,0.72,1.6,1.6,1.6
		c0.88,0,1.6-0.72,1.6-1.6c0-2.65,2.15-4.8,4.8-4.8c0.88,0,1.6-0.72,1.6-1.6S191.92,312.96,191.04,312.96z"/>
</g>
<g>
	<path class="st6" d="M244.85,569.05c-2.65,0-4.8-2.15-4.8-4.8c0-0.88-0.72-1.6-1.6-1.6c-0.88,0-1.6,0.72-1.6,1.6
		c0,2.65-2.15,4.8-4.8,4.8c-0.88,0-1.6,0.72-1.6,1.6s0.72,1.6,1.6,1.6c2.65,0,4.8,2.15,4.8,4.8c0,0.88,0.72,1.6,1.6,1.6
		c0.88,0,1.6-0.72,1.6-1.6c0-2.65,2.15-4.8,4.8-4.8c0.88,0,1.6-0.72,1.6-1.6S245.74,569.05,244.85,569.05z"/>
</g>
<g>
	<g>
		<path class="st6" d="M938.3,272.02c-2.98,0-5.4-2.42-5.4-5.4c0-0.99-0.81-1.8-1.8-1.8c-0.99,0-1.8,0.81-1.8,1.8
			c0,2.98-2.42,5.4-5.4,5.4c-0.99,0-1.8,0.81-1.8,1.8c0,0.99,0.81,1.8,1.8,1.8c2.98,0,5.4,2.42,5.4,5.4c0,0.99,0.81,1.8,1.8,1.8
			c0.99,0,1.8-0.81,1.8-1.8c0-2.98,2.42-5.4,5.4-5.4c0.99,0,1.8-0.81,1.8-1.8C940.1,272.83,939.29,272.02,938.3,272.02z"/>
	</g>
	<g>
		<circle class="st6" cx="947.6" cy="325.32" r="2.5"/>
	</g>
	<g>
		<circle class="st6" cx="971.6" cy="255.32" r="2.5"/>
	</g>
</g>
<g>
	<g>
		<path class="st6" d="M540.79,583.64c-2.38-1.78-2.87-5.18-1.09-7.56c0.6-0.8,0.43-1.92-0.36-2.52c-0.8-0.6-1.92-0.43-2.52,0.36
			c-1.78,2.38-5.18,2.87-7.56,1.09c-0.8-0.6-1.92-0.43-2.52,0.36c-0.6,0.8-0.43,1.92,0.36,2.52c2.38,1.78,2.87,5.18,1.09,7.56
			c-0.6,0.8-0.43,1.92,0.36,2.52c0.8,0.6,1.92,0.43,2.52-0.36c1.78-2.38,5.18-2.87,7.56-1.09c0.8,0.6,1.92,0.43,2.52-0.36
			C541.74,585.36,541.58,584.23,540.79,583.64z"/>
	</g>
	<g>
		<circle class="st6" cx="516.29" cy="631.88" r="2.5"/>
	</g>
	<g>
		<circle class="st6" cx="577.45" cy="590.22" r="2.5"/>
	</g>
</g>
<g>
	<g>
		<path class="st6" d="M917.87,434.24c-2.98,0-5.4-2.42-5.4-5.4c0-0.99-0.81-1.8-1.8-1.8c-0.99,0-1.8,0.81-1.8,1.8
			c0,2.98-2.42,5.4-5.4,5.4c-0.99,0-1.8,0.81-1.8,1.8c0,0.99,0.81,1.8,1.8,1.8c2.98,0,5.4,2.42,5.4,5.4c0,0.99,0.81,1.8,1.8,1.8
			c0.99,0,1.8-0.81,1.8-1.8c0-2.98,2.42-5.4,5.4-5.4c0.99,0,1.8-0.81,1.8-1.8C919.67,435.04,918.86,434.24,917.87,434.24z"/>
	</g>
	<g>
		<circle class="st6" cx="927.17" cy="487.54" r="2.5"/>
	</g>
	<g>
		<circle class="st6" cx="951.17" cy="417.54" r="2.5"/>
	</g>
</g>
<g>
	<g>
		<path class="st6" d="M1632.03,169.16c-2.98,0-5.4-2.42-5.4-5.4c0-0.99-0.81-1.8-1.8-1.8s-1.8,0.81-1.8,1.8
			c0,2.98-2.42,5.4-5.4,5.4c-0.99,0-1.8,0.81-1.8,1.8s0.81,1.8,1.8,1.8c2.98,0,5.4,2.42,5.4,5.4c0,0.99,0.81,1.8,1.8,1.8
			s1.8-0.81,1.8-1.8c0-2.98,2.42-5.4,5.4-5.4c0.99,0,1.8-0.81,1.8-1.8S1633.02,169.16,1632.03,169.16z"/>
	</g>
	<g>
		<circle class="st6" cx="1641.33" cy="222.46" r="2.5"/>
	</g>
	<g>
		<circle class="st6" cx="1665.33" cy="152.46" r="2.5"/>
	</g>
</g>
<g>
	<g>
		<path class="st6" d="M1110.34,558.36c-2.98,0-5.4-2.42-5.4-5.4c0-0.99-0.81-1.8-1.8-1.8c-0.99,0-1.8,0.81-1.8,1.8
			c0,2.98-2.42,5.4-5.4,5.4c-0.99,0-1.8,0.81-1.8,1.8c0,0.99,0.81,1.8,1.8,1.8c2.98,0,5.4,2.42,5.4,5.4c0,0.99,0.81,1.8,1.8,1.8
			c0.99,0,1.8-0.81,1.8-1.8c0-2.98,2.42-5.4,5.4-5.4c0.99,0,1.8-0.81,1.8-1.8C1112.14,559.17,1111.34,558.36,1110.34,558.36z"/>
	</g>
	<g>
		<circle class="st6" cx="1119.64" cy="611.66" r="2.5"/>
	</g>
	<g>
		<circle class="st6" cx="1143.64" cy="541.66" r="2.5"/>
	</g>
</g>
<g>
	<g>
		<path class="st6" d="M806.61,673.49c-2.98,0-5.4-2.42-5.4-5.4c0-0.99-0.81-1.8-1.8-1.8c-0.99,0-1.8,0.81-1.8,1.8
			c0,2.98-2.42,5.4-5.4,5.4c-0.99,0-1.8,0.81-1.8,1.8s0.81,1.8,1.8,1.8c2.98,0,5.4,2.42,5.4,5.4c0,0.99,0.81,1.8,1.8,1.8
			c0.99,0,1.8-0.81,1.8-1.8c0-2.98,2.42-5.4,5.4-5.4c0.99,0,1.8-0.81,1.8-1.8S807.6,673.49,806.61,673.49z"/>
	</g>
	<g>
		<circle class="st6" cx="815.91" cy="726.79" r="2.5"/>
	</g>
	<g>
		<circle class="st6" cx="839.91" cy="656.79" r="2.5"/>
	</g>
</g>
<g>
	<g>
		<path class="st6" d="M619.93,353.89c-2.98,0-5.4-2.42-5.4-5.4c0-0.99-0.81-1.8-1.8-1.8s-1.8,0.81-1.8,1.8c0,2.98-2.42,5.4-5.4,5.4
			c-0.99,0-1.8,0.81-1.8,1.8c0,0.99,0.81,1.8,1.8,1.8c2.98,0,5.4,2.42,5.4,5.4c0,0.99,0.81,1.8,1.8,1.8s1.8-0.81,1.8-1.8
			c0-2.98,2.42-5.4,5.4-5.4c0.99,0,1.8-0.81,1.8-1.8C621.73,354.69,620.93,353.89,619.93,353.89z"/>
	</g>
	<g>
		<circle class="st6" cx="629.23" cy="407.19" r="2.5"/>
	</g>
	<g>
		<circle class="st6" cx="653.23" cy="337.19" r="2.5"/>
	</g>
</g>
<g>
	<g>
		<path class="st6" d="M436.31,360.41c0.84-2.86,3.85-4.49,6.71-3.65c0.95,0.28,1.95-0.26,2.24-1.22c0.28-0.95-0.26-1.95-1.22-2.24
			c-2.86-0.84-4.49-3.85-3.65-6.71c0.28-0.95-0.26-1.95-1.22-2.24c-0.95-0.28-1.95,0.26-2.24,1.22c-0.84,2.86-3.85,4.49-6.71,3.65
			c-0.95-0.28-1.95,0.26-2.24,1.22c-0.28,0.95,0.26,1.95,1.22,2.24c2.86,0.84,4.49,3.85,3.65,6.71c-0.28,0.95,0.26,1.95,1.22,2.24
			C435.03,361.91,436.03,361.36,436.31,360.41z"/>
	</g>
	<g>
		<circle class="st6" cx="401.4" cy="396.28" r="2.5"/>
	</g>
	<g>
		<circle class="st6" cx="388.74" cy="368.55" r="4.5"/>
	</g>
</g>
<g>
	<g>
		<path class="st6" d="M522.8,76.62c-2.98,0-5.4-2.42-5.4-5.4c0-0.99-0.81-1.8-1.8-1.8s-1.8,0.81-1.8,1.8c0,2.98-2.42,5.4-5.4,5.4
			c-0.99,0-1.8,0.81-1.8,1.8s0.81,1.8,1.8,1.8c2.98,0,5.4,2.42,5.4,5.4c0,0.99,0.81,1.8,1.8,1.8s1.8-0.81,1.8-1.8
			c0-2.98,2.42-5.4,5.4-5.4c0.99,0,1.8-0.81,1.8-1.8S523.79,76.62,522.8,76.62z"/>
	</g>
	<g>
		<circle class="st6" cx="567.1" cy="99.92" r="2.5"/>
	</g>
	<g>
		<circle class="st6" cx="544.1" cy="119.92" r="4.5"/>
	</g>
</g>
<g>
	<g>
		<path class="st6" d="M1452.28,90.99c2.88-0.77,5.84,0.95,6.61,3.83c0.26,0.96,1.24,1.53,2.2,1.28c0.96-0.26,1.53-1.24,1.28-2.2
			c-0.77-2.88,0.95-5.84,3.83-6.61c0.96-0.26,1.53-1.24,1.28-2.2c-0.26-0.96-1.24-1.53-2.2-1.28c-2.88,0.77-5.84-0.95-6.61-3.83
			c-0.26-0.96-1.24-1.53-2.2-1.28c-0.96,0.26-1.53,1.24-1.28,2.2c0.77,2.88-0.95,5.84-3.83,6.61c-0.96,0.26-1.53,1.24-1.28,2.2
			C1450.34,90.67,1451.32,91.24,1452.28,90.99z"/>
	</g>
	<g>
		<circle class="st6" cx="1403.48" cy="79.86" r="2.5"/>
	</g>
	<g>
		<circle class="st6" cx="1420.57" cy="54.62" r="4.5"/>
	</g>
</g>
<g>
	<g>
		<circle class="st6" cx="1227.81" cy="202.11" r="4"/>
	</g>
	<g>
		<circle class="st6" cx="1165.31" cy="222.61" r="2.5"/>
	</g>
</g>
<g>
	<g>
		<circle class="st6" cx="288.35" cy="89.26" r="4"/>
	</g>
	<g>
		<circle class="st6" cx="225.85" cy="109.76" r="2.5"/>
	</g>
</g>
<g>
	<circle class="st6" cx="1483.81" cy="287.82" r="2.5"/>
</g>
<g>
	<circle class="st6" cx="1498.31" cy="375.32" r="3"/>
</g>
<g>
	<circle class="st6" cx="1318.85" cy="566.23" r="3"/>
</g>
<g>
	<path class="st6" d="M1363.82,641.46c-2.65,0-4.8-2.15-4.8-4.8c0-0.88-0.72-1.6-1.6-1.6s-1.6,0.72-1.6,1.6c0,2.65-2.15,4.8-4.8,4.8
		c-0.88,0-1.6,0.72-1.6,1.6s0.72,1.6,1.6,1.6c2.65,0,4.8,2.15,4.8,4.8c0,0.88,0.72,1.6,1.6,1.6s1.6-0.72,1.6-1.6
		c0-2.65,2.15-4.8,4.8-4.8c0.88,0,1.6-0.72,1.6-1.6S1364.71,641.46,1363.82,641.46z"/>
</g>
<g>
	<g>
		<path class="st6" d="M1652.63,607.1c0-2.98,2.42-5.4,5.4-5.4c0.99,0,1.8-0.81,1.8-1.8c0-0.99-0.81-1.8-1.8-1.8
			c-2.98,0-5.4-2.42-5.4-5.4c0-0.99-0.81-1.8-1.8-1.8s-1.8,0.81-1.8,1.8c0,2.98-2.42,5.4-5.4,5.4c-0.99,0-1.8,0.81-1.8,1.8
			c0,0.99,0.81,1.8,1.8,1.8c2.98,0,5.4,2.42,5.4,5.4c0,0.99,0.81,1.8,1.8,1.8S1652.63,608.09,1652.63,607.1z"/>
	</g>
	<g>
		<circle class="st6" cx="1599.33" cy="616.4" r="2.5"/>
	</g>
	<g>
		<circle class="st6" cx="1669.33" cy="640.4" r="2.5"/>
	</g>
</g>
<path class="st6" d="M1525.31,325.32h-7v-7c0-1.66-1.34-3-3-3s-3,1.34-3,3v7h-7c-1.66,0-3,1.34-3,3s1.34,3,3,3h7v7
	c0,1.66,1.34,3,3,3s3-1.34,3-3v-7h7c1.66,0,3-1.34,3-3S1526.96,325.32,1525.31,325.32z"/>
<path class="st6" d="M201.81,220.8h-7v-7c0-1.66-1.34-3-3-3s-3,1.34-3,3v7h-7c-1.66,0-3,1.34-3,3s1.34,3,3,3h7v7c0,1.66,1.34,3,3,3
	s3-1.34,3-3v-7h7c1.66,0,3-1.34,3-3S203.47,220.8,201.81,220.8z"/>
<path class="st6" d="M231.81,644.95h-7v-7c0-1.66-1.34-3-3-3s-3,1.34-3,3v7h-7c-1.66,0-3,1.34-3,3s1.34,3,3,3h7v7c0,1.66,1.34,3,3,3
	s3-1.34,3-3v-7h7c1.66,0,3-1.34,3-3S233.47,644.95,231.81,644.95z"/>
<path class="st6" d="M1394.6,549.31h-7v-7c0-1.66-1.34-3-3-3s-3,1.34-3,3v7h-7c-1.66,0-3,1.34-3,3s1.34,3,3,3h7v7c0,1.66,1.34,3,3,3
	s3-1.34,3-3v-7h7c1.66,0,3-1.34,3-3S1396.26,549.31,1394.6,549.31z"/>
<path class="st6" d="M1066.82,621.74h-7v-7c0-1.66-1.34-3-3-3s-3,1.34-3,3v7h-7c-1.66,0-3,1.34-3,3s1.34,3,3,3h7v7
	c0,1.66,1.34,3,3,3s3-1.34,3-3v-7h7c1.66,0,3-1.34,3-3S1068.48,621.74,1066.82,621.74z"/>
<path class="st6" d="M771.89,600.54h-7v-7c0-1.66-1.34-3-3-3s-3,1.34-3,3v7h-7c-1.66,0-3,1.34-3,3s1.34,3,3,3h7v7c0,1.66,1.34,3,3,3
	s3-1.34,3-3v-7h7c1.66,0,3-1.34,3-3S773.55,600.54,771.89,600.54z"/>
<path class="st6" d="M1596.25,550.57h-7v-7c0-1.66-1.34-3-3-3s-3,1.34-3,3v7h-7c-1.66,0-3,1.34-3,3s1.34,3,3,3h7v7
	c0,1.66,1.34,3,3,3s3-1.34,3-3v-7h7c1.66,0,3-1.34,3-3S1597.91,550.57,1596.25,550.57z"/>
</svg>
