<?xml version="1.0" encoding="utf-8"?>
<!-- Generator: Adobe Illustrator 26.0.1, SVG Export Plug-In . SVG Version: 6.00 Build 0)  -->
<svg version="1.1" id="Google_x5F_Hub-Offline_x5F_Conversion_x5F_Tracking"
	 xmlns="http://www.w3.org/2000/svg" xmlns:xlink="http://www.w3.org/1999/xlink" x="0px" y="0px" viewBox="0 0 400 400"
	 style="enable-background:new 0 0 400 400;" xml:space="preserve">
<style type="text/css">
	.st0{fill:none;}
	.st1{fill:#515979;}
	.st2{fill:#7DDF96;}
	.st3{fill:#F5CBA2;}
	.st4{fill:#F0AF7D;}
	.st5{fill:#66A7C6;}
	.st6{fill:#D8EBFB;}
	.st7{fill:#E8F3FD;}
	.st8{fill:#667683;}
	.st9{opacity:0.2;}
	.st10{fill:#768490;}
	.st11{fill:#76B0CC;}
	.st12{fill:#747A94;}
	.st13{fill:#F3F9FE;}
	.st14{fill:#FFFFFF;}
	.st15{fill:#EF7D7D;}
	.st16{fill:#FDD08C;}
	.st17{fill:#FBB040;}
	.st18{fill:#FCC066;}
	.st19{fill:#FFD886;}
</style>
<g>
	<rect class="st0" width="400" height="400"/>
</g>
<g>
	<path class="st1" d="M138.64,332.57h-5c-0.83,0-1.5-0.67-1.5-1.5s0.67-1.5,1.5-1.5h5c0.83,0,1.5,0.67,1.5,1.5
		S139.47,332.57,138.64,332.57z M124.64,332.57h-5c-0.83,0-1.5-0.67-1.5-1.5s0.67-1.5,1.5-1.5h5c0.83,0,1.5,0.67,1.5,1.5
		S125.47,332.57,124.64,332.57z M110.64,332.57h-5c-0.83,0-1.5-0.67-1.5-1.5s0.67-1.5,1.5-1.5h5c0.83,0,1.5,0.67,1.5,1.5
		S111.47,332.57,110.64,332.57z M96.64,332.57h-5c-0.83,0-1.5-0.67-1.5-1.5s0.67-1.5,1.5-1.5h5c0.83,0,1.5,0.67,1.5,1.5
		S97.47,332.57,96.64,332.57z M82.64,332.57h-5c-0.83,0-1.5-0.67-1.5-1.5s0.67-1.5,1.5-1.5h5c0.83,0,1.5,0.67,1.5,1.5
		S83.47,332.57,82.64,332.57z M68.64,332.57h-5c-0.83,0-1.5-0.67-1.5-1.5s0.67-1.5,1.5-1.5h5c0.83,0,1.5,0.67,1.5,1.5
		S69.47,332.57,68.64,332.57z M54.64,332.57h-5c-0.83,0-1.5-0.67-1.5-1.5s0.67-1.5,1.5-1.5h5c0.83,0,1.5,0.67,1.5,1.5
		S55.47,332.57,54.64,332.57z M40.64,332.57h-5c-0.83,0-1.5-0.67-1.5-1.5s0.67-1.5,1.5-1.5h5c0.83,0,1.5,0.67,1.5,1.5
		S41.47,332.57,40.64,332.57z M29.72,329.49c-0.83,0-1.5-0.67-1.5-1.5v-5c0-0.83,0.67-1.5,1.5-1.5s1.5,0.67,1.5,1.5v5
		C31.22,328.82,30.55,329.49,29.72,329.49z M29.72,315.49c-0.83,0-1.5-0.67-1.5-1.5v-5c0-0.83,0.67-1.5,1.5-1.5s1.5,0.67,1.5,1.5v5
		C31.22,314.82,30.55,315.49,29.72,315.49z M29.72,301.49c-0.83,0-1.5-0.67-1.5-1.5v-5c0-0.83,0.67-1.5,1.5-1.5s1.5,0.67,1.5,1.5v5
		C31.22,300.82,30.55,301.49,29.72,301.49z M29.72,287.49c-0.83,0-1.5-0.67-1.5-1.5v-5c0-0.83,0.67-1.5,1.5-1.5s1.5,0.67,1.5,1.5v5
		C31.22,286.82,30.55,287.49,29.72,287.49z M29.72,273.49c-0.83,0-1.5-0.67-1.5-1.5v-5c0-0.83,0.67-1.5,1.5-1.5s1.5,0.67,1.5,1.5v5
		C31.22,272.82,30.55,273.49,29.72,273.49z M66.93,263.69h-5c-0.83,0-1.5-0.67-1.5-1.5s0.67-1.5,1.5-1.5h5c0.83,0,1.5,0.67,1.5,1.5
		S67.75,263.69,66.93,263.69z M52.93,263.69h-5c-0.83,0-1.5-0.67-1.5-1.5s0.67-1.5,1.5-1.5h5c0.83,0,1.5,0.67,1.5,1.5
		S53.75,263.69,52.93,263.69z M38.93,263.69h-5c-0.83,0-1.5-0.67-1.5-1.5s0.67-1.5,1.5-1.5h5c0.83,0,1.5,0.67,1.5,1.5
		S39.75,263.69,38.93,263.69z M69.64,257.41c-0.83,0-1.5-0.67-1.5-1.5v-5c0-0.83,0.67-1.5,1.5-1.5s1.5,0.67,1.5,1.5v5
		C71.14,256.73,70.47,257.41,69.64,257.41z M69.64,243.41c-0.83,0-1.5-0.67-1.5-1.5v-5c0-0.83,0.67-1.5,1.5-1.5s1.5,0.67,1.5,1.5v5
		C71.14,242.73,70.47,243.41,69.64,243.41z M69.64,229.41c-0.83,0-1.5-0.67-1.5-1.5v-5c0-0.83,0.67-1.5,1.5-1.5s1.5,0.67,1.5,1.5v5
		C71.14,228.73,70.47,229.41,69.64,229.41z M69.64,215.41c-0.83,0-1.5-0.67-1.5-1.5v-5c0-0.83,0.67-1.5,1.5-1.5s1.5,0.67,1.5,1.5v5
		C71.14,214.73,70.47,215.41,69.64,215.41z M69.64,201.41c-0.83,0-1.5-0.67-1.5-1.5v-5c0-0.83,0.67-1.5,1.5-1.5s1.5,0.67,1.5,1.5v5
		C71.14,200.73,70.47,201.41,69.64,201.41z M69.64,187.41c-0.83,0-1.5-0.67-1.5-1.5v-5c0-0.83,0.67-1.5,1.5-1.5s1.5,0.67,1.5,1.5v5
		C71.14,186.73,70.47,187.41,69.64,187.41z M69.64,173.41c-0.83,0-1.5-0.67-1.5-1.5v-5c0-0.83,0.67-1.5,1.5-1.5s1.5,0.67,1.5,1.5v5
		C71.14,172.73,70.47,173.41,69.64,173.41z M95.69,166.94h-4.52c-0.83,0-1.5-0.67-1.5-1.5s0.67-1.5,1.5-1.5h3.41
		c0.27-0.3,0.67-0.48,1.1-0.48c0.83,0,1.5,0.67,1.5,1.5v0.48C97.19,166.27,96.52,166.94,95.69,166.94z M82.17,166.94h-5
		c-0.83,0-1.5-0.67-1.5-1.5s0.67-1.5,1.5-1.5h5c0.83,0,1.5,0.67,1.5,1.5S83,166.94,82.17,166.94z M95.69,157.46
		c-0.83,0-1.5-0.67-1.5-1.5v-5c0-0.83,0.67-1.5,1.5-1.5s1.5,0.67,1.5,1.5v5C97.19,156.78,96.52,157.46,95.69,157.46z M160.95,147.72
		h-5c-0.83,0-1.5-0.67-1.5-1.5s0.67-1.5,1.5-1.5h5c0.83,0,1.5,0.67,1.5,1.5S161.78,147.72,160.95,147.72z M146.95,147.72h-5
		c-0.83,0-1.5-0.67-1.5-1.5s0.67-1.5,1.5-1.5h5c0.83,0,1.5,0.67,1.5,1.5S147.78,147.72,146.95,147.72z M132.95,147.72h-5
		c-0.83,0-1.5-0.67-1.5-1.5s0.67-1.5,1.5-1.5h5c0.83,0,1.5,0.67,1.5,1.5S133.78,147.72,132.95,147.72z M118.95,147.72h-5
		c-0.83,0-1.5-0.67-1.5-1.5s0.67-1.5,1.5-1.5h5c0.83,0,1.5,0.67,1.5,1.5S119.78,147.72,118.95,147.72z M104.95,147.72h-5
		c-0.83,0-1.5-0.67-1.5-1.5s0.67-1.5,1.5-1.5h5c0.83,0,1.5,0.67,1.5,1.5S105.78,147.72,104.95,147.72z M165.64,143.41
		c-0.83,0-1.5-0.67-1.5-1.5v-5c0-0.83,0.67-1.5,1.5-1.5s1.5,0.67,1.5,1.5v5C167.14,142.73,166.47,143.41,165.64,143.41z
		 M165.64,129.41c-0.83,0-1.5-0.67-1.5-1.5v-5c0-0.83,0.67-1.5,1.5-1.5s1.5,0.67,1.5,1.5v5
		C167.14,128.73,166.47,129.41,165.64,129.41z M165.64,115.41c-0.83,0-1.5-0.67-1.5-1.5v-5c0-0.83,0.67-1.5,1.5-1.5
		s1.5,0.67,1.5,1.5v5C167.14,114.73,166.47,115.41,165.64,115.41z M165.64,101.41c-0.83,0-1.5-0.67-1.5-1.5v-5
		c0-0.83,0.67-1.5,1.5-1.5s1.5,0.67,1.5,1.5v5C167.14,100.73,166.47,101.41,165.64,101.41z M230.95,91.72h-5
		c-0.83,0-1.5-0.67-1.5-1.5s0.67-1.5,1.5-1.5h5c0.83,0,1.5,0.67,1.5,1.5S231.78,91.72,230.95,91.72z M216.95,91.72h-5
		c-0.83,0-1.5-0.67-1.5-1.5s0.67-1.5,1.5-1.5h5c0.83,0,1.5,0.67,1.5,1.5S217.78,91.72,216.95,91.72z M202.95,91.72h-5
		c-0.83,0-1.5-0.67-1.5-1.5s0.67-1.5,1.5-1.5h5c0.83,0,1.5,0.67,1.5,1.5S203.78,91.72,202.95,91.72z M188.95,91.72h-5
		c-0.83,0-1.5-0.67-1.5-1.5s0.67-1.5,1.5-1.5h5c0.83,0,1.5,0.67,1.5,1.5S189.78,91.72,188.95,91.72z M174.95,91.72h-5
		c-0.83,0-1.5-0.67-1.5-1.5s0.67-1.5,1.5-1.5h5c0.83,0,1.5,0.67,1.5,1.5S175.78,91.72,174.95,91.72z"/>
</g>
<g>
	<g>
		<g>
			<path class="st2" d="M111.64,387.19c-1.66,0-3-1.34-3-3c0-7.17,5.83-13,13-13c7.17,0,13,5.83,13,13c0,1.66-1.34,3-3,3H111.64z"/>
		</g>
		<g>
			<path class="st1" d="M121.64,374.19c5.52,0,10,4.48,10,10h-20C111.64,378.67,116.12,374.19,121.64,374.19 M121.64,368.19
				c-8.82,0-16,7.18-16,16c0,3.31,2.69,6,6,6h20c3.31,0,6-2.69,6-6C137.64,375.37,130.46,368.19,121.64,368.19L121.64,368.19z"/>
		</g>
	</g>
	<g>
		<g>
			<path class="st3" d="M127.64,387.19c-1.66,0-3-1.34-3-3v-120c0-1.66,1.34-3,3-3h162c1.66,0,3,1.34,3,3v120c0,1.66-1.34,3-3,3
				H127.64z"/>
		</g>
		<g>
			<g>
				<path class="st1" d="M289.64,264.19v120h-162v-120H289.64 M289.64,258.19h-162c-3.31,0-6,2.69-6,6v120c0,3.31,2.69,6,6,6h162
					c3.31,0,6-2.69,6-6v-120C295.64,260.88,292.95,258.19,289.64,258.19L289.64,258.19z"/>
			</g>
		</g>
	</g>
	<g>
		<path class="st4" d="M127.64,264.19v30.73c4.55-0.81,8.47-3.44,11-7.11c3.07,4.45,8.2,7.38,14,7.38s10.93-2.93,14-7.38
			c3.07,4.45,8.2,7.38,14,7.38s10.93-2.93,14-7.38c3.07,4.45,8.2,7.38,14,7.38s10.93-2.93,14-7.38c3.07,4.45,8.2,7.38,14,7.38
			s10.93-2.93,14-7.38c3.07,4.45,8.2,7.38,14,7.38s10.93-2.93,14-7.38c2.53,3.67,6.45,6.29,11,7.11v-30.73H127.64z"/>
	</g>
	<g>
		<g>
			<path class="st5" d="M143.64,387.19c-1.66,0-3-1.34-3-3v-77c0-1.66,1.34-3,3-3h54c1.66,0,3,1.34,3,3v77c0,1.66-1.34,3-3,3H143.64
				z"/>
		</g>
		<g>
			<g>
				<path class="st1" d="M197.64,307.19v77h-54v-77H197.64 M197.64,301.19h-54c-3.31,0-6,2.69-6,6v77c0,3.31,2.69,6,6,6h54
					c3.31,0,6-2.69,6-6v-77C203.64,303.88,200.95,301.19,197.64,301.19L197.64,301.19z"/>
			</g>
		</g>
	</g>
	<g>
		<g>
			<rect x="152.64" y="351.19" class="st6" width="36" height="24"/>
		</g>
		<g>
			<g>
				<path class="st1" d="M185.64,354.19v18h-30v-18H185.64 M191.64,348.19h-6h-30h-6v6v18v6h6h30h6v-6v-18V348.19L191.64,348.19z"/>
			</g>
		</g>
	</g>
	<g>
		<polygon class="st7" points="166.64,372.19 158.64,372.19 164.64,354.19 172.64,354.19 		"/>
	</g>
	<g>
		<polygon class="st7" points="176.64,372.19 170.64,372.19 176.64,354.19 182.64,354.19 		"/>
	</g>
	<g>
		<g>
			<rect x="152.64" y="315.19" class="st6" width="36" height="24"/>
		</g>
		<g>
			<g>
				<path class="st1" d="M185.64,318.19v18h-30v-18H185.64 M191.64,312.19h-6h-30h-6v6v18v6h6h30h6v-6v-18V312.19L191.64,312.19z"/>
			</g>
		</g>
	</g>
	<g>
		<polygon class="st7" points="166.64,336.19 158.64,336.19 164.64,318.19 172.64,318.19 		"/>
	</g>
	<g>
		<polygon class="st7" points="176.64,336.19 170.64,336.19 176.64,318.19 182.64,318.19 		"/>
	</g>
	<g>
		<g>
			<path class="st8" d="M124.64,286.19c-7.72,0-14-6.28-14-14v-5c0-0.47,0.11-0.93,0.32-1.34l11-22c0.51-1.02,1.55-1.66,2.68-1.66
				h19c0.98,0,1.9,0.48,2.46,1.28c0.56,0.8,0.7,1.83,0.36,2.75l-7.82,21.5v4.47C138.64,279.91,132.36,286.19,124.64,286.19z"/>
		</g>
		<g>
			<g>
				<path class="st1" d="M143.64,245.19L143.64,245.19 M143.64,245.19l-8,22v5c0,6.08-4.92,11-11,11c-6.08,0-11-4.92-11-11v-5l11-22
					H143.64 M143.64,239.19L143.64,239.19h-19c-2.27,0-4.35,1.28-5.37,3.32l-11,22c-0.42,0.83-0.63,1.75-0.63,2.68v5
					c0,9.37,7.63,17,17,17s17-7.63,17-17v-3.94l7.57-20.81c0.28-0.69,0.43-1.45,0.43-2.24
					C149.64,241.88,146.96,239.19,143.64,239.19L143.64,239.19z M143.64,251.19L143.64,251.19L143.64,251.19L143.64,251.19z"/>
			</g>
		</g>
	</g>
	<g class="st9">
		<g>
			<polygon points="261.64,245.07 242.64,245.07 247.64,267.07 269.64,267.07 			"/>
		</g>
	</g>
	<g class="st9">
		<g>
			<polygon points="283.64,245.07 264.64,245.07 272.64,267.07 294.64,267.07 			"/>
		</g>
	</g>
	<g>
		<g>
			<path class="st8" d="M236.64,286.19c-7.72,0-14-6.28-14-14v-4.86l-2.29-25.14h24.68l5.61,24.66v5.34
				C250.64,279.91,244.36,286.19,236.64,286.19z"/>
		</g>
		<g>
			<g>
				<path class="st1" d="M242.64,245.19l5,22v5c0,6.08-4.92,11-11,11s-11-4.92-11-11v-5l-2-22H242.64 M247.43,239.19h-4.79h-19
					h-6.57l0.59,6.54l1.98,21.73v4.73c0,9.37,7.63,17,17,17s17-7.63,17-17v-5v-0.67l-0.15-0.66l-5-22L247.43,239.19L247.43,239.19z"
					/>
			</g>
		</g>
	</g>
	<g>
		<g>
			<path class="st5" d="M208.64,286.19c-7.72,0-14-6.28-14-14v-5.14l2.26-24.86h23.48l2.26,24.86v5.14
				C222.64,279.91,216.36,286.19,208.64,286.19z"/>
		</g>
		<g>
			<g>
				<path class="st1" d="M217.64,245.19l2,22v5c0,6.08-4.92,11-11,11s-11-4.92-11-11v-5l2-22H217.64 M223.12,239.19h-5.48h-18h-5.48
					l-0.5,5.46l-2,22l-0.02,0.27v0.27v5c0,9.37,7.63,17,17,17s17-7.63,17-17v-5v-0.27l-0.02-0.27l-2-22L223.12,239.19L223.12,239.19
					z"/>
			</g>
		</g>
	</g>
	<g>
		<g>
			<path class="st8" d="M180.64,286.19c-7.72,0-14-6.28-14-14v-5.34l5.61-24.66h24.68l-2.29,25.14v4.86
				C194.64,279.91,188.36,286.19,180.64,286.19z"/>
		</g>
		<g>
			<g>
				<path class="st1" d="M193.64,245.19l-2,22v5c0,6.08-4.92,11-11,11s-11-4.92-11-11v-5l5-22H193.64 M200.21,239.19h-6.57h-19
					h-4.79l-1.06,4.67l-5,22l-0.15,0.66v0.67v5c0,9.37,7.63,17,17,17s17-7.63,17-17v-4.73l1.98-21.73L200.21,239.19L200.21,239.19z"
					/>
			</g>
		</g>
	</g>
	<g>
		<g>
			<path class="st5" d="M152.64,286.19c-7.72,0-14-6.28-14-14v-5.53l8.9-24.47h24.86l-5.76,25.34v4.66
				C166.64,279.91,160.36,286.19,152.64,286.19z"/>
		</g>
		<g>
			<g>
				<path class="st1" d="M168.64,245.19l-5,22v5c0,6.08-4.92,11-11,11s-11-4.92-11-11v-5l8-22H168.64 M176.16,239.19h-7.52h-19h-4.2
					l-1.44,3.95l-8,22l-0.36,0.99v1.06v5c0,9.37,7.63,17,17,17s17-7.63,17-17v-4.33l4.85-21.34L176.16,239.19L176.16,239.19z"/>
			</g>
		</g>
	</g>
	<g>
		<path class="st10" d="M113.64,267.19v5c0,6.08,4.92,11,11,11c6.08,0,11-4.92,11-11v-5H113.64z"/>
	</g>
	<g>
		<path class="st10" d="M225.64,267.19v5c0,6.08,4.92,11,11,11s11-4.92,11-11v-5H225.64z"/>
	</g>
	<g>
		<path class="st11" d="M197.64,267.19v5c0,6.08,4.92,11,11,11s11-4.92,11-11v-5H197.64z"/>
	</g>
	<g>
		<path class="st10" d="M169.64,267.19v5c0,6.08,4.92,11,11,11s11-4.92,11-11v-5H169.64z"/>
	</g>
	<g>
		<path class="st11" d="M141.64,267.19v5c0,6.08,4.92,11,11,11s11-4.92,11-11v-5H141.64z"/>
	</g>
	<g>
		<path class="st1" d="M312.64,390.19h-208c-1.66,0-3-1.34-3-3s1.34-3,3-3h208c1.66,0,3,1.34,3,3S314.3,390.19,312.64,390.19z"/>
	</g>
	<g>
		<g>
			<path class="st2" d="M259.64,387.19c-1.66,0-3-1.34-3-3c0-7.17,5.83-13,13-13s13,5.83,13,13c0,1.66-1.34,3-3,3H259.64z"/>
		</g>
		<g>
			<path class="st1" d="M269.64,374.19c5.52,0,10,4.48,10,10h-20C259.64,378.67,264.12,374.19,269.64,374.19 M269.64,368.19
				c-8.82,0-16,7.18-16,16c0,3.31,2.69,6,6,6h20c3.31,0,6-2.69,6-6C285.64,375.37,278.46,368.19,269.64,368.19L269.64,368.19z"/>
		</g>
	</g>
	<g>
		<g>
			<path class="st2" d="M285.64,387.19c-1.66,0-3-1.34-3-3c0-7.17,5.83-13,13-13s13,5.83,13,13c0,1.66-1.34,3-3,3H285.64z"/>
		</g>
		<g>
			<path class="st1" d="M295.64,374.19c5.52,0,10,4.48,10,10h-20C285.64,378.67,290.12,374.19,295.64,374.19 M295.64,368.19
				c-8.82,0-16,7.18-16,16c0,3.31,2.69,6,6,6h20c3.31,0,6-2.69,6-6C311.64,375.37,304.46,368.19,295.64,368.19L295.64,368.19z"/>
		</g>
	</g>
	<g>
		<g>
			<path class="st2" d="M233.64,387.19c-1.66,0-3-1.34-3-3c0-7.17,5.83-13,13-13s13,5.83,13,13c0,1.66-1.34,3-3,3H233.64z"/>
		</g>
		<g>
			<path class="st1" d="M243.64,374.19c5.52,0,10,4.48,10,10h-20C233.64,378.67,238.12,374.19,243.64,374.19 M243.64,368.19
				c-8.82,0-16,7.18-16,16c0,3.31,2.69,6,6,6h20c3.31,0,6-2.69,6-6C259.64,375.37,252.46,368.19,243.64,368.19L243.64,368.19z"/>
		</g>
	</g>
	<g>
		<g>
			<path class="st5" d="M264.64,286.19c-7.72,0-14-6.28-14-14v-4.66l-5.76-25.34h24.86l8.9,24.47v5.53
				C278.64,279.91,272.36,286.19,264.64,286.19z"/>
		</g>
		<g>
			<g>
				<path class="st1" d="M267.64,245.19l8,22v5c0,6.08-4.92,11-11,11s-11-4.92-11-11v-5l-5-22H267.64 M271.84,239.19h-4.2h-19h-7.52
					l1.67,7.33l4.85,21.34v4.33c0,9.37,7.63,17,17,17s17-7.63,17-17v-5v-1.06l-0.36-0.99l-8-22L271.84,239.19L271.84,239.19z"/>
			</g>
		</g>
	</g>
	<g>
		<path class="st11" d="M253.64,267.19v5c0,6.08,4.92,11,11,11s11-4.92,11-11v-5H253.64z"/>
	</g>
	<g>
		<g>
			<path class="st8" d="M292.64,286.19c-7.72,0-14-6.28-14-14v-4.47l-7.82-21.5c-0.33-0.92-0.2-1.94,0.36-2.75
				c0.56-0.8,1.48-1.28,2.46-1.28h19c1.14,0,2.17,0.64,2.68,1.66l11,22c0.21,0.42,0.32,0.88,0.32,1.34v5
				C306.64,279.91,300.36,286.19,292.64,286.19z"/>
		</g>
		<g>
			<g>
				<path class="st1" d="M292.64,245.19l11,22v5c0,6.08-4.92,11-11,11s-11-4.92-11-11v-5l-8-22H292.64 M292.64,239.19h-19
					c-1.96,0-3.79,0.95-4.91,2.56c-1.12,1.6-1.39,3.65-0.72,5.49l7.64,21.01v3.94c0,9.37,7.63,17,17,17s17-7.63,17-17v-5
					c0-0.93-0.22-1.85-0.63-2.68l-11-22C296.99,240.48,294.91,239.19,292.64,239.19L292.64,239.19z"/>
			</g>
		</g>
	</g>
	<g>
		<path class="st10" d="M281.64,267.19v5c0,6.08,4.92,11,11,11s11-4.92,11-11v-5H281.64z"/>
	</g>
	<g>
		<g>
			<path class="st6" d="M219.64,346.19c-1.66,0-3-1.34-3-3v-36c0-1.66,1.34-3,3-3h54c1.66,0,3,1.34,3,3v36c0,1.66-1.34,3-3,3H219.64
				z"/>
		</g>
		<g>
			<g>
				<path class="st1" d="M273.64,307.19v36h-54v-36H273.64 M273.64,301.19h-54c-3.31,0-6,2.69-6,6v36c0,3.31,2.69,6,6,6h54
					c3.31,0,6-2.69,6-6v-36C279.64,303.88,276.95,301.19,273.64,301.19L273.64,301.19z"/>
			</g>
		</g>
	</g>
	<g>
		<path class="st1" d="M256.64,346.19c-1.66,0-3-1.34-3-3v-36c0-1.66,1.34-3,3-3s3,1.34,3,3v36
			C259.64,344.85,258.3,346.19,256.64,346.19z"/>
	</g>
	<g>
		<path class="st1" d="M236.64,346.19c-1.66,0-3-1.34-3-3v-36c0-1.66,1.34-3,3-3s3,1.34,3,3v36
			C239.64,344.85,238.3,346.19,236.64,346.19z"/>
	</g>
	<g>
		<path class="st1" d="M273.64,328.19h-54c-1.66,0-3-1.34-3-3s1.34-3,3-3h54c1.66,0,3,1.34,3,3S275.3,328.19,273.64,328.19z"/>
	</g>
</g>
<g>
	<g>
		<g>
			<path class="st12" d="M57.11,221.22c-3.86,0-7-3.14-7-7v-126c0-3.86,3.14-7,7-7h62c3.86,0,7,3.14,7,7v126c0,3.86-3.14,7-7,7
				H57.11z"/>
		</g>
		<g>
			<path class="st1" d="M119.11,84.22c2.21,0,4,1.79,4,4v126c0,2.21-1.79,4-4,4h-62c-2.21,0-4-1.79-4-4v-126c0-2.21,1.79-4,4-4
				H119.11 M119.11,78.22h-62c-5.51,0-10,4.49-10,10v126c0,5.51,4.49,10,10,10h62c5.51,0,10-4.49,10-10v-126
				C129.11,82.71,124.63,78.22,119.11,78.22L119.11,78.22z"/>
		</g>
	</g>
	<g>
		<g>
			<rect x="51.11" y="96.22" class="st6" width="74" height="114"/>
		</g>
		<g>
			<g>
				<path class="st1" d="M123.11,98.22v110h-70v-110H123.11 M127.11,94.22h-4h-70h-4v4v110v4h4h70h4v-4v-110V94.22L127.11,94.22z"/>
			</g>
		</g>
	</g>
	<g>
		<polygon class="st13" points="77.11,208.22 61.11,208.22 81.11,98.22 97.11,98.22 		"/>
	</g>
	<g>
		<polygon class="st13" points="93.11,208.22 83.11,208.22 103.11,98.22 113.11,98.22 		"/>
	</g>
	<g>
		<path class="st1" d="M98.11,91.22h-20c-1.1,0-2-0.9-2-2s0.9-2,2-2h20c1.1,0,2,0.9,2,2S99.22,91.22,98.11,91.22z"/>
	</g>
	<g>
		<path class="st1" d="M47.11,123.22c-1.66,0-3-1.34-3-3v-12c0-1.66,1.34-3,3-3s3,1.34,3,3v12
			C50.11,121.88,48.77,123.22,47.11,123.22z"/>
	</g>
	<g>
		<path class="st1" d="M47.11,147.22c-1.66,0-3-1.34-3-3v-12c0-1.66,1.34-3,3-3s3,1.34,3,3v12
			C50.11,145.88,48.77,147.22,47.11,147.22z"/>
	</g>
	<g>
		<path class="st1" d="M129.11,135.22c-1.66,0-3-1.34-3-3v-12c0-1.66,1.34-3,3-3s3,1.34,3,3v12
			C132.11,133.88,130.77,135.22,129.11,135.22z"/>
	</g>
	<g>
		<g>
			<g>
				<path class="st1" d="M102.14,153.22c-0.16,0-0.33-0.03-0.49-0.08c-1.6-0.55-4.42-0.55-6.02,0c-0.78,0.27-1.64-0.15-1.91-0.93
					c-0.27-0.78,0.15-1.64,0.93-1.91c2.24-0.77,5.74-0.77,7.98,0c0.78,0.27,1.2,1.12,0.93,1.91
					C103.34,152.83,102.76,153.22,102.14,153.22z"/>
			</g>
			<g>
				<g>
					<circle class="st1" cx="98.64" cy="145.03" r="6"/>
				</g>
				<g>
					<circle class="st14" cx="100.14" cy="145.03" r="1.5"/>
				</g>
			</g>
			<g>
				<path class="st1" d="M95.52,131.19c3.02-1.72,6.69-1.65,9.73-0.02c1.81,0.93,4.35,3.84,1.77,5.43
					c-0.53,0.31-1.14,0.27-1.71,0.22c-3.34-0.42-6.38-1.23-9.46-2.64C94.57,133.67,94.31,131.93,95.52,131.19L95.52,131.19z"/>
			</g>
		</g>
		<g>
			<g>
				<path class="st1" d="M81.09,153.22c-0.16,0-0.33-0.03-0.49-0.08c-1.6-0.55-4.42-0.55-6.02,0c-0.78,0.27-1.64-0.15-1.91-0.93
					c-0.27-0.78,0.15-1.64,0.93-1.91c2.24-0.77,5.74-0.77,7.98,0c0.78,0.27,1.2,1.12,0.93,1.91
					C82.29,152.83,81.71,153.22,81.09,153.22z"/>
			</g>
			<g>
				<g>
					<circle class="st1" cx="77.59" cy="145.03" r="6"/>
				</g>
				<g>
					<circle class="st14" cx="79.09" cy="145.03" r="1.5"/>
				</g>
			</g>
			<g>
				<path class="st1" d="M80.37,134.17c-3.08,1.41-6.12,2.22-9.46,2.64c-1.36,0.25-2.69-0.47-2.8-1.93
					c0.45-3.92,6.13-5.43,9.43-4.82c1.53,0.27,4.87,1.12,3.72,3.36C81.06,133.79,80.72,134,80.37,134.17L80.37,134.17z"/>
			</g>
		</g>
		<g>
			<path class="st1" d="M100.12,157.44L100.12,157.44h-24c-2.21,0-4,1.79-4,4c0,8.82,7.18,16,16,16c8.77,0,15.91-7.09,16-15.84
				c0-0.05,0-0.11,0-0.16C104.12,159.23,102.33,157.44,100.12,157.44z"/>
			<g>
				<g>
					<ellipse class="st15" cx="88.11" cy="169.44" rx="8.93" ry="4"/>
				</g>
			</g>
		</g>
	</g>
</g>
<g>
	<g>
		<path class="st1" d="M315.61,66.22h-60c-1.66,0-3-1.34-3-3v-20c0-18.2,14.8-33,33-33s33,14.8,33,33v20
			C318.61,64.88,317.27,66.22,315.61,66.22z M258.61,60.22h54v-17c0-14.89-12.11-27-27-27s-27,12.11-27,27V60.22z"/>
	</g>
	<g>
		<path class="st1" d="M360.11,66.22h-60c-1.66,0-3-1.34-3-3v-20c0-18.2,14.8-33,33-33s33,14.8,33,33v20
			C363.11,64.88,361.77,66.22,360.11,66.22z M303.11,60.22h54v-17c0-14.89-12.11-27-27-27s-27,12.11-27,27V60.22z"/>
	</g>
	<g>
		<g>
			<path class="st16" d="M335.61,206.22c-1.66,0-3-1.34-3-3v-140c0-1.66,1.34-3,3-3h43c1.66,0,3,1.34,3,3v140c0,1.66-1.34,3-3,3
				H335.61z"/>
		</g>
		<g>
			<g>
				<path class="st1" d="M378.61,63.22v140h-43v-140H378.61 M378.61,57.22h-43c-3.31,0-6,2.69-6,6v140c0,3.31,2.69,6,6,6h43
					c3.31,0,6-2.69,6-6v-140C384.61,59.91,381.93,57.22,378.61,57.22L378.61,57.22z"/>
			</g>
		</g>
	</g>
	<g>
		<polygon class="st17" points="378.61,63.22 360.11,63.22 360.11,183.22 378.61,203.22 		"/>
	</g>
	<g>
		<polygon class="st18" points="360.11,63.22 341.61,63.22 341.61,203.22 360.11,183.22 		"/>
	</g>
	<g>
		<g>
			<path class="st19" d="M235.61,206.22c-1.66,0-3-1.34-3-3v-140c0-1.66,1.34-3,3-3h100c1.66,0,3,1.34,3,3v140c0,1.66-1.34,3-3,3
				H235.61z"/>
		</g>
		<g>
			<path class="st1" d="M335.61,63.22v140h-100v-140H335.61 M335.61,57.22h-100c-3.31,0-6,2.69-6,6v140c0,3.31,2.69,6,6,6h100
				c3.31,0,6-2.69,6-6v-140C341.61,59.91,338.93,57.22,335.61,57.22L335.61,57.22z"/>
		</g>
	</g>
	<g>
		<path class="st1" d="M360.11,186.22c-1.66,0-3-1.34-3-3v-120c0-1.66,1.34-3,3-3s3,1.34,3,3v120
			C363.11,184.88,361.77,186.22,360.11,186.22z"/>
	</g>
	<g>
		<path class="st1" d="M378.61,206.22c-0.81,0-1.61-0.32-2.2-0.96l-16.3-17.62l-16.3,17.62c-1.12,1.22-3.02,1.29-4.24,0.17
			c-1.22-1.12-1.29-3.02-0.17-4.24l18.5-20c1.13-1.23,3.27-1.23,4.4,0l18.5,20c1.12,1.22,1.05,3.11-0.17,4.24
			C380.07,205.96,379.34,206.22,378.61,206.22z"/>
	</g>
</g>
<path class="st19" d="M49.33,23.22h-6v-6c0-1.66-1.34-3-3-3s-3,1.34-3,3v6h-6c-1.66,0-3,1.34-3,3s1.34,3,3,3h6v6c0,1.66,1.34,3,3,3
	s3-1.34,3-3v-6h6c1.66,0,3-1.34,3-3S50.98,23.22,49.33,23.22z"/>
<g>
	<path class="st19" d="M127.24,26.82c-2.32,0-4.2-1.88-4.2-4.2c0-0.77-0.63-1.4-1.4-1.4c-0.77,0-1.4,0.63-1.4,1.4
		c0,2.32-1.88,4.2-4.2,4.2c-0.77,0-1.4,0.63-1.4,1.4s0.63,1.4,1.4,1.4c2.32,0,4.2,1.88,4.2,4.2c0,0.77,0.63,1.4,1.4,1.4
		c0.77,0,1.4-0.63,1.4-1.4c0-2.32,1.88-4.2,4.2-4.2c0.77,0,1.4-0.63,1.4-1.4S128.01,26.82,127.24,26.82z"/>
</g>
<g>
	<g>
		<circle class="st19" cx="81.09" cy="49.12" r="3"/>
	</g>
</g>
<g>
	<g>
		<circle class="st19" cx="155.14" cy="35.22" r="3"/>
	</g>
</g>
<g>
	<g>
		<circle class="st19" cx="191.64" cy="193.22" r="3"/>
	</g>
</g>
<g>
	<g>
		<circle class="st19" cx="348.61" cy="249.19" r="3"/>
	</g>
</g>
<path class="st19" d="M354.61,353.28h-6v-6c0-1.66-1.34-3-3-3s-3,1.34-3,3v6h-6c-1.66,0-3,1.34-3,3s1.34,3,3,3h6v6
	c0,1.66,1.34,3,3,3s3-1.34,3-3v-6h6c1.66,0,3-1.34,3-3S356.27,353.28,354.61,353.28z"/>
<g>
	<g>
		<circle class="st19" cx="333.61" cy="316.1" r="3"/>
	</g>
</g>
<g>
	<g>
		<circle class="st19" cx="158.64" cy="213.64" r="3"/>
	</g>
</g>
<g>
	<circle class="st19" cx="368.86" cy="287.69" r="4.5"/>
</g>
<g>
	<circle class="st19" cx="193.64" cy="139.03" r="4.5"/>
</g>
</svg>
