<?xml version="1.0" encoding="utf-8"?>
<!-- Generator: Adobe Illustrator 26.0.2, SVG Export Plug-In . SVG Version: 6.00 Build 0)  -->
<svg version="1.1" id="landing-page-agency-illustration-03"
	 xmlns="http://www.w3.org/2000/svg" xmlns:xlink="http://www.w3.org/1999/xlink" x="0px" y="0px" viewBox="0 0 400 400"
	 style="enable-background:new 0 0 400 400;" xml:space="preserve">
<style type="text/css">
	.st0{fill:#FFD886;}
	.st1{fill:none;}
	.st2{fill:#F0AF7D;}
	.st3{fill:#515979;}
	.st4{fill:#F5CBA2;}
	.st5{fill:#FCEFE3;}
	.st6{fill:#FF5056;}
	.st7{fill:#3CB48C;}
	.st8{fill:#CEEDD9;}
	.st9{fill:#F0FAF4;}
	.st10{fill:#D26E78;}
	.st11{fill:#F89D81;}
	.st12{fill:#FAD8D8;}
</style>
<g>
	<g>
		<path class="st0" d="M344.13,299.2c3.53,0,6.4-2.87,6.4-6.4c0-1.18,0.96-2.13,2.13-2.13s2.13,0.96,2.13,2.13
			c0,3.53,2.87,6.4,6.4,6.4c1.18,0,2.13,0.96,2.13,2.13c0,1.18-0.96,2.13-2.13,2.13c-3.53,0-6.4,2.87-6.4,6.4
			c0,1.18-0.96,2.13-2.13,2.13s-2.13-0.96-2.13-2.13c0-3.53-2.87-6.4-6.4-6.4c-1.18,0-2.13-0.96-2.13-2.13
			C342,300.16,342.96,299.2,344.13,299.2z"/>
	</g>
	<g>
		<path class="st0" d="M304.13,101.87c3.53,0,6.4-2.87,6.4-6.4c0-1.18,0.96-2.13,2.13-2.13s2.13,0.96,2.13,2.13
			c0,3.53,2.87,6.4,6.4,6.4c1.18,0,2.13,0.96,2.13,2.13s-0.96,2.13-2.13,2.13c-3.53,0-6.4,2.87-6.4,6.4c0,1.18-0.96,2.13-2.13,2.13
			s-2.13-0.96-2.13-2.13c0-3.53-2.87-6.4-6.4-6.4c-1.18,0-2.13-0.96-2.13-2.13S302.96,101.87,304.13,101.87z"/>
	</g>
	<g>
		<path class="st0" d="M77.47,369.87c3.53,0,6.4-2.87,6.4-6.4c0-1.18,0.96-2.13,2.13-2.13c1.18,0,2.13,0.96,2.13,2.13
			c0,3.53,2.87,6.4,6.4,6.4c1.18,0,2.13,0.96,2.13,2.13s-0.96,2.13-2.13,2.13c-3.53,0-6.4,2.87-6.4,6.4c0,1.18-0.96,2.13-2.13,2.13
			c-1.18,0-2.13-0.96-2.13-2.13c0-3.53-2.87-6.4-6.4-6.4c-1.18,0-2.13-0.96-2.13-2.13S76.29,369.87,77.47,369.87z"/>
	</g>
	<g>
		<path class="st0" d="M21.73,190.93c3.97,0,7.2-3.23,7.2-7.2c0-1.33,1.07-2.4,2.4-2.4c1.33,0,2.4,1.07,2.4,2.4
			c0,3.97,3.23,7.2,7.2,7.2c1.33,0,2.4,1.07,2.4,2.4s-1.07,2.4-2.4,2.4c-3.97,0-7.2,3.23-7.2,7.2c0,1.33-1.07,2.4-2.4,2.4
			c-1.33,0-2.4-1.07-2.4-2.4c0-3.97-3.23-7.2-7.2-7.2c-1.33,0-2.4-1.07-2.4-2.4S20.41,190.93,21.73,190.93z"/>
	</g>
	<g>
		<path class="st0" d="M85.73,21.6c3.97,0,7.2-3.23,7.2-7.2c0-1.33,1.07-2.4,2.4-2.4c1.33,0,2.4,1.07,2.4,2.4
			c0,3.97,3.23,7.2,7.2,7.2c1.33,0,2.4,1.07,2.4,2.4s-1.07,2.4-2.4,2.4c-3.97,0-7.2,3.23-7.2,7.2c0,1.33-1.07,2.4-2.4,2.4
			c-1.33,0-2.4-1.07-2.4-2.4c0-3.97-3.23-7.2-7.2-7.2c-1.33,0-2.4-1.07-2.4-2.4S84.41,21.6,85.73,21.6z"/>
	</g>
	<g>
		<circle class="st0" cx="324.67" cy="350.67" r="4"/>
	</g>
	<g>
		<circle class="st0" cx="41.33" cy="332.67" r="3.33"/>
	</g>
	<g>
		<circle class="st0" cx="290.67" cy="287.33" r="3.33"/>
	</g>
	<g>
		<circle class="st0" cx="258.67" cy="348.67" r="6"/>
	</g>
	<g>
		<circle class="st0" cx="98.67" cy="215.33" r="6"/>
	</g>
	<g>
		<circle class="st0" cx="24.67" cy="56" r="5.33"/>
	</g>
	<g>
		<circle class="st0" cx="277.33" cy="24.67" r="3.33"/>
	</g>
	<g>
		<circle class="st0" cx="217.33" cy="124" r="4"/>
	</g>
	<path class="st0" d="M379.33,53.33H370V44c0-2.21-1.79-4-4-4c-2.21,0-4,1.79-4,4v9.33h-9.33c-2.21,0-4,1.79-4,4s1.79,4,4,4H362
		v9.33c0,2.21,1.79,4,4,4c2.21,0,4-1.79,4-4v-9.33h9.33c2.21,0,4-1.79,4-4S381.54,53.33,379.33,53.33z"/>
</g>
<g>
	<rect class="st1" width="400" height="400"/>
</g>
<g>
	<g>
		<g>
			<path class="st2" d="M136.96,349.91c-0.2,0-0.4-0.01-0.6-0.04c-0.68-0.1-16.88-2.6-34.62-10.03
				c-24.07-10.08-39.24-24.52-43.85-41.76c-3.78-14.1,1.06-29.21,12.34-38.5c3.57-2.94,15.53-12.23,16.04-12.62
				c0.71-0.55,1.57-0.84,2.45-0.84c0.23,0,0.47,0.02,0.7,0.06l88.95,15.86c1.16,0.21,2.18,0.92,2.77,1.95
				c0.59,1.02,0.69,2.26,0.29,3.37l-24.74,67.36c-0.26,0.7-0.7,1.31-1.28,1.76l-15.96,12.56
				C138.73,349.61,137.85,349.91,136.96,349.91z"/>
		</g>
		<g>
			<g>
				<path class="st3" d="M88.71,250.12l88.95,15.86l-24.74,67.37l-15.96,12.56c0,0-64.73-9.75-75.21-48.87
					c-3.49-13.03,1.24-26.33,11.02-34.38C76.33,259.73,88.71,250.12,88.71,250.12 M88.71,242.12c-1.76,0-3.49,0.58-4.91,1.68
					c-0.51,0.4-12.51,9.72-16.13,12.69c-12.48,10.28-17.84,27.01-13.66,42.62c11.7,43.68,78.89,54.28,81.75,54.71
					c0.4,0.06,0.8,0.09,1.19,0.09c1.78,0,3.53-0.6,4.95-1.71l15.96-12.56c1.16-0.92,2.05-2.14,2.56-3.53l24.74-67.37
					c0.82-2.22,0.61-4.69-0.57-6.74c-1.18-2.05-3.2-3.48-5.53-3.89l-88.95-15.86C89.65,242.16,89.18,242.12,88.71,242.12
					L88.71,242.12z"/>
			</g>
		</g>
	</g>
	<g>
		<g>
			<path class="st4" d="M152.92,337.35c-0.2,0-0.4-0.01-0.6-0.04c-0.68-0.1-16.88-2.6-34.62-10.03
				c-24.07-10.08-39.24-24.52-43.85-41.76c-2.58-9.63-1.26-19.69,3.73-28.33c4.99-8.64,13.04-14.81,22.67-17.39
				c3.16-0.85,6.4-1.27,9.64-1.27c6.67,0,13.27,1.84,19.02,5.24c4.89-8.77,13.01-15.13,22.85-17.77c3.17-0.85,6.43-1.28,9.68-1.28
				c16.85,0,31.67,11.38,36.04,27.68c4.62,17.23-1.29,37.32-17.1,58.09c-11.65,15.31-24.43,25.57-24.97,26
				C154.7,337.05,153.82,337.35,152.92,337.35z"/>
		</g>
		<g>
			<g>
				<path class="st3" d="M161.45,228.71c14.72,0,28.19,9.82,32.18,24.71c10.48,39.12-40.7,79.92-40.7,79.92s-64.73-9.75-75.21-48.87
					c-4.76-17.78,5.79-36.06,23.57-40.82c2.88-0.77,5.76-1.14,8.61-1.14c7.58,0,14.82,2.62,20.62,7.17
					c3.77-9.41,11.74-17.01,22.29-19.84C155.69,229.08,158.59,228.71,161.45,228.71 M161.45,220.71c-3.6,0-7.21,0.48-10.72,1.42
					c-9.62,2.58-17.75,8.37-23.25,16.36c-5.49-2.59-11.52-3.97-17.59-3.97c-3.59,0-7.18,0.47-10.68,1.41
					c-22.01,5.9-35.13,28.61-29.23,50.62c11.7,43.68,78.89,54.28,81.75,54.71c0.4,0.06,0.8,0.09,1.19,0.09
					c1.8,0,3.56-0.61,4.99-1.74c2.26-1.8,55.14-44.57,43.44-88.25C196.51,233.31,180.11,220.71,161.45,220.71L161.45,220.71z"/>
			</g>
		</g>
	</g>
	<g>
		<path class="st5" d="M177.37,255.03c-1.08,0-2.14-0.52-2.78-1.49c-4.55-6.87-12.97-10.05-20.94-7.92
			c-1.78,0.47-3.61-0.58-4.08-2.36c-0.48-1.78,0.58-3.61,2.36-4.08c10.74-2.88,22.08,1.41,28.22,10.68c1.02,1.54,0.6,3.6-0.94,4.62
			C178.64,254.86,178,255.03,177.37,255.03z"/>
	</g>
	<g>
		<path class="st6" d="M111.59,277.05l7.14-1.91l2.39,8.92c-1.76,1.18-3.8,2.09-6.13,2.71c-2.55,0.68-4.72,0.47-6.51-0.63
			c-1.79-1.11-3.05-3.03-3.78-5.77c-0.72-2.67-0.51-4.95,0.62-6.85c1.13-1.9,3.06-3.21,5.81-3.95c1.04-0.28,2.05-0.44,3.03-0.49
			c0.98-0.05,1.85-0.02,2.62,0.1l-0.48,3.89c-1.35-0.27-2.74-0.21-4.16,0.17c-1.31,0.35-2.2,1.04-2.69,2.09
			c-0.49,1.04-0.52,2.35-0.09,3.92c0.41,1.55,1.05,2.64,1.92,3.28c0.86,0.64,1.9,0.79,3.12,0.47c0.66-0.18,1.26-0.4,1.78-0.68
			l-0.69-2.59l-2.95,0.79L111.59,277.05z"/>
		<path class="st6" d="M137.97,271.48c0.75,2.78,0.63,5.08-0.35,6.9c-0.98,1.82-2.78,3.08-5.42,3.78c-2.6,0.7-4.78,0.5-6.56-0.59
			c-1.78-1.08-3.04-3.02-3.78-5.8c-0.74-2.75-0.61-5.04,0.38-6.86c0.99-1.82,2.8-3.09,5.42-3.79c2.63-0.71,4.82-0.52,6.57,0.56
			C135.98,266.75,137.22,268.69,137.97,271.48z M126.58,274.53c0.86,3.2,2.4,4.5,4.62,3.9c1.13-0.3,1.87-0.92,2.21-1.84
			c0.34-0.92,0.29-2.21-0.15-3.85c-0.44-1.65-1.05-2.8-1.82-3.44c-0.76-0.64-1.7-0.81-2.8-0.52
			C126.4,269.39,125.72,271.3,126.58,274.53z"/>
		<path class="st6" d="M153.33,276.25l-1.65-2.88l-5.38,1.44l-0.01,3.33l-4.91,1.32l0.95-18.07l5.97-1.6l9.92,15.15L153.33,276.25z
			 M149.78,269.95l-1.44-2.53c-0.33-0.56-0.74-1.29-1.23-2.18c-0.49-0.9-0.83-1.54-1.02-1.93c0.04,0.4,0.07,1.07,0.11,2.01
			c0.04,0.94,0.06,2.8,0.07,5.57L149.78,269.95z"/>
		<path class="st6" d="M160.01,274.47l-4.43-16.55l4.47-1.2l3.47,12.94l6.37-1.71l0.97,3.61L160.01,274.47z"/>
		<path class="st6" d="M142.4,309l-4.49,1.21l-1.81-6.75l-5.2,1.39l1.81,6.74l-4.49,1.21l-4.43-16.55l4.49-1.2l1.64,6.13l5.2-1.39
			l-1.64-6.14l4.49-1.2L142.4,309z"/>
		<path class="st6" d="M145.98,308.04l-4.43-16.55l4.49-1.2l4.43,16.55L145.98,308.04z"/>
		<path class="st6" d="M161.35,303.92l-4.47,1.2l-3.45-12.89l-4.04,1.08l-0.98-3.66l12.54-3.36l0.98,3.66l-4.03,1.08L161.35,303.92z
			"/>
	</g>
</g>
<g>
	<g>
		<g>
			<path class="st7" d="M114.08,189.94c-0.43,0-0.86-0.07-1.27-0.21c-0.65-0.22-16.17-5.49-32.36-15.89
				c-21.96-14.11-34.38-30.96-35.94-48.74c-1.27-14.54,6.12-28.58,18.83-35.77c4.03-2.27,17.42-9.34,17.98-9.64
				c0.58-0.31,1.22-0.46,1.87-0.46c0.46,0,0.93,0.08,1.38,0.24l84.84,31.07c1.11,0.41,1.98,1.28,2.39,2.4
				c0.4,1.11,0.29,2.35-0.3,3.37l-36.06,62.05c-0.37,0.64-0.92,1.17-1.57,1.52l-17.9,9.6C115.38,189.78,114.73,189.94,114.08,189.94
				z"/>
		</g>
		<g>
			<g>
				<path class="st3" d="M83.19,83.23l84.84,31.07l-36.06,62.05l-17.9,9.6c0,0-62.05-20.84-65.58-61.18
					c-1.18-13.44,5.79-25.71,16.82-31.94C69.33,90.54,83.19,83.23,83.19,83.23 M83.19,75.23c-1.29,0-2.57,0.31-3.73,0.92
					c-0.57,0.3-14.01,7.39-18.08,9.7c-14.08,7.96-22.26,23.5-20.85,39.6c3.94,45.04,68.27,67.15,71,68.07
					c0.83,0.28,1.69,0.42,2.55,0.42c1.31,0,2.61-0.32,3.78-0.95l17.9-9.6c1.31-0.7,2.39-1.75,3.14-3.03l36.06-62.05
					c1.19-2.05,1.41-4.51,0.61-6.74c-0.8-2.23-2.55-3.98-4.77-4.79L85.94,75.72C85.05,75.39,84.12,75.23,83.19,75.23L83.19,75.23z"
					/>
			</g>
		</g>
	</g>
	<g>
		<g>
			<path class="st8" d="M131.97,180.34c-0.43,0-0.86-0.07-1.27-0.21c-0.65-0.22-16.17-5.49-32.36-15.89
				c-21.96-14.11-34.38-30.96-35.94-48.74c-0.87-9.93,2.18-19.61,8.59-27.25c6.41-7.64,15.41-12.32,25.35-13.19
				c1.09-0.1,2.19-0.14,3.28-0.14c8.92,0,17.52,3.24,24.26,9.03c6.34-7.79,15.44-12.65,25.59-13.53c1.09-0.1,2.2-0.14,3.29-0.14
				c19.16,0,35.48,14.97,37.15,34.08c1.55,17.77-7.76,36.53-26.93,54.24c-14.13,13.05-28.5,20.94-29.11,21.27
				C133.29,180.18,132.64,180.34,131.97,180.34z"/>
		</g>
		<g>
			<g>
				<path class="st3" d="M152.77,74.27c17.1,0,31.65,13.08,33.17,30.43c3.53,40.34-53.96,71.64-53.96,71.64
					s-62.05-20.84-65.58-61.18c-1.6-18.34,11.96-34.51,30.3-36.11c0.98-0.09,1.96-0.13,2.93-0.13c9.75,0,18.65,4.27,24.8,11.15
					c5.35-8.62,14.52-14.72,25.4-15.67C150.81,74.31,151.79,74.27,152.77,74.27 M152.77,66.27c-1.21,0-2.43,0.05-3.64,0.16
					c-9.92,0.87-18.93,5.16-25.73,12.07c-6.92-4.89-15.22-7.58-23.77-7.58c-1.2,0-2.42,0.05-3.63,0.16
					c-22.7,1.99-39.56,22.07-37.57,44.78c3.94,45.04,68.27,67.15,71,68.07c0.83,0.28,1.69,0.42,2.55,0.42
					c1.32,0,2.64-0.33,3.83-0.97c2.54-1.38,62.05-34.32,58.11-79.37c-0.91-10.36-5.64-19.93-13.32-26.94
					C172.95,70.11,163.07,66.27,152.77,66.27L152.77,66.27z"/>
			</g>
		</g>
	</g>
	<g>
		<path class="st9" d="M170.22,103.51c-1.29,0-2.51-0.75-3.06-2c-3.29-7.56-11.02-12.14-19.24-11.43c-1.82,0.17-3.45-1.19-3.61-3.03
			c-0.16-1.83,1.2-3.45,3.03-3.61c11.07-0.98,21.5,5.22,25.94,15.41c0.74,1.69-0.04,3.65-1.73,4.39
			C171.12,103.43,170.67,103.51,170.22,103.51z"/>
	</g>
	<g>
		<path class="st6" d="M112.06,120.12l-4.64,0.4l-0.61-6.96l-5.36,0.47l0.61,6.96l-4.63,0.4l-1.49-17.07l4.63-0.4l0.55,6.33
			l5.36-0.47l-0.55-6.33l4.64-0.4L112.06,120.12z"/>
		<path class="st6" d="M115.75,119.79l-1.49-17.07l4.63-0.4l1.49,17.07L115.75,119.79z"/>
		<path class="st6" d="M130.05,108.47l7.37-0.64l0.8,9.2c-1.94,0.86-4.11,1.4-6.51,1.61c-2.63,0.23-4.73-0.36-6.3-1.75
			c-1.57-1.4-2.48-3.51-2.73-6.34c-0.24-2.76,0.36-4.97,1.8-6.64c1.44-1.67,3.57-2.63,6.41-2.88c1.07-0.09,2.1-0.08,3.07,0.04
			s1.83,0.3,2.56,0.55l-1.14,3.75c-1.28-0.5-2.66-0.68-4.13-0.56c-1.35,0.12-2.35,0.65-3.01,1.59c-0.66,0.94-0.92,2.22-0.77,3.85
			c0.14,1.6,0.58,2.78,1.32,3.56c0.74,0.78,1.73,1.11,2.99,1c0.68-0.06,1.31-0.18,1.87-0.36l-0.23-2.67l-3.05,0.27L130.05,108.47z"
			/>
		<path class="st6" d="M156.4,116.24l-4.64,0.4l-0.61-6.96l-5.36,0.47l0.61,6.96l-4.63,0.41l-1.49-17.07l4.63-0.41l0.55,6.33
			l5.36-0.47l-0.55-6.33l4.64-0.4L156.4,116.24z"/>
		<path class="st6" d="M113.56,142.64l0.54,6.21l-4.61,0.4L108,132.18l5.59-0.49c4.64-0.41,7.11,1.07,7.4,4.43
			c0.17,1.98-0.66,3.59-2.49,4.84l5.62,7l-5.23,0.46l-4.16-5.89L113.56,142.64z M113.26,139.17l0.86-0.08
			c1.61-0.14,2.35-0.92,2.23-2.35c-0.1-1.18-0.94-1.69-2.52-1.56l-0.91,0.08L113.26,139.17z"/>
		<path class="st6" d="M140.9,137.88c0.25,2.87-0.26,5.12-1.54,6.73c-1.28,1.62-3.27,2.55-5.99,2.78c-2.68,0.23-4.8-0.34-6.36-1.71
			c-1.56-1.38-2.47-3.5-2.72-6.37c-0.25-2.84,0.27-5.07,1.56-6.7c1.29-1.62,3.29-2.55,6-2.79c2.72-0.24,4.84,0.33,6.37,1.69
			C139.75,132.88,140.64,135,140.9,137.88z M129.15,138.91c0.29,3.3,1.58,4.85,3.88,4.65c1.17-0.1,2-0.58,2.49-1.43
			c0.49-0.85,0.67-2.12,0.52-3.82c-0.15-1.7-0.55-2.94-1.19-3.7c-0.64-0.76-1.53-1.1-2.67-1
			C129.87,133.81,128.86,135.58,129.15,138.91z"/>
		<path class="st6" d="M144.73,146.17l-1.49-17.07l4.64-0.41l1.49,17.07L144.73,146.17z"/>
	</g>
</g>
<g>
	<g>
		<g>
			<path class="st10" d="M260.1,266.89c-0.78,0-1.55-0.23-2.21-0.67c-0.57-0.38-14.2-9.49-27.14-23.72
				c-17.55-19.31-25.2-38.81-22.1-56.38c2.54-14.38,13.31-26.03,27.45-29.68c4.48-1.16,19.24-4.52,19.87-4.66
				c0.29-0.07,0.59-0.1,0.89-0.1c0.82,0,1.62,0.25,2.3,0.73l73.91,51.97c0.97,0.68,1.58,1.75,1.68,2.93
				c0.1,1.18-0.33,2.34-1.17,3.18l-50.89,50.6c-0.53,0.52-1.19,0.89-1.91,1.06l-19.77,4.64C260.71,266.86,260.4,266.89,260.1,266.89
				z"/>
		</g>
		<g>
			<g>
				<path class="st3" d="M256.85,155.69l73.91,51.97l-50.89,50.6l-19.77,4.64c0,0-54.54-36.19-47.51-76.07
					c2.34-13.28,12.25-23.33,24.51-26.5C241.57,159.17,256.85,155.69,256.85,155.69 M256.85,147.69c-0.59,0-1.19,0.07-1.77,0.2
					c-0.63,0.14-15.45,3.52-19.98,4.69c-15.65,4.04-27.58,16.94-30.39,32.86c-7.85,44.53,48.56,82.53,50.97,84.13
					c1.32,0.88,2.86,1.33,4.42,1.33c0.61,0,1.22-0.07,1.83-0.21l19.77-4.64c1.44-0.34,2.76-1.07,3.81-2.12l50.89-50.6
					c1.68-1.67,2.53-3.99,2.33-6.35c-0.2-2.36-1.43-4.51-3.37-5.87l-73.91-51.97C260.09,148.19,258.48,147.69,256.85,147.69
					L256.85,147.69z"/>
			</g>
		</g>
	</g>
	<g>
		<g>
			<path class="st11" d="M279.87,262.25c-0.78,0-1.55-0.23-2.21-0.67c-0.57-0.38-14.2-9.49-27.14-23.72
				c-17.56-19.31-25.2-38.81-22.1-56.38c3.15-17.88,18.6-30.86,36.73-30.86c2.17,0,4.37,0.19,6.52,0.57
				c10.04,1.77,18.67,7.4,24.31,15.71c6.33-4.55,13.88-7.02,21.72-7.02c2.16,0,4.35,0.19,6.49,0.57
				c20.27,3.57,33.86,22.98,30.28,43.25c-3.1,17.57-16.95,33.28-40.05,45.42c-17.03,8.95-32.95,12.85-33.62,13.01
				C280.5,262.22,280.18,262.25,279.87,262.25z"/>
		</g>
		<g>
			<g>
				<path class="st3" d="M265.15,154.63c1.92,0,3.87,0.17,5.83,0.51c10.76,1.9,19.36,8.77,23.94,17.82
					c6.06-5.68,14.15-9.07,22.79-9.07c1.91,0,3.85,0.17,5.8,0.51c18.13,3.2,30.24,20.49,27.04,38.62
					c-7.03,39.88-70.66,55.23-70.66,55.23s-54.54-36.19-47.51-76.07C235.21,166.01,249.27,154.63,265.15,154.63 M265.15,146.63
					c-20.07,0-37.18,14.37-40.67,34.16c-7.85,44.53,48.56,82.53,50.97,84.13c1.32,0.88,2.86,1.33,4.42,1.33
					c0.63,0,1.26-0.07,1.88-0.22c2.81-0.68,68.82-17.09,76.67-61.62c1.92-10.87-0.51-21.84-6.85-30.89
					c-6.33-9.04-15.81-15.08-26.68-17c-2.37-0.42-4.79-0.63-7.19-0.63c-7.36,0-14.5,1.96-20.76,5.63
					c-6.17-7.48-14.77-12.53-24.57-14.26C269.98,146.85,267.55,146.63,265.15,146.63L265.15,146.63z"/>
			</g>
		</g>
	</g>
	<g>
		<path class="st12" d="M336.52,197.92c-1.62,0-3.04-1.19-3.29-2.84c-1.22-8.15-7.5-14.59-15.63-16.02
			c-1.81-0.32-3.02-2.05-2.7-3.86c0.32-1.81,2.05-3.02,3.86-2.7c10.95,1.93,19.41,10.61,21.06,21.6c0.27,1.82-0.98,3.52-2.8,3.79
			C336.86,197.91,336.69,197.92,336.52,197.92z"/>
	</g>
	<g>
		<path class="st6" d="M263.15,196.83l2.98-16.87l4.56,0.8l-2.33,13.19l6.5,1.15l-0.65,3.68L263.15,196.83z"/>
		<path class="st6" d="M294.18,193.58c-0.5,2.84-1.58,4.87-3.23,6.11c-1.65,1.23-3.82,1.61-6.51,1.14c-2.65-0.47-4.54-1.57-5.69-3.3
			c-1.15-1.73-1.48-4.02-0.98-6.86c0.5-2.81,1.58-4.83,3.24-6.06c1.66-1.23,3.84-1.61,6.51-1.14c2.68,0.47,4.59,1.57,5.72,3.28
			C294.37,188.46,294.68,190.74,294.18,193.58z M282.57,191.54c-0.57,3.26,0.27,5.09,2.54,5.49c1.15,0.2,2.08-0.04,2.78-0.74
			c0.7-0.69,1.19-1.88,1.49-3.56c0.3-1.68,0.23-2.98-0.19-3.88c-0.42-0.9-1.2-1.45-2.32-1.65
			C284.58,186.8,283.15,188.24,282.57,191.54z"/>
		<path class="st6" d="M313.96,205.79l-5.39-0.95l-0.32-7.64c-0.02-0.32-0.04-0.95-0.04-1.9c0-0.94,0.01-1.73,0.04-2.36
			c-0.15,0.49-0.36,1.09-0.63,1.81c-0.27,0.72-0.53,1.38-0.77,1.98c-0.24,0.6-1.25,3.02-3.01,7.27l-5.39-0.95l-1.2-17.61l4.4,0.78
			l0.34,8.78c0.09,1.94,0.11,3.48,0.07,4.62c0.24-0.77,0.61-1.8,1.1-3.1c0.49-1.3,0.93-2.38,1.31-3.22l2.61-6.12l4.22,0.74
			l0.32,6.64c0.07,1.07,0.11,2.29,0.13,3.67c0.02,1.38,0.01,2.41-0.02,3.09c0.25-0.84,0.78-2.27,1.6-4.3l3.37-8.15l4.4,0.77
			L313.96,205.79z"/>
		<path class="st6" d="M272.67,213.97c-1.08-0.19-2.01,0.1-2.77,0.89c-0.77,0.78-1.29,1.95-1.56,3.52
			c-0.57,3.25,0.38,5.09,2.85,5.52c0.75,0.13,1.49,0.15,2.23,0.07c0.74-0.08,1.49-0.21,2.24-0.38l-0.68,3.86
			c-1.52,0.37-3.16,0.4-4.94,0.09c-2.55-0.45-4.37-1.53-5.47-3.25c-1.1-1.72-1.4-3.97-0.91-6.76c0.31-1.75,0.91-3.22,1.8-4.43
			c0.89-1.21,2.02-2.06,3.38-2.55c1.36-0.49,2.88-0.59,4.54-0.3c1.82,0.32,3.5,1.02,5.02,2.11l-2.03,3.34
			c-0.57-0.4-1.15-0.76-1.74-1.07C274.04,214.31,273.39,214.09,272.67,213.97z"/>
		<path class="st6" d="M288.49,230.55l-0.27-3.31l-5.48-0.97l-1.41,3.01l-5.01-0.88l8.49-15.97l6.08,1.07l2.59,17.92L288.49,230.55z
			 M287.93,223.33l-0.24-2.9c-0.06-0.65-0.12-1.48-0.2-2.5c-0.07-1.02-0.11-1.75-0.11-2.18c-0.14,0.38-0.39,1-0.75,1.87
			c-0.36,0.86-1.13,2.56-2.3,5.08L287.93,223.33z"/>
		<path class="st6" d="M305.17,219.7c-1.08-0.19-2.01,0.1-2.77,0.89c-0.77,0.78-1.28,1.95-1.56,3.51c-0.57,3.25,0.38,5.09,2.85,5.52
			c0.75,0.13,1.49,0.15,2.23,0.07c0.74-0.09,1.49-0.21,2.24-0.38l-0.68,3.86c-1.52,0.38-3.16,0.4-4.94,0.09
			c-2.55-0.45-4.37-1.53-5.47-3.25c-1.1-1.72-1.4-3.97-0.91-6.76c0.31-1.75,0.91-3.22,1.8-4.43c0.89-1.21,2.02-2.06,3.38-2.55
			c1.36-0.49,2.88-0.59,4.54-0.3c1.82,0.32,3.5,1.02,5.02,2.11l-2.03,3.34c-0.57-0.4-1.15-0.76-1.74-1.07
			C306.54,220.04,305.89,219.82,305.17,219.7z"/>
	</g>
</g>
</svg>
