<?xml version="1.0" encoding="utf-8"?>
<!-- Generator: Adobe Illustrator 26.0.2, SVG Export Plug-In . SVG Version: 6.00 Build 0)  -->
<svg version="1.1" id="Landing_x5F_Page_x5F_Hub-Call_x5F_To_x5F_Action_x5F_Copy"
	 xmlns="http://www.w3.org/2000/svg" xmlns:xlink="http://www.w3.org/1999/xlink" x="0px" y="0px" viewBox="0 0 400 400"
	 style="enable-background:new 0 0 400 400;" xml:space="preserve">
<style type="text/css">
	.st0{fill:#ECFAEF;}
	.st1{fill:#D8F5DF;}
	.st2{fill:#C4F1D0;}
	.st3{fill:#FFD886;}
	.st4{fill:#7170B2;}
	.st5{fill:#515979;}
	.st6{fill:#AAA0FF;}
	.st7{fill:#FFFFFF;}
	.st8{fill:#EF7D7D;}
</style>
<g>
	<circle class="st0" cx="192.5" cy="202" r="115"/>
</g>
<g>
	<circle class="st1" cx="192.5" cy="202" r="90"/>
</g>
<g>
	<circle class="st2" cx="192.5" cy="202" r="65"/>
</g>
<g>
	<path class="st3" d="M217.9,89.4c-2.65,0-4.8-2.15-4.8-4.8c0-0.88-0.72-1.6-1.6-1.6c-0.88,0-1.6,0.72-1.6,1.6
		c0,2.65-2.15,4.8-4.8,4.8c-0.88,0-1.6,0.72-1.6,1.6s0.72,1.6,1.6,1.6c2.65,0,4.8,2.15,4.8,4.8c0,0.88,0.72,1.6,1.6,1.6
		c0.88,0,1.6-0.72,1.6-1.6c0-2.65,2.15-4.8,4.8-4.8c0.88,0,1.6-0.72,1.6-1.6S218.78,89.4,217.9,89.4z"/>
</g>
<g>
	<path class="st3" d="M257.59,274.7c-2.98,0-5.4-2.42-5.4-5.4c0-0.99-0.81-1.8-1.8-1.8c-0.99,0-1.8,0.81-1.8,1.8
		c0,2.98-2.42,5.4-5.4,5.4c-0.99,0-1.8,0.81-1.8,1.8s0.81,1.8,1.8,1.8c2.98,0,5.4,2.42,5.4,5.4c0,0.99,0.81,1.8,1.8,1.8
		c0.99,0,1.8-0.81,1.8-1.8c0-2.98,2.42-5.4,5.4-5.4c0.99,0,1.8-0.81,1.8-1.8S258.59,274.7,257.59,274.7z"/>
</g>
<g>
	<path class="st3" d="M128.7,265.2c-2.98,0-5.4-2.42-5.4-5.4c0-0.99-0.81-1.8-1.8-1.8c-0.99,0-1.8,0.81-1.8,1.8
		c0,2.98-2.42,5.4-5.4,5.4c-0.99,0-1.8,0.81-1.8,1.8s0.81,1.8,1.8,1.8c2.98,0,5.4,2.42,5.4,5.4c0,0.99,0.81,1.8,1.8,1.8
		c0.99,0,1.8-0.81,1.8-1.8c0-2.98,2.42-5.4,5.4-5.4c0.99,0,1.8-0.81,1.8-1.8S129.69,265.2,128.7,265.2z"/>
</g>
<g>
	<circle class="st3" cx="67.98" cy="208" r="3"/>
</g>
<g>
	<circle class="st3" cx="188.5" cy="276.5" r="2.5"/>
</g>
<g>
	<circle class="st3" cx="170.5" cy="75.41" r="2.5"/>
</g>
<g>
	<circle class="st3" cx="320" cy="205.5" r="2.5"/>
</g>
<g>
	<circle class="st3" cx="138.65" cy="305.5" r="4.5"/>
</g>
<g>
	<circle class="st3" cx="157.5" cy="119" r="4"/>
</g>
<g>
	<circle class="st3" cx="95" cy="139.5" r="2.5"/>
</g>
<g>
	<circle class="st3" cx="242" cy="114.5" r="2.5"/>
</g>
<g>
	<circle class="st3" cx="217.5" cy="329.09" r="3"/>
</g>
<path class="st3" d="M293.5,132h-7v-7c0-1.66-1.34-3-3-3s-3,1.34-3,3v7h-7c-1.66,0-3,1.34-3,3s1.34,3,3,3h7v7c0,1.66,1.34,3,3,3
	s3-1.34,3-3v-7h7c1.66,0,3-1.34,3-3S295.16,132,293.5,132z"/>
<g>
	<g>
		<g>
			<path class="st4" d="M96.5,242.85c-4.96,0-9-4.04-9-9v-58c0-4.96,4.04-9,9-9h148c4.96,0,9,4.04,9,9v58c0,4.96-4.04,9-9,9H96.5z"
				/>
		</g>
		<g>
			<g>
				<path class="st5" d="M244.5,169.85c3.31,0,6,2.69,6,6v58c0,3.31-2.69,6-6,6h-148c-3.31,0-6-2.69-6-6v-58c0-3.31,2.69-6,6-6
					H244.5 M244.5,163.85h-148c-6.62,0-12,5.38-12,12v58c0,6.62,5.38,12,12,12h148c6.62,0,12-5.38,12-12v-58
					C256.5,169.23,251.12,163.85,244.5,163.85L244.5,163.85z"/>
			</g>
		</g>
	</g>
	<g>
		<g>
			<path class="st6" d="M114.5,242.85c-4.96,0-9-4.04-9-9v-58c0-4.96,4.04-9,9-9h178c4.96,0,9,4.04,9,9v58c0,4.96-4.04,9-9,9H114.5z
				"/>
		</g>
		<g>
			<g>
				<path class="st5" d="M292.5,169.85c3.31,0,6,2.69,6,6v58c0,3.31-2.69,6-6,6h-178c-3.31,0-6-2.69-6-6v-58c0-3.31,2.69-6,6-6
					H292.5 M292.5,163.85h-178c-6.62,0-12,5.38-12,12v58c0,6.62,5.38,12,12,12h178c6.62,0,12-5.38,12-12v-58
					C304.5,169.23,299.12,163.85,292.5,163.85L292.5,163.85z"/>
			</g>
		</g>
	</g>
	<g>
		<g>
			<g>
				<path class="st5" d="M223,189.45c-0.32,0-0.64-0.08-0.94-0.24c-1.89-1.02-5.21-1.02-7.11,0c-0.98,0.52-2.19,0.16-2.71-0.82
					c-0.52-0.97-0.16-2.19,0.82-2.71c3.05-1.64,7.84-1.64,10.89,0c0.97,0.52,1.34,1.73,0.82,2.71
					C224.4,189.06,223.71,189.45,223,189.45z"/>
			</g>
			<g>
				<g>
					<circle class="st5" cx="218.5" cy="179.7" r="7"/>
				</g>
				<g>
					<circle class="st7" cx="220.25" cy="179.7" r="1.75"/>
				</g>
			</g>
			<g>
				<path class="st5" d="M213.53,156.68c3.24-2.9,8.49-3.41,12.08-0.78c1.81,1.28,4.35,4.61,1.57,6.06
					c-0.7,0.31-1.41,0.12-2.04-0.19c-1.67-0.77-2.8-1.34-4.5-1.56c-1.59-0.26-3.57-0.04-5.21-0.01c0,0-0.78-0.08-0.78-0.08
					C212.97,160.01,212.26,157.74,213.53,156.68L213.53,156.68z"/>
			</g>
			<g>
				<path class="st5" d="M193,189.45c-0.32,0-0.64-0.08-0.94-0.24c-1.89-1.02-5.22-1.02-7.11,0c-0.97,0.52-2.19,0.16-2.71-0.82
					c-0.52-0.97-0.16-2.19,0.82-2.71c3.05-1.64,7.84-1.64,10.89,0c0.97,0.52,1.34,1.73,0.82,2.71
					C194.4,189.06,193.71,189.45,193,189.45z"/>
			</g>
			<g>
				<g>
					<circle class="st5" cx="188.5" cy="179.7" r="7"/>
				</g>
				<g>
					<circle class="st7" cx="190.25" cy="179.7" r="1.75"/>
				</g>
			</g>
			<g>
				<path class="st5" d="M191.57,160.2c-1.64-0.03-3.62-0.25-5.21,0.01c-1.71,0.22-2.84,0.78-4.5,1.56c-1.13,0.65-2.6,0.36-3.13-0.9
					c-0.22-0.53-0.2-1.1,0-1.59c0.54-1.28,1.41-2.51,2.67-3.38c2.96-2.22,7.23-2.17,10.35-0.44c1.45,0.74,3.33,2.28,1.88,4.02
					C193.12,160.1,192.29,160.15,191.57,160.2L191.57,160.2z"/>
			</g>
		</g>
		<g>
			<path class="st5" d="M217.51,191.85L217.51,191.85H189.5c-2.21,0-4,1.79-4,4c0,9.93,8.07,18,18,18c9.87,0,17.91-7.99,18-17.84
				c0-0.05,0-0.11,0-0.16C221.5,193.64,219.71,191.85,217.51,191.85z"/>
			<g>
				<g>
					<ellipse class="st8" cx="203.5" cy="205.18" rx="10.41" ry="4.67"/>
				</g>
			</g>
		</g>
	</g>
	<g>
		<path class="st7" d="M162.66,219.97c0.91,0,1.68,0.08,2.31,0.25c0.64,0.17,1.15,0.41,1.56,0.71c0.4,0.31,0.69,0.68,0.88,1.12
			c0.18,0.44,0.27,0.93,0.27,1.47c0,0.29-0.04,0.58-0.13,0.85c-0.08,0.27-0.22,0.53-0.4,0.77c-0.18,0.24-0.41,0.45-0.69,0.65
			c-0.28,0.2-0.62,0.37-1.02,0.51c0.86,0.21,1.5,0.55,1.92,1.02c0.41,0.47,0.62,1.07,0.62,1.82c0,0.56-0.11,1.08-0.32,1.56
			c-0.22,0.48-0.53,0.9-0.95,1.25c-0.42,0.36-0.93,0.64-1.54,0.84c-0.61,0.2-1.31,0.3-2.1,0.3h-5.24v-13.11H162.66z M160.88,222.25
			v3.24h1.58c0.34,0,0.64-0.02,0.91-0.07c0.27-0.05,0.5-0.13,0.69-0.25c0.19-0.12,0.33-0.29,0.43-0.5c0.1-0.21,0.15-0.47,0.15-0.79
			c0-0.31-0.04-0.57-0.12-0.78s-0.2-0.37-0.36-0.5s-0.37-0.22-0.62-0.27s-0.54-0.08-0.89-0.08H160.88z M163.02,230.79
			c0.4,0,0.73-0.05,0.99-0.15c0.25-0.1,0.45-0.23,0.6-0.4c0.14-0.16,0.24-0.34,0.3-0.55s0.08-0.41,0.08-0.62
			c0-0.24-0.03-0.46-0.09-0.65c-0.06-0.19-0.17-0.35-0.32-0.49c-0.15-0.13-0.36-0.23-0.61-0.31s-0.57-0.11-0.95-0.11h-2.12v3.27
			H163.02z"/>
		<path class="st7" d="M176.26,230.68c0.41,0,0.77-0.07,1.09-0.2c0.32-0.13,0.59-0.33,0.81-0.58c0.22-0.25,0.39-0.56,0.51-0.92
			s0.18-0.78,0.18-1.24v-7.77h3.04v7.77c0,0.8-0.13,1.54-0.39,2.21s-0.63,1.25-1.12,1.74c-0.49,0.49-1.08,0.86-1.77,1.13
			c-0.7,0.27-1.48,0.4-2.35,0.4c-0.88,0-1.66-0.13-2.36-0.4c-0.7-0.27-1.29-0.65-1.77-1.13c-0.49-0.49-0.86-1.07-1.12-1.74
			s-0.39-1.41-0.39-2.21v-7.77h3.04v7.76c0,0.46,0.06,0.88,0.17,1.24c0.12,0.36,0.29,0.67,0.51,0.93s0.49,0.45,0.81,0.58
			S175.85,230.68,176.26,230.68z"/>
		<path class="st7" d="M191.45,228.09v4.99h-3.04v-4.99l-4.75-8.13h2.68c0.26,0,0.47,0.06,0.62,0.18s0.28,0.28,0.38,0.47l1.85,3.82
			c0.16,0.3,0.3,0.58,0.42,0.84c0.13,0.26,0.24,0.52,0.33,0.77c0.09-0.26,0.19-0.52,0.31-0.78c0.12-0.26,0.25-0.54,0.41-0.83
			l1.84-3.82c0.04-0.08,0.09-0.16,0.15-0.23c0.06-0.08,0.13-0.15,0.21-0.21c0.08-0.06,0.17-0.11,0.28-0.15
			c0.1-0.04,0.22-0.06,0.35-0.06h2.7L191.45,228.09z"/>
		<path class="st7" d="M213.87,219.97v13.11h-1.58c-0.23,0-0.43-0.04-0.59-0.11c-0.16-0.08-0.32-0.21-0.47-0.39l-6.18-7.82
			c0.02,0.23,0.04,0.46,0.05,0.68s0.01,0.42,0.01,0.62v7.03h-2.68v-13.11h1.6c0.13,0,0.24,0.01,0.33,0.02
			c0.09,0.01,0.17,0.03,0.24,0.07c0.07,0.03,0.14,0.08,0.21,0.14c0.07,0.06,0.14,0.14,0.22,0.24l6.24,7.88
			c-0.03-0.25-0.05-0.5-0.06-0.73c-0.01-0.24-0.02-0.46-0.02-0.67v-6.94H213.87z"/>
		<path class="st7" d="M230.18,226.52c0,0.95-0.16,1.83-0.49,2.65c-0.33,0.82-0.79,1.53-1.38,2.13c-0.59,0.6-1.31,1.08-2.15,1.42
			s-1.77,0.51-2.79,0.51c-1.02,0-1.95-0.17-2.79-0.51s-1.56-0.81-2.16-1.42c-0.6-0.6-1.06-1.31-1.39-2.13
			c-0.33-0.82-0.49-1.7-0.49-2.65c0-0.95,0.16-1.83,0.49-2.65c0.33-0.82,0.79-1.52,1.39-2.12c0.6-0.6,1.32-1.07,2.16-1.41
			s1.77-0.51,2.79-0.51c1.02,0,1.95,0.17,2.79,0.52s1.55,0.82,2.15,1.42c0.59,0.6,1.05,1.31,1.38,2.12
			C230.02,224.7,230.18,225.58,230.18,226.52z M227.07,226.52c0-0.65-0.08-1.23-0.25-1.75c-0.17-0.52-0.41-0.96-0.72-1.32
			c-0.32-0.36-0.7-0.64-1.16-0.83s-0.97-0.29-1.56-0.29c-0.59,0-1.11,0.1-1.57,0.29s-0.85,0.47-1.16,0.83s-0.56,0.8-0.72,1.32
			c-0.17,0.52-0.25,1.1-0.25,1.75c0,0.65,0.08,1.24,0.25,1.76c0.17,0.52,0.41,0.96,0.72,1.32c0.32,0.36,0.7,0.63,1.16,0.82
			c0.46,0.19,0.98,0.28,1.57,0.28c0.58,0,1.1-0.09,1.56-0.28c0.46-0.19,0.84-0.46,1.16-0.82c0.31-0.36,0.56-0.8,0.72-1.32
			C226.98,227.76,227.07,227.17,227.07,226.52z"/>
		<path class="st7" d="M250.39,219.97l-4.05,13.11h-2.75l-2.47-8.13c-0.05-0.13-0.09-0.27-0.14-0.42c-0.04-0.15-0.08-0.31-0.13-0.48
			c-0.04,0.17-0.08,0.33-0.13,0.48c-0.04,0.15-0.09,0.29-0.13,0.42l-2.5,8.13h-2.75l-4.05-13.11h2.56c0.26,0,0.48,0.06,0.66,0.18
			c0.18,0.12,0.29,0.28,0.35,0.48l1.8,6.84c0.05,0.22,0.11,0.45,0.16,0.71c0.05,0.25,0.11,0.52,0.16,0.8
			c0.11-0.56,0.24-1.06,0.4-1.5l2.12-6.84c0.05-0.17,0.17-0.32,0.35-0.45c0.18-0.14,0.39-0.2,0.64-0.2h0.9
			c0.26,0,0.48,0.06,0.64,0.18c0.16,0.12,0.28,0.28,0.37,0.47l2.11,6.84c0.16,0.42,0.29,0.9,0.4,1.43c0.05-0.27,0.1-0.52,0.15-0.76
			c0.05-0.24,0.1-0.46,0.16-0.67l1.8-6.84c0.05-0.17,0.16-0.33,0.34-0.46c0.18-0.13,0.4-0.2,0.65-0.2H250.39z"/>
	</g>
</g>
</svg>
