<?xml version="1.0" encoding="utf-8"?>
<!-- Generator: Adobe Illustrator 25.3.1, SVG Export Plug-In . SVG Version: 6.00 Build 0)  -->
<svg version="1.1" id="bing-ads" xmlns="http://www.w3.org/2000/svg" xmlns:xlink="http://www.w3.org/1999/xlink" x="0px" y="0px"
	 viewBox="0 0 400 400" style="enable-background:new 0 0 400 400;" xml:space="preserve">
<style type="text/css">
	.st0{fill:#FFB900;}
	.st1{fill:#515979;}
	.st2{fill-rule:evenodd;clip-rule:evenodd;fill:#7DDF96;}
	.st3{fill-rule:evenodd;clip-rule:evenodd;fill:#CBF2D5;}
	.st4{opacity:0.4;}
	.st5{fill-rule:evenodd;clip-rule:evenodd;fill:#515A78;}
	.st6{fill:#FFFFFF;}
	.st7{fill:#2196F3;}
	.st8{fill:#00C853;}
	.st9{fill:#D8EBFB;}
	.st10{fill:#EF7D7D;}
	.st11{fill:#FDE1D9;}
</style>
<g>
	<path class="st0" d="M139,157.27c14.32,4.36,28.64,8.73,42.94,13.14c-0.02,35.33,0.03,70.66-0.02,105.99
		c-13.9,12.32-27.73,24.71-41.6,37.06c33.91-17.8,67.78-35.65,101.67-53.49c-9.4-4.27-18.83-8.5-28.22-12.78
		c-6.32-13.8-12.71-27.56-19.05-41.35c31.44,9.6,62.86,19.25,94.29,28.88c0,15.36,0,30.72,0,46.08
		c-35.77,21.32-71.56,42.61-107.32,63.94c-14.23-9.97-28.44-19.95-42.68-29.91C139,262.3,139,209.79,139,157.27z"/>
</g>
<g>
	<circle class="st1" cx="54" cy="163" r="3"/>
</g>
<g>
	<circle class="st1" cx="333" cy="243" r="3"/>
</g>
<g>
	<circle class="st1" cx="293" cy="317" r="3"/>
</g>
<g>
	<circle class="st1" cx="337" cy="183" r="3"/>
</g>
<g>
	<circle class="st1" cx="111" cy="227" r="3"/>
</g>
<g>
	<g>
		<path class="st1" d="M50,215c-1.66,0-3-1.34-3-3v-18c0-1.66,1.34-3,3-3s3,1.34,3,3v18C53,213.66,51.66,215,50,215z"/>
	</g>
	<g>
		<path class="st1" d="M59,206H41c-1.66,0-3-1.34-3-3s1.34-3,3-3h18c1.66,0,3,1.34,3,3S60.66,206,59,206z"/>
	</g>
</g>
<g>
	<g>
		<path class="st1" d="M265,353c-1.66,0-3-1.34-3-3v-18c0-1.66,1.34-3,3-3s3,1.34,3,3v18C268,351.66,266.66,353,265,353z"/>
	</g>
	<g>
		<path class="st1" d="M274,344h-18c-1.66,0-3-1.34-3-3s1.34-3,3-3h18c1.66,0,3,1.34,3,3S275.66,344,274,344z"/>
	</g>
</g>
<g>
	<circle class="st1" cx="98.5" cy="184.5" r="4.5"/>
</g>
<g>
	<circle class="st1" cx="294.5" cy="190.5" r="4.5"/>
</g>
<g>
	<circle class="st1" cx="208.5" cy="114.5" r="4.5"/>
</g>
<g>
	<path class="st1" d="M186.2,86.2c-2.98,0-5.4-2.42-5.4-5.4c0-0.99-0.81-1.8-1.8-1.8c-0.99,0-1.8,0.81-1.8,1.8
		c0,2.98-2.42,5.4-5.4,5.4c-0.99,0-1.8,0.81-1.8,1.8s0.81,1.8,1.8,1.8c2.98,0,5.4,2.42,5.4,5.4c0,0.99,0.81,1.8,1.8,1.8
		c0.99,0,1.8-0.81,1.8-1.8c0-2.98,2.42-5.4,5.4-5.4c0.99,0,1.8-0.81,1.8-1.8S187.19,86.2,186.2,86.2z"/>
</g>
<g>
	<path class="st1" d="M130.2,348.2c-2.98,0-5.4-2.42-5.4-5.4c0-0.99-0.81-1.8-1.8-1.8c-0.99,0-1.8,0.81-1.8,1.8
		c0,2.98-2.42,5.4-5.4,5.4c-0.99,0-1.8,0.81-1.8,1.8s0.81,1.8,1.8,1.8c2.98,0,5.4,2.42,5.4,5.4c0,0.99,0.81,1.8,1.8,1.8
		c0.99,0,1.8-0.81,1.8-1.8c0-2.98,2.42-5.4,5.4-5.4c0.99,0,1.8-0.81,1.8-1.8S131.19,348.2,130.2,348.2z"/>
</g>
<g>
	<g>
		<g>
			<path class="st2" d="M335,386c-1.66,0-3-1.34-3-3V281c0-1.66,1.34-3,3-3h12c1.66,0,3,1.34,3,3v102c0,1.66-1.34,3-3,3H335z"/>
		</g>
		<g>
			<g>
				<path class="st1" d="M347,281v102h-12V281H347 M347,275h-12c-3.31,0-6,2.69-6,6v102c0,3.31,2.69,6,6,6h12c3.31,0,6-2.69,6-6V281
					C353,277.69,350.31,275,347,275L347,275z"/>
			</g>
		</g>
	</g>
	<g>
		<g>
			<path class="st2" d="M323,371c-4.96,0-9-4.04-9-9v-12c0-1.66,1.34-3,3-3h12c1.66,0,3,1.34,3,3v3h18v-12h-27c-4.96,0-9-4.04-9-9
				v-30c0-4.96,4.04-9,9-9h36c4.96,0,9,4.04,9,9v12c0,1.66-1.34,3-3,3h-12c-1.66,0-3-1.34-3-3v-3h-18v12h27c4.96,0,9,4.04,9,9v30
				c0,4.96-4.04,9-9,9H323z"/>
		</g>
		<g>
			<path class="st1" d="M359,296c3.31,0,6,2.69,6,6v12h-12v-6h-24v18h30c3.31,0,6,2.69,6,6v30c0,3.31-2.69,6-6,6h-36
				c-3.31,0-6-2.69-6-6v-12h12v6h24v-18h-30c-3.31,0-6-2.69-6-6v-30c0-3.31,2.69-6,6-6H359 M359,290h-36c-6.62,0-12,5.38-12,12v30
				c0,6.62,5.38,12,12,12h-6c-3.31,0-6,2.69-6,6v12c0,6.62,5.38,12,12,12h36c6.62,0,12-5.38,12-12v-30c0-6.62-5.38-12-12-12h-24v-6
				h12c0,3.31,2.69,6,6,6h12c3.31,0,6-2.69,6-6v-12C371,295.38,365.62,290,359,290L359,290z M329,344h18v6h-12
				C335,346.69,332.31,344,329,344L329,344z"/>
		</g>
	</g>
	<g>
		<rect x="329" y="356" class="st3" width="24" height="3"/>
	</g>
	<g>
		<path class="st3" d="M320,299h42c1.66,0,3,1.34,3,3c0-3.31-2.69-6-6-6h-36c-3.31,0-6,2.69-6,6C317,300.34,318.34,299,320,299z"/>
	</g>
	<g>
		<path class="st3" d="M329,329h33c1.66,0,3,1.34,3,3c0-3.31-2.69-6-6-6h-30V329z"/>
	</g>
	<g>
		<rect x="335" y="281" class="st3" width="12" height="3"/>
	</g>
	<g class="st4">
		<rect x="335" y="374" class="st5" width="12" height="3"/>
	</g>
	<g class="st4">
		<rect x="335" y="344" class="st5" width="12" height="3"/>
	</g>
	<g class="st4">
		<rect x="335" y="314" class="st5" width="12" height="3"/>
	</g>
</g>
<g>
	<g>
		<g>
			<path class="st2" d="M58,345c-1.66,0-3-1.34-3-3V240c0-1.66,1.34-3,3-3h12c1.66,0,3,1.34,3,3v102c0,1.66-1.34,3-3,3H58z"/>
		</g>
		<g>
			<g>
				<path class="st1" d="M70,240v102H58V240H70 M70,234H58c-3.31,0-6,2.69-6,6v102c0,3.31,2.69,6,6,6h12c3.31,0,6-2.69,6-6V240
					C76,236.69,73.31,234,70,234L70,234z"/>
			</g>
		</g>
	</g>
	<g>
		<g>
			<path class="st2" d="M46,330c-4.96,0-9-4.04-9-9v-12c0-1.66,1.34-3,3-3h12c1.66,0,3,1.34,3,3v3h18v-12H46c-4.96,0-9-4.04-9-9v-30
				c0-4.96,4.04-9,9-9h36c4.96,0,9,4.04,9,9v12c0,1.66-1.34,3-3,3H76c-1.66,0-3-1.34-3-3v-3H55v12h27c4.96,0,9,4.04,9,9v30
				c0,4.96-4.04,9-9,9H46z"/>
		</g>
		<g>
			<path class="st1" d="M82,255c3.31,0,6,2.69,6,6v12H76v-6H52v18h30c3.31,0,6,2.69,6,6v30c0,3.31-2.69,6-6,6H46c-3.31,0-6-2.69-6-6
				v-12h12v6h24v-18H46c-3.31,0-6-2.69-6-6v-30c0-3.31,2.69-6,6-6H82 M82,249H46c-6.62,0-12,5.38-12,12v30c0,6.62,5.38,12,12,12h-6
				c-3.31,0-6,2.69-6,6v12c0,6.62,5.38,12,12,12h36c6.62,0,12-5.38,12-12v-30c0-6.62-5.38-12-12-12H58v-6h12c0,3.31,2.69,6,6,6h12
				c3.31,0,6-2.69,6-6v-12C94,254.38,88.62,249,82,249L82,249z M52,303h18v6H58C58,305.69,55.31,303,52,303L52,303z"/>
		</g>
	</g>
	<g>
		<rect x="52" y="315" class="st3" width="24" height="3"/>
	</g>
	<g>
		<path class="st3" d="M43,258h42c1.66,0,3,1.34,3,3c0-3.31-2.69-6-6-6H46c-3.31,0-6,2.69-6,6C40,259.34,41.34,258,43,258z"/>
	</g>
	<g>
		<path class="st3" d="M52,288h33c1.66,0,3,1.34,3,3c0-3.31-2.69-6-6-6H52V288z"/>
	</g>
	<g>
		<rect x="58" y="240" class="st3" width="12" height="3"/>
	</g>
	<g class="st4">
		<rect x="58" y="333" class="st5" width="12" height="3"/>
	</g>
	<g class="st4">
		<rect x="58" y="303" class="st5" width="12" height="3"/>
	</g>
	<g class="st4">
		<rect x="58" y="273" class="st5" width="12" height="3"/>
	</g>
</g>
<g>
	<g>
		<g>
			<path class="st6" d="M252,159c-3.31,0-6-2.69-6-6V39c0-3.31,2.69-6,6-6h114c3.31,0,6,2.69,6,6v97c0,0.8-0.32,1.56-0.88,2.12
				l-20,20c-0.56,0.56-1.33,0.88-2.12,0.88H252z"/>
		</g>
		<g>
			<path class="st1" d="M366,36c1.66,0,3,1.34,3,3v97l-20,20h-97c-1.66,0-3-1.34-3-3V39c0-1.66,1.34-3,3-3H366 M366,30H252
				c-4.96,0-9,4.04-9,9v114c0,4.96,4.04,9,9,9h97c1.59,0,3.12-0.63,4.24-1.76l20-20c1.13-1.13,1.76-2.65,1.76-4.24V39
				C375,34.04,370.96,30,366,30L366,30z"/>
		</g>
	</g>
	<g>
		<path class="st7" d="M335.5,101h-69c-1.38,0-2.5-1.12-2.5-2.5l0,0c0-1.38,1.12-2.5,2.5-2.5h69c1.38,0,2.5,1.12,2.5,2.5l0,0
			C338,99.88,336.88,101,335.5,101z"/>
	</g>
	<g>
		<path class="st1" d="M321.5,121h-55c-1.38,0-2.5-1.12-2.5-2.5l0,0c0-1.38,1.12-2.5,2.5-2.5h55c1.38,0,2.5,1.12,2.5,2.5l0,0
			C324,119.88,322.88,121,321.5,121z"/>
	</g>
	<g>
		<path class="st1" d="M331.5,131h-65c-1.38,0-2.5-1.12-2.5-2.5l0,0c0-1.38,1.12-2.5,2.5-2.5h65c1.38,0,2.5,1.12,2.5,2.5l0,0
			C334,129.88,332.88,131,331.5,131z"/>
	</g>
	<g>
		<path class="st1" d="M311.5,141h-45c-1.38,0-2.5-1.12-2.5-2.5l0,0c0-1.38,1.12-2.5,2.5-2.5h45c1.38,0,2.5,1.12,2.5,2.5l0,0
			C314,139.88,312.88,141,311.5,141z"/>
	</g>
	<g>
		<path class="st8" d="M329.5,111h-63c-1.38,0-2.5-1.12-2.5-2.5l0,0c0-1.38,1.12-2.5,2.5-2.5h63c1.38,0,2.5,1.12,2.5,2.5l0,0
			C332,109.88,330.88,111,329.5,111z"/>
	</g>
	<g>
		<g>
			<path class="st9" d="M349,159c-0.39,0-0.78-0.07-1.15-0.23c-1.12-0.46-1.85-1.56-1.85-2.77v-17c0-3.31,2.69-6,6-6h17
				c1.21,0,2.31,0.73,2.77,1.85c0.46,1.12,0.21,2.41-0.65,3.27l-20,20C350.55,158.7,349.78,159,349,159z"/>
		</g>
		<g>
			<g>
				<path class="st1" d="M369,136l-20,20v-17c0-1.66,1.34-3,3-3H369 M369,130h-17c-4.96,0-9,4.04-9,9v17c0,2.43,1.46,4.61,3.7,5.54
					c0.74,0.31,1.52,0.46,2.29,0.46c1.56,0,3.1-0.61,4.24-1.76l20-20c1.72-1.72,2.23-4.3,1.3-6.54C373.61,131.46,371.43,130,369,130
					L369,130z M369,142L369,142L369,142L369,142z"/>
			</g>
		</g>
	</g>
	<g>
		<g>
			<g>
				<g>
					<path class="st1" d="M324.53,65.59c-1.1,0-2-0.9-2-2c0-1.65-1.35-3-3-3s-3,1.35-3,3c0,1.1-0.9,2-2,2s-2-0.9-2-2
						c0-3.86,3.14-7,7-7s7,3.14,7,7C326.53,64.69,325.63,65.59,324.53,65.59z"/>
				</g>
			</g>
			<g>
				<path class="st1" d="M317.09,47.65c0.97-0.61,1.86-0.91,2.88-1.12c0.99-0.21,2.03-0.24,3.08-0.12c1.04,0.11,2.1,0.44,3.07,0.95
					c0.97,0.5,1.83,1.28,2.42,2.19c0.52,0.8,0.29,1.86-0.51,2.38c-0.38,0.24-0.81,0.32-1.22,0.25l-0.4-0.07
					c-0.78-0.13-1.39-0.32-2.04-0.43c-0.65-0.1-1.27-0.25-1.96-0.33l-2.11-0.25c-0.72-0.08-1.55-0.12-2.25-0.28l-0.42-0.09
					c-0.92-0.2-1.5-1.11-1.29-2.02C316.44,48.26,316.72,47.88,317.09,47.65z"/>
			</g>
		</g>
		<g>
			<g>
				<g>
					<path class="st1" d="M303.47,65.59c-1.1,0-2-0.9-2-2c0-1.65-1.35-3-3-3s-3,1.35-3,3c0,1.1-0.9,2-2,2s-2-0.9-2-2
						c0-3.86,3.14-7,7-7s7,3.14,7,7C305.47,64.69,304.58,65.59,303.47,65.59z"/>
				</g>
			</g>
			<g>
				<path class="st1" d="M299.94,50.84c-0.7,0.15-1.53,0.2-2.25,0.28l-2.11,0.25c-0.68,0.08-1.3,0.22-1.96,0.33
					c-0.65,0.11-1.26,0.3-2.04,0.43l-0.39,0.07c-0.94,0.16-1.83-0.47-1.98-1.41c-0.07-0.44,0.03-0.87,0.25-1.22
					c0.59-0.92,1.45-1.69,2.42-2.19c0.96-0.52,2.02-0.84,3.07-0.95c1.04-0.12,2.08-0.08,3.08,0.12c1.01,0.21,1.9,0.51,2.88,1.12
					c0.79,0.5,1.03,1.55,0.54,2.34c-0.25,0.4-0.64,0.66-1.07,0.76L299.94,50.84z"/>
			</g>
		</g>
		<g>
			<g>
				<g>
					<path class="st1" d="M309,87c-7.72,0-14-6.28-14-14c0-1.1,0.9-2,2-2h24c1.1,0,2,0.9,2,2C323,80.72,316.72,87,309,87z"/>
				</g>
				<g>
					<path class="st1" d="M321,73L321,73 M321,73c0,6.63-5.37,12-12,12s-12-5.37-12-12H321 M321,69L321,69h-24c-2.21,0-4,1.79-4,4
						c0,8.82,7.18,16,16,16c8.77,0,15.91-7.09,16-15.84c0-0.05,0-0.11,0-0.16C325,70.79,323.21,69,321,69L321,69z M321,77L321,77
						L321,77L321,77z"/>
				</g>
			</g>
			<g>
				<g>
					<ellipse class="st10" cx="309" cy="81" rx="8.93" ry="4"/>
				</g>
			</g>
		</g>
	</g>
	<g>
		<g>
			<circle class="st11" cx="335" cy="75" r="2"/>
		</g>
		<g>
			<circle class="st11" cx="343" cy="75" r="2"/>
		</g>
		<g>
			<circle class="st11" cx="339" cy="67" r="2"/>
		</g>
	</g>
	<g>
		<g>
			<circle class="st11" cx="275" cy="75" r="2"/>
		</g>
		<g>
			<circle class="st11" cx="283" cy="75" r="2"/>
		</g>
		<g>
			<circle class="st11" cx="279" cy="67" r="2"/>
		</g>
	</g>
</g>
<g>
	<g>
		<g>
			<path class="st6" d="M24,144c-3.31,0-6-2.69-6-6V24c0-3.31,2.69-6,6-6h114c3.31,0,6,2.69,6,6v97c0,0.8-0.32,1.56-0.88,2.12
				l-20,20c-0.56,0.56-1.33,0.88-2.12,0.88H24z"/>
		</g>
		<g>
			<path class="st1" d="M138,21c1.66,0,3,1.34,3,3v97l-20,20H24c-1.66,0-3-1.34-3-3V24c0-1.66,1.34-3,3-3H138 M138,15H24
				c-4.96,0-9,4.04-9,9v114c0,4.96,4.04,9,9,9h97c1.59,0,3.12-0.63,4.24-1.76l20-20c1.13-1.13,1.76-2.65,1.76-4.24V24
				C147,19.04,142.96,15,138,15L138,15z"/>
		</g>
	</g>
	<g>
		<path class="st7" d="M113.5,86h-75c-1.38,0-2.5-1.12-2.5-2.5l0,0c0-1.38,1.12-2.5,2.5-2.5h75c1.38,0,2.5,1.12,2.5,2.5l0,0
			C116,84.88,114.88,86,113.5,86z"/>
	</g>
	<g>
		<path class="st1" d="M103.5,106h-65c-1.38,0-2.5-1.12-2.5-2.5l0,0c0-1.38,1.12-2.5,2.5-2.5h65c1.38,0,2.5,1.12,2.5,2.5l0,0
			C106,104.88,104.88,106,103.5,106z"/>
	</g>
	<g>
		<path class="st1" d="M89.5,116h-51c-1.38,0-2.5-1.12-2.5-2.5l0,0c0-1.38,1.12-2.5,2.5-2.5h51c1.38,0,2.5,1.12,2.5,2.5l0,0
			C92,114.88,90.88,116,89.5,116z"/>
	</g>
	<g>
		<path class="st1" d="M73.5,126h-35c-1.38,0-2.5-1.12-2.5-2.5l0,0c0-1.38,1.12-2.5,2.5-2.5h35c1.38,0,2.5,1.12,2.5,2.5l0,0
			C76,124.88,74.88,126,73.5,126z"/>
	</g>
	<g>
		<path class="st8" d="M95.5,96h-57c-1.38,0-2.5-1.12-2.5-2.5l0,0c0-1.38,1.12-2.5,2.5-2.5h57c1.38,0,2.5,1.12,2.5,2.5l0,0
			C98,94.88,96.88,96,95.5,96z"/>
	</g>
	<g>
		<g>
			<path class="st9" d="M121,144c-0.39,0-0.78-0.07-1.15-0.23c-1.12-0.46-1.85-1.56-1.85-2.77v-17c0-3.31,2.69-6,6-6h17
				c1.21,0,2.31,0.73,2.77,1.85s0.21,2.41-0.65,3.27l-20,20C122.55,143.7,121.78,144,121,144z"/>
		</g>
		<g>
			<g>
				<path class="st1" d="M141,121l-20,20v-17c0-1.66,1.34-3,3-3H141 M141,115h-17c-4.96,0-9,4.04-9,9v17c0,2.43,1.46,4.61,3.7,5.54
					c0.74,0.31,1.52,0.46,2.29,0.46c1.56,0,3.1-0.61,4.24-1.76l20-20c1.72-1.72,2.23-4.3,1.3-6.54C145.61,116.46,143.43,115,141,115
					L141,115z M141,127L141,127L141,127L141,127z"/>
			</g>
		</g>
	</g>
	<g>
		<g>
			<circle class="st11" cx="107" cy="60" r="2"/>
		</g>
		<g>
			<circle class="st11" cx="115" cy="60" r="2"/>
		</g>
		<g>
			<circle class="st11" cx="111" cy="52" r="2"/>
		</g>
	</g>
	<g>
		<g>
			<circle class="st11" cx="47" cy="60" r="2"/>
		</g>
		<g>
			<circle class="st11" cx="55" cy="60" r="2"/>
		</g>
		<g>
			<circle class="st11" cx="51" cy="52" r="2"/>
		</g>
	</g>
	<g>
		<g>
			<g>
				<path class="st1" d="M89.03,54.78c-0.62,0-1.2-0.39-1.42-1.01c-0.27-0.78,0.15-1.64,0.93-1.91c2.24-0.77,5.74-0.77,7.98,0
					c0.78,0.27,1.2,1.12,0.93,1.91c-0.27,0.78-1.12,1.2-1.91,0.93c-1.6-0.55-4.42-0.55-6.02,0C89.35,54.75,89.19,54.78,89.03,54.78z
					"/>
			</g>
			<g>
				<g>
					<circle class="st1" cx="92.53" cy="46.59" r="6"/>
				</g>
				<g>
					<circle class="st6" cx="94.03" cy="46.59" r="1.5"/>
				</g>
			</g>
			<g>
				<path class="st1" d="M89.09,32.65c0.97-0.61,1.86-0.91,2.88-1.12c0.99-0.21,2.03-0.24,3.08-0.12c1.04,0.11,2.1,0.44,3.07,0.95
					c0.97,0.5,1.83,1.28,2.42,2.19c0.52,0.8,0.29,1.86-0.51,2.38c-0.38,0.24-0.81,0.32-1.22,0.25l-0.4-0.07
					c-0.78-0.13-1.39-0.32-2.04-0.43c-0.65-0.1-1.27-0.25-1.96-0.33l-2.11-0.25c-0.72-0.08-1.55-0.12-2.25-0.28l-0.42-0.09
					c-0.92-0.2-1.5-1.11-1.29-2.02C88.44,33.26,88.72,32.88,89.09,32.65z"/>
			</g>
		</g>
		<g>
			<g>
				<path class="st1" d="M72.97,54.78c-0.16,0-0.33-0.03-0.49-0.08c-1.6-0.55-4.42-0.55-6.02,0c-0.78,0.27-1.64-0.15-1.91-0.93
					c-0.27-0.78,0.15-1.64,0.93-1.91c2.24-0.77,5.74-0.77,7.98,0c0.78,0.27,1.2,1.12,0.93,1.91C74.18,54.39,73.6,54.78,72.97,54.78z
					"/>
			</g>
			<g>
				<g>
					<circle class="st1" cx="69.47" cy="46.59" r="6"/>
				</g>
				<g>
					<circle class="st6" cx="70.97" cy="46.59" r="1.5"/>
				</g>
			</g>
			<g>
				<path class="st1" d="M71.94,35.84c-0.7,0.15-1.53,0.2-2.25,0.28l-2.11,0.25c-0.68,0.08-1.3,0.22-1.96,0.33
					c-0.65,0.11-1.26,0.3-2.04,0.43l-0.39,0.07c-0.94,0.16-1.83-0.47-1.98-1.41c-0.07-0.44,0.03-0.87,0.25-1.22
					c0.59-0.92,1.45-1.69,2.42-2.19c0.96-0.52,2.02-0.84,3.07-0.95c1.04-0.12,2.08-0.08,3.08,0.12c1.01,0.21,1.9,0.51,2.88,1.12
					c0.79,0.5,1.03,1.55,0.54,2.34c-0.25,0.4-0.64,0.66-1.07,0.76L71.94,35.84z"/>
			</g>
		</g>
		<g>
			<path class="st1" d="M81.31,65.97c-4.55,0-9.21-1.07-13.25-3.21c-0.98-0.52-1.35-1.73-0.83-2.7c0.52-0.98,1.73-1.35,2.7-0.83
				c6.83,3.63,16.09,3.64,22.02,0.03c0.94-0.58,2.17-0.28,2.75,0.67c0.57,0.94,0.28,2.17-0.67,2.75
				C90.43,64.87,85.93,65.97,81.31,65.97z"/>
		</g>
		<g>
			<path class="st1" d="M77.26,69.08c1.22,0.34,2.49,0.43,3.75,0.48c0.63,0.03,1.26-0.05,1.89-0.12c0.63-0.07,1.25-0.18,1.85-0.36
				c0.68-0.21,1.4,0.17,1.61,0.85c0.14,0.45,0.01,0.92-0.29,1.25l-0.79,0.85c-0.61,0.66-1.32,1-2.04,1.25
				c-0.73,0.21-1.48,0.32-2.23,0.27c-0.37-0.02-0.75-0.04-1.12-0.11c-0.37-0.06-0.74-0.15-1.09-0.27c-0.72-0.24-1.42-0.57-2.04-1.13
				L76,71.38c-0.55-0.49-0.6-1.34-0.11-1.89C76.24,69.08,76.78,68.95,77.26,69.08z"/>
		</g>
	</g>
</g>
</svg>
