<?xml version="1.0" encoding="utf-8"?>
<!-- Generator: Adobe Illustrator 26.0.2, SVG Export Plug-In . SVG Version: 6.00 Build 0)  -->
<svg version="1.1" id="seo-agency-illustration-01" xmlns="http://www.w3.org/2000/svg" xmlns:xlink="http://www.w3.org/1999/xlink"
	 x="0px" y="0px" viewBox="0 0 400 400" style="enable-background:new 0 0 400 400;" xml:space="preserve">
<style type="text/css">
	.st0{fill:none;}
	.st1{fill:#FFD886;}
	.st2{fill:#F9CBCB;}
	.st3{fill:#515979;}
	.st4{fill:#FCE5E5;}
	.st5{fill:#F4A4A4;}
	.st6{fill:#EF7D7D;}
	.st7{fill:#75A5C3;}
	.st8{fill:#ACC9DB;}
</style>
<g>
	<g>
		<rect class="st0" width="400" height="400"/>
	</g>
	<g>
		<path class="st1" d="M202.53,73.87c-3.53,0-6.4-2.87-6.4-6.4c0-1.18-0.96-2.13-2.13-2.13c-1.18,0-2.13,0.96-2.13,2.13
			c0,3.53-2.87,6.4-6.4,6.4c-1.18,0-2.13,0.96-2.13,2.13s0.96,2.13,2.13,2.13c3.53,0,6.4,2.87,6.4,6.4c0,1.18,0.96,2.13,2.13,2.13
			c1.18,0,2.13-0.96,2.13-2.13c0-3.53,2.87-6.4,6.4-6.4c1.18,0,2.13-0.96,2.13-2.13S203.71,73.87,202.53,73.87z"/>
	</g>
	<g>
		<path class="st1" d="M352.4,182.4c3.97,0,7.2,3.23,7.2,7.2c0,1.33,1.07,2.4,2.4,2.4c1.33,0,2.4-1.07,2.4-2.4
			c0-3.97,3.23-7.2,7.2-7.2c1.33,0,2.4-1.07,2.4-2.4s-1.07-2.4-2.4-2.4c-3.97,0-7.2-3.23-7.2-7.2c0-1.33-1.07-2.4-2.4-2.4
			c-1.33,0-2.4,1.07-2.4,2.4c0,3.97-3.23,7.2-7.2,7.2c-1.33,0-2.4,1.07-2.4,2.4S351.07,182.4,352.4,182.4z"/>
	</g>
	<g>
		<path class="st1" d="M290.4,317.07c3.97,0,7.2,3.23,7.2,7.2c0,1.33,1.07,2.4,2.4,2.4c1.33,0,2.4-1.07,2.4-2.4
			c0-3.97,3.23-7.2,7.2-7.2c1.33,0,2.4-1.07,2.4-2.4c0-1.33-1.07-2.4-2.4-2.4c-3.97,0-7.2-3.23-7.2-7.2c0-1.33-1.07-2.4-2.4-2.4
			c-1.33,0-2.4,1.07-2.4,2.4c0,3.97-3.23,7.2-7.2,7.2c-1.33,0-2.4,1.07-2.4,2.4C288,315.99,289.07,317.07,290.4,317.07z"/>
	</g>
	<g>
		<circle class="st1" cx="35.33" cy="230.67" r="4"/>
	</g>
	<g>
		<circle class="st1" cx="188.67" cy="342.67" r="5.33"/>
	</g>
	<g>
		<circle class="st1" cx="282.67" cy="255.33" r="3.33"/>
	</g>
	<g>
		<circle class="st1" cx="84" cy="303.33" r="6"/>
	</g>
	<g>
		<circle class="st1" cx="299.33" cy="94.67" r="5.33"/>
	</g>
	<g>
		<circle class="st1" cx="340" cy="122" r="3.33"/>
	</g>
	<g>
		<circle class="st1" cx="124.67" cy="106.67" r="5.33"/>
	</g>
	<g>
		<circle class="st1" cx="84" cy="79.33" r="3.33"/>
	</g>
	<g>
		<circle class="st1" cx="371.33" cy="257.33" r="4"/>
	</g>
	<path class="st1" d="M80.67,153.33h-9.33V144c0-2.21-1.79-4-4-4s-4,1.79-4,4v9.33H54c-2.21,0-4,1.79-4,4s1.79,4,4,4h9.33v9.33
		c0,2.21,1.79,4,4,4s4-1.79,4-4v-9.33h9.33c2.21,0,4-1.79,4-4S82.88,153.33,80.67,153.33z"/>
	<g>
		<g>
			<g>
				<path class="st2" d="M177.17,274.82c-8.12,0-15.93-2.19-21.86-6.06c-4.52,2.17-9.61,3.31-14.87,3.31
					c-14.12,0-26.74-8.07-30.65-19.19c-10.91-1.94-18.92-9.8-21.19-21.06c-2.3-11.39,1.99-22.81,10.57-29.06
					c-3.31-9.3-1.91-20.17,3.99-29.77c6.78-11.04,17.89-17.9,28.97-17.9c0.76,0,1.51,0.03,2.26,0.1c3.3-19.52,20.4-30,35.98-30
					c11.08,0,21.27,4.84,28.68,13.64l0.94,1.12v126.74l-1.28,1.19C194.04,272.22,185.98,274.82,177.17,274.82
					C177.17,274.82,177.17,274.82,177.17,274.82z"/>
			</g>
			<g>
				<path class="st3" d="M170.38,129.18c9.15,0,18.53,3.8,25.62,12.22v123.54c-4.06,3.77-11.21,5.88-18.83,5.88
					c-7.61,0-15.67-2.1-21.54-6.76c-4.68,2.76-9.96,4.01-15.18,4.01c-12.76,0-25.14-7.5-27.53-18.81
					c-24.58-2.01-27.52-35.13-8.73-44.92c-9.82-19.39,7.92-45.25,27.94-45.25c1.91,0,3.84,0.23,5.76,0.73
					C139,140.86,154.34,129.18,170.38,129.18 M170.38,121.18c-18.95,0-34.57,12.39-39.17,29.92c-12.15,0.36-24.13,7.87-31.45,19.79
					c-5.98,9.73-7.77,20.69-5.2,30.46c-8.3,7.41-12.27,19.36-9.87,31.26c2.46,12.17,10.75,20.89,22.17,23.73
					c5.2,11.7,18.43,19.72,33.59,19.72c5.08,0,10.03-0.96,14.56-2.8c6.29,3.61,13.98,5.55,22.17,5.55c9.94,0,18.79-2.92,24.27-8.02
					l2.56-2.37v-3.49V141.4v-2.92l-1.88-2.23C193.94,126.53,182.67,121.18,170.38,121.18L170.38,121.18z"/>
			</g>
		</g>
		<g>
			<path class="st4" d="M198.97,163.8c-0.68,0-1.37-0.26-1.89-0.78c-6.36-6.38-15.24-3.03-15.62-2.88
				c-1.37,0.53-2.92-0.14-3.45-1.51c-0.54-1.37,0.13-2.91,1.49-3.45c0.51-0.2,12.48-4.82,21.36,4.08c1.04,1.04,1.04,2.73-0.01,3.77
				C200.34,163.54,199.66,163.8,198.97,163.8z"/>
		</g>
		<g>
			<path class="st4" d="M150.7,177.25c-0.2,0-0.41-0.02-0.62-0.07c-1.42-0.34-2.31-1.75-1.98-3.18c0.74-3.21,4.12-9.2,11.64-8.9
				c1.47,0.06,2.62,1.3,2.56,2.77c-0.06,1.47-1.3,2.61-2.77,2.56c-4.82-0.23-6.11,4.28-6.23,4.79
				C152.99,176.43,151.9,177.25,150.7,177.25z"/>
		</g>
		<g>
			<path class="st3" d="M197.73,157.5c-0.63,0-1.26-0.22-1.76-0.67c-0.32-0.28-7.33-6.17-18.04-0.83c-1.32,0.66-2.92,0.12-3.58-1.19
				c-0.66-1.32-0.12-2.92,1.19-3.58c14.06-7.02,23.57,1.25,23.97,1.61c1.1,0.98,1.19,2.67,0.21,3.76
				C199.19,157.2,198.46,157.5,197.73,157.5z"/>
		</g>
		<g>
			<g>
				<path class="st4" d="M146.48,158.56c0.22-14.33,20.88-38.76,49.52-17.16c-18.2-21.61-51.49-12.79-57.29,12.65L146.48,158.56z"/>
			</g>
		</g>
		<g>
			<path class="st3" d="M145.96,175.16c-0.24,0-0.49-0.03-0.74-0.1c-1.42-0.41-2.23-1.88-1.83-3.3c1.41-4.9,6.32-10.65,15.53-10.73
				c1.51,0.03,2.68,1.17,2.69,2.64c0.01,1.47-1.17,2.68-2.64,2.69c-6.27,0.06-9.51,3.59-10.45,6.87
				C148.19,174.4,147.12,175.16,145.96,175.16z"/>
		</g>
		<g>
			<path class="st3" d="M151.06,168.18c-1.37,0-2.71-0.71-3.45-1.97c-0.16-0.26-2.84-4.38-10.43-6.44
				c-2.13-0.58-3.39-2.78-2.81-4.91c0.58-2.13,2.78-3.39,4.91-2.81c10.9,2.96,14.85,9.43,15.27,10.16c1.09,1.92,0.42,4.36-1.5,5.46
				C152.41,168.01,151.74,168.18,151.06,168.18z"/>
		</g>
		<g>
			<g>
				<path class="st0" d="M197.33,263.37V147.19c-0.43-0.42-0.88-0.8-1.33-1.19v117.92C196.47,263.75,196.92,263.57,197.33,263.37z"
					/>
			</g>
		</g>
		<g>
			<g>
				<path class="st5" d="M155.63,264.06c11.76,9.31,32.26,8.42,40.37,0.88v-9.24c0,0-14.94,9.77-30.06,1.18
					c0,0-31.18,12.68-43.91-5.91l-7.66,2.57C120.57,266.61,141,272.67,155.63,264.06z"/>
			</g>
		</g>
		<g>
			<path class="st3" d="M170.15,254.84c-3.93,0-8.73-1.3-13.47-5.85c-1.06-1.02-1.1-2.71-0.07-3.77c1.02-1.06,2.71-1.1,3.77-0.08
				c4.71,4.53,9.36,4.73,12.43,4.09c1.44-0.29,2.85,0.63,3.15,2.07c0.3,1.44-0.63,2.85-2.07,3.15
				C172.77,254.69,171.52,254.84,170.15,254.84z"/>
		</g>
		<g>
			<path class="st3" d="M154.31,273.56c-1.58,0-3.08-0.94-3.71-2.5c-0.83-2.04,0.15-4.36,2.18-5.2c0.35-0.15,7.44-3.29,9.44-12.18
				c0.48-2.16,2.62-3.51,4.78-3.03c2.15,0.48,3.51,2.62,3.03,4.78c-2.95,13.12-13.75,17.64-14.21,17.83
				C155.32,273.47,154.81,273.56,154.31,273.56z"/>
		</g>
		<g>
			<path class="st3" d="M138.85,249.36c-0.17,0-0.34-0.02-0.51-0.05c-4.34-0.84-10.25-3.54-13.79-11.66
				c-0.59-1.35,0.03-2.92,1.38-3.51c1.35-0.59,2.92,0.03,3.51,1.38c2.61,5.99,6.83,7.96,9.91,8.55c1.45,0.28,2.39,1.68,2.11,3.12
				C141.22,248.47,140.1,249.36,138.85,249.36z"/>
		</g>
		<g>
			<path class="st3" d="M111.81,256.76c-2.68,0-4.47-0.3-4.68-0.34c-2.18-0.39-3.62-2.46-3.24-4.64c0.39-2.17,2.46-3.62,4.63-3.24
				c0.2,0.03,12.02,1.9,19.34-6.22c1.48-1.64,4.01-1.77,5.65-0.29c1.64,1.48,1.77,4.01,0.29,5.65
				C126.8,255.44,117.38,256.76,111.81,256.76z"/>
		</g>
		<g>
			<rect x="196" y="142.64" class="st3" width="8" height="40"/>
		</g>
		<g>
			<g>
				<path class="st2" d="M222.83,274.82c-8.81,0-16.87-2.6-21.55-6.95l-1.28-1.19V139.94l0.94-1.12
					c7.41-8.8,17.59-13.64,28.68-13.64c15.58,0,32.68,10.48,35.98,30c0.75-0.06,1.51-0.1,2.26-0.1c11.09,0,22.19,6.86,28.97,17.9
					c5.9,9.6,7.3,20.47,3.99,29.77c8.58,6.25,12.87,17.67,10.57,29.06c-2.27,11.26-10.28,19.12-21.19,21.06
					c-3.92,11.12-16.53,19.19-30.65,19.19c-5.26,0-10.35-1.14-14.87-3.31C238.76,272.63,230.95,274.82,222.83,274.82z"/>
			</g>
			<g>
				<path class="st3" d="M229.62,129.18c16.04,0,31.38,11.68,32.49,30.64c1.92-0.5,3.85-0.73,5.76-0.73
					c20.02,0,37.77,25.85,27.94,45.25c18.79,9.78,15.86,42.91-8.73,44.92c-2.38,11.32-14.77,18.81-27.53,18.81
					c-5.22,0-10.5-1.25-15.18-4.01c-5.88,4.65-13.94,6.76-21.54,6.76c-7.61,0-14.77-2.11-18.83-5.88V141.4
					C211.09,132.98,220.47,129.18,229.62,129.18 M229.62,121.18v8V121.18c-12.29,0-23.56,5.35-31.74,15.06l-1.88,2.23v2.92v123.54
					v3.49l2.56,2.37c5.48,5.09,14.33,8.02,24.27,8.02c8.19,0,15.87-1.95,22.17-5.55c4.53,1.84,9.48,2.8,14.56,2.8
					c15.16,0,28.39-8.02,33.59-19.72c11.42-2.84,19.72-11.56,22.17-23.73c2.4-11.89-1.58-23.85-9.87-31.26
					c2.57-9.78,0.78-20.73-5.2-30.46c-7.32-11.91-19.3-19.43-31.46-19.79C264.19,133.58,248.57,121.18,229.62,121.18L229.62,121.18z
					"/>
			</g>
		</g>
		<g>
			<path class="st4" d="M201.03,163.8c-0.68,0-1.36-0.26-1.88-0.78c-1.04-1.04-1.05-2.73-0.01-3.77c8.87-8.9,20.85-4.28,21.36-4.08
				c1.37,0.54,2.04,2.1,1.49,3.46c-0.54,1.36-2.09,2.03-3.45,1.5c-0.38-0.15-9.26-3.5-15.62,2.88
				C202.39,163.53,201.71,163.8,201.03,163.8z"/>
		</g>
		<g>
			<path class="st4" d="M249.3,177.26c-1.21,0-2.3-0.83-2.59-2.05c-0.13-0.53-1.36-5.02-6.23-4.79c-1.46,0.04-2.71-1.08-2.77-2.56
				c-0.06-1.47,1.08-2.71,2.56-2.77c7.47-0.3,10.9,5.69,11.64,8.9c0.33,1.43-0.57,2.87-2,3.2
				C249.7,177.24,249.5,177.26,249.3,177.26z"/>
		</g>
		<g>
			<path class="st3" d="M202.27,157.5c-0.73,0-1.46-0.3-1.99-0.89c-0.98-1.1-0.89-2.78,0.21-3.76c0.4-0.35,9.91-8.63,23.97-1.61
				c1.32,0.66,1.85,2.26,1.19,3.58c-0.66,1.32-2.26,1.85-3.58,1.19c-10.86-5.42-17.96,0.75-18.03,0.82
				C203.54,157.28,202.9,157.5,202.27,157.5z"/>
		</g>
		<g>
			<g>
				<path class="st4" d="M253.52,158.56c-0.22-14.33-20.88-38.76-49.52-17.16c18.2-21.61,51.49-12.79,57.29,12.65L253.52,158.56z"/>
			</g>
		</g>
		<g>
			<path class="st3" d="M254.04,175.16c-1.16,0-2.23-0.76-2.56-1.93c-0.94-3.29-4.18-6.82-10.45-6.87
				c-1.47-0.01-2.66-1.22-2.64-2.69c0.01-1.46,1.2-2.64,2.67-2.64c0.01,0,0.02,0,0.02,0c9.21,0.08,14.12,5.83,15.53,10.73
				c0.41,1.42-0.41,2.89-1.83,3.3C254.53,175.13,254.28,175.16,254.04,175.16z"/>
		</g>
		<g>
			<path class="st3" d="M248.94,168.21c-0.68,0-1.36-0.17-1.99-0.53c-1.92-1.09-2.57-3.56-1.48-5.48c0.42-0.73,4.37-7.2,15.27-10.16
				c2.13-0.58,4.33,0.68,4.91,2.81s-0.68,4.33-2.81,4.91c-7.68,2.08-10.33,6.27-10.44,6.45
				C251.65,167.5,250.32,168.21,248.94,168.21z"/>
		</g>
		<g>
			<g>
				<path class="st0" d="M202.67,263.37V147.19c0.43-0.42,0.88-0.8,1.33-1.19v117.92C203.53,263.75,203.08,263.57,202.67,263.37z"/>
			</g>
		</g>
		<g>
			<g>
				<path class="st5" d="M244.37,264.06c-11.76,9.31-32.26,8.42-40.37,0.88v-9.24c0,0,14.94,9.77,30.06,1.18
					c0,0,31.18,12.68,43.91-5.91l7.66,2.57C279.43,266.61,259,272.67,244.37,264.06z"/>
			</g>
		</g>
		<g>
			<path class="st3" d="M229.85,254.84c-1.36,0-2.62-0.16-3.74-0.39c-1.44-0.3-2.37-1.71-2.07-3.15c0.3-1.44,1.7-2.37,3.15-2.07
				c3.07,0.63,7.72,0.44,12.43-4.09c1.06-1.02,2.75-0.99,3.77,0.08c1.02,1.06,0.99,2.75-0.08,3.77
				C238.58,253.55,233.78,254.84,229.85,254.84z"/>
		</g>
		<g>
			<path class="st3" d="M245.68,273.56c-0.5,0-1.01-0.09-1.5-0.29c-0.46-0.19-11.26-4.71-14.21-17.82c-0.48-2.16,0.87-4.3,3.02-4.78
				c2.16-0.48,4.3,0.87,4.78,3.02c2.01,8.93,9.14,12.05,9.45,12.18c2.02,0.86,2.99,3.19,2.14,5.22
				C248.73,272.63,247.25,273.56,245.68,273.56z"/>
		</g>
		<g>
			<path class="st3" d="M261.15,249.36c-1.25,0-2.37-0.89-2.62-2.16c-0.28-1.45,0.67-2.85,2.11-3.12c3.08-0.59,7.3-2.56,9.91-8.55
				c0.59-1.35,2.16-1.97,3.51-1.38c1.35,0.59,1.97,2.16,1.38,3.51c-3.54,8.12-9.45,10.82-13.79,11.66
				C261.49,249.34,261.32,249.36,261.15,249.36z"/>
		</g>
		<g>
			<path class="st3" d="M288.19,256.76c-5.58,0-14.99-1.32-21.99-9.08c-1.48-1.64-1.35-4.17,0.29-5.65
				c1.64-1.48,4.17-1.35,5.65,0.29c7.35,8.15,19.22,6.23,19.35,6.22c2.17-0.37,4.24,1.08,4.62,3.26c0.38,2.17-1.06,4.24-3.23,4.62
				C292.66,256.46,290.87,256.76,288.19,256.76z"/>
		</g>
		<g>
			
				<rect x="196" y="142.64" transform="matrix(-1 -4.490642e-11 4.490642e-11 -1 400 325.2738)" class="st3" width="8" height="40"/>
		</g>
		<g>
			<g>
				<g>
					<g>
						<path class="st3" d="M214.64,168.29c4.96-4.47,13.02-5.26,18.51-1.22c2.82,1.98,6.66,7.15,2.35,9.36
							c-1.08,0.48-2.17,0.17-3.14-0.29c-4.18-2.16-7.99-2.85-12.63-2.44c-1.15,0.09-2.3,0.11-3.38-0.08
							C213.77,173.41,212.7,169.93,214.64,168.29L214.64,168.29z"/>
					</g>
					<g>
						<path class="st3" d="M182.4,173.76c-2.49-0.02-5.51-0.36-7.91,0.05c-2.59,0.34-4.29,1.17-6.84,2.33
							c-1.79,1-4.05,0.55-4.87-1.44c-0.33-0.81-0.31-1.68,0-2.43c0.81-1.97,2.15-3.86,4.08-5.2c3.62-2.75,8.82-3.25,12.98-1.89
							c2.93,0.93,8.63,3.71,5.75,7.44C184.81,173.58,183.5,173.65,182.4,173.76L182.4,173.76z"/>
					</g>
				</g>
			</g>
			<g>
				<g>
					<g>
						<path class="st3" d="M200,251.3c-15.07,0-27.33-12.26-27.33-27.33c0-1.84,1.49-3.33,3.33-3.33h48c1.84,0,3.33,1.49,3.33,3.33
							C227.33,239.04,215.07,251.3,200,251.3z"/>
					</g>
					<g>
						<path class="st3" d="M224,223.97L224,223.97 M224,223.97c0,13.25-10.75,24-24,24s-24-10.75-24-24H224 M224.01,217.3
							L224.01,217.3H176c-3.68,0-6.67,2.98-6.67,6.67c0,16.91,13.76,30.67,30.67,30.67c16.83,0,30.54-13.63,30.67-30.43
							c0-0.08,0-0.16,0-0.24C230.67,220.29,227.69,217.3,224.01,217.3L224.01,217.3z M224,230.64L224,230.64L224,230.64L224,230.64z
							"/>
					</g>
				</g>
				<g>
					<g>
						<ellipse class="st6" cx="200" cy="239.97" rx="17.85" ry="8"/>
					</g>
				</g>
			</g>
			<g>
				<g>
					<path class="st3" d="M208,198.39c-2.21,0-4-1.79-4-4c0-2.21-1.79-4-4-4s-4,1.79-4,4c0,2.21-1.79,4-4,4s-4-1.79-4-4
						c0-6.62,5.38-12,12-12c6.62,0,12,5.38,12,12C212,196.6,210.21,198.39,208,198.39z"/>
				</g>
				<g>
					<path class="st3" d="M170.67,178.39h-21.33c-2.95,0-5.33,2.39-5.33,5.33v0c0,2.95,2.39,5.33,5.33,5.33h6.21l15.13,6.67V178.39z
						"/>
				</g>
				<g>
					<path class="st7" d="M173.33,210.39L173.33,210.39c-8.1,0-14.67-6.57-14.67-14.67v-5.67c0-2.03,1.64-3.67,3.67-3.67h22
						c2.03,0,3.67,1.64,3.67,3.67v5.67C188,203.83,181.43,210.39,173.33,210.39z"/>
				</g>
				<g>
					<polygon class="st8" points="158.67,211.73 166.67,211.73 176,185.06 168,185.06 					"/>
				</g>
				<g>
					<polygon class="st8" points="170.67,211.73 176,211.73 185.33,185.06 180,185.06 					"/>
				</g>
				<g>
					<path class="st3" d="M184.33,186.39c2.03,0,3.67,1.64,3.67,3.67v5.67c0,8.1-6.57,14.67-14.67,14.67h0
						c-8.1,0-14.67-6.57-14.67-14.67v-9.33H184.33 M184.33,178.39h-25.67c-4.42,0-8,3.58-8,8v9.33c0,12.5,10.17,22.67,22.67,22.67
						c12.5,0,22.67-10.17,22.67-22.67v-5.67C196,183.63,190.77,178.39,184.33,178.39L184.33,178.39z"/>
				</g>
				<g>
					<path class="st8" d="M152.33,185.06H149c-0.55,0-1-0.45-1-1v-0.67c0-0.55,0.45-1,1-1h3.33c0.55,0,1,0.45,1,1v0.67
						C153.33,184.61,152.89,185.06,152.33,185.06z"/>
				</g>
				<g>
					<path class="st3" d="M229.33,178.39h21.33c2.95,0,5.33,2.39,5.33,5.33v0c0,2.95-2.39,5.33-5.33,5.33h-6.21l-15.13,6.67V178.39z
						"/>
				</g>
				<g>
					<path class="st7" d="M226.67,210.39L226.67,210.39c-8.1,0-14.67-6.57-14.67-14.67v-5.67c0-2.03,1.64-3.67,3.67-3.67h22
						c2.03,0,3.67,1.64,3.67,3.67v5.67C241.33,203.83,234.77,210.39,226.67,210.39z"/>
				</g>
				<g>
					<polygon class="st8" points="212,211.73 220,211.73 229.33,185.06 221.33,185.06 					"/>
				</g>
				<g>
					<polygon class="st8" points="224,211.73 229.33,211.73 238.67,185.06 233.33,185.06 					"/>
				</g>
				<g>
					<path class="st3" d="M241.33,186.39v9.33c0,8.1-6.57,14.67-14.67,14.67h0c-8.1,0-14.67-6.57-14.67-14.67v-5.67
						c0-2.03,1.64-3.67,3.67-3.67H241.33 M241.33,178.39h-25.67c-6.43,0-11.67,5.23-11.67,11.67v5.67
						c0,12.5,10.17,22.67,22.67,22.67c12.5,0,22.67-10.17,22.67-22.67v-9.33C249.33,181.97,245.75,178.39,241.33,178.39
						L241.33,178.39z"/>
				</g>
				<g>
					<path class="st8" d="M247.67,185.06H251c0.55,0,1-0.45,1-1v-0.67c0-0.55-0.45-1-1-1h-3.33c-0.55,0-1,0.45-1,1v0.67
						C246.67,184.61,247.11,185.06,247.67,185.06z"/>
				</g>
			</g>
		</g>
		<g>
			<g>
				<path class="st4" d="M289.58,216.87c-3.48,2.03-7.67,0.61-7.81,0.56c-2.06-0.76-4.35,0.29-5.12,2.35
					c-0.78,2.07,0.27,4.37,2.34,5.15c0.18,0.07,2.77,1.02,6.26,1.02c2.48,0,5.42-0.48,8.25-2.1c4.52-2.59,7.56-7.29,9.08-13.95
					c-1.74-2.14-3.89-3.98-6.46-5.38c-0.5,0.55-0.86,1.23-0.99,2.01C294.21,211.78,292.34,215.26,289.58,216.87z"/>
			</g>
		</g>
		<g>
			<g>
				<path class="st4" d="M110.73,216.87c3.48,2.03,7.67,0.61,7.81,0.56c2.06-0.76,4.35,0.29,5.12,2.35
					c0.78,2.07-0.27,4.37-2.34,5.15c-0.18,0.07-2.77,1.02-6.26,1.02c-2.48,0-5.42-0.48-8.25-2.1c-4.52-2.59-7.56-7.29-9.08-13.95
					c1.74-2.14,3.89-3.98,6.46-5.38c0.5,0.55,0.86,1.23,0.99,2.01C106.1,211.78,107.96,215.26,110.73,216.87z"/>
			</g>
		</g>
		<g>
			<path class="st3" d="M279.69,220.38c-2.21,0-4-1.79-4-4s1.79-4,4-4c12.77,0,16.98-9.57,17.15-9.97c0.86-2.02,3.19-2.99,5.22-2.14
				c2.03,0.84,3,3.15,2.18,5.18C304,206.06,297.97,220.38,279.69,220.38z"/>
		</g>
		<g>
			<path class="st3" d="M275.97,226.13c-0.46,0-0.92-0.12-1.35-0.37c-1.27-0.74-1.7-2.38-0.95-3.65c1.59-2.7,2.89-7.17,0.11-13.09
				c-0.63-1.33-0.05-2.92,1.28-3.55c1.33-0.62,2.92-0.05,3.55,1.28c3.96,8.44,1.49,14.93-0.34,18.05
				C277.78,225.66,276.89,226.13,275.97,226.13z"/>
		</g>
		<g>
			<path class="st3" d="M120.31,220.38c-18.28,0-24.31-14.32-24.55-14.93c-0.83-2.05,0.15-4.38,2.2-5.21
				c2.04-0.83,4.36,0.15,5.2,2.18c0.2,0.46,4.42,9.97,17.15,9.97c2.21,0,4,1.79,4,4S122.52,220.38,120.31,220.38z"/>
		</g>
		<g>
			<path class="st3" d="M124.03,226.13c-0.92,0-1.81-0.47-2.3-1.32c-2.23-3.81-4.11-10.03-0.34-18.05c0.63-1.33,2.21-1.9,3.55-1.28
				c1.33,0.63,1.91,2.21,1.28,3.55c-2.78,5.92-1.47,10.38,0.11,13.09c0.75,1.27,0.32,2.9-0.95,3.65
				C124.95,226.02,124.49,226.13,124.03,226.13z"/>
		</g>
	</g>
</g>
</svg>
