<svg width="328" height="339" viewBox="0 0 328 339" fill="none" xmlns="http://www.w3.org/2000/svg">
<path d="M134.826 190.703C134.436 190.349 134.145 189.901 133.979 189.402L103.079 94.2977C102.957 93.9229 102.91 93.5276 102.94 93.1346C102.971 92.7415 103.079 92.3584 103.258 92.0071C103.437 91.6557 103.683 91.3431 103.983 91.087C104.283 90.831 104.63 90.6365 105.005 90.5148L150.656 75.6814C151.031 75.5592 151.426 75.512 151.819 75.5424C152.211 75.5728 152.594 75.6804 152.946 75.8588C153.18 75.979 153.397 76.1295 153.592 76.3064C153.982 76.66 154.273 77.1081 154.439 77.6074L185.339 172.711C185.461 173.086 185.508 173.481 185.478 173.874C185.447 174.267 185.339 174.651 185.16 175.002C184.981 175.353 184.735 175.666 184.435 175.922C184.135 176.178 183.788 176.373 183.413 176.494L137.762 191.328C137.387 191.45 136.992 191.497 136.599 191.467C136.207 191.436 135.824 191.329 135.472 191.15C135.238 191.03 135.021 190.88 134.826 190.703V190.703Z" fill="#7DDF96"/>
<path d="M151.585 78.5358L182.485 173.64L136.833 188.473L105.933 93.3692L151.585 78.5358ZM155.599 74.077C155.21 73.7284 154.778 73.4299 154.314 73.1884C153.611 72.8295 152.844 72.6127 152.057 72.5507C151.27 72.4887 150.478 72.5825 149.728 72.8269L104.077 87.6603C103.327 87.9038 102.632 88.2927 102.032 88.8048C101.433 89.3169 100.94 89.9422 100.582 90.6449C100.225 91.3475 100.009 92.1138 99.9475 92.8999C99.8861 93.686 99.9802 94.4765 100.225 95.2262L131.124 190.33C131.451 191.331 132.035 192.228 132.818 192.932C133.21 193.285 133.647 193.583 134.118 193.82C135.534 194.541 137.178 194.672 138.69 194.182L184.341 179.349C185.091 179.105 185.786 178.716 186.386 178.204C186.985 177.692 187.478 177.067 187.836 176.364C188.193 175.661 188.409 174.895 188.47 174.109C188.532 173.323 188.438 172.533 188.193 171.783L157.294 76.6789C156.967 75.678 156.383 74.7806 155.599 74.077V74.077Z" fill="#515979"/>
<path d="M149.904 151.032C141.86 153.599 133.727 152.17 128.393 147.812L137.396 175.564C139.388 174.917 141.556 175.088 143.422 176.039C145.289 176.99 146.701 178.644 147.348 180.636L169.377 173.477C169.056 172.491 168.933 171.452 169.014 170.419C169.095 169.386 169.379 168.379 169.849 167.455C170.319 166.532 170.967 165.71 171.755 165.037C172.543 164.364 173.456 163.852 174.442 163.532L165.425 135.781C163.664 142.43 157.917 148.424 149.904 151.032ZM160.642 161.926C161.054 163.608 160.815 165.383 159.973 166.896C159.13 168.408 157.747 169.547 156.1 170.082C154.453 170.617 152.665 170.51 151.094 169.782C149.523 169.053 148.286 167.758 147.63 166.155C147.218 164.473 147.458 162.698 148.3 161.185C149.143 159.673 150.526 158.534 152.173 157.999C153.819 157.464 155.608 157.571 157.179 158.299C158.749 159.028 159.987 160.323 160.642 161.926V161.926Z" fill="#00C853"/>
<path d="M113.983 103.484L122.985 131.222C124.754 124.579 130.501 118.585 138.514 115.977C146.528 113.369 154.698 114.846 160.025 119.197L151.002 91.4675C150.017 91.7882 148.977 91.9115 147.944 91.8304C146.911 91.7493 145.904 91.4655 144.98 90.9951C144.057 90.5247 143.235 89.8769 142.562 89.0888C141.889 88.3007 141.377 87.3877 141.057 86.402L119.049 93.5386C119.694 95.5292 119.522 97.6942 118.573 99.5587C117.623 101.423 115.973 102.835 113.983 103.484V103.484ZM140.795 100.86C141.255 102.541 141.03 104.335 140.17 105.851C139.31 107.366 137.884 108.479 136.206 108.947C134.568 109.548 132.758 109.477 131.173 108.748C129.588 108.019 128.355 106.692 127.746 105.056C127.287 103.374 127.513 101.578 128.374 100.062C129.236 98.5451 130.662 97.4311 132.342 96.963C133.98 96.361 135.79 96.4333 137.374 97.1639C138.959 97.8946 140.189 99.224 140.795 100.86V100.86Z" fill="#00C853"/>
<path d="M146.29 129.37C145.175 129.712 145.115 131.004 145.646 133.298C146.461 137.355 146.702 140.748 142.079 142.506C139.078 143.478 136.4 142.237 134.681 138.886L132.488 139.603L131.095 135.321L133.288 134.604C133.084 133.483 133.174 132.327 133.551 131.251C133.928 130.175 134.578 129.215 135.437 128.466C135.486 128.389 135.547 128.322 135.618 128.265L136.152 127.777L139.39 131.325L138.72 132.068C138.253 132.483 137.931 133.039 137.804 133.651C137.677 134.264 137.75 134.901 138.014 135.468C138.672 137.501 139.375 138.215 140.615 137.81C141.692 137.435 141.674 136.14 141.194 133.864C140.367 129.971 140.109 126.267 144.76 124.763C147.809 123.767 150.575 125.074 152.379 128.407L154.662 127.664L155.977 131.942L153.769 132.646C154.064 133.897 153.997 135.207 153.576 136.421C153.154 137.636 152.395 138.705 151.388 139.504L150.626 140.097L147.73 136.305L148.495 135.769C149.513 134.937 149.738 133.686 149.17 132.03C148.446 129.845 147.523 128.973 146.29 129.37Z" fill="#00C853"/>
<path d="M88.0458 278.177C87.5522 277.996 87.1139 277.689 86.7731 277.289L22.4967 200.685C22.243 200.383 22.0513 200.034 21.9326 199.658C21.8138 199.283 21.7703 198.887 21.8045 198.494C21.8387 198.101 21.95 197.719 22.1321 197.37C22.3141 197.02 22.5633 196.709 22.8653 196.456L59.6357 165.602C59.9372 165.348 60.2857 165.156 60.6613 165.037C61.0369 164.918 61.4323 164.875 61.8248 164.908C62.087 164.932 62.3449 164.99 62.592 165.081C63.0856 165.263 63.5239 165.569 63.8647 165.97L128.141 242.574C128.395 242.875 128.586 243.224 128.705 243.6C128.824 243.976 128.868 244.372 128.833 244.765C128.799 245.157 128.688 245.54 128.506 245.889C128.324 246.239 128.075 246.549 127.772 246.803L91.0021 277.657C90.7006 277.911 90.3521 278.103 89.9765 278.221C89.6009 278.34 89.2055 278.384 88.813 278.35C88.5508 278.327 88.2929 278.269 88.0458 278.177V278.177Z" fill="#7DDF96"/>
<path d="M61.5659 167.9L125.842 244.504L89.0719 275.358L24.7955 198.755L61.5659 167.9ZM63.618 162.262C63.126 162.085 62.6137 161.97 62.0931 161.92C61.3068 161.85 60.5144 161.937 59.7615 162.174C59.0087 162.411 58.31 162.795 57.7056 163.303L20.9352 194.157C20.331 194.664 19.8327 195.285 19.4686 195.984C19.1046 196.684 18.8819 197.448 18.8135 198.233C18.745 199.019 18.832 199.81 19.0696 200.562C19.3071 201.314 19.6906 202.012 20.1979 202.615L84.4743 279.219C85.1521 280.024 86.03 280.638 87.0198 280.997C87.5151 281.177 88.0323 281.29 88.5575 281.333C90.1405 281.471 91.7138 280.976 92.9322 279.956L129.703 249.101C130.307 248.595 130.805 247.974 131.169 247.275C131.533 246.575 131.756 245.811 131.824 245.025C131.893 244.24 131.806 243.449 131.568 242.697C131.331 241.945 130.947 241.247 130.44 240.644L66.1635 164.04C65.4857 163.234 64.6078 162.621 63.618 162.262V162.262Z" fill="#515979"/>
<path d="M87.1647 235.747C80.6683 241.141 72.5924 242.862 66.0144 240.819L84.7576 263.178C86.3626 261.832 88.4365 261.179 90.5233 261.362C92.61 261.544 94.5387 262.548 95.8853 264.153L113.628 249.263C112.961 248.47 112.458 247.552 112.146 246.564C111.834 245.576 111.72 244.535 111.81 243.503C111.9 242.47 112.193 241.466 112.672 240.547C113.15 239.627 113.805 238.811 114.599 238.145L95.8432 215.792C96.7006 222.617 93.6176 230.327 87.1647 235.747ZM101.203 241.825C102.215 243.23 102.658 244.966 102.443 246.684C102.229 248.402 101.372 249.976 100.046 251.089C98.7198 252.202 97.0216 252.772 95.2923 252.686C93.5629 252.599 91.9304 251.861 90.7221 250.621C89.7102 249.216 89.267 247.48 89.4815 245.762C89.6959 244.044 90.5523 242.47 91.8786 241.357C93.2049 240.244 94.9031 239.674 96.6324 239.76C98.3618 239.847 99.9944 240.585 101.203 241.825V241.825Z" fill="#00C853"/>
<path d="M36.048 205.117L54.7852 227.463C53.9371 220.642 57.0202 212.931 63.4731 207.511C69.9259 202.092 78.0548 200.4 84.6233 202.439L65.8699 180.109C65.0762 180.775 64.159 181.279 63.1706 181.591C62.1822 181.902 61.142 182.017 60.1095 181.926C59.077 181.836 58.0724 181.543 57.1531 181.065C56.2338 180.586 55.4177 179.931 54.7516 179.137L37.0193 193.999C38.3628 195.603 39.0151 197.674 38.833 199.759C38.6509 201.843 37.6493 203.77 36.048 205.117V205.117ZM59.925 192.641C60.9806 194.027 61.4442 195.775 61.2144 197.502C60.9846 199.23 60.0801 200.796 58.6989 201.858C57.4056 203.029 55.701 203.641 53.9579 203.559C52.2149 203.477 50.5752 202.708 49.3976 201.42C48.3421 200.032 47.8789 198.282 48.1093 196.553C48.3397 194.825 49.2449 193.258 50.6272 192.194C51.9204 191.022 53.6255 190.411 55.3685 190.495C57.1116 190.579 58.7502 191.351 59.925 192.641V192.641Z" fill="#00C853"/>
<path d="M75.6996 217.016C74.7938 217.751 75.2223 218.971 76.5742 220.9C78.8492 224.356 80.3443 227.412 76.7157 230.774C74.2973 232.798 71.3498 232.652 68.5004 230.188L66.7357 231.674L63.8404 228.226L65.6051 226.74C64.9955 225.777 64.6468 224.671 64.5931 223.532C64.5393 222.394 64.7824 221.26 65.2986 220.244C65.3148 220.154 65.346 220.069 65.3909 219.99L65.703 219.337L70.0339 221.414L69.6919 222.353C69.4139 222.914 69.324 223.549 69.4354 224.165C69.5468 224.78 69.8536 225.344 70.3103 225.771C71.6828 227.409 72.602 227.808 73.5993 226.968C74.4581 226.217 73.9561 225.023 72.658 223.093C70.4326 219.792 68.806 216.455 72.555 213.318C75.0093 211.253 78.0636 211.428 80.9839 213.842L82.823 212.298L85.6447 215.773L83.8612 217.252C84.6039 218.302 85.0322 219.541 85.0963 220.825C85.1604 222.109 84.8575 223.385 84.2231 224.503L83.7384 225.338L79.6322 222.907L80.1408 222.123C80.7734 220.97 80.5131 219.726 79.3661 218.404C77.8766 216.649 76.6935 216.186 75.6996 217.016Z" fill="#00C853"/>
<path d="M138.099 2.77303L16.9133 11.2472C12.0796 11.5852 8.43502 15.7777 8.77303 20.6115L19.4128 172.767C19.7508 177.601 23.9434 181.245 28.7771 180.907L149.963 172.433C154.797 172.095 158.441 167.903 158.103 163.069L147.464 10.9133C147.126 6.07955 142.933 2.43502 138.099 2.77303Z" fill="white"/>
<path d="M138.24 4.79278C140.026 4.66792 141.788 5.2575 143.139 6.4318C144.49 7.60611 145.319 9.26896 145.444 11.0545L156.084 163.21C156.208 164.996 155.619 166.758 154.445 168.109C153.27 169.46 151.607 170.289 149.822 170.414L28.6359 178.888C26.8503 179.013 25.0882 178.423 23.7374 177.249C22.3865 176.074 21.5574 174.411 21.4325 172.626L10.7928 20.4703C10.6679 18.6847 11.2575 16.9226 12.4318 15.5717C13.6061 14.2209 15.269 13.3918 17.0546 13.2669L138.24 4.79278ZM137.958 0.753252L16.7721 9.22739C13.9151 9.42717 11.2546 10.7537 9.37569 12.9151C7.4968 15.0765 6.55348 17.8958 6.75326 20.7527L17.393 172.908C17.5928 175.765 18.9193 178.426 21.0807 180.305C23.2421 182.184 26.0614 183.127 28.9184 182.927L150.104 174.453C152.961 174.253 155.622 172.927 157.501 170.765C159.38 168.604 160.323 165.785 160.123 162.928L149.483 10.7721C149.284 7.91514 147.957 5.25458 145.796 3.37569C143.634 1.49679 140.815 0.553476 137.958 0.753252V0.753252Z" fill="#515979"/>
<path d="M19.4553 144.349L154.106 134.933L156.084 163.21C156.208 164.996 155.619 166.758 154.445 168.109C153.27 169.46 151.607 170.289 149.822 170.414L28.636 178.888C26.8504 179.013 25.0883 178.423 23.7374 177.249C22.3865 176.074 21.5575 174.411 21.4326 172.626L19.4553 144.349Z" fill="#D2F4FD"/>
<path d="M146.574 27.2127L11.9227 36.6284L15.3124 85.1027L149.963 75.687L146.574 27.2127Z" fill="#D2F4FD"/>
<path d="M11.7814 34.6086C11.2458 34.6461 10.7172 34.4692 10.3119 34.1169C9.90662 33.7646 9.6579 33.2658 9.62045 32.7301L8.77303 20.6115C8.61071 18.2902 9.37716 15.9996 10.9038 14.2434C12.4304 12.4873 14.5921 11.4095 16.9133 11.2472L138.099 2.77303C140.42 2.61071 142.711 3.37716 144.467 4.90376C146.223 6.43036 147.301 8.59206 147.464 10.9133L148.311 23.0319C148.348 23.5676 148.172 24.0962 147.819 24.5015C147.467 24.9067 146.968 25.1555 146.432 25.1929L11.7814 34.6086Z" fill="#667683"/>
<path d="M138.24 4.79278C140.026 4.66792 141.788 5.2575 143.139 6.4318C144.49 7.60611 145.319 9.26896 145.444 11.0545L146.291 23.1731L11.6402 32.5888L10.7928 20.4703C10.6679 18.6847 11.2575 16.9226 12.4318 15.5717C13.6061 14.2209 15.269 13.3918 17.0546 13.2669L138.24 4.79278ZM137.958 0.753252L16.7721 9.22739C13.9151 9.42717 11.2546 10.7537 9.37569 12.9151C7.4968 15.0765 6.55348 17.8958 6.75326 20.7527L7.60067 32.8713C7.67559 33.9427 8.17303 34.9404 8.98356 35.645C9.79409 36.3496 10.8513 36.7033 11.9227 36.6284L146.574 27.2127C147.645 27.1377 148.643 26.6403 149.347 25.8298C150.052 25.0192 150.406 23.962 150.331 22.8907L149.483 10.7721C149.284 7.91514 147.957 5.25458 145.796 3.37569C143.634 1.49679 140.815 0.553476 137.958 0.753252V0.753252Z" fill="#515979"/>
<path d="M71.9036 23.639C70.6537 23.7264 69.4203 23.3137 68.4747 22.4917C67.529 21.6697 66.9487 20.5057 66.8613 19.2558C66.7739 18.0059 67.1866 16.7724 68.0086 15.8268C68.8306 14.8812 69.9946 14.3009 71.2445 14.2134L134.53 9.78806C135.78 9.70066 137.014 10.1134 137.959 10.9354C138.905 11.7574 139.485 12.9214 139.573 14.1713C139.66 15.4212 139.248 16.6546 138.426 17.6003C137.603 18.5459 136.439 19.1262 135.19 19.2136L71.9036 23.639Z" fill="white"/>
<path d="M134.672 11.8078C135.386 11.7579 136.091 11.9937 136.631 12.4634C137.171 12.9332 137.503 13.5983 137.553 14.3125C137.603 15.0268 137.367 15.7316 136.897 16.2719C136.428 16.8123 135.763 17.1439 135.048 17.1939L71.7624 21.6192C71.0481 21.6692 70.3433 21.4334 69.803 20.9636C69.2626 20.4939 68.931 19.8288 68.881 19.1145C68.8311 18.4003 69.0669 17.6955 69.5366 17.1551C70.0064 16.6148 70.6715 16.2831 71.3857 16.2332L134.672 11.8078ZM134.389 7.76829L71.1033 12.1937C69.3177 12.3185 67.6548 13.1476 66.4805 14.4985C65.3062 15.8494 64.7167 17.6114 64.8415 19.397C64.9664 21.1826 65.7954 22.8454 67.1463 24.0198C68.4972 25.1941 70.2593 25.7836 72.0448 25.6588L135.331 21.2334C137.116 21.1085 138.779 20.2795 139.954 18.9286C141.128 17.5777 141.717 15.8156 141.593 14.0301C141.468 12.2445 140.639 10.5816 139.288 9.40731C137.937 8.233 136.175 7.64343 134.389 7.76829Z" fill="#515979"/>
<path d="M22.0828 27.1228C24.6856 26.9408 26.6481 24.6833 26.4661 22.0805C26.2841 19.4777 24.0265 17.5152 21.4237 17.6972C18.8209 17.8792 16.8585 20.1368 17.0405 22.7396C17.2225 25.3424 19.48 27.3048 22.0828 27.1228Z" fill="#EF7D7D"/>
<path d="M21.5648 19.717C22.0975 19.6798 22.6292 19.8013 23.0927 20.0662C23.5563 20.3312 23.9309 20.7276 24.1691 21.2055C24.4073 21.6833 24.4985 22.221 24.4312 22.7507C24.3638 23.2804 24.1408 23.7782 23.7906 24.1811C23.4403 24.5841 22.9783 24.8741 22.4632 25.0146C21.9481 25.155 21.4029 25.1395 20.8965 24.9701C20.3902 24.8007 19.9455 24.4849 19.6186 24.0628C19.2917 23.6406 19.0974 23.131 19.0601 22.5983C19.0102 21.8841 19.246 21.1793 19.7157 20.6389C20.1855 20.0986 20.8506 19.7669 21.5648 19.717V19.717ZM21.2824 15.6775C19.9508 15.7706 18.6767 16.2565 17.6213 17.0737C16.5659 17.8909 15.7765 19.0027 15.3529 20.2685C14.9294 21.5344 14.8907 22.8974 15.2418 24.1852C15.5929 25.473 16.318 26.6278 17.3254 27.5035C18.3328 28.3793 19.5773 28.9366 20.9014 29.1051C22.2256 29.2735 23.5699 29.0455 24.7645 28.4499C25.9591 27.8543 26.9502 26.9179 27.6126 25.759C28.275 24.6001 28.5788 23.2708 28.4857 21.9392C28.3608 20.1536 27.5318 18.4908 26.1809 17.3165C24.83 16.1422 23.0679 15.5526 21.2824 15.6775Z" fill="#515979"/>
<path d="M38.2408 25.9929C40.8436 25.8109 42.806 23.5534 42.624 20.9506C42.442 18.3478 40.1845 16.3854 37.5817 16.5674C34.9789 16.7494 33.0164 19.0069 33.1984 21.6097C33.3805 24.2125 35.638 26.1749 38.2408 25.9929Z" fill="#FFE8A0"/>
<path d="M37.723 18.5871C38.2557 18.5499 38.7874 18.6714 39.2509 18.9364C39.7145 19.2013 40.0891 19.5978 40.3273 20.0756C40.5655 20.5534 40.6567 21.0912 40.5894 21.6209C40.522 22.1505 40.299 22.6483 39.9488 23.0513C39.5985 23.4542 39.1366 23.7443 38.6214 23.8847C38.1063 24.0251 37.5611 24.0097 37.0548 23.8403C36.5484 23.6708 36.1037 23.3551 35.7768 22.9329C35.4499 22.5107 35.2556 22.0011 35.2183 21.4685C35.1684 20.7542 35.4042 20.0494 35.8739 19.5091C36.3437 18.9687 37.0088 18.6371 37.723 18.5871V18.5871ZM37.4406 14.5476C36.109 14.6407 34.8349 15.1266 33.7795 15.9438C32.7241 16.761 31.9347 17.8728 31.5111 19.1387C31.0876 20.4045 31.0489 21.7675 31.4 23.0554C31.7511 24.3432 32.4762 25.498 33.4836 26.3737C34.491 27.2494 35.7355 27.8067 37.0596 27.9752C38.3838 28.1437 39.7282 27.9157 40.9227 27.3201C42.1173 26.7245 43.1085 25.788 43.7708 24.6291C44.4332 23.4702 44.737 22.141 44.6439 20.8094C44.519 19.0238 43.69 17.3609 42.3391 16.1866C40.9882 15.0123 39.2261 14.4228 37.4406 14.5476V14.5476Z" fill="#515979"/>
<path d="M54.399 24.863C57.0018 24.681 58.9642 22.4235 58.7822 19.8207C58.6002 17.2179 56.3427 15.2555 53.7399 15.4375C51.1371 15.6195 49.1746 17.877 49.3566 20.4798C49.5387 23.0826 51.7962 25.0451 54.399 24.863Z" fill="#7DDF96"/>
<path d="M53.8812 17.4572C54.4139 17.42 54.9456 17.5415 55.4091 17.8065C55.8727 18.0714 56.2473 18.4679 56.4855 18.9457C56.7238 19.4235 56.8149 19.9613 56.7476 20.4909C56.6802 21.0206 56.4573 21.5184 56.107 21.9213C55.7567 22.3243 55.2948 22.6143 54.7796 22.7548C54.2645 22.8952 53.7193 22.8798 53.213 22.7103C52.7066 22.5409 52.2619 22.2252 51.935 21.803C51.6081 21.3808 51.4138 20.8712 51.3765 20.3386C51.3266 19.6243 51.5624 18.9195 52.0321 18.3792C52.5019 17.8388 53.167 17.5072 53.8812 17.4572V17.4572ZM53.5988 13.4177C52.2672 13.5108 50.9931 13.9967 49.9377 14.8139C48.8823 15.6311 48.0929 16.7429 47.6693 18.0088C47.2458 19.2746 47.2071 20.6376 47.5582 21.9254C47.9093 23.2133 48.6344 24.3681 49.6418 25.2438C50.6492 26.1195 51.8937 26.6768 53.2178 26.8453C54.542 27.0137 55.8864 26.7858 57.0809 26.1902C58.2755 25.5946 59.2667 24.6581 59.929 23.4992C60.5914 22.3403 60.8952 21.011 60.8021 19.6795C60.6772 17.8939 59.8482 16.231 58.4973 15.0567C57.1464 13.8824 55.3843 13.2928 53.5988 13.4177Z" fill="#515979"/>
<g style="mix-blend-mode:color-burn" opacity="0.2">
<g style="mix-blend-mode:color-burn" opacity="0.2">
<path d="M57.5203 59.8252C58.4499 59.7602 59.1508 58.9539 59.0858 58.0244C59.0208 57.0948 58.2145 56.3939 57.2849 56.4589C56.3554 56.5239 55.6545 57.3302 55.7195 58.2598C55.7845 59.1893 56.5908 59.8902 57.5203 59.8252Z" fill="#6B6B6B"/>
</g>
</g>
<g style="mix-blend-mode:color-burn" opacity="0.2">
<g style="mix-blend-mode:color-burn" opacity="0.2">
<path d="M61.741 66.9721C62.6706 66.9071 63.3715 66.1009 63.3065 65.1713C63.2415 64.2417 62.4352 63.5408 61.5056 63.6058C60.5761 63.6708 59.8752 64.4771 59.9402 65.4067C60.0052 66.3362 60.8115 67.0371 61.741 66.9721Z" fill="#6B6B6B"/>
</g>
</g>
<g style="mix-blend-mode:color-burn" opacity="0.2">
<g style="mix-blend-mode:color-burn" opacity="0.2">
<path d="M54.3353 67.4899C55.2648 67.4249 55.9657 66.6187 55.9007 65.6891C55.8357 64.7595 55.0295 64.0587 54.0999 64.1237C53.1703 64.1887 52.4694 64.9949 52.5344 65.9245C52.5994 66.8541 53.4057 67.5549 54.3353 67.4899Z" fill="#6B6B6B"/>
</g>
</g>
<g style="mix-blend-mode:color-burn" opacity="0.2">
<g style="mix-blend-mode:color-burn" opacity="0.2">
<path d="M104.648 56.5297C105.578 56.4647 106.279 55.6585 106.214 54.7289C106.149 53.7993 105.342 53.0985 104.413 53.1635C103.483 53.2285 102.782 54.0347 102.847 54.9643C102.912 55.8939 103.719 56.5947 104.648 56.5297Z" fill="#6B6B6B"/>
</g>
</g>
<g style="mix-blend-mode:color-burn" opacity="0.2">
<g style="mix-blend-mode:color-burn" opacity="0.2">
<path d="M108.869 63.6766C109.799 63.6116 110.499 62.8053 110.434 61.8758C110.369 60.9462 109.563 60.2453 108.634 60.3103C107.704 60.3753 107.003 61.1816 107.068 62.1111C107.133 63.0407 107.939 63.7416 108.869 63.6766Z" fill="#6B6B6B"/>
</g>
</g>
<g style="mix-blend-mode:color-burn" opacity="0.2">
<g style="mix-blend-mode:color-burn" opacity="0.2">
<path d="M101.463 64.1944C102.393 64.1294 103.094 63.3232 103.029 62.3936C102.964 61.464 102.157 60.7632 101.228 60.8282C100.298 60.8932 99.5973 61.6994 99.6623 62.629C99.7273 63.5586 100.534 64.2594 101.463 64.1944Z" fill="#6B6B6B"/>
</g>
</g>
<path d="M149.963 75.687L15.3124 85.1027L19.4553 144.349L154.106 134.933L149.963 75.687Z" fill="#6ADAF7"/>
<g style="mix-blend-mode:color-burn" opacity="0.2">
<g style="mix-blend-mode:color-burn" opacity="0.2">
<path d="M149.963 75.687L15.3124 85.1027L15.5007 87.7957L150.152 78.38L149.963 75.687Z" fill="#515979"/>
</g>
</g>
<path d="M141.051 151.407L81.8043 155.55C81.0606 155.602 80.4999 156.247 80.5519 156.991C80.6039 157.734 81.2489 158.295 81.9926 158.243L141.239 154.1C141.983 154.048 142.543 153.403 142.491 152.659C142.439 151.916 141.794 151.355 141.051 151.407Z" fill="#6ADAF7"/>
<path d="M132.002 157.452L82.1809 160.936C81.4372 160.988 80.8765 161.633 80.9285 162.377C80.9805 163.12 81.6255 163.681 82.3692 163.629L132.19 160.145C132.934 160.093 133.494 159.448 133.442 158.704C133.39 157.961 132.745 157.4 132.002 157.452Z" fill="#6ADAF7"/>
<path d="M116.22 163.968L82.5576 166.322C81.8139 166.374 81.2532 167.019 81.3052 167.763C81.3572 168.506 82.0022 169.067 82.7459 169.015L116.409 166.661C117.152 166.609 117.713 165.964 117.661 165.22C117.609 164.477 116.964 163.916 116.22 163.968Z" fill="#6ADAF7"/>
<path d="M45.4581 119.528C53.2665 118.982 59.1538 112.21 58.6078 104.401C58.0617 96.5929 51.2892 90.7056 43.4808 91.2516C35.6724 91.7976 29.785 98.5702 30.3311 106.379C30.8771 114.187 37.6497 120.074 45.4581 119.528Z" fill="#D2F4FD"/>
<path d="M53.4006 146.035C49.7889 146.288 46.3113 147.505 43.33 149.56C40.3486 151.614 37.9727 154.43 36.4496 157.715C34.9265 160.999 34.312 164.632 34.6701 168.235C35.0282 171.838 36.3458 175.278 38.4857 178.199L72.6467 175.81C74.3593 172.62 75.1852 169.03 75.0385 165.412C74.8917 161.794 73.7776 158.282 71.8122 155.242C69.8468 152.201 67.102 149.743 63.8638 148.124C60.6256 146.504 57.0124 145.783 53.4006 146.035V146.035Z" fill="#6ADAF7"/>
<path d="M85.1802 116.751C92.9886 116.205 98.8759 109.432 98.3299 101.624C97.7839 93.8152 91.0113 87.9279 83.2029 88.4739C75.3945 89.02 69.5072 95.7925 70.0532 103.601C70.5992 111.409 77.3718 117.297 85.1802 116.751Z" fill="#D2F4FD"/>
<path d="M124.902 113.973C132.711 113.427 138.598 106.654 138.052 98.846C137.506 91.0376 130.733 85.1503 122.925 85.6963C115.116 86.2423 109.229 93.0149 109.775 100.823C110.321 108.632 117.094 114.519 124.902 113.973Z" fill="#D2F4FD"/>
<g style="mix-blend-mode:color-burn" opacity="0.2">
<g style="mix-blend-mode:color-burn" opacity="0.2">
<path d="M57.1859 122.767L34.2952 124.368C33.5516 124.42 32.9909 125.065 33.0429 125.809C33.0949 126.552 33.7399 127.113 34.4836 127.061L57.3742 125.46C58.1179 125.408 58.6786 124.763 58.6266 124.02C58.5746 123.276 57.9296 122.715 57.1859 122.767Z" fill="#515979"/>
</g>
<g style="mix-blend-mode:color-burn" opacity="0.2">
<path d="M57.5625 128.154L34.6718 129.754C33.9282 129.806 33.3675 130.451 33.4195 131.195C33.4715 131.939 34.1165 132.499 34.8601 132.447L57.7508 130.847C58.4945 130.795 59.0552 130.15 59.0032 129.406C58.9512 128.662 58.3062 128.102 57.5625 128.154Z" fill="#515979"/>
</g>
<g style="mix-blend-mode:color-burn" opacity="0.2">
<path d="M51.2067 134.01L35.0485 135.14C34.3049 135.192 33.7442 135.837 33.7962 136.581C33.8482 137.325 34.4932 137.885 35.2369 137.833L51.395 136.703C52.1386 136.651 52.6993 136.006 52.6473 135.263C52.5953 134.519 51.9503 133.958 51.2067 134.01Z" fill="#515979"/>
</g>
</g>
<g style="mix-blend-mode:color-burn" opacity="0.2">
<g style="mix-blend-mode:color-burn" opacity="0.2">
<path d="M96.9078 119.99L74.0172 121.591C73.2735 121.643 72.7128 122.288 72.7648 123.031C72.8168 123.775 73.4618 124.336 74.2055 124.284L97.0961 122.683C97.8398 122.631 98.4005 121.986 98.3485 121.242C98.2965 120.499 97.6515 119.938 96.9078 119.99Z" fill="#515979"/>
</g>
<g style="mix-blend-mode:color-burn" opacity="0.2">
<path d="M97.2845 125.376L74.3939 126.977C73.6502 127.029 73.0895 127.674 73.1415 128.417C73.1935 129.161 73.8385 129.722 74.5822 129.67L97.4729 128.069C98.2165 128.017 98.7772 127.372 98.7252 126.628C98.6732 125.885 98.0282 125.324 97.2845 125.376Z" fill="#515979"/>
</g>
<g style="mix-blend-mode:color-burn" opacity="0.2">
<path d="M90.9287 131.233L74.7706 132.363C74.0269 132.415 73.4662 133.06 73.5182 133.803C73.5702 134.547 74.2152 135.108 74.9589 135.056L91.117 133.926C91.8607 133.874 92.4214 133.229 92.3694 132.485C92.3174 131.741 91.6724 131.181 90.9287 131.233Z" fill="#515979"/>
</g>
</g>
<g style="mix-blend-mode:color-burn" opacity="0.2">
<g style="mix-blend-mode:color-burn" opacity="0.2">
<path d="M136.63 117.212L113.739 118.813C112.996 118.865 112.435 119.51 112.487 120.254C112.539 120.997 113.184 121.558 113.928 121.506L136.818 119.905C137.562 119.853 138.123 119.208 138.071 118.465C138.019 117.721 137.374 117.16 136.63 117.212Z" fill="#515979"/>
</g>
<g style="mix-blend-mode:color-burn" opacity="0.2">
<path d="M137.007 122.598L114.116 124.199C113.372 124.251 112.812 124.896 112.864 125.64C112.916 126.383 113.561 126.944 114.304 126.892L137.195 125.291C137.939 125.239 138.499 124.594 138.447 123.851C138.395 123.107 137.75 122.546 137.007 122.598Z" fill="#515979"/>
</g>
<g style="mix-blend-mode:color-burn" opacity="0.2">
<path d="M130.651 128.455L114.493 129.585C113.749 129.637 113.188 130.282 113.24 131.026C113.292 131.769 113.937 132.33 114.681 132.278L130.839 131.148C131.583 131.096 132.143 130.451 132.091 129.707C132.039 128.964 131.394 128.403 130.651 128.455Z" fill="#515979"/>
</g>
</g>
<path d="M95.427 55.2734C95.1926 55.2975 94.9561 55.258 94.7424 55.1589C93.9669 54.8754 93.1404 54.7587 92.3167 54.8163C91.493 54.8738 90.6908 55.1045 89.9623 55.4932C89.6599 55.6848 89.2938 55.7484 88.9445 55.6701C88.5951 55.5917 88.2913 55.3778 88.0997 55.0754C87.908 54.773 87.8444 54.4069 87.9228 54.0576C88.0011 53.7083 88.215 53.4044 88.5174 53.2128C89.6257 52.5874 90.8593 52.2169 92.1287 52.1282C93.3981 52.0394 94.6714 52.2346 95.8559 52.6996C96.1296 52.8235 96.3541 53.0352 96.4939 53.3012C96.6337 53.5671 96.6808 53.8721 96.6277 54.1678C96.5746 54.4636 96.4244 54.7331 96.2008 54.9338C95.9772 55.1345 95.693 55.2548 95.3933 55.2758L95.427 55.2734Z" fill="#515979"/>
<path d="M92.2677 53.6338C95.2423 53.4258 97.4851 50.8458 97.2771 47.8712C97.0691 44.8965 94.4891 42.6537 91.5145 42.8617C88.5398 43.0698 86.297 45.6498 86.505 48.6244C86.7131 51.599 89.2931 53.8418 92.2677 53.6338Z" fill="#515979"/>
<path d="M93.3318 49.5001C94.0755 49.4481 94.6362 48.8031 94.5842 48.0595C94.5322 47.3158 93.8872 46.7551 93.1435 46.8071C92.3999 46.8591 91.8392 47.5041 91.8912 48.2478C91.9432 48.9914 92.5882 49.5521 93.3318 49.5001Z" fill="white"/>
<path d="M87.1782 37.5429C87.5641 37.1635 87.9955 36.8334 88.4626 36.56C88.9005 36.2871 89.3652 36.0596 89.8494 35.8812C90.8636 35.499 91.9454 35.329 93.028 35.3816C93.3088 35.3928 93.5886 35.4207 93.866 35.465C94.1472 35.5198 94.4226 35.5885 94.6981 35.6572C94.9735 35.7259 95.2334 35.8633 95.4977 35.9666C95.7645 36.0674 96.0172 36.2021 96.2497 36.3673C97.18 36.9346 97.9383 37.7446 98.4431 38.7104C98.5979 38.958 98.6681 39.2492 98.6433 39.5402C98.6185 39.8312 98.5 40.1063 98.3056 40.3242C98.1112 40.5421 97.8513 40.6911 97.5651 40.7488C97.2788 40.8065 96.9815 40.7698 96.7179 40.6442L96.4531 40.5341C95.8322 40.2333 95.1925 39.973 94.5381 39.7547C93.9662 39.5634 93.3712 39.4503 92.7691 39.4184C92.1093 39.3771 91.447 39.3985 90.7912 39.4822C90.4412 39.5067 90.0804 39.5725 89.7134 39.6456C89.3464 39.7186 88.9463 39.8007 88.6293 39.8161L88.2187 39.8448C87.9453 39.861 87.6735 39.7937 87.4393 39.6517C87.2051 39.5098 87.0196 39.3 86.9075 39.0502C86.7953 38.8004 86.7618 38.5224 86.8114 38.2531C86.8609 37.9838 86.9912 37.7359 87.1849 37.5424L87.1782 37.5429Z" fill="#515979"/>
<path d="M72.5363 56.8741C72.302 56.8982 72.0655 56.8587 71.8518 56.7596C71.0763 56.4761 70.2498 56.3593 69.4261 56.4169C68.6024 56.4745 67.8002 56.7052 67.0717 57.0939C66.7693 57.2855 66.4031 57.3491 66.0538 57.2708C65.7045 57.1924 65.4006 56.9785 65.209 56.6761C65.0174 56.3737 64.9538 56.0076 65.0321 55.6583C65.1105 55.309 65.3244 55.0051 65.6268 54.8135C66.735 54.1881 67.9687 53.8176 69.2381 53.7288C70.5075 53.6401 71.7808 53.8353 72.9653 54.3003C73.2418 54.4253 73.4682 54.6398 73.6078 54.9093C73.7475 55.1787 73.7922 55.4874 73.7349 55.7854C73.6775 56.0835 73.5214 56.3535 73.2917 56.5518C73.0621 56.7502 72.7722 56.8654 72.469 56.8788L72.5363 56.8741Z" fill="#515979"/>
<path d="M69.3772 55.2345C72.3518 55.0265 74.5946 52.4465 74.3866 49.4718C74.1786 46.4972 71.5986 44.2544 68.624 44.4624C65.6493 44.6704 63.4065 47.2505 63.6145 50.2251C63.8226 53.1997 66.4026 55.4425 69.3772 55.2345Z" fill="#515979"/>
<path d="M70.4412 51.1008C71.1849 51.0488 71.7456 50.4038 71.6935 49.6602C71.6415 48.9165 70.9965 48.3558 70.2529 48.4078C69.5092 48.4598 68.9485 49.1048 69.0005 49.8485C69.0525 50.5922 69.6975 51.1529 70.4412 51.1008Z" fill="white"/>
<path d="M71.0909 41.0425C70.7744 41.0646 70.3518 41.0197 69.9936 41.0245C69.6354 41.0292 69.2555 41.0152 68.9035 41.0128C68.2425 41.0211 67.5837 41.0921 66.9361 41.2248C66.3443 41.3402 65.7708 41.5351 65.2311 41.804C64.6134 42.1113 64.0162 42.4581 63.4432 42.8424L63.203 42.9877C62.9595 43.1684 62.6621 43.2617 62.359 43.2527C62.0559 43.2437 61.7646 43.1329 61.5322 42.9381C61.2997 42.7434 61.1397 42.476 61.0777 42.1792C61.0158 41.8823 61.0556 41.5732 61.1908 41.3018C61.5545 40.2742 62.193 39.3661 63.0369 38.6762C63.244 38.4802 63.4756 38.3117 63.7257 38.1748C63.9731 38.0357 64.2123 37.8769 64.4745 37.7571C64.7368 37.6373 65.0009 37.5444 65.2717 37.451C65.5409 37.373 65.8144 37.3109 66.0909 37.2652C67.1556 37.0624 68.2506 37.0803 69.3082 37.3176C69.8125 37.4268 70.3043 37.5874 70.776 37.7968C71.2765 38.0025 71.7496 38.2694 72.1846 38.5913C72.4703 38.8044 72.66 39.1218 72.7126 39.4743C72.7651 39.8267 72.6761 40.1857 72.465 40.4728C72.3503 40.6276 72.2038 40.7561 72.0352 40.8496C71.8667 40.943 71.6802 40.9993 71.4881 41.0147L71.0909 41.0425Z" fill="#515979"/>
<path d="M53.3204 57.8119C54.25 57.7469 54.9508 56.9406 54.8858 56.011C54.8208 55.0815 54.0146 54.3806 53.085 54.4456C52.1554 54.5106 51.4545 55.3169 51.5196 56.2464C51.5846 57.176 52.3908 57.8769 53.3204 57.8119Z" fill="#6ADAF7"/>
<path d="M57.5411 64.9588C58.4707 64.8938 59.1715 64.0875 59.1065 63.1579C59.0415 62.2283 58.2353 61.5275 57.3057 61.5925C56.3761 61.6575 55.6753 62.4637 55.7403 63.3933C55.8053 64.3229 56.6115 65.0238 57.5411 64.9588Z" fill="#6ADAF7"/>
<path d="M50.1352 65.4766C51.0648 65.4116 51.7656 64.6054 51.7006 63.6758C51.6356 62.7462 50.8294 62.0454 49.8998 62.1104C48.9702 62.1754 48.2694 62.9816 48.3344 63.9112C48.3994 64.8408 49.2056 65.5416 50.1352 65.4766Z" fill="#6ADAF7"/>
<path d="M108.527 53.9515C109.457 53.8865 110.157 53.0802 110.092 52.1506C110.027 51.2211 109.221 50.5202 108.292 50.5852C107.362 50.6502 106.661 51.4564 106.726 52.386C106.791 53.3156 107.597 54.0165 108.527 53.9515Z" fill="#6ADAF7"/>
<path d="M112.748 61.0983C113.677 61.0333 114.378 60.227 114.313 59.2975C114.248 58.3679 113.442 57.667 112.512 57.732C111.583 57.797 110.882 58.6033 110.947 59.5329C111.012 60.4624 111.818 61.1633 112.748 61.0983Z" fill="#6ADAF7"/>
<path d="M105.342 61.6162C106.272 61.5512 106.973 60.7449 106.908 59.8154C106.843 58.8858 106.036 58.1849 105.107 58.2499C104.177 58.3149 103.476 59.1212 103.541 60.0508C103.606 60.9803 104.413 61.6812 105.342 61.6162Z" fill="#6ADAF7"/>
<path d="M82.3125 75.7427C78.6529 75.995 75.0427 74.7851 72.2742 72.3785C69.5057 69.9719 67.8051 66.5652 67.5457 62.9061C67.5145 62.4597 67.6619 62.0192 67.9554 61.6814C68.249 61.3437 68.6647 61.1364 69.1111 61.1052L93.3483 59.4104C93.7947 59.3792 94.2352 59.5266 94.5729 59.8202C94.9106 60.1137 95.1179 60.5295 95.1491 60.9758C95.4014 64.6354 94.1915 68.2457 91.7849 71.0142C89.3783 73.7826 85.9716 75.4832 82.3125 75.7427V75.7427Z" fill="#515979"/>
<path d="M93.466 61.0935C93.6908 64.3076 92.6296 67.4793 90.5158 69.9109C88.402 72.3425 85.4089 73.8348 82.1949 74.0595C78.9808 74.2843 75.8091 73.2231 73.3775 71.1093C70.9459 68.9956 69.4536 66.0024 69.2289 62.7884L93.466 61.0935ZM93.2306 57.7273L68.9935 59.4221C68.1007 59.4845 67.2692 59.8991 66.6821 60.5745C66.0949 61.25 65.8002 62.131 65.8626 63.0238C66.1337 67.1317 68.0256 70.9637 71.1221 73.6768C74.2185 76.3899 78.2659 77.7618 82.3739 77.4907C86.4819 77.2195 90.3139 75.3277 93.0269 72.2312C95.74 69.1347 97.1119 65.0873 96.8408 60.9793L96.8323 60.8582C96.7699 59.9654 96.3554 59.1339 95.6799 58.5468C95.0045 57.9596 94.1234 57.6648 93.2306 57.7273V57.7273Z" fill="#515979"/>
<path d="M82.1948 74.0595C87.1736 73.7114 91.0832 71.6206 90.9272 69.3896C90.7712 67.1587 86.6087 65.6323 81.6299 65.9805C76.6511 66.3286 72.7415 68.4194 72.8975 70.6504C73.0535 72.8814 77.216 74.4077 82.1948 74.0595Z" fill="#EF7D7D"/>
<path d="M316.593 150.408L199.817 116.923C195.159 115.587 190.3 118.28 188.965 122.938L146.923 269.557C145.587 274.215 148.28 279.073 152.938 280.409L269.714 313.894C274.372 315.229 279.23 312.536 280.566 307.878L322.608 161.26C323.944 156.602 321.251 151.743 316.593 150.408Z" fill="white"/>
<path d="M316.035 152.354C317.755 152.847 319.209 154.004 320.077 155.569C320.945 157.135 321.155 158.981 320.662 160.702L278.62 307.32C278.126 309.041 276.97 310.495 275.404 311.363C273.839 312.231 271.993 312.441 270.272 311.947L153.496 278.463C151.776 277.969 150.321 276.813 149.454 275.247C148.586 273.681 148.376 271.835 148.869 270.115L190.911 123.496C191.404 121.776 192.561 120.321 194.127 119.454C195.692 118.586 197.538 118.376 199.259 118.869L316.035 152.354ZM317.151 148.461L200.375 114.976C197.622 114.187 194.668 114.524 192.163 115.912C189.659 117.3 187.808 119.627 187.019 122.38L144.976 268.999C144.187 271.752 144.524 274.705 145.912 277.21C147.3 279.715 149.627 281.566 152.38 282.355L269.156 315.84C271.909 316.629 274.863 316.293 277.367 314.904C279.872 313.516 281.723 311.189 282.512 308.436L324.554 161.818C325.344 159.065 325.007 156.111 323.619 153.606C322.23 151.101 319.904 149.251 317.151 148.461V148.461Z" fill="#515979"/>
<path d="M270.272 311.947L153.496 278.463C151.776 277.969 150.321 276.813 149.454 275.247C148.586 273.681 148.376 271.835 148.869 270.115L160.403 229.892L290.153 267.097L278.62 307.32C278.126 309.041 276.97 310.495 275.404 311.363C273.839 312.231 271.993 312.441 270.272 311.947V311.947Z" fill="#F89D81"/>
<path d="M316.197 176.272L186.447 139.066L172.308 188.372L302.059 225.577L316.197 176.272Z" fill="#F89D81"/>
<path d="M187.005 137.12C186.488 136.972 186.052 136.625 185.792 136.155C185.531 135.686 185.468 135.132 185.616 134.616L188.965 122.938C189.606 120.701 191.11 118.811 193.145 117.683C195.18 116.555 197.58 116.281 199.817 116.923L316.593 150.408C318.83 151.049 320.72 152.553 321.848 154.588C322.976 156.623 323.25 159.023 322.608 161.26L319.26 172.937C319.112 173.454 318.765 173.89 318.295 174.15C317.825 174.41 317.272 174.474 316.755 174.326L187.005 137.12Z" fill="#667683"/>
<path d="M316.035 152.354C317.755 152.847 319.209 154.004 320.077 155.569C320.945 157.135 321.155 158.981 320.662 160.702L317.313 172.379L187.563 135.174L190.911 123.496C191.404 121.776 192.561 120.321 194.127 119.454C195.692 118.586 197.538 118.376 199.259 118.869L316.035 152.354ZM317.151 148.461L200.375 114.976C197.622 114.187 194.668 114.524 192.163 115.912C189.659 117.3 187.808 119.627 187.019 122.38L183.67 134.058C183.374 135.09 183.5 136.198 184.021 137.137C184.542 138.076 185.414 138.77 186.446 139.066L316.197 176.272C317.23 176.568 318.337 176.442 319.277 175.921C320.216 175.4 320.91 174.528 321.206 173.495L324.554 161.818C325.344 159.065 325.007 156.111 323.619 153.606C322.23 151.101 319.904 149.251 317.151 148.461V148.461Z" fill="#515979"/>
<path d="M247.253 147.375C246.048 147.03 245.03 146.22 244.423 145.124C243.815 144.028 243.668 142.736 244.014 141.532C244.359 140.327 245.169 139.309 246.265 138.702C247.36 138.094 248.653 137.947 249.857 138.292L310.84 155.779C312.044 156.124 313.062 156.934 313.67 158.03C314.277 159.126 314.424 160.418 314.079 161.622C313.734 162.827 312.924 163.845 311.828 164.452C310.732 165.06 309.44 165.207 308.236 164.862L247.253 147.375Z" fill="white"/>
<path d="M310.282 157.725C310.97 157.923 311.552 158.385 311.899 159.011C312.246 159.638 312.33 160.376 312.133 161.064C311.935 161.753 311.473 162.334 310.847 162.681C310.22 163.029 309.482 163.113 308.794 162.915L247.811 145.429C247.123 145.231 246.541 144.769 246.194 144.143C245.847 143.516 245.763 142.778 245.96 142.09C246.157 141.401 246.62 140.82 247.246 140.473C247.872 140.125 248.611 140.041 249.299 140.239L310.282 157.725ZM311.398 153.833L250.415 136.346C248.695 135.853 246.848 136.063 245.283 136.931C243.717 137.799 242.561 139.253 242.067 140.973C241.574 142.694 241.784 144.54 242.652 146.106C243.52 147.671 244.974 148.828 246.695 149.321L307.678 166.808C309.398 167.301 311.244 167.091 312.81 166.223C314.375 165.355 315.532 163.901 316.025 162.181C316.519 160.46 316.308 158.614 315.441 157.048C314.573 155.483 313.119 154.326 311.398 153.833Z" fill="#515979"/>
<path d="M199.245 133.609C201.753 134.328 204.369 132.878 205.088 130.37C205.808 127.862 204.357 125.246 201.849 124.526C199.341 123.807 196.725 125.257 196.006 127.766C195.287 130.274 196.737 132.89 199.245 133.609Z" fill="#EF7D7D"/>
<path d="M201.291 126.473C201.804 126.62 202.263 126.916 202.607 127.323C202.952 127.731 203.169 128.232 203.229 128.762C203.29 129.293 203.192 129.829 202.947 130.304C202.703 130.778 202.323 131.17 201.856 131.429C201.389 131.688 200.856 131.802 200.324 131.758C199.791 131.714 199.284 131.513 198.867 131.18C198.449 130.848 198.139 130.399 197.976 129.891C197.813 129.382 197.805 128.837 197.952 128.324C198.149 127.635 198.612 127.054 199.238 126.707C199.864 126.359 200.603 126.275 201.291 126.473V126.473ZM202.407 122.58C201.124 122.212 199.761 122.233 198.49 122.64C197.218 123.047 196.096 123.822 195.265 124.866C194.434 125.911 193.932 127.179 193.821 128.509C193.711 129.839 193.997 131.172 194.644 132.34C195.291 133.507 196.27 134.456 197.457 135.068C198.644 135.679 199.985 135.924 201.311 135.773C202.637 135.622 203.889 135.081 204.908 134.219C205.927 133.356 206.667 132.211 207.035 130.928C207.528 129.207 207.318 127.361 206.45 125.796C205.582 124.23 204.128 123.073 202.407 122.58Z" fill="#515979"/>
<path d="M214.815 138.074C217.323 138.793 219.939 137.343 220.659 134.835C221.378 132.326 219.928 129.71 217.419 128.991C214.911 128.272 212.295 129.722 211.576 132.23C210.857 134.738 212.307 137.354 214.815 138.074Z" fill="#FFE8A0"/>
<path d="M216.861 130.937C217.375 131.084 217.833 131.381 218.178 131.788C218.523 132.196 218.739 132.696 218.8 133.227C218.86 133.757 218.762 134.294 218.517 134.768C218.273 135.243 217.893 135.635 217.426 135.893C216.959 136.152 216.426 136.267 215.894 136.223C215.362 136.178 214.855 135.977 214.437 135.645C214.019 135.313 213.709 134.864 213.546 134.355C213.383 133.847 213.375 133.301 213.522 132.788C213.72 132.1 214.182 131.518 214.808 131.171C215.435 130.824 216.173 130.74 216.861 130.937V130.937ZM217.978 127.045C216.694 126.677 215.331 126.698 214.06 127.105C212.788 127.512 211.666 128.286 210.835 129.331C210.005 130.376 209.502 131.643 209.391 132.973C209.281 134.304 209.567 135.637 210.214 136.804C210.862 137.972 211.84 138.921 213.027 139.532C214.214 140.143 215.555 140.389 216.881 140.238C218.208 140.087 219.459 139.546 220.478 138.683C221.497 137.821 222.237 136.676 222.605 135.393C223.098 133.672 222.888 131.826 222.02 130.26C221.152 128.695 219.698 127.538 217.978 127.045V127.045Z" fill="#515979"/>
<path d="M230.385 142.538C232.893 143.257 235.509 141.807 236.229 139.299C236.948 136.791 235.498 134.175 232.99 133.456C230.481 132.737 227.865 134.187 227.146 136.695C226.427 139.203 227.877 141.819 230.385 142.538Z" fill="#7DDF96"/>
<path d="M232.431 135.402C232.945 135.549 233.403 135.845 233.748 136.253C234.093 136.66 234.309 137.161 234.37 137.691C234.43 138.222 234.332 138.758 234.087 139.233C233.843 139.708 233.463 140.099 232.996 140.358C232.529 140.617 231.996 140.732 231.464 140.687C230.932 140.643 230.425 140.442 230.007 140.11C229.589 139.777 229.279 139.329 229.116 138.82C228.953 138.311 228.945 137.766 229.092 137.253C229.29 136.565 229.752 135.983 230.379 135.636C231.005 135.289 231.743 135.205 232.431 135.402V135.402ZM233.548 131.509C232.264 131.142 230.901 131.162 229.63 131.569C228.359 131.976 227.236 132.751 226.406 133.796C225.575 134.84 225.072 136.108 224.962 137.438C224.851 138.768 225.137 140.102 225.785 141.269C226.432 142.436 227.41 143.386 228.597 143.997C229.784 144.608 231.125 144.854 232.451 144.703C233.778 144.551 235.029 144.01 236.048 143.148C237.067 142.286 237.807 141.14 238.175 139.857C238.668 138.137 238.458 136.291 237.59 134.725C236.722 133.159 235.268 132.003 233.548 131.509Z" fill="#515979"/>
<g style="mix-blend-mode:color-burn" opacity="0.3">
<g style="mix-blend-mode:color-burn" opacity="0.3">
<path d="M221.36 176.46C222.256 176.716 223.19 176.198 223.447 175.303C223.704 174.407 223.186 173.473 222.29 173.216C221.395 172.959 220.46 173.477 220.204 174.373C219.947 175.268 220.465 176.203 221.36 176.46Z" fill="#6B6B6B"/>
</g>
</g>
<g style="mix-blend-mode:color-burn" opacity="0.3">
<g style="mix-blend-mode:color-burn" opacity="0.3">
<path d="M222.882 184.619C223.778 184.876 224.712 184.358 224.969 183.462C225.226 182.566 224.708 181.632 223.812 181.375C222.917 181.118 221.982 181.636 221.725 182.532C221.469 183.428 221.986 184.362 222.882 184.619Z" fill="#6B6B6B"/>
</g>
</g>
<g style="mix-blend-mode:color-burn" opacity="0.3">
<g style="mix-blend-mode:color-burn" opacity="0.3">
<path d="M215.746 182.573C216.642 182.83 217.576 182.312 217.833 181.416C218.09 180.52 217.572 179.586 216.676 179.329C215.78 179.072 214.846 179.59 214.589 180.486C214.332 181.381 214.85 182.316 215.746 182.573Z" fill="#6B6B6B"/>
</g>
</g>
<g style="mix-blend-mode:color-burn" opacity="0.3">
<g style="mix-blend-mode:color-burn" opacity="0.3">
<path d="M266.773 189.481C267.669 189.738 268.603 189.22 268.86 188.325C269.117 187.429 268.599 186.495 267.703 186.238C266.808 185.981 265.873 186.499 265.616 187.395C265.36 188.29 265.877 189.225 266.773 189.481Z" fill="#6B6B6B"/>
</g>
</g>
<g style="mix-blend-mode:color-burn" opacity="0.3">
<g style="mix-blend-mode:color-burn" opacity="0.3">
<path d="M268.295 197.641C269.191 197.898 270.125 197.38 270.382 196.484C270.639 195.588 270.121 194.654 269.225 194.397C268.329 194.14 267.395 194.658 267.138 195.554C266.881 196.45 267.399 197.384 268.295 197.641Z" fill="#6B6B6B"/>
</g>
</g>
<g style="mix-blend-mode:color-burn" opacity="0.3">
<g style="mix-blend-mode:color-burn" opacity="0.3">
<path d="M261.159 195.595C262.055 195.851 262.989 195.334 263.246 194.438C263.503 193.542 262.985 192.608 262.089 192.351C261.193 192.094 260.259 192.612 260.002 193.508C259.745 194.403 260.263 195.338 261.159 195.595Z" fill="#6B6B6B"/>
</g>
</g>
<path d="M302.245 224.928L172.494 187.723L158.728 235.731L288.479 272.936L302.245 224.928Z" fill="#FDE1D9"/>
<path d="M209.278 208.802L182.03 200.989C180.597 200.578 179.102 201.407 178.691 202.84L171.994 226.195C171.583 227.628 172.412 229.123 173.845 229.534L201.093 237.347C202.526 237.758 204.021 236.929 204.432 235.496L211.129 212.141C211.54 210.708 210.711 209.213 209.278 208.802Z" fill="white"/>
<path d="M183.872 214.155C186.022 214.771 188.264 213.528 188.88 211.378C189.497 209.228 188.254 206.986 186.104 206.37C183.954 205.753 181.712 206.996 181.095 209.146C180.479 211.296 181.722 213.538 183.872 214.155Z" fill="#FDE1D9"/>
<path d="M202.59 222.33L180.533 216.005C179.816 215.8 179.069 216.214 178.863 216.931C178.658 217.648 179.072 218.395 179.789 218.6L201.846 224.925C202.563 225.131 203.31 224.717 203.516 224C203.721 223.283 203.307 222.536 202.59 222.33Z" fill="#F89D81"/>
<path d="M192.02 224.916L179.044 221.195C178.328 220.99 177.58 221.404 177.375 222.121C177.169 222.838 177.584 223.585 178.3 223.79L191.275 227.511C191.992 227.717 192.74 227.302 192.945 226.586C193.15 225.869 192.736 225.122 192.02 224.916Z" fill="#F89D81"/>
<path d="M287.129 231.125L259.881 223.312C258.448 222.901 256.953 223.73 256.542 225.163L249.845 248.518C249.434 249.951 250.263 251.446 251.696 251.857L278.943 259.67C280.377 260.081 281.872 259.253 282.283 257.819L288.98 234.464C289.39 233.031 288.562 231.536 287.129 231.125Z" fill="white"/>
<path d="M261.722 236.478C263.872 237.094 266.115 235.851 266.731 233.702C267.348 231.552 266.105 229.309 263.955 228.693C261.805 228.076 259.563 229.319 258.946 231.469C258.33 233.619 259.573 235.861 261.722 236.478Z" fill="#FDE1D9"/>
<path d="M280.441 244.654L258.383 238.329C257.667 238.123 256.919 238.538 256.714 239.254C256.508 239.971 256.923 240.718 257.639 240.924L279.697 247.249C280.413 247.454 281.161 247.04 281.366 246.323C281.572 245.607 281.158 244.859 280.441 244.654Z" fill="#F89D81"/>
<path d="M264.68 245.751L256.895 243.519C256.178 243.313 255.431 243.728 255.225 244.444C255.02 245.161 255.434 245.908 256.151 246.114L263.936 248.346C264.652 248.552 265.4 248.137 265.605 247.421C265.811 246.704 265.397 245.957 264.68 245.751Z" fill="#F89D81"/>
<path d="M248.203 219.964L220.955 212.15C219.522 211.739 218.027 212.568 217.616 214.001L210.919 237.356C210.508 238.79 211.337 240.285 212.77 240.696L240.018 248.509C241.451 248.92 242.946 248.091 243.357 246.658L250.054 223.303C250.465 221.87 249.636 220.375 248.203 219.964Z" fill="white"/>
<path d="M222.797 225.316C224.947 225.933 227.189 224.69 227.806 222.54C228.422 220.39 227.179 218.148 225.029 217.531C222.88 216.915 220.637 218.158 220.021 220.308C219.404 222.457 220.647 224.7 222.797 225.316Z" fill="#FDE1D9"/>
<path d="M241.516 233.492L219.458 227.167C218.741 226.962 217.994 227.376 217.788 228.093C217.583 228.809 217.997 229.557 218.714 229.762L240.772 236.087C241.488 236.293 242.236 235.878 242.441 235.162C242.647 234.445 242.232 233.698 241.516 233.492Z" fill="#F89D81"/>
<path d="M234.837 237.194L217.97 232.357C217.253 232.152 216.506 232.566 216.3 233.283C216.095 233.999 216.509 234.747 217.226 234.952L234.093 239.789C234.81 239.994 235.557 239.58 235.763 238.863C235.968 238.147 235.554 237.399 234.837 237.194Z" fill="#F89D81"/>
<path d="M174.075 280.151C182.674 282.617 191.644 277.645 194.11 269.045C196.576 260.446 191.603 251.476 183.004 249.011C174.405 246.545 165.435 251.517 162.97 260.116C160.504 268.715 165.476 277.685 174.075 280.151Z" fill="#FDE1D9"/>
<path d="M213 291.313C221.599 293.778 230.569 288.806 233.035 280.207C235.501 271.608 230.529 262.638 221.93 260.172C213.33 257.707 204.361 262.679 201.895 271.278C199.429 279.877 204.401 288.847 213 291.313Z" fill="#FDE1D9"/>
<path d="M251.925 302.474C260.525 304.94 269.494 299.968 271.96 291.369C274.426 282.77 269.454 273.8 260.855 271.334C252.256 268.868 243.286 273.84 240.82 282.439C238.354 291.039 243.326 300.008 251.925 302.474Z" fill="#FDE1D9"/>
<path d="M256.814 186.261C256.587 186.2 256.379 186.082 256.21 185.919C255.58 185.384 254.844 184.99 254.049 184.762C253.255 184.535 252.422 184.479 251.604 184.598C251.253 184.675 250.887 184.608 250.585 184.415C250.283 184.221 250.071 183.915 249.994 183.564C249.918 183.214 249.984 182.847 250.178 182.545C250.372 182.243 250.677 182.031 251.028 181.955C252.283 181.746 253.569 181.82 254.793 182.171C256.016 182.521 257.145 183.14 258.099 183.982C258.321 184.194 258.464 184.474 258.505 184.777C258.546 185.08 258.483 185.388 258.326 185.651C258.169 185.914 257.928 186.115 257.641 186.223C257.355 186.33 257.04 186.337 256.749 186.242L256.814 186.261Z" fill="#515979"/>
<path d="M254.408 183.633C257.275 184.455 260.265 182.798 261.087 179.931C261.909 177.065 260.251 174.075 257.385 173.253C254.518 172.431 251.529 174.088 250.707 176.955C249.885 179.821 251.542 182.811 254.408 183.633Z" fill="#515979"/>
<path d="M256.822 180.113C257.539 180.318 258.286 179.904 258.492 179.187C258.697 178.47 258.283 177.723 257.566 177.518C256.849 177.312 256.102 177.726 255.897 178.443C255.691 179.16 256.105 179.907 256.822 180.113Z" fill="white"/>
<path d="M254.937 167.369C255.431 167.14 255.951 166.97 256.485 166.866C256.993 166.754 257.511 166.695 258.031 166.691C259.129 166.67 260.219 166.882 261.229 167.313C261.756 167.544 262.255 167.833 262.716 168.175C262.946 168.353 263.145 168.565 263.356 168.759C263.572 168.949 263.762 169.167 263.922 169.405C264.607 170.27 265.039 171.308 265.169 172.403C265.194 172.584 265.181 172.767 265.133 172.943C265.084 173.119 265.001 173.283 264.887 173.426C264.773 173.568 264.632 173.686 264.471 173.773C264.31 173.859 264.134 173.912 263.952 173.929C263.75 173.957 263.543 173.939 263.348 173.876C263.153 173.813 262.976 173.706 262.828 173.564L262.617 173.37C262.147 172.859 261.644 172.38 261.112 171.935C260.647 171.551 260.13 171.235 259.577 170.996C258.976 170.729 258.351 170.524 257.709 170.383C257.378 170.288 257.009 170.231 256.645 170.176C256.282 170.121 255.863 170.064 255.563 169.985L255.154 169.868C254.81 169.769 254.519 169.538 254.345 169.225C254.172 168.912 254.13 168.543 254.228 168.198C254.284 168.02 254.376 167.854 254.498 167.712C254.619 167.569 254.769 167.453 254.937 167.369Z" fill="#515979"/>
<path d="M237.352 180.68C237.125 180.619 236.917 180.501 236.747 180.338C236.118 179.803 235.381 179.409 234.587 179.181C233.792 178.954 232.959 178.898 232.141 179.017C231.968 179.055 231.788 179.058 231.614 179.027C231.439 178.995 231.272 178.93 231.122 178.834C230.973 178.738 230.844 178.613 230.742 178.467C230.641 178.322 230.569 178.157 230.532 177.984C230.494 177.81 230.49 177.631 230.522 177.456C230.553 177.281 230.619 177.114 230.715 176.965C230.811 176.815 230.936 176.686 231.081 176.585C231.227 176.483 231.392 176.412 231.565 176.374C232.821 176.165 234.107 176.239 235.33 176.59C236.553 176.94 237.683 177.559 238.637 178.401C238.858 178.613 239.001 178.893 239.042 179.196C239.083 179.499 239.02 179.807 238.864 180.07C238.707 180.333 238.465 180.534 238.179 180.642C237.892 180.749 237.578 180.756 237.287 180.661L237.352 180.68Z" fill="#515979"/>
<path d="M234.946 178.052C237.812 178.874 240.802 177.217 241.624 174.35C242.446 171.484 240.788 168.494 237.922 167.672C235.056 166.85 232.066 168.508 231.244 171.374C230.422 174.24 232.079 177.23 234.946 178.052Z" fill="#515979"/>
<path d="M237.359 174.532C238.076 174.737 238.823 174.323 239.029 173.606C239.234 172.89 238.82 172.142 238.103 171.937C237.387 171.731 236.639 172.146 236.434 172.862C236.228 173.579 236.643 174.326 237.359 174.532Z" fill="white"/>
<path d="M241.195 165.88C240.897 165.794 240.519 165.594 240.176 165.468C239.833 165.341 239.488 165.2 239.164 165.079C238.545 164.859 237.906 164.701 237.256 164.609C236.66 164.519 236.054 164.513 235.456 164.592C234.769 164.687 234.088 164.828 233.419 165.012L233.144 165.066C232.86 165.143 232.559 165.125 232.287 165.014C232.014 164.904 231.785 164.708 231.634 164.456C231.483 164.204 231.419 163.909 231.451 163.617C231.482 163.325 231.609 163.051 231.81 162.837C232.501 161.978 233.417 161.327 234.456 160.956C234.718 160.838 234.995 160.755 235.278 160.707C235.56 160.655 235.841 160.581 236.13 160.552C236.701 160.506 237.275 160.524 237.842 160.607C238.927 160.776 239.964 161.174 240.884 161.774C241.323 162.054 241.731 162.378 242.102 162.741C242.502 163.112 242.853 163.531 243.149 163.989C243.341 164.289 243.406 164.653 243.331 165.001C243.257 165.349 243.047 165.653 242.749 165.848C242.586 165.952 242.402 166.021 242.21 166.048C242.018 166.075 241.822 166.061 241.637 166.006L241.195 165.88Z" fill="#515979"/>
<path d="M242.152 190.678C238.107 189.508 234.496 187.173 231.769 183.966C231.537 183.692 231.423 183.338 231.452 182.981C231.482 182.624 231.652 182.294 231.925 182.062C232.198 181.83 232.552 181.717 232.909 181.746C233.266 181.775 233.597 181.945 233.828 182.218C238.654 187.892 246.75 190.213 253.083 187.739C253.249 187.675 253.425 187.644 253.603 187.649C253.78 187.653 253.955 187.692 254.117 187.763C254.28 187.835 254.426 187.938 254.549 188.066C254.671 188.194 254.767 188.346 254.832 188.511C254.896 188.676 254.927 188.853 254.922 189.03C254.918 189.208 254.879 189.383 254.808 189.545C254.736 189.707 254.633 189.854 254.505 189.976C254.377 190.099 254.225 190.195 254.06 190.259C250.243 191.695 246.06 191.842 242.152 190.678V190.678Z" fill="#515979"/>
<path d="M238.591 191.833C239.4 192.34 240.273 192.736 241.187 193.013C241.645 193.146 242.113 193.243 242.586 193.302C243.056 193.378 243.532 193.407 244.008 193.387C244.125 193.38 244.242 193.397 244.352 193.436C244.463 193.476 244.565 193.536 244.652 193.614C244.739 193.693 244.809 193.788 244.86 193.894C244.91 193.999 244.939 194.114 244.945 194.231C244.955 194.394 244.919 194.557 244.841 194.701C244.764 194.845 244.649 194.964 244.508 195.047L243.893 195.404C243.361 195.704 242.762 195.863 242.152 195.867C241.572 195.876 240.995 195.786 240.445 195.602C240.168 195.517 239.898 195.409 239.639 195.279C239.377 195.159 239.127 195.017 238.89 194.854C238.393 194.528 237.965 194.107 237.63 193.615L237.299 193.106C237.182 192.927 237.13 192.713 237.153 192.501C237.175 192.288 237.271 192.09 237.423 191.94C237.576 191.79 237.775 191.698 237.988 191.678C238.201 191.659 238.414 191.714 238.591 191.833V191.833Z" fill="#515979"/>
<path d="M261.605 117.57C261.079 117.568 260.562 117.43 260.105 117.17L173.505 67.17C173.163 66.9732 172.864 66.7109 172.623 66.3983C172.383 66.0857 172.207 65.7288 172.105 65.348C172.003 64.9672 171.977 64.57 172.028 64.1791C172.079 63.7883 172.207 63.4114 172.405 63.07L196.405 21.5C196.601 21.1586 196.863 20.8592 197.175 20.619C197.488 20.3788 197.844 20.2024 198.225 20.1C198.479 20.0326 198.741 19.999 199.005 20C199.531 20.0022 200.047 20.1399 200.505 20.4L287.105 70.4C287.446 70.5968 287.746 70.859 287.986 71.1717C288.226 71.4843 288.402 71.8412 288.504 72.222C288.607 72.6028 288.633 73 288.581 73.3908C288.53 73.7817 288.402 74.1586 288.205 74.5L264.205 116.07C264.008 116.411 263.746 116.711 263.434 116.951C263.122 117.191 262.765 117.368 262.385 117.47C262.13 117.537 261.868 117.571 261.605 117.57V117.57Z" fill="#7DDF96"/>
<path d="M199.005 23L285.605 73L261.605 114.57L175.005 64.57L199.005 23ZM199.005 17C198.482 17.0019 197.961 17.0691 197.455 17.2C196.692 17.4037 195.977 17.7558 195.351 18.2363C194.724 18.7168 194.199 19.3161 193.805 20L169.805 61.57C169.41 62.2528 169.154 63.0066 169.051 63.7883C168.948 64.5701 169.001 65.3644 169.205 66.126C169.409 66.8876 169.762 67.6014 170.242 68.2266C170.722 68.8519 171.321 69.3764 172.005 69.77L258.605 119.77C259.517 120.295 260.552 120.571 261.605 120.57C262.132 120.57 262.656 120.499 263.165 120.36C264.699 119.949 266.009 118.945 266.805 117.57L290.805 76C291.199 75.3172 291.455 74.5634 291.558 73.7817C291.661 72.9999 291.608 72.2056 291.404 71.444C291.2 70.6825 290.847 69.9686 290.367 69.3434C289.887 68.7181 289.288 68.1937 288.605 67.8L202.005 17.8C201.092 17.2747 200.057 16.9988 199.005 17V17Z" fill="#515979"/>
<path d="M246.265 78C242.005 85.29 235.005 89.67 228.125 90L253.385 104.6C254.432 102.786 256.158 101.463 258.181 100.921C260.205 100.379 262.36 100.663 264.175 101.71L275.755 81.65C274.857 81.1321 274.07 80.4424 273.439 79.6203C272.808 78.7982 272.345 77.8598 272.076 76.8587C271.808 75.8577 271.739 74.8135 271.875 73.7859C272.01 72.7584 272.346 71.7675 272.865 70.87L247.595 56.28C250.735 62.4 250.475 70.7 246.265 78ZM261.535 78.91C262.966 79.8842 263.976 81.3637 264.362 83.0516C264.748 84.7395 264.482 86.511 263.616 88.0107C262.751 89.5103 261.35 90.6271 259.695 91.1371C258.04 91.647 256.254 91.5123 254.695 90.76C253.263 89.7858 252.253 88.3063 251.867 86.6184C251.481 84.9305 251.747 83.159 252.613 81.6593C253.478 80.1597 254.879 79.0429 256.534 78.5329C258.189 78.023 259.975 78.1577 261.535 78.91V78.91Z" fill="#00C853"/>
<path d="M187.755 66.7L213.005 81.29C209.875 75.17 210.135 66.87 214.345 59.57C218.555 52.27 225.615 47.9 232.485 47.57L207.225 33C206.707 33.8978 206.017 34.6847 205.195 35.3158C204.373 35.947 203.434 36.4099 202.433 36.6783C201.432 36.9467 200.388 37.0152 199.36 36.88C198.333 36.7447 197.342 36.4083 196.445 35.89L184.865 55.92C186.676 56.9678 187.997 58.6913 188.539 60.7123C189.081 62.7333 188.799 64.8867 187.755 66.7V66.7ZM205.924 46.81C207.391 47.7516 208.424 49.2356 208.799 50.9372C209.174 52.6388 208.859 54.4196 207.924 55.89C207.11 57.4331 205.717 58.5909 204.051 59.11C202.385 59.6291 200.582 59.4673 199.035 58.66C197.568 57.7165 196.534 56.2308 196.159 54.5276C195.785 52.8243 196.099 51.042 197.035 49.57C197.849 48.0266 199.242 46.8693 200.909 46.3519C202.575 45.8345 204.379 45.9992 205.924 46.81V46.81Z" fill="#00C853"/>
<path d="M229.085 64.32C228.485 65.32 229.305 66.32 231.235 67.67C234.555 70.14 237.005 72.5 234.745 76.9C233.165 79.63 230.345 80.5 226.825 79.16L225.675 81.16L221.775 78.91L222.925 76.91C222.022 76.2131 221.316 75.2936 220.876 74.2418C220.436 73.19 220.277 72.0419 220.415 70.91C220.399 70.8207 220.399 70.7294 220.415 70.64L220.485 69.92L225.265 70.39V71.39C225.195 72.0117 225.328 72.6393 225.643 73.1797C225.958 73.7201 226.439 74.1445 227.015 74.39C228.865 75.46 229.865 75.52 230.515 74.39C231.065 73.39 230.185 72.44 228.305 71.07C225.085 68.73 222.415 66.15 224.865 61.92C226.465 59.14 229.395 58.26 232.965 59.53L234.165 57.45L238.005 59.75L236.835 61.75C237.891 62.4823 238.718 63.5003 239.217 64.685C239.717 65.8698 239.868 67.1722 239.655 68.44L239.485 69.39L234.795 68.51L235.005 67.6C235.205 66.3 234.535 65.22 233.005 64.37C231.005 63.23 229.735 63.2 229.085 64.32Z" fill="#00C853"/>
<path d="M182.178 250.592C181.996 251.086 181.689 251.524 181.289 251.865L104.685 316.141C104.383 316.395 104.034 316.586 103.659 316.705C103.283 316.824 102.887 316.868 102.494 316.833C102.101 316.799 101.719 316.688 101.37 316.506C101.02 316.324 100.709 316.075 100.456 315.772L69.6016 279.002C69.348 278.701 69.1562 278.352 69.0373 277.976C68.9184 277.601 68.8746 277.206 68.9085 276.813C68.9322 276.551 68.9903 276.293 69.0813 276.046C69.2633 275.552 69.5694 275.114 69.9702 274.773L146.574 210.497C146.876 210.243 147.224 210.051 147.6 209.933C147.976 209.814 148.372 209.77 148.765 209.805C149.157 209.839 149.54 209.95 149.889 210.132C150.239 210.314 150.549 210.563 150.803 210.865L181.657 247.636C181.911 247.937 182.103 248.286 182.222 248.661C182.34 249.037 182.384 249.432 182.35 249.825C182.327 250.087 182.269 250.345 182.178 250.592V250.592Z" fill="#7DDF96"/>
<path d="M71.9003 277.072L148.504 212.796L179.358 249.566L102.755 313.842L71.9003 277.072ZM66.2622 275.02C66.085 275.512 65.9701 276.024 65.92 276.545C65.8505 277.331 65.9369 278.123 66.1742 278.876C66.4114 279.629 66.795 280.328 67.3027 280.932L98.1573 317.703C98.664 318.307 99.2848 318.805 99.9842 319.169C100.684 319.533 101.448 319.756 102.233 319.824C103.019 319.893 103.81 319.806 104.562 319.568C105.314 319.331 106.012 318.947 106.615 318.44L183.219 254.164C184.024 253.486 184.638 252.608 184.997 251.618C185.177 251.123 185.29 250.606 185.333 250.08C185.471 248.497 184.976 246.924 183.956 245.706L153.101 208.935C152.595 208.331 151.974 207.833 151.275 207.469C150.575 207.105 149.811 206.882 149.025 206.813C148.24 206.745 147.449 206.832 146.697 207.07C145.945 207.307 145.247 207.691 144.644 208.198L68.04 272.474C67.2343 273.152 66.6212 274.03 66.2622 275.02V275.02Z" fill="#515979"/>
<path d="M139.747 251.473C145.141 257.97 146.862 266.045 144.819 272.623L167.178 253.88C165.832 252.275 165.179 250.201 165.362 248.115C165.544 246.028 166.548 244.099 168.153 242.753L153.263 225.01C152.47 225.676 151.552 226.18 150.564 226.492C149.576 226.804 148.535 226.918 147.503 226.828C146.47 226.738 145.466 226.445 144.547 225.966C143.627 225.488 142.811 224.833 142.145 224.039L119.792 242.795C126.617 241.937 134.327 245.02 139.747 251.473ZM145.825 237.435C147.23 236.423 148.966 235.98 150.684 236.195C152.402 236.409 153.976 237.265 155.089 238.592C156.202 239.918 156.772 241.616 156.686 243.346C156.599 245.075 155.861 246.708 154.621 247.916C153.216 248.928 151.48 249.371 149.762 249.156C148.044 248.942 146.47 248.086 145.357 246.759C144.244 245.433 143.674 243.735 143.76 242.005C143.847 240.276 144.585 238.644 145.825 237.435V237.435Z" fill="#00C853"/>
<path d="M109.117 302.59L131.463 283.853C124.642 284.701 116.931 281.618 111.511 275.165C106.092 268.712 104.4 260.583 106.439 254.014L84.1086 272.768C84.7751 273.562 85.2787 274.479 85.5906 275.467C85.9025 276.456 86.0166 277.496 85.9264 278.528C85.8362 279.561 85.5435 280.565 85.0649 281.485C84.5864 282.404 83.9314 283.22 83.1374 283.886L97.9988 301.618C99.6029 300.275 101.674 299.623 103.759 299.805C105.843 299.987 107.77 300.988 109.117 302.59V302.59ZM96.6412 278.713C98.0274 277.657 99.7753 277.194 101.502 277.423C103.23 277.653 104.796 278.558 105.858 279.939C107.029 281.232 107.641 282.937 107.559 284.68C107.477 286.423 106.708 288.063 105.42 289.24C104.032 290.296 102.282 290.759 100.553 290.528C98.8247 290.298 97.2575 289.393 96.1942 288.011C95.0224 286.717 94.4114 285.012 94.4952 283.269C94.579 281.526 95.3508 279.888 96.6412 278.713V278.713Z" fill="#00C853"/>
<path d="M121.016 262.938C121.751 263.844 122.971 263.416 124.9 262.064C128.356 259.789 131.412 258.294 134.774 261.922C136.798 264.341 136.652 267.288 134.188 270.138L135.674 271.902L132.226 274.797L130.74 273.033C129.777 273.642 128.671 273.991 127.532 274.045C126.394 274.099 125.26 273.855 124.244 273.339C124.154 273.323 124.069 273.292 123.99 273.247L123.337 272.935L125.414 268.604L126.353 268.946C126.914 269.224 127.549 269.314 128.165 269.203C128.78 269.091 129.344 268.784 129.771 268.328C131.409 266.955 131.808 266.036 130.968 265.039C130.217 264.18 129.023 264.682 127.093 265.98C123.792 268.205 120.455 269.832 117.318 266.083C115.253 263.629 115.428 260.574 117.842 257.654L116.298 255.815L119.773 252.993L121.252 254.777C122.302 254.034 123.541 253.606 124.825 253.542C126.109 253.477 127.385 253.78 128.503 254.415L129.338 254.899L126.907 259.006L126.123 258.497C124.97 257.865 123.726 258.125 122.404 259.272C120.649 260.761 120.186 261.944 121.016 262.938Z" fill="#00C853"/>
</svg>
