<?xml version="1.0" encoding="utf-8"?>
<!-- Generator: Adobe Illustrator 26.0.2, SVG Export Plug-In . SVG Version: 6.00 Build 0)  -->
<svg version="1.1" id="landing-page-agency-illustration-01"
	 xmlns="http://www.w3.org/2000/svg" xmlns:xlink="http://www.w3.org/1999/xlink" x="0px" y="0px" viewBox="0 0 400 400"
	 style="enable-background:new 0 0 400 400;" xml:space="preserve">
<style type="text/css">
	.st0{fill:none;}
	.st1{fill:#FFD886;}
	.st2{fill:#7DDF96;}
	.st3{fill:#515979;}
	.st4{fill:#00C853;}
	.st5{fill:#D8EBFB;}
</style>
<g>
	<rect class="st0" width="400" height="400"/>
	<g>
		<g>
			<path class="st1" d="M97.87,111.2c-3.53,0-6.4-2.87-6.4-6.4c0-1.18-0.96-2.13-2.13-2.13c-1.18,0-2.13,0.96-2.13,2.13
				c0,3.53-2.87,6.4-6.4,6.4c-1.18,0-2.13,0.96-2.13,2.13s0.96,2.13,2.13,2.13c3.53,0,6.4,2.87,6.4,6.4c0,1.18,0.96,2.13,2.13,2.13
				c1.18,0,2.13-0.96,2.13-2.13c0-3.53,2.87-6.4,6.4-6.4c1.18,0,2.13-0.96,2.13-2.13S99.04,111.2,97.87,111.2z"/>
		</g>
		<g>
			<path class="st1" d="M253.6,34.93c-3.97,0-7.2-3.23-7.2-7.2c0-1.33-1.07-2.4-2.4-2.4c-1.33,0-2.4,1.07-2.4,2.4
				c0,3.97-3.23,7.2-7.2,7.2c-1.33,0-2.4,1.07-2.4,2.4c0,1.33,1.07,2.4,2.4,2.4c3.97,0,7.2,3.23,7.2,7.2c0,1.33,1.07,2.4,2.4,2.4
				c1.33,0,2.4-1.07,2.4-2.4c0-3.97,3.23-7.2,7.2-7.2c1.33,0,2.4-1.07,2.4-2.4C256,36.01,254.93,34.93,253.6,34.93z"/>
		</g>
		<g>
			<path class="st1" d="M238.93,241.6c-3.97,0-7.2-3.23-7.2-7.2c0-1.33-1.07-2.4-2.4-2.4c-1.33,0-2.4,1.07-2.4,2.4
				c0,3.97-3.23,7.2-7.2,7.2c-1.33,0-2.4,1.07-2.4,2.4s1.07,2.4,2.4,2.4c3.97,0,7.2,3.23,7.2,7.2c0,1.33,1.07,2.4,2.4,2.4
				c1.33,0,2.4-1.07,2.4-2.4c0-3.97,3.23-7.2,7.2-7.2c1.33,0,2.4-1.07,2.4-2.4S240.26,241.6,238.93,241.6z"/>
		</g>
		<g>
			<path class="st1" d="M65.6,357.6c-3.97,0-7.2-3.23-7.2-7.2c0-1.33-1.07-2.4-2.4-2.4c-1.33,0-2.4,1.07-2.4,2.4
				c0,3.97-3.23,7.2-7.2,7.2c-1.33,0-2.4,1.07-2.4,2.4s1.07,2.4,2.4,2.4c3.97,0,7.2,3.23,7.2,7.2c0,1.33,1.07,2.4,2.4,2.4
				c1.33,0,2.4-1.07,2.4-2.4c0-3.97,3.23-7.2,7.2-7.2c1.33,0,2.4-1.07,2.4-2.4S66.93,357.6,65.6,357.6z"/>
		</g>
		<g>
			<circle class="st1" cx="304" cy="61.33" r="4"/>
		</g>
		<g>
			<circle class="st1" cx="86" cy="163.33" r="3.33"/>
		</g>
		<g>
			<circle class="st1" cx="182.67" cy="234" r="3.33"/>
		</g>
		<g>
			<circle class="st1" cx="36.67" cy="146" r="6"/>
		</g>
		<g>
			<circle class="st1" cx="242" cy="202.67" r="5.33"/>
		</g>
		<g>
			<circle class="st1" cx="190" cy="187.33" r="3.33"/>
		</g>
		<g>
			<circle class="st1" cx="66.67" cy="305.33" r="4"/>
		</g>
		<g>
			<circle class="st1" cx="14.67" cy="320" r="5.33"/>
		</g>
		<path class="st1" d="M382,28h-9.33v-9.33c0-2.21-1.79-4-4-4c-2.21,0-4,1.79-4,4V28h-9.33c-2.21,0-4,1.79-4,4s1.79,4,4,4h9.33v9.33
			c0,2.21,1.79,4,4,4c2.21,0,4-1.79,4-4V36H382c2.21,0,4-1.79,4-4S384.21,28,382,28z"/>
	</g>
	<g>
		<g>
			<g>
				<g>
					<g>
						<path class="st2" d="M157.5,169.12c-10.7,0-20.27-1.24-29.26-3.8c-1.72-0.49-2.91-2.06-2.91-3.85V98.31
							c0-1.25,0.59-2.44,1.59-3.19c0.7-0.53,1.55-0.81,2.41-0.81c0.37,0,0.73,0.05,1.09,0.15c8.27,2.35,17.13,3.49,27.08,3.49
							c12.55,0,25.45-1.83,37.93-3.61c12.75-1.81,25.94-3.69,39.05-3.69c10.7,0,20.28,1.24,29.27,3.8c1.72,0.49,2.91,2.06,2.91,3.85
							v63.16c0,1.25-0.59,2.44-1.59,3.19c-0.7,0.53-1.55,0.81-2.41,0.81c-0.37,0-0.73-0.05-1.09-0.15
							c-8.27-2.35-17.13-3.49-27.08-3.49c-12.55,0-25.45,1.83-37.93,3.61C183.81,167.24,170.62,169.12,157.5,169.12
							C157.51,169.12,157.51,169.12,157.5,169.12z"/>
					</g>
					<g>
						<path class="st3" d="M234.49,94.67c9.39,0,18.78,0.98,28.18,3.65c0,21.05,0,42.11,0,63.16c-9.39-2.67-18.79-3.65-28.18-3.65
							c-25.66,0-51.32,7.29-76.98,7.29c-9.39,0-18.78-0.98-28.18-3.65c0-21.05,0-42.11,0-63.16c9.39,2.67,18.78,3.65,28.18,3.65
							C183.17,101.96,208.83,94.67,234.49,94.67 M234.49,86.67v8V86.67c-13.4,0-26.73,1.89-39.62,3.73
							c-12.91,1.83-25.1,3.57-37.37,3.57c-9.58,0-18.08-1.09-25.99-3.34c-0.72-0.2-1.46-0.3-2.19-0.3c-1.72,0-3.42,0.56-4.82,1.62
							c-2,1.51-3.18,3.88-3.18,6.38v63.16c0,3.58,2.37,6.72,5.81,7.7c9.35,2.66,19.29,3.95,30.36,3.95
							c13.39,0,26.72-1.89,39.61-3.73c12.91-1.83,25.1-3.57,37.37-3.57c9.58,0,18.08,1.09,25.99,3.34c0.72,0.2,1.46,0.3,2.19,0.3
							c1.72,0,3.42-0.56,4.82-1.62c2-1.51,3.18-3.88,3.18-6.38V98.31c0-3.58-2.37-6.72-5.81-7.7
							C255.5,87.96,245.57,86.67,234.49,86.67L234.49,86.67z"/>
					</g>
				</g>
			</g>
			<g>
				<path class="st4" d="M171.44,132.91c0-11.2,5.24-21.44,12.95-27.38c-12.97,1.68-25.94,2.79-38.91,1.46
					c0,5.8-4.71,10.13-10.53,8.87v30.88c5.81,1.26,10.53,6.36,10.53,12.18c12.96,1.33,25.93,0.22,38.89-1.46
					C176.67,153.45,171.44,144.17,171.44,132.91z M153.19,142.59c-4.65-0.15-8.42-4.68-8.42-9.72c0-5.04,3.77-8.68,8.42-8.53
					c4.65,0.16,8.42,4.09,8.42,9.13C161.61,138.51,157.84,142.75,153.19,142.59z"/>
				<path class="st4" d="M246.53,100.87c-12.96-1.33-25.93-0.22-38.89,1.46c7.7,4.01,12.93,13.29,12.93,24.55
					c0,11.2-5.24,21.44-12.95,27.38c12.97-1.68,25.94-2.79,38.91-1.46c0-5.8,4.71-10.13,10.53-8.87v-30.88
					C251.24,111.8,246.53,106.7,246.53,100.87z M238.81,135.44c-4.65-0.16-8.42-4.09-8.42-9.13c0-5.03,3.77-9.27,8.42-9.11
					c4.65,0.14,8.42,4.68,8.42,9.72C247.23,131.95,243.46,135.59,238.81,135.44z"/>
			</g>
			<g>
				<path class="st4" d="M200.39,133.62c0-1.6-1.56-1.9-4.72-1.77c-5.48,0.15-9.88-0.34-10.2-6.91c0-4.2,2.68-7.43,7.64-8.93
					c0-1.03,0-2.05,0-3.08c2-0.28,4-0.57,6-0.85c0,1.03,0,2.05,0,3.08c3.24,0.1,5.52,1.51,6.88,4.25c0.08,0.11,0.12,0.18,0.16,0.3
					c0.13,0.28,0.27,0.55,0.4,0.83c-1.95,1.14-3.89,2.28-5.84,3.44c-0.2-0.36-0.4-0.72-0.6-1.07c-0.8-1.45-1.84-2.06-4.04-1.75
					c-2.84,0.4-4.04,1.17-4.04,2.89c0,1.48,1.68,1.81,4.76,1.68c5.28-0.2,10.08,0.36,10.08,6.89c0,4.28-2.8,7.6-7.76,9.22
					c0,1.07,0,2.13,0,3.2c-2,0.28-4,0.57-6,0.85c0-1.04,0-2.08,0-3.12c-3.92-0.05-6.48-1.66-7.72-4.78
					c-0.15-0.38-0.29-0.76-0.44-1.14c2-0.97,4-1.95,6-2.93c0.16,0.36,0.32,0.73,0.48,1.09c0.64,1.55,2.12,2.14,4.4,1.82
					C198.87,136.39,200.39,135.34,200.39,133.62z"/>
			</g>
		</g>
		<g>
			<g>
				<g>
					<g>
						<path class="st2" d="M37.5,265.12c-10.7,0-20.27-1.24-29.26-3.8c-1.72-0.49-2.91-2.06-2.91-3.85v-63.16
							c0-1.25,0.59-2.44,1.59-3.19c0.7-0.53,1.55-0.81,2.41-0.81c0.37,0,0.73,0.05,1.09,0.15c8.27,2.35,17.13,3.49,27.08,3.49
							c12.55,0,25.45-1.83,37.93-3.61c12.75-1.81,25.94-3.69,39.05-3.69c10.7,0,20.28,1.24,29.27,3.8c1.72,0.49,2.91,2.06,2.91,3.85
							v63.16c0,1.25-0.59,2.44-1.59,3.19c-0.7,0.53-1.55,0.81-2.41,0.81c-0.37,0-0.73-0.05-1.09-0.15
							c-8.27-2.35-17.13-3.49-27.08-3.49c-12.55,0-25.45,1.83-37.93,3.61C63.81,263.24,50.62,265.12,37.5,265.12
							C37.51,265.12,37.51,265.12,37.5,265.12z"/>
					</g>
					<g>
						<path class="st3" d="M114.49,190.67c9.39,0,18.78,0.98,28.18,3.65c0,21.05,0,42.11,0,63.16c-9.39-2.67-18.79-3.65-28.18-3.65
							c-25.66,0-51.32,7.29-76.98,7.29c-9.39,0-18.78-0.98-28.18-3.65c0-21.05,0-42.11,0-63.16c9.39,2.67,18.78,3.65,28.18,3.65
							C63.17,197.96,88.83,190.67,114.49,190.67 M114.49,182.67v8V182.67c-13.4,0-26.73,1.89-39.62,3.73
							c-12.91,1.83-25.1,3.57-37.37,3.57c-9.58,0-18.08-1.09-25.99-3.34c-0.72-0.2-1.46-0.3-2.19-0.3c-1.72,0-3.42,0.56-4.82,1.62
							c-2,1.51-3.18,3.88-3.18,6.38v63.16c0,3.58,2.37,6.72,5.81,7.7c9.35,2.66,19.29,3.95,30.36,3.95
							c13.39,0,26.72-1.89,39.61-3.73c12.91-1.83,25.1-3.57,37.37-3.57c9.58,0,18.08,1.09,25.99,3.34c0.72,0.2,1.46,0.3,2.19,0.3
							c1.72,0,3.42-0.56,4.82-1.62c2-1.51,3.18-3.88,3.18-6.38v-63.16c0-3.58-2.37-6.72-5.81-7.7
							C135.5,183.96,125.57,182.67,114.49,182.67L114.49,182.67z"/>
					</g>
				</g>
			</g>
			<g>
				<path class="st4" d="M51.44,228.91c0-11.2,5.24-21.44,12.95-27.38c-12.97,1.68-25.94,2.79-38.91,1.46
					c0,5.8-4.71,10.13-10.53,8.87v30.88c5.81,1.26,10.53,6.36,10.53,12.18c12.96,1.33,25.93,0.22,38.89-1.46
					C56.67,249.45,51.44,240.17,51.44,228.91z M33.19,238.59c-4.65-0.15-8.42-4.68-8.42-9.72c0-5.04,3.77-8.68,8.42-8.53
					c4.65,0.16,8.42,4.09,8.42,9.13C41.61,234.51,37.84,238.75,33.19,238.59z"/>
				<path class="st4" d="M126.53,196.87c-12.96-1.33-25.93-0.22-38.89,1.46c7.7,4.01,12.93,13.29,12.93,24.55
					c0,11.2-5.24,21.44-12.95,27.38c12.97-1.68,25.94-2.79,38.91-1.46c0-5.8,4.71-10.13,10.53-8.87v-30.88
					C131.24,207.8,126.53,202.7,126.53,196.87z M118.81,231.44c-4.65-0.16-8.42-4.09-8.42-9.13c0-5.03,3.77-9.27,8.42-9.11
					c4.65,0.14,8.42,4.68,8.42,9.72C127.23,227.95,123.46,231.59,118.81,231.44z"/>
			</g>
			<g>
				<path class="st4" d="M80.39,229.62c0-1.6-1.56-1.9-4.72-1.77c-5.48,0.15-9.88-0.34-10.2-6.91c0-4.2,2.68-7.43,7.64-8.93
					c0-1.03,0-2.05,0-3.08c2-0.28,4-0.57,6-0.85c0,1.03,0,2.05,0,3.08c3.24,0.1,5.52,1.51,6.88,4.25c0.08,0.11,0.12,0.18,0.16,0.3
					c0.13,0.28,0.27,0.55,0.4,0.83c-1.95,1.14-3.89,2.28-5.84,3.44c-0.2-0.36-0.4-0.72-0.6-1.07c-0.8-1.45-1.84-2.06-4.04-1.75
					c-2.84,0.4-4.04,1.17-4.04,2.89c0,1.48,1.68,1.81,4.76,1.68c5.28-0.2,10.08,0.36,10.08,6.89c0,4.28-2.8,7.6-7.76,9.22
					c0,1.07,0,2.13,0,3.2c-2,0.28-4,0.57-6,0.85c0-1.04,0-2.08,0-3.12c-3.92-0.05-6.48-1.66-7.72-4.78
					c-0.15-0.38-0.29-0.76-0.44-1.14c2-0.97,4-1.95,6-2.93c0.16,0.36,0.32,0.73,0.48,1.09c0.64,1.55,2.12,2.14,4.4,1.82
					C78.87,232.39,80.39,231.34,80.39,229.62z"/>
			</g>
		</g>
		<g>
			<g>
				<g>
					<g>
						<path class="st2" d="M285.5,370.45c-10.7,0-20.27-1.24-29.26-3.8c-1.72-0.49-2.91-2.06-2.91-3.85v-63.16
							c0-1.25,0.59-2.44,1.59-3.19c0.7-0.53,1.55-0.81,2.41-0.81c0.37,0,0.73,0.05,1.09,0.15c8.27,2.35,17.13,3.49,27.08,3.49
							c12.55,0,25.45-1.83,37.93-3.61c12.75-1.81,25.94-3.69,39.05-3.69c10.7,0,20.28,1.24,29.27,3.8c1.72,0.49,2.91,2.06,2.91,3.85
							v63.16c0,1.25-0.59,2.44-1.59,3.19c-0.7,0.53-1.55,0.81-2.41,0.81c-0.37,0-0.73-0.05-1.09-0.15
							c-8.27-2.35-17.13-3.49-27.08-3.49c-12.55,0-25.45,1.83-37.93,3.61C311.81,368.58,298.62,370.45,285.5,370.45
							C285.51,370.45,285.51,370.45,285.5,370.45z"/>
					</g>
					<g>
						<path class="st3" d="M362.49,296c9.39,0,18.78,0.98,28.18,3.65c0,21.05,0,42.11,0,63.16c-9.39-2.67-18.79-3.65-28.18-3.65
							c-25.66,0-51.32,7.29-76.98,7.29c-9.39,0-18.78-0.98-28.18-3.65c0-21.05,0-42.11,0-63.16c9.39,2.67,18.78,3.65,28.18,3.65
							C311.17,303.29,336.83,296,362.49,296 M362.49,288v8V288c-13.4,0-26.73,1.89-39.62,3.73c-12.91,1.83-25.1,3.57-37.37,3.57
							c-9.58,0-18.08-1.09-25.99-3.34c-0.72-0.2-1.46-0.3-2.19-0.3c-1.72,0-3.42,0.56-4.82,1.62c-2,1.51-3.18,3.88-3.18,6.38v63.16
							c0,3.58,2.37,6.72,5.81,7.7c9.35,2.66,19.29,3.95,30.36,3.95c13.39,0,26.72-1.89,39.61-3.73c12.91-1.83,25.1-3.57,37.37-3.57
							c9.58,0,18.08,1.09,25.99,3.34c0.72,0.2,1.46,0.3,2.19,0.3c1.72,0,3.42-0.56,4.82-1.62c2-1.51,3.18-3.88,3.18-6.38v-63.16
							c0-3.58-2.37-6.72-5.81-7.7C383.5,289.29,373.57,288,362.49,288L362.49,288z"/>
					</g>
				</g>
			</g>
			<g>
				<path class="st4" d="M299.44,334.24c0-11.2,5.24-21.44,12.95-27.38c-12.97,1.68-25.94,2.79-38.91,1.46
					c0,5.8-4.71,10.13-10.53,8.87v30.88c5.81,1.26,10.53,6.36,10.53,12.18c12.96,1.33,25.93,0.22,38.89-1.46
					C304.67,354.78,299.44,345.5,299.44,334.24z M281.19,343.92c-4.65-0.15-8.42-4.68-8.42-9.72c0-5.04,3.77-8.68,8.42-8.53
					c4.65,0.16,8.42,4.09,8.42,9.13C289.61,339.84,285.84,344.08,281.19,343.92z"/>
				<path class="st4" d="M374.53,302.21c-12.96-1.33-25.93-0.22-38.89,1.46c7.7,4.01,12.93,13.29,12.93,24.55
					c0,11.2-5.24,21.44-12.95,27.38c12.97-1.68,25.94-2.79,38.91-1.46c0-5.8,4.71-10.13,10.53-8.87v-30.88
					C379.24,313.13,374.53,308.04,374.53,302.21z M366.81,336.77c-4.65-0.16-8.42-4.09-8.42-9.13c0-5.03,3.77-9.27,8.42-9.11
					c4.65,0.14,8.42,4.68,8.42,9.72C375.23,333.29,371.46,336.92,366.81,336.77z"/>
			</g>
			<g>
				<path class="st4" d="M328.39,334.95c0-1.6-1.56-1.9-4.72-1.77c-5.48,0.15-9.88-0.34-10.2-6.91c0-4.2,2.68-7.43,7.64-8.93
					c0-1.03,0-2.05,0-3.08c2-0.28,4-0.57,6-0.85c0,1.03,0,2.05,0,3.08c3.24,0.1,5.52,1.51,6.88,4.25c0.08,0.11,0.12,0.18,0.16,0.3
					c0.13,0.28,0.27,0.55,0.4,0.83c-1.95,1.14-3.89,2.28-5.84,3.44c-0.2-0.36-0.4-0.72-0.6-1.07c-0.8-1.45-1.84-2.06-4.04-1.75
					c-2.84,0.4-4.04,1.17-4.04,2.89c0,1.48,1.68,1.81,4.76,1.68c5.28-0.2,10.08,0.36,10.08,6.89c0,4.28-2.8,7.6-7.76,9.22
					c0,1.07,0,2.13,0,3.2c-2,0.28-4,0.57-6,0.85c0-1.04,0-2.08,0-3.12c-3.92-0.05-6.48-1.66-7.72-4.78
					c-0.15-0.38-0.29-0.76-0.44-1.14c2-0.97,4-1.95,6-2.93c0.16,0.36,0.32,0.73,0.48,1.09c0.64,1.55,2.12,2.14,4.4,1.82
					C326.87,337.72,328.39,336.67,328.39,334.95z"/>
			</g>
		</g>
		<g>
			<g>
				<g>
					<path class="st5" d="M24,72c-3.68,0-6.67-2.99-6.67-6.67v-40c0-3.68,2.99-6.67,6.67-6.67h168c3.68,0,6.67,2.99,6.67,6.67v40
						c0,3.68-2.99,6.67-6.67,6.67H24z"/>
				</g>
				<g>
					<g>
						<path class="st3" d="M192,22.67c1.47,0,2.67,1.19,2.67,2.67v40c0,1.47-1.19,2.67-2.67,2.67H24c-1.47,0-2.67-1.19-2.67-2.67
							v-40c0-1.47,1.19-2.67,2.67-2.67H192 M192,14.67H24c-5.88,0-10.67,4.79-10.67,10.67v40C13.33,71.21,18.12,76,24,76h168
							c5.88,0,10.67-4.79,10.67-10.67v-40C202.67,19.45,197.88,14.67,192,14.67L192,14.67z"/>
					</g>
				</g>
			</g>
			<g>
				<g>
					<path class="st2" d="M130.67,56c-3.68,0-6.67-2.99-6.67-6.67v-8c0-3.68,2.99-6.67,6.67-6.67H176c3.68,0,6.67,2.99,6.67,6.67v8
						c0,3.68-2.99,6.67-6.67,6.67H130.67z"/>
				</g>
				<g>
					<path class="st3" d="M176,38.67c1.47,0,2.67,1.19,2.67,2.67v8c0,1.47-1.19,2.67-2.67,2.67h-45.33c-1.47,0-2.67-1.19-2.67-2.67
						v-8c0-1.47,1.19-2.67,2.67-2.67H176 M176,30.67h-45.33c-5.88,0-10.67,4.79-10.67,10.67v8c0,5.88,4.79,10.67,10.67,10.67H176
						c5.88,0,10.67-4.79,10.67-10.67v-8C186.67,35.45,181.88,30.67,176,30.67L176,30.67z"/>
				</g>
			</g>
			<g>
				<path class="st3" d="M78.67,49.33H33.33c-2.21,0-4,1.79-4,4v0c0,2.21,1.79,4,4,4h45.33c2.21,0,4-1.79,4-4v0
					C82.67,51.12,80.88,49.33,78.67,49.33z"/>
			</g>
			<g>
				<path class="st3" d="M108,33.33H33.33c-2.21,0-4,1.79-4,4v0c0,2.21,1.79,4,4,4H108c2.21,0,4-1.79,4-4v0
					C112,35.12,110.21,33.33,108,33.33z"/>
			</g>
		</g>
		<g>
			<g>
				<g>
					<path class="st5" d="M101.33,390.67c-3.68,0-6.67-2.99-6.67-6.67V282.67c0-3.68,2.99-6.67,6.67-6.67H224
						c3.68,0,6.67,2.99,6.67,6.67V384c0,3.68-2.99,6.67-6.67,6.67H101.33z"/>
				</g>
				<g>
					<path class="st3" d="M224,280c1.47,0,2.67,1.19,2.67,2.67V384c0,1.47-1.19,2.67-2.67,2.67H101.33c-1.47,0-2.67-1.19-2.67-2.67
						V282.67c0-1.47,1.19-2.67,2.67-2.67H224 M224,272H101.33c-5.88,0-10.67,4.79-10.67,10.67V384c0,5.88,4.79,10.67,10.67,10.67
						H224c5.88,0,10.67-4.79,10.67-10.67V282.67C234.67,276.79,229.88,272,224,272L224,272z"/>
				</g>
			</g>
			<g>
				<g>
					<path class="st2" d="M125.33,374.67c-3.68,0-6.67-2.99-6.67-6.67v-13.33c0-3.68,2.99-6.67,6.67-6.67H200
						c3.68,0,6.67,2.99,6.67,6.67V368c0,3.68-2.99,6.67-6.67,6.67H125.33z"/>
				</g>
				<g>
					<path class="st3" d="M200,352c1.47,0,2.67,1.19,2.67,2.67V368c0,1.47-1.19,2.67-2.67,2.67h-74.67c-1.47,0-2.67-1.19-2.67-2.67
						v-13.33c0-1.47,1.19-2.67,2.67-2.67H200 M200,344h-74.67c-5.88,0-10.67,4.79-10.67,10.67V368c0,5.88,4.79,10.67,10.67,10.67
						H200c5.88,0,10.67-4.79,10.67-10.67v-13.33C210.67,348.79,205.88,344,200,344L200,344z"/>
				</g>
			</g>
			<g>
				<path class="st3" d="M190.67,328h-72c-2.21,0-4,1.79-4,4l0,0c0,2.21,1.79,4,4,4h72c2.21,0,4-1.79,4-4l0,0
					C194.67,329.79,192.88,328,190.67,328z"/>
			</g>
			<g>
				<path class="st3" d="M206.67,312h-88c-2.21,0-4,1.79-4,4l0,0c0,2.21,1.79,4,4,4h88c2.21,0,4-1.79,4-4l0,0
					C210.67,313.79,208.88,312,206.67,312z"/>
			</g>
			<g>
				<path class="st3" d="M206.67,296h-88c-2.21,0-4,1.79-4,4l0,0c0,2.21,1.79,4,4,4h88c2.21,0,4-1.79,4-4l0,0
					C210.67,297.79,208.88,296,206.67,296z"/>
			</g>
		</g>
		<g>
			<g>
				<g>
					<path class="st5" d="M293.33,273.33c-3.68,0-6.67-2.99-6.67-6.67V96c0-3.68,2.99-6.67,6.67-6.67h77.33
						c3.68,0,6.67,2.99,6.67,6.67v170.67c0,3.68-2.99,6.67-6.67,6.67H293.33z"/>
				</g>
				<g>
					<path class="st3" d="M370.67,93.33c1.47,0,2.67,1.19,2.67,2.67v170.67c0,1.47-1.19,2.67-2.67,2.67h-77.33
						c-1.47,0-2.67-1.19-2.67-2.67V96c0-1.47,1.19-2.67,2.67-2.67H370.67 M370.67,85.33h-77.33c-5.88,0-10.67,4.79-10.67,10.67
						v170.67c0,5.88,4.79,10.67,10.67,10.67h77.33c5.88,0,10.67-4.79,10.67-10.67V96C381.33,90.12,376.55,85.33,370.67,85.33
						L370.67,85.33z"/>
				</g>
			</g>
			<g>
				<g>
					<path class="st2" d="M309.33,257.33c-3.68,0-6.67-2.99-6.67-6.67v-13.33c0-3.68,2.99-6.67,6.67-6.67h45.33
						c3.68,0,6.67,2.99,6.67,6.67v13.33c0,3.68-2.99,6.67-6.67,6.67H309.33z"/>
				</g>
				<g>
					<path class="st3" d="M354.67,234.67c1.47,0,2.67,1.19,2.67,2.67v13.33c0,1.47-1.19,2.67-2.67,2.67h-45.33
						c-1.47,0-2.67-1.19-2.67-2.67v-13.33c0-1.47,1.19-2.67,2.67-2.67H354.67 M354.67,226.67h-45.33c-5.88,0-10.67,4.79-10.67,10.67
						v13.33c0,5.88,4.79,10.67,10.67,10.67h45.33c5.88,0,10.67-4.79,10.67-10.67v-13.33C365.33,231.45,360.55,226.67,354.67,226.67
						L354.67,226.67z"/>
				</g>
			</g>
			<g>
				<path class="st3" d="M361.33,109.33h-58.67c-2.21,0-4,1.79-4,4v0c0,2.21,1.79,4,4,4h58.67c2.21,0,4-1.79,4-4v0
					C365.33,111.12,363.54,109.33,361.33,109.33z"/>
			</g>
			<g>
				<path class="st3" d="M361.33,125.33h-58.67c-2.21,0-4,1.79-4,4v0c0,2.21,1.79,4,4,4h58.67c2.21,0,4-1.79,4-4v0
					C365.33,127.12,363.54,125.33,361.33,125.33z"/>
			</g>
			<g>
				<path class="st3" d="M345.33,141.33h-42.67c-2.21,0-4,1.79-4,4v0c0,2.21,1.79,4,4,4h42.67c2.21,0,4-1.79,4-4v0
					C349.33,143.12,347.54,141.33,345.33,141.33z"/>
			</g>
			<g>
				<path class="st3" d="M361.33,165.33h-58.67c-2.21,0-4,1.79-4,4v0c0,2.21,1.79,4,4,4h58.67c2.21,0,4-1.79,4-4v0
					C365.33,167.12,363.54,165.33,361.33,165.33z"/>
			</g>
			<g>
				<path class="st3" d="M361.33,181.33h-58.67c-2.21,0-4,1.79-4,4v0c0,2.21,1.79,4,4,4h58.67c2.21,0,4-1.79,4-4v0
					C365.33,183.12,363.54,181.33,361.33,181.33z"/>
			</g>
			<g>
				<path class="st3" d="M334.67,205.33h-32c-2.21,0-4,1.79-4,4v0c0,2.21,1.79,4,4,4h32c2.21,0,4-1.79,4-4v0
					C338.67,207.12,336.88,205.33,334.67,205.33z"/>
			</g>
		</g>
	</g>
</g>
</svg>
