<?xml version="1.0" encoding="utf-8"?>
<!-- Generator: Adobe Illustrator 26.0.2, SVG Export Plug-In . SVG Version: 6.00 Build 0)  -->
<svg version="1.1" id="email-marketing-illustration-03"
	 xmlns="http://www.w3.org/2000/svg" xmlns:xlink="http://www.w3.org/1999/xlink" x="0px" y="0px" viewBox="0 0 400 400"
	 style="enable-background:new 0 0 400 400;" xml:space="preserve">
<style type="text/css">
	.st0{fill:none;}
	.st1{fill:#FFD886;}
	.st2{fill:#515979;}
	.st3{fill:#FBB040;}
	.st4{fill:#9E8271;}
	.st5{fill:#FFE8B6;}
	.st6{fill:#EF7D7D;}
	.st7{fill:#FFC369;}
	.st8{fill:#D8EBFB;}
	.st9{fill:#ACC9DB;}
	.st10{fill:#FFFFFF;}
</style>
<rect class="st0" width="400" height="400"/>
<g>
	<g>
		<g>
			<path class="st1" d="M196,153.33c-16.91,0-30.67-13.76-30.67-30.67V84c0-2.21,1.79-4,4-4h40c2.21,0,4,1.79,4,4v8
				c0,2.21-1.79,4-4,4h-28v25.33c0,8.82,7.18,16,16,16h12c2.21,0,4,1.79,4,4v8c0,2.21-1.79,4-4,4H196z"/>
		</g>
		<g>
			<path class="st2" d="M209.33,84v8h-32v29.33c0,11.05,8.95,20,20,20h12v8H196c-14.73,0-26.67-11.94-26.67-26.67V84H209.33
				 M209.33,76h-40c-4.42,0-8,3.58-8,8v38.67c0,19.12,15.55,34.67,34.67,34.67h13.33c4.42,0,8-3.58,8-8v-8c0-4.42-3.58-8-8-8h-12
				c-6.62,0-12-5.38-12-12V100h24c4.42,0,8-3.58,8-8v-8C217.33,79.58,213.75,76,209.33,76L209.33,76z"/>
		</g>
	</g>
	<g>
		<g>
			<rect x="193.33" y="84" class="st3" width="16" height="8"/>
		</g>
		<g>
			<path class="st3" d="M209.33,141.33h-12c-0.43,0-0.85-0.04-1.28-0.06c0.76,2.76,1.68,5.45,2.74,8.06h10.53V141.33z"/>
		</g>
	</g>
	<g>
		<g>
			<path class="st1" d="M342.67,153.33c-2.21,0-4-1.79-4-4v-8c0-2.21,1.79-4,4-4h12c8.82,0,16-7.18,16-16V96h-28c-2.21,0-4-1.79-4-4
				v-8c0-2.21,1.79-4,4-4h40c2.21,0,4,1.79,4,4v38.67c0,16.91-13.76,30.67-30.67,30.67H342.67z"/>
		</g>
		<g>
			<path class="st2" d="M382.67,84v38.67c0,14.73-11.94,26.67-26.67,26.67h-13.33v-8h12c11.05,0,20-8.95,20-20V92h-32v-8H382.67
				 M382.67,76h-40c-4.42,0-8,3.58-8,8v8c0,4.42,3.58,8,8,8h24v21.33c0,6.62-5.38,12-12,12h-12c-4.42,0-8,3.58-8,8v8
				c0,4.42,3.58,8,8,8H356c19.12,0,34.67-15.55,34.67-34.67V84C390.67,79.58,387.08,76,382.67,76L382.67,76z"/>
		</g>
	</g>
	<g>
		<g>
			<rect x="342.67" y="84" class="st3" width="16" height="8"/>
		</g>
		<g>
			<path class="st3" d="M342.67,141.33h12c0.43,0,0.85-0.04,1.28-0.06c-0.76,2.76-1.68,5.45-2.74,8.06h-10.53V141.33z"/>
		</g>
	</g>
	<g>
		<g>
			<path class="st1" d="M268,237.33c-2.21,0-4-1.79-4-4V196c0-2.21,1.79-4,4-4h16c2.21,0,4,1.79,4,4v37.33c0,2.21-1.79,4-4,4H268z"
				/>
		</g>
		<g>
			<g>
				<path class="st2" d="M284,196v37.33h-16V196H284 M284,188h-16c-4.42,0-8,3.58-8,8v37.33c0,4.42,3.58,8,8,8h16c4.42,0,8-3.58,8-8
					V196C292,191.58,288.42,188,284,188L284,188z"/>
			</g>
		</g>
	</g>
	<g>
		<rect x="268" y="188" class="st3" width="16" height="21.33"/>
	</g>
	<g>
		<g>
			<path class="st4" d="M226.67,296c-2.21,0-4-1.79-4-4v-56c0-2.21,1.79-4,4-4h98.67c2.21,0,4,1.79,4,4v56c0,2.21-1.79,4-4,4H226.67
				z"/>
		</g>
		<g>
			<g>
				<path class="st2" d="M325.33,236v56h-98.67v-56H325.33 M325.33,228h-98.67c-4.42,0-8,3.58-8,8v56c0,4.42,3.58,8,8,8h98.67
					c4.42,0,8-3.58,8-8v-56C333.33,231.58,329.75,228,325.33,228L325.33,228z"/>
			</g>
		</g>
	</g>
	<g>
		<g>
			<path class="st1" d="M240,281.33c-1.47,0-2.67-1.19-2.67-2.67v-29.33c0-1.47,1.19-2.67,2.67-2.67h72c1.47,0,2.67,1.19,2.67,2.67
				v29.33c0,1.47-1.19,2.67-2.67,2.67H240z"/>
		</g>
		<g>
			<g>
				<path class="st2" d="M312,249.33v29.33h-72v-29.33H312 M312,244h-72c-2.95,0-5.33,2.39-5.33,5.33v29.33
					c0,2.95,2.39,5.33,5.33,5.33h72c2.95,0,5.33-2.39,5.33-5.33v-29.33C317.33,246.39,314.95,244,312,244L312,244z"/>
			</g>
		</g>
	</g>
	<g>
		<g>
			<path class="st1" d="M276,192c-38.97,0-70.67-31.7-70.67-70.67V54.67c0-2.21,1.79-4,4-4h133.33c2.21,0,4,1.79,4,4v66.67
				C346.67,160.3,314.97,192,276,192z"/>
		</g>
		<g>
			<path class="st2" d="M342.67,54.67v66.67c0,36.82-29.85,66.67-66.67,66.67h0c-36.82,0-66.67-29.85-66.67-66.67V54.67H342.67
				 M342.67,46.67H209.33c-4.42,0-8,3.58-8,8v66.67c0,41.17,33.5,74.67,74.67,74.67c41.17,0,74.67-33.5,74.67-74.67V54.67
				C350.67,50.25,347.08,46.67,342.67,46.67L342.67,46.67z"/>
		</g>
	</g>
	<g>
		<path class="st2" d="M258.81,259.24l-3,9.71h-2.04l-1.83-6.02c-0.04-0.09-0.07-0.2-0.1-0.31s-0.06-0.23-0.09-0.36
			c-0.03,0.12-0.06,0.24-0.09,0.36s-0.06,0.22-0.1,0.31l-1.85,6.02h-2.04l-3-9.71h1.89c0.2,0,0.36,0.04,0.49,0.13
			c0.13,0.09,0.22,0.21,0.26,0.35l1.33,5.07c0.04,0.16,0.08,0.34,0.12,0.52c0.04,0.19,0.08,0.39,0.12,0.59
			c0.08-0.42,0.18-0.79,0.29-1.11l1.57-5.07c0.04-0.12,0.12-0.24,0.26-0.34s0.29-0.15,0.48-0.15h0.67c0.2,0,0.35,0.04,0.47,0.14
			c0.12,0.09,0.21,0.21,0.27,0.35l1.56,5.07c0.11,0.31,0.21,0.67,0.29,1.06c0.04-0.2,0.07-0.39,0.11-0.56
			c0.04-0.17,0.08-0.34,0.12-0.5l1.33-5.07c0.04-0.13,0.12-0.24,0.25-0.34c0.13-0.1,0.29-0.15,0.48-0.15H258.81z"/>
		<path class="st2" d="M262.05,268.96h-2.27v-9.71h2.27V268.96z"/>
		<path class="st2" d="M272.41,259.24v9.71h-1.17c-0.17,0-0.32-0.03-0.44-0.08c-0.12-0.06-0.23-0.15-0.35-0.29l-4.58-5.79
			c0.02,0.17,0.03,0.34,0.04,0.5c0.01,0.16,0.01,0.32,0.01,0.46v5.21h-1.99v-9.71h1.19c0.1,0,0.18,0,0.25,0.01s0.13,0.03,0.18,0.05
			c0.05,0.02,0.1,0.06,0.15,0.1c0.05,0.04,0.1,0.1,0.17,0.18l4.62,5.83c-0.02-0.19-0.04-0.37-0.05-0.54
			c-0.01-0.17-0.01-0.34-0.01-0.5v-5.14H272.41z"/>
		<path class="st2" d="M284.11,261.86l-0.16,0.84c-0.04,0.21-0.13,0.36-0.26,0.46c-0.14,0.1-0.35,0.14-0.64,0.14h-0.42l-0.27,1.57
			h0.72c0.21,0,0.36,0.06,0.45,0.18c0.09,0.12,0.11,0.33,0.06,0.62l-0.11,0.64h-1.32l-0.47,2.63h-0.96c-0.09,0-0.18-0.02-0.26-0.07
			s-0.15-0.1-0.21-0.18c-0.05-0.08-0.09-0.16-0.12-0.26c-0.02-0.1-0.02-0.2,0-0.31l0.32-1.81h-1.1l-0.33,1.91
			c-0.02,0.13-0.06,0.24-0.12,0.33c-0.06,0.09-0.13,0.17-0.21,0.22c-0.08,0.06-0.17,0.1-0.27,0.13c-0.1,0.03-0.2,0.04-0.31,0.04
			h-0.92l0.47-2.63h-0.59c-0.21,0-0.36-0.06-0.45-0.18c-0.09-0.12-0.11-0.33-0.06-0.62l0.11-0.64h1.19l0.27-1.57h-1.33l0.16-0.84
			c0.04-0.2,0.13-0.35,0.26-0.45c0.14-0.1,0.35-0.15,0.64-0.15h0.45l0.35-1.95c0.04-0.21,0.14-0.37,0.3-0.49
			c0.16-0.12,0.35-0.18,0.56-0.18h0.95l-0.47,2.62h1.11l0.47-2.62h0.92c0.11,0,0.2,0.02,0.29,0.05c0.09,0.04,0.16,0.08,0.22,0.14
			c0.06,0.06,0.1,0.13,0.13,0.21c0.03,0.08,0.03,0.17,0.01,0.27l-0.35,1.94H284.11z M280.93,263.3h-1.11l-0.27,1.57h1.11
			L280.93,263.3z"/>
		<path class="st2" d="M288.3,265.28c0.06-0.08,0.12-0.15,0.18-0.22c0.06-0.07,0.11-0.14,0.16-0.21c-0.41,0.22-0.87,0.33-1.39,0.33
			c-0.32,0-0.63-0.06-0.95-0.17c-0.32-0.11-0.6-0.29-0.86-0.52c-0.26-0.23-0.46-0.52-0.62-0.87c-0.16-0.35-0.24-0.77-0.24-1.25
			c0-0.44,0.08-0.86,0.24-1.25c0.16-0.39,0.39-0.73,0.69-1.03c0.3-0.29,0.66-0.53,1.08-0.7s0.88-0.26,1.4-0.26
			c0.52,0,0.99,0.08,1.41,0.24c0.41,0.16,0.76,0.39,1.05,0.67c0.29,0.29,0.51,0.63,0.66,1.03c0.15,0.4,0.23,0.84,0.23,1.32
			c0,0.64-0.1,1.2-0.29,1.71c-0.19,0.5-0.45,0.98-0.77,1.42l-2.09,2.97c-0.09,0.13-0.23,0.24-0.42,0.33
			c-0.19,0.09-0.4,0.13-0.64,0.13h-1.91L288.3,265.28z M286.65,262.21c0,0.97,0.45,1.45,1.35,1.45c0.44,0,0.78-0.13,1.02-0.4
			c0.24-0.27,0.36-0.62,0.36-1.06c0-0.24-0.04-0.44-0.1-0.62c-0.07-0.18-0.16-0.33-0.29-0.45c-0.12-0.12-0.27-0.21-0.44-0.27
			c-0.17-0.06-0.36-0.09-0.57-0.09c-0.21,0-0.39,0.04-0.56,0.11c-0.16,0.07-0.3,0.17-0.41,0.3c-0.11,0.13-0.2,0.28-0.26,0.46
			C286.68,261.82,286.65,262.01,286.65,262.21z"/>
		<path class="st2" d="M292.48,262.02c0.07-0.48,0.21-0.91,0.41-1.27c0.2-0.36,0.45-0.66,0.75-0.9c0.3-0.24,0.64-0.42,1.03-0.54
			c0.39-0.12,0.8-0.18,1.25-0.18c0.48,0,0.91,0.07,1.28,0.2c0.37,0.14,0.69,0.32,0.95,0.55c0.26,0.23,0.45,0.5,0.59,0.8
			c0.13,0.3,0.2,0.62,0.2,0.96c0,0.31-0.03,0.58-0.09,0.81c-0.06,0.23-0.15,0.44-0.28,0.61c-0.12,0.17-0.27,0.32-0.45,0.43
			c-0.18,0.12-0.39,0.22-0.62,0.3c1.08,0.38,1.61,1.11,1.61,2.2c0,0.52-0.09,0.96-0.28,1.35c-0.19,0.38-0.44,0.7-0.75,0.95
			c-0.31,0.25-0.68,0.44-1.09,0.57c-0.41,0.13-0.85,0.19-1.29,0.19c-0.46,0-0.87-0.05-1.23-0.15c-0.36-0.1-0.68-0.26-0.96-0.47
			s-0.53-0.48-0.74-0.81c-0.21-0.33-0.39-0.72-0.55-1.17l0.92-0.37c0.24-0.09,0.46-0.12,0.67-0.07c0.2,0.04,0.35,0.15,0.44,0.31
			c0.2,0.37,0.41,0.64,0.64,0.8c0.23,0.17,0.49,0.25,0.79,0.25c0.23,0,0.43-0.04,0.6-0.12c0.17-0.08,0.31-0.18,0.43-0.3
			s0.2-0.26,0.26-0.42s0.09-0.31,0.09-0.47c0-0.21-0.01-0.4-0.04-0.56c-0.03-0.17-0.11-0.31-0.24-0.43
			c-0.13-0.12-0.33-0.21-0.6-0.28c-0.27-0.06-0.64-0.1-1.12-0.1v-1.43c0.4,0,0.73-0.03,0.98-0.09c0.25-0.06,0.44-0.15,0.58-0.26
			c0.14-0.11,0.23-0.24,0.27-0.4c0.04-0.16,0.07-0.33,0.07-0.51c0-0.38-0.09-0.68-0.28-0.88c-0.18-0.21-0.47-0.31-0.84-0.31
			c-0.31,0-0.57,0.08-0.78,0.24c-0.21,0.16-0.36,0.36-0.44,0.6c-0.09,0.24-0.21,0.41-0.37,0.49c-0.15,0.08-0.37,0.1-0.65,0.05
			L292.48,262.02z"/>
		<path class="st2" d="M306.98,259.24v0.87c0,0.26-0.03,0.46-0.09,0.62c-0.06,0.16-0.11,0.29-0.17,0.4l-3.37,7.15
			c-0.09,0.18-0.23,0.35-0.4,0.48c-0.17,0.13-0.4,0.2-0.68,0.2h-1.51l3.47-6.95c0.1-0.19,0.21-0.36,0.31-0.51
			c0.1-0.15,0.22-0.3,0.35-0.44h-4.27c-0.06,0-0.12-0.01-0.18-0.04c-0.06-0.02-0.1-0.06-0.15-0.1c-0.04-0.04-0.08-0.09-0.1-0.15
			c-0.03-0.05-0.04-0.11-0.04-0.17v-1.36H306.98z"/>
	</g>
	<g>
		<path class="st3" d="M276,181.33c-36.82,0-66.67-29.85-66.67-66.67v6.67c0,36.82,29.85,66.67,66.67,66.67s66.67-29.85,66.67-66.67
			v-6.67C342.67,151.49,312.82,181.33,276,181.33z"/>
	</g>
	<g>
		<rect x="209.33" y="54.67" class="st5" width="133.33" height="5.33"/>
	</g>
	<g>
		<g>
			<g>
				<g>
					<path class="st2" d="M276,154.25c-15.07,0-27.33-12.26-27.33-27.33c0-1.84,1.49-3.33,3.33-3.33h48c1.84,0,3.33,1.49,3.33,3.33
						C303.33,141.99,291.07,154.25,276,154.25z"/>
				</g>
				<g>
					<path class="st2" d="M300,126.91L300,126.91 M300,126.91c0,13.25-10.75,24-24,24s-24-10.75-24-24H300 M300.01,120.25
						L300.01,120.25H252c-3.68,0-6.67,2.98-6.67,6.67c0,16.91,13.76,30.67,30.67,30.67c16.83,0,30.54-13.63,30.67-30.43
						c0-0.08,0-0.16,0-0.24C306.67,123.23,303.69,120.25,300.01,120.25L300.01,120.25z M300,133.58L300,133.58L300,133.58
						L300,133.58z"/>
				</g>
			</g>
			<g>
				<g>
					<ellipse class="st6" cx="276" cy="142.91" rx="17.85" ry="8"/>
				</g>
			</g>
		</g>
		<g>
			<path class="st2" d="M288.19,82.29c4.9-4.15,12.66-4.91,17.98-1.06c2.44,1.74,6.53,6.37,2.72,8.53
				c-0.98,0.47-1.99,0.22-2.85-0.28c-4.15-2.57-8.35-3.34-13.15-2.69c-1.03,0.09-2.01,0.24-2.98,0.19
				C287.47,87.02,286.33,83.8,288.19,82.29L288.19,82.29z"/>
		</g>
		<g>
			<path class="st2" d="M261.28,86.98c-3.87-0.37-8.02-0.86-11.66,0.68c-1.27,0.43-2.68,1.36-4.16,2.06
				c-2.24,1.17-4.76-1.33-3.67-3.57c2.54-6.18,10.5-8.8,16.6-6.76c2.6,0.86,8.26,3.12,5.73,6.65
				C263.4,86.93,262.3,87.04,261.28,86.98L261.28,86.98z"/>
		</g>
		<g>
			<g>
				<path class="st2" d="M265.36,111.58c-1.84,0-3.33-1.49-3.33-3.33c0-3.31-2.69-6-6-6c-3.31,0-6,2.69-6,6
					c0,1.84-1.49,3.33-3.33,3.33c-1.84,0-3.33-1.49-3.33-3.33c0-6.98,5.68-12.67,12.67-12.67c6.98,0,12.67,5.68,12.67,12.67
					C268.7,110.09,267.2,111.58,265.36,111.58z"/>
			</g>
		</g>
		<g>
			<g>
				<path class="st2" d="M305.3,111.58c-1.84,0-3.33-1.49-3.33-3.33c0-3.31-2.69-6-6-6s-6,2.69-6,6c0,1.84-1.49,3.33-3.33,3.33
					s-3.33-1.49-3.33-3.33c0-6.98,5.68-12.67,12.67-12.67s12.67,5.68,12.67,12.67C308.64,110.09,307.14,111.58,305.3,111.58z"/>
			</g>
		</g>
	</g>
	<g>
		<g>
			<g>
				<circle class="st7" cx="318.67" cy="128" r="2.67"/>
			</g>
		</g>
		<g>
			<g>
				<circle class="st7" cx="329.33" cy="128" r="2.67"/>
			</g>
		</g>
		<g>
			<g>
				<circle class="st7" cx="324" cy="117.33" r="2.67"/>
			</g>
		</g>
	</g>
	<g>
		<g>
			<g>
				<circle class="st7" cx="222.67" cy="128" r="2.67"/>
			</g>
		</g>
		<g>
			<g>
				<circle class="st7" cx="233.33" cy="128" r="2.67"/>
			</g>
		</g>
		<g>
			<g>
				<circle class="st7" cx="228" cy="117.33" r="2.67"/>
			</g>
		</g>
	</g>
</g>
<g>
	<g>
		<path class="st1" d="M189.2,20.53c-3.53,0-6.4-2.87-6.4-6.4c0-1.18-0.96-2.13-2.13-2.13c-1.18,0-2.13,0.96-2.13,2.13
			c0,3.53-2.87,6.4-6.4,6.4c-1.18,0-2.13,0.96-2.13,2.13c0,1.18,0.96,2.13,2.13,2.13c3.53,0,6.4,2.87,6.4,6.4
			c0,1.18,0.96,2.13,2.13,2.13c1.18,0,2.13-0.96,2.13-2.13c0-3.53,2.87-6.4,6.4-6.4c1.18,0,2.13-0.96,2.13-2.13
			C191.33,21.49,190.38,20.53,189.2,20.53z"/>
	</g>
	<g>
		<path class="st1" d="M372.93,273.6c-3.97,0-7.2-3.23-7.2-7.2c0-1.33-1.07-2.4-2.4-2.4c-1.33,0-2.4,1.07-2.4,2.4
			c0,3.97-3.23,7.2-7.2,7.2c-1.33,0-2.4,1.07-2.4,2.4s1.07,2.4,2.4,2.4c3.97,0,7.2,3.23,7.2,7.2c0,1.33,1.07,2.4,2.4,2.4
			c1.33,0,2.4-1.07,2.4-2.4c0-3.97,3.23-7.2,7.2-7.2c1.33,0,2.4-1.07,2.4-2.4S374.26,273.6,372.93,273.6z"/>
	</g>
	<g>
		<path class="st1" d="M78.27,374.93c-3.97,0-7.2-3.23-7.2-7.2c0-1.33-1.07-2.4-2.4-2.4c-1.33,0-2.4,1.07-2.4,2.4
			c0,3.97-3.23,7.2-7.2,7.2c-1.33,0-2.4,1.07-2.4,2.4c0,1.33,1.07,2.4,2.4,2.4c3.97,0,7.2,3.23,7.2,7.2c0,1.33,1.07,2.4,2.4,2.4
			c1.33,0,2.4-1.07,2.4-2.4c0-3.97,3.23-7.2,7.2-7.2c1.33,0,2.4-1.07,2.4-2.4C80.67,376.01,79.59,374.93,78.27,374.93z"/>
	</g>
	<g>
		<circle class="st1" cx="368.67" cy="30.67" r="4"/>
	</g>
	<g>
		<circle class="st1" cx="278.67" cy="332.67" r="3.33"/>
	</g>
	<g>
		<circle class="st1" cx="336" cy="354" r="3.33"/>
	</g>
	<g>
		<circle class="st1" cx="34.67" cy="55.33" r="6"/>
	</g>
	<g>
		<circle class="st1" cx="111.33" cy="82.67" r="5.33"/>
	</g>
	<g>
		<circle class="st1" cx="45.33" cy="136.67" r="3.33"/>
	</g>
	<g>
		<circle class="st1" cx="351.33" cy="198.67" r="4"/>
	</g>
	<path class="st1" d="M120.67,140h-9.33v-9.33c0-2.21-1.79-4-4-4s-4,1.79-4,4V140H94c-2.21,0-4,1.79-4,4s1.79,4,4,4h9.33v9.33
		c0,2.21,1.79,4,4,4s4-1.79,4-4V148h9.33c2.21,0,4-1.79,4-4S122.88,140,120.67,140z"/>
</g>
<g>
	<g>
		<g>
			<g>
				<path class="st8" d="M26.67,350.67c-6.62,0-12-5.38-12-12V221.33c0-6.62,5.38-12,12-12h184c6.62,0,12,5.38,12,12v117.33
					c0,6.62-5.38,12-12,12H26.67z"/>
			</g>
			<g>
				<g>
					<path class="st2" d="M210.67,213.33c4.42,0,8,3.58,8,8v117.33c0,4.42-3.58,8-8,8h-184c-4.42,0-8-3.58-8-8V221.33
						c0-4.42,3.58-8,8-8H210.67 M210.67,205.33h-184c-8.82,0-16,7.18-16,16v117.33c0,8.82,7.18,16,16,16h184c8.82,0,16-7.18,16-16
						V221.33C226.67,212.51,219.49,205.33,210.67,205.33L210.67,205.33z"/>
				</g>
			</g>
		</g>
		<g>
			<g>
				<path class="st9" d="M110.23,309.97l-91.56-96.64l0,21.7l80.38,85.74c5.27,5.62,14.19,5.62,19.45,0l7.6-8.1
					C120.96,315.35,114.43,314.45,110.23,309.97z"/>
			</g>
		</g>
		<g>
			<path class="st2" d="M118.67,317.84c-4.77,0-9.38-2-12.65-5.48l-90.27-96.29c-1.51-1.61-1.43-4.14,0.18-5.65
				c1.61-1.51,4.14-1.43,5.65,0.18l90.27,96.29c1.78,1.9,4.2,2.95,6.81,2.95s5.03-1.05,6.81-2.95l90.27-96.29
				c1.51-1.61,4.04-1.7,5.65-0.18c1.61,1.51,1.69,4.04,0.18,5.65l-90.27,96.29C128.05,315.84,123.44,317.84,118.67,317.84z"/>
		</g>
		<g>
			<path class="st2" d="M218.67,350.67c-1.1,0-2.18-0.45-2.97-1.32l-60-66.67c-1.48-1.64-1.34-4.17,0.3-5.65
				c1.64-1.48,4.17-1.35,5.65,0.3l60,66.67c1.48,1.64,1.35,4.17-0.3,5.65C220.58,350.33,219.62,350.67,218.67,350.67z"/>
		</g>
		<g>
			<path class="st2" d="M18.67,350.67c-0.95,0-1.91-0.34-2.67-1.03c-1.64-1.48-1.78-4.01-0.3-5.65l60-66.67
				c1.48-1.64,4.01-1.78,5.65-0.3c1.64,1.48,1.78,4.01,0.3,5.65l-60,66.67C20.85,350.22,19.76,350.67,18.67,350.67z"/>
		</g>
	</g>
	<g>
		<g>
			<g>
				<path class="st2" d="M142,259.4c-0.43,0-0.86-0.1-1.26-0.32c-2.52-1.35-6.95-1.35-9.48,0c-1.3,0.7-2.91,0.21-3.61-1.09
					c-0.7-1.3-0.21-2.91,1.09-3.61c4.07-2.18,10.45-2.18,14.52,0c1.3,0.7,1.79,2.31,1.09,3.61C143.87,258.89,142.95,259.4,142,259.4
					z"/>
			</g>
			<g>
				<g>
					<circle class="st2" cx="136" cy="247.74" r="9.33"/>
				</g>
				<g>
					<circle class="st10" cx="138.33" cy="247.74" r="2.33"/>
				</g>
			</g>
			<g>
				<path class="st2" d="M131.77,225.38c5.18-2.62,12.12-1.47,15.82,3.16c1.9,2.27,4.02,7.44-0.07,8.35
					c-1.01,0.16-1.85-0.33-2.56-0.95c-3.02-2.81-6.12-4.27-10.15-4.96c-0.97-0.18-1.93-0.4-2.79-0.78
					C129.9,229.48,129.76,226.3,131.77,225.38L131.77,225.38z"/>
			</g>
			<g>
				<path class="st2" d="M107.33,259.4c-0.43,0-0.86-0.1-1.26-0.32c-2.52-1.35-6.95-1.35-9.48,0c-1.3,0.7-2.91,0.21-3.61-1.09
					c-0.7-1.3-0.21-2.91,1.09-3.61c4.07-2.18,10.45-2.18,14.52,0c1.3,0.7,1.79,2.31,1.09,3.61
					C109.2,258.89,108.28,259.4,107.33,259.4z"/>
			</g>
			<g>
				<g>
					<circle class="st2" cx="101.33" cy="247.74" r="9.33"/>
				</g>
				<g>
					<circle class="st10" cx="103.67" cy="247.74" r="2.33"/>
				</g>
			</g>
			<g>
				<path class="st2" d="M104.33,230.57c-2.12,0.53-4.75,0.92-6.7,1.81c-2.12,0.87-3.38,1.99-5.26,3.56
					c-1.23,1.23-3.22,1.37-4.34-0.08c-0.47-0.6-0.64-1.34-0.55-2.04c0.25-1.83,0.95-3.72,2.27-5.27c3.05-3.88,8.56-5.29,13.18-4.14
					c2.14,0.48,5.07,1.76,3.81,4.52C106.3,229.9,105.24,230.25,104.33,230.57L104.33,230.57z"/>
			</g>
		</g>
	</g>
	<g>
		<g>
			<g>
				<g>
					<path class="st2" d="M118.67,286.41c-10.29,0-18.67-8.37-18.67-18.67c0-1.47,1.19-2.67,2.67-2.67h32
						c1.47,0,2.67,1.19,2.67,2.67C137.33,278.04,128.96,286.41,118.67,286.41z"/>
				</g>
				<g>
					<path class="st2" d="M134.67,267.74L134.67,267.74 M134.67,267.74c0,8.84-7.16,16-16,16s-16-7.16-16-16H134.67 M134.67,262.41
						L134.67,262.41l-32.01,0c-2.95,0-5.33,2.39-5.33,5.33c0,11.76,9.57,21.33,21.33,21.33c11.69,0,21.21-9.45,21.33-21.11
						c0-0.07,0-0.15,0-0.22C140,264.8,137.62,262.41,134.67,262.41L134.67,262.41z M134.67,273.07L134.67,273.07L134.67,273.07
						L134.67,273.07z"/>
				</g>
			</g>
			<g>
				<g>
					<ellipse class="st6" cx="118.67" cy="278.41" rx="11.9" ry="5.33"/>
				</g>
			</g>
		</g>
	</g>
</g>
</svg>
