<?xml version="1.0" encoding="utf-8"?>
<!-- Generator: Adobe Illustrator 26.0.2, SVG Export Plug-In . SVG Version: 6.00 Build 0)  -->
<svg version="1.1" id="Google_x5F_Hub-Google_x5F_Search_x5F_Network"
	 xmlns="http://www.w3.org/2000/svg" xmlns:xlink="http://www.w3.org/1999/xlink" x="0px" y="0px" viewBox="0 0 400 400"
	 style="enable-background:new 0 0 400 400;" xml:space="preserve">
<style type="text/css">
	.st0{fill:none;}
	.st1{fill:#FFD886;}
	.st2{fill:#D2F4FD;}
	.st3{fill:#515979;}
	.st4{fill:#6ADAF7;}
	.st5{fill:#3CC3F7;}
	.st6{fill:#667683;}
	.st7{fill:#FFFFFF;}
	.st8{fill:#EF7D7D;}
	.st9{fill:#FFE8A0;}
	.st10{fill:#7DDF96;}
	.st11{fill:#D8F5DF;}
	.st12{fill:#3CB48C;}
	.st13{fill:#FBBD04;}
	.st14{fill:#438EDC;}
	.st15{fill:#34A952;}
	.st16{fill:#00C853;}
	.st17{fill:#2196F3;}
	.st18{fill:#D8EBFB;}
	.st19{fill:#FDE1D9;}
</style>
<g>
	<rect x="0" y="0" class="st0" width="400" height="400"/>
</g>
<g>
	<g>
		<path class="st1" d="M373.13,172.56c2.98,0,5.4-2.42,5.4-5.4c0-0.99,0.81-1.8,1.8-1.8c0.99,0,1.8,0.81,1.8,1.8
			c0,2.98,2.42,5.4,5.4,5.4c0.99,0,1.8,0.81,1.8,1.8s-0.81,1.8-1.8,1.8c-2.98,0-5.4,2.42-5.4,5.4c0,0.99-0.81,1.8-1.8,1.8
			c-0.99,0-1.8-0.81-1.8-1.8c0-2.98-2.42-5.4-5.4-5.4c-0.99,0-1.8-0.81-1.8-1.8S372.14,172.56,373.13,172.56z"/>
	</g>
</g>
<g>
	<circle class="st1" cx="24.94" cy="312.64" r="5.01"/>
</g>
<g>
	<circle class="st1" cx="180.44" cy="99.36" r="5.01"/>
</g>
<g>
	<circle class="st1" cx="216.44" cy="302.64" r="5.01"/>
</g>
<g>
	<circle class="st1" cx="360.33" cy="254.21" r="5.01"/>
</g>
<g>
	<g>
		<circle class="st1" cx="164.94" cy="120.29" r="3"/>
	</g>
</g>
<g>
	<g>
		<circle class="st1" cx="188.94" cy="41.29" r="3"/>
	</g>
</g>
<g>
	<g>
		<circle class="st1" cx="216.44" cy="66.06" r="3"/>
	</g>
</g>
<g>
	<g>
		<circle class="st1" cx="366.33" cy="204.36" r="3"/>
	</g>
</g>
<g>
	<g>
		<circle class="st1" cx="338.9" cy="214.36" r="3"/>
	</g>
</g>
<g>
	<g>
		<circle class="st1" cx="241.44" cy="242.65" r="3"/>
	</g>
</g>
<g>
	<g>
		<circle class="st1" cx="210.48" cy="320.64" r="3"/>
	</g>
</g>
<g>
	<g>
		<circle class="st1" cx="24.94" cy="246.64" r="3"/>
	</g>
</g>
<g>
	<path class="st1" d="M228.48,22.12h-6v-6c0-1.66-1.34-3-3-3s-3,1.34-3,3v6h-6c-1.66,0-3,1.34-3,3s1.34,3,3,3h6v6c0,1.66,1.34,3,3,3
		s3-1.34,3-3v-6h6c1.66,0,3-1.34,3-3S230.13,22.12,228.48,22.12z"/>
	<path class="st1" d="M225.44,256.22h-6v-6c0-1.66-1.34-3-3-3s-3,1.34-3,3v6h-6c-1.66,0-3,1.34-3,3s1.34,3,3,3h6v6
		c0,1.66,1.34,3,3,3s3-1.34,3-3v-6h6c1.66,0,3-1.34,3-3S227.1,256.22,225.44,256.22z"/>
</g>
<g>
	<path class="st1" d="M178.69,64.04c-2.17,0-3.94-1.77-3.94-3.94c0-0.72-0.59-1.31-1.31-1.31s-1.31,0.59-1.31,1.31
		c0,2.17-1.77,3.94-3.94,3.94c-0.72,0-1.31,0.59-1.31,1.31s0.59,1.31,1.31,1.31c2.17,0,3.94,1.77,3.94,3.94
		c0,0.72,0.59,1.31,1.31,1.31s1.31-0.59,1.31-1.31c0-2.17,1.77-3.94,3.94-3.94c0.72,0,1.31-0.59,1.31-1.31
		S179.41,64.04,178.69,64.04z"/>
</g>
<g>
	<path class="st1" d="M21.19,283.33c-2.17,0-3.94-1.77-3.94-3.94c0-0.72-0.59-1.31-1.31-1.31c-0.72,0-1.31,0.59-1.31,1.31
		c0,2.17-1.77,3.94-3.94,3.94c-0.72,0-1.31,0.59-1.31,1.31c0,0.72,0.59,1.31,1.31,1.31c2.17,0,3.94,1.77,3.94,3.94
		c0,0.72,0.59,1.31,1.31,1.31c0.72,0,1.31-0.59,1.31-1.31c0-2.17,1.77-3.94,3.94-3.94c0.72,0,1.31-0.59,1.31-1.31
		C22.5,283.92,21.91,283.33,21.19,283.33z"/>
</g>
<g>
	<path class="st1" d="M380.33,222.46c-2.17,0-3.94-1.77-3.94-3.94c0-0.72-0.59-1.31-1.31-1.31c-0.72,0-1.31,0.59-1.31,1.31
		c0,2.17-1.77,3.94-3.94,3.94c-0.72,0-1.31,0.59-1.31,1.31s0.59,1.31,1.31,1.31c2.17,0,3.94,1.77,3.94,3.94
		c0,0.72,0.59,1.31,1.31,1.31c0.72,0,1.31-0.59,1.31-1.31c0-2.17,1.77-3.94,3.94-3.94c0.72,0,1.31-0.59,1.31-1.31
		S381.05,222.46,380.33,222.46z"/>
</g>
<g>
	<g>
		<g>
			<path class="st2" d="M19.94,217.36c-7.17,0-13-5.83-13-13v-170c0-7.17,5.83-13,13-13h111c7.17,0,13,5.83,13,13v170
				c0,7.17-5.83,13-13,13H19.94z"/>
		</g>
		<g>
			<g>
				<path class="st3" d="M130.94,24.36c5.52,0,10,4.48,10,10v170c0,5.52-4.48,10-10,10h-111c-5.52,0-10-4.48-10-10v-170
					c0-5.52,4.48-10,10-10H130.94 M130.94,18.36h-111c-8.82,0-16,7.18-16,16v170c0,8.82,7.18,16,16,16h111c8.82,0,16-7.18,16-16
					v-170C146.94,25.53,139.76,18.36,130.94,18.36L130.94,18.36z"/>
			</g>
		</g>
	</g>
	<g>
		<rect x="9.94" y="107.36" class="st4" width="131" height="62"/>
	</g>
	<g>
		<rect x="9.94" y="107.36" class="st5" width="131" height="4"/>
	</g>
	<g>
		<g>
			<path class="st6" d="M9.94,53.36c-1.66,0-3-1.34-3-3v-16c0-7.17,5.83-13,13-13h111c7.17,0,13,5.83,13,13v16c0,1.66-1.34,3-3,3
				H9.94z"/>
		</g>
		<g>
			<path class="st3" d="M130.94,24.36c5.52,0,10,4.48,10,10v16h-131v-16c0-5.52,4.48-10,10-10H130.94 M130.94,18.36h-111
				c-8.82,0-16,7.18-16,16v16c0,3.31,2.69,6,6,6h131c3.31,0,6-2.69,6-6v-16C146.94,25.53,139.76,18.36,130.94,18.36L130.94,18.36z"
				/>
		</g>
	</g>
	<g>
		<g>
			<path class="st7" d="M84.94,43.36c-3.31,0-6-2.69-6-6s2.69-6,6-6h44c3.31,0,6,2.69,6,6s-2.69,6-6,6H84.94z"/>
		</g>
		<g>
			<g>
				<path class="st3" d="M128.94,34.36c1.66,0,3,1.34,3,3s-1.34,3-3,3h-44c-1.66,0-3-1.34-3-3s1.34-3,3-3H128.94 M128.94,28.36h-44
					c-4.96,0-9,4.04-9,9s4.04,9,9,9h44c4.96,0,9-4.04,9-9S133.9,28.36,128.94,28.36L128.94,28.36z"/>
			</g>
		</g>
	</g>
	<g>
		<g>
			<circle class="st8" cx="21.94" cy="37.36" r="6"/>
		</g>
		<g>
			<g>
				<path class="st3" d="M21.94,34.36c1.66,0,3,1.34,3,3c0,1.66-1.34,3-3,3c-1.66,0-3-1.34-3-3C18.94,35.7,20.28,34.36,21.94,34.36
					 M21.94,28.36c-4.96,0-9,4.04-9,9s4.04,9,9,9s9-4.04,9-9S26.9,28.36,21.94,28.36L21.94,28.36z"/>
			</g>
		</g>
	</g>
	<g>
		<g>
			<circle class="st9" cx="42.94" cy="37.36" r="6"/>
		</g>
		<g>
			<g>
				<path class="st3" d="M42.94,34.36c1.66,0,3,1.34,3,3c0,1.66-1.34,3-3,3c-1.66,0-3-1.34-3-3C39.94,35.7,41.28,34.36,42.94,34.36
					 M42.94,28.36c-4.96,0-9,4.04-9,9s4.04,9,9,9s9-4.04,9-9S47.9,28.36,42.94,28.36L42.94,28.36z"/>
			</g>
		</g>
	</g>
	<g>
		<g>
			<circle class="st10" cx="63.94" cy="37.36" r="6"/>
		</g>
		<g>
			<g>
				<path class="st3" d="M63.94,34.36c1.66,0,3,1.34,3,3c0,1.66-1.34,3-3,3c-1.66,0-3-1.34-3-3C60.94,35.7,62.28,34.36,63.94,34.36
					 M63.94,28.36c-4.96,0-9,4.04-9,9s4.04,9,9,9s9-4.04,9-9S68.9,28.36,63.94,28.36L63.94,28.36z"/>
			</g>
		</g>
	</g>
	<g>
		<g>
			<circle class="st4" cx="103.44" cy="80.36" r="2"/>
		</g>
		<g>
			<circle class="st4" cx="99.44" cy="88.36" r="2"/>
		</g>
		<g>
			<circle class="st4" cx="107.44" cy="88.36" r="2"/>
		</g>
	</g>
	<g>
		<g>
			<circle class="st4" cx="47.44" cy="80.36" r="2"/>
		</g>
		<g>
			<circle class="st4" cx="43.44" cy="88.36" r="2"/>
		</g>
		<g>
			<circle class="st4" cx="51.44" cy="88.36" r="2"/>
		</g>
	</g>
	<g>
		<path class="st3" d="M83.98,62.21c2.76-1.63,6.17-1.74,9.04-0.31c1.55,0.74,4.02,3,2.01,4.55c-0.49,0.35-1.07,0.33-1.62,0.21
			c-1.48-0.27-2.62-0.55-4.07-0.73c-1.47-0.21-3.4-0.28-4.83-0.61C83.03,65.05,82.7,62.93,83.98,62.21L83.98,62.21z"/>
	</g>
	<g>
		<path class="st3" d="M65.98,65.41c-2.03,0.34-4.41,0.43-6.42,0.84c-0.75,0.13-1.6,0.35-2.46,0.47c-0.94,0.15-1.82-0.5-1.97-1.44
			c-0.02-2.54,3.68-4.1,5.82-4.31c2-0.28,8,0.45,6.52,3.57C67.14,65.1,66.56,65.31,65.98,65.41L65.98,65.41z"/>
	</g>
	<g>
		<circle class="st2" cx="32.44" cy="131.86" r="16.5"/>
	</g>
	<g>
		<circle class="st4" cx="32.44" cy="191.86" r="16.5"/>
	</g>
	<g>
		<circle class="st2" cx="75.44" cy="131.86" r="16.5"/>
	</g>
	<g>
		<circle class="st2" cx="118.44" cy="131.86" r="16.5"/>
	</g>
	<g>
		<path class="st5" d="M46.94,164.36h-29c-1.1,0-2-0.9-2-2l0,0c0-1.1,0.9-2,2-2h29c1.1,0,2,0.9,2,2l0,0
			C48.94,163.46,48.05,164.36,46.94,164.36z"/>
	</g>
	<g>
		<path class="st5" d="M46.94,156.36h-29c-1.1,0-2-0.9-2-2l0,0c0-1.1,0.9-2,2-2h29c1.1,0,2,0.9,2,2l0,0
			C48.94,155.46,48.05,156.36,46.94,156.36z"/>
	</g>
	<g>
		<path class="st5" d="M89.94,164.36h-29c-1.1,0-2-0.9-2-2l0,0c0-1.1,0.9-2,2-2h29c1.1,0,2,0.9,2,2l0,0
			C91.94,163.46,91.05,164.36,89.94,164.36z"/>
	</g>
	<g>
		<path class="st5" d="M89.94,156.36h-29c-1.1,0-2-0.9-2-2l0,0c0-1.1,0.9-2,2-2h29c1.1,0,2,0.9,2,2l0,0
			C91.94,155.46,91.05,156.36,89.94,156.36z"/>
	</g>
	<g>
		<path class="st5" d="M132.94,193.36h-76c-1.1,0-2-0.9-2-2l0,0c0-1.1,0.9-2,2-2h76c1.1,0,2,0.9,2,2l0,0
			C134.94,192.46,134.05,193.36,132.94,193.36z"/>
	</g>
	<g>
		<path class="st5" d="M102.94,201.36h-46c-1.1,0-2-0.9-2-2l0,0c0-1.1,0.9-2,2-2h46c1.1,0,2,0.9,2,2l0,0
			C104.94,200.46,104.05,201.36,102.94,201.36z"/>
	</g>
	<g>
		<path class="st5" d="M132.94,185.36h-76c-1.1,0-2-0.9-2-2l0,0c0-1.1,0.9-2,2-2h76c1.1,0,2,0.9,2,2l0,0
			C134.94,184.46,134.05,185.36,132.94,185.36z"/>
	</g>
	<g>
		<path class="st5" d="M132.94,164.36h-29c-1.1,0-2-0.9-2-2l0,0c0-1.1,0.9-2,2-2h29c1.1,0,2,0.9,2,2l0,0
			C134.94,163.46,134.05,164.36,132.94,164.36z"/>
	</g>
	<g>
		<path class="st5" d="M132.94,156.36h-29c-1.1,0-2-0.9-2-2l0,0c0-1.1,0.9-2,2-2h29c1.1,0,2,0.9,2,2l0,0
			C134.94,155.46,134.05,156.36,132.94,156.36z"/>
	</g>
	<g>
		<path class="st3" d="M87.45,83.36L87.45,83.36H63.44c-2.21,0-4,1.79-4,4c0,8.82,7.18,16,16,16c8.77,0,15.91-7.09,16-15.84
			c0-0.05,0-0.11,0-0.16C91.44,85.15,89.65,83.36,87.45,83.36z"/>
		<g>
			<ellipse class="st8" cx="75.44" cy="95.36" rx="8.93" ry="4"/>
		</g>
	</g>
	<g>
		<g>
			<path class="st3" d="M92.44,78.86c-1.1,0-2-0.9-2-2c0-1.65-1.35-3-3-3s-3,1.35-3,3c0,1.1-0.9,2-2,2s-2-0.9-2-2c0-3.86,3.14-7,7-7
				s7,3.14,7,7C94.44,77.96,93.55,78.86,92.44,78.86z"/>
		</g>
	</g>
	<g>
		<g>
			<path class="st3" d="M68.44,78.86c-1.1,0-2-0.9-2-2c0-1.65-1.35-3-3-3s-3,1.35-3,3c0,1.1-0.9,2-2,2s-2-0.9-2-2c0-3.86,3.14-7,7-7
				s7,3.14,7,7C70.44,77.96,69.55,78.86,68.44,78.86z"/>
		</g>
	</g>
</g>
<g>
	<g>
		<g>
			<path class="st10" d="M58.94,375.64c-7.17,0-13-5.83-13-13v-170c0-7.17,5.83-13,13-13h111c7.17,0,13,5.83,13,13v170
				c0,7.17-5.83,13-13,13H58.94z"/>
		</g>
		<g>
			<g>
				<path class="st3" d="M169.94,182.64c5.52,0,10,4.48,10,10v170c0,5.52-4.48,10-10,10h-111c-5.52,0-10-4.48-10-10v-170
					c0-5.52,4.48-10,10-10H169.94 M169.94,176.64h-111c-8.82,0-16,7.18-16,16v170c0,8.82,7.18,16,16,16h111c8.82,0,16-7.18,16-16
					v-170C185.94,183.82,178.76,176.64,169.94,176.64L169.94,176.64z"/>
			</g>
		</g>
	</g>
	<g>
		<rect x="48.94" y="265.64" class="st11" width="131" height="62"/>
	</g>
	<g>
		<g>
			<path class="st6" d="M48.94,211.64c-1.66,0-3-1.34-3-3v-16c0-7.17,5.83-13,13-13h111c7.17,0,13,5.83,13,13v16c0,1.66-1.34,3-3,3
				H48.94z"/>
		</g>
		<g>
			<path class="st3" d="M169.94,182.64c5.52,0,10,4.48,10,10v16h-131v-16c0-5.52,4.48-10,10-10H169.94 M169.94,176.64h-111
				c-8.82,0-16,7.18-16,16v16c0,3.31,2.69,6,6,6h131c3.31,0,6-2.69,6-6v-16C185.94,183.82,178.76,176.64,169.94,176.64
				L169.94,176.64z"/>
		</g>
	</g>
	<g>
		<g>
			<path class="st7" d="M123.94,201.64c-3.31,0-6-2.69-6-6s2.69-6,6-6h44c3.31,0,6,2.69,6,6s-2.69,6-6,6H123.94z"/>
		</g>
		<g>
			<g>
				<path class="st3" d="M167.94,192.64c1.66,0,3,1.34,3,3s-1.34,3-3,3h-44c-1.66,0-3-1.34-3-3s1.34-3,3-3H167.94 M167.94,186.64
					h-44c-4.96,0-9,4.04-9,9c0,4.96,4.04,9,9,9h44c4.96,0,9-4.04,9-9C176.94,190.68,172.9,186.64,167.94,186.64L167.94,186.64z"/>
			</g>
		</g>
	</g>
	<g>
		<g>
			<circle class="st8" cx="60.94" cy="195.64" r="6"/>
		</g>
		<g>
			<g>
				<path class="st3" d="M60.94,192.64c1.66,0,3,1.34,3,3c0,1.66-1.34,3-3,3c-1.66,0-3-1.34-3-3
					C57.94,193.99,59.28,192.64,60.94,192.64 M60.94,186.64c-4.96,0-9,4.04-9,9s4.04,9,9,9s9-4.04,9-9S65.9,186.64,60.94,186.64
					L60.94,186.64z"/>
			</g>
		</g>
	</g>
	<g>
		<g>
			<circle class="st9" cx="81.94" cy="195.64" r="6"/>
		</g>
		<g>
			<g>
				<path class="st3" d="M81.94,192.64c1.66,0,3,1.34,3,3c0,1.66-1.34,3-3,3c-1.66,0-3-1.34-3-3
					C78.94,193.99,80.28,192.64,81.94,192.64 M81.94,186.64c-4.96,0-9,4.04-9,9s4.04,9,9,9s9-4.04,9-9S86.9,186.64,81.94,186.64
					L81.94,186.64z"/>
			</g>
		</g>
	</g>
	<g>
		<g>
			<circle class="st10" cx="102.94" cy="195.64" r="6"/>
		</g>
		<g>
			<g>
				<path class="st3" d="M102.94,192.64c1.66,0,3,1.34,3,3c0,1.66-1.34,3-3,3c-1.66,0-3-1.34-3-3
					C99.94,193.99,101.28,192.64,102.94,192.64 M102.94,186.64c-4.96,0-9,4.04-9,9s4.04,9,9,9s9-4.04,9-9
					S107.9,186.64,102.94,186.64L102.94,186.64z"/>
			</g>
		</g>
	</g>
	<g>
		<g>
			<circle class="st12" cx="141.44" cy="238.64" r="2"/>
		</g>
		<g>
			<circle class="st12" cx="137.44" cy="246.64" r="2"/>
		</g>
		<g>
			<circle class="st12" cx="145.44" cy="246.64" r="2"/>
		</g>
	</g>
	<g>
		<g>
			<circle class="st12" cx="87.44" cy="238.64" r="2"/>
		</g>
		<g>
			<circle class="st12" cx="83.44" cy="246.64" r="2"/>
		</g>
		<g>
			<circle class="st12" cx="91.44" cy="246.64" r="2"/>
		</g>
	</g>
	<g>
		<path class="st3" d="M105.94,239.64c-0.16,0-0.33-0.03-0.49-0.08c-1.6-0.55-4.42-0.55-6.02,0c-0.79,0.27-1.64-0.15-1.91-0.93
			c-0.27-0.78,0.15-1.64,0.93-1.91c2.24-0.77,5.74-0.77,7.98,0c0.78,0.27,1.2,1.12,0.93,1.91
			C107.14,239.25,106.56,239.64,105.94,239.64z"/>
	</g>
	<g>
		<g>
			<circle class="st3" cx="126.44" cy="231.64" r="6"/>
		</g>
		<g>
			<circle class="st7" cx="127.94" cy="231.64" r="1.5"/>
		</g>
	</g>
	<g>
		<path class="st3" d="M121.98,219.49c2.76-1.63,6.17-1.74,9.04-0.31c1.55,0.74,4.02,3,2.01,4.55c-0.49,0.35-1.07,0.33-1.62,0.21
			c-1.48-0.27-2.62-0.55-4.07-0.73c-1.47-0.21-3.4-0.28-4.83-0.61C121.03,222.33,120.7,220.22,121.98,219.49L121.98,219.49z"/>
	</g>
	<g>
		<path class="st3" d="M129.94,239.64c-0.16,0-0.33-0.03-0.49-0.08c-1.6-0.55-4.42-0.55-6.02,0c-0.79,0.27-1.64-0.15-1.91-0.93
			c-0.27-0.78,0.15-1.64,0.93-1.91c2.24-0.77,5.74-0.77,7.98,0c0.78,0.27,1.2,1.12,0.93,1.91
			C131.14,239.25,130.56,239.64,129.94,239.64z"/>
	</g>
	<g>
		<g>
			<circle class="st3" cx="102.44" cy="231.64" r="6"/>
		</g>
		<g>
			<circle class="st7" cx="103.94" cy="231.64" r="1.5"/>
		</g>
	</g>
	<g>
		<path class="st3" d="M105.98,222.7c-2.03,0.34-4.41,0.43-6.42,0.84c-0.75,0.13-1.6,0.35-2.46,0.47c-0.94,0.15-1.82-0.5-1.97-1.44
			c-0.02-2.54,3.68-4.1,5.82-4.31c2-0.28,8,0.45,6.52,3.57C107.14,222.39,106.56,222.6,105.98,222.7L105.98,222.7z"/>
	</g>
	<g>
		<circle class="st11" cx="71.44" cy="350.14" r="16.5"/>
	</g>
	<g>
		<circle class="st11" cx="114.44" cy="350.14" r="16.5"/>
	</g>
	<g>
		<circle class="st11" cx="157.44" cy="350.14" r="16.5"/>
	</g>
	<g>
		<path class="st7" d="M169.94,320.64h-49c-2.21,0-4-1.79-4-4v-40c0-2.21,1.79-4,4-4h49c2.21,0,4,1.79,4,4v40
			C173.94,318.85,172.15,320.64,169.94,320.64z"/>
	</g>
	<g>
		<path class="st10" d="M165.94,306.64h-41c-1.1,0-2-0.9-2-2v0c0-1.1,0.9-2,2-2h41c1.1,0,2,0.9,2,2v0
			C167.94,305.75,167.05,306.64,165.94,306.64z"/>
	</g>
	<g>
		<path class="st10" d="M159.94,314.64h-35c-1.1,0-2-0.9-2-2v0c0-1.1,0.9-2,2-2h35c1.1,0,2,0.9,2,2v0
			C161.94,313.75,161.05,314.64,159.94,314.64z"/>
	</g>
	<g>
		<path class="st10" d="M165.94,298.64h-41c-1.1,0-2-0.9-2-2v0c0-1.1,0.9-2,2-2h41c1.1,0,2,0.9,2,2v0
			C167.94,297.75,167.05,298.64,165.94,298.64z"/>
	</g>
	<g>
		<circle class="st11" cx="128.94" cy="284.64" r="6"/>
	</g>
	<g>
		<path class="st7" d="M107.94,320.64h-49c-2.21,0-4-1.79-4-4v-40c0-2.21,1.79-4,4-4h49c2.21,0,4,1.79,4,4v40
			C111.94,318.85,110.15,320.64,107.94,320.64z"/>
	</g>
	<g>
		<path class="st10" d="M103.94,306.64h-41c-1.1,0-2-0.9-2-2v0c0-1.1,0.9-2,2-2h41c1.1,0,2,0.9,2,2v0
			C105.94,305.75,105.05,306.64,103.94,306.64z"/>
	</g>
	<g>
		<path class="st10" d="M97.94,314.64h-35c-1.1,0-2-0.9-2-2v0c0-1.1,0.9-2,2-2h35c1.1,0,2,0.9,2,2v0
			C99.94,313.75,99.05,314.64,97.94,314.64z"/>
	</g>
	<g>
		<path class="st10" d="M103.94,298.64h-41c-1.1,0-2-0.9-2-2v0c0-1.1,0.9-2,2-2h41c1.1,0,2,0.9,2,2v0
			C105.94,297.75,105.05,298.64,103.94,298.64z"/>
	</g>
	<g>
		<circle class="st11" cx="66.94" cy="284.64" r="6"/>
	</g>
	<g>
		<g>
			<path class="st3" d="M114.72,249.26c-4.22,0-8.55-1.08-12.29-3.25c-0.96-0.55-1.28-1.78-0.73-2.73c0.55-0.96,1.78-1.28,2.73-0.73
				c6.17,3.58,14.54,3.59,19.89,0.03c0.92-0.61,2.16-0.36,2.77,0.56c0.61,0.92,0.36,2.16-0.56,2.77
				C123.19,248.14,119.01,249.26,114.72,249.26z"/>
		</g>
		<g>
			<path class="st3" d="M110.7,252.73c2.48,0.43,5.02,0.44,7.48,0c1.37-0.27,2.22,1.56,1.15,2.43c0,0-0.62,0.52-0.62,0.52
				c-2.42,1.86-6.09,1.84-8.52,0c0,0-0.62-0.52-0.62-0.52C108.47,254.29,109.34,252.46,110.7,252.73L110.7,252.73z"/>
		</g>
	</g>
</g>
<g>
	<g>
		<path class="st13" d="M233.7,390.84L233.7,390.84c-13.58-7.84-18.27-25.35-10.43-38.93l56.35-97.62
			c7.84-13.58,25.35-18.27,38.93-10.43l0,0c13.58,7.84,18.27,25.35,10.43,38.93l-56.35,97.62
			C264.79,393.97,247.28,398.68,233.7,390.84z"/>
	</g>
	<g>
		<path class="st14" d="M375.22,390.42L375.22,390.42c-13.58,7.84-31.09,3.14-38.93-10.43l-56.35-97.62
			c-7.84-13.58-3.14-31.09,10.43-38.93l0,0c13.58-7.84,31.09-3.14,38.93,10.43l56.35,97.62
			C393.48,365.05,388.78,382.58,375.22,390.42z"/>
	</g>
	<g>
		<circle class="st15" cx="248.34" cy="365.73" r="28.9"/>
	</g>
</g>
<g>
	<g>
		<g>
			<path class="st7" d="M273.33,133.29c-3.31,0-6-2.69-6-6v-114c0-3.31,2.69-6,6-6h114c3.31,0,6,2.69,6,6v97
				c0,0.8-0.32,1.56-0.88,2.12l-20,20c-0.56,0.56-1.33,0.88-2.12,0.88H273.33z"/>
		</g>
		<g>
			<path class="st3" d="M387.33,10.29c1.66,0,3,1.34,3,3v97l-20,20h-97c-1.66,0-3-1.34-3-3v-114c0-1.66,1.34-3,3-3H387.33
				 M387.33,4.29h-114c-4.96,0-9,4.04-9,9v114c0,4.96,4.04,9,9,9h97c1.59,0,3.12-0.63,4.24-1.76l20-20
				c1.13-1.13,1.76-2.65,1.76-4.24v-97C396.33,8.33,392.29,4.29,387.33,4.29L387.33,4.29z"/>
		</g>
	</g>
	<g>
		<path class="st16" d="M356.83,75.29h-69c-1.38,0-2.5-1.12-2.5-2.5l0,0c0-1.38,1.12-2.5,2.5-2.5h69c1.38,0,2.5,1.12,2.5,2.5l0,0
			C359.33,74.17,358.21,75.29,356.83,75.29z"/>
	</g>
	<g>
		<path class="st3" d="M342.83,95.29h-55c-1.38,0-2.5-1.12-2.5-2.5l0,0c0-1.38,1.12-2.5,2.5-2.5h55c1.38,0,2.5,1.12,2.5,2.5l0,0
			C345.33,94.17,344.21,95.29,342.83,95.29z"/>
	</g>
	<g>
		<path class="st3" d="M352.83,105.29h-65c-1.38,0-2.5-1.12-2.5-2.5l0,0c0-1.38,1.12-2.5,2.5-2.5h65c1.38,0,2.5,1.12,2.5,2.5l0,0
			C355.33,104.17,354.21,105.29,352.83,105.29z"/>
	</g>
	<g>
		<path class="st3" d="M332.83,115.29h-45c-1.38,0-2.5-1.12-2.5-2.5l0,0c0-1.38,1.12-2.5,2.5-2.5h45c1.38,0,2.5,1.12,2.5,2.5l0,0
			C335.33,114.17,334.21,115.29,332.83,115.29z"/>
	</g>
	<g>
		<path class="st17" d="M350.83,85.29h-63c-1.38,0-2.5-1.12-2.5-2.5l0,0c0-1.38,1.12-2.5,2.5-2.5h63c1.38,0,2.5,1.12,2.5,2.5l0,0
			C353.33,84.17,352.21,85.29,350.83,85.29z"/>
	</g>
	<g>
		<g>
			<path class="st18" d="M370.33,133.29c-0.39,0-0.78-0.07-1.15-0.23c-1.12-0.46-1.85-1.56-1.85-2.77v-17c0-3.31,2.69-6,6-6h17
				c1.21,0,2.31,0.73,2.77,1.85c0.46,1.12,0.21,2.41-0.65,3.27l-20,20C371.88,132.99,371.11,133.29,370.33,133.29z"/>
		</g>
		<g>
			<g>
				<path class="st3" d="M390.33,110.29l-20,20v-17c0-1.66,1.34-3,3-3H390.33 M390.33,104.29h-17c-4.96,0-9,4.04-9,9v17
					c0,2.43,1.46,4.61,3.7,5.54c0.74,0.31,1.52,0.46,2.29,0.46c1.56,0,3.1-0.61,4.24-1.76l20-20c1.72-1.72,2.23-4.3,1.3-6.54
					C394.94,105.75,392.75,104.29,390.33,104.29L390.33,104.29z M390.33,116.29L390.33,116.29L390.33,116.29L390.33,116.29z"/>
			</g>
		</g>
	</g>
	<g>
		<g>
			<g>
				<g>
					<path class="st3" d="M345.85,39.88c-1.1,0-2-0.9-2-2c0-1.65-1.35-3-3-3s-3,1.35-3,3c0,1.1-0.9,2-2,2s-2-0.9-2-2
						c0-3.86,3.14-7,7-7s7,3.14,7,7C347.85,38.98,346.96,39.88,345.85,39.88z"/>
				</g>
			</g>
			<g>
				<path class="st3" d="M338.42,21.94c3.57-2.19,8.99-1.73,11.44,1.9c0.84,1.2-0.31,2.92-1.73,2.64c-1.57-0.27-2.86-0.63-4.4-0.83
					c-1.46-0.21-3.36-0.28-4.78-0.61C337.5,24.77,337.16,22.67,338.42,21.94L338.42,21.94z"/>
			</g>
		</g>
		<g>
			<g>
				<g>
					<path class="st3" d="M324.8,39.88c-1.1,0-2-0.9-2-2c0-1.65-1.35-3-3-3s-3,1.35-3,3c0,1.1-0.9,2-2,2s-2-0.9-2-2
						c0-3.86,3.14-7,7-7s7,3.14,7,7C326.8,38.98,325.91,39.88,324.8,39.88z"/>
				</g>
			</g>
			<g>
				<path class="st3" d="M321.27,25.13c-1.25,0.24-3.08,0.34-4.36,0.52c-1.54,0.19-2.82,0.55-4.39,0.82
					c-0.94,0.16-1.83-0.47-1.98-1.41c-0.07-0.44,0.03-0.87,0.25-1.22c1.79-2.76,5.51-3.65,8.57-3.02c1.01,0.21,1.9,0.51,2.88,1.12
					C323.72,22.94,322.99,25.01,321.27,25.13L321.27,25.13z"/>
			</g>
		</g>
		<g>
			<path class="st3" d="M342.33,43.29h-24c-1.06,0-2.08,0.42-2.83,1.17c-0.75,0.75-1.17,1.77-1.17,2.83c0,8.82,7.18,16,16,16
				c4.27,0,8.29-1.66,11.31-4.69c3.02-3.02,4.69-7.04,4.69-11.31C346.33,45.08,344.54,43.29,342.33,43.29z"/>
			<g>
				<g>
					<ellipse class="st8" cx="330.33" cy="55.29" rx="8.93" ry="4"/>
				</g>
			</g>
		</g>
	</g>
	<g>
		<g>
			<circle class="st19" cx="356.33" cy="49.29" r="2"/>
		</g>
		<g>
			<circle class="st19" cx="364.33" cy="49.29" r="2"/>
		</g>
		<g>
			<circle class="st19" cx="360.33" cy="41.29" r="2"/>
		</g>
	</g>
	<g>
		<g>
			<circle class="st19" cx="296.33" cy="49.29" r="2"/>
		</g>
		<g>
			<circle class="st19" cx="304.33" cy="49.29" r="2"/>
		</g>
		<g>
			<circle class="st19" cx="300.33" cy="41.29" r="2"/>
		</g>
	</g>
</g>
<g>
	<g>
		<g>
			<path class="st7" d="M208.44,217.36c-3.31,0-6-2.69-6-6v-114c0-3.31,2.69-6,6-6h114c3.31,0,6,2.69,6,6v97
				c0,0.8-0.32,1.56-0.88,2.12l-20,20c-0.56,0.56-1.33,0.88-2.12,0.88H208.44z"/>
		</g>
		<g>
			<path class="st3" d="M322.44,94.36c1.66,0,3,1.34,3,3v97l-20,20h-97c-1.66,0-3-1.34-3-3v-114c0-1.66,1.34-3,3-3H322.44
				 M322.44,88.36h-114c-4.96,0-9,4.04-9,9v114c0,4.96,4.04,9,9,9h97c1.59,0,3.12-0.63,4.24-1.76l20-20
				c1.13-1.13,1.76-2.65,1.76-4.24v-97C331.44,92.39,327.4,88.36,322.44,88.36L322.44,88.36z"/>
		</g>
	</g>
	<g>
		<path class="st16" d="M287.94,159.36h-65c-1.38,0-2.5-1.12-2.5-2.5l0,0c0-1.38,1.12-2.5,2.5-2.5h65c1.38,0,2.5,1.12,2.5,2.5l0,0
			C290.44,158.24,289.32,159.36,287.94,159.36z"/>
	</g>
	<g>
		<path class="st3" d="M287.94,179.36h-65c-1.38,0-2.5-1.12-2.5-2.5l0,0c0-1.38,1.12-2.5,2.5-2.5h65c1.38,0,2.5,1.12,2.5,2.5l0,0
			C290.44,178.24,289.32,179.36,287.94,179.36z"/>
	</g>
	<g>
		<path class="st3" d="M287.94,189.36h-65c-1.38,0-2.5-1.12-2.5-2.5l0,0c0-1.38,1.12-2.5,2.5-2.5h65c1.38,0,2.5,1.12,2.5,2.5l0,0
			C290.44,188.24,289.32,189.36,287.94,189.36z"/>
	</g>
	<g>
		<path class="st3" d="M267.94,199.36h-45c-1.38,0-2.5-1.12-2.5-2.5l0,0c0-1.38,1.12-2.5,2.5-2.5h45c1.38,0,2.5,1.12,2.5,2.5l0,0
			C270.44,198.24,269.32,199.36,267.94,199.36z"/>
	</g>
	<g>
		<path class="st17" d="M271.94,169.36h-49c-1.38,0-2.5-1.12-2.5-2.5l0,0c0-1.38,1.12-2.5,2.5-2.5h49c1.38,0,2.5,1.12,2.5,2.5l0,0
			C274.44,168.24,273.32,169.36,271.94,169.36z"/>
	</g>
	<g>
		<g>
			<path class="st18" d="M305.44,217.36c-0.39,0-0.78-0.07-1.15-0.23c-1.12-0.46-1.85-1.56-1.85-2.77v-17c0-3.31,2.69-6,6-6h17
				c1.21,0,2.31,0.73,2.77,1.85s0.21,2.41-0.65,3.27l-20,20C306.99,217.05,306.22,217.36,305.44,217.36z"/>
		</g>
		<g>
			<g>
				<path class="st3" d="M325.44,194.36l-20,20v-17c0-1.66,1.34-3,3-3H325.44 M325.44,188.36h-17c-4.96,0-9,4.04-9,9v17
					c0,2.43,1.46,4.61,3.7,5.54c0.74,0.31,1.52,0.46,2.29,0.46c1.56,0,3.1-0.61,4.24-1.76l20-20c1.72-1.72,2.23-4.3,1.3-6.54
					C330.06,189.82,327.87,188.36,325.44,188.36L325.44,188.36z M325.44,200.36L325.44,200.36L325.44,200.36L325.44,200.36z"/>
			</g>
		</g>
	</g>
	<g>
		<g>
			<circle class="st19" cx="291.44" cy="133.36" r="2"/>
		</g>
		<g>
			<circle class="st19" cx="299.44" cy="133.36" r="2"/>
		</g>
		<g>
			<circle class="st19" cx="295.44" cy="125.36" r="2"/>
		</g>
	</g>
	<g>
		<g>
			<circle class="st19" cx="231.44" cy="133.36" r="2"/>
		</g>
		<g>
			<circle class="st19" cx="239.44" cy="133.36" r="2"/>
		</g>
		<g>
			<circle class="st19" cx="235.44" cy="125.36" r="2"/>
		</g>
	</g>
	<g>
		<g>
			<g>
				<path class="st3" d="M280.47,125.32c-0.16,0-0.33-0.03-0.49-0.08c-1.6-0.55-4.42-0.55-6.02,0c-0.79,0.27-1.64-0.15-1.91-0.93
					c-0.27-0.78,0.15-1.64,0.93-1.91c2.24-0.77,5.74-0.77,7.98,0c0.78,0.27,1.2,1.12,0.93,1.91
					C281.67,124.93,281.09,125.32,280.47,125.32z"/>
			</g>
			<g>
				<g>
					<circle class="st3" cx="276.97" cy="117.12" r="6"/>
				</g>
				<g>
					<circle class="st7" cx="278.47" cy="117.12" r="1.5"/>
				</g>
			</g>
			<g>
				<path class="st3" d="M273.54,103.18c3.57-2.19,8.99-1.73,11.44,1.9c0.84,1.2-0.31,2.92-1.73,2.64c-1.57-0.27-2.86-0.63-4.4-0.83
					c-1.46-0.21-3.36-0.28-4.78-0.61C272.61,106.01,272.27,103.92,273.54,103.18L273.54,103.18z"/>
			</g>
		</g>
		<g>
			<g>
				<path class="st3" d="M250.42,125.32c-0.62,0-1.2-0.39-1.42-1.01c-0.27-0.78,0.15-1.64,0.93-1.91c2.24-0.77,5.74-0.77,7.98,0
					c0.78,0.27,1.2,1.12,0.93,1.91c-0.27,0.78-1.12,1.2-1.91,0.93c-1.6-0.55-4.42-0.55-6.02,0
					C250.74,125.29,250.58,125.32,250.42,125.32z"/>
			</g>
			<g>
				<g>
					<circle class="st3" cx="253.92" cy="117.12" r="6"/>
				</g>
				<g>
					<circle class="st7" cx="255.42" cy="117.12" r="1.5"/>
				</g>
			</g>
			<g>
				<path class="st3" d="M256.38,106.38c-1.25,0.24-3.08,0.34-4.36,0.52c-1.54,0.19-2.82,0.55-4.39,0.82
					c-0.94,0.16-1.83-0.47-1.98-1.41c-0.07-0.44,0.03-0.88,0.25-1.22c1.79-2.76,5.51-3.65,8.57-3.02c1.01,0.21,1.9,0.51,2.88,1.12
					C258.83,104.19,258.1,106.26,256.38,106.38L256.38,106.38z"/>
			</g>
		</g>
		<g>
			<path class="st3" d="M277.45,128.54L277.45,128.54h-24.01c-2.21,0-4,1.79-4,4c0,8.82,7.18,16,16,16c8.77,0,15.91-7.09,16-15.84
				c0-0.05,0-0.11,0-0.16C281.44,130.33,279.65,128.54,277.45,128.54z"/>
			<g>
				<g>
					<ellipse class="st8" cx="265.44" cy="140.54" rx="8.93" ry="4"/>
				</g>
			</g>
		</g>
	</g>
</g>
</svg>
