<svg xmlns="http://www.w3.org/2000/svg" viewBox="0 0 252 236"><defs><style>.cls-1{fill:#fff;}.cls-2{fill:#515979;}.cls-3{fill:#667683;}.cls-4{fill:#ef7d7d;}.cls-5{fill:#ffe8a0;}.cls-6{fill:#7ddf96;}.cls-7,.cls-8{fill:#6adaf7;}.cls-8{fill-rule:evenodd;}.cls-9{fill:#fde1d9;}</style></defs><g id="Layer_2" data-name="Layer 2"><g id="Layer_1-2" data-name="Layer 1"><rect class="cls-1" x="3" y="3" width="246" height="230" rx="13"/><path class="cls-2" d="M236,6a10,10,0,0,1,10,10V220a10,10,0,0,1-10,10H16A10,10,0,0,1,6,220V16A10,10,0,0,1,16,6H236m0-6H16A16,16,0,0,0,0,16V220a16,16,0,0,0,16,16H236a16,16,0,0,0,16-16V16A16,16,0,0,0,236,0Z"/><path class="cls-2" d="M246,40V80H6V40H246m0-6H6a6,6,0,0,0-6,6V80a6,6,0,0,0,6,6H246a6,6,0,0,0,6-6V40a6,6,0,0,0-6-6Z"/><path class="cls-3" d="M6,37a3,3,0,0,1-3-3V16A13,13,0,0,1,16,3H236a13,13,0,0,1,13,13V34a3,3,0,0,1-3,3Z"/><path class="cls-2" d="M236,6a10,10,0,0,1,10,10V34H6V16A10,10,0,0,1,16,6H236m0-6H16A16,16,0,0,0,0,16V34a6,6,0,0,0,6,6H246a6,6,0,0,0,6-6V16A16,16,0,0,0,236,0Z"/><path class="cls-1" d="M96,27a7,7,0,0,1,0-14H210a7,7,0,0,1,0,14Z"/><path class="cls-2" d="M210,16a4,4,0,0,1,4,4h0a4,4,0,0,1-4,4H96a4,4,0,0,1-4-4h0a4,4,0,0,1,4-4H210m0-6H96a10,10,0,0,0,0,20H210a10,10,0,0,0,0-20Z"/><circle class="cls-4" cx="22" cy="20" r="7"/><path class="cls-2" d="M22,16a4,4,0,1,1-4,4,4,4,0,0,1,4-4m0-6A10,10,0,1,0,32,20,10,10,0,0,0,22,10Z"/><circle class="cls-5" cx="46" cy="20" r="7"/><path class="cls-2" d="M46,16a4,4,0,1,1-4,4,4,4,0,0,1,4-4m0-6A10,10,0,1,0,56,20,10,10,0,0,0,46,10Z"/><circle class="cls-6" cx="70" cy="20" r="7"/><path class="cls-2" d="M70,16a4,4,0,1,1-4,4,4,4,0,0,1,4-4m0-6A10,10,0,1,0,80,20,10,10,0,0,0,70,10Z"/><rect class="cls-7" x="28" y="122" width="6" height="12"/><rect class="cls-7" x="18" y="92" width="8" height="4"/><rect class="cls-2" x="32" y="93" width="8" height="2"/><rect class="cls-7" x="38" y="116" width="6" height="18"/><rect class="cls-7" x="48" y="110" width="6" height="24"/><rect class="cls-7" x="58" y="124" width="6" height="10"/><rect class="cls-7" x="68" y="120" width="6" height="14"/><rect class="cls-7" x="78" y="114" width="6" height="20"/><rect class="cls-7" x="136" y="167" width="56" height="4"/><path class="cls-8" d="M49.41,51.06c1.59.53-.27,7-1.19,7.39-.48.21-1.13.18-1.25-.29-.36-1.24.29-4.55.4-5.13C47.58,51.65,48,50.61,49.41,51.06Zm-.86,17.59a1.09,1.09,0,0,1-1.35.24c-.44-.1-1.34-8.88.66-7.63C49.52,62.31,48.91,68.19,48.55,68.65ZM41,67.18a30.25,30.25,0,0,1-.84-5.27,24.19,24.19,0,0,1,.37-6.47c1.06-4.32,1.92-6.09,3-6.73,4.09-3,11.8-.09,11.48,4.44-.12,6.46-5.74,6.59-5.74,6.61,4.93.52,5.25,7.76,2.86,9.7-3,2.87-8.48,1.33-8.54,1.31a4.15,4.15,0,0,1-1-.48A2.12,2.12,0,0,1,42,69.7a3.5,3.5,0,0,1-2.11,1.41c-6.3,1.67-5.74-5.88-9-8.9a2.18,2.18,0,0,1-.37.2c.2,1.24.43,2.49.69,3.7.17.83.37,1.64.53,2.42a4.5,4.5,0,0,1,.29.93,3.24,3.24,0,0,1-3.76.77,4.14,4.14,0,0,1-1.41-1.64,22.18,22.18,0,0,1-1.8-4.74A4.69,4.69,0,0,1,21.76,63a2.34,2.34,0,0,1-.22-3.15,4.83,4.83,0,0,1,2.61-2c0-1.06,0-2.1.05-3.14A8.9,8.9,0,0,1,24.94,51c1.5-2.75,4-3.08,5-2.48.77.46.51,2.38.49,3-.05,1.27-.25,2.52-.32,3.79a27.47,27.47,0,0,0,0,3c3.27-3,3.47-7.7,3.91-9.55.83-3.42,4,.3,4.51,1.35.8,1.63,0,6.76-4.11,10a10.62,10.62,0,0,1,2.31,2.08C38.05,63.61,38.7,66.51,41,67.18Z"/><path class="cls-4" d="M91.07,69.68a1.89,1.89,0,0,1-.8-.17c-.45-.19-11.2-5-11.2-12.94A7.57,7.57,0,0,1,86.63,49a7.49,7.49,0,0,1,4.44,1.45,7.55,7.55,0,0,1,12,6.11c0,8-10.74,12.75-11.2,12.94A1.86,1.86,0,0,1,91.07,69.68Z"/><path class="cls-2" d="M95.52,51a5.56,5.56,0,0,1,5.55,5.56c0,6.75-10,11.11-10,11.11s-10-4.36-10-11.11a5.55,5.55,0,0,1,10-3.32A5.55,5.55,0,0,1,95.52,51m0-4a9.65,9.65,0,0,0-4.45,1.11,9.54,9.54,0,0,0-14,8.45c0,9.11,11.13,14.22,12.4,14.78a4,4,0,0,0,3.2,0c1.27-.56,12.4-5.67,12.4-14.78A9.56,9.56,0,0,0,95.52,47Z"/><path class="cls-2" d="M86,138H26a2,2,0,0,1,0-4H86a2,2,0,0,1,0,4Z"/><circle class="cls-2" cx="20" cy="136" r="2"/><circle class="cls-2" cx="31" cy="142" r="2"/><circle class="cls-2" cx="41" cy="142" r="2"/><circle class="cls-2" cx="51" cy="142" r="2"/><circle class="cls-2" cx="61" cy="142" r="2"/><circle class="cls-2" cx="71" cy="142" r="2"/><circle class="cls-2" cx="81" cy="142" r="2"/><circle class="cls-2" cx="20" cy="126" r="2"/><circle class="cls-2" cx="92" cy="136" r="2"/><circle class="cls-2" cx="92" cy="126" r="2"/><circle class="cls-2" cx="20" cy="116" r="2"/><circle class="cls-2" cx="92" cy="116" r="2"/><circle class="cls-2" cx="20" cy="106" r="2"/><circle class="cls-2" cx="92" cy="106" r="2"/><path class="cls-2" d="M61,125.5h-.14a1.5,1.5,0,0,1-1.32-1.13l-4.28-17.13L52.15,111a1.47,1.47,0,0,1-1.29.53,1.49,1.49,0,0,1-1.17-.76l-3.35-6-3.92,11.76a1.49,1.49,0,0,1-2.69.32l-3.36-5.37-4,11.09a1.5,1.5,0,0,1-2.82-1l5-14a1.48,1.48,0,0,1,1.25-1,1.51,1.51,0,0,1,1.43.69l3.31,5.3,4-12a1.47,1.47,0,0,1,1.28-1,1.49,1.49,0,0,1,1.45.76l3.94,7.09,3.6-4.32a1.49,1.49,0,0,1,1.48-.5,1.46,1.46,0,0,1,1.12,1.1l4,15.83,3.22-7.09a1.51,1.51,0,0,1,1.22-.87,1.47,1.47,0,0,1,1.37.62l3.43,4.8,4-9.51a1.53,1.53,0,0,1,1.17-.9,1.49,1.49,0,0,1,1.37.52l5,6a1.5,1.5,0,1,1-2.3,1.92l-3.42-4.1-4.05,9.72a1.48,1.48,0,0,1-1.21.91,1.49,1.49,0,0,1-1.39-.62L66.29,116l-3.92,8.63A1.52,1.52,0,0,1,61,125.5Z"/><rect class="cls-7" x="36" y="180" width="16" height="24"/><rect class="cls-7" x="60" y="180" width="16" height="24"/><rect class="cls-7" x="18" y="162" width="8" height="4"/><rect class="cls-2" x="32" y="163" width="8" height="2"/><path class="cls-2" d="M86,208H26a2,2,0,0,1,0-4H86a2,2,0,0,1,0,4Z"/><path class="cls-2" d="M225,66H125a2,2,0,0,1,0-4H225a2,2,0,0,1,0,4Z"/><path class="cls-2" d="M205,58H145a2,2,0,0,1,0-4h60a2,2,0,0,1,0,4Z"/><path class="cls-2" d="M231,163H109a2,2,0,0,1,0-4H231a2,2,0,0,1,0,4Z"/><path class="cls-2" d="M126,170.5H108a1.5,1.5,0,0,1,0-3h18a1.5,1.5,0,0,1,0,3Z"/><rect class="cls-7" x="136" y="187" width="36" height="4"/><path class="cls-2" d="M231,183H109a2,2,0,0,1,0-4H231a2,2,0,0,1,0,4Z"/><path class="cls-2" d="M126,190.5H108a1.5,1.5,0,0,1,0-3h18a1.5,1.5,0,0,1,0,3Z"/><rect class="cls-7" x="136" y="207" width="92" height="4"/><path class="cls-2" d="M231,203H109a2,2,0,0,1,0-4H231a2,2,0,0,1,0,4Z"/><path class="cls-2" d="M126,210.5H108a1.5,1.5,0,0,1,0-3h18a1.5,1.5,0,0,1,0,3Z"/><rect class="cls-7" x="130" y="117" width="16" height="4"/><path class="cls-2" d="M157,113H109a2,2,0,0,1,0-4h48a2,2,0,0,1,0,4Z"/><path class="cls-2" d="M120,120.5H108a1.5,1.5,0,0,1,0-3h12a1.5,1.5,0,0,1,0,3Z"/><rect class="cls-7" x="130" y="137" width="20" height="4"/><path class="cls-2" d="M157,133H109a2,2,0,0,1,0-4h48a2,2,0,0,1,0,4Z"/><path class="cls-2" d="M120,140.5H108a1.5,1.5,0,0,1,0-3h12a1.5,1.5,0,0,1,0,3Z"/><circle class="cls-2" cx="20" cy="206" r="2"/><circle class="cls-2" cx="31" cy="212" r="2"/><circle class="cls-2" cx="41" cy="212" r="2"/><circle class="cls-2" cx="51" cy="212" r="2"/><circle class="cls-2" cx="61" cy="212" r="2"/><circle class="cls-2" cx="71" cy="212" r="2"/><circle class="cls-2" cx="81" cy="212" r="2"/><circle class="cls-2" cx="20" cy="196" r="2"/><circle class="cls-2" cx="92" cy="206" r="2"/><circle class="cls-2" cx="92" cy="196" r="2"/><circle class="cls-2" cx="20" cy="186" r="2"/><circle class="cls-2" cx="92" cy="186" r="2"/><circle class="cls-2" cx="20" cy="176" r="2"/><circle class="cls-2" cx="92" cy="176" r="2"/><path class="cls-2" d="M68,177.5H44a1.5,1.5,0,0,1,0-3H68a1.5,1.5,0,0,1,0,3Z"/><rect class="cls-2" x="62" y="54" width="10" height="4" rx="2"/><rect class="cls-2" x="62" y="61" width="10" height="4" rx="2"/><path class="cls-2" d="M215.5,122.87a1.4,1.4,0,0,1-.49-.08,11.19,11.19,0,0,0-6,0,1.5,1.5,0,0,1-1-2.84,14.07,14.07,0,0,1,8,0,1.5,1.5,0,0,1-.49,2.92Z"/><circle class="cls-2" cx="212" cy="114.67" r="6"/><circle class="cls-1" cx="213.5" cy="114.67" r="1.5"/><path class="cls-2" d="M195.5,122.87a1.4,1.4,0,0,1-.49-.08,11.19,11.19,0,0,0-6,0,1.5,1.5,0,1,1-1-2.84,14.07,14.07,0,0,1,8,0,1.5,1.5,0,0,1-.49,2.92Z"/><circle class="cls-2" cx="192" cy="114.67" r="6"/><circle class="cls-1" cx="193.5" cy="114.67" r="1.5"/><path class="cls-2" d="M209.33,100.89a8.09,8.09,0,0,1,3-.6,9.71,9.71,0,0,1,3,.41,8.42,8.42,0,0,1,2.85,1.47,6.36,6.36,0,0,1,2,2.58,1.73,1.73,0,0,1-.91,2.26,1.8,1.8,0,0,1-1.25,0l-.38-.14c-.75-.26-1.31-.55-1.94-.78s-1.21-.46-1.86-.66l-2-.61c-.69-.2-1.5-.39-2.17-.66l-.4-.16a1.71,1.71,0,0,1-.92-2.22A1.73,1.73,0,0,1,209.33,100.89Z"/><path class="cls-2" d="M194.28,104.2c-.67.27-1.48.46-2.17.66l-2,.61c-.65.2-1.24.45-1.86.66s-1.19.52-1.94.78l-.38.13a1.72,1.72,0,0,1-2.16-2.29,6.36,6.36,0,0,1,2-2.58,8.42,8.42,0,0,1,2.85-1.47,9.71,9.71,0,0,1,3-.41,8.09,8.09,0,0,1,3,.6,1.69,1.69,0,0,1,.93,2.21,1.62,1.62,0,0,1-.92.93Z"/><circle class="cls-9" cx="228" cy="123.02" r="2"/><circle class="cls-9" cx="224" cy="129.02" r="2"/><circle class="cls-9" cx="232" cy="129.02" r="2"/><circle class="cls-9" cx="176" cy="123.02" r="2"/><circle class="cls-9" cx="172" cy="129.02" r="2"/><circle class="cls-9" cx="180" cy="129.02" r="2"/><path class="cls-2" d="M202,143a14,14,0,0,1-14-14,2,2,0,0,1,2-2h24a2,2,0,0,1,2,2A14,14,0,0,1,202,143Z"/><path class="cls-2" d="M214,129h0m0,0a12,12,0,0,1-24,0h24m0-4H190a4,4,0,0,0-4,4,16,16,0,0,0,32,.16V129a4,4,0,0,0-4-4Zm0,8h0Z"/><ellipse class="cls-4" cx="202" cy="137.02" rx="8.93" ry="4"/><path class="cls-2" d="M145,103H109a2,2,0,0,1,0-4h36a2,2,0,0,1,0,4Z"/></g></g></svg>