<?xml version="1.0" encoding="UTF-8"?>
<svg id="Layer_1" data-name="Layer 1" xmlns="http://www.w3.org/2000/svg" width="1150" height="481.462" viewBox="0 0 1150 481.462">
  <path d="M279,481.462H6c-3.31,0-6-2.69-6-6v-94h279v100Z" style="fill: #4dcff7;"/>
  <path d="M569,381.462h-278v100h278v-100Z" style="fill: #f89d81;"/>
  <path d="M859,381.462h-278v100h278v-100Z" style="fill: #3cb48c;"/>
  <path d="M1144,481.462h-273v-100h279v94c0,3.31-2.69,6-6,6Z" style="fill: #ffd886;"/>
  <path d="M118.42,432.312h-7.05v-13.61c0-1.65.04-3.16.11-4.54-.43.53-.97,1.08-1.62,1.65l-2.92,2.41-3.6-4.43,8.82-7.19h6.26v25.71Z" style="fill: #fff;"/>
  <path d="M124.47,429.392c0-1.08.32-1.91.96-2.5s1.57-.88,2.79-.88,2.05.29,2.67.88.93,1.42.93,2.5-.32,1.88-.96,2.47-1.52.89-2.65.89-2.07-.29-2.74-.88-1-1.41-1-2.48h0Z" style="fill: #fff;"/>
  <path d="M153.19,419.502c0,4.55-.76,7.88-2.29,9.99s-3.86,3.17-7,3.17-5.38-1.1-6.94-3.31-2.34-5.49-2.34-9.85.76-7.92,2.29-10.05,3.86-3.2,7-3.2,5.37,1.11,6.93,3.33,2.35,5.53,2.35,9.92ZM141.54,419.502c0,2.91.18,4.9.54,5.99s.97,1.63,1.83,1.63,1.48-.56,1.84-1.69.54-3.11.54-5.94-.18-4.84-.54-5.99-.97-1.71-1.83-1.71-1.46.55-1.83,1.65-.54,3.12-.54,6.05l-.01.01Z" style="fill: #fff;"/>
  <path d="M161.05,422.152l-6.08-9.76h7.8l3.02,5.591,3.09-5.591h7.82l-6.24,9.76,6.49,10.16h-7.8l-3.36-6.05-3.34,6.05h-7.82l6.42-10.16Z" style="fill: #fff;"/>
  <path d="M408.92,432.312h-7.05v-13.61c0-1.65.04-3.16.11-4.54-.43.53-.97,1.08-1.62,1.65l-2.92,2.41-3.6-4.43,8.82-7.19h6.26v25.71Z" style="fill: #fff;"/>
  <path d="M414.97,429.392c0-1.08.32-1.91.96-2.5.64-.59,1.57-.88,2.79-.88s2.05.29,2.67.88c.62.59.93,1.42.93,2.5s-.32,1.88-.96,2.47c-.64.59-1.52.89-2.65.89s-2.07-.29-2.74-.88c-.67-.59-1-1.41-1-2.48h0Z" style="fill: #fff;"/>
  <path d="M425.1,421.452c0-3.59.51-6.49,1.54-8.71s2.54-3.86,4.54-4.91,4.46-1.58,7.39-1.58c1.04,0,2.26.1,3.66.3v5.43c-1.17-.22-2.44-.33-3.81-.33-2.32,0-4.05.51-5.19,1.53s-1.76,2.68-1.86,4.99h.21c1.05-1.99,2.75-2.99,5.08-2.99s4.06.74,5.32,2.21,1.89,3.52,1.89,6.14c0,2.82-.8,5.05-2.39,6.69s-3.82,2.45-6.68,2.45c-3.04,0-5.41-.98-7.12-2.95s-2.57-4.72-2.57-8.26l-.01-.01h0ZM434.62,427.162c.74,0,1.34-.28,1.8-.83s.69-1.44.69-2.66c0-2.09-.81-3.13-2.43-3.13-.8,0-1.44.27-1.94.81s-.75,1.2-.75,1.97c0,1.12.24,2.05.72,2.77s1.11,1.08,1.9,1.08l.01-.01h0Z" style="fill: #fff;"/>
  <path d="M451.55,422.152l-6.08-9.76h7.8l3.02,5.591,3.09-5.591h7.82l-6.24,9.76,6.49,10.16h-7.8l-3.36-6.05-3.34,6.05h-7.82l6.42-10.16h0Z" style="fill: #fff;"/>
  <path d="M698.92,432.312h-7.05v-13.61c0-1.65.04-3.16.11-4.54-.43.53-.97,1.08-1.62,1.65l-2.92,2.41-3.6-4.43,8.82-7.19h6.26v25.71h0Z" style="fill: #fff;"/>
  <path d="M704.97,429.393c0-1.08.32-1.91.96-2.5s1.57-.88,2.79-.88,2.05.29,2.67.88.93,1.42.93,2.5-.32,1.88-.96,2.47-1.52.89-2.65.89-2.07-.29-2.74-.88-1-1.41-1-2.48h0Z" style="fill: #fff;"/>
  <path d="M733.59,432.312h-18.65v-4.57l6.28-6.35c1.79-1.88,2.96-3.16,3.52-3.84s.93-1.27,1.15-1.77c.22-.5.33-1.01.33-1.55,0-.67-.22-1.2-.65-1.58s-1.04-.58-1.83-.58-1.63.23-2.45.69-1.76,1.15-2.8,2.05l-3.81-4.46c1.32-1.18,2.44-2.03,3.34-2.54s1.88-.9,2.94-1.17,2.25-.4,3.58-.4c1.66,0,3.15.29,4.46.88s2.32,1.42,3.04,2.5,1.08,2.3,1.08,3.65c0,1.01-.13,1.94-.38,2.79s-.64,1.7-1.17,2.52c-.53.82-1.23,1.7-2.1,2.61-.87.91-2.73,2.65-5.58,5.2v.18h9.72v5.73l-.02.01h0Z" style="fill: #fff;"/>
  <path d="M741.55,422.152l-6.08-9.76h7.8l3.02,5.59,3.09-5.59h7.82l-6.24,9.76,6.49,10.16h-7.8l-3.36-6.05-3.34,6.05h-7.82l6.42-10.16Z" style="fill: #fff;"/>
  <path d="M992.59,432.312h-18.65v-4.57l6.28-6.35c1.79-1.88,2.96-3.16,3.52-3.84s.93-1.27,1.15-1.77c.22-.5.33-1.01.33-1.55,0-.67-.22-1.2-.65-1.58s-1.04-.58-1.83-.58-1.63.23-2.45.69-1.76,1.15-2.8,2.05l-3.81-4.46c1.32-1.18,2.44-2.03,3.34-2.54s1.88-.9,2.94-1.17,2.25-.4,3.58-.4c1.66,0,3.15.29,4.46.88s2.32,1.42,3.04,2.5,1.08,2.3,1.08,3.65c0,1.01-.13,1.94-.38,2.79s-.64,1.7-1.17,2.52c-.53.82-1.23,1.7-2.1,2.61-.87.91-2.73,2.65-5.58,5.2v.18h9.72v5.73l-.02.01h0Z" style="fill: #fff;"/>
  <path d="M995.47,429.393c0-1.08.32-1.91.96-2.5s1.57-.88,2.79-.88,2.05.29,2.67.88.93,1.42.93,2.5-.32,1.88-.96,2.47-1.52.89-2.65.89-2.07-.29-2.74-.88-1-1.41-1-2.48h0Z" style="fill: #fff;"/>
  <path d="M1024.19,419.503c0,4.55-.76,7.88-2.29,9.99s-3.86,3.17-7,3.17-5.38-1.1-6.94-3.31c-1.56-2.21-2.34-5.49-2.34-9.85s.76-7.92,2.29-10.05c1.53-2.13,3.86-3.2,7-3.2s5.37,1.11,6.93,3.33,2.35,5.53,2.35,9.92ZM1012.54,419.503c0,2.91.18,4.9.54,5.99s.97,1.63,1.83,1.63,1.48-.56,1.84-1.69.54-3.11.54-5.94-.18-4.84-.54-5.99-.97-1.71-1.83-1.71-1.46.55-1.83,1.65-.54,3.12-.54,6.05l-.01.01Z" style="fill: #fff;"/>
  <path d="M1032.05,422.152l-6.08-9.76h7.8l3.02,5.59,3.09-5.59h7.82l-6.24,9.76,6.49,10.16h-7.8l-3.36-6.05-3.34,6.05h-7.82l6.42-10.16h0Z" style="fill: #fff;"/>
  <path d="M68.74,448.042h2.61l1.65,4.91c.14.43.24.93.29,1.52h.05c.06-.54.17-1.04.34-1.52l1.62-4.91h2.55l-3.7,9.85c-.34.91-.82,1.59-1.45,2.05s-1.36.68-2.2.68c-.41,0-.82-.04-1.21-.13v-1.89c.29.07.6.1.94.1.42,0,.79-.13,1.11-.39s.56-.65.74-1.17l.14-.43-3.47-8.67h-.01Z" style="fill: #515979;"/>
  <path d="M86.42,452.392c0,1.42-.38,2.53-1.12,3.34-.74.81-1.79,1.2-3.13,1.2-.84,0-1.58-.18-2.22-.55s-1.13-.89-1.48-1.58-.52-1.49-.52-2.41c0-1.43.37-2.54,1.12-3.33.75-.79,1.79-1.19,3.14-1.19.84,0,1.58.18,2.22.55s1.13.89,1.48,1.57c.35.68.52,1.48.52,2.4h-.01ZM80.38,452.392c0,.86.14,1.52.43,1.96s.75.66,1.39.66,1.09-.22,1.37-.66.42-1.09.42-1.96-.14-1.51-.42-1.95-.74-.65-1.38-.65-1.09.21-1.38.64c-.29.43-.42,1.08-.42,1.95l-.01.01h0Z" style="fill: #515979;"/>
  <path d="M94.1,456.772l-.32-1.12h-.12c-.25.41-.62.72-1.09.94-.47.22-1,.33-1.6.33-1.03,0-1.8-.27-2.32-.82-.52-.55-.78-1.34-.78-2.37v-5.7h2.38v5.1c0,.63.11,1.1.34,1.42.23.32.58.47,1.07.47.67,0,1.15-.22,1.45-.67s.45-1.18.45-2.21v-4.11h2.38v8.73h-1.83l-.01.01h0Z" style="fill: #515979;"/>
  <path d="M97.78,455.663c0-.44.12-.77.35-.99.23-.22.58-.34,1.02-.34s.77.11,1,.34.36.56.36.98-.12.74-.36.97c-.24.24-.57.36-1,.36s-.78-.12-1.02-.35-.36-.56-.36-.98l.01.01Z" style="fill: #515979;"/>
  <path d="M105.73,456.932c-2.72,0-4.08-1.49-4.08-4.48,0-1.48.37-2.62,1.11-3.4s1.8-1.18,3.18-1.18c1.01,0,1.92.2,2.72.59l-.7,1.84c-.38-.15-.72-.27-1.05-.37s-.65-.14-.97-.14c-1.24,0-1.86.88-1.86,2.64s.62,2.56,1.86,2.56c.46,0,.88-.06,1.27-.18s.78-.31,1.17-.57v2.04c-.39.25-.77.41-1.17.51s-.89.14-1.49.14h.01Z" style="fill: #515979;"/>
  <path d="M117.79,452.392c0,1.42-.38,2.53-1.12,3.34s-1.79,1.2-3.13,1.2c-.84,0-1.58-.18-2.22-.55s-1.13-.89-1.48-1.58c-.35-.69-.52-1.49-.52-2.41,0-1.43.37-2.54,1.12-3.33.75-.79,1.79-1.19,3.14-1.19.84,0,1.58.18,2.22.55s1.13.89,1.48,1.57c.35.68.52,1.48.52,2.4h-.01ZM111.75,452.392c0,.86.14,1.52.43,1.96s.75.66,1.39.66,1.09-.22,1.37-.66.42-1.09.42-1.96-.14-1.51-.42-1.95-.74-.65-1.38-.65-1.09.21-1.38.64c-.29.43-.42,1.08-.42,1.95l-.01.01h0Z" style="fill: #515979;"/>
  <path d="M127.1,456.772h-2.38v-5.1c0-.63-.11-1.1-.32-1.42s-.54-.47-1-.47c-.61,0-1.05.22-1.33.67s-.41,1.18-.41,2.21v4.11h-2.38v-8.73h1.82l.32,1.12h.13c.23-.4.57-.71,1.02-.94s.95-.34,1.52-.34c1.31,0,2.19.43,2.66,1.28h.21c.23-.41.58-.72,1.04-.95s.97-.34,1.54-.34c.99,0,1.74.25,2.25.76s.76,1.32.76,2.44v5.7h-2.39v-5.1c0-.63-.11-1.1-.32-1.42s-.54-.47-1-.47c-.58,0-1.02.21-1.31.62s-.43,1.08-.43,1.98v4.39h0Z" style="fill: #515979;"/>
  <path d="M137.74,452.393c0-1.38.2-2.67.61-3.88s.99-2.26,1.75-3.16h1.95c-.73,1-1.29,2.11-1.66,3.31s-.56,2.44-.56,3.71.19,2.51.57,3.7.93,2.27,1.64,3.23h-1.94c-.77-.89-1.35-1.92-1.75-3.1s-.6-2.45-.6-3.81h-.01Z" style="fill: #515979;"/>
  <path d="M148.09,447.872c1.03,0,1.84.4,2.42,1.21s.88,1.91.88,3.31-.3,2.56-.9,3.35c-.6.79-1.42,1.19-2.46,1.19s-1.83-.37-2.41-1.12h-.16l-.4.96h-1.82v-12.16h2.38v2.83c0,.36-.03.93-.09,1.73h.09c.56-.86,1.38-1.3,2.48-1.3h-.01ZM147.32,449.782c-.59,0-1.02.18-1.29.54s-.41.96-.42,1.79v.26c0,.94.14,1.61.42,2.02s.72.61,1.32.61c.49,0,.88-.23,1.17-.68.29-.45.43-1.11.43-1.96s-.15-1.5-.44-1.93c-.29-.43-.69-.64-1.2-.64l.01-.01Z" style="fill: #515979;"/>
  <path d="M158.46,456.773l-.46-1.19h-.06c-.4.5-.81.86-1.24,1.05-.43.19-.98.29-1.66.29-.84,0-1.5-.24-1.98-.72s-.72-1.16-.72-2.05.32-1.61.97-2.05,1.63-.68,2.93-.73l1.52-.05v-.38c0-.89-.45-1.33-1.36-1.33-.7,0-1.52.21-2.46.63l-.79-1.61c1-.53,2.12-.79,3.34-.79s2.07.25,2.7.77.94,1.29.94,2.33v5.82h-1.66l-.01.01h0ZM157.75,452.733l-.92.03c-.69.02-1.21.15-1.55.38s-.51.58-.51,1.05c0,.67.39,1.01,1.16,1.01.55,0,.99-.16,1.32-.48s.5-.74.5-1.27v-.72h0Z" style="fill: #515979;"/>
  <path d="M168.29,454.182c0,.9-.31,1.58-.93,2.05s-1.55.7-2.79.7c-.64,0-1.18-.04-1.62-.13s-.87-.21-1.26-.38v-1.97c.44.21.94.38,1.5.52s1.04.21,1.46.21c.86,0,1.3-.25,1.3-.75,0-.19-.06-.34-.17-.46s-.31-.25-.59-.4-.66-.32-1.12-.52c-.67-.28-1.17-.54-1.48-.78s-.54-.51-.69-.82c-.15-.31-.21-.69-.21-1.14,0-.78.3-1.38.9-1.8.6-.42,1.45-.64,2.56-.64s2.08.23,3.07.69l-.72,1.72c-.44-.19-.85-.34-1.23-.46-.38-.12-.77-.18-1.16-.18-.7,0-1.05.19-1.05.57,0,.21.11.4.34.55s.72.39,1.49.7c.68.28,1.18.53,1.5.77s.55.52.7.83.23.68.23,1.12h-.03Z" style="fill: #515979;"/>
  <path d="M173.69,456.932c-1.41,0-2.5-.39-3.3-1.16s-1.19-1.88-1.19-3.3.37-2.59,1.1-3.39,1.74-1.2,3.04-1.2,2.2.35,2.88,1.05c.68.7,1.03,1.67,1.03,2.91v1.16h-5.63c.03.68.23,1.21.6,1.59s.9.57,1.58.57c.53,0,1.02-.05,1.49-.16.47-.11.96-.28,1.47-.52v1.84c-.42.21-.86.36-1.34.46s-1.05.15-1.73.15h0ZM173.35,449.572c-.5,0-.9.16-1.19.48-.29.32-.45.77-.49,1.36h3.34c-.01-.59-.16-1.04-.46-1.36-.3-.32-.7-.48-1.2-.48h0Z" style="fill: #515979;"/>
  <path d="M181.17,456.772h-2.38v-12.16h2.38v12.16Z" style="fill: #515979;"/>
  <path d="M183.05,445.782c0-.78.43-1.16,1.3-1.16s1.3.39,1.3,1.16c0,.37-.11.66-.32.86-.21.2-.54.31-.97.31-.86,0-1.3-.39-1.3-1.17h-.01ZM185.53,456.772h-2.38v-8.73h2.38v8.73Z" style="fill: #515979;"/>
  <path d="M195.57,456.772h-2.38v-5.1c0-.63-.11-1.1-.34-1.42s-.58-.47-1.07-.47c-.67,0-1.15.22-1.45.67s-.45,1.18-.45,2.21v4.11h-2.38v-8.73h1.82l.32,1.12h.13c.27-.42.63-.74,1.1-.96s1-.32,1.59-.32c1.02,0,1.79.27,2.31.82.52.55.79,1.34.79,2.38v5.7l.01-.01h0Z" style="fill: #515979;"/>
  <path d="M201.51,456.932c-1.41,0-2.5-.39-3.3-1.16s-1.19-1.88-1.19-3.3.37-2.59,1.1-3.39c.73-.8,1.74-1.2,3.04-1.2s2.2.35,2.88,1.05c.68.7,1.03,1.67,1.03,2.91v1.16h-5.63c.03.68.23,1.21.6,1.59.37.38.9.57,1.58.57.53,0,1.02-.05,1.49-.16.47-.11.96-.28,1.47-.52v1.84c-.42.21-.86.36-1.34.46s-1.05.15-1.73.15h0ZM201.17,449.572c-.5,0-.9.16-1.19.48-.29.32-.45.77-.49,1.36h3.34c-.01-.59-.16-1.04-.46-1.36-.3-.32-.7-.48-1.2-.48h0Z" style="fill: #515979;"/>
  <path d="M209.62,452.392c0,1.37-.2,2.65-.61,3.83-.4,1.18-.99,2.21-1.75,3.09h-1.94c.7-.96,1.25-2.03,1.63-3.22.39-1.19.58-2.43.58-3.71s-.19-2.51-.56-3.71c-.37-1.2-.93-2.31-1.66-3.31h1.95c.77.91,1.35,1.97,1.75,3.18s.6,2.49.6,3.86l.01-.01h0Z" style="fill: #515979;"/>
  <path d="M354.74,456.932c-2.72,0-4.08-1.49-4.08-4.48,0-1.48.37-2.62,1.11-3.4s1.8-1.18,3.18-1.18c1.01,0,1.92.2,2.72.59l-.7,1.84c-.38-.15-.72-.27-1.05-.37s-.65-.14-.97-.14c-1.24,0-1.86.88-1.86,2.64s.62,2.56,1.86,2.56c.46,0,.88-.06,1.27-.18.39-.12.78-.31,1.17-.57v2.04c-.39.25-.77.41-1.17.51-.4.1-.89.14-1.49.14h.01Z" style="fill: #515979;"/>
  <path d="M366.8,452.392c0,1.42-.38,2.53-1.12,3.34s-1.79,1.2-3.13,1.2c-.84,0-1.58-.18-2.22-.55s-1.13-.89-1.48-1.58-.52-1.49-.52-2.41c0-1.43.37-2.54,1.12-3.33.75-.79,1.79-1.19,3.14-1.19.84,0,1.58.18,2.22.55s1.13.89,1.48,1.57.52,1.48.52,2.4h-.01ZM360.76,452.392c0,.86.14,1.52.43,1.96s.75.66,1.39.66,1.09-.22,1.37-.66.42-1.09.42-1.96-.14-1.51-.42-1.95-.74-.65-1.38-.65-1.09.21-1.38.64c-.29.43-.42,1.08-.42,1.95l-.01.01h0Z" style="fill: #515979;"/>
  <path d="M376.11,456.772h-2.38v-5.1c0-.63-.11-1.1-.32-1.42s-.54-.47-1-.47c-.61,0-1.05.22-1.33.67s-.41,1.18-.41,2.21v4.11h-2.38v-8.73h1.82l.32,1.12h.13c.23-.4.57-.71,1.02-.94.45-.23.95-.34,1.52-.34,1.31,0,2.19.43,2.66,1.28h.21c.23-.41.58-.72,1.04-.95.46-.23.97-.34,1.54-.34.99,0,1.74.25,2.25.76s.76,1.32.76,2.44v5.7h-2.39v-5.1c0-.63-.11-1.1-.32-1.42s-.54-.47-1-.47c-.58,0-1.02.21-1.31.62s-.43,1.08-.43,1.98v4.39h0Z" style="fill: #515979;"/>
  <path d="M388.28,456.932c-1.03,0-1.83-.37-2.41-1.12h-.12c.08.73.12,1.15.12,1.27v3.54h-2.38v-12.58h1.94l.34,1.13h.11c.56-.86,1.38-1.3,2.48-1.3,1.03,0,1.84.4,2.42,1.2s.88,1.9.88,3.32c0,.93-.14,1.74-.41,2.43s-.66,1.21-1.17,1.57c-.51.36-1.1.54-1.78.54h-.02ZM387.58,449.782c-.59,0-1.02.18-1.29.54-.27.36-.41.96-.42,1.79v.26c0,.94.14,1.61.42,2.02s.72.61,1.32.61c1.07,0,1.6-.88,1.6-2.64,0-.86-.13-1.5-.39-1.93s-.68-.64-1.24-.64v-.01h0Z" style="fill: #515979;"/>
  <path d="M397.21,456.932c-1.41,0-2.5-.39-3.3-1.16s-1.19-1.88-1.19-3.3.37-2.59,1.1-3.39c.73-.8,1.74-1.2,3.04-1.2s2.2.35,2.88,1.05c.68.7,1.03,1.67,1.03,2.91v1.16h-5.63c.03.68.23,1.21.6,1.59s.9.57,1.58.57c.53,0,1.02-.05,1.49-.16.47-.11.96-.28,1.47-.52v1.84c-.42.21-.86.36-1.34.46s-1.05.15-1.73.15h0ZM396.87,449.572c-.5,0-.9.16-1.19.48s-.45.77-.49,1.36h3.34c-.01-.59-.16-1.04-.46-1.36-.3-.32-.7-.48-1.2-.48Z" style="fill: #515979;"/>
  <path d="M406,455.032c.42,0,.92-.09,1.5-.27v1.77c-.59.27-1.32.4-2.19.4-.95,0-1.65-.24-2.08-.72s-.65-1.2-.65-2.17v-4.21h-1.14v-1.01l1.31-.8.69-1.84h1.52v1.86h2.45v1.79h-2.45v4.21c0,.34.09.59.29.75s.44.24.75.24h0Z" style="fill: #515979;"/>
  <path d="M408.66,445.782c0-.78.43-1.16,1.3-1.16s1.3.39,1.3,1.16c0,.37-.11.66-.32.86s-.54.31-.97.31c-.86,0-1.3-.39-1.3-1.17h-.01,0ZM411.15,456.772h-2.38v-8.73h2.38v8.73Z" style="fill: #515979;"/>
  <path d="M416.82,455.032c.42,0,.92-.09,1.5-.27v1.77c-.59.27-1.32.4-2.19.4-.95,0-1.65-.24-2.08-.72s-.65-1.2-.65-2.17v-4.21h-1.14v-1.01l1.31-.8.69-1.84h1.52v1.86h2.45v1.79h-2.45v4.21c0,.34.09.59.29.75s.44.24.75.24h0Z" style="fill: #515979;"/>
  <path d="M427.5,452.392c0,1.42-.38,2.53-1.12,3.34s-1.79,1.2-3.13,1.2c-.84,0-1.58-.18-2.22-.55s-1.13-.89-1.48-1.58c-.35-.69-.52-1.49-.52-2.41,0-1.43.37-2.54,1.12-3.33.75-.79,1.79-1.19,3.14-1.19.84,0,1.58.18,2.22.55s1.13.89,1.48,1.57.52,1.48.52,2.4h-.01ZM421.46,452.392c0,.86.14,1.52.43,1.96.29.44.75.66,1.39.66s1.09-.22,1.37-.66.42-1.09.42-1.96-.14-1.51-.42-1.95-.74-.65-1.38-.65-1.09.21-1.38.64c-.29.43-.42,1.08-.42,1.95l-.01.01h0Z" style="fill: #515979;"/>
  <path d="M433.87,447.872c.32,0,.59.02.8.07l-.18,2.23c-.19-.05-.43-.08-.7-.08-.76,0-1.35.2-1.78.59-.43.39-.64.94-.64,1.64v4.45h-2.38v-8.73h1.8l.35,1.47h.12c.27-.49.64-.88,1.1-1.18s.96-.45,1.5-.45l.01-.01h0Z" style="fill: #515979;"/>
  <path d="M441.37,456.772h-2.41v-6.61l.02-1.09.04-1.19c-.4.4-.68.66-.84.79l-1.31,1.05-1.16-1.45,3.68-2.93h1.98v11.43Z" style="fill: #515979;"/>
  <path d="M443.99,455.662c0-.44.12-.77.35-.99s.58-.34,1.02-.34.77.11,1,.34.36.56.36.98-.12.74-.36.97c-.24.24-.57.36-1,.36s-.78-.12-1.02-.35-.36-.56-.36-.98l.01.01h0Z" style="fill: #515979;"/>
  <path d="M451.95,456.932c-2.72,0-4.08-1.49-4.08-4.48,0-1.48.37-2.62,1.11-3.4s1.8-1.18,3.18-1.18c1.01,0,1.92.2,2.72.59l-.7,1.84c-.38-.15-.72-.27-1.05-.37s-.65-.14-.97-.14c-1.24,0-1.86.88-1.86,2.64s.62,2.56,1.86,2.56c.46,0,.88-.06,1.27-.18.39-.12.78-.31,1.17-.57v2.04c-.39.25-.77.41-1.17.51-.4.1-.89.14-1.49.14h.01Z" style="fill: #515979;"/>
  <path d="M464.01,452.392c0,1.42-.38,2.53-1.12,3.34s-1.79,1.2-3.13,1.2c-.84,0-1.58-.18-2.22-.55s-1.13-.89-1.48-1.58-.52-1.49-.52-2.41c0-1.43.37-2.54,1.12-3.33.75-.79,1.79-1.19,3.14-1.19.84,0,1.58.18,2.22.55s1.13.89,1.48,1.57.52,1.48.52,2.4h-.01ZM457.97,452.392c0,.86.14,1.52.43,1.96s.75.66,1.39.66,1.09-.22,1.37-.66.42-1.09.42-1.96-.14-1.51-.42-1.95-.74-.65-1.38-.65-1.09.21-1.38.64c-.29.43-.42,1.08-.42,1.95l-.01.01h0Z" style="fill: #515979;"/>
  <path d="M473.32,456.772h-2.38v-5.1c0-.63-.11-1.1-.32-1.42s-.54-.47-1-.47c-.61,0-1.05.22-1.33.67s-.41,1.18-.41,2.21v4.11h-2.38v-8.73h1.82l.32,1.12h.13c.23-.4.57-.71,1.02-.94.45-.23.95-.34,1.52-.34,1.31,0,2.19.43,2.66,1.28h.21c.23-.41.58-.72,1.04-.95s.97-.34,1.54-.34c.99,0,1.74.25,2.25.76s.76,1.32.76,2.44v5.7h-2.39v-5.1c0-.63-.11-1.1-.32-1.42s-.54-.47-1-.47c-.58,0-1.02.21-1.31.62s-.43,1.08-.43,1.98v4.39h0Z" style="fill: #515979;"/>
  <path d="M490.11,456.772l-.46-1.19h-.06c-.4.5-.81.86-1.24,1.05s-.98.29-1.66.29c-.84,0-1.5-.24-1.98-.72s-.72-1.16-.72-2.05.32-1.61.97-2.05,1.63-.68,2.93-.73l1.52-.05v-.38c0-.89-.45-1.33-1.36-1.33-.7,0-1.52.21-2.46.63l-.79-1.61c1-.53,2.12-.79,3.34-.79s2.07.25,2.7.77.94,1.29.94,2.33v5.82h-1.66l-.01.01h0ZM489.41,452.732l-.92.03c-.69.02-1.21.15-1.55.38s-.51.58-.51,1.05c0,.67.39,1.01,1.16,1.01.55,0,.99-.16,1.32-.48.33-.32.5-.74.5-1.27v-.72Z" style="fill: #515979;"/>
  <path d="M495.65,456.772l-3.33-8.73h2.49l1.69,4.98c.19.63.3,1.23.35,1.79h.05c.03-.5.14-1.1.35-1.79l1.68-4.98h2.49l-3.33,8.73h-2.45.01Z" style="fill: #515979;"/>
  <path d="M509.86,448.042v1.21l-1.37.35c.25.39.38.83.38,1.31,0,.94-.33,1.67-.98,2.19-.65.52-1.56.79-2.72.79l-.43-.02-.35-.04c-.25.19-.37.4-.37.62,0,.34.44.52,1.31.52h1.48c.96,0,1.69.21,2.19.62s.75,1.02.75,1.81c0,1.02-.43,1.81-1.28,2.38-.85.57-2.07.84-3.67.84-1.22,0-2.15-.21-2.79-.64-.64-.42-.96-1.02-.96-1.79,0-.53.16-.97.49-1.32s.81-.61,1.45-.76c-.25-.1-.46-.27-.64-.51-.18-.24-.27-.49-.27-.75,0-.33.1-.61.29-.83s.47-.44.84-.65c-.46-.2-.82-.52-1.09-.95s-.4-.95-.4-1.55c0-.95.31-1.69.93-2.21s1.5-.78,2.66-.78c.25,0,.54.02.87.07s.55.08.64.1h3.05l-.01-.01h0ZM503.12,458.012c0,.33.16.59.47.77s.76.28,1.32.28c.85,0,1.52-.12,2.01-.35s.73-.55.73-.96c0-.33-.14-.55-.43-.68s-.73-.19-1.33-.19h-1.23c-.44,0-.8.1-1.1.31-.29.21-.44.48-.44.82ZM503.99,450.902c0,.47.11.85.32,1.12s.55.41.99.41.78-.14.98-.41c.2-.27.31-.65.31-1.12,0-1.05-.43-1.58-1.3-1.58s-1.31.53-1.31,1.58h.01Z" style="fill: #515979;"/>
  <path d="M644.37,456.932c-2.72,0-4.08-1.49-4.08-4.48,0-1.48.37-2.62,1.11-3.4s1.8-1.18,3.18-1.18c1.01,0,1.92.2,2.72.59l-.7,1.84c-.38-.15-.72-.27-1.05-.37s-.65-.14-.97-.14c-1.24,0-1.86.88-1.86,2.64s.62,2.56,1.86,2.56c.46,0,.88-.06,1.27-.18s.78-.31,1.17-.57v2.04c-.39.25-.77.41-1.17.51-.4.1-.89.14-1.49.14h.01Z" style="fill: #515979;"/>
  <path d="M656.42,452.392c0,1.42-.38,2.53-1.12,3.34s-1.79,1.2-3.13,1.2c-.84,0-1.58-.18-2.22-.55s-1.13-.89-1.48-1.58c-.35-.69-.52-1.49-.52-2.41,0-1.43.37-2.54,1.12-3.33.75-.79,1.79-1.19,3.14-1.19.84,0,1.58.18,2.22.55s1.13.89,1.48,1.57.52,1.48.52,2.4h-.01ZM650.38,452.392c0,.86.14,1.52.43,1.96s.75.66,1.39.66,1.09-.22,1.37-.66c.28-.44.42-1.09.42-1.96s-.14-1.51-.42-1.95c-.28-.44-.74-.65-1.38-.65s-1.09.21-1.38.64c-.29.43-.42,1.08-.42,1.95l-.01.01h0Z" style="fill: #515979;"/>
  <path d="M665.73,456.772h-2.38v-5.1c0-.63-.11-1.1-.32-1.42s-.54-.47-1-.47c-.61,0-1.05.22-1.33.67s-.41,1.18-.41,2.21v4.11h-2.38v-8.73h1.82l.32,1.12h.13c.23-.4.57-.71,1.02-.94s.95-.34,1.52-.34c1.31,0,2.19.43,2.66,1.28h.21c.23-.41.58-.72,1.04-.95s.97-.34,1.54-.34c.99,0,1.74.25,2.25.76s.76,1.32.76,2.44v5.7h-2.39v-5.1c0-.63-.11-1.1-.32-1.42s-.54-.47-1-.47c-.58,0-1.02.21-1.31.62s-.43,1.08-.43,1.98v4.39h0Z" style="fill: #515979;"/>
  <path d="M677.9,456.932c-1.03,0-1.83-.37-2.41-1.12h-.12c.08.73.12,1.15.12,1.27v3.54h-2.38v-12.58h1.94l.34,1.13h.11c.56-.86,1.38-1.3,2.48-1.3,1.03,0,1.84.4,2.42,1.2.58.8.88,1.9.88,3.32,0,.93-.14,1.74-.41,2.43s-.66,1.21-1.17,1.57-1.1.54-1.78.54h-.02ZM677.2,449.782c-.59,0-1.02.18-1.29.54-.27.36-.41.96-.42,1.79v.26c0,.94.14,1.61.42,2.02.28.41.72.61,1.32.61,1.07,0,1.6-.88,1.6-2.64,0-.86-.13-1.5-.39-1.93s-.68-.64-1.24-.64v-.01h0Z" style="fill: #515979;"/>
  <path d="M686.83,456.932c-1.41,0-2.5-.39-3.3-1.16s-1.19-1.88-1.19-3.3.37-2.59,1.1-3.39,1.74-1.2,3.04-1.2,2.2.35,2.88,1.05c.68.7,1.03,1.67,1.03,2.91v1.16h-5.63c.03.68.23,1.21.6,1.59s.9.57,1.58.57c.53,0,1.02-.05,1.49-.16.47-.11.96-.28,1.47-.52v1.84c-.42.21-.86.36-1.34.46-.48.1-1.05.15-1.73.15h0ZM686.49,449.572c-.5,0-.9.16-1.19.48s-.45.77-.49,1.36h3.34c-.01-.59-.16-1.04-.46-1.36-.3-.32-.7-.48-1.2-.48Z" style="fill: #515979;"/>
  <path d="M695.62,455.032c.42,0,.92-.09,1.5-.27v1.77c-.59.27-1.32.4-2.19.4-.95,0-1.65-.24-2.08-.72s-.65-1.2-.65-2.17v-4.21h-1.14v-1.01l1.31-.8.69-1.84h1.52v1.86h2.45v1.79h-2.45v4.21c0,.34.09.59.29.75.2.16.44.24.75.24h0Z" style="fill: #515979;"/>
  <path d="M698.29,445.782c0-.78.43-1.16,1.3-1.16s1.3.39,1.3,1.16c0,.37-.11.66-.32.86s-.54.31-.97.31c-.86,0-1.3-.39-1.3-1.17h-.01ZM700.77,456.772h-2.38v-8.73h2.38v8.73Z" style="fill: #515979;"/>
  <path d="M706.44,455.032c.42,0,.92-.09,1.5-.27v1.77c-.59.27-1.32.4-2.19.4-.95,0-1.65-.24-2.08-.72s-.65-1.2-.65-2.17v-4.21h-1.14v-1.01l1.31-.8.69-1.84h1.52v1.86h2.45v1.79h-2.45v4.21c0,.34.09.59.29.75.2.16.44.24.75.24h0Z" style="fill: #515979;"/>
  <path d="M717.12,452.392c0,1.42-.38,2.53-1.12,3.34s-1.79,1.2-3.13,1.2c-.84,0-1.58-.18-2.22-.55-.64-.37-1.13-.89-1.48-1.58-.35-.69-.52-1.49-.52-2.41,0-1.43.37-2.54,1.12-3.33.75-.79,1.79-1.19,3.14-1.19.84,0,1.58.18,2.22.55s1.13.89,1.48,1.57.52,1.48.52,2.4h-.01ZM711.08,452.392c0,.86.14,1.52.43,1.96s.75.66,1.39.66,1.09-.22,1.37-.66c.28-.44.42-1.09.42-1.96s-.14-1.51-.42-1.95c-.28-.44-.74-.65-1.38-.65s-1.09.21-1.38.64c-.29.43-.42,1.08-.42,1.95l-.01.01h0Z" style="fill: #515979;"/>
  <path d="M723.49,447.872c.32,0,.59.02.8.07l-.18,2.23c-.19-.05-.43-.08-.7-.08-.76,0-1.35.2-1.78.59-.43.39-.64.94-.64,1.64v4.45h-2.38v-8.73h1.8l.35,1.47h.12c.27-.49.64-.88,1.1-1.18.46-.3.96-.45,1.5-.45l.01-.01h0Z" style="fill: #515979;"/>
  <path d="M732.77,456.772h-7.98v-1.68l2.87-2.9c.85-.87,1.4-1.47,1.66-1.81.26-.34.45-.65.56-.93s.17-.58.17-.89c0-.46-.13-.8-.38-1.02s-.59-.34-1.01-.34-.87.1-1.29.3c-.42.2-.85.49-1.3.87l-1.31-1.55c.56-.48,1.03-.82,1.4-1.02.37-.2.77-.35,1.21-.46s.93-.16,1.47-.16c.71,0,1.34.13,1.89.39s.97.62,1.27,1.09c.3.47.45,1,.45,1.61,0,.53-.09,1.02-.28,1.48-.19.46-.47.93-.86,1.42-.39.49-1.07,1.17-2.05,2.07l-1.47,1.38v.11h4.98v2.04h0Z" style="fill: #515979;"/>
  <path d="M734.37,455.662c0-.44.12-.77.35-.99s.58-.34,1.02-.34.77.11,1,.34.36.56.36.98-.12.74-.36.97c-.24.24-.57.36-1,.36s-.78-.12-1.02-.35-.36-.56-.36-.98l.01.01Z" style="fill: #515979;"/>
  <path d="M742.33,456.932c-2.72,0-4.08-1.49-4.08-4.48,0-1.48.37-2.62,1.11-3.4s1.8-1.18,3.18-1.18c1.01,0,1.92.2,2.72.59l-.7,1.84c-.38-.15-.72-.27-1.05-.37s-.65-.14-.97-.14c-1.24,0-1.86.88-1.86,2.64s.62,2.56,1.86,2.56c.46,0,.88-.06,1.27-.18s.78-.31,1.17-.57v2.04c-.39.25-.77.41-1.17.51-.4.1-.89.14-1.49.14h.01Z" style="fill: #515979;"/>
  <path d="M754.38,452.392c0,1.42-.38,2.53-1.12,3.34s-1.79,1.2-3.13,1.2c-.84,0-1.58-.18-2.22-.55-.64-.37-1.13-.89-1.48-1.58-.35-.69-.52-1.49-.52-2.41,0-1.43.37-2.54,1.12-3.33.75-.79,1.79-1.19,3.14-1.19.84,0,1.58.18,2.22.55s1.13.89,1.48,1.57.52,1.48.52,2.4h-.01ZM748.34,452.392c0,.86.14,1.52.43,1.96s.75.66,1.39.66,1.09-.22,1.37-.66c.28-.44.42-1.09.42-1.96s-.14-1.51-.42-1.95c-.28-.44-.74-.65-1.38-.65s-1.09.21-1.38.64c-.29.43-.42,1.08-.42,1.95l-.01.01h0Z" style="fill: #515979;"/>
  <path d="M763.7,456.772h-2.38v-5.1c0-.63-.11-1.1-.32-1.42s-.54-.47-1-.47c-.61,0-1.05.22-1.33.67s-.41,1.18-.41,2.21v4.11h-2.38v-8.73h1.82l.32,1.12h.13c.23-.4.57-.71,1.02-.94s.95-.34,1.52-.34c1.31,0,2.19.43,2.66,1.28h.21c.23-.41.58-.72,1.04-.95.46-.23.97-.34,1.54-.34.99,0,1.74.25,2.25.76s.76,1.32.76,2.44v5.7h-2.39v-5.1c0-.63-.11-1.1-.32-1.42s-.54-.47-1-.47c-.58,0-1.02.21-1.31.62s-.43,1.08-.43,1.98v4.39h0Z" style="fill: #515979;"/>
  <path d="M780.49,456.772l-.46-1.19h-.06c-.4.5-.81.86-1.24,1.05s-.98.29-1.66.29c-.84,0-1.5-.24-1.98-.72s-.72-1.16-.72-2.05.32-1.61.97-2.05c.65-.44,1.63-.68,2.93-.73l1.52-.05v-.38c0-.89-.45-1.33-1.36-1.33-.7,0-1.52.21-2.46.63l-.79-1.61c1-.53,2.12-.79,3.34-.79s2.07.25,2.7.77.94,1.29.94,2.33v5.82h-1.66l-.01.01h0ZM779.79,452.732l-.92.03c-.69.02-1.21.15-1.55.38-.34.23-.51.58-.51,1.05,0,.67.39,1.01,1.16,1.01.55,0,.99-.16,1.32-.48s.5-.74.5-1.27v-.72Z" style="fill: #515979;"/>
  <path d="M786.03,456.772l-3.33-8.73h2.49l1.69,4.98c.19.63.3,1.23.35,1.79h.05c.03-.5.14-1.1.35-1.79l1.68-4.98h2.49l-3.33,8.73h-2.45.01Z" style="fill: #515979;"/>
  <path d="M800.24,448.042v1.21l-1.37.35c.25.39.38.83.38,1.31,0,.94-.33,1.67-.98,2.19-.65.52-1.56.79-2.72.79l-.43-.02-.35-.04c-.25.19-.37.4-.37.62,0,.34.44.52,1.31.52h1.48c.96,0,1.69.21,2.19.62s.75,1.02.75,1.81c0,1.02-.43,1.81-1.28,2.38-.85.57-2.07.84-3.67.84-1.22,0-2.15-.21-2.79-.64-.64-.42-.96-1.02-.96-1.79,0-.53.16-.97.49-1.32s.81-.61,1.45-.76c-.25-.1-.46-.27-.64-.51s-.27-.49-.27-.75c0-.33.1-.61.29-.83s.47-.44.84-.65c-.46-.2-.82-.52-1.09-.95s-.4-.95-.4-1.55c0-.95.31-1.69.93-2.21s1.5-.78,2.66-.78c.25,0,.54.02.87.07s.55.08.64.1h3.05l-.01-.01h0ZM793.5,458.012c0,.33.16.59.47.77s.76.28,1.32.28c.85,0,1.52-.12,2.01-.35s.73-.55.73-.96c0-.33-.14-.55-.43-.68s-.73-.19-1.33-.19h-1.23c-.44,0-.8.1-1.1.31-.29.21-.44.48-.44.82ZM794.37,450.902c0,.47.11.85.32,1.12s.55.41.99.41.78-.14.98-.41c.2-.27.31-.65.31-1.12,0-1.05-.43-1.58-1.3-1.58s-1.31.53-1.31,1.58h.01Z" style="fill: #515979;"/>
  <path d="M935.11,456.932c-2.72,0-4.08-1.49-4.08-4.48,0-1.48.37-2.62,1.11-3.4s1.8-1.18,3.18-1.18c1.01,0,1.92.2,2.72.59l-.7,1.84c-.38-.15-.72-.27-1.05-.37s-.65-.14-.97-.14c-1.24,0-1.86.88-1.86,2.64s.62,2.56,1.86,2.56c.46,0,.88-.06,1.27-.18s.78-.31,1.17-.57v2.04c-.39.25-.77.41-1.17.51-.4.1-.89.14-1.49.14h.01Z" style="fill: #515979;"/>
  <path d="M947.17,452.392c0,1.42-.38,2.53-1.12,3.34s-1.79,1.2-3.13,1.2c-.84,0-1.58-.18-2.22-.55s-1.13-.89-1.48-1.58c-.35-.69-.52-1.49-.52-2.41,0-1.43.37-2.54,1.12-3.33.75-.79,1.79-1.19,3.14-1.19.84,0,1.58.18,2.22.55s1.13.89,1.48,1.57.52,1.48.52,2.4h-.01ZM941.13,452.392c0,.86.14,1.52.43,1.96s.75.66,1.39.66,1.09-.22,1.37-.66c.28-.44.42-1.09.42-1.96s-.14-1.51-.42-1.95c-.28-.44-.74-.65-1.38-.65s-1.09.21-1.38.64c-.29.43-.42,1.08-.42,1.95l-.01.01h0Z" style="fill: #515979;"/>
  <path d="M956.48,456.772h-2.38v-5.1c0-.63-.11-1.1-.32-1.42s-.54-.47-1-.47c-.61,0-1.05.22-1.33.67s-.41,1.18-.41,2.21v4.11h-2.38v-8.73h1.82l.32,1.12h.13c.23-.4.57-.71,1.02-.94s.95-.34,1.52-.34c1.31,0,2.19.43,2.66,1.28h.21c.23-.41.58-.72,1.04-.95s.97-.34,1.54-.34c.99,0,1.74.25,2.25.76s.76,1.32.76,2.44v5.7h-2.39v-5.1c0-.63-.11-1.1-.32-1.42s-.54-.47-1-.47c-.58,0-1.02.21-1.31.62s-.43,1.08-.43,1.98v4.39h0Z" style="fill: #515979;"/>
  <path d="M968.65,456.932c-1.03,0-1.83-.37-2.41-1.12h-.12c.08.73.12,1.15.12,1.27v3.54h-2.38v-12.58h1.94l.34,1.13h.11c.56-.86,1.38-1.3,2.48-1.3,1.03,0,1.84.4,2.42,1.2.58.8.88,1.9.88,3.32,0,.93-.14,1.74-.41,2.43s-.66,1.21-1.17,1.57-1.1.54-1.78.54h-.02ZM967.95,449.782c-.59,0-1.02.18-1.29.54-.27.36-.41.96-.42,1.79v.26c0,.94.14,1.61.42,2.02.28.41.72.61,1.32.61,1.07,0,1.6-.88,1.6-2.64,0-.86-.13-1.5-.39-1.93s-.68-.64-1.24-.64v-.01h0Z" style="fill: #515979;"/>
  <path d="M977.58,456.932c-1.41,0-2.5-.39-3.3-1.16s-1.19-1.88-1.19-3.3.37-2.59,1.1-3.39,1.74-1.2,3.04-1.2,2.2.35,2.88,1.05c.68.7,1.03,1.67,1.03,2.91v1.16h-5.63c.03.68.23,1.21.6,1.59s.9.57,1.58.57c.53,0,1.02-.05,1.49-.16.47-.11.96-.28,1.47-.52v1.84c-.42.21-.86.36-1.34.46-.48.1-1.05.15-1.73.15h0ZM977.24,449.572c-.5,0-.9.16-1.19.48s-.45.77-.49,1.36h3.34c-.01-.59-.16-1.04-.46-1.36-.3-.32-.7-.48-1.2-.48Z" style="fill: #515979;"/>
  <path d="M986.37,455.033c.42,0,.92-.09,1.5-.27v1.77c-.59.27-1.32.4-2.19.4-.95,0-1.65-.24-2.08-.72s-.65-1.2-.65-2.17v-4.21h-1.139v-1.01l1.309-.8.69-1.84h1.52v1.86h2.45v1.79h-2.45v4.21c0,.34.09.59.29.75.2.16.44.24.75.24h0Z" style="fill: #515979;"/>
  <path d="M989.03,445.782c0-.78.43-1.16,1.3-1.16s1.3.39,1.3,1.16c0,.37-.11.66-.32.86s-.54.31-.97.31c-.86,0-1.3-.39-1.3-1.17h-.01ZM991.52,456.772h-2.38v-8.73h2.38v8.73Z" style="fill: #515979;"/>
  <path d="M997.19,455.033c.42,0,.92-.09,1.5-.27v1.77c-.59.27-1.32.4-2.19.4-.95,0-1.65-.24-2.08-.72s-.65-1.2-.65-2.17v-4.21h-1.14v-1.01l1.31-.8.69-1.84h1.52v1.86h2.45v1.79h-2.45v4.21c0,.34.09.59.29.75.2.16.44.24.75.24h0Z" style="fill: #515979;"/>
  <path d="M1007.87,452.392c0,1.42-.38,2.53-1.12,3.34s-1.79,1.2-3.13,1.2c-.84,0-1.58-.18-2.22-.55-.64-.37-1.13-.89-1.48-1.58-.35-.69-.52-1.49-.52-2.41,0-1.43.37-2.54,1.12-3.33.75-.79,1.79-1.19,3.14-1.19.84,0,1.58.18,2.22.55.64.37,1.13.89,1.48,1.57s.52,1.48.52,2.4h-.01ZM1001.83,452.392c0,.86.14,1.52.43,1.96s.75.66,1.39.66,1.09-.22,1.37-.66c.28-.44.42-1.09.42-1.96s-.14-1.51-.42-1.95c-.28-.44-.74-.65-1.38-.65s-1.09.21-1.38.64c-.29.43-.42,1.08-.42,1.95l-.01.01h0Z" style="fill: #515979;"/>
  <path d="M1014.24,447.872c.32,0,.59.02.8.07l-.18,2.23c-.19-.05-.43-.08-.7-.08-.76,0-1.35.2-1.78.59-.43.39-.64.94-.64,1.64v4.45h-2.38v-8.73h1.8l.35,1.47h.12c.27-.49.64-.88,1.1-1.18s.96-.45,1.5-.45l.01-.01h0Z" style="fill: #515979;"/>
  <path d="M1022.98,447.912c0,.71-.22,1.32-.65,1.82s-1.04.84-1.82,1.03v.05c.92.11,1.62.39,2.09.84s.71,1.05.71,1.8c0,1.1-.4,1.95-1.2,2.57-.8.62-1.93.92-3.41.92-1.24,0-2.34-.21-3.3-.62v-2.05c.44.22.93.41,1.46.55s1.06.21,1.58.21c.8,0,1.39-.14,1.77-.41s.57-.71.57-1.3c0-.54-.22-.92-.66-1.14s-1.14-.34-2.09-.34h-.87v-1.85h.88c.89,0,1.53-.12,1.94-.35s.61-.63.61-1.19c0-.86-.54-1.3-1.62-1.3-.38,0-.76.06-1.14.19s-.82.34-1.29.65l-1.12-1.66c1.04-.75,2.28-1.12,3.73-1.12,1.18,0,2.12.24,2.8.72s1.03,1.15,1.03,2v-.02h0Z" style="fill: #515979;"/>
  <path d="M1024.62,455.662c0-.44.12-.77.35-.99s.58-.34,1.02-.34.77.11,1,.34.36.56.36.98-.12.74-.36.97c-.24.24-.57.36-1,.36s-.78-.12-1.02-.35-.36-.56-.36-.98l.01.01Z" style="fill: #515979;"/>
  <path d="M1032.58,456.932c-2.72,0-4.08-1.49-4.08-4.48,0-1.48.37-2.62,1.11-3.4s1.8-1.18,3.18-1.18c1.01,0,1.92.2,2.72.59l-.7,1.84c-.38-.15-.72-.27-1.05-.37-.33-.1-.65-.14-.97-.14-1.24,0-1.86.88-1.86,2.64s.62,2.56,1.86,2.56c.46,0,.88-.06,1.27-.18s.78-.31,1.17-.57v2.04c-.39.25-.77.41-1.17.51s-.89.14-1.49.14h.01,0Z" style="fill: #515979;"/>
  <path d="M1044.64,452.392c0,1.42-.38,2.53-1.12,3.34s-1.79,1.2-3.13,1.2c-.84,0-1.58-.18-2.22-.55s-1.13-.89-1.48-1.58c-.35-.69-.52-1.49-.52-2.41,0-1.43.37-2.54,1.12-3.33.75-.79,1.79-1.19,3.14-1.19.84,0,1.58.18,2.22.55s1.13.89,1.48,1.57.52,1.48.52,2.4h-.01ZM1038.6,452.392c0,.86.14,1.52.43,1.96s.75.66,1.39.66,1.09-.22,1.37-.66.42-1.09.42-1.96-.14-1.51-.42-1.95-.74-.65-1.38-.65-1.09.21-1.38.64c-.29.43-.42,1.08-.42,1.95l-.01.01h0Z" style="fill: #515979;"/>
  <path d="M1053.95,456.772h-2.38v-5.1c0-.63-.11-1.1-.32-1.42s-.54-.47-1-.47c-.61,0-1.05.22-1.33.67-.28.45-.41,1.18-.41,2.21v4.11h-2.38v-8.73h1.82l.32,1.12h.13c.23-.4.57-.71,1.02-.94.45-.23.95-.34,1.52-.34,1.31,0,2.19.43,2.66,1.28h.21c.23-.41.58-.72,1.04-.95.46-.23.97-.34,1.54-.34.99,0,1.74.25,2.25.76s.76,1.32.76,2.44v5.7h-2.39v-5.1c0-.63-.11-1.1-.32-1.42s-.54-.47-1-.47c-.58,0-1.02.21-1.31.62s-.43,1.08-.43,1.98v4.39h0Z" style="fill: #515979;"/>
  <path d="M1070.74,456.772l-.46-1.19h-.06c-.4.5-.81.86-1.24,1.05-.43.19-.98.29-1.66.29-.84,0-1.5-.24-1.98-.72s-.72-1.16-.72-2.05.32-1.61.97-2.05,1.63-.68,2.93-.73l1.52-.05v-.38c0-.89-.45-1.33-1.36-1.33-.7,0-1.52.21-2.46.63l-.79-1.61c1-.53,2.12-.79,3.34-.79s2.07.25,2.7.77.94,1.29.94,2.33v5.82h-1.66l-.01.01h0ZM1070.04,452.732l-.92.03c-.69.02-1.21.15-1.55.38-.34.23-.51.58-.51,1.05,0,.67.39,1.01,1.16,1.01.55,0,.99-.16,1.32-.48s.5-.74.5-1.27v-.72h0Z" style="fill: #515979;"/>
  <path d="M1076.28,456.772l-3.33-8.73h2.49l1.69,4.98c.19.63.3,1.23.35,1.79h.05c.03-.5.14-1.1.35-1.79l1.68-4.98h2.49l-3.33,8.73h-2.45.01,0Z" style="fill: #515979;"/>
  <path d="M1090.5,448.042v1.21l-1.37.35c.25.39.38.83.38,1.31,0,.94-.33,1.67-.98,2.19s-1.56.79-2.72.79l-.43-.02-.35-.04c-.25.19-.37.4-.37.62,0,.34.44.52,1.31.52h1.48c.96,0,1.69.21,2.19.62s.75,1.02.75,1.81c0,1.02-.43,1.81-1.28,2.38s-2.07.84-3.67.84c-1.22,0-2.15-.21-2.79-.64-.64-.42-.96-1.02-.96-1.79,0-.53.16-.97.49-1.32s.81-.61,1.45-.76c-.25-.1-.46-.27-.64-.51-.18-.24-.27-.49-.27-.75,0-.33.1-.61.29-.83.19-.22.47-.44.84-.65-.46-.2-.82-.52-1.09-.95s-.4-.95-.4-1.55c0-.95.31-1.69.93-2.21s1.5-.78,2.66-.78c.25,0,.54.02.87.07.33.05.55.08.64.1h3.05l-.01-.01h0ZM1083.75,458.012c0,.33.16.59.47.77.31.18.76.28,1.32.28.85,0,1.52-.12,2.01-.35s.73-.55.73-.96c0-.33-.14-.55-.43-.68s-.73-.19-1.33-.19h-1.23c-.44,0-.8.1-1.1.31-.29.21-.44.48-.44.82ZM1084.62,450.902c0,.47.11.85.32,1.12s.55.41.99.41.78-.14.98-.41.31-.65.31-1.12c0-1.05-.43-1.58-1.3-1.58s-1.31.53-1.31,1.58h.01Z" style="fill: #515979;"/>
  <path d="M80,157.462h-1c-.55,0-1-.45-1-1s.45-1,1-1h1c.55,0,1,.45,1,1s-.45,1-1,1Z" style="fill: #dcdee4;"/>
  <path d="M1089.03,157.462h-1.99c-.55,0-1-.45-1-1s.45-1,1-1h1.99c.55,0,1,.45,1,1s-.45,1-1,1ZM1078.06,157.462h-1.99c-.55,0-1-.45-1-1s.45-1,1-1h1.99c.55,0,1,.45,1,1s-.45,1-1,1ZM1067.09,157.462h-1.99c-.55,0-1-.45-1-1s.45-1,1-1h1.99c.55,0,1,.45,1,1s-.45,1-1,1ZM1056.12,157.462h-1.99c-.55,0-1-.45-1-1s.45-1,1-1h1.99c.55,0,1,.45,1,1s-.45,1-1,1ZM1045.16,157.462h-1.99c-.55,0-1-.45-1-1s.45-1,1-1h1.99c.55,0,1,.45,1,1s-.45,1-1,1ZM1034.19,157.462h-1.99c-.55,0-1-.45-1-1s.45-1,1-1h1.99c.55,0,1,.45,1,1s-.45,1-1,1ZM1023.22,157.462h-1.99c-.55,0-1-.45-1-1s.45-1,1-1h1.99c.55,0,1,.45,1,1s-.45,1-1,1ZM1012.25,157.462h-1.99c-.55,0-1-.45-1-1s.45-1,1-1h1.99c.55,0,1,.45,1,1s-.45,1-1,1ZM1001.29,157.462h-1.99c-.55,0-1-.45-1-1s.45-1,1-1h1.99c.55,0,1,.45,1,1s-.45,1-1,1ZM990.32,157.462h-1.99c-.55,0-1-.45-1-1s.45-1,1-1h1.99c.55,0,1,.45,1,1s-.45,1-1,1ZM979.35,157.462h-1.99c-.55,0-1-.45-1-1s.45-1,1-1h1.99c.55,0,1,.45,1,1s-.45,1-1,1ZM968.38,157.462h-1.99c-.55,0-1-.45-1-1s.45-1,1-1h1.99c.55,0,1,.45,1,1s-.45,1-1,1ZM957.42,157.462h-1.99c-.55,0-1-.45-1-1s.45-1,1-1h1.99c.55,0,1,.45,1,1s-.45,1-1,1ZM946.45,157.462h-1.99c-.55,0-1-.45-1-1s.45-1,1-1h1.99c.55,0,1,.45,1,1s-.45,1-1,1ZM935.48,157.462h-1.99c-.55,0-1-.45-1-1s.45-1,1-1h1.99c.55,0,1,.45,1,1s-.45,1-1,1ZM924.51,157.462h-1.99c-.55,0-1-.45-1-1s.45-1,1-1h1.99c.55,0,1,.45,1,1s-.45,1-1,1ZM913.54,157.462h-1.99c-.55,0-1-.45-1-1s.45-1,1-1h1.99c.55,0,1,.45,1,1s-.45,1-1,1ZM902.58,157.462h-1.99c-.55,0-1-.45-1-1s.45-1,1-1h1.99c.55,0,1,.45,1,1s-.45,1-1,1ZM891.61,157.462h-1.99c-.55,0-1-.45-1-1s.45-1,1-1h1.99c.55,0,1,.45,1,1s-.45,1-1,1ZM880.64,157.462h-1.99c-.55,0-1-.45-1-1s.45-1,1-1h1.99c.55,0,1,.45,1,1s-.45,1-1,1ZM869.67,157.462h-1.99c-.55,0-1-.45-1-1s.45-1,1-1h1.99c.55,0,1,.45,1,1s-.45,1-1,1ZM858.71,157.462h-1.99c-.55,0-1-.45-1-1s.45-1,1-1h1.99c.55,0,1,.45,1,1s-.45,1-1,1ZM847.74,157.462h-1.99c-.55,0-1-.45-1-1s.45-1,1-1h1.99c.55,0,1,.45,1,1s-.45,1-1,1ZM836.77,157.462h-1.99c-.55,0-1-.45-1-1s.45-1,1-1h1.99c.55,0,1,.45,1,1s-.45,1-1,1ZM825.8,157.462h-1.99c-.55,0-1-.45-1-1s.45-1,1-1h1.99c.55,0,1,.45,1,1s-.45,1-1,1ZM814.83,157.462h-1.99c-.55,0-1-.45-1-1s.45-1,1-1h1.99c.55,0,1,.45,1,1s-.45,1-1,1ZM803.87,157.462h-1.99c-.55,0-1-.45-1-1s.45-1,1-1h1.99c.55,0,1,.45,1,1s-.45,1-1,1ZM792.9,157.462h-1.99c-.55,0-1-.45-1-1s.45-1,1-1h1.99c.55,0,1,.45,1,1s-.45,1-1,1ZM781.93,157.462h-1.99c-.55,0-1-.45-1-1s.45-1,1-1h1.99c.55,0,1,.45,1,1s-.45,1-1,1ZM770.96,157.462h-1.99c-.55,0-1-.45-1-1s.45-1,1-1h1.99c.55,0,1,.45,1,1s-.45,1-1,1ZM760,157.462h-1.99c-.55,0-1-.45-1-1s.45-1,1-1h1.99c.55,0,1,.45,1,1s-.45,1-1,1ZM749.03,157.462h-1.99c-.55,0-1-.45-1-1s.45-1,1-1h1.99c.55,0,1,.45,1,1s-.45,1-1,1ZM738.06,157.462h-1.99c-.55,0-1-.45-1-1s.45-1,1-1h1.99c.55,0,1,.45,1,1s-.45,1-1,1ZM727.09,157.462h-1.99c-.55,0-1-.45-1-1s.45-1,1-1h1.99c.55,0,1,.45,1,1s-.45,1-1,1ZM716.12,157.462h-1.99c-.55,0-1-.45-1-1s.45-1,1-1h1.99c.55,0,1,.45,1,1s-.45,1-1,1ZM705.16,157.462h-1.99c-.55,0-1-.45-1-1s.45-1,1-1h1.99c.55,0,1,.45,1,1s-.45,1-1,1ZM694.19,157.462h-1.99c-.55,0-1-.45-1-1s.45-1,1-1h1.99c.55,0,1,.45,1,1s-.45,1-1,1ZM683.22,157.462h-1.99c-.55,0-1-.45-1-1s.45-1,1-1h1.99c.55,0,1,.45,1,1s-.45,1-1,1ZM672.25,157.462h-1.99c-.55,0-1-.45-1-1s.45-1,1-1h1.99c.55,0,1,.45,1,1s-.45,1-1,1ZM661.29,157.462h-1.99c-.55,0-1-.45-1-1s.45-1,1-1h1.99c.55,0,1,.45,1,1s-.45,1-1,1ZM650.32,157.462h-1.99c-.55,0-1-.45-1-1s.45-1,1-1h1.99c.55,0,1,.45,1,1s-.45,1-1,1ZM639.35,157.462h-1.99c-.55,0-1-.45-1-1s.45-1,1-1h1.99c.55,0,1,.45,1,1s-.45,1-1,1ZM628.38,157.462h-1.99c-.55,0-1-.45-1-1s.45-1,1-1h1.99c.55,0,1,.45,1,1s-.45,1-1,1ZM617.42,157.462h-1.99c-.55,0-1-.45-1-1s.45-1,1-1h1.99c.55,0,1,.45,1,1s-.45,1-1,1ZM606.45,157.462h-1.99c-.55,0-1-.45-1-1s.45-1,1-1h1.99c.55,0,1,.45,1,1s-.45,1-1,1ZM595.48,157.462h-1.99c-.55,0-1-.45-1-1s.45-1,1-1h1.99c.55,0,1,.45,1,1s-.45,1-1,1ZM584.51,157.462h-1.99c-.55,0-1-.45-1-1s.45-1,1-1h1.99c.55,0,1,.45,1,1s-.45,1-1,1ZM573.54,157.462h-1.99c-.55,0-1-.45-1-1s.45-1,1-1h1.99c.55,0,1,.45,1,1s-.45,1-1,1ZM562.58,157.462h-1.99c-.55,0-1-.45-1-1s.45-1,1-1h1.99c.55,0,1,.45,1,1s-.45,1-1,1ZM551.61,157.462h-1.99c-.55,0-1-.45-1-1s.45-1,1-1h1.99c.55,0,1,.45,1,1s-.45,1-1,1ZM540.64,157.462h-1.99c-.55,0-1-.45-1-1s.45-1,1-1h1.99c.55,0,1,.45,1,1s-.45,1-1,1ZM529.67,157.462h-1.99c-.55,0-1-.45-1-1s.45-1,1-1h1.99c.55,0,1,.45,1,1s-.45,1-1,1ZM518.71,157.462h-1.99c-.55,0-1-.45-1-1s.45-1,1-1h1.99c.55,0,1,.45,1,1s-.45,1-1,1ZM507.74,157.462h-1.99c-.55,0-1-.45-1-1s.45-1,1-1h1.99c.55,0,1,.45,1,1s-.45,1-1,1ZM496.77,157.462h-1.99c-.55,0-1-.45-1-1s.45-1,1-1h1.99c.55,0,1,.45,1,1s-.45,1-1,1ZM485.8,157.462h-1.99c-.55,0-1-.45-1-1s.45-1,1-1h1.99c.55,0,1,.45,1,1s-.45,1-1,1ZM474.84,157.462h-1.99c-.55,0-1-.45-1-1s.45-1,1-1h1.99c.55,0,1,.45,1,1s-.45,1-1,1ZM463.87,157.462h-1.99c-.55,0-1-.45-1-1s.45-1,1-1h1.99c.55,0,1,.45,1,1s-.45,1-1,1ZM452.9,157.462h-1.99c-.55,0-1-.45-1-1s.45-1,1-1h1.99c.55,0,1,.45,1,1s-.45,1-1,1ZM441.93,157.462h-1.99c-.55,0-1-.45-1-1s.45-1,1-1h1.99c.55,0,1,.45,1,1s-.45,1-1,1ZM430.97,157.462h-1.99c-.55,0-1-.45-1-1s.45-1,1-1h1.99c.55,0,1,.45,1,1s-.45,1-1,1ZM420,157.462h-1.99c-.55,0-1-.45-1-1s.45-1,1-1h1.99c.55,0,1,.45,1,1s-.45,1-1,1ZM409.03,157.462h-1.99c-.55,0-1-.45-1-1s.45-1,1-1h1.99c.55,0,1,.45,1,1s-.45,1-1,1ZM398.06,157.462h-1.99c-.55,0-1-.45-1-1s.45-1,1-1h1.99c.55,0,1,.45,1,1s-.45,1-1,1ZM387.1,157.462h-1.99c-.55,0-1-.45-1-1s.45-1,1-1h1.99c.55,0,1,.45,1,1s-.45,1-1,1ZM376.13,157.462h-1.99c-.55,0-1-.45-1-1s.45-1,1-1h1.99c.55,0,1,.45,1,1s-.45,1-1,1ZM365.16,157.462h-1.99c-.55,0-1-.45-1-1s.45-1,1-1h1.99c.55,0,1,.45,1,1s-.45,1-1,1ZM354.19,157.462h-1.99c-.55,0-1-.45-1-1s.45-1,1-1h1.99c.55,0,1,.45,1,1s-.45,1-1,1ZM343.22,157.462h-1.99c-.55,0-1-.45-1-1s.45-1,1-1h1.99c.55,0,1,.45,1,1s-.45,1-1,1ZM332.26,157.462h-1.99c-.55,0-1-.45-1-1s.45-1,1-1h1.99c.55,0,1,.45,1,1s-.45,1-1,1ZM321.29,157.462h-1.99c-.55,0-1-.45-1-1s.45-1,1-1h1.99c.55,0,1,.45,1,1s-.45,1-1,1ZM310.32,157.462h-1.99c-.55,0-1-.45-1-1s.45-1,1-1h1.99c.55,0,1,.45,1,1s-.45,1-1,1ZM299.35,157.462h-1.99c-.55,0-1-.45-1-1s.45-1,1-1h1.99c.55,0,1,.45,1,1s-.45,1-1,1ZM288.39,157.462h-1.99c-.55,0-1-.45-1-1s.45-1,1-1h1.99c.55,0,1,.45,1,1s-.45,1-1,1ZM277.42,157.462h-1.99c-.55,0-1-.45-1-1s.45-1,1-1h1.99c.55,0,1,.45,1,1s-.45,1-1,1ZM266.45,157.462h-1.99c-.55,0-1-.45-1-1s.45-1,1-1h1.99c.55,0,1,.45,1,1s-.45,1-1,1ZM255.48,157.462h-1.99c-.55,0-1-.45-1-1s.45-1,1-1h1.99c.55,0,1,.45,1,1s-.45,1-1,1ZM244.52,157.462h-1.99c-.55,0-1-.45-1-1s.45-1,1-1h1.99c.55,0,1,.45,1,1s-.45,1-1,1ZM233.55,157.462h-1.99c-.55,0-1-.45-1-1s.45-1,1-1h1.99c.55,0,1,.45,1,1s-.45,1-1,1ZM222.58,157.462h-1.99c-.55,0-1-.45-1-1s.45-1,1-1h1.99c.55,0,1,.45,1,1s-.45,1-1,1ZM211.61,157.462h-1.99c-.55,0-1-.45-1-1s.45-1,1-1h1.99c.55,0,1,.45,1,1s-.45,1-1,1ZM200.64,157.462h-1.99c-.55,0-1-.45-1-1s.45-1,1-1h1.99c.55,0,1,.45,1,1s-.45,1-1,1ZM189.68,157.462h-1.99c-.55,0-1-.45-1-1s.45-1,1-1h1.99c.55,0,1,.45,1,1s-.45,1-1,1ZM178.71,157.462h-1.99c-.55,0-1-.45-1-1s.45-1,1-1h1.99c.55,0,1,.45,1,1s-.45,1-1,1ZM167.74,157.462h-1.99c-.55,0-1-.45-1-1s.45-1,1-1h1.99c.55,0,1,.45,1,1s-.45,1-1,1ZM156.77,157.462h-1.99c-.55,0-1-.45-1-1s.45-1,1-1h1.99c.55,0,1,.45,1,1s-.45,1-1,1ZM145.81,157.462h-1.99c-.55,0-1-.45-1-1s.45-1,1-1h1.99c.55,0,1,.45,1,1s-.45,1-1,1ZM134.84,157.462h-1.99c-.55,0-1-.45-1-1s.45-1,1-1h1.99c.55,0,1,.45,1,1s-.45,1-1,1ZM123.87,157.462h-1.99c-.55,0-1-.45-1-1s.45-1,1-1h1.99c.55,0,1,.45,1,1s-.45,1-1,1ZM112.9,157.462h-1.99c-.55,0-1-.45-1-1s.45-1,1-1h1.99c.55,0,1,.45,1,1s-.45,1-1,1ZM101.94,157.462h-1.99c-.55,0-1-.45-1-1s.45-1,1-1h1.99c.55,0,1,.45,1,1s-.45,1-1,1ZM90.97,157.462h-1.99c-.55,0-1-.45-1-1s.45-1,1-1h1.99c.55,0,1,.45,1,1s-.45,1-1,1Z" style="fill: #dcdee4;"/>
  <path d="M1099,157.462h-1c-.55,0-1-.45-1-1s.45-1,1-1h1c.55,0,1,.45,1,1s-.45,1-1,1Z" style="fill: #dcdee4;"/>
  <path d="M80,232.462h-1c-.55,0-1-.45-1-1s.45-1,1-1h1c.55,0,1,.45,1,1s-.45,1-1,1Z" style="fill: #dcdee4;"/>
  <path d="M1089.03,232.462h-1.99c-.55,0-1-.45-1-1s.45-1,1-1h1.99c.55,0,1,.45,1,1s-.45,1-1,1ZM1078.06,232.462h-1.99c-.55,0-1-.45-1-1s.45-1,1-1h1.99c.55,0,1,.45,1,1s-.45,1-1,1ZM1067.09,232.462h-1.99c-.55,0-1-.45-1-1s.45-1,1-1h1.99c.55,0,1,.45,1,1s-.45,1-1,1ZM1056.12,232.462h-1.99c-.55,0-1-.45-1-1s.45-1,1-1h1.99c.55,0,1,.45,1,1s-.45,1-1,1ZM1045.16,232.462h-1.99c-.55,0-1-.45-1-1s.45-1,1-1h1.99c.55,0,1,.45,1,1s-.45,1-1,1ZM1034.19,232.462h-1.99c-.55,0-1-.45-1-1s.45-1,1-1h1.99c.55,0,1,.45,1,1s-.45,1-1,1ZM1023.22,232.462h-1.99c-.55,0-1-.45-1-1s.45-1,1-1h1.99c.55,0,1,.45,1,1s-.45,1-1,1ZM1012.25,232.462h-1.99c-.55,0-1-.45-1-1s.45-1,1-1h1.99c.55,0,1,.45,1,1s-.45,1-1,1ZM1001.29,232.462h-1.99c-.55,0-1-.45-1-1s.45-1,1-1h1.99c.55,0,1,.45,1,1s-.45,1-1,1ZM990.32,232.462h-1.99c-.55,0-1-.45-1-1s.45-1,1-1h1.99c.55,0,1,.45,1,1s-.45,1-1,1ZM979.35,232.462h-1.99c-.55,0-1-.45-1-1s.45-1,1-1h1.99c.55,0,1,.45,1,1s-.45,1-1,1ZM968.38,232.462h-1.99c-.55,0-1-.45-1-1s.45-1,1-1h1.99c.55,0,1,.45,1,1s-.45,1-1,1ZM957.42,232.462h-1.99c-.55,0-1-.45-1-1s.45-1,1-1h1.99c.55,0,1,.45,1,1s-.45,1-1,1ZM946.45,232.462h-1.99c-.55,0-1-.45-1-1s.45-1,1-1h1.99c.55,0,1,.45,1,1s-.45,1-1,1ZM935.48,232.462h-1.99c-.55,0-1-.45-1-1s.45-1,1-1h1.99c.55,0,1,.45,1,1s-.45,1-1,1ZM924.51,232.462h-1.99c-.55,0-1-.45-1-1s.45-1,1-1h1.99c.55,0,1,.45,1,1s-.45,1-1,1ZM913.54,232.462h-1.99c-.55,0-1-.45-1-1s.45-1,1-1h1.99c.55,0,1,.45,1,1s-.45,1-1,1ZM902.58,232.462h-1.99c-.55,0-1-.45-1-1s.45-1,1-1h1.99c.55,0,1,.45,1,1s-.45,1-1,1ZM891.61,232.462h-1.99c-.55,0-1-.45-1-1s.45-1,1-1h1.99c.55,0,1,.45,1,1s-.45,1-1,1ZM880.64,232.462h-1.99c-.55,0-1-.45-1-1s.45-1,1-1h1.99c.55,0,1,.45,1,1s-.45,1-1,1ZM869.67,232.462h-1.99c-.55,0-1-.45-1-1s.45-1,1-1h1.99c.55,0,1,.45,1,1s-.45,1-1,1ZM858.71,232.462h-1.99c-.55,0-1-.45-1-1s.45-1,1-1h1.99c.55,0,1,.45,1,1s-.45,1-1,1ZM847.74,232.462h-1.99c-.55,0-1-.45-1-1s.45-1,1-1h1.99c.55,0,1,.45,1,1s-.45,1-1,1ZM836.77,232.462h-1.99c-.55,0-1-.45-1-1s.45-1,1-1h1.99c.55,0,1,.45,1,1s-.45,1-1,1ZM825.8,232.462h-1.99c-.55,0-1-.45-1-1s.45-1,1-1h1.99c.55,0,1,.45,1,1s-.45,1-1,1ZM814.83,232.462h-1.99c-.55,0-1-.45-1-1s.45-1,1-1h1.99c.55,0,1,.45,1,1s-.45,1-1,1ZM803.87,232.462h-1.99c-.55,0-1-.45-1-1s.45-1,1-1h1.99c.55,0,1,.45,1,1s-.45,1-1,1ZM792.9,232.462h-1.99c-.55,0-1-.45-1-1s.45-1,1-1h1.99c.55,0,1,.45,1,1s-.45,1-1,1ZM781.93,232.462h-1.99c-.55,0-1-.45-1-1s.45-1,1-1h1.99c.55,0,1,.45,1,1s-.45,1-1,1ZM770.96,232.462h-1.99c-.55,0-1-.45-1-1s.45-1,1-1h1.99c.55,0,1,.45,1,1s-.45,1-1,1ZM760,232.462h-1.99c-.55,0-1-.45-1-1s.45-1,1-1h1.99c.55,0,1,.45,1,1s-.45,1-1,1ZM749.03,232.462h-1.99c-.55,0-1-.45-1-1s.45-1,1-1h1.99c.55,0,1,.45,1,1s-.45,1-1,1ZM738.06,232.462h-1.99c-.55,0-1-.45-1-1s.45-1,1-1h1.99c.55,0,1,.45,1,1s-.45,1-1,1ZM727.09,232.462h-1.99c-.55,0-1-.45-1-1s.45-1,1-1h1.99c.55,0,1,.45,1,1s-.45,1-1,1ZM716.12,232.462h-1.99c-.55,0-1-.45-1-1s.45-1,1-1h1.99c.55,0,1,.45,1,1s-.45,1-1,1ZM705.16,232.462h-1.99c-.55,0-1-.45-1-1s.45-1,1-1h1.99c.55,0,1,.45,1,1s-.45,1-1,1ZM694.19,232.462h-1.99c-.55,0-1-.45-1-1s.45-1,1-1h1.99c.55,0,1,.45,1,1s-.45,1-1,1ZM683.22,232.462h-1.99c-.55,0-1-.45-1-1s.45-1,1-1h1.99c.55,0,1,.45,1,1s-.45,1-1,1ZM672.25,232.462h-1.99c-.55,0-1-.45-1-1s.45-1,1-1h1.99c.55,0,1,.45,1,1s-.45,1-1,1ZM661.29,232.462h-1.99c-.55,0-1-.45-1-1s.45-1,1-1h1.99c.55,0,1,.45,1,1s-.45,1-1,1ZM650.32,232.462h-1.99c-.55,0-1-.45-1-1s.45-1,1-1h1.99c.55,0,1,.45,1,1s-.45,1-1,1ZM639.35,232.462h-1.99c-.55,0-1-.45-1-1s.45-1,1-1h1.99c.55,0,1,.45,1,1s-.45,1-1,1ZM628.38,232.462h-1.99c-.55,0-1-.45-1-1s.45-1,1-1h1.99c.55,0,1,.45,1,1s-.45,1-1,1ZM617.42,232.462h-1.99c-.55,0-1-.45-1-1s.45-1,1-1h1.99c.55,0,1,.45,1,1s-.45,1-1,1ZM606.45,232.462h-1.99c-.55,0-1-.45-1-1s.45-1,1-1h1.99c.55,0,1,.45,1,1s-.45,1-1,1ZM595.48,232.462h-1.99c-.55,0-1-.45-1-1s.45-1,1-1h1.99c.55,0,1,.45,1,1s-.45,1-1,1ZM584.51,232.462h-1.99c-.55,0-1-.45-1-1s.45-1,1-1h1.99c.55,0,1,.45,1,1s-.45,1-1,1ZM573.54,232.462h-1.99c-.55,0-1-.45-1-1s.45-1,1-1h1.99c.55,0,1,.45,1,1s-.45,1-1,1ZM562.58,232.462h-1.99c-.55,0-1-.45-1-1s.45-1,1-1h1.99c.55,0,1,.45,1,1s-.45,1-1,1ZM551.61,232.462h-1.99c-.55,0-1-.45-1-1s.45-1,1-1h1.99c.55,0,1,.45,1,1s-.45,1-1,1ZM540.64,232.462h-1.99c-.55,0-1-.45-1-1s.45-1,1-1h1.99c.55,0,1,.45,1,1s-.45,1-1,1ZM529.67,232.462h-1.99c-.55,0-1-.45-1-1s.45-1,1-1h1.99c.55,0,1,.45,1,1s-.45,1-1,1ZM518.71,232.462h-1.99c-.55,0-1-.45-1-1s.45-1,1-1h1.99c.55,0,1,.45,1,1s-.45,1-1,1ZM507.74,232.462h-1.99c-.55,0-1-.45-1-1s.45-1,1-1h1.99c.55,0,1,.45,1,1s-.45,1-1,1ZM496.77,232.462h-1.99c-.55,0-1-.45-1-1s.45-1,1-1h1.99c.55,0,1,.45,1,1s-.45,1-1,1ZM485.8,232.462h-1.99c-.55,0-1-.45-1-1s.45-1,1-1h1.99c.55,0,1,.45,1,1s-.45,1-1,1ZM474.84,232.462h-1.99c-.55,0-1-.45-1-1s.45-1,1-1h1.99c.55,0,1,.45,1,1s-.45,1-1,1ZM463.87,232.462h-1.99c-.55,0-1-.45-1-1s.45-1,1-1h1.99c.55,0,1,.45,1,1s-.45,1-1,1ZM452.9,232.462h-1.99c-.55,0-1-.45-1-1s.45-1,1-1h1.99c.55,0,1,.45,1,1s-.45,1-1,1ZM441.93,232.462h-1.99c-.55,0-1-.45-1-1s.45-1,1-1h1.99c.55,0,1,.45,1,1s-.45,1-1,1ZM430.97,232.462h-1.99c-.55,0-1-.45-1-1s.45-1,1-1h1.99c.55,0,1,.45,1,1s-.45,1-1,1ZM420,232.462h-1.99c-.55,0-1-.45-1-1s.45-1,1-1h1.99c.55,0,1,.45,1,1s-.45,1-1,1ZM409.03,232.462h-1.99c-.55,0-1-.45-1-1s.45-1,1-1h1.99c.55,0,1,.45,1,1s-.45,1-1,1ZM398.06,232.462h-1.99c-.55,0-1-.45-1-1s.45-1,1-1h1.99c.55,0,1,.45,1,1s-.45,1-1,1ZM387.1,232.462h-1.99c-.55,0-1-.45-1-1s.45-1,1-1h1.99c.55,0,1,.45,1,1s-.45,1-1,1ZM376.13,232.462h-1.99c-.55,0-1-.45-1-1s.45-1,1-1h1.99c.55,0,1,.45,1,1s-.45,1-1,1ZM365.16,232.462h-1.99c-.55,0-1-.45-1-1s.45-1,1-1h1.99c.55,0,1,.45,1,1s-.45,1-1,1ZM354.19,232.462h-1.99c-.55,0-1-.45-1-1s.45-1,1-1h1.99c.55,0,1,.45,1,1s-.45,1-1,1ZM343.22,232.462h-1.99c-.55,0-1-.45-1-1s.45-1,1-1h1.99c.55,0,1,.45,1,1s-.45,1-1,1ZM332.26,232.462h-1.99c-.55,0-1-.45-1-1s.45-1,1-1h1.99c.55,0,1,.45,1,1s-.45,1-1,1ZM321.29,232.462h-1.99c-.55,0-1-.45-1-1s.45-1,1-1h1.99c.55,0,1,.45,1,1s-.45,1-1,1ZM310.32,232.462h-1.99c-.55,0-1-.45-1-1s.45-1,1-1h1.99c.55,0,1,.45,1,1s-.45,1-1,1ZM299.35,232.462h-1.99c-.55,0-1-.45-1-1s.45-1,1-1h1.99c.55,0,1,.45,1,1s-.45,1-1,1ZM288.39,232.462h-1.99c-.55,0-1-.45-1-1s.45-1,1-1h1.99c.55,0,1,.45,1,1s-.45,1-1,1ZM277.42,232.462h-1.99c-.55,0-1-.45-1-1s.45-1,1-1h1.99c.55,0,1,.45,1,1s-.45,1-1,1ZM266.45,232.462h-1.99c-.55,0-1-.45-1-1s.45-1,1-1h1.99c.55,0,1,.45,1,1s-.45,1-1,1ZM255.48,232.462h-1.99c-.55,0-1-.45-1-1s.45-1,1-1h1.99c.55,0,1,.45,1,1s-.45,1-1,1ZM244.52,232.462h-1.99c-.55,0-1-.45-1-1s.45-1,1-1h1.99c.55,0,1,.45,1,1s-.45,1-1,1ZM233.55,232.462h-1.99c-.55,0-1-.45-1-1s.45-1,1-1h1.99c.55,0,1,.45,1,1s-.45,1-1,1ZM222.58,232.462h-1.99c-.55,0-1-.45-1-1s.45-1,1-1h1.99c.55,0,1,.45,1,1s-.45,1-1,1ZM211.61,232.462h-1.99c-.55,0-1-.45-1-1s.45-1,1-1h1.99c.55,0,1,.45,1,1s-.45,1-1,1ZM200.64,232.462h-1.99c-.55,0-1-.45-1-1s.45-1,1-1h1.99c.55,0,1,.45,1,1s-.45,1-1,1ZM189.68,232.462h-1.99c-.55,0-1-.45-1-1s.45-1,1-1h1.99c.55,0,1,.45,1,1s-.45,1-1,1ZM178.71,232.462h-1.99c-.55,0-1-.45-1-1s.45-1,1-1h1.99c.55,0,1,.45,1,1s-.45,1-1,1ZM167.74,232.462h-1.99c-.55,0-1-.45-1-1s.45-1,1-1h1.99c.55,0,1,.45,1,1s-.45,1-1,1ZM156.77,232.462h-1.99c-.55,0-1-.45-1-1s.45-1,1-1h1.99c.55,0,1,.45,1,1s-.45,1-1,1ZM145.81,232.462h-1.99c-.55,0-1-.45-1-1s.45-1,1-1h1.99c.55,0,1,.45,1,1s-.45,1-1,1ZM134.84,232.462h-1.99c-.55,0-1-.45-1-1s.45-1,1-1h1.99c.55,0,1,.45,1,1s-.45,1-1,1ZM123.87,232.462h-1.99c-.55,0-1-.45-1-1s.45-1,1-1h1.99c.55,0,1,.45,1,1s-.45,1-1,1ZM112.9,232.462h-1.99c-.55,0-1-.45-1-1s.45-1,1-1h1.99c.55,0,1,.45,1,1s-.45,1-1,1ZM101.94,232.462h-1.99c-.55,0-1-.45-1-1s.45-1,1-1h1.99c.55,0,1,.45,1,1s-.45,1-1,1ZM90.97,232.462h-1.99c-.55,0-1-.45-1-1s.45-1,1-1h1.99c.55,0,1,.45,1,1s-.45,1-1,1Z" style="fill: #dcdee4;"/>
  <path d="M1099,232.462h-1c-.55,0-1-.45-1-1s.45-1,1-1h1c.55,0,1,.45,1,1s-.45,1-1,1Z" style="fill: #dcdee4;"/>
  <path d="M80,13.462h-1c-.55,0-1-.45-1-1s.45-1,1-1h1c.55,0,1,.45,1,1s-.45,1-1,1Z" style="fill: #dcdee4;"/>
  <path d="M1089.03,13.462h-1.99c-.55,0-1-.45-1-1s.45-1,1-1h1.99c.55,0,1,.45,1,1s-.45,1-1,1ZM1078.06,13.462h-1.99c-.55,0-1-.45-1-1s.45-1,1-1h1.99c.55,0,1,.45,1,1s-.45,1-1,1ZM1067.09,13.462h-1.99c-.55,0-1-.45-1-1s.45-1,1-1h1.99c.55,0,1,.45,1,1s-.45,1-1,1ZM1056.12,13.462h-1.99c-.55,0-1-.45-1-1s.45-1,1-1h1.99c.55,0,1,.45,1,1s-.45,1-1,1ZM1045.16,13.462h-1.99c-.55,0-1-.45-1-1s.45-1,1-1h1.99c.55,0,1,.45,1,1s-.45,1-1,1ZM1034.19,13.462h-1.99c-.55,0-1-.45-1-1s.45-1,1-1h1.99c.55,0,1,.45,1,1s-.45,1-1,1ZM1023.22,13.462h-1.99c-.55,0-1-.45-1-1s.45-1,1-1h1.99c.55,0,1,.45,1,1s-.45,1-1,1ZM1012.25,13.462h-1.99c-.55,0-1-.45-1-1s.45-1,1-1h1.99c.55,0,1,.45,1,1s-.45,1-1,1ZM1001.29,13.462h-1.99c-.55,0-1-.45-1-1s.45-1,1-1h1.99c.55,0,1,.45,1,1s-.45,1-1,1ZM990.32,13.462h-1.99c-.55,0-1-.45-1-1s.45-1,1-1h1.99c.55,0,1,.45,1,1s-.45,1-1,1ZM979.35,13.462h-1.99c-.55,0-1-.45-1-1s.45-1,1-1h1.99c.55,0,1,.45,1,1s-.45,1-1,1ZM968.38,13.462h-1.99c-.55,0-1-.45-1-1s.45-1,1-1h1.99c.55,0,1,.45,1,1s-.45,1-1,1ZM957.42,13.462h-1.99c-.55,0-1-.45-1-1s.45-1,1-1h1.99c.55,0,1,.45,1,1s-.45,1-1,1ZM946.45,13.462h-1.99c-.55,0-1-.45-1-1s.45-1,1-1h1.99c.55,0,1,.45,1,1s-.45,1-1,1ZM935.48,13.462h-1.99c-.55,0-1-.45-1-1s.45-1,1-1h1.99c.55,0,1,.45,1,1s-.45,1-1,1ZM924.51,13.462h-1.99c-.55,0-1-.45-1-1s.45-1,1-1h1.99c.55,0,1,.45,1,1s-.45,1-1,1ZM913.54,13.462h-1.99c-.55,0-1-.45-1-1s.45-1,1-1h1.99c.55,0,1,.45,1,1s-.45,1-1,1ZM902.58,13.462h-1.99c-.55,0-1-.45-1-1s.45-1,1-1h1.99c.55,0,1,.45,1,1s-.45,1-1,1ZM891.61,13.462h-1.99c-.55,0-1-.45-1-1s.45-1,1-1h1.99c.55,0,1,.45,1,1s-.45,1-1,1ZM880.64,13.462h-1.99c-.55,0-1-.45-1-1s.45-1,1-1h1.99c.55,0,1,.45,1,1s-.45,1-1,1ZM869.67,13.462h-1.99c-.55,0-1-.45-1-1s.45-1,1-1h1.99c.55,0,1,.45,1,1s-.45,1-1,1ZM858.71,13.462h-1.99c-.55,0-1-.45-1-1s.45-1,1-1h1.99c.55,0,1,.45,1,1s-.45,1-1,1ZM847.74,13.462h-1.99c-.55,0-1-.45-1-1s.45-1,1-1h1.99c.55,0,1,.45,1,1s-.45,1-1,1ZM836.77,13.462h-1.99c-.55,0-1-.45-1-1s.45-1,1-1h1.99c.55,0,1,.45,1,1s-.45,1-1,1ZM825.8,13.462h-1.99c-.55,0-1-.45-1-1s.45-1,1-1h1.99c.55,0,1,.45,1,1s-.45,1-1,1ZM814.83,13.462h-1.99c-.55,0-1-.45-1-1s.45-1,1-1h1.99c.55,0,1,.45,1,1s-.45,1-1,1ZM803.87,13.462h-1.99c-.55,0-1-.45-1-1s.45-1,1-1h1.99c.55,0,1,.45,1,1s-.45,1-1,1ZM792.9,13.462h-1.99c-.55,0-1-.45-1-1s.45-1,1-1h1.99c.55,0,1,.45,1,1s-.45,1-1,1ZM781.93,13.462h-1.99c-.55,0-1-.45-1-1s.45-1,1-1h1.99c.55,0,1,.45,1,1s-.45,1-1,1ZM770.96,13.462h-1.99c-.55,0-1-.45-1-1s.45-1,1-1h1.99c.55,0,1,.45,1,1s-.45,1-1,1ZM760,13.462h-1.99c-.55,0-1-.45-1-1s.45-1,1-1h1.99c.55,0,1,.45,1,1s-.45,1-1,1ZM749.03,13.462h-1.99c-.55,0-1-.45-1-1s.45-1,1-1h1.99c.55,0,1,.45,1,1s-.45,1-1,1ZM738.06,13.462h-1.99c-.55,0-1-.45-1-1s.45-1,1-1h1.99c.55,0,1,.45,1,1s-.45,1-1,1ZM727.09,13.462h-1.99c-.55,0-1-.45-1-1s.45-1,1-1h1.99c.55,0,1,.45,1,1s-.45,1-1,1ZM716.12,13.462h-1.99c-.55,0-1-.45-1-1s.45-1,1-1h1.99c.55,0,1,.45,1,1s-.45,1-1,1ZM705.16,13.462h-1.99c-.55,0-1-.45-1-1s.45-1,1-1h1.99c.55,0,1,.45,1,1s-.45,1-1,1ZM694.19,13.462h-1.99c-.55,0-1-.45-1-1s.45-1,1-1h1.99c.55,0,1,.45,1,1s-.45,1-1,1ZM683.22,13.462h-1.99c-.55,0-1-.45-1-1s.45-1,1-1h1.99c.55,0,1,.45,1,1s-.45,1-1,1ZM672.25,13.462h-1.99c-.55,0-1-.45-1-1s.45-1,1-1h1.99c.55,0,1,.45,1,1s-.45,1-1,1ZM661.29,13.462h-1.99c-.55,0-1-.45-1-1s.45-1,1-1h1.99c.55,0,1,.45,1,1s-.45,1-1,1ZM650.32,13.462h-1.99c-.55,0-1-.45-1-1s.45-1,1-1h1.99c.55,0,1,.45,1,1s-.45,1-1,1ZM639.35,13.462h-1.99c-.55,0-1-.45-1-1s.45-1,1-1h1.99c.55,0,1,.45,1,1s-.45,1-1,1ZM628.38,13.462h-1.99c-.55,0-1-.45-1-1s.45-1,1-1h1.99c.55,0,1,.45,1,1s-.45,1-1,1ZM617.42,13.462h-1.99c-.55,0-1-.45-1-1s.45-1,1-1h1.99c.55,0,1,.45,1,1s-.45,1-1,1ZM606.45,13.462h-1.99c-.55,0-1-.45-1-1s.45-1,1-1h1.99c.55,0,1,.45,1,1s-.45,1-1,1ZM595.48,13.462h-1.99c-.55,0-1-.45-1-1s.45-1,1-1h1.99c.55,0,1,.45,1,1s-.45,1-1,1ZM584.51,13.462h-1.99c-.55,0-1-.45-1-1s.45-1,1-1h1.99c.55,0,1,.45,1,1s-.45,1-1,1ZM573.54,13.462h-1.99c-.55,0-1-.45-1-1s.45-1,1-1h1.99c.55,0,1,.45,1,1s-.45,1-1,1ZM562.58,13.462h-1.99c-.55,0-1-.45-1-1s.45-1,1-1h1.99c.55,0,1,.45,1,1s-.45,1-1,1ZM551.61,13.462h-1.99c-.55,0-1-.45-1-1s.45-1,1-1h1.99c.55,0,1,.45,1,1s-.45,1-1,1ZM540.64,13.462h-1.99c-.55,0-1-.45-1-1s.45-1,1-1h1.99c.55,0,1,.45,1,1s-.45,1-1,1ZM529.67,13.462h-1.99c-.55,0-1-.45-1-1s.45-1,1-1h1.99c.55,0,1,.45,1,1s-.45,1-1,1ZM518.71,13.462h-1.99c-.55,0-1-.45-1-1s.45-1,1-1h1.99c.55,0,1,.45,1,1s-.45,1-1,1ZM507.74,13.462h-1.99c-.55,0-1-.45-1-1s.45-1,1-1h1.99c.55,0,1,.45,1,1s-.45,1-1,1ZM496.77,13.462h-1.99c-.55,0-1-.45-1-1s.45-1,1-1h1.99c.55,0,1,.45,1,1s-.45,1-1,1ZM485.8,13.462h-1.99c-.55,0-1-.45-1-1s.45-1,1-1h1.99c.55,0,1,.45,1,1s-.45,1-1,1ZM474.84,13.462h-1.99c-.55,0-1-.45-1-1s.45-1,1-1h1.99c.55,0,1,.45,1,1s-.45,1-1,1ZM463.87,13.462h-1.99c-.55,0-1-.45-1-1s.45-1,1-1h1.99c.55,0,1,.45,1,1s-.45,1-1,1ZM452.9,13.462h-1.99c-.55,0-1-.45-1-1s.45-1,1-1h1.99c.55,0,1,.45,1,1s-.45,1-1,1ZM441.93,13.462h-1.99c-.55,0-1-.45-1-1s.45-1,1-1h1.99c.55,0,1,.45,1,1s-.45,1-1,1ZM430.97,13.462h-1.99c-.55,0-1-.45-1-1s.45-1,1-1h1.99c.55,0,1,.45,1,1s-.45,1-1,1ZM420,13.462h-1.99c-.55,0-1-.45-1-1s.45-1,1-1h1.99c.55,0,1,.45,1,1s-.45,1-1,1ZM409.03,13.462h-1.99c-.55,0-1-.45-1-1s.45-1,1-1h1.99c.55,0,1,.45,1,1s-.45,1-1,1ZM398.06,13.462h-1.99c-.55,0-1-.45-1-1s.45-1,1-1h1.99c.55,0,1,.45,1,1s-.45,1-1,1ZM387.1,13.462h-1.99c-.55,0-1-.45-1-1s.45-1,1-1h1.99c.55,0,1,.45,1,1s-.45,1-1,1ZM376.13,13.462h-1.99c-.55,0-1-.45-1-1s.45-1,1-1h1.99c.55,0,1,.45,1,1s-.45,1-1,1ZM365.16,13.462h-1.99c-.55,0-1-.45-1-1s.45-1,1-1h1.99c.55,0,1,.45,1,1s-.45,1-1,1ZM354.19,13.462h-1.99c-.55,0-1-.45-1-1s.45-1,1-1h1.99c.55,0,1,.45,1,1s-.45,1-1,1ZM343.22,13.462h-1.99c-.55,0-1-.45-1-1s.45-1,1-1h1.99c.55,0,1,.45,1,1s-.45,1-1,1ZM332.26,13.462h-1.99c-.55,0-1-.45-1-1s.45-1,1-1h1.99c.55,0,1,.45,1,1s-.45,1-1,1ZM321.29,13.462h-1.99c-.55,0-1-.45-1-1s.45-1,1-1h1.99c.55,0,1,.45,1,1s-.45,1-1,1ZM310.32,13.462h-1.99c-.55,0-1-.45-1-1s.45-1,1-1h1.99c.55,0,1,.45,1,1s-.45,1-1,1ZM299.35,13.462h-1.99c-.55,0-1-.45-1-1s.45-1,1-1h1.99c.55,0,1,.45,1,1s-.45,1-1,1ZM288.39,13.462h-1.99c-.55,0-1-.45-1-1s.45-1,1-1h1.99c.55,0,1,.45,1,1s-.45,1-1,1ZM277.42,13.462h-1.99c-.55,0-1-.45-1-1s.45-1,1-1h1.99c.55,0,1,.45,1,1s-.45,1-1,1ZM266.45,13.462h-1.99c-.55,0-1-.45-1-1s.45-1,1-1h1.99c.55,0,1,.45,1,1s-.45,1-1,1ZM255.48,13.462h-1.99c-.55,0-1-.45-1-1s.45-1,1-1h1.99c.55,0,1,.45,1,1s-.45,1-1,1ZM244.52,13.462h-1.99c-.55,0-1-.45-1-1s.45-1,1-1h1.99c.55,0,1,.45,1,1s-.45,1-1,1ZM233.55,13.462h-1.99c-.55,0-1-.45-1-1s.45-1,1-1h1.99c.55,0,1,.45,1,1s-.45,1-1,1ZM222.58,13.462h-1.99c-.55,0-1-.45-1-1s.45-1,1-1h1.99c.55,0,1,.45,1,1s-.45,1-1,1ZM211.61,13.462h-1.99c-.55,0-1-.45-1-1s.45-1,1-1h1.99c.55,0,1,.45,1,1s-.45,1-1,1ZM200.64,13.462h-1.99c-.55,0-1-.45-1-1s.45-1,1-1h1.99c.55,0,1,.45,1,1s-.45,1-1,1ZM189.68,13.462h-1.99c-.55,0-1-.45-1-1s.45-1,1-1h1.99c.55,0,1,.45,1,1s-.45,1-1,1ZM178.71,13.462h-1.99c-.55,0-1-.45-1-1s.45-1,1-1h1.99c.55,0,1,.45,1,1s-.45,1-1,1ZM167.74,13.462h-1.99c-.55,0-1-.45-1-1s.45-1,1-1h1.99c.55,0,1,.45,1,1s-.45,1-1,1ZM156.77,13.462h-1.99c-.55,0-1-.45-1-1s.45-1,1-1h1.99c.55,0,1,.45,1,1s-.45,1-1,1ZM145.81,13.462h-1.99c-.55,0-1-.45-1-1s.45-1,1-1h1.99c.55,0,1,.45,1,1s-.45,1-1,1ZM134.84,13.462h-1.99c-.55,0-1-.45-1-1s.45-1,1-1h1.99c.55,0,1,.45,1,1s-.45,1-1,1ZM123.87,13.462h-1.99c-.55,0-1-.45-1-1s.45-1,1-1h1.99c.55,0,1,.45,1,1s-.45,1-1,1ZM112.9,13.462h-1.99c-.55,0-1-.45-1-1s.45-1,1-1h1.99c.55,0,1,.45,1,1s-.45,1-1,1ZM101.94,13.462h-1.99c-.55,0-1-.45-1-1s.45-1,1-1h1.99c.55,0,1,.45,1,1s-.45,1-1,1ZM90.97,13.462h-1.99c-.55,0-1-.45-1-1s.45-1,1-1h1.99c.55,0,1,.45,1,1s-.45,1-1,1Z" style="fill: #dcdee4;"/>
  <path d="M1099,13.462h-1c-.55,0-1-.45-1-1s.45-1,1-1h1c.55,0,1,.45,1,1s-.45,1-1,1Z" style="fill: #dcdee4;"/>
  <path d="M35.62,16.972h-7.98v-1.68l2.87-2.9c.85-.87,1.4-1.47,1.66-1.81s.45-.65.56-.93c.11-.29.17-.58.17-.89,0-.46-.13-.8-.38-1.02s-.59-.34-1.01-.34c-.44,0-.87.1-1.29.3-.42.2-.85.49-1.3.87l-1.31-1.55c.56-.48,1.03-.82,1.4-1.02.37-.2.77-.35,1.21-.46.44-.11.93-.16,1.47-.16.71,0,1.34.13,1.89.39s.97.62,1.27,1.09.45,1,.45,1.61c0,.53-.09,1.02-.28,1.48s-.47.93-.86,1.42c-.39.48-1.07,1.17-2.05,2.07l-1.47,1.38v.11h4.98v2.04Z" style="fill: #515979;"/>
  <path d="M37.05,15.852c0-.44.12-.77.35-.99s.58-.34,1.02-.34.77.11,1,.34c.24.23.36.56.36.98s-.12.74-.36.97c-.24.24-.57.36-1,.36s-.78-.12-1.02-.35-.36-.56-.36-.98c0,0,.01.01.01.01Z" style="fill: #515979;"/>
  <path d="M45.49,9.672c1.1,0,1.98.31,2.64.93.65.62.98,1.47.98,2.55,0,1.28-.39,2.26-1.18,2.95s-1.91,1.03-3.38,1.03c-1.27,0-2.3-.21-3.08-.62v-2.09c.41.22.89.4,1.44.54.55.14,1.06.21,1.55.21,1.47,0,2.21-.6,2.21-1.81s-.76-1.73-2.29-1.73c-.28,0-.58.03-.91.08-.33.05-.6.11-.81.18l-.96-.52.43-5.82h6.2v2.05h-4.08l-.21,2.24.27-.05c.32-.07.71-.11,1.18-.11v-.01Z" style="fill: #515979;"/>
  <path d="M52.87,12.512l-2.81-4.27h2.7l1.7,2.78,1.71-2.78h2.7l-2.84,4.27,2.98,4.46h-2.71l-1.84-2.99-1.84,2.99h-2.7l2.96-4.46s-.01,0-.01,0Z" style="fill: #515979;"/>
  <path d="M33.61,160.971h-2.41v-6.61l.02-1.09.04-1.19c-.4.4-.68.66-.84.79l-1.31,1.05-1.16-1.45,3.68-2.93h1.98v11.43h0Z" style="fill: #515979;"/>
  <path d="M37.05,159.851c0-.44.12-.77.35-.99s.58-.34,1.02-.34.77.11,1,.34c.24.23.36.56.36.98s-.12.74-.36.97c-.24.24-.57.36-1,.36s-.78-.12-1.02-.35c-.24-.23-.36-.56-.36-.98l.01.01h0Z" style="fill: #515979;"/>
  <path d="M48.88,152.101c0,.71-.22,1.32-.65,1.82s-1.04.84-1.82,1.03v.05c.92.11,1.62.39,2.09.84s.71,1.04.71,1.8c0,1.1-.4,1.95-1.2,2.57-.8.61-1.94.92-3.41.92-1.24,0-2.34-.21-3.3-.62v-2.05c.44.22.93.41,1.46.55s1.06.21,1.58.21c.8,0,1.39-.14,1.77-.41s.57-.71.57-1.3c0-.54-.22-.92-.66-1.14-.44-.22-1.14-.34-2.09-.34h-.87v-1.85h.88c.89,0,1.53-.12,1.94-.35.41-.23.61-.63.61-1.19,0-.87-.54-1.3-1.62-1.3-.38,0-.76.06-1.14.19-.39.12-.82.34-1.29.65l-1.12-1.66c1.04-.75,2.28-1.12,3.73-1.12,1.18,0,2.12.24,2.8.72s1.03,1.15,1.03,2c0,0,0-.02,0-.02Z" style="fill: #515979;"/>
  <path d="M52.87,156.511l-2.81-4.27h2.7l1.7,2.78,1.71-2.78h2.7l-2.84,4.27,2.98,4.46h-2.71l-1.84-2.99-1.84,2.99h-2.7l2.96-4.46h-.01Z" style="fill: #515979;"/>
  <path d="M49.26,304.462c0,1.99-.33,3.47-.98,4.43s-1.66,1.44-3.02,1.44-2.31-.5-2.98-1.48c-.67-.99-1-2.45-1-4.38s.33-3.5.98-4.46c.65-.96,1.65-1.43,3.01-1.43s2.31.5,2.99,1.5c.67,1,1.01,2.46,1.01,4.39,0,0-.01-.01-.01-.01ZM43.67,304.462c0,1.4.12,2.4.36,3.01.24.61.65.91,1.22.91s.97-.31,1.22-.92c.25-.62.38-1.62.38-3s-.13-2.41-.38-3.02-.66-.92-1.21-.92-.97.31-1.22.92c-.25.61-.37,1.62-.37,3.02Z" style="fill: #515979;"/>
  <path d="M52.87,305.712l-2.81-4.27h2.7l1.7,2.78,1.71-2.78h2.7l-2.84,4.27,2.98,4.46h-2.71l-1.84-2.99-1.84,2.99h-2.7l2.96-4.46h-.01Z" style="fill: #515979;"/>
  <path d="M74.85,326.443c0,1.89-.47,3.34-1.41,4.36s-2.28,1.52-4.03,1.52-3.09-.51-4.03-1.52-1.41-2.47-1.41-4.38.47-3.35,1.41-4.36c.94-1,2.29-1.5,4.04-1.5s3.1.5,4.03,1.52c.93,1.01,1.39,2.46,1.39,4.36h.01ZM66.52,326.443c0,1.28.24,2.24.73,2.88.48.65,1.21.97,2.17.97,1.93,0,2.9-1.28,2.9-3.85s-.96-3.86-2.88-3.86c-.96,0-1.69.32-2.18.97s-.73,1.61-.73,2.89h-.01Z" style="fill: #515979;"/>
  <path d="M80.58,332.333c-2.72,0-4.08-1.49-4.08-4.48,0-1.48.37-2.62,1.11-3.4s1.8-1.18,3.18-1.18c1.01,0,1.92.2,2.72.59l-.7,1.84c-.38-.15-.72-.28-1.05-.37-.32-.1-.65-.14-.97-.14-1.24,0-1.86.88-1.86,2.64s.62,2.56,1.86,2.56c.46,0,.88-.06,1.27-.18s.78-.31,1.17-.57v2.04c-.39.24-.77.41-1.17.51-.39.09-.89.14-1.49.14h.01Z" style="fill: #515979;"/>
  <path d="M88.94,330.432c.42,0,.92-.09,1.5-.27v1.77c-.59.27-1.32.4-2.19.4-.95,0-1.65-.24-2.08-.72-.44-.48-.65-1.21-.65-2.17v-4.21h-1.14v-1.01l1.31-.8.69-1.84h1.52v1.86h2.45v1.79h-2.45v4.21c0,.34.09.59.29.75.19.16.44.24.75.24h0Z" style="fill: #515979;"/>
  <path d="M584.56,332.172h-3.08l-4.97-8.64h-.07c.1,1.53.15,2.61.15,3.27v5.38h-2.16v-11.42h3.05l4.96,8.55h.05c-.08-1.48-.12-2.53-.12-3.15v-5.41h2.18v11.42h.01,0Z" style="fill: #515979;"/>
  <path d="M595.19,327.791c0,1.42-.38,2.531-1.12,3.341-.75.8-1.79,1.2-3.13,1.2-.84,0-1.58-.18-2.22-.55-.64-.37-1.13-.89-1.48-1.58-.35-.69-.52-1.491-.52-2.411,0-1.43.37-2.539,1.12-3.329.74-.79,1.79-1.19,3.14-1.19.84,0,1.58.179,2.22.549.64.36,1.13.891,1.48,1.571.34.68.52,1.479.52,2.399h-.01ZM589.15,327.791c0,.86.14,1.521.43,1.961.28.44.75.66,1.39.66s1.09-.22,1.37-.66c.28-.44.42-1.101.42-1.961s-.14-1.509-.42-1.949c-.28-.43-.74-.65-1.38-.65s-1.09.21-1.38.64c-.29.43-.42,1.08-.42,1.95l-.01.009h0Z" style="fill: #515979;"/>
  <path d="M599.229,332.171l-3.33-8.73h2.49l1.69,4.98c.19.63.3,1.23.35,1.79h.05c.03-.5.14-1.1.35-1.79l1.68-4.98h2.49l-3.33,8.73h-2.45.01Z" style="fill: #515979;"/>
  <path d="M1097.15,326.352c0,1.88-.54,3.32-1.61,4.32s-2.62,1.5-4.64,1.5h-3.23v-11.42h3.59c1.86,0,3.31.49,4.34,1.48,1.03.99,1.55,2.36,1.55,4.12ZM1094.64,326.412c0-2.45-1.08-3.68-3.25-3.68h-1.29v7.44h1.04c2.33,0,3.5-1.25,3.5-3.76Z" style="fill: #515979;"/>
  <path d="M1103.28,332.331c-1.41,0-2.51-.39-3.3-1.16-.79-.78-1.19-1.88-1.19-3.3s.37-2.6,1.1-3.39c.73-.8,1.74-1.2,3.04-1.2s2.2.35,2.88,1.05c.68.7,1.03,1.67,1.03,2.91v1.16h-5.63c.03.68.23,1.21.6,1.59.38.38.9.57,1.58.57.53,0,1.02-.05,1.49-.16.47-.11.96-.28,1.47-.52v1.84c-.42.21-.86.36-1.34.46-.47.1-1.05.15-1.73.15h0ZM1102.95,324.971c-.51,0-.9.16-1.19.48-.29.32-.45.77-.49,1.36h3.34c-.01-.59-.16-1.04-.46-1.36-.3-.32-.7-.48-1.2-.48h0Z" style="fill: #515979;"/>
  <path d="M1112.33,332.332c-2.72,0-4.08-1.49-4.08-4.48,0-1.48.37-2.62,1.11-3.4s1.8-1.18,3.18-1.18c1.01,0,1.92.2,2.72.59l-.7,1.84c-.38-.15-.72-.28-1.05-.37-.32-.1-.65-.14-.97-.14-1.24,0-1.86.88-1.86,2.64s.62,2.56,1.86,2.56c.46,0,.88-.06,1.27-.18s.78-.31,1.17-.57v2.04c-.39.24-.77.41-1.17.51-.39.09-.89.14-1.49.14h.01,0Z" style="fill: #515979;"/>
  <path d="M26.43,230.262c0,1.99-.33,3.47-.98,4.43-.65.96-1.66,1.44-3.02,1.44s-2.31-.5-2.98-1.48c-.67-.99-1-2.45-1-4.38s.33-3.5.98-4.46,1.65-1.43,3.01-1.43,2.31.5,2.99,1.5c.67,1,1.01,2.46,1.01,4.39l-.01-.01ZM20.84,230.262c0,1.4.12,2.4.36,3.01s.65.91,1.22.91.97-.31,1.22-.92c.25-.62.38-1.62.38-3s-.13-2.41-.38-3.02-.66-.92-1.21-.92-.97.31-1.22.92-.37,1.62-.37,3.02Z" style="fill: #515979;"/>
  <path d="M27.91,234.852c0-.44.12-.77.35-.99s.58-.34,1.02-.34.77.11,1,.34c.24.23.36.56.36.98s-.12.74-.36.97c-.24.24-.57.36-1,.36s-.78-.12-1.02-.35c-.24-.23-.36-.56-.36-.98l.01.01h0Z" style="fill: #515979;"/>
  <path d="M32.12,231.122c0-2.26.48-3.94,1.43-5.05.96-1.1,2.39-1.66,4.29-1.66.65,0,1.16.04,1.53.12v1.93c-.46-.1-.92-.16-1.38-.16-.83,0-1.5.12-2.03.38-.53.26-.92.62-1.18,1.11-.26.49-.41,1.18-.46,2.09h.1c.52-.89,1.34-1.33,2.48-1.33,1.02,0,1.82.32,2.4.96s.87,1.53.87,2.66c0,1.22-.34,2.18-1.03,2.89s-1.64,1.07-2.86,1.07c-.84,0-1.58-.2-2.21-.59-.63-.39-1.11-.96-1.45-1.71s-.51-1.65-.51-2.71h.01ZM36.25,234.202c.52,0,.91-.17,1.19-.52s.41-.84.41-1.48c0-.56-.13-1-.39-1.32s-.65-.48-1.17-.48c-.49,0-.91.16-1.25.48-.35.32-.52.69-.52,1.11,0,.62.16,1.14.49,1.57.33.43.74.64,1.24.64Z" style="fill: #515979;"/>
  <path d="M45.49,228.672c1.1,0,1.98.31,2.64.93.65.62.98,1.47.98,2.55,0,1.28-.39,2.26-1.18,2.95s-1.91,1.03-3.38,1.03c-1.27,0-2.3-.21-3.08-.62v-2.09c.41.22.89.4,1.44.54s1.06.21,1.55.21c1.47,0,2.21-.6,2.21-1.81s-.76-1.73-2.29-1.73c-.28,0-.58.03-.91.08-.33.05-.6.11-.81.18l-.96-.52.43-5.82h6.2v2.05h-4.08l-.21,2.24.27-.05c.32-.07.71-.11,1.18-.11v-.01Z" style="fill: #515979;"/>
  <path d="M52.87,231.512l-2.81-4.27h2.7l1.7,2.78,1.71-2.78h2.7l-2.84,4.27,2.98,4.46h-2.71l-1.84-2.99-1.84,2.99h-2.7l2.96-4.46h-.01Z" style="fill: #515979;"/>
  <path d="M1101,304.462H79V6.462c0-1.1-.9-2-2-2s-2,.9-2,2v298h-4c-1.1,0-2,.9-2,2s.9,2,2,2h4v4c0,1.1.9,2,2,2s2-.9,2-2v-4h508v4c0,1.1.9,2,2,2s2-.9,2-2v-4h508v4c0,1.1.9,2,2,2s2-.9,2-2v-6c0-1.1-.9-2-2-2Z" style="fill: #515979;"/>
  <path d="M79,202.962c-.83,0-1.5-.67-1.5-1.5s.67-1.5,1.5-1.5h510l509.99-5c.85-.04,1.51.66,1.51,1.49s-.66,1.51-1.49,1.51l-510,5H79Z" style="fill: #4dcff7;"/>
  <path d="M79,157.963c-.79,0-1.45-.62-1.5-1.41-.05-.83.58-1.54,1.41-1.58l1020-60c.83-.05,1.54.58,1.59,1.41s-.58,1.54-1.41,1.58L79.09,157.963h-.09Z" style="fill: #f89d81;"/>
  <path d="M77,160.962c2.485,0,4.5-2.015,4.5-4.5s-2.015-4.5-4.5-4.5-4.5,2.015-4.5,4.5,2.015,4.5,4.5,4.5Z" style="fill: #f89d81;"/>
  <path d="M1101,100.962c2.49,0,4.5-2.015,4.5-4.5s-2.01-4.5-4.5-4.5-4.5,2.015-4.5,4.5,2.01,4.5,4.5,4.5Z" style="fill: #f89d81;"/>
  <path d="M79,190.962c-.73,0-1.37-.54-1.48-1.28-.12-.82.45-1.58,1.27-1.7,2.25-.33,228.15-33.02,510.22-33.02s507.87,17.83,510.12,18c.83.07,1.44.79,1.38,1.62-.07.83-.79,1.42-1.61,1.38-2.25-.18-227.98-18-509.88-18s-507.54,32.65-509.78,32.98c-.07.01-.15.02-.22.02h-.02Z" style="fill: #3cb48c;"/>
  <path d="M77,193.962c2.485,0,4.5-2.015,4.5-4.5s-2.015-4.5-4.5-4.5-4.5,2.015-4.5,4.5,2.015,4.5,4.5,4.5Z" style="fill: #3cb48c;"/>
  <path d="M1101,178.962c2.49,0,4.5-2.015,4.5-4.5s-2.01-4.5-4.5-4.5-4.5,2.015-4.5,4.5,2.01,4.5,4.5,4.5Z" style="fill: #3cb48c;"/>
  <path d="M589,130.962c2.485,0,4.5-2.015,4.5-4.5s-2.015-4.5-4.5-4.5-4.5,2.015-4.5,4.5,2.015,4.5,4.5,4.5Z" style="fill: #f89d81;"/>
  <path d="M589,160.962c2.485,0,4.5-2.015,4.5-4.5s-2.015-4.5-4.5-4.5-4.5,2.015-4.5,4.5,2.015,4.5,4.5,4.5Z" style="fill: #3cb48c;"/>
  <path d="M79,90.962c-.68,0-1.3-.46-1.46-1.16-.19-.81.31-1.61,1.12-1.8,2.25-.53,228.21-53.04,510.34-53.04s508,37.64,510.25,38.02c.82.14,1.37.91,1.23,1.73s-.91,1.36-1.73,1.23c-2.25-.38-227.93-37.98-509.75-37.98S81.59,90.392,79.34,90.922c-.12.03-.23.04-.35.04h.01Z" style="fill: #ffd886;"/>
  <path d="M77,93.962c2.485,0,4.5-2.015,4.5-4.5s-2.015-4.5-4.5-4.5-4.5,2.015-4.5,4.5,2.015,4.5,4.5,4.5Z" style="fill: #ffd886;"/>
  <path d="M1101,78.962c2.49,0,4.5-2.015,4.5-4.5s-2.01-4.5-4.5-4.5-4.5,2.015-4.5,4.5,2.01,4.5,4.5,4.5Z" style="fill: #ffd886;"/>
  <path d="M589,40.962c2.485,0,4.5-2.015,4.5-4.5s-2.015-4.5-4.5-4.5-4.5,2.015-4.5,4.5,2.015,4.5,4.5,4.5Z" style="fill: #ffd886;"/>
  <path d="M77,205.962c2.485,0,4.5-2.015,4.5-4.5s-2.015-4.5-4.5-4.5-4.5,2.015-4.5,4.5,2.015,4.5,4.5,4.5Z" style="fill: #4dcff7;"/>
  <path d="M1101,200.962c2.49,0,4.5-2.015,4.5-4.5s-2.01-4.5-4.5-4.5-4.5,2.015-4.5,4.5,2.01,4.5,4.5,4.5Z" style="fill: #4dcff7;"/>
  <path d="M589,205.962c2.485,0,4.5-2.015,4.5-4.5s-2.015-4.5-4.5-4.5-4.5,2.015-4.5,4.5,2.015,4.5,4.5,4.5Z" style="fill: #6adaf7;"/>
  <path d="M436.12,359.892c-2.04,0-3.06-1.12-3.06-3.36,0-1.11.28-1.96.83-2.55s1.35-.88,2.38-.88c.76,0,1.44.15,2.04.45l-.53,1.38c-.28-.11-.54-.21-.79-.28s-.48-.11-.73-.11c-.93,0-1.39.66-1.39,1.98s.46,1.92,1.39,1.92c.34,0,.66-.05.96-.14s.59-.24.88-.43v1.53c-.29.18-.58.31-.88.38s-.67.11-1.12.11h.02Z" style="fill: #515979;"/>
  <path d="M445.18,356.492c0,1.07-.28,1.9-.84,2.5s-1.35.9-2.35.9c-.63,0-1.18-.14-1.66-.41s-.85-.67-1.11-1.19c-.26-.52-.39-1.12-.39-1.8,0-1.07.28-1.9.84-2.5s1.34-.89,2.36-.89c.63,0,1.18.14,1.66.41s.85.67,1.11,1.18c.26.51.39,1.11.39,1.8h-.01,0ZM440.65,356.492c0,.65.11,1.14.32,1.47s.56.5,1.04.5.82-.17,1.03-.5.31-.82.31-1.47-.11-1.13-.32-1.46c-.21-.33-.56-.49-1.04-.49s-.82.16-1.03.48-.32.81-.32,1.46l.01.01h0Z" style="fill: #515979;"/>
  <path d="M452.18,359.773h-1.79v-3.83c0-.47-.08-.83-.24-1.06s-.41-.35-.75-.35c-.46,0-.79.17-1,.5s-.31.89-.31,1.66v3.08h-1.79v-6.55h1.37l.24.84h.1c.18-.3.43-.54.76-.71.33-.17.71-.25,1.14-.25.98,0,1.64.32,1.99.96h.16c.18-.3.43-.54.78-.71.35-.17.73-.25,1.16-.25.74,0,1.3.19,1.68.57s.57.99.57,1.83v4.27h-1.79v-3.83c0-.47-.08-.83-.24-1.06s-.41-.35-.75-.35c-.44,0-.76.16-.98.47s-.33.81-.33,1.49v3.29l.02-.01Z" style="fill: #515979;"/>
  <path d="M461.33,359.892c-.77,0-1.37-.28-1.81-.84h-.09c.06.55.09.86.09.95v2.65h-1.79v-9.43h1.45l.25.85h.08c.42-.65,1.04-.97,1.86-.97.77,0,1.38.3,1.82.9s.66,1.43.66,2.49c0,.7-.1,1.31-.31,1.82s-.5.91-.88,1.18-.82.4-1.34.4h.01ZM460.8,354.532c-.44,0-.76.14-.97.41s-.31.72-.32,1.34v.19c0,.7.1,1.21.31,1.51.21.3.54.46.99.46.8,0,1.2-.66,1.2-1.98,0-.64-.1-1.13-.3-1.45-.2-.32-.51-.48-.93-.48h.02Z" style="fill: #515979;"/>
  <path d="M468.04,359.892c-1.05,0-1.88-.29-2.47-.87s-.89-1.41-.89-2.47.27-1.95.82-2.55,1.31-.9,2.28-.9,1.65.26,2.16.79.77,1.26.77,2.19v.87h-4.22c.02.51.17.9.45,1.19s.68.43,1.18.43c.39,0,.77-.04,1.12-.12s.72-.21,1.1-.39v1.38c-.31.16-.65.27-1,.35-.35.08-.79.11-1.3.11v-.01ZM467.79,354.372c-.38,0-.68.12-.89.36-.21.24-.34.58-.37,1.02h2.51c0-.44-.12-.78-.35-1.02s-.52-.36-.9-.36Z" style="fill: #515979;"/>
  <path d="M474.65,358.472c.31,0,.69-.07,1.12-.21v1.33c-.45.2-.99.3-1.64.3-.71,0-1.24-.18-1.56-.54-.32-.36-.49-.9-.49-1.63v-3.16h-.86v-.76l.98-.6.52-1.38h1.14v1.39h1.83v1.34h-1.83v3.16c0,.25.07.44.21.56.14.12.33.18.57.18l.01.02h0Z" style="fill: #515979;"/>
  <path d="M476.66,351.532c0-.58.32-.87.97-.87s.97.29.97.87c0,.28-.08.49-.24.65s-.41.23-.73.23c-.65,0-.97-.29-.97-.88ZM478.53,359.772h-1.79v-6.55h1.79v6.55Z" style="fill: #515979;"/>
  <path d="M482.8,358.472c.31,0,.69-.07,1.12-.21v1.33c-.45.2-.99.3-1.64.3-.71,0-1.24-.18-1.56-.54-.32-.36-.49-.9-.49-1.63v-3.16h-.86v-.76l.98-.6.52-1.38h1.14v1.39h1.83v1.34h-1.83v3.16c0,.25.07.44.21.56.14.12.33.18.57.18l.01.02h0Z" style="fill: #515979;"/>
  <path d="M490.83,356.492c0,1.07-.28,1.9-.84,2.5s-1.35.9-2.35.9c-.63,0-1.18-.14-1.66-.41s-.85-.67-1.11-1.19c-.26-.52-.39-1.12-.39-1.8,0-1.07.28-1.9.84-2.5s1.34-.89,2.36-.89c.63,0,1.18.14,1.66.41s.85.67,1.11,1.18c.26.51.39,1.11.39,1.8h-.01,0ZM486.3,356.492c0,.65.11,1.14.32,1.47s.56.5,1.04.5.82-.17,1.03-.5.31-.82.31-1.47-.11-1.13-.32-1.46c-.21-.33-.56-.49-1.04-.49s-.82.16-1.03.48-.32.81-.32,1.46l.01.01h0Z" style="fill: #515979;"/>
  <path d="M495.62,353.102c.24,0,.44.02.6.05l-.13,1.68c-.14-.04-.32-.06-.53-.06-.57,0-1.01.15-1.33.44s-.48.7-.48,1.23v3.33h-1.79v-6.55h1.35l.26,1.1h.09c.2-.37.48-.66.82-.89s.72-.34,1.13-.34l.01.01h0Z" style="fill: #515979;"/>
  <path d="M501.26,359.772h-1.81v-4.96l.02-.81.03-.89c-.3.3-.51.5-.63.59l-.98.79-.87-1.09,2.76-2.2h1.49v8.57h-.01Z" style="fill: #515979;"/>
  <path d="M503.25,358.931c0-.33.09-.58.26-.74s.43-.25.77-.25.58.09.75.26.27.42.27.74-.09.55-.27.73c-.18.18-.43.27-.75.27s-.58-.09-.76-.26-.27-.42-.27-.74v-.01Z" style="fill: #515979;"/>
  <path d="M509.24,359.892c-2.04,0-3.06-1.12-3.06-3.36,0-1.11.28-1.96.83-2.55s1.35-.88,2.38-.88c.76,0,1.44.15,2.04.45l-.53,1.38c-.28-.11-.54-.21-.79-.28s-.48-.11-.73-.11c-.93,0-1.39.66-1.39,1.98s.46,1.92,1.39,1.92c.34,0,.66-.05.96-.14.3-.09.59-.24.88-.43v1.53c-.29.18-.58.31-.88.38s-.67.11-1.12.11h.02,0Z" style="fill: #515979;"/>
  <path d="M518.3,356.492c0,1.07-.28,1.9-.84,2.5s-1.35.9-2.35.9c-.63,0-1.18-.14-1.66-.41s-.85-.67-1.11-1.19-.39-1.12-.39-1.8c0-1.07.28-1.9.84-2.5s1.34-.89,2.36-.89c.63,0,1.18.14,1.66.41s.85.67,1.11,1.18c.26.51.39,1.11.39,1.8h-.01ZM513.77,356.492c0,.65.11,1.14.32,1.47s.56.5,1.04.5.82-.17,1.03-.5.31-.82.31-1.47-.11-1.13-.32-1.46-.56-.49-1.04-.49-.82.16-1.03.48-.32.81-.32,1.46l.01.01h0Z" style="fill: #515979;"/>
  <path d="M525.3,359.772h-1.79v-3.83c0-.47-.08-.83-.24-1.06s-.41-.35-.75-.35c-.46,0-.79.17-1,.5s-.31.89-.31,1.66v3.08h-1.79v-6.55h1.37l.24.84h.1c.18-.3.43-.54.76-.71.33-.17.71-.25,1.14-.25.98,0,1.64.32,1.99.96h.16c.18-.3.43-.54.78-.71.35-.17.73-.25,1.16-.25.74,0,1.3.19,1.68.57s.57.99.57,1.83v4.27h-1.79v-3.83c0-.47-.08-.83-.24-1.06s-.41-.35-.75-.35c-.44,0-.76.16-.98.47s-.33.81-.33,1.49v3.29l.02-.01h0Z" style="fill: #515979;"/>
  <path d="M420.53,362.393c3.314,0,6-2.687,6-6s-2.686-6-6-6-6,2.686-6,6,2.687,6,6,6Z" style="fill: #f89d81;"/>
  <path d="M591.12,359.892c-2.04,0-3.06-1.12-3.06-3.36,0-1.11.28-1.96.83-2.55s1.35-.88,2.38-.88c.76,0,1.44.15,2.04.45l-.53,1.38c-.28-.11-.54-.21-.79-.28s-.48-.11-.73-.11c-.93,0-1.39.66-1.39,1.98s.46,1.92,1.39,1.92c.34,0,.66-.05.96-.14.3-.09.59-.24.88-.43v1.53c-.29.18-.58.31-.88.38s-.67.11-1.12.11h.02,0Z" style="fill: #515979;"/>
  <path d="M600.18,356.492c0,1.07-.28,1.9-.84,2.5s-1.35.9-2.35.9c-.63,0-1.18-.14-1.66-.41s-.85-.67-1.11-1.19-.39-1.12-.39-1.8c0-1.07.28-1.9.84-2.5s1.34-.89,2.36-.89c.63,0,1.18.14,1.66.41s.85.67,1.11,1.18c.26.51.39,1.11.39,1.8h-.01ZM595.65,356.492c0,.65.11,1.14.32,1.47s.56.5,1.04.5.82-.17,1.03-.5.31-.82.31-1.47-.11-1.13-.32-1.46-.56-.49-1.04-.49-.82.16-1.03.48-.32.81-.32,1.46l.01.01h0Z" style="fill: #515979;"/>
  <path d="M607.18,359.773h-1.79v-3.83c0-.47-.08-.83-.24-1.06s-.41-.35-.75-.35c-.46,0-.79.17-1,.5s-.31.89-.31,1.66v3.08h-1.79v-6.55h1.37l.24.84h.1c.18-.3.43-.54.76-.71.33-.17.71-.25,1.14-.25.98,0,1.64.32,1.99.96h.16c.18-.3.43-.54.78-.71.35-.17.73-.25,1.16-.25.74,0,1.3.19,1.68.57s.57.99.57,1.83v4.27h-1.79v-3.83c0-.47-.08-.83-.24-1.06s-.41-.35-.75-.35c-.44,0-.76.16-.98.47s-.33.81-.33,1.49v3.29l.02-.01h0Z" style="fill: #515979;"/>
  <path d="M616.33,359.892c-.77,0-1.37-.28-1.81-.84h-.09c.06.55.09.86.09.95v2.65h-1.79v-9.43h1.45l.25.85h.08c.42-.65,1.04-.97,1.86-.97.77,0,1.38.3,1.82.9s.66,1.43.66,2.49c0,.7-.1,1.31-.31,1.82s-.5.91-.88,1.18-.82.4-1.34.4h.01ZM615.8,354.532c-.44,0-.76.14-.97.41-.21.27-.31.72-.32,1.34v.19c0,.7.1,1.21.31,1.51.21.3.54.46.99.46.8,0,1.2-.66,1.2-1.98,0-.64-.1-1.13-.3-1.45s-.51-.48-.93-.48h.02,0Z" style="fill: #515979;"/>
  <path d="M623.04,359.892c-1.05,0-1.88-.29-2.47-.87-.59-.58-.89-1.41-.89-2.47s.27-1.95.82-2.55,1.31-.9,2.28-.9,1.65.26,2.16.79.77,1.26.77,2.19v.87h-4.22c.02.51.17.9.45,1.19s.68.43,1.18.43c.39,0,.77-.04,1.12-.12s.72-.21,1.1-.39v1.38c-.31.16-.65.27-1,.35-.35.08-.79.11-1.3.11v-.01h0ZM622.79,354.372c-.38,0-.68.12-.89.36s-.34.58-.37,1.02h2.51c0-.44-.12-.78-.35-1.02s-.52-.36-.9-.36Z" style="fill: #515979;"/>
  <path d="M629.65,358.472c.31,0,.69-.07,1.12-.21v1.33c-.45.2-.99.3-1.64.3-.71,0-1.24-.18-1.56-.54-.32-.36-.49-.9-.49-1.63v-3.16h-.86v-.76l.98-.6.52-1.38h1.14v1.39h1.83v1.34h-1.83v3.16c0,.25.07.44.21.56s.33.18.57.18l.01.02h0Z" style="fill: #515979;"/>
  <path d="M631.66,351.532c0-.58.32-.87.97-.87s.97.29.97.87c0,.28-.08.49-.24.65s-.41.23-.73.23c-.65,0-.97-.29-.97-.88ZM633.53,359.772h-1.79v-6.55h1.79v6.55Z" style="fill: #515979;"/>
  <path d="M637.8,358.472c.31,0,.69-.07,1.12-.21v1.33c-.45.2-.99.3-1.64.3-.71,0-1.24-.18-1.56-.54-.32-.36-.49-.9-.49-1.63v-3.16h-.86v-.76l.98-.6.52-1.38h1.14v1.39h1.83v1.34h-1.83v3.16c0,.25.07.44.21.56s.33.18.57.18l.01.02h0Z" style="fill: #515979;"/>
  <path d="M645.83,356.492c0,1.07-.28,1.9-.84,2.5s-1.35.9-2.35.9c-.63,0-1.18-.14-1.66-.41s-.85-.67-1.11-1.19-.39-1.12-.39-1.8c0-1.07.28-1.9.84-2.5s1.34-.89,2.36-.89c.63,0,1.18.14,1.66.41s.85.67,1.11,1.18c.26.51.39,1.11.39,1.8h-.01ZM641.3,356.492c0,.65.11,1.14.32,1.47s.56.5,1.04.5.82-.17,1.03-.5.31-.82.31-1.47-.11-1.13-.32-1.46-.56-.49-1.04-.49-.82.16-1.03.48-.32.81-.32,1.46l.01.01h0Z" style="fill: #515979;"/>
  <path d="M650.62,353.102c.24,0,.44.02.6.05l-.13,1.68c-.14-.04-.32-.06-.53-.06-.57,0-1.01.15-1.33.44s-.48.7-.48,1.23v3.33h-1.79v-6.55h1.35l.26,1.1h.09c.2-.37.48-.66.82-.89s.72-.34,1.13-.34l.01.01Z" style="fill: #515979;"/>
  <path d="M657.6,359.772h-5.99v-1.26l2.15-2.17c.64-.65,1.05-1.1,1.25-1.36.2-.26.34-.49.42-.7.08-.21.13-.44.13-.67,0-.34-.09-.6-.28-.77-.19-.17-.44-.25-.76-.25-.33,0-.65.08-.97.23-.32.15-.64.37-.98.65l-.98-1.17c.42-.36.77-.61,1.05-.76.28-.15.58-.26.91-.34.33-.08.7-.12,1.1-.12.54,0,1.01.1,1.42.29s.73.47.96.82c.23.35.34.75.34,1.21,0,.39-.07.76-.21,1.11-.14.35-.35.7-.64,1.06-.29.36-.8.88-1.54,1.55l-1.1,1.04v.08h3.73v1.52l-.01.01h0Z" style="fill: #515979;"/>
  <path d="M658.82,358.932c0-.33.09-.58.26-.74s.43-.25.77-.25.58.09.75.26.27.42.27.74-.09.55-.27.73c-.18.18-.43.27-.75.27s-.58-.09-.76-.26-.27-.42-.27-.74v-.01Z" style="fill: #515979;"/>
  <path d="M664.8,359.892c-2.04,0-3.06-1.12-3.06-3.36,0-1.11.28-1.96.83-2.55s1.35-.88,2.38-.88c.76,0,1.44.15,2.04.45l-.53,1.38c-.28-.11-.54-.21-.79-.28s-.48-.11-.73-.11c-.93,0-1.39.66-1.39,1.98s.46,1.92,1.39,1.92c.34,0,.66-.05.96-.14.3-.09.59-.24.88-.43v1.53c-.29.18-.58.31-.88.38s-.67.11-1.12.11h.02,0Z" style="fill: #515979;"/>
  <path d="M673.86,356.492c0,1.07-.28,1.9-.84,2.5s-1.35.9-2.35.9c-.63,0-1.18-.14-1.66-.41s-.85-.67-1.11-1.19-.39-1.12-.39-1.8c0-1.07.28-1.9.84-2.5s1.34-.89,2.36-.89c.63,0,1.18.14,1.66.41s.85.67,1.11,1.18c.26.51.39,1.11.39,1.8h-.01ZM669.33,356.492c0,.65.11,1.14.32,1.47s.56.5,1.04.5.82-.17,1.03-.5.31-.82.31-1.47-.11-1.13-.32-1.46-.56-.49-1.04-.49-.82.16-1.03.48-.32.81-.32,1.46l.01.01h0Z" style="fill: #515979;"/>
  <path d="M680.86,359.772h-1.79v-3.83c0-.47-.08-.83-.24-1.06s-.41-.35-.75-.35c-.46,0-.79.17-1,.5s-.31.89-.31,1.66v3.08h-1.79v-6.55h1.37l.24.84h.1c.18-.3.43-.54.76-.71.33-.17.71-.25,1.14-.25.98,0,1.64.32,1.99.96h.16c.18-.3.43-.54.78-.71.35-.17.73-.25,1.16-.25.74,0,1.3.19,1.68.57s.57.99.57,1.83v4.27h-1.79v-3.83c0-.47-.08-.83-.24-1.06s-.41-.35-.75-.35c-.44,0-.76.16-.98.47s-.33.81-.33,1.49v3.29l.02-.01h0Z" style="fill: #515979;"/>
  <path d="M575.53,362.393c3.314,0,6-2.687,6-6s-2.686-6-6-6-6,2.686-6,6,2.687,6,6,6Z" style="fill: #3cb48c;"/>
  <path d="M747.12,359.892c-2.04,0-3.06-1.12-3.06-3.36,0-1.11.28-1.96.83-2.55s1.35-.88,2.38-.88c.76,0,1.44.15,2.04.45l-.53,1.38c-.28-.11-.54-.21-.79-.28s-.48-.11-.73-.11c-.93,0-1.39.66-1.39,1.98s.46,1.92,1.39,1.92c.34,0,.66-.05.96-.14.3-.09.59-.24.88-.43v1.53c-.29.18-.58.31-.88.38s-.67.11-1.12.11h.02,0Z" style="fill: #515979;"/>
  <path d="M756.18,356.492c0,1.07-.28,1.9-.84,2.5s-1.35.9-2.35.9c-.63,0-1.18-.14-1.66-.41s-.85-.67-1.11-1.19-.39-1.12-.39-1.8c0-1.07.28-1.9.84-2.5s1.34-.89,2.36-.89c.63,0,1.18.14,1.66.41s.85.67,1.11,1.18c.26.51.39,1.11.39,1.8h-.01ZM751.65,356.492c0,.65.11,1.14.32,1.47s.56.5,1.04.5.82-.17,1.03-.5.31-.82.31-1.47-.11-1.13-.32-1.46-.56-.49-1.04-.49-.82.16-1.03.48-.32.81-.32,1.46l.01.01h0Z" style="fill: #515979;"/>
  <path d="M763.18,359.773h-1.79v-3.83c0-.47-.08-.83-.24-1.06s-.41-.35-.75-.35c-.46,0-.79.17-1,.5s-.31.89-.31,1.66v3.08h-1.79v-6.55h1.37l.24.84h.1c.18-.3.43-.54.76-.71.33-.17.71-.25,1.14-.25.98,0,1.64.32,1.99.96h.16c.18-.3.43-.54.78-.71.35-.17.73-.25,1.16-.25.74,0,1.3.19,1.68.57s.57.99.57,1.83v4.27h-1.79v-3.83c0-.47-.08-.83-.24-1.06s-.41-.35-.75-.35c-.44,0-.76.16-.98.47s-.33.81-.33,1.49v3.29l.02-.01h0Z" style="fill: #515979;"/>
  <path d="M772.33,359.892c-.77,0-1.37-.28-1.81-.84h-.09c.06.55.09.86.09.95v2.65h-1.79v-9.43h1.45l.25.85h.08c.42-.65,1.04-.97,1.86-.97.77,0,1.38.3,1.82.9s.66,1.43.66,2.49c0,.7-.1,1.31-.31,1.82s-.5.91-.88,1.18-.82.4-1.34.4h.01ZM771.8,354.532c-.44,0-.76.14-.97.41-.21.27-.31.72-.32,1.34v.19c0,.7.1,1.21.31,1.51.21.3.54.46.99.46.8,0,1.2-.66,1.2-1.98,0-.64-.1-1.13-.3-1.45s-.51-.48-.93-.48h.02,0Z" style="fill: #515979;"/>
  <path d="M779.04,359.892c-1.05,0-1.88-.29-2.47-.87-.59-.58-.89-1.41-.89-2.47s.27-1.95.82-2.55,1.31-.9,2.28-.9,1.65.26,2.16.79.77,1.26.77,2.19v.87h-4.22c.02.51.17.9.45,1.19s.68.43,1.18.43c.39,0,.77-.04,1.12-.12s.72-.21,1.1-.39v1.38c-.31.16-.65.27-1,.35-.35.08-.79.11-1.3.11v-.01h0ZM778.79,354.372c-.38,0-.68.12-.89.36s-.34.58-.37,1.02h2.51c0-.44-.12-.78-.35-1.02s-.52-.36-.9-.36Z" style="fill: #515979;"/>
  <path d="M785.65,358.472c.31,0,.69-.07,1.12-.21v1.33c-.45.2-.99.3-1.64.3-.71,0-1.24-.18-1.56-.54-.32-.36-.49-.9-.49-1.63v-3.16h-.86v-.76l.98-.6.52-1.38h1.14v1.39h1.83v1.34h-1.83v3.16c0,.25.07.44.21.56s.33.18.57.18l.01.02h0Z" style="fill: #515979;"/>
  <path d="M787.66,351.532c0-.58.32-.87.97-.87s.97.29.97.87c0,.28-.08.49-.24.65s-.41.23-.73.23c-.65,0-.97-.29-.97-.88ZM789.53,359.772h-1.79v-6.55h1.79v6.55Z" style="fill: #515979;"/>
  <path d="M793.8,358.472c.31,0,.69-.07,1.12-.21v1.33c-.45.2-.99.3-1.64.3-.71,0-1.24-.18-1.56-.54-.32-.36-.49-.9-.49-1.63v-3.16h-.86v-.76l.98-.6.52-1.38h1.14v1.39h1.83v1.34h-1.83v3.16c0,.25.07.44.21.56s.33.18.57.18l.01.02h0Z" style="fill: #515979;"/>
  <path d="M801.83,356.492c0,1.07-.28,1.9-.84,2.5s-1.35.9-2.35.9c-.63,0-1.18-.14-1.66-.41s-.85-.67-1.11-1.19-.39-1.12-.39-1.8c0-1.07.28-1.9.84-2.5s1.34-.89,2.36-.89c.63,0,1.18.14,1.66.41s.85.67,1.11,1.18c.26.51.39,1.11.39,1.8h-.01ZM797.3,356.492c0,.65.11,1.14.32,1.47s.56.5,1.04.5.82-.17,1.03-.5.31-.82.31-1.47-.11-1.13-.32-1.46-.56-.49-1.04-.49-.82.16-1.03.48-.32.81-.32,1.46l.01.01h0Z" style="fill: #515979;"/>
  <path d="M806.62,353.102c.24,0,.44.02.6.05l-.13,1.68c-.14-.04-.32-.06-.53-.06-.57,0-1.01.15-1.33.44s-.48.7-.48,1.23v3.33h-1.79v-6.55h1.35l.26,1.1h.09c.2-.37.48-.66.82-.89s.72-.34,1.13-.34l.01.01Z" style="fill: #515979;"/>
  <path d="M813.19,353.122c0,.54-.16.99-.49,1.37s-.78.63-1.37.77v.04c.69.09,1.21.3,1.57.63.36.33.53.78.53,1.35,0,.82-.3,1.47-.9,1.92-.6.45-1.45.69-2.56.69-.93,0-1.75-.15-2.47-.46v-1.54c.33.17.7.3,1.1.41.4.11.79.16,1.18.16.6,0,1.04-.1,1.32-.3.28-.2.43-.53.43-.98,0-.4-.16-.69-.49-.86-.33-.17-.85-.25-1.57-.25h-.65v-1.39h.66c.66,0,1.15-.09,1.46-.26s.46-.47.46-.89c0-.65-.41-.97-1.22-.97-.28,0-.57.05-.86.14s-.61.26-.97.49l-.84-1.25c.78-.56,1.71-.84,2.79-.84.89,0,1.59.18,2.1.54.51.36.77.86.77,1.5l.02-.02h0Z" style="fill: #515979;"/>
  <path d="M814.45,358.931c0-.33.09-.58.26-.74s.43-.25.77-.25.58.09.75.26.27.42.27.74-.09.55-.27.73c-.18.18-.43.27-.75.27s-.58-.09-.76-.26-.27-.42-.27-.74v-.01Z" style="fill: #515979;"/>
  <path d="M820.43,359.892c-2.04,0-3.06-1.12-3.06-3.36,0-1.11.28-1.96.83-2.55s1.35-.88,2.38-.88c.76,0,1.44.15,2.04.45l-.53,1.38c-.28-.11-.54-.21-.79-.28s-.48-.11-.73-.11c-.93,0-1.39.66-1.39,1.98s.46,1.92,1.39,1.92c.34,0,.66-.05.96-.14.3-.09.59-.24.88-.43v1.53c-.29.18-.58.31-.88.38s-.67.11-1.12.11h.02,0Z" style="fill: #515979;"/>
  <path d="M829.49,356.492c0,1.07-.28,1.9-.84,2.5s-1.35.9-2.35.9c-.63,0-1.18-.14-1.66-.41s-.85-.67-1.11-1.19-.39-1.12-.39-1.8c0-1.07.28-1.9.84-2.5s1.34-.89,2.36-.89c.63,0,1.18.14,1.66.41s.85.67,1.11,1.18c.26.51.39,1.11.39,1.8h-.01ZM824.96,356.492c0,.65.11,1.14.32,1.47s.56.5,1.04.5.82-.17,1.03-.5.31-.82.31-1.47-.11-1.13-.32-1.46-.56-.49-1.04-.49-.82.16-1.03.48-.32.81-.32,1.46l.01.01h0Z" style="fill: #515979;"/>
  <path d="M836.49,359.772h-1.79v-3.83c0-.47-.08-.83-.24-1.06s-.41-.35-.75-.35c-.46,0-.79.17-1,.5s-.31.89-.31,1.66v3.08h-1.79v-6.55h1.37l.24.84h.1c.18-.3.43-.54.76-.71.33-.17.71-.25,1.14-.25.98,0,1.64.32,1.99.96h.16c.18-.3.43-.54.78-.71.35-.17.73-.25,1.16-.25.74,0,1.3.19,1.68.57s.57.99.57,1.83v4.27h-1.79v-3.83c0-.47-.08-.83-.24-1.06s-.41-.35-.75-.35c-.44,0-.76.16-.98.47s-.33.81-.33,1.49v3.29l.02-.01h0Z" style="fill: #515979;"/>
  <path d="M731.53,362.393c3.314,0,6-2.687,6-6s-2.686-6-6-6-6,2.686-6,6,2.687,6,6,6Z" style="fill: #ffd886;"/>
  <path d="M326.53,353.223h1.96l1.24,3.69c.11.32.18.7.22,1.14h.04c.04-.4.13-.78.25-1.14l1.21-3.69h1.92l-2.77,7.39c-.25.68-.62,1.2-1.09,1.54s-1.02.51-1.65.51c-.31,0-.61-.03-.91-.1v-1.42c.21.05.45.08.7.08.32,0,.59-.1.83-.29s.42-.49.55-.88l.11-.32-2.6-6.5-.01-.01h0Z" style="fill: #515979;"/>
  <path d="M339.81,356.492c0,1.07-.28,1.9-.84,2.5s-1.35.9-2.35.9c-.63,0-1.18-.14-1.66-.41s-.85-.67-1.11-1.19c-.26-.52-.39-1.12-.39-1.8,0-1.07.28-1.9.84-2.5s1.34-.89,2.36-.89c.63,0,1.18.14,1.66.41s.85.67,1.11,1.18c.26.51.39,1.11.39,1.8h-.01,0ZM335.28,356.492c0,.65.11,1.14.32,1.47s.56.5,1.04.5.82-.17,1.03-.5.31-.82.31-1.47-.11-1.13-.32-1.46c-.21-.33-.56-.49-1.04-.49s-.82.16-1.03.48-.32.81-.32,1.46l.01.01h0Z" style="fill: #515979;"/>
  <path d="M345.58,359.773l-.24-.84h-.09c-.19.3-.46.54-.81.71s-.75.25-1.2.25c-.77,0-1.35-.21-1.74-.62s-.59-1-.59-1.78v-4.27h1.79v3.83c0,.47.08.83.25,1.06s.44.35.8.35c.5,0,.86-.17,1.08-.5s.33-.89.33-1.66v-3.08h1.79v6.55h-1.37Z" style="fill: #515979;"/>
  <path d="M348.35,358.932c0-.33.09-.58.26-.74s.43-.25.77-.25.58.09.75.26.27.42.27.74-.09.55-.27.73c-.18.18-.43.27-.75.27s-.58-.09-.76-.26-.27-.42-.27-.74v-.01Z" style="fill: #515979;"/>
  <path d="M354.34,359.892c-2.04,0-3.06-1.12-3.06-3.36,0-1.11.28-1.96.83-2.55s1.35-.88,2.38-.88c.76,0,1.44.15,2.04.45l-.53,1.38c-.28-.11-.54-.21-.79-.28s-.48-.11-.73-.11c-.93,0-1.39.66-1.39,1.98s.46,1.92,1.39,1.92c.34,0,.66-.05.96-.14s.59-.24.88-.43v1.53c-.29.18-.58.31-.88.38s-.67.11-1.12.11h.02Z" style="fill: #515979;"/>
  <path d="M363.4,356.492c0,1.07-.28,1.9-.84,2.5s-1.35.9-2.35.9c-.63,0-1.18-.14-1.66-.41s-.85-.67-1.11-1.19c-.26-.52-.39-1.12-.39-1.8,0-1.07.28-1.9.84-2.5s1.34-.89,2.36-.89c.63,0,1.18.14,1.66.41s.85.67,1.11,1.18c.26.51.39,1.11.39,1.8h-.01,0ZM358.87,356.492c0,.65.11,1.14.32,1.47s.56.5,1.04.5.82-.17,1.03-.5.31-.82.31-1.47-.11-1.13-.32-1.46c-.21-.33-.56-.49-1.04-.49s-.82.16-1.03.48-.32.81-.32,1.46l.01.01h0Z" style="fill: #515979;"/>
  <path d="M370.401,359.772h-1.79v-3.83c0-.47-.08-.83-.24-1.06s-.41-.35-.75-.35c-.46,0-.79.17-1,.5s-.31.89-.31,1.66v3.08h-1.79v-6.55h1.37l.24.84h.1c.18-.3.43-.54.76-.71.33-.17.71-.25,1.14-.25.98,0,1.64.32,1.99.96h.16c.18-.3.43-.54.78-.71.35-.17.73-.25,1.16-.25.74,0,1.3.19,1.68.57s.57.99.57,1.83v4.27h-1.79v-3.83c0-.47-.08-.83-.24-1.06s-.41-.35-.75-.35c-.44,0-.76.16-.98.47s-.33.81-.33,1.49v3.29l.02-.01Z" style="fill: #515979;"/>
  <path d="M314.53,362.393c3.314,0,6-2.687,6-6s-2.686-6-6-6-6,2.686-6,6,2.687,6,6,6Z" style="fill: #4dcff7;"/>
</svg>