<?xml version="1.0" encoding="UTF-8"?>
<svg id="Layer_1" data-name="Layer 1" xmlns="http://www.w3.org/2000/svg" width="424" height="628" viewBox="0 0 424 628">
  <path d="M62.462,523.67c-.712-.844-1.974-.953-2.818-.24-.845.712-.953,1.974-.241,2.818.864,1.025,1.728,2.045,2.591,3.06.396.466.958.705,1.525.705.458,0,.918-.156,1.294-.477.841-.715.944-1.978.229-2.818-.859-1.011-1.719-2.026-2.58-3.048Z" style="fill: #d9dde1;"/>
  <path d="M46.276,503.453c-.663-.883-1.917-1.061-2.8-.397-.883.663-1.062,1.917-.398,2.8.808,1.074,1.619,2.143,2.436,3.203.394.512.987.78,1.586.78.426,0,.854-.136,1.218-.415.875-.674,1.039-1.929.365-2.805-.807-1.049-1.609-2.104-2.407-3.166Z" style="fill: #d9dde1;"/>
  <path d="M109.557,245.98c1.287-.311,2.572-.604,3.853-.881,1.08-.233,1.766-1.298,1.533-2.377-.233-1.08-1.303-1.769-2.377-1.533-1.312.284-2.628.584-3.947.902-1.074.259-1.734,1.34-1.475,2.414.221.916,1.04,1.531,1.943,1.531.155,0,.313-.018.471-.056Z" style="fill: #d9dde1;"/>
  <path d="M54.223,513.668c-.691-.86-1.949-.999-2.812-.308-.861.691-.999,1.95-.308,2.812.841,1.048,1.684,2.088,2.529,3.122.396.484.971.735,1.55.735.445,0,.893-.147,1.264-.451.855-.698.982-1.958.284-2.813-.838-1.026-1.674-2.059-2.508-3.097Z" style="fill: #d9dde1;"/>
  <path d="M46.176,280.107c.785-.777.791-2.043.014-2.829-.777-.785-2.043-.791-2.829-.014-.957.948-1.904,1.916-2.84,2.906-.759.803-.724,2.068.079,2.828.387.366.881.547,1.374.547.531,0,1.06-.21,1.454-.625.906-.958,1.823-1.896,2.749-2.812Z" style="fill: #d9dde1;"/>
  <path d="M31.648,482.179c-.581-.938-1.815-1.228-2.753-.646-.939.582-1.229,1.814-.647,2.754.709,1.144,1.426,2.281,2.152,3.41.382.595,1.026.919,1.685.919.37,0,.745-.103,1.079-.317.929-.597,1.199-1.835.602-2.764-.714-1.111-1.419-2.229-2.117-3.355Z" style="fill: #d9dde1;"/>
  <path d="M38.718,492.972c-.626-.908-1.871-1.138-2.782-.511-.91.627-1.138,1.873-.511,2.782.764,1.106,1.534,2.207,2.309,3.3.39.549,1.007.842,1.633.842.4,0,.805-.12,1.156-.369.9-.64,1.112-1.889.473-2.789-.766-1.077-1.525-2.162-2.278-3.255Z" style="fill: #d9dde1;"/>
  <path d="M37.586,289.559c.699-.855.573-2.115-.283-2.814-.855-.699-2.115-.573-2.814.283-.851,1.041-1.691,2.102-2.52,3.184-.671.877-.505,2.132.372,2.804.363.278.79.412,1.214.412.601,0,1.196-.27,1.589-.784.803-1.048,1.617-2.076,2.441-3.084Z" style="fill: #d9dde1;"/>
  <path d="M52.684,274.118c1.001-.856,2.012-1.691,3.031-2.507.862-.69,1.002-1.949.312-2.811-.689-.862-1.948-1.002-2.811-.312-1.052.842-2.096,1.705-3.131,2.589-.84.718-.938,1.98-.221,2.82.396.463.957.701,1.521.701.459,0,.922-.158,1.298-.479Z" style="fill: #d9dde1;"/>
  <path d="M96.297,563.262c-.693-.86-1.951-.998-2.812-.304-.861.692-.997,1.951-.304,2.812.839,1.042,1.664,2.08,2.474,3.112.395.503.982.766,1.575.766.432,0,.867-.14,1.233-.427.869-.682,1.021-1.938.339-2.808-.82-1.046-1.655-2.096-2.505-3.151Z" style="fill: #d9dde1;"/>
  <path d="M63.935,260.794c-1.134.729-2.262,1.478-3.382,2.249-.91.626-1.141,1.872-.515,2.781.388.564,1.014.867,1.65.867.391,0,.785-.114,1.131-.352,1.086-.747,2.179-1.473,3.278-2.179.929-.597,1.199-1.834.602-2.764-.597-.929-1.834-1.198-2.764-.602Z" style="fill: #d9dde1;"/>
  <path d="M87.948,553.213c-.717-.841-1.979-.94-2.819-.225-.841.717-.941,1.979-.225,2.82.869,1.019,1.728,2.032,2.577,3.043.396.471.962.713,1.532.713.454,0,.911-.154,1.286-.469.845-.711.955-1.973.244-2.818-.855-1.017-1.72-2.038-2.595-3.064Z" style="fill: #d9dde1;"/>
  <path d="M29.446,297.082c-.921-.609-2.161-.354-2.771.566-.74,1.119-1.469,2.258-2.186,3.417-.582.939-.291,2.172.648,2.753.328.203.691.3,1.05.3.67,0,1.325-.337,1.703-.948.696-1.125,1.404-2.23,2.122-3.317.609-.921.356-2.162-.566-2.771Z" style="fill: #d9dde1;"/>
  <path d="M104.272,573.665c-.647-.896-1.898-1.097-2.792-.45-.895.646-1.097,1.897-.45,2.792.781,1.081,1.541,2.157,2.281,3.231.388.563,1.013.865,1.649.865.391,0,.786-.114,1.133-.353.91-.627,1.139-1.872.512-2.782-.756-1.098-1.534-2.199-2.333-3.304Z" style="fill: #d9dde1;"/>
  <path d="M70.9,533.537c-.723-.834-1.986-.927-2.821-.202-.835.723-.926,1.986-.203,2.821l2.624,3.024c.396.455.952.688,1.511.688.465,0,.932-.161,1.311-.49.833-.725.922-1.987.198-2.821l-2.62-3.021Z" style="fill: #d9dde1;"/>
  <path d="M79.433,543.35c-.726-.833-1.989-.919-2.822-.195-.833.726-.92,1.989-.195,2.822l2.622,3.018c.396.456.952.689,1.512.689.464,0,.931-.161,1.309-.489.834-.724.925-1.986.201-2.821l-2.628-3.023Z" style="fill: #d9dde1;"/>
  <path d="M88.864,252.518c1.026-.409,1.527-1.572,1.119-2.598-.409-1.026-1.574-1.526-2.598-1.119-1.251.498-2.5,1.015-3.747,1.551-1.015.437-1.483,1.613-1.047,2.627.326.757,1.063,1.21,1.838,1.21.264,0,.532-.053.79-.164,1.212-.521,2.427-1.024,3.645-1.508Z" style="fill: #d9dde1;"/>
  <path d="M1.987,390.757h.031c1.09,0,1.982-.875,2-1.969.02-1.31.056-2.627.108-3.953.043-1.104-.816-2.033-1.92-2.076-1.114-.032-2.033.816-2.077,1.92-.053,1.357-.09,2.706-.111,4.047-.017,1.104.865,2.014,1.969,2.031Z" style="fill: #d9dde1;"/>
  <path d="M13.881,327.192c.241.095.489.141.734.141.797,0,1.55-.48,1.861-1.267.487-1.234.986-2.451,1.495-3.652.432-1.017-.042-2.19-1.06-2.622-1.016-.432-2.191.043-2.622,1.06-.523,1.23-1.034,2.48-1.534,3.746-.406,1.027.099,2.188,1.126,2.595Z" style="fill: #d9dde1;"/>
  <path d="M6.491,352.079c.149.034.298.05.445.05.913,0,1.737-.629,1.948-1.557l.027-.115c.293-1.253.598-2.491.911-3.717.274-1.07-.372-2.16-1.441-2.434-1.072-.276-2.159.372-2.434,1.441-.32,1.251-.63,2.517-.929,3.788l-.035.149c-.245,1.077.43,2.148,1.507,2.394Z" style="fill: #d9dde1;"/>
  <path d="M9.735,339.498c.196.061.394.09.589.09.855,0,1.646-.553,1.911-1.413.391-1.27.793-2.523,1.207-3.762.349-1.048-.217-2.181-1.265-2.53-1.045-.346-2.18.217-2.53,1.265-.423,1.268-.834,2.551-1.235,3.852-.325,1.056.268,2.175,1.323,2.499Z" style="fill: #d9dde1;"/>
  <path d="M4.057,364.853c.111.019.221.027.329.027.961,0,1.809-.694,1.971-1.674.214-1.293.443-2.594.688-3.901.203-1.085-.513-2.13-1.598-2.333-1.087-.201-2.13.513-2.333,1.599-.25,1.335-.483,2.663-.702,3.983-.18,1.089.557,2.119,1.646,2.299Z" style="fill: #d9dde1;"/>
  <path d="M421.03,8c.018,0,.036,0,.055,0,1.104-.029,1.975-.948,1.945-2.052-.039-1.482-.065-2.802-.065-3.947,0-1.104-.896-2-2-2s-2,.896-2,2c0,1.176.026,2.531.067,4.053.028,1.086.918,1.947,1.998,1.947Z" style="fill: #d9dde1;"/>
  <path d="M421.248,12.998c-1.104.029-1.975.948-1.945,2.053.034,1.272.065,2.602.093,3.985.021,1.091.913,1.96,1.999,1.96.014,0,.027,0,.04,0,1.104-.021,1.982-.935,1.961-2.039-.027-1.393-.061-2.731-.095-4.013-.029-1.104-.901-1.984-2.053-1.945Z" style="fill: #d9dde1;"/>
  <path d="M2.536,377.766c.062.006.125.009.186.009,1.021,0,1.894-.779,1.989-1.816.12-1.304.256-2.615.408-3.936.126-1.097-.661-2.089-1.758-2.216-1.098-.122-2.089.662-2.216,1.759-.156,1.35-.295,2.692-.418,4.025-.101,1.1.708,2.073,1.808,2.175Z" style="fill: #d9dde1;"/>
  <path d="M25.171,471.041c-.527-.973-1.741-1.328-2.712-.804-.971.527-1.331,1.741-.804,2.712.644,1.186,1.297,2.362,1.96,3.53.369.649,1.045,1.013,1.741,1.013.334,0,.674-.084.986-.261.96-.546,1.297-1.767.751-2.727-.651-1.146-1.292-2.302-1.923-3.464Z" style="fill: #d9dde1;"/>
  <path d="M96.583,249.59c.208,0,.418-.032.626-.101,1.255-.414,2.51-.809,3.766-1.187,1.058-.318,1.657-1.434,1.339-2.491-.318-1.058-1.434-1.659-2.491-1.339-1.289.388-2.577.793-3.865,1.218-1.049.346-1.619,1.476-1.273,2.525.277.841,1.059,1.375,1.899,1.375Z" style="fill: #d9dde1;"/>
  <path d="M72.751,259.883c.325,0,.655-.08.96-.247,1.155-.634,2.315-1.248,3.48-1.842.984-.502,1.375-1.707.873-2.69-.502-.984-1.707-1.375-2.69-.873-1.201.613-2.398,1.245-3.588,1.898-.968.532-1.322,1.748-.791,2.716.364.663,1.049,1.038,1.755,1.038Z" style="fill: #d9dde1;"/>
  <path d="M11.492,439.31c-.399-1.251-.784-2.51-1.154-3.776-.31-1.06-1.418-1.668-2.481-1.359-1.06.311-1.668,1.421-1.359,2.48.38,1.3.774,2.59,1.183,3.871.271.85,1.058,1.393,1.905,1.393.201,0,.406-.031.608-.096,1.052-.336,1.633-1.461,1.297-2.513Z" style="fill: #d9dde1;"/>
  <path d="M15.856,451.384c-.493-1.219-.973-2.446-1.44-3.682-.391-1.033-1.543-1.555-2.578-1.164-1.033.391-1.554,1.545-1.163,2.578.478,1.265.969,2.52,1.473,3.766.315.779,1.064,1.252,1.855,1.252.25,0,.503-.048.749-.146,1.024-.414,1.519-1.58,1.105-2.604Z" style="fill: #d9dde1;"/>
  <path d="M19.392,459.547c-.463-1.003-1.651-1.442-2.654-.977-1.003.463-1.44,1.651-.977,2.654.566,1.225,1.144,2.441,1.733,3.65.346.71,1.058,1.123,1.799,1.123.294,0,.593-.064.875-.202.993-.484,1.405-1.682.921-2.675-.578-1.184-1.144-2.375-1.698-3.574Z" style="fill: #d9dde1;"/>
  <path d="M23.479,310.851c.519-.975.149-2.187-.826-2.705-.975-.519-2.186-.15-2.705.826-.629,1.183-1.247,2.384-1.854,3.604-.492.989-.088,2.19.901,2.681.286.143.589.209.889.209.735,0,1.443-.406,1.792-1.11.59-1.187,1.191-2.354,1.803-3.505Z" style="fill: #d9dde1;"/>
  <path d="M4,416.625c1.093-.161,1.848-1.179,1.686-2.271-.191-1.296-.368-2.6-.528-3.912-.134-1.097-1.138-1.875-2.228-1.742-1.097.135-1.876,1.132-1.743,2.229.165,1.346.346,2.683.542,4.01.147.994,1.001,1.708,1.976,1.708.097,0,.196-.007.295-.021Z" style="fill: #d9dde1;"/>
  <path d="M2.466,403.734c1.102-.072,1.938-1.023,1.866-2.126-.084-1.306-.154-2.619-.206-3.94-.044-1.104-.957-1.964-2.078-1.919-1.104.044-1.963.974-1.919,2.077.054,1.356.125,2.703.212,4.042.068,1.058.948,1.87,1.994,1.87.043,0,.087,0,.132-.004Z" style="fill: #d9dde1;"/>
  <path d="M113.562,588.185c-.631-1.158-1.31-2.349-2.018-3.537-.565-.949-1.792-1.261-2.742-.696-.949.565-1.261,1.792-.696,2.741.682,1.146,1.335,2.292,1.942,3.406.363.666,1.049,1.043,1.758,1.043.323,0,.651-.078.955-.244.97-.528,1.328-1.743.799-2.713Z" style="fill: #d9dde1;"/>
  <path d="M8.082,426.945c-.297-1.276-.58-2.562-.848-3.854-.225-1.082-1.283-1.773-2.364-1.554-1.082.225-1.777,1.282-1.553,2.364.274,1.326.564,2.645.869,3.952.215.923,1.038,1.546,1.946,1.546.15,0,.303-.017.456-.053,1.076-.25,1.745-1.326,1.494-2.401Z" style="fill: #d9dde1;"/>
  <path d="M119.841,620.595c-1.095-.144-2.101.62-2.25,1.715-.146,1.085-.342,2.182-.58,3.26s.443,2.146,1.522,2.384c.145.032.29.047.433.047.918,0,1.745-.636,1.951-1.569.262-1.185.476-2.391.637-3.586.148-1.095-.62-2.102-1.714-2.25Z" style="fill: #d9dde1;"/>
  <path d="M386.999,149.226c-.895-.647-2.146-.445-2.792.45-.768,1.062-1.551,2.12-2.351,3.174-.668.88-.496,2.135.384,2.802.361.275.786.407,1.207.407.604,0,1.201-.272,1.595-.791.819-1.079,1.622-2.163,2.407-3.25.647-.896.445-2.146-.45-2.792Z" style="fill: #d9dde1;"/>
  <path d="M400.29,126.926c-.987-.504-2.189-.115-2.692.867-.599,1.167-1.213,2.333-1.844,3.497-.525.971-.165,2.185.807,2.711.303.164.629.242.95.242.711,0,1.398-.379,1.761-1.048.645-1.19,1.272-2.383,1.885-3.577.504-.983.116-2.188-.866-2.692Z" style="fill: #d9dde1;"/>
  <path d="M326.79,200.147c-1.142.645-2.297,1.282-3.466,1.914-.972.525-1.334,1.738-.81,2.71.361.669,1.051,1.05,1.762,1.05.32,0,.646-.078.948-.241,1.192-.644,2.369-1.294,3.532-1.95.962-.543,1.302-1.763.759-2.725s-1.764-1.3-2.726-.759Z" style="fill: #d9dde1;"/>
  <path d="M394.066,138.329c-.944-.577-2.174-.28-2.75.662-.685,1.119-1.386,2.235-2.102,3.348-.598.929-.329,2.167.6,2.764.335.216.71.319,1.08.319.657,0,1.302-.324,1.684-.918.733-1.139,1.45-2.281,2.15-3.425.576-.942.28-2.173-.662-2.75Z" style="fill: #d9dde1;"/>
  <path d="M367.633,169.241c-.92.931-1.855,1.857-2.809,2.776-.794.768-.816,2.034-.049,2.828.393.407.915.611,1.438.611.5,0,1.001-.187,1.39-.561.975-.942,1.934-1.89,2.875-2.844.776-.786.769-2.052-.018-2.828-.785-.777-2.053-.769-2.828.018Z" style="fill: #d9dde1;"/>
  <path d="M358.276,178.026c-.986.86-1.988,1.714-3.007,2.562-.849.707-.965,1.967-.258,2.816.396.476.965.721,1.538.721.451,0,.904-.152,1.278-.463,1.042-.867,2.067-1.741,3.077-2.622.832-.726.919-1.989.193-2.822-.727-.833-1.989-.919-2.822-.193Z" style="fill: #d9dde1;"/>
  <path d="M337.779,193.479c-1.097.715-2.208,1.424-3.335,2.126-.938.584-1.224,1.817-.64,2.755.379.608,1.031.943,1.699.943.361,0,.727-.098,1.056-.303,1.15-.717,2.285-1.44,3.405-2.17.925-.603,1.186-1.842.583-2.768-.604-.925-1.841-1.187-2.769-.583Z" style="fill: #d9dde1;"/>
  <path d="M348.302,186.107c-1.047.788-2.107,1.569-3.184,2.345-.896.646-1.1,1.896-.454,2.792.392.542,1.004.831,1.625.831.404,0,.813-.123,1.167-.377,1.1-.792,2.183-1.591,3.252-2.396.883-.665,1.059-1.918.395-2.801-.662-.881-1.917-1.06-2.801-.395Z" style="fill: #d9dde1;"/>
  <path d="M376.296,159.777c-.846.999-1.708,1.993-2.588,2.982-.734.825-.66,2.089.165,2.824.381.339.855.505,1.328.505.552,0,1.101-.227,1.495-.671.901-1.014,1.785-2.032,2.652-3.056.714-.843.609-2.105-.233-2.819-.844-.713-2.105-.61-2.819.234Z" style="fill: #d9dde1;"/>
  <path d="M405.656,115.092c-1.02-.432-2.191.044-2.622,1.061-.512,1.208-1.039,2.417-1.583,3.625-.453,1.007-.004,2.191,1.004,2.645.266.12.545.177.819.177.763,0,1.491-.439,1.825-1.18.556-1.235,1.095-2.47,1.618-3.706.431-1.017-.045-2.191-1.062-2.622Z" style="fill: #d9dde1;"/>
  <path d="M418.947,64.939c-1.086-.161-2.11.591-2.272,1.685-.192,1.297-.397,2.603-.617,3.918-.182,1.089.554,2.12,1.644,2.302.111.019.222.028.332.028.959,0,1.807-.693,1.97-1.671.224-1.339.433-2.669.629-3.989.162-1.093-.592-2.11-1.685-2.272Z" style="fill: #d9dde1;"/>
  <path d="M421.232,39.019c-1.092-.056-2.039.8-2.092,1.904-.061,1.304-.132,2.627-.214,3.97-.067,1.103.771,2.051,1.874,2.119.041.003.083.004.124.004,1.049,0,1.93-.817,1.994-1.877.084-1.362.155-2.705.218-4.027.052-1.104-.801-2.04-1.904-2.091Z" style="fill: #d9dde1;"/>
  <path d="M421.475,25.997h-.009c-1.101,0-1.995.89-2,1.991-.006,1.296-.02,2.623-.043,3.98-.019,1.104.861,2.015,1.966,2.034.012,0,.023,0,.035,0,1.088,0,1.98-.873,1.999-1.966.023-1.374.037-2.719.043-4.031.005-1.104-.887-2.004-1.991-2.009Z" style="fill: #d9dde1;"/>
  <path d="M420.412,52.01c-1.102-.1-2.076.702-2.181,1.802-.124,1.303-.26,2.621-.407,3.951-.121,1.098.67,2.086,1.769,2.208.074.008.148.012.223.012,1.006,0,1.872-.757,1.985-1.78.149-1.351.287-2.689.413-4.013.104-1.1-.702-2.076-1.802-2.181Z" style="fill: #d9dde1;"/>
  <path d="M416.786,77.768c-1.089-.229-2.141.469-2.365,1.551-.268,1.286-.548,2.578-.842,3.875-.244,1.078.431,2.148,1.508,2.393.149.034.298.05.444.05.913,0,1.738-.63,1.948-1.558.3-1.322.586-2.637.857-3.946.225-1.082-.47-2.14-1.551-2.365Z" style="fill: #d9dde1;"/>
  <path d="M410.177,102.907c-1.041-.362-2.182.196-2.542,1.24-.427,1.241-.869,2.483-1.328,3.728-.382,1.036.148,2.186,1.185,2.568.229.084.462.124.692.124.813,0,1.578-.5,1.876-1.309.47-1.271.922-2.542,1.358-3.81.359-1.044-.196-2.183-1.241-2.542Z" style="fill: #d9dde1;"/>
  <path d="M117.756,602.861c1.045-.358,1.601-1.496,1.242-2.541-.434-1.264-.923-2.558-1.454-3.847-.421-1.021-1.591-1.51-2.611-1.086-1.021.421-1.508,1.59-1.087,2.611.5,1.214.961,2.432,1.369,3.62.285.83,1.061,1.352,1.892,1.352.215,0,.434-.035.649-.109Z" style="fill: #d9dde1;"/>
  <path d="M413.876,90.442c-1.063-.29-2.165.339-2.455,1.404-.345,1.267-.705,2.538-1.079,3.812-.312,1.06.296,2.171,1.355,2.482.188.055.378.082.564.082.864,0,1.662-.565,1.918-1.437.382-1.299.748-2.595,1.101-3.887.29-1.066-.338-2.165-1.404-2.456Z" style="fill: #d9dde1;"/>
  <path d="M164.684,236.89c-1.322.025-2.65.046-3.986.062-1.104.014-1.989.92-1.975,2.025.014,1.096.906,1.975,2,1.975h.025c1.345-.017,2.682-.038,4.013-.063,1.104-.021,1.983-.934,1.961-2.038-.021-1.104-.915-1.988-2.038-1.961Z" style="fill: #d9dde1;"/>
  <path d="M177.63,236.499c-1.321.055-2.648.105-3.983.151-1.104.039-1.968.964-1.929,2.068.037,1.08.925,1.931,1.998,1.931.023,0,.047,0,.07,0,1.344-.047,2.681-.098,4.01-.153,1.104-.046,1.961-.978,1.915-2.081-.045-1.104-.954-1.965-2.081-1.915Z" style="fill: #d9dde1;"/>
  <path d="M190.558,235.805c-1.318.087-2.643.169-3.976.247-1.103.064-1.944,1.01-1.88,2.113.062,1.063.943,1.883,1.995,1.883.04,0,.079,0,.119-.003,1.343-.079,2.679-.161,4.006-.249,1.102-.073,1.937-1.025,1.864-2.127s-1.029-1.932-2.127-1.864Z" style="fill: #d9dde1;"/>
  <path d="M151.723,237.004h-.013c-1.33.008-2.677.03-4.042.065-1.104.029-1.976.947-1.947,2.052.028,1.086.918,1.948,1.999,1.948.018,0,.035,0,.053,0,1.338-.035,2.659-.056,3.963-.064,1.104-.007,1.994-.908,1.987-2.013-.007-1.1-.901-1.987-2-1.987Z" style="fill: #d9dde1;"/>
  <path d="M138.582,237.51c-1.332.095-2.675.205-4.029.329-1.1.101-1.91,1.075-1.809,2.174.095,1.038.967,1.817,1.989,1.817.061,0,.123-.003.185-.008,1.328-.122,2.644-.229,3.949-.322,1.102-.079,1.931-1.036,1.853-2.138s-1.037-1.92-2.138-1.853Z" style="fill: #d9dde1;"/>
  <path d="M203.458,234.786c-1.314.121-2.636.238-3.967.349-1.101.092-1.918,1.059-1.826,2.16.087,1.044.962,1.833,1.991,1.833.056,0,.113-.002.169-.007,1.341-.112,2.674-.23,4-.352,1.1-.102,1.909-1.075,1.808-2.175-.102-1.1-1.074-1.912-2.175-1.808Z" style="fill: #d9dde1;"/>
  <path d="M119.003,607.667c-1.09.181-1.826,1.211-1.646,2.301.211,1.269.367,2.543.463,3.786.082,1.048.958,1.845,1.992,1.845.052,0,.104-.002.157-.006,1.101-.086,1.925-1.048,1.839-2.149-.105-1.358-.276-2.748-.505-4.132-.181-1.089-1.211-1.824-2.301-1.645Z" style="fill: #d9dde1;"/>
  <path d="M125.512,238.889c-1.326.187-2.66.389-4,.607-1.09.178-1.83,1.207-1.651,2.296.16.981,1.008,1.678,1.971,1.678.107,0,.216-.009.325-.027,1.31-.214,2.615-.411,3.913-.594,1.094-.154,1.855-1.165,1.702-2.259-.154-1.093-1.163-1.855-2.259-1.702Z" style="fill: #d9dde1;"/>
  <path d="M303.682,211.461c-1.209.51-2.431,1.015-3.665,1.514-1.024.413-1.52,1.579-1.106,2.603.314.779,1.063,1.252,1.855,1.252.249,0,.502-.047.747-.146,1.256-.506,2.497-1.019,3.726-1.538,1.018-.43,1.494-1.603,1.064-2.62-.431-1.018-1.604-1.495-2.621-1.064Z" style="fill: #d9dde1;"/>
  <path d="M291.688,216.167c-1.235.449-2.481.892-3.739,1.329-1.044.362-1.597,1.502-1.234,2.545.287.827,1.062,1.345,1.89,1.345.218,0,.438-.036.656-.111,1.276-.443,2.542-.893,3.795-1.349,1.038-.377,1.573-1.525,1.196-2.563-.379-1.039-1.528-1.573-2.563-1.196Z" style="fill: #d9dde1;"/>
  <path d="M279.47,220.289c-1.255.391-2.521.777-3.799,1.157-1.059.314-1.661,1.428-1.347,2.487.258.869,1.054,1.431,1.916,1.431.188,0,.381-.027.571-.083,1.294-.385,2.577-.775,3.85-1.172,1.054-.329,1.643-1.45,1.313-2.504-.329-1.055-1.45-1.645-2.505-1.314Z" style="fill: #d9dde1;"/>
  <path d="M315.402,206.132c-1.179.576-2.37,1.146-3.575,1.708-1,.467-1.433,1.658-.966,2.658.34.727,1.062,1.154,1.813,1.154.284,0,.571-.061.846-.188,1.227-.573,2.439-1.153,3.639-1.739.992-.485,1.403-1.683.918-2.675-.484-.991-1.682-1.404-2.675-.918Z" style="fill: #d9dde1;"/>
  <path d="M216.32,233.418c-1.31.158-2.627.312-3.953.459-1.098.123-1.889,1.111-1.767,2.209.114,1.022.98,1.778,1.985,1.778.074,0,.148-.004.224-.012,1.339-.149,2.67-.304,3.991-.464,1.097-.132,1.878-1.129,1.745-2.226-.133-1.096-1.116-1.875-2.226-1.745Z" style="fill: #d9dde1;"/>
  <path d="M267.072,223.863c-1.271.338-2.553.67-3.846.996-1.071.271-1.72,1.357-1.45,2.429.229.907,1.043,1.511,1.938,1.511.162,0,.327-.02.491-.061,1.309-.331,2.607-.667,3.895-1.008,1.067-.284,1.703-1.379,1.419-2.447-.282-1.067-1.381-1.701-2.446-1.419Z" style="fill: #d9dde1;"/>
  <path d="M229.133,231.672c-1.304.198-2.615.391-3.937.579-1.093.156-1.854,1.168-1.698,2.262.143.998.998,1.719,1.978,1.719.095,0,.189-.007.285-.021,1.333-.19,2.658-.385,3.974-.585,1.092-.166,1.843-1.186,1.677-2.278-.167-1.092-1.197-1.845-2.278-1.676Z" style="fill: #d9dde1;"/>
  <path d="M254.53,226.928c-1.284.288-2.578.57-3.885.847-1.08.229-1.771,1.291-1.542,2.371.2.941,1.03,1.586,1.955,1.586.138,0,.276-.014.417-.044,1.32-.28,2.63-.565,3.93-.856,1.078-.242,1.756-1.311,1.514-2.389-.241-1.078-1.307-1.753-2.389-1.514Z" style="fill: #d9dde1;"/>
  <path d="M241.877,229.519c-1.295.242-2.6.478-3.913.708-1.088.191-1.815,1.227-1.625,2.315.17.971,1.014,1.655,1.968,1.655.114,0,.23-.01.347-.03,1.329-.233,2.647-.472,3.956-.715,1.086-.203,1.803-1.247,1.6-2.333-.202-1.085-1.25-1.805-2.332-1.6Z" style="fill: #d9dde1;"/>
</svg>