<?xml version="1.0" encoding="UTF-8"?>
<svg id="Layer_1" data-name="Layer 1" xmlns="http://www.w3.org/2000/svg" width="352" height="286" viewBox="0 0 352 286">
  <path d="M296.02,282.83c-.76,0-1.52-.07-2.27-.2l-177.27-31.26c-7.06-1.24-11.79-8-10.55-15.06L145.19,13.74c1.1-6.23,6.48-10.74,12.79-10.74.76,0,1.52.07,2.27.2l177.27,31.26c7.06,1.24,11.79,8,10.55,15.06l-39.24,222.57c-1.1,6.23-6.48,10.74-12.79,10.74h-.02Z" style="fill: #fff;"/>
  <path d="M294.27,279.67l-177.27-31.26c-5.44-.96-9.07-6.15-8.11-11.58l9.38-53.18,196.96,34.73-9.38,53.18c-.96,5.44-6.15,9.07-11.58,8.11Z" style="fill: #aaa0ff;"/>
  <path d="M143.976,37.901l-13.197,74.846,196.962,34.729,13.197-74.845-196.962-34.73Z" style="fill: #aaa0ff;"/>
  <path d="M341.98,69.72c-.17,0-.35-.02-.52-.05l-196.96-34.73c-.78-.14-1.48-.58-1.94-1.23-.46-.65-.64-1.46-.5-2.24l3.13-17.73c1.1-6.23,6.48-10.74,12.79-10.74.76,0,1.52.07,2.27.2l177.27,31.26c7.06,1.25,11.79,8,10.55,15.06l-3.13,17.73c-.14.78-.58,1.48-1.23,1.94-.51.36-1.11.54-1.72.54l-.01-.01Z" style="fill: #667683;"/>
  <path d="M347.42,36.87c-.33-.39-.68-.76-1.05-1.12-.04-.04-.1-.08-.14-.12-.48-.46-1.01-.88-1.55-1.28-.51-.37-1.04-.71-1.59-1.02-1.53-.86-3.22-1.5-5.05-1.82l-88.63-15.63L160.77.24c-.06-.01-.12-.01-.18-.02-.86-.14-1.74-.22-2.61-.22-7.13,0-13.28,4.69-15.29,11.38-.18.6-.34,1.21-.45,1.84l-39.24,222.57c-.74,4.21.2,8.45,2.65,11.96,2.45,3.5,6.12,5.84,10.33,6.58l177.27,31.26c.92.16,1.86.24,2.79.24,7.77,0,14.39-5.56,15.75-13.22l39.24-222.57c.86-4.89-.6-9.66-3.6-13.17h-.01ZM345.1,48.99l-3.13,17.73L145.02,31.99l3.13-17.73c.59-3.34,2.77-5.99,5.62-7.33,1.3-.61,2.73-.94,4.22-.94.58,0,1.16.05,1.75.15l88.63,15.63,88.63,15.63c1.02.18,1.98.51,2.85.96.58.3,1.13.66,1.63,1.06.5.4.97.85,1.38,1.34,1.04,1.22,1.78,2.68,2.15,4.26.29,1.27.34,2.61.1,3.97h-.01ZM305.86,271.56c-.86,4.85-5.08,8.27-9.84,8.27-.58,0-1.16-.05-1.75-.15l-177.27-31.26c-5.44-.96-9.07-6.15-8.11-11.58l35.08-198.93,196.96,34.73-35.08,198.93.01-.01Z" style="fill: #515979;"/>
  <path d="M328.66,57.16c-.41,0-.82-.04-1.22-.11l-92.57-16.32c-3.8-.67-6.35-4.31-5.68-8.11.59-3.35,3.49-5.79,6.89-5.79.41,0,.82.04,1.22.11l92.57,16.32c3.8.67,6.35,4.31,5.68,8.11-.59,3.35-3.49,5.79-6.89,5.79Z" style="fill: #fff;"/>
  <path d="M236.07,29.83c.23,0,.46.02.7.06l92.57,16.32c2.18.38,3.63,2.46,3.24,4.63-.34,1.94-2.03,3.31-3.93,3.31-.23,0-.46-.02-.7-.06l-92.57-16.32c-2.18-.38-3.63-2.46-3.24-4.63.34-1.94,2.03-3.31,3.93-3.31ZM236.08,23.83c-4.86,0-9,3.48-9.84,8.26-.96,5.43,2.68,10.63,8.11,11.58l92.57,16.32c.57.1,1.16.15,1.74.15,4.86,0,9-3.48,9.84-8.26.46-2.63-.12-5.28-1.66-7.47-1.53-2.19-3.82-3.65-6.46-4.11l-92.57-16.32c-.57-.1-1.16-.15-1.74-.15h.01Z" style="fill: #515979;"/>
  <path d="M163.21,27.98c-.41,0-.82-.04-1.22-.11-1.84-.33-3.45-1.35-4.52-2.88-1.07-1.53-1.48-3.39-1.16-5.23.59-3.35,3.49-5.78,6.89-5.78.41,0,.82.04,1.22.11,1.84.32,3.45,1.35,4.52,2.88,1.07,1.53,1.48,3.39,1.16,5.23-.59,3.35-3.49,5.79-6.89,5.79v-.01Z" style="fill: #ef7d7d;"/>
  <path d="M163.2,16.98c.23,0,.46.02.7.06,2.18.38,3.63,2.46,3.24,4.63-.34,1.94-2.03,3.31-3.93,3.31-.23,0-.46-.02-.7-.06-2.18-.38-3.63-2.46-3.24-4.63.34-1.94,2.03-3.31,3.93-3.31ZM163.2,10.98c-4.86,0-9,3.48-9.84,8.26-.96,5.43,2.68,10.63,8.11,11.58.57.1,1.16.15,1.74.15,4.86,0,9-3.48,9.84-8.26.96-5.43-2.68-10.63-8.11-11.58-.57-.1-1.16-.15-1.74-.15Z" style="fill: #515979;"/>
  <path d="M186.84,32.15c-.41,0-.82-.04-1.22-.11-3.8-.67-6.35-4.31-5.68-8.11.59-3.35,3.49-5.79,6.89-5.79.41,0,.82.04,1.22.11,1.84.33,3.45,1.35,4.52,2.88,1.07,1.53,1.48,3.39,1.16,5.23-.59,3.35-3.49,5.79-6.89,5.79Z" style="fill: #ffe8a0;"/>
  <path d="M186.83,21.15c.23,0,.46.02.7.06,2.18.38,3.63,2.46,3.24,4.63-.34,1.94-2.03,3.31-3.93,3.31-.23,0-.46-.02-.7-.06-2.18-.38-3.63-2.46-3.24-4.63.34-1.94,2.03-3.31,3.93-3.31ZM186.83,15.15c-4.86,0-9,3.48-9.84,8.26-.46,2.63.12,5.28,1.66,7.47,1.53,2.19,3.82,3.65,6.46,4.11.57.1,1.16.15,1.74.15,4.86,0,9-3.48,9.84-8.26.46-2.63-.12-5.28-1.66-7.47-1.53-2.19-3.82-3.65-6.46-4.11-.57-.1-1.16-.15-1.74-.15Z" style="fill: #515979;"/>
  <path d="M210.48,36.32c-.41,0-.82-.04-1.22-.11-3.8-.67-6.35-4.31-5.68-8.11.59-3.35,3.49-5.79,6.89-5.79.41,0,.82.04,1.22.11,1.84.33,3.45,1.35,4.52,2.88,1.07,1.53,1.48,3.39,1.16,5.23-.59,3.35-3.49,5.79-6.89,5.79Z" style="fill: #7ddf96;"/>
  <path d="M210.47,25.32c.23,0,.46.02.7.06,2.18.38,3.63,2.46,3.24,4.63-.34,1.94-2.03,3.31-3.93,3.31-.23,0-.46-.02-.7-.06-2.18-.38-3.63-2.46-3.24-4.63.34-1.94,2.03-3.31,3.93-3.31ZM210.47,19.32c-4.86,0-9,3.48-9.84,8.26-.96,5.43,2.68,10.63,8.11,11.58.57.1,1.16.15,1.74.15,4.86,0,9-3.48,9.84-8.26.96-5.43-2.68-10.63-8.11-11.58-.57-.1-1.16-.15-1.74-.15Z" style="fill: #515979;"/>
  <path d="M201.65,87.63c1.381,0,2.5-1.119,2.5-2.5s-1.119-2.5-2.5-2.5-2.5,1.119-2.5,2.5,1.119,2.5,2.5,2.5Z" style="fill: #8782eb;"/>
  <path d="M205.15,99.42c1.381,0,2.5-1.119,2.5-2.5s-1.119-2.5-2.5-2.5-2.5,1.119-2.5,2.5,1.119,2.5,2.5,2.5Z" style="fill: #8782eb;"/>
  <path d="M194.32,97.51c1.381,0,2.5-1.119,2.5-2.5s-1.119-2.5-2.5-2.5-2.5,1.119-2.5,2.5,1.119,2.5,2.5,2.5Z" style="fill: #8782eb;"/>
  <path d="M270.58,99.79c1.381,0,2.5-1.119,2.5-2.5s-1.119-2.5-2.5-2.5-2.5,1.119-2.5,2.5,1.119,2.5,2.5,2.5Z" style="fill: #8782eb;"/>
  <path d="M274.09,111.58c1.381,0,2.5-1.119,2.5-2.5s-1.119-2.5-2.5-2.5-2.5,1.119-2.5,2.5,1.119,2.5,2.5,2.5Z" style="fill: #8782eb;"/>
  <path d="M263.26,109.67c1.381,0,2.5-1.119,2.5-2.5s-1.119-2.5-2.5-2.5-2.5,1.119-2.5,2.5,1.119,2.5,2.5,2.5Z" style="fill: #8782eb;"/>
  <path d="M327.919,146.487l-196.962-34.73-12.85,72.876,196.962,34.73,12.85-72.876Z" style="fill: #fff3da;"/>
  <path d="M327.919,146.487l-196.962-34.73-12.85,72.876,196.962,34.73,12.85-72.876Z" style="fill: #e5e2ff;"/>
  <path d="M142.433,133.074l-6.252,35.453c-.383,2.176,1.07,4.25,3.245,4.634l41.362,7.293c2.176.384,4.25-1.069,4.634-3.245l6.251-35.453c.384-2.175-1.069-4.25-3.244-4.633l-41.362-7.294c-2.176-.383-4.251,1.069-4.634,3.245Z" style="fill: #fff;"/>
  <path d="M152.85,149.04c3.314,0,6-2.686,6-6s-2.686-6-6-6-6,2.686-6,6,2.686,6,6,6Z" style="fill: #e5e2ff;"/>
  <path d="M147.172,152.195c-1.087-.192-2.125.535-2.317,1.622-.191,1.088.535,2.126,1.623,2.317l33.483,5.904c1.088.192,2.125-.534,2.317-1.622s-.534-2.125-1.622-2.317l-33.484-5.904Z" style="fill: #aaa0ff;"/>
  <path d="M145.787,160.073c-1.088-.192-2.125.535-2.317,1.622-.192,1.088.534,2.126,1.622,2.317l19.696,3.473c1.088.192,2.126-.534,2.317-1.622.192-1.088-.534-2.125-1.622-2.317l-19.696-3.473Z" style="fill: #aaa0ff;"/>
  <path d="M260.596,153.917l-6.251,35.453c-.384,2.175,1.069,4.25,3.245,4.633l41.362,7.294c2.175.383,4.25-1.069,4.633-3.245l6.252-35.453c.383-2.176-1.069-4.25-3.245-4.634l-41.362-7.293c-2.175-.384-4.25,1.069-4.634,3.245Z" style="fill: #fff;"/>
  <path d="M271.03,169.88c3.314,0,6-2.686,6-6s-2.686-6-6-6-6,2.686-6,6,2.686,6,6,6Z" style="fill: #e5e2ff;"/>
  <path d="M265.347,173.029c-1.087-.191-2.125.535-2.316,1.623-.192,1.088.534,2.125,1.622,2.317l33.483,5.904c1.088.191,2.125-.535,2.317-1.623.192-1.087-.534-2.125-1.622-2.317l-33.484-5.904Z" style="fill: #aaa0ff;"/>
  <path d="M263.968,180.901c-1.088-.192-2.125.534-2.317,1.622s.534,2.125,1.622,2.317l11.818,2.084c1.088.192,2.125-.535,2.317-1.623.191-1.087-.535-2.125-1.623-2.316l-11.817-2.084Z" style="fill: #aaa0ff;"/>
  <path d="M201.506,143.49l-6.252,35.453c-.383,2.175,1.069,4.25,3.245,4.633l41.362,7.294c2.175.383,4.25-1.069,4.634-3.245l6.251-35.453c.384-2.176-1.069-4.25-3.245-4.634l-41.362-7.293c-2.175-.384-4.25,1.069-4.633,3.245Z" style="fill: #fff;"/>
  <path d="M211.94,159.46c3.314,0,6-2.686,6-6s-2.686-6-6-6-6,2.686-6,6,2.686,6,6,6Z" style="fill: #e5e2ff;"/>
  <path d="M206.265,162.612c-1.088-.191-2.125.535-2.317,1.623s.535,2.125,1.622,2.317l33.484,5.904c1.088.191,2.125-.535,2.317-1.623.192-1.087-.535-2.125-1.623-2.317l-33.483-5.904Z" style="fill: #aaa0ff;"/>
  <path d="M204.879,170.494c-1.087-.191-2.125.535-2.317,1.623-.191,1.088.535,2.125,1.623,2.317l25.605,4.515c1.088.191,2.125-.535,2.317-1.623.191-1.088-.535-2.125-1.623-2.317l-25.605-4.515Z" style="fill: #aaa0ff;"/>
  <path d="M151.76,248.08c13.255,0,24-10.745,24-24s-10.745-24-24-24-24,10.745-24,24,10.745,24,24,24Z" style="fill: #e5e2ff;"/>
  <path d="M210.85,258.5c13.255,0,24-10.745,24-24s-10.745-24-24-24-24,10.745-24,24,10.745,24,24,24Z" style="fill: #e5e2ff;"/>
  <path d="M269.94,268.92c13.255,0,24-10.745,24-24s-10.745-24-24-24-24,10.745-24,24,10.745,24,24,24Z" style="fill: #e5e2ff;"/>
  <path d="M253.8,77.3c-4.35-.77-8.5,2.14-9.27,6.49-.47,2.69.46,5.3,2.27,7.09-.33.07-.66.14-.97.24-1.05.35-1.62,1.48-1.27,2.52.34,1.05,1.48,1.62,2.52,1.27,2.04-.67,5.31-.1,7,1.23.37.29.8.43,1.24.43.59,0,1.18-.26,1.57-.76.68-.87.53-2.12-.33-2.81-.25-.2-.54-.38-.83-.55,2.31-1.06,4.08-3.19,4.56-5.89.77-4.35-2.14-8.5-6.49-9.27v.01Z" style="fill: #515979;"/>
  <path d="M249.29,69c4.18-2.51,10.11-2.05,13.51,1.6,1.55,1.64,3.9,5.64.78,6.69-.79.2-1.5-.12-2.05-.62-.94-.72-1.64-1.42-2.44-1.88-2.63-1.84-6.02-1.74-9.1-2.12-1.8-.26-2.26-2.78-.7-3.67Z" style="fill: #515979;"/>
  <path d="M224.26,72.09c-4.35-.77-8.5,2.14-9.27,6.49-.47,2.69.46,5.3,2.27,7.09-.33.07-.66.14-.97.24-1.05.35-1.62,1.48-1.27,2.52.34,1.05,1.48,1.62,2.52,1.27,2.04-.67,5.31-.09,7,1.23.37.29.8.43,1.24.43.59,0,1.18-.26,1.57-.76.68-.87.53-2.13-.33-2.81-.25-.2-.54-.38-.83-.55,2.31-1.06,4.08-3.19,4.56-5.89.77-4.35-2.14-8.5-6.49-9.27v.01Z" style="fill: #515979;"/>
  <path d="M228.81,68.93c-2.79-.82-5.78-1.74-8.66-1.01-.99.17-2.15.71-3.33,1.06-1.8.62-3.39-1.54-2.31-3.07,3.64-5.87,12.84-5.28,16.83-.08,1.18,1.37-.18,3.59-1.91,3.21l-.62-.12v.01Z" style="fill: #515979;"/>
  <path d="M239.25,106.28c-7.79,0-15.79-3.08-21.88-8.87-1-.95-1.04-2.53-.09-3.53s2.53-1.04,3.54-.09c7.85,7.47,19.9,9.61,28.65,5.09,1.23-.63,2.74-.15,3.37,1.08.63,1.23.15,2.73-1.08,3.37-3.86,1.99-8.16,2.95-12.51,2.95Z" style="fill: #515979;"/>
  <path d="M228.97,107.63c1.9.94,4.01,1.49,6.13,1.55,1.21.2,3.22-.76,3.57.98.18.9-.71,1.38-1.32,1.8-3.25,2.05-7.82.65-10.02-2.31-.93-1.08.39-2.7,1.63-2.03l.01.01Z" style="fill: #515979;"/>
  <path d="M63,179.91c-3.31,0-6-2.69-6-6V59.91c0-3.31,2.69-6,6-6h114c3.31,0,6,2.69,6,6v97c0,.8-.32,1.56-.88,2.12l-20,20c-.56.56-1.33.88-2.12.88H63Z" style="fill: #fff;"/>
  <path d="M160,179.91c-.39,0-.78-.07-1.15-.23-1.12-.46-1.85-1.56-1.85-2.77v-17c0-3.31,2.69-6,6-6h17c1.21,0,2.31.73,2.77,1.85.46,1.12.21,2.41-.65,3.27l-20,20c-.57.57-1.34.88-2.12.88Z" style="fill: #d8ebfb;"/>
  <path d="M186,59.91c0-4.96-4.04-9-9-9H63c-4.96,0-9,4.04-9,9v114c0,4.96,4.04,9,9,9h96.99c.2,0,.39-.01.59-.03.07,0,.14-.02.22-.03.12-.02.24-.03.36-.05.09-.02.17-.04.25-.06.1-.03.21-.05.31-.08.08-.02.16-.06.23-.08.11-.04.21-.07.32-.11.07-.03.14-.07.21-.1.11-.05.21-.09.32-.15.07-.04.14-.08.21-.12.1-.06.2-.11.3-.18l.24-.18c.08-.06.16-.11.23-.17.15-.13.3-.26.44-.4l20-20c.19-.19.36-.39.52-.61.04-.05.08-.11.12-.16.15-.21.29-.43.42-.66,0-.01.01-.03.02-.04.11-.22.21-.45.3-.68.02-.06.05-.12.07-.19.08-.24.15-.49.21-.75v-.01c.05-.25.08-.5.09-.76,0-.07,0-.14.01-.2V59.91h.02ZM160,176.91v-17c0-1.66,1.34-3,3-3h17l-20,20ZM63,176.91c-1.66,0-3-1.34-3-3V59.91c0-1.66,1.34-3,3-3h114c1.66,0,3,1.34,3,3v91h-17c-4.96,0-9,4.04-9,9v17H63Z" style="fill: #515979;"/>
  <path d="M144,176.85v-59.93c0-3.31-2.69-6-6-6h-66v65.93h72Z" style="fill: #d8ebfb;"/>
  <path d="M157.5,116.91h-75c-1.381,0-2.5,1.119-2.5,2.5s1.119,2.5,2.5,2.5h75c1.381,0,2.5-1.119,2.5-2.5s-1.119-2.5-2.5-2.5Z" style="fill: #2196f3;"/>
  <path d="M144,116.91h-18v5h18v-5Z" style="fill: #1e78d2;"/>
  <path d="M152.5,136.91h-75c-1.381,0-2.5,1.119-2.5,2.5s1.119,2.5,2.5,2.5h75c1.381,0,2.5-1.119,2.5-2.5s-1.119-2.5-2.5-2.5Z" style="fill: #515979;"/>
  <path d="M135.5,146.91h-58c-1.381,0-2.5,1.119-2.5,2.5s1.119,2.5,2.5,2.5h58c1.381,0,2.5-1.119,2.5-2.5s-1.119-2.5-2.5-2.5Z" style="fill: #515979;"/>
  <path d="M112.5,156.91h-35c-1.381,0-2.5,1.119-2.5,2.5s1.119,2.5,2.5,2.5h35c1.381,0,2.5-1.119,2.5-2.5s-1.119-2.5-2.5-2.5Z" style="fill: #515979;"/>
  <path d="M152.5,126.91h-75c-1.381,0-2.5,1.119-2.5,2.5s1.119,2.5,2.5,2.5h75c1.381,0,2.5-1.119,2.5-2.5s-1.119-2.5-2.5-2.5Z" style="fill: #50c864;"/>
  <path d="M144,126.91h-18v5h18v-5Z" style="fill: #329b87;"/>
  <path d="M146,97.91c1.105,0,2-.895,2-2s-.895-2-2-2-2,.895-2,2,.895,2,2,2Z" style="fill: #fde1d9;"/>
  <path d="M154,97.91c1.105,0,2-.895,2-2s-.895-2-2-2-2,.895-2,2,.895,2,2,2Z" style="fill: #fde1d9;"/>
  <path d="M150,89.91c1.105,0,2-.895,2-2s-.895-2-2-2-2,.895-2,2,.895,2,2,2Z" style="fill: #fde1d9;"/>
  <path d="M135.51,87.78c-.24-.08-.5-.15-.77-.22,1.67-1.07,2.78-2.93,2.78-5.06,0-3.31-2.69-6-6-6s-6,2.69-6,6c0,2.13,1.11,3.99,2.78,5.06-.27.07-.53.14-.77.22-.78.27-1.2,1.12-.93,1.91.21.62.8,1.01,1.42,1.01.16,0,.33-.03.49-.08,1.6-.55,4.42-.55,6.02,0,.78.27,1.64-.15,1.91-.93s-.15-1.64-.93-1.91Z" style="fill: #515979;"/>
  <path d="M127.04,70.55c3.57-2.19,8.99-1.73,11.44,1.9.84,1.2-.31,2.92-1.73,2.64-1.57-.27-2.86-.63-4.4-.83-1.46-.21-3.36-.28-4.78-.61-1.46-.27-1.8-2.36-.54-3.1h.01Z" style="fill: #515979;"/>
  <path d="M112.46,87.78c-.24-.08-.5-.15-.77-.22,1.67-1.07,2.78-2.93,2.78-5.06,0-3.31-2.69-6-6-6s-6,2.69-6,6c0,2.13,1.11,3.99,2.78,5.06-.27.07-.53.14-.77.22-.78.27-1.2,1.12-.93,1.91.27.78,1.12,1.2,1.91.93,1.6-.55,4.42-.55,6.02,0,.16.06.33.08.49.08.62,0,1.2-.39,1.42-1.01.27-.78-.15-1.64-.93-1.91Z" style="fill: #515979;"/>
  <path d="M112,73.74c-1.25.24-3.08.34-4.36.52-1.54.19-2.82.55-4.39.82-.94.16-1.83-.47-1.98-1.41-.07-.44.03-.88.25-1.22,1.78-2.76,5.51-3.65,8.57-3.02,1.01.21,1.9.51,2.88,1.12,1.48,1.01.75,3.07-.96,3.19h-.01Z" style="fill: #515979;"/>
  <path d="M120.31,100.89c-4.55,0-9.21-1.07-13.25-3.21-.98-.52-1.35-1.73-.83-2.7.52-.98,1.73-1.35,2.7-.83,6.83,3.63,16.09,3.64,22.02.03.94-.57,2.17-.28,2.75.67.57.94.28,2.17-.67,2.75-3.61,2.2-8.11,3.3-12.73,3.3l.01-.01Z" style="fill: #515979;"/>
  <path d="M9,233.91c-3.31,0-6-2.69-6-6v-114c0-3.31,2.69-6,6-6h114c3.31,0,6,2.69,6,6v97c0,.8-.32,1.56-.88,2.12l-20,20c-.56.56-1.33.88-2.12.88H9Z" style="fill: #fff;"/>
  <path d="M92.5,170.91H23.5c-1.381,0-2.5,1.119-2.5,2.5s1.119,2.5,2.5,2.5h69c1.381,0,2.5-1.119,2.5-2.5s-1.119-2.5-2.5-2.5Z" style="fill: #2196f3;"/>
  <path d="M78.5,190.91H23.5c-1.381,0-2.5,1.119-2.5,2.5s1.119,2.5,2.5,2.5h55c1.381,0,2.5-1.119,2.5-2.5s-1.119-2.5-2.5-2.5Z" style="fill: #515979;"/>
  <path d="M88.5,200.91H23.5c-1.381,0-2.5,1.119-2.5,2.5s1.119,2.5,2.5,2.5h65c1.381,0,2.5-1.119,2.5-2.5s-1.119-2.5-2.5-2.5Z" style="fill: #515979;"/>
  <path d="M68.5,210.91H23.5c-1.381,0-2.5,1.119-2.5,2.5s1.119,2.5,2.5,2.5h45c1.381,0,2.5-1.119,2.5-2.5s-1.119-2.5-2.5-2.5Z" style="fill: #515979;"/>
  <path d="M92.5,180.91H23.5c-1.381,0-2.5,1.119-2.5,2.5s1.119,2.5,2.5,2.5h69c1.381,0,2.5-1.119,2.5-2.5s-1.119-2.5-2.5-2.5Z" style="fill: #50c864;"/>
  <path d="M106,233.91c-.39,0-.78-.07-1.15-.23-1.12-.46-1.85-1.56-1.85-2.77v-17c0-3.31,2.69-6,6-6h17c1.21,0,2.31.73,2.77,1.85.46,1.12.21,2.41-.65,3.27l-20,20c-.57.57-1.34.88-2.12.88Z" style="fill: #d8ebfb;"/>
  <path d="M132,113.91c0-4.96-4.04-9-9-9H9c-4.96,0-9,4.04-9,9v114c0,4.96,4.04,9,9,9h96.99c.2,0,.39-.01.59-.03.07,0,.15-.02.22-.03.12-.02.24-.03.36-.05.09-.02.17-.04.26-.06.1-.03.21-.05.31-.08.08-.02.16-.06.23-.08.11-.04.21-.07.32-.11.07-.03.14-.07.21-.1.11-.05.21-.09.32-.15.07-.04.14-.08.21-.12.1-.06.2-.11.3-.18.08-.06.16-.12.24-.18.08-.06.16-.11.23-.17.15-.13.3-.26.44-.4l20-20c.19-.19.36-.39.52-.61.04-.05.08-.11.12-.16.15-.21.29-.43.41-.66,0-.01.01-.03.02-.04.11-.22.21-.45.3-.68.02-.06.05-.12.07-.19.08-.24.15-.49.21-.75v-.01c.05-.25.08-.5.09-.76,0-.07,0-.14.01-.2v-97.2h.02ZM106,230.91v-17c0-1.66,1.34-3,3-3h17l-20,20ZM9,230.91c-1.66,0-3-1.34-3-3v-114c0-1.66,1.34-3,3-3h114c1.66,0,3,1.34,3,3v91h-17c-4.96,0-9,4.04-9,9v17H9Z" style="fill: #515979;"/>
  <path d="M81.53,140.5c-1.1,0-2-.9-2-2,0-1.65-1.35-3-3-3s-3,1.35-3,3c0,1.1-.9,2-2,2s-2-.9-2-2c0-3.86,3.14-7,7-7s7,3.14,7,7c0,1.1-.9,2-2,2Z" style="fill: #515979;"/>
  <path d="M74.09,122.56c3.57-2.19,8.99-1.73,11.44,1.9.84,1.2-.31,2.92-1.73,2.64-1.57-.27-2.86-.63-4.4-.83-1.46-.21-3.36-.28-4.78-.61-1.46-.27-1.8-2.36-.54-3.1h.01Z" style="fill: #515979;"/>
  <path d="M60.47,140.5c-1.1,0-2-.9-2-2,0-1.65-1.35-3-3-3s-3,1.35-3,3c0,1.1-.9,2-2,2s-2-.9-2-2c0-3.86,3.14-7,7-7s7,3.14,7,7c0,1.1-.9,2-2,2Z" style="fill: #515979;"/>
  <path d="M56.94,125.75c-1.25.24-3.08.34-4.36.52-1.54.19-2.82.55-4.39.82-.94.16-1.83-.47-1.98-1.41-.07-.44.03-.88.25-1.22,1.79-2.76,5.51-3.65,8.57-3.02,1.01.21,1.9.51,2.88,1.12,1.48,1.01.75,3.07-.96,3.19h-.01Z" style="fill: #515979;"/>
  <path d="M78,143.91h-24c-2.21,0-4,1.79-4,4,0,8.82,7.18,16,16,16s15.91-7.09,16-15.84v-.16c0-2.21-1.79-4-4-4Z" style="fill: #515979;"/>
  <path d="M66,159.91c3.55,0,6.73-1.55,8.93-4-2.2-2.45-5.38-4-8.93-4s-6.73,1.55-8.93,4c2.2,2.45,5.38,4,8.93,4Z" style="fill: #ef7d7d;"/>
  <path d="M92,151.91c1.105,0,2-.896,2-2s-.895-2-2-2-2,.895-2,2,.895,2,2,2Z" style="fill: #fde1d9;"/>
  <path d="M100,151.91c1.105,0,2-.896,2-2s-.895-2-2-2-2,.895-2,2,.895,2,2,2Z" style="fill: #fde1d9;"/>
  <path d="M96,143.91c1.105,0,2-.896,2-2s-.895-2-2-2-2,.895-2,2,.895,2,2,2Z" style="fill: #fde1d9;"/>
  <path d="M32,151.91c1.105,0,2-.896,2-2s-.895-2-2-2-2,.895-2,2,.895,2,2,2Z" style="fill: #fde1d9;"/>
  <path d="M40,151.91c1.105,0,2-.896,2-2s-.895-2-2-2-2,.895-2,2,.895,2,2,2Z" style="fill: #fde1d9;"/>
  <path d="M36,143.91c1.105,0,2-.896,2-2s-.895-2-2-2-2,.895-2,2,.895,2,2,2Z" style="fill: #fde1d9;"/>
  <path d="M254.38,87.52c1.105,0,2-.895,2-2s-.895-2-2-2-2,.895-2,2,.895,2,2,2Z" style="fill: #fff;"/>
  <path d="M224.84,82.31c1.105,0,2-.896,2-2s-.895-2-2-2-2,.895-2,2,.895,2,2,2Z" style="fill: #fff;"/>
  <path d="M133.03,84c.828,0,1.5-.672,1.5-1.5s-.672-1.5-1.5-1.5-1.5.672-1.5,1.5.672,1.5,1.5,1.5Z" style="fill: #fff;"/>
  <path d="M109.97,84c.828,0,1.5-.672,1.5-1.5s-.672-1.5-1.5-1.5-1.5.672-1.5,1.5.672,1.5,1.5,1.5Z" style="fill: #fff;"/>
</svg>