<svg width="300" height="125" viewBox="0 0 300 125" fill="none" xmlns="http://www.w3.org/2000/svg">
<path d="M111.222 91.327C110.667 91.0833 110.203 90.6709 109.896 90.1484C109.589 89.6259 109.455 89.02 109.512 88.4167L117.3 33.0024C117.324 32.7457 117.412 32.4991 117.554 32.284C117.696 32.069 117.889 31.8922 118.116 31.7692C118.342 31.6462 118.595 31.5807 118.853 31.5785C119.111 31.5763 119.365 31.6375 119.594 31.7567C157.245 46.8241 199.258 30.7963 236.906 45.8845C237.459 46.1299 237.922 46.5427 238.229 47.0648C238.535 47.5868 238.671 48.1919 238.616 48.7949L230.828 104.209C230.803 104.466 230.716 104.712 230.574 104.928C230.432 105.143 230.239 105.319 230.012 105.442C229.786 105.565 229.532 105.631 229.274 105.633C229.017 105.635 228.762 105.574 228.534 105.455C190.886 90.3666 148.873 106.395 111.222 91.327Z" fill="#7DDF96"/>
<path d="M236.614 47.9625L228.826 103.377C191.178 88.2886 149.164 104.316 111.514 89.249L119.302 33.8347C156.952 48.9021 198.966 32.8743 236.614 47.9625ZM237.198 43.8064C199.55 28.7182 157.537 44.7461 119.886 29.6786C117.672 28.7953 115.633 29.7872 115.306 32.1077L107.519 87.522C107.404 88.7357 107.671 89.9549 108.282 91.0096C108.894 92.0642 109.82 92.9017 110.93 93.4051C148.576 108.5 190.59 92.4724 228.238 107.561C230.452 108.444 232.491 107.452 232.817 105.132L240.605 49.7172C240.72 48.5035 240.453 47.2843 239.841 46.2296C239.23 45.175 238.304 44.3375 237.194 43.8341L237.198 43.8064Z" fill="#515979"/>
<path d="M226.039 87.4665L229.847 60.3758C224.872 58.7302 221.351 53.7782 222.067 48.687C192.835 42.269 161.695 49.385 132.455 42.9799C131.74 48.0641 127.033 51.4006 122.089 49.7381L118.289 76.7802C123.256 78.4249 126.777 83.3769 126.062 88.4681C155.3 94.8871 186.44 87.7711 215.674 94.1752C216.38 89.1533 221.065 85.8209 226.039 87.4665Z" fill="#00C853"/>
<path d="M196.025 68.7255C194.025 82.9601 182.603 94.2177 170.428 94.4491C158.253 94.6805 150.092 82.7898 152.105 68.4652C154.118 54.1406 165.528 42.9661 177.694 42.7476C189.86 42.529 198.04 54.394 196.025 68.7255Z" fill="#7DDF96"/>
<path d="M143.399 67.8914C142.779 72.3038 138.937 75.6136 134.864 74.9917C130.791 74.3698 128.033 70.0195 128.653 65.6072C129.273 61.1948 133.04 58.3689 137.114 58.9839C141.188 59.5988 144.024 63.4444 143.399 67.8914Z" fill="#7DDF96"/>
<path d="M219.477 71.5836C218.856 76.0029 215.091 78.8218 211.017 78.2069C206.943 77.5919 204.11 73.7255 204.732 69.2993C205.354 64.8731 209.193 61.5772 213.267 62.1991C217.34 62.8209 220.099 67.1643 219.477 71.5836Z" fill="#7DDF96"/>
<path d="M31.1458 118.105C30.5461 118.192 29.9341 118.088 29.3969 117.808C28.8597 117.528 28.4245 117.085 28.1533 116.543L5.39275 65.422C5.27758 65.1913 5.22084 64.9359 5.22751 64.6782C5.23418 64.4204 5.30406 64.1683 5.431 63.9439C5.55795 63.7195 5.73807 63.5298 5.95554 63.3913C6.173 63.2528 6.42116 63.1699 6.67818 63.1498C46.5922 55.976 73.7254 20.1134 113.651 12.9652C114.25 12.8789 114.862 12.9833 115.399 13.2636C115.936 13.5439 116.371 13.9859 116.643 14.5271L139.404 65.6481C139.519 65.8788 139.576 66.1342 139.569 66.3919C139.562 66.6497 139.492 66.9018 139.366 67.1262C139.239 67.3506 139.058 67.5403 138.841 67.6788C138.624 67.8173 138.375 67.9002 138.118 67.9203C98.193 75.0685 71.0597 110.931 31.1458 118.105Z" fill="#7DDF96"/>
<path d="M114.504 14.8822L137.265 66.0033C97.3424 73.1579 70.2064 109.014 30.2924 116.188L7.53184 65.0669C47.4458 57.8931 74.5819 22.0369 114.504 14.8822ZM112.797 11.0482C72.8749 18.2028 45.7388 54.059 5.8248 61.2328C3.47922 61.6569 2.27523 63.5789 3.22833 65.7195L25.9889 116.841C26.5348 117.931 27.4074 118.823 28.4849 119.393C29.5624 119.964 30.791 120.183 31.9994 120.022C71.9248 112.874 99.0609 77.0175 138.983 69.8629C141.329 69.4388 142.533 67.5168 141.58 65.3761L118.819 14.2551C118.273 13.1651 117.401 12.2726 116.323 11.7023C115.246 11.132 114.017 10.9122 112.809 11.0737L112.797 11.0482Z" fill="#515979"/>
<path d="M126.471 53.987L115.344 28.9952C110.253 30.2357 104.643 27.902 102.552 23.2053C74.3613 33.2528 51.7235 55.7894 23.5322 65.8525C25.6205 70.5429 23.3967 75.8667 18.323 77.0767L29.4301 102.024C34.5145 100.786 40.1246 103.12 42.2158 107.816C70.4128 97.7662 93.0505 75.2295 121.235 65.1693C119.173 60.5364 121.38 55.2275 126.471 53.987Z" fill="#00C853"/>
<path d="M91.0862 53.9988C96.9329 67.1305 93.2123 82.7301 83.0101 89.378C72.8078 96.026 59.5854 90.2669 53.7018 77.0521C47.8182 63.8374 51.5729 48.3145 61.7745 41.6821C71.976 35.0498 85.1998 40.7776 91.0862 53.9988Z" fill="#7DDF96"/>
<path d="M46.0143 81.1793C47.8266 85.2498 46.3227 90.0924 42.539 91.7234C38.7553 93.3544 34.1111 91.1267 32.2988 87.0561C30.4865 82.9856 32.1832 78.5932 35.964 76.9558C39.7449 75.3184 44.1877 77.0769 46.0143 81.1793Z" fill="#7DDF96"/>
<path d="M112.489 43.9948C114.305 48.0717 112.605 52.4577 108.824 54.0951C105.043 55.7325 100.592 53.9549 98.7739 49.8716C96.9559 45.7883 98.4655 40.9585 102.249 39.3275C106.033 37.6965 110.674 39.9179 112.489 43.9948Z" fill="#7DDF96"/>
<path d="M76.7844 65.8333C76.5621 65.9334 76.3119 65.9529 76.0768 65.8886C75.8416 65.8242 75.6362 65.68 75.4959 65.4807C75.3555 65.2814 75.2889 65.0394 75.3075 64.7964C75.3262 64.5533 75.4288 64.3243 75.598 64.1487C76.9802 62.8344 78.7148 61.9503 80.5906 61.6043C80.7273 61.5851 80.8665 61.5931 81.0002 61.6277C81.1339 61.6623 81.2595 61.723 81.3697 61.8061C81.48 61.8893 81.5728 61.9933 81.6428 62.1124C81.7128 62.2314 81.7588 62.363 81.7779 62.4998C81.7971 62.6366 81.7891 62.7758 81.7545 62.9095C81.7199 63.0431 81.6592 63.1687 81.5761 63.279C81.4929 63.3892 81.3889 63.482 81.2698 63.552C81.1508 63.6221 81.0192 63.668 80.8824 63.6872C79.4831 63.9679 78.1875 64.6268 77.1365 65.5923C77.0379 65.697 76.9178 65.7792 76.7844 65.8333Z" fill="#515979"/>
<path d="M78.1075 63.422C80.225 62.4792 81.1773 59.9983 80.2346 57.8808C79.2918 55.7633 76.811 54.811 74.6935 55.7538C72.5759 56.6966 71.6236 59.1774 72.5664 61.2949C73.5092 63.4124 75.99 64.3647 78.1075 63.422Z" fill="#515979"/>
<path d="M77.7658 60.0749C78.2951 59.8392 78.5332 59.219 78.2975 58.6896C78.0618 58.1602 77.4416 57.9222 76.9123 58.1579C76.3829 58.3936 76.1448 59.0138 76.3805 59.5431C76.6162 60.0725 77.2364 60.3106 77.7658 60.0749Z" fill="white"/>
<path d="M64.303 72.1944C64.0806 72.2927 63.831 72.3108 63.5967 72.2454C63.3625 72.1801 63.1582 72.0354 63.0189 71.8361C62.8795 71.6368 62.8137 71.3953 62.8327 71.1529C62.8517 70.9104 62.9543 70.6821 63.123 70.507C64.505 69.1923 66.2397 68.3082 68.1156 67.9625C68.3848 67.9368 68.6535 68.0161 68.8658 68.1837C69.078 68.3514 69.2172 68.5945 69.2545 68.8624C69.2918 69.1302 69.2242 69.4022 69.0658 69.6214C68.9075 69.8406 68.6706 69.9902 68.4046 70.039C67.0062 70.3237 65.712 70.9846 64.6615 71.9505C64.5597 72.0551 64.4377 72.1381 64.303 72.1944Z" fill="#515979"/>
<path d="M65.6451 69.7745C67.7626 68.8318 68.7149 66.3509 67.7722 64.2334C66.8294 62.1159 64.3485 61.1636 62.231 62.1064C60.1135 63.0491 59.1612 65.53 60.104 67.6475C61.0468 69.765 63.5276 70.7173 65.6451 69.7745Z" fill="#515979"/>
<path d="M65.2941 66.4239C65.8235 66.1882 66.0615 65.568 65.8259 65.0386C65.5902 64.5092 64.9699 64.2712 64.4406 64.5069C63.9112 64.7426 63.6731 65.3628 63.9088 65.8921C64.1445 66.4215 64.7647 66.6596 65.2941 66.4239Z" fill="white"/>
<path d="M69.7883 52.0802C70.1638 51.4627 70.6535 50.9225 71.2312 50.4884C71.7969 50.0415 72.4301 49.6872 73.1069 49.4388C73.8141 49.167 74.5679 49.0369 75.3254 49.056C76.0984 49.0643 76.8565 49.2697 77.5281 49.6526C77.6673 49.7316 77.7894 49.8373 77.8874 49.9638C77.9853 50.0903 78.0573 50.235 78.099 50.3894C78.1407 50.5439 78.1514 50.7051 78.1304 50.8637C78.1094 51.0223 78.0571 51.1752 77.9767 51.3135C77.8264 51.5723 77.5841 51.7649 77.2981 51.853L77.0361 51.9696C76.512 52.134 76.0732 52.2146 75.6287 52.3512C75.1841 52.4879 74.7567 52.594 74.2852 52.7733L72.8935 53.2934C72.4076 53.4754 71.9124 53.632 71.4102 53.7624L71.1219 53.8371C70.9679 53.878 70.8073 53.8876 70.6496 53.8653C70.4919 53.8429 70.3403 53.7891 70.2038 53.7071C70.0673 53.625 69.9487 53.5164 69.8549 53.3876C69.7612 53.2588 69.6943 53.1125 69.6582 52.9574C69.5846 52.6593 69.6313 52.3441 69.7883 52.0802Z" fill="#515979"/>
<path d="M62.1591 58.4708C61.7723 58.7885 61.2739 59.0793 60.8479 59.3608L59.612 60.1791C59.2116 60.4493 58.8702 60.7314 58.4946 61.0058C58.1191 61.2802 57.8075 61.595 57.3702 61.9199L57.1402 62.0912C56.8828 62.2789 56.5618 62.3575 56.2467 62.31C55.9317 62.2625 55.6481 62.0926 55.4576 61.8374C55.276 61.5947 55.1933 61.2922 55.2262 60.9909C55.3164 60.2167 55.6051 59.4789 56.0643 58.8491C56.4916 58.23 57.0366 57.7011 57.6683 57.2926C58.2733 56.8971 58.9378 56.6013 59.6365 56.4163C60.3364 56.2144 61.0685 56.1484 61.7933 56.2217C62.0084 56.2624 62.2082 56.3616 62.3705 56.5086C62.5328 56.6555 62.6514 56.8443 62.7132 57.0543C62.7751 57.2644 62.7777 57.4874 62.7209 57.6988C62.6641 57.9102 62.55 58.1019 62.3912 58.2526L62.1591 58.4708Z" fill="#515979"/>
<path d="M75.326 74.7674C72.7093 75.9491 69.8672 76.5483 66.9962 76.5236C66.6249 76.5173 66.2712 76.3638 66.013 76.0968C65.7549 75.8298 65.6134 75.4712 65.6196 75.0998C65.6259 74.7284 65.7794 74.3748 66.0464 74.1166C66.3134 73.8584 66.6721 73.7169 67.0434 73.7232C72.4468 73.8212 78.2275 70.8799 80.783 66.7483C80.9797 66.4372 81.291 66.2161 81.6496 66.133C82.0081 66.0498 82.385 66.1114 82.6985 66.3042C83.012 66.497 83.2369 66.8056 83.3244 67.1631C83.4119 67.5206 83.3551 67.8982 83.1661 68.2141C81.2587 71.1261 78.5302 73.4068 75.326 74.7674Z" fill="#515979"/>
<path d="M74.6746 78.0512C75.6476 77.8653 76.5909 77.5483 77.4787 77.109C77.9185 76.8889 78.3403 76.6345 78.7403 76.3483C79.143 76.0746 79.516 75.7597 79.8533 75.4086C79.9987 75.2606 80.1894 75.1654 80.3951 75.1382C80.6008 75.1111 80.8097 75.1534 80.9886 75.2586C81.1675 75.3638 81.306 75.5258 81.3822 75.7188C81.4585 75.9118 81.468 76.1248 81.4093 76.3238L81.1995 77.0221C81.0046 77.6244 80.6627 78.1687 80.2048 78.6058C79.7691 79.0197 79.2684 79.3591 78.7225 79.6103C78.4522 79.7385 78.1732 79.8474 77.8875 79.9361C77.5959 80.005 77.2997 80.0525 77.0012 80.0781C76.3942 80.1852 75.7718 80.1679 75.1717 80.0274L74.5615 79.8779C74.3149 79.8145 74.1034 79.6561 73.973 79.4373C73.8426 79.2186 73.8039 78.9572 73.8654 78.7101C73.9237 78.5347 74.0308 78.3796 74.1742 78.2629C74.3175 78.1462 74.4911 78.0727 74.6746 78.0512Z" fill="#515979"/>
<path d="M163.897 65.7043C163.382 65.3857 162.98 64.9127 162.748 64.3526C162.517 63.7925 162.468 63.1737 162.609 62.5842L178.033 8.79307C178.093 8.54235 178.214 8.31022 178.385 8.11708C178.555 7.92394 178.771 7.77571 179.012 7.68542C179.254 7.59513 179.514 7.56554 179.769 7.59925C180.025 7.63297 180.268 7.72896 180.478 7.87878C215.665 28.0395 259.501 18.0148 294.682 38.1958C295.196 38.5158 295.597 38.989 295.828 39.5486C296.059 40.1083 296.109 40.7263 295.97 41.3158L280.546 95.107C280.486 95.3577 280.365 95.5898 280.195 95.7829C280.024 95.9761 279.808 96.1243 279.567 96.2146C279.325 96.3049 279.065 96.3345 278.81 96.3008C278.554 96.267 278.311 96.1711 278.101 96.0212C242.922 75.8336 199.084 85.865 163.897 65.7043Z" fill="#7DDF96"/>
<path d="M294.104 40.2129L278.679 94.0041C243.498 73.8231 199.663 83.8479 164.476 63.6871L179.9 9.89595C215.087 30.0567 258.922 20.032 294.104 40.2129ZM295.261 36.1786C260.079 15.9977 216.244 26.0224 181.057 5.86162C178.987 4.6788 176.83 5.37718 176.184 7.62968L160.759 61.4208C160.477 62.6068 160.572 63.8513 161.03 64.9808C161.489 66.1103 162.289 67.0684 163.319 67.7214C198.498 87.9091 242.333 77.8844 277.515 98.0653C279.584 99.2481 281.742 98.5497 282.388 96.2972L297.812 42.5061C298.095 41.3201 298 40.0756 297.541 38.9461C297.082 37.8166 296.282 36.8585 295.253 36.2055L295.261 36.1786Z" fill="#515979"/>
<path d="M278.135 77.8609L285.675 51.5637C280.978 49.2417 278.181 43.8479 279.598 38.9058C251.544 28.4821 219.716 31.1949 191.652 20.7827C190.237 25.718 185.111 28.3669 180.447 26.0325L172.92 52.2825C177.61 54.6026 180.408 59.9964 178.99 64.9385C207.051 75.3642 238.879 72.6514 266.938 83.0549C268.334 78.1868 273.438 75.5389 278.135 77.8609Z" fill="#00C853"/>
<path d="M251.021 55.1251C247.059 68.9427 234.181 78.5011 222.093 77.0359C210.004 75.5706 203.577 62.6598 207.564 48.7548C211.551 34.8497 224.406 25.372 236.484 26.8487C248.562 28.3255 255.01 41.2133 251.021 55.1251Z" fill="#7DDF96"/>
<path d="M199.022 46.9749C197.794 51.258 193.529 54.0009 189.583 52.8182C185.636 51.6355 183.51 46.9438 184.738 42.6606C185.966 38.3775 190.089 36.1033 194.038 37.2793C197.987 38.4553 200.26 42.6581 199.022 46.9749Z" fill="#7DDF96"/>
<path d="M273.847 61.2192C272.617 65.5091 268.496 67.7765 264.547 66.6006C260.598 65.4246 258.331 61.2016 259.563 56.905C260.795 52.6084 265.056 49.879 269.003 51.0616C272.949 52.2443 275.077 56.9294 273.847 61.2192Z" fill="#7DDF96"/>
<path d="M232.418 54.9863C232.184 54.9187 231.981 54.772 231.844 54.5714C231.706 54.3708 231.643 54.1286 231.664 53.8864C231.685 53.6441 231.79 53.4168 231.961 53.2433C232.131 53.0698 232.356 52.9609 232.598 52.9351C234.502 52.82 236.398 53.2576 238.058 54.1951C238.29 54.3458 238.454 54.582 238.512 54.8523C238.571 55.1226 238.521 55.4052 238.372 55.6386C238.223 55.8705 237.988 56.034 237.719 56.0932C237.45 56.1523 237.168 56.1024 236.935 55.9543C235.682 55.2715 234.267 54.9436 232.841 55.0059C232.7 55.0313 232.556 55.0246 232.418 54.9863Z" fill="#515979"/>
<path d="M234.994 53.9933C237.223 54.6322 239.547 53.3439 240.186 51.1158C240.825 48.8877 239.536 46.5635 237.308 45.9246C235.08 45.2858 232.756 46.5741 232.117 48.8022C231.478 51.0303 232.766 53.3544 234.994 53.9933Z" fill="#515979"/>
<path d="M236.877 51.2078C237.434 51.3675 238.016 51.0455 238.175 50.4884C238.335 49.9314 238.013 49.3504 237.456 49.1906C236.899 49.0309 236.318 49.353 236.158 49.91C235.998 50.467 236.32 51.0481 236.877 51.2078Z" fill="white"/>
<path d="M218.808 51.8478C218.574 51.7802 218.371 51.6335 218.234 51.4329C218.096 51.2323 218.033 50.9901 218.054 50.7479C218.076 50.5056 218.18 50.2783 218.351 50.1048C218.521 49.9313 218.747 49.8224 218.988 49.7966C220.892 49.6758 222.79 50.1138 224.448 51.0566C224.685 51.2037 224.854 51.4387 224.917 51.71C224.981 51.9813 224.934 52.2668 224.787 52.5035C224.64 52.7402 224.405 52.9088 224.133 52.9723C223.862 53.0357 223.577 52.9888 223.34 52.8418C222.088 52.1553 220.672 51.8271 219.246 51.8934C219.098 51.9083 218.949 51.8928 218.808 51.8478Z" fill="#515979"/>
<path d="M221.358 50.8471C223.586 51.486 225.91 50.1977 226.549 47.9696C227.188 45.7415 225.899 43.4173 223.671 42.7784C221.443 42.1395 219.119 43.4278 218.48 45.6559C217.841 47.8841 219.13 50.2082 221.358 50.8471Z" fill="#515979"/>
<path d="M223.249 48.0568C223.806 48.2165 224.387 47.8944 224.547 47.3374C224.707 46.7804 224.385 46.1993 223.828 46.0396C223.271 45.8799 222.69 46.202 222.53 46.759C222.37 47.316 222.692 47.897 223.249 48.0568Z" fill="white"/>
<path d="M235.905 39.9557C236.592 39.726 237.317 39.6276 238.04 39.6656C238.761 39.69 239.473 39.8255 240.152 40.0674C240.863 40.3193 241.521 40.7029 242.091 41.1982C242.681 41.7003 243.133 42.346 243.401 43.073C243.459 43.2217 243.487 43.3804 243.483 43.5398C243.479 43.6993 243.444 43.8564 243.379 44.0022C243.314 44.1479 243.221 44.2794 243.105 44.3891C242.99 44.4988 242.853 44.5845 242.704 44.6414C242.42 44.7421 242.109 44.7357 241.829 44.6232L241.57 44.5125C241.056 44.2997 240.675 44.0812 240.246 43.9001C239.818 43.7191 239.42 43.5323 238.946 43.3599L237.545 42.8637C237.04 42.7092 236.543 42.5278 236.057 42.3204L235.781 42.1904C235.637 42.1228 235.508 42.0269 235.401 41.9085C235.295 41.79 235.213 41.6513 235.161 41.5007C235.11 41.3501 235.089 41.1906 235.099 41.0317C235.11 40.8728 235.153 40.7178 235.225 40.5757C235.361 40.2876 235.606 40.0648 235.905 39.9557Z" fill="#515979"/>
<path d="M225.958 39.9558C225.457 39.9505 224.884 39.8443 224.383 39.7881L222.904 39.6185C222.43 39.57 221.978 39.5715 221.523 39.5356C221.068 39.4996 220.618 39.5453 220.074 39.513L219.795 39.4984C219.484 39.4701 219.196 39.3222 218.992 39.0859C218.789 38.8496 218.685 38.5434 218.702 38.2319C218.718 37.9313 218.848 37.6481 219.067 37.4415C219.624 36.9029 220.311 36.5181 221.061 36.325C221.787 36.1251 222.545 36.068 223.292 36.1571C223.995 36.2484 224.679 36.447 225.321 36.7461C225.987 37.0404 226.591 37.4605 227.098 37.9834C227.209 38.0934 227.297 38.2244 227.357 38.3686C227.417 38.5129 227.448 38.6677 227.448 38.8239C227.448 38.9802 227.417 39.1349 227.356 39.2791C227.296 39.4233 227.208 39.554 227.097 39.6638C226.876 39.8839 226.579 40.01 226.268 40.0157L225.958 39.9558Z" fill="#515979"/>
<path d="M224.537 66.9381C222.211 66.2725 220.23 64.7383 219.004 62.653C217.777 60.5676 217.399 58.0906 217.948 55.7344C217.978 55.5999 218.034 55.4726 218.113 55.3599C218.192 55.2473 218.293 55.1514 218.409 55.0779C218.526 55.0044 218.656 54.9547 218.792 54.9317C218.927 54.9087 219.066 54.9128 219.201 54.9439L235.581 58.724C235.838 58.8007 236.056 58.9714 236.192 59.202C236.328 59.4326 236.372 59.7062 236.316 59.968C235.756 62.4053 234.252 64.521 232.134 65.8508C230.016 67.1807 227.457 67.6161 225.018 67.0615C224.857 67.0152 224.702 66.9709 224.541 66.9246L224.537 66.9381Z" fill="#515979"/>
<path d="M235.323 59.749C235.076 60.8234 234.62 61.8386 233.98 62.7366C233.34 63.6346 232.53 64.3977 231.595 64.9825C230.661 65.5673 229.62 65.9622 228.533 66.1447C227.445 66.3272 226.333 66.2937 225.259 66.0462L224.828 65.9228C222.759 65.3325 220.995 63.97 219.902 62.1167C218.808 60.2634 218.468 58.0609 218.952 55.9641L235.332 59.7442L235.323 59.749ZM235.91 57.727L235.803 57.6961L219.424 53.9093C218.879 53.7886 218.308 53.886 217.833 54.1807C217.599 54.3276 217.397 54.5192 217.238 54.7444C217.078 54.9696 216.965 55.2241 216.904 55.4932C216.3 58.1141 216.725 60.8669 218.092 63.1831C219.459 65.4994 221.663 67.2022 224.25 67.94L224.781 68.0923C226.123 68.4027 227.514 68.4457 228.873 68.2187C230.232 67.9918 231.533 67.4994 232.702 66.7696C233.871 66.0398 234.884 65.087 235.685 63.9654C236.485 62.8439 237.057 61.5757 237.367 60.2332C237.49 59.7085 237.406 59.1568 237.133 58.6923C236.859 58.2279 236.418 57.8864 235.9 57.7385L235.91 57.727Z" fill="#515979"/>
<path d="M225.169 66.2442C228.532 67.0293 231.544 66.4443 231.896 64.9376C232.248 63.4309 229.806 61.573 226.442 60.7879C223.078 60.0029 220.066 60.5878 219.715 62.0945C219.363 63.6012 221.805 65.4591 225.169 66.2442Z" fill="#EF7D7D"/>
</svg>
