<svg id="Layer_1" data-name="Layer 1" xmlns="http://www.w3.org/2000/svg" viewBox="0 0 344 208"><defs><style>.cls-1{fill:#c7bcff;}.cls-2{fill:#515979;}.cls-3{fill:#8988c9;}.cls-4,.cls-6{fill:none;stroke:#515979;stroke-linecap:round;stroke-linejoin:round;}.cls-4{stroke-width:6px;}.cls-5{fill:#ef7d7d;}.cls-6{stroke-width:5px;}</style></defs><path class="cls-1" d="M154.46,198.12a3,3,0,0,1-1.5-.4l-55.42-32a9,9,0,0,1-3.3-12.29L147.8,60.66a9,9,0,0,1,6.44-4.39l60.45-9.21a3.42,3.42,0,0,1,.45,0,3,3,0,0,1,2.8,1.91l22.25,57a9,9,0,0,1-.59,7.77l-41.56,72a3,3,0,0,1-1.82,1.4l-41,11A3,3,0,0,1,154.46,198.12ZM197.18,69.7a11.5,11.5,0,0,0-4.43,22.13,11.11,11.11,0,0,0,4.35.87,11.5,11.5,0,0,0,4.44-22.13A11.16,11.16,0,0,0,197.18,69.7Z"/><path class="cls-2" d="M215.14,50l22.25,57a6,6,0,0,1-.39,5.18l-41.56,72-41,11L99,163.12a6,6,0,0,1-2.2-8.19L150.4,62.16a6,6,0,0,1,4.29-2.93L215.14,50m-18,45.69a14.51,14.51,0,0,0,5.6-27.91,14.35,14.35,0,0,0-5.52-1.1,14.5,14.5,0,0,0-5.6,27.9,14.21,14.21,0,0,0,5.52,1.11M215.15,44a7,7,0,0,0-.91.07L153.79,53.3a12,12,0,0,0-8.59,5.86L91.64,151.93A12,12,0,0,0,96,168.32l55.42,32a6.08,6.08,0,0,0,4.56.6l41-11a6,6,0,0,0,3.64-2.8l41.56-72A11.91,11.91,0,0,0,243,104.8l-22.25-57A6,6,0,0,0,215.15,44ZM197.1,89.71a8.26,8.26,0,0,1-3.19-.64,8.5,8.5,0,0,1,3.27-16.37,8,8,0,0,1,3.19.64,8.5,8.5,0,0,1-3.27,16.37Z"/><path class="cls-3" d="M154.46,198.12a3,3,0,0,1-2.6-4.5l12-20.78a9,9,0,0,1,12.3-3.29l20.78,12a3,3,0,0,1-.72,5.49l-41,11A3,3,0,0,1,154.46,198.12Z"/><path class="cls-2" d="M171.66,171.34a6.05,6.05,0,0,1,3,.8l20.78,12-41,11,12-20.78a6,6,0,0,1,5.2-3m0-6a12,12,0,0,0-10.39,6l-12,20.78a6,6,0,0,0,6.75,8.8l41-11a6,6,0,0,0,1.44-11l-20.78-12a11.94,11.94,0,0,0-6-1.61Z"/><path class="cls-4" d="M208.15,84.09a31.19,31.19,0,0,1-10.51-3.75c-16.74-9.67-21.35-33-10.31-52.15s33.57-26.8,50.31-17.14S259,44.06,248,63.19a44,44,0,0,1-15.84,16.09"/><path class="cls-2" d="M168.3,147.14a16,16,0,0,1-13.85-24,2,2,0,0,1,1.74-1,1.93,1.93,0,0,1,1,.27l24.25,14a2,2,0,0,1,.93,1.21,2.07,2.07,0,0,1-.2,1.52,16.07,16.07,0,0,1-13.87,8Z"/><path class="cls-2" d="M156.19,124.14l24.25,14a14,14,0,0,1-24.25-14m0-4a4,4,0,0,0-3.47,2,18,18,0,0,0,31.18,18,4,4,0,0,0-1.46-5.47l-24.25-14a4.07,4.07,0,0,0-2-.53Z"/><ellipse class="cls-5" cx="163.64" cy="139.22" rx="4.67" ry="10.41" transform="translate(-38.75 211.33) rotate(-60)"/><path class="cls-2" d="M192.14,110.29a8.53,8.53,0,0,1,2-.14,10.24,10.24,0,0,1,5.65,2,8.8,8.8,0,0,1,2.81,3.26,7.38,7.38,0,0,1,.8,4.13,2,2,0,0,1-3.57,1.18l-.35-.4c-.65-.74-1.06-1.39-1.61-1.89a12,12,0,0,0-1.63-1.45,19,19,0,0,0-2-1.32c-.38-.22-.77-.45-1.18-.66a11.53,11.53,0,0,1-1.18-.68l-.61-.48a2,2,0,0,1-.33-2.79A2,2,0,0,1,192.14,110.29Z"/><path class="cls-2" d="M171.13,102.31c-.36-.15-.79-.47-1.18-.68s-.78-.48-1.16-.7a20.24,20.24,0,0,0-2.16-1.11,13.53,13.53,0,0,0-2.07-.68,24.12,24.12,0,0,0-2.44-.45l-.52-.11a2,2,0,0,1-1.61-2.4,2.09,2.09,0,0,1,.84-1.28,7.46,7.46,0,0,1,4-1.37,8.86,8.86,0,0,1,4.24.81,10.31,10.31,0,0,1,4.52,3.91,8.2,8.2,0,0,1,.89,1.83,2,2,0,0,1-1.19,2.54,1.93,1.93,0,0,1-1.4,0Z"/><path class="cls-6" d="M157,110.76a5,5,0,0,1,8.66,5"/><path class="cls-6" d="M183,125.73a5,5,0,1,1,8.66,5"/></svg>