<?xml version="1.0" encoding="utf-8"?>
<!-- Generator: Adobe Illustrator 25.2.3, SVG Export Plug-In . SVG Version: 6.00 Build 0)  -->
<svg version="1.1" id="call-to-action-examples" xmlns="http://www.w3.org/2000/svg" xmlns:xlink="http://www.w3.org/1999/xlink"
	 x="0px" y="0px" viewBox="0 0 400 400" style="enable-background:new 0 0 400 400;" xml:space="preserve">
<style type="text/css">
	.st0{fill:#E9F9FE;}
	.st1{fill:#D2F4FD;}
	.st2{fill:#3CB48C;}
	.st3{fill:#515979;}
	.st4{fill:#7DDF96;}
	.st5{fill:#EF7D7D;}
	.st6{fill:#75A5C3;}
	.st7{opacity:0.5;}
	.st8{fill:#FFFFFF;}
	.st9{fill:#ACC9DB;}
	.st10{fill:#FFD886;}
	.st11{fill:#8988C9;}
	.st12{fill:#C7BCFF;}
	.st13{fill:#F89D81;}
</style>
<g>
	<circle class="st0" cx="288" cy="197" r="100"/>
</g>
<g>
	<circle class="st1" cx="288" cy="197" r="70"/>
</g>
<g>
	<g>
		<path class="st2" d="M210.46,238.54c-4.96,0-9-4.04-9-9v-58c0-4.96,4.04-9,9-9h168c4.96,0,9,4.04,9,9v58c0,4.96-4.04,9-9,9H210.46
			z"/>
	</g>
	<g>
		<g>
			<path class="st3" d="M378.46,165.54c3.31,0,6,2.69,6,6v58c0,3.31-2.69,6-6,6h-168c-3.31,0-6-2.69-6-6v-58c0-3.31,2.69-6,6-6
				H378.46 M378.46,159.54h-168c-6.62,0-12,5.38-12,12v58c0,6.62,5.38,12,12,12h168c6.62,0,12-5.38,12-12v-58
				C390.46,164.92,385.08,159.54,378.46,159.54L378.46,159.54z"/>
		</g>
	</g>
</g>
<g>
	<g>
		<path class="st4" d="M192.46,238.54c-4.96,0-9-4.04-9-9v-58c0-4.96,4.04-9,9-9h168c4.96,0,9,4.04,9,9v58c0,4.96-4.04,9-9,9H192.46
			z"/>
	</g>
	<g>
		<g>
			<path class="st3" d="M360.46,165.54c3.31,0,6,2.69,6,6v58c0,3.31-2.69,6-6,6h-168c-3.31,0-6-2.69-6-6v-58c0-3.31,2.69-6,6-6
				H360.46 M360.46,159.54h-168c-6.62,0-12,5.38-12,12v58c0,6.62,5.38,12,12,12h168c6.62,0,12-5.38,12-12v-58
				C372.46,164.92,367.08,159.54,360.46,159.54L360.46,159.54z"/>
		</g>
	</g>
</g>
<g>
	<g>
		<g>
			<g>
				<path class="st3" d="M276.46,204.54c-8.82,0-16-7.18-16-16c0-1.1,0.9-2,2-2h28c1.1,0,2,0.9,2,2
					C292.46,197.36,285.28,204.54,276.46,204.54z"/>
			</g>
			<g>
				<path class="st3" d="M290.46,188.54L290.46,188.54 M290.46,188.54c0,7.73-6.27,14-14,14c-7.73,0-14-6.27-14-14H290.46
					 M290.46,184.54L290.46,184.54h-28.01c-2.21,0-4,1.79-4,4c0,9.93,8.07,18,18,18c9.87,0,17.91-7.99,18-17.84
					c0-0.05,0-0.11,0-0.16C294.46,186.33,292.67,184.54,290.46,184.54L290.46,184.54z M290.46,192.54L290.46,192.54L290.46,192.54
					L290.46,192.54z"/>
			</g>
		</g>
		<g>
			<g>
				<ellipse class="st5" cx="276.46" cy="197.87" rx="10.41" ry="4.67"/>
			</g>
		</g>
	</g>
	<g>
		<g>
			<g>
				<path class="st3" d="M286.67,148.56c0.6-0.51,1.09-0.82,1.69-1.14c0.58-0.3,1.18-0.55,1.82-0.74c1.27-0.37,2.65-0.52,4.06-0.39
					c1.41,0.11,2.85,0.62,4.07,1.42c1.25,0.77,2.18,1.94,2.76,3.17c0.48,1.02,0.04,2.24-0.98,2.72c-0.5,0.23-1.04,0.25-1.52,0.09
					l-0.51-0.17c-0.93-0.31-1.61-0.67-2.34-0.83c-0.71-0.19-1.37-0.36-2.13-0.44c-0.75-0.09-1.56-0.13-2.43-0.12
					c-0.44,0-0.89,0-1.35,0.02c-0.45-0.01-0.98,0.05-1.36,0l-0.77-0.11c-1.08-0.16-1.83-1.17-1.68-2.25
					C286.06,149.3,286.31,148.87,286.67,148.56z"/>
			</g>
			<g>
				<path class="st3" d="M264.49,152.16c-0.38,0.06-0.92-0.01-1.36,0c-0.46-0.02-0.92-0.02-1.35-0.02
					c-0.87-0.01-1.68,0.04-2.43,0.12c-0.76,0.07-1.42,0.25-2.13,0.44c-0.73,0.16-1.41,0.52-2.34,0.83l-0.5,0.17
					c-1.07,0.36-2.23-0.21-2.59-1.28c-0.18-0.52-0.13-1.06,0.09-1.52c0.58-1.23,1.5-2.4,2.76-3.17c1.22-0.8,2.66-1.31,4.07-1.42
					c1.41-0.14,2.79,0.01,4.06,0.39c0.63,0.19,1.24,0.44,1.82,0.74c0.59,0.32,1.08,0.63,1.69,1.14c0.84,0.71,0.94,1.96,0.24,2.8
					c-0.32,0.39-0.76,0.62-1.23,0.68L264.49,152.16z"/>
			</g>
			<g>
				<path class="st3" d="M266.48,175.04c-1.38,0-2.5-1.12-2.5-2.5c0-1.38-1.12-2.5-2.5-2.5s-2.5,1.12-2.5,2.5
					c0,1.38-1.12,2.5-2.5,2.5s-2.5-1.12-2.5-2.5c0-4.14,3.36-7.5,7.5-7.5s7.5,3.36,7.5,7.5
					C268.98,173.92,267.86,175.04,266.48,175.04z"/>
			</g>
			<g>
				<path class="st3" d="M296.44,175.04c-1.38,0-2.5-1.12-2.5-2.5c0-1.38-1.12-2.5-2.5-2.5s-2.5,1.12-2.5,2.5
					c0,1.38-1.12,2.5-2.5,2.5s-2.5-1.12-2.5-2.5c0-4.14,3.36-7.5,7.5-7.5s7.5,3.36,7.5,7.5
					C298.94,173.92,297.82,175.04,296.44,175.04z"/>
			</g>
		</g>
	</g>
</g>
<g>
	<g>
		<path class="st3" d="M282,170c-1.66,0-3-1.34-3-3c0-1.65-1.35-3-3-3s-3,1.35-3,3c0,1.66-1.34,3-3,3s-3-1.34-3-3c0-4.96,4.04-9,9-9
			s9,4.04,9,9C285,168.66,283.66,170,282,170z"/>
	</g>
	<g>
		<path class="st3" d="M321,155h-16v8h16c2.21,0,4-1.79,4-4l0,0C325,156.79,323.21,155,321,155z"/>
	</g>
	<g>
		<path class="st6" d="M300,185L300,185c-8.28,0-15-6.72-15-15v-5c0-2.21,1.79-4,4-4h22c2.21,0,4,1.79,4,4v5
			C315,178.28,308.28,185,300,185z"/>
	</g>
	<g>
		<path class="st3" d="M247,155h-16c-2.21,0-4,1.79-4,4l0,0c0,2.21,1.79,4,4,4h16V155z"/>
	</g>
	<g>
		<path class="st6" d="M252,185L252,185c-8.28,0-15-6.72-15-15v-5c0-2.21,1.79-4,4-4h22c2.21,0,4,1.79,4,4v5
			C267,178.28,260.28,185,252,185z"/>
	</g>
	<g class="st7">
		<polygon class="st8" points="289,187 295,187 305,159 299,159 		"/>
	</g>
	<g class="st7">
		<polygon class="st8" points="298,187 302,187 312,159 308,159 		"/>
	</g>
	<g class="st7">
		<polygon class="st8" points="241,187 247,187 257,159 251,159 		"/>
	</g>
	<g class="st7">
		<polygon class="st8" points="250,187 254,187 264,159 260,159 		"/>
	</g>
	<g>
		<path class="st3" d="M311,161c2.21,0,4,1.79,4,4v5c0,8.28-6.72,15-15,15h0c-8.28,0-15-6.72-15-15v-5c0-2.21,1.79-4,4-4H311
			 M311,155h-22c-5.51,0-10,4.49-10,10v5c0,11.58,9.42,21,21,21s21-9.42,21-21v-5C321,159.49,316.51,155,311,155L311,155z"/>
	</g>
	<g>
		<path class="st9" d="M321,160h-2c-0.55,0-1-0.45-1-1l0,0c0-0.55,0.45-1,1-1h2c0.55,0,1,0.45,1,1l0,0
			C322,159.55,321.55,160,321,160z"/>
	</g>
	<g>
		<path class="st3" d="M263,161c2.21,0,4,1.79,4,4v5c0,8.28-6.72,15-15,15h0c-8.28,0-15-6.72-15-15v-5c0-2.21,1.79-4,4-4H263
			 M263,155h-22c-5.51,0-10,4.49-10,10v5c0,11.58,9.42,21,21,21c11.58,0,21-9.42,21-21v-5C273,159.49,268.51,155,263,155L263,155z"
			/>
	</g>
	<g>
		<path class="st9" d="M233,160h-2c-0.55,0-1-0.45-1-1l0,0c0-0.55,0.45-1,1-1h2c0.55,0,1,0.45,1,1l0,0
			C234,159.55,233.55,160,233,160z"/>
	</g>
</g>
<g>
	<path class="st10" d="M218.2,260.2c-2.98,0-5.4-2.42-5.4-5.4c0-0.99-0.81-1.8-1.8-1.8c-0.99,0-1.8,0.81-1.8,1.8
		c0,2.98-2.42,5.4-5.4,5.4c-0.99,0-1.8,0.81-1.8,1.8s0.81,1.8,1.8,1.8c2.98,0,5.4,2.42,5.4,5.4c0,0.99,0.81,1.8,1.8,1.8
		c0.99,0,1.8-0.81,1.8-1.8c0-2.98,2.42-5.4,5.4-5.4c0.99,0,1.8-0.81,1.8-1.8S219.19,260.2,218.2,260.2z"/>
</g>
<g>
	<path class="st10" d="M387,263c-3.31,0-6-2.69-6-6c0-1.1-0.9-2-2-2c-1.1,0-2,0.9-2,2c0,3.31-2.69,6-6,6c-1.1,0-2,0.9-2,2s0.9,2,2,2
		c3.31,0,6,2.69,6,6c0,1.1,0.9,2,2,2c1.1,0,2-0.9,2-2c0-3.31,2.69-6,6-6c1.1,0,2-0.9,2-2S388.1,263,387,263z"/>
</g>
<g>
	<path class="st10" d="M357.4,100.4c-2.65,0-4.8-2.15-4.8-4.8c0-0.88-0.72-1.6-1.6-1.6c-0.88,0-1.6,0.72-1.6,1.6
		c0,2.65-2.15,4.8-4.8,4.8c-0.88,0-1.6,0.72-1.6,1.6s0.72,1.6,1.6,1.6c2.65,0,4.8,2.15,4.8,4.8c0,0.88,0.72,1.6,1.6,1.6
		c0.88,0,1.6-0.72,1.6-1.6c0-2.65,2.15-4.8,4.8-4.8c0.88,0,1.6-0.72,1.6-1.6S358.28,100.4,357.4,100.4z"/>
</g>
<g>
	<circle class="st10" cx="226" cy="109" r="3"/>
</g>
<g>
	<circle class="st10" cx="230" cy="135" r="4"/>
</g>
<g>
	<circle class="st10" cx="188" cy="146" r="3"/>
</g>
<g>
	<g>
		<g>
			<path class="st11" d="M24,118.91c-4.96,0-9-4.04-9-9v-58c0-4.96,4.04-9,9-9h158c4.96,0,9,4.04,9,9v58c0,4.96-4.04,9-9,9H24z"/>
		</g>
		<g>
			<g>
				<path class="st3" d="M182,45.91c3.31,0,6,2.69,6,6v58c0,3.31-2.69,6-6,6H24c-3.31,0-6-2.69-6-6v-58c0-3.31,2.69-6,6-6H182
					 M182,39.91H24c-6.62,0-12,5.38-12,12v58c0,6.62,5.38,12,12,12h158c6.62,0,12-5.38,12-12v-58C194,45.3,188.62,39.91,182,39.91
					L182,39.91z"/>
			</g>
		</g>
	</g>
	<g>
		<g>
			<path class="st12" d="M42,118.91c-4.96,0-9-4.04-9-9v-58c0-4.96,4.04-9,9-9h158c4.96,0,9,4.04,9,9v58c0,4.96-4.04,9-9,9H42z"/>
		</g>
		<g>
			<g>
				<path class="st3" d="M200,45.91c3.31,0,6,2.69,6,6v58c0,3.31-2.69,6-6,6H42c-3.31,0-6-2.69-6-6v-58c0-3.31,2.69-6,6-6H200
					 M200,39.91H42c-6.62,0-12,5.38-12,12v58c0,6.62,5.38,12,12,12h158c6.62,0,12-5.38,12-12v-58C212,45.3,206.62,39.91,200,39.91
					L200,39.91z"/>
			</g>
		</g>
	</g>
	<g>
		<g>
			<g>
				<path class="st3" d="M140.5,72.51c-0.32,0-0.64-0.08-0.94-0.24c-1.89-1.02-5.22-1.02-7.11,0c-0.98,0.52-2.19,0.16-2.71-0.82
					c-0.52-0.97-0.16-2.19,0.82-2.71c3.05-1.64,7.84-1.64,10.89,0c0.97,0.52,1.34,1.73,0.82,2.71
					C141.9,72.13,141.21,72.51,140.5,72.51z"/>
			</g>
			<g>
				<g>
					<circle class="st3" cx="136" cy="62.76" r="7"/>
				</g>
				<g>
					<circle class="st8" cx="137.75" cy="62.76" r="1.75"/>
				</g>
			</g>
			<g>
				<g>
					<path class="st3" d="M107,80.8c-1.01,0-1.88-0.76-1.99-1.79c-0.12-1.1,0.68-2.08,1.78-2.2c9.54-1.01,19.1-1.02,28.42-0.04
						c1.1,0.12,1.9,1.1,1.78,2.2c-0.12,1.1-1.1,1.9-2.2,1.78c-9.04-0.95-18.32-0.94-27.58,0.04C107.14,80.8,107.07,80.8,107,80.8z"
						/>
				</g>
				<g>
					<path class="st3" d="M116.82,83.89c1.35,0.43,2.77,0.57,4.18,0.62c0.71,0.03,1.41-0.07,2.11-0.15c0.7-0.09,1.39-0.24,2.05-0.47
						c0.69-0.24,1.45,0.13,1.68,0.82c0.17,0.48,0.04,1-0.29,1.34l-0.72,0.76c-0.67,0.71-1.48,1.09-2.3,1.37
						c-0.83,0.24-1.69,0.36-2.54,0.31c-0.43-0.02-0.85-0.04-1.27-0.13c-0.42-0.06-0.84-0.17-1.25-0.3c-0.81-0.27-1.6-0.64-2.3-1.25
						l-0.67-0.59c-0.57-0.5-0.63-1.37-0.13-1.94C115.74,83.87,116.32,83.73,116.82,83.89z"/>
				</g>
			</g>
			<g>
				<path class="st3" d="M131.03,49.75c0.61-0.55,1.11-0.88,1.72-1.22c0.6-0.32,1.22-0.59,1.88-0.8c1.32-0.41,2.78-0.57,4.26-0.39
					c1.48,0.15,2.99,0.73,4.21,1.63c1.26,0.87,2.13,2.1,2.67,3.38c0.44,1.04-0.05,2.24-1.1,2.68c-0.53,0.22-1.09,0.2-1.58,0
					l-0.45-0.19c-0.94-0.4-1.64-0.83-2.38-1.03c-0.71-0.25-1.37-0.43-2.13-0.52c-0.74-0.1-1.56-0.14-2.44-0.12
					c-0.44,0.01-0.91,0.02-1.37,0.06c-0.46,0.01-1,0.09-1.39,0.05l-0.78-0.08c-1.09-0.11-1.88-1.08-1.77-2.16
					C130.43,50.52,130.67,50.07,131.03,49.75z"/>
			</g>
			<g>
				<path class="st3" d="M110.5,72.51c-0.32,0-0.64-0.08-0.94-0.24c-1.89-1.02-5.22-1.02-7.11,0c-0.98,0.52-2.19,0.16-2.71-0.82
					c-0.52-0.97-0.16-2.19,0.82-2.71c3.05-1.64,7.84-1.64,10.89,0c0.97,0.52,1.34,1.73,0.82,2.71
					C111.9,72.13,111.21,72.51,110.5,72.51z"/>
			</g>
			<g>
				<g>
					<circle class="st3" cx="106" cy="62.76" r="7"/>
				</g>
				<g>
					<circle class="st8" cx="107.75" cy="62.76" r="1.75"/>
				</g>
			</g>
			<g>
				<path class="st3" d="M109.07,53.27c-0.39,0.04-0.94-0.05-1.39-0.05c-0.47-0.04-0.93-0.05-1.37-0.06
					c-0.89-0.02-1.7,0.02-2.44,0.12c-0.75,0.09-1.41,0.28-2.13,0.52c-0.74,0.21-1.43,0.64-2.38,1.03l-0.45,0.19
					c-1.04,0.44-2.24-0.05-2.68-1.09c-0.22-0.53-0.2-1.1,0-1.59c0.54-1.28,1.41-2.51,2.67-3.38c1.21-0.9,2.72-1.48,4.21-1.63
					c1.49-0.18,2.95-0.02,4.26,0.39c0.66,0.21,1.29,0.48,1.88,0.8c0.61,0.34,1.11,0.68,1.72,1.22c0.81,0.73,0.88,1.98,0.16,2.79
					c-0.34,0.38-0.8,0.6-1.27,0.65L109.07,53.27z"/>
			</g>
		</g>
	</g>
	<g>
		<g>
			<path class="st8" d="M113.05,105.75c0.07,0,0.14,0.01,0.22,0.04c0.07,0.03,0.14,0.07,0.21,0.14l1.21,1.27
				c-0.53,0.69-1.19,1.21-1.98,1.56c-0.8,0.35-1.74,0.53-2.82,0.53c-1,0-1.89-0.17-2.68-0.51c-0.79-0.34-1.46-0.81-2.01-1.4
				c-0.55-0.6-0.97-1.3-1.26-2.12c-0.29-0.82-0.44-1.71-0.44-2.67c0-0.98,0.16-1.88,0.48-2.7c0.32-0.82,0.77-1.53,1.34-2.12
				c0.58-0.59,1.27-1.06,2.07-1.39c0.8-0.33,1.69-0.5,2.66-0.5c0.49,0,0.96,0.04,1.39,0.13c0.43,0.09,0.84,0.21,1.22,0.36
				s0.73,0.34,1.04,0.55c0.32,0.22,0.6,0.45,0.85,0.7l-1.03,1.38c-0.07,0.08-0.14,0.16-0.23,0.23c-0.09,0.07-0.22,0.1-0.38,0.1
				c-0.11,0-0.21-0.02-0.31-0.07c-0.1-0.05-0.2-0.11-0.31-0.18c-0.11-0.07-0.23-0.14-0.36-0.22s-0.28-0.16-0.46-0.22
				c-0.18-0.07-0.38-0.13-0.62-0.18s-0.51-0.07-0.83-0.07c-0.5,0-0.96,0.09-1.38,0.28c-0.42,0.19-0.78,0.46-1.08,0.81
				c-0.3,0.36-0.54,0.79-0.7,1.31c-0.17,0.52-0.25,1.11-0.25,1.78c0,0.67,0.09,1.27,0.27,1.79c0.18,0.52,0.43,0.96,0.75,1.32
				c0.31,0.36,0.68,0.63,1.1,0.81c0.42,0.19,0.87,0.28,1.35,0.28c0.28,0,0.53-0.01,0.76-0.04c0.23-0.03,0.44-0.07,0.64-0.13
				c0.2-0.06,0.38-0.15,0.56-0.25c0.17-0.11,0.35-0.24,0.53-0.4c0.07-0.06,0.15-0.11,0.23-0.15
				C112.87,105.77,112.96,105.75,113.05,105.75z"/>
		</g>
		<g>
			<path class="st8" d="M126.33,98.45h-3.69v10.7h-3.04v-10.7h-3.69v-2.41h10.42V98.45z"/>
		</g>
		<g>
			<path class="st8" d="M139.25,109.15h-2.36c-0.26,0-0.48-0.06-0.64-0.18s-0.29-0.28-0.37-0.47l-0.77-2.29h-4.99l-0.77,2.29
				c-0.07,0.17-0.18,0.32-0.36,0.46c-0.17,0.13-0.38,0.2-0.63,0.2h-2.38l5.08-13.11h3.11L139.25,109.15z M134.42,104.13l-1.21-3.59
				c-0.09-0.23-0.19-0.5-0.29-0.81c-0.1-0.31-0.2-0.64-0.31-1c-0.09,0.37-0.19,0.71-0.29,1.02c-0.1,0.31-0.2,0.58-0.29,0.81
				l-1.21,3.57H134.42z"/>
		</g>
	</g>
</g>
<g>
	<g>
		<g>
			<path class="st5" d="M61,363c-4.96,0-9-4.04-9-9v-58c0-4.96,4.04-9,9-9h158c4.96,0,9,4.04,9,9v58c0,4.96-4.04,9-9,9H61z"/>
		</g>
		<g>
			<g>
				<path class="st3" d="M219,290c3.31,0,6,2.69,6,6v58c0,3.31-2.69,6-6,6H61c-3.31,0-6-2.69-6-6v-58c0-3.31,2.69-6,6-6H219
					 M219,284H61c-6.62,0-12,5.38-12,12v58c0,6.62,5.38,12,12,12h158c6.62,0,12-5.38,12-12v-58C231,289.38,225.62,284,219,284
					L219,284z"/>
			</g>
		</g>
	</g>
	<g>
		<g>
			<path class="st13" d="M43,363c-4.96,0-9-4.04-9-9v-58c0-4.96,4.04-9,9-9h158c4.96,0,9,4.04,9,9v58c0,4.96-4.04,9-9,9H43z"/>
		</g>
		<g>
			<g>
				<path class="st3" d="M201,290c3.31,0,6,2.69,6,6v58c0,3.31-2.69,6-6,6H43c-3.31,0-6-2.69-6-6v-58c0-3.31,2.69-6,6-6H201
					 M201,284H43c-6.62,0-12,5.38-12,12v58c0,6.62,5.38,12,12,12h158c6.62,0,12-5.38,12-12v-58C213,289.38,207.62,284,201,284
					L201,284z"/>
			</g>
		</g>
	</g>
	<g>
		<g>
			<g>
				<path class="st3" d="M141.5,316.6c-0.32,0-0.64-0.08-0.94-0.24c-1.89-1.02-5.21-1.02-7.11,0c-0.97,0.52-2.19,0.16-2.71-0.82
					c-0.52-0.97-0.16-2.19,0.82-2.71c3.05-1.64,7.84-1.64,10.89,0c0.97,0.52,1.34,1.74,0.82,2.71
					C142.9,316.22,142.21,316.6,141.5,316.6z"/>
			</g>
			<g>
				<g>
					<circle class="st3" cx="137" cy="306.85" r="7"/>
				</g>
				<g>
					<circle class="st8" cx="138.75" cy="306.85" r="1.75"/>
				</g>
			</g>
			<g>
				<g>
					<path class="st3" d="M108,324.89c-1.01,0-1.88-0.76-1.99-1.79c-0.12-1.1,0.68-2.08,1.78-2.2c9.53-1.01,19.1-1.02,28.42-0.04
						c1.1,0.12,1.9,1.1,1.78,2.2c-0.12,1.1-1.1,1.89-2.2,1.78c-9.04-0.95-18.32-0.94-27.58,0.04
						C108.14,324.89,108.07,324.89,108,324.89z"/>
				</g>
				<g>
					<path class="st3" d="M117.82,327.98c1.35,0.43,2.77,0.57,4.18,0.62c0.71,0.03,1.41-0.07,2.11-0.15
						c0.7-0.09,1.39-0.24,2.05-0.47c0.69-0.24,1.45,0.13,1.68,0.82c0.17,0.48,0.04,1-0.29,1.34l-0.72,0.76
						c-0.67,0.71-1.48,1.09-2.3,1.37c-0.83,0.24-1.69,0.36-2.54,0.31c-0.43-0.02-0.85-0.04-1.27-0.13c-0.42-0.06-0.84-0.17-1.25-0.3
						c-0.81-0.27-1.6-0.64-2.3-1.25l-0.67-0.59c-0.57-0.5-0.63-1.37-0.13-1.94C116.74,327.96,117.32,327.82,117.82,327.98z"/>
				</g>
			</g>
			<g>
				<path class="st3" d="M132.03,293.83c0.61-0.55,1.11-0.88,1.72-1.22c0.6-0.32,1.22-0.59,1.88-0.8c1.32-0.41,2.78-0.57,4.26-0.39
					c1.48,0.15,2.99,0.73,4.21,1.63c1.26,0.87,2.13,2.1,2.67,3.38c0.44,1.04-0.05,2.24-1.1,2.68c-0.53,0.22-1.09,0.2-1.58,0
					l-0.45-0.19c-0.94-0.4-1.64-0.83-2.38-1.03c-0.71-0.25-1.37-0.43-2.13-0.52c-0.74-0.1-1.56-0.14-2.44-0.12
					c-0.44,0.01-0.91,0.02-1.37,0.06c-0.46,0.01-1,0.09-1.39,0.05l-0.78-0.08c-1.09-0.11-1.88-1.08-1.77-2.16
					C131.43,294.6,131.67,294.15,132.03,293.83z"/>
			</g>
			<g>
				<path class="st3" d="M111.5,316.6c-0.32,0-0.64-0.08-0.94-0.24c-1.89-1.02-5.21-1.02-7.11,0c-0.97,0.52-2.19,0.16-2.71-0.82
					c-0.52-0.97-0.16-2.19,0.82-2.71c3.05-1.64,7.84-1.64,10.89,0c0.97,0.52,1.34,1.74,0.82,2.71
					C112.9,316.22,112.21,316.6,111.5,316.6z"/>
			</g>
			<g>
				<g>
					<circle class="st3" cx="107" cy="306.85" r="7"/>
				</g>
				<g>
					<circle class="st8" cx="108.75" cy="306.85" r="1.75"/>
				</g>
			</g>
			<g>
				<path class="st3" d="M110.07,297.35c-0.39,0.04-0.94-0.05-1.39-0.05c-0.47-0.04-0.93-0.05-1.37-0.06
					c-0.89-0.02-1.7,0.02-2.44,0.12c-0.75,0.09-1.41,0.28-2.13,0.52c-0.74,0.21-1.43,0.64-2.38,1.03l-0.45,0.19
					c-1.04,0.44-2.24-0.05-2.68-1.09c-0.22-0.53-0.2-1.1,0-1.59c0.54-1.28,1.41-2.51,2.67-3.38c1.21-0.9,2.72-1.48,4.21-1.63
					c1.49-0.18,2.95-0.02,4.26,0.39c0.66,0.21,1.29,0.48,1.88,0.8c0.61,0.34,1.11,0.68,1.72,1.22c0.81,0.73,0.88,1.98,0.16,2.79
					c-0.34,0.38-0.8,0.6-1.27,0.65L110.07,297.35z"/>
			</g>
		</g>
	</g>
	<g>
		<g>
			<path class="st8" d="M114.05,349.84c0.07,0,0.14,0.01,0.22,0.04c0.07,0.03,0.14,0.07,0.21,0.14l1.21,1.27
				c-0.53,0.69-1.19,1.21-1.98,1.56c-0.8,0.35-1.74,0.53-2.82,0.53c-1,0-1.89-0.17-2.68-0.51c-0.79-0.34-1.46-0.81-2.01-1.4
				c-0.55-0.6-0.97-1.3-1.26-2.12c-0.29-0.82-0.44-1.71-0.44-2.67c0-0.98,0.16-1.88,0.48-2.7c0.32-0.82,0.77-1.53,1.34-2.12
				c0.58-0.59,1.27-1.06,2.07-1.39c0.8-0.33,1.69-0.5,2.66-0.5c0.49,0,0.96,0.04,1.39,0.13c0.43,0.09,0.84,0.21,1.22,0.36
				s0.73,0.34,1.04,0.55c0.32,0.22,0.6,0.45,0.85,0.7l-1.03,1.38c-0.07,0.08-0.14,0.16-0.23,0.23c-0.09,0.07-0.22,0.1-0.38,0.1
				c-0.11,0-0.21-0.02-0.31-0.07c-0.1-0.05-0.2-0.11-0.31-0.18c-0.11-0.07-0.23-0.14-0.36-0.22s-0.28-0.16-0.46-0.22
				c-0.18-0.07-0.38-0.13-0.62-0.18s-0.51-0.07-0.83-0.07c-0.5,0-0.96,0.09-1.38,0.28c-0.42,0.19-0.78,0.46-1.08,0.81
				c-0.3,0.36-0.54,0.79-0.7,1.31c-0.17,0.52-0.25,1.11-0.25,1.78c0,0.67,0.09,1.27,0.27,1.79c0.18,0.52,0.43,0.96,0.75,1.32
				c0.31,0.36,0.68,0.63,1.1,0.81c0.42,0.19,0.87,0.28,1.35,0.28c0.28,0,0.53-0.01,0.76-0.04c0.23-0.03,0.44-0.07,0.64-0.13
				c0.2-0.06,0.38-0.15,0.56-0.25c0.17-0.11,0.35-0.24,0.53-0.4c0.07-0.06,0.15-0.11,0.23-0.15
				C113.87,349.86,113.96,349.84,114.05,349.84z"/>
		</g>
		<g>
			<path class="st8" d="M127.33,342.53h-3.69v10.7h-3.04v-10.7h-3.69v-2.41h10.42V342.53z"/>
		</g>
		<g>
			<path class="st8" d="M140.25,353.23h-2.36c-0.26,0-0.48-0.06-0.64-0.18s-0.29-0.28-0.37-0.47l-0.77-2.29h-4.99l-0.77,2.29
				c-0.07,0.17-0.18,0.32-0.36,0.46c-0.17,0.13-0.38,0.2-0.63,0.2h-2.38l5.08-13.11h3.11L140.25,353.23z M135.42,348.22l-1.21-3.59
				c-0.09-0.23-0.19-0.5-0.29-0.81c-0.1-0.31-0.2-0.64-0.31-1c-0.09,0.37-0.19,0.71-0.29,1.02c-0.1,0.31-0.2,0.58-0.29,0.81
				l-1.21,3.57H135.42z"/>
		</g>
	</g>
</g>
<g>
	<g>
		<path class="st8" d="M268.51,225.38c0.07,0,0.14,0.01,0.22,0.04c0.07,0.03,0.14,0.07,0.21,0.14l1.21,1.27
			c-0.53,0.69-1.19,1.21-1.98,1.56c-0.8,0.35-1.74,0.53-2.82,0.53c-1,0-1.89-0.17-2.68-0.51c-0.79-0.34-1.46-0.81-2.01-1.4
			c-0.55-0.6-0.97-1.3-1.26-2.12c-0.29-0.82-0.44-1.71-0.44-2.67c0-0.98,0.16-1.88,0.48-2.7c0.32-0.82,0.77-1.53,1.34-2.12
			c0.58-0.59,1.27-1.06,2.07-1.39c0.8-0.33,1.69-0.5,2.66-0.5c0.49,0,0.96,0.04,1.39,0.13c0.43,0.09,0.84,0.21,1.22,0.36
			s0.73,0.34,1.04,0.55c0.32,0.22,0.6,0.45,0.85,0.7l-1.03,1.38c-0.07,0.08-0.14,0.16-0.23,0.23c-0.09,0.07-0.22,0.1-0.38,0.1
			c-0.11,0-0.21-0.02-0.31-0.07c-0.1-0.05-0.2-0.11-0.31-0.18c-0.11-0.07-0.23-0.14-0.36-0.22s-0.28-0.16-0.46-0.22
			c-0.18-0.07-0.38-0.13-0.62-0.18s-0.51-0.07-0.83-0.07c-0.5,0-0.96,0.09-1.38,0.28c-0.42,0.19-0.78,0.46-1.08,0.81
			c-0.3,0.36-0.54,0.79-0.7,1.31c-0.17,0.52-0.25,1.11-0.25,1.78c0,0.67,0.09,1.27,0.27,1.79c0.18,0.52,0.43,0.96,0.75,1.32
			c0.31,0.36,0.68,0.63,1.1,0.81c0.42,0.19,0.87,0.28,1.35,0.28c0.28,0,0.53-0.01,0.76-0.04c0.23-0.03,0.44-0.07,0.64-0.13
			c0.2-0.06,0.38-0.15,0.56-0.25c0.17-0.11,0.35-0.24,0.53-0.4c0.07-0.06,0.15-0.11,0.23-0.15
			C268.33,225.4,268.42,225.38,268.51,225.38z"/>
	</g>
	<g>
		<path class="st8" d="M281.79,218.07h-3.69v10.7h-3.04v-10.7h-3.69v-2.41h10.42V218.07z"/>
	</g>
	<g>
		<path class="st8" d="M294.71,228.77h-2.36c-0.26,0-0.48-0.06-0.64-0.18s-0.29-0.28-0.37-0.47l-0.77-2.29h-4.99l-0.77,2.29
			c-0.07,0.17-0.18,0.32-0.36,0.46c-0.17,0.13-0.38,0.2-0.63,0.2h-2.38l5.08-13.11h3.11L294.71,228.77z M289.88,223.76l-1.21-3.59
			c-0.09-0.23-0.19-0.5-0.29-0.81c-0.1-0.31-0.2-0.64-0.31-1c-0.09,0.37-0.19,0.71-0.29,1.02c-0.1,0.31-0.2,0.58-0.29,0.81
			l-1.21,3.57H289.88z"/>
	</g>
</g>
<g>
	<g>
		<path class="st10" d="M384,147c-1.66,0-3-1.34-3-3v-20c0-1.66,1.34-3,3-3s3,1.34,3,3v20C387,145.66,385.66,147,384,147z"/>
	</g>
	<g>
		<path class="st10" d="M394,137h-20c-1.66,0-3-1.34-3-3s1.34-3,3-3h20c1.66,0,3,1.34,3,3S395.66,137,394,137z"/>
	</g>
</g>
<g>
	<circle class="st10" cx="350" cy="285" r="3"/>
</g>
<g>
	<circle class="st10" cx="284" cy="296" r="5"/>
</g>
</svg>
