<?xml version="1.0" encoding="utf-8"?>
<!-- Generator: Adobe Illustrator 25.4.1, SVG Export Plug-In . SVG Version: 6.00 Build 0)  -->
<svg version="1.1" id="seo-vs-sem" xmlns="http://www.w3.org/2000/svg" xmlns:xlink="http://www.w3.org/1999/xlink" x="0px" y="0px"
	 viewBox="0 0 400 400" style="enable-background:new 0 0 400 400;" xml:space="preserve">
<style type="text/css">
	.st0{fill:#FFFFFF;}
	.st1{fill:#515979;}
	.st2{fill:#00C853;}
	.st3{fill:#2196F3;}
	.st4{fill:#FDE1D9;}
	.st5{fill:#EF7D7D;}
	.st6{fill:#7DDF96;}
	.st7{fill:#FBB040;}
	.st8{fill:#F8D886;}
	.st9{fill:#BCDFFB;}
	.st10{fill:#667683;}
	.st11{fill:#FFE8A0;}
	.st12{fill:#1E78D2;}
	.st13{fill:#515A78;}
	.st14{fill:#3CB48C;}
	.st15{fill:#B29D90;}
	.st16{fill:#C1B1A6;}
	.st17{fill:#F89D81;}
	.st18{fill:#FABBA7;}
</style>
<g>
	<path class="st0" d="M234,234c-3.31,0-6-2.69-6-6V114c0-3.31,2.69-6,6-6h106c3.31,0,6,2.69,6,6v114c0,3.31-2.69,6-6,6H234z"/>
	<path class="st1" d="M340,111c1.66,0,3,1.34,3,3v114c0,1.66-1.34,3-3,3H234c-1.66,0-3-1.34-3-3V114c0-1.66,1.34-3,3-3H340 M340,105
		H234c-4.96,0-9,4.04-9,9v114c0,4.96,4.04,9,9,9h106c4.96,0,9-4.04,9-9V114C349,109.04,344.96,105,340,105L340,105z"/>
	<path class="st2" d="M309.5,179h-65c-1.38,0-2.5-1.12-2.5-2.5l0,0c0-1.38,1.12-2.5,2.5-2.5h65c1.38,0,2.5,1.12,2.5,2.5l0,0
		C312,177.88,310.88,179,309.5,179z"/>
	<path class="st1" d="M309.5,199h-65c-1.38,0-2.5-1.12-2.5-2.5l0,0c0-1.38,1.12-2.5,2.5-2.5h65c1.38,0,2.5,1.12,2.5,2.5l0,0
		C312,197.88,310.88,199,309.5,199z"/>
	<path class="st1" d="M309.5,209h-65c-1.38,0-2.5-1.12-2.5-2.5l0,0c0-1.38,1.12-2.5,2.5-2.5h65c1.38,0,2.5,1.12,2.5,2.5l0,0
		C312,207.88,310.88,209,309.5,209z"/>
	<path class="st1" d="M289.5,219h-45c-1.38,0-2.5-1.12-2.5-2.5l0,0c0-1.38,1.12-2.5,2.5-2.5h45c1.38,0,2.5,1.12,2.5,2.5l0,0
		C292,217.88,290.88,219,289.5,219z"/>
	<path class="st3" d="M293.5,189h-49c-1.38,0-2.5-1.12-2.5-2.5l0,0c0-1.38,1.12-2.5,2.5-2.5h49c1.38,0,2.5,1.12,2.5,2.5l0,0
		C296,187.88,294.88,189,293.5,189z"/>
	<circle class="st4" cx="313" cy="153" r="2"/>
	<circle class="st4" cx="321" cy="153" r="2"/>
	<circle class="st4" cx="317" cy="145" r="2"/>
	<circle class="st4" cx="253" cy="153" r="2"/>
	<circle class="st4" cx="261" cy="153" r="2"/>
	<circle class="st4" cx="257" cy="145" r="2"/>
	<path class="st1" d="M295.03,144.96c-0.62,0-1.2-0.39-1.42-1.01c-0.27-0.78,0.15-1.64,0.93-1.91c2.24-0.77,5.74-0.77,7.98,0
		c0.78,0.27,1.2,1.12,0.93,1.91c-0.27,0.78-1.12,1.2-1.91,0.93c-1.6-0.55-4.42-0.55-6.02,0
		C295.35,144.94,295.19,144.96,295.03,144.96z"/>
	<circle class="st1" cx="298.53" cy="136.77" r="6"/>
	<circle class="st0" cx="300.03" cy="136.77" r="1.5"/>
	<path class="st1" d="M295.09,122.83c0.97-0.61,1.86-0.91,2.88-1.12c0.99-0.21,2.03-0.24,3.08-0.12c1.04,0.11,2.1,0.44,3.07,0.95
		c0.97,0.5,1.83,1.28,2.42,2.19c0.52,0.8,0.29,1.86-0.51,2.38c-0.38,0.24-0.81,0.32-1.22,0.25l-0.4-0.07
		c-0.78-0.13-1.39-0.32-2.04-0.43c-0.65-0.1-1.27-0.25-1.96-0.33l-2.11-0.25c-0.72-0.08-1.55-0.12-2.25-0.28l-0.42-0.09
		c-0.92-0.2-1.5-1.11-1.29-2.02C294.44,123.44,294.72,123.06,295.09,122.83z"/>
	<path class="st1" d="M278.97,144.96c-0.16,0-0.33-0.03-0.49-0.08c-1.6-0.55-4.42-0.55-6.02,0c-0.79,0.27-1.64-0.15-1.91-0.93
		c-0.27-0.78,0.15-1.64,0.93-1.91c2.24-0.77,5.74-0.77,7.98,0c0.78,0.27,1.2,1.12,0.93,1.91
		C280.18,144.57,279.6,144.96,278.97,144.96z"/>
	<circle class="st1" cx="275.47" cy="136.77" r="6"/>
	<circle class="st0" cx="276.97" cy="136.77" r="1.5"/>
	<path class="st1" d="M277.94,126.02c-0.7,0.15-1.53,0.2-2.25,0.28l-2.11,0.25c-0.68,0.08-1.3,0.22-1.96,0.33
		c-0.65,0.11-1.26,0.3-2.04,0.43l-0.39,0.07c-0.94,0.16-1.83-0.47-1.98-1.41c-0.07-0.44,0.03-0.87,0.25-1.22
		c0.59-0.92,1.45-1.69,2.42-2.19c0.96-0.52,2.02-0.84,3.07-0.95c1.05-0.12,2.08-0.08,3.08,0.12c1.01,0.21,1.9,0.51,2.88,1.12
		c0.79,0.5,1.03,1.55,0.54,2.34c-0.25,0.4-0.64,0.66-1.07,0.76L277.94,126.02z"/>
	<path class="st1" d="M299,148.18h-24c-1.06,0-2.08,0.42-2.83,1.17c-0.75,0.75-1.17,1.77-1.17,2.83c0,8.82,7.18,16,16,16
		c8.82,0,16-7.18,16-16C303,149.97,301.21,148.18,299,148.18z"/>
	<ellipse class="st5" cx="287" cy="160.18" rx="8.93" ry="4"/>
</g>
<g>
	<path class="st6" d="M281,222c-1.66,0-3-1.34-3-3v-32c0-1.66,1.34-3,3-3h68c1.66,0,3,1.34,3,3v32c0,1.66-1.34,3-3,3H281z"/>
	<path class="st1" d="M281,187l68,0v32l-68,0V187 M281,181c-1.59,0-3.12,0.63-4.24,1.76c-1.13,1.13-1.76,2.65-1.76,4.24v32
		c0,3.31,2.69,6,6,6l68,0c1.59,0,3.12-0.63,4.24-1.76c1.13-1.13,1.76-2.65,1.76-4.24v-32c0-3.31-2.69-6-6-6L281,181L281,181z"/>
	<g>
		<path class="st2" d="M302,203c0-5.36,2.15-10.1,5.44-13H290v0c0,3.31-2.69,6-6,6h0v14h0c3.31,0,6,2.69,6,6h17.44
			C304.15,213.1,302,208.36,302,203z M293,207.5c-2.21,0-4-2.01-4-4.5c0-2.49,1.79-4.5,4-4.5c2.21,0,4,2.01,4,4.5
			C297,205.49,295.21,207.5,293,207.5z"/>
		<path class="st2" d="M340,190L340,190l-17.44,0c3.29,2.9,5.44,7.64,5.44,13c0,5.36-2.15,10.1-5.44,13H340c0-3.31,2.69-6,6-6v-14
			C342.69,196,340,193.31,340,190z M337,207.5c-2.21,0-4-2.01-4-4.5c0-2.49,1.79-4.5,4-4.5c2.21,0,4,2.01,4,4.5
			C341,205.49,339.21,207.5,337,207.5z"/>
	</g>
	<path class="st2" d="M317.27,205.65c0-0.81-0.79-1.07-2.39-1.24c-2.78-0.32-5.01-0.87-5.17-4.21c0-2.13,1.36-3.59,3.87-3.99v-1.56
		h3.04v1.56c1.64,0.28,2.8,1.16,3.49,2.63c0.04,0.06,0.06,0.1,0.08,0.16l0.2,0.45l-2.96,1.34l-0.3-0.59
		c-0.41-0.79-0.93-1.18-2.05-1.18c-1.44,0-2.05,0.3-2.05,1.18c0,0.75,0.85,1.03,2.41,1.2c2.68,0.28,5.11,0.89,5.11,4.2
		c0,2.17-1.42,3.67-3.93,4.13v1.62h-3.04v-1.58c-1.99-0.3-3.28-1.3-3.91-2.96l-0.22-0.61l3.04-1.07l0.24,0.59
		c0.32,0.83,1.07,1.24,2.23,1.24C316.5,206.95,317.27,206.53,317.27,205.65z"/>
</g>
<g>
	<path class="st6" d="M269,234c-1.66,0-3-1.34-3-3v-32c0-1.66,1.34-3,3-3h68c1.66,0,3,1.34,3,3v32c0,1.66-1.34,3-3,3H269z"/>
	<path class="st1" d="M269,199l68,0v32l-68,0V199 M269,193c-1.59,0-3.12,0.63-4.24,1.76c-1.13,1.13-1.76,2.65-1.76,4.24v32
		c0,3.31,2.69,6,6,6l68,0c1.59,0,3.12-0.63,4.24-1.76c1.13-1.13,1.76-2.65,1.76-4.24v-32c0-3.31-2.69-6-6-6L269,193L269,193z"/>
	<path class="st2" d="M290,215c0-5.36,2.15-10.1,5.44-13H278v0c0,3.31-2.69,6-6,6h0v14h0c3.31,0,6,2.69,6,6h17.44
		C292.15,225.1,290,220.36,290,215z M281,219.5c-2.21,0-4-2.01-4-4.5c0-2.49,1.79-4.5,4-4.5c2.21,0,4,2.01,4,4.5
		C285,217.49,283.21,219.5,281,219.5z"/>
	<path class="st2" d="M328,202L328,202l-17.44,0c3.29,2.9,5.44,7.64,5.44,13c0,5.36-2.15,10.1-5.44,13H328c0-3.31,2.69-6,6-6v-14
		C330.69,208,328,205.31,328,202z M325,219.5c-2.21,0-4-2.01-4-4.5c0-2.49,1.79-4.5,4-4.5c2.21,0,4,2.01,4,4.5
		C329,217.49,327.21,219.5,325,219.5z"/>
	<path class="st2" d="M305.27,217.65c0-0.81-0.79-1.07-2.39-1.24c-2.78-0.32-5.01-0.87-5.17-4.21c0-2.13,1.36-3.59,3.87-3.99v-1.56
		h3.04v1.56c1.64,0.28,2.8,1.16,3.49,2.63c0.04,0.06,0.06,0.1,0.08,0.16l0.2,0.45l-2.96,1.34l-0.3-0.59
		c-0.41-0.79-0.93-1.18-2.05-1.18c-1.44,0-2.05,0.3-2.05,1.18c0,0.75,0.85,1.03,2.41,1.2c2.68,0.28,5.11,0.89,5.11,4.2
		c0,2.17-1.42,3.67-3.93,4.13v1.62h-3.04v-1.58c-1.99-0.3-3.28-1.3-3.91-2.96l-0.22-0.61l3.04-1.07l0.24,0.59
		c0.32,0.83,1.07,1.24,2.23,1.24C304.5,218.95,305.27,218.53,305.27,217.65z"/>
</g>
<line class="st7" x1="340" y1="225" x2="340" y2="231"/>
<line class="st7" x1="352" y1="225" x2="352" y2="231"/>
<g>
	<path class="st8" d="M331,234c-1.66,0-3-1.34-3-3v-6c0-1.66,1.34-3,3-3h30c1.66,0,3,1.34,3,3v6c0,1.66-1.34,3-3,3H331z"/>
	<path class="st1" d="M361,219h-30c-3.31,0-6,2.69-6,6v6c0,3.31,2.69,6,6,6h30c3.31,0,6-2.69,6-6v-6C367,221.69,364.31,219,361,219z
		 M331,231v-6h6v6H331z M343,231v-6h6v6H343z M361,231h-6v-6h6V231z"/>
</g>
<line class="st7" x1="346" y1="213" x2="346" y2="219"/>
<line class="st7" x1="358" y1="213" x2="358" y2="219"/>
<g>
	<path class="st8" d="M337,222c-1.66,0-3-1.34-3-3v-6c0-1.66,1.34-3,3-3h30c1.66,0,3,1.34,3,3v6c0,1.66-1.34,3-3,3H337z"/>
	<path class="st1" d="M367,207h-30c-3.31,0-6,2.69-6,6v6c0,3.31,2.69,6,6,6h30c3.31,0,6-2.69,6-6v-6C373,209.69,370.31,207,367,207z
		 M337,219v-6h6v6H337z M349,219v-6h6v6H349z M367,219h-6v-6h6V219z"/>
</g>
<g>
	<path class="st3" d="M47,234c-7.17,0-13-5.83-13-13V71c0-7.17,5.83-13,13-13h111c7.17,0,13,5.83,13,13v150c0,7.17-5.83,13-13,13H47
		z"/>
	<path class="st1" d="M158,61c5.52,0,10,4.48,10,10v150c0,5.52-4.48,10-10,10H47c-5.52,0-10-4.48-10-10V71c0-5.52,4.48-10,10-10H158
		 M158,55H47c-8.82,0-16,7.18-16,16v150c0,8.82,7.18,16,16,16h111c8.82,0,16-7.18,16-16V71C174,62.18,166.82,55,158,55L158,55z"/>
	<rect x="37" y="144" class="st9" width="131" height="52"/>
	<path class="st10" d="M37,90c-1.66,0-3-1.34-3-3V71c0-7.17,5.83-13,13-13h111c7.17,0,13,5.83,13,13v16c0,1.66-1.34,3-3,3H37z"/>
	<path class="st1" d="M158,61c5.52,0,10,4.48,10,10v16H37V71c0-5.52,4.48-10,10-10H158 M158,55H47c-8.82,0-16,7.18-16,16v16
		c0,3.31,2.69,6,6,6h131c3.31,0,6-2.69,6-6V71C174,62.18,166.82,55,158,55L158,55z"/>
	<path class="st0" d="M112,80c-3.31,0-6-2.69-6-6s2.69-6,6-6h44c3.31,0,6,2.69,6,6s-2.69,6-6,6H112z"/>
	<path class="st1" d="M156,71c1.66,0,3,1.34,3,3s-1.34,3-3,3h-44c-1.66,0-3-1.34-3-3s1.34-3,3-3H156 M156,65h-44c-4.96,0-9,4.04-9,9
		s4.04,9,9,9h44c4.96,0,9-4.04,9-9S160.96,65,156,65L156,65z"/>
	<circle class="st5" cx="49" cy="74" r="6"/>
	<path class="st1" d="M49,71c1.66,0,3,1.34,3,3s-1.34,3-3,3s-3-1.34-3-3S47.34,71,49,71 M49,65c-4.96,0-9,4.04-9,9s4.04,9,9,9
		s9-4.04,9-9S53.96,65,49,65L49,65z"/>
	<circle class="st11" cx="70" cy="74" r="6"/>
	<path class="st1" d="M70,71c1.66,0,3,1.34,3,3s-1.34,3-3,3s-3-1.34-3-3S68.34,71,70,71 M70,65c-4.96,0-9,4.04-9,9s4.04,9,9,9
		s9-4.04,9-9S74.96,65,70,65L70,65z"/>
	<circle class="st6" cx="91" cy="74" r="6"/>
	<path class="st1" d="M91,71c1.66,0,3,1.34,3,3s-1.34,3-3,3s-3-1.34-3-3S89.34,71,91,71 M91,65c-4.96,0-9,4.04-9,9s4.04,9,9,9
		s9-4.04,9-9S95.96,65,91,65L91,65z"/>
	<circle class="st12" cx="132.5" cy="118" r="2"/>
	<circle class="st12" cx="128.5" cy="126" r="2"/>
	<circle class="st12" cx="136.5" cy="126" r="2"/>
	<circle class="st12" cx="72.5" cy="118" r="2"/>
	<circle class="st12" cx="68.5" cy="126" r="2"/>
	<circle class="st12" cx="76.5" cy="126" r="2"/>
	<circle class="st9" cx="54.5" cy="213.5" r="11.5"/>
	<circle class="st9" cx="86.5" cy="213.5" r="11.5"/>
	<circle class="st9" cx="150.5" cy="213.5" r="11.5"/>
	<circle class="st9" cx="118.5" cy="213.5" r="11.5"/>
	<path class="st0" d="M158,190h-49c-2.21,0-4-1.79-4-4v-32c0-2.21,1.79-4,4-4h49c2.21,0,4,1.79,4,4v32
		C162,188.21,160.21,190,158,190z"/>
	<path class="st3" d="M148,184h-35c-1.1,0-2-0.9-2-2l0,0c0-1.1,0.9-2,2-2h35c1.1,0,2,0.9,2,2l0,0C150,183.1,149.1,184,148,184z"/>
	<path class="st3" d="M154,176h-41c-1.1,0-2-0.9-2-2l0,0c0-1.1,0.9-2,2-2h41c1.1,0,2,0.9,2,2l0,0C156,175.1,155.1,176,154,176z"/>
	<circle class="st9" cx="117" cy="162" r="6"/>
	<path class="st0" d="M96,190H47c-2.21,0-4-1.79-4-4v-32c0-2.21,1.79-4,4-4h49c2.21,0,4,1.79,4,4v32C100,188.21,98.21,190,96,190z"
		/>
	<path class="st3" d="M86,184H51c-1.1,0-2-0.9-2-2l0,0c0-1.1,0.9-2,2-2h35c1.1,0,2,0.9,2,2l0,0C88,183.1,87.1,184,86,184z"/>
	<path class="st3" d="M92,176H51c-1.1,0-2-0.9-2-2l0,0c0-1.1,0.9-2,2-2h41c1.1,0,2,0.9,2,2l0,0C94,175.1,93.1,176,92,176z"/>
	<circle class="st9" cx="55" cy="162" r="6"/>
	<path class="st1" d="M114.51,118H90.5c-2.21,0-4,1.79-4,4c0,8.82,7.18,16,16,16c8.77,0,15.91-7.09,16-15.84c0-0.05,0-0.11,0-0.16
		C118.5,119.79,116.71,118,114.51,118z"/>
	<ellipse class="st5" cx="102.5" cy="130" rx="8.93" ry="4"/>
	<path class="st1" d="M116.5,115.04c-1.1,0-2-0.9-2-2c0-1.1-0.9-2-2-2s-2,0.9-2,2c0,1.1-0.9,2-2,2s-2-0.9-2-2c0-3.31,2.69-6,6-6
		s6,2.69,6,6C118.5,114.15,117.6,115.04,116.5,115.04z"/>
	<path class="st1" d="M96.5,115.04c-1.1,0-2-0.9-2-2c0-1.1-0.9-2-2-2s-2,0.9-2,2c0,1.1-0.9,2-2,2s-2-0.9-2-2c0-3.31,2.69-6,6-6
		s6,2.69,6,6C98.5,114.15,97.6,115.04,96.5,115.04z"/>
	<path class="st1" d="M109.03,99.89c0.98-0.6,1.87-0.9,2.89-1.1c0.99-0.2,2.03-0.24,3.08-0.13c1.04,0.1,2.1,0.42,3.07,0.92
		c0.98,0.49,1.85,1.25,2.47,2.16c0.53,0.79,0.33,1.86-0.46,2.39c-0.37,0.25-0.81,0.34-1.23,0.28l-0.39-0.06
		c-0.79-0.12-1.41-0.3-2.07-0.41c-0.66-0.1-1.3-0.24-2-0.32l-2.15-0.24c-0.73-0.08-1.57-0.13-2.28-0.28l-0.41-0.09
		c-0.92-0.2-1.5-1.11-1.3-2.03C108.37,100.51,108.66,100.13,109.03,99.89z"/>
	<path class="st1" d="M95.03,103.09c-0.71,0.16-1.55,0.21-2.28,0.28l-2.15,0.24c-0.69,0.08-1.33,0.22-2,0.32
		c-0.67,0.11-1.28,0.29-2.07,0.41l-0.39,0.06c-0.94,0.15-1.82-0.5-1.97-1.44c-0.07-0.45,0.04-0.88,0.27-1.23
		c0.62-0.91,1.49-1.67,2.47-2.16c0.97-0.5,2.03-0.82,3.07-0.92c1.04-0.11,2.08-0.08,3.08,0.13c1.01,0.2,1.91,0.5,2.89,1.1
		c0.8,0.49,1.05,1.54,0.56,2.34c-0.25,0.41-0.65,0.67-1.08,0.77L95.03,103.09z"/>
	<line class="st2" x1="182.03" y1="164.28" x2="163.65" y2="179.71"/>
	<line class="st2" x1="167.45" y1="168.69" x2="166.71" y2="177.14"/>
	<line class="st2" x1="175.16" y1="177.88" x2="166.71" y2="177.14"/>
	<line class="st2" x1="173.58" y1="163.54" x2="172.84" y2="172"/>
	<line class="st2" x1="181.29" y1="172.74" x2="172.84" y2="172"/>
</g>
<g>
	<path class="st6" d="M151.2,210l-0.11-1.89c-0.04-0.76-0.92-18.84,10.53-28.81l2.81,2.84c-0.06,0.07-6.56,7.76-5.34,25.73
		l0.15,2.14H151.2z"/>
	<path class="st13" d="M162.94,180.8c0,0-7.15,8-5.84,27.19h-4C153.09,208,152.09,190.25,162.94,180.8 M160.31,177.79
		c-12.18,10.61-11.26,29.63-11.21,30.44l0.21,3.78h3.78h4h4.28l-0.29-4.27c-1.15-16.96,4.81-24.23,4.87-24.3l-0.04,0.04
		L160.31,177.79L160.31,177.79z"/>
	<path class="st14" d="M172.13,183.78c-5.03,0-9.24-2.21-9.42-2.3l-0.71-0.38l-0.25-0.77c-0.12-0.37-2.9-9.18,1.87-15.74
		c3.17-4.37,8.79-6.58,16.7-6.58c2.02,0,4.23,0.15,6.56,0.44l1.84,0.23l-0.09,1.85C188.19,169.21,185.46,183.78,172.13,183.78
		C172.12,183.78,172.13,183.78,172.13,183.78z"/>
	<path class="st13" d="M187.12,156.46c-2.41-0.3-4.71-0.45-6.81-0.45c-8.58,0-14.74,2.49-18.31,7.4
		c-5.36,7.38-2.29,17.13-2.16,17.54l0.5,1.54l1.43,0.76c0.49,0.26,4.93,2.53,10.35,2.53c6.44,0,17.4-3.27,18.5-25.15l0.19-3.71
		L187.12,156.46z M172.13,181.78c-2.83,0-5.4-0.79-6.95-1.39l2.02-1.7l7.83,0.69c0.04,0,0.09,0.01,0.13,0.01
		c0.77,0,1.42-0.59,1.49-1.37c0.07-0.83-0.54-1.55-1.36-1.62l-4.85-0.42l2.88-2.42l7.83,0.69c0.04,0,0.09,0.01,0.13,0.01
		c0.77,0,1.42-0.59,1.49-1.37c0.07-0.83-0.54-1.55-1.36-1.62l-4.85-0.42l6.42-5.39c0.63-0.53,0.72-1.48,0.18-2.11
		c-0.53-0.63-1.48-0.72-2.11-0.18l-6.42,5.39l0.42-4.85c0.07-0.83-0.54-1.55-1.36-1.62c-0.82-0.07-1.55,0.54-1.62,1.36l-0.69,7.83
		l-2.88,2.42l0.42-4.85c0.07-0.83-0.54-1.55-1.36-1.62c-0.82-0.07-1.55,0.54-1.62,1.36l-0.69,7.83l-2.02,1.7
		c-0.94-4.71-1.94-18.08,17.06-18.08c1.9,0,4,0.13,6.32,0.42C185.74,178.03,178.3,181.78,172.13,181.78z"/>
	<path class="st15" d="M120.15,234l2.37-4.42c0.47-0.88,11.8-21.58,32.64-21.58c20.85,0,32.17,20.7,32.64,21.58l2.37,4.42H120.15z"
		/>
	<path class="st1" d="M155.16,211c19.29,0,30,20,30,20h-60C125.16,231,135.87,211,155.16,211 M155.16,205
		c-22.62,0-34.78,22.22-35.29,23.17l-4.73,8.83h10.02h60h10.02l-4.73-8.83C189.95,227.22,177.79,205,155.16,205L155.16,205z"/>
	<path class="st16" d="M155.16,217c13.98,0,24.09,7.72,29.75,13.56c-1.69-2.9-12.14-19.56-29.75-19.56s-28.07,16.66-29.75,19.56
		C131.07,224.72,141.18,217,155.16,217z"/>
</g>
<g>
	<path class="st17" d="M30,258c-1.66,0-3-1.34-3-3v-18c0-1.66,1.34-3,3-3h340c1.66,0,3,1.34,3,3v18c0,1.66-1.34,3-3,3H30z"/>
	<path class="st1" d="M370,237v18H30v-18H370 M370,231H30c-3.31,0-6,2.69-6,6v18c0,3.31,2.69,6,6,6h340c3.31,0,6-2.69,6-6v-18
		C376,233.69,373.31,231,370,231L370,231z"/>
	<rect x="30" y="237" class="st18" width="340" height="6"/>
	<path class="st17" d="M151,344c-1.09,0-2.1-0.59-2.62-1.55s-0.5-2.12,0.08-3.04l50-80c0.55-0.88,1.51-1.41,2.54-1.41
		s2,0.53,2.54,1.41l50,80c0.58,0.92,0.61,2.09,0.08,3.04S252.09,344,251,344H151z"/>
	<path class="st1" d="M201,261l50,80H151L201,261 M201,255c-2.07,0-3.99,1.07-5.09,2.82l-50,80c-1.16,1.85-1.22,4.18-0.16,6.09
		c1.06,1.91,3.07,3.09,5.25,3.09h100c2.18,0,4.19-1.18,5.25-3.09c1.06-1.91,1-4.24-0.16-6.09l-50-80
		C204.99,256.07,203.07,255,201,255L201,255z"/>
	<polygon class="st5" points="201,261 189.75,279 212.25,279 	"/>
</g>
</svg>
