<?xml version="1.0" encoding="utf-8"?>
<!-- Generator: Adobe Illustrator 25.3.1, SVG Export Plug-In . SVG Version: 6.00 Build 0)  -->
<svg version="1.1" id="email-marketing-best-practices"
	 xmlns="http://www.w3.org/2000/svg" xmlns:xlink="http://www.w3.org/1999/xlink" x="0px" y="0px" viewBox="0 0 400 400"
	 style="enable-background:new 0 0 400 400;" xml:space="preserve">
<style type="text/css">
	.st0{fill:#FFD886;}
	.st1{fill:#515979;}
	.st2{fill:#FBB040;}
	.st3{fill:#9E8271;}
	.st4{fill:#FFE8B6;}
	.st5{fill:#EF7D7D;}
	.st6{fill:#D8EBFB;}
	.st7{fill:#ACC9DB;}
	.st8{fill:#6ADAF7;}
	.st9{opacity:0.5;}
	.st10{fill:#FFFFFF;}
	.st11{fill:#C7BCFF;}
	.st12{fill:#DDD7FF;}
	.st13{fill:#CEEDD9;}
	.st14{fill:#EBF8F0;}
	.st15{fill:#F89D81;}
	.st16{fill:#FBC4B3;}
</style>
<g>
	<g>
		<g>
			<g>
				<path class="st0" d="M236,218c-1.66,0-3-1.34-3-3v-28c0-1.66,1.34-3,3-3h10c1.66,0,3,1.34,3,3v28c0,1.66-1.34,3-3,3H236z"/>
			</g>
			<g>
				<g>
					<path class="st1" d="M246,187v28h-10v-28H246 M246,181h-10c-3.31,0-6,2.69-6,6v28c0,3.31,2.69,6,6,6h10c3.31,0,6-2.69,6-6v-28
						C252,183.69,249.31,181,246,181L246,181z"/>
				</g>
			</g>
		</g>
		<g>
			<rect x="236" y="183" class="st2" width="10" height="10"/>
		</g>
		<g>
			<g>
				<path class="st3" d="M206,254c-1.66,0-3-1.34-3-3v-40c0-1.66,1.34-3,3-3h70c1.66,0,3,1.34,3,3v40c0,1.66-1.34,3-3,3H206z"/>
			</g>
			<g>
				<g>
					<path class="st1" d="M276,211v40h-70v-40H276 M276,205h-70c-3.31,0-6,2.69-6,6v40c0,3.31,2.69,6,6,6h70c3.31,0,6-2.69,6-6v-40
						C282,207.69,279.31,205,276,205L276,205z"/>
				</g>
			</g>
		</g>
		<g>
			<g>
				<path class="st0" d="M215,244c-1.1,0-2-0.9-2-2v-22c0-1.1,0.9-2,2-2h52c1.1,0,2,0.9,2,2v22c0,1.1-0.9,2-2,2H215z"/>
			</g>
			<g>
				<g>
					<path class="st1" d="M267,220v22h-52v-22H267 M267,216h-52c-2.21,0-4,1.79-4,4v22c0,2.21,1.79,4,4,4h52c2.21,0,4-1.79,4-4v-22
						C271,217.79,269.21,216,267,216L267,216z"/>
				</g>
			</g>
		</g>
		<g>
			<g>
				<path class="st0" d="M181,155c-12.68,0-23-10.32-23-23v-25c0-1.66,1.34-3,3-3h30c1.66,0,3,1.34,3,3v6c0,1.66-1.34,3-3,3h-21v15
					c0,6.62,5.38,12,12,12h9c1.66,0,3,1.34,3,3v6c0,1.66-1.34,3-3,3H181z"/>
			</g>
			<g>
				<path class="st1" d="M191,107v6h-24v18c0,8.28,6.72,15,15,15h9v6h-10c-11.05,0-20-8.95-20-20v-25H191 M191,101h-30
					c-3.31,0-6,2.69-6,6v25c0,14.34,11.66,26,26,26h10c3.31,0,6-2.69,6-6v-6c0-3.31-2.69-6-6-6h-9c-4.96,0-9-4.04-9-9v-12h18
					c3.31,0,6-2.69,6-6v-6C197,103.69,194.31,101,191,101L191,101z"/>
			</g>
		</g>
		<g>
			<g>
				<path class="st0" d="M291,155c-1.66,0-3-1.34-3-3v-6c0-1.66,1.34-3,3-3h9c6.62,0,12-5.38,12-12v-15h-21c-1.66,0-3-1.34-3-3v-6
					c0-1.66,1.34-3,3-3h30c1.66,0,3,1.34,3,3v25c0,12.68-10.32,23-23,23H291z"/>
			</g>
			<g>
				<path class="st1" d="M321,107v25c0,11.05-8.95,20-20,20h-10v-6h9c8.28,0,15-6.72,15-15v-18h-24v-6H321 M321,101h-30
					c-3.31,0-6,2.69-6,6v6c0,3.31,2.69,6,6,6h18v12c0,4.96-4.04,9-9,9h-9c-3.31,0-6,2.69-6,6v6c0,3.31,2.69,6,6,6h10
					c14.34,0,26-11.66,26-26v-25C327,103.69,324.31,101,321,101L321,101z"/>
			</g>
		</g>
		<g>
			<path class="st2" d="M300,146h-9v6h9.06c0.75-1.98,1.37-4.03,1.84-6.13C301.28,145.95,300.65,146,300,146z"/>
		</g>
		<g>
			<rect x="291" y="107" class="st2" width="12" height="6"/>
		</g>
		<g>
			<path class="st2" d="M191,146h-9c-0.65,0-1.28-0.05-1.9-0.13c0.47,2.1,1.09,4.15,1.84,6.13H191V146z"/>
		</g>
		<g>
			<rect x="179" y="107" class="st2" width="12" height="6"/>
		</g>
		<g>
			<g>
				<path class="st0" d="M241,184c-29.22,0-53-23.78-53-53V91c0-1.66,1.34-3,3-3h100c1.66,0,3,1.34,3,3v40
					C294,160.22,270.22,184,241,184z"/>
			</g>
			<g>
				<path class="st1" d="M291,91v40c0,27.61-22.39,50-50,50h0c-27.61,0-50-22.39-50-50V91H291 M291,85H191c-3.31,0-6,2.69-6,6v40
					c0,30.88,25.12,56,56,56c30.88,0,56-25.12,56-56V91C297,87.69,294.31,85,291,85L291,85z"/>
			</g>
		</g>
		<g>
			<g>
				<path class="st1" d="M237.64,227.72h-1.16v-3.34h-1.05v-0.95h3.25v0.95h-1.04V227.72z"/>
			</g>
			<g>
				<path class="st1" d="M242.96,227.72h-1.16v-1.75h-1.34v1.75h-1.16v-4.28h1.16v1.59h1.34v-1.59h1.16V227.72z"/>
			</g>
			<g>
				<path class="st1" d="M246.43,227.72h-2.54v-4.28h2.54v0.93h-1.39v0.67h1.28v0.93h-1.28v0.81h1.39V227.72z"/>
			</g>
			<g>
				<path class="st1" d="M227.58,229.15h2.99c1.16,0,2.03,0.17,2.59,0.52s0.85,0.88,0.85,1.61c0,0.48-0.12,0.89-0.37,1.23
					s-0.57,0.56-0.97,0.66v0.06c0.53,0.14,0.92,0.38,1.15,0.7s0.36,0.75,0.36,1.28c0,0.78-0.29,1.39-0.88,1.84s-1.38,0.67-2.39,0.67
					h-3.33V229.15z M229.9,232.44h0.7c0.33,0,0.59-0.07,0.77-0.21s0.27-0.34,0.27-0.61c0-0.48-0.36-0.72-1.09-0.72h-0.65V232.44z
					 M229.9,234.13v1.8h0.81c0.72,0,1.08-0.3,1.08-0.91c0-0.29-0.1-0.5-0.29-0.66s-0.47-0.23-0.84-0.23H229.9z"/>
			</g>
			<g>
				<path class="st1" d="M240.75,237.72h-5.09v-8.57h5.09v1.86h-2.77v1.35h2.57v1.86h-2.57v1.62h2.77V237.72z"/>
			</g>
			<g>
				<path class="st1" d="M247.86,235.12c0,0.53-0.13,1-0.4,1.42s-0.66,0.73-1.17,0.96s-1.1,0.34-1.79,0.34
					c-0.57,0-1.05-0.04-1.44-0.12s-0.79-0.22-1.21-0.42v-2.06c0.44,0.23,0.9,0.4,1.38,0.53s0.91,0.19,1.31,0.19
					c0.34,0,0.6-0.06,0.76-0.18s0.24-0.27,0.24-0.46c0-0.12-0.03-0.22-0.1-0.31s-0.17-0.18-0.31-0.27s-0.52-0.27-1.14-0.55
					c-0.56-0.25-0.98-0.5-1.26-0.74s-0.49-0.51-0.62-0.82s-0.2-0.67-0.2-1.1c0-0.79,0.29-1.4,0.86-1.85s1.36-0.66,2.37-0.66
					c0.89,0,1.79,0.21,2.71,0.62l-0.71,1.79c-0.8-0.37-1.49-0.55-2.07-0.55c-0.3,0-0.52,0.05-0.66,0.16s-0.21,0.24-0.21,0.39
					c0,0.17,0.09,0.32,0.26,0.45s0.65,0.38,1.42,0.73c0.74,0.33,1.25,0.69,1.54,1.07S247.86,234.54,247.86,235.12z"/>
			</g>
			<g>
				<path class="st1" d="M252.96,237.72h-2.31v-6.67h-2.09v-1.89h6.49v1.89h-2.09V237.72z"/>
			</g>
		</g>
		<g>
			<path class="st2" d="M241,176c-27.61,0-50-22.39-50-50v5c0,27.61,22.39,50,50,50s50-22.39,50-50v-5
				C291,153.61,268.61,176,241,176z"/>
		</g>
		<g>
			<rect x="191" y="91" class="st4" width="100" height="4"/>
		</g>
		<g>
			<g>
				<g>
					<path class="st1" d="M250.11,111.46c0.68-0.6,1.26-0.97,1.95-1.35c0.68-0.36,1.39-0.66,2.14-0.88
						c1.49-0.46,3.14-0.63,4.81-0.42c0.84,0.09,1.66,0.34,2.47,0.62c0.4,0.16,0.77,0.38,1.15,0.57c0.39,0.18,0.74,0.42,1.07,0.69
						c1.4,0.97,2.36,2.35,2.98,3.77c0.45,1.03-0.01,2.23-1.04,2.69c-0.59,0.26-1.23,0.22-1.76-0.06l-0.37-0.2
						c-1.05-0.55-1.86-1.12-2.73-1.43c-0.84-0.36-1.66-0.59-2.56-0.71c-0.9-0.13-1.87-0.17-2.91-0.11
						c-0.52,0.04-1.06,0.07-1.61,0.14c-0.53,0.04-1.16,0.16-1.62,0.17l-0.62,0.01c-1.1,0.01-2-0.87-2.01-1.98
						C249.43,112.38,249.7,111.83,250.11,111.46z"/>
				</g>
				<g>
					<path class="st1" d="M229.93,114.95c-0.46,0-1.08-0.13-1.62-0.17c-0.55-0.07-1.09-0.1-1.61-0.14
						c-1.05-0.05-2.02-0.02-2.91,0.11c-0.9,0.12-1.72,0.35-2.56,0.71c-0.87,0.31-1.69,0.88-2.73,1.43l-0.36,0.19
						c-1,0.52-2.23,0.14-2.75-0.86c-0.3-0.57-0.3-1.22-0.06-1.77c0.62-1.41,1.58-2.79,2.98-3.77c0.33-0.27,0.68-0.51,1.07-0.69
						c0.38-0.19,0.76-0.41,1.15-0.57c0.81-0.28,1.63-0.53,2.47-0.62c1.67-0.21,3.32-0.04,4.81,0.42c0.75,0.22,1.46,0.52,2.14,0.88
						c0.69,0.38,1.27,0.75,1.95,1.35c0.83,0.72,0.91,1.98,0.19,2.81c-0.4,0.45-0.95,0.68-1.51,0.68L229.93,114.95z"/>
				</g>
				<g>
					<path class="st1" d="M231.02,133.5c-1.38,0-2.5-1.12-2.5-2.5c0-1.38-1.12-2.5-2.5-2.5s-2.5,1.12-2.5,2.5
						c0,1.38-1.12,2.5-2.5,2.5s-2.5-1.12-2.5-2.5c0-4.14,3.36-7.5,7.5-7.5s7.5,3.36,7.5,7.5C233.52,132.38,232.4,133.5,231.02,133.5
						z"/>
				</g>
				<g>
					<path class="st1" d="M260.98,133.5c-1.38,0-2.5-1.12-2.5-2.5c0-1.38-1.12-2.5-2.5-2.5s-2.5,1.12-2.5,2.5
						c0,1.38-1.12,2.5-2.5,2.5s-2.5-1.12-2.5-2.5c0-4.14,3.36-7.5,7.5-7.5s7.5,3.36,7.5,7.5
						C263.48,132.38,262.36,133.5,260.98,133.5z"/>
				</g>
			</g>
			<g>
				<g>
					<g>
						<path class="st1" d="M241,159c-8.82,0-16-7.18-16-16c0-1.1,0.9-2,2-2h28c1.1,0,2,0.9,2,2C257,151.82,249.82,159,241,159z"/>
					</g>
					<g>
						<path class="st1" d="M255,143L255,143 M255,143c0,7.73-6.27,14-14,14c-7.73,0-14-6.27-14-14H255 M255.01,139L255.01,139h-28
							c-2.21,0-4,1.79-4,4c0,9.93,8.07,18,18,18c9.87,0,17.91-7.99,18-17.84c0-0.05,0-0.11,0-0.16C259,140.79,257.21,139,255.01,139
							L255.01,139z M255,147L255,147L255,147L255,147z"/>
					</g>
				</g>
				<g>
					<g>
						<ellipse class="st5" cx="241" cy="152.33" rx="10.41" ry="4.67"/>
					</g>
				</g>
			</g>
		</g>
	</g>
	<g>
		<g>
			<g>
				<g>
					<path class="st6" d="M71,296c-4.96,0-9-4.04-9-9v-88c0-4.96,4.04-9,9-9h138c4.96,0,9,4.04,9,9v88c0,4.96-4.04,9-9,9H71z"/>
				</g>
				<g>
					<g>
						<path class="st1" d="M209,193c3.31,0,6,2.69,6,6v88c0,3.31-2.69,6-6,6H71c-3.31,0-6-2.69-6-6v-88c0-3.31,2.69-6,6-6H209
							 M209,187H71c-6.62,0-12,5.38-12,12v88c0,6.62,5.38,12,12,12h138c6.62,0,12-5.38,12-12v-88C221,192.38,215.62,187,209,187
							L209,187z"/>
					</g>
				</g>
			</g>
			<g>
				<g>
					<path class="st7" d="M133.67,265.48L65,193l0,16.28l60.29,64.31c3.95,4.21,10.64,4.21,14.59,0l5.7-6.08
						C141.72,269.51,136.82,268.84,133.67,265.48z"/>
				</g>
			</g>
			<g>
				<path class="st1" d="M140,271.38c-3.58,0-7.04-1.5-9.48-4.11l-67.7-72.22c-1.13-1.21-1.07-3.11,0.14-4.24
					c1.21-1.13,3.11-1.07,4.24,0.14l67.7,72.22c1.34,1.43,3.15,2.21,5.11,2.21s3.77-0.79,5.11-2.21l67.7-72.22
					c1.13-1.21,3.03-1.27,4.24-0.14c1.21,1.13,1.27,3.03,0.14,4.24l-67.7,72.22C147.04,269.88,143.58,271.38,140,271.38z"/>
			</g>
			<g>
				<path class="st1" d="M215,296c-0.82,0-1.64-0.33-2.23-0.99l-45-50c-1.11-1.23-1.01-3.13,0.22-4.24
					c1.23-1.11,3.13-1.01,4.24,0.22l45,50c1.11,1.23,1.01,3.13-0.22,4.24C216.43,295.75,215.72,296,215,296z"/>
			</g>
			<g>
				<path class="st1" d="M65,296c-0.71,0-1.43-0.25-2.01-0.77c-1.23-1.11-1.33-3-0.22-4.24l45-50c1.11-1.23,3.01-1.33,4.24-0.22
					c1.23,1.11,1.33,3,0.22,4.24l-45,50C66.64,295.67,65.82,296,65,296z"/>
			</g>
		</g>
		<g>
			<g>
				<g>
					<path class="st1" d="M140.31,240.97c-4.55,0-9.21-1.07-13.25-3.21c-0.98-0.52-1.35-1.73-0.83-2.71
						c0.52-0.97,1.73-1.35,2.7-0.83c6.83,3.63,16.09,3.64,22.02,0.03c0.94-0.58,2.17-0.28,2.75,0.67c0.57,0.94,0.27,2.17-0.67,2.75
						C149.43,239.87,144.93,240.97,140.31,240.97z"/>
				</g>
				<g>
					<path class="st1" d="M136.26,244.08c1.22,0.34,2.49,0.43,3.75,0.48c0.63,0.03,1.26-0.05,1.89-0.12
						c0.63-0.07,1.25-0.18,1.85-0.36c0.68-0.21,1.4,0.17,1.61,0.85c0.14,0.45,0.01,0.92-0.29,1.25l-0.79,0.85
						c-0.61,0.66-1.32,1-2.04,1.25c-0.73,0.21-1.48,0.32-2.23,0.27c-0.37-0.02-0.75-0.04-1.12-0.11c-0.37-0.06-0.74-0.15-1.09-0.27
						c-0.72-0.24-1.42-0.57-2.04-1.13l-0.74-0.66c-0.55-0.49-0.6-1.34-0.11-1.89C135.24,244.08,135.78,243.95,136.26,244.08z"/>
				</g>
			</g>
			<g>
				<g>
					<path class="st1" d="M113,209h-11.5c-1.93,0-3.5,1.57-3.5,3.5l0,0c0,1.93,1.57,3.5,3.5,3.5H113V209z"/>
				</g>
				<g>
					<path class="st1" d="M178.5,209H167v7h11.5c1.93,0,3.5-1.57,3.5-3.5l0,0C182,210.57,180.43,209,178.5,209z"/>
				</g>
				<g>
					<path class="st8" d="M120,233L120,233c-6.63,0-12-5.37-12-12v-4c0-1.1,0.9-2,2-2h20c1.1,0,2,0.9,2,2v4
						C132,227.63,126.63,233,120,233z"/>
				</g>
				<g>
					<path class="st1" d="M145,223c-1.66,0-3-1.34-3-3c0-1.1-0.9-2-2-2s-2,0.9-2,2c0,1.66-1.34,3-3,3s-3-1.34-3-3c0-4.41,3.59-8,8-8
						s8,3.59,8,8C148,221.66,146.66,223,145,223z"/>
				</g>
				<g class="st9">
					<polygon class="st10" points="119,235 123,235 130,213 126,213 					"/>
				</g>
				<g class="st9">
					<polygon class="st10" points="110,235 116,235 123,213 117,213 					"/>
				</g>
				<g>
					<path class="st1" d="M130,215c1.1,0,2,0.9,2,2v4c0,6.63-5.37,12-12,12h0c-6.63,0-12-5.37-12-12v-4c0-1.1,0.9-2,2-2H130
						 M130,209h-20c-4.41,0-8,3.59-8,8v4c0,9.93,8.07,18,18,18s18-8.07,18-18v-4C138,212.59,134.41,209,130,209L130,209z"/>
				</g>
				<g>
					<path class="st8" d="M160,233L160,233c-6.63,0-12-5.37-12-12v-4c0-1.1,0.9-2,2-2h20c1.1,0,2,0.9,2,2v4
						C172,227.63,166.63,233,160,233z"/>
				</g>
				<g class="st9">
					<polygon class="st10" points="159,235 163,235 170,213 166,213 					"/>
				</g>
				<g class="st9">
					<polygon class="st10" points="150,235 156,235 163,213 157,213 					"/>
				</g>
				<g>
					<path class="st1" d="M170,215c1.1,0,2,0.9,2,2v4c0,6.63-5.37,12-12,12h0c-6.63,0-12-5.37-12-12v-4c0-1.1,0.9-2,2-2H170
						 M170,209h-20c-4.41,0-8,3.59-8,8v4c0,9.93,8.07,18,18,18c9.93,0,18-8.07,18-18v-4C178,212.59,174.41,209,170,209L170,209z"/>
				</g>
				<g>
					<path class="st7" d="M104,213.5h-2c-0.55,0-1-0.45-1-1l0,0c0-0.55,0.45-1,1-1h2c0.55,0,1,0.45,1,1l0,0
						C105,213.05,104.55,213.5,104,213.5z"/>
				</g>
				<g>
					<path class="st7" d="M178,213.5h-2c-0.55,0-1-0.45-1-1l0,0c0-0.55,0.45-1,1-1h2c0.55,0,1,0.45,1,1l0,0
						C179,213.05,178.55,213.5,178,213.5z"/>
				</g>
			</g>
			<g>
				<g>
					<path class="st1" d="M160.03,229.78c-0.16,0-0.33-0.03-0.49-0.08c-1.6-0.55-4.42-0.55-6.02,0c-0.79,0.27-1.64-0.15-1.91-0.93
						c-0.27-0.78,0.15-1.64,0.93-1.91c2.24-0.77,5.74-0.77,7.98,0c0.78,0.27,1.2,1.12,0.93,1.91
						C161.23,229.39,160.65,229.78,160.03,229.78z"/>
				</g>
				<g>
					<g>
						<circle class="st1" cx="156.53" cy="221.59" r="6"/>
					</g>
					<g>
						<circle class="st10" cx="158.03" cy="221.59" r="1.5"/>
					</g>
				</g>
				<g>
					<path class="st1" d="M153.09,202.65c0.97-0.61,1.86-0.91,2.88-1.12c0.99-0.21,2.03-0.24,3.08-0.12
						c1.04,0.11,2.1,0.44,3.07,0.95c0.97,0.5,1.83,1.28,2.42,2.19c0.52,0.8,0.29,1.86-0.51,2.38c-0.38,0.24-0.81,0.32-1.22,0.25
						l-0.4-0.07c-0.78-0.13-1.39-0.32-2.04-0.43c-0.65-0.1-1.27-0.25-1.96-0.33l-2.11-0.25c-0.72-0.08-1.55-0.12-2.25-0.28
						l-0.42-0.09c-0.92-0.2-1.5-1.11-1.29-2.02C152.44,203.26,152.72,202.88,153.09,202.65z"/>
				</g>
			</g>
			<g>
				<g>
					<path class="st1" d="M119.97,229.78c-0.62,0-1.2-0.39-1.42-1.01c-0.27-0.78,0.15-1.64,0.93-1.91c2.24-0.77,5.74-0.77,7.98,0
						c0.78,0.27,1.2,1.12,0.93,1.91c-0.27,0.78-1.12,1.2-1.91,0.93c-1.6-0.55-4.42-0.55-6.02,0
						C120.3,229.75,120.14,229.78,119.97,229.78z"/>
				</g>
				<g>
					<g>
						<circle class="st1" cx="123.47" cy="221.59" r="6"/>
					</g>
					<g>
						<circle class="st10" cx="124.97" cy="221.59" r="1.5"/>
					</g>
				</g>
				<g>
					<path class="st1" d="M125.94,205.84c-0.7,0.15-1.53,0.2-2.25,0.28l-2.11,0.25c-0.68,0.08-1.31,0.22-1.96,0.33
						c-0.65,0.11-1.26,0.3-2.04,0.43l-0.39,0.07c-0.94,0.16-1.83-0.47-1.98-1.41c-0.07-0.44,0.03-0.88,0.25-1.22
						c0.59-0.92,1.45-1.69,2.42-2.19c0.96-0.52,2.02-0.84,3.07-0.95c1.04-0.12,2.08-0.08,3.08,0.12c1.01,0.21,1.9,0.51,2.88,1.12
						c0.79,0.5,1.03,1.55,0.54,2.34c-0.25,0.4-0.64,0.66-1.07,0.76L125.94,205.84z"/>
				</g>
			</g>
		</g>
		<g>
			<g>
				<g>
					<path class="st5" d="M118.99,284.88c-3.86,0-6.99-3.14-6.99-7v-7.75c0-3.86,3.14-7,6.99-7c0.57,0,1.15,0.07,1.71,0.21
						c0.12,0.03,0.23,0.07,0.35,0.11l15.03,5.76c1.16,0.45,1.93,1.56,1.93,2.8v4c0,1.24-0.77,2.36-1.93,2.8l-15.03,5.76
						c-0.11,0.04-0.23,0.08-0.35,0.11C120.14,284.81,119.56,284.88,118.99,284.88L118.99,284.88z"/>
				</g>
				<g>
					<path class="st1" d="M118.99,266.12c0.32,0,0.65,0.04,0.98,0.12L135,272v4l-15.03,5.76c-0.33,0.08-0.66,0.12-0.98,0.12
						c-2.14,0-3.99-1.74-3.99-4v-7.75C115,267.86,116.85,266.12,118.99,266.12 M118.99,260.12c-5.51,0-9.99,4.49-9.99,10v7.75
						c0,5.52,4.48,10,9.99,10c0.82,0,1.64-0.1,2.43-0.3c0.23-0.06,0.47-0.13,0.69-0.22l15.03-5.76c2.32-0.89,3.85-3.12,3.85-5.6v-4
						c0-2.49-1.53-4.71-3.85-5.6l-15.03-5.76c-0.23-0.09-0.46-0.16-0.69-0.22C120.63,260.22,119.81,260.12,118.99,260.12
						L118.99,260.12z"/>
				</g>
			</g>
			<g>
				<g>
					<path class="st5" d="M161.01,284.88c-0.57,0-1.15-0.07-1.71-0.21c-0.12-0.03-0.23-0.07-0.35-0.11l-15.03-5.76
						c-1.16-0.45-1.93-1.56-1.93-2.8v-4c0-1.24,0.77-2.36,1.93-2.8l15.03-5.76c0.11-0.04,0.23-0.08,0.35-0.11
						c0.56-0.14,1.13-0.21,1.71-0.21c3.86,0,6.99,3.14,6.99,7v7.75c0,1.89-0.74,3.67-2.09,4.99
						C164.59,284.16,162.85,284.88,161.01,284.88C161.01,284.88,161.01,284.88,161.01,284.88z"/>
				</g>
				<g>
					<path class="st1" d="M161.01,266.12c2.14,0,3.99,1.74,3.99,4v7.75c0,2.26-1.85,4-3.99,4c-0.32,0-0.65-0.04-0.98-0.12L145,276
						v-4l15.03-5.76C160.36,266.16,160.69,266.12,161.01,266.12 M161.01,260.12c-0.82,0-1.64,0.1-2.43,0.3
						c-0.23,0.06-0.47,0.13-0.69,0.22l-15.03,5.76c-2.32,0.89-3.85,3.12-3.85,5.6v4c0,2.49,1.53,4.71,3.85,5.6l15.03,5.76
						c0.23,0.09,0.46,0.16,0.69,0.22c0.8,0.2,1.62,0.3,2.43,0.3c5.51,0,9.99-4.49,9.99-10v-7.75
						C171,264.61,166.52,260.12,161.01,260.12L161.01,260.12z"/>
				</g>
			</g>
			<g>
				<line class="st5" x1="143" y1="274" x2="155" y2="274"/>
				<path class="st1" d="M155,276h-12c-1.1,0-2-0.9-2-2s0.9-2,2-2h12c1.1,0,2,0.9,2,2S156.1,276,155,276z"/>
			</g>
			<g>
				<line class="st5" x1="125" y1="274" x2="137" y2="274"/>
				<path class="st1" d="M137,276h-12c-1.1,0-2-0.9-2-2s0.9-2,2-2h12c1.1,0,2,0.9,2,2S138.1,276,137,276z"/>
			</g>
			<g>
				<g>
					<path class="st5" d="M138,282c-3.31,0-6-2.69-6-6v-4c0-3.31,2.69-6,6-6h4c3.31,0,6,2.69,6,6v4c0,3.31-2.69,6-6,6H138z"/>
				</g>
				<g>
					<path class="st1" d="M142,269c1.66,0,3,1.34,3,3v4c0,1.66-1.34,3-3,3h-4c-1.66,0-3-1.34-3-3v-4c0-1.66,1.34-3,3-3H142 M142,263
						h-4c-4.96,0-9,4.04-9,9v4c0,4.96,4.04,9,9,9h4c4.96,0,9-4.04,9-9v-4C151,267.04,146.96,263,142,263L142,263z"/>
				</g>
			</g>
		</g>
	</g>
</g>
<g>
	<path class="st0" d="M261.4,58.4c-2.65,0-4.8-2.15-4.8-4.8c0-0.88-0.72-1.6-1.6-1.6c-0.88,0-1.6,0.72-1.6,1.6
		c0,2.65-2.15,4.8-4.8,4.8c-0.88,0-1.6,0.72-1.6,1.6s0.72,1.6,1.6,1.6c2.65,0,4.8,2.15,4.8,4.8c0,0.88,0.72,1.6,1.6,1.6
		c0.88,0,1.6-0.72,1.6-1.6c0-2.65,2.15-4.8,4.8-4.8c0.88,0,1.6-0.72,1.6-1.6S262.28,58.4,261.4,58.4z"/>
</g>
<g>
	<circle class="st0" cx="308.82" cy="82.37" r="2.5"/>
</g>
<g>
	<circle class="st0" cx="339" cy="146" r="3"/>
</g>
<g>
	<circle class="st0" cx="316" cy="178" r="3"/>
</g>
<path class="st0" d="M353,90h-7v-7c0-1.66-1.34-3-3-3s-3,1.34-3,3v7h-7c-1.66,0-3,1.34-3,3s1.34,3,3,3h7v7c0,1.66,1.34,3,3,3
	s3-1.34,3-3v-7h7c1.66,0,3-1.34,3-3S354.66,90,353,90z"/>
<g>
	<path class="st0" d="M35.2,290.2c-2.98,0-5.4-2.42-5.4-5.4c0-0.99-0.81-1.8-1.8-1.8c-0.99,0-1.8,0.81-1.8,1.8
		c0,2.98-2.42,5.4-5.4,5.4c-0.99,0-1.8,0.81-1.8,1.8s0.81,1.8,1.8,1.8c2.98,0,5.4,2.42,5.4,5.4c0,0.99,0.81,1.8,1.8,1.8
		c0.99,0,1.8-0.81,1.8-1.8c0-2.98,2.42-5.4,5.4-5.4c0.99,0,1.8-0.81,1.8-1.8S36.19,290.2,35.2,290.2z"/>
</g>
<g>
	<circle class="st0" cx="151" cy="155" r="3"/>
</g>
<g>
	<circle class="st0" cx="34" cy="249" r="3"/>
</g>
<g>
	<circle class="st0" cx="107.5" cy="329.5" r="2.5"/>
</g>
<g>
	<circle class="st0" cx="71.5" cy="313.5" r="4.5"/>
</g>
<g>
	<circle class="st0" cx="85.5" cy="164.5" r="2.5"/>
</g>
<g>
	<circle class="st0" cx="173.5" cy="173.5" r="2.5"/>
</g>
<g>
	<g>
		<g>
			<path class="st11" d="M305.8,285.23c-4.96,0-9-4.04-9-9v-38c0-4.96,4.04-9,9-9h68c4.96,0,9,4.04,9,9v38c0,4.96-4.04,9-9,9H305.8z
				"/>
		</g>
		<g>
			<g>
				<path class="st1" d="M373.8,232.23c3.31,0,6,2.69,6,6v38c0,3.31-2.69,6-6,6h-68c-3.31,0-6-2.69-6-6v-38c0-3.31,2.69-6,6-6H373.8
					 M373.8,226.23h-68c-6.62,0-12,5.38-12,12v38c0,6.62,5.38,12,12,12h68c6.62,0,12-5.38,12-12v-38
					C385.8,231.62,380.41,226.23,373.8,226.23L373.8,226.23z"/>
			</g>
		</g>
	</g>
	<g>
		<g>
			<path class="st12" d="M373.8,232.23h-68c-3.31,0-6,2.69-6,6h80C379.8,234.92,377.11,232.23,373.8,232.23z"/>
		</g>
	</g>
	<g>
		<path class="st1" d="M339.8,271.23c-0.73,0-1.46-0.26-2.03-0.79l-37.67-34.66c-1.22-1.12-1.3-3.02-0.18-4.24
			c1.12-1.22,3.02-1.3,4.24-0.18l35.64,32.79l35.92-33.05c1.22-1.12,3.12-1.04,4.24,0.18c1.12,1.22,1.04,3.12-0.18,4.24
			l-37.95,34.92C341.25,270.97,340.53,271.23,339.8,271.23z"/>
	</g>
	<g>
		<path class="st1" d="M377.75,284.97c-0.73,0-1.45-0.26-2.03-0.79l-26.44-24.33c-1.22-1.12-1.3-3.02-0.18-4.24
			c1.12-1.22,3.02-1.3,4.24-0.18l26.44,24.33c1.22,1.12,1.3,3.02,0.18,4.24C379.37,284.65,378.56,284.97,377.75,284.97z"/>
	</g>
	<g>
		<path class="st1" d="M302.13,285.23c-0.81,0-1.62-0.33-2.21-0.97c-1.12-1.22-1.04-3.12,0.18-4.24l26.44-24.33
			c1.22-1.12,3.12-1.04,4.24,0.18c1.12,1.22,1.04,3.12-0.18,4.24l-26.44,24.33C303.58,284.97,302.85,285.23,302.13,285.23z"/>
	</g>
	<g>
		<path class="st1" d="M350.8,241.73c-1.1,0-2-0.9-2-2c0-0.55-0.45-1-1-1s-1,0.45-1,1c0,1.1-0.9,2-2,2s-2-0.9-2-2c0-2.76,2.24-5,5-5
			s5,2.24,5,5C352.8,240.84,351.9,241.73,350.8,241.73z"/>
	</g>
	<g>
		<path class="st1" d="M334.8,241.73c-1.1,0-2-0.9-2-2c0-0.55-0.45-1-1-1s-1,0.45-1,1c0,1.1-0.9,2-2,2s-2-0.9-2-2c0-2.76,2.24-5,5-5
			s5,2.24,5,5C336.8,240.84,335.9,241.73,334.8,241.73z"/>
	</g>
	<g>
		<path class="st1" d="M339.8,251.23c-3.24,0-6.28-1.28-8.56-3.6c-0.77-0.79-0.76-2.05,0.03-2.83c0.79-0.77,2.05-0.76,2.83,0.03
			c1.52,1.55,3.54,2.4,5.7,2.4s4.18-0.85,5.7-2.4c0.77-0.79,2.04-0.8,2.83-0.03c0.79,0.77,0.8,2.04,0.03,2.83
			C346.08,249.96,343.04,251.23,339.8,251.23z"/>
	</g>
	<g>
		<path class="st1" d="M334.79,223.03c-0.64,0.16-1.23,0.25-1.84,0.36l-1.81,0.32l-1.81,0.32c-0.6,0.11-1.19,0.22-1.85,0.29
			l-0.41,0.05c-0.95,0.11-1.81-0.58-1.92-1.53c-0.05-0.41,0.06-0.81,0.26-1.13c0.57-0.88,1.36-1.51,2.19-1.98
			c0.84-0.48,1.74-0.78,2.66-0.94c0.92-0.16,1.88-0.19,2.82-0.02c0.94,0.15,1.9,0.47,2.74,1.11c0.76,0.58,0.91,1.67,0.33,2.43
			c-0.25,0.33-0.6,0.54-0.97,0.63L334.79,223.03z"/>
	</g>
	<g>
		<path class="st1" d="M352.11,224.32c-0.66-0.07-1.25-0.18-1.85-0.29l-1.81-0.32l-1.81-0.32c-0.6-0.1-1.2-0.2-1.84-0.36l-0.4-0.1
			c-0.93-0.23-1.5-1.16-1.28-2.1c0.1-0.4,0.33-0.74,0.63-0.97c0.83-0.64,1.79-0.96,2.74-1.11c0.95-0.16,1.9-0.13,2.82,0.02
			c0.92,0.17,1.83,0.47,2.66,0.94c0.84,0.47,1.63,1.09,2.19,1.98c0.52,0.81,0.28,1.88-0.52,2.4c-0.35,0.22-0.75,0.31-1.13,0.26
			L352.11,224.32z"/>
	</g>
</g>
<g>
	<g>
		<g>
			<g>
				<path class="st13" d="M233.8,359.23c-4.96,0-9-4.04-9-9v-38c0-4.96,4.04-9,9-9h68c4.96,0,9,4.04,9,9v38c0,4.96-4.04,9-9,9H233.8
					z"/>
			</g>
			<g>
				<path class="st1" d="M301.8,306.23c3.31,0,6,2.69,6,6v38c0,3.31-2.69,6-6,6h-68c-3.31,0-6-2.69-6-6v-38c0-3.31,2.69-6,6-6H301.8
					 M301.8,300.23h-68c-6.62,0-12,5.38-12,12v38c0,6.62,5.38,12,12,12h68c6.62,0,12-5.38,12-12v-38
					C313.8,305.62,308.41,300.23,301.8,300.23L301.8,300.23z"/>
			</g>
		</g>
		<g>
			<g>
				<path class="st14" d="M301.8,306.23h-68c-3.31,0-6,2.69-6,6h80C307.8,308.92,305.11,306.23,301.8,306.23z"/>
			</g>
		</g>
		<g>
			<path class="st1" d="M267.8,345.23c-0.73,0-1.46-0.26-2.03-0.79l-37.67-34.66c-1.22-1.12-1.3-3.02-0.18-4.24
				c1.12-1.22,3.02-1.3,4.24-0.18l35.64,32.79l35.92-33.05c1.22-1.12,3.12-1.04,4.24,0.18c1.12,1.22,1.04,3.12-0.18,4.24
				l-37.95,34.92C269.25,344.97,268.53,345.23,267.8,345.23z"/>
		</g>
		<g>
			<path class="st1" d="M305.75,358.97c-0.73,0-1.45-0.26-2.03-0.79l-26.44-24.33c-1.22-1.12-1.3-3.02-0.18-4.24
				c1.12-1.22,3.02-1.3,4.24-0.18l26.44,24.33c1.22,1.12,1.3,3.02,0.18,4.24C307.37,358.65,306.56,358.97,305.75,358.97z"/>
		</g>
		<g>
			<path class="st1" d="M230.13,359.23c-0.81,0-1.62-0.33-2.21-0.97c-1.12-1.22-1.04-3.12,0.18-4.24l26.44-24.33
				c1.22-1.12,3.12-1.04,4.24,0.18c1.12,1.22,1.04,3.12-0.18,4.24l-26.44,24.33C231.58,358.97,230.85,359.23,230.13,359.23z"/>
		</g>
	</g>
	<g>
		<path class="st1" d="M278.8,315.73c-1.1,0-2-0.9-2-2c0-0.55-0.45-1-1-1s-1,0.45-1,1c0,1.1-0.9,2-2,2s-2-0.9-2-2c0-2.76,2.24-5,5-5
			s5,2.24,5,5C280.8,314.84,279.9,315.73,278.8,315.73z"/>
	</g>
	<g>
		<path class="st1" d="M262.8,315.73c-1.1,0-2-0.9-2-2c0-0.55-0.45-1-1-1s-1,0.45-1,1c0,1.1-0.9,2-2,2s-2-0.9-2-2c0-2.76,2.24-5,5-5
			s5,2.24,5,5C264.8,314.84,263.9,315.73,262.8,315.73z"/>
	</g>
	<g>
		<path class="st1" d="M267.8,325.23c-3.24,0-6.28-1.28-8.56-3.6c-0.77-0.79-0.76-2.05,0.03-2.83c0.79-0.77,2.05-0.76,2.83,0.03
			c1.52,1.55,3.54,2.4,5.7,2.4s4.18-0.85,5.7-2.4c0.77-0.79,2.04-0.8,2.83-0.03c0.79,0.77,0.8,2.04,0.03,2.83
			C274.08,323.96,271.04,325.23,267.8,325.23z"/>
	</g>
	<g>
		<path class="st1" d="M262.79,297.03c-0.64,0.16-1.23,0.25-1.84,0.36l-1.81,0.32l-1.81,0.32c-0.6,0.11-1.19,0.22-1.85,0.29
			l-0.41,0.05c-0.95,0.11-1.81-0.58-1.92-1.53c-0.05-0.41,0.06-0.81,0.26-1.13c0.57-0.88,1.36-1.51,2.19-1.98
			c0.84-0.48,1.74-0.78,2.66-0.94c0.92-0.16,1.88-0.19,2.82-0.02c0.94,0.15,1.9,0.47,2.74,1.11c0.76,0.58,0.91,1.67,0.33,2.43
			c-0.25,0.33-0.6,0.54-0.97,0.63L262.79,297.03z"/>
	</g>
	<g>
		<path class="st1" d="M280.11,298.32c-0.66-0.07-1.25-0.18-1.85-0.29l-1.81-0.32l-1.81-0.32c-0.6-0.1-1.2-0.2-1.84-0.36l-0.4-0.1
			c-0.93-0.23-1.5-1.16-1.28-2.1c0.1-0.4,0.33-0.74,0.63-0.97c0.83-0.64,1.79-0.96,2.74-1.11c0.95-0.16,1.9-0.13,2.82,0.02
			c0.92,0.17,1.83,0.47,2.66,0.94c0.84,0.47,1.63,1.09,2.19,1.98c0.52,0.81,0.28,1.88-0.52,2.4c-0.35,0.22-0.75,0.31-1.13,0.26
			L280.11,298.32z"/>
	</g>
</g>
<g>
	<g>
		<g>
			<path class="st15" d="M41.8,151.23c-4.96,0-9-4.04-9-9v-38c0-4.96,4.04-9,9-9h68c4.96,0,9,4.04,9,9v38c0,4.96-4.04,9-9,9H41.8z"
				/>
		</g>
		<g>
			<g>
				<path class="st1" d="M109.8,98.23c3.31,0,6,2.69,6,6v38c0,3.31-2.69,6-6,6h-68c-3.31,0-6-2.69-6-6v-38c0-3.31,2.69-6,6-6H109.8
					 M109.8,92.23h-68c-6.62,0-12,5.38-12,12v38c0,6.62,5.38,12,12,12h68c6.62,0,12-5.38,12-12v-38
					C121.8,97.62,116.41,92.23,109.8,92.23L109.8,92.23z"/>
			</g>
		</g>
	</g>
	<g>
		<g>
			<path class="st16" d="M109.8,98.23h-68c-3.31,0-6,2.69-6,6h80C115.8,100.92,113.11,98.23,109.8,98.23z"/>
		</g>
	</g>
	<g>
		<path class="st1" d="M75.8,137.23c-0.73,0-1.46-0.26-2.03-0.79l-37.67-34.66c-1.22-1.12-1.3-3.02-0.18-4.24
			c1.12-1.22,3.02-1.3,4.24-0.18l35.64,32.79l35.92-33.05c1.22-1.12,3.12-1.04,4.24,0.18c1.12,1.22,1.04,3.12-0.18,4.24
			l-37.95,34.92C77.25,136.97,76.52,137.23,75.8,137.23z"/>
	</g>
	<g>
		<path class="st1" d="M113.75,150.98c-0.73,0-1.45-0.26-2.03-0.79l-26.44-24.33c-1.22-1.12-1.3-3.02-0.18-4.24
			c1.12-1.22,3.02-1.3,4.24-0.18l26.44,24.33c1.22,1.12,1.3,3.02,0.18,4.24C115.37,150.65,114.56,150.98,113.75,150.98z"/>
	</g>
	<g>
		<path class="st1" d="M38.13,151.23c-0.81,0-1.62-0.33-2.21-0.97c-1.12-1.22-1.04-3.12,0.18-4.24l26.44-24.33
			c1.22-1.12,3.12-1.04,4.24,0.18c1.12,1.22,1.04,3.12-0.18,4.24l-26.44,24.33C39.58,150.97,38.85,151.23,38.13,151.23z"/>
	</g>
	<g>
		<path class="st1" d="M86.8,107.73c-1.1,0-2-0.9-2-2c0-0.55-0.45-1-1-1s-1,0.45-1,1c0,1.1-0.9,2-2,2s-2-0.9-2-2c0-2.76,2.24-5,5-5
			s5,2.24,5,5C88.8,106.84,87.9,107.73,86.8,107.73z"/>
	</g>
	<g>
		<path class="st1" d="M70.8,107.73c-1.1,0-2-0.9-2-2c0-0.55-0.45-1-1-1s-1,0.45-1,1c0,1.1-0.9,2-2,2s-2-0.9-2-2c0-2.76,2.24-5,5-5
			s5,2.24,5,5C72.8,106.84,71.9,107.73,70.8,107.73z"/>
	</g>
	<g>
		<path class="st1" d="M75.8,117.23c-3.24,0-6.28-1.28-8.56-3.6c-0.77-0.79-0.76-2.05,0.03-2.83c0.79-0.77,2.05-0.76,2.83,0.03
			c1.52,1.55,3.55,2.4,5.7,2.4c2.16,0,4.18-0.85,5.7-2.4c0.77-0.79,2.04-0.8,2.83-0.03c0.79,0.77,0.8,2.04,0.03,2.83
			C82.08,115.96,79.04,117.23,75.8,117.23z"/>
	</g>
	<g>
		<path class="st1" d="M70.79,89.03c-0.64,0.16-1.23,0.25-1.84,0.36l-1.81,0.32l-1.81,0.32c-0.6,0.11-1.19,0.22-1.85,0.29
			l-0.41,0.05c-0.95,0.11-1.81-0.58-1.92-1.53c-0.05-0.41,0.06-0.81,0.26-1.13c0.57-0.88,1.36-1.51,2.19-1.98
			c0.84-0.48,1.74-0.78,2.66-0.94c0.92-0.16,1.88-0.19,2.82-0.02c0.94,0.15,1.9,0.47,2.74,1.11c0.76,0.58,0.91,1.67,0.33,2.43
			c-0.25,0.33-0.6,0.54-0.97,0.63L70.79,89.03z"/>
	</g>
	<g>
		<path class="st1" d="M88.11,90.32c-0.66-0.07-1.25-0.18-1.85-0.29l-1.81-0.32l-1.81-0.32c-0.6-0.1-1.2-0.2-1.84-0.36l-0.4-0.1
			c-0.93-0.23-1.5-1.16-1.28-2.1c0.1-0.4,0.33-0.74,0.63-0.97c0.83-0.64,1.79-0.96,2.74-1.11c0.95-0.16,1.9-0.13,2.82,0.02
			c0.92,0.17,1.83,0.47,2.66,0.94c0.84,0.47,1.63,1.09,2.19,1.98c0.52,0.81,0.28,1.88-0.52,2.4c-0.35,0.22-0.75,0.31-1.13,0.26
			L88.11,90.32z"/>
	</g>
</g>
</svg>
