<?xml version="1.0" encoding="utf-8"?>
<!-- Generator: Adobe Illustrator 25.4.1, SVG Export Plug-In . SVG Version: 6.00 Build 0)  -->
<svg version="1.1" id="CRO_x5F_Hub-Heatmaps" xmlns="http://www.w3.org/2000/svg" xmlns:xlink="http://www.w3.org/1999/xlink"
	 x="0px" y="0px" viewBox="0 0 400 400" style="enable-background:new 0 0 400 400;" xml:space="preserve">
<style type="text/css">
	.st0{fill:none;}
	.st1{fill:#FFFFFF;}
	.st2{fill:#515979;}
	.st3{fill:#AAA0FF;}
	.st4{fill:#667683;}
	.st5{fill:#EF7D7D;}
	.st6{fill:#FFE8A0;}
	.st7{fill:#7DDF96;}
	.st8{fill:#7170B2;}
	.st9{fill:#EEEBFF;}
	.st10{fill:#5F87A5;}
	.st11{fill:#507396;}
	.st12{fill:#3CC3F7;}
	.st13{fill:#88E1F9;}
	.st14{fill:#6ADAF7;}
	.st15{fill:#B4ECFB;}
	.st16{fill:#FFD886;}
</style>
<rect class="st0" width="400" height="400"/>
<path class="st1" d="M169.66,360.84c-7.17,0-13-5.83-13-13v-226c0-7.17,5.83-13,13-13h180c7.17,0,13,5.83,13,13v226
	c0,7.17-5.83,13-13,13H169.66z"/>
<path class="st2" d="M349.66,111.85c5.52,0,10,4.48,10,10v226c0,5.52-4.48,10-10,10h-180c-5.52,0-10-4.48-10-10v-226
	c0-5.52,4.48-10,10-10H349.66 M349.66,105.85h-180c-8.82,0-16,7.18-16,16v226c0,8.82,7.18,16,16,16h180c8.82,0,16-7.18,16-16v-226
	C365.66,113.02,358.48,105.85,349.66,105.85L349.66,105.85z"/>
<path class="st3" d="M349.66,357.85h-180c-5.52,0-10-4.48-10-10v-54h200v54C359.66,353.37,355.18,357.85,349.66,357.85z"/>
<rect x="159.66" y="145.85" class="st3" width="200" height="76"/>
<path class="st4" d="M159.66,142.85c-1.66,0-3-1.34-3-3v-18c0-7.17,5.83-13,13-13h180c7.17,0,13,5.83,13,13v18c0,1.66-1.34,3-3,3
	H159.66z"/>
<path class="st2" d="M349.66,111.85c5.52,0,10,4.48,10,10v18h-200v-18c0-5.52,4.48-10,10-10H349.66 M349.66,105.85h-180
	c-8.82,0-16,7.18-16,16v18c0,3.31,2.69,6,6,6h200c3.31,0,6-2.69,6-6v-18C365.66,113.02,358.48,105.85,349.66,105.85L349.66,105.85z"
	/>
<path class="st1" d="M249.66,132.85c-3.86,0-7-3.14-7-7s3.14-7,7-7h94c3.86,0,7,3.14,7,7s-3.14,7-7,7H249.66z"/>
<path class="st2" d="M343.66,121.85c2.21,0,4,1.79,4,4s-1.79,4-4,4h-94c-2.21,0-4-1.79-4-4s1.79-4,4-4H343.66 M343.66,115.85h-94
	c-5.51,0-10,4.49-10,10c0,5.51,4.49,10,10,10h94c5.51,0,10-4.49,10-10C353.66,120.33,349.17,115.85,343.66,115.85L343.66,115.85z"/>
<circle class="st5" cx="175.66" cy="125.85" r="7"/>
<path class="st2" d="M175.66,121.85c2.21,0,4,1.79,4,4s-1.79,4-4,4s-4-1.79-4-4S173.45,121.85,175.66,121.85 M175.66,115.85
	c-5.51,0-10,4.49-10,10c0,5.51,4.49,10,10,10s10-4.49,10-10C185.66,120.33,181.17,115.85,175.66,115.85L175.66,115.85z"/>
<circle class="st6" cx="199.66" cy="125.85" r="7"/>
<path class="st2" d="M199.66,121.85c2.21,0,4,1.79,4,4s-1.79,4-4,4s-4-1.79-4-4S197.45,121.85,199.66,121.85 M199.66,115.85
	c-5.51,0-10,4.49-10,10c0,5.51,4.49,10,10,10s10-4.49,10-10C209.66,120.33,205.17,115.85,199.66,115.85L199.66,115.85z"/>
<circle class="st7" cx="223.66" cy="125.85" r="7"/>
<path class="st2" d="M223.66,121.85c2.21,0,4,1.79,4,4s-1.79,4-4,4s-4-1.79-4-4S221.45,121.85,223.66,121.85 M223.66,115.85
	c-5.51,0-10,4.49-10,10c0,5.51,4.49,10,10,10s10-4.49,10-10C233.66,120.33,229.17,115.85,223.66,115.85L223.66,115.85z"/>
<circle class="st8" cx="224.66" cy="182.35" r="2.5"/>
<circle class="st8" cx="230.16" cy="193.35" r="2.5"/>
<circle class="st8" cx="219.16" cy="193.35" r="2.5"/>
<circle class="st8" cx="294.66" cy="182.35" r="2.5"/>
<circle class="st8" cx="300.16" cy="193.35" r="2.5"/>
<circle class="st8" cx="289.16" cy="193.35" r="2.5"/>
<rect x="159.66" y="220.85" class="st9" width="200" height="74"/>
<path class="st1" d="M178.66,279.85h42c2.21,0,4-1.79,4-4v-36c0-2.21-1.79-4-4-4h-42c-2.21,0-4,1.79-4,4v36
	C174.66,278.05,176.45,279.85,178.66,279.85z"/>
<circle class="st9" cx="186.66" cy="247.85" r="6"/>
<path class="st3" d="M216.66,261.85h-34c-1.1,0-2-0.9-2-2l0,0c0-1.1,0.9-2,2-2h34c1.1,0,2,0.9,2,2l0,0
	C218.66,260.95,217.76,261.85,216.66,261.85z"/>
<path class="st3" d="M202.66,269.85h-20c-1.1,0-2-0.9-2-2l0,0c0-1.1,0.9-2,2-2h20c1.1,0,2,0.9,2,2l0,0
	C204.66,268.95,203.76,269.85,202.66,269.85z"/>
<path class="st1" d="M298.66,279.85h42c2.21,0,4-1.79,4-4v-36c0-2.21-1.79-4-4-4h-42c-2.21,0-4,1.79-4,4v36
	C294.66,278.05,296.45,279.85,298.66,279.85z"/>
<circle class="st9" cx="306.66" cy="247.85" r="6"/>
<path class="st3" d="M336.66,261.85h-34c-1.1,0-2-0.9-2-2l0,0c0-1.1,0.9-2,2-2h34c1.1,0,2,0.9,2,2l0,0
	C338.66,260.95,337.76,261.85,336.66,261.85z"/>
<path class="st3" d="M314.66,269.85h-12c-1.1,0-2-0.9-2-2l0,0c0-1.1,0.9-2,2-2h12c1.1,0,2,0.9,2,2l0,0
	C316.66,268.95,315.76,269.85,314.66,269.85z"/>
<path class="st1" d="M238.66,279.85h42c2.21,0,4-1.79,4-4v-36c0-2.21-1.79-4-4-4h-42c-2.21,0-4,1.79-4,4v36
	C234.66,278.05,236.45,279.85,238.66,279.85z"/>
<circle class="st9" cx="246.66" cy="247.85" r="6"/>
<path class="st3" d="M276.66,261.85h-34c-1.1,0-2-0.9-2-2l0,0c0-1.1,0.9-2,2-2h34c1.1,0,2,0.9,2,2l0,0
	C278.66,260.95,277.76,261.85,276.66,261.85z"/>
<path class="st3" d="M268.66,269.85h-26c-1.1,0-2-0.9-2-2l0,0c0-1.1,0.9-2,2-2h26c1.1,0,2,0.9,2,2l0,0
	C270.66,268.95,269.76,269.85,268.66,269.85z"/>
<circle class="st9" cx="199.66" cy="327.85" r="24"/>
<circle class="st9" cx="259.66" cy="327.85" r="24"/>
<circle class="st9" cx="319.66" cy="327.85" r="24"/>
<path class="st2" d="M279.16,184.32c-0.32,0-0.64-0.08-0.94-0.24c-1.9-1.02-5.22-1.02-7.11,0c-0.97,0.52-2.18,0.16-2.71-0.82
	c-0.52-0.97-0.16-2.19,0.82-2.71c3.05-1.64,7.83-1.64,10.89,0c0.97,0.52,1.34,1.73,0.82,2.71
	C280.56,183.94,279.87,184.32,279.16,184.32z"/>
<g>
	<circle class="st2" cx="274.66" cy="173.57" r="8"/>
</g>
<g>
	<circle class="st1" cx="276.66" cy="173.57" r="2"/>
</g>
<path class="st2" d="M268.77,158.18c0.68-0.6,1.26-0.97,1.95-1.35c0.68-0.36,1.39-0.66,2.14-0.88c1.49-0.46,3.14-0.63,4.81-0.42
	c0.84,0.09,1.66,0.34,2.47,0.62c0.4,0.16,0.77,0.38,1.15,0.57c0.39,0.18,0.74,0.42,1.07,0.69c1.4,0.97,2.36,2.35,2.98,3.77
	c0.45,1.03-0.01,2.23-1.04,2.69c-0.59,0.26-1.23,0.22-1.76-0.06l-0.37-0.2c-1.05-0.55-1.86-1.12-2.73-1.43
	c-0.84-0.36-1.66-0.59-2.56-0.71c-0.9-0.13-1.87-0.17-2.91-0.11c-0.52,0.04-1.06,0.07-1.61,0.14c-0.53,0.04-1.16,0.16-1.62,0.17
	l-0.62,0.01c-1.1,0.01-2-0.87-2.01-1.98C268.09,159.1,268.36,158.55,268.77,158.18z"/>
<path class="st2" d="M249.16,184.32c-0.32,0-0.64-0.08-0.94-0.24c-1.9-1.02-5.22-1.02-7.11,0c-0.97,0.52-2.18,0.16-2.71-0.82
	c-0.52-0.97-0.16-2.19,0.82-2.71c3.05-1.64,7.83-1.64,10.89,0c0.97,0.52,1.34,1.73,0.82,2.71
	C250.56,183.94,249.87,184.32,249.16,184.32z"/>
<g>
	<circle class="st2" cx="244.66" cy="173.57" r="8"/>
</g>
<g>
	<circle class="st1" cx="246.66" cy="173.57" r="2"/>
</g>
<path class="st2" d="M248.59,161.67c-0.46,0-1.08-0.13-1.62-0.17c-0.55-0.07-1.09-0.1-1.61-0.14c-1.05-0.05-2.02-0.02-2.91,0.11
	c-0.9,0.12-1.72,0.35-2.56,0.71c-0.87,0.31-1.69,0.88-2.73,1.43l-0.36,0.19c-1,0.52-2.23,0.14-2.75-0.86
	c-0.3-0.57-0.3-1.22-0.06-1.77c0.62-1.41,1.58-2.79,2.98-3.77c0.33-0.27,0.68-0.51,1.07-0.69c0.38-0.19,0.76-0.41,1.15-0.57
	c0.81-0.28,1.63-0.53,2.47-0.62c1.67-0.21,3.32-0.04,4.81,0.42c0.75,0.22,1.46,0.52,2.14,0.88c0.69,0.38,1.27,0.75,1.95,1.35
	c0.83,0.72,0.91,1.98,0.19,2.81c-0.4,0.45-0.95,0.68-1.51,0.68L248.59,161.67z"/>
<path class="st2" d="M260.08,196.6c-6.02,0-12.18-1.77-17.52-5.31c-0.92-0.61-1.17-1.85-0.56-2.77c0.61-0.92,1.85-1.17,2.77-0.56
	c9.2,6.1,21.68,6.11,29.68,0.02c0.88-0.67,2.13-0.5,2.8,0.38c0.67,0.88,0.5,2.13-0.38,2.8C272.11,194.79,266.17,196.6,260.08,196.6z
	"/>
<path class="st2" d="M255.48,199.7c1.35,0.43,2.77,0.57,4.18,0.62c0.71,0.03,1.41-0.07,2.11-0.15c0.7-0.09,1.39-0.24,2.05-0.47
	c0.69-0.24,1.45,0.13,1.68,0.82c0.17,0.48,0.04,1-0.29,1.34l-0.72,0.76c-0.67,0.71-1.48,1.09-2.3,1.37
	c-0.83,0.24-1.69,0.36-2.54,0.31c-0.43-0.02-0.85-0.04-1.27-0.13c-0.42-0.06-0.84-0.17-1.25-0.3c-0.81-0.27-1.6-0.64-2.3-1.25
	l-0.67-0.59c-0.57-0.5-0.63-1.37-0.13-1.94C254.4,199.68,254.98,199.54,255.48,199.7z"/>
<polygon class="st10" points="32.59,377 50.42,348.46 58.66,334.04 70.76,323.96 85.29,302.66 88.46,293.13 95.75,287.92 
	102.67,276.39 121.77,282.76 134.89,276.2 164.46,315.28 175.22,331.9 186.26,339.94 208.27,377 "/>
<path class="st2" d="M217,374h-7.02l-1.82-3.06l-19-32l-0.63-1.06l-1-0.73l-10.1-7.34l-10.39-16.06l-0.12-0.19l-0.13-0.18l-28-37
	l-3.01-3.98l-14.24,7.12l-15.64-5.21l-4.57-1.52l-2.48,4.13l-5.36,8.93l-5.98,4.27l-1.59,1.13l-0.62,1.85l-2.74,8.21l-14.06,20.62
	l-11.36,9.46l-0.83,0.69l-0.54,0.94l-7.94,13.9l-14.94,23.9L30.92,374H24c-1.66,0-3,1.34-3,3s1.34,3,3,3h193c1.66,0,3-1.34,3-3
	S218.66,374,217,374z M38,374l15-24l8-14l12-10l15-22l3-9l7-5l6-10l18,6l12-6l28,37l11,17l11,8l19,32H38z"/>
<polygon class="st11" points="122,286 130.02,304 126.77,310.84 131.06,319 129.86,327.59 133.94,331.67 132.57,339.38 137,346 
	133,352 136,359 132.7,374 203,374 184,342 173,334 162,317 134,280 "/>
<polygon class="st5" points="115,321 111,321 111,312.08 117.13,306.82 107.69,296.43 112.91,282.87 116.64,284.31 112.31,295.57 
	122.87,307.18 115,313.92 "/>
<polygon class="st5" points="168.98,367.31 165.02,366.69 167.87,348.69 157.75,338.58 140.8,327.98 143.8,310.94 135.3,305.27 
	131.15,291.78 126.74,283.71 130.26,281.79 134.91,290.41 138.7,302.73 148.2,309.06 145.2,326.02 160.25,335.42 172.13,347.31 "/>
<polygon class="st5" points="88.9,342.63 85.1,341.37 88.91,329.95 85.08,316.55 88.92,315.45 93.09,330.05 "/>
<polygon class="st5" points="68.99,350.2 65.01,349.8 66.1,338.91 77.43,330.67 85.3,314.94 95.66,298.37 109.28,293.13 
	110.72,296.87 98.34,301.63 88.75,316.98 80.57,333.33 69.9,341.09 "/>
<polygon class="st5" points="144,357.14 142.96,342.56 149.24,331.04 152.76,332.96 147.04,343.44 148,356.86 "/>
<polygon class="st5" points="187.21,370.89 181.59,359.66 169.41,355.91 170.59,352.09 184.41,356.34 190.79,369.11 "/>
<path class="st2" d="M113.41,329.3c0.98-0.93,1.93-1.45,3.06-1.89c1.11-0.41,2.33-0.62,3.59-0.61c1.26,0,2.57,0.32,3.74,0.9
	c1.19,0.56,2.18,1.5,2.84,2.56c0.6,0.96,0.3,2.23-0.66,2.83c-0.41,0.26-0.88,0.35-1.33,0.29l-0.59-0.07
	c-0.88-0.11-1.51-0.3-2.18-0.35c-0.66-0.07-1.27-0.16-1.96-0.17c-0.68-0.02-1.41-0.02-2.19,0.01c-0.76,0-1.67,0.1-2.43,0.03
	l-0.67-0.06c-1.11-0.1-1.93-1.09-1.82-2.2C112.84,330.07,113.07,329.62,113.41,329.3z"/>
<path class="st2" d="M103.29,332.83c-0.77,0.07-1.67-0.03-2.43-0.03c-0.78-0.03-1.51-0.03-2.19-0.01c-0.69,0.01-1.31,0.1-1.96,0.17
	c-0.67,0.05-1.3,0.24-2.18,0.35l-0.59,0.07c-1.13,0.14-2.15-0.66-2.29-1.79c-0.06-0.48,0.06-0.95,0.29-1.33
	c0.66-1.06,1.64-2.01,2.84-2.56c1.17-0.58,2.49-0.9,3.74-0.9c1.26-0.02,2.48,0.2,3.59,0.61c1.13,0.44,2.08,0.96,3.06,1.89
	c0.81,0.77,0.84,2.05,0.07,2.85c-0.35,0.37-0.8,0.57-1.27,0.62L103.29,332.83z"/>
<path class="st2" d="M103.28,343.29c-1.38,0-2.5-1.12-2.5-2.5c0-0.83-0.67-1.5-1.5-1.5s-1.5,0.67-1.5,1.5c0,1.38-1.12,2.5-2.5,2.5
	s-2.5-1.12-2.5-2.5c0-3.58,2.92-6.5,6.5-6.5s6.5,2.92,6.5,6.5C105.78,342.17,104.66,343.29,103.28,343.29z"/>
<path class="st2" d="M123.28,343.29c-1.38,0-2.5-1.12-2.5-2.5c0-0.83-0.67-1.5-1.5-1.5s-1.5,0.67-1.5,1.5c0,1.38-1.12,2.5-2.5,2.5
	s-2.5-1.12-2.5-2.5c0-3.58,2.92-6.5,6.5-6.5s6.5,2.92,6.5,6.5C125.78,342.17,124.66,343.29,123.28,343.29z"/>
<path class="st2" d="M118.29,345.79h-18.01c-2.76,0-5,2.24-5,5c0,7.72,6.28,14,14,14c7.65,0,13.89-6.17,14-13.8c0-0.07,0-0.13,0-0.2
	C123.29,348.03,121.05,345.79,118.29,345.79z"/>
<g>
	<g>
		<ellipse class="st5" cx="109.28" cy="356.79" rx="6.69" ry="3"/>
	</g>
</g>
<polygon class="st11" points="62.5,359 64.5,368 66.78,374 52,374 56.5,366 "/>
<path class="st2" d="M136.3,253.8c-1.99,0-3.6-1.61-3.6-3.6c0-0.66-0.54-1.2-1.2-1.2c-0.66,0-1.2,0.54-1.2,1.2
	c0,1.99-1.61,3.6-3.6,3.6c-0.66,0-1.2,0.54-1.2,1.2s0.54,1.2,1.2,1.2c1.99,0,3.6,1.61,3.6,3.6c0,0.66,0.54,1.2,1.2,1.2
	c0.66,0,1.2-0.54,1.2-1.2c0-1.99,1.61-3.6,3.6-3.6c0.66,0,1.2-0.54,1.2-1.2S136.96,253.8,136.3,253.8z"/>
<path class="st2" d="M113.3,250.8c-1.99,0-3.6-1.61-3.6-3.6c0-0.66-0.54-1.2-1.2-1.2c-0.66,0-1.2,0.54-1.2,1.2
	c0,1.99-1.61,3.6-3.6,3.6c-0.66,0-1.2,0.54-1.2,1.2s0.54,1.2,1.2,1.2c1.99,0,3.6,1.61,3.6,3.6c0,0.66,0.54,1.2,1.2,1.2
	c0.66,0,1.2-0.54,1.2-1.2c0-1.99,1.61-3.6,3.6-3.6c0.66,0,1.2-0.54,1.2-1.2S113.96,250.8,113.3,250.8z"/>
<path class="st2" d="M123.3,266.8c-1.99,0-3.6-1.61-3.6-3.6c0-0.66-0.54-1.2-1.2-1.2c-0.66,0-1.2,0.54-1.2,1.2
	c0,1.99-1.61,3.6-3.6,3.6c-0.66,0-1.2,0.54-1.2,1.2s0.54,1.2,1.2,1.2c1.99,0,3.6,1.61,3.6,3.6c0,0.66,0.54,1.2,1.2,1.2
	c0.66,0,1.2-0.54,1.2-1.2c0-1.99,1.61-3.6,3.6-3.6c0.66,0,1.2-0.54,1.2-1.2S123.96,266.8,123.3,266.8z"/>
<path class="st12" d="M84,127c-8.27,0-15-6.73-15-15V72c0-8.27,6.73-15,15-15h40c8.27,0,15,6.73,15,15v40c0,8.27-6.73,15-15,15H84z"
	/>
<path class="st2" d="M124,60c6.63,0,12,5.37,12,12v40c0,6.63-5.37,12-12,12H84c-6.63,0-12-5.37-12-12V72c0-6.63,5.37-12,12-12H124
	 M124,54H84c-9.93,0-18,8.07-18,18v40c0,9.93,8.07,18,18,18h40c9.93,0,18-8.07,18-18V72C142,62.07,133.93,54,124,54L124,54z"/>
<path class="st13" d="M130,84h-24V66h18c3.31,0,6,2.69,6,6V84z"/>
<path class="st14" d="M54,127c-8.27,0-15-6.73-15-15V72c0-8.27,6.73-15,15-15h40c8.27,0,15,6.73,15,15v40c0,8.27-6.73,15-15,15H54z"
	/>
<path class="st2" d="M94,60c6.63,0,12,5.37,12,12v40c0,6.63-5.37,12-12,12H54c-6.63,0-12-5.37-12-12V72c0-6.63,5.37-12,12-12H94
	 M94,54H54c-9.93,0-18,8.07-18,18v40c0,9.93,8.07,18,18,18h40c9.93,0,18-8.07,18-18V72C112,62.07,103.93,54,94,54L94,54z"/>
<path class="st15" d="M48.5,74.5c-1.1,0-2-0.9-2-2c0-4.41,3.59-8,8-8c1.1,0,2,0.9,2,2s-0.9,2-2,2c-2.21,0-4,1.79-4,4
	C50.5,73.6,49.6,74.5,48.5,74.5z"/>
<path class="st12" d="M93.5,119.5c-1.1,0-2-0.9-2-2s0.9-2,2-2c2.21,0,4-1.79,4-4c0-1.1,0.9-2,2-2s2,0.9,2,2
	C101.5,115.91,97.91,119.5,93.5,119.5z"/>
<rect x="112.88" y="81.88" transform="matrix(0.7071 -0.7071 0.7071 0.7071 -25.7142 105.9203)" class="st12" width="4.24" height="4.24"/>
<rect x="118.88" y="81.88" transform="matrix(0.7071 -0.7071 0.7071 0.7071 -23.9569 110.1629)" class="st12" width="4.24" height="4.24"/>
<rect x="124.88" y="81.88" transform="matrix(0.7071 -0.7071 0.7071 0.7071 -22.1995 114.4056)" class="st12" width="4.24" height="4.24"/>
<path class="st2" d="M76.12,75.51c0.98-0.93,1.93-1.45,3.06-1.89c1.11-0.41,2.33-0.62,3.59-0.61c1.26,0,2.57,0.32,3.74,0.9
	c1.19,0.56,2.18,1.5,2.84,2.56c0.6,0.96,0.3,2.23-0.66,2.83c-0.41,0.26-0.88,0.35-1.33,0.29l-0.59-0.07
	c-0.88-0.11-1.51-0.3-2.18-0.35c-0.66-0.07-1.27-0.16-1.96-0.17c-0.68-0.02-1.41-0.02-2.19,0.01c-0.76,0-1.67,0.1-2.43,0.03
	l-0.67-0.06c-1.11-0.1-1.93-1.09-1.82-2.2C75.55,76.28,75.78,75.84,76.12,75.51z"/>
<path class="st2" d="M66,79.05c-0.77,0.07-1.67-0.03-2.43-0.03c-0.78-0.03-1.51-0.03-2.19-0.01c-0.69,0.01-1.31,0.1-1.96,0.17
	c-0.67,0.05-1.3,0.24-2.18,0.35l-0.59,0.07c-1.13,0.14-2.15-0.66-2.29-1.79c-0.06-0.48,0.06-0.95,0.29-1.33
	c0.66-1.06,1.64-2.01,2.84-2.56c1.17-0.58,2.49-0.9,3.74-0.9c1.26-0.02,2.48,0.2,3.59,0.61c1.13,0.44,2.08,0.96,3.06,1.89
	c0.81,0.77,0.84,2.05,0.07,2.85c-0.35,0.37-0.8,0.57-1.27,0.62L66,79.05z"/>
<path class="st2" d="M66,90.5c-1.38,0-2.5-1.12-2.5-2.5c0-0.83-0.67-1.5-1.5-1.5s-1.5,0.67-1.5,1.5c0,1.38-1.12,2.5-2.5,2.5
	s-2.5-1.12-2.5-2.5c0-3.58,2.92-6.5,6.5-6.5s6.5,2.92,6.5,6.5C68.5,89.38,67.38,90.5,66,90.5z"/>
<path class="st2" d="M86,90.5c-1.38,0-2.5-1.12-2.5-2.5c0-0.83-0.67-1.5-1.5-1.5s-1.5,0.67-1.5,1.5c0,1.38-1.12,2.5-2.5,2.5
	s-2.5-1.12-2.5-2.5c0-3.58,2.92-6.5,6.5-6.5s6.5,2.92,6.5,6.5C88.5,89.38,87.38,90.5,86,90.5z"/>
<path class="st2" d="M82.01,93H62c-2.76,0-5,2.24-5,5c0,8.27,6.73,15,15,15c8.21,0,14.89-6.62,15-14.8c0-0.06,0-0.13,0-0.2
	C87,95.24,84.77,93,82.01,93z"/>
<g>
	<g>
		<ellipse class="st5" cx="72" cy="104.67" rx="7.44" ry="3.33"/>
	</g>
</g>
<path class="st12" d="M196,91c-8.27,0-15-6.73-15-15V36c0-8.27,6.73-15,15-15h40c8.27,0,15,6.73,15,15v40c0,8.27-6.73,15-15,15H196z
	"/>
<path class="st2" d="M236,24c6.63,0,12,5.37,12,12v40c0,6.63-5.37,12-12,12h-40c-6.63,0-12-5.37-12-12V36c0-6.63,5.37-12,12-12H236
	 M236,18h-40c-9.93,0-18,8.07-18,18v40c0,9.93,8.07,18,18,18h40c9.93,0,18-8.07,18-18V36C254,26.07,245.93,18,236,18L236,18z"/>
<path class="st13" d="M242,48h-24V30h18c3.31,0,6,2.69,6,6V48z"/>
<path class="st14" d="M166,91c-8.27,0-15-6.73-15-15V36c0-8.27,6.73-15,15-15h40c8.27,0,15,6.73,15,15v40c0,8.27-6.73,15-15,15H166z
	"/>
<path class="st2" d="M206,24c6.63,0,12,5.37,12,12v40c0,6.63-5.37,12-12,12h-40c-6.63,0-12-5.37-12-12V36c0-6.63,5.37-12,12-12H206
	 M206,18h-40c-9.93,0-18,8.07-18,18v40c0,9.93,8.07,18,18,18h40c9.93,0,18-8.07,18-18V36C224,26.07,215.93,18,206,18L206,18z"/>
<path class="st15" d="M160.5,38.5c-1.1,0-2-0.9-2-2c0-4.41,3.59-8,8-8c1.1,0,2,0.9,2,2s-0.9,2-2,2c-2.21,0-4,1.79-4,4
	C162.5,37.6,161.6,38.5,160.5,38.5z"/>
<path class="st12" d="M205.5,83.5c-1.1,0-2-0.9-2-2s0.9-2,2-2c2.21,0,4-1.79,4-4c0-1.1,0.9-2,2-2s2,0.9,2,2
	C213.5,79.91,209.91,83.5,205.5,83.5z"/>
<rect x="224.88" y="45.88" transform="matrix(0.7071 -0.7071 0.7071 0.7071 32.5456 174.5721)" class="st12" width="4.24" height="4.24"/>
<rect x="230.88" y="45.88" transform="matrix(0.7071 -0.7071 0.7071 0.7071 34.303 178.8148)" class="st12" width="4.24" height="4.24"/>
<rect x="236.88" y="45.88" transform="matrix(0.7071 -0.7071 0.7071 0.7071 36.0604 183.0574)" class="st12" width="4.24" height="4.24"/>
<path class="st2" d="M184,69.5c-4.38,0-8.77-1.09-13.12-3.26c-1.23-0.62-1.74-2.12-1.12-3.35c0.62-1.24,2.12-1.74,3.35-1.12
	c7.32,3.66,14.44,3.66,21.76,0c1.24-0.62,2.74-0.12,3.35,1.12c0.62,1.23,0.12,2.74-1.12,3.35C192.77,68.41,188.38,69.5,184,69.5z"/>
<path class="st2" d="M188.12,43.51c0.98-0.93,1.93-1.45,3.06-1.89c1.11-0.41,2.33-0.62,3.59-0.61c1.26,0,2.57,0.32,3.74,0.9
	c1.19,0.56,2.18,1.5,2.84,2.56c0.6,0.96,0.3,2.23-0.66,2.83c-0.41,0.26-0.88,0.35-1.33,0.29l-0.59-0.07
	c-0.88-0.11-1.51-0.3-2.18-0.35c-0.66-0.07-1.27-0.16-1.96-0.17c-0.68-0.02-1.41-0.02-2.19,0.01c-0.76,0-1.67,0.1-2.43,0.03
	l-0.67-0.06c-1.11-0.1-1.93-1.09-1.82-2.2C187.55,44.28,187.78,43.84,188.12,43.51z"/>
<path class="st2" d="M178,47.05c-0.77,0.07-1.67-0.03-2.43-0.03c-0.78-0.03-1.51-0.03-2.19-0.01c-0.69,0.01-1.31,0.1-1.96,0.17
	c-0.67,0.05-1.3,0.24-2.18,0.35l-0.59,0.07c-1.13,0.14-2.15-0.66-2.29-1.79c-0.06-0.48,0.06-0.95,0.29-1.33
	c0.66-1.06,1.64-2.01,2.84-2.56c1.17-0.58,2.49-0.9,3.74-0.9c1.26-0.02,2.48,0.2,3.59,0.61c1.13,0.44,2.08,0.96,3.06,1.89
	c0.81,0.77,0.84,2.05,0.07,2.85c-0.35,0.37-0.8,0.57-1.27,0.62L178,47.05z"/>
<path class="st2" d="M178,58.5c-1.38,0-2.5-1.12-2.5-2.5c0-0.83-0.67-1.5-1.5-1.5s-1.5,0.67-1.5,1.5c0,1.38-1.12,2.5-2.5,2.5
	s-2.5-1.12-2.5-2.5c0-3.58,2.92-6.5,6.5-6.5s6.5,2.92,6.5,6.5C180.5,57.38,179.38,58.5,178,58.5z"/>
<path class="st2" d="M198,58.5c-1.38,0-2.5-1.12-2.5-2.5c0-0.83-0.67-1.5-1.5-1.5s-1.5,0.67-1.5,1.5c0,1.38-1.12,2.5-2.5,2.5
	s-2.5-1.12-2.5-2.5c0-3.58,2.92-6.5,6.5-6.5s6.5,2.92,6.5,6.5C200.5,57.38,199.38,58.5,198,58.5z"/>
<path class="st16" d="M328.8,76.2c2.98,0,5.4-2.42,5.4-5.4c0-0.99,0.81-1.8,1.8-1.8s1.8,0.81,1.8,1.8c0,2.98,2.42,5.4,5.4,5.4
	c0.99,0,1.8,0.81,1.8,1.8s-0.81,1.8-1.8,1.8c-2.98,0-5.4,2.42-5.4,5.4c0,0.99-0.81,1.8-1.8,1.8s-1.8-0.81-1.8-1.8
	c0-2.98-2.42-5.4-5.4-5.4c-0.99,0-1.8-0.81-1.8-1.8S327.81,76.2,328.8,76.2z"/>
<circle class="st16" cx="232" cy="306" r="3"/>
<circle class="st16" cx="128" cy="144" r="3"/>
<circle class="st16" cx="9" cy="358" r="3"/>
<path class="st16" d="M41,321h-6v-6c0-1.66-1.34-3-3-3s-3,1.34-3,3v6h-6c-1.66,0-3,1.34-3,3s1.34,3,3,3h6v6c0,1.66,1.34,3,3,3
	s3-1.34,3-3v-6h6c1.66,0,3-1.34,3-3S42.66,321,41,321z"/>
<path class="st16" d="M393,101h-6v-6c0-1.66-1.34-3-3-3s-3,1.34-3,3v6h-6c-1.66,0-3,1.34-3,3s1.34,3,3,3h6v6c0,1.66,1.34,3,3,3
	s3-1.34,3-3v-6h6c1.66,0,3-1.34,3-3S394.66,101,393,101z"/>
<circle class="st16" cx="384" cy="357" r="4"/>
<path class="st16" d="M353.2,384.2c-2.98,0-5.4-2.42-5.4-5.4c0-0.99-0.81-1.8-1.8-1.8c-0.99,0-1.8,0.81-1.8,1.8
	c0,2.98-2.42,5.4-5.4,5.4c-0.99,0-1.8,0.81-1.8,1.8s0.81,1.8,1.8,1.8c2.98,0,5.4,2.42,5.4,5.4c0,0.99,0.81,1.8,1.8,1.8
	c0.99,0,1.8-0.81,1.8-1.8c0-2.98,2.42-5.4,5.4-5.4c0.99,0,1.8-0.81,1.8-1.8S354.19,384.2,353.2,384.2z"/>
<path class="st16" d="M125.8,179.2c2.98,0,5.4-2.42,5.4-5.4c0-0.99,0.81-1.8,1.8-1.8s1.8,0.81,1.8,1.8c0,2.98,2.42,5.4,5.4,5.4
	c0.99,0,1.8,0.81,1.8,1.8s-0.81,1.8-1.8,1.8c-2.98,0-5.4,2.42-5.4,5.4c0,0.99-0.81,1.8-1.8,1.8s-1.8-0.81-1.8-1.8
	c0-2.98-2.42-5.4-5.4-5.4c-0.99,0-1.8-0.81-1.8-1.8S124.81,179.2,125.8,179.2z"/>
<path class="st16" d="M124.8,14.2c2.98,0,5.4-2.42,5.4-5.4c0-0.99,0.81-1.8,1.8-1.8s1.8,0.81,1.8,1.8c0,2.98,2.42,5.4,5.4,5.4
	c0.99,0,1.8,0.81,1.8,1.8s-0.81,1.8-1.8,1.8c-2.98,0-5.4,2.42-5.4,5.4c0,0.99-0.81,1.8-1.8,1.8s-1.8-0.81-1.8-1.8
	c0-2.98-2.42-5.4-5.4-5.4c-0.99,0-1.8-0.81-1.8-1.8S123.81,14.2,124.8,14.2z"/>
<path class="st16" d="M16,45c3.31,0,6-2.69,6-6c0-1.1,0.9-2,2-2s2,0.9,2,2c0,3.31,2.69,6,6,6c1.1,0,2,0.9,2,2s-0.9,2-2,2
	c-3.31,0-6,2.69-6,6c0,1.1-0.9,2-2,2s-2-0.9-2-2c0-3.31-2.69-6-6-6c-1.1,0-2-0.9-2-2S14.9,45,16,45z"/>
<circle class="st16" cx="91" cy="161" r="3"/>
</svg>
