<?xml version="1.0" encoding="utf-8"?>
<!-- Generator: Adobe Illustrator 26.0.2, SVG Export Plug-In . SVG Version: 6.00 Build 0)  -->
<svg version="1.1" id="Facebook_x5F_Hub-Scaling_x5F_Facebook_x5F_Ads"
	 xmlns="http://www.w3.org/2000/svg" xmlns:xlink="http://www.w3.org/1999/xlink" x="0px" y="0px" viewBox="0 0 400 400"
	 style="enable-background:new 0 0 400 400;" xml:space="preserve">
<style type="text/css">
	.st0{fill:#515979;}
	.st1{fill:#7DDF96;}
	.st2{fill:#00C853;}
	.st3{fill:#F8D886;}
	.st4{fill:#FBB040;}
	.st5{fill:#75A5C3;}
	.st6{fill:#1877F2;}
	.st7{fill:#00AF55;}
	.st8{fill:#FFD886;}
	.st9{fill:#5F87A5;}
	.st10{fill:#508CB4;}
	.st11{fill:#9FC0D5;}
	.st12{fill:none;}
</style>
<g>
	<g>
		<path class="st0" d="M173,351c-1.08,0-2.12-0.58-2.66-1.61L110,234.45L49.66,349.39c-0.77,1.47-2.58,2.03-4.05,1.26
			c-1.47-0.77-2.03-2.58-1.26-4.05l63-120c0.52-0.99,1.54-1.61,2.66-1.61s2.14,0.62,2.66,1.61l63,120c0.77,1.47,0.21,3.28-1.26,4.05
			C173.95,350.89,173.47,351,173,351z"/>
	</g>
	<g>
		<g>
			<g>
				<path class="st1" d="M76,345c-1.66,0-3-1.34-3-3v-32c0-1.66,1.34-3,3-3h68c1.66,0,3,1.34,3,3v32c0,1.66-1.34,3-3,3H76z"/>
			</g>
			<g>
				<path class="st0" d="M76,310l68,0l0,32l-68,0L76,310 M76,304c-3.31,0-6,2.69-6,6l0,32c0,1.59,0.63,3.12,1.76,4.24
					c1.13,1.13,2.65,1.76,4.24,1.76l68,0c3.31,0,6-2.69,6-6l0-32c0-1.59-0.63-3.12-1.76-4.24c-1.13-1.13-2.65-1.76-4.24-1.76L76,304
					L76,304z"/>
			</g>
		</g>
		<g>
			<g>
				<path class="st2" d="M141,333v-14c-3.31,0-6-2.69-6-6v0H85v0c0,3.31-2.69,6-6,6h0v14h0c3.31,0,6,2.69,6,6h50
					C135,335.69,137.69,333,141,333z"/>
			</g>
		</g>
		<g>
			<path class="st1" d="M132,330.5c-2.21,0-4-2.01-4-4.5s1.79-4.5,4-4.5c2.21,0,4,2.01,4,4.5S134.21,330.5,132,330.5z"/>
		</g>
		<g>
			<path class="st1" d="M110,342c-7.18,0-13-7.16-13-16c0-8.84,5.82-16,13-16c7.18,0,13,7.16,13,16C123,334.84,117.18,342,110,342z"
				/>
		</g>
		<g>
			<path class="st1" d="M88,330.5c-2.21,0-4-2.01-4-4.5s1.79-4.5,4-4.5c2.21,0,4,2.01,4,4.5S90.21,330.5,88,330.5z"/>
		</g>
		<g>
			<g>
				<path class="st2" d="M112.27,328.65c0-0.81-0.79-1.07-2.39-1.24c-2.78-0.32-5.01-0.87-5.17-4.21c0-2.13,1.36-3.59,3.87-3.99
					v-1.56h3.04v1.56c1.64,0.28,2.8,1.16,3.49,2.63c0.04,0.06,0.06,0.1,0.08,0.16l0.2,0.45l-2.96,1.34l-0.3-0.59
					c-0.41-0.79-0.93-1.18-2.05-1.18c-1.44,0-2.05,0.3-2.05,1.18c0,0.75,0.85,1.03,2.41,1.2c2.68,0.28,5.11,0.89,5.11,4.2
					c0,2.17-1.42,3.67-3.93,4.13v1.62h-3.04l0-1.58c-1.99-0.3-3.28-1.3-3.91-2.96l-0.22-0.61l3.04-1.07l0.24,0.59
					c0.32,0.83,1.07,1.24,2.23,1.24C111.5,329.95,112.27,329.53,112.27,328.65z"/>
			</g>
		</g>
	</g>
	<g>
		<g>
			<g>
				<path class="st3" d="M120,345c-1.66,0-3-1.34-3-3v-6c0-1.66,1.34-3,3-3h30c1.66,0,3,1.34,3,3v6c0,1.66-1.34,3-3,3H120z"/>
			</g>
			<g>
				<path class="st0" d="M150,336v6h-30v-6H150 M150,330h-30c-3.31,0-6,2.69-6,6v6c0,3.31,2.69,6,6,6h30c3.31,0,6-2.69,6-6v-6
					C156,332.69,153.31,330,150,330L150,330z"/>
			</g>
		</g>
		<g>
			<line class="st4" x1="129" y1="336" x2="129" y2="342"/>
			<path class="st0" d="M129,345c-1.66,0-3-1.34-3-3v-6c0-1.66,1.34-3,3-3s3,1.34,3,3v6C132,343.66,130.66,345,129,345z"/>
		</g>
		<g>
			<line class="st4" x1="141" y1="336" x2="141" y2="342"/>
			<path class="st0" d="M141,345c-1.66,0-3-1.34-3-3v-6c0-1.66,1.34-3,3-3s3,1.34,3,3v6C144,343.66,142.66,345,141,345z"/>
		</g>
	</g>
	<g>
		<g>
			<g>
				<path class="st3" d="M64,345c-1.66,0-3-1.34-3-3v-6c0-1.66,1.34-3,3-3h30c1.66,0,3,1.34,3,3v6c0,1.66-1.34,3-3,3H64z"/>
			</g>
			<g>
				<path class="st0" d="M94,336v6H64v-6H94 M94,330H64c-3.31,0-6,2.69-6,6v6c0,3.31,2.69,6,6,6h30c3.31,0,6-2.69,6-6v-6
					C100,332.69,97.31,330,94,330L94,330z"/>
			</g>
		</g>
		<g>
			<line class="st4" x1="73" y1="336" x2="73" y2="342"/>
			<path class="st0" d="M73,345c-1.66,0-3-1.34-3-3v-6c0-1.66,1.34-3,3-3s3,1.34,3,3v6C76,343.66,74.66,345,73,345z"/>
		</g>
		<g>
			<line class="st4" x1="85" y1="336" x2="85" y2="342"/>
			<path class="st0" d="M85,345c-1.66,0-3-1.34-3-3v-6c0-1.66,1.34-3,3-3s3,1.34,3,3v6C88,343.66,86.66,345,85,345z"/>
		</g>
	</g>
	<g>
		<g>
			<g>
				<path class="st3" d="M126,333c-1.66,0-3-1.34-3-3v-6c0-1.66,1.34-3,3-3h30c1.66,0,3,1.34,3,3v6c0,1.66-1.34,3-3,3H126z"/>
			</g>
			<g>
				<path class="st0" d="M156,324v6h-30v-6H156 M156,318h-30c-3.31,0-6,2.69-6,6v6c0,3.31,2.69,6,6,6h30c3.31,0,6-2.69,6-6v-6
					C162,320.69,159.31,318,156,318L156,318z"/>
			</g>
		</g>
		<g>
			<line class="st4" x1="135" y1="324" x2="135" y2="330"/>
			<path class="st0" d="M135,333c-1.66,0-3-1.34-3-3v-6c0-1.66,1.34-3,3-3s3,1.34,3,3v6C138,331.66,136.66,333,135,333z"/>
		</g>
		<g>
			<line class="st4" x1="147" y1="324" x2="147" y2="330"/>
			<path class="st0" d="M147,333c-1.66,0-3-1.34-3-3v-6c0-1.66,1.34-3,3-3s3,1.34,3,3v6C150,331.66,148.66,333,147,333z"/>
		</g>
	</g>
	<g>
		<g>
			<path class="st5" d="M53,357c-4.96,0-9-4.04-9-9c0-1.66,1.34-3,3-3h126c1.66,0,3,1.34,3,3c0,4.96-4.04,9-9,9H53z"/>
		</g>
		<g>
			<g>
				<path class="st0" d="M173,348c0,3.31-2.69,6-6,6H53c-3.31,0-6-2.69-6-6H173 M173,342H47c-3.31,0-6,2.69-6,6
					c0,6.62,5.38,12,12,12h114c6.62,0,12-5.38,12-12C179,344.69,176.31,342,173,342L173,342z M173,354L173,354L173,354L173,354z"/>
			</g>
		</g>
	</g>
</g>
<g>
	<g>
		<path class="st0" d="M227,304c-0.46,0-0.92-0.11-1.36-0.33c-1.48-0.75-2.07-2.56-1.32-4.03l61-120c0.51-0.99,1.52-1.63,2.64-1.64
			c1.12-0.06,2.15,0.59,2.68,1.57l65,120c0.79,1.46,0.25,3.28-1.21,4.07s-3.28,0.25-4.07-1.21l-62.28-114.97l-58.41,114.9
			C229.14,303.4,228.09,304,227,304z"/>
	</g>
	<g>
		<g>
			<g>
				<path class="st1" d="M255,298c-1.66,0-3-1.34-3-3v-32c0-1.66,1.34-3,3-3h68c1.66,0,3,1.34,3,3v32c0,1.66-1.34,3-3,3H255z"/>
			</g>
			<g>
				<path class="st0" d="M255,263h68v32l-68,0L255,263 M255,257c-3.31,0-6,2.69-6,6l0,32c0,1.59,0.63,3.12,1.76,4.24
					c1.13,1.13,2.65,1.76,4.24,1.76l68,0c3.31,0,6-2.69,6-6v-32c0-1.59-0.63-3.12-1.76-4.24c-1.13-1.13-2.65-1.76-4.24-1.76H255
					L255,257z"/>
			</g>
		</g>
		<g>
			<g>
				<path class="st2" d="M320,286v-14c-3.31,0-6-2.69-6-6v0h-50v0c0,3.31-2.69,6-6,6h0v14h0c3.31,0,6,2.69,6,6h50
					C314,288.69,316.69,286,320,286z"/>
			</g>
		</g>
		<g>
			<path class="st1" d="M311,283.5c-2.21,0-4-2.01-4-4.5s1.79-4.5,4-4.5c2.21,0,4,2.01,4,4.5S313.21,283.5,311,283.5z"/>
		</g>
		<g>
			<path class="st1" d="M289,295c-7.18,0-13-7.16-13-16c0-8.84,5.82-16,13-16c7.18,0,13,7.16,13,16C302,287.84,296.18,295,289,295z"
				/>
		</g>
		<g>
			<path class="st1" d="M267,283.5c-2.21,0-4-2.01-4-4.5s1.79-4.5,4-4.5c2.21,0,4,2.01,4,4.5S269.21,283.5,267,283.5z"/>
		</g>
		<g>
			<g>
				<path class="st2" d="M291.27,281.65c0-0.81-0.79-1.07-2.39-1.24c-2.78-0.32-5.01-0.87-5.17-4.21c0-2.13,1.36-3.59,3.87-3.99
					v-1.56h3.04v1.56c1.64,0.28,2.8,1.16,3.49,2.63c0.04,0.06,0.06,0.1,0.08,0.16l0.2,0.45l-2.96,1.34l-0.3-0.59
					c-0.41-0.79-0.93-1.18-2.05-1.18c-1.44,0-2.05,0.3-2.05,1.18c0,0.75,0.85,1.03,2.41,1.2c2.68,0.28,5.11,0.89,5.11,4.2
					c0,2.17-1.42,3.67-3.93,4.13v1.62h-3.04v-1.58c-1.99-0.3-3.28-1.3-3.91-2.96l-0.22-0.61l3.04-1.07l0.24,0.59
					c0.32,0.83,1.07,1.24,2.23,1.24C290.5,282.95,291.27,282.53,291.27,281.65z"/>
			</g>
		</g>
	</g>
	<g>
		<g>
			<g>
				<path class="st3" d="M305,298c-1.66,0-3-1.34-3-3v-6c0-1.66,1.34-3,3-3h30c1.66,0,3,1.34,3,3v6c0,1.66-1.34,3-3,3H305z"/>
			</g>
			<g>
				<path class="st0" d="M335,289v6h-30v-6H335 M335,283h-30c-3.31,0-6,2.69-6,6v6c0,3.31,2.69,6,6,6h30c3.31,0,6-2.69,6-6v-6
					C341,285.69,338.31,283,335,283L335,283z"/>
			</g>
		</g>
		<g>
			<line class="st4" x1="314" y1="289" x2="314" y2="295"/>
			<path class="st0" d="M314,298c-1.66,0-3-1.34-3-3v-6c0-1.66,1.34-3,3-3s3,1.34,3,3v6C317,296.66,315.66,298,314,298z"/>
		</g>
		<g>
			<line class="st4" x1="326" y1="289" x2="326" y2="295"/>
			<path class="st0" d="M326,298c-1.66,0-3-1.34-3-3v-6c0-1.66,1.34-3,3-3s3,1.34,3,3v6C329,296.66,327.66,298,326,298z"/>
		</g>
	</g>
	<g>
		<g>
			<path class="st5" d="M233,310c-4.96,0-9-4.04-9-9c0-1.66,1.34-3,3-3h126c1.66,0,3,1.34,3,3c0,4.96-4.04,9-9,9H233z"/>
		</g>
		<g>
			<g>
				<path class="st0" d="M353,301c0,3.31-2.69,6-6,6H233c-3.31,0-6-2.69-6-6H353 M353,295H227c-3.31,0-6,2.69-6,6
					c0,6.62,5.38,12,12,12h114c6.62,0,12-5.38,12-12C359,297.69,356.31,295,353,295L353,295z M353,307L353,307L353,307L353,307z"/>
			</g>
		</g>
	</g>
</g>
<g>
	<g>
		<path class="st5" d="M106.3,232.11c-2.71,0-5.09-1.83-5.79-4.45c-0.86-3.2,1.05-6.49,4.24-7.35l187.39-50.21
			c0.51-0.14,1.03-0.21,1.55-0.21c2.71,0,5.09,1.83,5.79,4.45c0.86,3.19-1.05,6.49-4.24,7.35L107.86,231.9
			C107.35,232.04,106.83,232.11,106.3,232.11z"/>
	</g>
	<g>
		<path class="st0" d="M293.7,172.89c1.32,0,2.54,0.88,2.9,2.22v0c0.43,1.6-0.52,3.25-2.12,3.67L107.08,229
			c-0.26,0.07-0.52,0.1-0.78,0.1c-1.32,0-2.54-0.88-2.9-2.22v0c-0.43-1.6,0.52-3.25,2.12-3.67L292.92,173
			C293.18,172.93,293.44,172.89,293.7,172.89 M293.7,166.89c-0.79,0-1.57,0.1-2.33,0.31l-187.39,50.21
			c-4.79,1.28-7.65,6.23-6.36,11.02c1.05,3.93,4.63,6.67,8.69,6.67c0.79,0,1.57-0.1,2.33-0.31l187.39-50.21
			c4.79-1.28,7.65-6.23,6.36-11.02C301.34,169.64,297.76,166.89,293.7,166.89L293.7,166.89z"/>
	</g>
</g>
<g>
	<path class="st6" d="M93,9.76c-44.18,0-80,35.82-80,80c0,39.93,29.25,73.03,67.5,79.03l0-55.9l-20.31,0l0-23.12l20.31,0l0-17.62
		c0-20.05,11.94-31.13,30.22-31.13c8.75,0,17.91,1.56,17.91,1.56v19.69l-10.09,0c-9.94,0-13.04,6.17-13.04,12.49l0,15.01l22.19,0
		l-3.55,23.13l-18.64,0l0,55.9c38.25-6,67.5-39.1,67.5-79.03C173,45.58,137.18,9.76,93,9.76z"/>
</g>
<g>
	<g>
		<g>
			<path class="st7" d="M308,125c-1.66,0-3-1.34-3-3V65h-9c-1.66,0-3-1.34-3-3V50c0-1.66,1.34-3,3-3h54c1.66,0,3,1.34,3,3v12
				c0,1.66-1.34,3-3,3h-9v57c0,1.66-1.34,3-3,3H308z"/>
		</g>
		<g>
			<g>
				<path class="st0" d="M350,50v12h-12v60h-30V62h-12V50H350 M350,44h-54c-3.31,0-6,2.69-6,6v12c0,3.31,2.69,6,6,6h6v54
					c0,3.31,2.69,6,6,6h30c3.31,0,6-2.69,6-6V68h6c3.31,0,6-2.69,6-6V50C356,46.69,353.31,44,350,44L350,44z"/>
			</g>
		</g>
	</g>
	<g>
		<g>
			<path class="st2" d="M308,113c-1.66,0-3-1.34-3-3V53h-9c-1.25,0-2.36-0.77-2.8-1.93c-0.44-1.16-0.12-2.48,0.81-3.31l27-24
				c0.57-0.51,1.28-0.76,1.99-0.76s1.42,0.25,1.99,0.76l27,24c0.93,0.83,1.25,2.14,0.81,3.31c-0.44,1.16-1.56,1.93-2.8,1.93h-9v57
				c0,1.66-1.34,3-3,3H308z"/>
		</g>
		<g>
			<g>
				<path class="st0" d="M323,26l27,24h-12v60h-30V50h-12L323,26 M323,20c-1.42,0-2.85,0.51-3.99,1.52l-27,24
					c-1.86,1.65-2.51,4.29-1.62,6.62c0.89,2.33,3.12,3.87,5.61,3.87h6v54c0,3.31,2.69,6,6,6h30c3.31,0,6-2.69,6-6V56h6
					c2.49,0,4.72-1.54,5.61-3.87c0.89-2.33,0.24-4.96-1.62-6.62l-27-24C325.85,20.51,324.42,20,323,20L323,20z"/>
			</g>
		</g>
	</g>
</g>
<g>
	<g>
		<path class="st8" d="M98.8,274.2c2.98,0,5.4-2.42,5.4-5.4c0-0.99,0.81-1.8,1.8-1.8s1.8,0.81,1.8,1.8c0,2.98,2.42,5.4,5.4,5.4
			c0.99,0,1.8,0.81,1.8,1.8s-0.81,1.8-1.8,1.8c-2.98,0-5.4,2.42-5.4,5.4c0,0.99-0.81,1.8-1.8,1.8s-1.8-0.81-1.8-1.8
			c0-2.98-2.42-5.4-5.4-5.4c-0.99,0-1.8-0.81-1.8-1.8S97.81,274.2,98.8,274.2z"/>
	</g>
</g>
<g>
	<g>
		<path class="st5" d="M146,393c-1.66,0-3-1.34-3-3c0-6.07,4.93-11,11-11h92c6.07,0,11,4.93,11,11c0,1.66-1.34,3-3,3H146z"/>
	</g>
	<g>
		<g>
			<path class="st0" d="M246,382c4.42,0,8,3.58,8,8H146c0-4.42,3.58-8,8-8H246 M246,376h-92c-7.72,0-14,6.28-14,14
				c0,3.31,2.69,6,6,6h108c3.31,0,6-2.69,6-6C260,382.28,253.72,376,246,376L246,376z"/>
		</g>
	</g>
</g>
<g>
	<g>
		<path class="st5" d="M194,159c-1.66,0-3-1.34-3-3c0-4.96,4.04-9,9-9c4.96,0,9,4.04,9,9c0,1.66-1.34,3-3,3H194z"/>
	</g>
	<g>
		<g>
			<path class="st0" d="M200,150c3.31,0,6,2.69,6,6h-12C194,152.69,196.69,150,200,150L200,150 M200,144c-6.62,0-12,5.38-12,12
				c0,3.31,2.69,6,6,6h12c3.31,0,6-2.69,6-6C212,149.38,206.62,144,200,144L200,144z"/>
		</g>
	</g>
</g>
<g>
	<g>
		<path class="st5" d="M191,171c-3.31,0-6-2.69-6-6s2.69-6,6-6h18c3.31,0,6,2.69,6,6s-2.69,6-6,6H191z"/>
	</g>
	<g>
		<g>
			<path class="st0" d="M209,162c1.66,0,3,1.34,3,3s-1.34,3-3,3h-18c-1.66,0-3-1.34-3-3s1.34-3,3-3H209 M209,156h-18
				c-4.96,0-9,4.04-9,9s4.04,9,9,9h18c4.96,0,9-4.04,9-9S213.96,156,209,156L209,156z"/>
		</g>
	</g>
</g>
<g>
	<g>
		<path class="st5" d="M196,367c-1.66,0-3-1.34-3-3V174c0-1.66,1.34-3,3-3h8c1.66,0,3,1.34,3,3v190c0,1.66-1.34,3-3,3H196z"/>
	</g>
	<g>
		<g>
			<path class="st0" d="M204,174v190h-8V174H204 M204,168h-8c-3.31,0-6,2.69-6,6v190c0,3.31,2.69,6,6,6h8c3.31,0,6-2.69,6-6V174
				C210,170.69,207.31,168,204,168L204,168z"/>
		</g>
	</g>
</g>
<g>
	<path class="st9" d="M200,180c-1.37,0-2.71,0.14-4,0.4v39.2c1.29,0.26,2.63,0.4,4,0.4s2.71-0.14,4-0.4v-39.2
		C202.71,180.14,201.37,180,200,180z"/>
</g>
<g>
	<rect x="196" y="174" class="st10" width="8" height="54"/>
</g>
<g>
	<g>
		<path class="st5" d="M165,379c-1.66,0-3-1.34-3-3c0-4.96,4.04-9,9-9h58c4.96,0,9,4.04,9,9c0,1.66-1.34,3-3,3H165z"/>
	</g>
	<g>
		<g>
			<path class="st0" d="M229,370c3.31,0,6,2.69,6,6h-70v0c0-3.31,2.69-6,6-6H229 M229,364h-58c-6.62,0-12,5.38-12,12
				c0,3.31,2.69,6,6,6l70,0c3.31,0,6-2.69,6-6c0-3.21-1.25-6.22-3.51-8.49C235.22,365.25,232.21,364,229,364L229,364z"/>
		</g>
	</g>
</g>
<g>
	<g>
		<circle class="st5" cx="200" cy="201" r="18"/>
	</g>
	<g>
		<path class="st0" d="M200,186c8.28,0,15,6.72,15,15s-6.72,15-15,15s-15-6.72-15-15S191.72,186,200,186 M200,180
			c-11.58,0-21,9.42-21,21s9.42,21,21,21s21-9.42,21-21S211.58,180,200,180L200,180z"/>
	</g>
</g>
<g>
	<path class="st11" d="M209,203c-1.1,0-2-0.9-2-2c0-3.86-3.14-7-7-7c-1.1,0-2-0.9-2-2s0.9-2,2-2c6.07,0,11,4.93,11,11
		C211,202.1,210.1,203,209,203z"/>
</g>
<g>
	<g>
		<circle class="st5" cx="200" cy="134" r="13"/>
	</g>
	<g>
		<path class="st0" d="M200,124c5.52,0,10,4.48,10,10c0,5.52-4.48,10-10,10s-10-4.48-10-10C190,128.48,194.48,124,200,124 M200,118
			c-8.82,0-16,7.18-16,16s7.18,16,16,16s16-7.18,16-16S208.82,118,200,118L200,118z"/>
	</g>
</g>
<g>
	<path class="st11" d="M205,136c-1.1,0-2-0.9-2-2c0-1.65-1.35-3-3-3c-1.1,0-2-0.9-2-2s0.9-2,2-2c3.86,0,7,3.14,7,7
		C207,135.1,206.1,136,205,136z"/>
</g>
<g>
	<circle class="st8" cx="65" cy="278" r="3"/>
</g>
<g>
	<circle class="st8" cx="125" cy="293" r="3"/>
</g>
<g>
	<circle class="st8" cx="146" cy="246" r="4"/>
</g>
<g>
	<path class="st8" d="M128.2,195.2c-2.98,0-5.4-2.42-5.4-5.4c0-0.99-0.81-1.8-1.8-1.8c-0.99,0-1.8,0.81-1.8,1.8
		c0,2.98-2.42,5.4-5.4,5.4c-0.99,0-1.8,0.81-1.8,1.8s0.81,1.8,1.8,1.8c2.98,0,5.4,2.42,5.4,5.4c0,0.99,0.81,1.8,1.8,1.8
		c0.99,0,1.8-0.81,1.8-1.8c0-2.98,2.42-5.4,5.4-5.4c0.99,0,1.8-0.81,1.8-1.8S129.19,195.2,128.2,195.2z"/>
</g>
<g>
	<path class="st8" d="M294.25,346.69c-2.17,0-3.94-1.77-3.94-3.94c0-0.72-0.59-1.31-1.31-1.31c-0.72,0-1.31,0.59-1.31,1.31
		c0,2.17-1.77,3.94-3.94,3.94c-0.72,0-1.31,0.59-1.31,1.31s0.59,1.31,1.31,1.31c2.17,0,3.94,1.77,3.94,3.94
		c0,0.72,0.59,1.31,1.31,1.31c0.72,0,1.31-0.59,1.31-1.31c0-2.17,1.77-3.94,3.94-3.94c0.72,0,1.31-0.59,1.31-1.31
		S294.97,346.69,294.25,346.69z"/>
</g>
<g>
	<path class="st8" d="M259.25,114.13c-2.17,0-3.94-1.77-3.94-3.94c0-0.72-0.59-1.31-1.31-1.31c-0.72,0-1.31,0.59-1.31,1.31
		c0,2.17-1.77,3.94-3.94,3.94c-0.72,0-1.31,0.59-1.31,1.31s0.59,1.31,1.31,1.31c2.17,0,3.94,1.77,3.94,3.94
		c0,0.72,0.59,1.31,1.31,1.31c0.72,0,1.31-0.59,1.31-1.31c0-2.17,1.77-3.94,3.94-3.94c0.72,0,1.31-0.59,1.31-1.31
		S259.97,114.13,259.25,114.13z"/>
</g>
<g>
	<path class="st8" d="M266,24c-3.31,0-6-2.69-6-6c0-1.1-0.9-2-2-2c-1.1,0-2,0.9-2,2c0,3.31-2.69,6-6,6c-1.1,0-2,0.9-2,2s0.9,2,2,2
		c3.31,0,6,2.69,6,6c0,1.1,0.9,2,2,2c1.1,0,2-0.9,2-2c0-3.31,2.69-6,6-6c1.1,0,2-0.9,2-2S267.1,24,266,24z"/>
</g>
<g>
	<circle class="st8" cx="239.5" cy="54.5" r="4.5"/>
</g>
<g>
	<circle class="st8" cx="339.5" cy="358.5" r="4.5"/>
</g>
<g>
	<circle class="st8" cx="239.5" cy="89.28" r="2.5"/>
</g>
<g>
	<circle class="st8" cx="220.95" cy="29.5" r="2.5"/>
</g>
<g>
	<circle class="st8" cx="362" cy="150" r="2.5"/>
</g>
<g>
	<circle class="st8" cx="368.56" cy="208.5" r="2.5"/>
</g>
<g>
	<circle class="st8" cx="311" cy="368.5" r="2.5"/>
</g>
<g>
	<path class="st8" d="M84,238h-6v-6c0-1.66-1.34-3-3-3s-3,1.34-3,3v6h-6c-1.66,0-3,1.34-3,3s1.34,3,3,3h6v6c0,1.66,1.34,3,3,3
		s3-1.34,3-3v-6h6c1.66,0,3-1.34,3-3S85.66,238,84,238z"/>
	<path class="st8" d="M362,183h-6v-6c0-1.66-1.34-3-3-3s-3,1.34-3,3v6h-6c-1.66,0-3,1.34-3,3s1.34,3,3,3h6v6c0,1.66,1.34,3,3,3
		s3-1.34,3-3v-6h6c1.66,0,3-1.34,3-3S363.66,183,362,183z"/>
</g>
<g>
	<rect x="-0.27" y="0" class="st12" width="400" height="400"/>
</g>
</svg>
