<?xml version="1.0" encoding="utf-8"?>
<!-- Generator: Adobe Illustrator 25.3.1, SVG Export Plug-In . SVG Version: 6.00 Build 0)  -->
<svg version="1.1" id="what-is-cro" xmlns="http://www.w3.org/2000/svg" xmlns:xlink="http://www.w3.org/1999/xlink" x="0px"
	 y="0px" viewBox="0 0 400 400" style="enable-background:new 0 0 400 400;" xml:space="preserve">
<style type="text/css">
	.st0{fill:#FFFFFF;}
	.st1{fill:#515979;}
	.st2{fill:#F89D81;}
	.st3{fill:#667683;}
	.st4{fill:#EF7D7D;}
	.st5{fill:#FFE8A0;}
	.st6{fill:#7DDF96;}
	.st7{fill:#FDE1D9;}
	.st8{fill:#5F87A5;}
	.st9{fill:#507396;}
	.st10{fill:#6F93AE;}
	.st11{fill:#3CB48C;}
	.st12{fill:#CEEDD9;}
	.st13{fill:#D8EBFB;}
	.st14{fill:#FAC864;}
</style>
<g>
	<g>
		<g>
			<path class="st0" d="M49,325c-7.17,0-13-5.83-13-13V86c0-7.17,5.83-13,13-13h180c7.17,0,13,5.83,13,13v226c0,7.17-5.83,13-13,13
				H49z"/>
		</g>
		<g>
			<path class="st1" d="M229,76c5.52,0,10,4.48,10,10v226c0,5.52-4.48,10-10,10H49c-5.52,0-10-4.48-10-10V86c0-5.52,4.48-10,10-10
				H229 M229,70H49c-8.82,0-16,7.18-16,16v226c0,8.82,7.18,16,16,16h180c8.82,0,16-7.18,16-16V86C245,77.18,237.82,70,229,70L229,70
				z"/>
		</g>
	</g>
	<g>
		<path class="st2" d="M229,322H49c-5.52,0-10-4.48-10-10v-54h200v54C239,317.52,234.52,322,229,322z"/>
	</g>
	<g>
		<rect x="39" y="110" class="st2" width="200" height="76"/>
	</g>
	<g>
		<g>
			<path class="st3" d="M39,107c-1.66,0-3-1.34-3-3V86c0-7.17,5.83-13,13-13h180c7.17,0,13,5.83,13,13v18c0,1.66-1.34,3-3,3H39z"/>
		</g>
		<g>
			<path class="st1" d="M229,76c5.52,0,10,4.48,10,10v18H39V86c0-5.52,4.48-10,10-10H229 M229,70H49c-8.82,0-16,7.18-16,16v18
				c0,3.31,2.69,6,6,6h200c3.31,0,6-2.69,6-6V86C245,77.18,237.82,70,229,70L229,70z"/>
		</g>
	</g>
	<g>
		<g>
			<path class="st0" d="M129,97c-3.86,0-7-3.14-7-7s3.14-7,7-7h94c3.86,0,7,3.14,7,7s-3.14,7-7,7H129z"/>
		</g>
		<g>
			<g>
				<path class="st1" d="M223,86c2.21,0,4,1.79,4,4s-1.79,4-4,4h-94c-2.21,0-4-1.79-4-4s1.79-4,4-4H223 M223,80h-94
					c-5.51,0-10,4.49-10,10s4.49,10,10,10h94c5.51,0,10-4.49,10-10S228.51,80,223,80L223,80z"/>
			</g>
		</g>
	</g>
	<g>
		<g>
			<circle class="st4" cx="55" cy="90" r="7"/>
		</g>
		<g>
			<g>
				<path class="st1" d="M55,86c2.21,0,4,1.79,4,4c0,2.21-1.79,4-4,4s-4-1.79-4-4C51,87.79,52.79,86,55,86 M55,80
					c-5.51,0-10,4.49-10,10s4.49,10,10,10s10-4.49,10-10S60.51,80,55,80L55,80z"/>
			</g>
		</g>
	</g>
	<g>
		<g>
			<circle class="st5" cx="79" cy="90" r="7"/>
		</g>
		<g>
			<g>
				<path class="st1" d="M79,86c2.21,0,4,1.79,4,4c0,2.21-1.79,4-4,4c-2.21,0-4-1.79-4-4C75,87.79,76.79,86,79,86 M79,80
					c-5.51,0-10,4.49-10,10s4.49,10,10,10c5.51,0,10-4.49,10-10S84.51,80,79,80L79,80z"/>
			</g>
		</g>
	</g>
	<g>
		<g>
			<circle class="st6" cx="103" cy="90" r="7"/>
		</g>
		<g>
			<g>
				<path class="st1" d="M103,86c2.21,0,4,1.79,4,4c0,2.21-1.79,4-4,4c-2.21,0-4-1.79-4-4C99,87.79,100.79,86,103,86 M103,80
					c-5.51,0-10,4.49-10,10s4.49,10,10,10s10-4.49,10-10S108.51,80,103,80L103,80z"/>
			</g>
		</g>
	</g>
	<g>
		<g>
			<circle class="st4" cx="104" cy="146.5" r="2.5"/>
		</g>
		<g>
			<circle class="st4" cx="109.5" cy="157.5" r="2.5"/>
		</g>
		<g>
			<circle class="st4" cx="98.5" cy="157.5" r="2.5"/>
		</g>
	</g>
	<g>
		<g>
			<circle class="st4" cx="174" cy="146.5" r="2.5"/>
		</g>
		<g>
			<circle class="st4" cx="179.5" cy="157.5" r="2.5"/>
		</g>
		<g>
			<circle class="st4" cx="168.5" cy="157.5" r="2.5"/>
		</g>
	</g>
	<g>
		<rect x="39" y="185" class="st7" width="200" height="74"/>
	</g>
	<g>
		<g>
			<path class="st0" d="M58,244h42c2.21,0,4-1.79,4-4v-36c0-2.21-1.79-4-4-4H58c-2.21,0-4,1.79-4,4v36C54,242.21,55.79,244,58,244z"
				/>
		</g>
		<g>
			<circle class="st7" cx="66" cy="212" r="6"/>
		</g>
		<g>
			<path class="st2" d="M96,226H62c-1.1,0-2-0.9-2-2v0c0-1.1,0.9-2,2-2h34c1.1,0,2,0.9,2,2v0C98,225.1,97.1,226,96,226z"/>
		</g>
		<g>
			<path class="st2" d="M82,234H62c-1.1,0-2-0.9-2-2v0c0-1.1,0.9-2,2-2h20c1.1,0,2,0.9,2,2v0C84,233.1,83.1,234,82,234z"/>
		</g>
	</g>
	<g>
		<g>
			<path class="st0" d="M178,244h42c2.21,0,4-1.79,4-4v-36c0-2.21-1.79-4-4-4h-42c-2.21,0-4,1.79-4,4v36
				C174,242.21,175.79,244,178,244z"/>
		</g>
		<g>
			<circle class="st7" cx="186" cy="212" r="6"/>
		</g>
		<g>
			<path class="st2" d="M216,226h-34c-1.1,0-2-0.9-2-2v0c0-1.1,0.9-2,2-2h34c1.1,0,2,0.9,2,2v0C218,225.1,217.1,226,216,226z"/>
		</g>
		<g>
			<path class="st2" d="M194,234h-12c-1.1,0-2-0.9-2-2v0c0-1.1,0.9-2,2-2h12c1.1,0,2,0.9,2,2v0C196,233.1,195.1,234,194,234z"/>
		</g>
	</g>
	<g>
		<g>
			<path class="st0" d="M118,244h42c2.21,0,4-1.79,4-4v-36c0-2.21-1.79-4-4-4h-42c-2.21,0-4,1.79-4,4v36
				C114,242.21,115.79,244,118,244z"/>
		</g>
		<g>
			<circle class="st7" cx="126" cy="212" r="6"/>
		</g>
		<g>
			<path class="st2" d="M156,226h-34c-1.1,0-2-0.9-2-2v0c0-1.1,0.9-2,2-2h34c1.1,0,2,0.9,2,2v0C158,225.1,157.1,226,156,226z"/>
		</g>
		<g>
			<path class="st2" d="M148,234h-26c-1.1,0-2-0.9-2-2v0c0-1.1,0.9-2,2-2h26c1.1,0,2,0.9,2,2v0C150,233.1,149.1,234,148,234z"/>
		</g>
	</g>
	<g>
		<circle class="st7" cx="79" cy="292" r="24"/>
	</g>
	<g>
		<circle class="st7" cx="139" cy="292" r="24"/>
	</g>
	<g>
		<circle class="st7" cx="199" cy="292" r="24"/>
	</g>
	<g>
		<g>
			<g>
				<path class="st1" d="M158.5,148.48c-0.32,0-0.64-0.08-0.94-0.24c-1.89-1.02-5.22-1.02-7.11,0c-0.98,0.52-2.19,0.16-2.71-0.82
					c-0.52-0.97-0.16-2.19,0.82-2.71c3.05-1.64,7.84-1.64,10.89,0c0.97,0.52,1.34,1.73,0.82,2.71
					C159.9,148.09,159.21,148.48,158.5,148.48z"/>
			</g>
			<g>
				<g>
					<circle class="st1" cx="154" cy="137.72" r="8"/>
				</g>
				<g>
					<circle class="st0" cx="156" cy="137.72" r="2"/>
				</g>
			</g>
			<g>
				<path class="st1" d="M148.11,122.34c0.68-0.6,1.26-0.97,1.95-1.35c0.68-0.36,1.39-0.66,2.14-0.88c1.49-0.46,3.14-0.63,4.81-0.42
					c0.84,0.09,1.66,0.34,2.47,0.62c0.4,0.16,0.77,0.38,1.15,0.57c0.39,0.18,0.74,0.42,1.07,0.69c1.4,0.97,2.36,2.35,2.98,3.77
					c0.45,1.03-0.01,2.23-1.04,2.69c-0.59,0.26-1.23,0.22-1.76-0.06l-0.37-0.2c-1.05-0.55-1.86-1.12-2.73-1.43
					c-0.84-0.36-1.66-0.59-2.56-0.71c-0.9-0.13-1.87-0.17-2.91-0.11c-0.52,0.04-1.06,0.07-1.61,0.14c-0.53,0.04-1.16,0.16-1.62,0.17
					l-0.62,0.01c-1.1,0.01-2-0.87-2.01-1.98C147.43,123.26,147.7,122.71,148.11,122.34z"/>
			</g>
			<g>
				<path class="st1" d="M128.5,148.48c-0.32,0-0.64-0.08-0.94-0.24c-1.89-1.02-5.22-1.02-7.11,0c-0.98,0.52-2.19,0.16-2.71-0.82
					c-0.52-0.97-0.16-2.19,0.82-2.71c3.05-1.64,7.84-1.64,10.89,0c0.97,0.52,1.34,1.73,0.82,2.71
					C129.9,148.09,129.21,148.48,128.5,148.48z"/>
			</g>
			<g>
				<g>
					<circle class="st1" cx="124" cy="137.72" r="8"/>
				</g>
				<g>
					<circle class="st0" cx="126" cy="137.72" r="2"/>
				</g>
			</g>
			<g>
				<path class="st1" d="M127.93,125.83c-0.46,0-1.08-0.13-1.62-0.17c-0.55-0.07-1.09-0.1-1.61-0.14c-1.05-0.05-2.02-0.02-2.91,0.11
					c-0.9,0.12-1.72,0.35-2.56,0.71c-0.87,0.31-1.69,0.88-2.73,1.43l-0.36,0.19c-1,0.52-2.23,0.14-2.75-0.86
					c-0.3-0.57-0.3-1.22-0.06-1.77c0.62-1.41,1.58-2.79,2.98-3.77c0.33-0.27,0.68-0.51,1.07-0.69c0.38-0.19,0.76-0.41,1.15-0.57
					c0.81-0.28,1.63-0.53,2.47-0.62c1.67-0.21,3.32-0.04,4.81,0.42c0.75,0.22,1.46,0.52,2.14,0.88c0.69,0.38,1.27,0.75,1.95,1.35
					c0.83,0.72,0.91,1.98,0.19,2.81c-0.4,0.45-0.95,0.68-1.51,0.68L127.93,125.83z"/>
			</g>
		</g>
		<g>
			<path class="st1" d="M139.42,160.76c-6.02,0-12.19-1.77-17.52-5.31c-0.92-0.61-1.17-1.85-0.56-2.77
				c0.61-0.92,1.85-1.17,2.77-0.56c9.2,6.1,21.68,6.11,29.68,0.02c0.88-0.67,2.13-0.5,2.8,0.38c0.67,0.88,0.5,2.13-0.38,2.8
				C151.45,158.94,145.51,160.76,139.42,160.76z"/>
		</g>
		<g>
			<path class="st1" d="M134.82,163.86c1.35,0.43,2.77,0.57,4.18,0.62c0.71,0.03,1.41-0.07,2.11-0.15c0.7-0.09,1.39-0.24,2.05-0.47
				c0.69-0.24,1.45,0.13,1.68,0.82c0.17,0.48,0.04,1-0.29,1.34l-0.72,0.76c-0.67,0.71-1.48,1.09-2.3,1.37
				c-0.83,0.24-1.69,0.36-2.54,0.31c-0.43-0.02-0.85-0.04-1.27-0.13c-0.42-0.06-0.84-0.17-1.25-0.3c-0.81-0.27-1.6-0.64-2.3-1.25
				l-0.67-0.59c-0.57-0.5-0.63-1.37-0.13-1.94C133.74,163.84,134.32,163.7,134.82,163.86z"/>
		</g>
	</g>
</g>
<g>
	<g>
		<g>
			<path class="st8" d="M293,356c-16.26,0-31.59-1.59-43.15-4.48C236.68,348.22,230,343.68,230,338c0-2.71,1.24-11.52,3.44-26.86
				c3.77-26.27,10.07-70.23,8.05-80.15c-0.3-1.47,0.07-2.99,1.03-4.15c0.95-1.17,2.37-1.83,3.87-1.83h93.21
				c1.51,0,2.92,0.67,3.87,1.83c0.95,1.17,1.33,2.68,1.02,4.15c-2.01,9.92,4.29,53.88,8.05,80.15c2.2,15.34,3.44,24.16,3.44,26.86
				c0,5.68-6.68,10.22-19.85,13.52C324.59,354.41,309.26,356,293,356z"/>
		</g>
		<g>
			<g>
				<path class="st1" d="M339.61,228c1.26,0,2.21,1.15,1.96,2.39C338.45,245.73,353,329.8,353,338c0,8.28-26.86,15-60,15
					s-60-6.72-60-15c0-8.2,14.55-92.27,11.44-107.61c-0.25-1.24,0.69-2.39,1.96-2.39H293H339.61 M339.61,222H293h-46.61
					c-2.41,0-4.67,1.07-6.19,2.94c-1.52,1.86-2.12,4.29-1.64,6.65c1.91,9.41-4.59,54.76-8.08,79.13
					C228.19,326.64,227,335.08,227,338c0,7.33,7.23,12.71,22.12,16.43C260.91,357.38,276.5,359,293,359s32.09-1.62,43.88-4.57
					C351.77,350.71,359,345.33,359,338c0-2.92-1.19-11.36-3.47-27.29c-3.49-24.36-9.99-69.71-8.08-79.13
					c0.48-2.36-0.12-4.78-1.64-6.65C344.28,223.07,342.02,222,339.61,222L339.61,222z"/>
			</g>
		</g>
	</g>
	<g>
		<path class="st9" d="M342.9,346.33c6.37-2.38,10.1-5.25,10.1-8.33c0-6.28-8.54-57.09-11.13-87.42c-3.31,0.68-6.85,1.3-10.57,1.84
			C332.65,279.06,341.86,334.36,342.9,346.33z"/>
	</g>
	<g>
		<path class="st10" d="M239.68,344.87c0.12,0.06,0.24,0.12,0.36,0.18c0.19,0.09,0.38,0.17,0.57,0.26c0.22,0.1,0.44,0.19,0.66,0.29
			c0.21,0.09,0.42,0.18,0.63,0.26c0.37,0.15,0.75,0.3,1.14,0.44c0.26,0.1,0.52,0.19,0.79,0.28c0.2,0.07,0.4,0.14,0.6,0.21
			c0.29,0.1,0.57,0.2,0.87,0.29c0.16,0.05,0.34,0.11,0.5,0.16c0.58,0.19,1.18,0.37,1.8,0.55c0.15,0.04,0.31,0.09,0.46,0.13
			c0.36,0.1,0.73,0.2,1.11,0.3c0.13,0.03,0.26,0.07,0.4,0.1c1.26,0.33,2.57,0.64,3.94,0.94c0.1,0.02,0.2,0.04,0.3,0.06
			c1.43,0.31,2.92,0.6,4.47,0.88c0.06,0.01,0.13,0.02,0.19,0.03c1.61,0.28,3.27,0.55,4.99,0.79c0.02,0,0.04,0.01,0.06,0.01
			c0.58,0.08,1.17,0.15,1.76,0.23c1.8-25.12,4.35-62.05,6.36-97.06c-7.73-0.56-14.97-1.42-21.53-2.53
			C247.42,280.72,242.9,317.89,239.68,344.87z"/>
	</g>
	<g>
		<g>
			<path class="st6" d="M293,281c-21.29,0-40.79-2.74-52.16-7.33c-1.26-0.51-2.02-1.8-1.85-3.15c2.63-21.49,3.48-34.79,2.51-39.53
				c-0.3-1.47,0.07-2.99,1.03-4.15c0.95-1.17,2.37-1.83,3.87-1.83h93.21c1.51,0,2.92,0.67,3.87,1.83c0.95,1.17,1.33,2.68,1.02,4.15
				c-0.96,4.74-0.12,18.04,2.52,39.53c0.17,1.35-0.6,2.64-1.85,3.15C333.79,278.26,314.29,281,293,281z"/>
		</g>
		<g>
			<g>
				<path class="st1" d="M339.61,228c1.26,0,2.21,1.15,1.96,2.39c-1.21,5.96,0.25,22.28,2.48,40.49
					C333.47,275.15,314.57,278,293,278s-40.47-2.85-51.04-7.12c2.23-18.22,3.69-34.54,2.48-40.49c-0.25-1.24,0.69-2.39,1.96-2.39
					H293H339.61 M339.61,222H293h-46.61c-2.41,0-4.67,1.07-6.19,2.94c-1.52,1.86-2.12,4.29-1.64,6.65
					c0.62,3.04,0.68,12.21-2.55,38.57c-0.33,2.7,1.19,5.28,3.71,6.29c11.71,4.73,31.63,7.55,53.29,7.55s41.57-2.82,53.29-7.55
					c2.52-1.02,4.04-3.6,3.71-6.29c-3.23-26.36-3.17-35.53-2.55-38.57c0.48-2.36-0.12-4.78-1.64-6.65
					C344.28,223.07,342.02,222,339.61,222L339.61,222z"/>
			</g>
		</g>
	</g>
	<g>
		<path class="st11" d="M331.56,240.39c-1.06,5.21-0.08,18.33,1.68,33.72c4.17-0.94,7.82-2.03,10.8-3.23
			c-2.23-18.22-3.69-34.54-2.48-40.49c0.25-1.24-0.69-2.39-1.96-2.39h-8.44C331.52,233.86,331.69,239.78,331.56,240.39z"/>
	</g>
	<g>
		<path class="st12" d="M248.47,273.05c0.14,0.04,0.27,0.08,0.42,0.12c0.73,0.2,1.47,0.39,2.24,0.57c0.19,0.05,0.38,0.09,0.57,0.14
			c0.74,0.18,1.49,0.35,2.27,0.51c0.07,0.02,0.15,0.03,0.22,0.05c0.82,0.17,1.66,0.34,2.51,0.5c0.23,0.04,0.47,0.09,0.7,0.13
			c0.84,0.16,1.7,0.31,2.57,0.45c0.2,0.03,0.41,0.06,0.61,0.1c0.75,0.12,1.52,0.24,2.3,0.35c0.24,0.04,0.48,0.07,0.73,0.11
			c0.9,0.13,1.82,0.25,2.75,0.36c0.28,0.04,0.57,0.07,0.85,0.1c0.84,0.1,1.7,0.2,2.56,0.29c0.17,0.02,0.33,0.04,0.5,0.05
			c0,0,0,0,0,0c1.03-16.55,2-33.32,2.78-48.89h-21.09c-0.68,11.96-2.17,27.87-3.97,44.91C248.15,272.95,248.31,273,248.47,273.05z"
			/>
	</g>
	<g>
		<g>
			<path class="st9" d="M293,258c-40.25,0-81-7.9-81-23v-13c0-1.66,1.34-3,3-3h156c1.66,0,3,1.34,3,3v13
				c0,7.04-8.45,12.78-25.1,17.05C333.93,255.89,314.08,258,293,258z"/>
		</g>
		<g>
			<path class="st1" d="M371,222v13c0,11.05-34.92,20-78,20s-78-8.95-78-20v-13H371 M371,216H215c-3.31,0-6,2.69-6,6v13
				c0,8.59,9.2,15.3,27.36,19.95c15.21,3.9,35.32,6.05,56.64,6.05s41.44-2.15,56.64-6.05C367.8,250.3,377,243.59,377,235v-13
				C377,218.69,374.31,216,371,216L371,216z"/>
		</g>
	</g>
	<g>
		<path class="st8" d="M269.95,230h-30c-0.32,6.31-0.67,12.81-1.05,19.4c8.35,2.06,18.47,3.65,29.74,4.6
			C269.12,245.84,269.56,237.78,269.95,230z"/>
	</g>
	<g>
		<g>
			<path class="st8" d="M293,246c-21.09,0-40.96-2.22-55.93-6.25C220.67,235.33,212,229.19,212,222s8.67-13.33,25.07-17.75
				c14.98-4.03,34.84-6.25,55.93-6.25s40.96,2.22,55.93,6.25C365.33,208.67,374,214.81,374,222s-8.67,13.33-25.07,17.75
				C333.96,243.78,314.09,246,293,246z"/>
		</g>
		<g>
			<g>
				<path class="st1" d="M293,201c43.08,0,78,9.4,78,21c0,11.6-34.92,21-78,21s-78-9.4-78-21C215,210.4,249.92,201,293,201 M293,195
					c-21.35,0-41.49,2.26-56.71,6.36C218.18,206.23,209,213.18,209,222c0,8.82,9.18,15.77,27.29,20.64
					c15.23,4.1,35.37,6.36,56.71,6.36s41.49-2.26,56.71-6.36C367.82,237.77,377,230.82,377,222c0-8.82-9.18-15.77-27.29-20.64
					C334.49,197.26,314.35,195,293,195L293,195z"/>
			</g>
		</g>
	</g>
	<g>
		<path class="st10" d="M279.98,231.62c0-0.01-22.48-1.62-22.48-1.62l-16.93,7.55c8.52,2.08,18.77,3.66,30.08,4.57L279.98,231.62
			L279.98,231.62z"/>
	</g>
	<g>
		<g>
			<ellipse class="st8" cx="293" cy="221" rx="53" ry="14"/>
		</g>
		<g>
			<g>
				<path class="st1" d="M293,210c27.61,0,50,4.92,50,11s-22.39,11-50,11s-50-4.92-50-11S265.39,210,293,210 M293,204
					c-13.78,0-26.79,1.19-36.64,3.36C248.05,209.19,237,212.59,237,221s11.05,11.81,19.36,13.64c9.85,2.17,22.87,3.36,36.64,3.36
					s26.79-1.19,36.64-3.36c8.31-1.83,19.36-5.23,19.36-13.64s-11.05-11.81-19.36-13.64C319.79,205.19,306.78,204,293,204L293,204z"
					/>
			</g>
		</g>
	</g>
	<g>
		<ellipse class="st9" cx="293" cy="226" rx="44.53" ry="6"/>
	</g>
	<g>
		<g>
			<g>
				<path class="st13" d="M300.5,234.16c-0.78,0-1.54-0.31-2.1-0.86c-0.58-0.56-0.9-1.34-0.9-2.14v-81.95
					c0-4.63,3.47-8.47,8.06-8.95c0.05-0.01,0.3-0.02,0.3-0.02c0.21-0.02,0.42-0.03,0.63-0.03c15.14,0,27,23.28,27,53
					c0,14.25-2.76,27.58-7.76,37.53c-0.44,0.87-1.28,1.48-2.25,1.62c-6.85,1-14.78,1.62-22.92,1.8
					C300.54,234.16,300.52,234.16,300.5,234.16z"/>
			</g>
			<g>
				<path class="st1" d="M306.5,143.22c13.25,0,24,22.39,24,50c0,14.24-2.86,27.07-7.44,36.18c-6.59,0.96-14.28,1.59-22.56,1.77
					v-81.95c0-3.1,2.35-5.65,5.37-5.97C306.08,143.24,306.29,143.22,306.5,143.22 M306.5,137.22c-0.28,0-0.56,0.01-0.84,0.03
					l-0.1,0.01c-0.1,0.01-0.2,0.01-0.3,0.02c-6.13,0.64-10.75,5.77-10.75,11.93v81.95c0,1.61,0.65,3.16,1.8,4.29
					c1.12,1.1,2.63,1.71,4.2,1.71c0.04,0,0.09,0,0.13,0c8.26-0.18,16.31-0.81,23.29-1.83c1.94-0.28,3.61-1.49,4.49-3.24
					c5.21-10.36,8.08-24.16,8.08-38.88c0-14.24-2.71-27.71-7.62-37.95C323.29,143.63,315.35,137.22,306.5,137.22L306.5,137.22z"/>
			</g>
		</g>
		<g>
			<g>
				<path class="st13" d="M285.43,234.16c-8.14-0.18-16.07-0.8-22.92-1.8c-0.97-0.14-1.81-0.75-2.25-1.62
					c-5.01-9.95-7.76-23.27-7.76-37.53c0-29.72,11.86-53,27-53c0.21,0,0.42,0.01,0.63,0.03c0,0,0.25,0.02,0.3,0.02
					c4.6,0.48,8.06,4.33,8.06,8.95v81.95c0,0.81-0.33,1.58-0.9,2.14c-0.56,0.55-1.31,0.86-2.1,0.86
					C285.48,234.16,285.46,234.16,285.43,234.16z"/>
			</g>
			<g>
				<path class="st1" d="M279.5,143.22c0.21,0,0.42,0.02,0.63,0.03c3.02,0.31,5.37,2.86,5.37,5.97v81.95
					c-8.28-0.18-15.96-0.81-22.56-1.77c-4.58-9.11-7.44-21.94-7.44-36.18C255.5,165.6,266.25,143.22,279.5,143.22 M279.5,137.22
					c-8.85,0-16.79,6.41-22.38,18.05c-4.91,10.24-7.62,23.72-7.62,37.95c0,14.71,2.87,28.52,8.08,38.88
					c0.88,1.75,2.56,2.96,4.49,3.24c6.98,1.02,15.03,1.65,23.29,1.83c0.04,0,0.09,0,0.13,0c1.57,0,3.07-0.61,4.2-1.71
					c1.15-1.13,1.8-2.67,1.8-4.29v-81.95c0-6.17-4.62-11.3-10.75-11.93c-0.1-0.01-0.2-0.02-0.3-0.02l-0.1-0.01
					C280.06,137.23,279.78,137.22,279.5,137.22L279.5,137.22z"/>
			</g>
		</g>
		<g>
			<g>
				<path class="st4" d="M308.43,233.84c-0.78,0-1.53-0.3-2.1-0.85c-0.6-0.59-0.93-1.41-0.9-2.25l2.13-61.03
					c0.08-2.17,1.84-3.86,4.01-3.86c1.42,0,2.7,0.73,3.43,1.96c2.45,4.12,8.08,15.95,7.35,36.68c-0.35,9.97-2.14,19.31-5.19,27.01
					c-0.42,1.05-1.39,1.78-2.52,1.88c-2,0.18-4.03,0.33-6.04,0.45C308.55,233.84,308.49,233.84,308.43,233.84z"/>
			</g>
			<g>
				<path class="st1" d="M311.57,168.85c0.32,0,0.65,0.15,0.86,0.49c3.8,6.39,7.52,18.31,6.93,35.05
					c-0.38,10.88-2.43,19.57-4.98,26.01c-1.93,0.17-3.91,0.32-5.95,0.44l2.13-61.03C310.58,169.21,311.07,168.85,311.57,168.85
					 M311.57,162.85c-3.8,0-6.87,2.97-7.01,6.76l-2.13,61.03c-0.06,1.69,0.6,3.32,1.8,4.5c1.12,1.1,2.63,1.71,4.19,1.71
					c0.12,0,0.23,0,0.35-0.01c2.06-0.12,4.13-0.27,6.13-0.45c2.26-0.2,4.21-1.66,5.04-3.77c3.17-8.02,5.04-17.71,5.4-28.01
					c0.75-21.53-5.19-33.97-7.77-38.32C316.31,164.13,314.06,162.85,311.57,162.85L311.57,162.85z"/>
			</g>
		</g>
		<g>
			<g>
				<path class="st4" d="M277.39,233.84c-2.01-0.12-4.04-0.27-6.04-0.45c-1.13-0.1-2.1-0.83-2.52-1.88
					c-3.05-7.7-4.85-17.04-5.19-27.01c-0.72-20.74,4.9-32.56,7.35-36.69c0.73-1.23,2.01-1.96,3.43-1.96c2.17,0,3.93,1.7,4.01,3.86
					l2.13,61.03c0.03,0.84-0.3,1.66-0.9,2.25c-0.56,0.55-1.32,0.85-2.1,0.85C277.51,233.84,277.45,233.84,277.39,233.84z"/>
			</g>
			<g>
				<path class="st1" d="M274.43,168.85c0.5,0,0.99,0.36,1.01,0.97l2.13,61.03c-2.04-0.12-4.02-0.27-5.95-0.44
					c-2.55-6.45-4.6-15.14-4.98-26.01c-0.58-16.74,3.13-28.66,6.93-35.05C273.78,169,274.1,168.85,274.43,168.85 M274.43,162.85
					c-2.49,0-4.73,1.28-6.01,3.43c-2.59,4.35-8.53,16.79-7.77,38.32c0.36,10.31,2.23,19.99,5.4,28.01c0.83,2.11,2.78,3.57,5.04,3.77
					c2,0.18,4.07,0.33,6.13,0.45c0.12,0.01,0.24,0.01,0.35,0.01c1.56,0,3.07-0.61,4.19-1.71c1.21-1.18,1.86-2.81,1.8-4.5
					l-2.13-61.03C281.3,165.82,278.22,162.85,274.43,162.85L274.43,162.85z"/>
			</g>
		</g>
		<g>
			<path class="st1" d="M276.39,234c-0.6,0-1.18-0.27-1.58-0.77c-0.2-0.26-4.92-6.47-4.13-16.94c0.08-1.1,1.03-1.93,2.14-1.84
				c1.1,0.08,1.93,1.04,1.84,2.14c-0.67,8.86,3.27,14.14,3.31,14.2c0.67,0.88,0.5,2.13-0.37,2.8
				C277.25,233.86,276.82,234,276.39,234z"/>
		</g>
		<g>
			<path class="st1" d="M309.6,234c-0.43,0-0.86-0.14-1.22-0.42c-0.87-0.68-1.03-1.93-0.35-2.81c0.03-0.04,3.97-5.33,3.3-14.19
				c-0.08-1.1,0.74-2.06,1.84-2.14c1.11-0.08,2.06,0.74,2.14,1.84c0.79,10.47-3.93,16.68-4.13,16.94
				C310.79,233.73,310.2,234,309.6,234z"/>
		</g>
	</g>
</g>
<g>
	<path class="st14" d="M266.2,57.2c-2.98,0-5.4-2.42-5.4-5.4c0-0.99-0.81-1.8-1.8-1.8c-0.99,0-1.8,0.81-1.8,1.8
		c0,2.98-2.42,5.4-5.4,5.4c-0.99,0-1.8,0.81-1.8,1.8s0.81,1.8,1.8,1.8c2.98,0,5.4,2.42,5.4,5.4c0,0.99,0.81,1.8,1.8,1.8
		c0.99,0,1.8-0.81,1.8-1.8c0-2.98,2.42-5.4,5.4-5.4c0.99,0,1.8-0.81,1.8-1.8S267.19,57.2,266.2,57.2z"/>
</g>
<g>
	<circle class="st14" cx="366.5" cy="186.5" r="2.5"/>
</g>
<g>
	<circle class="st14" cx="222.5" cy="52.5" r="2.5"/>
</g>
<g>
	<circle class="st14" cx="264.5" cy="114.5" r="4.5"/>
</g>
<g>
	<circle class="st14" cx="349" cy="169" r="3"/>
</g>
<g>
	<circle class="st14" cx="24.5" cy="64.5" r="4.5"/>
</g>
<g>
	<circle class="st14" cx="13" cy="93" r="3"/>
</g>
<path class="st14" d="M350,127h-7v-7c0-1.66-1.34-3-3-3s-3,1.34-3,3v7h-7c-1.66,0-3,1.34-3,3s1.34,3,3,3h7v7c0,1.66,1.34,3,3,3
	s3-1.34,3-3v-7h7c1.66,0,3-1.34,3-3S351.66,127,350,127z"/>
<path class="st14" d="M70,37h-7v-7c0-1.66-1.34-3-3-3s-3,1.34-3,3v7h-7c-1.66,0-3,1.34-3,3s1.34,3,3,3h7v7c0,1.66,1.34,3,3,3
	s3-1.34,3-3v-7h7c1.66,0,3-1.34,3-3S71.66,37,70,37z"/>
</svg>
