<?xml version="1.0" encoding="utf-8"?>
<!-- Generator: Adobe Illustrator 26.0.1, SVG Export Plug-In . SVG Version: 6.00 Build 0)  -->
<svg version="1.1" id="cro-featured-image" xmlns="http://www.w3.org/2000/svg" xmlns:xlink="http://www.w3.org/1999/xlink" x="0px"
	 y="0px" viewBox="0 0 440 440" style="enable-background:new 0 0 440 440;" xml:space="preserve">
<style type="text/css">
	.st0{fill:none;}
	.st1{fill:#515979;}
	.st2{fill:#FFFFFF;}
	.st3{fill:#F89D81;}
	.st4{fill:#667683;}
	.st5{fill:#EF7D7D;}
	.st6{fill:#FFE8A0;}
	.st7{fill:#7DDF96;}
	.st8{fill:#FDE6DF;}
	.st9{fill:#FFD886;}
	.st10{fill:#00C853;}
</style>
<rect class="st0" width="440" height="440"/>
<path class="st1" d="M390,361.5h-5c-0.83,0-1.5-0.67-1.5-1.5s0.67-1.5,1.5-1.5h5c0.83,0,1.5,0.67,1.5,1.5S390.83,361.5,390,361.5z
	 M376,361.5h-5c-0.83,0-1.5-0.67-1.5-1.5s0.67-1.5,1.5-1.5h5c0.83,0,1.5,0.67,1.5,1.5S376.83,361.5,376,361.5z M362,361.5h-5
	c-0.83,0-1.5-0.67-1.5-1.5s0.67-1.5,1.5-1.5h5c0.83,0,1.5,0.67,1.5,1.5S362.83,361.5,362,361.5z M348,361.5h-5
	c-0.83,0-1.5-0.67-1.5-1.5s0.67-1.5,1.5-1.5h5c0.83,0,1.5,0.67,1.5,1.5S348.83,361.5,348,361.5z M334,361.5h-5
	c-0.83,0-1.5-0.67-1.5-1.5s0.67-1.5,1.5-1.5h5c0.83,0,1.5,0.67,1.5,1.5S334.83,361.5,334,361.5z M399,361.45
	c-0.76,0-1.41-0.58-1.49-1.35c-0.08-0.83,0.52-1.56,1.34-1.64c1.41-0.14,2.78-0.64,3.95-1.44c0.68-0.47,1.62-0.29,2.08,0.39
	c0.47,0.68,0.29,1.62-0.39,2.08c-1.59,1.09-3.43,1.76-5.35,1.95C399.1,361.45,399.05,361.45,399,361.45z M407.98,352.21
	c-0.04,0-0.07,0-0.11,0c-0.83-0.06-1.45-0.78-1.39-1.6c0.01-0.2,0.02-0.4,0.02-0.6v-4.29c0-0.83,0.67-1.5,1.5-1.5s1.5,0.67,1.5,1.5
	V350c0,0.27-0.01,0.55-0.03,0.82C409.42,351.61,408.76,352.21,407.98,352.21z M408,338.21c-0.83,0-1.5-0.67-1.5-1.5v-5
	c0-0.83,0.67-1.5,1.5-1.5s1.5,0.67,1.5,1.5v5C409.5,337.54,408.83,338.21,408,338.21z M408,324.21c-0.83,0-1.5-0.67-1.5-1.5v-5
	c0-0.83,0.67-1.5,1.5-1.5s1.5,0.67,1.5,1.5v5C409.5,323.54,408.83,324.21,408,324.21z M408,310.21c-0.83,0-1.5-0.67-1.5-1.5v-5
	c0-0.83,0.67-1.5,1.5-1.5s1.5,0.67,1.5,1.5v5C409.5,309.54,408.83,310.21,408,310.21z M408,296.21c-0.83,0-1.5-0.67-1.5-1.5v-5
	c0-0.83,0.67-1.5,1.5-1.5s1.5,0.67,1.5,1.5v5C409.5,295.54,408.83,296.21,408,296.21z M408,282.21c-0.83,0-1.5-0.67-1.5-1.5v-5
	c0-0.83,0.67-1.5,1.5-1.5s1.5,0.67,1.5,1.5v5C409.5,281.54,408.83,282.21,408,282.21z M408,268.21c-0.83,0-1.5-0.67-1.5-1.5v-5
	c0-0.83,0.67-1.5,1.5-1.5s1.5,0.67,1.5,1.5v5C409.5,267.54,408.83,268.21,408,268.21z M408,254.21c-0.83,0-1.5-0.67-1.5-1.5v-5
	c0-0.83,0.67-1.5,1.5-1.5s1.5,0.67,1.5,1.5v5C409.5,253.54,408.83,254.21,408,254.21z M406.64,240.46c-0.51,0-1.02-0.27-1.3-0.74
	c-0.72-1.23-1.74-2.26-2.95-3c-0.71-0.43-0.94-1.35-0.51-2.06c0.43-0.71,1.35-0.94,2.06-0.51c1.64,0.99,3.02,2.39,3.99,4.05
	c0.42,0.71,0.18,1.63-0.54,2.05C407.16,240.39,406.9,240.46,406.64,240.46z M394.43,235.5h-5c-0.83,0-1.5-0.67-1.5-1.5
	s0.67-1.5,1.5-1.5h5c0.83,0,1.5,0.67,1.5,1.5S395.26,235.5,394.43,235.5z M380.43,235.5h-5c-0.83,0-1.5-0.67-1.5-1.5
	s0.67-1.5,1.5-1.5h5c0.83,0,1.5,0.67,1.5,1.5S381.26,235.5,380.43,235.5z"/>
<path class="st1" d="M148.29,361.5h-5c-0.83,0-1.5-0.67-1.5-1.5s0.67-1.5,1.5-1.5h5c0.83,0,1.5,0.67,1.5,1.5
	S149.11,361.5,148.29,361.5z M134.29,361.5h-5c-0.83,0-1.5-0.67-1.5-1.5s0.67-1.5,1.5-1.5h5c0.83,0,1.5,0.67,1.5,1.5
	S135.11,361.5,134.29,361.5z M120.29,361.5h-5c-0.83,0-1.5-0.67-1.5-1.5s0.67-1.5,1.5-1.5h5c0.83,0,1.5,0.67,1.5,1.5
	S121.11,361.5,120.29,361.5z M106.29,361.5h-5c-0.83,0-1.5-0.67-1.5-1.5s0.67-1.5,1.5-1.5h5c0.83,0,1.5,0.67,1.5,1.5
	S107.11,361.5,106.29,361.5z M92.29,361.5H92c-1.81,0-3.62-0.43-5.22-1.25c-0.74-0.38-1.03-1.28-0.65-2.02s1.28-1.03,2.02-0.65
	c1.2,0.61,2.5,0.92,3.86,0.92h0.29c0.83,0,1.5,0.67,1.5,1.5S93.11,361.5,92.29,361.5z M82.2,353.49c-0.7,0-1.33-0.49-1.47-1.2
	c-0.15-0.75-0.23-1.51-0.23-2.28v-3c0-0.83,0.67-1.5,1.5-1.5s1.5,0.67,1.5,1.5v3c0,0.57,0.06,1.14,0.17,1.69
	c0.16,0.81-0.36,1.6-1.17,1.77C82.39,353.48,82.29,353.49,82.2,353.49z M82,339.5c-0.83,0-1.5-0.67-1.5-1.5v-5
	c0-0.83,0.67-1.5,1.5-1.5s1.5,0.67,1.5,1.5v5C83.5,338.83,82.83,339.5,82,339.5z M82,325.5c-0.83,0-1.5-0.67-1.5-1.5v-5
	c0-0.83,0.67-1.5,1.5-1.5s1.5,0.67,1.5,1.5v5C83.5,324.83,82.83,325.5,82,325.5z M82,311.5c-0.83,0-1.5-0.67-1.5-1.5v-5
	c0-0.83,0.67-1.5,1.5-1.5s1.5,0.67,1.5,1.5v5C83.5,310.83,82.83,311.5,82,311.5z M82,297.5c-0.83,0-1.5-0.67-1.5-1.5v-5
	c0-0.83,0.67-1.5,1.5-1.5s1.5,0.67,1.5,1.5v5C83.5,296.83,82.83,297.5,82,297.5z"/>
<path class="st1" d="M335.71,186.5h-5c-0.83,0-1.5-0.67-1.5-1.5s0.67-1.5,1.5-1.5h5c0.83,0,1.5,0.67,1.5,1.5
	S336.54,186.5,335.71,186.5z M321.71,186.5h-5c-0.83,0-1.5-0.67-1.5-1.5s0.67-1.5,1.5-1.5h5c0.83,0,1.5,0.67,1.5,1.5
	S322.54,186.5,321.71,186.5z M307.71,186.5h-5c-0.83,0-1.5-0.67-1.5-1.5s0.67-1.5,1.5-1.5h5c0.83,0,1.5,0.67,1.5,1.5
	S308.54,186.5,307.71,186.5z M293.71,186.5h-5c-0.83,0-1.5-0.67-1.5-1.5s0.67-1.5,1.5-1.5h5c0.83,0,1.5,0.67,1.5,1.5
	S294.54,186.5,293.71,186.5z M279.71,186.5h-5c-0.83,0-1.5-0.67-1.5-1.5s0.67-1.5,1.5-1.5h5c0.83,0,1.5,0.67,1.5,1.5
	S280.54,186.5,279.71,186.5z M265.71,186.5h-5c-0.83,0-1.5-0.67-1.5-1.5s0.67-1.5,1.5-1.5h5c0.83,0,1.5,0.67,1.5,1.5
	S266.54,186.5,265.71,186.5z M251.71,186.5h-5c-0.83,0-1.5-0.67-1.5-1.5s0.67-1.5,1.5-1.5h5c0.83,0,1.5,0.67,1.5,1.5
	S252.54,186.5,251.71,186.5z M344.54,185.41c-0.55,0-1.07-0.3-1.34-0.82c-0.38-0.74-0.08-1.64,0.65-2.02
	c1.26-0.64,2.36-1.6,3.16-2.78c0.47-0.68,1.4-0.86,2.08-0.39s0.86,1.4,0.39,2.09c-1.09,1.59-2.56,2.88-4.27,3.76
	C345,185.36,344.77,185.41,344.54,185.41z M350,173.5c-0.83,0-1.5-0.67-1.5-1.5v-5c0-0.83,0.67-1.5,1.5-1.5s1.5,0.67,1.5,1.5v5
	C351.5,172.83,350.83,173.5,350,173.5z M350,159.5c-0.83,0-1.5-0.67-1.5-1.5v-5c0-0.83,0.67-1.5,1.5-1.5s1.5,0.67,1.5,1.5v5
	C351.5,158.83,350.83,159.5,350,159.5z M350,145.5c-0.83,0-1.5-0.67-1.5-1.5v-5c0-0.83,0.67-1.5,1.5-1.5s1.5,0.67,1.5,1.5v5
	C351.5,144.83,350.83,145.5,350,145.5z"/>
<path class="st2" d="M51,289c-7.17,0-13-5.83-13-13V50c0-7.17,5.83-13,13-13h180c7.17,0,13,5.83,13,13v226c0,7.17-5.83,13-13,13H51z
	"/>
<path class="st1" d="M231,40c5.52,0,10,4.48,10,10v226c0,5.52-4.48,10-10,10H51c-5.52,0-10-4.48-10-10V50c0-5.52,4.48-10,10-10H231
	 M231,34H51c-8.82,0-16,7.18-16,16v226c0,8.82,7.18,16,16,16h180c8.82,0,16-7.18,16-16V50C247,41.18,239.82,34,231,34L231,34z"/>
<path class="st3" d="M231,286H51c-5.52,0-10-4.48-10-10v-54h200v54C241,281.52,236.52,286,231,286z"/>
<rect x="41" y="74" class="st3" width="200" height="76"/>
<path class="st4" d="M41,71c-1.66,0-3-1.34-3-3V50c0-7.17,5.83-13,13-13h180c7.17,0,13,5.83,13,13v18c0,1.66-1.34,3-3,3H41z"/>
<path class="st1" d="M231,40c5.52,0,10,4.48,10,10v18H41V50c0-5.52,4.48-10,10-10H231 M231,34H51c-8.82,0-16,7.18-16,16v18
	c0,3.31,2.69,6,6,6h200c3.31,0,6-2.69,6-6V50C247,41.18,239.82,34,231,34L231,34z"/>
<path class="st2" d="M131,61c-3.86,0-7-3.14-7-7s3.14-7,7-7h94c3.86,0,7,3.14,7,7s-3.14,7-7,7H131z"/>
<path class="st1" d="M225,50c2.21,0,4,1.79,4,4s-1.79,4-4,4h-94c-2.21,0-4-1.79-4-4s1.79-4,4-4H225 M225,44h-94
	c-5.51,0-10,4.49-10,10s4.49,10,10,10h94c5.51,0,10-4.49,10-10S230.51,44,225,44L225,44z"/>
<circle class="st5" cx="57" cy="54" r="7"/>
<path class="st1" d="M57,50c2.21,0,4,1.79,4,4s-1.79,4-4,4s-4-1.79-4-4S54.79,50,57,50 M57,44c-5.51,0-10,4.49-10,10s4.49,10,10,10
	s10-4.49,10-10S62.51,44,57,44L57,44z"/>
<circle class="st6" cx="81" cy="54" r="7"/>
<path class="st1" d="M81,50c2.21,0,4,1.79,4,4s-1.79,4-4,4s-4-1.79-4-4S78.79,50,81,50 M81,44c-5.51,0-10,4.49-10,10s4.49,10,10,10
	s10-4.49,10-10S86.51,44,81,44L81,44z"/>
<circle class="st7" cx="105" cy="54" r="7"/>
<path class="st1" d="M105,50c2.21,0,4,1.79,4,4s-1.79,4-4,4s-4-1.79-4-4S102.79,50,105,50 M105,44c-5.51,0-10,4.49-10,10
	s4.49,10,10,10s10-4.49,10-10S110.51,44,105,44L105,44z"/>
<circle class="st5" cx="106" cy="110.5" r="2.5"/>
<circle class="st5" cx="111.5" cy="121.5" r="2.5"/>
<circle class="st5" cx="100.5" cy="121.5" r="2.5"/>
<circle class="st5" cx="176" cy="110.5" r="2.5"/>
<circle class="st5" cx="181.5" cy="121.5" r="2.5"/>
<circle class="st5" cx="170.5" cy="121.5" r="2.5"/>
<rect x="41" y="149" class="st8" width="200" height="74"/>
<path class="st2" d="M60,208h42c2.21,0,4-1.79,4-4v-36c0-2.21-1.79-4-4-4H60c-2.21,0-4,1.79-4,4v36C56,206.21,57.79,208,60,208z"/>
<circle class="st8" cx="68" cy="176" r="6"/>
<path class="st3" d="M98,190H64c-1.1,0-2-0.9-2-2l0,0c0-1.1,0.9-2,2-2h34c1.1,0,2,0.9,2,2l0,0C100,189.1,99.1,190,98,190z"/>
<path class="st3" d="M84,198H64c-1.1,0-2-0.9-2-2l0,0c0-1.1,0.9-2,2-2h20c1.1,0,2,0.9,2,2l0,0C86,197.1,85.1,198,84,198z"/>
<path class="st2" d="M180,208h42c2.21,0,4-1.79,4-4v-36c0-2.21-1.79-4-4-4h-42c-2.21,0-4,1.79-4,4v36C176,206.21,177.79,208,180,208
	z"/>
<circle class="st8" cx="188" cy="176" r="6"/>
<path class="st3" d="M218,190h-34c-1.1,0-2-0.9-2-2l0,0c0-1.1,0.9-2,2-2h34c1.1,0,2,0.9,2,2l0,0C220,189.1,219.1,190,218,190z"/>
<path class="st3" d="M196,198h-12c-1.1,0-2-0.9-2-2l0,0c0-1.1,0.9-2,2-2h12c1.1,0,2,0.9,2,2l0,0C198,197.1,197.1,198,196,198z"/>
<path class="st2" d="M120,208h42c2.21,0,4-1.79,4-4v-36c0-2.21-1.79-4-4-4h-42c-2.21,0-4,1.79-4,4v36C116,206.21,117.79,208,120,208
	z"/>
<circle class="st8" cx="128" cy="176" r="6"/>
<path class="st3" d="M158,190h-34c-1.1,0-2-0.9-2-2l0,0c0-1.1,0.9-2,2-2h34c1.1,0,2,0.9,2,2l0,0C160,189.1,159.1,190,158,190z"/>
<path class="st3" d="M150,198h-26c-1.1,0-2-0.9-2-2l0,0c0-1.1,0.9-2,2-2h26c1.1,0,2,0.9,2,2l0,0C152,197.1,151.1,198,150,198z"/>
<circle class="st8" cx="81" cy="256" r="24"/>
<circle class="st8" cx="141" cy="256" r="24"/>
<circle class="st8" cx="201" cy="256" r="24"/>
<path class="st1" d="M160.5,110.98c-0.32,0-0.64-0.08-0.94-0.24c-1.89-1.02-5.22-1.02-7.11,0c-0.98,0.52-2.19,0.16-2.71-0.82
	c-0.52-0.97-0.16-2.19,0.82-2.71c3.05-1.64,7.84-1.64,10.89,0c0.97,0.52,1.34,1.73,0.82,2.71
	C161.9,110.59,161.21,110.98,160.5,110.98z"/>
<circle class="st1" cx="156" cy="100.22" r="8"/>
<circle class="st2" cx="158" cy="100.22" r="2"/>
<path class="st1" d="M150.11,84.84c3.68-3.2,9.6-3.78,13.59-0.77c1.81,1.35,4.82,4.88,1.93,6.45c-0.74,0.34-1.5,0.14-2.13-0.25
	c-1.05-0.55-1.86-1.12-2.73-1.43c-2.91-1.36-6.23-0.67-9.32-0.51C149.62,88.39,148.73,85.99,150.11,84.84L150.11,84.84z"/>
<path class="st1" d="M130.5,110.98c-0.32,0-0.64-0.08-0.94-0.24c-1.89-1.02-5.22-1.02-7.11,0c-0.98,0.52-2.19,0.16-2.71-0.82
	c-0.52-0.97-0.16-2.19,0.82-2.71c3.05-1.64,7.84-1.64,10.89,0c0.97,0.52,1.34,1.73,0.82,2.71
	C131.9,110.59,131.21,110.98,130.5,110.98z"/>
<circle class="st1" cx="126" cy="100.22" r="8"/>
<circle class="st2" cx="128" cy="100.22" r="2"/>
<path class="st1" d="M129.93,88.33c-1.94-0.19-4.24-0.52-6.14-0.2c-2.14,0.25-3.69,1.26-5.66,2.33c-1,0.52-2.23,0.14-2.75-0.86
	c-0.3-0.57-0.3-1.22-0.06-1.77c1.83-4.71,7.87-6.81,12.48-5.23c1.95,0.66,6.22,2.41,4.28,5.04
	C131.53,88.31,130.7,88.38,129.93,88.33L129.93,88.33z"/>
<path class="st1" d="M141.42,123.26c-6.02,0-12.19-1.77-17.52-5.31c-0.92-0.61-1.17-1.85-0.56-2.77s1.85-1.17,2.77-0.56
	c9.2,6.1,21.68,6.11,29.68,0.02c0.88-0.67,2.13-0.5,2.8,0.38s0.5,2.13-0.38,2.8C153.45,121.44,147.51,123.26,141.42,123.26z"/>
<path class="st1" d="M136.82,126.36c2.7,0.79,5.66,0.86,8.34,0c1.29-0.47,2.34,1.21,1.39,2.17l-0.72,0.76
	c-2.84,2.68-7.68,2.05-10.33-0.58C134.38,127.75,135.45,125.89,136.82,126.36L136.82,126.36z"/>
<path class="st9" d="M337.6,293.6c2.65,0,4.8,2.15,4.8,4.8c0,0.88,0.72,1.6,1.6,1.6s1.6-0.72,1.6-1.6c0-2.65,2.15-4.8,4.8-4.8
	c0.88,0,1.6-0.72,1.6-1.6s-0.72-1.6-1.6-1.6c-2.65,0-4.8-2.15-4.8-4.8c0-0.88-0.72-1.6-1.6-1.6s-1.6,0.72-1.6,1.6
	c0,2.65-2.15,4.8-4.8,4.8c-0.88,0-1.6,0.72-1.6,1.6S336.72,293.6,337.6,293.6z"/>
<path class="st9" d="M70,366h-6v-6c0-1.66-1.34-3-3-3s-3,1.34-3,3v6h-6c-1.66,0-3,1.34-3,3s1.34,3,3,3h6v6c0,1.66,1.34,3,3,3
	s3-1.34,3-3v-6h6c1.66,0,3-1.34,3-3S71.66,366,70,366z"/>
<path class="st9" d="M362,399c-1.66,0-3-1.34-3-3v-18c0-1.66,1.34-3,3-3s3,1.34,3,3v18C365,397.66,363.66,399,362,399z"/>
<path class="st9" d="M371,390h-18c-1.66,0-3-1.34-3-3s1.34-3,3-3h18c1.66,0,3,1.34,3,3S372.66,390,371,390z"/>
<path class="st9" d="M284,44h-6v-6c0-1.66-1.34-3-3-3s-3,1.34-3,3v6h-6c-1.66,0-3,1.34-3,3s1.34,3,3,3h6v6c0,1.66,1.34,3,3,3
	s3-1.34,3-3v-6h6c1.66,0,3-1.34,3-3S285.66,44,284,44z"/>
<circle class="st9" cx="264.5" cy="118.5" r="4.5"/>
<path class="st9" d="M316.2,152.2c-2.98,0-5.4-2.42-5.4-5.4c0-0.99-0.81-1.8-1.8-1.8s-1.8,0.81-1.8,1.8c0,2.98-2.42,5.4-5.4,5.4
	c-0.99,0-1.8,0.81-1.8,1.8s0.81,1.8,1.8,1.8c2.98,0,5.4,2.42,5.4,5.4c0,0.99,0.81,1.8,1.8,1.8s1.8-0.81,1.8-1.8
	c0-2.98,2.42-5.4,5.4-5.4c0.99,0,1.8-0.81,1.8-1.8S317.19,152.2,316.2,152.2z"/>
<circle class="st9" cx="108.5" cy="331.5" r="4.5"/>
<circle class="st9" cx="352.5" cy="328.5" r="2.5"/>
<circle class="st9" cx="306.5" cy="296.5" r="3.5"/>
<circle class="st9" cx="104" cy="385" r="3"/>
<path class="st7" d="M154,404.65c-1.66-0.41-3-2.13-3-3.78c0-26.67,0-53.33,0-80c0-1.66,1.34-2.63,3-2.22
	c56.3,13.87,112.59-17.18,168.89-3.31c1.66,0.41,3,2.13,3,3.78c0,26.67,0,53.33,0,80c0,1.66-1.34,2.63-3,2.22
	C266.59,387.47,210.3,418.53,154,404.65z"/>
<path class="st1" d="M322.89,318.35c0,26.67,0,53.33,0,80c-56.3-13.87-112.59,17.18-168.89,3.31c0-26.67,0-53.33,0-80
	C210.3,335.53,266.59,304.47,322.89,318.35 M322.89,312.35c-56.3-13.87-112.59,17.18-168.89,3.31c-3.31-0.81-6,1.03-6,4.35
	c0,26.67,0,53.33,0,80c0,3.31,2.69,6.84,6,7.65c56.3,13.87,112.59-17.18,168.89-3.31c3.31,0.81,6-1.03,6-4.35c0-26.67,0-53.33,0-80
	C328.89,316.69,326.2,313.16,322.89,312.35L322.89,312.35z"/>
<g>
	<path class="st10" d="M207.33,364.19c0-14.18,6.63-27.25,16.39-34.89c-16.43,2.31-32.85,3.95-49.28,2.69
		c0,7.35-5.97,12.97-13.33,11.63v39.11c7.36,1.34,13.33,7.65,13.33,15.04c16.42,1.26,32.84-0.38,49.26-2.69
		C213.96,390.11,207.33,378.45,207.33,364.19z M184.22,376.86c-5.89-0.06-10.67-5.67-10.67-12.05c0-6.39,4.78-11.12,10.67-11.06
		c5.89,0.07,10.67,4.97,10.67,11.36C194.89,371.48,190.11,376.93,184.22,376.86z"/>
	<path class="st10" d="M302.44,322.24c-16.42-1.26-32.84,0.38-49.26,2.69c9.75,4.96,16.37,16.63,16.37,30.89
		c0,14.18-6.63,27.25-16.39,34.89c16.43-2.31,32.85-3.95,49.28-2.69c0-7.35,5.97-12.97,13.33-11.63v-39.11
		C308.41,335.93,302.44,329.62,302.44,322.24z M292.67,366.26c-5.89-0.07-10.67-4.97-10.67-11.36c0-6.37,4.78-11.82,10.67-11.75
		c5.89,0.06,10.67,5.67,10.67,12.05C303.33,361.58,298.56,366.31,292.67,366.26z"/>
</g>
<path class="st1" d="M243.94,362.96c-0.59,0-1.16-0.35-1.39-0.94c-0.31-0.77,0.06-1.64,0.83-1.95c2.19-0.89,5.69-1.07,7.97-0.42
	c0.8,0.23,1.26,1.06,1.03,1.86s-1.06,1.26-1.86,1.03c-1.63-0.47-4.44-0.32-6.01,0.32C244.32,362.93,244.13,362.96,243.94,362.96z"/>
<circle class="st1" cx="247.09" cy="354.58" r="6"/>
<circle class="st2" cx="248.58" cy="354.5" r="1.5"/>
<path class="st1" d="M223.97,364.01c-0.59,0-1.16-0.35-1.39-0.94c-0.31-0.77,0.06-1.64,0.83-1.95c2.19-0.89,5.69-1.07,7.97-0.42
	c0.8,0.23,1.26,1.06,1.03,1.86s-1.06,1.26-1.86,1.03c-1.63-0.47-4.44-0.32-6.01,0.32C224.35,363.97,224.16,364.01,223.97,364.01z"/>
<circle class="st1" cx="227.11" cy="355.63" r="6"/>
<circle class="st2" cx="228.61" cy="355.55" r="1.5"/>
<path class="st1" d="M242.81,340.93c3.46-2.38,8.89-2.19,11.53,1.3c0.9,1.15-0.16,2.93-1.59,2.72c-1.58-0.19-2.89-0.48-4.43-0.59
	c-1.47-0.14-3.37-0.1-4.81-0.36C242.04,343.81,241.59,341.73,242.81,340.93L242.81,340.93z"/>
<path class="st1" d="M229.14,344.84c-1.24,0.3-3.06,0.5-4.33,0.75c-1.52,0.27-2.79,0.7-4.34,1.05c-0.93,0.21-1.85-0.38-2.05-1.31
	c-0.1-0.44-0.02-0.88,0.19-1.24c1.64-2.85,5.32-3.93,8.4-3.47c1.02,0.15,1.93,0.41,2.93,0.97
	C231.47,342.53,230.85,344.64,229.14,344.84L229.14,344.84z"/>
<path class="st1" d="M253.81,368.15c-0.11-2.13-1.88-3.79-3.99-3.79c-0.07,0-0.14,0-0.21,0.01l-23.97,1.26
	c-2.21,0.12-3.9,2-3.79,4.2c0.45,8.5,7.46,15.16,15.97,15.16c0.28,0,0.56-0.01,0.85-0.02c4.27-0.22,8.19-2.1,11.05-5.27
	S254.03,372.42,253.81,368.15z"/>
<ellipse transform="matrix(0.9986 -0.0523 0.0523 0.9986 -19.3905 12.9758)" class="st5" cx="238.23" cy="376.98" rx="8.93" ry="4"/>
<circle class="st9" cx="350" cy="83" r="53"/>
<path class="st1" d="M350,33c27.61,0,50,22.39,50,50s-22.39,50-50,50s-50-22.39-50-50S322.39,33,350,33 M350,27
	c-30.88,0-56,25.12-56,56s25.12,56,56,56s56-25.12,56-56S380.88,27,350,27L350,27z"/>
<path class="st1" d="M374.01,84H326c-3.31,0-6,2.69-6,6c0,16.54,13.46,30,30,30c16.48,0,29.89-13.35,30-29.8c0-0.06,0-0.13,0-0.2
	C380,86.69,377.32,84,374.01,84z"/>
<ellipse class="st5" cx="350" cy="104.4" rx="19.2" ry="9.6"/>
<circle class="st1" cx="367" cy="68.25" r="8"/>
<circle class="st2" cx="369" cy="68.25" r="2"/>
<circle class="st1" cx="333" cy="68.25" r="8"/>
<circle class="st2" cx="335" cy="68.25" r="2"/>
<path class="st1" d="M337.5,79.25c-0.32,0-0.64-0.08-0.94-0.24c-1.89-1.02-5.21-1.02-7.11,0c-0.97,0.52-2.18,0.16-2.71-0.82
	c-0.52-0.97-0.16-2.19,0.82-2.71c3.05-1.64,7.84-1.64,10.89,0c0.97,0.52,1.34,1.73,0.82,2.71C338.9,78.87,338.21,79.25,337.5,79.25z
	"/>
<path class="st1" d="M371.5,79.25c-0.32,0-0.64-0.08-0.94-0.24c-1.89-1.02-5.21-1.02-7.11,0c-0.97,0.52-2.18,0.16-2.71-0.82
	c-0.52-0.97-0.16-2.19,0.82-2.71c3.05-1.64,7.84-1.64,10.89,0c0.97,0.52,1.34,1.73,0.82,2.71C372.9,78.87,372.21,79.25,371.5,79.25z
	"/>
<path class="st1" d="M360.03,53.2c3.68-3.18,9.58-3.76,13.56-0.78c1.82,1.34,4.84,4.86,1.96,6.44c-0.74,0.34-1.49,0.14-2.13-0.24
	c-1.05-0.54-1.86-1.11-2.74-1.41c-2.91-1.34-6.23-0.67-9.33-0.51C359.53,56.75,358.64,54.34,360.03,53.2L360.03,53.2z"/>
<path class="st1" d="M338.02,56.53c-1.94-0.19-4.24-0.52-6.14-0.2c-2.14,0.25-3.69,1.26-5.66,2.33c-1,0.52-2.23,0.14-2.75-0.86
	c-0.3-0.57-0.3-1.22-0.06-1.77c1.83-4.71,7.87-6.81,12.48-5.23c1.95,0.66,6.22,2.41,4.28,5.04
	C339.62,56.51,338.79,56.58,338.02,56.53L338.02,56.53z"/>
<path class="st7" d="M270.44,265.27c-1.66-0.37-3-2.08-3-3.73c0-15.79,0-31.58,0-47.37c0-1.66,1.34-2.63,3-2.27
	c33.33,7.38,66.67-10.6,100-3.23c1.66,0.37,3,2.08,3,3.73c0,15.79,0,31.58,0,47.37c0,1.66-1.34,2.63-3,2.27
	C337.11,254.67,303.78,272.65,270.44,265.27z"/>
<path class="st1" d="M370.44,211.68c0,15.79,0,31.58,0,47.37c-33.33-7.38-66.67,10.6-100,3.23c0-15.79,0-31.58,0-47.37
	C303.78,222.28,337.11,204.3,370.44,211.68 M370.44,205.68c-33.33-7.38-66.67,10.6-100,3.23c-3.31-0.73-6,1.07-6,4.39
	c0,15.79,0,31.58,0,47.37c0,3.31,2.69,6.89,6,7.61c33.33,7.38,66.67-10.6,100-3.23c3.31,0.73,6-1.07,6-4.39c0-15.79,0-31.58,0-47.37
	C376.44,209.98,373.76,206.41,370.44,205.68L370.44,205.68z"/>
<g>
	<path class="st10" d="M302.02,239.59c0-8.4,3.93-16.17,9.71-20.74c-9.73,1.43-19.45,2.49-29.18,1.92c0,4.35-3.53,7.74-7.89,7.04
		v23.16c4.36,0.7,7.89,4.38,7.89,8.75c9.72,0.58,19.45-0.48,29.17-1.91C305.95,254.9,302.02,248.03,302.02,239.59z M288.34,247.25
		c-3.49,0.01-6.32-3.26-6.32-7.04s2.83-6.63,6.32-6.65c3.49-0.01,6.32,2.86,6.32,6.65C294.65,243.98,291.83,247.24,288.34,247.25z"
		/>
	<path class="st10" d="M358.34,214.24c-9.72-0.58-19.45,0.48-29.17,1.91c5.77,2.9,9.69,9.77,9.7,18.21c0,8.4-3.93,16.17-9.71,20.74
		c9.73-1.43,19.45-2.49,29.18-1.92c0-4.35,3.54-7.74,7.89-7.04v-23.16C361.87,222.29,358.34,218.61,358.34,214.24z M352.55,240.39
		c-3.49,0.01-6.32-2.86-6.32-6.65c0-3.77,2.83-7.03,6.32-7.04c3.49-0.01,6.32,3.26,6.32,7.04
		C358.86,237.52,356.04,240.38,352.55,240.39z"/>
</g>
<path class="st10" d="M323.73,239.71c0-1.2-1.17-1.41-3.54-1.27c-4.11,0.18-7.41-0.13-7.65-5.05c0-3.15,2.01-5.61,5.73-6.8
	c0-0.77,0-1.54,0-2.31c1.5-0.24,3-0.48,4.5-0.71c0,0.77,0,1.54,0,2.31c2.43,0.04,4.14,1.06,5.16,3.1c0.06,0.08,0.09,0.14,0.12,0.22
	c0.1,0.2,0.2,0.41,0.3,0.62c-1.46,0.88-2.92,1.76-4.38,2.65c-0.15-0.27-0.3-0.53-0.45-0.8c-0.6-1.08-1.38-1.52-3.03-1.26
	c-2.13,0.34-3.03,0.93-3.03,2.22c0,1.11,1.26,1.33,3.57,1.2c3.96-0.22,7.56,0.14,7.56,5.04c0,3.21-2.1,5.74-5.82,7.02
	c0,0.8,0,1.6,0,2.4c-1.5,0.24-3,0.48-4.5,0.71c0-0.78,0-1.56,0-2.34c-2.94,0.02-4.86-1.16-5.79-3.48c-0.11-0.28-0.22-0.57-0.33-0.85
	c1.5-0.75,3-1.51,4.5-2.28c0.12,0.27,0.24,0.54,0.36,0.81c0.48,1.16,1.59,1.58,3.3,1.31C322.59,241.81,323.73,241,323.73,239.71z"/>
</svg>
