<?xml version="1.0" encoding="utf-8"?>
<!-- Generator: Adobe Illustrator 26.5.0, SVG Export Plug-In . SVG Version: 6.00 Build 0)  -->
<svg version="1.1" id="chapter-05_00000165222806867868783090000000997545296277839003_"
	 xmlns="http://www.w3.org/2000/svg" xmlns:xlink="http://www.w3.org/1999/xlink" x="0px" y="0px" viewBox="0 0 300 300"
	 style="enable-background:new 0 0 300 300;" xml:space="preserve">
<style type="text/css">
	.st0{fill:#7DDF96;}
	.st1{fill:#515979;}
	.st2{fill:#00C853;}
	.st3{fill:#F89D81;}
	.st4{fill:#00AF55;}
	.st5{fill:#9E8271;}
	.st6{fill:#876969;}
	.st7{fill:none;}
	.st8{fill:#FFD886;}
	.st9{fill:#75A5C3;}
	.st10{fill:#ACC9DB;}
</style>
<path class="st0" d="M75.61,264.46c-0.59,0-1.18-0.17-1.68-0.51L52.2,249.3c-1.22-0.82-1.67-2.42-1.04-3.75
	c7.88-16.91,18.32-32.41,31.04-46.06c0.59-0.63,1.39-0.96,2.2-0.96c0.58,0,1.16,0.17,1.68,0.51l21.73,14.65
	c0.73,0.49,1.2,1.27,1.3,2.15s-0.19,1.74-0.79,2.39c-12.29,13.19-22.38,28.16-29.99,44.5c-0.37,0.8-1.07,1.39-1.92,1.62
	C76.15,264.43,75.88,264.46,75.61,264.46z"/>
<path class="st1" d="M84.39,201.54c7.24,4.88,14.49,9.77,21.73,14.65c-12.48,13.4-22.78,28.68-30.52,45.28
	c-7.25-4.88-14.49-9.77-21.73-14.65C61.61,230.22,71.91,214.93,84.39,201.54 M84.39,195.54c-1.62,0-3.22,0.65-4.39,1.91
	c-12.93,13.88-23.55,29.64-31.57,46.84c-1.25,2.68-0.36,5.86,2.09,7.51l21.73,14.65c1,0.67,2.17,1.02,3.35,1.02
	c0.54,0,1.08-0.07,1.61-0.22c1.69-0.47,3.09-1.66,3.83-3.25c7.48-16.05,17.39-30.77,29.47-43.72c1.2-1.28,1.77-3.03,1.57-4.77
	s-1.15-3.31-2.61-4.29l-13.1-8.83l-8.64-5.82C86.72,195.87,85.55,195.54,84.39,195.54L84.39,195.54z"/>
<path class="st2" d="M82,207.86c-3.49,4.04-6.78,8.23-9.88,12.57c3.53-1.43,8.16-0.9,11.97,1.67c3.82,2.57,5.81,6.51,5.66,10.22
	c3.1-4.33,6.39-8.53,9.88-12.57c-1.97-1.33-2.31-3.88-0.7-5.65c-3.5-2.36-6.99-4.71-10.49-7.07C86.84,208.8,83.98,209.2,82,207.86z
	 M91.87,218.32c-1.22,1.47-3.57,1.75-5.29,0.6c-1.71-1.15-2.13-3.3-0.91-4.77c1.22-1.47,3.63-1.7,5.34-0.55
	C92.72,214.74,93.09,216.85,91.87,218.32z"/>
<path class="st0" d="M68.59,262.23c-0.41,0-0.81-0.08-1.2-0.25c-0.8-0.35-1.42-1.03-1.67-1.87c-5.28-17.24-13.2-33.46-23.54-48.23
	c-0.5-0.72-0.67-1.62-0.45-2.47s0.8-1.56,1.59-1.95l23.55-11.5c0.42-0.21,0.87-0.3,1.31-0.3c0.95,0,1.88,0.45,2.46,1.28
	c10.71,15.28,18.91,32.07,24.37,49.91c0.43,1.41-0.23,2.93-1.55,3.57l-23.55,11.5C69.49,262.13,69.04,262.23,68.59,262.23z"/>
<path class="st1" d="M68.18,198.67c10.51,15,18.59,31.56,23.96,49.07c-7.85,3.83-15.7,7.67-23.55,11.5
	c-5.36-17.51-13.45-34.07-23.96-49.07C52.48,206.33,60.33,202.5,68.18,198.67 M68.18,192.67c-0.89,0-1.79,0.2-2.63,0.61L42,204.77
	c-1.58,0.77-2.74,2.19-3.18,3.89s-0.11,3.51,0.9,4.94c10.16,14.5,17.95,30.45,23.13,47.38c0.51,1.68,1.74,3.05,3.35,3.75
	c0.76,0.33,1.58,0.5,2.39,0.5c0.9,0,1.8-0.2,2.63-0.61l23.55-11.5c2.65-1.29,3.97-4.33,3.1-7.15
	c-5.55-18.14-13.89-35.22-24.78-50.76C71.94,193.58,70.09,192.67,68.18,192.67L68.18,192.67z"/>
<path class="st2" d="M65.63,219.07c4.13-2.01,8.79-1.9,12.09,0.01c-2.47-4.72-5.15-9.33-8.04-13.81c-2.14,1.05-4.92,0.26-6.27-1.72
	c-3.79,1.85-7.58,3.7-11.36,5.55c1.35,1.98,0.66,4.46-1.48,5.5c2.89,4.48,5.58,9.09,8.04,13.81
	C58.97,224.71,61.49,221.09,65.63,219.07z M58.46,214.25c-1.01-1.63-0.35-3.66,1.5-4.57s4.21-0.34,5.21,1.29
	c1.01,1.63,0.29,3.69-1.56,4.6C61.76,216.48,59.46,215.88,58.46,214.25z"/>
<path class="st0" d="M72.61,277.46c-0.59,0-1.18-0.17-1.68-0.51L49.2,262.3c-1.22-0.82-1.67-2.42-1.04-3.75
	c7.88-16.91,18.32-32.41,31.04-46.06c0.59-0.63,1.39-0.96,2.2-0.96c0.58,0,1.16,0.17,1.68,0.51l21.73,14.65
	c0.73,0.49,1.2,1.27,1.3,2.15s-0.19,1.74-0.79,2.39c-12.29,13.19-22.38,28.16-29.99,44.5c-0.37,0.8-1.07,1.39-1.92,1.62
	C73.15,277.43,72.88,277.46,72.61,277.46z"/>
<path class="st1" d="M81.39,214.54c7.24,4.88,14.49,9.77,21.73,14.65c-12.48,13.4-22.78,28.68-30.52,45.28
	c-7.25-4.88-14.49-9.77-21.73-14.65C58.61,243.22,68.91,227.93,81.39,214.54 M81.39,208.54c-1.62,0-3.22,0.65-4.39,1.91
	c-12.93,13.88-23.55,29.64-31.57,46.84c-1.25,2.68-0.36,5.86,2.09,7.51l21.73,14.65c1,0.67,2.17,1.02,3.35,1.02
	c0.54,0,1.08-0.07,1.61-0.22c1.69-0.47,3.09-1.66,3.83-3.25c7.48-16.05,17.39-30.77,29.47-43.72c1.2-1.28,1.77-3.03,1.57-4.77
	s-1.15-3.31-2.61-4.29l-13.1-8.83l-8.64-5.82C83.72,208.87,82.55,208.54,81.39,208.54L81.39,208.54z"/>
<path class="st2" d="M79,220.86c-3.49,4.04-6.78,8.23-9.88,12.57c3.53-1.43,8.16-0.9,11.97,1.67c3.82,2.57,5.81,6.51,5.66,10.22
	c3.1-4.33,6.39-8.53,9.88-12.57c-1.97-1.33-2.31-3.88-0.7-5.65c-3.5-2.36-6.99-4.71-10.49-7.07C83.84,221.8,80.98,222.2,79,220.86z
	 M88.87,231.32c-1.22,1.47-3.57,1.75-5.29,0.6c-1.71-1.15-2.13-3.3-0.91-4.77c1.22-1.47,3.63-1.7,5.34-0.55
	C89.72,227.74,90.09,229.85,88.87,231.32z"/>
<path class="st0" d="M69.75,277.07c-0.29,0-0.59-0.04-0.88-0.13c-0.84-0.26-1.52-0.87-1.87-1.67c-7.2-16.53-16.9-31.75-28.85-45.25
	c-0.58-0.66-0.85-1.54-0.73-2.41c0.12-0.87,0.62-1.64,1.36-2.11l22.1-14.09c0.5-0.32,1.06-0.47,1.61-0.47
	c0.83,0,1.66,0.35,2.25,1.01c12.37,13.97,22.42,29.72,29.86,46.83c0.59,1.35,0.11,2.93-1.14,3.73l-22.1,14.09
	C70.88,276.91,70.32,277.07,69.75,277.07z"/>
<path class="st1" d="M62.49,213.93c12.14,13.71,22.05,29.25,29.36,46.04c-7.37,4.7-14.73,9.39-22.1,14.09
	c-7.31-16.79-17.22-32.33-29.36-46.04C47.76,223.33,55.13,218.63,62.49,213.93 M62.49,207.93c-1.11,0-2.23,0.31-3.22,0.94
	l-22.1,14.09c-1.48,0.94-2.47,2.49-2.72,4.23c-0.24,1.74,0.29,3.5,1.45,4.81c11.74,13.26,21.28,28.22,28.35,44.46
	c0.7,1.61,2.07,2.83,3.75,3.34c0.57,0.18,1.16,0.26,1.75,0.26c1.13,0,2.25-0.32,3.23-0.94l22.1-14.09c2.49-1.59,3.45-4.75,2.28-7.45
	c-7.57-17.4-17.79-33.42-30.37-47.62C65.81,208.63,64.16,207.93,62.49,207.93L62.49,207.93z"/>
<path class="st2" d="M62.27,234.5c3.88-2.47,8.52-2.89,12.01-1.36c-2.99-4.41-6.17-8.69-9.56-12.81c-2.01,1.28-4.86,0.81-6.42-1
	c-3.55,2.27-7.11,4.53-10.66,6.8c1.56,1.81,1.16,4.36-0.85,5.63c3.38,4.13,6.57,8.4,9.56,12.81
	C56.29,240.85,58.38,236.97,62.27,234.5z M54.59,230.52c-1.19-1.5-0.76-3.6,0.98-4.71c1.74-1.11,4.14-0.81,5.32,0.69
	c1.19,1.5,0.71,3.64-1.03,4.75C58.12,232.36,55.78,232.02,54.59,230.52z"/>
<path class="st3" d="M95,258c-1.66,0-3-1.34-3-3v-6c0-1.66,1.34-3,3-3h17c3.31,0,6,2.69,6,6s-2.69,6-6,6H95z"/>
<path class="st1" d="M112,249c1.66,0,3,1.34,3,3s-1.34,3-3,3H95v-6H112 M112,243H95c-3.31,0-6,2.69-6,6v6c0,3.31,2.69,6,6,6h17
	c4.96,0,9-4.04,9-9S116.96,243,112,243L112,243z"/>
<path class="st3" d="M34,258c-3.31,0-6-2.69-6-6s2.69-6,6-6h17c1.66,0,3,1.34,3,3v6c0,1.66-1.34,3-3,3H34z"/>
<path class="st1" d="M51,249v6H34c-1.66,0-3-1.34-3-3s1.34-3,3-3H51 M51,243H34c-4.96,0-9,4.04-9,9c0,4.96,4.04,9,9,9h17
	c3.31,0,6-2.69,6-6v-6C57,245.69,54.31,243,51,243L51,243z"/>
<path class="st2" d="M201,201c-10.95,0-21.5-3.72-30-10.54c-8.5,6.81-19.05,10.54-30,10.54c-14.95,0-29.16-7.07-38.21-18.96
	c-11.67-4.21-19.96-14.57-21.52-26.85C72.82,147.42,68,136.49,68,125c0-12.23,5.31-23.57,14.63-31.39C82.21,91.44,82,89.22,82,87
	c0-17.72,13.39-32.65,30.8-34.74C120.15,38.07,134.95,29,151,29c9.09,0,17.72,2.78,25.05,8.06C180.77,35.03,185.79,34,191,34
	c13.21,0,25.43,6.86,32.34,18.04C223.9,52.01,224.45,52,225,52c19.3,0,35,15.7,35,35c0,2.86-0.35,5.7-1.03,8.46
	C267.28,103.04,272,113.7,272,125c0,11.27-4.74,21.95-13.04,29.54c-0.61,13.05-8.95,24.61-21.18,29.29
	C228.62,194.75,215.27,201,201,201z"/>
<path class="st1" d="M151,32c9.31,0,17.88,3.19,24.67,8.53C180.3,38.27,185.5,37,191,37c13.23,0,24.74,7.34,30.69,18.17
	c1.09-0.11,2.19-0.17,3.31-0.17c17.67,0,32,14.33,32,32c0,3.3-0.5,6.48-1.43,9.48c8.2,6.79,13.43,17.04,13.43,28.52
	c0,11.28-5.05,21.37-13,28.15c-0.06,13-8.4,24.04-20.01,28.14C227.74,191.48,215.13,198,201,198c-11.53,0-22.04-4.34-30-11.47
	c-7.96,7.13-18.47,11.47-30,11.47c-14.94,0-28.18-7.29-36.36-18.5c-11.16-3.66-19.43-13.69-20.51-25.79
	C76.09,146.75,71,136.47,71,125c0-12.32,5.87-23.27,14.96-30.21C85.34,92.29,85,89.69,85,87c0-16.92,13.13-30.76,29.75-31.91
	C121.12,41.45,134.95,32,151,32 M151,26c-16.64,0-32.03,9.12-40.12,23.5C92.75,52.45,79,68.3,79,87c0,1.83,0.13,3.65,0.39,5.46
	C70.2,100.79,65,112.45,65,125c0,11.97,4.87,23.37,13.45,31.65c1.99,12.63,10.54,23.26,22.49,27.9C110.58,196.76,125.41,204,141,204
	c10.84,0,21.32-3.44,30-9.76c8.68,6.33,19.16,9.76,30,9.76c14.9,0,28.87-6.41,38.58-17.66c12.56-5.12,21.2-16.96,22.29-30.43
	C270.25,147.82,275,136.7,275,125c0-11.56-4.6-22.49-12.73-30.54c0.49-2.45,0.73-4.94,0.73-7.46c0-20.95-17.05-38-38-38
	c-0.02,0-0.04,0-0.06,0c-7.59-11.19-20.27-18-33.94-18c-5.05,0-9.93,0.9-14.58,2.67C168.89,28.64,160.17,26,151,26L151,26z"/>
<path class="st4" d="M104.64,179.5c8.18,11.21,21.42,18.5,36.36,18.5c11.53,0,22.04-4.34,30-11.47c7.96,7.13,18.47,11.47,30,11.47
	c14.13,0,26.74-6.52,34.99-16.71c11.61-4.1,19.95-15.14,20.01-28.14c-0.02-0.33-7.34,12.91-25.53,13.84
	c-16.58,14.77-43.13,14.56-59.47-0.46c-16.35,15.01-42.84,15.27-59.47,0.46c-7.6-0.7-21,0.96-27.4-13.28
	C85.21,165.82,93.48,175.84,104.64,179.5z"/>
<path class="st5" d="M191.36,169.96c-0.45,0.02-0.9,0.04-1.36,0.04c-8.18,0-15.44-3.93-20-10c-4.56,6.07-11.82,10-20,10
	c-0.46,0-0.91-0.01-1.36-0.04c-1.93,50.17-5.79,94.15-16.28,113.61c-0.5,0.93-0.48,2.05,0.06,2.96s1.52,1.46,2.58,1.46h70
	c1.06,0,2.03-0.56,2.58-1.46c0.54-0.91,0.57-2.03,0.06-2.96C197.15,264.12,193.29,220.13,191.36,169.96z"/>
<path class="st1" d="M194.34,169.62c-1.41,0.25-2.86,0.38-4.34,0.38c-0.56,0-1.11-0.02-1.66-0.06
	c1.94,51.13,5.83,94.98,16.66,115.06h-70c10.83-20.08,14.72-63.93,16.66-115.06c-0.55,0.04-1.1,0.06-1.66,0.06
	c-1.48,0-2.93-0.14-4.34-0.38c-1.9,49.88-5.69,93.53-15.94,112.54c-1,1.86-0.95,4.11,0.13,5.92c1.08,1.81,3.04,2.92,5.15,2.92h70
	c2.11,0,4.07-1.11,5.15-2.92c1.08-1.81,1.13-4.06,0.13-5.92C200.04,263.15,196.25,219.5,194.34,169.62z"/>
<path class="st6" d="M170,160c-4.25,5.66-10.85,9.45-18.35,9.94c-0.19,5.08-0.4,10.1-0.64,15.03c7.76-0.31,14.62-4.15,18.99-9.97
	c4.37,5.82,11.22,9.66,18.99,9.97c-0.24-4.92-0.45-9.94-0.64-15.03C180.85,169.45,174.25,165.66,170,160z"/>
<rect class="st7" width="300" height="300"/>
<path class="st8" d="M58.4,49.4c-2.65,0-4.8-2.15-4.8-4.8c0-0.88-0.72-1.6-1.6-1.6c-0.88,0-1.6,0.72-1.6,1.6
	c0,2.65-2.15,4.8-4.8,4.8c-0.88,0-1.6,0.72-1.6,1.6s0.72,1.6,1.6,1.6c2.65,0,4.8,2.15,4.8,4.8c0,0.88,0.72,1.6,1.6,1.6
	c0.88,0,1.6-0.72,1.6-1.6c0-2.65,2.15-4.8,4.8-4.8c0.88,0,1.6-0.72,1.6-1.6S59.28,49.4,58.4,49.4z"/>
<path class="st8" d="M294.4,30.4c-2.65,0-4.8-2.15-4.8-4.8c0-0.88-0.72-1.6-1.6-1.6s-1.6,0.72-1.6,1.6c0,2.65-2.15,4.8-4.8,4.8
	c-0.88,0-1.6,0.72-1.6,1.6c0,0.88,0.72,1.6,1.6,1.6c2.65,0,4.8,2.15,4.8,4.8c0,0.88,0.72,1.6,1.6,1.6s1.6-0.72,1.6-1.6
	c0-2.65,2.15-4.8,4.8-4.8c0.88,0,1.6-0.72,1.6-1.6C296,31.12,295.28,30.4,294.4,30.4z"/>
<circle class="st8" cx="268" cy="13" r="3"/>
<circle class="st8" cx="21" cy="51" r="3"/>
<circle class="st8" cx="271" cy="56.5" r="2.5"/>
<path class="st8" d="M262.2,227.2c-2.98,0-5.4-2.42-5.4-5.4c0-0.99-0.81-1.8-1.8-1.8s-1.8,0.81-1.8,1.8c0,2.98-2.42,5.4-5.4,5.4
	c-0.99,0-1.8,0.81-1.8,1.8s0.81,1.8,1.8,1.8c2.98,0,5.4,2.42,5.4,5.4c0,0.99,0.81,1.8,1.8,1.8s1.8-0.81,1.8-1.8
	c0-2.98,2.42-5.4,5.4-5.4c0.99,0,1.8-0.81,1.8-1.8S263.19,227.2,262.2,227.2z"/>
<path class="st8" d="M41.2,158.2c-2.98,0-5.4-2.42-5.4-5.4c0-0.99-0.81-1.8-1.8-1.8c-0.99,0-1.8,0.81-1.8,1.8
	c0,2.98-2.42,5.4-5.4,5.4c-0.99,0-1.8,0.81-1.8,1.8s0.81,1.8,1.8,1.8c2.98,0,5.4,2.42,5.4,5.4c0,0.99,0.81,1.8,1.8,1.8
	c0.99,0,1.8-0.81,1.8-1.8c0-2.98,2.42-5.4,5.4-5.4c0.99,0,1.8-0.81,1.8-1.8S42.19,158.2,41.2,158.2z"/>
<circle class="st8" cx="225" cy="229.5" r="2.5"/>
<circle class="st8" cx="258" cy="202" r="3"/>
<circle class="st8" cx="64" cy="18.5" r="4.5"/>
<circle class="st8" cx="30" cy="16.5" r="2.5"/>
<circle class="st8" cx="52" cy="134" r="3"/>
<circle class="st8" cx="66" cy="175" r="4"/>
<path class="st8" d="M246,25h-5v-5c0-1.66-1.34-3-3-3s-3,1.34-3,3v5h-5c-1.66,0-3,1.34-3,3s1.34,3,3,3h5v5c0,1.66,1.34,3,3,3
	s3-1.34,3-3v-5h5c1.66,0,3-1.34,3-3S247.66,25,246,25z"/>
<path class="st1" d="M190,173c-7.65,0-14.76-3.02-20-8.4c-5.24,5.38-12.35,8.4-20,8.4c-5.09,0-10.07-1.38-14.41-3.99
	c-1.42-0.85-1.88-2.7-1.02-4.12c0.85-1.42,2.7-1.88,4.12-1.03c3.4,2.06,7.31,3.14,11.31,3.14c6.98,0,13.4-3.21,17.6-8.8
	c0.57-0.75,1.46-1.2,2.4-1.2s1.83,0.44,2.4,1.2c4.2,5.59,10.62,8.8,17.6,8.8c3.87,0,7.67-1.02,11-2.94c1.43-0.83,3.27-0.34,4.1,1.09
	s0.34,3.27-1.09,4.1C199.77,171.7,194.92,173,190,173z"/>
<path class="st1" d="M178.21,186.67c3.26-2.3,8.41-1.59,10.53,1.87c0.77,1.21-0.35,2.87-1.75,2.62c-0.8-0.09-1.62-0.32-2.28-0.45
	c-1.96-0.53-4.07-0.53-6.02-1.1C177.39,189.28,177.09,187.4,178.21,186.67L178.21,186.67z"/>
<path class="st1" d="M160.65,189.8c-2.49,0.39-4.78,0.74-7.27,1.31c-1.05,0.29-2.2-0.3-2.35-1.43c-0.1-1.43,1.23-2.5,2.32-3.22
	c2.58-1.55,5.92-1.54,8.44,0.21c0.75,0.53,0.93,1.56,0.4,2.31C161.86,189.51,161.2,189.65,160.65,189.8L160.65,189.8z"/>
<path class="st2" d="M116,288v-3c0-4.96,4.04-9,9-9c4.96,0,9,4.04,9,9v3H116z"/>
<path class="st1" d="M125,279c3.31,0,6,2.69,6,6h-12C119,281.69,121.69,279,125,279 M125,273c-6.62,0-12,5.38-12,12v6h6h12h6v-6
	C137,278.38,131.62,273,125,273L125,273z"/>
<path class="st2" d="M134,288v-3c0-4.96,4.04-9,9-9s9,4.04,9,9v3H134z"/>
<path class="st1" d="M143,279c3.31,0,6,2.69,6,6h-12C137,281.69,139.69,279,143,279 M143,273c-6.62,0-12,5.38-12,12v6h6h12h6v-6
	C155,278.38,149.62,273,143,273L143,273z"/>
<path class="st2" d="M152,288v-3c0-4.96,4.04-9,9-9s9,4.04,9,9v3H152z"/>
<path class="st1" d="M161,279c3.31,0,6,2.69,6,6h-12C155,281.69,157.69,279,161,279 M161,273c-6.62,0-12,5.38-12,12v6h6h12h6v-6
	C173,278.38,167.62,273,161,273L161,273z"/>
<path class="st2" d="M170,288v-3c0-4.96,4.04-9,9-9s9,4.04,9,9v3H170z"/>
<path class="st1" d="M179,279c3.31,0,6,2.69,6,6h-12C173,281.69,175.69,279,179,279 M179,273c-6.62,0-12,5.38-12,12v6h6h12h6v-6
	C191,278.38,185.62,273,179,273L179,273z"/>
<path class="st2" d="M188,288v-3c0-4.96,4.04-9,9-9s9,4.04,9,9v3H188z"/>
<path class="st1" d="M197,279c3.31,0,6,2.69,6,6h-12C191,281.69,193.69,279,197,279 M197,273c-6.62,0-12,5.38-12,12v6h6h12h6v-6
	C209,278.38,203.62,273,197,273L197,273z"/>
<path class="st2" d="M206,288v-3c0-4.96,4.04-9,9-9s9,4.04,9,9v3H206z"/>
<path class="st1" d="M215,279c3.31,0,6,2.69,6,6h-12C209,281.69,211.69,279,215,279 M215,273c-6.62,0-12,5.38-12,12v6h6h12h6v-6
	C227,278.38,221.62,273,215,273L215,273z"/>
<path class="st1" d="M230,291H110c-1.66,0-3-1.34-3-3s1.34-3,3-3h120c1.66,0,3,1.34,3,3S231.66,291,230,291z"/>
<path class="st0" d="M111.36,66.69c2.93-0.62,6.12-0.85,9.17-0.59c11.59-18.22,37.21-23.77,55.38-11.57
	c15.82-6.62,34.99,0.11,43.31,14.82c16.33-0.26,32.46,8.44,36.35,27.12c0.93-3,1.43-6.18,1.43-9.48c0-17.67-14.33-32-32-32
	c-1.12,0-2.22,0.06-3.31,0.17C215.74,44.34,204.23,37,191,37c-5.5,0-10.7,1.27-15.33,3.53C168.88,35.19,160.31,32,151,32
	c-16.05,0-29.88,9.45-36.25,23.09C98.13,56.24,85,70.08,85,87c0,2.69,0.34,5.29,0.96,7.79C87.14,80.6,97.73,69.57,111.36,66.69z"/>
<path class="st0" d="M167.95,116.59c2.74-5.39,7.88-9.48,14.29-10.64c-2.07-11.35-5.24-22.48-9.5-33.26
	c-0.46-1.17-1.58-1.9-2.79-1.9c-0.21,0-0.43,0.02-0.65,0.07l-25.59,5.68c-0.86,0.19-1.59,0.75-2,1.52s-0.46,1.69-0.14,2.51
	c3.96,10.05,6.95,20.41,8.95,30.98c0.09-0.02,0.18-0.04,0.28-0.06C157.25,110.35,163.51,112.44,167.95,116.59z"/>
<path class="st1" d="M153.51,111.2c-2.04-10.83-5.09-21.45-9.15-31.73c8.53-1.89,17.06-3.79,25.59-5.68
	c4.2,10.66,7.34,21.68,9.38,32.92c0.96-0.33,1.96-0.59,2.99-0.78c0.98-0.17,1.95-0.27,2.91-0.29c-2.1-11.62-5.35-23.01-9.7-34.05
	c-0.92-2.33-3.16-3.8-5.58-3.8c-0.43,0-0.87,0.05-1.3,0.14l-25.59,5.68c-1.71,0.38-3.17,1.49-4,3.04c-0.82,1.55-0.93,3.38-0.28,5.02
	c3.92,9.95,6.87,20.21,8.84,30.66c1.02-0.36,2.08-0.65,3.18-0.84C151.71,111.33,152.61,111.24,153.51,111.2z"/>
<path class="st2" d="M162.7,93.03c4.49-1,8.99,0.2,11.75,2.83c-1.3-5.17-2.83-10.28-4.6-15.31c-2.32,0.52-4.84-0.9-5.69-3.14
	c-4.11,0.91-8.23,1.83-12.34,2.74c0.85,2.24-0.4,4.49-2.72,5.01c1.77,5.03,3.3,10.14,4.6,15.31
	C154.91,96.96,158.21,94.03,162.7,93.03z M156.85,86.67c-0.6-1.82,0.51-3.64,2.53-4.09c2.01-0.45,4.17,0.65,4.77,2.47
	s-0.58,3.66-2.59,4.11C159.54,89.61,157.45,88.49,156.85,86.67z"/>
<path class="st2" d="M163.82,104.96c0.64-0.14,0.72-0.82,0.56-2.11c-0.23-2.25-0.24-4.1,2.36-4.82c1.68-0.37,3.1,0.44,3.88,2.35
	c0.41-0.09,0.82-0.18,1.23-0.27c0.18,0.8,0.36,1.6,0.53,2.41c-0.41,0.09-0.82,0.18-1.23,0.27c0.06,1.35-0.45,2.42-1.51,3.23
	c-0.04,0.04-0.07,0.07-0.11,0.09c-0.11,0.08-0.21,0.16-0.32,0.24c-0.51-0.71-1.02-1.41-1.53-2.12c0.14-0.11,0.27-0.23,0.41-0.34
	c0.56-0.46,0.77-0.95,0.58-1.83c-0.25-1.14-0.61-1.56-1.29-1.41c-0.59,0.13-0.66,0.85-0.51,2.12c0.24,2.17,0.14,4.21-2.47,4.79
	c-1.71,0.38-3.11-0.49-3.9-2.4c-0.43,0.09-0.85,0.19-1.28,0.28c-0.17-0.8-0.35-1.61-0.53-2.41c0.42-0.09,0.83-0.18,1.25-0.28
	c-0.12-1.62,0.41-2.82,1.6-3.6c0.15-0.09,0.29-0.19,0.44-0.28c0.48,0.73,0.96,1.47,1.43,2.21c-0.14,0.1-0.28,0.2-0.42,0.29
	c-0.6,0.4-0.78,1.06-0.57,1.98C162.67,104.58,163.13,105.12,163.82,104.96z"/>
<path class="st1" d="M167.95,119.59c-0.75,0-1.49-0.28-2.05-0.81c-3.95-3.69-9.26-5.28-14.58-4.34c-2.95,0.52-5.7,1.8-7.98,3.71
	c-1.27,1.07-3.16,0.9-4.23-0.37c-1.07-1.27-0.9-3.16,0.37-4.23c3.08-2.59,6.81-4.33,10.79-5.03c5.98-1.05,11.96,0.25,16.88,3.59
	c3.48-4.82,8.65-8.09,14.63-9.15c4.12-0.73,8.34-0.32,12.23,1.17c1.55,0.59,2.32,2.33,1.72,3.88c-0.59,1.55-2.33,2.32-3.88,1.72
	c-2.87-1.1-5.99-1.4-9.03-0.86c-5.31,0.94-9.77,4.24-12.21,9.06c-0.43,0.84-1.22,1.43-2.15,1.6
	C168.3,119.57,168.12,119.59,167.95,119.59z"/>
<path class="st9" d="M184.5,210L184.5,210c-4.14,0-7.5-3.36-7.5-7.5V200c0-1.1,0.9-2,2-2h11c1.1,0,2,0.9,2,2v2.5
	C192,206.64,188.64,210,184.5,210z"/>
<path class="st9" d="M155.5,210L155.5,210c-4.14,0-7.5-3.36-7.5-7.5V200c0-1.1,0.9-2,2-2h11c1.1,0,2,0.9,2,2v2.5
	C163,206.64,159.64,210,155.5,210z"/>
<polygon class="st10" points="182,210 178,210 182,198 186,198 "/>
<polygon class="st10" points="187,210 184,210 188,198 191,198 "/>
<polygon class="st10" points="153,210 149,210 153,198 157,198 "/>
<polygon class="st10" points="158,210 155,210 159,198 162,198 "/>
<path class="st1" d="M198,192h-19c-3.07,0-5.73,1.74-7.07,4.28c-0.61-0.18-1.26-0.28-1.93-0.28s-1.31,0.1-1.93,0.28
	c-1.34-2.54-4.01-4.28-7.07-4.28h-19c-2.21,0-4,1.79-4,4s1.79,4,4,4v2.5c0,7.44,6.06,13.5,13.5,13.5c7.1,0,12.93-5.52,13.45-12.49
	c0.03-0.17,0.05-0.33,0.05-0.51c0-0.55,0.45-1,1-1s1,0.45,1,1c0,0.17,0.02,0.34,0.05,0.51c0.52,6.97,6.34,12.49,13.45,12.49
	c7.44,0,13.5-6.06,13.5-13.5V200c2.21,0,4-1.79,4-4S200.21,192,198,192z M155.5,210c-4.14,0-7.5-3.36-7.5-7.5V200c0-1.1,0.9-2,2-2
	h11c1.1,0,2,0.9,2,2v2.5C163,206.64,159.64,210,155.5,210z M192,202.5c0,4.14-3.36,7.5-7.5,7.5s-7.5-3.36-7.5-7.5V200
	c0-1.1,0.9-2,2-2h11c1.1,0,2,0.9,2,2V202.5z"/>
<path class="st10" d="M144,197h-2c-0.55,0-1-0.45-1-1s0.45-1,1-1h2c0.55,0,1,0.45,1,1S144.55,197,144,197z"/>
<path class="st10" d="M198,197h-2c-0.55,0-1-0.45-1-1s0.45-1,1-1h2c0.55,0,1,0.45,1,1S198.55,197,198,197z"/>
<path class="st3" d="M53,288c-7.17,0-13-5.83-13-13v-32c0-1.66,1.34-3,3-3h60c1.66,0,3,1.34,3,3v32c0,7.17-5.83,13-13,13H53z"/>
<path class="st1" d="M103,237H43c-3.31,0-6,2.69-6,6v32c0,8.82,7.18,16,16,16h40c8.82,0,16-7.18,16-16v-32
	C109,239.69,106.31,237,103,237z M88,273v-6h15v6H88z M64,267h18v6H64V267z M58,261v-6h12v6H58z M76,261v-6h12v6H76z M103,261h-9v-6
	h9V261z M103,243v6H88v-6H103z M82,243v6H64v-6H82z M43,243h15v6H43V243z M43,255h9v6h-9V255z M43,267h15v6H43V267z M43.84,279H52
	v5.95C48.34,284.59,45.26,282.24,43.84,279z M58,285v-6h12v6H58z M76,285v-6h12v6H76z M94,284.95V279h8.16
	C100.74,282.24,97.66,284.59,94,284.95z"/>
<path class="st1" d="M170,224.5c-4.38,0-8.77-1.09-13.12-3.26c-1.23-0.62-1.74-2.12-1.12-3.35c0.62-1.24,2.12-1.74,3.35-1.12
	c7.32,3.66,14.44,3.66,21.76,0c1.24-0.62,2.74-0.12,3.35,1.12c0.62,1.24,0.12,2.74-1.12,3.35C178.77,223.41,174.38,224.5,170,224.5z
	"/>
<path class="st1" d="M166.26,227.18c2.43,0.63,5.05,0.65,7.48,0c1.29-0.4,2.26,1.3,1.29,2.21c-0.77,0.82-1.77,1.67-2.81,1.93
	c-2.19,0.67-4.71,0.41-6.47-1.19l-0.76-0.73C163.99,228.48,164.98,226.8,166.26,227.18L166.26,227.18z"/>
</svg>
