<?xml version="1.0" encoding="utf-8"?>
<!-- Generator: Adobe Illustrator 26.3.1, SVG Export Plug-In . SVG Version: 6.00 Build 0)  -->
<svg version="1.1" id="artwork" xmlns="http://www.w3.org/2000/svg" xmlns:xlink="http://www.w3.org/1999/xlink" x="0px" y="0px"
	 viewBox="0 0 1200 630" style="enable-background:new 0 0 1200 630;" xml:space="preserve">
<style type="text/css">
	.st0{fill:none;}
	.st1{fill:#FFD886;}
	.st2{fill:#515979;}
	.st3{fill-rule:evenodd;clip-rule:evenodd;fill:#6ADAF7;}
	.st4{fill:#FBBD04;}
	.st5{fill:#438EDC;}
	.st6{fill:#34A952;}
	.st7{fill:#0072B1;}
	.st8{fill:#FFFFFF;}
	.st9{fill:#2196F3;}
	.st10{fill:#00C853;}
	.st11{fill:#D8EBFB;}
	.st12{fill:#FDE1D9;}
	.st13{fill:#EF7D7D;}
	.st14{fill:#1877F2;}
	.st15{fill:#FF0000;}
</style>
<rect class="st0" width="1200" height="630"/>
<g>
	<path class="st1" d="M1018.62,66.27h-9v-9c0-2.49-2.01-4.5-4.5-4.5s-4.5,2.01-4.5,4.5v9h-9c-2.49,0-4.5,2.01-4.5,4.5
		s2.01,4.5,4.5,4.5h9v9c0,2.49,2.01,4.5,4.5,4.5s4.5-2.01,4.5-4.5v-9h9c2.49,0,4.5-2.01,4.5-4.5S1021.11,66.27,1018.62,66.27z"/>
</g>
<g>
	<circle class="st1" cx="948.16" cy="71.77" r="6"/>
</g>
<g>
	<circle class="st1" cx="995.12" cy="123.77" r="3.75"/>
</g>
<g>
	<circle class="st1" cx="1083.51" cy="566.3" r="6.75"/>
</g>
<g>
	<circle class="st1" cx="73.62" cy="90.27" r="4.5"/>
</g>
<g>
	<path class="st1" d="M94.72,155.37c0,1.32,1.08,2.4,2.4,2.4s2.4-1.08,2.4-2.4c0-3.97,3.22-7.2,7.2-7.2c1.32,0,2.4-1.08,2.4-2.4
		s-1.08-2.4-2.4-2.4c-3.97,0-7.2-3.22-7.2-7.2c0-1.32-1.08-2.4-2.4-2.4s-2.4,1.08-2.4,2.4c0,3.97-3.22,7.2-7.2,7.2
		c-1.32,0-2.4,1.08-2.4,2.4s1.08,2.4,2.4,2.4C91.5,148.17,94.72,151.4,94.72,155.37z"/>
</g>
<g>
	<path class="st1" d="M1129.53,520.77c-3.47,0-6.3-2.83-6.3-6.3c0-1.16-0.94-2.1-2.1-2.1c-1.16,0-2.1,0.94-2.1,2.1
		c0,3.47-2.83,6.3-6.3,6.3c-1.16,0-2.1,0.94-2.1,2.1c0,1.16,0.94,2.1,2.1,2.1c3.47,0,6.3,2.83,6.3,6.3c0,1.16,0.94,2.1,2.1,2.1
		c1.16,0,2.1-0.94,2.1-2.1c0-3.47,2.83-6.3,6.3-6.3c1.16,0,2.1-0.94,2.1-2.1C1131.62,521.71,1130.68,520.77,1129.53,520.77z"/>
</g>
<g>
	<circle class="st1" cx="315.72" cy="365.57" r="6"/>
</g>
<g>
	<circle class="st1" cx="788.72" cy="503.57" r="6"/>
</g>
<g>
	<path class="st1" d="M362.48,320.8c-3.47,0-6.3-2.83-6.3-6.3c0-1.16-0.94-2.1-2.1-2.1s-2.1,0.94-2.1,2.1c0,3.47-2.83,6.3-6.3,6.3
		c-1.16,0-2.1,0.94-2.1,2.1s0.94,2.1,2.1,2.1c3.47,0,6.3,2.83,6.3,6.3c0,1.16,0.94,2.1,2.1,2.1s2.1-0.94,2.1-2.1
		c0-3.47,2.83-6.3,6.3-6.3c1.16,0,2.1-0.94,2.1-2.1S363.64,320.8,362.48,320.8z"/>
</g>
<g>
	<path class="st1" d="M147.42,84.07c-4.47,0-8.1-3.63-8.1-8.1c0-1.49-1.21-2.7-2.7-2.7c-1.49,0-2.7,1.21-2.7,2.7
		c0,4.47-3.63,8.1-8.1,8.1c-1.49,0-2.7,1.21-2.7,2.7s1.21,2.7,2.7,2.7c4.47,0,8.1,3.63,8.1,8.1c0,1.49,1.21,2.7,2.7,2.7
		c1.49,0,2.7-1.21,2.7-2.7c0-4.47,3.63-8.1,8.1-8.1c1.49,0,2.7-1.21,2.7-2.7S148.92,84.07,147.42,84.07z"/>
</g>
<g>
	<circle class="st1" cx="175.31" cy="557.3" r="4.5"/>
</g>
<g>
	<path class="st1" d="M756.08,459.9c-3.97,0-7.2-3.23-7.2-7.2c0-1.32-1.08-2.4-2.4-2.4s-2.4,1.08-2.4,2.4c0,3.97-3.22,7.2-7.2,7.2
		c-1.32,0-2.4,1.08-2.4,2.4c0,1.32,1.08,2.4,2.4,2.4c3.97,0,7.2,3.22,7.2,7.2c0,1.32,1.08,2.4,2.4,2.4s2.4-1.08,2.4-2.4
		c0-3.98,3.22-7.2,7.2-7.2c1.32,0,2.4-1.08,2.4-2.4C758.48,460.98,757.4,459.9,756.08,459.9z"/>
</g>
<g>
	<path class="st1" d="M229.11,521.1c-4.47,0-8.1-3.63-8.1-8.1c0-1.49-1.21-2.7-2.7-2.7c-1.49,0-2.7,1.21-2.7,2.7
		c0,4.47-3.63,8.1-8.1,8.1c-1.49,0-2.7,1.21-2.7,2.7c0,1.49,1.21,2.7,2.7,2.7c4.47,0,8.1,3.63,8.1,8.1c0,1.49,1.21,2.7,2.7,2.7
		c1.49,0,2.7-1.21,2.7-2.7c0-4.47,3.63-8.1,8.1-8.1c1.49,0,2.7-1.21,2.7-2.7C231.81,522.3,230.6,521.1,229.11,521.1z"/>
</g>
<g>
	<path class="st2" d="M968.5,362.75c-1.24,0-2.25-1.01-2.25-2.25V353c0-1.24,1.01-2.25,2.25-2.25s2.25,1.01,2.25,2.25v7.5
		C970.75,361.74,969.74,362.75,968.5,362.75z M968.5,341.75c-1.24,0-2.25-1.01-2.25-2.25V332c0-1.24,1.01-2.25,2.25-2.25
		s2.25,1.01,2.25,2.25v7.5C970.75,340.74,969.74,341.75,968.5,341.75z M968.5,320.75c-1.24,0-2.25-1.01-2.25-2.25V311
		c0-1.24,1.01-2.25,2.25-2.25s2.25,1.01,2.25,2.25v7.5C970.75,319.74,969.74,320.75,968.5,320.75z M968.5,299.75
		c-1.24,0-2.25-1.01-2.25-2.25V290c0-1.24,1.01-2.25,2.25-2.25s2.25,1.01,2.25,2.25v7.5C970.75,298.74,969.74,299.75,968.5,299.75z
		 M968.5,278.75c-1.24,0-2.25-1.01-2.25-2.25V269c0-1.24,1.01-2.25,2.25-2.25s2.25,1.01,2.25,2.25v7.5
		C970.75,277.74,969.74,278.75,968.5,278.75z M968.5,257.75c-1.24,0-2.25-1.01-2.25-2.25V248c0-1.24,1.01-2.25,2.25-2.25
		s2.25,1.01,2.25,2.25v7.5C970.75,256.74,969.74,257.75,968.5,257.75z M968.5,236.75c-1.24,0-2.25-1.01-2.25-2.25V227
		c0-1.24,1.01-2.25,2.25-2.25s2.25,1.01,2.25,2.25v7.5C970.75,235.74,969.74,236.75,968.5,236.75z M968.5,215.75
		c-1.24,0-2.25-1.01-2.25-2.25V206c0-1.24,1.01-2.25,2.25-2.25s2.25,1.01,2.25,2.25v7.5C970.75,214.74,969.74,215.75,968.5,215.75z
		 M966.9,195c-0.82,0-1.62-0.45-2.01-1.24c-0.96-1.9-2.39-3.54-4.15-4.76c-1.02-0.71-1.28-2.11-0.57-3.13
		c0.71-1.02,2.11-1.28,3.13-0.57c2.37,1.64,4.31,3.86,5.6,6.43c0.56,1.11,0.11,2.46-1,3.02C967.59,194.92,967.24,195,966.9,195z
		 M949.07,186.75h-7.5c-1.24,0-2.25-1.01-2.25-2.25s1.01-2.25,2.25-2.25h7.5c1.24,0,2.25,1.01,2.25,2.25
		S950.31,186.75,949.07,186.75z"/>
</g>
<g>
	<path class="st2" d="M1003.5,362.75c-1.24,0-2.25-1.01-2.25-2.25V353c0-1.24,1.01-2.25,2.25-2.25s2.25,1.01,2.25,2.25v7.5
		C1005.75,361.74,1004.74,362.75,1003.5,362.75z M1003.5,341.75c-1.24,0-2.25-1.01-2.25-2.25V332c0-1.24,1.01-2.25,2.25-2.25
		s2.25,1.01,2.25,2.25v7.5C1005.75,340.74,1004.74,341.75,1003.5,341.75z M1003.5,320.75c-1.24,0-2.25-1.01-2.25-2.25V311
		c0-1.24,1.01-2.25,2.25-2.25s2.25,1.01,2.25,2.25v7.5C1005.75,319.74,1004.74,320.75,1003.5,320.75z M1003.5,299.75
		c-1.24,0-2.25-1.01-2.25-2.25V290c0-1.24,1.01-2.25,2.25-2.25s2.25,1.01,2.25,2.25v7.5
		C1005.75,298.74,1004.74,299.75,1003.5,299.75z M1003.5,278.75c-1.24,0-2.25-1.01-2.25-2.25V269c0-1.24,1.01-2.25,2.25-2.25
		s2.25,1.01,2.25,2.25v7.5C1005.75,277.74,1004.74,278.75,1003.5,278.75z M1003.5,257.75c-1.24,0-2.25-1.01-2.25-2.25V248
		c0-1.24,1.01-2.25,2.25-2.25s2.25,1.01,2.25,2.25v7.5C1005.75,256.74,1004.74,257.75,1003.5,257.75z M1003.5,236.75
		c-1.24,0-2.25-1.01-2.25-2.25V227c0-1.24,1.01-2.25,2.25-2.25s2.25,1.01,2.25,2.25v7.5
		C1005.75,235.74,1004.74,236.75,1003.5,236.75z M1003.5,215.75c-1.24,0-2.25-1.01-2.25-2.25c0-2.89,0.73-5.75,2.11-8.27
		c0.6-1.09,1.96-1.49,3.05-0.89c1.09,0.6,1.49,1.96,0.89,3.05c-1.02,1.86-1.56,3.97-1.56,6.11
		C1005.75,214.74,1004.74,215.75,1003.5,215.75z M1015.94,200.97c-1.08,0-2.03-0.77-2.21-1.87c-0.21-1.22,0.61-2.39,1.84-2.6
		c0.96-0.17,1.95-0.25,2.94-0.25h4.93c1.24,0,2.25,1.01,2.25,2.25s-1.01,2.25-2.25,2.25h-4.93c-0.73,0-1.47,0.06-2.18,0.19
		C1016.19,200.96,1016.07,200.97,1015.94,200.97z M1044.43,200.75h-7.5c-1.24,0-2.25-1.01-2.25-2.25s1.01-2.25,2.25-2.25h7.5
		c1.24,0,2.25,1.01,2.25,2.25S1045.67,200.75,1044.43,200.75z"/>
</g>
<g>
	<path class="st2" d="M808.49,463.25c-1.79,0-3.55-0.27-5.24-0.81c-1.18-0.38-1.84-1.64-1.46-2.83c0.38-1.18,1.65-1.83,2.83-1.46
		c1.25,0.4,2.55,0.6,3.87,0.6c0,0,0.01,0,0.01,0h2.86c1.24,0,2.25,1.01,2.25,2.25s-1.01,2.25-2.25,2.25h-2.86
		C808.5,463.25,808.49,463.25,808.49,463.25z M895.36,463.25h-7.5c-1.24,0-2.25-1.01-2.25-2.25s1.01-2.25,2.25-2.25h7.5
		c1.24,0,2.25,1.01,2.25,2.25S896.6,463.25,895.36,463.25z M874.36,463.25h-7.5c-1.24,0-2.25-1.01-2.25-2.25s1.01-2.25,2.25-2.25
		h7.5c1.24,0,2.25,1.01,2.25,2.25S875.6,463.25,874.36,463.25z M853.36,463.25h-7.5c-1.24,0-2.25-1.01-2.25-2.25
		s1.01-2.25,2.25-2.25h7.5c1.24,0,2.25,1.01,2.25,2.25S854.6,463.25,853.36,463.25z M832.36,463.25h-7.5
		c-1.24,0-2.25-1.01-2.25-2.25s1.01-2.25,2.25-2.25h7.5c1.24,0,2.25,1.01,2.25,2.25S833.6,463.25,832.36,463.25z M794.47,453.56
		c-0.91,0-1.76-0.55-2.1-1.45c-0.74-1.95-1.11-4-1.11-6.11v-2.07c0-1.24,1.01-2.25,2.25-2.25s2.25,1.01,2.25,2.25V446
		c0,1.56,0.28,3.08,0.82,4.51c0.44,1.16-0.15,2.46-1.31,2.9C795,453.51,794.73,453.56,794.47,453.56z M793.5,432.68
		c-1.24,0-2.25-1.01-2.25-2.25v-7.5c0-1.24,1.01-2.25,2.25-2.25s2.25,1.01,2.25,2.25v7.5C795.75,431.67,794.74,432.68,793.5,432.68z
		 M793.5,411.68c-1.24,0-2.25-1.01-2.25-2.25v-7.5c0-1.24,1.01-2.25,2.25-2.25s2.25,1.01,2.25,2.25v7.5
		C795.75,410.67,794.74,411.68,793.5,411.68z M793.5,390.68c-1.24,0-2.25-1.01-2.25-2.25v-7.5c0-1.24,1.01-2.25,2.25-2.25
		s2.25,1.01,2.25,2.25v7.5C795.75,389.67,794.74,390.68,793.5,390.68z M793.5,369.68c-1.24,0-2.25-1.01-2.25-2.25v-7.5
		c0-1.24,1.01-2.25,2.25-2.25s2.25,1.01,2.25,2.25v7.5C795.75,368.67,794.74,369.68,793.5,369.68z M793.5,348.68
		c-1.24,0-2.25-1.01-2.25-2.25v-7.5c0-1.24,1.01-2.25,2.25-2.25s2.25,1.01,2.25,2.25v7.5C795.75,347.67,794.74,348.68,793.5,348.68z
		 M791.64,328c-0.79,0-1.56-0.42-1.97-1.16c-1.03-1.86-2.53-3.45-4.32-4.6c-1.05-0.67-1.36-2.06-0.69-3.11
		c0.67-1.05,2.06-1.36,3.11-0.69c2.43,1.55,4.45,3.7,5.84,6.22c0.6,1.09,0.21,2.46-0.88,3.06C792.38,327.91,792,328,791.64,328z
		 M773.5,320.25H766c-1.24,0-2.25-1.01-2.25-2.25s1.01-2.25,2.25-2.25h7.5c1.24,0,2.25,1.01,2.25,2.25S774.74,320.25,773.5,320.25z
		 M752.5,320.25H745c-1.24,0-2.25-1.01-2.25-2.25s1.01-2.25,2.25-2.25h7.5c1.24,0,2.25,1.01,2.25,2.25S753.74,320.25,752.5,320.25z
		 M731.5,320.25H724c-1.24,0-2.25-1.01-2.25-2.25s1.01-2.25,2.25-2.25h7.5c1.24,0,2.25,1.01,2.25,2.25S732.74,320.25,731.5,320.25z
		 M710.5,320.25H703c-1.24,0-2.25-1.01-2.25-2.25s1.01-2.25,2.25-2.25h7.5c1.24,0,2.25,1.01,2.25,2.25S711.74,320.25,710.5,320.25z"
		/>
</g>
<g>
	<path class="st2" d="M466,320.25h-7.5c-1.24,0-2.25-1.01-2.25-2.25s1.01-2.25,2.25-2.25h7.5c1.24,0,2.25,1.01,2.25,2.25
		S467.24,320.25,466,320.25z M445,320.25h-7.5c-1.24,0-2.25-1.01-2.25-2.25s1.01-2.25,2.25-2.25h7.5c1.24,0,2.25,1.01,2.25,2.25
		S446.24,320.25,445,320.25z M424.37,318.17c-0.39,0-0.78-0.1-1.14-0.31c-2.48-1.47-4.57-3.55-6.05-6.02
		c-0.64-1.07-0.29-2.45,0.78-3.09c1.06-0.64,2.45-0.29,3.09,0.78c1.09,1.83,2.64,3.37,4.47,4.45c1.07,0.63,1.42,2.01,0.79,3.08
		C425.89,317.78,425.14,318.17,424.37,318.17z M417,299.82c-1.24,0-2.25-1.01-2.25-2.25v-7.5c0-1.24,1.01-2.25,2.25-2.25
		s2.25,1.01,2.25,2.25v7.5C419.25,298.81,418.24,299.82,417,299.82z M417,278.82c-1.24,0-2.25-1.01-2.25-2.25v-7.5
		c0-1.24,1.01-2.25,2.25-2.25s2.25,1.01,2.25,2.25v7.5C419.25,277.81,418.24,278.82,417,278.82z M417,257.82
		c-1.24,0-2.25-1.01-2.25-2.25v-7.5c0-1.24,1.01-2.25,2.25-2.25s2.25,1.01,2.25,2.25v7.5C419.25,256.81,418.24,257.82,417,257.82z
		 M417,236.82c-1.24,0-2.25-1.01-2.25-2.25v-7.5c0-1.24,1.01-2.25,2.25-2.25s2.25,1.01,2.25,2.25v7.5
		C419.25,235.81,418.24,236.82,417,236.82z M415.43,216.07c-0.83,0-1.62-0.46-2.02-1.25c-0.95-1.9-2.38-3.56-4.12-4.78
		c-1.02-0.71-1.27-2.11-0.56-3.13c0.71-1.02,2.11-1.27,3.13-0.56c2.36,1.65,4.29,3.88,5.57,6.46c0.55,1.11,0.1,2.46-1.01,3.02
		C416.11,215.99,415.77,216.07,415.43,216.07z M397.64,207.75h-7.5c-1.24,0-2.25-1.01-2.25-2.25s1.01-2.25,2.25-2.25h7.5
		c1.24,0,2.25,1.01,2.25,2.25S398.88,207.75,397.64,207.75z M376.64,207.75h-7.5c-1.24,0-2.25-1.01-2.25-2.25s1.01-2.25,2.25-2.25
		h7.5c1.24,0,2.25,1.01,2.25,2.25S377.88,207.75,376.64,207.75z M355.64,207.75h-7.5c-1.24,0-2.25-1.01-2.25-2.25
		s1.01-2.25,2.25-2.25h7.5c1.24,0,2.25,1.01,2.25,2.25S356.88,207.75,355.64,207.75z M334.64,207.75h-7.5
		c-1.24,0-2.25-1.01-2.25-2.25s1.01-2.25,2.25-2.25h7.5c1.24,0,2.25,1.01,2.25,2.25S335.88,207.75,334.64,207.75z"/>
</g>
<g>
	<path class="st3" d="M615.74,371.92c-2.66-12.4-3.57-25.75-4.12-38.4c-0.61-15.64,1.79-31.49,5.49-47.09
		c9.34-31.5,16.42-44.44,24.71-48.92c31.66-21.89,87.62-0.85,83.73,32.46c-3.61,46.92-45.27,47.9-45.3,48
		c36.3,3.83,35.87,56.7,17.39,70.86c-23.02,20.91-63.26,9.69-63.6,9.6c-2.49-0.76-5.04-1.88-7.78-3.66
		c-1.28-0.85-2.54-2.3-3.66-4.11c-3.56,5.18-9.33,8.45-16.01,10.06c-47.12,12.28-40.05-42.8-62.68-64.92
		c-0.99,0.67-1.98,1.09-3.2,1.37c1.22,9.25,2.49,18.36,4.12,26.97c0.78,6.24,1.91,12.13,2.75,17.83c0.16,0.61,2.28,6.36,1.83,6.86
		c0.02-0.08-12.14,13.1-27.91,5.49c-4.47-2.06-8-7.95-10.07-11.89c-5.29-10.64-8.69-22.7-11.44-34.74
		c-12.67,0.56-21.02-2.67-24.25-6.4c-9.36-9.86-3.17-18.62-0.46-22.86c2.44-4.32,11.33-13.08,20.13-15.09
		c0.11-7.52,0.67-15.09,1.37-22.86c1-8.63,2.13-18.73,6.86-26.52c12.25-20.24,30.64-22.63,37.98-18.29
		c5.4,3.37,2.71,17.39,2.29,21.94c-0.85,9.46-2.83,18.57-3.66,27.89c-1.01,7.36-1.3,14.65-1.37,21.94
		c25.4-22.01,28.66-56.21,32.49-69.49c7.63-25.13,29.72,1.95,32.94,9.6c5.31,11.93-2.67,49.37-34.32,72.69
		c5.61,3.32,10.56,8.36,16.47,15.09C595.66,346.03,599.34,366.91,615.74,371.92L615.74,371.92L615.74,371.92z M671.18,383.23
		c-4.1,4.94-10.13,1.69-10.2,1.83c-3.24-0.84-6.54-65.39,7.88-56.19C681.01,336.62,674.12,379.84,671.18,383.23L671.18,383.23
		L671.18,383.23z M684.11,254.27c11.56,3.79-4.43,51.17-11.05,54.11c-3.81,1.56-8.54,1.28-9.21-2.29
		c-2.11-8.97,3.87-33.23,5.06-37.6C670.78,258.48,674.39,250.87,684.11,254.27L684.11,254.27L684.11,254.27z M684.11,254.27"/>
</g>
<g>
	<g>
		<path class="st4" d="M1047.74,264.14L1047.74,264.14c-11.18-6.46-15.04-20.88-8.59-32.06l46.4-80.39
			c6.46-11.18,20.88-15.04,32.06-8.59l0,0c11.18,6.46,15.04,20.88,8.59,32.06l-46.4,80.39
			C1073.35,266.72,1058.93,270.6,1047.74,264.14z"/>
	</g>
	<g>
		<path class="st5" d="M1164.29,263.8L1164.29,263.8c-11.18,6.46-25.6,2.58-32.06-8.59l-46.4-80.39
			c-6.46-11.18-2.58-25.6,8.59-32.06l0,0c11.18-6.46,25.6-2.58,32.06,8.59l46.4,80.39C1179.33,242.91,1175.46,257.34,1164.29,263.8z
			"/>
	</g>
	<g>
		<circle class="st6" cx="1059.8" cy="243.47" r="23.8"/>
	</g>
</g>
<g>
	<path class="st7" d="M922.89,115.98H812.11c-5.3,0-9.61,4.2-9.61,9.37v112.08c0,5.17,4.3,9.37,9.61,9.37h110.78
		c5.31,0,9.61-4.2,9.61-9.37V125.35C932.5,120.17,928.2,115.98,922.89,115.98z M822.27,225.49v-59.07h19.64v59.07h0H822.27z
		 M832.09,158.35h-0.13c-6.59,0-10.85-4.54-10.85-10.21c0-5.8,4.39-10.21,11.11-10.21c6.72,0,10.85,4.41,10.98,10.21
		C843.2,153.81,838.94,158.35,832.09,158.35z M912.71,225.49h-19.63v-31.6c0-7.94-2.84-13.36-9.95-13.36
		c-5.43,0-8.66,3.65-10.07,7.18c-0.52,1.26-0.65,3.03-0.65,4.79v32.99h-19.63v0c0,0,0.26-53.53,0-59.07h19.63v8.36
		c2.61-4.02,7.28-9.75,17.7-9.75c12.92,0,22.6,8.44,22.6,26.59V225.49z"/>
</g>
<g>
	<g>
		<g>
			<path class="st8" d="M918.5,547c-4.96,0-9-4.04-9-9V382c0-4.96,4.04-9,9-9h161c4.96,0,9,4.04,9,9v130.5
				c0,1.19-0.47,2.34-1.32,3.18l-30,30c-0.84,0.84-1.99,1.32-3.18,1.32H918.5z"/>
		</g>
		<g>
			<path class="st2" d="M1079.5,377.5c2.49,0,4.5,2.01,4.5,4.5v130.5l-30,30H918.5c-2.49,0-4.5-2.01-4.5-4.5V382
				c0-2.49,2.01-4.5,4.5-4.5H1079.5 M1079.5,368.5h-161c-7.44,0-13.5,6.06-13.5,13.5v156c0,7.44,6.06,13.5,13.5,13.5H1054
				c2.39,0,4.68-0.95,6.36-2.64l30-30c1.69-1.69,2.64-3.98,2.64-6.36V382C1093,374.56,1086.94,368.5,1079.5,368.5L1079.5,368.5z"/>
		</g>
	</g>
	<g>
		<path class="st9" d="M1047.75,475h-107.5c-2.07,0-3.75-1.68-3.75-3.75l0,0c0-2.07,1.68-3.75,3.75-3.75h107.5
			c2.07,0,3.75,1.68,3.75,3.75l0,0C1051.5,473.32,1049.82,475,1047.75,475z"/>
	</g>
	<g>
		<path class="st2" d="M1032.75,505h-92.5c-2.07,0-3.75-1.68-3.75-3.75l0,0c0-2.07,1.68-3.75,3.75-3.75h92.5
			c2.07,0,3.75,1.68,3.75,3.75l0,0C1036.5,503.32,1034.82,505,1032.75,505z"/>
	</g>
	<g>
		<path class="st2" d="M1011.75,520h-71.5c-2.07,0-3.75-1.68-3.75-3.75l0,0c0-2.07,1.68-3.75,3.75-3.75h71.5
			c2.07,0,3.75,1.68,3.75,3.75l0,0C1015.5,518.32,1013.82,520,1011.75,520z"/>
	</g>
	<g>
		<path class="st10" d="M1020.75,490h-80.5c-2.07,0-3.75-1.68-3.75-3.75l0,0c0-2.07,1.68-3.75,3.75-3.75h80.5
			c2.07,0,3.75,1.68,3.75,3.75l0,0C1024.5,488.32,1022.82,490,1020.75,490z"/>
	</g>
	<g>
		<g>
			<path class="st11" d="M1054,547c-0.58,0-1.16-0.11-1.72-0.34c-1.68-0.7-2.78-2.34-2.78-4.16V517c0-4.96,4.04-9,9-9h25.5
				c1.82,0,3.46,1.1,4.16,2.78c0.7,1.68,0.31,3.62-0.98,4.9l-30,30C1056.32,546.54,1055.17,547,1054,547z"/>
		</g>
		<g>
			<g>
				<path class="st2" d="M1084,512.5l-30,30V517c0-2.49,2.01-4.5,4.5-4.5H1084 M1084,503.5h-25.5c-7.44,0-13.5,6.06-13.5,13.5v25.5
					c0,3.64,2.19,6.92,5.56,8.31c1.11,0.46,2.28,0.69,3.44,0.69c2.34,0,4.64-0.91,6.37-2.64l30-30c2.57-2.57,3.34-6.45,1.95-9.81
					C1090.92,505.69,1087.64,503.5,1084,503.5L1084,503.5z M1084,521.5L1084,521.5L1084,521.5L1084,521.5z"/>
			</g>
		</g>
	</g>
	<g>
		<g>
			<circle class="st12" cx="1038" cy="436" r="3"/>
		</g>
		<g>
			<circle class="st12" cx="1050" cy="436" r="3"/>
		</g>
		<g>
			<circle class="st12" cx="1044" cy="424" r="3"/>
		</g>
	</g>
	<g>
		<g>
			<circle class="st12" cx="948" cy="436" r="3"/>
		</g>
		<g>
			<circle class="st12" cx="960" cy="436" r="3"/>
		</g>
		<g>
			<circle class="st12" cx="954" cy="424" r="3"/>
		</g>
	</g>
	<g>
		<g>
			<g>
				<path class="st2" d="M1021.54,428.17c-0.24,0-0.49-0.04-0.73-0.12c-2.41-0.83-6.63-0.83-9.03,0c-1.18,0.41-2.46-0.22-2.86-1.39
					c-0.41-1.17,0.22-2.46,1.39-2.86c3.36-1.16,8.61-1.16,11.97,0c1.17,0.41,1.8,1.69,1.39,2.86
					C1023.34,427.59,1022.47,428.17,1021.54,428.17z"/>
			</g>
			<g>
				<g>
					<circle class="st2" cx="1016.29" cy="415.88" r="9"/>
				</g>
				<g>
					<circle class="st8" cx="1018.54" cy="415.88" r="2.25"/>
				</g>
			</g>
			<g>
				<path class="st2" d="M1011.14,394.97c4.06-2.48,9.29-2.64,13.53-0.44c2.3,1.15,5.93,4.6,2.87,6.86
					c-0.75,0.51-1.61,0.46-2.42,0.28c-3.19-0.68-5.92-1.23-9.16-1.5c-1.31-0.15-2.98-0.21-4.2-0.67
					C1009.72,398.97,1009.35,396.02,1011.14,394.97L1011.14,394.97z"/>
			</g>
		</g>
		<g>
			<g>
				<path class="st2" d="M986.96,428.17c-0.24,0-0.49-0.04-0.73-0.12c-2.41-0.83-6.63-0.83-9.03,0c-1.18,0.41-2.46-0.22-2.86-1.39
					c-0.41-1.17,0.22-2.46,1.39-2.86c3.36-1.16,8.61-1.16,11.97,0c1.17,0.41,1.8,1.69,1.39,2.86
					C988.77,427.59,987.9,428.17,986.96,428.17z"/>
			</g>
			<g>
				<g>
					<circle class="st2" cx="981.71" cy="415.88" r="9"/>
				</g>
				<g>
					<circle class="st8" cx="983.96" cy="415.88" r="2.25"/>
				</g>
			</g>
			<g>
				<path class="st2" d="M985.41,399.76c-2.04,0.39-4.51,0.47-6.54,0.78c-2.31,0.29-4.23,0.83-6.59,1.24
					c-2.15,0.43-3.83-2.18-2.59-3.95c2.68-4.15,8.27-5.46,12.85-4.54c2.36,0.49,6.86,1.96,5.1,5.16
					C987.17,399.27,986.25,399.53,985.41,399.76L985.41,399.76z"/>
			</g>
		</g>
		<g>
			<path class="st2" d="M999.46,444.96c-6.83,0-13.82-1.6-19.87-4.82c-1.46-0.78-2.02-2.59-1.24-4.06c0.78-1.46,2.59-2.02,4.06-1.24
				c10.24,5.44,24.14,5.46,33.03,0.04c1.42-0.86,3.26-0.41,4.12,1c0.86,1.42,0.41,3.26-1,4.12
				C1013.14,443.31,1006.39,444.96,999.46,444.96z"/>
		</g>
		<g>
			<path class="st2" d="M993.38,449.62c2.75,0.73,5.63,0.9,8.45,0.58c1.8-0.08,4.31-1.72,5.17,0.73c0.46,1.31-0.87,2.29-1.61,3.13
				c-0.92,0.98-1.98,1.51-3.06,1.87c-3.79,1.13-8.04,0.05-10.8-2.84C989.94,451.72,991.4,449.06,993.38,449.62L993.38,449.62z"/>
		</g>
	</g>
</g>
<g>
	<path class="st2" d="M256.43,468.75c0,0-0.01,0-0.01,0c-2.89-0.01-5.75-0.76-8.26-2.15c-1.09-0.6-1.48-1.97-0.88-3.06
		c0.6-1.09,1.97-1.48,3.06-0.88c1.86,1.03,3.97,1.58,6.1,1.59c1.24,0.01,2.25,1.02,2.24,2.26
		C258.67,467.75,257.67,468.75,256.43,468.75z M277.43,468.75h-7.5c-1.24,0-2.25-1.01-2.25-2.25s1.01-2.25,2.25-2.25h7.5
		c1.24,0,2.25,1.01,2.25,2.25S278.67,468.75,277.43,468.75z M241.7,456.24c-1.08,0-2.03-0.78-2.22-1.88
		c-0.16-0.94-0.24-1.9-0.24-2.86v-5c0-1.24,1.01-2.25,2.25-2.25s2.25,1.01,2.25,2.25v5c0,0.71,0.06,1.42,0.17,2.12
		c0.21,1.23-0.62,2.39-1.85,2.59C241.95,456.23,241.83,456.24,241.7,456.24z M241.5,435.25c-1.24,0-2.25-1.01-2.25-2.25v-7.5
		c0-1.24,1.01-2.25,2.25-2.25s2.25,1.01,2.25,2.25v7.5C243.75,434.24,242.74,435.25,241.5,435.25z M241.5,414.25
		c-1.24,0-2.25-1.01-2.25-2.25v-7.5c0-1.24,1.01-2.25,2.25-2.25s2.25,1.01,2.25,2.25v7.5C243.75,413.24,242.74,414.25,241.5,414.25z
		 M241.5,393.25c-1.24,0-2.25-1.01-2.25-2.25v-7.5c0-1.24,1.01-2.25,2.25-2.25s2.25,1.01,2.25,2.25v7.5
		C243.75,392.24,242.74,393.25,241.5,393.25z M241.5,372.25c-1.24,0-2.25-1.01-2.25-2.25v-7.5c0-1.24,1.01-2.25,2.25-2.25
		s2.25,1.01,2.25,2.25v7.5C243.75,371.24,242.74,372.25,241.5,372.25z M241.5,351.25c-1.24,0-2.25-1.01-2.25-2.25v-7.5
		c0-1.24,1.01-2.25,2.25-2.25s2.25,1.01,2.25,2.25v7.5C243.75,350.24,242.74,351.25,241.5,351.25z M241.5,330.25
		c-1.24,0-2.25-1.01-2.25-2.25v-7.5c0-1.24,1.01-2.25,2.25-2.25s2.25,1.01,2.25,2.25v7.5C243.75,329.24,242.74,330.25,241.5,330.25z
		"/>
</g>
<g>
	<path class="st2" d="M185.07,454.75h-7.5c-1.24,0-2.25-1.01-2.25-2.25s1.01-2.25,2.25-2.25h7.5c1.24,0,2.25,1.01,2.25,2.25
		S186.31,454.75,185.07,454.75z M198.31,453.12c-0.82,0-1.61-0.45-2.01-1.23c-0.56-1.11-0.13-2.46,0.98-3.03
		c1.9-0.97,3.53-2.41,4.74-4.17c0.7-1.03,2.1-1.28,3.13-0.58c1.03,0.7,1.29,2.1,0.58,3.13c-1.63,2.38-3.84,4.33-6.41,5.63
		C199.01,453.04,198.66,453.12,198.31,453.12z M206.5,435.25c-1.24,0-2.25-1.01-2.25-2.25v-7.5c0-1.24,1.01-2.25,2.25-2.25
		s2.25,1.01,2.25,2.25v7.5C208.75,434.24,207.74,435.25,206.5,435.25z M206.5,414.25c-1.24,0-2.25-1.01-2.25-2.25v-7.5
		c0-1.24,1.01-2.25,2.25-2.25s2.25,1.01,2.25,2.25v7.5C208.75,413.24,207.74,414.25,206.5,414.25z M206.5,393.25
		c-1.24,0-2.25-1.01-2.25-2.25v-7.5c0-1.24,1.01-2.25,2.25-2.25s2.25,1.01,2.25,2.25v7.5C208.75,392.24,207.74,393.25,206.5,393.25z
		 M206.5,372.25c-1.24,0-2.25-1.01-2.25-2.25v-7.5c0-1.24,1.01-2.25,2.25-2.25s2.25,1.01,2.25,2.25v7.5
		C208.75,371.24,207.74,372.25,206.5,372.25z M206.5,351.25c-1.24,0-2.25-1.01-2.25-2.25v-7.5c0-1.24,1.01-2.25,2.25-2.25
		s2.25,1.01,2.25,2.25v7.5C208.75,350.24,207.74,351.25,206.5,351.25z M206.5,330.25c-1.24,0-2.25-1.01-2.25-2.25v-7.5
		c0-1.24,1.01-2.25,2.25-2.25s2.25,1.01,2.25,2.25v7.5C208.75,329.24,207.74,330.25,206.5,330.25z"/>
</g>
<g>
	<g>
		<g>
			<path class="st8" d="M144.5,302c-4.96,0-9-4.04-9-9V137c0-4.96,4.04-9,9-9h161c4.96,0,9,4.04,9,9v130.5
				c0,1.19-0.47,2.34-1.32,3.18l-30,30c-0.84,0.84-1.99,1.32-3.18,1.32H144.5z"/>
		</g>
		<g>
			<path class="st2" d="M305.5,132.5c2.49,0,4.5,2.01,4.5,4.5v130.5l-30,30H144.5c-2.49,0-4.5-2.01-4.5-4.5V137
				c0-2.49,2.01-4.5,4.5-4.5H305.5 M305.5,123.5h-161c-7.44,0-13.5,6.06-13.5,13.5v156c0,7.44,6.06,13.5,13.5,13.5H280
				c2.39,0,4.68-0.95,6.36-2.64l30-30c1.69-1.69,2.64-3.98,2.64-6.36V137C319,129.56,312.94,123.5,305.5,123.5L305.5,123.5z"/>
		</g>
	</g>
	<g>
		<path class="st9" d="M269.75,230h-103.5c-2.07,0-3.75-1.68-3.75-3.75l0,0c0-2.07,1.68-3.75,3.75-3.75h103.5
			c2.07,0,3.75,1.68,3.75,3.75l0,0C273.5,228.32,271.82,230,269.75,230z"/>
	</g>
	<g>
		<path class="st2" d="M248.75,260h-82.5c-2.07,0-3.75-1.68-3.75-3.75l0,0c0-2.07,1.68-3.75,3.75-3.75h82.5
			c2.07,0,3.75,1.68,3.75,3.75l0,0C252.5,258.32,250.82,260,248.75,260z"/>
	</g>
	<g>
		<path class="st2" d="M233.75,275h-67.5c-2.07,0-3.75-1.68-3.75-3.75l0,0c0-2.07,1.68-3.75,3.75-3.75h67.5
			c2.07,0,3.75,1.68,3.75,3.75l0,0C237.5,273.32,235.82,275,233.75,275z"/>
	</g>
	<g>
		<path class="st10" d="M260.75,245h-94.5c-2.07,0-3.75-1.68-3.75-3.75l0,0c0-2.07,1.68-3.75,3.75-3.75h94.5
			c2.07,0,3.75,1.68,3.75,3.75l0,0C264.5,243.32,262.82,245,260.75,245z"/>
	</g>
	<g>
		<g>
			<path class="st11" d="M280,302c-0.58,0-1.16-0.11-1.72-0.34c-1.68-0.7-2.78-2.34-2.78-4.16V272c0-4.96,4.04-9,9-9H310
				c1.82,0,3.46,1.1,4.16,2.78c0.7,1.68,0.31,3.62-0.98,4.9l-30,30C282.32,301.54,281.17,302,280,302z"/>
		</g>
		<g>
			<g>
				<path class="st2" d="M310,267.5l-30,30V272c0-2.49,2.01-4.5,4.5-4.5H310 M310,258.5h-25.5c-7.44,0-13.5,6.06-13.5,13.5v25.5
					c0,3.64,2.19,6.92,5.56,8.31c1.11,0.46,2.28,0.69,3.44,0.69c2.34,0,4.64-0.91,6.37-2.64l30-30c2.57-2.57,3.34-6.45,1.95-9.81
					C316.92,260.69,313.64,258.5,310,258.5L310,258.5z M310,276.5L310,276.5L310,276.5L310,276.5z"/>
			</g>
		</g>
	</g>
	<g>
		<g>
			<g>
				<g>
					<path class="st2" d="M248.29,176.88c-1.66,0-3-1.34-3-3c0-2.48-2.02-4.5-4.5-4.5s-4.5,2.02-4.5,4.5c0,1.66-1.34,3-3,3
						s-3-1.34-3-3c0-5.79,4.71-10.5,10.5-10.5s10.5,4.71,10.5,10.5C251.29,175.54,249.94,176.88,248.29,176.88z"/>
				</g>
			</g>
			<g>
				<path class="st2" d="M237.14,149.97c4.06-2.48,9.29-2.64,13.53-0.44c2.3,1.15,5.93,4.6,2.87,6.86
					c-0.75,0.51-1.61,0.46-2.42,0.28c-3.19-0.68-5.92-1.23-9.16-1.5c-1.31-0.15-2.98-0.21-4.2-0.67
					C235.72,153.97,235.35,151.02,237.14,149.97L237.14,149.97z"/>
			</g>
		</g>
		<g>
			<g>
				<g>
					<path class="st2" d="M216.71,176.88c-1.66,0-3-1.34-3-3c0-2.48-2.02-4.5-4.5-4.5s-4.5,2.02-4.5,4.5c0,1.66-1.34,3-3,3
						s-3-1.34-3-3c0-5.79,4.71-10.5,10.5-10.5s10.5,4.71,10.5,10.5C219.71,175.54,218.37,176.88,216.71,176.88z"/>
				</g>
			</g>
			<g>
				<path class="st2" d="M211.41,154.76c-2.04,0.39-4.51,0.47-6.54,0.78c-2.31,0.29-4.23,0.83-6.59,1.24
					c-2.15,0.43-3.83-2.18-2.59-3.95c2.68-4.15,8.27-5.46,12.85-4.54c2.36,0.49,6.86,1.96,5.1,5.16
					C213.17,154.27,212.25,154.53,211.41,154.76L211.41,154.76z"/>
			</g>
		</g>
		<g>
			<g>
				<g>
					<path class="st2" d="M225,209c-11.58,0-21-9.42-21-21c0-1.66,1.34-3,3-3h36c1.66,0,3,1.34,3,3C246,199.58,236.58,209,225,209z"
						/>
				</g>
				<g>
					<path class="st2" d="M243,188L243,188 M243,188c0,9.94-8.06,18-18,18s-18-8.06-18-18H243 M243,182L243,182h-36
						c-3.31,0-6,2.69-6,6c0,13.23,10.77,24,24,24c13.17,0,23.89-10.66,24-23.8c0-0.07,0-0.13,0-0.2C249,184.69,246.32,182,243,182
						L243,182z M243,194L243,194L243,194L243,194z"/>
				</g>
			</g>
			<g>
				<g>
					<path class="st13" d="M225,206c5.32,0,10.09-2.33,13.39-6c-3.3-3.67-8.07-6-13.39-6s-10.09,2.33-13.39,6
						C214.91,203.67,219.68,206,225,206z"/>
				</g>
			</g>
		</g>
	</g>
	<g>
		<g>
			<circle class="st12" cx="264" cy="191" r="3"/>
		</g>
		<g>
			<circle class="st12" cx="276" cy="191" r="3"/>
		</g>
		<g>
			<circle class="st12" cx="270" cy="179" r="3"/>
		</g>
	</g>
	<g>
		<g>
			<circle class="st12" cx="174" cy="191" r="3"/>
		</g>
		<g>
			<circle class="st12" cx="186" cy="191" r="3"/>
		</g>
		<g>
			<circle class="st12" cx="180" cy="179" r="3"/>
		</g>
	</g>
</g>
<g>
	<g>
		<path class="st14" d="M93,378.84c-41.42,0-75,33.58-75,75c0,37.43,27.43,68.46,63.28,74.09v-52.41H62.24v-21.68h19.04v-16.52
			c0-18.8,11.2-29.18,28.33-29.18c8.21,0,16.79,1.46,16.79,1.46v18.46h-9.46c-9.32,0-12.22,5.78-12.22,11.71v14.07h20.8l-3.33,21.68
			h-17.48v52.41c35.85-5.63,63.28-36.65,63.28-74.09C168,412.42,134.42,378.84,93,378.84z"/>
	</g>
</g>
<g>
	<g>
		<path class="st15" d="M453.95,424.08c-1.96-7.31-7.72-13.07-15.03-15.03c-13.26-3.55-66.42-3.55-66.42-3.55s-53.16,0-66.42,3.55
			c-7.31,1.96-13.07,7.72-15.03,15.03C287.5,437.34,287.5,465,287.5,465s0,27.66,3.55,40.92c1.96,7.31,7.72,13.07,15.03,15.03
			c13.26,3.55,66.42,3.55,66.42,3.55s53.16,0,66.42-3.55c7.31-1.96,13.07-7.72,15.03-15.03c3.55-13.26,3.55-40.92,3.55-40.92
			S457.5,437.34,453.95,424.08z"/>
	</g>
	<g>
		<polygon class="st8" points="355.5,490.5 399.67,465 355.5,439.5 		"/>
	</g>
</g>
</svg>
