<svg id="Layer_1" data-name="Layer 1" xmlns="http://www.w3.org/2000/svg" viewBox="0 0 344 208"><defs><style>.cls-1{fill:#c4e0f9;}.cls-2{fill:#b8d9f7;}.cls-3{fill:#abd1f5;}.cls-4{fill:#d8ebfb;}.cls-5{fill:#515979;}.cls-6{fill:#b6d8f7;}.cls-7{fill:#a1caf4;}.cls-8{fill:#ef7d7d;}</style></defs><polygon class="cls-1" points="264.02 117.5 79.98 117.5 100.33 146.7 126.88 182.09 153.42 184.74 178.38 198.9 197.22 180.32 225.97 169.7 251.63 137.85 264.02 117.5"/><polygon class="cls-2" points="132.19 117.5 117.14 145.81 103.87 117.5 132.19 117.5"/><polygon class="cls-3" points="132.19 117.5 117.14 145.81 117.14 117.5 132.19 117.5"/><polygon class="cls-2" points="153.42 184.74 150.77 151.12 126.88 182.09 153.42 184.74"/><polygon class="cls-2" points="214.47 117.5 218.01 139.62 218.01 157.31 233.93 137.85 241.01 117.5 214.47 117.5"/><polygon class="cls-4" points="75.77 115.73 107.7 48.98 123.44 52.48 138.57 12.43 181.78 26.83 198.33 56.45 237.27 56.45 252.23 83.58 268.31 115.73 75.77 115.73"/><path class="cls-5" d="M140.15,15.75,180,29l16.81,30.09H235.7l14.16,25.65L264,113.08H80l29.2-61,15.93,3.54,15-39.82M137,9.1l-1.81,4.78L121.77,49.39l-11.44-2.55-4.12-.91-1.82,3.81L75.2,110.79l-3.64,7.59H272.61l-3.85-7.68L254.61,82.39l-.05-.1-.05-.09L240.35,56.54l-1.51-2.74h-39L184.6,26.43l-1-1.79-2-.65L141.83,10.72,137,9.1Z"/><polygon class="cls-6" points="196.77 59.1 212.7 90.96 235.7 59.1 196.77 59.1"/><polygon class="cls-7" points="217.12 59.1 212.7 90.96 235.7 59.1 217.12 59.1"/><polygon class="cls-6" points="140.15 15.75 159.61 48.49 179.96 29.02 140.15 15.75"/><polygon class="cls-7" points="157.87 22.14 159.61 48.49 179.96 29.02 157.87 22.14"/><polygon class="cls-6" points="109.18 52.03 129.53 77.69 125.11 55.57 109.18 52.03"/><polygon class="cls-6" points="103.87 113.08 118.03 89.19 132.19 113.08 103.87 113.08"/><polygon class="cls-7" points="117.14 113.08 118.03 89.19 132.63 113.08 117.14 113.08"/><path class="cls-5" d="M282.6,118.38H61.4a2.65,2.65,0,0,1,0-5.3H282.6a2.65,2.65,0,0,1,0,5.3Z"/><path class="cls-5" d="M166.69,104.23a14.17,14.17,0,0,1-14.15-14.16,1.76,1.76,0,0,1,1.76-1.77h24.78a1.77,1.77,0,0,1,1.77,1.77A14.17,14.17,0,0,1,166.69,104.23Z"/><path class="cls-5" d="M179.08,90.07h0m0,0a12.39,12.39,0,0,1-24.78,0h24.78m0-3.54H154.3a3.54,3.54,0,0,0-3.53,3.54,15.93,15.93,0,0,0,31.85.15v-.15a3.54,3.54,0,0,0-3.54-3.54Zm0,7.08Z"/><ellipse class="cls-8" cx="166.69" cy="98.33" rx="9.21" ry="4.13"/><path class="cls-5" d="M175.73,64.44a7.69,7.69,0,0,1,1.49-1,9.51,9.51,0,0,1,1.61-.65,9.25,9.25,0,0,1,3.58-.34,7.85,7.85,0,0,1,3.6,1.25,6.59,6.59,0,0,1,2.44,2.81A1.8,1.8,0,0,1,186.24,69l-.45-.15c-.82-.28-1.42-.59-2.07-.74a11.38,11.38,0,0,0-1.88-.38,16.26,16.26,0,0,0-2.15-.11c-.39,0-.79,0-1.2,0s-.87,0-1.21,0l-.68-.1a1.76,1.76,0,0,1-1.48-2A1.78,1.78,0,0,1,175.73,64.44Z"/><path class="cls-5" d="M156.1,67.62c-.34,0-.81,0-1.21,0s-.81,0-1.19,0a16.17,16.17,0,0,0-2.15.11,11.5,11.5,0,0,0-1.89.38c-.65.15-1.24.46-2.07.74l-.44.15a1.82,1.82,0,0,1-2.3-1.13,1.84,1.84,0,0,1,.08-1.35,6.59,6.59,0,0,1,2.44-2.81,7.89,7.89,0,0,1,3.6-1.25,9.3,9.3,0,0,1,3.59.34,9.75,9.75,0,0,1,1.6.65,8.06,8.06,0,0,1,1.5,1,1.76,1.76,0,0,1-.88,3.08Z"/><path class="cls-5" d="M157.86,81.67a2.21,2.21,0,0,1-2.21-2.22,2.21,2.21,0,0,0-4.42,0,2.22,2.22,0,1,1-4.43,0,6.64,6.64,0,0,1,13.28,0A2.21,2.21,0,0,1,157.86,81.67Z"/><path class="cls-5" d="M184.37,81.67a2.22,2.22,0,0,1-2.22-2.22,2.21,2.21,0,0,0-4.42,0,2.21,2.21,0,1,1-4.42,0,6.64,6.64,0,0,1,13.27,0A2.21,2.21,0,0,1,184.37,81.67Z"/></svg>