<svg version="1.1" id="Layer_1" xmlns="http://www.w3.org/2000/svg" x="0" y="0" viewBox="0 0 440 272" style="enable-background:new 0 0 440 272" xml:space="preserve"><style>.st0{fill:#7ddf96}.st1{fill:#515979}.st2{fill:#00c853}.st3{fill:#fff}.st4{fill:#ef7d7d}</style><path class="st0" d="M29.2 214.9c-1.7-.5-2.9-2-2.9-3.7V133c-.1-1.2.9-2.2 2.1-2.3.3 0 .6 0 .8.1 55.1 13.6 110.1-16.8 165.1-3.2 1.7.5 2.9 2 2.9 3.7v78.2c.1 1.2-.9 2.2-2.1 2.3-.3 0-.6 0-.8-.1-54.9-13.6-110 16.8-165.1 3.2z"/><path class="st1" d="M194.4 130.6v78.2c-55-13.5-110.1 16.8-165.1 3.3v-78.2c55 13.5 110.1-16.9 165.1-3.3m0-5.9c-55-13.6-110.1 16.8-165.1 3.2-3.2-.8-5.9 1-5.9 4.3v78.2c.2 3.5 2.5 6.5 5.9 7.5 55.1 13.6 110.1-16.8 165.1-3.2 3.2.8 5.9-1 5.9-4.3v-78.2c-.2-3.5-2.6-6.5-5.9-7.5z"/><path class="st2" d="M187.4 187.3v-38.2c-7.2-1.3-13-7.5-13-14.7-41.7-3.2-83.4 12.7-125.2 9.5 0 7.2-5.8 12.7-13 11.4v38.2c7.2 1.3 13 7.5 13 14.7 41.7 3.2 83.4-12.7 125.2-9.5 0-7.2 5.9-12.7 13-11.4z"/><path class="st0" d="M142.2 167.2c0 20.1-13.6 37.9-30.4 40.6-16.8 2.7-30.4-12.2-30.4-32.4s13.6-37.9 30.4-40.6c16.8-2.7 30.4 12.1 30.4 32.4zm-73 9.1c0 6.2-4.7 11.6-10.4 11.5s-10.4-5.5-10.4-11.8 4.6-11 10.4-10.9 10.4 4.9 10.4 11.2zm106.1-9.7c0 6.2-4.7 10.9-10.4 10.8-5.8-.1-10.4-4.9-10.4-11.1s4.7-11.6 10.4-11.5c5.7.1 10.4 5.5 10.4 11.8z"/><path class="st1" d="M117.2 174.2c-.8 0-1.5-.6-1.5-1.4 0-.6.4-1.2.9-1.4 2.5-.9 5.2-1 7.8-.4.8.2 1.2 1 1 1.8-.2.8-1 1.2-1.8 1-2-.4-4-.3-5.9.3-.1.1-.3.1-.5.1z"/><circle class="st1" cx="120.3" cy="166" r="5.9"/><circle class="st3" cx="121.8" cy="165.9" r="1.5"/><path class="st1" d="M97.7 175.2c-.8 0-1.5-.6-1.5-1.4 0-.6.4-1.2.9-1.4 2.5-.9 5.2-1 7.8-.4.8.2 1.2 1 1 1.8-.2.8-1 1.2-1.8 1-2-.4-4-.3-5.9.3-.1.1-.3.1-.5.1z"/><circle class="st1" cx="100.8" cy="167" r="5.9"/><circle class="st3" cx="102.2" cy="166.9" r="1.5"/><path class="st1" d="M116.1 152.6c.8-.6 1.7-1 2.7-1.2 1-.2 2-.3 3-.3 1.1.1 2.1.3 3 .8 1 .4 1.8 1.1 2.5 2 .5.7.4 1.8-.4 2.3-.3.3-.8.4-1.2.3h-.4c-.8-.1-1.4-.2-2-.3-.6-.1-1.3-.2-1.9-.2l-2.1-.1c-.7 0-1.5-.1-2.2-.2l-.4-.1c-.9-.2-1.5-1-1.4-1.9.2-.4.4-.8.8-1.1zm-13.4 3.9c-.7.2-1.4.3-2.2.4l-2.1.3c-.7.1-1.3.3-1.9.4-.6.1-1.2.4-2 .5l-.4.1c-.9.2-1.8-.4-2-1.3-.1-.4 0-.8.2-1.2.5-.9 1.3-1.7 2.3-2.3.9-.6 1.9-.9 2.9-1.1 1-.2 2-.2 3 0 1 .1 2 .5 2.9 1 .8.4 1.1 1.4.6 2.2-.2.4-.6.7-1 .8l-.3.2zm7.6 28.3c-4 0-8-.8-11.6-2.5-.9-.6-1.2-1.8-.6-2.7.5-.8 1.4-1.1 2.3-.8 6.9 3.2 15.9 2.7 21.5-1.1.9-.5 2.1-.2 2.7.7.5.8.3 1.9-.5 2.5-4.2 2.6-9 4-13.8 3.9zm-2.7 3.7c1.3.3 2.7.5 4.1.4.7 0 1.4-.1 2-.3.7-.1 1.3-.3 2-.6s1.4.1 1.7.7c.2.4.1 1-.2 1.3l-.7.8c-.6.7-1.3 1.2-2.2 1.5-.8.3-1.6.4-2.5.4-.4 0-.8 0-1.2-.1-.4 0-.8-.1-1.2-.2-.8-.2-1.6-.6-2.3-1.1l-.7-.5c-.6-.5-.7-1.3-.2-1.9.3-.3.9-.5 1.4-.4z"/><path class="st0" d="M166.3 144.1c-1.7-.2-3.1-1.5-3.5-3.2L150.6 64c-.2-1.2.5-2.3 1.7-2.6.3-.1.6-.1.9 0 56.3 4.8 105.7-33.7 161.9-28.9 1.7.2 3.1 1.5 3.5 3.2l12.2 76.9c.2 1.2-.5 2.3-1.7 2.6-.3.1-.6.1-.9 0-56.3-4.7-105.7 33.7-161.9 28.9z"/><path class="st1" d="m315.6 35.4 12.2 77c-56.3-4.8-105.7 33.6-162 28.9l-12.2-77c56.3 4.8 105.7-33.7 162-28.9m-.9-5.8c-56.3-4.8-105.7 33.7-162 28.9-3.3-.3-5.6 1.9-5.1 5.1l12.2 76.9c.7 3.4 3.5 6 6.9 6.5 56.2 4.8 105.7-33.7 161.9-28.9 3.3.3 5.6-1.9 5.1-5.1l-12.2-77c-.6-3.4-3.4-5.9-6.8-6.4z"/><path class="st2" d="m317.6 92.3-6-37.6c-7.3-.2-14-5.3-15.1-12.4-41.5 3.4-80.1 25.5-121.6 28.9 1.1 7.1-3.8 13.4-11.1 13.2l6 37.6c7.3.2 14 5.3 15.1 12.4 41.5-3.4 80.1-25.5 121.6-28.9-1.1-7 3.8-13.4 11.1-13.2z"/><path class="st0" d="M270 79.6c3.1 19.8-7.5 39.4-23.6 44.7-16.1 5.3-31.8-7.3-35-27.1s7.5-39.4 23.6-44.7 31.8 7.2 35 27.1zm-70.4 20.3c1 6.1-2.8 12.1-8.5 12.9-5.7.8-11.1-3.8-12.1-10s2.9-11.4 8.6-12.3c5.7-.8 11 3.2 12 9.4zm102.8-26.1c1 6.1-2.9 11.4-8.6 12.3-5.7.8-11-3.2-12-9.3-1-6.1 2.8-12.1 8.5-12.9s11.1 3.8 12.1 9.9z"/><path class="st1" d="M245 86.5c-1 .2-2-.5-2.2-1.5-.7-3.2 1.3-6.3 4.5-6.9 3.2-.7 6.3 1.3 6.9 4.5.2 1.1-.4 2.1-1.5 2.3-1.1.2-2.1-.4-2.3-1.5-.2-1.1-1.3-1.7-2.3-1.5-.5.1-.9.4-1.2.8-.3.4-.4 1-.3 1.5.2 1.1-.4 2.1-1.5 2.3h-.1zm-19.1 4.1c-1 .2-2-.5-2.2-1.5-.7-3.2 1.3-6.3 4.5-6.9 3.2-.7 6.3 1.3 6.9 4.5.2 1.1-.4 2.1-1.5 2.3-1.1.2-2.1-.4-2.3-1.5-.2-1.1-1.3-1.7-2.3-1.5-1 .2-1.7 1.2-1.5 2.3.2 1.1-.4 2.1-1.5 2.3h-.1zm16.5-19.8c.8-.6 1.7-1.1 2.6-1.4 1-.3 1.9-.5 3-.5s2.1.2 3.1.6c1 .4 1.9 1 2.6 1.8.6.7.5 1.8-.2 2.4-.3.3-.7.4-1.1.4h-.4c-.8 0-1.4-.1-2-.2s-1.3-.1-1.9-.1H246c-.7 0-1.5.1-2.2 0h-.4c-.9-.1-1.6-.9-1.5-1.8-.1-.5.1-1 .5-1.2zm-12.7 5.9c-.6.3-1.4.6-2 .9l-1.9.8c-.6.3-1.2.6-1.7.9-.6.3-1.1.6-1.8 1l-.4.2c-.8.4-1.8.1-2.2-.7-.2-.4-.2-.8-.1-1.2.3-1 .9-2 1.6-2.7.7-.7 1.6-1.3 2.6-1.8.9-.4 1.9-.7 2.9-.8 1-.1 2 0 3 .2.9.2 1.4 1.1 1.2 2-.1.4-.4.8-.8 1l-.4.2zm13.4 30.5c-6.9 1.1-13.4-3.4-14.9-10.2-.2-.8.3-1.6 1.1-1.7l22.9-4.9c.8-.1 1.5.4 1.7 1.2 1.5 7.1-3 14.1-10.1 15.6-.3-.1-.5 0-.7 0z"/><path class="st1" d="M252.4 91.8c1.3 6.3-2.7 12.5-9 13.9-.2 0-.4.1-.6.1-6.1 1-12-3-13.3-9.1l22.9-4.9m-.4-2.9h-.2L229 93.7c-.8.2-1.4.6-1.8 1.3-.4.6-.6 1.4-.4 2.2 1.6 7.6 8.9 12.6 16.6 11.4.3 0 .5-.1.8-.1 7.9-1.7 12.9-9.4 11.3-17.3-.5-1.6-1.9-2.6-3.5-2.3z"/><ellipse transform="rotate(-12 242.64 101.817)" class="st4" cx="242.6" cy="101.8" rx="8.7" ry="3.9"/><path class="st0" d="M230.4 199.7c-1.5-.9-2.2-2.6-1.9-4.3l20.2-75.3c.3-1.2 1.4-1.9 2.6-1.7.3.1.5.2.8.3C301.6 146 362.5 131 412 158.2c1.5.9 2.2 2.6 1.9 4.3l-20.2 75.3c-.3 1.2-1.4 1.9-2.6 1.7-.3-.1-.5-.2-.8-.3-49.5-27.2-110.4-12.2-159.9-39.5z"/><path class="st1" d="M411.2 161.1c-6.7 25.1-13.5 50.2-20.2 75.3-49.5-27.3-110.3-12.2-159.8-39.5l20.2-75.3c49.5 27.2 110.3 12.2 159.8 39.5m1.5-5.7c-49.5-27.3-110.3-12.2-159.8-39.5-2.9-1.6-5.9-.5-6.7 2.6L226 193.8c-.7 3.4.8 6.9 3.7 8.7 49.5 27.3 110.3 12.2 159.8 39.5 2.9 1.6 5.9.5 6.7-2.6 6.7-25.1 13.5-50.2 20.2-75.3.8-3.4-.7-6.9-3.7-8.7z"/><path class="st2" d="m389.9 213.9 9.9-36.8c-6.6-3.1-10.6-10.6-8.8-17.5-39.3-13.8-83.6-9.3-123-23.1-1.8 6.9-8.9 10.7-15.5 7.6l-9.9 36.8c6.6 3.1 10.6 10.6 8.8 17.5 39.3 13.8 83.6 9.3 123 23.1 1.8-6.9 8.9-10.7 15.5-7.6z"/><path class="st0" d="M351.6 182.9c-5.2 19.4-22.9 33-39.8 31.2s-26.1-19.6-20.9-39.1c5.2-19.5 22.9-33 39.8-31.2 16.8 1.8 26.1 19.6 20.9 39.1zm-72.7-10.1c-1.6 6-7.5 9.9-13 8.4s-8.6-8-7-14 7.3-9.3 12.8-7.7c5.6 1.5 8.8 7.3 7.2 13.3zm104.6 18c-1.6 6-7.3 9.3-12.8 7.7-5.6-1.5-8.8-7.4-7.2-13.4 1.6-6 7.5-9.9 13-8.4s8.6 8.1 7 14.1z"/><path class="st1" d="M325.7 183.2c-.6-.1-1-.6-1.1-1.2-.1-.8.5-1.5 1.3-1.6 2.6-.2 5.3.4 7.6 1.6.7.5.8 1.4.4 2-.4.6-1.2.8-1.9.5-1.8-.9-3.8-1.4-5.7-1.2-.3-.1-.4-.1-.6-.1z"/><circle class="st1" cx="330.7" cy="176.1" r="5.8"/><circle class="st3" cx="332.1" cy="176.4" r="1.5"/><path class="st1" d="M306.6 179.1c-.6-.1-1-.7-1.1-1.3-.1-.8.5-1.5 1.3-1.6 2.6-.2 5.3.4 7.6 1.6.7.5.8 1.4.4 2-.4.6-1.2.8-1.9.5-1.8-.9-3.8-1.4-5.7-1.2h-.6z"/><circle class="st1" cx="311.6" cy="172" r="5.8"/><circle class="st3" cx="313.1" cy="172.3" r="1.5"/><path class="st1" d="M330.1 162.1c1-.3 2-.5 3-.5s2 .2 3 .5 1.9.9 2.7 1.5c.8.7 1.5 1.6 1.9 2.6.3.9-.1 1.8-1 2.2-.4.1-.8.1-1.2 0l-.4-.1c-.7-.3-1.3-.6-1.9-.8-.6-.2-1.2-.5-1.8-.7l-2-.7c-.7-.2-1.4-.4-2.1-.7l-.4-.2c-.8-.4-1.2-1.4-.8-2.2.3-.4.6-.7 1-.9zm-13.8.3c-.7 0-1.5-.1-2.2-.2l-2.1-.2c-.7-.1-1.3 0-1.9-.1h-2.4c-.9 0-1.6-.8-1.6-1.8 0-.4.2-.8.5-1.1.8-.8 1.7-1.3 2.7-1.6 1-.3 2.1-.4 3.1-.3 1 .1 2 .3 2.9.7.9.4 1.8.9 2.5 1.6.6.6.6 1.7 0 2.3-.3.3-.7.5-1.2.5l-.3.2zm-1.4 37.6c-6.8-1.8-10.9-8.6-9.5-15.5.2-.8.9-1.3 1.7-1.1l23 4.9c.3.1.7.3.9.6.2.3.3.7.2 1.1-1.5 7.1-8.5 11.6-15.6 10.1l-.7-.1z"/><path class="st1" d="M329.8 189.7c-1.3 6.3-7.6 10.4-13.9 9l-.6-.1c-6-1.6-9.7-7.6-8.4-13.7l22.9 4.8m.8-2.8h-.1l-22.9-4.9c-1.6-.3-3.1.7-3.5 2.3-1.6 7.6 3 15.1 10.5 17.2l.8.2c7.9 1.7 15.7-3.4 17.3-11.3.3-1.6-.7-3.1-2.1-3.5z"/><ellipse transform="rotate(-78 316.746 194.933)" class="st4" cx="316.7" cy="194.9" rx="3.9" ry="8.7"/></svg>