<svg width="260" height="260" fill="none" xmlns="http://www.w3.org/2000/svg"><path d="M147.827 85.904a5.194 5.194 0 0 0-3.96-1.837h-22.534a26 26 0 0 0-26 26V239.2h5.2l8.667-4.333h17.333l8.667 4.333h5.2v-96.642l8.597-52.45a5.202 5.202 0 0 0-1.17-4.204z" fill="#515979"/><path d="M121.333 89.267a20.797 20.797 0 0 0-20.8 20.8V239.2H135.2v-97.067l8.667-52.866h-22.534z" fill="#FDE4DD"/><path d="M56.333 169.867A4.336 4.336 0 0 1 52 165.533v-50.266a2.601 2.601 0 0 1 2.6-2.6h5.2a2.602 2.602 0 0 1 2.6 2.6v50.266a4.335 4.335 0 0 1-4.333 4.334h-1.734z" fill="#FAE0C5"/><path d="M59.8 115.267v50.266a1.733 1.733 0 0 1-1.733 1.734h-1.734a1.734 1.734 0 0 1-1.733-1.734v-50.266h5.2zm0-5.2h-5.2a5.197 5.197 0 0 0-5.2 5.2v50.266a6.933 6.933 0 0 0 6.933 6.934h1.734A6.935 6.935 0 0 0 65 165.533v-50.266a5.2 5.2 0 0 0-5.2-5.2z" fill="#515979"/><path d="M59.8 118.733h-5.2v15.6h5.2v-15.6z" fill="#F6CB9F"/><path d="M57.2 121.333a16.467 16.467 0 0 1-16.467-16.397l-3.362-63.041a19.933 19.933 0 1 1 39.658 0l-3.362 63.041A16.467 16.467 0 0 1 57.2 121.333z" fill="#F6C18C"/><path d="M57.2 22.533a17.333 17.333 0 0 1 17.238 19.154l-3.371 63.18a13.868 13.868 0 0 1-23.672 9.805 13.868 13.868 0 0 1-4.062-9.805l-3.37-63.18A17.333 17.333 0 0 1 57.2 22.534zm0-5.2a22.533 22.533 0 0 0-22.42 24.76l3.353 62.921a19.066 19.066 0 1 0 38.134 0l3.354-62.92a22.534 22.534 0 0 0-22.42-24.76z" fill="#515979"/><path d="M59.557 80.6A7.973 7.973 0 0 1 52 72.583v-8.45a7.8 7.8 0 0 0-7.8-7.8h-4.333a7.8 7.8 0 0 1-7.8-7.8v-8.198c0-13.746 10.954-25.22 24.43-25.593h.703a25.133 25.133 0 0 1 25.133 25.133v13a8.667 8.667 0 0 1-8.58 8.667 6.161 6.161 0 0 0-6.153 6.067v5.2a7.8 7.8 0 0 1-7.8 7.8l-.243-.01z" fill="#FFE8A0"/><path d="M57.2 17.333a22.534 22.534 0 0 1 22.533 22.534v13a6.067 6.067 0 0 1-6.006 6.066A8.727 8.727 0 0 0 65 67.6v5.2a5.2 5.2 0 0 1-5.2 5.2h-.156a5.348 5.348 0 0 1-5.044-5.417v-8.45a10.4 10.4 0 0 0-10.4-10.4h-4.333a5.2 5.2 0 0 1-5.2-5.2v-8.198c0-12.281 9.628-22.655 21.9-22.993h.633v-.009zm0-5.191h-.78A27.308 27.308 0 0 0 37.267 20.8a28.357 28.357 0 0 0-7.8 19.543v8.19a10.4 10.4 0 0 0 10.4 10.4H44.2a5.2 5.2 0 0 1 5.2 5.2v8.45A10.582 10.582 0 0 0 59.488 83.2h.312a10.4 10.4 0 0 0 10.4-10.4v-5.2a3.553 3.553 0 0 1 3.58-3.467 11.267 11.267 0 0 0 11.153-11.266v-13A27.733 27.733 0 0 0 57.2 12.133v.009z" fill="#515979"/><path d="M48.1 91a2.167 2.167 0 1 0 0-4.333 2.167 2.167 0 0 0 0 4.333z" fill="#F0AF7D"/><path d="M49.4 34.666a2.6 2.6 0 1 0 0-5.2 2.6 2.6 0 0 0 0 5.2zM65.867 50.267a2.6 2.6 0 1 0 0-5.2 2.6 2.6 0 0 0 0 5.2z" fill="#FFD886"/><path d="M54.167 110.067a2.167 2.167 0 1 0 0-4.333 2.167 2.167 0 0 0 0 4.333zM64.567 97.067a2.167 2.167 0 1 0 0-4.334 2.167 2.167 0 0 0 0 4.334z" fill="#F0AF7D"/><path d="M65.494 130.971a5.2 5.2 0 0 0-3.96-1.838H39a26.004 26.004 0 0 0-26 26V239.2h5.2l8.667-3.467H44.2l8.667 3.467h5.2v-51.575l8.597-52.451a5.198 5.198 0 0 0-1.17-4.203z" fill="#515979"/><path d="M39 134.333a20.803 20.803 0 0 0-20.8 20.8V239.2h34.667v-52l8.666-52.867H39z" fill="#FDE4DD"/><path d="m52.867 191.533-12.134-24.266 13.867-13-1.733 37.266zM52.867 226.2l-12.134-24.267h12.134V226.2z" fill="#FFC8BE"/><path d="M67.6 183.733H56.333v5.2H67.6a5.2 5.2 0 0 1 0 10.4H40.733a2.599 2.599 0 0 0-1.838 4.439 2.598 2.598 0 0 0 1.838.761H67.6a10.397 10.397 0 0 0 10.4-10.4 10.398 10.398 0 0 0-10.4-10.4z" fill="#515979"/><path d="M67.6 188.933H39v10.4h28.6a5.197 5.197 0 0 0 5.2-5.2 5.202 5.202 0 0 0-5.2-5.2z" fill="#FDE4DD"/><path d="M89.267 155.133a10.402 10.402 0 0 0-3.545-7.8 10.4 10.4 0 0 0-6.855-18.2H61.533a10.401 10.401 0 0 0-6.855 18.2 10.401 10.401 0 0 0-1.092 14.5 10.35 10.35 0 0 0-4.947 7.429 10.357 10.357 0 0 0 2.668 8.517 10.401 10.401 0 0 0 5.893 18.954h17.333a10.397 10.397 0 0 0 10.234-12.119 10.403 10.403 0 0 0-2.607-5.327 10.403 10.403 0 0 0 4.081-11.461 10.402 10.402 0 0 0-2.027-3.792 10.396 10.396 0 0 0 5.053-8.901z" fill="#515979"/><path d="M84.067 139.533a5.2 5.2 0 0 0-5.2-5.2H61.533a5.2 5.2 0 0 0 0 10.4h17.334a5.2 5.2 0 0 0 5.2-5.2zM56.333 155.133a5.2 5.2 0 0 0 5.2 5.2h17.334a5.197 5.197 0 0 0 5.2-5.2 5.202 5.202 0 0 0-5.2-5.2H61.533a5.2 5.2 0 0 0-5.2 5.2zM53.733 170.733a5.2 5.2 0 0 0 5.2 5.2h17.334a5.2 5.2 0 0 0 0-10.4H58.933a5.2 5.2 0 0 0-5.2 5.2zM52 186.333a5.2 5.2 0 0 0 5.2 5.2h17.333a5.2 5.2 0 0 0 0-10.4H57.2a5.2 5.2 0 0 0-5.2 5.2z" fill="#FDE4DD"/><path d="M61.533 134.333H39l-8.667 12.134v20.8h1.014A2.601 2.601 0 0 1 33.8 163.8a15.652 15.652 0 0 0 14.69-10.4c.273-.756.484-1.533.633-2.323 0-.095 0-.182.043-.277.148-.859.226-1.729.234-2.6a2.601 2.601 0 1 1 5.2 0v5.2a8.667 8.667 0 0 0 8.667 8.667 3.468 3.468 0 0 0 3.466-3.467v-19.067a5.2 5.2 0 0 0-5.2-5.2z" fill="#FDE4DD"/><path d="M61.533 129.133H45.067a5.2 5.2 0 0 0-5.2 5.2h21.666a5.2 5.2 0 0 1 5.2 5.2V158.6a3.466 3.466 0 0 1-3.466 3.467A8.669 8.669 0 0 1 54.6 153.4v-5.2a2.601 2.601 0 1 0-5.2 0 16.103 16.103 0 0 1-.234 2.6c0 .095 0 .182-.043.277-.149.79-.36 1.567-.633 2.323a15.652 15.652 0 0 1-14.69 10.4 2.602 2.602 0 0 0-2.6 2.6c.002.295.052.588.147.867A2.597 2.597 0 0 0 33.8 169a20.802 20.802 0 0 0 17.212-9.135 13.865 13.865 0 0 0 12.255 7.402 8.668 8.668 0 0 0 8.666-8.667v-19.067a10.402 10.402 0 0 0-10.4-10.4z" fill="#515979"/><path d="m131.733 146.467-8.666-24.267 13.866-13-5.2 37.267zM135.2 181.133l-12.133-24.266H135.2v24.266z" fill="#FFC8BE"/><path d="M139.533 159.467h-16.466a2.6 2.6 0 1 1 0-5.2h16.466c.69 0 1.351.274 1.839.761a2.603 2.603 0 0 1 0 3.677 2.6 2.6 0 0 1-1.839.762z" fill="#515979"/><path d="M142.133 164.667a7.8 7.8 0 0 1-7.8-7.8V79.213a8.16 8.16 0 0 1 8.147-8.146h39.173a2.954 2.954 0 0 1 2.947 2.946v9.707a2.955 2.955 0 0 1-2.947 2.947h-31.72v62.4h31.72a2.953 2.953 0 0 1 2.947 2.946v9.707a2.954 2.954 0 0 1-2.947 2.947h-39.52z" fill="#D8EBFB"/><path d="M181.653 73.667a.346.346 0 0 1 .347.346v9.707a.347.347 0 0 1-.347.347H147.68a.346.346 0 0 0-.347.346v66.907a.347.347 0 0 0 .347.347h33.973a.346.346 0 0 1 .347.346v9.707a.347.347 0 0 1-.347.347h-39.52a5.202 5.202 0 0 1-5.2-5.2V79.213a5.557 5.557 0 0 1 5.547-5.547h39.173zm0-5.2H142.48a10.755 10.755 0 0 0-10.747 10.746v77.654a10.4 10.4 0 0 0 10.4 10.4h39.52a5.558 5.558 0 0 0 5.547-5.547v-9.707a5.55 5.55 0 0 0-5.547-5.546h-29.12v-57.2h29.12a5.556 5.556 0 0 0 5.547-5.547v-9.707a5.553 5.553 0 0 0-5.547-5.546z" fill="#515979"/><path d="M187.2 176.8a7.8 7.8 0 0 1-7.8-7.8V63.267a2.599 2.599 0 0 1 2.6-2.6h62.4a2.601 2.601 0 0 1 2.6 2.6V169a7.804 7.804 0 0 1-2.284 5.516 7.804 7.804 0 0 1-5.516 2.284h-52z" fill="#D8EBFB"/><path d="M244.4 63.267V169a5.2 5.2 0 0 1-5.2 5.2h-52a5.2 5.2 0 0 1-5.2-5.2V63.267h62.4zm0-5.2H182a5.2 5.2 0 0 0-5.2 5.2V169a10.403 10.403 0 0 0 10.4 10.4h52a10.401 10.401 0 0 0 10.4-10.4V63.267a5.2 5.2 0 0 0-5.2-5.2z" fill="#515979"/><path d="M197.6 68.467h-10.4v34.666a18.52 18.52 0 0 0 10.4 3.467V68.467zM218.4 68.467H208v36.4c3.467-1.066 6.933-2.418 10.4-3.467V68.467zM228.8 68.467v31.2a18.524 18.524 0 0 1 10.4 3.466V68.467h-10.4z" fill="#C3DEFF"/><path d="M173.333 110.067a10.401 10.401 0 0 0-3.544-7.8 10.397 10.397 0 0 0-.952-16.346 10.399 10.399 0 0 0-5.904-1.854h-18.2a5.202 5.202 0 0 0-5.2 5.2v10.4a5.203 5.203 0 0 0 3.354 4.853 10.34 10.34 0 0 0 .867 12.246 10.34 10.34 0 0 0-3.527 14.291 10.402 10.402 0 0 0 1.906 20.61H158.6a10.406 10.406 0 0 0 9.506-6.234 10.397 10.397 0 0 0-1.879-11.212 10.408 10.408 0 0 0 4.081-11.461 10.404 10.404 0 0 0-2.027-3.793 10.402 10.402 0 0 0 5.052-8.9z" fill="#515979"/><path d="M168.133 94.467a5.196 5.196 0 0 0-5.2-5.2h-18.2v10.4h18.2a5.2 5.2 0 0 0 5.2-5.2zM146.467 110.067a5.202 5.202 0 0 0 5.2 5.2h11.266a5.2 5.2 0 0 0 0-10.4h-11.266a5.2 5.2 0 0 0-5.2 5.2zM143.867 125.667a5.202 5.202 0 0 0 5.2 5.2h11.266a5.2 5.2 0 0 0 0-10.4h-11.266a5.197 5.197 0 0 0-5.2 5.2zM136.933 141.267a5.202 5.202 0 0 0 5.2 5.2H158.6a5.2 5.2 0 0 0 0-10.4h-16.467a5.198 5.198 0 0 0-5.2 5.2z" fill="#FDE4DD"/><path d="M143.867 89.267h-22.534l-8.666 12.133v20.8h1.014a2.598 2.598 0 0 1 2.452-3.467 15.652 15.652 0 0 0 15.323-12.722c0-.096 0-.182.043-.278.149-.859.227-1.728.234-2.6a2.598 2.598 0 0 1 2.6-2.6 2.6 2.6 0 0 1 2.6 2.6v5.2A8.666 8.666 0 0 0 145.6 117a3.467 3.467 0 0 0 3.467-3.467V94.467a5.2 5.2 0 0 0-5.2-5.2z" fill="#FDE4DD"/><path d="M143.867 84.067H127.4a5.2 5.2 0 0 0-5.2 5.2h21.667a5.202 5.202 0 0 1 5.2 5.2v19.066A3.47 3.47 0 0 1 145.6 117a8.666 8.666 0 0 1-8.667-8.667v-5.2a2.6 2.6 0 0 0-5.2 0 15.957 15.957 0 0 1-.234 2.6c0 .096 0 .182-.043.278a15.04 15.04 0 0 1-.633 2.322 15.649 15.649 0 0 1-14.69 10.4 2.598 2.598 0 0 0-2.6 2.6 2.603 2.603 0 0 0 2.6 2.6 20.8 20.8 0 0 0 17.212-9.134A13.872 13.872 0 0 0 145.6 122.2a8.666 8.666 0 0 0 8.667-8.667V94.467a10.402 10.402 0 0 0-10.4-10.4z" fill="#515979"/><path d="M239.2 113.533h-52V94.467c17.333 12.133 34.667-12.134 52 0v19.066z" fill="#FFF9ED"/><path d="M197.6 97.933a18.52 18.52 0 0 1-10.4-3.466V117a18.527 18.527 0 0 0 10.4 3.467V97.933zM218.4 115.267V92.733c-3.467 1.066-6.933 2.418-10.4 3.467v22.533c3.467-1.057 6.933-2.409 10.4-3.466zM228.8 113.533A18.52 18.52 0 0 1 239.2 117V94.467A18.52 18.52 0 0 0 228.8 91v22.533z" fill="#FFEFCF"/><path d="M236.6 169h-46.8a2.6 2.6 0 0 1-2.6-2.6v-58.067c17.333 12.134 34.667-12.133 52 0V166.4c0 .69-.274 1.351-.761 1.839a2.603 2.603 0 0 1-1.839.761z" fill="#FFD886"/><path d="M187.2 108.333V166.4a2.598 2.598 0 0 0 2.6 2.6h7.8v-57.2a18.52 18.52 0 0 1-10.4-3.467zM208 110.067V169h10.4v-62.4c-3.467 1.057-6.933 2.409-10.4 3.467zM228.8 104.867V169h7.8c.69 0 1.351-.274 1.839-.761a2.603 2.603 0 0 0 .761-1.839v-58.067a18.519 18.519 0 0 0-10.4-3.466zM223.167 124.8a2.167 2.167 0 1 0-.001-4.333 2.167 2.167 0 0 0 .001 4.333z" fill="#FAC864"/><path d="M212.767 150.8a2.167 2.167 0 1 0-.001-4.333 2.167 2.167 0 0 0 .001 4.333z" fill="#FBB040"/><path d="M201.5 137.8a2.167 2.167 0 1 0 0-4.333 2.167 2.167 0 0 0 0 4.333z" fill="#FAC864"/></svg>