<?xml version="1.0" encoding="utf-8"?>
<!-- Generator: Adobe Illustrator 26.2.1, SVG Export Plug-In . SVG Version: 6.00 Build 0)  -->
<svg version="1.1" id="Email_x5F_Hub-Email_x5F_Subject_x5F_Lines"
	 xmlns="http://www.w3.org/2000/svg" xmlns:xlink="http://www.w3.org/1999/xlink" x="0px" y="0px" viewBox="0 0 400 400"
	 style="enable-background:new 0 0 400 400;" xml:space="preserve">
<style type="text/css">
	.st0{fill:none;}
	.st1{fill:#F7F5FF;}
	.st2{fill:#EEEBFF;}
	.st3{fill:#E6E1FF;}
	.st4{fill:#FFD886;}
	.st5{fill:#ACC9DB;}
	.st6{fill:#515979;}
	.st7{fill:#FFFFFF;}
	.st8{fill:#E8F3FD;}
	.st9{fill:#D8EBFB;}
	.st10{fill:#EF7D7D;}
	.st11{fill:#FDE1D9;}
	.st12{fill:#CCCCCC;}
	.st13{fill:#979BAF;}
	.st14{fill:#9E8271;}
	.st15{fill:#A0D2FF;}
</style>
<rect class="st0" width="400" height="400"/>
<circle class="st1" cx="200" cy="200" r="170"/>
<circle class="st2" cx="200" cy="200" r="140"/>
<circle class="st3" cx="200" cy="200" r="110"/>
<circle class="st4" cx="292" cy="80" r="4"/>
<circle class="st4" cx="342" cy="106" r="3"/>
<circle class="st4" cx="258.5" cy="56.5" r="2.5"/>
<path class="st4" d="M322.6,65.86c2.65,0,4.8-2.15,4.8-4.8c0-0.88,0.72-1.6,1.6-1.6s1.6,0.72,1.6,1.6c0,2.65,2.15,4.8,4.8,4.8
	c0.88,0,1.6,0.72,1.6,1.6s-0.72,1.6-1.6,1.6c-2.65,0-4.8,2.15-4.8,4.8c0,0.88-0.72,1.6-1.6,1.6s-1.6-0.72-1.6-1.6
	c0-2.65-2.15-4.8-4.8-4.8c-0.88,0-1.6-0.72-1.6-1.6S321.72,65.86,322.6,65.86z"/>
<path class="st4" d="M108.6,51.4c2.65,0,4.8-2.15,4.8-4.8c0-0.88,0.72-1.6,1.6-1.6s1.6,0.72,1.6,1.6c0,2.65,2.15,4.8,4.8,4.8
	c0.88,0,1.6,0.72,1.6,1.6s-0.72,1.6-1.6,1.6c-2.65,0-4.8,2.15-4.8,4.8c0,0.88-0.72,1.6-1.6,1.6s-1.6-0.72-1.6-1.6
	c0-2.65-2.15-4.8-4.8-4.8c-0.88,0-1.6-0.72-1.6-1.6S107.72,51.4,108.6,51.4z"/>
<circle class="st4" cx="43" cy="135" r="5"/>
<path class="st4" d="M302.8,344.2c2.98,0,5.4-2.42,5.4-5.4c0-0.99,0.81-1.8,1.8-1.8s1.8,0.81,1.8,1.8c0,2.98,2.42,5.4,5.4,5.4
	c0.99,0,1.8,0.81,1.8,1.8s-0.81,1.8-1.8,1.8c-2.98,0-5.4,2.42-5.4,5.4c0,0.99-0.81,1.8-1.8,1.8s-1.8-0.81-1.8-1.8
	c0-2.98-2.42-5.4-5.4-5.4c-0.99,0-1.8-0.81-1.8-1.8S301.81,344.2,302.8,344.2z"/>
<path class="st4" d="M95.8,313.2c2.98,0,5.4-2.42,5.4-5.4c0-0.99,0.81-1.8,1.8-1.8s1.8,0.81,1.8,1.8c0,2.98,2.42,5.4,5.4,5.4
	c0.99,0,1.8,0.81,1.8,1.8s-0.81,1.8-1.8,1.8c-2.98,0-5.4,2.42-5.4,5.4c0,0.99-0.81,1.8-1.8,1.8s-1.8-0.81-1.8-1.8
	c0-2.98-2.42-5.4-5.4-5.4c-0.99,0-1.8-0.81-1.8-1.8S94.81,313.2,95.8,313.2z"/>
<circle class="st4" cx="268" cy="340" r="3"/>
<circle class="st4" cx="345" cy="323" r="3"/>
<circle class="st4" cx="351.5" cy="288.5" r="2.5"/>
<circle class="st4" cx="60" cy="284" r="4"/>
<path class="st4" d="M63,64h-7v-7c0-1.66-1.34-3-3-3s-3,1.34-3,3v7h-7c-1.66,0-3,1.34-3,3s1.34,3,3,3h7v7c0,1.66,1.34,3,3,3
	s3-1.34,3-3v-7h7c1.66,0,3-1.34,3-3S64.66,64,63,64z"/>
<path class="st5" d="M157,210c-1.27,0-2.4-0.8-2.83-2s-0.05-2.53,0.94-3.33l68.7-55.78c2.31-1.88,5.22-2.91,8.19-2.91
	c2.98,0,5.89,1.03,8.19,2.91l68.7,55.78c0.99,0.8,1.36,2.14,0.94,3.33s-1.56,2-2.83,2H157z"/>
<path class="st6" d="M232,148.98c2.23,0,4.47,0.75,6.3,2.24L307,207H157l68.7-55.78C227.53,149.73,229.77,148.98,232,148.98
	 M232,142.98c-3.66,0-7.24,1.27-10.09,3.58l-68.7,55.78c-1.97,1.6-2.72,4.27-1.87,6.66c0.85,2.39,3.11,3.99,5.65,3.99h150
	c2.54,0,4.8-1.6,5.65-3.99c0.85-2.39,0.1-5.06-1.87-6.66l-68.7-55.78C239.24,144.25,235.66,142.98,232,142.98L232,142.98z"/>
<path class="st5" d="M162.76,310c-4.83,0-8.76-3.93-8.76-8.76V207c0-1.66,1.34-3,3-3h150c1.66,0,3,1.34,3,3v94.24
	c0,4.83-3.93,8.76-8.76,8.76H162.76z"/>
<path class="st6" d="M307,207v94.24c0,3.18-2.58,5.76-5.76,5.76H162.76c-3.18,0-5.76-2.58-5.76-5.76V207H307 M307,201H157
	c-3.31,0-6,2.69-6,6v94.24c0,6.48,5.27,11.76,11.76,11.76h138.49c6.48,0,11.76-5.27,11.76-11.76V207C313,203.69,310.31,201,307,201
	L307,201z"/>
<path class="st7" d="M186,270c-3.86,0-7-3.14-7-7V133c0-3.86,3.14-7,7-7h77c0.8,0,1.56,0.32,2.12,0.88l19,19
	c0.56,0.56,0.88,1.33,0.88,2.12v115c0,3.86-3.14,7-7,7H186z"/>
<path class="st6" d="M263,129l19,19v115c0,2.21-1.79,4-4,4h-92c-2.21,0-4-1.79-4-4V133c0-2.21,1.79-4,4-4H263 M263,123h-77
	c-5.51,0-10,4.49-10,10v130c0,5.51,4.49,10,10,10h92c5.51,0,10-4.49,10-10V148c0-1.59-0.63-3.12-1.76-4.24l-19-19
	C266.12,123.63,264.59,123,263,123L263,123z"/>
<path class="st8" d="M232,251l-50-40v52.24c0,2.21,1.79,4,4,4h92c2.21,0,4-1.79,4-4V211L232,251z"/>
<path class="st8" d="M302,293l-64.12-52.06c-3.43-2.78-8.34-2.78-11.77,0L162,293"/>
<path class="st9" d="M268,151c-3.86,0-7-3.14-7-7v-14c0-1.21,0.73-2.31,1.85-2.77c0.37-0.15,0.76-0.23,1.15-0.23
	c0.78,0,1.55,0.3,2.12,0.88l18,18c0.86,0.86,1.12,2.15,0.65,3.27c-0.46,1.12-1.56,1.85-2.77,1.85H268z"/>
<path class="st6" d="M264,130l18,18h-14c-2.21,0-4-1.79-4-4V130 M264,124c-0.77,0-1.55,0.15-2.29,0.46c-2.24,0.93-3.7,3.12-3.7,5.54
	v14c0,5.51,4.49,10,10,10h14c2.43,0,4.61-1.46,5.54-3.7c0.93-2.24,0.42-4.82-1.3-6.54l-18-18C267.09,124.61,265.56,124,264,124
	L264,124z"/>
<path class="st6" d="M267,215h-70c-1.66,0-3-1.34-3-3l0,0c0-1.66,1.34-3,3-3h70c1.66,0,3,1.34,3,3l0,0
	C270,213.66,268.66,215,267,215z"/>
<path class="st6" d="M267,227h-70c-1.66,0-3-1.34-3-3l0,0c0-1.66,1.34-3,3-3h70c1.66,0,3,1.34,3,3l0,0
	C270,225.66,268.66,227,267,227z"/>
<path class="st6" d="M249,239h-52c-1.66,0-3-1.34-3-3l0,0c0-1.66,1.34-3,3-3h52c1.66,0,3,1.34,3,3l0,0
	C252,237.66,250.66,239,249,239z"/>
<path class="st9" d="M162.76,310c-4.83,0-8.76-3.93-8.76-8.76V207c0-1.15,0.66-2.2,1.7-2.7c0.41-0.2,0.86-0.3,1.3-0.3
	c0.67,0,1.33,0.22,1.87,0.66l73.13,58.5l73.13-58.5c0.54-0.43,1.21-0.66,1.87-0.66c0.44,0,0.89,0.1,1.3,0.3
	c1.04,0.5,1.7,1.55,1.7,2.7v94.24c0,4.83-3.93,8.76-8.76,8.76H162.76z"/>
<path class="st6" d="M307,207v94.24c0,3.18-2.58,5.76-5.76,5.76H162.76c-3.18,0-5.76-2.58-5.76-5.76V207l75,60L307,207 M307,201
	c-1.34,0-2.66,0.45-3.75,1.31l-71.25,57l-71.25-57c-1.08-0.87-2.41-1.31-3.75-1.31c-0.88,0-1.77,0.19-2.6,0.59
	c-2.08,1-3.4,3.1-3.4,5.41v94.24c0,6.48,5.27,11.76,11.76,11.76h138.49c6.48,0,11.76-5.27,11.76-11.76V207
	c0-2.31-1.32-4.41-3.4-5.41C308.77,201.19,307.88,201,307,201L307,201z"/>
<path class="st9" d="M307,307l-68.7-55.78c-3.67-2.98-8.93-2.98-12.61,0L157,307"/>
<path class="st6" d="M307,310c-0.66,0-1.33-0.22-1.89-0.67l-68.7-55.78c-2.56-2.08-6.27-2.08-8.83,0l-68.7,55.78
	c-1.29,1.04-3.18,0.85-4.22-0.44c-1.04-1.29-0.85-3.17,0.44-4.22l68.7-55.78c4.75-3.86,11.64-3.86,16.39,0l68.7,55.78
	c1.29,1.04,1.48,2.93,0.44,4.22C308.74,309.62,307.87,310,307,310z"/>
<path class="st6" d="M239.03,178.61c-0.62,0-1.2-0.39-1.42-1.01c-0.27-0.78,0.15-1.64,0.93-1.91c2.24-0.77,5.74-0.77,7.98,0
	c0.78,0.27,1.2,1.12,0.93,1.91c-0.27,0.78-1.12,1.2-1.91,0.93c-1.6-0.55-4.42-0.55-6.02,0
	C239.35,178.59,239.19,178.61,239.03,178.61z"/>
<circle class="st6" cx="242.53" cy="170.42" r="6"/>
<circle class="st7" cx="244.03" cy="170.42" r="1.5"/>
<path class="st6" d="M239.41,156.58c3.02-1.72,6.69-1.65,9.73-0.02c1.81,0.93,4.35,3.84,1.77,5.43c-0.53,0.31-1.14,0.27-1.71,0.22
	c-3.34-0.42-6.38-1.23-9.46-2.64C238.45,159.07,238.2,157.32,239.41,156.58L239.41,156.58z"/>
<path class="st6" d="M224.97,178.61c-0.16,0-0.33-0.03-0.49-0.08c-1.6-0.55-4.42-0.55-6.02,0c-0.79,0.27-1.64-0.15-1.91-0.93
	c-0.27-0.78,0.15-1.64,0.93-1.91c2.24-0.77,5.74-0.77,7.98,0c0.78,0.27,1.2,1.12,0.93,1.91
	C226.18,178.22,225.6,178.61,224.97,178.61z"/>
<circle class="st6" cx="221.47" cy="170.42" r="6"/>
<circle class="st7" cx="222.97" cy="170.42" r="1.5"/>
<path class="st6" d="M224.26,159.57c-3.08,1.41-6.12,2.22-9.46,2.64c-1.36,0.25-2.69-0.47-2.8-1.93c0.45-3.92,6.13-5.43,9.43-4.82
	c1.53,0.27,4.87,1.12,3.72,3.36C224.94,159.18,224.6,159.39,224.26,159.57L224.26,159.57z"/>
<path class="st6" d="M244.01,182.83h-24c-2.21,0-4,1.79-4,4c0,8.82,7.18,16,16,16c4.27,0,8.29-1.66,11.31-4.69
	c2.98-2.98,4.64-6.94,4.69-11.15c0-0.05,0-0.11,0-0.16C248,184.62,246.21,182.83,244.01,182.83z"/>
<path class="st10" d="M232,198.83c3.55,0,6.73-1.55,8.93-4c-2.2-2.45-5.38-4-8.93-4c-3.55,0-6.73,1.55-8.93,4
	C225.27,197.28,228.45,198.83,232,198.83z"/>
<circle class="st11" cx="206" cy="181" r="2"/>
<circle class="st11" cx="202" cy="189" r="2"/>
<circle class="st11" cx="210" cy="189" r="2"/>
<circle class="st11" cx="258" cy="181" r="2"/>
<circle class="st11" cx="254" cy="189" r="2"/>
<circle class="st11" cx="262" cy="189" r="2"/>
<path class="st12" d="M114.19,180.77c-0.8,0-1.56-0.32-2.12-0.88l-5.66-5.66c-1.17-1.17-1.17-3.07,0-4.24l19.8-19.8
	c0.59-0.59,1.35-0.88,2.12-0.88s1.54,0.29,2.12,0.88l5.66,5.66c0.56,0.56,0.88,1.33,0.88,2.12c0,0.8-0.32,1.56-0.88,2.12l-19.8,19.8
	C115.75,180.46,114.99,180.77,114.19,180.77z"/>
<path class="st6" d="M128.33,152.32l5.66,5.66l-19.8,19.8l-5.66-5.66L128.33,152.32 M128.33,146.32c-1.59,0-3.12,0.63-4.24,1.76
	l-19.8,19.8c-2.34,2.34-2.34,6.14,0,8.49l5.66,5.66c1.13,1.13,2.65,1.76,4.24,1.76s3.12-0.63,4.24-1.76l19.8-19.8
	c1.13-1.13,1.76-2.65,1.76-4.24c0-1.59-0.63-3.12-1.76-4.24l-5.66-5.66C131.45,146.95,129.93,146.32,128.33,146.32L128.33,146.32z"
	/>
<rect x="118.82" y="159.98" transform="matrix(0.7071 -0.7071 0.7071 0.7071 -80.1265 134.526)" class="st13" width="7" height="8"/>
<path class="st12" d="M163.69,175.62c-14.16,0-27.47-5.51-37.48-15.52c-20.66-20.66-20.66-54.29,0-74.95
	c10.01-10.01,23.32-15.52,37.48-15.52s27.47,5.51,37.48,15.52c10.01,10.01,15.52,23.32,15.52,37.48c0,14.16-5.51,27.47-15.52,37.48
	C191.16,170.11,177.85,175.62,163.69,175.62z"/>
<path class="st6" d="M163.69,72.62c12.8,0,25.59,4.88,35.36,14.64c19.53,19.53,19.53,51.18,0,70.71
	c-9.76,9.76-22.56,14.64-35.36,14.64s-25.59-4.88-35.36-14.64c-19.53-19.53-19.53-51.18,0-70.71
	C138.1,77.5,150.89,72.62,163.69,72.62 M163.69,66.62c-14.96,0-29.02,5.83-39.6,16.4c-21.83,21.83-21.83,57.36,0,79.2
	c10.58,10.58,24.64,16.4,39.6,16.4s29.02-5.83,39.6-16.4c21.83-21.83,21.83-57.36,0-79.2C192.71,72.44,178.65,66.62,163.69,66.62
	L163.69,66.62z"/>
<path class="st14" d="M85.2,216.83c-0.77,0-1.54-0.29-2.12-0.88l-12.73-12.73c-0.56-0.56-0.88-1.33-0.88-2.12s0.32-1.56,0.88-2.12
	l32.53-32.53c0.56-0.56,1.33-0.88,2.12-0.88l0,0c0.8,0,1.56,0.32,2.12,0.88l12.73,12.73c1.17,1.17,1.17,3.07,0,4.24l-32.53,32.53
	C86.74,216.54,85.97,216.83,85.2,216.83z"/>
<path class="st6" d="M105,168.58l12.73,12.73L85.2,213.84l-12.73-12.73L105,168.58 M105,162.58c-1.54,0-3.07,0.59-4.24,1.76
	l-32.53,32.53c-1.13,1.13-1.76,2.65-1.76,4.24c0,1.59,0.63,3.12,1.76,4.24l12.73,12.73c1.17,1.17,2.71,1.76,4.24,1.76
	s3.07-0.59,4.24-1.76l32.53-32.53c1.13-1.13,1.76-2.65,1.76-4.24c0-1.59-0.63-3.12-1.76-4.24l-12.73-12.73
	C108.07,163.17,106.54,162.58,105,162.58L105,162.58z"/>
<path class="st4" d="M113.49,188.55c-0.77,0-1.54-0.29-2.12-0.88l-12.73-12.73c-0.56-0.56-0.88-1.33-0.88-2.12s0.32-1.56,0.88-2.12
	l4.24-4.24c0.59-0.59,1.35-0.88,2.12-0.88s1.54,0.29,2.12,0.88l12.73,12.73c1.17,1.17,1.17,3.07,0,4.24l-4.24,4.24
	C115.02,188.26,114.25,188.55,113.49,188.55z"/>
<path class="st6" d="M105,168.58l12.73,12.73l-4.24,4.24l-12.73-12.73L105,168.58 M105,162.58c-1.59,0-3.12,0.63-4.24,1.76
	l-4.24,4.24c-2.34,2.34-2.34,6.14,0,8.49l12.73,12.73c1.17,1.17,2.71,1.76,4.24,1.76s3.07-0.59,4.24-1.76l4.24-4.24
	c1.13-1.13,1.76-2.65,1.76-4.24c0-1.59-0.63-3.12-1.76-4.24l-12.73-12.73C108.12,163.21,106.59,162.58,105,162.58L105,162.58z"/>
<path class="st12" d="M163.47,175.62c-14.16,0-27.47-5.51-37.48-15.52c-10.01-10.01-15.52-23.32-15.52-37.48
	c0-14.16,5.51-27.47,15.52-37.48c10.01-10.01,23.32-15.52,37.48-15.52s27.47,5.51,37.48,15.52c10.01,10.01,15.52,23.32,15.52,37.48
	c0,14.16-5.51,27.47-15.52,37.48C190.94,170.11,177.63,175.62,163.47,175.62z"/>
<path class="st6" d="M163.47,72.62c12.8,0,25.59,4.88,35.36,14.64c19.53,19.53,19.53,51.18,0,70.71
	c-9.76,9.76-22.56,14.64-35.36,14.64s-25.59-4.88-35.36-14.64c-19.53-19.53-19.53-51.18,0-70.71
	C137.88,77.5,150.68,72.62,163.47,72.62 M163.47,66.62c-14.96,0-29.02,5.83-39.6,16.4c-10.58,10.58-16.4,24.64-16.4,39.6
	c0,14.96,5.83,29.02,16.4,39.6c10.58,10.58,24.64,16.4,39.6,16.4s29.02-5.83,39.6-16.4c10.58-10.58,16.4-24.64,16.4-39.6
	c0-14.96-5.83-29.02-16.4-39.6C192.49,72.44,178.43,66.62,163.47,66.62L163.47,66.62z"/>
<path class="st9" d="M163.47,160.62c-10.15,0-19.69-3.95-26.87-11.13c-7.18-7.18-11.13-16.72-11.13-26.87
	c0-10.15,3.95-19.69,11.13-26.87c7.18-7.18,16.72-11.13,26.87-11.13c10.15,0,19.69,3.95,26.87,11.13
	c14.82,14.82,14.82,38.92,0,53.74C183.17,156.67,173.62,160.62,163.47,160.62z"/>
<path class="st6" d="M163.47,87.62c8.96,0,17.91,3.42,24.75,10.25c13.67,13.67,13.67,35.83,0,49.5
	c-6.83,6.83-15.79,10.25-24.75,10.25c-8.96,0-17.91-3.42-24.75-10.25c-13.67-13.67-13.67-35.83,0-49.5
	C145.56,91.04,154.52,87.62,163.47,87.62 M163.47,81.62c-10.95,0-21.25,4.26-28.99,12.01c-7.74,7.74-12.01,18.04-12.01,28.99
	s4.26,21.25,12.01,28.99s18.04,12.01,28.99,12.01s21.25-4.26,28.99-12.01s12.01-18.04,12.01-28.99s-4.26-21.25-12.01-28.99
	C184.72,85.88,174.42,81.62,163.47,81.62L163.47,81.62z"/>
<path class="st15" d="M142.26,101.41c-13.07,13.07-13.63,33.91-1.7,47.66c-0.63-0.54-1.24-1.1-1.84-1.7
	c-13.67-13.67-13.67-35.83,0-49.5c13.67-13.67,35.83-13.67,49.5,0c0.6,0.6,1.15,1.21,1.7,1.84
	C176.17,87.77,155.33,88.33,142.26,101.41z"/>
<path class="st6" d="M180.44,128.42c-0.32,0-0.64-0.08-0.94-0.24c-1.89-1.02-5.21-1.02-7.11,0c-0.97,0.52-2.19,0.16-2.71-0.82
	c-0.52-0.97-0.16-2.19,0.82-2.71c3.06-1.64,7.84-1.64,10.89,0c0.97,0.52,1.34,1.73,0.82,2.71
	C181.84,128.04,181.15,128.42,180.44,128.42z"/>
<circle class="st6" cx="175.94" cy="118.67" r="7"/>
<circle class="st7" cx="177.69" cy="118.67" r="1.75"/>
<path class="st6" d="M170.97,103.66c3.24-2.9,8.49-3.41,12.08-0.78c1.82,1.28,4.35,4.61,1.57,6.06c-0.7,0.31-1.41,0.12-2.04-0.19
	c-1.67-0.77-2.8-1.34-4.5-1.56c-1.59-0.26-3.57-0.04-5.21-0.01c0,0-0.78-0.08-0.78-0.08C170.41,106.99,169.7,104.72,170.97,103.66
	L170.97,103.66z"/>
<path class="st6" d="M154.44,128.42c-0.32,0-0.64-0.08-0.94-0.24c-1.89-1.02-5.21-1.02-7.11,0c-0.97,0.52-2.19,0.16-2.71-0.82
	c-0.52-0.97-0.16-2.19,0.82-2.71c3.06-1.64,7.84-1.64,10.89,0c0.97,0.52,1.34,1.73,0.82,2.71
	C155.84,128.04,155.15,128.42,154.44,128.42z"/>
<circle class="st6" cx="149.94" cy="118.67" r="7"/>
<circle class="st7" cx="151.69" cy="118.67" r="1.75"/>
<path class="st6" d="M153.01,107.18c-1.64-0.03-3.62-0.25-5.21,0.01c-1.71,0.22-2.84,0.78-4.5,1.56c-1.13,0.65-2.6,0.36-3.13-0.9
	c-0.22-0.53-0.2-1.1,0-1.59c0.54-1.28,1.41-2.51,2.67-3.38c2.96-2.22,7.23-2.17,10.35-0.44c1.45,0.74,3.33,2.28,1.88,4.02
	C154.57,107.07,153.73,107.12,153.01,107.18L153.01,107.18z"/>
<path class="st6" d="M163.28,138.69c-4.96,0-10.04-1.43-14.43-4.31c-0.92-0.6-1.18-1.84-0.58-2.77c0.6-0.92,1.84-1.18,2.77-0.58
	c7.35,4.8,17.32,4.82,23.71,0.03c0.88-0.66,2.14-0.48,2.8,0.4c0.66,0.88,0.48,2.14-0.4,2.8
	C173.21,137.22,168.31,138.69,163.28,138.69z"/>
<path class="st6" d="M158.76,141.35c2.7,0.79,5.66,0.86,8.34,0c1.29-0.47,2.34,1.21,1.39,2.17c0,0-0.72,0.76-0.72,0.76
	c-2.84,2.68-7.68,2.05-10.33-0.58C156.32,142.74,157.39,140.88,158.76,141.35L158.76,141.35z"/>
</svg>
