<svg version="1.1" id="Layer_1" xmlns="http://www.w3.org/2000/svg" x="0" y="0" viewBox="0 0 306.3 270" style="enable-background:new 0 0 306.3 270" xml:space="preserve"><style>.st3{fill:#515a7a}.st4{fill:#508cb4}</style><path d="m142.2 24.3-4.3-15.9L23.8 39 28 54.9l38.6 174.2 52.4-14L93.4 85.4c-.3-1-.1-2.1.4-2.9.5-.9 1.4-1.5 2.4-1.8s2.1-.1 2.9.4c.9.5 1.5 1.4 1.8 2.4l42.5 125 52.4-14-53.6-170.2z" style="fill:#97d9f0"/><path d="M107.6 165.4c-1.1-.4-2.2-.6-3.3-.7 2.2-5.5.3-11-1.3-12.1-1-.7-6-2.5-5 1.3.6 2.1 2.9 6.8 1.3 11.6-.6-.9-1.1-1.9-1.6-2.9-.6-1.3-1.1-2.6-1.7-3.9-.3-.7-1.1-2.7-2.1-2.7-1.3 0-3.5 1.8-3.4 5.4.1 1.4.5 2.8 1.2 4 .5 1 1 2.1 1.6 3.1-.9 1-1.4 2.2-1.4 3.5-.1.6 0 1.3.4 1.8.3.5.9.9 1.5 1.1.7.2 2.1 0 3.7-1.1 1.3 1.4 2.7 2.6 4.2 3.6.7.5 1.4.7 2.2.8.8-.1 1.5-.5 2.1-1s1-1.2 1.1-2c0-.1-.7-.7-.8-.7-.6-.7-1.2-1.3-1.8-2-.9-1-1.8-2.1-2.6-3.2.1-.1.2-.3.3-.4 3.2.7 5.8 4.5 8.8 5.2l-1.5-7.7c-.7-.4-1.3-.7-1.9-1zm-33.4 56.2c.9-3.4-3.9-9.8-8.7-6.9 0 0 4.9-4 1-10-1.1-1.9-3.4-2.5-5.8-2.1l1.2 5.5c1.2 2 2.1 5.4 1.8 6-.1.2-.2.3-.3.4l3.2 14.2c.3 0 .5-.1.8-.2.1.1 6-2.3 6.8-6.9zm-9-4.7c2.2-.2 5.3 5.7 5.3 6.3 0 .3-.1.5-.3.8-.2.2-.5.3-.7.4-.5.4-6.9-7.2-4.3-7.5zm34.4-90c.6 0 1.3 0 1.9-.1l-.9-4.3c-.7 1.5-1.6 2.7-2 2.8-.5.1-1.3 0-1.3-.5-.1-1.4 1.3-4.9 1.5-5.6.2-.6.5-1.1.8-1.6l-.9-4.5c-1.1 0-2.3.3-3.3.8-1.4.5-2.7 2.3-4.8 6.9-.9 2.2-1.5 4.6-1.8 7-.2 1.9-.3 3.9-.2 5.8-2.4-1.1-2.5-4.3-3.7-6.2-.6-1-1.3-1.9-2.1-2.6 5.2-2.8 7.2-8.3 6.7-10.2-.3-1.2-3.1-5.8-4.7-2.2-.9 1.9-2.1 7-6.4 9.8.1-1.1.4-2.2.6-3.3.3-1.4.8-2.7 1.2-4.1.2-.7.9-2.8.1-3.4-1-.8-3.8-.8-6.1 1.9-.8 1.2-1.4 2.5-1.6 3.9-.3 1.1-.5 2.2-.7 3.4-1.3.2-2.5.9-3.3 1.8-.5.4-.8 1-.9 1.6s.1 1.3.5 1.8c.4.6 1.6 1.3 3.6 1.5.1 1.9.4 3.7 1 5.5.2.8.6 1.5 1.2 2 .7.4 1.4.6 2.2.6.8 0 1.5-.3 2.1-.8 0-.4-.1-.7-.1-1.1 0-.9 0-1.8-.1-2.7v-4.1c.2 0 .3-.1.5-.2 3 3.8.7 11.9 8.1 11.1 1-.1 1.9-.5 2.6-1.2.1.3.3.5.5.7.3.3.7.5 1.1.7.1 0 5.9 2.6 9.8-.1 1.2-.8 2.1-2.1 2.3-3.6l-1.2-6.2c-.6-.4-1.4-.8-2.2-1zm-2.7 9.7c-.2.2-.5.3-.8.3s-.6-.1-.8-.3c-.5-.2.4-10 2.4-8.3 1.6 1.3-.3 7.8-.8 8.3zm10.8-118.9c.4 2.1 2.3 7 .4 11.7-.5-1-1-2-1.4-3.1-.5-1.3-.9-2.7-1.4-4-.3-.7-.9-2.8-1.9-2.8-1.3-.1-3.6 1.5-3.9 5.1 0 1.4.3 2.8.9 4.1.4 1.1.9 2.1 1.4 3.2-.9.9-1.5 2.1-1.7 3.4-.2.6-.1 1.3.2 1.9.3.6.8 1 1.4 1.2.7.3 2.1.1 3.8-.8 1.2 1.4 2.5 2.7 3.9 3.9.6.5 1.4.9 2.1 1 .8 0 1.5-.3 2.1-.8s1.1-1.1 1.3-1.9c0-.1-.6-.7-.7-.8-.5-.7-1.1-1.4-1.6-2.2-.8-1.1-1.6-2.2-2.4-3.4.1-.1.2-.2.3-.4 4.6 1.4 7.4 9.4 13 4.5.8-.6 1.3-1.5 1.5-2.5.2.2.5.2.8.3.4.1.8.1 1.3 0 .1 0 6.3-1.3 8-5.7 1.5-3.2-2.1-10.4-7.2-8.4 0 0 5.6-3 2.8-9.6-.1-.3-.3-.7-.5-1l-13.6 3.6c-.3 1.4-.1 3.5.5 7.1.5 2.4 1.4 4.6 2.5 6.8.9 1.7 2 3.4 3.2 4.9-2.6.4-4.5-2.1-6.5-2.9-1-.5-2.1-.8-3.2-1 2.7-5.3 1.2-10.9-.4-12.2-.6-.5-1.4-.8-2.1-1.1l-3 .8c0 .2 0 .6.1 1.1zm19.5 5.5c2.2.2 4.2 6.6 4.1 7.2-.1.3-.2.5-.5.7-.2.2-.5.3-.8.3-.5.1-5.4-8.3-2.8-8.2zM124.1 12c1.8-.3 2.9 7.3 2.2 8.1-.4.5-1 .7-1.4.3-.9-1.1-1.8-4.8-1.9-5.4-.4-1.4-.5-2.7 1.1-3zm31 184.9c-1.7-4.8-10.8-3.8-13.6 1.3-.5 1-.8 2.1-.6 3.2l2.4 7.1 9.8-2.6c1.5-1.2 4.1-4.1 2-9zm-4.4 8.8c-.4.5-1 .7-1.4.3-.9-1.1-1.8-4.8-1.9-5.4-.4-1.5-.4-2.8 1.1-3 1.8-.3 2.9 7.2 2.2 8.1zM40.5 85.7c.9-.5 1.5-1.3 1.9-2.2.2.2.5.3.7.4.4.1.8.2 1.2.2.1 0 6.4-.2 8.8-4.3 2-2.9-.3-10.6-5.8-9.5 0 0 6-2.1 4.3-9.1-1-5-10-5.5-13.6-.9-1 1.1-1.5 3.3-1.4 8.3.2 2.4.6 4.8 1.4 7.1.6 1.9 1.4 3.7 2.4 5.4-2.6 0-4.1-2.8-6-4-.6-.4-1.2-.7-1.8-1l2.1 9.7c1.6 1.1 3.3 1.4 5.8-.1zm8.5-5.5c-.1.3-.3.5-.6.6s-.5.2-.8.1c-.5 0-4-9.2-1.4-8.5 2.1.6 3.1 7.2 2.8 7.8zm-4-19.3c1.8 0 1.7 7.7.8 8.4-.5.4-1.2.6-1.4.1-.7-1.2-1-5-1-5.7-.2-1.6 0-2.8 1.6-2.8zm-11.9 2.7c-1-1-2.2-1.7-3.6-1.9l2.8 12.7c2.6-4.6 2-9.5.8-10.8zm112.4-22.7c-.9 1.9-2.1 7-6.4 9.8.1-1.1.4-2.2.6-3.3.3-1.4.8-2.7 1.2-4.1.2-.7.9-2.8.1-3.4-1-.8-3.8-.8-6.1 1.9-.8 1.2-1.4 2.5-1.6 3.9-.3 1.1-.5 2.2-.7 3.4-1.3.2-2.5.9-3.3 1.8-.5.4-.8 1-.9 1.7-.1.6.1 1.3.5 1.8.4.6 1.6 1.3 3.5 1.5.1 1.9.4 3.7 1 5.5.2.8.6 1.5 1.2 2 .7.4 1.4.6 2.2.6s1.5-.3 2.1-.8c0-.4 0-.7-.1-1 0-.9-.1-1.8-.1-2.7v-4.2c.2 0 .3-.1.5-.1 3 3.8.7 11.9 8.1 11.1 1-.1 1.9-.5 2.6-1.2.1.3.3.5.5.7.3.3.7.5 1.1.7 1.4.6 2.8.9 4.3 1.1l-5.1-16.3c-.5 1.6-.9 3.3-1.1 5-.2 1.9-.3 3.9-.2 5.9-2.4-1.1-2.5-4.3-3.7-6.2-.6-1-1.3-1.9-2.1-2.6 2.5-1.4 4.6-3.5 5.8-6.1l-2.4-7.6c-.6-.2-1.1.2-1.5 1.2zm-116.6-1c0 .3.2.5.3.8.2.3.5.7.9.9.1 0 5.1 3.9 9.6 2.2 3-.9 5.6-6.7 3-9.8l-3.5.9c-.1 2.4-2.5 6.4-2.9 6.6-.3.1-.5.2-.8.1-.3-.1-.5-.2-.7-.4s.7-3.3 1.8-5.6L23.8 39l.2.8c.7.3 1.4.5 2.2.6.9.2 1.9 0 2.7-.5zm138.4 93c-.3 2.4-.2 4.8.1 7.2.3 1.9.7 3.8 1.3 5.7-2.6-.5-3.5-3.5-5.1-5-.8-.8-1.7-1.5-2.7-2 4.3-4.1 4.8-9.9 3.8-11.6-.6-1.1-4.5-4.8-5.1-.9-.3 2.1-.2 7.3-3.6 11.1-.1-1.1-.2-2.2-.2-3.3 0-1.4.1-2.8.1-4.2 0-.7.1-2.9-.8-3.3-1.2-.5-3.9.2-5.4 3.4-.5 1.3-.7 2.8-.5 4.2 0 1.2.1 2.3.2 3.5-1.2.5-2.2 1.5-2.8 2.6-.4.5-.5 1.2-.4 1.8s.4 1.2.9 1.6c.6.5 1.9.8 3.8.5.6 1.8 1.4 3.4 2.4 5 .4.7 1 1.2 1.7 1.6.7.2 1.5.2 2.3 0 .7-.2 1.4-.7 1.9-1.3-.1-.3-.2-.7-.4-1-.2-.9-.5-1.7-.8-2.6-.4-1.3-.7-2.7-1.1-4 .1-.1.3-.2.4-.3 3.9 2.9 3.9 11.3 10.7 8.6.9-.3 1.7-1 2.2-1.8.2.2.4.4.6.5.4.2.8.3 1.2.4.1 0 5.7.9 8.9-2.1l-3.4-10.9-.7-2.3c-.1.4-.3.7-.6 1-.5.3-1.2.3-1.4-.1-.5-1.3 0-5.1 0-5.8 0-.3.1-.6.1-1l-1.5-4.9c-1.2.3-2.3.9-3.2 1.7-1.2.9-2 3-2.9 8zm8.7 5.3c1.9 1 1.7 7.6 1.4 8.2-.2.2-.4.4-.7.5s-.6.1-.8 0c-.6-.1-2.3-9.8.1-8.7zm19.7 56-3.3-10.5c-.1.2-.1.4-.2.6-.3 2.1-.2 7.3-3.6 11.1-.1-1.1-.2-2.2-.2-3.3 0-1.4.1-2.8 0-4.2 0-.7.1-2.9-.8-3.3-1.2-.5-3.9.2-5.4 3.4-.5 1.3-.7 2.8-.5 4.2 0 1.2.1 2.3.2 3.5-1.2.5-2.2 1.5-2.8 2.6l-.3.6 16.6-4.4.3-.3zM154.4 83.4c-.2.7-.2 1.5 0 2.3.2.7.7 1.4 1.3 1.9.3-.1.7-.2 1-.4.9-.2 1.7-.5 2.6-.7.9-.2 1.5-.4 2.3-.6l-1.9-5.9c-1.3.5-2.5 1.1-3.7 1.8-.7.5-1.2 1.1-1.6 1.6zm.3 13.1c.3.9.9 1.7 1.8 2.2l-.6.6c-.2.4-.3.8-.4 1.2 0 .1-1.1 6.3 2.4 9.5 2.3 2.4 9.6 1.9 10.4-2.9l-3.4-10.9c-1.9.2-3.8.6-5.6 1.2.5-2.3 3-3.3 4.6-4.6l-1.7-5.5c-3.7 2.5-9.7 3.2-7.5 9.2zm11.9 8.3c-1 1.9-7.6 1.6-8.2 1.2-.2-.2-.4-.4-.5-.7-.1-.3-.1-.6.1-.8 0-.6 9.7-2 8.6.3zm-36.2 56.6c1.8-.2 3.7-.6 5.4-1.2.8-.2 1.4-.7 1.9-1.3.4-.7.5-1.5.5-2.2-.1-.8-.4-1.5-.9-2.1-.4 0-.7.1-1 .2-.9 0-1.8.1-2.7.2-1.4.1-2.8.2-4.1.2-.1-.2-.1-.3-.2-.4 3.7-3.1 11.9-1.3 10.7-8.6-.1-1-.6-1.9-1.3-2.5.3-.1.5-.3.7-.5.3-.3.5-.7.6-1.1 0-.1 2.3-6-.5-9.8-1.9-3-9.9-3.8-11 1.6 0 0 .4-6.3-6.7-7.5-2.2-.5-4.2.8-5.5 2.9l4.4 12.9c.6.3 1.3.6 2.1.9 2.3.8 4.7 1.3 7.1 1.5 2 .1 3.9.1 5.9-.1-1 2.4-4.2 2.7-6 4-.9.6-1.8 1.4-2.5 2.2-1.3-2.1-3.1-3.9-5.4-5.1l6.8 20c.2-.1.3-.2.4-.3.6-.8 1.2-2.1 1.3-3.9zm-3.9-25.4c-1.4.2-5-1.1-5.6-1.3-1.5-.5-2.6-1.1-1.9-2.6.8-1.7 7.7 1.4 8.1 2.5 0 .6-.1 1.3-.6 1.4zm3.5-.4c1.3-1.7 7.8-.1 8.3.4.2.2.3.5.3.8s-.1.6-.2.8c-.2.4-10 0-8.4-2zm-85-6.7c1.2-.8 2.4-1.5 3.6-2.3.6-.4 2.5-1.5 2.3-2.5-.2-1.3-2.3-3.2-5.8-2.6-.7.1-1.5.4-2.1.8l1.5 6.9.5-.3zm10 19.5s4.2 4.7 10 .5c4.2-2.8 1.2-11.3-4.4-12.8-1.4-.5-3.6-.1-8.2 1.9-1.9.9-3.6 2.1-5.3 3.4l1.7 7.8c1.8-1.3 3.5-2.3 3.7-1 .2 1.2-1.5 2.7-3.1 3.9l1.1 5.1c3.5-1.1 7.1-5.2 4.5-8.8zm-.2-3.2c.9-1.1 4.3-2.8 4.8-3.1 1.4-.8 2.6-1.1 3.2.4.7 1.7-6.4 4.5-7.4 4-.5-.3-1-.9-.6-1.3zm.9-12.6c.6-1.1 1.5-6.4-2.1-4.8-1.6.7-4.8 2.9-8.7 3.2l1.1 5.1c4.9.3 9-2 9.7-3.5zm7.6 59.5c.8-.2 1.5-.6 2-1.2s.8-1.3.9-2.1c0-.1-.8-.6-.8-.6-.6-.6-1.3-1.2-2-1.9l-2.9-2.9c.1-.1.2-.3.2-.4 4.8.6 9 7.9 13.6 2.1.6-.8 1-1.7 1-2.7.3.1.5.2.8.1.4 0 .8-.1 1.2-.3.1 0 6-2.4 6.9-7 1-3.4-3.9-9.9-8.6-7 0 0 4.9-4 1-10-2.5-4.4-11.3-1.8-13.1 3.7-.6 1.3-.3 3.6 1.5 8.3 1 2.2 2.2 4.3 3.7 6.2 1.2 1.5 2.6 3 4 4.3-2.5.9-4.8-1.3-6.9-1.7-1.1-.3-2.2-.4-3.4-.3 1.7-5.7-.8-11-2.5-11.9-1.1-.6-6.3-1.9-4.8 1.8.8 2 3.5 6.4 2.5 11.4-.7-.9-1.3-1.8-1.9-2.8-.2-.4-.5-.8-.7-1.2l3 13.6c1 .7 2 1.4 3.1 1.9.6.5 1.4.7 2.2.6zm11.9-21.5c2.2-.2 5.3 5.7 5.3 6.4 0 .3-.1.5-.3.8-.2.2-.5.3-.7.4-.6.1-6.9-7.4-4.3-7.6zm-2.7-2.3c-1.1-.9-2.6-4.4-2.9-5-.7-1.4-1-2.7.6-3.2 1.7-.6 4.2 6.6 3.6 7.6-.3.7-.9 1.1-1.3.6zm23.6-87.6c1-.3 2-.1 2.9.4s1.5 1.4 1.8 2.3l2.4 7.1c1.2.5 2.5.6 3.7.2 1-.2 1.8-.7 2.4-1.5.1.2.3.5.6.6.3.2.7.4 1.1.6.1 0 6.2 1.8 9.7-1.3 2.8-2.1 3-10.1-2.5-10.8 0 0 6.3-.1 7-7.2.7-5-7.7-8.4-12.6-5.1-1.3.7-2.4 2.6-3.9 7.4-.6 2.3-.9 4.7-.9 7.2 0 1.9.2 3.9.5 5.8-2.5-.8-3-4-4.4-5.7-.7-.9-1.5-1.7-2.4-2.3 4.8-3.5 6.2-9.1 5.4-10.9-.5-1.2-3.8-5.3-5-1.6-.6 2-1.2 7.2-5.1 10.5 0-1.1.1-2.2.2-3.3.2-1.4.5-2.8.6-4.2.1-.7.5-2.8-.3-3.4-1.1-.7-3.9-.4-5.8 2.7-.7 1.3-1 2.6-1.1 4.1-.1 1.2-.2 2.3-.3 3.5-1.2.4-2.3 1.1-3.1 2.2-.4.5-.7 1.1-.7 1.7s.2 1.3.7 1.7c.5.6 1.8 1.1 3.7 1 .3 1.8.9 3.6 1.6 5.3.3.7.8 1.4 1.5 1.8l.2.1-.8-4.1c-.1-.5-.2-1-.1-1.5s.2-1 .5-1.4.6-.8 1-1.1c.6-.5 1-.7 1.5-.8zm20.6-10c.3-1.5.9-2.7 2.4-2.2 1.7.6-.8 7.7-1.9 8.2-.6.2-1.3.2-1.4-.3-.2-1.4.8-5 .9-5.7zm-.1 9.2c1.8 1.2.6 7.7.2 8.3-.2.2-.5.3-.7.4-.3 0-.6 0-.8-.1-.6-.2-.9-10.1 1.3-8.6z" style="fill:#fff"/><path d="M69 102.7c-1.2-1.5-2.3-3.2-3.2-4.9-1.1-2.1-2-4.4-2.5-6.8-.9-4.9-.8-7.2 0-8.4 2.8-5.1 11.8-6.1 13.6-1.3 2.8 6.6-2.8 9.6-2.8 9.6 5.2-2 8.8 5.2 7.2 8.4-1.7 4.4-7.9 5.7-8 5.7-.4.1-.8.1-1.3 0-.3 0-.6-.1-.8-.3-.2 1-.7 1.8-1.5 2.5-5.6 4.9-8.4-3.1-13-4.5-.1.1-.2.3-.3.4.8 1.2 1.6 2.3 2.4 3.4.6.8 1.1 1.5 1.6 2.2.1.1.7.7.7.8-.2.7-.7 1.4-1.3 1.9s-1.4.8-2.1.8c-.8-.1-1.5-.5-2.2-1-1.5-1.1-2.8-2.4-3.9-3.9-1.7 1-3.1 1.1-3.8.8-1.9-.7-1.7-2.3-1.6-3.1.2-1.3.8-2.4 1.7-3.3-.5-1.1-1-2.1-1.4-3.2-.6-1.3-.9-2.7-.9-4.1.3-3.6 2.6-5.2 3.9-5.1 1 .1 1.6 2.2 1.9 2.8.5 1.3.9 2.7 1.4 4 .4 1 .8 2.1 1.4 3.1 1.9-4.7 0-9.6-.4-11.7-.7-3.9 4.2-1.7 5.1-1 1.5 1.2 3 6.9.4 12.2 1.1.2 2.2.5 3.2 1 1.9.9 3.9 3.5 6.5 3zm8.2-2.3c-.1.3-.2.5-.5.7-.2.2-.5.3-.8.3-.5.1-5.4-8.4-2.8-8.1 2.2.2 4.3 6.5 4.1 7.1zM70.1 82c1.8-.3 2.9 7.3 2.2 8.1-.4.5-1 .8-1.4.3-.9-1.1-1.8-4.8-1.9-5.4-.4-1.4-.5-2.7 1.1-3zm66.1 27.5c-1.2-1.5-2.3-3.2-3.2-4.9-1.1-2.1-2-4.4-2.5-6.8-.9-4.9-.8-7.2 0-8.4 2.8-5.1 11.8-6.1 13.6-1.3 2.8 6.6-2.8 9.6-2.8 9.6 5.2-2 8.7 5.2 7.2 8.4-1.7 4.4-7.9 5.7-8 5.7-.4.1-.8.1-1.3 0-.3 0-.5-.1-.8-.3-.2 1-.7 1.8-1.5 2.5-5.6 4.9-8.4-3.1-13-4.5-.1.1-.2.3-.3.4.8 1.2 1.6 2.3 2.4 3.4.6.7 1.1 1.5 1.6 2.2.1.1.7.7.7.8-.2.7-.7 1.4-1.3 1.9-.6.5-1.4.8-2.1.8-.8-.1-1.5-.5-2.1-1-1.5-1.1-2.8-2.4-3.9-3.9-1.7 1-3.1 1.1-3.8.8-.6-.2-1.1-.6-1.4-1.2-.3-.6-.4-1.2-.2-1.9.2-1.3.8-2.5 1.7-3.4-.5-1.1-1-2.1-1.4-3.2-.6-1.3-.9-2.7-.9-4.1.3-3.6 2.6-5.1 3.9-5 1 .1 1.6 2.2 1.9 2.8.5 1.3.9 2.7 1.4 4 .4 1 .8 2.1 1.4 3.1 1.9-4.7 0-9.6-.4-11.7-.7-3.9 4.2-1.8 5.1-1 1.5 1.2 3 6.9.4 12.2 1.1.2 2.2.5 3.3 1 1.8.8 3.7 3.4 6.3 3zm8.3-2.3c-.1.3-.2.5-.5.7-.2.2-.5.3-.8.3-.5.1-5.4-8.4-2.8-8.1 2.2.1 4.2 6.5 4.1 7.1zm-7.2-18.4c1.8-.3 2.9 7.3 2.2 8.1-.4.5-1 .7-1.4.3-.9-1.1-1.8-4.8-1.9-5.4-.4-1.6-.4-2.7 1.1-3zM79.1 55.9c-.7-1.8-1.2-3.7-1.5-5.7-.4-2.4-.5-4.8-.3-7.2.7-5 1.4-7.1 2.6-8 4.2-4 13.1-2.2 13.3 2.9.6 7.2-5.6 8.3-5.6 8.3 5.5-.3 6.7 7.7 4.3 10.2-3 3.7-9.3 2.9-9.3 2.9l-1.2-.3c-.3-.1-.5-.3-.7-.5-.5.9-1.2 1.5-2.2 1.9-6.8 3-7.1-5.5-11-8.2-.1.1-.3.2-.4.3.4 1.3.8 2.7 1.2 4 .3.9.6 1.7.9 2.6 0 .1.5.9.4 1-.4.6-1.1 1.1-1.8 1.4-.7.3-1.5.3-2.3.1-.7-.3-1.3-.9-1.7-1.6-1-1.5-1.9-3.2-2.5-4.9-1.9.4-3.2.1-3.8-.4-1.6-1.3-.9-2.7-.6-3.4.6-1.2 1.5-2.1 2.7-2.7-.1-1.2-.2-2.3-.3-3.5-.2-1.4 0-2.8.4-4.2 1.3-3.3 4.1-4.1 5.2-3.6.9.4.8 2.5.9 3.3.1 1.4 0 2.8.1 4.2.1 1.1.2 2.2.4 3.3 3.3-3.9 2.9-9.1 3.2-11.2.5-3.9 4.5-.4 5.2.7 1.1 1.7.8 7.5-3.4 11.7 1 .5 2 1.2 2.8 1.9 1.4 1.3 2.4 4.4 5 4.7zm8.6.4c-.2.2-.4.4-.7.5-.3.1-.6.1-.8 0-.5 0-2.5-9.6-.1-8.6 2 .9 1.9 7.5 1.6 8.1zm-1-19.7c1.8.3.5 7.8-.4 8.4-.5.3-1.2.4-1.4-.1-.5-1.3-.2-5.1-.2-5.8 0-1.5.4-2.8 2-2.5zm71.9 147.5c.6-1.8 1.4-3.6 2.4-5.3 1.2-2.1 2.6-4.1 4.3-5.8 3.7-3.4 5.6-4.5 7.1-4.5 5.8-.4 11.5 6.7 8.4 10.7-4.1 5.9-9.6 2.8-9.6 2.8 4.5 3.3.3 10.2-3.2 10.7-4.6 1-9-3.6-9.1-3.7-.3-.3-.5-.7-.7-1-.1-.3-.2-.5-.2-.8-.9.4-1.9.4-2.8.1-7.1-2.1-1.9-8.7-3.2-13.4h-.5c-.6 1.3-1.1 2.6-1.6 3.8-.3.9-.6 1.7-1 2.5-.1.3-.1.7-.3 1-.8.2-1.5.2-2.3-.1-.7-.3-1.4-.7-1.8-1.4-.3-.7-.5-1.5-.4-2.3.2-1.8.6-3.7 1.2-5.4-1.7-1-2.5-2-2.7-2.7-.1-.6-.1-1.3.3-1.9.3-.6.8-1 1.5-1.2 1.2-.6 2.5-.7 3.8-.4.6-1 1.3-1.9 1.9-2.9.8-1.2 1.8-2.2 3-3 3.1-1.7 5.7-.6 6.3.6.5.9-1 2.5-1.4 3.1-.8 1.1-1.8 2.2-2.6 3.3-.7.9-1.3 1.8-1.8 2.8 5-.9 8.1-5.1 9.6-6.6 2.9-2.7 3.7 2.6 3.5 3.8-.2 1.9-4.2 6.2-10.1 6.9.5 1 .8 2.1 1 3.2.3 2.1-.8 5.2 1 7.1zm6.4 5.8c-.3.1-.6.1-.8 0-.3-.1-.5-.3-.6-.5-.4-.3 4.2-9.1 5.4-6.8.8 1.8-3.4 7-4 7.3zm11.6-15.9c1.2 1.4-4.6 6.4-5.7 6.2-.6-.1-1.2-.5-1-1 .4-1.4 3.1-4.1 3.5-4.6 1.2-1.2 2.3-1.8 3.2-.6zm-78.2 38.9c-.4-1.9-.7-3.9-.8-5.8-.1-2.4.1-4.8.6-7.2 1.3-4.8 2.4-6.8 3.6-7.6 4.7-3.4 13.3-.4 12.8 4.6-.3 7.2-6.7 7.5-6.7 7.5 5.5.4 5.7 8.5 2.9 10.7-3.4 3.3-9.6 1.7-9.7 1.7-.4-.1-.8-.3-1.2-.5l-.6-.6c-.6.8-1.4 1.3-2.4 1.6-7.1 2-6.3-6.4-9.8-9.7-.1.1-.3.2-.4.2.2 1.4.4 2.8.7 4.1.2 1 .4 1.8.5 2.7.1.3.2.6.3 1-.5.6-1.2 1-2 1.2s-1.6.1-2.3-.2c-.7-.4-1.2-1-1.5-1.8-.8-1.7-1.5-3.4-1.9-5.2-1.9.1-3.2-.3-3.7-.9-.5-.5-.7-1.1-.8-1.7 0-.6.2-1.3.6-1.8.7-1.1 1.8-1.9 3-2.3 0-1.2.1-2.3.1-3.5 0-1.4.4-2.8 1-4.1 1.8-3.1 4.6-3.5 5.7-2.9.9.5.5 2.6.4 3.4-.1 1.4-.4 2.8-.5 4.2-.1 1.1-.1 2.2-.1 3.4 3.8-3.4 4.1-8.7 4.7-10.7 1-3.8 4.5.2 5 1.4.9 1.8-.2 7.5-4.9 11.2 1 .6 1.8 1.4 2.5 2.2 1.5 1.6 2.1 4.8 4.6 5.5l.3-.1zm8.4 1.5c-.2.2-.4.4-.7.4-.3.1-.6 0-.8-.1-.5-.1-1.2-9.9 1-8.6 1.8 1 .9 7.7.5 8.3zm1.5-19.7c1.7.6-.5 7.8-1.5 8.3-.5.2-1.3.2-1.4-.3-.3-1.4.5-5.1.6-5.7.3-1.6.8-2.8 2.3-2.3z" style="fill-rule:evenodd;clip-rule:evenodd;fill:#fff"/><path class="st3" d="M28 57.8c-.7 0-1.4-.3-1.9-.7s-.9-1.1-1-1.8c-.1-.7.1-1.4.5-2s1-1 1.6-1.2L44 47.6c.7-.2 1.5 0 2.1.4s1.1 1 1.3 1.7.1 1.5-.3 2.1c-.4.7-1 1.1-1.7 1.4l-16.8 4.5c-.1.1-.3.1-.6.1zm28.1-7.5c-.7 0-1.4-.3-1.9-.7-.5-.5-.9-1.1-1-1.8-.1-.7.1-1.4.5-2s1-1 1.7-1.2l5.6-1.5c.4-.1.8-.2 1.2-.1.4 0 .8.2 1.1.3.3.2.6.4.9.8.2.3.4.7.5 1 .1.4.1.8.1 1.2-.1.4-.2.8-.4 1.1-.2.3-.5.6-.8.9-.3.2-.7.4-1.1.5l-5.6 1.5h-.8zm63.6-17.1c-.7 0-1.4-.3-1.9-.7-.5-.5-.9-1.1-1-1.8s.1-1.4.5-2 1-1 1.7-1.2l22.5-6c.7-.2 1.5-.1 2.2.3.7.4 1.2 1 1.4 1.8.2.7.1 1.5-.3 2.2-.4.7-1 1.2-1.8 1.4l-22.5 6h-.8z"/><path class="st3" d="m137.9 8.4 4.3 15.9 53.6 170.2-52.4 14-42.5-125c-.2-.8-.7-1.6-1.4-2.1s-1.5-.8-2.4-.8c-.3 0-.7 0-1 .1-1 .3-1.8.9-2.4 1.8-.5.9-.7 1.9-.4 2.9L119 214.9l-52.4 14L28 54.9 23.7 39 137.9 8.4zm0-5.8c-.5 0-1 .1-1.5.2L22.2 33.4c-.7.2-1.4.5-2 1s-1.1 1-1.5 1.7-.6 1.4-.7 2.1c-.1.8 0 1.5.1 2.3l4.2 15.8 38.7 174c.2.8.5 1.5 1 2.1s1 1.2 1.7 1.6c.7.4 1.4.7 2.2.8s1.6.1 2.3-.1l52.4-14c1.4-.4 2.7-1.3 3.4-2.6.8-1.3 1-2.8.8-4.2l-20-100.9 33.1 97.4c.5 1.4 1.5 2.6 2.8 3.3s2.8.9 4.2.5l52.4-14c.8-.2 1.5-.6 2.1-1 .6-.5 1.1-1.1 1.5-1.8s.6-1.4.7-2.2c.1-.8 0-1.6-.2-2.3l-53.6-170-4.3-16c-.3-1.2-1.1-2.3-2.1-3.1-1-.8-2.2-1.2-3.5-1.2z"/><path class="st3" d="M100 64.6c-.6 0-1.2-.2-1.6-.5-.5-.3-.9-.8-1.1-1.3L84.6 30.1c-.2-.7-.2-1.5.1-2.1.3-.7.9-1.2 1.6-1.5s1.5-.3 2.1 0c.7.3 1.2.8 1.6 1.5l12.8 32.7c.2.4.2.9.2 1.4-.1.5-.2.9-.5 1.3s-.6.7-1 .9c-.5.2-1 .3-1.5.3zm-15.9 4.2c-.7 0-1.3-.2-1.9-.7-.5-.4-.9-1-1-1.7L75 32c-.1-.7.1-1.5.5-2.1s1.1-1 1.8-1.2c.7-.1 1.5 0 2.1.4s1.1 1.1 1.2 1.8L87 65.4c.1.8 0 1.5-.5 2.2-.4.6-1.1 1.1-1.9 1.2h-.5z"/><path class="st4" d="M241.4 265.2c-.6 0-1.2-.1-1.8-.2l-24.3-6.5c-.4-.1-.7-.3-1-.5s-.6-.5-.7-.9c-.2-.3-.3-.7-.4-1.1s0-.8.1-1.1l36.2-134.7c.1-.4.3-.7.5-1s.5-.6.9-.7c.4-.3.9-.4 1.5-.4.3 0 .5 0 .7.1l24.3 6.5c.9.2 1.7.6 2.4 1.2.7.5 1.3 1.2 1.8 2 .4.8.7 1.6.9 2.5s.1 1.8-.2 2.6l-34.2 127.3c-.4 1.4-1.2 2.7-2.4 3.6-1.4.9-2.8 1.3-4.3 1.3z"/><path class="st3" d="m252.2 121 24.4 6.5c1 .3 1.8.9 2.4 1.8.5.9.7 1.9.4 2.9l-34.1 127.3c-.2.8-.7 1.6-1.4 2.1s-1.5.8-2.4.8c-.3 0-.7-.1-1-.1l-24.3-6.5 36-134.8zm0-5.8c-1.3 0-2.5.4-3.5 1.2s-1.7 1.9-2.1 3.1l-36.1 134.8c-.4 1.5-.2 3.1.6 4.4s2 2.3 3.5 2.7l24.4 6.5c.8.2 1.7.3 2.5.3 2.1 0 4.2-.7 5.9-2s2.9-3.1 3.5-5.2l34-127.3c.3-1.2.4-2.5.2-3.8-.2-1.3-.6-2.5-1.2-3.6s-1.5-2.1-2.5-2.8-2.2-1.3-3.4-1.7l-24.3-6.5c-.5-.2-1-.3-1.5-.1z"/><path d="M224.5 260.8c-.6 0-1.2-.1-1.8-.2l-67.4-18.1c-.9-.2-1.7-.6-2.4-1.2-.7-.5-1.3-1.2-1.8-2s-.7-1.6-.9-2.5c-.1-.9-.1-1.8.2-2.6l34.3-127.3c.4-1.4 1.2-2.7 2.4-3.6s2.6-1.4 4.1-1.4c.6 0 1.2.1 1.8.2l67.4 18.1c1.7.5 3.2 1.6 4.1 3.2.9 1.6 1.1 3.4.7 5.1l-34.1 127.3c-.4 1.4-1.2 2.7-2.4 3.6s-2.7 1.4-4.2 1.4z" style="fill:#98bcd2"/><path class="st3" d="M191.3 104.8c.3 0 .7.1 1 .1l67.4 18.1c.5.1 1 .4 1.4.7s.7.7 1 1.1c.3.4.4.9.5 1.4s0 1-.1 1.5L228.4 255c-.2.8-.7 1.6-1.4 2.1s-1.5.8-2.4.8c-.3 0-.7-.1-1-.1l-67.4-18.1c-1-.3-1.8-.9-2.4-1.8-.5-.9-.7-1.9-.4-2.9l34.1-127.3c.2-.8.7-1.6 1.4-2.1s1.6-.9 2.4-.8zm0-5.8c-2.1 0-4.2.7-5.9 2s-2.9 3.1-3.5 5.2l-34.1 127.3c-.3 1.2-.4 2.5-.2 3.8s.6 2.5 1.2 3.6 1.5 2.1 2.5 2.8c1 .8 2.2 1.3 3.4 1.7l67.4 18.1c.8.2 1.7.3 2.5.3 2.1 0 4.2-.7 5.9-2s2.9-3.1 3.5-5.2l34-127.4c.3-1.2.4-2.5.2-3.8-.2-1.3-.6-2.5-1.2-3.6s-1.5-2.1-2.5-2.8c-1-.8-2.2-1.3-3.4-1.7l-67.4-18c-.7-.3-1.6-.4-2.4-.3z"/><path class="st4" d="M181.1 204c-.4 0-.8-.1-1.3-.2l-5.6-1.5c-.6-.2-1.2-.4-1.7-.8s-.9-.9-1.2-1.4c-.3-.6-.5-1.2-.6-1.8s0-1.3.1-1.9l.5-1.9c.3-1 .9-1.9 1.7-2.6.8-.7 1.9-1 2.9-1 .4 0 .8.1 1.2.2l5.6 1.5c1.2.3 2.3 1.1 2.9 2.3.6 1.1.8 2.4.5 3.7l-.5 1.9c-.3 1-.9 1.9-1.7 2.6-.7.6-1.8.9-2.8.9z"/><path class="st3" d="M175.9 193.9c.2 0 .3 0 .5.1l5.6 1.5c.5.1.9.5 1.2.9s.3 1 .2 1.5l-.5 1.9c-.1.4-.4.8-.7 1-.3.3-.8.4-1.2.4-.2 0-.3 0-.5-.1l-5.6-1.5c-.5-.1-.9-.5-1.2-.9s-.3-1-.2-1.5l.5-1.9c.1-.4.4-.8.7-1 .4-.4.8-.4 1.2-.4zm0-5.8c-1.7 0-3.4.6-4.7 1.6-1.4 1-2.3 2.5-2.8 4.1l-.5 1.9c-.5 2-.2 4.1.8 5.9 1 1.8 2.7 3.1 4.7 3.6l5.6 1.5c.7.2 1.3.3 2 .3 1.7 0 3.4-.6 4.7-1.6 1.4-1 2.3-2.5 2.8-4.1l.5-1.9c.3-1 .3-2 .2-3s-.5-2-1-2.9-1.2-1.7-2-2.3-1.7-1.1-2.7-1.3l-5.6-1.5c-.6-.2-1.3-.3-2-.3z"/><path class="st4" d="M204.4 210.2c-.4 0-.8-.1-1.2-.2l-5.6-1.5c-1.2-.3-2.3-1.2-2.9-2.3-.6-1.1-.8-2.4-.5-3.7l.5-1.9c.3-1 .9-1.9 1.7-2.6.8-.6 1.9-1 2.9-1 .4 0 .9.1 1.3.2l5.6 1.5c1.2.3 2.3 1.1 2.9 2.3.6 1.1.8 2.4.5 3.7l-.5 1.9c-.3 1-.9 2-1.7 2.6-.8.7-1.9 1-3 1z"/><path class="st3" d="M199.3 200.2c.2 0 .3 0 .5.1l5.6 1.5c.5.1.9.5 1.2.9s.3 1 .2 1.5l-.5 1.9c-.1.4-.4.8-.7 1-.3.3-.8.4-1.2.4-.2 0-.3 0-.5-.1l-5.6-1.5c-.5-.1-.9-.5-1.2-.9s-.3-1-.2-1.5l.5-1.9c.1-.4.4-.8.7-1 .4-.4.8-.4 1.2-.4zm0-5.9c-1.7 0-3.4.6-4.7 1.6-1.4 1-2.3 2.5-2.8 4.1l-.5 1.9c-.5 2-.2 4.1.8 5.9 1 1.8 2.7 3.1 4.7 3.6l5.6 1.5c.7.2 1.3.3 2 .3 1.7 0 3.4-.6 4.7-1.6 1.4-1 2.3-2.5 2.8-4.1l.5-1.9c.3-1 .3-2 .2-3s-.5-2-1-2.9-1.2-1.7-2-2.3-1.7-1.1-2.7-1.3l-5.6-1.5c-.6-.2-1.3-.3-2-.3z"/><path class="st4" d="M227.8 216.6c-.4 0-.8-.1-1.2-.2l-5.6-1.5c-.6-.2-1.2-.4-1.7-.8s-.9-.9-1.2-1.4c-.3-.6-.5-1.2-.6-1.8s0-1.3.1-1.9l.5-1.9c.3-1 .9-1.9 1.7-2.6.8-.6 1.9-1 2.9-1 .4 0 .8.1 1.3.2l5.6 1.5c1.2.3 2.3 1.1 2.9 2.3.6 1.1.8 2.4.5 3.7l-.5 1.9c-.3 1-.9 1.9-1.7 2.6-.9.5-1.9.9-3 .9z"/><path class="st3" d="M222.7 206.4c.2 0 .3 0 .5.1l5.6 1.5c.5.1.9.5 1.2.9s.3 1 .2 1.5l-.5 1.9c-.1.4-.4.8-.7 1-.3.3-.8.4-1.2.4-.2 0-.3 0-.5-.1l-5.6-1.5c-.2-.1-.5-.2-.7-.3-.2-.2-.4-.3-.5-.6-.1-.2-.2-.5-.2-.7v-.8l.5-1.9c.1-.4.4-.8.7-1 .4-.4.8-.5 1.2-.4zm0-5.8c-1.7 0-3.4.6-4.7 1.6-1.4 1-2.3 2.5-2.8 4.1l-.5 1.9c-.5 2-.3 4.1.8 5.9 1 1.8 2.7 3.1 4.7 3.6l5.6 1.5c1 .3 2 .3 3 .2s2-.5 2.9-1 1.7-1.2 2.3-2 1.1-1.7 1.3-2.7l.5-1.9c.3-1 .3-2 .2-3s-.5-2-1-2.9-1.2-1.7-2-2.3-1.7-1.1-2.7-1.3l-5.6-1.5c-.6-.1-1.3-.2-2-.2z"/><path class="st4" d="M175.8 223.7c-.4 0-.8-.1-1.2-.2L169 222c-1.2-.3-2.3-1.1-2.9-2.3-.6-1.1-.8-2.4-.5-3.7l.5-1.9c.3-1 .9-1.9 1.7-2.6.8-.6 1.9-1 2.9-1 .4 0 .8.1 1.2.2l5.6 1.5c.6.2 1.2.4 1.7.8s.9.9 1.2 1.4c.3.6.5 1.2.6 1.8s0 1.3-.1 1.9l-.5 1.9c-.3 1-.9 1.9-1.7 2.6-.8.6-1.9 1.1-2.9 1.1z"/><path class="st3" d="M170.7 213.5c.2 0 .3 0 .5.1l5.6 1.5c.2.1.5.2.7.3.2.2.4.3.5.6.1.2.2.5.2.7v.8l-.5 1.9c-.1.4-.4.8-.7 1-.3.3-.8.4-1.2.4-.2 0-.3 0-.5-.1l-5.6-1.5c-.2-.1-.5-.2-.7-.3-.2-.2-.4-.3-.5-.6-.1-.2-.2-.5-.2-.7v-.8l.5-1.9c.1-.4.4-.8.7-1s.7-.4 1.2-.4zm-.1-5.8c-1.7 0-3.4.6-4.7 1.6-1.4 1-2.3 2.5-2.8 4.1l-.5 1.9c-.5 2-.3 4.1.8 5.9 1 1.8 2.7 3.1 4.7 3.6l5.6 1.5c1 .3 2 .3 3 .2s2-.5 2.9-1 1.7-1.2 2.3-2 1.1-1.7 1.3-2.7l.5-1.9c.5-2 .3-4.1-.8-5.9-1-1.8-2.7-3.1-4.7-3.6l-5.6-1.5c-.6-.1-1.3-.2-2-.2z"/><path class="st4" d="M199.2 230c-.4 0-.8-.1-1.3-.2l-5.6-1.5c-1.2-.3-2.3-1.1-2.9-2.3-.6-1.1-.8-2.4-.5-3.7l.5-1.9c.3-1 .9-1.9 1.7-2.6.8-.6 1.9-1 2.9-1 .4 0 .8.1 1.2.2l5.6 1.5c.6.2 1.2.5 1.7.8.5.4.9.9 1.2 1.4.3.6.5 1.2.6 1.8s0 1.3-.1 1.9l-.5 1.9c-.3 1-.9 1.9-1.7 2.6s-1.8 1.1-2.8 1.1z"/><path class="st3" d="M194.1 219.8c.2 0 .3 0 .5.1l5.6 1.5c.2.1.5.2.7.3.2.2.4.3.5.6s.2.5.2.7v.8l-.5 1.9c-.1.4-.4.8-.7 1-.3.3-.8.4-1.2.4-.2 0-.3 0-.5-.1l-5.6-1.5c-.5-.1-.9-.5-1.2-.9s-.3-1-.2-1.5l.5-1.9c.1-.4.4-.8.7-1s.7-.4 1.2-.4zm0-5.9c-1.7 0-3.4.6-4.7 1.6-1.4 1-2.3 2.5-2.8 4.1l-.5 1.9c-.3 1-.3 2-.2 3s.5 2 1 2.9 1.2 1.7 2 2.3 1.7 1.1 2.7 1.3l5.6 1.5c2 .5 4.1.3 5.9-.8 1.8-1 3.1-2.7 3.6-4.7l.5-1.9c.5-2 .3-4.1-.8-5.9-1-1.8-2.7-3.1-4.7-3.6l-5.6-1.5c-.7 0-1.4-.1-2-.2z"/><path class="st4" d="M222.6 236.2c-.4 0-.8-.1-1.3-.2l-5.6-1.5c-1.2-.3-2.3-1.1-2.9-2.3-.6-1.1-.8-2.4-.5-3.7l.5-1.9c.3-1 .9-1.9 1.7-2.6.8-.7 1.9-1 2.9-1 .4 0 .8.1 1.2.2l5.6 1.5c.6.2 1.2.4 1.7.8s.9.9 1.2 1.4c.3.6.5 1.2.6 1.8s0 1.3-.1 1.9l-.5 1.9c-.3 1-.9 1.9-1.7 2.6-.7.8-1.8 1.1-2.8 1.1z"/><path class="st3" d="M217.4 226.1c.2 0 .3 0 .5.1l5.6 1.5c.2.1.5.2.7.3.2.2.4.3.5.6.1.2.2.5.2.7v.8l-.5 1.9c-.1.4-.4.8-.7 1-.3.3-.8.4-1.2.4-.2 0-.3 0-.5-.1l-5.6-1.5c-.5-.1-.9-.5-1.2-.9s-.3-1-.2-1.5l.5-1.9c.1-.4.4-.8.7-1 .4-.3.8-.4 1.2-.4zm0-5.9c-1.7 0-3.4.6-4.7 1.6-1.4 1-2.3 2.5-2.8 4.1l-.5 1.9c-.3 1-.3 2-.2 3s.5 2 1 2.9 1.2 1.7 2 2.3 1.7 1.1 2.7 1.3l5.6 1.5c2 .5 4.1.3 5.9-.8 1.8-1 3.1-2.7 3.6-4.7l.5-1.9c.5-2 .2-4.1-.8-5.9-1-1.8-2.7-3.1-4.7-3.6l-5.6-1.5c-.6 0-1.3-.1-2-.2z"/><path class="st4" d="M186.3 184.4c-.4 0-.8-.1-1.2-.2l-5.6-1.5c-1.2-.3-2.3-1.1-2.9-2.3-.6-1.1-.8-2.4-.5-3.7l.5-1.9c.3-1 .9-1.9 1.7-2.6.8-.6 1.9-1 2.9-1 .4 0 .8.1 1.3.2l5.6 1.5c.6.2 1.2.4 1.7.8s.9.9 1.2 1.4c.3.6.5 1.2.6 1.8s0 1.3-.1 1.9l-.5 1.9c-.3 1-.9 1.9-1.7 2.6-.9.6-1.9 1.1-3 1.1z"/><path class="st3" d="M181.2 174.2c.2 0 .3 0 .5.1l5.6 1.5c.5.1.9.5 1.2.9s.3 1 .2 1.5l-.5 1.9c-.1.4-.4.8-.7 1-.3.3-.8.4-1.2.4-.2 0-.3 0-.5-.1l-5.6-1.5c-.2-.1-.5-.2-.7-.3-.2-.2-.4-.3-.5-.6-.1-.2-.2-.5-.2-.7v-.8l.5-1.9c.1-.4.4-.8.7-1 .4-.3.8-.5 1.2-.4zm0-5.8c-1.7 0-3.4.6-4.7 1.6-1.4 1-2.3 2.5-2.8 4.1l-.5 1.9c-.5 2-.3 4.1.8 5.9 1 1.8 2.7 3.1 4.7 3.6l5.6 1.5c2 .5 4.1.3 5.9-.8 1.8-1 3.1-2.7 3.6-4.7l.5-1.9c.5-2 .3-4.1-.8-5.9-1-1.8-2.7-3.1-4.7-3.6l-5.6-1.5c-.6-.1-1.3-.2-2-.2z"/><path class="st4" d="M209.7 190.7c-.4 0-.8-.1-1.3-.2l-5.6-1.5c-1.2-.3-2.3-1.1-2.9-2.3-.6-1.1-.8-2.4-.5-3.7l.5-1.9c.3-1 .9-1.9 1.7-2.6.8-.6 1.9-1 2.9-1 .4 0 .8.1 1.2.2l5.6 1.5c.6.2 1.2.4 1.7.8s.9.9 1.2 1.4c.3.6.5 1.2.6 1.8s0 1.3-.1 1.9l-.5 1.9c-.3 1-.9 2-1.7 2.6-.7.6-1.7 1.1-2.8 1.1z"/><path class="st3" d="M204.6 180.5c.2 0 .3 0 .5.1l5.6 1.5c.2.1.5.2.7.3s.4.3.5.6c.1.2.2.5.2.7v.8l-.5 1.9c-.1.4-.4.8-.7 1-.3.3-.8.4-1.2.4-.2 0-.3 0-.5-.1l-5.6-1.5c-.5-.1-.9-.5-1.2-.9s-.3-1-.2-1.5l.5-1.9c.1-.4.4-.8.7-1 .4-.3.8-.4 1.2-.4zm0-5.8c-1.7 0-3.4.6-4.7 1.6-1.4 1-2.3 2.5-2.8 4.1l-.5 1.9c-.5 2-.3 4.1.8 5.9 1 1.8 2.7 3.1 4.7 3.6l5.6 1.5c2 .5 4.1.3 5.9-.8 1.8-1 3.1-2.7 3.6-4.7l.5-1.9c.5-2 .3-4.1-.8-5.9-1-1.8-2.7-3.1-4.7-3.6l-5.6-1.5c-.6-.1-1.3-.2-2-.2z"/><path class="st4" d="M233.1 196.9c-.4 0-.8-.1-1.3-.2l-5.6-1.5c-1.2-.3-2.3-1.1-2.9-2.3-.6-1.1-.8-2.4-.5-3.7l.5-1.9c.3-1 .9-1.9 1.7-2.6.8-.6 1.9-1 2.9-1 .4 0 .8.1 1.2.2l5.6 1.5c.6.2 1.2.5 1.7.8.5.4.9.9 1.2 1.4.3.6.5 1.2.6 1.8s0 1.3-.1 1.9l-.5 1.9c-.3 1-.9 1.9-1.7 2.6-.7.8-1.7 1.1-2.8 1.1z"/><path class="st3" d="M228 186.8c.2 0 .3 0 .5.1l5.6 1.5c.2.1.5.2.7.3.2.2.4.3.5.6.1.2.2.5.2.7v.8l-.5 1.9c-.1.4-.4.8-.7 1-.3.3-.8.4-1.2.4-.2 0-.3 0-.5-.1l-5.6-1.5c-.5-.1-.9-.5-1.2-.9s-.3-1-.2-1.5l.5-1.9c.1-.4.4-.8.7-1 .4-.3.8-.4 1.2-.4zm0-5.9c-1.7 0-3.4.6-4.7 1.6-1.4 1-2.3 2.5-2.8 4.1l-.5 1.9c-.3 1-.3 2-.2 3s.5 2 1 2.9 1.2 1.7 2 2.3 1.7 1.1 2.7 1.3l5.6 1.5c2 .5 4.1.3 5.9-.8 1.8-1 3.1-2.7 3.6-4.7l.5-1.9c.5-2 .3-4.1-.8-5.9-1-1.8-2.7-3.1-4.7-3.6l-5.6-1.5c-.6-.1-1.3-.2-2-.2z"/><path d="M191.6 164.7c-.4 0-.8-.1-1.3-.2l-5.6-1.5c-.6-.2-1.2-.4-1.7-.8s-.9-.9-1.2-1.4c-.3-.6-.5-1.2-.6-1.8s0-1.3.1-1.9l.5-1.9c.3-1 .9-1.9 1.7-2.6.8-.6 1.9-1 2.9-1 .4 0 .8.1 1.2.2l5.6 1.5c1.2.3 2.3 1.1 2.9 2.3.6 1.1.8 2.4.5 3.7l-.5 1.9c-.3 1-.9 1.9-1.7 2.6-.7.6-1.7.9-2.8.9z" style="fill:#f79d82"/><path class="st3" d="M186.4 154.6c.2 0 .3 0 .5.1l5.6 1.5c.5.1.9.5 1.2.9s.3 1 .2 1.5l-.5 1.9c-.1.4-.4.8-.7 1-.3.3-.8.4-1.2.4-.2 0-.3 0-.5-.1l-5.6-1.5c-.5-.1-.9-.5-1.2-.9s-.3-1-.2-1.5l.5-1.9c.1-.4.4-.8.7-1 .4-.4.8-.4 1.2-.4zm0-5.8c-1.7 0-3.4.6-4.7 1.6-1.4 1-2.3 2.5-2.8 4.1l-.5 1.9c-.3 1-.3 2-.2 3s.5 2 1 2.9 1.2 1.7 2 2.3 1.7 1.1 2.7 1.3l5.6 1.5c.7.2 1.3.3 2 .3 1.7 0 3.4-.6 4.7-1.6 1.4-1 2.3-2.5 2.8-4.1l.5-1.9c.3-1 .3-2 .2-3s-.5-2-1-2.9-1.2-1.7-2-2.3-1.7-1.1-2.7-1.3l-5.6-1.5c-.6-.2-1.3-.3-2-.3z"/><path d="M238.4 177.2c-.4 0-.8-.1-1.2-.2l-5.6-1.5c-1.2-.3-2.3-1.1-2.9-2.3-.6-1.1-.8-2.4-.5-3.7l.5-1.9c.3-1 .9-1.9 1.7-2.6.8-.6 1.9-1 2.9-1 .4 0 .8.1 1.3.2l5.6 1.5c1.2.3 2.3 1.1 2.9 2.3.6 1.1.8 2.4.5 3.7l-.5 1.9c-.3 1-.9 1.9-1.7 2.6-.9.7-2 1-3 1z" style="fill:#88ca91"/><path class="st3" d="M233.3 167.1c.2 0 .3 0 .5.1l5.6 1.5c.5.1.9.5 1.2.9s.3 1 .2 1.5l-.5 1.9c-.1.4-.4.8-.7 1-.3.3-.8.4-1.2.4-.2 0-.3 0-.5-.1l-5.6-1.5c-.2-.1-.5-.2-.7-.3-.2-.2-.4-.3-.5-.6-.1-.2-.2-.5-.2-.7v-.8l.5-1.9c.1-.4.4-.8.7-1s.7-.5 1.2-.4zm0-5.9c-1.7 0-3.4.6-4.7 1.6-1.4 1-2.3 2.5-2.8 4.1l-.5 1.9c-.3 1-.3 2-.2 3s.5 2 1 2.9 1.2 1.7 2 2.3 1.7 1.1 2.7 1.3l5.6 1.5c1 .3 2 .3 3 .2s2-.5 2.9-1 1.7-1.2 2.3-2 1.1-1.7 1.3-2.7l.5-1.9c.3-1 .3-2 .2-3s-.5-2-1-2.9-1.2-1.7-2-2.3-1.7-1.1-2.7-1.3l-5.6-1.5c-.7 0-1.4-.1-2-.2zm-6.9-33.6c4.2-2.3 10.7-.6 12.1 4.2.1.4.1.7 0 1.1-.1.4-.3.7-.6.9-.3.3-.6.4-1 .5s-.7 0-1.1-.1c-1.4-.7-2.8-1.2-4.3-1.7s-3.4-.7-5-1.3c-.4-.1-.7-.4-.9-.7s-.4-.7-.4-1c0-.4.1-.8.2-1.1.4-.4.7-.7 1-.8zm-10.3.8c-2.7-.9-5.5-1.5-8.3-1.7l-.6-.1c-.4-.1-.7-.2-1-.5-.3-.2-.5-.6-.6-.9-.1-.4-.1-.7 0-1.1.1-.4.3-.7.6-.9 2.7-2.6 7.4-2.2 10.2-.1 1.5 1 4.1 3.7 1.7 5.2-.3.2-.6.2-1 .3-.3-.2-.7-.2-1-.2zm-2 9.8c-.2 0-.4 0-.6-.1-.6-.2-1.1-.6-1.5-1.1-.3-.6-.4-1.2-.2-1.8.1-.4 0-.8-.1-1.1-.1-.2-.2-.3-.4-.4-.2-.1-.3-.2-.5-.2-.4-.1-.8 0-1.1.1-.2.1-.3.2-.4.4-.1.2-.2.3-.3.5-.2.6-.6 1.1-1.1 1.4-.6.3-1.2.4-1.8.2s-1.1-.6-1.5-1.1c-.3-.5-.4-1.2-.3-1.8.2-.8.6-1.6 1.1-2.2.5-.7 1.1-1.2 1.9-1.6.7-.4 1.5-.7 2.3-.8s1.7-.1 2.5.2c.8.2 1.6.6 2.2 1.1.7.5 1.2 1.1 1.6 1.9.4.7.7 1.5.8 2.3s.1 1.7-.2 2.5c-.1.5-.4 1-.9 1.3-.4.1-1 .3-1.5.3zm18.7 5c-.2 0-.4 0-.6-.1-.3-.1-.6-.2-.8-.4-.3-.2-.5-.4-.6-.7-.2-.3-.3-.6-.3-.9s0-.6.1-.9c.1-.2.1-.4 0-.6s-.1-.4-.2-.5c-.1-.2-.2-.3-.4-.4-.2-.1-.3-.2-.5-.2-.2-.1-.4-.1-.6 0-.2 0-.4.1-.5.2-.2.1-.3.2-.4.4-.1.2-.2.3-.3.5-.2.6-.6 1.1-1.1 1.5-.6.3-1.2.4-1.8.2s-1.1-.6-1.5-1.1c-.3-.6-.4-1.2-.2-1.8.4-1.6 1.5-3 2.9-3.8s3.2-1.1 4.8-.6c1.6.4 3 1.5 3.8 2.9s1.1 3.2.6 4.8c-.1.5-.4 1-.9 1.3-.5 0-1 .2-1.5.2zm-5.9 1-16.8-4.5c-.4-.1-.8-.2-1.2-.2-1.1 0-2.1.4-2.9 1-.8.6-1.5 1.6-1.7 2.6-.6 1.8-.8 3.6-.6 5.4s.7 3.6 1.6 5.2c.9 1.6 2.1 3.1 3.5 4.2s3.1 2 4.9 2.5c1.8.5 3.6.6 5.5.3 1.8-.3 3.6-.9 5.1-1.9 1.6-1 2.9-2.2 4-3.8 1.1-1.5 1.8-3.2 2.2-5 .3-1.2.2-2.5-.5-3.7-.9-.9-1.9-1.7-3.1-2.1z"/><path d="M224.4 152.5c.4-1.6-2.1-3.6-5.5-4.5-3.5-.9-6.6-.4-7 1.1-.4 1.6 2.1 3.6 5.5 4.5 3.4 1 6.6.5 7-1.1z" style="fill:#ee7d7d"/><path class="st3" d="M233.8 98.9c-.4 0-.9-.1-1.3-.3-.4-.2-.8-.5-1-.8-.3-.4-.5-.8-.5-1.2-.1-.4-.1-.9 0-1.3l3-11.2c.1-.4.3-.7.5-1s.5-.6.9-.7c.3-.2.7-.3 1.1-.4.4-.1.8 0 1.1.1.4.1.7.3 1 .5s.6.5.7.9c.2.3.3.7.4 1.1.1.4 0 .8-.1 1.1l-3 11.2c-.2.6-.5 1.2-1 1.6-.6 0-1.2.3-1.8.4zm14.6 8.9c-.6 0-1.2-.2-1.6-.5-.5-.3-.8-.8-1.1-1.3-.2-.5-.2-1.1-.1-1.7.1-.6.4-1.1.9-1.5l9.3-8.5c.6-.5 1.3-.8 2.1-.8s1.5.4 2 .9c.5.6.8 1.3.8 2.1s-.4 1.5-.9 2l-9.4 8.5c-.6.6-1.2.8-2 .8zm-31.8-8.5c-.6 0-1.2-.2-1.7-.6s-.9-.9-1.1-1.5L210 85.1c-.2-.7-.2-1.5.2-2.2s1-1.2 1.7-1.4c.7-.2 1.5-.2 2.2.2.7.4 1.2 1 1.4 1.7l3.8 12.1c.1.4.2.8.1 1.1 0 .4-.1.8-.3 1.1-.2.3-.4.6-.7.9-.3.2-.6.4-1 .5-.2.1-.5.1-.8.2zM209 247.6c-.3 0-.5 0-.8-.1l-33.7-9c-.7-.2-1.4-.7-1.8-1.4-.4-.7-.5-1.5-.3-2.2s.7-1.4 1.4-1.8c.7-.4 1.5-.5 2.2-.3l33.7 9c.7.2 1.3.6 1.7 1.2s.6 1.3.5 2-.4 1.3-1 1.8-1.3.8-1.9.8z"/></svg>