<?xml version="1.0" encoding="utf-8"?>
<!-- Generator: Adobe Illustrator 25.4.1, SVG Export Plug-In . SVG Version: 6.00 Build 0)  -->
<svg version="1.1" id="SEO_x5F_Hub-Link_x5F_Building"
	 xmlns="http://www.w3.org/2000/svg" xmlns:xlink="http://www.w3.org/1999/xlink" x="0px" y="0px" viewBox="0 0 400 400"
	 style="enable-background:new 0 0 400 400;" xml:space="preserve">
<style type="text/css">
	.st0{fill:#EEEBFF;}
	.st1{fill:#515979;}
	.st2{fill:#C4BDFF;}
	.st3{fill:#AAA0FF;}
	.st4{fill:#667683;}
	.st5{fill:#FFFFFF;}
	.st6{fill:#EF7D7D;}
	.st7{fill:#FFE8A0;}
	.st8{fill:#7DDF96;}
	.st9{fill:#D2F4FD;}
	.st10{fill:#6ADAF7;}
	.st11{fill:#3CC3F7;}
	.st12{fill:#CEEDD9;}
	.st13{fill:#3CB48C;}
	.st14{fill:#F89D81;}
	.st15{fill:#FDE6DF;}
	.st16{opacity:0.2;}
	.st17{fill:none;}
	.st18{fill:#FFD886;}
</style>
<path class="st0" d="M49,396c-7.17,0-13-5.83-13-13V233c0-7.17,5.83-13,13-13h111c7.17,0,13,5.83,13,13v150c0,7.17-5.83,13-13,13H49
	z"/>
<path class="st1" d="M160,223c5.52,0,10,4.48,10,10v150c0,5.52-4.48,10-10,10H49c-5.52,0-10-4.48-10-10V233c0-5.52,4.48-10,10-10
	H160 M160,217H49c-8.82,0-16,7.18-16,16v150c0,8.82,7.18,16,16,16h111c8.82,0,16-7.18,16-16V233C176,224.18,168.82,217,160,217
	L160,217z"/>
<rect x="39" y="299" class="st2" width="131" height="63"/>
<rect x="39" y="297" class="st3" width="131" height="4"/>
<path class="st4" d="M39,252c-1.66,0-3-1.34-3-3v-16c0-7.17,5.83-13,13-13h111c7.17,0,13,5.83,13,13v16c0,1.66-1.34,3-3,3H39z"/>
<path class="st1" d="M160,223c5.52,0,10,4.48,10,10v16H39v-16c0-5.52,4.48-10,10-10H160 M160,217H49c-8.82,0-16,7.18-16,16v16
	c0,3.31,2.69,6,6,6h131c3.31,0,6-2.69,6-6v-16C176,224.18,168.82,217,160,217L160,217z"/>
<path class="st5" d="M114,242c-3.31,0-6-2.69-6-6s2.69-6,6-6h44c3.31,0,6,2.69,6,6s-2.69,6-6,6H114z"/>
<path class="st1" d="M158,233c1.66,0,3,1.34,3,3s-1.34,3-3,3h-44c-1.66,0-3-1.34-3-3s1.34-3,3-3H158 M158,227h-44
	c-4.96,0-9,4.04-9,9s4.04,9,9,9h44c4.96,0,9-4.04,9-9S162.96,227,158,227L158,227z"/>
<circle class="st6" cx="51" cy="236" r="6"/>
<path class="st1" d="M51,233c1.66,0,3,1.34,3,3s-1.34,3-3,3s-3-1.34-3-3S49.34,233,51,233 M51,227c-4.96,0-9,4.04-9,9s4.04,9,9,9
	s9-4.04,9-9S55.96,227,51,227L51,227z"/>
<circle class="st7" cx="72" cy="236" r="6"/>
<path class="st1" d="M72,233c1.66,0,3,1.34,3,3s-1.34,3-3,3s-3-1.34-3-3S70.34,233,72,233 M72,227c-4.96,0-9,4.04-9,9s4.04,9,9,9
	s9-4.04,9-9S76.96,227,72,227L72,227z"/>
<circle class="st8" cx="93" cy="236" r="6"/>
<path class="st1" d="M93,233c1.66,0,3,1.34,3,3s-1.34,3-3,3s-3-1.34-3-3S91.34,233,93,233 M93,227c-4.96,0-9,4.04-9,9s4.04,9,9,9
	s9-4.04,9-9S97.96,227,93,227L93,227z"/>
<circle class="st0" cx="61.5" cy="323.5" r="16.5"/>
<path class="st2" d="M66,368c-11.6,0-21,9.4-21,21c0,1.12,0.11,2.21,0.28,3.28c1.15,0.46,2.41,0.72,3.72,0.72h37.61
	c0.25-1.29,0.39-2.63,0.39-4C87,377.4,77.6,368,66,368z"/>
<circle class="st0" cx="104.5" cy="323.5" r="16.5"/>
<circle class="st0" cx="147.5" cy="323.5" r="16.5"/>
<path class="st3" d="M76,348H47c-1.1,0-2-0.9-2-2l0,0c0-1.1,0.9-2,2-2h29c1.1,0,2,0.9,2,2l0,0C78,347.1,77.1,348,76,348z"/>
<path class="st3" d="M69,356H47c-1.1,0-2-0.9-2-2l0,0c0-1.1,0.9-2,2-2h22c1.1,0,2,0.9,2,2l0,0C71,355.1,70.1,356,69,356z"/>
<path class="st3" d="M119,348H90c-1.1,0-2-0.9-2-2l0,0c0-1.1,0.9-2,2-2h29c1.1,0,2,0.9,2,2l0,0C121,347.1,120.1,348,119,348z"/>
<path class="st3" d="M145,387H95c-1.1,0-2-0.9-2-2l0,0c0-1.1,0.9-2,2-2h50c1.1,0,2,0.9,2,2l0,0C147,386.1,146.1,387,145,387z"/>
<path class="st3" d="M162,379H95c-1.1,0-2-0.9-2-2l0,0c0-1.1,0.9-2,2-2h67c1.1,0,2,0.9,2,2l0,0C164,378.1,163.1,379,162,379z"/>
<path class="st3" d="M112,356H90c-1.1,0-2-0.9-2-2l0,0c0-1.1,0.9-2,2-2h22c1.1,0,2,0.9,2,2l0,0C114,355.1,113.1,356,112,356z"/>
<path class="st3" d="M162,348h-29c-1.1,0-2-0.9-2-2l0,0c0-1.1,0.9-2,2-2h29c1.1,0,2,0.9,2,2l0,0C164,347.1,163.1,348,162,348z"/>
<path class="st3" d="M155,356h-22c-1.1,0-2-0.9-2-2l0,0c0-1.1,0.9-2,2-2h22c1.1,0,2,0.9,2,2l0,0C157,355.1,156.1,356,155,356z"/>
<path class="st1" d="M118.5,276c-1.1,0-2-0.9-2-2c0-1.1-0.9-2-2-2s-2,0.9-2,2c0,1.1-0.9,2-2,2s-2-0.9-2-2c0-3.31,2.69-6,6-6
	s6,2.69,6,6C120.5,275.1,119.6,276,118.5,276z"/>
<path class="st1" d="M98.5,276c-1.1,0-2-0.9-2-2c0-1.1-0.9-2-2-2s-2,0.9-2,2c0,1.1-0.9,2-2,2s-2-0.9-2-2c0-3.31,2.69-6,6-6
	s6,2.69,6,6C100.5,275.1,99.6,276,98.5,276z"/>
<path class="st1" d="M104.78,286.01c-4.22,0-8.55-1.08-12.29-3.25c-0.96-0.55-1.28-1.78-0.73-2.73c0.55-0.96,1.78-1.28,2.73-0.73
	c6.17,3.58,14.54,3.59,19.89,0.03c0.92-0.61,2.16-0.36,2.77,0.56c0.61,0.92,0.36,2.16-0.56,2.77
	C113.25,284.89,109.07,286.01,104.78,286.01z"/>
<path class="st1" d="M100.76,288.52c0.61,0.17,1.23,0.29,1.86,0.35c0.63,0.07,1.26,0.12,1.89,0.14c0.63-0.02,1.26-0.06,1.89-0.14
	c0.63-0.06,1.24-0.18,1.85-0.36c0.7-0.2,1.44,0.2,1.64,0.91c0.14,0.49-0.01,0.99-0.35,1.32l-0.76,0.73
	c-0.62,0.6-1.33,0.95-2.05,1.18c-0.72,0.25-1.47,0.33-2.22,0.36c-0.75-0.02-1.49-0.1-2.21-0.35c-0.72-0.23-1.42-0.58-2.04-1.19
	l-0.77-0.75c-0.52-0.51-0.53-1.34-0.02-1.86C99.8,288.51,100.31,288.4,100.76,288.52z"/>
<circle class="st3" cx="131.5" cy="276" r="2"/>
<circle class="st3" cx="127.5" cy="284" r="2"/>
<circle class="st3" cx="135.5" cy="284" r="2"/>
<circle class="st3" cx="77.5" cy="276" r="2"/>
<circle class="st3" cx="73.5" cy="284" r="2"/>
<circle class="st3" cx="81.5" cy="284" r="2"/>
<path class="st1" d="M111.03,260.85c0.98-0.6,1.87-0.9,2.89-1.1c0.99-0.2,2.03-0.24,3.08-0.13c1.04,0.1,2.1,0.42,3.07,0.92
	c0.98,0.49,1.85,1.25,2.47,2.16c0.53,0.79,0.33,1.86-0.46,2.39c-0.37,0.25-0.81,0.34-1.23,0.28l-0.39-0.06
	c-0.79-0.12-1.41-0.3-2.07-0.41c-0.66-0.1-1.3-0.24-2-0.32l-2.15-0.24c-0.73-0.08-1.57-0.13-2.28-0.28l-0.41-0.09
	c-0.92-0.2-1.5-1.11-1.3-2.03C110.37,261.47,110.66,261.08,111.03,260.85z"/>
<path class="st1" d="M97.03,264.05c-0.71,0.16-1.55,0.21-2.28,0.28l-2.15,0.24c-0.69,0.08-1.33,0.22-2,0.32
	c-0.67,0.11-1.28,0.29-2.07,0.41l-0.39,0.06c-0.94,0.15-1.82-0.5-1.97-1.44c-0.07-0.45,0.04-0.88,0.27-1.23
	c0.62-0.91,1.49-1.67,2.47-2.16c0.97-0.5,2.03-0.82,3.07-0.92c1.04-0.11,2.08-0.08,3.08,0.13c1.01,0.2,1.91,0.5,2.89,1.1
	c0.8,0.49,1.05,1.54,0.56,2.34c-0.25,0.41-0.65,0.67-1.08,0.77L97.03,264.05z"/>
<path class="st9" d="M238,180c-7.17,0-13-5.83-13-13V17c0-7.17,5.83-13,13-13h111c7.17,0,13,5.83,13,13v150c0,7.17-5.83,13-13,13
	H238z"/>
<path class="st1" d="M349,7c5.52,0,10,4.48,10,10v150c0,5.52-4.48,10-10,10H238c-5.52,0-10-4.48-10-10V17c0-5.52,4.48-10,10-10H349
	 M349,1H238c-8.82,0-16,7.18-16,16v150c0,8.82,7.18,16,16,16h111c8.82,0,16-7.18,16-16V17C365,8.18,357.82,1,349,1L349,1z"/>
<rect x="228" y="83" class="st10" width="131" height="63"/>
<rect x="228" y="81" class="st11" width="131" height="4"/>
<path class="st4" d="M228,36c-1.66,0-3-1.34-3-3V17c0-7.17,5.83-13,13-13h111c7.17,0,13,5.83,13,13v16c0,1.66-1.34,3-3,3H228z"/>
<path class="st1" d="M349,7c5.52,0,10,4.48,10,10v16H228V17c0-5.52,4.48-10,10-10H349 M349,1H238c-8.82,0-16,7.18-16,16v16
	c0,3.31,2.69,6,6,6h131c3.31,0,6-2.69,6-6V17C365,8.18,357.82,1,349,1L349,1z"/>
<path class="st5" d="M303,26c-3.31,0-6-2.69-6-6s2.69-6,6-6h44c3.31,0,6,2.69,6,6s-2.69,6-6,6H303z"/>
<path class="st1" d="M347,17c1.66,0,3,1.34,3,3s-1.34,3-3,3h-44c-1.66,0-3-1.34-3-3s1.34-3,3-3H347 M347,11h-44c-4.96,0-9,4.04-9,9
	s4.04,9,9,9h44c4.96,0,9-4.04,9-9S351.96,11,347,11L347,11z"/>
<circle class="st6" cx="240" cy="20" r="6"/>
<path class="st1" d="M240,17c1.66,0,3,1.34,3,3s-1.34,3-3,3c-1.66,0-3-1.34-3-3S238.34,17,240,17 M240,11c-4.96,0-9,4.04-9,9
	s4.04,9,9,9s9-4.04,9-9S244.96,11,240,11L240,11z"/>
<circle class="st7" cx="261" cy="20" r="6"/>
<path class="st1" d="M261,17c1.66,0,3,1.34,3,3s-1.34,3-3,3s-3-1.34-3-3S259.34,17,261,17 M261,11c-4.96,0-9,4.04-9,9s4.04,9,9,9
	s9-4.04,9-9S265.96,11,261,11L261,11z"/>
<circle class="st8" cx="282" cy="20" r="6"/>
<path class="st1" d="M282,17c1.66,0,3,1.34,3,3s-1.34,3-3,3s-3-1.34-3-3S280.34,17,282,17 M282,11c-4.96,0-9,4.04-9,9s4.04,9,9,9
	s9-4.04,9-9S286.96,11,282,11L282,11z"/>
<circle class="st9" cx="250.5" cy="107.5" r="16.5"/>
<path class="st10" d="M255,152c-11.6,0-21,9.4-21,21c0,1.12,0.11,2.21,0.28,3.28c1.15,0.46,2.41,0.72,3.72,0.72h37.61
	c0.25-1.29,0.39-2.63,0.39-4C276,161.4,266.6,152,255,152z"/>
<circle class="st9" cx="293.5" cy="107.5" r="16.5"/>
<circle class="st9" cx="336.5" cy="107.5" r="16.5"/>
<path class="st11" d="M265,132h-29c-1.1,0-2-0.9-2-2l0,0c0-1.1,0.9-2,2-2h29c1.1,0,2,0.9,2,2l0,0C267,131.1,266.1,132,265,132z"/>
<path class="st11" d="M258,140h-22c-1.1,0-2-0.9-2-2l0,0c0-1.1,0.9-2,2-2h22c1.1,0,2,0.9,2,2l0,0C260,139.1,259.1,140,258,140z"/>
<path class="st11" d="M308,132h-29c-1.1,0-2-0.9-2-2l0,0c0-1.1,0.9-2,2-2h29c1.1,0,2,0.9,2,2l0,0C310,131.1,309.1,132,308,132z"/>
<path class="st11" d="M334,171h-50c-1.1,0-2-0.9-2-2l0,0c0-1.1,0.9-2,2-2h50c1.1,0,2,0.9,2,2l0,0C336,170.1,335.1,171,334,171z"/>
<path class="st11" d="M351,163h-67c-1.1,0-2-0.9-2-2l0,0c0-1.1,0.9-2,2-2h67c1.1,0,2,0.9,2,2l0,0C353,162.1,352.1,163,351,163z"/>
<path class="st11" d="M301,140h-22c-1.1,0-2-0.9-2-2l0,0c0-1.1,0.9-2,2-2h22c1.1,0,2,0.9,2,2l0,0C303,139.1,302.1,140,301,140z"/>
<path class="st11" d="M351,132h-29c-1.1,0-2-0.9-2-2l0,0c0-1.1,0.9-2,2-2h29c1.1,0,2,0.9,2,2l0,0C353,131.1,352.1,132,351,132z"/>
<path class="st11" d="M344,140h-22c-1.1,0-2-0.9-2-2l0,0c0-1.1,0.9-2,2-2h22c1.1,0,2,0.9,2,2l0,0C346,139.1,345.1,140,344,140z"/>
<path class="st1" d="M307.5,60c-1.1,0-2-0.9-2-2c0-1.1-0.9-2-2-2s-2,0.9-2,2c0,1.1-0.9,2-2,2s-2-0.9-2-2c0-3.31,2.69-6,6-6
	s6,2.69,6,6C309.5,59.1,308.6,60,307.5,60z"/>
<path class="st1" d="M287.5,60c-1.1,0-2-0.9-2-2c0-1.1-0.9-2-2-2s-2,0.9-2,2c0,1.1-0.9,2-2,2s-2-0.9-2-2c0-3.31,2.69-6,6-6
	s6,2.69,6,6C289.5,59.1,288.6,60,287.5,60z"/>
<path class="st1" d="M293.78,70.01c-4.22,0-8.54-1.08-12.29-3.25c-0.96-0.55-1.28-1.78-0.73-2.73c0.55-0.96,1.77-1.28,2.73-0.73
	c6.17,3.58,14.54,3.59,19.89,0.03c0.92-0.61,2.16-0.36,2.77,0.56c0.61,0.92,0.36,2.16-0.56,2.77
	C302.25,68.89,298.07,70.01,293.78,70.01z"/>
<path class="st1" d="M289.76,72.52c0.61,0.17,1.23,0.29,1.86,0.35c0.63,0.07,1.26,0.12,1.89,0.14c0.63-0.02,1.26-0.06,1.89-0.14
	c0.63-0.06,1.24-0.18,1.85-0.36c0.7-0.2,1.44,0.2,1.64,0.91c0.14,0.49-0.01,0.99-0.35,1.32l-0.76,0.73
	c-0.62,0.6-1.33,0.95-2.05,1.18c-0.72,0.25-1.47,0.33-2.22,0.36c-0.75-0.02-1.49-0.1-2.21-0.35c-0.72-0.23-1.42-0.58-2.04-1.19
	l-0.77-0.75c-0.52-0.51-0.53-1.34-0.02-1.86C288.8,72.51,289.31,72.4,289.76,72.52z"/>
<circle class="st11" cx="320.5" cy="60" r="2"/>
<circle class="st11" cx="316.5" cy="68" r="2"/>
<circle class="st11" cx="324.5" cy="68" r="2"/>
<circle class="st11" cx="266.5" cy="60" r="2"/>
<circle class="st11" cx="262.5" cy="68" r="2"/>
<circle class="st11" cx="270.5" cy="68" r="2"/>
<path class="st1" d="M300.03,44.85c0.98-0.6,1.87-0.9,2.89-1.1c0.99-0.2,2.03-0.24,3.08-0.13c1.04,0.1,2.1,0.42,3.07,0.92
	c0.98,0.49,1.85,1.25,2.47,2.16c0.53,0.79,0.33,1.86-0.46,2.39c-0.37,0.25-0.81,0.34-1.23,0.28l-0.39-0.06
	c-0.79-0.12-1.41-0.3-2.07-0.41c-0.66-0.1-1.3-0.24-2-0.32l-2.15-0.24c-0.73-0.08-1.57-0.13-2.28-0.28l-0.41-0.09
	c-0.92-0.2-1.5-1.11-1.3-2.03C299.37,45.47,299.66,45.08,300.03,44.85z"/>
<path class="st1" d="M286.03,48.05c-0.71,0.16-1.55,0.21-2.28,0.28l-2.15,0.24c-0.69,0.08-1.33,0.22-2,0.32
	c-0.67,0.11-1.28,0.29-2.07,0.41l-0.39,0.06c-0.94,0.15-1.82-0.5-1.97-1.44c-0.07-0.45,0.04-0.88,0.27-1.23
	c0.62-0.91,1.49-1.67,2.47-2.16c0.97-0.5,2.03-0.82,3.07-0.92c1.04-0.11,2.08-0.08,3.08,0.13c1.01,0.2,1.91,0.5,2.89,1.1
	c0.8,0.49,1.05,1.54,0.56,2.34c-0.25,0.41-0.65,0.67-1.08,0.77L286.03,48.05z"/>
<path class="st8" d="M225,384c-7.17,0-13-5.83-13-13V221c0-7.17,5.83-13,13-13h111c7.17,0,13,5.83,13,13v150c0,7.17-5.83,13-13,13
	H225z"/>
<path class="st1" d="M336,211c5.52,0,10,4.48,10,10v150c0,5.52-4.48,10-10,10H225c-5.52,0-10-4.48-10-10V221c0-5.52,4.48-10,10-10
	H336 M336,205H225c-8.82,0-16,7.18-16,16v150c0,8.82,7.18,16,16,16h111c8.82,0,16-7.18,16-16V221C352,212.18,344.82,205,336,205
	L336,205z"/>
<rect x="215" y="294" class="st12" width="131" height="52"/>
<path class="st4" d="M215,240c-1.66,0-3-1.34-3-3v-16c0-7.17,5.83-13,13-13h111c7.17,0,13,5.83,13,13v16c0,1.66-1.34,3-3,3H215z"/>
<path class="st1" d="M336,211c5.52,0,10,4.48,10,10v16H215v-16c0-5.52,4.48-10,10-10H336 M336,205H225c-8.82,0-16,7.18-16,16v16
	c0,3.31,2.69,6,6,6h131c3.31,0,6-2.69,6-6v-16C352,212.18,344.82,205,336,205L336,205z"/>
<path class="st5" d="M290,230c-3.31,0-6-2.69-6-6s2.69-6,6-6h44c3.31,0,6,2.69,6,6s-2.69,6-6,6H290z"/>
<path class="st1" d="M334,221c1.66,0,3,1.34,3,3s-1.34,3-3,3h-44c-1.66,0-3-1.34-3-3s1.34-3,3-3H334 M334,215h-44
	c-4.96,0-9,4.04-9,9s4.04,9,9,9h44c4.96,0,9-4.04,9-9S338.96,215,334,215L334,215z"/>
<circle class="st6" cx="227" cy="224" r="6"/>
<path class="st1" d="M227,221c1.66,0,3,1.34,3,3s-1.34,3-3,3s-3-1.34-3-3S225.34,221,227,221 M227,215c-4.96,0-9,4.04-9,9
	s4.04,9,9,9s9-4.04,9-9S231.96,215,227,215L227,215z"/>
<circle class="st7" cx="248" cy="224" r="6"/>
<path class="st1" d="M248,221c1.66,0,3,1.34,3,3s-1.34,3-3,3s-3-1.34-3-3S246.34,221,248,221 M248,215c-4.96,0-9,4.04-9,9
	s4.04,9,9,9s9-4.04,9-9S252.96,215,248,215L248,215z"/>
<circle class="st8" cx="269" cy="224" r="6"/>
<path class="st1" d="M269,221c1.66,0,3,1.34,3,3s-1.34,3-3,3s-3-1.34-3-3S267.34,221,269,221 M269,215c-4.96,0-9,4.04-9,9
	s4.04,9,9,9s9-4.04,9-9S273.96,215,269,215L269,215z"/>
<circle class="st13" cx="310.5" cy="268" r="2"/>
<circle class="st13" cx="306.5" cy="276" r="2"/>
<circle class="st13" cx="314.5" cy="276" r="2"/>
<circle class="st13" cx="250.5" cy="268" r="2"/>
<circle class="st13" cx="246.5" cy="276" r="2"/>
<circle class="st13" cx="254.5" cy="276" r="2"/>
<circle class="st12" cx="232.5" cy="363.5" r="11.5"/>
<circle class="st12" cx="264.5" cy="363.5" r="11.5"/>
<circle class="st12" cx="328.5" cy="363.5" r="11.5"/>
<circle class="st12" cx="296.5" cy="363.5" r="11.5"/>
<path class="st5" d="M336,340h-49c-2.21,0-4-1.79-4-4v-32c0-2.21,1.79-4,4-4h49c2.21,0,4,1.79,4,4v32C340,338.21,338.21,340,336,340
	z"/>
<path class="st8" d="M326,334h-35c-1.1,0-2-0.9-2-2l0,0c0-1.1,0.9-2,2-2h35c1.1,0,2,0.9,2,2l0,0C328,333.1,327.1,334,326,334z"/>
<path class="st8" d="M332,326h-41c-1.1,0-2-0.9-2-2l0,0c0-1.1,0.9-2,2-2h41c1.1,0,2,0.9,2,2l0,0C334,325.1,333.1,326,332,326z"/>
<circle class="st12" cx="295" cy="312" r="6"/>
<path class="st5" d="M274,340h-49c-2.21,0-4-1.79-4-4v-32c0-2.21,1.79-4,4-4h49c2.21,0,4,1.79,4,4v32C278,338.21,276.21,340,274,340
	z"/>
<path class="st8" d="M264,334h-35c-1.1,0-2-0.9-2-2l0,0c0-1.1,0.9-2,2-2h35c1.1,0,2,0.9,2,2l0,0C266,333.1,265.1,334,264,334z"/>
<path class="st8" d="M270,326h-41c-1.1,0-2-0.9-2-2l0,0c0-1.1,0.9-2,2-2h41c1.1,0,2,0.9,2,2l0,0C272,325.1,271.1,326,270,326z"/>
<circle class="st12" cx="233" cy="312" r="6"/>
<path class="st1" d="M292.51,268H268.5c-2.21,0-4,1.79-4,4c0,8.82,7.18,16,16,16c8.77,0,15.91-7.09,16-15.84c0-0.05,0-0.11,0-0.16
	C296.5,269.79,294.71,268,292.51,268z"/>
<ellipse class="st6" cx="280.5" cy="280" rx="8.93" ry="4"/>
<path class="st1" d="M294.5,265.04c-1.1,0-2-0.9-2-2c0-1.1-0.9-2-2-2s-2,0.9-2,2c0,1.1-0.9,2-2,2s-2-0.9-2-2c0-3.31,2.69-6,6-6
	s6,2.69,6,6C296.5,264.15,295.6,265.04,294.5,265.04z"/>
<path class="st1" d="M274.5,265.04c-1.1,0-2-0.9-2-2c0-1.1-0.9-2-2-2s-2,0.9-2,2c0,1.1-0.9,2-2,2s-2-0.9-2-2c0-3.31,2.69-6,6-6
	s6,2.69,6,6C276.5,264.15,275.6,265.04,274.5,265.04z"/>
<path class="st1" d="M287.03,249.89c0.98-0.6,1.87-0.9,2.89-1.1c0.99-0.2,2.03-0.24,3.08-0.13c1.04,0.1,2.1,0.42,3.07,0.92
	c0.98,0.49,1.85,1.25,2.47,2.16c0.53,0.79,0.33,1.86-0.46,2.39c-0.37,0.25-0.81,0.34-1.23,0.28l-0.39-0.06
	c-0.79-0.12-1.41-0.3-2.07-0.41c-0.66-0.1-1.3-0.24-2-0.32l-2.15-0.24c-0.73-0.08-1.57-0.13-2.28-0.28l-0.41-0.09
	c-0.92-0.2-1.5-1.11-1.3-2.03C286.37,250.51,286.66,250.13,287.03,249.89z"/>
<path class="st1" d="M273.03,253.09c-0.71,0.16-1.55,0.21-2.28,0.28l-2.15,0.24c-0.69,0.08-1.33,0.22-2,0.32
	c-0.67,0.11-1.28,0.29-2.07,0.41l-0.39,0.06c-0.94,0.15-1.82-0.5-1.97-1.44c-0.07-0.45,0.04-0.88,0.27-1.23
	c0.62-0.91,1.49-1.67,2.47-2.16c0.97-0.5,2.03-0.82,3.07-0.92c1.04-0.11,2.08-0.08,3.08,0.13c1.01,0.2,1.91,0.5,2.89,1.1
	c0.8,0.49,1.05,1.54,0.56,2.34c-0.25,0.41-0.65,0.67-1.08,0.77L273.03,253.09z"/>
<path class="st14" d="M49,192c-7.17,0-13-5.83-13-13V29c0-7.17,5.83-13,13-13h111c7.17,0,13,5.83,13,13v150c0,7.17-5.83,13-13,13H49
	z"/>
<path class="st1" d="M160,19c5.52,0,10,4.48,10,10v150c0,5.52-4.48,10-10,10H49c-5.52,0-10-4.48-10-10V29c0-5.52,4.48-10,10-10H160
	 M160,13H49c-8.82,0-16,7.18-16,16v150c0,8.82,7.18,16,16,16h111c8.82,0,16-7.18,16-16V29C176,20.18,168.82,13,160,13L160,13z"/>
<rect x="39" y="102" class="st15" width="131" height="52"/>
<path class="st4" d="M39,48c-1.66,0-3-1.34-3-3V29c0-7.17,5.83-13,13-13h111c7.17,0,13,5.83,13,13v16c0,1.66-1.34,3-3,3H39z"/>
<path class="st1" d="M160,19c5.52,0,10,4.48,10,10v16H39V29c0-5.52,4.48-10,10-10H160 M160,13H49c-8.82,0-16,7.18-16,16v16
	c0,3.31,2.69,6,6,6h131c3.31,0,6-2.69,6-6V29C176,20.18,168.82,13,160,13L160,13z"/>
<path class="st5" d="M114,38c-3.31,0-6-2.69-6-6s2.69-6,6-6h44c3.31,0,6,2.69,6,6s-2.69,6-6,6H114z"/>
<path class="st1" d="M158,29c1.66,0,3,1.34,3,3c0,1.66-1.34,3-3,3h-44c-1.66,0-3-1.34-3-3c0-1.66,1.34-3,3-3H158 M158,23h-44
	c-4.96,0-9,4.04-9,9s4.04,9,9,9h44c4.96,0,9-4.04,9-9S162.96,23,158,23L158,23z"/>
<circle class="st6" cx="51" cy="32" r="6"/>
<path class="st1" d="M51,29c1.66,0,3,1.34,3,3c0,1.66-1.34,3-3,3s-3-1.34-3-3C48,30.34,49.34,29,51,29 M51,23c-4.96,0-9,4.04-9,9
	s4.04,9,9,9s9-4.04,9-9S55.96,23,51,23L51,23z"/>
<circle class="st7" cx="72" cy="32" r="6"/>
<path class="st1" d="M72,29c1.66,0,3,1.34,3,3c0,1.66-1.34,3-3,3s-3-1.34-3-3C69,30.34,70.34,29,72,29 M72,23c-4.96,0-9,4.04-9,9
	s4.04,9,9,9s9-4.04,9-9S76.96,23,72,23L72,23z"/>
<circle class="st8" cx="93" cy="32" r="6"/>
<path class="st1" d="M93,29c1.66,0,3,1.34,3,3c0,1.66-1.34,3-3,3s-3-1.34-3-3C90,30.34,91.34,29,93,29 M93,23c-4.96,0-9,4.04-9,9
	s4.04,9,9,9s9-4.04,9-9S97.96,23,93,23L93,23z"/>
<circle class="st6" cx="134.5" cy="76" r="2"/>
<circle class="st6" cx="130.5" cy="84" r="2"/>
<circle class="st6" cx="138.5" cy="84" r="2"/>
<circle class="st6" cx="74.5" cy="76" r="2"/>
<circle class="st6" cx="70.5" cy="84" r="2"/>
<circle class="st6" cx="78.5" cy="84" r="2"/>
<path class="st1" d="M96,76c-0.16,0-0.33-0.03-0.49-0.08c-1.6-0.55-4.42-0.55-6.02,0c-0.78,0.27-1.64-0.15-1.91-0.93
	c-0.27-0.78,0.15-1.64,0.93-1.91c2.24-0.77,5.74-0.77,7.98,0c0.78,0.27,1.2,1.12,0.93,1.91C97.2,75.61,96.62,76,96,76z"/>
<circle class="st1" cx="116.5" cy="68" r="6"/>
<circle class="st5" cx="118" cy="68" r="1.5"/>
<path class="st1" d="M112.03,55.85c0.98-0.6,1.87-0.9,2.89-1.1c0.99-0.2,2.03-0.24,3.08-0.13c1.04,0.1,2.1,0.42,3.07,0.92
	c0.98,0.49,1.85,1.25,2.47,2.16c0.53,0.79,0.33,1.86-0.46,2.39c-0.37,0.25-0.81,0.34-1.23,0.28l-0.39-0.06
	c-0.79-0.12-1.41-0.3-2.07-0.41c-0.66-0.1-1.3-0.24-2-0.32l-2.15-0.24c-0.73-0.08-1.57-0.13-2.28-0.28l-0.41-0.09
	c-0.92-0.2-1.5-1.11-1.3-2.03C111.37,56.47,111.66,56.08,112.03,55.85z"/>
<path class="st1" d="M120,76c-0.16,0-0.33-0.03-0.49-0.08c-1.6-0.55-4.42-0.55-6.02,0c-0.78,0.27-1.64-0.15-1.91-0.93
	s0.15-1.64,0.93-1.91c2.24-0.77,5.74-0.77,7.98,0c0.78,0.27,1.2,1.12,0.93,1.91C121.2,75.61,120.62,76,120,76z"/>
<circle class="st1" cx="92.5" cy="68" r="6"/>
<circle class="st5" cx="94" cy="68" r="1.5"/>
<path class="st1" d="M96.03,59.05c-0.71,0.16-1.55,0.21-2.28,0.28l-2.15,0.24c-0.69,0.08-1.33,0.22-2,0.32
	c-0.67,0.11-1.28,0.29-2.07,0.41l-0.39,0.06c-0.94,0.15-1.82-0.5-1.97-1.44c-0.07-0.45,0.04-0.88,0.27-1.23
	c0.62-0.91,1.49-1.67,2.47-2.16c0.97-0.5,2.03-0.82,3.07-0.92c1.04-0.11,2.08-0.08,3.08,0.13c1.01,0.2,1.91,0.5,2.89,1.1
	c0.8,0.49,1.05,1.54,0.56,2.34c-0.25,0.41-0.65,0.67-1.08,0.77L96.03,59.05z"/>
<circle class="st15" cx="56.5" cy="171.5" r="11.5"/>
<circle class="st15" cx="88.5" cy="171.5" r="11.5"/>
<circle class="st15" cx="152.5" cy="171.5" r="11.5"/>
<circle class="st15" cx="120.5" cy="171.5" r="11.5"/>
<path class="st5" d="M160,148h-49c-2.21,0-4-1.79-4-4v-32c0-2.21,1.79-4,4-4h49c2.21,0,4,1.79,4,4v32C164,146.21,162.21,148,160,148
	z"/>
<path class="st14" d="M150,142h-35c-1.1,0-2-0.9-2-2l0,0c0-1.1,0.9-2,2-2h35c1.1,0,2,0.9,2,2l0,0C152,141.1,151.1,142,150,142z"/>
<path class="st14" d="M156,134h-41c-1.1,0-2-0.9-2-2l0,0c0-1.1,0.9-2,2-2h41c1.1,0,2,0.9,2,2l0,0C158,133.1,157.1,134,156,134z"/>
<circle class="st15" cx="119" cy="120" r="6"/>
<path class="st5" d="M98,148H49c-2.21,0-4-1.79-4-4v-32c0-2.21,1.79-4,4-4h49c2.21,0,4,1.79,4,4v32C102,146.21,100.21,148,98,148z"
	/>
<path class="st14" d="M88,142H53c-1.1,0-2-0.9-2-2l0,0c0-1.1,0.9-2,2-2h35c1.1,0,2,0.9,2,2l0,0C90,141.1,89.1,142,88,142z"/>
<path class="st14" d="M94,134H53c-1.1,0-2-0.9-2-2l0,0c0-1.1,0.9-2,2-2h41c1.1,0,2,0.9,2,2l0,0C96,133.1,95.1,134,94,134z"/>
<circle class="st15" cx="57" cy="120" r="6"/>
<path class="st1" d="M104.78,86.01c-4.22,0-8.55-1.08-12.29-3.25c-0.96-0.55-1.28-1.78-0.73-2.73c0.55-0.96,1.78-1.28,2.73-0.73
	c6.17,3.58,14.54,3.59,19.89,0.03c0.92-0.61,2.16-0.36,2.77,0.56c0.61,0.92,0.36,2.16-0.56,2.77
	C113.25,84.89,109.07,86.01,104.78,86.01z"/>
<path class="st1" d="M100.76,88.52c0.61,0.17,1.23,0.29,1.86,0.35c0.63,0.07,1.26,0.12,1.89,0.14c0.63-0.02,1.26-0.06,1.89-0.14
	c0.63-0.06,1.24-0.18,1.85-0.36c0.7-0.2,1.44,0.2,1.64,0.91c0.14,0.49-0.01,0.99-0.35,1.32l-0.76,0.73
	c-0.62,0.6-1.33,0.95-2.05,1.18c-0.72,0.25-1.47,0.33-2.22,0.36c-0.75-0.02-1.49-0.1-2.21-0.35c-0.72-0.23-1.42-0.58-2.04-1.19
	l-0.77-0.75c-0.52-0.51-0.53-1.34-0.02-1.86C99.8,88.51,100.31,88.4,100.76,88.52z"/>
<g class="st16">
	<rect class="st17" width="400" height="400"/>
</g>
<g>
	<path class="st1" d="M221.57,119.5h-5c-0.83,0-1.5-0.67-1.5-1.5s0.67-1.5,1.5-1.5h5c0.83,0,1.5,0.67,1.5,1.5
		S222.4,119.5,221.57,119.5z M207.57,119.49c-0.02,0-0.04,0-0.06,0c-1.92-0.08-3.81-0.65-5.45-1.64c-0.71-0.43-0.94-1.35-0.51-2.06
		c0.43-0.71,1.35-0.94,2.06-0.51c1.21,0.73,2.6,1.15,4.02,1.21c0.83,0.03,1.47,0.73,1.44,1.56
		C209.04,118.86,208.37,119.49,207.57,119.49z M198.08,110.78c-0.74,0-1.39-0.55-1.49-1.31c-0.06-0.49-0.09-0.98-0.09-1.47v-3.71
		c0-0.83,0.67-1.5,1.5-1.5s1.5,0.67,1.5,1.5V108c0,0.36,0.02,0.73,0.07,1.09c0.1,0.82-0.48,1.57-1.3,1.68
		C198.21,110.78,198.14,110.78,198.08,110.78z M198,96.79c-0.83,0-1.5-0.67-1.5-1.5v-5c0-0.83,0.67-1.5,1.5-1.5s1.5,0.67,1.5,1.5v5
		C199.5,96.11,198.83,96.79,198,96.79z M194.44,83.85c-0.34,0-0.68-0.12-0.97-0.35c-1.09-0.92-2.4-1.55-3.78-1.83
		c-0.81-0.16-1.34-0.95-1.17-1.77c0.16-0.81,0.95-1.34,1.77-1.17c1.88,0.38,3.65,1.23,5.12,2.47c0.63,0.53,0.71,1.48,0.18,2.11
		C195.29,83.67,194.87,83.85,194.44,83.85z M181,81.5h-5c-0.83,0-1.5-0.67-1.5-1.5s0.67-1.5,1.5-1.5h5c0.83,0,1.5,0.67,1.5,1.5
		S181.83,81.5,181,81.5z"/>
</g>
<g>
	<path class="st1" d="M180.43,331.5H176c-0.83,0-1.5-0.67-1.5-1.5s0.67-1.5,1.5-1.5h4.43c0.83,0,1.5,0.67,1.5,1.5
		S181.26,331.5,180.43,331.5z M188.99,329.51c-0.46,0-0.91-0.21-1.2-0.6c-0.5-0.66-0.36-1.6,0.3-2.1c1.14-0.85,2.05-1.99,2.64-3.28
		c0.34-0.75,1.23-1.09,1.99-0.74c0.75,0.34,1.08,1.24,0.74,1.99c-0.8,1.74-2.03,3.27-3.57,4.43
		C189.62,329.41,189.31,329.51,188.99,329.51z M193,316.79c-0.83,0-1.5-0.67-1.5-1.5v-5c0-0.83,0.67-1.5,1.5-1.5s1.5,0.67,1.5,1.5v5
		C194.5,316.11,193.83,316.79,193,316.79z M193,302.79c-0.83,0-1.5-0.67-1.5-1.5v-5c0-0.83,0.67-1.5,1.5-1.5s1.5,0.67,1.5,1.5v5
		C194.5,302.11,193.83,302.79,193,302.79z M193.36,288.82c-0.13,0-0.27-0.02-0.4-0.05c-0.8-0.22-1.27-1.05-1.04-1.85
		c0.51-1.85,1.49-3.55,2.84-4.93c0.58-0.59,1.53-0.61,2.12-0.03c0.59,0.58,0.61,1.53,0.03,2.12c-0.99,1.02-1.72,2.28-2.1,3.64
		C194.62,288.39,194.02,288.82,193.36,288.82z M209,281.5h-5c-0.83,0-1.5-0.67-1.5-1.5s0.67-1.5,1.5-1.5h5c0.83,0,1.5,0.67,1.5,1.5
		S209.83,281.5,209,281.5z"/>
</g>
<g>
	<path class="st1" d="M380,295.5h-1c-0.83,0-1.5-0.67-1.5-1.5s0.67-1.5,1.5-1.5h1c1.15,0,2.26-0.22,3.31-0.67
		c0.76-0.32,1.64,0.04,1.97,0.8s-0.03,1.64-0.8,1.97C383.06,295.2,381.55,295.5,380,295.5z M370,295.5h-5c-0.83,0-1.5-0.67-1.5-1.5
		s0.67-1.5,1.5-1.5h5c0.83,0,1.5,0.67,1.5,1.5S370.83,295.5,370,295.5z M356,295.5h-5c-0.83,0-1.5-0.67-1.5-1.5s0.67-1.5,1.5-1.5h5
		c0.83,0,1.5,0.67,1.5,1.5S356.83,295.5,356,295.5z M389.64,288.18c-0.13,0-0.27-0.02-0.4-0.05c-0.8-0.22-1.27-1.05-1.04-1.85
		c0.21-0.74,0.31-1.51,0.31-2.28v-2.29c0-0.83,0.67-1.5,1.5-1.5s1.5,0.67,1.5,1.5V284c0,1.04-0.14,2.08-0.42,3.08
		C390.9,287.75,390.29,288.18,389.64,288.18z M390,274.21c-0.83,0-1.5-0.67-1.5-1.5v-5c0-0.83,0.67-1.5,1.5-1.5s1.5,0.67,1.5,1.5v5
		C391.5,273.54,390.83,274.21,390,274.21z M390,260.21c-0.83,0-1.5-0.67-1.5-1.5v-5c0-0.83,0.67-1.5,1.5-1.5s1.5,0.67,1.5,1.5v5
		C391.5,259.54,390.83,260.21,390,260.21z M390,246.21c-0.83,0-1.5-0.67-1.5-1.5v-5c0-0.83,0.67-1.5,1.5-1.5s1.5,0.67,1.5,1.5v5
		C391.5,245.54,390.83,246.21,390,246.21z M390,232.21c-0.83,0-1.5-0.67-1.5-1.5v-5c0-0.83,0.67-1.5,1.5-1.5s1.5,0.67,1.5,1.5v5
		C391.5,231.54,390.83,232.21,390,232.21z M390,218.21c-0.83,0-1.5-0.67-1.5-1.5v-5c0-0.83,0.67-1.5,1.5-1.5s1.5,0.67,1.5,1.5v5
		C391.5,217.54,390.83,218.21,390,218.21z M390,204.21c-0.83,0-1.5-0.67-1.5-1.5v-5c0-0.83,0.67-1.5,1.5-1.5s1.5,0.67,1.5,1.5v5
		C391.5,203.54,390.83,204.21,390,204.21z M390,190.21c-0.83,0-1.5-0.67-1.5-1.5v-5c0-0.83,0.67-1.5,1.5-1.5s1.5,0.67,1.5,1.5v5
		C391.5,189.54,390.83,190.21,390,190.21z M390,176.21c-0.83,0-1.5-0.67-1.5-1.5v-5c0-0.83,0.67-1.5,1.5-1.5s1.5,0.67,1.5,1.5v5
		C391.5,175.54,390.83,176.21,390,176.21z M390,162.21c-0.83,0-1.5-0.67-1.5-1.5v-5c0-0.83,0.67-1.5,1.5-1.5s1.5,0.67,1.5,1.5v5
		C391.5,161.54,390.83,162.21,390,162.21z M390,148.21c-0.83,0-1.5-0.67-1.5-1.5v-5c0-0.83,0.67-1.5,1.5-1.5s1.5,0.67,1.5,1.5v5
		C391.5,147.54,390.83,148.21,390,148.21z M390,134.21c-0.83,0-1.5-0.67-1.5-1.5v-5c0-0.83,0.67-1.5,1.5-1.5s1.5,0.67,1.5,1.5v5
		C391.5,133.54,390.83,134.21,390,134.21z M390,120.21c-0.83,0-1.5-0.67-1.5-1.5v-5c0-0.83,0.67-1.5,1.5-1.5s1.5,0.67,1.5,1.5v5
		C391.5,119.54,390.83,120.21,390,120.21z M390,106.21c-0.83,0-1.5-0.67-1.5-1.5V102c0-0.65-0.07-1.3-0.22-1.93
		c-0.19-0.81,0.31-1.61,1.12-1.8c0.81-0.19,1.61,0.31,1.8,1.12c0.2,0.85,0.3,1.72,0.3,2.6v2.71
		C391.5,105.54,390.83,106.21,390,106.21z M384.28,94.46c-0.22,0-0.43-0.05-0.64-0.15c-1.14-0.54-2.37-0.82-3.64-0.82h-0.57
		c-0.83,0-1.5-0.67-1.5-1.5s0.67-1.5,1.5-1.5H380c1.72,0,3.38,0.37,4.93,1.11c0.75,0.36,1.07,1.25,0.71,2
		C385.38,94.15,384.84,94.46,384.28,94.46z M370.43,93.5h-5c-0.83,0-1.5-0.67-1.5-1.5s0.67-1.5,1.5-1.5h5c0.83,0,1.5,0.67,1.5,1.5
		S371.26,93.5,370.43,93.5z"/>
</g>
<g>
	<path class="st1" d="M33,305.5h-5c-0.83,0-1.5-0.67-1.5-1.5s0.67-1.5,1.5-1.5h5c0.83,0,1.5,0.67,1.5,1.5S33.83,305.5,33,305.5z
		 M19,305.5h-1c-1.55,0-3.06-0.3-4.48-0.9c-0.76-0.32-1.12-1.2-0.8-1.97c0.32-0.76,1.2-1.12,1.97-0.8c1.05,0.44,2.16,0.67,3.31,0.67
		h1c0.83,0,1.5,0.67,1.5,1.5S19.83,305.5,19,305.5z M8.36,298.18c-0.66,0-1.26-0.43-1.44-1.1c-0.28-1-0.42-2.04-0.42-3.08v-2.29
		c0-0.83,0.67-1.5,1.5-1.5s1.5,0.67,1.5,1.5V294c0,0.77,0.1,1.54,0.31,2.28c0.22,0.8-0.25,1.62-1.04,1.85
		C8.63,298.16,8.5,298.18,8.36,298.18z M8,284.21c-0.83,0-1.5-0.67-1.5-1.5v-5c0-0.83,0.67-1.5,1.5-1.5s1.5,0.67,1.5,1.5v5
		C9.5,283.54,8.83,284.21,8,284.21z M8,270.21c-0.83,0-1.5-0.67-1.5-1.5v-5c0-0.83,0.67-1.5,1.5-1.5s1.5,0.67,1.5,1.5v5
		C9.5,269.54,8.83,270.21,8,270.21z M8,256.21c-0.83,0-1.5-0.67-1.5-1.5v-5c0-0.83,0.67-1.5,1.5-1.5s1.5,0.67,1.5,1.5v5
		C9.5,255.54,8.83,256.21,8,256.21z M8,242.21c-0.83,0-1.5-0.67-1.5-1.5v-5c0-0.83,0.67-1.5,1.5-1.5s1.5,0.67,1.5,1.5v5
		C9.5,241.54,8.83,242.21,8,242.21z M8,228.21c-0.83,0-1.5-0.67-1.5-1.5v-5c0-0.83,0.67-1.5,1.5-1.5s1.5,0.67,1.5,1.5v5
		C9.5,227.54,8.83,228.21,8,228.21z M8,214.21c-0.83,0-1.5-0.67-1.5-1.5v-5c0-0.83,0.67-1.5,1.5-1.5s1.5,0.67,1.5,1.5v5
		C9.5,213.54,8.83,214.21,8,214.21z M8,200.21c-0.83,0-1.5-0.67-1.5-1.5v-5c0-0.83,0.67-1.5,1.5-1.5s1.5,0.67,1.5,1.5v5
		C9.5,199.54,8.83,200.21,8,200.21z M8,186.21c-0.83,0-1.5-0.67-1.5-1.5v-5c0-0.83,0.67-1.5,1.5-1.5s1.5,0.67,1.5,1.5v5
		C9.5,185.54,8.83,186.21,8,186.21z M8,172.21c-0.83,0-1.5-0.67-1.5-1.5v-5c0-0.83,0.67-1.5,1.5-1.5s1.5,0.67,1.5,1.5v5
		C9.5,171.54,8.83,172.21,8,172.21z M8,158.21c-0.83,0-1.5-0.67-1.5-1.5v-5c0-0.83,0.67-1.5,1.5-1.5s1.5,0.67,1.5,1.5v5
		C9.5,157.54,8.83,158.21,8,158.21z M8,144.21c-0.83,0-1.5-0.67-1.5-1.5v-5c0-0.83,0.67-1.5,1.5-1.5s1.5,0.67,1.5,1.5v5
		C9.5,143.54,8.83,144.21,8,144.21z M8,130.21c-0.83,0-1.5-0.67-1.5-1.5v-5c0-0.83,0.67-1.5,1.5-1.5s1.5,0.67,1.5,1.5v5
		C9.5,129.54,8.83,130.21,8,130.21z M8,116.21c-0.83,0-1.5-0.67-1.5-1.5V112c0-0.88,0.1-1.75,0.3-2.6c0.19-0.81,0.99-1.31,1.8-1.12
		c0.81,0.19,1.31,0.99,1.12,1.8C9.57,110.7,9.5,111.35,9.5,112v2.71C9.5,115.54,8.83,116.21,8,116.21z M13.72,104.46
		c-0.56,0-1.1-0.32-1.36-0.86c-0.36-0.75-0.04-1.64,0.71-2c1.55-0.73,3.21-1.11,4.93-1.11h0.57c0.83,0,1.5,0.67,1.5,1.5
		s-0.67,1.5-1.5,1.5H18c-1.27,0-2.5,0.27-3.64,0.82C14.15,104.42,13.93,104.46,13.72,104.46z M32.57,103.5h-5
		c-0.83,0-1.5-0.67-1.5-1.5s0.67-1.5,1.5-1.5h5c0.83,0,1.5,0.67,1.5,1.5S33.4,103.5,32.57,103.5z"/>
</g>
<g>
	<g>
		<path class="st18" d="M360.6,320.4c2.65,0,4.8-2.15,4.8-4.8c0-0.88,0.72-1.6,1.6-1.6s1.6,0.72,1.6,1.6c0,2.65,2.15,4.8,4.8,4.8
			c0.88,0,1.6,0.72,1.6,1.6s-0.72,1.6-1.6,1.6c-2.65,0-4.8,2.15-4.8,4.8c0,0.88-0.72,1.6-1.6,1.6s-1.6-0.72-1.6-1.6
			c0-2.65-2.15-4.8-4.8-4.8c-0.88,0-1.6-0.72-1.6-1.6S359.72,320.4,360.6,320.4z"/>
	</g>
</g>
<g>
	<g>
		<path class="st18" d="M9.6,72.4c2.65,0,4.8-2.15,4.8-4.8c0-0.88,0.72-1.6,1.6-1.6c0.88,0,1.6,0.72,1.6,1.6
			c0,2.65,2.15,4.8,4.8,4.8c0.88,0,1.6,0.72,1.6,1.6s-0.72,1.6-1.6,1.6c-2.65,0-4.8,2.15-4.8,4.8c0,0.88-0.72,1.6-1.6,1.6
			c-0.88,0-1.6-0.72-1.6-1.6c0-2.65-2.15-4.8-4.8-4.8C8.72,75.6,8,74.88,8,74S8.72,72.4,9.6,72.4z"/>
	</g>
</g>
<g>
	<g>
		<path class="st18" d="M5.6,354.4c2.65,0,4.8-2.15,4.8-4.8c0-0.88,0.72-1.6,1.6-1.6s1.6,0.72,1.6,1.6c0,2.65,2.15,4.8,4.8,4.8
			c0.88,0,1.6,0.72,1.6,1.6s-0.72,1.6-1.6,1.6c-2.65,0-4.8,2.15-4.8,4.8c0,0.88-0.72,1.6-1.6,1.6s-1.6-0.72-1.6-1.6
			c0-2.65-2.15-4.8-4.8-4.8c-0.88,0-1.6-0.72-1.6-1.6S4.72,354.4,5.6,354.4z"/>
	</g>
</g>
<path class="st18" d="M380,376h-6v-6c0-1.66-1.34-3-3-3s-3,1.34-3,3v6h-6c-1.66,0-3,1.34-3,3s1.34,3,3,3h6v6c0,1.66,1.34,3,3,3
	s3-1.34,3-3v-6h6c1.66,0,3-1.34,3-3S381.66,376,380,376z"/>
<path class="st18" d="M205,37h-6v-6c0-1.66-1.34-3-3-3s-3,1.34-3,3v6h-6c-1.66,0-3,1.34-3,3s1.34,3,3,3h6v6c0,1.66,1.34,3,3,3
	s3-1.34,3-3v-6h6c1.66,0,3-1.34,3-3S206.66,37,205,37z"/>
<g>
	<circle class="st18" cx="22" cy="381" r="3"/>
</g>
<g>
	<circle class="st18" cx="387" cy="346" r="4"/>
</g>
<g>
	<circle class="st18" cx="212" cy="73" r="4"/>
</g>
<g>
	<circle class="st18" cx="191" cy="359" r="4"/>
</g>
<g>
	<circle class="st18" cx="383" cy="60" r="4"/>
</g>
<g>
	<g>
		<path class="st18" d="M197.6,178.4c2.65,0,4.8-2.15,4.8-4.8c0-0.88,0.72-1.6,1.6-1.6s1.6,0.72,1.6,1.6c0,2.65,2.15,4.8,4.8,4.8
			c0.88,0,1.6,0.72,1.6,1.6s-0.72,1.6-1.6,1.6c-2.65,0-4.8,2.15-4.8,4.8c0,0.88-0.72,1.6-1.6,1.6s-1.6-0.72-1.6-1.6
			c0-2.65-2.15-4.8-4.8-4.8c-0.88,0-1.6-0.72-1.6-1.6S196.72,178.4,197.6,178.4z"/>
	</g>
</g>
<g>
	<g>
		<circle class="st18" cx="186" cy="211" r="3"/>
	</g>
</g>
</svg>
