<?xml version="1.0" encoding="utf-8"?>
<!-- Generator: Adobe Illustrator 25.2.3, SVG Export Plug-In . SVG Version: 6.00 Build 0)  -->
<svg version="1.1" id="google-merchant-center" xmlns="http://www.w3.org/2000/svg" xmlns:xlink="http://www.w3.org/1999/xlink"
	 x="0px" y="0px" viewBox="0 0 400 400" style="enable-background:new 0 0 400 400;" xml:space="preserve">
<style type="text/css">
	.st0{fill-rule:evenodd;clip-rule:evenodd;fill:#3E82F1;}
	.st1{fill-rule:evenodd;clip-rule:evenodd;fill:#32A753;}
	.st2{fill-rule:evenodd;clip-rule:evenodd;fill:#F9BB00;}
	.st3{fill-rule:evenodd;clip-rule:evenodd;fill:#E74235;}
	.st4{fill:#515979;}
	.st5{fill:#FFFFFF;}
	.st6{fill:#667683;}
	.st7{fill:#EF7D7D;}
	.st8{fill:#FFE8A0;}
	.st9{fill:#7DDF96;}
	.st10{fill:#FDE1D9;}
	.st11{fill:#B4ECFB;}
	.st12{fill:#D8F5DF;}
	.st13{fill:#6ADAF7;}
	.st14{fill:#F89D81;}
	.st15{fill:#D26E78;}
	.st16{fill:#F4A4A4;}
</style>
<g>
	<g>
		<path class="st0" d="M148.5,85.79c0-3.26-0.29-6.39-0.83-9.39h-43.25v17.76h24.71c-1.06,5.74-4.3,10.6-9.16,13.86v11.52h14.84
			C143.49,111.55,148.5,99.78,148.5,85.79L148.5,85.79L148.5,85.79z M148.5,85.79"/>
	</g>
	<g>
		<path class="st1" d="M104.42,130.67c12.4,0,22.79-4.11,30.39-11.12l-14.84-11.52c-4.11,2.76-9.37,4.38-15.55,4.38
			c-11.96,0-22.08-8.08-25.69-18.93H63.38v11.9C70.94,120.38,86.47,130.67,104.42,130.67L104.42,130.67L104.42,130.67z
			 M104.42,130.67"/>
	</g>
	<g>
		<path class="st2" d="M78.72,93.47c-0.92-2.75-1.44-5.7-1.44-8.72c0-3.03,0.52-5.97,1.44-8.72v-11.9H63.38
			c-3.11,6.2-4.88,13.21-4.88,20.62s1.77,14.42,4.88,20.62L78.72,93.47L78.72,93.47L78.72,93.47z M78.72,93.47"/>
	</g>
	<g>
		<path class="st3" d="M104.42,57.09c6.74,0,12.79,2.32,17.55,6.87l13.17-13.17c-7.95-7.41-18.35-11.96-30.72-11.96
			c-17.95,0-33.48,10.29-41.03,25.3l15.34,11.9C82.34,65.17,92.46,57.09,104.42,57.09L104.42,57.09L104.42,57.09z M104.42,57.09"/>
	</g>
</g>
<g>
	<path class="st4" d="M103.5,151.25c-0.5,0-1-0.01-1.49-0.02c-0.83-0.02-1.48-0.7-1.47-1.53c0.02-0.83,0.68-1.5,1.53-1.47
		c1.63,0.03,3.29,0.01,4.91-0.08c0.82-0.05,1.53,0.59,1.58,1.42c0.04,0.83-0.59,1.53-1.42,1.58
		C105.94,151.22,104.72,151.25,103.5,151.25z M93.04,150.41c-0.08,0-0.16-0.01-0.24-0.02c-1.69-0.27-3.38-0.62-5.04-1.02
		c-0.8-0.2-1.3-1.01-1.1-1.81c0.2-0.8,1-1.3,1.81-1.1c1.58,0.38,3.2,0.71,4.81,0.97c0.82,0.13,1.37,0.9,1.24,1.72
		C94.4,149.89,93.76,150.41,93.04,150.41z M116.04,150.04c-0.7,0-1.33-0.5-1.47-1.21c-0.16-0.81,0.37-1.6,1.18-1.76
		c1.6-0.31,3.21-0.69,4.78-1.13c0.8-0.22,1.62,0.25,1.85,1.04c0.22,0.8-0.25,1.62-1.04,1.85c-1.64,0.46-3.32,0.85-5,1.18
		C116.23,150.03,116.14,150.04,116.04,150.04z M79.49,146.67c-0.18,0-0.37-0.03-0.55-0.11c-1.59-0.63-3.17-1.33-4.7-2.09
		c-0.74-0.37-1.05-1.26-0.69-2.01c0.37-0.74,1.26-1.05,2.01-0.69c1.46,0.72,2.98,1.39,4.49,1.99c0.77,0.31,1.15,1.18,0.84,1.95
		C80.65,146.31,80.08,146.67,79.49,146.67z M129.46,145.86c-0.58,0-1.13-0.34-1.38-0.9c-0.33-0.76,0.02-1.64,0.78-1.97
		c1.49-0.65,2.98-1.37,4.42-2.13c0.73-0.39,1.64-0.11,2.03,0.62c0.39,0.73,0.11,1.64-0.62,2.03c-1.5,0.8-3.06,1.55-4.63,2.24
		C129.86,145.82,129.66,145.86,129.46,145.86z M67.07,140.09c-0.29,0-0.58-0.08-0.84-0.26c-1.42-0.96-2.81-1.99-4.14-3.05
		c-0.65-0.52-0.75-1.46-0.24-2.11c0.52-0.65,1.46-0.75,2.11-0.24c1.27,1.01,2.6,1.99,3.96,2.91c0.69,0.47,0.86,1.4,0.4,2.08
		C68.02,139.86,67.55,140.09,67.07,140.09z M141.65,138.89c-0.46,0-0.92-0.21-1.22-0.62c-0.49-0.67-0.34-1.61,0.33-2.1
		c1.32-0.96,2.62-1.98,3.86-3.04c0.63-0.54,1.58-0.46,2.11,0.17c0.54,0.63,0.46,1.58-0.17,2.11c-1.3,1.11-2.66,2.18-4.04,3.18
		C142.26,138.79,141.95,138.89,141.65,138.89z M56.35,131c-0.4,0-0.79-0.16-1.09-0.47c-1.18-1.24-2.32-2.54-3.39-3.86
		c-0.52-0.64-0.42-1.59,0.22-2.11c0.64-0.52,1.59-0.43,2.11,0.22c1.03,1.26,2.12,2.51,3.24,3.69c0.57,0.6,0.55,1.55-0.06,2.12
		C57.1,130.86,56.72,131,56.35,131z M47.83,119.83c-0.51,0-1-0.26-1.29-0.72c-0.88-1.46-1.72-2.97-2.49-4.5
		c-0.37-0.74-0.07-1.64,0.67-2.01c0.74-0.37,1.64-0.08,2.01,0.67c0.73,1.45,1.53,2.9,2.37,4.29c0.43,0.71,0.2,1.63-0.51,2.06
		C48.37,119.76,48.1,119.83,47.83,119.83z M41.91,107.09c-0.63,0-1.21-0.39-1.42-1.02c-0.55-1.62-1.04-3.28-1.46-4.93
		c-0.2-0.8,0.28-1.62,1.09-1.82c0.8-0.2,1.62,0.28,1.82,1.09c0.4,1.58,0.87,3.16,1.39,4.71c0.27,0.78-0.16,1.64-0.94,1.9
		C42.23,107.06,42.07,107.09,41.91,107.09z M38.88,93.37c-0.76,0-1.41-0.57-1.49-1.34c-0.18-1.7-0.31-3.42-0.36-5.13
		c-0.03-0.83,0.62-1.52,1.45-1.55c0.84-0.03,1.52,0.62,1.55,1.45c0.05,1.63,0.17,3.28,0.34,4.9c0.09,0.82-0.51,1.56-1.33,1.65
		C38.99,93.37,38.94,93.37,38.88,93.37z M168.31,91.27c-0.04,0-0.08,0-0.12,0c-0.83-0.06-1.44-0.78-1.38-1.61
		c0.12-1.62,0.19-3.27,0.19-4.91l0-0.21c0-0.83,0.67-1.5,1.5-1.5s1.5,0.67,1.5,1.5l0,0.19c0,1.72-0.07,3.45-0.2,5.15
		C169.74,90.67,169.09,91.27,168.31,91.27z M38.87,79.32c-0.05,0-0.11,0-0.16-0.01c-0.82-0.09-1.42-0.83-1.33-1.65
		c0.18-1.7,0.43-3.41,0.74-5.09c0.15-0.81,0.94-1.35,1.75-1.2c0.81,0.15,1.35,0.93,1.2,1.75c-0.3,1.6-0.53,3.24-0.71,4.86
		C40.28,78.75,39.62,79.32,38.87,79.32z M167.85,77.03c-0.73,0-1.38-0.54-1.48-1.29c-0.23-1.61-0.52-3.24-0.88-4.83
		c-0.18-0.81,0.33-1.61,1.14-1.79c0.81-0.18,1.61,0.33,1.79,1.14c0.37,1.67,0.68,3.37,0.92,5.06c0.12,0.82-0.45,1.58-1.27,1.7
		C167.99,77.02,167.92,77.03,167.85,77.03z M41.85,65.59c-0.16,0-0.32-0.03-0.48-0.08c-0.79-0.26-1.21-1.11-0.95-1.9
		c0.54-1.62,1.16-3.24,1.82-4.81c0.32-0.76,1.21-1.12,1.97-0.8c0.76,0.32,1.12,1.2,0.8,1.97c-0.64,1.5-1.22,3.05-1.74,4.6
		C43.06,65.2,42.48,65.59,41.85,65.59z M164.38,63.41c-0.61,0-1.18-0.37-1.4-0.97c-0.57-1.52-1.21-3.05-1.9-4.52
		c-0.35-0.75-0.03-1.64,0.72-1.99c0.75-0.35,1.64-0.03,1.99,0.72c0.72,1.55,1.39,3.14,1.99,4.74c0.29,0.78-0.1,1.64-0.88,1.93
		C164.73,63.38,164.55,63.41,164.38,63.41z M47.74,52.83c-0.26,0-0.53-0.07-0.77-0.21c-0.71-0.43-0.94-1.35-0.51-2.06
		c0.88-1.46,1.83-2.91,2.82-4.3c0.48-0.67,1.42-0.83,2.09-0.35c0.67,0.48,0.83,1.42,0.35,2.09c-0.95,1.33-1.85,2.71-2.69,4.11
		C48.75,52.57,48.25,52.83,47.74,52.83z M158.05,50.88c-0.49,0-0.97-0.24-1.26-0.68c-0.89-1.36-1.84-2.71-2.83-4.01
		c-0.5-0.66-0.38-1.6,0.28-2.1c0.66-0.5,1.6-0.38,2.1,0.28c1.04,1.36,2.04,2.77,2.96,4.2c0.45,0.69,0.25,1.62-0.44,2.08
		C158.61,50.8,158.33,50.88,158.05,50.88z M56.23,41.63c-0.37,0-0.74-0.14-1.03-0.41c-0.6-0.57-0.63-1.52-0.06-2.12
		c1.17-1.24,2.41-2.46,3.67-3.6c0.61-0.56,1.56-0.51,2.12,0.1c0.56,0.61,0.51,1.56-0.1,2.12c-1.21,1.09-2.39,2.25-3.51,3.44
		C57.03,41.47,56.63,41.63,56.23,41.63z M149.17,39.99c-0.38,0-0.76-0.14-1.05-0.43c-1.16-1.15-2.38-2.26-3.63-3.31
		c-0.63-0.53-0.71-1.48-0.18-2.11c0.53-0.63,1.48-0.71,2.11-0.18c1.3,1.1,2.58,2.27,3.8,3.47c0.59,0.58,0.6,1.53,0.01,2.12
		C149.94,39.85,149.55,39.99,149.17,39.99z M66.92,32.51c-0.48,0-0.95-0.23-1.24-0.65c-0.47-0.68-0.29-1.62,0.39-2.08
		c1.41-0.96,2.88-1.88,4.36-2.73c0.72-0.41,1.64-0.16,2.05,0.55c0.41,0.72,0.16,1.64-0.55,2.05c-1.41,0.81-2.81,1.69-4.16,2.61
		C67.51,32.43,67.22,32.51,66.92,32.51z M138.16,31.25c-0.27,0-0.55-0.07-0.8-0.23c-1.38-0.87-2.81-1.7-4.25-2.46
		c-0.73-0.39-1.01-1.29-0.63-2.03c0.39-0.73,1.29-1.01,2.03-0.63c1.51,0.8,3.01,1.66,4.45,2.58c0.7,0.44,0.91,1.37,0.47,2.07
		C139.15,31.01,138.66,31.25,138.16,31.25z M79.31,25.9c-0.59,0-1.16-0.36-1.39-0.94c-0.31-0.77,0.06-1.64,0.83-1.95
		c1.58-0.63,3.21-1.22,4.84-1.73c0.79-0.25,1.63,0.19,1.88,0.98c0.25,0.79-0.19,1.63-0.98,1.88c-1.56,0.49-3.11,1.04-4.62,1.65
		C79.69,25.87,79.5,25.9,79.31,25.9z M125.53,25.08c-0.17,0-0.34-0.03-0.51-0.09c-1.53-0.55-3.11-1.05-4.68-1.48
		c-0.8-0.22-1.27-1.04-1.05-1.84c0.22-0.8,1.05-1.27,1.84-1.05c1.65,0.45,3.3,0.97,4.9,1.55c0.78,0.28,1.18,1.14,0.9,1.92
		C126.72,24.7,126.15,25.08,125.53,25.08z M92.84,22.12c-0.72,0-1.36-0.52-1.48-1.26c-0.13-0.82,0.42-1.59,1.24-1.72
		c1.68-0.28,3.4-0.49,5.1-0.64c0.82-0.06,1.55,0.54,1.62,1.37c0.07,0.83-0.54,1.55-1.37,1.62c-1.62,0.14-3.26,0.35-4.87,0.61
		C93,22.11,92.92,22.12,92.84,22.12z M111.88,21.78c-0.06,0-0.13,0-0.19-0.01c-1.61-0.21-3.26-0.36-4.89-0.44
		c-0.83-0.04-1.46-0.75-1.42-1.57c0.04-0.83,0.75-1.47,1.57-1.42c1.71,0.09,3.43,0.24,5.12,0.46c0.82,0.11,1.4,0.86,1.3,1.68
		C113.27,21.23,112.62,21.78,111.88,21.78z"/>
</g>
<g>
	<g>
		<g>
			<path class="st5" d="M166.5,305.75c-7.17,0-13-5.83-13-13v-180c0-7.17,5.83-13,13-13h200c7.17,0,13,5.83,13,13v180
				c0,7.17-5.83,13-13,13H166.5z"/>
		</g>
		<g>
			<path class="st4" d="M366.5,102.75c5.52,0,10,4.48,10,10v180c0,5.52-4.48,10-10,10h-200c-5.52,0-10-4.48-10-10v-180
				c0-5.52,4.48-10,10-10H366.5 M366.5,96.75h-200c-8.82,0-16,7.18-16,16v180c0,8.82,7.18,16,16,16h200c8.82,0,16-7.18,16-16v-180
				C382.5,103.93,375.32,96.75,366.5,96.75L366.5,96.75z"/>
		</g>
	</g>
	<g>
		<g>
			<path class="st6" d="M156.5,133.75c-1.66,0-3-1.34-3-3v-18c0-7.17,5.83-13,13-13h200c7.17,0,13,5.83,13,13v18c0,1.66-1.34,3-3,3
				H156.5z"/>
		</g>
		<g>
			<path class="st4" d="M366.5,102.75c5.52,0,10,4.48,10,10v18h-220v-18c0-5.52,4.48-10,10-10H366.5 M366.5,96.75h-200
				c-8.82,0-16,7.18-16,16v18c0,3.31,2.69,6,6,6h220c3.31,0,6-2.69,6-6v-18C382.5,103.93,375.32,96.75,366.5,96.75L366.5,96.75z"/>
		</g>
	</g>
	<g>
		<g>
			<path class="st5" d="M246.5,123.75c-3.86,0-7-3.14-7-7s3.14-7,7-7h114c3.86,0,7,3.14,7,7s-3.14,7-7,7H246.5z"/>
		</g>
		<g>
			<g>
				<path class="st4" d="M360.5,112.75c2.21,0,4,1.79,4,4s-1.79,4-4,4h-114c-2.21,0-4-1.79-4-4s1.79-4,4-4H360.5 M360.5,106.75h-114
					c-5.51,0-10,4.49-10,10s4.49,10,10,10h114c5.51,0,10-4.49,10-10S366.01,106.75,360.5,106.75L360.5,106.75z"/>
			</g>
		</g>
	</g>
	<g>
		<g>
			<circle class="st7" cx="172.5" cy="116.75" r="7"/>
		</g>
		<g>
			<g>
				<path class="st4" d="M172.5,112.75c2.21,0,4,1.79,4,4s-1.79,4-4,4s-4-1.79-4-4S170.29,112.75,172.5,112.75 M172.5,106.75
					c-5.51,0-10,4.49-10,10s4.49,10,10,10s10-4.49,10-10S178.01,106.75,172.5,106.75L172.5,106.75z"/>
			</g>
		</g>
	</g>
	<g>
		<g>
			<circle class="st8" cx="196.5" cy="116.75" r="7"/>
		</g>
		<g>
			<g>
				<path class="st4" d="M196.5,112.75c2.21,0,4,1.79,4,4s-1.79,4-4,4s-4-1.79-4-4S194.29,112.75,196.5,112.75 M196.5,106.75
					c-5.51,0-10,4.49-10,10s4.49,10,10,10s10-4.49,10-10S202.01,106.75,196.5,106.75L196.5,106.75z"/>
			</g>
		</g>
	</g>
	<g>
		<g>
			<circle class="st9" cx="220.5" cy="116.75" r="7"/>
		</g>
		<g>
			<g>
				<path class="st4" d="M220.5,112.75c2.21,0,4,1.79,4,4s-1.79,4-4,4s-4-1.79-4-4S218.29,112.75,220.5,112.75 M220.5,106.75
					c-5.51,0-10,4.49-10,10s4.49,10,10,10s10-4.49,10-10S226.01,106.75,220.5,106.75L220.5,106.75z"/>
			</g>
		</g>
	</g>
	<g>
		<g>
			<g>
				<g>
					<path class="st4" d="M288,173.35c-0.32,0-0.64-0.08-0.94-0.24c-1.89-1.02-5.21-1.02-7.11,0c-0.98,0.52-2.19,0.15-2.71-0.82
						c-0.52-0.97-0.16-2.19,0.82-2.71c3.05-1.64,7.84-1.64,10.89,0c0.97,0.52,1.34,1.73,0.82,2.71
						C289.4,172.97,288.71,173.35,288,173.35z"/>
				</g>
				<g>
					<g>
						<circle class="st4" cx="283.5" cy="162.6" r="8"/>
					</g>
					<g>
						<circle class="st5" cx="285.5" cy="162.6" r="2"/>
					</g>
				</g>
				<g>
					<path class="st4" d="M277.64,146.28c0.68-0.58,1.26-0.95,1.95-1.32c0.67-0.35,1.38-0.64,2.12-0.86
						c1.48-0.44,3.1-0.61,4.75-0.42c0.41,0.06,0.82,0.11,1.23,0.22c0.41,0.11,0.81,0.24,1.21,0.37c0.4,0.15,0.77,0.36,1.15,0.54
						c0.38,0.18,0.74,0.4,1.07,0.66c1.41,0.94,2.39,2.3,3.04,3.7c0.47,1.02,0.02,2.23-1,2.7c-0.58,0.27-1.22,0.24-1.75-0.02
						l-0.39-0.19c-1.05-0.52-1.87-1.06-2.74-1.36c-0.85-0.34-1.67-0.56-2.59-0.68c-0.91-0.13-1.88-0.16-2.93-0.11
						c-0.52,0.04-1.06,0.06-1.61,0.13c-0.53,0.03-1.16,0.15-1.62,0.15l-0.62,0c-1.1,0-1.99-0.9-1.99-2
						C276.94,147.19,277.22,146.65,277.64,146.28z"/>
				</g>
				<g>
					<path class="st4" d="M254,173.35c-0.32,0-0.64-0.08-0.94-0.24c-1.89-1.02-5.21-1.02-7.11,0c-0.98,0.52-2.19,0.15-2.71-0.82
						c-0.52-0.97-0.16-2.19,0.82-2.71c3.05-1.64,7.84-1.64,10.89,0c0.97,0.52,1.34,1.73,0.82,2.71
						C255.4,172.97,254.71,173.35,254,173.35z"/>
				</g>
				<g>
					<g>
						<circle class="st4" cx="249.5" cy="162.6" r="8"/>
					</g>
					<g>
						<circle class="st5" cx="251.5" cy="162.6" r="2"/>
					</g>
				</g>
				<g>
					<path class="st4" d="M253.46,149.8c-0.46,0-1.08-0.11-1.62-0.15c-0.55-0.07-1.09-0.09-1.61-0.13
						c-1.05-0.05-2.02-0.02-2.93,0.11c-0.91,0.12-1.74,0.34-2.59,0.68c-0.88,0.29-1.69,0.84-2.74,1.36l-0.38,0.19
						c-1.01,0.5-2.23,0.09-2.73-0.92c-0.28-0.57-0.27-1.22-0.03-1.76c0.64-1.4,1.63-2.76,3.04-3.7c0.33-0.26,0.69-0.49,1.07-0.66
						c0.38-0.18,0.75-0.4,1.15-0.54c0.4-0.13,0.8-0.26,1.21-0.37c0.41-0.11,0.82-0.15,1.23-0.22c1.65-0.19,3.27-0.03,4.75,0.42
						c0.74,0.21,1.45,0.51,2.12,0.86c0.69,0.37,1.26,0.73,1.95,1.32c0.84,0.72,0.94,1.98,0.22,2.81c-0.39,0.46-0.94,0.7-1.5,0.7
						L253.46,149.8z"/>
				</g>
			</g>
		</g>
		<g>
			<g>
				<circle class="st10" cx="225.5" cy="170.25" r="2.5"/>
			</g>
			<g>
				<circle class="st10" cx="231" cy="181.25" r="2.5"/>
			</g>
			<g>
				<circle class="st10" cx="220" cy="181.25" r="2.5"/>
			</g>
		</g>
		<g>
			<g>
				<circle class="st10" cx="307.5" cy="170.25" r="2.5"/>
			</g>
			<g>
				<circle class="st10" cx="313" cy="181.25" r="2.5"/>
			</g>
			<g>
				<circle class="st10" cx="302" cy="181.25" r="2.5"/>
			</g>
		</g>
		<g>
			<g>
				<g>
					<path class="st4" d="M266.5,202.25c-11.3,0-20.5-9.2-20.5-20.5c0-1.38,1.12-2.5,2.5-2.5h36c1.38,0,2.5,1.12,2.5,2.5
						C287,193.05,277.8,202.25,266.5,202.25z"/>
				</g>
				<g>
					<path class="st4" d="M284.5,181.75L284.5,181.75 M284.5,181.75c0,9.94-8.06,18-18,18s-18-8.06-18-18H284.5 M284.51,176.75
						L284.51,176.75H248.5c-2.76,0-5,2.24-5,5c0,12.68,10.32,23,23,23c12.62,0,22.9-10.22,23-22.82c0-0.06,0-0.12,0-0.18
						C289.5,178.99,287.27,176.75,284.51,176.75L284.51,176.75z M284.5,186.75L284.5,186.75L284.5,186.75L284.5,186.75z"/>
				</g>
			</g>
			<g>
				<g>
					<ellipse class="st7" cx="266.5" cy="193.75" rx="13.39" ry="6"/>
				</g>
			</g>
		</g>
	</g>
	<g>
		<circle class="st11" cx="272.5" cy="237.75" r="20"/>
	</g>
	<g>
		<g>
			<polygon class="st12" points="314.5,255.75 325.5,238.75 331.5,242.75 337.5,233.75 343.5,237.75 349.5,229.75 355.5,233.75 
				364.5,222.75 364.5,255.75 			"/>
		</g>
		<g>
			<path class="st9" d="M314.5,257.75c-0.37,0-0.75-0.1-1.08-0.32c-0.93-0.6-1.19-1.84-0.59-2.77l11-17
				c0.29-0.45,0.75-0.76,1.27-0.87c0.52-0.11,1.07,0,1.51,0.29l4.34,2.89l4.89-7.34c0.61-0.92,1.85-1.17,2.77-0.55l4.43,2.95
				l4.87-6.49c0.64-0.85,1.83-1.05,2.71-0.46l4.49,2.99l7.85-9.6c0.7-0.85,1.96-0.98,2.81-0.28c0.85,0.7,0.98,1.96,0.28,2.81l-9,11
				c-0.65,0.8-1.8,0.97-2.66,0.4l-4.43-2.95l-4.87,6.49c-0.64,0.85-1.83,1.05-2.71,0.46l-4.34-2.89l-4.89,7.34
				c-0.61,0.92-1.86,1.17-2.77,0.55l-4.31-2.88l-9.9,15.3C315.8,257.43,315.15,257.75,314.5,257.75z"/>
		</g>
		<g>
			<path class="st4" d="M314.5,252.25h-6c-0.83,0-1.5-0.67-1.5-1.5s0.67-1.5,1.5-1.5h6c0.83,0,1.5,0.67,1.5,1.5
				S315.33,252.25,314.5,252.25z"/>
		</g>
		<g>
			<path class="st4" d="M314.5,242.25h-6c-0.83,0-1.5-0.67-1.5-1.5s0.67-1.5,1.5-1.5h6c0.83,0,1.5,0.67,1.5,1.5
				S315.33,242.25,314.5,242.25z"/>
		</g>
		<g>
			<path class="st4" d="M314.5,232.25h-6c-0.83,0-1.5-0.67-1.5-1.5s0.67-1.5,1.5-1.5h6c0.83,0,1.5,0.67,1.5,1.5
				S315.33,232.25,314.5,232.25z"/>
		</g>
		<g>
			<path class="st4" d="M314.5,222.25h-6c-0.83,0-1.5-0.67-1.5-1.5s0.67-1.5,1.5-1.5h6c0.83,0,1.5,0.67,1.5,1.5
				S315.33,222.25,314.5,222.25z"/>
		</g>
		<g>
			<path class="st4" d="M359.5,263.25c-0.83,0-1.5-0.67-1.5-1.5v-6c0-0.83,0.67-1.5,1.5-1.5s1.5,0.67,1.5,1.5v6
				C361,262.58,360.33,263.25,359.5,263.25z"/>
		</g>
		<g>
			<path class="st4" d="M349.5,263.25c-0.83,0-1.5-0.67-1.5-1.5v-6c0-0.83,0.67-1.5,1.5-1.5s1.5,0.67,1.5,1.5v6
				C351,262.58,350.33,263.25,349.5,263.25z"/>
		</g>
		<g>
			<path class="st4" d="M339.5,263.25c-0.83,0-1.5-0.67-1.5-1.5v-6c0-0.83,0.67-1.5,1.5-1.5s1.5,0.67,1.5,1.5v6
				C341,262.58,340.33,263.25,339.5,263.25z"/>
		</g>
		<g>
			<path class="st4" d="M329.5,263.25c-0.83,0-1.5-0.67-1.5-1.5v-6c0-0.83,0.67-1.5,1.5-1.5s1.5,0.67,1.5,1.5v6
				C331,262.58,330.33,263.25,329.5,263.25z"/>
		</g>
		<g>
			<path class="st4" d="M319.5,263.25c-0.83,0-1.5-0.67-1.5-1.5v-6c0-0.83,0.67-1.5,1.5-1.5s1.5,0.67,1.5,1.5v6
				C321,262.58,320.33,263.25,319.5,263.25z"/>
		</g>
		<g>
			<path class="st4" d="M364.5,257.75h-50c-1.1,0-2-0.9-2-2v-40c0-1.1,0.9-2,2-2s2,0.9,2,2v38h48c1.1,0,2,0.9,2,2
				S365.6,257.75,364.5,257.75z"/>
		</g>
		<g>
			<path class="st4" d="M360.5,275.75h-36c-1.1,0-2-0.9-2-2l0,0c0-1.1,0.9-2,2-2h36c1.1,0,2,0.9,2,2l0,0
				C362.5,274.85,361.6,275.75,360.5,275.75z"/>
		</g>
		<g>
			<circle class="st9" cx="315.5" cy="273.75" r="3"/>
		</g>
		<g>
			<path class="st4" d="M346.5,283.75h-22c-1.1,0-2-0.9-2-2l0,0c0-1.1,0.9-2,2-2h22c1.1,0,2,0.9,2,2l0,0
				C348.5,282.85,347.6,283.75,346.5,283.75z"/>
		</g>
	</g>
	<g>
		<path class="st4" d="M292.5,275.75h-30c-1.1,0-2-0.9-2-2l0,0c0-1.1,0.9-2,2-2h30c1.1,0,2,0.9,2,2l0,0
			C294.5,274.85,293.6,275.75,292.5,275.75z"/>
	</g>
	<g>
		<circle class="st13" cx="253.5" cy="273.75" r="3"/>
	</g>
	<g>
		<path class="st4" d="M282.5,283.75h-20c-1.1,0-2-0.9-2-2l0,0c0-1.1,0.9-2,2-2h20c1.1,0,2,0.9,2,2l0,0
			C284.5,282.85,283.6,283.75,282.5,283.75z"/>
	</g>
	<g>
		<circle class="st11" cx="253.5" cy="281.75" r="3"/>
	</g>
	<g>
		<g>
			<path class="st4" d="M173.5,246.25h-6c-0.83,0-1.5-0.67-1.5-1.5s0.67-1.5,1.5-1.5h6c0.83,0,1.5,0.67,1.5,1.5
				S174.33,246.25,173.5,246.25z"/>
		</g>
		<g>
			<path class="st4" d="M173.5,234.25h-6c-0.83,0-1.5-0.67-1.5-1.5s0.67-1.5,1.5-1.5h6c0.83,0,1.5,0.67,1.5,1.5
				S174.33,234.25,173.5,234.25z"/>
		</g>
		<g>
			<path class="st4" d="M173.5,222.25h-6c-0.83,0-1.5-0.67-1.5-1.5s0.67-1.5,1.5-1.5h6c0.83,0,1.5,0.67,1.5,1.5
				S174.33,222.25,173.5,222.25z"/>
		</g>
		<g>
			<path class="st4" d="M199.5,263.25c-0.83,0-1.5-0.67-1.5-1.5v-6c0-0.83,0.67-1.5,1.5-1.5s1.5,0.67,1.5,1.5v6
				C201,262.58,200.33,263.25,199.5,263.25z"/>
		</g>
		<g>
			<path class="st4" d="M184.5,263.25c-0.83,0-1.5-0.67-1.5-1.5v-6c0-0.83,0.67-1.5,1.5-1.5s1.5,0.67,1.5,1.5v6
				C186,262.58,185.33,263.25,184.5,263.25z"/>
		</g>
		<g>
			<path class="st4" d="M219.5,275.75h-36c-1.1,0-2-0.9-2-2l0,0c0-1.1,0.9-2,2-2h36c1.1,0,2,0.9,2,2l0,0
				C221.5,274.85,220.6,275.75,219.5,275.75z"/>
		</g>
		<g>
			<circle class="st8" cx="174.5" cy="273.75" r="3"/>
		</g>
		<g>
			<path class="st4" d="M199.5,283.75h-16c-1.1,0-2-0.9-2-2l0,0c0-1.1,0.9-2,2-2h16c1.1,0,2,0.9,2,2l0,0
				C201.5,282.85,200.6,283.75,199.5,283.75z"/>
		</g>
		<g>
			<circle class="st14" cx="174.5" cy="281.75" r="3"/>
		</g>
		<g>
			<rect x="178.5" y="231.75" class="st8" width="6" height="24"/>
		</g>
		<g>
			<rect x="184.5" y="219.75" class="st14" width="6" height="36"/>
		</g>
		<g>
			<rect x="193.5" y="225.75" class="st8" width="6" height="30"/>
		</g>
		<g>
			<rect x="199.5" y="239.75" class="st14" width="6" height="16"/>
		</g>
		<g>
			<path class="st4" d="M214.5,263.25c-0.83,0-1.5-0.67-1.5-1.5v-6c0-0.83,0.67-1.5,1.5-1.5s1.5,0.67,1.5,1.5v6
				C216,262.58,215.33,263.25,214.5,263.25z"/>
		</g>
		<g>
			<rect x="208.5" y="233.75" class="st8" width="6" height="22"/>
		</g>
		<g>
			<rect x="214.5" y="229.75" class="st14" width="6" height="26"/>
		</g>
		<g>
			<path class="st4" d="M229.5,263.25c-0.83,0-1.5-0.67-1.5-1.5v-6c0-0.83,0.67-1.5,1.5-1.5s1.5,0.67,1.5,1.5v6
				C231,262.58,230.33,263.25,229.5,263.25z"/>
		</g>
		<g>
			<rect x="223.5" y="217.75" class="st8" width="6" height="38"/>
		</g>
		<g>
			<rect x="229.5" y="223.75" class="st14" width="6" height="32"/>
		</g>
		<g>
			<path class="st4" d="M238.5,257.75h-65c-1.1,0-2-0.9-2-2v-40c0-1.1,0.9-2,2-2s2,0.9,2,2v38h63c1.1,0,2,0.9,2,2
				S239.6,257.75,238.5,257.75z"/>
		</g>
	</g>
	<g>
		<path class="st13" d="M272.5,214.75v23h23C295.5,225.05,285.2,214.75,272.5,214.75z"/>
	</g>
</g>
<g>
	<g>
		<g>
			<g>
				<path class="st7" d="M51.8,379.75c-4.53,0-8.37-3.39-8.93-7.88l-9.34-74.74c-0.11-0.85,0.16-1.71,0.73-2.36
					c0.57-0.65,1.39-1.01,2.25-1.01h166c0.86,0,1.68,0.37,2.25,1.01c0.57,0.64,0.83,1.5,0.73,2.36l-9.34,74.74
					c-0.56,4.49-4.4,7.88-8.93,7.88H51.8z M164.5,356.81c0.03,3.83,3.16,6.94,7,6.94c3.86,0,7-3.14,7-7c0-0.05,0-0.09,0-0.14
					l2-43.93c-0.03-3.83-3.16-6.94-7-6.94c-3.86,0-7,3.14-7,7c0,0.05,0,0.09,0,0.14L164.5,356.81z M139.5,305.75c-3.86,0-7,3.14-7,7
					l-1,44.07c0,3.79,3.14,6.93,7,6.93s7-3.14,7-7l1-44.07C146.5,308.89,143.36,305.75,139.5,305.75z M99.5,305.75
					c-3.86,0-7,3.14-7,7l1,43.93c0,3.93,3.14,7.07,7,7.07s7-3.14,7-7l-1-43.93C106.5,308.89,103.36,305.75,99.5,305.75z
					 M60.5,356.61c0,0.04,0,0.09,0,0.14c0,3.86,3.14,7,7,7c3.84,0,6.97-3.11,7-6.94l-2-43.93c0-0.04,0-0.09,0-0.14
					c0-3.86-3.14-7-7-7c-3.84,0-6.97,3.11-7,6.94L60.5,356.61z"/>
			</g>
		</g>
		<g>
			<g>
				<path class="st4" d="M202.5,296.75L202.5,296.75 M202.5,296.75l-9.34,74.74c-0.38,3-2.93,5.26-5.95,5.26H51.8
					c-3.03,0-5.58-2.25-5.95-5.26l-9.34-74.74H202.5 M171.5,366.75c5.52,0,10-4.48,10-10l2-44c0-5.52-4.48-10-10-10s-10,4.48-10,10
					l-2,44C161.5,362.27,165.98,366.75,171.5,366.75 M138.5,366.75c5.52,0,10-4.48,10-10l1-44c0-5.52-4.48-10-10-10s-10,4.48-10,10
					l-1,44C128.5,362.27,132.98,366.75,138.5,366.75 M100.5,366.75c5.52,0,10-4.48,10-10l-1-44c0-5.52-4.48-10-10-10s-10,4.48-10,10
					l1,44C90.5,362.27,94.98,366.75,100.5,366.75 M67.5,366.75c5.52,0,10-4.48,10-10l-2-44c0-5.52-4.48-10-10-10s-10,4.48-10,10
					l2,44C57.5,362.27,61.98,366.75,67.5,366.75 M202.51,290.75L202.51,290.75H36.5c-1.72,0-3.36,0.74-4.5,2.03
					c-1.14,1.29-1.67,3.01-1.46,4.72l9.34,74.74c0.75,5.99,5.87,10.51,11.91,10.51H187.2c6.04,0,11.16-4.52,11.91-10.51l9.32-74.55
					c0.05-0.31,0.07-0.62,0.07-0.94C208.5,293.44,205.82,290.75,202.51,290.75L202.51,290.75z M202.5,302.75L202.5,302.75
					L202.5,302.75L202.5,302.75z M167.5,356.86l1.99-43.83c0-0.09,0.01-0.18,0.01-0.27c0-2.21,1.79-4,4-4c2.17,0,3.94,1.74,4,3.89
					l-1.99,43.83c0,0.09-0.01,0.18-0.01,0.27c0,2.21-1.79,4-4,4C169.33,360.75,167.56,359.01,167.5,356.86L167.5,356.86z
					 M134.5,356.8l1-43.92c0-0.05,0-0.09,0-0.14c0-2.21,1.79-4,4-4c2.19,0,3.97,1.77,4,3.95l-1,43.92c0,0.05,0,0.09,0,0.14
					c0,2.21-1.79,4-4,4C136.31,360.75,134.53,358.98,134.5,356.8L134.5,356.8z M95.5,312.7c0.03-2.18,1.81-3.95,4-3.95
					c2.21,0,4,1.79,4,4c0,0.05,0,0.09,0,0.14l1,43.92c-0.03,2.18-1.81,3.95-4,3.95c-2.21,0-4-1.79-4-4c0-0.05,0-0.09,0-0.14
					L95.5,312.7L95.5,312.7z M61.5,312.64c0.06-2.16,1.83-3.89,4-3.89c2.21,0,4,1.79,4,4c0,0.09,0,0.18,0.01,0.27l1.99,43.83
					c-0.06,2.16-1.83,3.89-4,3.89c-2.21,0-4-1.79-4-4c0-0.09,0-0.18-0.01-0.27L61.5,312.64L61.5,312.64z"/>
			</g>
		</g>
	</g>
	<g>
		<path class="st15" d="M36.5,296.75l1.5,12h18.34c1.54-3.53,5.06-6,9.16-6s7.62,2.47,9.16,6h15.68c1.54-3.53,5.06-6,9.16-6
			s7.62,2.47,9.16,6h21.68c1.54-3.53,5.06-6,9.16-6s7.62,2.47,9.16,6h15.68c1.54-3.53,5.06-6,9.16-6s7.62,2.47,9.16,6H201l1.5-12
			H36.5z"/>
	</g>
	<g>
		<path class="st4" d="M189.5,277.75h-140c-1.21,0-2.31-0.73-2.77-1.85s-0.21-2.41,0.65-3.27l70-70c1.17-1.17,3.07-1.17,4.24,0
			l70,70c0.86,0.86,1.11,2.15,0.65,3.27S190.71,277.75,189.5,277.75z M56.74,271.75h125.51l-62.76-62.76L56.74,271.75z"/>
	</g>
	<g>
		<g>
			<path class="st7" d="M24.5,293.75c-1.66,0-3-1.34-3-3v-4c0-8.27,6.73-15,15-15h166c8.27,0,15,6.73,15,15v4c0,1.66-1.34,3-3,3
				H24.5z"/>
		</g>
		<g>
			<g>
				<path class="st4" d="M202.5,274.75c6.63,0,12,5.37,12,12v4h-190v-4c0-6.63,5.37-12,12-12H202.5 M202.5,268.75h-166
					c-9.93,0-18,8.07-18,18v4c0,3.31,2.69,6,6,6h190c3.31,0,6-2.69,6-6v-4C220.5,276.82,212.43,268.75,202.5,268.75L202.5,268.75z"
					/>
			</g>
		</g>
	</g>
	<g>
		<path class="st16" d="M202.5,274.75h-166c-3.55,0-6.73,1.55-8.93,4h183.86C209.23,276.3,206.05,274.75,202.5,274.75z"/>
	</g>
	<g>
		<g>
			<circle class="st7" cx="119.5" cy="204.75" r="9"/>
		</g>
		<g>
			<g>
				<path class="st4" d="M119.5,198.75c3.31,0,6,2.69,6,6s-2.69,6-6,6s-6-2.69-6-6S116.19,198.75,119.5,198.75 M119.5,192.75
					c-6.62,0-12,5.38-12,12s5.38,12,12,12s12-5.38,12-12S126.12,192.75,119.5,192.75L119.5,192.75z"/>
			</g>
		</g>
	</g>
</g>
</svg>
