<?xml version="1.0" encoding="utf-8"?>
<!-- Generator: Adobe Illustrator 26.0.1, SVG Export Plug-In . SVG Version: 6.00 Build 0)  -->
<svg version="1.1" id="Facebook_x5F_Hub-Facebook_x5F_Ads_x5F_Statistics"
	 xmlns="http://www.w3.org/2000/svg" xmlns:xlink="http://www.w3.org/1999/xlink" x="0px" y="0px" viewBox="0 0 400 400"
	 style="enable-background:new 0 0 400 400;" xml:space="preserve">
<style type="text/css">
	.st0{fill:#1877F2;}
	.st1{fill:#FFFFFF;}
	.st2{fill:#515979;}
	.st3{fill:#667683;}
	.st4{fill:#EF7D7D;}
	.st5{fill:#FFE8A0;}
	.st6{fill:#7DDF96;}
	.st7{fill:#FDE1D9;}
	.st8{fill:#B4ECFB;}
	.st9{fill:#D8F5DF;}
	.st10{fill:#6ADAF7;}
	.st11{fill:#F89D81;}
	.st12{fill:none;}
	.st13{fill:#FFD886;}
</style>
<g>
	<path class="st0" d="M91.28,232c-44.18,0-80,35.82-80,80c0,39.93,29.25,73.03,67.5,79.03l0-55.9l-20.31,0l0-23.12l20.31,0l0-17.62
		c0-20.05,11.94-31.12,30.22-31.12c8.75,0,17.91,1.56,17.91,1.56l0,19.69h-10.09c-9.94,0-13.04,6.17-13.04,12.49l0,15.01h22.19
		l-3.55,23.12h-18.64l0,55.9c38.25-6,67.5-39.1,67.5-79.03C171.28,267.81,135.46,232,91.28,232z"/>
</g>
<g>
	<g>
		<path class="st1" d="M164.21,221.37c-7.17,0-13-5.83-13-13v-180c0-7.17,5.83-13,13-13h200c7.17,0,13,5.83,13,13v180
			c0,7.17-5.83,13-13,13H164.21z"/>
	</g>
	<g>
		<path class="st2" d="M364.21,18.37c5.52,0,10,4.48,10,10v180c0,5.52-4.48,10-10,10h-200c-5.52,0-10-4.48-10-10v-180
			c0-5.52,4.48-10,10-10H364.21 M364.21,12.37h-200c-8.82,0-16,7.18-16,16v180c0,8.82,7.18,16,16,16h200c8.82,0,16-7.18,16-16v-180
			C380.21,19.55,373.03,12.37,364.21,12.37L364.21,12.37z"/>
	</g>
</g>
<g>
	<g>
		<path class="st3" d="M154.21,49.37c-1.66,0-3-1.34-3-3v-18c0-7.17,5.83-13,13-13h200c7.17,0,13,5.83,13,13v18c0,1.66-1.34,3-3,3
			H154.21z"/>
	</g>
	<g>
		<path class="st2" d="M364.21,18.37c5.52,0,10,4.48,10,10v18h-220v-18c0-5.52,4.48-10,10-10H364.21 M364.21,12.37h-200
			c-8.82,0-16,7.18-16,16v18c0,3.31,2.69,6,6,6h220c3.31,0,6-2.69,6-6v-18C380.21,19.55,373.03,12.37,364.21,12.37L364.21,12.37z"/>
	</g>
</g>
<g>
	<g>
		<path class="st1" d="M244.21,39.37c-3.86,0-7-3.14-7-7s3.14-7,7-7h114c3.86,0,7,3.14,7,7s-3.14,7-7,7H244.21z"/>
	</g>
	<g>
		<g>
			<path class="st2" d="M358.21,28.37c2.21,0,4,1.79,4,4s-1.79,4-4,4h-114c-2.21,0-4-1.79-4-4s1.79-4,4-4H358.21 M358.21,22.37h-114
				c-5.51,0-10,4.49-10,10s4.49,10,10,10h114c5.51,0,10-4.49,10-10S363.72,22.37,358.21,22.37L358.21,22.37z"/>
		</g>
	</g>
</g>
<g>
	<g>
		<circle class="st4" cx="170.21" cy="32.37" r="7"/>
	</g>
	<g>
		<g>
			<path class="st2" d="M170.21,28.37c2.21,0,4,1.79,4,4s-1.79,4-4,4s-4-1.79-4-4S168,28.37,170.21,28.37 M170.21,22.37
				c-5.51,0-10,4.49-10,10s4.49,10,10,10c5.51,0,10-4.49,10-10S175.72,22.37,170.21,22.37L170.21,22.37z"/>
		</g>
	</g>
</g>
<g>
	<g>
		<circle class="st5" cx="194.21" cy="32.37" r="7"/>
	</g>
	<g>
		<g>
			<path class="st2" d="M194.21,28.37c2.21,0,4,1.79,4,4s-1.79,4-4,4c-2.21,0-4-1.79-4-4S192,28.37,194.21,28.37 M194.21,22.37
				c-5.51,0-10,4.49-10,10s4.49,10,10,10c5.51,0,10-4.49,10-10S199.72,22.37,194.21,22.37L194.21,22.37z"/>
		</g>
	</g>
</g>
<g>
	<g>
		<circle class="st6" cx="218.21" cy="32.37" r="7"/>
	</g>
	<g>
		<g>
			<path class="st2" d="M218.21,28.37c2.21,0,4,1.79,4,4s-1.79,4-4,4s-4-1.79-4-4S216,28.37,218.21,28.37 M218.21,22.37
				c-5.51,0-10,4.49-10,10s4.49,10,10,10c5.51,0,10-4.49,10-10S223.72,22.37,218.21,22.37L218.21,22.37z"/>
		</g>
	</g>
</g>
<g>
	<g>
		<g>
			<g>
				<path class="st2" d="M285.71,88.97c-0.32,0-0.64-0.08-0.94-0.24c-1.89-1.02-5.21-1.02-7.11,0c-0.97,0.52-2.18,0.16-2.71-0.82
					c-0.52-0.97-0.16-2.19,0.82-2.71c3.05-1.64,7.84-1.64,10.89,0c0.97,0.52,1.34,1.73,0.82,2.71
					C287.11,88.59,286.42,88.97,285.71,88.97z"/>
			</g>
			<g>
				<g>
					<circle class="st2" cx="281.21" cy="78.22" r="8"/>
				</g>
				<g>
					<circle class="st1" cx="283.21" cy="78.22" r="2"/>
				</g>
			</g>
			<g>
				<path class="st2" d="M275.35,61.9c3.68-3.11,9.5-3.68,13.48-0.8c1.83,1.3,4.9,4.78,2.04,6.4c-0.73,0.35-1.49,0.16-2.13-0.21
					c-3.12-1.93-6.26-2.5-9.86-2.01c-0.77,0.07-1.51,0.18-2.23,0.14C274.81,65.45,273.95,63.04,275.35,61.9L275.35,61.9z"/>
			</g>
			<g>
				<path class="st2" d="M251.71,88.97c-0.32,0-0.64-0.08-0.94-0.24c-1.89-1.02-5.21-1.02-7.11,0c-0.97,0.52-2.18,0.16-2.71-0.82
					c-0.52-0.97-0.16-2.19,0.82-2.71c3.05-1.64,7.84-1.64,10.89,0c0.97,0.52,1.34,1.73,0.82,2.71
					C253.11,88.59,252.42,88.97,251.71,88.97z"/>
			</g>
			<g>
				<g>
					<circle class="st2" cx="247.21" cy="78.22" r="8"/>
				</g>
				<g>
					<circle class="st1" cx="249.21" cy="78.22" r="2"/>
				</g>
			</g>
			<g>
				<path class="st2" d="M251.17,65.42c-2.9-0.28-6.02-0.65-8.74,0.51c-0.95,0.32-2.01,1.02-3.12,1.54c-1.68,0.88-3.57-1-2.75-2.68
					c1.9-4.63,7.88-6.6,12.45-5.07c1.95,0.65,6.2,2.34,4.3,4.99C252.76,65.38,251.93,65.46,251.17,65.42L251.17,65.42z"/>
			</g>
		</g>
	</g>
	<g>
		<g>
			<circle class="st7" cx="223.21" cy="85.87" r="2.5"/>
		</g>
		<g>
			<circle class="st7" cx="228.71" cy="96.87" r="2.5"/>
		</g>
		<g>
			<circle class="st7" cx="217.71" cy="96.87" r="2.5"/>
		</g>
	</g>
	<g>
		<g>
			<circle class="st7" cx="305.21" cy="85.87" r="2.5"/>
		</g>
		<g>
			<circle class="st7" cx="310.71" cy="96.87" r="2.5"/>
		</g>
		<g>
			<circle class="st7" cx="299.71" cy="96.87" r="2.5"/>
		</g>
	</g>
	<g>
		<path class="st2" d="M282.21,92.37L282.21,92.37h-36.01c-2.76,0-5,2.24-5,5c0,12.68,10.32,23,23,23c12.62,0,22.9-10.22,23-22.82
			c0-0.06,0-0.12,0-0.18C287.21,94.61,284.97,92.37,282.21,92.37z"/>
		<g>
			<g>
				<ellipse class="st4" cx="264.21" cy="109.37" rx="13.39" ry="6"/>
			</g>
		</g>
	</g>
</g>
<g>
	<circle class="st8" cx="270.21" cy="153.37" r="20"/>
</g>
<g>
	<g>
		<polygon class="st9" points="312.21,171.37 323.21,154.37 329.21,158.37 335.21,149.37 341.21,153.37 347.21,145.37 
			353.21,149.37 362.21,138.37 362.21,171.37 		"/>
	</g>
	<g>
		<path class="st6" d="M312.21,173.37c-0.37,0-0.75-0.1-1.08-0.32c-0.93-0.6-1.19-1.84-0.59-2.77l11-17
			c0.29-0.45,0.75-0.76,1.27-0.87c0.52-0.11,1.07,0,1.51,0.29l4.34,2.89l4.89-7.34c0.61-0.92,1.85-1.17,2.77-0.55l4.43,2.95
			l4.87-6.49c0.64-0.85,1.83-1.05,2.71-0.46l4.49,2.99l7.85-9.6c0.7-0.85,1.96-0.98,2.81-0.28c0.85,0.7,0.98,1.96,0.28,2.81l-9,11
			c-0.65,0.8-1.8,0.97-2.66,0.4l-4.43-2.95l-4.87,6.49c-0.64,0.85-1.83,1.05-2.71,0.46l-4.34-2.89l-4.89,7.34
			c-0.61,0.92-1.86,1.17-2.77,0.55l-4.31-2.88l-9.9,15.3C313.5,173.05,312.86,173.37,312.21,173.37z"/>
	</g>
	<g>
		<path class="st2" d="M312.21,167.87h-6c-0.83,0-1.5-0.67-1.5-1.5s0.67-1.5,1.5-1.5h6c0.83,0,1.5,0.67,1.5,1.5
			S313.04,167.87,312.21,167.87z"/>
	</g>
	<g>
		<path class="st2" d="M312.21,157.87h-6c-0.83,0-1.5-0.67-1.5-1.5s0.67-1.5,1.5-1.5h6c0.83,0,1.5,0.67,1.5,1.5
			S313.04,157.87,312.21,157.87z"/>
	</g>
	<g>
		<path class="st2" d="M312.21,147.87h-6c-0.83,0-1.5-0.67-1.5-1.5s0.67-1.5,1.5-1.5h6c0.83,0,1.5,0.67,1.5,1.5
			S313.04,147.87,312.21,147.87z"/>
	</g>
	<g>
		<path class="st2" d="M312.21,137.87h-6c-0.83,0-1.5-0.67-1.5-1.5s0.67-1.5,1.5-1.5h6c0.83,0,1.5,0.67,1.5,1.5
			S313.04,137.87,312.21,137.87z"/>
	</g>
	<g>
		<path class="st2" d="M357.21,178.87c-0.83,0-1.5-0.67-1.5-1.5v-6c0-0.83,0.67-1.5,1.5-1.5s1.5,0.67,1.5,1.5v6
			C358.71,178.2,358.04,178.87,357.21,178.87z"/>
	</g>
	<g>
		<path class="st2" d="M347.21,178.87c-0.83,0-1.5-0.67-1.5-1.5v-6c0-0.83,0.67-1.5,1.5-1.5s1.5,0.67,1.5,1.5v6
			C348.71,178.2,348.04,178.87,347.21,178.87z"/>
	</g>
	<g>
		<path class="st2" d="M337.21,178.87c-0.83,0-1.5-0.67-1.5-1.5v-6c0-0.83,0.67-1.5,1.5-1.5s1.5,0.67,1.5,1.5v6
			C338.71,178.2,338.04,178.87,337.21,178.87z"/>
	</g>
	<g>
		<path class="st2" d="M327.21,178.87c-0.83,0-1.5-0.67-1.5-1.5v-6c0-0.83,0.67-1.5,1.5-1.5s1.5,0.67,1.5,1.5v6
			C328.71,178.2,328.04,178.87,327.21,178.87z"/>
	</g>
	<g>
		<path class="st2" d="M317.21,178.87c-0.83,0-1.5-0.67-1.5-1.5v-6c0-0.83,0.67-1.5,1.5-1.5s1.5,0.67,1.5,1.5v6
			C318.71,178.2,318.04,178.87,317.21,178.87z"/>
	</g>
	<g>
		<path class="st2" d="M362.21,173.37h-50c-1.1,0-2-0.9-2-2v-40c0-1.1,0.9-2,2-2s2,0.9,2,2v38h48c1.1,0,2,0.9,2,2
			S363.31,173.37,362.21,173.37z"/>
	</g>
	<g>
		<path class="st2" d="M358.21,191.37h-36c-1.1,0-2-0.9-2-2l0,0c0-1.1,0.9-2,2-2h36c1.1,0,2,0.9,2,2l0,0
			C360.21,190.48,359.31,191.37,358.21,191.37z"/>
	</g>
	<g>
		<circle class="st6" cx="313.21" cy="189.37" r="3"/>
	</g>
	<g>
		<path class="st2" d="M344.21,199.37h-22c-1.1,0-2-0.9-2-2l0,0c0-1.1,0.9-2,2-2h22c1.1,0,2,0.9,2,2l0,0
			C346.21,198.48,345.31,199.37,344.21,199.37z"/>
	</g>
</g>
<g>
	<path class="st2" d="M290.21,191.37h-30c-1.1,0-2-0.9-2-2l0,0c0-1.1,0.9-2,2-2h30c1.1,0,2,0.9,2,2l0,0
		C292.21,190.48,291.31,191.37,290.21,191.37z"/>
</g>
<g>
	<circle class="st10" cx="281.21" cy="149.37" r="3"/>
</g>
<g>
	<path class="st2" d="M280.21,199.37h-20c-1.1,0-2-0.9-2-2l0,0c0-1.1,0.9-2,2-2h20c1.1,0,2,0.9,2,2l0,0
		C282.21,198.48,281.31,199.37,280.21,199.37z"/>
</g>
<g>
	<circle class="st8" cx="251.21" cy="197.37" r="3"/>
</g>
<g>
	<g>
		<path class="st2" d="M171.21,161.87h-6c-0.83,0-1.5-0.67-1.5-1.5s0.67-1.5,1.5-1.5h6c0.83,0,1.5,0.67,1.5,1.5
			S172.04,161.87,171.21,161.87z"/>
	</g>
	<g>
		<path class="st2" d="M171.21,149.87h-6c-0.83,0-1.5-0.67-1.5-1.5s0.67-1.5,1.5-1.5h6c0.83,0,1.5,0.67,1.5,1.5
			S172.04,149.87,171.21,149.87z"/>
	</g>
	<g>
		<path class="st2" d="M171.21,137.87h-6c-0.83,0-1.5-0.67-1.5-1.5s0.67-1.5,1.5-1.5h6c0.83,0,1.5,0.67,1.5,1.5
			S172.04,137.87,171.21,137.87z"/>
	</g>
	<g>
		<path class="st2" d="M197.21,178.87c-0.83,0-1.5-0.67-1.5-1.5v-6c0-0.83,0.67-1.5,1.5-1.5s1.5,0.67,1.5,1.5v6
			C198.71,178.2,198.04,178.87,197.21,178.87z"/>
	</g>
	<g>
		<path class="st2" d="M182.21,178.87c-0.83,0-1.5-0.67-1.5-1.5v-6c0-0.83,0.67-1.5,1.5-1.5s1.5,0.67,1.5,1.5v6
			C183.71,178.2,183.04,178.87,182.21,178.87z"/>
	</g>
	<g>
		<path class="st2" d="M217.21,191.37h-36c-1.1,0-2-0.9-2-2l0,0c0-1.1,0.9-2,2-2h36c1.1,0,2,0.9,2,2l0,0
			C219.21,190.48,218.31,191.37,217.21,191.37z"/>
	</g>
	<g>
		<circle class="st5" cx="172.21" cy="189.37" r="3"/>
	</g>
	<g>
		<path class="st2" d="M197.21,199.37h-16c-1.1,0-2-0.9-2-2l0,0c0-1.1,0.9-2,2-2h16c1.1,0,2,0.9,2,2l0,0
			C199.21,198.48,198.31,199.37,197.21,199.37z"/>
	</g>
	<g>
		<circle class="st11" cx="172.21" cy="197.37" r="3"/>
	</g>
	<g>
		<rect x="176.21" y="147.37" class="st5" width="6" height="24"/>
	</g>
	<g>
		<rect x="182.21" y="135.37" class="st11" width="6" height="36"/>
	</g>
	<g>
		<rect x="191.21" y="141.37" class="st5" width="6" height="30"/>
	</g>
	<g>
		<rect x="197.21" y="155.37" class="st11" width="6" height="16"/>
	</g>
	<g>
		<path class="st2" d="M212.21,178.87c-0.83,0-1.5-0.67-1.5-1.5v-6c0-0.83,0.67-1.5,1.5-1.5s1.5,0.67,1.5,1.5v6
			C213.71,178.2,213.04,178.87,212.21,178.87z"/>
	</g>
	<g>
		<rect x="206.21" y="149.37" class="st5" width="6" height="22"/>
	</g>
	<g>
		<rect x="212.21" y="145.37" class="st11" width="6" height="26"/>
	</g>
	<g>
		<path class="st2" d="M227.21,178.87c-0.83,0-1.5-0.67-1.5-1.5v-6c0-0.83,0.67-1.5,1.5-1.5s1.5,0.67,1.5,1.5v6
			C228.71,178.2,228.04,178.87,227.21,178.87z"/>
	</g>
	<g>
		<rect x="221.21" y="133.37" class="st5" width="6" height="38"/>
	</g>
	<g>
		<rect x="227.21" y="139.37" class="st11" width="6" height="32"/>
	</g>
	<g>
		<path class="st2" d="M236.21,173.37h-65c-1.1,0-2-0.9-2-2v-40c0-1.1,0.9-2,2-2s2,0.9,2,2v38h63c1.1,0,2,0.9,2,2
			S237.31,173.37,236.21,173.37z"/>
	</g>
</g>
<g>
	<path class="st10" d="M270.21,130.37v23h23C293.21,140.67,282.91,130.37,270.21,130.37z"/>
</g>
<g>
	<g>
		<path class="st2" d="M353.44,315.83c-0.65-0.78-1.33-1.51-2.04-2.19c-0.01-0.01-0.03-0.03-0.04-0.04
			c-0.01-0.01-0.02-0.03-0.04-0.04c-0.01-0.01-0.03-0.03-0.04-0.04c-0.01-0.01-0.02-0.03-0.04-0.04c-0.01-0.01-0.03-0.03-0.04-0.04
			c-0.01-0.01-0.02-0.03-0.04-0.04c-0.01-0.01-0.03-0.03-0.04-0.04c-0.01-0.01-0.02-0.03-0.04-0.04c-0.01-0.01-0.03-0.03-0.04-0.04
			c-0.01-0.01-0.02-0.03-0.04-0.04c-0.01-0.01-0.03-0.03-0.04-0.04c-0.01-0.01-0.02-0.03-0.04-0.04c-0.01-0.01-0.03-0.03-0.04-0.04
			c-0.01-0.01-0.02-0.03-0.04-0.04c-0.01-0.01-0.03-0.03-0.04-0.04c-0.01-0.01-0.02-0.03-0.04-0.04c-0.01-0.01-0.03-0.03-0.04-0.04
			c-0.01-0.01-0.02-0.03-0.04-0.04c-0.01-0.01-0.03-0.03-0.04-0.04c-0.01-0.01-0.02-0.03-0.04-0.04c-0.01-0.01-0.03-0.03-0.04-0.04
			c-0.01-0.01-0.02-0.03-0.04-0.04c-0.01-0.01-0.03-0.03-0.04-0.04c-0.01-0.01-0.02-0.03-0.04-0.04c-0.01-0.01-0.03-0.03-0.04-0.04
			s-0.03-0.03-0.04-0.04c-0.01-0.01-0.02-0.03-0.04-0.04c-0.01-0.01-0.03-0.03-0.04-0.04c-0.01-0.01-0.02-0.03-0.04-0.04
			c-0.01-0.01-0.03-0.03-0.04-0.04c-0.01-0.01-0.02-0.03-0.04-0.04c-0.01-0.01-0.03-0.03-0.04-0.04c-0.01-0.01-0.02-0.03-0.04-0.04
			c-0.01-0.01-0.03-0.03-0.04-0.04c-0.01-0.01-0.02-0.03-0.04-0.04c-0.01-0.01-0.03-0.03-0.04-0.04c-0.01-0.01-0.02-0.03-0.04-0.04
			c-0.01-0.01-0.03-0.03-0.04-0.04c-0.01-0.01-0.02-0.03-0.04-0.04c-0.01-0.01-0.03-0.03-0.04-0.04c-0.01-0.01-0.02-0.03-0.04-0.04
			c-0.01-0.01-0.03-0.03-0.04-0.04c-0.01-0.01-0.02-0.03-0.04-0.04c-0.01-0.01-0.03-0.03-0.04-0.04c-0.01-0.01-0.02-0.03-0.04-0.04
			c-0.01-0.01-0.03-0.03-0.04-0.04c-0.01-0.01-0.02-0.03-0.04-0.04c-0.01-0.01-0.03-0.03-0.04-0.04c-0.01-0.01-0.02-0.03-0.04-0.04
			c-0.01-0.01-0.03-0.03-0.04-0.04c-0.01-0.01-0.02-0.03-0.04-0.04c-0.01-0.01-0.03-0.03-0.04-0.04c-0.01-0.01-0.02-0.03-0.04-0.04
			c-0.01-0.01-0.03-0.03-0.04-0.04c-0.01-0.01-0.02-0.03-0.04-0.04c-0.01-0.01-0.03-0.03-0.04-0.04c-0.01-0.01-0.02-0.03-0.04-0.04
			c-0.01-0.01-0.03-0.03-0.04-0.04c-0.01-0.01-0.02-0.03-0.04-0.04c-0.01-0.01-0.03-0.03-0.04-0.04c-0.01-0.01-0.02-0.03-0.04-0.04
			c-0.01-0.01-0.03-0.03-0.04-0.04c-0.01-0.01-0.02-0.03-0.04-0.04c-0.01-0.01-0.03-0.03-0.04-0.04c-0.01-0.01-0.02-0.03-0.04-0.04
			c-0.01-0.01-0.03-0.03-0.04-0.04c-0.01-0.01-0.02-0.03-0.04-0.04c-0.01-0.01-0.03-0.03-0.04-0.04c-0.01-0.01-0.02-0.03-0.04-0.04
			c-0.01-0.01-0.03-0.03-0.04-0.04c-0.01-0.01-0.02-0.03-0.04-0.04c-0.01-0.01-0.03-0.03-0.04-0.04c-0.01-0.01-0.02-0.03-0.04-0.04
			c-0.01-0.01-0.03-0.03-0.04-0.04c-0.01-0.01-0.02-0.03-0.04-0.04c-0.01-0.01-0.03-0.03-0.04-0.04c-0.01-0.01-0.03-0.03-0.04-0.04
			c-0.01-0.01-0.03-0.03-0.04-0.04c-0.01-0.01-0.03-0.03-0.04-0.04c-0.01-0.01-0.02-0.03-0.04-0.04c-0.01-0.01-0.03-0.03-0.04-0.04
			c-0.01-0.01-0.02-0.03-0.04-0.04c-0.01-0.01-0.03-0.03-0.04-0.04c-0.01-0.01-0.02-0.03-0.04-0.04c-0.01-0.01-0.03-0.03-0.04-0.04
			c-0.01-0.01-0.02-0.03-0.04-0.04c-0.01-0.01-0.03-0.03-0.04-0.04c-0.01-0.01-0.02-0.03-0.04-0.04c-0.01-0.01-0.03-0.03-0.04-0.04
			c-0.01-0.01-0.02-0.03-0.04-0.04c-0.01-0.01-0.03-0.03-0.04-0.04c-0.01-0.01-0.02-0.03-0.04-0.04c-0.01-0.01-0.03-0.03-0.04-0.04
			c-0.01-0.01-0.02-0.03-0.04-0.04c-0.01-0.01-0.03-0.03-0.04-0.04c-0.01-0.01-0.02-0.03-0.04-0.04c-0.01-0.01-0.03-0.03-0.04-0.04
			c-0.01-0.01-0.02-0.03-0.04-0.04c-0.01-0.01-0.03-0.03-0.04-0.04c-0.01-0.01-0.02-0.03-0.04-0.04c-0.01-0.01-0.03-0.03-0.04-0.04
			c-0.01-0.01-0.02-0.03-0.04-0.04c-0.01-0.01-0.03-0.03-0.04-0.04c-0.01-0.01-0.02-0.03-0.04-0.04c-0.01-0.01-0.03-0.03-0.04-0.04
			c-0.01-0.01-0.02-0.03-0.04-0.04c-0.01-0.01-0.03-0.03-0.04-0.04c-0.01-0.01-0.02-0.03-0.04-0.04c-0.01-0.01-0.03-0.03-0.04-0.04
			c-0.01-0.01-0.02-0.03-0.04-0.04c-0.01-0.01-0.03-0.03-0.04-0.04c-0.01-0.01-0.02-0.03-0.04-0.04c-0.01-0.01-0.03-0.03-0.04-0.04
			c-0.01-0.01-0.02-0.03-0.04-0.04c-0.01-0.01-0.03-0.03-0.04-0.04c-0.01-0.01-0.02-0.03-0.04-0.04c-0.01-0.01-0.03-0.03-0.04-0.04
			c-0.01-0.01-0.02-0.03-0.04-0.04c-0.01-0.01-0.03-0.03-0.04-0.04c-0.01-0.01-0.02-0.03-0.04-0.04c-0.01-0.01-0.03-0.03-0.04-0.04
			c-0.01-0.01-0.02-0.03-0.04-0.04c-0.01-0.01-0.03-0.03-0.04-0.04c-0.01-0.01-0.02-0.03-0.04-0.04c-0.01-0.01-0.03-0.03-0.04-0.04
			c-0.01-0.01-0.02-0.03-0.04-0.04c-0.01-0.01-0.03-0.03-0.04-0.04c-0.01-0.01-0.03-0.03-0.04-0.04c-0.01-0.01-0.03-0.03-0.04-0.04
			c-0.01-0.01-0.03-0.03-0.04-0.04c-0.01-0.01-0.02-0.03-0.04-0.04c-0.01-0.01-0.03-0.03-0.04-0.04c-0.01-0.01-0.02-0.03-0.04-0.04
			c-0.01-0.01-0.03-0.03-0.04-0.04c-0.01-0.01-0.02-0.03-0.04-0.04c-0.01-0.01-0.03-0.03-0.04-0.04c-0.01-0.01-0.02-0.03-0.04-0.04
			c-0.01-0.01-0.03-0.03-0.04-0.04c-0.01-0.01-0.02-0.03-0.04-0.04c-0.01-0.01-0.03-0.03-0.04-0.04c-0.01-0.01-0.02-0.03-0.04-0.04
			c-0.01-0.01-0.03-0.03-0.04-0.04c-0.01-0.01-0.02-0.03-0.04-0.04c-0.01-0.01-0.03-0.03-0.04-0.04c-0.01-0.01-0.02-0.03-0.04-0.04
			c-0.01-0.01-0.03-0.03-0.04-0.04c-0.01-0.01-0.02-0.03-0.04-0.04c-0.01-0.01-0.03-0.03-0.04-0.04c-0.01-0.01-0.02-0.03-0.04-0.04
			c-0.01-0.01-0.03-0.03-0.04-0.04c-0.01-0.01-0.02-0.03-0.04-0.04c-0.01-0.01-0.03-0.03-0.04-0.04c-0.01-0.01-0.02-0.03-0.04-0.04
			c-0.01-0.01-0.03-0.03-0.04-0.04c-0.01-0.01-0.02-0.03-0.04-0.04c-0.01-0.01-0.03-0.03-0.04-0.04c-0.01-0.01-0.02-0.03-0.04-0.04
			c-0.01-0.01-0.03-0.03-0.04-0.04c-0.01-0.01-0.02-0.03-0.04-0.04c-0.01-0.01-0.03-0.03-0.04-0.04c-0.01-0.01-0.02-0.03-0.04-0.04
			c-0.01-0.01-0.03-0.03-0.04-0.04c-0.01-0.01-0.02-0.03-0.04-0.04c-0.01-0.01-0.03-0.03-0.04-0.04c-0.01-0.01-0.02-0.03-0.04-0.04
			c-0.01-0.01-0.03-0.03-0.04-0.04c-0.01-0.01-0.02-0.03-0.04-0.04c-0.01-0.01-0.03-0.03-0.04-0.04c-0.01-0.01-0.02-0.03-0.04-0.04
			c-0.01-0.01-0.03-0.03-0.04-0.04c-0.01-0.01-0.02-0.03-0.04-0.04c-0.01-0.01-0.03-0.03-0.04-0.04c-0.01-0.01-0.02-0.03-0.04-0.04
			c-0.01-0.01-0.03-0.03-0.04-0.04c-0.01-0.01-0.02-0.03-0.04-0.04c-0.01-0.01-0.03-0.03-0.04-0.04c-0.01-0.01-0.02-0.03-0.04-0.04
			c-0.01-0.01-0.03-0.03-0.04-0.04c-0.01-0.01-0.03-0.03-0.04-0.04s-0.03-0.03-0.04-0.04c-0.01-0.01-0.03-0.03-0.04-0.04
			c-0.01-0.01-0.02-0.03-0.04-0.04c-0.01-0.01-0.03-0.03-0.04-0.04c-0.01-0.01-0.02-0.03-0.04-0.04c-0.01-0.01-0.03-0.03-0.04-0.04
			c-0.01-0.01-0.02-0.03-0.04-0.04c-0.01-0.01-0.03-0.03-0.04-0.04c-0.01-0.01-0.02-0.03-0.04-0.04c-0.01-0.01-0.03-0.03-0.04-0.04
			c-0.01-0.01-0.02-0.03-0.04-0.04c-0.01-0.01-0.03-0.03-0.04-0.04c-0.01-0.01-0.02-0.03-0.04-0.04c-0.01-0.01-0.03-0.03-0.04-0.04
			c-0.01-0.01-0.02-0.03-0.04-0.04c-0.01-0.01-0.03-0.03-0.04-0.04c-0.01-0.01-0.02-0.03-0.04-0.04c-0.01-0.01-0.03-0.03-0.04-0.04
			c-0.01-0.01-0.02-0.03-0.04-0.04c-0.01-0.01-0.03-0.03-0.04-0.04c-0.01-0.01-0.02-0.03-0.04-0.04c-0.01-0.01-0.03-0.03-0.04-0.04
			c-0.01-0.01-0.02-0.03-0.04-0.04c-0.01-0.01-0.03-0.03-0.04-0.04c-0.01-0.01-0.02-0.03-0.04-0.04c-0.01-0.01-0.03-0.03-0.04-0.04
			c-0.01-0.01-0.02-0.03-0.04-0.04c-0.01-0.01-0.03-0.03-0.04-0.04c-0.01-0.01-0.02-0.03-0.04-0.04c-0.01-0.01-0.03-0.03-0.04-0.04
			c-0.01-0.01-0.02-0.03-0.04-0.04c-0.01-0.01-0.03-0.03-0.04-0.04c-0.01-0.01-0.02-0.03-0.04-0.04c-0.01-0.01-0.03-0.03-0.04-0.04
			c-0.01-0.01-0.02-0.03-0.04-0.04c-0.01-0.01-0.03-0.03-0.04-0.04c-0.01-0.01-0.02-0.03-0.04-0.04c-0.01-0.01-0.03-0.03-0.04-0.04
			c-0.01-0.01-0.02-0.03-0.04-0.04c-0.01-0.01-0.03-0.03-0.04-0.04c-0.01-0.01-0.02-0.03-0.04-0.04c-0.01-0.01-0.03-0.03-0.04-0.04
			c-0.01-0.01-0.02-0.03-0.04-0.04c-0.01-0.01-0.03-0.03-0.04-0.04c-0.01-0.01-0.02-0.03-0.04-0.04c-0.01-0.01-0.03-0.03-0.04-0.04
			c-0.01-0.01-0.02-0.03-0.04-0.04c-0.01-0.01-0.03-0.03-0.04-0.04c-0.01-0.01-0.02-0.03-0.04-0.04c-0.01-0.01-0.03-0.03-0.04-0.04
			c-0.01-0.01-0.02-0.03-0.04-0.04c-0.01-0.01-0.03-0.03-0.04-0.04c-0.01-0.01-0.03-0.03-0.04-0.04c-0.01-0.01-0.02-0.03-0.04-0.04
			c-0.01-0.01-0.03-0.03-0.04-0.04c-0.01-0.01-0.02-0.03-0.04-0.04c-0.01-0.01-0.03-0.03-0.04-0.04c-0.01-0.01-0.02-0.03-0.04-0.04
			c-0.01-0.01-0.03-0.03-0.04-0.04c-0.01-0.01-0.02-0.03-0.04-0.04c-0.01-0.01-0.03-0.03-0.04-0.04c-0.01-0.01-0.02-0.03-0.04-0.04
			c-0.01-0.01-0.03-0.03-0.04-0.04c-0.01-0.01-0.02-0.03-0.04-0.04c-0.01-0.01-0.03-0.03-0.04-0.04c-0.01-0.01-0.02-0.03-0.04-0.04
			c-0.01-0.01-0.03-0.03-0.04-0.04c-0.01-0.01-0.02-0.03-0.04-0.04c-0.01-0.01-0.03-0.03-0.04-0.04c-0.01-0.01-0.02-0.03-0.04-0.04
			c-0.01-0.01-0.03-0.03-0.04-0.04c-0.01-0.01-0.02-0.03-0.04-0.04c-0.01-0.01-0.03-0.03-0.04-0.04c-0.01-0.01-0.02-0.03-0.04-0.04
			c-0.01-0.01-0.03-0.03-0.04-0.04c-0.01-0.01-0.02-0.03-0.04-0.04c-0.01-0.01-0.03-0.03-0.04-0.04c-3.35-3.24-7.34-5.38-11.93-6.44
			l8.17-14.73c1.03-1.86,1-4.12-0.08-5.96c-0.27-0.46-0.61-0.88-0.98-1.25c-0.01-0.01-0.03-0.03-0.04-0.04
			c-0.01-0.01-0.03-0.03-0.04-0.04c-0.01-0.01-0.03-0.03-0.04-0.04c-0.01-0.01-0.03-0.03-0.04-0.04c-0.01-0.01-0.03-0.03-0.04-0.04
			c-0.01-0.01-0.03-0.03-0.04-0.04c-0.01-0.01-0.03-0.03-0.04-0.04c-0.01-0.01-0.03-0.03-0.04-0.04c-0.01-0.01-0.03-0.03-0.04-0.04
			c-0.01-0.01-0.03-0.03-0.04-0.04c-0.01-0.01-0.03-0.03-0.04-0.04c-0.01-0.01-0.03-0.03-0.04-0.04c-0.01-0.01-0.03-0.03-0.04-0.04
			c-0.01-0.01-0.03-0.03-0.04-0.04c-0.01-0.01-0.03-0.03-0.04-0.04c-0.01-0.01-0.03-0.03-0.04-0.04c-0.01-0.01-0.03-0.03-0.04-0.04
			c-0.01-0.01-0.03-0.03-0.04-0.04c-0.01-0.01-0.03-0.03-0.04-0.04c-0.01-0.01-0.03-0.03-0.04-0.04c-0.01-0.01-0.03-0.03-0.04-0.04
			c-0.01-0.01-0.03-0.03-0.04-0.04c-0.01-0.01-0.03-0.03-0.04-0.04c-0.01-0.01-0.03-0.03-0.04-0.04c-0.01-0.01-0.03-0.03-0.04-0.04
			c-0.01-0.01-0.03-0.03-0.04-0.04c-0.01-0.01-0.03-0.03-0.04-0.04c-0.01-0.01-0.03-0.03-0.04-0.04c-0.01-0.01-0.03-0.03-0.04-0.04
			c-0.01-0.01-0.03-0.03-0.04-0.04c-0.01-0.01-0.03-0.03-0.04-0.04c-0.01-0.01-0.03-0.03-0.04-0.04c-0.01-0.01-0.03-0.03-0.04-0.04
			c-0.01-0.01-0.03-0.03-0.04-0.04c-0.01-0.01-0.03-0.03-0.04-0.04c-0.01-0.01-0.03-0.03-0.04-0.04c-0.01-0.01-0.03-0.03-0.04-0.04
			c-0.01-0.01-0.03-0.03-0.04-0.04c-0.01-0.01-0.03-0.03-0.04-0.04c-0.01-0.01-0.03-0.03-0.04-0.04c-0.01-0.01-0.03-0.03-0.04-0.04
			c-0.01-0.01-0.03-0.03-0.04-0.04c-0.01-0.01-0.03-0.03-0.04-0.04c-0.01-0.01-0.03-0.03-0.04-0.04c-0.01-0.01-0.03-0.03-0.04-0.04
			c-0.01-0.01-0.03-0.03-0.04-0.04c-0.01-0.01-0.03-0.03-0.04-0.04c-0.01-0.01-0.03-0.03-0.04-0.04c-0.01-0.01-0.03-0.03-0.04-0.04
			c-0.01-0.01-0.03-0.03-0.04-0.04c-0.01-0.01-0.03-0.03-0.04-0.04c-0.01-0.01-0.03-0.03-0.04-0.04c-0.01-0.01-0.03-0.03-0.04-0.04
			c-0.01-0.01-0.03-0.03-0.04-0.04c-0.01-0.01-0.03-0.03-0.04-0.04c-0.01-0.01-0.03-0.03-0.04-0.04c-0.01-0.01-0.03-0.03-0.04-0.04
			c-0.01-0.01-0.03-0.03-0.04-0.04c-0.01-0.01-0.03-0.03-0.04-0.04c-0.01-0.01-0.03-0.03-0.04-0.04c-0.01-0.01-0.03-0.03-0.04-0.04
			c-0.01-0.01-0.03-0.03-0.04-0.04c-0.01-0.01-0.03-0.03-0.04-0.04c-0.01-0.01-0.03-0.03-0.04-0.04c-0.01-0.01-0.03-0.03-0.04-0.04
			c-0.01-0.01-0.03-0.03-0.04-0.04c-0.01-0.01-0.03-0.03-0.04-0.04c-0.01-0.01-0.03-0.03-0.04-0.04c-0.01-0.01-0.03-0.03-0.04-0.04
			c-0.01-0.01-0.03-0.03-0.04-0.04c-0.01-0.01-0.03-0.03-0.04-0.04c-0.01-0.01-0.03-0.03-0.04-0.04c-0.01-0.01-0.03-0.03-0.04-0.04
			c-0.01-0.01-0.03-0.03-0.04-0.04c-0.01-0.01-0.03-0.03-0.04-0.04c-0.01-0.01-0.03-0.03-0.04-0.04c-0.01-0.01-0.03-0.03-0.04-0.04
			c-0.01-0.01-0.03-0.03-0.04-0.04c-0.01-0.01-0.03-0.03-0.04-0.04c-0.01-0.01-0.03-0.03-0.04-0.04c-0.01-0.01-0.03-0.03-0.04-0.04
			c-0.01-0.01-0.03-0.03-0.04-0.04c-0.01-0.01-0.03-0.03-0.04-0.04c-0.01-0.01-0.03-0.03-0.04-0.04c-0.01-0.01-0.03-0.03-0.04-0.04
			c-0.01-0.01-0.03-0.03-0.04-0.04c-0.01-0.01-0.03-0.03-0.04-0.04c-0.01-0.01-0.03-0.03-0.04-0.04c-0.01-0.01-0.03-0.03-0.04-0.04
			c-0.01-0.01-0.03-0.03-0.04-0.04c-0.01-0.01-0.03-0.03-0.04-0.04c-0.01-0.01-0.03-0.03-0.04-0.04c-0.01-0.01-0.03-0.03-0.04-0.04
			c-0.01-0.01-0.03-0.03-0.04-0.04c-0.01-0.01-0.03-0.03-0.04-0.04c-0.01-0.01-0.03-0.03-0.04-0.04c-0.01-0.01-0.03-0.03-0.04-0.04
			c-0.01-0.01-0.03-0.03-0.04-0.04c-0.01-0.01-0.03-0.03-0.04-0.04c-0.01-0.01-0.03-0.03-0.04-0.04c-0.01-0.01-0.03-0.03-0.04-0.04
			c-0.01-0.01-0.03-0.03-0.04-0.04c-0.01-0.01-0.03-0.03-0.04-0.04c-0.01-0.01-0.03-0.03-0.04-0.04c-0.01-0.01-0.03-0.03-0.04-0.04
			c-0.01-0.01-0.03-0.03-0.04-0.04c-0.01-0.01-0.03-0.03-0.04-0.04c-0.01-0.01-0.03-0.03-0.04-0.04c-0.01-0.01-0.03-0.03-0.04-0.04
			c-0.01-0.01-0.03-0.03-0.04-0.04c-0.01-0.01-0.03-0.03-0.04-0.04c-0.01-0.01-0.03-0.03-0.04-0.04c-0.01-0.01-0.03-0.03-0.04-0.04
			c-0.01-0.01-0.03-0.03-0.04-0.04c-0.01-0.01-0.03-0.03-0.04-0.04c-0.01-0.01-0.03-0.03-0.04-0.04c-0.01-0.01-0.03-0.03-0.04-0.04
			c-0.01-0.01-0.03-0.03-0.04-0.04c-0.01-0.01-0.03-0.03-0.04-0.04c-0.01-0.01-0.03-0.03-0.04-0.04c-0.01-0.01-0.03-0.03-0.04-0.04
			c-0.01-0.01-0.03-0.03-0.04-0.04c-0.01-0.01-0.03-0.03-0.04-0.04c-0.01-0.01-0.03-0.03-0.04-0.04c-0.01-0.01-0.03-0.03-0.04-0.04
			c-0.01-0.01-0.03-0.03-0.04-0.04c-0.01-0.01-0.03-0.03-0.04-0.04c-0.01-0.01-0.03-0.03-0.04-0.04c-0.01-0.01-0.03-0.03-0.04-0.04
			c-0.01-0.01-0.03-0.03-0.04-0.04c-0.01-0.01-0.03-0.03-0.04-0.04c-0.01-0.01-0.03-0.03-0.04-0.04c-0.01-0.01-0.03-0.03-0.04-0.04
			c-0.01-0.01-0.03-0.03-0.04-0.04c-0.01-0.01-0.03-0.03-0.04-0.04c-0.01-0.01-0.03-0.03-0.04-0.04c-0.01-0.01-0.03-0.03-0.04-0.04
			c-0.01-0.01-0.03-0.03-0.04-0.04c-0.01-0.01-0.03-0.03-0.04-0.04c-0.01-0.01-0.03-0.03-0.04-0.04c-0.01-0.01-0.03-0.03-0.04-0.04
			c-0.01-0.01-0.03-0.03-0.04-0.04c-0.01-0.01-0.03-0.03-0.04-0.04c-0.01-0.01-0.03-0.03-0.04-0.04c-0.01-0.01-0.03-0.03-0.04-0.04
			c-0.01-0.01-0.03-0.03-0.04-0.04c-0.01-0.01-0.03-0.03-0.04-0.04c-0.01-0.01-0.03-0.03-0.04-0.04c-0.01-0.01-0.03-0.03-0.04-0.04
			c-0.01-0.01-0.03-0.03-0.04-0.04c-0.01-0.01-0.03-0.03-0.04-0.04c-0.01-0.01-0.03-0.03-0.04-0.04c-0.01-0.01-0.03-0.03-0.04-0.04
			c-0.01-0.01-0.03-0.03-0.04-0.04c-0.01-0.01-0.03-0.03-0.04-0.04c-0.01-0.01-0.03-0.03-0.04-0.04c-0.01-0.01-0.03-0.03-0.04-0.04
			c-0.01-0.01-0.03-0.03-0.04-0.04c-0.01-0.01-0.03-0.03-0.04-0.04c-0.01-0.01-0.03-0.03-0.04-0.04c-0.01-0.01-0.03-0.03-0.04-0.04
			c-0.01-0.01-0.03-0.03-0.04-0.04c-0.01-0.01-0.03-0.03-0.04-0.04c-0.01-0.01-0.03-0.03-0.04-0.04c-0.01-0.01-0.03-0.03-0.04-0.04
			c-0.01-0.01-0.03-0.03-0.04-0.04c-0.01-0.01-0.03-0.03-0.04-0.04c-0.01-0.01-0.03-0.03-0.04-0.04c-0.01-0.01-0.03-0.03-0.04-0.04
			c-0.01-0.01-0.03-0.03-0.04-0.04c-0.01-0.01-0.03-0.03-0.04-0.04c-0.01-0.01-0.03-0.03-0.04-0.04c-0.01-0.01-0.03-0.03-0.04-0.04
			c-0.01-0.01-0.03-0.03-0.04-0.04c-0.01-0.01-0.03-0.03-0.04-0.04c-0.01-0.01-0.03-0.03-0.04-0.04c-0.01-0.01-0.03-0.03-0.04-0.04
			c-0.01-0.01-0.03-0.03-0.04-0.04c-0.01-0.01-0.03-0.03-0.04-0.04c-0.01-0.01-0.03-0.03-0.04-0.04c-0.01-0.01-0.03-0.03-0.04-0.04
			c-0.01-0.01-0.03-0.03-0.04-0.04c-0.01-0.01-0.03-0.03-0.04-0.04c-0.01-0.01-0.03-0.03-0.04-0.04c-0.01-0.01-0.03-0.03-0.04-0.04
			c-0.01-0.01-0.03-0.03-0.04-0.04c-0.01-0.01-0.03-0.03-0.04-0.04c-0.01-0.01-0.03-0.03-0.04-0.04c-0.01-0.01-0.03-0.03-0.04-0.04
			c-0.01-0.01-0.03-0.03-0.04-0.04c-0.01-0.01-0.03-0.03-0.04-0.04c-0.01-0.01-0.03-0.03-0.04-0.04c-0.01-0.01-0.03-0.03-0.04-0.04
			c-0.01-0.01-0.03-0.03-0.04-0.04c-0.01-0.01-0.03-0.03-0.04-0.04c-0.01-0.01-0.03-0.03-0.04-0.04c-0.01-0.01-0.03-0.03-0.04-0.04
			c-0.01-0.01-0.03-0.03-0.04-0.04c-0.01-0.01-0.03-0.03-0.04-0.04c-0.01-0.01-0.03-0.03-0.04-0.04c-0.01-0.01-0.03-0.03-0.04-0.04
			c-0.01-0.01-0.03-0.03-0.04-0.04c-0.01-0.01-0.03-0.03-0.04-0.04c-0.01-0.01-0.03-0.03-0.04-0.04c-0.01-0.01-0.03-0.03-0.04-0.04
			c-0.01-0.01-0.03-0.03-0.04-0.04c-0.01-0.01-0.03-0.03-0.04-0.04c-0.01-0.01-0.03-0.03-0.04-0.04c-0.01-0.01-0.03-0.03-0.04-0.04
			c-0.01-0.01-0.03-0.03-0.04-0.04c-0.01-0.01-0.03-0.03-0.04-0.04c-0.01-0.01-0.03-0.03-0.04-0.04c-0.01-0.01-0.03-0.03-0.04-0.04
			c-0.01-0.01-0.03-0.03-0.04-0.04c-0.01-0.01-0.03-0.03-0.04-0.04c-0.01-0.01-0.03-0.03-0.04-0.04c-0.01-0.01-0.03-0.03-0.04-0.04
			c-0.01-0.01-0.03-0.03-0.04-0.04c-0.01-0.01-0.03-0.03-0.04-0.04c-0.01-0.01-0.03-0.03-0.04-0.04c-0.01-0.01-0.03-0.03-0.04-0.04
			c-0.01-0.01-0.03-0.03-0.04-0.04c-0.01-0.01-0.03-0.03-0.04-0.04c-0.01-0.01-0.03-0.03-0.04-0.04c-0.01-0.01-0.03-0.03-0.04-0.04
			c-0.01-0.01-0.03-0.03-0.04-0.04c-0.01-0.01-0.03-0.03-0.04-0.04c-0.01-0.01-0.03-0.03-0.04-0.04c-0.01-0.01-0.03-0.03-0.04-0.04
			c-0.01-0.01-0.03-0.03-0.04-0.04c-0.01-0.01-0.03-0.03-0.04-0.04c-0.01-0.01-0.03-0.03-0.04-0.04c-0.01-0.01-0.03-0.03-0.04-0.04
			c-0.01-0.01-0.03-0.03-0.04-0.04c-0.01-0.01-0.03-0.03-0.04-0.04c-0.01-0.01-0.03-0.03-0.04-0.04c-0.01-0.01-0.03-0.03-0.04-0.04
			c-0.01-0.01-0.03-0.03-0.04-0.04c-0.01-0.01-0.03-0.03-0.04-0.04c-0.01-0.01-0.03-0.03-0.04-0.04c-0.01-0.01-0.03-0.03-0.04-0.04
			c-0.01-0.01-0.03-0.03-0.04-0.04c-0.01-0.01-0.03-0.03-0.04-0.04c-0.01-0.01-0.03-0.03-0.04-0.04c-0.01-0.01-0.03-0.03-0.04-0.04
			c-0.01-0.01-0.03-0.03-0.04-0.04c-0.01-0.01-0.03-0.03-0.04-0.04c-0.01-0.01-0.03-0.03-0.04-0.04c-0.01-0.01-0.03-0.03-0.04-0.04
			c-0.01-0.01-0.03-0.03-0.04-0.04c-0.01-0.01-0.03-0.03-0.04-0.04c-0.01-0.01-0.03-0.03-0.04-0.04c-0.01-0.01-0.03-0.03-0.04-0.04
			c-0.01-0.01-0.03-0.03-0.04-0.04c-0.01-0.01-0.03-0.03-0.04-0.04c-0.01-0.01-0.03-0.03-0.04-0.04c-1.11-1.1-2.62-1.74-4.23-1.74
			h-17.4c-2.18,0-4.19,1.18-5.25,3.09l-9.69,17.47c-0.56-0.84-1.16-1.66-1.81-2.44c-0.65-0.78-1.33-1.51-2.04-2.19
			c-0.01-0.01-0.03-0.03-0.04-0.04c-0.01-0.01-0.02-0.03-0.04-0.04c-0.01-0.01-0.03-0.03-0.04-0.04c-0.01-0.01-0.02-0.03-0.04-0.04
			c-0.01-0.01-0.03-0.03-0.04-0.04c-0.01-0.01-0.02-0.03-0.04-0.04c-0.01-0.01-0.03-0.03-0.04-0.04c-0.01-0.01-0.02-0.03-0.04-0.04
			c-0.01-0.01-0.03-0.03-0.04-0.04c-0.01-0.01-0.02-0.03-0.04-0.04c-0.01-0.01-0.03-0.03-0.04-0.04c-0.01-0.01-0.02-0.03-0.04-0.04
			c-0.01-0.01-0.03-0.03-0.04-0.04c-0.01-0.01-0.02-0.03-0.04-0.04c-0.01-0.01-0.03-0.03-0.04-0.04c-0.01-0.01-0.02-0.03-0.04-0.04
			c-0.01-0.01-0.03-0.03-0.04-0.04c-0.01-0.01-0.02-0.03-0.04-0.04c-0.01-0.01-0.03-0.03-0.04-0.04c-0.01-0.01-0.02-0.03-0.04-0.04
			c-0.01-0.01-0.03-0.03-0.04-0.04c-0.01-0.01-0.02-0.03-0.04-0.04c-0.01-0.01-0.03-0.03-0.04-0.04c-0.01-0.01-0.02-0.03-0.04-0.04
			c-0.01-0.01-0.03-0.03-0.04-0.04s-0.03-0.03-0.04-0.04c-0.01-0.01-0.02-0.03-0.04-0.04c-0.01-0.01-0.03-0.03-0.04-0.04
			c-0.01-0.01-0.02-0.03-0.04-0.04c-0.01-0.01-0.03-0.03-0.04-0.04c-0.01-0.01-0.02-0.03-0.04-0.04c-0.01-0.01-0.03-0.03-0.04-0.04
			c-0.01-0.01-0.02-0.03-0.04-0.04c-0.01-0.01-0.03-0.03-0.04-0.04c-0.01-0.01-0.02-0.03-0.04-0.04c-0.01-0.01-0.03-0.03-0.04-0.04
			c-0.01-0.01-0.02-0.03-0.04-0.04c-0.01-0.01-0.03-0.03-0.04-0.04c-0.01-0.01-0.02-0.03-0.04-0.04c-0.01-0.01-0.03-0.03-0.04-0.04
			c-0.01-0.01-0.02-0.03-0.04-0.04c-0.01-0.01-0.03-0.03-0.04-0.04c-0.01-0.01-0.02-0.03-0.04-0.04c-0.01-0.01-0.03-0.03-0.04-0.04
			c-0.01-0.01-0.02-0.03-0.04-0.04c-0.01-0.01-0.03-0.03-0.04-0.04c-0.01-0.01-0.02-0.03-0.04-0.04c-0.01-0.01-0.03-0.03-0.04-0.04
			c-0.01-0.01-0.02-0.03-0.04-0.04c-0.01-0.01-0.03-0.03-0.04-0.04c-0.01-0.01-0.02-0.03-0.04-0.04c-0.01-0.01-0.03-0.03-0.04-0.04
			c-0.01-0.01-0.02-0.03-0.04-0.04c-0.01-0.01-0.03-0.03-0.04-0.04c-0.01-0.01-0.02-0.03-0.04-0.04c-0.01-0.01-0.03-0.03-0.04-0.04
			c-0.01-0.01-0.02-0.03-0.04-0.04c-0.01-0.01-0.03-0.03-0.04-0.04c-0.01-0.01-0.02-0.03-0.04-0.04c-0.01-0.01-0.03-0.03-0.04-0.04
			c-0.01-0.01-0.02-0.03-0.04-0.04c-0.01-0.01-0.03-0.03-0.04-0.04c-0.01-0.01-0.02-0.03-0.04-0.04c-0.01-0.01-0.03-0.03-0.04-0.04
			c-0.01-0.01-0.02-0.03-0.04-0.04c-0.01-0.01-0.03-0.03-0.04-0.04c-0.01-0.01-0.02-0.03-0.04-0.04c-0.01-0.01-0.03-0.03-0.04-0.04
			c-0.01-0.01-0.02-0.03-0.04-0.04c-0.01-0.01-0.03-0.03-0.04-0.04c-0.01-0.01-0.02-0.03-0.04-0.04c-0.01-0.01-0.03-0.03-0.04-0.04
			c-0.01-0.01-0.02-0.03-0.04-0.04c-0.01-0.01-0.03-0.03-0.04-0.04c-0.01-0.01-0.02-0.03-0.04-0.04c-0.01-0.01-0.03-0.03-0.04-0.04
			c-0.01-0.01-0.03-0.03-0.04-0.04c-0.01-0.01-0.03-0.03-0.04-0.04c-0.01-0.01-0.03-0.03-0.04-0.04c-0.01-0.01-0.02-0.03-0.04-0.04
			c-0.01-0.01-0.03-0.03-0.04-0.04c-0.01-0.01-0.02-0.03-0.04-0.04c-0.01-0.01-0.03-0.03-0.04-0.04c-0.01-0.01-0.02-0.03-0.04-0.04
			c-0.01-0.01-0.03-0.03-0.04-0.04c-0.01-0.01-0.02-0.03-0.04-0.04c-0.01-0.01-0.03-0.03-0.04-0.04c-0.01-0.01-0.02-0.03-0.04-0.04
			c-0.01-0.01-0.03-0.03-0.04-0.04c-0.01-0.01-0.02-0.03-0.04-0.04c-0.01-0.01-0.03-0.03-0.04-0.04c-0.01-0.01-0.02-0.03-0.04-0.04
			c-0.01-0.01-0.03-0.03-0.04-0.04c-0.01-0.01-0.02-0.03-0.04-0.04c-0.01-0.01-0.03-0.03-0.04-0.04c-0.01-0.01-0.02-0.03-0.04-0.04
			c-0.01-0.01-0.03-0.03-0.04-0.04c-0.01-0.01-0.02-0.03-0.04-0.04c-0.01-0.01-0.03-0.03-0.04-0.04c-0.01-0.01-0.02-0.03-0.04-0.04
			c-0.01-0.01-0.03-0.03-0.04-0.04c-0.01-0.01-0.02-0.03-0.04-0.04c-0.01-0.01-0.03-0.03-0.04-0.04c-0.01-0.01-0.02-0.03-0.04-0.04
			c-0.01-0.01-0.03-0.03-0.04-0.04c-0.01-0.01-0.02-0.03-0.04-0.04c-0.01-0.01-0.03-0.03-0.04-0.04c-0.01-0.01-0.02-0.03-0.04-0.04
			c-0.01-0.01-0.03-0.03-0.04-0.04c-0.01-0.01-0.02-0.03-0.04-0.04c-0.01-0.01-0.03-0.03-0.04-0.04c-0.01-0.01-0.02-0.03-0.04-0.04
			c-0.01-0.01-0.03-0.03-0.04-0.04c-0.01-0.01-0.02-0.03-0.04-0.04c-0.01-0.01-0.03-0.03-0.04-0.04c-0.01-0.01-0.02-0.03-0.04-0.04
			c-0.01-0.01-0.03-0.03-0.04-0.04c-0.01-0.01-0.02-0.03-0.04-0.04c-0.01-0.01-0.03-0.03-0.04-0.04c-0.01-0.01-0.02-0.03-0.04-0.04
			c-0.01-0.01-0.03-0.03-0.04-0.04c-0.01-0.01-0.02-0.03-0.04-0.04c-0.01-0.01-0.03-0.03-0.04-0.04c-0.01-0.01-0.02-0.03-0.04-0.04
			c-0.01-0.01-0.03-0.03-0.04-0.04c-0.01-0.01-0.02-0.03-0.04-0.04c-0.01-0.01-0.03-0.03-0.04-0.04c-0.01-0.01-0.03-0.03-0.04-0.04
			c-0.01-0.01-0.03-0.03-0.04-0.04c-0.01-0.01-0.03-0.03-0.04-0.04c-0.01-0.01-0.02-0.03-0.04-0.04c-0.01-0.01-0.03-0.03-0.04-0.04
			c-0.01-0.01-0.02-0.03-0.04-0.04c-0.01-0.01-0.03-0.03-0.04-0.04c-0.01-0.01-0.02-0.03-0.04-0.04c-0.01-0.01-0.03-0.03-0.04-0.04
			c-0.01-0.01-0.02-0.03-0.04-0.04c-0.01-0.01-0.03-0.03-0.04-0.04c-0.01-0.01-0.02-0.03-0.04-0.04c-0.01-0.01-0.03-0.03-0.04-0.04
			c-0.01-0.01-0.02-0.03-0.04-0.04c-0.01-0.01-0.03-0.03-0.04-0.04c-0.01-0.01-0.02-0.03-0.04-0.04c-0.01-0.01-0.03-0.03-0.04-0.04
			c-0.01-0.01-0.02-0.03-0.04-0.04c-0.01-0.01-0.03-0.03-0.04-0.04c-0.01-0.01-0.02-0.03-0.04-0.04c-0.01-0.01-0.03-0.03-0.04-0.04
			c-0.01-0.01-0.02-0.03-0.04-0.04c-0.01-0.01-0.03-0.03-0.04-0.04c-0.01-0.01-0.02-0.03-0.04-0.04c-0.01-0.01-0.03-0.03-0.04-0.04
			c-0.01-0.01-0.02-0.03-0.04-0.04c-0.01-0.01-0.03-0.03-0.04-0.04c-0.01-0.01-0.02-0.03-0.04-0.04c-0.01-0.01-0.03-0.03-0.04-0.04
			c-0.01-0.01-0.02-0.03-0.04-0.04c-0.01-0.01-0.03-0.03-0.04-0.04c-0.01-0.01-0.02-0.03-0.04-0.04c-0.01-0.01-0.03-0.03-0.04-0.04
			c-0.01-0.01-0.02-0.03-0.04-0.04c-0.01-0.01-0.03-0.03-0.04-0.04c-0.01-0.01-0.02-0.03-0.04-0.04c-0.01-0.01-0.03-0.03-0.04-0.04
			c-0.01-0.01-0.02-0.03-0.04-0.04c-0.01-0.01-0.03-0.03-0.04-0.04c-0.01-0.01-0.02-0.03-0.04-0.04c-0.01-0.01-0.03-0.03-0.04-0.04
			c-0.01-0.01-0.02-0.03-0.04-0.04c-0.01-0.01-0.03-0.03-0.04-0.04c-0.01-0.01-0.02-0.03-0.04-0.04c-0.01-0.01-0.03-0.03-0.04-0.04
			c-0.01-0.01-0.02-0.03-0.04-0.04c-0.01-0.01-0.03-0.03-0.04-0.04c-0.01-0.01-0.02-0.03-0.04-0.04c-0.01-0.01-0.03-0.03-0.04-0.04
			c-0.01-0.01-0.02-0.03-0.04-0.04c-0.01-0.01-0.03-0.03-0.04-0.04c-0.01-0.01-0.03-0.03-0.04-0.04s-0.03-0.03-0.04-0.04
			c-0.01-0.01-0.03-0.03-0.04-0.04c-0.01-0.01-0.02-0.03-0.04-0.04c-0.01-0.01-0.03-0.03-0.04-0.04c-0.01-0.01-0.02-0.03-0.04-0.04
			c-0.01-0.01-0.03-0.03-0.04-0.04c-0.01-0.01-0.02-0.03-0.04-0.04c-0.01-0.01-0.03-0.03-0.04-0.04c-0.01-0.01-0.02-0.03-0.04-0.04
			c-0.01-0.01-0.03-0.03-0.04-0.04c-0.01-0.01-0.02-0.03-0.04-0.04c-0.01-0.01-0.03-0.03-0.04-0.04c-0.01-0.01-0.02-0.03-0.04-0.04
			c-0.01-0.01-0.03-0.03-0.04-0.04c-0.01-0.01-0.02-0.03-0.04-0.04c-0.01-0.01-0.03-0.03-0.04-0.04c-0.01-0.01-0.02-0.03-0.04-0.04
			c-0.01-0.01-0.03-0.03-0.04-0.04c-0.01-0.01-0.02-0.03-0.04-0.04c-0.01-0.01-0.03-0.03-0.04-0.04c-0.01-0.01-0.02-0.03-0.04-0.04
			c-0.01-0.01-0.03-0.03-0.04-0.04c-0.01-0.01-0.02-0.03-0.04-0.04c-0.01-0.01-0.03-0.03-0.04-0.04c-0.01-0.01-0.02-0.03-0.04-0.04
			c-0.01-0.01-0.03-0.03-0.04-0.04c-0.01-0.01-0.02-0.03-0.04-0.04c-0.01-0.01-0.03-0.03-0.04-0.04c-0.01-0.01-0.02-0.03-0.04-0.04
			c-0.01-0.01-0.03-0.03-0.04-0.04c-0.01-0.01-0.02-0.03-0.04-0.04c-0.01-0.01-0.03-0.03-0.04-0.04c-0.01-0.01-0.02-0.03-0.04-0.04
			c-0.01-0.01-0.03-0.03-0.04-0.04c-0.01-0.01-0.02-0.03-0.04-0.04c-0.01-0.01-0.03-0.03-0.04-0.04c-0.01-0.01-0.02-0.03-0.04-0.04
			c-0.01-0.01-0.03-0.03-0.04-0.04c-0.01-0.01-0.02-0.03-0.04-0.04c-0.01-0.01-0.03-0.03-0.04-0.04c-0.01-0.01-0.02-0.03-0.04-0.04
			c-0.01-0.01-0.03-0.03-0.04-0.04c-0.01-0.01-0.02-0.03-0.04-0.04c-0.01-0.01-0.03-0.03-0.04-0.04c-0.01-0.01-0.02-0.03-0.04-0.04
			c-0.01-0.01-0.03-0.03-0.04-0.04c-0.01-0.01-0.02-0.03-0.04-0.04c-0.01-0.01-0.03-0.03-0.04-0.04c-0.01-0.01-0.02-0.03-0.04-0.04
			c-0.01-0.01-0.03-0.03-0.04-0.04c-0.01-0.01-0.02-0.03-0.04-0.04c-0.01-0.01-0.03-0.03-0.04-0.04c-0.01-0.01-0.03-0.03-0.04-0.04
			c-0.01-0.01-0.02-0.03-0.04-0.04c-0.01-0.01-0.03-0.03-0.04-0.04c-0.01-0.01-0.02-0.03-0.04-0.04c-0.01-0.01-0.03-0.03-0.04-0.04
			c-0.01-0.01-0.02-0.03-0.04-0.04c-0.01-0.01-0.03-0.03-0.04-0.04c-0.01-0.01-0.02-0.03-0.04-0.04c-0.01-0.01-0.03-0.03-0.04-0.04
			c-0.01-0.01-0.02-0.03-0.04-0.04c-0.01-0.01-0.03-0.03-0.04-0.04c-0.01-0.01-0.02-0.03-0.04-0.04c-0.01-0.01-0.03-0.03-0.04-0.04
			c-0.01-0.01-0.02-0.03-0.04-0.04c-0.01-0.01-0.03-0.03-0.04-0.04c-0.01-0.01-0.02-0.03-0.04-0.04c-0.01-0.01-0.03-0.03-0.04-0.04
			c-0.01-0.01-0.02-0.03-0.04-0.04c-0.01-0.01-0.03-0.03-0.04-0.04c-0.01-0.01-0.02-0.03-0.04-0.04c-0.01-0.01-0.03-0.03-0.04-0.04
			c-0.01-0.01-0.02-0.03-0.04-0.04c-0.01-0.01-0.03-0.03-0.04-0.04c-0.01-0.01-0.02-0.03-0.04-0.04c-0.01-0.01-0.03-0.03-0.04-0.04
			c-4.95-4.78-11.29-7.2-18.89-7.2c-8.76,0-15.73,3.07-20.74,9.12c-4.72,5.71-7.12,13.67-7.12,23.66c0,9.65,2.43,17.55,7.22,23.49
			c0.64,0.8,1.32,1.54,2.02,2.24c0.01,0.01,0.03,0.03,0.04,0.04c0.01,0.01,0.03,0.03,0.04,0.04c0.01,0.01,0.03,0.03,0.04,0.04
			c0.01,0.01,0.03,0.03,0.04,0.04c0.01,0.01,0.03,0.03,0.04,0.04c0.01,0.01,0.03,0.03,0.04,0.04c0.01,0.01,0.03,0.03,0.04,0.04
			c0.01,0.01,0.03,0.03,0.04,0.04c0.01,0.01,0.03,0.03,0.04,0.04c0.01,0.01,0.03,0.03,0.04,0.04c0.01,0.01,0.03,0.03,0.04,0.04
			c0.01,0.01,0.03,0.03,0.04,0.04c0.01,0.01,0.03,0.02,0.04,0.04c0.01,0.01,0.03,0.03,0.04,0.04c0.01,0.01,0.03,0.03,0.04,0.04
			c0.01,0.01,0.03,0.03,0.04,0.04c0.01,0.01,0.03,0.03,0.04,0.04c0.01,0.01,0.03,0.03,0.04,0.04c0.01,0.01,0.03,0.02,0.04,0.04
			c0.01,0.01,0.03,0.03,0.04,0.04c0.01,0.01,0.03,0.03,0.04,0.04c0.01,0.01,0.03,0.03,0.04,0.04c0.01,0.01,0.03,0.02,0.04,0.04
			c0.01,0.01,0.03,0.03,0.04,0.04c0.01,0.01,0.03,0.03,0.04,0.04c0.01,0.01,0.03,0.03,0.04,0.04c0.01,0.01,0.03,0.03,0.04,0.04
			c0.01,0.01,0.03,0.03,0.04,0.04c0.01,0.01,0.03,0.03,0.04,0.04c0.01,0.01,0.03,0.03,0.04,0.04c0.01,0.01,0.03,0.03,0.04,0.04
			c0.01,0.01,0.03,0.02,0.04,0.04c0.01,0.01,0.03,0.03,0.04,0.04c0.01,0.01,0.03,0.03,0.04,0.04c0.01,0.01,0.03,0.03,0.04,0.04
			c0.01,0.01,0.03,0.02,0.04,0.04c0.01,0.01,0.03,0.03,0.04,0.04c0.01,0.01,0.03,0.03,0.04,0.04c0.01,0.01,0.03,0.03,0.04,0.04
			c0.01,0.01,0.03,0.03,0.04,0.04c0.01,0.01,0.03,0.03,0.04,0.04c0.01,0.01,0.03,0.02,0.04,0.04c0.01,0.01,0.03,0.03,0.04,0.04
			c0.01,0.01,0.03,0.03,0.04,0.04c0.01,0.01,0.03,0.03,0.04,0.04c0.01,0.01,0.03,0.03,0.04,0.04c0.01,0.01,0.03,0.03,0.04,0.04
			c0.01,0.01,0.03,0.03,0.04,0.04c0.01,0.01,0.03,0.03,0.04,0.04c0.01,0.01,0.03,0.03,0.04,0.04c0.01,0.01,0.03,0.03,0.04,0.04
			c0.01,0.01,0.03,0.03,0.04,0.04c0.01,0.01,0.03,0.03,0.04,0.04c0.01,0.01,0.03,0.03,0.04,0.04c0.01,0.01,0.03,0.03,0.04,0.04
			c0.01,0.01,0.03,0.03,0.04,0.04c0.01,0.01,0.03,0.03,0.04,0.04c0.01,0.01,0.03,0.02,0.04,0.04c0.01,0.01,0.03,0.03,0.04,0.04
			c0.01,0.01,0.03,0.03,0.04,0.04c0.01,0.01,0.03,0.03,0.04,0.04c0.01,0.01,0.03,0.03,0.04,0.04c0.01,0.01,0.03,0.03,0.04,0.04
			c0.01,0.01,0.03,0.02,0.04,0.04c0.01,0.01,0.03,0.03,0.04,0.04c0.01,0.01,0.03,0.03,0.04,0.04c0.01,0.01,0.03,0.03,0.04,0.04
			c0.01,0.01,0.03,0.02,0.04,0.04c0.01,0.01,0.03,0.03,0.04,0.04c0.01,0.01,0.03,0.03,0.04,0.04c0.01,0.01,0.03,0.03,0.04,0.04
			c0.01,0.01,0.03,0.03,0.04,0.04c0.01,0.01,0.03,0.03,0.04,0.04c0.01,0.01,0.03,0.02,0.04,0.04c0.01,0.01,0.03,0.03,0.04,0.04
			c0.01,0.01,0.03,0.03,0.04,0.04c0.01,0.01,0.03,0.03,0.04,0.04s0.03,0.03,0.04,0.04c0.01,0.01,0.03,0.03,0.04,0.04
			c0.01,0.01,0.03,0.03,0.04,0.04c0.01,0.01,0.03,0.02,0.04,0.04c0.01,0.01,0.03,0.03,0.04,0.04c0.01,0.01,0.03,0.03,0.04,0.04
			c0.01,0.01,0.03,0.03,0.04,0.04c0.01,0.01,0.03,0.03,0.04,0.04c0.01,0.01,0.03,0.03,0.04,0.04c0.01,0.01,0.03,0.02,0.04,0.04
			c0.01,0.01,0.03,0.03,0.04,0.04c0.01,0.01,0.03,0.03,0.04,0.04c0.01,0.01,0.03,0.03,0.04,0.04c0.01,0.01,0.03,0.03,0.04,0.04
			c0.01,0.01,0.03,0.03,0.04,0.04c0.01,0.01,0.03,0.03,0.04,0.04c0.01,0.01,0.03,0.03,0.04,0.04c0.01,0.01,0.03,0.03,0.04,0.04
			c0.01,0.01,0.03,0.03,0.04,0.04c0.01,0.01,0.03,0.03,0.04,0.04c0.01,0.01,0.03,0.03,0.04,0.04c0.01,0.01,0.03,0.03,0.04,0.04
			c0.01,0.01,0.03,0.03,0.04,0.04c0.01,0.01,0.03,0.03,0.04,0.04c0.01,0.01,0.03,0.03,0.04,0.04c0.01,0.01,0.03,0.02,0.04,0.04
			c0.01,0.01,0.03,0.03,0.04,0.04c0.01,0.01,0.03,0.03,0.04,0.04c0.01,0.01,0.03,0.03,0.04,0.04c0.01,0.01,0.03,0.03,0.04,0.04
			c0.01,0.01,0.03,0.03,0.04,0.04c0.01,0.01,0.03,0.02,0.04,0.04c0.01,0.01,0.03,0.03,0.04,0.04c0.01,0.01,0.03,0.03,0.04,0.04
			c0.01,0.01,0.03,0.03,0.04,0.04c0.01,0.01,0.03,0.02,0.04,0.04c0.01,0.01,0.03,0.03,0.04,0.04c0.01,0.01,0.03,0.03,0.04,0.04
			c0.01,0.01,0.03,0.03,0.04,0.04c0.01,0.01,0.03,0.03,0.04,0.04c0.01,0.01,0.03,0.03,0.04,0.04c0.01,0.01,0.03,0.02,0.04,0.04
			c0.01,0.01,0.03,0.03,0.04,0.04c0.01,0.01,0.03,0.03,0.04,0.04c0.01,0.01,0.03,0.03,0.04,0.04c0.01,0.01,0.03,0.03,0.04,0.04
			c0.01,0.01,0.03,0.03,0.04,0.04c0.01,0.01,0.03,0.03,0.04,0.04c0.01,0.01,0.03,0.03,0.04,0.04c0.01,0.01,0.03,0.03,0.04,0.04
			c0.01,0.01,0.03,0.03,0.04,0.04c0.01,0.01,0.03,0.03,0.04,0.04c0.01,0.01,0.03,0.03,0.04,0.04c0.01,0.01,0.03,0.03,0.04,0.04
			c0.01,0.01,0.03,0.02,0.04,0.04c0.01,0.01,0.03,0.03,0.04,0.04c0.01,0.01,0.03,0.03,0.04,0.04c0.01,0.01,0.03,0.03,0.04,0.04
			c0.01,0.01,0.03,0.03,0.04,0.04c0.01,0.01,0.03,0.03,0.04,0.04c0.01,0.01,0.03,0.03,0.04,0.04c0.01,0.01,0.03,0.03,0.04,0.04
			c0.01,0.01,0.03,0.03,0.04,0.04c0.01,0.01,0.03,0.03,0.04,0.04c0.01,0.01,0.03,0.03,0.04,0.04c0.01,0.01,0.03,0.03,0.04,0.04
			c0.01,0.01,0.03,0.03,0.04,0.04c0.01,0.01,0.03,0.03,0.04,0.04c0.01,0.01,0.03,0.03,0.04,0.04c0.01,0.01,0.03,0.03,0.04,0.04
			c0.01,0.01,0.03,0.02,0.04,0.04c0.01,0.01,0.03,0.03,0.04,0.04c0.01,0.01,0.03,0.03,0.04,0.04c0.01,0.01,0.03,0.03,0.04,0.04
			c0.01,0.01,0.03,0.03,0.04,0.04c0.01,0.01,0.03,0.03,0.04,0.04c0.01,0.01,0.03,0.02,0.04,0.04c0.01,0.01,0.03,0.03,0.04,0.04
			c0.01,0.01,0.03,0.03,0.04,0.04c0.01,0.01,0.03,0.03,0.04,0.04c0.01,0.01,0.03,0.02,0.04,0.04c0.01,0.01,0.03,0.03,0.04,0.04
			c0.01,0.01,0.03,0.03,0.04,0.04c0.01,0.01,0.03,0.03,0.04,0.04c0.01,0.01,0.03,0.03,0.04,0.04c0.01,0.01,0.03,0.03,0.04,0.04
			c0.01,0.01,0.03,0.02,0.04,0.04c0.01,0.01,0.03,0.03,0.04,0.04c0.01,0.01,0.03,0.03,0.04,0.04c0.01,0.01,0.03,0.03,0.04,0.04
			c0.01,0.01,0.03,0.03,0.04,0.04c0.01,0.01,0.03,0.03,0.04,0.04c0.01,0.01,0.03,0.03,0.04,0.04c0.01,0.01,0.03,0.03,0.04,0.04
			c0.01,0.01,0.03,0.03,0.04,0.04c0.01,0.01,0.03,0.03,0.04,0.04c0.01,0.01,0.03,0.03,0.04,0.04c0.01,0.01,0.03,0.03,0.04,0.04
			c0.01,0.01,0.03,0.03,0.04,0.04c0.01,0.01,0.03,0.03,0.04,0.04c0.01,0.01,0.03,0.03,0.04,0.04c0.01,0.01,0.03,0.03,0.04,0.04
			c0.01,0.01,0.03,0.03,0.04,0.04c0.01,0.01,0.03,0.03,0.04,0.04c0.01,0.01,0.03,0.03,0.04,0.04c0.01,0.01,0.03,0.03,0.04,0.04
			c0.01,0.01,0.03,0.03,0.04,0.04c0.01,0.01,0.03,0.03,0.04,0.04c0.01,0.01,0.03,0.03,0.04,0.04c0.01,0.01,0.03,0.03,0.04,0.04
			c0.01,0.01,0.03,0.03,0.04,0.04c0.01,0.01,0.03,0.03,0.04,0.04c0.01,0.01,0.03,0.03,0.04,0.04c0.01,0.01,0.03,0.03,0.04,0.04
			c0.01,0.01,0.03,0.03,0.04,0.04c0.01,0.01,0.03,0.02,0.04,0.04c0.01,0.01,0.03,0.03,0.04,0.04c0.01,0.01,0.03,0.03,0.04,0.04
			c0.01,0.01,0.03,0.03,0.04,0.04c0.01,0.01,0.03,0.03,0.04,0.04c0.01,0.01,0.03,0.03,0.04,0.04c0.01,0.01,0.03,0.02,0.04,0.04
			c0.01,0.01,0.03,0.03,0.04,0.04c0.01,0.01,0.03,0.03,0.04,0.04c0.01,0.01,0.03,0.03,0.04,0.04c0.01,0.01,0.03,0.02,0.04,0.04
			c0.01,0.01,0.03,0.03,0.04,0.04c0.01,0.01,0.03,0.03,0.04,0.04c0.01,0.01,0.03,0.03,0.04,0.04c0.01,0.01,0.03,0.03,0.04,0.04
			c0.01,0.01,0.03,0.03,0.04,0.04c0.01,0.01,0.03,0.02,0.04,0.04c0.01,0.01,0.03,0.03,0.04,0.04c0.01,0.01,0.03,0.03,0.04,0.04
			c0.01,0.01,0.03,0.03,0.04,0.04c0.01,0.01,0.03,0.03,0.04,0.04c0.01,0.01,0.03,0.03,0.04,0.04c0.01,0.01,0.03,0.03,0.04,0.04
			c0.01,0.01,0.03,0.03,0.04,0.04c0.01,0.01,0.03,0.03,0.04,0.04c0.01,0.01,0.03,0.03,0.04,0.04c0.01,0.01,0.03,0.03,0.04,0.04
			c0.01,0.01,0.03,0.03,0.04,0.04c0.01,0.01,0.03,0.03,0.04,0.04c0.01,0.01,0.03,0.03,0.04,0.04c0.01,0.01,0.03,0.03,0.04,0.04
			c0.01,0.01,0.03,0.03,0.04,0.04c0.01,0.01,0.03,0.02,0.04,0.04c0.01,0.01,0.03,0.03,0.04,0.04c0.01,0.01,0.03,0.03,0.04,0.04
			c0.01,0.01,0.03,0.03,0.04,0.04c0.01,0.01,0.03,0.03,0.04,0.04c0.01,0.01,0.03,0.03,0.04,0.04c0.01,0.01,0.03,0.03,0.04,0.04
			c0.01,0.01,0.03,0.03,0.04,0.04c0.01,0.01,0.03,0.03,0.04,0.04c0.01,0.01,0.03,0.03,0.04,0.04c0.01,0.01,0.03,0.03,0.04,0.04
			c0.01,0.01,0.03,0.03,0.04,0.04c0.01,0.01,0.03,0.03,0.04,0.04c0.01,0.01,0.03,0.02,0.04,0.04c0.01,0.01,0.03,0.03,0.04,0.04
			c0.01,0.01,0.03,0.03,0.04,0.04c0.01,0.01,0.03,0.03,0.04,0.04c0.01,0.01,0.03,0.03,0.04,0.04c0.01,0.01,0.03,0.03,0.04,0.04
			c0.01,0.01,0.03,0.02,0.04,0.04c0.01,0.01,0.03,0.03,0.04,0.04c0.01,0.01,0.03,0.03,0.04,0.04c0.01,0.01,0.03,0.03,0.04,0.04
			c0.01,0.01,0.03,0.02,0.04,0.04c0.01,0.01,0.03,0.03,0.04,0.04c0.01,0.01,0.03,0.03,0.04,0.04c0.01,0.01,0.03,0.03,0.04,0.04
			c0.01,0.01,0.03,0.03,0.04,0.04c0.01,0.01,0.03,0.03,0.04,0.04c0.01,0.01,0.03,0.02,0.04,0.04c0.01,0.01,0.03,0.03,0.04,0.04
			c0.01,0.01,0.03,0.03,0.04,0.04c3.31,3.31,7.27,5.49,11.83,6.56l-8.3,14.96c-1.03,1.86-1,4.12,0.08,5.96
			c0.27,0.47,0.61,0.88,0.98,1.25c0.01,0.01,0.03,0.03,0.04,0.04c0.01,0.01,0.03,0.03,0.04,0.04c0.01,0.01,0.03,0.03,0.04,0.04
			c0.01,0.01,0.03,0.03,0.04,0.04c0.01,0.01,0.03,0.03,0.04,0.04c0.01,0.01,0.03,0.03,0.04,0.04c0.01,0.01,0.03,0.03,0.04,0.04
			c0.01,0.01,0.03,0.03,0.04,0.04c0.01,0.01,0.03,0.03,0.04,0.04c0.01,0.01,0.03,0.03,0.04,0.04c0.01,0.01,0.03,0.03,0.04,0.04
			c0.01,0.01,0.03,0.03,0.04,0.04c0.01,0.01,0.03,0.03,0.04,0.04c0.01,0.01,0.03,0.03,0.04,0.04c0.01,0.01,0.03,0.03,0.04,0.04
			c0.01,0.01,0.03,0.03,0.04,0.04c0.01,0.01,0.03,0.03,0.04,0.04c0.01,0.01,0.03,0.03,0.04,0.04c0.01,0.01,0.03,0.03,0.04,0.04
			c0.01,0.01,0.03,0.03,0.04,0.04c0.01,0.01,0.03,0.03,0.04,0.04c0.01,0.01,0.03,0.03,0.04,0.04c0.01,0.01,0.03,0.03,0.04,0.04
			c0.01,0.01,0.03,0.03,0.04,0.04c0.01,0.01,0.03,0.03,0.04,0.04c0.01,0.01,0.03,0.03,0.04,0.04c0.01,0.01,0.03,0.03,0.04,0.04
			c0.01,0.01,0.03,0.03,0.04,0.04c0.01,0.01,0.03,0.03,0.04,0.04c0.01,0.01,0.03,0.03,0.04,0.04c0.01,0.01,0.03,0.03,0.04,0.04
			c0.01,0.01,0.03,0.03,0.04,0.04c0.01,0.01,0.03,0.03,0.04,0.04c0.01,0.01,0.03,0.03,0.04,0.04c0.01,0.01,0.03,0.03,0.04,0.04
			c0.01,0.01,0.03,0.03,0.04,0.04c0.01,0.01,0.03,0.03,0.04,0.04c0.01,0.01,0.03,0.03,0.04,0.04c0.01,0.01,0.03,0.03,0.04,0.04
			c0.01,0.01,0.03,0.03,0.04,0.04c0.01,0.01,0.03,0.03,0.04,0.04c0.01,0.01,0.03,0.03,0.04,0.04c0.01,0.01,0.03,0.03,0.04,0.04
			c0.01,0.01,0.03,0.03,0.04,0.04c0.01,0.01,0.03,0.03,0.04,0.04c0.01,0.01,0.03,0.03,0.04,0.04c0.01,0.01,0.03,0.03,0.04,0.04
			c0.01,0.01,0.03,0.03,0.04,0.04c0.01,0.01,0.03,0.03,0.04,0.04c0.01,0.01,0.03,0.03,0.04,0.04c0.01,0.01,0.03,0.03,0.04,0.04
			c0.01,0.01,0.03,0.03,0.04,0.04c0.01,0.01,0.03,0.03,0.04,0.04c0.01,0.01,0.03,0.03,0.04,0.04c0.01,0.01,0.03,0.03,0.04,0.04
			c0.01,0.01,0.03,0.03,0.04,0.04c0.01,0.01,0.03,0.03,0.04,0.04c0.01,0.01,0.03,0.03,0.04,0.04c0.01,0.01,0.03,0.03,0.04,0.04
			c0.01,0.01,0.03,0.03,0.04,0.04c0.01,0.01,0.03,0.03,0.04,0.04c0.01,0.01,0.03,0.03,0.04,0.04c0.01,0.01,0.03,0.03,0.04,0.04
			c0.01,0.01,0.03,0.03,0.04,0.04c0.01,0.01,0.03,0.03,0.04,0.04c0.01,0.01,0.03,0.03,0.04,0.04c0.01,0.01,0.03,0.03,0.04,0.04
			c0.01,0.01,0.03,0.03,0.04,0.04c0.01,0.01,0.03,0.03,0.04,0.04c0.01,0.01,0.03,0.03,0.04,0.04c0.01,0.01,0.03,0.03,0.04,0.04
			c0.01,0.01,0.03,0.03,0.04,0.04c0.01,0.01,0.03,0.03,0.04,0.04c0.01,0.01,0.03,0.03,0.04,0.04c0.01,0.01,0.03,0.03,0.04,0.04
			c0.01,0.01,0.03,0.03,0.04,0.04c0.01,0.01,0.03,0.03,0.04,0.04c0.01,0.01,0.03,0.03,0.04,0.04c0.01,0.01,0.03,0.03,0.04,0.04
			c0.01,0.01,0.03,0.03,0.04,0.04c0.01,0.01,0.03,0.03,0.04,0.04c0.01,0.01,0.03,0.03,0.04,0.04c0.01,0.01,0.03,0.03,0.04,0.04
			c0.01,0.01,0.03,0.03,0.04,0.04c0.01,0.01,0.03,0.03,0.04,0.04c0.01,0.01,0.03,0.03,0.04,0.04c0.01,0.01,0.03,0.03,0.04,0.04
			c0.01,0.01,0.03,0.03,0.04,0.04c0.01,0.01,0.03,0.03,0.04,0.04c0.01,0.01,0.03,0.03,0.04,0.04c0.01,0.01,0.03,0.03,0.04,0.04
			c0.01,0.01,0.03,0.03,0.04,0.04c0.01,0.01,0.03,0.03,0.04,0.04c0.01,0.01,0.03,0.03,0.04,0.04c0.01,0.01,0.03,0.03,0.04,0.04
			c0.01,0.01,0.03,0.03,0.04,0.04c0.01,0.01,0.03,0.03,0.04,0.04c0.01,0.01,0.03,0.03,0.04,0.04c0.01,0.01,0.03,0.03,0.04,0.04
			c0.01,0.01,0.03,0.03,0.04,0.04c0.01,0.01,0.03,0.03,0.04,0.04c0.01,0.01,0.03,0.03,0.04,0.04c0.01,0.01,0.03,0.03,0.04,0.04
			c0.01,0.01,0.03,0.03,0.04,0.04c0.01,0.01,0.03,0.03,0.04,0.04c0.01,0.01,0.03,0.03,0.04,0.04c0.01,0.01,0.03,0.03,0.04,0.04
			c0.01,0.01,0.03,0.03,0.04,0.04c0.01,0.01,0.03,0.03,0.04,0.04c0.01,0.01,0.03,0.03,0.04,0.04c0.01,0.01,0.03,0.03,0.04,0.04
			c0.01,0.01,0.03,0.03,0.04,0.04c0.01,0.01,0.03,0.03,0.04,0.04c0.01,0.01,0.03,0.03,0.04,0.04c0.01,0.01,0.03,0.03,0.04,0.04
			c0.01,0.01,0.03,0.03,0.04,0.04c0.01,0.01,0.03,0.03,0.04,0.04c0.01,0.01,0.03,0.03,0.04,0.04c0.01,0.01,0.03,0.03,0.04,0.04
			c0.01,0.01,0.03,0.03,0.04,0.04c0.01,0.01,0.03,0.03,0.04,0.04c0.01,0.01,0.03,0.03,0.04,0.04c0.01,0.01,0.03,0.03,0.04,0.04
			c0.01,0.01,0.03,0.03,0.04,0.04c0.01,0.01,0.03,0.03,0.04,0.04c0.01,0.01,0.03,0.03,0.04,0.04c0.01,0.01,0.03,0.03,0.04,0.04
			c0.01,0.01,0.03,0.03,0.04,0.04c0.01,0.01,0.03,0.03,0.04,0.04c0.01,0.01,0.03,0.03,0.04,0.04c0.01,0.01,0.03,0.03,0.04,0.04
			c0.01,0.01,0.03,0.03,0.04,0.04c0.01,0.01,0.03,0.03,0.04,0.04c0.01,0.01,0.03,0.03,0.04,0.04c0.01,0.01,0.03,0.03,0.04,0.04
			c0.01,0.01,0.03,0.03,0.04,0.04c0.01,0.01,0.03,0.03,0.04,0.04c0.01,0.01,0.03,0.03,0.04,0.04c0.01,0.01,0.03,0.03,0.04,0.04
			c0.01,0.01,0.03,0.03,0.04,0.04c0.01,0.01,0.03,0.03,0.04,0.04c0.01,0.01,0.03,0.03,0.04,0.04c0.01,0.01,0.03,0.03,0.04,0.04
			c0.01,0.01,0.03,0.03,0.04,0.04c0.01,0.01,0.03,0.03,0.04,0.04c0.01,0.01,0.03,0.03,0.04,0.04c0.01,0.01,0.03,0.03,0.04,0.04
			c0.01,0.01,0.03,0.03,0.04,0.04c0.01,0.01,0.03,0.03,0.04,0.04c0.01,0.01,0.03,0.03,0.04,0.04c0.01,0.01,0.03,0.03,0.04,0.04
			c0.01,0.01,0.03,0.03,0.04,0.04c0.01,0.01,0.03,0.03,0.04,0.04c0.01,0.01,0.03,0.03,0.04,0.04c0.01,0.01,0.03,0.03,0.04,0.04
			c0.01,0.01,0.03,0.03,0.04,0.04c0.01,0.01,0.03,0.03,0.04,0.04c0.01,0.01,0.03,0.03,0.04,0.04c0.01,0.01,0.03,0.03,0.04,0.04
			c0.01,0.01,0.03,0.03,0.04,0.04c0.01,0.01,0.03,0.03,0.04,0.04c0.01,0.01,0.03,0.03,0.04,0.04c0.01,0.01,0.03,0.03,0.04,0.04
			c0.01,0.01,0.03,0.03,0.04,0.04c0.01,0.01,0.03,0.03,0.04,0.04c0.01,0.01,0.03,0.03,0.04,0.04c0.01,0.01,0.03,0.03,0.04,0.04
			c0.01,0.01,0.03,0.03,0.04,0.04c0.01,0.01,0.03,0.03,0.04,0.04c0.01,0.01,0.03,0.03,0.04,0.04c0.01,0.01,0.03,0.03,0.04,0.04
			c0.01,0.01,0.03,0.03,0.04,0.04c0.01,0.01,0.03,0.03,0.04,0.04c0.01,0.01,0.03,0.03,0.04,0.04c0.01,0.01,0.03,0.03,0.04,0.04
			c0.01,0.01,0.03,0.03,0.04,0.04c0.01,0.01,0.03,0.03,0.04,0.04c0.01,0.01,0.03,0.03,0.04,0.04c0.01,0.01,0.03,0.03,0.04,0.04
			c0.01,0.01,0.03,0.03,0.04,0.04c0.01,0.01,0.03,0.03,0.04,0.04c0.01,0.01,0.03,0.03,0.04,0.04c0.01,0.01,0.03,0.03,0.04,0.04
			c0.01,0.01,0.03,0.03,0.04,0.04c0.01,0.01,0.03,0.03,0.04,0.04c0.01,0.01,0.03,0.03,0.04,0.04c0.01,0.01,0.03,0.03,0.04,0.04
			c0.01,0.01,0.03,0.03,0.04,0.04c0.01,0.01,0.03,0.03,0.04,0.04c0.01,0.01,0.03,0.03,0.04,0.04c0.01,0.01,0.03,0.03,0.04,0.04
			c0.01,0.01,0.03,0.03,0.04,0.04c0.01,0.01,0.03,0.03,0.04,0.04c0.01,0.01,0.03,0.03,0.04,0.04c0.01,0.01,0.03,0.03,0.04,0.04
			c0.01,0.01,0.03,0.03,0.04,0.04c0.01,0.01,0.03,0.03,0.04,0.04c0.01,0.01,0.03,0.03,0.04,0.04c0.01,0.01,0.03,0.03,0.04,0.04
			c0.01,0.01,0.03,0.03,0.04,0.04c0.01,0.01,0.03,0.03,0.04,0.04c0.01,0.01,0.03,0.03,0.04,0.04c0.01,0.01,0.03,0.03,0.04,0.04
			c0.01,0.01,0.03,0.03,0.04,0.04c0.01,0.01,0.03,0.03,0.04,0.04c0.01,0.01,0.03,0.03,0.04,0.04c0.01,0.01,0.03,0.03,0.04,0.04
			c0.01,0.01,0.03,0.03,0.04,0.04c0.01,0.01,0.03,0.03,0.04,0.04c0.01,0.01,0.03,0.03,0.04,0.04c0.01,0.01,0.03,0.03,0.04,0.04
			c0.01,0.01,0.03,0.03,0.04,0.04c0.01,0.01,0.03,0.03,0.04,0.04c0.01,0.01,0.03,0.03,0.04,0.04c0.01,0.01,0.03,0.03,0.04,0.04
			c0.01,0.01,0.03,0.03,0.04,0.04c0.01,0.01,0.03,0.03,0.04,0.04c0.01,0.01,0.03,0.03,0.04,0.04c0.01,0.01,0.03,0.03,0.04,0.04
			c0.01,0.01,0.03,0.03,0.04,0.04c0.01,0.01,0.03,0.03,0.04,0.04c0.01,0.01,0.03,0.03,0.04,0.04c0.01,0.01,0.03,0.03,0.04,0.04
			c0.01,0.01,0.03,0.03,0.04,0.04c0.01,0.01,0.03,0.03,0.04,0.04c0.01,0.01,0.03,0.03,0.04,0.04c0.01,0.01,0.03,0.03,0.04,0.04
			c0.01,0.01,0.03,0.03,0.04,0.04c0.01,0.01,0.03,0.03,0.04,0.04c0.01,0.01,0.03,0.03,0.04,0.04c0.01,0.01,0.03,0.03,0.04,0.04
			c0.01,0.01,0.03,0.03,0.04,0.04c0.01,0.01,0.03,0.03,0.04,0.04c0.01,0.01,0.03,0.03,0.04,0.04c0.01,0.01,0.03,0.03,0.04,0.04
			c0.01,0.01,0.03,0.03,0.04,0.04c0.01,0.01,0.03,0.03,0.04,0.04c0.01,0.01,0.03,0.03,0.04,0.04c0.01,0.01,0.03,0.03,0.04,0.04
			c0.01,0.01,0.03,0.03,0.04,0.04c0.01,0.01,0.03,0.03,0.04,0.04c0.01,0.01,0.03,0.03,0.04,0.04c0.01,0.01,0.03,0.03,0.04,0.04
			c0.01,0.01,0.03,0.03,0.04,0.04c0.01,0.01,0.03,0.03,0.04,0.04c0.01,0.01,0.03,0.03,0.04,0.04c0.01,0.01,0.03,0.03,0.04,0.04
			c0.01,0.01,0.03,0.03,0.04,0.04c0.01,0.01,0.03,0.03,0.04,0.04c0.01,0.01,0.03,0.03,0.04,0.04c0.01,0.01,0.03,0.03,0.04,0.04
			c0.01,0.01,0.03,0.03,0.04,0.04c0.01,0.01,0.03,0.03,0.04,0.04c0.01,0.01,0.03,0.03,0.04,0.04c0.01,0.01,0.03,0.03,0.04,0.04
			c0.01,0.01,0.03,0.03,0.04,0.04c1.11,1.1,2.62,1.74,4.23,1.74h17.4c2.18,0,4.19-1.18,5.25-3.09l9.98-17.99
			c0.55,0.86,1.14,1.7,1.78,2.49c0.64,0.8,1.32,1.54,2.02,2.24c0.01,0.01,0.03,0.03,0.04,0.04c0.01,0.01,0.03,0.03,0.04,0.04
			c0.01,0.01,0.03,0.03,0.04,0.04c0.01,0.01,0.03,0.03,0.04,0.04c0.01,0.01,0.03,0.03,0.04,0.04c0.01,0.01,0.03,0.03,0.04,0.04
			c0.01,0.01,0.03,0.03,0.04,0.04c0.01,0.01,0.03,0.03,0.04,0.04c0.01,0.01,0.03,0.03,0.04,0.04c0.01,0.01,0.03,0.03,0.04,0.04
			c0.01,0.01,0.03,0.03,0.04,0.04c0.01,0.01,0.03,0.03,0.04,0.04c0.01,0.01,0.03,0.02,0.04,0.04c0.01,0.01,0.03,0.03,0.04,0.04
			c0.01,0.01,0.03,0.03,0.04,0.04c0.01,0.01,0.03,0.03,0.04,0.04c0.01,0.01,0.03,0.03,0.04,0.04c0.01,0.01,0.03,0.03,0.04,0.04
			c0.01,0.01,0.03,0.02,0.04,0.04c0.01,0.01,0.03,0.03,0.04,0.04c0.01,0.01,0.03,0.03,0.04,0.04c0.01,0.01,0.03,0.03,0.04,0.04
			c0.01,0.01,0.03,0.02,0.04,0.04c0.01,0.01,0.03,0.03,0.04,0.04c0.01,0.01,0.03,0.03,0.04,0.04c0.01,0.01,0.03,0.03,0.04,0.04
			c0.01,0.01,0.03,0.03,0.04,0.04c0.01,0.01,0.03,0.03,0.04,0.04c0.01,0.01,0.03,0.03,0.04,0.04c0.01,0.01,0.03,0.03,0.04,0.04
			c0.01,0.01,0.03,0.03,0.04,0.04c0.01,0.01,0.03,0.02,0.04,0.04c0.01,0.01,0.03,0.03,0.04,0.04c0.01,0.01,0.03,0.03,0.04,0.04
			c0.01,0.01,0.03,0.03,0.04,0.04c0.01,0.01,0.03,0.02,0.04,0.04c0.01,0.01,0.03,0.03,0.04,0.04c0.01,0.01,0.03,0.03,0.04,0.04
			c0.01,0.01,0.03,0.03,0.04,0.04c0.01,0.01,0.03,0.03,0.04,0.04c0.01,0.01,0.03,0.03,0.04,0.04c0.01,0.01,0.03,0.02,0.04,0.04
			c0.01,0.01,0.03,0.03,0.04,0.04c0.01,0.01,0.03,0.03,0.04,0.04c0.01,0.01,0.03,0.03,0.04,0.04c0.01,0.01,0.03,0.03,0.04,0.04
			c0.01,0.01,0.03,0.03,0.04,0.04c0.01,0.01,0.03,0.03,0.04,0.04c0.01,0.01,0.03,0.03,0.04,0.04c0.01,0.01,0.03,0.03,0.04,0.04
			c0.01,0.01,0.03,0.03,0.04,0.04c0.01,0.01,0.03,0.03,0.04,0.04c0.01,0.01,0.03,0.03,0.04,0.04c0.01,0.01,0.03,0.03,0.04,0.04
			c0.01,0.01,0.03,0.03,0.04,0.04c0.01,0.01,0.03,0.03,0.04,0.04c0.01,0.01,0.03,0.03,0.04,0.04c0.01,0.01,0.03,0.02,0.04,0.04
			c0.01,0.01,0.03,0.03,0.04,0.04c0.01,0.01,0.03,0.03,0.04,0.04c0.01,0.01,0.03,0.03,0.04,0.04c0.01,0.01,0.03,0.03,0.04,0.04
			c0.01,0.01,0.03,0.03,0.04,0.04c0.01,0.01,0.03,0.02,0.04,0.04c0.01,0.01,0.03,0.03,0.04,0.04c0.01,0.01,0.03,0.03,0.04,0.04
			c0.01,0.01,0.03,0.03,0.04,0.04c0.01,0.01,0.03,0.02,0.04,0.04c0.01,0.01,0.03,0.03,0.04,0.04c0.01,0.01,0.03,0.03,0.04,0.04
			c0.01,0.01,0.03,0.03,0.04,0.04c0.01,0.01,0.03,0.03,0.04,0.04c0.01,0.01,0.03,0.03,0.04,0.04c0.01,0.01,0.03,0.02,0.04,0.04
			c0.01,0.01,0.03,0.03,0.04,0.04c0.01,0.01,0.03,0.03,0.04,0.04c0.01,0.01,0.03,0.03,0.04,0.04s0.03,0.03,0.04,0.04
			c0.01,0.01,0.03,0.03,0.04,0.04c0.01,0.01,0.03,0.03,0.04,0.04c0.01,0.01,0.03,0.02,0.04,0.04c0.01,0.01,0.03,0.03,0.04,0.04
			c0.01,0.01,0.03,0.03,0.04,0.04c0.01,0.01,0.03,0.03,0.04,0.04c0.01,0.01,0.03,0.03,0.04,0.04c0.01,0.01,0.03,0.03,0.04,0.04
			c0.01,0.01,0.03,0.02,0.04,0.04c0.01,0.01,0.03,0.03,0.04,0.04c0.01,0.01,0.03,0.03,0.04,0.04c0.01,0.01,0.03,0.03,0.04,0.04
			c0.01,0.01,0.03,0.03,0.04,0.04c0.01,0.01,0.03,0.03,0.04,0.04c0.01,0.01,0.03,0.03,0.04,0.04c0.01,0.01,0.03,0.03,0.04,0.04
			c0.01,0.01,0.03,0.03,0.04,0.04c0.01,0.01,0.03,0.03,0.04,0.04c0.01,0.01,0.03,0.03,0.04,0.04c0.01,0.01,0.03,0.03,0.04,0.04
			c0.01,0.01,0.03,0.03,0.04,0.04c0.01,0.01,0.03,0.03,0.04,0.04c0.01,0.01,0.03,0.03,0.04,0.04c0.01,0.01,0.03,0.03,0.04,0.04
			c0.01,0.01,0.03,0.02,0.04,0.04c0.01,0.01,0.03,0.03,0.04,0.04c0.01,0.01,0.03,0.03,0.04,0.04c0.01,0.01,0.03,0.03,0.04,0.04
			c0.01,0.01,0.03,0.03,0.04,0.04c0.01,0.01,0.03,0.03,0.04,0.04c0.01,0.01,0.03,0.02,0.04,0.04c0.01,0.01,0.03,0.03,0.04,0.04
			c0.01,0.01,0.03,0.03,0.04,0.04c0.01,0.01,0.03,0.03,0.04,0.04c0.01,0.01,0.03,0.02,0.04,0.04c0.01,0.01,0.03,0.03,0.04,0.04
			c0.01,0.01,0.03,0.03,0.04,0.04c0.01,0.01,0.03,0.03,0.04,0.04c0.01,0.01,0.03,0.03,0.04,0.04c0.01,0.01,0.03,0.03,0.04,0.04
			c0.01,0.01,0.03,0.02,0.04,0.04c0.01,0.01,0.03,0.03,0.04,0.04c0.01,0.01,0.03,0.03,0.04,0.04c0.01,0.01,0.03,0.03,0.04,0.04
			c0.01,0.01,0.03,0.03,0.04,0.04c0.01,0.01,0.03,0.03,0.04,0.04c0.01,0.01,0.03,0.03,0.04,0.04c0.01,0.01,0.03,0.03,0.04,0.04
			c0.01,0.01,0.03,0.03,0.04,0.04c0.01,0.01,0.03,0.03,0.04,0.04c0.01,0.01,0.03,0.03,0.04,0.04c0.01,0.01,0.03,0.03,0.04,0.04
			c0.01,0.01,0.03,0.03,0.04,0.04c0.01,0.01,0.03,0.02,0.04,0.04c0.01,0.01,0.03,0.03,0.04,0.04c0.01,0.01,0.03,0.03,0.04,0.04
			c0.01,0.01,0.03,0.03,0.04,0.04c0.01,0.01,0.03,0.03,0.04,0.04c0.01,0.01,0.03,0.03,0.04,0.04c0.01,0.01,0.03,0.03,0.04,0.04
			c0.01,0.01,0.03,0.03,0.04,0.04c0.01,0.01,0.03,0.03,0.04,0.04c0.01,0.01,0.03,0.03,0.04,0.04c0.01,0.01,0.03,0.03,0.04,0.04
			c0.01,0.01,0.03,0.03,0.04,0.04c0.01,0.01,0.03,0.03,0.04,0.04c0.01,0.01,0.03,0.03,0.04,0.04c0.01,0.01,0.03,0.03,0.04,0.04
			c0.01,0.01,0.03,0.03,0.04,0.04c0.01,0.01,0.03,0.02,0.04,0.04c0.01,0.01,0.03,0.03,0.04,0.04c0.01,0.01,0.03,0.03,0.04,0.04
			c0.01,0.01,0.03,0.03,0.04,0.04c0.01,0.01,0.03,0.03,0.04,0.04c0.01,0.01,0.03,0.03,0.04,0.04c0.01,0.01,0.03,0.02,0.04,0.04
			c0.01,0.01,0.03,0.03,0.04,0.04c0.01,0.01,0.03,0.03,0.04,0.04c0.01,0.01,0.03,0.03,0.04,0.04c0.01,0.01,0.03,0.02,0.04,0.04
			c0.01,0.01,0.03,0.03,0.04,0.04c0.01,0.01,0.03,0.03,0.04,0.04c0.01,0.01,0.03,0.03,0.04,0.04c0.01,0.01,0.03,0.03,0.04,0.04
			c0.01,0.01,0.03,0.03,0.04,0.04c0.01,0.01,0.03,0.02,0.04,0.04c0.01,0.01,0.03,0.03,0.04,0.04c0.01,0.01,0.03,0.03,0.04,0.04
			c0.01,0.01,0.03,0.03,0.04,0.04c0.01,0.01,0.03,0.03,0.04,0.04c0.01,0.01,0.03,0.03,0.04,0.04c0.01,0.01,0.03,0.03,0.04,0.04
			c0.01,0.01,0.03,0.03,0.04,0.04c0.01,0.01,0.03,0.03,0.04,0.04c0.01,0.01,0.03,0.03,0.04,0.04c0.01,0.01,0.03,0.03,0.04,0.04
			c0.01,0.01,0.03,0.03,0.04,0.04c0.01,0.01,0.03,0.03,0.04,0.04c0.01,0.01,0.03,0.03,0.04,0.04c0.01,0.01,0.03,0.03,0.04,0.04
			c0.01,0.01,0.03,0.03,0.04,0.04c0.01,0.01,0.03,0.03,0.04,0.04c0.01,0.01,0.03,0.03,0.04,0.04c0.01,0.01,0.03,0.03,0.04,0.04
			c0.01,0.01,0.03,0.03,0.04,0.04c0.01,0.01,0.03,0.03,0.04,0.04c0.01,0.01,0.03,0.03,0.04,0.04c0.01,0.01,0.03,0.03,0.04,0.04
			c0.01,0.01,0.03,0.03,0.04,0.04c0.01,0.01,0.03,0.03,0.04,0.04c0.01,0.01,0.03,0.03,0.04,0.04c0.01,0.01,0.03,0.03,0.04,0.04
			c0.01,0.01,0.03,0.03,0.04,0.04c0.01,0.01,0.03,0.03,0.04,0.04c0.01,0.01,0.03,0.02,0.04,0.04c0.01,0.01,0.03,0.03,0.04,0.04
			c0.01,0.01,0.03,0.03,0.04,0.04c0.01,0.01,0.03,0.03,0.04,0.04c0.01,0.01,0.03,0.03,0.04,0.04c0.01,0.01,0.03,0.03,0.04,0.04
			c0.01,0.01,0.03,0.02,0.04,0.04c0.01,0.01,0.03,0.03,0.04,0.04c0.01,0.01,0.03,0.03,0.04,0.04c0.01,0.01,0.03,0.03,0.04,0.04
			c0.01,0.01,0.03,0.02,0.04,0.04c0.01,0.01,0.03,0.03,0.04,0.04c0.01,0.01,0.03,0.03,0.04,0.04c0.01,0.01,0.03,0.03,0.04,0.04
			c0.01,0.01,0.03,0.03,0.04,0.04c0.01,0.01,0.03,0.03,0.04,0.04c0.01,0.01,0.03,0.02,0.04,0.04c0.01,0.01,0.03,0.03,0.04,0.04
			c0.01,0.01,0.03,0.03,0.04,0.04c0.01,0.01,0.03,0.03,0.04,0.04c0.01,0.01,0.03,0.03,0.04,0.04c0.01,0.01,0.03,0.03,0.04,0.04
			c0.01,0.01,0.03,0.03,0.04,0.04c0.01,0.01,0.03,0.03,0.04,0.04c0.01,0.01,0.03,0.03,0.04,0.04c0.01,0.01,0.03,0.03,0.04,0.04
			c0.01,0.01,0.03,0.03,0.04,0.04c0.01,0.01,0.03,0.03,0.04,0.04c0.01,0.01,0.03,0.03,0.04,0.04c0.01,0.01,0.03,0.03,0.04,0.04
			c0.01,0.01,0.03,0.03,0.04,0.04c0.01,0.01,0.03,0.03,0.04,0.04c0.01,0.01,0.03,0.02,0.04,0.04c0.01,0.01,0.03,0.03,0.04,0.04
			c0.01,0.01,0.03,0.03,0.04,0.04c0.01,0.01,0.03,0.03,0.04,0.04c0.01,0.01,0.03,0.03,0.04,0.04c0.01,0.01,0.03,0.03,0.04,0.04
			c0.01,0.01,0.03,0.03,0.04,0.04c0.01,0.01,0.03,0.03,0.04,0.04c0.01,0.01,0.03,0.03,0.04,0.04c0.01,0.01,0.03,0.03,0.04,0.04
			c0.01,0.01,0.03,0.03,0.04,0.04c0.01,0.01,0.03,0.03,0.04,0.04c0.01,0.01,0.03,0.03,0.04,0.04c0.01,0.01,0.03,0.02,0.04,0.04
			c0.01,0.01,0.03,0.03,0.04,0.04c0.01,0.01,0.03,0.03,0.04,0.04c0.01,0.01,0.03,0.03,0.04,0.04c0.01,0.01,0.03,0.03,0.04,0.04
			c0.01,0.01,0.03,0.03,0.04,0.04c0.01,0.01,0.03,0.02,0.04,0.04c0.01,0.01,0.03,0.03,0.04,0.04c0.01,0.01,0.03,0.03,0.04,0.04
			c0.01,0.01,0.03,0.03,0.04,0.04c0.01,0.01,0.03,0.02,0.04,0.04c0.01,0.01,0.03,0.03,0.04,0.04c0.01,0.01,0.03,0.03,0.04,0.04
			c0.01,0.01,0.03,0.03,0.04,0.04c0.01,0.01,0.03,0.03,0.04,0.04c0.01,0.01,0.03,0.03,0.04,0.04c0.01,0.01,0.03,0.02,0.04,0.04
			c0.01,0.01,0.03,0.03,0.04,0.04c0.01,0.01,0.03,0.03,0.04,0.04c4.87,4.86,11.13,7.32,18.66,7.32c8.95,0,16.06-3.11,21.12-9.24
			c4.78-5.79,7.2-13.77,7.2-23.71C360.88,329.6,358.37,321.72,353.44,315.83z"/>
	</g>
	<g>
		<path class="st1" d="M279.72,295.15c0,8.59-1.93,15.24-5.8,19.95c-3.87,4.71-9.38,7.06-16.52,7.06c-6.72,0-12.04-2.43-15.97-7.29
			s-5.89-11.43-5.89-19.72c0-8.59,1.91-15.21,5.74-19.83s9.2-6.94,16.11-6.94c6.84,0,12.27,2.4,16.29,7.21
			S279.72,286.91,279.72,295.15z M253.18,295.38c0,4.49,0.37,7.73,1.11,9.73s1.86,2.99,3.34,2.99s2.59-0.98,3.31-2.93
			c0.72-1.95,1.08-5.21,1.08-9.79c0-4.49-0.36-7.73-1.08-9.73s-1.83-2.99-3.31-2.99c-1.52,0-2.65,1.02-3.37,3.05
			C253.54,287.75,253.18,290.97,253.18,295.38z M322.43,269.6l-47.52,85.66h-17.4l47.52-85.66H322.43z M344.88,329.25
			c0,8.55-1.94,15.19-5.83,19.89c-3.89,4.71-9.38,7.06-16.49,7.06c-6.72,0-12.04-2.43-15.97-7.29s-5.89-11.42-5.89-19.66
			c0-8.59,1.91-15.21,5.74-19.83s9.2-6.94,16.11-6.94c6.84,0,12.27,2.4,16.29,7.21S344.88,321.01,344.88,329.25z M318.33,329.48
			c0,4.49,0.37,7.73,1.11,9.73s1.86,2.99,3.34,2.99c1.68,0,2.84-1.14,3.49-3.43s0.97-5.38,0.97-9.29c0-3.91-0.32-7-0.97-9.29
			s-1.81-3.43-3.49-3.43c-1.52,0-2.65,1.02-3.37,3.05C318.69,321.85,318.33,325.07,318.33,329.48z"/>
	</g>
</g>
<g>
	<rect x="0.21" y="-0.63" class="st12" width="400" height="400"/>
</g>
<g>
	<g>
		<path class="st13" d="M192.8,283.59c2.98,0,5.4-2.42,5.4-5.4c0-0.99,0.81-1.8,1.8-1.8s1.8,0.81,1.8,1.8c0,2.98,2.42,5.4,5.4,5.4
			c0.99,0,1.8,0.81,1.8,1.8s-0.81,1.8-1.8,1.8c-2.98,0-5.4,2.42-5.4,5.4c0,0.99-0.81,1.8-1.8,1.8s-1.8-0.81-1.8-1.8
			c0-2.98-2.42-5.4-5.4-5.4c-0.99,0-1.8-0.81-1.8-1.8S191.81,283.59,192.8,283.59z"/>
	</g>
</g>
<g>
	<g>
		<circle class="st13" cx="58.14" cy="86.22" r="3"/>
	</g>
</g>
<g>
	<g>
		<circle class="st13" cx="99.21" cy="100.75" r="3"/>
	</g>
</g>
<g>
	<g>
		<circle class="st13" cx="36.86" cy="159.37" r="3"/>
	</g>
</g>
<g>
	<g>
		<circle class="st13" cx="109.21" cy="49.37" r="3"/>
	</g>
</g>
<g>
	<g>
		<circle class="st13" cx="106.21" cy="168.37" r="3"/>
	</g>
</g>
<g>
	<g>
		<circle class="st13" cx="222.21" cy="254.37" r="3"/>
	</g>
</g>
<g>
	<g>
		<circle class="st13" cx="374.21" cy="247.37" r="3"/>
	</g>
</g>
<g>
	<g>
		<circle class="st13" cx="209" cy="330.7" r="3"/>
	</g>
</g>
<g>
	<g>
		<circle class="st13" cx="185.21" cy="247.37" r="3"/>
	</g>
</g>
<g>
	<circle class="st13" cx="62.64" cy="200.37" r="4.5"/>
</g>
<g>
	<circle class="st13" cx="360.88" cy="285.39" r="4.5"/>
</g>
<path class="st13" d="M80.14,130.37h-6v-6c0-1.66-1.34-3-3-3s-3,1.34-3,3v6h-6c-1.66,0-3,1.34-3,3s1.34,3,3,3h6v6c0,1.66,1.34,3,3,3
	s3-1.34,3-3v-6h6c1.66,0,3-1.34,3-3S81.8,130.37,80.14,130.37z"/>
</svg>
