<?xml version="1.0" encoding="utf-8"?>
<!-- Generator: Adobe Illustrator 25.2.3, SVG Export Plug-In . SVG Version: 6.00 Build 0)  -->
<svg version="1.1" id="google-keyword-planner" xmlns="http://www.w3.org/2000/svg" xmlns:xlink="http://www.w3.org/1999/xlink"
	 x="0px" y="0px" viewBox="0 0 400 400" style="enable-background:new 0 0 400 400;" xml:space="preserve">
<style type="text/css">
	.st0{fill-rule:evenodd;clip-rule:evenodd;fill:#3E82F1;}
	.st1{fill-rule:evenodd;clip-rule:evenodd;fill:#32A753;}
	.st2{fill-rule:evenodd;clip-rule:evenodd;fill:#F9BB00;}
	.st3{fill-rule:evenodd;clip-rule:evenodd;fill:#E74235;}
	.st4{fill:#515979;}
	.st5{fill:#8988C9;}
	.st6{fill:#C7BCFF;}
	.st7{fill:#FFFFFF;}
	.st8{fill:#B29D90;}
	.st9{fill:#D8EBFB;}
	.st10{fill:#BAD2E1;}
	.st11{fill:#F89D81;}
	.st12{fill:#EF7D7D;}
</style>
<g>
	<g>
		<path class="st0" d="M123,114.04c0-3.26-0.29-6.39-0.83-9.39H78.92v17.76h24.71c-1.06,5.74-4.3,10.6-9.16,13.86v11.52h14.84
			C117.99,139.8,123,128.03,123,114.04L123,114.04L123,114.04z M123,114.04"/>
	</g>
	<g>
		<path class="st1" d="M78.92,158.92c12.4,0,22.79-4.11,30.39-11.12l-14.84-11.52c-4.11,2.76-9.37,4.38-15.55,4.38
			c-11.96,0-22.08-8.08-25.69-18.93H37.88v11.9C45.44,148.63,60.97,158.92,78.92,158.92L78.92,158.92L78.92,158.92z M78.92,158.92"
			/>
	</g>
	<g>
		<path class="st2" d="M53.22,121.72c-0.92-2.75-1.44-5.7-1.44-8.72c0-3.03,0.52-5.97,1.44-8.72v-11.9H37.88
			C34.77,98.58,33,105.59,33,113s1.77,14.42,4.88,20.62L53.22,121.72L53.22,121.72L53.22,121.72z M53.22,121.72"/>
	</g>
	<g>
		<path class="st3" d="M78.92,85.34c6.74,0,12.79,2.32,17.55,6.87l13.17-13.17c-7.95-7.41-18.35-11.96-30.72-11.96
			c-17.95,0-33.48,10.29-41.03,25.3l15.34,11.9C56.84,93.42,66.96,85.34,78.92,85.34L78.92,85.34L78.92,85.34z M78.92,85.34"/>
	</g>
</g>
<g>
	<path class="st4" d="M78,179.5c-0.5,0-1-0.01-1.49-0.02c-0.83-0.02-1.48-0.7-1.47-1.53c0.02-0.83,0.7-1.51,1.53-1.47
		c1.63,0.04,3.29,0.01,4.91-0.08c0.82-0.05,1.53,0.59,1.58,1.42c0.04,0.83-0.59,1.53-1.42,1.58C80.44,179.47,79.22,179.5,78,179.5z
		 M67.54,178.66c-0.08,0-0.16-0.01-0.24-0.02c-1.69-0.27-3.38-0.62-5.04-1.02c-0.8-0.2-1.3-1.01-1.1-1.81c0.2-0.8,1-1.3,1.81-1.1
		c1.58,0.38,3.2,0.71,4.81,0.97c0.82,0.13,1.37,0.9,1.24,1.72C68.9,178.14,68.26,178.66,67.54,178.66z M53.99,174.92
		c-0.18,0-0.37-0.03-0.55-0.11c-1.59-0.63-3.17-1.33-4.7-2.09c-0.74-0.37-1.05-1.26-0.69-2.01c0.37-0.74,1.27-1.05,2.01-0.69
		c1.46,0.72,2.98,1.39,4.49,1.99c0.77,0.31,1.15,1.18,0.84,1.95C55.15,174.56,54.58,174.92,53.99,174.92z M41.57,168.34
		c-0.29,0-0.58-0.08-0.84-0.26c-1.42-0.96-2.81-1.99-4.14-3.05c-0.65-0.52-0.75-1.46-0.24-2.11c0.52-0.65,1.46-0.75,2.11-0.24
		c1.27,1.01,2.6,1.99,3.96,2.91c0.69,0.47,0.86,1.4,0.4,2.08C42.52,168.11,42.05,168.34,41.57,168.34z M30.85,159.25
		c-0.4,0-0.79-0.16-1.09-0.47c-1.18-1.24-2.32-2.54-3.39-3.86c-0.52-0.64-0.42-1.59,0.22-2.11c0.64-0.52,1.59-0.43,2.11,0.22
		c1.03,1.26,2.12,2.51,3.24,3.69c0.57,0.6,0.55,1.55-0.06,2.12C31.6,159.11,31.22,159.25,30.85,159.25z M126.56,157.71
		c-0.35,0-0.71-0.12-1-0.38c-0.62-0.55-0.67-1.5-0.12-2.12c1.09-1.22,2.14-2.5,3.12-3.79c0.5-0.66,1.44-0.79,2.1-0.28
		c0.66,0.5,0.79,1.44,0.28,2.1c-1.03,1.36-2.13,2.69-3.27,3.97C127.38,157.54,126.97,157.71,126.56,157.71z M22.33,148.08
		c-0.51,0-1-0.26-1.29-0.72c-0.88-1.46-1.72-2.97-2.49-4.5c-0.37-0.74-0.07-1.64,0.67-2.01c0.74-0.37,1.64-0.08,2.01,0.67
		c0.73,1.45,1.53,2.9,2.37,4.29c0.43,0.71,0.2,1.63-0.51,2.06C22.87,148.01,22.6,148.08,22.33,148.08z M134.72,146.27
		c-0.25,0-0.5-0.06-0.73-0.19c-0.72-0.41-0.98-1.32-0.57-2.04c0.8-1.42,1.55-2.89,2.24-4.37c0.35-0.75,1.24-1.08,1.99-0.73
		c0.75,0.35,1.08,1.24,0.73,1.99c-0.72,1.55-1.51,3.09-2.34,4.58C135.75,145.99,135.25,146.27,134.72,146.27z M16.41,135.34
		c-0.63,0-1.21-0.39-1.42-1.02c-0.55-1.62-1.04-3.28-1.46-4.93c-0.2-0.8,0.28-1.62,1.09-1.82c0.8-0.2,1.62,0.28,1.82,1.09
		c0.4,1.58,0.87,3.16,1.39,4.71c0.27,0.78-0.16,1.64-0.94,1.9C16.73,135.31,16.57,135.34,16.41,135.34z M140.23,133.33
		c-0.14,0-0.29-0.02-0.43-0.06c-0.79-0.24-1.24-1.08-1-1.87c0.47-1.56,0.89-3.16,1.24-4.75c0.18-0.81,0.98-1.32,1.79-1.14
		c0.81,0.18,1.32,0.98,1.14,1.79c-0.36,1.67-0.8,3.34-1.29,4.98C141.47,132.91,140.87,133.33,140.23,133.33z M13.38,121.62
		c-0.76,0-1.41-0.57-1.49-1.34c-0.18-1.7-0.31-3.42-0.36-5.13c-0.03-0.83,0.62-1.52,1.45-1.55c0.84-0.03,1.52,0.62,1.55,1.45
		c0.05,1.63,0.17,3.28,0.34,4.9c0.09,0.82-0.51,1.56-1.33,1.65C13.49,121.62,13.44,121.62,13.38,121.62z M142.81,119.52
		c-0.04,0-0.08,0-0.12,0c-0.83-0.06-1.44-0.78-1.38-1.61c0.12-1.62,0.19-3.27,0.19-4.91l0-0.21c0-0.83,0.67-1.5,1.5-1.5
		s1.5,0.67,1.5,1.5l0,0.19c0,1.72-0.07,3.45-0.2,5.15C144.24,118.92,143.59,119.52,142.81,119.52z M13.37,107.57
		c-0.05,0-0.11,0-0.16-0.01c-0.82-0.09-1.42-0.83-1.33-1.65c0.18-1.7,0.43-3.41,0.74-5.09c0.15-0.81,0.93-1.35,1.75-1.2
		c0.81,0.15,1.35,0.93,1.2,1.75c-0.3,1.6-0.53,3.24-0.71,4.86C14.78,107,14.12,107.57,13.37,107.57z M142.35,105.28
		c-0.73,0-1.38-0.54-1.48-1.29c-0.23-1.61-0.52-3.24-0.88-4.83c-0.18-0.81,0.33-1.61,1.14-1.79c0.81-0.18,1.61,0.33,1.79,1.14
		c0.37,1.67,0.68,3.37,0.92,5.06c0.12,0.82-0.45,1.58-1.27,1.7C142.49,105.27,142.42,105.28,142.35,105.28z M16.35,93.84
		c-0.16,0-0.32-0.03-0.48-0.08c-0.79-0.26-1.21-1.11-0.95-1.9c0.54-1.62,1.16-3.24,1.82-4.81c0.32-0.76,1.2-1.12,1.97-0.8
		c0.76,0.32,1.12,1.2,0.8,1.97c-0.64,1.5-1.22,3.05-1.74,4.6C17.56,93.45,16.98,93.84,16.35,93.84z M138.88,91.66
		c-0.61,0-1.18-0.37-1.4-0.97c-0.57-1.52-1.21-3.05-1.9-4.52c-0.35-0.75-0.03-1.64,0.72-1.99c0.75-0.35,1.64-0.03,1.99,0.72
		c0.72,1.55,1.39,3.14,1.99,4.74c0.29,0.78-0.1,1.64-0.88,1.93C139.23,91.63,139.05,91.66,138.88,91.66z M22.24,81.08
		c-0.26,0-0.53-0.07-0.77-0.21c-0.71-0.43-0.94-1.35-0.51-2.06c0.88-1.46,1.83-2.91,2.82-4.3c0.48-0.67,1.42-0.83,2.09-0.35
		s0.83,1.42,0.35,2.09c-0.95,1.33-1.85,2.71-2.69,4.11C23.25,80.82,22.75,81.08,22.24,81.08z M132.55,79.13
		c-0.49,0-0.97-0.24-1.26-0.68c-0.89-1.36-1.84-2.71-2.83-4.01c-0.5-0.66-0.38-1.6,0.28-2.1c0.66-0.5,1.6-0.38,2.1,0.28
		c1.04,1.36,2.04,2.77,2.96,4.2c0.45,0.69,0.25,1.62-0.44,2.08C133.11,79.05,132.83,79.13,132.55,79.13z M30.73,69.88
		c-0.37,0-0.74-0.14-1.03-0.41c-0.6-0.57-0.63-1.52-0.06-2.12c1.17-1.24,2.41-2.46,3.67-3.6c0.61-0.56,1.56-0.51,2.12,0.1
		c0.56,0.61,0.51,1.56-0.1,2.12c-1.21,1.09-2.39,2.25-3.51,3.44C31.53,69.72,31.13,69.88,30.73,69.88z M123.67,68.24
		c-0.38,0-0.76-0.14-1.05-0.43c-1.16-1.15-2.38-2.26-3.63-3.31c-0.63-0.53-0.71-1.48-0.18-2.11c0.53-0.63,1.48-0.71,2.11-0.18
		c1.3,1.1,2.58,2.27,3.8,3.47c0.59,0.58,0.6,1.53,0.01,2.12C124.44,68.1,124.05,68.24,123.67,68.24z M41.42,60.76
		c-0.48,0-0.95-0.23-1.24-0.65c-0.47-0.68-0.29-1.62,0.39-2.08c1.41-0.96,2.88-1.88,4.36-2.73c0.72-0.41,1.63-0.16,2.05,0.55
		c0.41,0.72,0.16,1.64-0.55,2.05c-1.41,0.81-2.81,1.69-4.16,2.61C42.01,60.68,41.72,60.76,41.42,60.76z M112.66,59.5
		c-0.27,0-0.55-0.07-0.8-0.23c-1.38-0.87-2.81-1.7-4.25-2.46c-0.73-0.39-1.01-1.29-0.63-2.03c0.39-0.73,1.29-1.01,2.03-0.63
		c1.51,0.8,3.01,1.66,4.45,2.58c0.7,0.44,0.91,1.37,0.47,2.07C113.65,59.26,113.16,59.5,112.66,59.5z M53.81,54.15
		c-0.59,0-1.16-0.36-1.39-0.94c-0.31-0.77,0.06-1.64,0.83-1.95c1.58-0.63,3.21-1.22,4.84-1.73c0.79-0.25,1.63,0.19,1.88,0.98
		c0.25,0.79-0.19,1.63-0.98,1.88c-1.56,0.49-3.11,1.04-4.62,1.65C54.19,54.12,54,54.15,53.81,54.15z M100.03,53.33
		c-0.17,0-0.34-0.03-0.51-0.09c-1.53-0.55-3.11-1.05-4.68-1.48c-0.8-0.22-1.27-1.04-1.05-1.84c0.22-0.8,1.04-1.27,1.84-1.05
		c1.65,0.45,3.3,0.97,4.9,1.55c0.78,0.28,1.18,1.14,0.9,1.92C101.22,52.95,100.65,53.33,100.03,53.33z M67.34,50.37
		c-0.72,0-1.36-0.52-1.48-1.26c-0.13-0.82,0.42-1.59,1.24-1.72c1.68-0.28,3.4-0.49,5.1-0.64c0.82-0.06,1.55,0.54,1.62,1.37
		c0.07,0.83-0.54,1.55-1.37,1.62c-1.62,0.14-3.26,0.35-4.87,0.61C67.5,50.36,67.42,50.37,67.34,50.37z M86.38,50.03
		c-0.06,0-0.13,0-0.19-0.01c-1.61-0.21-3.26-0.36-4.89-0.44c-0.83-0.04-1.46-0.75-1.42-1.57c0.04-0.83,0.75-1.47,1.57-1.42
		c1.71,0.09,3.43,0.24,5.12,0.46c0.82,0.11,1.4,0.86,1.3,1.68C87.77,49.48,87.12,50.03,86.38,50.03z"/>
</g>
<g>
	<g>
		<g>
			<path class="st5" d="M208,113c-4.96,0-9-4.04-9-9V46c0-4.96,4.04-9,9-9h168c4.96,0,9,4.04,9,9v58c0,4.96-4.04,9-9,9H208z"/>
		</g>
		<g>
			<g>
				<path class="st4" d="M376,40c3.31,0,6,2.69,6,6v58c0,3.31-2.69,6-6,6H208c-3.31,0-6-2.69-6-6V46c0-3.31,2.69-6,6-6H376 M376,34
					H208c-6.62,0-12,5.38-12,12v58c0,6.62,5.38,12,12,12h168c6.62,0,12-5.38,12-12V46C388,39.38,382.62,34,376,34L376,34z"/>
			</g>
		</g>
	</g>
	<g>
		<g>
			<path class="st6" d="M190,113c-4.96,0-9-4.04-9-9V46c0-4.96,4.04-9,9-9h168c4.96,0,9,4.04,9,9v58c0,4.96-4.04,9-9,9H190z"/>
		</g>
		<g>
			<g>
				<path class="st4" d="M358,40c3.31,0,6,2.69,6,6v58c0,3.31-2.69,6-6,6H190c-3.31,0-6-2.69-6-6V46c0-3.31,2.69-6,6-6H358 M358,34
					H190c-6.62,0-12,5.38-12,12v58c0,6.62,5.38,12,12,12h168c6.62,0,12-5.38,12-12V46C370,39.38,364.62,34,358,34L358,34z"/>
			</g>
		</g>
	</g>
	<g>
		<g>
			<g>
				<path class="st4" d="M293.5,59.6c-0.32,0-0.64-0.08-0.94-0.24c-1.89-1.02-5.21-1.02-7.11,0c-0.98,0.52-2.19,0.15-2.71-0.82
					c-0.52-0.97-0.16-2.19,0.82-2.71c3.05-1.64,7.84-1.64,10.89,0c0.97,0.52,1.34,1.73,0.82,2.71
					C294.9,59.22,294.21,59.6,293.5,59.6z"/>
			</g>
			<g>
				<g>
					<circle class="st4" cx="289" cy="49.85" r="7"/>
				</g>
				<g>
					<circle class="st7" cx="290.75" cy="49.85" r="1.75"/>
				</g>
			</g>
			<g>
				<g>
					<path class="st4" d="M274.36,70.87c-5.29,0-10.71-1.42-15.4-4.27c-0.94-0.57-1.25-1.8-0.67-2.75c0.57-0.94,1.8-1.25,2.75-0.67
						c8,4.86,18.86,4.87,25.82,0.03c0.91-0.63,2.15-0.41,2.78,0.5c0.63,0.91,0.41,2.15-0.5,2.78
						C284.95,69.41,279.72,70.87,274.36,70.87z"/>
				</g>
				<g>
					<path class="st4" d="M269.82,73.98c1.35,0.43,2.77,0.57,4.18,0.62c0.71,0.03,1.41-0.07,2.11-0.15c0.7-0.09,1.39-0.24,2.05-0.47
						c0.69-0.24,1.45,0.13,1.68,0.82c0.17,0.48,0.04,1-0.29,1.34l-0.72,0.76c-0.67,0.71-1.48,1.09-2.3,1.37
						c-0.83,0.24-1.69,0.36-2.54,0.31c-0.43-0.02-0.85-0.04-1.27-0.13c-0.42-0.06-0.84-0.17-1.25-0.3c-0.81-0.27-1.6-0.64-2.3-1.25
						l-0.67-0.59c-0.57-0.5-0.63-1.37-0.13-1.94C268.74,73.96,269.32,73.82,269.82,73.98z"/>
				</g>
			</g>
			<g>
				<path class="st4" d="M284.03,26.83c0.61-0.55,1.11-0.88,1.72-1.22c0.6-0.32,1.22-0.59,1.88-0.8c1.32-0.41,2.78-0.57,4.26-0.39
					c1.48,0.15,2.99,0.73,4.21,1.63c1.26,0.87,2.13,2.1,2.67,3.38c0.44,1.04-0.05,2.24-1.1,2.68c-0.53,0.22-1.09,0.2-1.58,0
					l-0.45-0.19c-0.94-0.4-1.64-0.83-2.38-1.03c-0.71-0.25-1.37-0.43-2.13-0.52c-0.74-0.1-1.56-0.14-2.44-0.12
					c-0.44,0.01-0.91,0.02-1.37,0.06c-0.46,0.01-1,0.09-1.39,0.05l-0.78-0.08c-1.09-0.11-1.88-1.08-1.77-2.16
					C283.43,27.6,283.67,27.15,284.03,26.83z"/>
			</g>
			<g>
				<path class="st4" d="M263.5,59.6c-0.32,0-0.64-0.08-0.94-0.24c-1.89-1.02-5.21-1.02-7.11,0c-0.98,0.52-2.19,0.15-2.71-0.82
					c-0.52-0.97-0.16-2.19,0.82-2.71c3.05-1.64,7.84-1.64,10.89,0c0.97,0.52,1.34,1.73,0.82,2.71
					C264.9,59.22,264.21,59.6,263.5,59.6z"/>
			</g>
			<g>
				<g>
					<circle class="st4" cx="259" cy="49.85" r="7"/>
				</g>
				<g>
					<circle class="st7" cx="260.75" cy="49.85" r="1.75"/>
				</g>
			</g>
			<g>
				<path class="st4" d="M262.07,30.35c-0.39,0.04-0.94-0.05-1.39-0.05c-0.47-0.04-0.93-0.05-1.37-0.06
					c-0.89-0.02-1.7,0.02-2.44,0.12c-0.75,0.09-1.41,0.28-2.13,0.52c-0.74,0.21-1.43,0.64-2.38,1.03l-0.45,0.19
					c-1.04,0.44-2.24-0.05-2.68-1.09c-0.22-0.53-0.2-1.1,0-1.59c0.54-1.28,1.41-2.51,2.67-3.38c1.21-0.9,2.72-1.48,4.21-1.63
					c1.49-0.18,2.95-0.02,4.26,0.39c0.66,0.21,1.29,0.48,1.88,0.8c0.61,0.34,1.11,0.68,1.72,1.22c0.81,0.73,0.88,1.98,0.16,2.79
					c-0.34,0.38-0.8,0.6-1.27,0.65L262.07,30.35z"/>
			</g>
		</g>
	</g>
	<g>
		<g>
			<path class="st7" d="M228.55,95.43h0.49c0.45,0,0.77-0.14,0.97-0.42l2.95-4.28c0.17-0.23,0.36-0.39,0.56-0.47
				s0.45-0.13,0.75-0.13h2.65l-3.89,5.3c-0.28,0.37-0.57,0.63-0.89,0.79c0.23,0.08,0.43,0.2,0.62,0.35
				c0.19,0.15,0.36,0.34,0.52,0.58l3.96,6.08h-2.72c-0.17,0-0.32-0.01-0.45-0.04c-0.12-0.02-0.23-0.06-0.32-0.11
				c-0.09-0.05-0.17-0.11-0.23-0.18c-0.07-0.07-0.13-0.15-0.19-0.24l-2.97-4.56c-0.11-0.17-0.24-0.29-0.41-0.36
				c-0.17-0.07-0.39-0.1-0.67-0.1h-0.74v5.58h-3.04V90.12h3.04V95.43z"/>
		</g>
		<g>
			<path class="st7" d="M242.18,92.46v3.06h4.12v2.25h-4.12v3.12h5.38v2.34h-8.44V90.12h8.44v2.34H242.18z"/>
		</g>
		<g>
			<path class="st7" d="M256.62,98.25v4.99h-3.04v-4.99l-4.75-8.13h2.68c0.26,0,0.47,0.06,0.62,0.18s0.28,0.28,0.38,0.47l1.85,3.82
				c0.16,0.3,0.3,0.58,0.42,0.84c0.13,0.26,0.24,0.52,0.33,0.77c0.09-0.26,0.19-0.52,0.31-0.78c0.12-0.26,0.25-0.54,0.41-0.83
				l1.84-3.82c0.04-0.08,0.09-0.16,0.15-0.23c0.06-0.08,0.13-0.15,0.21-0.21c0.08-0.06,0.17-0.11,0.28-0.15
				c0.1-0.04,0.22-0.06,0.35-0.06h2.7L256.62,98.25z"/>
		</g>
		<g>
			<path class="st7" d="M281.16,90.12l-4.05,13.11h-2.75l-2.47-8.13c-0.05-0.13-0.09-0.27-0.14-0.42c-0.04-0.15-0.08-0.31-0.13-0.48
				c-0.04,0.17-0.08,0.33-0.13,0.48c-0.04,0.15-0.09,0.29-0.13,0.42l-2.5,8.13h-2.75l-4.05-13.11h2.56c0.26,0,0.48,0.06,0.66,0.18
				c0.18,0.12,0.29,0.28,0.35,0.48l1.8,6.84c0.05,0.22,0.11,0.45,0.16,0.71c0.05,0.25,0.11,0.52,0.16,0.8
				c0.11-0.56,0.24-1.06,0.4-1.5l2.12-6.84c0.05-0.17,0.17-0.32,0.35-0.45c0.18-0.14,0.39-0.2,0.64-0.2h0.9
				c0.26,0,0.48,0.06,0.64,0.18c0.16,0.12,0.28,0.28,0.37,0.47l2.11,6.84c0.16,0.42,0.29,0.9,0.4,1.43c0.05-0.27,0.1-0.52,0.15-0.76
				c0.05-0.24,0.1-0.46,0.16-0.67l1.8-6.84c0.05-0.17,0.16-0.33,0.34-0.46c0.18-0.13,0.4-0.2,0.65-0.2H281.16z"/>
		</g>
		<g>
			<path class="st7" d="M295.9,96.67c0,0.95-0.16,1.83-0.49,2.65c-0.33,0.82-0.79,1.53-1.38,2.13c-0.59,0.6-1.31,1.08-2.15,1.42
				s-1.77,0.51-2.79,0.51c-1.02,0-1.95-0.17-2.79-0.51s-1.56-0.81-2.16-1.42c-0.6-0.6-1.06-1.31-1.39-2.13
				c-0.33-0.82-0.49-1.7-0.49-2.65c0-0.95,0.16-1.83,0.49-2.65c0.33-0.82,0.79-1.52,1.39-2.12c0.6-0.6,1.32-1.07,2.16-1.41
				s1.77-0.51,2.79-0.51c1.02,0,1.95,0.17,2.79,0.52s1.55,0.82,2.15,1.42c0.59,0.6,1.05,1.31,1.38,2.12
				C295.74,94.85,295.9,95.73,295.9,96.67z M292.79,96.67c0-0.65-0.08-1.23-0.25-1.75c-0.17-0.52-0.41-0.96-0.72-1.32
				c-0.32-0.36-0.7-0.64-1.16-0.83s-0.97-0.29-1.56-0.29c-0.59,0-1.11,0.1-1.57,0.29s-0.85,0.47-1.16,0.83s-0.56,0.8-0.72,1.32
				c-0.17,0.52-0.25,1.1-0.25,1.75c0,0.65,0.08,1.24,0.25,1.76c0.17,0.52,0.41,0.96,0.72,1.32c0.32,0.36,0.7,0.63,1.16,0.82
				c0.46,0.19,0.98,0.28,1.57,0.28c0.58,0,1.1-0.09,1.56-0.28c0.46-0.19,0.84-0.46,1.16-0.82c0.31-0.36,0.56-0.8,0.72-1.32
				C292.71,97.91,292.79,97.33,292.79,96.67z"/>
		</g>
		<g>
			<path class="st7" d="M309.32,103.23h-2.75c-0.51,0-0.88-0.19-1.1-0.58l-2.18-3.81c-0.1-0.16-0.22-0.28-0.34-0.36
				s-0.31-0.11-0.54-0.11h-0.77v4.85h-3.04V90.12h4.27c0.95,0,1.76,0.1,2.43,0.29c0.67,0.2,1.21,0.47,1.64,0.81s0.73,0.76,0.92,1.23
				c0.19,0.47,0.29,0.99,0.29,1.55c0,0.43-0.06,0.83-0.17,1.21c-0.11,0.38-0.28,0.73-0.5,1.05c-0.22,0.32-0.5,0.61-0.82,0.86
				s-0.7,0.46-1.13,0.62c0.2,0.1,0.38,0.23,0.56,0.38c0.17,0.15,0.33,0.33,0.47,0.54L309.32,103.23z M302.86,96.28
				c0.41,0,0.77-0.05,1.06-0.16c0.29-0.1,0.53-0.25,0.71-0.44c0.19-0.19,0.32-0.4,0.41-0.65s0.13-0.52,0.13-0.81
				c0-0.58-0.19-1.03-0.56-1.35c-0.38-0.32-0.96-0.49-1.74-0.49h-1.22v3.89H302.86z"/>
		</g>
		<g>
			<path class="st7" d="M323.23,96.67c0,0.95-0.16,1.82-0.49,2.62s-0.79,1.49-1.38,2.08s-1.31,1.04-2.15,1.37s-1.77,0.49-2.79,0.49
				h-5.09V90.12h5.09c1.02,0,1.95,0.17,2.79,0.5s1.55,0.79,2.15,1.37s1.05,1.27,1.38,2.07C323.07,94.86,323.23,95.73,323.23,96.67z
				 M320.11,96.67c0-0.65-0.08-1.23-0.25-1.76c-0.17-0.52-0.41-0.96-0.72-1.33c-0.31-0.36-0.7-0.64-1.16-0.84s-0.97-0.29-1.56-0.29
				h-2.03v8.43h2.03c0.58,0,1.1-0.1,1.56-0.29c0.46-0.19,0.84-0.47,1.16-0.84c0.32-0.36,0.56-0.81,0.72-1.33
				C320.03,97.91,320.11,97.33,320.11,96.67z"/>
		</g>
	</g>
</g>
<g>
	<path class="st4" d="M301.1,208.35h-5c-0.83,0-1.5-0.67-1.5-1.5s0.67-1.5,1.5-1.5h5c0.83,0,1.5,0.67,1.5,1.5
		S301.93,208.35,301.1,208.35z M287.1,208.35h-5c-0.83,0-1.5-0.67-1.5-1.5s0.67-1.5,1.5-1.5h5c0.83,0,1.5,0.67,1.5,1.5
		S287.93,208.35,287.1,208.35z M310.1,208.32c-0.78,0-1.44-0.6-1.49-1.39c-0.06-0.83,0.56-1.54,1.39-1.6
		c1.42-0.1,2.8-0.56,3.99-1.33c0.7-0.45,1.62-0.25,2.07,0.45c0.45,0.7,0.25,1.62-0.45,2.07c-1.61,1.04-3.48,1.66-5.4,1.8
		C310.17,208.32,310.14,208.32,310.1,208.32z M319.34,199.35c-0.05,0-0.1,0-0.15-0.01c-0.83-0.08-1.43-0.81-1.35-1.64
		c0.03-0.28,0.04-0.56,0.04-0.85v-4c0-0.83,0.67-1.5,1.5-1.5s1.5,0.67,1.5,1.5v4c0,0.39-0.02,0.77-0.06,1.14
		C320.76,198.77,320.1,199.35,319.34,199.35z M319.39,185.35c-0.83,0-1.5-0.67-1.5-1.5v-5c0-0.83,0.67-1.5,1.5-1.5s1.5,0.67,1.5,1.5
		v5C320.89,184.68,320.22,185.35,319.39,185.35z M319.39,171.35c-0.83,0-1.5-0.67-1.5-1.5v-5c0-0.83,0.67-1.5,1.5-1.5
		s1.5,0.67,1.5,1.5v5C320.89,170.68,320.22,171.35,319.39,171.35z M319.39,157.35c-0.83,0-1.5-0.67-1.5-1.5v-5
		c0-0.83,0.67-1.5,1.5-1.5s1.5,0.67,1.5,1.5v5C320.89,156.68,320.22,157.35,319.39,157.35z M319.39,143.35c-0.83,0-1.5-0.67-1.5-1.5
		v-5c0-0.83,0.67-1.5,1.5-1.5s1.5,0.67,1.5,1.5v5C320.89,142.68,320.22,143.35,319.39,143.35z M319.39,129.35
		c-0.83,0-1.5-0.67-1.5-1.5v-5c0-0.83,0.67-1.5,1.5-1.5s1.5,0.67,1.5,1.5v5C320.89,128.68,320.22,129.35,319.39,129.35z"/>
</g>
<g>
	<g>
		<g>
			<path class="st8" d="M107,373c-8.27,0-15-6.73-15-15V178c0-8.27,6.73-15,15-15h150c8.27,0,15,6.73,15,15v180
				c0,8.27-6.73,15-15,15H107z"/>
		</g>
		<g>
			<path class="st4" d="M257,166c6.63,0,12,5.37,12,12v180c0,6.63-5.37,12-12,12H107c-6.63,0-12-5.37-12-12V178
				c0-6.63,5.37-12,12-12H257 M257,160H107c-9.93,0-18,8.07-18,18v180c0,9.93,8.07,18,18,18h150c9.93,0,18-8.07,18-18V178
				C275,168.07,266.93,160,257,160L257,160z"/>
		</g>
	</g>
	<g>
		<g>
			<path class="st7" d="M111,361c-3.86,0-7-3.14-7-7V182c0-3.86,3.14-7,7-7h142c3.86,0,7,3.14,7,7v152c0,0.8-0.32,1.56-0.88,2.12
				l-24,24c-0.56,0.56-1.33,0.88-2.12,0.88H111z"/>
		</g>
		<g>
			<path class="st4" d="M253,178c2.21,0,4,1.79,4,4v152l-24,24H111c-2.21,0-4-1.79-4-4V182c0-2.21,1.79-4,4-4H253 M253,172H111
				c-5.51,0-10,4.49-10,10v172c0,5.51,4.49,10,10,10h122c1.59,0,3.12-0.63,4.24-1.76l24-24c1.13-1.13,1.76-2.65,1.76-4.24V182
				C263,176.49,258.51,172,253,172L253,172z"/>
		</g>
	</g>
	<g>
		<g>
			<path class="st9" d="M233,361c-0.39,0-0.78-0.07-1.15-0.23c-1.12-0.46-1.85-1.56-1.85-2.77v-19.2c0-4.3,3.5-7.8,7.8-7.8H257
				c1.21,0,2.31,0.73,2.77,1.85c0.46,1.12,0.21,2.41-0.65,3.27l-24,24C234.55,360.7,233.78,361,233,361z"/>
		</g>
		<g>
			<path class="st4" d="M257,334l-24,24v-19.2c0-2.65,2.15-4.8,4.8-4.8H257 M257,328h-19.2c-5.96,0-10.8,4.84-10.8,10.8V358
				c0,2.43,1.46,4.61,3.7,5.54c0.74,0.31,1.52,0.46,2.29,0.46c1.56,0,3.1-0.61,4.24-1.76l24-24c1.72-1.72,2.23-4.3,1.3-6.54
				S259.43,328,257,328L257,328z M257,340L257,340L257,340L257,340z"/>
		</g>
	</g>
	<g>
		<path class="st4" d="M192,272h-26c-1.66,0-3-1.34-3-3v0c0-1.66,1.34-3,3-3l26,0c1.66,0,3,1.34,3,3v0
			C195,270.66,193.66,272,192,272z"/>
	</g>
	<g>
		<path class="st4" d="M234,260h-68c-1.66,0-3-1.34-3-3v0c0-1.66,1.34-3,3-3h68c1.66,0,3,1.34,3,3v0C237,258.66,235.66,260,234,260z
			"/>
	</g>
	<g>
		<g>
			<g>
				<path class="st10" d="M132,187c-1.66,0-3-1.34-3-3v-16c0-6.07,4.93-11,11-11h25.28c-1.48-2.74-2.28-5.83-2.28-9
					c0-10.48,8.52-19,19-19c0.72,0,1.45,0.04,2.17,0.12c8.56,0.95,15.57,7.84,16.67,16.39c0.52,4.02-0.26,8.03-2.12,11.49H224
					c6.07,0,11,4.93,11,11v16c0,1.66-1.34,3-3,3H132z M182,143c-0.33,0-0.67,0.03-1.01,0.1c-1.93,0.37-3.53,1.97-3.9,3.9
					c-0.29,1.53,0.08,3.02,1.05,4.19c0.95,1.15,2.36,1.81,3.85,1.81c0.33,0,0.67-0.03,1.01-0.1c1.93-0.37,3.53-1.97,3.9-3.9
					c0.29-1.53-0.08-3.02-1.05-4.19C184.9,143.66,183.49,143,182,143z"/>
			</g>
		</g>
		<g>
			<g>
				<path class="st4" d="M182,132c0.6,0,1.22,0.03,1.84,0.1c7.23,0.8,13.1,6.57,14.03,13.79c0.72,5.63-1.49,10.75-5.31,14.11H224
					c4.42,0,8,3.58,8,8v16H132v-16c0-4.42,3.58-8,8-8h31.44c-3.33-2.93-5.44-7.21-5.44-12C166,139.16,173.16,132,182,132 M182,156
					c0.51,0,1.04-0.05,1.57-0.15c3.15-0.6,5.69-3.14,6.29-6.29c0.97-5.11-2.92-9.57-7.85-9.57c-0.51,0-1.04,0.05-1.57,0.15
					c-3.15,0.6-5.69,3.14-6.29,6.29C173.18,151.54,177.07,156,182,156 M182,126C182,126,182,126,182,126
					c-5.88,0-11.4,2.29-15.56,6.44c-4.16,4.16-6.44,9.68-6.44,15.56c0,2.05,0.29,4.07,0.84,6H140c-7.72,0-14,6.28-14,14v16
					c0,3.31,2.69,6,6,6h100c3.31,0,6-2.69,6-6v-16c0-7.72-6.28-14-14-14h-20.85c0.81-2.84,1.05-5.85,0.66-8.87
					c-1.27-9.9-9.39-17.88-19.32-18.99C183.67,126.05,182.83,126,182,126L182,126z M182,150c-0.82,0-1.32-0.46-1.54-0.73
					c-0.27-0.33-0.57-0.9-0.41-1.72c0.14-0.72,0.79-1.37,1.51-1.51c0.15-0.03,0.3-0.04,0.45-0.04c0.82,0,1.32,0.46,1.54,0.73
					c0.27,0.33,0.57,0.9,0.41,1.72c-0.14,0.72-0.79,1.37-1.51,1.51C182.3,149.99,182.14,150,182,150L182,150z"/>
			</g>
		</g>
	</g>
	<g>
		<line class="st10" x1="147" y1="172" x2="217" y2="172"/>
		<path class="st4" d="M217,175h-70c-1.66,0-3-1.34-3-3s1.34-3,3-3h70c1.66,0,3,1.34,3,3S218.66,175,217,175z"/>
	</g>
	<g>
		<g>
			<path class="st7" d="M133,275c-1.66,0-3-1.34-3-3v-18c0-1.66,1.34-3,3-3h18c1.66,0,3,1.34,3,3v18c0,1.66-1.34,3-3,3H133z"/>
		</g>
		<g>
			<path class="st4" d="M151,254v18h-18v-18H151 M151,248h-18c-3.31,0-6,2.69-6,6v18c0,3.31,2.69,6,6,6h18c3.31,0,6-2.69,6-6v-18
				C157,250.69,154.31,248,151,248L151,248z"/>
		</g>
	</g>
	<g>
		<path class="st11" d="M143.45,269c-0.85,0-1.65-0.36-2.22-0.98l-5.45-6c-1.11-1.23-1.02-3.12,0.2-4.24s3.12-1.02,4.24,0.2
			l3.23,3.56l12.33-13.56c1.11-1.23,3.01-1.32,4.24-0.2c1.23,1.11,1.32,3.01,0.2,4.24l-14.55,16C145.11,268.64,144.3,269,143.45,269
			z"/>
	</g>
	<g>
		<path class="st4" d="M212,308h-46c-1.66,0-3-1.34-3-3v0c0-1.66,1.34-3,3-3h46c1.66,0,3,1.34,3,3v0C215,306.66,213.66,308,212,308z
			"/>
	</g>
	<g>
		<path class="st4" d="M234,296l-68,0c-1.66,0-3-1.34-3-3v0c0-1.66,1.34-3,3-3h68c1.66,0,3,1.34,3,3v0
			C237,294.66,235.66,296,234,296z"/>
	</g>
	<g>
		<path class="st4" d="M176,342h-46c-1.66,0-3-1.34-3-3v0c0-1.66,1.34-3,3-3h46c1.66,0,3,1.34,3,3v0C179,340.66,177.66,342,176,342z
			"/>
	</g>
	<g>
		<path class="st4" d="M198,330l-68,0c-1.66,0-3-1.34-3-3v0c0-1.66,1.34-3,3-3h68c1.66,0,3,1.34,3,3v0
			C201,328.66,199.66,330,198,330z"/>
	</g>
	<g>
		<g>
			<path class="st7" d="M133,311c-1.66,0-3-1.34-3-3v-18c0-1.66,1.34-3,3-3h18c1.66,0,3,1.34,3,3v18c0,1.66-1.34,3-3,3H133z"/>
		</g>
		<g>
			<path class="st4" d="M151,290v18h-18v-18H151 M151,284h-18c-3.31,0-6,2.69-6,6v18c0,3.31,2.69,6,6,6h18c3.31,0,6-2.69,6-6v-18
				C157,286.69,154.31,284,151,284L151,284z"/>
		</g>
	</g>
	<g>
		<path class="st11" d="M143.45,305c-0.85,0-1.65-0.36-2.22-0.98l-5.45-6c-1.11-1.23-1.02-3.12,0.2-4.24s3.12-1.02,4.24,0.2
			l3.23,3.56l12.33-13.56c1.11-1.23,3.01-1.32,4.24-0.2c1.23,1.11,1.32,3.01,0.2,4.24l-14.55,16C145.11,304.64,144.3,305,143.45,305
			z"/>
	</g>
	<g>
		<g>
			<g>
				<path class="st4" d="M199.5,218.6c-0.32,0-0.64-0.08-0.94-0.24c-1.89-1.02-5.21-1.02-7.11,0c-0.97,0.52-2.19,0.16-2.71-0.82
					c-0.52-0.97-0.16-2.19,0.82-2.71c3.05-1.64,7.84-1.64,10.89,0c0.97,0.52,1.34,1.74,0.82,2.71
					C200.9,218.22,200.21,218.6,199.5,218.6z"/>
			</g>
			<g>
				<g>
					<circle class="st4" cx="195" cy="208.85" r="7"/>
				</g>
				<g>
					<circle class="st7" cx="196.75" cy="208.85" r="1.75"/>
				</g>
			</g>
			<g>
				<path class="st4" d="M190.77,194.66c0.7-0.43,1.25-0.68,1.91-0.91c0.64-0.21,1.31-0.37,1.99-0.46c1.37-0.17,2.84-0.08,4.27,0.36
					c1.43,0.41,2.82,1.24,3.86,2.34c1.09,1.07,1.73,2.44,2.04,3.79c0.25,1.1-0.44,2.2-1.55,2.45c-0.56,0.13-1.11,0.01-1.56-0.27
					l-0.41-0.27c-0.86-0.56-1.47-1.1-2.16-1.43c-0.66-0.37-1.28-0.67-2-0.89c-0.71-0.23-1.51-0.41-2.38-0.54
					c-0.44-0.07-0.89-0.14-1.36-0.18c-0.45-0.07-1-0.08-1.38-0.19l-0.76-0.21c-1.05-0.29-1.66-1.39-1.37-2.44
					C190.05,195.31,190.37,194.91,190.77,194.66z"/>
			</g>
			<g>
				<path class="st4" d="M173.5,218.6c-0.32,0-0.64-0.08-0.94-0.24c-1.89-1.02-5.21-1.02-7.11,0c-0.97,0.52-2.19,0.16-2.71-0.82
					c-0.52-0.97-0.16-2.19,0.82-2.71c3.05-1.64,7.84-1.64,10.89,0c0.97,0.52,1.34,1.74,0.82,2.71
					C174.9,218.22,174.21,218.6,173.5,218.6z"/>
			</g>
			<g>
				<g>
					<circle class="st4" cx="169" cy="208.85" r="7"/>
				</g>
				<g>
					<circle class="st7" cx="170.75" cy="208.85" r="1.75"/>
				</g>
			</g>
			<g>
				<path class="st4" d="M172.01,198.9c-0.39,0.07-0.94,0.03-1.39,0.07c-0.47,0-0.93,0.03-1.37,0.06c-0.88,0.05-1.69,0.17-2.42,0.33
					c-0.74,0.16-1.39,0.4-2.07,0.71c-0.71,0.27-1.37,0.76-2.28,1.24l-0.43,0.23c-1,0.53-2.24,0.15-2.77-0.85
					c-0.27-0.5-0.3-1.08-0.14-1.58c0.42-1.32,1.19-2.63,2.36-3.6c1.13-1,2.58-1.71,4.05-1.99c1.46-0.31,2.93-0.27,4.28,0.02
					c0.68,0.15,1.32,0.37,1.95,0.63c0.64,0.29,1.17,0.58,1.82,1.07c0.87,0.65,1.05,1.89,0.4,2.77c-0.31,0.41-0.75,0.67-1.21,0.76
					L172.01,198.9z"/>
			</g>
		</g>
		<g>
			<g>
				<g>
					<path class="st4" d="M182,242.5c-9.1,0-16.5-7.4-16.5-16.5c0-1.38,1.12-2.5,2.5-2.5h28c1.38,0,2.5,1.12,2.5,2.5
						C198.5,235.1,191.1,242.5,182,242.5z"/>
				</g>
				<g>
					<path class="st4" d="M196,226L196,226 M196,226c0,7.73-6.27,14-14,14s-14-6.27-14-14H196 M196.01,221L196.01,221H168
						c-2.76,0-5,2.24-5,5c0,10.48,8.52,19,19,19c10.41,0,18.9-8.42,19-18.81c0-0.06,0-0.12,0-0.19C201,223.24,198.77,221,196.01,221
						L196.01,221z M196,231L196,231L196,231L196,231z"/>
				</g>
			</g>
			<g>
				<g>
					<ellipse class="st12" cx="182" cy="235.33" rx="10.41" ry="4.67"/>
				</g>
			</g>
		</g>
	</g>
</g>
</svg>
