<?xml version="1.0" encoding="utf-8"?>
<!-- Generator: Adobe Illustrator 26.2.1, SVG Export Plug-In . SVG Version: 6.00 Build 0)  -->
<svg version="1.1" id="PPC_x5F_Hub-Keyword_x5F_Ideas"
	 xmlns="http://www.w3.org/2000/svg" xmlns:xlink="http://www.w3.org/1999/xlink" x="0px" y="0px" viewBox="0 0 400 400"
	 style="enable-background:new 0 0 400 400;" xml:space="preserve">
<style type="text/css">
	.st0{fill:#329B87;}
	.st1{fill:#515979;}
	.st2{fill:#7DDF96;}
	.st3{fill:#FFFFFF;}
	.st4{fill:#7170B2;}
	.st5{fill:#AAA0FF;}
	.st6{fill:#DC9646;}
	.st7{fill:#FFD886;}
	.st8{fill:#EF7D7D;}
	.st9{fill:#CCCCCC;}
	.st10{fill:#FFD4D7;}
	.st11{fill:#747A94;}
	.st12{fill:#A38878;}
	.st13{fill:#75A5C3;}
	.st14{fill:#B29D90;}
	.st15{fill:#FFE8A0;}
	.st16{fill:#FFF3CF;}
	.st17{fill:#BAD2E1;}
	.st18{fill:none;}
</style>
<path class="st0" d="M256,324c-4.96,0-9-4.04-9-9v-34c0-4.96,4.04-9,9-9h88c4.96,0,9,4.04,9,9v34c0,4.96-4.04,9-9,9H256z"/>
<path class="st1" d="M344,275c3.31,0,6,2.69,6,6v34c0,3.31-2.69,6-6,6h-88c-3.31,0-6-2.69-6-6v-34c0-3.31,2.69-6,6-6H344 M344,269
	h-88c-6.62,0-12,5.38-12,12v34c0,6.62,5.38,12,12,12h88c6.62,0,12-5.38,12-12v-34C356,274.38,350.62,269,344,269L344,269z"/>
<path class="st2" d="M238,324c-4.96,0-9-4.04-9-9v-34c0-4.96,4.04-9,9-9h88c4.96,0,9,4.04,9,9v34c0,4.96-4.04,9-9,9H238z"/>
<path class="st1" d="M326,275c3.31,0,6,2.69,6,6v34c0,3.31-2.69,6-6,6h-88c-3.31,0-6-2.69-6-6v-34c0-3.31,2.69-6,6-6H326 M326,269
	h-88c-6.62,0-12,5.38-12,12v34c0,6.62,5.38,12,12,12h88c6.62,0,12-5.38,12-12v-34C338,274.38,332.62,269,326,269L326,269z"/>
<path class="st3" d="M251.7,311.03h0.32c0.3,0,0.52-0.09,0.65-0.28l1.97-2.86c0.12-0.15,0.24-0.26,0.38-0.31
	c0.13-0.06,0.3-0.09,0.5-0.09h1.76l-2.59,3.53c-0.18,0.24-0.38,0.42-0.59,0.53c0.15,0.06,0.29,0.13,0.41,0.23
	c0.12,0.1,0.24,0.23,0.35,0.39l2.64,4.06h-1.81c-0.12,0-0.21-0.01-0.3-0.02c-0.08-0.02-0.15-0.04-0.21-0.07
	c-0.06-0.03-0.11-0.07-0.16-0.12s-0.09-0.1-0.13-0.16l-1.98-3.04c-0.07-0.11-0.16-0.19-0.27-0.24s-0.26-0.07-0.45-0.07h-0.49v3.72
	h-2.03v-8.74h2.03L251.7,311.03L251.7,311.03z"/>
<path class="st3" d="M260.79,309.05v2.04h2.75v1.5h-2.75v2.08h3.59v1.56h-5.63v-8.74h5.63v1.56H260.79z"/>
<path class="st3" d="M270.41,312.91v3.32h-2.03v-3.32l-3.17-5.42H267c0.18,0,0.32,0.04,0.42,0.12s0.19,0.19,0.25,0.32l1.24,2.54
	c0.1,0.2,0.2,0.39,0.28,0.56c0.08,0.17,0.16,0.35,0.22,0.51c0.06-0.17,0.13-0.34,0.21-0.52c0.08-0.17,0.17-0.36,0.27-0.55l1.22-2.54
	c0.03-0.05,0.06-0.1,0.1-0.16c0.04-0.05,0.09-0.1,0.14-0.14s0.12-0.08,0.19-0.1c0.07-0.03,0.15-0.04,0.23-0.04h1.8L270.41,312.91z"
	/>
<path class="st3" d="M286.77,307.49l-2.7,8.74h-1.84l-1.64-5.42c-0.03-0.08-0.06-0.18-0.09-0.28s-0.06-0.21-0.08-0.32
	c-0.03,0.11-0.06,0.22-0.08,0.32c-0.03,0.1-0.06,0.19-0.09,0.28l-1.67,5.42h-1.84l-2.7-8.74h1.7c0.18,0,0.32,0.04,0.44,0.12
	s0.19,0.19,0.23,0.32l1.2,4.56c0.04,0.14,0.07,0.3,0.11,0.47s0.07,0.35,0.11,0.53c0.07-0.38,0.16-0.71,0.26-1l1.42-4.56
	c0.04-0.11,0.11-0.21,0.23-0.3s0.26-0.14,0.43-0.14h0.6c0.18,0,0.32,0.04,0.43,0.12s0.19,0.19,0.25,0.32l1.4,4.56
	c0.1,0.28,0.19,0.6,0.26,0.95c0.03-0.18,0.07-0.35,0.1-0.51s0.07-0.31,0.11-0.45l1.2-4.56c0.03-0.12,0.11-0.22,0.23-0.31
	s0.26-0.13,0.43-0.13h1.59V307.49z"/>
<path class="st3" d="M296.6,311.86c0,0.63-0.11,1.22-0.33,1.76s-0.52,1.02-0.92,1.42c-0.4,0.4-0.87,0.72-1.43,0.94
	c-0.56,0.23-1.18,0.34-1.86,0.34s-1.3-0.11-1.86-0.34s-1.04-0.54-1.44-0.94s-0.71-0.88-0.92-1.42s-0.33-1.13-0.33-1.76
	s0.11-1.22,0.33-1.76s0.53-1.02,0.92-1.42s0.88-0.71,1.44-0.94s1.18-0.34,1.86-0.34s1.3,0.12,1.86,0.34
	c0.56,0.23,1.04,0.55,1.43,0.95c0.4,0.4,0.7,0.87,0.92,1.42S296.6,311.23,296.6,311.86z M294.53,311.86c0-0.43-0.06-0.82-0.17-1.17
	c-0.11-0.35-0.27-0.64-0.48-0.88c-0.21-0.24-0.47-0.42-0.77-0.55s-0.65-0.19-1.04-0.19s-0.74,0.06-1.05,0.19s-0.56,0.31-0.77,0.55
	s-0.37,0.53-0.48,0.88c-0.11,0.35-0.17,0.74-0.17,1.17c0,0.44,0.06,0.83,0.17,1.17c0.11,0.35,0.27,0.64,0.48,0.88
	c0.21,0.24,0.47,0.42,0.77,0.55s0.66,0.19,1.05,0.19c0.39,0,0.73-0.06,1.04-0.19s0.56-0.31,0.77-0.55s0.37-0.53,0.48-0.88
	C294.47,312.69,294.53,312.29,294.53,311.86z"/>
<path class="st3" d="M305.55,316.23h-1.84c-0.34,0-0.58-0.13-0.73-0.38l-1.45-2.54c-0.07-0.11-0.14-0.19-0.23-0.24
	c-0.08-0.05-0.2-0.07-0.36-0.07h-0.52v3.23h-2.03v-8.74h2.84c0.63,0,1.17,0.07,1.62,0.2c0.45,0.13,0.81,0.31,1.09,0.54
	s0.49,0.51,0.62,0.82c0.13,0.32,0.19,0.66,0.19,1.03c0,0.28-0.04,0.55-0.11,0.8c-0.08,0.25-0.19,0.49-0.34,0.7
	c-0.15,0.21-0.33,0.4-0.55,0.57s-0.47,0.31-0.75,0.41c0.13,0.07,0.26,0.15,0.37,0.26c0.12,0.1,0.22,0.22,0.31,0.36L305.55,316.23z
	 M301.24,311.6c0.28,0,0.51-0.04,0.71-0.1c0.19-0.07,0.35-0.17,0.48-0.29s0.21-0.27,0.27-0.44s0.08-0.34,0.08-0.54
	c0-0.38-0.12-0.68-0.38-0.9c-0.25-0.22-0.64-0.32-1.16-0.32h-0.82v2.59L301.24,311.6L301.24,311.6z"/>
<path class="st3" d="M314.82,311.86c0,0.63-0.11,1.21-0.33,1.75s-0.53,1-0.92,1.39c-0.4,0.39-0.87,0.69-1.43,0.91
	s-1.18,0.33-1.86,0.33h-3.4v-8.74h3.4c0.68,0,1.3,0.11,1.86,0.33s1.03,0.52,1.43,0.91s0.7,0.85,0.92,1.38
	C314.71,310.65,314.82,311.23,314.82,311.86z M312.74,311.86c0-0.43-0.06-0.82-0.17-1.17c-0.11-0.35-0.27-0.64-0.48-0.88
	c-0.21-0.24-0.47-0.43-0.77-0.56s-0.65-0.2-1.04-0.2h-1.36v5.62h1.36c0.39,0,0.73-0.07,1.04-0.2s0.56-0.32,0.77-0.56
	s0.37-0.54,0.48-0.89C312.69,312.69,312.74,312.29,312.74,311.86z"/>
<path class="st1" d="M282.26,300.12c-3.9,0-7.88-1.1-11.33-3.29c-0.93-0.59-1.21-1.83-0.61-2.76c0.59-0.93,1.83-1.21,2.76-0.61
	c5.51,3.51,12.97,3.53,17.75,0.04c0.89-0.65,2.14-0.46,2.79,0.44c0.65,0.89,0.46,2.14-0.44,2.79
	C290.08,298.98,286.22,300.12,282.26,300.12z"/>
<path class="st1" d="M295.5,290.85c-0.16,0-0.33-0.03-0.49-0.08c-1.61-0.55-4.42-0.55-6.02,0c-0.78,0.27-1.64-0.15-1.91-0.93
	s0.15-1.64,0.93-1.91c2.24-0.77,5.74-0.77,7.98,0c0.78,0.27,1.2,1.12,0.93,1.91C296.7,290.46,296.12,290.85,295.5,290.85z"/>
<circle class="st1" cx="292" cy="282.65" r="6"/>
<circle class="st3" cx="293.5" cy="282.65" r="1.5"/>
<path class="st1" d="M275.5,290.85c-0.16,0-0.33-0.03-0.49-0.08c-1.61-0.55-4.42-0.55-6.02,0c-0.78,0.27-1.64-0.15-1.91-0.93
	s0.15-1.64,0.93-1.91c2.24-0.77,5.74-0.77,7.98,0c0.78,0.27,1.2,1.12,0.93,1.91C276.7,290.46,276.12,290.85,275.5,290.85z"/>
<circle class="st1" cx="272" cy="282.65" r="6"/>
<circle class="st3" cx="273.5" cy="282.65" r="1.5"/>
<path class="st1" d="M287.21,264.27c2.59-1.89,6-2.29,8.96-1.07c1.6,0.63,4.2,2.71,2.31,4.39c-0.98,0.76-2.61,0.09-3.67,0.08
	c-1.14-0.13-2.92-0.2-4.1-0.22c-0.87-0.01-1.83,0.01-2.69-0.13C286.54,267.17,286.02,265.12,287.21,264.27L287.21,264.27z"/>
<path class="st1" d="M275.55,267.37c-1.27,0.13-3.1,0.07-4.39,0.14c-1.55,0.06-2.86,0.31-4.45,0.44c-0.95,0.08-1.78-0.63-1.85-1.58
	c-0.04-0.45,0.1-0.87,0.36-1.2c2.02-2.59,5.81-3.15,8.8-2.26c0.99,0.29,1.85,0.67,2.77,1.37
	C278.17,265.41,277.27,267.4,275.55,267.37L275.55,267.37z"/>
<path class="st4" d="M229,141c-4.96,0-9-4.04-9-9V98c0-4.96,4.04-9,9-9h88c4.96,0,9,4.04,9,9v34c0,4.96-4.04,9-9,9H229z"/>
<path class="st1" d="M317,92c3.31,0,6,2.69,6,6v34c0,3.31-2.69,6-6,6h-88c-3.31,0-6-2.69-6-6V98c0-3.31,2.69-6,6-6H317 M317,86h-88
	c-6.62,0-12,5.38-12,12v34c0,6.62,5.38,12,12,12h88c6.62,0,12-5.38,12-12V98C329,91.38,323.62,86,317,86L317,86z"/>
<path class="st5" d="M211,141c-4.96,0-9-4.04-9-9V98c0-4.96,4.04-9,9-9h88c4.96,0,9,4.04,9,9v34c0,4.96-4.04,9-9,9H211z"/>
<path class="st1" d="M299,92c3.31,0,6,2.69,6,6v34c0,3.31-2.69,6-6,6h-88c-3.31,0-6-2.69-6-6V98c0-3.31,2.69-6,6-6H299 M299,86h-88
	c-6.62,0-12,5.38-12,12v34c0,6.62,5.38,12,12,12h88c6.62,0,12-5.38,12-12V98C311,91.38,305.62,86,299,86L299,86z"/>
<path class="st3" d="M224.7,128.03h0.32c0.3,0,0.52-0.09,0.65-0.28l1.97-2.86c0.12-0.15,0.24-0.26,0.38-0.31
	c0.13-0.06,0.3-0.09,0.5-0.09h1.76l-2.59,3.53c-0.18,0.24-0.38,0.42-0.59,0.53c0.15,0.06,0.29,0.13,0.41,0.23
	c0.12,0.1,0.24,0.23,0.35,0.39l2.64,4.06h-1.81c-0.12,0-0.21-0.01-0.3-0.02s-0.15-0.04-0.21-0.07c-0.06-0.03-0.11-0.07-0.16-0.12
	s-0.09-0.1-0.13-0.16l-1.98-3.04c-0.07-0.11-0.16-0.19-0.27-0.24s-0.26-0.07-0.45-0.07h-0.49v3.72h-2.03v-8.74h2.03V128.03z"/>
<path class="st3" d="M233.79,126.05v2.04h2.75v1.5h-2.75v2.08h3.59v1.56h-5.63v-8.74h5.63v1.56
	C237.38,126.05,233.79,126.05,233.79,126.05z"/>
<path class="st3" d="M243.41,129.91v3.32h-2.03v-3.32l-3.17-5.42H240c0.18,0,0.32,0.04,0.42,0.12c0.1,0.08,0.19,0.19,0.25,0.31
	l1.24,2.54c0.1,0.2,0.2,0.39,0.28,0.56s0.16,0.35,0.22,0.51c0.06-0.17,0.13-0.34,0.21-0.52c0.08-0.17,0.17-0.36,0.27-0.55l1.22-2.54
	c0.03-0.05,0.06-0.1,0.1-0.16c0.04-0.05,0.09-0.1,0.14-0.14s0.12-0.08,0.19-0.1c0.07-0.03,0.15-0.04,0.23-0.04h1.8L243.41,129.91z"
	/>
<path class="st3" d="M259.77,124.49l-2.7,8.74h-1.84l-1.64-5.42c-0.03-0.08-0.06-0.18-0.09-0.28s-0.06-0.21-0.08-0.32
	c-0.03,0.11-0.06,0.22-0.08,0.32c-0.03,0.1-0.06,0.19-0.09,0.28l-1.67,5.42h-1.84l-2.7-8.74h1.7c0.18,0,0.32,0.04,0.44,0.12
	s0.19,0.19,0.23,0.32l1.2,4.56c0.04,0.14,0.07,0.3,0.11,0.47s0.07,0.35,0.11,0.53c0.07-0.38,0.16-0.71,0.26-1l1.42-4.56
	c0.04-0.11,0.11-0.21,0.23-0.3s0.26-0.14,0.43-0.14h0.6c0.18,0,0.32,0.04,0.43,0.12c0.11,0.08,0.19,0.19,0.25,0.31l1.4,4.56
	c0.1,0.28,0.19,0.6,0.26,0.95c0.03-0.18,0.07-0.35,0.1-0.51c0.03-0.16,0.07-0.31,0.11-0.45l1.2-4.56c0.03-0.12,0.11-0.22,0.23-0.31
	s0.26-0.13,0.43-0.13h1.59V124.49z"/>
<path class="st3" d="M269.6,128.86c0,0.63-0.11,1.22-0.33,1.76s-0.52,1.02-0.92,1.42c-0.4,0.4-0.87,0.72-1.43,0.94
	c-0.56,0.23-1.18,0.34-1.86,0.34s-1.3-0.11-1.86-0.34s-1.04-0.54-1.44-0.94s-0.71-0.88-0.92-1.42s-0.33-1.13-0.33-1.76
	c0-0.63,0.11-1.22,0.33-1.76s0.53-1.02,0.92-1.42c0.4-0.4,0.88-0.71,1.44-0.94s1.18-0.34,1.86-0.34s1.3,0.11,1.86,0.34
	c0.56,0.23,1.04,0.55,1.43,0.95c0.4,0.4,0.7,0.87,0.92,1.42S269.6,128.23,269.6,128.86z M267.53,128.86c0-0.43-0.06-0.82-0.17-1.17
	c-0.11-0.35-0.27-0.64-0.48-0.88c-0.21-0.24-0.47-0.42-0.77-0.55c-0.3-0.13-0.65-0.19-1.04-0.19s-0.74,0.06-1.05,0.19
	c-0.31,0.13-0.56,0.31-0.77,0.55c-0.21,0.24-0.37,0.53-0.48,0.88c-0.11,0.35-0.17,0.73-0.17,1.17s0.06,0.83,0.17,1.17
	c0.11,0.35,0.27,0.64,0.48,0.88c0.21,0.24,0.47,0.42,0.77,0.55s0.66,0.19,1.05,0.19c0.39,0,0.73-0.06,1.04-0.19s0.56-0.31,0.77-0.55
	s0.37-0.53,0.48-0.88C267.47,129.69,267.53,129.29,267.53,128.86z"/>
<path class="st3" d="M278.55,133.23h-1.84c-0.34,0-0.58-0.13-0.73-0.38l-1.45-2.54c-0.07-0.11-0.14-0.19-0.23-0.24
	c-0.08-0.05-0.2-0.07-0.36-0.07h-0.52v3.23h-2.03v-8.74h2.84c0.63,0,1.17,0.07,1.62,0.2c0.45,0.13,0.81,0.31,1.09,0.54
	s0.49,0.51,0.62,0.82c0.13,0.32,0.19,0.66,0.19,1.03c0,0.28-0.04,0.55-0.11,0.8c-0.08,0.25-0.19,0.49-0.34,0.7s-0.33,0.4-0.55,0.57
	c-0.22,0.17-0.47,0.31-0.75,0.41c0.13,0.07,0.26,0.15,0.37,0.26c0.12,0.1,0.22,0.22,0.31,0.36L278.55,133.23z M274.24,128.6
	c0.28,0,0.51-0.04,0.71-0.1c0.19-0.07,0.35-0.17,0.48-0.29s0.21-0.27,0.27-0.44c0.06-0.17,0.08-0.35,0.08-0.54
	c0-0.38-0.12-0.68-0.38-0.9c-0.25-0.22-0.64-0.32-1.16-0.32h-0.82v2.59H274.24z"/>
<path class="st3" d="M287.82,128.86c0,0.63-0.11,1.21-0.33,1.75s-0.53,1-0.92,1.39c-0.4,0.39-0.87,0.69-1.43,0.91
	s-1.18,0.33-1.86,0.33h-3.4v-8.74h3.4c0.68,0,1.3,0.11,1.86,0.33s1.03,0.52,1.43,0.91c0.4,0.39,0.7,0.85,0.92,1.38
	C287.71,127.65,287.82,128.23,287.82,128.86z M285.74,128.86c0-0.43-0.06-0.82-0.17-1.17s-0.27-0.64-0.48-0.89
	c-0.21-0.24-0.47-0.43-0.77-0.56s-0.65-0.2-1.04-0.2h-1.36v5.62h1.36c0.39,0,0.73-0.06,1.04-0.19s0.56-0.32,0.77-0.56
	c0.21-0.24,0.37-0.54,0.48-0.89C285.69,129.69,285.74,129.29,285.74,128.86z"/>
<path class="st1" d="M255.26,117.12c-3.9,0-7.88-1.1-11.33-3.3c-0.93-0.59-1.21-1.83-0.61-2.76c0.59-0.93,1.83-1.21,2.76-0.61
	c5.51,3.51,12.97,3.53,17.75,0.04c0.89-0.65,2.14-0.46,2.79,0.43s0.46,2.14-0.44,2.79C263.08,115.98,259.22,117.12,255.26,117.12z"
	/>
<path class="st1" d="M268.5,107.85c-0.16,0-0.33-0.03-0.49-0.08c-1.6-0.55-4.42-0.55-6.02,0c-0.79,0.27-1.64-0.15-1.91-0.93
	s0.15-1.64,0.93-1.91c2.24-0.77,5.74-0.77,7.98,0c0.78,0.27,1.2,1.12,0.93,1.91C269.7,107.46,269.12,107.85,268.5,107.85z"/>
<circle class="st1" cx="265" cy="99.65" r="6"/>
<circle class="st3" cx="266.5" cy="99.65" r="1.5"/>
<path class="st1" d="M248.5,107.85c-0.16,0-0.33-0.03-0.49-0.08c-1.6-0.55-4.42-0.55-6.02,0c-0.79,0.27-1.64-0.15-1.91-0.93
	s0.15-1.64,0.93-1.91c2.24-0.77,5.74-0.77,7.98,0c0.78,0.27,1.2,1.12,0.93,1.91C249.7,107.46,249.12,107.85,248.5,107.85z"/>
<circle class="st1" cx="245" cy="99.65" r="6"/>
<circle class="st3" cx="246.5" cy="99.65" r="1.5"/>
<path class="st1" d="M260.21,81.27c2.59-1.89,6-2.29,8.96-1.07c1.6,0.63,4.2,2.71,2.31,4.39c-0.98,0.76-2.61,0.09-3.67,0.08
	c-1.14-0.13-2.92-0.2-4.1-0.22c-0.87-0.01-1.83,0.01-2.69-0.13C259.54,84.17,259.02,82.12,260.21,81.27L260.21,81.27z"/>
<path class="st1" d="M248.55,84.37c-1.27,0.13-3.1,0.07-4.39,0.14c-1.55,0.06-2.86,0.31-4.45,0.44c-0.95,0.08-1.78-0.63-1.85-1.58
	c-0.04-0.45,0.1-0.87,0.36-1.2c2.02-2.59,5.81-3.15,8.8-2.26c0.99,0.29,1.85,0.67,2.77,1.37C251.17,82.41,250.27,84.4,248.55,84.37
	L248.55,84.37z"/>
<path class="st6" d="M280,228c-4.96,0-9-4.04-9-9v-34c0-4.96,4.04-9,9-9h88c4.96,0,9,4.04,9,9v34c0,4.96-4.04,9-9,9H280z"/>
<path class="st1" d="M368,179c3.31,0,6,2.69,6,6v34c0,3.31-2.69,6-6,6h-88c-3.31,0-6-2.69-6-6v-34c0-3.31,2.69-6,6-6H368 M368,173
	h-88c-6.62,0-12,5.38-12,12v34c0,6.62,5.38,12,12,12h88c6.62,0,12-5.38,12-12v-34C380,178.38,374.62,173,368,173L368,173z"/>
<path class="st7" d="M262,228c-4.96,0-9-4.04-9-9v-34c0-4.96,4.04-9,9-9h88c4.96,0,9,4.04,9,9v34c0,4.96-4.04,9-9,9H262z"/>
<path class="st1" d="M350,179c3.31,0,6,2.69,6,6v34c0,3.31-2.69,6-6,6h-88c-3.31,0-6-2.69-6-6v-34c0-3.31,2.69-6,6-6H350 M350,173
	h-88c-6.62,0-12,5.38-12,12v34c0,6.62,5.38,12,12,12h88c6.62,0,12-5.38,12-12v-34C362,178.38,356.62,173,350,173L350,173z"/>
<path class="st3" d="M275.7,215.03h0.32c0.3,0,0.52-0.09,0.65-0.28l1.97-2.86c0.12-0.15,0.24-0.26,0.38-0.31
	c0.13-0.06,0.3-0.09,0.5-0.09h1.76l-2.59,3.53c-0.18,0.24-0.38,0.42-0.59,0.53c0.15,0.06,0.29,0.13,0.41,0.23
	c0.12,0.1,0.24,0.23,0.35,0.39l2.64,4.06h-1.81c-0.12,0-0.21-0.01-0.3-0.02c-0.08-0.02-0.15-0.04-0.21-0.07
	c-0.06-0.03-0.11-0.07-0.16-0.12s-0.09-0.1-0.13-0.16l-1.98-3.04c-0.07-0.11-0.16-0.19-0.27-0.24s-0.26-0.07-0.45-0.07h-0.49v3.72
	h-2.03v-8.74h2.03L275.7,215.03L275.7,215.03z"/>
<path class="st3" d="M284.79,213.05v2.04h2.75v1.5h-2.75v2.08h3.59v1.56h-5.63v-8.74h5.63v1.56L284.79,213.05L284.79,213.05z"/>
<path class="st3" d="M294.41,216.91v3.32h-2.03v-3.32l-3.17-5.42H291c0.18,0,0.32,0.04,0.42,0.12s0.19,0.19,0.25,0.32l1.24,2.54
	c0.1,0.2,0.2,0.39,0.28,0.56s0.16,0.35,0.22,0.51c0.06-0.17,0.13-0.34,0.21-0.52c0.08-0.17,0.17-0.36,0.27-0.55l1.22-2.54
	c0.03-0.05,0.06-0.1,0.1-0.16c0.04-0.05,0.09-0.1,0.14-0.14s0.12-0.08,0.19-0.1c0.07-0.03,0.15-0.04,0.23-0.04h1.8L294.41,216.91z"
	/>
<path class="st3" d="M310.77,211.49l-2.7,8.74h-1.84l-1.64-5.42c-0.03-0.08-0.06-0.18-0.09-0.28s-0.06-0.21-0.08-0.32
	c-0.03,0.11-0.06,0.22-0.08,0.32c-0.03,0.1-0.06,0.19-0.09,0.28l-1.67,5.42h-1.84l-2.7-8.74h1.7c0.18,0,0.32,0.04,0.44,0.12
	s0.19,0.19,0.23,0.32l1.2,4.56c0.04,0.14,0.07,0.3,0.11,0.47s0.07,0.35,0.11,0.53c0.07-0.38,0.16-0.71,0.26-1l1.42-4.56
	c0.04-0.11,0.11-0.21,0.23-0.3s0.26-0.14,0.43-0.14h0.6c0.18,0,0.32,0.04,0.43,0.12s0.19,0.19,0.25,0.32l1.4,4.56
	c0.1,0.28,0.19,0.6,0.26,0.95c0.03-0.18,0.07-0.35,0.1-0.51c0.03-0.16,0.07-0.31,0.11-0.45l1.2-4.56c0.03-0.12,0.11-0.22,0.23-0.31
	s0.26-0.13,0.43-0.13L310.77,211.49L310.77,211.49z"/>
<path class="st3" d="M320.6,215.86c0,0.63-0.11,1.22-0.33,1.76s-0.52,1.02-0.92,1.42c-0.4,0.4-0.87,0.72-1.43,0.94
	c-0.56,0.23-1.18,0.34-1.86,0.34s-1.3-0.11-1.86-0.34s-1.04-0.54-1.44-0.94c-0.4-0.4-0.71-0.88-0.92-1.42s-0.33-1.13-0.33-1.76
	c0-0.63,0.11-1.22,0.33-1.76s0.53-1.02,0.92-1.42s0.88-0.71,1.44-0.94s1.18-0.34,1.86-0.34s1.3,0.12,1.86,0.34
	c0.56,0.23,1.04,0.55,1.43,0.95c0.4,0.4,0.7,0.87,0.92,1.42S320.6,215.23,320.6,215.86z M318.53,215.86c0-0.43-0.06-0.82-0.17-1.17
	c-0.11-0.35-0.27-0.64-0.48-0.88c-0.21-0.24-0.47-0.42-0.77-0.55s-0.65-0.19-1.04-0.19s-0.74,0.06-1.05,0.19s-0.56,0.31-0.77,0.55
	s-0.37,0.53-0.48,0.88c-0.11,0.35-0.17,0.74-0.17,1.17c0,0.44,0.06,0.83,0.17,1.17c0.11,0.35,0.27,0.64,0.48,0.88
	c0.21,0.24,0.47,0.42,0.77,0.55s0.66,0.19,1.05,0.19c0.39,0,0.73-0.06,1.04-0.19s0.56-0.31,0.77-0.55s0.37-0.53,0.48-0.88
	C318.47,216.69,318.53,216.29,318.53,215.86z"/>
<path class="st3" d="M329.55,220.23h-1.84c-0.34,0-0.58-0.13-0.73-0.38l-1.45-2.54c-0.07-0.11-0.14-0.19-0.23-0.24
	c-0.08-0.05-0.2-0.07-0.36-0.07h-0.52v3.23h-2.03v-8.74h2.84c0.63,0,1.17,0.07,1.62,0.2c0.45,0.13,0.81,0.31,1.09,0.54
	s0.49,0.51,0.62,0.82c0.13,0.32,0.19,0.66,0.19,1.03c0,0.28-0.04,0.55-0.11,0.8c-0.08,0.25-0.19,0.49-0.34,0.7
	c-0.15,0.21-0.33,0.4-0.55,0.57c-0.22,0.17-0.47,0.31-0.75,0.41c0.13,0.07,0.26,0.15,0.37,0.26c0.12,0.1,0.22,0.22,0.31,0.36
	L329.55,220.23z M325.24,215.6c0.28,0,0.51-0.04,0.71-0.1c0.19-0.07,0.35-0.17,0.48-0.29s0.21-0.27,0.27-0.44s0.08-0.34,0.08-0.54
	c0-0.38-0.12-0.68-0.38-0.9c-0.25-0.22-0.64-0.32-1.16-0.32h-0.82v2.59H325.24z"/>
<path class="st3" d="M338.82,215.86c0,0.63-0.11,1.21-0.33,1.75s-0.53,1-0.92,1.39c-0.4,0.39-0.87,0.69-1.43,0.91
	s-1.18,0.33-1.86,0.33h-3.4v-8.74h3.4c0.68,0,1.3,0.11,1.86,0.33s1.03,0.52,1.43,0.91s0.7,0.85,0.92,1.38
	C338.71,214.65,338.82,215.23,338.82,215.86z M336.74,215.86c0-0.43-0.06-0.82-0.17-1.17c-0.11-0.35-0.27-0.64-0.48-0.88
	c-0.21-0.24-0.47-0.43-0.77-0.56s-0.65-0.2-1.04-0.2h-1.36v5.62h1.36c0.39,0,0.73-0.07,1.04-0.2s0.56-0.32,0.77-0.56
	c0.21-0.24,0.37-0.54,0.48-0.89C336.69,216.69,336.74,216.29,336.74,215.86z"/>
<path class="st1" d="M319,188.17c-1.1,0-2-0.9-2-2s-0.9-2-2-2s-2,0.9-2,2s-0.9,2-2,2s-2-0.9-2-2c0-3.31,2.69-6,6-6s6,2.69,6,6
	C321,187.28,320.11,188.17,319,188.17z"/>
<path class="st1" d="M301,188.17c-1.1,0-2-0.9-2-2s-0.9-2-2-2s-2,0.9-2,2s-0.9,2-2,2s-2-0.9-2-2c0-3.31,2.69-6,6-6s6,2.69,6,6
	C303,187.28,302.11,188.17,301,188.17z"/>
<path class="st1" d="M312.79,166.4c3.9-1.54,9.15-0.14,10.94,3.86c0.62,1.33-0.82,2.82-2.16,2.3c-1.5-0.54-2.7-1.12-4.19-1.58
	c-1.4-0.46-3.26-0.86-4.6-1.43C311.39,169.02,311.42,166.9,312.79,166.4L312.79,166.4z"/>
<path class="st1" d="M298.81,169.71c-2.68,0.86-5.41,1.55-8.01,2.71c-0.97,0.49-2.21,0.16-2.58-0.91c-0.15-0.42-0.12-0.87,0.04-1.25
	c1.28-3.03,4.8-4.55,7.91-4.46c1.03,0.03,1.96,0.17,3.03,0.6C300.84,167.13,300.48,169.29,298.81,169.71L298.81,169.71z"/>
<path class="st1" d="M316.01,190.44H296c-2.21,0-4,1.79-4,4c0,7.72,6.28,14,14,14c7.66,0,13.91-6.19,14-13.83v-0.17
	C320,192.23,318.21,190.44,316.01,190.44z"/>
<path class="st8" d="M306,204.44c2.96,0,5.61-1.29,7.44-3.33c-1.83-2.04-4.48-3.33-7.44-3.33s-5.61,1.29-7.44,3.33
	C300.39,203.15,303.04,204.44,306,204.44z"/>
<circle class="st9" cx="111" cy="322.33" r="70"/>
<path class="st1" d="M111,395.33c-40.25,0-73-32.75-73-73s32.75-73,73-73s73,32.75,73,73S151.25,395.33,111,395.33z M111,255.33
	c-36.94,0-67,30.06-67,67s30.06,67,67,67s67-30.06,67-67S147.94,255.33,111,255.33z"/>
<path class="st10" d="M111,392.33c23.44,0,44.18-11.54,56.89-29.23c-4.07-3.25-8.78-5.79-13.99-7.43l-41.99-13.2
	c-0.29-0.09-0.6-0.14-0.9-0.14s-0.61,0.05-0.9,0.14l-41.99,13.2c-5.21,1.64-9.92,4.19-13.99,7.43
	C66.82,380.8,87.56,392.33,111,392.33z"/>
<path class="st1" d="M69.01,358.53l41.99-13.2l41.99,13.2c4.86,1.53,9.27,3.93,13.07,6.99c1.24-1.58,2.42-3.22,3.53-4.9
	c-4.32-3.41-9.3-6.08-14.8-7.81l-41.99-13.2c-0.59-0.18-1.19-0.28-1.8-0.28s-1.21,0.09-1.8,0.28l-41.99,13.2
	c-5.5,1.73-10.48,4.4-14.8,7.81c1.11,1.69,2.28,3.32,3.53,4.9C59.74,362.46,64.14,360.06,69.01,358.53z"/>
<path class="st11" d="M111,348.33c-4.07,0-7.84-1.94-10.26-5.04c-2.23,1.69-4.99,2.66-7.85,2.66c-1.13,0-2.27-0.15-3.37-0.45
	c-3.93-1.05-7.07-3.9-8.6-7.51c-1.55,0.63-3.22,0.96-4.93,0.96c-2.27,0-4.51-0.6-6.48-1.74c-3.52-2.03-5.82-5.6-6.37-9.49
	c-0.54,0.07-1.09,0.1-1.64,0.1c-3.47,0-6.73-1.35-9.18-3.8c-2.88-2.88-4.17-6.92-3.69-10.82c-3.94-0.54-7.48-2.88-9.5-6.38
	c-2.04-3.53-2.24-7.76-0.76-11.41c-3.62-1.53-6.47-4.67-7.53-8.61s-0.15-8.08,2.21-11.22c-3.1-2.42-5.04-6.19-5.04-10.26
	s1.94-7.84,5.04-10.26c-2.37-3.14-3.27-7.28-2.21-11.22c1.05-3.94,3.91-7.08,7.53-8.61c-1.48-3.64-1.27-7.88,0.76-11.41
	c2.02-3.49,5.55-5.83,9.5-6.38c-0.48-3.9,0.81-7.94,3.69-10.81c2.45-2.45,5.71-3.8,9.18-3.8c0.55,0,1.1,0.04,1.64,0.1
	c0.55-3.89,2.84-7.46,6.37-9.49c1.97-1.14,4.22-1.74,6.48-1.74c1.71,0,3.38,0.33,4.93,0.96c1.54-3.61,4.67-6.46,8.6-7.51
	c1.1-0.29,2.23-0.44,3.37-0.44c2.86,0,5.62,0.97,7.85,2.66c2.42-3.1,6.19-5.04,10.26-5.04s7.84,1.94,10.26,5.04
	c2.23-1.69,4.99-2.66,7.85-2.66c1.13,0,2.27,0.15,3.37,0.44c3.93,1.05,7.07,3.9,8.6,7.51c1.55-0.63,3.22-0.96,4.93-0.96
	c2.27,0,4.51,0.6,6.48,1.74c3.53,2.04,5.82,5.6,6.37,9.49c0.54-0.07,1.09-0.1,1.64-0.1c3.47,0,6.73,1.35,9.18,3.8
	c2.88,2.88,4.17,6.92,3.69,10.82c3.94,0.54,7.48,2.88,9.5,6.38c2.04,3.53,2.24,7.77,0.76,11.41c3.62,1.53,6.47,4.67,7.53,8.61
	s0.15,8.08-2.21,11.22c3.1,2.42,5.04,6.19,5.04,10.26s-1.94,7.84-5.04,10.26c2.37,3.14,3.27,7.28,2.21,11.22s-3.91,7.07-7.53,8.61
	c1.48,3.65,1.27,7.88-0.76,11.41c-2.02,3.49-5.55,5.83-9.5,6.38c0.48,3.9-0.81,7.94-3.69,10.82c-2.45,2.45-5.71,3.8-9.18,3.8
	c-0.55,0-1.1-0.04-1.64-0.1c-0.55,3.89-2.84,7.46-6.37,9.49c-1.97,1.14-4.22,1.74-6.48,1.74c-1.71,0-3.38-0.33-4.93-0.96
	c-1.54,3.61-4.67,6.46-8.6,7.51c-1.1,0.3-2.23,0.45-3.37,0.45c-2.86,0-5.62-0.97-7.85-2.66C118.84,346.39,115.07,348.33,111,348.33z
	"/>
<path class="st1" d="M111,185.33c4.54,0,8.37,3.03,9.59,7.17c1.81-2.96,5.05-4.79,8.53-4.79c0.86,0,1.73,0.11,2.59,0.34
	c4.39,1.18,7.3,5.09,7.4,9.41c1.88-1.79,4.37-2.76,6.91-2.76c1.69,0,3.41,0.43,4.98,1.34c3.93,2.27,5.73,6.81,4.72,11.01
	c1.49-0.81,3.14-1.22,4.79-1.22c2.56,0,5.11,0.97,7.06,2.93c3.21,3.21,3.78,8.06,1.71,11.85c0.77-0.19,1.56-0.28,2.34-0.28
	c3.45,0,6.81,1.79,8.66,5c2.27,3.93,1.56,8.76-1.42,11.89c4.32,0.11,8.23,3.02,9.41,7.4c1.18,4.39-0.76,8.87-4.45,11.12
	c4.14,1.22,7.17,5.05,7.17,9.59s-3.03,8.37-7.17,9.59c3.69,2.25,5.62,6.73,4.45,11.12c-1.17,4.39-5.09,7.3-9.41,7.4
	c2.98,3.13,3.69,7.96,1.42,11.89c-1.85,3.21-5.21,5-8.66,5c-0.78,0-1.57-0.09-2.34-0.28c2.07,3.79,1.5,8.64-1.71,11.85
	c-1.95,1.95-4.51,2.93-7.06,2.93c-1.65,0-3.3-0.41-4.79-1.22c1.02,4.2-0.79,8.74-4.72,11.01c-1.57,0.91-3.29,1.34-4.98,1.34
	c-2.54,0-5.03-0.97-6.91-2.76c-0.11,4.32-3.02,8.23-7.4,9.41c-0.87,0.23-1.74,0.34-2.59,0.34c-3.48,0-6.72-1.83-8.53-4.79
	c-1.22,4.14-5.05,7.17-9.59,7.17s-8.37-3.03-9.59-7.17c-1.81,2.96-5.05,4.79-8.53,4.79c-0.86,0-1.73-0.11-2.59-0.34
	c-4.39-1.17-7.3-5.09-7.4-9.41c-1.88,1.79-4.37,2.76-6.91,2.76c-1.69,0-3.41-0.43-4.98-1.34c-3.93-2.27-5.73-6.81-4.72-11.01
	c-1.49,0.81-3.14,1.22-4.79,1.22c-2.56,0-5.11-0.97-7.06-2.93c-3.21-3.21-3.78-8.06-1.71-11.85c-0.77,0.19-1.56,0.28-2.34,0.28
	c-3.45,0-6.81-1.79-8.66-5c-2.27-3.93-1.56-8.76,1.42-11.89c-4.32-0.11-8.23-3.02-9.41-7.4c-1.18-4.39,0.76-8.87,4.45-11.12
	c-4.14-1.22-7.17-5.05-7.17-9.59s3.03-8.37,7.17-9.59c-3.69-2.25-5.62-6.73-4.45-11.12s5.09-7.3,9.41-7.4
	c-2.98-3.13-3.69-7.96-1.42-11.89c1.85-3.21,5.21-5,8.66-5c0.78,0,1.57,0.09,2.34,0.28c-2.07-3.79-1.5-8.64,1.71-11.85
	c1.95-1.95,4.51-2.93,7.06-2.93c1.65,0,3.3,0.41,4.79,1.22c-1.02-4.2,0.79-8.74,4.72-11.01c1.57-0.91,3.29-1.34,4.98-1.34
	c2.54,0,5.03,0.97,6.91,2.76c0.11-4.32,3.02-8.23,7.4-9.41c0.87-0.23,1.74-0.34,2.59-0.34c3.48,0,6.72,1.83,8.53,4.79
	C102.63,188.36,106.46,185.33,111,185.33 M111,179.33c-4.06,0-7.88,1.57-10.76,4.19c-2.25-1.17-4.77-1.81-7.35-1.81
	c-1.39,0-2.79,0.18-4.14,0.55c-3.92,1.05-7.19,3.55-9.3,6.82c-1.12-0.25-2.28-0.37-3.46-0.37c-2.79,0-5.55,0.74-7.98,2.14
	c-3.51,2.03-6.03,5.29-7.22,9c-4,0.17-7.74,1.82-10.59,4.67c-2.87,2.87-4.46,6.67-4.65,10.57c-3.75,1.19-7,3.75-9.02,7.24
	c-2.03,3.52-2.58,7.61-1.75,11.43c-3.28,2.11-5.79,5.39-6.84,9.32c-1.05,3.93-0.52,8.02,1.27,11.49c-2.63,2.89-4.2,6.71-4.2,10.77
	s1.57,7.88,4.2,10.77c-1.79,3.47-2.32,7.56-1.27,11.49c1.05,3.92,3.56,7.21,6.84,9.32c-0.83,3.81-0.28,7.91,1.75,11.43
	c2.02,3.49,5.27,6.05,9.02,7.24c0.19,3.89,1.78,7.7,4.65,10.57c2.85,2.85,6.59,4.49,10.59,4.67c1.19,3.71,3.71,6.97,7.22,9
	c2.43,1.4,5.19,2.14,7.98,2.14c1.17,0,2.33-0.13,3.46-0.37c2.11,3.27,5.39,5.77,9.3,6.82c1.35,0.36,2.75,0.55,4.14,0.55
	c2.59,0,5.11-0.64,7.35-1.81c2.89,2.62,6.7,4.19,10.76,4.19s7.88-1.57,10.76-4.19c2.25,1.17,4.77,1.81,7.35,1.81
	c1.39,0,2.79-0.18,4.14-0.55c3.92-1.05,7.19-3.55,9.3-6.82c1.12,0.25,2.28,0.37,3.46,0.37c2.79,0,5.55-0.74,7.98-2.14
	c3.51-2.03,6.03-5.29,7.22-9c4-0.17,7.74-1.82,10.59-4.67c2.87-2.87,4.46-6.67,4.65-10.57c3.75-1.19,7-3.75,9.02-7.24
	c2.03-3.52,2.58-7.61,1.75-11.43c3.28-2.11,5.79-5.39,6.84-9.32s0.52-8.02-1.27-11.49c2.63-2.89,4.2-6.71,4.2-10.77
	s-1.57-7.88-4.2-10.77c1.79-3.47,2.32-7.56,1.27-11.49c-1.05-3.93-3.56-7.21-6.84-9.32c0.83-3.81,0.28-7.91-1.75-11.43
	c-2.02-3.49-5.27-6.05-9.02-7.24c-0.19-3.89-1.78-7.7-4.65-10.57c-2.85-2.85-6.59-4.49-10.59-4.67c-1.19-3.71-3.71-6.97-7.22-9
	c-2.43-1.4-5.19-2.14-7.98-2.14c-1.17,0-2.33,0.13-3.46,0.37c-2.11-3.27-5.39-5.77-9.3-6.82c-1.36-0.36-2.75-0.55-4.14-0.55
	c-2.59,0-5.11,0.64-7.35,1.81C118.88,180.9,115.06,179.33,111,179.33L111,179.33z"/>
<path class="st12" d="M70,298.13c-6.07,0-11-4.93-11-11v-1.6c0-6.07,4.93-11,11-11c1.66,0,3,1.34,3,3v17.6
	C73,296.79,71.66,298.13,70,298.13z"/>
<path class="st1" d="M70,277.53v17.6c-4.42,0-8-3.58-8-8v-1.6C62,281.12,65.58,277.53,70,277.53 M70,271.53c-7.72,0-14,6.28-14,14
	v1.6c0,7.72,6.28,14,14,14c3.31,0,6-2.69,6-6v-17.6C76,274.22,73.31,271.53,70,271.53L70,271.53z"/>
<circle class="st13" cx="67" cy="302.33" r="6"/>
<path class="st1" d="M67,299.33c1.66,0,3,1.34,3,3s-1.34,3-3,3s-3-1.34-3-3C64,300.68,65.34,299.33,67,299.33 M67,293.33
	c-4.96,0-9,4.04-9,9s4.04,9,9,9s9-4.04,9-9S71.96,293.33,67,293.33L67,293.33z"/>
<path class="st14" d="M111,385.33c-0.82,0-1.61-0.34-2.18-0.94C107.41,382.9,95,369.55,95,360.33v-35c0-1.66,1.34-3,3-3h26
	c1.66,0,3,1.34,3,3v35c0,9.21-12.41,22.57-13.82,24.06C112.61,384.99,111.82,385.33,111,385.33z"/>
<path class="st1" d="M124,325.33v35c0,8.28-13,22-13,22s-13-13.72-13-22v-35H124 M124,319.33H98c-3.31,0-6,2.69-6,6v35
	c0,4.8,2.5,10.57,7.65,17.64c3.44,4.72,6.85,8.34,7,8.49c1.13,1.2,2.71,1.87,4.35,1.87s3.22-0.68,4.35-1.87
	c0.14-0.15,3.56-3.77,7-8.49c5.15-7.07,7.65-12.84,7.65-17.64v-35C130,322.02,127.31,319.33,124,319.33L124,319.33z"/>
<path class="st12" d="M98,321.33v29.93c4.09,1.33,8.46,2.07,13,2.07s8.91-0.73,13-2.07v-29.93H98z"/>
<path class="st14" d="M152,298.13c-1.66,0-3-1.34-3-3v-17.6c0-1.66,1.34-3,3-3c6.07,0,11,4.93,11,11v1.6
	C163,293.2,158.07,298.13,152,298.13z"/>
<path class="st1" d="M152,277.53c4.42,0,8,3.58,8,8v1.6c0,4.42-3.58,8-8,8l0,0V277.53L152,277.53 M152,271.53c-3.31,0-6,2.69-6,6
	v17.6c0,1.59,0.63,3.12,1.76,4.24c1.13,1.13,2.65,1.76,4.24,1.76c7.72,0,14-6.28,14-14v-1.6C166,277.81,159.72,271.53,152,271.53
	L152,271.53z"/>
<circle class="st13" cx="155" cy="302.33" r="6"/>
<path class="st1" d="M155,299.33c1.66,0,3,1.34,3,3s-1.34,3-3,3s-3-1.34-3-3C152,300.68,153.34,299.33,155,299.33 M155,293.33
	c-4.96,0-9,4.04-9,9s4.04,9,9,9s9-4.04,9-9S159.96,293.33,155,293.33L155,293.33z"/>
<path class="st14" d="M111,336.33c-21.5,0-39-17.5-39-39v-28c0-21.5,17.5-39,39-39s39,17.49,39,39v28
	C150,318.84,132.5,336.33,111,336.33z"/>
<path class="st1" d="M111,233.33c19.88,0,36,16.12,36,36v28c0,19.88-16.12,36-36,36l0,0c-19.88,0-36-16.12-36-36v-28
	C75,249.45,91.12,233.33,111,233.33L111,233.33 M111,227.33c-23.16,0-42,18.84-42,42v28c0,23.16,18.84,42,42,42s42-18.84,42-42v-28
	C153,246.17,134.16,227.33,111,227.33L111,227.33z"/>
<path class="st12" d="M83,297.33v-28c0-18.53,14-33.78,32-35.77c-1.31-0.15-2.65-0.23-4-0.23l0,0c-19.88,0-36,16.12-36,36v28
	c0,19.88,16.12,36,36,36l0,0c1.35,0,2.69-0.08,4-0.23C97,331.12,83,315.86,83,297.33z"/>
<path class="st12" d="M118,283.33c0,3.87-3.13,7-7,7l0,0c-3.87,0-7-3.13-7-7H118z"/>
<path class="st1" d="M124.12,266.99c4.22-4.89,13.85-3.9,15.66,2.73c0.16,0.57-0.16,1.16-0.73,1.33c-0.29,0.09-0.57,0.03-0.84-0.09
	c-3.26-1.49-5.9-2.32-9.45-2.25c-1.19-0.02-2.54,0.06-3.88,0.03C124.01,268.76,123.52,267.61,124.12,266.99L124.12,266.99z"/>
<path class="st1" d="M96.92,268.74c-4.84-0.2-8.73-0.03-13.14,2.21c-0.58,0.3-1.31,0.07-1.54-0.56c-0.02-3.42,3.92-6.14,7.13-6.43
	c3.19-0.34,6.32,0.65,8.51,3.02C98.54,267.72,97.88,268.87,96.92,268.74L96.92,268.74z"/>
<path class="st1" d="M107.21,317.11c2.47,0.57,5.1,0.59,7.57,0c1.27-0.35,2.15,1.33,1.18,2.18c-0.77,0.76-1.77,1.54-2.78,1.78
	c-2.16,0.62-4.6,0.39-6.39-1.11l-0.74-0.66C105.06,318.44,105.96,316.77,107.21,317.11L107.21,317.11z"/>
<path class="st11" d="M63.78,260.72c13.19,0,35.22-25.39,35.22-25.39s21.46,31,61,31l-4-18.89l-9.2-11.88l-15.12-10.73l-21.23-4.64
	l-21.5,4.93l-14.59,10.41l-7.84,10.68L63.78,260.72z"/>
<path class="st1" d="M158,269.33c-33.32,0-52.75-20.8-59.18-29.09c-2.14,2.5-5.48,6.21-9.41,9.96
	c-9.41,8.97-17.36,13.52-23.63,13.52c-1.66,0-3-1.34-3-3s1.34-3,3-3c4.53,0,11.44-4.2,19.44-11.82
	c6.44-6.13,11.38-12.37,11.43-12.43c0.6-0.77,1.54-1.2,2.52-1.14c0.97,0.05,1.86,0.57,2.38,1.4c0.18,0.29,19.13,29.59,56.46,29.59
	c1.66,0,3,1.34,3,3S159.66,269.33,158,269.33z"/>
<path class="st1" d="M149,257.81c-0.23,0-0.46-0.03-0.7-0.1c-26.57-7.7-40.71-26.09-41.3-26.87c-0.83-1.1-0.61-2.67,0.49-3.5
	s2.67-0.62,3.5,0.49c0.13,0.18,13.79,17.86,38.7,25.08c1.33,0.38,2.09,1.77,1.71,3.1C151.08,257.09,150.08,257.81,149,257.81z"/>
<path class="st1" d="M111,292.83c-5.24,0-9.5-4.26-9.5-9.5v-13c0-1.38,1.12-2.5,2.5-2.5s2.5,1.12,2.5,2.5v13
	c0,2.48,2.02,4.5,4.5,4.5s4.5-2.02,4.5-4.5v-13c0-1.38,1.12-2.5,2.5-2.5s2.5,1.12,2.5,2.5v13C120.5,288.57,116.24,292.83,111,292.83
	z"/>
<circle class="st1" cx="130" cy="274.33" r="6"/>
<circle class="st3" cx="132" cy="274.33" r="1.5"/>
<path class="st1" d="M134,283.33c-0.35,0-0.71-0.09-1.03-0.29c-1.58-0.95-4.35-0.95-5.93,0c-0.95,0.57-2.18,0.27-2.75-0.68
	c-0.57-0.95-0.27-2.17,0.68-2.75c2.82-1.71,7.24-1.71,10.07,0c0.95,0.57,1.25,1.8,0.68,2.75C135.34,282.99,134.68,283.33,134,283.33
	z"/>
<circle class="st1" cx="92" cy="274.33" r="6"/>
<path class="st1" d="M96,283.33c-0.35,0-0.71-0.09-1.03-0.29c-1.58-0.95-4.35-0.95-5.93,0c-0.95,0.57-2.18,0.27-2.75-0.68
	c-0.57-0.95-0.27-2.17,0.68-2.75c2.82-1.71,7.24-1.71,10.07,0c0.95,0.57,1.25,1.8,0.68,2.75C97.34,282.99,96.68,283.33,96,283.33z"
	/>
<circle class="st3" cx="94" cy="274.33" r="1.5"/>
<path class="st1" d="M123.01,294.33H99c-2.21,0-4,1.79-4,4c0,8.82,7.18,16,16,16c8.77,0,15.91-7.09,16-15.84v-0.16
	C127,296.12,125.21,294.33,123.01,294.33z"/>
<path class="st8" d="M111,310.33c3.55,0,6.73-1.55,8.93-4c-2.2-2.45-5.38-4-8.93-4s-6.73,1.55-8.93,4
	C104.27,308.78,107.45,310.33,111,310.33z"/>
<path class="st1" d="M111,395.33c-40.25,0-73-32.75-73-73h6c0,36.94,30.06,67,67,67s67-30.06,67-67h6
	C184,362.58,151.25,395.33,111,395.33z"/>
<path class="st15" d="M93,132.59c-1.66,0-3-1.34-3-3c0-10.77-4.61-16.58-9.95-23.31C73.94,98.57,67,89.83,67,72.59
	c0-23.71,19.29-43,43-43s43,19.29,43,43c0,17.24-6.94,25.98-13.05,33.69c-5.34,6.73-9.95,12.53-9.95,23.31c0,1.66-1.34,3-3,3H93z"/>
<path class="st1" d="M110,32.59c22.09,0,40,17.91,40,40c0,30.78-23,32.05-23,57H93c0-24.95-23-26.22-23-57
	C70,50.5,87.91,32.59,110,32.59 M110,26.59c-25.36,0-46,20.64-46,46c0,18.29,7.6,27.86,13.7,35.56c5.19,6.54,9.3,11.71,9.3,21.44
	c0,3.31,2.69,6,6,6h34c3.31,0,6-2.69,6-6c0-9.73,4.1-14.9,9.3-21.44c6.11-7.69,13.7-17.27,13.7-35.56
	C156,47.22,135.36,26.59,110,26.59L110,26.59z"/>
<path class="st1" d="M125,77.37c-0.16,0-0.33-0.03-0.49-0.08c-1.9-0.66-5.12-0.66-7.02,0c-0.78,0.27-1.64-0.15-1.91-0.93
	c-0.27-0.78,0.15-1.64,0.93-1.91c2.52-0.87,6.46-0.87,8.98,0c0.78,0.27,1.2,1.12,0.93,1.91C126.2,76.98,125.62,77.37,125,77.37z"/>
<circle class="st1" cx="121" cy="69.66" r="6.5"/>
<circle class="st3" cx="122.62" cy="69.66" r="1.62"/>
<path class="st1" d="M103,77.37c-0.16,0-0.33-0.03-0.49-0.08c-1.9-0.66-5.12-0.66-7.02,0c-0.78,0.27-1.64-0.15-1.91-0.93
	c-0.27-0.78,0.15-1.64,0.93-1.91c2.52-0.87,6.46-0.87,8.98,0c0.78,0.27,1.2,1.12,0.93,1.91C104.2,76.98,103.62,77.37,103,77.37z"/>
<circle class="st1" cx="99" cy="69.66" r="6.5"/>
<circle class="st3" cx="100.62" cy="69.66" r="1.62"/>
<path class="st1" d="M116.62,58.61c2.83-2.2,6.75-2.7,10-1.17c1.62,0.75,4.38,3,2.37,4.69c-0.52,0.39-1.14,0.36-1.71,0.21
	c-1.6-0.39-2.83-0.7-4.42-0.78c-1.67-0.13-3.54,0.1-5.23,0.05C116.08,61.6,115.41,59.54,116.62,58.61L116.62,58.61z"/>
<path class="st1" d="M101.96,61.63c-3.17-0.15-6.16-0.21-9.24,0.72c-1.01,0.34-2.18-0.16-2.39-1.26c-0.1-0.48,0.02-0.96,0.29-1.33
	c0.69-0.96,1.64-1.82,2.76-2.31c2.15-1.06,4.72-1.11,6.95-0.42c1.54,0.49,4.79,1.84,3.31,3.96
	C103.22,61.53,102.58,61.65,101.96,61.63L101.96,61.63z"/>
<path class="st16" d="M137,62.22c-1.17,0-2.28-0.69-2.76-1.83c-3.96-9.36-13.08-15.4-23.24-15.4c-1.66,0-3-1.34-3-3s1.34-3,3-3
	c12.57,0,23.86,7.48,28.76,19.07c0.65,1.53-0.07,3.29-1.59,3.93C137.79,62.14,137.39,62.22,137,62.22z"/>
<path class="st1" d="M103,128.59c-0.87,0-1.68-0.58-1.92-1.46l-7-25c-0.3-1.06,0.32-2.17,1.39-2.46c1.07-0.3,2.17,0.32,2.46,1.39
	l7,25c0.3,1.06-0.32,2.17-1.39,2.46C103.36,128.57,103.18,128.59,103,128.59z"/>
<path class="st1" d="M117,128.59c-0.18,0-0.36-0.02-0.54-0.07c-1.06-0.3-1.68-1.4-1.39-2.46l7-25c0.3-1.06,1.4-1.69,2.46-1.39
	s1.68,1.4,1.39,2.46l-7,25C118.68,128.01,117.88,128.59,117,128.59z"/>
<path class="st1" d="M116,109.59c-0.46,0-0.91-0.16-1.28-0.46L110,105.2l-4.72,3.93c-0.71,0.59-1.74,0.62-2.48,0.06l-8-6
	c-0.88-0.66-1.06-1.92-0.4-2.8c0.66-0.88,1.92-1.06,2.8-0.4l6.73,5.05l4.79-3.99c0.74-0.62,1.82-0.62,2.56,0l4.79,3.99l6.73-5.05
	c0.88-0.66,2.14-0.48,2.8,0.4s0.48,2.14-0.4,2.8l-8,6C116.84,109.46,116.42,109.59,116,109.59z"/>
<path class="st13" d="M106.87,166.59c-2.2,0-4.15-1.45-4.78-3.54l-2.41-6.46h20.64l-2.41,6.46c-0.64,2.09-2.58,3.54-4.78,3.54
	H106.87z"/>
<path class="st1" d="M116,159.59l-0.94,2.52c-0.23,0.88-1.03,1.48-1.93,1.48h-6.26c-0.91,0-1.7-0.61-1.93-1.48l-0.94-2.52H116
	 M124.64,153.59H116h-12h-8.64l3.02,8.1l0.87,2.33c1.05,3.3,4.13,5.57,7.62,5.57h6.26c3.49,0,6.57-2.27,7.62-5.57l0.87-2.33
	L124.64,153.59L124.64,153.59z"/>
<path class="st17" d="M97,156.59c-3.86,0-7-3.14-7-7v-23h40v23c0,3.86-3.14,7-7,7H97z"/>
<line class="st18" x1="90" y1="138.59" x2="130" y2="134.59"/>
<line class="st18" x1="90" y1="148.59" x2="130" y2="144.59"/>
<path class="st1" d="M87,123.59v26c0,5.51,4.49,10,10,10h26c5.51,0,10-4.49,10-10v-26H87z M93,141.31l34-3.4v3.97l-34,3.4V141.31z
	 M127,129.59v2.29l-34,3.4v-5.69H127z M123,153.59H97c-1.61,0-2.98-0.95-3.62-2.32l33.62-3.36v1.68
	C127,151.8,125.21,153.59,123,153.59z"/>
<path class="st1" d="M119,79.59h-18c-2.76,0-5,2.24-5,5c0,7.72,6.28,14,14,14c7.65,0,13.89-6.17,14-13.8v-0.2
	C124,81.83,121.77,79.59,119,79.59z"/>
<path class="st8" d="M110,93.59c2.66,0,5.05-1.16,6.69-3c-1.65-1.84-4.03-3-6.69-3s-5.05,1.16-6.69,3
	C104.95,92.43,107.34,93.59,110,93.59z"/>
<path class="st1" d="M111,21c-1.66,0-3-1.34-3-3V8c0-1.66,1.34-3,3-3s3,1.34,3,3v10C114,19.66,112.66,21,111,21z"/>
<path class="st1" d="M176,76h-10c-1.66,0-3-1.34-3-3s1.34-3,3-3h10c1.66,0,3,1.34,3,3S177.66,76,176,76z"/>
<path class="st1" d="M56,76H46c-1.66,0-3-1.34-3-3s1.34-3,3-3h10c1.66,0,3,1.34,3,3S57.66,76,56,76z"/>
<path class="st1" d="M151.89,35.11c-0.77,0-1.54-0.29-2.12-0.88c-1.17-1.17-1.17-3.07,0-4.24l7.07-7.07c1.17-1.17,3.07-1.17,4.24,0
	s1.17,3.07,0,4.24l-7.07,7.07C153.43,34.82,152.66,35.11,151.89,35.11z"/>
<path class="st1" d="M70.11,35.11c-0.77,0-1.54-0.29-2.12-0.88l-7.07-7.07c-1.17-1.17-1.17-3.07,0-4.24s3.07-1.17,4.24,0l7.07,7.07
	c1.17,1.17,1.17,3.07,0,4.24C71.64,34.82,70.88,35.11,70.11,35.11z"/>
<path class="st7" d="M343.13,41.2c2.98,0,5.4-2.42,5.4-5.4c0-0.99,0.81-1.8,1.8-1.8s1.8,0.81,1.8,1.8c0,2.98,2.42,5.4,5.4,5.4
	c0.99,0,1.8,0.81,1.8,1.8s-0.81,1.8-1.8,1.8c-2.98,0-5.4,2.42-5.4,5.4c0,0.99-0.81,1.8-1.8,1.8s-1.8-0.81-1.8-1.8
	c0-2.98-2.42-5.4-5.4-5.4c-0.99,0-1.8-0.81-1.8-1.8S342.14,41.2,343.13,41.2z"/>
<circle class="st7" cx="383.83" cy="86.5" r="4.5"/>
<circle class="st7" cx="327" cy="381" r="5"/>
<path class="st7" d="M380,342h-6v-6c0-1.66-1.34-3-3-3c-1.66,0-3,1.34-3,3v6h-6c-1.66,0-3,1.34-3,3c0,1.66,1.34,3,3,3h6v6
	c0,1.66,1.34,3,3,3c1.66,0,3-1.34,3-3v-6h6c1.66,0,3-1.34,3-3C383,343.34,381.66,342,380,342z"/>
<path class="st7" d="M221.73,213.27c2.32,0,4.2-1.88,4.2-4.2c0-0.77,0.63-1.4,1.4-1.4c0.77,0,1.4,0.63,1.4,1.4
	c0,2.32,1.88,4.2,4.2,4.2c0.77,0,1.4,0.63,1.4,1.4c0,0.77-0.63,1.4-1.4,1.4c-2.32,0-4.2,1.88-4.2,4.2c0,0.77-0.63,1.4-1.4,1.4
	c-0.77,0-1.4-0.63-1.4-1.4c0-2.32-1.88-4.2-4.2-4.2c-0.77,0-1.4-0.63-1.4-1.4C220.33,213.9,220.96,213.27,221.73,213.27z"/>
<circle class="st7" cx="223.33" cy="166.67" r="4"/>
<circle class="st7" cx="186.33" cy="165.67" r="3"/>
<path class="st7" d="M11.13,165.2c2.98,0,5.4-2.42,5.4-5.4c0-0.99,0.81-1.8,1.8-1.8s1.8,0.81,1.8,1.8c0,2.98,2.42,5.4,5.4,5.4
	c0.99,0,1.8,0.81,1.8,1.8s-0.81,1.8-1.8,1.8c-2.98,0-5.4,2.42-5.4,5.4c0,0.99-0.81,1.8-1.8,1.8s-1.8-0.81-1.8-1.8
	c0-2.98-2.42-5.4-5.4-5.4c-0.99,0-1.8-0.81-1.8-1.8S10.14,165.2,11.13,165.2z"/>
<circle class="st7" cx="53.83" cy="140.5" r="4.5"/>
<circle class="st7" cx="205" cy="349" r="3"/>
<rect class="st18" width="400" height="400"/>
</svg>
