<?xml version="1.0" encoding="utf-8"?>
<!-- Generator: Adobe Illustrator 25.4.1, SVG Export Plug-In . SVG Version: 6.00 Build 0)  -->
<svg version="1.1" id="how-to-run-facebook-ads" xmlns="http://www.w3.org/2000/svg" xmlns:xlink="http://www.w3.org/1999/xlink"
	 x="0px" y="0px" viewBox="0 0 400 400" style="enable-background:new 0 0 400 400;" xml:space="preserve">
<style type="text/css">
	.st0{fill:#1877F2;}
	.st1{fill:#FFFFFF;}
	.st2{fill:#7DDF96;}
	.st3{fill:#515979;}
	.st4{fill:#3CB48C;}
	.st5{fill:#75A5C3;}
	.st6{fill:#508CB4;}
	.st7{fill:#D8EBFB;}
	.st8{fill:#00C853;}
	.st9{fill:#2196F3;}
	.st10{fill:#FDE1D9;}
	.st11{fill:#EF7D7D;}
	.st12{fill:#FFEBEB;}
	.st13{fill:#FFD886;}
	.st14{fill:#FBB040;}
	.st15{fill:#C7BCFF;}
	.st16{fill:#B29D90;}
	.st17{fill:#747A94;}
</style>
<g>
	<path class="st0" d="M388,90c0-38.66-31.34-70-70-70s-70,31.34-70,70c0,34.94,25.6,63.9,59.06,69.15v-48.91h-17.77V90h17.77V74.58
		c0-17.54,10.45-27.23,26.44-27.23c7.66,0,15.67,1.37,15.67,1.37v17.23h-8.83c-8.7,0-11.41,5.4-11.41,10.93V90h19.41l-3.1,20.23
		h-16.31v48.91C362.4,153.9,388,124.94,388,90z"/>
	<path class="st1" d="M345.25,110.23l3.1-20.23h-19.41V76.87c0-5.54,2.71-10.93,11.41-10.93h8.83V48.71c0,0-8.01-1.37-15.67-1.37
		c-15.99,0-26.44,9.69-26.44,27.23V90h-17.77v20.23h17.77v48.91c3.56,0.56,7.22,0.85,10.94,0.85s7.37-0.29,10.94-0.85v-48.91H345.25
		z"/>
</g>
<g>
	<g>
		<g>
			<g>
				<path class="st2" d="M160.89,70.78c-1.43,0-2.69-1.02-2.95-2.48l-3.47-19.7c-0.29-1.63,0.8-3.19,2.43-3.48l11.82-2.08
					c0.17-0.03,0.35-0.05,0.52-0.05c0.61,0,1.21,0.19,1.72,0.54c0.65,0.46,1.1,1.15,1.23,1.94l3.47,19.7
					c0.14,0.78-0.04,1.59-0.5,2.24s-1.15,1.1-1.94,1.23l-11.82,2.08C161.24,70.77,161.06,70.78,160.89,70.78z"/>
			</g>
			<g>
				<g>
					<path class="st3" d="M169.24,46l3.47,19.7l-11.82,2.08l-3.47-19.7L169.24,46 M169.24,40c-0.35,0-0.7,0.03-1.04,0.09
						l-11.82,2.08c-3.26,0.58-5.44,3.69-4.87,6.95l3.47,19.7c0.28,1.57,1.16,2.96,2.47,3.87c1.02,0.71,2.22,1.09,3.44,1.09
						c0.35,0,0.7-0.03,1.04-0.09l11.82-2.08c3.26-0.58,5.44-3.69,4.87-6.95l-3.47-19.7c-0.28-1.57-1.16-2.96-2.47-3.87
						C171.67,40.37,170.46,40,169.24,40L169.24,40z"/>
				</g>
			</g>
		</g>
		<g>
			<g>
				<path class="st2" d="M174.78,149.56c-1.43,0-2.69-1.02-2.95-2.48l-3.47-19.7c-0.14-0.78,0.04-1.59,0.5-2.24
					c0.46-0.65,1.15-1.1,1.94-1.23l11.82-2.08c0.18-0.03,0.35-0.05,0.52-0.05c1.43,0,2.69,1.02,2.95,2.48l3.47,19.7
					c0.14,0.78-0.04,1.59-0.5,2.24s-1.15,1.1-1.94,1.23l-11.82,2.08C175.13,149.55,174.96,149.56,174.78,149.56z"/>
			</g>
			<g>
				<g>
					<path class="st3" d="M183.13,124.78l3.47,19.7l-11.82,2.08l-3.47-19.7L183.13,124.78 M183.14,118.78
						c-0.35,0-0.7,0.03-1.05,0.09l-11.82,2.08c-1.57,0.28-2.96,1.16-3.87,2.47c-0.91,1.3-1.27,2.92-0.99,4.48l3.47,19.7
						c0.51,2.91,3.05,4.96,5.9,4.96c0.35,0,0.7-0.03,1.05-0.09l11.82-2.08c1.57-0.28,2.96-1.16,3.87-2.47
						c0.91-1.3,1.27-2.92,0.99-4.48l-3.47-19.7C188.53,120.83,186,118.78,183.14,118.78L183.14,118.78z"/>
				</g>
			</g>
		</g>
		<g>
			<g>
				<path class="st2" d="M123.81,113.87c-1.43,0-2.69-1.02-2.95-2.48l-2.08-11.82c-0.14-0.78,0.04-1.59,0.5-2.24s1.15-1.1,1.94-1.23
					l19.7-3.47c0.17-0.03,0.35-0.05,0.52-0.05c0.61,0,1.21,0.19,1.72,0.54c0.65,0.46,1.1,1.15,1.23,1.94l2.08,11.82
					c0.29,1.63-0.8,3.19-2.43,3.48l-19.7,3.47C124.16,113.86,123.98,113.87,123.81,113.87z"/>
			</g>
			<g>
				<g>
					<path class="st3" d="M141.43,95.58l2.08,11.82l-19.7,3.47l-2.08-11.82L141.43,95.58 M141.43,89.58c-0.35,0-0.7,0.03-1.05,0.09
						l-19.7,3.47c-1.57,0.28-2.96,1.16-3.87,2.47c-0.91,1.3-1.27,2.92-0.99,4.48l2.08,11.82c0.51,2.91,3.05,4.96,5.9,4.96
						c0.35,0,0.7-0.03,1.05-0.09l19.7-3.47c1.57-0.28,2.96-1.16,3.87-2.47c0.91-1.3,1.27-2.92,0.99-4.48l-2.08-11.82
						C146.82,91.63,144.29,89.58,141.43,89.58L141.43,89.58z"/>
				</g>
			</g>
		</g>
		<g>
			<g>
				<path class="st2" d="M202.6,99.98c-0.61,0-1.21-0.19-1.72-0.54c-0.65-0.46-1.1-1.15-1.23-1.94l-2.08-11.82
					c-0.29-1.63,0.8-3.19,2.43-3.48l19.7-3.47c0.18-0.03,0.35-0.05,0.52-0.05c1.43,0,2.69,1.02,2.95,2.48l2.08,11.82
					c0.14,0.78-0.04,1.59-0.5,2.24c-0.46,0.65-1.15,1.1-1.94,1.23l-19.7,3.47C202.95,99.97,202.77,99.98,202.6,99.98z"/>
			</g>
			<g>
				<g>
					<path class="st3" d="M220.21,81.69l2.08,11.82l-19.7,3.47l-2.08-11.82L220.21,81.69 M220.22,75.69c-0.35,0-0.7,0.03-1.05,0.09
						l-19.7,3.47c-3.26,0.58-5.44,3.69-4.87,6.95l2.08,11.82c0.28,1.57,1.16,2.96,2.47,3.87c1.02,0.71,2.22,1.09,3.44,1.09
						c0.35,0,0.7-0.03,1.04-0.09l19.7-3.47c1.57-0.28,2.96-1.16,3.87-2.47c0.91-1.3,1.27-2.92,0.99-4.48l-2.08-11.82
						C225.61,77.74,223.08,75.69,220.22,75.69L220.22,75.69z"/>
				</g>
			</g>
		</g>
		<g>
			<g>
				<path class="st2" d="M144,86.99c-0.59,0-1.19-0.18-1.72-0.54l-16.38-11.47c-1.36-0.95-1.69-2.82-0.74-4.18l6.88-9.83
					c0.46-0.65,1.15-1.1,1.94-1.23c0.17-0.03,0.35-0.05,0.52-0.05c0.61,0,1.21,0.19,1.72,0.54L152.6,71.7
					c0.65,0.46,1.1,1.15,1.23,1.94s-0.04,1.59-0.5,2.24l-6.88,9.83C145.87,86.54,144.94,86.99,144,86.99z"/>
			</g>
			<g>
				<g>
					<path class="st3" d="M134.5,62.69l16.38,11.47L144,83.99l-16.38-11.47L134.5,62.69 M134.5,56.69c-0.35,0-0.7,0.03-1.04,0.09
						c-1.57,0.28-2.96,1.16-3.87,2.47l-6.88,9.83c-1.9,2.71-1.24,6.46,1.47,8.36l16.38,11.47c1.05,0.73,2.25,1.09,3.44,1.09
						c1.89,0,3.75-0.89,4.92-2.56l6.88-9.83c0.91-1.3,1.27-2.92,0.99-4.48c-0.28-1.57-1.16-2.96-2.47-3.87l-16.38-11.47
						C136.92,57.06,135.72,56.69,134.5,56.69L134.5,56.69z"/>
				</g>
			</g>
		</g>
		<g>
			<g>
				<path class="st2" d="M209.53,132.88c-0.59,0-1.19-0.18-1.72-0.54l-16.38-11.47c-0.65-0.46-1.1-1.15-1.23-1.94
					s0.04-1.59,0.5-2.24l6.88-9.83c0.58-0.83,1.51-1.28,2.46-1.28c0.59,0,1.19,0.18,1.72,0.54l16.38,11.47
					c0.65,0.46,1.1,1.15,1.23,1.94c0.14,0.78-0.04,1.59-0.5,2.24l-6.88,9.83C211.4,132.43,210.47,132.88,209.53,132.88z"/>
			</g>
			<g>
				<g>
					<path class="st3" d="M200.03,108.57l16.38,11.47l-6.88,9.83l-16.38-11.47L200.03,108.57 M200.04,102.57
						c-1.89,0-3.75,0.89-4.92,2.56l-6.88,9.83c-0.91,1.3-1.27,2.92-0.99,4.48c0.28,1.57,1.16,2.96,2.47,3.87l16.38,11.47
						c1.05,0.73,2.25,1.09,3.44,1.09c1.89,0,3.75-0.89,4.92-2.56l6.88-9.83c0.91-1.3,1.27-2.92,0.99-4.48
						c-0.28-1.57-1.16-2.96-2.47-3.87l-16.38-11.47C202.42,102.93,201.22,102.57,200.04,102.57L200.04,102.57z"/>
				</g>
			</g>
		</g>
		<g>
			<g>
				<path class="st2" d="M148.25,143.68c-0.59,0-1.19-0.18-1.72-0.54l-9.83-6.88c-0.65-0.46-1.1-1.15-1.23-1.94s0.04-1.59,0.5-2.24
					l11.47-16.38c0.58-0.83,1.51-1.28,2.46-1.28c0.59,0,1.19,0.18,1.72,0.54l9.83,6.88c1.36,0.95,1.69,2.82,0.74,4.18l-11.47,16.38
					C150.12,143.24,149.19,143.68,148.25,143.68z"/>
			</g>
			<g>
				<g>
					<path class="st3" d="M149.89,117.42l9.83,6.88l-11.47,16.38l-9.83-6.88L149.89,117.42 M149.9,111.41
						c-1.89,0-3.75,0.89-4.92,2.56l-11.47,16.38c-1.9,2.71-1.24,6.46,1.47,8.36l9.83,6.88c1.02,0.71,2.22,1.09,3.44,1.09
						c0.35,0,0.7-0.03,1.04-0.09c1.57-0.28,2.96-1.16,3.87-2.47l11.47-16.38c0.91-1.3,1.27-2.92,0.99-4.48
						c-0.28-1.57-1.16-2.96-2.47-3.87l-9.83-6.88C152.29,111.77,151.09,111.41,149.9,111.41L149.9,111.41z"/>
				</g>
			</g>
		</g>
		<g>
			<g>
				<path class="st2" d="M194.14,78.15c-0.61,0-1.21-0.19-1.72-0.54l-9.83-6.88c-1.36-0.95-1.69-2.82-0.74-4.18l11.47-16.38
					c0.58-0.83,1.51-1.28,2.46-1.28c0.59,0,1.19,0.18,1.72,0.54l9.83,6.88c1.36,0.95,1.69,2.82,0.74,4.18l-11.47,16.38
					c-0.46,0.65-1.15,1.1-1.94,1.23C194.48,78.13,194.31,78.15,194.14,78.15z"/>
			</g>
			<g>
				<g>
					<path class="st3" d="M195.78,51.88l9.83,6.88l-11.47,16.38l-9.83-6.88L195.78,51.88 M195.78,45.88c-1.89,0-3.75,0.89-4.92,2.56
						l-11.47,16.38c-1.9,2.71-1.24,6.46,1.47,8.36l9.83,6.88c1.02,0.71,2.22,1.09,3.44,1.09c0.35,0,0.7-0.03,1.04-0.09
						c1.57-0.28,2.96-1.16,3.87-2.47l11.47-16.38c1.9-2.71,1.24-6.46-1.47-8.36l-9.83-6.88C198.17,46.23,196.97,45.88,195.78,45.88
						L195.78,45.88z"/>
				</g>
			</g>
		</g>
		<g>
			<g>
				<g>
					<path class="st2" d="M171.97,139.29c-20.88,0-38.67-14.95-42.3-35.54c-1.99-11.31,0.54-22.72,7.12-32.13
						c6.59-9.41,16.45-15.69,27.76-17.68c2.48-0.44,5.01-0.66,7.51-0.66c20.88,0,38.67,14.95,42.3,35.54
						c4.12,23.35-11.53,45.7-34.88,49.81C177,139.07,174.47,139.29,171.97,139.29C171.97,139.29,171.97,139.29,171.97,139.29z
						 M172.05,71.28c-1.46,0-2.93,0.13-4.37,0.38c-13.58,2.39-22.67,15.39-20.28,28.96c2.11,11.97,12.45,20.66,24.59,20.66
						c1.46,0,2.93-0.13,4.37-0.38c13.58-2.39,22.67-15.39,20.28-28.96C194.52,79.97,184.18,71.28,172.05,71.28z"/>
				</g>
			</g>
			<g>
				<g>
					<path class="st3" d="M172.06,56.28c19.05,0,35.92,13.66,39.35,33.06c3.84,21.76-10.69,42.5-32.45,46.34
						c-2.35,0.41-4.69,0.61-6.99,0.61c-19.05,0-35.92-13.66-39.35-33.06c-3.84-21.76,10.69-42.5,32.45-46.34
						C167.42,56.48,169.75,56.28,172.06,56.28 M171.98,124.29c1.61,0,3.25-0.14,4.89-0.43c15.23-2.69,25.4-17.21,22.71-32.44
						c-2.4-13.58-14.21-23.14-27.54-23.14c-1.61,0-3.25,0.14-4.89,0.43c-15.23,2.69-25.4,17.21-22.71,32.44
						C146.83,114.73,158.65,124.29,171.98,124.29 M172.06,50.28c-2.68,0-5.38,0.24-8.03,0.71c-12.1,2.13-22.65,8.85-29.69,18.92
						c-7.05,10.06-9.75,22.27-7.62,34.37c3.88,22.03,22.92,38.02,45.25,38.02c2.68,0,5.38-0.24,8.03-0.71
						c24.98-4.4,41.72-28.31,37.31-53.29C213.43,66.26,194.4,50.28,172.06,50.28L172.06,50.28z M171.98,118.29
						c-10.68,0-19.78-7.65-21.63-18.18c-2.11-11.95,5.9-23.38,17.85-25.49c1.28-0.22,2.57-0.34,3.85-0.34
						c10.68,0,19.77,7.65,21.63,18.18c2.11,11.95-5.9,23.38-17.85,25.49C174.56,118.17,173.26,118.29,171.98,118.29L171.98,118.29z"
						/>
				</g>
			</g>
		</g>
		<g>
			<g>
				<g>
					<path class="st4" d="M171.98,127.29c-15.05,0-27.88-10.78-30.5-25.62c-2.97-16.83,8.31-32.94,25.15-35.91
						c1.79-0.32,3.61-0.48,5.42-0.48c15.05,0,27.88,10.78,30.5,25.62c2.97,16.83-8.31,32.94-25.15,35.91
						C175.61,127.13,173.79,127.29,171.98,127.29C171.98,127.29,171.98,127.29,171.98,127.29z M172.04,77.28
						c-1.11,0-2.23,0.1-3.33,0.29c-10.32,1.82-17.23,11.69-15.41,22.01c1.6,9.1,9.46,15.7,18.69,15.7c1.11,0,2.23-0.1,3.33-0.29
						c5-0.88,9.35-3.66,12.26-7.81c2.91-4.16,4.03-9.2,3.15-14.2C189.12,83.88,181.26,77.28,172.04,77.28z"/>
				</g>
			</g>
			<g>
				<g>
					<path class="st3" d="M172.05,68.28c13.33,0,25.15,9.56,27.54,23.14c2.69,15.23-7.48,29.75-22.71,32.44
						c-1.65,0.29-3.28,0.43-4.89,0.43c-13.33,0-25.15-9.56-27.54-23.14c-2.69-15.23,7.48-29.75,22.71-32.44
						C168.8,68.42,170.43,68.28,172.05,68.28 M171.99,118.29c1.27,0,2.55-0.11,3.85-0.34c11.97-2.11,19.96-13.52,17.85-25.49
						c-1.88-10.67-11.16-18.18-21.64-18.18c-1.27,0-2.55,0.11-3.85,0.34c-11.97,2.11-19.96,13.52-17.85,25.49
						C152.23,110.78,161.51,118.29,171.99,118.29 M172.05,62.28c-1.98,0-3.98,0.18-5.94,0.52c-8.94,1.58-16.74,6.54-21.95,13.98
						c-5.21,7.44-7.21,16.46-5.63,25.41c2.87,16.28,16.94,28.1,33.45,28.1c1.98,0,3.98-0.18,5.94-0.52
						c8.94-1.58,16.74-6.54,21.95-13.98c5.21-7.44,7.21-16.46,5.63-25.41C202.63,74.1,188.56,62.28,172.05,62.28L172.05,62.28z
						 M171.99,112.29c-7.76,0-14.38-5.56-15.73-13.23c-0.74-4.21,0.2-8.45,2.65-11.96c2.45-3.5,6.12-5.84,10.33-6.58
						c0.93-0.16,1.87-0.25,2.8-0.25c7.76,0,14.38,5.56,15.73,13.23c1.53,8.69-4.29,17-12.98,18.54
						C173.86,112.2,172.92,112.29,171.99,112.29L171.99,112.29z"/>
				</g>
			</g>
		</g>
	</g>
	<g>
		<g>
			<g>
				<path class="st5" d="M63.16,115.43c-0.61,0-1.21-0.19-1.72-0.54c-0.65-0.46-1.1-1.15-1.23-1.94l-3.47-19.7
					c-0.14-0.78,0.04-1.59,0.5-2.24s1.15-1.1,1.94-1.23l11.82-2.08c0.18-0.03,0.35-0.05,0.52-0.05c1.43,0,2.69,1.02,2.95,2.48
					l3.47,19.7c0.29,1.63-0.8,3.19-2.43,3.48l-11.82,2.08C63.51,115.41,63.34,115.43,63.16,115.43z"/>
			</g>
			<g>
				<g>
					<path class="st3" d="M71.51,90.65l3.47,19.7l-11.82,2.08l-3.47-19.7L71.51,90.65 M71.51,84.65c-0.35,0-0.7,0.03-1.04,0.09
						l-11.82,2.08c-3.26,0.58-5.44,3.69-4.87,6.95l3.47,19.7c0.28,1.57,1.16,2.96,2.47,3.87c1.02,0.71,2.22,1.09,3.44,1.09
						c0.35,0,0.7-0.03,1.04-0.09l11.82-2.08c3.26-0.58,5.44-3.69,4.87-6.95l-3.47-19.7c-0.28-1.57-1.16-2.96-2.47-3.87
						C73.93,85.02,72.73,84.65,71.51,84.65L71.51,84.65z"/>
				</g>
			</g>
		</g>
		<g>
			<g>
				<path class="st5" d="M77.06,194.21c-0.61,0-1.21-0.19-1.72-0.54c-0.65-0.46-1.1-1.15-1.23-1.94l-3.47-19.7
					c-0.14-0.78,0.04-1.59,0.5-2.24c0.46-0.65,1.15-1.1,1.94-1.23l11.82-2.08c0.18-0.03,0.35-0.05,0.52-0.05
					c1.43,0,2.69,1.02,2.95,2.48l3.47,19.7c0.29,1.63-0.8,3.19-2.43,3.48l-11.82,2.08C77.4,194.2,77.23,194.21,77.06,194.21z"/>
			</g>
			<g>
				<g>
					<path class="st3" d="M85.4,169.43l3.47,19.7l-11.82,2.08l-3.47-19.7L85.4,169.43 M85.4,163.43c-0.35,0-0.7,0.03-1.04,0.09
						l-11.82,2.08c-3.26,0.58-5.44,3.69-4.87,6.95l3.47,19.7c0.28,1.57,1.16,2.96,2.47,3.87c1.02,0.71,2.22,1.09,3.44,1.09
						c0.35,0,0.7-0.03,1.04-0.09l11.82-2.08c3.26-0.58,5.44-3.69,4.87-6.95l-3.47-19.7c-0.28-1.57-1.16-2.96-2.47-3.87
						C87.83,163.81,86.62,163.43,85.4,163.43L85.4,163.43z"/>
				</g>
			</g>
		</g>
		<g>
			<g>
				<path class="st5" d="M26.08,158.52c-1.43,0-2.69-1.02-2.95-2.48l-2.08-11.82c-0.14-0.78,0.04-1.59,0.5-2.24s1.15-1.1,1.94-1.23
					l19.7-3.47c0.17-0.03,0.35-0.05,0.52-0.05c0.61,0,1.21,0.19,1.72,0.54c0.65,0.46,1.1,1.15,1.23,1.94l2.08,11.82
					c0.29,1.63-0.8,3.19-2.43,3.48l-19.7,3.47C26.43,158.51,26.25,158.52,26.08,158.52z"/>
			</g>
			<g>
				<g>
					<path class="st3" d="M43.7,140.23l2.08,11.82l-19.7,3.47L24,143.71L43.7,140.23 M43.7,134.23c-0.35,0-0.7,0.03-1.05,0.09
						l-19.7,3.47c-1.57,0.28-2.96,1.16-3.87,2.47c-0.91,1.3-1.27,2.92-0.99,4.48l2.08,11.82c0.51,2.91,3.05,4.96,5.9,4.96
						c0.35,0,0.7-0.03,1.05-0.09l19.7-3.47c1.57-0.28,2.96-1.16,3.87-2.47c0.91-1.3,1.27-2.92,0.99-4.48l-2.08-11.82
						C49.09,136.28,46.56,134.23,43.7,134.23L43.7,134.23z"/>
				</g>
			</g>
		</g>
		<g>
			<g>
				<path class="st5" d="M104.87,144.63c-0.61,0-1.21-0.19-1.72-0.54c-0.65-0.46-1.1-1.15-1.23-1.94l-2.08-11.82
					c-0.29-1.63,0.8-3.19,2.43-3.48l19.7-3.47c0.17-0.03,0.35-0.05,0.52-0.05c0.61,0,1.21,0.19,1.72,0.54
					c0.65,0.46,1.1,1.15,1.23,1.94l2.08,11.82c0.29,1.63-0.8,3.19-2.43,3.48l-19.7,3.47C105.22,144.62,105.04,144.63,104.87,144.63z
					"/>
			</g>
			<g>
				<g>
					<path class="st3" d="M122.48,126.34l2.08,11.82l-19.7,3.47l-2.08-11.82L122.48,126.34 M122.49,120.34
						c-0.35,0-0.7,0.03-1.05,0.09l-19.7,3.47c-3.26,0.58-5.44,3.69-4.87,6.95l2.08,11.82c0.28,1.57,1.16,2.96,2.47,3.87
						c1.02,0.71,2.22,1.09,3.44,1.09c0.35,0,0.7-0.03,1.04-0.09l19.7-3.47c3.26-0.58,5.44-3.69,4.87-6.95l-2.08-11.82
						C127.88,122.39,125.34,120.34,122.49,120.34L122.49,120.34z"/>
				</g>
			</g>
		</g>
		<g>
			<g>
				<path class="st5" d="M46.26,131.64c-0.59,0-1.19-0.18-1.72-0.54l-16.38-11.47c-1.36-0.95-1.69-2.82-0.74-4.18l6.88-9.83
					c0.58-0.83,1.51-1.28,2.46-1.28c0.59,0,1.19,0.18,1.72,0.54l16.38,11.47c0.65,0.46,1.1,1.15,1.23,1.94s-0.04,1.59-0.5,2.24
					l-6.88,9.83C48.14,131.19,47.21,131.64,46.26,131.64z"/>
			</g>
			<g>
				<g>
					<path class="st3" d="M36.77,107.34l16.38,11.47l-6.88,9.83l-16.38-11.47L36.77,107.34 M36.77,101.34
						c-1.89,0-3.75,0.89-4.92,2.56l-6.88,9.83c-0.91,1.3-1.27,2.92-0.99,4.48c0.28,1.57,1.16,2.96,2.47,3.87l16.38,11.47
						c1.05,0.73,2.25,1.09,3.44,1.09c1.89,0,3.75-0.89,4.92-2.56l6.88-9.83c1.9-2.71,1.24-6.46-1.47-8.36l-16.38-11.47
						C39.16,101.69,37.96,101.34,36.77,101.34L36.77,101.34z"/>
				</g>
			</g>
		</g>
		<g>
			<g>
				<path class="st5" d="M111.8,177.53c-0.61,0-1.21-0.19-1.72-0.54l-16.38-11.47c-1.36-0.95-1.69-2.82-0.74-4.18l6.88-9.83
					c0.58-0.83,1.51-1.28,2.46-1.28c0.59,0,1.19,0.18,1.72,0.54l16.38,11.47c1.36,0.95,1.69,2.82,0.74,4.18l-6.88,9.83
					c-0.46,0.65-1.15,1.1-1.94,1.23C112.15,177.51,111.97,177.53,111.8,177.53z"/>
			</g>
			<g>
				<g>
					<path class="st3" d="M102.3,153.22l16.38,11.47l-6.88,9.83l-16.38-11.47L102.3,153.22 M102.3,147.22
						c-0.35,0-0.7,0.03-1.04,0.09c-1.57,0.28-2.96,1.16-3.87,2.47l-6.88,9.83c-1.9,2.71-1.24,6.46,1.47,8.36l16.38,11.47
						c1.02,0.71,2.22,1.09,3.44,1.09c0.35,0,0.7-0.03,1.04-0.09c1.57-0.28,2.96-1.16,3.87-2.47l6.88-9.83
						c1.9-2.71,1.24-6.46-1.47-8.36l-16.38-11.47C104.72,147.6,103.52,147.22,102.3,147.22L102.3,147.22z"/>
				</g>
			</g>
		</g>
		<g>
			<g>
				<path class="st5" d="M50.52,188.33c-0.59,0-1.19-0.18-1.72-0.54l-9.83-6.88c-0.65-0.46-1.1-1.15-1.23-1.94s0.04-1.59,0.5-2.24
					l11.47-16.38c0.46-0.65,1.15-1.1,1.94-1.23c0.17-0.03,0.35-0.05,0.52-0.05c0.61,0,1.21,0.19,1.72,0.54l9.83,6.88
					c1.36,0.95,1.69,2.82,0.74,4.18l-11.47,16.38C52.39,187.88,51.46,188.33,50.52,188.33z"/>
			</g>
			<g>
				<g>
					<path class="st3" d="M52.16,162.06l9.83,6.88l-11.47,16.38l-9.83-6.88L52.16,162.06 M52.17,156.06c-1.89,0-3.75,0.89-4.92,2.56
						l-11.47,16.38c-0.91,1.3-1.27,2.92-0.99,4.48c0.28,1.57,1.16,2.96,2.47,3.87l9.83,6.88c1.05,0.73,2.25,1.09,3.44,1.09
						c1.89,0,3.75-0.89,4.92-2.56l11.47-16.38c0.91-1.3,1.27-2.92,0.99-4.48c-0.28-1.57-1.16-2.96-2.47-3.87l-9.83-6.88
						C54.55,156.42,53.35,156.06,52.17,156.06L52.17,156.06z"/>
				</g>
			</g>
		</g>
		<g>
			<g>
				<path class="st5" d="M96.4,122.8c-0.59,0-1.19-0.18-1.72-0.54l-9.83-6.88c-1.36-0.95-1.69-2.82-0.74-4.18l11.47-16.38
					c0.46-0.65,1.15-1.1,1.94-1.23c0.17-0.03,0.35-0.05,0.52-0.05c0.61,0,1.21,0.19,1.72,0.54l9.83,6.88
					c1.36,0.95,1.69,2.82,0.74,4.18l-11.47,16.38C98.28,122.35,97.35,122.8,96.4,122.8z"/>
			</g>
			<g>
				<g>
					<path class="st3" d="M98.05,96.53l9.83,6.88L96.4,119.8l-9.83-6.88L98.05,96.53 M98.05,90.53c-0.35,0-0.7,0.03-1.04,0.09
						c-1.57,0.28-2.96,1.16-3.87,2.47l-11.47,16.38c-1.9,2.71-1.24,6.46,1.47,8.36l9.83,6.88c1.02,0.71,2.22,1.09,3.44,1.09
						c0.35,0,0.7-0.03,1.04-0.09c1.57-0.28,2.96-1.16,3.87-2.47l11.47-16.38c1.9-2.71,1.24-6.46-1.47-8.36l-9.83-6.88
						C100.47,90.91,99.27,90.53,98.05,90.53L98.05,90.53z"/>
				</g>
			</g>
		</g>
		<g>
			<g>
				<g>
					<path class="st5" d="M74.23,183.94c-20.88,0-38.67-14.95-42.3-35.54c-4.12-23.35,11.53-45.7,34.88-49.81
						c2.48-0.44,5.01-0.66,7.51-0.66c20.88,0,38.67,14.95,42.3,35.54c4.12,23.35-11.53,45.7-34.88,49.81
						C79.27,183.72,76.74,183.94,74.23,183.94C74.24,183.94,74.24,183.94,74.23,183.94z M74.32,115.93c-1.46,0-2.93,0.13-4.37,0.38
						c-13.58,2.39-22.67,15.39-20.28,28.96c2.11,11.97,12.45,20.66,24.59,20.66c1.46,0,2.93-0.13,4.37-0.38
						c13.58-2.39,22.67-15.39,20.28-28.96C96.79,124.62,86.45,115.93,74.32,115.93z"/>
				</g>
			</g>
			<g>
				<g>
					<path class="st3" d="M74.33,100.92c19.05,0,35.92,13.66,39.35,33.06c3.84,21.76-10.69,42.5-32.45,46.34
						c-2.35,0.41-4.69,0.61-6.99,0.61c-19.05,0-35.92-13.66-39.35-33.06c-3.84-21.76,10.69-42.5,32.45-46.34
						C69.69,101.12,72.02,100.92,74.33,100.92 M74.25,168.94c1.61,0,3.25-0.14,4.89-0.43c15.23-2.69,25.4-17.21,22.71-32.44
						c-2.4-13.58-14.21-23.14-27.54-23.14c-1.61,0-3.25,0.14-4.89,0.43c-15.23,2.69-25.4,17.21-22.71,32.44
						C49.1,159.38,60.92,168.94,74.25,168.94 M74.33,94.92c-2.68,0-5.38,0.24-8.03,0.71c-12.1,2.13-22.65,8.85-29.69,18.92
						c-7.05,10.06-9.75,22.27-7.62,34.37c3.88,22.03,22.92,38.02,45.25,38.02c2.68,0,5.38-0.24,8.03-0.71
						c12.1-2.13,22.65-8.85,29.69-18.92c7.05-10.06,9.75-22.27,7.62-34.37C115.7,110.91,96.67,94.92,74.33,94.92L74.33,94.92z
						 M74.25,162.94c-10.68,0-19.78-7.65-21.63-18.18c-2.11-11.95,5.9-23.38,17.85-25.49c1.28-0.22,2.57-0.34,3.85-0.34
						c10.68,0,19.77,7.65,21.63,18.18c2.11,11.95-5.9,23.38-17.85,25.49C76.83,162.82,75.53,162.94,74.25,162.94L74.25,162.94z"/>
				</g>
			</g>
		</g>
		<g>
			<g>
				<g>
					<path class="st6" d="M74.25,171.94c-15.05,0-27.88-10.78-30.5-25.62c-2.97-16.83,8.31-32.94,25.15-35.91
						c1.79-0.32,3.61-0.48,5.42-0.48c15.05,0,27.88,10.78,30.5,25.62c2.97,16.83-8.31,32.94-25.15,35.91
						C77.88,171.78,76.05,171.94,74.25,171.94C74.25,171.94,74.25,171.94,74.25,171.94z M74.31,121.93c-1.11,0-2.23,0.1-3.33,0.29
						c-10.32,1.82-17.23,11.69-15.41,22.01c1.6,9.1,9.46,15.7,18.69,15.7c1.11,0,2.23-0.1,3.33-0.29c5-0.88,9.35-3.66,12.26-7.81
						c2.91-4.16,4.03-9.2,3.15-14.2C91.39,128.53,83.53,121.93,74.31,121.93z"/>
				</g>
			</g>
			<g>
				<g>
					<path class="st3" d="M74.32,112.93c13.33,0,25.15,9.56,27.54,23.14c2.69,15.23-7.48,29.75-22.71,32.44
						c-1.65,0.29-3.28,0.43-4.89,0.43c-13.33,0-25.15-9.56-27.54-23.14c-2.69-15.23,7.48-29.75,22.71-32.44
						C71.07,113.07,72.7,112.93,74.32,112.93 M74.26,162.94c1.27,0,2.55-0.11,3.85-0.34c11.97-2.11,19.96-13.52,17.85-25.49
						c-1.88-10.67-11.16-18.18-21.64-18.18c-1.27,0-2.55,0.11-3.85,0.34c-11.97,2.11-19.96,13.52-17.85,25.49
						C54.5,155.43,63.78,162.94,74.26,162.94 M74.32,106.93c-1.98,0-3.98,0.18-5.94,0.52c-8.94,1.58-16.74,6.54-21.95,13.98
						c-5.21,7.44-7.21,16.46-5.63,25.41c2.87,16.28,16.94,28.1,33.45,28.1c1.98,0,3.98-0.18,5.94-0.52
						c18.46-3.26,30.83-20.92,27.58-39.39C104.89,118.74,90.83,106.93,74.32,106.93L74.32,106.93z M74.26,156.94
						c-7.76,0-14.38-5.56-15.73-13.23c-1.53-8.69,4.29-17,12.98-18.54c0.93-0.16,1.87-0.25,2.8-0.25c7.76,0,14.38,5.56,15.73,13.23
						c0.74,4.21-0.2,8.45-2.65,11.96c-2.45,3.5-6.12,5.84-10.33,6.58C76.13,156.85,75.19,156.94,74.26,156.94L74.26,156.94z"/>
				</g>
			</g>
		</g>
	</g>
</g>
<g>
	<g>
		<g>
			<path class="st1" d="M182,348.46c-3.86,0-7-3.14-7-7v-142c0-3.86,3.14-7,7-7h142c3.86,0,7,3.14,7,7v122
				c0,0.8-0.32,1.56-0.88,2.12l-24,24c-0.56,0.56-1.33,0.88-2.12,0.88H182z"/>
		</g>
		<g>
			<path class="st3" d="M324,195.46c2.21,0,4,1.79,4,4v122l-24,24H182c-2.21,0-4-1.79-4-4v-142c0-2.21,1.79-4,4-4H324 M324,189.46
				H182c-5.51,0-10,4.49-10,10v142c0,5.51,4.49,10,10,10h122c1.59,0,3.12-0.63,4.24-1.76l24-24c1.13-1.13,1.76-2.65,1.76-4.24v-122
				C334,193.94,329.51,189.46,324,189.46L324,189.46z"/>
		</g>
	</g>
	<g>
		<g>
			<path class="st7" d="M304,348.46c-0.39,0-0.78-0.07-1.15-0.23c-1.12-0.46-1.85-1.56-1.85-2.77v-19.2c0-4.3,3.5-7.8,7.8-7.8H328
				c1.21,0,2.31,0.73,2.77,1.85c0.46,1.12,0.21,2.41-0.65,3.27l-24,24C305.55,348.15,304.78,348.46,304,348.46z"/>
		</g>
		<g>
			<path class="st3" d="M328,321.46l-24,24v-19.2c0-2.65,2.15-4.8,4.8-4.8H328 M328,315.46h-19.2c-5.96,0-10.8,4.84-10.8,10.8v19.2
				c0,2.43,1.46,4.61,3.7,5.54c0.74,0.31,1.52,0.46,2.29,0.46c1.56,0,3.1-0.61,4.24-1.76l24-24c1.72-1.72,2.23-4.3,1.3-6.54
				C332.61,316.92,330.43,315.46,328,315.46L328,315.46z M328,327.46L328,327.46L328,327.46L328,327.46z"/>
		</g>
	</g>
	<g>
		<path class="st8" d="M271,282.46h-74c-1.66,0-3-1.34-3-3l0,0c0-1.66,1.34-3,3-3h74c1.66,0,3,1.34,3,3l0,0
			C274,281.11,272.66,282.46,271,282.46z"/>
	</g>
	<g>
		<path class="st3" d="M281,306.46h-84c-1.66,0-3-1.34-3-3l0,0c0-1.66,1.34-3,3-3h84c1.66,0,3,1.34,3,3l0,0
			C284,305.11,282.66,306.46,281,306.46z"/>
	</g>
	<g>
		<path class="st3" d="M271,318.46h-74c-1.66,0-3-1.34-3-3l0,0c0-1.66,1.34-3,3-3h74c1.66,0,3,1.34,3,3l0,0
			C274,317.11,272.66,318.46,271,318.46z"/>
	</g>
	<g>
		<path class="st3" d="M241,330.46h-44c-1.66,0-3-1.34-3-3l0,0c0-1.66,1.34-3,3-3h44c1.66,0,3,1.34,3,3l0,0
			C244,329.11,242.66,330.46,241,330.46z"/>
	</g>
	<g>
		<path class="st9" d="M251,294.46h-54c-1.66,0-3-1.34-3-3l0,0c0-1.66,1.34-3,3-3h54c1.66,0,3,1.34,3,3l0,0
			C254,293.11,252.66,294.46,251,294.46z"/>
	</g>
	<g>
		<g>
			<g>
				<circle class="st10" cx="212" cy="233.96" r="2.5"/>
			</g>
			<g>
				<circle class="st10" cx="217.5" cy="244.96" r="2.5"/>
			</g>
			<g>
				<circle class="st10" cx="206.5" cy="244.96" r="2.5"/>
			</g>
		</g>
		<g>
			<g>
				<circle class="st10" cx="294" cy="233.96" r="2.5"/>
			</g>
			<g>
				<circle class="st10" cx="299.5" cy="244.96" r="2.5"/>
			</g>
			<g>
				<circle class="st10" cx="288.5" cy="244.96" r="2.5"/>
			</g>
		</g>
		<g>
			<g>
				<path class="st3" d="M271.01,240.46H235c-2.76,0-5,2.24-5,5c0,12.68,10.32,23,23,23c12.62,0,22.9-10.22,23-22.82
					c0-0.06,0-0.12,0-0.18C276,242.69,273.77,240.46,271.01,240.46z"/>
				<g>
					<g>
						<ellipse class="st11" cx="253" cy="257.46" rx="13.39" ry="6"/>
					</g>
				</g>
			</g>
			<g>
				<g>
					<path class="st3" d="M238.96,216.51c-0.46,0-1.08-0.11-1.62-0.15c-0.55-0.07-1.09-0.09-1.61-0.13
						c-1.05-0.05-2.02-0.02-2.93,0.11c-0.91,0.12-1.74,0.34-2.59,0.68c-0.88,0.29-1.69,0.84-2.74,1.36l-0.38,0.19
						c-1.01,0.5-2.23,0.09-2.73-0.92c-0.28-0.57-0.27-1.22-0.03-1.76c0.64-1.4,1.63-2.76,3.04-3.7c0.33-0.26,0.69-0.49,1.07-0.66
						c0.38-0.18,0.75-0.4,1.15-0.54c0.4-0.13,0.8-0.26,1.21-0.37c0.41-0.11,0.82-0.15,1.23-0.22c1.65-0.19,3.27-0.03,4.75,0.42
						c0.74,0.21,1.45,0.51,2.12,0.86c0.69,0.37,1.26,0.73,1.95,1.32c0.84,0.72,0.94,1.98,0.22,2.81c-0.39,0.46-0.94,0.7-1.5,0.7
						L238.96,216.51z"/>
				</g>
				<g>
					<path class="st3" d="M243.02,233.96c-1.38,0-2.5-1.12-2.5-2.5c0-2.48-2.02-4.5-4.5-4.5s-4.5,2.02-4.5,4.5
						c0,1.38-1.12,2.5-2.5,2.5s-2.5-1.12-2.5-2.5c0-5.24,4.26-9.5,9.5-9.5s9.5,4.26,9.5,9.5
						C245.52,232.84,244.4,233.96,243.02,233.96z"/>
				</g>
			</g>
			<g>
				<g>
					<path class="st3" d="M265.14,212.99c0.68-0.58,1.26-0.95,1.95-1.32c0.67-0.35,1.38-0.64,2.12-0.86
						c1.48-0.44,3.1-0.61,4.75-0.42c0.41,0.06,0.82,0.11,1.23,0.22c0.41,0.11,0.81,0.24,1.21,0.37c0.4,0.15,0.77,0.36,1.15,0.54
						c0.38,0.18,0.74,0.4,1.07,0.66c1.41,0.94,2.39,2.3,3.04,3.7c0.47,1.02,0.02,2.23-1,2.7c-0.58,0.27-1.22,0.24-1.75-0.02
						l-0.39-0.19c-1.05-0.52-1.87-1.06-2.74-1.36c-0.85-0.34-1.67-0.56-2.59-0.68c-0.91-0.13-1.88-0.16-2.93-0.11
						c-0.52,0.04-1.06,0.06-1.61,0.13c-0.53,0.03-1.16,0.15-1.62,0.15l-0.62,0c-1.1,0-1.99-0.9-1.99-2
						C264.44,213.9,264.72,213.35,265.14,212.99z"/>
				</g>
				<g>
					<path class="st3" d="M276.98,233.96c-1.38,0-2.5-1.12-2.5-2.5c0-2.48-2.02-4.5-4.5-4.5s-4.5,2.02-4.5,4.5
						c0,1.38-1.12,2.5-2.5,2.5s-2.5-1.12-2.5-2.5c0-5.24,4.26-9.5,9.5-9.5s9.5,4.26,9.5,9.5
						C279.48,232.84,278.36,233.96,276.98,233.96z"/>
				</g>
			</g>
		</g>
	</g>
</g>
<g>
	<g>
		<g>
			<g>
				<path class="st12" d="M63.86,254.6c-0.59,0-1.17-0.21-1.63-0.6c-0.63-0.54-0.95-1.35-0.86-2.17l2.1-19.2
					c0.11-1.02,0.84-1.88,1.84-2.14c0.21-0.06,0.43-0.08,0.65-0.08c0.78,0,1.54,0.37,2.02,1.02L79.4,247
					c0.49,0.67,0.62,1.53,0.34,2.31c-0.27,0.78-0.91,1.37-1.71,1.59l-13.52,3.62C64.29,254.57,64.07,254.6,63.86,254.6z"/>
			</g>
			<g>
				<path class="st3" d="M65.96,232.9l11.42,15.57l-13.52,3.62L65.96,232.9 M65.96,227.9c-0.43,0-0.87,0.06-1.29,0.17
					c-1.99,0.53-3.45,2.24-3.68,4.29l-2.1,19.2c-0.18,1.64,0.46,3.26,1.71,4.34c0.92,0.79,2.08,1.21,3.26,1.21
					c0.43,0,0.87-0.06,1.29-0.17l13.52-3.62c1.59-0.43,2.88-1.61,3.42-3.17s0.29-3.28-0.68-4.62l-11.42-15.57
					C69.03,228.64,67.53,227.9,65.96,227.9L65.96,227.9z"/>
			</g>
		</g>
		<g>
			<polygon class="st3" points="65.96,232.9 70.41,237.92 64.61,239.47 			"/>
		</g>
		<g>
			<g>
				<path class="st13" d="M85.85,336.7c-1.1,0-2.11-0.74-2.41-1.85l-22-82.1c-0.17-0.64-0.08-1.32,0.25-1.9s0.88-0.99,1.52-1.17
					l13.52-3.62c0.22-0.06,0.43-0.09,0.65-0.09c1.1,0,2.11,0.74,2.41,1.85l22,82.1c0.17,0.64,0.08,1.32-0.25,1.9
					s-0.88,0.99-1.52,1.17l-13.52,3.62C86.29,336.67,86.07,336.7,85.85,336.7z"/>
			</g>
			<g>
				<path class="st3" d="M77.38,248.47l22,82.1l-13.52,3.62l-22-82.1L77.38,248.47 M77.38,243.47c-0.43,0-0.86,0.06-1.3,0.17
					l-13.52,3.62c-1.28,0.34-2.37,1.18-3.04,2.33c-0.66,1.15-0.84,2.51-0.5,3.79l22,82.1c0.6,2.23,2.62,3.71,4.83,3.71
					c0.43,0,0.86-0.06,1.3-0.17l13.52-3.62c1.28-0.34,2.37-1.18,3.04-2.33c0.66-1.15,0.84-2.51,0.5-3.79l-22-82.1
					C81.61,244.95,79.59,243.47,77.38,243.47L77.38,243.47z"/>
			</g>
		</g>
		<g>
			
				<rect x="74.74" y="249.74" transform="matrix(-0.9659 0.2588 -0.2588 -0.9659 229.4463 554.2783)" class="st14" width="7" height="85"/>
		</g>
		<g>
			<g>
				
					<rect x="85.45" y="334.58" transform="matrix(0.9659 -0.2588 0.2588 0.9659 -85.0518 36.2012)" class="st5" width="19" height="13"/>
			</g>
			<g>
				<path class="st3" d="M100.67,335.41l2.07,7.73l-13.52,3.62l-2.07-7.73L100.67,335.41 M104.21,329.28l-4.83,1.29l-13.52,3.62
					l-4.83,1.29l1.29,4.83l2.07,7.73l1.29,4.83l4.83-1.29l13.52-3.62l4.83-1.29l-1.29-4.83l-2.07-7.73L104.21,329.28L104.21,329.28z
					"/>
			</g>
		</g>
		<g>
			<g>
				<path class="st11" d="M95.22,362.57c-2.26,0-4.24-1.52-4.83-3.71l-2.33-8.69l17.39-4.66l2.33,8.69
					c0.71,2.66-0.87,5.41-3.53,6.12l-7.73,2.07C96.1,362.51,95.66,362.57,95.22,362.57z"/>
			</g>
			<g>
				<path class="st3" d="M103.33,349.19l1.55,5.8c0.29,1.07-0.35,2.16-1.41,2.45l-7.73,2.07c-0.17,0.05-0.35,0.07-0.52,0.07
					c-0.88,0-1.69-0.59-1.93-1.48l-1.55-5.8L103.33,349.19 M107.57,341.84l-5.8,1.55l-11.59,3.11l-5.8,1.55l1.55,5.8l1.55,5.8
					c0.94,3.49,4.11,5.93,7.73,5.93c0.7,0,1.4-0.09,2.07-0.27l7.73-2.07c2.06-0.55,3.79-1.88,4.86-3.73
					c1.07-1.85,1.35-4.01,0.8-6.07l-1.55-5.8L107.57,341.84L107.57,341.84z"/>
			</g>
		</g>
		<g>
			<path class="st3" d="M92.62,334.39c-0.88,0-1.69-0.59-1.93-1.48l-22-82.1c-0.29-1.07,0.35-2.16,1.41-2.45
				c1.07-0.29,2.16,0.35,2.45,1.41l22,82.1c0.29,1.07-0.35,2.16-1.41,2.45C92.96,334.37,92.79,334.39,92.62,334.39z"/>
		</g>
	</g>
	<g>
		<g>
			<path class="st1" d="M61,351.3c-14.89,0-27-12.11-27-27s12.11-27,27-27s27,12.11,27,27S75.89,351.3,61,351.3z M61,311.3
				c-7.17,0-13,5.83-13,13s5.83,13,13,13s13-5.83,13-13S68.17,311.3,61,311.3z"/>
		</g>
		<g>
			<path class="st3" d="M61,300.3c13.25,0,24,10.75,24,24s-10.75,24-24,24s-24-10.75-24-24S47.75,300.3,61,300.3 M61,340.3
				c8.84,0,16-7.16,16-16c0-8.84-7.16-16-16-16s-16,7.16-16,16C45,333.14,52.16,340.3,61,340.3 M61,294.3c-16.54,0-30,13.46-30,30
				s13.46,30,30,30s30-13.46,30-30S77.54,294.3,61,294.3L61,294.3z M61,334.3c-5.51,0-10-4.49-10-10s4.49-10,10-10s10,4.49,10,10
				S66.51,334.3,61,334.3L61,334.3z"/>
		</g>
	</g>
	<g>
		<g>
			<path class="st7" d="M68,347.26v-8.59c-2.12,1.03-4.49,1.63-7,1.63c-1.75,0-3.43-0.29-5-0.81v8.28c1.61,0.34,3.28,0.53,5,0.53
				C63.44,348.3,65.79,347.93,68,347.26z"/>
		</g>
		<g>
			<path class="st7" d="M61,308.3c2.51,0,4.88,0.6,7,1.63v-8.59c-2.21-0.67-4.56-1.04-7-1.04c-1.72,0-3.39,0.18-5,0.53v8.28
				C57.57,308.59,59.25,308.3,61,308.3z"/>
		</g>
	</g>
	<g>
		<g>
			<g>
				<path class="st15" d="M122.87,331.1c-0.22,0-0.43-0.03-0.65-0.08l-23.18-6.21c-1.33-0.36-2.12-1.73-1.77-3.06l27.44-102.39
					c0.17-0.64,0.59-1.19,1.17-1.52c0.38-0.22,0.81-0.33,1.25-0.33c0.22,0,0.43,0.03,0.65,0.08l23.18,6.21
					c1.33,0.36,2.12,1.73,1.77,3.06l-27.44,102.39c-0.17,0.64-0.59,1.19-1.17,1.52C123.74,330.99,123.31,331.1,122.87,331.1z"/>
			</g>
			<g>
				<path class="st3" d="M127.13,220l23.18,6.21L122.87,328.6l-23.18-6.21L127.13,220 M127.12,215c-2.21,0-4.23,1.47-4.83,3.71
					L94.86,321.09c-0.34,1.28-0.16,2.65,0.5,3.79c0.66,1.15,1.76,1.99,3.04,2.33l23.18,6.21c0.43,0.12,0.87,0.17,1.3,0.17
					c2.21,0,4.23-1.47,4.83-3.71l27.43-102.39c0.34-1.28,0.16-2.65-0.5-3.79c-0.66-1.15-1.76-1.99-3.04-2.33l-23.18-6.21
					C127.99,215.05,127.55,215,127.12,215L127.12,215z"/>
			</g>
		</g>
		<g>
			<circle class="st3" cx="136.39" cy="231.8" r="3"/>
		</g>
		<g>
			<path class="st3" d="M143.86,234.84l3.86,1.04l1.04-3.86l-3.86-1.04c-1.07-0.29-2.16,0.35-2.45,1.41l0,0
				C142.16,233.45,142.79,234.55,143.86,234.84z"/>
		</g>
		<g>
			<path class="st3" d="M138.37,243.72l6.76,1.81l1.04-3.86l-6.76-1.81c-1.07-0.29-2.16,0.35-2.45,1.41h0
				C136.67,242.34,137.3,243.43,138.37,243.72z"/>
		</g>
		<g>
			<path class="st3" d="M138.68,254.15l3.86,1.04l1.04-3.86l-3.86-1.04c-1.07-0.29-2.16,0.35-2.45,1.41l0,0
				C136.98,252.77,137.61,253.87,138.68,254.15z"/>
		</g>
		<g>
			<path class="st3" d="M133.19,263.04l6.76,1.81l1.04-3.86l-6.76-1.81c-1.07-0.29-2.16,0.35-2.45,1.41l0,0
				C131.49,261.65,132.13,262.75,133.19,263.04z"/>
		</g>
		<g>
			<path class="st3" d="M133.5,273.47l3.86,1.04l1.04-3.86l-3.86-1.04c-1.07-0.29-2.16,0.35-2.45,1.41l0,0
				C131.8,272.09,132.44,273.19,133.5,273.47z"/>
		</g>
		<g>
			<path class="st3" d="M128.02,282.36l6.76,1.81l1.04-3.86l-6.76-1.81c-1.07-0.29-2.16,0.35-2.45,1.41l0,0
				C126.32,280.97,126.95,282.07,128.02,282.36z"/>
		</g>
		<g>
			<path class="st3" d="M128.33,292.79l3.86,1.04l1.04-3.86l-3.86-1.04c-1.07-0.29-2.16,0.35-2.45,1.41l0,0
				C126.63,291.41,127.26,292.51,128.33,292.79z"/>
		</g>
		<g>
			<path class="st3" d="M122.84,301.67l6.76,1.81l1.04-3.86l-6.76-1.81c-1.07-0.29-2.16,0.35-2.45,1.41v0
				C121.14,300.29,121.77,301.39,122.84,301.67z"/>
		</g>
		<g>
			<path class="st3" d="M123.15,312.11l3.86,1.04l1.04-3.86l-3.86-1.04c-1.07-0.29-2.16,0.35-2.45,1.41l0,0
				C121.45,310.73,122.08,311.82,123.15,312.11z"/>
		</g>
		<g>
			<path class="st3" d="M117.67,320.99l6.76,1.81l1.04-3.86l-6.76-1.81c-1.07-0.29-2.16,0.35-2.45,1.41l0,0
				C115.97,319.61,116.6,320.71,117.67,320.99z"/>
		</g>
	</g>
	<g>
		<g>
			<g>
				<rect x="93.5" y="258.8" class="st7" width="13" height="11"/>
			</g>
			<g>
				<g>
					<path class="st3" d="M104,261.3v6h-8v-6H104 M109,256.3h-5h-8h-5v5v6v5h5h8h5v-5v-6V256.3L109,256.3z"/>
				</g>
			</g>
		</g>
		<g>
			<g>
				<path class="st16" d="M100,335.8c-1.16,0-2.17-0.8-2.43-1.93c-0.38-1.63-9.28-40.24-5.01-61.07c0.24-1.16,1.26-2,2.45-2h10
					c1.19,0,2.21,0.83,2.45,2c4.26,20.83-4.63,59.44-5.01,61.07C102.17,335,101.16,335.8,100,335.8z"/>
			</g>
			<g>
				<path class="st3" d="M105,273.3c4.2,20.53-5,60-5,60s-9.2-39.47-5-60H105 M105,268.3H95c-2.37,0-4.42,1.67-4.9,4
					c-4.37,21.36,4.64,60.48,5.03,62.14c0.53,2.26,2.55,3.86,4.87,3.86s4.34-1.6,4.87-3.86c0.39-1.66,9.4-40.78,5.03-62.14
					C109.42,269.97,107.37,268.3,105,268.3L105,268.3z"/>
			</g>
		</g>
		<g>
			<g>
				<path class="st17" d="M100,258.8c-5.79,0-10.5-4.71-10.5-10.5c0-4.85,1.95-7.65,3.67-10.12c1.45-2.08,2.82-4.05,3.37-7.49
					c0.14-0.85,0.7-1.57,1.49-1.91c0.31-0.13,0.65-0.2,0.98-0.2c0.5,0,1,0.15,1.43,0.45c10.36,7.2,10.13,18.12,10.07,19.34
					C110.46,254.13,105.77,258.8,100,258.8z"/>
			</g>
			<g>
				<g>
					<path class="st3" d="M99,231.08c9.72,6.75,9,17.22,9,17.22c0,4.42-3.58,8-8,8c-4.42,0-8-3.58-8-8
						C92,240.52,97.66,239.48,99,231.08 M99,226.08c-0.66,0-1.33,0.13-1.96,0.4c-1.58,0.67-2.71,2.11-2.98,3.81
						c-0.46,2.87-1.56,4.45-2.95,6.45c-1.83,2.63-4.11,5.91-4.11,11.55c0,7.17,5.83,13,13,13c7.13,0,12.93-5.77,13-12.88
						c0.07-1.82,0.06-13.66-11.15-21.44C101,226.39,100,226.08,99,226.08L99,226.08z"/>
				</g>
			</g>
		</g>
		<g>
			<g>
				<path class="st9" d="M99,231.08c-1.32,8.3-6.86,9.42-6.99,16.96c3.99,0.76,11.99,0.19,15.02-6.16
					C105.96,238.48,103.7,234.35,99,231.08z"/>
			</g>
		</g>
	</g>
	<g>
		<g>
			<g>
				<path class="st1" d="M78,364.3c-7.17,0-13-5.83-13-13v-60c0-1.66,1.34-3,3-3h72c1.66,0,3,1.34,3,3v60c0,7.17-5.83,13-13,13H78z"
					/>
			</g>
			<g>
				<path class="st3" d="M140,291.3v60c0,5.52-4.48,10-10,10H78c-5.52,0-10-4.48-10-10v-60H140 M140,285.3H68c-3.31,0-6,2.69-6,6v60
					c0,8.82,7.18,16,16,16h52c8.82,0,16-7.18,16-16v-60C146,287.99,143.31,285.3,140,285.3L140,285.3z"/>
			</g>
		</g>
		<g>
			<path class="st7" d="M80,351.3v-60H68v60c0,5.52,4.48,10,10,10h12C84.48,361.3,80,356.82,80,351.3z"/>
		</g>
	</g>
</g>
</svg>
