<?xml version="1.0" encoding="utf-8"?>
<!-- Generator: Adobe Illustrator 26.0.2, SVG Export Plug-In . SVG Version: 6.00 Build 0)  -->
<svg version="1.1" id="Landing_x5F_Page_x5F_Hub-Landing_x5F_Page_x5F_Social_x5F_Proof"
	 xmlns="http://www.w3.org/2000/svg" xmlns:xlink="http://www.w3.org/1999/xlink" x="0px" y="0px" viewBox="0 0 400 400"
	 style="enable-background:new 0 0 400 400;" xml:space="preserve">
<style type="text/css">
	.st0{fill:#D2F4FD;}
	.st1{fill:#515979;}
	.st2{fill:#6ADAF7;}
	.st3{fill:#3CC3F7;}
	.st4{fill:#667683;}
	.st5{fill:#FFFFFF;}
	.st6{fill:#EF7D7D;}
	.st7{fill:#FFE8A0;}
	.st8{fill:#7DDF96;}
	.st9{fill:#F3F9FE;}
	.st10{fill:#D8EBFB;}
	.st11{fill:#FBB040;}
	.st12{fill:#F89D81;}
	.st13{fill:#FFD886;}
	.st14{fill:#FFC369;}
	.st15{fill:#9E8271;}
	.st16{fill:#FFE8B6;}
	.st17{fill:#F29797;}
	.st18{fill:none;}
</style>
<g>
	<g>
		<g>
			<path class="st0" d="M262.13,272.37c-7.17,0-13-5.83-13-13v-170c0-7.17,5.83-13,13-13h111c7.17,0,13,5.83,13,13v170
				c0,7.17-5.83,13-13,13H262.13z"/>
		</g>
		<g>
			<g>
				<path class="st1" d="M373.13,79.37c5.52,0,10,4.48,10,10v170c0,5.52-4.48,10-10,10h-111c-5.52,0-10-4.48-10-10v-170
					c0-5.52,4.48-10,10-10H373.13 M373.13,73.37h-111c-8.82,0-16,7.18-16,16v170c0,8.82,7.18,16,16,16h111c8.82,0,16-7.18,16-16
					v-170C389.13,80.54,381.96,73.37,373.13,73.37L373.13,73.37z"/>
			</g>
		</g>
	</g>
	<g>
		<rect x="252.13" y="162.37" class="st2" width="131" height="62"/>
	</g>
	<g>
		<rect x="252.13" y="162.37" class="st3" width="131" height="4"/>
	</g>
	<g>
		<g>
			<path class="st4" d="M252.13,108.37c-1.66,0-3-1.34-3-3v-16c0-7.17,5.83-13,13-13h111c7.17,0,13,5.83,13,13v16c0,1.66-1.34,3-3,3
				H252.13z"/>
		</g>
		<g>
			<path class="st1" d="M373.13,79.37c5.52,0,10,4.48,10,10v16h-131v-16c0-5.52,4.48-10,10-10H373.13 M373.13,73.37h-111
				c-8.82,0-16,7.18-16,16v16c0,3.31,2.69,6,6,6h131c3.31,0,6-2.69,6-6v-16C389.13,80.54,381.96,73.37,373.13,73.37L373.13,73.37z"
				/>
		</g>
	</g>
	<g>
		<g>
			<path class="st5" d="M327.13,98.37c-3.31,0-6-2.69-6-6s2.69-6,6-6h44c3.31,0,6,2.69,6,6s-2.69,6-6,6H327.13z"/>
		</g>
		<g>
			<g>
				<path class="st1" d="M371.13,89.37c1.66,0,3,1.34,3,3s-1.34,3-3,3h-44c-1.66,0-3-1.34-3-3s1.34-3,3-3H371.13 M371.13,83.37h-44
					c-4.96,0-9,4.04-9,9s4.04,9,9,9h44c4.96,0,9-4.04,9-9S376.1,83.37,371.13,83.37L371.13,83.37z"/>
			</g>
		</g>
	</g>
	<g>
		<g>
			<circle class="st6" cx="264.13" cy="92.37" r="6"/>
		</g>
		<g>
			<g>
				<path class="st1" d="M264.13,89.37c1.66,0,3,1.34,3,3s-1.34,3-3,3c-1.66,0-3-1.34-3-3S262.48,89.37,264.13,89.37 M264.13,83.37
					c-4.96,0-9,4.04-9,9s4.04,9,9,9s9-4.04,9-9S269.1,83.37,264.13,83.37L264.13,83.37z"/>
			</g>
		</g>
	</g>
	<g>
		<g>
			<circle class="st7" cx="285.13" cy="92.37" r="6"/>
		</g>
		<g>
			<g>
				<path class="st1" d="M285.13,89.37c1.66,0,3,1.34,3,3s-1.34,3-3,3c-1.66,0-3-1.34-3-3S283.48,89.37,285.13,89.37 M285.13,83.37
					c-4.96,0-9,4.04-9,9s4.04,9,9,9s9-4.04,9-9S290.1,83.37,285.13,83.37L285.13,83.37z"/>
			</g>
		</g>
	</g>
	<g>
		<g>
			<circle class="st8" cx="306.13" cy="92.37" r="6"/>
		</g>
		<g>
			<g>
				<path class="st1" d="M306.13,89.37c1.66,0,3,1.34,3,3s-1.34,3-3,3c-1.66,0-3-1.34-3-3S304.48,89.37,306.13,89.37 M306.13,83.37
					c-4.96,0-9,4.04-9,9s4.04,9,9,9s9-4.04,9-9S311.1,83.37,306.13,83.37L306.13,83.37z"/>
			</g>
		</g>
	</g>
	<g>
		<g>
			<circle class="st2" cx="345.63" cy="135.37" r="2"/>
		</g>
		<g>
			<circle class="st2" cx="341.63" cy="143.37" r="2"/>
		</g>
		<g>
			<circle class="st2" cx="349.63" cy="143.37" r="2"/>
		</g>
	</g>
	<g>
		<g>
			<circle class="st2" cx="289.63" cy="135.37" r="2"/>
		</g>
		<g>
			<circle class="st2" cx="285.63" cy="143.37" r="2"/>
		</g>
		<g>
			<circle class="st2" cx="293.63" cy="143.37" r="2"/>
		</g>
	</g>
	<g>
		<path class="st1" d="M326.17,117.22c2.76-1.63,6.17-1.74,9.04-0.31c1.55,0.74,4.02,3,2.01,4.55c-0.49,0.35-1.07,0.33-1.62,0.21
			c-1.48-0.27-2.62-0.55-4.07-0.73c-1.47-0.21-3.4-0.28-4.83-0.61C325.22,120.06,324.89,117.94,326.17,117.22L326.17,117.22z"/>
	</g>
	<g>
		<path class="st1" d="M308.17,120.42c-2.03,0.34-4.41,0.43-6.42,0.84c-0.75,0.13-1.6,0.35-2.46,0.47c-0.94,0.15-1.82-0.5-1.97-1.44
			c-0.02-2.54,3.68-4.1,5.82-4.31c2-0.28,8,0.45,6.52,3.57C309.33,120.11,308.75,120.32,308.17,120.42L308.17,120.42z"/>
	</g>
	<g>
		<circle class="st0" cx="274.63" cy="186.87" r="16.5"/>
	</g>
	<g>
		<circle class="st2" cx="274.63" cy="246.87" r="16.5"/>
	</g>
	<g>
		<circle class="st0" cx="317.63" cy="186.87" r="16.5"/>
	</g>
	<g>
		<circle class="st0" cx="360.63" cy="186.87" r="16.5"/>
	</g>
	<g>
		<path class="st3" d="M289.13,219.37h-29c-1.1,0-2-0.9-2-2l0,0c0-1.1,0.9-2,2-2h29c1.1,0,2,0.9,2,2l0,0
			C291.13,218.47,290.24,219.37,289.13,219.37z"/>
	</g>
	<g>
		<path class="st3" d="M289.13,211.37h-29c-1.1,0-2-0.9-2-2l0,0c0-1.1,0.9-2,2-2h29c1.1,0,2,0.9,2,2l0,0
			C291.13,210.47,290.24,211.37,289.13,211.37z"/>
	</g>
	<g>
		<path class="st3" d="M332.13,219.37h-29c-1.1,0-2-0.9-2-2l0,0c0-1.1,0.9-2,2-2h29c1.1,0,2,0.9,2,2l0,0
			C334.13,218.47,333.24,219.37,332.13,219.37z"/>
	</g>
	<g>
		<path class="st3" d="M332.13,211.37h-29c-1.1,0-2-0.9-2-2l0,0c0-1.1,0.9-2,2-2h29c1.1,0,2,0.9,2,2l0,0
			C334.13,210.47,333.24,211.37,332.13,211.37z"/>
	</g>
	<g>
		<path class="st3" d="M375.13,248.37h-76c-1.1,0-2-0.9-2-2l0,0c0-1.1,0.9-2,2-2h76c1.1,0,2,0.9,2,2l0,0
			C377.13,247.47,376.24,248.37,375.13,248.37z"/>
	</g>
	<g>
		<path class="st3" d="M345.13,256.37h-46c-1.1,0-2-0.9-2-2l0,0c0-1.1,0.9-2,2-2h46c1.1,0,2,0.9,2,2l0,0
			C347.13,255.47,346.24,256.37,345.13,256.37z"/>
	</g>
	<g>
		<path class="st3" d="M375.13,240.37h-76c-1.1,0-2-0.9-2-2l0,0c0-1.1,0.9-2,2-2h76c1.1,0,2,0.9,2,2l0,0
			C377.13,239.47,376.24,240.37,375.13,240.37z"/>
	</g>
	<g>
		<path class="st3" d="M375.13,219.37h-29c-1.1,0-2-0.9-2-2l0,0c0-1.1,0.9-2,2-2h29c1.1,0,2,0.9,2,2l0,0
			C377.13,218.47,376.24,219.37,375.13,219.37z"/>
	</g>
	<g>
		<path class="st3" d="M375.13,211.37h-29c-1.1,0-2-0.9-2-2l0,0c0-1.1,0.9-2,2-2h29c1.1,0,2,0.9,2,2l0,0
			C377.13,210.47,376.24,211.37,375.13,211.37z"/>
	</g>
	<g>
		<path class="st1" d="M329.64,138.37L329.64,138.37h-24.01c-2.21,0-4,1.79-4,4c0,8.82,7.18,16,16,16c8.77,0,15.91-7.09,16-15.84
			c0-0.05,0-0.11,0-0.16C333.64,140.16,331.85,138.37,329.64,138.37z"/>
		<g>
			<ellipse class="st6" cx="317.63" cy="150.37" rx="8.93" ry="4"/>
		</g>
	</g>
	<g>
		<g>
			<path class="st1" d="M334.63,133.87c-1.1,0-2-0.9-2-2c0-1.65-1.35-3-3-3s-3,1.35-3,3c0,1.1-0.9,2-2,2s-2-0.9-2-2
				c0-3.86,3.14-7,7-7s7,3.14,7,7C336.63,132.97,335.74,133.87,334.63,133.87z"/>
		</g>
	</g>
	<g>
		<g>
			<path class="st1" d="M310.63,133.87c-1.1,0-2-0.9-2-2c0-1.65-1.35-3-3-3s-3,1.35-3,3c0,1.1-0.9,2-2,2s-2-0.9-2-2
				c0-3.86,3.14-7,7-7s7,3.14,7,7C312.63,132.97,311.74,133.87,310.63,133.87z"/>
		</g>
	</g>
</g>
<g>
	<g>
		<g>
			<g>
				<path class="st9" d="M162.95,392.62c-3.86,0-7-3.14-7-7v-85c0-3.86,3.14-7,7-7h144c3.86,0,7,3.14,7,7v85c0,3.86-3.14,7-7,7
					H162.95z"/>
			</g>
			<g>
				<path class="st1" d="M306.95,296.62c2.21,0,4,1.79,4,4v85c0,2.21-1.79,4-4,4h-144c-2.21,0-4-1.79-4-4v-85c0-2.21,1.79-4,4-4
					H306.95 M306.95,290.62h-144c-5.51,0-10,4.49-10,10v85c0,5.51,4.49,10,10,10h144c5.51,0,10-4.49,10-10v-85
					C316.95,295.1,312.46,290.62,306.95,290.62L306.95,290.62z"/>
			</g>
		</g>
		<g>
			<path class="st10" d="M198.95,328.62h-40v-32h48v24C206.95,325.03,203.37,328.62,198.95,328.62z"/>
		</g>
		<g>
			<g>
				<g>
					<g>
						<g>
							<path class="st1" d="M249.45,308.12c-1.1,0-2-0.9-2-2c0-1.38-1.12-2.5-2.5-2.5s-2.5,1.12-2.5,2.5c0,1.1-0.9,2-2,2s-2-0.9-2-2
								c0-3.58,2.92-6.5,6.5-6.5s6.5,2.92,6.5,6.5C251.45,307.22,250.55,308.12,249.45,308.12z"/>
						</g>
					</g>
					<g>
						<g>
							<path class="st1" d="M229.45,308.12c-1.1,0-2-0.9-2-2c0-1.38-1.12-2.5-2.5-2.5s-2.5,1.12-2.5,2.5c0,1.1-0.9,2-2,2s-2-0.9-2-2
								c0-3.58,2.92-6.5,6.5-6.5s6.5,2.92,6.5,6.5C231.45,307.22,230.55,308.12,229.45,308.12z"/>
						</g>
					</g>
					<g>
						<path class="st1" d="M242.28,283.01c3.9-1.54,9.15-0.14,10.94,3.86c0.62,1.33-0.82,2.82-2.16,2.3
							c-1.5-0.54-2.7-1.12-4.19-1.58c-1.4-0.46-3.26-0.86-4.6-1.43C240.88,285.64,240.91,283.51,242.28,283.01L242.28,283.01z"/>
					</g>
					<g>
						<path class="st1" d="M227.22,286.32c-2.68,0.86-5.41,1.55-8.01,2.71c-0.97,0.49-2.21,0.16-2.58-0.91
							c-0.15-0.42-0.12-0.87,0.04-1.25c1.28-3.03,4.8-4.55,7.91-4.46c1.03,0.03,1.96,0.17,3.03,0.6
							C229.25,283.74,228.89,285.91,227.22,286.32L227.22,286.32z"/>
					</g>
				</g>
			</g>
		</g>
		<g>
			<polygon class="st11" points="176.95,331.62 179.42,336.62 184.95,337.43 180.95,341.33 181.89,346.83 176.95,344.23 172,346.83 
				172.95,341.33 168.95,337.43 174.48,336.62 			"/>
		</g>
		<g>
			<polygon class="st11" points="196.95,331.62 199.42,336.62 204.95,337.43 200.95,341.33 201.89,346.83 196.95,344.23 192,346.83 
				192.95,341.33 188.95,337.43 194.48,336.62 			"/>
		</g>
		<g>
			<polygon class="st11" points="216.95,331.62 219.42,336.62 224.95,337.43 220.95,341.33 221.89,346.83 216.95,344.23 212,346.83 
				212.95,341.33 208.95,337.43 214.48,336.62 			"/>
		</g>
		<g>
			<polygon class="st11" points="236.95,331.62 239.42,336.62 244.95,337.43 240.95,341.33 241.89,346.83 236.95,344.23 232,346.83 
				232.95,341.33 228.95,337.43 234.48,336.62 			"/>
		</g>
		<g>
			<polygon class="st10" points="256.95,331.62 259.42,336.62 264.95,337.43 260.95,341.33 261.89,346.83 256.95,344.23 252,346.83 
				252.95,341.33 248.95,337.43 254.48,336.62 			"/>
		</g>
		<g>
			<path class="st1" d="M169.97,357.61c-0.25-0.4-0.42-0.81-0.51-1.24c-0.09-0.43-0.09-0.85-0.02-1.26s0.23-0.81,0.47-1.19
				c0.24-0.38,0.55-0.72,0.96-1.03l0.69,0.41c0.06,0.04,0.1,0.08,0.13,0.13c0.02,0.05,0.03,0.09,0.03,0.14
				c0,0.05-0.01,0.1-0.04,0.14c-0.02,0.04-0.05,0.08-0.08,0.12c-0.08,0.08-0.17,0.21-0.26,0.39s-0.16,0.38-0.2,0.61
				s-0.04,0.49,0,0.77s0.15,0.56,0.34,0.86c0.1,0.16,0.13,0.3,0.08,0.42s-0.14,0.2-0.28,0.25L169.97,357.61z M172.48,357.61
				c-0.25-0.4-0.42-0.81-0.51-1.24c-0.09-0.43-0.09-0.85-0.02-1.26c0.08-0.41,0.23-0.81,0.47-1.19c0.24-0.38,0.55-0.72,0.96-1.03
				l0.69,0.41c0.06,0.04,0.1,0.08,0.13,0.13c0.02,0.05,0.03,0.09,0.03,0.14c0,0.05-0.01,0.1-0.04,0.14
				c-0.02,0.04-0.05,0.08-0.08,0.12c-0.08,0.08-0.17,0.21-0.26,0.39s-0.16,0.38-0.2,0.61s-0.04,0.49,0,0.77s0.15,0.56,0.34,0.86
				c0.1,0.16,0.13,0.3,0.08,0.42s-0.14,0.2-0.28,0.25L172.48,357.61z"/>
			<path class="st1" d="M178,364h-2.38v-10.2H178V364z"/>
			<path class="st1" d="M181.18,353.13c0.25,0.4,0.42,0.81,0.51,1.24s0.09,0.84,0.02,1.26c-0.08,0.41-0.23,0.81-0.47,1.19
				c-0.24,0.38-0.56,0.72-0.95,1.03l-0.69-0.41c-0.06-0.03-0.1-0.07-0.13-0.12s-0.03-0.1-0.03-0.15c0-0.05,0.01-0.09,0.03-0.14
				c0.02-0.04,0.05-0.08,0.08-0.12c0.05-0.06,0.11-0.13,0.17-0.23c0.06-0.1,0.12-0.21,0.17-0.34c0.05-0.13,0.09-0.27,0.12-0.43
				s0.04-0.32,0.03-0.5c-0.01-0.17-0.04-0.36-0.1-0.55c-0.06-0.19-0.15-0.38-0.27-0.58c-0.1-0.16-0.13-0.3-0.08-0.42
				c0.05-0.12,0.14-0.2,0.28-0.25L181.18,353.13z"/>
			<path class="st1" d="M185.07,353.52V364h-2.17v-10.48H185.07z"/>
			<path class="st1" d="M188.71,353.52V364h-2.17v-10.48H188.71z"/>
			<path class="st1" d="M195.58,357.51c0.28-0.27,0.59-0.48,0.92-0.64c0.33-0.16,0.71-0.24,1.12-0.24c0.41,0,0.78,0.08,1.12,0.25
				c0.34,0.17,0.62,0.41,0.86,0.72s0.42,0.68,0.55,1.12c0.13,0.44,0.19,0.93,0.19,1.47c0,0.59-0.08,1.12-0.22,1.6
				c-0.15,0.48-0.36,0.89-0.63,1.24c-0.27,0.34-0.6,0.61-0.98,0.8c-0.38,0.19-0.8,0.28-1.25,0.28c-0.22,0-0.42-0.02-0.59-0.06
				c-0.17-0.04-0.33-0.1-0.48-0.18c-0.14-0.08-0.28-0.17-0.4-0.28s-0.23-0.22-0.35-0.35l-0.08,0.36c-0.04,0.15-0.1,0.25-0.18,0.31
				s-0.2,0.08-0.34,0.08h-1.44v-10.48h2.17V357.51z M195.58,362.03c0.16,0.18,0.34,0.3,0.53,0.38c0.19,0.07,0.39,0.11,0.58,0.11
				c0.21,0,0.39-0.04,0.57-0.12s0.32-0.2,0.44-0.38c0.12-0.17,0.22-0.41,0.29-0.69c0.07-0.29,0.1-0.64,0.1-1.06
				c0-0.36-0.03-0.67-0.08-0.93c-0.05-0.25-0.13-0.46-0.24-0.62c-0.1-0.16-0.24-0.28-0.39-0.35c-0.16-0.07-0.33-0.11-0.54-0.11
				c-0.27,0-0.5,0.06-0.69,0.17c-0.2,0.12-0.39,0.29-0.58,0.51V362.03z"/>
			<path class="st1" d="M203.24,360.76c0.07,0.61,0.25,1.05,0.55,1.32c0.3,0.27,0.68,0.41,1.15,0.41c0.25,0,0.47-0.03,0.65-0.09
				c0.18-0.06,0.34-0.13,0.49-0.2c0.14-0.08,0.27-0.14,0.39-0.2s0.24-0.09,0.37-0.09c0.17,0,0.3,0.06,0.39,0.19l0.63,0.78
				c-0.22,0.26-0.47,0.46-0.72,0.63s-0.53,0.29-0.8,0.38c-0.27,0.09-0.55,0.15-0.82,0.19s-0.53,0.05-0.78,0.05
				c-0.51,0-0.99-0.08-1.43-0.25c-0.45-0.17-0.84-0.41-1.17-0.74c-0.33-0.33-0.6-0.73-0.79-1.22s-0.29-1.05-0.29-1.69
				c0-0.49,0.08-0.95,0.25-1.38c0.17-0.43,0.4-0.81,0.71-1.14c0.31-0.33,0.69-0.59,1.13-0.78s0.94-0.29,1.49-0.29
				c0.48,0,0.92,0.08,1.32,0.22c0.4,0.15,0.74,0.37,1.03,0.65c0.29,0.29,0.51,0.63,0.67,1.05c0.16,0.41,0.24,0.88,0.24,1.4
				c0,0.16-0.01,0.3-0.02,0.4c-0.01,0.1-0.04,0.18-0.08,0.25c-0.04,0.06-0.09,0.1-0.15,0.13c-0.06,0.02-0.14,0.04-0.24,0.04H203.24z
				 M205.97,359.5c0-0.17-0.02-0.34-0.07-0.5c-0.04-0.16-0.12-0.31-0.22-0.44c-0.1-0.13-0.23-0.23-0.4-0.31
				c-0.16-0.08-0.36-0.12-0.6-0.12c-0.41,0-0.73,0.12-0.97,0.35s-0.39,0.58-0.46,1.02H205.97z"/>
			<path class="st1" d="M217.57,358.46c-0.07,0.08-0.13,0.14-0.19,0.19c-0.06,0.05-0.15,0.07-0.26,0.07c-0.11,0-0.2-0.03-0.29-0.08
				c-0.09-0.05-0.18-0.11-0.29-0.17c-0.11-0.06-0.23-0.12-0.38-0.17c-0.14-0.05-0.32-0.08-0.54-0.08c-0.27,0-0.5,0.05-0.69,0.15
				s-0.35,0.24-0.48,0.42s-0.22,0.41-0.28,0.67s-0.09,0.56-0.09,0.89c0,0.7,0.13,1.23,0.4,1.6s0.64,0.56,1.11,0.56
				c0.25,0,0.45-0.03,0.6-0.09c0.15-0.06,0.27-0.13,0.38-0.21c0.1-0.08,0.2-0.15,0.28-0.21c0.09-0.07,0.19-0.1,0.33-0.1
				c0.17,0,0.3,0.06,0.39,0.19l0.63,0.78c-0.22,0.26-0.46,0.46-0.71,0.63c-0.25,0.16-0.5,0.29-0.76,0.38
				c-0.26,0.09-0.52,0.15-0.78,0.19c-0.26,0.04-0.52,0.05-0.76,0.05c-0.44,0-0.87-0.08-1.27-0.25c-0.4-0.17-0.76-0.41-1.06-0.73
				c-0.31-0.32-0.55-0.71-0.73-1.18c-0.18-0.47-0.27-1-0.27-1.6c0-0.52,0.08-1.01,0.23-1.47s0.39-0.85,0.69-1.18
				c0.31-0.33,0.68-0.6,1.13-0.79c0.45-0.19,0.97-0.29,1.56-0.29c0.57,0,1.07,0.09,1.5,0.27c0.43,0.18,0.82,0.45,1.16,0.8
				L217.57,358.46z"/>
			<path class="st1" d="M222.27,356.63c0.55,0,1.05,0.09,1.5,0.26c0.45,0.17,0.84,0.42,1.17,0.74c0.32,0.32,0.58,0.71,0.76,1.17
				c0.18,0.46,0.27,0.98,0.27,1.55c0,0.58-0.09,1.1-0.27,1.57c-0.18,0.46-0.43,0.86-0.76,1.18c-0.33,0.32-0.71,0.57-1.17,0.75
				s-0.95,0.26-1.5,0.26c-0.56,0-1.06-0.09-1.52-0.26s-0.85-0.42-1.18-0.75s-0.58-0.72-0.76-1.18c-0.18-0.46-0.27-0.99-0.27-1.57
				c0-0.57,0.09-1.09,0.27-1.55c0.18-0.46,0.43-0.85,0.76-1.17s0.72-0.57,1.18-0.74C221.21,356.72,221.71,356.63,222.27,356.63z
				 M222.27,362.5c0.5,0,0.87-0.18,1.1-0.53s0.35-0.89,0.35-1.61s-0.12-1.25-0.35-1.6c-0.24-0.35-0.6-0.52-1.1-0.52
				c-0.51,0-0.89,0.17-1.13,0.52c-0.24,0.35-0.36,0.88-0.36,1.6s0.12,1.25,0.36,1.61S221.75,362.5,222.27,362.5z"/>
			<path class="st1" d="M227.05,364v-7.26h1.34c0.27,0,0.45,0.12,0.53,0.36l0.12,0.39c0.12-0.13,0.25-0.24,0.38-0.35
				c0.13-0.1,0.27-0.2,0.42-0.27c0.15-0.08,0.32-0.14,0.49-0.18c0.17-0.04,0.37-0.07,0.58-0.07c0.44,0,0.8,0.11,1.09,0.34
				s0.5,0.53,0.65,0.91c0.12-0.22,0.27-0.42,0.44-0.57c0.18-0.16,0.36-0.29,0.57-0.38s0.42-0.17,0.64-0.22
				c0.23-0.05,0.45-0.07,0.68-0.07c0.42,0,0.78,0.06,1.11,0.19c0.32,0.12,0.59,0.3,0.81,0.54c0.22,0.24,0.38,0.53,0.49,0.87
				s0.17,0.73,0.17,1.17V364h-2.17v-4.61c0-0.75-0.32-1.13-0.97-1.13c-0.29,0-0.54,0.1-0.73,0.29c-0.19,0.19-0.29,0.47-0.29,0.84
				V364h-2.17v-4.61c0-0.42-0.08-0.71-0.25-0.88s-0.4-0.25-0.72-0.25c-0.2,0-0.38,0.04-0.56,0.13c-0.17,0.09-0.34,0.21-0.49,0.36
				V364H227.05z"/>
			<path class="st1" d="M241.41,354.75c0,0.17-0.04,0.33-0.1,0.49c-0.07,0.15-0.17,0.29-0.29,0.4s-0.26,0.21-0.42,0.27
				c-0.16,0.07-0.33,0.1-0.51,0.1c-0.18,0-0.34-0.03-0.5-0.1c-0.15-0.07-0.29-0.16-0.41-0.27s-0.21-0.25-0.28-0.4
				c-0.07-0.15-0.1-0.31-0.1-0.49c0-0.18,0.03-0.34,0.1-0.5c0.07-0.15,0.16-0.29,0.28-0.41c0.12-0.12,0.26-0.21,0.41-0.27
				c0.15-0.07,0.32-0.1,0.5-0.1c0.18,0,0.35,0.03,0.51,0.1s0.3,0.16,0.42,0.27c0.12,0.12,0.22,0.25,0.29,0.41
				C241.38,354.41,241.41,354.58,241.41,354.75z M241.19,356.74V364h-2.17v-7.26H241.19z"/>
			<path class="st1" d="M244.71,357.53c0.14-0.13,0.28-0.25,0.43-0.36s0.31-0.21,0.48-0.28c0.17-0.08,0.35-0.14,0.55-0.18
				c0.2-0.04,0.41-0.07,0.65-0.07c0.4,0,0.75,0.07,1.05,0.21s0.56,0.33,0.77,0.57s0.37,0.54,0.48,0.88c0.11,0.34,0.16,0.71,0.16,1.1
				V364h-2.17v-4.61c0-0.35-0.08-0.63-0.24-0.83c-0.16-0.2-0.4-0.3-0.72-0.3c-0.24,0-0.46,0.05-0.67,0.15
				c-0.21,0.1-0.41,0.24-0.61,0.41V364h-2.17v-7.26h1.34c0.27,0,0.45,0.12,0.53,0.36L244.71,357.53z"/>
			<path class="st1" d="M257.27,356.97v0.79c0,0.12-0.03,0.22-0.1,0.29c-0.07,0.07-0.18,0.12-0.35,0.16l-0.53,0.12
				c0.03,0.1,0.05,0.21,0.07,0.31c0.02,0.11,0.03,0.22,0.03,0.34c0,0.36-0.08,0.69-0.23,0.98c-0.15,0.29-0.36,0.54-0.62,0.74
				s-0.58,0.36-0.93,0.47c-0.36,0.11-0.75,0.17-1.16,0.17c-0.11,0-0.22,0-0.33-0.01s-0.21-0.02-0.31-0.04
				c-0.16,0.1-0.24,0.21-0.24,0.33c0,0.12,0.07,0.21,0.2,0.26c0.13,0.05,0.3,0.09,0.52,0.11c0.21,0.02,0.46,0.04,0.73,0.04
				s0.55,0.02,0.84,0.05c0.28,0.03,0.56,0.07,0.84,0.13c0.27,0.06,0.52,0.16,0.73,0.29s0.39,0.32,0.52,0.54
				c0.13,0.23,0.2,0.51,0.2,0.87c0,0.33-0.08,0.65-0.24,0.96c-0.16,0.31-0.39,0.59-0.7,0.83c-0.31,0.24-0.69,0.44-1.13,0.58
				c-0.45,0.15-0.96,0.22-1.54,0.22c-0.57,0-1.06-0.05-1.47-0.16s-0.76-0.25-1.03-0.42c-0.27-0.17-0.47-0.38-0.61-0.61
				s-0.2-0.47-0.2-0.71c0-0.32,0.09-0.59,0.28-0.8s0.45-0.39,0.78-0.52c-0.18-0.11-0.32-0.25-0.42-0.41s-0.15-0.39-0.15-0.65
				c0-0.11,0.02-0.22,0.06-0.34c0.04-0.12,0.1-0.24,0.18-0.35c0.08-0.11,0.18-0.22,0.3-0.33s0.27-0.19,0.43-0.27
				c-0.38-0.2-0.68-0.47-0.9-0.79c-0.22-0.33-0.33-0.71-0.33-1.15c0-0.36,0.08-0.69,0.23-0.98c0.15-0.29,0.36-0.54,0.63-0.74
				c0.27-0.2,0.58-0.36,0.95-0.47c0.36-0.11,0.76-0.16,1.18-0.16c0.62,0,1.16,0.12,1.64,0.35H257.27z M255.13,364.27
				c0-0.17-0.08-0.3-0.23-0.37c-0.15-0.08-0.35-0.13-0.6-0.17c-0.25-0.03-0.52-0.05-0.83-0.06c-0.31-0.01-0.61-0.03-0.91-0.05
				c-0.13,0.09-0.25,0.2-0.33,0.31s-0.13,0.24-0.13,0.39c0,0.1,0.02,0.2,0.07,0.28c0.04,0.08,0.12,0.16,0.23,0.22
				c0.11,0.06,0.26,0.11,0.45,0.14c0.19,0.04,0.43,0.05,0.72,0.05c0.31,0,0.57-0.02,0.77-0.06c0.2-0.04,0.36-0.09,0.48-0.15
				s0.2-0.14,0.25-0.23C255.11,364.47,255.13,364.38,255.13,364.27z M253.45,359.99c0.36,0,0.62-0.09,0.78-0.27s0.24-0.41,0.24-0.7
				c0-0.29-0.08-0.53-0.24-0.69s-0.42-0.25-0.78-0.25s-0.62,0.08-0.78,0.25s-0.24,0.4-0.24,0.69c0,0.14,0.02,0.27,0.06,0.38
				c0.04,0.12,0.1,0.22,0.19,0.3c0.08,0.09,0.19,0.15,0.32,0.2C253.12,359.97,253.27,359.99,253.45,359.99z"/>
			<path class="st1" d="M263.59,357.51c0.28-0.27,0.59-0.48,0.92-0.64c0.33-0.16,0.71-0.24,1.12-0.24c0.41,0,0.78,0.08,1.12,0.25
				c0.34,0.17,0.62,0.41,0.86,0.72s0.42,0.68,0.55,1.12c0.13,0.44,0.19,0.93,0.19,1.47c0,0.59-0.08,1.12-0.22,1.6
				c-0.15,0.48-0.36,0.89-0.63,1.24c-0.27,0.34-0.6,0.61-0.98,0.8c-0.38,0.19-0.8,0.28-1.25,0.28c-0.22,0-0.42-0.02-0.59-0.06
				c-0.17-0.04-0.33-0.1-0.48-0.18c-0.14-0.08-0.28-0.17-0.4-0.28s-0.23-0.22-0.35-0.35l-0.08,0.36c-0.04,0.15-0.1,0.25-0.18,0.31
				S263,364,262.86,364h-1.44v-10.48h2.17V357.51z M263.59,362.03c0.16,0.18,0.34,0.3,0.53,0.38c0.19,0.07,0.39,0.11,0.58,0.11
				c0.21,0,0.39-0.04,0.57-0.12s0.32-0.2,0.44-0.38c0.12-0.17,0.22-0.41,0.29-0.69c0.07-0.29,0.1-0.64,0.1-1.06
				c0-0.36-0.03-0.67-0.08-0.93c-0.05-0.25-0.13-0.46-0.24-0.62c-0.1-0.16-0.24-0.28-0.39-0.35c-0.16-0.07-0.33-0.11-0.54-0.11
				c-0.27,0-0.5,0.06-0.69,0.17c-0.2,0.12-0.39,0.29-0.58,0.51V362.03z"/>
			<path class="st1" d="M269.3,357.75c0.44-0.39,0.92-0.68,1.46-0.86c0.53-0.19,1.11-0.28,1.72-0.28c0.44,0,0.83,0.07,1.19,0.21
				s0.65,0.34,0.9,0.59c0.24,0.25,0.43,0.56,0.56,0.91c0.13,0.35,0.2,0.73,0.2,1.15V364h-0.99c-0.21,0-0.36-0.03-0.46-0.08
				c-0.11-0.06-0.19-0.17-0.26-0.35l-0.15-0.4c-0.18,0.15-0.36,0.29-0.52,0.41c-0.17,0.12-0.34,0.22-0.52,0.3
				c-0.18,0.08-0.37,0.14-0.57,0.18c-0.2,0.04-0.43,0.06-0.68,0.06c-0.33,0-0.63-0.04-0.9-0.13c-0.27-0.09-0.5-0.21-0.69-0.38
				c-0.19-0.17-0.33-0.38-0.44-0.63s-0.15-0.54-0.15-0.86c0-0.26,0.07-0.53,0.2-0.79c0.13-0.27,0.36-0.51,0.68-0.74
				c0.32-0.22,0.76-0.41,1.3-0.56s1.23-0.23,2.07-0.25v-0.31c0-0.42-0.09-0.73-0.26-0.92c-0.17-0.19-0.42-0.28-0.75-0.28
				c-0.26,0-0.47,0.03-0.63,0.08c-0.16,0.06-0.31,0.12-0.44,0.19c-0.13,0.07-0.25,0.13-0.37,0.19c-0.12,0.06-0.27,0.08-0.43,0.08
				c-0.15,0-0.28-0.04-0.38-0.11c-0.1-0.08-0.19-0.16-0.25-0.27L269.3,357.75z M273.2,361.05c-0.43,0.02-0.79,0.06-1.07,0.11
				c-0.28,0.06-0.5,0.13-0.67,0.21s-0.28,0.18-0.34,0.29c-0.06,0.11-0.09,0.22-0.09,0.35c0,0.25,0.07,0.42,0.2,0.52
				c0.14,0.1,0.33,0.15,0.6,0.15c0.28,0,0.52-0.05,0.73-0.15c0.21-0.1,0.42-0.26,0.64-0.48V361.05z"/>
			<path class="st1" d="M282.04,358.46c-0.07,0.08-0.13,0.14-0.19,0.19c-0.06,0.05-0.15,0.07-0.26,0.07c-0.11,0-0.2-0.03-0.29-0.08
				c-0.09-0.05-0.18-0.11-0.29-0.17c-0.11-0.06-0.23-0.12-0.38-0.17c-0.14-0.05-0.32-0.08-0.54-0.08c-0.27,0-0.5,0.05-0.69,0.15
				s-0.35,0.24-0.48,0.42s-0.22,0.41-0.28,0.67s-0.09,0.56-0.09,0.89c0,0.7,0.13,1.23,0.4,1.6s0.64,0.56,1.11,0.56
				c0.25,0,0.45-0.03,0.6-0.09c0.15-0.06,0.27-0.13,0.38-0.21c0.1-0.08,0.2-0.15,0.28-0.21c0.09-0.07,0.19-0.1,0.33-0.1
				c0.17,0,0.3,0.06,0.39,0.19l0.63,0.78c-0.22,0.26-0.46,0.46-0.71,0.63c-0.25,0.16-0.5,0.29-0.76,0.38
				c-0.26,0.09-0.52,0.15-0.78,0.19c-0.26,0.04-0.52,0.05-0.76,0.05c-0.44,0-0.87-0.08-1.27-0.25c-0.4-0.17-0.76-0.41-1.06-0.73
				c-0.31-0.32-0.55-0.71-0.73-1.18c-0.18-0.47-0.27-1-0.27-1.6c0-0.52,0.08-1.01,0.23-1.47s0.39-0.85,0.69-1.18
				c0.31-0.33,0.68-0.6,1.13-0.79c0.45-0.19,0.97-0.29,1.56-0.29c0.57,0,1.07,0.09,1.5,0.27c0.43,0.18,0.82,0.45,1.16,0.8
				L282.04,358.46z"/>
			<path class="st1" d="M285.68,353.52v5.87h0.32c0.14,0,0.24-0.02,0.31-0.06c0.07-0.04,0.14-0.11,0.21-0.2l1.37-2.04
				c0.08-0.12,0.18-0.2,0.29-0.26c0.11-0.06,0.25-0.09,0.41-0.09h1.99l-1.88,2.58c-0.18,0.23-0.39,0.42-0.63,0.57
				c0.11,0.08,0.21,0.17,0.29,0.28c0.09,0.1,0.17,0.22,0.25,0.35l2.04,3.47h-1.96c-0.16,0-0.3-0.03-0.42-0.08
				c-0.12-0.05-0.21-0.15-0.29-0.28l-1.37-2.57c-0.07-0.12-0.13-0.19-0.2-0.23c-0.07-0.04-0.17-0.05-0.31-0.05h-0.42V364h-2.17
				v-10.48H285.68z"/>
			<path class="st1" d="M291.4,362.9c0-0.17,0.03-0.32,0.09-0.47c0.06-0.14,0.15-0.27,0.26-0.38s0.24-0.19,0.39-0.25
				c0.15-0.06,0.31-0.09,0.49-0.09c0.17,0,0.33,0.03,0.48,0.09c0.15,0.06,0.28,0.15,0.39,0.25c0.11,0.11,0.2,0.23,0.26,0.38
				c0.06,0.15,0.09,0.3,0.09,0.47s-0.03,0.33-0.09,0.47c-0.06,0.15-0.15,0.27-0.26,0.38c-0.11,0.11-0.24,0.19-0.39,0.25
				s-0.31,0.09-0.48,0.09c-0.18,0-0.34-0.03-0.49-0.09s-0.28-0.14-0.39-0.25s-0.2-0.23-0.26-0.38
				C291.43,363.23,291.4,363.07,291.4,362.9z M293.66,353.8v4c0,0.43-0.03,0.86-0.08,1.28c-0.05,0.42-0.12,0.85-0.2,1.29h-1.47
				c-0.08-0.44-0.15-0.87-0.2-1.29c-0.05-0.42-0.08-0.85-0.08-1.28v-4H293.66z"/>
			<path class="st1" d="M296.88,353.13c0.25,0.4,0.42,0.81,0.51,1.24s0.09,0.84,0.02,1.26c-0.08,0.41-0.23,0.81-0.47,1.19
				c-0.24,0.38-0.56,0.72-0.95,1.03l-0.69-0.41c-0.06-0.03-0.1-0.07-0.13-0.12s-0.03-0.1-0.03-0.15c0-0.05,0.01-0.09,0.03-0.14
				c0.02-0.04,0.05-0.08,0.08-0.12c0.05-0.06,0.11-0.13,0.17-0.23c0.06-0.1,0.12-0.21,0.17-0.34c0.05-0.13,0.09-0.27,0.12-0.43
				s0.04-0.32,0.03-0.5c-0.01-0.17-0.04-0.36-0.1-0.55c-0.06-0.19-0.15-0.38-0.27-0.58c-0.1-0.16-0.13-0.3-0.08-0.42
				c0.05-0.12,0.14-0.2,0.28-0.25L296.88,353.13z M299.39,353.13c0.25,0.4,0.42,0.81,0.51,1.24s0.09,0.84,0.02,1.26
				c-0.08,0.41-0.23,0.81-0.47,1.19c-0.24,0.38-0.55,0.72-0.95,1.03l-0.69-0.41c-0.06-0.03-0.1-0.07-0.13-0.12s-0.03-0.1-0.03-0.15
				c0-0.05,0.01-0.09,0.03-0.14c0.02-0.04,0.05-0.08,0.08-0.12c0.05-0.06,0.11-0.13,0.17-0.23c0.06-0.1,0.12-0.21,0.17-0.34
				s0.09-0.27,0.12-0.43s0.04-0.32,0.03-0.5c-0.01-0.17-0.04-0.36-0.1-0.55c-0.06-0.19-0.15-0.38-0.27-0.58
				c-0.1-0.16-0.13-0.3-0.08-0.42c0.05-0.12,0.14-0.2,0.28-0.25L299.39,353.13z"/>
		</g>
		<g>
			<path class="st12" d="M261.96,374.6h3.24v1.5h-3.24V374.6z"/>
			<path class="st12" d="M272.72,375.83c0,0.49-0.06,0.93-0.18,1.33s-0.31,0.74-0.55,1.03c-0.25,0.29-0.55,0.51-0.93,0.67
				c-0.37,0.16-0.81,0.24-1.31,0.24c-0.23,0-0.45-0.01-0.67-0.04c-0.22-0.02-0.45-0.06-0.69-0.12l0.11-1.18
				c0.01-0.1,0.05-0.19,0.13-0.25c0.07-0.06,0.17-0.1,0.31-0.1c0.07,0,0.15,0.01,0.25,0.03c0.1,0.02,0.22,0.03,0.36,0.03
				c0.2,0,0.37-0.03,0.51-0.08c0.15-0.05,0.27-0.14,0.36-0.27c0.1-0.13,0.17-0.29,0.22-0.5s0.07-0.46,0.07-0.76v-5.62h2.03V375.83z"
				/>
			<path class="st12" d="M279.53,372.78V379h-1.15c-0.23,0-0.38-0.1-0.46-0.31l-0.11-0.36c-0.12,0.12-0.24,0.22-0.37,0.31
				c-0.13,0.09-0.26,0.17-0.41,0.24c-0.15,0.07-0.3,0.12-0.47,0.16s-0.36,0.06-0.56,0.06c-0.34,0-0.64-0.06-0.9-0.18
				c-0.26-0.12-0.48-0.28-0.66-0.5c-0.18-0.21-0.32-0.46-0.41-0.75s-0.14-0.6-0.14-0.95v-3.95h1.86v3.95c0,0.31,0.07,0.55,0.21,0.71
				c0.14,0.17,0.35,0.25,0.62,0.25c0.2,0,0.4-0.04,0.57-0.13c0.18-0.09,0.35-0.2,0.52-0.35v-4.43H279.53z"/>
			<path class="st12" d="M284.74,374.14c-0.05,0.08-0.1,0.13-0.15,0.16c-0.05,0.03-0.12,0.05-0.21,0.05c-0.09,0-0.18-0.02-0.26-0.06
				s-0.18-0.08-0.29-0.12c-0.1-0.04-0.22-0.08-0.34-0.12s-0.27-0.06-0.44-0.06c-0.24,0-0.42,0.04-0.54,0.13s-0.19,0.21-0.19,0.38
				c0,0.12,0.04,0.21,0.12,0.29s0.19,0.14,0.33,0.2c0.14,0.06,0.29,0.11,0.46,0.17s0.35,0.11,0.53,0.17
				c0.18,0.06,0.36,0.14,0.53,0.22s0.33,0.19,0.46,0.32s0.25,0.28,0.33,0.46s0.12,0.4,0.12,0.65c0,0.31-0.06,0.59-0.17,0.85
				s-0.28,0.48-0.5,0.67c-0.22,0.19-0.5,0.33-0.82,0.44c-0.33,0.1-0.7,0.16-1.12,0.16c-0.21,0-0.42-0.02-0.64-0.06
				s-0.42-0.09-0.62-0.16s-0.38-0.15-0.55-0.24s-0.31-0.2-0.43-0.3l0.43-0.68c0.05-0.08,0.11-0.14,0.18-0.19
				c0.07-0.05,0.17-0.07,0.29-0.07c0.11,0,0.21,0.02,0.29,0.07s0.18,0.1,0.28,0.16c0.1,0.06,0.22,0.11,0.35,0.16
				c0.13,0.05,0.3,0.07,0.51,0.07c0.14,0,0.27-0.01,0.37-0.04c0.1-0.03,0.18-0.07,0.24-0.12s0.1-0.11,0.13-0.17
				c0.03-0.06,0.04-0.13,0.04-0.2c0-0.12-0.04-0.23-0.13-0.31s-0.19-0.15-0.33-0.21s-0.29-0.11-0.46-0.16s-0.35-0.11-0.53-0.17
				c-0.18-0.06-0.36-0.14-0.53-0.23c-0.17-0.09-0.33-0.2-0.47-0.34c-0.14-0.14-0.25-0.31-0.33-0.51s-0.13-0.44-0.13-0.73
				c0-0.26,0.05-0.52,0.15-0.75c0.1-0.24,0.25-0.45,0.46-0.63c0.2-0.18,0.46-0.32,0.77-0.43c0.31-0.11,0.67-0.16,1.08-0.16
				c0.22,0,0.44,0.02,0.65,0.06s0.41,0.1,0.59,0.17c0.18,0.07,0.35,0.16,0.5,0.25c0.15,0.1,0.29,0.21,0.4,0.32L284.74,374.14z"/>
			<path class="st12" d="M292.86,379H291v-4.94h-2.6v3.09c0,0.14,0.04,0.26,0.11,0.36c0.07,0.09,0.17,0.14,0.3,0.14
				c0.07,0,0.12-0.01,0.17-0.02s0.09-0.03,0.12-0.05s0.07-0.03,0.1-0.05c0.03-0.01,0.07-0.02,0.11-0.02c0.06,0,0.1,0.01,0.13,0.04
				c0.03,0.03,0.07,0.07,0.11,0.12l0.56,0.88c-0.24,0.18-0.51,0.32-0.81,0.41s-0.61,0.13-0.93,0.13c-0.3,0-0.56-0.04-0.78-0.13
				c-0.23-0.09-0.42-0.21-0.57-0.37c-0.15-0.16-0.27-0.35-0.35-0.57c-0.08-0.22-0.12-0.47-0.12-0.75v-3.22h-0.53
				c-0.1,0-0.18-0.03-0.25-0.09c-0.07-0.06-0.1-0.15-0.1-0.27v-0.73l0.99-0.2l0.37-1.51c0.05-0.19,0.18-0.29,0.41-0.29h0.97v1.82
				h4.46V379z M293.12,371.07c0,0.15-0.03,0.29-0.09,0.42c-0.06,0.13-0.14,0.25-0.25,0.34c-0.1,0.1-0.23,0.17-0.36,0.23
				c-0.14,0.06-0.29,0.08-0.44,0.08c-0.15,0-0.29-0.03-0.43-0.08c-0.13-0.06-0.25-0.13-0.35-0.23c-0.1-0.1-0.18-0.21-0.24-0.34
				s-0.09-0.27-0.09-0.42c0-0.15,0.03-0.29,0.09-0.42c0.06-0.13,0.14-0.25,0.24-0.35c0.1-0.1,0.22-0.18,0.35-0.23
				c0.13-0.06,0.27-0.09,0.43-0.09c0.16,0,0.3,0.03,0.44,0.09c0.14,0.06,0.26,0.14,0.36,0.23c0.1,0.1,0.19,0.21,0.25,0.35
				C293.09,370.78,293.12,370.92,293.12,371.07z"/>
			<path class="st12" d="M295.88,373.45c0.12-0.11,0.24-0.22,0.37-0.31c0.13-0.1,0.27-0.18,0.41-0.24c0.15-0.07,0.3-0.12,0.47-0.16
				c0.17-0.04,0.36-0.06,0.56-0.06c0.34,0,0.64,0.06,0.9,0.18c0.26,0.12,0.48,0.28,0.66,0.49c0.18,0.21,0.32,0.46,0.41,0.75
				s0.14,0.61,0.14,0.95V379h-1.86v-3.95c0-0.3-0.07-0.54-0.21-0.71c-0.14-0.17-0.35-0.25-0.62-0.25c-0.2,0-0.4,0.04-0.57,0.13
				s-0.35,0.2-0.52,0.35V379h-1.86v-6.22h1.15c0.23,0,0.38,0.1,0.46,0.31L295.88,373.45z"/>
		</g>
		<g>
			<polygon class="st11" points="256.95,331.62 256.95,344.23 252,346.83 252.95,341.33 248.95,337.43 254.48,336.62 			"/>
		</g>
		<g>
			<g>
				<path class="st1" d="M235.21,318.63c-3.9,0-7.88-1.1-11.33-3.29c-0.93-0.59-1.21-1.83-0.61-2.76c0.59-0.93,1.83-1.21,2.76-0.61
					c5.51,3.51,12.97,3.53,17.75,0.04c0.89-0.65,2.14-0.46,2.79,0.44c0.65,0.89,0.46,2.14-0.44,2.79
					C243.03,317.5,239.17,318.63,235.21,318.63z"/>
			</g>
			<g>
				<path class="st1" d="M231.61,320.63c2.2,0.37,4.47,0.39,6.66,0c0.85-0.18,1.43,0.97,0.79,1.54c0,0-0.44,0.43-0.44,0.43
					c-2.02,1.77-5.32,1.77-7.34,0c0,0-0.44-0.42-0.44-0.42C230.19,321.59,230.77,320.46,231.61,320.63L231.61,320.63z"/>
			</g>
		</g>
	</g>
	<g>
		<g>
			<g>
				<path class="st5" d="M32.95,319.62c-3.86,0-7-3.14-7-7v-96c0-3.86,3.14-7,7-7h158c3.86,0,7,3.14,7,7v96c0,3.86-3.14,7-7,7H32.95
					z"/>
			</g>
			<g>
				<path class="st1" d="M190.95,212.62c2.21,0,4,1.79,4,4v96c0,2.21-1.79,4-4,4h-158c-2.21,0-4-1.79-4-4v-96c0-2.21,1.79-4,4-4
					H190.95 M190.95,206.62h-158c-5.51,0-10,4.49-10,10v96c0,5.51,4.49,10,10,10h158c5.51,0,10-4.49,10-10v-96
					C200.95,211.1,196.46,206.62,190.95,206.62L190.95,206.62z"/>
			</g>
		</g>
		<g>
			<g>
				<g>
					<g>
						<path class="st1" d="M125.45,229.99c-0.16,0-0.33-0.03-0.49-0.08c-1.6-0.55-4.42-0.55-6.02,0c-0.78,0.27-1.64-0.15-1.91-0.93
							c-0.27-0.78,0.15-1.64,0.93-1.91c2.24-0.77,5.74-0.77,7.98,0c0.78,0.27,1.2,1.12,0.93,1.91
							C126.65,229.6,126.07,229.99,125.45,229.99z"/>
					</g>
					<g>
						<g>
							<circle class="st1" cx="121.95" cy="221.79" r="6"/>
						</g>
						<g>
							<circle class="st5" cx="123.45" cy="221.79" r="1.5"/>
						</g>
					</g>
					<g>
						<path class="st1" d="M105.45,229.99c-0.16,0-0.33-0.03-0.49-0.08c-1.6-0.55-4.42-0.55-6.02,0c-0.79,0.27-1.64-0.15-1.91-0.93
							c-0.27-0.78,0.15-1.64,0.93-1.91c2.24-0.77,5.74-0.77,7.98,0c0.78,0.27,1.2,1.12,0.93,1.91
							C106.65,229.6,106.07,229.99,105.45,229.99z"/>
					</g>
					<g>
						<g>
							<circle class="st1" cx="101.95" cy="221.79" r="6"/>
						</g>
						<g>
							<circle class="st5" cx="103.45" cy="221.79" r="1.5"/>
						</g>
					</g>
					<g>
						<path class="st1" d="M119.28,199.01c3.9-1.54,9.15-0.14,10.94,3.86c0.62,1.33-0.82,2.82-2.16,2.3
							c-1.5-0.54-2.7-1.12-4.19-1.58c-1.4-0.46-3.26-0.86-4.6-1.43C117.88,201.64,117.91,199.51,119.28,199.01L119.28,199.01z"/>
					</g>
					<g>
						<path class="st1" d="M104.22,202.32c-2.68,0.86-5.41,1.55-8.01,2.71c-0.97,0.49-2.21,0.16-2.58-0.91
							c-0.15-0.42-0.12-0.87,0.04-1.25c1.28-3.03,4.8-4.55,7.91-4.46c1.03,0.03,1.96,0.17,3.03,0.6
							C106.25,199.74,105.89,201.91,104.22,202.32L104.22,202.32z"/>
					</g>
				</g>
			</g>
			<g>
				<path class="st1" d="M123.95,232.14L123.95,232.14H99.95c-2.21,0-4,1.79-4,4c0,8.82,7.18,16,16,16c8.77,0,15.91-7.09,16-15.84
					c0-0.05,0-0.11,0-0.16C127.95,233.93,126.16,232.14,123.95,232.14z"/>
				<g>
					<ellipse class="st6" cx="111.95" cy="244.14" rx="8.93" ry="4"/>
				</g>
			</g>
		</g>
		<g>
			<polygon class="st11" points="46.95,258.62 49.42,263.62 54.95,264.43 50.95,268.33 51.89,273.83 46.95,271.23 42,273.83 
				42.95,268.33 38.95,264.43 44.48,263.62 			"/>
		</g>
		<g>
			<polygon class="st11" points="66.95,258.62 69.42,263.62 74.95,264.43 70.95,268.33 71.89,273.83 66.95,271.23 62,273.83 
				62.95,268.33 58.95,264.43 64.48,263.62 			"/>
		</g>
		<g>
			<polygon class="st11" points="86.95,258.62 89.42,263.62 94.95,264.43 90.95,268.33 91.89,273.83 86.95,271.23 82,273.83 
				82.95,268.33 78.95,264.43 84.48,263.62 			"/>
		</g>
		<g>
			<polygon class="st11" points="106.95,258.62 109.42,263.62 114.95,264.43 110.95,268.33 111.89,273.83 106.95,271.23 102,273.83 
				102.95,268.33 98.95,264.43 104.48,263.62 			"/>
		</g>
		<g>
			<polygon class="st11" points="126.95,258.62 129.42,263.62 134.95,264.43 130.95,268.33 131.89,273.83 126.95,271.23 122,273.83 
				122.95,268.33 118.95,264.43 124.48,263.62 			"/>
		</g>
		<g>
			<path class="st1" d="M39.97,284.61c-0.25-0.4-0.42-0.81-0.51-1.24c-0.09-0.43-0.09-0.85-0.02-1.26s0.23-0.81,0.47-1.19
				c0.24-0.38,0.55-0.72,0.96-1.03l0.69,0.41c0.06,0.04,0.1,0.08,0.13,0.13c0.02,0.05,0.03,0.09,0.03,0.14
				c0,0.05-0.01,0.1-0.04,0.14c-0.02,0.04-0.05,0.08-0.08,0.12c-0.08,0.08-0.17,0.21-0.26,0.39s-0.16,0.38-0.2,0.61
				s-0.04,0.49,0,0.77s0.15,0.56,0.34,0.86c0.1,0.16,0.13,0.3,0.08,0.42s-0.14,0.2-0.28,0.25L39.97,284.61z M42.48,284.61
				c-0.25-0.4-0.42-0.81-0.51-1.24c-0.09-0.43-0.09-0.85-0.02-1.26c0.08-0.41,0.23-0.81,0.47-1.19c0.24-0.38,0.55-0.72,0.96-1.03
				l0.69,0.41c0.06,0.04,0.1,0.08,0.13,0.13c0.02,0.05,0.03,0.09,0.03,0.14c0,0.05-0.01,0.1-0.04,0.14
				c-0.02,0.04-0.05,0.08-0.08,0.12c-0.08,0.08-0.17,0.21-0.26,0.39s-0.16,0.38-0.2,0.61s-0.04,0.49,0,0.77s0.15,0.56,0.34,0.86
				c0.1,0.16,0.13,0.3,0.08,0.42s-0.14,0.2-0.28,0.25L42.48,284.61z"/>
			<path class="st1" d="M53.86,291h-1.83c-0.21,0-0.37-0.05-0.5-0.14s-0.22-0.22-0.29-0.37l-0.6-1.78h-3.88l-0.6,1.78
				c-0.05,0.13-0.14,0.25-0.28,0.35c-0.13,0.1-0.3,0.16-0.49,0.16h-1.85l3.95-10.2h2.42L53.86,291z M50.11,287.1l-0.95-2.79
				c-0.07-0.18-0.14-0.39-0.22-0.63s-0.16-0.5-0.24-0.78c-0.07,0.28-0.14,0.55-0.22,0.79c-0.08,0.24-0.15,0.45-0.22,0.63l-0.94,2.78
				H50.11z"/>
			<path class="st1" d="M54.42,291v-7.26h1.34c0.27,0,0.45,0.12,0.53,0.36l0.12,0.39c0.12-0.13,0.25-0.24,0.38-0.35
				c0.13-0.1,0.27-0.2,0.42-0.27c0.15-0.08,0.32-0.14,0.49-0.18c0.17-0.04,0.37-0.07,0.58-0.07c0.44,0,0.8,0.11,1.09,0.34
				s0.5,0.53,0.65,0.91c0.12-0.22,0.27-0.42,0.44-0.57c0.18-0.16,0.36-0.29,0.57-0.38s0.42-0.17,0.64-0.22
				c0.23-0.05,0.45-0.07,0.68-0.07c0.42,0,0.78,0.06,1.11,0.19c0.32,0.12,0.59,0.3,0.81,0.54c0.22,0.24,0.38,0.53,0.49,0.87
				s0.17,0.73,0.17,1.17V291h-2.17v-4.61c0-0.75-0.32-1.13-0.97-1.13c-0.29,0-0.54,0.1-0.73,0.29c-0.19,0.19-0.29,0.47-0.29,0.84
				V291H58.6v-4.61c0-0.42-0.08-0.71-0.25-0.88s-0.4-0.25-0.72-0.25c-0.2,0-0.38,0.04-0.56,0.13c-0.17,0.09-0.34,0.21-0.49,0.36V291
				H54.42z"/>
			<path class="st1" d="M66.17,284.75c0.44-0.39,0.92-0.68,1.46-0.86c0.53-0.19,1.11-0.28,1.72-0.28c0.44,0,0.83,0.07,1.19,0.21
				s0.65,0.34,0.9,0.59c0.24,0.25,0.43,0.56,0.56,0.91c0.13,0.35,0.2,0.73,0.2,1.15V291H71.2c-0.21,0-0.36-0.03-0.46-0.08
				c-0.11-0.06-0.19-0.17-0.26-0.35l-0.15-0.4c-0.18,0.15-0.36,0.29-0.52,0.41c-0.17,0.12-0.34,0.22-0.52,0.3
				c-0.18,0.08-0.37,0.14-0.57,0.18c-0.2,0.04-0.43,0.06-0.68,0.06c-0.33,0-0.63-0.04-0.9-0.13c-0.27-0.09-0.5-0.21-0.69-0.38
				c-0.19-0.17-0.33-0.38-0.44-0.63s-0.15-0.54-0.15-0.86c0-0.26,0.07-0.53,0.2-0.79c0.13-0.27,0.36-0.51,0.68-0.74
				c0.32-0.22,0.76-0.41,1.3-0.56s1.23-0.23,2.07-0.25v-0.31c0-0.42-0.09-0.73-0.26-0.92c-0.17-0.19-0.42-0.28-0.75-0.28
				c-0.26,0-0.47,0.03-0.63,0.08c-0.16,0.06-0.31,0.12-0.44,0.19c-0.13,0.07-0.25,0.13-0.37,0.19c-0.12,0.06-0.27,0.08-0.43,0.08
				c-0.15,0-0.28-0.04-0.38-0.11c-0.1-0.08-0.19-0.16-0.25-0.27L66.17,284.75z M70.08,288.05c-0.43,0.02-0.79,0.06-1.07,0.11
				c-0.28,0.06-0.5,0.13-0.67,0.21s-0.28,0.18-0.34,0.29c-0.06,0.11-0.09,0.22-0.09,0.35c0,0.25,0.07,0.42,0.2,0.52
				c0.14,0.1,0.33,0.15,0.6,0.15c0.28,0,0.52-0.05,0.73-0.15c0.21-0.1,0.42-0.26,0.64-0.48V288.05z"/>
			<path class="st1" d="M78.97,284.61c0,0.15-0.03,0.29-0.08,0.43c-0.05,0.14-0.12,0.25-0.2,0.34l-3.03,4h3.24V291h-5.74v-0.88
				c0-0.09,0.02-0.2,0.07-0.34c0.05-0.14,0.12-0.26,0.21-0.38l3.06-4.05h-3.14v-1.61h5.61V284.61z"/>
			<path class="st1" d="M82.54,281.75c0,0.17-0.04,0.33-0.1,0.49c-0.07,0.15-0.17,0.29-0.29,0.4s-0.26,0.21-0.42,0.27
				c-0.16,0.07-0.33,0.1-0.51,0.1c-0.18,0-0.34-0.03-0.5-0.1c-0.15-0.07-0.29-0.16-0.41-0.27s-0.21-0.25-0.28-0.4
				c-0.07-0.15-0.1-0.31-0.1-0.49c0-0.18,0.03-0.34,0.1-0.5c0.07-0.15,0.16-0.29,0.28-0.41c0.12-0.12,0.26-0.21,0.41-0.27
				c0.15-0.07,0.32-0.1,0.5-0.1c0.18,0,0.35,0.03,0.51,0.1s0.3,0.16,0.42,0.27c0.12,0.12,0.22,0.25,0.29,0.41
				C82.51,281.41,82.54,281.58,82.54,281.75z M82.32,283.74V291h-2.17v-7.26H82.32z"/>
			<path class="st1" d="M85.84,284.53c0.14-0.13,0.28-0.25,0.43-0.36s0.31-0.21,0.48-0.28c0.17-0.08,0.35-0.14,0.55-0.18
				c0.2-0.04,0.41-0.07,0.65-0.07c0.4,0,0.75,0.07,1.05,0.21s0.56,0.33,0.77,0.57s0.37,0.54,0.48,0.88c0.11,0.34,0.16,0.71,0.16,1.1
				V291h-2.17v-4.61c0-0.35-0.08-0.63-0.24-0.83c-0.16-0.2-0.4-0.3-0.72-0.3c-0.24,0-0.46,0.05-0.67,0.15
				c-0.21,0.1-0.41,0.24-0.61,0.41V291h-2.17v-7.26h1.34c0.27,0,0.45,0.12,0.53,0.36L85.84,284.53z"/>
			<path class="st1" d="M98.41,283.97v0.79c0,0.12-0.03,0.22-0.1,0.29c-0.07,0.07-0.18,0.12-0.35,0.16l-0.53,0.12
				c0.03,0.1,0.05,0.21,0.07,0.31c0.02,0.11,0.03,0.22,0.03,0.34c0,0.36-0.08,0.69-0.23,0.98c-0.15,0.29-0.36,0.54-0.62,0.74
				s-0.58,0.36-0.93,0.47c-0.36,0.11-0.75,0.17-1.16,0.17c-0.11,0-0.22,0-0.33-0.01s-0.21-0.02-0.31-0.04
				c-0.16,0.1-0.24,0.21-0.24,0.33c0,0.12,0.07,0.21,0.2,0.26c0.13,0.05,0.3,0.09,0.52,0.11c0.21,0.02,0.46,0.04,0.73,0.04
				s0.55,0.02,0.84,0.05c0.28,0.03,0.56,0.07,0.84,0.13c0.27,0.06,0.52,0.16,0.73,0.29s0.39,0.32,0.52,0.54
				c0.13,0.23,0.2,0.51,0.2,0.87c0,0.33-0.08,0.65-0.24,0.96c-0.16,0.31-0.39,0.59-0.7,0.83c-0.31,0.24-0.69,0.44-1.13,0.58
				c-0.45,0.15-0.96,0.22-1.54,0.22c-0.57,0-1.06-0.05-1.47-0.16s-0.76-0.25-1.03-0.42c-0.27-0.17-0.47-0.38-0.61-0.61
				s-0.2-0.47-0.2-0.71c0-0.32,0.09-0.59,0.28-0.8s0.45-0.39,0.78-0.52c-0.18-0.11-0.32-0.25-0.42-0.41s-0.15-0.39-0.15-0.65
				c0-0.11,0.02-0.22,0.06-0.34c0.04-0.12,0.1-0.24,0.18-0.35c0.08-0.11,0.18-0.22,0.3-0.33s0.27-0.19,0.43-0.27
				c-0.38-0.2-0.68-0.47-0.9-0.79c-0.22-0.33-0.33-0.71-0.33-1.15c0-0.36,0.08-0.69,0.23-0.98c0.15-0.29,0.36-0.54,0.63-0.74
				c0.27-0.2,0.58-0.36,0.95-0.47c0.36-0.11,0.76-0.16,1.18-0.16c0.62,0,1.16,0.12,1.64,0.35H98.41z M96.26,291.27
				c0-0.17-0.08-0.3-0.23-0.37c-0.15-0.08-0.35-0.13-0.6-0.17c-0.25-0.03-0.52-0.05-0.83-0.06c-0.31-0.01-0.61-0.03-0.91-0.05
				c-0.13,0.09-0.25,0.2-0.33,0.31s-0.13,0.24-0.13,0.39c0,0.1,0.02,0.2,0.07,0.28c0.04,0.08,0.12,0.16,0.23,0.22
				c0.11,0.06,0.26,0.11,0.45,0.14c0.19,0.04,0.43,0.05,0.72,0.05c0.31,0,0.57-0.02,0.77-0.06c0.2-0.04,0.36-0.09,0.48-0.15
				s0.2-0.14,0.25-0.23C96.24,291.47,96.26,291.38,96.26,291.27z M94.58,286.99c0.36,0,0.62-0.09,0.78-0.27s0.24-0.41,0.24-0.7
				c0-0.29-0.08-0.53-0.24-0.69s-0.42-0.25-0.78-0.25s-0.62,0.08-0.78,0.25s-0.24,0.4-0.24,0.69c0,0.14,0.02,0.27,0.06,0.38
				c0.04,0.12,0.1,0.22,0.19,0.3c0.08,0.09,0.19,0.15,0.32,0.2C94.25,286.97,94.41,286.99,94.58,286.99z"/>
			<path class="st1" d="M104.33,287.76c0.07,0.61,0.25,1.05,0.55,1.32c0.3,0.27,0.68,0.41,1.15,0.41c0.25,0,0.47-0.03,0.65-0.09
				c0.18-0.06,0.34-0.13,0.49-0.2c0.14-0.08,0.27-0.14,0.39-0.2s0.24-0.09,0.37-0.09c0.17,0,0.3,0.06,0.39,0.19l0.63,0.78
				c-0.22,0.26-0.47,0.46-0.72,0.63s-0.53,0.29-0.8,0.38c-0.27,0.09-0.55,0.15-0.82,0.19s-0.53,0.05-0.78,0.05
				c-0.51,0-0.99-0.08-1.43-0.25c-0.45-0.17-0.84-0.41-1.17-0.74c-0.33-0.33-0.6-0.73-0.79-1.22s-0.29-1.05-0.29-1.69
				c0-0.49,0.08-0.95,0.25-1.38c0.17-0.43,0.4-0.81,0.71-1.14c0.31-0.33,0.69-0.59,1.13-0.78s0.94-0.29,1.49-0.29
				c0.48,0,0.92,0.08,1.32,0.22c0.4,0.15,0.74,0.37,1.03,0.65c0.29,0.29,0.51,0.63,0.67,1.05c0.16,0.41,0.24,0.88,0.24,1.4
				c0,0.16-0.01,0.3-0.02,0.4c-0.01,0.1-0.04,0.18-0.08,0.25c-0.04,0.06-0.09,0.1-0.15,0.13c-0.06,0.02-0.14,0.04-0.24,0.04H104.33z
				 M107.06,286.5c0-0.17-0.02-0.34-0.07-0.5c-0.04-0.16-0.12-0.31-0.22-0.44c-0.1-0.13-0.23-0.23-0.4-0.31
				c-0.16-0.08-0.36-0.12-0.6-0.12c-0.41,0-0.73,0.12-0.97,0.35s-0.39,0.58-0.46,1.02H107.06z"/>
			<path class="st1" d="M116.92,291h-2.09c-0.15,0-0.28-0.04-0.37-0.11c-0.1-0.07-0.17-0.16-0.23-0.27l-1.29-2.23
				c-0.02,0.08-0.05,0.15-0.08,0.22c-0.03,0.07-0.07,0.14-0.11,0.2l-1.06,1.81c-0.07,0.09-0.14,0.18-0.23,0.26s-0.2,0.12-0.34,0.12
				h-1.93l2.44-3.75l-2.34-3.51h2.09c0.15,0,0.27,0.02,0.34,0.06c0.07,0.04,0.14,0.11,0.19,0.2l1.29,2.15
				c0.03-0.08,0.06-0.17,0.1-0.25c0.04-0.08,0.09-0.16,0.14-0.25l0.92-1.62c0.07-0.1,0.13-0.18,0.21-0.22
				c0.07-0.05,0.16-0.07,0.27-0.07h1.99l-2.34,3.41L116.92,291z"/>
			<path class="st1" d="M119.63,284.64c0.28-0.3,0.61-0.55,0.97-0.75c0.36-0.19,0.79-0.29,1.29-0.29c0.38,0,0.73,0.08,1.05,0.25
				c0.32,0.17,0.6,0.41,0.83,0.73s0.42,0.71,0.55,1.17c0.13,0.46,0.2,0.98,0.2,1.56c0,0.55-0.08,1.05-0.23,1.51s-0.36,0.86-0.64,1.2
				c-0.27,0.34-0.6,0.61-0.98,0.8c-0.38,0.19-0.8,0.29-1.26,0.29c-0.38,0-0.7-0.05-0.95-0.16c-0.26-0.11-0.49-0.25-0.7-0.43v2.79
				h-2.17v-9.56h1.34c0.27,0,0.45,0.12,0.53,0.36L119.63,284.64z M119.76,289.03c0.16,0.18,0.34,0.3,0.53,0.38
				c0.19,0.07,0.39,0.11,0.6,0.11c0.2,0,0.38-0.04,0.55-0.12c0.17-0.08,0.31-0.21,0.44-0.38c0.12-0.17,0.22-0.4,0.29-0.68
				c0.07-0.28,0.1-0.62,0.1-1.02c0-0.38-0.03-0.7-0.08-0.97c-0.06-0.26-0.13-0.47-0.23-0.63c-0.1-0.16-0.22-0.28-0.36-0.35
				c-0.14-0.07-0.3-0.11-0.47-0.11c-0.32,0-0.58,0.06-0.78,0.17c-0.21,0.12-0.4,0.29-0.59,0.51V289.03z"/>
			<path class="st1" d="M127.43,287.76c0.07,0.61,0.25,1.05,0.55,1.32c0.3,0.27,0.68,0.41,1.15,0.41c0.25,0,0.47-0.03,0.65-0.09
				c0.18-0.06,0.34-0.13,0.49-0.2c0.14-0.08,0.27-0.14,0.39-0.2s0.24-0.09,0.37-0.09c0.17,0,0.3,0.06,0.39,0.19l0.63,0.78
				c-0.22,0.26-0.47,0.46-0.72,0.63s-0.53,0.29-0.8,0.38c-0.27,0.09-0.55,0.15-0.82,0.19s-0.53,0.05-0.78,0.05
				c-0.51,0-0.99-0.08-1.43-0.25c-0.45-0.17-0.84-0.41-1.17-0.74c-0.33-0.33-0.6-0.73-0.79-1.22s-0.29-1.05-0.29-1.69
				c0-0.49,0.08-0.95,0.25-1.38c0.17-0.43,0.4-0.81,0.71-1.14c0.31-0.33,0.69-0.59,1.13-0.78s0.94-0.29,1.49-0.29
				c0.48,0,0.92,0.08,1.32,0.22c0.4,0.15,0.74,0.37,1.03,0.65c0.29,0.29,0.51,0.63,0.67,1.05c0.16,0.41,0.24,0.88,0.24,1.4
				c0,0.16-0.01,0.3-0.02,0.4c-0.01,0.1-0.04,0.18-0.08,0.25c-0.04,0.06-0.09,0.1-0.15,0.13c-0.06,0.02-0.14,0.04-0.24,0.04H127.43z
				 M130.16,286.5c0-0.17-0.02-0.34-0.07-0.5c-0.04-0.16-0.12-0.31-0.22-0.44c-0.1-0.13-0.23-0.23-0.4-0.31
				c-0.16-0.08-0.36-0.12-0.6-0.12c-0.41,0-0.73,0.12-0.97,0.35s-0.39,0.58-0.46,1.02H130.16z"/>
			<path class="st1" d="M135.22,284.86c0.22-0.39,0.48-0.7,0.77-0.92c0.29-0.22,0.63-0.34,1-0.34c0.33,0,0.59,0.08,0.8,0.23
				l-0.14,1.6c-0.02,0.1-0.06,0.17-0.12,0.21c-0.05,0.04-0.13,0.06-0.22,0.06c-0.04,0-0.09,0-0.15-0.01c-0.06,0-0.12-0.01-0.19-0.02
				c-0.07-0.01-0.13-0.01-0.2-0.02c-0.07-0.01-0.13-0.01-0.19-0.01c-0.32,0-0.57,0.08-0.76,0.25c-0.19,0.17-0.35,0.4-0.48,0.7V291
				h-2.17v-7.26h1.29c0.11,0,0.2,0.01,0.27,0.03c0.07,0.02,0.13,0.05,0.18,0.09c0.05,0.04,0.09,0.09,0.11,0.16
				c0.03,0.07,0.05,0.15,0.07,0.24L135.22,284.86z"/>
			<path class="st1" d="M140.97,281.75c0,0.17-0.04,0.33-0.1,0.49c-0.07,0.15-0.17,0.29-0.29,0.4s-0.26,0.21-0.42,0.27
				c-0.16,0.07-0.33,0.1-0.51,0.1c-0.18,0-0.34-0.03-0.5-0.1c-0.15-0.07-0.29-0.16-0.41-0.27s-0.21-0.25-0.28-0.4
				c-0.07-0.15-0.1-0.31-0.1-0.49c0-0.18,0.03-0.34,0.1-0.5c0.07-0.15,0.16-0.29,0.28-0.41c0.12-0.12,0.26-0.21,0.41-0.27
				c0.15-0.07,0.32-0.1,0.5-0.1c0.18,0,0.35,0.03,0.51,0.1s0.3,0.16,0.42,0.27c0.12,0.12,0.22,0.25,0.29,0.41
				C140.94,281.41,140.97,281.58,140.97,281.75z M140.75,283.74V291h-2.17v-7.26H140.75z"/>
			<path class="st1" d="M144.05,287.76c0.07,0.61,0.25,1.05,0.55,1.32c0.3,0.27,0.68,0.41,1.15,0.41c0.25,0,0.47-0.03,0.65-0.09
				c0.18-0.06,0.34-0.13,0.49-0.2c0.14-0.08,0.27-0.14,0.39-0.2s0.24-0.09,0.37-0.09c0.17,0,0.3,0.06,0.39,0.19l0.63,0.78
				c-0.22,0.26-0.47,0.46-0.72,0.63s-0.53,0.29-0.8,0.38c-0.27,0.09-0.55,0.15-0.82,0.19s-0.53,0.05-0.78,0.05
				c-0.51,0-0.99-0.08-1.43-0.25c-0.45-0.17-0.84-0.41-1.17-0.74c-0.33-0.33-0.6-0.73-0.79-1.22s-0.29-1.05-0.29-1.69
				c0-0.49,0.08-0.95,0.25-1.38c0.17-0.43,0.4-0.81,0.71-1.14c0.31-0.33,0.69-0.59,1.13-0.78s0.94-0.29,1.49-0.29
				c0.48,0,0.92,0.08,1.32,0.22c0.4,0.15,0.74,0.37,1.03,0.65c0.29,0.29,0.51,0.63,0.67,1.05c0.16,0.41,0.24,0.88,0.24,1.4
				c0,0.16-0.01,0.3-0.02,0.4c-0.01,0.1-0.04,0.18-0.08,0.25c-0.04,0.06-0.09,0.1-0.15,0.13c-0.06,0.02-0.14,0.04-0.24,0.04H144.05z
				 M146.78,286.5c0-0.17-0.02-0.34-0.07-0.5c-0.04-0.16-0.12-0.31-0.22-0.44c-0.1-0.13-0.23-0.23-0.4-0.31
				c-0.16-0.08-0.36-0.12-0.6-0.12c-0.41,0-0.73,0.12-0.97,0.35s-0.39,0.58-0.46,1.02H146.78z"/>
			<path class="st1" d="M151.81,284.53c0.14-0.13,0.28-0.25,0.43-0.36s0.31-0.21,0.48-0.28c0.17-0.08,0.35-0.14,0.55-0.18
				c0.2-0.04,0.41-0.07,0.65-0.07c0.4,0,0.75,0.07,1.05,0.21s0.56,0.33,0.77,0.57s0.37,0.54,0.48,0.88c0.11,0.34,0.16,0.71,0.16,1.1
				V291h-2.17v-4.61c0-0.35-0.08-0.63-0.24-0.83c-0.16-0.2-0.4-0.3-0.72-0.3c-0.24,0-0.46,0.05-0.67,0.15
				c-0.21,0.1-0.41,0.24-0.61,0.41V291h-2.17v-7.26h1.34c0.27,0,0.45,0.12,0.53,0.36L151.81,284.53z"/>
			<path class="st1" d="M163.13,285.46c-0.07,0.08-0.13,0.14-0.19,0.19c-0.06,0.05-0.15,0.07-0.26,0.07c-0.11,0-0.2-0.03-0.29-0.08
				c-0.09-0.05-0.18-0.11-0.29-0.17c-0.11-0.06-0.23-0.12-0.38-0.17c-0.14-0.05-0.32-0.08-0.54-0.08c-0.27,0-0.5,0.05-0.69,0.15
				s-0.35,0.24-0.48,0.42s-0.22,0.41-0.28,0.67s-0.09,0.56-0.09,0.89c0,0.7,0.13,1.23,0.4,1.6s0.64,0.56,1.11,0.56
				c0.25,0,0.45-0.03,0.6-0.09c0.15-0.06,0.27-0.13,0.38-0.21c0.1-0.08,0.2-0.15,0.28-0.21c0.09-0.07,0.19-0.1,0.33-0.1
				c0.17,0,0.3,0.06,0.39,0.19l0.63,0.78c-0.22,0.26-0.46,0.46-0.71,0.63c-0.25,0.16-0.5,0.29-0.76,0.38
				c-0.26,0.09-0.52,0.15-0.78,0.19c-0.26,0.04-0.52,0.05-0.76,0.05c-0.44,0-0.87-0.08-1.27-0.25c-0.4-0.17-0.76-0.41-1.06-0.73
				c-0.31-0.32-0.55-0.71-0.73-1.18c-0.18-0.47-0.27-1-0.27-1.6c0-0.52,0.08-1.01,0.23-1.47s0.39-0.85,0.69-1.18
				c0.31-0.33,0.68-0.6,1.13-0.79c0.45-0.19,0.97-0.29,1.56-0.29c0.57,0,1.07,0.09,1.5,0.27c0.43,0.18,0.82,0.45,1.16,0.8
				L163.13,285.46z"/>
			<path class="st1" d="M166.26,287.76c0.07,0.61,0.25,1.05,0.55,1.32c0.3,0.27,0.68,0.41,1.15,0.41c0.25,0,0.47-0.03,0.65-0.09
				c0.18-0.06,0.34-0.13,0.49-0.2c0.14-0.08,0.27-0.14,0.39-0.2s0.24-0.09,0.37-0.09c0.17,0,0.3,0.06,0.39,0.19l0.63,0.78
				c-0.22,0.26-0.47,0.46-0.72,0.63s-0.53,0.29-0.8,0.38c-0.27,0.09-0.55,0.15-0.82,0.19s-0.53,0.05-0.78,0.05
				c-0.51,0-0.99-0.08-1.43-0.25c-0.45-0.17-0.84-0.41-1.17-0.74c-0.33-0.33-0.6-0.73-0.79-1.22s-0.29-1.05-0.29-1.69
				c0-0.49,0.08-0.95,0.25-1.38c0.17-0.43,0.4-0.81,0.71-1.14c0.31-0.33,0.69-0.59,1.13-0.78s0.94-0.29,1.49-0.29
				c0.48,0,0.92,0.08,1.32,0.22c0.4,0.15,0.74,0.37,1.03,0.65c0.29,0.29,0.51,0.63,0.67,1.05c0.16,0.41,0.24,0.88,0.24,1.4
				c0,0.16-0.01,0.3-0.02,0.4c-0.01,0.1-0.04,0.18-0.08,0.25c-0.04,0.06-0.09,0.1-0.15,0.13c-0.06,0.02-0.14,0.04-0.24,0.04H166.26z
				 M168.99,286.5c0-0.17-0.02-0.34-0.07-0.5c-0.04-0.16-0.12-0.31-0.22-0.44c-0.1-0.13-0.23-0.23-0.4-0.31
				c-0.16-0.08-0.36-0.12-0.6-0.12c-0.41,0-0.73,0.12-0.97,0.35s-0.39,0.58-0.46,1.02H168.99z"/>
			<path class="st1" d="M171.73,289.9c0-0.17,0.03-0.32,0.09-0.47c0.06-0.14,0.15-0.27,0.26-0.38c0.11-0.11,0.24-0.19,0.39-0.25
				c0.15-0.06,0.31-0.09,0.49-0.09c0.17,0,0.33,0.03,0.48,0.09c0.15,0.06,0.28,0.15,0.39,0.25s0.2,0.23,0.26,0.38
				c0.06,0.15,0.09,0.3,0.09,0.47s-0.03,0.33-0.09,0.47c-0.06,0.15-0.15,0.27-0.26,0.38s-0.24,0.19-0.39,0.25s-0.31,0.09-0.48,0.09
				c-0.18,0-0.34-0.03-0.49-0.09s-0.28-0.14-0.39-0.25c-0.11-0.11-0.2-0.23-0.26-0.38C171.76,290.23,171.73,290.07,171.73,289.9z"/>
			<path class="st1" d="M175.07,289.9c0-0.17,0.03-0.32,0.09-0.47c0.06-0.14,0.15-0.27,0.26-0.38c0.11-0.11,0.24-0.19,0.39-0.25
				c0.15-0.06,0.31-0.09,0.49-0.09c0.17,0,0.33,0.03,0.48,0.09c0.15,0.06,0.28,0.15,0.39,0.25s0.2,0.23,0.26,0.38
				c0.06,0.15,0.09,0.3,0.09,0.47s-0.03,0.33-0.09,0.47c-0.06,0.15-0.15,0.27-0.26,0.38s-0.24,0.19-0.39,0.25s-0.31,0.09-0.48,0.09
				c-0.18,0-0.34-0.03-0.49-0.09s-0.28-0.14-0.39-0.25c-0.11-0.11-0.2-0.23-0.26-0.38C175.11,290.23,175.07,290.07,175.07,289.9z"/>
			<path class="st1" d="M178.42,289.9c0-0.17,0.03-0.32,0.09-0.47c0.06-0.14,0.15-0.27,0.26-0.38c0.11-0.11,0.24-0.19,0.39-0.25
				c0.15-0.06,0.31-0.09,0.49-0.09c0.17,0,0.33,0.03,0.48,0.09c0.15,0.06,0.28,0.15,0.39,0.25s0.2,0.23,0.26,0.38
				c0.06,0.15,0.09,0.3,0.09,0.47s-0.03,0.33-0.09,0.47c-0.06,0.15-0.15,0.27-0.26,0.38s-0.24,0.19-0.39,0.25s-0.31,0.09-0.48,0.09
				c-0.18,0-0.34-0.03-0.49-0.09s-0.28-0.14-0.39-0.25c-0.11-0.11-0.2-0.23-0.26-0.38C178.45,290.23,178.42,290.07,178.42,289.9z"/>
			<path class="st1" d="M181.93,280.13c0.25,0.4,0.42,0.81,0.51,1.24s0.09,0.84,0.02,1.26c-0.08,0.41-0.23,0.81-0.47,1.19
				c-0.24,0.38-0.56,0.72-0.95,1.03l-0.69-0.41c-0.06-0.03-0.1-0.07-0.13-0.12s-0.03-0.1-0.03-0.15c0-0.05,0.01-0.09,0.03-0.14
				c0.02-0.04,0.05-0.08,0.08-0.12c0.05-0.06,0.11-0.13,0.17-0.23c0.06-0.1,0.12-0.21,0.17-0.34c0.05-0.13,0.09-0.27,0.12-0.43
				s0.04-0.32,0.03-0.5c-0.01-0.17-0.04-0.36-0.1-0.55c-0.06-0.19-0.15-0.38-0.27-0.58c-0.1-0.16-0.13-0.3-0.08-0.42
				c0.05-0.12,0.14-0.2,0.28-0.25L181.93,280.13z M184.44,280.13c0.25,0.4,0.42,0.81,0.51,1.24s0.09,0.84,0.02,1.26
				c-0.08,0.41-0.23,0.81-0.47,1.19c-0.24,0.38-0.55,0.72-0.95,1.03l-0.69-0.41c-0.06-0.03-0.1-0.07-0.13-0.12s-0.03-0.1-0.03-0.15
				c0-0.05,0.01-0.09,0.03-0.14c0.02-0.04,0.05-0.08,0.08-0.12c0.05-0.06,0.11-0.13,0.17-0.23c0.06-0.1,0.12-0.21,0.17-0.34
				s0.09-0.27,0.12-0.43s0.04-0.32,0.03-0.5c-0.01-0.17-0.04-0.36-0.1-0.55c-0.06-0.19-0.15-0.38-0.27-0.58
				c-0.1-0.16-0.13-0.3-0.08-0.42c0.05-0.12,0.14-0.2,0.28-0.25L184.44,280.13z"/>
		</g>
		<g>
			<path class="st2" d="M150.51,301.6h3.24v1.5h-3.24V301.6z"/>
			<path class="st2" d="M165.43,306h-1.57c-0.18,0-0.32-0.04-0.43-0.12c-0.11-0.08-0.19-0.19-0.25-0.32l-0.52-1.52h-3.32l-0.52,1.52
				c-0.04,0.11-0.12,0.21-0.24,0.3c-0.11,0.09-0.25,0.13-0.42,0.13h-1.58l3.38-8.74h2.08L165.43,306z M162.21,302.66l-0.81-2.39
				c-0.06-0.15-0.12-0.33-0.19-0.54c-0.07-0.21-0.14-0.43-0.2-0.67c-0.06,0.24-0.12,0.47-0.19,0.68c-0.07,0.21-0.13,0.39-0.19,0.54
				l-0.8,2.38H162.21z"/>
			<path class="st2" d="M167.62,300.45c0.12-0.11,0.24-0.22,0.37-0.31c0.13-0.1,0.27-0.18,0.41-0.24c0.15-0.07,0.3-0.12,0.47-0.16
				c0.17-0.04,0.36-0.06,0.56-0.06c0.34,0,0.64,0.06,0.9,0.18c0.26,0.12,0.48,0.28,0.66,0.49c0.18,0.21,0.32,0.46,0.41,0.75
				s0.14,0.61,0.14,0.95V306h-1.86v-3.95c0-0.3-0.07-0.54-0.21-0.71c-0.14-0.17-0.35-0.25-0.62-0.25c-0.2,0-0.4,0.04-0.57,0.13
				s-0.35,0.2-0.52,0.35V306h-1.86v-6.22h1.15c0.23,0,0.38,0.1,0.46,0.31L167.62,300.45z"/>
			<path class="st2" d="M174.46,300.45c0.12-0.11,0.24-0.22,0.37-0.31c0.13-0.1,0.27-0.18,0.41-0.24c0.15-0.07,0.3-0.12,0.47-0.16
				c0.17-0.04,0.36-0.06,0.56-0.06c0.34,0,0.64,0.06,0.9,0.18c0.26,0.12,0.48,0.28,0.66,0.49c0.18,0.21,0.32,0.46,0.41,0.75
				s0.14,0.61,0.14,0.95V306h-1.86v-3.95c0-0.3-0.07-0.54-0.21-0.71c-0.14-0.17-0.35-0.25-0.62-0.25c-0.2,0-0.4,0.04-0.57,0.13
				s-0.35,0.2-0.52,0.35V306h-1.86v-6.22h1.15c0.23,0,0.38,0.1,0.46,0.31L174.46,300.45z"/>
			<path class="st2" d="M181.11,303.22c0.06,0.52,0.22,0.9,0.47,1.13c0.26,0.23,0.59,0.35,0.99,0.35c0.22,0,0.4-0.03,0.56-0.08
				c0.16-0.05,0.29-0.11,0.42-0.17c0.12-0.06,0.23-0.12,0.34-0.17c0.1-0.05,0.21-0.08,0.32-0.08c0.15,0,0.26,0.05,0.34,0.16
				l0.54,0.67c-0.19,0.22-0.4,0.4-0.62,0.54c-0.22,0.14-0.45,0.25-0.68,0.32c-0.23,0.08-0.47,0.13-0.7,0.16
				c-0.23,0.03-0.46,0.04-0.67,0.04c-0.44,0-0.84-0.07-1.23-0.21c-0.38-0.14-0.72-0.35-1-0.63c-0.29-0.28-0.51-0.63-0.68-1.04
				s-0.25-0.9-0.25-1.45c0-0.42,0.07-0.81,0.21-1.18c0.14-0.37,0.35-0.7,0.61-0.98c0.27-0.28,0.59-0.5,0.97-0.67s0.8-0.25,1.28-0.25
				c0.41,0,0.79,0.06,1.13,0.19s0.64,0.31,0.88,0.56c0.25,0.24,0.44,0.54,0.58,0.9c0.14,0.35,0.21,0.75,0.21,1.2
				c0,0.14-0.01,0.25-0.02,0.34c-0.01,0.09-0.03,0.16-0.07,0.21s-0.08,0.09-0.13,0.11c-0.05,0.02-0.12,0.03-0.21,0.03H181.11z
				 M183.45,302.14c0-0.15-0.02-0.29-0.06-0.43s-0.1-0.26-0.19-0.38s-0.2-0.2-0.34-0.27c-0.14-0.07-0.31-0.1-0.51-0.1
				c-0.35,0-0.63,0.1-0.83,0.3c-0.2,0.2-0.33,0.49-0.4,0.87H183.45z"/>
		</g>
	</g>
</g>
<g>
	<g>
		<g>
			<path class="st13" d="M85.95,143.37c-1.66,0-3-1.34-3-3v-28c0-1.66,1.34-3,3-3h10c1.66,0,3,1.34,3,3v28c0,1.66-1.34,3-3,3H85.95z
				"/>
		</g>
		<g>
			<g>
				<path class="st1" d="M95.95,112.37v28h-10v-28H95.95 M95.95,106.37h-10c-3.31,0-6,2.69-6,6v28c0,3.31,2.69,6,6,6h10
					c3.31,0,6-2.69,6-6v-28C101.95,109.05,99.26,106.37,95.95,106.37L95.95,106.37z"/>
			</g>
		</g>
	</g>
	<g>
		<rect x="85.95" y="108.37" class="st14" width="10" height="10"/>
	</g>
	<g>
		<g>
			<path class="st15" d="M55.95,179.37c-1.66,0-3-1.34-3-3v-40c0-1.66,1.34-3,3-3h70c1.66,0,3,1.34,3,3v40c0,1.66-1.34,3-3,3H55.95z
				"/>
		</g>
		<g>
			<g>
				<path class="st1" d="M125.95,136.37v40h-70v-40H125.95 M125.95,130.37h-70c-3.31,0-6,2.69-6,6v40c0,3.31,2.69,6,6,6h70
					c3.31,0,6-2.69,6-6v-40C131.95,133.05,129.26,130.37,125.95,130.37L125.95,130.37z"/>
			</g>
		</g>
	</g>
	<g>
		<g>
			<path class="st13" d="M64.95,169.37c-1.1,0-2-0.9-2-2v-22c0-1.1,0.9-2,2-2h52c1.1,0,2,0.9,2,2v22c0,1.1-0.9,2-2,2H64.95z"/>
		</g>
		<g>
			<g>
				<path class="st1" d="M116.95,145.37v22h-52v-22H116.95 M116.95,141.37h-52c-2.21,0-4,1.79-4,4v22c0,2.21,1.79,4,4,4h52
					c2.21,0,4-1.79,4-4v-22C120.95,143.16,119.16,141.37,116.95,141.37L116.95,141.37z"/>
			</g>
		</g>
	</g>
	<g>
		<g>
			<path class="st13" d="M30.95,80.37c-12.68,0-23-10.32-23-23v-25c0-1.66,1.34-3,3-3h30c1.66,0,3,1.34,3,3v6c0,1.66-1.34,3-3,3h-21
				v15c0,6.62,5.38,12,12,12h9c1.66,0,3,1.34,3,3v6c0,1.66-1.34,3-3,3H30.95z"/>
		</g>
		<g>
			<path class="st1" d="M40.95,32.37v6h-24v18c0,8.28,6.72,15,15,15h9v6h-10c-11.05,0-20-8.95-20-20v-25H40.95 M40.95,26.37h-30
				c-3.31,0-6,2.69-6,6v25c0,14.34,11.66,26,26,26h10c3.31,0,6-2.69,6-6v-6c0-3.31-2.69-6-6-6h-9c-4.96,0-9-4.04-9-9v-12h18
				c3.31,0,6-2.69,6-6v-6C46.95,29.05,44.26,26.37,40.95,26.37L40.95,26.37z"/>
		</g>
	</g>
	<g>
		<g>
			<path class="st13" d="M140.95,80.37c-1.66,0-3-1.34-3-3v-6c0-1.66,1.34-3,3-3h9c6.62,0,12-5.38,12-12l0-15h-21
				c-1.66,0-3-1.34-3-3v-6c0-1.66,1.34-3,3-3h30c0.8,0,1.56,0.32,2.12,0.88c0.56,0.56,0.88,1.33,0.88,2.12l0,25
				c0,12.68-10.32,23-23,23H140.95z"/>
		</g>
		<g>
			<path class="st1" d="M170.95,32.37v25c0,11.05-8.95,20-20,20h-10v-6h9c8.28,0,15-6.72,15-15v-18h-24v-6H170.95 M170.95,26.37h-30
				c-3.31,0-6,2.69-6,6v6c0,3.31,2.69,6,6,6h18v12c0,4.96-4.04,9-9,9h-9c-3.31,0-6,2.69-6,6v6c0,3.31,2.69,6,6,6h10
				c14.34,0,26-11.66,26-26v-25C176.95,29.05,174.26,26.37,170.95,26.37L170.95,26.37z"/>
		</g>
	</g>
	<g>
		<path class="st14" d="M149.95,71.37h-9v6h9.06c0.75-1.98,1.37-4.03,1.84-6.13C151.23,71.31,150.59,71.37,149.95,71.37z"/>
	</g>
	<g>
		<rect x="140.95" y="32.37" class="st14" width="12" height="6"/>
	</g>
	<g>
		<path class="st14" d="M40.95,71.37h-9c-0.65,0-1.28-0.05-1.9-0.13c0.47,2.1,1.09,4.15,1.84,6.13h9.06V71.37z"/>
	</g>
	<g>
		<rect x="28.95" y="32.37" class="st14" width="12" height="6"/>
	</g>
	<g>
		<g>
			<path class="st13" d="M90.95,109.37c-29.22,0-53-23.78-53-53l0-40c0-0.8,0.32-1.56,0.88-2.12c0.56-0.56,1.33-0.88,2.12-0.88h100
				c1.66,0,3,1.34,3,3v40C143.95,85.59,120.17,109.37,90.95,109.37z"/>
		</g>
		<g>
			<path class="st1" d="M140.95,16.37v40c0,27.61-22.39,50-50,50h0c-27.61,0-50-22.39-50-50v-40H140.95 M140.95,10.37h-100
				c-3.31,0-6,2.69-6,6v40c0,30.88,25.12,56,56,56c30.88,0,56-25.12,56-56v-40C146.95,13.05,144.26,10.37,140.95,10.37L140.95,10.37
				z"/>
		</g>
	</g>
	<g>
		<path class="st1" d="M78.06,152.8l-2.25,7.29h-1.53l-1.37-4.52c-0.03-0.07-0.05-0.15-0.08-0.23s-0.05-0.17-0.07-0.27
			c-0.02,0.09-0.05,0.18-0.07,0.27s-0.05,0.16-0.07,0.23l-1.39,4.52H69.7l-2.25-7.29h1.42c0.15,0,0.27,0.03,0.37,0.1
			c0.1,0.07,0.16,0.16,0.19,0.27l1,3.8c0.03,0.12,0.06,0.25,0.09,0.39s0.06,0.29,0.09,0.44c0.06-0.31,0.13-0.59,0.22-0.83l1.18-3.8
			c0.03-0.09,0.09-0.18,0.19-0.25c0.1-0.08,0.22-0.11,0.36-0.11h0.5c0.15,0,0.26,0.03,0.36,0.1c0.09,0.07,0.16,0.16,0.21,0.26
			l1.17,3.8c0.09,0.23,0.16,0.5,0.22,0.79c0.03-0.15,0.05-0.29,0.08-0.42c0.03-0.13,0.06-0.26,0.09-0.37l1-3.8
			c0.03-0.1,0.09-0.18,0.19-0.25c0.1-0.07,0.22-0.11,0.36-0.11H78.06z"/>
		<path class="st1" d="M80.48,160.08h-1.7v-7.29h1.7V160.08z"/>
		<path class="st1" d="M88.25,152.8v7.29h-0.88c-0.13,0-0.24-0.02-0.33-0.06s-0.18-0.11-0.26-0.22l-3.43-4.35
			c0.01,0.13,0.02,0.26,0.03,0.38s0.01,0.24,0.01,0.34v3.9h-1.49v-7.29h0.89c0.07,0,0.14,0,0.19,0.01s0.09,0.02,0.13,0.04
			c0.04,0.02,0.08,0.04,0.12,0.08c0.04,0.03,0.08,0.08,0.12,0.14l3.46,4.38c-0.02-0.14-0.03-0.28-0.04-0.41
			c-0.01-0.13-0.01-0.26-0.01-0.37v-3.85H88.25z"/>
		<path class="st1" d="M97.03,154.76l-0.12,0.63c-0.03,0.16-0.1,0.27-0.2,0.34c-0.1,0.07-0.26,0.11-0.48,0.11h-0.31l-0.21,1.18h0.54
			c0.16,0,0.27,0.05,0.33,0.14c0.07,0.09,0.08,0.25,0.04,0.47l-0.08,0.48h-0.99l-0.35,1.98h-0.72c-0.07,0-0.14-0.02-0.2-0.05
			c-0.06-0.03-0.11-0.08-0.16-0.14c-0.04-0.06-0.07-0.12-0.09-0.19s-0.02-0.15,0-0.24l0.24-1.36h-0.83l-0.25,1.44
			c-0.02,0.1-0.05,0.18-0.09,0.25s-0.1,0.12-0.16,0.17s-0.13,0.08-0.21,0.1c-0.07,0.02-0.15,0.03-0.23,0.03h-0.69l0.35-1.98h-0.44
			c-0.16,0-0.27-0.05-0.33-0.14c-0.07-0.09-0.08-0.25-0.04-0.47l0.08-0.48h0.89l0.21-1.18h-1l0.12-0.63c0.03-0.15,0.1-0.27,0.2-0.34
			s0.26-0.11,0.48-0.11h0.34l0.26-1.47c0.03-0.16,0.11-0.28,0.23-0.37c0.12-0.09,0.26-0.13,0.42-0.13h0.71l-0.35,1.97h0.83
			l0.35-1.97h0.69c0.08,0,0.15,0.01,0.22,0.04c0.07,0.03,0.12,0.06,0.17,0.11c0.04,0.05,0.08,0.1,0.1,0.16
			c0.02,0.06,0.02,0.13,0.01,0.2l-0.26,1.46H97.03z M94.65,155.84h-0.83l-0.21,1.18h0.83L94.65,155.84z"/>
		<path class="st1" d="M100.17,157.32c0.05-0.06,0.09-0.11,0.13-0.17c0.04-0.05,0.08-0.11,0.12-0.16c-0.31,0.16-0.66,0.25-1.04,0.25
			c-0.24,0-0.47-0.04-0.71-0.13c-0.24-0.09-0.45-0.21-0.64-0.39c-0.19-0.17-0.35-0.39-0.47-0.65c-0.12-0.26-0.18-0.58-0.18-0.94
			c0-0.33,0.06-0.64,0.18-0.94c0.12-0.29,0.3-0.55,0.52-0.77c0.22-0.22,0.49-0.39,0.81-0.52s0.66-0.19,1.05-0.19
			c0.39,0,0.75,0.06,1.05,0.18c0.31,0.12,0.57,0.29,0.79,0.5c0.21,0.22,0.38,0.47,0.5,0.77c0.11,0.3,0.17,0.63,0.17,0.99
			c0,0.48-0.07,0.9-0.21,1.28c-0.14,0.38-0.33,0.73-0.58,1.06l-1.57,2.23c-0.07,0.1-0.18,0.18-0.32,0.25
			c-0.14,0.07-0.3,0.1-0.48,0.1h-1.43L100.17,157.32z M98.93,155.02c0,0.73,0.34,1.09,1.01,1.09c0.33,0,0.58-0.1,0.76-0.3
			c0.18-0.2,0.27-0.46,0.27-0.79c0-0.18-0.03-0.33-0.08-0.47c-0.05-0.14-0.12-0.25-0.21-0.34c-0.09-0.09-0.2-0.16-0.33-0.2
			c-0.13-0.05-0.27-0.07-0.42-0.07c-0.16,0-0.3,0.03-0.42,0.08c-0.12,0.06-0.22,0.13-0.31,0.23s-0.15,0.21-0.2,0.34
			C98.96,154.73,98.93,154.87,98.93,155.02z"/>
		<path class="st1" d="M103.31,154.88c0.05-0.36,0.16-0.68,0.31-0.95c0.15-0.27,0.34-0.5,0.57-0.68c0.22-0.18,0.48-0.31,0.77-0.4
			s0.6-0.13,0.93-0.13c0.36,0,0.68,0.05,0.96,0.15c0.28,0.1,0.52,0.24,0.71,0.41c0.19,0.17,0.34,0.37,0.44,0.6
			c0.1,0.23,0.15,0.47,0.15,0.72c0,0.23-0.02,0.43-0.07,0.61c-0.05,0.18-0.12,0.33-0.21,0.46c-0.09,0.13-0.21,0.24-0.34,0.33
			c-0.13,0.09-0.29,0.16-0.46,0.22c0.81,0.28,1.21,0.83,1.21,1.65c0,0.39-0.07,0.72-0.21,1.01c-0.14,0.29-0.33,0.52-0.56,0.71
			c-0.24,0.19-0.51,0.33-0.82,0.43c-0.31,0.1-0.63,0.14-0.97,0.14c-0.35,0-0.65-0.04-0.92-0.11c-0.27-0.07-0.51-0.19-0.72-0.35
			c-0.21-0.16-0.39-0.36-0.55-0.61c-0.16-0.25-0.3-0.54-0.41-0.88l0.69-0.28c0.18-0.07,0.35-0.09,0.5-0.06s0.26,0.11,0.33,0.23
			c0.15,0.28,0.31,0.48,0.48,0.6c0.17,0.12,0.37,0.19,0.59,0.19c0.17,0,0.32-0.03,0.45-0.09c0.13-0.06,0.24-0.13,0.32-0.23
			s0.15-0.2,0.19-0.31s0.07-0.23,0.07-0.35c0-0.16-0.01-0.3-0.03-0.42c-0.02-0.12-0.08-0.23-0.18-0.32
			c-0.1-0.09-0.25-0.16-0.45-0.21c-0.2-0.05-0.48-0.07-0.84-0.07v-1.07c0.3,0,0.55-0.02,0.74-0.07c0.19-0.05,0.33-0.11,0.43-0.19
			s0.17-0.18,0.2-0.3s0.05-0.25,0.05-0.39c0-0.29-0.07-0.51-0.21-0.66c-0.14-0.15-0.35-0.23-0.63-0.23c-0.23,0-0.42,0.06-0.58,0.18
			s-0.27,0.27-0.33,0.45c-0.07,0.18-0.16,0.3-0.27,0.36s-0.28,0.07-0.49,0.04L103.31,154.88z"/>
		<path class="st1" d="M114.18,152.8v0.65c0,0.19-0.02,0.35-0.06,0.47c-0.04,0.12-0.08,0.22-0.12,0.3l-2.53,5.36
			c-0.07,0.14-0.17,0.26-0.3,0.36c-0.13,0.1-0.3,0.15-0.51,0.15h-1.13l2.6-5.21c0.08-0.14,0.15-0.27,0.23-0.38
			c0.08-0.11,0.17-0.22,0.26-0.33h-3.21c-0.05,0-0.09-0.01-0.13-0.03c-0.04-0.02-0.08-0.04-0.11-0.07
			c-0.03-0.03-0.06-0.07-0.08-0.11c-0.02-0.04-0.03-0.08-0.03-0.13v-1.02H114.18z"/>
	</g>
	<g>
		<path class="st14" d="M90.95,101.37c-27.61,0-50-22.39-50-50v5c0,27.61,22.39,50,50,50s50-22.39,50-50v-5
			C140.95,78.98,118.56,101.37,90.95,101.37z"/>
	</g>
	<g>
		<rect x="40.95" y="16.37" class="st16" width="100" height="4"/>
	</g>
	<g>
		<g>
			<g>
				<path class="st1" d="M100.06,36.83c3.68-3.2,9.6-3.78,13.59-0.77c1.81,1.35,4.82,4.88,1.93,6.45c-0.74,0.34-1.5,0.14-2.13-0.25
					c-1.05-0.55-1.86-1.12-2.73-1.43c-2.91-1.36-6.23-0.67-9.32-0.51C99.57,40.38,98.68,37.98,100.06,36.83L100.06,36.83z"/>
			</g>
			<g>
				<path class="st1" d="M79.88,40.32c-1.94-0.19-4.24-0.52-6.14-0.2c-2.14,0.25-3.69,1.26-5.66,2.33c-1,0.52-2.23,0.14-2.75-0.86
					c-0.3-0.57-0.3-1.22-0.06-1.77c1.83-4.71,7.87-6.81,12.48-5.23c1.95,0.66,6.22,2.41,4.28,5.04
					C81.48,40.3,80.65,40.37,79.88,40.32L79.88,40.32z"/>
			</g>
			<g>
				<path class="st1" d="M80.97,58.87c-1.38,0-2.5-1.12-2.5-2.5c0-1.38-1.12-2.5-2.5-2.5s-2.5,1.12-2.5,2.5c0,1.38-1.12,2.5-2.5,2.5
					s-2.5-1.12-2.5-2.5c0-4.14,3.36-7.5,7.5-7.5s7.5,3.36,7.5,7.5C83.47,57.75,82.35,58.87,80.97,58.87z"/>
			</g>
			<g>
				<path class="st1" d="M110.92,58.87c-1.38,0-2.5-1.12-2.5-2.5c0-1.38-1.12-2.5-2.5-2.5s-2.5,1.12-2.5,2.5
					c0,1.38-1.12,2.5-2.5,2.5s-2.5-1.12-2.5-2.5c0-4.14,3.36-7.5,7.5-7.5s7.5,3.36,7.5,7.5C113.42,57.75,112.31,58.87,110.92,58.87z
					"/>
			</g>
		</g>
		<g>
			<path class="st1" d="M104.95,64.37L104.95,64.37H76.95c-2.21,0-4,1.79-4,4c0,9.93,8.07,18,18,18c9.87,0,17.91-7.99,18-17.84
				c0-0.05,0-0.11,0-0.16C108.95,66.16,107.16,64.37,104.95,64.37z"/>
			<g>
				<g>
					<ellipse class="st6" cx="90.95" cy="77.7" rx="10.41" ry="4.67"/>
				</g>
			</g>
		</g>
	</g>
</g>
<g>
	<g>
		<g>
			<path class="st6" d="M217.97,141.37c-0.41,0-0.82-0.08-1.2-0.25c-0.63-0.27-15.52-6.83-30.64-18.52
				c-20.39-15.77-31.16-33.37-31.16-50.89c0-20.03,16.3-36.33,36.33-36.33c10.27,0,19.8,4.22,26.67,11.7
				c6.87-7.48,16.4-11.7,26.67-11.7c20.03,0,36.33,16.3,36.33,36.33c0,17.52-10.78,35.12-31.16,50.89
				c-15.12,11.7-30.01,18.25-30.64,18.52C218.79,141.28,218.38,141.37,217.97,141.37z"/>
		</g>
		<g>
			<path class="st1" d="M244.64,38.37c18.41,0,33.33,14.92,33.33,33.33c0,40.5-60,66.67-60,66.67s-60-26.17-60-66.67
				c0-18.41,14.92-33.33,33.33-33.33c10.92,0,20.59,5.28,26.67,13.39C224.05,43.64,233.72,38.37,244.64,38.37 M244.64,32.37
				c-10.06,0-19.46,3.74-26.67,10.45c-7.21-6.71-16.61-10.45-26.67-10.45c-21.69,0-39.33,17.64-39.33,39.33
				c0,43.92,61,71.03,63.6,72.17c0.76,0.33,1.58,0.5,2.4,0.5s1.63-0.17,2.4-0.5c2.6-1.13,63.6-28.24,63.6-72.17
				C283.97,50.01,266.33,32.37,244.64,32.37L244.64,32.37z"/>
		</g>
	</g>
	<g>
		<g>
			<path class="st17" d="M165.97,76.7c0-18.41,14.92-33.33,33.33-33.33c4.77,0,9.3,1.01,13.4,2.82c-5.78-4.87-13.24-7.82-21.4-7.82
				c-18.41,0-33.33,14.92-33.33,33.33c0,28.02,28.72,49.18,46.42,59.56C187.19,119.8,165.97,100.78,165.97,76.7z"/>
		</g>
	</g>
	<g>
		<g>
			<path class="st1" d="M231.79,91.77L231.79,91.77h-28.01c-2.21,0-4,1.79-4,4c0,9.93,8.07,18,18,18c9.87,0,17.91-7.99,18-17.84
				c0-0.05,0-0.11,0-0.16C235.78,93.56,234,91.77,231.79,91.77z"/>
			<g>
				<g>
					<ellipse class="st6" cx="217.78" cy="105.11" rx="10.41" ry="4.67"/>
				</g>
			</g>
		</g>
		<g>
			<g>
				<g>
					<path class="st1" d="M225.99,66.8c3.19-2.67,8.07-3.16,11.63-0.84c1.85,1.15,4.47,4.36,1.78,5.89
						c-0.68,0.34-1.38,0.17-2.03-0.08c-2.39-0.99-4.33-1.45-6.9-1.39c-1.13-0.02-2.38,0.14-3.48-0.09
						C225.32,70.1,224.7,67.82,225.99,66.8L225.99,66.8z"/>
				</g>
				<g>
					<path class="st1" d="M207.81,70.39c-2.41,0.03-4.98-0.2-7.28,0.54c-0.82,0.19-1.84,0.7-2.84,1c-1.65,0.62-3.29-1.26-2.5-2.81
						c1.73-3.99,6.96-5.48,10.88-4.21c1.87,0.58,5.51,2.24,3.74,4.67C209.33,70.22,208.52,70.31,207.81,70.39L207.81,70.39z"/>
				</g>
				<g>
					<path class="st1" d="M209.8,86.27c-1.38,0-2.5-1.12-2.5-2.5c0-1.38-1.12-2.5-2.5-2.5s-2.5,1.12-2.5,2.5
						c0,1.38-1.12,2.5-2.5,2.5s-2.5-1.12-2.5-2.5c0-4.14,3.36-7.5,7.5-7.5s7.5,3.36,7.5,7.5C212.3,85.15,211.19,86.27,209.8,86.27z"
						/>
				</g>
				<g>
					<path class="st1" d="M235.76,86.27c-1.38,0-2.5-1.12-2.5-2.5c0-1.38-1.12-2.5-2.5-2.5s-2.5,1.12-2.5,2.5
						c0,1.38-1.12,2.5-2.5,2.5s-2.5-1.12-2.5-2.5c0-4.14,3.36-7.5,7.5-7.5s7.5,3.36,7.5,7.5C238.26,85.15,237.14,86.27,235.76,86.27
						z"/>
				</g>
			</g>
		</g>
	</g>
</g>
<g>
	<rect y="0.62" class="st18" width="400" height="400"/>
</g>
<g>
	<g>
		<path class="st13" d="M163.75,172.57c2.98,0,5.4-2.42,5.4-5.4c0-0.99,0.81-1.8,1.8-1.8s1.8,0.81,1.8,1.8c0,2.98,2.42,5.4,5.4,5.4
			c0.99,0,1.8,0.81,1.8,1.8s-0.81,1.8-1.8,1.8c-2.98,0-5.4,2.42-5.4,5.4c0,0.99-0.81,1.8-1.8,1.8s-1.8-0.81-1.8-1.8
			c0-2.98-2.42-5.4-5.4-5.4c-0.99,0-1.8-0.81-1.8-1.8S162.76,172.57,163.75,172.57z"/>
	</g>
</g>
<g>
	<g>
		<path class="st13" d="M336.43,370.97c2.98,0,5.4-2.42,5.4-5.4c0-0.99,0.81-1.8,1.8-1.8s1.8,0.81,1.8,1.8c0,2.98,2.42,5.4,5.4,5.4
			c0.99,0,1.8,0.81,1.8,1.8s-0.81,1.8-1.8,1.8c-2.98,0-5.4,2.42-5.4,5.4c0,0.99-0.81,1.8-1.8,1.8s-1.8-0.81-1.8-1.8
			c0-2.98-2.42-5.4-5.4-5.4c-0.99,0-1.8-0.81-1.8-1.8S335.44,370.97,336.43,370.97z"/>
	</g>
</g>
<g>
	<circle class="st13" cx="383.13" cy="25.62" r="4.5"/>
</g>
<g>
	<circle class="st13" cx="127.45" cy="345.33" r="4.5"/>
</g>
<g>
	<circle class="st13" cx="224.95" cy="203.95" r="4.5"/>
</g>
<g>
	<circle class="st13" cx="16.95" cy="176.37" r="4.5"/>
</g>
<path class="st13" d="M347.63,32.37h-6v-6c0-1.66-1.34-3-3-3s-3,1.34-3,3v6h-6c-1.66,0-3,1.34-3,3s1.34,3,3,3h6v6c0,1.66,1.34,3,3,3
	s3-1.34,3-3v-6h6c1.66,0,3-1.34,3-3S349.29,32.37,347.63,32.37z"/>
<path class="st13" d="M56.95,366.98h-6v-6c0-1.66-1.34-3-3-3s-3,1.34-3,3v6h-6c-1.66,0-3,1.34-3,3s1.34,3,3,3h6v6c0,1.66,1.34,3,3,3
	s3-1.34,3-3v-6h6c1.66,0,3-1.34,3-3S58.6,366.98,56.95,366.98z"/>
<g>
	<g>
		<circle class="st13" cx="158.95" cy="138.37" r="3"/>
	</g>
</g>
<g>
	<g>
		<circle class="st13" cx="28.95" cy="126.87" r="3"/>
	</g>
</g>
<g>
	<g>
		<circle class="st13" cx="211.54" cy="170.37" r="3"/>
	</g>
</g>
<g>
	<g>
		<circle class="st13" cx="341.63" cy="297.25" r="3"/>
	</g>
</g>
<g>
	<g>
		<circle class="st13" cx="309.13" cy="51.37" r="3"/>
	</g>
</g>
<g>
	<g>
		<circle class="st13" cx="282.13" cy="25.62" r="3"/>
	</g>
</g>
<g>
	<g>
		<circle class="st13" cx="367.21" cy="321.62" r="3"/>
	</g>
</g>
<g>
	<g>
		<circle class="st13" cx="85.95" cy="355.9" r="3"/>
	</g>
</g>
<g>
	<g>
		<circle class="st13" cx="21.45" cy="346.83" r="3"/>
	</g>
</g>
</svg>
