<?xml version="1.0" encoding="utf-8"?>
<!-- Generator: Adobe Illustrator 25.2.3, SVG Export Plug-In . SVG Version: 6.00 Build 0)  -->
<svg version="1.1" id="Layer_1" xmlns="http://www.w3.org/2000/svg" xmlns:xlink="http://www.w3.org/1999/xlink" x="0px" y="0px"
	 viewBox="0 0 400 400" style="enable-background:new 0 0 400 400;" xml:space="preserve">
<style type="text/css">
	.st0{fill:#CCCCCC;}
	.st1{fill:#515979;}
	.st2{fill:#979BAF;}
	.st3{fill:#D8EBFB;}
	.st4{fill:#A0D2FF;}
	.st5{fill:#9E8271;}
	.st6{fill:#FFD886;}
	.st7{fill:#FFFFFF;}
	.st8{fill:#F89D81;}
	.st9{fill:#667683;}
	.st10{fill:#EF7D7D;}
	.st11{fill:#FFE8A0;}
	.st12{fill:#7DDF96;}
	.st13{fill:#FDE1D9;}
	.st14{fill:#3CB48C;}
</style>
<g>
	<g>
		<g>
			<path class="st0" d="M141.32,325.96c-0.8,0-1.56-0.32-2.12-0.88l-19.8-19.8c-0.56-0.56-0.88-1.33-0.88-2.12s0.32-1.56,0.88-2.12
				l5.66-5.66c0.59-0.59,1.35-0.88,2.12-0.88c0.77,0,1.54,0.29,2.12,0.88l19.8,19.8c1.17,1.17,1.17,3.07,0,4.24l-5.66,5.66
				C142.88,325.64,142.12,325.96,141.32,325.96z"/>
		</g>
		<g>
			<path class="st1" d="M127.18,297.5l19.8,19.8l-5.66,5.66l-19.8-19.8L127.18,297.5 M127.18,291.5c-1.54,0-3.07,0.59-4.24,1.76
				l-5.66,5.66c-1.13,1.13-1.76,2.65-1.76,4.24s0.63,3.12,1.76,4.24l19.8,19.8c1.13,1.13,2.65,1.76,4.24,1.76
				c1.59,0,3.12-0.63,4.24-1.76l5.66-5.66c2.34-2.34,2.34-6.14,0-8.49l-19.8-19.8C130.25,292.09,128.71,291.5,127.18,291.5
				L127.18,291.5z"/>
		</g>
	</g>
	<g>
		
			<rect x="129.19" y="305.67" transform="matrix(0.7071 -0.7071 0.7071 0.7071 -179.6072 184.7336)" class="st2" width="8" height="7"/>
	</g>
	<g>
		<g>
			<path class="st0" d="M91.82,320.81c-14.16,0-27.47-5.51-37.48-15.52c-10.01-10.01-15.52-23.32-15.52-37.48
				c0-14.16,5.51-27.47,15.52-37.48c10.01-10.01,23.32-15.52,37.48-15.52s27.47,5.51,37.48,15.52
				c10.01,10.01,15.52,23.32,15.52,37.48c0,14.16-5.51,27.47-15.52,37.48C119.29,315.29,105.98,320.81,91.82,320.81z"/>
		</g>
		<g>
			<path class="st1" d="M91.82,217.81c12.8,0,25.59,4.88,35.36,14.64c19.53,19.53,19.53,51.18,0,70.71
				c-9.76,9.76-22.56,14.64-35.36,14.64s-25.59-4.88-35.36-14.64c-19.53-19.53-19.53-51.18,0-70.71
				C66.23,222.69,79.03,217.81,91.82,217.81 M91.82,211.81c-14.96,0-29.02,5.83-39.6,16.4c-10.58,10.58-16.4,24.64-16.4,39.6
				c0,14.96,5.83,29.02,16.4,39.6c10.58,10.58,24.64,16.4,39.6,16.4c14.96,0,29.02-5.83,39.6-16.4c10.58-10.58,16.4-24.64,16.4-39.6
				c0-14.96-5.83-29.02-16.4-39.6C120.84,217.63,106.78,211.81,91.82,211.81L91.82,211.81z"/>
		</g>
	</g>
	<g>
		<g>
			<path class="st3" d="M91.82,305.81c-10.15,0-19.69-3.95-26.87-11.13c-7.18-7.18-11.13-16.72-11.13-26.87
				c0-10.15,3.95-19.69,11.13-26.87c7.18-7.18,16.72-11.13,26.87-11.13s19.69,3.95,26.87,11.13c7.18,7.18,11.13,16.72,11.13,26.87
				c0,10.15-3.95,19.69-11.13,26.87C111.52,301.85,101.97,305.81,91.82,305.81z"/>
		</g>
		<g>
			<path class="st1" d="M91.82,232.81c8.96,0,17.91,3.42,24.75,10.25c13.67,13.67,13.67,35.83,0,49.5
				c-6.83,6.83-15.79,10.25-24.75,10.25s-17.91-3.42-24.75-10.25c-13.67-13.67-13.67-35.83,0-49.5
				C73.91,236.22,82.87,232.81,91.82,232.81 M91.82,226.81c-10.95,0-21.25,4.26-28.99,12.01c-7.74,7.74-12.01,18.04-12.01,28.99
				s4.26,21.25,12.01,28.99c7.74,7.74,18.04,12.01,28.99,12.01c10.95,0,21.25-4.26,28.99-12.01c7.74-7.74,12.01-18.04,12.01-28.99
				s-4.26-21.25-12.01-28.99S102.78,226.81,91.82,226.81L91.82,226.81z"/>
		</g>
	</g>
	<g>
		<g>
			<path class="st4" d="M70.61,246.59c-13.07,13.07-13.63,33.91-1.7,47.66c-0.63-0.54-1.24-1.1-1.84-1.7
				c-13.67-13.67-13.67-35.83,0-49.5c13.67-13.67,35.83-13.67,49.5,0c0.6,0.6,1.15,1.21,1.7,1.84
				C104.52,232.96,83.68,233.52,70.61,246.59z"/>
		</g>
	</g>
	<g>
		<g>
			<path class="st5" d="M170.31,362.02c-0.77,0-1.54-0.29-2.12-0.88l-32.53-32.53c-0.56-0.56-0.88-1.33-0.88-2.12
				s0.32-1.56,0.88-2.12l12.73-12.73c0.59-0.59,1.35-0.88,2.12-0.88c0.77,0,1.54,0.29,2.12,0.88l32.53,32.53
				c0.56,0.56,0.88,1.33,0.88,2.12s-0.32,1.56-0.88,2.12l-12.73,12.73C171.85,361.73,171.08,362.02,170.31,362.02z"/>
		</g>
		<g>
			<path class="st1" d="M150.51,313.77l32.53,32.53l-12.73,12.73l-32.53-32.53L150.51,313.77 M150.51,307.77
				c-1.54,0-3.07,0.59-4.24,1.76l-12.73,12.73c-1.13,1.13-1.76,2.65-1.76,4.24s0.63,3.12,1.76,4.24l32.53,32.53
				c1.17,1.17,2.71,1.76,4.24,1.76c1.54,0,3.07-0.59,4.24-1.76l12.73-12.73c1.13-1.13,1.76-2.65,1.76-4.24s-0.63-3.12-1.76-4.24
				l-32.53-32.53C153.58,308.35,152.05,307.77,150.51,307.77L150.51,307.77z"/>
		</g>
	</g>
	<g>
		<g>
			<path class="st6" d="M142.03,333.74c-0.77,0-1.54-0.29-2.12-0.88l-4.24-4.24c-0.56-0.56-0.88-1.33-0.88-2.12s0.32-1.56,0.88-2.12
				l12.73-12.73c0.59-0.59,1.35-0.88,2.12-0.88s1.54,0.29,2.12,0.88l4.24,4.24c0.56,0.56,0.88,1.33,0.88,2.12s-0.32,1.56-0.88,2.12
				l-12.73,12.73C143.56,333.45,142.8,333.74,142.03,333.74z"/>
		</g>
		<g>
			<path class="st1" d="M150.51,313.77l4.24,4.24l-12.73,12.73l-4.24-4.24L150.51,313.77 M150.51,307.77
				c-1.54,0-3.07,0.59-4.24,1.76l-12.73,12.73c-1.13,1.13-1.76,2.65-1.76,4.24s0.63,3.12,1.76,4.24l4.24,4.24
				c1.17,1.17,2.71,1.76,4.24,1.76c1.54,0,3.07-0.59,4.24-1.76L159,322.25c1.13-1.13,1.76-2.65,1.76-4.24
				c0-1.59-0.63-3.12-1.76-4.24l-4.24-4.24C153.58,308.35,152.05,307.77,150.51,307.77L150.51,307.77z"/>
		</g>
	</g>
	<g>
		<g>
			<path class="st1" d="M108.79,273.61c-0.32,0-0.64-0.08-0.94-0.24c-1.89-1.02-5.21-1.02-7.11,0c-0.97,0.52-2.19,0.16-2.71-0.82
				c-0.52-0.97-0.16-2.19,0.82-2.71c3.05-1.64,7.84-1.64,10.89,0c0.97,0.52,1.34,1.74,0.82,2.71
				C110.19,273.23,109.5,273.61,108.79,273.61z"/>
		</g>
		<g>
			<g>
				<circle class="st1" cx="104.29" cy="263.86" r="7"/>
			</g>
			<g>
				<circle class="st7" cx="106.04" cy="263.86" r="1.75"/>
			</g>
		</g>
		<g>
			<path class="st1" d="M99.32,248.84c0.61-0.55,1.11-0.88,1.72-1.22c0.6-0.32,1.22-0.59,1.88-0.8c1.32-0.41,2.78-0.57,4.26-0.39
				c1.48,0.15,2.99,0.73,4.21,1.63c1.26,0.87,2.13,2.1,2.67,3.38c0.44,1.04-0.05,2.24-1.1,2.68c-0.53,0.22-1.09,0.2-1.58,0
				l-0.45-0.19c-0.94-0.4-1.64-0.83-2.38-1.03c-0.71-0.25-1.37-0.43-2.13-0.52c-0.74-0.1-1.56-0.14-2.44-0.12
				c-0.44,0.01-0.91,0.02-1.37,0.06c-0.46,0.01-1,0.09-1.39,0.05l-0.78-0.08c-1.09-0.11-1.88-1.08-1.77-2.16
				C98.72,249.61,98.96,249.16,99.32,248.84z"/>
		</g>
		<g>
			<path class="st1" d="M82.79,273.61c-0.32,0-0.64-0.08-0.94-0.24c-1.89-1.02-5.21-1.02-7.11,0c-0.97,0.52-2.19,0.16-2.71-0.82
				c-0.52-0.97-0.16-2.19,0.82-2.71c3.05-1.64,7.84-1.64,10.89,0c0.97,0.52,1.34,1.74,0.82,2.71
				C84.19,273.23,83.5,273.61,82.79,273.61z"/>
		</g>
		<g>
			<g>
				<circle class="st1" cx="78.29" cy="263.86" r="7"/>
			</g>
			<g>
				<circle class="st7" cx="80.04" cy="263.86" r="1.75"/>
			</g>
		</g>
		<g>
			<path class="st1" d="M81.36,252.36c-0.39,0.04-0.94-0.05-1.39-0.05c-0.47-0.04-0.93-0.05-1.37-0.06
				c-0.89-0.02-1.7,0.02-2.44,0.12c-0.75,0.09-1.41,0.28-2.13,0.52c-0.74,0.21-1.43,0.64-2.38,1.03l-0.45,0.19
				c-1.04,0.44-2.24-0.05-2.68-1.09c-0.22-0.53-0.2-1.1,0-1.59c0.54-1.28,1.41-2.51,2.67-3.38c1.21-0.9,2.72-1.48,4.21-1.63
				c1.49-0.18,2.95-0.02,4.26,0.39c0.66,0.21,1.29,0.48,1.88,0.8c0.61,0.34,1.11,0.68,1.72,1.22c0.81,0.73,0.88,1.98,0.16,2.79
				c-0.34,0.38-0.8,0.6-1.27,0.65L81.36,252.36z"/>
		</g>
	</g>
	<g>
		<path class="st1" d="M91.63,283.88c-4.96,0-10.04-1.43-14.43-4.31c-0.92-0.6-1.18-1.84-0.58-2.77c0.6-0.92,1.84-1.18,2.77-0.58
			c7.35,4.8,17.32,4.82,23.71,0.03c0.88-0.66,2.14-0.48,2.8,0.4c0.66,0.88,0.48,2.14-0.4,2.8
			C101.56,282.41,96.66,283.88,91.63,283.88z"/>
	</g>
	<g>
		<path class="st1" d="M87.11,286.53c1.35,0.43,2.77,0.57,4.18,0.62c0.71,0.03,1.41-0.07,2.11-0.15c0.7-0.09,1.39-0.24,2.05-0.47
			c0.69-0.24,1.45,0.13,1.68,0.82c0.17,0.48,0.04,1-0.29,1.34l-0.72,0.76c-0.67,0.71-1.48,1.09-2.3,1.37
			c-0.83,0.24-1.69,0.36-2.54,0.31c-0.43-0.02-0.85-0.04-1.27-0.13c-0.42-0.06-0.84-0.17-1.25-0.3c-0.81-0.27-1.6-0.64-2.3-1.25
			l-0.67-0.59c-0.57-0.5-0.63-1.37-0.13-1.94C86.03,286.52,86.61,286.38,87.11,286.53z"/>
	</g>
</g>
<g>
	<g>
		<g>
			<path class="st7" d="M188.82,316.81c-7.17,0-13-5.83-13-13v-226c0-7.17,5.83-13,13-13h180c7.17,0,13,5.83,13,13v226
				c0,7.17-5.83,13-13,13H188.82z"/>
		</g>
		<g>
			<path class="st1" d="M188.82,67.81l180,0c5.52,0,10,4.48,10,10v226c0,5.52-4.48,10-10,10h-180c-5.52,0-10-4.48-10-10v-226
				C178.82,72.28,183.3,67.81,188.82,67.81 M188.82,61.81c-8.82,0-16,7.18-16,16v226c0,8.82,7.18,16,16,16h180c8.82,0,16-7.18,16-16
				v-226c0-8.82-7.18-16-16-16L188.82,61.81L188.82,61.81z"/>
		</g>
	</g>
	<g>
		<path class="st8" d="M368.82,313.81h-180c-5.52,0-10-4.48-10-10v-62h200v62C378.82,309.33,374.35,313.81,368.82,313.81z"/>
	</g>
	<g>
		<rect x="178.82" y="101.81" class="st8" width="200" height="76"/>
	</g>
	<g>
		<g>
			<path class="st9" d="M178.82,98.81c-1.66,0-3-1.34-3-3v-18c0-7.17,5.83-13,13-13h180c7.17,0,13,5.83,13,13v18c0,1.66-1.34,3-3,3
				H178.82z"/>
		</g>
		<g>
			<path class="st1" d="M188.82,67.81l180,0c5.52,0,10,4.48,10,10v18l-200,0v-18C178.82,72.28,183.3,67.81,188.82,67.81
				 M188.82,61.81c-8.82,0-16,7.18-16,16v18c0,3.31,2.69,6,6,6l200,0c1.59,0,3.12-0.63,4.24-1.76c1.13-1.13,1.76-2.65,1.76-4.24v-18
				c0-8.82-7.18-16-16-16L188.82,61.81L188.82,61.81z"/>
		</g>
	</g>
	<g>
		<g>
			<path class="st7" d="M268.82,88.81c-3.86,0-7-3.14-7-7s3.14-7,7-7h94c3.86,0,7,3.14,7,7s-3.14,7-7,7H268.82z"/>
		</g>
		<g>
			<g>
				<path class="st1" d="M362.82,77.81c2.21,0,4,1.79,4,4s-1.79,4-4,4h-94c-2.21,0-4-1.79-4-4v0c0-2.21,1.79-4,4-4H362.82
					 M362.82,71.81h-94c-5.51,0-10,4.49-10,10c0,5.51,4.49,10,10,10h94c5.51,0,10-4.49,10-10S368.34,71.81,362.82,71.81
					L362.82,71.81z"/>
			</g>
		</g>
	</g>
	<g>
		<g>
			<path class="st10" d="M194.82,88.81c-3.86,0-7-3.14-7-7s3.14-7,7-7s7,3.14,7,7S198.68,88.81,194.82,88.81z"/>
		</g>
		<g>
			<g>
				<path class="st1" d="M194.82,77.81c2.21,0,4,1.79,4,4c0,2.21-1.79,4-4,4s-4-1.79-4-4C190.82,79.6,192.61,77.81,194.82,77.81
					 M194.82,71.81c-5.51,0-10,4.49-10,10s4.49,10,10,10s10-4.49,10-10S200.34,71.81,194.82,71.81L194.82,71.81z"/>
			</g>
		</g>
	</g>
	<g>
		<g>
			<circle class="st11" cx="218.82" cy="81.81" r="7"/>
		</g>
		<g>
			<g>
				<path class="st1" d="M218.82,77.81c2.21,0,4,1.79,4,4c0,2.21-1.79,4-4,4s-4-1.79-4-4C214.82,79.6,216.61,77.81,218.82,77.81
					 M218.82,71.81c-5.51,0-10,4.49-10,10s4.49,10,10,10s10-4.49,10-10S224.34,71.81,218.82,71.81L218.82,71.81z"/>
			</g>
		</g>
	</g>
	<g>
		<g>
			<circle class="st12" cx="242.82" cy="81.81" r="7"/>
		</g>
		<g>
			<g>
				<path class="st1" d="M242.82,77.81c2.21,0,4,1.79,4,4c0,2.21-1.79,4-4,4s-4-1.79-4-4C238.82,79.6,240.61,77.81,242.82,77.81
					 M242.82,71.81c-5.51,0-10,4.49-10,10s4.49,10,10,10s10-4.49,10-10S248.34,71.81,242.82,71.81L242.82,71.81z"/>
			</g>
		</g>
	</g>
	<g>
		<g>
			<circle class="st10" cx="243.82" cy="138.31" r="2.5"/>
		</g>
		<g>
			<circle class="st10" cx="249.32" cy="149.31" r="2.5"/>
		</g>
		<g>
			<circle class="st10" cx="238.32" cy="149.31" r="2.5"/>
		</g>
	</g>
	<g>
		<g>
			<circle class="st10" cx="313.82" cy="138.31" r="2.5"/>
		</g>
		<g>
			<circle class="st10" cx="319.32" cy="149.31" r="2.5"/>
		</g>
		<g>
			<circle class="st10" cx="308.32" cy="149.31" r="2.5"/>
		</g>
	</g>
	<g>
		<rect x="178.82" y="176.81" class="st13" width="200" height="74"/>
	</g>
	<g>
		<g>
			<path class="st7" d="M197.82,235.81h42c2.21,0,4-1.79,4-4v-36c0-2.21-1.79-4-4-4h-42c-2.21,0-4,1.79-4,4v36
				C193.82,234.02,195.61,235.81,197.82,235.81z"/>
		</g>
		<g>
			<circle class="st13" cx="205.82" cy="203.81" r="6"/>
		</g>
		<g>
			<path class="st8" d="M235.82,217.81h-34c-1.1,0-2-0.9-2-2v0c0-1.1,0.9-2,2-2l34,0c1.1,0,2,0.9,2,2v0
				C237.82,216.91,236.93,217.81,235.82,217.81z"/>
		</g>
		<g>
			<path class="st8" d="M221.82,225.81h-20c-1.1,0-2-0.9-2-2v0c0-1.1,0.9-2,2-2l20,0c1.1,0,2,0.9,2,2v0
				C223.82,224.91,222.93,225.81,221.82,225.81z"/>
		</g>
	</g>
	<g>
		<g>
			<path class="st7" d="M317.82,235.81h42c2.21,0,4-1.79,4-4v-36c0-2.21-1.79-4-4-4h-42c-2.21,0-4,1.79-4,4v36
				C313.82,234.02,315.61,235.81,317.82,235.81z"/>
		</g>
		<g>
			<circle class="st13" cx="325.82" cy="203.81" r="6"/>
		</g>
		<g>
			<path class="st8" d="M355.82,217.81h-34c-1.1,0-2-0.9-2-2v0c0-1.1,0.9-2,2-2h34c1.1,0,2,0.9,2,2v0
				C357.82,216.91,356.93,217.81,355.82,217.81z"/>
		</g>
		<g>
			<path class="st8" d="M333.82,225.81l-12,0c-1.1,0-2-0.9-2-2v0c0-1.1,0.9-2,2-2h12c1.1,0,2,0.9,2,2v0
				C335.82,224.91,334.93,225.81,333.82,225.81z"/>
		</g>
	</g>
	<g>
		<g>
			<path class="st7" d="M257.82,235.81l42,0c2.21,0,4-1.79,4-4v-36c0-2.21-1.79-4-4-4l-42,0c-2.21,0-4,1.79-4,4v36
				C253.82,234.02,255.61,235.81,257.82,235.81z"/>
		</g>
		<g>
			<circle class="st13" cx="265.82" cy="203.81" r="6"/>
		</g>
		<g>
			<path class="st8" d="M295.82,217.81h-34c-1.1,0-2-0.9-2-2v0c0-1.1,0.9-2,2-2h34c1.1,0,2,0.9,2,2v0
				C297.82,216.91,296.93,217.81,295.82,217.81z"/>
		</g>
		<g>
			<path class="st8" d="M287.82,225.81h-26c-1.1,0-2-0.9-2-2v0c0-1.1,0.9-2,2-2h26c1.1,0,2,0.9,2,2v0
				C289.82,224.91,288.93,225.81,287.82,225.81z"/>
		</g>
	</g>
	<g>
		<circle class="st13" cx="218.82" cy="283.81" r="24"/>
	</g>
	<g>
		<circle class="st13" cx="278.82" cy="283.81" r="24"/>
	</g>
	<g>
		<circle class="st13" cx="338.82" cy="283.81" r="24"/>
	</g>
	<g>
		<g>
			<g>
				<path class="st1" d="M298.32,140.28c-0.32,0-0.64-0.08-0.94-0.24c-1.89-1.02-5.21-1.02-7.11,0c-0.97,0.52-2.18,0.16-2.71-0.82
					c-0.52-0.97-0.16-2.19,0.82-2.71c3.05-1.64,7.84-1.64,10.89,0c0.97,0.52,1.34,1.73,0.82,2.71
					C299.72,139.9,299.03,140.28,298.32,140.28z"/>
			</g>
			<g>
				<g>
					<circle class="st1" cx="293.82" cy="129.53" r="8"/>
				</g>
				<g>
					<circle class="st7" cx="295.82" cy="129.53" r="2"/>
				</g>
			</g>
			<g>
				<path class="st1" d="M287.94,114.14c0.68-0.6,1.26-0.97,1.95-1.35c0.68-0.36,1.39-0.66,2.14-0.88c1.49-0.46,3.14-0.63,4.81-0.42
					c0.84,0.09,1.66,0.34,2.47,0.62c0.4,0.16,0.77,0.38,1.15,0.57c0.39,0.18,0.74,0.42,1.07,0.69c1.4,0.97,2.36,2.35,2.98,3.77
					c0.45,1.03-0.01,2.23-1.04,2.69c-0.59,0.26-1.23,0.22-1.76-0.06l-0.37-0.2c-1.05-0.55-1.86-1.12-2.73-1.43
					c-0.84-0.36-1.66-0.59-2.56-0.71c-0.9-0.13-1.87-0.17-2.91-0.11c-0.52,0.04-1.06,0.07-1.61,0.14c-0.53,0.04-1.16,0.16-1.62,0.17
					l-0.62,0.01c-1.1,0.01-2-0.87-2.01-1.98C287.25,115.06,287.52,114.51,287.94,114.14z"/>
			</g>
			<g>
				<path class="st1" d="M268.32,140.28c-0.32,0-0.64-0.08-0.94-0.24c-1.89-1.02-5.21-1.02-7.11,0c-0.97,0.52-2.18,0.16-2.71-0.82
					c-0.52-0.97-0.16-2.19,0.82-2.71c3.05-1.64,7.84-1.64,10.89,0c0.97,0.52,1.34,1.73,0.82,2.71
					C269.72,139.9,269.03,140.28,268.32,140.28z"/>
			</g>
			<g>
				<g>
					<circle class="st1" cx="263.82" cy="129.53" r="8"/>
				</g>
				<g>
					<circle class="st7" cx="265.82" cy="129.53" r="2"/>
				</g>
			</g>
			<g>
				<path class="st1" d="M267.76,117.63c-0.46,0-1.08-0.13-1.62-0.17c-0.55-0.07-1.09-0.1-1.61-0.14c-1.05-0.05-2.02-0.02-2.91,0.11
					c-0.9,0.12-1.72,0.35-2.56,0.71c-0.87,0.31-1.69,0.88-2.73,1.43l-0.36,0.19c-1,0.52-2.23,0.14-2.75-0.86
					c-0.3-0.57-0.3-1.22-0.06-1.77c0.62-1.41,1.58-2.79,2.98-3.77c0.33-0.27,0.68-0.51,1.07-0.69c0.38-0.19,0.76-0.41,1.15-0.57
					c0.81-0.28,1.63-0.53,2.47-0.62c1.67-0.21,3.32-0.04,4.81,0.42c0.75,0.22,1.46,0.52,2.14,0.88c0.69,0.38,1.27,0.75,1.95,1.35
					c0.83,0.72,0.91,1.98,0.19,2.81c-0.4,0.45-0.95,0.68-1.51,0.68L267.76,117.63z"/>
			</g>
		</g>
		<g>
			<path class="st1" d="M279.24,152.56c-6.02,0-12.19-1.77-17.52-5.31c-0.92-0.61-1.17-1.85-0.56-2.77
				c0.61-0.92,1.85-1.17,2.77-0.56c9.2,6.1,21.68,6.11,29.68,0.02c0.88-0.67,2.13-0.5,2.8,0.38c0.67,0.88,0.5,2.13-0.38,2.8
				C291.27,150.75,285.33,152.56,279.24,152.56z"/>
		</g>
		<g>
			<path class="st1" d="M274.65,155.66c1.35,0.43,2.77,0.57,4.18,0.62c0.71,0.03,1.41-0.07,2.11-0.15c0.7-0.09,1.39-0.24,2.05-0.47
				c0.69-0.24,1.45,0.13,1.68,0.82c0.17,0.48,0.04,1-0.29,1.34l-0.72,0.76c-0.67,0.71-1.48,1.09-2.3,1.37
				c-0.83,0.24-1.69,0.36-2.54,0.31c-0.43-0.02-0.85-0.04-1.27-0.13c-0.42-0.06-0.84-0.17-1.25-0.3c-0.81-0.27-1.6-0.64-2.3-1.25
				l-0.67-0.59c-0.57-0.5-0.63-1.37-0.13-1.94C273.57,155.64,274.14,155.5,274.65,155.66z"/>
		</g>
	</g>
</g>
<g>
	<g>
		<g>
			<path class="st14" d="M26.61,199.64c-4.96,0-9-4.04-9-9v-58c0-4.96,4.04-9,9-9h148c4.96,0,9,4.04,9,9v58c0,4.96-4.04,9-9,9H26.61
				z"/>
		</g>
		<g>
			<g>
				<path class="st1" d="M174.61,126.64c3.31,0,6,2.69,6,6v58c0,3.31-2.69,6-6,6h-148c-3.31,0-6-2.69-6-6v-58c0-3.31,2.69-6,6-6
					H174.61 M174.61,120.64h-148c-6.62,0-12,5.38-12,12v58c0,6.62,5.38,12,12,12h148c6.62,0,12-5.38,12-12v-58
					C186.61,126.03,181.22,120.64,174.61,120.64L174.61,120.64z"/>
			</g>
		</g>
	</g>
	<g>
		<g>
			<path class="st12" d="M44.61,199.64c-4.96,0-9-4.04-9-9v-58c0-4.96,4.04-9,9-9h148c4.96,0,9,4.04,9,9v58c0,4.96-4.04,9-9,9H44.61
				z"/>
		</g>
		<g>
			<g>
				<path class="st1" d="M192.61,126.64c3.31,0,6,2.69,6,6v58c0,3.31-2.69,6-6,6h-148c-3.31,0-6-2.69-6-6v-58c0-3.31,2.69-6,6-6
					H192.61 M192.61,120.64h-148c-6.62,0-12,5.38-12,12v58c0,6.62,5.38,12,12,12h148c6.62,0,12-5.38,12-12v-58
					C204.61,126.03,199.22,120.64,192.61,120.64L192.61,120.64z"/>
			</g>
		</g>
	</g>
	<g>
		<g>
			<g>
				<g>
					<path class="st1" d="M118.61,165.64c-8.82,0-16-7.18-16-16c0-1.1,0.9-2,2-2h28c1.1,0,2,0.9,2,2
						C134.61,158.47,127.43,165.64,118.61,165.64z"/>
				</g>
				<g>
					<path class="st1" d="M132.61,149.64L132.61,149.64 M132.61,149.64c0,7.73-6.27,14-14,14c-7.73,0-14-6.27-14-14H132.61
						 M132.61,145.64L132.61,145.64h-28.01c-2.21,0-4,1.79-4,4c0,9.93,8.07,18,18,18c9.87,0,17.91-7.99,18-17.84
						c0-0.05,0-0.11,0-0.16C136.61,147.43,134.82,145.64,132.61,145.64L132.61,145.64z M132.61,153.64L132.61,153.64L132.61,153.64
						L132.61,153.64z"/>
				</g>
			</g>
			<g>
				<g>
					<ellipse class="st10" cx="118.61" cy="158.98" rx="10.41" ry="4.67"/>
				</g>
			</g>
		</g>
		<g>
			<g>
				<g>
					<path class="st1" d="M128.82,113.67c0.6-0.51,1.09-0.82,1.69-1.14c0.58-0.3,1.18-0.55,1.82-0.74c1.27-0.37,2.65-0.52,4.06-0.39
						c1.41,0.11,2.85,0.62,4.07,1.42c1.25,0.77,2.18,1.94,2.76,3.17c0.48,1.02,0.04,2.24-0.98,2.72c-0.5,0.23-1.04,0.25-1.52,0.09
						l-0.51-0.17c-0.93-0.31-1.61-0.67-2.34-0.83c-0.71-0.19-1.37-0.36-2.13-0.44c-0.75-0.09-1.56-0.13-2.43-0.12
						c-0.44,0-0.89,0-1.35,0.02c-0.45-0.01-0.98,0.05-1.36,0l-0.77-0.11c-1.08-0.16-1.83-1.17-1.68-2.25
						C128.21,114.4,128.46,113.97,128.82,113.67z"/>
				</g>
				<g>
					<path class="st1" d="M106.63,117.26c-0.38,0.06-0.92-0.01-1.36,0c-0.46-0.02-0.92-0.02-1.35-0.02
						c-0.87-0.01-1.68,0.04-2.43,0.12c-0.76,0.07-1.42,0.25-2.13,0.44c-0.73,0.16-1.41,0.52-2.34,0.83l-0.5,0.17
						c-1.07,0.36-2.23-0.21-2.59-1.28c-0.18-0.52-0.13-1.06,0.09-1.52c0.58-1.23,1.5-2.4,2.76-3.17c1.22-0.8,2.66-1.31,4.07-1.42
						c1.41-0.14,2.79,0.01,4.06,0.39c0.63,0.19,1.24,0.44,1.82,0.74c0.59,0.32,1.08,0.63,1.69,1.14c0.84,0.71,0.94,1.96,0.24,2.8
						c-0.32,0.38-0.76,0.62-1.23,0.68L106.63,117.26z"/>
				</g>
				<g>
					<path class="st1" d="M108.63,140.14c-1.38,0-2.5-1.12-2.5-2.5c0-1.38-1.12-2.5-2.5-2.5s-2.5,1.12-2.5,2.5
						c0,1.38-1.12,2.5-2.5,2.5s-2.5-1.12-2.5-2.5c0-4.14,3.36-7.5,7.5-7.5s7.5,3.36,7.5,7.5
						C111.13,139.02,110.01,140.14,108.63,140.14z"/>
				</g>
				<g>
					<path class="st1" d="M138.58,140.14c-1.38,0-2.5-1.12-2.5-2.5c0-1.38-1.12-2.5-2.5-2.5s-2.5,1.12-2.5,2.5
						c0,1.38-1.12,2.5-2.5,2.5s-2.5-1.12-2.5-2.5c0-4.14,3.36-7.5,7.5-7.5s7.5,3.36,7.5,7.5
						C141.08,139.02,139.96,140.14,138.58,140.14z"/>
				</g>
			</g>
		</g>
	</g>
	<g>
		<g>
			<path class="st7" d="M73.16,182.07h0.49c0.45,0,0.77-0.14,0.97-0.42l2.95-4.28c0.17-0.23,0.36-0.39,0.56-0.47
				s0.45-0.13,0.75-0.13h2.65l-3.89,5.3c-0.28,0.37-0.57,0.63-0.89,0.79c0.23,0.08,0.43,0.2,0.62,0.35
				c0.19,0.15,0.36,0.34,0.52,0.58l3.96,6.08h-2.72c-0.17,0-0.32-0.01-0.45-0.04c-0.12-0.02-0.23-0.06-0.32-0.11
				c-0.09-0.05-0.17-0.11-0.23-0.18c-0.07-0.07-0.13-0.15-0.19-0.24l-2.97-4.56c-0.11-0.17-0.24-0.29-0.41-0.36
				c-0.17-0.07-0.39-0.1-0.67-0.1h-0.74v5.58h-3.04v-13.11h3.04V182.07z"/>
		</g>
		<g>
			<path class="st7" d="M86.79,179.1v3.06h4.12v2.25h-4.12v3.12h5.38v2.34h-8.44v-13.11h8.44v2.34H86.79z"/>
		</g>
		<g>
			<path class="st7" d="M101.23,184.89v4.99h-3.04v-4.99l-4.75-8.13h2.68c0.26,0,0.47,0.06,0.62,0.18s0.28,0.28,0.38,0.47l1.85,3.82
				c0.16,0.3,0.3,0.58,0.42,0.84c0.13,0.26,0.24,0.52,0.33,0.77c0.09-0.26,0.19-0.52,0.31-0.78c0.12-0.26,0.25-0.54,0.41-0.83
				l1.84-3.82c0.04-0.08,0.09-0.16,0.15-0.23c0.06-0.08,0.13-0.15,0.21-0.21c0.08-0.06,0.17-0.11,0.28-0.15
				c0.1-0.04,0.22-0.06,0.35-0.06h2.7L101.23,184.89z"/>
		</g>
		<g>
			<path class="st7" d="M125.77,176.76l-4.05,13.11h-2.75l-2.47-8.13c-0.05-0.13-0.09-0.27-0.14-0.42
				c-0.04-0.15-0.08-0.31-0.13-0.48c-0.04,0.17-0.08,0.33-0.13,0.48c-0.04,0.15-0.09,0.29-0.13,0.42l-2.5,8.13h-2.75l-4.05-13.11
				h2.56c0.26,0,0.48,0.06,0.66,0.18c0.18,0.12,0.29,0.28,0.35,0.48l1.8,6.84c0.05,0.22,0.11,0.45,0.16,0.71
				c0.05,0.25,0.11,0.52,0.16,0.8c0.11-0.56,0.24-1.06,0.4-1.5l2.12-6.84c0.05-0.17,0.17-0.32,0.35-0.45
				c0.18-0.14,0.39-0.2,0.64-0.2h0.9c0.26,0,0.48,0.06,0.64,0.18c0.16,0.12,0.28,0.28,0.37,0.47l2.11,6.84
				c0.16,0.42,0.29,0.9,0.4,1.43c0.05-0.27,0.1-0.52,0.15-0.76c0.05-0.24,0.1-0.46,0.16-0.67l1.8-6.84
				c0.05-0.17,0.16-0.33,0.34-0.46c0.18-0.13,0.4-0.2,0.65-0.2H125.77z"/>
		</g>
		<g>
			<path class="st7" d="M140.51,183.31c0,0.95-0.16,1.83-0.49,2.65c-0.33,0.82-0.79,1.53-1.38,2.13c-0.59,0.6-1.31,1.08-2.15,1.42
				s-1.77,0.51-2.79,0.51c-1.02,0-1.95-0.17-2.79-0.51s-1.56-0.81-2.16-1.42c-0.6-0.6-1.06-1.31-1.39-2.13
				c-0.33-0.82-0.49-1.7-0.49-2.65c0-0.95,0.16-1.83,0.49-2.65c0.33-0.82,0.79-1.52,1.39-2.12c0.6-0.6,1.32-1.07,2.16-1.41
				s1.77-0.51,2.79-0.51c1.02,0,1.95,0.17,2.79,0.52s1.55,0.82,2.15,1.42c0.59,0.6,1.05,1.31,1.38,2.12
				C140.35,181.49,140.51,182.37,140.51,183.31z M137.4,183.31c0-0.65-0.08-1.23-0.25-1.75c-0.17-0.52-0.41-0.96-0.72-1.32
				c-0.32-0.36-0.7-0.64-1.16-0.83s-0.97-0.29-1.56-0.29c-0.59,0-1.11,0.1-1.57,0.29s-0.85,0.47-1.16,0.83s-0.56,0.8-0.72,1.32
				c-0.17,0.52-0.25,1.1-0.25,1.75c0,0.65,0.08,1.24,0.25,1.76c0.17,0.52,0.41,0.96,0.72,1.32c0.32,0.36,0.7,0.63,1.16,0.82
				c0.46,0.19,0.98,0.28,1.57,0.28c0.58,0,1.1-0.09,1.56-0.28c0.46-0.19,0.84-0.46,1.16-0.82c0.31-0.36,0.56-0.8,0.72-1.32
				C137.31,184.55,137.4,183.97,137.4,183.31z"/>
		</g>
		<g>
			<path class="st7" d="M153.93,189.88h-2.75c-0.51,0-0.88-0.19-1.1-0.58l-2.18-3.81c-0.1-0.16-0.22-0.28-0.34-0.36
				s-0.31-0.11-0.54-0.11h-0.77v4.85h-3.04v-13.11h4.27c0.95,0,1.76,0.1,2.43,0.29c0.67,0.2,1.21,0.47,1.64,0.81
				s0.73,0.76,0.92,1.23c0.19,0.47,0.29,0.99,0.29,1.55c0,0.43-0.06,0.83-0.17,1.21c-0.11,0.38-0.28,0.73-0.5,1.05
				c-0.22,0.32-0.5,0.61-0.82,0.86s-0.7,0.46-1.13,0.62c0.2,0.1,0.38,0.23,0.56,0.38c0.17,0.15,0.33,0.33,0.47,0.54L153.93,189.88z
				 M147.47,182.93c0.41,0,0.77-0.05,1.06-0.16c0.29-0.1,0.53-0.25,0.71-0.44c0.19-0.19,0.32-0.4,0.41-0.65s0.13-0.52,0.13-0.81
				c0-0.58-0.19-1.03-0.56-1.35c-0.38-0.32-0.96-0.49-1.74-0.49h-1.22v3.89H147.47z"/>
		</g>
		<g>
			<path class="st7" d="M167.83,183.31c0,0.95-0.16,1.82-0.49,2.62s-0.79,1.49-1.38,2.08s-1.31,1.04-2.15,1.37s-1.77,0.49-2.79,0.49
				h-5.09v-13.11h5.09c1.02,0,1.95,0.17,2.79,0.5s1.55,0.79,2.15,1.37s1.05,1.27,1.38,2.07
				C167.67,181.5,167.83,182.37,167.83,183.31z M164.72,183.31c0-0.65-0.08-1.23-0.25-1.76c-0.17-0.52-0.41-0.96-0.72-1.33
				c-0.31-0.36-0.7-0.64-1.16-0.84s-0.97-0.29-1.56-0.29H159v8.43h2.03c0.58,0,1.1-0.1,1.56-0.29c0.46-0.19,0.84-0.47,1.16-0.84
				c0.32-0.36,0.56-0.81,0.72-1.33C164.64,184.56,164.72,183.97,164.72,183.31z"/>
		</g>
	</g>
</g>
</svg>
