<?xml version="1.0" encoding="utf-8"?>
<!-- Generator: Adobe Illustrator 25.4.1, SVG Export Plug-In . SVG Version: 6.00 Build 0)  -->
<svg version="1.1" id="title-tags" xmlns="http://www.w3.org/2000/svg" xmlns:xlink="http://www.w3.org/1999/xlink" x="0px" y="0px"
	 viewBox="0 0 400 400" style="enable-background:new 0 0 400 400;" xml:space="preserve">
<style type="text/css">
	.st0{fill:none;}
	.st1{fill:#E5F9EA;}
	.st2{fill:#CBF2D5;}
	.st3{fill:#B1ECC0;}
	.st4{fill:#FFFFFF;}
	.st5{fill:#515979;}
	.st6{fill:#EF7D7D;}
	.st7{fill:#FDE1D9;}
	.st8{fill:#FFD886;}
	.st9{fill:#E8F3FD;}
	.st10{fill:#2196F3;}
</style>
<rect class="st0" width="400" height="400"/>
<g>
	<g>
		<circle class="st1" cx="200" cy="200" r="170"/>
	</g>
	<g>
		<circle class="st2" cx="200" cy="200" r="140"/>
	</g>
	<g>
		<circle class="st3" cx="200" cy="200" r="110"/>
	</g>
</g>
<g>
	<g>
		<path class="st4" d="M62,265c-7.17,0-13-5.83-13-13V148c0-7.17,5.83-13,13-13h276c7.17,0,13,5.83,13,13v104c0,7.17-5.83,13-13,13
			H62z"/>
	</g>
	<g>
		<path class="st5" d="M338,138c5.52,0,10,4.48,10,10v104c0,5.52-4.48,10-10,10H62c-5.52,0-10-4.48-10-10V148c0-5.52,4.48-10,10-10
			H338 M338,132H62c-8.82,0-16,7.18-16,16v104c0,8.82,7.18,16,16,16h276c8.82,0,16-7.18,16-16V148C354,139.18,346.82,132,338,132
			L338,132z"/>
	</g>
</g>
<g>
	<path class="st5" d="M218.01,158H182c-2.76,0-5,2.24-5,5c0,12.68,10.32,23,23,23c12.62,0,22.9-10.22,23-22.82c0-0.06,0-0.12,0-0.18
		C223,160.24,220.77,158,218.01,158z"/>
	<g>
		<ellipse class="st6" cx="200" cy="175" rx="13.39" ry="6"/>
	</g>
	<g>
		<path class="st5" d="M186.96,127.62c-0.46,0-1.08-0.11-1.62-0.15c-0.55-0.07-1.09-0.09-1.61-0.13c-1.05-0.05-2.02-0.02-2.93,0.11
			c-0.91,0.12-1.74,0.34-2.59,0.68c-0.88,0.29-1.69,0.84-2.74,1.36l-0.38,0.19c-1.01,0.5-2.23,0.09-2.73-0.92
			c-0.28-0.57-0.27-1.22-0.03-1.76c0.64-1.4,1.63-2.76,3.04-3.7c0.33-0.26,0.69-0.49,1.07-0.66c0.38-0.18,0.75-0.4,1.15-0.54
			c0.4-0.13,0.8-0.26,1.21-0.37c0.41-0.11,0.82-0.15,1.23-0.22c1.65-0.19,3.27-0.03,4.75,0.42c0.74,0.21,1.45,0.51,2.12,0.86
			c0.69,0.37,1.26,0.73,1.95,1.32c0.84,0.72,0.94,1.98,0.22,2.81c-0.39,0.46-0.94,0.7-1.5,0.7L186.96,127.62z"/>
	</g>
	<g>
		<path class="st5" d="M211.14,124.1c0.69-0.58,1.26-0.95,1.95-1.32c0.67-0.35,1.38-0.64,2.12-0.86c1.48-0.44,3.1-0.61,4.75-0.42
			c0.41,0.06,0.82,0.11,1.23,0.22c0.41,0.11,0.81,0.24,1.21,0.37c0.4,0.15,0.77,0.36,1.15,0.54c0.38,0.18,0.74,0.4,1.07,0.66
			c1.41,0.94,2.39,2.3,3.04,3.7c0.47,1.02,0.02,2.23-1,2.7c-0.58,0.27-1.22,0.24-1.75-0.02l-0.39-0.19
			c-1.05-0.52-1.87-1.06-2.74-1.36c-0.85-0.34-1.67-0.56-2.59-0.68c-0.91-0.13-1.88-0.16-2.93-0.11c-0.52,0.04-1.06,0.06-1.61,0.13
			c-0.53,0.03-1.16,0.15-1.62,0.15l-0.62,0c-1.1,0-1.99-0.9-1.99-2C210.44,125.01,210.72,124.46,211.14,124.1z"/>
	</g>
	<g>
		<path class="st5" d="M190,152.5c-1.38,0-2.5-1.12-2.5-2.5c0-2.48-2.02-4.5-4.5-4.5s-4.5,2.02-4.5,4.5c0,1.38-1.12,2.5-2.5,2.5
			s-2.5-1.12-2.5-2.5c0-5.24,4.26-9.5,9.5-9.5s9.5,4.26,9.5,9.5C192.5,151.38,191.38,152.5,190,152.5z"/>
	</g>
	<g>
		<path class="st5" d="M224,152.5c-1.38,0-2.5-1.12-2.5-2.5c0-2.48-2.02-4.5-4.5-4.5s-4.5,2.02-4.5,4.5c0,1.38-1.12,2.5-2.5,2.5
			s-2.5-1.12-2.5-2.5c0-5.24,4.26-9.5,9.5-9.5s9.5,4.26,9.5,9.5C226.5,151.38,225.38,152.5,224,152.5z"/>
	</g>
	<g>
		<circle class="st7" cx="160" cy="154.5" r="2.5"/>
	</g>
	<g>
		<circle class="st7" cx="165.5" cy="165.5" r="2.5"/>
	</g>
	<g>
		<circle class="st7" cx="154.5" cy="165.5" r="2.5"/>
	</g>
	<g>
		<circle class="st7" cx="240" cy="154.5" r="2.5"/>
	</g>
	<g>
		<circle class="st7" cx="245.5" cy="165.5" r="2.5"/>
	</g>
	<g>
		<circle class="st7" cx="234.5" cy="165.5" r="2.5"/>
	</g>
</g>
<g>
	<g>
		<circle class="st8" cx="337" cy="122" r="3"/>
	</g>
</g>
<g>
	<g>
		<circle class="st8" cx="376.5" cy="149.5" r="2.5"/>
	</g>
</g>
<g>
	<g>
		<circle class="st8" cx="313.5" cy="100.5" r="2.5"/>
	</g>
</g>
<g>
	<g>
		<path class="st8" d="M359.6,119.4c2.65,0,4.8-2.15,4.8-4.8c0-0.88,0.72-1.6,1.6-1.6s1.6,0.72,1.6,1.6c0,2.65,2.15,4.8,4.8,4.8
			c0.88,0,1.6,0.72,1.6,1.6s-0.72,1.6-1.6,1.6c-2.65,0-4.8,2.15-4.8,4.8c0,0.88-0.72,1.6-1.6,1.6s-1.6-0.72-1.6-1.6
			c0-2.65-2.15-4.8-4.8-4.8c-0.88,0-1.6-0.72-1.6-1.6S358.72,119.4,359.6,119.4z"/>
	</g>
</g>
<g>
	<g>
		<path class="st8" d="M87.6,106.4c2.65,0,4.8-2.15,4.8-4.8c0-0.88,0.72-1.6,1.6-1.6s1.6,0.72,1.6,1.6c0,2.65,2.15,4.8,4.8,4.8
			c0.88,0,1.6,0.72,1.6,1.6s-0.72,1.6-1.6,1.6c-2.65,0-4.8,2.15-4.8,4.8c0,0.88-0.72,1.6-1.6,1.6s-1.6-0.72-1.6-1.6
			c0-2.65-2.15-4.8-4.8-4.8c-0.88,0-1.6-0.72-1.6-1.6S86.72,106.4,87.6,106.4z"/>
	</g>
</g>
<g>
	<g>
		<circle class="st8" cx="20" cy="171" r="5"/>
	</g>
</g>
<g>
	<g>
		<path class="st8" d="M334.8,290.2c2.98,0,5.4-2.42,5.4-5.4c0-0.99,0.81-1.8,1.8-1.8s1.8,0.81,1.8,1.8c0,2.98,2.42,5.4,5.4,5.4
			c0.99,0,1.8,0.81,1.8,1.8s-0.81,1.8-1.8,1.8c-2.98,0-5.4,2.42-5.4,5.4c0,0.99-0.81,1.8-1.8,1.8s-1.8-0.81-1.8-1.8
			c0-2.98-2.42-5.4-5.4-5.4c-0.99,0-1.8-0.81-1.8-1.8S333.81,290.2,334.8,290.2z"/>
	</g>
</g>
<g>
	<g>
		<circle class="st8" cx="300" cy="286" r="3"/>
	</g>
</g>
<g>
	<g>
		<circle class="st8" cx="377" cy="269" r="3"/>
	</g>
</g>
<g>
	<g>
		<circle class="st8" cx="373.5" cy="244.5" r="2.5"/>
	</g>
</g>
<g>
	<g>
		<path class="st8" d="M32.8,289.2c2.98,0,5.4-2.42,5.4-5.4c0-0.99,0.81-1.8,1.8-1.8c0.99,0,1.8,0.81,1.8,1.8
			c0,2.98,2.42,5.4,5.4,5.4c0.99,0,1.8,0.81,1.8,1.8s-0.81,1.8-1.8,1.8c-2.98,0-5.4,2.42-5.4,5.4c0,0.99-0.81,1.8-1.8,1.8
			c-0.99,0-1.8-0.81-1.8-1.8c0-2.98-2.42-5.4-5.4-5.4c-0.99,0-1.8-0.81-1.8-1.8S31.81,289.2,32.8,289.2z"/>
	</g>
</g>
<g>
	<g>
		<circle class="st8" cx="82" cy="297" r="3"/>
	</g>
</g>
<g>
	<g>
		<circle class="st8" cx="20" cy="257" r="4"/>
	</g>
</g>
<path class="st8" d="M39,122h-7v-7c0-1.66-1.34-3-3-3s-3,1.34-3,3v7h-7c-1.66,0-3,1.34-3,3s1.34,3,3,3h7v7c0,1.66,1.34,3,3,3
	s3-1.34,3-3v-7h7c1.66,0,3-1.34,3-3S40.66,122,39,122z"/>
<g>
	<g>
		<rect x="66" y="194" class="st9" width="268" height="28"/>
	</g>
	<g>
		<path class="st5" d="M249,236H79c-1.66,0-3-1.34-3-3l0,0c0-1.66,1.34-3,3-3h170c1.66,0,3,1.34,3,3l0,0
			C252,234.66,250.66,236,249,236z"/>
	</g>
	<g>
		<path class="st5" d="M289,250H79c-1.66,0-3-1.34-3-3l0,0c0-1.66,1.34-3,3-3h210c1.66,0,3,1.34,3,3l0,0
			C292,248.66,290.66,250,289,250z"/>
	</g>
	<g>
		<path class="st10" d="M320,212H80c-2.21,0-4-1.79-4-4l0,0c0-2.21,1.79-4,4-4h240c2.21,0,4,1.79,4,4l0,0
			C324,210.21,322.21,212,320,212z"/>
	</g>
	<g>
		<path class="st5" d="M72,224h-6c-1.1,0-2-0.9-2-2v-28c0-1.1,0.9-2,2-2h6c1.1,0,2,0.9,2,2s-0.9,2-2,2h-4v24h4c1.1,0,2,0.9,2,2
			S73.1,224,72,224z"/>
	</g>
	<g>
		<path class="st5" d="M334,224h-6c-1.1,0-2-0.9-2-2s0.9-2,2-2h4v-24h-4c-1.1,0-2-0.9-2-2s0.9-2,2-2h6c1.1,0,2,0.9,2,2v28
			C336,223.1,335.1,224,334,224z"/>
	</g>
</g>
</svg>
