<?xml version="1.0" encoding="utf-8"?>
<!-- Generator: Adobe Illustrator 25.3.1, SVG Export Plug-In . SVG Version: 6.00 Build 0)  -->
<svg version="1.1" id="google-shopping-products-disapproved"
	 xmlns="http://www.w3.org/2000/svg" xmlns:xlink="http://www.w3.org/1999/xlink" x="0px" y="0px" viewBox="0 0 400 400"
	 style="enable-background:new 0 0 400 400;" xml:space="preserve">
<style type="text/css">
	.st0{fill:none;stroke:#515979;stroke-width:3;stroke-linecap:round;stroke-linejoin:round;stroke-dasharray:4.9869,8.9763;}
	.st1{display:none;fill:#FEF3E3;}
	.st2{display:none;fill:#FEE7C5;}
	.st3{fill:#FFFFFF;}
	.st4{fill:#515979;}
	.st5{fill:#D8EBFB;}
	.st6{fill:#EF7D7D;}
	.st7{fill:#75A5C3;}
	.st8{fill:#9FC0D5;}
	.st9{clip-path:url(#SVGID_2_);}
	.st10{fill:none;stroke:#515979;stroke-width:5;stroke-linecap:round;stroke-linejoin:round;stroke-miterlimit:10;}
	.st11{fill:#FDE1D9;}
	.st12{fill:none;stroke:#515979;stroke-width:6;stroke-linecap:round;stroke-linejoin:round;stroke-miterlimit:10;}
	.st13{fill-rule:evenodd;clip-rule:evenodd;fill:#3E82F1;}
	.st14{fill-rule:evenodd;clip-rule:evenodd;fill:#32A753;}
	.st15{fill-rule:evenodd;clip-rule:evenodd;fill:#F9BB00;}
	.st16{fill-rule:evenodd;clip-rule:evenodd;fill:#E74235;}
</style>
<g>
	<circle class="st0" cx="103" cy="297" r="100"/>
</g>
<circle class="st1" cx="200" cy="214" r="180"/>
<circle class="st2" cx="200" cy="214" r="145"/>
<g>
	<g>
		<path class="st3" d="M180,301c-4.96,0-9-4.04-9-9V54c0-4.96,4.04-9,9-9h168c0.8,0,1.56,0.32,2.12,0.88l40,40
			C390.68,86.44,391,87.2,391,88v204c0,4.96-4.04,9-9,9H180z"/>
		<path class="st4" d="M348,48l40,40v204c0,3.31-2.69,6-6,6H180c-3.31,0-6-2.69-6-6V54c0-3.31,2.69-6,6-6H348 M348,42H180
			c-6.62,0-12,5.38-12,12v238c0,6.62,5.38,12,12,12h202c6.62,0,12-5.38,12-12V88c0-1.59-0.63-3.12-1.76-4.24l-40-40
			C351.12,42.63,349.59,42,348,42L348,42z"/>
	</g>
	<g>
		<path class="st5" d="M354,91c-4.96,0-9-4.04-9-9V48c0-1.21,0.73-2.31,1.85-2.77c0.37-0.15,0.76-0.23,1.15-0.23
			c0.78,0,1.55,0.3,2.12,0.88l40,40c0.86,0.86,1.12,2.15,0.65,3.27C390.31,90.27,389.21,91,388,91H354z"/>
		<g>
			<path class="st4" d="M348,48l40,40h-34c-3.31,0-6-2.69-6-6V48 M348,42c-0.77,0-1.55,0.15-2.29,0.46c-2.24,0.93-3.7,3.12-3.7,5.54
				v34c0,6.62,5.38,12,12,12h34c2.43,0,4.61-1.46,5.54-3.7c0.93-2.24,0.42-4.82-1.3-6.54l-40-40C351.09,42.61,349.56,42,348,42
				L348,42z"/>
		</g>
	</g>
</g>
<g>
	<g>
		<path class="st6" d="M281,288c-40.25,0-73-32.75-73-73c0-40.25,32.75-73,73-73c40.25,0,73,32.75,73,73
			C354,255.25,321.25,288,281,288z M281,158c-31.43,0-57,25.57-57,57s25.57,57,57,57s57-25.57,57-57S312.43,158,281,158z"/>
		<path class="st4" d="M281,145c38.66,0,70,31.34,70,70c0,38.66-31.34,70-70,70s-70-31.34-70-70C211,176.34,242.34,145,281,145
			 M281,275c33.14,0,60-26.86,60-60c0-33.14-26.86-60-60-60s-60,26.86-60,60C221,248.14,247.86,275,281,275 M281,139
			c-41.91,0-76,34.09-76,76s34.09,76,76,76s76-34.09,76-76S322.91,139,281,139L281,139z M281,269c-29.78,0-54-24.22-54-54
			s24.22-54,54-54s54,24.22,54,54S310.78,269,281,269L281,269z"/>
	</g>
	<g>
		<path class="st7" d="M258.55,263.18c-3.08,0-5.95-0.3-8.75-0.91c-1.48-0.33-2.49-1.71-2.34-3.22c2.05-20.95,2.21-41.59,0.45-55.37
			l-13.63,2.28c-0.16,0.03-0.33,0.04-0.49,0.04c-0.63,0-1.25-0.2-1.77-0.58c-0.65-0.48-1.08-1.2-1.2-2l-2.78-19.44
			c-0.21-1.48,0.7-2.9,2.15-3.31l13.12-3.75c4.46-1.27,9.07-1.92,13.72-1.92h11.86c1.17,0,2.24,0.68,2.73,1.75
			c1.68,3.66,5.37,6.03,9.39,6.03c4.02,0,7.71-2.37,9.39-6.03c0.49-1.07,1.55-1.75,2.73-1.75h11.86c4.64,0,9.26,0.65,13.72,1.92
			l13.12,3.75c1.44,0.41,2.36,1.83,2.15,3.31l-2.78,19.44c-0.11,0.8-0.55,1.52-1.2,2c-0.52,0.38-1.14,0.58-1.77,0.58
			c-0.16,0-0.33-0.01-0.49-0.04l-13.8-2.3c-2.32,12.85-2.09,32.08,0.59,49.21c0.15,0.98-0.19,1.97-0.91,2.65
			c-0.56,0.53-1.3,0.82-2.06,0.82c-0.21,0-0.43-0.02-0.64-0.07c-2.38-0.52-4.82-0.77-7.46-0.77c-7.1,0-14.19,1.82-21.7,3.75
			C274.21,261.18,266.41,263.18,258.55,263.18z"/>
		<g>
			<path class="st4" d="M304.98,178c4.36,0,8.7,0.61,12.89,1.81l13.12,3.75L328.22,203l-14.3-2.38c-0.13-0.02-0.27-0.03-0.4-0.03
				c-1.17,0-2.23,0.84-2.45,2.02c-2.67,14.19-2.1,34.24,0.48,50.73c-2.7-0.59-5.4-0.84-8.11-0.84c-14.97,0-29.93,7.69-44.9,7.69
				c-2.7,0-5.4-0.25-8.11-0.84c1.84-18.83,2.44-41.06,0.37-56.58c-0.17-1.25-1.24-2.15-2.46-2.15c-0.14,0-0.27,0.01-0.41,0.03
				L233.78,203L231,183.56l13.13-3.75c4.19-1.2,8.53-1.81,12.89-1.81h11.86c2.11,4.59,6.74,7.78,12.12,7.78s10.01-3.19,12.12-7.78
				H304.98 M304.98,172h-11.86c-2.34,0-4.47,1.37-5.45,3.5c-1.19,2.6-3.81,4.28-6.67,4.28s-5.47-1.68-6.67-4.28
				c-0.98-2.13-3.11-3.5-5.45-3.5h-11.86c-4.92,0-9.81,0.69-14.54,2.04l-13.13,3.75c-2.88,0.82-4.72,3.65-4.29,6.62l2.78,19.44
				c0.23,1.6,1.09,3.04,2.4,3.99c1.04,0.76,2.28,1.16,3.54,1.16c0.33,0,0.66-0.03,0.99-0.08l10.52-1.75
				c1.35,13.46,1.07,32.37-0.81,51.59c-0.3,3.03,1.72,5.79,4.69,6.45c3.02,0.66,6.09,0.98,9.39,0.98c8.24,0,16.22-2.05,23.94-4.04
				c7.32-1.88,14.23-3.66,20.96-3.66c2.43,0,4.66,0.23,6.82,0.7c0.43,0.09,0.86,0.14,1.28,0.14c1.51,0,2.99-0.57,4.11-1.63
				c1.44-1.36,2.12-3.34,1.82-5.3c-2.43-15.57-2.81-32.86-1.07-45.29l10.82,1.8c0.33,0.05,0.66,0.08,0.99,0.08
				c1.27,0,2.51-0.4,3.54-1.16c1.3-0.95,2.17-2.39,2.4-3.99l2.78-19.44c0.42-2.97-1.41-5.79-4.29-6.62l-13.12-3.75
				C314.79,172.69,309.9,172,304.98,172L304.98,172z"/>
		</g>
	</g>
	<g>
		<g>
			<path class="st8" d="M257.02,182h14.7c-1.17-1.14-2.14-2.49-2.83-4h-11.86c-4.36,0-8.7,0.61-12.89,1.81L231,183.56l0.55,3.84
				l12.58-3.59C248.32,182.61,252.66,182,257.02,182z"/>
		</g>
		<g>
			<path class="st8" d="M317.88,183.81l12.58,3.59l0.55-3.84l-13.12-3.75c-4.19-1.2-8.53-1.81-12.89-1.81h-11.86
				c-0.69,1.51-1.66,2.86-2.83,4h14.7C309.34,182,313.68,182.61,317.88,183.81z"/>
		</g>
	</g>
	<g>
		<defs>
			<circle id="SVGID_1_" cx="281" cy="215" r="60"/>
		</defs>
		<clipPath id="SVGID_2_">
			<use xlink:href="#SVGID_1_"  style="overflow:visible;"/>
		</clipPath>
		<g class="st9">
			<path class="st6" d="M213.82,292.25c-0.8,0-1.56-0.32-2.12-0.88l-7.07-7.07c-1.17-1.17-1.17-3.07,0-4.24l141.42-141.42
				c0.59-0.59,1.35-0.88,2.12-0.88s1.54,0.29,2.12,0.88l7.07,7.07c0.56,0.56,0.88,1.33,0.88,2.12c0,0.8-0.32,1.56-0.88,2.12
				L215.95,291.37C215.38,291.93,214.62,292.25,213.82,292.25L213.82,292.25z"/>
			<path class="st4" d="M348.18,140.75l7.07,7.07L213.82,289.25l-7.07-7.07L348.18,140.75 M348.18,134.75
				c-1.54,0-3.07,0.59-4.24,1.76L202.51,277.93c-2.34,2.34-2.34,6.14,0,8.49l7.07,7.07c1.17,1.17,2.71,1.76,4.24,1.76
				c1.54,0,3.07-0.59,4.24-1.76l141.42-141.42c2.34-2.34,2.34-6.14,0-8.49l-7.07-7.07C351.25,135.34,349.71,134.75,348.18,134.75
				L348.18,134.75z"/>
		</g>
	</g>
	<g>
		<polygon class="st6" points="231,257.93 322.92,166.01 331,172.07 238.13,264.94 		"/>
	</g>
</g>
<g>
	<circle class="st4" cx="300.45" cy="96" r="10"/>
	<path class="st10" d="M294.45,106.5c3.31-2,8.69-2,12,0"/>
	<circle class="st3" cx="303.45" cy="96.5" r="2.5"/>
	<g>
		<path class="st4" d="M292.82,80.03c0.71-0.77,1.3-1.27,2.02-1.8c0.7-0.5,1.43-0.95,2.2-1.34c1.53-0.77,3.2-1.3,4.93-1.58
			c0.86-0.17,1.75-0.2,2.63-0.24c0.89,0.04,1.77,0.04,2.65,0.23c1.75,0.26,3.45,0.92,4.93,1.88c1.43,0.92,1.83,2.83,0.91,4.26
			c-0.53,0.81-1.37,1.3-2.27,1.39l-0.53,0.05c-1.35,0.13-2.52,0.06-3.72,0.14c-1.18,0.03-2.35,0.09-3.54,0.2
			c-1.19,0.1-2.41,0.25-3.66,0.45c-0.62,0.1-1.27,0.18-1.91,0.3c-0.63,0.08-1.35,0.25-1.89,0.26l-0.87,0.01
			c-1.38,0.01-2.51-1.1-2.52-2.48C292.16,81.08,292.41,80.48,292.82,80.03z"/>
	</g>
	<circle class="st4" cx="261.55" cy="96" r="10"/>
	<path class="st10" d="M267.55,106.5c-3.31-2-8.69-2-12,0"/>
	<circle class="st3" cx="264.55" cy="96.5" r="2.5"/>
	<g>
		<path class="st4" d="M265.44,84.21c-0.55,0-1.26-0.18-1.89-0.26c-0.64-0.12-1.28-0.2-1.91-0.3c-1.25-0.2-2.47-0.34-3.66-0.45
			c-1.19-0.11-2.36-0.17-3.54-0.2c-1.2-0.08-2.37,0-3.72-0.14l-0.51-0.05c-1.69-0.17-2.93-1.67-2.76-3.36
			c0.09-0.96,0.64-1.79,1.39-2.28c1.48-0.96,3.18-1.62,4.93-1.88c0.88-0.18,1.76-0.19,2.65-0.23c0.88,0.04,1.77,0.07,2.63,0.24
			c1.73,0.29,3.4,0.81,4.93,1.58c0.77,0.39,1.5,0.84,2.2,1.34c0.71,0.53,1.31,1.03,2.02,1.8c0.93,1.02,0.87,2.6-0.15,3.53
			c-0.48,0.45-1.1,0.66-1.71,0.66L265.44,84.21z"/>
	</g>
	<g>
		<circle class="st11" cx="321" cy="124" r="3"/>
		<circle class="st11" cx="333" cy="124" r="3"/>
		<circle class="st11" cx="327" cy="112" r="3"/>
	</g>
	<g>
		<circle class="st11" cx="229" cy="124" r="3"/>
		<circle class="st11" cx="241" cy="124" r="3"/>
		<circle class="st11" cx="235" cy="112" r="3"/>
	</g>
	<path class="st12" d="M302,119.98c-12.55-2.54-30.08-2.74-42,0.02"/>
	<g>
		<path class="st4" d="M275.63,125.1c3.5,1.17,7.27,1.21,10.73,0.01c0.99-0.35,2.08,0.18,2.42,1.17c0.25,0.73,0.04,1.51-0.49,2.01
			l-0.64,0.61c-0.9,0.85-1.98,1.41-3.12,1.79c-1.14,0.39-2.34,0.55-3.54,0.57c-0.6-0.02-1.2-0.06-1.79-0.14
			c-0.59-0.13-1.17-0.22-1.74-0.43c-1.13-0.37-2.2-0.93-3.09-1.77l-0.65-0.62c-0.76-0.72-0.8-1.92-0.08-2.68
			C274.17,125.04,274.95,124.88,275.63,125.1z"/>
	</g>
</g>
<path class="st12" d="M281,4c-8.4,10,8.4,20,0,30"/>
<path class="st12" d="M258.16,8c-7.84,9.33,7.84,18.67,0,28"/>
<path class="st12" d="M303.68,10c-7.28,8.67,7.28,17.33,0,26"/>
<g>
	<path class="st13" d="M148,298.04c0-3.26-0.29-6.39-0.83-9.39h-43.25v17.76h24.71c-1.06,5.74-4.3,10.6-9.16,13.86v11.52h14.84
		C142.99,323.8,148,312.03,148,298.04L148,298.04L148,298.04z M148,298.04"/>
	<path class="st14" d="M103.92,342.92c12.4,0,22.79-4.11,30.39-11.12l-14.84-11.52c-4.11,2.76-9.37,4.38-15.55,4.38
		c-11.96,0-22.08-8.08-25.69-18.93H62.88v11.9C70.44,332.63,85.97,342.92,103.92,342.92L103.92,342.92L103.92,342.92z
		 M103.92,342.92"/>
	<path class="st15" d="M78.22,305.72c-0.92-2.76-1.44-5.7-1.44-8.72c0-3.03,0.52-5.97,1.44-8.72v-11.9H62.88
		C59.77,282.58,58,289.59,58,297s1.77,14.42,4.88,20.62L78.22,305.72L78.22,305.72L78.22,305.72z M78.22,305.72"/>
	<path class="st16" d="M103.92,269.34c6.74,0,12.79,2.32,17.55,6.87l13.17-13.17c-7.95-7.41-18.35-11.96-30.72-11.96
		c-17.95,0-33.48,10.29-41.03,25.3l15.34,11.9C81.84,277.42,91.96,269.34,103.92,269.34L103.92,269.34L103.92,269.34z
		 M103.92,269.34"/>
</g>
</svg>
