<?xml version="1.0" encoding="utf-8"?>
<!-- Generator: Adobe Illustrator 25.4.1, SVG Export Plug-In . SVG Version: 6.00 Build 0)  -->
<svg version="1.1" id="Facebook_x5F_Hub-Instagram_x5F_Ads"
	 xmlns="http://www.w3.org/2000/svg" xmlns:xlink="http://www.w3.org/1999/xlink" x="0px" y="0px" viewBox="0 0 400 400"
	 style="enable-background:new 0 0 400 400;" xml:space="preserve">
<style type="text/css">
	.st0{fill:#FFD886;}
	.st1{fill:#515979;}
	.st2{fill:#EF7D7D;}
	.st3{fill:#FFFFFF;}
	.st4{opacity:0.2;}
	.st5{fill:none;}
	.st6{fill:#747A94;}
	.st7{fill:#D8EBFB;}
	.st8{fill:#F3F9FE;}
	.st9{fill:#A6D5FA;}
	.st10{fill:#4DABF5;}
	.st11{fill:#FCD8CD;}
	.st12{fill:#F9B19A;}
	.st13{fill:#DDD9FF;}
	.st14{fill:#BBB3FF;}
	.st15{fill:#CBF2D5;}
	.st16{fill:#97E5AB;}
</style>
<g>
	<g>
		<path class="st0" d="M51.6,304.4c2.65,0,4.8-2.15,4.8-4.8c0-0.88,0.72-1.6,1.6-1.6s1.6,0.72,1.6,1.6c0,2.65,2.15,4.8,4.8,4.8
			c0.88,0,1.6,0.72,1.6,1.6s-0.72,1.6-1.6,1.6c-2.65,0-4.8,2.15-4.8,4.8c0,0.88-0.72,1.6-1.6,1.6s-1.6-0.72-1.6-1.6
			c0-2.65-2.15-4.8-4.8-4.8c-0.88,0-1.6-0.72-1.6-1.6S50.72,304.4,51.6,304.4z"/>
	</g>
</g>
<g>
	<g>
		<path class="st0" d="M229.8,269.2c2.98,0,5.4-2.42,5.4-5.4c0-0.99,0.81-1.8,1.8-1.8s1.8,0.81,1.8,1.8c0,2.98,2.42,5.4,5.4,5.4
			c0.99,0,1.8,0.81,1.8,1.8s-0.81,1.8-1.8,1.8c-2.98,0-5.4,2.42-5.4,5.4c0,0.99-0.81,1.8-1.8,1.8s-1.8-0.81-1.8-1.8
			c0-2.98-2.42-5.4-5.4-5.4c-0.99,0-1.8-0.81-1.8-1.8S228.81,269.2,229.8,269.2z"/>
	</g>
</g>
<g>
	<g>
		<circle class="st0" cx="274" cy="251" r="3"/>
	</g>
</g>
<g>
	<circle class="st0" cx="135" cy="32" r="4"/>
</g>
<g>
	<circle class="st0" cx="94.5" cy="281.5" r="4.5"/>
</g>
<path class="st0" d="M100,42h-6v-6c0-1.66-1.34-3-3-3s-3,1.34-3,3v6h-6c-1.66,0-3,1.34-3,3s1.34,3,3,3h6v6c0,1.66,1.34,3,3,3
	s3-1.34,3-3v-6h6c1.66,0,3-1.34,3-3S101.66,42,100,42z"/>
<g>
	<g>
		<path class="st0" d="M309,364c-1.66,0-3-1.34-3-3v-18c0-1.66,1.34-3,3-3s3,1.34,3,3v18C312,362.66,310.66,364,309,364z"/>
	</g>
	<g>
		<path class="st0" d="M318,355h-18c-1.66,0-3-1.34-3-3s1.34-3,3-3h18c1.66,0,3,1.34,3,3S319.66,355,318,355z"/>
	</g>
</g>
<g>
	<circle class="st0" cx="170" cy="312" r="3"/>
</g>
<g>
	<circle class="st0" cx="357.5" cy="169.5" r="4.5"/>
</g>
<g>
	<path class="st0" d="M353.8,125.8c-3.64,0-6.6-2.96-6.6-6.6c0-1.21-0.98-2.2-2.2-2.2c-1.21,0-2.2,0.98-2.2,2.2
		c0,3.64-2.96,6.6-6.6,6.6c-1.21,0-2.2,0.98-2.2,2.2c0,1.21,0.99,2.2,2.2,2.2c3.64,0,6.6,2.96,6.6,6.6c0,1.21,0.98,2.2,2.2,2.2
		c1.21,0,2.2-0.98,2.2-2.2c0-3.64,2.96-6.6,6.6-6.6c1.21,0,2.2-0.99,2.2-2.2C356,126.79,355.02,125.8,353.8,125.8z"/>
</g>
<g>
	<g>
		<circle class="st0" cx="140" cy="151" r="3"/>
	</g>
</g>
<g>
	<g>
		<circle class="st0" cx="176" cy="182" r="5"/>
	</g>
</g>
<g>
	<g>
		<path class="st1" d="M264.72,121.73c16.02,0,17.92,0.06,24.25,0.35c5.85,0.27,9.03,1.24,11.14,2.07c2.8,1.09,4.8,2.39,6.9,4.49
			c2.1,2.1,3.4,4.1,4.49,6.9c0.82,2.11,1.8,5.29,2.07,11.14c0.29,6.33,0.35,8.22,0.35,24.25s-0.06,17.92-0.35,24.25
			c-0.27,5.85-1.24,9.03-2.07,11.14c-1.09,2.8-2.39,4.8-4.49,6.9c-2.1,2.1-4.1,3.4-6.9,4.49c-2.11,0.82-5.29,1.8-11.14,2.07
			c-6.33,0.29-8.22,0.35-24.25,0.35s-17.92-0.06-24.25-0.35c-5.85-0.27-9.03-1.24-11.14-2.07c-2.8-1.09-4.8-2.39-6.9-4.49
			c-2.1-2.1-3.4-4.1-4.49-6.9c-0.82-2.11-1.8-5.29-2.07-11.14c-0.29-6.33-0.35-8.22-0.35-24.25s0.06-17.92,0.35-24.25
			c0.27-5.85,1.24-9.03,2.07-11.14c1.09-2.8,2.39-4.8,4.49-6.9c2.1-2.1,4.1-3.4,6.9-4.49c2.11-0.82,5.29-1.8,11.14-2.07
			C246.81,121.79,248.7,121.73,264.72,121.73 M264.72,110.91c-16.3,0-18.34,0.07-24.74,0.36c-6.39,0.29-10.75,1.31-14.56,2.79
			c-3.95,1.53-7.29,3.58-10.63,6.92c-3.34,3.34-5.39,6.68-6.92,10.63c-1.48,3.82-2.5,8.18-2.79,14.56
			c-0.29,6.4-0.36,8.44-0.36,24.74c0,16.3,0.07,18.34,0.36,24.74c0.29,6.39,1.31,10.75,2.79,14.56c1.53,3.95,3.58,7.29,6.92,10.63
			c3.34,3.34,6.68,5.39,10.63,6.92c3.82,1.48,8.18,2.5,14.56,2.79c6.4,0.29,8.44,0.36,24.74,0.36s18.34-0.07,24.74-0.36
			c6.39-0.29,10.75-1.31,14.56-2.79c3.95-1.53,7.29-3.58,10.63-6.92c3.34-3.34,5.39-6.68,6.92-10.63c1.48-3.82,2.5-8.18,2.79-14.56
			c0.29-6.4,0.36-8.44,0.36-24.74s-0.07-18.34-0.36-24.74c-0.29-6.39-1.31-10.75-2.79-14.56c-1.53-3.95-3.58-7.29-6.92-10.63
			c-3.34-3.34-6.68-5.39-10.63-6.92c-3.82-1.48-8.18-2.5-14.56-2.79C283.06,110.98,281.02,110.91,264.72,110.91L264.72,110.91z"/>
	</g>
	<g>
		<path class="st1" d="M264.72,140.1c-17.02,0-30.81,13.79-30.81,30.81c0,17.02,13.79,30.81,30.81,30.81s30.81-13.79,30.81-30.81
			S281.74,140.1,264.72,140.1z M264.72,190.91c-11.05,0-20-8.95-20-20c0-11.05,8.95-20,20-20s20,8.95,20,20
			C284.72,181.96,275.77,190.91,264.72,190.91z"/>
	</g>
	<g>
		<circle class="st1" cx="296.75" cy="138.89" r="7.2"/>
	</g>
</g>
<g>
	<g>
		<g>
			<path class="st2" d="M315.47,93.77c-0.26,0-0.52-0.03-0.78-0.1c-1-0.27-1.78-1.02-2.09-2.01l-4.42-14.23l-26.58-7.12
				c-4.79-1.28-7.65-6.23-6.36-11.02l10.87-40.57c1.05-3.93,4.63-6.67,8.69-6.67c0.79,0,1.57,0.1,2.33,0.31l73.41,19.67
				c4.79,1.28,7.65,6.23,6.36,11.02l-10.87,40.57c-1.05,3.93-4.63,6.67-8.69,6.67c0,0,0,0,0,0c-0.79,0-1.57-0.1-2.33-0.31
				l-26.58-7.12L317.5,92.97C316.94,93.49,316.21,93.77,315.47,93.77z"/>
		</g>
		<g>
			<path class="st1" d="M294.8,15.04c0.51,0,1.04,0.07,1.56,0.21l73.41,19.67c3.2,0.86,5.1,4.15,4.24,7.35l-10.87,40.57
				c-0.72,2.68-3.14,4.45-5.79,4.45c-0.51,0-1.04-0.07-1.56-0.21l-28.17-7.55l-12.16,11.24l-4.91-15.81l-28.17-7.55
				c-3.2-0.86-5.1-4.15-4.24-7.35l10.87-40.57C289.73,16.81,292.16,15.04,294.8,15.04 M294.8,9.04c-5.42,0-10.18,3.66-11.59,8.9
				l-10.87,40.57c-1.71,6.39,2.09,12.98,8.49,14.7l24.98,6.69l3.93,12.65c0.61,1.97,2.19,3.48,4.18,4.02
				c0.51,0.14,1.03,0.2,1.55,0.2c1.49,0,2.95-0.56,4.07-1.59l9.73-8.99l24.98,6.69c1.02,0.27,2.06,0.41,3.11,0.41
				c5.42,0,10.18-3.66,11.59-8.9l10.87-40.57c1.71-6.39-2.09-12.98-8.49-14.7L297.91,9.45C296.9,9.18,295.85,9.04,294.8,9.04
				L294.8,9.04z"/>
		</g>
	</g>
	<g>
		<path class="st3" d="M337.43,39.71c-3.16-0.85-6.38-0.07-8.77,1.81c-1.13-2.82-3.52-5.1-6.69-5.95
			c-5.33-1.43-10.82,1.74-12.25,7.07c-3.14,11.74,12.21,23.98,12.21,23.98s19.42-2.92,22.56-14.66
			C345.93,46.62,342.76,41.14,337.43,39.71z"/>
	</g>
</g>
<g>
	<g>
		<g>
			<path class="st2" d="M163.13,109.07c-3.77,0-7.17-2.38-8.46-5.92l-14.37-39.47c-1.7-4.66,0.72-9.84,5.38-11.54l71.42-25.99
				c0.99-0.36,2.03-0.54,3.08-0.54c3.77,0,7.17,2.38,8.46,5.92L243,71c0.82,2.26,0.72,4.7-0.3,6.88c-1.02,2.18-2.82,3.83-5.08,4.65
				l-25.85,9.41l-3.16,14.56c-0.22,1.01-0.94,1.83-1.91,2.18c-0.33,0.12-0.68,0.18-1.03,0.18c-0.66,0-1.3-0.21-1.84-0.63
				l-11.78-9.12l-25.85,9.41C165.22,108.89,164.18,109.07,163.13,109.07z"/>
		</g>
		<g>
			<path class="st1" d="M220.18,28.61c2.45,0,4.75,1.51,5.64,3.95l14.36,39.47c1.13,3.11-0.47,6.56-3.59,7.69l-27.41,9.98
				l-3.51,16.18l-13.09-10.13l-27.41,9.98c-0.68,0.25-1.37,0.36-2.05,0.36c-2.45,0-4.75-1.51-5.64-3.95l-14.36-39.47
				c-1.13-3.11,0.47-6.56,3.59-7.69l71.42-25.99C218.81,28.73,219.5,28.61,220.18,28.61 M220.18,22.61c-1.4,0-2.78,0.24-4.1,0.73
				l-71.42,25.99c-3.01,1.1-5.42,3.3-6.77,6.2c-1.35,2.9-1.5,6.16-0.4,9.18l14.36,39.47c1.72,4.72,6.25,7.9,11.28,7.9
				c1.4,0,2.78-0.24,4.1-0.73l24.3-8.84l10.47,8.11c1.07,0.83,2.36,1.26,3.67,1.26c0.69,0,1.38-0.12,2.05-0.36
				c1.94-0.7,3.37-2.35,3.81-4.37l2.81-12.94l24.3-8.84c6.22-2.26,9.44-9.16,7.17-15.38l-14.36-39.47
				C229.74,25.78,225.21,22.61,220.18,22.61L220.18,22.61z"/>
		</g>
	</g>
	<g>
		<g>
			<circle class="st3" cx="189.12" cy="60.37" r="9.08"/>
		</g>
		<g>
			<path class="st3" d="M212.6,76.22L181.32,87.6l-0.89-2.44c-1.51-4.15,0.63-8.74,4.78-10.25L201.46,69
				c4.15-1.51,8.74,0.63,10.25,4.78L212.6,76.22z"/>
		</g>
	</g>
</g>
<g class="st4">
	<rect class="st5" width="400" height="400"/>
</g>
<g>
	<g>
		<g>
			<path class="st6" d="M37.49,244.81c-3.65,0-6.65-2.75-6.97-6.39L19.54,112.9c-0.16-1.86,0.41-3.68,1.61-5.11
				c1.2-1.43,2.89-2.31,4.75-2.47l61.76-5.4c0.21-0.02,0.41-0.03,0.61-0.03c3.65,0,6.65,2.75,6.97,6.39l10.98,125.52
				c0.16,1.86-0.41,3.68-1.61,5.11s-2.89,2.31-4.75,2.47l-61.76,5.4C37.9,244.8,37.7,244.81,37.49,244.81z"/>
		</g>
		<path class="st1" d="M109.22,231.53l-6.89-78.7c1.65-0.14,2.87-1.6,2.73-3.25l-1.05-11.95c-0.14-1.65-1.61-2.88-3.25-2.73
			c0,0,0,0,0,0l-2.53-28.89c-0.46-5.2-4.74-9.13-9.96-9.13c-0.29,0-0.59,0.01-0.88,0.04l-61.76,5.4c-2.66,0.23-5.07,1.49-6.79,3.53
			c-1.72,2.05-2.53,4.64-2.3,7.3l1.48,16.93c-1.65,0.14-2.87,1.6-2.73,3.25l1.05,11.95c0.14,1.56,1.45,2.74,2.99,2.74
			c0.09,0,0.18,0,0.26-0.01c0,0,0,0,0,0l0.52,5.98c-1.65,0.14-2.87,1.6-2.73,3.25l1.05,11.95c0.14,1.56,1.45,2.74,2.99,2.74
			c0.09,0,0.18,0,0.26-0.01c0,0,0,0,0,0l5.84,66.74c0.46,5.2,4.74,9.13,9.96,9.13c0.29,0,0.59-0.01,0.88-0.04l61.76-5.4
			C105.63,241.89,109.7,237.03,109.22,231.53z M99.61,236.39l-61.76,5.4c-0.12,0.01-0.24,0.02-0.35,0.02c-2.05,0-3.8-1.57-3.98-3.65
			L22.53,112.64c-0.19-2.2,1.44-4.14,3.64-4.33l61.76-5.4c0.12-0.01,0.24-0.02,0.35-0.02c2.05,0,3.8,1.57,3.98,3.65l10.98,125.52
			C103.44,234.26,101.81,236.2,99.61,236.39z"/>
	</g>
	<g>
		<g>
			
				<rect x="26.06" y="117.34" transform="matrix(0.9962 -0.0872 0.0872 0.9962 -14.954 6.1594)" class="st7" width="74" height="114"/>
		</g>
		<g>
			<g>
				<path class="st1" d="M93.14,116.5l9.59,109.58l-69.73,6.1L23.4,122.6L93.14,116.5 M96.77,112.16l-3.98,0.35l-69.73,6.1
					l-3.98,0.35l0.35,3.98L29,232.53l0.35,3.98l3.98-0.35l69.73-6.1l3.98-0.35l-0.35-3.98l-9.59-109.58L96.77,112.16L96.77,112.16z"
					/>
			</g>
		</g>
	</g>
	<g>
		<polygon class="st8" points="56.9,230.09 40.96,231.48 51.3,120.16 67.23,118.76 		"/>
	</g>
	<g>
		<polygon class="st8" points="72.84,228.69 62.87,229.56 73.21,118.24 83.17,117.37 		"/>
	</g>
	<g>
		<path class="st1" d="M47.52,113.45c-1.03,0-1.9-0.78-1.99-1.83c-0.1-1.1,0.72-2.07,1.82-2.17l19.92-1.74
			c1.1-0.1,2.07,0.72,2.17,1.82c0.1,1.1-0.72,2.07-1.82,2.17l-19.92,1.74C47.64,113.45,47.58,113.45,47.52,113.45z"/>
	</g>
	<g>
		<g>
			<g>
				<path class="st1" d="M69.93,173.73c-0.57,0-1.12-0.33-1.37-0.89c-0.34-0.76,0-1.64,0.76-1.98c2.16-0.96,5.65-1.27,7.95-0.7
					c0.8,0.2,1.29,1.02,1.09,1.82c-0.2,0.8-1.02,1.29-1.82,1.09c-1.64-0.41-4.45-0.17-6,0.53
					C70.34,173.69,70.13,173.73,69.93,173.73z"/>
			</g>
			<g>
				<g>
					<circle class="st1" cx="72.83" cy="165.26" r="6"/>
				</g>
				<g>
					<circle class="st3" cx="74.33" cy="165.13" r="1.5"/>
				</g>
			</g>
			<g>
				<path class="st1" d="M68.52,151.75c1-0.73,1.98-1.1,3.05-1.39c1.06-0.26,2.16-0.36,3.28-0.29c1.12,0.07,2.27,0.33,3.35,0.82
					c1.08,0.5,2.12,1.26,2.83,2.32c0.65,0.97,0.38,2.28-0.59,2.93c-0.35,0.23-0.74,0.35-1.13,0.35l-0.55,0.01
					c-0.89,0.02-1.58-0.06-2.32-0.15c-0.74-0.07-1.47-0.2-2.25-0.35c-0.78-0.14-1.59-0.3-2.44-0.49c-0.84-0.22-1.76-0.42-2.64-0.81
					l-0.29-0.13c-0.82-0.37-1.19-1.33-0.83-2.16C68.11,152.14,68.3,151.91,68.52,151.75z"/>
			</g>
		</g>
		<g>
			<g>
				<path class="st1" d="M48.96,175.57c-0.57,0-1.12-0.33-1.37-0.89c-0.34-0.76,0-1.64,0.76-1.98c2.16-0.96,5.65-1.27,7.95-0.69
					c0.8,0.2,1.29,1.02,1.09,1.82c-0.2,0.8-1.01,1.29-1.82,1.09c-1.65-0.41-4.45-0.17-6,0.52
					C49.37,175.53,49.16,175.57,48.96,175.57z"/>
			</g>
			<g>
				<g>
					<circle class="st1" cx="51.86" cy="167.09" r="6"/>
				</g>
				<g>
					<circle class="st3" cx="53.36" cy="166.96" r="1.5"/>
				</g>
			</g>
			<g>
				<path class="st1" d="M53.69,156.04c-0.8,0.54-1.67,0.9-2.46,1.26c-0.8,0.34-1.57,0.64-2.32,0.91c-0.74,0.28-1.44,0.54-2.15,0.74
					c-0.71,0.22-1.38,0.41-2.26,0.55l-0.54,0.09c-1.15,0.18-2.23-0.61-2.42-1.76c-0.07-0.41-0.01-0.82,0.15-1.18
					c0.51-1.17,1.4-2.1,2.38-2.78c0.98-0.67,2.07-1.12,3.16-1.39c1.09-0.26,2.19-0.35,3.28-0.28c1.1,0.1,2.14,0.3,3.25,0.84
					c0.81,0.4,1.15,1.37,0.75,2.18c-0.13,0.26-0.32,0.48-0.55,0.63L53.69,156.04z"/>
			</g>
		</g>
		<g>
			<path class="st1" d="M79.72,181.13c-0.09-1.06-0.6-2.03-1.41-2.72c-0.72-0.61-1.63-0.94-2.57-0.94c-0.12,0-0.23,0.01-0.35,0.02
				l-23.91,2.09c-2.2,0.19-3.83,2.13-3.64,4.33c0.73,8.33,7.57,14.61,15.93,14.61c0.47,0,0.94-0.02,1.41-0.06
				C73.96,197.7,80.49,189.92,79.72,181.13z"/>
			<g>
				<g>
					
						<ellipse transform="matrix(0.9962 -0.0872 0.0872 0.9962 -16.3575 6.3443)" class="st2" cx="64.48" cy="190.5" rx="8.93" ry="4"/>
				</g>
			</g>
		</g>
	</g>
</g>
<g>
	<g>
		<g>
			<path class="st9" d="M260.8,361.55c-0.17,0-0.35-0.01-0.53-0.02l-53.79-4.71c-1.6-0.14-3.04-0.89-4.07-2.12
				c-1.03-1.23-1.52-2.78-1.38-4.38l3.66-41.84c0.27-3.12,2.84-5.48,5.97-5.48c0.17,0,0.35,0.01,0.53,0.02l53.79,4.71
				c1.6,0.14,3.04,0.89,4.07,2.12c1.03,1.23,1.52,2.78,1.38,4.38l-3.66,41.84C266.5,359.19,263.93,361.55,260.8,361.55z"/>
		</g>
		<g>
			<g>
				<path class="st1" d="M210.66,306c0.09,0,0.18,0,0.26,0.01l53.79,4.71c1.65,0.14,2.87,1.6,2.73,3.25l-3.66,41.84
					c-0.14,1.56-1.45,2.74-2.99,2.74c-0.09,0-0.18,0-0.26-0.01l-53.79-4.71c-1.65-0.14-2.87-1.6-2.73-3.25l3.66-41.84
					C207.81,307.18,209.12,306,210.66,306 M210.66,300C210.66,300,210.66,300,210.66,300c-4.7,0-8.55,3.53-8.96,8.22l-3.66,41.84
					c-0.21,2.39,0.53,4.73,2.07,6.57c1.55,1.84,3.72,2.97,6.11,3.18l53.79,4.71c0.26,0.02,0.53,0.03,0.79,0.03
					c4.7,0,8.55-3.53,8.96-8.22l3.66-41.84c0.43-4.94-3.24-9.32-8.18-9.75l-53.79-4.71C211.18,300.01,210.92,300,210.66,300
					L210.66,300z"/>
			</g>
		</g>
	</g>
	<g>
		<g>
			<path class="st10" d="M246.66,330.69c-0.25,0-0.5-0.01-0.75-0.03c-4.67-0.41-8.13-4.54-7.73-9.21c0.39-4.42,4.02-7.76,8.46-7.76
				c0.25,0,0.5,0.01,0.75,0.03c2.26,0.2,4.31,1.26,5.77,3c1.46,1.74,2.15,3.94,1.96,6.2C254.73,327.35,251.09,330.69,246.66,330.69z
				"/>
		</g>
		<g>
			<g>
				<path class="st1" d="M246.64,316.19c0.18,0,0.35,0.01,0.53,0.02c3.3,0.29,5.74,3.2,5.45,6.5c-0.27,3.12-2.89,5.48-5.97,5.48
					c-0.18,0-0.35-0.01-0.53-0.02c-3.3-0.29-5.74-3.2-5.45-6.5C240.94,318.54,243.56,316.19,246.64,316.19 M246.64,311.19
					C246.64,311.19,246.64,311.19,246.64,311.19c-5.74,0-10.45,4.32-10.95,10.04c-0.26,2.93,0.64,5.78,2.53,8.03
					c1.89,2.25,4.54,3.63,7.47,3.89c0.32,0.03,0.64,0.04,0.97,0.04c5.74,0,10.45-4.32,10.95-10.04c0.26-2.93-0.64-5.78-2.53-8.03
					c-1.89-2.25-4.54-3.63-7.47-3.89C247.29,311.2,246.96,311.19,246.64,311.19L246.64,311.19z"/>
			</g>
		</g>
	</g>
	<g>
		<g>
			<path class="st10" d="M260.8,361.05c-0.16,0-0.32-0.01-0.48-0.02l-53.8-4.71c-1.51-0.13-2.91-0.9-3.85-2.1
				c-0.7-0.89-0.71-2.14-0.03-3.04l16.64-22.19c0.86-1.14,2.17-1.8,3.6-1.8c1.57,0,3,0.79,3.82,2.12l12.58,20.23l8.24-8.79
				c0.85-0.9,2.04-1.42,3.28-1.42c1.49,0,2.89,0.74,3.72,1.97l10.27,15.13c0.72,1.06,0.52,2.49-0.46,3.31
				C263.35,360.58,262.09,361.05,260.8,361.05L260.8,361.05z"/>
		</g>
		<g>
			<g>
				<path class="st1" d="M222.88,329.69c0.66,0,1.31,0.32,1.7,0.94l14.3,22.99l10.47-11.16c0.4-0.42,0.93-0.63,1.46-0.63
					c0.63,0,1.26,0.3,1.66,0.88l10.27,15.13c-0.53,0.44-1.2,0.71-1.93,0.71c-0.09,0-0.18,0-0.26-0.01l-53.79-4.71
					c-0.86-0.08-1.6-0.51-2.1-1.15l16.64-22.19C221.69,329.96,222.29,329.69,222.88,329.69 M222.88,324.69
					C222.88,324.69,222.88,324.69,222.88,324.69c-2.22,0-4.26,1.02-5.6,2.8l-16.64,22.19c-1.36,1.81-1.33,4.3,0.06,6.08
					c1.36,1.74,3.4,2.86,5.6,3.05l53.79,4.71c0.24,0.02,0.47,0.03,0.7,0.03c1.89,0,3.72-0.67,5.16-1.89
					c1.95-1.65,2.34-4.51,0.91-6.63L256.6,339.9c-1.3-1.92-3.47-3.07-5.79-3.07c-1.93,0-3.79,0.81-5.1,2.21l-6.01,6.41L228.83,328
					C227.54,325.93,225.32,324.69,222.88,324.69L222.88,324.69L222.88,324.69z"/>
			</g>
		</g>
	</g>
</g>
<g>
	<g>
		<g>
			<path class="st11" d="M139.16,380.55c-0.52,0-1.05-0.07-1.55-0.21l-52.16-13.98c-3.2-0.86-5.1-4.15-4.24-7.35l10.87-40.57
				c0.7-2.62,3.08-4.45,5.79-4.45c0.52,0,1.05,0.07,1.55,0.21l52.16,13.98c1.55,0.41,2.84,1.41,3.64,2.79
				c0.8,1.39,1.01,3.01,0.6,4.55l-10.87,40.57C144.25,378.72,141.87,380.55,139.16,380.55z"/>
		</g>
		<g>
			<g>
				<path class="st1" d="M97.87,317c0.26,0,0.52,0.03,0.78,0.1l52.16,13.98c1.6,0.43,2.55,2.07,2.12,3.67l-10.87,40.57
					c-0.36,1.34-1.57,2.22-2.9,2.22c-0.26,0-0.52-0.03-0.78-0.1l-52.16-13.98c-1.6-0.43-2.55-2.07-2.12-3.67l10.87-40.57
					C95.33,317.88,96.54,317,97.87,317 M97.87,311C97.87,311,97.87,311,97.87,311c-4.07,0-7.64,2.74-8.69,6.67l-10.87,40.57
					c-1.28,4.79,1.57,9.74,6.36,11.02l52.16,13.98c0.76,0.2,1.55,0.31,2.33,0.31c4.06,0,7.64-2.74,8.69-6.67l10.87-40.57
					c1.28-4.79-1.57-9.74-6.36-11.02l-52.16-13.98C99.44,311.1,98.65,311,97.87,311L97.87,311z"/>
			</g>
		</g>
	</g>
	<g>
		<g>
			<path class="st12" d="M131.03,347.74c-0.74,0-1.48-0.1-2.2-0.29c-4.53-1.21-7.22-5.88-6.01-10.41c0.99-3.71,4.37-6.3,8.21-6.3
				c0.74,0,1.48,0.1,2.2,0.29c4.53,1.21,7.22,5.88,6.01,10.41C138.24,345.15,134.86,347.74,131.03,347.74z"/>
		</g>
		<g>
			<g>
				<path class="st1" d="M131.02,333.23c0.51,0,1.04,0.07,1.56,0.21c3.2,0.86,5.1,4.15,4.24,7.35c-0.72,2.68-3.14,4.45-5.79,4.45
					c-0.51,0-1.04-0.07-1.56-0.21c-3.2-0.86-5.1-4.15-4.24-7.35C125.94,335,128.37,333.23,131.02,333.23 M131.02,328.23
					C131.02,328.23,131.02,328.23,131.02,328.23c-4.97,0-9.34,3.35-10.62,8.15c-1.57,5.86,1.92,11.9,7.78,13.47
					c0.93,0.25,1.89,0.38,2.85,0.38c4.97,0,9.33-3.35,10.62-8.15c1.57-5.86-1.92-11.9-7.78-13.47
					C132.94,328.36,131.98,328.23,131.02,328.23L131.02,328.23z"/>
			</g>
		</g>
	</g>
	<g>
		<g>
			<path class="st12" d="M139.16,380.05c-0.48,0-0.96-0.06-1.43-0.19l-52.16-13.98c-1.46-0.39-2.71-1.39-3.43-2.73
				c-0.53-1-0.33-2.23,0.5-3l20.24-18.96c0.84-0.79,1.93-1.22,3.07-1.22c1.85,0,3.49,1.11,4.18,2.82l8.87,22.1l9.64-7.22
				c0.78-0.59,1.72-0.9,2.69-0.9c1.77,0,3.38,1.04,4.11,2.66l7.49,16.68c0.52,1.17,0.08,2.54-1.02,3.18
				C141.09,379.79,140.13,380.05,139.16,380.05z"/>
		</g>
		<g>
			<g>
				<path class="st1" d="M105.96,342.47c0.78,0,1.54,0.45,1.86,1.26l10.09,25.13l12.25-9.18c0.36-0.27,0.78-0.4,1.2-0.4
					c0.75,0,1.49,0.43,1.83,1.18l7.49,16.68c-0.45,0.26-0.97,0.41-1.51,0.41c-0.26,0-0.52-0.03-0.78-0.1l-52.16-13.98
					c-0.84-0.22-1.49-0.78-1.86-1.49l20.24-18.96C104.99,342.64,105.48,342.47,105.96,342.47 M105.96,337.47
					C105.96,337.47,105.96,337.47,105.96,337.47c-1.78,0-3.48,0.67-4.78,1.89l-20.24,18.96c-1.65,1.54-2.06,4-1,6
					c1.04,1.95,2.86,3.4,4.98,3.97l52.16,13.98c0.68,0.18,1.37,0.27,2.07,0.27c1.41,0,2.8-0.38,4.03-1.09
					c2.21-1.29,3.09-4.03,2.05-6.37l-7.49-16.68c-1.13-2.51-3.64-4.13-6.39-4.13c-1.52,0-2.97,0.48-4.19,1.4l-7.04,5.27l-7.66-19.08
					C111.39,339.19,108.84,337.47,105.96,337.47L105.96,337.47z"/>
			</g>
		</g>
	</g>
</g>
<g>
	<g>
		<g>
			<path class="st13" d="M147.87,288.55c-2.71,0-5.09-1.83-5.79-4.45l-10.87-40.57c-0.86-3.2,1.05-6.49,4.24-7.35l52.16-13.98
				c0.51-0.14,1.03-0.21,1.55-0.21c2.71,0,5.09,1.83,5.79,4.45l10.87,40.57c0.42,1.55,0.2,3.17-0.6,4.55
				c-0.8,1.39-2.1,2.38-3.64,2.8l-52.16,13.98C148.92,288.48,148.39,288.55,147.87,288.55z"/>
		</g>
		<g>
			<path class="st1" d="M189.16,225c1.32,0,2.54,0.88,2.9,2.22l10.87,40.57c0.43,1.6-0.52,3.25-2.12,3.67l-52.16,13.98
				c-0.26,0.07-0.52,0.1-0.78,0.1c-1.32,0-2.54-0.88-2.9-2.22l-10.87-40.57c-0.43-1.6,0.52-3.25,2.12-3.67l52.16-13.98
				C188.64,225.03,188.91,225,189.16,225 M189.16,219c-0.79,0-1.57,0.1-2.33,0.31l-52.16,13.98c-4.79,1.28-7.65,6.23-6.36,11.02
				l10.87,40.57c1.05,3.93,4.63,6.67,8.69,6.67c0.79,0,1.57-0.1,2.33-0.31l52.16-13.98c2.32-0.62,4.26-2.11,5.46-4.19
				c1.2-2.08,1.52-4.51,0.9-6.83l-10.87-40.57C196.8,221.74,193.23,219,189.16,219L189.16,219z"/>
		</g>
	</g>
	<g>
		<g>
			<path class="st14" d="M175.32,250.56c-3.84,0-7.21-2.59-8.21-6.3c-0.59-2.19-0.29-4.48,0.85-6.45c1.14-1.97,2.97-3.37,5.16-3.96
				c0.72-0.19,1.46-0.29,2.2-0.29c3.84,0,7.21,2.59,8.21,6.3c0.59,2.19,0.29,4.48-0.85,6.45c-1.14,1.97-2.97,3.37-5.16,3.96
				C176.81,250.46,176.07,250.56,175.32,250.56z"/>
		</g>
		<g>
			<g>
				<path class="st1" d="M175.33,236.06c2.65,0,5.07,1.77,5.79,4.45c0.86,3.2-1.04,6.49-4.24,7.35c-0.52,0.14-1.04,0.21-1.56,0.21
					c-2.65,0-5.07-1.77-5.79-4.45c-0.86-3.2,1.04-6.49,4.24-7.35C174.3,236.13,174.82,236.06,175.33,236.06 M175.33,231.06
					C175.33,231.06,175.33,231.06,175.33,231.06c-0.96,0-1.92,0.13-2.85,0.38c-2.84,0.76-5.21,2.58-6.68,5.13s-1.86,5.51-1.1,8.35
					c1.29,4.8,5.65,8.15,10.62,8.15c0.96,0,1.92-0.13,2.85-0.38c2.84-0.76,5.21-2.58,6.68-5.13c1.47-2.54,1.86-5.51,1.1-8.35
					C184.67,234.41,180.3,231.06,175.33,231.06L175.33,231.06z"/>
			</g>
		</g>
	</g>
	<g>
		<g>
			<path class="st14" d="M147.88,288.04c-1.03,0-2.04-0.29-2.92-0.84c-0.96-0.6-1.4-1.76-1.07-2.85l8.05-26.54
				c0.58-1.91,2.31-3.2,4.31-3.2c1.01,0,1.97,0.33,2.77,0.96l18.74,14.71l4.74-11.08c0.71-1.66,2.34-2.73,4.14-2.73
				c0.95,0,1.86,0.29,2.63,0.85l14.83,10.7c1.04,0.75,1.34,2.16,0.71,3.27c-0.73,1.28-1.92,2.2-3.35,2.58l-52.16,13.98
				C148.83,287.98,148.36,288.04,147.88,288.04C147.88,288.04,147.88,288.04,147.88,288.04z"/>
		</g>
		<g>
			<g>
				<path class="st1" d="M156.25,257.12c0.42,0,0.86,0.14,1.23,0.43l21.3,16.72l6.02-14.07c0.33-0.77,1.08-1.21,1.84-1.21
					c0.4,0,0.81,0.12,1.17,0.38l14.82,10.7c-0.38,0.67-1.02,1.19-1.83,1.41l-52.16,13.98c-0.26,0.07-0.51,0.1-0.77,0.1
					c-0.57,0-1.12-0.17-1.59-0.46l8.05-26.54C154.6,257.65,155.42,257.12,156.25,257.12 M156.25,252.12
					C156.25,252.12,156.25,252.12,156.25,252.12c-3.11,0-5.8,2-6.7,4.97l-8.05,26.54c-0.66,2.16,0.22,4.5,2.14,5.69
					c1.28,0.8,2.75,1.22,4.24,1.22c0.69,0,1.39-0.09,2.06-0.27l52.16-13.98c2.07-0.56,3.8-1.89,4.87-3.75
					c1.27-2.22,0.66-5.04-1.41-6.54l-14.82-10.7c-1.2-0.87-2.62-1.33-4.09-1.33c-2.81,0-5.34,1.67-6.44,4.25l-3.46,8.08l-16.17-12.7
					C159.34,252.65,157.81,252.12,156.25,252.12L156.25,252.12z"/>
			</g>
		</g>
	</g>
</g>
<g>
	<g>
		<g>
			<path class="st15" d="M354.16,314.55c-0.52,0-1.05-0.07-1.55-0.21l-52.16-13.98c-1.55-0.41-2.84-1.41-3.64-2.79
				c-0.8-1.39-1.01-3.01-0.6-4.55l10.87-40.57c0.7-2.62,3.08-4.45,5.79-4.45c0.52,0,1.05,0.07,1.55,0.21l52.16,13.98
				c1.55,0.41,2.84,1.41,3.64,2.8c0.8,1.39,1.01,3,0.6,4.55l-10.87,40.57C359.25,312.72,356.87,314.55,354.16,314.55z"/>
		</g>
		<g>
			<g>
				<path class="st1" d="M312.87,251c0.26,0,0.52,0.03,0.78,0.1l52.16,13.98c1.6,0.43,2.55,2.07,2.12,3.67l-10.87,40.57
					c-0.36,1.34-1.57,2.22-2.9,2.22c-0.26,0-0.52-0.03-0.78-0.1l-52.16-13.98c-1.6-0.43-2.55-2.07-2.12-3.67l10.87-40.57
					C310.33,251.88,311.54,251,312.87,251 M312.87,245C312.87,245,312.87,245,312.87,245c-4.07,0-7.64,2.74-8.69,6.67l-10.87,40.57
					c-1.28,4.79,1.57,9.74,6.36,11.02l52.16,13.98c0.76,0.2,1.55,0.31,2.33,0.31c4.06,0,7.64-2.74,8.69-6.67l10.87-40.57
					c1.28-4.79-1.57-9.74-6.36-11.02l-52.16-13.98C314.44,245.1,313.65,245,312.87,245L312.87,245z"/>
			</g>
		</g>
	</g>
	<g>
		<g>
			<path class="st16" d="M346.03,281.74c-0.74,0-1.48-0.1-2.2-0.29c-4.53-1.21-7.22-5.88-6.01-10.41c0.99-3.71,4.37-6.3,8.21-6.3
				c0.74,0,1.48,0.1,2.2,0.29c2.19,0.59,4.03,2,5.16,3.96c1.13,1.97,1.44,4.26,0.85,6.45C353.24,279.15,349.86,281.74,346.03,281.74
				z"/>
		</g>
		<g>
			<g>
				<path class="st1" d="M346.02,267.23c0.51,0,1.04,0.07,1.56,0.21c3.2,0.86,5.1,4.15,4.24,7.35c-0.72,2.68-3.14,4.45-5.79,4.45
					c-0.51,0-1.04-0.07-1.56-0.21c-3.2-0.86-5.1-4.15-4.24-7.35C340.94,269,343.37,267.23,346.02,267.23 M346.02,262.23
					C346.02,262.23,346.02,262.23,346.02,262.23c-4.97,0-9.34,3.35-10.62,8.15c-0.76,2.84-0.37,5.8,1.1,8.35
					c1.47,2.54,3.84,4.36,6.68,5.13c0.93,0.25,1.89,0.38,2.85,0.38c4.97,0,9.33-3.35,10.62-8.15c0.76-2.84,0.37-5.8-1.1-8.35
					c-1.47-2.54-3.84-4.36-6.68-5.13C347.94,262.36,346.98,262.23,346.02,262.23L346.02,262.23z"/>
			</g>
		</g>
	</g>
	<g>
		<g>
			<path class="st16" d="M354.16,314.05c-0.48,0-0.96-0.06-1.42-0.19l-52.16-13.97c-1.46-0.39-2.71-1.39-3.42-2.73
				c-0.53-1-0.33-2.23,0.5-3l20.24-18.96c0.84-0.79,1.93-1.22,3.07-1.22c1.85,0,3.49,1.11,4.18,2.82l8.87,22.1l9.64-7.22
				c0.79-0.59,1.72-0.9,2.69-0.9c1.77,0,3.38,1.04,4.11,2.66l7.49,16.68c0.52,1.17,0.08,2.54-1.02,3.18
				C356.08,313.79,355.13,314.05,354.16,314.05z"/>
		</g>
		<g>
			<g>
				<path class="st1" d="M320.96,276.47c0.78,0,1.54,0.45,1.86,1.26l10.09,25.13l12.25-9.18c0.36-0.27,0.78-0.4,1.2-0.4
					c0.75,0,1.49,0.43,1.83,1.18l7.49,16.68c-0.45,0.26-0.97,0.41-1.51,0.41c-0.26,0-0.52-0.03-0.78-0.1l-52.16-13.98
					c-0.84-0.22-1.49-0.78-1.86-1.49l20.24-18.96C319.99,276.64,320.48,276.47,320.96,276.47 M320.96,271.47
					C320.96,271.47,320.96,271.47,320.96,271.47c-1.78,0-3.48,0.67-4.78,1.89l-20.24,18.96c-1.65,1.54-2.06,4-1,6
					c1.04,1.95,2.86,3.4,4.98,3.97l52.16,13.98c0.68,0.18,1.37,0.27,2.07,0.27c1.41,0,2.8-0.38,4.03-1.09
					c2.21-1.29,3.09-4.03,2.05-6.37l-7.49-16.68c-1.13-2.51-3.64-4.13-6.39-4.13c-1.52,0-2.97,0.48-4.19,1.4l-7.04,5.27l-7.66-19.08
					C326.39,273.19,323.84,271.47,320.96,271.47L320.96,271.47z"/>
			</g>
		</g>
	</g>
</g>
</svg>
