<svg xmlns="http://www.w3.org/2000/svg" xmlns:xlink="http://www.w3.org/1999/xlink" width="200" zoomAndPan="magnify" viewBox="0 0 150 30.000001" height="40" preserveAspectRatio="xMidYMid meet" version="1.0"><defs><clipPath id="6b913ee276"><path d="M 2.417969 0 L 147.578125 0 L 147.578125 29.03125 L 2.417969 29.03125 Z M 2.417969 0 " clip-rule="nonzero"/></clipPath><clipPath id="2fe4aa60e4"><path d="M 46 10.457031 L 56 10.457031 L 56 18 L 46 18 Z M 46 10.457031 " clip-rule="nonzero"/></clipPath></defs><g clip-path="url(#6b913ee276)"><path fill="#ffffff" d="M 2.417969 0 L 147.582031 0 L 147.582031 29.03125 L 2.417969 29.03125 Z M 2.417969 0 " fill-opacity="1" fill-rule="nonzero"/><path fill="#20292c" d="M 2.417969 0 L 147.582031 0 L 147.582031 29.03125 L 2.417969 29.03125 Z M 2.417969 0 " fill-opacity="1" fill-rule="nonzero"/></g><path fill="#ffffff" d="M 65.316406 13.5625 C 65.316406 13.839844 65.277344 14.097656 65.191406 14.332031 C 65.109375 14.566406 64.976562 14.769531 64.792969 14.941406 C 64.613281 15.109375 64.378906 15.238281 64.085938 15.335938 C 63.796875 15.429688 63.441406 15.476562 63.023438 15.476562 L 60.535156 15.476562 C 60.511719 15.476562 60.488281 15.496094 60.488281 15.523438 L 60.488281 17.15625 C 60.488281 17.203125 60.449219 17.242188 60.402344 17.242188 C 60.125 17.242188 59.335938 17.242188 59.050781 17.242188 C 59.003906 17.242188 58.964844 17.203125 58.964844 17.15625 C 58.964844 15.433594 58.964844 13.054688 58.964844 11.851562 C 58.964844 11.742188 59.054688 11.652344 59.167969 11.652344 L 63.023438 11.652344 C 63.441406 11.652344 63.796875 11.699219 64.085938 11.796875 C 64.378906 11.886719 64.613281 12.019531 64.792969 12.191406 C 64.976562 12.359375 65.109375 12.558594 65.191406 12.792969 C 65.277344 13.023438 65.316406 13.28125 65.316406 13.5625 Z M 63.773438 13.585938 C 63.773438 13.457031 63.753906 13.34375 63.714844 13.25 C 63.679688 13.15625 63.621094 13.078125 63.535156 13.019531 C 63.449219 12.960938 63.339844 12.917969 63.203125 12.890625 C 63.0625 12.859375 62.894531 12.84375 62.695312 12.84375 C 62.519531 12.84375 60.949219 12.84375 60.570312 12.84375 C 60.523438 12.84375 60.488281 12.878906 60.488281 12.925781 L 60.488281 14.238281 C 60.488281 14.265625 60.511719 14.285156 60.535156 14.285156 L 62.695312 14.285156 C 62.894531 14.285156 63.0625 14.273438 63.203125 14.253906 C 63.339844 14.226562 63.449219 14.1875 63.535156 14.132812 C 63.621094 14.078125 63.679688 14.003906 63.714844 13.914062 C 63.753906 13.824219 63.773438 13.714844 63.773438 13.585938 Z M 63.773438 13.585938 " fill-opacity="1" fill-rule="nonzero"/><path fill="#ffffff" d="M 67.773438 17.148438 C 67.773438 17.199219 67.730469 17.242188 67.679688 17.242188 L 66.339844 17.242188 C 66.289062 17.242188 66.246094 17.199219 66.246094 17.148438 L 66.246094 11.746094 C 66.246094 11.695312 66.289062 11.652344 66.339844 11.652344 L 70.074219 11.652344 C 70.484375 11.652344 70.832031 11.695312 71.121094 11.78125 C 71.40625 11.863281 71.640625 11.984375 71.820312 12.136719 C 72 12.292969 72.128906 12.480469 72.210938 12.699219 C 72.292969 12.914062 72.332031 13.160156 72.332031 13.425781 C 72.332031 13.664062 72.300781 13.867188 72.230469 14.046875 C 72.164062 14.222656 72.074219 14.371094 71.957031 14.5 C 71.847656 14.625 71.714844 14.730469 71.5625 14.816406 C 71.414062 14.90625 71.253906 14.976562 71.085938 15.035156 L 72.8125 17.089844 C 72.863281 17.152344 72.816406 17.242188 72.738281 17.242188 L 71.195312 17.242188 C 71.167969 17.242188 71.140625 17.230469 71.125 17.207031 L 69.453125 15.199219 C 69.445312 15.191406 69.433594 15.183594 69.417969 15.183594 L 67.820312 15.183594 C 67.792969 15.183594 67.773438 15.203125 67.773438 15.230469 Z M 70.789062 13.417969 C 70.789062 13.308594 70.773438 13.21875 70.746094 13.140625 C 70.71875 13.066406 70.667969 13.003906 70.597656 12.957031 C 70.523438 12.910156 70.429688 12.875 70.308594 12.851562 C 70.191406 12.832031 70.042969 12.820312 69.863281 12.820312 L 67.820312 12.820312 C 67.792969 12.820312 67.773438 12.839844 67.773438 12.867188 L 67.773438 13.96875 C 67.773438 13.996094 67.792969 14.015625 67.820312 14.015625 L 69.863281 14.015625 C 70.042969 14.015625 70.191406 14.003906 70.308594 13.984375 C 70.429688 13.960938 70.523438 13.929688 70.597656 13.882812 C 70.667969 13.832031 70.71875 13.769531 70.746094 13.695312 C 70.773438 13.621094 70.789062 13.527344 70.789062 13.417969 Z M 70.789062 13.417969 " fill-opacity="1" fill-rule="nonzero"/><path fill="#ffffff" d="M 73.875 17.242188 C 73.820312 17.242188 73.78125 17.199219 73.78125 17.148438 L 73.78125 11.746094 C 73.78125 11.695312 73.820312 11.652344 73.875 11.652344 L 75.210938 11.652344 C 75.265625 11.652344 75.304688 11.695312 75.304688 11.746094 L 75.304688 17.148438 C 75.304688 17.199219 75.265625 17.242188 75.210938 17.242188 Z M 73.875 17.242188 " fill-opacity="1" fill-rule="nonzero"/><path fill="#ffffff" d="M 83.941406 17.242188 C 83.890625 17.242188 83.847656 17.199219 83.847656 17.148438 L 83.847656 13.503906 C 83.847656 13.457031 83.78125 13.4375 83.757812 13.480469 L 81.773438 17.191406 C 81.757812 17.222656 81.726562 17.242188 81.691406 17.242188 L 80.339844 17.242188 C 80.304688 17.242188 80.273438 17.222656 80.257812 17.191406 L 78.273438 13.480469 C 78.25 13.4375 78.183594 13.457031 78.183594 13.503906 L 78.183594 17.148438 C 78.183594 17.199219 78.144531 17.242188 78.089844 17.242188 L 76.753906 17.242188 C 76.699219 17.242188 76.660156 17.199219 76.660156 17.148438 L 76.660156 11.746094 C 76.660156 11.695312 76.699219 11.652344 76.753906 11.652344 L 78.675781 11.652344 C 78.710938 11.652344 78.742188 11.671875 78.757812 11.703125 L 80.976562 15.808594 C 80.992188 15.839844 81.039062 15.839844 81.058594 15.808594 L 83.273438 11.703125 C 83.289062 11.671875 83.320312 11.652344 83.355469 11.652344 L 85.273438 11.652344 C 85.324219 11.652344 85.367188 11.695312 85.367188 11.746094 L 85.367188 17.148438 C 85.367188 17.199219 85.324219 17.242188 85.273438 17.242188 Z M 83.941406 17.242188 " fill-opacity="1" fill-rule="nonzero"/><path fill="#ffffff" d="M 86.640625 17.242188 C 86.585938 17.242188 86.546875 17.199219 86.546875 17.148438 L 86.546875 11.746094 C 86.546875 11.695312 86.585938 11.652344 86.640625 11.652344 L 92.175781 11.652344 C 92.226562 11.652344 92.269531 11.695312 92.269531 11.746094 L 92.269531 12.753906 C 92.269531 12.804688 92.226562 12.84375 92.175781 12.84375 L 88.160156 12.84375 C 88.132812 12.84375 88.113281 12.867188 88.113281 12.890625 L 88.113281 13.722656 C 88.113281 13.746094 88.132812 13.769531 88.160156 13.769531 L 91.960938 13.769531 C 92.015625 13.769531 92.054688 13.808594 92.054688 13.859375 L 92.054688 14.867188 C 92.054688 14.917969 92.015625 14.960938 91.960938 14.960938 L 88.160156 14.960938 C 88.132812 14.960938 88.113281 14.980469 88.113281 15.007812 L 88.113281 16.003906 C 88.113281 16.03125 88.132812 16.050781 88.160156 16.050781 L 92.234375 16.050781 C 92.285156 16.050781 92.328125 16.089844 92.328125 16.144531 L 92.328125 17.148438 C 92.328125 17.199219 92.285156 17.242188 92.234375 17.242188 Z M 86.640625 17.242188 " fill-opacity="1" fill-rule="nonzero"/><path fill="#ffffff" d="M 94.910156 17.148438 C 94.910156 17.199219 94.867188 17.242188 94.816406 17.242188 L 93.476562 17.242188 C 93.425781 17.242188 93.382812 17.199219 93.382812 17.148438 L 93.382812 11.746094 C 93.382812 11.695312 93.425781 11.652344 93.476562 11.652344 L 97.210938 11.652344 C 97.621094 11.652344 97.96875 11.695312 98.253906 11.78125 C 98.542969 11.863281 98.777344 11.984375 98.957031 12.136719 C 99.136719 12.292969 99.265625 12.480469 99.347656 12.699219 C 99.429688 12.914062 99.46875 13.160156 99.46875 13.425781 C 99.46875 13.664062 99.433594 13.867188 99.367188 14.046875 C 99.300781 14.222656 99.210938 14.371094 99.09375 14.5 C 98.980469 14.625 98.851562 14.730469 98.699219 14.816406 C 98.566406 14.894531 98.429688 14.957031 98.285156 15.011719 C 98.253906 15.023438 98.246094 15.058594 98.265625 15.085938 L 99.949219 17.089844 C 99.996094 17.152344 99.953125 17.242188 99.875 17.242188 L 98.332031 17.242188 C 98.304688 17.242188 98.277344 17.230469 98.261719 17.207031 L 96.589844 15.199219 C 96.582031 15.191406 96.566406 15.183594 96.554688 15.183594 L 94.957031 15.183594 C 94.929688 15.183594 94.910156 15.203125 94.910156 15.230469 Z M 97.925781 13.417969 C 97.925781 13.308594 97.910156 13.21875 97.878906 13.140625 C 97.855469 13.066406 97.804688 13.003906 97.734375 12.957031 C 97.660156 12.910156 97.566406 12.875 97.445312 12.851562 C 97.328125 12.832031 97.179688 12.820312 97 12.820312 L 94.957031 12.820312 C 94.929688 12.820312 94.910156 12.839844 94.910156 12.867188 L 94.910156 13.96875 C 94.910156 13.996094 94.929688 14.015625 94.957031 14.015625 L 97 14.015625 C 97.179688 14.015625 97.328125 14.003906 97.445312 13.984375 C 97.566406 13.960938 97.660156 13.929688 97.734375 13.882812 C 97.804688 13.832031 97.855469 13.769531 97.878906 13.695312 C 97.910156 13.621094 97.925781 13.527344 97.925781 13.417969 Z M 97.925781 13.417969 " fill-opacity="1" fill-rule="nonzero"/><g clip-path="url(#2fe4aa60e4)"><path fill="#ffffff" d="M 53.304688 10.554688 C 54.007812 10.554688 54.59375 10.898438 54.992188 11.375 C 55.390625 11.847656 55.621094 12.472656 55.613281 13.078125 C 55.601562 13.679688 55.371094 14.316406 54.890625 14.808594 C 54.40625 15.300781 53.683594 15.625 52.726562 15.625 L 51.085938 15.625 C 51.070312 15.675781 51.046875 15.734375 51.019531 15.800781 C 50.925781 16.03125 50.769531 16.34375 50.53125 16.65625 C 50.054688 17.289062 49.242188 17.929688 47.941406 17.929688 C 47.230469 17.929688 46.835938 17.933594 46.621094 17.933594 C 46.554688 17.933594 46.464844 17.925781 46.378906 17.882812 C 46.28125 17.832031 46.214844 17.742188 46.1875 17.640625 C 46.164062 17.554688 46.175781 17.472656 46.1875 17.421875 C 46.199219 17.371094 46.21875 17.316406 46.238281 17.273438 L 47.066406 15.214844 L 48.8125 10.992188 C 48.921875 10.726562 49.183594 10.554688 49.472656 10.554688 Z M 46.867188 17.335938 C 47.101562 17.332031 47.445312 17.332031 47.941406 17.332031 C 49.003906 17.332031 49.652344 16.820312 50.042969 16.300781 C 50.222656 16.058594 50.351562 15.816406 50.433594 15.625 L 47.554688 15.625 Z M 49.472656 11.152344 C 49.429688 11.15625 49.394531 11.179688 49.378906 11.214844 L 48.734375 12.773438 L 53.066406 12.773438 C 53.234375 12.773438 53.371094 12.910156 53.371094 13.074219 C 53.371094 13.238281 53.234375 13.375 53.066406 13.375 L 48.488281 13.375 L 47.800781 15.027344 L 52.726562 15.027344 C 53.535156 15.027344 54.09375 14.757812 54.453125 14.390625 C 54.816406 14.019531 54.996094 13.53125 55.003906 13.070312 C 55.011719 12.613281 54.835938 12.125 54.523438 11.757812 C 54.214844 11.390625 53.792969 11.15625 53.304688 11.152344 Z M 49.472656 11.152344 " fill-opacity="1" fill-rule="nonzero"/></g></svg>