<?xml version="1.0" encoding="utf-8"?>
<!-- Generator: Adobe Illustrator 26.0.1, SVG Export Plug-In . SVG Version: 6.00 Build 0)  -->
<svg version="1.1" id="SEO_x5F_Hub-User_x5F_Experience_x5F_SEO"
	 xmlns="http://www.w3.org/2000/svg" xmlns:xlink="http://www.w3.org/1999/xlink" x="0px" y="0px" viewBox="0 0 400 400"
	 style="enable-background:new 0 0 400 400;" xml:space="preserve">
<style type="text/css">
	.st0{fill:none;}
	.st1{fill:#EF7D7D;}
	.st2{fill:#515979;}
	.st3{fill:#F29797;}
	.st4{fill:#747A94;}
	.st5{fill:#D8EBFB;}
	.st6{fill:#F3F9FE;}
	.st7{fill:#FFFFFF;}
	.st8{fill:#96C8F0;}
	.st9{fill:#FFD886;}
	.st10{fill:#F89D81;}
	.st11{fill:#8988C9;}
	.st12{fill:#FFEBEB;}
	.st13{fill:#FFD4D7;}
	.st14{fill:#FFE8A0;}
</style>
<g>
	<rect class="st0" width="400" height="400"/>
</g>
<g>
	<g>
		<g>
			<path class="st1" d="M288.16,179.31c-0.63,0-1.25-0.2-1.77-0.58c-0.55-0.4-13.66-10.04-25.87-24.75
				c-16.47-19.83-23.16-39.35-19.34-56.45c3.67-16.48,18.57-28.44,35.43-28.44c2.65,0,5.32,0.3,7.94,0.88
				c10.02,2.23,18.41,8.43,23.49,17.23c6.07-4.21,13.29-6.5,20.67-6.5c2.64,0,5.3,0.29,7.9,0.87c19.55,4.36,31.92,23.81,27.56,43.37
				c-3.81,17.1-18.16,31.93-41.49,42.89c-17.3,8.13-33.26,11.28-33.93,11.41C288.54,179.29,288.35,179.31,288.16,179.31z"/>
		</g>
		<g>
			<path class="st2" d="M276.61,72.1c2.4,0,4.84,0.26,7.28,0.81c10.66,2.38,18.95,9.63,23.11,18.87c5.94-5.1,13.61-8.07,21.7-8.07
				c2.39,0,4.82,0.26,7.25,0.8c17.97,4.01,29.29,21.82,25.28,39.79c-8.81,39.53-73.07,52.02-73.07,52.02s-52.87-38.6-44.06-78.12
				C247.56,82.66,261.33,72.1,276.61,72.1 M276.61,66.1c-8.8,0-17.47,3.02-24.41,8.52c-7.04,5.58-12,13.48-13.95,22.27
				c-9.56,42.87,44.09,82.6,46.38,84.28c1.04,0.76,2.28,1.15,3.54,1.15c0.38,0,0.76-0.04,1.14-0.11
				c2.78-0.54,68.22-13.73,77.78-56.6c4.72-21.17-8.66-42.23-29.83-46.95c-2.81-0.63-5.69-0.95-8.55-0.95
				c-6.95,0-13.76,1.87-19.74,5.35c-5.57-8.12-13.94-13.82-23.76-16.01C282.37,66.42,279.48,66.1,276.61,66.1L276.61,66.1z"/>
		</g>
	</g>
	<g>
		<g>
			<path class="st3" d="M250.82,104.81c4.01-17.97,21.82-29.29,39.79-25.28c4.66,1.04,8.86,3.01,12.46,5.66
				c-4.59-6.01-11.22-10.51-19.18-12.28c-17.97-4.01-35.78,7.31-39.79,25.28c-6.1,27.35,17.33,54.25,32.35,68.23
				C262.16,151.49,245.58,128.31,250.82,104.81z"/>
		</g>
	</g>
	<g>
		<g>
			<path class="st2" d="M311.77,133.84l-27.33-6.09c-0.29-0.06-0.58-0.1-0.87-0.1c-0.75,0-1.5,0.21-2.15,0.62
				c-0.9,0.57-1.53,1.47-1.76,2.51c-1.05,4.69-0.2,9.51,2.38,13.57c2.58,4.06,6.58,6.87,11.28,7.91c1.29,0.29,2.61,0.43,3.93,0.43
				c8.35,0,15.74-5.92,17.56-14.09C315.29,136.46,313.93,134.32,311.77,133.84z"/>
			<g>
				<g>
					
						<ellipse transform="matrix(0.2176 -0.976 0.976 0.2176 90.6205 400.6554)" class="st1" cx="295.21" cy="143.81" rx="4.67" ry="10.41"/>
				</g>
			</g>
		</g>
		<g>
			<g>
				<g>
					<path class="st2" d="M311.56,108.2c3.7-1.91,8.57-1.32,11.53,1.71c1.56,1.53,3.42,5.23,0.45,6.14
						c-0.73,0.19-1.39-0.13-1.96-0.52c-2.12-1.48-3.91-2.35-6.43-2.86c-1.1-0.27-2.35-0.38-3.38-0.85
						C310.19,111.27,310.07,108.92,311.56,108.2L311.56,108.2z"/>
				</g>
				<g>
					<path class="st2" d="M293.03,107.75c-2.36-0.5-4.82-1.28-7.22-1.06c-0.84,0-1.95,0.29-2.99,0.36
						c-1.74,0.25-2.94-1.95-1.83-3.28c2.56-3.52,7.99-3.84,11.54-1.74c1.7,0.98,4.89,3.38,2.63,5.37
						C294.55,107.92,293.74,107.82,293.03,107.75L293.03,107.75z"/>
				</g>
				<g>
					<path class="st2" d="M292.07,123.75c-0.18,0-0.36-0.02-0.55-0.06c-1.35-0.3-2.2-1.64-1.9-2.98c0.15-0.65,0.03-1.32-0.33-1.88
						c-0.36-0.56-0.91-0.95-1.57-1.1c-0.65-0.14-1.32-0.03-1.88,0.33c-0.56,0.36-0.95,0.91-1.1,1.57c-0.3,1.35-1.63,2.2-2.98,1.9
						c-1.35-0.3-2.2-1.64-1.9-2.98c0.44-1.96,1.61-3.62,3.3-4.7c1.69-1.07,3.7-1.43,5.65-0.99c1.96,0.44,3.62,1.61,4.7,3.3
						c1.08,1.69,1.43,3.7,0.99,5.65C294.24,122.96,293.21,123.75,292.07,123.75z"/>
				</g>
				<g>
					<path class="st2" d="M317.4,129.4c-0.18,0-0.36-0.02-0.55-0.06c-1.35-0.3-2.2-1.64-1.9-2.98c0.3-1.35-0.55-2.68-1.9-2.98
						c-1.35-0.3-2.68,0.55-2.98,1.9c-0.3,1.35-1.63,2.2-2.98,1.9c-1.35-0.3-2.2-1.64-1.9-2.98c0.44-1.96,1.61-3.62,3.3-4.7
						c1.69-1.07,3.7-1.42,5.65-0.99c4.04,0.9,6.59,4.92,5.69,8.95C319.58,128.6,318.54,129.4,317.4,129.4z"/>
				</g>
			</g>
		</g>
	</g>
</g>
<g>
	<g>
		<g>
			<path class="st4" d="M140.91,360.03c-4.96,0-9-4.04-9-9v-128c0-4.96,4.04-9,9-9h212c4.96,0,9,4.04,9,9v128c0,4.96-4.04,9-9,9
				H140.91z"/>
		</g>
		<g>
			<path class="st2" d="M352.91,217.03c3.31,0,6,2.69,6,6v128c0,3.31-2.69,6-6,6h-212c-3.31,0-6-2.69-6-6v-128c0-3.31,2.69-6,6-6
				H352.91 M352.91,211.03h-212c-6.62,0-12,5.38-12,12v128c0,6.62,5.38,12,12,12h212c6.62,0,12-5.38,12-12v-128
				C364.91,216.41,359.53,211.03,352.91,211.03L352.91,211.03z"/>
		</g>
	</g>
	<g>
		<g>
			<rect x="144.91" y="227.03" class="st5" width="204" height="120"/>
		</g>
		<g>
			<g>
				<path class="st2" d="M346.91,229.03v116h-200v-116H346.91 M350.91,225.03h-4h-200h-4v4v116v4h4h200h4v-4v-116V225.03
					L350.91,225.03z"/>
			</g>
		</g>
	</g>
	<g>
		<g>
			<polygon class="st6" points="228.41,345.03 202.41,345.03 242.41,229.03 268.41,229.03 			"/>
		</g>
		<g>
			<polygon class="st6" points="251.41,345.03 234.41,345.03 274.41,229.03 291.41,229.03 			"/>
		</g>
	</g>
	<g>
		<g>
			<path class="st4" d="M123.91,371.03c-6.07,0-11-4.93-11-11c0-1.66,1.34-3,3-3h262c1.66,0,3,1.34,3,3c0,6.07-4.93,11-11,11H123.91
				z"/>
		</g>
		<g>
			<path class="st2" d="M377.91,360.03c0,4.42-3.58,8-8,8h-246c-4.42,0-8-3.58-8-8H377.91 M377.91,354.03h-262c-3.31,0-6,2.69-6,6
				c0,7.72,6.28,14,14,14h246c7.72,0,14-6.28,14-14C383.91,356.72,381.23,354.03,377.91,354.03L377.91,354.03z M377.91,366.03
				L377.91,366.03L377.91,366.03L377.91,366.03z"/>
		</g>
	</g>
	<g>
		<path class="st2" d="M267.91,364.03h-42c-2.21,0-4-1.79-4-4l0,0h50l0,0C271.91,362.24,270.12,364.03,267.91,364.03z"/>
	</g>
	<g>
		<g>
			<g>
				<path class="st2" d="M268.41,287.22c-0.32,0-0.64-0.08-0.94-0.24c-1.89-1.02-5.21-1.02-7.11,0c-0.98,0.52-2.19,0.16-2.71-0.82
					c-0.52-0.97-0.16-2.19,0.82-2.71c3.05-1.64,7.84-1.64,10.89,0c0.97,0.52,1.34,1.73,0.82,2.71
					C269.81,286.84,269.12,287.22,268.41,287.22z"/>
			</g>
			<g>
				<g>
					<circle class="st2" cx="263.91" cy="276.47" r="8"/>
				</g>
				<g>
					<circle class="st7" cx="265.91" cy="276.47" r="2"/>
				</g>
			</g>
			<g>
				<path class="st2" d="M258.05,260.15c0.68-0.58,1.26-0.95,1.95-1.32c0.67-0.35,1.38-0.64,2.12-0.86c1.48-0.44,3.1-0.61,4.75-0.42
					c0.41,0.06,0.82,0.11,1.23,0.22c0.41,0.11,0.81,0.24,1.21,0.37c0.4,0.15,0.77,0.36,1.15,0.54c0.38,0.18,0.74,0.4,1.07,0.66
					c1.41,0.94,2.39,2.3,3.04,3.7c0.47,1.02,0.02,2.23-1,2.7c-0.58,0.27-1.22,0.24-1.75-0.02l-0.39-0.19
					c-1.05-0.52-1.87-1.06-2.74-1.36c-0.85-0.34-1.67-0.56-2.59-0.68c-0.91-0.13-1.88-0.16-2.93-0.11
					c-0.52,0.04-1.06,0.06-1.61,0.13c-0.53,0.03-1.16,0.15-1.62,0.15l-0.62,0c-1.1,0-1.99-0.9-1.99-2
					C257.35,261.06,257.63,260.52,258.05,260.15z"/>
			</g>
			<g>
				<path class="st2" d="M234.41,287.22c-0.32,0-0.64-0.08-0.94-0.24c-1.89-1.02-5.21-1.02-7.11,0c-0.98,0.52-2.19,0.16-2.71-0.82
					c-0.52-0.97-0.16-2.19,0.82-2.71c3.05-1.64,7.84-1.64,10.89,0c0.97,0.52,1.34,1.73,0.82,2.71
					C235.81,286.84,235.12,287.22,234.41,287.22z"/>
			</g>
			<g>
				<g>
					<circle class="st2" cx="229.91" cy="276.47" r="8"/>
				</g>
				<g>
					<circle class="st7" cx="231.91" cy="276.47" r="2"/>
				</g>
			</g>
			<g>
				<path class="st2" d="M233.87,263.67c-0.46,0-1.08-0.11-1.62-0.15c-0.55-0.07-1.09-0.09-1.61-0.13
					c-1.05-0.05-2.02-0.02-2.93,0.11c-0.91,0.12-1.74,0.34-2.59,0.68c-0.88,0.29-1.69,0.84-2.74,1.36l-0.38,0.19
					c-1.01,0.5-2.23,0.09-2.73-0.92c-0.28-0.57-0.27-1.22-0.03-1.76c0.64-1.4,1.63-2.76,3.04-3.7c0.33-0.26,0.69-0.49,1.07-0.66
					c0.38-0.18,0.75-0.4,1.15-0.54c0.4-0.13,0.8-0.26,1.21-0.37c0.41-0.11,0.82-0.15,1.23-0.22c1.65-0.19,3.27-0.03,4.75,0.42
					c0.74,0.21,1.45,0.51,2.12,0.86c0.69,0.37,1.26,0.73,1.95,1.32c0.84,0.71,0.94,1.98,0.22,2.81c-0.39,0.46-0.94,0.7-1.5,0.7
					L233.87,263.67z"/>
			</g>
		</g>
	</g>
	<g>
		<circle class="st8" cx="205.91" cy="284.12" r="2.5"/>
	</g>
	<g>
		<circle class="st8" cx="211.41" cy="295.12" r="2.5"/>
	</g>
	<g>
		<circle class="st8" cx="200.41" cy="295.12" r="2.5"/>
	</g>
	<g>
		<circle class="st8" cx="287.91" cy="284.12" r="2.5"/>
	</g>
	<g>
		<circle class="st8" cx="293.41" cy="295.12" r="2.5"/>
	</g>
	<g>
		<circle class="st8" cx="282.41" cy="295.12" r="2.5"/>
	</g>
	<g>
		<path class="st2" d="M264.92,290.62L264.92,290.62h-36.01c-2.76,0-5,2.24-5,5c0,12.68,10.32,23,23,23c12.62,0,22.9-10.22,23-22.82
			c0-0.06,0-0.12,0-0.18C269.92,292.86,267.68,290.62,264.92,290.62z"/>
		<g>
			<g>
				<ellipse class="st1" cx="246.91" cy="307.62" rx="13.39" ry="6"/>
			</g>
		</g>
	</g>
	<g>
		<circle class="st2" cx="246.91" cy="221.03" r="2"/>
	</g>
</g>
<g>
	<g>
		<path class="st9" d="M361.81,27.57c2.98,0,5.4-2.42,5.4-5.4c0-0.99,0.81-1.8,1.8-1.8s1.8,0.81,1.8,1.8c0,2.98,2.42,5.4,5.4,5.4
			c0.99,0,1.8,0.81,1.8,1.8c0,0.99-0.81,1.8-1.8,1.8c-2.98,0-5.4,2.42-5.4,5.4c0,0.99-0.81,1.8-1.8,1.8s-1.8-0.81-1.8-1.8
			c0-2.98-2.42-5.4-5.4-5.4c-0.99,0-1.8-0.81-1.8-1.8C360.01,28.38,360.82,27.57,361.81,27.57z"/>
	</g>
</g>
<g>
	<g>
		<circle class="st9" cx="271.91" cy="33.87" r="2.5"/>
	</g>
</g>
<g>
	<g>
		<circle class="st9" cx="27.41" cy="168.92" r="2.5"/>
	</g>
</g>
<g>
	<g>
		<circle class="st9" cx="237.4" cy="174.82" r="2.5"/>
	</g>
</g>
<g>
	<g>
		<circle class="st9" cx="198.82" cy="191.55" r="4"/>
	</g>
</g>
<g>
	<g>
		<circle class="st9" cx="211.82" cy="156.56" r="4"/>
	</g>
</g>
<g>
	<g>
		<circle class="st9" cx="54.91" cy="143.81" r="4"/>
	</g>
</g>
<g>
	<g>
		<circle class="st9" cx="340.89" cy="49.37" r="2.5"/>
	</g>
</g>
<g>
	<g>
		<circle class="st9" cx="310.9" cy="31.37" r="2.5"/>
	</g>
</g>
<g>
	<g>
		<circle class="st9" cx="36.84" cy="44.37" r="2.5"/>
	</g>
</g>
<g>
	<g>
		<path class="st9" d="M116.8,38.57c2.98,0,5.4-2.42,5.4-5.4c0-0.99,0.81-1.8,1.8-1.8c0.99,0,1.8,0.81,1.8,1.8
			c0,2.98,2.42,5.4,5.4,5.4c0.99,0,1.8,0.81,1.8,1.8s-0.81,1.8-1.8,1.8c-2.98,0-5.4,2.42-5.4,5.4c0,0.99-0.81,1.8-1.8,1.8
			c-0.99,0-1.8-0.81-1.8-1.8c0-2.98-2.42-5.4-5.4-5.4c-0.99,0-1.8-0.81-1.8-1.8S115.81,38.57,116.8,38.57z"/>
	</g>
</g>
<g>
	<g>
		<circle class="st9" cx="151.84" cy="16.11" r="2.5"/>
	</g>
</g>
<g>
	<g>
		<circle class="st9" cx="144.77" cy="68.85" r="2.5"/>
	</g>
</g>
<g>
	<g>
		<circle class="st9" cx="85.42" cy="51.1" r="2.5"/>
	</g>
</g>
<g>
	<g>
		<circle class="st9" cx="174.34" cy="79.35" r="4"/>
	</g>
</g>
<g>
	<g>
		<path class="st1" d="M79.88,109.19c-0.59,0-1.18-0.18-1.68-0.52c-0.62-0.42-15.15-10.42-12.96-22.17c1-5.37,5.68-9.26,11.13-9.26
			c0.7,0,1.4,0.06,2.08,0.19c2.41,0.45,4.54,1.63,6.16,3.36c1.51-0.72,3.17-1.11,4.87-1.11c0.69,0,1.39,0.06,2.08,0.19
			c6.14,1.14,10.21,7.07,9.07,13.22c-2.19,11.75-19.34,15.84-20.07,16.01C80.33,109.17,80.1,109.19,79.88,109.19z"/>
	</g>
	<g>
		<path class="st2" d="M76.37,80.25c0.51,0,1.02,0.05,1.54,0.14c2.68,0.5,4.82,2.24,5.94,4.51c1.51-1.39,3.51-2.21,5.64-2.21
			c0.5,0,1.01,0.05,1.53,0.14c4.52,0.84,7.51,5.19,6.67,9.72c-1.85,9.95-17.8,13.64-17.8,13.64s-13.55-9.18-11.69-19.13
			C68.93,83.05,72.43,80.25,76.37,80.25 M76.37,74.25C76.37,74.25,76.37,74.25,76.37,74.25c-6.9,0-12.82,4.92-14.08,11.71
			c-2.5,13.43,12.51,24.03,14.23,25.2c1,0.68,2.18,1.03,3.37,1.03c0.45,0,0.9-0.05,1.35-0.15c2.02-0.47,19.84-4.96,22.35-18.38
			c1.45-7.77-3.7-15.27-11.47-16.72c-0.87-0.16-1.75-0.24-2.63-0.24c-1.45,0-2.88,0.22-4.24,0.64c-1.8-1.42-3.94-2.42-6.24-2.84
			C78.13,74.33,77.25,74.25,76.37,74.25L76.37,74.25z"/>
	</g>
</g>
<g>
	<g>
		<path class="st1" d="M170.88,147.79c-0.75-0.03-18.37-0.75-22.77-11.86c-1.12-2.81-1.07-5.89,0.13-8.67
			c1.2-2.78,3.41-4.92,6.23-6.04c1.33-0.53,2.73-0.8,4.16-0.8c0.96,0,1.91,0.12,2.83,0.36c1.26-2.01,3.13-3.57,5.4-4.48
			c1.34-0.53,2.74-0.8,4.17-0.8c4.68,0,8.81,2.81,10.54,7.16c4.4,11.11-7.94,23.71-8.46,24.24c-0.56,0.57-1.33,0.89-2.13,0.89
			C170.94,147.79,170.91,147.79,170.88,147.79z"/>
	</g>
	<g>
		<path class="st2" d="M171.03,118.51c3.32,0,6.45,1.99,7.75,5.26c3.73,9.41-7.8,21.02-7.8,21.02s-16.36-0.55-20.09-9.97
			c-1.7-4.28,0.4-9.12,4.68-10.82c1-0.4,2.04-0.59,3.05-0.59c1.56,0,3.07,0.44,4.38,1.24c0.67-2.45,2.43-4.56,4.96-5.57
			C168.97,118.7,170.01,118.51,171.03,118.51 M171.03,112.51c-1.81,0-3.59,0.34-5.28,1.01c-2.17,0.86-4.08,2.25-5.58,3.99
			c-0.51-0.06-1.03-0.08-1.55-0.08c-1.81,0-3.58,0.34-5.27,1.01c-7.35,2.91-10.96,11.26-8.04,18.61
			c5.03,12.7,23.38,13.68,25.46,13.75c0.07,0,0.14,0,0.2,0c1.6,0,3.13-0.64,4.26-1.77c1.46-1.47,14.16-14.76,9.12-27.46
			C182.18,116.06,176.95,112.51,171.03,112.51L171.03,112.51z"/>
	</g>
</g>
<g>
	<g>
		<g>
			<path class="st10" d="M40.91,337.72c-0.55,0-1.1-0.15-1.58-0.45c-0.88-0.55-1.42-1.51-1.42-2.55v-112c0-29.22,23.78-53,53-53
				s53,23.78,53,53v62c0,1.14-0.64,2.18-1.66,2.68l-100,50C41.83,337.62,41.37,337.72,40.91,337.72z"/>
		</g>
		<g>
			<path class="st2" d="M90.91,172.72c27.61,0,50,22.39,50,50v62l-100,50v-112C40.91,195.11,63.3,172.72,90.91,172.72L90.91,172.72
				 M90.91,166.72c-30.88,0-56,25.12-56,56v112c0,2.08,1.08,4.01,2.85,5.1c0.96,0.6,2.06,0.9,3.15,0.9c0.92,0,1.84-0.21,2.68-0.63
				l100-50c2.03-1.02,3.32-3.09,3.32-5.37v-62C146.91,191.84,121.79,166.72,90.91,166.72L90.91,166.72z"/>
		</g>
	</g>
	<g>
		<path class="st2" d="M61.91,313.22c-1.38,0-2.5-1.12-2.5-2.5v-46c0-1.38,1.12-2.5,2.5-2.5s2.5,1.12,2.5,2.5v46
			C64.41,312.1,63.29,313.22,61.91,313.22z"/>
	</g>
	<g>
		<path class="st2" d="M49.91,313.22c-1.38,0-2.5-1.12-2.5-2.5v-46c0-1.38,1.12-2.5,2.5-2.5s2.5,1.12,2.5,2.5v46
			C52.41,312.1,51.29,313.22,49.91,313.22z"/>
	</g>
	<g>
		<g>
			<path class="st11" d="M20.91,389.72c-1.66,0-3-1.34-3-3v-32.64c0-18.88,12.1-35.36,30.11-41.02l41.99-13.2
				c0.29-0.09,0.6-0.14,0.9-0.14s0.61,0.05,0.9,0.14l41.99,13.2c18.01,5.66,30.11,22.15,30.11,41.02v32.64c0,1.66-1.34,3-3,3H20.91z
				"/>
		</g>
		<g>
			<g>
				<path class="st2" d="M90.91,302.72l41.99,13.2c16.67,5.24,28.01,20.69,28.01,38.16v32.64h-140v-32.64
					c0-17.47,11.34-32.92,28.01-38.16L90.91,302.72 M90.91,296.72c-0.61,0-1.21,0.09-1.8,0.28l-41.99,13.2
					c-19.26,6.05-32.21,23.69-32.21,43.88v32.64c0,3.31,2.69,6,6,6h140c3.31,0,6-2.69,6-6v-32.64c0-20.19-12.94-37.83-32.21-43.88
					L92.71,297C92.13,296.81,91.52,296.72,90.91,296.72L90.91,296.72z"/>
			</g>
		</g>
	</g>
	<g>
		<g>
			<rect x="139.91" y="363.72" class="st12" width="24" height="26"/>
		</g>
		<g>
			<g>
				<path class="st2" d="M160.91,366.72v20h-18v-20H160.91 M166.91,360.72h-6h-18h-6v6v20v6h6h18h6v-6v-20V360.72L166.91,360.72z"/>
			</g>
		</g>
	</g>
	<g>
		<g>
			<rect x="17.91" y="363.72" class="st12" width="24" height="26"/>
		</g>
		<g>
			<g>
				<path class="st2" d="M38.91,366.72v20h-18v-20H38.91 M44.91,360.72h-6h-18h-6v6v20v6h6h18h6v-6v-20V360.72L44.91,360.72z"/>
			</g>
		</g>
	</g>
	<g>
		<path class="st11" d="M141.34,353.72c6,20.87,3.58,28.42-1,36h-24.37"/>
		<path class="st2" d="M140.34,392.72h-24.37c-1.66,0-3-1.34-3-3s1.34-3,3-3h22.65c3.46-6.17,5.27-13.27-0.16-32.17
			c-0.46-1.59,0.46-3.25,2.05-3.71c1.59-0.46,3.25,0.46,3.71,2.05c5.93,20.62,4.11,29.4-1.32,38.38
			C142.37,392.17,141.39,392.72,140.34,392.72z"/>
	</g>
	<g>
		<path class="st11" d="M40.48,353.72c-6,20.87-3.58,28.42,1,36h24.37"/>
		<path class="st2" d="M65.85,392.72H41.48c-1.05,0-2.02-0.55-2.57-1.45c-5.43-8.98-7.25-17.76-1.32-38.38
			c0.46-1.59,2.12-2.51,3.71-2.05c1.59,0.46,2.51,2.12,2.05,3.71c-5.44,18.9-3.62,26-0.16,32.17h22.65c1.66,0,3,1.34,3,3
			S67.51,392.72,65.85,392.72z"/>
	</g>
	<g>
		<g>
			<path class="st13" d="M50.91,255.52c-6.07,0-11-4.93-11-11v-1.6c0-6.07,4.93-11,11-11c1.66,0,3,1.34,3,3v17.6
				C53.91,254.18,52.57,255.52,50.91,255.52z"/>
		</g>
		<g>
			<g>
				<path class="st2" d="M50.91,234.92v17.6h0c-4.42,0-8-3.58-8-8v-1.6C42.91,238.5,46.5,234.92,50.91,234.92L50.91,234.92
					 M50.91,228.92c-7.72,0-14,6.28-14,14v1.6c0,7.72,6.28,14,14,14c3.31,0,6-2.69,6-6l0-17.6c0-1.59-0.63-3.12-1.76-4.24
					S52.51,228.92,50.91,228.92L50.91,228.92z"/>
			</g>
		</g>
	</g>
	<g>
		<g>
			<circle class="st14" cx="47.91" cy="258.72" r="6"/>
		</g>
		<g>
			<path class="st2" d="M47.91,255.72c1.66,0,3,1.34,3,3c0,1.66-1.34,3-3,3s-3-1.34-3-3C44.91,257.06,46.26,255.72,47.91,255.72
				 M47.91,249.72c-4.96,0-9,4.04-9,9c0,4.96,4.04,9,9,9s9-4.04,9-9C56.91,253.76,52.88,249.72,47.91,249.72L47.91,249.72z"/>
		</g>
	</g>
	<g>
		<g>
			<path class="st12" d="M90.91,342.72c-0.82,0-1.61-0.34-2.18-0.94c-1.42-1.49-13.82-14.85-13.82-24.06v-45c0-1.66,1.34-3,3-3h26
				c1.66,0,3,1.34,3,3v45c0,9.21-12.41,22.57-13.82,24.06C92.52,342.38,91.74,342.72,90.91,342.72z"/>
		</g>
		<g>
			<g>
				<path class="st2" d="M103.91,272.72v45c0,8.28-13,22-13,22s-13-13.72-13-22v-45H103.91 M103.91,266.72h-26c-3.31,0-6,2.69-6,6
					v45c0,4.8,2.5,10.57,7.65,17.64c3.44,4.72,6.85,8.34,7,8.49c1.13,1.2,2.71,1.87,4.35,1.87c1.65,0,3.22-0.68,4.35-1.87
					c0.14-0.15,3.56-3.77,7-8.49c5.15-7.07,7.65-12.84,7.65-17.64v-45C109.91,269.41,107.23,266.72,103.91,266.72L103.91,266.72z"/>
			</g>
		</g>
	</g>
	<g>
		<path class="st13" d="M77.91,276.72v29.93c4.09,1.33,8.46,2.07,13,2.07s8.91-0.73,13-2.07v-29.93H77.91z"/>
	</g>
	<g>
		<g>
			<path class="st10" d="M110.91,331.1c-1.66,0-3-1.34-3-3l0-84.38c0-0.8,0.32-1.56,0.88-2.12c0.56-0.56,1.33-0.88,2.12-0.88h30
				c1.66,0,3,1.34,3,3v54.38C143.91,316.29,129.11,331.1,110.91,331.1z"/>
		</g>
		<g>
			<path class="st2" d="M140.91,243.72v54.38c0,16.57-13.43,30-30,30h0v-84.38H140.91 M140.91,237.72h-30c-3.31,0-6,2.69-6,6v84.38
				c0,3.31,2.69,6,6,6c19.85,0,36-16.15,36-36v-54.38C146.91,240.41,144.23,237.72,140.91,237.72L140.91,237.72z"/>
		</g>
	</g>
	<g>
		<path class="st2" d="M119.91,320.22c-1.38,0-2.5-1.12-2.5-2.5v-46c0-1.38,1.12-2.5,2.5-2.5s2.5,1.12,2.5,2.5v46
			C122.41,319.1,121.29,320.22,119.91,320.22z"/>
	</g>
	<g>
		<path class="st2" d="M130.91,309.22c-1.38,0-2.5-1.12-2.5-2.5v-46c0-1.38,1.12-2.5,2.5-2.5s2.5,1.12,2.5,2.5v46
			C133.41,308.1,132.29,309.22,130.91,309.22z"/>
	</g>
	<g>
		<g>
			<path class="st12" d="M130.91,255.52c-1.66,0-3-1.34-3-3v-17.6c0-1.66,1.34-3,3-3c6.07,0,11,4.93,11,11v1.6
				C141.91,250.59,136.98,255.52,130.91,255.52z"/>
		</g>
		<g>
			<g>
				<path class="st2" d="M130.91,234.92c4.42,0,8,3.58,8,8v1.6c0,4.42-3.58,8-8,8V234.92 M130.91,228.92c-3.31,0-6,2.69-6,6v17.6
					c0,3.31,2.69,6,6,6c7.72,0,14-6.28,14-14v-1.6C144.91,235.2,138.63,228.92,130.91,228.92L130.91,228.92z"/>
			</g>
		</g>
	</g>
	<g>
		<g>
			<circle class="st14" cx="133.91" cy="258.72" r="6"/>
		</g>
		<g>
			<path class="st2" d="M133.91,255.72c1.66,0,3,1.34,3,3c0,1.66-1.34,3-3,3s-3-1.34-3-3C130.91,257.06,132.26,255.72,133.91,255.72
				 M133.91,249.72c-4.96,0-9,4.04-9,9c0,4.96,4.04,9,9,9s9-4.04,9-9C142.91,253.76,138.88,249.72,133.91,249.72L133.91,249.72z"/>
		</g>
	</g>
	<g>
		<g>
			<path class="st12" d="M90.91,289.72c-21.5,0-39-17.5-39-39v-28c0-21.5,17.5-39,39-39s39,17.5,39,39v28
				C129.91,272.23,112.42,289.72,90.91,289.72z"/>
		</g>
		<g>
			<g>
				<path class="st2" d="M90.91,186.72c19.88,0,36,16.12,36,36v28c0,19.88-16.12,36-36,36h0c-19.88,0-36-16.12-36-36v-28
					C54.91,202.84,71.03,186.72,90.91,186.72L90.91,186.72 M90.91,180.72c-23.16,0-42,18.84-42,42v28c0,23.16,18.84,42,42,42
					c23.16,0,42-18.84,42-42v-28C132.91,199.56,114.07,180.72,90.91,180.72L90.91,180.72z"/>
			</g>
		</g>
	</g>
	<g>
		<path class="st13" d="M62.91,250.72v-28c0-18.53,14-33.78,32-35.77c-1.31-0.15-2.65-0.23-4-0.23h0c-19.88,0-36,16.12-36,36v28
			c0,19.88,16.12,36,36,36h0c1.35,0,2.69-0.08,4-0.23C76.91,284.5,62.91,269.25,62.91,250.72z"/>
	</g>
	<g>
		<path class="st13" d="M97.91,243.72c0,3.87-3.13,7-7,7h0c-3.87,0-7-3.13-7-7H97.91z"/>
	</g>
	<g>
		<path class="st2" d="M91.25,263.73c-4.88,0-9.88-1.06-14.21-3.18c-0.99-0.49-1.4-1.68-0.92-2.68c0.49-0.99,1.69-1.4,2.68-0.92
			c7.48,3.67,17.64,3.68,24.14,0.02c0.96-0.54,2.18-0.2,2.72,0.76c0.54,0.96,0.2,2.18-0.76,2.72
			C101.02,262.64,96.2,263.73,91.25,263.73z"/>
	</g>
	<g>
		<g>
			<path class="st2" d="M87.13,266.5c2.47,0.57,5.1,0.59,7.57,0c1.27-0.35,2.15,1.33,1.18,2.18c-0.77,0.76-1.77,1.54-2.78,1.78
				c-2.16,0.62-4.6,0.39-6.39-1.11c0,0-0.74-0.66-0.74-0.66C84.97,267.83,85.88,266.16,87.13,266.5L87.13,266.5z"/>
		</g>
	</g>
	<g>
		<path class="st10" d="M43.7,217.11c13.19,0,35.22-25.39,35.22-25.39s21.46,31,61,31l-4-18.89l-9.2-11.88l-15.12-10.73l-21.23-4.64
			l-21.5,4.93l-14.59,10.41l-7.84,10.68L43.7,217.11z"/>
	</g>
	<g>
		<path class="st2" d="M137.91,225.72c-33.32,0-52.75-20.8-59.18-29.09c-2.14,2.5-5.48,6.21-9.41,9.96
			c-9.41,8.97-17.36,13.52-23.63,13.52c-1.66,0-3-1.34-3-3s1.34-3,3-3c4.53,0,11.44-4.2,19.44-11.82
			c6.44-6.13,11.38-12.37,11.43-12.43c0.6-0.77,1.55-1.2,2.52-1.14c0.97,0.05,1.86,0.57,2.38,1.4c0.18,0.29,19.13,29.6,56.46,29.6
			c1.66,0,3,1.34,3,3S139.57,225.72,137.91,225.72z"/>
	</g>
	<g>
		<path class="st2" d="M128.91,214.19c-0.23,0-0.46-0.03-0.7-0.1c-26.57-7.7-40.71-26.09-41.3-26.87c-0.83-1.1-0.61-2.67,0.49-3.5
			c1.1-0.83,2.67-0.61,3.5,0.49c0.13,0.18,13.79,17.86,38.7,25.08c1.33,0.38,2.09,1.77,1.71,3.1
			C131,213.48,130,214.19,128.91,214.19z"/>
	</g>
	<g>
		<path class="st2" d="M90.91,253.22c-5.24,0-9.5-4.26-9.5-9.5v-11c0-1.38,1.12-2.5,2.5-2.5s2.5,1.12,2.5,2.5v11
			c0,2.48,2.02,4.5,4.5,4.5s4.5-2.02,4.5-4.5v-11c0-1.38,1.12-2.5,2.5-2.5s2.5,1.12,2.5,2.5v11
			C100.41,248.96,96.15,253.22,90.91,253.22z"/>
	</g>
	<g>
		<g>
			<circle class="st2" cx="109.91" cy="233.72" r="6"/>
		</g>
		<g>
			<circle class="st7" cx="111.91" cy="233.72" r="1.5"/>
		</g>
		<g>
			<path class="st2" d="M105.92,242.72c-0.68,0-1.34-0.34-1.71-0.97c-0.57-0.95-0.27-2.17,0.68-2.75c2.82-1.7,7.24-1.7,10.07,0
				c0.95,0.57,1.25,1.8,0.68,2.75c-0.57,0.95-1.8,1.25-2.75,0.68c-1.58-0.95-4.35-0.95-5.93,0
				C106.62,242.63,106.27,242.72,105.92,242.72z"/>
		</g>
	</g>
	<g>
		<g>
			<circle class="st2" cx="71.91" cy="233.72" r="6"/>
		</g>
		<g>
			<path class="st2" d="M67.92,242.72c-0.68,0-1.34-0.34-1.71-0.97c-0.57-0.95-0.27-2.17,0.68-2.75c2.82-1.7,7.24-1.7,10.07,0
				c0.95,0.57,1.25,1.8,0.68,2.75c-0.57,0.95-1.8,1.25-2.75,0.68c-1.58-0.95-4.35-0.95-5.93,0
				C68.62,242.63,68.27,242.72,67.92,242.72z"/>
		</g>
		<g>
			<circle class="st7" cx="73.91" cy="233.72" r="1.5"/>
		</g>
	</g>
	<g>
		<path class="st2" d="M104.04,222.37c4.22-4.89,13.85-3.9,15.66,2.73c0.16,0.57-0.16,1.16-0.73,1.33
			c-0.29,0.09-0.57,0.03-0.84-0.09c-3.26-1.49-5.9-2.32-9.45-2.25c-1.19-0.02-2.54,0.06-3.88,0.03
			C103.93,224.14,103.44,223,104.04,222.37L104.04,222.37z"/>
	</g>
	<g>
		<path class="st2" d="M76.84,224.13c-4.84-0.2-8.73-0.03-13.14,2.21c-0.58,0.3-1.31,0.07-1.54-0.56c-0.02-3.42,3.92-6.14,7.13-6.43
			c3.19-0.34,6.32,0.65,8.51,3.02C78.45,223.11,77.79,224.25,76.84,224.13L76.84,224.13z"/>
	</g>
</g>
</svg>
