<?xml version="1.0" encoding="utf-8"?>
<!-- Generator: Adobe Illustrator 26.0.2, SVG Export Plug-In . SVG Version: 6.00 Build 0)  -->
<svg version="1.1" id="Google_x5F_Hub-Google_x5F_Shopping_x5F_Campaign"
	 xmlns="http://www.w3.org/2000/svg" xmlns:xlink="http://www.w3.org/1999/xlink" x="0px" y="0px" viewBox="0 0 400 400"
	 style="enable-background:new 0 0 400 400;" xml:space="preserve">
<style type="text/css">
	.st0{fill:none;}
	.st1{fill:#FFD886;}
	.st2{fill-rule:evenodd;clip-rule:evenodd;fill:#3E82F1;}
	.st3{fill-rule:evenodd;clip-rule:evenodd;fill:#32A753;}
	.st4{fill-rule:evenodd;clip-rule:evenodd;fill:#F9BB00;}
	.st5{fill-rule:evenodd;clip-rule:evenodd;fill:#E74235;}
	.st6{fill:#515979;}
	.st7{fill:#FDD08C;}
	.st8{fill:#FBB040;}
	.st9{fill:#FCC066;}
</style>
<g>
	<rect x="0.96" y="0.79" class="st0" width="400" height="400"/>
</g>
<g>
	<g>
		<path class="st1" d="M46.73,208.74c2.98,0,5.4-2.42,5.4-5.4c0-0.99,0.81-1.8,1.8-1.8s1.8,0.81,1.8,1.8c0,2.98,2.42,5.4,5.4,5.4
			c0.99,0,1.8,0.81,1.8,1.8s-0.81,1.8-1.8,1.8c-2.98,0-5.4,2.42-5.4,5.4c0,0.99-0.81,1.8-1.8,1.8s-1.8-0.81-1.8-1.8
			c0-2.98-2.42-5.4-5.4-5.4c-0.99,0-1.8-0.81-1.8-1.8S45.74,208.74,46.73,208.74z"/>
	</g>
</g>
<g>
	<g>
		<path class="st1" d="M344.65,146.79c2.98,0,5.4-2.42,5.4-5.4c0-0.99,0.81-1.8,1.8-1.8c0.99,0,1.8,0.81,1.8,1.8
			c0,2.98,2.42,5.4,5.4,5.4c0.99,0,1.8,0.81,1.8,1.8c0,0.99-0.81,1.8-1.8,1.8c-2.98,0-5.4,2.42-5.4,5.4c0,0.99-0.81,1.8-1.8,1.8
			c-0.99,0-1.8-0.81-1.8-1.8c0-2.98-2.42-5.4-5.4-5.4c-0.99,0-1.8-0.81-1.8-1.8C342.85,147.6,343.66,146.79,344.65,146.79z"/>
	</g>
</g>
<g>
	<g>
		<path class="st1" d="M225.08,49.66c2.98,0,5.4-2.42,5.4-5.4c0-0.99,0.81-1.8,1.8-1.8c0.99,0,1.8,0.81,1.8,1.8
			c0,2.98,2.42,5.4,5.4,5.4c0.99,0,1.8,0.81,1.8,1.8s-0.81,1.8-1.8,1.8c-2.98,0-5.4,2.42-5.4,5.4c0,0.99-0.81,1.8-1.8,1.8
			c-0.99,0-1.8-0.81-1.8-1.8c0-2.98-2.42-5.4-5.4-5.4c-0.99,0-1.8-0.81-1.8-1.8S224.09,49.66,225.08,49.66z"/>
	</g>
</g>
<g>
	<circle class="st1" cx="278.96" cy="76" r="4.5"/>
</g>
<g>
	<circle class="st1" cx="219.87" cy="144.09" r="4.5"/>
</g>
<g>
	<circle class="st1" cx="153.77" cy="279.31" r="4.5"/>
</g>
<path class="st1" d="M91.52,286.54h-6v-6c0-1.66-1.34-3-3-3s-3,1.34-3,3v6h-6c-1.66,0-3,1.34-3,3s1.34,3,3,3h6v6c0,1.66,1.34,3,3,3
	s3-1.34,3-3v-6h6c1.66,0,3-1.34,3-3S93.17,286.54,91.52,286.54z"/>
<g>
	<g>
		<circle class="st1" cx="291.72" cy="110.65" r="3"/>
	</g>
</g>
<g>
	<g>
		<circle class="st1" cx="117.2" cy="262" r="3"/>
	</g>
</g>
<g>
	<g>
		<circle class="st1" cx="51.05" cy="246.62" r="3"/>
	</g>
</g>
<g>
	<g>
		<circle class="st1" cx="111.2" cy="349.54" r="3"/>
	</g>
</g>
<g>
	<g>
		<circle class="st1" cx="153.77" cy="213.54" r="3"/>
	</g>
</g>
<g>
	<g>
		<circle class="st1" cx="48.05" cy="328.95" r="3"/>
	</g>
</g>
<g>
	<g>
		<circle class="st1" cx="232.28" cy="89.94" r="3"/>
	</g>
</g>
<g>
	<g>
		<circle class="st1" cx="329.46" cy="89.94" r="3"/>
	</g>
</g>
<g>
	<g>
		<path class="st2" d="M190.2,121.23c0-5.06-0.45-9.94-1.3-14.61h-67.27v27.63h38.44c-1.66,8.93-6.69,16.49-14.25,21.56v17.92h23.08
			C182.41,161.29,190.2,142.98,190.2,121.23L190.2,121.23L190.2,121.23z M190.2,121.23"/>
	</g>
	<g>
		<path class="st3" d="M121.63,191.03c19.29,0,35.45-6.4,47.27-17.31l-23.08-17.92c-6.4,4.29-14.58,6.82-24.19,6.82
			c-18.6,0-34.35-12.57-39.97-29.45H57.8v18.51C69.55,175.02,93.71,191.03,121.63,191.03L121.63,191.03L121.63,191.03z
			 M121.63,191.03"/>
	</g>
	<g>
		<path class="st4" d="M81.67,133.17c-1.43-4.29-2.24-8.86-2.24-13.57c0-4.71,0.81-9.29,2.24-13.57V87.52H57.8
			c-4.84,9.64-7.6,20.55-7.6,32.08s2.76,22.44,7.6,32.08L81.67,133.17L81.67,133.17L81.67,133.17z M81.67,133.17"/>
	</g>
	<g>
		<path class="st5" d="M121.63,76.58c10.49,0,19.9,3.6,27.31,10.68l20.49-20.49c-12.37-11.53-28.54-18.6-47.79-18.6
			c-27.92,0-52.08,16.01-63.83,39.35l23.86,18.51C87.28,89.15,103.03,76.58,121.63,76.58L121.63,76.58L121.63,76.58z M121.63,76.58"
			/>
	</g>
</g>
<g>
	<g>
		<path class="st6" d="M266.46,216.1h-60c-1.66,0-3-1.34-3-3v-20c0-18.2,14.8-33,33-33s33,14.8,33,33v20
			C269.46,214.76,268.12,216.1,266.46,216.1z M209.46,210.1h54v-17c0-14.89-12.11-27-27-27s-27,12.11-27,27V210.1z"/>
	</g>
	<g>
		<path class="st6" d="M310.96,216.1h-60c-1.66,0-3-1.34-3-3v-20c0-18.2,14.8-33,33-33s33,14.8,33,33v20
			C313.96,214.76,312.62,216.1,310.96,216.1z M253.96,210.1h54v-17c0-14.89-12.11-27-27-27s-27,12.11-27,27V210.1z"/>
	</g>
	<g>
		<g>
			<path class="st7" d="M286.46,356.1c-1.66,0-3-1.34-3-3v-140c0-1.66,1.34-3,3-3h43c1.66,0,3,1.34,3,3v140c0,1.66-1.34,3-3,3
				H286.46z"/>
		</g>
		<g>
			<g>
				<path class="st6" d="M329.46,213.1v140h-43v-140H329.46 M329.46,207.1h-43c-3.31,0-6,2.69-6,6v140c0,3.31,2.69,6,6,6h43
					c3.31,0,6-2.69,6-6v-140C335.46,209.79,332.77,207.1,329.46,207.1L329.46,207.1z"/>
			</g>
		</g>
	</g>
	<g>
		<polygon class="st8" points="329.46,213.1 310.96,213.1 310.96,333.1 329.46,353.1 		"/>
	</g>
	<g>
		<polygon class="st9" points="310.96,213.1 292.46,213.1 292.46,353.1 310.96,333.1 		"/>
	</g>
	<g>
		<g>
			<path class="st1" d="M186.46,356.1c-1.66,0-3-1.34-3-3v-140c0-1.66,1.34-3,3-3h100c1.66,0,3,1.34,3,3v140c0,1.66-1.34,3-3,3
				H186.46z"/>
		</g>
		<g>
			<path class="st6" d="M286.46,213.1v140h-100v-140H286.46 M286.46,207.1h-100c-3.31,0-6,2.69-6,6v140c0,3.31,2.69,6,6,6h100
				c3.31,0,6-2.69,6-6v-140C292.46,209.79,289.77,207.1,286.46,207.1L286.46,207.1z"/>
		</g>
	</g>
	<g>
		<path class="st6" d="M310.96,336.1c-1.66,0-3-1.34-3-3v-120c0-1.66,1.34-3,3-3s3,1.34,3,3v120
			C313.96,334.76,312.62,336.1,310.96,336.1z"/>
	</g>
	<g>
		<path class="st6" d="M329.46,356.1c-0.81,0-1.61-0.32-2.2-0.96l-16.3-17.62l-16.3,17.62c-1.12,1.22-3.02,1.29-4.24,0.17
			c-1.22-1.12-1.29-3.02-0.17-4.24l18.5-20c1.13-1.23,3.27-1.23,4.4,0l18.5,20c1.12,1.22,1.05,3.11-0.17,4.24
			C330.92,355.84,330.19,356.1,329.46,356.1z"/>
	</g>
</g>
</svg>
