<?xml version="1.0" encoding="utf-8"?>
<!-- Generator: Adobe Illustrator 26.5.0, SVG Export Plug-In . SVG Version: 6.00 Build 0)  -->
<svg version="1.1" id="chapter-03_00000042722969222025837870000016121654407945906877_"
	 xmlns="http://www.w3.org/2000/svg" xmlns:xlink="http://www.w3.org/1999/xlink" x="0px" y="0px" viewBox="0 0 300 300"
	 style="enable-background:new 0 0 300 300;" xml:space="preserve">
<style type="text/css">
	.st0{fill:#FBB040;}
	.st1{fill:#515979;}
	.st2{fill:#F8D886;}
	.st3{fill:#EF7D7D;}
	.st4{fill:#D26E78;}
	.st5{fill:#F89D81;}
	.st6{fill:#9E8271;}
	.st7{fill:#7DDF96;}
	.st8{fill:#00C853;}
	.st9{fill:#ACC9DB;}
	.st10{fill:#75A5C3;}
	.st11{fill:#C8DBE7;}
	.st12{fill:#FFFFFF;}
	.st13{fill:#6ADAF7;}
	.st14{fill:#D2F4FD;}
	.st15{fill:none;}
	.st16{fill:#FFD886;}
</style>
<path class="st0" d="M156,285.5c-11.94,0-18-2.02-18-6v-12c0-1.66,1.34-3,3-3h30c1.66,0,3,1.34,3,3v12
	C174,283.48,167.94,285.5,156,285.5z"/>
<path class="st1" d="M171,261.5h-30c-3.31,0-6,2.69-6,6v12c0,4.09,3.1,6.78,9.22,8c3.21,0.64,7.39,1,11.78,1s8.57-0.35,11.78-1
	c6.12-1.22,9.22-3.92,9.22-8v-12C177,264.19,174.31,261.5,171,261.5z M141,279.5v-12h6.18c-0.11,0.31-0.18,0.65-0.18,1v13.4
	C143.36,281.35,141,280.48,141,279.5z M153,282.44V268.5c0-0.35-0.07-0.69-0.18-1h6.37c-0.11,0.31-0.18,0.65-0.18,1v13.94
	c-0.97,0.04-1.97,0.06-3,0.06S153.97,282.48,153,282.44z M171,279.5c0,0.98-2.36,1.85-6,2.4v-13.4c0-0.35-0.07-0.69-0.18-1H171
	V279.5z"/>
<ellipse class="st2" cx="156" cy="267.5" rx="18" ry="6"/>
<path class="st1" d="M156,264.5c8.28,0,15,1.34,15,3s-6.72,3-15,3s-15-1.34-15-3S147.72,264.5,156,264.5 M156,258.5
	c-4.39,0-8.57,0.35-11.78,1c-6.12,1.22-9.22,3.92-9.22,8s3.1,6.78,9.22,8c3.21,0.64,7.39,1,11.78,1s8.57-0.35,11.78-1
	c6.12-1.22,9.22-3.92,9.22-8s-3.1-6.78-9.22-8C164.57,258.85,160.39,258.5,156,258.5L156,258.5z"/>
<path class="st3" d="M235,295.5c-9.49,0-18.43-0.53-25.17-1.49c-8.98-1.28-12.63-3.04-12.82-6.24l-9.98-69.84
	c-0.12-0.86,0.13-1.73,0.7-2.39c0.57-0.66,1.4-1.03,2.27-1.03h90c0.87,0,1.7,0.38,2.27,1.03c0.57,0.66,0.83,1.53,0.7,2.39
	l-9.98,69.84c-0.19,3.19-3.84,4.95-12.82,6.24C253.43,294.97,244.49,295.5,235,295.5z"/>
<path class="st1" d="M280,217.5L280,217.5 M280,217.5l-10,70c0,2.76-15.67,5-35,5s-35-2.24-35-5l-10-70H280 M280.01,211.5
	L280.01,211.5H190c-1.74,0-3.39,0.75-4.53,2.07c-1.14,1.31-1.65,3.06-1.41,4.78l9.96,69.72c0.49,6.78,9.77,8.11,15.38,8.91
	c6.88,0.98,15.97,1.52,25.6,1.52s18.71-0.54,25.6-1.52c5.61-0.8,14.89-2.13,15.38-8.91l9.93-69.52c0.06-0.34,0.09-0.69,0.09-1.05
	C286,214.19,283.32,211.5,280.01,211.5L280.01,211.5z M280,223.5L280,223.5L280,223.5L280,223.5z"/>
<path class="st4" d="M190,217.5l2.59,18.11c6.65,1.69,23.13,2.89,42.41,2.89s35.76-1.2,42.41-2.89L280,217.5H190z"/>
<path class="st3" d="M235,225.5c-13.45,0-26.11-0.53-35.65-1.48c-11.75-1.17-17.35-2.45-17.35-6.52v-20c0-1.66,1.34-3,3-3h100
	c1.66,0,3,1.34,3,3v20c0,4.07-5.59,5.35-17.35,6.52C261.11,224.97,248.45,225.5,235,225.5z"/>
<path class="st1" d="M285,197.5v20c0,2.76-22.39,5-50,5s-50-2.24-50-5v-20H285 M285,191.5H185c-3.31,0-6,2.69-6,6v20
	c0,5.76,6.43,7.29,8.55,7.79c2.78,0.66,6.64,1.24,11.5,1.72c9.64,0.96,22.4,1.49,35.95,1.49s26.32-0.53,35.95-1.49
	c4.85-0.49,8.72-1.06,11.5-1.72c2.11-0.5,8.55-2.02,8.55-7.79v-20C291,194.19,288.31,191.5,285,191.5L285,191.5z"/>
<path class="st5" d="M185,197.5v10c0,2.76,22.39,5,50,5s50-2.24,50-5v-10H185z"/>
<path class="st4" d="M235,205.5c-13.45,0-26.11-0.53-35.65-1.48c-11.75-1.17-17.35-2.45-17.35-6.52s5.59-5.35,17.35-6.52
	c9.54-0.95,22.2-1.48,35.65-1.48s26.11,0.53,35.65,1.48c11.75,1.17,17.35,2.45,17.35,6.52s-5.59,5.35-17.35,6.52
	C261.11,204.97,248.45,205.5,235,205.5z"/>
<path class="st1" d="M235,192.5c27.61,0,50,2.24,50,5s-22.39,5-50,5s-50-2.24-50-5S207.39,192.5,235,192.5 M235,186.5
	c-13.55,0-26.32,0.53-35.95,1.49c-4.85,0.49-8.72,1.06-11.5,1.72c-2.11,0.5-8.55,2.02-8.55,7.79s6.43,7.29,8.55,7.79
	c2.78,0.66,6.64,1.24,11.5,1.72c9.64,0.96,22.4,1.49,35.95,1.49s26.32-0.53,35.95-1.49c4.85-0.49,8.72-1.06,11.5-1.72
	c2.11-0.5,8.55-2.02,8.55-7.79s-6.43-7.29-8.55-7.79c-2.78-0.66-6.64-1.24-11.5-1.72C261.32,187.03,248.55,186.5,235,186.5
	L235,186.5z"/>
<path class="st6" d="M235,178.5c-18.86,0-35.11,8.94-42.19,21.68c8.87,1.39,24.45,2.32,42.19,2.32s33.32-0.93,42.19-2.32
	C270.11,187.44,253.86,178.5,235,178.5z"/>
<path class="st1" d="M269.06,186.41c-9.16-7.03-21.26-10.91-34.06-10.91s-24.89,3.87-34.06,10.91c-4.95,3.8-8.75,8.29-11.28,13.2
	c1.7,0.37,3.83,0.71,6.33,1.02c6.83-11.29,21.73-19.13,39.01-19.13s32.18,7.83,39.01,19.13c2.5-0.31,4.63-0.65,6.33-1.02
	C277.81,194.69,274.01,190.21,269.06,186.41z"/>
<path class="st7" d="M227.27,196.06c4.42-4.42,11.58-4.42,16,0c1.95-1.95,4.43-3.03,6.97-3.26c-2.63-13.1-6.7-25.87-12.16-38.13
	c-0.49-1.1-1.58-1.78-2.74-1.78c-0.26,0-0.52,0.03-0.78,0.1l-25.11,6.73c-0.85,0.23-1.55,0.81-1.93,1.61
	c-0.38,0.79-0.39,1.71-0.03,2.51c4.19,9.41,7.53,19.12,10,29.06C220.95,192.35,224.61,193.39,227.27,196.06z"/>
<path class="st1" d="M220.56,192.82c-2.53-10.34-5.99-20.45-10.33-30.21c8.37-2.24,16.74-4.49,25.11-6.73
	c5.37,12.06,9.38,24.67,11.97,37.58c1.93-0.72,4.01-0.9,6.01-0.53c-2.67-13.57-6.85-26.8-12.5-39.49c-0.98-2.21-3.16-3.56-5.48-3.56
	c-0.51,0-1.04,0.07-1.55,0.21l-25.11,6.73c-1.7,0.45-3.11,1.63-3.86,3.21c-0.76,1.58-0.78,3.42-0.07,5.02
	c4.14,9.29,7.43,18.89,9.87,28.7C216.49,192.91,218.55,192.59,220.56,192.82z"/>
<path class="st8" d="M230.5,188.15c0.66-0.18,0.71-0.88,0.49-2.21c-0.34-2.33-0.43-4.24,2.24-5.1c1.72-0.46,3.23,0.31,4.13,2.26
	c0.42-0.11,0.84-0.23,1.26-0.34c0.23,0.82,0.45,1.64,0.66,2.47c-0.42,0.11-0.84,0.23-1.26,0.34c0.12,1.4-0.36,2.53-1.42,3.42
	c-0.04,0.05-0.07,0.07-0.11,0.1c-0.11,0.09-0.21,0.18-0.32,0.26c-0.56-0.71-1.12-1.42-1.68-2.12c0.14-0.13,0.27-0.25,0.41-0.38
	c0.55-0.5,0.76-1.01,0.52-1.92c-0.31-1.17-0.7-1.59-1.4-1.41c-0.61,0.16-0.64,0.91-0.44,2.22c0.35,2.24,0.33,4.36-2.34,5.07
	c-1.76,0.47-3.24-0.37-4.15-2.31c-0.44,0.12-0.88,0.23-1.31,0.35c-0.21-0.82-0.43-1.65-0.66-2.47c0.43-0.11,0.85-0.23,1.28-0.34
	c-0.2-1.68,0.3-2.94,1.49-3.81c0.15-0.1,0.29-0.21,0.44-0.31c0.53,0.74,1.06,1.48,1.58,2.22c-0.14,0.11-0.28,0.22-0.42,0.32
	c-0.6,0.44-0.76,1.14-0.51,2.08C229.29,187.8,229.79,188.33,230.5,188.15z"/>
<path class="st8" d="M235.55,164.08c-2.67,0.72-5.64-0.8-6.73-3.36c-3.22,0.86-6.44,1.73-9.66,2.59c1.09,2.55-0.26,5.23-2.93,5.95
	c1.67,4.24,3.17,8.55,4.5,12.9c1.65-2.73,4.67-5,8.56-6.04c3.88-1.04,7.8-0.63,10.76,0.87
	C238.72,172.62,237.22,168.32,235.55,164.08z M223.59,170.39c-0.58-1.56,0.44-3.22,2.3-3.72c1.87-0.5,3.88,0.35,4.46,1.91
	s-0.48,3.24-2.35,3.74C226.13,172.81,224.17,171.94,223.59,170.39z"/>
<path class="st1" d="M261.12,192.94c-2.7-2.7-6.3-4.19-10.12-4.19c-2.89,0-5.66,0.86-8,2.44c-2.34-1.59-5.11-2.44-8-2.44
	s-5.66,0.86-8,2.44c-2.34-1.59-5.11-2.44-8-2.44c-3.82,0-7.42,1.49-10.12,4.19c-1.17,1.17-1.17,3.07,0,4.24s3.07,1.17,4.24,0
	c1.57-1.57,3.66-2.44,5.88-2.44s4.31,0.87,5.88,2.44c0.58,0.59,1.35,0.88,2.12,0.88l0,0c0.77,0,1.54-0.29,2.12-0.88
	c1.57-1.57,3.66-2.44,5.88-2.44s4.31,0.87,5.88,2.44c0.58,0.59,1.35,0.88,2.12,0.88l0,0c0.77,0,1.54-0.29,2.12-0.88
	c1.57-1.57,3.66-2.44,5.88-2.44s4.31,0.87,5.88,2.44c0.58,0.59,1.35,0.88,2.12,0.88s1.54-0.29,2.12-0.88
	C262.29,196.01,262.29,194.11,261.12,192.94z"/>
<path class="st9" d="M59.79,91c-11.49,0-22.28-4.47-30.41-12.59C21.26,70.28,16.79,59.49,16.79,48s4.47-22.28,12.59-30.41
	C37.51,9.47,48.3,5,59.79,5S82.07,9.47,90.2,17.59c8.12,8.12,12.59,18.92,12.59,30.41S98.32,70.28,90.2,78.41
	C82.07,86.53,71.28,91,59.79,91z M59.79,21c-7.21,0-13.99,2.81-19.09,7.91c-10.53,10.53-10.53,27.66,0,38.18
	C45.8,72.19,52.58,75,59.79,75s13.99-2.81,19.09-7.91c10.53-10.53,10.53-27.66,0-38.18C73.78,23.81,67,21,59.79,21z"/>
<path class="st1" d="M59.79,8c10.24,0,20.47,3.91,28.28,11.72c15.62,15.62,15.62,40.95,0,56.57C80.26,84.09,70.03,88,59.79,88
	s-20.47-3.91-28.28-11.72c-15.62-15.62-15.62-40.95,0-56.57C39.32,11.91,49.55,8,59.79,8 M59.79,78c7.68,0,15.36-2.93,21.21-8.79
	C92.72,57.5,92.72,38.5,81,26.79C75.15,20.93,67.47,18,59.79,18s-15.36,2.93-21.21,8.79c-11.72,11.72-11.72,30.71,0,42.43
	C44.44,75.07,52.11,78,59.79,78 M59.79,2C47.5,2,35.95,6.78,27.26,15.47c-17.94,17.94-17.94,47.12,0,65.05
	C35.95,89.22,47.5,94,59.79,94s23.84-4.78,32.53-13.47c17.94-17.94,17.94-47.12,0-65.05C83.63,6.78,72.08,2,59.79,2L59.79,2z
	 M59.79,72c-6.41,0-12.44-2.5-16.97-7.03c-9.36-9.36-9.36-24.58,0-33.94C47.35,26.5,53.38,24,59.79,24s12.44,2.5,16.97,7.03
	c9.36,9.36,9.36,24.58,0,33.94C72.23,69.5,66.2,72,59.79,72L59.79,72z"/>
<path class="st10" d="M88.07,76.28c15.62-15.62,15.62-40.95,0-56.57c-0.96-0.96-1.96-1.86-2.99-2.7l-8.17,6.36
	c1.44,1,2.81,2.13,4.09,3.42C92.72,38.5,92.72,57.5,81,69.21s-30.71,11.72-42.43,0c-3.13-3.13-5.42-6.79-6.88-10.68l-8.18,6.36
	c1.92,4.12,4.58,7.99,7.98,11.39C47.13,91.91,72.45,91.91,88.07,76.28z"/>
<path class="st9" d="M99.39,154.24c-1.01,0-1.98-0.51-2.54-1.4c-0.69-1.1-0.6-2.52,0.23-3.52l20.51-24.75
	c0.54-0.65,1.32-1.04,2.16-1.08l72.83-3.54c0.05,0,0.1,0,0.15,0c1.29,0,2.44,0.82,2.84,2.05l1.41,4.24
	c0.26,0.79,0.19,1.66-0.21,2.39c-0.4,0.73-1.09,1.26-1.89,1.47l-94.75,24.04C99.88,154.21,99.63,154.24,99.39,154.24z"/>
<path class="st1" d="M192.73,122.95l1.41,4.24l-94.75,24.04l20.51-24.75L192.73,122.95 M192.73,116.95c-0.1,0-0.19,0-0.29,0.01
	l-72.83,3.54c-1.68,0.08-3.25,0.87-4.33,2.16l-20.51,24.75c-1.66,2-1.84,4.84-0.45,7.03c1.12,1.77,3.05,2.79,5.07,2.79
	c0.49,0,0.99-0.06,1.48-0.18l94.75-24.04c1.62-0.41,2.99-1.47,3.79-2.94c0.8-1.46,0.95-3.19,0.43-4.78l-1.41-4.24
	C197.6,118.6,195.3,116.95,192.73,116.95L192.73,116.95z"/>
<polygon class="st11" points="192.73,122.95 119.89,126.49 114.24,133.56 192.73,125.78 "/>
<path class="st10" d="M192.73,122.95l-24.29,1.18c-1.87,3.17-2.8,6.73-2.77,10.29l26.58-6.74l1.54-1.54L192.73,122.95z"/>
<path class="st9" d="M148.89,80.9c-6.14,0-11.92-2.39-16.26-6.74c-0.56-0.56-0.88-1.33-0.88-2.12c0-0.8,0.32-1.56,0.88-2.12
	l28.28-28.28c0.59-0.59,1.35-0.88,2.12-0.88s1.54,0.29,2.12,0.88c8.97,8.97,8.97,23.56,0,32.53
	C160.81,78.51,155.03,80.9,148.89,80.9z"/>
<path class="st1" d="M163.03,43.76c7.81,7.81,7.81,20.47,0,28.28c-3.91,3.91-9.02,5.86-14.14,5.86s-10.24-1.95-14.14-5.86
	L163.03,43.76 M163.03,37.76c-1.59,0-3.12,0.63-4.24,1.76L130.5,67.8c-1.13,1.13-1.76,2.65-1.76,4.24s0.63,3.12,1.76,4.24
	c4.91,4.91,11.44,7.62,18.38,7.62s13.47-2.7,18.38-7.62c10.14-10.14,10.14-26.63,0-36.77C166.15,38.39,164.62,37.76,163.03,37.76
	L163.03,37.76z"/>
<path class="st11" d="M163.03,43.76l-2.41,2.41c5.14,7.77,4.3,18.33-2.54,25.17c-3.99,3.99-9.25,5.93-14.47,5.84
	c6.7,1.83,14.16,0.13,19.42-5.13C170.84,64.23,170.84,51.57,163.03,43.76z"/>
<path class="st9" d="M88.78,170.5c-0.79,0-1.56-0.31-2.12-0.88L8.88,91.84c-0.61-0.61-0.93-1.45-0.87-2.31
	c0.05-0.86,0.47-1.65,1.15-2.18l95.46-74.25c0.54-0.42,1.19-0.63,1.84-0.63c0.77,0,1.54,0.3,2.12,0.88l56.57,56.57
	c1.07,1.07,1.18,2.77,0.25,3.96l-74.25,95.46c-0.53,0.68-1.32,1.1-2.18,1.15C88.91,170.5,88.84,170.5,88.78,170.5z"/>
<path class="st1" d="M106.46,15.47l56.57,56.57L88.78,167.5L11,89.72L106.46,15.47 M106.46,9.47c-1.29,0-2.59,0.42-3.68,1.26
	L7.32,84.98c-1.36,1.06-2.2,2.65-2.3,4.36s0.53,3.4,1.75,4.62l77.78,77.78c1.13,1.13,2.66,1.76,4.24,1.76c0.12,0,0.25,0,0.37-0.01
	c1.72-0.11,3.31-0.95,4.36-2.3l74.25-95.46c1.86-2.39,1.65-5.79-0.49-7.93L110.7,11.23C109.54,10.07,108,9.47,106.46,9.47
	L106.46,9.47z"/>
<path class="st1" d="M102.15,98.86c-0.86,0-1.65-0.56-1.91-1.42c-0.62-2.06-2.97-4.41-5.03-5.03c-1.06-0.32-1.66-1.43-1.34-2.49
	c0.32-1.06,1.44-1.66,2.49-1.34c3.32,1,6.7,4.38,7.7,7.7c0.32,1.06-0.28,2.17-1.34,2.49C102.53,98.83,102.34,98.86,102.15,98.86z"/>
<circle class="st1" cx="104.45" cy="88.2" r="7"/>
<circle class="st12" cx="105.68" cy="89.44" r="1.75"/>
<path class="st1" d="M110.13,74.06c4.34,0.24,8.42,3.59,9.09,7.99c0.38,2.19-0.18,6.34-3.17,5.4c-0.72-0.27-1.08-0.91-1.3-1.57
	c-0.84-2.53-1.78-4.31-3.72-6.1c-0.81-0.82-1.87-1.56-2.53-2.48C107.38,76.03,108.48,73.92,110.13,74.06L110.13,74.06z"/>
<path class="st1" d="M85.18,81.89c-0.86,0-1.65-0.56-1.91-1.42c-0.62-2.06-2.97-4.41-5.03-5.03c-1.06-0.32-1.66-1.44-1.34-2.49
	c0.32-1.06,1.44-1.66,2.49-1.34c3.32,1,6.7,4.38,7.7,7.7c0.32,1.06-0.28,2.17-1.34,2.49C85.56,81.86,85.37,81.89,85.18,81.89z"/>
<circle class="st1" cx="87.47" cy="71.23" r="7"/>
<circle class="st12" cx="88.71" cy="72.46" r="1.75"/>
<path class="st1" d="M97.78,66.68c-1.14-1.18-2.38-2.74-3.69-3.68c-1.44-1.14-2.94-1.55-4.74-2.27c-1.05-0.43-1.55-1.62-1.13-2.67
	c0.21-0.53,0.63-0.92,1.12-1.12c1.28-0.53,2.78-0.78,4.28-0.5c3.66,0.53,6.65,3.58,7.63,7.01c0.49,1.57,0.76,3.95-1.51,4.17
	C98.95,67.71,98.32,67.16,97.78,66.68L97.78,66.68z"/>
<path class="st1" d="M96.56,98.91l-19.8-19.8c-0.98-0.98-2.26-1.46-3.54-1.46s-2.56,0.49-3.54,1.46c-3.59,3.59-5.57,8.36-5.57,13.43
	c0,5.08,1.98,9.85,5.57,13.44c3.59,3.59,8.36,5.56,13.43,5.56s9.85-1.98,13.44-5.56C98.51,104.03,98.51,100.86,96.56,98.91z"/>
<path class="st3" d="M73.23,102.45c2.93,2.93,6.83,4.27,10.66,4.06c0.21-3.83-1.14-7.74-4.06-10.66c-2.93-2.93-6.83-4.27-10.66-4.06
	C68.95,95.62,70.3,99.52,73.23,102.45z"/>
<polygon class="st11" points="159.93,76.02 102.48,18.57 106.46,15.47 163.03,72.04 "/>
<path class="st9" d="M185.66,151.41c-0.8,0-1.56-0.32-2.12-0.88c-8.97-8.97-8.97-23.56,0-32.53c4.34-4.34,10.12-6.74,16.26-6.74
	s11.92,2.39,16.26,6.74c1.17,1.17,1.17,3.07,0,4.24l-28.28,28.28C187.21,151.09,186.45,151.41,185.66,151.41z"/>
<path class="st1" d="M199.8,114.27c5.12,0,10.24,1.95,14.14,5.86l-28.28,28.28c-7.81-7.81-7.81-20.47,0-28.28
	C189.56,116.22,194.68,114.27,199.8,114.27 M199.8,108.27c-6.94,0-13.47,2.7-18.38,7.62c-4.91,4.91-7.62,11.44-7.62,18.38
	s2.7,13.47,7.62,18.38c1.17,1.17,2.71,1.76,4.24,1.76c1.54,0,3.07-0.59,4.24-1.76l28.28-28.28c2.34-2.34,2.34-6.14,0-8.49
	C213.27,110.97,206.74,108.27,199.8,108.27L199.8,108.27z"/>
<path class="st11" d="M210.61,123.45l3.33-3.33c-7.81-7.81-20.47-7.81-28.28,0c-4.67,4.67-6.53,11.08-5.61,17.14
	c0.62-4.08,2.47-8,5.61-11.14C192.44,119.34,202.87,118.46,210.61,123.45z"/>
<circle class="st10" cx="111.33" cy="106.77" r="2"/>
<circle class="st10" cx="68.91" cy="64.34" r="2"/>
<circle class="st10" cx="109.21" cy="115.96" r="2"/>
<circle class="st10" cx="66.79" cy="73.53" r="2"/>
<circle class="st10" cx="102.14" cy="108.89" r="2"/>
<circle class="st10" cx="59.71" cy="66.46" r="2"/>
<path class="st13" d="M225.37,147.15c-1.76,0-3.47-0.62-4.82-1.76c-2.67-2.24-3.58-8.69-3.79-10.61c-0.08-0.68,0.13-1.36,0.57-1.88
	s1.07-0.84,1.75-0.89c0.04,0,0.94-0.06,2.21-0.06c6.57,0,8.32,1.47,8.9,1.95c1.53,1.29,2.48,3.1,2.65,5.09
	c0.17,2-0.44,3.94-1.73,5.47C229.69,146.17,227.59,147.15,225.37,147.15z"/>
<path class="st1" d="M221.29,134.45c2.3,0,5.9,0.2,7.29,1.37c2.12,1.77,2.39,4.93,0.62,7.04c-0.99,1.18-2.41,1.79-3.83,1.79
	c-1.13,0-2.27-0.38-3.21-1.17c-2.12-1.77-2.91-8.97-2.91-8.97S220.09,134.45,221.29,134.45 M221.29,129.45L221.29,129.45
	c-1.32,0-2.27,0.06-2.37,0.06c-1.36,0.09-2.63,0.73-3.51,1.78c-0.88,1.05-1.29,2.41-1.14,3.77c0.38,3.43,1.49,9.59,4.67,12.25
	c1.8,1.51,4.08,2.34,6.43,2.34c2.97,0,5.76-1.3,7.66-3.57c1.72-2.05,2.53-4.64,2.3-7.3s-1.49-5.07-3.53-6.79
	C230.5,130.9,228,129.45,221.29,129.45L221.29,129.45z"/>
<ellipse transform="matrix(0.8202 -0.5721 0.5721 0.8202 -38.5888 154.66)" class="st14" cx="226.74" cy="138.72" rx="1.74" ry="2.2"/>
<path class="st13" d="M206.28,168.64c-3.64,0-6.75-2.61-7.38-6.2c-0.61-3.44,2.84-8.96,3.92-10.57c0.38-0.57,0.97-0.96,1.65-1.08
	c0.14-0.03,0.29-0.04,0.43-0.04c0.53,0,1.05,0.17,1.48,0.49c1.56,1.15,6.69,5.15,7.29,8.59c0.72,4.07-2.01,7.97-6.08,8.69
	C207.15,168.6,206.71,168.64,206.28,168.64z"/>
<path class="st1" d="M204.89,153.26c0,0,5.83,4.29,6.31,7.01s-1.34,5.31-4.06,5.79c-0.29,0.05-0.59,0.08-0.87,0.08
	c-2.38,0-4.49-1.71-4.92-4.13C200.88,159.29,204.89,153.26,204.89,153.26 M204.89,148.26c-0.29,0-0.58,0.03-0.87,0.08
	c-1.35,0.24-2.54,1.02-3.29,2.15c-1.91,2.87-5.02,8.3-4.3,12.39c0.84,4.79,4.98,8.26,9.84,8.26c0.58,0,1.17-0.05,1.74-0.15
	c2.63-0.46,4.92-1.92,6.46-4.11c1.53-2.19,2.12-4.84,1.66-7.47c-0.72-4.08-5.49-8.12-8.27-10.17
	C206.99,148.59,205.95,148.26,204.89,148.26L204.89,148.26z"/>
<ellipse transform="matrix(0.9967 -0.0809 0.0809 0.9967 -12.322 17.3331)" class="st14" cx="207.74" cy="160.72" rx="1.74" ry="2.2"/>
<path class="st1" d="M250.53,252.08c-1.1,0-2-0.9-2-2c0-1.65-1.35-3-3-3s-3,1.35-3,3c0,1.1-0.9,2-2,2s-2-0.9-2-2c0-3.86,3.14-7,7-7
	s7,3.14,7,7C252.53,251.18,251.63,252.08,250.53,252.08z"/>
<path class="st1" d="M243.09,235.14c3.57-2.19,8.99-1.73,11.44,1.9c0.84,1.2-0.31,2.92-1.73,2.64c-1.57-0.27-2.86-0.63-4.4-0.83
	c-1.46-0.21-3.36-0.28-4.78-0.61C242.17,237.97,241.83,235.87,243.09,235.14L243.09,235.14z"/>
<path class="st1" d="M229.47,252.08c-1.1,0-2-0.9-2-2c0-1.65-1.35-3-3-3s-3,1.35-3,3c0,1.1-0.9,2-2,2s-2-0.9-2-2c0-3.86,3.14-7,7-7
	s7,3.14,7,7C231.47,251.18,230.58,252.08,229.47,252.08z"/>
<path class="st1" d="M225.94,238.33c-1.25,0.24-3.08,0.34-4.36,0.52c-1.54,0.19-2.82,0.55-4.39,0.82c-1.44,0.29-2.55-1.45-1.73-2.64
	c1.78-2.76,5.51-3.65,8.57-3.02c1.54,0.29,4.61,1.32,3.41,3.46C227.11,238.04,226.53,238.24,225.94,238.33L225.94,238.33z"/>
<path class="st1" d="M235.28,263.31c-4.22,0-8.54-1.08-12.29-3.25c-0.96-0.55-1.28-1.78-0.73-2.73c0.55-0.96,1.77-1.28,2.73-0.73
	c6.17,3.57,14.54,3.59,19.89,0.03c0.92-0.61,2.16-0.36,2.77,0.56s0.36,2.16-0.56,2.77C243.75,262.19,239.57,263.31,235.28,263.31z"
	/>
<path class="st1" d="M231.26,266.42c1.83,0.47,3.76,0.6,5.63,0.36c1.17-0.03,2.9-1.11,3.45,0.49c0.33,0.86-0.59,1.55-1.07,2.1
	c-0.61,0.66-1.32,1-2.04,1.25c-2.2,0.61-4.68,0.25-6.48-1.25l-0.74-0.66C228.94,267.79,229.93,266.02,231.26,266.42L231.26,266.42z"
	/>
<circle class="st4" cx="258" cy="259.31" r="2"/>
<circle class="st4" cx="266" cy="259.31" r="2"/>
<circle class="st4" cx="262" cy="251.31" r="2"/>
<circle class="st4" cx="204" cy="259.31" r="2"/>
<circle class="st4" cx="212" cy="259.31" r="2"/>
<circle class="st4" cx="208" cy="251.31" r="2"/>
<path class="st0" d="M180,295.5c-11.94,0-18-2.02-18-6v-12c0-1.66,1.34-3,3-3h30c1.66,0,3,1.34,3,3v12
	C198,293.48,191.94,295.5,180,295.5z"/>
<path class="st1" d="M195,271.5h-30c-3.31,0-6,2.69-6,6v12c0,4.09,3.1,6.78,9.22,8c3.21,0.64,7.39,1,11.78,1s8.57-0.35,11.78-1
	c6.12-1.22,9.22-3.92,9.22-8v-12C201,274.19,198.31,271.5,195,271.5z M165,289.5v-12h6.18c-0.11,0.31-0.18,0.65-0.18,1v13.4
	C167.36,291.35,165,290.48,165,289.5z M177,292.44V278.5c0-0.35-0.07-0.69-0.18-1h6.37c-0.11,0.31-0.18,0.65-0.18,1v13.94
	c-0.97,0.04-1.97,0.06-3,0.06S177.97,292.48,177,292.44z M195,289.5c0,0.98-2.36,1.85-6,2.4v-13.4c0-0.35-0.07-0.69-0.18-1H195
	V289.5z"/>
<ellipse class="st2" cx="180" cy="277.5" rx="18" ry="6"/>
<path class="st1" d="M180,274.5c8.28,0,15,1.34,15,3s-6.72,3-15,3s-15-1.34-15-3S171.72,274.5,180,274.5 M180,268.5
	c-4.39,0-8.57,0.35-11.78,1c-6.12,1.22-9.22,3.92-9.22,8s3.1,6.78,9.22,8c3.21,0.64,7.39,1,11.78,1s8.57-0.35,11.78-1
	c6.12-1.22,9.22-3.92,9.22-8s-3.1-6.78-9.22-8C188.57,268.85,184.39,268.5,180,268.5L180,268.5z"/>
<rect class="st15" width="300" height="300"/>
<path class="st16" d="M92.2,243.2c-2.98,0-5.4-2.42-5.4-5.4c0-0.99-0.81-1.8-1.8-1.8c-0.99,0-1.8,0.81-1.8,1.8
	c0,2.98-2.42,5.4-5.4,5.4c-0.99,0-1.8,0.81-1.8,1.8s0.81,1.8,1.8,1.8c2.98,0,5.4,2.42,5.4,5.4c0,0.99,0.81,1.8,1.8,1.8
	c0.99,0,1.8-0.81,1.8-1.8c0-2.98,2.42-5.4,5.4-5.4c0.99,0,1.8-0.81,1.8-1.8S93.19,243.2,92.2,243.2z"/>
<circle class="st16" cx="117" cy="266.5" r="2.5"/>
<circle class="st16" cx="138" cy="243" r="3"/>
<circle class="st16" cx="244" cy="48.5" r="4.5"/>
<circle class="st16" cx="115.5" cy="216.5" r="4.5"/>
<circle class="st16" cx="242" cy="86" r="3"/>
<path class="st16" d="M219,63h-7v-7c0-1.66-1.34-3-3-3s-3,1.34-3,3v7h-7c-1.66,0-3,1.34-3,3s1.34,3,3,3h7v7c0,1.66,1.34,3,3,3
	s3-1.34,3-3v-7h7c1.66,0,3-1.34,3-3S220.66,63,219,63z"/>
<path class="st16" d="M37.4,160.4c-2.65,0-4.8-2.15-4.8-4.8c0-0.88-0.72-1.6-1.6-1.6c-0.88,0-1.6,0.72-1.6,1.6
	c0,2.65-2.15,4.8-4.8,4.8c-0.88,0-1.6,0.72-1.6,1.6s0.72,1.6,1.6,1.6c2.65,0,4.8,2.15,4.8,4.8c0,0.88,0.72,1.6,1.6,1.6
	c0.88,0,1.6-0.72,1.6-1.6c0-2.65,2.15-4.8,4.8-4.8c0.88,0,1.6-0.72,1.6-1.6S38.28,160.4,37.4,160.4z"/>
<circle class="st16" cx="60" cy="184" r="3"/>
<circle class="st16" cx="33" cy="193.5" r="2.5"/>
</svg>
