<?xml version="1.0" encoding="utf-8"?>
<!-- Generator: Adobe Illustrator 26.2.1, SVG Export Plug-In . SVG Version: 6.00 Build 0)  -->
<svg version="1.1" id="PPC_x5F_Hub-PPC_x5F_Platforms"
	 xmlns="http://www.w3.org/2000/svg" xmlns:xlink="http://www.w3.org/1999/xlink" x="0px" y="0px" viewBox="0 0 400 400"
	 style="enable-background:new 0 0 400 400;" xml:space="preserve">
<style type="text/css">
	.st0{fill:none;}
	.st1{fill:#FFD886;}
	.st2{fill:#515979;}
	.st3{fill:#1877F2;}
	.st4{fill:#FF0000;}
	.st5{fill:#FFFFFF;}
	.st6{fill:#FF9900;}
	.st7{fill:#252F3E;}
	.st8{fill:#FBB040;}
	.st9{fill:#F8D886;}
	.st10{fill:#FCEBC2;}
	.st11{fill:#E08380;}
</style>
<rect class="st0" width="400" height="400"/>
<path class="st1" d="M17.8,374.2c2.98,0,5.4-2.42,5.4-5.4c0-0.99,0.81-1.8,1.8-1.8s1.8,0.81,1.8,1.8c0,2.98,2.42,5.4,5.4,5.4
	c0.99,0,1.8,0.81,1.8,1.8s-0.81,1.8-1.8,1.8c-2.98,0-5.4,2.42-5.4,5.4c0,0.99-0.81,1.8-1.8,1.8s-1.8-0.81-1.8-1.8
	c0-2.98-2.42-5.4-5.4-5.4c-0.99,0-1.8-0.81-1.8-1.8S16.81,374.2,17.8,374.2z"/>
<circle class="st1" cx="385" cy="363" r="3"/>
<circle class="st1" cx="350.5" cy="385.5" r="4.5"/>
<path class="st1" d="M202.4,311.6c2.32,0,4.2-1.88,4.2-4.2c0-0.77,0.63-1.4,1.4-1.4c0.77,0,1.4,0.63,1.4,1.4
	c0,2.32,1.88,4.2,4.2,4.2c0.77,0,1.4,0.63,1.4,1.4s-0.63,1.4-1.4,1.4c-2.32,0-4.2,1.88-4.2,4.2c0,0.77-0.63,1.4-1.4,1.4
	c-0.77,0-1.4-0.63-1.4-1.4c0-2.32-1.88-4.2-4.2-4.2c-0.77,0-1.4-0.63-1.4-1.4S201.63,311.6,202.4,311.6z"/>
<path class="st1" d="M317.8,225.2c2.98,0,5.4-2.42,5.4-5.4c0-0.99,0.81-1.8,1.8-1.8s1.8,0.81,1.8,1.8c0,2.98,2.42,5.4,5.4,5.4
	c0.99,0,1.8,0.81,1.8,1.8s-0.81,1.8-1.8,1.8c-2.98,0-5.4,2.42-5.4,5.4c0,0.99-0.81,1.8-1.8,1.8s-1.8-0.81-1.8-1.8
	c0-2.98-2.42-5.4-5.4-5.4c-0.99,0-1.8-0.81-1.8-1.8S316.81,225.2,317.8,225.2z"/>
<circle class="st1" cx="374.5" cy="194.5" r="2.5"/>
<circle class="st1" cx="71" cy="201" r="3"/>
<circle class="st1" cx="33.5" cy="230.5" r="4.5"/>
<path class="st1" d="M43,165h-6v-6c0-1.66-1.34-3-3-3s-3,1.34-3,3v6h-6c-1.66,0-3,1.34-3,3s1.34,3,3,3h6v6c0,1.66,1.34,3,3,3
	s3-1.34,3-3v-6h6c1.66,0,3-1.34,3-3S44.66,165,43,165z"/>
<circle class="st1" cx="188" cy="352" r="3"/>
<circle class="st1" cx="188.5" cy="75.5" r="4.5"/>
<circle class="st1" cx="316.5" cy="167.5" r="4.5"/>
<path class="st1" d="M182.2,25.2c-2.98,0-5.4-2.42-5.4-5.4c0-0.99-0.81-1.8-1.8-1.8c-0.99,0-1.8,0.81-1.8,1.8
	c0,2.98-2.42,5.4-5.4,5.4c-0.99,0-1.8,0.81-1.8,1.8s0.81,1.8,1.8,1.8c2.98,0,5.4,2.42,5.4,5.4c0,0.99,0.81,1.8,1.8,1.8
	c0.99,0,1.8-0.81,1.8-1.8c0-2.98,2.42-5.4,5.4-5.4c0.99,0,1.8-0.81,1.8-1.8S183.19,25.2,182.2,25.2z"/>
<circle class="st1" cx="231" cy="41" r="3"/>
<path class="st2" d="M325.01,34.45c14.9,2.63,16.65,2.99,22.49,4.3c5.4,1.21,8.19,2.64,10.02,3.75c2.43,1.47,4.07,3.01,5.68,5.31
	c1.61,2.3,2.49,4.37,3.04,7.15c0.42,2.1,0.81,5.22,0.09,10.7c-0.77,5.93-1.02,7.71-3.65,22.6c-2.63,14.9-2.99,16.65-4.3,22.49
	c-1.21,5.4-2.64,8.19-3.75,10.02c-1.47,2.43-3.01,4.07-5.31,5.68c-2.3,1.61-4.37,2.49-7.15,3.04c-2.1,0.42-5.22,0.81-10.7,0.09
	c-5.93-0.77-7.7-1.02-22.6-3.65c-14.9-2.63-16.65-3-22.49-4.3c-5.4-1.21-8.19-2.64-10.02-3.75c-2.43-1.47-4.07-3.01-5.68-5.31
	c-1.61-2.3-2.49-4.37-3.04-7.15c-0.42-2.1-0.81-5.22-0.09-10.7c0.77-5.93,1.02-7.71,3.65-22.6c2.63-14.9,2.99-16.65,4.3-22.49
	c1.21-5.4,2.64-8.19,3.75-10.02c1.47-2.43,3.01-4.07,5.31-5.68c2.3-1.61,4.37-2.49,7.15-3.04c2.1-0.42,5.22-0.81,10.7-0.09
	C308.34,31.57,310.11,31.82,325.01,34.45 M326.78,24.39c-15.15-2.67-17.07-2.94-23.06-3.72c-5.99-0.78-10.21-0.55-14,0.21
	c-3.92,0.78-7.37,2.14-11.02,4.69c-3.65,2.56-6.11,5.33-8.18,8.75c-2.01,3.31-3.66,7.2-4.98,13.09c-1.32,5.9-1.72,7.79-4.39,22.95
	c-2.67,15.15-2.94,17.07-3.72,23.06c-0.78,5.99-0.55,10.21,0.21,14c0.78,3.92,2.14,7.37,4.69,11.02c2.56,3.65,5.33,6.11,8.75,8.18
	c3.31,2.01,7.2,3.66,13.09,4.98c5.9,1.32,7.79,1.72,22.95,4.39c15.15,2.67,17.07,2.94,23.06,3.72c5.99,0.78,10.21,0.55,14-0.21
	c3.92-0.78,7.37-2.14,11.02-4.69c3.65-2.56,6.11-5.33,8.18-8.75c2.01-3.31,3.66-7.2,4.98-13.09c1.32-5.9,1.72-7.79,4.39-22.95
	c2.67-15.15,2.94-17.07,3.72-23.06c0.78-5.99,0.55-10.21-0.21-14c-0.78-3.92-2.14-7.37-4.69-11.02c-2.56-3.65-5.33-6.11-8.75-8.18
	c-3.31-2.01-7.2-3.66-13.09-4.98C343.83,27.47,341.94,27.07,326.78,24.39L326.78,24.39z"/>
<path class="st2" d="M322,51.54c-15.82-2.79-30.91,7.78-33.7,23.6s7.78,30.91,23.6,33.7c15.82,2.79,30.91-7.78,33.7-23.6
	S337.82,54.33,322,51.54z M313.67,98.79c-10.27-1.81-17.13-11.61-15.32-21.88c1.81-10.27,11.61-17.13,21.88-15.32
	c10.27,1.81,17.13,11.61,15.32,21.88C333.73,93.74,323.94,100.6,313.67,98.79z"/>
<circle class="st2" cx="351.98" cy="55.66" r="6.8"/>
<path class="st3" d="M69.35,13.01C33.58,19.32,9.7,53.42,16.01,89.18c5.7,32.32,34.1,54.93,65.92,54.33l-7.98-45.25l-16.44,2.9
	l-3.3-18.72l16.44-2.9l-2.52-14.27c-2.86-16.23,5.23-26.9,20.02-29.51c7.08-1.25,14.72-1.29,14.72-1.29l2.81,15.94l-8.17,1.44
	c-8.04,1.42-9.67,6.85-8.77,11.97l2.14,12.15l17.96-3.17l0.43,19.22L94.18,94.7l7.98,45.25c30.1-10.32,49.06-41.28,43.36-73.6
	C139.21,30.58,105.11,6.7,69.35,13.01z"/>
<path class="st4" d="M370.04,279.17c-2.02-5.55-6.88-9.63-12.69-10.65c-10.54-1.86-51.82,1.75-51.82,1.75s-41.28,3.61-51.34,7.27
	c-5.55,2.02-9.63,6.88-10.65,12.69c-1.86,10.54,0.02,32.02,0.02,32.02s1.88,21.48,5.54,31.53c2.02,5.55,6.88,9.63,12.69,10.65
	c10.54,1.86,51.82-1.75,51.82-1.75s41.28-3.61,51.34-7.27c5.55-2.02,9.63-6.88,10.65-12.69c1.86-10.54-0.02-32.02-0.02-32.02
	S373.7,289.22,370.04,279.17z"/>
<polygon class="st5" points="298.11,337.43 330.67,314.63 294.64,297.83 "/>
<path class="st6" d="M18.61,344.92c0.29-0.73,0.94-0.89,1.95-0.47c22.61,8.28,45.97,10.29,70.1,6.04
	c16.08-2.84,31.43-8.63,46.04-17.38c0.38-0.24,0.93-0.59,1.65-1.05c0.72-0.47,1.23-0.81,1.53-1.03c1.14-0.71,2.15-0.63,3.02,0.23
	c0.87,0.86,0.8,1.8-0.2,2.83c-1.29,1.33-2.96,2.89-5.01,4.69c-6.32,5.43-13.62,10.06-21.92,13.89c-8.29,3.83-16.58,6.48-24.87,7.94
	c-12.8,2.26-25.3,2.15-37.49-0.31c-12.19-2.46-23.52-6.96-33.98-13.49c-0.56-0.32-0.88-0.69-0.96-1.1
	C18.45,345.46,18.49,345.2,18.61,344.92z"/>
<path class="st7" d="M119.66,299.06c-1.62-1.49-2.78-2.58-3.49-3.25c-0.71-0.68-1.53-1.85-2.46-3.5c-0.93-1.66-1.58-3.55-1.95-5.68
	l-5.25-29.78c-0.06-0.33-0.28-1.37-0.68-3.12c-0.39-1.75-0.72-2.88-0.98-3.38c-0.26-0.5-0.67-1.43-1.25-2.76
	c-0.57-1.34-1.13-2.34-1.67-3c-0.54-0.67-1.24-1.41-2.11-2.23c-0.86-0.82-1.77-1.57-2.74-2.24c-6.1-3.91-13.83-5.05-23.19-3.4
	l-3.08,0.54c-7.23,1.7-13.26,4.79-18.1,9.28c-4.83,4.49-7.3,10.51-7.41,18.06c-0.02,0.34-0.01,0.64,0.03,0.88
	c0.2,1.15,1.03,1.76,2.48,1.85l14.46-0.77c1.27-0.48,1.92-1.57,1.96-3.26c0.11-2.73,1.02-5,2.73-6.83c1.71-1.82,3.9-3.1,6.56-3.82
	l0.98-0.17c3.69-0.65,6.62,0.1,8.77,2.26c1.47,1.6,2.66,5.03,3.59,10.28l0.37,2.09c-4.93,1.29-8.48,2.26-10.66,2.89
	c-6.34,1.96-11.55,4.28-15.65,6.95c-4.48,2.9-7.76,6.61-9.84,11.13c-2.08,4.51-2.62,9.6-1.62,15.26c1.26,7.14,4.26,12.3,9.01,15.48
	c4.75,3.18,10.28,4.21,16.6,3.1c4.1-0.72,7.48-1.74,10.12-3.05c4.21-2.01,8.18-5.93,11.89-11.74c0.4,0.35,1.12,1.05,2.15,2.1
	c1.03,1.05,1.77,1.74,2.21,2.09c0.44,0.35,1.17,0.89,2.19,1.64c1.02,0.75,2.19,1.52,3.51,2.3c1.5,0.33,2.67,0.04,3.53-0.88
	c0.49-0.59,3.62-4.44,9.38-11.55c0.57-0.61,0.8-1.24,0.68-1.9C120.64,300.33,120.28,299.72,119.66,299.06z M89.83,281.74
	c0.46,2.63,0.78,4.52,0.94,5.67c0.16,1.16,0.18,2.7,0.05,4.62c-0.13,1.93-0.5,3.75-1.13,5.47c-1.27,3.86-3.54,6.55-6.83,8.06
	c-0.16,0.03-0.46,0.12-0.9,0.29c-0.44,0.16-0.78,0.26-1.02,0.31c-2.71,0.48-5.03-0.11-6.97-1.75s-3.19-4.07-3.76-7.27
	c-1.24-7.06,1.56-12.25,8.42-15.57c2.35-1.09,5.9-2.06,10.66-2.89L89.83,281.74z"/>
<path class="st6" d="M128.88,327.64c0.11-0.36,0.29-0.73,0.56-1.11c1.81-1.76,3.61-3.05,5.41-3.87c2.97-1.37,5.93-2.36,8.87-2.96
	c0.81-0.23,1.59-0.32,2.36-0.29c3.75-0.32,6.07-0.1,6.97,0.67c0.41,0.43,0.71,1.14,0.88,2.13l0.15,0.86
	c0.51,2.87,0.32,6.39-0.55,10.57c-0.87,4.17-2.49,7.69-4.86,10.57c-0.35,0.4-0.69,0.63-1.02,0.69c-0.16,0.03-0.34,0.02-0.51-0.04
	c-0.54-0.16-0.74-0.59-0.61-1.29c1.78-7.67,2.42-12.9,1.93-15.69c-0.16-0.9-0.44-1.53-0.84-1.88c-0.99-0.84-3.38-0.93-7.15-0.26
	c-1.39,0.25-3.02,0.62-4.88,1.11c-2.01,0.61-3.85,1.19-5.53,1.74c-0.49,0.09-0.83,0.06-1.03-0.07c-0.19-0.14-0.26-0.29-0.21-0.47
	C128.81,327.95,128.83,327.82,128.88,327.64z"/>
<path class="st8" d="M201.25,253.2c-1.55,0-3.12-0.07-4.68-0.21l-15.94-1.39c-0.79-0.07-1.53-0.45-2.04-1.06
	c-0.51-0.61-0.76-1.4-0.69-2.19l8.72-99.62c0.07-0.79,0.45-1.53,1.06-2.04c0.54-0.46,1.23-0.7,1.93-0.7c0.09,0,0.17,0,0.26,0.01
	l15.94,1.39c14.1,1.23,26.88,7.89,35.98,18.73c9.1,10.84,13.43,24.58,12.2,38.69c-1.16,13.29-7.23,25.56-17.08,34.54
	C227.12,248.28,214.46,253.2,201.25,253.2C201.25,253.2,201.26,253.2,201.25,253.2z"/>
<path class="st2" d="M206.08,144.41l-15.94-1.39c-0.17-0.02-0.35-0.02-0.52-0.02c-1.4,0-2.77,0.49-3.86,1.4
	c-1.22,1.02-1.98,2.49-2.12,4.07l-8.72,99.62c-0.29,3.3,2.15,6.21,5.45,6.5l15.94,1.39c1.64,0.14,3.3,0.22,4.94,0.22
	c13.95,0,27.34-5.2,37.68-14.63c10.41-9.49,16.82-22.45,18.05-36.49C259.68,174.31,236.84,147.1,206.08,144.41z M231.97,205.9
	l18.68,1.63c-0.61,4.12-1.71,8.06-3.24,11.76l-18.48-1.62c-1.64-0.14-3.11,1.08-3.25,2.73s1.08,3.11,2.73,3.25l16.17,1.41
	c-2.41,4.19-5.4,7.98-8.85,11.27l-18.33-1.6c-1.64-0.14-3.11,1.08-3.25,2.73s1.08,3.11,2.73,3.25l12.08,1.06
	c-7.98,5.34-17.54,8.43-27.7,8.43c-1.46,0-2.93-0.06-4.41-0.19l-15.94-1.39l8.72-99.62l15.94,1.39c11.79,1.03,22.26,6.09,30.2,13.68
	l-12.08-1.06c-1.64-0.14-3.11,1.08-3.25,2.73c-0.14,1.65,1.08,3.11,2.73,3.25l18.33,1.6c2.83,3.84,5.11,8.09,6.75,12.64l-16.16-1.41
	c-1.64-0.14-3.11,1.08-3.25,2.73c-0.14,1.65,1.08,3.11,2.73,3.25l18.49,1.62c0.86,3.91,1.26,7.98,1.14,12.15l-18.68-1.63
	c-1.67-0.14-3.11,1.08-3.25,2.73C229.1,204.3,230.32,205.75,231.97,205.9z"/>
<path class="st9" d="M185.31,251.8c-1.55,0-3.12-0.07-4.68-0.21c-29.11-2.55-50.73-28.3-48.18-57.42
	c1.16-13.29,7.23-25.56,17.08-34.54c9.79-8.93,22.46-13.85,35.66-13.85c1.55,0,3.12,0.07,4.68,0.2c14.1,1.23,26.88,7.89,35.98,18.73
	c9.1,10.85,13.43,24.58,12.2,38.69c-1.16,13.29-7.23,25.56-17.08,34.54C211.18,246.89,198.52,251.8,185.31,251.8z"/>
<path class="st2" d="M185.2,148.8c1.46,0,2.93,0.06,4.41,0.19c27.51,2.41,47.86,26.66,45.45,54.17
	c-2.28,26.03-24.11,45.65-49.75,45.65c-1.46,0-2.93-0.06-4.41-0.19c-27.51-2.41-47.86-26.66-45.45-54.17
	C137.73,168.42,159.56,148.8,185.2,148.8 M185.2,142.8v6V142.8C185.2,142.8,185.2,142.8,185.2,142.8c-13.95,0-27.34,5.2-37.68,14.63
	c-10.41,9.49-16.82,22.45-18.05,36.49c-1.3,14.9,3.27,29.42,12.89,40.88c9.61,11.46,23.12,18.49,38.02,19.79
	c1.64,0.14,3.3,0.22,4.94,0.22c13.95,0,27.33-5.2,37.68-14.63c10.41-9.49,16.82-22.45,18.05-36.49c1.3-14.9-3.27-29.42-12.89-40.88
	c-9.61-11.46-23.12-18.49-38.02-19.79C188.5,142.87,186.84,142.8,185.2,142.8L185.2,142.8z"/>
<path class="st10" d="M194.81,149.72l-52.4,74.83c2.17,3.6,4.77,6.91,7.75,9.86l56.56-80.78C202.99,151.86,199,150.53,194.81,149.72
	z"/>
<path class="st10" d="M211.99,156.55l-57.29,81.82c2.1,1.63,4.34,3.1,6.7,4.38l56.99-81.39
	C216.4,159.59,214.26,157.99,211.99,156.55z"/>
<path class="st9" d="M185.3,237.8c-1.14,0-2.3-0.05-3.44-0.15c-10.38-0.91-19.78-5.8-26.48-13.78c-6.7-7.98-9.88-18.09-8.97-28.47
	c1.75-19.96,18.79-35.6,38.81-35.6c1.14,0,2.3,0.05,3.44,0.15c21.42,1.87,37.33,20.83,35.45,42.25
	C222.36,222.16,205.32,237.8,185.3,237.8z"/>
<path class="st2" d="M185.22,162.8c1.05,0,2.11,0.05,3.18,0.14c19.81,1.73,34.46,19.19,32.73,39
	c-1.64,18.74-17.36,32.86-35.82,32.86c-1.05,0-2.11-0.05-3.18-0.14c-19.81-1.73-34.46-19.19-32.73-39
	C151.03,176.92,166.75,162.8,185.22,162.8 M185.22,156.8C185.22,156.8,185.22,156.8,185.22,156.8c-10.47,0-20.5,3.9-28.26,10.97
	c-7.81,7.12-12.62,16.84-13.54,27.37c-0.98,11.18,2.46,22.06,9.67,30.66s17.34,13.87,28.51,14.84c1.23,0.11,2.47,0.16,3.7,0.16
	c10.47,0,20.5-3.9,28.26-10.97c7.81-7.12,12.62-16.84,13.54-27.37c2.02-23.07-15.11-43.48-38.18-45.5
	C187.69,156.85,186.44,156.8,185.22,156.8L185.22,156.8z"/>
<path class="st10" d="M194.76,164.08l-38.87,55.52c2.36,3.33,5.27,6.24,8.62,8.61l41.29-58.97
	C202.49,166.94,198.78,165.17,194.76,164.08z"/>
<path class="st10" d="M210.44,173.07l-40.75,58.19c2.47,1.19,5.11,2.1,7.88,2.7l38.1-54.42
	C214.18,177.19,212.42,175.02,210.44,173.07z"/>
<path class="st8" d="M155.37,196.18c1.64-18.8,17.46-32.92,36-32.84c-0.98-0.17-1.97-0.32-2.98-0.41
	c-19.81-1.73-37.27,12.92-39,32.73c-1.73,19.81,12.92,37.27,32.73,39c1.01,0.09,2.01,0.11,3,0.11
	C166.85,231.64,153.73,214.98,155.37,196.18z"/>
<path class="st2" d="M201.27,202.4c-0.09,0-0.18,0-0.27-0.01c-1.65-0.14-2.87-1.6-2.73-3.25c0.07-0.8-0.17-1.58-0.69-2.19
	s-1.24-0.99-2.04-1.06c-1.64-0.14-3.11,1.08-3.25,2.73c-0.15,1.65-1.61,2.86-3.25,2.73c-1.65-0.14-2.87-1.6-2.73-3.25
	c0.43-4.94,4.8-8.61,9.75-8.18c2.39,0.21,4.56,1.34,6.11,3.18c1.54,1.84,2.28,4.17,2.07,6.57
	C204.12,201.22,202.81,202.4,201.27,202.4z"/>
<path class="st2" d="M177.36,200.3c-0.09,0-0.18,0-0.26-0.01c-1.65-0.14-2.87-1.6-2.73-3.25c0.14-1.65-1.08-3.11-2.73-3.25
	c-1.64-0.14-3.11,1.08-3.25,2.73c-0.15,1.65-1.61,2.87-3.25,2.73c-1.65-0.14-2.87-1.6-2.73-3.25c0.43-4.94,4.8-8.61,9.75-8.18
	c4.94,0.43,8.61,4.81,8.18,9.75C180.21,199.13,178.9,200.3,177.36,200.3z"/>
<path class="st2" d="M205.04,186.91c-3.71-0.62-6.26-1.53-9.86-1.97c-1.78-0.31-6.49-0.05-5.78-3.41c0.11-0.42,0.32-0.78,0.6-1.07
	c2.32-2.53,6.21-3.65,9.69-2.87c3.44,0.71,6.66,2.98,7.94,6.28C208.31,185.5,206.73,187.3,205.04,186.91L205.04,186.91z"/>
<path class="st2" d="M161.83,179.86c2.8-4.63,9.67-6.11,14.32-3.57c2.2,1.21,5.85,4.3,3.01,6.52c-1.6,0.83-3.96,0.22-5.24,0.27
	c-3.63-0.2-6.29,0.25-10.05,0.22C162.1,183.4,160.9,181.34,161.83,179.86L161.83,179.86z"/>
<path class="st2" d="M194.7,205.65l-23.91-2.09c-0.17-0.02-0.35-0.02-0.52-0.02c-1.4,0-2.77,0.49-3.86,1.4
	c-1.22,1.02-1.98,2.49-2.12,4.07c-0.42,4.79,1.05,9.46,4.14,13.14s7.43,5.94,12.22,6.36c0.53,0.05,1.06,0.07,1.58,0.07
	c9.4,0,17.1-7.06,17.92-16.43C200.44,208.85,198,205.94,194.7,205.65z"/>
<path class="st11" d="M181.17,222.53c3.54,0.31,6.84-0.96,9.24-3.21c-1.98-2.63-5.01-4.45-8.54-4.76c-3.54-0.31-6.84,0.96-9.24,3.21
	C174.61,220.4,177.64,222.22,181.17,222.53z"/>
</svg>
