<?xml version="1.0" encoding="utf-8"?>
<!-- Generator: Adobe Illustrator 26.0.1, SVG Export Plug-In . SVG Version: 6.00 Build 0)  -->
<svg version="1.1" id="Google_x5F_Hub-Bid_x5F_Adjustments"
	 xmlns="http://www.w3.org/2000/svg" xmlns:xlink="http://www.w3.org/1999/xlink" x="0px" y="0px" viewBox="0 0 400 400"
	 style="enable-background:new 0 0 400 400;" xml:space="preserve">
<style type="text/css">
	.st0{fill:none;}
	.st1{fill:#FBBD04;}
	.st2{fill:#438EDC;}
	.st3{fill:#34A952;}
	.st4{fill:#7DDF96;}
	.st5{fill:#515979;}
	.st6{fill:#00C853;}
	.st7{fill:#FFFFFF;}
	.st8{fill:#EF7D7D;}
	.st9{fill:#FFD886;}
	.st10{fill:#7170B2;}
	.st11{fill:#AAA0FF;}
	.st12{fill:#2196F3;}
	.st13{fill:#D8EBFB;}
	.st14{fill:#FDE1D9;}
</style>
<g>
	<rect class="st0" width="400" height="400"/>
</g>
<g>
	<g>
		<path class="st1" d="M226.13,176.49L226.13,176.49c-13.58-7.84-18.27-25.35-10.43-38.93l56.35-97.62
			c7.84-13.58,25.35-18.27,38.93-10.43l0,0c13.58,7.84,18.27,25.35,10.43,38.93l-56.35,97.62
			C257.22,179.63,239.71,184.33,226.13,176.49z"/>
	</g>
	<g>
		<path class="st2" d="M367.65,176.08L367.65,176.08c-13.58,7.84-31.09,3.14-38.93-10.43l-56.35-97.62
			c-7.84-13.58-3.14-31.09,10.43-38.93l0,0c13.58-7.84,31.09-3.14,38.93,10.43l56.35,97.62
			C385.91,150.71,381.21,168.24,367.65,176.08z"/>
	</g>
	<g>
		<circle class="st3" cx="240.77" cy="151.39" r="28.9"/>
	</g>
</g>
<g>
	<g>
		<g>
			<g>
				<path class="st4" d="M212.87,365c-1.66-0.41-3-2.13-3-3.78c0-26.67,0-53.33,0-80c0-1.66,1.34-2.63,3-2.22
					c56.3,13.87,112.59-17.18,168.89-3.31c1.66,0.41,3,2.13,3,3.78c0,26.67,0,53.33,0,80c0,1.66-1.34,2.63-3,2.22
					C325.46,347.82,269.17,378.87,212.87,365z"/>
			</g>
			<g>
				<path class="st5" d="M381.76,278.69c0,26.67,0,53.33,0,80c-56.3-13.87-112.59,17.18-168.89,3.31c0-26.67,0-53.33,0-80
					C269.17,295.87,325.46,264.82,381.76,278.69 M381.76,272.69c-56.3-13.87-112.59,17.18-168.89,3.31c-3.31-0.81-6,1.03-6,4.35
					c0,26.67,0,53.33,0,80c0,3.31,2.69,6.84,6,7.65c56.3,13.87,112.59-17.18,168.89-3.31c3.31,0.81,6-1.03,6-4.35
					c0-26.67,0-53.33,0-80C387.76,277.04,385.07,273.51,381.76,272.69L381.76,272.69z"/>
			</g>
		</g>
		<g>
			<path class="st6" d="M374.65,336.73c0-13.04,0-26.07,0-39.11c-7.36-1.34-13.33-7.65-13.33-15.04
				c-42.67-3.27-85.33,13.02-128,9.75c0,7.35-5.97,12.97-13.33,11.63c0,13.04,0,26.07,0,39.11c7.36,1.34,13.33,7.65,13.33,15.04
				c42.67,3.27,85.33-13.02,128-9.75C361.31,341.01,367.28,335.39,374.65,336.73z"/>
		</g>
		<g>
			<g>
				<path class="st4" d="M328.43,316.16c0,20.55-13.93,38.76-31.11,41.52s-31.11-12.47-31.11-33.15c0-20.55,13.93-38.76,31.11-41.52
					C314.5,280.26,328.43,295.48,328.43,316.16z"/>
			</g>
		</g>
		<g>
			<g>
				<path class="st4" d="M253.76,325.45c0,6.37-4.78,11.82-10.67,11.75c-5.89-0.06-10.67-5.67-10.67-12.05
					c0-6.39,4.78-11.12,10.67-11.06C248.98,314.16,253.76,319.06,253.76,325.45z"/>
			</g>
		</g>
		<g>
			<g>
				<path class="st4" d="M362.2,315.54c0,6.39-4.78,11.12-10.67,11.06c-5.89-0.07-10.67-4.97-10.67-11.36
					c0-6.37,4.78-11.82,10.67-11.75C357.43,303.55,362.2,309.16,362.2,315.54z"/>
			</g>
		</g>
	</g>
	<g>
		<g>
			<g>
				<path class="st5" d="M302.81,323.31c-0.59,0-1.16-0.35-1.39-0.94c-0.31-0.77,0.06-1.64,0.83-1.95c2.19-0.89,5.69-1.07,7.97-0.42
					c0.8,0.23,1.26,1.06,1.03,1.86c-0.23,0.8-1.06,1.26-1.86,1.03c-1.63-0.47-4.44-0.32-6.01,0.32
					C303.19,323.27,303,323.31,302.81,323.31z"/>
			</g>
			<g>
				<g>
					<circle class="st5" cx="305.96" cy="314.93" r="6"/>
				</g>
				<g>
					<circle class="st7" cx="307.45" cy="314.85" r="1.5"/>
				</g>
			</g>
			<g>
				<path class="st5" d="M282.84,324.35c-0.59,0-1.16-0.35-1.39-0.94c-0.31-0.77,0.06-1.64,0.83-1.95c2.19-0.89,5.69-1.07,7.97-0.42
					c0.8,0.23,1.26,1.06,1.03,1.86c-0.23,0.8-1.06,1.25-1.86,1.03c-1.63-0.47-4.44-0.32-6.01,0.32
					C283.22,324.32,283.03,324.35,282.84,324.35z"/>
			</g>
			<g>
				<g>
					<circle class="st5" cx="285.98" cy="315.98" r="6"/>
				</g>
				<g>
					<circle class="st7" cx="287.48" cy="315.9" r="1.5"/>
				</g>
			</g>
			<g>
				<path class="st5" d="M301.68,301.28c0.94-0.66,1.81-1.01,2.81-1.27c0.98-0.26,2.02-0.34,3.06-0.28
					c1.05,0.05,2.12,0.32,3.11,0.79c1,0.45,1.89,1.18,2.54,2.06c0.56,0.77,0.39,1.85-0.38,2.4c-0.36,0.26-0.79,0.36-1.2,0.32
					l-0.4-0.05c-0.79-0.09-1.4-0.24-2.06-0.32c-0.65-0.07-1.28-0.18-1.97-0.23l-2.12-0.13c-0.72-0.04-1.55-0.04-2.26-0.16
					l-0.43-0.07c-0.93-0.15-1.55-1.03-1.4-1.95C301.06,301.92,301.33,301.53,301.68,301.28z"/>
			</g>
			<g>
				<path class="st5" d="M288.01,305.19c-0.69,0.19-1.52,0.28-2.23,0.39l-2.1,0.36c-0.68,0.12-1.29,0.29-1.94,0.43
					c-0.65,0.15-1.24,0.36-2.02,0.54l-0.39,0.09c-0.93,0.21-1.85-0.38-2.05-1.31c-0.1-0.44-0.02-0.88,0.19-1.24
					c0.55-0.95,1.36-1.77,2.31-2.31c0.93-0.57,1.98-0.95,3.01-1.11c1.04-0.17,2.08-0.19,3.08-0.04c1.02,0.15,1.93,0.41,2.93,0.97
					c0.82,0.46,1.11,1.49,0.66,2.31c-0.23,0.41-0.61,0.69-1.03,0.81L288.01,305.19z"/>
			</g>
		</g>
		<g>
			<path class="st5" d="M312.68,328.5c-0.11-2.13-1.88-3.79-3.99-3.79c-0.07,0-0.14,0-0.21,0.01l-23.97,1.26
				c-2.21,0.12-3.9,2-3.79,4.2c0.45,8.5,7.46,15.16,15.97,15.16c0.28,0,0.56-0.01,0.85-0.02
				C306.35,344.85,313.14,337.31,312.68,328.5z"/>
			<g>
				<g>
					
						<ellipse transform="matrix(0.9986 -0.0523 0.0523 0.9986 -17.2471 16.0121)" class="st8" cx="297.12" cy="337.33" rx="8.93" ry="4"/>
				</g>
			</g>
		</g>
	</g>
</g>
<path class="st9" d="M218.76,25.72h-6v-6c0-1.66-1.34-3-3-3s-3,1.34-3,3v6h-6c-1.66,0-3,1.34-3,3s1.34,3,3,3h6v6c0,1.66,1.34,3,3,3
	s3-1.34,3-3v-6h6c1.66,0,3-1.34,3-3S220.42,25.72,218.76,25.72z"/>
<path class="st9" d="M39,374.21h-6v-6c0-1.66-1.34-3-3-3s-3,1.34-3,3v6h-6c-1.66,0-3,1.34-3,3s1.34,3,3,3h6v6c0,1.66,1.34,3,3,3
	s3-1.34,3-3v-6h6c1.66,0,3-1.34,3-3S40.66,374.21,39,374.21z"/>
<g>
	<path class="st9" d="M206.36,89.72c-2.32,0-4.2-1.88-4.2-4.2c0-0.77-0.63-1.4-1.4-1.4s-1.4,0.63-1.4,1.4c0,2.32-1.88,4.2-4.2,4.2
		c-0.77,0-1.4,0.63-1.4,1.4s0.63,1.4,1.4,1.4c2.32,0,4.2,1.88,4.2,4.2c0,0.77,0.63,1.4,1.4,1.4s1.4-0.63,1.4-1.4
		c0-2.32,1.88-4.2,4.2-4.2c0.77,0,1.4-0.63,1.4-1.4S207.13,89.72,206.36,89.72z"/>
</g>
<g>
	<g>
		<circle class="st9" cx="225.65" cy="60.12" r="3"/>
	</g>
</g>
<g>
	<g>
		<circle class="st9" cx="144.16" cy="214.55" r="3"/>
	</g>
</g>
<g>
	<g>
		<circle class="st9" cx="18" cy="337.02" r="3"/>
	</g>
</g>
<g>
	<g>
		<circle class="st9" cx="154.16" cy="248.85" r="3"/>
	</g>
</g>
<g>
	<path class="st9" d="M162.16,180.14c-3.31,0-6-2.69-6-6c0-1.1-0.9-2-2-2c-1.1,0-2,0.9-2,2c0,3.31-2.69,6-6,6c-1.1,0-2,0.9-2,2
		c0,1.1,0.9,2,2,2c3.31,0,6,2.69,6,6c0,1.1,0.9,2,2,2c1.1,0,2-0.9,2-2c0-3.31,2.69-6,6-6c1.1,0,2-0.9,2-2
		C164.16,181.04,163.26,180.14,162.16,180.14z"/>
</g>
<g>
	<g>
		<g>
			<path class="st10" d="M71.83,251.85c-1.66,0-3-1.34-3-3v-39h-9c-1.66,0-3-1.34-3-3v-12c0-1.66,1.34-3,3-3h54c1.66,0,3,1.34,3,3
				v12c0,1.66-1.34,3-3,3h-9v39c0,1.66-1.34,3-3,3H71.83z"/>
		</g>
		<g>
			<g>
				<path class="st5" d="M59.83,194.85l54,0v12l-12,0v42h-30v-42h-12V194.85 M59.83,188.85c-1.59,0-3.12,0.63-4.24,1.76
					c-1.13,1.13-1.76,2.65-1.76,4.24v12c0,3.31,2.69,6,6,6h6v36c0,3.31,2.69,6,6,6h30c3.31,0,6-2.69,6-6v-36l6,0
					c1.59,0,3.12-0.63,4.24-1.76c1.13-1.13,1.76-2.65,1.76-4.24v-12c0-3.31-2.69-6-6-6L59.83,188.85L59.83,188.85z"/>
			</g>
		</g>
	</g>
	<g>
		<g>
			<path class="st11" d="M71.83,239.85c-1.66,0-3-1.34-3-3v-39h-9c-1.25,0-2.36-0.77-2.8-1.93c-0.44-1.16-0.12-2.48,0.81-3.31l27-24
				c0.57-0.51,1.28-0.76,1.99-0.76s1.42,0.25,1.99,0.76l27,24c0.93,0.83,1.25,2.14,0.81,3.31c-0.44,1.16-1.56,1.93-2.8,1.93h-9v39
				c0,1.66-1.34,3-3,3H71.83z"/>
		</g>
		<g>
			<g>
				<path class="st5" d="M86.83,170.85l27,24l-12,0v42h-30v-42h-12L86.83,170.85 M86.83,164.85c-1.42,0-2.85,0.51-3.99,1.52l-27,24
					c-1.86,1.65-2.51,4.29-1.62,6.62c0.89,2.33,3.12,3.87,5.61,3.87h6v36c0,3.31,2.69,6,6,6h30c3.31,0,6-2.69,6-6v-36h6
					c2.49,0,4.72-1.54,5.61-3.87c0.89-2.33,0.24-4.96-1.62-6.62l-27-24C89.68,165.35,88.25,164.85,86.83,164.85L86.83,164.85z"/>
			</g>
		</g>
	</g>
</g>
<g>
	<g>
		<path class="st5" d="M156.9,322.83c-0.65-0.78-1.33-1.51-2.04-2.19c-0.01-0.01-0.03-0.03-0.04-0.04
			c-0.01-0.01-0.02-0.03-0.04-0.04c-0.01-0.01-0.03-0.03-0.04-0.04c-0.01-0.01-0.02-0.03-0.04-0.04c-0.01-0.01-0.03-0.03-0.04-0.04
			c-0.01-0.01-0.02-0.03-0.04-0.04c-0.01-0.01-0.03-0.03-0.04-0.04c-0.01-0.01-0.02-0.03-0.04-0.04c-0.01-0.01-0.03-0.03-0.04-0.04
			c-0.01-0.01-0.02-0.03-0.04-0.04c-0.01-0.01-0.03-0.03-0.04-0.04c-0.01-0.01-0.02-0.03-0.04-0.04c-0.01-0.01-0.03-0.03-0.04-0.04
			c-0.01-0.01-0.02-0.03-0.04-0.04c-0.01-0.01-0.03-0.03-0.04-0.04c-0.01-0.01-0.02-0.03-0.04-0.04c-0.01-0.01-0.03-0.03-0.04-0.04
			c-0.01-0.01-0.02-0.03-0.04-0.04c-0.01-0.01-0.03-0.03-0.04-0.04c-0.01-0.01-0.02-0.03-0.04-0.04c-0.01-0.01-0.03-0.03-0.04-0.04
			c-0.01-0.01-0.02-0.03-0.04-0.04c-0.01-0.01-0.03-0.03-0.04-0.04c-0.01-0.01-0.02-0.03-0.04-0.04c-0.01-0.01-0.03-0.03-0.04-0.04
			s-0.03-0.03-0.04-0.04c-0.01-0.01-0.02-0.03-0.04-0.04c-0.01-0.01-0.03-0.03-0.04-0.04c-0.01-0.01-0.02-0.03-0.04-0.04
			c-0.01-0.01-0.03-0.03-0.04-0.04c-0.01-0.01-0.02-0.03-0.04-0.04c-0.01-0.01-0.03-0.03-0.04-0.04c-0.01-0.01-0.02-0.03-0.04-0.04
			c-0.01-0.01-0.03-0.03-0.04-0.04c-0.01-0.01-0.02-0.03-0.04-0.04c-0.01-0.01-0.03-0.03-0.04-0.04c-0.01-0.01-0.02-0.03-0.04-0.04
			c-0.01-0.01-0.03-0.03-0.04-0.04c-0.01-0.01-0.02-0.03-0.04-0.04c-0.01-0.01-0.03-0.03-0.04-0.04c-0.01-0.01-0.02-0.03-0.04-0.04
			c-0.01-0.01-0.03-0.03-0.04-0.04c-0.01-0.01-0.02-0.03-0.04-0.04c-0.01-0.01-0.03-0.03-0.04-0.04c-0.01-0.01-0.02-0.03-0.04-0.04
			c-0.01-0.01-0.03-0.03-0.04-0.04c-0.01-0.01-0.02-0.03-0.04-0.04c-0.01-0.01-0.03-0.03-0.04-0.04c-0.01-0.01-0.02-0.03-0.04-0.04
			c-0.01-0.01-0.03-0.03-0.04-0.04c-0.01-0.01-0.02-0.03-0.04-0.04c-0.01-0.01-0.03-0.03-0.04-0.04c-0.01-0.01-0.02-0.03-0.04-0.04
			c-0.01-0.01-0.03-0.03-0.04-0.04c-0.01-0.01-0.02-0.03-0.04-0.04c-0.01-0.01-0.03-0.03-0.04-0.04c-0.01-0.01-0.02-0.03-0.04-0.04
			c-0.01-0.01-0.03-0.03-0.04-0.04c-0.01-0.01-0.02-0.03-0.04-0.04c-0.01-0.01-0.03-0.03-0.04-0.04c-0.01-0.01-0.02-0.03-0.04-0.04
			c-0.01-0.01-0.03-0.03-0.04-0.04c-0.01-0.01-0.02-0.03-0.04-0.04c-0.01-0.01-0.03-0.03-0.04-0.04c-0.01-0.01-0.02-0.03-0.04-0.04
			c-0.01-0.01-0.03-0.03-0.04-0.04c-0.01-0.01-0.02-0.03-0.04-0.04c-0.01-0.01-0.03-0.03-0.04-0.04c-0.01-0.01-0.02-0.03-0.04-0.04
			c-0.01-0.01-0.03-0.03-0.04-0.04c-0.01-0.01-0.02-0.03-0.04-0.04c-0.01-0.01-0.03-0.03-0.04-0.04c-0.01-0.01-0.02-0.03-0.04-0.04
			c-0.01-0.01-0.03-0.03-0.04-0.04c-0.01-0.01-0.02-0.03-0.04-0.04c-0.01-0.01-0.03-0.03-0.04-0.04c-0.01-0.01-0.03-0.03-0.04-0.04
			c-0.01-0.01-0.03-0.03-0.04-0.04c-0.01-0.01-0.03-0.03-0.04-0.04c-0.01-0.01-0.02-0.03-0.04-0.04c-0.01-0.01-0.03-0.03-0.04-0.04
			c-0.01-0.01-0.02-0.03-0.04-0.04c-0.01-0.01-0.03-0.03-0.04-0.04c-0.01-0.01-0.02-0.03-0.04-0.04c-0.01-0.01-0.03-0.03-0.04-0.04
			c-0.01-0.01-0.02-0.03-0.04-0.04c-0.01-0.01-0.03-0.03-0.04-0.04c-0.01-0.01-0.02-0.03-0.04-0.04c-0.01-0.01-0.03-0.03-0.04-0.04
			c-0.01-0.01-0.02-0.03-0.04-0.04c-0.01-0.01-0.03-0.03-0.04-0.04c-0.01-0.01-0.02-0.03-0.04-0.04c-0.01-0.01-0.03-0.03-0.04-0.04
			c-0.01-0.01-0.02-0.03-0.04-0.04c-0.01-0.01-0.03-0.03-0.04-0.04c-0.01-0.01-0.02-0.03-0.04-0.04c-0.01-0.01-0.03-0.03-0.04-0.04
			c-0.01-0.01-0.02-0.03-0.04-0.04c-0.01-0.01-0.03-0.03-0.04-0.04c-0.01-0.01-0.02-0.03-0.04-0.04c-0.01-0.01-0.03-0.03-0.04-0.04
			c-0.01-0.01-0.02-0.03-0.04-0.04c-0.01-0.01-0.03-0.03-0.04-0.04c-0.01-0.01-0.02-0.03-0.04-0.04c-0.01-0.01-0.03-0.03-0.04-0.04
			c-0.01-0.01-0.02-0.03-0.04-0.04c-0.01-0.01-0.03-0.03-0.04-0.04c-0.01-0.01-0.02-0.03-0.04-0.04c-0.01-0.01-0.03-0.03-0.04-0.04
			c-0.01-0.01-0.02-0.03-0.04-0.04c-0.01-0.01-0.03-0.03-0.04-0.04c-0.01-0.01-0.02-0.03-0.04-0.04c-0.01-0.01-0.03-0.03-0.04-0.04
			c-0.01-0.01-0.02-0.03-0.04-0.04c-0.01-0.01-0.03-0.03-0.04-0.04c-0.01-0.01-0.02-0.03-0.04-0.04c-0.01-0.01-0.03-0.03-0.04-0.04
			c-0.01-0.01-0.02-0.03-0.04-0.04c-0.01-0.01-0.03-0.03-0.04-0.04c-0.01-0.01-0.02-0.03-0.04-0.04c-0.01-0.01-0.03-0.03-0.04-0.04
			c-0.01-0.01-0.02-0.03-0.04-0.04c-0.01-0.01-0.03-0.03-0.04-0.04c-0.01-0.01-0.02-0.03-0.04-0.04c-0.01-0.01-0.03-0.03-0.04-0.04
			c-0.01-0.01-0.02-0.03-0.04-0.04c-0.01-0.01-0.03-0.03-0.04-0.04c-0.01-0.01-0.03-0.03-0.04-0.04c-0.01-0.01-0.03-0.03-0.04-0.04
			c-0.01-0.01-0.03-0.03-0.04-0.04c-0.01-0.01-0.02-0.03-0.04-0.04c-0.01-0.01-0.03-0.03-0.04-0.04c-0.01-0.01-0.02-0.03-0.04-0.04
			c-0.01-0.01-0.03-0.03-0.04-0.04c-0.01-0.01-0.02-0.03-0.04-0.04c-0.01-0.01-0.03-0.03-0.04-0.04c-0.01-0.01-0.02-0.03-0.04-0.04
			c-0.01-0.01-0.03-0.03-0.04-0.04c-0.01-0.01-0.02-0.03-0.04-0.04c-0.01-0.01-0.03-0.03-0.04-0.04c-0.01-0.01-0.02-0.03-0.04-0.04
			c-0.01-0.01-0.03-0.03-0.04-0.04c-0.01-0.01-0.02-0.03-0.04-0.04c-0.01-0.01-0.03-0.03-0.04-0.04c-0.01-0.01-0.02-0.03-0.04-0.04
			c-0.01-0.01-0.03-0.03-0.04-0.04c-0.01-0.01-0.02-0.03-0.04-0.04c-0.01-0.01-0.03-0.03-0.04-0.04c-0.01-0.01-0.02-0.03-0.04-0.04
			c-0.01-0.01-0.03-0.03-0.04-0.04c-0.01-0.01-0.02-0.03-0.04-0.04c-0.01-0.01-0.03-0.03-0.04-0.04c-0.01-0.01-0.02-0.03-0.04-0.04
			c-0.01-0.01-0.03-0.03-0.04-0.04c-0.01-0.01-0.02-0.03-0.04-0.04c-0.01-0.01-0.03-0.03-0.04-0.04c-0.01-0.01-0.02-0.03-0.04-0.04
			c-0.01-0.01-0.03-0.03-0.04-0.04c-0.01-0.01-0.02-0.03-0.04-0.04c-0.01-0.01-0.03-0.03-0.04-0.04c-0.01-0.01-0.02-0.03-0.04-0.04
			c-0.01-0.01-0.03-0.03-0.04-0.04c-0.01-0.01-0.02-0.03-0.04-0.04c-0.01-0.01-0.03-0.03-0.04-0.04c-0.01-0.01-0.02-0.03-0.04-0.04
			c-0.01-0.01-0.03-0.03-0.04-0.04c-0.01-0.01-0.02-0.03-0.04-0.04c-0.01-0.01-0.03-0.03-0.04-0.04c-0.01-0.01-0.02-0.03-0.04-0.04
			c-0.01-0.01-0.03-0.03-0.04-0.04c-0.01-0.01-0.02-0.03-0.04-0.04c-0.01-0.01-0.03-0.03-0.04-0.04c-0.01-0.01-0.02-0.03-0.04-0.04
			c-0.01-0.01-0.03-0.03-0.04-0.04c-0.01-0.01-0.02-0.03-0.04-0.04c-0.01-0.01-0.03-0.03-0.04-0.04c-0.01-0.01-0.02-0.03-0.04-0.04
			c-0.01-0.01-0.03-0.03-0.04-0.04c-0.01-0.01-0.03-0.03-0.04-0.04s-0.03-0.03-0.04-0.04c-0.01-0.01-0.03-0.03-0.04-0.04
			c-0.01-0.01-0.02-0.03-0.04-0.04c-0.01-0.01-0.03-0.03-0.04-0.04c-0.01-0.01-0.02-0.03-0.04-0.04c-0.01-0.01-0.03-0.03-0.04-0.04
			c-0.01-0.01-0.02-0.03-0.04-0.04c-0.01-0.01-0.03-0.03-0.04-0.04c-0.01-0.01-0.02-0.03-0.04-0.04c-0.01-0.01-0.03-0.03-0.04-0.04
			c-0.01-0.01-0.02-0.03-0.04-0.04c-0.01-0.01-0.03-0.03-0.04-0.04c-0.01-0.01-0.02-0.03-0.04-0.04c-0.01-0.01-0.03-0.03-0.04-0.04
			c-0.01-0.01-0.02-0.03-0.04-0.04c-0.01-0.01-0.03-0.03-0.04-0.04c-0.01-0.01-0.02-0.03-0.04-0.04c-0.01-0.01-0.03-0.03-0.04-0.04
			c-0.01-0.01-0.02-0.03-0.04-0.04c-0.01-0.01-0.03-0.03-0.04-0.04c-0.01-0.01-0.02-0.03-0.04-0.04c-0.01-0.01-0.03-0.03-0.04-0.04
			c-0.01-0.01-0.02-0.03-0.04-0.04c-0.01-0.01-0.03-0.03-0.04-0.04c-0.01-0.01-0.02-0.03-0.04-0.04c-0.01-0.01-0.03-0.03-0.04-0.04
			c-0.01-0.01-0.02-0.03-0.04-0.04c-0.01-0.01-0.03-0.03-0.04-0.04c-0.01-0.01-0.02-0.03-0.04-0.04c-0.01-0.01-0.03-0.03-0.04-0.04
			c-0.01-0.01-0.02-0.03-0.04-0.04c-0.01-0.01-0.03-0.03-0.04-0.04c-0.01-0.01-0.02-0.03-0.04-0.04c-0.01-0.01-0.03-0.03-0.04-0.04
			c-0.01-0.01-0.02-0.03-0.04-0.04c-0.01-0.01-0.03-0.03-0.04-0.04c-0.01-0.01-0.02-0.03-0.04-0.04c-0.01-0.01-0.03-0.03-0.04-0.04
			c-0.01-0.01-0.02-0.03-0.04-0.04c-0.01-0.01-0.03-0.03-0.04-0.04c-0.01-0.01-0.02-0.03-0.04-0.04c-0.01-0.01-0.03-0.03-0.04-0.04
			c-0.01-0.01-0.02-0.03-0.04-0.04c-0.01-0.01-0.03-0.03-0.04-0.04c-0.01-0.01-0.02-0.03-0.04-0.04c-0.01-0.01-0.03-0.03-0.04-0.04
			c-0.01-0.01-0.02-0.03-0.04-0.04c-0.01-0.01-0.03-0.03-0.04-0.04c-0.01-0.01-0.02-0.03-0.04-0.04c-0.01-0.01-0.03-0.03-0.04-0.04
			c-0.01-0.01-0.02-0.03-0.04-0.04c-0.01-0.01-0.03-0.03-0.04-0.04c-0.01-0.01-0.03-0.03-0.04-0.04c-0.01-0.01-0.02-0.03-0.04-0.04
			c-0.01-0.01-0.03-0.03-0.04-0.04c-0.01-0.01-0.02-0.03-0.04-0.04c-0.01-0.01-0.03-0.03-0.04-0.04c-0.01-0.01-0.02-0.03-0.04-0.04
			c-0.01-0.01-0.03-0.03-0.04-0.04c-0.01-0.01-0.02-0.03-0.04-0.04c-0.01-0.01-0.03-0.03-0.04-0.04c-0.01-0.01-0.02-0.03-0.04-0.04
			c-0.01-0.01-0.03-0.03-0.04-0.04c-0.01-0.01-0.02-0.03-0.04-0.04c-0.01-0.01-0.03-0.03-0.04-0.04c-0.01-0.01-0.02-0.03-0.04-0.04
			c-0.01-0.01-0.03-0.03-0.04-0.04c-0.01-0.01-0.02-0.03-0.04-0.04c-0.01-0.01-0.03-0.03-0.04-0.04c-0.01-0.01-0.02-0.03-0.04-0.04
			c-0.01-0.01-0.03-0.03-0.04-0.04c-0.01-0.01-0.02-0.03-0.04-0.04c-0.01-0.01-0.03-0.03-0.04-0.04c-0.01-0.01-0.02-0.03-0.04-0.04
			c-0.01-0.01-0.03-0.03-0.04-0.04c-0.01-0.01-0.02-0.03-0.04-0.04c-0.01-0.01-0.03-0.03-0.04-0.04c-3.35-3.24-7.34-5.38-11.93-6.44
			l8.17-14.73c1.03-1.86,1-4.12-0.08-5.96c-0.27-0.46-0.61-0.88-0.98-1.25c-0.01-0.01-0.03-0.03-0.04-0.04
			c-0.01-0.01-0.03-0.03-0.04-0.04c-0.01-0.01-0.03-0.03-0.04-0.04c-0.01-0.01-0.03-0.03-0.04-0.04c-0.01-0.01-0.03-0.03-0.04-0.04
			c-0.01-0.01-0.03-0.03-0.04-0.04c-0.01-0.01-0.03-0.03-0.04-0.04c-0.01-0.01-0.03-0.03-0.04-0.04c-0.01-0.01-0.03-0.03-0.04-0.04
			c-0.01-0.01-0.03-0.03-0.04-0.04c-0.01-0.01-0.03-0.03-0.04-0.04c-0.01-0.01-0.03-0.03-0.04-0.04c-0.01-0.01-0.03-0.03-0.04-0.04
			c-0.01-0.01-0.03-0.03-0.04-0.04c-0.01-0.01-0.03-0.03-0.04-0.04c-0.01-0.01-0.03-0.03-0.04-0.04c-0.01-0.01-0.03-0.03-0.04-0.04
			c-0.01-0.01-0.03-0.03-0.04-0.04c-0.01-0.01-0.03-0.03-0.04-0.04c-0.01-0.01-0.03-0.03-0.04-0.04c-0.01-0.01-0.03-0.03-0.04-0.04
			c-0.01-0.01-0.03-0.03-0.04-0.04c-0.01-0.01-0.03-0.03-0.04-0.04c-0.01-0.01-0.03-0.03-0.04-0.04c-0.01-0.01-0.03-0.03-0.04-0.04
			c-0.01-0.01-0.03-0.03-0.04-0.04c-0.01-0.01-0.03-0.03-0.04-0.04c-0.01-0.01-0.03-0.03-0.04-0.04c-0.01-0.01-0.03-0.03-0.04-0.04
			c-0.01-0.01-0.03-0.03-0.04-0.04c-0.01-0.01-0.03-0.03-0.04-0.04c-0.01-0.01-0.03-0.03-0.04-0.04c-0.01-0.01-0.03-0.03-0.04-0.04
			c-0.01-0.01-0.03-0.03-0.04-0.04c-0.01-0.01-0.03-0.03-0.04-0.04c-0.01-0.01-0.03-0.03-0.04-0.04c-0.01-0.01-0.03-0.03-0.04-0.04
			c-0.01-0.01-0.03-0.03-0.04-0.04c-0.01-0.01-0.03-0.03-0.04-0.04c-0.01-0.01-0.03-0.03-0.04-0.04c-0.01-0.01-0.03-0.03-0.04-0.04
			c-0.01-0.01-0.03-0.03-0.04-0.04c-0.01-0.01-0.03-0.03-0.04-0.04c-0.01-0.01-0.03-0.03-0.04-0.04c-0.01-0.01-0.03-0.03-0.04-0.04
			c-0.01-0.01-0.03-0.03-0.04-0.04c-0.01-0.01-0.03-0.03-0.04-0.04c-0.01-0.01-0.03-0.03-0.04-0.04c-0.01-0.01-0.03-0.03-0.04-0.04
			c-0.01-0.01-0.03-0.03-0.04-0.04c-0.01-0.01-0.03-0.03-0.04-0.04c-0.01-0.01-0.03-0.03-0.04-0.04c-0.01-0.01-0.03-0.03-0.04-0.04
			c-0.01-0.01-0.03-0.03-0.04-0.04c-0.01-0.01-0.03-0.03-0.04-0.04c-0.01-0.01-0.03-0.03-0.04-0.04c-0.01-0.01-0.03-0.03-0.04-0.04
			c-0.01-0.01-0.03-0.03-0.04-0.04c-0.01-0.01-0.03-0.03-0.04-0.04c-0.01-0.01-0.03-0.03-0.04-0.04c-0.01-0.01-0.03-0.03-0.04-0.04
			c-0.01-0.01-0.03-0.03-0.04-0.04c-0.01-0.01-0.03-0.03-0.04-0.04c-0.01-0.01-0.03-0.03-0.04-0.04c-0.01-0.01-0.03-0.03-0.04-0.04
			c-0.01-0.01-0.03-0.03-0.04-0.04c-0.01-0.01-0.03-0.03-0.04-0.04c-0.01-0.01-0.03-0.03-0.04-0.04c-0.01-0.01-0.03-0.03-0.04-0.04
			c-0.01-0.01-0.03-0.03-0.04-0.04c-0.01-0.01-0.03-0.03-0.04-0.04c-0.01-0.01-0.03-0.03-0.04-0.04c-0.01-0.01-0.03-0.03-0.04-0.04
			c-0.01-0.01-0.03-0.03-0.04-0.04c-0.01-0.01-0.03-0.03-0.04-0.04c-0.01-0.01-0.03-0.03-0.04-0.04c-0.01-0.01-0.03-0.03-0.04-0.04
			c-0.01-0.01-0.03-0.03-0.04-0.04c-0.01-0.01-0.03-0.03-0.04-0.04c-0.01-0.01-0.03-0.03-0.04-0.04c-0.01-0.01-0.03-0.03-0.04-0.04
			c-0.01-0.01-0.03-0.03-0.04-0.04c-0.01-0.01-0.03-0.03-0.04-0.04c-0.01-0.01-0.03-0.03-0.04-0.04c-0.01-0.01-0.03-0.03-0.04-0.04
			c-0.01-0.01-0.03-0.03-0.04-0.04c-0.01-0.01-0.03-0.03-0.04-0.04c-0.01-0.01-0.03-0.03-0.04-0.04c-0.01-0.01-0.03-0.03-0.04-0.04
			c-0.01-0.01-0.03-0.03-0.04-0.04c-0.01-0.01-0.03-0.03-0.04-0.04c-0.01-0.01-0.03-0.03-0.04-0.04c-0.01-0.01-0.03-0.03-0.04-0.04
			c-0.01-0.01-0.03-0.03-0.04-0.04c-0.01-0.01-0.03-0.03-0.04-0.04c-0.01-0.01-0.03-0.03-0.04-0.04c-0.01-0.01-0.03-0.03-0.04-0.04
			c-0.01-0.01-0.03-0.03-0.04-0.04c-0.01-0.01-0.03-0.03-0.04-0.04c-0.01-0.01-0.03-0.03-0.04-0.04c-0.01-0.01-0.03-0.03-0.04-0.04
			c-0.01-0.01-0.03-0.03-0.04-0.04c-0.01-0.01-0.03-0.03-0.04-0.04c-0.01-0.01-0.03-0.03-0.04-0.04c-0.01-0.01-0.03-0.03-0.04-0.04
			c-0.01-0.01-0.03-0.03-0.04-0.04c-0.01-0.01-0.03-0.03-0.04-0.04c-0.01-0.01-0.03-0.03-0.04-0.04c-0.01-0.01-0.03-0.03-0.04-0.04
			c-0.01-0.01-0.03-0.03-0.04-0.04c-0.01-0.01-0.03-0.03-0.04-0.04c-0.01-0.01-0.03-0.03-0.04-0.04c-0.01-0.01-0.03-0.03-0.04-0.04
			c-0.01-0.01-0.03-0.03-0.04-0.04c-0.01-0.01-0.03-0.03-0.04-0.04c-0.01-0.01-0.03-0.03-0.04-0.04c-0.01-0.01-0.03-0.03-0.04-0.04
			c-0.01-0.01-0.03-0.03-0.04-0.04c-0.01-0.01-0.03-0.03-0.04-0.04c-0.01-0.01-0.03-0.03-0.04-0.04c-0.01-0.01-0.03-0.03-0.04-0.04
			c-0.01-0.01-0.03-0.03-0.04-0.04c-0.01-0.01-0.03-0.03-0.04-0.04c-0.01-0.01-0.03-0.03-0.04-0.04c-0.01-0.01-0.03-0.03-0.04-0.04
			c-0.01-0.01-0.03-0.03-0.04-0.04c-0.01-0.01-0.03-0.03-0.04-0.04c-0.01-0.01-0.03-0.03-0.04-0.04c-0.01-0.01-0.03-0.03-0.04-0.04
			c-0.01-0.01-0.03-0.03-0.04-0.04c-0.01-0.01-0.03-0.03-0.04-0.04c-0.01-0.01-0.03-0.03-0.04-0.04c-0.01-0.01-0.03-0.03-0.04-0.04
			c-0.01-0.01-0.03-0.03-0.04-0.04c-0.01-0.01-0.03-0.03-0.04-0.04c-0.01-0.01-0.03-0.03-0.04-0.04c-0.01-0.01-0.03-0.03-0.04-0.04
			c-0.01-0.01-0.03-0.03-0.04-0.04c-0.01-0.01-0.03-0.03-0.04-0.04c-0.01-0.01-0.03-0.03-0.04-0.04c-0.01-0.01-0.03-0.03-0.04-0.04
			c-0.01-0.01-0.03-0.03-0.04-0.04c-0.01-0.01-0.03-0.03-0.04-0.04c-0.01-0.01-0.03-0.03-0.04-0.04c-0.01-0.01-0.03-0.03-0.04-0.04
			c-0.01-0.01-0.03-0.03-0.04-0.04c-0.01-0.01-0.03-0.03-0.04-0.04c-0.01-0.01-0.03-0.03-0.04-0.04c-0.01-0.01-0.03-0.03-0.04-0.04
			c-0.01-0.01-0.03-0.03-0.04-0.04c-0.01-0.01-0.03-0.03-0.04-0.04c-0.01-0.01-0.03-0.03-0.04-0.04c-0.01-0.01-0.03-0.03-0.04-0.04
			c-0.01-0.01-0.03-0.03-0.04-0.04c-0.01-0.01-0.03-0.03-0.04-0.04c-0.01-0.01-0.03-0.03-0.04-0.04c-0.01-0.01-0.03-0.03-0.04-0.04
			c-0.01-0.01-0.03-0.03-0.04-0.04c-0.01-0.01-0.03-0.03-0.04-0.04c-0.01-0.01-0.03-0.03-0.04-0.04c-0.01-0.01-0.03-0.03-0.04-0.04
			c-0.01-0.01-0.03-0.03-0.04-0.04c-0.01-0.01-0.03-0.03-0.04-0.04c-0.01-0.01-0.03-0.03-0.04-0.04c-0.01-0.01-0.03-0.03-0.04-0.04
			c-0.01-0.01-0.03-0.03-0.04-0.04c-0.01-0.01-0.03-0.03-0.04-0.04c-0.01-0.01-0.03-0.03-0.04-0.04c-0.01-0.01-0.03-0.03-0.04-0.04
			c-0.01-0.01-0.03-0.03-0.04-0.04c-0.01-0.01-0.03-0.03-0.04-0.04c-0.01-0.01-0.03-0.03-0.04-0.04c-0.01-0.01-0.03-0.03-0.04-0.04
			c-0.01-0.01-0.03-0.03-0.04-0.04c-0.01-0.01-0.03-0.03-0.04-0.04c-0.01-0.01-0.03-0.03-0.04-0.04c-0.01-0.01-0.03-0.03-0.04-0.04
			c-0.01-0.01-0.03-0.03-0.04-0.04c-0.01-0.01-0.03-0.03-0.04-0.04c-0.01-0.01-0.03-0.03-0.04-0.04c-0.01-0.01-0.03-0.03-0.04-0.04
			c-0.01-0.01-0.03-0.03-0.04-0.04c-0.01-0.01-0.03-0.03-0.04-0.04c-0.01-0.01-0.03-0.03-0.04-0.04c-0.01-0.01-0.03-0.03-0.04-0.04
			c-0.01-0.01-0.03-0.03-0.04-0.04c-0.01-0.01-0.03-0.03-0.04-0.04c-0.01-0.01-0.03-0.03-0.04-0.04c-0.01-0.01-0.03-0.03-0.04-0.04
			c-0.01-0.01-0.03-0.03-0.04-0.04c-0.01-0.01-0.03-0.03-0.04-0.04c-0.01-0.01-0.03-0.03-0.04-0.04c-0.01-0.01-0.03-0.03-0.04-0.04
			c-0.01-0.01-0.03-0.03-0.04-0.04c-0.01-0.01-0.03-0.03-0.04-0.04c-0.01-0.01-0.03-0.03-0.04-0.04c-0.01-0.01-0.03-0.03-0.04-0.04
			c-0.01-0.01-0.03-0.03-0.04-0.04c-0.01-0.01-0.03-0.03-0.04-0.04c-0.01-0.01-0.03-0.03-0.04-0.04c-0.01-0.01-0.03-0.03-0.04-0.04
			c-0.01-0.01-0.03-0.03-0.04-0.04c-0.01-0.01-0.03-0.03-0.04-0.04c-0.01-0.01-0.03-0.03-0.04-0.04c-0.01-0.01-0.03-0.03-0.04-0.04
			c-0.01-0.01-0.03-0.03-0.04-0.04c-0.01-0.01-0.03-0.03-0.04-0.04c-0.01-0.01-0.03-0.03-0.04-0.04c-0.01-0.01-0.03-0.03-0.04-0.04
			c-0.01-0.01-0.03-0.03-0.04-0.04c-0.01-0.01-0.03-0.03-0.04-0.04c-0.01-0.01-0.03-0.03-0.04-0.04c-0.01-0.01-0.03-0.03-0.04-0.04
			c-0.01-0.01-0.03-0.03-0.04-0.04c-0.01-0.01-0.03-0.03-0.04-0.04c-0.01-0.01-0.03-0.03-0.04-0.04c-0.01-0.01-0.03-0.03-0.04-0.04
			c-0.01-0.01-0.03-0.03-0.04-0.04c-0.01-0.01-0.03-0.03-0.04-0.04c-0.01-0.01-0.03-0.03-0.04-0.04c-0.01-0.01-0.03-0.03-0.04-0.04
			c-0.01-0.01-0.03-0.03-0.04-0.04c-0.01-0.01-0.03-0.03-0.04-0.04c-0.01-0.01-0.03-0.03-0.04-0.04c-0.01-0.01-0.03-0.03-0.04-0.04
			c-0.01-0.01-0.03-0.03-0.04-0.04c-0.01-0.01-0.03-0.03-0.04-0.04c-0.01-0.01-0.03-0.03-0.04-0.04c-0.01-0.01-0.03-0.03-0.04-0.04
			c-0.01-0.01-0.03-0.03-0.04-0.04c-0.01-0.01-0.03-0.03-0.04-0.04c-0.01-0.01-0.03-0.03-0.04-0.04c-0.01-0.01-0.03-0.03-0.04-0.04
			c-0.01-0.01-0.03-0.03-0.04-0.04c-0.01-0.01-0.03-0.03-0.04-0.04c-0.01-0.01-0.03-0.03-0.04-0.04c-0.01-0.01-0.03-0.03-0.04-0.04
			c-0.01-0.01-0.03-0.03-0.04-0.04c-0.01-0.01-0.03-0.03-0.04-0.04c-0.01-0.01-0.03-0.03-0.04-0.04c-0.01-0.01-0.03-0.03-0.04-0.04
			c-0.01-0.01-0.03-0.03-0.04-0.04c-0.01-0.01-0.03-0.03-0.04-0.04c-0.01-0.01-0.03-0.03-0.04-0.04c-0.01-0.01-0.03-0.03-0.04-0.04
			c-0.01-0.01-0.03-0.03-0.04-0.04c-0.01-0.01-0.03-0.03-0.04-0.04c-0.01-0.01-0.03-0.03-0.04-0.04c-0.01-0.01-0.03-0.03-0.04-0.04
			c-0.01-0.01-0.03-0.03-0.04-0.04c-0.01-0.01-0.03-0.03-0.04-0.04c-0.01-0.01-0.03-0.03-0.04-0.04c-0.01-0.01-0.03-0.03-0.04-0.04
			c-0.01-0.01-0.03-0.03-0.04-0.04c-0.01-0.01-0.03-0.03-0.04-0.04c-0.01-0.01-0.03-0.03-0.04-0.04c-1.11-1.1-2.62-1.74-4.23-1.74
			h-17.4c-2.18,0-4.19,1.18-5.25,3.09l-9.69,17.47c-0.56-0.84-1.16-1.66-1.81-2.44c-0.65-0.78-1.33-1.51-2.04-2.19
			c-0.01-0.01-0.03-0.03-0.04-0.04c-0.01-0.01-0.02-0.03-0.04-0.04c-0.01-0.01-0.03-0.03-0.04-0.04c-0.01-0.01-0.02-0.03-0.04-0.04
			c-0.01-0.01-0.03-0.03-0.04-0.04c-0.01-0.01-0.02-0.03-0.04-0.04c-0.01-0.01-0.03-0.03-0.04-0.04c-0.01-0.01-0.02-0.03-0.04-0.04
			c-0.01-0.01-0.03-0.03-0.04-0.04c-0.01-0.01-0.02-0.03-0.04-0.04c-0.01-0.01-0.03-0.03-0.04-0.04c-0.01-0.01-0.02-0.03-0.04-0.04
			c-0.01-0.01-0.03-0.03-0.04-0.04c-0.01-0.01-0.02-0.03-0.04-0.04c-0.01-0.01-0.03-0.03-0.04-0.04c-0.01-0.01-0.02-0.03-0.04-0.04
			c-0.01-0.01-0.03-0.03-0.04-0.04c-0.01-0.01-0.02-0.03-0.04-0.04c-0.01-0.01-0.03-0.03-0.04-0.04c-0.01-0.01-0.02-0.03-0.04-0.04
			c-0.01-0.01-0.03-0.03-0.04-0.04c-0.01-0.01-0.02-0.03-0.04-0.04c-0.01-0.01-0.03-0.03-0.04-0.04c-0.01-0.01-0.02-0.03-0.04-0.04
			c-0.01-0.01-0.03-0.03-0.04-0.04s-0.03-0.03-0.04-0.04c-0.01-0.01-0.02-0.03-0.04-0.04c-0.01-0.01-0.03-0.03-0.04-0.04
			c-0.01-0.01-0.02-0.03-0.04-0.04c-0.01-0.01-0.03-0.03-0.04-0.04c-0.01-0.01-0.02-0.03-0.04-0.04c-0.01-0.01-0.03-0.03-0.04-0.04
			c-0.01-0.01-0.02-0.03-0.04-0.04c-0.01-0.01-0.03-0.03-0.04-0.04c-0.01-0.01-0.02-0.03-0.04-0.04c-0.01-0.01-0.03-0.03-0.04-0.04
			c-0.01-0.01-0.02-0.03-0.04-0.04c-0.01-0.01-0.03-0.03-0.04-0.04c-0.01-0.01-0.02-0.03-0.04-0.04c-0.01-0.01-0.03-0.03-0.04-0.04
			c-0.01-0.01-0.02-0.03-0.04-0.04c-0.01-0.01-0.03-0.03-0.04-0.04c-0.01-0.01-0.02-0.03-0.04-0.04c-0.01-0.01-0.03-0.03-0.04-0.04
			c-0.01-0.01-0.02-0.03-0.04-0.04c-0.01-0.01-0.03-0.03-0.04-0.04c-0.01-0.01-0.02-0.03-0.04-0.04c-0.01-0.01-0.03-0.03-0.04-0.04
			c-0.01-0.01-0.02-0.03-0.04-0.04c-0.01-0.01-0.03-0.03-0.04-0.04c-0.01-0.01-0.02-0.03-0.04-0.04c-0.01-0.01-0.03-0.03-0.04-0.04
			c-0.01-0.01-0.02-0.03-0.04-0.04c-0.01-0.01-0.03-0.03-0.04-0.04c-0.01-0.01-0.02-0.03-0.04-0.04c-0.01-0.01-0.03-0.03-0.04-0.04
			c-0.01-0.01-0.02-0.03-0.04-0.04c-0.01-0.01-0.03-0.03-0.04-0.04c-0.01-0.01-0.02-0.03-0.04-0.04c-0.01-0.01-0.03-0.03-0.04-0.04
			c-0.01-0.01-0.02-0.03-0.04-0.04c-0.01-0.01-0.03-0.03-0.04-0.04c-0.01-0.01-0.02-0.03-0.04-0.04c-0.01-0.01-0.03-0.03-0.04-0.04
			c-0.01-0.01-0.02-0.03-0.04-0.04c-0.01-0.01-0.03-0.03-0.04-0.04c-0.01-0.01-0.02-0.03-0.04-0.04c-0.01-0.01-0.03-0.03-0.04-0.04
			c-0.01-0.01-0.02-0.03-0.04-0.04c-0.01-0.01-0.03-0.03-0.04-0.04c-0.01-0.01-0.02-0.03-0.04-0.04c-0.01-0.01-0.03-0.03-0.04-0.04
			c-0.01-0.01-0.02-0.03-0.04-0.04c-0.01-0.01-0.03-0.03-0.04-0.04c-0.01-0.01-0.02-0.03-0.04-0.04c-0.01-0.01-0.03-0.03-0.04-0.04
			c-0.01-0.01-0.03-0.03-0.04-0.04c-0.01-0.01-0.03-0.03-0.04-0.04c-0.01-0.01-0.03-0.03-0.04-0.04c-0.01-0.01-0.02-0.03-0.04-0.04
			c-0.01-0.01-0.03-0.03-0.04-0.04c-0.01-0.01-0.02-0.03-0.04-0.04c-0.01-0.01-0.03-0.03-0.04-0.04c-0.01-0.01-0.02-0.03-0.04-0.04
			c-0.01-0.01-0.03-0.03-0.04-0.04c-0.01-0.01-0.02-0.03-0.04-0.04c-0.01-0.01-0.03-0.03-0.04-0.04c-0.01-0.01-0.02-0.03-0.04-0.04
			c-0.01-0.01-0.03-0.03-0.04-0.04c-0.01-0.01-0.02-0.03-0.04-0.04c-0.01-0.01-0.03-0.03-0.04-0.04c-0.01-0.01-0.02-0.03-0.04-0.04
			c-0.01-0.01-0.03-0.03-0.04-0.04c-0.01-0.01-0.02-0.03-0.04-0.04c-0.01-0.01-0.03-0.03-0.04-0.04c-0.01-0.01-0.02-0.03-0.04-0.04
			c-0.01-0.01-0.03-0.03-0.04-0.04c-0.01-0.01-0.02-0.03-0.04-0.04c-0.01-0.01-0.03-0.03-0.04-0.04c-0.01-0.01-0.02-0.03-0.04-0.04
			c-0.01-0.01-0.03-0.03-0.04-0.04c-0.01-0.01-0.02-0.03-0.04-0.04c-0.01-0.01-0.03-0.03-0.04-0.04c-0.01-0.01-0.02-0.03-0.04-0.04
			c-0.01-0.01-0.03-0.03-0.04-0.04c-0.01-0.01-0.02-0.03-0.04-0.04c-0.01-0.01-0.03-0.03-0.04-0.04c-0.01-0.01-0.02-0.03-0.04-0.04
			c-0.01-0.01-0.03-0.03-0.04-0.04c-0.01-0.01-0.02-0.03-0.04-0.04c-0.01-0.01-0.03-0.03-0.04-0.04c-0.01-0.01-0.02-0.03-0.04-0.04
			c-0.01-0.01-0.03-0.03-0.04-0.04c-0.01-0.01-0.02-0.03-0.04-0.04c-0.01-0.01-0.03-0.03-0.04-0.04c-0.01-0.01-0.02-0.03-0.04-0.04
			c-0.01-0.01-0.03-0.03-0.04-0.04c-0.01-0.01-0.02-0.03-0.04-0.04c-0.01-0.01-0.03-0.03-0.04-0.04c-0.01-0.01-0.02-0.03-0.04-0.04
			c-0.01-0.01-0.03-0.03-0.04-0.04c-0.01-0.01-0.02-0.03-0.04-0.04c-0.01-0.01-0.03-0.03-0.04-0.04c-0.01-0.01-0.02-0.03-0.04-0.04
			c-0.01-0.01-0.03-0.03-0.04-0.04c-0.01-0.01-0.02-0.03-0.04-0.04c-0.01-0.01-0.03-0.03-0.04-0.04c-0.01-0.01-0.03-0.03-0.04-0.04
			c-0.01-0.01-0.03-0.03-0.04-0.04c-0.01-0.01-0.03-0.03-0.04-0.04c-0.01-0.01-0.02-0.03-0.04-0.04c-0.01-0.01-0.03-0.03-0.04-0.04
			c-0.01-0.01-0.02-0.03-0.04-0.04c-0.01-0.01-0.03-0.03-0.04-0.04c-0.01-0.01-0.02-0.03-0.04-0.04c-0.01-0.01-0.03-0.03-0.04-0.04
			c-0.01-0.01-0.02-0.03-0.04-0.04c-0.01-0.01-0.03-0.03-0.04-0.04c-0.01-0.01-0.02-0.03-0.04-0.04c-0.01-0.01-0.03-0.03-0.04-0.04
			c-0.01-0.01-0.02-0.03-0.04-0.04c-0.01-0.01-0.03-0.03-0.04-0.04c-0.01-0.01-0.02-0.03-0.04-0.04c-0.01-0.01-0.03-0.03-0.04-0.04
			c-0.01-0.01-0.02-0.03-0.04-0.04c-0.01-0.01-0.03-0.03-0.04-0.04c-0.01-0.01-0.02-0.03-0.04-0.04c-0.01-0.01-0.03-0.03-0.04-0.04
			c-0.01-0.01-0.02-0.03-0.04-0.04c-0.01-0.01-0.03-0.03-0.04-0.04c-0.01-0.01-0.02-0.03-0.04-0.04c-0.01-0.01-0.03-0.03-0.04-0.04
			c-0.01-0.01-0.02-0.03-0.04-0.04c-0.01-0.01-0.03-0.03-0.04-0.04c-0.01-0.01-0.02-0.03-0.04-0.04c-0.01-0.01-0.03-0.03-0.04-0.04
			c-0.01-0.01-0.02-0.03-0.04-0.04c-0.01-0.01-0.03-0.03-0.04-0.04c-0.01-0.01-0.02-0.03-0.04-0.04c-0.01-0.01-0.03-0.03-0.04-0.04
			c-0.01-0.01-0.02-0.03-0.04-0.04c-0.01-0.01-0.03-0.03-0.04-0.04c-0.01-0.01-0.02-0.03-0.04-0.04c-0.01-0.01-0.03-0.03-0.04-0.04
			c-0.01-0.01-0.02-0.03-0.04-0.04c-0.01-0.01-0.03-0.03-0.04-0.04c-0.01-0.01-0.02-0.03-0.04-0.04c-0.01-0.01-0.03-0.03-0.04-0.04
			c-0.01-0.01-0.02-0.03-0.04-0.04c-0.01-0.01-0.03-0.03-0.04-0.04c-0.01-0.01-0.02-0.03-0.04-0.04c-0.01-0.01-0.03-0.03-0.04-0.04
			c-0.01-0.01-0.02-0.03-0.04-0.04c-0.01-0.01-0.03-0.03-0.04-0.04c-0.01-0.01-0.02-0.03-0.04-0.04c-0.01-0.01-0.03-0.03-0.04-0.04
			c-0.01-0.01-0.02-0.03-0.04-0.04c-0.01-0.01-0.03-0.03-0.04-0.04c-0.01-0.01-0.03-0.03-0.04-0.04s-0.03-0.03-0.04-0.04
			c-0.01-0.01-0.03-0.03-0.04-0.04c-0.01-0.01-0.02-0.03-0.04-0.04c-0.01-0.01-0.03-0.03-0.04-0.04c-0.01-0.01-0.02-0.03-0.04-0.04
			c-0.01-0.01-0.03-0.03-0.04-0.04c-0.01-0.01-0.02-0.03-0.04-0.04c-0.01-0.01-0.03-0.03-0.04-0.04c-0.01-0.01-0.02-0.03-0.04-0.04
			c-0.01-0.01-0.03-0.03-0.04-0.04c-0.01-0.01-0.02-0.03-0.04-0.04c-0.01-0.01-0.03-0.03-0.04-0.04c-0.01-0.01-0.02-0.03-0.04-0.04
			c-0.01-0.01-0.03-0.03-0.04-0.04c-0.01-0.01-0.02-0.03-0.04-0.04c-0.01-0.01-0.03-0.03-0.04-0.04c-0.01-0.01-0.02-0.03-0.04-0.04
			c-0.01-0.01-0.03-0.03-0.04-0.04c-0.01-0.01-0.02-0.03-0.04-0.04c-0.01-0.01-0.03-0.03-0.04-0.04c-0.01-0.01-0.02-0.03-0.04-0.04
			c-0.01-0.01-0.03-0.03-0.04-0.04c-0.01-0.01-0.02-0.03-0.04-0.04c-0.01-0.01-0.03-0.03-0.04-0.04c-0.01-0.01-0.02-0.03-0.04-0.04
			c-0.01-0.01-0.03-0.03-0.04-0.04c-0.01-0.01-0.02-0.03-0.04-0.04c-0.01-0.01-0.03-0.03-0.04-0.04c-0.01-0.01-0.02-0.03-0.04-0.04
			c-0.01-0.01-0.03-0.03-0.04-0.04c-0.01-0.01-0.02-0.03-0.04-0.04c-0.01-0.01-0.03-0.03-0.04-0.04c-0.01-0.01-0.02-0.03-0.04-0.04
			c-0.01-0.01-0.03-0.03-0.04-0.04c-0.01-0.01-0.02-0.03-0.04-0.04c-0.01-0.01-0.03-0.03-0.04-0.04c-0.01-0.01-0.02-0.03-0.04-0.04
			c-0.01-0.01-0.03-0.03-0.04-0.04c-0.01-0.01-0.02-0.03-0.04-0.04c-0.01-0.01-0.03-0.03-0.04-0.04c-0.01-0.01-0.02-0.03-0.04-0.04
			c-0.01-0.01-0.03-0.03-0.04-0.04c-0.01-0.01-0.02-0.03-0.04-0.04c-0.01-0.01-0.03-0.03-0.04-0.04c-0.01-0.01-0.02-0.03-0.04-0.04
			c-0.01-0.01-0.03-0.03-0.04-0.04c-0.01-0.01-0.02-0.03-0.04-0.04c-0.01-0.01-0.03-0.03-0.04-0.04c-0.01-0.01-0.02-0.03-0.04-0.04
			c-0.01-0.01-0.03-0.03-0.04-0.04c-0.01-0.01-0.02-0.03-0.04-0.04c-0.01-0.01-0.03-0.03-0.04-0.04c-0.01-0.01-0.03-0.03-0.04-0.04
			c-0.01-0.01-0.02-0.03-0.04-0.04c-0.01-0.01-0.03-0.03-0.04-0.04c-0.01-0.01-0.02-0.03-0.04-0.04c-0.01-0.01-0.03-0.03-0.04-0.04
			c-0.01-0.01-0.02-0.03-0.04-0.04c-0.01-0.01-0.03-0.03-0.04-0.04c-0.01-0.01-0.02-0.03-0.04-0.04c-0.01-0.01-0.03-0.03-0.04-0.04
			c-0.01-0.01-0.02-0.03-0.04-0.04c-0.01-0.01-0.03-0.03-0.04-0.04c-0.01-0.01-0.02-0.03-0.04-0.04c-0.01-0.01-0.03-0.03-0.04-0.04
			c-0.01-0.01-0.02-0.03-0.04-0.04c-0.01-0.01-0.03-0.03-0.04-0.04c-0.01-0.01-0.02-0.03-0.04-0.04c-0.01-0.01-0.03-0.03-0.04-0.04
			c-0.01-0.01-0.02-0.03-0.04-0.04c-0.01-0.01-0.03-0.03-0.04-0.04c-0.01-0.01-0.02-0.03-0.04-0.04c-0.01-0.01-0.03-0.03-0.04-0.04
			c-0.01-0.01-0.02-0.03-0.04-0.04c-0.01-0.01-0.03-0.03-0.04-0.04c-0.01-0.01-0.02-0.03-0.04-0.04c-0.01-0.01-0.03-0.03-0.04-0.04
			c-4.95-4.78-11.29-7.2-18.89-7.2c-8.76,0-15.73,3.07-20.74,9.12C35.4,284.2,33,292.16,33,302.15c0,9.65,2.43,17.55,7.22,23.49
			c0.64,0.8,1.32,1.54,2.02,2.24c0.01,0.01,0.03,0.03,0.04,0.04c0.01,0.01,0.03,0.03,0.04,0.04c0.01,0.01,0.03,0.03,0.04,0.04
			c0.01,0.01,0.03,0.03,0.04,0.04c0.01,0.01,0.03,0.03,0.04,0.04c0.01,0.01,0.03,0.03,0.04,0.04c0.01,0.01,0.03,0.03,0.04,0.04
			c0.01,0.01,0.03,0.03,0.04,0.04c0.01,0.01,0.03,0.03,0.04,0.04c0.01,0.01,0.03,0.03,0.04,0.04c0.01,0.01,0.03,0.03,0.04,0.04
			c0.01,0.01,0.03,0.03,0.04,0.04c0.01,0.01,0.03,0.02,0.04,0.04c0.01,0.01,0.03,0.03,0.04,0.04c0.01,0.01,0.03,0.03,0.04,0.04
			c0.01,0.01,0.03,0.03,0.04,0.04c0.01,0.01,0.03,0.03,0.04,0.04c0.01,0.01,0.03,0.03,0.04,0.04c0.01,0.01,0.03,0.02,0.04,0.04
			c0.01,0.01,0.03,0.03,0.04,0.04c0.01,0.01,0.03,0.03,0.04,0.04c0.01,0.01,0.03,0.03,0.04,0.04c0.01,0.01,0.03,0.02,0.04,0.04
			c0.01,0.01,0.03,0.03,0.04,0.04c0.01,0.01,0.03,0.03,0.04,0.04c0.01,0.01,0.03,0.03,0.04,0.04c0.01,0.01,0.03,0.03,0.04,0.04
			c0.01,0.01,0.03,0.03,0.04,0.04c0.01,0.01,0.03,0.03,0.04,0.04c0.01,0.01,0.03,0.03,0.04,0.04c0.01,0.01,0.03,0.03,0.04,0.04
			c0.01,0.01,0.03,0.02,0.04,0.04c0.01,0.01,0.03,0.03,0.04,0.04c0.01,0.01,0.03,0.03,0.04,0.04c0.01,0.01,0.03,0.03,0.04,0.04
			c0.01,0.01,0.03,0.02,0.04,0.04c0.01,0.01,0.03,0.03,0.04,0.04c0.01,0.01,0.03,0.03,0.04,0.04c0.01,0.01,0.03,0.03,0.04,0.04
			c0.01,0.01,0.03,0.03,0.04,0.04c0.01,0.01,0.03,0.03,0.04,0.04c0.01,0.01,0.03,0.02,0.04,0.04c0.01,0.01,0.03,0.03,0.04,0.04
			c0.01,0.01,0.03,0.03,0.04,0.04c0.01,0.01,0.03,0.03,0.04,0.04c0.01,0.01,0.03,0.03,0.04,0.04c0.01,0.01,0.03,0.03,0.04,0.04
			c0.01,0.01,0.03,0.03,0.04,0.04c0.01,0.01,0.03,0.03,0.04,0.04c0.01,0.01,0.03,0.03,0.04,0.04c0.01,0.01,0.03,0.03,0.04,0.04
			c0.01,0.01,0.03,0.03,0.04,0.04c0.01,0.01,0.03,0.03,0.04,0.04c0.01,0.01,0.03,0.03,0.04,0.04c0.01,0.01,0.03,0.03,0.04,0.04
			c0.01,0.01,0.03,0.03,0.04,0.04c0.01,0.01,0.03,0.03,0.04,0.04c0.01,0.01,0.03,0.02,0.04,0.04c0.01,0.01,0.03,0.03,0.04,0.04
			c0.01,0.01,0.03,0.03,0.04,0.04c0.01,0.01,0.03,0.03,0.04,0.04c0.01,0.01,0.03,0.03,0.04,0.04c0.01,0.01,0.03,0.03,0.04,0.04
			c0.01,0.01,0.03,0.02,0.04,0.04c0.01,0.01,0.03,0.03,0.04,0.04c0.01,0.01,0.03,0.03,0.04,0.04c0.01,0.01,0.03,0.03,0.04,0.04
			c0.01,0.01,0.03,0.02,0.04,0.04c0.01,0.01,0.03,0.03,0.04,0.04c0.01,0.01,0.03,0.03,0.04,0.04c0.01,0.01,0.03,0.03,0.04,0.04
			c0.01,0.01,0.03,0.03,0.04,0.04c0.01,0.01,0.03,0.03,0.04,0.04c0.01,0.01,0.03,0.02,0.04,0.04c0.01,0.01,0.03,0.03,0.04,0.04
			c0.01,0.01,0.03,0.03,0.04,0.04c0.01,0.01,0.03,0.03,0.04,0.04s0.03,0.03,0.04,0.04c0.01,0.01,0.03,0.03,0.04,0.04
			c0.01,0.01,0.03,0.03,0.04,0.04c0.01,0.01,0.03,0.02,0.04,0.04c0.01,0.01,0.03,0.03,0.04,0.04c0.01,0.01,0.03,0.03,0.04,0.04
			c0.01,0.01,0.03,0.03,0.04,0.04c0.01,0.01,0.03,0.03,0.04,0.04c0.01,0.01,0.03,0.03,0.04,0.04c0.01,0.01,0.03,0.02,0.04,0.04
			c0.01,0.01,0.03,0.03,0.04,0.04c0.01,0.01,0.03,0.03,0.04,0.04c0.01,0.01,0.03,0.03,0.04,0.04c0.01,0.01,0.03,0.03,0.04,0.04
			c0.01,0.01,0.03,0.03,0.04,0.04c0.01,0.01,0.03,0.03,0.04,0.04c0.01,0.01,0.03,0.03,0.04,0.04c0.01,0.01,0.03,0.03,0.04,0.04
			c0.01,0.01,0.03,0.03,0.04,0.04c0.01,0.01,0.03,0.03,0.04,0.04c0.01,0.01,0.03,0.03,0.04,0.04c0.01,0.01,0.03,0.03,0.04,0.04
			c0.01,0.01,0.03,0.03,0.04,0.04c0.01,0.01,0.03,0.03,0.04,0.04c0.01,0.01,0.03,0.03,0.04,0.04c0.01,0.01,0.03,0.02,0.04,0.04
			c0.01,0.01,0.03,0.03,0.04,0.04c0.01,0.01,0.03,0.03,0.04,0.04c0.01,0.01,0.03,0.03,0.04,0.04c0.01,0.01,0.03,0.03,0.04,0.04
			c0.01,0.01,0.03,0.03,0.04,0.04c0.01,0.01,0.03,0.02,0.04,0.04c0.01,0.01,0.03,0.03,0.04,0.04c0.01,0.01,0.03,0.03,0.04,0.04
			c0.01,0.01,0.03,0.03,0.04,0.04c0.01,0.01,0.03,0.02,0.04,0.04c0.01,0.01,0.03,0.03,0.04,0.04c0.01,0.01,0.03,0.03,0.04,0.04
			c0.01,0.01,0.03,0.03,0.04,0.04c0.01,0.01,0.03,0.03,0.04,0.04c0.01,0.01,0.03,0.03,0.04,0.04c0.01,0.01,0.03,0.02,0.04,0.04
			c0.01,0.01,0.03,0.03,0.04,0.04c0.01,0.01,0.03,0.03,0.04,0.04c0.01,0.01,0.03,0.03,0.04,0.04c0.01,0.01,0.03,0.03,0.04,0.04
			c0.01,0.01,0.03,0.03,0.04,0.04c0.01,0.01,0.03,0.03,0.04,0.04c0.01,0.01,0.03,0.03,0.04,0.04c0.01,0.01,0.03,0.03,0.04,0.04
			c0.01,0.01,0.03,0.03,0.04,0.04c0.01,0.01,0.03,0.03,0.04,0.04c0.01,0.01,0.03,0.03,0.04,0.04c0.01,0.01,0.03,0.03,0.04,0.04
			c0.01,0.01,0.03,0.02,0.04,0.04c0.01,0.01,0.03,0.03,0.04,0.04c0.01,0.01,0.03,0.03,0.04,0.04c0.01,0.01,0.03,0.03,0.04,0.04
			c0.01,0.01,0.03,0.03,0.04,0.04c0.01,0.01,0.03,0.03,0.04,0.04c0.01,0.01,0.03,0.03,0.04,0.04c0.01,0.01,0.03,0.03,0.04,0.04
			c0.01,0.01,0.03,0.03,0.04,0.04c0.01,0.01,0.03,0.03,0.04,0.04c0.01,0.01,0.03,0.03,0.04,0.04c0.01,0.01,0.03,0.03,0.04,0.04
			c0.01,0.01,0.03,0.03,0.04,0.04c0.01,0.01,0.03,0.03,0.04,0.04c0.01,0.01,0.03,0.03,0.04,0.04c0.01,0.01,0.03,0.03,0.04,0.04
			c0.01,0.01,0.03,0.02,0.04,0.04c0.01,0.01,0.03,0.03,0.04,0.04c0.01,0.01,0.03,0.03,0.04,0.04c0.01,0.01,0.03,0.03,0.04,0.04
			c0.01,0.01,0.03,0.03,0.04,0.04c0.01,0.01,0.03,0.03,0.04,0.04c0.01,0.01,0.03,0.02,0.04,0.04c0.01,0.01,0.03,0.03,0.04,0.04
			c0.01,0.01,0.03,0.03,0.04,0.04c0.01,0.01,0.03,0.03,0.04,0.04c0.01,0.01,0.03,0.02,0.04,0.04c0.01,0.01,0.03,0.03,0.04,0.04
			c0.01,0.01,0.03,0.03,0.04,0.04c0.01,0.01,0.03,0.03,0.04,0.04c0.01,0.01,0.03,0.03,0.04,0.04c0.01,0.01,0.03,0.03,0.04,0.04
			c0.01,0.01,0.03,0.02,0.04,0.04c0.01,0.01,0.03,0.03,0.04,0.04c0.01,0.01,0.03,0.03,0.04,0.04c0.01,0.01,0.03,0.03,0.04,0.04
			c0.01,0.01,0.03,0.03,0.04,0.04c0.01,0.01,0.03,0.03,0.04,0.04c0.01,0.01,0.03,0.03,0.04,0.04c0.01,0.01,0.03,0.03,0.04,0.04
			c0.01,0.01,0.03,0.03,0.04,0.04c0.01,0.01,0.03,0.03,0.04,0.04c0.01,0.01,0.03,0.03,0.04,0.04c0.01,0.01,0.03,0.03,0.04,0.04
			c0.01,0.01,0.03,0.03,0.04,0.04c0.01,0.01,0.03,0.03,0.04,0.04c0.01,0.01,0.03,0.03,0.04,0.04c0.01,0.01,0.03,0.03,0.04,0.04
			c0.01,0.01,0.03,0.03,0.04,0.04c0.01,0.01,0.03,0.03,0.04,0.04c0.01,0.01,0.03,0.03,0.04,0.04c0.01,0.01,0.03,0.03,0.04,0.04
			c0.01,0.01,0.03,0.03,0.04,0.04c0.01,0.01,0.03,0.03,0.04,0.04c0.01,0.01,0.03,0.03,0.04,0.04c0.01,0.01,0.03,0.03,0.04,0.04
			c0.01,0.01,0.03,0.03,0.04,0.04c0.01,0.01,0.03,0.03,0.04,0.04c0.01,0.01,0.03,0.03,0.04,0.04c0.01,0.01,0.03,0.03,0.04,0.04
			c0.01,0.01,0.03,0.03,0.04,0.04c0.01,0.01,0.03,0.02,0.04,0.04c0.01,0.01,0.03,0.03,0.04,0.04c0.01,0.01,0.03,0.03,0.04,0.04
			c0.01,0.01,0.03,0.03,0.04,0.04c0.01,0.01,0.03,0.03,0.04,0.04c0.01,0.01,0.03,0.03,0.04,0.04c0.01,0.01,0.03,0.02,0.04,0.04
			c0.01,0.01,0.03,0.03,0.04,0.04c0.01,0.01,0.03,0.03,0.04,0.04c0.01,0.01,0.03,0.03,0.04,0.04c0.01,0.01,0.03,0.02,0.04,0.04
			c0.01,0.01,0.03,0.03,0.04,0.04c0.01,0.01,0.03,0.03,0.04,0.04c0.01,0.01,0.03,0.03,0.04,0.04c0.01,0.01,0.03,0.03,0.04,0.04
			c0.01,0.01,0.03,0.03,0.04,0.04c0.01,0.01,0.03,0.02,0.04,0.04c0.01,0.01,0.03,0.03,0.04,0.04c0.01,0.01,0.03,0.03,0.04,0.04
			c0.01,0.01,0.03,0.03,0.04,0.04c0.01,0.01,0.03,0.03,0.04,0.04c0.01,0.01,0.03,0.03,0.04,0.04c0.01,0.01,0.03,0.03,0.04,0.04
			c0.01,0.01,0.03,0.03,0.04,0.04c0.01,0.01,0.03,0.03,0.04,0.04c0.01,0.01,0.03,0.03,0.04,0.04c0.01,0.01,0.03,0.03,0.04,0.04
			c0.01,0.01,0.03,0.03,0.04,0.04c0.01,0.01,0.03,0.03,0.04,0.04c0.01,0.01,0.03,0.03,0.04,0.04c0.01,0.01,0.03,0.03,0.04,0.04
			c0.01,0.01,0.03,0.03,0.04,0.04c0.01,0.01,0.03,0.02,0.04,0.04c0.01,0.01,0.03,0.03,0.04,0.04c0.01,0.01,0.03,0.03,0.04,0.04
			c0.01,0.01,0.03,0.03,0.04,0.04c0.01,0.01,0.03,0.03,0.04,0.04c0.01,0.01,0.03,0.03,0.04,0.04c0.01,0.01,0.03,0.03,0.04,0.04
			c0.01,0.01,0.03,0.03,0.04,0.04c0.01,0.01,0.03,0.03,0.04,0.04c0.01,0.01,0.03,0.03,0.04,0.04c0.01,0.01,0.03,0.03,0.04,0.04
			c0.01,0.01,0.03,0.03,0.04,0.04c0.01,0.01,0.03,0.03,0.04,0.04c0.01,0.01,0.03,0.02,0.04,0.04c0.01,0.01,0.03,0.03,0.04,0.04
			c0.01,0.01,0.03,0.03,0.04,0.04c0.01,0.01,0.03,0.03,0.04,0.04c0.01,0.01,0.03,0.03,0.04,0.04c0.01,0.01,0.03,0.03,0.04,0.04
			c0.01,0.01,0.03,0.02,0.04,0.04c0.01,0.01,0.03,0.03,0.04,0.04c0.01,0.01,0.03,0.03,0.04,0.04c0.01,0.01,0.03,0.03,0.04,0.04
			c0.01,0.01,0.03,0.02,0.04,0.04c0.01,0.01,0.03,0.03,0.04,0.04c0.01,0.01,0.03,0.03,0.04,0.04c0.01,0.01,0.03,0.03,0.04,0.04
			c0.01,0.01,0.03,0.03,0.04,0.04c0.01,0.01,0.03,0.03,0.04,0.04c0.01,0.01,0.03,0.02,0.04,0.04c0.01,0.01,0.03,0.03,0.04,0.04
			c0.01,0.01,0.03,0.03,0.04,0.04c3.31,3.31,7.27,5.49,11.83,6.56l-8.3,14.96c-1.03,1.86-1,4.12,0.08,5.96
			c0.27,0.47,0.61,0.88,0.98,1.25c0.01,0.01,0.03,0.03,0.04,0.04c0.01,0.01,0.03,0.03,0.04,0.04c0.01,0.01,0.03,0.03,0.04,0.04
			c0.01,0.01,0.03,0.03,0.04,0.04c0.01,0.01,0.03,0.03,0.04,0.04c0.01,0.01,0.03,0.03,0.04,0.04c0.01,0.01,0.03,0.03,0.04,0.04
			c0.01,0.01,0.03,0.03,0.04,0.04c0.01,0.01,0.03,0.03,0.04,0.04c0.01,0.01,0.03,0.03,0.04,0.04c0.01,0.01,0.03,0.03,0.04,0.04
			c0.01,0.01,0.03,0.03,0.04,0.04c0.01,0.01,0.03,0.03,0.04,0.04c0.01,0.01,0.03,0.03,0.04,0.04c0.01,0.01,0.03,0.03,0.04,0.04
			c0.01,0.01,0.03,0.03,0.04,0.04c0.01,0.01,0.03,0.03,0.04,0.04c0.01,0.01,0.03,0.03,0.04,0.04c0.01,0.01,0.03,0.03,0.04,0.04
			c0.01,0.01,0.03,0.03,0.04,0.04c0.01,0.01,0.03,0.03,0.04,0.04c0.01,0.01,0.03,0.03,0.04,0.04c0.01,0.01,0.03,0.03,0.04,0.04
			c0.01,0.01,0.03,0.03,0.04,0.04c0.01,0.01,0.03,0.03,0.04,0.04c0.01,0.01,0.03,0.03,0.04,0.04c0.01,0.01,0.03,0.03,0.04,0.04
			c0.01,0.01,0.03,0.03,0.04,0.04c0.01,0.01,0.03,0.03,0.04,0.04c0.01,0.01,0.03,0.03,0.04,0.04c0.01,0.01,0.03,0.03,0.04,0.04
			c0.01,0.01,0.03,0.03,0.04,0.04c0.01,0.01,0.03,0.03,0.04,0.04c0.01,0.01,0.03,0.03,0.04,0.04c0.01,0.01,0.03,0.03,0.04,0.04
			c0.01,0.01,0.03,0.03,0.04,0.04c0.01,0.01,0.03,0.03,0.04,0.04c0.01,0.01,0.03,0.03,0.04,0.04c0.01,0.01,0.03,0.03,0.04,0.04
			c0.01,0.01,0.03,0.03,0.04,0.04c0.01,0.01,0.03,0.03,0.04,0.04c0.01,0.01,0.03,0.03,0.04,0.04c0.01,0.01,0.03,0.03,0.04,0.04
			c0.01,0.01,0.03,0.03,0.04,0.04c0.01,0.01,0.03,0.03,0.04,0.04c0.01,0.01,0.03,0.03,0.04,0.04c0.01,0.01,0.03,0.03,0.04,0.04
			c0.01,0.01,0.03,0.03,0.04,0.04c0.01,0.01,0.03,0.03,0.04,0.04c0.01,0.01,0.03,0.03,0.04,0.04c0.01,0.01,0.03,0.03,0.04,0.04
			c0.01,0.01,0.03,0.03,0.04,0.04c0.01,0.01,0.03,0.03,0.04,0.04c0.01,0.01,0.03,0.03,0.04,0.04c0.01,0.01,0.03,0.03,0.04,0.04
			c0.01,0.01,0.03,0.03,0.04,0.04c0.01,0.01,0.03,0.03,0.04,0.04c0.01,0.01,0.03,0.03,0.04,0.04c0.01,0.01,0.03,0.03,0.04,0.04
			c0.01,0.01,0.03,0.03,0.04,0.04c0.01,0.01,0.03,0.03,0.04,0.04c0.01,0.01,0.03,0.03,0.04,0.04c0.01,0.01,0.03,0.03,0.04,0.04
			c0.01,0.01,0.03,0.03,0.04,0.04c0.01,0.01,0.03,0.03,0.04,0.04c0.01,0.01,0.03,0.03,0.04,0.04c0.01,0.01,0.03,0.03,0.04,0.04
			c0.01,0.01,0.03,0.03,0.04,0.04c0.01,0.01,0.03,0.03,0.04,0.04c0.01,0.01,0.03,0.03,0.04,0.04c0.01,0.01,0.03,0.03,0.04,0.04
			c0.01,0.01,0.03,0.03,0.04,0.04c0.01,0.01,0.03,0.03,0.04,0.04c0.01,0.01,0.03,0.03,0.04,0.04c0.01,0.01,0.03,0.03,0.04,0.04
			c0.01,0.01,0.03,0.03,0.04,0.04c0.01,0.01,0.03,0.03,0.04,0.04c0.01,0.01,0.03,0.03,0.04,0.04c0.01,0.01,0.03,0.03,0.04,0.04
			c0.01,0.01,0.03,0.03,0.04,0.04c0.01,0.01,0.03,0.03,0.04,0.04c0.01,0.01,0.03,0.03,0.04,0.04c0.01,0.01,0.03,0.03,0.04,0.04
			c0.01,0.01,0.03,0.03,0.04,0.04c0.01,0.01,0.03,0.03,0.04,0.04c0.01,0.01,0.03,0.03,0.04,0.04c0.01,0.01,0.03,0.03,0.04,0.04
			c0.01,0.01,0.03,0.03,0.04,0.04c0.01,0.01,0.03,0.03,0.04,0.04c0.01,0.01,0.03,0.03,0.04,0.04c0.01,0.01,0.03,0.03,0.04,0.04
			c0.01,0.01,0.03,0.03,0.04,0.04c0.01,0.01,0.03,0.03,0.04,0.04c0.01,0.01,0.03,0.03,0.04,0.04c0.01,0.01,0.03,0.03,0.04,0.04
			c0.01,0.01,0.03,0.03,0.04,0.04c0.01,0.01,0.03,0.03,0.04,0.04c0.01,0.01,0.03,0.03,0.04,0.04c0.01,0.01,0.03,0.03,0.04,0.04
			c0.01,0.01,0.03,0.03,0.04,0.04c0.01,0.01,0.03,0.03,0.04,0.04c0.01,0.01,0.03,0.03,0.04,0.04c0.01,0.01,0.03,0.03,0.04,0.04
			c0.01,0.01,0.03,0.03,0.04,0.04c0.01,0.01,0.03,0.03,0.04,0.04c0.01,0.01,0.03,0.03,0.04,0.04c0.01,0.01,0.03,0.03,0.04,0.04
			c0.01,0.01,0.03,0.03,0.04,0.04c0.01,0.01,0.03,0.03,0.04,0.04c0.01,0.01,0.03,0.03,0.04,0.04c0.01,0.01,0.03,0.03,0.04,0.04
			c0.01,0.01,0.03,0.03,0.04,0.04c0.01,0.01,0.03,0.03,0.04,0.04c0.01,0.01,0.03,0.03,0.04,0.04c0.01,0.01,0.03,0.03,0.04,0.04
			c0.01,0.01,0.03,0.03,0.04,0.04c0.01,0.01,0.03,0.03,0.04,0.04c0.01,0.01,0.03,0.03,0.04,0.04c0.01,0.01,0.03,0.03,0.04,0.04
			c0.01,0.01,0.03,0.03,0.04,0.04c0.01,0.01,0.03,0.03,0.04,0.04c0.01,0.01,0.03,0.03,0.04,0.04c0.01,0.01,0.03,0.03,0.04,0.04
			c0.01,0.01,0.03,0.03,0.04,0.04c0.01,0.01,0.03,0.03,0.04,0.04c0.01,0.01,0.03,0.03,0.04,0.04c0.01,0.01,0.03,0.03,0.04,0.04
			c0.01,0.01,0.03,0.03,0.04,0.04c0.01,0.01,0.03,0.03,0.04,0.04c0.01,0.01,0.03,0.03,0.04,0.04c0.01,0.01,0.03,0.03,0.04,0.04
			c0.01,0.01,0.03,0.03,0.04,0.04c0.01,0.01,0.03,0.03,0.04,0.04c0.01,0.01,0.03,0.03,0.04,0.04c0.01,0.01,0.03,0.03,0.04,0.04
			c0.01,0.01,0.03,0.03,0.04,0.04c0.01,0.01,0.03,0.03,0.04,0.04c0.01,0.01,0.03,0.03,0.04,0.04c0.01,0.01,0.03,0.03,0.04,0.04
			c0.01,0.01,0.03,0.03,0.04,0.04c0.01,0.01,0.03,0.03,0.04,0.04c0.01,0.01,0.03,0.03,0.04,0.04c0.01,0.01,0.03,0.03,0.04,0.04
			c0.01,0.01,0.03,0.03,0.04,0.04c0.01,0.01,0.03,0.03,0.04,0.04c0.01,0.01,0.03,0.03,0.04,0.04c0.01,0.01,0.03,0.03,0.04,0.04
			c0.01,0.01,0.03,0.03,0.04,0.04c0.01,0.01,0.03,0.03,0.04,0.04c0.01,0.01,0.03,0.03,0.04,0.04c0.01,0.01,0.03,0.03,0.04,0.04
			c0.01,0.01,0.03,0.03,0.04,0.04c0.01,0.01,0.03,0.03,0.04,0.04c0.01,0.01,0.03,0.03,0.04,0.04c0.01,0.01,0.03,0.03,0.04,0.04
			c0.01,0.01,0.03,0.03,0.04,0.04c0.01,0.01,0.03,0.03,0.04,0.04c0.01,0.01,0.03,0.03,0.04,0.04c0.01,0.01,0.03,0.03,0.04,0.04
			c0.01,0.01,0.03,0.03,0.04,0.04c0.01,0.01,0.03,0.03,0.04,0.04c0.01,0.01,0.03,0.03,0.04,0.04c0.01,0.01,0.03,0.03,0.04,0.04
			c0.01,0.01,0.03,0.03,0.04,0.04c0.01,0.01,0.03,0.03,0.04,0.04c0.01,0.01,0.03,0.03,0.04,0.04c0.01,0.01,0.03,0.03,0.04,0.04
			c0.01,0.01,0.03,0.03,0.04,0.04c0.01,0.01,0.03,0.03,0.04,0.04c0.01,0.01,0.03,0.03,0.04,0.04c0.01,0.01,0.03,0.03,0.04,0.04
			c0.01,0.01,0.03,0.03,0.04,0.04c0.01,0.01,0.03,0.03,0.04,0.04c0.01,0.01,0.03,0.03,0.04,0.04c0.01,0.01,0.03,0.03,0.04,0.04
			c0.01,0.01,0.03,0.03,0.04,0.04c0.01,0.01,0.03,0.03,0.04,0.04c0.01,0.01,0.03,0.03,0.04,0.04c0.01,0.01,0.03,0.03,0.04,0.04
			c0.01,0.01,0.03,0.03,0.04,0.04c0.01,0.01,0.03,0.03,0.04,0.04c0.01,0.01,0.03,0.03,0.04,0.04c0.01,0.01,0.03,0.03,0.04,0.04
			c0.01,0.01,0.03,0.03,0.04,0.04c0.01,0.01,0.03,0.03,0.04,0.04c0.01,0.01,0.03,0.03,0.04,0.04c0.01,0.01,0.03,0.03,0.04,0.04
			c0.01,0.01,0.03,0.03,0.04,0.04c0.01,0.01,0.03,0.03,0.04,0.04c0.01,0.01,0.03,0.03,0.04,0.04c0.01,0.01,0.03,0.03,0.04,0.04
			c0.01,0.01,0.03,0.03,0.04,0.04c0.01,0.01,0.03,0.03,0.04,0.04c0.01,0.01,0.03,0.03,0.04,0.04c0.01,0.01,0.03,0.03,0.04,0.04
			c0.01,0.01,0.03,0.03,0.04,0.04c0.01,0.01,0.03,0.03,0.04,0.04c0.01,0.01,0.03,0.03,0.04,0.04c0.01,0.01,0.03,0.03,0.04,0.04
			c0.01,0.01,0.03,0.03,0.04,0.04c0.01,0.01,0.03,0.03,0.04,0.04c0.01,0.01,0.03,0.03,0.04,0.04c0.01,0.01,0.03,0.03,0.04,0.04
			c0.01,0.01,0.03,0.03,0.04,0.04c0.01,0.01,0.03,0.03,0.04,0.04c0.01,0.01,0.03,0.03,0.04,0.04c0.01,0.01,0.03,0.03,0.04,0.04
			c0.01,0.01,0.03,0.03,0.04,0.04c0.01,0.01,0.03,0.03,0.04,0.04c0.01,0.01,0.03,0.03,0.04,0.04c0.01,0.01,0.03,0.03,0.04,0.04
			c0.01,0.01,0.03,0.03,0.04,0.04c0.01,0.01,0.03,0.03,0.04,0.04c0.01,0.01,0.03,0.03,0.04,0.04c0.01,0.01,0.03,0.03,0.04,0.04
			c0.01,0.01,0.03,0.03,0.04,0.04c0.01,0.01,0.03,0.03,0.04,0.04c0.01,0.01,0.03,0.03,0.04,0.04c0.01,0.01,0.03,0.03,0.04,0.04
			c0.01,0.01,0.03,0.03,0.04,0.04c0.01,0.01,0.03,0.03,0.04,0.04c0.01,0.01,0.03,0.03,0.04,0.04c0.01,0.01,0.03,0.03,0.04,0.04
			c0.01,0.01,0.03,0.03,0.04,0.04c0.01,0.01,0.03,0.03,0.04,0.04c0.01,0.01,0.03,0.03,0.04,0.04c0.01,0.01,0.03,0.03,0.04,0.04
			c0.01,0.01,0.03,0.03,0.04,0.04c0.01,0.01,0.03,0.03,0.04,0.04c0.01,0.01,0.03,0.03,0.04,0.04c0.01,0.01,0.03,0.03,0.04,0.04
			c0.01,0.01,0.03,0.03,0.04,0.04c0.01,0.01,0.03,0.03,0.04,0.04c0.01,0.01,0.03,0.03,0.04,0.04c0.01,0.01,0.03,0.03,0.04,0.04
			c0.01,0.01,0.03,0.03,0.04,0.04c0.01,0.01,0.03,0.03,0.04,0.04c0.01,0.01,0.03,0.03,0.04,0.04c0.01,0.01,0.03,0.03,0.04,0.04
			c0.01,0.01,0.03,0.03,0.04,0.04c0.01,0.01,0.03,0.03,0.04,0.04c0.01,0.01,0.03,0.03,0.04,0.04c0.01,0.01,0.03,0.03,0.04,0.04
			c0.01,0.01,0.03,0.03,0.04,0.04c0.01,0.01,0.03,0.03,0.04,0.04c0.01,0.01,0.03,0.03,0.04,0.04c0.01,0.01,0.03,0.03,0.04,0.04
			c0.01,0.01,0.03,0.03,0.04,0.04c0.01,0.01,0.03,0.03,0.04,0.04c0.01,0.01,0.03,0.03,0.04,0.04c0.01,0.01,0.03,0.03,0.04,0.04
			c0.01,0.01,0.03,0.03,0.04,0.04c0.01,0.01,0.03,0.03,0.04,0.04c0.01,0.01,0.03,0.03,0.04,0.04c0.01,0.01,0.03,0.03,0.04,0.04
			c0.01,0.01,0.03,0.03,0.04,0.04c1.11,1.1,2.62,1.74,4.23,1.74h17.4c2.18,0,4.19-1.18,5.25-3.09l9.98-17.99
			c0.55,0.86,1.14,1.7,1.78,2.49c0.64,0.8,1.32,1.54,2.02,2.24c0.01,0.01,0.03,0.03,0.04,0.04c0.01,0.01,0.03,0.03,0.04,0.04
			c0.01,0.01,0.03,0.03,0.04,0.04c0.01,0.01,0.03,0.03,0.04,0.04c0.01,0.01,0.03,0.03,0.04,0.04c0.01,0.01,0.03,0.03,0.04,0.04
			c0.01,0.01,0.03,0.03,0.04,0.04c0.01,0.01,0.03,0.03,0.04,0.04c0.01,0.01,0.03,0.03,0.04,0.04c0.01,0.01,0.03,0.03,0.04,0.04
			c0.01,0.01,0.03,0.03,0.04,0.04c0.01,0.01,0.03,0.03,0.04,0.04c0.01,0.01,0.03,0.02,0.04,0.04c0.01,0.01,0.03,0.03,0.04,0.04
			c0.01,0.01,0.03,0.03,0.04,0.04c0.01,0.01,0.03,0.03,0.04,0.04c0.01,0.01,0.03,0.03,0.04,0.04c0.01,0.01,0.03,0.03,0.04,0.04
			c0.01,0.01,0.03,0.02,0.04,0.04c0.01,0.01,0.03,0.03,0.04,0.04c0.01,0.01,0.03,0.03,0.04,0.04c0.01,0.01,0.03,0.03,0.04,0.04
			c0.01,0.01,0.03,0.02,0.04,0.04c0.01,0.01,0.03,0.03,0.04,0.04c0.01,0.01,0.03,0.03,0.04,0.04c0.01,0.01,0.03,0.03,0.04,0.04
			c0.01,0.01,0.03,0.03,0.04,0.04c0.01,0.01,0.03,0.03,0.04,0.04c0.01,0.01,0.03,0.03,0.04,0.04c0.01,0.01,0.03,0.03,0.04,0.04
			c0.01,0.01,0.03,0.03,0.04,0.04c0.01,0.01,0.03,0.02,0.04,0.04c0.01,0.01,0.03,0.03,0.04,0.04c0.01,0.01,0.03,0.03,0.04,0.04
			c0.01,0.01,0.03,0.03,0.04,0.04c0.01,0.01,0.03,0.02,0.04,0.04c0.01,0.01,0.03,0.03,0.04,0.04c0.01,0.01,0.03,0.03,0.04,0.04
			c0.01,0.01,0.03,0.03,0.04,0.04c0.01,0.01,0.03,0.03,0.04,0.04c0.01,0.01,0.03,0.03,0.04,0.04c0.01,0.01,0.03,0.02,0.04,0.04
			c0.01,0.01,0.03,0.03,0.04,0.04c0.01,0.01,0.03,0.03,0.04,0.04c0.01,0.01,0.03,0.03,0.04,0.04c0.01,0.01,0.03,0.03,0.04,0.04
			c0.01,0.01,0.03,0.03,0.04,0.04c0.01,0.01,0.03,0.03,0.04,0.04c0.01,0.01,0.03,0.03,0.04,0.04c0.01,0.01,0.03,0.03,0.04,0.04
			c0.01,0.01,0.03,0.03,0.04,0.04c0.01,0.01,0.03,0.03,0.04,0.04c0.01,0.01,0.03,0.03,0.04,0.04c0.01,0.01,0.03,0.03,0.04,0.04
			c0.01,0.01,0.03,0.03,0.04,0.04c0.01,0.01,0.03,0.03,0.04,0.04c0.01,0.01,0.03,0.03,0.04,0.04c0.01,0.01,0.03,0.02,0.04,0.04
			c0.01,0.01,0.03,0.03,0.04,0.04c0.01,0.01,0.03,0.03,0.04,0.04c0.01,0.01,0.03,0.03,0.04,0.04c0.01,0.01,0.03,0.03,0.04,0.04
			c0.01,0.01,0.03,0.03,0.04,0.04c0.01,0.01,0.03,0.02,0.04,0.04c0.01,0.01,0.03,0.03,0.04,0.04c0.01,0.01,0.03,0.03,0.04,0.04
			c0.01,0.01,0.03,0.03,0.04,0.04c0.01,0.01,0.03,0.02,0.04,0.04c0.01,0.01,0.03,0.03,0.04,0.04c0.01,0.01,0.03,0.03,0.04,0.04
			c0.01,0.01,0.03,0.03,0.04,0.04c0.01,0.01,0.03,0.03,0.04,0.04c0.01,0.01,0.03,0.03,0.04,0.04c0.01,0.01,0.03,0.02,0.04,0.04
			c0.01,0.01,0.03,0.03,0.04,0.04c0.01,0.01,0.03,0.03,0.04,0.04c0.01,0.01,0.03,0.03,0.04,0.04s0.03,0.03,0.04,0.04
			c0.01,0.01,0.03,0.03,0.04,0.04c0.01,0.01,0.03,0.03,0.04,0.04c0.01,0.01,0.03,0.02,0.04,0.04c0.01,0.01,0.03,0.03,0.04,0.04
			c0.01,0.01,0.03,0.03,0.04,0.04c0.01,0.01,0.03,0.03,0.04,0.04c0.01,0.01,0.03,0.03,0.04,0.04c0.01,0.01,0.03,0.03,0.04,0.04
			c0.01,0.01,0.03,0.02,0.04,0.04c0.01,0.01,0.03,0.03,0.04,0.04c0.01,0.01,0.03,0.03,0.04,0.04c0.01,0.01,0.03,0.03,0.04,0.04
			c0.01,0.01,0.03,0.03,0.04,0.04c0.01,0.01,0.03,0.03,0.04,0.04c0.01,0.01,0.03,0.03,0.04,0.04c0.01,0.01,0.03,0.03,0.04,0.04
			c0.01,0.01,0.03,0.03,0.04,0.04c0.01,0.01,0.03,0.03,0.04,0.04c0.01,0.01,0.03,0.03,0.04,0.04c0.01,0.01,0.03,0.03,0.04,0.04
			c0.01,0.01,0.03,0.03,0.04,0.04c0.01,0.01,0.03,0.03,0.04,0.04c0.01,0.01,0.03,0.03,0.04,0.04c0.01,0.01,0.03,0.03,0.04,0.04
			c0.01,0.01,0.03,0.02,0.04,0.04c0.01,0.01,0.03,0.03,0.04,0.04c0.01,0.01,0.03,0.03,0.04,0.04c0.01,0.01,0.03,0.03,0.04,0.04
			c0.01,0.01,0.03,0.03,0.04,0.04c0.01,0.01,0.03,0.03,0.04,0.04c0.01,0.01,0.03,0.02,0.04,0.04c0.01,0.01,0.03,0.03,0.04,0.04
			c0.01,0.01,0.03,0.03,0.04,0.04c0.01,0.01,0.03,0.03,0.04,0.04c0.01,0.01,0.03,0.02,0.04,0.04c0.01,0.01,0.03,0.03,0.04,0.04
			c0.01,0.01,0.03,0.03,0.04,0.04c0.01,0.01,0.03,0.03,0.04,0.04c0.01,0.01,0.03,0.03,0.04,0.04c0.01,0.01,0.03,0.03,0.04,0.04
			c0.01,0.01,0.03,0.02,0.04,0.04c0.01,0.01,0.03,0.03,0.04,0.04c0.01,0.01,0.03,0.03,0.04,0.04c0.01,0.01,0.03,0.03,0.04,0.04
			c0.01,0.01,0.03,0.03,0.04,0.04c0.01,0.01,0.03,0.03,0.04,0.04c0.01,0.01,0.03,0.03,0.04,0.04c0.01,0.01,0.03,0.03,0.04,0.04
			c0.01,0.01,0.03,0.03,0.04,0.04c0.01,0.01,0.03,0.03,0.04,0.04c0.01,0.01,0.03,0.03,0.04,0.04c0.01,0.01,0.03,0.03,0.04,0.04
			c0.01,0.01,0.03,0.03,0.04,0.04c0.01,0.01,0.03,0.02,0.04,0.04c0.01,0.01,0.03,0.03,0.04,0.04c0.01,0.01,0.03,0.03,0.04,0.04
			c0.01,0.01,0.03,0.03,0.04,0.04c0.01,0.01,0.03,0.03,0.04,0.04c0.01,0.01,0.03,0.03,0.04,0.04c0.01,0.01,0.03,0.03,0.04,0.04
			c0.01,0.01,0.03,0.03,0.04,0.04c0.01,0.01,0.03,0.03,0.04,0.04c0.01,0.01,0.03,0.03,0.04,0.04c0.01,0.01,0.03,0.03,0.04,0.04
			c0.01,0.01,0.03,0.03,0.04,0.04c0.01,0.01,0.03,0.03,0.04,0.04c0.01,0.01,0.03,0.03,0.04,0.04c0.01,0.01,0.03,0.03,0.04,0.04
			c0.01,0.01,0.03,0.03,0.04,0.04c0.01,0.01,0.03,0.02,0.04,0.04c0.01,0.01,0.03,0.03,0.04,0.04c0.01,0.01,0.03,0.03,0.04,0.04
			c0.01,0.01,0.03,0.03,0.04,0.04c0.01,0.01,0.03,0.03,0.04,0.04c0.01,0.01,0.03,0.03,0.04,0.04c0.01,0.01,0.03,0.02,0.04,0.04
			c0.01,0.01,0.03,0.03,0.04,0.04c0.01,0.01,0.03,0.03,0.04,0.04c0.01,0.01,0.03,0.03,0.04,0.04c0.01,0.01,0.03,0.02,0.04,0.04
			c0.01,0.01,0.03,0.03,0.04,0.04c0.01,0.01,0.03,0.03,0.04,0.04c0.01,0.01,0.03,0.03,0.04,0.04c0.01,0.01,0.03,0.03,0.04,0.04
			c0.01,0.01,0.03,0.03,0.04,0.04c0.01,0.01,0.03,0.02,0.04,0.04c0.01,0.01,0.03,0.03,0.04,0.04c0.01,0.01,0.03,0.03,0.04,0.04
			c0.01,0.01,0.03,0.03,0.04,0.04c0.01,0.01,0.03,0.03,0.04,0.04c0.01,0.01,0.03,0.03,0.04,0.04c0.01,0.01,0.03,0.03,0.04,0.04
			c0.01,0.01,0.03,0.03,0.04,0.04c0.01,0.01,0.03,0.03,0.04,0.04c0.01,0.01,0.03,0.03,0.04,0.04c0.01,0.01,0.03,0.03,0.04,0.04
			c0.01,0.01,0.03,0.03,0.04,0.04c0.01,0.01,0.03,0.03,0.04,0.04c0.01,0.01,0.03,0.03,0.04,0.04c0.01,0.01,0.03,0.03,0.04,0.04
			c0.01,0.01,0.03,0.03,0.04,0.04c0.01,0.01,0.03,0.03,0.04,0.04c0.01,0.01,0.03,0.03,0.04,0.04c0.01,0.01,0.03,0.03,0.04,0.04
			c0.01,0.01,0.03,0.03,0.04,0.04c0.01,0.01,0.03,0.03,0.04,0.04c0.01,0.01,0.03,0.03,0.04,0.04c0.01,0.01,0.03,0.03,0.04,0.04
			c0.01,0.01,0.03,0.03,0.04,0.04c0.01,0.01,0.03,0.03,0.04,0.04c0.01,0.01,0.03,0.03,0.04,0.04c0.01,0.01,0.03,0.03,0.04,0.04
			c0.01,0.01,0.03,0.03,0.04,0.04c0.01,0.01,0.03,0.03,0.04,0.04c0.01,0.01,0.03,0.02,0.04,0.04c0.01,0.01,0.03,0.03,0.04,0.04
			c0.01,0.01,0.03,0.03,0.04,0.04c0.01,0.01,0.03,0.03,0.04,0.04c0.01,0.01,0.03,0.03,0.04,0.04c0.01,0.01,0.03,0.03,0.04,0.04
			c0.01,0.01,0.03,0.02,0.04,0.04c0.01,0.01,0.03,0.03,0.04,0.04c0.01,0.01,0.03,0.03,0.04,0.04c0.01,0.01,0.03,0.03,0.04,0.04
			c0.01,0.01,0.03,0.02,0.04,0.04c0.01,0.01,0.03,0.03,0.04,0.04c0.01,0.01,0.03,0.03,0.04,0.04c0.01,0.01,0.03,0.03,0.04,0.04
			c0.01,0.01,0.03,0.03,0.04,0.04c0.01,0.01,0.03,0.03,0.04,0.04c0.01,0.01,0.03,0.02,0.04,0.04c0.01,0.01,0.03,0.03,0.04,0.04
			c0.01,0.01,0.03,0.03,0.04,0.04c0.01,0.01,0.03,0.03,0.04,0.04c0.01,0.01,0.03,0.03,0.04,0.04c0.01,0.01,0.03,0.03,0.04,0.04
			c0.01,0.01,0.03,0.03,0.04,0.04c0.01,0.01,0.03,0.03,0.04,0.04c0.01,0.01,0.03,0.03,0.04,0.04c0.01,0.01,0.03,0.03,0.04,0.04
			c0.01,0.01,0.03,0.03,0.04,0.04c0.01,0.01,0.03,0.03,0.04,0.04c0.01,0.01,0.03,0.03,0.04,0.04c0.01,0.01,0.03,0.03,0.04,0.04
			c0.01,0.01,0.03,0.03,0.04,0.04c0.01,0.01,0.03,0.03,0.04,0.04c0.01,0.01,0.03,0.02,0.04,0.04c0.01,0.01,0.03,0.03,0.04,0.04
			c0.01,0.01,0.03,0.03,0.04,0.04c0.01,0.01,0.03,0.03,0.04,0.04c0.01,0.01,0.03,0.03,0.04,0.04c0.01,0.01,0.03,0.03,0.04,0.04
			c0.01,0.01,0.03,0.03,0.04,0.04c0.01,0.01,0.03,0.03,0.04,0.04c0.01,0.01,0.03,0.03,0.04,0.04c0.01,0.01,0.03,0.03,0.04,0.04
			c0.01,0.01,0.03,0.03,0.04,0.04c0.01,0.01,0.03,0.03,0.04,0.04c0.01,0.01,0.03,0.03,0.04,0.04c0.01,0.01,0.03,0.02,0.04,0.04
			c0.01,0.01,0.03,0.03,0.04,0.04c0.01,0.01,0.03,0.03,0.04,0.04c0.01,0.01,0.03,0.03,0.04,0.04c0.01,0.01,0.03,0.03,0.04,0.04
			c0.01,0.01,0.03,0.03,0.04,0.04c0.01,0.01,0.03,0.02,0.04,0.04c0.01,0.01,0.03,0.03,0.04,0.04c0.01,0.01,0.03,0.03,0.04,0.04
			c0.01,0.01,0.03,0.03,0.04,0.04c0.01,0.01,0.03,0.02,0.04,0.04c0.01,0.01,0.03,0.03,0.04,0.04c0.01,0.01,0.03,0.03,0.04,0.04
			c0.01,0.01,0.03,0.03,0.04,0.04c0.01,0.01,0.03,0.03,0.04,0.04c0.01,0.01,0.03,0.03,0.04,0.04c0.01,0.01,0.03,0.02,0.04,0.04
			c0.01,0.01,0.03,0.03,0.04,0.04c0.01,0.01,0.03,0.03,0.04,0.04c4.87,4.86,11.13,7.32,18.66,7.32c8.95,0,16.06-3.11,21.12-9.24
			c4.78-5.79,7.2-13.77,7.2-23.71C164.34,336.6,161.83,328.72,156.9,322.83z"/>
	</g>
	<g>
		<g>
			<path class="st7" d="M83.18,302.15c0,8.59-1.93,15.24-5.8,19.95c-3.87,4.71-9.38,7.06-16.52,7.06c-6.72,0-12.04-2.43-15.97-7.29
				S39,310.43,39,302.15c0-8.59,1.91-15.21,5.74-19.83c3.83-4.63,9.2-6.94,16.11-6.94c6.84,0,12.27,2.4,16.29,7.21
				C81.17,287.38,83.18,293.91,83.18,302.15z M56.64,302.38c0,4.49,0.37,7.73,1.11,9.73c0.74,1.99,1.85,2.99,3.34,2.99
				c1.48,0,2.59-0.98,3.31-2.93c0.72-1.95,1.08-5.21,1.08-9.79c0-4.49-0.36-7.73-1.08-9.73c-0.72-1.99-1.83-2.99-3.31-2.99
				c-1.52,0-2.65,1.02-3.37,3.05C57,294.75,56.64,297.97,56.64,302.38z M125.89,276.6l-47.52,85.66h-17.4l47.52-85.66H125.89z
				 M148.34,336.25c0,8.55-1.94,15.19-5.83,19.89s-9.38,7.06-16.49,7.06c-6.72,0-12.04-2.43-15.97-7.29s-5.89-11.42-5.89-19.66
				c0-8.59,1.91-15.21,5.74-19.83c3.83-4.63,9.2-6.94,16.11-6.94c6.84,0,12.27,2.4,16.29,7.21S148.34,328.01,148.34,336.25z
				 M121.79,336.49c0,4.49,0.37,7.73,1.11,9.73c0.74,1.99,1.85,2.99,3.34,2.99c1.68,0,2.84-1.14,3.49-3.43s0.97-5.38,0.97-9.29
				s-0.32-7-0.97-9.29s-1.81-3.43-3.49-3.43c-1.52,0-2.65,1.02-3.37,3.05C122.15,328.85,121.79,332.07,121.79,336.49z"/>
		</g>
	</g>
</g>
<g>
	<g>
		<g>
			<g>
				<path class="st4" d="M178.76,294.24c-1.66-0.41-3-2.13-3-3.78c0-26.67,0-53.33,0-80c0-1.66,1.34-2.63,3-2.22
					c56.3,13.87,112.59-17.18,168.89-3.31c1.66,0.41,3,2.13,3,3.78c0,26.67,0,53.33,0,80c0,1.66-1.34,2.63-3,2.22
					C291.36,277.06,235.06,308.12,178.76,294.24z"/>
			</g>
			<g>
				<path class="st5" d="M347.65,207.94c0,26.67,0,53.33,0,80c-56.3-13.87-112.59,17.18-168.89,3.31c0-26.67,0-53.33,0-80
					C235.06,225.12,291.36,194.06,347.65,207.94 M347.65,201.94c-56.3-13.87-112.59,17.18-168.89,3.31c-3.31-0.81-6,1.03-6,4.35
					c0,26.67,0,53.33,0,80c0,3.31,2.69,6.84,6,7.65c56.3,13.87,112.59-17.18,168.89-3.31c3.31,0.81,6-1.03,6-4.35
					c0-26.67,0-53.33,0-80C353.65,206.28,350.97,202.75,347.65,201.94L347.65,201.94z"/>
			</g>
		</g>
		<g>
			<path class="st6" d="M340.54,265.97c0-13.04,0-26.07,0-39.11c-7.36-1.34-13.33-7.65-13.33-15.04
				c-42.67-3.27-85.33,13.02-128,9.75c0,7.35-5.97,12.97-13.33,11.63c0,13.04,0,26.07,0,39.11c7.36,1.34,13.33,7.65,13.33,15.04
				c42.67,3.27,85.33-13.02,128-9.75C327.21,270.26,333.18,264.63,340.54,265.97z"/>
		</g>
		<g>
			<g>
				<path class="st4" d="M294.32,245.4c0,20.55-13.93,38.76-31.11,41.52c-17.18,2.75-31.11-12.47-31.11-33.15
					c0-20.55,13.93-38.76,31.11-41.52C280.39,209.5,294.32,224.72,294.32,245.4z"/>
			</g>
		</g>
		<g>
			<g>
				<path class="st4" d="M219.65,254.69c0,6.37-4.78,11.82-10.67,11.75c-5.89-0.06-10.67-5.67-10.67-12.05
					c0-6.39,4.78-11.12,10.67-11.06C214.88,243.4,219.65,248.3,219.65,254.69z"/>
			</g>
		</g>
		<g>
			<g>
				<path class="st4" d="M328.1,244.78c0,6.39-4.78,11.12-10.67,11.06c-5.89-0.07-10.67-4.97-10.67-11.36
					c0-6.37,4.78-11.82,10.67-11.75C323.32,232.79,328.1,238.41,328.1,244.78z"/>
			</g>
		</g>
	</g>
	<g>
		<g>
			<g>
				<g>
					<path class="st5" d="M267.85,248.43c-1.06,0-1.94-0.83-2-1.89c-0.17-3.31,2.37-6.14,5.68-6.31c3.32-0.2,6.14,2.38,6.31,5.68
						c0.06,1.1-0.79,2.04-1.89,2.1c-1.12,0.05-2.04-0.79-2.1-1.89c-0.06-1.1-1.02-1.95-2.11-1.9c-0.53,0.03-1.02,0.26-1.38,0.66
						c-0.36,0.4-0.54,0.91-0.51,1.44c0.06,1.1-0.79,2.04-1.89,2.1C267.92,248.43,267.88,248.43,267.85,248.43z"/>
				</g>
			</g>
			<g>
				<g>
					<path class="st5" d="M247.88,249.48c-1.06,0-1.94-0.83-2-1.89c-0.17-3.31,2.37-6.14,5.68-6.31c3.32-0.19,6.14,2.38,6.31,5.68
						c0.06,1.1-0.79,2.04-1.89,2.1c-1.12,0.05-2.04-0.79-2.1-1.89c-0.06-1.1-1.02-1.96-2.11-1.9c-1.1,0.06-1.95,1-1.89,2.1
						c0.06,1.1-0.79,2.04-1.89,2.1C247.95,249.48,247.91,249.48,247.88,249.48z"/>
				</g>
			</g>
			<g>
				<path class="st5" d="M267.75,232.04c0.99-0.58,1.9-0.85,2.91-1.02c1-0.17,2.04-0.17,3.08-0.01c1.04,0.14,2.09,0.51,3.03,1.06
					c0.96,0.53,1.78,1.34,2.35,2.27c0.49,0.81,0.23,1.87-0.59,2.36c-0.38,0.23-0.82,0.29-1.23,0.21l-0.4-0.08
					c-0.78-0.16-1.38-0.36-2.03-0.5c-0.65-0.13-1.26-0.29-1.94-0.4l-2.1-0.32c-0.71-0.1-1.54-0.18-2.24-0.35l-0.42-0.11
					c-0.91-0.23-1.46-1.16-1.22-2.07C267.07,232.63,267.37,232.26,267.75,232.04z"/>
			</g>
			<g>
				<path class="st5" d="M253.95,236.04c-0.67,0.25-1.49,0.41-2.19,0.59l-2.06,0.54c-0.66,0.17-1.26,0.4-1.89,0.6
					c-0.63,0.2-1.21,0.47-1.96,0.71l-0.38,0.12c-0.91,0.29-1.87-0.22-2.16-1.12c-0.14-0.43-0.09-0.87,0.08-1.25
					c0.46-0.99,1.2-1.88,2.1-2.51c0.88-0.65,1.89-1.12,2.9-1.37c1.02-0.26,2.05-0.37,3.06-0.31c1.03,0.06,1.96,0.24,3,0.71
					c0.86,0.38,1.24,1.39,0.86,2.24c-0.19,0.43-0.54,0.74-0.95,0.9L253.95,236.04z"/>
			</g>
		</g>
		<g>
			<path class="st5" d="M278.57,254.74c-0.11-2.13-1.88-3.79-3.99-3.79c-0.07,0-0.14,0-0.21,0.01l-23.97,1.26
				c-2.21,0.12-3.9,2-3.79,4.2c0.45,8.5,7.46,15.16,15.97,15.16c0.28,0,0.56-0.01,0.85-0.02c4.27-0.22,8.19-2.1,11.05-5.27
				S278.79,259.01,278.57,254.74z"/>
			<g>
				<g>
					
						<ellipse transform="matrix(0.9986 -0.0523 0.0523 0.9986 -13.4336 14.126)" class="st8" cx="263.01" cy="263.57" rx="8.93" ry="4"/>
				</g>
			</g>
		</g>
	</g>
</g>
<g>
	<g>
		<g>
			<g>
				<g>
					<path class="st7" d="M51.16,152.12c-3.31,0-6-2.69-6-6v-114c0-3.31,2.69-6,6-6h114c3.31,0,6,2.69,6,6v97
						c0,0.8-0.32,1.56-0.88,2.12l-20,20c-0.56,0.56-1.33,0.88-2.12,0.88H51.16z"/>
				</g>
				<g>
					<path class="st5" d="M165.16,29.12c1.66,0,3,1.34,3,3v97l-20,20h-97c-1.66,0-3-1.34-3-3v-114c0-1.66,1.34-3,3-3H165.16
						 M165.16,23.12h-114c-4.96,0-9,4.04-9,9v114c0,4.96,4.04,9,9,9h97c1.59,0,3.12-0.63,4.24-1.76l20-20
						c1.13-1.13,1.76-2.65,1.76-4.24v-97C174.16,27.15,170.12,23.12,165.16,23.12L165.16,23.12z"/>
				</g>
			</g>
			<g>
				<path class="st12" d="M140.66,94.12h-75c-1.38,0-2.5-1.12-2.5-2.5l0,0c0-1.38,1.12-2.5,2.5-2.5h75c1.38,0,2.5,1.12,2.5,2.5l0,0
					C143.16,93,142.04,94.12,140.66,94.12z"/>
			</g>
			<g>
				<path class="st5" d="M130.66,114.12h-65c-1.38,0-2.5-1.12-2.5-2.5l0,0c0-1.38,1.12-2.5,2.5-2.5h65c1.38,0,2.5,1.12,2.5,2.5l0,0
					C133.16,113,132.04,114.12,130.66,114.12z"/>
			</g>
			<g>
				<path class="st5" d="M116.66,124.12h-51c-1.38,0-2.5-1.12-2.5-2.5l0,0c0-1.38,1.12-2.5,2.5-2.5h51c1.38,0,2.5,1.12,2.5,2.5l0,0
					C119.16,123,118.04,124.12,116.66,124.12z"/>
			</g>
			<g>
				<path class="st5" d="M100.66,134.12h-35c-1.38,0-2.5-1.12-2.5-2.5l0,0c0-1.38,1.12-2.5,2.5-2.5h35c1.38,0,2.5,1.12,2.5,2.5l0,0
					C103.16,133,102.04,134.12,100.66,134.12z"/>
			</g>
			<g>
				<path class="st6" d="M122.66,104.12h-57c-1.38,0-2.5-1.12-2.5-2.5l0,0c0-1.38,1.12-2.5,2.5-2.5h57c1.38,0,2.5,1.12,2.5,2.5l0,0
					C125.16,103,124.04,104.12,122.66,104.12z"/>
			</g>
			<g>
				<g>
					<path class="st13" d="M148.16,152.12c-0.39,0-0.78-0.07-1.15-0.23c-1.12-0.46-1.85-1.56-1.85-2.77v-17c0-3.31,2.69-6,6-6h17
						c1.21,0,2.31,0.73,2.77,1.85s0.21,2.41-0.65,3.27l-20,20C149.7,151.81,148.94,152.12,148.16,152.12z"/>
				</g>
				<g>
					<g>
						<path class="st5" d="M168.16,129.12l-20,20v-17c0-1.66,1.34-3,3-3H168.16 M168.16,123.12h-17c-4.96,0-9,4.04-9,9v17
							c0,2.43,1.46,4.61,3.7,5.54c0.74,0.31,1.52,0.46,2.29,0.46c1.56,0,3.1-0.61,4.24-1.76l20-20c1.72-1.72,2.23-4.3,1.3-6.54
							C172.77,124.58,170.58,123.12,168.16,123.12L168.16,123.12z M168.16,135.12L168.16,135.12L168.16,135.12L168.16,135.12z"/>
					</g>
				</g>
			</g>
			<g>
				<g>
					<circle class="st14" cx="134.16" cy="68.12" r="2"/>
				</g>
				<g>
					<circle class="st14" cx="142.16" cy="68.12" r="2"/>
				</g>
				<g>
					<circle class="st14" cx="138.16" cy="60.12" r="2"/>
				</g>
			</g>
			<g>
				<g>
					<circle class="st14" cx="74.16" cy="68.12" r="2"/>
				</g>
				<g>
					<circle class="st14" cx="82.16" cy="68.12" r="2"/>
				</g>
				<g>
					<circle class="st14" cx="78.16" cy="60.12" r="2"/>
				</g>
			</g>
			<g>
				<g>
					<g>
						<path class="st5" d="M123.18,62.9c-0.16,0-0.33-0.03-0.49-0.08c-1.6-0.55-4.42-0.55-6.02,0c-0.78,0.27-1.64-0.15-1.91-0.93
							c-0.27-0.78,0.15-1.64,0.93-1.91c2.24-0.77,5.74-0.77,7.98,0c0.78,0.27,1.2,1.12,0.93,1.91
							C124.38,62.51,123.8,62.9,123.18,62.9z"/>
					</g>
					<g>
						<g>
							<circle class="st5" cx="119.68" cy="54.7" r="6"/>
						</g>
						<g>
							<circle class="st7" cx="121.18" cy="54.7" r="1.5"/>
						</g>
					</g>
					<g>
						<path class="st5" d="M116.25,40.76c0.97-0.61,1.86-0.91,2.88-1.12c0.99-0.21,2.03-0.24,3.08-0.12
							c1.04,0.11,2.1,0.44,3.07,0.95c0.97,0.5,1.83,1.28,2.42,2.19c0.52,0.8,0.29,1.86-0.51,2.38c-0.38,0.24-0.81,0.32-1.22,0.25
							l-0.4-0.07c-0.78-0.13-1.39-0.32-2.04-0.43c-0.65-0.1-1.27-0.25-1.96-0.33l-2.11-0.25c-0.72-0.08-1.55-0.12-2.25-0.28
							l-0.42-0.09c-0.92-0.2-1.5-1.11-1.29-2.02C115.6,41.38,115.88,41,116.25,40.76z"/>
					</g>
				</g>
				<g>
					<g>
						<path class="st5" d="M100.13,62.9c-0.16,0-0.33-0.03-0.49-0.08c-1.6-0.55-4.42-0.55-6.02,0c-0.78,0.27-1.64-0.15-1.91-0.93
							c-0.27-0.78,0.15-1.64,0.93-1.91c2.24-0.77,5.74-0.77,7.98,0c0.78,0.27,1.2,1.12,0.93,1.91
							C101.33,62.51,100.75,62.9,100.13,62.9z"/>
					</g>
					<g>
						<g>
							<circle class="st5" cx="96.63" cy="54.7" r="6"/>
						</g>
						<g>
							<circle class="st7" cx="98.13" cy="54.7" r="1.5"/>
						</g>
					</g>
					<g>
						<path class="st5" d="M99.1,43.95c-0.7,0.15-1.53,0.2-2.25,0.28l-2.11,0.25c-0.68,0.08-1.3,0.22-1.96,0.33
							c-0.65,0.11-1.26,0.3-2.04,0.43l-0.39,0.07c-0.94,0.16-1.83-0.47-1.98-1.41c-0.07-0.44,0.03-0.88,0.25-1.22
							c0.59-0.92,1.45-1.69,2.42-2.19c0.96-0.52,2.02-0.84,3.07-0.95c1.04-0.12,2.08-0.08,3.08,0.12c1.01,0.21,1.9,0.51,2.88,1.12
							c0.79,0.5,1.03,1.55,0.54,2.34c-0.25,0.4-0.64,0.66-1.07,0.76L99.1,43.95z"/>
					</g>
				</g>
				<g>
					<path class="st5" d="M108.46,74.09c-4.55,0-9.21-1.07-13.25-3.21c-0.98-0.52-1.35-1.73-0.83-2.7c0.52-0.98,1.73-1.35,2.7-0.83
						c6.83,3.63,16.09,3.64,22.02,0.03c0.94-0.58,2.17-0.28,2.75,0.67c0.57,0.94,0.28,2.17-0.67,2.75
						C117.58,72.99,113.08,74.09,108.46,74.09z"/>
				</g>
				<g>
					<path class="st5" d="M104.41,77.2c1.22,0.34,2.49,0.43,3.75,0.48c0.63,0.03,1.26-0.05,1.89-0.12c0.63-0.07,1.25-0.18,1.85-0.36
						c0.68-0.21,1.4,0.17,1.61,0.85c0.14,0.45,0.01,0.92-0.29,1.25l-0.79,0.85c-0.61,0.66-1.32,1-2.04,1.25
						c-0.73,0.21-1.48,0.32-2.23,0.27c-0.37-0.02-0.75-0.04-1.12-0.11c-0.37-0.06-0.74-0.15-1.09-0.27
						c-0.72-0.24-1.42-0.57-2.04-1.13l-0.74-0.66c-0.55-0.49-0.6-1.34-0.11-1.89C103.4,77.2,103.93,77.06,104.41,77.2z"/>
				</g>
			</g>
		</g>
	</g>
</g>
</svg>
