<?xml version="1.0" encoding="utf-8"?>
<!-- Generator: Adobe Illustrator 25.3.1, SVG Export Plug-In . SVG Version: 6.00 Build 0)  -->
<svg version="1.1" id="increase-ctr" xmlns="http://www.w3.org/2000/svg" xmlns:xlink="http://www.w3.org/1999/xlink" x="0px"
	 y="0px" viewBox="0 0 400 400" style="enable-background:new 0 0 400 400;" xml:space="preserve">
<style type="text/css">
	.st0{fill:#FFFFFF;}
	.st1{fill:#515979;}
	.st2{fill:#667683;}
	.st3{fill:#EF7D7D;}
	.st4{fill:#FFE8A0;}
	.st5{fill:#7DDF96;}
	.st6{fill:#FDE1D9;}
	.st7{fill:#B4ECFB;}
	.st8{fill:#D8F5DF;}
	.st9{fill:#6ADAF7;}
	.st10{fill:#F89D81;}
	.st11{fill:#8988C9;}
	.st12{fill:#C7BCFF;}
	.st13{fill:#D8EBFB;}
</style>
<g>
	<g>
		<g>
			<path class="st0" d="M172,233c-7.17,0-13-5.83-13-13V40c0-7.17,5.83-13,13-13h200c7.17,0,13,5.83,13,13v180c0,7.17-5.83,13-13,13
				H172z"/>
		</g>
		<g>
			<path class="st1" d="M372,30c5.52,0,10,4.48,10,10v180c0,5.52-4.48,10-10,10H172c-5.52,0-10-4.48-10-10V40c0-5.52,4.48-10,10-10
				H372 M372,24H172c-8.82,0-16,7.18-16,16v180c0,8.82,7.18,16,16,16h200c8.82,0,16-7.18,16-16V40C388,31.18,380.82,24,372,24
				L372,24z"/>
		</g>
	</g>
	<g>
		<g>
			<path class="st2" d="M162,61c-1.66,0-3-1.34-3-3V40c0-7.17,5.83-13,13-13h200c7.17,0,13,5.83,13,13v18c0,1.66-1.34,3-3,3H162z"/>
		</g>
		<g>
			<path class="st1" d="M372,30c5.52,0,10,4.48,10,10v18H162V40c0-5.52,4.48-10,10-10H372 M372,24H172c-8.82,0-16,7.18-16,16v18
				c0,3.31,2.69,6,6,6h220c3.31,0,6-2.69,6-6V40C388,31.18,380.82,24,372,24L372,24z"/>
		</g>
	</g>
	<g>
		<g>
			<path class="st0" d="M252,51c-3.86,0-7-3.14-7-7s3.14-7,7-7h114c3.86,0,7,3.14,7,7s-3.14,7-7,7H252z"/>
		</g>
		<g>
			<g>
				<path class="st1" d="M366,40c2.21,0,4,1.79,4,4s-1.79,4-4,4H252c-2.21,0-4-1.79-4-4s1.79-4,4-4H366 M366,34H252
					c-5.51,0-10,4.49-10,10s4.49,10,10,10h114c5.51,0,10-4.49,10-10S371.51,34,366,34L366,34z"/>
			</g>
		</g>
	</g>
	<g>
		<g>
			<circle class="st3" cx="178" cy="44" r="7"/>
		</g>
		<g>
			<g>
				<path class="st1" d="M178,40c2.21,0,4,1.79,4,4s-1.79,4-4,4s-4-1.79-4-4S175.79,40,178,40 M178,34c-5.51,0-10,4.49-10,10
					s4.49,10,10,10s10-4.49,10-10S183.51,34,178,34L178,34z"/>
			</g>
		</g>
	</g>
	<g>
		<g>
			<circle class="st4" cx="202" cy="44" r="7"/>
		</g>
		<g>
			<g>
				<path class="st1" d="M202,40c2.21,0,4,1.79,4,4s-1.79,4-4,4s-4-1.79-4-4S199.79,40,202,40 M202,34c-5.51,0-10,4.49-10,10
					s4.49,10,10,10s10-4.49,10-10S207.51,34,202,34L202,34z"/>
			</g>
		</g>
	</g>
	<g>
		<g>
			<circle class="st5" cx="226" cy="44" r="7"/>
		</g>
		<g>
			<g>
				<path class="st1" d="M226,40c2.21,0,4,1.79,4,4s-1.79,4-4,4s-4-1.79-4-4S223.79,40,226,40 M226,34c-5.51,0-10,4.49-10,10
					s4.49,10,10,10s10-4.49,10-10S231.51,34,226,34L226,34z"/>
			</g>
		</g>
	</g>
	<g>
		<g>
			<g>
				<g>
					<path class="st1" d="M293.5,100.6c-0.32,0-0.64-0.08-0.94-0.24c-1.89-1.02-5.21-1.02-7.11,0c-0.98,0.52-2.19,0.15-2.71-0.82
						c-0.52-0.97-0.16-2.19,0.82-2.71c3.05-1.64,7.84-1.64,10.89,0c0.97,0.52,1.34,1.73,0.82,2.71
						C294.9,100.22,294.21,100.6,293.5,100.6z"/>
				</g>
				<g>
					<g>
						<circle class="st1" cx="289" cy="89.85" r="8"/>
					</g>
					<g>
						<circle class="st0" cx="291" cy="89.85" r="2"/>
					</g>
				</g>
				<g>
					<path class="st1" d="M283.14,73.53c0.68-0.58,1.26-0.95,1.95-1.32c0.67-0.35,1.38-0.64,2.12-0.86c1.48-0.44,3.1-0.61,4.75-0.42
						c0.41,0.06,0.82,0.11,1.23,0.22c0.41,0.11,0.81,0.24,1.21,0.37c0.4,0.15,0.77,0.36,1.15,0.54c0.38,0.18,0.74,0.4,1.07,0.66
						c1.41,0.94,2.39,2.3,3.04,3.7c0.47,1.02,0.02,2.23-1,2.7c-0.58,0.27-1.22,0.24-1.75-0.02l-0.39-0.19
						c-1.05-0.52-1.87-1.06-2.74-1.36c-0.85-0.34-1.67-0.56-2.59-0.68c-0.91-0.13-1.88-0.16-2.93-0.11
						c-0.52,0.04-1.06,0.06-1.61,0.13c-0.53,0.03-1.16,0.15-1.62,0.15l-0.62,0c-1.1,0-1.99-0.9-1.99-2
						C282.44,74.44,282.72,73.9,283.14,73.53z"/>
				</g>
				<g>
					<path class="st1" d="M259.5,100.6c-0.32,0-0.64-0.08-0.94-0.24c-1.89-1.02-5.21-1.02-7.11,0c-0.98,0.52-2.19,0.15-2.71-0.82
						c-0.52-0.97-0.16-2.19,0.82-2.71c3.05-1.64,7.84-1.64,10.89,0c0.97,0.52,1.34,1.73,0.82,2.71
						C260.9,100.22,260.21,100.6,259.5,100.6z"/>
				</g>
				<g>
					<g>
						<circle class="st1" cx="255" cy="89.85" r="8"/>
					</g>
					<g>
						<circle class="st0" cx="257" cy="89.85" r="2"/>
					</g>
				</g>
				<g>
					<path class="st1" d="M258.96,77.05c-0.46,0-1.08-0.11-1.62-0.15c-0.55-0.07-1.09-0.09-1.61-0.13
						c-1.05-0.05-2.02-0.02-2.93,0.11c-0.91,0.12-1.74,0.34-2.59,0.68c-0.88,0.29-1.69,0.84-2.74,1.36l-0.38,0.19
						c-1.01,0.5-2.23,0.09-2.73-0.92c-0.28-0.57-0.27-1.22-0.03-1.76c0.64-1.4,1.63-2.76,3.04-3.7c0.33-0.26,0.69-0.49,1.07-0.66
						c0.38-0.18,0.75-0.4,1.15-0.54c0.4-0.13,0.8-0.26,1.21-0.37c0.41-0.11,0.82-0.15,1.23-0.22c1.65-0.19,3.27-0.03,4.75,0.42
						c0.74,0.21,1.45,0.51,2.12,0.86c0.69,0.37,1.26,0.73,1.95,1.32c0.84,0.72,0.94,1.98,0.22,2.81c-0.39,0.46-0.94,0.7-1.5,0.7
						L258.96,77.05z"/>
				</g>
			</g>
		</g>
		<g>
			<g>
				<circle class="st6" cx="231" cy="97.5" r="2.5"/>
			</g>
			<g>
				<circle class="st6" cx="236.5" cy="108.5" r="2.5"/>
			</g>
			<g>
				<circle class="st6" cx="225.5" cy="108.5" r="2.5"/>
			</g>
		</g>
		<g>
			<g>
				<circle class="st6" cx="313" cy="97.5" r="2.5"/>
			</g>
			<g>
				<circle class="st6" cx="318.5" cy="108.5" r="2.5"/>
			</g>
			<g>
				<circle class="st6" cx="307.5" cy="108.5" r="2.5"/>
			</g>
		</g>
		<g>
			<g>
				<g>
					<path class="st1" d="M272,129.5c-11.3,0-20.5-9.2-20.5-20.5c0-1.38,1.12-2.5,2.5-2.5h36c1.38,0,2.5,1.12,2.5,2.5
						C292.5,120.3,283.3,129.5,272,129.5z"/>
				</g>
				<g>
					<path class="st1" d="M290,109L290,109 M290,109c0,9.94-8.06,18-18,18s-18-8.06-18-18H290 M290.01,104L290.01,104H254
						c-2.76,0-5,2.24-5,5c0,12.68,10.32,23,23,23c12.62,0,22.9-10.22,23-22.82c0-0.06,0-0.12,0-0.18
						C295,106.24,292.77,104,290.01,104L290.01,104z M290,114L290,114L290,114L290,114z"/>
				</g>
			</g>
			<g>
				<g>
					<ellipse class="st3" cx="272" cy="121" rx="13.39" ry="6"/>
				</g>
			</g>
		</g>
	</g>
	<g>
		<circle class="st7" cx="278" cy="165" r="20"/>
	</g>
	<g>
		<g>
			<polygon class="st8" points="320,183 331,166 337,170 343,161 349,165 355,157 361,161 370,150 370,183 			"/>
		</g>
		<g>
			<path class="st5" d="M320,185c-0.37,0-0.75-0.1-1.08-0.32c-0.93-0.6-1.19-1.84-0.59-2.77l11-17c0.29-0.45,0.75-0.76,1.27-0.87
				c0.52-0.11,1.07,0,1.51,0.29l4.34,2.89l4.89-7.34c0.61-0.92,1.85-1.17,2.77-0.55l4.43,2.95l4.87-6.49
				c0.64-0.85,1.83-1.05,2.71-0.46l4.49,2.99l7.85-9.6c0.7-0.85,1.96-0.98,2.81-0.28c0.85,0.7,0.98,1.96,0.28,2.81l-9,11
				c-0.65,0.8-1.8,0.97-2.66,0.4l-4.43-2.95l-4.87,6.49c-0.64,0.85-1.83,1.05-2.71,0.46l-4.34-2.89l-4.89,7.34
				c-0.61,0.92-1.86,1.17-2.77,0.55l-4.31-2.88l-9.9,15.3C321.3,184.68,320.65,185,320,185z"/>
		</g>
		<g>
			<path class="st1" d="M320,179.5h-6c-0.83,0-1.5-0.67-1.5-1.5s0.67-1.5,1.5-1.5h6c0.83,0,1.5,0.67,1.5,1.5S320.83,179.5,320,179.5
				z"/>
		</g>
		<g>
			<path class="st1" d="M320,169.5h-6c-0.83,0-1.5-0.67-1.5-1.5s0.67-1.5,1.5-1.5h6c0.83,0,1.5,0.67,1.5,1.5S320.83,169.5,320,169.5
				z"/>
		</g>
		<g>
			<path class="st1" d="M320,159.5h-6c-0.83,0-1.5-0.67-1.5-1.5s0.67-1.5,1.5-1.5h6c0.83,0,1.5,0.67,1.5,1.5S320.83,159.5,320,159.5
				z"/>
		</g>
		<g>
			<path class="st1" d="M320,149.5h-6c-0.83,0-1.5-0.67-1.5-1.5s0.67-1.5,1.5-1.5h6c0.83,0,1.5,0.67,1.5,1.5S320.83,149.5,320,149.5
				z"/>
		</g>
		<g>
			<path class="st1" d="M365,190.5c-0.83,0-1.5-0.67-1.5-1.5v-6c0-0.83,0.67-1.5,1.5-1.5s1.5,0.67,1.5,1.5v6
				C366.5,189.83,365.83,190.5,365,190.5z"/>
		</g>
		<g>
			<path class="st1" d="M355,190.5c-0.83,0-1.5-0.67-1.5-1.5v-6c0-0.83,0.67-1.5,1.5-1.5s1.5,0.67,1.5,1.5v6
				C356.5,189.83,355.83,190.5,355,190.5z"/>
		</g>
		<g>
			<path class="st1" d="M345,190.5c-0.83,0-1.5-0.67-1.5-1.5v-6c0-0.83,0.67-1.5,1.5-1.5s1.5,0.67,1.5,1.5v6
				C346.5,189.83,345.83,190.5,345,190.5z"/>
		</g>
		<g>
			<path class="st1" d="M335,190.5c-0.83,0-1.5-0.67-1.5-1.5v-6c0-0.83,0.67-1.5,1.5-1.5s1.5,0.67,1.5,1.5v6
				C336.5,189.83,335.83,190.5,335,190.5z"/>
		</g>
		<g>
			<path class="st1" d="M325,190.5c-0.83,0-1.5-0.67-1.5-1.5v-6c0-0.83,0.67-1.5,1.5-1.5s1.5,0.67,1.5,1.5v6
				C326.5,189.83,325.83,190.5,325,190.5z"/>
		</g>
		<g>
			<path class="st1" d="M370,185h-50c-1.1,0-2-0.9-2-2v-40c0-1.1,0.9-2,2-2s2,0.9,2,2v38h48c1.1,0,2,0.9,2,2S371.1,185,370,185z"/>
		</g>
		<g>
			<path class="st1" d="M366,203h-36c-1.1,0-2-0.9-2-2v0c0-1.1,0.9-2,2-2h36c1.1,0,2,0.9,2,2v0C368,202.1,367.1,203,366,203z"/>
		</g>
		<g>
			<circle class="st5" cx="321" cy="201" r="3"/>
		</g>
		<g>
			<path class="st1" d="M352,211h-22c-1.1,0-2-0.9-2-2v0c0-1.1,0.9-2,2-2h22c1.1,0,2,0.9,2,2v0C354,210.1,353.1,211,352,211z"/>
		</g>
	</g>
	<g>
		<path class="st1" d="M298,203h-30c-1.1,0-2-0.9-2-2v0c0-1.1,0.9-2,2-2h30c1.1,0,2,0.9,2,2v0C300,202.1,299.1,203,298,203z"/>
	</g>
	<g>
		<circle class="st9" cx="259" cy="201" r="3"/>
	</g>
	<g>
		<path class="st1" d="M288,211h-20c-1.1,0-2-0.9-2-2v0c0-1.1,0.9-2,2-2h20c1.1,0,2,0.9,2,2v0C290,210.1,289.1,211,288,211z"/>
	</g>
	<g>
		<circle class="st7" cx="259" cy="209" r="3"/>
	</g>
	<g>
		<g>
			<path class="st1" d="M179,173.5h-6c-0.83,0-1.5-0.67-1.5-1.5s0.67-1.5,1.5-1.5h6c0.83,0,1.5,0.67,1.5,1.5S179.83,173.5,179,173.5
				z"/>
		</g>
		<g>
			<path class="st1" d="M179,161.5h-6c-0.83,0-1.5-0.67-1.5-1.5s0.67-1.5,1.5-1.5h6c0.83,0,1.5,0.67,1.5,1.5S179.83,161.5,179,161.5
				z"/>
		</g>
		<g>
			<path class="st1" d="M179,149.5h-6c-0.83,0-1.5-0.67-1.5-1.5s0.67-1.5,1.5-1.5h6c0.83,0,1.5,0.67,1.5,1.5S179.83,149.5,179,149.5
				z"/>
		</g>
		<g>
			<path class="st1" d="M205,190.5c-0.83,0-1.5-0.67-1.5-1.5v-6c0-0.83,0.67-1.5,1.5-1.5s1.5,0.67,1.5,1.5v6
				C206.5,189.83,205.83,190.5,205,190.5z"/>
		</g>
		<g>
			<path class="st1" d="M190,190.5c-0.83,0-1.5-0.67-1.5-1.5v-6c0-0.83,0.67-1.5,1.5-1.5s1.5,0.67,1.5,1.5v6
				C191.5,189.83,190.83,190.5,190,190.5z"/>
		</g>
		<g>
			<path class="st1" d="M225,203h-36c-1.1,0-2-0.9-2-2v0c0-1.1,0.9-2,2-2h36c1.1,0,2,0.9,2,2v0C227,202.1,226.1,203,225,203z"/>
		</g>
		<g>
			<circle class="st4" cx="180" cy="201" r="3"/>
		</g>
		<g>
			<path class="st1" d="M205,211h-16c-1.1,0-2-0.9-2-2v0c0-1.1,0.9-2,2-2h16c1.1,0,2,0.9,2,2v0C207,210.1,206.1,211,205,211z"/>
		</g>
		<g>
			<circle class="st10" cx="180" cy="209" r="3"/>
		</g>
		<g>
			<rect x="184" y="159" class="st4" width="6" height="24"/>
		</g>
		<g>
			<rect x="190" y="147" class="st10" width="6" height="36"/>
		</g>
		<g>
			<rect x="199" y="153" class="st4" width="6" height="30"/>
		</g>
		<g>
			<rect x="205" y="167" class="st10" width="6" height="16"/>
		</g>
		<g>
			<path class="st1" d="M220,190.5c-0.83,0-1.5-0.67-1.5-1.5v-6c0-0.83,0.67-1.5,1.5-1.5s1.5,0.67,1.5,1.5v6
				C221.5,189.83,220.83,190.5,220,190.5z"/>
		</g>
		<g>
			<rect x="214" y="161" class="st4" width="6" height="22"/>
		</g>
		<g>
			<rect x="220" y="157" class="st10" width="6" height="26"/>
		</g>
		<g>
			<path class="st1" d="M235,190.5c-0.83,0-1.5-0.67-1.5-1.5v-6c0-0.83,0.67-1.5,1.5-1.5s1.5,0.67,1.5,1.5v6
				C236.5,189.83,235.83,190.5,235,190.5z"/>
		</g>
		<g>
			<rect x="229" y="145" class="st4" width="6" height="38"/>
		</g>
		<g>
			<rect x="235" y="151" class="st10" width="6" height="32"/>
		</g>
		<g>
			<path class="st1" d="M244,185h-65c-1.1,0-2-0.9-2-2v-40c0-1.1,0.9-2,2-2s2,0.9,2,2v38h63c1.1,0,2,0.9,2,2S245.1,185,244,185z"/>
		</g>
	</g>
	<g>
		<path class="st9" d="M278,142v23h23C301,152.3,290.7,142,278,142z"/>
	</g>
</g>
<g>
	<g>
		<g>
			<path class="st11" d="M24,297c-4.96,0-9-4.04-9-9v-58c0-4.96,4.04-9,9-9h160c4.96,0,9,4.04,9,9v58c0,4.96-4.04,9-9,9H24z"/>
		</g>
		<g>
			<g>
				<path class="st1" d="M184,224c3.31,0,6,2.69,6,6v58c0,3.31-2.69,6-6,6H24c-3.31,0-6-2.69-6-6v-58c0-3.31,2.69-6,6-6H184
					 M184,218H24c-6.62,0-12,5.38-12,12v58c0,6.62,5.38,12,12,12h160c6.62,0,12-5.38,12-12v-58C196,223.38,190.62,218,184,218
					L184,218z"/>
			</g>
		</g>
	</g>
	<g>
		<g>
			<path class="st12" d="M42,297c-4.96,0-9-4.04-9-9v-58c0-4.96,4.04-9,9-9h160c4.96,0,9,4.04,9,9v58c0,4.96-4.04,9-9,9H42z"/>
		</g>
		<g>
			<g>
				<path class="st1" d="M202,224c3.31,0,6,2.69,6,6v58c0,3.31-2.69,6-6,6H42c-3.31,0-6-2.69-6-6v-58c0-3.31,2.69-6,6-6H202
					 M202,218H42c-6.62,0-12,5.38-12,12v58c0,6.62,5.38,12,12,12h160c6.62,0,12-5.38,12-12v-58C214,223.38,208.62,218,202,218
					L202,218z"/>
			</g>
		</g>
	</g>
	<g>
		<g>
			<g>
				<g>
					<path class="st1" d="M122,263c-8.82,0-16-7.18-16-16c0-1.1,0.9-2,2-2h28c1.1,0,2,0.9,2,2C138,255.82,130.82,263,122,263z"/>
				</g>
				<g>
					<path class="st1" d="M136,247L136,247 M136,247c0,7.73-6.27,14-14,14c-7.73,0-14-6.27-14-14H136 M136,243L136,243h-28
						c-2.21,0-4,1.79-4,4c0,9.93,8.07,18,18,18c9.87,0,17.91-7.99,18-17.84c0-0.05,0-0.11,0-0.16C140,244.79,138.21,243,136,243
						L136,243z M136,251L136,251L136,251L136,251z"/>
				</g>
			</g>
			<g>
				<g>
					<ellipse class="st3" cx="122" cy="256.33" rx="10.41" ry="4.67"/>
				</g>
			</g>
		</g>
		<g>
			<g>
				<g>
					<path class="st1" d="M132.21,211.03c0.6-0.51,1.09-0.82,1.69-1.14c0.58-0.3,1.18-0.55,1.82-0.74c1.27-0.37,2.65-0.52,4.06-0.39
						c1.41,0.11,2.85,0.62,4.07,1.42c1.25,0.77,2.18,1.94,2.76,3.17c0.48,1.02,0.04,2.24-0.98,2.72c-0.5,0.23-1.04,0.25-1.52,0.09
						l-0.51-0.17c-0.93-0.31-1.61-0.67-2.34-0.83c-0.71-0.19-1.37-0.36-2.13-0.44c-0.75-0.09-1.56-0.13-2.43-0.12
						c-0.44,0-0.89,0-1.35,0.02c-0.45-0.01-0.98,0.05-1.36,0l-0.77-0.11c-1.08-0.16-1.83-1.17-1.68-2.25
						C131.6,211.76,131.85,211.33,132.21,211.03z"/>
				</g>
				<g>
					<path class="st1" d="M110.03,214.62c-0.38,0.06-0.92-0.01-1.36,0c-0.46-0.02-0.92-0.02-1.35-0.02
						c-0.87-0.01-1.68,0.04-2.43,0.12c-0.76,0.07-1.42,0.25-2.13,0.44c-0.73,0.16-1.41,0.52-2.34,0.83l-0.5,0.17
						c-1.07,0.36-2.23-0.21-2.59-1.28c-0.18-0.52-0.13-1.06,0.09-1.52c0.58-1.23,1.5-2.4,2.76-3.17c1.22-0.8,2.66-1.31,4.07-1.42
						c1.41-0.14,2.79,0.01,4.06,0.39c0.63,0.19,1.24,0.44,1.82,0.74c0.59,0.32,1.08,0.63,1.69,1.14c0.84,0.71,0.94,1.96,0.24,2.8
						c-0.32,0.38-0.76,0.62-1.23,0.68L110.03,214.62z"/>
				</g>
				<g>
					<path class="st1" d="M112.02,237.5c-1.38,0-2.5-1.12-2.5-2.5c0-1.38-1.12-2.5-2.5-2.5s-2.5,1.12-2.5,2.5
						c0,1.38-1.12,2.5-2.5,2.5s-2.5-1.12-2.5-2.5c0-4.14,3.36-7.5,7.5-7.5s7.5,3.36,7.5,7.5C114.52,236.38,113.4,237.5,112.02,237.5
						z"/>
				</g>
				<g>
					<path class="st1" d="M141.98,237.5c-1.38,0-2.5-1.12-2.5-2.5c0-1.38-1.12-2.5-2.5-2.5s-2.5,1.12-2.5,2.5
						c0,1.38-1.12,2.5-2.5,2.5s-2.5-1.12-2.5-2.5c0-4.14,3.36-7.5,7.5-7.5s7.5,3.36,7.5,7.5
						C144.48,236.38,143.36,237.5,141.98,237.5z"/>
				</g>
			</g>
		</g>
	</g>
	<g>
		<g>
			<path class="st0" d="M114.37,283.84c0.07,0,0.14,0.01,0.22,0.04c0.07,0.03,0.14,0.07,0.21,0.14l1.21,1.27
				c-0.53,0.69-1.19,1.21-1.98,1.56c-0.8,0.35-1.74,0.53-2.82,0.53c-1,0-1.89-0.17-2.68-0.51c-0.79-0.34-1.46-0.81-2.01-1.4
				c-0.55-0.6-0.97-1.3-1.26-2.12c-0.29-0.82-0.44-1.71-0.44-2.67c0-0.98,0.16-1.88,0.48-2.7c0.32-0.82,0.77-1.53,1.34-2.12
				c0.58-0.59,1.27-1.06,2.07-1.39c0.8-0.33,1.69-0.5,2.66-0.5c0.49,0,0.96,0.04,1.39,0.13c0.43,0.09,0.84,0.21,1.22,0.36
				s0.73,0.34,1.04,0.55c0.32,0.22,0.6,0.45,0.85,0.7l-1.03,1.38c-0.07,0.08-0.14,0.16-0.23,0.23c-0.09,0.07-0.22,0.1-0.38,0.1
				c-0.11,0-0.21-0.02-0.31-0.07c-0.1-0.05-0.2-0.11-0.31-0.18c-0.11-0.07-0.23-0.14-0.36-0.22s-0.28-0.16-0.46-0.22
				c-0.18-0.07-0.38-0.13-0.62-0.18s-0.51-0.07-0.83-0.07c-0.5,0-0.96,0.09-1.38,0.28c-0.42,0.19-0.78,0.46-1.08,0.81
				c-0.3,0.36-0.54,0.79-0.7,1.31c-0.17,0.52-0.25,1.11-0.25,1.78c0,0.67,0.09,1.27,0.27,1.79c0.18,0.52,0.43,0.96,0.75,1.32
				c0.31,0.36,0.68,0.63,1.1,0.81c0.42,0.19,0.87,0.28,1.35,0.28c0.28,0,0.53-0.01,0.76-0.04c0.23-0.03,0.44-0.07,0.64-0.13
				c0.2-0.06,0.38-0.15,0.56-0.25c0.17-0.11,0.35-0.24,0.53-0.4c0.07-0.06,0.15-0.11,0.23-0.15
				C114.19,283.86,114.28,283.84,114.37,283.84z"/>
		</g>
		<g>
			<path class="st0" d="M127.66,276.53h-3.69v10.7h-3.04v-10.7h-3.69v-2.41h10.42V276.53z"/>
		</g>
		<g>
			<path class="st0" d="M140.58,287.23h-2.36c-0.26,0-0.48-0.06-0.64-0.18s-0.29-0.28-0.37-0.47l-0.77-2.29h-4.99l-0.77,2.29
				c-0.07,0.17-0.18,0.32-0.36,0.46c-0.17,0.13-0.38,0.2-0.63,0.2h-2.38l5.08-13.11h3.11L140.58,287.23z M135.75,282.22l-1.21-3.59
				c-0.09-0.23-0.19-0.5-0.29-0.81c-0.1-0.31-0.2-0.64-0.31-1c-0.09,0.37-0.19,0.71-0.29,1.02c-0.1,0.31-0.2,0.58-0.29,0.81
				l-1.21,3.57H135.75z"/>
		</g>
	</g>
</g>
<g>
	<polygon class="st0" points="240.55,293.49 237.55,288.3 227.16,294.3 224.16,289.1 213.77,295.1 216.77,300.3 211.57,303.3 
		205.57,292.9 195.18,298.9 201.18,309.3 195.98,312.3 174.98,275.92 164.59,281.92 200.59,344.28 195.39,347.28 189.39,336.88 
		184.2,339.88 181.2,334.69 170.8,340.69 176.8,351.08 182,348.08 185,353.28 190.2,350.28 196.2,360.67 201.39,357.67 
		207.39,368.06 212.59,365.06 218.59,375.45 223.78,372.45 229.78,382.85 271.35,358.85 265.35,348.45 270.55,345.45 261.55,329.87 
		266.75,326.87 245.75,290.49 	"/>
	<rect x="215.19" y="362.76" transform="matrix(0.866 -0.5 0.5 0.866 -155.1473 158.4975)" class="st13" width="6" height="12"/>
	<rect x="203.99" y="355.37" transform="matrix(0.866 -0.5 0.5 0.866 -152.9511 151.909)" class="st13" width="6" height="12"/>
	<rect x="192.79" y="347.97" transform="matrix(0.866 -0.5 0.5 0.866 -150.755 145.3205)" class="st13" width="6" height="12"/>
	<rect x="173.4" y="338.38" transform="matrix(0.866 -0.5 0.5 0.866 -148.5588 134.3398)" class="st13" width="6" height="12"/>
	<rect x="183.1" y="346.18" transform="matrix(0.866 -0.5 0.5 0.866 -149.6569 139.8302)" class="st13" width="6" height="6"/>
	<rect x="226.38" y="370.15" transform="matrix(0.866 -0.5 0.5 0.866 -157.3434 165.0859)" class="st13" width="6" height="12"/>
	<g>
		<rect x="162.28" y="273.32" transform="matrix(0.866 -0.5 0.5 0.866 -115.6165 121.1628)" class="st1" width="12" height="6"/>
		<polygon class="st1" points="207.18,319.69 195.18,298.9 205.57,292.9 202.57,287.71 192.18,293.71 180.18,272.92 174.98,275.92 
			201.98,322.69 		"/>
		<polygon class="st1" points="222.77,310.69 213.77,295.1 224.16,289.1 221.16,283.9 205.57,292.9 217.57,313.69 		"/>
		<polygon class="st1" points="241.35,306.88 232.35,291.3 237.55,288.3 234.55,283.1 224.16,289.1 236.16,309.88 		"/>
		<rect x="265.65" y="327.16" transform="matrix(0.866 -0.5 0.5 0.866 -132.0877 179.3609)" class="st1" width="6" height="18"/>
		<polygon class="st1" points="271.35,358.85 229.78,382.85 223.78,372.45 218.59,375.45 227.59,391.04 279.55,361.04 
			270.55,345.45 265.35,348.45 		"/>
		<rect x="209.99" y="365.76" transform="matrix(0.866 -0.5 0.5 0.866 -157.3434 156.3013)" class="st1" width="6" height="12"/>
		<rect x="198.79" y="358.37" transform="matrix(0.866 -0.5 0.5 0.866 -155.1473 149.7128)" class="st1" width="6" height="12"/>
		<rect x="187.6" y="350.97" transform="matrix(0.866 -0.5 0.5 0.866 -152.9511 143.1244)" class="st1" width="6" height="12"/>
		<rect x="177.9" y="349.18" transform="matrix(0.866 -0.5 0.5 0.866 -151.8531 137.634)" class="st1" width="6" height="6"/>
		<polygon class="st1" points="189.39,336.88 195.39,347.28 200.59,344.28 164.59,281.92 159.39,284.92 186.39,331.69 181.2,334.69 
			184.2,339.88 		"/>
		<polygon class="st1" points="181.2,334.69 178.2,329.49 162.61,338.49 171.61,354.08 176.8,351.08 170.8,340.69 		"/>
		<rect x="238.65" y="286.39" transform="matrix(0.866 -0.5 0.5 0.866 -112.3223 159.5955)" class="st1" width="6" height="6"/>
		<rect x="255.84" y="286.18" transform="matrix(0.866 -0.5 0.5 0.866 -118.9108 170.5763)" class="st1" width="6" height="42"/>
	</g>
	<rect x="217.31" y="332.44" transform="matrix(0.866 -0.5 0.5 0.866 -142.7024 156.3013)" class="st1" width="6" height="24"/>
	<rect x="227.7" y="326.44" transform="matrix(0.866 -0.5 0.5 0.866 -138.3101 160.6936)" class="st1" width="6" height="24"/>
	<rect x="238.1" y="320.44" transform="matrix(0.866 -0.5 0.5 0.866 -133.9178 165.0859)" class="st1" width="6" height="24"/>
</g>
</svg>
