<?xml version="1.0" encoding="utf-8"?>
<!-- Generator: Adobe Illustrator 26.0.2, SVG Export Plug-In . SVG Version: 6.00 Build 0)  -->
<svg version="1.1" id="Google_x5F_Hub-Dynamic_x5F_Search_x5F_Ads"
	 xmlns="http://www.w3.org/2000/svg" xmlns:xlink="http://www.w3.org/1999/xlink" x="0px" y="0px" viewBox="0 0 400 400"
	 style="enable-background:new 0 0 400 400;" xml:space="preserve">
<style type="text/css">
	.st0{fill:#FFFFFF;}
	.st1{fill:#515979;}
	.st2{fill:#F3F9FE;}
	.st3{fill:#667683;}
	.st4{fill:#EF7D7D;}
	.st5{fill:#FFE8A0;}
	.st6{fill:#7DDF96;}
	.st7{fill:#2196F3;}
	.st8{fill:#00C853;}
	.st9{fill:#E06B52;}
	.st10{fill:#FFD886;}
	.st11{fill:#E8F3FD;}
	.st12{fill:#FDE1D9;}
	.st13{fill:none;}
	.st14{fill:#FBBD04;}
	.st15{fill:#438EDC;}
	.st16{fill:#34A952;}
</style>
<g>
	<g>
		<g>
			<path class="st0" d="M155.14,244.02c-7.17,0-13-5.83-13-13v-205c0-7.17,5.83-13,13-13h220c7.17,0,13,5.83,13,13v205
				c0,7.17-5.83,13-13,13H155.14z"/>
		</g>
		<g>
			<path class="st1" d="M375.14,16.02c5.52,0,10,4.48,10,10v205c0,5.52-4.48,10-10,10h-220c-5.52,0-10-4.48-10-10v-205
				c0-5.52,4.48-10,10-10H375.14 M375.14,10.02h-220c-8.82,0-16,7.18-16,16v205c0,8.82,7.18,16,16,16h220c8.82,0,16-7.18,16-16v-205
				C391.14,17.2,383.96,10.02,375.14,10.02L375.14,10.02z"/>
		</g>
	</g>
	<g>
		<g>
			<path class="st2" d="M145.14,93.02c-1.66,0-3-1.34-3-3v-40c0-1.66,1.34-3,3-3h240c1.66,0,3,1.34,3,3v40c0,1.66-1.34,3-3,3H145.14
				z"/>
		</g>
		<g>
			<path class="st1" d="M385.14,50.02v40h-240v-40H385.14 M385.14,44.02h-240c-3.31,0-6,2.69-6,6v40c0,3.31,2.69,6,6,6h240
				c3.31,0,6-2.69,6-6v-40C391.14,46.71,388.45,44.02,385.14,44.02L385.14,44.02z"/>
		</g>
	</g>
	<g>
		<g>
			<path class="st3" d="M145.14,47.02c-1.66,0-3-1.34-3-3v-18c0-7.17,5.83-13,13-13h220c7.17,0,13,5.83,13,13v18c0,1.66-1.34,3-3,3
				H145.14z"/>
		</g>
		<g>
			<path class="st1" d="M375.14,16.02c5.52,0,10,4.48,10,10v18h-240v-18c0-5.52,4.48-10,10-10H375.14 M375.14,10.02h-220
				c-8.82,0-16,7.18-16,16v18c0,3.31,2.69,6,6,6h240c3.31,0,6-2.69,6-6v-18C391.14,17.2,383.96,10.02,375.14,10.02L375.14,10.02z"/>
		</g>
	</g>
	<g>
		<g>
			<path class="st0" d="M235.14,37.02c-3.86,0-7-3.14-7-7s3.14-7,7-7h114c3.86,0,7,3.14,7,7s-3.14,7-7,7H235.14z"/>
		</g>
		<g>
			<g>
				<path class="st1" d="M349.14,26.02c2.21,0,4,1.79,4,4s-1.79,4-4,4h-114c-2.21,0-4-1.79-4-4s1.79-4,4-4H349.14 M349.14,20.02
					h-114c-5.51,0-10,4.49-10,10s4.49,10,10,10h114c5.51,0,10-4.49,10-10S354.65,20.02,349.14,20.02L349.14,20.02z"/>
			</g>
		</g>
	</g>
	<g>
		<g>
			<circle class="st4" cx="161.14" cy="30.02" r="7"/>
		</g>
		<g>
			<g>
				<path class="st1" d="M161.14,26.02c2.21,0,4,1.79,4,4c0,2.21-1.79,4-4,4s-4-1.79-4-4C157.14,27.81,158.93,26.02,161.14,26.02
					 M161.14,20.02c-5.51,0-10,4.49-10,10s4.49,10,10,10s10-4.49,10-10S166.65,20.02,161.14,20.02L161.14,20.02z"/>
			</g>
		</g>
	</g>
	<g>
		<g>
			<circle class="st5" cx="185.14" cy="30.02" r="7"/>
		</g>
		<g>
			<g>
				<path class="st1" d="M185.14,26.02c2.21,0,4,1.79,4,4c0,2.21-1.79,4-4,4s-4-1.79-4-4C181.14,27.81,182.93,26.02,185.14,26.02
					 M185.14,20.02c-5.51,0-10,4.49-10,10s4.49,10,10,10s10-4.49,10-10S190.65,20.02,185.14,20.02L185.14,20.02z"/>
			</g>
		</g>
	</g>
	<g>
		<g>
			<circle class="st6" cx="209.14" cy="30.02" r="7"/>
		</g>
		<g>
			<g>
				<path class="st1" d="M209.14,26.02c2.21,0,4,1.79,4,4c0,2.21-1.79,4-4,4s-4-1.79-4-4C205.14,27.81,206.93,26.02,209.14,26.02
					 M209.14,20.02c-5.51,0-10,4.49-10,10s4.49,10,10,10c5.51,0,10-4.49,10-10S214.65,20.02,209.14,20.02L209.14,20.02z"/>
			</g>
		</g>
	</g>
	<g>
		<path class="st7" d="M199.14,205.02h-28c-1.1,0-2-0.9-2-2l0,0c0-1.1,0.9-2,2-2h28c1.1,0,2,0.9,2,2l0,0
			C201.14,204.12,200.24,205.02,199.14,205.02z"/>
	</g>
	<g>
		<path class="st1" d="M239.14,221.02h-68c-1.1,0-2-0.9-2-2l0,0c0-1.1,0.9-2,2-2h68c1.1,0,2,0.9,2,2l0,0
			C241.14,220.12,240.24,221.02,239.14,221.02z"/>
	</g>
	<g>
		<path class="st1" d="M219.14,229.02h-48c-1.1,0-2-0.9-2-2l0,0c0-1.1,0.9-2,2-2h48c1.1,0,2,0.9,2,2l0,0
			C221.14,228.12,220.24,229.02,219.14,229.02z"/>
	</g>
	<g>
		<path class="st8" d="M215.14,213.02h-44c-1.1,0-2-0.9-2-2l0,0c0-1.1,0.9-2,2-2h44c1.1,0,2,0.9,2,2l0,0
			C217.14,212.12,216.24,213.02,215.14,213.02z"/>
	</g>
	<g>
		<g id="svg_7_00000028282700147706796930000015180900355391020725_">
			<path class="st7" d="M173.13,66.5h-8.54v2.53h6.06c-0.3,3.55-3.26,5.07-6.05,5.07c-3.57,0-6.69-2.81-6.69-6.75
				c0-3.84,2.97-6.79,6.69-6.79c2.87,0,4.57,1.83,4.57,1.83l1.77-1.84c0,0-2.28-2.54-6.43-2.54c-5.29,0-9.38,4.46-9.38,9.29
				c0,4.73,3.85,9.33,9.52,9.33c4.98,0,8.63-3.41,8.63-8.46C173.29,67.11,173.13,66.49,173.13,66.5L173.13,66.5z"/>
		</g>
		<g id="svg_6_00000047025883264340889100000003438261493069557932_">
			<path class="st9" d="M186.14,70.67c0,3.46-2.69,5.96-5.96,5.96c-3.62,0-6.06-2.79-6.06-6.03c0-3.2,2.51-5.94,6.02-5.94
				C183.01,64.66,186.14,66.7,186.14,70.67z M180.17,67.01c-1.94,0-3.42,1.55-3.42,3.62c0,2.12,1.51,3.65,3.42,3.65
				c1.74,0,3.36-1.43,3.36-3.63C183.52,68.4,181.89,67.01,180.17,67.01L180.17,67.01z"/>
		</g>
		<g id="svg_5_00000097469825178103397730000008727311535499862925_">
			<path class="st10" d="M199.22,70.67c0,3.46-2.69,5.96-5.96,5.96c-3.62,0-6.06-2.79-6.06-6.03c0-3.2,2.51-5.94,6.02-5.94
				C196.1,64.66,199.22,66.7,199.22,70.67z M193.25,67.01c-1.94,0-3.42,1.55-3.42,3.62c0,2.12,1.51,3.65,3.42,3.65
				c1.74,0,3.36-1.43,3.36-3.63C196.61,68.4,194.97,67.01,193.25,67.01L193.25,67.01z"/>
		</g>
		<g id="svg_4_00000076579027080270736370000012326982551522240911_">
			<path class="st7" d="M206.05,64.67c1.4,0,2.46,0.54,3.23,1.37v-1.01h2.51v10.75c0,4.23-2.44,6.24-5.64,6.24
				c-2.92,0-4.57-1.8-5.38-3.52l2.3-0.96c0.32,0.77,1.24,2.13,3.06,2.13c1.89,0,3.15-1.24,3.15-3.3v-1.18
				c-0.67,0.78-1.58,1.45-3.28,1.45c-2.76,0-5.69-2.39-5.69-5.99C200.3,67.48,202.83,64.67,206.05,64.67L206.05,64.67z
				 M206.28,67.01c-1.69,0-3.35,1.37-3.35,3.67c0,2.21,1.6,3.6,3.31,3.6c1.62,0,3.23-1.29,3.23-3.63
				C209.48,68.36,207.86,67.01,206.28,67.01L206.28,67.01z"/>
		</g>
		<g id="svg_3_00000012430474960272582010000016244727218093749687_">
			<path class="st9" d="M222.94,64.65c2.39,0,4.2,1.6,4.98,3.51l0.42,0.98l-8.02,3.33c0.48,0.89,1.25,1.81,2.94,1.81
				c1.5,0,2.4-0.81,2.93-1.65l2.07,1.38c-0.93,1.24-2.48,2.63-5.01,2.63c-3.03,0-5.87-2.24-5.87-6.01
				C217.36,67.07,219.91,64.65,222.94,64.65L222.94,64.65z M219.9,70.47l5.36-2.24c-0.33-0.7-1.12-1.28-2.21-1.28
				C221.31,66.95,219.67,68.74,219.9,70.47z"/>
		</g>
		<g id="svg_2_00000143581003186236117610000006563346083022516650_">
			<path class="st8" d="M213.53,76.28h2.64V58.64h-2.64V76.28z"/>
		</g>
	</g>
	<g>
		<path class="st7" d="M215.14,165.02h-44c-1.1,0-2-0.9-2-2l0,0c0-1.1,0.9-2,2-2h44c1.1,0,2,0.9,2,2l0,0
			C217.14,164.12,216.24,165.02,215.14,165.02z"/>
	</g>
	<g>
		<path class="st1" d="M239.14,181.02h-68c-1.1,0-2-0.9-2-2l0,0c0-1.1,0.9-2,2-2h68c1.1,0,2,0.9,2,2l0,0
			C241.14,180.12,240.24,181.02,239.14,181.02z"/>
	</g>
	<g>
		<path class="st1" d="M231.14,189.02h-60c-1.1,0-2-0.9-2-2l0,0c0-1.1,0.9-2,2-2h60c1.1,0,2,0.9,2,2l0,0
			C233.14,188.12,232.24,189.02,231.14,189.02z"/>
	</g>
	<g>
		<path class="st8" d="M215.14,173.02h-44c-1.1,0-2-0.9-2-2l0,0c0-1.1,0.9-2,2-2h44c1.1,0,2,0.9,2,2l0,0
			C217.14,172.12,216.24,173.02,215.14,173.02z"/>
	</g>
	<g>
		<rect x="163.14" y="110.02" class="st11" width="104" height="40"/>
	</g>
	<g>
		<path class="st7" d="M185.14,120.02h-14c-1.1,0-2-0.9-2-2l0,0c0-1.1,0.9-2,2-2h14c1.1,0,2,0.9,2,2l0,0
			C187.14,119.12,186.24,120.02,185.14,120.02z"/>
	</g>
	<g>
		<path class="st1" d="M231.14,136.02h-60c-1.1,0-2-0.9-2-2l0,0c0-1.1,0.9-2,2-2h60c1.1,0,2,0.9,2,2l0,0
			C233.14,135.12,232.24,136.02,231.14,136.02z"/>
	</g>
	<g>
		<path class="st1" d="M215.14,144.02h-44c-1.1,0-2-0.9-2-2l0,0c0-1.1,0.9-2,2-2h44c1.1,0,2,0.9,2,2l0,0
			C217.14,143.12,216.24,144.02,215.14,144.02z"/>
	</g>
	<g>
		<path class="st8" d="M211.14,128.02h-40c-1.1,0-2-0.9-2-2l0,0c0-1.1,0.9-2,2-2h40c1.1,0,2,0.9,2,2l0,0
			C213.14,127.12,212.24,128.02,211.14,128.02z"/>
	</g>
	<g>
		<path class="st1" d="M167.14,154.02h-6c-1.1,0-2-0.9-2-2v-44c0-1.1,0.9-2,2-2h6c1.1,0,2,0.9,2,2s-0.9,2-2,2h-4v40h4
			c1.1,0,2,0.9,2,2S168.24,154.02,167.14,154.02z"/>
	</g>
	<g>
		<path class="st1" d="M269.14,154.02h-6c-1.1,0-2-0.9-2-2s0.9-2,2-2h4v-40h-4c-1.1,0-2-0.9-2-2s0.9-2,2-2h6c1.1,0,2,0.9,2,2v44
			C271.14,153.12,270.24,154.02,269.14,154.02z"/>
	</g>
	<g>
		<g>
			<g>
				<g>
					<path class="st1" d="M341.77,127.13c-0.62,0-1.2-0.39-1.42-1.01c-0.27-0.78,0.15-1.64,0.93-1.91c2.24-0.77,5.74-0.77,7.98,0
						c0.78,0.27,1.2,1.12,0.93,1.91c-0.27,0.78-1.12,1.2-1.91,0.93c-1.6-0.55-4.42-0.55-6.02,0
						C342.1,127.11,341.94,127.13,341.77,127.13z"/>
				</g>
				<g>
					<g>
						<circle class="st1" cx="345.27" cy="118.93" r="6"/>
					</g>
					<g>
						<circle class="st0" cx="346.77" cy="118.93" r="1.5"/>
					</g>
				</g>
				<g>
					<path class="st1" d="M321.77,127.13c-0.62,0-1.2-0.39-1.42-1.01c-0.27-0.78,0.15-1.64,0.93-1.91c2.24-0.77,5.74-0.77,7.98,0
						c0.78,0.27,1.2,1.12,0.93,1.91c-0.27,0.78-1.12,1.2-1.91,0.93c-1.6-0.55-4.42-0.55-6.02,0
						C322.1,127.11,321.94,127.13,321.77,127.13z"/>
				</g>
				<g>
					<g>
						<circle class="st1" cx="325.27" cy="118.93" r="6"/>
					</g>
					<g>
						<circle class="st0" cx="326.77" cy="118.93" r="1.5"/>
					</g>
				</g>
				<g>
					<path class="st1" d="M342.6,105.15c3.9-1.54,9.15-0.14,10.94,3.86c0.62,1.33-0.82,2.82-2.16,2.3c-1.5-0.54-2.7-1.12-4.19-1.58
						c-1.4-0.46-3.26-0.86-4.6-1.43C341.2,107.78,341.23,105.65,342.6,105.15L342.6,105.15z"/>
				</g>
				<g>
					<path class="st1" d="M327.55,108.46c-2.68,0.86-5.41,1.55-8.01,2.71c-0.97,0.49-2.21,0.16-2.58-0.91
						c-0.15-0.42-0.12-0.87,0.04-1.25c1.28-3.03,4.8-4.55,7.91-4.46c1.03,0.03,1.96,0.17,3.03,0.6
						C329.58,105.88,329.22,108.05,327.55,108.46L327.55,108.46z"/>
				</g>
			</g>
		</g>
		<g>
			<g>
				<g>
					<circle class="st12" cx="361.27" cy="127.28" r="2"/>
				</g>
			</g>
			<g>
				<g>
					<circle class="st12" cx="357.27" cy="133.28" r="2"/>
				</g>
			</g>
			<g>
				<g>
					<circle class="st12" cx="365.27" cy="133.28" r="2"/>
				</g>
			</g>
		</g>
		<g>
			<g>
				<g>
					<circle class="st12" cx="309.27" cy="127.28" r="2"/>
				</g>
			</g>
			<g>
				<g>
					<circle class="st12" cx="305.27" cy="133.28" r="2"/>
				</g>
			</g>
			<g>
				<g>
					<circle class="st12" cx="313.27" cy="133.28" r="2"/>
				</g>
			</g>
		</g>
		<g>
			<path class="st1" d="M347.28,129.28L347.28,129.28h-24.01c-2.21,0-4,1.79-4,4c0,8.82,7.18,16,16,16c8.77,0,15.91-7.09,16-15.84
				c0-0.05,0-0.11,0-0.16C351.28,131.07,349.49,129.28,347.28,129.28z"/>
			<g>
				<ellipse class="st4" cx="335.27" cy="141.28" rx="8.93" ry="4"/>
			</g>
		</g>
	</g>
</g>
<g>
	<rect x="-0.7" class="st13" width="400" height="400"/>
</g>
<g>
	<path class="st10" d="M269.44,298.68c-2.32,0-4.2-1.88-4.2-4.2c0-0.77-0.63-1.4-1.4-1.4s-1.4,0.63-1.4,1.4c0,2.32-1.88,4.2-4.2,4.2
		c-0.77,0-1.4,0.63-1.4,1.4s0.63,1.4,1.4,1.4c2.32,0,4.2,1.88,4.2,4.2c0,0.77,0.63,1.4,1.4,1.4s1.4-0.63,1.4-1.4
		c0-2.32,1.88-4.2,4.2-4.2c0.77,0,1.4-0.63,1.4-1.4S270.21,298.68,269.44,298.68z"/>
</g>
<g>
	<g>
		<circle class="st10" cx="222.85" cy="288.15" r="3"/>
	</g>
</g>
<g>
	<g>
		<circle class="st10" cx="102.51" cy="189.02" r="3"/>
	</g>
</g>
<g>
	<g>
		<circle class="st10" cx="86.08" cy="106.76" r="3"/>
	</g>
</g>
<g>
	<g>
		<circle class="st10" cx="86.08" cy="66.95" r="3"/>
	</g>
</g>
<g>
	<g>
		<circle class="st10" cx="193.22" cy="324.7" r="3"/>
	</g>
</g>
<g>
	<g>
		<circle class="st10" cx="292.14" cy="268.11" r="3"/>
	</g>
</g>
<g>
	<g>
		<circle class="st10" cx="49.11" cy="100.76" r="3"/>
	</g>
</g>
<path class="st10" d="M52.56,41.02h-6v-6c0-1.66-1.34-3-3-3s-3,1.34-3,3v6h-6c-1.66,0-3,1.34-3,3s1.34,3,3,3h6v6c0,1.66,1.34,3,3,3
	s3-1.34,3-3v-6h6c1.66,0,3-1.34,3-3S54.21,41.02,52.56,41.02z"/>
<g>
	<circle class="st10" cx="359.27" cy="277.63" r="4.5"/>
</g>
<g>
	<g>
		<path class="st14" d="M24.39,385.83L24.39,385.83c-13.58-7.84-18.27-25.35-10.43-38.93l56.35-97.62
			c7.84-13.58,25.35-18.27,38.93-10.43l0,0c13.58,7.84,18.27,25.35,10.43,38.93L63.32,375.4C55.48,388.96,37.97,393.67,24.39,385.83
			z"/>
	</g>
	<g>
		<path class="st15" d="M165.9,385.41L165.9,385.41c-13.58,7.84-31.09,3.14-38.93-10.43l-56.35-97.62
			c-7.84-13.58-3.14-31.09,10.43-38.93l0,0c13.58-7.84,31.09-3.14,38.93,10.43l56.35,97.62
			C184.17,360.04,179.47,377.57,165.9,385.41z"/>
	</g>
	<g>
		<circle class="st16" cx="39.03" cy="360.72" r="28.9"/>
	</g>
</g>
</svg>
