<?xml version="1.0" encoding="utf-8"?>
<!-- Generator: Adobe Illustrator 25.3.1, SVG Export Plug-In . SVG Version: 6.00 Build 0)  -->
<svg version="1.1" id="b2b-facebook-ads" xmlns="http://www.w3.org/2000/svg" xmlns:xlink="http://www.w3.org/1999/xlink" x="0px"
	 y="0px" viewBox="0 0 400 400" style="enable-background:new 0 0 400 400;" xml:space="preserve">
<style type="text/css">
	.st0{fill:#515979;}
	.st1{fill:#1877F2;}
	.st2{fill:#FFFFFF;}
	.st3{fill:#FFD886;}
	.st4{fill:#FBB040;}
	.st5{fill:#9E8271;}
	.st6{fill:#FFE8B6;}
	.st7{fill:#EF7D7D;}
	.st8{fill:#FFC369;}
</style>
<g>
	<path class="st0" d="M219.07,353.48c-0.82,0-1.49-0.66-1.5-1.48c-0.01-0.83,0.65-1.51,1.48-1.52c1.62-0.03,3.28-0.09,4.92-0.18
		c0.83-0.06,1.54,0.58,1.58,1.41s-0.58,1.54-1.41,1.58c-1.68,0.1-3.38,0.16-5.04,0.19C219.08,353.48,219.08,353.48,219.07,353.48z
		 M210.1,353.3c-0.03,0-0.06,0-0.09,0c-1.66-0.09-3.35-0.23-5.03-0.39c-0.82-0.08-1.43-0.81-1.35-1.64
		c0.08-0.82,0.81-1.43,1.64-1.35c1.64,0.16,3.29,0.29,4.91,0.38c0.83,0.05,1.46,0.76,1.41,1.58
		C211.55,352.69,210.89,353.3,210.1,353.3z M232.98,352.45c-0.74,0-1.38-0.55-1.49-1.3c-0.11-0.82,0.47-1.58,1.29-1.68
		c1.61-0.21,3.25-0.47,4.87-0.75c0.81-0.14,1.59,0.4,1.74,1.22c0.14,0.82-0.4,1.59-1.22,1.74c-1.66,0.29-3.34,0.55-4.99,0.77
		C233.11,352.44,233.04,352.45,232.98,352.45z M196.24,351.71c-0.09,0-0.17-0.01-0.26-0.02c-1.66-0.29-3.33-0.62-4.96-0.97
		c-0.81-0.18-1.32-0.98-1.15-1.79c0.18-0.81,0.98-1.32,1.79-1.15c1.58,0.35,3.21,0.67,4.83,0.95c0.82,0.14,1.36,0.92,1.22,1.74
		C197.59,351.2,196.96,351.71,196.24,351.71z M246.68,349.8c-0.67,0-1.28-0.45-1.45-1.13c-0.21-0.8,0.28-1.62,1.08-1.82
		c1.59-0.41,3.18-0.85,4.74-1.31c0.79-0.24,1.63,0.21,1.87,1.01c0.24,0.79-0.21,1.63-1.01,1.87c-1.6,0.48-3.24,0.93-4.86,1.35
		C246.92,349.79,246.8,349.8,246.68,349.8z M259.97,345.58c-0.6,0-1.17-0.37-1.4-0.96c-0.3-0.77,0.09-1.64,0.86-1.94
		c1.52-0.58,3.05-1.21,4.55-1.85c0.76-0.33,1.64,0.02,1.97,0.78c0.33,0.76-0.02,1.64-0.78,1.97c-1.53,0.66-3.1,1.3-4.66,1.9
		C260.33,345.54,260.15,345.58,259.97,345.58z M272.67,339.83c-0.54,0-1.06-0.29-1.33-0.8c-0.38-0.73-0.1-1.64,0.63-2.03
		c1.45-0.76,2.9-1.56,4.3-2.37c0.72-0.42,1.63-0.17,2.05,0.55c0.42,0.72,0.17,1.63-0.55,2.05c-1.44,0.83-2.93,1.65-4.41,2.43
		C273.14,339.78,272.9,339.83,272.67,339.83z M284.61,332.65c-0.48,0-0.95-0.23-1.24-0.65c-0.47-0.68-0.29-1.62,0.39-2.08
		c1.35-0.92,2.7-1.88,4-2.86c0.66-0.5,1.6-0.36,2.1,0.31c0.5,0.66,0.36,1.6-0.31,2.1c-1.34,1-2.72,1.98-4.1,2.93
		C285.2,332.57,284.91,332.65,284.61,332.65z M295.65,324.13c-0.42,0-0.84-0.17-1.13-0.52c-0.54-0.62-0.48-1.57,0.15-2.12
		c1.23-1.07,2.46-2.18,3.65-3.3c0.6-0.57,1.55-0.54,2.12,0.06c0.57,0.6,0.54,1.55-0.06,2.12c-1.22,1.15-2.48,2.29-3.74,3.39
		C296.35,324.01,296,324.13,295.65,324.13z M305.64,314.39c-0.36,0-0.72-0.13-1.01-0.39c-0.61-0.56-0.65-1.51-0.1-2.12
		c1.1-1.2,2.19-2.45,3.25-3.7c0.53-0.63,1.48-0.72,2.11-0.18c0.63,0.53,0.72,1.48,0.18,2.11c-1.08,1.29-2.2,2.56-3.33,3.8
		C306.45,314.23,306.04,314.39,305.64,314.39z M314.44,303.56c-0.3,0-0.61-0.09-0.88-0.28c-0.67-0.48-0.83-1.42-0.34-2.09
		c0.96-1.33,1.9-2.7,2.8-4.06c0.46-0.69,1.39-0.88,2.08-0.43c0.69,0.46,0.88,1.39,0.43,2.08c-0.92,1.4-1.88,2.8-2.87,4.16
		C315.36,303.34,314.9,303.56,314.44,303.56z M321.92,291.78c-0.25,0-0.5-0.06-0.73-0.19c-0.72-0.4-0.99-1.32-0.58-2.04
		c0.8-1.44,1.58-2.91,2.31-4.36c0.37-0.74,1.28-1.04,2.01-0.67c0.74,0.37,1.04,1.27,0.67,2.01c-0.75,1.49-1.54,2.99-2.36,4.47
		C322.96,291.5,322.45,291.78,321.92,291.78z M327.99,279.19c-0.19,0-0.38-0.04-0.57-0.11c-0.77-0.32-1.13-1.19-0.81-1.96
		c0.62-1.51,1.22-3.06,1.78-4.6c0.28-0.78,1.14-1.18,1.92-0.9c0.78,0.28,1.18,1.14,0.9,1.92c-0.58,1.58-1.19,3.17-1.83,4.72
		C329.14,278.84,328.58,279.19,327.99,279.19z M332.55,265.99c-0.13,0-0.27-0.02-0.41-0.06c-0.8-0.22-1.26-1.05-1.04-1.85
		c0.44-1.58,0.86-3.18,1.23-4.77c0.19-0.81,1-1.31,1.8-1.12c0.81,0.19,1.31,1,1.12,1.8c-0.38,1.62-0.81,3.27-1.26,4.89
		C333.81,265.56,333.21,265.99,332.55,265.99z M335.53,252.37c-0.08,0-0.16-0.01-0.24-0.02c-0.82-0.13-1.38-0.9-1.25-1.71
		c0.26-1.62,0.48-3.26,0.67-4.88c0.1-0.82,0.84-1.41,1.66-1.32s1.41,0.84,1.32,1.66c-0.19,1.66-0.42,3.34-0.68,5
		C336.89,251.84,336.25,252.37,335.53,252.37z M336.9,238.48c-0.02,0-0.04,0-0.06,0c-0.83-0.03-1.47-0.73-1.44-1.56
		c0.07-1.63,0.1-3.29,0.1-4.92v-0.29c0-0.83,0.67-1.5,1.5-1.5s1.5,0.67,1.5,1.5V232c0,1.67-0.03,3.37-0.1,5.04
		C338.36,237.85,337.7,238.48,336.9,238.48z M97,233.65c-0.83,0-1.5-0.67-1.5-1.5l0-0.13c0-1.64,0.03-3.29,0.1-4.91
		c0.03-0.83,0.73-1.49,1.56-1.44c0.83,0.03,1.47,0.73,1.44,1.56c-0.06,1.58-0.09,3.19-0.09,4.78l0,0.15
		C98.5,232.97,97.83,233.65,97,233.65z M336.65,224.24c-0.78,0-1.43-0.6-1.49-1.39c-0.12-1.62-0.28-3.27-0.47-4.9
		c-0.1-0.82,0.49-1.57,1.31-1.67c0.82-0.11,1.57,0.49,1.67,1.31c0.2,1.67,0.36,3.36,0.49,5.02c0.06,0.83-0.56,1.55-1.38,1.61
		C336.72,224.24,336.68,224.24,336.65,224.24z M97.79,219.72c-0.06,0-0.11,0-0.17-0.01c-0.82-0.09-1.41-0.84-1.32-1.66
		c0.19-1.67,0.42-3.35,0.68-5c0.13-0.82,0.89-1.38,1.71-1.25c0.82,0.13,1.38,0.9,1.25,1.71c-0.25,1.61-0.47,3.25-0.66,4.88
		C99.19,219.15,98.54,219.72,97.79,219.72z M334.78,210.42c-0.7,0-1.33-0.5-1.47-1.21c-0.31-1.61-0.66-3.23-1.04-4.81
		c-0.19-0.81,0.3-1.62,1.11-1.81c0.81-0.19,1.62,0.31,1.81,1.11c0.39,1.62,0.75,3.28,1.07,4.93c0.16,0.81-0.37,1.6-1.19,1.76
		C334.97,210.41,334.88,210.42,334.78,210.42z M100.17,205.97c-0.11,0-0.23-0.01-0.34-0.04c-0.81-0.19-1.31-1-1.12-1.8
		c0.38-1.63,0.8-3.27,1.26-4.89c0.22-0.8,1.05-1.27,1.85-1.04c0.8,0.22,1.26,1.05,1.04,1.85c-0.44,1.58-0.85,3.18-1.22,4.77
		C101.47,205.51,100.85,205.97,100.17,205.97z M331.32,196.91c-0.63,0-1.22-0.41-1.43-1.04c-0.5-1.57-1.04-3.14-1.6-4.66
		c-0.29-0.78,0.11-1.64,0.89-1.92c0.77-0.28,1.64,0.11,1.92,0.89c0.57,1.56,1.12,3.17,1.64,4.77c0.25,0.79-0.18,1.63-0.97,1.89
		C331.62,196.88,331.47,196.91,331.32,196.91z M104.15,192.6c-0.17,0-0.34-0.03-0.51-0.09c-0.78-0.28-1.18-1.14-0.9-1.92
		c0.57-1.58,1.19-3.17,1.82-4.72c0.32-0.77,1.19-1.13,1.96-0.82c0.77,0.31,1.13,1.19,0.82,1.96c-0.62,1.51-1.22,3.06-1.78,4.6
		C105.34,192.22,104.76,192.6,104.15,192.6z M326.3,183.9c-0.57,0-1.12-0.33-1.37-0.88c-0.67-1.48-1.39-2.97-2.13-4.43
		c-0.37-0.74-0.08-1.64,0.66-2.02c0.74-0.37,1.64-0.08,2.02,0.66c0.75,1.49,1.49,3.02,2.18,4.54c0.34,0.75,0.01,1.64-0.74,1.99
		C326.72,183.85,326.51,183.9,326.3,183.9z M109.67,179.77c-0.23,0-0.46-0.05-0.67-0.16c-0.74-0.37-1.04-1.27-0.67-2.01
		c0.75-1.5,1.55-3,2.36-4.47c0.4-0.72,1.32-0.99,2.04-0.58s0.99,1.32,0.58,2.04c-0.79,1.43-1.57,2.9-2.3,4.36
		C110.75,179.47,110.22,179.77,109.67,179.77z M319.81,171.57c-0.51,0-1-0.26-1.29-0.73c-0.83-1.38-1.72-2.78-2.63-4.15
		c-0.46-0.69-0.27-1.62,0.42-2.08s1.62-0.27,2.08,0.42c0.93,1.41,1.84,2.84,2.69,4.26c0.43,0.71,0.2,1.63-0.51,2.06
		C320.34,171.5,320.07,171.57,319.81,171.57z M116.65,167.67c-0.28,0-0.57-0.08-0.82-0.25c-0.69-0.46-0.88-1.39-0.43-2.08
		c0.92-1.4,1.89-2.81,2.86-4.16c0.48-0.67,1.42-0.83,2.09-0.34c0.67,0.48,0.83,1.42,0.34,2.09c-0.95,1.32-1.89,2.69-2.79,4.06
		C117.62,167.44,117.14,167.67,116.65,167.67z M311.92,160.07c-0.45,0-0.89-0.2-1.19-0.58c-1.01-1.3-2.05-2.59-3.09-3.83
		c-0.53-0.63-0.45-1.58,0.18-2.11c0.63-0.54,1.58-0.45,2.11,0.18c1.07,1.27,2.14,2.59,3.17,3.92c0.51,0.65,0.39,1.6-0.27,2.1
		C312.57,159.97,312.24,160.07,311.92,160.07z M124.98,156.47c-0.34,0-0.68-0.11-0.96-0.35c-0.63-0.53-0.72-1.48-0.19-2.11
		c1.07-1.28,2.19-2.56,3.32-3.8c0.56-0.61,1.51-0.66,2.12-0.1c0.61,0.56,0.66,1.51,0.1,2.12c-1.1,1.21-2.19,2.46-3.24,3.71
		C125.83,156.29,125.41,156.47,124.98,156.47z M302.75,149.56c-0.39,0-0.78-0.15-1.07-0.45c-1.13-1.16-2.32-2.32-3.51-3.45
		c-0.6-0.57-0.63-1.52-0.07-2.12c0.57-0.6,1.52-0.63,2.12-0.07c1.23,1.16,2.44,2.34,3.6,3.53c0.58,0.59,0.57,1.54-0.02,2.12
		C303.51,149.41,303.13,149.56,302.75,149.56z M134.55,146.31c-0.4,0-0.79-0.16-1.09-0.47c-0.57-0.6-0.54-1.55,0.06-2.12
		c1.21-1.15,2.47-2.29,3.74-3.39c0.62-0.54,1.57-0.48,2.12,0.15c0.54,0.62,0.48,1.57-0.15,2.12c-1.23,1.07-2.46,2.19-3.64,3.31
		C135.29,146.18,134.92,146.31,134.55,146.31z M145.22,137.33c-0.46,0-0.91-0.21-1.2-0.6c-0.5-0.66-0.36-1.6,0.3-2.1
		c1.35-1.01,2.72-1.99,4.1-2.94c0.69-0.47,1.62-0.29,2.09,0.39c0.47,0.68,0.29,1.62-0.39,2.09c-1.34,0.92-2.69,1.88-4,2.86
		C145.85,137.23,145.53,137.33,145.22,137.33z M156.85,129.64c-0.52,0-1.02-0.27-1.3-0.75c-0.42-0.72-0.17-1.63,0.54-2.05
		c1.45-0.84,2.93-1.66,4.41-2.44c0.74-0.39,1.64-0.1,2.03,0.63c0.39,0.73,0.1,1.64-0.63,2.03c-1.44,0.76-2.89,1.56-4.3,2.38
		C157.37,129.57,157.11,129.64,156.85,129.64z M169.29,123.36c-0.58,0-1.13-0.34-1.38-0.9c-0.33-0.76,0.02-1.64,0.78-1.97
		c1.53-0.66,3.1-1.31,4.66-1.91c0.77-0.3,1.64,0.09,1.94,0.86s-0.09,1.64-0.86,1.94c-1.52,0.59-3.05,1.21-4.54,1.86
		C169.69,123.32,169.49,123.36,169.29,123.36z M182.38,118.57c-0.65,0-1.24-0.42-1.44-1.07c-0.24-0.79,0.21-1.63,1-1.87
		c1.6-0.48,3.24-0.94,4.86-1.35c0.8-0.21,1.62,0.28,1.82,1.08c0.21,0.8-0.28,1.62-1.08,1.82c-1.58,0.4-3.18,0.85-4.74,1.32
		C182.67,118.55,182.52,118.57,182.38,118.57z M195.95,115.34c-0.71,0-1.35-0.51-1.48-1.24c-0.14-0.82,0.4-1.59,1.22-1.74
		c1.64-0.29,3.32-0.55,4.99-0.78c0.82-0.11,1.58,0.46,1.69,1.29c0.11,0.82-0.46,1.58-1.29,1.69c-1.63,0.22-3.27,0.47-4.86,0.76
		C196.12,115.33,196.04,115.34,195.95,115.34z M209.8,113.71c-0.79,0-1.45-0.61-1.5-1.41c-0.05-0.83,0.58-1.54,1.41-1.59
		c1.67-0.1,3.37-0.16,5.04-0.19c0.81,0,1.51,0.64,1.53,1.47s-0.64,1.51-1.47,1.53c-1.63,0.03-3.29,0.09-4.92,0.19
		C209.86,113.71,209.83,113.71,209.8,113.71z"/>
</g>
<g>
	<g>
		<path class="st1" d="M194,311c0-41.42-33.58-75-75-75s-75,33.58-75,75c0,37.43,27.43,68.46,63.28,74.09v-52.41H88.24V311h19.04
			v-16.52c0-18.8,11.2-29.18,28.33-29.18c8.21,0,16.79,1.46,16.79,1.46v18.46h-9.46c-9.32,0-12.22,5.78-12.22,11.71V311h20.8
			l-3.33,21.68h-17.48v52.41C166.57,379.46,194,348.43,194,311z"/>
	</g>
	<g>
		<path class="st2" d="M148.19,332.68l3.33-21.68h-20.8v-14.07c0-5.93,2.91-11.71,12.22-11.71h9.46v-18.46c0,0-8.58-1.46-16.79-1.46
			c-17.13,0-28.33,10.38-28.33,29.18V311H88.24v21.68h19.04v52.41c3.82,0.6,7.73,0.91,11.72,0.91s7.9-0.31,11.72-0.91v-52.41H148.19
			z"/>
	</g>
</g>
<g>
	<path class="st3" d="M210.8,323.8c-1.99,0-3.6-1.61-3.6-3.6c0-0.66-0.54-1.2-1.2-1.2c-0.66,0-1.2,0.54-1.2,1.2
		c0,1.99-1.61,3.6-3.6,3.6c-0.66,0-1.2,0.54-1.2,1.2s0.54,1.2,1.2,1.2c1.99,0,3.6,1.61,3.6,3.6c0,0.66,0.54,1.2,1.2,1.2
		c0.66,0,1.2-0.54,1.2-1.2c0-1.99,1.61-3.6,3.6-3.6c0.66,0,1.2-0.54,1.2-1.2S211.46,323.8,210.8,323.8z"/>
</g>
<g>
	<circle class="st3" cx="159.5" cy="387.5" r="2.5"/>
</g>
<g>
	<circle class="st3" cx="32" cy="303" r="3"/>
</g>
<g>
	<g>
		<path class="st3" d="M46,256c-1.66,0-3-1.34-3-3v-20c0-1.66,1.34-3,3-3s3,1.34,3,3v20C49,254.66,47.66,256,46,256z"/>
	</g>
	<g>
		<path class="st3" d="M56,246H36c-1.66,0-3-1.34-3-3s1.34-3,3-3h20c1.66,0,3,1.34,3,3S57.66,246,56,246z"/>
	</g>
</g>
<path class="st3" d="M366,35h-7v-7c0-1.66-1.34-3-3-3s-3,1.34-3,3v7h-7c-1.66,0-3,1.34-3,3s1.34,3,3,3h7v7c0,1.66,1.34,3,3,3
	s3-1.34,3-3v-7h7c1.66,0,3-1.34,3-3S367.66,35,366,35z"/>
<g>
	<path class="st3" d="M196.2,369.2c-2.98,0-5.4-2.42-5.4-5.4c0-0.99-0.81-1.8-1.8-1.8c-0.99,0-1.8,0.81-1.8,1.8
		c0,2.98-2.42,5.4-5.4,5.4c-0.99,0-1.8,0.81-1.8,1.8s0.81,1.8,1.8,1.8c2.98,0,5.4,2.42,5.4,5.4c0,0.99,0.81,1.8,1.8,1.8
		c0.99,0,1.8-0.81,1.8-1.8c0-2.98,2.42-5.4,5.4-5.4c0.99,0,1.8-0.81,1.8-1.8S197.19,369.2,196.2,369.2z"/>
</g>
<g>
	<circle class="st3" cx="222" cy="141" r="3"/>
</g>
<g>
	<circle class="st3" cx="282" cy="11" r="3"/>
</g>
<g>
	<circle class="st3" cx="74.5" cy="223.5" r="2.5"/>
</g>
<g>
	<circle class="st3" cx="19.5" cy="266.5" r="4.5"/>
</g>
<g>
	<circle class="st3" cx="26.5" cy="349.5" r="4.5"/>
</g>
<g>
	<path class="st3" d="M380.8,83.8c-1.99,0-3.6-1.61-3.6-3.6c0-0.66-0.54-1.2-1.2-1.2c-0.66,0-1.2,0.54-1.2,1.2
		c0,1.99-1.61,3.6-3.6,3.6c-0.66,0-1.2,0.54-1.2,1.2s0.54,1.2,1.2,1.2c1.99,0,3.6,1.61,3.6,3.6c0,0.66,0.54,1.2,1.2,1.2
		c0.66,0,1.2-0.54,1.2-1.2c0-1.99,1.61-3.6,3.6-3.6c0.66,0,1.2-0.54,1.2-1.2S381.46,83.8,380.8,83.8z"/>
</g>
<g>
	<path class="st3" d="M366.2,129.2c-2.98,0-5.4-2.42-5.4-5.4c0-0.99-0.81-1.8-1.8-1.8c-0.99,0-1.8,0.81-1.8,1.8
		c0,2.98-2.42,5.4-5.4,5.4c-0.99,0-1.8,0.81-1.8,1.8s0.81,1.8,1.8,1.8c2.98,0,5.4,2.42,5.4,5.4c0,0.99,0.81,1.8,1.8,1.8
		c0.99,0,1.8-0.81,1.8-1.8c0-2.98,2.42-5.4,5.4-5.4c0.99,0,1.8-0.81,1.8-1.8S367.19,129.2,366.2,129.2z"/>
</g>
<g>
	<circle class="st3" cx="296.5" cy="159.5" r="4.5"/>
</g>
<g>
	<circle class="st3" cx="206.5" cy="26.5" r="4.5"/>
</g>
<g>
	<g>
		<g>
			<path class="st3" d="M219.8,103.3c-0.17,0-0.35-0.02-0.52-0.05l-9.85-1.74c-6.05-1.07-11.32-4.43-14.85-9.46
				c-3.52-5.03-4.88-11.14-3.81-17.19l5.04-28.56c0.14-0.78,0.58-1.48,1.23-1.94c0.51-0.36,1.11-0.54,1.72-0.54
				c0.17,0,0.35,0.02,0.52,0.05l29.54,5.21c0.78,0.14,1.48,0.58,1.94,1.23c0.46,0.65,0.64,1.46,0.5,2.24l-1.04,5.91
				c-0.26,1.46-1.52,2.48-2.95,2.48c-0.17,0-0.35-0.02-0.52-0.05l-20.68-3.65l-3.3,18.71c-1.15,6.52,3.22,12.75,9.73,13.9l8.86,1.56
				c0.78,0.14,1.48,0.58,1.94,1.23c0.46,0.65,0.64,1.46,0.5,2.24l-1.04,5.91C222.49,102.28,221.23,103.3,219.8,103.3z"/>
		</g>
		<g>
			<path class="st0" d="M198.76,46.84l29.54,5.21l-1.04,5.91l-23.64-4.17l-3.82,21.67c-1.44,8.16,4.01,15.94,12.17,17.38l8.86,1.56
				l-1.04,5.91l-9.85-1.74c-10.88-1.92-18.14-12.29-16.22-23.17L198.76,46.84 M198.76,40.84c-1.22,0-2.43,0.37-3.44,1.09
				c-1.3,0.91-2.19,2.31-2.47,3.87l-5.04,28.56c-2.49,14.12,6.97,27.63,21.09,30.12l9.85,1.74c0.35,0.06,0.7,0.09,1.04,0.09
				c1.22,0,2.43-0.37,3.44-1.09c1.3-0.91,2.19-2.31,2.47-3.87l1.04-5.91c0.58-3.26-1.6-6.38-4.87-6.95l-8.86-1.56
				c-4.89-0.86-8.16-5.54-7.3-10.43l2.78-15.76l17.73,3.13c0.35,0.06,0.69,0.09,1.04,0.09c1.22,0,2.43-0.37,3.44-1.09
				c1.3-0.91,2.19-2.31,2.47-3.87l1.04-5.91c0.58-3.26-1.6-6.38-4.87-6.95l-29.54-5.21C199.45,40.87,199.11,40.84,198.76,40.84
				L198.76,40.84z"/>
		</g>
	</g>
	<g>
		<g>
			
				<rect x="218.87" y="47.96" transform="matrix(0.1736 -0.9848 0.9848 0.1736 130.205 263.0919)" class="st4" width="6" height="12"/>
		</g>
		<g>
			<path class="st4" d="M220.84,94.39l-8.86-1.56c-0.32-0.06-0.62-0.14-0.93-0.21c0.21,2.13,0.53,4.24,0.98,6.31l7.78,1.37
				L220.84,94.39z"/>
		</g>
	</g>
	<g>
		<g>
			<path class="st3" d="M331.62,122.71c-1.34,0-2.69-0.12-4.02-0.35l-9.85-1.74c-1.63-0.29-2.72-1.84-2.43-3.48l1.04-5.91
				c0.26-1.46,1.52-2.48,2.95-2.48c0.17,0,0.35,0.02,0.53,0.05l8.86,1.56c0.7,0.12,1.4,0.19,2.1,0.19c5.82,0,10.79-4.17,11.8-9.92
				l3.3-18.71l-20.68-3.65c-0.78-0.14-1.48-0.58-1.94-1.23c-0.46-0.65-0.64-1.46-0.5-2.24l1.04-5.91c0.26-1.46,1.52-2.48,2.95-2.48
				c0.17,0,0.35,0.02,0.52,0.05l29.54,5.21c0.78,0.14,1.48,0.58,1.94,1.23c0.46,0.65,0.64,1.46,0.5,2.24l-5.04,28.56
				C352.3,114.72,342.79,122.71,331.62,122.71L331.62,122.71z"/>
		</g>
		<g>
			<path class="st0" d="M326.78,69.41l29.54,5.21l-5.04,28.56c-1.71,9.7-10.15,16.53-19.67,16.53c-1.15,0-2.32-0.1-3.5-0.31
				l-9.85-1.74l1.04-5.91l8.86,1.56c0.88,0.16,1.76,0.23,2.62,0.23c7.14,0,13.47-5.12,14.75-12.4l3.82-21.67l-23.64-4.17
				L326.78,69.41 M326.78,63.41c-1.22,0-2.43,0.37-3.44,1.09c-1.3,0.91-2.19,2.31-2.47,3.87l-1.04,5.91
				c-0.58,3.26,1.6,6.38,4.87,6.95l17.73,3.13l-2.78,15.76c-0.76,4.31-4.48,7.44-8.85,7.44c-0.52,0-1.06-0.05-1.58-0.14l-8.86-1.56
				c-0.35-0.06-0.7-0.09-1.05-0.09c-2.86,0-5.39,2.05-5.9,4.96l-1.04,5.91c-0.28,1.57,0.08,3.18,0.99,4.48
				c0.91,1.3,2.31,2.19,3.87,2.47l9.85,1.74c1.5,0.26,3.03,0.4,4.54,0.4c12.63,0,23.39-9.04,25.58-21.49l5.04-28.56
				c0.58-3.26-1.6-6.38-4.87-6.95l-29.54-5.21C327.48,63.44,327.13,63.41,326.78,63.41L326.78,63.41z"/>
		</g>
	</g>
	<g>
		<g>
			
				<rect x="329.17" y="67.41" transform="matrix(0.1736 -0.9848 0.9848 0.1736 202.1972 387.786)" class="st4" width="6" height="12"/>
		</g>
		<g>
			<path class="st4" d="M319.32,111.76l8.86,1.56c0.32,0.06,0.63,0.08,0.95,0.12c-0.92,1.94-1.95,3.8-3.08,5.6l-7.78-1.37
				L319.32,111.76z"/>
		</g>
	</g>
	<g>
		<g>
			<path class="st3" d="M264.01,175.07c-0.17,0-0.35-0.02-0.52-0.05l-11.82-2.08c-0.78-0.14-1.48-0.58-1.94-1.23
				c-0.46-0.65-0.64-1.46-0.5-2.24l4.86-27.57c0.14-0.78,0.58-1.48,1.23-1.94c0.51-0.36,1.11-0.54,1.72-0.54
				c0.17,0,0.35,0.02,0.52,0.05l11.82,2.08c1.63,0.29,2.72,1.84,2.43,3.48l-4.86,27.57C266.7,174.05,265.43,175.07,264.01,175.07z"
				/>
		</g>
		<g>
			<g>
				<path class="st0" d="M257.05,142.41l11.82,2.08L264,172.07l-11.82-2.08L257.05,142.41 M257.05,136.41
					c-1.22,0-2.43,0.37-3.44,1.09c-1.3,0.91-2.19,2.31-2.47,3.87l-4.86,27.57c-0.28,1.57,0.08,3.18,0.99,4.48
					c0.91,1.3,2.31,2.19,3.87,2.47l11.82,2.08c0.35,0.06,0.69,0.09,1.04,0.09c1.22,0,2.43-0.37,3.44-1.09
					c1.3-0.91,2.19-2.31,2.47-3.87l4.86-27.57c0.58-3.26-1.6-6.38-4.87-6.95l-11.82-2.08C257.74,136.44,257.39,136.41,257.05,136.41
					L257.05,136.41z"/>
			</g>
		</g>
	</g>
	<g>
		
			<rect x="256.61" y="137.42" transform="matrix(0.9848 0.1736 -0.1736 0.9848 29.2421 -43.3923)" class="st4" width="12" height="16"/>
	</g>
	<g>
		<g>
			<path class="st5" d="M286.9,223.79c-0.17,0-0.35-0.02-0.52-0.05l-72.88-12.85c-0.78-0.14-1.48-0.58-1.94-1.23
				c-0.46-0.65-0.64-1.46-0.5-2.24l7.29-41.36c0.26-1.46,1.52-2.48,2.95-2.48c0.17,0,0.35,0.02,0.52,0.05l72.88,12.85
				c1.63,0.29,2.72,1.84,2.43,3.48l-7.29,41.36C289.59,222.76,288.32,223.79,286.9,223.79z"/>
		</g>
		<g>
			<g>
				<path class="st0" d="M221.31,166.57l72.88,12.85l-7.29,41.36l-72.88-12.85L221.31,166.57 M221.3,160.57
					c-2.86,0-5.39,2.05-5.9,4.96l-7.29,41.36c-0.28,1.57,0.08,3.18,0.99,4.48c0.91,1.3,2.31,2.19,3.87,2.47l72.88,12.85
					c0.35,0.06,0.7,0.09,1.04,0.09c1.22,0,2.43-0.37,3.44-1.09c1.3-0.91,2.19-2.31,2.47-3.87l7.29-41.36
					c0.58-3.26-1.6-6.38-4.87-6.95l-72.88-12.85C222,160.6,221.65,160.57,221.3,160.57L221.3,160.57z"/>
			</g>
		</g>
	</g>
	<g>
		<g>
			<path class="st3" d="M278.78,211.2c-0.12,0-0.23-0.01-0.35-0.03l-53.18-9.38c-0.52-0.09-0.99-0.39-1.29-0.82
				c-0.3-0.43-0.42-0.97-0.33-1.49l3.82-21.67c0.17-0.97,1.01-1.65,1.97-1.65c0.12,0,0.23,0.01,0.35,0.03l53.18,9.38
				c0.52,0.09,0.99,0.39,1.29,0.82c0.3,0.43,0.42,0.97,0.33,1.49l-3.82,21.67C280.58,210.52,279.74,211.2,278.78,211.2z"/>
		</g>
		<g>
			<g>
				<path class="st0" d="M229.42,178.16l53.18,9.38l-3.82,21.67l-53.18-9.38L229.42,178.16 M229.42,174.16
					c-0.82,0-1.62,0.25-2.29,0.72c-0.87,0.61-1.46,1.54-1.64,2.58l-3.82,21.67c-0.38,2.18,1.07,4.25,3.24,4.63l53.18,9.38
					c0.23,0.04,0.46,0.06,0.69,0.06c0.82,0,1.62-0.25,2.29-0.72c0.87-0.61,1.46-1.54,1.64-2.58l3.82-21.67
					c0.38-2.18-1.07-4.25-3.24-4.63l-53.18-9.38C229.88,174.18,229.65,174.16,229.42,174.16L229.42,174.16z"/>
			</g>
		</g>
	</g>
	<g>
		<g>
			<path class="st3" d="M272.74,141.31c-3.08,0-6.2-0.27-9.26-0.81c-13.94-2.46-26.09-10.2-34.21-21.8
				c-8.12-11.6-11.24-25.66-8.78-39.6l8.68-49.24c0.26-1.46,1.52-2.48,2.95-2.48c0.17,0,0.35,0.02,0.52,0.05l98.48,17.36
				c0.78,0.14,1.48,0.58,1.94,1.23c0.46,0.65,0.64,1.46,0.5,2.24l-8.68,49.24C320.4,122.89,298.47,141.31,272.74,141.31z"/>
		</g>
		<g>
			<path class="st0" d="M232.12,30.38l98.48,17.36l-8.68,49.24c-4.28,24.26-25.38,41.33-49.18,41.33c-2.88,0-5.8-0.25-8.74-0.77h0
				c-27.19-4.8-45.35-30.73-40.56-57.92L232.12,30.38 M232.12,24.38c-2.86,0-5.39,2.05-5.9,4.96l-8.68,49.24
				c-5.36,30.41,15.02,59.51,45.42,64.87c3.23,0.57,6.52,0.86,9.78,0.86c27.19,0,50.36-19.47,55.09-46.28l8.68-49.24
				c0.58-3.26-1.6-6.38-4.87-6.95l-98.48-17.36C232.81,24.41,232.46,24.38,232.12,24.38L232.12,24.38z"/>
		</g>
	</g>
	<g>
		<g>
			<path class="st0" d="M242.03,187.93l-3.48,6.78l-1.51-0.27l-0.56-4.68c-0.01-0.07-0.03-0.15-0.03-0.24
				c-0.01-0.09-0.02-0.18-0.02-0.28c-0.04,0.09-0.08,0.17-0.12,0.25s-0.08,0.15-0.11,0.22l-2.15,4.21l-1.51-0.27l-0.95-7.57
				l1.4,0.25c0.14,0.03,0.26,0.08,0.34,0.16s0.13,0.18,0.14,0.29l0.32,3.92c0.01,0.12,0.02,0.26,0.02,0.4
				c0.01,0.14,0.01,0.29,0.01,0.45c0.11-0.3,0.23-0.56,0.36-0.78l1.82-3.54c0.04-0.09,0.12-0.16,0.23-0.22
				c0.11-0.06,0.23-0.07,0.37-0.05l0.49,0.09c0.14,0.03,0.25,0.08,0.33,0.16c0.08,0.08,0.13,0.18,0.16,0.29l0.49,3.95
				c0.04,0.25,0.07,0.52,0.08,0.82c0.05-0.14,0.1-0.28,0.15-0.4c0.05-0.12,0.1-0.24,0.15-0.35l1.64-3.57
				c0.04-0.09,0.12-0.16,0.23-0.22c0.11-0.05,0.24-0.07,0.37-0.05L242.03,187.93z"/>
		</g>
		<g>
			<path class="st0" d="M243.15,195.52l-1.67-0.29l1.27-7.17l1.67,0.29L243.15,195.52z"/>
		</g>
		<g>
			<path class="st0" d="M252.07,189.7l-1.27,7.17l-0.87-0.15c-0.13-0.02-0.23-0.06-0.31-0.12c-0.08-0.06-0.15-0.14-0.22-0.26
				l-2.63-4.88c-0.01,0.13-0.02,0.26-0.04,0.38c-0.02,0.12-0.03,0.23-0.05,0.34l-0.68,3.85l-1.47-0.26l1.27-7.17l0.88,0.15
				c0.07,0.01,0.13,0.03,0.18,0.04c0.05,0.02,0.09,0.04,0.13,0.06c0.04,0.03,0.07,0.06,0.1,0.1c0.03,0.04,0.06,0.09,0.1,0.15
				l2.65,4.91c0.01-0.14,0.02-0.28,0.04-0.41s0.04-0.25,0.05-0.37l0.67-3.8L252.07,189.7z"/>
		</g>
		<g>
			<path class="st0" d="M260.37,193.16l-0.23,0.6c-0.06,0.15-0.14,0.25-0.25,0.3s-0.28,0.06-0.49,0.02l-0.31-0.05l-0.41,1.13
				l0.53,0.09c0.15,0.03,0.25,0.09,0.3,0.19c0.05,0.1,0.04,0.26-0.04,0.47l-0.16,0.46l-0.98-0.17l-0.69,1.88l-0.71-0.12
				c-0.07-0.01-0.13-0.04-0.19-0.08c-0.05-0.04-0.1-0.1-0.13-0.16c-0.03-0.06-0.05-0.13-0.05-0.21s0.01-0.15,0.04-0.23l0.47-1.3
				l-0.81-0.14l-0.49,1.37c-0.03,0.09-0.08,0.17-0.13,0.23c-0.06,0.06-0.12,0.1-0.19,0.14c-0.07,0.03-0.14,0.05-0.22,0.06
				s-0.16,0-0.23-0.01l-0.68-0.12l0.69-1.88l-0.43-0.08c-0.16-0.03-0.26-0.09-0.31-0.19c-0.05-0.1-0.04-0.26,0.04-0.47l0.16-0.46
				l0.88,0.15l0.41-1.13l-0.98-0.17l0.23-0.6c0.06-0.15,0.14-0.25,0.25-0.3c0.11-0.05,0.28-0.06,0.49-0.02l0.33,0.06l0.51-1.4
				c0.06-0.15,0.15-0.26,0.29-0.32s0.28-0.09,0.44-0.06l0.7,0.12l-0.69,1.88l0.82,0.14l0.69-1.88l0.68,0.12
				c0.08,0.01,0.15,0.04,0.21,0.08s0.11,0.08,0.14,0.13c0.04,0.05,0.06,0.11,0.07,0.17c0.01,0.06,0,0.13-0.03,0.2l-0.51,1.39
				L260.37,193.16z M257.83,193.81l-0.82-0.14l-0.41,1.13l0.82,0.14L257.83,193.81z"/>
		</g>
		<g>
			<path class="st0" d="M263.02,196.22c0.05-0.05,0.11-0.09,0.16-0.14c0.05-0.05,0.1-0.09,0.15-0.14c-0.33,0.11-0.69,0.13-1.07,0.06
				c-0.23-0.04-0.46-0.12-0.68-0.25c-0.22-0.12-0.41-0.29-0.57-0.49c-0.16-0.2-0.27-0.45-0.35-0.73c-0.07-0.28-0.08-0.6-0.01-0.95
				c0.06-0.33,0.17-0.62,0.34-0.89c0.17-0.27,0.39-0.49,0.65-0.67c0.26-0.18,0.56-0.3,0.89-0.37c0.33-0.07,0.69-0.08,1.07-0.01
				c0.39,0.07,0.72,0.19,1.01,0.36c0.29,0.17,0.51,0.38,0.69,0.63c0.17,0.25,0.29,0.53,0.35,0.85c0.06,0.31,0.06,0.65,0,1
				c-0.08,0.47-0.23,0.88-0.43,1.22c-0.21,0.35-0.46,0.66-0.75,0.95l-1.93,1.92c-0.09,0.08-0.2,0.15-0.36,0.19
				c-0.15,0.04-0.31,0.05-0.49,0.02l-1.41-0.25L263.02,196.22z M262.2,193.74c-0.13,0.72,0.14,1.13,0.8,1.25
				c0.33,0.06,0.59,0,0.8-0.16s0.34-0.41,0.4-0.73c0.03-0.17,0.03-0.33,0-0.47c-0.03-0.14-0.08-0.27-0.15-0.37
				c-0.08-0.1-0.17-0.19-0.29-0.26c-0.12-0.07-0.26-0.12-0.41-0.14c-0.16-0.03-0.3-0.02-0.43,0.01c-0.13,0.03-0.24,0.09-0.34,0.17
				c-0.1,0.08-0.18,0.18-0.25,0.3C262.27,193.46,262.22,193.59,262.2,193.74z"/>
		</g>
		<g>
			<path class="st0" d="M266.53,194.36c0.12-0.35,0.27-0.64,0.47-0.88c0.2-0.24,0.42-0.43,0.67-0.57c0.25-0.14,0.53-0.23,0.83-0.26
				c0.3-0.04,0.62-0.03,0.94,0.03c0.35,0.06,0.66,0.17,0.92,0.32c0.26,0.15,0.47,0.33,0.63,0.53c0.16,0.2,0.27,0.43,0.33,0.67
				c0.06,0.24,0.07,0.49,0.02,0.74c-0.04,0.23-0.1,0.42-0.17,0.59c-0.08,0.16-0.17,0.3-0.28,0.41c-0.11,0.11-0.24,0.2-0.39,0.26
				c-0.15,0.06-0.31,0.11-0.49,0.14c0.75,0.42,1.05,1.03,0.91,1.84c-0.07,0.38-0.19,0.7-0.38,0.96c-0.19,0.26-0.42,0.46-0.68,0.61
				c-0.27,0.15-0.56,0.24-0.88,0.28c-0.32,0.04-0.65,0.03-0.98-0.03c-0.34-0.06-0.64-0.15-0.89-0.27c-0.25-0.12-0.47-0.28-0.65-0.47
				c-0.18-0.19-0.33-0.42-0.44-0.69s-0.2-0.58-0.25-0.94l0.73-0.16c0.19-0.04,0.36-0.03,0.5,0.03c0.14,0.06,0.24,0.15,0.28,0.28
				c0.1,0.3,0.22,0.52,0.37,0.68c0.14,0.15,0.33,0.25,0.55,0.29c0.17,0.03,0.32,0.03,0.46-0.01s0.25-0.09,0.35-0.17
				c0.1-0.08,0.18-0.17,0.24-0.27c0.06-0.11,0.11-0.22,0.13-0.34c0.03-0.15,0.04-0.29,0.04-0.42c0-0.13-0.04-0.24-0.12-0.35
				c-0.08-0.11-0.22-0.2-0.41-0.28c-0.19-0.08-0.46-0.16-0.82-0.22l0.19-1.05c0.3,0.05,0.54,0.07,0.74,0.06
				c0.19-0.01,0.35-0.05,0.46-0.11c0.11-0.06,0.2-0.15,0.25-0.26s0.09-0.23,0.12-0.37c0.05-0.28,0.02-0.51-0.09-0.69
				c-0.11-0.18-0.3-0.29-0.58-0.34c-0.23-0.04-0.43-0.01-0.6,0.08c-0.18,0.09-0.31,0.22-0.4,0.39c-0.1,0.17-0.21,0.27-0.33,0.31
				c-0.12,0.04-0.28,0.02-0.49-0.04L266.53,194.36z"/>
		</g>
		<g>
			<path class="st0" d="M277.6,194.2l-0.11,0.64c-0.03,0.19-0.08,0.34-0.14,0.45c-0.06,0.11-0.12,0.2-0.17,0.27l-3.42,4.84
				c-0.09,0.12-0.21,0.23-0.36,0.3c-0.14,0.08-0.32,0.1-0.53,0.06l-1.11-0.2l3.47-4.68c0.1-0.12,0.2-0.24,0.29-0.34
				c0.1-0.1,0.2-0.19,0.32-0.28l-3.16-0.56c-0.05-0.01-0.09-0.03-0.13-0.05c-0.04-0.02-0.07-0.06-0.09-0.09
				c-0.03-0.04-0.04-0.08-0.06-0.12c-0.01-0.04-0.02-0.09-0.01-0.13l0.18-1L277.6,194.2z"/>
		</g>
	</g>
	<g>
		<path class="st4" d="M264.87,132.62c-27.19-4.8-45.35-30.73-40.56-57.92l-0.87,4.92c-4.8,27.19,13.36,53.13,40.56,57.92
			s53.13-13.36,57.92-40.56l0.87-4.92C317.99,119.26,292.06,137.42,264.87,132.62z"/>
	</g>
	<g>
		
			<rect x="279.02" y="-8.97" transform="matrix(0.1736 -0.9848 0.9848 0.1736 191.808 310.6548)" class="st6" width="4" height="100"/>
	</g>
	<g>
		<g>
			<g>
				<g>
					<path class="st0" d="M271.97,112.93c-1.19,0-2.4-0.11-3.58-0.31c-11.13-1.96-18.59-12.62-16.63-23.75
						c0.21-1.21,1.27-2.07,2.46-2.07c0.14,0,0.29,0.01,0.44,0.04l35.45,6.25c0.65,0.12,1.23,0.48,1.61,1.03
						c0.38,0.54,0.53,1.22,0.41,1.87C290.41,105.8,281.93,112.93,271.97,112.93C271.97,112.93,271.98,112.93,271.97,112.93z"/>
				</g>
				<g>
					<path class="st0" d="M254.23,89.3l35.45,6.25c-1.54,8.73-9.13,14.88-17.71,14.88c-1.04,0-2.09-0.09-3.15-0.28
						C259.04,108.43,252.5,99.09,254.23,89.3 M254.22,84.3c-2.38,0-4.49,1.71-4.92,4.13c-1.07,6.05,0.29,12.15,3.81,17.19
						c3.52,5.03,8.8,8.39,14.85,9.46c1.33,0.23,2.68,0.35,4.02,0.35c11.17,0,20.69-7.99,22.63-19.01c0.23-1.31-0.07-2.65-0.83-3.74
						s-1.92-1.83-3.23-2.06l-35.45-6.25C254.8,84.33,254.51,84.3,254.22,84.3L254.22,84.3z"/>
				</g>
			</g>
			<g>
				<g>
					
						<ellipse transform="matrix(0.1736 -0.9848 0.9848 0.1736 120.3471 351.9128)" class="st7" cx="269.87" cy="104.24" rx="6" ry="13.39"/>
				</g>
			</g>
		</g>
		<g>
			<path class="st0" d="M286.77,61.05c0.78-0.46,1.41-0.72,2.15-0.96c0.72-0.23,1.47-0.39,2.24-0.47c1.53-0.18,3.16-0.06,4.75,0.41
				c0.4,0.13,0.79,0.25,1.18,0.43c0.38,0.18,0.76,0.38,1.13,0.58c0.36,0.21,0.7,0.49,1.04,0.73c0.35,0.24,0.66,0.52,0.94,0.84
				c1.22,1.17,1.96,2.68,2.35,4.17c0.29,1.09-0.36,2.2-1.45,2.49c-0.62,0.16-1.24,0.02-1.72-0.32l-0.35-0.26
				c-0.94-0.7-1.65-1.37-2.46-1.81c-0.78-0.48-1.55-0.84-2.43-1.12c-0.87-0.28-1.83-0.48-2.86-0.62c-0.52-0.05-1.06-0.12-1.61-0.15
				c-0.53-0.06-1.16-0.05-1.62-0.14l-0.61-0.11c-1.09-0.2-1.81-1.23-1.61-2.32C285.92,61.83,286.29,61.34,286.77,61.05z"/>
		</g>
		<g>
			<path class="st0" d="M266.28,61.02c-0.46-0.08-1.05-0.3-1.57-0.43c-0.53-0.16-1.06-0.28-1.56-0.41c-1.02-0.23-1.99-0.37-2.9-0.4
				c-0.92-0.04-1.77,0.03-2.67,0.22c-0.91,0.14-1.81,0.53-2.93,0.86l-0.4,0.12c-1.08,0.32-2.21-0.3-2.53-1.38
				c-0.18-0.61-0.05-1.25,0.28-1.73c0.88-1.27,2.08-2.43,3.63-3.11c0.37-0.2,0.76-0.36,1.17-0.47c0.41-0.11,0.81-0.26,1.23-0.33
				c0.42-0.06,0.84-0.12,1.26-0.15c0.42-0.03,0.83-0.01,1.25,0c1.66,0.09,3.23,0.54,4.6,1.24c0.69,0.34,1.34,0.75,1.94,1.21
				c0.61,0.48,1.12,0.94,1.69,1.64c0.7,0.85,0.58,2.11-0.27,2.81c-0.46,0.38-1.05,0.52-1.6,0.43L266.28,61.02z"/>
		</g>
		<g>
			<g>
				<path class="st0" d="M266.53,79.75c-0.14,0-0.29-0.01-0.44-0.04c-1.36-0.24-2.27-1.54-2.03-2.9c0.43-2.44-1.21-4.78-3.65-5.21
					c-2.44-0.43-4.78,1.21-5.21,3.65c-0.24,1.36-1.53,2.27-2.9,2.03c-1.36-0.24-2.27-1.54-2.03-2.9c0.91-5.16,5.84-8.62,11.01-7.71
					c5.16,0.91,8.62,5.85,7.71,11C268.78,78.9,267.72,79.75,266.53,79.75z"/>
			</g>
		</g>
		<g>
			<g>
				<path class="st0" d="M296.03,84.96c-0.14,0-0.29-0.01-0.44-0.04c-1.36-0.24-2.27-1.54-2.03-2.9c0.21-1.18-0.06-2.38-0.75-3.36
					s-1.72-1.64-2.91-1.85c-2.44-0.43-4.78,1.21-5.21,3.65c-0.24,1.36-1.53,2.27-2.9,2.03c-1.36-0.24-2.27-1.54-2.03-2.9
					c0.91-5.16,5.85-8.62,11.01-7.71c2.5,0.44,4.68,1.83,6.13,3.91c1.46,2.08,2.01,4.6,1.57,7.1
					C298.28,84.1,297.22,84.96,296.03,84.96z"/>
			</g>
		</g>
	</g>
	<g>
		<g>
			<g>
				<circle class="st8" cx="303.33" cy="98.79" r="2"/>
			</g>
		</g>
		<g>
			<g>
				<circle class="st8" cx="311.2" cy="100.17" r="2"/>
			</g>
		</g>
		<g>
			<g>
				<circle class="st8" cx="308.65" cy="91.6" r="2"/>
			</g>
		</g>
	</g>
	<g>
		<g>
			<g>
				<circle class="st8" cx="232.42" cy="86.28" r="2"/>
			</g>
		</g>
		<g>
			<g>
				<circle class="st8" cx="240.3" cy="87.67" r="2"/>
			</g>
		</g>
		<g>
			<g>
				<circle class="st8" cx="237.75" cy="79.1" r="2"/>
			</g>
		</g>
	</g>
</g>
</svg>
