<?xml version="1.0" encoding="utf-8"?>
<!-- Generator: Adobe Illustrator 25.0.1, SVG Export Plug-In . SVG Version: 6.00 Build 0)  -->
<svg version="1.1" id="Layer_1" xmlns="http://www.w3.org/2000/svg" xmlns:xlink="http://www.w3.org/1999/xlink" x="0px" y="0px"
	 viewBox="0 0 400 400" style="enable-background:new 0 0 400 400;" xml:space="preserve">
<style type="text/css">
	.st0{fill:#1877F2;}
	.st1{fill:#FFE8A0;}
	.st2{fill:#515979;}
	.st3{fill:#FFFFFF;}
	.st4{fill:#FFFAEC;}
	.st5{fill:#75A5C3;}
	.st6{fill:#BAD2E1;}
	.st7{fill:#EF7D7D;}
</style>
<path class="st0" d="M147.7,56c-21.6,0-42.3,8.1-58.2,22.7C73.7,93.3,64,113.4,62.3,134.8c-1.7,21.5,4.8,42.8,18.2,59.7
	s32.6,28.2,53.9,31.5v-59.9h-21.7v-24.6h21.7v-18.8c0-21.4,12.8-33.3,32.3-33.3c6.4,0.1,12.8,0.6,19.2,1.7v21.1H175
	c-10.6,0-13.9,6.6-13.9,13.3v16.1h23.7l-3.8,24.7h-20v59.9c21.4-3.2,40.8-14.4,54.3-31.3c13.5-16.9,20-38.4,18.4-59.9
	c-1.7-21.6-11.5-41.7-27.5-56.4C190.3,63.9,169.4,55.8,147.7,56L147.7,56z"/>
<path class="st1" d="M276.6,150.6c-0.5-0.1-0.9-0.3-1.3-0.5c-0.4-0.3-0.7-0.6-1-1c-0.3-0.4-0.5-0.8-0.6-1.3c-0.1-0.5-0.1-0.9,0-1.4
	c2.2-12.6-2-20.3-6.8-29.3c-5.6-10.3-11.9-21.9-8.3-42.1c2.3-13.3,9.9-25.2,21-32.9c11.1-7.8,24.8-10.8,38.1-8.4
	c13.3,2.3,25.2,9.9,32.9,21c7.8,11.1,10.8,24.8,8.4,38.1c-3.6,20.1-13.5,28.9-22.2,36.7c-7.6,6.8-14.2,12.6-16.4,25.2
	c-0.2,0.9-0.7,1.8-1.5,2.3c-0.8,0.5-1.7,0.8-2.7,0.6L276.6,150.6z"/>
<path class="st2" d="M317,37.3c12.4,2.2,23.4,9.2,30.6,19.5c7.2,10.3,10,23.1,7.9,35.4c-6.3,36-33.5,32.7-38.6,61.8l-39.7-7
	c5.1-29.1-21.5-35.4-15.1-71.3c2.2-12.4,9.2-23.4,19.5-30.6C291.9,37.9,304.7,35.1,317,37.3L317,37.3z M318.3,30.3
	c-14.2-2.5-28.9,0.8-40.8,9.1c-11.8,8.3-19.9,21-22.5,35.2c-3.8,21.4,3.1,34.1,8.7,44.4c4.7,8.7,8.4,15.6,6.4,27
	c-0.2,0.9-0.1,1.9,0.1,2.8c0.2,0.9,0.6,1.8,1.1,2.5c0.5,0.8,1.2,1.4,2,1.9c0.8,0.5,1.7,0.8,2.6,1l39.7,7c1.9,0.3,3.8-0.1,5.3-1.2
	c1.5-1.1,2.6-2.7,2.9-4.6c2-11.4,7.9-16.6,15.2-23.1c8.8-7.7,19.6-17.4,23.4-38.7c2.5-14.2-0.8-28.9-9.1-40.8
	C345.2,40.9,332.5,32.8,318.3,30.3L318.3,30.3z"/>
<path class="st2" d="M305.4,105.2c-4.7-0.8-9-3-12.6-6.2c-0.5-0.4-0.7-1-0.8-1.6c0-0.6,0.2-1.2,0.6-1.7c0.4-0.5,1-0.7,1.6-0.8
	c0.6,0,1.2,0.2,1.7,0.6c5.7,5.2,14.4,6.8,20.7,3.6c0.3-0.1,0.6-0.2,0.9-0.2c0.3,0,0.6,0,0.9,0.1c0.3,0.1,0.6,0.3,0.8,0.5
	c0.2,0.2,0.4,0.5,0.6,0.7c0.1,0.3,0.2,0.6,0.2,0.9c0,0.3,0,0.6-0.1,0.9c-0.1,0.3-0.3,0.6-0.5,0.8s-0.5,0.4-0.7,0.6
	C314.6,105.4,309.9,106,305.4,105.2L305.4,105.2z"/>
<path class="st2" d="M323,95.9c-0.2,0-0.4-0.1-0.6-0.2c-2.2-1.1-4.6-1.5-7-1.2c-0.5,0.1-0.9,0-1.3-0.3c-0.4-0.3-0.6-0.7-0.7-1.2
	c-0.1-0.5,0-0.9,0.3-1.3c0.3-0.4,0.7-0.6,1.2-0.7c3.2-0.4,6.4,0.2,9.3,1.6c0.4,0.2,0.6,0.5,0.8,0.9c0.1,0.4,0.2,0.8,0,1.2
	c-0.1,0.4-0.4,0.7-0.8,0.9C323.8,95.9,323.4,96,323,95.9L323,95.9z"/>
<path class="st2" d="M319.3,92.6c3.9,0.7,7.6-1.9,8.2-5.8c0.7-3.9-1.9-7.6-5.8-8.2c-3.9-0.7-7.6,1.9-8.2,5.8
	C312.9,88.2,315.5,91.9,319.3,92.6z"/>
<path class="st3" d="M322,87.6c1,0.2,1.9-0.5,2.1-1.4c0.2-1-0.5-1.9-1.4-2.1c-1-0.2-1.9,0.5-2.1,1.4C320.4,86.5,321.1,87.5,322,87.6
	z"/>
<path class="st2" d="M291.4,90.3c-0.4-0.1-0.8-0.3-1.1-0.6c-0.3-0.3-0.4-0.7-0.4-1.2c0-0.4,0.2-0.8,0.4-1.1c0.3-0.3,0.6-0.5,1.1-0.6
	c3.2-0.4,6.4,0.2,9.3,1.6c0.4,0.2,0.7,0.6,0.9,1.1c0.1,0.5,0.1,0.9-0.2,1.4c-0.2,0.4-0.6,0.7-1.1,0.8c-0.5,0.1-0.9,0.1-1.4-0.2
	c-2.2-1.1-4.6-1.5-7-1.2C291.8,90.4,291.6,90.4,291.4,90.3z"/>
<path class="st2" d="M296,88.5c3.9,0.7,7.6-1.9,8.2-5.8c0.7-3.9-1.9-7.6-5.8-8.2c-3.9-0.7-7.6,1.9-8.2,5.8
	C289.5,84.1,292.1,87.8,296,88.5z"/>
<path class="st3" d="M298.7,83.5c1,0.2,1.9-0.5,2.1-1.4c0.2-1-0.5-1.9-1.4-2.1c-1-0.2-1.9,0.5-2.1,1.4
	C297,82.4,297.7,83.3,298.7,83.5z"/>
<path class="st2" d="M317.5,70.1c1.1-0.6,2.3-0.9,3.5-1c1.2-0.1,2.4-0.1,3.6,0.2c1.3,0.3,2.5,0.7,3.5,1.4c1.1,0.7,2,1.7,2.6,2.8
	c0.2,0.3,0.3,0.8,0.3,1.2c0,0.4-0.2,0.8-0.4,1.1c-0.3,0.3-0.6,0.6-1,0.7c-0.4,0.1-0.8,0.1-1.2,0l-0.5-0.1c-0.9-0.2-1.6-0.5-2.4-0.7
	c-0.8-0.2-1.5-0.4-2.3-0.6l-2.5-0.5c-0.9-0.1-1.8-0.3-2.6-0.6l-0.5-0.2c-0.3-0.1-0.5-0.2-0.7-0.4c-0.2-0.2-0.4-0.4-0.5-0.6
	c-0.1-0.2-0.2-0.5-0.2-0.8c0-0.3,0-0.5,0.1-0.8c0.1-0.3,0.2-0.5,0.4-0.7C317.1,70.4,317.3,70.3,317.5,70.1L317.5,70.1z"/>
<path class="st2" d="M303.3,71.4c-0.9-0.1-1.8-0.2-2.7-0.4l-2.5-0.4c-0.8-0.1-1.6-0.1-2.3-0.2c-0.8-0.1-1.5,0-2.5-0.1l-0.5-0.1
	c-0.4,0-0.8-0.2-1.1-0.4c-0.3-0.2-0.6-0.6-0.7-1c-0.1-0.4-0.1-0.8,0-1.2c0.1-0.4,0.3-0.7,0.7-1c1-0.9,2.2-1.5,3.4-1.8
	c1.2-0.3,2.5-0.3,3.8-0.2c1.2,0.2,2.4,0.5,3.5,1.1c1.1,0.5,2.1,1.3,2.9,2.2c0.3,0.3,0.5,0.7,0.6,1.1c0.1,0.4,0,0.8-0.1,1.2
	c-0.2,0.4-0.5,0.7-0.8,0.9c-0.4,0.2-0.8,0.3-1.2,0.3L303.3,71.4z"/>
<path class="st4" d="M342.5,77.5c-0.7-0.1-1.3-0.4-1.8-0.9c-0.5-0.5-0.9-1.1-1-1.8c-1.3-5.7-4.3-11-8.6-15
	c-4.3-4.1-9.6-6.8-15.4-7.8c-0.9-0.2-1.8-0.7-2.3-1.5c-0.5-0.8-0.8-1.7-0.6-2.7c0.2-0.9,0.7-1.8,1.5-2.3c0.8-0.5,1.7-0.8,2.7-0.6
	c7.2,1.3,13.8,4.6,19.1,9.6s9,11.5,10.6,18.6c0.1,0.6,0.1,1.2,0,1.7c-0.2,0.6-0.4,1.1-0.9,1.5c-0.4,0.4-0.9,0.7-1.5,0.9
	C343.7,77.5,343.1,77.6,342.5,77.5L342.5,77.5z"/>
<path class="st2" d="M287.8,149c-0.8-0.1-1.5-0.5-2-1.1c-0.5-0.6-0.8-1.3-0.9-2.1l-2.6-33c0-0.5,0-0.9,0.1-1.4
	c0.1-0.5,0.4-0.9,0.7-1.2c0.3-0.4,0.7-0.7,1.1-0.9c0.4-0.2,0.9-0.3,1.4-0.4c0.5,0,0.9,0,1.4,0.2c0.4,0.1,0.9,0.4,1.2,0.7
	c0.4,0.3,0.6,0.7,0.9,1.1c0.2,0.4,0.3,0.9,0.4,1.4l2.6,33c0,0.5,0,0.9-0.2,1.4c-0.1,0.4-0.4,0.9-0.7,1.2c-0.3,0.4-0.7,0.6-1.1,0.9
	c-0.4,0.2-0.9,0.3-1.3,0.4C288.4,149,288.1,149,287.8,149z"/>
<path class="st2" d="M306.4,152.2c-0.3-0.1-0.6-0.1-0.9-0.3c-0.9-0.4-1.5-1.1-1.9-2c-0.3-0.9-0.3-1.9,0.1-2.7l13.7-30.1
	c0.4-0.9,1.1-1.5,2-1.9c0.9-0.3,1.9-0.3,2.7,0.1c0.9,0.4,1.5,1.1,1.9,2c0.3,0.9,0.3,1.9-0.1,2.7l-13.7,30.1
	c-0.3,0.7-0.9,1.3-1.6,1.7C308,152.3,307.2,152.4,306.4,152.2z"/>
<path class="st2" d="M309.4,128.7c-0.5-0.1-0.9-0.2-1.3-0.5c-0.4-0.2-0.7-0.6-1-0.9l-4.7-6.7l-6.7,4.7c-0.7,0.5-1.6,0.7-2.5,0.6
	c-0.9-0.1-1.7-0.6-2.3-1.3l-7.9-9.8c-0.3-0.4-0.5-0.8-0.6-1.2c-0.1-0.5-0.2-0.9-0.1-1.4c0.1-0.5,0.2-0.9,0.4-1.3
	c0.2-0.4,0.5-0.8,0.9-1.1c0.4-0.3,0.8-0.5,1.2-0.6c0.5-0.1,0.9-0.2,1.4-0.1c0.5,0,0.9,0.2,1.3,0.4c0.4,0.2,0.8,0.5,1.1,0.9l5.8,7.2
	l6.9-4.9c0.8-0.5,1.7-0.7,2.6-0.5s1.7,0.7,2.3,1.4l4.8,6.9l8-4.8c0.4-0.2,0.8-0.4,1.3-0.5c0.5-0.1,0.9,0,1.4,0.1
	c0.5,0.1,0.9,0.3,1.3,0.6c0.4,0.3,0.7,0.6,0.9,1c0.2,0.4,0.4,0.8,0.5,1.3c0.1,0.5,0,0.9-0.1,1.4c-0.1,0.5-0.3,0.9-0.6,1.3
	c-0.3,0.4-0.6,0.7-1,0.9l-10.8,6.5C311.1,128.7,310.2,128.8,309.4,128.7L309.4,128.7z"/>
<path class="st5" d="M285.8,193.2c-1.3-0.2-2.4-0.8-3.3-1.8c-0.9-0.9-1.4-2.1-1.6-3.4l-1.5-8l24.1,4.3l-4.1,7
	c-0.6,1.1-1.5,2.1-2.6,2.6c-1.1,0.6-2.4,0.8-3.7,0.5L285.8,193.2z"/>
<path class="st2" d="M297.9,186.9l-1.6,2.8c-0.2,0.5-0.6,0.9-1.1,1.1c-0.5,0.2-1,0.3-1.5,0.2l-7.3-1.3c-0.5-0.1-1-0.3-1.3-0.7
	c-0.4-0.4-0.6-0.9-0.6-1.4l-0.6-3.1L297.9,186.9L297.9,186.9z M309.2,181.7l-34.2-6l1.9,10.1l0.5,2.9c0.3,2,1.2,3.8,2.5,5.3
	c1.4,1.4,3.2,2.4,5.2,2.8l7.3,1.3c2,0.3,4,0,5.8-0.8c1.8-0.9,3.3-2.3,4.2-4.1l1.5-2.6l5.2-8.8L309.2,181.7z"/>
<path class="st6" d="M276.3,179.5c-2.2-0.4-4.1-1.6-5.4-3.4c-1.3-1.8-1.8-4-1.4-6.2l4.7-26.9l46.7,8.2l-4.7,26.9
	c-0.4,2.2-1.6,4.1-3.4,5.4c-1.8,1.3-4,1.8-6.2,1.4L276.3,179.5z"/>
<path class="st2" d="M316.9,154.1l-4.1,23.4c-0.2,1.2-0.9,2.3-1.9,3.1c-1,0.7-2.3,1-3.5,0.8l-30.4-5.4c-1.2-0.2-2.3-0.9-3.1-2
	c-0.7-1-1-2.3-0.8-3.5l4.1-23.4L316.9,154.1z M325.2,148.3l-53.7-9.5l-5.4,30.4c-0.5,3.1,0.2,6.3,2,8.9c1.8,2.6,4.5,4.3,7.6,4.9
	l30.4,5.4c3.1,0.5,6.3-0.2,8.9-2c2.6-1.8,4.3-4.6,4.9-7.7L325.2,148.3L325.2,148.3z"/>
<path class="st2" d="M271.2,160.5c-0.9-0.2-1.7-0.7-2.2-1.4c-0.5-0.7-0.8-1.6-0.7-2.5c0.1-0.9,0.6-1.7,1.3-2.3
	c0.7-0.6,1.6-0.9,2.5-0.8l47.6,3.6c0.9,0.1,1.8,0.6,2.3,1.3c0.6,0.7,0.9,1.6,0.8,2.5c-0.1,0.9-0.5,1.8-1.2,2.4s-1.6,0.9-2.5,0.9
	l-47.6-3.6L271.2,160.5z"/>
<path class="st2" d="M269.2,172.2c-0.9-0.2-1.7-0.7-2.2-1.4c-0.5-0.7-0.8-1.6-0.7-2.5c0.1-0.9,0.6-1.7,1.3-2.3
	c0.7-0.6,1.6-0.9,2.5-0.8l47.6,3.6c0.9,0.1,1.8,0.6,2.3,1.3c0.6,0.7,0.9,1.6,0.8,2.5s-0.5,1.8-1.2,2.4c-0.7,0.6-1.6,0.9-2.5,0.9
	l-47.6-3.6L269.2,172.2z"/>
<path class="st1" d="M85.8,310.4c-0.9,0.2-1.9,0-2.7-0.5c-0.8-0.5-1.4-1.3-1.6-2.2c-2.9-12.5-9.8-17.9-17.7-24.3
	c-9.1-7.3-19.5-15.5-24.1-35.5c-3-13.2-0.7-27,6.4-38.5c7.2-11.5,18.6-19.6,31.8-22.7c13.2-3,27-0.7,38.5,6.4
	c11.5,7.2,19.6,18.6,22.7,31.8c4.6,19.9-1.1,31.9-6.1,42.5c-4.4,9.2-8.2,17.1-5.3,29.6c0.2,0.9,0.1,1.9-0.4,2.7
	c-0.5,0.8-1.3,1.4-2.2,1.6L85.8,310.4z"/>
<path class="st2" d="M78.8,190.2c12.3-2.8,25.2-0.7,35.8,6c10.7,6.7,18.3,17.3,21.1,29.6c8.2,35.6-18,43.2-11.4,72L85,306.9
	c-6.7-28.8-33.6-24.2-41.8-59.8c-2.8-12.3-0.7-25.2,6-35.8C55.9,200.6,66.5,193,78.8,190.2L78.8,190.2z M77.2,183.3
	c-14.1,3.3-26.3,12-34,24.3s-10.2,27.1-6.9,41.2c4.9,21.1,16.2,30.2,25.3,37.5c7.8,6.2,13.8,11.1,16.4,22.3c0.4,1.8,1.6,3.4,3.2,4.4
	c1.6,1,3.5,1.3,5.4,0.9l39.3-9.1c1.8-0.4,3.4-1.6,4.4-3.2c1-1.6,1.3-3.5,0.9-5.4c-2.6-11.2,0.8-18.3,5-27.3
	c5.1-10.5,11.3-23.6,6.4-44.8c-3.3-14.1-12-26.3-24.3-34C106.1,182.5,91.3,180,77.2,183.3L77.2,183.3z"/>
<path class="st4" d="M117.9,217.3c-0.7,0.2-1.4,0.1-2-0.1c-0.7-0.2-1.2-0.7-1.6-1.2c-3.4-4.8-8.2-8.4-13.7-10.5
	c-5.5-2.1-11.5-2.5-17.2-1.1c-0.9,0.2-1.9,0.1-2.7-0.4c-0.8-0.5-1.4-1.3-1.6-2.2s-0.1-1.9,0.4-2.7c0.5-0.8,1.3-1.4,2.2-1.6
	c7.1-1.6,14.5-1.2,21.3,1.4c6.8,2.6,12.7,7.1,17,13c0.3,0.5,0.6,1,0.6,1.6c0.1,0.6,0,1.2-0.2,1.7c-0.2,0.5-0.5,1-1,1.4
	C119,216.9,118.5,217.1,117.9,217.3L117.9,217.3z"/>
<path class="st2" d="M95.4,304.5c-0.8,0.2-1.6,0.1-2.3-0.2c-0.7-0.3-1.3-0.9-1.7-1.6l-15.3-29.3c-0.4-0.8-0.5-1.8-0.2-2.7
	c0.3-0.9,0.9-1.6,1.7-2.1c0.8-0.4,1.8-0.5,2.7-0.2c0.9,0.3,1.6,0.9,2.1,1.7l15.3,29.3c0.4,0.8,0.5,1.8,0.2,2.7
	c-0.3,0.9-0.9,1.7-1.7,2.1C96,304.3,95.7,304.4,95.4,304.5L95.4,304.5z"/>
<path class="st2" d="M113.9,300.2c-0.3,0.1-0.6,0.1-0.9,0.1c-0.9,0-1.8-0.4-2.5-1.1c-0.6-0.7-1-1.6-1-2.5l0.9-33
	c0-0.9,0.4-1.8,1.1-2.4c0.7-0.6,1.6-1,2.5-1c0.9,0,1.8,0.4,2.5,1.1c0.6,0.7,1,1.6,1,2.5l-0.9,33c0,0.8-0.3,1.5-0.8,2.2
	C115.4,299.6,114.7,300,113.9,300.2L113.9,300.2z"/>
<path class="st2" d="M107.4,277.4c-0.9,0.2-1.9,0.1-2.7-0.4l-6.9-4.3l-4.3,6.9c-0.5,0.8-1.2,1.3-2.1,1.6c-0.9,0.2-1.8,0.1-2.6-0.3
	l-11.1-6c-0.8-0.5-1.5-1.2-1.7-2.1c-0.3-0.9-0.2-1.9,0.3-2.7c0.4-0.8,1.2-1.5,2.1-1.7c0.9-0.3,1.9-0.2,2.7,0.3l8.2,4.4l4.5-7.1
	c0.5-0.8,1.3-1.3,2.2-1.5c0.9-0.2,1.9-0.1,2.7,0.4l7.1,4.5l5.4-7.5c0.3-0.4,0.6-0.7,1-1s0.8-0.4,1.3-0.5c0.5-0.1,1-0.1,1.4,0
	c0.5,0.1,0.9,0.3,1.3,0.6c0.4,0.3,0.7,0.6,1,1c0.2,0.4,0.4,0.9,0.5,1.3c0.1,0.5,0,1-0.1,1.4c-0.1,0.5-0.3,0.9-0.6,1.3l-7.4,10.2
	C109.1,276.7,108.3,277.2,107.4,277.4L107.4,277.4z"/>
<path class="st5" d="M110.9,346c-1.2,0.3-2.5,0.2-3.7-0.3c-1.2-0.5-2.1-1.4-2.8-2.5l-4.5-6.8l23.9-5.5l-1,8.1
	c-0.1,1.3-0.6,2.5-1.4,3.4c-0.8,1-1.9,1.6-3.2,1.9L110.9,346z"/>
<path class="st2" d="M119.6,335.4l-0.4,3.2c0,0.5-0.2,1-0.5,1.4c-0.3,0.4-0.8,0.7-1.3,0.8l-7.2,1.7c-0.5,0.1-1,0.1-1.5-0.2
	c-0.5-0.2-0.9-0.6-1.1-1l-1.8-2.7L119.6,335.4L119.6,335.4z M128,326.2L94.2,334l5.6,8.5l1.6,2.5c1,1.7,2.6,3.1,4.4,3.9
	c1.9,0.8,3.9,1,5.9,0.5l7.2-1.7c2-0.5,3.7-1.5,5-3c1.3-1.5,2.1-3.4,2.3-5.4l0.4-2.9L128,326.2L128,326.2z"/>
<path class="st6" d="M96.9,337c-2.1,0.5-4.4,0.1-6.3-1.1c-1.9-1.2-3.2-3-3.7-5.2l-6.1-26.6l46.2-10.7l6.1,26.6
	c0.5,2.1,0.1,4.4-1.1,6.3c-1.2,1.9-3,3.2-5.2,3.7L96.9,337z"/>
<path class="st2" d="M124.3,297.8l5.3,23.1c0.3,1.2,0.1,2.5-0.6,3.6c-0.7,1.1-1.7,1.8-3,2.1l-30,6.9c-1.2,0.3-2.5,0.1-3.6-0.6
	c-1.1-0.7-1.8-1.7-2.1-3L85,306.9L124.3,297.8L124.3,297.8z M129.7,289.3l-53.2,12.3l6.9,30.1c0.7,3.1,2.6,5.7,5.3,7.4
	c2.7,1.7,5.9,2.2,9,1.5l30.1-6.9c3.1-0.7,5.7-2.6,7.4-5.3c1.7-2.7,2.2-5.9,1.5-8.9L129.7,289.3L129.7,289.3z"/>
<path class="st2" d="M84.8,321.6c-0.9,0.2-1.8,0-2.6-0.4c-0.8-0.5-1.4-1.2-1.6-2.1s-0.2-1.8,0.3-2.6s1.1-1.4,2-1.7l45.2-15.3
	c0.9-0.3,1.9-0.2,2.7,0.2c0.8,0.4,1.5,1.2,1.8,2.1c0.3,0.9,0.2,1.9-0.2,2.7c-0.4,0.8-1.2,1.5-2.1,1.8l-45.2,15.3L84.8,321.6z"/>
<path class="st2" d="M87.4,333.1c-0.9,0.2-1.9,0.1-2.7-0.4c-0.8-0.5-1.4-1.2-1.7-2.1c-0.3-0.9-0.1-1.9,0.3-2.7
	c0.4-0.8,1.2-1.4,2.1-1.7l45.2-15.3c0.4-0.2,0.9-0.2,1.4-0.2c0.5,0,0.9,0.1,1.4,0.3c0.4,0.2,0.8,0.5,1.1,0.9
	c0.3,0.4,0.6,0.8,0.7,1.2c0.2,0.5,0.2,0.9,0.2,1.4c0,0.5-0.2,0.9-0.4,1.4c-0.2,0.4-0.5,0.8-0.9,1.1c-0.4,0.3-0.8,0.5-1.3,0.7
	L87.7,333L87.4,333.1z"/>
<path class="st2" d="M94.8,232.3c-0.6,0.1-1.2,0-1.7-0.3c-0.5-0.3-0.9-0.8-1.1-1.4c-0.3-0.9-0.3-1.8-0.2-2.8
	c0.1-0.9,0.4-1.8,0.8-2.6c0.9-1.7,2.5-2.9,4.3-3.4c1.8-0.5,3.8-0.3,5.4,0.6c1.7,0.9,2.9,2.4,3.4,4.3c0.1,0.3,0.1,0.6,0.1,0.9
	c0,0.3-0.1,0.6-0.3,0.9c-0.2,0.3-0.4,0.5-0.6,0.7c-0.2,0.2-0.5,0.3-0.8,0.4c-0.3,0.1-0.6,0.1-0.9,0.1c-0.3,0-0.6-0.1-0.9-0.3
	c-0.3-0.2-0.5-0.4-0.7-0.6c-0.2-0.2-0.3-0.5-0.4-0.8c-0.2-0.6-0.6-1.1-1.1-1.4c-0.5-0.3-1.2-0.4-1.8-0.2c-0.6,0.2-1.1,0.6-1.4,1.1
	c-0.3,0.5-0.4,1.2-0.3,1.8c0.1,0.3,0.1,0.6,0.1,0.9c0,0.3-0.1,0.6-0.3,0.9c-0.2,0.3-0.4,0.5-0.6,0.7c-0.2,0.2-0.5,0.3-0.8,0.4
	L94.8,232.3z"/>
<path class="st2" d="M72,238.8c-0.6,0.1-1.2,0-1.7-0.3c-0.5-0.3-0.9-0.8-1.1-1.4c-0.3-0.9-0.3-1.8-0.2-2.8c0.1-0.9,0.4-1.8,0.8-2.7
	c0.5-0.8,1.1-1.5,1.8-2.1c0.7-0.6,1.6-1,2.5-1.3c0.9-0.3,1.8-0.3,2.8-0.2c0.9,0.1,1.8,0.4,2.7,0.9s1.5,1.1,2.1,1.8
	c0.6,0.7,1,1.6,1.3,2.5c0.1,0.3,0.1,0.6,0.1,0.9c0,0.3-0.1,0.6-0.3,0.9c-0.2,0.3-0.4,0.5-0.6,0.7c-0.2,0.2-0.5,0.3-0.8,0.4
	c-0.3,0.1-0.6,0.1-0.9,0.1c-0.3,0-0.6-0.1-0.9-0.3c-0.3-0.2-0.5-0.4-0.7-0.6c-0.2-0.2-0.3-0.5-0.4-0.8c-0.1-0.5-0.4-0.9-0.7-1.2
	c-0.4-0.3-0.8-0.5-1.3-0.5c-0.5-0.1-0.9,0-1.4,0.2c-0.4,0.2-0.8,0.5-1,1c-0.2,0.3-0.2,0.6-0.3,0.9c0,0.3,0,0.6,0.1,0.9
	c0.2,0.6,0.1,1.2-0.2,1.8c-0.3,0.6-0.8,1-1.4,1.1L72,238.8z"/>
<path class="st2" d="M90.3,213.4c0.9-0.8,1.9-1.5,3.1-2c1.1-0.5,2.3-0.7,3.6-0.8c1.3-0.1,2.6,0,3.8,0.4c1.3,0.4,2.4,1.1,3.3,2
	c0.3,0.3,0.5,0.6,0.5,1c0.1,0.4,0,0.8-0.1,1.2s-0.4,0.7-0.7,0.9c-0.3,0.2-0.7,0.3-1.1,0.3l-0.5,0c-0.9,0-1.7-0.1-2.5,0
	c-0.8,0-1.5,0-2.4,0.1l-2.5,0.2c-0.9,0.1-1.8,0.2-2.7,0.2l-0.5,0c-0.4,0-0.8-0.1-1.1-0.4c-0.3-0.2-0.6-0.6-0.7-0.9
	c-0.1-0.4-0.2-0.8-0.1-1.2C89.8,214,90,213.6,90.3,213.4L90.3,213.4z"/>
<path class="st2" d="M75.4,221.7c-0.8,0.5-1.6,0.9-2.4,1.3l-2.2,1.2c-0.7,0.4-1.3,0.8-2,1.2c-0.7,0.4-1.3,0.9-2.1,1.3l-0.4,0.2
	c-0.3,0.2-0.7,0.3-1.1,0.3c-0.4,0-0.8-0.1-1.1-0.4c-0.3-0.2-0.6-0.6-0.7-1c-0.1-0.4-0.2-0.8,0-1.2c0.3-1.3,0.9-2.5,1.8-3.5
	c0.8-1,1.8-1.8,3-2.4c1.1-0.6,2.3-1,3.5-1.2c1.2-0.2,2.5-0.2,3.7,0c0.3,0.1,0.5,0.2,0.7,0.3c0.2,0.1,0.4,0.3,0.6,0.6
	s0.2,0.5,0.3,0.7s0,0.5,0,0.8c-0.1,0.5-0.4,1-0.9,1.3L75.4,221.7z"/>
<path class="st2" d="M94.2,257.6c-4,0.9-8.2,0.3-11.7-1.8s-6.1-5.4-7.3-9.4c-0.1-0.2-0.1-0.5-0.1-0.7c0-0.2,0.1-0.5,0.2-0.7
	c0.1-0.2,0.3-0.4,0.4-0.5c0.2-0.1,0.4-0.3,0.6-0.3l27.5-7.9c0.4-0.1,0.9,0,1.3,0.2c0.4,0.2,0.7,0.6,0.8,1c0.6,2,0.8,4.1,0.5,6.2
	c-0.2,2.1-0.9,4.1-1.9,6c-1,1.8-2.4,3.5-4,4.8c-1.6,1.3-3.5,2.3-5.6,2.9C94.7,257.4,94.4,257.5,94.2,257.6L94.2,257.6z"/>
<path class="st2" d="M104.3,238c0.5,1.8,0.7,3.7,0.5,5.5c-0.2,1.9-0.8,3.7-1.7,5.3c-0.9,1.6-2.1,3.1-3.6,4.2c-1.5,1.2-3.1,2-4.9,2.5
	c-0.3,0.1-0.5,0.1-0.7,0.2c-3.6,0.8-7.3,0.2-10.4-1.6c-3.1-1.9-5.5-4.8-6.5-8.3L104.3,238L104.3,238z M103.5,234.6l-0.2,0l-27.4,7.8
	c-0.5,0.1-0.9,0.3-1.2,0.6c-0.4,0.3-0.7,0.7-0.9,1.1c-0.2,0.4-0.4,0.9-0.4,1.3c-0.1,0.5,0,0.9,0.1,1.4c1.3,4.4,4.2,8.1,8.1,10.4
	c3.9,2.3,8.6,3,13,2c0.3-0.1,0.6-0.1,0.9-0.2c4.5-1.3,8.4-4.4,10.7-8.5c2.3-4.1,2.8-9,1.6-13.5c-0.3-0.9-0.9-1.7-1.7-2.1
	C105.2,234.5,104.3,234.3,103.5,234.6L103.5,234.6z"/>
<path class="st7" d="M94.5,255.6c5.6-1.6,9.6-5,8.9-7.5s-5.9-3.3-11.5-1.6c-5.6,1.6-9.6,5-8.9,7.5C83.8,256.5,88.9,257.3,94.5,255.6
	z"/>
<path class="st1" d="M224.9,315.6c-1.3,0-2.5-0.5-3.4-1.4c-0.9-0.9-1.4-2.1-1.4-3.4c0-17-7.3-26.2-15.7-36.9
	c-9.7-12.2-20.6-26-20.6-53.3c0-18,7.2-35.3,19.9-48.1c12.8-12.8,30-19.9,48.1-19.9c18,0,35.3,7.2,48.1,19.9
	c12.8,12.8,19.9,30,19.9,48.1c0,27.3-11,41.1-20.6,53.3c-8.4,10.6-15.7,19.8-15.7,36.9c0,1.3-0.5,2.5-1.4,3.4
	c-0.9,0.9-2.1,1.4-3.4,1.4H224.9z"/>
<path class="st2" d="M251.7,157.5c16.8,0,32.8,6.7,44.7,18.5c11.9,11.9,18.5,27.9,18.5,44.7c0,48.7-36.4,50.7-36.4,90.1h-53.7
	c0-39.5-36.4-41.5-36.4-90.1c0-16.8,6.7-32.8,18.5-44.7C218.9,164.1,235,157.5,251.7,157.5z M251.7,148c-19.3,0-37.8,7.7-51.4,21.3
	C186.7,183,179,201.5,179,220.7c0,28.9,12,44.1,21.7,56.2c8.2,10.3,14.7,18.5,14.7,33.9c0,2.5,1,4.9,2.8,6.7
	c1.8,1.8,4.2,2.8,6.7,2.8h53.8c2.5,0,4.9-1,6.7-2.8c1.8-1.8,2.8-4.2,2.8-6.7c0-15.4,6.5-23.6,14.7-33.9
	c9.7-12.2,21.7-27.3,21.7-56.2c0-19.3-7.7-37.8-21.3-51.4C289.5,155.7,271,148,251.7,148L251.7,148z"/>
<path class="st4" d="M294.4,204.3c-0.9,0-1.8-0.3-2.6-0.8c-0.8-0.5-1.4-1.3-1.7-2.1c-3-7.2-8.2-13.4-14.7-17.7
	c-6.5-4.3-14.2-6.6-22.1-6.6c-1.3,0-2.5-0.5-3.4-1.4s-1.4-2.1-1.4-3.4c0-1.3,0.5-2.5,1.4-3.4s2.1-1.4,3.4-1.4
	c9.7,0,19.2,2.8,27.3,8.2c8.1,5.4,14.4,13,18.2,21.9c0.3,0.7,0.4,1.5,0.3,2.3c-0.1,0.8-0.3,1.5-0.8,2.2c-0.4,0.7-1,1.2-1.7,1.6
	C296,204.1,295.2,204.3,294.4,204.3L294.4,204.3z"/>
<path class="st2" d="M239.1,310.8c-1.1,0-2.1-0.4-2.9-1c-0.8-0.6-1.4-1.5-1.7-2.6l-11.1-42.7c-0.2-0.6-0.3-1.3-0.2-1.9
	c0.1-0.6,0.3-1.3,0.6-1.8c0.3-0.6,0.7-1.1,1.2-1.4c0.5-0.4,1.1-0.7,1.7-0.8c0.6-0.2,1.3-0.2,1.9-0.1c0.6,0.1,1.2,0.3,1.8,0.7
	c0.5,0.3,1,0.8,1.4,1.3c0.4,0.5,0.6,1.1,0.8,1.7l11.1,42.7c0.3,1.2,0.1,2.5-0.5,3.6c-0.6,1.1-1.7,1.9-2.9,2.2
	C239.9,310.8,239.5,310.8,239.1,310.8z"/>
<path class="st2" d="M264.4,310.8c-0.4,0-0.8,0-1.3-0.2c-1.2-0.3-2.3-1.1-2.9-2.2c-0.6-1.1-0.8-2.4-0.5-3.6l11.1-42.7
	c0.1-0.6,0.4-1.2,0.8-1.7c0.4-0.5,0.8-1,1.4-1.3c0.5-0.3,1.2-0.6,1.8-0.7c0.6-0.1,1.3-0.1,1.9,0.1c0.6,0.2,1.2,0.4,1.7,0.8
	c0.5,0.4,0.9,0.9,1.2,1.4c0.3,0.6,0.5,1.2,0.6,1.8c0.1,0.6,0,1.3-0.2,1.9l-11.1,42.7c-0.3,1-0.8,1.9-1.7,2.5
	S265.4,310.8,264.4,310.8L264.4,310.8z"/>
<path class="st2" d="M262.8,279.2c-0.6,0-1.2-0.1-1.8-0.4c-0.6-0.2-1.1-0.6-1.5-1l-7.7-7.7l-7.7,7.7c-0.9,0.8-2,1.3-3.2,1.4
	c-1.2,0-2.4-0.4-3.3-1.2L224.9,267c-0.9-0.8-1.5-2-1.6-3.3c-0.1-1.3,0.3-2.5,1.2-3.4c0.8-0.9,2-1.5,3.3-1.6c1.3-0.1,2.5,0.3,3.4,1.2
	l9.3,8.1l7.9-7.9c0.9-0.9,2.1-1.3,3.4-1.3s2.4,0.5,3.4,1.3l7.9,7.9l9.3-8.1c0.9-0.8,2.2-1.2,3.4-1.2c1.3,0.1,2.4,0.7,3.3,1.6
	c0.8,0.9,1.2,2.2,1.2,3.4c-0.1,1.3-0.7,2.4-1.6,3.3L266,278.1C265.1,278.8,264,279.2,262.8,279.2L262.8,279.2z"/>
<path class="st5" d="M246.8,369.3c-1.7,0-3.3-0.6-4.7-1.6c-1.4-1-2.3-2.4-2.8-4l-3.8-10.2h32.6l-3.8,10.2c-0.5,1.6-1.5,3-2.8,4
	c-1.4,1-3,1.6-4.7,1.6H246.8z"/>
<path class="st2" d="M261.2,358.3l-1.5,4c-0.2,0.7-0.6,1.3-1.1,1.7c-0.6,0.4-1.2,0.7-1.9,0.7h-9.9c-0.7,0-1.4-0.2-1.9-0.7
	c-0.6-0.4-1-1-1.1-1.7l-1.5-4H261.2z M274.9,348.8h-46.3l4.8,12.8l1.4,3.7c0.8,2.5,2.4,4.8,4.6,6.3c2.2,1.6,4.8,2.4,7.5,2.4h9.9
	c2.7,0,5.3-0.8,7.5-2.4c2.2-1.6,3.8-3.8,4.6-6.3l1.4-3.7L274.9,348.8z"/>
<path class="st6" d="M231.2,353.5c-2.9,0-5.7-1.2-7.8-3.2c-2.1-2.1-3.2-4.9-3.2-7.8v-36.4h63.3v36.4c0,2.9-1.2,5.7-3.2,7.8
	c-2.1,2.1-4.9,3.2-7.8,3.2H231.2z"/>
<path class="st2" d="M278.6,310.8v31.6c0,0.8-0.2,1.6-0.5,2.4c-0.3,0.8-0.8,1.5-1.4,2c-0.6,0.6-1.3,1-2.1,1.4s-1.6,0.5-2.4,0.5
	h-41.1c-1.7,0-3.3-0.7-4.4-1.8c-1.2-1.2-1.8-2.8-1.8-4.4v-31.6H278.6z M288.1,301.3h-72.7v41.1c0,4.2,1.7,8.2,4.6,11.2
	c3,3,7,4.6,11.2,4.6h41.1c4.2,0,8.2-1.7,11.2-4.6c3-3,4.6-7,4.6-11.2V301.3L288.1,301.3z"/>
<path class="st2" d="M220.1,329.8c-1.2,0-2.4-0.5-3.3-1.3c-0.9-0.8-1.4-2-1.5-3.2c-0.1-1.2,0.3-2.4,1.1-3.3c0.8-0.9,1.9-1.5,3.1-1.6
	l63.3-6.3c1.2-0.1,2.5,0.3,3.4,1.1c1,0.8,1.6,1.9,1.7,3.2c0.1,1.2-0.2,2.5-1,3.4c-0.8,1-1.9,1.6-3.1,1.7l-63.3,6.3L220.1,329.8z"/>
<path class="st2" d="M220.1,345.6c-1.2,0-2.4-0.4-3.4-1.2c-0.9-0.8-1.5-2-1.5-3.2c-0.1-1.2,0.4-2.5,1.2-3.4c0.8-0.9,2-1.5,3.2-1.6
	l63.3-6.3c1.2-0.1,2.5,0.3,3.4,1.1c1,0.8,1.6,1.9,1.7,3.2c0.1,1.2-0.2,2.5-1,3.4c-0.8,1-1.9,1.6-3.1,1.7l-63.3,6.3L220.1,345.6z"/>
<path class="st2" d="M263.2,221.8c-0.5,0-1.1-0.2-1.5-0.5c-0.4-0.3-0.7-0.8-0.8-1.4c-0.1-0.5,0-1.1,0.2-1.6c0.3-0.5,0.7-0.9,1.2-1.1
	c4.1-1.4,8.4-1.7,12.6-0.7c0.6,0.2,1.1,0.6,1.4,1.1c0.3,0.6,0.4,1.2,0.2,1.8c-0.2,0.6-0.6,1.1-1.1,1.4c-0.6,0.3-1.2,0.4-1.8,0.2
	c-3.2-0.7-6.4-0.5-9.5,0.5C263.8,221.8,263.5,221.8,263.2,221.8L263.2,221.8z"/>
<path class="st2" d="M268.2,218.1c5.2,0,9.5-4.2,9.5-9.5c0-5.2-4.2-9.5-9.5-9.5s-9.5,4.2-9.5,9.5
	C258.7,213.8,262.9,218.1,268.2,218.1z"/>
<path class="st3" d="M270.5,210.8c1.3,0,2.4-1.1,2.4-2.4c0-1.3-1.1-2.4-2.4-2.4s-2.4,1.1-2.4,2.4
	C268.2,209.8,269.2,210.8,270.5,210.8z"/>
<path class="st2" d="M231.6,223.5c-0.6,0-1.1-0.2-1.5-0.5c-0.4-0.3-0.7-0.8-0.8-1.4c-0.1-0.5,0-1.1,0.2-1.6s0.7-0.9,1.2-1.1
	c4-1.4,8.4-1.7,12.6-0.7c0.6,0.2,1,0.6,1.3,1.1c0.3,0.5,0.3,1.1,0.2,1.7c-0.2,0.6-0.5,1.1-1,1.4s-1.1,0.4-1.7,0.3
	c-3.2-0.7-6.5-0.5-9.5,0.5C232.3,223.4,231.9,223.5,231.6,223.5L231.6,223.5z"/>
<path class="st2" d="M236.6,219.7c5.2,0,9.5-4.2,9.5-9.5c0-5.2-4.2-9.5-9.5-9.5c-5.2,0-9.5,4.2-9.5,9.5
	C227.1,215.5,231.4,219.7,236.6,219.7z"/>
<path class="st3" d="M239,212.5c1.3,0,2.4-1.1,2.4-2.4s-1.1-2.4-2.4-2.4c-1.3,0-2.4,1.1-2.4,2.4S237.7,212.5,239,212.5z"/>
<path class="st2" d="M261.4,187c1.3-0.9,2.9-1.6,4.4-2c1.6-0.4,3.2-0.5,4.8-0.4c1.7,0.1,3.4,0.5,4.9,1.3c1.6,0.7,3,1.8,4,3.3
	c0.4,0.6,0.6,1.3,0.5,2c-0.1,0.7-0.5,1.3-1.1,1.8c-0.5,0.4-1.2,0.6-1.9,0.5l-0.6-0.1c-1.3-0.2-2.2-0.4-3.3-0.5
	c-1.1-0.1-2-0.3-3.1-0.4l-3.4-0.2c-1.2,0-2.4-0.1-3.6-0.2l-0.7-0.1c-0.3-0.1-0.7-0.2-1-0.4c-0.3-0.2-0.6-0.4-0.8-0.7
	c-0.2-0.3-0.4-0.6-0.4-1c-0.1-0.3-0.1-0.7,0-1c0.1-0.4,0.2-0.7,0.4-1C260.9,187.5,261.1,187.2,261.4,187L261.4,187z"/>
<path class="st2" d="M239.8,193.2c-1.2,0.3-2.3,0.5-3.5,0.6l-3.3,0.6c-1.1,0.2-2,0.5-3.1,0.7c-1,0.2-2,0.6-3.2,0.8l-0.6,0.1
	c-0.5,0.1-1.1,0.1-1.6-0.1c-0.5-0.2-0.9-0.5-1.2-0.9s-0.5-0.9-0.5-1.5s0.1-1.1,0.4-1.5c0.9-1.5,2.1-2.8,3.6-3.7
	c1.5-0.9,3.1-1.5,4.8-1.8c1.6-0.3,3.2-0.3,4.9-0.1c1.6,0.2,3.2,0.7,4.6,1.5c0.5,0.3,0.8,0.7,1.1,1.1c0.2,0.5,0.3,1,0.3,1.5
	c-0.1,0.5-0.3,1-0.6,1.4c-0.3,0.4-0.8,0.7-1.3,0.8L239.8,193.2z"/>
<path class="st2" d="M253.5,252.7c-5.5,0-10.7-2.1-14.7-5.9c-4-3.8-6.3-8.9-6.6-14.4c0-0.3,0-0.6,0.1-0.9c0.1-0.3,0.3-0.6,0.5-0.8
	c0.2-0.2,0.5-0.4,0.7-0.6c0.3-0.1,0.6-0.2,0.9-0.2l38-2c0.6,0,1.2,0.2,1.6,0.6c0.5,0.4,0.7,1,0.8,1.6c0.3,5.6-1.7,11.2-5.5,15.4
	c-3.8,4.2-9.1,6.7-14.7,7L253.5,252.7L253.5,252.7z"/>
<path class="st2" d="M272.5,230.4c0.1,2.5-0.2,5-1.1,7.3c-0.8,2.3-2.1,4.5-3.8,6.4c-1.7,1.9-3.7,3.4-5.9,4.4
	c-2.2,1.1-4.7,1.7-7.2,1.8h-1c-4.9,0-9.5-1.9-13.1-5.2c-3.5-3.3-5.6-7.9-5.9-12.8L272.5,230.4L272.5,230.4z M272.5,225.6h-0.2
	l-37.9,2c-0.6,0-1.2,0.2-1.8,0.5c-0.6,0.3-1.1,0.6-1.5,1.1c-0.4,0.5-0.7,1-0.9,1.6c-0.2,0.6-0.3,1.2-0.3,1.8
	c0.3,6.1,2.9,11.8,7.3,16c4.4,4.2,10.3,6.5,16.3,6.5c0.4,0,0.8,0,1.3,0c3.1-0.2,6.2-0.9,9-2.3c2.8-1.3,5.3-3.2,7.4-5.6s3.7-5,4.7-8
	c1-2.9,1.5-6.1,1.3-9.2c-0.1-1.2-0.6-2.4-1.5-3.2C274.9,226.1,273.7,225.6,272.5,225.6L272.5,225.6z"/>
<path class="st7" d="M254.5,250.3c7.8-0.4,13.9-3.6,13.8-7.1c-0.2-3.5-6.6-6-14.4-5.6c-7.8,0.4-13.9,3.6-13.8,7.1
	C240.3,248.2,246.7,250.7,254.5,250.3z"/>
</svg>
