<?xml version="1.0" encoding="utf-8"?>
<!-- Generator: Adobe Illustrator 26.0.2, SVG Export Plug-In . SVG Version: 6.00 Build 0)  -->
<svg version="1.1" id="Facebook_x5F_Hub-Faceboook_x5F_Retargeting"
	 xmlns="http://www.w3.org/2000/svg" xmlns:xlink="http://www.w3.org/1999/xlink" x="0px" y="0px" viewBox="0 0 400 400"
	 style="enable-background:new 0 0 400 400;" xml:space="preserve">
<style type="text/css">
	.st0{fill:#515979;}
	.st1{fill:#1877F2;}
	.st2{fill:#EEEBFF;}
	.st3{fill:#C7BCFF;}
	.st4{fill:#AAA0FF;}
	.st5{fill:#667683;}
	.st6{fill:#FFFFFF;}
	.st7{fill:#EF7D7D;}
	.st8{fill:#FFE8A0;}
	.st9{fill:#7DDF96;}
	.st10{clip-path:url(#SVGID_00000064312785793989607490000016786063192212162982_);}
	.st11{fill:#FFD886;}
	.st12{fill:#D8EBFB;}
	.st13{fill:#FFC8BE;}
	.st14{fill:#FDE4DD;}
	.st15{fill:none;}
</style>
<g>
	<path class="st0" d="M194.73,333.02c-0.01,0-0.02,0-0.03,0c-1.68-0.03-3.38-0.1-5.06-0.21c-0.83-0.05-1.46-0.76-1.4-1.59
		s0.76-1.45,1.59-1.4c1.63,0.1,3.29,0.17,4.93,0.2c0.83,0.02,1.49,0.7,1.47,1.53C196.22,332.37,195.55,333.02,194.73,333.02z
		 M203.73,332.85c-0.79,0-1.45-0.62-1.5-1.41c-0.05-0.83,0.58-1.54,1.41-1.58c1.63-0.09,3.29-0.23,4.92-0.39
		c0.83-0.08,1.56,0.52,1.64,1.34c0.08,0.82-0.52,1.56-1.34,1.64c-1.67,0.17-3.37,0.31-5.05,0.4
		C203.79,332.84,203.76,332.85,203.73,332.85z M180.79,331.9c-0.07,0-0.14,0-0.21-0.01c-1.66-0.24-3.34-0.51-5-0.82
		c-0.81-0.15-1.35-0.94-1.2-1.75c0.15-0.82,0.94-1.35,1.75-1.2c1.61,0.3,3.25,0.57,4.87,0.8c0.82,0.12,1.39,0.88,1.27,1.7
		C182.17,331.36,181.53,331.9,180.79,331.9z M217.61,331.19c-0.71,0-1.34-0.51-1.47-1.23c-0.15-0.82,0.39-1.6,1.21-1.74
		c1.6-0.29,3.22-0.62,4.83-0.99c0.8-0.18,1.61,0.32,1.8,1.13c0.18,0.81-0.32,1.61-1.13,1.8c-1.65,0.38-3.32,0.72-4.96,1.01
		C217.79,331.18,217.7,331.19,217.61,331.19z M167.09,329.09c-0.13,0-0.26-0.02-0.39-0.05c-1.64-0.44-3.27-0.92-4.86-1.43
		c-0.79-0.25-1.23-1.09-0.97-1.88c0.25-0.79,1.1-1.23,1.88-0.97c1.55,0.49,3.14,0.96,4.73,1.39c0.8,0.22,1.27,1.04,1.06,1.84
		C168.36,328.65,167.75,329.09,167.09,329.09z M231.19,327.84c-0.64,0-1.23-0.41-1.43-1.05c-0.25-0.79,0.19-1.63,0.98-1.88
		c1.57-0.49,3.14-1.02,4.67-1.58c0.78-0.29,1.64,0.12,1.92,0.9c0.28,0.78-0.12,1.64-0.9,1.92c-1.57,0.57-3.19,1.11-4.8,1.62
		C231.49,327.82,231.34,327.84,231.19,327.84z M153.83,324.61c-0.19,0-0.38-0.04-0.57-0.11c-1.55-0.63-3.12-1.31-4.65-2.02
		c-0.75-0.35-1.08-1.24-0.74-1.99s1.24-1.08,1.99-0.74c1.5,0.69,3.02,1.35,4.53,1.97c0.77,0.31,1.14,1.19,0.82,1.96
		C154.98,324.26,154.42,324.61,153.83,324.61z M244.25,322.85c-0.57,0-1.12-0.33-1.37-0.88c-0.34-0.75-0.01-1.64,0.74-1.99
		c1.5-0.68,2.99-1.4,4.44-2.13c0.74-0.38,1.64-0.08,2.02,0.66c0.38,0.74,0.08,1.64-0.66,2.02c-1.49,0.76-3.02,1.49-4.55,2.19
		C244.67,322.81,244.46,322.85,244.25,322.85z M141.21,318.54c-0.25,0-0.5-0.06-0.73-0.19c-1.47-0.82-2.94-1.69-4.37-2.57
		c-0.7-0.44-0.92-1.36-0.49-2.06c0.44-0.71,1.36-0.92,2.06-0.49c1.39,0.86,2.82,1.71,4.26,2.51c0.72,0.4,0.98,1.32,0.58,2.04
		C142.25,318.26,141.74,318.54,141.21,318.54z M256.6,316.3c-0.5,0-1-0.25-1.28-0.72c-0.43-0.71-0.21-1.63,0.5-2.06
		c1.39-0.85,2.79-1.75,4.15-2.66c0.69-0.46,1.62-0.28,2.08,0.41c0.46,0.69,0.28,1.62-0.41,2.08c-1.4,0.94-2.83,1.86-4.26,2.73
		C257.13,316.23,256.87,316.3,256.6,316.3z M129.44,310.96c-0.31,0-0.62-0.09-0.89-0.29c-1.36-1-2.71-2.03-4.02-3.08
		c-0.65-0.52-0.75-1.46-0.23-2.11c0.52-0.65,1.46-0.75,2.11-0.23c1.28,1.02,2.6,2.04,3.92,3c0.67,0.49,0.81,1.43,0.32,2.1
		C130.36,310.75,129.9,310.96,129.44,310.96z M268.06,308.3c-0.44,0-0.88-0.19-1.18-0.57c-0.51-0.65-0.41-1.59,0.24-2.11
		c1.29-1.02,2.57-2.08,3.79-3.15c0.62-0.54,1.58-0.48,2.12,0.15c0.54,0.63,0.48,1.57-0.15,2.12c-1.26,1.09-2.57,2.18-3.89,3.23
		C268.71,308.19,268.38,308.3,268.06,308.3z M118.68,302.02c-0.37,0-0.74-0.13-1.03-0.41c-1.22-1.15-2.44-2.34-3.61-3.55
		c-0.58-0.59-0.57-1.54,0.03-2.12c0.59-0.58,1.54-0.57,2.12,0.03c1.15,1.17,2.33,2.34,3.52,3.46c0.6,0.57,0.63,1.52,0.07,2.12
		C119.48,301.86,119.08,302.02,118.68,302.02z M278.46,298.95c-0.38,0-0.76-0.14-1.05-0.43c-0.59-0.58-0.6-1.53-0.02-2.12
		c1.15-1.17,2.29-2.37,3.39-3.59c0.56-0.61,1.5-0.66,2.12-0.11c0.61,0.56,0.66,1.5,0.11,2.12c-1.13,1.25-2.3,2.49-3.48,3.68
		C279.24,298.8,278.85,298.95,278.46,298.95z M109.09,291.84c-0.43,0-0.86-0.18-1.15-0.54c-1.07-1.29-2.13-2.62-3.15-3.96
		c-0.5-0.66-0.38-1.6,0.28-2.1c0.66-0.5,1.6-0.38,2.1,0.28c0.99,1.3,2.03,2.6,3.07,3.86c0.53,0.64,0.44,1.58-0.19,2.11
		C109.77,291.72,109.43,291.84,109.09,291.84z M287.66,288.41c-0.32,0-0.64-0.1-0.91-0.31c-0.66-0.5-0.78-1.45-0.27-2.1
		c1.01-1.31,1.99-2.65,2.93-3.98c0.48-0.68,1.41-0.84,2.09-0.36c0.68,0.48,0.84,1.41,0.36,2.09c-0.96,1.36-1.97,2.73-3,4.08
		C288.55,288.21,288.11,288.41,287.66,288.41z M100.81,280.57c-0.49,0-0.98-0.24-1.26-0.69c-0.91-1.42-1.8-2.87-2.65-4.31
		c-0.42-0.71-0.18-1.63,0.54-2.05c0.72-0.42,1.63-0.18,2.05,0.54c0.82,1.4,1.69,2.82,2.58,4.2c0.45,0.7,0.25,1.62-0.45,2.07
		C101.37,280.49,101.09,280.57,100.81,280.57z M295.5,276.82c-0.26,0-0.52-0.07-0.76-0.21c-0.71-0.42-0.95-1.34-0.53-2.05
		c0.84-1.42,1.65-2.87,2.42-4.31c0.39-0.73,1.3-1,2.03-0.62c0.73,0.39,1.01,1.3,0.62,2.03c-0.79,1.47-1.62,2.96-2.49,4.42
		C296.52,276.56,296.02,276.82,295.5,276.82z M93.97,268.38c-0.56,0-1.09-0.31-1.35-0.85c-0.73-1.51-1.44-3.06-2.1-4.6
		c-0.33-0.76,0.02-1.64,0.79-1.97c0.76-0.33,1.64,0.03,1.97,0.79c0.64,1.5,1.33,3,2.04,4.48c0.36,0.75,0.05,1.64-0.7,2
		C94.41,268.33,94.19,268.38,93.97,268.38z M301.88,264.35c-0.2,0-0.4-0.04-0.6-0.12c-0.76-0.33-1.11-1.22-0.77-1.98
		c0.65-1.5,1.29-3.04,1.88-4.57c0.3-0.77,1.17-1.16,1.94-0.86c0.77,0.3,1.16,1.17,0.86,1.94c-0.61,1.58-1.26,3.16-1.93,4.7
		C303.01,264.02,302.46,264.35,301.88,264.35z M88.67,255.46c-0.62,0-1.21-0.39-1.42-1.02c-0.54-1.59-1.05-3.22-1.52-4.83
		c-0.23-0.79,0.23-1.63,1.02-1.86c0.8-0.23,1.63,0.23,1.86,1.02c0.46,1.57,0.96,3.15,1.48,4.7c0.27,0.79-0.15,1.64-0.94,1.9
		C89,255.43,88.83,255.46,88.67,255.46z M306.68,251.2c-0.14,0-0.28-0.02-0.43-0.06c-0.79-0.24-1.25-1.07-1.01-1.86
		c0.47-1.58,0.9-3.18,1.3-4.76c0.2-0.8,1.01-1.29,1.82-1.09c0.8,0.2,1.29,1.01,1.09,1.82c-0.4,1.62-0.85,3.26-1.33,4.89
		C307.92,250.78,307.33,251.2,306.68,251.2z M85,241.96c-0.7,0-1.32-0.49-1.47-1.2c-0.34-1.64-0.65-3.32-0.92-4.98
		c-0.13-0.82,0.42-1.59,1.24-1.72c0.82-0.14,1.59,0.42,1.72,1.24c0.26,1.62,0.56,3.25,0.89,4.85c0.17,0.81-0.35,1.6-1.17,1.77
		C85.2,241.95,85.1,241.96,85,241.96z M309.82,237.57c-0.08,0-0.17-0.01-0.25-0.02c-0.82-0.14-1.37-0.91-1.23-1.73
		c0.27-1.61,0.5-3.25,0.7-4.88c0.1-0.82,0.85-1.4,1.67-1.31c0.82,0.1,1.41,0.85,1.31,1.67c-0.2,1.68-0.45,3.36-0.72,5.01
		C311.17,237.05,310.54,237.57,309.82,237.57z M83.01,228.12c-0.77,0-1.43-0.59-1.49-1.38c-0.14-1.67-0.24-3.38-0.3-5.05
		c-0.03-0.83,0.61-1.52,1.44-1.56c0.82-0.05,1.52,0.61,1.56,1.44c0.06,1.64,0.16,3.29,0.3,4.92c0.07,0.83-0.55,1.55-1.37,1.62
		C83.09,228.12,83.05,228.12,83.01,228.12z M311.27,223.66c-0.02,0-0.04,0-0.07,0c-0.83-0.04-1.47-0.74-1.43-1.56
		c0.07-1.63,0.11-3.29,0.11-4.93c0-1.6-0.03-3.24-0.1-4.85c-0.04-0.83,0.61-1.53,1.44-1.56c0.81-0.05,1.53,0.61,1.56,1.44
		c0.07,1.66,0.11,3.33,0.1,4.98c0,1.68-0.04,3.38-0.11,5.06C312.73,223.03,312.06,223.66,311.27,223.66z M82.72,214.13
		c-0.02,0-0.04,0-0.06,0c-0.83-0.03-1.47-0.73-1.44-1.56c0.07-1.68,0.17-3.38,0.31-5.05c0.07-0.83,0.78-1.43,1.62-1.37
		c0.83,0.07,1.44,0.79,1.37,1.62c-0.13,1.63-0.23,3.28-0.3,4.92C84.18,213.5,83.52,214.13,82.72,214.13z M310.54,204.79
		c-0.75,0-1.4-0.56-1.49-1.32c-0.2-1.62-0.43-3.27-0.7-4.88c-0.14-0.82,0.42-1.59,1.23-1.73c0.81-0.13,1.59,0.42,1.72,1.23
		c0.28,1.66,0.52,3.35,0.72,5.01c0.1,0.82-0.49,1.57-1.31,1.67C310.66,204.79,310.6,204.79,310.54,204.79z M84.11,200.22
		c-0.08,0-0.16-0.01-0.24-0.02c-0.82-0.13-1.37-0.9-1.24-1.72c0.27-1.66,0.58-3.33,0.92-4.98c0.17-0.81,0.96-1.34,1.77-1.16
		c0.81,0.17,1.33,0.96,1.16,1.77c-0.33,1.61-0.63,3.24-0.9,4.85C85.47,199.69,84.83,200.22,84.11,200.22z M308.01,191.04
		c-0.67,0-1.29-0.46-1.46-1.14c-0.4-1.59-0.83-3.2-1.29-4.76c-0.23-0.79,0.22-1.63,1.01-1.86c0.79-0.23,1.63,0.22,1.86,1.01
		c0.47,1.61,0.92,3.25,1.33,4.89c0.2,0.8-0.29,1.62-1.09,1.82C308.25,191.02,308.13,191.04,308.01,191.04z M87.19,186.58
		c-0.14,0-0.28-0.02-0.42-0.06c-0.8-0.23-1.25-1.06-1.02-1.86c0.47-1.62,0.98-3.24,1.53-4.83c0.27-0.78,1.12-1.21,1.9-0.94
		c0.78,0.27,1.2,1.12,0.94,1.9c-0.53,1.55-1.03,3.13-1.49,4.7C88.44,186.15,87.84,186.58,87.19,186.58z M303.81,177.69
		c-0.6,0-1.17-0.37-1.4-0.96c-0.58-1.51-1.21-3.05-1.86-4.55c-0.33-0.76,0.02-1.64,0.78-1.97c0.76-0.33,1.64,0.02,1.97,0.78
		c0.67,1.55,1.32,3.12,1.91,4.68c0.3,0.77-0.09,1.64-0.86,1.94C304.17,177.66,303.99,177.69,303.81,177.69z M91.93,173.41
		c-0.2,0-0.4-0.04-0.59-0.12c-0.76-0.33-1.11-1.21-0.78-1.97c0.67-1.55,1.38-3.1,2.11-4.61c0.36-0.75,1.26-1.06,2-0.7
		c0.75,0.36,1.06,1.26,0.7,2c-0.71,1.47-1.4,2.98-2.06,4.49C93.07,173.07,92.51,173.41,91.93,173.41z M298.02,164.98
		c-0.54,0-1.06-0.29-1.33-0.8c-0.76-1.44-1.57-2.88-2.41-4.29c-0.42-0.71-0.18-1.63,0.53-2.05c0.71-0.42,1.63-0.18,2.05,0.53
		c0.86,1.45,1.69,2.94,2.47,4.41c0.39,0.73,0.11,1.64-0.62,2.03C298.5,164.93,298.25,164.98,298.02,164.98z M98.26,160.92
		c-0.26,0-0.52-0.07-0.76-0.21c-0.71-0.42-0.95-1.34-0.54-2.05c0.85-1.45,1.74-2.9,2.66-4.32c0.45-0.7,1.38-0.9,2.07-0.45
		c0.7,0.45,0.9,1.38,0.45,2.07c-0.89,1.38-1.76,2.79-2.59,4.2C99.27,160.65,98.77,160.92,98.26,160.92z M290.71,153.07
		c-0.47,0-0.94-0.22-1.23-0.64c-0.94-1.35-1.93-2.68-2.92-3.97c-0.5-0.66-0.38-1.6,0.28-2.1c0.66-0.5,1.6-0.38,2.1,0.28
		c1.02,1.33,2.03,2.7,2.99,4.08c0.48,0.68,0.31,1.61-0.37,2.09C291.3,152.98,291,153.07,290.71,153.07z M106.06,149.3
		c-0.32,0-0.64-0.1-0.91-0.31c-0.66-0.5-0.78-1.44-0.28-2.1c1.02-1.33,2.08-2.67,3.16-3.96c0.53-0.64,1.48-0.72,2.11-0.19
		c0.64,0.53,0.72,1.48,0.19,2.11c-1.05,1.26-2.09,2.56-3.08,3.86C106.96,149.09,106.51,149.3,106.06,149.3z M281.99,142.13
		c-0.41,0-0.82-0.17-1.11-0.5c-1.1-1.22-2.24-2.43-3.38-3.59c-0.58-0.59-0.57-1.54,0.02-2.12c0.59-0.58,1.54-0.57,2.12,0.02
		c1.17,1.19,2.34,2.44,3.47,3.69c0.55,0.62,0.5,1.56-0.11,2.12C282.71,142.01,282.35,142.13,281.99,142.13z M272.01,132.33
		c-0.35,0-0.7-0.12-0.98-0.37c-1.24-1.08-2.51-2.14-3.79-3.16c-0.65-0.52-0.75-1.46-0.24-2.11c0.52-0.65,1.46-0.76,2.11-0.24
		c1.31,1.05,2.62,2.14,3.89,3.24c0.62,0.54,0.69,1.49,0.15,2.12C272.85,132.16,272.43,132.33,272.01,132.33z M260.92,123.81
		c-0.29,0-0.58-0.08-0.84-0.26c-1.37-0.92-2.76-1.82-4.15-2.67c-0.71-0.43-0.93-1.36-0.49-2.06s1.36-0.93,2.06-0.49
		c1.43,0.88,2.86,1.8,4.26,2.74c0.69,0.46,0.87,1.4,0.4,2.08C261.87,123.58,261.4,123.81,260.92,123.81z"/>
</g>
<g>
	<path class="st1" d="M175.93,10.14c-44.18,0-80,35.82-80,80c0,39.93,29.25,73.03,67.5,79.03l0-55.9l-20.31,0l0-23.12l20.31,0
		l0-17.62c0-20.05,11.94-31.13,30.22-31.13c8.75,0,17.91,1.56,17.91,1.56v19.69l-10.09,0c-9.94,0-13.04,6.17-13.04,12.49l0,15.01
		l22.19,0l-3.55,23.13l-18.64,0l0,55.9c38.25-6,67.5-39.1,67.5-79.03C255.93,45.95,220.11,10.14,175.93,10.14z"/>
</g>
<g>
	<g>
		<g>
			<path class="st2" d="M235.93,390.35c-7.17,0-13-5.83-13-13v-198c0-7.17,5.83-13,13-13h134c7.17,0,13,5.83,13,13v198
				c0,7.17-5.83,13-13,13H235.93z"/>
		</g>
		<g>
			<path class="st0" d="M369.93,169.35c5.52,0,10,4.48,10,10v198c0,5.52-4.48,10-10,10h-134c-5.52,0-10-4.48-10-10v-198
				c0-5.52,4.48-10,10-10H369.93 M369.93,163.35h-134c-8.82,0-16,7.18-16,16v198c0,8.82,7.18,16,16,16h134c8.82,0,16-7.18,16-16
				v-198C385.93,170.53,378.75,163.35,369.93,163.35L369.93,163.35z"/>
		</g>
	</g>
	<g>
		<rect x="225.93" y="261.35" class="st3" width="154" height="78"/>
	</g>
	<g>
		<rect x="225.93" y="261.35" class="st4" width="154" height="4"/>
	</g>
	<g>
		<path class="st4" d="M271.93,317.35h-32c-1.1,0-2-0.9-2-2l0,0c0-1.1,0.9-2,2-2h32c1.1,0,2,0.9,2,2l0,0
			C273.93,316.45,273.03,317.35,271.93,317.35z"/>
	</g>
	<g>
		<path class="st4" d="M271.93,325.35h-32c-1.1,0-2-0.9-2-2l0,0c0-1.1,0.9-2,2-2h32c1.1,0,2,0.9,2,2l0,0
			C273.93,324.45,273.03,325.35,271.93,325.35z"/>
	</g>
	<g>
		<path class="st4" d="M259.93,333.35h-20c-1.1,0-2-0.9-2-2l0,0c0-1.1,0.9-2,2-2h20c1.1,0,2,0.9,2,2l0,0
			C261.93,332.45,261.03,333.35,259.93,333.35z"/>
	</g>
	<g>
		<path class="st4" d="M318.93,317.35h-32c-1.1,0-2-0.9-2-2l0,0c0-1.1,0.9-2,2-2h32c1.1,0,2,0.9,2,2l0,0
			C320.93,316.45,320.03,317.35,318.93,317.35z"/>
	</g>
	<g>
		<path class="st4" d="M318.93,325.35h-32c-1.1,0-2-0.9-2-2l0,0c0-1.1,0.9-2,2-2h32c1.1,0,2,0.9,2,2l0,0
			C320.93,324.45,320.03,325.35,318.93,325.35z"/>
	</g>
	<g>
		<path class="st4" d="M306.93,333.35h-20c-1.1,0-2-0.9-2-2l0,0c0-1.1,0.9-2,2-2h20c1.1,0,2,0.9,2,2l0,0
			C308.93,332.45,308.03,333.35,306.93,333.35z"/>
	</g>
	<g>
		<path class="st4" d="M365.93,317.35h-32c-1.1,0-2-0.9-2-2l0,0c0-1.1,0.9-2,2-2h32c1.1,0,2,0.9,2,2l0,0
			C367.93,316.45,367.03,317.35,365.93,317.35z"/>
	</g>
	<g>
		<path class="st4" d="M365.93,325.35h-32c-1.1,0-2-0.9-2-2l0,0c0-1.1,0.9-2,2-2h32c1.1,0,2,0.9,2,2l0,0
			C367.93,324.45,367.03,325.35,365.93,325.35z"/>
	</g>
	<g>
		<path class="st4" d="M353.93,333.35h-20c-1.1,0-2-0.9-2-2l0,0c0-1.1,0.9-2,2-2h20c1.1,0,2,0.9,2,2l0,0
			C355.93,332.45,355.03,333.35,353.93,333.35z"/>
	</g>
	<g>
		<g>
			<path class="st3" d="M353.93,369.35h-60c-1.1,0-2-0.9-2-2l0,0c0-1.1,0.9-2,2-2h60c1.1,0,2,0.9,2,2l0,0
				C355.93,368.45,355.03,369.35,353.93,369.35z"/>
		</g>
		<g>
			<path class="st3" d="M365.93,360.35h-72c-1.1,0-2-0.9-2-2l0,0c0-1.1,0.9-2,2-2h72c1.1,0,2,0.9,2,2l0,0
				C367.93,359.45,367.03,360.35,365.93,360.35z"/>
		</g>
		<g>
			<path class="st3" d="M341.93,378.35h-48c-1.1,0-2-0.9-2-2l0,0c0-1.1,0.9-2,2-2h48c1.1,0,2,0.9,2,2l0,0
				C343.93,377.45,343.03,378.35,341.93,378.35z"/>
		</g>
	</g>
	<g>
		<g>
			<path class="st5" d="M225.93,200.35c-1.66,0-3-1.34-3-3v-18c0-7.17,5.83-13,13-13h134c7.17,0,13,5.83,13,13v18c0,1.66-1.34,3-3,3
				H225.93z"/>
		</g>
		<g>
			<path class="st0" d="M369.93,169.35c5.52,0,10,4.48,10,10v18h-154v-18c0-5.52,4.48-10,10-10H369.93 M369.93,163.35h-134
				c-8.82,0-16,7.18-16,16v18c0,3.31,2.69,6,6,6h154c3.31,0,6-2.69,6-6v-18C385.93,170.53,378.75,163.35,369.93,163.35
				L369.93,163.35z"/>
		</g>
	</g>
	<g>
		<g>
			<path class="st6" d="M306.93,188.35c-3.31,0-6-2.69-6-6s2.69-6,6-6h58c3.31,0,6,2.69,6,6s-2.69,6-6,6H306.93z"/>
		</g>
		<g>
			<g>
				<path class="st0" d="M364.93,179.35c1.66,0,3,1.34,3,3s-1.34,3-3,3h-58c-1.66,0-3-1.34-3-3s1.34-3,3-3H364.93 M364.93,173.35
					h-58c-4.96,0-9,4.04-9,9s4.04,9,9,9h58c4.96,0,9-4.04,9-9S369.89,173.35,364.93,173.35L364.93,173.35z"/>
			</g>
		</g>
	</g>
	<g>
		<g>
			<circle class="st7" cx="240.93" cy="182.35" r="6"/>
		</g>
		<g>
			<g>
				<path class="st0" d="M240.93,179.35c1.66,0,3,1.34,3,3s-1.34,3-3,3s-3-1.34-3-3S239.27,179.35,240.93,179.35 M240.93,173.35
					c-4.96,0-9,4.04-9,9s4.04,9,9,9s9-4.04,9-9S245.89,173.35,240.93,173.35L240.93,173.35z"/>
			</g>
		</g>
	</g>
	<g>
		<g>
			<circle class="st8" cx="261.93" cy="182.35" r="6"/>
		</g>
		<g>
			<g>
				<path class="st0" d="M261.93,179.35c1.66,0,3,1.34,3,3s-1.34,3-3,3c-1.66,0-3-1.34-3-3S260.27,179.35,261.93,179.35
					 M261.93,173.35c-4.96,0-9,4.04-9,9s4.04,9,9,9s9-4.04,9-9S266.89,173.35,261.93,173.35L261.93,173.35z"/>
			</g>
		</g>
	</g>
	<g>
		<g>
			<circle class="st9" cx="282.93" cy="182.35" r="6"/>
		</g>
		<g>
			<g>
				<path class="st0" d="M282.93,179.35c1.66,0,3,1.34,3,3s-1.34,3-3,3s-3-1.34-3-3S281.27,179.35,282.93,179.35 M282.93,173.35
					c-4.96,0-9,4.04-9,9s4.04,9,9,9s9-4.04,9-9S287.89,173.35,282.93,173.35L282.93,173.35z"/>
			</g>
		</g>
	</g>
	<g>
		<g>
			<g>
				<circle class="st4" cx="332.93" cy="231.35" r="2"/>
			</g>
			<g>
				<circle class="st4" cx="328.93" cy="239.35" r="2"/>
			</g>
			<g>
				<circle class="st4" cx="336.93" cy="239.35" r="2"/>
			</g>
		</g>
		<g>
			<g>
				<circle class="st4" cx="272.93" cy="231.35" r="2"/>
			</g>
			<g>
				<circle class="st4" cx="268.93" cy="239.35" r="2"/>
			</g>
			<g>
				<circle class="st4" cx="276.93" cy="239.35" r="2"/>
			</g>
		</g>
	</g>
	<g>
		<circle class="st2" cx="255.93" cy="289.35" r="18"/>
	</g>
	<g>
		<path class="st3" d="M285.93,369.35c0-13.25-10.75-24-24-24s-24,10.75-24,24c0,7.17,3.15,13.6,8.13,18h31.73
			C282.78,382.95,285.93,376.52,285.93,369.35z"/>
	</g>
	<g>
		<circle class="st2" cx="302.93" cy="289.35" r="18"/>
	</g>
	<g>
		<circle class="st2" cx="349.93" cy="289.35" r="18"/>
	</g>
	<g>
		<g>
			<g>
				<g>
					<g>
						<path class="st0" d="M318.45,229.17c-1.1,0-2-0.9-2-2c0-1.65-1.35-3-3-3s-3,1.35-3,3c0,1.1-0.9,2-2,2s-2-0.9-2-2
							c0-3.86,3.14-7,7-7s7,3.14,7,7C320.45,228.27,319.56,229.17,318.45,229.17z"/>
					</g>
				</g>
				<g>
					<path class="st0" d="M311.02,213.23c3.57-2.19,8.99-1.73,11.44,1.9c0.84,1.2-0.31,2.92-1.73,2.64
						c-1.57-0.27-2.86-0.63-4.4-0.83c-1.46-0.21-3.36-0.28-4.78-0.61C310.1,216.06,309.76,213.96,311.02,213.23L311.02,213.23z"/>
				</g>
			</g>
			<g>
				<g>
					<g>
						<path class="st0" d="M297.4,229.17c-1.1,0-2-0.9-2-2c0-1.65-1.35-3-3-3s-3,1.35-3,3c0,1.1-0.9,2-2,2s-2-0.9-2-2
							c0-3.86,3.14-7,7-7s7,3.14,7,7C299.4,228.27,298.51,229.17,297.4,229.17z"/>
					</g>
				</g>
				<g>
					<path class="st0" d="M293.87,216.42c-2,0.33-4.34,0.42-6.31,0.85c-1.48,0.25-3.92,1.35-4.42-0.92
						c-0.07-0.44,0.03-0.87,0.25-1.22c1.78-2.76,5.51-3.65,8.57-3.02c1.01,0.21,1.9,0.51,2.88,1.12
						C296.32,214.23,295.59,216.3,293.87,216.42L293.87,216.42z"/>
				</g>
			</g>
		</g>
		<g>
			<path class="st0" d="M303.21,239.4c-4.22,0-8.55-1.08-12.29-3.25c-0.96-0.55-1.28-1.78-0.73-2.73c0.55-0.96,1.77-1.28,2.73-0.73
				c6.17,3.58,14.54,3.59,19.89,0.03c0.92-0.61,2.16-0.36,2.77,0.56c0.61,0.92,0.36,2.16-0.56,2.77
				C311.68,238.28,307.5,239.4,303.21,239.4z"/>
		</g>
		<g>
			<path class="st0" d="M299.18,242.87c2.48,0.43,5.02,0.44,7.48,0c1.37-0.27,2.22,1.56,1.15,2.43c0,0-0.62,0.52-0.62,0.52
				c-2.42,1.86-6.09,1.84-8.52,0c0,0-0.62-0.52-0.62-0.52C296.96,244.43,297.83,242.6,299.18,242.87L299.18,242.87z"/>
		</g>
	</g>
</g>
<g>
	<g>
		<g>
			<circle class="st9" cx="90.6" cy="311.35" r="70"/>
			<path class="st0" d="M90.6,384.35c-40.25,0-73-32.75-73-73s32.75-73,73-73s73,32.75,73,73S130.86,384.35,90.6,384.35z
				 M90.6,244.35c-36.94,0-67,30.06-67,67s30.06,67,67,67s67-30.06,67-67S127.55,244.35,90.6,244.35z"/>
		</g>
		<g>
			<defs>
				<path id="SVGID_1_" d="M20.6,181.35v130c0,38.66,31.34,70,70,70s70-31.34,70-70v-130H20.6z"/>
			</defs>
			<clipPath id="SVGID_00000177463057252846902170000001078590921835094441_">
				<use xlink:href="#SVGID_1_"  style="overflow:visible;"/>
			</clipPath>
			<g style="clip-path:url(#SVGID_00000177463057252846902170000001078590921835094441_);">
				<g>
					<g>
						<g>
							<path class="st11" d="M40.6,327.04c-1.66,0-3-1.34-3-3v-70c0-29.22,23.78-53,53-53c29.22,0,53,23.78,53,53v70
								c0,1.66-1.34,3-3,3H40.6z"/>
						</g>
						<g>
							<path class="st0" d="M90.6,204.04c27.61,0,50,22.39,50,50v70h-100v-70C40.6,226.42,62.99,204.04,90.6,204.04L90.6,204.04
								 M90.6,198.04c-30.88,0-56,25.12-56,56v70c0,3.31,2.69,6,6,6h100c3.31,0,6-2.69,6-6v-70
								C146.6,223.16,121.48,198.04,90.6,198.04L90.6,198.04z"/>
						</g>
					</g>
					<g>
						<g>
							<circle class="st12" cx="90.6" cy="244.04" r="43"/>
						</g>
						<g>
							<path class="st0" d="M90.6,204.04c22.09,0,40,17.91,40,40s-17.91,40-40,40c-22.09,0-40-17.91-40-40S68.51,204.04,90.6,204.04
								 M90.6,198.04c-25.36,0-46,20.64-46,46s20.64,46,46,46s46-20.64,46-46S115.97,198.04,90.6,198.04L90.6,198.04z"/>
						</g>
					</g>
					<g>
						<g>
							<path class="st12" d="M20.6,419.04c-1.66,0-3-1.34-3-3v-32.64c0-18.88,12.1-35.36,30.11-41.02l41.99-13.2
								c0.29-0.09,0.6-0.14,0.9-0.14s0.61,0.05,0.9,0.14l41.99,13.2c18.01,5.66,30.11,22.14,30.11,41.02v32.64c0,1.66-1.34,3-3,3
								H20.6z"/>
						</g>
						<g>
							<g>
								<path class="st0" d="M90.6,332.04l41.99,13.2c16.67,5.24,28.01,20.69,28.01,38.16v32.64h-140v-32.64
									c0-17.47,11.34-32.92,28.01-38.16L90.6,332.04 M90.6,326.04c-0.61,0-1.21,0.09-1.8,0.28l-41.99,13.2
									c-19.26,6.05-32.21,23.69-32.21,43.88v32.64c0,3.31,2.69,6,6,6h140c3.31,0,6-2.69,6-6v-32.64
									c0-20.19-12.94-37.83-32.21-43.88l-41.99-13.2C91.82,326.13,91.21,326.04,90.6,326.04L90.6,326.04z"/>
							</g>
						</g>
					</g>
					<g>
						<g>
							<path class="st13" d="M50.6,284.84c-6.07,0-11-4.93-11-11v-1.6c0-6.07,4.93-11,11-11c1.66,0,3,1.34,3,3v17.6
								C53.6,283.49,52.26,284.84,50.6,284.84z"/>
						</g>
						<g>
							<g>
								<path class="st0" d="M50.6,264.24v17.6h0c-4.42,0-8-3.58-8-8v-1.6C42.6,267.82,46.19,264.24,50.6,264.24L50.6,264.24
									 M50.6,258.24c-7.72,0-14,6.28-14,14v1.6c0,7.72,6.28,14,14,14c3.31,0,6-2.69,6-6l0-17.6c0-1.59-0.63-3.12-1.76-4.24
									S52.19,258.24,50.6,258.24L50.6,258.24z"/>
							</g>
						</g>
					</g>
					<g>
						<g>
							<circle class="st9" cx="47.6" cy="288.04" r="6"/>
						</g>
						<g>
							<path class="st0" d="M47.6,285.04c1.66,0,3,1.34,3,3c0,1.66-1.34,3-3,3c-1.66,0-3-1.34-3-3
								C44.6,286.38,45.95,285.04,47.6,285.04 M47.6,279.04c-4.96,0-9,4.04-9,9s4.04,9,9,9s9-4.04,9-9S52.57,279.04,47.6,279.04
								L47.6,279.04z"/>
						</g>
					</g>
					<g>
						<g>
							<path class="st14" d="M90.6,372.04c-0.82,0-1.61-0.34-2.18-0.94c-1.42-1.49-13.82-14.85-13.82-24.06v-45c0-1.66,1.34-3,3-3
								h26c1.66,0,3,1.34,3,3v45c0,9.21-12.41,22.57-13.82,24.06C92.21,371.7,91.43,372.04,90.6,372.04z"/>
						</g>
						<g>
							<g>
								<path class="st0" d="M103.6,302.04v45c0,8.28-13,22-13,22s-13-13.72-13-22v-45H103.6 M103.6,296.04h-26c-3.31,0-6,2.69-6,6
									v45c0,4.8,2.5,10.57,7.65,17.64c3.44,4.72,6.85,8.34,7,8.49c1.13,1.2,2.71,1.87,4.35,1.87s3.22-0.68,4.35-1.87
									c0.14-0.15,3.56-3.77,7-8.49c5.15-7.07,7.65-12.84,7.65-17.64v-45C109.6,298.72,106.92,296.04,103.6,296.04L103.6,296.04z"
									/>
							</g>
						</g>
					</g>
					<g>
						<path class="st13" d="M77.6,306.04v29.93c4.09,1.33,8.46,2.07,13,2.07s8.91-0.73,13-2.07v-29.93H77.6z"/>
					</g>
					<g>
						<g>
							<path class="st14" d="M130.6,284.84c-1.66,0-3-1.34-3-3v-17.6c0-1.66,1.34-3,3-3c6.07,0,11,4.93,11,11v1.6
								C141.6,279.9,136.67,284.84,130.6,284.84z"/>
						</g>
						<g>
							<g>
								<path class="st0" d="M130.6,264.24c4.42,0,8,3.58,8,8v1.6c0,4.42-3.58,8-8,8V264.24 M130.6,258.24c-3.31,0-6,2.69-6,6v17.6
									c0,3.31,2.69,6,6,6c7.72,0,14-6.28,14-14v-1.6C144.6,264.52,138.32,258.24,130.6,258.24L130.6,258.24z"/>
							</g>
						</g>
					</g>
					<g>
						<g>
							<circle class="st9" cx="133.6" cy="288.04" r="6"/>
						</g>
						<g>
							<path class="st0" d="M133.6,285.04c1.66,0,3,1.34,3,3c0,1.66-1.34,3-3,3c-1.66,0-3-1.34-3-3
								C130.6,286.38,131.95,285.04,133.6,285.04 M133.6,279.04c-4.96,0-9,4.04-9,9s4.04,9,9,9s9-4.04,9-9
								S138.57,279.04,133.6,279.04L133.6,279.04z"/>
						</g>
					</g>
					<g>
						<g>
							<path class="st14" d="M90.6,319.04c-21.5,0-39-17.5-39-39v-28c0-21.5,17.5-39,39-39s39,17.5,39,39v28
								C129.6,301.54,112.11,319.04,90.6,319.04z"/>
						</g>
						<g>
							<g>
								<path class="st0" d="M90.6,216.04c19.88,0,36,16.12,36,36v28c0,19.88-16.12,36-36,36h0c-19.88,0-36-16.12-36-36v-28
									C54.6,232.15,70.72,216.04,90.6,216.04L90.6,216.04 M90.6,210.04c-23.16,0-42,18.84-42,42v28c0,23.16,18.84,42,42,42
									c23.16,0,42-18.84,42-42v-28C132.6,228.88,113.76,210.04,90.6,210.04L90.6,210.04z"/>
							</g>
						</g>
					</g>
					<g>
						<path class="st13" d="M62.6,280.04v-28c0-18.53,14-33.78,32-35.77c-1.31-0.15-2.65-0.23-4-0.23h0c-19.88,0-36,16.12-36,36v28
							c0,19.88,16.12,36,36,36h0c1.35,0,2.69-0.08,4-0.23C76.6,313.82,62.6,298.57,62.6,280.04z"/>
					</g>
					<g>
						<path class="st13" d="M97.6,275.04c0,3.87-3.13,7-7,7h0c-3.87,0-7-3.13-7-7L97.6,275.04z"/>
					</g>
					<g>
						<path class="st0" d="M90.94,293.04c-4.88,0-9.88-1.06-14.21-3.18c-0.99-0.49-1.4-1.68-0.92-2.68c0.49-0.99,1.68-1.4,2.68-0.92
							c7.48,3.67,17.64,3.68,24.14,0.02c0.96-0.54,2.18-0.2,2.72,0.76c0.54,0.96,0.2,2.18-0.76,2.72
							C100.71,291.95,95.89,293.04,90.94,293.04z"/>
					</g>
					<g>
						<g>
							<path class="st0" d="M86.82,295.81c2.47,0.57,5.1,0.59,7.57,0c1.27-0.35,2.15,1.33,1.18,2.18c-0.77,0.76-1.77,1.54-2.78,1.78
								c-2.16,0.62-4.6,0.39-6.39-1.11c0,0-0.74-0.66-0.74-0.66C84.66,297.14,85.57,295.47,86.82,295.81L86.82,295.81z"/>
						</g>
					</g>
					<g>
						<g>
							<circle class="st0" cx="108.6" cy="265.04" r="6"/>
						</g>
						<g>
							<circle class="st6" cx="110.6" cy="265.04" r="1.5"/>
						</g>
						<g>
							<path class="st0" d="M104.61,274.04c-0.68,0-1.34-0.34-1.71-0.97c-0.57-0.95-0.27-2.17,0.68-2.75c2.82-1.7,7.25-1.7,10.07,0
								c0.95,0.57,1.25,1.8,0.68,2.75c-0.57,0.95-1.8,1.25-2.75,0.68c-1.58-0.95-4.35-0.95-5.93,0
								C105.31,273.94,104.96,274.04,104.61,274.04z"/>
						</g>
					</g>
					<g>
						<g>
							<circle class="st0" cx="72.6" cy="265.04" r="6"/>
						</g>
						<g>
							<path class="st0" d="M68.61,274.04c-0.68,0-1.34-0.34-1.71-0.97c-0.57-0.95-0.27-2.17,0.68-2.75c2.82-1.7,7.25-1.7,10.07,0
								c0.95,0.57,1.25,1.8,0.68,2.75c-0.57,0.95-1.8,1.25-2.75,0.68c-1.58-0.95-4.35-0.95-5.93,0
								C69.31,273.94,68.96,274.04,68.61,274.04z"/>
						</g>
						<g>
							<circle class="st6" cx="74.6" cy="265.04" r="1.5"/>
						</g>
					</g>
					<g>
						<path class="st0" d="M101.48,258.37c3.78-5.24,13.46-5.1,15.84,1.35c0.21,0.55-0.06,1.17-0.62,1.39
							c-0.28,0.11-0.57,0.08-0.84-0.02c-3.38-1.2-6.08-1.8-9.61-1.41c-1.19,0.09-2.53,0.28-3.86,0.37
							C101.53,260.14,100.94,259.05,101.48,258.37L101.48,258.37z"/>
					</g>
					<g>
						<path class="st0" d="M77.62,260.03c-4.8-0.62-8.7-0.79-13.28,1.06c-0.85,0.39-1.82-0.5-1.46-1.37c1.68-4.77,8-6.29,12.26-4.18
							c1.13,0.53,5.03,2.85,3.37,4.3C78.24,260.04,77.93,260.07,77.62,260.03L77.62,260.03z"/>
					</g>
					<g>
						<g>
							<path class="st8" d="M54.96,250.04c-0.87,0-1.69-0.38-2.26-1.03c-0.57-0.65-0.83-1.52-0.71-2.38
								c2.66-19.15,19.26-33.59,38.62-33.59c19.35,0,35.96,14.44,38.62,33.59c0.12,0.86-0.14,1.73-0.71,2.38
								c-0.57,0.65-1.4,1.03-2.26,1.03H54.96z"/>
						</g>
						<g>
							<g>
								<path class="st0" d="M90.6,216.04c18.18,0,33.21,13.49,35.65,31H54.96C57.39,229.52,72.42,216.04,90.6,216.04L90.6,216.04
									 M90.6,210.04c-20.84,0-38.72,15.55-41.59,36.17c-0.24,1.72,0.28,3.46,1.42,4.77c1.14,1.31,2.79,2.06,4.53,2.06h71.29
									c1.74,0,3.39-0.75,4.53-2.06c1.14-1.31,1.66-3.05,1.42-4.77C129.33,225.59,111.45,210.04,90.6,210.04L90.6,210.04z"/>
							</g>
						</g>
					</g>
					<g>
						<path class="st0" d="M64.6,249.54c-1.38,0-2.5-1.12-2.5-2.5v-10c0-1.38,1.12-2.5,2.5-2.5s2.5,1.12,2.5,2.5v10
							C67.1,248.42,65.98,249.54,64.6,249.54z"/>
					</g>
					<g>
						<path class="st0" d="M74.6,249.54c-1.38,0-2.5-1.12-2.5-2.5v-16c0-1.38,1.12-2.5,2.5-2.5s2.5,1.12,2.5,2.5v16
							C77.1,248.42,75.98,249.54,74.6,249.54z"/>
					</g>
					<g>
						<path class="st0" d="M50.6,326.54c-1.38,0-2.5-1.12-2.5-2.5v-28c0-1.38,1.12-2.5,2.5-2.5s2.5,1.12,2.5,2.5v28
							C53.1,325.42,51.98,326.54,50.6,326.54z"/>
					</g>
					<g>
						<path class="st0" d="M61.6,326.54c-1.38,0-2.5-1.12-2.5-2.5v-16c0-1.38,1.12-2.5,2.5-2.5s2.5,1.12,2.5,2.5v16
							C64.1,325.42,62.98,326.54,61.6,326.54z"/>
					</g>
					<g>
						<path class="st0" d="M130.6,326.54c-1.38,0-2.5-1.12-2.5-2.5v-28c0-1.38,1.12-2.5,2.5-2.5s2.5,1.12,2.5,2.5v28
							C133.1,325.42,131.98,326.54,130.6,326.54z"/>
					</g>
					<g>
						<path class="st0" d="M119.6,326.54c-1.38,0-2.5-1.12-2.5-2.5v-16c0-1.38,1.12-2.5,2.5-2.5s2.5,1.12,2.5,2.5v16
							C122.1,325.42,120.98,326.54,119.6,326.54z"/>
					</g>
					<g>
						<path class="st0" d="M90.6,284.54c-4.69,0-8.5-3.81-8.5-8.5v-12c0-1.38,1.12-2.5,2.5-2.5s2.5,1.12,2.5,2.5v12
							c0,1.93,1.57,3.5,3.5,3.5s3.5-1.57,3.5-3.5v-12c0-1.38,1.12-2.5,2.5-2.5s2.5,1.12,2.5,2.5v12
							C99.1,280.72,95.29,284.54,90.6,284.54z"/>
					</g>
				</g>
			</g>
		</g>
		<g>
			<path class="st0" d="M90.6,384.35c-40.25,0-73-32.75-73-73h6c0,36.94,30.06,67,67,67s67-30.06,67-67h6
				C163.6,351.6,130.86,384.35,90.6,384.35z"/>
		</g>
	</g>
</g>
<g>
	<path class="st11" d="M282.18,53.09c-2.17,0-3.94-1.77-3.94-3.94c0-0.72-0.59-1.31-1.31-1.31c-0.72,0-1.31,0.59-1.31,1.31
		c0,2.17-1.77,3.94-3.94,3.94c-0.72,0-1.31,0.59-1.31,1.31s0.59,1.31,1.31,1.31c2.17,0,3.94,1.77,3.94,3.94
		c0,0.72,0.59,1.31,1.31,1.31c0.72,0,1.31-0.59,1.31-1.31c0-2.17,1.77-3.94,3.94-3.94c0.72,0,1.31-0.59,1.31-1.31
		S282.9,53.09,282.18,53.09z"/>
</g>
<g>
	<path class="st11" d="M79.35,73.49c-2.17,0-3.94-1.77-3.94-3.94c0-0.72-0.59-1.31-1.31-1.31c-0.72,0-1.31,0.59-1.31,1.31
		c0,2.17-1.77,3.94-3.94,3.94c-0.72,0-1.31,0.59-1.31,1.31s0.59,1.31,1.31,1.31c2.17,0,3.94,1.77,3.94,3.94
		c0,0.72,0.59,1.31,1.31,1.31c0.72,0,1.31-0.59,1.31-1.31c0-2.17,1.77-3.94,3.94-3.94c0.72,0,1.31-0.59,1.31-1.31
		S80.08,73.49,79.35,73.49z"/>
</g>
<g>
	<path class="st11" d="M346.93,31.73c-3.31,0-6-2.69-6-6c0-1.1-0.9-2-2-2c-1.1,0-2,0.9-2,2c0,3.31-2.69,6-6,6c-1.1,0-2,0.9-2,2
		c0,1.1,0.9,2,2,2c3.31,0,6,2.69,6,6c0,1.1,0.9,2,2,2c1.1,0,2-0.9,2-2c0-3.31,2.69-6,6-6c1.1,0,2-0.9,2-2
		C348.93,32.63,348.03,31.73,346.93,31.73z"/>
</g>
<g>
	<path class="st11" d="M67.1,161.77c-3.31,0-6-2.69-6-6c0-1.1-0.9-2-2-2c-1.1,0-2,0.9-2,2c0,3.31-2.69,6-6,6c-1.1,0-2,0.9-2,2
		s0.9,2,2,2c3.31,0,6,2.69,6,6c0,1.1,0.9,2,2,2c1.1,0,2-0.9,2-2c0-3.31,2.69-6,6-6c1.1,0,2-0.9,2-2S68.21,161.77,67.1,161.77z"/>
</g>
<g>
	<circle class="st11" cx="298.93" cy="74.8" r="4.5"/>
</g>
<g>
	<circle class="st11" cx="165.1" cy="197.35" r="4.5"/>
</g>
<g>
	<circle class="st11" cx="175.93" cy="369.35" r="4.5"/>
</g>
<g>
	<circle class="st11" cx="49.1" cy="107.8" r="4.5"/>
</g>
<g>
	<circle class="st11" cx="311.37" cy="51.91" r="2.5"/>
</g>
<g>
	<circle class="st11" cx="296.93" cy="102.8" r="2.5"/>
</g>
<g>
	<circle class="st11" cx="328.93" cy="81.36" r="2.5"/>
</g>
<g>
	<circle class="st11" cx="71.6" cy="105.3" r="2.5"/>
</g>
<g>
	<circle class="st11" cx="59.1" cy="54.41" r="2.5"/>
</g>
<g>
	<circle class="st11" cx="302.93" cy="126.41" r="2.5"/>
</g>
<g>
	<circle class="st11" cx="193.27" cy="265.35" r="2.5"/>
</g>
<g>
	<circle class="st11" cx="154.45" cy="381.35" r="2.5"/>
</g>
<g>
	<circle class="st11" cx="202.5" cy="358.35" r="2.5"/>
</g>
<g>
	<circle class="st11" cx="193.27" cy="206.79" r="2.5"/>
</g>
<g>
	<circle class="st11" cx="76.6" cy="134.78" r="2.5"/>
</g>
<path class="st11" d="M193.93,228.35h-6v-6c0-1.66-1.34-3-3-3s-3,1.34-3,3v6h-6c-1.66,0-3,1.34-3,3s1.34,3,3,3h6v6
	c0,1.66,1.34,3,3,3s3-1.34,3-3v-6h6c1.66,0,3-1.34,3-3S195.59,228.35,193.93,228.35z"/>
<g>
	<rect x="-0.63" y="0.79" class="st15" width="400" height="400"/>
</g>
</svg>
