<?xml version="1.0" encoding="utf-8"?>
<!-- Generator: Adobe Illustrator 26.0.1, SVG Export Plug-In . SVG Version: 6.00 Build 0)  -->
<svg version="1.1" id="CRO_x5F_Hub-How_x5F_To_x5F_Make_x5F_A_x5F_Case_x5F_Study"
	 xmlns="http://www.w3.org/2000/svg" xmlns:xlink="http://www.w3.org/1999/xlink" x="0px" y="0px" viewBox="0 0 400 400"
	 style="enable-background:new 0 0 400 400;" xml:space="preserve">
<style type="text/css">
	.st0{fill:none;}
	.st1{fill:#FFD886;}
	.st2{fill:#FBB040;}
	.st3{fill:#515979;}
	.st4{opacity:0.16;}
	.st5{fill:#FFFFFF;}
	.st6{fill:#D8EBFB;}
	.st7{fill:#6ADAF7;}
	.st8{fill:#F89D81;}
	.st9{fill:#C7BCFF;}
	.st10{fill:#CCCCCC;}
	.st11{fill:#515A78;}
	.st12{fill:#EF7D7D;}
	.st13{fill:#FFE8A0;}
	.st14{fill:#7DDF96;}
	.st15{fill:#FDE1D9;}
	.st16{fill:#D8F5DF;}
	.st17{fill:#FFF8E2;}
	.st18{fill:#FAD8D8;}
	.st19{fill:#00C853;}
	.st20{fill:#50C864;}
	.st21{fill:#00AF55;}
	.st22{fill:#FFEBC2;}
	.st23{fill:#FFC369;}
</style>
<g>
	<rect class="st0" width="400" height="400"/>
</g>
<g>
	<circle class="st1" cx="319.76" cy="33.43" r="3"/>
</g>
<g>
	<circle class="st1" cx="51.27" cy="353.28" r="4.5"/>
</g>
<g>
	<circle class="st1" cx="34.07" cy="380.78" r="3.5"/>
</g>
<g>
	<g>
		<path class="st1" d="M349.56,57.43c-1.66,0-3-1.34-3-3v-18c0-1.66,1.34-3,3-3s3,1.34,3,3v18
			C352.56,56.09,351.22,57.43,349.56,57.43z"/>
	</g>
	<g>
		<path class="st1" d="M358.56,48.43h-18c-1.66,0-3-1.34-3-3s1.34-3,3-3h18c1.66,0,3,1.34,3,3S360.22,48.43,358.56,48.43z"/>
	</g>
</g>
<g>
	<g>
		<path class="st1" d="M37.57,320.21c-1.66,0-3-1.34-3-3v-18c0-1.66,1.34-3,3-3s3,1.34,3,3v18
			C40.57,318.86,39.23,320.21,37.57,320.21z"/>
	</g>
	<g>
		<path class="st1" d="M46.57,311.21h-18c-1.66,0-3-1.34-3-3s1.34-3,3-3h18c1.66,0,3,1.34,3,3S48.23,311.21,46.57,311.21z"/>
	</g>
</g>
<g>
	<path class="st1" d="M92.4,378.98c-2.98,0-5.4-2.42-5.4-5.4c0-0.99-0.81-1.8-1.8-1.8c-0.99,0-1.8,0.81-1.8,1.8
		c0,2.98-2.42,5.4-5.4,5.4c-0.99,0-1.8,0.81-1.8,1.8c0,0.99,0.81,1.8,1.8,1.8c2.98,0,5.4,2.42,5.4,5.4c0,0.99,0.81,1.8,1.8,1.8
		c0.99,0,1.8-0.81,1.8-1.8c0-2.98,2.42-5.4,5.4-5.4c0.99,0,1.8-0.81,1.8-1.8C94.2,379.79,93.39,378.98,92.4,378.98z"/>
</g>
<g>
	<circle class="st1" cx="303.24" cy="61.65" r="3.5"/>
</g>
<g>
	<g>
		<path class="st2" d="M77.92,330.65c-3.86,0-7-3.14-7-7v-164c0-3.86,3.14-7,7-7h69.7c2.48,0,4.8,1.33,6.05,3.47l4.97,8.53h167.28
			c3.86,0,7,3.14,7,7v152c0,3.86-3.14,7-7,7H77.92z"/>
	</g>
	<g>
		<g>
			<path class="st3" d="M147.62,155.65c1.42,0,2.74,0.76,3.46,1.98l5.84,10.02h169c2.21,0,4,1.79,4,4v152c0,2.21-1.79,4-4,4l-248,0
				c-2.21,0-4-1.79-4-4v-164c0-2.21,1.79-4,4-4H147.62 M147.62,149.65h-69.7c-5.51,0-10,4.49-10,10v164c0,5.51,4.49,10,10,10l248,0
				c5.51,0,10-4.49,10-10v-152c0-5.51-4.49-10-10-10H160.36l-4.11-7.04C154.47,151.55,151.16,149.65,147.62,149.65L147.62,149.65z"
				/>
		</g>
	</g>
</g>
<g class="st4">
	<g>
		<rect x="73.92" y="175.65" class="st3" width="256" height="20"/>
	</g>
</g>
<g>
	<g>
		<g>
			<path class="st5" d="M305.85,232.21c-0.17,0-0.35-0.02-0.52-0.05l-88.63-15.63c-1.84-0.33-3.45-1.35-4.52-2.88
				c-1.07-1.53-1.48-3.39-1.16-5.23l22.92-129.99c0.59-3.35,3.49-5.79,6.89-5.79c0.41,0,0.82,0.04,1.22,0.11l108.33,19.1
				c1.84,0.33,3.45,1.35,4.52,2.88c1.07,1.53,1.48,3.39,1.16,5.23l-19.45,110.3c-0.14,0.78-0.58,1.48-1.23,1.94l-27.8,19.47
				C307.07,232.02,306.47,232.21,305.85,232.21z"/>
		</g>
		<g>
			<path class="st3" d="M240.83,75.65c0.23,0,0.46,0.02,0.7,0.06l108.33,19.1c2.18,0.38,3.63,2.46,3.24,4.63l-19.45,110.3
				l-27.8,19.47l-88.63-15.63c-2.18-0.38-3.63-2.46-3.24-4.63L236.9,78.95C237.24,77.01,238.93,75.65,240.83,75.65 M240.83,69.65
				C240.83,69.65,240.83,69.65,240.83,69.65c-4.86,0-9,3.48-9.84,8.26l-22.92,129.99c-0.46,2.63,0.12,5.28,1.66,7.47
				c1.53,2.19,3.82,3.65,6.46,4.11l88.63,15.63c0.35,0.06,0.7,0.09,1.04,0.09c1.22,0,2.43-0.37,3.44-1.09l27.8-19.47
				c1.3-0.91,2.19-2.31,2.47-3.87l19.45-110.3c0.46-2.63-0.12-5.28-1.66-7.47c-1.53-2.19-3.82-3.65-6.46-4.11L242.57,69.8
				C242,69.7,241.41,69.65,240.83,69.65L240.83,69.65z"/>
		</g>
	</g>
	<g>
		<path class="st6" d="M265.92,177.65V83.13c0-1.18-0.35-2.33-0.99-3.3l-23.39-4.12c-2.18-0.38-4.25,1.07-4.63,3.24l-20.75,117.69
			h45.77c2.21,0,4-1.79,4-4v-3h71.28l2.12-12H265.92z"/>
	</g>
	<g>
		<g>
			<path class="st6" d="M305.85,232.21c-0.56,0-1.12-0.16-1.61-0.47c-1.02-0.65-1.55-1.86-1.34-3.05l3.33-18.91
				c0.66-3.73,3.89-6.45,7.68-6.45c0.45,0,0.91,0.04,1.36,0.12l18.91,3.33c1.2,0.21,2.15,1.12,2.41,2.31s-0.21,2.41-1.21,3.11
				l-27.8,19.47C307.06,232.03,306.46,232.21,305.85,232.21z"/>
		</g>
		<g>
			<path class="st3" d="M313.91,206.33c0.28,0,0.56,0.02,0.84,0.07l18.91,3.33l-27.8,19.47l3.33-18.91
				C309.6,207.97,311.62,206.33,313.91,206.33 M313.91,200.33C313.91,200.33,313.91,200.33,313.91,200.33
				c-5.25,0-9.72,3.75-10.63,8.93l-3.33,18.91c-0.42,2.39,0.64,4.8,2.69,6.1c0.98,0.63,2.11,0.94,3.22,0.94
				c1.21,0,2.41-0.36,3.44-1.09l27.8-19.47c1.99-1.39,2.94-3.84,2.42-6.21c-0.53-2.37-2.43-4.19-4.82-4.61l-18.91-3.33
				C315.17,200.39,314.54,200.33,313.91,200.33L313.91,200.33z"/>
		</g>
	</g>
	<g>
		<path class="st3" d="M278.38,143.13l-39.39-6.95c-1.09-0.19-1.81-1.23-1.62-2.32l0,0c0.19-1.09,1.23-1.81,2.32-1.62l39.39,6.95
			c1.09,0.19,1.81,1.23,1.62,2.32l0,0C280.51,142.6,279.47,143.32,278.38,143.13z"/>
	</g>
	<g>
		<path class="st3" d="M248.03,154.03l-11.82-2.08c-1.09-0.19-1.81-1.23-1.62-2.32l0,0c0.19-1.09,1.23-1.81,2.32-1.62l11.82,2.08
			c1.09,0.19,1.81,1.23,1.62,2.32l0,0C250.16,153.49,249.12,154.22,248.03,154.03z"/>
	</g>
	<g>
		<path class="st3" d="M273.52,170.71l-39.39-6.95c-1.09-0.19-1.81-1.23-1.62-2.32h0c0.19-1.09,1.23-1.81,2.32-1.62l39.39,6.95
			c1.09,0.19,1.81,1.23,1.62,2.32v0C275.65,170.17,274.61,170.9,273.52,170.71z"/>
	</g>
	<g>
		<path class="st3" d="M262.28,176.85l-29.54-5.21c-1.09-0.19-1.81-1.23-1.62-2.32l0,0c0.19-1.09,1.23-1.81,2.32-1.62l29.54,5.21
			c1.09,0.19,1.81,1.23,1.62,2.32l0,0C264.41,176.31,263.37,177.04,262.28,176.85z"/>
	</g>
	<g>
		<path class="st3" d="M270.05,190.4l-39.39-6.95c-1.09-0.19-1.81-1.23-1.62-2.32l0,0c0.19-1.09,1.23-1.81,2.32-1.62l39.39,6.95
			c1.09,0.19,1.81,1.23,1.62,2.32v0C272.17,189.87,271.14,190.59,270.05,190.4z"/>
	</g>
	<g>
		<path class="st3" d="M250.93,195.16l-21.67-3.82c-1.09-0.19-1.81-1.23-1.62-2.32l0,0c0.19-1.09,1.23-1.81,2.32-1.62l21.67,3.82
			c1.09,0.19,1.81,1.23,1.62,2.32l0,0C253.06,194.62,252.02,195.35,250.93,195.16z"/>
	</g>
	<g>
		<path class="st3" d="M267.15,149.27l-29.54-5.21c-1.09-0.19-1.81-1.23-1.62-2.32l0,0c0.19-1.09,1.23-1.81,2.32-1.62l29.54,5.21
			c1.09,0.19,1.81,1.23,1.62,2.32l0,0C269.27,148.74,268.23,149.47,267.15,149.27z"/>
	</g>
	<g>
		<path class="st3" d="M317.09,188.54l-19.7-3.47c-1.09-0.19-1.81-1.23-1.62-2.32l0,0c0.19-1.09,1.23-1.81,2.32-1.62l19.7,3.47
			c1.09,0.19,1.81,1.23,1.62,2.32l0,0C319.21,188.01,318.17,188.73,317.09,188.54z"/>
	</g>
	<g>
		<circle class="st7" cx="288.87" cy="181.54" r="3"/>
	</g>
	<g>
		<path class="st3" d="M309.79,195.38L296,192.95c-1.09-0.19-1.81-1.23-1.62-2.32l0,0c0.19-1.09,1.23-1.81,2.32-1.62l13.79,2.43
			c1.09,0.19,1.81,1.23,1.62,2.32v0C311.91,194.84,310.88,195.57,309.79,195.38z"/>
	</g>
	<g>
		<circle class="st8" cx="287.49" cy="189.42" r="3"/>
	</g>
	<g>
		<path class="st3" d="M302.49,202.22l-7.88-1.39c-1.09-0.19-1.81-1.23-1.62-2.32l0,0c0.19-1.09,1.23-1.81,2.32-1.62l7.88,1.39
			c1.09,0.19,1.81,1.23,1.62,2.32v0C304.62,201.68,303.58,202.41,302.49,202.22z"/>
	</g>
	<g>
		<circle class="st9" cx="286.1" cy="197.29" r="3"/>
	</g>
	<g>
		<g>
			<path class="st3" d="M291.79,129.06c-5,0-10.16-1.92-14.09-5.52c-0.81-0.75-0.87-2.01-0.12-2.83c0.75-0.81,2.01-0.87,2.83-0.12
				c4.82,4.41,12.16,5.73,17.47,3.12c0.99-0.49,2.19-0.08,2.68,0.91c0.49,0.99,0.08,2.19-0.91,2.68
				C297.22,128.49,294.53,129.06,291.79,129.06z"/>
		</g>
		<g>
			<g>
				<g>
					<path class="st3" d="M304.16,119.87c-0.12,0-0.23-0.01-0.35-0.03c-1.09-0.19-1.81-1.23-1.62-2.32
						c0.09-0.53-0.02-1.06-0.33-1.49s-0.77-0.73-1.29-0.82c-0.53-0.09-1.06,0.02-1.5,0.33c-0.44,0.31-0.73,0.77-0.82,1.29
						c-0.19,1.09-1.22,1.81-2.32,1.62c-1.09-0.19-1.81-1.23-1.62-2.32c0.57-3.26,3.69-5.44,6.95-4.87c1.58,0.28,2.95,1.15,3.87,2.47
						c0.92,1.31,1.27,2.91,0.99,4.48C305.96,119.19,305.12,119.87,304.16,119.87z"/>
				</g>
			</g>
			<g>
				<g>
					<path class="st3" d="M284.47,116.4c-0.12,0-0.23-0.01-0.35-0.03c-1.09-0.19-1.81-1.23-1.62-2.32c0.09-0.53-0.02-1.06-0.33-1.49
						c-0.31-0.44-0.77-0.73-1.29-0.82c-0.52-0.09-1.05,0.02-1.49,0.33c-0.44,0.31-0.73,0.77-0.82,1.29
						c-0.19,1.09-1.22,1.81-2.32,1.62c-1.09-0.19-1.81-1.23-1.62-2.32c0.28-1.58,1.16-2.95,2.47-3.87c1.31-0.92,2.9-1.27,4.48-0.99
						c1.58,0.28,2.95,1.15,3.87,2.47c0.92,1.31,1.27,2.91,0.99,4.48C286.26,115.72,285.42,116.4,284.47,116.4z"/>
				</g>
			</g>
			<g>
				<path class="st3" d="M299.63,102.07c1.12-0.24,2.06-0.22,3.09-0.07c1,0.15,1.99,0.47,2.93,0.94c0.94,0.46,1.83,1.13,2.56,1.94
					c0.75,0.8,1.28,1.82,1.53,2.89c0.21,0.93-0.36,1.85-1.29,2.06c-0.44,0.1-0.87,0.03-1.23-0.18l-0.35-0.2
					c-0.69-0.39-1.2-0.77-1.77-1.1c-0.58-0.32-1.11-0.67-1.73-0.98l-1.9-0.95c-0.65-0.32-1.41-0.64-2.02-1.03l-0.37-0.23
					c-0.79-0.5-1.03-1.55-0.52-2.34C298.8,102.42,299.2,102.16,299.63,102.07z"/>
			</g>
			<g>
				<path class="st3" d="M285.29,102.9c-0.7,0.15-1.53,0.2-2.25,0.27l-2.11,0.25c-0.68,0.08-1.3,0.22-1.96,0.33
					c-0.65,0.11-1.26,0.3-2.04,0.43l-0.39,0.07c-0.94,0.16-1.83-0.47-1.98-1.41c-0.07-0.44,0.03-0.88,0.25-1.22
					c0.59-0.92,1.45-1.69,2.42-2.19c0.96-0.52,2.02-0.84,3.07-0.95c1.05-0.12,2.08-0.08,3.08,0.12c1.01,0.21,1.9,0.51,2.88,1.12
					c0.79,0.5,1.03,1.55,0.54,2.34c-0.25,0.4-0.64,0.66-1.07,0.76L285.29,102.9z"/>
			</g>
		</g>
	</g>
	<g>
		<g>
			<path class="st10" d="M329.91,110.45c-0.52,0-1.05-0.05-1.57-0.14c-4.89-0.86-8.16-5.54-7.3-10.43l0.43-2.46
				c0.24-1.35,1.36-2.36,2.73-2.47c0.08-0.01,0.17-0.01,0.25-0.01c0.17,0,0.33,0.01,0.5,0.04c0.78,0.14,1.47,0.58,1.93,1.23
				c0.46,0.66,0.64,1.45,0.5,2.24l-0.43,2.46c-0.29,1.63,0.8,3.19,2.43,3.48c0.17,0.03,0.35,0.05,0.53,0.05
				c1.46,0,2.7-1.04,2.95-2.48l2.95-16.74c0.29-1.63-0.8-3.19-2.43-3.48c-0.17-0.03-0.35-0.05-0.53-0.05c-1.46,0-2.7,1.04-2.95,2.48
				l-0.43,2.46l-5.91-1.04l0.43-2.46c0.76-4.31,4.48-7.44,8.85-7.44c0.52,0,1.05,0.05,1.57,0.14c4.89,0.86,8.16,5.54,7.3,10.43
				l-2.95,16.74C338.01,107.32,334.28,110.45,329.91,110.45C329.91,110.45,329.91,110.45,329.91,110.45z"/>
		</g>
		<g>
			<path class="st11" d="M332.85,77.2c0.43,0,0.87,0.04,1.31,0.12c4.08,0.72,6.8,4.61,6.08,8.69l-2.95,16.74
				c-0.64,3.64-3.81,6.2-7.38,6.2c-0.43,0-0.87-0.04-1.31-0.12c-4.08-0.72-6.8-4.61-6.08-8.69l0.43-2.46
				c0.12-0.69,0.7-1.18,1.37-1.23c0.05,0,0.09-0.01,0.14-0.01c0.08,0,0.15,0.01,0.23,0.02c0.82,0.14,1.36,0.92,1.22,1.74l-0.43,2.46
				c-0.43,2.45,1.2,4.78,3.65,5.21c0.26,0.05,0.53,0.07,0.79,0.07c2.14,0,4.04-1.54,4.43-3.72l2.95-16.74
				c0.43-2.45-1.2-4.78-3.65-5.21c-0.26-0.05-0.53-0.07-0.79-0.07c-2.14,0-4.04,1.54-4.43,3.72l-0.17,0.98l-2.95-0.52l0.17-0.98
				C326.11,79.76,329.28,77.2,332.85,77.2 M332.85,74.2c-5.1,0-9.45,3.65-10.33,8.68l-0.17,0.98l-0.52,2.95l2.95,0.52l2.95,0.52
				l2.95,0.52l0.52-2.95l0.17-0.98c0.13-0.72,0.75-1.24,1.47-1.24c0.09,0,0.18,0.01,0.27,0.02c0.53,0.09,0.84,0.43,0.97,0.62
				s0.34,0.59,0.25,1.12l-2.95,16.74c-0.13,0.72-0.75,1.24-1.47,1.24c-0.09,0-0.18-0.01-0.27-0.02c-0.81-0.14-1.36-0.92-1.22-1.74
				l0.43-2.46c0.43-2.44-1.21-4.78-3.65-5.21c-0.24-0.04-0.5-0.06-0.75-0.06c-0.12,0-0.24,0-0.36,0.01c-2.06,0.15-3.74,1.67-4.1,3.7
				l-0.43,2.46c-1.01,5.7,2.82,11.16,8.52,12.16c0.61,0.11,1.22,0.16,1.83,0.16c5.1,0,9.45-3.65,10.33-8.68l2.95-16.74
				c1.01-5.7-2.82-11.16-8.52-12.16C334.08,74.26,333.46,74.2,332.85,74.2L332.85,74.2z"/>
		</g>
	</g>
	<g>
		
			<rect x="296.75" y="152.28" transform="matrix(0.9848 0.1736 -0.1736 0.9848 32.4006 -49.7893)" class="st7" width="8" height="16"/>
	</g>
	<g>
		
			<rect x="307.06" y="160.14" transform="matrix(0.9848 0.1736 -0.1736 0.9848 33.402 -51.506)" class="st8" width="8" height="10"/>
	</g>
	<g>
		
			<rect x="318.93" y="150.14" transform="matrix(0.9848 0.1736 -0.1736 0.9848 32.8881 -53.6288)" class="st9" width="8" height="22"/>
	</g>
	<g>
		<path class="st3" d="M291.02,165.14c-0.09,0-0.17-0.01-0.26-0.02l-4.92-0.87c-0.82-0.14-1.36-0.92-1.22-1.74
			c0.14-0.82,0.92-1.36,1.74-1.22l4.92,0.87c0.82,0.14,1.36,0.92,1.22,1.74C292.36,164.62,291.73,165.14,291.02,165.14z"/>
	</g>
	<g>
		<path class="st3" d="M292.41,157.26c-0.09,0-0.17-0.01-0.26-0.02l-4.92-0.87c-0.82-0.14-1.36-0.92-1.22-1.74
			c0.14-0.82,0.92-1.36,1.74-1.22l4.92,0.87c0.82,0.14,1.36,0.92,1.22,1.74C293.75,156.75,293.12,157.26,292.41,157.26z"/>
	</g>
	<g>
		<path class="st3" d="M293.8,149.38c-0.09,0-0.17-0.01-0.26-0.02l-4.92-0.87c-0.82-0.14-1.36-0.92-1.22-1.74
			c0.14-0.82,0.92-1.36,1.74-1.22l4.92,0.87c0.82,0.14,1.36,0.92,1.22,1.74C295.14,148.87,294.51,149.38,293.8,149.38z"/>
	</g>
	<g>
		<path class="st3" d="M319.81,180.37c-0.09,0-0.17-0.01-0.26-0.02c-0.82-0.14-1.36-0.92-1.22-1.74l0.87-4.92
			c0.14-0.82,0.92-1.36,1.74-1.22c0.82,0.14,1.36,0.92,1.22,1.74l-0.87,4.92C321.16,179.86,320.52,180.37,319.81,180.37z"/>
	</g>
	<g>
		<path class="st3" d="M308.98,178.46c-0.09,0-0.17-0.01-0.26-0.02c-0.82-0.14-1.36-0.92-1.22-1.74l0.87-4.92
			c0.14-0.82,0.92-1.36,1.74-1.22c0.82,0.14,1.36,0.92,1.22,1.74l-0.87,4.92C310.32,177.95,309.69,178.46,308.98,178.46z"/>
	</g>
	<g>
		<path class="st3" d="M298.14,176.55c-0.09,0-0.17-0.01-0.26-0.02c-0.82-0.14-1.36-0.92-1.22-1.74l0.87-4.92
			c0.14-0.82,0.92-1.36,1.74-1.22c0.82,0.14,1.36,0.92,1.22,1.74l-0.87,4.92C299.49,176.04,298.86,176.55,298.14,176.55z"/>
	</g>
	<g>
		<path class="st3" d="M327.57,177.16c-0.12,0-0.23-0.01-0.35-0.03l-37.42-6.6c-1.09-0.19-1.81-1.23-1.62-2.32l4.34-24.62
			c0.19-1.09,1.22-1.82,2.32-1.62c1.09,0.19,1.81,1.23,1.62,2.32l-3.99,22.65l35.45,6.25c1.09,0.19,1.81,1.23,1.62,2.32
			C329.37,176.48,328.53,177.16,327.57,177.16z"/>
	</g>
</g>
<g>
	<g>
		<g>
			<g>
				<path class="st5" d="M139.92,204.65c-3.86,0-7-3.14-7-7v-132c0-3.86,3.14-7,7-7h90c0.8,0,1.56,0.32,2.12,0.88l24,24
					c0.56,0.56,0.88,1.33,0.88,2.12v112c0,3.86-3.14,7-7,7H139.92z"/>
			</g>
			<g>
				<path class="st3" d="M229.92,61.65l24,24v112c0,2.21-1.79,4-4,4h-110c-2.21,0-4-1.79-4-4v-132c0-2.21,1.79-4,4-4H229.92
					 M229.92,55.65h-90c-5.51,0-10,4.49-10,10v132c0,5.51,4.49,10,10,10h110c5.51,0,10-4.49,10-10v-112c0-1.59-0.63-3.12-1.76-4.24
					l-24-24C233.03,56.28,231.51,55.65,229.92,55.65L229.92,55.65z"/>
			</g>
		</g>
	</g>
	<g>
		<rect x="135.92" y="177.65" class="st6" width="118" height="12"/>
	</g>
	<g>
		<g>
			<g>
				<path class="st6" d="M234.72,88.65c-4.3,0-7.8-3.5-7.8-7.8v-19.2c0-1.21,0.73-2.31,1.85-2.77c0.37-0.15,0.76-0.23,1.15-0.23
					c0.78,0,1.55,0.3,2.12,0.88l24,24c0.86,0.86,1.12,2.15,0.65,3.27c-0.46,1.12-1.56,1.85-2.77,1.85H234.72z"/>
			</g>
			<g>
				<path class="st3" d="M229.92,61.65l24,24h-19.2c-2.65,0-4.8-2.15-4.8-4.8V61.65 M229.91,55.65c-0.77,0-1.55,0.15-2.29,0.46
					c-2.24,0.93-3.7,3.12-3.7,5.54v19.2c0,5.96,4.84,10.8,10.8,10.8h19.2c2.43,0,4.61-1.46,5.54-3.7c0.93-2.24,0.42-4.82-1.3-6.54
					l-24-24C233.01,56.26,231.48,55.65,229.91,55.65L229.91,55.65z"/>
			</g>
		</g>
		<g>
			<path class="st3" d="M226.92,155.15c-9.65,0-17.5-7.85-17.5-17.5s7.85-17.5,17.5-17.5s17.5,7.85,17.5,17.5
				S236.57,155.15,226.92,155.15z M226.92,125.15c-6.89,0-12.5,5.61-12.5,12.5s5.61,12.5,12.5,12.5s12.5-5.61,12.5-12.5
				S233.81,125.15,226.92,125.15z"/>
		</g>
		<g>
			<path class="st12" d="M237.54,153.4l-4.48-6.63c1.91-1.29,3.4-3.18,4.18-5.33l7.51,2.75
				C243.39,147.91,240.83,151.18,237.54,153.4z"/>
		</g>
		<g>
			<path class="st13" d="M244.76,144.19l-7.51-2.75c0.44-1.21,0.67-2.49,0.67-3.79c0-1.63-0.34-3.19-1.03-4.64l7.25-3.39
				c1.18,2.52,1.78,5.23,1.78,8.03C245.92,139.89,245.53,142.09,244.76,144.19z"/>
		</g>
		<g>
			<path class="st14" d="M236.89,133c-1.8-3.86-5.72-6.35-9.97-6.35v-8c7.35,0,14.11,4.3,17.22,10.96L236.89,133z"/>
		</g>
		<g>
			<path class="st3" d="M241.92,162.65h-20c-1.1,0-2-0.9-2-2l0,0c0-1.1,0.9-2,2-2h20c1.1,0,2,0.9,2,2l0,0
				C243.92,161.75,243.02,162.65,241.92,162.65z"/>
		</g>
		<g>
			<circle class="st14" cx="212.92" cy="160.65" r="3"/>
		</g>
		<g>
			<path class="st3" d="M235.92,170.65h-14c-1.1,0-2-0.9-2-2v0c0-1.1,0.9-2,2-2h14c1.1,0,2,0.9,2,2v0
				C237.92,169.75,237.02,170.65,235.92,170.65z"/>
		</g>
		<g>
			<circle class="st13" cx="212.92" cy="168.65" r="3"/>
		</g>
		<g>
			<path class="st3" d="M229.92,178.65h-8c-1.1,0-2-0.9-2-2l0,0c0-1.1,0.9-2,2-2h8c1.1,0,2,0.9,2,2l0,0
				C231.92,177.75,231.02,178.65,229.92,178.65z"/>
		</g>
		<g>
			<circle class="st12" cx="212.92" cy="176.65" r="3"/>
		</g>
		<g>
			<path class="st3" d="M164.92,174.65h-8c-1.1,0-2-0.9-2-2v0c0-1.1,0.9-2,2-2h8c1.1,0,2,0.9,2,2v0
				C166.92,173.75,166.02,174.65,164.92,174.65z"/>
		</g>
		<g>
			<circle class="st14" cx="147.92" cy="172.65" r="3"/>
		</g>
		<g>
			<path class="st3" d="M192.92,174.65h-8c-1.1,0-2-0.9-2-2v0c0-1.1,0.9-2,2-2h8c1.1,0,2,0.9,2,2v0
				C194.92,173.75,194.02,174.65,192.92,174.65z"/>
		</g>
		<g>
			<circle class="st13" cx="175.92" cy="172.65" r="3"/>
		</g>
		<g>
			<path class="st3" d="M164.92,182.65h-8c-1.1,0-2-0.9-2-2v0c0-1.1,0.9-2,2-2h8c1.1,0,2,0.9,2,2v0
				C166.92,181.75,166.02,182.65,164.92,182.65z"/>
		</g>
		<g>
			<circle class="st12" cx="147.92" cy="180.65" r="3"/>
		</g>
		<g>
			<g>
				<g>
					<path class="st3" d="M201.42,95.5c-0.62,0-1.2-0.39-1.42-1.01c-0.27-0.78,0.15-1.64,0.93-1.91c2.24-0.77,5.74-0.77,7.98,0
						c0.78,0.27,1.2,1.12,0.93,1.91c-0.27,0.78-1.12,1.2-1.91,0.93c-1.6-0.55-4.42-0.55-6.02,0
						C201.74,95.47,201.58,95.5,201.42,95.5z"/>
				</g>
				<g>
					<g>
						<circle class="st3" cx="204.92" cy="87.3" r="6"/>
					</g>
					<g>
						<circle class="st5" cx="206.42" cy="87.3" r="1.5"/>
					</g>
				</g>
				<g>
					<path class="st3" d="M188.42,95.5c-0.16,0-0.33-0.03-0.49-0.08c-1.6-0.55-4.42-0.55-6.02,0c-0.78,0.27-1.64-0.15-1.91-0.93
						c-0.27-0.78,0.15-1.64,0.93-1.91c2.24-0.77,5.74-0.77,7.98,0c0.78,0.27,1.2,1.12,0.93,1.91
						C189.62,95.11,189.04,95.5,188.42,95.5z"/>
				</g>
				<g>
					<g>
						<circle class="st3" cx="184.92" cy="87.3" r="6"/>
					</g>
					<g>
						<circle class="st5" cx="186.42" cy="87.3" r="1.5"/>
					</g>
				</g>
				<g>
					<path class="st3" d="M200.13,74.92c0.92-0.69,1.78-1.07,2.77-1.37c0.97-0.29,2-0.41,3.05-0.39c1.05,0.02,2.13,0.25,3.14,0.68
						c1.01,0.41,1.93,1.11,2.61,1.97c0.59,0.75,0.45,1.83-0.3,2.42c-0.35,0.28-0.78,0.39-1.19,0.36l-0.4-0.03
						c-0.79-0.06-1.41-0.19-2.07-0.25c-0.66-0.05-1.29-0.14-1.98-0.16l-2.13-0.06c-0.72-0.01-1.55,0.01-2.26-0.08l-0.43-0.06
						c-0.93-0.12-1.59-0.97-1.47-1.9C199.53,75.59,199.78,75.19,200.13,74.92z"/>
				</g>
				<g>
					<path class="st3" d="M188.46,78.02c-0.71,0.09-1.54,0.07-2.26,0.08l-2.13,0.06c-0.69,0.02-1.32,0.11-1.98,0.16
						c-0.66,0.06-1.28,0.19-2.07,0.25l-0.4,0.03c-0.95,0.08-1.78-0.63-1.85-1.58c-0.04-0.45,0.1-0.87,0.36-1.2
						c0.67-0.86,1.59-1.56,2.61-1.97c1-0.43,2.09-0.66,3.14-0.68c1.05-0.03,2.08,0.1,3.05,0.39c0.99,0.29,1.85,0.67,2.77,1.37
						c0.75,0.57,0.9,1.63,0.33,2.38c-0.29,0.38-0.7,0.6-1.13,0.66L188.46,78.02z"/>
				</g>
			</g>
		</g>
		<g>
			<g>
				<g>
					<circle class="st15" cx="219.92" cy="96.65" r="2"/>
				</g>
			</g>
			<g>
				<g>
					<circle class="st15" cx="215.92" cy="102.65" r="2"/>
				</g>
			</g>
			<g>
				<g>
					<circle class="st15" cx="223.92" cy="102.65" r="2"/>
				</g>
			</g>
		</g>
		<g>
			<g>
				<g>
					<circle class="st15" cx="169.92" cy="96.65" r="2"/>
				</g>
			</g>
			<g>
				<g>
					<circle class="st15" cx="165.92" cy="102.65" r="2"/>
				</g>
			</g>
			<g>
				<g>
					<circle class="st15" cx="173.92" cy="102.65" r="2"/>
				</g>
			</g>
		</g>
		<g>
			<g>
				<g>
					<path class="st3" d="M194.92,115.65c-7.72,0-14-6.28-14-14c0-1.1,0.9-2,2-2h24c1.1,0,2,0.9,2,2
						C208.92,109.37,202.64,115.65,194.92,115.65z"/>
				</g>
				<g>
					<path class="st3" d="M206.92,101.65L206.92,101.65 M206.92,101.65c0,6.63-5.37,12-12,12s-12-5.37-12-12H206.92 M206.92,97.65
						L206.92,97.65h-24.01c-2.21,0-4,1.79-4,4c0,8.82,7.18,16,16,16c8.77,0,15.91-7.09,16-15.84c0-0.05,0-0.11,0-0.16
						C210.92,99.44,209.13,97.65,206.92,97.65L206.92,97.65z M206.92,105.65L206.92,105.65L206.92,105.65L206.92,105.65z"/>
				</g>
			</g>
			<g>
				<ellipse class="st12" cx="194.92" cy="109.65" rx="8.93" ry="4"/>
			</g>
		</g>
		<g>
			<polygon class="st16" points="146.92,160.65 161.07,132.56 168.82,136.54 175.74,130.13 184.99,134.77 196.92,124.65 
				196.92,160.65 			"/>
		</g>
		<g>
			<path class="st14" d="M146.91,162.65c-0.3,0-0.61-0.07-0.9-0.21c-0.99-0.5-1.38-1.7-0.89-2.69l14.16-28.09
				c0.24-0.48,0.66-0.84,1.17-1c0.51-0.16,1.06-0.12,1.53,0.12l6.5,3.34l5.89-5.45c0.61-0.57,1.51-0.69,2.25-0.32l8.07,4.04
				l10.92-9.26c0.84-0.71,2.11-0.61,2.82,0.23c0.71,0.84,0.61,2.1-0.23,2.82l-11.93,10.12c-0.61,0.52-1.47,0.62-2.19,0.26
				l-8.01-4.02l-5.9,5.46c-0.62,0.57-1.52,0.7-2.27,0.31l-5.96-3.06l-13.25,26.29C148.35,162.24,147.65,162.65,146.91,162.65z"/>
		</g>
		<g>
			<polygon class="st17" points="146.92,160.65 162.74,141.35 169.18,146.26 177.07,139.56 184.82,143.54 196.92,134.65 
				196.92,160.65 			"/>
		</g>
		<g>
			<path class="st13" d="M146.91,162.65c-0.45,0-0.9-0.15-1.27-0.45c-0.85-0.7-0.98-1.96-0.28-2.81l15.82-19.3
				c0.68-0.83,1.9-0.98,2.76-0.32l5.17,3.93l6.66-5.66c0.62-0.52,1.49-0.62,2.21-0.25l6.65,3.41l11.1-8.16
				c0.89-0.65,2.14-0.46,2.8,0.43c0.65,0.89,0.46,2.14-0.43,2.8l-12.09,8.89c-0.61,0.45-1.42,0.51-2.1,0.17l-6.56-3.37l-6.87,5.84
				c-0.72,0.61-1.76,0.64-2.51,0.07l-4.91-3.74l-14.6,17.8C148.07,162.4,147.49,162.65,146.91,162.65z"/>
		</g>
		<g>
			<path class="st3" d="M146.92,151.15h-4c-0.83,0-1.5-0.67-1.5-1.5s0.67-1.5,1.5-1.5h4c0.83,0,1.5,0.67,1.5,1.5
				S147.74,151.15,146.92,151.15z"/>
		</g>
		<g>
			<path class="st3" d="M146.92,141.15h-4c-0.83,0-1.5-0.67-1.5-1.5s0.67-1.5,1.5-1.5h4c0.83,0,1.5,0.67,1.5,1.5
				S147.74,141.15,146.92,141.15z"/>
		</g>
		<g>
			<path class="st3" d="M146.92,131.15h-4c-0.83,0-1.5-0.67-1.5-1.5s0.67-1.5,1.5-1.5h4c0.83,0,1.5,0.67,1.5,1.5
				S147.74,131.15,146.92,131.15z"/>
		</g>
		<g>
			<polygon class="st18" points="146.92,160.65 160.74,150.35 166.18,155.26 177.07,148.56 183.82,152.54 196.92,144.65 
				196.92,160.65 			"/>
		</g>
		<g>
			<path class="st12" d="M146.92,162.65c-0.61,0-1.21-0.28-1.61-0.81c-0.66-0.89-0.48-2.14,0.41-2.8l13.82-10.3
				c0.77-0.57,1.83-0.52,2.53,0.12l4.33,3.91l9.61-5.92c0.63-0.39,1.42-0.4,2.06-0.02l5.72,3.37l12.07-7.27
				c0.95-0.57,2.17-0.27,2.75,0.68c0.57,0.95,0.27,2.18-0.68,2.75l-13.09,7.89c-0.63,0.38-1.42,0.38-2.05,0.01l-5.71-3.37
				l-9.86,6.07c-0.75,0.47-1.73,0.38-2.39-0.22l-4.23-3.81l-12.51,9.32C147.75,162.52,147.33,162.65,146.92,162.65z"/>
		</g>
		<g>
			<path class="st3" d="M196.92,162.65h-50c-1.1,0-2-0.9-2-2v-36c0-1.1,0.9-2,2-2s2,0.9,2,2v34h48c1.1,0,2,0.9,2,2
				S198.02,162.65,196.92,162.65z"/>
		</g>
		<g>
			<path class="st3" d="M191.92,166.15c-0.83,0-1.5-0.67-1.5-1.5v-4c0-0.83,0.67-1.5,1.5-1.5s1.5,0.67,1.5,1.5v4
				C193.42,165.48,192.74,166.15,191.92,166.15z"/>
		</g>
		<g>
			<path class="st3" d="M181.92,166.15c-0.83,0-1.5-0.67-1.5-1.5v-4c0-0.83,0.67-1.5,1.5-1.5s1.5,0.67,1.5,1.5v4
				C183.42,165.48,182.74,166.15,181.92,166.15z"/>
		</g>
		<g>
			<path class="st3" d="M171.92,166.15c-0.83,0-1.5-0.67-1.5-1.5v-4c0-0.83,0.67-1.5,1.5-1.5s1.5,0.67,1.5,1.5v4
				C173.42,165.48,172.74,166.15,171.92,166.15z"/>
		</g>
		<g>
			<path class="st3" d="M161.92,166.15c-0.83,0-1.5-0.67-1.5-1.5v-4c0-0.83,0.67-1.5,1.5-1.5s1.5,0.67,1.5,1.5v4
				C163.42,165.48,162.74,166.15,161.92,166.15z"/>
		</g>
		<g>
			<path class="st3" d="M151.92,166.15c-0.83,0-1.5-0.67-1.5-1.5v-4c0-0.83,0.67-1.5,1.5-1.5s1.5,0.67,1.5,1.5v4
				C153.42,165.48,152.74,166.15,151.92,166.15z"/>
		</g>
	</g>
</g>
<g>
	<g>
		<g>
			<path class="st14" d="M120.75,205.61c-1.32,0-2.54-0.88-2.9-2.22l-25.88-96.59c-0.21-0.77-0.1-1.59,0.3-2.28
				c0.4-0.69,1.05-1.19,1.82-1.4l45.75-12.26c0.26-0.07,0.52-0.1,0.78-0.1c1.32,0,2.54,0.88,2.9,2.22l25.88,96.59
				c0.21,0.77,0.1,1.59-0.3,2.28c-0.4,0.69-1.05,1.19-1.82,1.4l-45.75,12.26C121.27,205.58,121.01,205.61,120.75,205.61z"/>
		</g>
		<g>
			<path class="st3" d="M140.63,93.76l25.88,96.59l-45.75,12.26l-25.88-96.59L140.63,93.76 M140.63,87.76
				c-0.51,0-1.04,0.07-1.56,0.21l-45.75,12.26c-1.54,0.41-2.85,1.42-3.64,2.8c-0.8,1.38-1.01,3.02-0.6,4.55l25.88,96.59
				c0.72,2.68,3.14,4.45,5.79,4.45c0.51,0,1.04-0.07,1.56-0.21l45.75-12.26c1.54-0.41,2.85-1.42,3.64-2.8
				c0.8-1.38,1.01-3.02,0.6-4.55L146.42,92.2C145.7,89.52,143.28,87.76,140.63,87.76L140.63,87.76z"/>
		</g>
	</g>
	<g>
		<g>
			<path class="st19" d="M125.92,130.39c8.13-2.18,16.22-0.28,21.32,4.33l-7.55-28.18c-4.21,1.13-8.54-1.37-9.67-5.58l-22.37,5.99
				c1.13,4.21-1.37,8.54-5.58,9.67l7.55,28.18C111.73,138.26,117.79,132.57,125.92,130.39z M115.77,118.94
				c-0.9-3.37,1.32-6.89,4.97-7.87s7.34,0.96,8.24,4.33s-1.32,6.89-4.97,7.87S116.67,122.31,115.77,118.94z"/>
		</g>
		<g>
			<path class="st19" d="M159.31,179.75l-7.55-28.18c-2.11,6.54-8.16,12.23-16.3,14.41c-8.13,2.18-16.22,0.28-21.32-4.33l7.55,28.18
				c4.21-1.13,8.54,1.37,9.67,5.58l22.37-5.99C152.6,185.2,155.1,180.88,159.31,179.75z M132.39,180.97
				c-0.9-3.37,1.32-6.89,4.97-7.87c3.65-0.98,7.34,0.96,8.24,4.33s-1.32,6.89-4.97,7.87S133.29,184.34,132.39,180.97z"/>
		</g>
	</g>
	<g>
		<g>
			<path class="st3" d="M124.01,160.25c-0.37,0-0.74-0.1-1.08-0.32c-5.77-3.69-7.85-11.23-4.93-17.93c0.44-1.01,1.62-1.48,2.63-1.03
				c1.01,0.44,1.48,1.62,1.03,2.63c-2.16,4.96-0.76,10.29,3.42,12.96c0.93,0.59,1.2,1.83,0.61,2.76
				C125.32,159.93,124.67,160.25,124.01,160.25z"/>
		</g>
		<g>
			<g>
				<path class="st3" d="M129.96,159.72c-0.09,0-0.19-0.01-0.28-0.03c-0.81-0.15-1.35-0.94-1.19-1.75c0.2-1.06-0.25-2.76-0.96-3.57
					c-0.54-0.63-0.47-1.57,0.16-2.12c0.63-0.54,1.57-0.47,2.12,0.16c1.3,1.51,2,4.13,1.63,6.09
					C131.3,159.22,130.67,159.72,129.96,159.72z"/>
			</g>
			<g>
				<g>
					<circle class="st3" cx="134.34" cy="154.45" r="4.5"/>
				</g>
				<g>
					<circle class="st5" cx="134.63" cy="155.54" r="1.12"/>
				</g>
			</g>
			<g>
				<path class="st3" d="M126.34,146.19c-0.09,0-0.19-0.01-0.28-0.03c-0.81-0.15-1.35-0.94-1.19-1.75c0.2-1.06-0.26-2.76-0.96-3.57
					c-0.54-0.63-0.47-1.57,0.16-2.12c0.63-0.54,1.57-0.47,2.12,0.16c1.3,1.51,2,4.13,1.63,6.09
					C127.67,145.69,127.04,146.19,126.34,146.19z"/>
			</g>
			<g>
				<g>
					<circle class="st3" cx="130.72" cy="140.93" r="4.5"/>
				</g>
				<g>
					<circle class="st5" cx="131.01" cy="142.02" r="1.12"/>
				</g>
			</g>
		</g>
		<g>
			<path class="st3" d="M142.49,147.6c1.02,0.41,1.71,0.93,2.39,1.69c0.66,0.73,1.18,1.68,1.44,2.78c0.28,1.08,0.2,2.34-0.23,3.37
				c-0.38,1.07-1.11,1.86-1.92,2.4c-0.79,0.53-1.86,0.32-2.39-0.48c-0.21-0.31-0.3-0.67-0.29-1.02l0.02-0.52
				c0.02-0.69,0.12-1.19,0.07-1.59c-0.02-0.41-0.05-0.7-0.13-1.07c-0.07-0.37-0.2-0.79-0.38-1.3c-0.17-0.48-0.48-1.09-0.62-1.63
				l-0.18-0.69c-0.23-0.88,0.3-1.79,1.19-2.02C141.82,147.44,142.18,147.47,142.49,147.6z"/>
		</g>
		<g>
			<path class="st3" d="M138.12,141.52c-0.15-0.54-0.19-1.22-0.28-1.72c-0.1-0.53-0.2-0.96-0.32-1.31c-0.11-0.36-0.24-0.63-0.42-1
				c-0.16-0.37-0.49-0.76-0.86-1.34l-0.28-0.44c-0.5-0.81-0.26-1.87,0.55-2.37c0.32-0.2,0.68-0.28,1.03-0.26
				c0.98,0.06,2,0.39,2.87,1.12c0.89,0.68,1.58,1.73,1.88,2.8c0.32,1.08,0.34,2.16,0.14,3.13c-0.21,0.99-0.55,1.8-1.23,2.66
				c-0.57,0.72-1.61,0.84-2.32,0.27c-0.29-0.23-0.48-0.53-0.57-0.86L138.12,141.52z"/>
		</g>
	</g>
	<g>
		<polygon class="st20" points="114.06,177.65 117.28,189.65 166.32,189.65 163.1,177.65 		"/>
	</g>
	<g>
		<g>
			<path class="st21" d="M159.31,179.75l-0.56-2.1h-13.09c0.75,3.3-1.45,6.69-5.02,7.65c-3.65,0.98-7.34-0.96-8.24-4.33
				c-0.3-1.12-0.25-2.26,0.08-3.32h-14.05l3.22,12h0.94c0.78-0.12,1.56-0.11,2.32,0h27.97l0.86-0.23
				C152.6,185.2,155.1,180.88,159.31,179.75z"/>
		</g>
	</g>
</g>
<g>
	<g>
		<g>
			<path class="st14" d="M91.57,225.91c-1.04,0-2.05-0.54-2.6-1.5l-50-86.6c-0.83-1.44-0.34-3.27,1.1-4.1l41.02-23.68
				c0.47-0.27,0.99-0.4,1.5-0.4c1.04,0,2.05,0.54,2.6,1.5l50,86.6c0.4,0.69,0.51,1.51,0.3,2.28s-0.71,1.42-1.4,1.82l-41.02,23.68
				C92.6,225.78,92.08,225.91,91.57,225.91z"/>
		</g>
		<g>
			<path class="st3" d="M82.59,112.62l50,86.6l-41.02,23.68l-50-86.6L82.59,112.62 M82.59,106.62c-1.02,0-2.05,0.26-2.99,0.8
				l-41.02,23.68c-1.38,0.8-2.38,2.11-2.8,3.64c-0.41,1.54-0.2,3.17,0.6,4.55l50,86.6c1.11,1.92,3.13,3,5.2,3
				c1.02,0,2.05-0.26,2.99-0.8l41.02-23.68c1.38-0.8,2.38-2.11,2.8-3.64c0.41-1.54,0.2-3.17-0.6-4.55l-50-86.6
				C86.68,107.7,84.66,106.62,82.59,106.62L82.59,106.62z"/>
		</g>
	</g>
	<g>
		<polygon class="st20" points="120.13,177.65 65.44,177.65 72.36,189.65 127.06,189.65 		"/>
	</g>
	<g>
		<path class="st19" d="M122.89,190.85l-14.59-25.27c-0.34,6.87-4.72,13.93-12.02,18.14c-7.29,4.21-15.6,4.47-21.71,1.34
			l14.59,25.27c3.78-2.18,8.6-0.89,10.78,2.89L120,201.63C117.82,197.86,119.12,193.03,122.89,190.85z M97.21,198.99
			c-1.74-3.02-0.51-7,2.77-8.89c3.27-1.89,7.34-0.97,9.08,2.05c1.74,3.02,0.5,7-2.77,8.89C103.02,202.93,98.95,202.01,97.21,198.99z
			"/>
	</g>
	<g>
		<path class="st21" d="M106.2,189.65h16l-6.93-12h-11.83c-1.89,2.34-4.29,4.43-7.15,6.07c-7.29,4.21-15.6,4.47-21.71,1.34
			l2.65,4.59h23.7C102.7,188.94,104.6,188.97,106.2,189.65z"/>
	</g>
	<g>
		<path class="st19" d="M77.87,151.82c7.29-4.21,15.6-4.47,21.71-1.34L85,125.21c-3.78,2.18-8.6,0.89-10.78-2.89L54.16,133.9
			c2.18,3.78,0.89,8.6-2.89,10.78l14.59,25.26C66.2,163.09,70.58,156.03,77.87,151.82z M65.1,143.39c-1.74-3.02-0.51-7,2.77-8.89
			c3.27-1.89,7.34-0.97,9.08,2.05c1.74,3.02,0.5,7-2.77,8.89C70.91,147.32,66.85,146.41,65.1,143.39z"/>
	</g>
	<g>
		<g>
			<path class="st3" d="M92.27,178.32c-0.69,0-1.36-0.36-1.73-1c-0.55-0.96-0.22-2.18,0.73-2.73c0.48-0.28,0.64-0.89,0.37-1.37
				c-0.28-0.48-0.89-0.64-1.37-0.37c-0.96,0.55-2.18,0.22-2.73-0.73c-0.55-0.96-0.22-2.18,0.73-2.73c1.16-0.67,2.5-0.85,3.79-0.5
				c1.29,0.35,2.37,1.17,3.04,2.33c1.38,2.39,0.56,5.45-1.83,6.83C92.95,178.24,92.61,178.32,92.27,178.32z"/>
		</g>
		<g>
			<path class="st3" d="M85.27,166.2c-0.69,0-1.36-0.36-1.73-1c-0.55-0.96-0.22-2.18,0.73-2.73c0.48-0.28,0.64-0.89,0.37-1.37
				s-0.89-0.64-1.37-0.37c-0.96,0.55-2.18,0.22-2.73-0.73c-0.55-0.96-0.22-2.18,0.73-2.73c2.39-1.38,5.45-0.56,6.83,1.83
				c1.38,2.39,0.56,5.45-1.83,6.83C85.95,166.11,85.61,166.2,85.27,166.2z"/>
		</g>
		<g>
			<path class="st3" d="M85.2,179.09c-0.17,0-0.33-0.02-0.5-0.06c-3.15-0.81-5.78-2.81-7.4-5.61c-1.62-2.8-2.03-6.08-1.16-9.21
				c0.3-1.06,1.4-1.69,2.46-1.39c1.06,0.3,1.69,1.4,1.39,2.46c-0.58,2.09-0.31,4.27,0.77,6.14c1.08,1.87,2.83,3.2,4.93,3.74
				c1.07,0.28,1.71,1.37,1.44,2.44C86.9,178.49,86.09,179.09,85.2,179.09z"/>
		</g>
		<g>
			<path class="st3" d="M92.8,159.84c-0.46-0.48-0.84-0.94-1.23-1.41l-1.18-1.41l-1.18-1.41c-0.4-0.47-0.79-0.92-1.18-1.46
				l-0.25-0.33c-0.57-0.77-0.4-1.86,0.37-2.43c0.33-0.25,0.73-0.35,1.11-0.34c1.05,0.05,1.99,0.42,2.81,0.91
				c0.83,0.49,1.54,1.12,2.15,1.83c0.6,0.72,1.1,1.53,1.43,2.43c0.34,0.89,0.54,1.88,0.41,2.92c-0.12,0.95-0.99,1.62-1.94,1.5
				c-0.41-0.05-0.77-0.24-1.03-0.52L92.8,159.84z"/>
		</g>
		<g>
			<path class="st3" d="M99.34,173.75c-0.26-0.61-0.46-1.17-0.67-1.75l-0.63-1.73l-0.63-1.73c-0.21-0.57-0.42-1.14-0.61-1.77
				l-0.12-0.4c-0.27-0.92,0.26-1.88,1.18-2.16c0.4-0.12,0.8-0.08,1.16,0.06c0.97,0.4,1.72,1.08,2.33,1.82
				c0.61,0.74,1.07,1.58,1.39,2.46c0.32,0.88,0.51,1.81,0.51,2.78c0.01,0.96-0.13,1.96-0.62,2.89c-0.44,0.85-1.49,1.19-2.34,0.75
				c-0.37-0.19-0.64-0.49-0.79-0.85L99.34,173.75z"/>
		</g>
	</g>
</g>
<g>
	<g>
		<g>
			<path class="st1" d="M76.92,336.65c-3.27,0-5.93-2.63-6-5.88l-9.57-137.48c-0.18-1.67,0.35-3.35,1.47-4.62
				c1.14-1.29,2.78-2.03,4.5-2.03h269.21c1.72,0,3.36,0.74,4.5,2.03c1.12,1.26,1.65,2.94,1.47,4.62l-9.57,137.48
				c-0.07,3.25-2.73,5.88-6,5.88H76.92z"/>
		</g>
		<g>
			<path class="st3" d="M336.52,189.65c1.8,0,3.2,1.58,2.98,3.37l-9.58,137.63c0,1.66-1.34,3-3,3h-250c-1.66,0-3-1.34-3-3
				l-9.58-137.63c-0.22-1.79,1.17-3.37,2.98-3.37H336.52 M336.52,183.65H67.31c-2.58,0-5.04,1.11-6.74,3.04
				c-1.66,1.88-2.46,4.37-2.21,6.86l9.57,137.36c0.14,4.84,4.12,8.74,9,8.74h250c4.87,0,8.86-3.9,9-8.74l9.57-137.36
				c0.25-2.49-0.55-4.98-2.21-6.86C341.56,184.75,339.1,183.65,336.52,183.65L336.52,183.65z"/>
		</g>
	</g>
	<g>
		<g>
			<path class="st22" d="M67.31,195.65h269.21c1.15,0,2.13,0.65,2.63,1.58l0.34-4.21c0.22-1.79-1.17-3.37-2.98-3.37H67.31
				c-1.8,0-3.2,1.58-2.98,3.37l0.34,4.21C65.18,196.29,66.16,195.65,67.31,195.65z"/>
		</g>
	</g>
	<g>
		<g>
			<path class="st23" d="M327.71,327.65H76.12c-1.09,0-2.03-0.58-2.56-1.44l0.36,4.44c0,1.66,1.34,3,3,3h250c1.66,0,3-1.34,3-3
				l0.36-4.44C329.74,327.07,328.8,327.65,327.71,327.65z"/>
		</g>
	</g>
	<g>
		<g>
			<g>
				<path class="st3" d="M228.92,259c-1.66,0-3-1.34-3-3c0-2.76-2.24-5-5-5s-5,2.24-5,5c0,1.66-1.34,3-3,3s-3-1.34-3-3
					c0-6.07,4.93-11,11-11s11,4.93,11,11C231.92,257.65,230.57,259,228.92,259z"/>
			</g>
		</g>
		<g>
			<path class="st3" d="M214.83,230.17c0.97-0.61,1.8-0.98,2.74-1.32c0.92-0.34,1.88-0.57,2.86-0.73c1.96-0.31,4.04-0.27,6.11,0.17
				c2.07,0.42,4.12,1.4,5.82,2.78c0.42,0.36,0.82,0.73,1.21,1.1c0.35,0.42,0.68,0.85,1,1.28c0.33,0.43,0.59,0.89,0.81,1.38
				c0.22,0.48,0.43,0.96,0.6,1.46c0.44,1.35-0.29,2.8-1.64,3.24c-0.68,0.22-1.38,0.15-1.97-0.15l-0.52-0.27
				c-1.4-0.72-2.41-1.45-3.59-1.87c-1.14-0.45-2.23-0.89-3.49-1.16c-1.24-0.29-2.58-0.51-4-0.66c-0.71-0.09-1.45-0.16-2.2-0.22
				c-0.73-0.09-1.57-0.11-2.23-0.25l-0.69-0.15c-1.37-0.29-2.24-1.64-1.95-3C213.85,231.09,214.28,230.52,214.83,230.17z"/>
		</g>
		<g>
			<path class="st3" d="M187.49,234.94c-0.65,0.14-1.5,0.16-2.23,0.25c-0.75,0.07-1.48,0.14-2.2,0.22c-1.43,0.16-2.76,0.38-4,0.66
				c-1.26,0.28-2.35,0.71-3.49,1.16c-1.17,0.43-2.19,1.16-3.59,1.87l-0.51,0.26c-1.26,0.65-2.81,0.15-3.46-1.11
				c-0.33-0.63-0.36-1.35-0.16-1.98c0.16-0.49,0.37-0.97,0.6-1.46c0.22-0.49,0.48-0.95,0.81-1.38c0.32-0.43,0.65-0.86,1-1.28
				c0.39-0.37,0.79-0.75,1.21-1.1c1.7-1.38,3.75-2.36,5.82-2.78c2.07-0.44,4.14-0.48,6.11-0.17c0.98,0.16,1.94,0.39,2.86,0.73
				c0.95,0.35,1.77,0.71,2.74,1.32c1.18,0.75,1.54,2.31,0.79,3.49c-0.38,0.6-0.97,0.99-1.61,1.12L187.49,234.94z"/>
		</g>
		<g>
			<g>
				<path class="st3" d="M190.92,259c-1.66,0-3-1.34-3-3c0-2.76-2.24-5-5-5s-5,2.24-5,5c0,1.66-1.34,3-3,3s-3-1.34-3-3
					c0-6.07,4.93-11,11-11s11,4.93,11,11C193.92,257.65,192.57,259,190.92,259z"/>
			</g>
		</g>
	</g>
	<g>
		<g>
			<g>
				<path class="st3" d="M201.92,294.15c-12.41,0-22.5-10.09-22.5-22.5c0-1.38,1.12-2.5,2.5-2.5h40c1.38,0,2.5,1.12,2.5,2.5
					C224.42,284.05,214.32,294.15,201.92,294.15z"/>
			</g>
			<g>
				<path class="st3" d="M221.92,271.65L221.92,271.65 M221.92,271.65c0,11.05-8.95,20-20,20s-20-8.95-20-20H221.92 M221.92,266.65
					L221.92,266.65h-40.01c-2.76,0-5,2.24-5,5c0,13.79,11.21,25,25,25c13.73,0,24.9-11.12,25-24.82c0-0.06,0-0.12,0-0.18
					C226.92,268.89,224.68,266.65,221.92,266.65L221.92,266.65z M221.92,276.65L221.92,276.65L221.92,276.65L221.92,276.65z"/>
			</g>
		</g>
		<g>
			<g>
				<ellipse class="st12" cx="201.92" cy="284.98" rx="14.88" ry="6.67"/>
			</g>
		</g>
	</g>
</g>
</svg>
