<?xml version="1.0" encoding="utf-8"?>
<!-- Generator: Adobe Illustrator 25.0.1, SVG Export Plug-In . SVG Version: 6.00 Build 0)  -->
<svg version="1.1" id="Layer_1" xmlns="http://www.w3.org/2000/svg" xmlns:xlink="http://www.w3.org/1999/xlink" x="0px" y="0px"
	 viewBox="0 0 400 400" style="enable-background:new 0 0 400 400;" xml:space="preserve">
<style type="text/css">
	.st0{fill:#D8EBFB;}
	.st1{fill:#515979;}
	.st2{fill:#ACC9DB;}
	.st3{fill:#6ADAF7;}
	.st4{fill:#B4ECFB;}
	.st5{fill:#EF7D7D;}
</style>
<path class="st0" d="M115.1,315.2c-3,0-5.9-1-8.2-2.8c-2.4-1.8-4.1-4.3-4.8-7.2L67.8,177.7c-0.5-1.7-0.6-3.5-0.4-5.3
	c0.2-1.8,0.8-3.5,1.7-5c0.9-1.5,2.1-2.9,3.5-4c1.4-1.1,3-1.9,4.7-2.3l200.1-53.5c1.1-0.3,2.3-0.5,3.5-0.5c3,0,5.9,1,8.2,2.8
	c2.4,1.8,4.1,4.3,4.8,7.2l34.2,127.6c0.9,3.5,0.4,7.1-1.4,10.2c-1.8,3.1-4.7,5.4-8.2,6.3l-200.1,53.6
	C117.4,315.1,116.2,315.2,115.1,315.2L115.1,315.2z"/>
<path class="st1" d="M280.9,111.5c2,0,3.9,0.7,5.5,1.9c1.6,1.2,2.7,2.9,3.2,4.8l34.2,127.6c0.3,1.1,0.4,2.3,0.2,3.5
	s-0.5,2.3-1.1,3.3c-0.6,1-1.4,1.9-2.3,2.6c-0.9,0.7-2,1.2-3.2,1.6l-200,53.6c-1.1,0.3-2.3,0.4-3.5,0.2c-1.2-0.2-2.3-0.5-3.3-1.1
	c-1-0.6-1.9-1.4-2.6-2.3c-0.7-0.9-1.2-2-1.6-3.2L72.2,176.5c-0.3-1.1-0.4-2.3-0.2-3.5c0.2-1.2,0.5-2.3,1.1-3.3
	c0.6-1,1.4-1.9,2.3-2.6c0.9-0.7,2-1.2,3.2-1.6l200.1-53.6C279.4,111.7,280.1,111.5,280.9,111.5L280.9,111.5z M280.9,102.5
	c-1.6,0-3.1,0.2-4.7,0.6L76.2,156.8c-4.6,1.2-8.5,4.3-10.9,8.4c-2.4,4.1-3,9-1.8,13.7l34.2,127.6c0.6,2.3,1.7,4.4,3.1,6.3
	c1.4,1.9,3.2,3.4,5.3,4.6c2,1.2,4.3,1.9,6.7,2.3c2.3,0.3,4.7,0.1,7-0.5l200.1-53.6c4.6-1.2,8.5-4.3,10.9-8.4c2.4-4.1,3-9,1.8-13.6
	l-34.2-127.6c-1-3.8-3.3-7.2-6.4-9.6C288.8,103.8,284.9,102.5,280.9,102.5L280.9,102.5z"/>
<path class="st2" d="M197.6,246.2L69.8,167.8l6.3,23.6l112.4,69.8c1.7,1.1,3.7,1.8,5.7,2.1c2,0.3,4.1,0.2,6.1-0.4
	c2-0.5,3.8-1.5,5.4-2.7c1.6-1.3,2.9-2.9,3.9-4.7l5.9-11c-2.4,2.2-5.5,3.6-8.7,3.9C203.6,248.7,200.3,247.9,197.6,246.2L197.6,246.2z
	"/>
<path class="st2" d="M278.6,111.9l-46.8,12.5c-0.6,7.2,0.6,14.4,3.4,21c2.8,6.6,7.2,12.5,12.7,17.1c5.5,4.6,12.1,7.8,19.1,9.4
	c7,1.5,14.3,1.4,21.3-0.5c4.9-1.3,9.6-3.5,13.8-6.4l-12.5-46.8c-0.3-1.1-0.8-2.2-1.6-3.2c-0.7-0.9-1.6-1.7-2.6-2.3
	c-1-0.6-2.2-1-3.3-1.1S279.7,111.6,278.6,111.9L278.6,111.9z"/>
<path class="st1" d="M204,252.9c-3.6,0-7.2-1-10.3-2.9L67.5,171.6c-0.5-0.3-1-0.7-1.4-1.2c-0.4-0.5-0.7-1-0.8-1.6
	c-0.2-0.6-0.2-1.2-0.1-1.8c0.1-0.6,0.3-1.2,0.6-1.7c0.3-0.5,0.7-1,1.2-1.3c0.5-0.3,1.1-0.6,1.7-0.7c0.6-0.1,1.2-0.1,1.8,0
	c0.6,0.1,1.2,0.4,1.7,0.7l126.2,78.4c1.2,0.8,2.6,1.3,4,1.5c1.4,0.2,2.9,0.1,4.3-0.2c1.4-0.4,2.7-1,3.8-1.9c1.1-0.9,2.1-2,2.7-3.3
	l70.1-131c0.3-0.5,0.6-1,1.1-1.4c0.5-0.4,1-0.7,1.6-0.8c0.6-0.2,1.2-0.2,1.8-0.2c0.6,0.1,1.2,0.2,1.7,0.5c0.5,0.3,1,0.7,1.4,1.1
	c0.4,0.5,0.7,1,0.8,1.6c0.2,0.6,0.2,1.2,0.2,1.8s-0.2,1.2-0.5,1.7l-70.1,131c-1.3,2.4-3,4.4-5.1,6.1c-2.1,1.7-4.5,2.9-7.1,3.6
	C207.4,252.7,205.7,252.9,204,252.9L204,252.9z"/>
<path class="st1" d="M326.1,259c-0.9,0-1.7-0.3-2.5-0.7l-84.6-55c-0.6-0.3-1-0.7-1.4-1.2c-0.4-0.5-0.7-1.1-0.8-1.7
	c-0.2-0.6-0.2-1.2-0.1-1.9c0.1-0.6,0.3-1.2,0.7-1.7c0.3-0.5,0.8-1,1.3-1.3c0.5-0.3,1.1-0.6,1.7-0.7c0.6-0.1,1.3-0.1,1.9,0.1
	c0.6,0.2,1.2,0.4,1.7,0.8l84.6,55c0.8,0.5,1.4,1.3,1.8,2.2c0.3,0.9,0.4,1.9,0.1,2.8c-0.3,0.9-0.8,1.8-1.6,2.3
	C328.1,258.7,327.1,259,326.1,259L326.1,259z"/>
<path class="st1" d="M108.7,317.3c-0.8,0-1.5-0.2-2.2-0.6c-0.7-0.4-1.2-0.9-1.6-1.6s-0.6-1.4-0.7-2.2c0-0.8,0.1-1.5,0.5-2.2l45.8-90
	c0.3-0.5,0.6-1,1.1-1.4c0.4-0.4,1-0.7,1.5-0.9c0.6-0.2,1.2-0.3,1.7-0.2c0.6,0,1.2,0.2,1.7,0.5c0.5,0.3,1,0.6,1.4,1.1s0.7,1,0.9,1.5
	c0.2,0.6,0.3,1.2,0.2,1.7c0,0.6-0.2,1.2-0.5,1.7l-45.8,90c-0.4,0.7-0.9,1.4-1.7,1.8C110.3,317,109.5,317.3,108.7,317.3L108.7,317.3z
	"/>
<path class="st1" d="M197,160.9c0.6-1,1.3-1.9,2.1-2.7c0.8-0.8,1.7-1.5,2.6-2.1c2-1.3,4.3-2.1,6.7-2.3c2.4-0.3,4.9,0.1,7.1,1.2
	c1.1,0.5,2.1,1.1,3,1.8c0.9,0.7,1.6,1.5,2.3,2.4c0.2,0.3,0.4,0.7,0.5,1.1c0.1,0.4,0.1,0.8,0.1,1.2c0,0.4-0.2,0.8-0.4,1.1
	c-0.2,0.3-0.5,0.6-0.8,0.9c-0.3,0.3-0.7,0.4-1.1,0.5c-0.4,0.1-0.8,0.1-1.2,0.1l-0.8-0.1c-0.9-0.1-1.5-0.4-2.3-0.6
	c-0.7-0.2-1.3-0.3-2-0.4c-1.2-0.2-2.4-0.3-3.6-0.2c-1.3,0.1-2.5,0.4-3.8,0.8c-0.7,0.2-1.4,0.5-2,0.7c-0.7,0.2-1.5,0.6-2,0.8
	l-1.2,0.3c-0.8,0.2-1.5,0-2.2-0.4c-0.7-0.4-1.1-1-1.3-1.8C196.5,162.4,196.6,161.6,197,160.9L197,160.9z"/>
<path class="st1" d="M171.9,172.9c-0.6,0.2-1.5,0.2-2.2,0.3c-0.7,0.1-1.4,0.2-2.1,0.4c-1.3,0.3-2.5,0.7-3.6,1.2
	c-1.1,0.5-2.1,1.2-3,2c-0.5,0.4-1,0.9-1.5,1.4c-0.6,0.5-1,1.1-1.7,1.7l-0.6,0.5c-0.5,0.4-1.1,0.6-1.7,0.7c-0.6,0.1-1.2-0.1-1.8-0.4
	c-0.5-0.3-1-0.8-1.2-1.3c-0.3-0.6-0.3-1.2-0.2-1.8c0.1-1.1,0.4-2.2,0.8-3.2c0.4-1.1,1-2.1,1.7-3c1.4-2,3.4-3.6,5.6-4.6
	c2.2-1,4.6-1.4,6.9-1.3c1.1,0.1,2.2,0.2,3.3,0.5c1.1,0.3,2.2,0.7,3.2,1.3c0.5,0.3,0.9,0.7,1.1,1.2c0.2,0.5,0.3,1.1,0.3,1.6
	c-0.1,0.6-0.3,1.1-0.6,1.5c-0.4,0.4-0.8,0.8-1.4,1L171.9,172.9z"/>
<path class="st1" d="M165.3,197.2c-0.8,0-1.6-0.3-2.3-0.8c-0.7-0.5-1.1-1.2-1.3-2c-0.8-2.9-0.4-6,1.1-8.5c1.5-2.6,4-4.5,6.8-5.2
	c2.9-0.8,6-0.4,8.5,1.1c2.6,1.5,4.5,4,5.2,6.8c0.1,0.5,0.2,1,0.1,1.5c-0.1,0.5-0.2,1-0.5,1.4c-0.2,0.4-0.6,0.8-1,1.1
	c-0.4,0.3-0.8,0.5-1.3,0.7c-0.5,0.1-1,0.2-1.5,0.1c-0.5-0.1-1-0.2-1.4-0.5s-0.8-0.6-1.1-1s-0.5-0.9-0.6-1.3c-0.3-1-0.9-1.8-1.8-2.3
	c-0.9-0.5-1.9-0.6-2.8-0.4c-1,0.3-1.8,0.9-2.3,1.8c-0.3,0.4-0.4,0.9-0.5,1.4c-0.1,0.5,0,1,0.1,1.5c0.3,1,0.1,2-0.4,2.8
	c-0.5,0.9-1.3,1.5-2.3,1.8C165.9,197.2,165.6,197.2,165.3,197.2L165.3,197.2z"/>
<path class="st1" d="M203,187.2c-0.8,0-1.6-0.3-2.3-0.8c-0.7-0.5-1.1-1.2-1.3-2c-0.8-2.9-0.4-6,1.1-8.5c1.5-2.6,4-4.5,6.8-5.2
	c2.9-0.8,6-0.4,8.5,1.1c2.6,1.5,4.5,4,5.2,6.8c0.1,0.5,0.2,1,0.1,1.5c-0.1,0.5-0.2,1-0.5,1.4s-0.6,0.8-1,1.1
	c-0.4,0.3-0.8,0.5-1.3,0.7c-0.5,0.1-1,0.2-1.5,0.1c-0.5-0.1-1-0.2-1.4-0.5c-0.4-0.3-0.8-0.6-1.1-1s-0.5-0.9-0.6-1.3
	c-0.2-0.7-0.6-1.4-1.2-1.8c-0.6-0.5-1.2-0.8-2-0.9c-0.7-0.1-1.5,0-2.1,0.4c-0.7,0.3-1.2,0.8-1.6,1.5c-0.5,0.9-0.6,1.9-0.4,2.9
	c0.1,0.6,0.2,1.1,0.1,1.7c-0.1,0.6-0.4,1.1-0.7,1.5c-0.3,0.5-0.8,0.8-1.3,1.1C204.1,187,203.5,187.2,203,187.2z"/>
<path class="st1" d="M185.5,207.4c-4.2,0-8.3-0.6-12.3-1.7c-0.8-0.2-1.4-0.7-1.8-1.4c-0.4-0.7-0.5-1.5-0.2-2.3
	c0.2-0.8,0.7-1.4,1.4-1.8c0.7-0.4,1.5-0.5,2.3-0.2c13.5,3.9,29.2-0.3,37.4-10c0.5-0.6,1.2-0.9,2-0.9c0.8,0,1.5,0.2,2.1,0.7
	c0.6,0.5,1,1.2,1,2c0.1,0.8-0.1,1.5-0.6,2.1C209.5,202.5,197.6,207.4,185.5,207.4z"/>
<path class="st1" d="M191.8,212.2c2.1,0,4.2-0.2,6.3-0.7c1-0.3,2-0.6,3-1.1c1-0.4,1.9-0.9,2.8-1.5c0.2-0.1,0.5-0.2,0.7-0.3
	c0.3-0.1,0.5-0.1,0.8,0c0.3,0.1,0.5,0.2,0.7,0.3c0.2,0.1,0.4,0.3,0.5,0.5c0.2,0.3,0.3,0.7,0.3,1c0,0.4-0.1,0.7-0.2,1l-0.8,1.4
	c-0.7,1.2-1.6,2.2-2.8,2.9c-1.1,0.7-2.3,1.2-3.6,1.5c-0.6,0.2-1.3,0.3-1.9,0.3c-0.6,0.1-1.3,0.1-1.9,0c-1.3,0-2.6-0.4-3.8-0.9
	l-1.2-0.6c-0.5-0.2-0.9-0.7-1-1.2c-0.2-0.5-0.1-1.1,0.1-1.6c0.2-0.4,0.5-0.7,0.8-0.9C191,212.2,191.4,212.1,191.8,212.2z"/>
<path class="st3" d="M287.5,159.6c27.4,0,49.5-22.2,49.5-49.5c0-27.4-22.2-49.5-49.5-49.5c-27.4,0-49.5,22.2-49.5,49.5
	C237.9,137.4,260.1,159.6,287.5,159.6z"/>
<path class="st1" d="M287.5,65c8.9,0,17.6,2.6,25,7.6c7.4,4.9,13.2,12,16.6,20.2c3.4,8.2,4.3,17.3,2.6,26s-6,16.8-12.3,23.1
	c-6.3,6.3-14.3,10.6-23.1,12.3c-8.7,1.7-17.8,0.8-26-2.6c-8.2-3.4-15.3-9.2-20.2-16.6c-4.9-7.4-7.6-16.1-7.6-25
	c0-11.9,4.7-23.4,13.2-31.8C264.1,69.7,275.5,65,287.5,65L287.5,65z M287.5,56c-10.7,0-21.1,3.2-30,9.1
	c-8.9,5.9-15.8,14.4-19.9,24.2c-4.1,9.9-5.2,20.7-3.1,31.2c2.1,10.5,7.2,20.1,14.8,27.7s17.2,12.7,27.7,14.8
	c10.5,2.1,21.3,1,31.2-3.1c9.9-4.1,18.3-11,24.2-19.9c5.9-8.9,9.1-19.3,9.1-30c0-7.1-1.3-14.2-4-20.7c-2.7-6.6-6.7-12.6-11.7-17.6
	c-5-5-11-9-17.6-11.7C301.6,57.3,294.6,56,287.5,56L287.5,56z"/>
<path class="st4" d="M287.5,71c11.4,0,22.4,4.3,30.8,12.1c8.3,7.8,13.4,18.5,14.2,29.9c0-1,0.1-2,0.1-3c0-11.9-4.7-23.4-13.2-31.8
	c-8.4-8.4-19.9-13.2-31.8-13.2c-11.9,0-23.4,4.7-31.8,13.2c-8.4,8.4-13.2,19.9-13.2,31.8c0,1,0,2,0.1,3c0.8-11.4,5.8-22.1,14.2-29.9
	C265,75.4,276,71,287.5,71L287.5,71z"/>
<path class="st5" d="M287.5,134.8c-0.6,0-1.2-0.1-1.8-0.4c-1-0.4-25.2-11.2-25.2-29.1c0-4.5,1.8-8.8,5-12c3.2-3.2,7.5-5,12-5
	c3.6,0,7.1,1.1,10,3.3c2.9-2.1,6.4-3.3,10-3.3c4.5,0,8.8,1.8,12,5c3.2,3.2,5,7.5,5,12c0,18-24.2,28.7-25.2,29.1
	C288.7,134.7,288.1,134.8,287.5,134.8L287.5,134.8z"/>
<path class="st1" d="M297.5,92.8c3.3,0,6.5,1.3,8.8,3.7c2.3,2.3,3.7,5.5,3.7,8.8c0,15.3-22.5,25-22.5,25s-22.5-9.8-22.5-25
	c0-2.6,0.8-5.2,2.4-7.3c1.5-2.1,3.7-3.7,6.2-4.6c2.5-0.8,5.2-0.9,7.7-0.1c2.5,0.8,4.7,2.3,6.3,4.4c1.2-1.6,2.7-2.8,4.4-3.7
	C293.6,93.2,295.5,92.7,297.5,92.8L297.5,92.8z M297.5,83.7c-3.5,0-6.9,0.9-10,2.5c-3.3-1.7-6.9-2.6-10.6-2.5
	c-3.7,0.1-7.3,1.2-10.5,3.1c-3.2,1.9-5.8,4.6-7.6,7.8c-1.8,3.2-2.8,6.9-2.8,10.6c0,20.5,25.1,32,27.9,33.3c1.1,0.5,2.4,0.8,3.6,0.8
	c1.2,0,2.5-0.3,3.6-0.8c2.9-1.2,27.9-12.8,27.9-33.3c0-5.7-2.3-11.2-6.3-15.2C308.6,86,303.2,83.8,297.5,83.7L297.5,83.7z"/>
</svg>
