<?xml version="1.0" encoding="utf-8"?>
<!-- Generator: Adobe Illustrator 26.0.2, SVG Export Plug-In . SVG Version: 6.00 Build 0)  -->
<svg version="1.1" id="Facebook_x5F_Hub-Facebook_x5F_Ads_x5F_Resources"
	 xmlns="http://www.w3.org/2000/svg" xmlns:xlink="http://www.w3.org/1999/xlink" x="0px" y="0px" viewBox="0 0 400 400"
	 style="enable-background:new 0 0 400 400;" xml:space="preserve">
<style type="text/css">
	.st0{fill:#1877F2;}
	.st1{fill:#FFD886;}
	.st2{fill:none;}
	.st3{fill:#B29D90;}
	.st4{fill:#515979;}
	.st5{fill:#FFFFFF;}
	.st6{fill:#D8EBFB;}
	.st7{fill:#BAD2E1;}
	.st8{fill:#F89D81;}
	.st9{fill:#EF7D7D;}
	.st10{fill:#FFE8A0;}
	.st11{fill:#FFF3CF;}
	.st12{fill:#75A5C3;}
</style>
<g>
	<path class="st0" d="M89,5.13c-44.18,0-80,35.82-80,80c0,39.93,29.25,73.03,67.5,79.03l0-55.9l-20.31,0l0-23.12l20.31,0l0-17.62
		c0-20.05,11.94-31.13,30.22-31.13c8.75,0,17.91,1.56,17.91,1.56l0,19.69l-10.09,0c-9.94,0-13.04,6.17-13.04,12.49l0,15.01l22.19,0
		l-3.55,23.12l-18.64,0l0,55.9c38.25-6,67.5-39.1,67.5-79.03C169,40.95,133.18,5.13,89,5.13z"/>
</g>
<g>
	<path class="st1" d="M288.17,116.96c-2.17,0-3.94-1.77-3.94-3.94c0-0.72-0.59-1.31-1.31-1.31c-0.72,0-1.31,0.59-1.31,1.31
		c0,2.17-1.77,3.94-3.94,3.94c-0.72,0-1.31,0.59-1.31,1.31s0.59,1.31,1.31,1.31c2.17,0,3.94,1.77,3.94,3.94
		c0,0.72,0.59,1.31,1.31,1.31c0.72,0,1.31-0.59,1.31-1.31c0-2.17,1.77-3.94,3.94-3.94c0.72,0,1.31-0.59,1.31-1.31
		S288.89,116.96,288.17,116.96z"/>
</g>
<g>
	<path class="st1" d="M200.03,95.56c-2.17,0-3.94-1.77-3.94-3.94c0-0.72-0.59-1.31-1.31-1.31c-0.72,0-1.31,0.59-1.31,1.31
		c0,2.17-1.77,3.94-3.94,3.94c-0.72,0-1.31,0.59-1.31,1.31c0,0.72,0.59,1.31,1.31,1.31c2.17,0,3.94,1.77,3.94,3.94
		c0,0.72,0.59,1.31,1.31,1.31c0.72,0,1.31-0.59,1.31-1.31c0-2.17,1.77-3.94,3.94-3.94c0.72,0,1.31-0.59,1.31-1.31
		C201.34,96.14,200.75,95.56,200.03,95.56z"/>
</g>
<g>
	<path class="st1" d="M273.28,36.38c-3.31,0-6-2.69-6-6c0-1.1-0.9-2-2-2s-2,0.9-2,2c0,3.31-2.69,6-6,6c-1.1,0-2,0.9-2,2s0.9,2,2,2
		c3.31,0,6,2.69,6,6c0,1.1,0.9,2,2,2s2-0.9,2-2c0-3.31,2.69-6,6-6c1.1,0,2-0.9,2-2S274.38,36.38,273.28,36.38z"/>
</g>
<g>
	<circle class="st1" cx="214.28" cy="117.08" r="4.5"/>
</g>
<g>
	<circle class="st1" cx="77.66" cy="204.5" r="4.5"/>
</g>
<g>
	<circle class="st1" cx="204.78" cy="40.88" r="4.5"/>
</g>
<g>
	<circle class="st1" cx="136.78" cy="236.36" r="2.5"/>
</g>
<g>
	<circle class="st1" cx="183.78" cy="134.65" r="2.5"/>
</g>
<g>
	<circle class="st1" cx="265.28" cy="69.12" r="2.5"/>
</g>
<g>
	<circle class="st1" cx="255.28" cy="97.8" r="2.5"/>
</g>
<g>
	<circle class="st1" cx="118.07" cy="190.35" r="2.5"/>
</g>
<g>
	<circle class="st1" cx="100.91" cy="226.46" r="2.5"/>
</g>
<g>
	<circle class="st1" cx="47.36" cy="187.85" r="2.5"/>
</g>
<path class="st1" d="M38.6,228.92h-6v-6c0-1.66-1.34-3-3-3s-3,1.34-3,3v6h-6c-1.66,0-3,1.34-3,3s1.34,3,3,3h6v6c0,1.66,1.34,3,3,3
	s3-1.34,3-3v-6h6c1.66,0,3-1.34,3-3S40.26,228.92,38.6,228.92z"/>
<g>
	<rect x="-0.63" y="0.79" class="st2" width="400" height="400"/>
</g>
<g>
	<g>
		<g>
			<path class="st3" d="M180.28,383.36c-8.27,0-15-6.73-15-15v-180c0-8.27,6.73-15,15-15h150c8.27,0,15,6.73,15,15v180
				c0,8.27-6.73,15-15,15H180.28z"/>
		</g>
		<g>
			<path class="st4" d="M330.28,176.36c6.63,0,12,5.37,12,12v180c0,6.63-5.37,12-12,12h-150c-6.63,0-12-5.37-12-12v-180
				c0-6.63,5.37-12,12-12H330.28 M330.28,170.36h-150c-9.93,0-18,8.07-18,18v180c0,9.93,8.07,18,18,18h150c9.93,0,18-8.07,18-18
				v-180C348.28,178.44,340.2,170.36,330.28,170.36L330.28,170.36z"/>
		</g>
	</g>
	<g>
		<g>
			<path class="st5" d="M184.28,371.37c-3.86,0-7-3.14-7-7v-172c0-3.86,3.14-7,7-7h142c3.86,0,7,3.14,7,7v152
				c0,0.8-0.32,1.56-0.88,2.12l-24,24c-0.56,0.56-1.33,0.88-2.12,0.88H184.28z"/>
		</g>
		<g>
			<path class="st4" d="M326.28,188.36c2.21,0,4,1.79,4,4v152l-24,24h-122c-2.21,0-4-1.79-4-4v-172c0-2.21,1.79-4,4-4H326.28
				 M326.28,182.36h-142c-5.51,0-10,4.49-10,10v172c0,5.51,4.49,10,10,10h122c1.59,0,3.12-0.63,4.24-1.76l24-24
				c1.13-1.13,1.76-2.65,1.76-4.24v-152C336.28,186.85,331.79,182.36,326.28,182.36L326.28,182.36z"/>
		</g>
	</g>
	<g>
		<g>
			<path class="st6" d="M306.28,371.37c-0.39,0-0.78-0.07-1.15-0.23c-1.12-0.46-1.85-1.56-1.85-2.77v-19.2c0-4.3,3.5-7.8,7.8-7.8
				h19.2c1.21,0,2.31,0.73,2.77,1.85c0.46,1.12,0.21,2.41-0.65,3.27l-24,24C307.83,371.06,307.06,371.37,306.28,371.37z"/>
		</g>
		<g>
			<path class="st4" d="M330.28,344.36l-24,24v-19.2c0-2.65,2.15-4.8,4.8-4.8H330.28 M330.28,338.36h-19.2
				c-5.96,0-10.8,4.84-10.8,10.8v19.2c0,2.43,1.46,4.61,3.7,5.54c0.74,0.31,1.52,0.46,2.29,0.46c1.56,0,3.1-0.61,4.24-1.76l24-24
				c1.72-1.72,2.23-4.3,1.3-6.54C334.89,339.83,332.7,338.36,330.28,338.36L330.28,338.36z M330.28,350.36L330.28,350.36
				L330.28,350.36L330.28,350.36z"/>
		</g>
	</g>
	<g>
		<path class="st4" d="M265.28,282.36h-26c-1.66,0-3-1.34-3-3l0,0c0-1.66,1.34-3,3-3h26c1.66,0,3,1.34,3,3l0,0
			C268.28,281.02,266.93,282.36,265.28,282.36z"/>
	</g>
	<g>
		<path class="st4" d="M307.28,270.36h-68c-1.66,0-3-1.34-3-3l0,0c0-1.66,1.34-3,3-3h68c1.66,0,3,1.34,3,3l0,0
			C310.28,269.02,308.93,270.36,307.28,270.36z"/>
	</g>
	<g>
		<g>
			<g>
				<path class="st7" d="M205.28,197.36c-1.66,0-3-1.34-3-3v-16c0-6.07,4.93-11,11-11h25.28c-1.48-2.74-2.28-5.83-2.28-9
					c0-10.48,8.52-19,19-19c0.72,0,1.45,0.04,2.17,0.12c8.56,0.95,15.57,7.84,16.67,16.39c0.52,4.02-0.26,8.03-2.12,11.49h25.28
					c6.07,0,11,4.93,11,11v16c0,1.66-1.34,3-3,3H205.28z M255.28,153.36c-0.33,0-0.67,0.03-1.01,0.1c-1.93,0.37-3.53,1.97-3.9,3.9
					c-0.29,1.54,0.08,3.02,1.05,4.19c0.96,1.15,2.36,1.81,3.85,1.81c0.33,0,0.67-0.03,1.01-0.1c1.93-0.37,3.53-1.97,3.9-3.9
					c0.29-1.53-0.08-3.02-1.05-4.19C258.18,154.03,256.77,153.36,255.28,153.36z"/>
			</g>
		</g>
		<g>
			<g>
				<path class="st4" d="M255.28,142.36c0.6,0,1.22,0.03,1.84,0.1c7.23,0.8,13.1,6.57,14.03,13.79c0.72,5.63-1.49,10.75-5.31,14.11
					h31.44c4.42,0,8,3.58,8,8v16h-100v-16c0-4.42,3.58-8,8-8h31.44c-3.33-2.93-5.44-7.21-5.44-12
					C239.28,149.53,246.44,142.36,255.28,142.36 M255.28,166.36c0.51,0,1.04-0.05,1.57-0.15c3.15-0.6,5.69-3.14,6.29-6.29
					c0.97-5.11-2.92-9.57-7.85-9.57c-0.51,0-1.04,0.05-1.57,0.15c-3.15,0.6-5.69,3.14-6.29,6.29
					C246.46,161.9,250.35,166.36,255.28,166.36 M255.28,136.36C255.28,136.36,255.28,136.36,255.28,136.36
					c-5.88,0-11.4,2.29-15.56,6.44c-4.16,4.16-6.44,9.68-6.44,15.56c0,2.05,0.29,4.07,0.84,6h-20.84c-7.72,0-14,6.28-14,14v16
					c0,3.31,2.69,6,6,6h100c3.31,0,6-2.69,6-6v-16c0-7.72-6.28-14-14-14h-20.85c0.81-2.84,1.05-5.85,0.66-8.87
					c-1.27-9.9-9.39-17.88-19.32-18.99C256.95,136.41,256.11,136.36,255.28,136.36L255.28,136.36z M255.28,160.36
					c-0.82,0-1.32-0.46-1.54-0.73c-0.27-0.33-0.57-0.9-0.41-1.72c0.14-0.72,0.79-1.37,1.51-1.51c0.15-0.03,0.3-0.04,0.45-0.04
					c0.82,0,1.32,0.46,1.54,0.73c0.27,0.33,0.57,0.9,0.41,1.72c-0.14,0.72-0.79,1.37-1.51,1.51
					C255.57,160.35,255.42,160.36,255.28,160.36L255.28,160.36z"/>
			</g>
		</g>
	</g>
	<g>
		<line class="st7" x1="220.28" y1="182.36" x2="290.28" y2="182.36"/>
		<path class="st4" d="M290.28,185.36h-70c-1.66,0-3-1.34-3-3s1.34-3,3-3h70c1.66,0,3,1.34,3,3S291.93,185.36,290.28,185.36z"/>
	</g>
	<g>
		<g>
			<path class="st5" d="M206.28,285.36c-1.66,0-3-1.34-3-3v-18c0-1.66,1.34-3,3-3h18c1.66,0,3,1.34,3,3v18c0,1.66-1.34,3-3,3H206.28
				z"/>
		</g>
		<g>
			<path class="st4" d="M224.28,264.36v18h-18v-18H224.28 M224.28,258.36h-18c-3.31,0-6,2.69-6,6v18c0,3.31,2.69,6,6,6h18
				c3.31,0,6-2.69,6-6v-18C230.28,261.05,227.59,258.36,224.28,258.36L224.28,258.36z"/>
		</g>
	</g>
	<g>
		<path class="st8" d="M216.73,279.36L216.73,279.36c-0.85,0-1.65-0.36-2.22-0.98l-5.45-6c-1.11-1.23-1.02-3.12,0.2-4.24
			s3.12-1.02,4.24,0.2l3.23,3.56l12.33-13.56c1.11-1.23,3.01-1.32,4.24-0.2c1.23,1.11,1.32,3.01,0.2,4.24l-14.55,16
			C218.38,279.01,217.58,279.36,216.73,279.36z"/>
	</g>
	<g>
		<path class="st4" d="M285.28,318.36h-46c-1.66,0-3-1.34-3-3l0,0c0-1.66,1.34-3,3-3h46c1.66,0,3,1.34,3,3l0,0
			C288.28,317.02,286.93,318.36,285.28,318.36z"/>
	</g>
	<g>
		<path class="st4" d="M307.28,306.36h-68c-1.66,0-3-1.34-3-3l0,0c0-1.66,1.34-3,3-3h68c1.66,0,3,1.34,3,3l0,0
			C310.28,305.02,308.93,306.36,307.28,306.36z"/>
	</g>
	<g>
		<path class="st4" d="M249.28,352.36h-46c-1.66,0-3-1.34-3-3l0,0c0-1.66,1.34-3,3-3h46c1.66,0,3,1.34,3,3l0,0
			C252.28,351.02,250.93,352.36,249.28,352.36z"/>
	</g>
	<g>
		<path class="st4" d="M271.28,340.36h-68c-1.66,0-3-1.34-3-3l0,0c0-1.66,1.34-3,3-3h68c1.66,0,3,1.34,3,3l0,0
			C274.28,339.02,272.93,340.36,271.28,340.36z"/>
	</g>
	<g>
		<g>
			<path class="st5" d="M206.28,321.36c-1.66,0-3-1.34-3-3v-18c0-1.66,1.34-3,3-3h18c1.66,0,3,1.34,3,3v18c0,1.66-1.34,3-3,3H206.28
				z"/>
		</g>
		<g>
			<path class="st4" d="M224.28,300.36v18h-18v-18H224.28 M224.28,294.36h-18c-3.31,0-6,2.69-6,6v18c0,3.31,2.69,6,6,6h18
				c3.31,0,6-2.69,6-6v-18C230.28,297.05,227.59,294.36,224.28,294.36L224.28,294.36z"/>
		</g>
	</g>
	<g>
		<path class="st8" d="M216.73,315.36L216.73,315.36c-0.85,0-1.65-0.36-2.22-0.98l-5.45-6c-1.11-1.23-1.02-3.12,0.2-4.24
			s3.12-1.02,4.24,0.2l3.23,3.56l12.33-13.56c1.11-1.23,3.01-1.32,4.24-0.2c1.23,1.11,1.32,3.01,0.2,4.24l-14.55,16
			C218.38,315.01,217.58,315.36,216.73,315.36z"/>
	</g>
	<g>
		<g>
			<g>
				<path class="st4" d="M263.78,228.96c-0.71,0-1.4-0.38-1.76-1.05c-0.52-0.97-0.16-2.19,0.82-2.71c3.05-1.64,7.83-1.64,10.89,0
					c0.97,0.52,1.34,1.73,0.82,2.71c-0.52,0.97-1.73,1.34-2.71,0.82c-1.9-1.02-5.22-1.02-7.11,0
					C264.42,228.89,264.1,228.96,263.78,228.96z"/>
			</g>
			<g>
				<g>
					<circle class="st4" cx="268.28" cy="219.21" r="7"/>
				</g>
				<g>
					<circle class="st5" cx="270.03" cy="219.21" r="1.75"/>
				</g>
			</g>
			<g>
				<path class="st4" d="M264.05,205.03c3.7-2.29,8.96-1.89,12.03,1.33c1.57,1.57,3.49,5.3,0.49,6.24c-0.74,0.19-1.4-0.13-1.97-0.54
					c-2.44-1.9-4.85-2.79-7.91-3.04c-0.74-0.07-1.47-0.17-2.14-0.4C262.92,208.21,262.61,205.85,264.05,205.03L264.05,205.03z"/>
			</g>
			<g>
				<path class="st4" d="M237.78,228.96c-0.71,0-1.4-0.38-1.76-1.05c-0.52-0.97-0.16-2.19,0.82-2.71c3.05-1.64,7.83-1.64,10.89,0
					c0.97,0.52,1.34,1.73,0.82,2.71c-0.52,0.97-1.73,1.34-2.71,0.82c-1.9-1.02-5.22-1.02-7.11,0
					C238.42,228.89,238.1,228.96,237.78,228.96z"/>
			</g>
			<g>
				<g>
					<circle class="st4" cx="242.28" cy="219.21" r="7"/>
				</g>
				<g>
					<circle class="st5" cx="244.03" cy="219.21" r="1.75"/>
				</g>
			</g>
			<g>
				<path class="st4" d="M245.29,209.27c-1.64,0.12-3.63,0.06-5.19,0.46c-1.68,0.37-2.76,1.03-4.35,1.94
					c-1.07,0.75-2.56,0.59-3.2-0.62c-0.27-0.5-0.3-1.08-0.14-1.58c0.42-1.32,1.19-2.63,2.36-3.6c2.76-2.47,7.01-2.8,10.28-1.34
					c1.51,0.61,3.52,1.98,2.22,3.84C246.82,209.03,246,209.15,245.29,209.27L245.29,209.27z"/>
			</g>
		</g>
		<g>
			<path class="st4" d="M269.28,231.36L269.28,231.36h-28.01c-2.76,0-5,2.24-5,5c0,10.48,8.52,19,19,19c10.41,0,18.9-8.42,19-18.81
				c0-0.06,0-0.12,0-0.19C274.28,233.6,272.04,231.36,269.28,231.36z"/>
			<g>
				<g>
					<ellipse class="st9" cx="255.28" cy="245.7" rx="10.41" ry="4.67"/>
				</g>
			</g>
		</g>
	</g>
</g>
<g>
	<g>
		<g>
			<path class="st10" d="M350.33,130.38c-0.26,0-0.52-0.03-0.78-0.1l-32.84-8.8c-1.6-0.43-2.55-2.07-2.12-3.67
				c2.79-10.41-0.16-17.21-3.57-25.09c-3.91-9.03-8.35-19.27-3.89-35.92c5.03-18.77,22.1-31.88,41.51-31.88
				c3.75,0,7.5,0.5,11.15,1.48c22.9,6.14,36.54,29.76,30.41,52.66c-4.46,16.66-13.42,23.3-21.33,29.17
				c-6.9,5.11-12.85,9.53-15.64,19.94c-0.21,0.77-0.71,1.42-1.4,1.82C351.37,130.25,350.85,130.38,350.33,130.38z"/>
		</g>
		<g>
			<g>
				<path class="st4" d="M348.63,27.92c3.43,0,6.91,0.44,10.38,1.37c21.34,5.72,34,27.65,28.28,48.99
					c-7.97,29.73-30.51,25.01-36.97,49.1l-32.84-8.8c6.46-24.1-15.43-31.28-7.46-61.01C314.81,39.7,330.97,27.92,348.63,27.92
					 M348.63,21.92c-20.77,0-39.03,14.02-44.41,34.1c-4.73,17.67,0.13,28.88,4.03,37.89c3.32,7.67,5.95,13.72,3.43,23.12
					c-0.86,3.2,1.04,6.49,4.24,7.35l32.84,8.8c0.52,0.14,1.04,0.21,1.56,0.21c2.65,0,5.07-1.77,5.79-4.45
					c2.52-9.4,7.82-13.33,14.53-18.31c7.89-5.85,17.71-13.13,22.44-30.8c6.56-24.5-8.03-49.77-32.53-56.34
					C356.66,22.45,352.64,21.92,348.63,21.92L348.63,21.92z"/>
			</g>
		</g>
	</g>
	<g>
		<path class="st4" d="M348.86,88.04c-5.53,0-11.23-2.43-15.23-6.8c-0.75-0.81-0.69-2.08,0.12-2.83c0.81-0.75,2.08-0.69,2.83,0.12
			c4.41,4.82,11.62,6.77,17.13,4.63c1.03-0.4,2.19,0.11,2.59,1.14c0.4,1.03-0.11,2.19-1.14,2.59
			C353.15,87.66,351.02,88.04,348.86,88.04z"/>
	</g>
	<g>
		<g>
			<path class="st4" d="M360.74,82.27c-0.29,0-0.58-0.08-0.84-0.26c-1.67-1.13-4.77-1.96-6.78-1.82c-0.81,0.06-1.54-0.56-1.6-1.39
				c-0.06-0.83,0.56-1.54,1.39-1.6c2.65-0.19,6.46,0.83,8.67,2.32c0.69,0.46,0.87,1.4,0.4,2.08
				C361.7,82.04,361.23,82.27,360.74,82.27z"/>
		</g>
		<g>
			<g>
				<circle class="st4" cx="358.75" cy="72.77" r="6.5"/>
			</g>
			<g>
				<circle class="st5" cx="360.32" cy="73.19" r="1.62"/>
			</g>
		</g>
		<g>
			<path class="st4" d="M339.49,76.57c-0.29,0-0.58-0.08-0.84-0.26c-1.67-1.13-4.77-1.95-6.78-1.82c-0.82,0.07-1.54-0.56-1.6-1.39
				c-0.06-0.83,0.56-1.54,1.39-1.6c2.65-0.19,6.46,0.83,8.67,2.32c0.69,0.46,0.87,1.4,0.4,2.08
				C340.45,76.34,339.98,76.57,339.49,76.57z"/>
		</g>
		<g>
			<g>
				<circle class="st4" cx="337.5" cy="67.08" r="6.5"/>
			</g>
			<g>
				<circle class="st5" cx="339.07" cy="67.5" r="1.62"/>
			</g>
		</g>
		<g>
			<path class="st4" d="M357.64,60c4.31-1.88,10.31-0.19,12.03,4.41c0.58,1.68-1.29,2.93-2.7,1.96c-2.73-1.69-5.64-2.41-8.74-3.09
				C356.46,63.02,356,60.79,357.64,60L357.64,60z"/>
		</g>
		<g>
			<path class="st4" d="M342.69,59.12c-3.02-0.96-5.9-1.8-9.11-1.7c-1.07,0.07-2.06-0.71-1.98-1.83c0.03-0.49,0.27-0.92,0.62-1.21
				c0.91-0.75,2.05-1.33,3.27-1.52c2.35-0.47,4.84,0.15,6.82,1.39c1.36,0.87,4.15,3.02,2.18,4.68
				C343.94,59.35,343.28,59.3,342.69,59.12L342.69,59.12z"/>
		</g>
	</g>
	<g>
		<path class="st11" d="M378.19,65c-1.47,0-2.76-1.09-2.97-2.59c-1.4-10.06-8.65-18.26-18.46-20.89c-1.6-0.43-2.55-2.07-2.12-3.67
			c0.43-1.6,2.08-2.55,3.67-2.12c12.15,3.25,21.11,13.4,22.85,25.86c0.23,1.64-0.92,3.16-2.56,3.38
			C378.47,64.99,378.33,65,378.19,65z"/>
	</g>
	<g>
		<g>
			<path class="st4" d="M327.92,120.27c-1.09,0-1.99-0.88-2-1.98l-0.29-25.96c-0.01-1.1,0.87-2.01,1.98-2.02c0.01,0,0.02,0,0.02,0
				c1.09,0,1.99,0.88,2,1.98l0.29,25.96c0.01,1.1-0.87,2.01-1.98,2.02C327.93,120.27,327.93,120.27,327.92,120.27z"/>
		</g>
		<g>
			<path class="st4" d="M341.44,123.9c-0.35,0-0.7-0.09-1.02-0.28c-0.95-0.56-1.26-1.79-0.7-2.74l13.23-22.34
				c0.56-0.95,1.79-1.26,2.74-0.7c0.95,0.56,1.26,1.79,0.7,2.74l-13.23,22.34C342.79,123.55,342.12,123.9,341.44,123.9z"/>
		</g>
		<g>
			<path class="st4" d="M345.4,105.29c-0.64,0-1.25-0.3-1.64-0.85l-3.54-5.02l-5.58,2.58c-0.84,0.39-1.84,0.15-2.41-0.58l-6.17-7.87
				c-0.68-0.87-0.53-2.13,0.34-2.81c0.87-0.68,2.12-0.53,2.81,0.34l5.2,6.62l5.65-2.61c0.88-0.4,1.92-0.13,2.47,0.66l3.59,5.09
				l7.81-3.14c1.02-0.41,2.19,0.09,2.6,1.11s-0.09,2.19-1.11,2.6l-9.28,3.73C345.9,105.24,345.64,105.29,345.4,105.29z"/>
		</g>
	</g>
	<g>
		<g>
			<path class="st12" d="M328.65,159.7c-0.44,0-0.87-0.06-1.29-0.17l-6.05-1.62c-2.13-0.57-3.63-2.47-3.7-4.66l-0.65-6.86
				l19.94,5.34l-4,5.62C331.98,158.81,330.37,159.7,328.65,159.7z"/>
		</g>
		<g>
			<path class="st4" d="M320.34,150.41l11.59,3.11l-1.56,2.19c-0.36,0.63-1.03,1-1.73,1c-0.17,0-0.35-0.02-0.52-0.07l-6.05-1.62
				c-0.88-0.23-1.48-1.03-1.48-1.93L320.34,150.41 M313.55,142.38l0.82,8.6l0.24,2.48c0.16,3.46,2.55,6.45,5.92,7.35l6.05,1.62
				c0.68,0.18,1.37,0.27,2.07,0.27c2.72,0,5.27-1.4,6.73-3.68l1.45-2.03l5.01-7.04l-8.34-2.24l-11.59-3.11L313.55,142.38
				L313.55,142.38z"/>
		</g>
	</g>
	<g>
		<g>
			<path class="st7" d="M341.29,152.67c-0.61,0-1.22-0.08-1.81-0.24l-25.11-6.73c-1.81-0.48-3.32-1.64-4.25-3.26
				s-1.18-3.51-0.7-5.31l5.95-22.22L354,125.26l-5.95,22.22C347.23,150.53,344.45,152.67,341.29,152.67z"/>
		</g>
		<g>
			<path class="st4" d="M317.48,118.58l32.84,8.8l-5.18,19.32c-0.48,1.79-2.1,2.97-3.86,2.97c-0.34,0-0.69-0.04-1.04-0.14
				l-25.11-6.73c-2.13-0.57-3.4-2.77-2.83-4.9L317.48,118.58 M313.24,111.23l-1.55,5.8l-5.18,19.32c-0.69,2.58-0.34,5.27,1,7.59
				c1.34,2.31,3.49,3.97,6.07,4.66l25.11,6.73c0.85,0.23,1.72,0.34,2.59,0.34c4.52,0,8.49-3.05,9.66-7.41l5.18-19.32l1.55-5.8
				l-5.8-1.55l-32.84-8.8L313.24,111.23L313.24,111.23z"/>
		</g>
	</g>
	<g>
		<line class="st12" x1="312.26" y1="126.5" x2="351.93" y2="132.99"/>
		<path class="st4" d="M351.93,135.99c-0.16,0-0.32-0.01-0.49-0.04l-39.67-6.49c-1.63-0.27-2.74-1.81-2.48-3.44
			c0.27-1.64,1.81-2.74,3.45-2.48l39.67,6.49c1.63,0.27,2.74,1.81,2.48,3.44C354.65,134.94,353.38,135.99,351.93,135.99z"/>
	</g>
	<g>
		<line class="st12" x1="309.67" y1="136.16" x2="349.34" y2="142.65"/>
		<path class="st4" d="M349.34,145.65c-0.16,0-0.32-0.01-0.49-0.04l-39.67-6.49c-1.63-0.27-2.74-1.81-2.48-3.44
			c0.27-1.64,1.81-2.75,3.45-2.48l39.67,6.49c1.63,0.27,2.74,1.81,2.48,3.44C352.06,144.6,350.79,145.65,349.34,145.65z"/>
	</g>
</g>
<g>
	<g>
		<g>
			<path class="st10" d="M88.08,362.83c-0.52,0-1.04-0.14-1.5-0.4c-0.69-0.4-1.19-1.05-1.4-1.82c-2.79-10.41-8.74-14.82-15.64-19.94
				c-7.91-5.86-16.87-12.51-21.33-29.17c-6.14-22.9,7.5-46.53,30.41-52.66c3.65-0.98,7.41-1.47,11.15-1.47
				c19.41,0,36.48,13.11,41.51,31.88c4.46,16.66,0.03,26.89-3.89,35.92c-3.41,7.88-6.36,14.68-3.57,25.09
				c0.21,0.77,0.1,1.59-0.3,2.28s-1.05,1.19-1.82,1.4l-32.84,8.8C88.61,362.8,88.34,362.83,88.08,362.83z"/>
		</g>
		<g>
			<g>
				<path class="st4" d="M89.78,260.36c17.66,0,33.82,11.79,38.61,29.66c7.97,29.73-13.92,36.91-7.46,61.01l-32.84,8.8
					c-6.46-24.1-29-19.37-36.97-49.1c-5.72-21.34,6.95-43.27,28.28-48.99C82.87,260.81,86.35,260.36,89.78,260.36 M89.78,254.36
					c-4.01,0-8.02,0.53-11.93,1.58c-11.87,3.18-21.79,10.79-27.93,21.43c-6.14,10.64-7.78,23.04-4.6,34.91
					c4.73,17.67,14.55,24.95,22.44,30.8c6.71,4.98,12.01,8.91,14.53,18.31c0.41,1.54,1.42,2.85,2.8,3.64c0.92,0.53,1.96,0.8,3,0.8
					c0.52,0,1.04-0.07,1.55-0.2l32.84-8.8c3.2-0.86,5.1-4.15,4.24-7.35c-2.52-9.4,0.11-15.45,3.43-23.12
					c3.91-9.01,8.77-20.23,4.03-37.89C128.8,268.39,110.54,254.36,89.78,254.36L89.78,254.36z"/>
			</g>
		</g>
	</g>
	<g>
		<path class="st4" d="M89.71,320.38c-2.11,0-4.25-0.31-6.32-0.97c-1.05-0.33-1.64-1.46-1.31-2.51c0.33-1.05,1.46-1.64,2.51-1.31
			c6.23,1.96,13.44,0.05,17.15-4.55c0.69-0.86,1.95-1,2.81-0.3c0.86,0.69,1,1.95,0.3,2.81C101.34,317.92,95.62,320.38,89.71,320.38z
			"/>
	</g>
	<g>
		<g>
			<path class="st4" d="M98.92,309.02c-0.48,0-0.95-0.23-1.24-0.66c-0.46-0.69-0.28-1.62,0.4-2.08c2.21-1.49,6.02-2.51,8.67-2.32
				c0.83,0.06,1.45,0.78,1.39,1.6c-0.06,0.83-0.77,1.46-1.6,1.39c-2.01-0.15-5.12,0.69-6.78,1.82
				C99.5,308.94,99.21,309.02,98.92,309.02z"/>
		</g>
		<g>
			<g>
				<circle class="st4" cx="100.91" cy="299.53" r="6.5"/>
			</g>
			<g>
				<circle class="st5" cx="102.48" cy="299.11" r="1.62"/>
			</g>
		</g>
		<g>
			<path class="st4" d="M77.67,314.72c-0.48,0-0.96-0.23-1.24-0.66c-0.46-0.69-0.28-1.62,0.4-2.08c2.21-1.49,6.02-2.51,8.67-2.32
				c0.83,0.06,1.45,0.78,1.39,1.6c-0.06,0.83-0.76,1.46-1.6,1.39c-2-0.15-5.11,0.69-6.78,1.82
				C78.25,314.63,77.95,314.72,77.67,314.72z"/>
		</g>
		<g>
			<g>
				<circle class="st4" cx="79.66" cy="305.22" r="6.5"/>
			</g>
			<g>
				<circle class="st5" cx="81.23" cy="304.8" r="1.62"/>
			</g>
		</g>
		<g>
			<path class="st4" d="M93.57,289.02c2.16-2.85,5.82-4.35,9.35-3.71c1.76,0.3,5.01,1.77,3.5,3.92c-0.4,0.51-1,0.64-1.6,0.64
				c-1.65,0.04-2.91,0.05-4.47,0.39c-1.65,0.31-3.39,1.01-5.04,1.4C93.83,292.07,92.63,290.21,93.57,289.02L93.57,289.02z"/>
		</g>
		<g>
			<path class="st4" d="M80.18,295.73c-3.1,0.68-6.01,1.39-8.74,3.09c-0.89,0.59-2.14,0.41-2.63-0.6c-0.22-0.44-0.23-0.93-0.07-1.36
				c0.42-1.11,1.11-2.18,2.07-2.95c1.8-1.58,4.27-2.29,6.6-2.21c1.62,0.07,5.1,0.54,4.23,2.97
				C81.38,295.31,80.79,295.59,80.18,295.73L80.18,295.73z"/>
		</g>
	</g>
	<g>
		<path class="st11" d="M112.37,283.47c-0.89,0-1.78-0.4-2.37-1.16c-6.24-8.01-16.62-11.49-26.43-8.86
			c-1.6,0.43-3.25-0.52-3.67-2.12s0.52-3.25,2.12-3.67c12.14-3.25,24.99,1.05,32.72,10.97c1.02,1.31,0.78,3.19-0.52,4.21
			C113.67,283.26,113.02,283.47,112.37,283.47z"/>
	</g>
	<g>
		<g>
			<path class="st4" d="M96.97,356.35c-0.68,0-1.35-0.35-1.72-0.98l-13.23-22.34c-0.56-0.95-0.25-2.18,0.7-2.74
				c0.95-0.56,2.18-0.25,2.74,0.7l13.23,22.34c0.56,0.95,0.25,2.18-0.7,2.74C97.67,356.26,97.32,356.35,96.97,356.35z"/>
		</g>
		<g>
			<path class="st4" d="M110.49,352.72c-0.01,0-0.02,0-0.02,0c-1.1-0.01-1.99-0.92-1.98-2.02l0.29-25.96c0.01-1.1,0.92-2,2.02-1.98
				c1.1,0.01,1.99,0.92,1.98,2.02l-0.29,25.96C112.48,351.84,111.58,352.72,110.49,352.72z"/>
		</g>
		<g>
			<path class="st4" d="M93.02,337.73c-0.25,0-0.5-0.05-0.74-0.14l-9.28-3.72c-1.02-0.41-1.52-1.58-1.11-2.6
				c0.41-1.02,1.58-1.52,2.6-1.11l7.81,3.14l3.59-5.09c0.56-0.79,1.6-1.07,2.47-0.66l5.65,2.61l5.2-6.62
				c0.68-0.87,1.94-1.02,2.81-0.34s1.02,1.94,0.34,2.81l-6.17,7.87c-0.57,0.73-1.57,0.97-2.41,0.58l-5.58-2.58l-3.54,5.02
				C94.27,337.43,93.65,337.73,93.02,337.73z"/>
		</g>
	</g>
	<g>
		<g>
			<path class="st12" d="M109.76,392.15c-1.72,0-3.33-0.9-4.24-2.35l-4-5.62l19.94-5.34l-0.65,6.86c-0.07,2.19-1.58,4.09-3.7,4.66
				l-6.05,1.62C110.64,392.09,110.2,392.15,109.76,392.15z"/>
		</g>
		<g>
			<path class="st4" d="M118.07,382.86l-0.25,2.67c0,0.91-0.61,1.7-1.48,1.93l-6.05,1.62c-0.17,0.05-0.35,0.07-0.52,0.07
				c-0.7,0-1.37-0.37-1.73-1l-1.56-2.19L118.07,382.86 M124.86,374.83l-8.34,2.24l-11.59,3.11l-8.34,2.24l5.01,7.04l1.45,2.03
				c1.46,2.28,4.01,3.68,6.73,3.68c0.7,0,1.4-0.09,2.07-0.27l6.05-1.62c3.37-0.9,5.76-3.89,5.92-7.35l0.24-2.48L124.86,374.83
				L124.86,374.83z"/>
		</g>
	</g>
	<g>
		<g>
			<path class="st7" d="M97.12,385.12c-3.16,0-5.94-2.13-6.76-5.19l-5.95-22.22l38.64-10.35l5.95,22.22
				c0.48,1.81,0.24,3.69-0.7,5.31c-0.94,1.62-2.44,2.78-4.25,3.26l-25.11,6.73C98.34,385.04,97.73,385.12,97.12,385.12z"/>
		</g>
		<g>
			<path class="st4" d="M120.93,351.03l5.18,19.32c0.57,2.13-0.69,4.33-2.83,4.9l-25.11,6.73c-0.35,0.09-0.7,0.14-1.04,0.14
				c-1.77,0-3.38-1.18-3.86-2.97l-5.18-19.32L120.93,351.03 M125.17,343.68l-5.8,1.55l-32.84,8.8l-5.8,1.55l1.55,5.8l5.18,19.32
				c1.17,4.36,5.14,7.41,9.66,7.41c0.87,0,1.74-0.11,2.59-0.34l25.11-6.73c2.58-0.69,4.74-2.35,6.07-4.66
				c1.34-2.31,1.69-5.01,1-7.59l-5.18-19.32L125.17,343.68L125.17,343.68z"/>
		</g>
	</g>
	<g>
		<line class="st12" x1="87.52" y1="369.3" x2="125.12" y2="355.09"/>
		<path class="st4" d="M87.52,372.3c-1.21,0-2.35-0.74-2.81-1.94c-0.59-1.55,0.2-3.28,1.75-3.87l37.6-14.22
			c1.55-0.58,3.28,0.2,3.87,1.75c0.59,1.55-0.2,3.28-1.75,3.87l-37.6,14.22C88.23,372.24,87.87,372.3,87.52,372.3z"/>
	</g>
	<g>
		<line class="st12" x1="90.1" y1="378.96" x2="127.71" y2="364.74"/>
		<path class="st4" d="M90.1,381.96c-1.21,0-2.35-0.74-2.81-1.94c-0.59-1.55,0.2-3.28,1.75-3.87l37.6-14.21
			c1.55-0.59,3.28,0.19,3.87,1.75c0.59,1.55-0.2,3.28-1.75,3.87l-37.6,14.22C90.82,381.9,90.46,381.96,90.1,381.96z"/>
	</g>
</g>
</svg>
