<?xml version="1.0" encoding="utf-8"?>
<!-- Generator: Adobe Illustrator 26.0.1, SVG Export Plug-In . SVG Version: 6.00 Build 0)  -->
<svg version="1.1" id="Facebook_x5F_Hub-Facebook_x5F_Video_x5F_Ads"
	 xmlns="http://www.w3.org/2000/svg" xmlns:xlink="http://www.w3.org/1999/xlink" x="0px" y="0px" viewBox="0 0 400 400"
	 style="enable-background:new 0 0 400 400;" xml:space="preserve">
<style type="text/css">
	.st0{fill:#FFFFFF;}
	.st1{fill:#515979;}
	.st2{fill:#EF7D7D;}
	.st3{fill:#D8EBFB;}
	.st4{fill:#ECEEF0;}
	.st5{fill:#667683;}
	.st6{fill:#FFE8A0;}
	.st7{fill:#7DDF96;}
	.st8{fill:#CFD4D9;}
	.st9{fill:#1877F2;}
	.st10{fill:#CBF2D5;}
	.st11{fill:#97E5AB;}
	.st12{fill:none;}
	.st13{fill:#FFD886;}
</style>
<g>
	<g>
		<g>
			<path class="st0" d="M236.71,143.6c-2.76,0-5-2.24-5-5v-116c0-2.76,2.24-5,5-5h140c2.76,0,5,2.24,5,5v116c0,2.76-2.24,5-5,5
				H236.71z"/>
		</g>
		<g>
			<g>
				<path class="st1" d="M376.71,20.6c1.1,0,2,0.9,2,2v116c0,1.1-0.9,2-2,2h-140c-1.1,0-2-0.9-2-2v-116c0-1.1,0.9-2,2-2H376.71
					 M376.71,14.6h-140c-4.41,0-8,3.59-8,8v116c0,4.41,3.59,8,8,8h140c4.41,0,8-3.59,8-8v-116C384.71,18.19,381.12,14.6,376.71,14.6
					L376.71,14.6z"/>
			</g>
		</g>
	</g>
	<g>
		<g>
			<path class="st2" d="M322.71,131.6c-2.76,0-5-2.24-5-5v-10c0-2.76,2.24-5,5-5h38c2.76,0,5,2.24,5,5v10c0,2.76-2.24,5-5,5H322.71z
				"/>
		</g>
		<g>
			<path class="st1" d="M360.71,114.6c1.1,0,2,0.9,2,2v10c0,1.1-0.9,2-2,2h-38c-1.1,0-2-0.9-2-2v-10c0-1.1,0.9-2,2-2H360.71
				 M360.71,108.6h-38c-4.41,0-8,3.59-8,8v10c0,4.41,3.59,8,8,8h38c4.41,0,8-3.59,8-8v-10C368.71,112.19,365.12,108.6,360.71,108.6
				L360.71,108.6z"/>
		</g>
	</g>
	<g>
		<path class="st1" d="M301.71,124.6h-54c-1.66,0-3,1.34-3,3l0,0c0,1.66,1.34,3,3,3h54c1.66,0,3-1.34,3-3l0,0
			C304.71,125.95,303.37,124.6,301.71,124.6z"/>
	</g>
	<g>
		<path class="st1" d="M301.71,112.6h-54c-1.66,0-3,1.34-3,3l0,0c0,1.66,1.34,3,3,3h54c1.66,0,3-1.34,3-3l0,0
			C304.71,113.95,303.37,112.6,301.71,112.6z"/>
	</g>
	<g>
		<g>
			<path class="st3" d="M234.71,99.6c-1.66,0-3-1.34-3-3v-76c0-1.66,1.34-3,3-3h144c1.66,0,3,1.34,3,3v76c0,1.66-1.34,3-3,3H234.71z
				"/>
		</g>
		<g>
			<g>
				<path class="st1" d="M378.71,20.6v76h-144v-76H378.71 M378.71,14.6h-144c-3.31,0-6,2.69-6,6v76c0,3.31,2.69,6,6,6h144
					c3.31,0,6-2.69,6-6v-76C384.71,17.29,382.02,14.6,378.71,14.6L378.71,14.6z"/>
			</g>
		</g>
	</g>
	<g>
		<g>
			<circle class="st2" cx="306.71" cy="60.6" r="17"/>
		</g>
		<g>
			<path class="st1" d="M306.71,46.6c7.73,0,14,6.27,14,14c0,7.73-6.27,14-14,14s-14-6.27-14-14
				C292.71,52.87,298.98,46.6,306.71,46.6 M306.71,40.6c-11.03,0-20,8.97-20,20s8.97,20,20,20s20-8.97,20-20
				S317.74,40.6,306.71,40.6L306.71,40.6z"/>
		</g>
	</g>
	<g>
		<polygon class="st0" points="313.71,60.6 303.71,66.6 303.71,54.6 		"/>
	</g>
</g>
<g>
	<g>
		<g>
			<path class="st4" d="M24.71,390.37c-7.17,0-13-5.83-13-13v-204c0-7.17,5.83-13,13-13h220c7.17,0,13,5.83,13,13v204
				c0,7.17-5.83,13-13,13H24.71z"/>
		</g>
		<g>
			<g>
				<path class="st1" d="M244.71,163.37c5.52,0,10,4.48,10,10v204c0,5.52-4.48,10-10,10h-220c-5.52,0-10-4.48-10-10v-204
					c0-5.52,4.48-10,10-10H244.71 M244.71,157.37h-220c-8.82,0-16,7.18-16,16v204c0,8.82,7.18,16,16,16h220c8.82,0,16-7.18,16-16
					v-204C260.71,164.55,253.53,157.37,244.71,157.37L244.71,157.37z"/>
			</g>
		</g>
	</g>
	<g>
		<g>
			<path class="st0" d="M14.71,232.37c-1.66,0-3-1.34-3-3v-32c0-1.66,1.34-3,3-3h240c1.66,0,3,1.34,3,3v32c0,1.66-1.34,3-3,3H14.71z
				"/>
		</g>
		<g>
			<path class="st1" d="M254.71,197.37v32h-240v-32H254.71 M254.71,191.37h-240c-3.31,0-6,2.69-6,6v32c0,3.31,2.69,6,6,6h240
				c3.31,0,6-2.69,6-6v-32C260.71,194.06,258.02,191.37,254.71,191.37L254.71,191.37z"/>
		</g>
	</g>
	<g>
		<g>
			<path class="st0" d="M76.71,360.37c-4.96,0-9-4.04-9-9v-88c0-4.96,4.04-9,9-9h108c4.96,0,9,4.04,9,9v88c0,4.96-4.04,9-9,9H76.71z
				"/>
		</g>
		<g>
			<g>
				<path class="st1" d="M184.71,257.37c3.31,0,6,2.69,6,6v88c0,3.31-2.69,6-6,6h-108c-3.31,0-6-2.69-6-6v-88c0-3.31,2.69-6,6-6
					H184.71 M184.71,251.37h-108c-6.62,0-12,5.38-12,12v88c0,6.62,5.38,12,12,12h108c6.62,0,12-5.38,12-12v-88
					C196.71,256.75,191.33,251.37,184.71,251.37L184.71,251.37z"/>
			</g>
		</g>
	</g>
	<g>
		<g>
			<path class="st4" d="M76.71,360.37c-4.96,0-9-4.04-9-9v-22c0-1.66,1.34-3,3-3h120c1.66,0,3,1.34,3,3v22c0,4.96-4.04,9-9,9H76.71z
				"/>
		</g>
		<g>
			<g>
				<path class="st1" d="M190.71,329.37v22c0,3.31-2.69,6-6,6h-108c-3.31,0-6-2.69-6-6v-22H190.71 M190.71,323.37h-120
					c-3.31,0-6,2.69-6,6v22c0,6.62,5.38,12,12,12h108c6.62,0,12-5.38,12-12v-22C196.71,326.06,194.02,323.37,190.71,323.37
					L190.71,323.37z"/>
			</g>
		</g>
	</g>
	<g>
		<g>
			<path class="st0" d="M70.71,390.37c-1.66,0-3-1.34-3-3v-8c0-4.96,4.04-9,9-9h108c4.96,0,9,4.04,9,9v8c0,1.66-1.34,3-3,3H70.71z"
				/>
		</g>
		<g>
			<g>
				<path class="st1" d="M184.71,373.37c3.31,0,6,2.69,6,6v8h-120v-8c0-3.31,2.69-6,6-6H184.71 M184.71,367.37h-108
					c-6.62,0-12,5.38-12,12v8c0,3.31,2.69,6,6,6h120c3.31,0,6-2.69,6-6v-8C196.71,372.75,191.33,367.37,184.71,367.37L184.71,367.37
					z"/>
			</g>
		</g>
	</g>
	<g>
		<g>
			<path class="st5" d="M14.71,194.37c-1.66,0-3-1.34-3-3v-18c0-7.17,5.83-13,13-13h220c7.17,0,13,5.83,13,13v18c0,1.66-1.34,3-3,3
				H14.71z"/>
		</g>
		<g>
			<path class="st1" d="M244.71,163.37c5.52,0,10,4.48,10,10v18h-240v-18c0-5.52,4.48-10,10-10H244.71 M244.71,157.37h-220
				c-8.82,0-16,7.18-16,16v18c0,3.31,2.69,6,6,6h240c3.31,0,6-2.69,6-6v-18C260.71,164.55,253.53,157.37,244.71,157.37
				L244.71,157.37z"/>
		</g>
	</g>
	<g>
		<g>
			<path class="st0" d="M104.71,184.37c-3.86,0-7-3.14-7-7s3.14-7,7-7h114c3.86,0,7,3.14,7,7s-3.14,7-7,7H104.71z"/>
		</g>
		<g>
			<g>
				<path class="st1" d="M218.71,173.37c2.21,0,4,1.79,4,4s-1.79,4-4,4h-114c-2.21,0-4-1.79-4-4s1.79-4,4-4H218.71 M218.71,167.37
					h-114c-5.51,0-10,4.49-10,10c0,5.51,4.49,10,10,10h114c5.51,0,10-4.49,10-10C228.71,171.86,224.22,167.37,218.71,167.37
					L218.71,167.37z"/>
			</g>
		</g>
	</g>
	<g>
		<g>
			<path class="st4" d="M59.71,221.37c-4.41,0-8-3.59-8-8s3.59-8,8-8h32c4.41,0,8,3.59,8,8s-3.59,8-8,8H59.71z"/>
		</g>
		<g>
			<g>
				<path class="st1" d="M91.71,208.37c2.76,0,5,2.24,5,5c0,2.76-2.24,5-5,5h-32c-2.76,0-5-2.24-5-5c0-2.76,2.24-5,5-5H91.71
					 M91.71,202.37h-32c-6.07,0-11,4.93-11,11c0,6.07,4.93,11,11,11h32c6.07,0,11-4.93,11-11
					C102.71,207.31,97.77,202.37,91.71,202.37L91.71,202.37z"/>
			</g>
		</g>
	</g>
	<g>
		<g>
			<circle class="st2" cx="30.71" cy="177.37" r="7"/>
		</g>
		<g>
			<g>
				<path class="st1" d="M30.71,173.37c2.21,0,4,1.79,4,4s-1.79,4-4,4s-4-1.79-4-4S28.5,173.37,30.71,173.37 M30.71,167.37
					c-5.51,0-10,4.49-10,10c0,5.51,4.49,10,10,10s10-4.49,10-10C40.71,171.86,36.22,167.37,30.71,167.37L30.71,167.37z"/>
			</g>
		</g>
	</g>
	<g>
		<g>
			<circle class="st6" cx="54.71" cy="177.37" r="7"/>
		</g>
		<g>
			<g>
				<path class="st1" d="M54.71,173.37c2.21,0,4,1.79,4,4s-1.79,4-4,4c-2.21,0-4-1.79-4-4S52.5,173.37,54.71,173.37 M54.71,167.37
					c-5.51,0-10,4.49-10,10c0,5.51,4.49,10,10,10s10-4.49,10-10C64.71,171.86,60.22,167.37,54.71,167.37L54.71,167.37z"/>
			</g>
		</g>
	</g>
	<g>
		<g>
			<circle class="st7" cx="78.71" cy="177.37" r="7"/>
		</g>
		<g>
			<g>
				<path class="st1" d="M78.71,173.37c2.21,0,4,1.79,4,4s-1.79,4-4,4c-2.21,0-4-1.79-4-4S76.5,173.37,78.71,173.37 M78.71,167.37
					c-5.51,0-10,4.49-10,10c0,5.51,4.49,10,10,10s10-4.49,10-10C88.71,171.86,84.22,167.37,78.71,167.37L78.71,167.37z"/>
			</g>
		</g>
	</g>
	<g>
		<path class="st1" d="M146.71,275.37h-68c-1.1,0-2-0.9-2-2l0,0c0-1.1,0.9-2,2-2h68c1.1,0,2,0.9,2,2l0,0
			C148.71,274.48,147.81,275.37,146.71,275.37z"/>
	</g>
	<g>
		<path class="st1" d="M122.71,267.37h-44c-1.1,0-2-0.9-2-2l0,0c0-1.1,0.9-2,2-2h44c1.1,0,2,0.9,2,2l0,0
			C124.71,266.48,123.81,267.37,122.71,267.37z"/>
	</g>
	<g>
		<path class="st1" d="M130.71,383.37h-52c-1.1,0-2-0.9-2-2l0,0c0-1.1,0.9-2,2-2h52c1.1,0,2,0.9,2,2l0,0
			C132.71,382.48,131.81,383.37,130.71,383.37z"/>
	</g>
	<g>
		<path class="st1" d="M114.71,352.37h-36c-1.1,0-2-0.9-2-2l0,0c0-1.1,0.9-2,2-2h36c1.1,0,2,0.9,2,2l0,0
			C116.71,351.48,115.81,352.37,114.71,352.37z"/>
	</g>
	<g>
		<path class="st1" d="M130.71,344.37h-52c-1.1,0-2-0.9-2-2l0,0c0-1.1,0.9-2,2-2h52c1.1,0,2,0.9,2,2l0,0
			C132.71,343.48,131.81,344.37,130.71,344.37z"/>
	</g>
	<g>
		<path class="st1" d="M34.71,255.37h-12c-1.1,0-2-0.9-2-2l0,0c0-1.1,0.9-2,2-2h12c1.1,0,2,0.9,2,2l0,0
			C36.71,254.48,35.81,255.37,34.71,255.37z"/>
	</g>
	<g>
		<path class="st1" d="M42.71,265.37h-20c-1.1,0-2-0.9-2-2l0,0c0-1.1,0.9-2,2-2h20c1.1,0,2,0.9,2,2l0,0
			C44.71,264.48,43.81,265.37,42.71,265.37z"/>
	</g>
	<g>
		<path class="st1" d="M38.71,275.37h-16c-1.1,0-2-0.9-2-2l0,0c0-1.1,0.9-2,2-2h16c1.1,0,2,0.9,2,2l0,0
			C40.71,274.48,39.81,275.37,38.71,275.37z"/>
	</g>
	<g>
		<path class="st1" d="M224.71,354.37h-16c-1.1,0-2-0.9-2-2l0,0c0-1.1,0.9-2,2-2h16c1.1,0,2,0.9,2,2l0,0
			C226.71,353.48,225.81,354.37,224.71,354.37z"/>
	</g>
	<g>
		<path class="st1" d="M232.71,364.37h-24c-1.1,0-2-0.9-2-2l0,0c0-1.1,0.9-2,2-2h24c1.1,0,2,0.9,2,2l0,0
			C234.71,363.48,233.81,364.37,232.71,364.37z"/>
	</g>
	<g>
		<path class="st1" d="M46.71,285.37h-24c-1.1,0-2-0.9-2-2l0,0c0-1.1,0.9-2,2-2h24c1.1,0,2,0.9,2,2l0,0
			C48.71,284.48,47.81,285.37,46.71,285.37z"/>
	</g>
	<g>
		<path class="st1" d="M42.71,295.37h-20c-1.1,0-2-0.9-2-2l0,0c0-1.1,0.9-2,2-2h20c1.1,0,2,0.9,2,2l0,0
			C44.71,294.48,43.81,295.37,42.71,295.37z"/>
	</g>
	<g>
		<path class="st1" d="M38.71,305.37h-16c-1.1,0-2-0.9-2-2l0,0c0-1.1,0.9-2,2-2h16c1.1,0,2,0.9,2,2l0,0
			C40.71,304.48,39.81,305.37,38.71,305.37z"/>
	</g>
	<g>
		<path class="st1" d="M46.71,329.37h-24c-1.1,0-2-0.9-2-2l0,0c0-1.1,0.9-2,2-2h24c1.1,0,2,0.9,2,2l0,0
			C48.71,328.48,47.81,329.37,46.71,329.37z"/>
	</g>
	<g>
		<path class="st1" d="M42.71,339.37h-20c-1.1,0-2-0.9-2-2l0,0c0-1.1,0.9-2,2-2h20c1.1,0,2,0.9,2,2l0,0
			C44.71,338.48,43.81,339.37,42.71,339.37z"/>
	</g>
	<g>
		<path class="st1" d="M38.71,349.37h-16c-1.1,0-2-0.9-2-2l0,0c0-1.1,0.9-2,2-2h16c1.1,0,2,0.9,2,2l0,0
			C40.71,348.48,39.81,349.37,38.71,349.37z"/>
	</g>
	<g>
		<path class="st1" d="M30.71,359.37h-8c-1.1,0-2-0.9-2-2l0,0c0-1.1,0.9-2,2-2h8c1.1,0,2,0.9,2,2l0,0
			C32.71,358.48,31.81,359.37,30.71,359.37z"/>
	</g>
	<g>
		<path class="st8" d="M56.71,317.37h-34c-1.1,0-2-0.9-2-2l0,0c0-1.1,0.9-2,2-2h34c1.1,0,2,0.9,2,2l0,0
			C58.71,316.48,57.81,317.37,56.71,317.37z"/>
	</g>
	<g>
		<path class="st1" d="M244.71,320.37h-36c-1.1,0-2-0.9-2-2l0,0c0-1.1,0.9-2,2-2h36c1.1,0,2,0.9,2,2l0,0
			C246.71,319.48,245.81,320.37,244.71,320.37z"/>
	</g>
	<g>
		<path class="st1" d="M236.71,330.37h-28c-1.1,0-2-0.9-2-2l0,0c0-1.1,0.9-2,2-2h28c1.1,0,2,0.9,2,2l0,0
			C238.71,329.48,237.81,330.37,236.71,330.37z"/>
	</g>
	<g>
		<path class="st8" d="M246.71,308.37h-38c-1.1,0-2-0.9-2-2l0,0c0-1.1,0.9-2,2-2h38c1.1,0,2,0.9,2,2l0,0
			C248.71,307.48,247.81,308.37,246.71,308.37z"/>
	</g>
	<g>
		<path class="st8" d="M246.71,342.37h-38c-1.1,0-2-0.9-2-2l0,0c0-1.1,0.9-2,2-2h38c1.1,0,2,0.9,2,2l0,0
			C248.71,341.48,247.81,342.37,246.71,342.37z"/>
	</g>
	<g>
		<g>
			<g>
				<g>
					<path class="st1" d="M239.21,273.75c-0.16,0-0.33-0.03-0.49-0.08c-1.6-0.55-4.42-0.55-6.02,0c-0.79,0.27-1.64-0.15-1.91-0.93
						c-0.27-0.78,0.15-1.64,0.93-1.91c2.24-0.77,5.74-0.77,7.98,0c0.78,0.27,1.2,1.12,0.93,1.91
						C240.41,273.36,239.83,273.75,239.21,273.75z"/>
				</g>
				<g>
					<g>
						<circle class="st1" cx="235.71" cy="265.54" r="6"/>
					</g>
					<g>
						<circle class="st0" cx="237.21" cy="265.54" r="1.5"/>
					</g>
				</g>
				<g>
					<path class="st1" d="M219.21,273.75c-0.16,0-0.33-0.03-0.49-0.08c-1.6-0.55-4.42-0.55-6.02,0c-0.79,0.27-1.64-0.15-1.91-0.93
						c-0.27-0.78,0.15-1.64,0.93-1.91c2.24-0.77,5.74-0.77,7.98,0c0.78,0.27,1.2,1.12,0.93,1.91
						C220.41,273.36,219.83,273.75,219.21,273.75z"/>
				</g>
				<g>
					<g>
						<circle class="st1" cx="215.71" cy="265.54" r="6"/>
					</g>
					<g>
						<circle class="st0" cx="217.21" cy="265.54" r="1.5"/>
					</g>
				</g>
				<g>
					<path class="st1" d="M233.04,251.77c3.9-1.54,9.15-0.14,10.94,3.86c0.62,1.33-0.82,2.82-2.16,2.3c-1.5-0.54-2.7-1.12-4.19-1.58
						c-1.4-0.46-3.26-0.86-4.6-1.43C231.64,254.39,231.67,252.27,233.04,251.77L233.04,251.77z"/>
				</g>
				<g>
					<path class="st1" d="M217.98,255.08c-2.68,0.86-5.41,1.55-8.01,2.71c-0.97,0.49-2.21,0.16-2.58-0.91
						c-0.15-0.42-0.12-0.87,0.04-1.25c1.28-3.03,4.8-4.55,7.91-4.46c1.03,0.03,1.96,0.17,3.03,0.6
						C220.01,252.5,219.65,254.66,217.98,255.08L217.98,255.08z"/>
				</g>
			</g>
		</g>
		<g>
			<path class="st1" d="M237.71,275.9L237.71,275.9h-24.01c-2.21,0-4,1.79-4,4c0,8.82,7.18,16,16,16c8.77,0,15.91-7.09,16-15.84
				c0-0.05,0-0.11,0-0.16C241.71,277.69,239.92,275.9,237.71,275.9z"/>
			<g>
				<ellipse class="st2" cx="225.71" cy="287.9" rx="8.93" ry="4"/>
			</g>
		</g>
	</g>
	<g>
		<path class="st9" d="M32.78,201.37c-6.67,0-12.07,5.41-12.07,12.07c0,6.03,4.42,11.02,10.19,11.93v-8.44h-3.07v-3.49h3.07v-2.66
			c0-3.03,1.8-4.7,4.56-4.7c1.32,0,2.7,0.24,2.7,0.24v2.97h-1.52c-1.5,0-1.97,0.93-1.97,1.89v2.26h3.35l-0.54,3.49h-2.81v8.44
			c5.77-0.91,10.19-5.9,10.19-11.93C44.85,206.78,39.45,201.37,32.78,201.37z"/>
	</g>
	<g>
		<g>
			<circle class="st4" cx="237.71" cy="213.37" r="8"/>
		</g>
		<g>
			<g>
				<path class="st1" d="M237.71,208.37c2.76,0,5,2.24,5,5s-2.24,5-5,5c-2.76,0-5-2.24-5-5S234.95,208.37,237.71,208.37
					 M237.71,202.37c-6.07,0-11,4.93-11,11s4.93,11,11,11c6.07,0,11-4.93,11-11S243.77,202.37,237.71,202.37L237.71,202.37z"/>
			</g>
		</g>
	</g>
	<g>
		<g>
			<circle class="st4" cx="211.71" cy="213.37" r="8"/>
		</g>
		<g>
			<g>
				<path class="st1" d="M211.71,208.37c2.76,0,5,2.24,5,5s-2.24,5-5,5c-2.76,0-5-2.24-5-5S208.95,208.37,211.71,208.37
					 M211.71,202.37c-6.07,0-11,4.93-11,11s4.93,11,11,11s11-4.93,11-11S217.77,202.37,211.71,202.37L211.71,202.37z"/>
			</g>
		</g>
	</g>
	<g>
		<g>
			<circle class="st4" cx="185.71" cy="213.37" r="8"/>
		</g>
		<g>
			<g>
				<path class="st1" d="M185.71,208.37c2.76,0,5,2.24,5,5s-2.24,5-5,5c-2.76,0-5-2.24-5-5S182.95,208.37,185.71,208.37
					 M185.71,202.37c-6.07,0-11,4.93-11,11s4.93,11,11,11s11-4.93,11-11S191.77,202.37,185.71,202.37L185.71,202.37z"/>
			</g>
		</g>
	</g>
	<g>
		<g>
			<circle class="st4" cx="145.71" cy="213.37" r="8"/>
		</g>
		<g>
			<g>
				<path class="st1" d="M145.71,208.37c2.76,0,5,2.24,5,5s-2.24,5-5,5c-2.76,0-5-2.24-5-5S142.95,208.37,145.71,208.37
					 M145.71,202.37c-6.07,0-11,4.93-11,11s4.93,11,11,11s11-4.93,11-11S151.77,202.37,145.71,202.37L145.71,202.37z"/>
			</g>
		</g>
	</g>
	<g>
		<g>
			<circle class="st4" cx="119.71" cy="213.37" r="8"/>
		</g>
		<g>
			<g>
				<path class="st1" d="M119.71,208.37c2.76,0,5,2.24,5,5s-2.24,5-5,5c-2.76,0-5-2.24-5-5S116.95,208.37,119.71,208.37
					 M119.71,202.37c-6.07,0-11,4.93-11,11s4.93,11,11,11s11-4.93,11-11S125.77,202.37,119.71,202.37L119.71,202.37z"/>
			</g>
		</g>
	</g>
	<g>
		<g>
			<path class="st10" d="M70.71,332.37c-1.66,0-3-1.34-3-3v-42c0-1.66,1.34-3,3-3h120c1.66,0,3,1.34,3,3v42c0,1.66-1.34,3-3,3H70.71
				z"/>
		</g>
		<g>
			<g>
				<path class="st1" d="M190.71,287.37l0,42l-120,0l0-42L190.71,287.37 M190.71,281.37l-120,0c-1.59,0-3.12,0.63-4.24,1.76
					c-1.13,1.13-1.76,2.65-1.76,4.24l0,42c0,3.31,2.69,6,6,6l120,0c1.59,0,3.12-0.63,4.24-1.76c1.13-1.13,1.76-2.65,1.76-4.24l0-42
					C196.71,284.06,194.02,281.37,190.71,281.37L190.71,281.37z"/>
			</g>
		</g>
	</g>
	<g>
		<g>
			<circle class="st11" cx="142.71" cy="299.37" r="6.5"/>
		</g>
		<g>
			<g>
				<path class="st1" d="M142.71,295.37c2.21,0,4,1.79,4,4s-1.79,4-4,4s-4-1.79-4-4S140.5,295.37,142.71,295.37 M142.71,290.37
					c-4.96,0-9,4.04-9,9s4.04,9,9,9s9-4.04,9-9S147.67,290.37,142.71,290.37L142.71,290.37z"/>
			</g>
		</g>
	</g>
	<g>
		<g>
			<path class="st11" d="M70.71,331.87c-1.38,0-2.5-1.12-2.5-2.5v-2.4c0-0.58,0.21-1.15,0.58-1.6l21.46-25.76
				c0.86-1.03,2.12-1.62,3.46-1.62s2.6,0.59,3.46,1.62l17.6,21.12l9.51-11.19c0.86-1.01,2.11-1.59,3.43-1.59
				c1.32,0,2.57,0.58,3.43,1.59l12.04,14.16l20.08-24.09c0.86-1.03,2.12-1.62,3.46-1.62s2.6,0.59,3.46,1.62l22.46,26.96
				c0.37,0.45,0.58,1.02,0.58,1.6v1.2c0,1.38-1.12,2.5-2.5,2.5H70.71z"/>
		</g>
		<g>
			<g>
				<path class="st1" d="M166.71,300.5c0.57,0,1.14,0.24,1.54,0.72l22.46,26.96v1.2h-120v-2.4l21.46-25.76
					c0.4-0.48,0.97-0.72,1.54-0.72s1.14,0.24,1.54,0.72l19.5,23.4l11.44-13.45c0.4-0.47,0.96-0.7,1.52-0.7s1.12,0.23,1.52,0.7
					l13.96,16.43l21.98-26.37C165.57,300.74,166.14,300.5,166.71,300.5 M166.71,295.5c-2.08,0-4.04,0.92-5.38,2.52l-18.18,21.81
					l-10.11-11.9c-1.33-1.57-3.28-2.47-5.33-2.47c-2.06,0-4,0.9-5.33,2.47l-7.59,8.93l-15.7-18.84c-1.33-1.6-3.29-2.52-5.38-2.52
					c-2.08,0-4.04,0.92-5.38,2.52l-21.46,25.76c-0.75,0.9-1.16,2.03-1.16,3.2v2.4c0,2.76,2.24,5,5,5h120c2.76,0,5-2.24,5-5v-1.2
					c0-1.17-0.41-2.3-1.16-3.2l-22.46-26.96C170.75,296.41,168.79,295.5,166.71,295.5L166.71,295.5z"/>
			</g>
		</g>
	</g>
	<g>
		<g>
			<path class="st8" d="M160.71,351.37c-1.1,0-2-0.9-2-2v-6c0-1.1,0.9-2,2-2h20c1.1,0,2,0.9,2,2v6c0,1.1-0.9,2-2,2H160.71z"/>
		</g>
		<g>
			<g>
				<path class="st1" d="M180.71,343.37v6h-20v-6H180.71 M180.71,339.37h-20c-2.21,0-4,1.79-4,4v6c0,2.21,1.79,4,4,4h20
					c2.21,0,4-1.79,4-4v-6C184.71,341.16,182.92,339.37,180.71,339.37L180.71,339.37z"/>
			</g>
		</g>
	</g>
	<g>
		<g>
			<path class="st0" d="M76.71,244.37c-4.96,0-9-4.04-9-9c0-1.66,1.34-3,3-3h120c1.66,0,3,1.34,3,3c0,4.96-4.04,9-9,9H76.71z"/>
		</g>
		<g>
			<g>
				<path class="st1" d="M190.71,235.37c0,3.31-2.69,6-6,6h-108c-3.31,0-6-2.69-6-6H190.71 M190.71,229.37h-120c-3.31,0-6,2.69-6,6
					c0,6.62,5.38,12,12,12h108c6.62,0,12-5.38,12-12C196.71,232.06,194.02,229.37,190.71,229.37L190.71,229.37z M190.71,241.37
					L190.71,241.37L190.71,241.37L190.71,241.37z"/>
			</g>
		</g>
	</g>
</g>
<g>
	<rect class="st12" width="400" height="400"/>
</g>
<g>
	<g>
		<path class="st13" d="M352.42,206.57c2.98,0,5.4-2.42,5.4-5.4c0-0.99,0.81-1.8,1.8-1.8s1.8,0.81,1.8,1.8c0,2.98,2.42,5.4,5.4,5.4
			c0.99,0,1.8,0.81,1.8,1.8s-0.81,1.8-1.8,1.8c-2.98,0-5.4,2.42-5.4,5.4c0,0.99-0.81,1.8-1.8,1.8s-1.8-0.81-1.8-1.8
			c0-2.98-2.42-5.4-5.4-5.4c-0.99,0-1.8-0.81-1.8-1.8S351.43,206.57,352.42,206.57z"/>
	</g>
</g>
<g>
	<g>
		<circle class="st13" cx="61.71" cy="93.6" r="3"/>
	</g>
</g>
<g>
	<g>
		<circle class="st13" cx="34.71" cy="124.6" r="3"/>
	</g>
</g>
<g>
	<g>
		<circle class="st13" cx="190.71" cy="38.46" r="3"/>
	</g>
</g>
<g>
	<g>
		<circle class="st13" cx="200" cy="112.6" r="3"/>
	</g>
</g>
<g>
	<g>
		<circle class="st13" cx="170.71" cy="77.6" r="3"/>
	</g>
</g>
<g>
	<g>
		<circle class="st13" cx="289.71" cy="314.93" r="3"/>
	</g>
</g>
<g>
	<g>
		<circle class="st13" cx="335.25" cy="299.37" r="3"/>
	</g>
</g>
<g>
	<g>
		<circle class="st13" cx="313.71" cy="255.37" r="3"/>
	</g>
</g>
<g>
	<g>
		<circle class="st13" cx="299.71" cy="181.37" r="3"/>
	</g>
</g>
<g>
	<circle class="st13" cx="155.35" cy="118.6" r="4"/>
</g>
<g>
	<circle class="st13" cx="303.71" cy="360.37" r="4"/>
</g>
<g>
	<circle class="st13" cx="44.85" cy="58.6" r="4.5"/>
</g>
<path class="st13" d="M113.71,115.6h-6v-6c0-1.66-1.34-3-3-3s-3,1.34-3,3v6h-6c-1.66,0-3,1.34-3,3s1.34,3,3,3h6v6c0,1.66,1.34,3,3,3
	s3-1.34,3-3v-6h6c1.66,0,3-1.34,3-3S115.36,115.6,113.71,115.6z"/>
</svg>
