<?xml version="1.0" encoding="utf-8"?>
<!-- Generator: Adobe Illustrator 26.0.1, SVG Export Plug-In . SVG Version: 6.00 Build 0)  -->
<svg version="1.1" id="CRO_x5F_Hub-Where_x5F_To_x5F_Put_x5F_Social_x5F_Proof"
	 xmlns="http://www.w3.org/2000/svg" xmlns:xlink="http://www.w3.org/1999/xlink" x="0px" y="0px" viewBox="0 0 400 400"
	 style="enable-background:new 0 0 400 400;" xml:space="preserve">
<style type="text/css">
	.st0{fill:none;}
	.st1{fill:#515979;}
	.st2{fill:#1877F2;}
	.st3{fill:#0072B1;}
	.st4{fill:#F89D81;}
	.st5{fill:#FDE1D9;}
	.st6{fill:#667683;}
	.st7{fill:#FFFFFF;}
	.st8{fill:#EF7D7D;}
	.st9{fill:#FFE8A0;}
	.st10{fill:#7DDF96;}
	.st11{fill:#FFD886;}
</style>
<rect class="st0" width="400" height="400"/>
<g>
	<g>
		<path class="st1" d="M183.05,340.57C183.05,340.57,183.05,340.57,183.05,340.57c-1.7,0-3.4-0.03-5.05-0.09
			c-0.83-0.03-1.47-0.73-1.44-1.55c0.03-0.83,0.74-1.48,1.56-1.44c1.62,0.06,3.28,0.09,4.94,0.09c0.83,0,1.5,0.67,1.5,1.5
			S183.88,340.57,183.05,340.57z M192.04,340.28c-0.78,0-1.44-0.61-1.5-1.4c-0.05-0.83,0.57-1.54,1.4-1.59
			c1.63-0.11,3.29-0.24,4.93-0.41c0.82-0.09,1.56,0.52,1.64,1.34c0.08,0.82-0.52,1.56-1.34,1.64c-1.67,0.17-3.37,0.31-5.04,0.42
			C192.11,340.28,192.07,340.28,192.04,340.28z M169.08,339.85c-0.05,0-0.1,0-0.15-0.01c-1.67-0.17-3.36-0.37-5.02-0.6
			c-0.82-0.11-1.39-0.87-1.28-1.69c0.11-0.82,0.87-1.39,1.69-1.28c1.62,0.22,3.27,0.42,4.91,0.59c0.82,0.08,1.42,0.82,1.34,1.64
			C170.49,339.28,169.84,339.85,169.08,339.85z M155.25,337.74c-0.1,0-0.2-0.01-0.3-0.03c-1.63-0.33-3.29-0.71-4.93-1.11
			c-0.8-0.2-1.3-1.01-1.1-1.81c0.2-0.8,1-1.3,1.81-1.1c1.61,0.39,3.23,0.76,4.82,1.08c0.81,0.17,1.33,0.96,1.17,1.77
			C156.57,337.25,155.95,337.74,155.25,337.74z M141.71,334.22c-0.15,0-0.3-0.02-0.45-0.07c-1.61-0.51-3.22-1.05-4.79-1.61
			c-0.78-0.28-1.19-1.14-0.91-1.92c0.28-0.78,1.14-1.19,1.92-0.91c1.53,0.55,3.11,1.08,4.69,1.57c0.79,0.25,1.23,1.09,0.98,1.88
			C142.94,333.81,142.35,334.22,141.71,334.22z M128.59,329.32c-0.2,0-0.4-0.04-0.6-0.12c-1.53-0.66-3.08-1.37-4.61-2.1
			c-0.75-0.36-1.07-1.25-0.71-2c0.36-0.75,1.25-1.06,2-0.71c1.5,0.71,3.02,1.41,4.51,2.05c0.76,0.33,1.11,1.21,0.78,1.97
			C129.72,328.98,129.17,329.32,128.59,329.32z M116.03,323.1c-0.25,0-0.5-0.06-0.73-0.19c-1.46-0.82-2.93-1.68-4.37-2.56
			c-0.71-0.43-0.93-1.35-0.5-2.06c0.43-0.71,1.35-0.93,2.06-0.5c1.4,0.86,2.84,1.7,4.27,2.5c0.72,0.41,0.98,1.32,0.57,2.04
			C117.07,322.82,116.56,323.1,116.03,323.1z M104.19,315.63c-0.3,0-0.6-0.09-0.86-0.27c-1.37-0.97-2.75-1.97-4.08-2.99
			c-0.66-0.5-0.79-1.44-0.29-2.1c0.5-0.66,1.44-0.79,2.1-0.29c1.31,0.99,2.65,1.98,3.99,2.92c0.68,0.48,0.84,1.41,0.36,2.09
			C105.12,315.41,104.66,315.63,104.19,315.63z M93.17,306.99c-0.35,0-0.7-0.12-0.98-0.37c-1.27-1.1-2.53-2.24-3.75-3.38
			c-0.6-0.57-0.64-1.52-0.07-2.12c0.56-0.61,1.51-0.64,2.12-0.07c1.19,1.12,2.43,2.23,3.67,3.31c0.63,0.54,0.69,1.49,0.15,2.12
			C94.01,306.82,93.59,306.99,93.17,306.99z M83.09,297.29c-0.4,0-0.8-0.16-1.09-0.47c-1.15-1.23-2.29-2.49-3.39-3.75
			c-0.54-0.62-0.48-1.57,0.14-2.12c0.62-0.54,1.57-0.48,2.12,0.14c1.07,1.23,2.19,2.46,3.32,3.67c0.57,0.6,0.54,1.55-0.07,2.12
			C83.83,297.15,83.46,297.29,83.09,297.29z M74.05,286.61c-0.45,0-0.9-0.2-1.19-0.59c-1.02-1.33-2.02-2.7-2.99-4.07
			c-0.48-0.68-0.32-1.61,0.36-2.09c0.68-0.48,1.61-0.32,2.09,0.36c0.95,1.34,1.93,2.68,2.93,3.98c0.5,0.66,0.38,1.6-0.28,2.1
			C74.69,286.51,74.37,286.61,74.05,286.61z M66.14,275.08c-0.5,0-1-0.25-1.28-0.72c-0.87-1.41-1.73-2.88-2.56-4.35
			c-0.41-0.72-0.15-1.64,0.57-2.04c0.72-0.41,1.64-0.15,2.04,0.57c0.81,1.44,1.66,2.87,2.51,4.26c0.43,0.71,0.21,1.63-0.49,2.06
			C66.68,275.01,66.41,275.08,66.14,275.08z M302.38,274.33c-0.24,0-0.48-0.06-0.7-0.17c-0.73-0.39-1.01-1.29-0.63-2.03
			c0.76-1.45,1.51-2.94,2.23-4.42c0.36-0.75,1.25-1.06,2-0.7c0.75,0.36,1.06,1.25,0.7,2c-0.73,1.52-1.5,3.04-2.28,4.52
			C303.43,274.04,302.91,274.33,302.38,274.33z M59.45,262.81c-0.56,0-1.09-0.31-1.35-0.85c-0.72-1.51-1.43-3.05-2.1-4.58
			c-0.33-0.76,0.01-1.64,0.77-1.98c0.76-0.33,1.64,0.02,1.98,0.77c0.66,1.5,1.35,3.01,2.06,4.48c0.36,0.75,0.04,1.64-0.7,2
			C59.89,262.76,59.67,262.81,59.45,262.81z M54.05,249.93c-0.61,0-1.19-0.38-1.41-0.99c-0.57-1.57-1.11-3.18-1.62-4.77
			c-0.25-0.79,0.18-1.63,0.97-1.89c0.79-0.25,1.63,0.18,1.89,0.97c0.5,1.56,1.03,3.13,1.59,4.67c0.28,0.78-0.12,1.64-0.9,1.92
			C54.39,249.9,54.21,249.93,54.05,249.93z M49.99,236.55c-0.67,0-1.29-0.46-1.46-1.14c-0.4-1.63-0.78-3.29-1.13-4.93
			c-0.17-0.81,0.35-1.61,1.16-1.78c0.82-0.17,1.61,0.35,1.78,1.16c0.33,1.6,0.71,3.22,1.1,4.82c0.2,0.8-0.29,1.62-1.1,1.82
			C50.23,236.54,50.11,236.55,49.99,236.55z M47.32,222.82c-0.74,0-1.38-0.54-1.48-1.29c-0.23-1.65-0.44-3.34-0.61-5.02
			c-0.09-0.82,0.51-1.56,1.34-1.65c0.83-0.07,1.56,0.51,1.65,1.34c0.17,1.64,0.37,3.29,0.6,4.91c0.12,0.82-0.46,1.58-1.28,1.7
			C47.47,222.82,47.39,222.82,47.32,222.82z M46.08,208.89c-0.8,0-1.47-0.63-1.5-1.44c-0.06-1.67-0.1-3.37-0.1-5.05
			c0-0.83,0.67-1.5,1.5-1.5c0,0,0,0,0,0c0.83,0,1.5,0.67,1.5,1.5c0,1.65,0.04,3.31,0.1,4.94c0.03,0.83-0.61,1.52-1.44,1.56
			C46.12,208.89,46.1,208.89,46.08,208.89z M46.25,194.9c-0.03,0-0.06,0-0.09,0c-0.83-0.05-1.46-0.76-1.4-1.59
			c0.1-1.68,0.24-3.37,0.41-5.04c0.08-0.82,0.81-1.42,1.64-1.35c0.82,0.08,1.43,0.82,1.35,1.64c-0.16,1.63-0.29,3.29-0.4,4.93
			C47.7,194.28,47.04,194.9,46.25,194.9z M47.83,181c-0.08,0-0.16-0.01-0.25-0.02c-0.82-0.14-1.37-0.91-1.24-1.72
			c0.27-1.65,0.58-3.32,0.91-4.97c0.16-0.81,0.96-1.33,1.77-1.17c0.81,0.16,1.34,0.96,1.17,1.77c-0.33,1.61-0.63,3.25-0.89,4.86
			C49.19,180.48,48.55,181,47.83,181z M50.81,167.33c-0.13,0-0.26-0.02-0.4-0.05c-0.8-0.22-1.27-1.04-1.05-1.84
			c0.44-1.62,0.92-3.25,1.42-4.85c0.25-0.79,1.09-1.23,1.88-0.98c0.79,0.25,1.23,1.09,0.98,1.88c-0.49,1.56-0.96,3.16-1.39,4.75
			C52.07,166.89,51.47,167.33,50.81,167.33z M55.18,154.04c-0.18,0-0.36-0.03-0.54-0.1c-0.77-0.3-1.16-1.17-0.86-1.94
			c0.61-1.57,1.25-3.15,1.92-4.69c0.33-0.76,1.21-1.11,1.97-0.79c0.76,0.33,1.11,1.21,0.79,1.97c-0.65,1.51-1.28,3.05-1.87,4.59
			C56.35,153.67,55.78,154.04,55.18,154.04z M60.9,141.25c-0.23,0-0.46-0.05-0.68-0.16c-0.74-0.38-1.03-1.28-0.65-2.02
			c0.77-1.5,1.57-3,2.38-4.47c0.4-0.72,1.32-0.98,2.04-0.58c0.72,0.4,0.98,1.32,0.58,2.04c-0.8,1.43-1.58,2.9-2.33,4.37
			C61.97,140.95,61.44,141.25,60.9,141.25z M304.04,139.06c-0.54,0-1.05-0.29-1.32-0.79c-0.77-1.44-1.58-2.89-2.4-4.31
			c-0.42-0.72-0.17-1.63,0.54-2.05c0.71-0.42,1.63-0.17,2.05,0.54c0.85,1.45,1.67,2.94,2.46,4.41c0.39,0.73,0.11,1.64-0.62,2.03
			C304.52,139,304.28,139.06,304.04,139.06z M67.9,129.11c-0.28,0-0.56-0.08-0.81-0.24c-0.7-0.45-0.89-1.38-0.44-2.07
			c0.91-1.41,1.86-2.82,2.83-4.2c0.48-0.68,1.41-0.84,2.09-0.37c0.68,0.48,0.84,1.41,0.37,2.09c-0.94,1.34-1.87,2.73-2.77,4.1
			C68.87,128.87,68.39,129.11,67.9,129.11z M76.1,117.76c-0.33,0-0.66-0.11-0.94-0.33c-0.65-0.52-0.75-1.46-0.23-2.11
			c1.05-1.31,2.14-2.62,3.24-3.89c0.54-0.63,1.49-0.69,2.12-0.15c0.63,0.54,0.69,1.49,0.15,2.12c-1.07,1.24-2.14,2.52-3.17,3.8
			C76.97,117.57,76.54,117.76,76.1,117.76z M85.4,107.31c-0.38,0-0.76-0.14-1.05-0.43c-0.59-0.58-0.6-1.53-0.02-2.12
			c1.17-1.19,2.39-2.38,3.61-3.53c0.6-0.57,1.55-0.54,2.12,0.06c0.57,0.6,0.54,1.55-0.06,2.12c-1.2,1.13-2.39,2.29-3.53,3.46
			C86.18,107.16,85.79,107.31,85.4,107.31z M95.72,97.85c-0.43,0-0.86-0.19-1.16-0.54c-0.53-0.64-0.44-1.58,0.2-2.11
			c1.29-1.06,2.62-2.12,3.95-3.15c0.66-0.5,1.6-0.38,2.1,0.28c0.5,0.66,0.38,1.6-0.28,2.1c-1.31,1-2.61,2.04-3.86,3.08
			C96.4,97.74,96.06,97.85,95.72,97.85z M106.94,89.5c-0.48,0-0.96-0.23-1.25-0.67c-0.46-0.69-0.28-1.62,0.41-2.08
			c1.4-0.93,2.82-1.85,4.25-2.73c0.71-0.44,1.63-0.22,2.06,0.49c0.44,0.71,0.22,1.63-0.49,2.06c-1.39,0.86-2.79,1.76-4.15,2.67
			C107.51,89.42,107.22,89.5,106.94,89.5z M118.94,82.33c-0.54,0-1.06-0.29-1.33-0.8c-0.39-0.73-0.11-1.64,0.62-2.03
			c1.48-0.79,2.99-1.55,4.5-2.28c0.74-0.36,1.64-0.05,2,0.7c0.36,0.75,0.05,1.64-0.7,2c-1.47,0.71-2.95,1.46-4.4,2.23
			C119.41,82.27,119.17,82.33,118.94,82.33z M131.6,76.42c-0.59,0-1.15-0.35-1.39-0.94c-0.31-0.77,0.06-1.64,0.83-1.95
			c1.55-0.63,3.13-1.24,4.7-1.81c0.78-0.28,1.64,0.12,1.92,0.9c0.28,0.78-0.12,1.64-0.9,1.92c-1.54,0.56-3.09,1.16-4.6,1.77
			C131.98,76.39,131.79,76.42,131.6,76.42z M144.79,71.85c-0.65,0-1.25-0.43-1.44-1.08c-0.23-0.8,0.23-1.63,1.02-1.86
			c1.62-0.47,3.26-0.91,4.88-1.32c0.81-0.2,1.62,0.29,1.82,1.09c0.2,0.8-0.29,1.62-1.09,1.82c-1.59,0.4-3.19,0.83-4.77,1.29
			C145.07,71.83,144.93,71.85,144.79,71.85z M158.41,68.64c-0.71,0-1.34-0.51-1.47-1.23c-0.15-0.81,0.39-1.6,1.21-1.74
			c1.65-0.3,3.33-0.57,4.99-0.81c0.82-0.11,1.58,0.45,1.7,1.27c0.12,0.82-0.45,1.58-1.27,1.7c-1.62,0.23-3.26,0.5-4.88,0.79
			C158.58,68.63,158.49,68.64,158.41,68.64z M207.17,68.22c-0.08,0-0.16-0.01-0.24-0.02c-1.61-0.26-3.26-0.5-4.89-0.7
			c-0.82-0.1-1.41-0.85-1.3-1.67c0.1-0.82,0.85-1.41,1.67-1.3c1.67,0.21,3.35,0.45,5,0.72c0.82,0.13,1.37,0.9,1.24,1.72
			C208.53,67.7,207.89,68.22,207.17,68.22z M172.28,66.85c-0.78,0-1.43-0.6-1.49-1.38c-0.06-0.83,0.55-1.55,1.38-1.61
			c1.67-0.13,3.36-0.23,5.04-0.3c0.87-0.03,1.53,0.61,1.56,1.44c0.03,0.83-0.61,1.53-1.44,1.56c-1.65,0.07-3.31,0.17-4.94,0.29
			C172.36,66.85,172.32,66.85,172.28,66.85z M192.26,66.68c-0.03,0-0.06,0-0.09,0c-0.94-0.06-1.88-0.1-2.82-0.14
			c-0.71-0.03-1.42-0.05-2.12-0.07c-0.83-0.02-1.48-0.71-1.46-1.54c0.02-0.83,0.72-1.47,1.54-1.46c0.72,0.02,1.45,0.04,2.17,0.07
			c0.96,0.04,1.92,0.08,2.88,0.14c0.83,0.05,1.46,0.76,1.41,1.59C193.71,66.07,193.05,66.68,192.26,66.68z"/>
	</g>
</g>
<g>
	<g>
		<path class="st1" d="M262.11,283.63c16.02,0,17.92,0.06,24.25,0.35c5.85,0.27,9.03,1.24,11.14,2.07c2.8,1.09,4.8,2.39,6.9,4.49
			c2.1,2.1,3.4,4.1,4.49,6.9c0.82,2.11,1.8,5.29,2.07,11.14c0.29,6.33,0.35,8.22,0.35,24.25s-0.06,17.92-0.35,24.25
			c-0.27,5.85-1.24,9.03-2.07,11.14c-1.09,2.8-2.39,4.8-4.49,6.9c-2.1,2.1-4.1,3.4-6.9,4.49c-2.11,0.82-5.29,1.8-11.14,2.07
			c-6.33,0.29-8.22,0.35-24.25,0.35s-17.92-0.06-24.25-0.35c-5.85-0.27-9.03-1.24-11.14-2.07c-2.8-1.09-4.8-2.39-6.9-4.49
			c-2.1-2.1-3.4-4.1-4.49-6.9c-0.82-2.11-1.8-5.29-2.07-11.14c-0.29-6.33-0.35-8.22-0.35-24.25c0-16.02,0.06-17.92,0.35-24.25
			c0.27-5.85,1.24-9.03,2.07-11.14c1.09-2.8,2.39-4.8,4.49-6.9c2.1-2.1,4.1-3.4,6.9-4.49c2.11-0.82,5.29-1.8,11.14-2.07
			C244.19,283.7,246.09,283.63,262.11,283.63 M262.11,272.82c-16.3,0-18.34,0.07-24.74,0.36c-6.39,0.29-10.75,1.31-14.56,2.79
			c-3.95,1.53-7.29,3.58-10.63,6.92c-3.34,3.34-5.39,6.68-6.92,10.63c-1.48,3.82-2.5,8.18-2.79,14.56
			c-0.29,6.4-0.36,8.44-0.36,24.74s0.07,18.34,0.36,24.74c0.29,6.39,1.31,10.75,2.79,14.56c1.53,3.95,3.58,7.29,6.92,10.63
			c3.34,3.34,6.68,5.39,10.63,6.92c3.82,1.48,8.18,2.5,14.56,2.79c6.4,0.29,8.44,0.36,24.74,0.36s18.34-0.07,24.74-0.36
			c6.39-0.29,10.75-1.31,14.56-2.79c3.95-1.53,7.29-3.58,10.63-6.92c3.34-3.34,5.39-6.68,6.92-10.63c1.48-3.82,2.5-8.18,2.79-14.56
			c0.29-6.4,0.36-8.44,0.36-24.74c0-16.3-0.07-18.34-0.36-24.74c-0.29-6.39-1.31-10.75-2.79-14.56c-1.53-3.95-3.58-7.29-6.92-10.63
			c-3.34-3.34-6.68-5.39-10.63-6.92c-3.82-1.48-8.18-2.5-14.56-2.79C280.45,272.89,278.4,272.82,262.11,272.82L262.11,272.82z"/>
	</g>
	<g>
		<path class="st1" d="M262.11,302.01c-17.02,0-30.81,13.79-30.81,30.81s13.79,30.81,30.81,30.81s30.81-13.79,30.81-30.81
			C292.92,315.81,279.13,302.01,262.11,302.01z M262.11,352.82c-11.05,0-20-8.95-20-20s8.95-20,20-20c11.05,0,20,8.95,20,20
			S273.15,352.82,262.11,352.82z"/>
	</g>
	<g>
		<circle class="st1" cx="294.14" cy="300.8" r="7.2"/>
	</g>
</g>
<g>
	<path class="st2" d="M328.1,138.47c-35.9,0-65,29.1-65,65c0,32.44,23.77,59.33,54.84,64.21l0-45.42h-16.5v-18.79h16.5v-14.32
		c0-16.29,9.7-25.29,24.55-25.29c7.11,0,14.55,1.27,14.55,1.27v16h-8.2c-8.07,0-10.59,5.01-10.59,10.15v12.19h18.03l-2.88,18.79
		h-15.15l0,45.42c31.07-4.88,54.84-31.77,54.84-64.21C393.1,167.57,364,138.47,328.1,138.47z"/>
</g>
<g>
	<path class="st3" d="M324.37,8.61H223.52c-4.83,0-8.75,3.82-8.75,8.53v102.04c0,4.71,3.92,8.53,8.75,8.53h100.85
		c4.83,0,8.75-3.82,8.75-8.53V17.15C333.12,12.44,329.2,8.61,324.37,8.61z M232.77,108.31V54.53h17.88v53.78h0H232.77z
		 M241.71,47.19h-0.12c-6,0-9.88-4.13-9.88-9.29c0-5.28,4-9.29,10.11-9.29c6.11,0,9.88,4.01,9.99,9.29
		C251.82,43.06,247.94,47.19,241.71,47.19z M315.1,108.31h-17.87V79.54c0-7.23-2.59-12.16-9.05-12.16c-4.94,0-7.88,3.33-9.17,6.54
		c-0.47,1.15-0.59,2.76-0.59,4.36v30.03h-17.87l0,0c0,0,0.23-48.73,0-53.78h17.87v7.61c2.38-3.66,6.63-8.88,16.11-8.88
		c11.76,0,20.58,7.69,20.58,24.2V108.31z"/>
</g>
<g>
	<g>
		<g>
			<path class="st4" d="M39.05,307.46c-7.17,0-13-5.83-13-13v-198c0-7.17,5.83-13,13-13h134c7.17,0,13,5.83,13,13v198
				c0,7.17-5.83,13-13,13H39.05z"/>
		</g>
		<g>
			<g>
				<path class="st1" d="M173.05,86.46c5.52,0,10,4.48,10,10v198c0,5.52-4.48,10-10,10h-134c-5.52,0-10-4.48-10-10v-198
					c0-5.52,4.48-10,10-10H173.05 M173.05,80.46h-134c-8.82,0-16,7.18-16,16v198c0,8.82,7.18,16,16,16h134c8.82,0,16-7.18,16-16
					v-198C189.05,87.64,181.87,80.46,173.05,80.46L173.05,80.46z"/>
			</g>
		</g>
	</g>
	<g>
		<rect x="29.05" y="178.46" class="st5" width="154" height="72"/>
	</g>
	<g>
		<g>
			<path class="st6" d="M29.05,117.46c-1.66,0-3-1.34-3-3v-18c0-7.17,5.83-13,13-13h134c7.17,0,13,5.83,13,13v18c0,1.66-1.34,3-3,3
				H29.05z"/>
		</g>
		<g>
			<path class="st1" d="M173.05,86.46c5.52,0,10,4.48,10,10v18h-154v-18c0-5.52,4.48-10,10-10H173.05 M173.05,80.46h-134
				c-8.82,0-16,7.18-16,16v18c0,3.31,2.69,6,6,6h154c3.31,0,6-2.69,6-6v-18C189.05,87.64,181.87,80.46,173.05,80.46L173.05,80.46z"
				/>
		</g>
	</g>
	<g>
		<g>
			<path class="st7" d="M110.05,105.46c-3.31,0-6-2.69-6-6s2.69-6,6-6h58c3.31,0,6,2.69,6,6s-2.69,6-6,6H110.05z"/>
		</g>
		<g>
			<g>
				<path class="st1" d="M168.05,96.46c1.66,0,3,1.34,3,3s-1.34,3-3,3h-58c-1.66,0-3-1.34-3-3s1.34-3,3-3H168.05 M168.05,90.46h-58
					c-4.96,0-9,4.04-9,9s4.04,9,9,9h58c4.96,0,9-4.04,9-9S173.01,90.46,168.05,90.46L168.05,90.46z"/>
			</g>
		</g>
	</g>
	<g>
		<g>
			<circle class="st8" cx="44.05" cy="99.46" r="6"/>
		</g>
		<g>
			<g>
				<path class="st1" d="M44.05,96.46c1.66,0,3,1.34,3,3s-1.34,3-3,3s-3-1.34-3-3S42.39,96.46,44.05,96.46 M44.05,90.46
					c-4.96,0-9,4.04-9,9s4.04,9,9,9s9-4.04,9-9S49.01,90.46,44.05,90.46L44.05,90.46z"/>
			</g>
		</g>
	</g>
	<g>
		<g>
			<circle class="st9" cx="65.05" cy="99.46" r="6"/>
		</g>
		<g>
			<g>
				<path class="st1" d="M65.05,96.46c1.66,0,3,1.34,3,3s-1.34,3-3,3s-3-1.34-3-3S63.39,96.46,65.05,96.46 M65.05,90.46
					c-4.96,0-9,4.04-9,9s4.04,9,9,9s9-4.04,9-9S70.01,90.46,65.05,90.46L65.05,90.46z"/>
			</g>
		</g>
	</g>
	<g>
		<g>
			<circle class="st10" cx="86.05" cy="99.46" r="6"/>
		</g>
		<g>
			<g>
				<path class="st1" d="M86.05,96.46c1.66,0,3,1.34,3,3s-1.34,3-3,3s-3-1.34-3-3S84.39,96.46,86.05,96.46 M86.05,90.46
					c-4.96,0-9,4.04-9,9s4.04,9,9,9s9-4.04,9-9S91.01,90.46,86.05,90.46L86.05,90.46z"/>
			</g>
		</g>
	</g>
	<g>
		<g>
			<g>
				<circle class="st8" cx="136.05" cy="150.46" r="2"/>
			</g>
			<g>
				<circle class="st8" cx="132.05" cy="158.46" r="2"/>
			</g>
			<g>
				<circle class="st8" cx="140.05" cy="158.46" r="2"/>
			</g>
		</g>
		<g>
			<g>
				<circle class="st8" cx="76.05" cy="150.46" r="2"/>
			</g>
			<g>
				<circle class="st8" cx="72.05" cy="158.46" r="2"/>
			</g>
			<g>
				<circle class="st8" cx="80.05" cy="158.46" r="2"/>
			</g>
		</g>
	</g>
	<g>
		<g>
			<g>
				<path class="st1" d="M114.07,150.47c-0.62,0-1.2-0.39-1.42-1.01c-0.27-0.78,0.15-1.64,0.93-1.91c2.24-0.77,5.74-0.77,7.98,0
					c0.78,0.27,1.2,1.12,0.93,1.91c-0.27,0.78-1.12,1.2-1.91,0.93c-1.6-0.55-4.42-0.55-6.02,0
					C114.4,150.44,114.23,150.47,114.07,150.47z"/>
			</g>
			<g>
				<g>
					<circle class="st1" cx="117.57" cy="142.27" r="6"/>
				</g>
				<g>
					<circle class="st7" cx="119.07" cy="142.27" r="1.5"/>
				</g>
			</g>
			<g>
				<path class="st1" d="M114.14,128.33c0.97-0.61,1.86-0.91,2.88-1.12c0.99-0.21,2.03-0.24,3.08-0.12c1.04,0.11,2.1,0.44,3.07,0.95
					c0.97,0.5,1.83,1.28,2.42,2.19c0.52,0.8,0.29,1.86-0.51,2.38c-0.38,0.24-0.81,0.32-1.22,0.25l-0.4-0.07
					c-0.78-0.13-1.39-0.32-2.04-0.43c-0.65-0.1-1.27-0.25-1.96-0.33l-2.11-0.25c-0.72-0.08-1.55-0.12-2.25-0.27l-0.42-0.09
					c-0.92-0.2-1.5-1.11-1.29-2.02C113.49,128.94,113.77,128.57,114.14,128.33z"/>
			</g>
		</g>
		<g>
			<g>
				<path class="st1" d="M98.02,150.47c-0.16,0-0.33-0.03-0.49-0.08c-1.6-0.55-4.42-0.55-6.02,0c-0.78,0.27-1.64-0.15-1.91-0.93
					c-0.27-0.78,0.15-1.64,0.93-1.91c2.24-0.77,5.74-0.77,7.98,0c0.78,0.27,1.2,1.12,0.93,1.91
					C99.22,150.08,98.64,150.47,98.02,150.47z"/>
			</g>
			<g>
				<g>
					<circle class="st1" cx="94.52" cy="142.27" r="6"/>
				</g>
				<g>
					<circle class="st7" cx="96.02" cy="142.27" r="1.5"/>
				</g>
			</g>
			<g>
				<path class="st1" d="M96.99,131.52c-0.7,0.15-1.53,0.2-2.25,0.27l-2.11,0.25c-0.68,0.08-1.3,0.22-1.96,0.33
					c-0.65,0.11-1.26,0.3-2.04,0.43l-0.39,0.07c-0.94,0.16-1.83-0.47-1.98-1.41c-0.07-0.44,0.03-0.88,0.25-1.22
					c0.59-0.92,1.45-1.69,2.42-2.19c0.96-0.52,2.02-0.84,3.07-0.95c1.05-0.12,2.08-0.08,3.08,0.12c1.01,0.21,1.9,0.51,2.88,1.12
					c0.79,0.5,1.03,1.55,0.54,2.34c-0.25,0.4-0.64,0.66-1.07,0.76L96.99,131.52z"/>
			</g>
		</g>
		<g>
			<path class="st1" d="M118.05,153.68h-24c-1.06,0-2.08,0.42-2.83,1.17c-0.75,0.75-1.17,1.77-1.17,2.83c0,8.82,7.18,16,16,16
				c8.82,0,16-7.18,16-16C122.05,155.48,120.25,153.68,118.05,153.68z"/>
			<g>
				<g>
					<ellipse class="st8" cx="106.05" cy="165.68" rx="8.93" ry="4"/>
				</g>
			</g>
		</g>
	</g>
	<g>
		<circle class="st5" cx="59.05" cy="277.46" r="18"/>
	</g>
	<g>
		<circle class="st5" cx="106.05" cy="277.46" r="18"/>
	</g>
	<g>
		<circle class="st5" cx="153.05" cy="277.46" r="18"/>
	</g>
	<g>
		<path class="st7" d="M167.05,238.46h-51c-2.21,0-4-1.79-4-4v-40c0-2.21,1.79-4,4-4h51c2.21,0,4,1.79,4,4v40
			C171.05,236.67,169.25,238.46,167.05,238.46z"/>
	</g>
	<g>
		<path class="st4" d="M163.05,224.46h-43c-1.1,0-2-0.9-2-2l0,0c0-1.1,0.9-2,2-2h43c1.1,0,2,0.9,2,2l0,0
			C165.05,223.57,164.15,224.46,163.05,224.46z"/>
	</g>
	<g>
		<path class="st4" d="M157.05,232.46h-37c-1.1,0-2-0.9-2-2l0,0c0-1.1,0.9-2,2-2h37c1.1,0,2,0.9,2,2l0,0
			C159.05,231.57,158.15,232.46,157.05,232.46z"/>
	</g>
	<g>
		<path class="st4" d="M163.05,216.46h-43c-1.1,0-2-0.9-2-2l0,0c0-1.1,0.9-2,2-2h43c1.1,0,2,0.9,2,2l0,0
			C165.05,215.57,164.15,216.46,163.05,216.46z"/>
	</g>
	<g>
		<circle class="st5" cx="124.05" cy="202.46" r="6"/>
	</g>
	<g>
		<path class="st7" d="M96.05,238.46h-51c-2.21,0-4-1.79-4-4v-40c0-2.21,1.79-4,4-4h51c2.21,0,4,1.79,4,4v40
			C100.05,236.67,98.25,238.46,96.05,238.46z"/>
	</g>
	<g>
		<path class="st4" d="M92.05,224.46h-43c-1.1,0-2-0.9-2-2l0,0c0-1.1,0.9-2,2-2h43c1.1,0,2,0.9,2,2l0,0
			C94.05,223.57,93.15,224.46,92.05,224.46z"/>
	</g>
	<g>
		<path class="st4" d="M86.05,232.46h-37c-1.1,0-2-0.9-2-2l0,0c0-1.1,0.9-2,2-2h37c1.1,0,2,0.9,2,2l0,0
			C88.05,231.57,87.15,232.46,86.05,232.46z"/>
	</g>
	<g>
		<path class="st4" d="M92.05,216.46h-43c-1.1,0-2-0.9-2-2l0,0c0-1.1,0.9-2,2-2h43c1.1,0,2,0.9,2,2l0,0
			C94.05,215.57,93.15,216.46,92.05,216.46z"/>
	</g>
	<g>
		<circle class="st5" cx="53.05" cy="202.46" r="6"/>
	</g>
</g>
<g>
	<circle class="st11" cx="232.77" cy="154.04" r="4.5"/>
</g>
<g>
	<circle class="st11" cx="350.51" cy="326.78" r="4.5"/>
</g>
<g>
	<circle class="st11" cx="76.05" cy="54.53" r="4.5"/>
</g>
<g>
	<circle class="st11" cx="241.71" cy="246.07" r="3.5"/>
</g>
<g>
	<circle class="st11" cx="374.94" cy="363.63" r="3.5"/>
</g>
<g>
	<circle class="st11" cx="110.22" cy="28.61" r="3.5"/>
</g>
<g>
	<circle class="st11" cx="143.29" cy="47.19" r="3.5"/>
</g>
<path class="st11" d="M380.44,287.58h-6v-6c0-1.66-1.34-3-3-3s-3,1.34-3,3v6h-6c-1.66,0-3,1.34-3,3s1.34,3,3,3h6v6
	c0,1.66,1.34,3,3,3s3-1.34,3-3v-6h6c1.66,0,3-1.34,3-3S382.1,287.58,380.44,287.58z"/>
<g>
	<path class="st11" d="M63.32,21.66c-2.98,0-5.4-2.42-5.4-5.4c0-0.99-0.81-1.8-1.8-1.8c-0.99,0-1.8,0.81-1.8,1.8
		c0,2.98-2.42,5.4-5.4,5.4c-0.99,0-1.8,0.81-1.8,1.8s0.81,1.8,1.8,1.8c2.98,0,5.4,2.42,5.4,5.4c0,0.99,0.81,1.8,1.8,1.8
		c0.99,0,1.8-0.81,1.8-1.8c0-2.98,2.42-5.4,5.4-5.4c0.99,0,1.8-0.81,1.8-1.8S64.32,21.66,63.32,21.66z"/>
</g>
<g>
	<path class="st11" d="M220.12,203.09c-2.98,0-5.4-2.42-5.4-5.4c0-0.99-0.81-1.8-1.8-1.8c-0.99,0-1.8,0.81-1.8,1.8
		c0,2.98-2.42,5.4-5.4,5.4c-0.99,0-1.8,0.81-1.8,1.8s0.81,1.8,1.8,1.8c2.98,0,5.4,2.42,5.4,5.4c0,0.99,0.81,1.8,1.8,1.8
		c0.99,0,1.8-0.81,1.8-1.8c0-2.98,2.42-5.4,5.4-5.4c0.99,0,1.8-0.81,1.8-1.8S221.11,203.09,220.12,203.09z"/>
</g>
</svg>
