<svg version="1.1" id="hero-image" xmlns="http://www.w3.org/2000/svg" x="0" y="0" viewBox="0 0 1440 400" style="enable-background:new 0 0 1440 400" xml:space="preserve"><style>.st1{fill:#515979}.st3{fill:#fff}.st4{fill:#ef7d7d}.st7{fill:#2196f3}.st8{fill:#00c853}.st9{fill:#d8ebfb}.st10{fill:#fde1d9}.st14{fill:#ffd886}.st15{fill:#7ddf96}</style><path d="M256 107.7c-5 0-9-4-9-9v-58c0-5 4-9 9-9h188c5 0 9 4 9 9v58c0 5-4 9-9 9H256z" style="fill:#7170b2"/><path class="st1" d="M444 34.7c3.3 0 6 2.7 6 6v58c0 3.3-2.7 6-6 6H256c-3.3 0-6-2.7-6-6v-58c0-3.3 2.7-6 6-6h188m0-6H256c-6.6 0-12 5.4-12 12v58c0 6.6 5.4 12 12 12h188c6.6 0 12-5.4 12-12v-58c0-6.6-5.4-12-12-12z"/><path d="M274 107.7c-5 0-9-4-9-9v-58c0-5 4-9 9-9h188c5 0 9 4 9 9v58c0 5-4 9-9 9H274z" style="fill:#aaa0ff"/><path class="st1" d="M462 34.7c3.3 0 6 2.7 6 6v58c0 3.3-2.7 6-6 6H274c-3.3 0-6-2.7-6-6v-58c0-3.3 2.7-6 6-6h188m0-6H274c-6.6 0-12 5.4-12 12v58c0 6.6 5.4 12 12 12h188c6.6 0 12-5.4 12-12v-58c0-6.6-5.4-12-12-12z"/><path class="st1" d="M387.5 54.3c-.3 0-.6-.1-.9-.2-1.9-1-5.2-1-7.1 0-1 .5-2.2.2-2.7-.8s-.2-2.2.8-2.7c3-1.6 7.8-1.6 10.9 0 1 .5 1.3 1.7.8 2.7-.4.6-1.1 1-1.8 1z"/><circle class="st1" cx="383" cy="44.5" r="7"/><circle class="st3" cx="384.8" cy="44.5" r="1.8"/><path class="st1" d="M378 21.5c.6-.5 1.1-.9 1.7-1.2.6-.3 1.2-.6 1.9-.8 1.3-.4 2.8-.6 4.3-.4 1.5.1 3 .7 4.2 1.6 1.3.9 2.1 2.1 2.7 3.4.4 1 0 2.2-1.1 2.7-.5.2-1.1.2-1.6 0l-.5-.2c-.9-.4-1.6-.8-2.4-1-.7-.2-1.4-.4-2.1-.5-.7-.1-1.6-.1-2.4-.1-.4 0-.9 0-1.4.1-.5 0-1 .1-1.4 0l-.8-.1c-1.1-.1-1.9-1.1-1.8-2.2.1-.5.4-.9.7-1.3zM357.5 54.3c-.3 0-.6-.1-.9-.2-1.9-1-5.2-1-7.1 0-1 .5-2.2.2-2.7-.8s-.2-2.2.8-2.7c3-1.6 7.8-1.6 10.9 0 1 .5 1.3 1.7.8 2.7-.4.6-1.1 1-1.8 1z"/><circle class="st1" cx="353" cy="44.5" r="7"/><circle class="st3" cx="354.8" cy="44.5" r="1.8"/><path class="st1" d="M356.1 25h-1.4c-.5 0-.9 0-1.4-.1-.9 0-1.7 0-2.4.1-.8.1-1.4.3-2.1.5-.7.2-1.4.6-2.4 1l-.5.2c-1 .4-2.2 0-2.7-1.1-.2-.5-.2-1.1 0-1.6.5-1.3 1.4-2.5 2.7-3.4 1.2-.9 2.7-1.5 4.2-1.6 1.5-.2 3 0 4.3.4.7.2 1.3.5 1.9.8.6.3 1.1.7 1.7 1.2.8.7.9 2 .2 2.8-.3.4-.8.6-1.3.6l-.8.2zM368 76.7c-8.8 0-16-7.2-16-16 0-1.1.9-2 2-2h28c1.1 0 2 .9 2 2 0 8.8-7.2 16-16 16z"/><path class="st1" d="M382 60.7c0 7.7-6.3 14-14 14s-14-6.3-14-14h28m0-4h-28c-2.2 0-4 1.8-4 4 0 9.9 8.1 18 18 18s17.9-8 18-17.8v-.2c0-2.2-1.8-4-4-4zm0 8z"/><ellipse class="st4" cx="368" cy="70" rx="10.4" ry="4.7"/><path class="st3" d="M322.5 90.1h.5c.5 0 .8-.1 1-.4l3-4.3c.2-.2.4-.4.6-.5s.5-.1.8-.1h2.6l-3.9 5.3c-.3.4-.6.6-.9.8l.6.3c.2.1.4.3.5.6l4 6.1h-3.2c-.1 0-.2-.1-.3-.1s-.2-.1-.2-.2c-.1-.1-.1-.2-.2-.2l-3-4.6c-.1-.2-.2-.3-.4-.4s-.4-.1-.7-.1h-.7v5.6h-3V84.8h3l-.1 5.3zM336.2 87.2v3.1h4.1v2.2h-4.1v3.1h5.4v2.3h-8.4V84.8h8.4v2.3c0 .1-5.4.1-5.4.1zM350.6 92.9v5h-3v-5l-4.8-8.1h2.7c.3 0 .5.1.6.2s.3.3.4.5l1.9 3.8c.2.3.3.6.4.8.1.3.2.5.3.8.1-.3.2-.5.3-.8s.2-.5.4-.8l1.8-3.8c0-.1.1-.2.1-.2.1-.1.1-.2.2-.2s.2-.1.3-.2c.1 0 .2-.1.4-.1h2.7l-4.7 8.1zM375.2 84.8l-4 13.1h-2.8l-2.5-8.1c0-.1-.1-.3-.1-.4 0-.2-.1-.3-.1-.5 0 .2-.1.3-.1.5s-.1.3-.1.4l-2.5 8.1h-2.8l-4-13.1h2.6c.3 0 .5.1.7.2s.3.3.4.5l1.8 6.8c0 .2.1.4.2.7 0 .2.1.5.2.8.1-.6.2-1.1.4-1.5l2.1-6.8c0-.2.2-.3.4-.4.2-.1.4-.2.6-.2h.9c.3 0 .5.1.6.2s.3.3.4.5l2.1 6.8c.2.4.3.9.4 1.4 0-.3.1-.5.1-.8 0-.2.1-.5.2-.7l1.8-6.8c0-.2.2-.3.3-.5s.4-.2.6-.2h2.2zM389.9 91.4c0 .9-.2 1.8-.5 2.7s-.8 1.5-1.4 2.1-1.3 1.1-2.1 1.4-1.8.5-2.8.5c-1 0-2-.2-2.8-.5s-1.6-.8-2.2-1.4c-.6-.6-1.1-1.3-1.4-2.1-.3-.8-.5-1.7-.5-2.7 0-.9.2-1.8.5-2.7s.8-1.5 1.4-2.1c.6-.6 1.3-1.1 2.2-1.4s1.8-.5 2.8-.5c1 0 2 .2 2.8.5s1.5.8 2.1 1.4c.6.6 1 1.3 1.4 2.1.3.9.5 1.7.5 2.7zm-3.1 0c0-.7-.1-1.2-.2-1.8s-.4-1-.7-1.3c-.3-.4-.7-.6-1.2-.8s-1-.3-1.6-.3-1.1.1-1.6.3-.9.5-1.2.8-.6.8-.7 1.3c-.2.5-.2 1.1-.2 1.8s.1 1.2.2 1.8c.2.5.4 1 .7 1.3.3.4.7.6 1.2.8s1 .3 1.6.3c.6 0 1.1-.1 1.6-.3s.8-.5 1.2-.8c.3-.4.6-.8.7-1.3.1-.6.2-1.2.2-1.8zM403.3 97.9h-2.8c-.5 0-.9-.2-1.1-.6l-2.2-3.8c-.1-.2-.2-.3-.3-.4s-.3-.1-.5-.1h-.8v4.8h-3v-13h4.3c1 0 1.8.1 2.4.3.7.2 1.2.5 1.6.8s.7.8.9 1.2.3 1 .3 1.6c0 .4-.1.8-.2 1.2-.1.4-.3.7-.5 1.1s-.5.6-.8.9-.7.5-1.1.6c.2.1.4.2.6.4l.5.5 2.7 4.5zm-6.4-6.9c.4 0 .8-.1 1.1-.2.3-.1.5-.2.7-.4.2-.2.3-.4.4-.7s.1-.5.1-.8c0-.6-.2-1-.6-1.3-.4-.3-1-.5-1.7-.5h-1.2V91h1.2zM417.2 91.4c0 .9-.2 1.8-.5 2.6s-.8 1.5-1.4 2.1-1.3 1-2.1 1.4-1.8.5-2.8.5h-5.1V84.8h5.1c1 0 2 .2 2.8.5s1.5.8 2.1 1.4 1 1.3 1.4 2.1c.4.8.5 1.6.5 2.6zm-3.1 0c0-.7-.1-1.2-.2-1.8-.2-.5-.4-1-.7-1.3-.3-.4-.7-.6-1.2-.8s-1-.3-1.6-.3h-2v8.4h2c.6 0 1.1-.1 1.6-.3s.8-.5 1.2-.8c.3-.4.6-.8.7-1.3.1-.6.2-1.2.2-1.8z"/><path d="M847 378.3c-5 0-9-4-9-9v-58c0-5 4-9 9-9h168c5 0 9 4 9 9v58c0 5-4 9-9 9H847z" style="fill:#dc9646"/><path class="st1" d="M1015 305.3c3.3 0 6 2.7 6 6v58c0 3.3-2.7 6-6 6H847c-3.3 0-6-2.7-6-6v-58c0-3.3 2.7-6 6-6h168m0-6H847c-6.6 0-12 5.4-12 12v58c0 6.6 5.4 12 12 12h168c6.6 0 12-5.4 12-12v-58c0-6.6-5.4-12-12-12z"/><path d="M829 378.3c-5 0-9-4-9-9v-58c0-5 4-9 9-9h168c5 0 9 4 9 9v58c0 5-4 9-9 9H829z" style="fill:#fac864"/><path class="st1" d="M997 305.3c3.3 0 6 2.7 6 6v58c0 3.3-2.7 6-6 6H829c-3.3 0-6-2.7-6-6v-58c0-3.3 2.7-6 6-6h168m0-6H829c-6.6 0-12 5.4-12 12v58c0 6.6 5.4 12 12 12h168c6.6 0 12-5.4 12-12v-58c0-6.6-5.4-12-12-12z"/><path class="st1" d="M913 344.3c-8.8 0-16-7.2-16-16 0-1.1.9-2 2-2h28c1.1 0 2 .9 2 2 0 8.8-7.2 16-16 16z"/><path class="st1" d="M927 328.3c0 7.7-6.3 14-14 14s-14-6.3-14-14h28m0-4h-28c-2.2 0-4 1.8-4 4 0 9.9 8.1 18 18 18s17.9-8 18-17.8v-.2c0-2.2-1.8-4-4-4zm0 8z"/><ellipse class="st4" cx="913" cy="337.7" rx="10.4" ry="4.7"/><path class="st1" d="M923.2 292.4c.6-.5 1.1-.8 1.7-1.1.6-.3 1.2-.5 1.8-.7 1.3-.4 2.7-.5 4.1-.4 1.4.1 2.8.6 4.1 1.4 1.2.8 2.2 1.9 2.8 3.2.5 1 0 2.2-1 2.7-.5.2-1 .2-1.5.1l-.5-.2c-.9-.3-1.6-.7-2.3-.8-.7-.2-1.4-.4-2.1-.4-.8-.1-1.6-.1-2.4-.1h-2.7l-.8-.1c-1.1-.2-1.8-1.2-1.7-2.2-.1-.7.1-1.2.5-1.4zM901 295.9c-.4.1-.9 0-1.4 0h-1.3c-.9 0-1.7 0-2.4.1-.8.1-1.4.2-2.1.4-.7.2-1.4.5-2.3.8l-.5.2c-1.1.4-2.2-.2-2.6-1.3-.2-.5-.1-1.1.1-1.5.6-1.2 1.5-2.4 2.8-3.2 1.2-.8 2.7-1.3 4.1-1.4 1.4-.1 2.8 0 4.1.4.6.2 1.2.4 1.8.7.6.3 1.1.6 1.7 1.1.8.7.9 2 .2 2.8-.3.4-.8.6-1.2.7l-1 .2zM903 318.8c-1.4 0-2.5-1.1-2.5-2.5s-1.1-2.5-2.5-2.5-2.5 1.1-2.5 2.5-1.1 2.5-2.5 2.5-2.5-1.1-2.5-2.5c0-4.1 3.4-7.5 7.5-7.5s7.5 3.4 7.5 7.5c0 1.4-1.1 2.5-2.5 2.5zM933 318.8c-1.4 0-2.5-1.1-2.5-2.5s-1.1-2.5-2.5-2.5-2.5 1.1-2.5 2.5-1.1 2.5-2.5 2.5-2.5-1.1-2.5-2.5c0-4.1 3.4-7.5 7.5-7.5s7.5 3.4 7.5 7.5c0 1.4-1.1 2.5-2.5 2.5z"/><path class="st3" d="M867.5 360.8h.5c.5 0 .8-.1 1-.4l3-4.3c.2-.2.4-.4.6-.5s.5-.1.8-.1h2.7l-3.9 5.3c-.3.4-.6.6-.9.8.2.1.4.2.6.4s.4.3.5.6l4 6.1h-3.2c-.2 0-.2-.1-.3-.1s-.2-.1-.2-.2l-.2-.2-3-4.6c-.1-.2-.2-.3-.4-.4-.2-.1-.4-.1-.7-.1h-.7v5.6h-3v-13.1h3l-.2 5.2zM881.2 357.8v3.1h4.1v2.2h-4.1v3.1h5.4v2.3h-8.4v-13.1h8.4v2.3h-5.4zM895.6 363.6v5h-3v-5l-4.8-8.1h2.7c.3 0 .5.1.6.2s.3.3.4.5l1.8 3.8c.2.3.3.6.4.8.1.3.2.5.3.8.1-.3.2-.5.3-.8s.2-.5.4-.8l1.8-3.8c0-.1.1-.2.2-.2l.2-.2c.1-.1.2-.1.3-.1.1 0 .2-.1.3-.1h2.7l-4.6 8zM920.2 355.4l-4 13.1h-2.8l-2.5-8.1c0-.1-.1-.3-.1-.4s-.1-.3-.1-.5c0 .2-.1.3-.1.5s-.1.3-.1.4l-2.5 8.1h-2.8l-4-13.1h2.6c.3 0 .5.1.7.2s.3.3.3.5l1.8 6.8c0 .2.1.5.2.7 0 .2.1.5.2.8.1-.6.2-1.1.4-1.5l2.1-6.8c0-.2.2-.3.3-.5.2-.1.4-.2.6-.2h.9c.3 0 .5.1.6.2.2.1.3.3.4.5l2.1 6.8c.2.4.3.9.4 1.4 0-.3.1-.5.2-.8 0-.2.1-.5.2-.7l1.8-6.8c0-.2.2-.3.3-.5.2-.1.4-.2.7-.2l2.2.1zM934.9 362c0 1-.2 1.8-.5 2.6s-.8 1.5-1.4 2.1-1.3 1.1-2.2 1.4-1.8.5-2.8.5c-1 0-2-.2-2.8-.5s-1.6-.8-2.2-1.4c-.6-.6-1.1-1.3-1.4-2.1s-.5-1.7-.5-2.6.2-1.8.5-2.6.8-1.5 1.4-2.1c.6-.6 1.3-1.1 2.2-1.4s1.8-.5 2.8-.5c1 0 2 .2 2.8.5.8.3 1.5.8 2.2 1.4.6.6 1 1.3 1.4 2.1s.5 1.6.5 2.6zm-3.1 0c0-.6-.1-1.2-.2-1.8s-.4-1-.7-1.3c-.3-.4-.7-.6-1.2-.8-.5-.2-1-.3-1.6-.3s-1.1.1-1.6.3-.8.5-1.2.8c-.3.4-.6.8-.7 1.3s-.2 1.1-.2 1.8.1 1.2.2 1.8.4 1 .7 1.3.7.6 1.2.8c.5.2 1 .3 1.6.3.6 0 1.1-.1 1.6-.3.5-.2.8-.5 1.2-.8.3-.4.6-.8.7-1.3.1-.6.2-1.2.2-1.8zM948.3 368.6h-2.8c-.5 0-.9-.2-1.1-.6l-2.2-3.8c-.1-.2-.2-.3-.3-.4-.1-.1-.3-.1-.5-.1h-.8v4.9h-3v-13.1h4.3c1 0 1.8.1 2.4.3.7.2 1.2.5 1.6.8s.7.8.9 1.2.3 1 .3 1.5c0 .4-.1.8-.2 1.2s-.3.7-.5 1c-.2.3-.5.6-.8.9s-.7.5-1.1.6c.2.1.4.2.6.4.2.1.3.3.5.5l2.7 4.7zm-6.4-7c.4 0 .8 0 1.1-.2.3-.1.5-.2.7-.4.2-.2.3-.4.4-.6.1-.2.1-.5.1-.8 0-.6-.2-1-.6-1.4s-1-.5-1.7-.5h-1.2v3.9h1.2zM962.2 362c0 1-.2 1.8-.5 2.6s-.8 1.5-1.4 2.1c-.6.6-1.3 1-2.2 1.4s-1.8.5-2.8.5h-5.1v-13.1h5.1c1 0 2 .2 2.8.5s1.5.8 2.2 1.4 1 1.3 1.4 2.1c.4.7.5 1.5.5 2.5zm-3.1 0c0-.6-.1-1.2-.2-1.8-.2-.5-.4-1-.7-1.3-.3-.4-.7-.6-1.2-.8s-1-.3-1.6-.3h-2v8.4h2c.6 0 1.1-.1 1.6-.3s.8-.5 1.2-.8c.3-.4.6-.8.7-1.3s.2-1.2.2-1.8zM443 311c-3.3 0-6-2.7-6-6V191c0-3.3 2.7-6 6-6h114c3.3 0 6 2.7 6 6v97c0 .8-.3 1.6-.9 2.1l-20 20c-.6.6-1.3.9-2.1.9h-97z"/><path class="st1" d="M557 188c1.7 0 3 1.3 3 3v97l-20 20h-97c-1.7 0-3-1.3-3-3V191c0-1.7 1.3-3 3-3h114m0-6H443c-5 0-9 4-9 9v114c0 5 4 9 9 9h97c1.6 0 3.1-.6 4.2-1.8l20-20c1.1-1.1 1.8-2.6 1.8-4.2v-97c0-5-4-9-9-9z"/><path class="st7" d="M526.5 253h-69c-1.4 0-2.5-1.1-2.5-2.5s1.1-2.5 2.5-2.5h69c1.4 0 2.5 1.1 2.5 2.5s-1.1 2.5-2.5 2.5z"/><path class="st1" d="M512.5 273h-55c-1.4 0-2.5-1.1-2.5-2.5s1.1-2.5 2.5-2.5h55c1.4 0 2.5 1.1 2.5 2.5s-1.1 2.5-2.5 2.5zM522.5 283h-65c-1.4 0-2.5-1.1-2.5-2.5s1.1-2.5 2.5-2.5h65c1.4 0 2.5 1.1 2.5 2.5s-1.1 2.5-2.5 2.5zM502.5 293h-45c-1.4 0-2.5-1.1-2.5-2.5s1.1-2.5 2.5-2.5h45c1.4 0 2.5 1.1 2.5 2.5s-1.1 2.5-2.5 2.5z"/><path class="st8" d="M520.5 263h-63c-1.4 0-2.5-1.1-2.5-2.5s1.1-2.5 2.5-2.5h63c1.4 0 2.5 1.1 2.5 2.5s-1.1 2.5-2.5 2.5z"/><path class="st9" d="M540 311c-.4 0-.8-.1-1.2-.2-1.1-.5-1.8-1.6-1.8-2.8v-17c0-3.3 2.7-6 6-6h17c1.2 0 2.3.7 2.8 1.9s.2 2.4-.7 3.3l-20 20c-.6.5-1.3.8-2.1.8z"/><path class="st1" d="m560 288-20 20v-17c0-1.7 1.3-3 3-3h17m0-6h-17c-5 0-9 4-9 9v17c0 2.4 1.5 4.6 3.7 5.5.7.3 1.5.5 2.3.5 1.6 0 3.1-.6 4.2-1.8l20-20c1.7-1.7 2.2-4.3 1.3-6.5-.9-2.2-3.1-3.7-5.5-3.7zm0 12zM515.5 217.6c-1.1 0-2-.9-2-2 0-1.6-1.3-3-3-3s-3 1.4-3 3c0 1.1-.9 2-2 2s-2-.9-2-2c0-3.9 3.1-7 7-7s7 3.1 7 7c0 1.1-.9 2-2 2zM508.1 199.6c1-.6 1.9-.9 2.9-1.1 1-.2 2-.2 3.1-.1 1 .1 2.1.4 3.1.9s1.8 1.3 2.4 2.2c.5.8.3 1.9-.5 2.4-.4.2-.8.3-1.2.2l-.4-.1c-.8-.1-1.4-.3-2-.4-.7-.1-1.3-.2-2-.3l-2.1-.2c-.7-.1-1.5-.1-2.2-.3l-.4-.1c-.9-.2-1.5-1.1-1.3-2-.1-.4.2-.8.6-1.1zM494.5 217.6c-1.1 0-2-.9-2-2 0-1.6-1.4-3-3-3s-3 1.4-3 3c0 1.1-.9 2-2 2s-2-.9-2-2c0-3.9 3.1-7 7-7s7 3.1 7 7c0 1.1-.9 2-2 2zM490.9 202.8c-.7.1-1.5.2-2.2.3l-2.1.2c-.7.1-1.3.2-2 .3-.6.1-1.3.3-2 .4l-.4.1c-.9.2-1.8-.5-2-1.4-.1-.4 0-.9.2-1.2.6-.9 1.5-1.7 2.4-2.2 1-.5 2-.8 3.1-.9 1-.1 2.1-.1 3.1.1s1.9.5 2.9 1.1c.8.5 1 1.6.5 2.3-.2.4-.6.7-1.1.8l-.4.1z"/><g><path class="st1" d="M500 239c-7.7 0-14-6.3-14-14 0-1.1.9-2 2-2h24c1.1 0 2 .9 2 2 0 7.7-6.3 14-14 14z"/><path class="st1" d="M512 225c0 6.6-5.4 12-12 12s-12-5.4-12-12h24m0-4h-24c-2.2 0-4 1.8-4 4 0 8.8 7.2 16 16 16s15.9-7.1 16-15.8v-.2c0-2.2-1.8-4-4-4zm0 8z"/><g><ellipse class="st4" cx="500" cy="233" rx="8.9" ry="4"/></g></g><g><circle class="st10" cx="526" cy="227" r="2"/><circle class="st10" cx="534" cy="227" r="2"/><circle class="st10" cx="530" cy="219" r="2"/></g><g><circle class="st10" cx="466" cy="227" r="2"/><circle class="st10" cx="474" cy="227" r="2"/><circle class="st10" cx="470" cy="219" r="2"/></g><g><path class="st3" d="M1120 147c-3.3 0-6-2.7-6-6V27c0-3.3 2.7-6 6-6h114c3.3 0 6 2.7 6 6v97c0 .8-.3 1.6-.9 2.1l-20 20c-.6.6-1.3.9-2.1.9h-97z"/><path class="st1" d="M1234 24c1.7 0 3 1.3 3 3v97l-20 20h-97c-1.7 0-3-1.3-3-3V27c0-1.7 1.3-3 3-3h114m0-6h-114c-5 0-9 4-9 9v114c0 5 4 9 9 9h97c1.6 0 3.1-.6 4.2-1.8l20-20c1.1-1.1 1.8-2.7 1.8-4.2V27c0-5-4-9-9-9z"/><path class="st7" d="M1209.5 89h-75c-1.4 0-2.5-1.1-2.5-2.5s1.1-2.5 2.5-2.5h75c1.4 0 2.5 1.1 2.5 2.5s-1.1 2.5-2.5 2.5z"/><path class="st1" d="M1199.5 109h-65c-1.4 0-2.5-1.1-2.5-2.5s1.1-2.5 2.5-2.5h65c1.4 0 2.5 1.1 2.5 2.5s-1.1 2.5-2.5 2.5zM1185.5 119h-51c-1.4 0-2.5-1.1-2.5-2.5s1.1-2.5 2.5-2.5h51c1.4 0 2.5 1.1 2.5 2.5s-1.1 2.5-2.5 2.5zM1169.5 129h-35c-1.4 0-2.5-1.1-2.5-2.5s1.1-2.5 2.5-2.5h35c1.4 0 2.5 1.1 2.5 2.5s-1.1 2.5-2.5 2.5z"/><path class="st8" d="M1191.5 99h-57c-1.4 0-2.5-1.1-2.5-2.5s1.1-2.5 2.5-2.5h57c1.4 0 2.5 1.1 2.5 2.5s-1.1 2.5-2.5 2.5z"/><path class="st9" d="M1217 147c-.4 0-.8-.1-1.2-.2-1.1-.5-1.8-1.6-1.8-2.8v-17c0-3.3 2.7-6 6-6h17c1.2 0 2.3.7 2.8 1.8s.2 2.4-.7 3.3l-20 20c-.5.6-1.3.9-2.1.9z"/><path class="st1" d="m1237 124-20 20v-17c0-1.7 1.3-3 3-3h17m0-6h-17c-5 0-9 4-9 9v17c0 2.4 1.5 4.6 3.7 5.5.7.3 1.5.5 2.3.5 1.6 0 3.1-.6 4.2-1.8l20-20c1.7-1.7 2.2-4.3 1.3-6.5-.9-2.2-3.1-3.7-5.5-3.7zm0 12z"/><circle class="st10" cx="1203" cy="63" r="2"/><circle class="st10" cx="1211" cy="63" r="2"/><circle class="st10" cx="1207" cy="55" r="2"/><g><circle class="st10" cx="1143" cy="63" r="2"/><circle class="st10" cx="1151" cy="63" r="2"/><circle class="st10" cx="1147" cy="55" r="2"/></g><g><path class="st1" d="M1185 57.8c-.6 0-1.2-.4-1.4-1-.3-.8.2-1.6.9-1.9 2.2-.8 5.7-.8 8 0 .8.3 1.2 1.1.9 1.9-.3.8-1.1 1.2-1.9.9-1.6-.5-4.4-.5-6 0-.2.1-.3.1-.5.1z"/><circle class="st1" cx="1188.5" cy="49.6" r="6"/><circle class="st3" cx="1190" cy="49.6" r="1.5"/><path class="st1" d="M1185.1 35.7c1-.6 1.9-.9 2.9-1.1 1-.2 2-.2 3.1-.1 1 .1 2.1.4 3.1 1 1 .5 1.8 1.3 2.4 2.2.5.8.3 1.9-.5 2.4-.4.2-.8.3-1.2.2l-.4-.1c-.8-.1-1.4-.3-2-.4-.7-.1-1.3-.2-2-.3l-2.1-.2c-.7-.1-1.6-.1-2.2-.3l-.4-.1c-.9-.2-1.5-1.1-1.3-2-.1-.6.2-1 .6-1.2z"/><g><path class="st1" d="M1169 57.8c-.2 0-.3 0-.5-.1-1.6-.5-4.4-.5-6 0-.8.3-1.6-.2-1.9-.9s.2-1.6.9-1.9c2.2-.8 5.7-.8 8 0 .8.3 1.2 1.1.9 1.9-.2.6-.8 1-1.4 1z"/><circle class="st1" cx="1165.5" cy="49.6" r="6"/><circle class="st3" cx="1167" cy="49.6" r="1.5"/><g><path class="st1" d="M1167.9 38.8c-.7.2-1.5.2-2.2.3l-2.1.2c-.7.1-1.3.2-2 .3-.7.1-1.3.3-2 .4l-.4.1c-.9.2-1.8-.5-2-1.4-.1-.4 0-.9.2-1.2.6-.9 1.4-1.7 2.4-2.2 1-.5 2-.8 3.1-1 1.1-.1 2.1-.1 3.1.1s1.9.5 2.9 1.1c.8.5 1 1.5.5 2.3-.2.4-.6.7-1.1.8l-.4.2z"/></g></g><g><path class="st1" d="M1177.3 69c-4.6 0-9.2-1.1-13.2-3.2-1-.5-1.3-1.7-.8-2.7.5-1 1.7-1.3 2.7-.8 6.8 3.6 16.1 3.6 22 0 .9-.6 2.2-.3 2.8.7.6.9.3 2.2-.7 2.7-3.7 2.2-8.2 3.3-12.8 3.3z"/></g><g><path class="st1" d="M1173.3 72.1c1.2.3 2.5.4 3.8.5.6 0 1.3-.1 1.9-.1s1.2-.2 1.8-.4c.7-.2 1.4.2 1.6.8.1.4 0 .9-.3 1.2l-.8.8c-.6.7-1.3 1-2 1.2-.7.2-1.5.3-2.2.3-.4 0-.8 0-1.1-.1-.4-.1-.7-.2-1.1-.3-.7-.2-1.4-.6-2-1.1l-.7-.7c-.6-.5-.6-1.3-.1-1.9.1-.2.7-.4 1.2-.2z"/></g></g></g><g><path d="M653.4 269.4c-12.8-7.4-17.2-23.9-9.8-36.6l53-91.9c7.4-12.8 23.9-17.2 36.6-9.8 12.8 7.4 17.2 23.9 9.8 36.6l-53 91.9c-7.3 12.7-23.8 17.1-36.6 9.8z" style="fill:#fbbd04"/><path d="M786.6 269c-12.8 7.4-29.3 3-36.6-9.8l-53-91.9c-7.4-12.8-3-29.3 9.8-36.6 12.8-7.4 29.3-2.9 36.6 9.8l53 91.9c7.4 12.7 3 29.2-9.8 36.6z" style="fill:#438edc"/><circle cx="667.2" cy="245.7" r="27.2" style="fill:#34a952"/></g><g><circle class="st14" cx="1266" cy="30" r="3"/></g><path class="st14" d="M1294 60h-6v-6c0-1.7-1.3-3-3-3s-3 1.3-3 3v6h-6c-1.7 0-3 1.3-3 3s1.3 3 3 3h6v6c0 1.7 1.3 3 3 3s3-1.3 3-3v-6h6c1.7 0 3-1.3 3-3s-1.3-3-3-3z"/><g><circle class="st14" cx="1052.5" cy="291.5" r="4.5"/></g><g><path class="st14" d="M1273.2 105.2c-3 0-5.4-2.4-5.4-5.4 0-1-.8-1.8-1.8-1.8s-1.8.8-1.8 1.8c0 3-2.4 5.4-5.4 5.4-1 0-1.8.8-1.8 1.8s.8 1.8 1.8 1.8c3 0 5.4 2.4 5.4 5.4 0 1 .8 1.8 1.8 1.8s1.8-.8 1.8-1.8c0-3 2.4-5.4 5.4-5.4 1 0 1.8-.8 1.8-1.8s-.8-1.8-1.8-1.8z"/></g><g><path class="st15" d="M970 206c-.8 0-1.6-.3-2.1-.9l-29.7-29.7c-1.2-1.2-1.2-3.1 0-4.2l45.2-45.2c.6-.6 1.3-.9 2.1-.9l39 .7c1.6 0 2.9 1.3 2.9 2.9l.7 38.9c0 .8-.3 1.6-.9 2.2l-35.4 35.4c-.6.6-1.3.9-2.1.9L970 206zm39.6-70.4c-2.1 0-4.2.8-5.7 2.3-1.5 1.5-2.3 3.5-2.3 5.7s.8 4.1 2.3 5.7c1.5 1.5 3.5 2.3 5.7 2.3s4.2-.8 5.7-2.3c3.1-3.1 3.1-8.2 0-11.3-1.5-1.6-3.6-2.4-5.7-2.4z"/><path class="st1" d="m985.6 128.1 38.9.7.7 38.9-35.4 35.3H970l-29.7-29.7 45.3-45.2m24 26.5c2.8 0 5.6-1.1 7.8-3.2 4.3-4.3 4.3-11.3 0-15.6-2.2-2.1-5-3.2-7.8-3.2s-5.6 1.1-7.8 3.2c-4.3 4.3-4.3 11.3 0 15.6 2.2 2.1 5 3.2 7.8 3.2m-24-32.5c-1.6 0-3.1.6-4.2 1.8l-45.2 45.2c-2.3 2.3-2.3 6.1 0 8.5l29.7 29.7c1.1 1.1 2.7 1.8 4.2 1.8h19.8c1.6 0 3.1-.6 4.2-1.8l35.4-35.4c1.2-1.1 1.8-2.7 1.8-4.4l-.7-38.9c-.1-3.2-2.7-5.8-5.9-5.9l-38.9-.7-.2.1zm24 26.5c-1.3 0-2.6-.5-3.5-1.5-.9-.9-1.5-2.2-1.5-3.5s.5-2.6 1.5-3.5c.9-.9 2.2-1.5 3.5-1.5 1.3 0 2.6.5 3.5 1.5 2 1.9 2 5.1 0 7.1-.9.9-2.2 1.4-3.5 1.4z"/><path d="M970 206c-1.2 0-2.3-.7-2.8-1.9-.5-1.1-.2-2.4.7-3.3l8.2-8.2c1-1 2.3-1.6 3.8-1.6s2.8.6 3.8 1.6l8.2 8.2c.9.9 1.1 2.1.7 3.3-.5 1.1-1.6 1.9-2.8 1.9H970z" style="fill:#3cb48c"/><path class="st1" d="M979.9 194.1c.6 0 1.2.2 1.7.7l8.2 8.2H970l8.2-8.2c.5-.5 1.1-.7 1.7-.7m0-6c-2.2 0-4.3.9-5.9 2.4l-8.2 8.2c-1.7 1.7-2.2 4.3-1.3 6.5.9 2.2 3.1 3.7 5.5 3.7h19.8c2.4 0 4.6-1.5 5.5-3.7.9-2.2.4-4.8-1.3-6.5l-8.2-8.2c-1.6-1.6-3.7-2.4-5.9-2.4zM999.4 159.6c1.3 0 2.4.3 3.5.8s2.1 1.2 3 2.1c.9.9 1.6 2 2 3.3.5 1.2.5 2.6.2 3.8-.3 1.1-1.4 1.8-2.5 1.5-.5-.1-.9-.4-1.2-.7l-.4-.5c-.5-.7-.8-1.3-1.3-1.8-.4-.5-.8-1-1.3-1.5s-1-1-1.6-1.5c-.5-.5-1.2-1.1-1.7-1.7l-.4-.5c-.7-.9-.6-2.1.3-2.8.5-.3 1-.5 1.4-.5zM989.8 154.9c-.6-.5-1.2-1.2-1.7-1.7-.5-.6-1-1.1-1.5-1.6s-1-.9-1.5-1.3-1.1-.8-1.8-1.3l-.5-.4c-.9-.7-1-2-.3-2.9.3-.4.7-.6 1.2-.7 1.2-.3 2.6-.3 3.8.2 1.2.4 2.4 1.1 3.3 2 .9.9 1.6 1.9 2.1 3s.8 2.1.8 3.5c0 1.1-.8 2-2 2.1-.5 0-1-.2-1.3-.5l-.6-.4zM984.2 163.1c-.6 0-1.3-.2-1.8-.7-1-1-1-2.6 0-3.5.3-.3.4-.7.4-1.1s-.2-.8-.4-1.1c-.6-.6-1.5-.6-2.1 0-1 1-2.6 1-3.5 0s-1-2.6 0-3.5c1.2-1.2 2.9-1.9 4.6-1.9s3.4.7 4.6 1.9c1.2 1.2 1.9 2.9 1.9 4.6s-.7 3.4-1.9 4.6c-.6.4-1.2.7-1.8.7zM998.3 177.2c-.6 0-1.3-.2-1.8-.7-1-1-1-2.6 0-3.5.3-.3.4-.7.4-1.1s-.2-.8-.4-1.1c-.6-.6-1.5-.6-2.1 0-1 1-2.6 1-3.5 0s-1-2.6 0-3.5c2.5-2.5 6.7-2.5 9.2 0 1.2 1.2 1.9 2.9 1.9 4.6s-.7 3.4-1.9 4.6c-.5.5-1.2.7-1.8.7z"/><g><path class="st1" d="M990.5 182.2c-.3 0-.5 0-.8-.1-9.2-3.1-15.5-9.3-18.5-18.6-.4-1.3.3-2.7 1.6-3.2 1.3-.4 2.7.3 3.2 1.6 2.6 7.8 7.6 12.8 15.4 15.4 1.3.4 2 1.9 1.6 3.2-.5 1-1.4 1.7-2.5 1.7z"/></g><g><path class="st1" d="M1013.6 149.2c-.4 0-.7-.1-1.1-.2-1.9-.8-3.6-1.9-5.1-3.3-7-7-5.4-20 3.5-29 4.2-4.2 9.5-7 14.8-7.7 5.6-.8 10.7.7 14.2 4.2s5 8.6 4.2 14.2c-.8 5.3-3.5 10.6-7.7 14.8-2.2 2.2-4.6 3.9-7.2 5.3-1.5.8-3.3.2-4-1.3s-.2-3.3 1.3-4c2.1-1.1 4-2.5 5.7-4.2 3.3-3.3 5.5-7.4 6-11.4.5-3.7-.4-6.9-2.5-9.1s-5.4-3-9.1-2.5c-4 .6-8.1 2.7-11.4 6-6.6 6.6-8.2 15.8-3.5 20.5.8.8 1.8 1.5 3 1.9 1.5.6 2.3 2.3 1.7 3.9-.4 1.2-1.6 1.9-2.8 1.9z"/></g></g><g><path d="M313.1 392.1c-.8 0-1.5-.3-2.1-.9L265.7 346c-.6-.6-.9-1.4-.9-2.2l.7-38.9c0-1.6 1.3-2.9 2.9-2.9 0 0 38.9-.7 39-.7.8 0 1.6.3 2.1.9l35.4 35.4c.6.6.9 1.3.9 2.1v19.8c0 .8-.3 1.6-.9 2.1l-29.7 29.7c-.6.5-1.3.8-2.1.8zm-29.7-80.3c-2.1 0-4.1.8-5.7 2.3s-2.3 3.5-2.3 5.7.8 4.1 2.3 5.7 3.5 2.3 5.7 2.3 4.1-.8 5.7-2.3 2.3-3.5 2.3-5.7-.8-4.1-2.3-5.7-3.6-2.3-5.7-2.3z" style="fill:#6adaf7"/><path class="st1" d="m307.4 304.3 35.4 35.4v19.8l-29.7 29.7-45.2-45.2.7-38.9 38.8-.8m-24 26.5c2.8 0 5.6-1.1 7.8-3.2 4.3-4.3 4.3-11.3 0-15.6-2.1-2.1-5-3.2-7.8-3.2s-5.6 1.1-7.8 3.2c-4.3 4.3-4.3 11.3 0 15.6 2.2 2.2 5 3.2 7.8 3.2m24-32.5h-.1l-38.9.7c-3.2.1-5.8 2.7-5.9 5.9l-.7 38.9c0 1.6.6 3.2 1.8 4.4l45.2 45.2c1.1 1.1 2.6 1.8 4.2 1.8s3.1-.6 4.2-1.8l29.7-29.7c1.1-1.1 1.8-2.6 1.8-4.2v-19.8c0-1.6-.6-3.1-1.8-4.2L311.7 300c-1.2-1.1-2.7-1.7-4.3-1.7zm-24 26.5c-1.3 0-2.6-.5-3.5-1.5-2-2-2-5.1 0-7.1.9-.9 2.2-1.5 3.5-1.5s2.6.5 3.5 1.5c.9.9 1.5 2.2 1.5 3.5s-.5 2.6-1.5 3.5c-.9 1.1-2.2 1.6-3.5 1.6z"/><path d="M342.8 362.4c-.8 0-1.5-.3-2.1-.9l-8.2-8.2c-1-1-1.6-2.4-1.6-3.8s.6-2.8 1.6-3.8l8.2-8.2c.6-.6 1.3-.9 2.1-.9.4 0 .8.1 1.1.2 1.1.5 1.9 1.6 1.9 2.8v19.8c0 1.2-.7 2.3-1.9 2.8-.3.1-.7.2-1.1.2z" style="fill:#2da0d2"/><path class="st1" d="M342.8 339.6v19.8l-8.2-8.2c-.9-.9-.9-2.4 0-3.3l8.2-8.3m0-6c-1.6 0-3.1.6-4.2 1.8l-8.2 8.2c-3.2 3.2-3.2 8.5 0 11.8l8.2 8.2c1.1 1.1 2.7 1.8 4.2 1.8.8 0 1.5-.1 2.3-.5 2.2-.9 3.7-3.1 3.7-5.5v-19.8c0-2.4-1.5-4.6-3.7-5.5-.8-.3-1.5-.5-2.3-.5zM298 328.6c0-1.4.3-2.4.8-3.5s1.2-2.1 2.1-3c.9-.9 2-1.6 3.3-2 1.2-.5 2.6-.5 3.8-.2 1.1.3 1.8 1.4 1.5 2.5-.1.5-.4.9-.7 1.1l-.5.4c-.7.5-1.3.9-1.8 1.3s-1 .8-1.5 1.3-1 1-1.5 1.6c-.5.5-1.1 1.2-1.7 1.7l-.5.4c-.9.7-2.1.6-2.8-.3-.4-.4-.5-.9-.5-1.3zM293.3 338.2c-.5.6-1.2 1.2-1.7 1.7-.6.5-1.1 1-1.6 1.5s-.9 1-1.3 1.5-.8 1.1-1.3 1.8l-.4.5c-.7.9-2 1-2.9.4-.4-.3-.6-.7-.7-1.1-.3-1.2-.3-2.6.2-3.8.4-1.2 1.1-2.4 2-3.3.9-.9 1.9-1.6 3-2.1s2.1-.8 3.5-.8c1.1 0 2 .9 2.1 2 0 .5-.2 1-.5 1.3l-.4.4zM293.3 352c-.6 0-1.3-.2-1.8-.7-2.5-2.5-2.5-6.7 0-9.2 2.5-2.5 6.7-2.5 9.2 0 1 1 1 2.6 0 3.5s-2.6 1-3.5 0c-.6-.6-1.5-.6-2.1 0s-.6 1.5 0 2.1c1 1 1 2.6 0 3.5-.5.6-1.2.8-1.8.8zM307.4 337.9c-.6 0-1.3-.2-1.8-.7-1.2-1.2-1.9-2.9-1.9-4.6s.7-3.4 1.9-4.6c1.2-1.2 2.9-1.9 4.6-1.9 1.7 0 3.4.7 4.6 1.9 1 1 1 2.6 0 3.5s-2.6 1-3.5 0c-.6-.6-1.5-.6-2.1 0-.3.3-.4.7-.4 1.1s.2.8.4 1.1c1 1 1 2.6 0 3.5-.5.4-1.1.7-1.8.7z"/><g><path class="st1" d="M310.3 358.2c-3.1 0-6-1.2-8.1-3.4-.5-.5-.7-1.1-.7-1.8s.3-1.3.7-1.8l12.7-12.7c.5-.5 1.1-.7 1.8-.7s1.3.2 1.8.7c2.2 2.2 3.4 5.1 3.4 8.1s-1.2 6-3.4 8.1c-2.3 2.3-5.2 3.5-8.2 3.5z"/><path class="st1" d="M316.6 340.3c3.5 3.5 3.5 9.2 0 12.7-1.8 1.8-4.1 2.6-6.4 2.6s-4.6-.9-6.4-2.6l12.8-12.7m0-5c-1.3 0-2.6.5-3.5 1.5l-12.7 12.7c-.9.9-1.5 2.2-1.5 3.5s.5 2.6 1.5 3.5c2.6 2.6 6.2 4.1 9.9 4.1s7.3-1.5 9.9-4.1c5.5-5.5 5.5-14.3 0-19.8-1-.8-2.2-1.4-3.6-1.4z"/><g><ellipse transform="rotate(-45.001 314.495 350.936)" class="st4" cx="314.5" cy="350.9" rx="6.7" ry="3"/></g></g><g><path class="st1" d="M274.2 326.3c-6 0-12.5-2.7-17.7-7.9-9-9-10.6-22-3.5-29 7-7 20-5.4 29 3.5 2.2 2.2 3.9 4.6 5.3 7.2.8 1.5.2 3.3-1.3 4s-3.3.2-4-1.3c-1-2-2.5-4-4.2-5.7-6.6-6.6-15.8-8.2-20.5-3.5-4.7 4.7-3.1 13.9 3.5 20.5s15.8 8.2 20.5 3.5c.8-.8 1.5-1.9 1.9-3 .6-1.5 2.3-2.3 3.9-1.7s2.3 2.3 1.7 3.9c-.8 1.9-1.9 3.6-3.3 5.1-2.9 3-6.9 4.4-11.3 4.4z"/></g></g><g><path class="st1" d="M663.6 181.5h-5c-.8 0-1.5-.7-1.5-1.5s.7-1.5 1.5-1.5h5c.8 0 1.5.7 1.5 1.5s-.7 1.5-1.5 1.5zm-14 0h-5c-.8 0-1.5-.7-1.5-1.5s.7-1.5 1.5-1.5h5c.8 0 1.5.7 1.5 1.5s-.7 1.5-1.5 1.5zm-14 0h-5c-.8 0-1.5-.7-1.5-1.5s.7-1.5 1.5-1.5h5c.8 0 1.5.7 1.5 1.5s-.7 1.5-1.5 1.5zm-14 0h-5c-.8 0-1.5-.7-1.5-1.5s.7-1.5 1.5-1.5h5c.8 0 1.5.7 1.5 1.5s-.7 1.5-1.5 1.5zm-14 0h-5.1c-.8 0-1.5-.7-1.4-1.6 0-.8.7-1.5 1.6-1.4h5c.8 0 1.5.7 1.5 1.5s-.8 1.5-1.6 1.5zm-12.7-4.1c-.5 0-.9-.2-1.2-.6-1.1-1.6-1.9-3.4-2.1-5.3-.1-.8.5-1.6 1.3-1.7.8-.1 1.6.5 1.7 1.3.2 1.4.7 2.8 1.5 3.9.5.7.3 1.6-.3 2.1-.3.2-.6.3-.9.3zm-1.9-13.6c-.8 0-1.5-.7-1.5-1.5v-5c0-.8.7-1.5 1.5-1.5s1.5.7 1.5 1.5v5c0 .8-.7 1.5-1.5 1.5zm0-14c-.8 0-1.5-.7-1.5-1.5v-5c0-.8.7-1.5 1.5-1.5s1.5.7 1.5 1.5v5c0 .8-.7 1.5-1.5 1.5zm0-14c-.8 0-1.5-.7-1.5-1.5v-5c0-.8.7-1.5 1.5-1.5s1.5.7 1.5 1.5v5c0 .8-.7 1.5-1.5 1.5zm0-14c-.8 0-1.5-.7-1.5-1.5v-5c0-.8.7-1.5 1.5-1.5s1.5.7 1.5 1.5v5c0 .8-.7 1.5-1.5 1.5zm0-14c-.8 0-1.5-.7-1.5-1.5v-5c0-.8.7-1.5 1.5-1.5s1.5.7 1.5 1.5v5c0 .8-.7 1.5-1.5 1.5zm0-14c-.8 0-1.4-.6-1.5-1.4-.1-1.4-.6-2.8-1.3-4-.5-.7-.2-1.6.5-2.1s1.6-.2 2.1.4c1 1.6 1.7 3.5 1.8 5.4.1.8-.6 1.5-1.4 1.6l-.2.1zm-9-9.2h-5c-.8 0-1.5-.7-1.5-1.5s.7-1.5 1.5-1.5h4c.4 0 .8 0 1.1.1.8.1 1.4.8 1.3 1.6 0 .7-.6 1.3-1.4 1.3zm-14-.1h-5c-.8 0-1.5-.7-1.5-1.5s.7-1.5 1.5-1.5h5c.8 0 1.5.7 1.5 1.5s-.7 1.5-1.5 1.5zm-14 0h-5c-.8 0-1.5-.7-1.5-1.5s.7-1.5 1.5-1.5h5c.8 0 1.5.7 1.5 1.5s-.7 1.5-1.5 1.5zm-14 0h-5c-.8 0-1.5-.7-1.5-1.5s.7-1.5 1.5-1.5h5c.8 0 1.5.7 1.5 1.5s-.7 1.5-1.5 1.5zm-14 0h-5c-.8 0-1.5-.7-1.5-1.5s.7-1.5 1.5-1.5h5c.8 0 1.5.7 1.5 1.5s-.7 1.5-1.5 1.5zm-14 0h-5c-.8 0-1.5-.7-1.5-1.5s.7-1.5 1.5-1.5h5c.8 0 1.5.7 1.5 1.5s-.7 1.5-1.5 1.5zm-14 0h-5c-.8 0-1.5-.7-1.5-1.5s.7-1.5 1.5-1.5h5c.8 0 1.5.7 1.5 1.5s-.7 1.5-1.5 1.5zm-14 0h-5c-.8 0-1.5-.7-1.5-1.5s.7-1.5 1.5-1.5h5c.8 0 1.5.7 1.5 1.5s-.7 1.5-1.5 1.5z"/></g><g><path class="st1" d="M309 292.8c-.8 0-1.5-.7-1.5-1.5v-5c0-.8.7-1.5 1.5-1.5s1.5.7 1.5 1.5v5c0 .8-.7 1.5-1.5 1.5zm0-14c-.8 0-1.5-.7-1.5-1.5v-5c0-.8.7-1.5 1.5-1.5s1.5.7 1.5 1.5v5c0 .8-.7 1.5-1.5 1.5zm0-14c-.8 0-1.5-.7-1.5-1.5v-5c0-.8.7-1.5 1.5-1.5s1.5.7 1.5 1.5v5c0 .8-.7 1.5-1.5 1.5zm2.2-13.5c-.3 0-.7-.1-.9-.3-.6-.5-.8-1.5-.2-2.1 1.2-1.5 2.8-2.7 4.5-3.4.8-.3 1.6 0 2 .8.3.8 0 1.6-.8 2-1.3.6-2.5 1.4-3.4 2.6-.4.2-.8.4-1.2.4zm115.8-3.8h-5c-.8 0-1.5-.7-1.5-1.5s.7-1.5 1.5-1.5h5c.8 0 1.5.7 1.5 1.5s-.7 1.5-1.5 1.5zm-14 0h-5c-.8 0-1.5-.7-1.5-1.5s.7-1.5 1.5-1.5h5c.8 0 1.5.7 1.5 1.5s-.7 1.5-1.5 1.5zm-14 0h-5c-.8 0-1.5-.7-1.5-1.5s.7-1.5 1.5-1.5h5c.8 0 1.5.7 1.5 1.5s-.7 1.5-1.5 1.5zm-14 0h-5c-.8 0-1.5-.7-1.5-1.5s.7-1.5 1.5-1.5h5c.8 0 1.5.7 1.5 1.5s-.7 1.5-1.5 1.5zm-14 0h-5c-.8 0-1.5-.7-1.5-1.5s.7-1.5 1.5-1.5h5c.8 0 1.5.7 1.5 1.5s-.7 1.5-1.5 1.5zm-14 0h-5c-.8 0-1.5-.7-1.5-1.5s.7-1.5 1.5-1.5h5c.8 0 1.5.7 1.5 1.5s-.7 1.5-1.5 1.5zm-14 0h-5c-.8 0-1.5-.7-1.5-1.5s.7-1.5 1.5-1.5h5c.8 0 1.5.7 1.5 1.5s-.7 1.5-1.5 1.5zm-14 0h-5c-.8 0-1.5-.7-1.5-1.5s.7-1.5 1.5-1.5h5c.8 0 1.5.7 1.5 1.5s-.7 1.5-1.5 1.5z"/></g><g><path class="st1" d="M137 173.8c-.8 0-1.5-.7-1.5-1.5v-5c0-.8.7-1.5 1.5-1.5s1.5.7 1.5 1.5v5c0 .8-.7 1.5-1.5 1.5zm0-14c-.8 0-1.5-.7-1.5-1.5v-5c0-.8.7-1.5 1.5-1.5s1.5.7 1.5 1.5v5c0 .8-.7 1.5-1.5 1.5zm0-14c-.8 0-1.5-.7-1.5-1.5v-5c0-.8.7-1.5 1.5-1.5s1.5.7 1.5 1.5v5c0 .8-.7 1.5-1.5 1.5zm0-14c-.8 0-1.5-.7-1.5-1.5v-5c0-.8.7-1.5 1.5-1.5s1.5.7 1.5 1.5v5c0 .8-.7 1.5-1.5 1.5zm0-14c-.8 0-1.5-.7-1.5-1.5v-5c0-.8.7-1.5 1.5-1.5s1.5.7 1.5 1.5v5c0 .8-.7 1.5-1.5 1.5zm0-14c-.8 0-1.5-.7-1.5-1.5v-5c0-.8.7-1.5 1.5-1.5s1.5.7 1.5 1.5v5c0 .8-.7 1.5-1.5 1.5zm.4-14c-.1 0-.3 0-.4-.1-.8-.2-1.3-1.1-1-1.8.5-1.8 1.5-3.6 2.8-4.9.6-.6 1.5-.6 2.1 0s.6 1.5 0 2.1c-1 1-1.7 2.3-2.1 3.6-.2.7-.8 1.1-1.4 1.1zm99.6-7.3h-5c-.8 0-1.5-.7-1.5-1.5s.7-1.5 1.5-1.5h5c.8 0 1.5.7 1.5 1.5s-.7 1.5-1.5 1.5zm-14 0h-5c-.8 0-1.5-.7-1.5-1.5s.7-1.5 1.5-1.5h5c.8 0 1.5.7 1.5 1.5s-.7 1.5-1.5 1.5zm-14 0h-5c-.8 0-1.5-.7-1.5-1.5s.7-1.5 1.5-1.5h5c.8 0 1.5.7 1.5 1.5s-.7 1.5-1.5 1.5zm-14 0h-5c-.8 0-1.5-.7-1.5-1.5s.7-1.5 1.5-1.5h5c.8 0 1.5.7 1.5 1.5s-.7 1.5-1.5 1.5zm-14 0h-5c-.8 0-1.5-.7-1.5-1.5s.7-1.5 1.5-1.5h5c.8 0 1.5.7 1.5 1.5s-.7 1.5-1.5 1.5zm-14 0h-5c-.8 0-1.5-.7-1.5-1.5s.7-1.5 1.5-1.5h5c.8 0 1.5.7 1.5 1.5s-.7 1.5-1.5 1.5zm-14 0h-5c-.8 0-1.5-.7-1.5-1.5s.7-1.5 1.5-1.5h5c.8 0 1.5.7 1.5 1.5s-.7 1.5-1.5 1.5z"/></g><g><path class="st1" d="M427 226.5h-5c-.8 0-1.5-.7-1.5-1.5s.7-1.5 1.5-1.5h5c.8 0 1.5.7 1.5 1.5s-.7 1.5-1.5 1.5zm-14 0h-5c-.8 0-1.5-.7-1.5-1.5s.7-1.5 1.5-1.5h5c.8 0 1.5.7 1.5 1.5s-.7 1.5-1.5 1.5zm-14 0h-5c-.8 0-1.5-.7-1.5-1.5s.7-1.5 1.5-1.5h5c.8 0 1.5.7 1.5 1.5s-.7 1.5-1.5 1.5zm-12.8-3.8c-.4 0-.9-.2-1.2-.6-1.2-1.5-2-3.3-2.3-5.2-.1-.8.4-1.6 1.2-1.7.8-.1 1.6.4 1.7 1.2.2 1.4.8 2.7 1.7 3.8.5.6.4 1.6-.2 2.1-.3.3-.6.4-.9.4zm-2.2-13.5c-.8 0-1.5-.7-1.5-1.5v-5c0-.8.7-1.5 1.5-1.5s1.5.7 1.5 1.5v5c0 .8-.7 1.5-1.5 1.5zm0-14c-.8 0-1.5-.7-1.5-1.5v-5c0-.8.7-1.5 1.5-1.5s1.5.7 1.5 1.5v5c0 .8-.7 1.5-1.5 1.5zm0-14c-.8 0-1.5-.7-1.5-1.5v-5c0-.8.7-1.5 1.5-1.5s1.5.7 1.5 1.5v5c0 .8-.7 1.5-1.5 1.5zm0-14c-.8 0-1.5-.7-1.5-1.5v-5c0-.8.7-1.5 1.5-1.5s1.5.7 1.5 1.5v5c0 .8-.7 1.5-1.5 1.5zm0-14c-.8 0-1.5-.7-1.5-1.5v-5c0-.8.7-1.5 1.5-1.5s1.5.7 1.5 1.5v5c0 .8-.7 1.5-1.5 1.5zm0-14c-.8 0-1.5-.7-1.5-1.5v-5c0-.8.7-1.5 1.5-1.5s1.5.7 1.5 1.5v5c0 .8-.7 1.5-1.5 1.5zm0-14c-.8 0-1.5-.7-1.5-1.5v-5c0-.8.7-1.5 1.5-1.5s1.5.7 1.5 1.5v5c0 .8-.7 1.5-1.5 1.5z"/></g><g><path class="st1" d="M1244 227.1c-.8 0-1.5-.7-1.5-1.5v-5c0-.8.7-1.5 1.5-1.5s1.5.7 1.5 1.5v5c0 .8-.7 1.5-1.5 1.5zm0-14c-.8 0-1.5-.7-1.5-1.5v-5c0-.8.7-1.5 1.5-1.5s1.5.7 1.5 1.5v5c0 .8-.7 1.5-1.5 1.5zm-.3-14c-.7 0-1.3-.5-1.5-1.1-.3-1.4-1-2.6-2-3.7-.6-.6-.5-1.6.1-2.1s1.6-.5 2.1.1c1.3 1.4 2.2 3.1 2.7 5 .2.8-.3 1.6-1.1 1.8h-.3zm-10.4-7.6h-5c-.8 0-1.5-.7-1.5-1.5s.7-1.5 1.5-1.5h5c.8 0 1.5.7 1.5 1.5s-.7 1.5-1.5 1.5zm-14 0h-5c-.8 0-1.5-.7-1.5-1.5s.7-1.5 1.5-1.5h5c.8 0 1.5.7 1.5 1.5s-.7 1.5-1.5 1.5zm-14 0h-5c-.8 0-1.5-.7-1.5-1.5s.7-1.5 1.5-1.5h5c.8 0 1.5.7 1.5 1.5s-.7 1.5-1.5 1.5zm-14 0h-5c-.8 0-1.5-.7-1.5-1.5s.7-1.5 1.5-1.5h5c.8 0 1.5.7 1.5 1.5s-.7 1.5-1.5 1.5zm-13.8-1.1c-.2 0-.5-.1-.7-.2-1.7-.9-3.2-2.2-4.3-3.8-.5-.7-.3-1.6.4-2.1s1.6-.3 2.1.4c.8 1.2 1.9 2.1 3.2 2.8.7.4 1 1.3.7 2-.4.6-.9.9-1.4.9zm-5.5-11.9c-.8 0-1.5-.7-1.5-1.5v-5c0-.8.7-1.5 1.5-1.5s1.5.7 1.5 1.5v5c0 .8-.7 1.5-1.5 1.5zm0-14c-.8 0-1.5-.7-1.5-1.5v-5c0-.8.7-1.5 1.5-1.5s1.5.7 1.5 1.5v5c0 .8-.7 1.5-1.5 1.5z"/></g><g><path class="st1" d="M1169.6 282.7h-5c-.8 0-1.5-.7-1.5-1.5s.7-1.5 1.5-1.5h5c.8 0 1.5.7 1.5 1.5s-.7 1.5-1.5 1.5zm-14 0h-5c-.8 0-1.5-.7-1.5-1.5s.7-1.5 1.5-1.5h5c.8 0 1.5.7 1.5 1.5s-.7 1.5-1.5 1.5zm-14 0h-5c-.8 0-1.5-.7-1.5-1.5s.7-1.5 1.5-1.5h5c.8 0 1.5.7 1.5 1.5s-.7 1.5-1.5 1.5zm-14 0h-5c-.8 0-1.5-.7-1.5-1.5s.7-1.5 1.5-1.5h5c.8 0 1.5.7 1.5 1.5s-.7 1.5-1.5 1.5zm-14 0h-5c-.8 0-1.5-.7-1.5-1.5s.7-1.5 1.5-1.5h5c.8 0 1.5.7 1.5 1.5s-.7 1.5-1.5 1.5zm-14 0h-3.6c-.6 0-1.1 0-1.6-.1-.8-.1-1.4-.9-1.3-1.7s.9-1.4 1.7-1.3c.4.1.8.1 1.2.1h3.6c.8 0 1.5.7 1.5 1.5s-.7 1.5-1.5 1.5zm-12.2-4.9c-.5 0-1-.3-1.3-.7-1-1.7-1.5-3.5-1.6-5.5 0-.8.6-1.5 1.5-1.5.8 0 1.5.6 1.5 1.5 0 1.4.4 2.8 1.2 4 .4.7.2 1.6-.5 2-.3.1-.6.2-.8.2zM1086 264c-.8 0-1.5-.7-1.5-1.5v-5c0-.8.7-1.5 1.5-1.5s1.5.7 1.5 1.5v5c0 .8-.7 1.5-1.5 1.5zm0-14c-.8 0-1.5-.7-1.5-1.5v-5c0-.8.7-1.5 1.5-1.5s1.5.7 1.5 1.5v5c0 .8-.7 1.5-1.5 1.5zm0-14c-.8 0-1.5-.7-1.5-1.5v-5c0-.8.7-1.5 1.5-1.5s1.5.7 1.5 1.5v5c0 .8-.7 1.5-1.5 1.5zm0-14c-.8 0-1.5-.7-1.5-1.5v-5c0-.8.7-1.5 1.5-1.5s1.5.7 1.5 1.5v5c0 .8-.7 1.5-1.5 1.5zm0-14c-.8 0-1.5-.7-1.5-1.5v-5c0-.8.7-1.5 1.5-1.5s1.5.7 1.5 1.5v5c0 .8-.7 1.5-1.5 1.5zm-1.1-13.8c-.5 0-1.1-.3-1.3-.8-.7-1.3-1.6-2.4-2.8-3.2-.7-.5-.9-1.4-.4-2.1.5-.7 1.4-.9 2.1-.4 1.6 1.1 2.9 2.6 3.8 4.3.4.7.1 1.6-.7 2-.2.1-.5.2-.7.2zm-11.9-5.5h-5c-.8 0-1.5-.7-1.5-1.5s.7-1.5 1.5-1.5h5c.8 0 1.5.7 1.5 1.5s-.7 1.5-1.5 1.5zm-14 0h-5c-.8 0-1.5-.7-1.5-1.5s.7-1.5 1.5-1.5h5c.8 0 1.5.7 1.5 1.5s-.7 1.5-1.5 1.5zm-14 0h-5c-.8 0-1.5-.7-1.5-1.5s.7-1.5 1.5-1.5h5c.8 0 1.5.7 1.5 1.5s-.7 1.5-1.5 1.5zm-14 0h-5c-.8 0-1.5-.7-1.5-1.5s.7-1.5 1.5-1.5h5c.8 0 1.5.7 1.5 1.5s-.7 1.5-1.5 1.5z"/></g><g><path class="st1" d="M867 292.5c-.8 0-1.5-.7-1.5-1.5v-5c0-.8.7-1.5 1.5-1.5s1.5.7 1.5 1.5v5c0 .8-.6 1.5-1.5 1.5zm0-14c-.8 0-1.5-.7-1.5-1.5v-5c0-.8.7-1.5 1.5-1.5s1.5.7 1.5 1.5v5c0 .8-.6 1.5-1.5 1.5zm0-14c-.8 0-1.5-.7-1.5-1.5v-5c0-.8.7-1.5 1.5-1.5s1.5.7 1.5 1.5v5c0 .8-.6 1.5-1.5 1.5zm0-14c-.8 0-1.5-.7-1.5-1.5v-5c0-.8.7-1.5 1.5-1.5s1.5.7 1.5 1.5v5c0 .8-.6 1.5-1.5 1.5zm0-14c-.8 0-1.5-.7-1.5-1.5v-5c0-.8.7-1.5 1.5-1.5s1.5.7 1.5 1.5v5c0 .8-.6 1.5-1.5 1.5zm0-14c-.8 0-1.5-.7-1.5-1.5v-5c0-.8.7-1.5 1.5-1.5s1.5.7 1.5 1.5v5c0 .8-.6 1.5-1.5 1.5zm0-14c-.8 0-1.5-.7-1.5-1.5v-5c0-.8.7-1.5 1.5-1.5s1.5.7 1.5 1.5v5c0 .8-.6 1.5-1.5 1.5zm0-14c-.8 0-1.5-.7-1.5-1.5v-3c0-.6-.1-1.1-.2-1.7-.2-.8.4-1.6 1.2-1.8.8-.2 1.6.4 1.8 1.2.2.8.2 1.5.2 2.3v3c0 .8-.6 1.5-1.5 1.5zm-5.4-11.9c-.2 0-.5-.1-.7-.2-1.2-.6-2.5-.9-3.8-.9h-.3c-.8 0-1.5-.7-1.5-1.5s.7-1.5 1.5-1.5h.3c1.8 0 3.6.4 5.2 1.2.7.4 1 1.3.7 2-.3.6-.9.9-1.4.9zm-13.8-1.1h-5c-.8 0-1.5-.7-1.5-1.5s.7-1.5 1.5-1.5h5c.8 0 1.5.7 1.5 1.5s-.7 1.5-1.5 1.5zm-14 0h-5c-.8 0-1.5-.7-1.5-1.5s.7-1.5 1.5-1.5h5c.8 0 1.5.7 1.5 1.5s-.7 1.5-1.5 1.5zm-14 0h-5c-.8 0-1.5-.7-1.5-1.5s.7-1.5 1.5-1.5h5c.8 0 1.5.7 1.5 1.5s-.7 1.5-1.5 1.5zm-14 0h-5c-.8 0-1.5-.7-1.5-1.5s.7-1.5 1.5-1.5h5c.8 0 1.5.7 1.5 1.5s-.7 1.5-1.5 1.5zm-14 0h-5c-.8 0-1.5-.7-1.5-1.5s.7-1.5 1.5-1.5h5c.8 0 1.5.7 1.5 1.5s-.7 1.5-1.5 1.5zm-14 0H773c-.8 0-1.5-.7-1.5-1.5s.7-1.5 1.5-1.5h4.8c.8 0 1.5.7 1.5 1.5s-.7 1.5-1.5 1.5z"/></g><g><path class="st1" d="M980 293.5c-.8 0-1.5-.7-1.5-1.5v-5c0-.8.7-1.5 1.5-1.5s1.5.7 1.5 1.5v5c0 .8-.7 1.5-1.5 1.5zm0-14c-.8 0-1.5-.7-1.5-1.5v-5c0-.8.7-1.5 1.5-1.5s1.5.7 1.5 1.5v5c0 .8-.7 1.5-1.5 1.5zm0-14c-.8 0-1.5-.7-1.5-1.5v-5c0-.8.7-1.5 1.5-1.5s1.5.7 1.5 1.5v5c0 .8-.7 1.5-1.5 1.5zm0-14c-.8 0-1.5-.7-1.5-1.5v-5c0-.8.7-1.5 1.5-1.5s1.5.7 1.5 1.5v5c0 .8-.7 1.5-1.5 1.5zm0-14c-.8 0-1.5-.7-1.5-1.5v-5c0-.8.7-1.5 1.5-1.5s1.5.7 1.5 1.5v5c0 .8-.7 1.5-1.5 1.5zm0-14c-.8 0-1.5-.7-1.5-1.5v-5c0-.8.7-1.5 1.5-1.5s1.5.7 1.5 1.5v5c0 .8-.7 1.5-1.5 1.5z"/></g><g><path class="st14" d="M292.6 234.4c2.6 0 4.8-2.1 4.8-4.8 0-.9.7-1.6 1.6-1.6s1.6.7 1.6 1.6c0 2.6 2.1 4.8 4.8 4.8.9 0 1.6.7 1.6 1.6s-.7 1.6-1.6 1.6c-2.6 0-4.8 2.1-4.8 4.8 0 .9-.7 1.6-1.6 1.6s-1.6-.7-1.6-1.6c0-2.6-2.1-4.8-4.8-4.8-.9 0-1.6-.7-1.6-1.6s.7-1.6 1.6-1.6z"/></g><g><path class="st14" d="M225.8 344.6c3 0 5.4-2.4 5.4-5.4 0-1 .8-1.8 1.8-1.8s1.8.8 1.8 1.8c0 3 2.4 5.4 5.4 5.4 1 0 1.8.8 1.8 1.8s-.8 1.8-1.8 1.8c-3 0-5.4 2.4-5.4 5.4 0 1-.8 1.8-1.8 1.8s-1.8-.8-1.8-1.8c0-3-2.4-5.4-5.4-5.4-1 0-1.8-.8-1.8-1.8s.8-1.8 1.8-1.8z"/></g><g><circle class="st14" cx="328" cy="222" r="3"/></g><g><circle class="st14" cx="221" cy="52" r="5"/></g><path class="st14" d="M248 131h-7v-7c0-1.7-1.3-3-3-3s-3 1.3-3 3v7h-7c-1.7 0-3 1.3-3 3s1.3 3 3 3h7v7c0 1.7 1.3 3 3 3s3-1.3 3-3v-7h7c1.7 0 3-1.3 3-3s-1.3-3-3-3z"/><g><circle class="st14" cx="262" cy="365.4" r="3"/></g><g><circle class="st14" cx="415.5" cy="290.5" r="2.5"/></g><g><path class="st14" d="M1349.8 317.2c3 0 5.4-2.4 5.4-5.4 0-1 .8-1.8 1.8-1.8s1.8.8 1.8 1.8c0 3 2.4 5.4 5.4 5.4 1 0 1.8.8 1.8 1.8s-.8 1.8-1.8 1.8c-3 0-5.4 2.4-5.4 5.4 0 1-.8 1.8-1.8 1.8s-1.8-.8-1.8-1.8c0-3-2.4-5.4-5.4-5.4-1 0-1.8-.8-1.8-1.8s.8-1.8 1.8-1.8z"/></g><g><circle class="st14" cx="1129" cy="169" r="3"/></g><g><circle class="st14" cx="1326.5" cy="320.5" r="2.5"/></g><g><circle class="st14" cx="1328.5" cy="358.5" r="4.5"/></g><g><path class="st14" d="M589.8 305.2c3 0 5.4-2.4 5.4-5.4 0-1 .8-1.8 1.8-1.8s1.8.8 1.8 1.8c0 3 2.4 5.4 5.4 5.4 1 0 1.8.8 1.8 1.8s-.8 1.8-1.8 1.8c-3 0-5.4 2.4-5.4 5.4 0 1-.8 1.8-1.8 1.8s-1.8-.8-1.8-1.8c0-3-2.4-5.4-5.4-5.4-1 0-1.8-.8-1.8-1.8s.8-1.8 1.8-1.8z"/></g><g><circle class="st14" cx="582.5" cy="278.5" r="2.5"/></g><g><circle class="st14" cx="569.5" cy="334.5" r="4.5"/></g><g><circle class="st14" cx="1096.5" cy="124.5" r="2.5"/></g><g><circle class="st14" cx="925" cy="196" r="3"/></g><g><circle class="st14" cx="1044.5" cy="325.5" r="2.5"/></g><g><circle class="st14" cx="1026.5" cy="281.5" r="2.5"/></g><g><path class="st14" d="M907.6 155.4c2.7 0 4.8-2.1 4.8-4.8 0-.9.7-1.6 1.6-1.6s1.6.7 1.6 1.6c0 2.6 2.2 4.8 4.8 4.8.9 0 1.6.7 1.6 1.6s-.7 1.6-1.6 1.6c-2.7 0-4.8 2.1-4.8 4.8 0 .9-.7 1.6-1.6 1.6s-1.6-.7-1.6-1.6c0-2.6-2.2-4.8-4.8-4.8-.9 0-1.6-.7-1.6-1.6s.7-1.6 1.6-1.6z"/></g><g><path class="st14" d="M93.2 153.2c-3 0-5.4-2.4-5.4-5.4 0-1-.8-1.8-1.8-1.8s-1.8.8-1.8 1.8c0 3-2.4 5.4-5.4 5.4-1 0-1.8.8-1.8 1.8s.8 1.8 1.8 1.8c3 0 5.4 2.4 5.4 5.4 0 1 .8 1.8 1.8 1.8s1.8-.8 1.8-1.8c0-3 2.4-5.4 5.4-5.4 1 0 1.8-.8 1.8-1.8s-.8-1.8-1.8-1.8z"/></g><g><circle class="st14" cx="116.5" cy="160.5" r="2.5"/></g><g><circle class="st14" cx="78.5" cy="194.5" r="4.5"/></g><g><path class="st14" d="M626.6 79.6c-2.3 0-4.2-1.9-4.2-4.2 0-.8-.6-1.4-1.4-1.4s-1.4.6-1.4 1.4c0 2.3-1.9 4.2-4.2 4.2-.8 0-1.4.6-1.4 1.4s.6 1.4 1.4 1.4c2.3 0 4.2 1.9 4.2 4.2 0 .8.6 1.4 1.4 1.4s1.4-.6 1.4-1.4c0-2.3 1.9-4.2 4.2-4.2.8 0 1.4-.6 1.4-1.4s-.6-1.4-1.4-1.4z"/></g><g><path class="st14" d="M1100.6 155.6c-2.3 0-4.2-1.9-4.2-4.2 0-.8-.6-1.4-1.4-1.4s-1.4.6-1.4 1.4c0 2.3-1.9 4.2-4.2 4.2-.8 0-1.4.6-1.4 1.4s.6 1.4 1.4 1.4c2.3 0 4.2 1.9 4.2 4.2 0 .8.6 1.4 1.4 1.4s1.4-.6 1.4-1.4c0-2.3 1.9-4.2 4.2-4.2.8 0 1.4-.6 1.4-1.4s-.6-1.4-1.4-1.4z"/></g><g><path class="st14" d="M588.2 56.2c-3 0-5.4-2.4-5.4-5.4 0-1-.8-1.8-1.8-1.8s-1.8.8-1.8 1.8c0 3-2.4 5.4-5.4 5.4-1 0-1.8.8-1.8 1.8s.8 1.8 1.8 1.8c3 0 5.4 2.4 5.4 5.4 0 1 .8 1.8 1.8 1.8s1.8-.8 1.8-1.8c0-3 2.4-5.4 5.4-5.4 1 0 1.8-.8 1.8-1.8s-.8-1.8-1.8-1.8z"/></g><g><path class="st9" d="M108 321c-2.8 0-5-2.2-5-5V188c0-2.8 2.2-5 5-5h58c2.8 0 5 2.2 5 5v128c0 2.8-2.2 5-5 5h-58z"/><path class="st1" d="M166 186c1.1 0 2 .9 2 2v128c0 1.1-.9 2-2 2h-58c-1.1 0-2-.9-2-2V188c0-1.1.9-2 2-2h58m0-6h-58c-4.4 0-8 3.6-8 8v128c0 4.4 3.6 8 8 8h58c4.4 0 8-3.6 8-8V188c0-4.4-3.6-8-8-8z"/><path class="st15" d="M120 309c-2.8 0-5-2.2-5-5v-10c0-2.8 2.2-5 5-5h34c2.8 0 5 2.2 5 5v10c0 2.8-2.2 5-5 5h-34z"/><path class="st1" d="M154 292c1.1 0 2 .9 2 2v10c0 1.1-.9 2-2 2h-34c-1.1 0-2-.9-2-2v-10c0-1.1.9-2 2-2h34m0-6h-34c-4.4 0-8 3.6-8 8v10c0 4.4 3.6 8 8 8h34c4.4 0 8-3.6 8-8v-10c0-4.4-3.6-8-8-8zM159 198h-44c-1.7 0-3 1.3-3 3s1.3 3 3 3h44c1.7 0 3-1.3 3-3s-1.3-3-3-3zM159 210h-44c-1.7 0-3 1.3-3 3s1.3 3 3 3h44c1.7 0 3-1.3 3-3s-1.3-3-3-3z"/><g><path class="st1" d="M147 222h-32c-1.7 0-3 1.3-3 3s1.3 3 3 3h32c1.7 0 3-1.3 3-3s-1.3-3-3-3z"/></g><g><path class="st1" d="M141.1 241.5c1-.9 1.9-1.4 3.1-1.9 1.1-.4 2.3-.6 3.6-.6 1.3 0 2.6.3 3.7.9 1.2.6 2.2 1.5 2.8 2.6.6 1 .3 2.2-.7 2.8-.4.3-.9.4-1.3.3l-.6-.1c-.9-.1-1.5-.3-2.2-.4-.7-.1-1.3-.2-2-.2h-2.2c-.8 0-1.7.1-2.4 0l-.7-.1c-1.1-.1-1.9-1.1-1.8-2.2.2-.3.4-.8.7-1.1zM131 245.1c-.8.1-1.7 0-2.4 0h-2.2c-.7 0-1.3.1-2 .2s-1.3.2-2.2.4l-.6.1c-1.1.1-2.2-.7-2.3-1.8-.1-.5.1-.9.3-1.3.7-1.1 1.6-2 2.8-2.6 1.2-.6 2.5-.9 3.7-.9 1.3 0 2.5.2 3.6.6 1.1.4 2.1 1 3.1 1.9.8.8.8 2.1.1 2.9-.4.4-.8.6-1.3.6l-.6-.1zM131 255.5c-1.4 0-2.5-1.1-2.5-2.5 0-.8-.7-1.5-1.5-1.5s-1.5.7-1.5 1.5c0 1.4-1.1 2.5-2.5 2.5s-2.5-1.1-2.5-2.5c0-3.6 2.9-6.5 6.5-6.5s6.5 2.9 6.5 6.5c0 1.4-1.1 2.5-2.5 2.5zM151 255.5c-1.4 0-2.5-1.1-2.5-2.5 0-.8-.7-1.5-1.5-1.5s-1.5.7-1.5 1.5c0 1.4-1.1 2.5-2.5 2.5s-2.5-1.1-2.5-2.5c0-3.6 2.9-6.5 6.5-6.5s6.5 2.9 6.5 6.5c0 1.4-1.1 2.5-2.5 2.5zM137 274.5c-6.3 0-11.5-5.2-11.5-11.5 0-1.4 1.1-2.5 2.5-2.5h18c1.4 0 2.5 1.1 2.5 2.5 0 6.3-5.2 11.5-11.5 11.5z"/><path class="st1" d="M146 263c0 5-4 9-9 9s-9-4-9-9h18m0-5h-18c-2.8 0-5 2.2-5 5 0 7.7 6.3 14 14 14 7.6 0 13.9-6.2 14-13.8v-.2c0-2.8-2.2-5-5-5zm0 10z"/><g><ellipse class="st4" cx="137" cy="269" rx="6.7" ry="3"/></g></g></g><g><path class="st3" d="M1185 349c-2.8 0-5-2.2-5-5V240c0-2.8 2.2-5 5-5h118c2.8 0 5 2.2 5 5v104c0 2.8-2.2 5-5 5h-118z"/><path class="st1" d="M1303 238c1.1 0 2 .9 2 2v104c0 1.1-.9 2-2 2h-118c-1.1 0-2-.9-2-2V240c0-1.1.9-2 2-2h118m0-6h-118c-4.4 0-8 3.6-8 8v104c0 4.4 3.6 8 8 8h118c4.4 0 8-3.6 8-8V240c0-4.4-3.6-8-8-8z"/><path class="st4" d="M1253 337c-2.8 0-5-2.2-5-5v-10c0-2.8 2.2-5 5-5h34c2.8 0 5 2.2 5 5v10c0 2.8-2.2 5-5 5h-34z"/><path class="st1" d="M1287 320c1.1 0 2 .9 2 2v10c0 1.1-.9 2-2 2h-34c-1.1 0-2-.9-2-2v-10c0-1.1.9-2 2-2h34m0-6h-34c-4.4 0-8 3.6-8 8v10c0 4.4 3.6 8 8 8h34c4.4 0 8-3.6 8-8v-10c0-4.4-3.6-8-8-8zM1232 330h-36c-1.7 0-3 1.3-3 3s1.3 3 3 3h36c1.7 0 3-1.3 3-3s-1.3-3-3-3zM1232 318h-36c-1.7 0-3 1.3-3 3s1.3 3 3 3h36c1.7 0 3-1.3 3-3s-1.3-3-3-3z"/><g><path class="st9" d="M1183 305c-1.7 0-3-1.3-3-3v-64c0-1.7 1.3-3 3-3h122c1.7 0 3 1.3 3 3v64c0 1.7-1.3 3-3 3h-122z"/><path class="st1" d="M1305 238v64h-122v-64h122m0-6h-122c-3.3 0-6 2.7-6 6v64c0 3.3 2.7 6 6 6h122c3.3 0 6-2.7 6-6v-64c0-3.3-2.7-6-6-6z"/></g><g><circle class="st4" cx="1244" cy="270" r="17"/><path class="st1" d="M1244 256c7.7 0 14 6.3 14 14s-6.3 14-14 14-14-6.3-14-14 6.3-14 14-14m0-6c-11 0-20 9-20 20s9 20 20 20 20-9 20-20-9-20-20-20z"/><g><path class="st3" d="m1251 270-10 6v-12z"/></g></g></g></svg>