<?xml version="1.0" encoding="UTF-8"?>
<svg id="Layer_1" data-name="Layer 1" xmlns="http://www.w3.org/2000/svg" width="168" height="187" viewBox="0 0 168 187">
  <g>
    <path d="M86.717,175.709c-13.689.42-26.882-4.111-37.422-12.809-15.529-1.084-28.138-13.932-28.623-29.741-.022-.7-.022-1.4.01-2.112-3.573-4.051-5.665-9.251-5.831-14.69l-.065-2.121c-.041-1.337.034-2.687.227-4.009-3.16-4.753-4.909-10.229-5.086-16.008-.148-4.835.842-9.588,2.873-13.938-.869-2.712-1.347-5.52-1.435-8.393-.328-10.688,5.019-20.807,13.851-26.639,2.822-13.183,14.375-23.047,28.127-23.469,2.566-.079,5.1.173,7.569.744,5.508-5.55,12.891-8.801,20.832-9.044,7.942-.243,15.509,2.539,21.347,7.751,2.43-.722,4.933-1.128,7.51-1.207,13.763-.422,25.898,8.715,29.512,21.701,9.161,5.28,15.128,15.053,15.456,25.741.088,2.874-.217,5.706-.919,8.466,2.295,4.217,3.574,8.901,3.722,13.736.177,5.779-1.234,11.351-4.096,16.289.274,1.319.431,2.651.472,3.988l.065,2.121c.168,5.439-1.602,10.758-4.92,15.019.075.71.118,1.409.139,2.108.485,15.809-11.315,29.406-26.748,31.44-9.988,9.328-22.889,14.658-36.567,15.078Z" style="fill: #fff;"/>
    <path d="M81.938,19.841c7.804-.239,14.873,3.237,19.512,8.816,2.845-1.361,5.994-2.168,9.345-2.271,11.855-.363,21.945,8.232,23.76,19.66,8.37,3.66,14.353,11.892,14.651,21.616.099,3.213-.433,6.296-1.481,9.141,2.565,3.732,4.135,8.205,4.285,13.061.172,5.599-1.568,10.821-4.634,15.043.592,1.638.954,3.399,1.01,5.233l.065,2.122c.154,5.025-1.913,9.599-5.306,12.814.297,1.392.48,2.829.525,4.313.407,13.296-9.97,24.472-23.206,25.112-8.687,8.81-20.625,14.44-33.942,14.848-13.318.408-25.577-4.48-34.788-12.742-13.251.173-24.292-10.336-24.7-23.643-.045-1.473.048-2.919.26-4.338-3.584-3-5.927-7.439-6.081-12.465l-.065-2.121c-.056-1.834.197-3.614.687-5.285-3.307-4.027-5.374-9.122-5.546-14.731-.149-4.856,1.144-9.417,3.477-13.299-1.221-2.775-1.94-5.82-2.039-9.033-.298-9.723,5.17-18.307,13.299-22.473,1.111-11.518,10.647-20.714,22.512-21.078,3.34-.102,6.543.51,9.466,1.694,4.288-5.863,11.131-9.755,18.935-9.994ZM81.548,7.117c-8.43.258-16.328,3.302-22.619,8.579-1.907-.249-3.831-.339-5.782-.279-15.831.485-29.255,11.266-33.536,26.012-9.395,7.197-14.977,18.629-14.609,30.653.081,2.64.436,5.23,1.066,7.768-1.801,4.619-2.657,9.559-2.504,14.564.19,6.182,1.867,12.074,4.904,17.33-.058.893-.072,1.796-.045,2.687l.065,2.121c.186,6.075,2.254,11.902,5.82,16.728l.002.074c.3,9.787,4.369,18.906,11.464,25.683,5.838,5.574,13.162,9.042,21.024,10.011,11.469,8.872,25.545,13.46,40.114,13.013,14.569-.447,28.336-5.899,39.241-15.446,7.789-1.46,14.896-5.36,20.372-11.281,6.667-7.199,10.169-16.55,9.869-26.336l-.002-.074c3.263-5.036,4.97-10.978,4.784-17.054l-.066-2.121c-.028-.902-.098-1.791-.209-2.679,2.709-5.433,4.023-11.416,3.833-17.598-.154-5.005-1.311-9.883-3.391-14.383.473-2.562.669-5.179.588-7.819-.368-12.024-6.651-23.092-16.459-29.701-5.177-14.466-19.236-24.394-35.067-23.908-1.951.06-3.866.278-5.754.633-6.613-4.881-14.683-7.435-23.102-7.177Z" style="fill: #fff;"/>
  </g>
  <path d="M52.226,111.039c5.993-3.909,9.891-10.747,9.656-18.413-.104-3.393-1.018-6.56-2.527-9.368,2.616-3.646,4.113-8.139,3.965-12.964-.359-11.695-10.161-20.915-21.857-20.556-11.695.359-20.915,10.161-20.556,21.857.104,3.393,1.018,6.56,2.527,9.368-2.616,3.646-4.113,8.139-3.965,12.963.344,11.208,9.362,20.112,20.402,20.527-5.993,3.909-9.891,10.747-9.656,18.413.359,11.696,10.161,20.915,21.857,20.557,11.695-.359,20.915-10.162,20.556-21.857-.359-11.695-9.362-20.111-20.402-20.526Z" style="fill: #7d839b;"/>
  <path d="M148.829,89.96c-.147-4.825-1.917-9.217-4.751-12.696,1.333-2.885,2.053-6.112,1.949-9.506-.36-11.695-10.162-20.915-21.857-20.556s-20.915,10.161-20.557,21.857c.149,4.825,1.917,9.217,4.751,12.696-1.333,2.885-2.052,6.112-1.948,9.506.234,7.666,4.545,14.252,10.765,17.786-10.993,1.091-19.449,10.531-19.105,21.738.344,11.208,10.162,20.915,21.857,20.557,11.695-.359,20.914-10.162,20.556-21.857-.234-7.666-4.545-14.252-10.765-17.787,10.993-1.091,19.449-10.53,19.105-21.738Z" style="fill: #7d839b;"/>
  <path d="M131.909,126.564c-1.76.054-3.225-1.324-3.278-3.084l-.716-23.327c-.054-1.76,1.324-3.225,3.084-3.279,7.603-.233,13.974,5.759,14.207,13.362l.066,2.121c.232,7.602-5.759,13.973-13.362,14.207Z" style="fill: #e6c3af;"/>
  <path d="M38.6,129.425c-7.603.232-13.974-5.759-14.207-13.362l-.065-2.121c-.233-7.603,5.759-13.974,13.362-14.207,1.76-.054,3.224,1.323,3.278,3.083l.715,23.327c.054,1.76-1.323,3.225-3.084,3.279Z" style="fill: #d2a5a0;"/>
  <path d="M86.425,166.166c-25.724.789-47.296-19.5-48.085-45.224l-.975-31.809c-.789-25.724,19.5-47.296,45.224-48.085,25.723-.789,47.296,19.501,48.085,45.224l.975,31.81c.788,25.723-19.5,47.296-45.224,48.084Z" style="fill: #e6c3af;"/>
  <path d="M50.003,120.584l-.975-31.809c-.692-22.574,15.948-41.658,37.906-44.464-1.404-.095-2.816-.126-4.248-.082-24.006.736-42.877,20.8-42.141,44.806l.975,31.809c.736,24.006,20.8,42.878,44.806,42.141,1.431-.045,2.839-.161,4.235-.343-22.088-1.455-39.866-19.484-40.558-42.059Z" style="fill: #d2a5a0;"/>
  <path d="M93.314,113.95c.144,4.687-3.536,8.599-8.223,8.743-4.687.143-8.599-3.536-8.743-8.222l16.965-.521Z" style="fill: #d2a5a0;"/>
  <path d="M85.173,125.343c-6.139.189-11.287-4.653-11.475-10.792l-.455-14.844c-.045-1.463,1.106-2.687,2.57-2.732,1.463-.045,2.687,1.106,2.732,2.57l.455,14.845c.098,3.212,2.798,5.752,6.011,5.653,3.213-.099,5.751-2.798,5.653-6.011l-.455-14.845c-.045-1.463,1.106-2.687,2.57-2.732,1.463-.045,2.687,1.106,2.732,2.57l.455,14.845c.188,6.139-4.653,11.286-10.792,11.474Z" style="fill: #515979;"/>
  <path d="M110.893,29.567c-3.818.117-7.357,1.319-10.344,3.268-3.901-6.079-10.783-10.049-18.513-9.812s-14.356,4.611-17.877,10.928c-3.1-1.762-6.707-2.745-10.524-2.628-11.112.341-19.869,9.652-19.529,20.764.341,11.112,9.652,19.869,20.764,19.529,6.966-.214,13.018-3.965,16.468-9.473,3.464,2.197,7.598,3.429,11.998,3.294,4.4-.135,8.452-1.607,11.774-4.023,3.781,5.286,10.04,8.66,17.017,8.446,11.112-.341,19.869-9.652,19.529-20.764-.341-11.112-9.651-19.869-20.764-19.529Z" style="fill: #7d839b;"/>
  <path d="M152.01,89.863c-.15-4.856-1.72-9.329-4.285-13.061,1.048-2.845,1.58-5.928,1.481-9.141-.298-9.723-6.281-17.956-14.651-21.616-1.815-11.428-11.895-20.023-23.76-19.66-3.341.102-6.5.91-9.345,2.271-4.639-5.589-11.708-9.055-19.512-8.816-7.804.239-14.647,4.143-18.935,9.995-2.923-1.184-6.115-1.797-9.466-1.694-11.854.363-21.4,9.561-22.512,21.078-8.129,4.166-13.597,12.75-13.299,22.473.098,3.213.818,6.258,2.039,9.033-2.333,3.882-3.626,8.442-3.477,13.299.172,5.599,2.228,10.704,5.546,14.731-.49,1.671-.743,3.451-.687,5.285l.065,2.121c.154,5.026,2.498,9.465,6.081,12.465-.212,1.408-.305,2.854-.26,4.338.408,13.296,11.449,23.816,24.7,23.643,9.211,8.262,21.47,13.15,34.788,12.742,13.318-.408,25.255-6.038,33.942-14.848,13.236-.64,23.613-11.815,23.206-25.112-.046-1.473-.227-2.911-.525-4.313,3.394-3.214,5.46-7.789,5.306-12.814l-.065-2.121c-.056-1.835-.418-3.596-1.01-5.234,3.055-4.222,4.806-9.434,4.634-15.043ZM142.845,67.856c.037,1.198-.055,2.369-.243,3.51-3.805-2.972-8.5-4.823-13.592-5.113-.114-.241-.239-.491-.363-.732,3.092-3.353,5.201-7.589,5.917-12.281,4.818,3.111,8.081,8.444,8.27,14.605l.011.01ZM110.99,32.747c7.612-.233,14.202,4.585,16.567,11.421.547,1.575.865,3.264.918,5.024.017.53.001,1.051-.025,1.561-.207,3.318-1.365,6.378-3.219,8.929-1.262,1.737-2.862,3.229-4.684,4.389-2.478,1.562-5.378,2.51-8.507,2.606-1.76.054-3.465-.159-5.071-.609-2.194-.612-4.2-1.654-5.94-3.023-.489-.388-.959-.809-1.408-1.252,1.124-1.085,2.148-2.273,3.043-3.553.844-1.204,1.59-2.49,2.207-3.846.597-1.292,1.076-2.644,1.447-4.045.57-2.183.839-4.473.778-6.838,0-.011-.001-.021-.001-.032-.103-3.34-.879-6.511-2.187-9.379,1.886-.801,3.941-1.288,6.104-1.355h-.021ZM82.133,26.203c5.524-.169,10.542,2.171,13.97,5.993,1.45,1.611,2.601,3.486,3.386,5.553.357.923.63,1.87.841,2.85.201,1.002.349,2.027.381,3.077.039,1.283-.06,2.538-.278,3.744-.616,3.436-2.209,6.542-4.489,9.021-1.469,1.595-3.232,2.922-5.197,3.906-2.268,1.131-4.805,1.824-7.498,1.907-2.693.083-5.267-.454-7.601-1.444-2.022-.861-3.863-2.068-5.427-3.58-2.428-2.335-4.207-5.337-5.033-8.729-.292-1.201-.468-2.448-.507-3.72-.032-1.05.042-2.082.192-3.094.139-.991.364-1.964.665-2.897.668-2.101,1.701-4.053,3.039-5.75,3.188-4.025,8.053-6.668,13.577-6.837h-.021ZM53.732,34.503c2.174-.067,4.254.294,6.175.978-1.13,2.943-1.711,6.155-1.609,9.495,0,.011,0,.021,0,.032.072,2.364.492,4.633,1.195,6.777.446,1.377,1.017,2.697,1.692,3.949.698,1.305,1.521,2.543,2.438,3.704.972,1.223,2.067,2.346,3.255,3.36-.421.469-.863.918-1.328,1.335-1.653,1.473-3.602,2.636-5.744,3.381-1.575.547-3.264.864-5.024.918-3.139.096-6.092-.683-8.65-2.08-1.9-1.035-3.577-2.427-4.944-4.094-2.006-2.422-3.35-5.416-3.759-8.715-.058-.518-.106-1.037-.122-1.556-.054-1.76.159-3.465.609-5.071,1.941-6.969,8.223-12.181,15.836-12.415h-.021ZM31.447,56.413c1.002,4.628,3.367,8.738,6.658,11.895-.109.247-.207.505-.317.753-5.065.601-9.638,2.737-13.254,5.936-.257-1.128-.42-2.29-.457-3.488-.189-6.161,2.74-11.695,7.359-15.084l.01-.011ZM22.65,93.829c-.073-2.396.334-4.691,1.118-6.816.804-2.158,2.007-4.126,3.526-5.807,2.186-2.423,5.028-4.251,8.268-5.199-.867,3.582-1.347,7.311-1.389,11.133-.01.701-.01,1.391.011,2.101l.237,7.73c-3.668.813-6.865,2.821-9.211,5.578-1.532-2.553-2.462-5.518-2.56-8.709v-.011ZM27.574,115.965l-.065-2.121s0-.032-.001-.042c-.073-2.386.676-4.605,1.958-6.406,1.261-1.78,3.045-3.161,5.155-3.894l.538,17.537c.031,1.008.104,2.003.187,2.998.062.625.124,1.259.206,1.872-.31-.075-.621-.172-.921-.279-2.114-.753-3.93-2.162-5.195-3.98-1.122-1.621-1.807-3.563-1.872-5.685h.011ZM33.396,132.768c-.009-.285.015-.562.016-.849,1.114.327,2.277.545,3.469.636,1.628,6.01,4.356,11.562,7.933,16.441-6.499-2.561-11.201-8.795-11.429-16.227h.011ZM86.327,162.985c-9.797.3-18.941-2.667-26.383-7.916-2.115-1.495-4.099-3.175-5.917-5.019-5.203-5.274-9.078-11.884-11.056-19.295-.851-3.169-1.356-6.486-1.461-9.91l-.975-31.81s-.003-.085-.004-.138c-.134-4.719.501-9.281,1.781-13.565.328-1.082.677-2.165,1.08-3.206,3.452,1.815,7.399,2.809,11.566,2.681.509-.016,1.007-.052,1.504-.099,1.164-.11,2.294-.304,3.4-.571,2.38-.593,4.612-1.542,6.643-2.804,2.187-1.351,4.13-3.067,5.757-5.037,3.382,1.605,7.176,2.455,11.162,2.332,3.987-.122,7.732-1.203,10.999-3.012,1.745,1.867,3.789,3.45,6.055,4.675,2.104,1.124,4.39,1.946,6.803,2.392,1.12.21,2.26.323,3.429.362.499.017.998.022,1.506.007,4.168-.128,8.046-1.351,11.381-3.384.467,1.026.891,2.074,1.274,3.134,1.53,4.209,2.443,8.723,2.609,13.431.001.042.002.085.004.138l.975,31.81c.105,3.424-.206,6.767-.851,9.981-1.52,7.518-4.972,14.353-9.853,19.936-1.703,1.952-3.568,3.75-5.598,5.372-7.106,5.695-16.041,9.216-25.849,9.517h.021ZM137.308,129.582c.227,7.433-4.072,13.943-10.414,16.898,3.283-5.079,5.655-10.788,6.911-16.897,1.184-.163,2.332-.453,3.423-.848.019.286.059.561.069.848h.011ZM135.637,122.533c-.293.126-.597.242-.902.336.043-.628.067-1.255.09-1.882.033-.998.035-1.996.003-3.003l-.537-17.538c2.141.603,4.015,1.872,5.384,3.571,1.391,1.73,2.264,3.89,2.347,6.274.001.011.001.032.002.042l.065,2.122c.065,2.11-.501,4.101-1.52,5.788-1.141,1.903-2.867,3.409-4.942,4.291h.011ZM134.092,93.904l-.238-7.73c-.021-.7-.064-1.399-.118-2.098-.276-3.812-.983-7.505-2.068-11.027,3.281.759,6.229,2.399,8.57,4.683,1.62,1.585,2.941,3.476,3.875,5.58.912,2.063,1.46,4.339,1.533,6.735.098,3.192-.648,6.207-2.021,8.85-2.51-2.608-5.824-4.406-9.536-5.004v.011Z" style="fill: #515979;"/>
  <path d="M80.907,55.427c-1.463.045-2.687-1.106-2.732-2.57-.045-1.463,1.106-2.687,2.57-2.732,4.39-.135,7.843-3.807,7.709-8.196-.045-1.463,1.106-2.687,2.57-2.732,1.463-.045,2.687,1.106,2.732,2.57.224,7.306-5.542,13.437-12.848,13.66Z" style="fill: #515979;"/>
  <path d="M111.121,105.221c-.432-.241-.894-.44-1.377-.605,1.417-1.211,2.296-3.031,2.234-5.035-.108-3.51-3.048-6.275-6.557-6.167-3.51.108-6.275,3.047-6.167,6.557.061,2.004,1.049,3.767,2.538,4.889-.472.195-.921.421-1.338.688-.989.635-1.267,1.949-.632,2.938.635.989,1.949,1.267,2.938.631,1.644-1.059,4.582-1.149,6.288-.192.346.202.731.285,1.102.274.72-.022,1.41-.404,1.781-1.084.574-1.026.216-2.309-.81-2.894Z" style="fill: #515979;"/>
  <path d="M69.564,100.881c-.108-3.51-3.047-6.275-6.557-6.167-3.51.108-6.274,3.047-6.167,6.557.061,2.004,1.049,3.767,2.538,4.889-.472.195-.921.421-1.337.688-.989.635-1.267,1.95-.632,2.938.635.989,1.949,1.267,2.938.631,1.644-1.059,4.581-1.149,6.288-.193.346.202.73.285,1.102.275.721-.022,1.41-.404,1.782-1.084.573-1.026.216-2.31-.81-2.894-.432-.242-.894-.44-1.377-.606,1.417-1.211,2.295-3.031,2.234-5.035Z" style="fill: #515979;"/>
  <path d="M85.832,135.417c-5.174.158-10.51-.803-15.171-2.91-1.066-.488-1.539-1.737-1.063-2.812.487-1.065,1.736-1.539,2.812-1.063,8.051,3.649,18.824,3.329,25.597-.763,1-.604,2.305-.283,2.909.717.604,1,.282,2.305-.717,2.909-4.033,2.438-9.119,3.75-14.367,3.911v.011Z" style="fill: #515979;"/>
  <path d="M98.409,84.894c3.754-3.925,10.314-4.912,14.919-1.827,2.446,1.538,5.748,5.714,2.22,7.69-1.893.907-4.076-1.053-5.679-1.429-3.151-1.326-6.739-.695-10.087-.837-1.754-.084-2.61-2.393-1.373-3.598Z" style="fill: #515979;"/>
  <path d="M67.562,89.575c-3.117.096-6.432-.004-9.256,1.345-.987.359-2.214,1.182-3.439,1.708-1.35.636-2.959.059-3.595-1.301-.329-.701-.332-1.476-.066-2.142,1.221-3.434,4.866-6.061,8.517-6.417,2.749-.339,5.323.198,7.655,1.474,1.575.843,3.922,2.607,2.231,4.559-.512.599-1.316.688-2.025.773h-.021Z" style="fill: #515979;"/>
  <path d="M81.123,138.299c2.944.493,5.978.422,8.875-.272,1.4-.372,2.391,1.476,1.327,2.431-.823.853-1.862,1.565-2.956,1.896-2.586.822-5.595.638-7.801-1.057l-.588-.481c-1.142-.899-.256-2.805,1.154-2.529l-.01.011Z" style="fill: #515979;"/>
  <path d="M107.785,101.301c.878-.027,1.568-.761,1.541-1.639-.027-.878-.761-1.569-1.639-1.542-.878.027-1.569.761-1.542,1.639.028.878.762,1.569,1.64,1.542Z" style="fill: #fff;"/>
  <path d="M65.372,102.602c.878-.027,1.569-.761,1.542-1.639-.027-.878-.761-1.569-1.639-1.542-.878.027-1.569.761-1.542,1.639.027.878.761,1.569,1.639,1.542Z" style="fill: #fff;"/>
</svg>