<?xml version="1.0" encoding="utf-8"?>
<!-- Generator: Adobe Illustrator 26.1.0, SVG Export Plug-In . SVG Version: 6.00 Build 0)  -->
<svg version="1.1" id="Layer_1" xmlns="http://www.w3.org/2000/svg" xmlns:xlink="http://www.w3.org/1999/xlink" x="0px" y="0px"
	 viewBox="0 0 1383.9 489.3" style="enable-background:new 0 0 1383.9 489.3;" xml:space="preserve">
<style type="text/css">
	.st0{fill:#FCFCFC;filter:url(#Adobe_OpacityMaskFilter);}
	.st1{mask:url(#mask0_5536_2939_00000080178658062027573710000007337918264682176925_);}
	.st2{clip-path:url(#SVGID_00000132787146540842442480000016519964929884400307_);}
	.st3{fill:#F89D81;}
	.st4{fill:#515979;}
	.st5{clip-path:url(#SVGID_00000003098081013037872930000004726185986885502122_);}
	.st6{clip-path:url(#SVGID_00000022523797608362047470000017987867123218502811_);}
	.st7{fill:#FFE8A0;}
	.st8{clip-path:url(#SVGID_00000054233467761862277550000018007101107051487116_);}
	.st9{clip-path:url(#SVGID_00000152245906838569363610000016966292219125386408_);}
	.st10{fill:#F9CBCB;}
	.st11{clip-path:url(#SVGID_00000044897410636311888580000008843388566162182043_);}
	.st12{clip-path:url(#SVGID_00000051367912602371916940000016263446930423855798_);}
	.st13{fill:#6ADAF7;}
	.st14{clip-path:url(#SVGID_00000019677240214198661850000007501606022109907621_);}
	.st15{clip-path:url(#SVGID_00000057142482042890989100000017607661188300941753_);}
	.st16{clip-path:url(#SVGID_00000094591603700639676040000014033591696447611535_);}
	.st17{fill:#7DDF96;}
	.st18{clip-path:url(#SVGID_00000013898253135019703940000006852221304505364367_);}
	.st19{clip-path:url(#SVGID_00000122704582629286005400000006374083938803400107_);}
	.st20{clip-path:url(#SVGID_00000091716995618823267660000013298719491671327661_);}
	.st21{clip-path:url(#SVGID_00000129892190298528374270000006117923333271949204_);}
	.st22{clip-path:url(#SVGID_00000132775095490916110920000011266751492404252084_);}
	.st23{clip-path:url(#SVGID_00000068647317120345410040000017068837946200244881_);}
	.st24{clip-path:url(#SVGID_00000039097014097971668510000018104820967196162440_);}
	.st25{clip-path:url(#SVGID_00000028299220209500189080000018089159417876854673_);}
	.st26{clip-path:url(#SVGID_00000147936251145407202010000008754611218710076087_);}
	.st27{clip-path:url(#SVGID_00000158012644160626520120000007734359866985518751_);}
	.st28{clip-path:url(#SVGID_00000085952655140197062100000012190675374317020555_);}
	.st29{clip-path:url(#SVGID_00000097468180041975354310000003330977949655670711_);}
	.st30{clip-path:url(#SVGID_00000151510754433279594630000007974468082377470849_);}
	.st31{clip-path:url(#SVGID_00000048493598929200341720000014340065064044208822_);}
	.st32{clip-path:url(#SVGID_00000021096826724357251530000005843193909292481715_);}
	.st33{clip-path:url(#SVGID_00000075876658242051981180000007011110013504685224_);}
</style>
<defs>
	<filter id="Adobe_OpacityMaskFilter" filterUnits="userSpaceOnUse" x="21.4" y="-62.7" width="1337" height="549.3">
		<feColorMatrix  type="matrix" values="1 0 0 0 0  0 1 0 0 0  0 0 1 0 0  0 0 0 1 0"/>
	</filter>
</defs>
<mask maskUnits="userSpaceOnUse" x="21.4" y="-62.7" width="1337" height="549.3" id="mask0_5536_2939_00000080178658062027573710000007337918264682176925_">
	<path class="st0" d="M1365-25.2l-8.8-1.4l-8.2,2.1l-5.9-4.8l-7.1,1.6l-1.9,4.3l-6.3-1.6l-6.5,0.3l-6.1-2.5l-6.1-2.1l-9,2.4
		l-7.6,2.3l-7.9,1.7l-8.1,0.3l-4.2,2.9l-3-1.2l-5.1-0.7l-10.1,2.4l-2.7,2.3l-2.6,1.4l-8.3-0.3l-4.4-0.6l-4.3,1.3l-8.4-4.3l-5.2-2.1
		l-5.3-2.8l-5.7-4.1l-5.6-1.7l-5.3,2.7l-9.8-0.6l-3.4,1.2l-6.6,1.1l-5.8-2.2l-1.1-4.8l-2.6,0.1l-2.7-1.6l-5.1,1.1l-5.9,1l-5.2-3.7
		l-6-0.2l-5.4-0.1l-3.2-5l-9.7,3l-8.6-2.4l-9.8-0.1l-6.3,0.5l-6.3-1.2l-6-0.6l-5.8,2.3l-3.9-0.9l-8.1,2.9l-8-0.6l-3.3-3.1l-2.2-1.6
		l-5,2.8l-6.4,0.5l-1.1,3.6l-6.3-0.1l-5.4,2.6l-4.2,0.9l-4.7-2.5l-4.5,1.7l-3.2-0.3l-2.1,0.9l-1.3,2.1l-2.4-1.5l-6.3,2.9l-7.8-2.3
		l-7.8,2.7l-7.6,3.7l-7.4,5.2l-8.6-0.7l-8.7,1l-5.3-1.7l-5.6-3.4l-6.8,0.5l-5.2-0.5l-2.7-3.1l-6.2-3.1l-1.9-2.5l-4.1-1.7l-5.8,0.1
		l-5.6,0.5l-5.3,1.9l-6.1-3.4l-5.7,5.8l-7.1-1.1l-6.8-1.3l-6.7-3.1l-5.3,3.8l-4,2.2l-6-0.4l-6.8,1.2l-9.2-0.9l-8.7-2.8l-6.4,6.2
		l-3.5,0.3l-8.9,1.1l-8.7,2.2l-7.5-0.6L780.8-21l-8.4,0.2l-7.8,0.3l-4.6-0.9l-7,0.7l-8.2,2.1l-8,0.3l-6.5-2.8l-6.6,2.1l-7.9-0.5
		l-7.9-2.1l-5.4,0.6l-2.5,0.4l-7-1.2l-5.5-4.7l-6.9-0.9l-6.9,0.5l-6.7,2l-8.5-1.9l-6.3-3l-6.9-0.2l-6.8-0.7l-6.7-0.5l-1.9,3.6
		l-9.6-0.1l-5.6-1.4l-6.2,0.4l-6.2-2l-5.5-3.6l-6.2-1.3l-7.8-0.5l-7.9,0.4l-7.8-1.8l-6.2-1.8l-6.6,0.8l-5.9,2.4l-7.6,1.9l-6.4-3.5
		l-5.9-0.5l-4.4,1.3l-2.8-0.5l-6.2-1.9l-8.6,5.3L496.1-36l-4.8,1.7l-4.2,1.6l-8.1,0.3l-6,5.9l-9.4-3.9l-5.9,1.5l-5.6-0.7l-6.4-4.3
		l-7.3-2.6l-7.8,1.9l-8.2-1.5l-6.9,4.4l-4.9-2.9l-6.5,0.5l-6.9,0l-7-2.6l-7.6,1.8l-6.3,0.8l-6.5,3.8l-6.4-4l-6-3.6l-6.1-4.9
		l-7.8,0.9l-9.6,1.5l-3.9,6.7l-5.7-3.1l-5.7-0.5l-5.7,2.3l-8.2-0.7l-1,4.6l-7.4,0.8l-6.3,1.6l-4.8,1.2l-9-0.4l-6.4-0.6l-8.6,5.4
		l-6.5,2.7l-7.3-0.1l-7.3-0.4l-6.5-3.8l-8.3-0.6l-2.7-0.2l-7.2,0.3l-5.4-5.7l-7.8,2.4l-7.6,1.5l-4.9-4.7l-4.9-3.9l-9.7,1l-2.7,3
		l-10.2,1.4l-6.8,2.1l-7.1,1.1l-8.2-3.1l-8.7-0.2l-2.6,3.8l-7.4-3.1l-9.6-0.6l-3.1,0.3l-3.9-1.7l-3.8,4.2L95-27l-9.2,1.4l-5-2.6
		L79.2-24l-2.8-1.4l-4.6,1.9l-2-1.5l-2.9,3.4l-6-3.5l-3.1,4l-2.8,1.9l-2.1,0l-1.4,1.2l-2.7-1.5l-6.3-1.9l-1.4,0.3l0.4,1.9L30.5-19
		l-6.6,1.6l-6.2-0.4v679.3l3.3,3.1l9,3l6.5,3.8l7.1,2.8l7.6,1.6l6.6,5.1l8.2-1.5l7.4,1.5l7-2.7l3.8-1.2l9.5,3.2l6.6,0.5l6.5,1.1
		l6.4-0.2l4.7-2.8l7.2-4.7l9.2,1.7l6.3,5.8l7,5l9.6-0.9l8.2,1.6l8.1,1.5l8.7,1.4l9.1-2.5l9.2,1.7l8.9,2.9l9.4,1.7l7.3-4.9l7.2,0.2
		l7.8-1l4.8-5.8l6.7,0l3.1-1l4.5-1.4l7.7-0.8l7.7-1.4l7.5-3.7l7.5-3.6l6.1-6.1l10.7,11.8l9,1.1l6.7-5l6.6-4.8l5.8,4.9l9.6-3.6l7-6.3
		l8.2,2.3l7.3-2.3l7.3-2.4l5.1,4.3l8.1-0.6l4.4,6.3l6.4,3.5l5-15.7l7.6,3l4.7,5.8l8.9,2.7l5.7,7.9l7.2,4.8l8.3,3.4l9,0.7l8.6,3.9
		l8.1-3.6l8.4-1.3l8.5-2l7.9,3.4l7.4,5.4l8.3-4.9l8.3-2.4l9.6,0.8l8-0.8l9.7,1.1l10.4,2.4l8.4-6l10.2-1.2l6.6-3.6l7.8-2.9l9.4,1.9
		l8.9,2.6l8.9,2.6l5.6-1.7l7.1,0.5l7.2-3.5l5.4-2.4l6,3.7l7.6-0.8l6.8-1.3l6.5-3.4l7.9-2.5l4.9-3.4l5-2.4l7.3,2.5l5.9,5.5l8.7,0.8
		l7.5,4.2l8.6,0.6l7.1,1.2l7.4-1.8l7.3,2.2l9.7-4.4l6,2.9l4.6,4.5l7.6,1.3l7.7,0.4l7.5-1.6l7.5-1.5l6.3-4.2l9.1-2.4l6.5-6.3l8.2,1.9
		l7.6-0.6l7.5,2.9l7.8,0.6l6.8-4.9l7.1-1.9l8.7-4.3l10-1.1l7.5-0.2l6.9,3l7.5-2l8.9-0.3l9.3,0.8l6.5-5.6l8.9,0.9l7.9-2.8l7.5,3.2
		l7.9-2.5l7.7,0.8l8,3.1l8.4-3.6l8.2-2.6l11.1-2.2l8.4,4.2l9.7,9.1l7-1.6l8.1-7.1l8.2-1.9l8.7-3.6l9.1,1.2l8.6,1.9l7.3,4.6l6.9,4.8
		l6.8,3.9l7.6,3.2l7.9-8.1l6.4,5.4l10.9,0l6.5-0.7l2,3.2l11.7,0.7l7.1,1.6l7.5,3.8l7.6-2.1l7.4-2.3l7.3,3.4l7.2,3.3l8.3-0.1l8.2-1.6
		l8,2.4l10.4-6.2l7-1.3l6.6,5.1l8.3,4.2l9.5-3l9.5,0.4l9.4,2.1l8.4-4l8.2,0.2l7.6,2l6.2,1l10.1-1l9.7-2.4l9-1.8l9.5,0.7l12.6-0.9
		l3.9-6.2l1.4-1.5V-25.2z"/>
</mask>
<g class="st1">
	<g>
		<defs>
			<rect id="SVGID_1_" x="1181" y="134.1" width="56.1" height="56.1"/>
		</defs>
		<clipPath id="SVGID_00000138547845959569660870000000489599322415521710_">
			<use xlink:href="#SVGID_1_"  style="overflow:visible;"/>
		</clipPath>
		<g style="clip-path:url(#SVGID_00000138547845959569660870000000489599322415521710_);">
			<path class="st3" d="M1203.5,186.9c-0.4,0-0.9-0.1-1.3-0.3c-0.4-0.2-0.8-0.4-1.1-0.7l-15.8-15.8c-0.3-0.3-0.6-0.7-0.7-1.1
				c-0.2-0.4-0.3-0.8-0.3-1.3s0.1-0.9,0.3-1.3c0.2-0.4,0.4-0.8,0.7-1.1l26.8-26.8c0.3-0.3,0.7-0.6,1.1-0.7s0.8-0.3,1.3-0.3
				c0.4,0,0.9,0.1,1.3,0.3c0.4,0.2,0.8,0.4,1.1,0.7l15.8,15.8c0.3,0.3,0.6,0.7,0.7,1.1c0.2,0.4,0.3,0.8,0.3,1.3s-0.1,0.9-0.3,1.3
				c-0.2,0.4-0.4,0.8-0.7,1.1l-26.8,26.8C1205.2,186.6,1204.4,186.9,1203.5,186.9L1203.5,186.9z"/>
			<path class="st4" d="M1214.6,140.8l15.8,15.8l-26.9,26.8l-15.9-15.8L1214.6,140.8L1214.6,140.8z M1214.5,134.2
				c-1.8,0-3.5,0.7-4.7,2l-26.8,26.8c-0.6,0.6-1.1,1.4-1.5,2.2s-0.5,1.7-0.5,2.6c0,0.9,0.2,1.8,0.5,2.6s0.8,1.6,1.5,2.2l15.8,15.8
				c0.6,0.6,1.4,1.1,2.2,1.5c0.8,0.3,1.7,0.5,2.6,0.5c0.9,0,1.7-0.2,2.6-0.5c0.8-0.3,1.6-0.8,2.2-1.5l26.9-26.8
				c0.6-0.6,1.1-1.4,1.5-2.2c0.3-0.8,0.5-1.7,0.5-2.6s-0.2-1.8-0.5-2.6c-0.3-0.8-0.8-1.6-1.5-2.2l-15.8-15.8
				c-0.6-0.6-1.4-1.1-2.2-1.5C1216.2,134.3,1215.4,134.2,1214.5,134.2L1214.5,134.2z"/>
		</g>
	</g>
	<g>
		<defs>
			<rect id="SVGID_00000165218157655147005660000015318847790387475884_" x="1068.7" y="-18" width="56.1" height="56.1"/>
		</defs>
		<clipPath id="SVGID_00000119832549132334903700000004846890407263683975_">
			<use xlink:href="#SVGID_00000165218157655147005660000015318847790387475884_"  style="overflow:visible;"/>
		</clipPath>
		<g style="clip-path:url(#SVGID_00000119832549132334903700000004846890407263683975_);">
			<path class="st3" d="M1091.2,34.8c-0.4,0-0.9-0.1-1.3-0.3c-0.4-0.2-0.8-0.4-1.1-0.7L1073,18c-0.3-0.3-0.6-0.7-0.7-1.1
				c-0.2-0.4-0.3-0.8-0.3-1.3c0-0.4,0.1-0.9,0.3-1.3c0.2-0.4,0.4-0.8,0.7-1.1l26.8-26.8c0.3-0.3,0.7-0.6,1.1-0.7
				c0.4-0.2,0.8-0.3,1.3-0.3c0.4,0,0.9,0.1,1.3,0.3c0.4,0.2,0.8,0.4,1.1,0.7l15.8,15.8c0.3,0.3,0.6,0.7,0.7,1.1
				c0.2,0.4,0.3,0.8,0.3,1.3c0,0.4-0.1,0.9-0.3,1.3c-0.2,0.4-0.4,0.8-0.7,1.1l-26.8,26.8C1093,34.4,1092.1,34.8,1091.2,34.8
				L1091.2,34.8z"/>
			<path class="st4" d="M1102.3-11.3l15.8,15.8l-26.9,26.8l-15.9-15.8L1102.3-11.3L1102.3-11.3z M1102.2-18c-1.8,0-3.5,0.7-4.7,2
				l-26.8,26.8c-0.6,0.6-1.1,1.4-1.5,2.2c-0.3,0.8-0.5,1.7-0.5,2.6c0,0.9,0.2,1.8,0.5,2.6c0.3,0.8,0.8,1.6,1.5,2.2l15.8,15.8
				c0.6,0.6,1.4,1.1,2.2,1.5c0.8,0.3,1.7,0.5,2.6,0.5c0.9,0,1.7-0.2,2.6-0.5c0.8-0.3,1.6-0.8,2.2-1.5l26.9-26.8
				c0.6-0.6,1.1-1.4,1.5-2.2c0.3-0.8,0.5-1.7,0.5-2.6c0-0.9-0.2-1.8-0.5-2.6c-0.3-0.8-0.8-1.6-1.5-2.2L1107-16
				c-0.6-0.6-1.4-1.1-2.2-1.5C1104-17.8,1103.1-18,1102.2-18L1102.2-18z"/>
		</g>
	</g>
	<g>
		<defs>
			
				<rect id="SVGID_00000051360132294523906500000002440577895001313412_" x="1250.5" y="67.1" transform="matrix(0.9397 -0.342 0.342 0.9397 44.542 443.03)" width="56.1" height="56.1"/>
		</defs>
		<clipPath id="SVGID_00000134238832399250734160000017596070601981889973_">
			<use xlink:href="#SVGID_00000051360132294523906500000002440577895001313412_"  style="overflow:visible;"/>
		</clipPath>
		<g style="clip-path:url(#SVGID_00000134238832399250734160000017596070601981889973_);">
			<path class="st7" d="M1281.8,120.3c-0.4,0.2-0.9,0.2-1.3,0.2c-0.4,0-0.9-0.1-1.3-0.3l-20.3-9.4c-0.4-0.2-0.8-0.5-1.1-0.8
				c-0.3-0.3-0.5-0.7-0.7-1.1c-0.1-0.4-0.2-0.9-0.2-1.3c0-0.4,0.1-0.9,0.3-1.3l16-34.4c0.2-0.4,0.4-0.8,0.8-1.1
				c0.3-0.3,0.7-0.5,1.1-0.7c0.4-0.2,0.9-0.2,1.3-0.2c0.4,0,0.9,0.1,1.3,0.3l20.3,9.5c0.4,0.2,0.8,0.4,1.1,0.8
				c0.3,0.3,0.5,0.7,0.7,1.1c0.1,0.4,0.2,0.9,0.2,1.3c0,0.4-0.1,0.9-0.3,1.3l-16.1,34.4C1283.3,119.4,1282.7,120,1281.8,120.3
				L1281.8,120.3z"/>
			<path class="st4" d="M1276.5,73.2l20.3,9.5l-16,34.4l-20.4-9.4L1276.5,73.2L1276.5,73.2z M1274.1,67c-1.7,0.6-3,1.9-3.8,3.5
				l-16.1,34.4c-0.4,0.8-0.6,1.7-0.6,2.5c0,0.9,0.1,1.8,0.4,2.6c0.3,0.8,0.8,1.6,1.4,2.2c0.6,0.6,1.3,1.2,2.1,1.5l20.3,9.5
				c0.8,0.4,1.7,0.6,2.5,0.6c0.9,0,1.8-0.1,2.6-0.4c0.8-0.3,1.6-0.8,2.2-1.4c0.7-0.6,1.2-1.3,1.6-2.1l16-34.4
				c0.4-0.8,0.6-1.7,0.6-2.5c0-0.9-0.1-1.8-0.4-2.6c-0.3-0.8-0.8-1.6-1.4-2.2c-0.6-0.6-1.3-1.2-2.1-1.5l-20.3-9.5
				c-0.8-0.4-1.7-0.6-2.6-0.6C1275.8,66.6,1274.9,66.7,1274.1,67L1274.1,67z"/>
		</g>
	</g>
	<g>
		<defs>
			
				<rect id="SVGID_00000155145299120232190260000015665018822534278844_" x="1269.2" y="422.6" transform="matrix(0.9848 -0.1736 0.1736 0.9848 -58.5538 232.1131)" width="56.1" height="56.1"/>
		</defs>
		<clipPath id="SVGID_00000121268972861882709470000005029650743885025697_">
			<use xlink:href="#SVGID_00000155145299120232190260000015665018822534278844_"  style="overflow:visible;"/>
		</clipPath>
		<g style="clip-path:url(#SVGID_00000121268972861882709470000005029650743885025697_);">
			<path class="st7" d="M1322.6,451.8c0.1,0.4,0.1,0.9,0,1.3c-0.1,0.4-0.3,0.8-0.5,1.2l-12.8,18.3c-0.3,0.4-0.6,0.7-0.9,0.9
				c-0.4,0.2-0.8,0.4-1.2,0.5c-0.4,0.1-0.9,0.1-1.3,0c-0.4-0.1-0.8-0.3-1.2-0.5l-31.1-21.8c-0.4-0.3-0.7-0.6-0.9-0.9
				c-0.2-0.4-0.4-0.8-0.5-1.2c-0.1-0.4-0.1-0.9,0-1.3c0.1-0.4,0.3-0.8,0.5-1.2l12.8-18.3c0.3-0.4,0.6-0.7,0.9-0.9
				c0.4-0.2,0.8-0.4,1.2-0.5c0.4-0.1,0.9-0.1,1.3,0c0.4,0.1,0.8,0.3,1.2,0.5l31.1,21.8C1321.9,450.2,1322.4,451,1322.6,451.8
				L1322.6,451.8z"/>
			<path class="st4" d="M1275.3,449l12.8-18.3l31.1,21.8l-12.8,18.4L1275.3,449L1275.3,449z M1268.7,450.2c0.3,1.8,1.3,3.3,2.8,4.3
				l31.1,21.8c0.7,0.5,1.5,0.9,2.4,1.1c0.9,0.2,1.8,0.2,2.6,0.1c0.9-0.2,1.7-0.5,2.4-1c0.7-0.5,1.4-1.1,1.9-1.8l12.8-18.3
				c0.5-0.7,0.9-1.5,1.1-2.4c0.2-0.9,0.2-1.8,0.1-2.6c-0.1-0.9-0.5-1.7-0.9-2.4c-0.5-0.7-1.1-1.4-1.8-1.9l-31.1-21.8
				c-0.7-0.5-1.5-0.9-2.4-1.1c-0.9-0.2-1.7-0.2-2.6-0.1c-0.9,0.2-1.7,0.5-2.4,0.9c-0.7,0.5-1.4,1.1-1.9,1.8l-12.8,18.3
				c-0.5,0.7-0.9,1.5-1.1,2.4C1268.6,448.4,1268.6,449.3,1268.7,450.2L1268.7,450.2z"/>
		</g>
	</g>
	<g>
		<defs>
			<rect id="SVGID_00000095325117042953482880000000157189376732069253_" x="1286.8" y="311.3" width="56.1" height="56.1"/>
		</defs>
		<clipPath id="SVGID_00000170987366800439053970000010732005972754731706_">
			<use xlink:href="#SVGID_00000095325117042953482880000000157189376732069253_"  style="overflow:visible;"/>
		</clipPath>
		<g style="clip-path:url(#SVGID_00000170987366800439053970000010732005972754731706_);">
			<path class="st10" d="M1309.4,364.1c-0.4,0-0.9-0.1-1.3-0.3c-0.4-0.2-0.8-0.4-1.1-0.7l-15.8-15.8c-0.3-0.3-0.6-0.7-0.7-1.1
				c-0.2-0.4-0.3-0.8-0.3-1.3c0-0.4,0.1-0.9,0.3-1.3c0.2-0.4,0.4-0.8,0.7-1.1l26.9-26.8c0.3-0.3,0.7-0.6,1.1-0.7
				c0.4-0.2,0.9-0.3,1.3-0.3s0.9,0.1,1.3,0.3c0.4,0.2,0.8,0.4,1.1,0.7l15.8,15.8c0.3,0.3,0.6,0.7,0.7,1.1c0.2,0.4,0.3,0.8,0.3,1.3
				c0,0.4-0.1,0.9-0.3,1.3c-0.2,0.4-0.4,0.8-0.7,1.1l-26.9,26.8C1311.1,363.8,1310.3,364.1,1309.4,364.1L1309.4,364.1z"/>
			<path class="st4" d="M1320.4,318l15.8,15.8l-26.9,26.8l-15.9-15.8L1320.4,318L1320.4,318z M1320.4,311.3c-1.8,0-3.5,0.7-4.7,2
				l-26.8,26.8c-0.6,0.6-1.1,1.4-1.5,2.2s-0.5,1.7-0.5,2.6c0,0.9,0.2,1.8,0.5,2.6c0.3,0.8,0.8,1.6,1.5,2.2l15.8,15.8
				c0.6,0.6,1.4,1.1,2.2,1.5c0.8,0.3,1.7,0.5,2.6,0.5c0.9,0,1.8-0.2,2.6-0.5c0.8-0.3,1.6-0.8,2.2-1.5l26.8-26.8
				c0.6-0.6,1.1-1.4,1.5-2.2c0.3-0.8,0.5-1.7,0.5-2.6c0-0.9-0.2-1.8-0.5-2.6c-0.3-0.8-0.8-1.6-1.5-2.2l-15.8-15.8
				c-0.6-0.6-1.4-1.1-2.2-1.5C1322.1,311.5,1321.2,311.3,1320.4,311.3z"/>
		</g>
	</g>
	<g>
		<defs>
			<rect id="SVGID_00000159427617923958240060000000956543667325028252_" x="1293.6" y="-8.7" width="56.1" height="56.1"/>
		</defs>
		<clipPath id="SVGID_00000000904396938461273790000002773635254312469415_">
			<use xlink:href="#SVGID_00000159427617923958240060000000956543667325028252_"  style="overflow:visible;"/>
		</clipPath>
		<g style="clip-path:url(#SVGID_00000000904396938461273790000002773635254312469415_);">
			<path class="st10" d="M1346.4,24.9c0,0.4-0.1,0.9-0.3,1.3c-0.2,0.4-0.4,0.8-0.7,1.1l-15.8,15.8c-0.3,0.3-0.7,0.6-1.1,0.7
				c-0.4,0.2-0.8,0.3-1.3,0.3c-0.4,0-0.9-0.1-1.3-0.3c-0.4-0.2-0.8-0.4-1.1-0.7L1298,16.3c-0.3-0.3-0.6-0.7-0.7-1.1
				c-0.2-0.4-0.3-0.8-0.3-1.3c0-0.4,0.1-0.9,0.3-1.3c0.2-0.4,0.4-0.8,0.7-1.1l15.8-15.8c0.3-0.3,0.7-0.6,1.1-0.7
				c0.4-0.2,0.9-0.3,1.3-0.3s0.9,0.1,1.3,0.3c0.4,0.2,0.8,0.4,1.1,0.7l26.9,26.8C1346.1,23.2,1346.4,24,1346.4,24.9L1346.4,24.9z"/>
			<path class="st4" d="M1300.3,13.8L1316.1-2l26.9,26.8l-15.8,15.9L1300.3,13.8L1300.3,13.8z M1293.6,13.9c0,1.8,0.7,3.5,2,4.7
				l26.9,26.8c0.6,0.6,1.4,1.1,2.2,1.5c0.8,0.3,1.7,0.5,2.6,0.5c0.9,0,1.8-0.2,2.6-0.5s1.6-0.8,2.2-1.5l15.8-15.8
				c0.6-0.6,1.1-1.4,1.5-2.2c0.3-0.8,0.5-1.7,0.5-2.6c0-0.9-0.2-1.8-0.5-2.6c-0.3-0.8-0.8-1.6-1.5-2.2l-26.8-26.8
				c-0.6-0.6-1.4-1.1-2.2-1.5c-0.8-0.3-1.7-0.5-2.6-0.5c-0.9,0-1.7,0.2-2.6,0.5c-0.8,0.3-1.6,0.8-2.2,1.5l-15.8,15.8
				c-0.6,0.6-1.1,1.4-1.5,2.2C1293.8,12.2,1293.6,13,1293.6,13.9z"/>
		</g>
	</g>
	<g>
		<defs>
			
				<rect id="SVGID_00000176040005322799003920000006098289424790064313_" x="1124.8" y="47.4" transform="matrix(0.9848 -0.1736 0.1736 0.9848 4.4007 201.3337)" width="56.1" height="56.1"/>
		</defs>
		<clipPath id="SVGID_00000001650683015698001770000017282611103588859548_">
			<use xlink:href="#SVGID_00000176040005322799003920000006098289424790064313_"  style="overflow:visible;"/>
		</clipPath>
		<g style="clip-path:url(#SVGID_00000001650683015698001770000017282611103588859548_);">
			<path class="st13" d="M1178.1,76.7c0.1,0.4,0.1,0.9,0,1.3c-0.1,0.4-0.3,0.8-0.5,1.2l-12.8,18.3c-0.3,0.4-0.6,0.7-0.9,0.9
				c-0.4,0.2-0.8,0.4-1.2,0.5c-0.4,0.1-0.9,0.1-1.3,0c-0.4-0.1-0.8-0.3-1.2-0.5L1129,76.5c-0.4-0.3-0.7-0.6-0.9-0.9
				c-0.2-0.4-0.4-0.8-0.5-1.2c-0.1-0.4-0.1-0.9,0-1.3c0.1-0.4,0.3-0.8,0.5-1.2l12.8-18.3c0.3-0.4,0.6-0.7,0.9-0.9
				c0.4-0.2,0.8-0.4,1.2-0.5c0.4-0.1,0.9-0.1,1.3,0c0.4,0.1,0.8,0.3,1.2,0.5l31.1,21.8C1177.5,75,1178,75.8,1178.1,76.7L1178.1,76.7
				z"/>
			<path class="st4" d="M1130.8,73.8l12.8-18.3l31.1,21.8L1162,95.6L1130.8,73.8L1130.8,73.8z M1124.3,75c0.3,1.8,1.3,3.3,2.8,4.3
				l31.1,21.8c0.7,0.5,1.5,0.9,2.4,1.1c0.9,0.2,1.8,0.2,2.6,0.1c0.9-0.2,1.7-0.5,2.4-1c0.7-0.5,1.4-1.1,1.9-1.8l12.8-18.3
				c0.5-0.7,0.9-1.5,1.1-2.4c0.2-0.9,0.2-1.8,0.1-2.6c-0.1-0.9-0.5-1.7-0.9-2.4c-0.5-0.7-1.1-1.4-1.8-1.9L1147.6,50
				c-0.7-0.5-1.5-0.9-2.4-1.1c-0.9-0.2-1.7-0.2-2.6-0.1c-0.9,0.2-1.7,0.5-2.4,0.9c-0.7,0.5-1.4,1.1-1.9,1.8L1125.4,70
				c-0.5,0.7-0.9,1.5-1.1,2.4C1124.2,73.3,1124.1,74.1,1124.3,75z"/>
		</g>
	</g>
	<g>
		<defs>
			
				<rect id="SVGID_00000142855043207948757950000017674031702744531340_" x="1297.8" y="167.1" transform="matrix(0.1736 -0.9848 0.9848 0.1736 903.4863 1467.0126)" width="56.1" height="56.1"/>
		</defs>
		<clipPath id="SVGID_00000144310714907491550390000004220430935139051904_">
			<use xlink:href="#SVGID_00000142855043207948757950000017674031702744531340_"  style="overflow:visible;"/>
		</clipPath>
		<g style="clip-path:url(#SVGID_00000144310714907491550390000004220430935139051904_);">
			<path class="st13" d="M1349.3,204.9c-0.1,0.4-0.2,0.9-0.5,1.2c-0.2,0.4-0.5,0.7-0.9,0.9l-18.3,12.8c-0.4,0.3-0.8,0.4-1.2,0.5
				c-0.4,0.1-0.9,0.1-1.3,0c-0.4-0.1-0.9-0.2-1.2-0.5s-0.7-0.5-0.9-0.9l-21.8-31.1c-0.3-0.4-0.4-0.8-0.5-1.2c-0.1-0.4-0.1-0.9,0-1.3
				c0.1-0.4,0.2-0.9,0.5-1.2c0.2-0.4,0.6-0.7,0.9-0.9l18.3-12.8c0.4-0.3,0.8-0.4,1.2-0.5c0.4-0.1,0.9-0.1,1.3,0
				c0.4,0.1,0.9,0.2,1.2,0.5c0.4,0.2,0.7,0.5,1,0.9l21.8,31.1C1349.3,203.1,1349.5,204,1349.3,204.9L1349.3,204.9z"/>
			<path class="st4" d="M1305.8,186l18.3-12.8l21.8,31.1l-18.3,12.9L1305.8,186L1305.8,186z M1299.3,184.9c-0.3,1.8,0.1,3.6,1.1,5
				l21.8,31.1c0.5,0.7,1.2,1.3,1.9,1.8c0.7,0.5,1.6,0.8,2.4,1c0.9,0.2,1.8,0.1,2.6-0.1c0.9-0.2,1.7-0.6,2.4-1.1l18.3-12.8
				c0.7-0.5,1.3-1.1,1.8-1.9c0.5-0.7,0.8-1.6,1-2.4c0.1-0.9,0.1-1.8-0.1-2.6c-0.2-0.9-0.6-1.7-1.1-2.4l-21.8-31.1
				c-0.5-0.7-1.2-1.3-1.9-1.8c-0.7-0.5-1.6-0.8-2.4-1c-0.9-0.2-1.8-0.1-2.6,0.1c-0.9,0.2-1.7,0.6-2.4,1.1l-18.3,12.8
				c-0.7,0.5-1.3,1.2-1.8,1.9C1299.7,183.2,1299.4,184,1299.3,184.9z"/>
		</g>
	</g>
	<g>
		<defs>
			<rect id="SVGID_00000112628353010081264360000003894370350212149678_" x="953.5" y="-58.3" width="56.1" height="56.1"/>
		</defs>
		<clipPath id="SVGID_00000114069481201135665730000000646350816352983709_">
			<use xlink:href="#SVGID_00000112628353010081264360000003894370350212149678_"  style="overflow:visible;"/>
		</clipPath>
		<g style="clip-path:url(#SVGID_00000114069481201135665730000000646350816352983709_);">
			<path class="st7" d="M1006.3-24.7c0,0.4-0.1,0.9-0.3,1.3c-0.2,0.4-0.4,0.8-0.7,1.1L989.5-6.5c-0.3,0.3-0.7,0.6-1.1,0.7
				c-0.4,0.2-0.9,0.3-1.3,0.3c-0.4,0-0.9-0.1-1.3-0.3c-0.4-0.2-0.8-0.4-1.1-0.7L958-33.3c-0.3-0.3-0.6-0.7-0.7-1.1
				c-0.2-0.4-0.3-0.8-0.3-1.3c0-0.4,0.1-0.9,0.3-1.3c0.2-0.4,0.4-0.8,0.7-1.1l15.8-15.8c0.3-0.3,0.7-0.6,1.1-0.7
				c0.4-0.2,0.8-0.3,1.3-0.3c0.4,0,0.9,0.1,1.3,0.3c0.4,0.2,0.8,0.4,1.1,0.7l26.9,26.8C1006-26.4,1006.3-25.6,1006.3-24.7
				L1006.3-24.7z"/>
			<path class="st4" d="M960.2-35.7l15.8-15.8l26.8,26.8L987.1-8.8L960.2-35.7L960.2-35.7z M953.6-35.7c0,1.8,0.7,3.5,2,4.7
				l26.9,26.8c0.6,0.6,1.4,1.1,2.2,1.5c0.8,0.3,1.7,0.5,2.6,0.5c0.9,0,1.7-0.2,2.6-0.5c0.8-0.3,1.6-0.8,2.2-1.5l15.8-15.8
				c0.6-0.6,1.1-1.4,1.5-2.2c0.3-0.8,0.5-1.7,0.5-2.6s-0.2-1.8-0.5-2.6c-0.3-0.8-0.8-1.6-1.5-2.2l-26.9-26.8
				c-0.6-0.6-1.4-1.1-2.2-1.5c-0.8-0.3-1.7-0.5-2.6-0.5c-0.9,0-1.8,0.2-2.6,0.5c-0.8,0.3-1.6,0.8-2.2,1.5l-15.8,15.8
				c-0.6,0.6-1.1,1.4-1.5,2.2C953.7-37.4,953.6-36.5,953.6-35.7L953.6-35.7z"/>
		</g>
	</g>
	<g>
		<defs>
			
				<rect id="SVGID_00000158729112906101472610000009606044670391193007_" x="1217.4" y="239.5" transform="matrix(0.9397 -0.342 0.342 0.9397 -16.4016 442.1293)" width="56.1" height="56.1"/>
		</defs>
		<clipPath id="SVGID_00000150781938178341080240000000673645723837555342_">
			<use xlink:href="#SVGID_00000158729112906101472610000009606044670391193007_"  style="overflow:visible;"/>
		</clipPath>
		<g style="clip-path:url(#SVGID_00000150781938178341080240000000673645723837555342_);">
			<path class="st17" d="M1270.6,264.3c0.1,0.4,0.2,0.9,0.2,1.3c0,0.4-0.1,0.9-0.3,1.3l-9.4,20.3c-0.2,0.4-0.4,0.8-0.8,1.1
				c-0.3,0.3-0.7,0.5-1.1,0.7c-0.4,0.2-0.9,0.2-1.3,0.2c-0.4,0-0.9-0.1-1.3-0.3l-34.4-16c-0.4-0.2-0.8-0.4-1.1-0.8
				c-0.3-0.3-0.5-0.7-0.7-1.1c-0.1-0.4-0.2-0.9-0.2-1.3c0-0.4,0.1-0.9,0.3-1.3l9.4-20.3c0.2-0.4,0.4-0.8,0.8-1.1
				c0.3-0.3,0.7-0.5,1.1-0.7c0.4-0.2,0.9-0.2,1.3-0.2c0.4,0,0.9,0.1,1.3,0.3l34.4,16C1269.7,262.8,1270.3,263.5,1270.6,264.3
				L1270.6,264.3z"/>
			<path class="st4" d="M1223.5,269.7l9.5-20.3l34.4,16l-9.4,20.4L1223.5,269.7L1223.5,269.7z M1217.3,272c0.6,1.7,1.9,3,3.5,3.8
				l34.4,16c0.8,0.4,1.7,0.6,2.5,0.6c0.9,0,1.8-0.1,2.6-0.4c0.8-0.3,1.6-0.8,2.2-1.4c0.6-0.6,1.2-1.3,1.5-2.1l9.5-20.3
				c0.4-0.8,0.6-1.7,0.6-2.5c0-0.9-0.1-1.8-0.4-2.6c-0.3-0.8-0.8-1.6-1.4-2.2c-0.6-0.7-1.3-1.2-2.1-1.5l-34.4-16
				c-0.8-0.4-1.7-0.6-2.5-0.6c-0.9,0-1.8,0.1-2.6,0.4c-0.8,0.3-1.6,0.8-2.2,1.4c-0.6,0.6-1.2,1.3-1.5,2.1l-9.5,20.3
				c-0.4,0.8-0.6,1.7-0.6,2.5C1216.9,270.3,1217,271.2,1217.3,272L1217.3,272z"/>
		</g>
	</g>
	<g>
		<defs>
			
				<rect id="SVGID_00000165957454741704311340000012093425417212383628_" x="119.7" y="198.1" transform="matrix(0.342 -0.9397 0.9397 0.342 -115.312 287.6126)" width="56.1" height="56.1"/>
		</defs>
		<clipPath id="SVGID_00000127032000071007072200000018373331020773841844_">
			<use xlink:href="#SVGID_00000165957454741704311340000012093425417212383628_"  style="overflow:visible;"/>
		</clipPath>
		<g style="clip-path:url(#SVGID_00000127032000071007072200000018373331020773841844_);">
			<path class="st17" d="M169.1,239.8c-0.1,0.4-0.4,0.8-0.7,1.1c-0.3,0.3-0.7,0.6-1.1,0.8l-20.3,9.5c-0.4,0.2-0.8,0.3-1.3,0.3
				c-0.4,0-0.9,0-1.3-0.2c-0.4-0.2-0.8-0.4-1.1-0.7c-0.3-0.3-0.6-0.7-0.8-1.1l-16-34.4c-0.2-0.4-0.3-0.8-0.3-1.3
				c0-0.4,0-0.9,0.2-1.3c0.2-0.4,0.4-0.8,0.7-1.1c0.3-0.3,0.7-0.6,1.1-0.8l20.3-9.5c0.4-0.2,0.8-0.3,1.3-0.3c0.4,0,0.9,0,1.3,0.2
				c0.4,0.2,0.8,0.4,1.1,0.7c0.3,0.3,0.6,0.7,0.8,1.1l16,34.4C169.3,238,169.4,239,169.1,239.8L169.1,239.8z"/>
			<path class="st4" d="M129.5,213.6l20.3-9.5l16,34.4l-20.3,9.6l-16-34.4L129.5,213.6z M123.3,211.4c-0.6,1.7-0.5,3.5,0.2,5.1
				l16,34.4c0.4,0.8,0.9,1.5,1.5,2.1c0.7,0.6,1.4,1.1,2.2,1.4c0.8,0.3,1.7,0.4,2.6,0.4c0.9,0,1.7-0.3,2.5-0.6l20.3-9.5
				c0.8-0.4,1.5-0.9,2.1-1.5c0.6-0.7,1.1-1.4,1.4-2.2c0.3-0.8,0.4-1.7,0.4-2.6c0-0.9-0.3-1.7-0.6-2.5l-16-34.4
				c-0.4-0.8-0.9-1.5-1.5-2.1c-0.7-0.6-1.4-1.1-2.2-1.4c-0.8-0.3-1.7-0.4-2.6-0.4c-0.9,0-1.7,0.3-2.5,0.6l-20.3,9.5
				c-0.8,0.4-1.5,0.9-2.1,1.6C124,209.9,123.6,210.6,123.3,211.4L123.3,211.4z"/>
		</g>
	</g>
	<g>
		<defs>
			
				<rect id="SVGID_00000075852990382049839510000006070187326392703416_" x="101.9" y="-58.3" transform="matrix(0.9848 -0.1736 0.1736 0.9848 7.2195 22.1055)" width="56.1" height="56.1"/>
		</defs>
		<clipPath id="SVGID_00000150795221360531571920000006203300551393568955_">
			<use xlink:href="#SVGID_00000075852990382049839510000006070187326392703416_"  style="overflow:visible;"/>
		</clipPath>
		<g style="clip-path:url(#SVGID_00000150795221360531571920000006203300551393568955_);">
			<path class="st17" d="M128.8-4.9c-0.4,0.1-0.9,0.1-1.3,0c-0.4-0.1-0.8-0.3-1.2-0.5L108-18.3c-0.4-0.3-0.7-0.6-0.9-0.9
				c-0.2-0.4-0.4-0.8-0.5-1.2c-0.1-0.4-0.1-0.9,0-1.3c0.1-0.4,0.3-0.8,0.5-1.2L128.9-54c0.3-0.4,0.6-0.7,0.9-0.9
				c0.4-0.2,0.8-0.4,1.2-0.5c0.4-0.1,0.9-0.1,1.3,0c0.4,0.1,0.8,0.3,1.2,0.5L151.9-42c0.4,0.3,0.7,0.6,0.9,0.9
				c0.2,0.4,0.4,0.8,0.5,1.2c0.1,0.4,0.1,0.9,0,1.3c-0.1,0.4-0.3,0.8-0.5,1.2L131-6.2C130.5-5.5,129.7-5,128.8-4.9L128.8-4.9z"/>
			<path class="st4" d="M131.7-52.2L150-39.4L128.2-8.3L109.8-21L131.7-52.2L131.7-52.2z M130.4-58.8c-1.8,0.3-3.3,1.3-4.3,2.8
				l-21.8,31.1c-0.5,0.7-0.9,1.5-1.1,2.4s-0.2,1.8-0.1,2.6c0.2,0.9,0.5,1.7,1,2.4c0.5,0.7,1.1,1.4,1.8,1.9l18.3,12.8
				c0.7,0.5,1.5,0.9,2.4,1.1c0.9,0.2,1.8,0.2,2.6,0.1c0.9-0.2,1.7-0.5,2.4-1c0.7-0.5,1.4-1.1,1.9-1.8l21.8-31.1
				c0.5-0.7,0.9-1.5,1.1-2.4c0.2-0.9,0.2-1.8,0.1-2.6c-0.2-0.9-0.5-1.7-1-2.4c-0.5-0.7-1.1-1.4-1.8-1.9l-18.3-12.8
				c-0.7-0.5-1.5-0.9-2.4-1.1C132.2-58.9,131.3-58.9,130.4-58.8L130.4-58.8z"/>
		</g>
	</g>
	<g>
		<defs>
			<rect id="SVGID_00000156587249110968637030000005233728931806465430_" x="587.9" y="-8.6" width="56.1" height="56.1"/>
		</defs>
		<clipPath id="SVGID_00000162353577196199187950000016115265207031173054_">
			<use xlink:href="#SVGID_00000156587249110968637030000005233728931806465430_"  style="overflow:visible;"/>
		</clipPath>
		<g style="clip-path:url(#SVGID_00000162353577196199187950000016115265207031173054_);">
			<path class="st17" d="M621.5-5.3c0.4,0,0.9,0.1,1.3,0.3c0.4,0.2,0.8,0.4,1.1,0.7l15.8,15.8c0.3,0.3,0.6,0.7,0.7,1.1
				c0.2,0.4,0.3,0.8,0.3,1.3c0,0.4-0.1,0.9-0.3,1.3c-0.2,0.4-0.4,0.8-0.7,1.1l-26.8,26.8c-0.3,0.3-0.7,0.6-1.1,0.7
				c-0.4,0.2-0.8,0.3-1.3,0.3s-0.9-0.1-1.3-0.3c-0.4-0.2-0.8-0.4-1.1-0.7l-15.8-15.8c-0.3-0.3-0.6-0.7-0.7-1.1
				c-0.2-0.4-0.3-0.8-0.3-1.3c0-0.4,0.1-0.9,0.3-1.3c0.2-0.4,0.4-0.8,0.7-1.1l26.8-26.8C619.8-5,620.6-5.3,621.5-5.3L621.5-5.3z"/>
			<path class="st4" d="M610.4,40.8L594.6,25l26.8-26.8l15.9,15.8L610.4,40.8L610.4,40.8z M610.5,47.5c1.8,0,3.5-0.7,4.7-2
				l26.8-26.8c0.6-0.6,1.1-1.4,1.5-2.2c0.3-0.8,0.5-1.7,0.5-2.6c0-0.9-0.2-1.8-0.5-2.6c-0.3-0.8-0.8-1.6-1.5-2.2L626.3-6.7
				c-0.6-0.6-1.4-1.1-2.2-1.5c-0.8-0.3-1.7-0.5-2.6-0.5c-0.9,0-1.8,0.2-2.6,0.5c-0.8,0.3-1.6,0.8-2.2,1.5L590,20.2
				c-0.6,0.6-1.1,1.4-1.5,2.2c-0.3,0.8-0.5,1.7-0.5,2.6c0,0.9,0.2,1.8,0.5,2.6c0.3,0.8,0.8,1.6,1.5,2.2l15.8,15.8
				c0.6,0.6,1.4,1.1,2.2,1.5C608.8,47.3,609.7,47.5,610.5,47.5L610.5,47.5z"/>
		</g>
	</g>
	<g>
		<defs>
			
				<rect id="SVGID_00000152231750070980440220000008778681044830788543_" x="1196.1" y="-46.1" transform="matrix(0.5 -0.866 0.866 0.5 627.6374 1051.1332)" width="56.1" height="56.1"/>
		</defs>
		<clipPath id="SVGID_00000170264947210014996880000001191034559504539266_">
			<use xlink:href="#SVGID_00000152231750070980440220000008778681044830788543_"  style="overflow:visible;"/>
		</clipPath>
		<g style="clip-path:url(#SVGID_00000170264947210014996880000001191034559504539266_);">
			<path class="st17" d="M1242.8-0.8c-0.2,0.4-0.5,0.7-0.9,1c-0.4,0.3-0.7,0.5-1.2,0.6l-21.6,5.8c-0.4,0.1-0.9,0.1-1.3,0.1
				c-0.4-0.1-0.9-0.2-1.2-0.4c-0.4-0.2-0.7-0.5-1-0.9c-0.3-0.4-0.5-0.8-0.6-1.2l-9.8-36.7c-0.1-0.4-0.1-0.9-0.1-1.3s0.2-0.9,0.4-1.2
				c0.2-0.4,0.5-0.7,0.9-1c0.4-0.3,0.7-0.5,1.2-0.6l21.6-5.8c0.4-0.1,0.9-0.1,1.3-0.1c0.4,0.1,0.9,0.2,1.2,0.4
				c0.4,0.2,0.7,0.5,1,0.9c0.3,0.4,0.5,0.8,0.6,1.2l9.8,36.7C1243.4-2.5,1243.2-1.6,1242.8-0.8L1242.8-0.8z"/>
			<path class="st4" d="M1208.4-33.5l21.6-5.8l9.8,36.7l-21.6,5.9l-9.8-36.7V-33.5z M1202.6-36.7c-0.9,1.5-1.1,3.4-0.7,5.1l9.8,36.7
				c0.2,0.9,0.6,1.7,1.2,2.4c0.5,0.7,1.2,1.3,2,1.7c0.8,0.4,1.6,0.7,2.5,0.8c0.9,0.1,1.8,0.1,2.6-0.2l21.6-5.8
				c0.9-0.2,1.7-0.6,2.4-1.2c0.7-0.5,1.3-1.2,1.7-2c0.4-0.8,0.7-1.6,0.8-2.5c0.1-0.9,0.1-1.8-0.2-2.6l-9.8-36.7
				c-0.2-0.9-0.6-1.7-1.2-2.4c-0.5-0.7-1.2-1.3-2-1.7c-0.8-0.4-1.6-0.7-2.5-0.8c-0.9-0.1-1.8-0.1-2.6,0.2l-21.6,5.8
				c-0.9,0.2-1.7,0.6-2.4,1.2C1203.6-38.1,1203-37.5,1202.6-36.7L1202.6-36.7z"/>
		</g>
	</g>
	<g>
		<defs>
			
				<rect id="SVGID_00000062886463183406034480000014644679336532621211_" x="26.2" y="269.5" transform="matrix(0.9848 -0.1736 0.1736 0.9848 -50.8428 13.936)" width="56.1" height="56.1"/>
		</defs>
		<clipPath id="SVGID_00000097458449886062086810000006568761640914662816_">
			<use xlink:href="#SVGID_00000062886463183406034480000014644679336532621211_"  style="overflow:visible;"/>
		</clipPath>
		<g style="clip-path:url(#SVGID_00000097458449886062086810000006568761640914662816_);">
			<path class="st3" d="M79.5,298.7c0.1,0.4,0.1,0.9,0,1.3c-0.1,0.4-0.3,0.8-0.5,1.2l-12.8,18.3c-0.3,0.4-0.6,0.7-0.9,0.9
				c-0.4,0.2-0.8,0.4-1.2,0.5c-0.4,0.1-0.9,0.1-1.3,0c-0.4-0.1-0.8-0.3-1.2-0.5l-31.1-21.8c-0.4-0.3-0.7-0.6-0.9-0.9
				c-0.2-0.4-0.4-0.8-0.5-1.2c-0.1-0.4-0.1-0.9,0-1.3c0.1-0.4,0.3-0.8,0.5-1.2l12.8-18.3c0.3-0.4,0.6-0.7,0.9-0.9
				c0.4-0.2,0.8-0.4,1.2-0.5c0.4-0.1,0.9-0.1,1.3,0c0.4,0.1,0.8,0.3,1.2,0.5l31.1,21.8C78.9,297,79.4,297.8,79.5,298.7L79.5,298.7z"
				/>
			<path class="st4" d="M32.2,295.8l12.8-18.3l31.1,21.8l-12.8,18.4L32.2,295.8L32.2,295.8z M25.7,297c0.3,1.8,1.3,3.3,2.8,4.3
				l31.1,21.8c0.7,0.5,1.5,0.9,2.4,1.1c0.9,0.2,1.8,0.2,2.6,0.1c0.9-0.2,1.7-0.5,2.4-1c0.7-0.5,1.4-1.1,1.9-1.8l12.8-18.3
				c0.5-0.7,0.9-1.5,1.1-2.4c0.2-0.9,0.2-1.8,0.1-2.6c-0.2-0.9-0.5-1.7-1-2.4c-0.5-0.7-1.1-1.4-1.8-1.9L49,272
				c-0.7-0.5-1.5-0.9-2.4-1.1c-0.9-0.2-1.8-0.2-2.6-0.1c-0.9,0.2-1.7,0.5-2.4,0.9c-0.7,0.5-1.4,1.1-1.9,1.8L26.8,292
				c-0.5,0.7-0.9,1.5-1.1,2.4C25.5,295.3,25.5,296.2,25.7,297L25.7,297z"/>
		</g>
	</g>
	<g>
		<defs>
			<rect id="SVGID_00000084503978392304323750000009199085430024580753_" x="129.1" y="30.6" width="56.1" height="56.1"/>
		</defs>
		<clipPath id="SVGID_00000072977224346540230150000010587880179747019959_">
			<use xlink:href="#SVGID_00000084503978392304323750000009199085430024580753_"  style="overflow:visible;"/>
		</clipPath>
		<g style="clip-path:url(#SVGID_00000072977224346540230150000010587880179747019959_);">
			<path class="st3" d="M151.6,83.4c-0.4,0-0.9-0.1-1.3-0.3c-0.4-0.2-0.8-0.4-1.1-0.7l-15.8-15.8c-0.3-0.3-0.6-0.7-0.7-1.1
				c-0.2-0.4-0.3-0.8-0.3-1.3c0-0.4,0.1-0.9,0.3-1.3c0.2-0.4,0.4-0.8,0.7-1.1L160.3,35c0.3-0.3,0.7-0.6,1.1-0.7
				c0.4-0.2,0.8-0.3,1.3-0.3s0.9,0.1,1.3,0.3c0.4,0.2,0.8,0.4,1.1,0.7l15.8,15.8c0.3,0.3,0.6,0.7,0.7,1.1c0.2,0.4,0.3,0.8,0.3,1.3
				c0,0.4-0.1,0.9-0.3,1.3c-0.2,0.4-0.4,0.8-0.7,1.1L154,82.4C153.4,83.1,152.5,83.4,151.6,83.4L151.6,83.4z"/>
			<path class="st4" d="M162.7,37.3l15.8,15.8L151.7,80l-15.9-15.8L162.7,37.3L162.7,37.3z M162.6,30.7c-1.8,0-3.5,0.7-4.7,2
				L131,59.5c-0.6,0.6-1.1,1.4-1.5,2.2c-0.3,0.8-0.5,1.7-0.5,2.6c0,0.9,0.2,1.8,0.5,2.6c0.3,0.8,0.8,1.6,1.5,2.2l15.8,15.8
				c0.6,0.6,1.4,1.1,2.2,1.5c0.8,0.3,1.7,0.5,2.6,0.5c0.9,0,1.8-0.2,2.6-0.5c0.8-0.3,1.6-0.8,2.2-1.5l26.8-26.8
				c0.6-0.6,1.1-1.4,1.5-2.2c0.3-0.8,0.5-1.7,0.5-2.6c0-0.9-0.2-1.8-0.5-2.6c-0.3-0.8-0.8-1.6-1.5-2.2l-15.8-15.8
				c-0.6-0.6-1.4-1.1-2.2-1.5C164.3,30.8,163.5,30.7,162.6,30.7L162.6,30.7z"/>
		</g>
	</g>
	<g>
		<defs>
			
				<rect id="SVGID_00000103972228756217757920000008531192520872424864_" x="846" y="-11.4" transform="matrix(0.1736 -0.9848 0.9848 0.1736 705.8104 874.5388)" width="56.1" height="56.1"/>
		</defs>
		<clipPath id="SVGID_00000090286574343444291060000007816304355026403977_">
			<use xlink:href="#SVGID_00000103972228756217757920000008531192520872424864_"  style="overflow:visible;"/>
		</clipPath>
		<g style="clip-path:url(#SVGID_00000090286574343444291060000007816304355026403977_);">
			<path class="st3" d="M850.6,7c0.1-0.4,0.2-0.9,0.5-1.2c0.2-0.4,0.5-0.7,0.9-0.9l18.3-12.8c0.4-0.3,0.8-0.4,1.2-0.5
				c0.4-0.1,0.9-0.1,1.3,0s0.9,0.2,1.2,0.5c0.4,0.2,0.7,0.5,0.9,0.9l21.8,31.1c0.3,0.4,0.4,0.8,0.5,1.2c0.1,0.4,0.1,0.9,0,1.3
				c-0.1,0.4-0.2,0.9-0.5,1.2c-0.2,0.4-0.5,0.7-0.9,0.9l-18.3,12.8c-0.4,0.3-0.8,0.4-1.2,0.5c-0.4,0.1-0.9,0.1-1.3,0
				c-0.4-0.1-0.9-0.2-1.2-0.5c-0.4-0.2-0.7-0.5-0.9-0.9L851.2,9.5C850.7,8.7,850.5,7.8,850.6,7L850.6,7z"/>
			<path class="st4" d="M894.1,25.9l-18.3,12.8L854,7.6l18.3-12.9L894.1,25.9L894.1,25.9z M900.7,26.9c0.3-1.8-0.1-3.6-1.1-5
				L877.8-9.2c-0.5-0.7-1.1-1.3-1.9-1.8c-0.7-0.5-1.6-0.8-2.4-1c-0.9-0.2-1.8-0.1-2.6,0.1c-0.9,0.2-1.7,0.6-2.4,1.1L850.1,2
				c-0.7,0.5-1.3,1.1-1.8,1.9c-0.5,0.7-0.8,1.6-0.9,2.4c-0.2,0.9-0.1,1.8,0.1,2.6c0.2,0.9,0.6,1.7,1.1,2.4l21.8,31.1
				c0.5,0.7,1.1,1.3,1.9,1.8c0.7,0.5,1.6,0.8,2.4,1c0.9,0.2,1.8,0.1,2.6-0.1c0.9-0.2,1.7-0.6,2.4-1.1l18.3-12.8
				c0.7-0.5,1.3-1.1,1.8-1.9C900.2,28.6,900.5,27.8,900.7,26.9L900.7,26.9z"/>
		</g>
	</g>
	<g>
		<defs>
			
				<rect id="SVGID_00000158710743456374004450000012348066141400928680_" x="358.6" y="-17.1" transform="matrix(0.5 -0.866 0.866 0.5 183.8053 340.3422)" width="56.1" height="56.1"/>
		</defs>
		<clipPath id="SVGID_00000103264098682437270840000018335894481194570374_">
			<use xlink:href="#SVGID_00000158710743456374004450000012348066141400928680_"  style="overflow:visible;"/>
		</clipPath>
		<g style="clip-path:url(#SVGID_00000103264098682437270840000018335894481194570374_);">
			<path class="st7" d="M405.3,28.1c-0.2,0.4-0.5,0.7-0.9,1c-0.4,0.3-0.8,0.5-1.2,0.6l-21.6,5.8c-0.4,0.1-0.9,0.1-1.3,0.1
				c-0.4-0.1-0.9-0.2-1.2-0.4c-0.4-0.2-0.7-0.5-1-0.9c-0.3-0.4-0.5-0.8-0.6-1.2l-9.8-36.7c-0.1-0.4-0.1-0.9-0.1-1.3
				c0.1-0.4,0.2-0.9,0.4-1.2c0.2-0.4,0.5-0.7,0.9-1c0.3-0.3,0.8-0.5,1.2-0.6l21.6-5.8c0.4-0.1,0.9-0.1,1.3-0.1
				c0.4,0.1,0.9,0.2,1.2,0.4c0.4,0.2,0.7,0.5,1,0.9c0.3,0.4,0.5,0.8,0.6,1.2l9.8,36.7C405.9,26.5,405.8,27.4,405.3,28.1L405.3,28.1z
				"/>
			<path class="st4" d="M370.9-4.5l21.6-5.8l9.8,36.7l-21.6,5.9L370.9-4.5L370.9-4.5z M365.1-7.7c-0.9,1.5-1.1,3.4-0.7,5.1l9.8,36.7
				c0.2,0.9,0.6,1.7,1.2,2.4c0.5,0.7,1.2,1.3,2,1.7c0.8,0.4,1.6,0.7,2.5,0.8c0.9,0.1,1.8,0.1,2.6-0.2l21.6-5.8
				c0.9-0.2,1.7-0.6,2.4-1.2c0.7-0.5,1.3-1.2,1.7-2c0.4-0.8,0.7-1.6,0.8-2.5c0.1-0.9,0.1-1.8-0.2-2.6L399-11.9
				c-0.2-0.9-0.6-1.7-1.2-2.4c-0.5-0.7-1.2-1.3-2-1.7c-0.8-0.4-1.6-0.7-2.5-0.8c-0.9-0.1-1.8-0.1-2.6,0.2l-21.6,5.8
				c-0.9,0.2-1.7,0.6-2.4,1.2C366.1-9.2,365.5-8.5,365.1-7.7L365.1-7.7z"/>
		</g>
	</g>
	<g>
		<defs>
			
				<rect id="SVGID_00000134964727494065914690000013015263970614882213_" x="123.7" y="328.1" transform="matrix(0.342 -0.9397 0.9397 0.342 -234.7818 376.994)" width="56.1" height="56.1"/>
		</defs>
		<clipPath id="SVGID_00000116208358857803742050000013388164657589452419_">
			<use xlink:href="#SVGID_00000134964727494065914690000013015263970614882213_"  style="overflow:visible;"/>
		</clipPath>
		<g style="clip-path:url(#SVGID_00000116208358857803742050000013388164657589452419_);">
			<path class="st7" d="M165.5,334.8c0.4,0.1,0.8,0.4,1.1,0.7s0.6,0.7,0.8,1.1l9.5,20.3c0.2,0.4,0.3,0.8,0.3,1.3
				c0,0.4,0,0.9-0.2,1.3c-0.2,0.4-0.4,0.8-0.7,1.1c-0.3,0.3-0.7,0.6-1.1,0.8l-34.4,16c-0.4,0.2-0.8,0.3-1.3,0.3
				c-0.4,0-0.9,0-1.3-0.2c-0.4-0.2-0.8-0.4-1.1-0.7c-0.3-0.3-0.6-0.7-0.8-1.1l-9.5-20.3c-0.2-0.4-0.3-0.8-0.3-1.3
				c0-0.4,0-0.9,0.2-1.3c0.2-0.4,0.4-0.8,0.7-1.1c0.3-0.3,0.7-0.6,1.1-0.8l34.4-16C163.7,334.5,164.6,334.5,165.5,334.8L165.5,334.8
				z"/>
			<path class="st4" d="M139.3,374.3l-9.5-20.3l34.4-16l9.6,20.3l-34.4,16L139.3,374.3z M137.1,380.6c1.7,0.6,3.5,0.5,5.1-0.2
				l34.4-16c0.8-0.4,1.5-0.9,2.1-1.5c0.6-0.7,1.1-1.4,1.4-2.2c0.3-0.8,0.4-1.7,0.4-2.6c0-0.9-0.3-1.7-0.6-2.5l-9.5-20.3
				c-0.4-0.8-0.9-1.5-1.5-2.1c-0.7-0.6-1.4-1.1-2.2-1.4c-0.8-0.3-1.7-0.4-2.6-0.4c-0.9,0-1.7,0.3-2.5,0.6l-34.4,16
				c-0.8,0.4-1.5,0.9-2.1,1.5c-0.6,0.7-1.1,1.4-1.4,2.2c-0.3,0.8-0.4,1.7-0.4,2.6c0,0.9,0.3,1.7,0.6,2.5l9.5,20.3
				c0.4,0.8,0.9,1.5,1.6,2.1C135.5,379.9,136.3,380.3,137.1,380.6L137.1,380.6z"/>
		</g>
	</g>
	<g>
		<defs>
			<rect id="SVGID_00000002385895913942725690000002435856996893722298_" x="194.9" y="104.9" width="56.1" height="56.1"/>
		</defs>
		<clipPath id="SVGID_00000006692605528521060890000013646757050564513974_">
			<use xlink:href="#SVGID_00000002385895913942725690000002435856996893722298_"  style="overflow:visible;"/>
		</clipPath>
		<g style="clip-path:url(#SVGID_00000006692605528521060890000013646757050564513974_);">
			<path class="st10" d="M247.7,138.5c0,0.4-0.1,0.9-0.3,1.3c-0.2,0.4-0.4,0.8-0.7,1.1l-15.8,15.8c-0.3,0.3-0.7,0.6-1.1,0.7
				s-0.8,0.3-1.3,0.3c-0.4,0-0.9-0.1-1.3-0.3c-0.4-0.2-0.8-0.4-1.1-0.7l-26.8-26.8c-0.3-0.3-0.6-0.7-0.7-1.1
				c-0.2-0.4-0.3-0.8-0.3-1.3s0.1-0.9,0.3-1.3c0.2-0.4,0.4-0.8,0.7-1.1l15.8-15.8c0.3-0.3,0.7-0.6,1.1-0.7c0.4-0.2,0.8-0.3,1.3-0.3
				s0.9,0.1,1.3,0.3c0.4,0.2,0.8,0.4,1.1,0.7l26.8,26.8C247.4,136.8,247.7,137.6,247.7,138.5L247.7,138.5z"/>
			<path class="st4" d="M201.6,127.5l15.8-15.8l26.8,26.8l-15.8,15.9L201.6,127.5L201.6,127.5z M195,127.6c0,1.8,0.7,3.5,2,4.7
				l26.8,26.8c0.6,0.6,1.4,1.1,2.2,1.5s1.7,0.5,2.6,0.5s1.8-0.2,2.6-0.5c0.8-0.3,1.6-0.8,2.2-1.5l15.8-15.8c0.6-0.6,1.1-1.4,1.5-2.2
				c0.3-0.8,0.5-1.7,0.5-2.6c0-0.9-0.2-1.8-0.5-2.6s-0.8-1.6-1.5-2.2L222.3,107c-0.6-0.6-1.4-1.1-2.2-1.5c-0.8-0.3-1.7-0.5-2.6-0.5
				c-0.9,0-1.8,0.2-2.6,0.5c-0.8,0.3-1.6,0.8-2.2,1.5l-15.8,15.8c-0.6,0.6-1.1,1.4-1.5,2.2C195.1,125.8,195,126.7,195,127.6z"/>
		</g>
	</g>
	<g>
		<defs>
			<rect id="SVGID_00000087411951799224456250000016405743261261554340_" x="473.6" y="-42.7" width="56.1" height="56.1"/>
		</defs>
		<clipPath id="SVGID_00000023970395160616735330000013285488629597947042_">
			<use xlink:href="#SVGID_00000087411951799224456250000016405743261261554340_"  style="overflow:visible;"/>
		</clipPath>
		<g style="clip-path:url(#SVGID_00000023970395160616735330000013285488629597947042_);">
			<path class="st10" d="M526.4-9.1c0,0.4-0.1,0.9-0.3,1.3c-0.2,0.4-0.4,0.8-0.7,1.1L509.6,9.1c-0.3,0.3-0.7,0.6-1.1,0.7
				c-0.4,0.2-0.8,0.3-1.3,0.3s-0.9-0.1-1.3-0.3c-0.4-0.2-0.8-0.4-1.1-0.7L478-17.7c-0.3-0.3-0.6-0.7-0.7-1.1s-0.3-0.8-0.3-1.3
				s0.1-0.9,0.3-1.3c0.2-0.4,0.4-0.8,0.7-1.1l15.8-15.8c0.3-0.3,0.7-0.6,1.1-0.7c0.4-0.2,0.8-0.3,1.3-0.3c0.4,0,0.9,0.1,1.3,0.3
				c0.4,0.2,0.8,0.4,1.1,0.7l26.8,26.8C526-10.8,526.4-10,526.4-9.1L526.4-9.1z"/>
			<path class="st4" d="M480.3-20.1L496.1-36L523-9.1L507.2,6.8L480.3-20.1L480.3-20.1z M473.6-20.1c0,1.8,0.7,3.5,2,4.7l26.8,26.8
				c0.6,0.6,1.4,1.1,2.2,1.5c0.8,0.3,1.7,0.5,2.6,0.5c0.9,0,1.8-0.2,2.6-0.5c0.8-0.3,1.6-0.8,2.2-1.5l15.8-15.8
				c0.6-0.6,1.1-1.4,1.5-2.2c0.3-0.8,0.5-1.7,0.5-2.6c0-0.9-0.2-1.8-0.5-2.6c-0.3-0.8-0.8-1.6-1.5-2.2l-26.8-26.8
				c-0.6-0.6-1.4-1.1-2.2-1.5c-0.8-0.3-1.7-0.5-2.6-0.5s-1.8,0.2-2.6,0.5c-0.8,0.3-1.6,0.8-2.2,1.5l-15.8,15.8
				c-0.6,0.6-1.1,1.4-1.5,2.2C473.8-21.8,473.6-20.9,473.6-20.1z"/>
		</g>
	</g>
	<g>
		<defs>
			
				<rect id="SVGID_00000041274979208074857330000005087837983314536350_" x="241.3" y="-8.7" transform="matrix(0.9848 -0.1736 0.1736 0.9848 0.7266 47.0661)" width="56.1" height="56.1"/>
		</defs>
		<clipPath id="SVGID_00000088111239784174712020000013998139133959765437_">
			<use xlink:href="#SVGID_00000041274979208074857330000005087837983314536350_"  style="overflow:visible;"/>
		</clipPath>
		<g style="clip-path:url(#SVGID_00000088111239784174712020000013998139133959765437_);">
			<path class="st13" d="M294.7,20.5c0.1,0.4,0.1,0.9,0,1.3c-0.1,0.4-0.3,0.8-0.5,1.2l-12.8,18.3c-0.3,0.4-0.6,0.7-0.9,0.9
				c-0.4,0.2-0.8,0.4-1.2,0.5c-0.4,0.1-0.9,0.1-1.3,0c-0.4-0.1-0.8-0.3-1.2-0.5l-31.1-21.8c-0.4-0.3-0.7-0.6-0.9-0.9
				c-0.2-0.4-0.4-0.8-0.5-1.2c-0.1-0.4-0.1-0.9,0-1.3c0.1-0.4,0.3-0.8,0.5-1.2l12.8-18.3c0.3-0.4,0.6-0.7,0.9-0.9
				c0.4-0.2,0.8-0.4,1.2-0.5c0.4-0.1,0.9-0.1,1.3,0c0.4,0.1,0.8,0.3,1.2,0.5l31.1,21.8C294,18.9,294.5,19.7,294.7,20.5L294.7,20.5z"
				/>
			<path class="st4" d="M247.4,17.6l12.8-18.3l31.1,21.8l-12.8,18.4L247.4,17.6L247.4,17.6z M240.8,18.9c0.3,1.8,1.3,3.3,2.8,4.3
				L274.7,45c0.7,0.5,1.5,0.9,2.4,1.1c0.9,0.2,1.8,0.2,2.6,0.1c0.9-0.2,1.7-0.5,2.4-1c0.7-0.5,1.4-1.1,1.9-1.8L296.9,25
				c0.5-0.7,0.9-1.5,1.1-2.4c0.2-0.9,0.2-1.8,0.1-2.6c-0.2-0.9-0.5-1.7-1-2.4c-0.5-0.7-1.1-1.4-1.8-1.9L264.1-6.1
				c-0.7-0.5-1.5-0.9-2.4-1.1c-0.9-0.2-1.8-0.2-2.6-0.1c-0.9,0.2-1.7,0.5-2.4,1c-0.7,0.5-1.4,1.1-1.9,1.8l-12.8,18.3
				c-0.5,0.7-0.9,1.5-1.1,2.4C240.7,17.1,240.7,18,240.8,18.9z"/>
		</g>
	</g>
	<g>
		<defs>
			
				<rect id="SVGID_00000075160065209811464750000006081160390436353978_" x="718.8" y="-38.2" transform="matrix(0.9397 -0.342 0.342 0.9397 48.4888 254.8245)" width="56.1" height="56.1"/>
		</defs>
		<clipPath id="SVGID_00000100372314840297279080000006754211196819991999_">
			<use xlink:href="#SVGID_00000075160065209811464750000006081160390436353978_"  style="overflow:visible;"/>
		</clipPath>
		<g style="clip-path:url(#SVGID_00000100372314840297279080000006754211196819991999_);">
			<path class="st13" d="M750.1,15c-0.4,0.2-0.9,0.2-1.3,0.2c-0.4,0-0.9-0.1-1.3-0.3l-20.3-9.4c-0.4-0.2-0.8-0.4-1.1-0.8
				c-0.3-0.3-0.5-0.7-0.7-1.1c-0.2-0.4-0.2-0.9-0.2-1.3c0-0.4,0.1-0.9,0.3-1.3l16-34.4c0.2-0.4,0.5-0.8,0.8-1.1
				c0.3-0.3,0.7-0.5,1.1-0.7c0.4-0.2,0.9-0.2,1.3-0.2c0.4,0,0.9,0.1,1.3,0.3l20.3,9.5c0.4,0.2,0.8,0.4,1.1,0.8
				c0.3,0.3,0.5,0.7,0.7,1.1c0.2,0.4,0.2,0.9,0.2,1.3c0,0.4-0.1,0.9-0.3,1.3l-16,34.4C751.6,14.1,750.9,14.7,750.1,15L750.1,15z"/>
			<path class="st4" d="M744.7-32l20.3,9.5l-16,34.4l-20.4-9.4L744.7-32L744.7-32z M742.4-38.3c-1.7,0.6-3,1.9-3.8,3.5l-16,34.4
				c-0.4,0.8-0.6,1.7-0.6,2.5c0,0.9,0.1,1.8,0.4,2.6c0.3,0.8,0.8,1.6,1.4,2.2c0.6,0.7,1.3,1.2,2.1,1.5l20.3,9.5
				c0.8,0.4,1.7,0.6,2.5,0.6c0.9,0,1.8-0.1,2.6-0.4c0.8-0.3,1.6-0.8,2.2-1.4c0.7-0.6,1.2-1.3,1.5-2.1l16-34.4
				c0.4-0.8,0.6-1.7,0.6-2.5c0-0.9-0.1-1.8-0.4-2.6c-0.3-0.8-0.8-1.6-1.4-2.2c-0.6-0.7-1.3-1.2-2.1-1.5l-20.3-9.5
				c-0.8-0.4-1.7-0.6-2.5-0.6S743.2-38.6,742.4-38.3z"/>
		</g>
	</g>
	<g>
		<defs>
			<rect id="SVGID_00000177457169096600876060000016597793939967405983_" x="30.8" y="120.3" width="56.1" height="56.1"/>
		</defs>
		<clipPath id="SVGID_00000081614852615146022320000004565566971622941366_">
			<use xlink:href="#SVGID_00000177457169096600876060000016597793939967405983_"  style="overflow:visible;"/>
		</clipPath>
		<g style="clip-path:url(#SVGID_00000081614852615146022320000004565566971622941366_);">
			<path class="st13" d="M53.3,173.1c-0.4,0-0.9-0.1-1.3-0.3c-0.4-0.2-0.8-0.4-1.1-0.7l-15.8-15.8c-0.3-0.3-0.6-0.7-0.7-1.1
				c-0.2-0.4-0.3-0.8-0.3-1.3s0.1-0.9,0.3-1.3c0.2-0.4,0.4-0.8,0.7-1.1l26.8-26.8c0.3-0.3,0.7-0.6,1.1-0.7c0.4-0.2,0.8-0.3,1.3-0.3
				c0.4,0,0.9,0.1,1.3,0.3c0.4,0.2,0.8,0.4,1.1,0.7l15.8,15.8c0.3,0.3,0.6,0.7,0.7,1.1c0.2,0.4,0.3,0.8,0.3,1.3
				c0,0.4-0.1,0.9-0.3,1.3c-0.2,0.4-0.4,0.8-0.7,1.1l-26.8,26.8C55,172.8,54.2,173.1,53.3,173.1L53.3,173.1z"/>
			<path class="st4" d="M64.4,127l15.8,15.8l-26.8,26.8l-15.9-15.8L64.4,127L64.4,127z M64.3,120.3c-1.8,0-3.5,0.7-4.7,2l-26.8,26.8
				c-0.6,0.6-1.1,1.4-1.5,2.2c-0.3,0.8-0.5,1.7-0.5,2.6c0,0.9,0.2,1.8,0.5,2.6c0.3,0.8,0.8,1.6,1.5,2.2l15.8,15.8
				c0.6,0.6,1.4,1.1,2.2,1.5c0.8,0.3,1.7,0.5,2.6,0.5c0.9,0,1.8-0.2,2.6-0.5c0.8-0.3,1.6-0.8,2.2-1.5l26.8-26.8
				c0.6-0.6,1.1-1.4,1.5-2.2s0.5-1.7,0.5-2.6c0-0.9-0.2-1.8-0.5-2.6s-0.8-1.6-1.5-2.2L69,122.3c-0.6-0.6-1.4-1.1-2.2-1.5
				C66,120.5,65.2,120.3,64.3,120.3z"/>
		</g>
	</g>
	<g>
		<defs>
			<rect id="SVGID_00000145764895796786471690000008745319713979799434_" x="21.4" y="-2.2" width="56.1" height="56.1"/>
		</defs>
		<clipPath id="SVGID_00000013157718667507921130000015922305740905259930_">
			<use xlink:href="#SVGID_00000145764895796786471690000008745319713979799434_"  style="overflow:visible;"/>
		</clipPath>
		<g style="clip-path:url(#SVGID_00000013157718667507921130000015922305740905259930_);">
			<path class="st7" d="M74.2,31.4c0,0.4-0.1,0.9-0.3,1.3c-0.2,0.4-0.4,0.8-0.7,1.1L57.4,49.6c-0.3,0.3-0.7,0.6-1.1,0.7
				c-0.4,0.2-0.8,0.3-1.3,0.3s-0.9-0.1-1.3-0.3c-0.4-0.2-0.8-0.4-1.1-0.7L25.8,22.8c-0.3-0.3-0.6-0.7-0.7-1.1
				c-0.2-0.4-0.3-0.8-0.3-1.3s0.1-0.9,0.3-1.3c0.2-0.4,0.4-0.8,0.7-1.1L41.6,2.2c0.3-0.3,0.7-0.6,1.1-0.7c0.4-0.2,0.8-0.3,1.3-0.3
				s0.9,0.1,1.3,0.3c0.4,0.2,0.8,0.4,1.1,0.7L73.2,29C73.9,29.7,74.2,30.5,74.2,31.4L74.2,31.4z"/>
			<path class="st4" d="M28.1,20.4L43.9,4.5l26.8,26.8L55,47.3L28.1,20.4L28.1,20.4z M21.4,20.4c0,1.8,0.7,3.5,2,4.7L50.3,52
				c0.6,0.6,1.4,1.1,2.2,1.5c0.8,0.3,1.7,0.5,2.6,0.5c0.9,0,1.8-0.2,2.6-0.5c0.8-0.3,1.6-0.8,2.2-1.5l15.8-15.8
				c0.6-0.6,1.1-1.4,1.5-2.2c0.3-0.8,0.5-1.7,0.5-2.6s-0.2-1.8-0.5-2.6c-0.3-0.8-0.8-1.6-1.5-2.2L48.7-0.1c-0.6-0.6-1.4-1.1-2.2-1.5
				c-0.8-0.3-1.7-0.5-2.6-0.5c-0.9,0-1.8,0.2-2.6,0.5c-0.8,0.3-1.6,0.8-2.2,1.5L23.4,15.7c-0.6,0.6-1.1,1.4-1.5,2.2
				C21.6,18.7,21.4,19.6,21.4,20.4L21.4,20.4z"/>
		</g>
	</g>
	<g>
		<defs>
			<rect id="SVGID_00000137134196035970462780000006498248474485229961_" x="54.2" y="430.4" width="56.1" height="56.1"/>
		</defs>
		<clipPath id="SVGID_00000108276522370912972870000006882232174037799312_">
			<use xlink:href="#SVGID_00000137134196035970462780000006498248474485229961_"  style="overflow:visible;"/>
		</clipPath>
		<g style="clip-path:url(#SVGID_00000108276522370912972870000006882232174037799312_);">
			<path class="st17" d="M87.8,433.8c0.4,0,0.9,0.1,1.3,0.3c0.4,0.2,0.8,0.4,1.1,0.7l15.8,15.8c0.3,0.3,0.6,0.7,0.7,1.1
				c0.2,0.4,0.3,0.8,0.3,1.3c0,0.4-0.1,0.9-0.3,1.3c-0.2,0.4-0.4,0.8-0.7,1.1l-26.8,26.8c-0.3,0.3-0.7,0.6-1.1,0.7
				c-0.4,0.2-0.8,0.3-1.3,0.3c-0.4,0-0.9-0.1-1.3-0.3c-0.4-0.2-0.8-0.4-1.1-0.7l-15.8-15.8c-0.3-0.3-0.6-0.7-0.7-1.1
				c-0.2-0.4-0.3-0.8-0.3-1.3c0-0.4,0.1-0.9,0.3-1.3c0.2-0.4,0.4-0.8,0.7-1.1l26.8-26.8C86,434.1,86.9,433.8,87.8,433.8L87.8,433.8z
				"/>
			<path class="st4" d="M76.7,479.9L60.9,464l26.8-26.8l15.9,15.8L76.7,479.9L76.7,479.9z M76.8,486.5c1.8,0,3.5-0.7,4.7-2
				l26.8-26.8c0.6-0.6,1.1-1.4,1.5-2.2c0.3-0.8,0.5-1.7,0.5-2.6c0-0.9-0.2-1.8-0.5-2.6c-0.3-0.8-0.8-1.6-1.5-2.2l-15.8-15.8
				c-0.6-0.6-1.4-1.1-2.2-1.5c-0.8-0.3-1.7-0.5-2.6-0.5s-1.8,0.2-2.6,0.5c-0.8,0.3-1.6,0.8-2.2,1.5l-26.8,26.8
				c-0.6,0.6-1.1,1.4-1.5,2.2c-0.3,0.8-0.5,1.7-0.5,2.6c0,0.9,0.2,1.8,0.5,2.6c0.3,0.8,0.8,1.6,1.5,2.2l15.8,15.8
				c0.6,0.6,1.4,1.1,2.2,1.5C75.1,486.4,75.9,486.5,76.8,486.5L76.8,486.5z"/>
		</g>
	</g>
</g>
</svg>
