<?xml version="1.0" encoding="UTF-8"?>
<svg id="Layer_1" xmlns="http://www.w3.org/2000/svg" version="1.1" viewBox="0 0 288.3 192.8">
  <!-- Generator: Adobe Illustrator 30.4.0, SVG Export Plug-In . SVG Version: 2.1.4 Build 226)  -->
  <defs>
    <style>
      .st0 {
        fill: #f89d81;
      }

      .st1 {
        stroke-dasharray: 2 6.9;
      }

      .st1, .st2, .st3, .st4, .st5, .st6, .st7 {
        fill: none;
        stroke: #515979;
        stroke-linecap: round;
        stroke-linejoin: round;
      }

      .st1, .st2, .st3, .st5, .st6, .st7 {
        stroke-width: 3px;
      }

      .st2 {
        stroke-dasharray: 1.9 6.7;
      }

      .st8 {
        fill: #c7bcff;
        isolation: isolate;
        opacity: .5;
      }

      .st3 {
        stroke-dasharray: 2.1 7.3;
      }

      .st9 {
        fill: #fff;
      }

      .st10 {
        fill: #515979;
      }

      .st4 {
        stroke-width: 2px;
      }

      .st5 {
        stroke-dasharray: 1.9 6.7;
      }

      .st11 {
        fill: #ef7d7d;
      }

      .st6 {
        stroke-dasharray: 2 7.1;
      }
    </style>
  </defs>
  <path class="st8" d="M28.8,50.3l49.4,41.4,49.4-17.4,49.4-6.5,49.4,21.1,49.4-6.5v95.1H28.8V50.3Z"/>
  <path class="st11" d="M73.8,1H9.8c-2.2,0-4,1.8-4,4v14c0,2.2,1.8,4,4,4h64c2.2,0,4-1.8,4-4V5c0-2.2-1.8-4-4-4Z"/>
  <path class="st10" d="M73.8,2c1.7,0,3,1.3,3,3v14c0,1.7-1.3,3-3,3H9.8c-1.7,0-3-1.3-3-3V5c0-1.7,1.3-3,3-3h64ZM73.8,0H9.8c-2.8,0-5,2.2-5,5v14c0,2.8,2.2,5,5,5h64c2.8,0,5-2.2,5-5V5c0-2.8-2.2-5-5-5Z"/>
  <path class="st9" d="M14.3,10.5c-.4,0-.7.2-.9.5-.2.3-.3.7-.3,1.2,0,1.1.4,1.6,1.3,1.6s.5,0,.7-.1.5-.2.7-.3v1.3c-.5.2-1,.3-1.6.3-.9,0-1.5-.2-2-.8-.5-.5-.7-1.2-.7-2.2s.1-1.1.3-1.6c.2-.4.5-.8,1-1,.4-.2.9-.4,1.5-.4s1.2.1,1.8.4l-.5,1.2c-.2,0-.4-.2-.6-.2-.2,0-.4-.1-.7-.1ZM20,15l-.2-.6h0c-.1.2-.3.4-.5.5-.2.1-.5.2-.8.2-.5,0-.9-.1-1.1-.4-.3-.3-.4-.7-.4-1.2v-2.9h1.5v2.4c0,.3,0,.5.1.7,0,.1.2.2.4.2s.5-.1.6-.3c.1-.2.2-.6.2-1.1v-1.9h1.5v4.4h-1.2ZM24.9,10.5c.1,0,.3,0,.4,0h0s-.1,1.5-.1,1.5c-.1,0-.3,0-.5,0-.3,0-.6,0-.7.2-.2.2-.2.4-.2.7v2.2h-1.5v-4.4h1.1l.2.7h0c.1-.2.3-.4.5-.6.2-.1.5-.2.7-.2ZM28.7,10.5c.1,0,.3,0,.4,0h0s-.1,1.5-.1,1.5c-.1,0-.3,0-.5,0-.3,0-.6,0-.7.2-.2.2-.2.4-.2.7v2.2h-1.5v-4.4h1.1l.2.7h0c.1-.2.3-.4.5-.6.2-.1.5-.2.7-.2ZM31.9,15.1c-.7,0-1.3-.2-1.7-.6-.4-.4-.6-1-.6-1.7s.2-1.3.6-1.7c.4-.4.9-.6,1.6-.6s1.2.2,1.5.5c.4.3.5.8.5,1.5v.7h-2.7c0,.2.1.4.3.6.2.1.4.2.7.2s.5,0,.7,0c.2,0,.5-.1.7-.3v1.1c-.2.1-.5.2-.7.3-.3,0-.6,0-.9,0ZM31.8,11.5c-.2,0-.3,0-.5.2-.1.1-.2.3-.2.5h1.3c0-.2,0-.4-.2-.5-.1-.1-.3-.2-.5-.2ZM37.5,15v-2.4c0-.3,0-.5-.1-.7,0-.2-.2-.2-.4-.2s-.4.1-.6.3c-.1.2-.2.6-.2,1.1v1.9h-1.5v-4.4h1.2l.2.5h0c.1-.2.3-.4.5-.5.2-.1.5-.2.8-.2.5,0,.9.1,1.1.4.3.3.4.7.4,1.2v2.9h-1.5ZM42.2,13.9c.2,0,.5,0,.7-.2v1.1c-.2,0-.4.2-.6.2-.2,0-.4,0-.7,0-.5,0-.9-.1-1.1-.4-.2-.3-.3-.6-.3-1.2v-1.8h-.5v-.6l.7-.5.4-.9h1v.9h1.1v1.1h-1.1v1.7c0,.3.1.4.4.4ZM48.4,15l-1.2-4.1h0c0,.7,0,1.2,0,1.6v2.5h-1.4v-5.7h2.1l1.2,4.1h0l1.2-4.1h2.1v5.7h-1.4v-2.5c0-.1,0-.3,0-.4,0-.2,0-.5,0-1.2h0l-1.2,4.1h-1.5ZM57.8,12.8c0,.7-.2,1.3-.6,1.7-.4.4-.9.6-1.6.6s-1.2-.2-1.6-.6c-.4-.4-.6-1-.6-1.7s.2-1.3.6-1.7c.4-.4.9-.6,1.6-.6s.8,0,1.2.3c.3.2.6.5.8.8.2.3.3.7.3,1.2ZM54.9,12.8c0,.4,0,.7.2.9.1.2.3.3.5.3s.4,0,.5-.3c0-.2.1-.5.1-.9s0-.7-.1-.9c0-.2-.3-.3-.5-.3s-.4,0-.5.3c-.1.2-.2.5-.2.9ZM61.4,15v-2.4c0-.3,0-.5-.1-.7,0-.2-.2-.2-.4-.2s-.4.1-.6.3c-.1.2-.2.6-.2,1.1v1.9h-1.5v-4.4h1.2l.2.5h0c.1-.2.3-.4.5-.5.2-.1.5-.2.8-.2.5,0,.9.1,1.1.4.3.3.4.7.4,1.2v2.9h-1.5ZM66.2,13.9c.2,0,.5,0,.7-.2v1.1c-.2,0-.4.2-.6.2-.2,0-.4,0-.7,0-.5,0-.9-.1-1.1-.4-.2-.3-.3-.6-.3-1.2v-1.8h-.5v-.6l.7-.5.4-.9h1v.9h1.1v1.1h-1.1v1.7c0,.3.1.4.4.4ZM70.5,15v-2.4c0-.6-.2-.9-.5-.9s-.4.1-.6.3c-.1.2-.2.6-.2,1v1.9h-1.5v-6.1h1.5v.9c0,.4,0,.8,0,1.3h0c.1-.2.3-.4.5-.5.2,0,.4-.1.7-.1.5,0,.9.1,1.2.4.3.3.4.7.4,1.2v2.9h-1.5Z"/>
  <path class="st11" d="M135.8,1h-49c-2.2,0-4,1.8-4,4v14c0,2.2,1.8,4,4,4h49c2.2,0,4-1.8,4-4V5c0-2.2-1.8-4-4-4Z"/>
  <path class="st10" d="M135.8,2c1.7,0,3,1.3,3,3v14c0,1.7-1.3,3-3,3h-49c-1.7,0-3-1.3-3-3V5c0-1.7,1.3-3,3-3h49ZM135.8,0h-49c-2.8,0-5,2.2-5,5v14c0,2.8,2.2,5,5,5h49c2.8,0,5-2.2,5-5V5c0-2.8-2.2-5-5-5Z"/>
  <path class="st9" d="M88.5,15v-5.7h1.5v4.5h2.2v1.2h-3.7ZM95.9,15l-.3-.6h0c-.2.3-.4.4-.6.5-.2,0-.5.1-.8.1s-.7-.1-1-.4c-.2-.2-.4-.6-.4-1.1s.2-.8.5-1.1c.3-.2.8-.4,1.4-.4h.7c0-.5-.2-.6-.5-.6s-.7.1-1.2.3l-.4-1c.5-.3,1.2-.4,2-.4s1,.1,1.3.4c.3.3.5.7.5,1.2v2.9h-1.1ZM94.8,14c.2,0,.3,0,.5-.2.1-.1.2-.3.2-.5v-.3h-.4c-.5,0-.8.2-.8.6s.1.4.4.4ZM101.5,13.6c0,.5-.2.8-.5,1.1-.3.2-.8.4-1.4.4s-.6,0-.9,0c-.2,0-.5,0-.7-.2v-1.2c.2.1.5.2.8.3.3,0,.5.1.8.1.3,0,.5,0,.5-.2s0-.1-.1-.2c0,0-.4-.2-.8-.4-.4-.2-.7-.4-.9-.6-.2-.2-.2-.5-.2-.8s.2-.7.5-1c.3-.2.8-.3,1.3-.3s.6,0,.8,0c.3,0,.5.2.8.3l-.4,1c-.2,0-.4-.2-.6-.2-.2,0-.4,0-.6,0-.2,0-.4,0-.4.2s0,.1.1.2c0,0,.3.2.8.3.3.1.5.3.7.4.2.1.3.3.3.4,0,.2.1.4.1.6ZM104.5,13.9c.2,0,.5,0,.7-.2v1.1c-.2,0-.4.2-.6.2-.2,0-.4,0-.7,0-.5,0-.9-.1-1.1-.4-.2-.3-.3-.6-.3-1.2v-1.8h-.5v-.6l.7-.5.4-.9h1v.9h1.1v1.1h-1.1v1.7c0,.3.1.4.4.4ZM110.6,15l-1.2-4.1h0c0,.7,0,1.2,0,1.6v2.5h-1.4v-5.7h2.1l1.2,4.1h0l1.2-4.1h2.1v5.7h-1.4v-2.5c0-.1,0-.3,0-.4,0-.2,0-.5,0-1.2h0l-1.2,4.1h-1.5ZM120,12.8c0,.7-.2,1.3-.6,1.7-.4.4-.9.6-1.6.6s-1.2-.2-1.6-.6c-.4-.4-.6-1-.6-1.7s.2-1.3.6-1.7c.4-.4.9-.6,1.6-.6s.8,0,1.2.3c.3.2.6.5.8.8.2.3.3.7.3,1.2ZM117.2,12.8c0,.4,0,.7.2.9.1.2.3.3.5.3s.4,0,.5-.3c0-.2.1-.5.1-.9s0-.7-.1-.9c0-.2-.3-.3-.5-.3s-.4,0-.5.3c-.1.2-.2.5-.2.9ZM123.7,15v-2.4c0-.3,0-.5-.1-.7,0-.2-.2-.2-.4-.2s-.4.1-.6.3c-.1.2-.2.6-.2,1.1v1.9h-1.5v-4.4h1.2l.2.5h0c.1-.2.3-.4.5-.5.2-.1.5-.2.8-.2.5,0,.9.1,1.1.4.3.3.4.7.4,1.2v2.9h-1.5ZM128.4,13.9c.2,0,.5,0,.7-.2v1.1c-.2,0-.4.2-.6.2-.2,0-.4,0-.7,0-.5,0-.9-.1-1.1-.4-.2-.3-.3-.6-.3-1.2v-1.8h-.5v-.6l.7-.5.4-.9h1v.9h1.1v1.1h-1.1v1.7c0,.3.1.4.4.4ZM132.7,15v-2.4c0-.6-.2-.9-.5-.9s-.4.1-.6.3c-.1.2-.2.6-.2,1v1.9h-1.5v-6.1h1.5v.9c0,.4,0,.8,0,1.3h0c.1-.2.3-.4.5-.5.2,0,.4-.1.7-.1.5,0,.9.1,1.2.4.3.3.4.7.4,1.2v2.9h-1.5Z"/>
  <path class="st9" d="M230.8,1h-82c-2.2,0-4,1.8-4,4v14c0,2.2,1.8,4,4,4h82c2.2,0,4-1.8,4-4V5c0-2.2-1.8-4-4-4Z"/>
  <path class="st10" d="M230.8,2c1.7,0,3,1.3,3,3v14c0,1.7-1.3,3-3,3h-82c-1.7,0-3-1.3-3-3V5c0-1.7,1.3-3,3-3h82ZM230.8,0h-82c-2.8,0-5,2.2-5,5v14c0,2.8,2.2,5,5,5h82c2.8,0,5-2.2,5-5V5c0-2.8-2.2-5-5-5Z"/>
  <path class="st10" d="M171.2,11.1c0,.6-.2,1.1-.6,1.5-.4.3-.9.5-1.6.5h-.4v1.9h-1.5v-5.7h2c.7,0,1.3.2,1.6.5.4.3.5.8.5,1.3ZM168.6,11.8h.3c.2,0,.4,0,.6-.2.1-.1.2-.3.2-.5,0-.4-.2-.6-.6-.6h-.4v1.3ZM173.3,15h-1.5v-4.4h1.5v4.4ZM171.7,9.5c0-.2,0-.4.2-.5.1-.1.3-.2.6-.2s.5,0,.6.2c.1.1.2.3.2.5,0,.4-.3.7-.8.7s-.8-.2-.8-.7ZM176.2,15.1c-.7,0-1.3-.2-1.6-.6-.4-.4-.6-1-.6-1.7s.2-1.3.6-1.7c.4-.4,1-.6,1.7-.6s1,.1,1.4.3l-.4,1.1c-.2,0-.4-.1-.5-.2-.2,0-.3,0-.5,0-.2,0-.4,0-.6.3-.1.2-.2.5-.2.8,0,.7.3,1.1.8,1.1s.9-.1,1.3-.4v1.2c-.4.3-.9.4-1.4.4ZM179.7,12.5c.2-.3.3-.5.5-.7l1-1.2h1.7l-1.5,1.9,1.6,2.5h-1.7l-1-1.6-.5.4v1.2h-1.5v-6.1h1.5v2.4c0,.4,0,.8,0,1.2h0ZM190,12c0,1-.3,1.7-.8,2.2-.5.5-1.3.8-2.2.8h-1.8v-5.7h2c.9,0,1.6.2,2.1.7.5.5.8,1.1.8,2ZM188.4,12.1c0-.5-.1-.9-.3-1.2-.2-.3-.5-.4-.9-.4h-.4v3.2h.3c.5,0,.8-.1,1-.4.2-.3.3-.7.3-1.2ZM193.6,15l-.3-.6h0c-.2.3-.4.4-.6.5-.2,0-.5.1-.8.1s-.7-.1-1-.4c-.2-.2-.4-.6-.4-1.1s.2-.8.5-1.1c.3-.2.8-.4,1.4-.4h.7c0-.5-.2-.6-.5-.6s-.7.1-1.2.3l-.4-1c.5-.3,1.2-.4,2-.4s1,.1,1.3.4c.3.3.5.7.5,1.2v2.9h-1.1ZM192.5,14c.2,0,.3,0,.5-.2.1-.1.2-.3.2-.5v-.3h-.4c-.5,0-.8.2-.8.6s.1.4.4.4ZM197.6,13.9c.2,0,.5,0,.7-.2v1.1c-.2,0-.4.2-.6.2-.2,0-.4,0-.7,0-.5,0-.9-.1-1.1-.4-.2-.3-.3-.6-.3-1.2v-1.8h-.5v-.6l.7-.5.4-.9h1v.9h1.1v1.1h-1.1v1.7c0,.3.1.4.4.4ZM201,15.1c-.7,0-1.3-.2-1.7-.6-.4-.4-.6-1-.6-1.7s.2-1.3.6-1.7c.4-.4.9-.6,1.6-.6s1.2.2,1.5.5c.4.3.5.8.5,1.5v.7h-2.7c0,.2.1.4.3.6.2.1.4.2.7.2s.5,0,.7,0c.2,0,.5-.1.7-.3v1.1c-.2.1-.5.2-.7.3-.3,0-.6,0-.9,0ZM201,11.5c-.2,0-.3,0-.5.2-.1.1-.2.3-.2.5h1.3c0-.2,0-.4-.2-.5-.1-.1-.3-.2-.5-.2ZM207.1,12.9v2.1h-1.5v-5.7h1.9c1.6,0,2.3.6,2.3,1.7s-.3,1.2-1,1.5l1.7,2.5h-1.8l-1.2-2.1h-.4ZM207.1,11.8h.3c.5,0,.8-.2.8-.7s-.3-.6-.8-.6h-.3v1.3ZM213.5,15l-.3-.6h0c-.2.3-.4.4-.6.5-.2,0-.5.1-.8.1s-.7-.1-1-.4c-.2-.2-.4-.6-.4-1.1s.2-.8.5-1.1c.3-.2.8-.4,1.4-.4h.7c0-.5-.2-.6-.5-.6s-.7.1-1.2.3l-.4-1c.5-.3,1.2-.4,2-.4s1,.1,1.3.4c.3.3.5.7.5,1.2v2.9h-1.1ZM212.4,14c.2,0,.3,0,.5-.2.1-.1.2-.3.2-.5v-.3h-.4c-.5,0-.8.2-.8.6s.1.4.4.4ZM218.2,15v-2.4c0-.3,0-.5-.1-.7,0-.2-.2-.2-.4-.2s-.4.1-.6.3c-.1.2-.2.6-.2,1.1v1.9h-1.5v-4.4h1.2l.2.5h0c.1-.2.3-.4.5-.5.2-.1.5-.2.8-.2.5,0,.9.1,1.1.4.3.3.4.7.4,1.2v2.9h-1.5ZM224.7,10.6v.7l-.6.2c0,.2.1.3.1.5,0,.5-.2.8-.5,1.1-.3.3-.8.4-1.5.4s-.3,0-.4,0c0,0,0,.1,0,.2s0,.1.2.2c.1,0,.3,0,.5,0h.7c1,0,1.5.4,1.5,1.3s-.2,1-.7,1.3c-.5.3-1.1.4-1.9.4s-1.1-.1-1.5-.3c-.3-.2-.5-.5-.5-.9s.3-.9,1-1c-.1,0-.3-.1-.4-.3,0-.1-.1-.3-.1-.4s0-.3.1-.4c0-.1.2-.2.5-.4-.2-.1-.4-.3-.5-.5-.1-.2-.2-.5-.2-.8,0-.5.2-.9.5-1.1.3-.3.8-.4,1.4-.4s.2,0,.4,0c.2,0,.3,0,.4,0h1.5ZM221.3,15.6c0,.1,0,.2.2.3.1,0,.3.1.5.1.4,0,.7,0,.9-.1.2,0,.3-.2.3-.4s0-.2-.2-.2c-.1,0-.3,0-.6,0h-.6c-.2,0-.3,0-.4.1-.1,0-.2.2-.2.3ZM221.8,12c0,.5.2.7.5.7s.3,0,.3-.2c0-.1.1-.3.1-.5,0-.5-.2-.7-.5-.7s-.5.2-.5.7ZM227.2,15.1c-.7,0-1.3-.2-1.7-.6-.4-.4-.6-1-.6-1.7s.2-1.3.6-1.7c.4-.4.9-.6,1.6-.6s1.2.2,1.5.5c.4.3.5.8.5,1.5v.7h-2.7c0,.2,0,.4.3.6.2.1.4.2.7.2s.5,0,.7,0c.2,0,.5-.1.7-.3v1.1c-.2.1-.5.2-.7.3-.3,0-.6,0-.9,0ZM227.1,11.5c-.2,0-.3,0-.5.2-.1.1-.2.3-.2.5h1.3c0-.2,0-.4-.2-.5-.1-.1-.3-.2-.5-.2Z"/>
  <path class="st9" d="M160.8,6h-8c-1.1,0-2,.9-2,2v8c0,1.1.9,2,2,2h8c1.1,0,2-.9,2-2v-8c0-1.1-.9-2-2-2Z"/>
  <path class="st10" d="M160.8,7c.6,0,1,.5,1,1v8c0,.5-.4,1-1,1h-8c-.6,0-1-.5-1-1v-8c0-.5.4-1,1-1h8ZM160.8,5h-8c-1.6,0-3,1.3-3,3v8c0,1.7,1.4,3,3,3h8c1.6,0,3-1.3,3-3v-8c0-1.7-1.4-3-3-3Z"/>
  <path class="st0" d="M161.8,11h-10v-3c0-.5.4-1,1-1h8c.6,0,1,.5,1,1v3Z"/>
  <path class="st4" d="M151.8,11h10"/>
  <path class="st4" d="M158.8,7.5v-3"/>
  <path class="st4" d="M154.8,7.5v-3"/>
  <path class="st10" d="M109.3-6.7c0,.2,0,.4.3.5.2.1.5.2.8.2.5,0,.9,0,1.2-.2.3-.2.4-.4.4-.7s0-.4-.2-.5c-.1,0-.4-.1-.8-.1h-.8c-.3,0-.5,0-.7.2-.2.1-.2.3-.2.6ZM271.3-6.7c0,.2,0,.4.3.5.2.1.5.2.8.2.5,0,.9,0,1.2-.2.3-.2.4-.4.4-.7s0-.4-.2-.5c-.1,0-.4-.1-.8-.1h-.8c-.3,0-.5,0-.7.2-.2.1-.2.3-.2.6ZM275.5-7.9c0-.2,0-.3.1-.4,0,0,.2-.1.3-.1s.3,0,.4.1c0,0,.1.2.1.4s0,.3-.1.4c0,0-.2.1-.4.1s-.2,0-.3-.1c0,0-.1-.2-.1-.4Z"/>
  <path class="st10" d="M18.8,193.1h-1.2v-4.7h-1.6v-1h4.3v1h-1.6v4.7ZM23.6,188.6c.2,0,.3,0,.4,0v1.1c-.2,0-.3,0-.4,0-.4,0-.7,0-.9.3-.2.2-.3.5-.3.8v2.2h-1.2v-4.4h.9l.2.7h0c.1-.2.3-.4.5-.6.2-.2.5-.2.8-.2ZM27.6,193.1l-.2-.6h0c-.2.3-.4.4-.6.5-.2,0-.5.1-.8.1s-.8-.1-1-.4c-.2-.2-.4-.6-.4-1s.2-.8.5-1c.3-.2.8-.3,1.5-.4h.8v-.2c0-.4-.2-.7-.7-.7s-.8.1-1.2.3l-.4-.8c.5-.3,1.1-.4,1.7-.4s1,.1,1.3.4c.3.3.5.6.5,1.2v2.9h-.8ZM27.2,191h-.5c-.3,0-.6,0-.8.2-.2.1-.3.3-.3.5,0,.3.2.5.6.5s.5,0,.7-.2c.2-.2.2-.4.2-.6v-.4ZM32,189.6h-1v3.5h-1.2v-3.5h-.7v-.6l.7-.3v-.3c0-.5.1-.9.4-1.1.2-.2.6-.3,1.2-.3s.8,0,1.1.2l-.3.9c-.2,0-.5-.1-.7-.1s-.3,0-.4.2c0,0-.1.2-.1.4v.3h1v.9ZM35.1,189.6h-1v3.5h-1.2v-3.5h-.7v-.6l.7-.3v-.3c0-.5.1-.9.4-1.1.2-.2.6-.3,1.2-.3s.8,0,1.1.2l-.3.9c-.2,0-.5-.1-.7-.1s-.3,0-.4.2c0,0-.1.2-.1.4v.3h1v.9ZM35.8,187.6c0-.4.2-.6.6-.6s.6.2.6.6,0,.3-.2.4c-.1.1-.3.2-.5.2-.4,0-.6-.2-.6-.6ZM37,193.1h-1.2v-4.4h1.2v4.4ZM40,193.1c-1.4,0-2-.7-2-2.2s.2-1.3.6-1.7c.4-.4.9-.6,1.6-.6s1,0,1.4.3l-.4.9c-.2,0-.4-.1-.5-.2-.2,0-.3,0-.5,0-.6,0-.9.4-.9,1.3s.3,1.3.9,1.3.4,0,.6,0c.2,0,.4-.2.6-.3v1c-.2.1-.4.2-.6.3-.2,0-.4,0-.7,0Z"/>
  <path class="st10" d="M69.4,193.1v-5.7h1.2v4.7h2.3v1h-3.5ZM75.6,189.4c-.3,0-.5,0-.6.2-.1.2-.2.4-.2.7h1.7c0-.3,0-.5-.2-.7-.1-.2-.3-.2-.6-.2ZM75.8,193.1c-.7,0-1.3-.2-1.6-.6-.4-.4-.6-.9-.6-1.6s.2-1.3.5-1.7c.4-.4.9-.6,1.5-.6s1.1.2,1.4.5c.3.4.5.8.5,1.5v.6h-2.8c0,.3.1.6.3.8.2.2.5.3.8.3s.5,0,.7,0c.2,0,.5-.1.7-.3v.9c-.2.1-.4.2-.7.2-.2,0-.5,0-.9,0ZM81.3,193.1l-.2-.6h0c-.2.3-.4.4-.6.5-.2,0-.5.1-.8.1s-.8-.1-1-.4c-.2-.2-.4-.6-.4-1s.2-.8.5-1c.3-.2.8-.3,1.5-.4h.8v-.2c0-.4-.2-.7-.7-.7s-.8.1-1.2.3l-.4-.8c.5-.3,1.1-.4,1.7-.4s1,.1,1.3.4c.3.3.5.6.5,1.2v2.9h-.8ZM81,191h-.5c-.3,0-.6,0-.8.2-.2.1-.3.3-.3.5,0,.3.2.5.6.5s.5,0,.7-.2c.2-.2.2-.4.2-.6v-.4ZM84.8,193.1c-.5,0-.9-.2-1.2-.6-.3-.4-.4-.9-.4-1.7s.1-1.3.4-1.7c.3-.4.7-.6,1.2-.6s1,.2,1.3.6h0c0-.3,0-.6,0-.9v-1.4h1.2v6.1h-.9l-.2-.6h0c-.3.4-.7.6-1.2.6ZM85.2,192.2c.3,0,.5,0,.7-.3.1-.2.2-.5.2-.9h0c0-.6,0-.9-.2-1.1-.1-.2-.4-.3-.7-.3s-.5.1-.6.3c-.1.2-.2.6-.2,1s0,.8.2,1c.1.2.4.3.6.3Z"/>
  <path class="st10" d="M110.3,188.3c-.5,0-.8.2-1.1.5-.2.3-.4.8-.4,1.4,0,1.3.5,1.9,1.4,1.9s.9,0,1.5-.3v1c-.5.2-1,.3-1.6.3-.8,0-1.5-.3-1.9-.8-.4-.5-.7-1.2-.7-2.2s.1-1.1.3-1.6c.2-.4.5-.8.9-1,.4-.2.9-.4,1.4-.4s1.1.1,1.7.4l-.4,1c-.2-.1-.4-.2-.6-.3-.2,0-.4-.1-.6-.1ZM113.8,190.9c0,.4,0,.8.2,1,.1.2.4.3.7.3s.5-.1.7-.3c.1-.2.2-.6.2-1s0-.8-.2-1c-.1-.2-.4-.3-.7-.3s-.5.1-.7.3c-.1.2-.2.5-.2,1ZM116.8,190.9c0,.7-.2,1.3-.6,1.7s-.9.6-1.6.6-.8,0-1.1-.3c-.3-.2-.6-.4-.7-.8-.2-.3-.3-.7-.3-1.2,0-.7.2-1.3.6-1.7.4-.4.9-.6,1.6-.6s.8,0,1.1.3c.3.2.6.4.7.8.2.3.3.7.3,1.2ZM121.8,193.1h-1.2v-2.6c0-.3,0-.6-.2-.7-.1-.2-.3-.2-.5-.2s-.6.1-.7.3c-.1.2-.2.6-.2,1.1v2.1h-1.2v-4.4h.9l.2.6h0c.1-.2.3-.4.5-.5.2-.1.5-.2.8-.2.5,0,.9.1,1.2.4.3.3.4.7.4,1.2v2.8ZM124.9,192.2c.2,0,.5,0,.8-.1v.9c-.3.1-.7.2-1.1.2s-.8-.1-1-.4c-.2-.2-.3-.6-.3-1.1v-2.1h-.6v-.5l.7-.4.3-.9h.8v.9h1.2v.9h-1.2v2.1c0,.2,0,.3.1.4,0,0,.2.1.4.1ZM129.3,193.1l-.2-.6h0c-.2.3-.4.4-.6.5-.2,0-.5.1-.8.1s-.8-.1-1-.4c-.2-.2-.4-.6-.4-1s.2-.8.5-1c.3-.2.8-.3,1.5-.4h.8v-.2c0-.4-.2-.7-.7-.7s-.8.1-1.2.3l-.4-.8c.5-.3,1.1-.4,1.7-.4s1,.1,1.3.4c.3.3.5.6.5,1.2v2.9h-.8ZM129,191h-.5c-.3,0-.6,0-.8.2-.2.1-.3.3-.3.5,0,.3.2.5.6.5s.5,0,.7-.2c.2-.2.2-.4.2-.6v-.4ZM133.2,193.1c-1.4,0-2-.7-2-2.2s.2-1.3.6-1.7c.4-.4.9-.6,1.6-.6s1,0,1.4.3l-.4.9c-.2,0-.4-.1-.5-.2-.2,0-.3,0-.5,0-.6,0-.9.4-.9,1.3s.3,1.3.9,1.3.4,0,.6,0c.2,0,.4-.2.6-.3v1c-.2.1-.4.2-.6.3-.2,0-.4,0-.7,0ZM137.3,192.2c.2,0,.5,0,.8-.1v.9c-.3.1-.7.2-1.1.2s-.8-.1-1-.4c-.2-.2-.3-.6-.3-1.1v-2.1h-.6v-.5l.7-.4.3-.9h.8v.9h1.2v.9h-1.2v2.1c0,.2,0,.3.1.4,0,0,.2.1.4.1ZM140.8,189.4c-.3,0-.5,0-.6.2-.1.2-.2.4-.2.7h1.7c0-.3,0-.5-.2-.7-.1-.2-.3-.2-.6-.2ZM141,193.1c-.7,0-1.3-.2-1.6-.6-.4-.4-.6-.9-.6-1.6s.2-1.3.5-1.7c.4-.4.9-.6,1.5-.6s1.1.2,1.4.5c.3.4.5.8.5,1.5v.6h-2.8c0,.3.1.6.3.8.2.2.5.3.8.3s.5,0,.7,0c.2,0,.5-.1.7-.3v.9c-.2.1-.4.2-.7.2-.2,0-.5,0-.9,0ZM145.1,193.1c-.5,0-.9-.2-1.2-.6-.3-.4-.4-.9-.4-1.7s.1-1.3.4-1.7c.3-.4.7-.6,1.2-.6s1,.2,1.3.6h0c0-.3,0-.6,0-.9v-1.4h1.2v6.1h-.9l-.2-.6h0c-.3.4-.7.6-1.2.6ZM145.5,192.2c.3,0,.5,0,.7-.3.1-.2.2-.5.2-.9h0c0-.6,0-.9-.2-1.1-.1-.2-.4-.3-.7-.3s-.5.1-.6.3c-.1.2-.2.6-.2,1s0,.8.2,1c.1.2.4.3.6.3Z"/>
  <path class="st10" d="M164.6,190.2c0,.7-.1,1.2-.4,1.7-.2.5-.6.8-1,1l1.4,1.5h-1.6l-1-1.3h0c-.9,0-1.5-.3-2-.8-.5-.5-.7-1.2-.7-2.2s.2-1.7.7-2.2c.5-.5,1.1-.8,2-.8s1.5.3,2,.8c.5.5.7,1.2.7,2.2ZM160.4,190.2c0,.6.1,1.1.4,1.4.2.3.6.5,1.1.5,1,0,1.4-.6,1.4-1.9s-.5-1.9-1.4-1.9-.8.2-1.1.5c-.2.3-.4.8-.4,1.4ZM168.8,193.1l-.2-.6h0c-.1.2-.3.4-.5.5-.2.1-.5.2-.8.2-.5,0-.9-.1-1.2-.4-.3-.3-.4-.7-.4-1.2v-2.8h1.2v2.6c0,.3,0,.6.2.7.1.2.3.2.5.2s.6-.1.7-.3c.1-.2.2-.6.2-1.1v-2.1h1.2v4.4h-.9ZM173.7,193.1l-.2-.6h0c-.2.3-.4.4-.6.5-.2,0-.5.1-.8.1s-.8-.1-1-.4c-.2-.2-.4-.6-.4-1s.2-.8.5-1c.3-.2.8-.3,1.5-.4h.8v-.2c0-.4-.2-.7-.7-.7s-.8.1-1.2.3l-.4-.8c.5-.3,1.1-.4,1.7-.4s1,.1,1.3.4c.3.3.5.6.5,1.2v2.9h-.8ZM173.4,191h-.5c-.3,0-.6,0-.8.2-.2.1-.3.3-.3.5,0,.3.2.5.6.5s.5,0,.7-.2c.2-.2.2-.4.2-.6v-.4ZM177,193.1h-1.2v-6.1h1.2v6.1ZM178.2,187.6c0-.4.2-.6.6-.6s.6.2.6.6,0,.3-.2.4c-.1.1-.3.2-.5.2-.4,0-.6-.2-.6-.6ZM179.4,193.1h-1.2v-4.4h1.2v4.4ZM183.1,189.6h-1v3.5h-1.2v-3.5h-.7v-.6l.7-.3v-.3c0-.5.1-.9.4-1.1.2-.2.6-.3,1.2-.3s.8,0,1.1.2l-.3.9c-.2,0-.5-.1-.7-.1s-.3,0-.4.2c0,0-.1.2-.1.4v.3h1v.9ZM183.7,187.6c0-.4.2-.6.6-.6s.6.2.6.6,0,.3-.2.4c-.1.1-.3.2-.5.2-.4,0-.6-.2-.6-.6ZM185,193.1h-1.2v-4.4h1.2v4.4ZM188,189.4c-.3,0-.4,0-.6.2-.1.2-.2.4-.2.7h1.7c0-.3,0-.5-.2-.7-.1-.2-.3-.2-.6-.2ZM188.2,193.1c-.7,0-1.3-.2-1.6-.6-.4-.4-.6-.9-.6-1.6s.2-1.3.5-1.7c.4-.4.9-.6,1.5-.6s1.1.2,1.4.5c.3.4.5.8.5,1.5v.6h-2.8c0,.3.1.6.3.8.2.2.4.3.8.3s.5,0,.7,0c.2,0,.5-.1.7-.3v.9c-.2.1-.4.2-.7.2-.2,0-.5,0-.9,0ZM192.3,193.1c-.5,0-.9-.2-1.2-.6-.3-.4-.4-.9-.4-1.7s.1-1.3.4-1.7c.3-.4.7-.6,1.2-.6s1,.2,1.3.6h0c0-.3,0-.6,0-.9v-1.4h1.2v6.1h-.9l-.2-.6h0c-.3.4-.7.6-1.2.6ZM192.7,192.2c.3,0,.5,0,.7-.3.1-.2.2-.5.2-.9h0c0-.6,0-.9-.2-1.1-.1-.2-.4-.3-.7-.3s-.5.1-.6.3c-.1.2-.2.6-.2,1s0,.8.2,1c.1.2.4.3.6.3Z"/>
  <path class="st10" d="M210.9,190h.4c.4,0,.7,0,.8-.2.2-.1.3-.4.3-.6s0-.5-.2-.6c-.2-.1-.4-.2-.7-.2h-.6v1.7ZM213.7,189.1c0,.6-.2,1.1-.6,1.4-.4.3-.9.5-1.6.5h-.5v2h-1.2v-5.7h1.8c.7,0,1.2.1,1.6.4.4.3.5.7.5,1.3ZM217.1,188.6c.2,0,.3,0,.4,0v1.1c-.2,0-.3,0-.4,0-.4,0-.7,0-.9.3-.2.2-.3.5-.3.8v2.2h-1.2v-4.4h.9l.2.7h0c.1-.2.3-.4.5-.6.2-.2.5-.2.8-.2ZM219.2,190.9c0,.4,0,.8.2,1,.1.2.4.3.7.3s.5-.1.7-.3c.1-.2.2-.6.2-1s0-.8-.2-1c-.1-.2-.4-.3-.7-.3s-.5.1-.7.3c-.1.2-.2.5-.2,1ZM222.2,190.9c0,.7-.2,1.3-.6,1.7s-.9.6-1.6.6-.8,0-1.1-.3c-.3-.2-.6-.4-.7-.8-.2-.3-.3-.7-.3-1.2,0-.7.2-1.3.6-1.7.4-.4.9-.6,1.6-.6s.8,0,1.1.3c.3.2.6.4.7.8.2.3.3.7.3,1.2ZM225.6,193.1c-.5,0-.9-.2-1.2-.6h0c0,.4,0,.6,0,.6v1.8h-1.2v-6.3h1l.2.6h0c.3-.4.7-.6,1.2-.6s.9.2,1.2.6c.3.4.4,1,.4,1.7s0,.9-.2,1.2c-.1.3-.3.6-.6.8-.3.2-.6.3-.9.3ZM225.3,189.6c-.3,0-.5,0-.6.3-.1.2-.2.5-.2.9h0c0,.6,0,.9.2,1.1.1.2.4.3.7.3.5,0,.8-.4.8-1.3s0-.8-.2-1c-.1-.2-.3-.3-.6-.3ZM229.2,190.9c0,.4,0,.8.2,1,.1.2.4.3.7.3s.5-.1.7-.3c.1-.2.2-.6.2-1s0-.8-.2-1c-.1-.2-.4-.3-.7-.3s-.5.1-.7.3c-.1.2-.2.5-.2,1ZM232.3,190.9c0,.7-.2,1.3-.6,1.7s-.9.6-1.6.6-.8,0-1.1-.3c-.3-.2-.6-.4-.7-.8-.2-.3-.3-.7-.3-1.2,0-.7.2-1.3.6-1.7.4-.4.9-.6,1.6-.6s.8,0,1.1.3c.3.2.6.4.7.8s.3.7.3,1.2ZM236.3,191.8c0,.4-.2.8-.5,1-.3.2-.8.4-1.4.4s-.6,0-.8,0c-.2,0-.4-.1-.6-.2v-1c.2.1.5.2.7.3.3,0,.5.1.7.1.4,0,.6-.1.6-.4s0-.2,0-.2c0,0-.2-.1-.3-.2-.1,0-.3-.2-.6-.3-.3-.1-.6-.3-.7-.4-.2-.1-.3-.3-.3-.4,0-.2-.1-.3-.1-.6,0-.4.1-.7.4-.9.3-.2.7-.3,1.3-.3s1,.1,1.5.3l-.4.9c-.2,0-.4-.2-.6-.2-.2,0-.4,0-.6,0-.4,0-.5,0-.5.3s0,.2.2.3c.1,0,.4.2.7.3.3.1.6.3.8.4.2.1.3.3.4.4,0,.2.1.3.1.6ZM240,193.1l-.2-.6h0c-.2.3-.4.4-.6.5-.2,0-.5.1-.8.1s-.8-.1-1-.4c-.2-.2-.4-.6-.4-1s.2-.8.5-1c.3-.2.8-.3,1.5-.4h.8v-.2c0-.4-.2-.7-.7-.7s-.8.1-1.2.3l-.4-.8c.5-.3,1.1-.4,1.7-.4s1,.1,1.3.4c.3.3.5.6.5,1.2v2.9h-.8ZM239.6,191h-.5c-.3,0-.6,0-.8.2-.2.1-.3.3-.3.5,0,.3.2.5.6.5s.5,0,.7-.2c.2-.2.2-.4.2-.6v-.4ZM243.2,193.1h-1.2v-6.1h1.2v6.1Z"/>
  <path class="st10" d="M265.8,188.3c-.5,0-.8.2-1.1.5-.2.3-.4.8-.4,1.4,0,1.3.5,1.9,1.4,1.9s.9,0,1.5-.3v1c-.5.2-1,.3-1.6.3-.8,0-1.5-.3-1.9-.8-.4-.5-.7-1.2-.7-2.2s.1-1.1.3-1.6c.2-.4.5-.8.9-1,.4-.2.9-.4,1.4-.4s1.1.1,1.7.4l-.4,1c-.2-.1-.4-.2-.6-.3-.2,0-.4-.1-.6-.1ZM269.6,193.1h-1.2v-6.1h1.2v6.1ZM271.8,190.9c0,.4,0,.8.2,1,.1.2.4.3.7.3s.5-.1.7-.3c.1-.2.2-.6.2-1s0-.8-.2-1-.4-.3-.7-.3-.5.1-.7.3c-.1.2-.2.5-.2,1ZM274.8,190.9c0,.7-.2,1.3-.6,1.7s-.9.6-1.6.6-.8,0-1.1-.3c-.3-.2-.6-.4-.7-.8-.2-.3-.3-.7-.3-1.2,0-.7.2-1.3.6-1.7.4-.4.9-.6,1.6-.6s.8,0,1.1.3c.3.2.6.4.7.8s.3.7.3,1.2ZM278.9,191.8c0,.4-.2.8-.5,1-.3.2-.8.4-1.4.4s-.6,0-.8,0c-.2,0-.4-.1-.6-.2v-1c.2.1.5.2.7.3.3,0,.5.1.7.1.4,0,.6-.1.6-.4s0-.2,0-.2c0,0-.2-.1-.3-.2-.1,0-.3-.2-.6-.3-.3-.1-.6-.3-.7-.4-.2-.1-.3-.3-.3-.4,0-.2-.1-.3-.1-.6,0-.4.1-.7.4-.9.3-.2.7-.3,1.3-.3s1,.1,1.5.3l-.4.9c-.2,0-.4-.2-.6-.2-.2,0-.4,0-.6,0-.4,0-.5,0-.5.3s0,.2.2.3c.1,0,.4.2.7.3.3.1.6.3.8.4s.3.3.4.4c0,.2.1.3.1.6ZM281.6,189.4c-.3,0-.5,0-.6.2-.1.2-.2.4-.2.7h1.7c0-.3,0-.5-.2-.7-.1-.2-.3-.2-.6-.2ZM281.8,193.1c-.7,0-1.3-.2-1.6-.6-.4-.4-.6-.9-.6-1.6s.2-1.3.5-1.7c.4-.4.9-.6,1.5-.6s1.1.2,1.4.5c.3.4.5.8.5,1.5v.6h-2.8c0,.3.1.6.3.8.2.2.5.3.8.3s.5,0,.7,0c.2,0,.5-.1.7-.3v.9c-.2.1-.4.2-.7.2-.2,0-.5,0-.9,0ZM285.9,193.1c-.5,0-.9-.2-1.2-.6-.3-.4-.4-.9-.4-1.7s.1-1.3.4-1.7c.3-.4.7-.6,1.2-.6s1,.2,1.3.6h0c0-.3,0-.6,0-.9v-1.4h1.2v6.1h-.9l-.2-.6h0c-.3.4-.7.6-1.2.6ZM286.3,192.2c.3,0,.5,0,.7-.3.1-.2.2-.5.2-.9h0c0-.6,0-.9-.2-1.1-.1-.2-.4-.3-.7-.3s-.5.1-.6.3c-.1.2-.2.6-.2,1s0,.8.2,1c.1.2.4.3.6.3Z"/>
  <path class="st10" d="M21.7,42h-1.6v-3c0-.4,0-.7,0-1,0,.1-.2.2-.4.4l-.6.5-.8-1,2-1.6h1.4v5.7ZM27.1,39.2c0,1-.2,1.8-.5,2.2-.3.5-.9.7-1.6.7s-1.2-.2-1.5-.7c-.3-.5-.5-1.2-.5-2.2s.2-1.8.5-2.2c.3-.5.9-.7,1.6-.7s1.2.2,1.5.7c.3.5.5,1.2.5,2.2ZM24.5,39.2c0,.6,0,1.1.1,1.3,0,.2.2.4.4.4s.3-.1.4-.4c0-.2.1-.7.1-1.3s0-1.1-.1-1.3c0-.3-.2-.4-.4-.4s-.3.1-.4.4c0,.2-.1.7-.1,1.3ZM31.8,39.2c0,1-.2,1.8-.5,2.2-.3.5-.9.7-1.6.7s-1.2-.2-1.5-.7c-.3-.5-.5-1.2-.5-2.2s.2-1.8.5-2.2c.3-.5.9-.7,1.6-.7s1.2.2,1.5.7c.3.5.5,1.2.5,2.2ZM29.2,39.2c0,.6,0,1.1.1,1.3,0,.2.2.4.4.4s.3-.1.4-.4c0-.2.1-.7.1-1.3s0-1.1-.1-1.3c0-.3-.2-.4-.4-.4s-.3.1-.4.4c0,.2-.1.7-.1,1.3ZM33.4,38.1c0,.3,0,.5,0,.6,0,.1.1.2.2.2s.2,0,.2-.2c0-.1,0-.3,0-.7s0-.5,0-.6c0-.1-.1-.2-.2-.2s-.2,0-.2.2c0,.1,0,.4,0,.6ZM35.2,38c0,.6-.1,1-.4,1.3-.3.3-.6.5-1.1.5s-.8-.2-1.1-.5c-.3-.3-.4-.8-.4-1.3s.1-1,.4-1.3c.3-.3.6-.5,1.1-.5s.8.2,1.1.5c.3.3.4.8.4,1.3ZM38,36.3l-3.2,5.7h-1.2l3.2-5.7h1.2ZM37.7,40.3c0,.3,0,.5,0,.6,0,.1.1.2.2.2s.2,0,.2-.2c0-.2,0-.4,0-.6s0-.5,0-.6c0-.2-.1-.2-.2-.2s-.2,0-.2.2c0,.1,0,.4,0,.6ZM39.5,40.3c0,.6-.1,1-.4,1.3-.3.3-.6.5-1.1.5s-.8-.2-1.1-.5c-.3-.3-.4-.8-.4-1.3s.1-1,.4-1.3c.3-.3.6-.5,1.1-.5s.8.2,1.1.5c.3.3.4.8.4,1.3Z"/>
  <path class="st10" d="M74.3,81.9h-.6v1.1h-1.5v-1.1h-2.3v-1.1l2.4-3.5h1.4v3.5h.6v1.2ZM72.2,80.8v-.7c0-.1,0-.3,0-.5,0-.2,0-.3,0-.3h0c0,.2-.2.4-.3.6l-.6.9h.9ZM78.6,78.6c0,.4-.1.7-.3.9-.2.3-.5.4-.9.6h0c1,.1,1.4.6,1.4,1.4s-.2.9-.6,1.3c-.4.3-1,.5-1.8.5s-.6,0-.9,0c-.3,0-.5-.1-.8-.2v-1.3c.2.1.5.2.8.3.3,0,.5,0,.7,0,.3,0,.6,0,.7-.1.2,0,.2-.2.2-.4s0-.3-.1-.4c0,0-.2-.1-.4-.2-.2,0-.4,0-.7,0h-.4v-1.2h.4c.8,0,1.2-.2,1.2-.6s0-.3-.2-.3c-.1,0-.3-.1-.5-.1-.4,0-.7.1-1.1.4l-.6-1c.3-.2.6-.4.9-.4.3,0,.7-.1,1.1-.1.6,0,1.1.1,1.4.4.3.2.5.6.5,1ZM80.4,79.1c0,.3,0,.5,0,.6,0,.1.1.2.2.2s.2,0,.2-.2c0-.1,0-.3,0-.7s0-.5,0-.6c0-.1-.1-.2-.2-.2s-.2,0-.2.2c0,.1,0,.3,0,.6ZM82.2,79c0,.6-.1,1-.4,1.3-.3.3-.6.5-1.1.5s-.8-.2-1.1-.5c-.3-.3-.4-.8-.4-1.3s.1-1,.4-1.3c.3-.3.6-.5,1.1-.5s.8.2,1.1.5c.3.3.4.8.4,1.3ZM85.1,77.3l-3.2,5.7h-1.2l3.2-5.7h1.2ZM84.8,81.3c0,.3,0,.5,0,.6,0,.1.1.2.2.2s.2,0,.2-.2c0-.2,0-.4,0-.6s0-.5,0-.6c0-.2-.1-.2-.2-.2s-.2,0-.2.2c0,.1,0,.4,0,.6ZM86.6,81.3c0,.6-.1,1-.4,1.3-.3.3-.6.5-1.1.5s-.8-.2-1.1-.5c-.3-.3-.4-.8-.4-1.3s.1-1,.4-1.3c.3-.3.6-.5,1.1-.5s.8.2,1.1.5c.3.3.4.8.4,1.3Z"/>
  <path class="st10" d="M119.4,63.6c0-.8.1-1.4.3-1.9.2-.5.6-.9,1-1.1.4-.2,1-.4,1.6-.4s.5,0,.8,0v1.2c-.3,0-.5,0-.8,0-.5,0-.9.1-1.2.3-.3.2-.4.6-.4,1.1h0c.2-.4.6-.7,1.1-.7s.9.2,1.2.5c.3.3.4.8.4,1.4s-.2,1.1-.5,1.5c-.4.4-.8.5-1.5.5s-1.2-.2-1.6-.7c-.4-.4-.6-1.1-.6-1.8ZM121.5,64.9c.2,0,.3,0,.4-.2.1-.1.2-.3.2-.6,0-.5-.2-.7-.5-.7s-.3,0-.4.2c-.1.1-.2.3-.2.4,0,.2,0,.5.2.6.1.2.2.2.4.2ZM124.7,66.1l2-4.4h-2.5v-1.3h4.1v.9l-2,4.8h-1.6ZM129.8,62.1c0,.3,0,.5,0,.6,0,.1.1.2.2.2s.2,0,.2-.2c0-.1,0-.3,0-.7s0-.5,0-.6c0-.1-.1-.2-.2-.2s-.2,0-.2.2c0,.1,0,.3,0,.6ZM131.6,62c0,.6-.1,1-.4,1.3-.3.3-.6.5-1.1.5s-.8-.2-1.1-.5c-.3-.3-.4-.8-.4-1.3s.1-1,.4-1.3c.3-.3.6-.5,1.1-.5s.8.2,1.1.5c.3.3.4.8.4,1.3ZM134.5,60.3l-3.2,5.7h-1.2l3.2-5.7h1.2ZM134.2,64.3c0,.3,0,.5,0,.6,0,.1.1.2.2.2s.2,0,.2-.2c0-.2,0-.4,0-.6s0-.5,0-.6c0-.2-.1-.2-.2-.2s-.2,0-.2.2c0,.1,0,.4,0,.6ZM136,64.3c0,.6-.1,1-.4,1.3-.3.3-.6.5-1.1.5s-.8-.2-1.1-.5c-.3-.3-.4-.8-.4-1.3s.1-1,.4-1.3c.3-.3.6-.5,1.1-.5s.8.2,1.1.5c.3.3.4.8.4,1.3Z"/>
  <path class="st10" d="M169.4,59.1l2-4.4h-2.5v-1.3h4.1v.9l-2,4.8h-1.6ZM173.5,56.6c0-.8.1-1.4.3-1.9.2-.5.6-.9,1-1.1.4-.2,1-.4,1.6-.4s.5,0,.8,0v1.2c-.3,0-.5,0-.8,0-.5,0-.9.1-1.2.3-.3.2-.4.6-.4,1.1h0c.2-.4.6-.7,1.1-.7s.9.2,1.2.5c.3.3.4.8.4,1.4s-.2,1.1-.5,1.5c-.4.4-.8.5-1.5.5s-1.2-.2-1.6-.7c-.4-.4-.6-1-.6-1.8ZM175.6,57.9c.2,0,.3,0,.4-.2.1-.1.2-.3.2-.6,0-.5-.2-.7-.5-.7s-.3,0-.4.2c-.1.1-.2.3-.2.4,0,.2,0,.5.2.6.1.2.2.2.4.2ZM179.2,55.1c0,.3,0,.5,0,.6,0,.1.1.2.2.2s.2,0,.2-.2c0-.1,0-.3,0-.7s0-.5,0-.6c0-.1-.1-.2-.2-.2s-.2,0-.2.2c0,.1,0,.4,0,.6ZM181,55c0,.6-.1,1-.4,1.3-.3.3-.6.5-1.1.5s-.8-.2-1.1-.5c-.3-.3-.4-.8-.4-1.3s.1-1,.4-1.3c.3-.3.6-.5,1.1-.5s.8.2,1.1.5c.3.3.4.8.4,1.3ZM183.9,53.3l-3.2,5.7h-1.2l3.2-5.7h1.2ZM183.6,57.3c0,.3,0,.5,0,.6,0,.1.1.2.2.2s.2,0,.2-.2c0-.2,0-.4,0-.6s0-.5,0-.6c0-.2-.1-.2-.2-.2s-.2,0-.2.2c0,.1,0,.4,0,.6ZM185.4,57.3c0,.6-.1,1-.4,1.3-.3.3-.6.5-1.1.5s-.8-.2-1.1-.5c-.3-.3-.4-.8-.4-1.3s.1-1,.4-1.3c.3-.3.6-.5,1.1-.5s.8.2,1.1.5c.3.3.4.8.4,1.3Z"/>
  <path class="st10" d="M222.5,78.9h-.6v1.1h-1.5v-1.1h-2.3v-1.1l2.4-3.5h1.4v3.5h.6v1.2ZM220.4,77.8v-.7c0-.1,0-.3,0-.5,0-.2,0-.3,0-.3h0c0,.2-.2.4-.3.6l-.6.9h.9ZM223.5,80.1l2-4.4h-2.5v-1.3h4.1v.9l-2,4.8h-1.6ZM228.6,76.1c0,.3,0,.5,0,.6,0,.1.1.2.2.2s.2,0,.2-.2c0-.1,0-.3,0-.7s0-.5,0-.6c0-.1-.1-.2-.2-.2s-.2,0-.2.2c0,.1,0,.3,0,.6ZM230.4,76c0,.6-.1,1-.4,1.3-.3.3-.6.5-1.1.5s-.8-.2-1.1-.5c-.3-.3-.4-.8-.4-1.3s.1-1,.4-1.3c.3-.3.6-.5,1.1-.5s.8.2,1.1.5c.3.3.4.8.4,1.3ZM233.3,74.3l-3.2,5.7h-1.2l3.2-5.7h1.2ZM233,78.3c0,.3,0,.5,0,.6,0,.1.1.2.2.2s.2,0,.2-.2c0-.2,0-.4,0-.6s0-.5,0-.6c0-.2-.1-.2-.2-.2s-.2,0-.2.2c0,.1,0,.4,0,.6ZM234.8,78.3c0,.6-.1,1-.4,1.3-.3.3-.6.5-1.1.5s-.8-.2-1.1-.5c-.3-.3-.4-.8-.4-1.3s.1-1,.4-1.3c.3-.3.6-.5,1.1-.5s.8.2,1.1.5c.3.3.4.8.4,1.3Z"/>
  <path class="st10" d="M269.9,70.3c.3,0,.6,0,.9.2.3.2.5.4.6.6.1.3.2.6.2,1,0,.6-.2,1.1-.6,1.5-.4.3-1,.5-1.7.5s-1.2-.1-1.6-.3v-1.3c.2.1.5.2.8.3.3,0,.5.1.7.1s.5,0,.7-.2c.2-.1.2-.3.2-.5s0-.4-.2-.5c-.2-.1-.4-.2-.7-.2s-.5,0-.8.1l-.6-.3.2-3h3.3v1.3h-1.9v.8c.1,0,.3,0,.4,0,0,0,.2,0,.2,0ZM272.3,71.6c0-.8.1-1.4.3-1.9.2-.5.6-.9,1-1.1.4-.2,1-.4,1.6-.4s.5,0,.8,0v1.2c-.3,0-.5,0-.8,0-.5,0-.9.1-1.2.3-.3.2-.4.6-.4,1.1h0c.2-.4.6-.7,1.1-.7s.9.2,1.2.5c.3.3.4.8.4,1.4s-.2,1.1-.5,1.5c-.4.4-.8.5-1.5.5s-1.2-.2-1.6-.7c-.4-.4-.6-1.1-.6-1.8ZM274.4,72.9c.2,0,.3,0,.4-.2.1-.1.2-.3.2-.6,0-.5-.2-.7-.5-.7s-.3,0-.4.2c-.1.1-.2.3-.2.4,0,.2,0,.5.2.6.1.2.2.2.4.2ZM278,70.1c0,.3,0,.5,0,.6,0,.1.1.2.2.2s.2,0,.2-.2c0-.1,0-.3,0-.7s0-.5,0-.6c0-.1-.1-.2-.2-.2s-.2,0-.2.2c0,.1,0,.3,0,.6ZM279.8,70c0,.6-.1,1-.4,1.3-.3.3-.6.5-1.1.5s-.8-.2-1.1-.5c-.3-.3-.4-.8-.4-1.3s.1-1,.4-1.3c.3-.3.6-.5,1.1-.5s.8.2,1.1.5c.3.3.4.8.4,1.3ZM282.7,68.3l-3.2,5.7h-1.2l3.2-5.7h1.2ZM282.4,72.3c0,.3,0,.5,0,.6,0,.1.1.2.2.2s.2,0,.2-.2c0-.2,0-.4,0-.6s0-.5,0-.6c0-.2-.1-.2-.2-.2s-.2,0-.2.2c0,.1,0,.4,0,.6ZM284.2,72.3c0,.6-.1,1-.4,1.3-.3.3-.6.5-1.1.5s-.8-.2-1.1-.5c-.3-.3-.4-.8-.4-1.3s.1-1,.4-1.3c.3-.3.6-.5,1.1-.5s.8.2,1.1.5c.3.3.4.8.4,1.3Z"/>
  <path class="st10" d="M12.9,178.2c0,1-.2,1.7-.5,2.2-.3.5-.8.7-1.5.7s-1.2-.2-1.5-.7c-.3-.5-.5-1.2-.5-2.2s.2-1.8.5-2.2c.3-.5.8-.7,1.5-.7s1.2.2,1.5.8c.3.5.5,1.2.5,2.2ZM10.1,178.2c0,.7,0,1.2.2,1.5.1.3.3.5.6.5s.5-.2.6-.5c.1-.3.2-.8.2-1.5s0-1.2-.2-1.5c-.1-.3-.3-.5-.6-.5s-.5.2-.6.5c-.1.3-.2.8-.2,1.5ZM14.5,177.1c0,.3,0,.6,0,.7,0,.2.2.2.3.2.2,0,.4-.3.4-1s-.1-1-.4-1-.2,0-.3.2c0,.2,0,.4,0,.7ZM16.2,177c0,.6-.1,1-.3,1.4-.2.3-.6.4-1,.4s-.8-.2-1-.5c-.2-.3-.4-.8-.4-1.3,0-1.2.4-1.8,1.3-1.8s.8.2,1,.5c.2.3.4.7.4,1.3ZM18.9,175.3l-3.2,5.7h-.9l3.2-5.7h.9ZM18.5,179.3c0,.3,0,.6,0,.7,0,.2.2.2.3.2.2,0,.4-.3.4-1s-.1-1-.4-1-.2,0-.3.2c0,.2,0,.4,0,.7ZM20.2,179.3c0,.6-.1,1-.3,1.3-.2.3-.6.4-1,.4s-.8-.2-1-.5c-.2-.3-.4-.8-.4-1.3,0-1.2.4-1.8,1.3-1.8s.8.2,1,.5c.2.3.4.7.4,1.3Z"/>
  <path class="st10" d="M8.4,149.2h-4v-.8l1.4-1.4c.4-.4.7-.7.8-.9.1-.2.2-.3.3-.5,0-.1,0-.3,0-.4,0-.2,0-.4-.2-.5-.1-.1-.3-.2-.5-.2s-.4,0-.6.2c-.2.1-.4.2-.7.4l-.7-.8c.3-.2.5-.4.7-.5.2,0,.4-.2.6-.2.2,0,.5,0,.7,0s.7,0,.9.2c.3.1.5.3.6.5.2.2.2.5.2.8s0,.5-.1.7c0,.2-.2.5-.4.7-.2.2-.5.6-1,1l-.7.7h0c0,0,2.5,0,2.5,0v1ZM11.1,145.5c.6,0,1,.2,1.3.5.3.3.5.7.5,1.3s-.2,1.1-.6,1.5c-.4.3-1,.5-1.7.5s-1.1-.1-1.5-.3v-1c.2.1.4.2.7.3.3,0,.5.1.8.1.7,0,1.1-.3,1.1-.9s-.4-.9-1.1-.9-.3,0-.5,0c-.2,0-.3,0-.4,0l-.5-.3.2-2.9h3.1v1h-2v1.1c-.1,0,0,0,0,0,.2,0,.4,0,.6,0ZM14.5,145.2c0,.3,0,.6,0,.7,0,.2.2.2.3.2.2,0,.4-.3.4-1s-.1-1-.4-1-.2,0-.3.2c0,.2,0,.4,0,.7ZM16.2,145.2c0,.6-.1,1-.3,1.4-.2.3-.6.5-1,.5s-.8-.2-1-.5c-.2-.3-.4-.8-.4-1.3,0-1.2.4-1.8,1.3-1.8s.8.2,1,.5c.2.3.4.7.4,1.3ZM18.9,143.5l-3.2,5.7h-.9l3.2-5.7h.9ZM18.5,147.5c0,.3,0,.6,0,.7,0,.2.2.2.3.2.2,0,.4-.3.4-1s-.1-1-.4-1-.2,0-.3.2c0,.2,0,.4,0,.7ZM20.2,147.5c0,.6-.1,1-.3,1.3-.2.3-.6.4-1,.4s-.8-.2-1-.5c-.2-.3-.4-.8-.4-1.3,0-1.2.4-1.8,1.3-1.8s.8.2,1,.5c.2.3.4.7.4,1.3Z"/>
  <path class="st10" d="M6.5,113.7c.6,0,1,.2,1.3.5.3.3.5.7.5,1.3s-.2,1.1-.6,1.5c-.4.3-1,.5-1.7.5s-1.1-.1-1.5-.3v-1c.2.1.4.2.7.3.3,0,.5.1.8.1.7,0,1.1-.3,1.1-.9s-.4-.9-1.1-.9-.3,0-.5,0c-.2,0-.3,0-.4,0l-.5-.3.2-2.9h3.1v1h-2v1.1c-.1,0,0,0,0,0,.2,0,.4,0,.6,0ZM12.9,114.4c0,1-.2,1.7-.5,2.2-.3.5-.8.7-1.5.7s-1.2-.2-1.5-.7c-.3-.5-.5-1.2-.5-2.2s.2-1.8.5-2.2c.3-.5.8-.7,1.5-.7s1.2.2,1.5.8c.3.5.5,1.2.5,2.2ZM10.2,114.4c0,.7,0,1.2.2,1.5.1.3.3.5.6.5s.5-.2.6-.5c.1-.3.2-.8.2-1.5s0-1.2-.2-1.5c-.1-.3-.3-.5-.6-.5s-.5.2-.6.5c-.1.3-.2.8-.2,1.5ZM14.5,113.3c0,.3,0,.6,0,.7,0,.2.2.2.3.2.2,0,.4-.3.4-1s-.1-1-.4-1-.2,0-.3.2c0,.2,0,.4,0,.7ZM16.2,113.3c0,.6-.1,1-.3,1.4-.2.3-.6.4-1,.4s-.8-.2-1-.5c-.2-.3-.4-.8-.4-1.3,0-1.2.4-1.8,1.3-1.8s.8.2,1,.5c.2.3.4.7.4,1.3ZM18.9,111.6l-3.2,5.7h-.9l3.2-5.7h.9ZM18.5,115.6c0,.3,0,.6,0,.7,0,.2.2.2.3.2.2,0,.4-.3.4-1s-.1-1-.4-1-.2,0-.3.2c0,.2,0,.4,0,.7ZM20.2,115.6c0,.6-.1,1-.3,1.3-.2.3-.6.4-1,.4s-.8-.2-1-.5c-.2-.3-.4-.8-.4-1.3,0-1.2.4-1.8,1.3-1.8s.8.2,1,.5c.2.3.4.7.4,1.3Z"/>
  <path class="st10" d="M5,85.4l2.1-4.7h-2.8v-1h4.1v.8l-2.2,4.9h-1.3ZM11.1,81.8c.6,0,1,.2,1.3.5.3.3.5.7.5,1.3s-.2,1.1-.6,1.5c-.4.3-1,.5-1.7.5s-1.1-.1-1.5-.3v-1c.2.1.4.2.7.3.3,0,.5.1.8.1.7,0,1.1-.3,1.1-.9s-.4-.9-1.1-.9-.3,0-.5,0c-.2,0-.3,0-.4,0l-.5-.3.2-2.9h3.1v1h-2v1.1c-.1,0,0,0,0,0,.2,0,.4,0,.6,0ZM14.5,81.4c0,.3,0,.6,0,.7,0,.2.2.2.3.2.2,0,.4-.3.4-1s-.1-1-.4-1-.2,0-.3.2c0,.2,0,.4,0,.7ZM16.2,81.4c0,.6-.1,1-.3,1.4-.2.3-.6.4-1,.4s-.8-.2-1-.5c-.2-.3-.4-.8-.4-1.3,0-1.2.4-1.8,1.3-1.8s.8.2,1,.5c.2.3.4.7.4,1.3ZM18.9,79.7l-3.2,5.7h-.9l3.2-5.7h.9ZM18.5,83.7c0,.3,0,.6,0,.7,0,.2.2.2.3.2.2,0,.4-.3.4-1s-.1-1-.4-1-.2,0-.3.2c0,.2,0,.4,0,.7ZM20.2,83.7c0,.6-.1,1-.3,1.3-.2.3-.6.4-1,.4s-.8-.2-1-.5c-.2-.3-.4-.8-.4-1.3,0-1.2.4-1.8,1.3-1.8s.8.2,1,.5c.2.3.4.7.4,1.3Z"/>
  <path class="st10" d="M2.8,53.5h-1.2v-3.8s0-.6,0-.6c-.2.2-.3.3-.4.4l-.7.5-.6-.7,1.8-1.5h1v5.7ZM8.4,50.7c0,1-.2,1.7-.5,2.2-.3.5-.8.7-1.5.7s-1.2-.2-1.5-.7c-.3-.5-.5-1.2-.5-2.2s.2-1.8.5-2.2c.3-.5.8-.7,1.5-.7s1.2.2,1.5.8c.3.5.5,1.2.5,2.2ZM5.6,50.7c0,.7,0,1.2.2,1.5.1.3.3.5.6.5s.5-.2.6-.5c.1-.3.2-.8.2-1.5s0-1.2-.2-1.5c-.1-.3-.3-.5-.6-.5s-.5.2-.6.5c-.1.3-.2.8-.2,1.5ZM12.9,50.7c0,1-.2,1.7-.5,2.2-.3.5-.8.7-1.5.7s-1.2-.2-1.5-.7c-.3-.5-.5-1.2-.5-2.2s.2-1.8.5-2.2c.3-.5.8-.7,1.5-.7s1.2.2,1.5.8c.3.5.5,1.2.5,2.2ZM10.2,50.7c0,.7,0,1.2.2,1.5.1.3.3.5.6.5s.5-.2.6-.5c.1-.3.2-.8.2-1.5s0-1.2-.2-1.5c-.1-.3-.3-.5-.6-.5s-.5.2-.6.5c-.1.3-.2.8-.2,1.5ZM14.5,49.5c0,.3,0,.6,0,.7,0,.2.2.2.3.2.2,0,.4-.3.4-1s-.1-1-.4-1-.2,0-.3.2c0,.2,0,.4,0,.7ZM16.2,49.5c0,.6-.1,1-.3,1.4-.2.3-.6.4-1,.4s-.8-.2-1-.5c-.2-.3-.4-.8-.4-1.3,0-1.2.4-1.8,1.3-1.8s.8.2,1,.5c.2.3.4.7.4,1.3ZM18.9,47.8l-3.2,5.7h-.9l3.2-5.7h.9ZM18.5,51.8c0,.3,0,.6,0,.7,0,.2.2.2.3.2.2,0,.4-.3.4-1s-.1-1-.4-1-.2,0-.3.2c0,.2,0,.4,0,.7ZM20.2,51.8c0,.6-.1,1-.3,1.3-.2.3-.6.4-1,.4s-.8-.2-1-.5c-.2-.3-.4-.8-.4-1.3,0-1.2.4-1.8,1.3-1.8s.8.2,1,.5c.2.3.4.7.4,1.3Z"/>
  <path class="st7" d="M275.8,177.3H25.8"/>
  <path class="st7" d="M28.8,180.3V50.3"/>
  <path class="st7" d="M275.8,180.3v-3"/>
  <path class="st7" d="M275.8,82.3l-49.4,6.5-49.4-21.1-49.4,6.5-49.4,17.4L28.8,50.3"/>
  <path class="st7" d="M275.8,82.3v1"/>
  <path class="st2" d="M275.8,90v83"/>
  <path class="st7" d="M275.8,176.3v1"/>
  <path class="st7" d="M226.4,88.8v1"/>
  <path class="st1" d="M226.4,96.7v76.2"/>
  <path class="st7" d="M226.4,176.3v1"/>
  <path class="st7" d="M177,67.7v1"/>
  <path class="st6" d="M177,75.8v96.9"/>
  <path class="st7" d="M177,176.3v1"/>
  <path class="st7" d="M127.6,74.3v1"/>
  <path class="st3" d="M127.6,82.6v90.1"/>
  <path class="st7" d="M127.6,176.3v1"/>
  <path class="st7" d="M78.2,91.7v1"/>
  <path class="st5" d="M78.2,99.4v73.6"/>
  <path class="st7" d="M78.2,176.3v1"/>
  <path class="st0" d="M275.8,86.8c2.5,0,4.5-2,4.5-4.5s-2-4.5-4.5-4.5-4.5,2-4.5,4.5,2,4.5,4.5,4.5Z"/>
  <path class="st10" d="M275.8,79.3c1.7,0,3,1.3,3,3s-1.3,3-3,3-3-1.3-3-3,1.3-3,3-3ZM275.8,76.3c-3.3,0-6,2.7-6,6s2.7,6,6,6,6-2.7,6-6-2.7-6-6-6Z"/>
  <path class="st0" d="M226.4,93.3c2.5,0,4.5-2,4.5-4.5s-2-4.5-4.5-4.5-4.5,2-4.5,4.5,2,4.5,4.5,4.5Z"/>
  <path class="st10" d="M226.4,85.8c1.7,0,3,1.3,3,3s-1.3,3-3,3-3-1.3-3-3,1.3-3,3-3ZM226.4,82.8c-3.3,0-6,2.7-6,6s2.7,6,6,6,6-2.7,6-6-2.7-6-6-6Z"/>
  <path class="st0" d="M177,72.2c2.5,0,4.5-2,4.5-4.5s-2-4.5-4.5-4.5-4.5,2-4.5,4.5,2,4.5,4.5,4.5Z"/>
  <path class="st10" d="M177,64.7c1.7,0,3,1.3,3,3s-1.3,3-3,3-3-1.3-3-3,1.3-3,3-3ZM177,61.7c-3.3,0-6,2.7-6,6s2.7,6,6,6,6-2.7,6-6-2.7-6-6-6Z"/>
  <path class="st0" d="M127.6,78.8c2.5,0,4.5-2,4.5-4.5s-2-4.5-4.5-4.5-4.5,2-4.5,4.5,2,4.5,4.5,4.5Z"/>
  <path class="st10" d="M127.6,71.3c1.7,0,3,1.3,3,3s-1.3,3-3,3-3-1.3-3-3,1.3-3,3-3ZM127.6,68.3c-3.3,0-6,2.7-6,6s2.7,6,6,6,6-2.7,6-6-2.7-6-6-6Z"/>
  <path class="st0" d="M78.2,96.2c2.5,0,4.5-2,4.5-4.5s-2-4.5-4.5-4.5-4.5,2-4.5,4.5,2,4.5,4.5,4.5Z"/>
  <path class="st10" d="M78.2,88.7c1.7,0,3,1.3,3,3s-1.3,3-3,3-3-1.3-3-3,1.3-3,3-3ZM78.2,85.7c-3.3,0-6,2.7-6,6s2.7,6,6,6,6-2.7,6-6-2.7-6-6-6Z"/>
  <path class="st0" d="M28.8,54.8c2.5,0,4.5-2,4.5-4.5s-2-4.5-4.5-4.5-4.5,2-4.5,4.5,2,4.5,4.5,4.5Z"/>
  <path class="st10" d="M28.8,47.3c1.7,0,3,1.3,3,3s-1.3,3-3,3-3-1.3-3-3,1.3-3,3-3ZM28.8,44.3c-3.3,0-6,2.7-6,6s2.7,6,6,6,6-2.7,6-6-2.7-6-6-6Z"/>
</svg>