<svg xmlns="http://www.w3.org/2000/svg" width="106" height="58" data-name="Layer 1"><path d="M24.826 30.178q-.267.049-.614.161c-.347.112-.471.126-.72.155a2 2 0 0 1-.719-.068q-.357-.1-.657-.47-.289-.372-.489-1.077t-.26-1.888q-.351.018-.54.228a1.2 1.2 0 0 0-.256.506 2.8 2.8 0 0 0-.06.672q.006.363.047.702.053.338.102.617.05.279.056.408l-2.352.123q-.024 0-.112.1a2 2 0 0 0-.133.16.2.2 0 0 0-.009.059.188.188 0 0 0 .006.129.1.1 0 0 0 .015.058q.026.045.125.146.099.089.145.086l2.285.397q.367.063.55.429.182.354.279.877.108.511.173 1.106.066.596.198 1.128.132.52.362.896.241.375.693.468.178.05.27-.002a.3.3 0 0 0 .147-.113.4.4 0 0 0 .061-.179 1 1 0 0 0 .013-.2 3 3 0 0 0-.214-.986 16 16 0 0 0-.411-.941 25 25 0 0 1-.4-.941 3.2 3.2 0 0 1-.215-.998q-.002-.047.002-.188a3 3 0 0 0 .002-.2l.328-.017q.222-.024.49-.061.268-.038.571-.077.303-.051.57-.089.268-.037.477-.072.22-.047.314-.063.313-.075.413-.186.111-.111.099-.357-.017-.327-.185-.401-.168-.085-.448-.035ZM17.66 35.341a.6.6 0 0 0-.202-.048 2.71 2.71 0 0 0-.724.074 10 10 0 0 0-.463.13 10 10 0 0 1-.463.13 2.6 2.6 0 0 1-.501.073 8 8 0 0 1-.586.007 3 3 0 0 1-.639-.107 1.5 1.5 0 0 1-.542-.277.78.78 0 0 1-.25-.538q.626.084 1.212-.157a3.2 3.2 0 0 0 1.021-.699q.445-.458.687-1.033a2.6 2.6 0 0 0 .222-1.173 2.2 2.2 0 0 0-.153-.708 1.6 1.6 0 0 0-.359-.591 1.6 1.6 0 0 0-.571-.381 1.7 1.7 0 0 0-.769-.124q-.76.04-1.283.384-.51.343-.825.865a3.6 3.6 0 0 0-.422 1.16q-.12.64-.088 1.272.037.738.279 1.335.252.585.684.997.43.4 1.04.614.608.203 1.358.164.117-.006.35-.03.246-.014.525-.051.29-.05.593-.113a2.7 2.7 0 0 0 .542-.193q.252-.119.409-.268a.5.5 0 0 0 .145-.383.35.35 0 0 0-.069-.208.3.3 0 0 0-.159-.121Zm-4.421-3.195q.09-.321.276-.578.186-.268.459-.435.284-.18.635-.198a.6.6 0 0 1 .38.086.7.7 0 0 1 .259.245.8.8 0 0 1 .134.333q.045.186.053.361.017.316-.111.593a1.5 1.5 0 0 1-.362.488q-.224.211-.511.344-.287.12-.591.137-.433.022-.56-.158-.115-.181-.135-.591a1.9 1.9 0 0 1 .074-.626ZM26.768 12.462a.8.8 0 0 0 .199-.233.9.9 0 0 0 .114-.299 1.4 1.4 0 0 0 .02-.294 2.3 2.3 0 0 0-.18-.765 73 73 0 0 0-.347-.827 11 11 0 0 1-.341-.944 3.5 3.5 0 0 1-.125-1.073q0-.012-.038-.045a.4.4 0 0 0-.086-.078.3.3 0 0 0-.074-.067l-.049-.044a.2.2 0 0 1-.071-.008q-.011 0-.035.002-.024-.01-.036-.01c-.012 0-.019.005-.034.014l-.035.002a.2.2 0 0 1-.058.015l-.122.135a1 1 0 0 0-.099.123q.004.093.004.305l.023.456q.012.234.011.457l.015.293q.006.117.008.399.002.27.019.609.028.327.082.688t.163.66q.108.288.293.466a.62.62 0 0 0 .466.163.54.54 0 0 0 .312-.099ZM34.201 14.431q.456-.024.713-.284t.413-.644q.156-.396.238-.869.081-.474.188-.925a4.7 4.7 0 0 1 .274-.847q.18-.397.509-.602.458.469.785 1.132c.327.663.402.902.551 1.379q.235.703.399 1.399l.299 1.263q.003.059.066.137a2.3 2.3 0 0 0 .307.278.5.5 0 0 0 .143.051q.202.048.305-.004a.36.36 0 0 0 .144-.16.7.7 0 0 0 .047-.226 3 3 0 0 0 0-.235 7 7 0 0 0-.123-.815q-.111-.57-.311-1.275-.2-.706-.485-1.465a7.6 7.6 0 0 0-.645-1.374 4.1 4.1 0 0 0-.825-1.001q-.442-.387-.969-.36-.445.024-.689.306-.232.27-.364.688c-.132.418-.154.583-.2.914q-.057.484-.14.946-.082.45-.229.81a.93.93 0 0 1-.433.492 3.4 3.4 0 0 1-.568-.557 43 43 0 0 1-.59-.755 54 54 0 0 0-.616-.813 6 6 0 0 0-.635-.729 3 3 0 0 0-.684-.527 1.35 1.35 0 0 0-.736-.173.37.37 0 0 0-.274.143q-.1.123-.161.29a4 4 0 0 0-.088.345 2 2 0 0 0-.046.249q.006.129.011.445l.034.679q.018.351.023.68l.023.456q.035.702.113 1.308.09.605.19 1.199.113.593.237 1.196t.241 1.278q.023 0 .059.009a.3.3 0 0 0 .059.009.2.2 0 0 0 .07-.015q.035-.002.046-.014l.113-.088q.078-.075.145-.16l.144-.16q.066-.086.088-.122l-.005-.094a5 5 0 0 0-.143-.966 33 33 0 0 0-.225-.962 40 40 0 0 1-.224-.951 6 6 0 0 1-.132-.979l-.03-.597q-.001-.27.008-.529.022-.26.055-.531.043-.284.12-.652.256.186.507.513.263.327.529.712.278.372.555.769.29.384.587.708.297.313.601.508.315.183.63.166ZM74.717 10.008q.003.07 0 .235.008.164.005.34.01.175.005.34l.011.222.032.632q.033.41.081.899.06.49.168 1 .107.499.257.914.162.402.397.66c.235.258.345.252.564.24q.538-.029.512-.555a6.2 6.2 0 0 0-.219-1.303q-.175-.695-.399-1.399a55 55 0 0 1-.424-1.421 8 8 0 0 1-.267-1.336 2.5 2.5 0 0 0-.412.209 1 1 0 0 0-.312.321ZM32.079 32.755a17 17 0 0 0-.207-1.303 4 4 0 0 0-.398-1.141 2.1 2.1 0 0 0-.769-.816q-.496-.314-1.344-.352a2.4 2.4 0 0 0-.95.249q-.435.21-.816.559a4.1 4.1 0 0 0-.675.798 5.6 5.6 0 0 0-.504.93q-.2.48-.291.966a4 4 0 0 0-.07.931q.059 1.148.614 1.704.556.546 1.644.489.503-.027.839-.126.347-.1.643-.28t.6-.43q.315-.262.745-.591.354.732.585 1.131.243.398.412.495t.29-.074q.133-.16.265-.554a4.3 4.3 0 0 1-.403-1.234q-.117-.675-.209-1.35Zm-1.674.545a2.35 2.35 0 0 1-.49.753 2.6 2.6 0 0 1-.749.509 2.6 2.6 0 0 1-.904.212q-.644.033-.917-.257-.261-.303-.295-.97a3.2 3.2 0 0 1 .154-1.123q.181-.597.531-1.096t.85-.831a2.1 2.1 0 0 1 1.107-.375.54.54 0 0 1 .506.255q.177.261.255.632t.085.758q.007.375.018.586.026.515-.151.947M39.503 26.674a.4.4 0 0 0-.298.145 1 1 0 0 0-.184.303q-.062.179-.086.38a3 3 0 0 0-.007.317q.015.293-.019.787l-.051 1.082q-.017.588-.042 1.258-.014.659.007 1.302.02.633.085 1.216.077.582.228 1.021t.399.695a.82.82 0 0 0 .633.225q.188-.01.302-.051.128-.042.198-.257a6 6 0 0 1-.192-1.234 3 3 0 0 1 .098-.85q.1-.345.289-.543.19-.21.395-.314a1.2 1.2 0 0 1 .404-.127 3 3 0 0 1 .35-.042q.397-.02.63.167.243.175.388.473.144.286.186.659.054.372.061.736.018.363.012.692-.007.317.002.505.375-.02.553-.205a.96.96 0 0 0 .247-.459 2 2 0 0 0 .053-.578 16 16 0 0 0-.017-.562 3.3 3.3 0 0 0-.19-.976 2.2 2.2 0 0 0-.439-.787 1.85 1.85 0 0 0-.718-.514q-.42-.177-.993-.148a2.9 2.9 0 0 0-.918.177 1.7 1.7 0 0 0-.579.382 1.6 1.6 0 0 0-.337.522 3 3 0 0 0-.147.571 3.3 3.3 0 0 0-.019.552q.024.257.058.443a1.5 1.5 0 0 1-.165-.707q.002-.422.046-.953.056-.531.141-1.157.085-.638.11-1.308.024-.682-.047-1.394a6.7 6.7 0 0 0-.307-1.427.4.4 0 0 1-.059-.009l-.059-.009ZM14.773 15.414q.239.539.549 1.109.31.559.638 1.023.34.463.672.763.331.288.624.272.526-.028.502-.519a2.5 2.5 0 0 0-.072-.489 7 7 0 0 0-.129-.463 10 10 0 0 1-.129-.463 2.6 2.6 0 0 1-.071-.477q-.016-.305-.01-.668.016-.377.117-.71.1-.345.311-.58.222-.246.632-.268.024 0 .036.01.023 0 .047-.003.012.011.036.01l.529.477.117-.006a.96.96 0 0 0 .451-.129q.206-.116.192-.374a1.2 1.2 0 0 0-.144-.532 1.2 1.2 0 0 0-.336-.381 1.2 1.2 0 0 0-.458-.234 1.5 1.5 0 0 0-.531-.066q-.55.028-.922.33-.36.3-.62.737a4.7 4.7 0 0 0-.411.913q-.163.49-.294.907a2 2 0 0 1-.093-.206 8 8 0 0 0-.211-.458 9 9 0 0 0-.288-.595 6 6 0 0 0-.323-.581 2.6 2.6 0 0 0-.327-.44q-.15-.18-.267-.174a.37.37 0 0 0-.219.07.36.36 0 0 0-.098.158.7.7 0 0 0-.037.201 2 2 0 0 0-.001.211q.01.211.15.649.152.438.39.977ZM42.522 16.999q.503-.027.838-.126.347-.1.643-.28t.6-.43q.315-.263.745-.591.354.732.585 1.131.243.398.412.495t.29-.074q.133-.16.265-.554-.286-.56-.403-1.235c-.117-.675-.147-.9-.209-1.35a17 17 0 0 0-.207-1.303 4 4 0 0 0-.398-1.141 2.1 2.1 0 0 0-.769-.816q-.497-.315-1.344-.352a2.4 2.4 0 0 0-.95.249q-.435.21-.816.559a4.1 4.1 0 0 0-.675.798 5.6 5.6 0 0 0-.504.93 5 5 0 0 0-.291.966 4 4 0 0 0-.07.931q.058 1.147.614 1.705.555.546 1.644.489Zm-1.108-3.345q.181-.597.531-1.096t.85-.831a2.1 2.1 0 0 1 1.107-.375.53.53 0 0 1 .506.255q.177.26.255.632.078.371.085.758.008.375.018.586a2.2 2.2 0 0 1-.152.947 2.35 2.35 0 0 1-.49.753 2.6 2.6 0 0 1-.749.509 2.6 2.6 0 0 1-.904.212q-.644.034-.917-.257-.261-.303-.296-.97a3.2 3.2 0 0 1 .154-1.123ZM27.522 9.735a21 21 0 0 0 .156.766q.09.394.213.728.133.321.297.536.162.202.362.192.55-.029.524-.532 0-.012-.038-.28-.037-.268-.116-.663a26 26 0 0 0-.16-.848 6 6 0 0 0-.206-.834 3.5 3.5 0 0 0-.267-.643q-.142-.25-.294-.243a.5.5 0 0 0-.254.084.6.6 0 0 0-.191.174 1 1 0 0 0-.105.252.8.8 0 0 0-.034.26 13 13 0 0 0 .112 1.05ZM74.974 7.659q.242-.083.246-.248.014-.177-.148-.38a.9.9 0 0 0-.39-.285q-.328.017-.445.258-.105.24-.089.556.583.169.826.098ZM12.566 17.935q.295-.427.48-.952.196-.527.31-1.061a7 7 0 0 0 .158-1.053 8 8 0 0 0 .013-.904 8 8 0 0 1-.008-.399q0-.258-.016-.539a5 5 0 0 0-.064-.56 1.7 1.7 0 0 0-.143-.509.9.9 0 0 0-.252-.351.54.54 0 0 0-.406-.131.7.7 0 0 0-.358.113q-.148.102-.136.324.012.246.06.49.058.231.13.474c.072.243.087.328.119.498q.06.243.074.524a7.655 7.655 0 0 1-.079 1.447 6 6 0 0 1-.182.807 2.9 2.9 0 0 1-.303.732 1.9 1.9 0 0 1-.477.541 1.1 1.1 0 0 1-.645.233.84.84 0 0 1-.548-.159 2.2 2.2 0 0 1-.433-.447 3.7 3.7 0 0 1-.361-.638 9 9 0 0 1-.259-.714 9 9 0 0 1-.164-.684 4 4 0 0 1-.075-.559 2 2 0 0 1 .021-.271q.036-.224.069-.485.034-.26.058-.472a9 9 0 0 1 .033-.283l-.008-.152-.005-.094q-.163-.19-.316-.218a.4.4 0 0 0-.268.038.63.63 0 0 0-.225.199q-.099.135-.174.279.004.07 0 .246l.018.363q.01.2.008.387l.012.246q.018.363.079.864.072.489.192 1.011.132.52.346 1.038.215.517.504.924.302.395.713.632.41.225.937.197.503-.026.889-.293.397-.267.681-.681ZM11.195 33.966a16 16 0 0 0-.311-1.274 19 19 0 0 0-.485-1.465 7.6 7.6 0 0 0-.645-1.374 4.1 4.1 0 0 0-.825-1.001q-.442-.387-.969-.36-.444.023-.689.306-.232.27-.364.688a5.6 5.6 0 0 0-.2.914q-.057.484-.14.946-.082.45-.229.81a.93.93 0 0 1-.433.492 3.3 3.3 0 0 1-.568-.557 43 43 0 0 1-.59-.755 54 54 0 0 0-.616-.813 6 6 0 0 0-.635-.729 3 3 0 0 0-.684-.527 1.35 1.35 0 0 0-.736-.173.37.37 0 0 0-.274.143q-.1.123-.161.29a4 4 0 0 0-.088.345 2 2 0 0 0-.046.249q.006.129.011.445l.034.679q.017.351.023.679l.023.457q.036.702.113 1.308.09.605.19 1.199.113.593.237 1.196t.241 1.278q.023 0 .059.009c.036.009.044.01.059.009a.2.2 0 0 0 .07-.015q.035-.002.046-.014l.113-.088q.078-.075.144-.16l.144-.16q.066-.086.088-.122l-.005-.094a5 5 0 0 0-.143-.966q-.106-.488-.225-.962c-.119-.474-.153-.633-.224-.951a6 6 0 0 1-.132-.979l-.03-.597q-.001-.27.008-.529.022-.26.055-.531.044-.283.12-.652.256.186.507.513.263.327.529.712.278.372.555.769.29.384.587.708.298.313.601.508.315.182.63.167.456-.023.713-.284t.413-.644q.156-.395.238-.869t.188-.925q.106-.463.274-.848.18-.396.509-.602.458.47.785 1.132.327.663.551 1.379.236.703.399 1.399l.299 1.263q.003.059.066.137a2.3 2.3 0 0 0 .307.277.5.5 0 0 0 .143.051q.202.048.305-.004a.36.36 0 0 0 .144-.16.7.7 0 0 0 .047-.225 3 3 0 0 0 0-.235 7 7 0 0 0-.123-.815ZM2.075 19.083q.495.267 1.15.233 1.1-.057 1.919-.558a4.5 4.5 0 0 0 1.366-1.292 5.5 5.5 0 0 0 .779-1.754q.244-.975.194-1.958a4 4 0 0 0-.208-1.092 2.9 2.9 0 0 0-.517-.947 2.3 2.3 0 0 0-.83-.625q-.481-.233-1.125-.199a3.6 3.6 0 0 0-1.218.275 4.1 4.1 0 0 0-1.06.619 4.8 4.8 0 0 0-.858.89 5.6 5.6 0 0 0-.649 1.078 6 6 0 0 0-.385 1.205 5 5 0 0 0-.091 1.213q.029.573.199 1.151.181.565.51 1.029.34.452.823.731Zm-.49-3.893a2.5 2.5 0 0 1 .272-.883 1.8 1.8 0 0 1 .591-.618 3.9 3.9 0 0 1 .964-.438.5.5 0 0 0 .146-.125q.088-.11.087-.134c-.001-.024-.014-.046-.04-.092a2 2 0 0 0-.09-.16 3 3 0 0 0-.101-.147.4.4 0 0 1-.04-.103q-.01-.187.184-.303.205-.117.472-.177a3.3 3.3 0 0 1 .535-.099q.28-.027.444-.035.515-.027.795.181.291.197.438.54.146.333.191.753.044.42.065.818.035.69-.187 1.406a4.4 4.4 0 0 1-.661 1.314 4 4 0 0 1-1.065.983 2.94 2.94 0 0 1-1.41.426 1.13 1.13 0 0 1-.665-.165 1.8 1.8 0 0 1-.493-.467 2.5 2.5 0 0 1-.325-.628 2.3 2.3 0 0 1-.139-.662 6.5 6.5 0 0 1 .034-1.187ZM104.606 28.379a.94.94 0 0 0-.495-.291 1.9 1.9 0 0 0-.696-.057 10 10 0 0 0-.794.077q-.396.055-.781.1a3 3 0 0 1-.693-.011 1.04 1.04 0 0 1-.504-.22q-.195-.166-.215-.54-.026-.504.147-.817.17-.326.431-.527.27-.214.604-.349l.632-.256q.31-.122.538-.275a.7.7 0 0 0 .307-.415 2.5 2.5 0 0 0-.468-.445 1.5 1.5 0 0 0-.577-.263 8 8 0 0 0-.98.568 4.5 4.5 0 0 0-.854.737 3.1 3.1 0 0 0-.599.935 2.7 2.7 0 0 0-.177 1.148q.028.538.232.88.216.329.554.499.336.17.75.219.425.048.87.037.445-.024.888-.07.444-.059.818-.078.218.13.228.34a.94.94 0 0 1-.117.464 2.7 2.7 0 0 1-.338.511q-.221.27-.478.518-.258.248-.516.473-.248.213-.428.351a.9.9 0 0 0 .088.347q.09.171.336.158.257-.013.542-.193.295-.191.575-.464.291-.285.543-.627a5 5 0 0 0 .742-1.33q.114-.3.105-.487-.022-.433-.221-.646ZM78.435 14.847q.249.268.51.349.261.069.544-.157.007-.071.027-.4.018-.342.077-.79.058-.461.151-.958.104-.498.283-.895c.179-.397.261-.475.426-.633a.62.62 0 0 1 .601-.172.3.3 0 0 1 .085.054q.074.055.159.133t.16.156l.135.122q.113.146.206.365.093.207.176.46.082.242.156.532.072.277.121.534.138.638.244 1.337l.854-.045a19 19 0 0 0-.066-.841 8 8 0 0 0-.146-1.025q-.098-.535-.264-1.042c-.166-.507-.263-.635-.456-.891a2 2 0 0 0-.688-.621q-.41-.237-.973-.207l-.258.014a2.2 2.2 0 0 0-.676.317 2.885 2.885 0 0 0-1.052 1.24 1.9 1.9 0 0 0-.159.795 1.1 1.1 0 0 1-.333-.323 3.32 3.32 0 0 1-.413-.964l-.104-.429-.117.006q-.34.018-.484.166-.145.136-.13.441.114.405.256.878.153.473.329.945.175.46.373.872.208.411.445.681ZM83.406 31.895q-.096-.042-.202-.048c-.106-.006-.141-.004-.211 0a2.7 2.7 0 0 0-.513.074 10 10 0 0 0-.463.13q-.23.07-.463.13a2.6 2.6 0 0 1-.501.073 8 8 0 0 1-.586.007 3 3 0 0 1-.639-.107 1.5 1.5 0 0 1-.542-.277.78.78 0 0 1-.25-.538q.626.084 1.212-.157.585-.254 1.021-.699.445-.458.687-1.034a2.6 2.6 0 0 0 .222-1.173 2.2 2.2 0 0 0-.153-.708q-.123-.346-.359-.591a1.3 1.3 0 0 0-.571-.381 1.7 1.7 0 0 0-.769-.124q-.76.04-1.283.384a2.7 2.7 0 0 0-.825.865 3.6 3.6 0 0 0-.422 1.16q-.12.64-.088 1.272.037.738.279 1.335.252.585.684.997.43.4 1.04.614.609.203 1.358.164.117-.006.351-.03.246-.014.525-.051.291-.05.593-.113a2.7 2.7 0 0 0 .542-.193q.252-.119.409-.268a.5.5 0 0 0 .145-.383.35.35 0 0 0-.069-.208.3.3 0 0 0-.159-.121Zm-4.422-3.194q.09-.321.276-.578a1.5 1.5 0 0 1 .459-.435q.284-.18.635-.198a.6.6 0 0 1 .38.086.7.7 0 0 1 .259.245.8.8 0 0 1 .134.333q.045.186.054.361.016.316-.111.592a1.5 1.5 0 0 1-.362.488q-.224.211-.511.344-.288.12-.591.137-.433.022-.56-.158-.115-.181-.135-.591a1.9 1.9 0 0 1 .074-.626ZM84.772 13.693q.367.075.871.048.386-.02.722-.108.335-.1.645-.245t.593-.348q.282-.215.575-.464.324.147.578.533.266.373.456.891.19.507.325 1.086.147.579.234 1.138t.135 1.037q.06.478.074.771.029.574-.143 1.11a2.8 2.8 0 0 1-.502.977q-.33.44-.833.701a2.7 2.7 0 0 1-1.158.307q-.882-.036-1.313.022-.432.058-.532.145-.088.099.105.218.206.118.585.192.38.085.897.094.516.008 1.063-.091a4 4 0 0 0 1.074-.338q.538-.252.939-.695.412-.432.637-1.101.237-.657.189-1.594a11.5 11.5 0 0 0-.333-2.177 25 25 0 0 0-.64-2.208q-.372-1.095-.777-2.13t-.72-1.934a1.8 1.8 0 0 0-.22-.411.56.56 0 0 0-.246-.222.75.75 0 0 0-.344-.076 4 4 0 0 0-.504.003 3 3 0 0 0-.72.143q-.393.126-.804.347a7 7 0 0 0-.784.51 4.8 4.8 0 0 0-.672.634q-.288.332-.457.716a1.6 1.6 0 0 0-.149.759q.027.55.163.907.135.357.381.567.257.21.613.285Zm.025-2.512q.25-.4.76-.756.521-.367 1.378-.6.258-.014.393.109a.67.67 0 0 1 .192.319q.056.185.056.419l.022.433q-.416.831-.851 1.265-.424.433-.815.583-.392.138-.714.026a1.04 1.04 0 0 1-.489-.385 1.1 1.1 0 0 1-.173-.636 1.5 1.5 0 0 1 .242-.775ZM76.539 29.533a1.9 1.9 0 0 0-.695-.057 9 9 0 0 0-.794.077q-.396.055-.781.1a3 3 0 0 1-.693-.011 1.04 1.04 0 0 1-.504-.22q-.197-.166-.215-.54-.025-.504.146-.817a1.6 1.6 0 0 1 .431-.527q.27-.214.604-.349l.632-.256q.31-.122.538-.275a.69.69 0 0 0 .307-.415 2.5 2.5 0 0 0-.468-.445 1.5 1.5 0 0 0-.576-.263 8 8 0 0 0-.98.568 4.5 4.5 0 0 0-.854.737 3.1 3.1 0 0 0-.598.935 2.7 2.7 0 0 0-.177 1.148q.028.538.232.88.216.329.553.499t.75.219q.424.048.87.036.444-.024.888-.07.443-.059.817-.078.218.13.228.34a.94.94 0 0 1-.117.464 2.6 2.6 0 0 1-.338.51 6 6 0 0 1-.478.518q-.258.248-.516.473-.248.213-.428.351a.9.9 0 0 0 .088.347q.09.171.337.158.257-.013.542-.193.296-.191.575-.464.291-.285.543-.627a5 5 0 0 0 .743-1.33q.114-.3.104-.487-.022-.433-.22-.646a.95.95 0 0 0-.496-.291ZM98.677 31.095a.6.6 0 0 0-.202-.048 2.722 2.722 0 0 0-.724.074 10 10 0 0 0-.463.13 10 10 0 0 1-.463.13 2.6 2.6 0 0 1-.501.073 8 8 0 0 1-.586.007 3 3 0 0 1-.639-.107 1.5 1.5 0 0 1-.542-.277.79.79 0 0 1-.25-.538q.626.084 1.212-.157.586-.253 1.021-.699.445-.457.687-1.033.252-.577.222-1.173a2.2 2.2 0 0 0-.153-.708 1.6 1.6 0 0 0-.358-.591 1.6 1.6 0 0 0-.571-.381 1.7 1.7 0 0 0-.769-.124q-.76.04-1.283.384-.51.343-.824.865a3.6 3.6 0 0 0-.422 1.16q-.12.64-.088 1.272.038.738.279 1.335.253.585.684.997.43.4 1.04.614.609.203 1.358.164.117-.006.351-.03.246-.014.525-.051.29-.05.593-.113a2.7 2.7 0 0 0 .542-.193q.252-.118.409-.268a.5.5 0 0 0 .145-.383.35.35 0 0 0-.069-.208.3.3 0 0 0-.159-.121ZM94.256 27.9q.09-.321.276-.578a1.5 1.5 0 0 1 .459-.435q.284-.178.635-.198a.6.6 0 0 1 .38.086.7.7 0 0 1 .259.245.8.8 0 0 1 .134.333q.045.186.053.361.017.316-.111.593a1.5 1.5 0 0 1-.362.488q-.224.211-.511.344a1.8 1.8 0 0 1-.591.137q-.433.022-.56-.158-.115-.181-.135-.591a1.9 1.9 0 0 1 .074-.626ZM92.046 29.424q-.224-.716-.424-1.421c-.2-.705-.222-.915-.267-1.336a2.5 2.5 0 0 0-.412.209 1 1 0 0 0-.312.322q.003.07 0 .235.008.164.005.34.01.175.005.34l.011.222.032.632q.033.41.081.899.06.49.168 1 .108.499.257.914.161.402.397.66a.68.68 0 0 0 .564.24q.538-.028.512-.555a6.2 6.2 0 0 0-.219-1.303q-.176-.695-.399-1.399ZM71.094 13.307a25 25 0 0 1-.4-.941 3.2 3.2 0 0 1-.215-.998q-.002-.047.002-.188a3 3 0 0 0 .002-.2l.328-.017q.222-.024.49-.061.268-.038.571-.077.303-.051.57-.089.268-.037.478-.072.22-.046.314-.063.313-.075.413-.186.112-.111.099-.357-.017-.327-.185-.401-.168-.085-.448-.035a5 5 0 0 0-.614.161 3.7 3.7 0 0 1-.72.155 2 2 0 0 1-.719-.068q-.357-.099-.657-.47-.289-.372-.489-1.077t-.26-1.887q-.351.018-.54.228a1.16 1.16 0 0 0-.256.506 2.8 2.8 0 0 0-.06.672q.006.363.047.702.053.338.102.617c.049.279.052.322.056.408l-2.352.123q-.024 0-.112.1a2 2 0 0 0-.133.159.2.2 0 0 0-.009.059.13.13 0 0 0-.009.059.2.2 0 0 0 .015.07.1.1 0 0 0 .015.058q.026.045.125.146.099.089.145.086l2.285.397q.367.063.55.429.183.354.279.877.108.51.173 1.106.065.595.198 1.128.132.52.362.896.242.375.693.468.179.05.27-.002a.3.3 0 0 0 .147-.113.4.4 0 0 0 .061-.179 1 1 0 0 0 .013-.2 3 3 0 0 0-.214-.986 16 16 0 0 0-.411-.941ZM89.255 27.376a1.15 1.15 0 0 0-.458-.234 1.5 1.5 0 0 0-.531-.066q-.55.029-.922.33-.36.3-.62.737a4.8 4.8 0 0 0-.411.913q-.163.49-.294.907a2 2 0 0 1-.093-.206 7 7 0 0 0-.211-.458 9 9 0 0 0-.288-.595 6 6 0 0 0-.323-.582 2.6 2.6 0 0 0-.327-.44q-.15-.18-.267-.174a.37.37 0 0 0-.219.07.37.37 0 0 0-.098.158.7.7 0 0 0-.037.201 2 2 0 0 0-.001.211q.01.21.15.649.151.438.39.977t.549 1.11q.31.558.638 1.023.34.463.672.763.332.288.624.272.526-.027.502-.519a2.5 2.5 0 0 0-.072-.489 7 7 0 0 0-.129-.463 10 10 0 0 1-.129-.463 2.6 2.6 0 0 1-.071-.477q-.016-.305-.01-.668.016-.377.117-.71.1-.346.311-.58.222-.247.632-.268.024 0 .036.01l.047-.002q.012.011.036.01l.529.477.117-.006a.96.96 0 0 0 .451-.129q.205-.116.192-.374a1.2 1.2 0 0 0-.144-.532 1.2 1.2 0 0 0-.336-.381ZM91.133 24.602q.014-.177-.148-.38a.9.9 0 0 0-.39-.285q-.328.016-.445.258-.105.24-.089.556.583.169.826.098.242-.083.246-.247M61.115 30.341a1.9 1.9 0 0 0-.695-.058 10 10 0 0 0-.794.077q-.396.056-.781.1a3 3 0 0 1-.693-.011 1.04 1.04 0 0 1-.504-.22q-.196-.166-.215-.54-.025-.504.146-.817a1.6 1.6 0 0 1 .431-.527q.271-.214.604-.349l.632-.256q.31-.122.538-.275a.69.69 0 0 0 .307-.415 2.5 2.5 0 0 0-.468-.445 1.5 1.5 0 0 0-.577-.263 8 8 0 0 0-.98.568 4.5 4.5 0 0 0-.854.737 3.1 3.1 0 0 0-.598.935 2.7 2.7 0 0 0-.177 1.148q.027.538.232.88.216.329.553.499c.337.17.475.186.75.219q.425.048.87.036.445-.024.888-.07.443-.059.817-.078.217.13.228.34a.94.94 0 0 1-.117.464 2.7 2.7 0 0 1-.338.511q-.221.27-.478.518t-.516.473q-.248.213-.428.351a.9.9 0 0 0 .088.347q.091.171.337.158.257-.013.542-.193.296-.191.575-.464.291-.285.543-.627a5 5 0 0 0 .743-1.33q.114-.3.104-.487-.022-.433-.221-.646a.95.95 0 0 0-.496-.291ZM50.936 16.323a2.5 2.5 0 0 0-.072-.489 7 7 0 0 0-.129-.463 10 10 0 0 1-.129-.463 2.6 2.6 0 0 1-.071-.477q-.016-.305-.01-.668.017-.377.117-.71.1-.346.311-.58.222-.246.632-.268.024 0 .036.01l.047-.002q.012.011.036.01l.529.477.117-.006a.96.96 0 0 0 .451-.129q.206-.117.192-.374a1.2 1.2 0 0 0-.144-.532 1.2 1.2 0 0 0-.336-.381 1.15 1.15 0 0 0-.458-.234 1.5 1.5 0 0 0-.531-.066q-.55.028-.922.33-.36.3-.62.737a4.8 4.8 0 0 0-.411.913q-.163.49-.294.907a2 2 0 0 1-.093-.206 8 8 0 0 0-.211-.458 9 9 0 0 0-.288-.595 6 6 0 0 0-.323-.582 2.6 2.6 0 0 0-.327-.44q-.15-.18-.267-.174a.37.37 0 0 0-.219.07.37.37 0 0 0-.098.158.7.7 0 0 0-.037.201 2 2 0 0 0 0 .211q.01.21.15.649.151.438.39.977t.549 1.11q.31.558.638 1.023.34.463.672.763.331.288.624.272.526-.027.502-.519ZM55.551 29.142a1.2 1.2 0 0 0-.458-.234 1.5 1.5 0 0 0-.531-.066q-.55.029-.922.33-.36.3-.62.737a4.7 4.7 0 0 0-.411.913q-.163.49-.294.907a2 2 0 0 1-.093-.206 8 8 0 0 0-.211-.458 9 9 0 0 0-.288-.595 6 6 0 0 0-.323-.581 2.6 2.6 0 0 0-.327-.44q-.15-.18-.267-.174a.37.37 0 0 0-.219.07.36.36 0 0 0-.098.158.7.7 0 0 0-.037.201 2 2 0 0 0-.001.211q.01.211.15.649.151.438.39.977.238.539.549 1.109.31.559.639 1.023.34.463.672.763.331.288.624.272.526-.027.502-.519a2.5 2.5 0 0 0-.072-.489 7 7 0 0 0-.129-.463 10 10 0 0 1-.129-.463 2.6 2.6 0 0 1-.071-.477q-.016-.305-.01-.668.017-.377.117-.71.1-.346.311-.58.222-.246.632-.268.024 0 .036.01.023 0 .047-.003.012.011.036.01l.529.477.117-.006a.96.96 0 0 0 .451-.129q.206-.117.192-.374a1.2 1.2 0 0 0-.144-.532 1.2 1.2 0 0 0-.336-.381ZM55.901 14.737a8 8 0 0 1-.193-.577q-.073-.29-.049-.514.912.41 1.795.692a6.4 6.4 0 0 0 1.786.282q.304-.016.463-.13t.141-.453a.7.7 0 0 0-.034-.209.2.2 0 0 0-.087-.101.4.4 0 0 0-.167-.062 1.6 1.6 0 0 1-.274-.08l-.428-.118q-.275-.091-.62-.202a19 19 0 0 0-.739-.219 55 55 0 0 0-.739-.22 17 17 0 0 0-.631-.19 20 20 0 0 1-.417-.119 2 2 0 0 0-.029-.116.2.2 0 0 1 .017-.13q.178-.42.541-.897t.763-.92q.4-.444.757-.802l.548-.533q0-.024.009-.059a.3.3 0 0 0 .008-.071q-.012-.234-.192-.307a.75.75 0 0 0-.344-.064q-.304.016-.622.22a4 4 0 0 0-.633.479q-.314.287-.602.618-.276.331-.496.625a7 7 0 0 0-.362.5 4 4 0 0 1-.175.244 11.4 11.4 0 0 1-.719-4.234.3.3 0 0 0-.098-.077.6.6 0 0 0-.145-.075.8.8 0 0 0-.167-.062q-.072-.031-.095-.018a.74.74 0 0 0-.342.194.7.7 0 0 0-.138.277q-.028.142-.019.318.02.163.028.327.174.894.39 1.916.227 1.009.465 1.994.237.985.482 1.864.256.879.499 1.511.243.621.458.927.226.305.406.131.246-.013.309-.145.064-.132.029-.354a2 2 0 0 0-.131-.498 21 21 0 0 0-.205-.564ZM65.948 14.786q-.096-.042-.202-.048c-.106-.006-.141-.004-.211 0q-.268.014-.513.074a10 10 0 0 0-.463.13 10 10 0 0 1-.463.13 2.6 2.6 0 0 1-.501.073 8 8 0 0 1-.586.007 3 3 0 0 1-.639-.107 1.5 1.5 0 0 1-.542-.277.78.78 0 0 1-.25-.538 2.3 2.3 0 0 0 1.212-.157q.585-.254 1.021-.699.446-.458.687-1.033.252-.577.222-1.173a2.2 2.2 0 0 0-.153-.708 1.6 1.6 0 0 0-.358-.591 1.6 1.6 0 0 0-.571-.381 1.7 1.7 0 0 0-.769-.124q-.76.04-1.283.384-.51.343-.824.865a3.6 3.6 0 0 0-.422 1.16q-.12.64-.088 1.272.037.738.279 1.335.252.585.684.997.43.4 1.04.614.608.203 1.358.164.117-.006.35-.03.246-.013.525-.051.29-.05.593-.113.301-.075.542-.193.252-.119.409-.268a.5.5 0 0 0 .145-.383.35.35 0 0 0-.069-.208.3.3 0 0 0-.159-.121Zm-4.422-3.195q.09-.321.276-.578.186-.268.459-.435.284-.178.635-.198a.6.6 0 0 1 .38.086.7.7 0 0 1 .259.245.8.8 0 0 1 .134.333q.045.186.054.361.017.316-.111.593a1.5 1.5 0 0 1-.363.488 1.9 1.9 0 0 1-.511.344q-.288.12-.591.137-.433.022-.56-.158-.115-.182-.136-.591a1.9 1.9 0 0 1 .074-.626ZM49.563 29.996a2.2 2.2 0 0 0-.559-.604 1.06 1.06 0 0 0-.715-.221 4.1 4.1 0 0 0-1.403.332 4.5 4.5 0 0 0-1.216.779q-.528.474-.835 1.123-.308.638-.271 1.364.026.492.153.931.139.427.39.742.25.303.646.482.396.166.957.138a3 3 0 0 0 1.249-.359 4.3 4.3 0 0 0 1.097-.82q.479-.507.764-1.131.285-.637.251-1.292a2.6 2.6 0 0 0-.153-.708 3 3 0 0 0-.355-.756m-.671 2.265a3.2 3.2 0 0 1-.52.849 3.2 3.2 0 0 1-.742.649 1.8 1.8 0 0 1-.854.28 1.6 1.6 0 0 1-.554-.053.96.96 0 0 1-.376-.239 1.1 1.1 0 0 1-.207-.376 2.8 2.8 0 0 1-.074-.536q-.008-.163.119-.429.139-.265.371-.559t.51-.59q.29-.297.583-.535.305-.239.578-.394.286-.155.496-.167a.58.58 0 0 1 .393.109.86.86 0 0 1 .25.304q.091.183.138.403t.056.408q.022.421-.167.877ZM65.513 26.59a26 26 0 0 0-.16-.848 6 6 0 0 0-.207-.834 3.5 3.5 0 0 0-.267-.643q-.143-.25-.294-.243a.5.5 0 0 0-.254.084.6.6 0 0 0-.191.174 1 1 0 0 0-.104.252.8.8 0 0 0-.034.26 13 13 0 0 0 .112 1.05q.065.36.156.766.09.395.213.728.133.321.297.536.163.203.362.192.55-.029.524-.532 0-.012-.038-.28-.037-.268-.116-.663ZM63.167 26.15a11 11 0 0 1-.341-.944 3.5 3.5 0 0 1-.125-1.073q0-.012-.037-.045a.4.4 0 0 0-.086-.078.3.3 0 0 0-.074-.067l-.049-.044a.2.2 0 0 1-.071-.008q-.012 0-.035.002a.1.1 0 0 0-.036-.01.1.1 0 0 0-.034.013l-.035.002a.2.2 0 0 1-.058.015l-.122.135a1 1 0 0 0-.099.123q.004.093.004.305l.023.456q.012.234.011.457l.015.293q.006.117.008.398.002.27.019.609.028.327.082.688.054.362.162.66.108.288.294.466a.62.62 0 0 0 .466.163.54.54 0 0 0 .312-.099.8.8 0 0 0 .199-.233.9.9 0 0 0 .114-.299 1.4 1.4 0 0 0 .02-.294 2.3 2.3 0 0 0-.18-.765 73 73 0 0 0-.347-.827ZM37.741 29.876a1.66 1.66 0 0 0-.672-.528 2.9 2.9 0 0 0-.893-.247 5.3 5.3 0 0 0-.917-.034q-1.089.057-1.587.635-.5.578-.441 1.713.043.162.157.555.125.381.281.912.155.531.353 1.167.207.623.428 1.268.231.633.474 1.242.254.62.502 1.112.26.49.499.819.252.339.491.42.374-.02.488-.084.114-.052.1-.334a1.94 1.94 0 0 0-.268-.889 9 9 0 0 0-.534-.817 15 15 0 0 1-.544-.769 1.54 1.54 0 0 1-.261-.761q-.002-.047.002-.188a.8.8 0 0 1 .037-.201q.414-.397.885-.833.481-.448.867-.949.396-.514.638-1.078.252-.576.22-1.208-.029-.573-.305-.923m-.872 1.771q-.154.43-.428.82a2.6 2.6 0 0 1-.624.655 1.3 1.3 0 0 1-.713.284.48.48 0 0 1-.433-.212 2 2 0 0 1-.263-.561 5 5 0 0 1-.127-.65 8 8 0 0 1-.049-.514q-.033-.644.301-1.013.345-.381 1.011-.417.222-.012.47.011.247.01.463.105a.9.9 0 0 1 .376.25q.149.156.164.449a2 2 0 0 1-.148.794ZM45.768 50.094a.5.5 0 0 0-.912.412l1.23 2.717a68 68 0 0 0-.71-.309c-3.362-1.443-8.443-3.625-5.803-10.673a.5.5 0 0 0-.937-.352c-2.975 7.941 3.088 10.545 6.345 11.943l.575.249-2.628.898a.5.5 0 0 0 .323.946l3.944-1.348a.5.5 0 0 0 .294-.678l-1.723-3.806Z"/></svg>