<?xml version="1.0" encoding="UTF-8"?>
<svg id="illustration-footer" xmlns="http://www.w3.org/2000/svg" version="1.1" viewBox="0 0 375 130">
  <!-- Generator: Adobe Illustrator 29.8.1, SVG Export Plug-In . SVG Version: 2.1.1 Build 2)  -->
  <defs>
    <style>
      .st0 {
        fill: #7ddf96;
      }

      .st1 {
        fill: #e08380;
      }

      .st2 {
        fill: #ffd886;
      }

      .st3 {
        stroke-miterlimit: 10;
      }

      .st3, .st4, .st5, .st6, .st7 {
        fill: none;
        stroke: #515979;
      }

      .st3, .st6 {
        stroke-width: 3px;
      }

      .st8 {
        fill: #75a5c3;
      }

      .st9 {
        fill: #f5dcc8;
      }

      .st10 {
        fill: #ebebeb;
      }

      .st11 {
        fill: #b29d90;
      }

      .st12 {
        fill: #f4a4a4;
      }

      .st13 {
        fill: #508cb4;
      }

      .st14 {
        fill: #329b87;
      }

      .st4 {
        stroke-width: 1.5px;
      }

      .st4, .st5, .st6, .st7 {
        stroke-linecap: round;
        stroke-linejoin: round;
      }

      .st15 {
        fill: #ffebeb;
      }

      .st16 {
        fill: #d8ebfb;
      }

      .st17 {
        fill: #f8d886;
      }

      .st18 {
        fill: #515979;
      }

      .st19 {
        fill: #acc9db;
      }

      .st20 {
        fill: #fcebc2;
      }

      .st21 {
        fill: #fde1d9;
      }

      .st22 {
        fill: #fff;
      }

      .st23, .st24 {
        fill: #515979;
      }

      .st24 {
        fill-rule: evenodd;
      }

      .st25 {
        fill: #d26e78;
      }

      .st26 {
        fill: #1e78d2;
      }

      .st27 {
        fill: #fbb040;
      }

      .st5 {
        stroke-width: 2px;
      }

      .st28 {
        fill: #e1c3aa;
      }

      .st29 {
        fill: #ef7d7d;
      }

      .st30 {
        fill: #ef7d7d;
      }

      .st31 {
        fill: #2196f3;
      }

      .st32 {
        fill: #50c864;
      }

      .st7 {
        stroke-width: 2.5px;
      }

      .st33 {
        fill: #f3f9fe;
      }

      .st34 {
        fill: #3cb48c;
      }
    </style>
  </defs>
  <path class="st16" d="M331.5,128.5c-.7999878,0-1.5-.6999969-1.5-1.5V13c0-.8000002.7000122-1.5,1.5-1.5h28c.7999878,0,1.5.6999998,1.5,1.5v114c0,.8000031-.7000122,1.5-1.5,1.5h-28ZM345.5,20.5c-1.8999939,0-3.5,1.6000004-3.5,3.5s1.6000061,3.5,3.5,3.5,3.5-1.6000004,3.5-3.5-1.6000061-3.5-3.5-3.5Z"/>
  <path class="st23" d="M359.5,13v114h-28V13h28M345.5,29c2.7999878,0,5-2.2000008,5-5s-2.2000122-5-5-5-5,2.2000008-5,5,2.2000122,5,5,5M359.5,10h-28c-1.7000122,0-3,1.3000002-3,3v114c0,1.6999969,1.2999878,3,3,3h28c1.7000122,0,3-1.3000031,3-3V13c0-1.6999998-1.2999878-3-3-3h0ZM345.5,26c-1.1000061,0-2-.8999996-2-2s.8999939-2,2-2,2,.8999996,2,2-.8999939,2-2,2h0Z"/>
  <rect class="st19" x="356.5" y="13" width="3" height="114"/>
  <rect class="st33" x="331.5" y="13" width="3" height="114"/>
  <line class="st6" x1="331.5" y1="119.5" x2="336.5" y2="119.5"/>
  <line class="st6" x1="331.5" y1="110.5" x2="334.5" y2="110.5"/>
  <line class="st6" x1="331.5" y1="101.5" x2="334.5" y2="101.5"/>
  <line class="st6" x1="331.5" y1="92.5" x2="336.5" y2="92.5"/>
  <line class="st6" x1="331.5" y1="83.5" x2="334.5" y2="83.5"/>
  <line class="st6" x1="331.5" y1="74.5" x2="334.5" y2="74.5"/>
  <line class="st6" x1="331.5" y1="65.5" x2="336.5" y2="65.5"/>
  <line class="st6" x1="331.5" y1="56.5" x2="334.5" y2="56.5"/>
  <line class="st6" x1="331.5" y1="47.5" x2="334.5" y2="47.5"/>
  <line class="st6" x1="331.5" y1="38.5" x2="336.5" y2="38.5"/>
  <line class="st6" x1="331.5" y1="29.5" x2="334.5" y2="29.5"/>
  <line class="st6" x1="331.5" y1="20.5" x2="334.5" y2="20.5"/>
  <path class="st4" d="M348.2999878,52.5999985c.7999878-.2999992,2.2000122-.2999992,3.1000061,0"/>
  <circle class="st23" cx="349.8999939" cy="49.7000008" r="2.6000023"/>
  <circle class="st22" cx="350.5" cy="49.7000008" r=".7000065"/>
  <path class="st4" d="M339.6000061,52.5999985c.7999878-.2999992,2.2000122-.2999992,3.1000061,0"/>
  <circle class="st23" cx="341.1000061" cy="49.7000008" r="2.6000023"/>
  <circle class="st22" cx="341.7999878" cy="49.7000008" r=".7000065"/>
  <path class="st23" d="M348.5,44.0999985c1.7000122-.7000008,4.1000061-.0999985,4.8999939,1.7000008.2000122.4000015,0,.9000015-.5,1.0999985-.7000122.2000008-1.7000122-.4000015-2.3999939-.5999985-.6000061-.2000008-1.3999939-.4000015-2-.7000008-.7000122-.2999992-.6000061-1.2999992,0-1.5h0Z"/>
  <path class="st23" d="M342.2999878,45.7000008c-.7999878.2999992-1.7999878.5999985-2.6000061.9000015-.2999878.0999985-.7000122.2999992-1.1000061.2999992-.5.0999985-.8999939-.0999985-1.1000061-.5999985-.1000061-1.2000008,1.2000122-2.0999985,2.2000122-2.4000015,1-.2999992,3.6000061-.4000015,3.2000122,1.2000008-.1000061.2999992-.3999939.4000015-.6000061.5h0v.0999985Z"/>
  <path class="st23" d="M349,54.5h-7c-1.1000061,0-2,.9000015-2,2,0,3,2.5,5.5,5.5,5.5s5.3999939-2.4000015,5.5-5.4000015v-.0999985c0-1.0999985-.8999939-2-2-2Z"/>
  <path class="st29" d="M345.5,60c1,0,2-.5,2.6000061-1.2000008-.6000061-.7000008-1.6000061-1.2000008-2.6000061-1.2000008s-2,.5-2.6000061,1.2000008c.6000061.7000008,1.6000061,1.2000008,2.6000061,1.2000008Z"/>
  <g>
    <path class="st25" d="M293,128.5c-.7999878,0-1.5-.6999969-1.5-1.5v-40c0-4.6999969-3.7999878-8.5-8.5-8.5s-8.5,3.8000031-8.5,8.5v40c0,.8000031-.7000122,1.5-1.5,1.5h-30c-.8000031,0-1.5-.6999969-1.5-1.5v-40c0-17.8000031,11.6999969-33.9000015,28.5-39.4000015v-.5999985c0-.7999992.7000122-1.5,1.5-1.5h11.5c22.8999939,0,41.5,18.5999985,41.5,41.5v40c0,.8000031-.7000122,1.5-1.5,1.5h-30Z"/>
    <path class="st23" d="M283,47c22.1000061,0,40,17.9000015,40,40v40h-30v-40c0-5.5-4.5-10-10-10s-10,4.5-10,10v40h-30v-40c0-18.0999985,12-33.4000015,28.5-38.2999992v-1.7000008h11.5M283,44h-11.5c-1.5,0-2.7000122,1.0999985-3,2.5-7.7999878,2.7999992-14.8000031,7.9000015-19.8999939,14.5999985-5.6999969,7.5-8.6999969,16.5-8.6999969,25.9000015v40c0,1.6999969,1.3000031,3,3,3h30.0000153c1.7000122,0,3-1.3000031,3-3v-40c0-3.9000015,3.1000061-7,7-7s7,3.0999985,7,7v40c0,1.6999969,1.2999878,3,3,3h30c1.7000122,0,3-1.3000031,3-3v-40c0-23.7000008-19.2999878-43-43-43h.0999756Z"/>
  </g>
  <g>
    <rect class="st10" x="241.5" y="115.5" width="33" height="13" rx="1.5" ry="1.5"/>
    <path class="st23" d="M273,117v10h-30v-10h30M273,114h-30c-1.6999969,0-3,1.3000031-3,3v10c0,1.6999969,1.3000031,3,3,3h30c1.7000122,0,3-1.3000031,3-3v-10c0-1.6999969-1.2999878-3-3-3h0Z"/>
  </g>
  <g>
    <rect class="st10" x="291.5" y="115.5" width="33" height="13" rx="1.5" ry="1.5"/>
    <path class="st23" d="M323,117v10h-30v-10h30M323,114h-30c-1.7000122,0-3,1.3000031-3,3v10c0,1.6999969,1.2999878,3,3,3h30c1.7000122,0,3-1.3000031,3-3v-10c0-1.6999969-1.2999878-3-3-3h0Z"/>
  </g>
  <g>
    <path class="st29" d="M281.5,128.5c-.7999878,0-1.5-.6999969-1.5-1.5v-40c0-4.6999969-3.7999878-8.5-8.5-8.5s-8.5,3.8000031-8.5,8.5v40c0,.8000031-.7000122,1.5-1.5,1.5h-30c-.8000031,0-1.5-.6999969-1.5-1.5v-40c0-22.9000015,18.6000061-41.5,41.5-41.5s41.5,18.5999985,41.5,41.5v40c0,.8000031-.7000122,1.5-1.5,1.5h-30Z"/>
    <path class="st23" d="M271.5,47c22.1000061,0,40,17.9000015,40,40v40h-30v-40c0-5.5-4.5-10-10-10s-10,4.5-10,10v40h-30v-40c0-22.0999985,17.8999939-40,40-40M271.5,44c-23.6999969,0-43,19.2999992-43,43v40c0,1.6999969,1.3000031,3,3,3h30c1.7000122,0,3-1.3000031,3-3v-40c0-3.9000015,3.1000061-7,7-7s7,3.0999985,7,7v40c0,1.6999969,1.2999878,3,3,3h30c1.7000122,0,3-1.3000031,3-3v-40c0-23.7000008-19.2999878-43-43-43h0Z"/>
  </g>
  <path class="st12" d="M271.5,47h1.5c-21.3999939.7999992-38.5,18.4000015-38.5,40v40h-3v-40c0-22.0999985,17.8999939-40,40-40Z"/>
  <g>
    <rect class="st22" x="230" y="115.5" width="33" height="13" rx="1.5" ry="1.5"/>
    <path class="st23" d="M261.5,117v10h-30v-10h30M261.5,114h-30c-1.6999969,0-3,1.3000031-3,3v10c0,1.6999969,1.3000031,3,3,3h30c1.7000122,0,3-1.3000031,3-3v-10c0-1.6999969-1.2999878-3-3-3h0Z"/>
  </g>
  <g>
    <rect class="st22" x="280" y="115.5" width="33" height="13" rx="1.5" ry="1.5"/>
    <path class="st23" d="M311.5,117v10h-30v-10h30M311.5,114h-30c-1.7000122,0-3,1.3000031-3,3v10c0,1.6999969,1.2999878,3,3,3h30c1.7000122,0,3-1.3000031,3-3v-10c0-1.6999969-1.2999878-3-3-3h0Z"/>
  </g>
  <g>
    <path class="st4" d="M274.7999878,61.9000015c1-.2999992,2.5-.2999992,3.5,0"/>
    <g>
      <circle class="st23" cx="276.5" cy="58.5999985" r="3"/>
      <circle class="st22" cx="277.2999878" cy="58.5999985" r=".7999935"/>
    </g>
    <path class="st4" d="M264.7999878,61.9000015c1-.2999992,2.5-.2999992,3.5,0"/>
    <g>
      <circle class="st23" cx="266.5" cy="58.5999985" r="3"/>
      <circle class="st22" cx="267.2999878" cy="58.5999985" r=".7999935"/>
    </g>
    <path class="st23" d="M275.2000122,51.7000008c2-.7999992,4.6000061,0,5.5,1.9000015.2999878.7000008-.3999939,1.4000015-1.1000061,1.0999985-.7999878-.2999992-1.3999939-.5999985-2.1000061-.7999992s-1.6000061-.4000015-2.2999878-.7000008c-.7000122-.2000008-.7000122-1.2999992,0-1.5999985h0v.0999985Z"/>
    <path class="st23" d="M267.6000061,53.4000015c-1.3999939.4000015-2.7999878.7999992-4.2000122,1.4000015-.3999939.2000008-.8999939,0-1.1000061-.5-.2000122-.7999992.5-1.5,1-1.9000015,1.2999878-1,3-1.2000008,4.5-.5999985.3999939.2000008.7000122.7000008.5,1.0999985-.1000061.2999992-.3999939.5-.7000122.5999985h0l.0000305-.0999985Z"/>
  </g>
  <g>
    <circle class="st25" cx="284.5" cy="63" r="1"/>
    <circle class="st25" cx="282.5" cy="66.5" r="1"/>
    <path class="st25" d="M287.5,66.5c0,.5999985-.3999939,1-1,1s-1-.4000015-1-1,.3999939-1,1-1,1,.4000015,1,1Z"/>
  </g>
  <g>
    <circle class="st25" cx="258.5" cy="63" r="1"/>
    <circle class="st25" cx="256.5" cy="66.5" r="1"/>
    <circle class="st25" cx="260.5" cy="66.5" r="1"/>
  </g>
  <g>
    <path class="st22" d="M93,128.5c-1.6999969,0-3-1.3000031-3-3V60c0-1.7000008,1.3000031-3,3-3h57c1.6999969,0,3,1.2999992,3,3v57c0,.4000015-.1999969.8000031-.3999939,1.0999985l-10,10.0000076c-.3000031.3000031-.6999969.3999939-1.1000061.3999939h-48.5Z"/>
    <path class="st23" d="M150,58.5c.8000031,0,1.5.7000008,1.5,1.5v57l-10,10h-48.5c-.8000031,0-1.5-.6999969-1.5-1.5V60c0-.7999992.6999969-1.5,1.5-1.5h57M150,55.5h-57c-2.5,0-4.5,2-4.5,4.5v65.5c0,2.5,2,4.5,4.5,4.5h48.5c.8000031,0,1.6000061-.3000031,2.1000061-.8999939l10-10c.6000061-.5999985.8999939-1.3000031.8999939-2.0999985v-57c0-2.5-2-4.5-4.5-4.5v-.0000076Z"/>
  </g>
  <path class="st16" d="M117,120v-48.5c0-2.5-2-4.5-4.5-4.5h-27c-2.5,0-4.5,2-4.5,4.5v55.5h30.1999969l4.9000015-4.9000015c.5999985-.5999985.9000015-1.3000031.9000015-2.0999985Z"/>
  <rect class="st31" x="101.5" y="88.5" width="40" height="2.5" rx="1.1999969" ry="1.1999969"/>
  <rect class="st26" x="108" y="88.5" width="9" height="2.5"/>
  <rect class="st23" x="99" y="98.5" width="35" height="2.5" rx="1.1999969" ry="1.1999969"/>
  <rect class="st23" x="99" y="103.5" width="28" height="2.5" rx="1.1999969" ry="1.1999969"/>
  <rect class="st23" x="99" y="108.5" width="20" height="2.5" rx="1.1999969" ry="1.1999969"/>
  <rect class="st32" x="99" y="93.5" width="31" height="2.5" rx="1.1999969" ry="1.1999969"/>
  <rect class="st14" x="108" y="93.5" width="9" height="2.5"/>
  <circle class="st21" cx="134.5" cy="78" r="1"/>
  <circle class="st21" cx="138.5" cy="78" r="1"/>
  <circle class="st21" cx="136.5" cy="74" r="1"/>
  <circle class="st21" cx="104.5" cy="78" r="1"/>
  <circle class="st21" cx="108.5" cy="78" r="1"/>
  <circle class="st21" cx="106.5" cy="74" r="1"/>
  <path class="st4" d="M125.5,74.5999985c1-.3000031,2.5-.3000031,3.5,0"/>
  <circle class="st23" cx="127.3000031" cy="71.3000031" r="3"/>
  <circle class="st22" cx="128" cy="71.3000031" r=".8000031"/>
  <path class="st23" d="M125,65.3000031c1.8000031-1.0999985,4.5-.9000015,5.6999969,1,.3999939.5999985-.1999969,1.5-.8999939,1.3000031-.8000031-.0999985-1.3999939-.3000031-2.1999969-.4000015s-1.5999985-.0999985-2.4000015-.3000031c-.8000031-.0999985-.9000015-1.1999969-.3000031-1.5999985h.0999985Z"/>
  <path class="st4" d="M117.5,74.5999985c-1-.3000031-2.5-.3000031-3.5,0"/>
  <circle class="st23" cx="115.6999969" cy="71.3000031" r="3"/>
  <circle class="st22" cx="116.5" cy="71.3000031" r=".8000031"/>
  <path class="st23" d="M117.5,66.9000015c-1.5.1999969-2.9000015.3000031-4.4000015.6999969-.5,0-.9000015-.1999969-1-.6999969,0-.8000031.6999969-1.4000015,1.3000031-1.6999969,1.4000015-.6999969,3.0999985-.6999969,4.5.0999985.4000015.1999969.5.8000031.3000031,1.1999969-.1999969.3000031-.5.4000015-.8000031.4000015h.0999985Z"/>
  <path class="st5" d="M115.5,78c3.5999985,1.9000015,8.5999985,2.0999985,12,0"/>
  <path class="st23" d="M119.5999985,82.0999985c1.1999969.3000031,2.5.3000031,3.6999969,0,.5999985-.1999969,1.0999985.5999985.5999985,1-.4000015.4000015-.8000031.8000031-1.4000015.9000015-1.0999985.4000015-2.4000015.1999969-3.1999969-.5999985l-.4000015-.4000015c-.5-.4000015,0-1.1999969.5999985-1h0l.1000061.0999985Z"/>
  <g>
    <path class="st22" d="M49.5,128.5c-1.7000008,0-3-1.3000031-3-3v-57c0-1.6999969,1.2999992-3,3-3h57c1.6999969,0,3,1.3000031,3,3v48.5c0,.4000015-.1999969.8000031-.4000015,1.0999985l-10,10.0000076c-.3000031.3000031-.6999969.3999939-1.0999985.3999939h-48.5Z"/>
    <path class="st23" d="M106.5,67c.8000031,0,1.5.6999969,1.5,1.5v48.5l-10,10h-48.5c-.7999992,0-1.5-.6999969-1.5-1.5v-57c0-.8000031.7000008-1.5,1.5-1.5h57M106.5,64h-57c-2.5,0-4.5,2-4.5,4.5v57c0,2.5,2,4.5,4.5,4.5h48.5c.8000031,0,1.5999985-.3000031,2.0999985-.8999939l10-10c.5999985-.5999985.9000015-1.3000031.9000015-2.0999985v-48.5c0-2.5-2-4.5-4.5-4.5v-.0000076Z"/>
  </g>
  <rect class="st31" x="55.5" y="97" width="37" height="2.5" rx="1.1999969" ry="1.1999969"/>
  <rect class="st23" x="55.5" y="107" width="30" height="2.5" rx="1.1999969" ry="1.1999969"/>
  <rect class="st23" x="55.5" y="112" width="35" height="2.5" rx="1.1999969" ry="1.1999969"/>
  <rect class="st23" x="55.5" y="117" width="25" height="2.5" rx="1.1999969" ry="1.1999969"/>
  <rect class="st32" x="55.5" y="102" width="37" height="2.5" rx="1.1999969" ry="1.1999969"/>
  <g>
    <path class="st16" d="M98,128.5c-.1999969,0-.4000015,0-.5999985-.1000061-.5999985-.1999969-.9000015-.8000031-.9000015-1.4000015v-8.5c0-1.6999969,1.3000031-3,3-3h8.5c.5999985,0,1.1999969.4000015,1.4000015.9000015.1999969.5999985.0999985,1.1999969-.3000031,1.5999985l-10,10c-.3000031.2999954-.6999969.4000015-1.0999985.4000015v.1000061Z"/>
    <path class="st23" d="M108,117l-10,10v-8.5c0-.8000031.6999969-1.5,1.5-1.5h8.5M108,114h-8.5c-2.5,0-4.5,2-4.5,4.5v8.5c0,1.1999969.6999969,2.3000031,1.9000015,2.8000031.4000015.1999969.8000031.1999969,1.0999985.1999969.8000031,0,1.5-.3000031,2.0999985-.8999939l10-10c.9000015-.9000015,1.0999985-2.0999985.6999969-3.3000031-.5-1.0999985-1.5999985-1.9000015-2.8000031-1.9000015h0l.0000076.0999985ZM108,120h0Z"/>
  </g>
  <path class="st5" d="M80.8000031,80.8000031c0-1.4000015,1.0999985-2.5,2.5-2.5s2.5,1.0999985,2.5,2.5"/>
  <path class="st5" d="M70.1999969,80.8000031c0-1.4000015,1.0999985-2.5,2.5-2.5s2.5,1.0999985,2.5,2.5"/>
  <circle class="st21" cx="91" cy="86.5" r="1"/>
  <circle class="st21" cx="95" cy="86.5" r="1"/>
  <circle class="st21" cx="93" cy="82.5" r="1"/>
  <circle class="st21" cx="61" cy="86.5" r="1"/>
  <circle class="st21" cx="65" cy="86.5" r="1"/>
  <circle class="st21" cx="63" cy="82.5" r="1"/>
  <g>
    <path class="st28" d="M167.8000031,66.4000015c-.5,0-1-.1999969-1.1999969-.5999985l-11-15.7999992c-.3999939-.5999985-.3999939-1.2999992,0-1.7999992,0-.0999985,2.5-2.7999992,6.8000031-2.7999992s3,.2999992,4.5.9000015c1-.9000015,2.8999939-2.2000008,5.6999969-2.2000008s4,.5999985,6.1999969,1.9000015c.6999969.4000015,1,1.2999992.5,2l-10.3000031,17.7000046c-.3000031.4000015-.6999969.6999969-1.1999969.6999969v-.0000076Z"/>
    <path class="st23" d="M172.8000031,45.5c1.5,0,3.3000031.4000015,5.3999939,1.7000008l-10.3000031,17.7000008-11-15.7999992s2-2.2999992,5.6999969-2.2999992,3,.2999992,4.8999939,1.2000008c0,0,1.8000031-2.5,5.3999939-2.5M172.8000031,42.5h0c-2.6999969,0-4.6999969,1-6,2-1.3999939-.5-2.8000031-.7000008-4.1999969-.7000008-4.8999939,0-7.6999969,3-8,3.2999992-.8999939,1-1,2.5-.1999969,3.7000008l11,15.7999992c.6000061.8000031,1.5,1.3000031,2.5,1.3000031s0,0,.1000061,0c1,0,2-.5999985,2.5-1.5l10.3000031-17.7000008c.8000031-1.4000015.3999939-3.2999992-1.1000061-4.0999985-2.3999939-1.4000015-4.6999969-2.0999985-6.8999939-2.0999985h0l-.0000153-.0000038Z"/>
  </g>
  <path class="st9" d="M167.3999939,48s-.1999969,0-.3000031-.0999985c-1.5,1.7000008-2.1999969,3.5999985-2.1999969,3.5999985,5.1999969-4.5999985,10.3000031-2.5,11.6999969-1.7000008l1.5-2.5999985c-7.1000061-4.2000008-10.8000031.7999992-10.8000031.7999992h.1000061Z"/>
  <path class="st11" d="M163.6000061,58.7000008l-6.6999969-9.7000008s3.8000031-4.2999992,10.6000061-1.0999985c-2.8000031,2.2000008-4.1999969,5.7000008-3.8999939,10.7999992h-.0000153Z"/>
  <g>
    <path class="st28" d="M168.5,128.5c-19.1000061,0-31.5-10.4000015-31.5-26.5s20.5-36.5,31.5-36.5,12.8999939,4.5999985,19.6999969,11.8000031c7.5,8,11.8000031,17,11.8000031,24.6999969,0,16.0999985-12.3999939,26.5-31.5,26.5Z"/>
    <path class="st23" d="M168.5,67c9.6000061,0,30,18.4000015,30,35s-13.3999939,25-30,25-30-8.4000015-30-25,20.1999969-35,30-35M168.5,64c-5.6999969,0-13.8999939,4.8000031-20.8999939,12.1999969-7.6999969,8.1999969-12.1000061,17.5999985-12.1000061,25.8000031s3.3999939,16.0999985,10,21.0999985c5.8999939,4.5,13.8000031,6.9000015,23,6.9000015s17.1999969-2.4000015,23-6.9000015c6.5-5,10-12.3000031,10-21.0999985,0-17.9000015-21.5-38-33-38h0Z"/>
  </g>
  <path class="st9" d="M142.5,100.5c0-13.5,13.3000031-28.0999985,23.6000061-33.1999969-10.3999939,2.5-27.6000061,19.4000015-27.6000061,34.6999969s12.1000061,24.0999985,27.3999939,24.9000015c-13.3999939-2.4000015-23.3999939-12.0999985-23.3999939-26.4000015Z"/>
  <path class="st11" d="M168.6000061,67c9.5,7.8000031,19.8999939,23.0999985,19.8999939,35s-10.8000031,23.1999969-25,24.6999969c1.6000061.1999969,3.3000031.3000031,5,.3000031,16.6000061,0,30-8.4000015,30-25s-20.3000031-34.9000015-29.8999939-35Z"/>
  <path class="st6" d="M168.1000061,45.4000015s-3,1.5-3.1000061,5.7999992"/>
  <line class="st6" x1="168" y1="61.9000015" x2="169.1000061" y2="55.5999985"/>
  <g>
    <path class="st17" d="M162,66.5c-1.6999969,0-3-1.3000031-3-3s1.3000031-3,3-3h12c1.6999969,0,3,1.2999992,3,3,0,1.6999969-1.3000031,3-3,3h-12Z"/>
    <path class="st23" d="M174,62c.8000031,0,1.5.7000008,1.5,1.5,0,.8000031-.6999969,1.5-1.5,1.5h-12c-.8000031,0-1.5-.6999969-1.5-1.5s.6999969-1.5,1.5-1.5h12M174,59h-12c-2.5,0-4.5,2-4.5,4.5s2,4.5,4.5,4.5h12c2.5,0,4.5-2,4.5-4.5s-2-4.5-4.5-4.5h0Z"/>
  </g>
  <path class="st27" d="M174,62h-5c.8000031,0,1.5.7000008,1.5,1.5,0,.8000031-.6999969,1.5-1.5,1.5h5c.8000031,0,1.5-.6999969,1.5-1.5s-.6999969-1.5-1.5-1.5Z"/>
  <rect class="st23" x="156" y="81" width="3" height="24"/>
  <path class="st24" d="M165,90v-4.5c0-.8000031-.6999969-1.5-1.5-1.5h-12c-.8000031,0-1.5.6999969-1.5,1.5v7.5c0,.8000031.6999969,1.5,1.5,1.5h10.5v4.5h-9v-3h-3v4.5c0,.8000031.6999969,1.5,1.5,1.5h12c.8000031,0,1.5-.6999969,1.5-1.5v-7.5c0-.8000031-.6999969-1.5-1.5-1.5h-10.5v-4.5h9v3h3Z"/>
  <path class="st11" d="M174,124v-3c0-1.6999969-1.3000031-3-3-3h-2.5v-4c0-1.6999969-1.3000031-3-3-3h-25.3999939c4,10.5999985,15.1999969,16,28.3999939,16s2.1999969,0,3.3000031-.0999985c1.1999969-.4000015,2.1999969-1.5,2.1999969-2.9000015Z"/>
  <g>
    <rect class="st0" x="127" y="109.5" width="37" height="19" rx="1.5" ry="1.5"/>
    <path class="st23" d="M128.5,111h34v16h-34v-16M128.5,108c-.8000031,0-1.5999985.3000031-2.0999985.9000015-.5999985.5999985-.9000015,1.3000031-.9000015,2.0999985v16c0,1.6999969,1.3000031,3,3,3h34c.8000031,0,1.6000061-.3000031,2.1000061-.8999939.6000061-.6000061.8999939-1.3000031.8999939-2.0999985v-16c0-1.6999969-1.3000031-3-3-3,0,0-34,0-34-.0000076Z"/>
  </g>
  <path class="st34" d="M139,119c0-2.6999969,1.1000061-5,2.6999969-6.5h-8.6999969c0,1.6999969-1.3000031,3-3,3h0v7h0c1.6999969,0,3,1.3000031,3,3h8.6999969c-1.6000061-1.5-2.6999969-3.8000031-2.6999969-6.5ZM134.5,121.1999969c-1.1000061,0-2-1-2-2.1999969s.8999939-2.3000031,2-2.3000031,2,1,2,2.3000031-.8999939,2.1999969-2,2.1999969Z"/>
  <path class="st34" d="M158,112.5h-8.6999969c1.6000061,1.5,2.6999969,3.8000031,2.6999969,6.5s-1.1000061,5-2.6999969,6.5h8.6999969c0-1.6999969,1.3000031-3,3-3v-7c-1.6999969,0-3-1.3000031-3-3ZM156.5,121.1999969c-1.1000061,0-2-1-2-2.1999969s.8999939-2.3000031,2-2.3000031,2,1,2,2.3000031-.8999939,2.1999969-2,2.1999969Z"/>
  <path class="st34" d="M146.6000061,120.3000031c0-.4000015-.3999939-.5-1.1999969-.5999985-1.3999939-.1999969-2.5-.4000015-2.6000061-2.0999985,0-1.0999985.6999969-1.8000031,1.8999939-2v-.8000031h1.5v.8000031c.8000031.0999985,1.3999939.5999985,1.6999969,1.3000031h0v.1999969c.1000061,0-1.3999939.6999969-1.3999939.6999969l-.1999969-.3000031c-.1999969-.4000015-.5-.5999985-1-.5999985s-1,.1999969-1,.5999985.3999939.5,1.1999969.5999985c1.3000031.0999985,2.6000061.4000015,2.6000061,2.0999985,0,1.0999985-.6999969,1.8000031-2,2.0999985v.8000031h-1.5v-.8000031c-1-.1999969-1.6000061-.5999985-2-1.5v-.3000031c-.1000061,0,1.3999939-.5,1.3999939-.5v.3000031c.3000031.4000015.6999969.5999985,1.1999969.5999985s1.1999969-.1999969,1.1999969-.5999985l.2000122.0000076Z"/>
  <g>
    <rect class="st17" x="149" y="122.5" width="18" height="6" rx="1.5" ry="1.5"/>
    <path class="st23" d="M165.5,124v3h-15v-3h15M165.5,121h-15c-1.6999969,0-3,1.3000031-3,3v3c0,1.6999969,1.3000031,3,3,3h15c1.6999969,0,3-1.3000031,3-3v-3c0-1.6999969-1.3000031-3-3-3h0Z"/>
  </g>
  <line class="st6" x1="155" y1="124" x2="155" y2="127"/>
  <line class="st6" x1="161" y1="124" x2="161" y2="127"/>
  <g>
    <rect class="st17" x="118" y="122.5" width="18" height="6" rx="1.5" ry="1.5"/>
    <path class="st23" d="M134.5,124v3h-15v-3h15M134.5,121h-15c-1.6999969,0-3,1.3000031-3,3v3c0,1.6999969,1.3000031,3,3,3h15c1.6999969,0,3-1.3000031,3-3v-3c0-1.6999969-1.3000031-3-3-3h0Z"/>
  </g>
  <line class="st6" x1="124" y1="124" x2="124" y2="127"/>
  <line class="st6" x1="130" y1="124" x2="130" y2="127"/>
  <g>
    <rect class="st17" x="152" y="116.5" width="18" height="6" rx="1.5" ry="1.5"/>
    <path class="st23" d="M168.5,118v3h-15v-3h15M168.5,115h-15c-1.6999969,0-3,1.3000031-3,3v3c0,1.6999969,1.3000031,3,3,3h15c1.6999969,0,3-1.3000031,3-3v-3c0-1.6999969-1.3000031-3-3-3h0Z"/>
  </g>
  <line class="st6" x1="158" y1="118" x2="158" y2="121"/>
  <line class="st6" x1="164" y1="118" x2="164" y2="121"/>
  <path class="st23" d="M277.5,64h-12c-1.3999939,0-2.5,1.0999985-2.5,2.5,0,4.6999969,3.7999878,8.5,8.5,8.5s8.3999939-3.6999969,8.5-8.4000015v-.0999985c0-1.4000015-1.1000061-2.5-2.5-2.5Z"/>
  <g>
    <rect class="st17" x="182.5" y="122.5" width="18" height="6" rx="1.5" ry="1.5"/>
    <path class="st23" d="M199,124v3h-15v-3h15M199,121h-15c-1.6999969,0-3,1.3000031-3,3v3c0,1.6999969,1.3000031,3,3,3h15c1.6999969,0,3-1.3000031,3-3v-3c0-1.6999969-1.3000031-3-3-3h0Z"/>
  </g>
  <line class="st6" x1="188.5" y1="124" x2="188.5" y2="127"/>
  <line class="st6" x1="194.5" y1="124" x2="194.5" y2="127"/>
  <g>
    <g>
      <path class="st15" d="M25,128.5c-.2000008,0-.3999996,0-.6000004-.1000061l-10-4c-.6000004-.1999969-.8999996-.8000031-.8999996-1.4000015s.3999996-1.1999969.8999996-1.4000015l10-4c.2000008,0,.3999996-.0999985.6000004-.0999985.2999992,0,.6000004,0,.7999992.3000031.3999996.3000031.7000008.6999969.7000008,1.1999969v8c0,.5-.2000008,1-.7000008,1.2000046-.2999992.1999969-.5.3000031-.7999992.3000031Z"/>
      <path class="st23" d="M25,119v8l-10-4,10-4M25,116c-.3999996,0-.7999992,0-1.1000004.1999969l-10,4c-1.1000004.5-1.8999996,1.5999985-1.8999996,2.8000031s.6999998,2.3000031,1.8999996,2.8000031l10,4c.3999996.1000061.7000008.1999969,1.1000004.1999969.6000004,0,1.2000008-.1999969,1.7000008-.5.7999992-.6000061,1.2999992-1.5,1.2999992-2.5v-8c0-1-.5-1.9000015-1.2999992-2.5-.5-.3000031-1.1000004-.5-1.7000008-.5h0Z"/>
    </g>
    <polygon class="st23" points="15 123 19 120 19 126 15 123"/>
    <g>
      <rect class="st2" x="24" y="117.5" width="23" height="11" rx="1.5" ry="1.5"/>
      <path class="st23" d="M45.5,119v8h-20v-8h20M45.5,116h-20c-1.7000008,0-3,1.3000031-3,3v8c0,.8000031.2999992,1.6000061.8999996,2.1000061.6000004.6000061,1.2999992.8999939,2.1000004.8999939h20c1.7000008,0,3-1.3000031,3-3v-8c0-.8000031-.2999992-1.5999985-.9000015-2.0999985-.5999985-.5999985-1.2999992-.9000015-2.0999985-.9000015h0ZM45.5,122h0Z"/>
    </g>
    <rect class="st27" x="25.5" y="123" width="20" height="4"/>
    <g>
      <path class="st29" d="M57.5,128.5v-11h5.5c1.9000015,0,3.5,1.5999985,3.5,3.5v4c0,1.9000015-1.5999985,3.5-3.5,3.5h-5.5Z"/>
      <path class="st23" d="M63,119c1.0999985,0,2,.9000015,2,2v4c0,1.0999985-.9000015,2-2,2h-4v-8h4M63,116h-7v14h7c2.8000031,0,5-2.1999969,5-5v-4c0-2.8000031-2.1999969-5-5-5h0Z"/>
    </g>
    <path class="st25" d="M65,124v1c0,1.0999985-.9000015,2-2,2h-4v-3h6Z"/>
    <line class="st7" x1="45.5" y1="123" x2="25.5" y2="123"/>
    <g>
      <rect class="st8" x="47" y="117.5" width="10.5" height="11"/>
      <path class="st23" d="M56,119v8h-7.5v-8h7.5M59,116h-13.5v14h13.5v-14h0Z"/>
    </g>
    <rect class="st13" x="48.5" y="124" width="7.5" height="3"/>
    <line class="st7" x1="52.2999992" y1="127" x2="52.2999992" y2="119"/>
  </g>
  <line class="st3" y1="128.5" x2="375" y2="128.5"/>
  <path class="st29" d="M271.5,72.5c1.7999878,0,3.3999939-.8000031,4.5-2-1.1000061-1.1999969-2.7000122-2-4.5-2s-3.3999939.8000031-4.5,2c1.1000061,1.1999969,2.7000122,2,4.5,2Z"/>
  <rect class="st16" x="231.5" y="117" width="3" height="10"/>
  <g>
    <path class="st27" d="M210,128.5c-.8000031,0-1.5-.6999969-1.5-1.5v-50c0-.8000031.6999969-1.5,1.5-1.5h8c14.6000061,0,26.5,11.9000015,26.5,26.5s-11.8999939,26.5-26.5,26.5h-8Z"/>
    <path class="st23" d="M218,77c13.8000031,0,25,11.1999969,25,25s-11.1999969,25-25,25h-8v-50h8M218,74h-8c-1.6999969,0-3,1.3000031-3,3v50c0,1.6999969,1.3000031,3,3,3h8c15.3999939,0,28-12.5999985,28-28s-12.6000061-28-28-28h0Z"/>
  </g>
  <line class="st6" x1="243" y1="102" x2="233.6000061" y2="102"/>
  <line class="st6" x1="242" y1="93" x2="232.6000061" y2="93"/>
  <line class="st6" x1="242" y1="111" x2="232.6000061" y2="111"/>
  <line class="st6" x1="237" y1="120" x2="227.6000061" y2="120"/>
  <line class="st6" x1="237" y1="84" x2="227.6000061" y2="84"/>
  <path class="st17" d="M210,128.5c-14.6000061,0-26.5-11.9000015-26.5-26.5s11.8999939-26.5,26.5-26.5,26.5,11.9000015,26.5,26.5-11.8999939,26.5-26.5,26.5Z"/>
  <g>
    <path class="st20" d="M213.3999939,75.6999969l-24.5,42.4000015c1.3000031,1.6999969,2.6999969,3.1999969,4.3000031,4.5l26.1999969-45.2999954c-1.8999939-.6999969-3.8999939-1.3000031-6-1.5v-.1000061Z"/>
    <path class="st20" d="M222.1999969,78.5l-26.5,45.8000031c1.1000061.6999969,2.3000031,1.4000015,3.5,1.9000015l26.3000031-45.5999985c-1.1000061-.8000031-2.1999969-1.5-3.3999939-2.0999985l.0999908-.0000076Z"/>
  </g>
  <path class="st17" d="M210,121.5c-10.8000031,0-19.5-8.6999969-19.5-19.5s8.6999969-19.5,19.5-19.5,19.5,8.6999969,19.5,19.5-8.6999969,19.5-19.5,19.5Z"/>
  <g>
    <path class="st20" d="M214,82.9000015l-18.5,32.0999985c1.3999939,1.5,2.8999939,2.8000031,4.6999969,3.8000031l19.5-33.6999969c-1.6999969-1-3.6000061-1.8000031-5.6999969-2.2000046Z"/>
    <path class="st20" d="M222.1999969,86.8000031l-19.3000031,33.4000015c1.3000031.5,2.6000061.9000015,4,1.0999985l18.1999969-31.5c-.8999939-1.0999985-1.8999939-2-2.8999939-2.9000015v-.0999985Z"/>
  </g>
  <path class="st27" d="M195,102c0-9.4000015,7.3000031-17.1999969,16.5-17.9000015h-1.5c-9.8999939,0-18,8.0999985-18,18s8.1000061,18,18,18,1,0,1.5,0c-9.1999969-.8000031-16.5-8.5-16.5-17.9000015v-.1999969Z"/>
  <path class="st6" d="M212,101.5999985c0-1.6999969,1.3000031-3,3-3s3,1.3000031,3,3"/>
  <path class="st6" d="M200,101.5999985c0-1.6999969,1.3000031-3,3-3s3,1.3000031,3,3"/>
  <path class="st23" d="M219.3000031,95.1999969c-2.6000061-.3000031-4.3999939-.5-7.1000061-.6999969-.6000061-.0999985-1.1000061-.6999969-1-1.3000031.3000031-1,1.1999969-1.5999985,2.1999969-2,1.6000061-.6999969,3.8000031-.5,5.3000031.5.6999969.5,1.3000031,1.0999985,1.6999969,1.9000015s-.3000031,1.6999969-1.1999969,1.5999985h.1000061Z"/>
  <path class="st23" d="M197.5,93.5999985c1.1999969-2.4000015,4.6000061-3.5,7-2.4000015,1.1999969.5,3.1000061,1.9000015,1.8000031,3.0999985-.8000031.5-2,.3000031-2.6000061.4000015-1.8000031,0-3.1000061.4000015-5,.5-.8999939.0999985-1.6000061-.9000015-1.1999969-1.5999985h0Z"/>
  <path class="st23" d="M215,105h-12c-1.6999969,0-3,1.3000031-3,3,0,5,4,9,9,9s8.8999939-4,9-8.8000031v-.1999969c0-1.6999969-1.3000031-3-3-3Z"/>
  <path class="st1" d="M209,114c1.8000031,0,3.3999939-.8000031,4.5-2-1.1000061-1.1999969-2.6999969-2-4.5-2s-3.3999939.8000031-4.5,2c1.1000061,1.1999969,2.6999969,2,4.5,2Z"/>
  <path class="st23" d="M210,77c13.8000031,0,25,11.1999969,25,25s-11.1999969,25-25,25-25-11.1999969-25-25,11.1999969-25,25-25M210,74c-15.3999939,0-28,12.5999985-28,28s12.6000061,28,28,28,28-12.5999985,28-28-12.6000061-28-28-28h0Z"/>
  <path class="st23" d="M210,84c9.8999939,0,18,8.0999985,18,18s-8.1000061,18-18,18-18-8.0999985-18-18,8.1000061-18,18-18M210,81c-11.6000061,0-21,9.4000015-21,21s9.3999939,21,21,21,21-9.4000015,21-21-9.3999939-21-21-21h0Z"/>
  <path class="st18" d="M82.0473633,72.823288c1.7887596-1.0909629,4.4950535-.8625091,5.7210082.9504957.2589723.3986483.1457978.931737-.2528152,1.1907321-.2491487.1708025-.5377575.1539736-.8091593.0938338-.7305914-.1428203-1.2832675-.289744-1.998452-.380813-.7612154-.1136407-1.6164777-.1375755-2.3820335-.2970781-.7513689-.1161144-.9308314-1.1943829-.2785483-1.5571703h0Z"/>
  <path class="st18" d="M73.4716644,74.4190445c-1.4919912.18078-2.9058365.3305829-4.3755096.6726217-.4687974.0787363-.9127213-.2373724-.9915558-.7061529-.0670981-.7871391.7366364-1.3499991,1.3391839-1.7070867,1.4247397-.7327808,3.1315805-.6820599,4.5088516.1448317.4005836.241439.5296043.7618782.288195,1.1624519-.165444.2890158-.4673023.3947052-.769165.4333344h0Z"/>
  <path class="st18" d="M84,83.5h-12c-.5303955,0-1.0391235.2107544-1.4141846.5858154s-.5858154.8837891-.5858154,1.4141846c0,4.4111938,3.5888062,8,8,8s8-3.5887451,8-8c0-1.1045532-.8954468-2-2-2Z"/>
  <path class="st30" d="M77.9999996,91.5c1.7748054.0000003,3.3646444-.7751433,4.4631519-1.9999925-1.0985073-1.2248496-2.6883462-1.9999938-4.4631516-1.9999941s-3.3646444.7751433-4.4631519,1.9999925c1.0985073,1.2248496,2.6883462,1.9999938,4.4631516,1.9999941Z"/>
</svg>