<svg width="183" height="75" viewBox="0 0 183 75" fill="none" xmlns="http://www.w3.org/2000/svg">
<g clip-path="url(#clip0_7380_2726)">
<path d="M175.361 27.0942C175.159 26.2275 174.237 23.5312 170.575 22.7288C170.683 21.3602 170.403 19.8603 169.183 18.5618C166.589 15.7838 161.053 15.3344 156.63 19.4489C156.504 19.5627 156.387 19.6794 156.271 19.799C156.265 19.8049 156.259 19.8107 156.253 19.8166C156.247 19.8224 156.241 19.8282 156.236 19.8341C156.23 19.8399 156.224 19.8457 156.218 19.8516C156.212 19.8574 156.206 19.8632 156.201 19.8691C156.195 19.8749 156.189 19.8807 156.183 19.8866C156.177 19.8924 156.171 19.8983 156.166 19.9041C156.16 19.9099 156.154 19.9158 156.148 19.9216C156.142 19.9274 156.136 19.9333 156.131 19.9391C156.125 19.9449 156.119 19.9508 156.113 19.9566C156.107 19.9625 156.101 19.9683 156.096 19.9741C156.09 19.98 156.084 19.9858 156.078 19.9916C156.072 19.9975 156.066 20.0033 156.06 20.0091C156.055 20.015 156.049 20.0208 156.043 20.0267C156.037 20.0325 156.031 20.0383 156.025 20.0442C156.02 20.05 156.014 20.0558 156.008 20.0617C156.002 20.0675 155.996 20.0733 155.99 20.0792C155.985 20.085 155.979 20.0908 155.973 20.0967C155.967 20.1025 155.961 20.1084 155.955 20.1142C155.95 20.12 155.944 20.1259 155.938 20.1317C155.932 20.1375 155.926 20.1434 155.92 20.1492C155.915 20.155 155.909 20.1609 155.903 20.1667C155.897 20.1726 155.891 20.1784 155.885 20.1842C155.88 20.1901 155.874 20.1959 155.868 20.2017C155.862 20.2076 155.856 20.2134 155.85 20.2192C155.845 20.2251 155.839 20.2309 155.833 20.2368C155.827 20.2426 155.821 20.2484 155.815 20.2543C155.81 20.2601 155.804 20.2659 155.798 20.2718C155.792 20.2776 155.786 20.2834 155.78 20.2893C155.775 20.2951 155.769 20.3009 155.763 20.3068C155.757 20.3126 155.751 20.3185 155.745 20.3243C155.739 20.3301 155.734 20.336 155.728 20.3418C155.722 20.3476 155.716 20.3535 155.71 20.3593C155.704 20.3651 155.699 20.371 155.693 20.3768C155.687 20.3827 155.681 20.3885 155.675 20.3943C155.669 20.4002 155.664 20.406 155.658 20.4118C155.652 20.4177 155.646 20.4235 155.64 20.4293C155.634 20.4352 155.629 20.441 155.623 20.4469C155.617 20.4527 155.611 20.4585 155.605 20.4644C155.599 20.4702 155.594 20.476 155.588 20.4819C155.582 20.4877 155.576 20.4935 155.57 20.4994C155.564 20.5052 155.559 20.511 155.553 20.5169C155.547 20.5227 155.541 20.5286 155.535 20.5344C155.529 20.5402 155.524 20.5461 155.518 20.5519C155.512 20.5577 155.506 20.5636 155.5 20.5694C155.494 20.5752 155.489 20.5811 155.483 20.5869C155.477 20.5928 155.471 20.5986 155.465 20.6044C155.459 20.6103 155.454 20.6161 155.448 20.6219C155.442 20.6278 155.436 20.6336 155.43 20.6394C155.424 20.6453 155.419 20.6511 155.413 20.657C155.407 20.6628 155.401 20.6686 155.395 20.6745C155.389 20.6803 155.383 20.6861 155.378 20.692C155.372 20.6978 155.366 20.7036 155.36 20.7095C155.354 20.7153 155.348 20.7211 155.343 20.727C155.337 20.7328 155.331 20.7387 155.325 20.7445C155.319 20.7503 155.313 20.7562 155.308 20.762C155.302 20.7678 155.296 20.7737 155.29 20.7795C155.284 20.7853 155.278 20.7912 155.273 20.797C155.267 20.8029 155.261 20.8087 155.255 20.8145C155.249 20.8204 155.243 20.8262 155.238 20.832C155.232 20.8379 155.226 20.8437 155.22 20.8495C155.214 20.8554 155.208 20.8612 155.203 20.8671C155.197 20.8729 155.191 20.8787 155.185 20.8846C155.179 20.8904 155.173 20.8962 155.168 20.9021C155.162 20.9079 155.156 20.9137 155.15 20.9196C155.144 20.9254 155.138 20.9312 155.133 20.9371C155.127 20.9429 155.121 20.9488 155.115 20.9546C155.109 20.9604 155.103 20.9663 155.098 20.9721C155.092 20.9779 155.086 20.9838 155.08 20.9896C155.074 20.9954 155.068 21.0013 155.063 21.0071C155.057 21.013 155.051 21.0188 155.045 21.0246C155.039 21.0305 155.033 21.0363 155.027 21.0421C155.022 21.048 155.016 21.0538 155.01 21.0596C155.004 21.0655 154.998 21.0713 154.992 21.0772C154.987 21.083 154.981 21.0888 154.975 21.0947C154.969 21.1005 154.963 21.1063 154.957 21.1122C154.952 21.118 154.946 21.1238 154.94 21.1297C154.934 21.1355 154.928 21.1414 154.922 21.1472C154.917 21.153 154.911 21.1589 154.905 21.1647C154.899 21.1705 154.893 21.1764 154.887 21.1822C154.882 21.188 154.876 21.1939 154.87 21.1997C154.864 21.2055 154.858 21.2114 154.852 21.2172C154.847 21.2231 154.841 21.2289 154.835 21.2347C154.829 21.2406 154.823 21.2464 154.817 21.2522C154.812 21.2581 154.806 21.2639 154.8 21.2697C154.794 21.2756 154.788 21.2814 154.782 21.2873C154.777 21.2931 154.771 21.2989 154.765 21.3048C154.759 21.3106 154.753 21.3164 154.747 21.3223C154.742 21.3281 154.736 21.3339 154.73 21.3398C154.724 21.3456 154.718 21.3515 154.712 21.3573C154.707 21.3631 154.701 21.369 154.695 21.3748C154.689 21.3806 154.683 21.3865 154.677 21.3923C154.671 21.3981 154.666 21.404 154.66 21.4098C154.654 21.4156 154.648 21.4215 154.642 21.4273C154.636 21.4332 154.631 21.439 154.625 21.4448C154.619 21.4507 154.613 21.4565 154.607 21.4623C154.601 21.4682 154.596 21.474 154.59 21.4798C154.584 21.4857 154.578 21.4915 154.572 21.4974C154.566 21.5032 154.561 21.509 154.555 21.5149C154.549 21.5207 154.543 21.5265 154.537 21.5324C154.531 21.5382 154.526 21.544 154.52 21.5499C154.514 21.5557 154.508 21.5616 154.502 21.5674C154.496 21.5732 154.491 21.5791 154.485 21.5849C154.479 21.5907 154.473 21.5966 154.467 21.6024C154.461 21.6082 154.456 21.6141 154.45 21.6199C154.444 21.6257 154.438 21.6316 154.432 21.6374C154.426 21.6433 154.421 21.6491 154.415 21.6549C154.409 21.6608 154.403 21.6666 154.397 21.6724C154.391 21.6783 154.386 21.6841 154.38 21.6899C154.374 21.6958 154.368 21.7016 154.362 21.7075C154.356 21.7133 154.35 21.7191 154.345 21.725C154.339 21.7308 154.333 21.7366 154.327 21.7425C154.321 21.7483 154.315 21.7541 154.31 21.76C154.304 21.7658 154.298 21.7717 154.292 21.7775C154.286 21.7833 154.28 21.7892 154.275 21.795C154.269 21.8008 154.263 21.8067 154.257 21.8125C154.251 21.8183 154.245 21.8242 154.24 21.83C154.234 21.8358 154.228 21.8417 154.222 21.8475C154.216 21.8534 154.21 21.8592 154.205 21.865C154.199 21.8709 154.193 21.8767 154.187 21.8825C154.181 21.8884 154.175 21.8942 154.17 21.9C154.164 21.9059 154.158 21.9117 154.152 21.9176C154.146 21.9234 154.14 21.9292 154.135 21.9351C154.129 21.9409 154.123 21.9467 154.117 21.9526C154.111 21.9584 154.105 21.9642 154.1 21.9701C152.392 21.3281 148.17 20.1492 144.333 22.3523C144.292 22.3757 144.248 22.399 144.207 22.4253C142.529 20.4731 140.014 19.9479 138.946 19.8107C136.816 19.516 135.024 19.9012 133.621 20.9633C131.852 20.6628 129.912 21.1151 128.135 22.3202C127.91 21.9176 127.653 21.5382 127.37 21.188C125.718 19.16 123.183 18.6231 121.802 18.4859C119.932 18.2875 118.143 18.7485 116.693 19.7932C116.121 19.6852 115.543 19.6648 114.954 19.7319C114.86 16.5746 113.037 13.6653 109.891 11.7715C105.727 9.26193 100.358 9.07517 96.354 11.1878C96.3365 11.1733 96.319 11.1587 96.3015 11.1441C93.5294 8.90884 88.4782 9.06642 84.7168 12.9737C84.711 12.9795 84.7051 12.9854 84.6993 12.9912C84.6935 12.997 84.6876 13.0029 84.6818 13.0087C84.676 13.0146 84.6701 13.0204 84.6643 13.0262C84.6584 13.0321 84.6526 13.0379 84.6468 13.0437C84.6409 13.0496 84.6351 13.0554 84.6293 13.0612C84.6234 13.0671 84.6176 13.0729 84.6118 13.0787C84.6059 13.0846 84.6001 13.0904 84.5942 13.0963C84.5884 13.1021 84.5826 13.1079 84.5767 13.1138C84.5709 13.1196 84.5651 13.1254 84.5592 13.1313C84.5534 13.1371 84.5476 13.1429 84.5417 13.1488C84.5359 13.1546 84.5301 13.1605 84.5242 13.1663C84.5184 13.1721 84.5125 13.178 84.5067 13.1838C84.5009 13.1896 84.495 13.1955 84.4892 13.2013C84.4834 13.2071 84.4775 13.213 84.4717 13.2188C84.4659 13.2247 84.46 13.2305 84.4542 13.2363C84.4483 13.2422 84.4425 13.248 84.4367 13.2538C84.4308 13.2597 84.425 13.2655 84.4192 13.2713C84.4133 13.2772 84.4075 13.283 84.4016 13.2889C84.3958 13.2947 84.39 13.3005 84.3841 13.3064C84.3783 13.3122 84.3725 13.318 84.3666 13.3239C84.3608 13.3297 84.355 13.3355 84.3491 13.3414C84.3433 13.3472 84.3375 13.353 84.3316 13.3589C84.3258 13.3647 84.3199 13.3706 84.3141 13.3764C84.3083 13.3822 84.3024 13.3881 84.2966 13.3939C84.2908 13.3997 84.2849 13.4056 84.2791 13.4114C84.2733 13.4172 84.2674 13.4231 84.2616 13.4289C84.2558 13.4348 84.2499 13.4406 84.2441 13.4464C84.2382 13.4523 84.2324 13.4581 84.2266 13.4639C84.2207 13.4698 84.2149 13.4756 84.2091 13.4814C84.2032 13.4873 84.1974 13.4931 84.1916 13.499C84.1857 13.5048 84.1799 13.5106 84.174 13.5165C84.1682 13.5223 84.1624 13.5281 84.1565 13.534C84.1507 13.5398 84.1449 13.5456 84.139 13.5515C84.1332 13.5573 84.1274 13.5631 84.1215 13.569C84.1157 13.5748 84.1098 13.5807 84.104 13.5865C84.0982 13.5923 84.0923 13.5982 84.0865 13.604C84.0807 13.6098 84.0748 13.6157 84.069 13.6215C84.0632 13.6273 84.0573 13.6332 84.0515 13.639C84.0457 13.6449 84.0398 13.6507 84.034 13.6565C84.0281 13.6624 84.0223 13.6682 84.0165 13.674C84.0106 13.6799 84.0048 13.6857 83.999 13.6915C83.9931 13.6974 83.9873 13.7032 83.9815 13.7091C83.9756 13.7149 83.9698 13.7207 83.9639 13.7266C83.9581 13.7324 83.9523 13.7382 83.9464 13.7441C83.9406 13.7499 83.9348 13.7557 83.9289 13.7616C83.9231 13.7674 83.9173 13.7732 83.9114 13.7791C83.9056 13.7849 83.8997 13.7908 83.8939 13.7966C83.8881 13.8024 83.8822 13.8083 83.8764 13.8141C83.8706 13.8199 83.8647 13.8258 83.8589 13.8316C83.8531 13.8374 83.8472 13.8433 83.8414 13.8491C83.8356 13.855 83.8297 13.8608 83.8239 13.8666C83.818 13.8725 83.8122 13.8783 83.8064 13.8841C83.8005 13.89 83.7947 13.8958 83.7889 13.9016C83.783 13.9075 83.7772 13.9133 83.7713 13.9192C83.7655 13.925 83.7597 13.9308 83.7538 13.9367C83.748 13.9425 83.7422 13.9483 83.7363 13.9542C83.7305 13.96 83.7247 13.9658 83.7188 13.9717C83.713 13.9775 83.7072 13.9833 83.7013 13.9892C83.6955 13.995 83.6896 14.0009 83.6838 14.0067C83.678 14.0125 83.6721 14.0184 83.6663 14.0242C83.6605 14.03 83.6546 14.0359 83.6488 14.0417C83.643 14.0475 83.6371 14.0534 83.6313 14.0592C83.6255 14.0651 83.6196 14.0709 83.6138 14.0767C83.6079 14.0826 83.6021 14.0884 83.5963 14.0942C83.5904 14.1001 83.5846 14.1059 83.5788 14.1117C83.5729 14.1176 83.5671 14.1234 83.5612 14.1293C83.5554 14.1351 83.5496 14.1409 83.5437 14.1468C83.5379 14.1526 83.5321 14.1584 83.5262 14.1643C83.5204 14.1701 83.5146 14.1759 83.5087 14.1818C83.5029 14.1876 83.4971 14.1934 83.4912 14.1993C83.4854 14.2051 83.4795 14.211 83.4737 14.2168C83.4679 14.2226 83.462 14.2285 83.4562 14.2343C83.4504 14.2401 83.4445 14.246 83.4387 14.2518C83.4329 14.2576 83.427 14.2635 83.4212 14.2693C83.4154 14.2752 83.4095 14.281 83.4037 14.2868C83.3978 14.2927 83.392 14.2985 83.3862 14.3043C83.3803 14.3102 83.3745 14.316 83.3687 14.3218C83.3628 14.3277 83.357 14.3335 83.3512 14.3394C83.3453 14.3452 83.3395 14.351 83.3336 14.3569C83.3278 14.3627 83.322 14.3685 83.3161 14.3744C83.3103 14.3802 83.3045 14.386 83.2986 14.3919C83.2928 14.3977 83.287 14.4035 83.2811 14.4094C83.2782 14.4123 83.2753 14.4152 83.2724 14.4181C83.0156 14.4269 82.785 14.4356 82.5808 14.4386H82.5224C80.7191 14.5115 79.1871 15.1943 78.1366 16.3149C78.1307 16.3207 78.1249 16.3266 78.1191 16.3324C78.1132 16.3382 78.1074 16.3441 78.1016 16.3499C78.0957 16.3557 78.0899 16.3616 78.0841 16.3674C78.0782 16.3732 78.0724 16.3791 78.0665 16.3849C78.0607 16.3907 78.0549 16.3966 78.049 16.4024C78.0432 16.4083 78.0374 16.4141 78.0315 16.4199C78.0257 16.4258 78.0199 16.4316 78.014 16.4374C78.0082 16.4433 78.0023 16.4491 77.9965 16.4549C77.9907 16.4608 77.9848 16.4666 77.979 16.4725C77.9732 16.4783 77.9673 16.4841 77.9615 16.49C77.9557 16.4958 77.9498 16.5016 77.944 16.5075C77.9381 16.5133 77.9323 16.5191 77.9265 16.525C77.9206 16.5308 77.9148 16.5367 77.909 16.5425C77.9031 16.5483 77.8973 16.5542 77.8915 16.56C77.8856 16.5658 77.8798 16.5717 77.8739 16.5775C77.8681 16.5833 77.8623 16.5892 77.8564 16.595C77.8506 16.6008 77.8448 16.6067 77.8389 16.6125C77.8331 16.6184 77.8273 16.6242 77.8214 16.63C77.8156 16.6359 77.8098 16.6417 77.8039 16.6475C77.7981 16.6534 77.7922 16.6592 77.7864 16.665C77.7806 16.6709 77.7747 16.6767 77.7689 16.6826C77.7631 16.6884 77.7572 16.6942 77.7514 16.7001C77.7456 16.7059 77.7397 16.7117 77.7339 16.7176C77.7281 16.7234 77.7222 16.7292 77.7164 16.7351C77.7105 16.7409 77.7047 16.7468 77.6989 16.7526C77.693 16.7584 77.6872 16.7643 77.6814 16.7701C77.6755 16.7759 77.6697 16.7818 77.6638 16.7876C77.658 16.7934 77.6522 16.7993 77.6463 16.8051C77.6405 16.8109 77.6347 16.8168 77.6288 16.8226C77.623 16.8285 77.6172 16.8343 77.6113 16.8401C77.6055 16.846 77.5997 16.8518 77.5938 16.8576C77.588 16.8635 77.5821 16.8693 77.5763 16.8751C77.5705 16.881 77.5646 16.8868 77.5588 16.8927C77.553 16.8985 77.5471 16.9043 77.5413 16.9102C77.5355 16.916 77.5296 16.9218 77.5238 16.9277C77.518 16.9335 77.5121 16.9393 77.5063 16.9452C77.5004 16.951 77.4946 16.9569 77.4888 16.9627C77.4829 16.9685 77.4771 16.9744 77.4713 16.9802C77.4654 16.986 77.4596 16.9919 77.4538 16.9977C77.4479 17.0035 77.4421 17.0094 77.4362 17.0152C77.4304 17.021 77.4246 17.0269 77.4187 17.0327C77.4129 17.0386 77.4071 17.0444 77.4012 17.0502C77.3954 17.0561 77.3896 17.0619 77.3837 17.0677C77.3779 17.0736 77.372 17.0794 77.3662 17.0852C77.3604 17.0911 77.3545 17.0969 77.3487 17.1028C77.3429 17.1086 77.337 17.1144 77.3312 17.1203C77.3254 17.1261 77.3195 17.1319 77.3137 17.1378C77.3079 17.1436 77.302 17.1494 77.2962 17.1553C77.2903 17.1611 77.2845 17.167 77.2787 17.1728C77.2728 17.1786 77.267 17.1845 77.2612 17.1903C77.2553 17.1961 77.2495 17.202 77.2436 17.2078C77.2378 17.2136 77.232 17.2195 77.2261 17.2253C77.2203 17.2311 77.2145 17.237 77.2086 17.2428C77.2028 17.2487 77.197 17.2545 77.1911 17.2603C77.1853 17.2662 77.1795 17.272 77.1736 17.2778C77.1678 17.2837 77.1619 17.2895 77.1561 17.2953C77.1503 17.3012 77.1444 17.307 77.1386 17.3129C77.1328 17.3187 77.1269 17.3245 77.1211 17.3304C77.1153 17.3362 77.1094 17.342 77.1036 17.3479C77.0977 17.3537 77.0919 17.3595 77.0861 17.3654C77.0802 17.3712 77.0744 17.3771 77.0686 17.3829C77.0627 17.3887 77.0569 17.3946 77.0511 17.4004C77.0452 17.4062 77.0394 17.4121 77.0335 17.4179C77.0277 17.4237 77.0219 17.4296 77.016 17.4354C77.0102 17.4412 77.0044 17.4471 76.9985 17.4529C76.9927 17.4588 76.9869 17.4646 76.981 17.4704C76.9752 17.4763 76.9694 17.4821 76.9635 17.4879C76.9577 17.4938 76.9518 17.4996 76.946 17.5054C76.9402 17.5113 76.9343 17.5171 76.9285 17.523C76.9227 17.5288 76.9168 17.5346 76.911 17.5405C76.9052 17.5463 76.8993 17.5521 76.8935 17.558C76.8876 17.5638 76.8818 17.5696 76.876 17.5755C76.8701 17.5813 76.8643 17.5872 76.8585 17.593C76.8526 17.5988 76.8468 17.6047 76.841 17.6105C76.8351 17.6163 76.8293 17.6222 76.8234 17.628C76.8176 17.6338 76.8118 17.6397 76.8059 17.6455C76.8001 17.6514 76.7943 17.6572 76.7884 17.663C76.7826 17.6689 76.7768 17.6747 76.7709 17.6805C76.7651 17.6864 76.7593 17.6922 76.7534 17.698C76.7476 17.7039 76.7417 17.7097 76.7359 17.7155C76.7301 17.7214 76.7242 17.7272 76.7184 17.7331C76.7126 17.7389 76.7067 17.7447 76.7009 17.7506C76.6951 17.7564 76.6892 17.7622 76.6834 17.7681C76.6776 17.7739 76.6717 17.7797 76.6659 17.7856C76.66 17.7914 76.6542 17.7973 76.6484 17.8031C76.6425 17.8089 76.6367 17.8148 76.6309 17.8206C76.625 17.8264 76.6192 17.8323 76.6133 17.8381C76.6075 17.8439 76.6017 17.8498 76.5958 17.8556C76.59 17.8615 76.5842 17.8673 76.5783 17.8731C76.5725 17.879 76.5667 17.8848 76.5608 17.8906C76.555 17.8965 76.5491 17.9023 76.5433 17.9081C76.5375 17.914 76.5316 17.9198 76.5258 17.9256C76.52 17.9315 76.5141 17.9373 76.5083 17.9432C76.5025 17.949 76.4966 17.9548 76.4908 17.9607C76.485 17.9665 76.4791 17.9723 76.4733 17.9782C76.4674 17.984 76.4616 17.9898 76.4558 17.9957C76.4499 18.0015 76.4441 18.0074 76.4383 18.0132C76.4324 18.019 76.4266 18.0249 76.4208 18.0307C76.4149 18.0365 76.4091 18.0424 76.4032 18.0482C76.3974 18.054 76.3916 18.0599 76.3857 18.0657C76.3799 18.0716 76.3741 18.0774 76.3682 18.0832C76.3624 18.0891 76.3566 18.0949 76.3507 18.1007C76.3449 18.1066 76.3391 18.1095 76.3361 18.1153C76.269 18.0599 76.2048 18.0015 76.1348 17.9461L76.0735 17.8994C74.667 16.846 72.7206 16.4083 70.7393 16.7001C68.9009 16.9685 67.1559 17.8177 65.6531 19.1483C63.8293 17.9081 61.527 17.4938 59.8345 17.5551C58.6031 17.6017 57.3716 17.8935 56.1752 18.4071C56.7063 15.7955 55.936 13.6594 54.7833 12.3288C54.4448 11.9174 54.0947 11.6372 53.8174 11.4417C50.7622 9.1773 46.1342 10.0702 43.8815 11.1937C43.3329 11.4709 42.8455 11.8181 42.4253 12.2325C42.4166 12.2413 42.4078 12.25 42.3991 12.2588C42.3932 12.2646 42.3874 12.2704 42.3816 12.2763C42.3757 12.2821 42.3699 12.288 42.3641 12.2938C42.3582 12.2996 42.3524 12.3055 42.3465 12.3113C42.3407 12.3171 42.3349 12.323 42.329 12.3288C42.3232 12.3346 42.3174 12.3405 42.3115 12.3463C42.3057 12.3522 42.2999 12.358 42.294 12.3638C42.2882 12.3697 42.2824 12.3755 42.2765 12.3813C42.2707 12.3872 42.2648 12.393 42.259 12.3988C42.2532 12.4047 42.2473 12.4105 42.2415 12.4164C42.2357 12.4222 42.2298 12.428 42.224 12.4339C42.2182 12.4397 42.2123 12.4455 42.2065 12.4514C42.2006 12.4572 42.1948 12.463 42.189 12.4689C42.1831 12.4747 42.1773 12.4805 42.1715 12.4864C42.1656 12.4922 42.1598 12.4981 42.154 12.5039C42.1481 12.5097 42.1423 12.5156 42.1364 12.5214C42.1306 12.5272 42.1248 12.5331 42.1189 12.5389C42.1131 12.5447 42.1073 12.5506 42.1014 12.5564C42.0956 12.5623 42.0898 12.5681 42.0839 12.5739C42.0781 12.5798 42.0723 12.5856 42.0664 12.5914C42.0606 12.5973 42.0547 12.6031 42.0489 12.6089C42.0431 12.6148 42.0372 12.6206 42.0314 12.6265C42.0256 12.6323 42.0197 12.6381 42.0139 12.644C42.0081 12.6498 42.0022 12.6556 41.9964 12.6615C41.9905 12.6673 41.9847 12.6731 41.9789 12.679C41.973 12.6848 41.9672 12.6906 41.9614 12.6965C41.9555 12.7023 41.9497 12.7082 41.9439 12.714C41.938 12.7198 41.9322 12.7257 41.9263 12.7315C41.9205 12.7373 41.9147 12.7432 41.9088 12.749C41.903 12.7548 41.8972 12.7607 41.8913 12.7665C41.8855 12.7724 41.8797 12.7782 41.8738 12.784C41.868 12.7899 41.8622 12.7957 41.8563 12.8015C41.8505 12.8074 41.8446 12.8132 41.8388 12.819C41.833 12.8249 41.8271 12.8307 41.8213 12.8366C41.8155 12.8424 41.8096 12.8482 41.8038 12.8541C41.798 12.8599 41.7921 12.8657 41.7863 12.8716C41.7804 12.8774 41.7746 12.8832 41.7688 12.8891C41.7629 12.8949 41.7571 12.9007 41.7513 12.9066C41.7454 12.9124 41.7396 12.9183 41.7338 12.9241C41.7279 12.9299 41.7221 12.9358 41.7163 12.9416C41.7104 12.9474 41.7046 12.9533 41.6987 12.9591C41.6929 12.9649 41.6871 12.9708 41.6812 12.9766C41.6754 12.9825 41.6696 12.9883 41.6637 12.9941C41.6579 13 41.6521 13.0058 41.6462 13.0116C41.6404 13.0175 41.6345 13.0233 41.6287 13.0291C41.6229 13.035 41.617 13.0408 41.6112 13.0467C41.6054 13.0525 41.5995 13.0583 41.5937 13.0642C41.5879 13.07 41.582 13.0758 41.5762 13.0817C41.5703 13.0875 41.5645 13.0933 41.5587 13.0992C41.5528 13.105 41.547 13.1108 41.5412 13.1167C41.5353 13.1225 41.5295 13.1284 41.5237 13.1342C41.5178 13.14 41.512 13.1459 41.5061 13.1517C41.5003 13.1575 41.4945 13.1634 41.4886 13.1692C41.4828 13.175 41.477 13.1809 41.4711 13.1867C41.4653 13.1926 41.4595 13.1984 41.4536 13.2042C41.4478 13.2101 41.442 13.2159 41.4361 13.2217C41.4303 13.2276 41.4244 13.2334 41.4186 13.2392C41.4128 13.2451 41.4069 13.2509 41.4011 13.2568C41.3953 13.2626 41.3894 13.2684 41.3836 13.2743C41.3778 13.2801 41.3719 13.2859 41.3661 13.2918C41.3602 13.2976 41.3544 13.3034 41.3486 13.3093C41.3427 13.3151 41.3369 13.3209 41.3311 13.3268C41.3252 13.3326 41.3194 13.3385 41.3136 13.3443C41.3077 13.3501 41.3019 13.356 41.2961 13.3618C41.2902 13.3676 41.2844 13.3735 41.2785 13.3793C41.2727 13.3851 41.2669 13.391 41.261 13.3968C41.2552 13.4027 41.2494 13.4085 41.2435 13.4143C41.2377 13.4202 41.2318 13.426 41.226 13.4318C41.2202 13.4377 41.2143 13.4435 41.2085 13.4493C41.2027 13.4552 41.1968 13.461 41.191 13.4669C41.1852 13.4727 41.1793 13.4785 41.1735 13.4844C41.1677 13.4902 41.1618 13.496 41.156 13.5019C41.1501 13.5077 41.1443 13.5135 41.1385 13.5194C41.1326 13.5252 41.1268 13.531 41.121 13.5369C40.2076 13.3939 39.233 13.4172 38.2554 13.6215C36.3412 14.0213 34.567 15.0426 33.1051 16.5717C31.8415 15.5387 30.2629 14.7596 28.4362 14.8558C27.7796 14.8909 26.055 15.1331 24.6339 16.6446C23.1574 15.8305 21.2577 15.6291 19.3814 16.0902C17.6101 16.5279 15.9819 17.4967 14.6308 18.9032C14.625 18.909 14.6191 18.9149 14.6133 18.9207C14.6075 18.9265 14.6016 18.9324 14.5958 18.9382C14.59 18.9441 14.5841 18.9499 14.5783 18.9557C14.5724 18.9616 14.5666 18.9674 14.5608 18.9732C14.5549 18.9791 14.5491 18.9849 14.5433 18.9907C14.5374 18.9966 14.5316 19.0024 14.5258 19.0082C14.5199 19.0141 14.5141 19.0199 14.5082 19.0258C14.5024 19.0316 14.4966 19.0374 14.4907 19.0433C14.4849 19.0491 14.4791 19.0549 14.4732 19.0608C14.4674 19.0666 14.4616 19.0724 14.4557 19.0783C14.4499 19.0841 14.444 19.09 14.4382 19.0958C14.4324 19.1016 14.4265 19.1075 14.4207 19.1133C14.4149 19.1191 14.409 19.125 14.4032 19.1308C14.3974 19.1366 14.3915 19.1425 14.3857 19.1483C14.3799 19.1542 14.374 19.16 14.3682 19.1658C14.3623 19.1717 14.3565 19.1775 14.3507 19.1833C14.3448 19.1892 14.339 19.195 14.3332 19.2008C14.3273 19.2067 14.3215 19.2125 14.3157 19.2183C14.3098 19.2242 14.304 19.23 14.2981 19.2359C14.2923 19.2417 14.2865 19.2475 14.2806 19.2534C14.2748 19.2592 14.269 19.265 14.2631 19.2709C14.2573 19.2767 14.2515 19.2825 14.2456 19.2884C14.2398 19.2942 14.2339 19.3001 14.2281 19.3059C14.2223 19.3117 14.2164 19.3176 14.2106 19.3234C14.2048 19.3292 14.1989 19.3351 14.1931 19.3409C14.1873 19.3467 14.1814 19.3526 14.1756 19.3584C14.1698 19.3643 14.1639 19.3701 14.1581 19.3759C14.1522 19.3818 14.1464 19.3876 14.1406 19.3934C14.1347 19.3993 14.1289 19.4051 14.1231 19.4109C14.1172 19.4168 14.1114 19.4226 14.1056 19.4284C14.0997 19.4343 14.0939 19.4401 14.088 19.446C14.0822 19.4518 14.0764 19.4576 14.0705 19.4635C14.0647 19.4693 14.0589 19.4751 14.053 19.481C14.0472 19.4868 14.0414 19.4926 14.0355 19.4985C14.0297 19.5043 14.0238 19.5102 14.018 19.516C14.0122 19.5218 14.0063 19.5277 14.0005 19.5335C13.9947 19.5393 13.9888 19.5452 13.983 19.551C13.9772 19.5568 13.9713 19.5627 13.9655 19.5685C13.9597 19.5744 13.9538 19.5802 13.948 19.586C13.9421 19.5919 13.9363 19.5977 13.9305 19.6035C13.9246 19.6094 13.9188 19.6152 13.913 19.621C13.9071 19.6269 13.9013 19.6327 13.8955 19.6385C13.8896 19.6444 13.8838 19.6502 13.8779 19.6561C13.8721 19.6619 13.8663 19.6677 13.8604 19.6736C13.8546 19.6794 13.8488 19.6852 13.8429 19.6911C13.8371 19.6969 13.8313 19.7027 13.8254 19.7086C13.8196 19.7144 13.8137 19.7203 13.8079 19.7261C13.8021 19.7319 13.7962 19.7378 13.7904 19.7436C13.7846 19.7494 13.7787 19.7553 13.7729 19.7611C13.7671 19.7669 13.7612 19.7728 13.7554 19.7786C13.7495 19.7845 13.7437 19.7903 13.7379 19.7961C13.732 19.802 13.7262 19.8078 13.7204 19.8136C13.7145 19.8195 13.7087 19.8253 13.7029 19.8311C13.697 19.837 13.6912 19.8428 13.6854 19.8486C13.6795 19.8545 13.6737 19.8603 13.6678 19.8662C13.662 19.872 13.6562 19.8778 13.6503 19.8837C13.6445 19.8895 13.6387 19.8953 13.6328 19.9012C13.627 19.907 13.6212 19.9128 13.6153 19.9187C13.6095 19.9245 13.6036 19.9304 13.5978 19.9362C13.592 19.942 13.5861 19.9479 13.5803 19.9537C13.5745 19.9595 13.5686 19.9654 13.5628 19.9712C13.557 19.977 13.5511 19.9829 13.5453 19.9887C13.5394 19.9946 13.5336 20.0004 13.5278 20.0062C13.5219 20.0121 13.5161 20.0179 13.5103 20.0237C13.5044 20.0296 13.4986 20.0354 13.4928 20.0412C13.4869 20.0471 13.4811 20.0529 13.4753 20.0587C13.4694 20.0646 13.4636 20.0704 13.4577 20.0763C13.4519 20.0821 13.4461 20.0879 13.4402 20.0938C13.4344 20.0996 13.4286 20.1054 13.4227 20.1113C13.4169 20.1171 13.4111 20.1229 13.4052 20.1288C13.3994 20.1346 13.3935 20.1405 13.3877 20.1463C13.3819 20.1521 13.376 20.158 13.3702 20.1638C13.3644 20.1696 13.3585 20.1755 13.3527 20.1813C13.3469 20.1871 13.341 20.193 13.3352 20.1988C13.3293 20.2047 13.3235 20.2105 13.3177 20.2163C13.3118 20.2222 13.306 20.228 13.3002 20.2338C13.2943 20.2397 13.2885 20.2455 13.2827 20.2513C13.2768 20.2572 13.271 20.263 13.2652 20.2689C13.2593 20.2747 13.2535 20.2805 13.2476 20.2864C13.2418 20.2922 13.236 20.298 13.2301 20.3039C13.2243 20.3097 13.2185 20.3155 13.2126 20.3214C13.2068 20.3272 13.201 20.333 13.1951 20.3389C13.1893 20.3447 13.1834 20.3506 13.1776 20.3564C13.1718 20.3622 13.1659 20.3681 13.1601 20.3739C13.1543 20.3797 13.1484 20.3856 13.1426 20.3914C13.1368 20.3972 13.1309 20.4031 13.1251 20.4089C13.1192 20.4148 13.1134 20.4206 13.1076 20.4264C13.1017 20.4323 13.0959 20.4381 13.0901 20.4439C13.0842 20.4498 13.0784 20.4556 13.0726 20.4614C13.0667 20.4673 13.0609 20.4731 13.0551 20.479C13.0492 20.4848 13.0434 20.4906 13.0375 20.4965C13.0317 20.5023 13.0259 20.5081 13.02 20.514C13.0142 20.5198 13.0084 20.5256 13.0025 20.5315C12.9967 20.5373 12.9909 20.5431 12.985 20.549C12.9792 20.5548 12.9733 20.5607 12.9675 20.5665C12.9617 20.5723 12.9558 20.5782 12.95 20.584C12.9442 20.5898 12.9383 20.5957 12.9325 20.6015C12.9267 20.6073 12.9208 20.6132 12.915 20.619C12.9091 20.6249 12.9033 20.6307 12.8975 20.6365C12.8916 20.6424 12.8858 20.6482 12.88 20.654C12.8741 20.6599 12.8683 20.6657 12.8625 20.6715C12.8566 20.6774 12.8508 20.6832 12.845 20.6891C12.8391 20.6949 12.8333 20.7007 12.8274 20.7066C12.8216 20.7124 12.8158 20.7182 12.8099 20.7241C12.8041 20.7299 12.7983 20.7357 12.7924 20.7416C12.7866 20.7474 12.7808 20.7532 12.7749 20.7591C12.7691 20.7649 12.7632 20.7708 12.7574 20.7766C12.7516 20.7824 12.7457 20.7883 12.7399 20.7941C12.7341 20.7999 12.7282 20.8058 12.7224 20.8116C12.7166 20.8174 12.7107 20.8233 12.7049 20.8291C12.699 20.835 12.6932 20.8408 12.6874 20.8466C12.6815 20.8525 12.6757 20.8583 12.6699 20.8641C12.664 20.87 12.6582 20.8758 12.6524 20.8816C12.6465 20.8875 12.6407 20.8933 12.6349 20.8992C12.629 20.905 12.6232 20.9108 12.6173 20.9167C12.6115 20.9225 12.6057 20.9283 12.5998 20.9342C12.594 20.94 12.5882 20.9458 12.5823 20.9517C12.5765 20.9575 12.5707 20.9633 12.5648 20.9692C12.559 20.975 12.5531 20.9809 12.5473 20.9867C12.5415 20.9925 12.5356 20.9984 12.5298 21.0042C12.524 21.01 12.5181 21.0159 12.5123 21.0217C12.5065 21.0275 12.5006 21.0334 12.4948 21.0392C12.4889 21.0451 12.4831 21.0509 12.4773 21.0567C12.4714 21.0626 12.4656 21.0684 12.4598 21.0742C12.4539 21.0801 12.4481 21.0859 12.4423 21.0917C12.4364 21.0976 12.4306 21.1034 12.4248 21.1093C12.4189 21.1151 12.4131 21.1209 12.4072 21.1268C12.4014 21.1326 12.3956 21.1384 12.3897 21.1443C12.3839 21.1501 12.3781 21.1559 12.3722 21.1618C12.3664 21.1676 12.3606 21.1734 12.3547 21.1793C12.3489 21.1851 12.343 21.191 12.3372 21.1968C12.3314 21.2026 12.3255 21.2085 12.3197 21.2143C12.3139 21.2201 12.308 21.226 12.3022 21.2318C12.2964 21.2376 12.2905 21.2435 12.2847 21.2493C12.2788 21.2552 12.273 21.261 12.2672 21.2668C12.2613 21.2727 12.2555 21.2785 12.2497 21.2843C12.2438 21.2902 12.238 21.296 12.2322 21.3018C12.2263 21.3077 12.2205 21.3135 12.2147 21.3194C12.2088 21.3252 12.203 21.331 12.1971 21.3369C12.1913 21.3427 12.1855 21.3485 12.1796 21.3544C12.1738 21.3602 12.168 21.366 12.1621 21.3719C12.1563 21.3777 12.1505 21.3835 12.1446 21.3894C12.1388 21.3952 12.1329 21.4011 12.1271 21.4069C12.1213 21.4127 12.1154 21.4186 12.1096 21.4244C12.1038 21.4302 12.0979 21.4361 12.0921 21.4419C12.0863 21.4477 12.0804 21.4536 12.0746 21.4594C12.0687 21.4653 12.0629 21.4711 12.0571 21.4769C12.0512 21.4828 12.0454 21.4886 12.0396 21.4944C12.0337 21.5003 12.0279 21.5061 12.0221 21.5119C12.0162 21.5178 12.0104 21.5236 12.0045 21.5295C11.9987 21.5353 11.9929 21.5411 11.987 21.547C11.9812 21.5528 11.9754 21.5586 11.9695 21.5645C11.9637 21.5703 11.9579 21.5761 11.952 21.582C11.9462 21.5878 11.9404 21.5936 11.9345 21.5995C11.9287 21.6053 11.9228 21.6112 11.917 21.617C11.9112 21.6228 11.9053 21.6287 11.8995 21.6345C11.8937 21.6403 11.8878 21.6462 11.882 21.652C11.8762 21.6578 11.8703 21.6637 11.8645 21.6695C11.8586 21.6754 11.8528 21.6812 11.847 21.687C11.8411 21.6929 11.8353 21.6987 11.8295 21.7045C11.8236 21.7104 11.8178 21.7162 11.812 21.722C11.8061 21.7279 11.8003 21.7337 11.7944 21.7396C11.7886 21.7454 11.7828 21.7512 11.7769 21.7571C11.7711 21.7629 11.7653 21.7687 11.7594 21.7746C11.7536 21.7804 11.7478 21.7862 11.7419 21.7921C11.7361 21.7979 11.7303 21.8037 11.7244 21.8096C11.7186 21.8154 11.7127 21.8213 11.7069 21.8271C11.7011 21.8329 11.6952 21.8388 11.6894 21.8446C11.6836 21.8504 11.6777 21.8563 11.6719 21.8621C11.6661 21.8679 11.6602 21.8738 11.6544 21.8796C11.6485 21.8855 11.6427 21.8913 11.6369 21.8971C11.631 21.903 11.6252 21.9088 11.6194 21.9146C11.6135 21.9205 11.6077 21.9263 11.6019 21.9321C11.596 21.938 11.5902 21.9438 11.5843 21.9497C11.5785 21.9555 11.5727 21.9613 11.5668 21.9672C11.561 21.973 11.5552 21.9788 11.5493 21.9847C11.5435 21.9905 11.5377 21.9963 11.5318 22.0022C11.526 22.008 11.5202 22.0139 11.5143 22.0197C11.5085 22.0255 11.5026 22.0314 11.4968 22.0372C11.491 22.043 11.4851 22.0489 11.4793 22.0547C11.4735 22.0605 11.4676 22.0664 11.4618 22.0722C11.456 22.078 11.4501 22.0839 11.4443 22.0897C11.4384 22.0956 11.4326 22.1014 11.4268 22.1072C11.4209 22.1131 11.4151 22.1189 11.4093 22.1247C11.4034 22.1306 11.3976 22.1364 11.3918 22.1422C11.3859 22.1481 11.3801 22.1539 11.3742 22.1598C11.3684 22.1656 11.3626 22.1714 11.3567 22.1773C11.3509 22.1831 11.3451 22.1889 11.3392 22.1948C11.3334 22.2006 11.3276 22.2064 11.3217 22.2123C11.3159 22.2181 11.3101 22.224 11.3042 22.2298C11.2984 22.2356 11.2925 22.2415 11.2867 22.2473C11.2809 22.2531 11.275 22.259 11.2692 22.2648C11.2634 22.2706 11.2575 22.2765 11.2517 22.2823C11.2459 22.2881 11.24 22.294 11.2342 22.2998C11.2283 22.3057 11.2225 22.3115 11.2167 22.3173C11.2108 22.3232 11.205 22.329 11.1992 22.3348C11.1933 22.3407 11.1875 22.3465 11.1817 22.3523C11.1758 22.3582 11.17 22.364 11.1641 22.3699C11.1583 22.3757 11.1525 22.3815 11.1466 22.3874C11.1408 22.3932 11.135 22.399 11.1291 22.4049C11.1233 22.4107 11.1175 22.4165 11.1116 22.4224C11.1058 22.4282 11.1 22.4341 11.0941 22.4399C11.0883 22.4457 11.0824 22.4516 11.0766 22.4574C11.0708 22.4632 11.0649 22.4691 11.0591 22.4749C11.0533 22.4807 11.0474 22.4866 11.0416 22.4924C11.0358 22.4982 11.0299 22.5041 11.0241 22.5099C11.0182 22.5158 11.0124 22.5216 11.0066 22.5274C11.0007 22.5333 10.9949 22.5391 10.9891 22.5449C10.9832 22.5508 10.9774 22.5566 10.9716 22.5624C10.9657 22.5683 10.9599 22.5741 10.954 22.58C10.9482 22.5858 10.9424 22.5916 10.9365 22.5975C10.9307 22.6033 10.9249 22.6091 10.919 22.615C10.9132 22.6208 10.9074 22.6266 10.9015 22.6325C10.8957 22.6383 10.8898 22.6442 10.884 22.65C10.8782 22.6558 10.8723 22.6617 10.8665 22.6675C10.8607 22.6733 10.8548 22.6792 10.849 22.685C10.8432 22.6908 10.8373 22.6967 10.8315 22.7025C10.8257 22.7083 10.8198 22.7142 10.814 22.72C10.8081 22.7259 10.8023 22.7317 10.7965 22.7375C10.7906 22.7434 10.7848 22.7492 10.779 22.755C10.7731 22.7609 10.7673 22.7667 10.7615 22.7725C10.7556 22.7784 10.7498 22.7842 10.7439 22.7901C10.7381 22.7959 10.7323 22.8017 10.7264 22.8076C10.7206 22.8134 10.7148 22.8192 10.7089 22.8251C10.7031 22.8309 10.6973 22.8367 10.6914 22.8426C10.6856 22.8484 10.6798 22.8542 10.6739 22.8601C10.6681 22.8659 10.6622 22.8718 10.6564 22.8776C10.6506 22.8834 10.6447 22.8893 10.6389 22.8951C10.6331 22.9009 10.6272 22.9068 10.6214 22.9126C10.6156 22.9184 10.6097 22.9243 10.6039 22.9301C10.598 22.936 10.5922 22.9418 10.5864 22.9476C10.5805 22.9535 10.5747 22.9593 10.5689 22.9651C10.563 22.971 10.5572 22.9768 10.5514 22.9826C10.5455 22.9885 10.5397 22.9943 10.5338 23.0002C10.528 23.006 10.5222 23.0118 10.5163 23.0177C10.5105 23.0235 10.5047 23.0293 10.4988 23.0352C10.493 23.041 10.4872 23.0468 10.4813 23.0527C10.4755 23.0585 10.4696 23.0644 10.4638 23.0702C10.458 23.076 10.4521 23.0819 10.4463 23.0877C10.4405 23.0935 10.4346 23.0994 10.4288 23.1052C10.423 23.111 10.4171 23.1169 10.4113 23.1227C10.4055 23.1285 10.3996 23.1344 10.3938 23.1402C10.3879 23.1461 10.3821 23.1519 10.3763 23.1577C10.3704 23.1636 10.3646 23.1694 10.3588 23.1752C10.3529 23.1811 10.3471 23.1869 10.3413 23.1927C10.3354 23.1986 10.3296 23.2044 10.3237 23.2103C10.3179 23.2161 10.3121 23.2219 10.3062 23.2278C10.3004 23.2336 10.2946 23.2394 10.2887 23.2453C10.2829 23.2511 10.2771 23.2569 10.2712 23.2628C10.2654 23.2686 10.2595 23.2745 10.2537 23.2803C10.2479 23.2861 10.242 23.292 10.2362 23.2978C10.2304 23.3036 10.2245 23.3095 10.2187 23.3153C10.2129 23.3211 10.207 23.327 10.2012 23.3328C10.1954 23.3386 10.1895 23.3445 10.1837 23.3503C10.1778 23.3562 10.172 23.362 10.1662 23.3678C10.1603 23.3737 10.1545 23.3795 10.1487 23.3853C10.1428 23.3912 10.137 23.397 10.1312 23.4028C10.1253 23.4087 10.1195 23.4145 10.1136 23.4204C10.1078 23.4262 10.102 23.432 10.0961 23.4379C10.0903 23.4437 10.0845 23.4495 10.0786 23.4554C10.0728 23.4612 10.067 23.467 10.0611 23.4729C10.0553 23.4787 10.0494 23.4846 10.0436 23.4904C10.0378 23.4962 10.0319 23.5021 10.0261 23.5079C10.0203 23.5137 10.0144 23.5196 10.0086 23.5254C10.0028 23.5312 9.99692 23.5371 9.99109 23.5429C9.98525 23.5487 9.97941 23.5546 9.97358 23.5604C9.96774 23.5663 9.96191 23.5721 9.95607 23.5779C9.95023 23.5838 9.9444 23.5896 9.93856 23.5954C9.93273 23.6013 9.92689 23.6071 9.92105 23.6129C9.91522 23.6188 9.90938 23.6246 9.90355 23.6305C9.89771 23.6363 9.89187 23.6421 9.88604 23.648C9.8802 23.6538 9.87436 23.6596 9.86853 23.6655C9.86269 23.6713 9.85686 23.6771 9.85102 23.683C9.84518 23.6888 9.83935 23.6947 9.83351 23.7005C9.82768 23.7063 9.82184 23.7122 9.816 23.718C9.81017 23.7238 9.80433 23.7297 9.7985 23.7355C9.79266 23.7413 9.78682 23.7472 9.78099 23.753C9.77515 23.7589 9.76931 23.7647 9.76348 23.7705C9.75764 23.7764 9.75181 23.7822 9.74597 23.788C9.74013 23.7939 9.7343 23.7997 9.72846 23.8055C9.72263 23.8114 9.71679 23.8172 9.71095 23.823C9.70512 23.8289 9.69928 23.8347 9.69345 23.8406C9.68761 23.8464 9.68177 23.8522 9.67594 23.8581C9.6701 23.8639 9.66426 23.8697 9.65843 23.8756C9.65259 23.8814 9.64676 23.8872 9.64092 23.8931C9.63508 23.8989 9.62925 23.9048 9.62341 23.9106C9.61758 23.9164 9.61174 23.9223 9.6059 23.9281C9.60007 23.9339 9.59423 23.9398 9.5884 23.9456C9.58256 23.9514 9.57672 23.9573 9.57089 23.9631C9.56505 23.969 9.55921 23.9748 9.55338 23.9806C9.54754 23.9865 9.54171 23.9923 9.53587 23.9981C9.53003 24.004 9.5242 24.0098 9.51836 24.0156C9.51252 24.0215 9.50669 24.0273 9.50085 24.0331C9.49502 24.039 9.48918 24.0448 9.48335 24.0507C9.47751 24.0565 9.47167 24.0623 9.46584 24.0682C9.46 24.074 9.45416 24.0798 9.44833 24.0857C9.44249 24.0915 9.43666 24.0973 9.43082 24.1032C9.42498 24.109 9.41915 24.1149 9.41331 24.1207C9.40747 24.1265 9.40164 24.1324 9.3958 24.1382C9.38997 24.144 9.38413 24.1499 9.37829 24.1557C9.37246 24.1615 9.36662 24.1674 9.36079 24.1732C9.35495 24.179 9.34911 24.1849 9.34328 24.1907C9.33744 24.1966 9.3316 24.2024 9.32577 24.2082C9.31993 24.2141 9.3141 24.2199 9.30826 24.2257C9.30242 24.2316 9.29659 24.2374 9.29075 24.2432C9.28492 24.2491 9.27908 24.2549 9.27324 24.2608C9.26741 24.2666 9.26157 24.2724 9.25574 24.2783C9.2499 24.2841 9.24406 24.2899 9.23823 24.2958C9.23239 24.3016 9.22655 24.3074 9.22072 24.3133C9.21488 24.3191 9.20905 24.325 9.20321 24.3308C9.19738 24.3366 9.19154 24.3425 9.1857 24.3483C9.17987 24.3541 9.17403 24.36 9.16819 24.3658C9.16236 24.3716 9.15652 24.3775 9.15069 24.3833C9.14485 24.3892 9.13901 24.395 9.13318 24.4008C9.12734 24.4067 9.1215 24.4125 9.11567 24.4183C9.10983 24.4242 9.104 24.43 9.09816 24.4358C9.09232 24.4417 9.08649 24.4475 9.08065 24.4533C9.07482 24.4592 9.06898 24.465 9.06314 24.4709C9.05731 24.4767 9.05147 24.4825 9.04564 24.4884C9.0398 24.4942 9.03396 24.5 9.02813 24.5059C9.02229 24.5117 9.01645 24.5175 9.01062 24.5234C9.00478 24.5292 8.99895 24.5351 8.99311 24.5409C8.98727 24.5467 8.98144 24.5526 8.9756 24.5584C8.96977 24.5642 8.96393 24.5701 8.95809 24.5759C8.95226 24.5817 8.94642 24.5876 8.94059 24.5934C8.93475 24.5993 8.92891 24.6051 8.92308 24.6109C8.91724 24.6168 8.9114 24.6226 8.90557 24.6284C8.89973 24.6343 8.8939 24.6401 8.88806 24.6459C8.88222 24.6518 8.87639 24.6576 8.87055 24.6634C8.86472 24.6693 8.85888 24.6751 8.85304 24.681C8.84721 24.6868 8.84137 24.6926 8.83554 24.6985C8.8297 24.7043 8.82386 24.7101 8.81803 24.716C8.81219 24.7218 8.80635 24.7276 8.80052 24.7335C8.79468 24.7393 8.78885 24.7452 8.78301 24.751C8.77717 24.7568 8.77134 24.7627 8.7655 24.7685C8.75967 24.7743 8.75383 24.7802 8.74799 24.786C8.74216 24.7918 8.73632 24.7977 8.73048 24.8035C8.72465 24.8094 8.71881 24.8152 8.71298 24.821C8.70714 24.8269 8.7013 24.8327 8.69547 24.8385C8.68963 24.8444 8.6838 24.8502 8.67796 24.856C8.67212 24.8619 8.66629 24.8677 8.66045 24.8735C8.65462 24.8794 8.64878 24.8852 8.64294 24.8911C8.63711 24.8969 8.63127 24.9027 8.62543 24.9086C8.6196 24.9144 8.61376 24.9202 8.60793 24.9261C8.60209 24.9319 8.59625 24.9377 8.59042 24.9436C8.58458 24.9494 8.57874 24.9553 8.57291 24.9611C8.56707 24.9669 8.56124 24.9728 8.5554 24.9786C8.54956 24.9844 8.54373 24.9903 8.53789 24.9961C8.53206 25.0019 8.52622 25.0078 8.52038 25.0136C8.51455 25.0195 8.50871 25.0253 8.50288 25.0311C8.49704 25.037 8.4912 25.0428 8.48537 25.0486C8.47953 25.0545 8.4737 25.0603 8.46786 25.0661C8.46202 25.072 8.45619 25.0778 8.45035 25.0836C8.44451 25.0895 8.43868 25.0953 8.43284 25.1012C8.42701 25.107 8.42117 25.1128 8.41533 25.1187C8.4095 25.1245 8.40366 25.1303 8.39783 25.1362C8.39199 25.142 8.38615 25.1478 8.38032 25.1537C8.37448 25.1595 8.36865 25.1654 8.36281 25.1712C8.35697 25.177 8.35114 25.1829 8.3453 25.1887C8.33946 25.1945 8.33363 25.2004 8.32779 25.2062C8.32196 25.212 8.31612 25.2179 8.31028 25.2237C8.30445 25.2296 8.29861 25.2354 8.29278 25.2412C8.28694 25.2471 8.2811 25.2529 8.27527 25.2587C8.26943 25.2646 8.26359 25.2704 8.25776 25.2762C8.25192 25.2821 8.24609 25.2879 8.24025 25.2937C8.23441 25.2996 8.22858 25.3054 8.22274 25.3113C8.21691 25.3171 8.21107 25.3229 8.20523 25.3288C8.1994 25.3346 8.19356 25.3404 8.18773 25.3463C8.18189 25.3521 8.17605 25.3579 8.17022 25.3638C8.16438 25.3696 8.15855 25.3755 8.15271 25.3813C8.14687 25.3871 8.14104 25.393 8.1352 25.3988C8.12936 25.4046 8.12353 25.4105 8.11769 25.4163C8.11186 25.4221 8.10602 25.428 8.10018 25.4338C8.09435 25.4397 8.08851 25.4455 8.08268 25.4513C8.07684 25.4572 8.071 25.463 8.06517 25.4688C8.05933 25.4747 8.05349 25.4805 8.04766 25.4863C8.04182 25.4922 8.03599 25.498 8.03015 25.5039C8.02431 25.5097 8.01848 25.5155 8.01264 25.5214C8.00681 25.5272 8.00097 25.533 7.99513 25.5389C7.9893 25.5447 7.98346 25.5505 7.97762 25.5564C7.97179 25.5622 7.96595 25.568 7.96012 25.5739C7.95428 25.5797 7.94844 25.5856 7.94261 25.5914C7.93677 25.5972 7.93094 25.6031 7.9251 25.6089C7.91926 25.6147 7.91343 25.6206 7.90759 25.6264C7.28604 26.2684 6.72578 27.0008 6.23262 27.8179C5.0012 29.878 4.75025 32.1278 4.56641 33.7678L4.55766 33.8466C4.52556 34.2084 4.49346 34.5528 4.4672 34.8883C4.46136 34.8942 4.45552 34.9 4.44969 34.9058C4.44385 34.9117 4.43802 34.9175 4.43218 34.9233C4.42634 34.9292 4.42051 34.935 4.41467 34.9409C4.40884 34.9467 4.403 34.9525 4.39716 34.9584C4.39133 34.9642 4.38549 34.97 4.37966 34.9759C4.37382 34.9817 4.36798 34.9875 4.36215 34.9934C4.35631 34.9992 4.35047 35.0051 4.34464 35.0109C4.3388 35.0167 4.33297 35.0226 4.32713 35.0284C4.32129 35.0342 4.31546 35.0401 4.30962 35.0459C4.30379 35.0517 4.29795 35.0576 4.29211 35.0634C4.28628 35.0693 4.28044 35.0751 4.27461 35.0809C4.26877 35.0868 4.26293 35.0926 4.2571 35.0984C4.25126 35.1043 4.24542 35.1101 4.23959 35.1159C4.23375 35.1218 4.22792 35.1276 4.22208 35.1334C4.21624 35.1393 4.21041 35.1451 4.20457 35.151C4.19874 35.1568 4.1929 35.1626 4.18706 35.1685C4.18123 35.1743 4.17539 35.1801 4.16955 35.186C4.16372 35.1918 4.15788 35.1976 4.15205 35.2035C4.14621 35.2093 4.14037 35.2152 4.13454 35.221C4.1287 35.2268 4.12287 35.2327 4.11703 35.2385C4.11119 35.2443 4.10536 35.2502 4.09952 35.256C4.09369 35.2618 4.08785 35.2677 4.08201 35.2735C4.07618 35.2794 4.07034 35.2852 4.0645 35.291C4.05867 35.2969 4.05283 35.3027 4.047 35.3085C4.04116 35.3144 4.03532 35.3202 4.02949 35.326C4.02365 35.3319 4.01782 35.3377 4.01198 35.3435C4.00614 35.3494 4.00031 35.3552 3.99447 35.3611C3.98864 35.3669 3.9828 35.3727 3.97696 35.3786C3.97113 35.3844 3.96529 35.3902 3.95945 35.3961C3.95362 35.4019 3.94778 35.4077 3.94195 35.4136C3.93611 35.4194 3.93027 35.4253 3.92444 35.4311C3.9186 35.4369 3.91277 35.4428 3.90693 35.4486C3.90109 35.4544 3.89526 35.4603 3.88942 35.4661C3.88358 35.4719 3.87775 35.4778 3.87191 35.4836C3.86608 35.4895 3.86024 35.4953 3.8544 35.5011C3.84857 35.507 3.84273 35.5128 3.8369 35.5186C3.83106 35.5245 3.82522 35.5303 3.81939 35.5361C3.81355 35.542 3.80772 35.5478 3.80188 35.5536C3.79604 35.5595 3.79021 35.5653 3.78437 35.5712C3.77853 35.577 3.7727 35.5828 3.76686 35.5887C3.76103 35.5945 3.75519 35.6003 3.74935 35.6062C3.74352 35.612 3.73768 35.6178 3.73185 35.6237C3.72601 35.6295 3.72017 35.6354 3.71434 35.6412C3.7085 35.647 3.70267 35.6529 3.69683 35.6587C3.69099 35.6645 3.68516 35.6704 3.67932 35.6762C3.67348 35.682 3.66765 35.6879 3.66181 35.6937C3.65598 35.6996 3.65014 35.7054 3.6443 35.7112C3.63847 35.7171 3.63263 35.7229 3.6268 35.7287C3.62096 35.7346 3.61512 35.7404 3.60929 35.7462C3.60345 35.7521 3.59762 35.7579 3.59178 35.7637C3.58594 35.7696 3.58011 35.7754 3.57427 35.7813C3.56843 35.7871 3.5626 35.7929 3.55676 35.7988C3.55093 35.8046 3.54509 35.8104 3.53925 35.8163C3.53342 35.8221 3.52758 35.8279 3.52175 35.8338C3.51591 35.8396 3.51007 35.8455 3.50424 35.8513C3.4984 35.8571 3.49256 35.863 3.48673 35.8688C3.48089 35.8746 3.47506 35.8805 3.46922 35.8863C3.46338 35.8921 3.45755 35.898 3.45171 35.9038C3.44588 35.9097 3.44004 35.9155 3.4342 35.9213C3.42837 35.9272 3.42253 35.933 3.4167 35.9388C3.41086 35.9447 3.40502 35.9505 3.39919 35.9563C3.39335 35.9622 3.38751 35.968 3.38168 35.9739C3.37584 35.9797 3.37001 35.9855 3.36417 35.9914C3.35833 35.9972 3.3525 36.003 3.34666 36.0089C3.34083 36.0147 3.33499 36.0205 3.32915 36.0264C3.32332 36.0322 3.31748 36.038 3.31165 36.0439C3.30581 36.0497 3.29997 36.0556 3.29414 36.0614C3.2883 36.0672 3.28246 36.0731 3.27663 36.0789C3.27079 36.0847 3.26496 36.0906 3.25912 36.0964C2.64049 36.7092 2.16193 37.322 1.86137 37.8239L1.81176 37.9027C-0.832002 42.2448 1.38281 45.4371 2.46833 46.6219C3.34374 47.5673 4.54599 48.2501 5.99043 48.6441C6.33184 49.7383 6.76371 50.8851 7.32398 52.0028C8.24609 53.8441 9.41331 55.1251 10.7936 55.8137L10.8636 55.8488C13.4432 57.0773 15.8126 56.7388 17.6189 55.913C17.6189 55.913 17.6189 55.9159 17.616 55.9188C17.6101 55.9246 17.6043 55.9305 17.5985 55.9363C17.5926 55.9421 17.5868 55.948 17.581 55.9538C17.5751 55.9596 17.5693 55.9655 17.5635 55.9713C17.5576 55.9771 17.5518 55.983 17.5459 55.9888C17.5401 55.9947 17.5343 56.0005 17.5284 56.0063C17.5226 56.0122 17.5168 56.018 17.5109 56.0238C17.5051 56.0297 17.4993 56.0355 17.4934 56.0413C17.4876 56.0472 17.4818 56.053 17.4759 56.0589C17.4701 56.0647 17.4642 56.0705 17.4584 56.0764C17.4526 56.0822 17.4467 56.088 17.4409 56.0939C17.4351 56.0997 17.4292 56.1055 17.4234 56.1114C17.4176 56.1172 17.4117 56.1231 17.4059 56.1289C17.4 56.1347 17.3942 56.1406 17.3884 56.1464C17.3825 56.1522 17.3767 56.1581 17.3709 56.1639C17.365 56.1697 17.3592 56.1756 17.3534 56.1814C17.3475 56.1872 17.3417 56.1931 17.3358 56.1989C17.33 56.2048 17.3242 56.2106 17.3183 56.2164C16.5567 57.0247 16.0344 58.0256 15.8126 59.1608C15.2728 61.9125 16.6384 64.9006 19.5536 67.3576C22.2528 69.6308 26.6445 71.6442 31.7861 71.6442C34.0709 71.6442 36.5017 71.2474 38.9995 70.299C44.2258 68.3877 59.4697 64.3812 79.9575 62.8375C93.4914 61.7549 120.233 60.9437 147.251 67.6552C151.943 68.8108 156.589 67.6961 159.171 65.1282C159.177 65.1224 159.183 65.1165 159.189 65.1107C159.194 65.1048 159.2 65.099 159.206 65.0932C159.212 65.0873 159.218 65.0815 159.224 65.0757C159.23 65.0698 159.235 65.064 159.241 65.0582C159.247 65.0523 159.253 65.0465 159.259 65.0406C159.265 65.0348 159.27 65.029 159.276 65.0231C159.282 65.0173 159.288 65.0115 159.294 65.0056C159.3 64.9998 159.305 64.994 159.311 64.9881C159.317 64.9823 159.323 64.9764 159.329 64.9706C159.335 64.9648 159.34 64.9589 159.346 64.9531C159.352 64.9473 159.358 64.9414 159.364 64.9356C159.37 64.9298 159.375 64.9239 159.381 64.9181C159.387 64.9123 159.393 64.9064 159.399 64.9006C159.405 64.8947 159.41 64.8889 159.416 64.8831C159.422 64.8772 159.428 64.8714 159.434 64.8656C159.44 64.8597 159.445 64.8539 159.451 64.8481C159.457 64.8422 159.463 64.8364 159.469 64.8305C159.475 64.8247 159.48 64.8189 159.486 64.813C159.492 64.8072 159.498 64.8014 159.504 64.7955C159.51 64.7897 159.515 64.7839 159.521 64.778C159.527 64.7722 159.533 64.7663 159.539 64.7605C159.545 64.7547 159.55 64.7488 159.556 64.743C159.562 64.7372 159.568 64.7313 159.574 64.7255C159.58 64.7197 159.585 64.7138 159.591 64.708C159.597 64.7021 159.603 64.6963 159.609 64.6905C159.615 64.6846 159.621 64.6788 159.626 64.673C159.632 64.6671 159.638 64.6613 159.644 64.6555C159.65 64.6496 159.656 64.6438 159.661 64.638C159.667 64.6321 159.673 64.6263 159.679 64.6204C159.685 64.6146 159.691 64.6088 159.696 64.6029C159.702 64.5971 159.708 64.5913 159.714 64.5854C159.72 64.5796 159.726 64.5738 159.731 64.5679C159.737 64.5621 159.743 64.5562 159.749 64.5504C159.755 64.5446 159.761 64.5387 159.766 64.5329C159.772 64.5271 159.778 64.5212 159.784 64.5154C159.79 64.5096 159.796 64.5037 159.801 64.4979C159.807 64.4921 159.813 64.4862 159.819 64.4804C159.825 64.4745 159.831 64.4687 159.836 64.4629C159.842 64.457 159.848 64.4512 159.854 64.4454C159.86 64.4395 159.866 64.4337 159.871 64.4278C159.877 64.422 159.883 64.4162 159.889 64.4103C159.895 64.4045 159.901 64.3987 159.906 64.3928C159.912 64.387 159.918 64.3812 159.924 64.3753C159.93 64.3695 159.936 64.3637 159.941 64.3578C159.947 64.352 159.953 64.3461 159.959 64.3403C159.965 64.3345 159.971 64.3286 159.977 64.3228C159.982 64.317 159.988 64.3111 159.994 64.3053C160 64.2995 160.006 64.2936 160.012 64.2878C160.017 64.2819 160.023 64.2761 160.029 64.2703C160.035 64.2644 160.041 64.2586 160.047 64.2528C160.052 64.2469 160.058 64.2411 160.064 64.2353C160.07 64.2294 160.076 64.2236 160.082 64.2178C160.087 64.2119 160.093 64.2061 160.099 64.2002C160.105 64.1944 160.111 64.1886 160.117 64.1827C160.122 64.1769 160.128 64.1711 160.134 64.1652C160.14 64.1594 160.146 64.1536 160.152 64.1477C160.157 64.1419 160.163 64.136 160.169 64.1302C160.175 64.1244 160.181 64.1185 160.187 64.1127C160.192 64.1069 160.198 64.101 160.204 64.0952C160.21 64.0894 160.216 64.0835 160.222 64.0777C160.227 64.0718 160.233 64.066 160.239 64.0602C160.245 64.0543 160.251 64.0485 160.257 64.0427C160.262 64.0368 160.268 64.031 160.274 64.0252C160.28 64.0193 160.286 64.0135 160.292 64.0077C160.298 64.0018 160.303 63.996 160.309 63.9901C160.315 63.9843 160.321 63.9785 160.327 63.9726C160.333 63.9668 160.338 63.961 160.344 63.9551C160.35 63.9493 160.356 63.9435 160.362 63.9376C160.368 63.9318 160.373 63.9259 160.379 63.9201C160.385 63.9143 160.391 63.9084 160.397 63.9026C160.403 63.8968 160.408 63.8909 160.414 63.8851C160.42 63.8793 160.426 63.8734 160.432 63.8676C160.438 63.8617 160.443 63.8559 160.449 63.8501C160.455 63.8442 160.461 63.8384 160.467 63.8326C160.473 63.8267 160.478 63.8209 160.484 63.8151C160.49 63.8092 160.496 63.8034 160.502 63.7976C160.508 63.7917 160.513 63.7859 160.519 63.78C160.525 63.7742 160.531 63.7684 160.537 63.7625C160.543 63.7567 160.548 63.7509 160.554 63.745C160.56 63.7392 160.566 63.7334 160.572 63.7275C160.578 63.7217 160.583 63.7158 160.589 63.71C160.595 63.7042 160.601 63.6983 160.607 63.6925C160.613 63.6867 160.618 63.6808 160.624 63.675C160.63 63.6692 160.636 63.6633 160.642 63.6575C160.648 63.6516 160.654 63.6458 160.659 63.64C160.665 63.6341 160.671 63.6283 160.677 63.6225C160.683 63.6166 160.689 63.6108 160.694 63.605C160.7 63.5991 160.706 63.5933 160.712 63.5875C160.718 63.5816 160.724 63.5758 160.729 63.5699C160.735 63.5641 160.741 63.5583 160.747 63.5524C160.753 63.5466 160.759 63.5408 160.764 63.5349C160.77 63.5291 160.776 63.5233 160.782 63.5174C160.788 63.5116 160.794 63.5057 160.799 63.4999C160.805 63.4941 160.811 63.4882 160.817 63.4824C160.823 63.4766 160.829 63.4707 160.834 63.4649C160.84 63.4591 160.846 63.4532 160.852 63.4474C160.858 63.4415 160.864 63.4357 160.869 63.4299C160.875 63.424 160.881 63.4182 160.887 63.4124C160.893 63.4065 160.899 63.4007 160.904 63.3949C160.91 63.389 160.916 63.3832 160.922 63.3773C160.928 63.3715 160.934 63.3657 160.939 63.3598C160.945 63.354 160.951 63.3482 160.957 63.3423C160.963 63.3365 160.969 63.3307 160.975 63.3248C160.98 63.319 160.986 63.3132 160.992 63.3073C160.998 63.3015 161.004 63.2956 161.01 63.2898C161.015 63.284 161.021 63.2781 161.027 63.2723C161.033 63.2665 161.039 63.2606 161.045 63.2548C161.05 63.249 161.056 63.2431 161.062 63.2373C161.068 63.2314 161.074 63.2256 161.08 63.2198C161.085 63.2139 161.091 63.2081 161.097 63.2023C161.103 63.1964 161.109 63.1906 161.115 63.1848C161.12 63.1789 161.126 63.1731 161.132 63.1673C161.138 63.1614 161.144 63.1556 161.15 63.1497C161.155 63.1439 161.161 63.1381 161.167 63.1322C161.173 63.1264 161.179 63.1206 161.185 63.1147C161.19 63.1089 161.196 63.1031 161.202 63.0972C161.208 63.0914 161.214 63.0855 161.22 63.0797C161.225 63.0739 161.231 63.068 161.237 63.0622C161.243 63.0564 161.249 63.0505 161.255 63.0447C161.26 63.0389 161.266 63.033 161.272 63.0272C161.278 63.0213 161.284 63.0155 161.29 63.0097C161.295 63.0038 161.301 62.998 161.307 62.9922C161.313 62.9863 161.319 62.9805 161.325 62.9747C161.33 62.9688 161.336 62.963 161.342 62.9571C161.348 62.9513 161.354 62.9455 161.36 62.9396C161.366 62.9338 161.371 62.928 161.377 62.9221C161.383 62.9163 161.389 62.9105 161.395 62.9046C161.401 62.8988 161.406 62.893 161.412 62.8871C161.418 62.8813 161.424 62.8754 161.43 62.8696C161.436 62.8638 161.441 62.8579 161.447 62.8521C161.453 62.8463 161.459 62.8404 161.465 62.8346C161.471 62.8288 161.476 62.8229 161.482 62.8171C161.488 62.8112 161.494 62.8054 161.5 62.7996C161.506 62.7937 161.511 62.7879 161.517 62.7821C161.523 62.7762 161.529 62.7704 161.535 62.7646C161.541 62.7587 161.546 62.7529 161.552 62.747C161.558 62.7412 161.564 62.7354 161.57 62.7295C161.576 62.7237 161.581 62.7179 161.587 62.712C161.593 62.7062 161.599 62.7004 161.605 62.6945C161.611 62.6887 161.616 62.6828 161.622 62.677C161.628 62.6712 161.634 62.6653 161.64 62.6595C161.646 62.6537 161.651 62.6478 161.657 62.642C161.663 62.6362 161.669 62.6303 161.675 62.6245C161.681 62.6187 161.687 62.6128 161.692 62.607C161.698 62.6011 161.704 62.5953 161.71 62.5895C161.716 62.5836 161.722 62.5778 161.727 62.572C161.733 62.5661 161.739 62.5603 161.745 62.5545C161.751 62.5486 161.757 62.5428 161.762 62.5369C161.768 62.5311 161.774 62.5253 161.78 62.5194C161.786 62.5136 161.792 62.5078 161.797 62.5019C161.803 62.4961 161.809 62.4903 161.815 62.4844C161.821 62.4786 161.827 62.4728 161.832 62.4669C161.838 62.4611 161.844 62.4552 161.85 62.4494C161.856 62.4436 161.862 62.4377 161.867 62.4319C161.873 62.4261 161.879 62.4202 161.885 62.4144C161.891 62.4086 161.897 62.4027 161.902 62.3969C161.908 62.391 161.914 62.3852 161.92 62.3794C161.926 62.3735 161.932 62.3677 161.937 62.3619C161.943 62.356 161.949 62.3502 161.955 62.3444C161.961 62.3385 161.967 62.3327 161.972 62.3268C161.978 62.321 161.984 62.3152 161.99 62.3093C161.996 62.3035 162.002 62.2977 162.007 62.2918C162.013 62.286 162.019 62.2802 162.025 62.2743C162.031 62.2685 162.037 62.2627 162.043 62.2568C162.048 62.251 162.054 62.2451 162.06 62.2393C162.066 62.2335 162.072 62.2276 162.078 62.2218C162.083 62.216 162.089 62.2101 162.095 62.2043C162.101 62.1985 162.107 62.1926 162.113 62.1868C162.118 62.1809 162.124 62.1751 162.13 62.1693C162.136 62.1634 162.142 62.1576 162.148 62.1518C162.153 62.1459 162.159 62.1401 162.165 62.1343C162.171 62.1284 162.177 62.1226 162.183 62.1167C162.188 62.1109 162.194 62.1051 162.2 62.0992C162.206 62.0934 162.212 62.0876 162.218 62.0817C162.223 62.0759 162.229 62.0701 162.235 62.0642C162.241 62.0584 162.247 62.0526 162.253 62.0467C162.258 62.0409 162.264 62.035 162.27 62.0292C162.276 62.0234 162.282 62.0175 162.288 62.0117C162.293 62.0059 162.299 62 162.305 61.9942C162.311 61.9884 162.317 61.9825 162.323 61.9767C162.328 61.9708 162.334 61.965 162.34 61.9592C162.346 61.9533 162.352 61.9475 162.358 61.9417C162.364 61.9358 162.369 61.93 162.375 61.9242C162.381 61.9183 162.387 61.9125 162.393 61.9066C162.399 61.9008 162.404 61.895 162.41 61.8891C162.416 61.8833 162.422 61.8775 162.428 61.8716C162.434 61.8658 162.439 61.86 162.445 61.8541C162.451 61.8483 162.457 61.8425 162.463 61.8366C162.469 61.8308 162.474 61.8249 162.48 61.8191C162.486 61.8133 162.492 61.8074 162.498 61.8016C162.504 61.7958 162.509 61.7899 162.515 61.7841C162.521 61.7783 162.527 61.7724 162.533 61.7666C162.539 61.7607 162.544 61.7549 162.55 61.7491C162.556 61.7432 162.562 61.7374 162.568 61.7316C162.574 61.7257 162.579 61.7199 162.585 61.7141C162.591 61.7082 162.597 61.7024 162.603 61.6965C162.609 61.6907 162.614 61.6849 162.62 61.679C162.626 61.6732 162.632 61.6674 162.638 61.6615C162.644 61.6557 162.649 61.6499 162.655 61.644C162.661 61.6382 162.667 61.6324 162.673 61.6265C162.679 61.6207 162.684 61.6148 162.69 61.609C162.696 61.6032 162.702 61.5973 162.708 61.5915C162.714 61.5857 162.72 61.5798 162.725 61.574C162.731 61.5681 162.737 61.5623 162.743 61.5565C162.749 61.5506 162.755 61.5448 162.76 61.539C162.766 61.5331 162.772 61.5273 162.778 61.5215C162.784 61.5156 162.79 61.5098 162.795 61.504C162.801 61.4981 162.807 61.4923 162.813 61.4865C162.819 61.4806 162.825 61.4748 162.83 61.4689C162.836 61.4631 162.842 61.4573 162.848 61.4514C162.854 61.4456 162.86 61.4398 162.865 61.4339C162.871 61.4281 162.877 61.4222 162.883 61.4164C162.889 61.4106 162.895 61.4047 162.9 61.3989C162.906 61.3931 162.912 61.3872 162.918 61.3814C162.924 61.3756 162.93 61.3697 162.935 61.3639C162.941 61.3581 162.947 61.3522 162.953 61.3464C162.959 61.3405 162.965 61.3347 162.97 61.3289C162.976 61.323 162.982 61.3172 162.988 61.3114C162.994 61.3055 163 61.2997 163.005 61.2939C163.011 61.288 163.017 61.2822 163.023 61.2763C163.029 61.2705 163.035 61.2647 163.04 61.2588C163.046 61.253 163.052 61.2472 163.058 61.2413C163.064 61.2355 163.07 61.2297 163.076 61.2238C163.081 61.218 163.087 61.2122 163.093 61.2063C163.099 61.2005 163.105 61.1946 163.111 61.1888C163.116 61.183 163.122 61.1771 163.128 61.1713C163.134 61.1655 163.14 61.1596 163.146 61.1538C163.151 61.148 163.157 61.1421 163.163 61.1363C163.169 61.1304 163.175 61.1246 163.181 61.1188C163.186 61.1129 163.192 61.1071 163.198 61.1013C163.204 61.0954 163.21 61.0896 163.216 61.0838C163.221 61.0779 163.227 61.0721 163.233 61.0662C163.239 61.0604 163.245 61.0546 163.251 61.0487C163.256 61.0429 163.262 61.0371 163.268 61.0312C163.274 61.0254 163.28 61.0196 163.286 61.0137C163.291 61.0079 163.297 61.002 163.303 60.9962C163.309 60.9904 163.315 60.9845 163.321 60.9787C163.326 60.9729 163.332 60.967 163.338 60.9612C163.344 60.9554 163.35 60.9495 163.356 60.9437C163.361 60.9379 163.367 60.932 163.373 60.9262C163.379 60.9203 163.385 60.9145 163.391 60.9087C163.396 60.9028 163.402 60.897 163.408 60.8912C163.414 60.8853 163.42 60.8795 163.426 60.8737C163.432 60.8678 163.437 60.862 163.443 60.8561C163.449 60.8503 163.455 60.8445 163.461 60.8386C163.467 60.8328 163.472 60.827 163.478 60.8211C163.484 60.8153 163.49 60.8095 163.496 60.8036C163.502 60.7978 163.507 60.7919 163.513 60.7861C163.519 60.7803 163.525 60.7744 163.531 60.7686C163.537 60.7628 163.542 60.7569 163.548 60.7511C163.554 60.7453 163.56 60.7394 163.566 60.7336C163.572 60.7278 163.577 60.7219 163.583 60.7161C163.589 60.7102 163.595 60.7044 163.601 60.6986C163.607 60.6927 163.612 60.6869 163.618 60.6811C163.624 60.6752 163.63 60.6694 163.636 60.6636C163.642 60.6577 163.647 60.6519 163.653 60.646C163.659 60.6402 163.665 60.6344 163.671 60.6285C163.677 60.6227 163.682 60.6169 163.688 60.611C163.694 60.6052 163.7 60.5994 163.706 60.5935C163.712 60.5877 163.717 60.5818 163.723 60.576C163.729 60.5702 163.735 60.5643 163.741 60.5585C163.747 60.5527 163.753 60.5468 163.758 60.541C163.764 60.5352 163.77 60.5293 163.776 60.5235C163.782 60.5177 163.788 60.5118 163.793 60.506C163.799 60.5001 163.805 60.4943 163.811 60.4885C163.817 60.4826 163.823 60.4768 163.828 60.471C163.834 60.4651 163.84 60.4593 163.846 60.4535C163.852 60.4476 163.858 60.4418 163.863 60.4359C163.869 60.4301 163.875 60.4243 163.881 60.4184C163.887 60.4126 163.893 60.4068 163.898 60.4009C163.904 60.3951 163.91 60.3893 163.916 60.3834C163.922 60.3776 163.928 60.3717 163.933 60.3659C163.939 60.3601 163.945 60.3542 163.951 60.3484C163.957 60.3426 163.963 60.3367 163.968 60.3309C163.974 60.3251 163.98 60.3192 163.986 60.3134C163.992 60.3076 163.998 60.3017 164.003 60.2959C164.009 60.29 164.015 60.2842 164.021 60.2784C164.027 60.2725 164.033 60.2667 164.038 60.2609C164.044 60.255 164.05 60.2492 164.056 60.2434C164.062 60.2375 164.068 60.2317 164.073 60.2258C164.079 60.22 164.085 60.2142 164.091 60.2083C164.097 60.2025 164.103 60.1967 164.109 60.1908C164.114 60.185 164.12 60.1792 164.126 60.1733C164.132 60.1675 164.138 60.1616 164.144 60.1558C164.149 60.15 164.155 60.1441 164.161 60.1383C164.167 60.1325 164.173 60.1266 164.179 60.1208C164.184 60.115 164.19 60.1091 164.196 60.1033C164.202 60.0975 164.208 60.0916 164.214 60.0858C164.219 60.0799 164.225 60.0741 164.231 60.0683C164.237 60.0624 164.243 60.0566 164.249 60.0508C164.254 60.0449 164.26 60.0391 164.266 60.0333C164.272 60.0274 164.278 60.0216 164.284 60.0157C164.289 60.0099 164.295 60.0041 164.301 59.9982C164.307 59.9924 164.313 59.9866 164.319 59.9807C164.324 59.9749 164.33 59.9691 164.336 59.9632C164.342 59.9574 164.348 59.9515 164.354 59.9457C164.359 59.9399 164.365 59.934 164.371 59.9282C164.377 59.9224 164.383 59.9165 164.389 59.9107C164.394 59.9049 164.4 59.899 164.406 59.8932C164.412 59.8874 164.418 59.8815 164.424 59.8757C164.429 59.8698 164.435 59.864 164.441 59.8582C164.447 59.8523 164.453 59.8465 164.459 59.8407C164.465 59.8348 164.47 59.829 164.476 59.8232C164.482 59.8173 164.488 59.8115 164.494 59.8056C164.5 59.7998 164.505 59.794 164.511 59.7881C164.517 59.7823 164.523 59.7765 164.529 59.7706C164.535 59.7648 164.54 59.759 164.546 59.7531C164.552 59.7473 164.558 59.7414 164.564 59.7356C164.57 59.7298 164.575 59.7239 164.581 59.7181C164.587 59.7123 164.593 59.7064 164.599 59.7006C164.605 59.6948 164.61 59.6889 164.616 59.6831C164.622 59.6772 164.628 59.6714 164.634 59.6656C164.64 59.6597 164.645 59.6539 164.651 59.6481C164.657 59.6422 164.663 59.6364 164.669 59.6306C164.675 59.6247 164.68 59.6189 164.686 59.6131C164.692 59.6072 164.698 59.6014 164.704 59.5955C164.71 59.5897 164.715 59.5839 164.721 59.578C164.727 59.5722 164.733 59.5664 164.739 59.5605C164.745 59.5547 164.75 59.5489 164.756 59.543C164.762 59.5372 164.768 59.5313 164.774 59.5255C164.78 59.5197 164.785 59.5138 164.791 59.508C164.797 59.5022 164.803 59.4963 164.809 59.4905C164.815 59.4847 164.82 59.4788 164.826 59.473C164.832 59.4671 164.838 59.4613 164.844 59.4555C164.85 59.4496 164.856 59.4438 164.861 59.438C164.867 59.4321 164.873 59.4263 164.879 59.4205C164.885 59.4146 164.891 59.4088 164.896 59.403C164.902 59.3971 164.908 59.3913 164.914 59.3854C164.92 59.3796 164.926 59.3738 164.931 59.3679C164.937 59.3621 164.943 59.3563 164.949 59.3504C164.955 59.3446 164.961 59.3388 164.966 59.3329C164.972 59.3271 164.978 59.3212 164.984 59.3154C164.99 59.3096 164.996 59.3037 165.001 59.2979C165.007 59.2921 165.013 59.2862 165.019 59.2804C165.025 59.2746 165.031 59.2687 165.036 59.2629C165.042 59.257 165.048 59.2512 165.054 59.2454C165.06 59.2395 165.066 59.2337 165.071 59.2279C165.077 59.222 165.083 59.2162 165.089 59.2104C165.095 59.2045 165.101 59.1987 165.106 59.1929C165.112 59.187 165.118 59.1812 165.124 59.1753C165.13 59.1695 165.136 59.1637 165.141 59.1578C165.147 59.152 165.153 59.1462 165.159 59.1403C165.165 59.1345 165.171 59.1287 165.176 59.1228C165.182 59.117 165.188 59.1111 165.194 59.1053C165.2 59.0995 165.206 59.0936 165.212 59.0878C165.217 59.082 165.223 59.0761 165.229 59.0703C165.235 59.0645 165.241 59.0586 165.247 59.0528C165.252 59.0469 165.258 59.0411 165.264 59.0353C165.27 59.0294 165.276 59.0236 165.282 59.0178C165.287 59.0119 165.293 59.0061 165.299 59.0003C165.305 58.9944 165.311 58.9886 165.317 58.9828C165.322 58.9769 165.328 58.9711 165.334 58.9652C165.34 58.9594 165.346 58.9536 165.352 58.9477C165.357 58.9419 165.363 58.9361 165.369 58.9302C165.375 58.9244 165.381 58.9186 165.387 58.9127C165.392 58.9069 165.398 58.901 165.404 58.8952C165.41 58.8894 165.416 58.8835 165.422 58.8777C165.427 58.8719 165.433 58.866 165.439 58.8602C165.445 58.8544 165.451 58.8485 165.457 58.8427C165.462 58.8368 165.468 58.831 165.474 58.8252C165.48 58.8193 165.486 58.8135 165.492 58.8077C165.497 58.8018 165.503 58.796 165.509 58.7902C165.515 58.7843 165.521 58.7785 165.527 58.7727C165.533 58.7668 165.538 58.761 165.544 58.7551C165.55 58.7493 165.556 58.7435 165.562 58.7376C165.568 58.7318 165.573 58.726 165.579 58.7201C165.585 58.7143 165.591 58.7085 165.597 58.7026C165.603 58.6968 165.608 58.6909 165.614 58.6851C165.62 58.6793 165.626 58.6734 165.632 58.6676C165.638 58.6618 165.643 58.6559 165.649 58.6501C165.655 58.6443 165.661 58.6384 165.667 58.6326C165.673 58.6267 165.678 58.6209 165.684 58.6151C165.69 58.6092 165.696 58.6034 165.702 58.5976C165.708 58.5917 165.713 58.5859 165.719 58.5801C165.725 58.5742 165.731 58.5684 165.737 58.5626C165.743 58.5567 165.748 58.5509 165.754 58.545C165.76 58.5392 165.766 58.5334 165.772 58.5275C165.778 58.5217 165.783 58.5159 165.789 58.51C165.795 58.5042 165.801 58.4984 165.807 58.4925C165.813 58.4867 165.818 58.4808 165.824 58.475C165.83 58.4692 165.836 58.4633 165.842 58.4575C165.848 58.4517 165.854 58.4458 165.859 58.44C165.865 58.4342 165.871 58.4283 165.877 58.4225C165.883 58.4166 165.889 58.4108 165.894 58.405C166.761 57.55 167.397 56.5316 167.73 55.3819C168.305 53.3976 167.949 50.8472 165.711 48.8629C165.711 48.8629 165.713 48.8571 165.716 48.8571C165.722 48.8512 165.728 48.8454 165.734 48.8396C165.74 48.8337 165.746 48.8279 165.751 48.8221C165.757 48.8162 165.763 48.8104 165.769 48.8046C165.775 48.7987 165.781 48.7929 165.786 48.787C165.792 48.7812 165.798 48.7754 165.804 48.7695C165.81 48.7637 165.816 48.7579 165.821 48.752C165.827 48.7462 165.833 48.7404 165.839 48.7345C165.845 48.7287 165.851 48.7229 165.856 48.717C165.862 48.7112 165.868 48.7053 165.874 48.6995C165.88 48.6937 165.886 48.6878 165.891 48.682C165.897 48.6762 165.903 48.6703 165.909 48.6645C165.915 48.6587 165.921 48.6528 165.926 48.647C165.932 48.6411 165.938 48.6353 165.944 48.6295C165.95 48.6236 165.956 48.6178 165.961 48.612C165.967 48.6061 165.973 48.6003 165.979 48.5945C165.985 48.5886 165.991 48.5828 165.996 48.577C166.002 48.5711 166.008 48.5653 166.014 48.5594C166.02 48.5536 166.026 48.5478 166.031 48.5419C166.037 48.5361 166.043 48.5303 166.049 48.5244C166.055 48.5186 166.061 48.5127 166.067 48.5069C166.072 48.5011 166.078 48.4952 166.084 48.4894C166.09 48.4836 166.096 48.4777 166.102 48.4719C166.107 48.4661 166.113 48.4602 166.119 48.4544C166.125 48.4486 166.131 48.4427 166.137 48.4369C166.142 48.431 166.148 48.4252 166.154 48.4194C166.16 48.4135 166.166 48.4077 166.172 48.4019C166.177 48.396 166.183 48.3902 166.189 48.3844C166.195 48.3785 166.201 48.3727 166.207 48.3668C166.212 48.361 166.218 48.3552 166.224 48.3493C166.23 48.3435 166.236 48.3377 166.242 48.3318C166.247 48.326 166.253 48.3202 166.259 48.3143C166.265 48.3085 166.271 48.3027 166.277 48.2968C166.282 48.291 166.288 48.2851 166.294 48.2793C166.3 48.2735 166.306 48.2676 166.312 48.2618C166.317 48.256 166.323 48.2501 166.329 48.2443C166.335 48.2385 166.341 48.2326 166.347 48.2268C166.352 48.2209 166.358 48.2151 166.364 48.2093C166.37 48.2034 166.376 48.1976 166.382 48.1918C166.387 48.1859 166.393 48.1801 166.399 48.1743C166.405 48.1684 166.411 48.1626 166.417 48.1567C166.423 48.1509 166.428 48.1451 166.434 48.1392C166.44 48.1334 166.446 48.1276 166.452 48.1217C166.458 48.1159 166.463 48.1101 166.469 48.1042C166.475 48.0984 166.481 48.0925 166.487 48.0867C166.493 48.0809 166.498 48.075 166.504 48.0692C166.51 48.0634 166.516 48.0575 166.522 48.0517C166.528 48.0459 166.533 48.04 166.539 48.0342C166.545 48.0284 166.551 48.0225 166.557 48.0167C166.563 48.0108 166.568 48.005 166.574 47.9992C166.58 47.9933 166.586 47.9875 166.592 47.9817C166.598 47.9758 166.603 47.97 166.609 47.9642C166.615 47.9583 166.621 47.9525 166.627 47.9466C166.633 47.9408 166.638 47.935 166.644 47.9291C166.65 47.9233 166.656 47.9175 166.662 47.9116C166.668 47.9058 166.673 47.9 166.679 47.8941C166.685 47.8883 166.691 47.8825 166.697 47.8766C166.703 47.8708 166.708 47.8649 166.714 47.8591C166.72 47.8533 166.726 47.8474 166.732 47.8416C166.738 47.8358 166.744 47.8299 166.749 47.8241C166.755 47.8183 166.761 47.8124 166.767 47.8066C166.773 47.8007 166.779 47.7949 166.784 47.7891C166.79 47.7832 166.796 47.7774 166.802 47.7716C166.808 47.7657 166.814 47.7599 166.819 47.7541C166.825 47.7482 166.831 47.7424 166.837 47.7365C166.843 47.7307 166.849 47.7249 166.854 47.719C166.86 47.7132 166.866 47.7074 166.872 47.7015C166.878 47.6957 166.884 47.6899 166.889 47.684C166.895 47.6782 166.901 47.6724 166.907 47.6665C166.913 47.6607 166.919 47.6548 166.924 47.649C166.93 47.6432 166.936 47.6373 166.942 47.6315C166.948 47.6257 166.954 47.6198 166.959 47.614C166.965 47.6082 166.971 47.6023 166.977 47.5965C166.983 47.5906 166.989 47.5848 166.994 47.579C167 47.5731 167.006 47.5673 167.012 47.5615C167.018 47.5556 167.024 47.5498 167.029 47.544C167.035 47.5381 167.041 47.5323 167.047 47.5264C167.053 47.5206 167.059 47.5148 167.064 47.5089C167.07 47.5031 167.076 47.4973 167.082 47.4914C167.088 47.4856 167.094 47.4798 167.1 47.4739C167.105 47.4681 167.111 47.4622 167.117 47.4564C167.123 47.4506 167.129 47.4447 167.135 47.4389C167.14 47.4331 167.146 47.4272 167.152 47.4214C167.158 47.4156 167.164 47.4097 167.17 47.4039C167.175 47.3981 167.181 47.3922 167.187 47.3864C167.193 47.3805 167.199 47.3747 167.205 47.3689C167.21 47.363 167.216 47.3572 167.222 47.3514C167.228 47.3455 167.234 47.3397 167.24 47.3339C167.245 47.328 167.251 47.3222 167.257 47.3163C167.263 47.3105 167.269 47.3047 167.275 47.2988C167.28 47.293 167.286 47.2872 167.292 47.2813C167.298 47.2755 167.304 47.2697 167.31 47.2638C167.315 47.258 167.321 47.2522 167.327 47.2463C167.333 47.2405 167.339 47.2346 167.345 47.2288C167.35 47.223 167.356 47.2171 167.362 47.2113C167.368 47.2055 167.374 47.1996 167.38 47.1938C167.385 47.188 167.391 47.1821 167.397 47.1763C167.403 47.1704 167.409 47.1646 167.415 47.1588C167.42 47.1529 167.426 47.1471 167.432 47.1413C167.438 47.1354 167.444 47.1296 167.45 47.1238C167.456 47.1179 167.461 47.1121 167.467 47.1062C167.473 47.1004 167.479 47.0946 167.485 47.0887C167.491 47.0829 167.496 47.0771 167.502 47.0712C167.508 47.0654 167.514 47.0596 167.52 47.0537C167.526 47.0479 167.531 47.0421 167.537 47.0362C167.543 47.0304 167.549 47.0245 167.555 47.0187C167.561 47.0129 167.566 47.007 167.572 47.0012C167.578 46.9954 167.584 46.9895 167.59 46.9837C167.596 46.9779 167.601 46.972 167.607 46.9662C167.613 46.9603 167.619 46.9545 167.625 46.9487C167.631 46.9428 167.636 46.937 167.642 46.9312C167.648 46.9253 167.654 46.9195 167.66 46.9137C167.666 46.9078 167.671 46.902 167.677 46.8962C167.683 46.8903 167.689 46.8845 167.695 46.8786C167.701 46.8728 167.706 46.867 167.712 46.8611C167.718 46.8553 167.724 46.8495 167.73 46.8436C167.736 46.8378 167.741 46.832 167.747 46.8261C167.753 46.8203 167.759 46.8144 167.765 46.8086C167.771 46.8028 167.776 46.7969 167.782 46.7911C167.788 46.7853 167.794 46.7794 167.8 46.7736C167.806 46.7678 167.812 46.7619 167.817 46.7561C167.823 46.7502 167.829 46.7444 167.835 46.7386C167.841 46.7327 167.847 46.7269 167.852 46.7211C167.858 46.7152 167.864 46.7094 167.87 46.7036C167.876 46.6977 167.882 46.6919 167.887 46.6861C167.893 46.6802 167.899 46.6744 167.905 46.6685C167.911 46.6627 167.917 46.6569 167.922 46.651C167.928 46.6452 167.934 46.6394 167.94 46.6335C167.946 46.6277 167.952 46.6219 167.957 46.616C167.963 46.6102 167.969 46.6043 167.975 46.5985C167.981 46.5927 167.987 46.5868 167.992 46.581C167.998 46.5752 168.004 46.5693 168.01 46.5635C168.016 46.5577 168.022 46.5518 168.027 46.546C168.033 46.5401 168.039 46.5343 168.045 46.5285C168.051 46.5226 168.057 46.5168 168.062 46.511C168.068 46.5051 168.074 46.4993 168.08 46.4935C168.086 46.4876 168.092 46.4818 168.097 46.4759C168.103 46.4701 168.109 46.4643 168.115 46.4584C168.121 46.4526 168.127 46.4468 168.133 46.4409C168.138 46.4351 168.144 46.4293 168.15 46.4234C168.156 46.4176 168.162 46.4118 168.168 46.4059C168.173 46.4001 168.179 46.3942 168.185 46.3884C168.191 46.3826 168.197 46.3767 168.203 46.3709C168.208 46.3651 168.214 46.3592 168.22 46.3534C168.226 46.3476 168.232 46.3417 168.238 46.3359C168.243 46.33 168.249 46.3242 168.255 46.3184C168.261 46.3125 168.267 46.3067 168.273 46.3009C168.278 46.295 168.284 46.2892 168.29 46.2834C168.296 46.2775 168.302 46.2717 168.308 46.2659C168.313 46.26 168.319 46.2542 168.325 46.2483C168.331 46.2425 168.337 46.2367 168.343 46.2308C168.348 46.225 168.354 46.2192 168.36 46.2133C168.366 46.2075 168.372 46.2016 168.378 46.1958C168.383 46.19 168.389 46.1841 168.395 46.1783C168.401 46.1725 168.407 46.1666 168.413 46.1608C168.418 46.155 168.424 46.1491 168.43 46.1433C168.436 46.1375 168.442 46.1316 168.448 46.1258C168.453 46.1199 168.459 46.1141 168.465 46.1083C168.471 46.1024 168.477 46.0966 168.483 46.0908C168.489 46.0849 168.494 46.0791 168.5 46.0733C168.506 46.0674 168.512 46.0616 168.518 46.0557C168.524 46.0499 168.529 46.0441 168.535 46.0382C168.541 46.0324 168.547 46.0266 168.553 46.0207C168.559 46.0149 168.564 46.0091 168.57 46.0032C168.576 45.9974 168.582 45.9916 168.588 45.9857C168.594 45.9799 168.599 45.974 168.605 45.9682C168.611 45.9624 168.617 45.9565 168.623 45.9507C168.629 45.9449 168.634 45.939 168.64 45.9332C168.646 45.9274 168.652 45.9215 168.658 45.9157C168.664 45.9098 168.669 45.904 168.675 45.8982C168.681 45.8923 168.687 45.8865 168.693 45.8807C168.699 45.8748 168.704 45.869 168.71 45.8632C168.716 45.8573 168.722 45.8515 168.728 45.8456C168.734 45.8398 168.739 45.834 168.745 45.8281C168.751 45.8223 168.757 45.8165 168.763 45.8106C168.769 45.8048 168.774 45.799 168.78 45.7931C168.786 45.7873 168.792 45.7814 168.798 45.7756C168.804 45.7698 168.809 45.7639 168.815 45.7581C168.821 45.7523 168.824 45.7493 168.83 45.7435C170.823 43.9343 171.421 41.0396 170.213 38.4659C170.009 38.034 169.764 37.643 169.489 37.2957C169.492 37.2928 169.495 37.2899 169.498 37.287C169.504 37.2811 169.51 37.2753 169.516 37.2695C169.521 37.2636 169.527 37.2578 169.533 37.252C169.539 37.2461 169.545 37.2403 169.551 37.2345C169.557 37.2286 169.562 37.2228 169.568 37.2169C169.574 37.2111 169.58 37.2053 169.586 37.1994C169.592 37.1936 169.597 37.1878 169.603 37.1819C169.609 37.1761 169.615 37.1703 169.621 37.1644C169.627 37.1586 169.632 37.1527 169.638 37.1469C169.644 37.1411 169.65 37.1352 169.656 37.1294C169.662 37.1236 169.667 37.1177 169.673 37.1119C169.679 37.1061 169.685 37.1002 169.691 37.0944C169.697 37.0885 169.702 37.0827 169.708 37.0769C169.714 37.071 169.72 37.0652 169.726 37.0594C169.732 37.0535 169.737 37.0477 169.743 37.0419C169.749 37.036 169.755 37.0302 169.761 37.0244C169.767 37.0185 169.772 37.0127 169.778 37.0068C169.784 37.001 169.79 36.9952 169.796 36.9893C169.802 36.9835 169.807 36.9777 169.813 36.9718C169.819 36.966 169.825 36.9602 169.831 36.9543C169.837 36.9485 169.842 36.9426 169.848 36.9368C169.854 36.931 169.86 36.9251 169.866 36.9193C169.872 36.9135 169.878 36.9076 169.883 36.9018C169.889 36.896 169.895 36.8901 169.901 36.8843C169.907 36.8784 169.913 36.8726 169.918 36.8668C169.924 36.8609 169.93 36.8551 169.936 36.8493C169.942 36.8434 169.948 36.8376 169.953 36.8318C169.959 36.8259 169.965 36.8201 169.971 36.8143C169.977 36.8084 169.983 36.8026 169.988 36.7967C169.994 36.7909 170 36.7851 170.006 36.7792C170.012 36.7734 170.018 36.7676 170.023 36.7617C170.029 36.7559 170.035 36.7501 170.041 36.7442C170.047 36.7384 170.053 36.7325 170.058 36.7267C170.064 36.7209 170.07 36.715 170.076 36.7092C170.082 36.7034 170.088 36.6975 170.093 36.6917C170.099 36.6859 170.105 36.68 170.111 36.6742C170.117 36.6683 170.123 36.6625 170.128 36.6567C170.134 36.6508 170.14 36.645 170.146 36.6392C170.152 36.6333 170.158 36.6275 170.163 36.6217C170.169 36.6158 170.175 36.61 170.181 36.6042C170.187 36.5983 170.193 36.5925 170.199 36.5866C170.204 36.5808 170.21 36.575 170.216 36.5691C170.222 36.5633 170.228 36.5575 170.234 36.5516C170.239 36.5458 170.245 36.54 170.251 36.5341C170.257 36.5283 170.263 36.5224 170.269 36.5166C170.274 36.5108 170.28 36.5049 170.286 36.4991C170.292 36.4933 170.298 36.4874 170.304 36.4816C170.309 36.4758 170.315 36.4699 170.321 36.4641C170.327 36.4582 170.333 36.4524 170.339 36.4466C170.344 36.4407 170.35 36.4349 170.356 36.4291C170.362 36.4232 170.368 36.4174 170.374 36.4116C170.379 36.4057 170.385 36.3999 170.391 36.3941C170.397 36.3882 170.403 36.3824 170.409 36.3765C170.414 36.3707 170.42 36.3649 170.426 36.359C170.432 36.3532 170.438 36.3474 170.444 36.3415C170.449 36.3357 170.455 36.3299 170.461 36.324C170.467 36.3182 170.473 36.3123 170.479 36.3065C170.484 36.3007 170.49 36.2948 170.496 36.289C170.502 36.2832 170.508 36.2773 170.514 36.2715C170.519 36.2657 170.525 36.2598 170.531 36.254C170.537 36.2481 170.543 36.2423 170.549 36.2365C170.555 36.2306 170.56 36.2248 170.566 36.219C170.572 36.2131 170.578 36.2073 170.584 36.2015C170.59 36.1956 170.595 36.1898 170.601 36.184C170.607 36.1781 170.613 36.1723 170.619 36.1664C170.625 36.1606 170.63 36.1548 170.636 36.1489C170.642 36.1431 170.648 36.1373 170.654 36.1314C170.66 36.1256 170.665 36.1198 170.671 36.1139C170.677 36.1081 170.683 36.1022 170.689 36.0964C170.695 36.0906 170.7 36.0847 170.706 36.0789C170.712 36.0731 170.718 36.0672 170.724 36.0614C170.73 36.0556 170.735 36.0497 170.741 36.0439C170.747 36.038 170.753 36.0322 170.759 36.0264C170.765 36.0205 170.77 36.0147 170.776 36.0089C170.782 36.003 170.788 35.9972 170.794 35.9914C170.8 35.9855 170.805 35.9797 170.811 35.9739C170.817 35.968 170.823 35.9622 170.829 35.9563C170.835 35.9505 170.84 35.9447 170.846 35.9388C170.852 35.933 170.858 35.9272 170.864 35.9213C170.87 35.9155 170.875 35.9097 170.881 35.9038C170.887 35.898 170.893 35.8921 170.899 35.8863C170.905 35.8805 170.91 35.8746 170.916 35.8688C170.922 35.863 170.928 35.8571 170.934 35.8513C170.94 35.8455 170.946 35.8396 170.951 35.8338C170.957 35.8279 170.963 35.8221 170.969 35.8163C170.975 35.8104 170.981 35.8046 170.986 35.7988C170.992 35.7929 170.998 35.7871 171.004 35.7813C171.01 35.7754 171.016 35.7696 171.021 35.7637C171.027 35.7579 171.033 35.7521 171.039 35.7462C171.045 35.7404 171.051 35.7346 171.056 35.7287C171.062 35.7229 171.068 35.7171 171.074 35.7112C171.08 35.7054 171.086 35.6996 171.091 35.6937C171.097 35.6879 171.103 35.682 171.109 35.6762C171.115 35.6704 171.121 35.6645 171.126 35.6587C171.132 35.6529 171.138 35.647 171.144 35.6412C171.15 35.6354 171.156 35.6295 171.161 35.6237C171.167 35.6178 171.173 35.612 171.179 35.6062C171.185 35.6003 171.191 35.5945 171.196 35.5887C171.202 35.5828 171.208 35.577 171.214 35.5712C171.22 35.5653 171.226 35.5595 171.231 35.5536C171.237 35.5478 171.243 35.542 171.249 35.5361C171.255 35.5303 171.261 35.5245 171.266 35.5186C171.272 35.5128 171.278 35.507 171.284 35.5011C171.29 35.4953 171.296 35.4895 171.302 35.4836C171.307 35.4778 171.313 35.4719 171.319 35.4661C171.325 35.4603 171.331 35.4544 171.337 35.4486C171.342 35.4428 171.348 35.4369 171.354 35.4311C171.36 35.4253 171.366 35.4194 171.372 35.4136C171.377 35.4077 171.383 35.4019 171.389 35.3961C171.395 35.3902 171.401 35.3844 171.407 35.3786C171.412 35.3727 171.418 35.3669 171.424 35.3611C171.43 35.3552 171.436 35.3494 171.442 35.3435C171.447 35.3377 171.453 35.3319 171.459 35.326C171.465 35.3202 171.471 35.3144 171.477 35.3085C171.482 35.3027 171.488 35.2969 171.494 35.291C171.5 35.2852 171.506 35.2794 171.512 35.2735C171.517 35.2677 171.523 35.2618 171.529 35.256C171.535 35.2502 171.541 35.2443 171.547 35.2385C171.552 35.2327 171.558 35.2268 171.564 35.221C171.57 35.2152 171.576 35.2093 171.582 35.2035C171.587 35.1976 171.593 35.1918 171.599 35.186C171.605 35.1801 171.611 35.1743 171.617 35.1685C171.623 35.1626 171.628 35.1568 171.634 35.151C171.64 35.1451 171.646 35.1393 171.652 35.1334C171.658 35.1276 171.663 35.1218 171.669 35.1159C171.675 35.1101 171.681 35.1043 171.687 35.0984C171.693 35.0926 171.698 35.0868 171.704 35.0809C171.71 35.0751 171.716 35.0693 171.722 35.0634C171.728 35.0576 171.733 35.0517 171.739 35.0459C171.745 35.0401 171.751 35.0342 171.757 35.0284C171.763 35.0226 171.768 35.0167 171.774 35.0109C171.78 35.0051 171.786 34.9992 171.792 34.9934C171.798 34.9875 171.803 34.9817 171.809 34.9759C171.815 34.97 171.821 34.9642 171.827 34.9584C171.833 34.9525 171.838 34.9467 171.844 34.9409C171.85 34.935 171.856 34.9292 171.862 34.9233C171.868 34.9175 171.873 34.9117 171.879 34.9058C171.885 34.9 171.891 34.8942 171.897 34.8883C171.903 34.8825 171.908 34.8767 171.914 34.8708C171.92 34.865 171.926 34.8592 171.932 34.8533C171.938 34.8475 171.943 34.8416 171.949 34.8358C171.955 34.83 171.961 34.8241 171.967 34.8183C171.973 34.8125 171.979 34.8066 171.984 34.8008C171.99 34.795 171.996 34.7891 172.002 34.7833C172.008 34.7774 172.014 34.7716 172.019 34.7658C172.025 34.7599 172.031 34.7541 172.037 34.7483C172.043 34.7424 172.049 34.7366 172.054 34.7308C172.06 34.7249 172.066 34.7191 172.072 34.7132C172.078 34.7074 172.084 34.7016 172.089 34.6957C172.095 34.6899 172.101 34.6841 172.107 34.6782C172.113 34.6724 172.119 34.6666 172.124 34.6607C172.13 34.6549 172.136 34.6491 172.142 34.6432C172.148 34.6374 172.154 34.6315 172.159 34.6257C172.165 34.6199 172.171 34.614 172.177 34.6082C172.183 34.6024 172.189 34.5965 172.194 34.5907C172.2 34.5849 172.206 34.579 172.212 34.5732C172.218 34.5673 172.224 34.5615 172.229 34.5557C172.235 34.5498 172.241 34.544 172.247 34.5382C172.253 34.5323 172.259 34.5265 172.264 34.5207C172.27 34.5148 172.276 34.509 172.282 34.5031C172.288 34.4973 172.294 34.4915 172.299 34.4856C172.305 34.4798 172.311 34.474 172.317 34.4681C172.323 34.4623 172.329 34.4565 172.335 34.4506C172.34 34.4448 172.346 34.4389 172.352 34.4331C172.358 34.4273 172.364 34.4214 172.37 34.4156C172.375 34.4098 172.381 34.4039 172.387 34.3981C172.393 34.3923 172.399 34.3864 172.405 34.3806C172.41 34.3748 172.416 34.3689 172.422 34.3631C172.428 34.3572 172.434 34.3514 172.44 34.3456C172.445 34.3397 172.451 34.3339 172.457 34.3281C172.463 34.3222 172.469 34.3164 172.475 34.3106C172.48 34.3047 172.486 34.2989 172.492 34.293C172.498 34.2872 172.504 34.2814 172.51 34.2755C172.515 34.2697 172.521 34.2639 172.527 34.258C172.533 34.2522 172.539 34.2464 172.545 34.2405C172.55 34.2347 172.556 34.2288 172.562 34.223C172.568 34.2172 172.574 34.2113 172.58 34.2055C172.585 34.1997 172.591 34.1938 172.597 34.188C172.603 34.1822 172.609 34.1763 172.615 34.1705C172.62 34.1647 172.626 34.1588 172.632 34.153C172.638 34.1471 172.644 34.1413 172.65 34.1355C172.655 34.1296 172.661 34.1238 172.667 34.118C172.673 34.1121 172.679 34.1063 172.685 34.1005C172.691 34.0946 172.696 34.0888 172.702 34.0829C172.708 34.0771 172.714 34.0713 172.72 34.0654C172.726 34.0596 172.731 34.0538 172.737 34.0479C172.743 34.0421 172.749 34.0363 172.755 34.0304C172.761 34.0246 172.766 34.0187 172.772 34.0129C172.778 34.0071 172.784 34.0012 172.79 33.9954C172.796 33.9896 172.801 33.9837 172.807 33.9779C172.813 33.9721 172.819 33.9662 172.825 33.9604C172.831 33.9546 172.836 33.9487 172.842 33.9429C172.848 33.937 172.854 33.9312 172.86 33.9254C172.866 33.9195 172.871 33.9137 172.877 33.9079C172.883 33.902 172.889 33.8962 172.895 33.8904C174.561 32.2446 176.07 29.7934 175.425 27.0358L175.361 27.0942Z" fill="#515979"/>
<path fill-rule="evenodd" clip-rule="evenodd" d="M169.09 26.9162C168.127 26.8082 166.554 26.7849 164.739 26.5018L164.76 26.4376C164.979 25.9357 165.197 25.4572 165.393 24.9553C165.656 24.2578 166.662 22.2706 165.982 21.5528C165.087 20.5928 162.265 20.1784 159.598 22.6646C158.527 23.6451 157.934 25.1303 157.433 26.4172C156.338 29.166 155.422 32.0462 155.18 34.9905C154.984 37.3454 154.83 39.8987 155.288 42.2564C155.419 42.9334 155.682 43.9577 156.227 44.4596C156.248 44.4596 158.369 47.3601 165.413 42.9101C166.989 41.9296 165.959 39.8549 165.501 40.0095C160.362 43.0648 161.171 39.137 161.171 39.137L161.15 39.1575C161.281 38.2616 161.413 37.3454 161.564 36.4524C161.827 34.9263 162.154 33.4206 162.592 31.9353C165.215 32.6327 167.555 32.4372 168.582 31.7835C170.441 30.6046 172.977 27.3335 169.084 26.9191L169.09 26.9162ZM46.3653 21.2668C47.48 21.8125 49.8874 21.2464 50.6082 20.1551C51.396 18.9557 52.3794 16.5542 51.221 15.3548C51.1772 15.2906 51.113 15.2469 51.0459 15.2031C49.7999 14.2226 46.9577 14.6574 45.6445 15.3111C43.742 16.2711 45.2739 20.7212 46.3653 21.2668ZM35.6064 41.098C35.8895 41.7312 36.3943 42.6679 37.0509 43.0181C37.0713 43.0181 39.2161 44.8068 43.634 41.1418C43.7857 41.4248 43.9608 41.6641 44.1359 41.7954C44.4861 42.0784 44.8362 42.2535 45.1864 42.3848C45.7117 42.6475 47.7893 43.2807 52.076 39.5485C54.7431 43.5637 61.0636 41.9267 65.4377 37.9786C65.6333 39.0028 65.9397 39.7673 66.3569 40.1379C68.4113 41.9267 70.7749 40.4006 70.7953 40.4006C70.8829 40.3568 70.8157 39.3967 70.8157 39.3092C70.8595 38.3725 70.9237 37.4329 71.0346 36.4962C71.2097 35.1014 71.4052 33.6832 71.6678 32.265C72.4557 29.9306 74.8602 27.8354 75.6043 29.735C76.4126 31.8302 74.2707 39.5747 74.2911 39.5747C74.2911 39.5747 73.7659 41.7341 78.9279 40.5348C83.3225 39.5106 83.9791 22.8192 79.6487 22.3611C75.9953 21.9905 73.6579 25.676 72.6074 27.8587C72.8467 26.9425 73.0889 26.0262 73.264 25.0895C73.3953 24.3687 74.0285 22.2327 73.2436 21.6199C72.1931 20.835 69.3946 20.9429 67.2294 23.8668C66.0272 25.5039 65.2627 29.8022 65.1751 33.5956C64.3668 34.3806 63.4914 35.1014 62.5722 35.6237C61.3904 36.3007 59.6863 36.8901 58.3294 36.432C57.7166 36.2131 57.4102 35.9301 57.1709 35.364C57.1505 35.2764 56.7769 34.0975 56.8003 34.0975C59.6425 33.4206 62.3767 32.1337 63.6665 29.4724C64.4544 27.815 64.8045 24.9786 63.5147 23.4525C62.7502 22.5362 61.0227 22.0985 59.7971 22.1423C54.7022 22.3378 49.1462 30.3887 51.0284 37.1528C49.1054 38.6147 48.7756 37.4358 48.7552 36.6304C48.8427 35.5828 48.974 34.5148 49.1054 33.4672C49.2367 32.5306 49.368 31.6143 49.5197 30.698C49.759 29.2798 50.1325 27.885 50.328 26.4435C50.436 25.7023 50.9612 23.5429 50.1529 22.9972C49.082 22.2561 46.2603 22.4953 44.2497 25.5068C42.8286 27.6224 42.3034 33.9487 42.8286 38.1157C40.643 39.2071 40.5321 36.6538 40.5321 36.6538L40.5117 36.6742C40.4241 35.7579 40.3366 34.8417 40.2724 33.9254C40.0973 31.3079 40.0973 28.7342 40.4912 26.1167C40.7101 24.6985 41.0603 23.2803 41.2558 21.8621C41.3433 21.1209 41.8452 18.9616 41.0165 18.4159C39.9222 17.6951 37.08 17.9782 35.0899 21.0334C34.302 22.2561 34.0628 23.826 33.8643 25.177C33.45 28.1009 33.2515 31.1124 33.7126 34.0333C34.1503 36.4116 34.6084 38.9415 35.6152 41.1009L35.6064 41.098ZM57.737 27.3539C58.9626 25.3463 59.8788 28.4453 59.269 29.4928C58.3498 31.019 56.9083 30.8877 56.9083 30.8877C56.9083 30.8877 56.6456 29.1427 57.7399 27.3539H57.737ZM22.2242 36.5808C22.3759 36.5166 22.5306 36.4495 22.6619 36.362C26.184 39.7878 25.0897 48.361 32.3936 46.4614C33.8147 46.0908 34.9965 45.2387 35.3467 43.8205C35.3671 43.7126 35.4984 42.1631 35.1512 42.1631C31.4132 42.2273 30.9083 38.1916 29.248 36.2715C28.3521 35.2239 27.5847 34.439 26.7326 33.9166C31.6087 30.2953 32.843 24.4679 32.026 22.615C31.527 21.4186 28.1128 17.2049 26.9514 21.0888C26.3387 23.184 25.8367 28.5065 21.9207 31.9323C21.9207 30.7972 21.9645 29.6621 22.0958 28.5065C22.2475 27.0679 22.5539 25.6498 22.6852 24.2082C22.7494 23.4671 23.1667 21.2843 22.3146 20.762C21.1999 20.085 18.3578 20.4556 16.4756 23.575C15.7315 24.8181 15.5564 26.388 15.4047 27.7624C15.2967 28.9413 15.2092 30.1173 15.1654 31.3196C13.8318 31.6026 12.4574 32.9653 12.0606 33.6307C11.6608 34.296 10.7037 35.6587 12.1248 37.2082C12.65 37.7743 13.9398 38.2762 15.9066 38.212C16.3209 40.065 16.8462 41.9413 17.6778 43.6017C17.9842 44.2115 18.5299 45.1278 19.1865 45.4546C21.6581 46.6335 23.5373 44.5821 23.5373 44.5821C23.6015 44.5179 23.2747 43.6221 23.2543 43.5346C23.123 42.6387 22.9479 41.7224 22.7961 40.7857C22.5773 39.4113 22.3818 37.9932 22.2271 36.575L22.2242 36.5808ZM140.508 37.3891C140.333 40.6398 142.127 44.8273 147.835 44.0656C153.563 43.3245 154.024 37.9348 152.734 35.3611C151.445 32.7873 148.996 31.2174 149.63 30.1698C150.569 28.5999 151.839 31.5238 152.364 31.2816C152.364 31.2816 155.906 30.4733 155.119 28.0747C154.637 26.6127 149.606 24.4096 146.414 26.2421C143.659 27.812 143.922 30.3653 145.912 34.01C147.923 37.6751 148.01 39.9016 146.589 40.2284C145.145 40.5552 143.942 37.4358 144.447 35.8221C144.511 35.2327 140.686 34.1647 140.511 37.392L140.508 37.3891ZM109.214 36.6246C110.636 42.2973 117.152 43.0385 120.869 39.0466C122.203 37.6722 123.449 35.1626 124.216 32.5451C124.762 32.6531 125.331 32.7407 125.9 32.8078C125.506 34.3339 125.418 35.9272 125.769 37.5204C126.994 43.2369 133.487 44.197 137.359 40.3334C140.464 37.322 143.35 28.6174 140.858 25.4338C140.312 24.7364 139.151 24.3425 138.278 24.2345C137.053 24.0594 135.786 24.2141 135.611 25.6089C135.46 26.8316 135.719 27.9434 135.699 29.1223C135.678 30.911 135.392 32.6123 134.998 34.3368C134.715 35.647 134.365 37.0214 133.729 38.1974C133.402 38.8306 132.766 39.5718 132.264 38.6351C131.631 37.4796 131.631 35.8425 131.783 34.5761C131.914 33.6394 132.241 32.7436 132.897 32.0024C133.204 31.6318 133.642 31.3925 133.948 31.0423C134.275 30.6484 134.386 30.1465 134.45 29.6679C134.581 28.7954 134.689 27.8558 134.429 26.9833C134.321 26.5894 134.079 26.175 133.773 25.8715C132.746 24.8677 131.281 25.4338 130.295 26.1779C129.375 26.8753 128.631 27.7916 127.429 28.0542C127.19 28.098 124.937 28.3169 124.937 27.9667C124.957 26.353 124.631 24.9553 123.886 24.039C123.317 23.3416 122.159 23.0148 121.263 22.9272C119.098 22.6879 117.872 24.3892 117.808 26.2217C117.788 26.9629 118.004 27.7712 118.31 28.4482C118.462 28.7983 118.66 29.1018 118.9 29.4082C118.879 29.56 118.879 29.7146 118.856 29.8664C118.724 31.5034 118.31 33.1375 117.937 34.7541C117.829 35.2327 117.718 35.7346 117.543 36.2161C117.128 37.3716 115.923 39.1166 115.421 36.9806C114.808 34.3397 115.313 31.7018 116.361 29.2565C116.667 28.5357 116.974 27.8179 117.169 27.0738C117.365 26.3968 117.519 25.2208 116.819 24.6956C115.506 23.7151 114.522 24.2578 113.341 25.1537C110.236 27.6195 108.114 32.2212 109.209 36.6275L109.214 36.6246ZM160.211 51.2412C156.931 50.2373 131.52 44.8477 102.874 44.0627C74.2911 42.8196 42.4522 46.1783 27.9319 52.2012C22.7494 53.882 32.4374 64.1332 43.8966 59.7707C49.6685 57.6551 65.4815 53.596 86.0363 52.0465C106.504 50.4095 131.719 51.2616 154.725 56.9781C161.459 58.6355 166.948 53.4881 160.213 51.2412H160.211ZM82.8206 23.5779C83.2583 23.753 83.8478 23.9048 84.5715 24.0361C84.1133 26.3063 83.8507 28.597 83.982 30.8877C84.1133 33.2426 84.3322 35.7959 85.1201 38.0661C85.3389 38.7198 85.7533 39.7031 86.3661 40.1175C88.6392 41.6232 90.784 39.8345 90.784 39.8345C90.8716 39.7703 90.6761 38.854 90.6527 38.7431C90.5652 37.8064 90.501 36.8668 90.4776 35.9301C90.4339 34.4477 90.4572 32.942 90.4981 31.4363C90.5856 28.8625 90.8249 26.353 91.461 23.8435C92.2051 23.6917 92.9697 23.4729 93.7342 23.2103C93.1885 25.6323 92.815 28.098 92.9259 30.5609C93.0134 32.9828 93.2089 35.6208 93.953 37.9552C94.1719 38.6322 94.5658 39.6565 95.199 40.0708C95.593 40.3334 95.9869 40.5085 96.3575 40.6165C96.3779 40.6165 96.3779 40.6369 96.4013 40.6369C96.4246 40.6369 102.634 42.3819 106.197 39.1312C109.039 36.9281 109.107 28.7021 103.507 28.1155C103.507 28.0951 109.935 27.9404 110.461 20.6103C111.094 15.4628 102.456 12.1887 97.6006 15.5708C96.2875 16.2915 94.9102 16.8576 93.5562 17.2954C93.7955 16.3791 94.0377 15.0922 93.4686 14.6341C92.4415 13.8054 89.5993 13.8053 87.3028 16.6417C86.9322 17.1203 86.5149 17.9081 86.1443 18.7573C84.6357 18.8886 83.3897 18.9324 82.558 18.9528C79.2781 19.0841 81.5951 23.0965 82.8206 23.5779ZM101.998 37.9115C101.365 38.676 100.446 38.1741 100.446 38.1741C99.9438 38.0661 99.439 28.0951 101.648 29.5133C103.486 30.7126 102.436 37.3891 101.998 37.9115ZM104.032 17.9286C105.827 18.5384 103.311 25.8686 102.237 26.3268C101.668 26.566 100.924 26.5223 100.816 25.9999C100.489 24.5817 101.429 20.8291 101.581 20.1755C101.908 18.6056 102.477 17.4267 104.029 17.9286H104.032Z" fill="white"/>
</g>
<defs>
<clipPath id="clip0_7380_2726">
<rect width="182.606" height="75" fill="white"/>
</clipPath>
</defs>
</svg>
