<?xml version="1.0" encoding="utf-8"?>
<!-- Generator: Adobe Illustrator 25.0.1, SVG Export Plug-In . SVG Version: 6.00 Build 0)  -->
<svg version="1.1" id="Layer_1" xmlns="http://www.w3.org/2000/svg" xmlns:xlink="http://www.w3.org/1999/xlink" x="0px" y="0px"
	 viewBox="0 0 400 400" style="enable-background:new 0 0 400 400;" xml:space="preserve">
<style type="text/css">
	.st0{clip-path:url(#SVGID_2_);}
	.st1{fill:#B29D90;}
	.st2{fill:#515979;}
	.st3{fill:#FFFFFF;}
	.st4{fill:#D8EBFB;}
	.st5{fill:#BAD2E1;}
	.st6{fill:#F89D81;}
	.st7{fill:#EF7D7D;}
	.st8{fill:#CCCCCC;}
	.st9{fill:#979BAF;}
	.st10{fill:#A0D2FF;}
	.st11{fill:#9E8271;}
	.st12{fill:#FFD886;}
</style>
<g>
	<defs>
		<rect id="SVGID_1_" width="400" height="400"/>
	</defs>
	<clipPath id="SVGID_2_">
		<use xlink:href="#SVGID_1_"  style="overflow:visible;"/>
	</clipPath>
	<g class="st0">
		<path class="st1" d="M367.1,65.6L199.2,36c-9.3-1.6-18.1,4.6-19.8,13.8l-35.5,201.5c-1.6,9.3,4.6,18.1,13.8,19.8l167.9,29.6
			c9.3,1.6,18.1-4.6,19.8-13.8l35.5-201.5C382.6,76.1,376.4,67.2,367.1,65.6z"/>
		<path class="st2" d="M366.5,68.9c3.6,0.6,6.7,2.6,8.8,5.6c2.1,3,2.9,6.6,2.3,10.2L342,286.2c-0.6,3.6-2.6,6.7-5.6,8.8
			c-3,2.1-6.6,2.9-10.2,2.3l-168-29.6c-3.6-0.6-6.7-2.6-8.8-5.6c-2.1-3-2.9-6.6-2.3-10.2l35.5-201.5c0.6-3.6,2.6-6.7,5.6-8.8
			c3-2.1,6.6-2.9,10.2-2.3L366.5,68.9z M367.7,62.2l-168-29.6c-5.3-0.9-10.8,0.3-15.3,3.4c-4.4,3.1-7.5,7.9-8.4,13.2l-35.5,201.5
			c-0.9,5.3,0.3,10.8,3.4,15.3s7.9,7.5,13.2,8.4l168,29.6c5.3,0.9,10.8-0.3,15.3-3.4c4.4-3.1,7.5-7.9,8.4-13.2l35.5-201.5
			c0.9-5.3-0.3-10.8-3.4-15.3C377.8,66.2,373,63.2,367.7,62.2z"/>
		<path class="st3" d="M164.6,258.4c-2.1-0.4-3.9-1.5-5.1-3.3c-1.2-1.7-1.7-3.9-1.3-5.9l34-192.5c0.4-2.1,1.5-3.9,3.3-5.1
			c1.7-1.2,3.9-1.7,5.9-1.3l159,28c2.1,0.4,3.9,1.5,5.1,3.3c1.2,1.7,1.7,3.9,1.3,5.9l-30,170.2c-0.1,0.4-0.2,0.9-0.5,1.2
			c-0.2,0.4-0.6,0.7-0.9,1l-31.6,22.1c-0.7,0.5-1.7,0.7-2.5,0.6L164.6,258.4z"/>
		<path class="st2" d="M359.7,81.6c1.2,0.2,2.2,0.9,2.9,1.9c0.7,1,1,2.2,0.8,3.4l-30,170.2l-31.6,22.1l-136.6-24.1
			c-0.6-0.1-1.1-0.3-1.7-0.6c-0.5-0.3-0.9-0.7-1.3-1.2c-0.3-0.5-0.6-1-0.7-1.6c-0.1-0.6-0.1-1.2,0-1.8l34-192.5
			c0.2-1.2,0.9-2.2,1.9-2.9c1-0.7,2.2-1,3.4-0.8L359.7,81.6L359.7,81.6z M360.9,74.9l-159-28c-3-0.5-6,0.2-8.5,1.9
			c-2.5,1.7-4.1,4.4-4.7,7.3l-33.9,192.5c-0.5,3,0.2,6,1.9,8.5s4.4,4.2,7.3,4.7l136.6,24.1c1.8,0.3,3.6-0.1,5.1-1.1l31.6-22.1
			c1.5-1,2.5-2.6,2.8-4.4l30-170.2c0.5-3-0.2-6-1.9-8.5C366.5,77.1,363.8,75.4,360.9,74.9L360.9,74.9z"/>
		<path class="st4" d="M301.2,282.5c-0.4-0.1-0.9-0.2-1.2-0.5c-0.6-0.4-1-0.9-1.3-1.5c-0.3-0.6-0.4-1.3-0.2-2l3.8-21.5
			c0.4-2.3,1.7-4.4,3.6-5.7c1.9-1.3,4.3-1.9,6.6-1.5l21.5,3.8c0.7,0.1,1.3,0.4,1.8,0.9c0.5,0.5,0.8,1.1,1,1.7c0.1,0.7,0.1,1.3-0.2,2
			c-0.2,0.6-0.7,1.2-1.2,1.6l-31.6,22.1C303,282.4,302,282.6,301.2,282.5L301.2,282.5z"/>
		<path class="st2" d="M333.3,257l-31.6,22.1l3.8-21.5c0.3-1.4,1.1-2.7,2.2-3.5s2.7-1.2,4.1-0.9L333.3,257z M334.5,250.3l-21.5-3.8
			c-3.2-0.6-6.5,0.2-9.2,2c-2.7,1.9-4.5,4.7-5.1,7.9l-3.8,21.5c-0.2,1.3-0.1,2.7,0.5,3.9c0.5,1.2,1.4,2.3,2.6,3
			c0.8,0.5,1.6,0.8,2.5,1c0.9,0.2,1.8,0.1,2.7-0.1c0.9-0.2,1.7-0.6,2.4-1.1l31.6-22.1c1.1-0.8,2-1.9,2.4-3.1
			c0.5-1.3,0.6-2.6,0.3-3.9c-0.3-1.3-1-2.5-1.9-3.5C337.1,251.1,335.9,250.5,334.5,250.3L334.5,250.3z"/>
		<path class="st2" d="M274,168.1l-29.1-5.1c-1.9-0.3-3.6,0.9-4,2.8s0.9,3.6,2.8,4l29.1,5.1c1.9,0.3,3.6-0.9,4-2.8
			C277.1,170.2,275.9,168.4,274,168.1z"/>
		<path class="st2" d="M323.4,162.9l-76.1-13.4c-1.9-0.3-3.6,0.9-4,2.8c-0.3,1.9,0.9,3.6,2.8,4l76.1,13.4c1.9,0.3,3.6-0.9,4-2.8
			C326.5,165,325.3,163.2,323.4,162.9z"/>
		<path class="st5" d="M222.4,67.8c-0.9-0.2-1.7-0.7-2.2-1.4c-0.5-0.7-0.7-1.6-0.6-2.5l3.2-18c0.6-3.3,2.4-6.2,5.1-8.1
			c2.7-1.9,6.1-2.6,9.3-2.1l28.3,5c-1.2-3.5-1.4-7.3-0.7-11c0.7-3.7,2.4-7.1,4.8-9.9s5.6-5,9.1-6.2c3.5-1.2,7.3-1.6,11-0.9
			c0.8,0.1,1.6,0.3,2.4,0.6c3.4,1,6.5,2.8,9,5.3c2.5,2.5,4.4,5.5,5.5,8.9c1.1,3.4,1.3,6.9,0.6,10.4c-0.6,3.5-2.1,6.7-4.3,9.5l28.3,5
			c3.3,0.6,6.2,2.4,8.1,5.1c1.9,2.7,2.6,6.1,2.1,9.3l-3.2,18c-0.2,0.9-0.7,1.7-1.4,2.2c-0.7,0.5-1.7,0.7-2.5,0.6L222.4,67.8z
			 M287.1,28.4c-0.4-0.1-0.8-0.1-1.1-0.1c-0.7-0.1-1.5,0-2.2,0.3c-0.7,0.2-1.4,0.6-1.9,1.1c-0.6,0.5-1,1.1-1.4,1.7
			c-0.3,0.7-0.5,1.4-0.6,2.1c-0.1,0.7,0,1.5,0.3,2.2c0.2,0.7,0.6,1.4,1.1,1.9c0.5,0.6,1.1,1,1.7,1.4c0.7,0.3,1.4,0.5,2.1,0.6
			c0.4,0.1,0.8,0.1,1.1,0.1c1.5,0.1,3-0.4,4.1-1.4c1.1-1,1.8-2.4,2-3.9c0.1-1.5-0.4-3-1.4-4.1C290,29.2,288.6,28.5,287.1,28.4
			L287.1,28.4z"/>
		<path class="st2" d="M289.3,16c0.7,0.1,1.4,0.2,2,0.5c3.4,1,6.4,3,8.6,5.7c2.3,2.7,3.7,6,4.2,9.5c0.4,3.5-0.1,7-1.7,10.2
			c-1.5,3.2-3.9,5.8-6.9,7.6l35.2,6.2c2.4,0.4,4.5,1.8,5.9,3.7c1.4,2,1.9,4.4,1.5,6.8l-3.2,18L223,64.5l3.2-18
			c0.4-2.4,1.8-4.5,3.7-5.9c2-1.4,4.4-1.9,6.8-1.5l35.2,6.2c-2.3-2.9-3.7-6.4-4-10.1s0.6-7.4,2.5-10.6c1.9-3.2,4.7-5.7,8.1-7.3
			C281.9,15.9,285.6,15.4,289.3,16L289.3,16z M284.5,42.9c0.6,0.1,1.2,0.1,1.8,0.1c2.2-0.1,4.3-1,5.9-2.6c1.6-1.5,2.6-3.6,2.7-5.8
			c0.2-2.2-0.5-4.4-1.8-6.2c-1.3-1.8-3.3-3-5.5-3.4c-0.6-0.1-1.2-0.1-1.8-0.1c-2.3,0.1-4.4,1-6,2.5c-1.6,1.6-2.6,3.7-2.8,5.9
			c-0.2,2.2,0.5,4.5,1.9,6.3C280.3,41.3,282.3,42.5,284.5,42.9L284.5,42.9z M290.5,9.4c-3.8-0.7-7.7-0.4-11.4,0.6
			c-3.7,1.1-7.1,3-9.9,5.7c-2.8,2.6-5,5.9-6.4,9.5s-1.9,7.5-1.5,11.3l-23.3-4.1c-4.2-0.7-8.4,0.2-11.9,2.6
			c-3.5,2.4-5.8,6.1-6.5,10.3l-3.2,18c-0.3,1.8,0.1,3.6,1.1,5.1c1,1.5,2.6,2.5,4.4,2.8l111.9,19.7c1.8,0.3,3.6-0.1,5.1-1.1
			c1.5-1,2.5-2.6,2.8-4.4l3.2-18c0.7-4.2-0.2-8.4-2.6-11.9c-2.4-3.5-6.1-5.8-10.3-6.5l-23.3-4.1c1.6-3.3,2.4-6.8,2.5-10.4
			c0.1-3.6-0.7-7.2-2.1-10.5c-1.5-3.3-3.6-6.3-6.3-8.7c-2.7-2.4-5.9-4.2-9.4-5.2C292.4,9.8,291.5,9.5,290.5,9.4L290.5,9.4z
			 M285.7,36.2c-0.3-0.1-0.6-0.2-0.9-0.4c-0.3-0.2-0.5-0.4-0.7-0.7c-0.2-0.3-0.3-0.7-0.3-1.1c0-0.4,0.1-0.8,0.3-1.1
			c0.2-0.3,0.5-0.6,0.8-0.8c0.3-0.2,0.7-0.3,1.1-0.3c0.2,0,0.3,0,0.5,0.1c0.3,0.1,0.6,0.2,0.9,0.4c0.3,0.2,0.5,0.4,0.7,0.7
			c0.2,0.3,0.3,0.7,0.3,1.1c0,0.4-0.1,0.8-0.3,1.1c-0.2,0.3-0.5,0.6-0.8,0.8c-0.3,0.2-0.7,0.3-1.1,0.3
			C286,36.3,285.9,36.3,285.7,36.2L285.7,36.2z"/>
		<path class="st2" d="M320,71.1l-78.4-13.8c-0.9-0.2-1.7-0.7-2.2-1.4c-0.5-0.7-0.7-1.7-0.6-2.5c0.2-0.9,0.7-1.7,1.4-2.2
			c0.7-0.5,1.7-0.7,2.5-0.6l78.4,13.8c0.9,0.2,1.7,0.7,2.2,1.4c0.5,0.7,0.7,1.7,0.6,2.5c-0.2,0.9-0.7,1.7-1.4,2.2
			C321.8,71.1,320.9,71.3,320,71.1L320,71.1z"/>
		<path class="st3" d="M231.1,143.2l-20.1-3.6c-1.9-0.3-3.6,0.9-4,2.8l-3.6,20.1c-0.3,1.9,0.9,3.6,2.8,4l20.1,3.6
			c1.9,0.3,3.6-0.9,4-2.8l3.6-20.1C234.2,145.3,232.9,143.5,231.1,143.2z"/>
		<path class="st2" d="M230.5,146.5l-3.6,20.2l-20.2-3.6l3.6-20.2L230.5,146.5z M231.7,139.8l-20.2-3.6c-1.8-0.3-3.6,0.1-5.1,1.1
			c-1.5,1-2.5,2.6-2.8,4.4l-3.6,20.2c-0.2,0.9-0.1,1.8,0.1,2.7c0.2,0.9,0.6,1.7,1.1,2.4c0.5,0.7,1.2,1.4,1.9,1.8
			c0.8,0.5,1.6,0.8,2.5,1l20.2,3.6c1.8,0.3,3.6-0.1,5.1-1.1s2.5-2.6,2.8-4.4l3.6-20.2c0.2-0.9,0.1-1.8-0.1-2.7s-0.6-1.7-1.1-2.4
			c-0.5-0.7-1.2-1.4-1.9-1.8S232.6,140,231.7,139.8z"/>
		<path class="st6" d="M219.1,161.8c-0.5-0.1-0.9-0.3-1.3-0.5c-0.4-0.3-0.7-0.6-1-1l-4.9-7.8c-0.5-0.8-0.6-1.7-0.4-2.6
			c0.2-0.9,0.7-1.7,1.5-2.1c0.8-0.5,1.7-0.6,2.6-0.4c0.9,0.2,1.6,0.7,2.1,1.5l2.9,4.6l16.5-12.7c0.4-0.3,0.8-0.5,1.2-0.6
			c0.4-0.1,0.9-0.2,1.3-0.1c0.4,0.1,0.9,0.2,1.3,0.4c0.4,0.2,0.7,0.5,1,0.9c0.3,0.4,0.5,0.8,0.6,1.2c0.1,0.4,0.2,0.9,0.1,1.3
			c-0.1,0.4-0.2,0.9-0.4,1.3c-0.2,0.4-0.5,0.7-0.9,1l-19.4,15c-0.4,0.3-0.8,0.5-1.3,0.6C220,161.9,219.5,161.9,219.1,161.8
			L219.1,161.8z"/>
		<path class="st2" d="M289.3,212.3l-51.5-9.1c-1.9-0.3-3.6,0.9-4,2.8c-0.3,1.9,0.9,3.6,2.8,4l51.5,9.1c1.9,0.3,3.6-0.9,4-2.8
			C292.4,214.4,291.2,212.6,289.3,212.3z"/>
		<path class="st2" d="M316.3,203.2l-76.1-13.4c-1.9-0.3-3.6,0.9-4,2.8c-0.3,1.9,0.9,3.6,2.8,4l76.1,13.4c1.9,0.3,3.6-0.9,4-2.8
			C319.4,205.3,318.2,203.5,316.3,203.2z"/>
		<path class="st2" d="M242.3,243.3l-51.5-9.1c-1.9-0.3-3.6,0.9-4,2.8c-0.3,1.9,0.9,3.6,2.8,4l51.5,9.1c1.9,0.3,3.6-0.9,4-2.8
			C245.4,245.4,244.2,243.6,242.3,243.3z"/>
		<path class="st2" d="M269.3,234.2l-76.1-13.4c-1.9-0.3-3.6,0.9-4,2.8c-0.3,1.9,0.9,3.6,2.8,4l76.1,13.4c1.9,0.3,3.6-0.9,4-2.8
			C272.4,236.3,271.1,234.5,269.3,234.2z"/>
		<path class="st3" d="M224,183.5l-20.1-3.6c-1.9-0.3-3.6,0.9-4,2.8l-3.6,20.1c-0.3,1.9,0.9,3.6,2.8,4l20.1,3.6
			c1.9,0.3,3.6-0.9,4-2.8l3.6-20.1C227.1,185.6,225.8,183.8,224,183.5z"/>
		<path class="st2" d="M223.4,186.8l-3.6,20.2l-20.2-3.6l3.6-20.2L223.4,186.8z M224.6,180.1l-20.2-3.6c-1.8-0.3-3.6,0.1-5.1,1.1
			c-1.5,1-2.5,2.6-2.8,4.4l-3.6,20.2c-0.3,1.8,0.1,3.6,1.1,5.1c1,1.5,2.6,2.5,4.4,2.8l20.2,3.6c0.9,0.2,1.8,0.1,2.7-0.1
			c0.9-0.2,1.7-0.6,2.4-1.1c0.7-0.5,1.4-1.2,1.8-1.9c0.5-0.8,0.8-1.6,1-2.5l3.6-20.2c0.3-1.8-0.1-3.6-1.1-5.1
			C227.9,181.4,226.3,180.4,224.6,180.1L224.6,180.1z"/>
		<path class="st6" d="M212,202.1c-0.5-0.1-0.9-0.3-1.3-0.5c-0.4-0.3-0.7-0.6-1-1l-4.9-7.8c-0.5-0.8-0.6-1.7-0.4-2.6
			c0.2-0.9,0.7-1.7,1.5-2.1c0.8-0.5,1.7-0.6,2.6-0.4c0.9,0.2,1.7,0.7,2.1,1.5l2.9,4.6l16.5-12.7c0.4-0.3,0.8-0.5,1.2-0.6
			c0.4-0.1,0.9-0.2,1.3-0.1c0.4,0.1,0.9,0.2,1.3,0.4c0.4,0.2,0.7,0.5,1,0.9c0.3,0.4,0.5,0.8,0.6,1.2c0.1,0.4,0.2,0.9,0.1,1.3
			c-0.1,0.4-0.2,0.9-0.4,1.3c-0.2,0.4-0.5,0.7-0.9,1l-19.4,15c-0.4,0.3-0.8,0.5-1.3,0.6C212.9,202.2,212.4,202.2,212,202.1z"/>
		<path class="st2" d="M291.8,116.5c-0.4-0.1-0.7-0.2-1-0.4c-1.2-0.8-2.5-1.3-3.8-1.6c-1.4-0.2-2.8-0.2-4.1,0.2
			c-0.6,0.2-1.2,0.1-1.7-0.1c-0.5-0.3-0.9-0.7-1.1-1.3c-0.2-0.6-0.1-1.2,0.1-1.7c0.3-0.5,0.7-0.9,1.3-1.1c2.1-0.6,4.2-0.7,6.3-0.3
			c2.1,0.4,4.1,1.2,5.9,2.5c0.4,0.3,0.6,0.8,0.7,1.2c0.1,0.5,0.1,1-0.1,1.4c-0.2,0.4-0.5,0.8-1,1.1S292.3,116.5,291.8,116.5
			L291.8,116.5z"/>
		<path class="st2" d="M287.3,112.5c4.3,0.8,8.5-2.1,9.2-6.5c0.8-4.3-2.1-8.5-6.5-9.2c-4.3-0.8-8.5,2.1-9.2,6.5
			C280,107.6,282.9,111.8,287.3,112.5z"/>
		<path class="st3" d="M290.3,107c1.1,0.2,2.1-0.5,2.3-1.6c0.2-1.1-0.5-2.1-1.6-2.3c-1.1-0.2-2.1,0.5-2.3,1.6
			C288.5,105.8,289.2,106.8,290.3,107z"/>
		<path class="st2" d="M286.7,88c0.7-0.3,1.5-0.5,2.3-0.6c0.8-0.1,1.5-0.2,2.3-0.1c1.6,0.1,3.2,0.5,4.7,1.2c1.6,0.8,2.9,1.9,3.9,3.4
			c0.9,1.3,1.5,2.9,1.5,4.6c0,0.5-0.1,0.9-0.3,1.3c-0.2,0.4-0.6,0.7-1,0.9c-0.4,0.2-0.9,0.3-1.3,0.2s-0.9-0.3-1.2-0.6l-0.4-0.4
			c-0.7-0.7-1.4-1.4-2.1-2c-0.6-0.5-1.3-1-2.1-1.4c-0.8-0.4-1.7-0.8-2.6-1.1c-0.5-0.2-1-0.3-1.5-0.5c-0.5-0.1-1.1-0.3-1.5-0.5
			l-0.8-0.4c-0.4-0.2-0.7-0.5-0.9-0.9c-0.2-0.4-0.3-0.8-0.3-1.2c0-0.4,0.2-0.9,0.4-1.2C286,88.3,286.3,88.1,286.7,88L286.7,88z"/>
		<path class="st2" d="M252.6,109.6c-0.5-0.1-0.9-0.4-1.2-0.7c-0.3-0.4-0.5-0.8-0.6-1.3c0-0.5,0.1-1,0.4-1.4
			c0.3-0.4,0.7-0.7,1.1-0.9c2.1-0.6,4.2-0.7,6.3-0.3c2.1,0.4,4.1,1.2,5.9,2.5c0.2,0.2,0.4,0.4,0.6,0.7c0.1,0.3,0.2,0.5,0.3,0.8
			c0,0.3,0,0.6-0.1,0.9c-0.1,0.3-0.2,0.6-0.4,0.8c-0.2,0.2-0.4,0.4-0.7,0.6c-0.3,0.1-0.5,0.2-0.8,0.3c-0.3,0-0.6,0-0.9-0.1
			c-0.3-0.1-0.6-0.2-0.8-0.4c-1.2-0.8-2.5-1.3-3.8-1.6c-1.4-0.2-2.8-0.2-4.1,0.2C253.3,109.6,253,109.6,252.6,109.6L252.6,109.6z"/>
		<path class="st2" d="M258.2,107.4c4.3,0.8,8.5-2.1,9.2-6.5c0.8-4.3-2.1-8.5-6.5-9.2c-4.3-0.8-8.5,2.1-9.2,6.5
			C250.9,102.5,253.8,106.6,258.2,107.4z"/>
		<path class="st3" d="M261.2,101.8c1.1,0.2,2.1-0.5,2.3-1.6c0.2-1.1-0.5-2.1-1.6-2.3s-2.1,0.5-2.3,1.6
			C259.4,100.6,260.1,101.7,261.2,101.8z"/>
		<path class="st2" d="M264.9,89c-0.4,0-1-0.2-1.6-0.2c-0.5,0-1-0.2-1.5-0.3c-0.9-0.1-1.8-0.1-2.8-0.1c-0.8,0-1.7,0.2-2.5,0.4
			c-0.9,0.3-1.9,0.6-2.8,0.9l-0.5,0.2c-0.4,0.1-0.9,0.2-1.4,0c-0.5-0.1-0.9-0.4-1.2-0.8c-0.3-0.4-0.5-0.8-0.5-1.3
			c0-0.5,0.1-0.9,0.3-1.3c0.8-1.5,1.9-2.7,3.4-3.6c1.5-0.9,3.2-1.4,4.9-1.4c1.6-0.1,3.3,0.2,4.8,0.8c0.7,0.3,1.4,0.7,2.1,1.1
			c0.7,0.4,1.3,1,1.8,1.6c0.4,0.4,0.6,1,0.6,1.6c0,0.6-0.3,1.2-0.7,1.6c-0.4,0.4-1,0.6-1.5,0.6L264.9,89z"/>
		<path class="st2" d="M267.5,139.8c-4.9-0.9-9.3-3.6-12.1-7.7c-2.9-4.1-4-9.1-3.1-14c0.1-0.7,0.5-1.4,1.2-1.8
			c0.6-0.4,1.4-0.6,2.1-0.5l31.3,5.5c0.7,0.1,1.4,0.5,1.8,1.2c0.4,0.6,0.6,1.4,0.5,2.1c-0.9,4.9-3.6,9.2-7.7,12.1
			C277.4,139.5,272.3,140.6,267.5,139.8z"/>
		<path class="st2" d="M286.4,124.1c-0.7,4.2-3.1,7.9-6.5,10.3c-3.5,2.4-7.7,3.4-11.9,2.6c-4.2-0.7-7.9-3.1-10.3-6.5
			c-2.4-3.5-3.4-7.7-2.6-11.9L286.4,124.1z M287.4,118.5L256,113c-1.5-0.3-3,0.1-4.2,0.9c-1.2,0.9-2.1,2.2-2.3,3.6
			c-1,5.6,0.2,11.4,3.5,16.2c3.3,4.7,8.3,7.9,13.9,8.9s11.4-0.2,16.2-3.5c4.7-3.3,7.9-8.3,8.9-13.9l0-0.2c0.3-1.5-0.1-3-0.9-4.2
			C290.2,119.6,288.9,118.8,287.4,118.5L287.4,118.5z"/>
		<path class="st7" d="M268,137c6.4,1.1,12.1-0.3,12.6-3.2c0.5-2.9-4.3-6.1-10.7-7.3c-6.4-1.1-12.1,0.3-12.6,3.2
			C256.7,132.6,261.5,135.8,268,137z"/>
		<path class="st8" d="M167.1,325.3c-1.1,0-2.2-0.4-3-1.2l-27.8-27.8c-0.8-0.8-1.2-1.9-1.2-3c0-1.1,0.4-2.2,1.2-3l7.9-7.9
			c0.4-0.4,0.9-0.7,1.4-0.9c0.5-0.2,1.1-0.3,1.6-0.3s1.1,0.1,1.6,0.3c0.5,0.2,1,0.5,1.4,0.9l27.8,27.8c0.8,0.8,1.2,1.9,1.2,3
			c0,1.1-0.4,2.2-1.2,3L170,324C169.2,324.8,168.2,325.3,167.1,325.3z"/>
		<path class="st2" d="M147.2,285.3L175,313l-7.9,8l-27.8-27.8L147.2,285.3L147.2,285.3z M147.2,276.9c-1.1,0-2.2,0.2-3.2,0.6
			c-1,0.4-2,1-2.7,1.8l-7.9,7.9c-1.6,1.6-2.5,3.7-2.5,6c0,2.2,0.9,4.4,2.5,5.9l27.8,27.8c0.8,0.8,1.7,1.4,2.7,1.8
			c1,0.4,2.1,0.6,3.2,0.6c1.1,0,2.2-0.2,3.2-0.6c1-0.4,1.9-1,2.7-1.8l7.9-7.9c1.6-1.6,2.5-3.7,2.5-5.9c0-2.2-0.9-4.4-2.5-6
			l-27.8-27.8C151.6,277.8,149.4,276.9,147.2,276.9L147.2,276.9z"/>
		<path class="st9" d="M156.1,294.2l-7.9,7.9l6.9,6.9l7.9-7.9L156.1,294.2z"/>
		<path class="st8" d="M97.6,318c-17.2,0-33.9-6-47.2-16.9S28,275,24.7,258.1c-3.4-16.9-0.8-34.4,7.4-49.6
			c8.1-15.2,21.2-27.1,37.1-33.6c15.9-6.6,33.6-7.4,50.1-2.5c16.5,5,30.7,15.5,40.2,29.9c9.6,14.3,13.9,31.5,12.2,48.6
			c-1.7,17.1-9.3,33.1-21.4,45.3c-6.9,6.9-15.1,12.4-24.1,16.2C117,316.1,107.4,318,97.6,318L97.6,318z"/>
		<path class="st2" d="M97.6,173.4c16.2,0,32,5.6,44.5,15.9s21.1,24.6,24.3,40.5c3.2,15.9,0.7,32.4-6.9,46.8
			c-7.7,14.3-20,25.5-35,31.8c-15,6.2-31.7,7-47.2,2.3c-15.5-4.7-29-14.7-38-28.2c-9-13.5-13.1-29.7-11.5-45.9S36.5,205.5,48,194
			c6.5-6.5,14.2-11.7,22.8-15.2C79.2,175.2,88.4,173.4,97.6,173.4z M97.6,165c-18.2,0-35.8,6.3-49.9,17.8
			c-14.1,11.5-23.7,27.6-27.2,45.4c-3.5,17.8-0.8,36.3,7.8,52.4c8.6,16,22.4,28.6,39.2,35.6c16.8,7,35.5,7.9,52.9,2.6
			c17.4-5.3,32.4-16.4,42.5-31.5c10.1-15.1,14.7-33.3,12.9-51.4c-1.8-18.1-9.8-35-22.6-47.9c-7.3-7.3-15.9-13.1-25.5-17.1
			S107.9,165,97.6,165L97.6,165z"/>
		<path class="st4" d="M97.6,296.9c-12.3,0-24.3-4.3-33.8-12.1c-9.5-7.8-16.1-18.7-18.5-30.8c-2.4-12.1-0.5-24.7,5.3-35.5
			c5.8-10.9,15.2-19.4,26.6-24.1c11.4-4.7,24.1-5.3,35.9-1.8c11.8,3.6,22,11.1,28.9,21.4c6.9,10.3,9.9,22.6,8.7,34.9
			c-1.2,12.3-6.6,23.8-15.4,32.5c-4.9,5-10.8,8.9-17.3,11.6C111.5,295.6,104.6,296.9,97.6,296.9L97.6,296.9z"/>
		<path class="st2" d="M97.6,194.5c11.4,0,22.4,4,31.1,11.2c8.8,7.2,14.8,17.3,17,28.4c2.2,11.1,0.5,22.7-4.9,32.7
			c-5.4,10-14,17.9-24.6,22.2c-10.5,4.3-22.2,4.9-33.1,1.6c-10.9-3.3-20.3-10.3-26.6-19.8c-6.3-9.5-9.1-20.8-8-32.1
			c1.1-11.3,6.2-21.9,14.2-29.9c4.6-4.6,10-8.2,15.9-10.6C84.8,195.7,91.1,194.5,97.6,194.5L97.6,194.5z M97.6,186
			c-13.3,0-26.2,4.6-36.5,13.1c-10.3,8.4-17.3,20.2-19.9,33.3c-2.6,13.1-0.6,26.6,5.7,38.3c6.3,11.7,16.4,20.9,28.7,26
			c12.3,5.1,26,5.8,38.7,1.9c12.7-3.9,23.7-12,31.1-23.1c7.4-11.1,10.7-24.4,9.4-37.6c-1.3-13.2-7.2-25.6-16.6-35
			c-5.3-5.4-11.7-9.6-18.7-12.5C112.6,187.5,105.2,186,97.6,186L97.6,186z"/>
		<path class="st10" d="M67.8,213.8c-8.8,8.8-13.9,20.6-14.3,33c-0.4,12.4,3.8,24.5,12,33.9c-0.9-0.8-1.7-1.5-2.6-2.4
			c-9.2-9.2-14.4-21.7-14.4-34.7c0-13,5.2-25.5,14.4-34.8c9.2-9.2,21.7-14.4,34.7-14.4c13,0,25.5,5.2,34.8,14.4
			c0.8,0.8,1.6,1.7,2.4,2.6c-9.4-8.1-21.5-12.4-33.9-11.9C88.4,199.9,76.6,205,67.8,213.8L67.8,213.8z"/>
		<path class="st11" d="M207.7,375.8c-1.1,0-2.2-0.4-3-1.2l-45.6-45.6c-0.8-0.8-1.2-1.9-1.2-3c0-1.1,0.4-2.2,1.2-3l17.9-17.9
			c0.8-0.8,1.9-1.2,3-1.2c1.1,0,2.2,0.4,3,1.2l45.6,45.6c0.8,0.8,1.2,1.9,1.2,3c0,1.1-0.4,2.2-1.2,3l-17.9,17.9
			C209.9,375.3,208.8,375.8,207.7,375.8L207.7,375.8z"/>
		<path class="st2" d="M179.9,308.1l45.6,45.6l-17.9,17.8l-45.6-45.6L179.9,308.1L179.9,308.1z M180,299.7c-2.2,0-4.4,0.9-5.9,2.5
			L156.1,320c-0.8,0.8-1.4,1.7-1.8,2.7c-0.4,1-0.6,2.1-0.6,3.2c0,1.1,0.2,2.2,0.6,3.2c0.4,1,1,2,1.8,2.7l45.6,45.6
			c1.6,1.6,3.7,2.5,5.9,2.5c2.2,0,4.4-0.9,5.9-2.5l17.9-17.9c1.6-1.6,2.5-3.7,2.5-6s-0.9-4.4-2.5-6l-45.6-45.6
			C184.3,300.5,182.2,299.7,180,299.7L180,299.7z"/>
		<path class="st12" d="M168,336.1c-1.1,0-2.2-0.4-3-1.2l-5.9-6c-0.8-0.8-1.2-1.9-1.2-3c0-1.1,0.4-2.2,1.2-3l17.9-17.9
			c0.8-0.8,1.9-1.2,3-1.2c1.1,0,2.2,0.4,3,1.2l5.9,6c0.8,0.8,1.2,1.9,1.2,3s-0.4,2.2-1.2,3L171,334.9c-0.4,0.4-0.9,0.7-1.4,0.9
			C169.1,336,168.6,336.1,168,336.1L168,336.1z"/>
		<path class="st2" d="M179.9,308.1l5.9,6L168,331.9l-5.9-6L179.9,308.1L179.9,308.1z M180,299.7c-2.2,0-4.4,0.9-5.9,2.5L156.1,320
			c-0.8,0.8-1.4,1.7-1.8,2.7c-0.4,1-0.6,2.1-0.6,3.2c0,1.1,0.2,2.2,0.6,3.2c0.4,1,1,2,1.8,2.7l6,6c0.8,0.8,1.7,1.4,2.7,1.8
			c1,0.4,2.1,0.6,3.2,0.6c1.1,0,2.2-0.2,3.2-0.6c1-0.4,2-1,2.7-1.8l17.9-17.9c0.8-0.8,1.4-1.7,1.8-2.7c0.4-1,0.6-2.1,0.6-3.2
			c0-1.1-0.2-2.2-0.6-3.2c-0.4-1-1-2-1.8-2.7l-6-6C184.4,300.6,182.2,299.7,180,299.7L180,299.7z"/>
		<path class="st2" d="M121.4,251.7c-0.5,0-1-0.1-1.4-0.3c-1.6-0.7-3.3-1.1-5-1.1s-3.4,0.4-5,1.1c-0.7,0.4-1.4,0.4-2.1,0.2
			c-0.7-0.2-1.3-0.7-1.7-1.4c-0.4-0.7-0.4-1.4-0.2-2.1c0.2-0.7,0.7-1.3,1.4-1.7c2.4-1.1,5-1.7,7.6-1.7c2.6,0,5.3,0.6,7.6,1.7
			c0.6,0.3,1,0.8,1.2,1.3c0.3,0.6,0.3,1.2,0.2,1.8c-0.1,0.6-0.5,1.1-1,1.5C122.7,251.5,122.1,251.7,121.4,251.7z"/>
		<path class="st2" d="M115.1,247.9c5.4,0,9.8-4.4,9.8-9.8s-4.4-9.8-9.8-9.8c-5.4,0-9.8,4.4-9.8,9.8S109.7,247.9,115.1,247.9z"/>
		<path class="st3" d="M117.5,240.5c1.4,0,2.5-1.1,2.5-2.5c0-1.4-1.1-2.5-2.5-2.5c-1.4,0-2.5,1.1-2.5,2.5
			C115.1,239.4,116.2,240.5,117.5,240.5z"/>
		<path class="st2" d="M108.1,217c0.7-0.7,1.6-1.2,2.4-1.7c0.8-0.5,1.7-0.8,2.6-1.1c1.9-0.6,4-0.8,6-0.5c2.1,0.2,4.2,1,5.9,2.3
			c1.7,1.2,3,2.8,3.7,4.7c0.3,0.5,0.3,1.1,0.3,1.7c-0.1,0.6-0.4,1.1-0.8,1.5c-0.4,0.4-0.9,0.7-1.5,0.8c-0.6,0.1-1.2,0-1.7-0.3
			l-0.6-0.3c-1.1-0.5-2.2-1-3.3-1.4c-1-0.3-2-0.6-3-0.7c-1.1-0.2-2.3-0.2-3.4-0.2c-0.6,0-1.3,0-1.9,0.1c-0.7,0.1-1.4,0.1-2,0
			l-1.1-0.1c-0.7-0.1-1.4-0.4-1.9-1c-0.5-0.6-0.7-1.3-0.6-2C107.3,218.1,107.6,217.4,108.1,217z"/>
		<path class="st2" d="M85,251.7c-0.5,0-0.9-0.1-1.3-0.3c-1.6-0.7-3.3-1.1-5-1.1c-1.7,0-3.4,0.4-5,1.1c-0.7,0.4-1.4,0.4-2.2,0.2
			c-0.7-0.2-1.3-0.7-1.7-1.4s-0.4-1.4-0.2-2.2c0.2-0.7,0.7-1.3,1.4-1.7c2.4-1.1,5-1.7,7.6-1.7c2.6,0,5.3,0.6,7.6,1.7
			c0.6,0.3,1,0.8,1.2,1.3c0.3,0.6,0.3,1.2,0.2,1.8c-0.1,0.6-0.5,1.1-1,1.5C86.2,251.5,85.6,251.7,85,251.7z"/>
		<path class="st2" d="M78.6,247.9c5.4,0,9.8-4.4,9.8-9.8s-4.4-9.8-9.8-9.8c-5.4,0-9.8,4.4-9.8,9.8S73.2,247.9,78.6,247.9z"/>
		<path class="st3" d="M81.1,240.5c1.4,0,2.5-1.1,2.5-2.5c0-1.4-1.1-2.5-2.5-2.5c-1.4,0-2.5,1.1-2.5,2.5
			C78.6,239.4,79.7,240.5,81.1,240.5z"/>
		<path class="st2" d="M82.9,221.9c-0.5,0-1.3,0-2,0c-0.6,0-1.3,0-1.9-0.1c-1.1,0-2.3,0-3.4,0.2c-1,0.1-2,0.4-3,0.7
			c-1.1,0.4-2.3,0.9-3.3,1.4l-0.6,0.3c-0.5,0.3-1.1,0.4-1.7,0.3c-0.6-0.1-1.1-0.4-1.5-0.8c-0.4-0.4-0.7-0.9-0.8-1.5
			c-0.1-0.6,0-1.2,0.3-1.7c0.8-1.9,2.1-3.6,3.7-4.7c1.7-1.3,3.8-2.1,5.9-2.3c2-0.2,4-0.1,6,0.5c0.9,0.3,1.8,0.7,2.7,1.1
			c0.9,0.5,1.7,1,2.4,1.7c0.5,0.5,0.9,1.2,0.9,1.9c0,0.7-0.2,1.4-0.7,2c-0.5,0.5-1.1,0.8-1.8,0.9L82.9,221.9z"/>
		<path class="st2" d="M97.3,266.1c-7.2,0-14.2-2.1-20.3-6c-0.3-0.2-0.6-0.5-0.8-0.8c-0.2-0.3-0.4-0.6-0.4-1c-0.1-0.4-0.1-0.7,0-1.1
			c0.1-0.4,0.2-0.7,0.4-1c0.2-0.3,0.5-0.6,0.8-0.8c0.3-0.2,0.6-0.4,1-0.4c0.4-0.1,0.7-0.1,1.1,0c0.4,0.1,0.7,0.2,1,0.4
			c10.3,6.8,24.3,6.8,33.3,0c0.3-0.2,0.6-0.4,1-0.5c0.4-0.1,0.7-0.1,1.1-0.1s0.7,0.2,1,0.4c0.3,0.2,0.6,0.4,0.8,0.7
			c0.2,0.3,0.4,0.6,0.5,1c0.1,0.4,0.1,0.7,0.1,1.1c-0.1,0.4-0.2,0.7-0.4,1c-0.2,0.3-0.4,0.6-0.7,0.8
			C111.1,264,104.3,266.2,97.3,266.1z"/>
		<path class="st2" d="M91,269.9c1.9,0.6,3.9,0.8,5.9,0.9c1,0,2-0.1,3-0.2c1-0.1,1.9-0.3,2.9-0.7c0.2-0.1,0.5-0.1,0.7-0.1
			c0.2,0,0.5,0.1,0.7,0.2s0.4,0.3,0.6,0.4c0.2,0.2,0.3,0.4,0.4,0.6c0.1,0.3,0.1,0.7,0.1,1c-0.1,0.3-0.2,0.6-0.5,0.9l-1,1.1
			c-0.9,0.9-2,1.6-3.2,1.9c-1.2,0.3-2.4,0.5-3.6,0.4c-1.2,0-2.4-0.2-3.5-0.6c-1.2-0.4-2.3-1-3.2-1.8l-1-0.8
			c-0.3-0.3-0.6-0.7-0.6-1.1c-0.1-0.4,0-0.9,0.2-1.3c0.2-0.4,0.6-0.7,1-0.8C90.1,269.7,90.6,269.7,91,269.9z"/>
	</g>
</g>
</svg>
