<?xml version="1.0" encoding="utf-8"?>
<!-- Generator: Adobe Illustrator 26.0.1, SVG Export Plug-In . SVG Version: 6.00 Build 0)  -->
<svg version="1.1" id="CRO_x5F_Hub-Cart_x5F_Abandonment"
	 xmlns="http://www.w3.org/2000/svg" xmlns:xlink="http://www.w3.org/1999/xlink" x="0px" y="0px" viewBox="0 0 400 400"
	 style="enable-background:new 0 0 400 400;" xml:space="preserve">
<style type="text/css">
	.st0{fill:#EF7D7D;}
	.st1{fill:#515979;}
	.st2{fill:#D26E78;}
	.st3{fill:#F4A4A4;}
	.st4{fill:#FFFFFF;}
	.st5{fill:#75A5C3;}
	.st6{clip-path:url(#SVGID_00000167379996573983294850000009480115632699296899_);}
	.st7{fill:#A3816E;}
	.st8{fill:#FFD678;}
	.st9{fill:#FFE3DC;}
	.st10{fill:#FFC8BE;}
	.st11{fill:#7DDF96;}
	.st12{fill:#00C853;}
	.st13{fill:none;}
	.st14{fill:#FFD886;}
</style>
<g>
	<g>
		<g>
			<path class="st0" d="M128.65,380.79c-4.53,0-8.37-3.39-8.93-7.88l-9.34-74.74c-0.11-0.85,0.16-1.71,0.73-2.36
				c0.57-0.65,1.39-1.01,2.25-1.01h166c0.86,0,1.68,0.37,2.25,1.01s0.83,1.5,0.73,2.36l-9.34,74.74c-0.56,4.49-4.4,7.88-8.93,7.88
				H128.65z"/>
		</g>
		<g>
			<g>
				<path class="st1" d="M279.35,297.79l-9.34,74.74c-0.38,3-2.93,5.26-5.95,5.26H128.65c-3.03,0-5.58-2.25-5.95-5.26l-9.34-74.74
					H279.35 M279.35,291.79h-166c-1.72,0-3.36,0.74-4.5,2.03c-1.14,1.29-1.67,3.01-1.46,4.72l9.34,74.74
					c0.75,5.99,5.87,10.51,11.91,10.51h135.41c6.04,0,11.16-4.52,11.91-10.51l9.34-74.74c0.21-1.71-0.32-3.42-1.46-4.72
					C282.71,292.53,281.07,291.79,279.35,291.79L279.35,291.79z M279.35,303.79L279.35,303.79L279.35,303.79L279.35,303.79z"/>
			</g>
		</g>
	</g>
	<g>
		<polygon class="st2" points="113.35,297.79 114.85,309.79 277.85,309.79 279.35,297.79 		"/>
	</g>
	<g>
		<path class="st1" d="M266.35,278.79h-140c-1.21,0-2.31-0.73-2.77-1.85s-0.21-2.41,0.65-3.27l70-70c1.17-1.17,3.07-1.17,4.24,0
			l70,70c0.86,0.86,1.12,2.15,0.65,3.27C268.66,278.06,267.56,278.79,266.35,278.79z M133.59,272.79h125.52l-62.76-62.76
			L133.59,272.79z"/>
	</g>
	<g>
		<g>
			<path class="st0" d="M101.35,294.79c-1.66,0-3-1.34-3-3v-4c0-8.27,6.73-15,15-15h166c8.27,0,15,6.73,15,15v4c0,1.66-1.34,3-3,3
				H101.35z"/>
		</g>
		<g>
			<g>
				<path class="st1" d="M279.35,275.79c6.63,0,12,5.37,12,12v4h-190v-4c0-6.63,5.37-12,12-12H279.35 M279.35,269.79h-166
					c-9.93,0-18,8.07-18,18v4c0,3.31,2.69,6,6,6h190c3.31,0,6-2.69,6-6v-4C297.35,277.86,289.28,269.79,279.35,269.79L279.35,269.79
					z"/>
			</g>
		</g>
	</g>
	<g>
		<path class="st3" d="M279.35,275.79h-166c-3.55,0-6.73,1.55-8.93,4h183.86C286.09,277.34,282.9,275.79,279.35,275.79z"/>
	</g>
	<g>
		<g>
			<circle class="st0" cx="196.35" cy="207.79" r="9"/>
		</g>
		<g>
			<g>
				<path class="st1" d="M196.35,201.79c3.31,0,6,2.69,6,6c0,3.31-2.69,6-6,6s-6-2.69-6-6
					C190.35,204.48,193.04,201.79,196.35,201.79 M196.35,195.79c-6.62,0-12,5.38-12,12s5.38,12,12,12c6.62,0,12-5.38,12-12
					S202.97,195.79,196.35,195.79L196.35,195.79z"/>
			</g>
		</g>
	</g>
	<g>
		<g>
			<path class="st4" d="M248.35,364.79c-3.84,0-6.97-3.11-7-6.94l2-43.93c0-0.04,0-0.09,0-0.14c0-3.86,3.14-7,7-7
				c3.84,0,6.97,3.11,7,6.94l-2,43.93c0,0.04,0,0.09,0,0.14C255.35,361.65,252.21,364.79,248.35,364.79z"/>
		</g>
		<g>
			<path class="st1" d="M250.35,309.79c2.17,0,3.94,1.74,4,3.89l-1.99,43.83c0,0.09-0.01,0.18-0.01,0.27c0,2.21-1.79,4-4,4
				c-2.17,0-3.94-1.74-4-3.89l1.99-43.83c0-0.09,0.01-0.18,0.01-0.27C246.35,311.58,248.15,309.79,250.35,309.79 M250.35,303.79
				c-5.52,0-10,4.48-10,10l-2,44c0,5.52,4.48,10,10,10c5.52,0,10-4.48,10-10l2-44C260.35,308.27,255.87,303.79,250.35,303.79
				L250.35,303.79z"/>
		</g>
	</g>
	<g>
		<g>
			<path class="st4" d="M215.35,364.79c-3.86,0-7-3.14-7-7l1-43.93c0-3.93,3.14-7.07,7-7.07s7,3.14,7,7l-1,43.93
				C222.35,361.65,219.21,364.79,215.35,364.79z"/>
		</g>
		<g>
			<path class="st1" d="M216.35,309.79c2.19,0,3.97,1.77,4,3.95l-1,43.92c0,0.05,0,0.09,0,0.14c0,2.21-1.79,4-4,4
				c-2.19,0-3.97-1.77-4-3.95l1-43.92c0-0.05,0-0.09,0-0.14C212.35,311.58,214.15,309.79,216.35,309.79 M216.35,303.79
				c-5.52,0-10,4.48-10,10l-1,44c0,5.52,4.48,10,10,10s10-4.48,10-10l1-44C226.35,308.27,221.87,303.79,216.35,303.79L216.35,303.79
				z"/>
		</g>
	</g>
	<g>
		<g>
			<path class="st4" d="M144.35,364.79c-3.86,0-7-3.14-7-7c0-0.05,0-0.09,0-0.14l-2-43.93c0.03-3.83,3.16-6.94,7-6.94
				c3.86,0,7,3.14,7,7c0,0.05,0,0.09,0,0.14l2,43.93C151.32,361.68,148.19,364.79,144.35,364.79z"/>
		</g>
		<g>
			<path class="st1" d="M142.35,309.79c2.21,0,4,1.79,4,4c0,0.09,0,0.18,0.01,0.27l1.99,43.83c-0.06,2.16-1.83,3.89-4,3.89
				c-2.21,0-4-1.79-4-4c0-0.09,0-0.18-0.01-0.27l-1.99-43.83C138.41,311.53,140.18,309.79,142.35,309.79 M142.35,303.79
				L142.35,303.79c-5.52,0-10,4.48-10,10l2,44c0,5.52,4.48,10,10,10h0c5.52,0,10-4.48,10-10l-2-44
				C152.35,308.27,147.87,303.79,142.35,303.79L142.35,303.79z"/>
		</g>
	</g>
	<g>
		<g>
			<path class="st4" d="M177.35,364.79c-3.86,0-7-3.14-7-7l-1-44.07c0-3.79,3.14-6.93,7-6.93s7,3.14,7,7l1,44.07
				C184.35,361.65,181.21,364.79,177.35,364.79z"/>
		</g>
		<g>
			<path class="st1" d="M176.35,309.79c2.21,0,4,1.79,4,4c0,0.05,0,0.09,0,0.14l1,43.92c-0.03,2.18-1.81,3.95-4,3.95
				c-2.21,0-4-1.79-4-4c0-0.05,0-0.09,0-0.14l-1-43.92C172.38,311.56,174.16,309.79,176.35,309.79 M176.35,303.79L176.35,303.79
				c-5.52,0-10,4.48-10,10l1,44c0,5.52,4.48,10,10,10h0c5.52,0,10-4.48,10-10l-1-44C186.35,308.27,181.87,303.79,176.35,303.79
				L176.35,303.79z"/>
		</g>
	</g>
</g>
<g>
	<g>
		<circle class="st5" cx="82.07" cy="165.67" r="70"/>
		<path class="st1" d="M82.07,238.67c-40.25,0-73-32.75-73-73s32.75-73,73-73s73,32.75,73,73S122.32,238.67,82.07,238.67z
			 M82.07,98.67c-36.94,0-67,30.06-67,67s30.06,67,67,67s67-30.06,67-67S119.02,98.67,82.07,98.67z"/>
	</g>
	<g>
		<defs>
			<path id="SVGID_1_" d="M12.07,35.67v130c0,38.66,31.34,70,70,70s70-31.34,70-70v-130H12.07z"/>
		</defs>
		<clipPath id="SVGID_00000106140697833528009150000003409886985792730044_">
			<use xlink:href="#SVGID_1_"  style="overflow:visible;"/>
		</clipPath>
		<g style="clip-path:url(#SVGID_00000106140697833528009150000003409886985792730044_);">
			<g>
				<g>
					<path class="st7" d="M51.2,133.35c-0.28,0-0.57-0.04-0.85-0.12l-12.47-3.68c-0.65-0.19-1.22-0.6-1.61-1.16
						c-0.68-0.97-16.45-24-5.83-43.45c4.74-8.68,11.55-10.5,16.42-10.5c5.5,0,9.87,2.33,10.06,2.43c1.05,0.57,1.66,1.7,1.56,2.89
						l-4.29,50.85c-0.08,0.9-0.55,1.72-1.3,2.22C52.39,133.18,51.8,133.35,51.2,133.35z"/>
				</g>
				<g>
					<path class="st1" d="M46.86,77.44c4.8,0,8.63,2.07,8.63,2.07l-4.29,50.85l-12.47-3.68c0,0-15.51-22.25-5.66-40.29
						C36.95,79.27,42.34,77.44,46.86,77.44 M46.86,71.44c-8.04,0-14.81,4.28-19.06,12.06c-11.49,21.06,5.28,45.57,6,46.6
						c0.78,1.12,1.92,1.94,3.22,2.32l12.47,3.68c0.56,0.16,1.13,0.25,1.7,0.25c1.2,0,2.38-0.36,3.39-1.05
						c1.49-1.02,2.44-2.65,2.59-4.45l4.29-50.85c0.2-2.38-1.03-4.65-3.13-5.78C57.81,73.94,53,71.44,46.86,71.44L46.86,71.44z"/>
				</g>
			</g>
			<g>
				<g>
					<path class="st7" d="M112.09,133.35c-0.6,0-1.19-0.18-1.69-0.52c-0.74-0.51-1.22-1.33-1.3-2.22l-4.29-50.85
						c-0.1-1.19,0.51-2.32,1.56-2.89c0.18-0.1,4.56-2.43,10.06-2.43c4.88,0,11.69,1.82,16.42,10.5c4.44,8.13,4.81,18.27,1.07,29.31
						c-2.75,8.13-6.73,13.89-6.9,14.13c-0.39,0.56-0.96,0.97-1.61,1.16l-12.47,3.68C112.66,133.31,112.37,133.35,112.09,133.35z"/>
				</g>
				<g>
					<path class="st1" d="M116.43,77.44c4.52,0,9.91,1.83,13.79,8.94c9.85,18.04-5.66,40.29-5.66,40.29l-12.47,3.68l-4.29-50.85
						C107.8,79.51,111.63,77.44,116.43,77.44 M116.43,71.44C116.43,71.44,116.43,71.44,116.43,71.44c-6.14,0-10.95,2.5-11.48,2.79
						c-2.1,1.13-3.33,3.41-3.13,5.78l4.29,50.85c0.15,1.8,1.1,3.43,2.59,4.45c1.01,0.69,2.19,1.05,3.39,1.05
						c0.57,0,1.14-0.08,1.7-0.25l12.47-3.68c1.31-0.39,2.44-1.21,3.22-2.32c0.72-1.03,17.5-25.54,6-46.6
						C131.24,75.73,124.47,71.44,116.43,71.44L116.43,71.44z"/>
				</g>
			</g>
			<g>
				<g>
					<path class="st8" d="M-0.93,275.67v-34.52c0-19.29,12.99-36.34,31.6-41.46l51.4-14.13l51.4,14.13
						c18.6,5.12,31.6,22.17,31.6,41.46v34.52H-0.93z"/>
				</g>
				<g>
					<g>
						<path class="st1" d="M82.07,188.67l50.61,13.92c17.36,4.77,29.39,20.56,29.39,38.57v31.52h-160v-31.52
							c0-18.01,12.03-33.79,29.39-38.57L82.07,188.67 M82.07,182.45l-1.59,0.44L29.88,196.8c-19.9,5.47-33.8,23.71-33.8,44.35v31.52
							v6h6h160h6v-6v-31.52c0-20.64-13.9-38.88-33.8-44.35l-50.61-13.92L82.07,182.45L82.07,182.45z"/>
					</g>
				</g>
			</g>
			<g>
				<g>
					<path class="st9" d="M82.07,224.67c-9.93,0-18-8.08-18-18v-35c0-1.66,1.34-3,3-3h30c1.66,0,3,1.34,3,3v35
						C100.07,216.6,92,224.67,82.07,224.67z"/>
				</g>
				<g>
					<path class="st1" d="M97.07,171.67v35c0,8.28-6.72,15-15,15h0c-8.28,0-15-6.72-15-15v-35H97.07 M97.07,165.67h-30
						c-3.31,0-6,2.69-6,6v35c0,11.58,9.42,21,21,21c11.58,0,21-9.42,21-21v-35C103.07,168.36,100.39,165.67,97.07,165.67
						L97.07,165.67z"/>
				</g>
			</g>
			<g>
				<path class="st10" d="M67.07,177.67v25.16c4.65,1.83,9.7,2.84,15,2.84h0c5.3,0,10.35-1.02,15-2.84v-25.16H67.07z"/>
			</g>
			<g>
				<path class="st1" d="M80.07,202.17c-1.38,0-2.5-1.12-2.5-2.5c0-1.38,1.12-2.5,2.5-2.5c1.93,0,3.5-1.57,3.5-3.5
					s-1.57-3.5-3.5-3.5c-1.38,0-2.5-1.12-2.5-2.5s1.12-2.5,2.5-2.5c4.69,0,8.5,3.81,8.5,8.5S84.76,202.17,80.07,202.17z"/>
			</g>
			<g>
				<g>
					<path class="st9" d="M126.07,145.67c-1.66,0-3-1.34-3-3v-22c0-1.66,1.34-3,3-3c7.17,0,13,5.83,13,13v2
						C139.07,139.84,133.24,145.67,126.07,145.67z"/>
				</g>
				<g>
					<g>
						<path class="st1" d="M126.07,120.67c5.52,0,10,4.48,10,10v2c0,5.52-4.48,10-10,10h0L126.07,120.67L126.07,120.67
							 M126.07,114.67c-3.31,0-6,2.69-6,6l0,22c0,1.59,0.63,3.12,1.76,4.24c1.13,1.13,2.65,1.76,4.24,1.76c8.82,0,16-7.18,16-16v-2
							C142.07,121.85,134.89,114.67,126.07,114.67L126.07,114.67z"/>
					</g>
				</g>
			</g>
			<g>
				<g>
					<path class="st10" d="M38.07,145.67c-7.17,0-13-5.83-13-13v-2c0-7.17,5.83-13,13-13c1.66,0,3,1.34,3,3v22
						C41.07,144.33,39.73,145.67,38.07,145.67z"/>
				</g>
				<g>
					<g>
						<path class="st1" d="M38.07,120.67v22h0c-5.52,0-10-4.48-10-10v-2C28.07,125.15,32.55,120.67,38.07,120.67L38.07,120.67
							 M38.07,114.67c-8.82,0-16,7.18-16,16v2c0,8.82,7.18,16,16,16c3.31,0,6-2.69,6-6l0-22c0-1.59-0.63-3.12-1.76-4.24
							C41.19,115.31,39.66,114.67,38.07,114.67L38.07,114.67z"/>
					</g>
				</g>
			</g>
			<g>
				<g>
					<path class="st9" d="M82.07,181.67c-24.26,0-44-19.74-44-44v-30c0-24.26,19.74-44,44-44s44,19.74,44,44v30
						C126.07,161.93,106.33,181.67,82.07,181.67z"/>
				</g>
				<g>
					<path class="st1" d="M82.07,66.67c22.64,0,41,18.36,41,41v30c0,22.64-18.36,41-41,41h0c-22.64,0-41-18.36-41-41v-30
						C41.07,85.03,59.43,66.67,82.07,66.67L82.07,66.67 M82.07,60.67c-25.92,0-47,21.08-47,47v30c0,25.92,21.08,47,47,47
						c25.92,0,47-21.08,47-47v-30C129.07,81.76,107.99,60.67,82.07,60.67L82.07,60.67z"/>
				</g>
			</g>
			<g>
				<path class="st10" d="M49.07,137.67v-30c0-21.29,16.23-38.79,37-40.8c-1.32-0.13-2.65-0.2-4-0.2c-22.64,0-41,18.36-41,41v30
					c0,22.64,18.36,41,41,41c1.35,0,2.68-0.07,4-0.2C65.31,176.47,49.07,158.97,49.07,137.67z"/>
			</g>
			<g>
				<path class="st1" d="M94.7,106.12c4.66-3.09,11.11-3.41,15.79-0.04c2.4,1.72,5.7,6.58,1.71,8.21c-0.97,0.34-1.89-0.03-2.71-0.48
					c-2.11-1.13-3.48-1.65-5.73-2.07c-2.5-0.47-5.51-0.25-8.06-0.75C93.39,110.59,92.75,107.39,94.7,106.12L94.7,106.12z"/>
			</g>
			<g>
				<path class="st1" d="M68.24,111.24c-4.56,0.34-8.95,0.22-13,2.67c0,0-0.69,0.34-0.69,0.34c-1.34,0.66-2.97,0.1-3.63-1.24
					c-1.02-2.38,1.44-5.38,3.32-6.82c3.15-2.34,7.29-2.83,10.93-2.03c2.56,0.62,7.65,2.32,5.56,5.82
					C70.17,110.84,69.18,111.1,68.24,111.24L68.24,111.24z"/>
			</g>
			<g>
				<g>
					<circle class="st1" cx="102.07" cy="119.67" r="6"/>
				</g>
				<g>
					<circle class="st4" cx="104.07" cy="119.67" r="1.5"/>
				</g>
				<g>
					<path class="st1" d="M106.07,128.67c-0.35,0-0.71-0.09-1.03-0.29c-1.58-0.95-4.35-0.95-5.93,0c-0.95,0.57-2.18,0.27-2.75-0.68
						c-0.57-0.95-0.27-2.18,0.68-2.75c2.82-1.7,7.25-1.7,10.07,0c0.95,0.57,1.25,1.8,0.68,2.75
						C107.41,128.33,106.75,128.67,106.07,128.67z"/>
				</g>
			</g>
			<g>
				<g>
					<circle class="st1" cx="62.07" cy="119.67" r="6"/>
				</g>
				<g>
					<path class="st1" d="M66.07,128.67c-0.35,0-0.71-0.09-1.03-0.29c-1.58-0.95-4.35-0.95-5.93,0c-0.95,0.57-2.17,0.27-2.75-0.68
						c-0.57-0.95-0.27-2.18,0.68-2.75c2.82-1.7,7.25-1.7,10.07,0c0.95,0.57,1.25,1.8,0.68,2.75
						C67.41,128.33,66.75,128.67,66.07,128.67z"/>
				</g>
				<g>
					<circle class="st4" cx="64.07" cy="119.67" r="1.5"/>
				</g>
			</g>
			<g>
				<g>
					<path class="st7" d="M82.07,186.67c-16.91,0-40.43-16.26-40.43-32.26c0-0.47,0.11-0.93,0.32-1.35
						c4.38-8.67,19.78-15.39,30.1-15.39c3.36,0,6.72,0.39,10,1.15c3.28-0.76,6.64-1.15,10-1.15c9.9,0,25.5,6.88,30.04,15.42
						c0.23,0.43,0.35,0.92,0.35,1.41c0,7.91-5.22,16.2-14.31,22.76C100.08,183.07,90.09,186.67,82.07,186.67z"/>
				</g>
				<g>
					<g>
						<path class="st1" d="M92.07,140.67c9.45,0,23.56,6.62,27.39,13.83c0,15.3-22.39,29.17-37.39,29.17c-15,0-37.43-15-37.43-29.26
							c3.77-7.45,17.94-13.74,27.43-13.74h0c3.45,0,6.8,0.43,10,1.23C85.27,141.1,88.62,140.67,92.07,140.67L92.07,140.67
							 M92.07,134.67c-3.36,0-6.72,0.36-10,1.07c-3.28-0.71-6.64-1.07-10-1.07c-5.57,0-12.3,1.7-18.46,4.67
							c-3.98,1.92-11.14,6.07-14.32,12.37c-0.42,0.84-0.64,1.77-0.64,2.71c0,8.47,5.66,17.51,15.52,24.8
							c8.86,6.55,19.29,10.46,27.91,10.46c8.61,0,19.28-3.83,27.83-9.98c10.03-7.23,15.56-16.17,15.56-25.19
							c0-0.98-0.24-1.95-0.7-2.81C119.59,141.95,103.24,134.67,92.07,134.67L92.07,134.67z"/>
					</g>
				</g>
			</g>
			<g>
				<path class="st10" d="M90.07,131.67c0,4.42-3.58,8-8,8h0c-4.42,0-8-3.58-8-8L90.07,131.67z"/>
			</g>
			<g>
				<path class="st1" d="M82.07,142.17c-5.79,0-10.5-4.71-10.5-10.5v-13c0-1.38,1.12-2.5,2.5-2.5s2.5,1.12,2.5,2.5v13
					c0,3.03,2.47,5.5,5.5,5.5s5.5-2.47,5.5-5.5v-13c0-1.38,1.12-2.5,2.5-2.5s2.5,1.12,2.5,2.5v13
					C92.57,137.46,87.86,142.17,82.07,142.17z"/>
			</g>
			<g>
				<path class="st7" d="M103.98,171.67c-1.01,11.21-10.43,20-21.91,20h0c-11.48,0-20.9-8.79-21.91-20"/>
				<path class="st1" d="M82.07,194.67c-13.03,0-23.73-9.77-24.9-22.73c-0.15-1.65,1.07-3.11,2.72-3.26
					c1.65-0.15,3.11,1.07,3.26,2.72c0.89,9.84,9.02,17.27,18.92,17.27s18.04-7.42,18.92-17.27c0.15-1.65,1.61-2.87,3.26-2.72
					c1.65,0.15,2.87,1.61,2.72,3.26C105.8,184.9,95.1,194.67,82.07,194.67z"/>
			</g>
			<g>
				<g>
					<path class="st7" d="M91.47,95.45c-22.71,0-37.09-16.84-37.7-17.56c-0.73-0.87-0.9-2.07-0.46-3.11
						c5.69-13.29,15.75-20.31,29.07-20.31c22.21,0,46.52,19.03,47.55,19.84c0.7,0.55,1.12,1.39,1.14,2.28
						c0.02,0.89-0.36,1.75-1.03,2.33C117.44,89.9,104.46,95.45,91.47,95.45C91.47,95.45,91.47,95.45,91.47,95.45z"/>
				</g>
				<g>
					<path class="st1" d="M82.39,57.48c21.42,0,45.69,19.19,45.69,19.19c-13.59,11.82-26.03,15.78-36.6,15.78
						c-21.57,0-35.4-16.48-35.4-16.48C62.01,62.12,71.85,57.48,82.39,57.48 M82.39,51.48c-14.62,0-25.63,7.65-31.83,22.13
						c-0.89,2.08-0.54,4.49,0.92,6.22c0.64,0.76,15.9,18.63,39.99,18.63c13.74,0,27.38-5.8,40.54-17.25
						c1.35-1.17,2.1-2.88,2.06-4.67c-0.04-1.78-0.88-3.46-2.28-4.57C130.74,71.13,105.62,51.48,82.39,51.48L82.39,51.48z"/>
				</g>
			</g>
			<g>
				<path class="st1" d="M92.59,84.91c-15.81,0-25.55-7.78-26.11-8.24c-1.07-0.88-1.22-2.45-0.35-3.52
					c0.87-1.07,2.45-1.22,3.51-0.35c0.69,0.56,17.26,13.63,42.53,2.87c1.27-0.54,2.74,0.05,3.28,1.32c0.54,1.27-0.05,2.74-1.32,3.28
					C106.13,83.68,98.88,84.91,92.59,84.91z"/>
			</g>
			<path class="st1" d="M94.08,149.67L94.08,149.67H70.07c-2.21,0-4,1.79-4,4c0,8.82,7.18,16,16,16c8.77,0,15.91-7.09,16-15.84
				c0-0.05,0-0.11,0-0.16C98.07,151.46,96.29,149.67,94.08,149.67z"/>
			<g>
				<g>
					<g>
						<path class="st1" d="M77.89,174.21c2.03,0.62,4.2,0.77,6.29,0.46c1.26-0.04,3.12-1.31,3.76,0.4c0.33,0.91-0.46,1.53-1.04,2.06
							c-0.69,0.66-1.48,1.05-2.3,1.31c-2.47,0.75-5.35,0.46-7.35-1.31c0,0-0.69-0.65-0.69-0.65
							C75.5,175.53,76.57,173.76,77.89,174.21L77.89,174.21z"/>
					</g>
				</g>
			</g>
			<g>
				<path class="st7" d="M64.07,153.67c0,0,12.99-2.21,18-6c5.01,3.79,17.6,6.02,18,6v-7.01l-18-3.26l-18,3.42V153.67z"/>
			</g>
			<g>
				<path class="st1" d="M64.07,155.67c-0.96,0-1.8-0.69-1.97-1.66c-0.19-1.09,0.55-2.12,1.63-2.31c3.48-0.59,13.34-2.76,17.13-5.62
					c0.71-0.54,1.7-0.54,2.41,0c4.39,3.32,15.77,5.46,16.91,5.6c1.02,0.06,1.84,0.88,1.89,1.92c0.04,1.1-0.81,2.03-1.92,2.08
					c-0.01,0-0.01,0-0.02,0c-0.96,0-12.17-2.02-18.06-5.59c-5.87,3.52-17.15,5.48-17.66,5.57
					C64.29,155.66,64.18,155.67,64.07,155.67z"/>
			</g>
			<g>
				<path class="st1" d="M51.07,76.17c-0.99,0-1.93-0.59-2.32-1.57l-4-10c-0.51-1.28,0.11-2.74,1.39-3.25
					c1.28-0.51,2.74,0.11,3.25,1.39l4,10c0.51,1.28-0.11,2.74-1.39,3.25C51.7,76.12,51.38,76.17,51.07,76.17z"/>
			</g>
			<g>
				<ellipse class="st0" cx="82.07" cy="161.67" rx="8.93" ry="4"/>
			</g>
		</g>
	</g>
	<g>
		<path class="st1" d="M82.07,238.67c-40.25,0-73-32.75-73-73h6c0,36.94,30.06,67,67,67s67-30.06,67-67h6
			C155.07,205.93,122.32,238.67,82.07,238.67z"/>
	</g>
</g>
<g>
	<g>
		<g>
			<g>
				<g>
					<path class="st11" d="M288.65,165.79c-1.66-0.37-3-2.08-3-3.73c0-15.79,0-31.58,0-47.37c0-1.66,1.34-2.63,3-2.27
						c33.33,7.38,66.67-10.6,100-3.23c1.66,0.37,3,2.08,3,3.73c0,15.79,0,31.58,0,47.37c0,1.66-1.34,2.63-3,2.27
						C355.32,155.19,321.98,173.17,288.65,165.79z"/>
				</g>
				<g>
					<path class="st1" d="M388.65,112.2c0,15.79,0,31.58,0,47.37c-33.33-7.38-66.67,10.6-100,3.23c0-15.79,0-31.58,0-47.37
						C321.98,122.8,355.32,104.82,388.65,112.2 M388.65,106.2c-33.33-7.38-66.67,10.6-100,3.23c-3.31-0.73-6,1.07-6,4.39
						c0,15.79,0,31.58,0,47.37c0,3.31,2.69,6.89,6,7.61c33.33,7.38,66.67-10.6,100-3.23c3.31,0.73,6-1.07,6-4.39
						c0-15.79,0-31.58,0-47.37C394.65,110.5,391.97,106.92,388.65,106.2L388.65,106.2z"/>
				</g>
			</g>
			<g>
				<path class="st12" d="M384.44,146.66c0-7.72,0-15.44,0-23.16c-4.36-0.7-7.89-4.38-7.89-8.75c-25.26-1.5-50.53,8.03-75.79,6.53
					c0,4.35-3.53,7.74-7.89,7.04c0,7.72,0,15.44,0,23.16c4.36,0.7,7.89,4.38,7.89,8.75c25.26,1.5,50.53-8.03,75.79-6.53
					C376.55,149.35,380.08,145.96,384.44,146.66z"/>
			</g>
			<g>
				<g>
					<path class="st11" d="M357.07,134.88c0,12.17-8.25,23.03-18.42,24.72c-10.17,1.69-18.42-7.25-18.42-19.49
						c0-12.17,8.25-23.03,18.42-24.72C348.82,113.7,357.07,122.64,357.07,134.88z"/>
				</g>
			</g>
			<g>
				<g>
					<path class="st11" d="M312.86,140.73c0,3.77-2.83,7.03-6.32,7.04c-3.49,0.01-6.32-3.26-6.32-7.04c0-3.78,2.83-6.63,6.32-6.65
						C310.03,134.07,312.86,136.94,312.86,140.73z"/>
				</g>
			</g>
			<g>
				<g>
					<path class="st11" d="M377.07,134.26c0,3.78-2.83,6.63-6.32,6.65c-3.49,0.01-6.32-2.86-6.32-6.65c0-3.77,2.83-7.03,6.32-7.04
						C374.24,127.21,377.07,130.48,377.07,134.26z"/>
				</g>
			</g>
			<g>
				<g>
					<path class="st12" d="M341.94,140.23c0-1.2-1.17-1.41-3.54-1.27c-4.11,0.18-7.41-0.13-7.65-5.05c0-3.15,2.01-5.61,5.73-6.8
						c0-0.77,0-1.54,0-2.31c1.5-0.24,3-0.48,4.5-0.71c0,0.77,0,1.54,0,2.31c2.43,0.04,4.14,1.06,5.16,3.1
						c0.06,0.08,0.09,0.14,0.12,0.22c0.1,0.21,0.2,0.41,0.3,0.62c-1.46,0.88-2.92,1.76-4.38,2.65c-0.15-0.27-0.3-0.53-0.45-0.8
						c-0.6-1.08-1.38-1.52-3.03-1.26c-2.13,0.34-3.03,0.93-3.03,2.22c0,1.11,1.26,1.33,3.57,1.2c3.96-0.22,7.56,0.14,7.56,5.04
						c0,3.21-2.1,5.74-5.82,7.02c0,0.8,0,1.6,0,2.4c-1.5,0.24-3,0.48-4.5,0.71c0-0.78,0-1.56,0-2.34c-2.94,0.02-4.86-1.16-5.79-3.48
						c-0.11-0.28-0.22-0.57-0.33-0.85c1.5-0.75,3-1.51,4.5-2.28c0.12,0.27,0.24,0.54,0.36,0.81c0.48,1.16,1.59,1.58,3.3,1.31
						C340.8,142.33,341.94,141.52,341.94,140.23z"/>
				</g>
			</g>
		</g>
	</g>
</g>
<g>
	<g>
		<g>
			<g>
				<g>
					<path class="st11" d="M242.86,93.35c-1.66-0.37-3-2.08-3-3.73c0-15.79,0-31.58,0-47.37c0-1.66,1.34-2.63,3-2.27
						c33.33,7.38,66.67-10.6,100-3.23c1.66,0.37,3,2.08,3,3.73c0,15.79,0,31.58,0,47.37c0,1.66-1.34,2.63-3,2.27
						C309.53,82.75,276.2,100.73,242.86,93.35z"/>
				</g>
				<g>
					<path class="st1" d="M342.86,39.76c0,15.79,0,31.58,0,47.37c-33.33-7.38-66.67,10.6-100,3.23c0-15.79,0-31.58,0-47.37
						C276.2,50.36,309.53,32.38,342.86,39.76 M342.86,33.76c-33.33-7.38-66.67,10.6-100,3.23c-3.31-0.73-6,1.07-6,4.39
						c0,15.79,0,31.58,0,47.37c0,3.31,2.69,6.89,6,7.61c33.33,7.38,66.67-10.6,100-3.23c3.31,0.73,6-1.07,6-4.39
						c0-15.79,0-31.58,0-47.37C348.86,38.06,346.18,34.49,342.86,33.76L342.86,33.76z"/>
				</g>
			</g>
			<g>
				<path class="st12" d="M338.65,74.22c0-7.72,0-15.44,0-23.16c-4.36-0.7-7.89-4.38-7.89-8.75c-25.26-1.5-50.53,8.03-75.79,6.53
					c0,4.35-3.53,7.74-7.89,7.04c0,7.72,0,15.44,0,23.16c4.36,0.7,7.89,4.38,7.89,8.75c25.26,1.5,50.53-8.03,75.79-6.53
					C330.76,76.91,334.29,73.52,338.65,74.22z"/>
			</g>
			<g>
				<g>
					<path class="st11" d="M311.28,62.44c0,12.17-8.25,23.03-18.42,24.72c-10.17,1.69-18.42-7.25-18.42-19.49
						c0-12.17,8.25-23.03,18.42-24.72C303.04,41.26,311.28,50.2,311.28,62.44z"/>
				</g>
			</g>
			<g>
				<g>
					<path class="st11" d="M267.07,68.29c0,3.77-2.83,7.03-6.32,7.04c-3.49,0.01-6.32-3.26-6.32-7.04c0-3.78,2.83-6.63,6.32-6.65
						C264.24,61.64,267.07,64.51,267.07,68.29z"/>
				</g>
			</g>
			<g>
				<g>
					<path class="st11" d="M331.28,61.82c0,3.78-2.83,6.63-6.32,6.65c-3.49,0.01-6.32-2.86-6.32-6.65c0-3.77,2.83-7.03,6.32-7.04
						C328.45,54.77,331.28,58.05,331.28,61.82z"/>
				</g>
			</g>
			<g>
				<g>
					<path class="st12" d="M296.15,67.79c0-1.2-1.17-1.41-3.54-1.27c-4.11,0.18-7.41-0.13-7.65-5.05c0-3.15,2.01-5.61,5.73-6.8
						c0-0.77,0-1.54,0-2.31c1.5-0.24,3-0.48,4.5-0.71c0,0.77,0,1.54,0,2.31c2.43,0.04,4.14,1.06,5.16,3.1
						c0.06,0.08,0.09,0.14,0.12,0.22c0.1,0.2,0.2,0.41,0.3,0.62c-1.46,0.88-2.92,1.76-4.38,2.65c-0.15-0.27-0.3-0.53-0.45-0.8
						c-0.6-1.08-1.38-1.52-3.03-1.26c-2.13,0.34-3.03,0.93-3.03,2.22c0,1.11,1.26,1.33,3.57,1.2c3.96-0.22,7.56,0.14,7.56,5.04
						c0,3.21-2.1,5.74-5.82,7.02c0,0.8,0,1.6,0,2.4c-1.5,0.24-3,0.48-4.5,0.71c0-0.78,0-1.56,0-2.34c-2.94,0.02-4.86-1.16-5.79-3.48
						c-0.11-0.28-0.22-0.57-0.33-0.85c1.5-0.75,3-1.51,4.5-2.28c0.12,0.27,0.24,0.54,0.36,0.81c0.48,1.16,1.59,1.58,3.3,1.31
						C295.01,69.89,296.15,69.08,296.15,67.79z"/>
				</g>
			</g>
		</g>
	</g>
</g>
<g>
	<g>
		<path class="st1" d="M258.83,128.18c-5.41,0-10.67-2.01-15.55-3.88c-8.1-3.1-15.1-5.78-22.1-0.42c-1.31,1.01-3.2,0.76-4.21-0.56
			c-1.01-1.32-0.76-3.2,0.56-4.21c9.67-7.4,19.35-3.69,27.9-0.42c8.1,3.1,15.1,5.78,22.1,0.42c1.31-1.01,3.2-0.76,4.21,0.56
			c1.01,1.32,0.76,3.2-0.56,4.21C267.04,127.05,262.89,128.18,258.83,128.18z"/>
	</g>
	<g>
		<path class="st1" d="M258.83,144.18c-5.41,0-10.67-2.01-15.55-3.88c-8.1-3.1-15.1-5.78-22.1-0.42c-1.31,1.01-3.2,0.76-4.21-0.56
			c-1.01-1.32-0.76-3.2,0.56-4.21c9.67-7.4,19.35-3.69,27.9-0.42c8.1,3.1,15.1,5.78,22.1,0.42c1.31-1.01,3.2-0.76,4.21,0.56
			c1.01,1.32,0.76,3.2-0.56,4.21C267.04,143.05,262.89,144.18,258.83,144.18z"/>
	</g>
	<g>
		<path class="st1" d="M258.83,160.18c-5.41,0-10.67-2.01-15.55-3.88c-8.1-3.1-15.1-5.78-22.1-0.42c-1.31,1.01-3.2,0.76-4.21-0.56
			c-1.01-1.32-0.76-3.2,0.56-4.21c9.67-7.4,19.35-3.69,27.9-0.42c8.1,3.1,15.1,5.78,22.1,0.42c1.31-1.01,3.2-0.76,4.21,0.56
			c1.01,1.32,0.76,3.2-0.56,4.21C267.04,159.05,262.89,160.18,258.83,160.18z"/>
	</g>
</g>
<g>
	<g>
		<path class="st1" d="M210.83,55.74c-5.41,0-10.67-2.01-15.55-3.88c-8.1-3.1-15.1-5.78-22.1-0.42c-1.31,1.01-3.2,0.76-4.21-0.56
			c-1.01-1.32-0.76-3.2,0.56-4.21c9.67-7.4,19.35-3.69,27.9-0.42c8.1,3.1,15.1,5.78,22.1,0.42c1.31-1.01,3.2-0.76,4.21,0.56
			c1.01,1.32,0.76,3.2-0.56,4.21C219.04,54.61,214.89,55.74,210.83,55.74z"/>
	</g>
	<g>
		<path class="st1" d="M210.83,71.74c-5.41,0-10.67-2.01-15.55-3.88c-8.1-3.1-15.1-5.78-22.1-0.42c-1.31,1.01-3.2,0.76-4.21-0.56
			c-1.01-1.32-0.76-3.2,0.56-4.21c9.67-7.4,19.35-3.69,27.9-0.42c8.1,3.1,15.1,5.78,22.1,0.42c1.31-1.01,3.2-0.76,4.21,0.56
			c1.01,1.32,0.76,3.2-0.56,4.21C219.04,70.61,214.89,71.74,210.83,71.74z"/>
	</g>
	<g>
		<path class="st1" d="M210.83,87.74c-5.41,0-10.67-2.01-15.55-3.88c-8.1-3.1-15.1-5.78-22.1-0.42c-1.31,1.01-3.2,0.76-4.21-0.56
			c-1.01-1.32-0.76-3.2,0.56-4.21c9.67-7.4,19.35-3.69,27.9-0.42c8.1,3.1,15.1,5.79,22.1,0.42c1.31-1.01,3.2-0.76,4.21,0.56
			c1.01,1.32,0.76,3.2-0.56,4.21C219.04,86.61,214.89,87.74,210.83,87.74z"/>
	</g>
</g>
<g>
	<g>
		<rect y="0.67" class="st13" width="400" height="400"/>
	</g>
</g>
<g>
	<circle class="st14" cx="370.76" cy="300.29" r="3.5"/>
</g>
<g>
	<circle class="st14" cx="360.57" cy="254.66" r="3.5"/>
</g>
<g>
	<circle class="st14" cx="104.42" cy="20.24" r="3.5"/>
</g>
<g>
	<circle class="st14" cx="300.23" cy="207.79" r="3.5"/>
</g>
<g>
	<circle class="st14" cx="34.47" cy="367.79" r="3.5"/>
</g>
<g>
	<circle class="st14" cx="306.55" cy="244.29" r="3.5"/>
</g>
<g>
	<circle class="st14" cx="132.35" cy="39.17" r="3.5"/>
</g>
<path class="st14" d="M364.75,347.94h-6v-6c0-1.66-1.34-3-3-3s-3,1.34-3,3v6h-6c-1.66,0-3,1.34-3,3s1.34,3,3,3h6v6
	c0,1.66,1.34,3,3,3s3-1.34,3-3v-6h6c1.66,0,3-1.34,3-3S366.41,347.94,364.75,347.94z"/>
<g>
	<circle class="st14" cx="50.07" cy="296.79" r="4.5"/>
</g>
<g>
	<circle class="st14" cx="338.65" cy="213.79" r="4.5"/>
</g>
<g>
	<circle class="st14" cx="161.85" cy="16.74" r="4.5"/>
</g>
<g>
	<path class="st14" d="M75.6,333.99c-2.98,0-5.4-2.42-5.4-5.4c0-0.99-0.81-1.8-1.8-1.8c-0.99,0-1.8,0.81-1.8,1.8
		c0,2.98-2.42,5.4-5.4,5.4c-0.99,0-1.8,0.81-1.8,1.8c0,0.99,0.81,1.8,1.8,1.8c2.98,0,5.4,2.42,5.4,5.4c0,0.99,0.81,1.8,1.8,1.8
		c0.99,0,1.8-0.81,1.8-1.8c0-2.98,2.42-5.4,5.4-5.4c0.99,0,1.8-0.81,1.8-1.8C77.4,334.8,76.59,333.99,75.6,333.99z"/>
</g>
<g>
	<path class="st14" d="M256.55,198.87c-2.98,0-5.4-2.42-5.4-5.4c0-0.99-0.81-1.8-1.8-1.8c-0.99,0-1.8,0.81-1.8,1.8
		c0,2.98-2.42,5.4-5.4,5.4c-0.99,0-1.8,0.81-1.8,1.8s0.81,1.8,1.8,1.8c2.98,0,5.4,2.42,5.4,5.4c0,0.99,0.81,1.8,1.8,1.8
		c0.99,0,1.8-0.81,1.8-1.8c0-2.98,2.42-5.4,5.4-5.4c0.99,0,1.8-0.81,1.8-1.8S257.55,198.87,256.55,198.87z"/>
</g>
</svg>
