<?xml version="1.0" encoding="utf-8"?>
<!-- Generator: Adobe Illustrator 26.0.2, SVG Export Plug-In . SVG Version: 6.00 Build 0)  -->
<svg version="1.1" id="Landing_x5F_Page_x5F_Hub-Landing_x5F_Page_x5F_Hacks"
	 xmlns="http://www.w3.org/2000/svg" xmlns:xlink="http://www.w3.org/1999/xlink" x="0px" y="0px" viewBox="0 0 400 400"
	 style="enable-background:new 0 0 400 400;" xml:space="preserve">
<style type="text/css">
	.st0{fill:#EEECFF;}
	.st1{fill:#DDD9FF;}
	.st2{fill:#CCC6FF;}
	.st3{fill:none;}
	.st4{fill:#FFD886;}
	.st5{fill:#FFFFFF;}
	.st6{fill:#515979;}
	.st7{fill:#7DDF96;}
	.st8{fill:#667683;}
	.st9{fill:#EF7D7D;}
	.st10{fill:#FFE8A0;}
	.st11{fill:#CEEDD9;}
	.st12{fill:#3CB48C;}
	.st13{fill:#5F87A5;}
	.st14{fill:#507396;}
	.st15{fill:#D8EBFB;}
</style>
<g>
	<g>
		<circle class="st0" cx="200" cy="198.37" r="170"/>
	</g>
	<g>
		<circle class="st1" cx="200" cy="198.37" r="140"/>
	</g>
	<g>
		<circle class="st2" cx="200" cy="198.37" r="110"/>
	</g>
</g>
<g>
	<rect x="0" transform="matrix(-1 -4.489266e-11 4.489266e-11 -1 400 400)" class="st3" width="400" height="400"/>
</g>
<g>
	<g>
		<path class="st4" d="M73.28,36.09c-2.98,0-5.4-2.42-5.4-5.4c0-0.99-0.81-1.8-1.8-1.8c-0.99,0-1.8,0.81-1.8,1.8
			c0,2.98-2.42,5.4-5.4,5.4c-0.99,0-1.8,0.81-1.8,1.8s0.81,1.8,1.8,1.8c2.98,0,5.4,2.42,5.4,5.4c0,0.99,0.81,1.8,1.8,1.8
			c0.99,0,1.8-0.81,1.8-1.8c0-2.98,2.42-5.4,5.4-5.4c0.99,0,1.8-0.81,1.8-1.8S74.27,36.09,73.28,36.09z"/>
	</g>
</g>
<g>
	<g>
		<path class="st4" d="M32.84,290.57c-2.98,0-5.4-2.42-5.4-5.4c0-0.99-0.81-1.8-1.8-1.8c-0.99,0-1.8,0.81-1.8,1.8
			c0,2.98-2.42,5.4-5.4,5.4c-0.99,0-1.8,0.81-1.8,1.8s0.81,1.8,1.8,1.8c2.98,0,5.4,2.42,5.4,5.4c0,0.99,0.81,1.8,1.8,1.8
			c0.99,0,1.8-0.81,1.8-1.8c0-2.98,2.42-5.4,5.4-5.4c0.99,0,1.8-0.81,1.8-1.8S33.83,290.57,32.84,290.57z"/>
	</g>
</g>
<g>
	<g>
		<path class="st4" d="M338.42,245.65c-2.98,0-5.4-2.42-5.4-5.4c0-0.99-0.81-1.8-1.8-1.8s-1.8,0.81-1.8,1.8c0,2.98-2.42,5.4-5.4,5.4
			c-0.99,0-1.8,0.81-1.8,1.8c0,0.99,0.81,1.8,1.8,1.8c2.98,0,5.4,2.42,5.4,5.4c0,0.99,0.81,1.8,1.8,1.8s1.8-0.81,1.8-1.8
			c0-2.98,2.42-5.4,5.4-5.4c0.99,0,1.8-0.81,1.8-1.8C340.22,246.46,339.41,245.65,338.42,245.65z"/>
	</g>
</g>
<g>
	<g>
		<circle class="st4" cx="99.71" cy="28.37" r="3"/>
	</g>
</g>
<g>
	<g>
		<circle class="st4" cx="45.29" cy="79.37" r="3"/>
	</g>
</g>
<g>
	<g>
		<circle class="st4" cx="334.22" cy="363.29" r="3"/>
	</g>
</g>
<g>
	<g>
		<circle class="st4" cx="34.64" cy="325.37" r="3"/>
	</g>
</g>
<g>
	<g>
		<circle class="st4" cx="16.64" cy="262.62" r="3"/>
	</g>
</g>
<g>
	<g>
		<circle class="st4" cx="383.48" cy="119.37" r="3"/>
	</g>
</g>
<g>
	<g>
		<circle class="st4" cx="352.42" cy="46.89" r="3"/>
	</g>
</g>
<g>
	<g>
		<circle class="st4" cx="271.79" cy="19.99" r="3"/>
	</g>
</g>
<g>
	<g>
		<circle class="st4" cx="358.21" cy="186.37" r="3"/>
	</g>
</g>
<g>
	<g>
		<circle class="st4" cx="48.29" cy="212.37" r="3"/>
	</g>
</g>
<g>
	<g>
		<circle class="st4" cx="343.42" cy="274.31" r="3"/>
	</g>
</g>
<g>
	<circle class="st4" cx="330.22" cy="28.37" r="4"/>
</g>
<g>
	<circle class="st4" cx="118.29" cy="358.79" r="4.5"/>
</g>
<path class="st4" d="M361.42,73.37h-6v-6c0-1.66-1.34-3-3-3s-3,1.34-3,3v6h-6c-1.66,0-3,1.34-3,3s1.34,3,3,3h6v6c0,1.66,1.34,3,3,3
	s3-1.34,3-3v-6h6c1.66,0,3-1.34,3-3S363.07,73.37,361.42,73.37z"/>
<g>
	<g>
		<g>
			<path class="st5" d="M109.71,325.37c-7.17,0-13-5.83-13-13v-226c0-7.17,5.83-13,13-13h180c7.17,0,13,5.83,13,13v226
				c0,7.17-5.83,13-13,13H109.71z"/>
		</g>
		<g>
			<path class="st6" d="M289.71,76.37c5.52,0,10,4.48,10,10v226c0,5.52-4.48,10-10,10h-180c-5.52,0-10-4.48-10-10v-226
				c0-5.52,4.48-10,10-10H289.71 M289.71,70.37h-180c-8.82,0-16,7.18-16,16v226c0,8.82,7.18,16,16,16h180c8.82,0,16-7.18,16-16v-226
				C305.71,77.55,298.53,70.37,289.71,70.37L289.71,70.37z"/>
		</g>
	</g>
	<g>
		<path class="st7" d="M289.71,322.37h-180c-5.52,0-10-4.48-10-10v-54h200v54C299.71,317.89,295.23,322.37,289.71,322.37z"/>
	</g>
	<g>
		<rect x="99.71" y="110.37" class="st7" width="200" height="76"/>
	</g>
	<g>
		<g>
			<path class="st8" d="M99.71,107.37c-1.66,0-3-1.34-3-3v-18c0-7.17,5.83-13,13-13h180c7.17,0,13,5.83,13,13v18c0,1.66-1.34,3-3,3
				H99.71z"/>
		</g>
		<g>
			<path class="st6" d="M289.71,76.37c5.52,0,10,4.48,10,10v18h-200v-18c0-5.52,4.48-10,10-10H289.71 M289.71,70.37h-180
				c-8.82,0-16,7.18-16,16v18c0,3.31,2.69,6,6,6h200c3.31,0,6-2.69,6-6v-18C305.71,77.55,298.53,70.37,289.71,70.37L289.71,70.37z"
				/>
		</g>
	</g>
	<g>
		<g>
			<path class="st5" d="M189.71,97.37c-3.86,0-7-3.14-7-7s3.14-7,7-7h94c3.86,0,7,3.14,7,7s-3.14,7-7,7H189.71z"/>
		</g>
		<g>
			<g>
				<path class="st6" d="M283.71,86.37c2.21,0,4,1.79,4,4s-1.79,4-4,4h-94c-2.21,0-4-1.79-4-4s1.79-4,4-4H283.71 M283.71,80.37h-94
					c-5.51,0-10,4.49-10,10s4.49,10,10,10h94c5.51,0,10-4.49,10-10S289.22,80.37,283.71,80.37L283.71,80.37z"/>
			</g>
		</g>
	</g>
	<g>
		<g>
			<circle class="st9" cx="115.71" cy="90.37" r="7"/>
		</g>
		<g>
			<g>
				<path class="st6" d="M115.71,86.37c2.21,0,4,1.79,4,4c0,2.21-1.79,4-4,4c-2.21,0-4-1.79-4-4
					C111.71,88.16,113.5,86.37,115.71,86.37 M115.71,80.37c-5.51,0-10,4.49-10,10s4.49,10,10,10s10-4.49,10-10
					S121.22,80.37,115.71,80.37L115.71,80.37z"/>
			</g>
		</g>
	</g>
	<g>
		<g>
			<circle class="st10" cx="139.71" cy="90.37" r="7"/>
		</g>
		<g>
			<g>
				<path class="st6" d="M139.71,86.37c2.21,0,4,1.79,4,4c0,2.21-1.79,4-4,4s-4-1.79-4-4C135.71,88.16,137.5,86.37,139.71,86.37
					 M139.71,80.37c-5.51,0-10,4.49-10,10s4.49,10,10,10s10-4.49,10-10S145.22,80.37,139.71,80.37L139.71,80.37z"/>
			</g>
		</g>
	</g>
	<g>
		<g>
			<circle class="st7" cx="163.71" cy="90.37" r="7"/>
		</g>
		<g>
			<g>
				<path class="st6" d="M163.71,86.37c2.21,0,4,1.79,4,4c0,2.21-1.79,4-4,4s-4-1.79-4-4C159.71,88.16,161.5,86.37,163.71,86.37
					 M163.71,80.37c-5.51,0-10,4.49-10,10s4.49,10,10,10s10-4.49,10-10S169.22,80.37,163.71,80.37L163.71,80.37z"/>
			</g>
		</g>
	</g>
	<g>
		<rect x="99.71" y="185.37" class="st11" width="200" height="74"/>
	</g>
	<g>
		<g>
			<path class="st5" d="M118.71,244.37h42c2.21,0,4-1.79,4-4v-36c0-2.21-1.79-4-4-4h-42c-2.21,0-4,1.79-4,4v36
				C114.71,242.58,116.5,244.37,118.71,244.37z"/>
		</g>
		<g>
			<circle class="st11" cx="126.71" cy="212.37" r="6"/>
		</g>
		<g>
			<path class="st7" d="M156.71,226.37h-34c-1.1,0-2-0.9-2-2l0,0c0-1.1,0.9-2,2-2h34c1.1,0,2,0.9,2,2l0,0
				C158.71,225.48,157.81,226.37,156.71,226.37z"/>
		</g>
		<g>
			<path class="st7" d="M142.71,234.37h-20c-1.1,0-2-0.9-2-2l0,0c0-1.1,0.9-2,2-2h20c1.1,0,2,0.9,2,2l0,0
				C144.71,233.48,143.81,234.37,142.71,234.37z"/>
		</g>
	</g>
	<g>
		<g>
			<path class="st5" d="M238.71,244.37h42c2.21,0,4-1.79,4-4v-36c0-2.21-1.79-4-4-4h-42c-2.21,0-4,1.79-4,4v36
				C234.71,242.58,236.5,244.37,238.71,244.37z"/>
		</g>
		<g>
			<circle class="st11" cx="246.71" cy="212.37" r="6"/>
		</g>
		<g>
			<path class="st7" d="M276.71,226.37h-34c-1.1,0-2-0.9-2-2l0,0c0-1.1,0.9-2,2-2h34c1.1,0,2,0.9,2,2l0,0
				C278.71,225.48,277.81,226.37,276.71,226.37z"/>
		</g>
		<g>
			<path class="st7" d="M254.71,234.37h-12c-1.1,0-2-0.9-2-2l0,0c0-1.1,0.9-2,2-2h12c1.1,0,2,0.9,2,2l0,0
				C256.71,233.48,255.81,234.37,254.71,234.37z"/>
		</g>
	</g>
	<g>
		<g>
			<path class="st5" d="M178.71,244.37h42c2.21,0,4-1.79,4-4v-36c0-2.21-1.79-4-4-4h-42c-2.21,0-4,1.79-4,4v36
				C174.71,242.58,176.5,244.37,178.71,244.37z"/>
		</g>
		<g>
			<circle class="st11" cx="186.71" cy="212.37" r="6"/>
		</g>
		<g>
			<path class="st7" d="M216.71,226.37h-34c-1.1,0-2-0.9-2-2l0,0c0-1.1,0.9-2,2-2h34c1.1,0,2,0.9,2,2l0,0
				C218.71,225.48,217.81,226.37,216.71,226.37z"/>
		</g>
		<g>
			<path class="st7" d="M208.71,234.37h-26c-1.1,0-2-0.9-2-2l0,0c0-1.1,0.9-2,2-2h26c1.1,0,2,0.9,2,2l0,0
				C210.71,233.48,209.81,234.37,208.71,234.37z"/>
		</g>
	</g>
	<g>
		<circle class="st11" cx="139.71" cy="292.37" r="24"/>
	</g>
	<g>
		<circle class="st11" cx="199.71" cy="292.37" r="24"/>
	</g>
	<g>
		<circle class="st11" cx="259.71" cy="292.37" r="24"/>
	</g>
	<g>
		<g>
			<circle class="st12" cx="164.71" cy="146.87" r="2.5"/>
		</g>
		<g>
			<circle class="st12" cx="170.21" cy="157.87" r="2.5"/>
		</g>
		<g>
			<circle class="st12" cx="159.21" cy="157.87" r="2.5"/>
		</g>
	</g>
	<g>
		<g>
			<circle class="st12" cx="234.71" cy="146.87" r="2.5"/>
		</g>
		<g>
			<circle class="st12" cx="240.21" cy="157.87" r="2.5"/>
		</g>
		<g>
			<circle class="st12" cx="229.21" cy="157.87" r="2.5"/>
		</g>
	</g>
	<g>
		<g>
			<path class="st6" d="M217.71,144.87L217.71,144.87h-36.01c-2.76,0-5,2.24-5,5c0,12.68,10.32,23,23,23
				c12.62,0,22.9-10.22,23-22.82c0-0.06,0-0.12,0-0.18C222.71,147.11,220.47,144.87,217.71,144.87z"/>
			<g>
				<g>
					<ellipse class="st9" cx="199.71" cy="161.87" rx="13.39" ry="6"/>
				</g>
			</g>
		</g>
		<g>
			<path class="st6" d="M209.73,118.66c3.68-3.2,9.6-3.78,13.59-0.77c1.81,1.35,4.82,4.88,1.93,6.45c-0.74,0.34-1.5,0.14-2.13-0.25
				c-1.05-0.55-1.86-1.12-2.73-1.43c-2.91-1.36-6.23-0.67-9.32-0.51C209.24,122.21,208.35,119.81,209.73,118.66L209.73,118.66z"/>
		</g>
		<g>
			<path class="st6" d="M187.73,122.15c-1.94-0.19-4.24-0.52-6.14-0.2c-2.14,0.25-3.69,1.26-5.66,2.33c-1,0.52-2.23,0.14-2.75-0.86
				c-0.3-0.57-0.3-1.22-0.06-1.77c1.83-4.71,7.87-6.81,12.48-5.23c1.95,0.66,6.22,2.41,4.28,5.04
				C189.33,122.13,188.5,122.2,187.73,122.15L187.73,122.15z"/>
		</g>
		<g>
			<g>
				<path class="st6" d="M191.71,140.37c-1.38,0-2.5-1.12-2.5-2.5c0-2.48-2.02-4.5-4.5-4.5s-4.5,2.02-4.5,4.5
					c0,1.38-1.12,2.5-2.5,2.5s-2.5-1.12-2.5-2.5c0-5.24,4.26-9.5,9.5-9.5s9.5,4.26,9.5,9.5
					C194.21,139.25,193.09,140.37,191.71,140.37z"/>
			</g>
		</g>
		<g>
			<g>
				<path class="st6" d="M221.71,140.37c-1.38,0-2.5-1.12-2.5-2.5c0-2.48-2.02-4.5-4.5-4.5s-4.5,2.02-4.5,4.5
					c0,1.38-1.12,2.5-2.5,2.5s-2.5-1.12-2.5-2.5c0-5.24,4.26-9.5,9.5-9.5s9.5,4.26,9.5,9.5
					C224.21,139.25,223.09,140.37,221.71,140.37z"/>
			</g>
		</g>
	</g>
</g>
<g>
	<g>
		<g>
			<path class="st13" d="M380.21,361.35c-0.61,0-1.21-0.19-1.72-0.54l-131.06-91.77c-0.7-0.49-2.26-1.98-1.52-5.15
				c0.32-1.35,1.03-2.87,2.01-4.27c0.72-1.03,3.31-4.39,6.41-4.39c0.83,0,1.61,0.24,2.27,0.7l131.06,91.77
				c1.36,0.95,1.69,2.82,0.74,4.18l-5.74,8.19c-0.46,0.65-1.15,1.1-1.94,1.23C380.56,361.34,380.38,361.35,380.21,361.35z"/>
		</g>
		<g>
			<g>
				<path class="st6" d="M254.33,258.23c0.21,0,0.4,0.05,0.55,0.16l131.06,91.77l-5.74,8.19l-131.06-91.77
					c-0.9-0.63-0.35-2.98,1.23-5.24C251.69,259.46,253.3,258.23,254.33,258.23 M254.33,252.23c-4.43,0-7.68,3.96-8.87,5.67
					c-4.36,6.22-3.02,11.32,0.24,13.6l131.06,91.77c1.05,0.73,2.25,1.09,3.44,1.09c1.89,0,3.75-0.89,4.92-2.56l5.74-8.19
					c1.9-2.71,1.24-6.46-1.47-8.36l-131.06-91.77C257.16,252.66,255.78,252.23,254.33,252.23L254.33,252.23z"/>
			</g>
		</g>
	</g>
	<g>
		
			<rect x="317.26" y="225.91" transform="matrix(0.5736 -0.8192 0.8192 0.5736 -114.4481 391.975)" class="st14" width="4" height="160"/>
	</g>
	<g>
		<g>
			<path class="st14" d="M380.76,361.51c-0.83,0-1.61-0.24-2.27-0.7c-0.7-0.49-2.26-1.98-1.52-5.15c0.32-1.35,1.03-2.87,2.01-4.27
				c0.72-1.03,3.31-4.39,6.41-4.39c0.83,0,1.62,0.24,2.27,0.7c0.7,0.49,2.26,1.98,1.52,5.15c-0.32,1.35-1.03,2.87-2.01,4.27
				C386.45,358.15,383.86,361.51,380.76,361.51z"/>
		</g>
		<g>
			<path class="st6" d="M385.4,350c0.21,0,0.4,0.05,0.55,0.16c0.9,0.63,0.35,2.98-1.23,5.24c-1.32,1.88-2.93,3.11-3.96,3.11
				c-0.21,0-0.4-0.05-0.55-0.16c-0.9-0.63-0.35-2.98,1.23-5.24C382.75,351.23,384.37,350,385.4,350 M385.4,344
				C385.39,344,385.39,344,385.4,344c-4.43,0-7.68,3.96-8.87,5.67c-4.36,6.22-3.02,11.32,0.24,13.6c1.16,0.81,2.54,1.24,3.99,1.24
				c4.43,0,7.68-3.96,8.87-5.67c4.36-6.22,3.02-11.32-0.24-13.6C388.22,344.43,386.84,344,385.4,344L385.4,344z"/>
		</g>
	</g>
	<g>
		<path class="st5" d="M250.37,261.34c-1.58,2.26-2.13,4.61-1.23,5.24l19.66,13.77c-0.9-0.63-0.35-2.98,1.23-5.24
			s3.6-3.58,4.51-2.95l-19.66-13.77C253.97,257.76,251.96,259.08,250.37,261.34z"/>
	</g>
	<g>
		<path class="st15" d="M250.98,260.54l19.66,13.77c1.46-1.76,3.11-2.71,3.9-2.15l-19.66-13.77
			C254.09,257.83,252.44,258.78,250.98,260.54z"/>
	</g>
</g>
<g>
	<g>
		<path class="st4" d="M375.25,295.62c-2.17,0-3.94-1.77-3.94-3.94c0-0.72-0.59-1.31-1.31-1.31c-0.72,0-1.31,0.59-1.31,1.31
			c0,2.17-1.77,3.94-3.94,3.94c-0.72,0-1.31,0.59-1.31,1.31c0,0.72,0.59,1.31,1.31,1.31c2.17,0,3.94,1.77,3.94,3.94
			c0,0.72,0.59,1.31,1.31,1.31c0.72,0,1.31-0.59,1.31-1.31c0-2.17,1.77-3.94,3.94-3.94c0.72,0,1.31-0.59,1.31-1.31
			C376.56,296.21,375.97,295.62,375.25,295.62z"/>
	</g>
</g>
<g>
	<g>
		<path class="st4" d="M71.33,152.12c-2.17,0-3.94-1.77-3.94-3.94c0-0.72-0.59-1.31-1.31-1.31c-0.72,0-1.31,0.59-1.31,1.31
			c0,2.17-1.77,3.94-3.94,3.94c-0.72,0-1.31,0.59-1.31,1.31c0,0.72,0.59,1.31,1.31,1.31c2.17,0,3.94,1.77,3.94,3.94
			c0,0.72,0.59,1.31,1.31,1.31c0.72,0,1.31-0.59,1.31-1.31c0-2.17,1.77-3.94,3.94-3.94c0.72,0,1.31-0.59,1.31-1.31
			C72.64,152.71,72.05,152.12,71.33,152.12z"/>
	</g>
</g>
<g>
	<g>
		<path class="st4" d="M293.96,345.95c-2.17,0-3.94-1.77-3.94-3.94c0-0.72-0.59-1.31-1.31-1.31c-0.72,0-1.31,0.59-1.31,1.31
			c0,2.17-1.77,3.94-3.94,3.94c-0.72,0-1.31,0.59-1.31,1.31c0,0.72,0.59,1.31,1.31,1.31c2.17,0,3.94,1.77,3.94,3.94
			c0,0.72,0.59,1.31,1.31,1.31c0.72,0,1.31-0.59,1.31-1.31c0-2.17,1.77-3.94,3.94-3.94c0.72,0,1.31-0.59,1.31-1.31
			C295.27,346.53,294.68,345.95,293.96,345.95z"/>
	</g>
</g>
<g>
	<g>
		<circle class="st4" cx="319.26" cy="342.87" r="4.5"/>
	</g>
</g>
<path class="st4" d="M63.08,363.29h-6v-6c0-1.66-1.34-3-3-3s-3,1.34-3,3v6h-6c-1.66,0-3,1.34-3,3s1.34,3,3,3h6v6c0,1.66,1.34,3,3,3
	s3-1.34,3-3v-6h6c1.66,0,3-1.34,3-3S64.74,363.29,63.08,363.29z"/>
</svg>
