<?xml version="1.0" encoding="utf-8"?>
<!-- Generator: Adobe Illustrator 26.3.1, SVG Export Plug-In . SVG Version: 6.00 Build 0)  -->
<svg version="1.1" id="artwork" xmlns="http://www.w3.org/2000/svg" xmlns:xlink="http://www.w3.org/1999/xlink" x="0px" y="0px"
	 viewBox="0 0 1200 630" style="enable-background:new 0 0 1200 630;" xml:space="preserve">
<style type="text/css">
	.st0{fill:none;}
	.st1{fill:#515979;}
	.st2{fill:#FFD886;}
	.st3{fill:#7DDF96;}
	.st4{fill:#00C853;}
	.st5{fill:#EF7D7D;}
	.st6{fill:#FFFFFF;}
	.st7{fill:#D8EBFB;}
	.st8{fill:#ACC9DB;}
	.st9{fill:#FABBA7;}
	.st10{fill:#FDE1D9;}
	.st11{fill:#FFEBEB;}
	.st12{fill:#F89D81;}
</style>
<g>
	<rect class="st0" width="1200" height="630"/>
</g>
<g>
	<path class="st1" d="M530.12,440.5c-1.24,0-2.25-1.01-2.25-2.25v-7.5c0-1.24,1.01-2.25,2.25-2.25s2.25,1.01,2.25,2.25v7.5
		C532.37,439.49,531.36,440.5,530.12,440.5z M530.12,419.5c-1.24,0-2.25-1.01-2.25-2.25v-7.5c0-1.24,1.01-2.25,2.25-2.25
		s2.25,1.01,2.25,2.25v7.5C532.37,418.49,531.36,419.5,530.12,419.5z M530.12,398.5c-1.24,0-2.25-1.01-2.25-2.25v-7.5
		c0-1.24,1.01-2.25,2.25-2.25s2.25,1.01,2.25,2.25v7.5C532.37,397.49,531.36,398.5,530.12,398.5z M530.12,377.5
		c-1.24,0-2.25-1.01-2.25-2.25v-7.5c0-1.24,1.01-2.25,2.25-2.25s2.25,1.01,2.25,2.25v7.5C532.37,376.49,531.36,377.5,530.12,377.5z
		 M530.12,356.5c-1.24,0-2.25-1.01-2.25-2.25v-7.5c0-1.24,1.01-2.25,2.25-2.25s2.25,1.01,2.25,2.25v7.5
		C532.37,355.49,531.36,356.5,530.12,356.5z M534.33,336.6c-0.56,0-1.13-0.21-1.56-0.63c-0.89-0.86-0.92-2.29-0.06-3.18
		c2.01-2.08,4.52-3.63,7.26-4.48c1.19-0.37,2.45,0.29,2.82,1.48s-0.29,2.45-1.48,2.82c-2.03,0.63-3.88,1.78-5.36,3.32
		C535.51,336.37,534.92,336.6,534.33,336.6z M729.57,332.02h-7.5c-1.24,0-2.25-1.01-2.25-2.25s1.01-2.25,2.25-2.25h7.5
		c1.24,0,2.25,1.01,2.25,2.25S730.81,332.02,729.57,332.02z M708.57,332.02h-7.5c-1.24,0-2.25-1.01-2.25-2.25s1.01-2.25,2.25-2.25
		h7.5c1.24,0,2.25,1.01,2.25,2.25S709.81,332.02,708.57,332.02z M687.57,332.02h-7.5c-1.24,0-2.25-1.01-2.25-2.25
		s1.01-2.25,2.25-2.25h7.5c1.24,0,2.25,1.01,2.25,2.25S688.81,332.02,687.57,332.02z M666.57,332.02h-7.5
		c-1.24,0-2.25-1.01-2.25-2.25s1.01-2.25,2.25-2.25h7.5c1.24,0,2.25,1.01,2.25,2.25S667.81,332.02,666.57,332.02z M645.57,332.02
		h-7.5c-1.24,0-2.25-1.01-2.25-2.25s1.01-2.25,2.25-2.25h7.5c1.24,0,2.25,1.01,2.25,2.25S646.81,332.02,645.57,332.02z
		 M624.57,332.02h-7.5c-1.24,0-2.25-1.01-2.25-2.25s1.01-2.25,2.25-2.25h7.5c1.24,0,2.25,1.01,2.25,2.25
		S625.81,332.02,624.57,332.02z M603.57,332.02h-7.5c-1.24,0-2.25-1.01-2.25-2.25s1.01-2.25,2.25-2.25h7.5
		c1.24,0,2.25,1.01,2.25,2.25S604.81,332.02,603.57,332.02z M582.57,332.02h-7.5c-1.24,0-2.25-1.01-2.25-2.25s1.01-2.25,2.25-2.25
		h7.5c1.24,0,2.25,1.01,2.25,2.25S583.81,332.02,582.57,332.02z M561.57,332.02h-7.5c-1.24,0-2.25-1.01-2.25-2.25
		s1.01-2.25,2.25-2.25h7.5c1.24,0,2.25,1.01,2.25,2.25S562.81,332.02,561.57,332.02z M742.91,330.81c-0.87,0-1.7-0.51-2.07-1.36
		c-0.49-1.14,0.04-2.46,1.18-2.96c1.95-0.84,3.68-2.17,5-3.84c0.77-0.97,2.18-1.14,3.16-0.38c0.98,0.77,1.14,2.18,0.38,3.16
		c-1.79,2.27-4.12,4.06-6.77,5.2C743.5,330.75,743.2,330.81,742.91,330.81z M752,313.52c-1.24,0-2.25-1.01-2.25-2.25v-7.5
		c0-1.24,1.01-2.25,2.25-2.25s2.25,1.01,2.25,2.25v7.5C754.25,312.51,753.24,313.52,752,313.52z M752,292.52
		c-1.24,0-2.25-1.01-2.25-2.25v-7.5c0-1.24,1.01-2.25,2.25-2.25s2.25,1.01,2.25,2.25v7.5C754.25,291.51,753.24,292.52,752,292.52z
		 M752,271.52c-1.24,0-2.25-1.01-2.25-2.25v-7.5c0-1.24,1.01-2.25,2.25-2.25s2.25,1.01,2.25,2.25v7.5
		C754.25,270.51,753.24,271.52,752,271.52z M752,250.52c-1.24,0-2.25-1.01-2.25-2.25v-7.5c0-1.24,1.01-2.25,2.25-2.25
		s2.25,1.01,2.25,2.25v7.5C754.25,249.51,753.24,250.52,752,250.52z M752,229.52c-1.24,0-2.25-1.01-2.25-2.25v-7.5
		c0-1.24,1.01-2.25,2.25-2.25s2.25,1.01,2.25,2.25v7.5C754.25,228.51,753.24,229.52,752,229.52z"/>
</g>
<path class="st2" d="M1038.62,80.27h-9v-9c0-2.49-2.01-4.5-4.5-4.5s-4.5,2.01-4.5,4.5v9h-9c-2.49,0-4.5,2.01-4.5,4.5
	c0,2.49,2.01,4.5,4.5,4.5h9v9c0,2.49,2.01,4.5,4.5,4.5s4.5-2.01,4.5-4.5v-9h9c2.49,0,4.5-2.01,4.5-4.5
	C1043.12,82.28,1041.11,80.27,1038.62,80.27z"/>
<g>
	<g>
		<circle class="st2" cx="968.16" cy="85.77" r="6"/>
	</g>
</g>
<g>
	<g>
		<circle class="st2" cx="1025.12" cy="143.77" r="3.75"/>
	</g>
</g>
<g>
	<g>
		<circle class="st2" cx="1093.51" cy="496.3" r="6.75"/>
	</g>
</g>
<g>
	<g>
		<circle class="st2" cx="153.62" cy="120.27" r="4.5"/>
	</g>
</g>
<g>
	<g>
		<path class="st2" d="M167.52,173.37c3.97,0,7.2-3.23,7.2-7.2c0-1.32,1.08-2.4,2.4-2.4s2.4,1.08,2.4,2.4c0,3.97,3.22,7.2,7.2,7.2
			c1.32,0,2.4,1.08,2.4,2.4s-1.08,2.4-2.4,2.4c-3.97,0-7.2,3.23-7.2,7.2c0,1.32-1.08,2.4-2.4,2.4s-2.4-1.08-2.4-2.4
			c0-3.98-3.22-7.2-7.2-7.2c-1.32,0-2.4-1.08-2.4-2.4S166.2,173.37,167.52,173.37z"/>
	</g>
</g>
<g>
	<path class="st2" d="M1149.53,460.77c-3.47,0-6.3-2.83-6.3-6.3c0-1.16-0.94-2.1-2.1-2.1s-2.1,0.94-2.1,2.1c0,3.47-2.83,6.3-6.3,6.3
		c-1.16,0-2.1,0.94-2.1,2.1s0.94,2.1,2.1,2.1c3.47,0,6.3,2.83,6.3,6.3c0,1.16,0.94,2.1,2.1,2.1s2.1-0.94,2.1-2.1
		c0-3.47,2.83-6.3,6.3-6.3c1.16,0,2.1-0.94,2.1-2.1C1151.62,461.71,1150.68,460.77,1149.53,460.77z"/>
</g>
<g>
	<g>
		<circle class="st2" cx="475.72" cy="325.57" r="6"/>
	</g>
</g>
<g>
	<path class="st2" d="M542.48,280.8c-3.47,0-6.3-2.83-6.3-6.3c0-1.16-0.94-2.1-2.1-2.1s-2.1,0.94-2.1,2.1c0,3.47-2.83,6.3-6.3,6.3
		c-1.16,0-2.1,0.94-2.1,2.1s0.94,2.1,2.1,2.1c3.47,0,6.3,2.83,6.3,6.3c0,1.16,0.94,2.1,2.1,2.1s2.1-0.94,2.1-2.1
		c0-3.47,2.83-6.3,6.3-6.3c1.16,0,2.1-0.94,2.1-2.1C544.58,281.74,543.64,280.8,542.48,280.8z"/>
</g>
<g>
	<path class="st2" d="M227.42,114.07c-4.47,0-8.1-3.63-8.1-8.1c0-1.49-1.21-2.7-2.7-2.7c-1.49,0-2.7,1.21-2.7,2.7
		c0,4.47-3.63,8.1-8.1,8.1c-1.49,0-2.7,1.21-2.7,2.7s1.21,2.7,2.7,2.7c4.47,0,8.1,3.63,8.1,8.1c0,1.49,1.21,2.7,2.7,2.7
		c1.49,0,2.7-1.21,2.7-2.7c0-4.47,3.63-8.1,8.1-8.1c1.49,0,2.7-1.21,2.7-2.7S228.92,114.07,227.42,114.07z"/>
</g>
<g>
	<g>
		<circle class="st2" cx="247.31" cy="543.3" r="4.5"/>
	</g>
</g>
<g>
	<g>
		<path class="st2" d="M785.88,540.9c3.97,0,7.2-3.22,7.2-7.2c0-1.32,1.08-2.4,2.4-2.4s2.4,1.08,2.4,2.4c0,3.98,3.22,7.2,7.2,7.2
			c1.32,0,2.4,1.08,2.4,2.4s-1.08,2.4-2.4,2.4c-3.97,0-7.2,3.23-7.2,7.2c0,1.32-1.08,2.4-2.4,2.4s-2.4-1.08-2.4-2.4
			c0-3.97-3.22-7.2-7.2-7.2c-1.32,0-2.4-1.08-2.4-2.4C783.48,541.98,784.56,540.9,785.88,540.9z"/>
	</g>
</g>
<g>
	<path class="st2" d="M191.11,507.1c-4.47,0-8.1-3.63-8.1-8.1c0-1.49-1.21-2.7-2.7-2.7c-1.49,0-2.7,1.21-2.7,2.7
		c0,4.47-3.63,8.1-8.1,8.1c-1.49,0-2.7,1.21-2.7,2.7c0,1.49,1.21,2.7,2.7,2.7c4.47,0,8.1,3.63,8.1,8.1c0,1.49,1.21,2.7,2.7,2.7
		c1.49,0,2.7-1.21,2.7-2.7c0-4.47,3.63-8.1,8.1-8.1c1.49,0,2.7-1.21,2.7-2.7C193.81,508.3,192.6,507.1,191.11,507.1z"/>
</g>
<g>
	<path class="st1" d="M926.16,503h-3c-1.24,0-2.25-1.01-2.25-2.25s1.01-2.25,2.25-2.25h3c1.29,0,2.55-0.19,3.77-0.56
		c1.19-0.37,2.45,0.3,2.81,1.49c0.37,1.19-0.3,2.45-1.49,2.81C929.61,502.74,927.89,503,926.16,503z M909.66,503h-7.5
		c-1.24,0-2.25-1.01-2.25-2.25s1.01-2.25,2.25-2.25h7.5c1.24,0,2.25,1.01,2.25,2.25S910.9,503,909.66,503z M888.66,503h-7.5
		c-1.24,0-2.25-1.01-2.25-2.25s1.01-2.25,2.25-2.25h7.5c1.24,0,2.25,1.01,2.25,2.25S889.9,503,888.66,503z M867.66,503h-7.5
		c-1.24,0-2.25-1.01-2.25-2.25s1.01-2.25,2.25-2.25h7.5c1.24,0,2.25,1.01,2.25,2.25S868.9,503,867.66,503z M846.66,503h-7.5
		c-1.24,0-2.25-1.01-2.25-2.25s1.01-2.25,2.25-2.25h7.5c1.24,0,2.25,1.01,2.25,2.25S847.9,503,846.66,503z M825.66,503h-7.5
		c-1.24,0-2.25-1.01-2.25-2.25s1.01-2.25,2.25-2.25h7.5c1.24,0,2.25,1.01,2.25,2.25S826.9,503,825.66,503z M804.66,503h-7.5
		c-1.24,0-2.25-1.01-2.25-2.25s1.01-2.25,2.25-2.25h7.5c1.24,0,2.25,1.01,2.25,2.25S805.9,503,804.66,503z M783.66,503h-7.5
		c-1.24,0-2.25-1.01-2.25-2.25s1.01-2.25,2.25-2.25h7.5c1.24,0,2.25,1.01,2.25,2.25S784.9,503,783.66,503z M762.66,503h-7.5
		c-1.24,0-2.25-1.01-2.25-2.25s1.01-2.25,2.25-2.25h7.5c1.24,0,2.25,1.01,2.25,2.25S763.9,503,762.66,503z M741.66,503h-7.5
		c-1.24,0-2.25-1.01-2.25-2.25s1.01-2.25,2.25-2.25h7.5c1.24,0,2.25,1.01,2.25,2.25S742.9,503,741.66,503z M720.66,503h-7.5
		c-1.24,0-2.25-1.01-2.25-2.25s1.01-2.25,2.25-2.25h7.5c1.24,0,2.25,1.01,2.25,2.25S721.9,503,720.66,503z M699.66,503h-7.5
		c-1.24,0-2.25-1.01-2.25-2.25s1.01-2.25,2.25-2.25h7.5c1.24,0,2.25,1.01,2.25,2.25S700.9,503,699.66,503z M678.66,503h-7.5
		c-1.24,0-2.25-1.01-2.25-2.25s1.01-2.25,2.25-2.25h7.5c1.24,0,2.25,1.01,2.25,2.25S679.9,503,678.66,503z M657.66,503h-7.5
		c-1.24,0-2.25-1.01-2.25-2.25s1.01-2.25,2.25-2.25h7.5c1.24,0,2.25,1.01,2.25,2.25S658.9,503,657.66,503z M940.14,493.45
		c-0.27,0-0.55-0.05-0.82-0.15c-1.16-0.45-1.73-1.75-1.28-2.91c0.57-1.47,0.87-3.03,0.87-4.63v-1.93c0-1.24,1.01-2.25,2.25-2.25
		s2.25,1.01,2.25,2.25v1.93c0,2.16-0.39,4.26-1.17,6.26C941.89,492.9,941.04,493.45,940.14,493.45z M941.16,472.57
		c-1.24,0-2.25-1.01-2.25-2.25v-7.5c0-1.24,1.01-2.25,2.25-2.25s2.25,1.01,2.25,2.25v7.5C943.41,471.56,942.4,472.57,941.16,472.57z
		 M941.16,451.57c-1.24,0-2.25-1.01-2.25-2.25v-7.5c0-1.24,1.01-2.25,2.25-2.25s2.25,1.01,2.25,2.25v7.5
		C943.41,450.56,942.4,451.57,941.16,451.57z"/>
</g>
<g>
	<path class="st1" d="M980.66,283.5c-1.24,0-2.25-1.01-2.25-2.25v-7.5c0-1.24,1.01-2.25,2.25-2.25s2.25,1.01,2.25,2.25v7.5
		C982.91,282.49,981.9,283.5,980.66,283.5z M980.66,262.5c-1.24,0-2.25-1.01-2.25-2.25v-7.5c0-1.24,1.01-2.25,2.25-2.25
		s2.25,1.01,2.25,2.25v7.5C982.91,261.49,981.9,262.5,980.66,262.5z M980.66,241.5c-1.24,0-2.25-1.01-2.25-2.25v-7.5
		c0-1.24,1.01-2.25,2.25-2.25s2.25,1.01,2.25,2.25v7.5C982.91,240.49,981.9,241.5,980.66,241.5z M980.66,220.5
		c-1.24,0-2.25-1.01-2.25-2.25v-7.5c0-1.24,1.01-2.25,2.25-2.25s2.25,1.01,2.25,2.25v7.5C982.91,219.49,981.9,220.5,980.66,220.5z
		 M980.66,199.5c-1.24,0-2.25-1.01-2.25-2.25v-7.5c0-1.24,1.01-2.25,2.25-2.25s2.25,1.01,2.25,2.25v7.5
		C982.91,198.49,981.9,199.5,980.66,199.5z M980.66,178.5c-1.24,0-2.25-1.01-2.25-2.25v-7.5c0-1.24,1.01-2.25,2.25-2.25
		s2.25,1.01,2.25,2.25v7.5C982.91,177.49,981.9,178.5,980.66,178.5z M980.66,157.5c-1.24,0-2.25-1.01-2.25-2.25v-7.5
		c0-1.24,1.01-2.25,2.25-2.25s2.25,1.01,2.25,2.25v7.5C982.91,156.49,981.9,157.5,980.66,157.5z M980.36,136.52
		c-1.05,0-1.99-0.74-2.2-1.81c-0.42-2.08-1.37-4.04-2.74-5.67c-0.8-0.95-0.68-2.37,0.27-3.17c0.95-0.8,2.37-0.68,3.17,0.27
		c1.86,2.21,3.15,4.87,3.71,7.69c0.25,1.22-0.54,2.4-1.76,2.65C980.66,136.51,980.5,136.52,980.36,136.52z M965.23,124.5h-7.5
		c-1.24,0-2.25-1.01-2.25-2.25s1.01-2.25,2.25-2.25h7.5c1.24,0,2.25,1.01,2.25,2.25S966.47,124.5,965.23,124.5z M944.23,124.5h-7.5
		c-1.24,0-2.25-1.01-2.25-2.25s1.01-2.25,2.25-2.25h7.5c1.24,0,2.25,1.01,2.25,2.25S945.47,124.5,944.23,124.5z M923.23,124.5h-7.5
		c-1.24,0-2.25-1.01-2.25-2.25s1.01-2.25,2.25-2.25h7.5c1.24,0,2.25,1.01,2.25,2.25S924.47,124.5,923.23,124.5z M902.23,124.5h-7.5
		c-1.24,0-2.25-1.01-2.25-2.25s1.01-2.25,2.25-2.25h7.5c1.24,0,2.25,1.01,2.25,2.25S903.47,124.5,902.23,124.5z M881.23,124.5h-7.5
		c-1.24,0-2.25-1.01-2.25-2.25s1.01-2.25,2.25-2.25h7.5c1.24,0,2.25,1.01,2.25,2.25S882.47,124.5,881.23,124.5z"/>
</g>
<g>
	<path class="st1" d="M393.16,503h-7.5c-1.24,0-2.25-1.01-2.25-2.25s1.01-2.25,2.25-2.25h7.5c1.24,0,2.25,1.01,2.25,2.25
		S394.4,503,393.16,503z M372.16,503h-7.5c-1.24,0-2.25-1.01-2.25-2.25s1.01-2.25,2.25-2.25h7.5c1.24,0,2.25,1.01,2.25,2.25
		S373.4,503,372.16,503z M351.16,503h-7.5c-1.24,0-2.25-1.01-2.25-2.25s1.01-2.25,2.25-2.25h7.5c1.24,0,2.25,1.01,2.25,2.25
		S352.4,503,351.16,503z M330.16,503h-7.5c-1.24,0-2.25-1.01-2.25-2.25s1.01-2.25,2.25-2.25h7.5c1.24,0,2.25,1.01,2.25,2.25
		S331.4,503,330.16,503z M309.16,503h-7.5c-1.24,0-2.25-1.01-2.25-2.25s1.01-2.25,2.25-2.25h7.5c1.24,0,2.25,1.01,2.25,2.25
		S310.4,503,309.16,503z M288.16,503h-7.5c-1.24,0-2.25-1.01-2.25-2.25s1.01-2.25,2.25-2.25h7.5c1.24,0,2.25,1.01,2.25,2.25
		S289.4,503,288.16,503z M267.16,503h-7.5c-1.24,0-2.25-1.01-2.25-2.25s1.01-2.25,2.25-2.25h7.5c1.24,0,2.25,1.01,2.25,2.25
		S268.4,503,267.16,503z M246.16,503h-3c-1.74,0-3.45-0.26-5.1-0.77c-1.19-0.37-1.85-1.63-1.49-2.81c0.37-1.19,1.63-1.85,2.81-1.49
		c1.21,0.37,2.48,0.56,3.77,0.56h3c1.24,0,2.25,1.01,2.25,2.25S247.4,503,246.16,503z M229.18,493.45c-0.9,0-1.75-0.54-2.1-1.43
		c-0.78-2-1.17-4.1-1.17-6.26v-1.93c0-1.24,1.01-2.25,2.25-2.25s2.25,1.01,2.25,2.25v1.93c0,1.6,0.29,3.15,0.86,4.63
		c0.45,1.16-0.12,2.46-1.28,2.91C229.72,493.4,229.45,493.45,229.18,493.45z M228.16,472.57c-1.24,0-2.25-1.01-2.25-2.25v-7.5
		c0-1.24,1.01-2.25,2.25-2.25s2.25,1.01,2.25,2.25v7.5C230.41,471.56,229.4,472.57,228.16,472.57z M228.16,451.57
		c-1.24,0-2.25-1.01-2.25-2.25v-7.5c0-1.24,1.01-2.25,2.25-2.25s2.25,1.01,2.25,2.25v7.5C230.41,450.56,229.4,451.57,228.16,451.57z
		 M228.16,430.57c-1.24,0-2.25-1.01-2.25-2.25v-7.5c0-1.24,1.01-2.25,2.25-2.25s2.25,1.01,2.25,2.25v7.5
		C230.41,429.56,229.4,430.57,228.16,430.57z"/>
</g>
<g>
	<path class="st1" d="M226.66,263.5c-1.24,0-2.25-1.01-2.25-2.25v-7.5c0-1.24,1.01-2.25,2.25-2.25s2.25,1.01,2.25,2.25v7.5
		C228.91,262.49,227.9,263.5,226.66,263.5z M226.66,242.5c-1.24,0-2.25-1.01-2.25-2.25v-7.5c0-1.24,1.01-2.25,2.25-2.25
		s2.25,1.01,2.25,2.25v7.5C228.91,241.49,227.9,242.5,226.66,242.5z M226.66,221.5c-1.24,0-2.25-1.01-2.25-2.25v-7.5
		c0-1.24,1.01-2.25,2.25-2.25s2.25,1.01,2.25,2.25v7.5C228.91,220.49,227.9,221.5,226.66,221.5z M226.66,200.5
		c-1.24,0-2.25-1.01-2.25-2.25v-7.5c0-1.24,1.01-2.25,2.25-2.25s2.25,1.01,2.25,2.25v7.5C228.91,199.49,227.9,200.5,226.66,200.5z
		 M226.66,179.5c-1.24,0-2.25-1.01-2.25-2.25v-7.5c0-1.24,1.01-2.25,2.25-2.25s2.25,1.01,2.25,2.25v7.5
		C228.91,178.49,227.9,179.5,226.66,179.5z M230.51,159.46c-0.54,0-1.08-0.19-1.51-0.58c-0.92-0.83-1-2.25-0.17-3.18
		c1.93-2.15,4.39-3.78,7.1-4.74c1.17-0.41,2.46,0.21,2.87,1.38c0.41,1.17-0.21,2.46-1.38,2.87c-2,0.7-3.82,1.91-5.25,3.5
		C231.74,159.21,231.12,159.46,230.51,159.46z M316.66,154.5h-3.57c-1.24,0-2.25-1.01-2.25-2.25s1.01-2.25,2.25-2.25h3.57
		c1.24,0,2.25,1.01,2.25,2.25S317.9,154.5,316.66,154.5z M299.59,154.5h-7.5c-1.24,0-2.25-1.01-2.25-2.25s1.01-2.25,2.25-2.25h7.5
		c1.24,0,2.25,1.01,2.25,2.25S300.83,154.5,299.59,154.5z M278.59,154.5h-7.5c-1.24,0-2.25-1.01-2.25-2.25s1.01-2.25,2.25-2.25h7.5
		c1.24,0,2.25,1.01,2.25,2.25S279.83,154.5,278.59,154.5z M257.59,154.5h-7.5c-1.24,0-2.25-1.01-2.25-2.25s1.01-2.25,2.25-2.25h7.5
		c1.24,0,2.25,1.01,2.25,2.25S258.83,154.5,257.59,154.5z"/>
</g>
<path class="st3" d="M367.86,216.43c-20.04,0-37.95-2.32-54.76-7.1c-1.94-0.55-3.27-2.32-3.27-4.33V85c0-1.41,0.66-2.74,1.79-3.59
	c0.79-0.6,1.74-0.91,2.71-0.91c0.41,0,0.83,0.06,1.23,0.17c16,4.55,33.11,6.76,52.31,6.76c24.06,0,48.68-3.5,72.5-6.88
	c24.12-3.43,49.07-6.97,73.76-6.97c20.04,0,37.96,2.32,54.77,7.1c1.94,0.55,3.27,2.32,3.27,4.33v120c0,1.41-0.66,2.74-1.79,3.59
	c-0.79,0.6-1.74,0.91-2.71,0.91c-0.41,0-0.83-0.06-1.23-0.17c-16-4.55-33.11-6.76-52.31-6.76c-24.06,0-48.69,3.5-72.5,6.88
	c-24.12,3.43-49.07,6.97-73.76,6.97C367.87,216.43,367.86,216.43,367.86,216.43z"/>
<path class="st1" d="M514.13,78.07c17.85,0,35.69,1.86,53.54,6.93c0,40,0,80,0,120c-17.84-5.07-35.69-6.93-53.54-6.93
	c-48.75,0-97.51,13.86-146.26,13.86c-17.85,0-35.69-1.86-53.54-6.93c0-40,0-80,0-120c17.84,5.07,35.69,6.93,53.54,6.93
	C416.62,91.93,465.38,78.07,514.13,78.07 M514.14,69.07h-0.01c-25.01,0-50.11,3.57-74.39,7.02c-23.66,3.36-48.13,6.84-71.87,6.84
	c-18.78,0-35.48-2.15-51.08-6.59c-0.81-0.23-1.64-0.34-2.46-0.34c-1.94,0-3.84,0.62-5.43,1.82c-2.25,1.7-3.58,4.36-3.58,7.18v120
	c0,4.02,2.67,7.56,6.54,8.66c17.21,4.89,35.53,7.27,56,7.27c25.01,0,50.12-3.57,74.39-7.02c23.66-3.36,48.13-6.84,71.87-6.84
	c18.78,0,35.49,2.15,51.08,6.59c0.81,0.23,1.64,0.34,2.46,0.34c1.94,0,3.84-0.62,5.43-1.82c2.25-1.7,3.58-4.36,3.58-7.18V85
	c0-4.02-2.67-7.56-6.54-8.66C552.91,71.45,534.6,69.07,514.14,69.07L514.14,69.07z"/>
<path class="st4" d="M394.33,150.73c0-21.27,9.95-40.73,24.59-52.03c-24.64,3.18-49.28,5.3-73.92,2.77c0,11.02-8.96,19.24-20,16.85
	v58.67c11.05,2.38,20,12.07,20,23.15c24.63,2.53,49.26,0.42,73.89-2.76C404.27,189.76,394.33,172.13,394.33,150.73z M359.67,169.13
	c-8.84-0.28-16-8.89-16-18.46c0-9.58,7.16-16.48,16-16.21c8.84,0.3,16,7.77,16,17.36C375.67,161.37,368.5,169.42,359.67,169.13z"/>
<path class="st4" d="M537,89.86c-24.63-2.53-49.26-0.42-73.89,2.76c14.62,7.61,24.56,25.24,24.56,46.64
	c0,21.27-9.95,40.73-24.59,52.03c24.64-3.18,49.28-5.3,73.92-2.77c0-11.02,8.95-19.24,20-16.85V113
	C545.95,110.62,537,100.94,537,89.86z M522.33,155.54c-8.84-0.3-16-7.77-16-17.36c0-9.56,7.16-17.61,16-17.31
	c8.84,0.28,16,8.89,16,18.46C538.33,148.91,531.17,155.82,522.33,155.54z"/>
<path class="st1" d="M447.96,143.27c-1.58,0-2.91-1.24-2.99-2.84c-0.13-2.4,0.69-4.71,2.3-6.5s3.82-2.84,6.22-2.97
	c2.4-0.12,4.71,0.69,6.5,2.3s2.84,3.82,2.97,6.22c0.09,1.65-1.18,3.07-2.84,3.15c-1.66,0.06-3.07-1.18-3.15-2.84
	c-0.04-0.8-0.39-1.54-0.99-2.07c-0.6-0.54-1.37-0.82-2.17-0.77c-0.8,0.04-1.54,0.39-2.07,0.99c-0.54,0.6-0.81,1.37-0.77,2.17
	c0.09,1.65-1.18,3.07-2.84,3.15C448.07,143.27,448.01,143.27,447.96,143.27z"/>
<path class="st1" d="M418,144.84c-1.58,0-2.91-1.24-2.99-2.84c-0.13-2.4,0.69-4.71,2.3-6.5s3.82-2.84,6.22-2.97s4.71,0.69,6.5,2.3
	s2.84,3.82,2.97,6.22c0.09,1.65-1.18,3.07-2.84,3.15c-1.66,0.07-3.07-1.18-3.15-2.84c-0.04-0.8-0.39-1.54-0.99-2.07
	c-0.6-0.54-1.37-0.82-2.17-0.77c-1.65,0.09-2.93,1.5-2.84,3.16c0.09,1.65-1.18,3.07-2.84,3.15
	C418.11,144.84,418.06,144.84,418,144.84z"/>
<path class="st1" d="M464.04,152.73c-0.17-3.2-2.82-5.69-5.99-5.69c-0.11,0-0.21,0-0.32,0.01l-35.95,1.88
	c-3.31,0.17-5.85,3-5.68,6.31c0.67,12.75,11.19,22.74,23.95,22.74c0.42,0,0.85-0.01,1.27-0.03c6.4-0.34,12.29-3.14,16.58-7.91
	S464.38,159.13,464.04,152.73z"/>
<path class="st5" d="M441.02,171.96c5.32-0.28,9.96-2.85,13.06-6.69c-3.48-3.5-8.37-5.57-13.69-5.29
	c-5.32,0.28-9.96,2.85-13.06,6.69C430.81,170.17,435.7,172.24,441.02,171.96z"/>
<path class="st3" d="M448.86,571.43c-20.04,0-37.95-2.32-54.76-7.1c-1.94-0.55-3.27-2.32-3.27-4.33V440c0-1.41,0.66-2.74,1.79-3.59
	c0.79-0.6,1.74-0.91,2.71-0.91c0.41,0,0.83,0.06,1.23,0.17c16,4.55,33.11,6.76,52.31,6.76c24.06,0,48.68-3.5,72.5-6.88
	c24.12-3.43,49.07-6.97,73.76-6.97c20.04,0,37.96,2.32,54.77,7.1c1.93,0.55,3.27,2.32,3.27,4.33v120c0,1.41-0.66,2.74-1.79,3.59
	c-0.79,0.6-1.74,0.91-2.71,0.91c-0.41,0-0.83-0.06-1.23-0.17c-16-4.55-33.11-6.76-52.31-6.76c-24.06,0-48.69,3.5-72.5,6.88
	c-24.12,3.43-49.07,6.97-73.76,6.97C448.87,571.43,448.86,571.43,448.86,571.43z"/>
<path class="st1" d="M595.13,433.07c17.85,0,35.69,1.86,53.54,6.93c0,40,0,80,0,120c-17.84-5.07-35.69-6.93-53.54-6.93
	c-48.75,0-97.51,13.86-146.26,13.86c-17.85,0-35.69-1.86-53.54-6.93c0-40,0-80,0-120c17.84,5.07,35.69,6.93,53.54,6.93
	C497.62,446.93,546.38,433.07,595.13,433.07 M595.14,424.07v9V424.07c-25.02,0-50.12,3.57-74.4,7.02
	c-23.66,3.36-48.13,6.84-71.87,6.84c-18.78,0-35.48-2.15-51.08-6.59c-0.81-0.23-1.64-0.34-2.46-0.34c-1.94,0-3.84,0.62-5.43,1.82
	c-2.25,1.7-3.58,4.36-3.58,7.18v120c0,4.02,2.67,7.56,6.54,8.66c17.22,4.89,35.53,7.27,56,7.27c25.01,0,50.12-3.57,74.39-7.02
	c23.66-3.36,48.13-6.84,71.87-6.84c18.78,0,35.49,2.15,51.08,6.59c0.81,0.23,1.64,0.34,2.46,0.34c1.94,0,3.84-0.62,5.43-1.82
	c2.25-1.7,3.58-4.36,3.58-7.18V440c0-4.02-2.67-7.56-6.54-8.66C633.91,426.45,615.6,424.07,595.14,424.07L595.14,424.07z"/>
<path class="st4" d="M618,444.86c-24.63-2.53-49.26-0.42-73.89,2.76c14.62,7.61,24.56,25.24,24.56,46.64
	c0,21.27-9.95,40.73-24.59,52.03c24.64-3.18,49.28-5.3,73.92-2.77c0-11.02,8.95-19.24,20-16.85V468
	C626.95,465.62,618,455.94,618,444.86z M603.33,510.54c-8.84-0.3-16-7.77-16-17.36c0-9.56,7.16-17.61,16-17.31
	c8.84,0.28,16,8.89,16,18.46C619.33,503.91,612.17,510.82,603.33,510.54z"/>
<path class="st4" d="M475.33,505.73c0-21.27,9.95-40.73,24.59-52.03c-24.64,3.18-49.28,5.3-73.92,2.77c0,11.02-8.95,19.24-20,16.85
	v58.67c11.05,2.38,20,12.07,20,23.15c24.63,2.53,49.26,0.42,73.89-2.76C485.27,544.76,475.33,527.13,475.33,505.73z M440.67,524.13
	c-8.84-0.28-16-8.89-16-18.46c0-9.58,7.16-16.48,16-16.21c8.84,0.3,16,7.77,16,17.36C456.67,516.37,449.5,524.42,440.67,524.13z"/>
<circle class="st1" cx="535.03" cy="491.87" r="9"/>
<circle class="st6" cx="537.27" cy="491.76" r="2.25"/>
<circle class="st1" cx="505.07" cy="493.44" r="9"/>
<circle class="st6" cx="507.32" cy="493.33" r="2.25"/>
<path class="st7" d="M866.62,434.5c-7.44,0-13.5-6.06-13.5-13.5V289c0-7.44,6.06-13.5,13.5-13.5h207c7.44,0,13.5,6.06,13.5,13.5v132
	c0,7.44-6.06,13.5-13.5,13.5H866.62z"/>
<g>
	<path class="st1" d="M1073.62,280c4.97,0,9,4.03,9,9v132c0,4.97-4.03,9-9,9h-207c-4.97,0-9-4.03-9-9V289c0-4.97,4.03-9,9-9H1073.62
		 M1073.62,271h-207c-9.93,0-18,8.07-18,18v132c0,9.93,8.07,18,18,18h207c9.93,0,18-8.07,18-18V289
		C1091.62,279.07,1083.55,271,1073.62,271L1073.62,271z"/>
</g>
<path class="st8" d="M960.63,388.72L857.63,280v24.42l90.43,96.46c5.93,6.32,15.96,6.32,21.89,0l8.55-9.12
	C972.7,394.77,965.36,393.76,960.63,388.72z"/>
<path class="st1" d="M970.12,397.57c-5.37,0-10.55-2.25-14.23-6.16L854.34,283.08c-1.7-1.81-1.61-4.66,0.21-6.36
	c1.81-1.7,4.66-1.61,6.36,0.21l101.56,108.33c2.01,2.14,4.73,3.32,7.66,3.32s5.65-1.18,7.66-3.32l101.56-108.33
	c1.7-1.81,4.55-1.9,6.36-0.21c1.81,1.7,1.9,4.55,0.21,6.36L984.35,391.41C980.68,395.32,975.49,397.57,970.12,397.57z"/>
<path class="st1" d="M1082.63,434.5c-1.23,0-2.46-0.5-3.35-1.49l-67.5-75c-1.66-1.85-1.51-4.69,0.33-6.36s4.69-1.51,6.36,0.33
	l67.5,75c1.66,1.85,1.51,4.69-0.33,6.36C1084.78,434.12,1083.7,434.5,1082.63,434.5z"/>
<path class="st1" d="M857.62,434.5c-1.07,0-2.15-0.38-3.01-1.16c-1.85-1.66-2-4.51-0.33-6.36l67.5-75c1.66-1.85,4.51-2,6.36-0.33
	s2,4.51,0.33,6.36l-67.5,75C860.08,434,858.85,434.5,857.62,434.5z"/>
<path class="st1" d="M958.16,329.65c-2.07,0-3.75-1.68-3.75-3.75s-1.68-3.75-3.75-3.75s-3.75,1.68-3.75,3.75s-1.68,3.75-3.75,3.75
	s-3.75-1.68-3.75-3.75c0-6.2,5.05-11.25,11.25-11.25s11.25,5.05,11.25,11.25C961.91,327.97,960.23,329.65,958.16,329.65z"/>
<path class="st1" d="M997.09,329.65c-2.07,0-3.75-1.68-3.75-3.75s-1.68-3.75-3.75-3.75s-3.75,1.68-3.75,3.75s-1.68,3.75-3.75,3.75
	s-3.75-1.68-3.75-3.75c0-6.2,5.05-11.25,11.25-11.25s11.25,5.05,11.25,11.25C1000.84,327.97,999.16,329.65,997.09,329.65z"/>
<path class="st9" d="M1040.62,455.5c-2.06,0-3.87-1.41-4.37-3.41l-6-24c-0.34-1.34-0.03-2.77,0.82-3.86s2.16-1.73,3.55-1.73h12
	c2.49,0,4.5,2.01,4.5,4.5v24c0,2.49-2.01,4.5-4.5,4.5H1040.62z"/>
<g>
	<path class="st1" d="M1046.62,427v24h-6l-6-24H1046.62 M1046.62,418h-12c-2.77,0-5.39,1.28-7.09,3.46s-2.31,5.03-1.64,7.72l6,24
		c1,4.01,4.6,6.82,8.73,6.82h6c4.97,0,9-4.03,9-9v-24C1055.62,422.03,1051.6,418,1046.62,418L1046.62,418z"/>
</g>
<path class="st9" d="M1016.62,419.5c-4.14,0-7.5-3.36-7.5-7.5v-12c0-4.14,3.36-7.5,7.5-7.5h9c4.14,0,7.5,3.36,7.5,7.5v12
	c0,4.14-3.36,7.5-7.5,7.5H1016.62z"/>
<g>
	<path class="st1" d="M1025.62,397c1.66,0,3,1.34,3,3v12c0,1.66-1.34,3-3,3h-9c-1.66,0-3-1.34-3-3v-12c0-1.66,1.34-3,3-3H1025.62
		 M1025.62,388h-9c-6.62,0-12,5.38-12,12v12c0,6.62,5.38,12,12,12h9c6.62,0,12-5.38,12-12v-12
		C1037.62,393.38,1032.24,388,1025.62,388L1025.62,388z"/>
</g>
<path class="st9" d="M1088.63,436c-1.29,0-2.55-0.56-3.42-1.58c-0.16-0.19-12.58-14.3-32.58-14.3c-2.49,0-4.5-2.01-4.5-4.5v-19.25
	c0-2.49,2.01-4.5,4.5-4.5c20.03,0,32.46-14.16,32.58-14.3c0.87-1.01,2.13-1.57,3.42-1.57c0.52,0,1.05,0.09,1.56,0.28
	c1.76,0.65,2.94,2.33,2.94,4.21v51c0,1.89-1.18,3.57-2.95,4.22C1089.67,435.91,1089.15,436,1088.63,436z"/>
<path class="st1" d="M1088.62,380.5v51c0,0-13.5-15.88-36-15.88v-19.25C1075.12,396.38,1088.62,380.5,1088.62,380.5 M1088.63,371.45
	c-2.6,0-5.11,1.12-6.84,3.2c-0.7,0.8-11.54,12.73-29.16,12.73c-4.97,0-9,4.03-9,9v19.25c0,2.39,0.95,4.68,2.64,6.36
	c1.69,1.69,3.98,2.64,6.36,2.64c17.84,0,29.04,12.58,29.14,12.71c1.74,2.05,4.27,3.17,6.86,3.17c1.04,0,2.09-0.18,3.1-0.55
	c3.54-1.3,5.89-4.67,5.89-8.45v-51c0-3.79-2.34-7.23-5.91-8.51C1090.7,371.62,1089.66,371.45,1088.63,371.45L1088.63,371.45z"/>
<path class="st10" d="M1052.62,396.38v6c22.5,0,36-12.88,36-12.88v-9C1088.62,380.5,1075.12,396.38,1052.62,396.38z"/>
<path class="st9" d="M1096.12,446.5c-4.96,0-9-4.04-9-9v-63c0-4.96,4.04-9,9-9s9,4.04,9,9v63
	C1105.12,442.46,1101.09,446.5,1096.12,446.5z"/>
<g>
	<path class="st1" d="M1096.12,370c2.49,0,4.5,2.01,4.5,4.5v63c0,2.49-2.01,4.5-4.5,4.5s-4.5-2.01-4.5-4.5v-63
		C1091.62,372.01,1093.64,370,1096.12,370 M1096.12,361c-7.44,0-13.5,6.06-13.5,13.5v63c0,7.44,6.06,13.5,13.5,13.5
		s13.5-6.06,13.5-13.5v-63C1109.62,367.06,1103.57,361,1096.12,361L1096.12,361z"/>
</g>
<path class="st10" d="M1096.12,370c-2.49,0-4.5,2.01-4.5,4.5V388c0-2.49,2.01-4.5,4.5-4.5s4.5,2.01,4.5,4.5v-13.5
	C1100.62,372.01,1098.61,370,1096.12,370z"/>
<path class="st9" d="M1031.62,427c-4.14,0-7.5-3.36-7.5-7.5v-27c0-4.14,3.36-7.5,7.5-7.5h18c4.14,0,7.5,3.36,7.5,7.5v27
	c0,4.14-3.36,7.5-7.5,7.5H1031.62z"/>
<g>
	<path class="st1" d="M1049.62,389.5c1.66,0,3,1.34,3,3v27c0,1.66-1.34,3-3,3h-18c-1.66,0-3-1.34-3-3v-27c0-1.66,1.34-3,3-3H1049.62
		 M1049.62,380.5h-18c-6.62,0-12,5.38-12,12v27c0,6.62,5.38,12,12,12h18c6.62,0,12-5.38,12-12v-27
		C1061.62,385.88,1056.24,380.5,1049.62,380.5L1049.62,380.5z"/>
</g>
<path class="st10" d="M1028.62,395.5h24v-3c0-1.66-1.34-3-3-3h-18c-1.66,0-3,1.34-3,3V395.5z"/>
<path class="st1" d="M988.13,333.71h-36.01c-3.31,0-6,2.69-6,6c0,13.23,10.77,24,24,24c13.17,0,23.89-10.66,24-23.8
	c0-0.07,0-0.13,0-0.2C994.13,336.4,991.44,333.71,988.13,333.71z"/>
<path class="st5" d="M970.12,357.71c5.32,0,10.09-2.33,13.39-6c-3.3-3.67-8.07-6-13.39-6s-10.09,2.33-13.39,6
	C960.03,355.38,964.8,357.71,970.12,357.71z"/>
<path class="st7" d="M653.3,220.27c-7.44,0-13.5-6.06-13.5-13.5v-132c0-7.44,6.06-13.5,13.5-13.5h207c7.44,0,13.5,6.06,13.5,13.5
	v132c0,7.44-6.06,13.5-13.5,13.5H653.3z"/>
<g>
	<path class="st1" d="M860.3,65.77c4.97,0,9,4.03,9,9v132c0,4.97-4.03,9-9,9h-207c-4.97,0-9-4.03-9-9v-132c0-4.97,4.03-9,9-9
		L860.3,65.77 M860.3,56.77h-207c-9.93,0-18,8.07-18,18v132c0,9.93,8.07,18,18,18h207c9.93,0,18-8.07,18-18v-132
		C878.3,64.84,870.22,56.77,860.3,56.77L860.3,56.77z"/>
</g>
<path class="st8" d="M747.3,174.48l-103-108.71v24.42l90.43,96.46c5.93,6.32,15.96,6.32,21.89,0l8.55-9.12
	C759.37,180.54,752.03,179.53,747.3,174.48z"/>
<path class="st1" d="M756.8,183.34c-5.37,0-10.55-2.25-14.23-6.16L641.01,68.85c-1.7-1.81-1.61-4.66,0.21-6.36
	c1.81-1.7,4.66-1.61,6.36,0.21l101.56,108.33c2.01,2.14,4.73,3.32,7.66,3.32s5.65-1.18,7.66-3.32L866.01,62.69
	c1.7-1.81,4.55-1.9,6.36-0.21c1.81,1.7,1.9,4.55,0.21,6.36L771.02,177.17C767.35,181.09,762.17,183.34,756.8,183.34z"/>
<path class="st1" d="M869.3,220.27c-1.23,0-2.46-0.5-3.35-1.49l-67.5-75c-1.66-1.85-1.51-4.69,0.33-6.35
	c1.85-1.66,4.69-1.51,6.36,0.33l67.5,75c1.66,1.85,1.51,4.69-0.33,6.35C871.45,219.89,870.37,220.27,869.3,220.27z"/>
<path class="st1" d="M644.29,220.27c-1.07,0-2.15-0.38-3.01-1.16c-1.85-1.66-2-4.51-0.33-6.35l67.5-75c1.66-1.85,4.51-2,6.36-0.33
	c1.85,1.66,2,4.51,0.33,6.35l-67.5,75C646.75,219.77,645.53,220.27,644.29,220.27z"/>
<path class="st1" d="M757.34,133.98c-7.93,0-16.07-2.13-23.1-6.4c-1.42-0.86-1.87-2.7-1.01-4.12c0.86-1.42,2.7-1.87,4.12-1.01
	c12.01,7.29,28.29,7.3,38.73,0.04c1.36-0.95,3.23-0.61,4.18,0.75s0.61,3.23-0.75,4.18C773.22,131.79,765.38,133.98,757.34,133.98z"
	/>
<path class="st1" d="M750.53,138.64c3.04,0.93,6.29,1.16,9.44,0.73c1.05-0.16,2.08-0.39,3.08-0.73c1.95-0.67,3.5,1.81,2.08,3.26
	l-1.07,1.12c-4.25,4.02-11.49,3.08-15.47-0.85C746.91,140.74,748.45,138,750.53,138.64L750.53,138.64z"/>
<path class="st1" d="M744.83,115.42c-2.07,0-3.75-1.68-3.75-3.75s-1.68-3.75-3.75-3.75s-3.75,1.68-3.75,3.75s-1.68,3.75-3.75,3.75
	s-3.75-1.68-3.75-3.75c0-6.2,5.05-11.25,11.25-11.25s11.25,5.05,11.25,11.25C748.58,113.74,746.9,115.42,744.83,115.42z"/>
<path class="st1" d="M783.76,115.42c-2.07,0-3.75-1.68-3.75-3.75s-1.68-3.75-3.75-3.75s-3.75,1.68-3.75,3.75s-1.68,3.75-3.75,3.75
	s-3.75-1.68-3.75-3.75c0-6.2,5.05-11.25,11.25-11.25s11.25,5.05,11.25,11.25C787.51,113.74,785.83,115.42,783.76,115.42z"/>
<path class="st7" d="M126.5,423.5c-7.44,0-13.5-6.06-13.5-13.5V278c0-7.44,6.06-13.5,13.5-13.5h207c7.44,0,13.5,6.06,13.5,13.5v132
	c0,7.44-6.06,13.5-13.5,13.5H126.5z"/>
<g>
	<path class="st1" d="M333.5,269c4.97,0,9,4.03,9,9v132c0,4.97-4.03,9-9,9h-207c-4.97,0-9-4.03-9-9V278c0-4.97,4.03-9,9-9H333.5
		 M333.5,260h-207c-9.93,0-18,8.07-18,18v132c0,9.93,8.07,18,18,18h207c9.93,0,18-8.07,18-18V278C351.5,268.07,343.43,260,333.5,260
		L333.5,260z"/>
</g>
<path class="st8" d="M220.51,377.72L117.5,269v24.42l90.43,96.46c5.93,6.32,15.96,6.32,21.89,0l8.55-9.12
	C232.58,383.77,225.24,382.76,220.51,377.72z"/>
<path class="st1" d="M230,386.57c-5.37,0-10.55-2.25-14.23-6.16L114.22,272.08c-1.7-1.81-1.61-4.66,0.21-6.36
	c1.81-1.7,4.66-1.61,6.36,0.21l101.56,108.33c2.01,2.14,4.73,3.32,7.66,3.32s5.65-1.18,7.66-3.32l101.56-108.33
	c1.7-1.81,4.55-1.9,6.36-0.21c1.81,1.7,1.91,4.55,0.21,6.36L244.23,380.41C240.55,384.32,235.37,386.57,230,386.57z"/>
<path class="st1" d="M342.5,423.5c-1.23,0-2.46-0.5-3.35-1.49l-67.5-75c-1.66-1.85-1.51-4.69,0.33-6.36
	c1.85-1.66,4.69-1.51,6.35,0.33l67.5,75c1.66,1.85,1.51,4.69-0.33,6.36C344.65,423.12,343.57,423.5,342.5,423.5z"/>
<path class="st1" d="M117.5,423.5c-1.07,0-2.15-0.38-3.01-1.16c-1.85-1.66-2-4.51-0.33-6.36l67.5-75c1.66-1.85,4.51-2,6.35-0.33
	c1.85,1.66,2,4.51,0.33,6.36l-67.5,75C119.96,423,118.73,423.5,117.5,423.5z"/>
<path class="st11" d="M110,432.5c-2.13,0-3.97-1.5-4.41-3.58l-7.5-36c-0.28-1.33,0.06-2.71,0.91-3.76s2.14-1.66,3.49-1.66h63
	c1.35,0,2.64,0.61,3.49,1.66s1.19,2.43,0.91,3.76l-7.5,36c-0.43,2.09-2.27,3.58-4.41,3.58H110z"/>
<circle class="st12" cx="104" cy="458" r="10.5"/>
<circle class="st12" cx="152" cy="458" r="10.5"/>
<circle class="st1" cx="249.5" cy="307.7" r="10.5"/>
<circle class="st6" cx="252.12" cy="307.7" r="2.62"/>
<circle class="st1" cx="210.5" cy="307.7" r="10.5"/>
<circle class="st6" cx="213.12" cy="307.7" r="2.62"/>
<path class="st1" d="M158,437c4.26,0,7.94-2.99,8.81-7.16l7.44-35.73c0.16-0.68,0.25-1.38,0.25-2.11c0-4.97-4.03-9-9-9h-64.96
	l-2.66-11.51c-0.02-0.1-0.07-0.2-0.1-0.3c-0.05-0.17-0.1-0.34-0.17-0.51c-0.05-0.12-0.13-0.24-0.19-0.35
	c-0.08-0.14-0.15-0.28-0.24-0.4c-0.08-0.12-0.18-0.22-0.27-0.32c-0.1-0.11-0.19-0.23-0.3-0.33c-0.1-0.09-0.2-0.17-0.31-0.25
	c-0.12-0.1-0.24-0.2-0.37-0.29c-0.11-0.07-0.22-0.12-0.33-0.18c-0.14-0.08-0.29-0.16-0.44-0.22c-0.13-0.05-0.26-0.08-0.39-0.12
	c-0.15-0.04-0.29-0.09-0.45-0.12c-0.16-0.03-0.33-0.04-0.49-0.05c-0.12-0.01-0.23-0.04-0.35-0.04H80c-2.49,0-4.5,2.01-4.5,4.5
	s2.01,4.5,4.5,4.5h9.92l3.61,15.65c0.03,0.4,0.08,0.79,0.16,1.18l7.5,36c0.41,1.97,1.45,3.66,2.87,4.92l-1.67,8.34
	C94.88,443.89,89,450.27,89,458c0,8.27,6.73,15,15,15c6.7,0,12.39-4.42,14.31-10.5h19.38c1.92,6.08,7.6,10.5,14.31,10.5
	c8.27,0,15-6.73,15-15s-6.73-15-15-15c-6.7,0-12.39,4.42-14.31,10.5h-19.38c-1.17-3.71-3.74-6.8-7.09-8.64l1.57-7.86H158z M131,428
	h-7.51c0-0.12,0.01-0.25-0.01-0.37l-0.89-7.13H131V428z M131,414.5h-9.16l-1.12-9H131V414.5z M154.98,392.37
	c0.02-0.13,0.01-0.25,0.01-0.37h10.51l-1.56,7.5h-9.85L154.98,392.37z M153.34,405.5h9.35l-1.88,9h-8.6L153.34,405.5z M151.46,420.5
	h8.1L158,428h-7.48L151.46,420.5z M137,392h11.98l-0.94,7.5H137V392z M137,405.5h10.29l-1.12,9H137V405.5z M137,420.5h8.41
	l-0.89,7.13c-0.02,0.13-0.01,0.25-0.01,0.37H137V420.5z M131,392v7.5h-11.04l-0.94-7.5H131z M117.48,428H110l-1.56-7.5h8.1
	L117.48,428z M115.79,414.5h-8.6l-1.88-9h9.35L115.79,414.5z M102.5,392h10.51c0,0.12-0.01,0.25,0.01,0.37l0.89,7.13h-9.85
	L102.5,392z M104,464c-3.31,0-6-2.69-6-6s2.69-6,6-6s6,2.69,6,6S107.31,464,104,464z M152,452c3.31,0,6,2.69,6,6s-2.69,6-6,6
	s-6-2.69-6-6S148.69,452,152,452z"/>
<g>
	<path class="st1" d="M982.15,302.68c5.02-5.04,14-5.68,19.5-1.01c2.44,2,6.63,7.23,2.38,9.4c-1.08,0.5-2.18,0.15-3.15-0.34
		c-1.39-0.68-2.56-1.55-3.91-2.08c-3.63-1.83-7.68-1.4-11.6-0.92l-1.66-0.24C981.42,307.26,980.47,304.19,982.15,302.68
		L982.15,302.68z"/>
</g>
<g>
	<path class="st1" d="M954.88,307.74c-2.6-0.25-5.64-0.74-8.15-0.18c-2.66,0.42-4.96,1.87-7.36,3.18l-0.76,0.33
		c-1.54,0.67-3.33-0.04-4-1.59c-1.05-2.57,2.07-6.25,3.99-7.81c3.58-3.11,9.26-3.93,13.66-2.47c2.77,0.96,8.89,3.88,5.92,7.46
		C957.43,307.57,955.93,307.57,954.88,307.74L954.88,307.74z"/>
</g>
<g>
	<g>
		<path class="st2" d="M851.3,229.27c-9.71,0-18.91-3.27-26.35-9.29l-4.41,4.41c-0.86,0.86-2.01,1.32-3.18,1.32
			c-0.51,0-1.03-0.09-1.53-0.27c-1.64-0.59-2.79-2.08-2.95-3.82l-2.12-23.33c-0.12-1.33,0.36-2.65,1.3-3.59
			c0.85-0.85,1.99-1.32,3.18-1.32c0.13,0,0.27,0.01,0.41,0.02l23.33,2.12c1.74,0.16,3.23,1.31,3.82,2.95s0.19,3.48-1.05,4.71
			l-3.95,3.95c3.95,2.69,8.61,4.14,13.49,4.14c6.41,0,12.44-2.5,16.97-7.03c2.64-2.64,4.58-5.8,5.78-9.39
			c0.61-1.84,2.33-3.08,4.27-3.08h9.39c1.38,0,2.69,0.64,3.54,1.72c0.85,1.09,1.16,2.51,0.83,3.85c-1.83,7.42-5.66,14.2-11.08,19.62
			C873.06,224.9,862.51,229.27,851.3,229.27z"/>
	</g>
	<g>
		<path class="st1" d="M887.7,196.27L887.7,196.27 M887.7,196.27c-1.58,6.42-4.88,12.5-9.89,17.52
			c-7.32,7.32-16.92,10.98-26.52,10.98c-9.6,0-19.19-3.66-26.52-10.98l-7.42,7.42l-2.12-23.33l23.33,2.12l-7.42,7.42
			c5.56,5.56,12.86,8.35,20.15,8.35c7.29,0,14.59-2.78,20.15-8.35c3.24-3.24,5.51-7.08,6.86-11.15H887.7 M887.71,187.27
			L887.71,187.27L887.71,187.27C887.7,187.27,887.7,187.27,887.71,187.27h-9.4c-3.88,0-7.32,2.48-8.54,6.16
			c-0.97,2.92-2.55,5.49-4.69,7.63c-3.68,3.68-8.58,5.71-13.79,5.71c-2.03,0-4.02-0.31-5.9-0.9c2.11-2.45,2.75-5.86,1.64-8.93
			c-1.19-3.28-4.17-5.58-7.65-5.9l-23.33-2.12c-0.27-0.02-0.54-0.04-0.82-0.04c-2.38,0-4.67,0.94-6.36,2.64
			c-1.89,1.89-2.84,4.52-2.6,7.18l2.12,23.33c0.32,3.48,2.62,6.46,5.9,7.65c1,0.36,2.04,0.54,3.06,0.54c2.35,0,4.65-0.92,6.37-2.64
			l1.67-1.67c7.6,5.12,16.54,7.87,25.9,7.87c12.42,0,24.1-4.84,32.88-13.62c5.93-5.93,10.14-13.33,12.19-21.42
			c0.22-0.78,0.34-1.61,0.34-2.46C896.71,191.3,892.68,187.27,887.71,187.27L887.71,187.27z M887.7,205.27L887.7,205.27
			L887.7,205.27L887.7,205.27z"/>
	</g>
</g>
<g>
	<g>
		<path class="st2" d="M814.89,182.77c-1.38,0-2.69-0.64-3.54-1.72c-0.85-1.09-1.16-2.51-0.83-3.85c1.83-7.41,5.66-14.2,11.08-19.62
			c7.93-7.93,18.48-12.3,29.7-12.3c9.71,0,18.91,3.27,26.35,9.29l4.41-4.41c0.86-0.86,2.01-1.32,3.18-1.32
			c0.51,0,1.03,0.09,1.53,0.27c1.64,0.59,2.79,2.08,2.95,3.82l2.12,23.33c0.12,1.33-0.36,2.65-1.3,3.59
			c-0.85,0.85-1.99,1.32-3.18,1.32c-0.13,0-0.27-0.01-0.41-0.02l-23.33-2.12c-1.74-0.16-3.23-1.31-3.82-2.95s-0.19-3.48,1.05-4.71
			l3.95-3.95c-3.95-2.69-8.61-4.14-13.49-4.14c-6.41,0-12.44,2.5-16.97,7.03c-2.64,2.64-4.58,5.8-5.78,9.39
			c-0.61,1.84-2.33,3.08-4.27,3.08L814.89,182.77L814.89,182.77z"/>
	</g>
	<g>
		<path class="st1" d="M851.3,149.77c9.6,0,19.19,3.66,26.52,10.98l7.42-7.42l2.12,23.33l-23.33-2.12l7.42-7.42
			c-5.56-5.56-12.86-8.35-20.15-8.35c-7.29,0-14.59,2.78-20.15,8.35c-3.24,3.24-5.51,7.08-6.86,11.15h-9.39
			c1.58-6.42,4.88-12.5,9.89-17.52C832.1,153.43,841.7,149.77,851.3,149.77 M851.3,140.77c-12.42,0-24.1,4.84-32.88,13.62
			c-6,6-10.24,13.52-12.27,21.73c-0.66,2.69-0.05,5.53,1.66,7.7s4.32,3.45,7.08,3.45h9.39c3.88,0,7.32-2.48,8.54-6.16
			c0.97-2.92,2.55-5.49,4.69-7.63c3.68-3.68,8.58-5.71,13.79-5.71c2.03,0,4.02,0.31,5.9,0.9c-2.11,2.45-2.75,5.86-1.64,8.93
			c1.19,3.28,4.17,5.58,7.65,5.9l23.33,2.12c0.27,0.02,0.54,0.04,0.82,0.04c2.38,0,4.67-0.94,6.36-2.64
			c1.89-1.89,2.84-4.52,2.6-7.18l-2.12-23.33c-0.32-3.48-2.62-6.46-5.9-7.65c-1-0.36-2.04-0.54-3.06-0.54
			c-2.35,0-4.65,0.92-6.37,2.64l-1.67,1.67C869.6,143.52,860.66,140.77,851.3,140.77L851.3,140.77z"/>
	</g>
</g>
<g>
	<path class="st1" d="M768.82,88.45c5.02-5.04,14-5.68,19.5-1.01c2.44,2,6.63,7.23,2.38,9.4c-1.08,0.5-2.18,0.15-3.15-0.34
		c-1.39-0.68-2.56-1.55-3.91-2.08c-3.63-1.83-7.68-1.4-11.6-0.92l-1.66-0.24C768.09,93.02,767.14,89.96,768.82,88.45L768.82,88.45z"
		/>
</g>
<g>
	<path class="st1" d="M741.55,93.51c-2.6-0.25-5.64-0.74-8.15-0.18c-2.66,0.42-4.96,1.87-7.36,3.18l-0.76,0.33
		c-1.54,0.67-3.33-0.04-4-1.59c-1.05-2.57,2.07-6.25,3.99-7.81c3.58-3.11,9.26-3.93,13.66-2.47c2.77,0.96,8.89,3.88,5.92,7.46
		C744.1,93.34,742.6,93.34,741.55,93.51L741.55,93.51z"/>
</g>
<g>
	<path class="st1" d="M530.31,504.44c-0.89,0-1.73-0.53-2.09-1.41c-0.47-1.15,0.09-2.46,1.24-2.93c3.29-1.34,8.55-1.61,11.96-0.63
		c1.19,0.34,1.88,1.59,1.54,2.79c-0.34,1.19-1.59,1.88-2.78,1.54c-2.44-0.7-6.66-0.48-9.02,0.47
		C530.88,504.39,530.59,504.44,530.31,504.44z"/>
</g>
<g>
	<path class="st1" d="M500.35,506.01c-0.89,0-1.73-0.53-2.09-1.41c-0.47-1.15,0.09-2.46,1.24-2.93c3.29-1.33,8.55-1.61,11.96-0.63
		c1.19,0.34,1.88,1.59,1.54,2.79c-0.34,1.19-1.59,1.88-2.78,1.54c-2.45-0.71-6.66-0.48-9.02,0.47
		C500.92,505.96,500.63,506.01,500.35,506.01z"/>
</g>
<g>
	<path class="st1" d="M528.62,471.4c3.93-2.69,9.14-3.12,13.49-1.15c2.36,1.03,6.16,4.29,3.23,6.7c-0.72,0.55-1.58,0.54-2.41,0.41
		c-3.22-0.52-5.97-0.92-9.23-1.01c-1.32-0.08-2.99-0.06-4.23-0.45C527.4,475.46,526.88,472.54,528.62,471.4L528.62,471.4z"/>
</g>
<g>
	<path class="st1" d="M508.11,477.26c-2.02,0.5-4.48,0.7-6.49,1.12c-2.29,0.41-4.18,1.05-6.52,1.58c-2.13,0.55-3.93-1.98-2.79-3.81
		c2.46-4.28,7.97-5.88,12.6-5.21c2.38,0.36,6.95,1.59,5.36,4.89C509.84,476.68,508.93,477,508.11,477.26L508.11,477.26z"/>
</g>
<g>
	<path class="st1" d="M447.82,118.68c4.14-2.34,9.38-2.32,13.54,0.03c2.26,1.23,5.76,4.81,2.63,6.96c-0.76,0.48-1.63,0.4-2.43,0.2
		c-3.17-0.79-5.87-1.44-9.11-1.81c-1.31-0.2-2.97-0.32-4.17-0.82C446.25,122.63,445.99,119.67,447.82,118.68L447.82,118.68z"/>
</g>
<g>
	<path class="st1" d="M427.11,124.67c-2.98,0.94-6.29,1.49-9.2,2.58c-1.08,0.35-2.27,0.88-3.52,1.24c-1.36,0.43-2.81-0.33-3.24-1.69
		c-0.2-0.64-0.14-1.3,0.12-1.86c2.07-4.48,7.43-6.55,12.09-6.29c1.61,0.12,2.97,0.39,4.51,1.07c1.95,0.8,1.94,3.77,0.03,4.58
		C427.9,124.31,427.11,124.67,427.11,124.67L427.11,124.67z"/>
</g>
<g>
	<path class="st1" d="M256.25,320.83c-0.48,0-0.96-0.12-1.42-0.36c-2.84-1.52-7.82-1.52-10.67,0c-1.46,0.79-3.28,0.23-4.06-1.23
		c-0.78-1.46-0.23-3.28,1.23-4.06c4.58-2.46,11.75-2.46,16.33,0c1.46,0.78,2.01,2.6,1.23,4.06
		C258.35,320.26,257.32,320.83,256.25,320.83z"/>
</g>
<g>
	<path class="st1" d="M217.25,320.83c-0.48,0-0.96-0.12-1.42-0.36c-2.84-1.52-7.82-1.52-10.67,0c-1.46,0.79-3.28,0.23-4.06-1.23
		c-0.78-1.46-0.23-3.28,1.23-4.06c4.58-2.46,11.75-2.46,16.33,0c1.46,0.78,2.01,2.6,1.23,4.06
		C219.35,320.26,218.32,320.83,217.25,320.83z"/>
</g>
<g>
	<path class="st1" d="M244.74,287.05c5.79-2.94,13.65-1.65,17.8,3.55c2.1,2.53,4.54,8.42-0.08,9.39c-1.13,0.18-2.08-0.38-2.88-1.07
		c-1.21-0.94-2.06-1.83-3.04-2.42c-2.74-1.96-6.09-2.72-9.44-3.37c-0.82-0.07-1.73-0.63-2.41-0.97
		C242.62,291.18,242.67,287.99,244.74,287.05L244.74,287.05z"/>
</g>
<g>
	<path class="st1" d="M213.87,292.89c-0.46,0.19-1.5,0.33-2.04,0.46c-4.54,0.78-8.02,2.41-11.42,5.58
		c-1.41,1.39-3.59,1.54-4.88-0.09c-1.65-2.21,0.32-6.24,1.93-8.23c2.73-3.52,7.51-5.28,11.79-5.09c2.9,0.2,9,1.19,7.32,5.36
		C216.14,291.93,214.78,292.4,213.87,292.89L213.87,292.89z"/>
</g>
<g>
	<path class="st1" d="M519.68,520.67c-6.09,0-12.28-1.26-17.8-3.83c-1.5-0.7-2.15-2.48-1.45-3.99c0.7-1.5,2.48-2.15,3.99-1.45
		c10.52,4.9,24.39,4.19,32.99-1.69c1.37-0.94,3.24-0.58,4.17,0.79s0.58,3.23-0.78,4.17C534.97,518.64,527.4,520.67,519.68,520.67z"
		/>
</g>
<g>
	<path class="st1" d="M515.54,526.46c3.09,0.77,6.34,0.83,9.46,0.24c1.04-0.21,2.05-0.5,3.03-0.89c1.91-0.77,3.59,1.62,2.24,3.15
		l-1.01,1.18c-4.03,4.24-11.31,3.68-15.49-0.04C512.04,528.73,513.43,525.93,515.54,526.46L515.54,526.46z"/>
</g>
<g>
	<path class="st1" d="M230.54,337.21c-7.94,0-16.06-2.13-23.1-6.4c-1.42-0.86-1.87-2.7-1.01-4.12c0.86-1.42,2.7-1.87,4.12-1.01
		c12,7.29,28.29,7.3,38.73,0.04c1.36-0.95,3.23-0.61,4.18,0.75s0.61,3.23-0.75,4.18C246.43,335.02,238.58,337.21,230.54,337.21z"/>
</g>
<g>
	<path class="st1" d="M223.73,341.88c3.04,0.93,6.29,1.16,9.44,0.73c1.05-0.16,2.08-0.39,3.08-0.73c1.95-0.67,3.5,1.81,2.08,3.26
		l-1.07,1.12c-4.25,4.02-11.49,3.08-15.47-0.85C220.11,343.97,221.65,341.23,223.73,341.88L223.73,341.88z"/>
</g>
</svg>
