<?xml version="1.0" encoding="utf-8"?>
<!-- Generator: Adobe Illustrator 25.0.1, SVG Export Plug-In . SVG Version: 6.00 Build 0)  -->
<svg version="1.1" id="Layer_1" xmlns="http://www.w3.org/2000/svg" xmlns:xlink="http://www.w3.org/1999/xlink" x="0px" y="0px"
	 viewBox="0 0 400 400" style="enable-background:new 0 0 400 400;" xml:space="preserve">
<style type="text/css">
	.st0{fill:#1877F2;}
	.st1{fill:#FFFFFF;}
	.st2{fill:#515979;}
	.st3{fill:#667683;}
	.st4{fill:#EF7D7D;}
	.st5{fill:#FFE8A0;}
	.st6{fill:#7DDF96;}
	.st7{fill:#F6CB9F;}
	.st8{fill:#EBAF8C;}
	.st9{fill:#FDE1D9;}
	.st10{fill:#D1D6DA;}
	.st11{fill:#DBDBDB;}
</style>
<path class="st0" d="M100.7,19c-21.6,0-42.3,8.1-58.2,22.7S17,76.4,15.3,97.8c-1.7,21.5,4.8,42.8,18.2,59.7s32.6,28.2,53.9,31.5
	v-59.9H65.6v-24.6h21.7V85.7c0-21.4,12.8-33.3,32.3-33.3c6.4,0.1,12.8,0.6,19.2,1.7v21.1H128c-10.6,0-13.9,6.6-13.9,13.3v16.1h23.7
	l-3.8,24.7h-20v59.9c21.4-3.2,40.8-14.4,54.3-31.3c13.5-16.9,20-38.4,18.4-59.9c-1.7-21.6-11.5-41.7-27.5-56.4
	C143.3,26.9,122.4,18.8,100.7,19L100.7,19z"/>
<path class="st1" d="M363.3,156.1H91.7c-9.8,0-17.7,7.9-17.7,17.7v176.5c0,9.8,7.9,17.7,17.7,17.7h271.6c9.8,0,17.7-7.9,17.7-17.7
	V173.7C381,164,373.1,156.1,363.3,156.1z"/>
<path class="st2" d="M363.3,160.1c3.6,0,7.1,1.4,9.6,4c2.5,2.5,4,6,4,9.6v176.5c0,3.6-1.4,7.1-4,9.6c-2.5,2.5-6,4-9.6,4H91.7
	c-3.6,0-7.1-1.4-9.6-4c-2.5-2.5-4-6-4-9.6V173.7c0-3.6,1.4-7.1,4-9.6c2.5-2.5,6-4,9.6-4H363.3z M363.3,152H91.7
	c-5.8,0-11.3,2.3-15.4,6.4c-4.1,4.1-6.4,9.6-6.4,15.4v176.5c0,5.8,2.3,11.3,6.4,15.4c4.1,4.1,9.6,6.4,15.4,6.4h271.6
	c5.8,0,11.3-2.3,15.4-6.4c4.1-4.1,6.4-9.6,6.4-15.4V173.7c0-5.8-2.3-11.3-6.4-15.4C374.6,154.3,369.1,152,363.3,152L363.3,152z"/>
<path class="st3" d="M78.1,202.2c-1.1,0-2.1-0.4-2.9-1.2c-0.8-0.8-1.2-1.8-1.2-2.9v-24.4c0-4.7,1.9-9.2,5.2-12.5
	c3.3-3.3,7.8-5.2,12.5-5.2h271.6c4.7,0,9.2,1.9,12.5,5.2c3.3,3.3,5.2,7.8,5.2,12.5v24.4c0,1.1-0.4,2.1-1.2,2.9
	c-0.8,0.8-1.8,1.2-2.9,1.2H78.1z"/>
<path class="st2" d="M363.3,160.1c3.6,0,7.1,1.4,9.6,4c2.5,2.5,4,6,4,9.6v24.4H78.1v-24.4c0-3.6,1.4-7.1,4-9.6c2.5-2.5,6-4,9.6-4
	H363.3z M363.3,152H91.7c-5.8,0-11.3,2.3-15.4,6.4c-4.1,4.1-6.4,9.6-6.4,15.4v24.4c0,2.2,0.9,4.2,2.4,5.8c1.5,1.5,3.6,2.4,5.8,2.4
	h298.8c2.2,0,4.2-0.9,5.8-2.4c1.5-1.5,2.4-3.6,2.4-5.8v-24.4c0-5.8-2.3-11.3-6.4-15.4C374.6,154.3,369.1,152,363.3,152L363.3,152z"
	/>
<path class="st1" d="M200.4,188.7c-2.5,0-4.9-1-6.7-2.8c-1.8-1.8-2.8-4.2-2.8-6.7c0-2.5,1-4.9,2.8-6.7c1.8-1.8,4.2-2.8,6.7-2.8
	h154.8c2.5,0,4.9,1,6.7,2.8c1.8,1.8,2.8,4.2,2.8,6.7c0,2.5-1,4.9-2.8,6.7c-1.8,1.8-4.2,2.8-6.7,2.8H200.4z"/>
<path class="st2" d="M355.2,173.7c1.4,0,2.8,0.6,3.8,1.6c1,1,1.6,2.4,1.6,3.8c0,1.4-0.6,2.8-1.6,3.8c-1,1-2.4,1.6-3.8,1.6H200.4
	c-1.4,0-2.8-0.6-3.8-1.6c-1-1-1.6-2.4-1.6-3.8c0-1.4,0.6-2.8,1.6-3.8c1-1,2.4-1.6,3.8-1.6H355.2z M355.2,165.6H200.4
	c-3.6,0-7.1,1.4-9.6,4c-2.5,2.5-4,6-4,9.6c0,3.6,1.4,7.1,4,9.6c2.5,2.5,6,4,9.6,4h154.8c3.6,0,7.1-1.4,9.6-4s4-6,4-9.6
	c0-3.6-1.4-7.1-4-9.6S358.8,165.6,355.2,165.6z"/>
<path class="st4" d="M99.9,188.7c5.3,0,9.5-4.3,9.5-9.5c0-5.2-4.3-9.5-9.5-9.5c-5.3,0-9.5,4.3-9.5,9.5
	C90.4,184.4,94.6,188.7,99.9,188.7z"/>
<path class="st2" d="M99.9,173.7c1.1,0,2.1,0.3,3,0.9c0.9,0.6,1.6,1.4,2,2.4c0.4,1,0.5,2.1,0.3,3.1c-0.2,1.1-0.7,2-1.5,2.8
	c-0.8,0.8-1.7,1.3-2.8,1.5c-1.1,0.2-2.1,0.1-3.1-0.3s-1.8-1.1-2.4-2c-0.6-0.9-0.9-1.9-0.9-3c0-1.4,0.6-2.8,1.6-3.8
	C97.1,174.3,98.4,173.7,99.9,173.7L99.9,173.7z M99.9,165.6c-2.7,0-5.3,0.8-7.5,2.3c-2.2,1.5-4,3.6-5,6.1c-1,2.5-1.3,5.2-0.8,7.8
	s1.8,5.1,3.7,7s4.3,3.2,7,3.7s5.4,0.3,7.8-0.8c2.5-1,4.6-2.8,6.1-5c1.5-2.2,2.3-4.9,2.3-7.5c0-3.6-1.4-7.1-4-9.6
	C106.9,167,103.5,165.6,99.9,165.6z"/>
<path class="st5" d="M132.5,188.7c5.2,0,9.5-4.3,9.5-9.5c0-5.2-4.3-9.5-9.5-9.5c-5.2,0-9.5,4.3-9.5,9.5
	C123,184.4,127.2,188.7,132.5,188.7z"/>
<path class="st2" d="M132.5,173.7c1.1,0,2.1,0.3,3,0.9s1.6,1.4,2,2.4c0.4,1,0.5,2.1,0.3,3.1c-0.2,1.1-0.7,2-1.5,2.8
	c-0.8,0.8-1.7,1.3-2.8,1.5c-1.1,0.2-2.1,0.1-3.1-0.3c-1-0.4-1.8-1.1-2.4-2c-0.6-0.9-0.9-1.9-0.9-3c0-1.4,0.6-2.8,1.6-3.8
	C129.6,174.3,131,173.7,132.5,173.7L132.5,173.7z M132.5,165.6c-2.7,0-5.3,0.8-7.5,2.3c-2.2,1.5-4,3.6-5,6.1c-1,2.5-1.3,5.2-0.8,7.8
	s1.8,5.1,3.7,7c1.9,1.9,4.3,3.2,7,3.7c2.6,0.5,5.4,0.3,7.8-0.8c2.5-1,4.6-2.8,6.1-5c1.5-2.2,2.3-4.9,2.3-7.5c0-3.6-1.4-7.1-4-9.6
	C139.5,167,136.1,165.6,132.5,165.6L132.5,165.6z"/>
<path class="st6" d="M165.1,188.7c5.2,0,9.5-4.3,9.5-9.5c0-5.2-4.3-9.5-9.5-9.5c-5.3,0-9.5,4.3-9.5,9.5
	C155.6,184.4,159.8,188.7,165.1,188.7z"/>
<path class="st2" d="M165.1,173.7c1.1,0,2.1,0.3,3,0.9c0.9,0.6,1.6,1.4,2,2.4c0.4,1,0.5,2.1,0.3,3.1c-0.2,1.1-0.7,2-1.5,2.8
	c-0.8,0.8-1.7,1.3-2.8,1.5c-1.1,0.2-2.1,0.1-3.1-0.3s-1.8-1.1-2.4-2c-0.6-0.9-0.9-1.9-0.9-3c0-1.4,0.6-2.8,1.6-3.8
	C162.2,174.3,163.6,173.7,165.1,173.7L165.1,173.7z M165.1,165.6c-2.7,0-5.3,0.8-7.5,2.3c-2.2,1.5-4,3.6-5,6.1
	c-1,2.5-1.3,5.2-0.8,7.8s1.8,5.1,3.7,7s4.3,3.2,7,3.7c2.6,0.5,5.4,0.3,7.8-0.8c2.5-1,4.6-2.8,6.1-5c1.5-2.2,2.3-4.9,2.3-7.5
	c0-3.6-1.4-7.1-4-9.6C172.1,167,168.7,165.6,165.1,165.6z"/>
<path class="st7" d="M108,278.7c-3.3,0-6.6-1-9.4-2.9c-2.8-1.9-4.9-4.5-6.2-7.6c-1.3-3.1-1.6-6.5-1-9.8c0.6-3.3,2.2-6.3,4.6-8.7
	l26.9-26.9c3.2-2.9,7.5-4.5,11.8-4.4c4.4,0.1,8.5,1.9,11.6,5c3.1,3.1,4.9,7.3,5,11.6s-1.5,8.6-4.5,11.8L120,273.7
	c-1.6,1.6-3.4,2.8-5.5,3.7C112.5,278.3,110.3,278.7,108,278.7L108,278.7z"/>
<path class="st2" d="M134.9,221.3c3.6,0,7.1,1.4,9.6,4l0,0c2.5,2.5,4,6,4,9.6s-1.4,7.1-4,9.6l-26.9,26.9c-2.5,2.5-6,4-9.6,4
	s-7.1-1.4-9.6-4l0,0c-2.5-2.5-4-6-4-9.6c0-3.6,1.4-7.1,4-9.6l26.9-26.9C127.9,222.7,131.3,221.3,134.9,221.3L134.9,221.3z
	 M134.9,214.5c-2.7,0-5.3,0.5-7.8,1.5c-2.5,1-4.7,2.5-6.6,4.4l-26.9,26.9c-3.8,3.8-6,9-6,14.4c0,5.4,2.1,10.6,6,14.4
	c3.8,3.8,9,6,14.4,6c5.4,0,10.6-2.1,14.4-6l26.9-26.9c2.9-2.8,4.8-6.5,5.6-10.4c0.8-4,0.4-8-1.2-11.8c-1.5-3.7-4.2-6.9-7.5-9.1
	C142.9,215.7,138.9,214.5,134.9,214.5L134.9,214.5z"/>
<path class="st8" d="M130.1,232.7c1.5,0,2.7-1.2,2.7-2.7s-1.2-2.7-2.7-2.7s-2.7,1.2-2.7,2.7S128.6,232.7,130.1,232.7z"/>
<path class="st8" d="M139.7,242.4c1.5,0,2.7-1.2,2.7-2.7s-1.2-2.7-2.7-2.7c-1.5,0-2.7,1.2-2.7,2.7S138.2,242.4,139.7,242.4z"/>
<path class="st8" d="M131.1,241.4c1.5,0,2.7-1.2,2.7-2.7s-1.2-2.7-2.7-2.7s-2.7,1.2-2.7,2.7S129.6,241.4,131.1,241.4z"/>
<path class="st8" d="M138.8,233.7c1.5,0,2.7-1.2,2.7-2.7s-1.2-2.7-2.7-2.7s-2.7,1.2-2.7,2.7S137.3,233.7,138.8,233.7z"/>
<path class="st8" d="M122.4,240.4c1.5,0,2.7-1.2,2.7-2.7s-1.2-2.7-2.7-2.7s-2.7,1.2-2.7,2.7S120.9,240.4,122.4,240.4z"/>
<path class="st8" d="M132,250c1.5,0,2.7-1.2,2.7-2.7s-1.2-2.7-2.7-2.7s-2.7,1.2-2.7,2.7S130.5,250,132,250z"/>
<path class="st8" d="M110.9,252c1.5,0,2.7-1.2,2.7-2.7s-1.2-2.7-2.7-2.7s-2.7,1.2-2.7,2.7S109.4,252,110.9,252z"/>
<path class="st8" d="M120.5,261.6c1.5,0,2.7-1.2,2.7-2.7s-1.2-2.7-2.7-2.7s-2.7,1.2-2.7,2.7S119,261.6,120.5,261.6z"/>
<path class="st8" d="M111.9,260.6c1.5,0,2.7-1.2,2.7-2.7s-1.2-2.7-2.7-2.7s-2.7,1.2-2.7,2.7S110.4,260.6,111.9,260.6z"/>
<path class="st8" d="M104.2,268.3c1.5,0,2.7-1.2,2.7-2.7c0-1.5-1.2-2.7-2.7-2.7s-2.7,1.2-2.7,2.7
	C101.5,267.1,102.7,268.3,104.2,268.3z"/>
<path class="st8" d="M103.2,259.6c1.5,0,2.7-1.2,2.7-2.7c0-1.5-1.2-2.7-2.7-2.7s-2.7,1.2-2.7,2.7
	C100.5,258.4,101.7,259.6,103.2,259.6z"/>
<path class="st8" d="M112.8,269.2c1.5,0,2.7-1.2,2.7-2.7s-1.2-2.7-2.7-2.7s-2.7,1.2-2.7,2.7S111.3,269.2,112.8,269.2z"/>
<path class="st9" d="M171.9,256.7c1.9,0,3.4-1.5,3.4-3.4s-1.5-3.4-3.4-3.4s-3.4,1.5-3.4,3.4S170,256.7,171.9,256.7z"/>
<path class="st9" d="M179.3,271.6c1.9,0,3.4-1.5,3.4-3.4s-1.5-3.4-3.4-3.4s-3.4,1.5-3.4,3.4S177.4,271.6,179.3,271.6z"/>
<path class="st9" d="M164.4,271.6c1.9,0,3.4-1.5,3.4-3.4s-1.5-3.4-3.4-3.4s-3.4,1.5-3.4,3.4S162.5,271.6,164.4,271.6z"/>
<path class="st9" d="M283.2,256.7c1.9,0,3.4-1.5,3.4-3.4s-1.5-3.4-3.4-3.4s-3.4,1.5-3.4,3.4S281.3,256.7,283.2,256.7z"/>
<path class="st9" d="M290.7,271.6c1.9,0,3.4-1.5,3.4-3.4s-1.5-3.4-3.4-3.4s-3.4,1.5-3.4,3.4S288.8,271.6,290.7,271.6z"/>
<path class="st9" d="M275.7,271.6c1.9,0,3.4-1.5,3.4-3.4s-1.5-3.4-3.4-3.4s-3.4,1.5-3.4,3.4S273.9,271.6,275.7,271.6z"/>
<path class="st2" d="M203.1,288.5c-0.9,0-1.8-0.4-2.4-1c-0.6-0.6-1-1.5-1-2.4c0-7.4,2.9-14.5,8.2-19.7c5.2-5.2,12.3-8.2,19.7-8.2
	c7.4,0,14.5,2.9,19.7,8.2c5.2,5.2,8.2,12.3,8.2,19.7c0,0.9-0.4,1.8-1,2.4c-0.6,0.6-1.5,1-2.4,1H203.1z"/>
<path class="st2" d="M227.5,260.6c6.5,0,12.7,2.6,17.3,7.2c4.6,4.6,7.2,10.8,7.2,17.3h-48.9c0-6.5,2.6-12.7,7.2-17.3
	C214.8,263.2,221,260.6,227.5,260.6L227.5,260.6z M227.5,253.9c-8.3,0-16.2,3.3-22.1,9.1c-5.9,5.9-9.1,13.8-9.1,22.1
	c0,1.8,0.7,3.5,2,4.8c1.3,1.3,3,2,4.8,2H252c1.8,0,3.5-0.7,4.8-2c1.3-1.3,2-3,2-4.8c0-8.3-3.3-16.2-9.1-22.1
	C243.8,257.1,235.8,253.9,227.5,253.9L227.5,253.9z"/>
<path class="st2" d="M208.6,222c-0.6,0.2-1.5,0.2-2.2,0.4c-0.7,0.2-1.5,0.3-2.2,0.4c-1.3,0.3-2.6,0.7-3.8,1.2
	c-1.1,0.5-2.2,1.1-3.1,1.8c-1.1,0.8-2.1,1.7-3.1,2.7l-0.4,0.4c-0.6,0.5-1.3,0.7-2,0.7c-0.7,0-1.4-0.4-1.9-0.9
	c-0.3-0.3-0.5-0.7-0.6-1.1c-0.1-0.4-0.1-0.8-0.1-1.2c0.3-2.2,1.3-4.2,2.7-5.9c0.3-0.5,0.7-0.9,1.2-1.2c0.4-0.4,0.8-0.8,1.4-1.1
	c0.5-0.3,1-0.6,1.5-0.9c2.4-1.3,5.2-1.9,7.9-1.8c1,0,2.1,0.1,3.1,0.4c1,0.2,2.1,0.6,3,1c0.5,0.2,0.9,0.6,1.2,1.1
	c0.3,0.5,0.4,1,0.3,1.6c0,0.6-0.3,1.1-0.6,1.5c-0.4,0.4-0.8,0.7-1.4,0.9L208.6,222z"/>
<path class="st2" d="M245.2,216.7c1-0.5,2-0.8,3-1c1-0.2,2-0.4,3.1-0.4c2.8-0.1,5.5,0.6,7.9,1.9c0.5,0.3,1,0.6,1.5,0.9
	c0.5,0.3,0.9,0.7,1.4,1.1c0.4,0.4,0.8,0.8,1.2,1.2c1.4,1.7,2.4,3.7,2.7,5.9c0.1,0.6,0.1,1.2-0.2,1.7c-0.2,0.5-0.6,1-1.2,1.3
	c-0.5,0.3-1.1,0.4-1.7,0.3c-0.6-0.1-1.1-0.3-1.5-0.8l-0.4-0.4c-1-1-2-1.9-3.1-2.7c-1-0.8-2.1-1.4-3.2-1.8c-1.2-0.5-2.5-0.9-3.8-1.2
	c-0.7-0.1-1.4-0.3-2.2-0.4c-0.8-0.1-1.6-0.2-2.2-0.4l-0.8-0.2c-0.7-0.2-1.3-0.6-1.6-1.3c-0.4-0.6-0.5-1.4-0.3-2.1
	c0.1-0.4,0.3-0.7,0.5-1.1C244.5,217.1,244.8,216.9,245.2,216.7z"/>
<path class="st2" d="M256.8,251.8c-0.4,0-0.9-0.1-1.3-0.3c-0.4-0.2-0.8-0.4-1.1-0.7l-13.6-13.6c-0.6-0.6-1-1.5-1-2.4
	c0-0.9,0.4-1.8,1-2.4c0.6-0.6,1.5-1,2.4-1c0.9,0,1.8,0.4,2.4,1l13.6,13.6c0.5,0.5,0.8,1.1,0.9,1.7c0.1,0.7,0.1,1.3-0.2,2
	c-0.3,0.6-0.7,1.2-1.3,1.5C258.1,251.6,257.4,251.8,256.8,251.8L256.8,251.8z"/>
<path class="st2" d="M243.2,251.8c-0.4,0-0.9-0.1-1.3-0.3c-0.4-0.2-0.8-0.4-1.1-0.7c-0.6-0.6-1-1.5-1-2.4c0-0.9,0.4-1.8,1-2.4
	l13.6-13.6c0.6-0.6,1.5-1,2.4-1c0.9,0,1.8,0.4,2.4,1c0.6,0.6,1,1.5,1,2.4c0,0.9-0.4,1.8-1,2.4l-13.6,13.6c-0.3,0.3-0.7,0.6-1.1,0.7
	C244.1,251.7,243.6,251.8,243.2,251.8L243.2,251.8z"/>
<path class="st2" d="M211.9,251.8c-0.4,0-0.9-0.1-1.3-0.3c-0.4-0.2-0.8-0.4-1.1-0.7l-13.6-13.6c-0.6-0.6-1-1.5-1-2.4
	c0-0.9,0.4-1.8,1-2.4c0.6-0.6,1.5-1,2.4-1c0.9,0,1.8,0.4,2.4,1l13.6,13.6c0.6,0.6,1,1.5,1,2.4c0,0.9-0.4,1.8-1,2.4
	c-0.3,0.3-0.7,0.6-1.1,0.7C212.8,251.7,212.3,251.8,211.9,251.8z"/>
<path class="st2" d="M198.3,251.8c-0.4,0-0.9-0.1-1.3-0.3c-0.4-0.2-0.8-0.4-1.1-0.7c-0.6-0.6-1-1.5-1-2.4c0-0.9,0.4-1.8,1-2.4
	l13.6-13.6c0.3-0.3,0.7-0.6,1.1-0.7c0.4-0.2,0.9-0.3,1.3-0.3c0.4,0,0.9,0.1,1.3,0.3c0.4,0.2,0.8,0.4,1.1,0.7
	c0.3,0.3,0.6,0.7,0.7,1.1c0.2,0.4,0.3,0.9,0.3,1.3c0,0.4-0.1,0.9-0.3,1.3c-0.2,0.4-0.4,0.8-0.7,1.1l-13.6,13.6
	c-0.3,0.3-0.7,0.6-1.1,0.7C199.2,251.7,198.7,251.8,198.3,251.8L198.3,251.8z"/>
<path class="st10" d="M202.3,322.1h-9.2v9.2h9.2V322.1z"/>
<path class="st10" d="M184,322.1h-9.2v9.2h9.2V322.1z"/>
<path class="st10" d="M184,312.9h-9.2v9.2h9.2V312.9z"/>
<path class="st10" d="M184,331.3h-9.2v9.2h9.2V331.3z"/>
<path class="st10" d="M193.2,331.3H184v9.2h9.2V331.3z"/>
<path class="st10" d="M206.9,331.3h-13.7v9.2h13.7V331.3z"/>
<path class="st10" d="M202.3,340.4h-9.2v9.2h9.2V340.4z"/>
<path class="st10" d="M239,322.1h-9.2v9.2h9.2V322.1z"/>
<path class="st10" d="M220.7,322.1h-9.2v9.2h9.2V322.1z"/>
<path class="st10" d="M220.7,331.3h-9.2v9.2h9.2V331.3z"/>
<path class="st10" d="M239,340.4h-27.5v9.2H239V340.4z"/>
<path class="st10" d="M239,312.9h-27.5v9.2H239V312.9z"/>
<path class="st10" d="M239,331.3h-9.2v9.2h9.2V331.3z"/>
<path class="st10" d="M275.7,322.1h-9.2v9.2h9.2V322.1z"/>
<path class="st10" d="M257.3,322.1h-9.2v9.2h9.2V322.1z"/>
<path class="st10" d="M257.3,312.9h-9.2v9.2h9.2V312.9z"/>
<path class="st10" d="M257.3,331.3h-9.2v9.2h9.2V331.3z"/>
<path class="st10" d="M266.5,331.3h-9.2v9.2h9.2V331.3z"/>
<path class="st10" d="M280.2,331.3h-13.7v9.2h13.7V331.3z"/>
<path class="st10" d="M275.7,340.4h-9.2v9.2h9.2V340.4z"/>
<path class="st4" d="M239.8,315.6c-4.1,0-8.1-1.6-11-4.6c-2.9-2.9-4.6-6.9-4.6-11v-14.9c0-0.9,0.4-1.8,1-2.4c0.6-0.6,1.5-1,2.4-1
	H252c0.9,0,1.8,0.4,2.4,1c0.6,0.6,1,1.5,1,2.4V300c0,4.1-1.6,8.1-4.6,11C247.9,314,243.9,315.6,239.8,315.6L239.8,315.6z"/>
<path class="st2" d="M252,285.1V300c0,3.2-1.3,6.4-3.6,8.6c-2.3,2.3-5.4,3.6-8.6,3.6c-3.2,0-6.4-1.3-8.6-3.6
	c-2.3-2.3-3.6-5.4-3.6-8.6v-14.9H252z M252,278.3h-24.4c-1.8,0-3.5,0.7-4.8,2c-1.3,1.3-2,3-2,4.8V300c0,5,2,9.9,5.6,13.4
	c3.6,3.6,8.4,5.6,13.4,5.6c5,0,9.9-2,13.4-5.6c3.6-3.6,5.6-8.4,5.6-13.4v-14.9c0-1.8-0.7-3.5-2-4.8C255.5,279,253.8,278.3,252,278.3
	z"/>
<path class="st4" d="M234.3,291.9c3.8,0,6.8-3,6.8-6.8c0-3.8-3-6.8-6.8-6.8s-6.8,3-6.8,6.8C227.5,288.8,230.6,291.9,234.3,291.9z"/>
<path class="st4" d="M245.2,291.9c3.8,0,6.8-3,6.8-6.8c0-3.8-3-6.8-6.8-6.8s-6.8,3-6.8,6.8C238.4,288.8,241.4,291.9,245.2,291.9z"/>
<path class="st11" d="M330.3,328.9c-0.5,0-1.1-0.2-1.5-0.5c-0.4-0.3-0.8-0.7-1-1.2c-0.2-0.5-0.3-1-0.2-1.6c0.1-0.5,0.4-1,0.7-1.4
	l9.8-9.8c0.3-0.3,0.6-0.5,0.9-0.6c0.3-0.1,0.7-0.2,1-0.2s0.7,0.1,1,0.2c0.3,0.1,0.6,0.3,0.9,0.6c0.3,0.3,0.5,0.6,0.6,0.9
	c0.1,0.3,0.2,0.7,0.2,1c0,0.4-0.1,0.7-0.2,1c-0.1,0.3-0.3,0.6-0.6,0.9l-9.8,9.8C331.7,328.6,331,328.9,330.3,328.9z"/>
<path class="st11" d="M319.7,323.2c-0.5,0-1.1-0.2-1.5-0.5c-0.4-0.3-0.8-0.7-1-1.2c-0.2-0.5-0.3-1-0.2-1.6c0.1-0.5,0.4-1,0.7-1.4
	l14.9-14.9c0.2-0.3,0.5-0.5,0.9-0.6c0.3-0.2,0.7-0.2,1.1-0.2c0.4,0,0.7,0.1,1.1,0.2c0.3,0.1,0.7,0.3,0.9,0.6
	c0.3,0.3,0.5,0.6,0.6,0.9c0.1,0.3,0.2,0.7,0.2,1.1c0,0.4-0.1,0.7-0.2,1.1c-0.2,0.3-0.4,0.6-0.6,0.9l-14.9,14.9
	C321.1,322.9,320.4,323.2,319.7,323.2z"/>
</svg>
