<?xml version="1.0" encoding="utf-8"?>
<!-- Generator: Adobe Illustrator 26.0.2, SVG Export Plug-In . SVG Version: 6.00 Build 0)  -->
<svg version="1.1" id="Landing_x5F_Page_x5F_Hub-Landing_x5F_Page_x5F_Layout"
	 xmlns="http://www.w3.org/2000/svg" xmlns:xlink="http://www.w3.org/1999/xlink" x="0px" y="0px" viewBox="0 0 400 400"
	 style="enable-background:new 0 0 400 400;" xml:space="preserve">
<style type="text/css">
	.st0{fill:none;}
	.st1{fill:#FFD886;}
	.st2{fill:#D8EBFB;}
	.st3{fill:#515979;}
	.st4{fill:#FFE8A0;}
	.st5{fill:#667683;}
	.st6{fill:#FFFFFF;}
	.st7{fill:#EF7D7D;}
	.st8{fill:#7DDF96;}
	.st9{fill:#C3DEFF;}
	.st10{fill:none;stroke:#515979;stroke-width:3;stroke-linecap:round;stroke-linejoin:round;stroke-miterlimit:10;}
	.st11{fill:#F89D81;}
	.st12{fill:#F9B19A;}
	.st13{fill:#FBB040;}
	.st14{fill:#FFF1C6;}
	.st15{fill:#00C853;}
	.st16{fill:#6ADAF7;}
	.st17{fill:#B29D90;}
	.st18{fill:#FFF5F5;}
	.st19{fill:#46B9E6;}
	.st20{fill:#FDE4DD;}
	.st21{fill:#FDE1D9;}
</style>
<g>
	<rect y="0" transform="matrix(-1 -4.489266e-11 4.489266e-11 -1 400 400)" class="st0" width="400" height="400"/>
</g>
<g>
	<g>
		<path class="st1" d="M64.74,308.06c-2.98,0-5.4-2.42-5.4-5.4c0-0.99-0.81-1.8-1.8-1.8s-1.8,0.81-1.8,1.8c0,2.98-2.42,5.4-5.4,5.4
			c-0.99,0-1.8,0.81-1.8,1.8s0.81,1.8,1.8,1.8c2.98,0,5.4,2.42,5.4,5.4c0,0.99,0.81,1.8,1.8,1.8s1.8-0.81,1.8-1.8
			c0-2.98,2.42-5.4,5.4-5.4c0.99,0,1.8-0.81,1.8-1.8S65.73,308.06,64.74,308.06z"/>
	</g>
</g>
<g>
	<g>
		<circle class="st1" cx="314.7" cy="58.93" r="3"/>
	</g>
</g>
<g>
	<g>
		<circle class="st1" cx="239.85" cy="71.73" r="3"/>
	</g>
</g>
<g>
	<g>
		<circle class="st1" cx="149.46" cy="319.23" r="3"/>
	</g>
</g>
<g>
	<g>
		<circle class="st1" cx="211.21" cy="94.73" r="3"/>
	</g>
</g>
<g>
	<g>
		<circle class="st1" cx="170.28" cy="349.23" r="3"/>
	</g>
</g>
<g>
	<g>
		<circle class="st1" cx="80.54" cy="334.23" r="3"/>
	</g>
</g>
<g>
	<circle class="st1" cx="285.22" cy="48.93" r="4"/>
</g>
<g>
	<circle class="st1" cx="236.85" cy="106.73" r="4"/>
</g>
<g>
	<circle class="st1" cx="100.41" cy="318.86" r="4"/>
</g>
<g>
	<path class="st1" d="M356.2,31.7h-6v-6c0-1.66-1.34-3-3-3s-3,1.34-3,3v6h-6c-1.66,0-3,1.34-3,3s1.34,3,3,3h6v6c0,1.66,1.34,3,3,3
		s3-1.34,3-3v-6h6c1.66,0,3-1.34,3-3S357.85,31.7,356.2,31.7z"/>
	<path class="st1" d="M141.46,365.23h-6v-6c0-1.66-1.34-3-3-3s-3,1.34-3,3v6h-6c-1.66,0-3,1.34-3,3s1.34,3,3,3h6v6
		c0,1.66,1.34,3,3,3s3-1.34,3-3v-6h6c1.66,0,3-1.34,3-3S143.12,365.23,141.46,365.23z"/>
</g>
<g>
	<g>
		<path class="st1" d="M175.53,301.99c-2.17,0-3.94-1.77-3.94-3.94c0-0.72-0.59-1.31-1.31-1.31c-0.72,0-1.31,0.59-1.31,1.31
			c0,2.17-1.77,3.94-3.94,3.94c-0.72,0-1.31,0.59-1.31,1.31c0,0.72,0.59,1.31,1.31,1.31c2.17,0,3.94,1.77,3.94,3.94
			c0,0.72,0.59,1.31,1.31,1.31c0.72,0,1.31-0.59,1.31-1.31c0-2.17,1.77-3.94,3.94-3.94c0.72,0,1.31-0.59,1.31-1.31
			C176.84,302.57,176.26,301.99,175.53,301.99z"/>
	</g>
</g>
<g>
	<g>
		<path class="st1" d="M270.89,60.86c-2.17,0-3.94-1.77-3.94-3.94c0-0.72-0.59-1.31-1.31-1.31c-0.72,0-1.31,0.59-1.31,1.31
			c0,2.17-1.77,3.94-3.94,3.94c-0.72,0-1.31,0.59-1.31,1.31s0.59,1.31,1.31,1.31c2.17,0,3.94,1.77,3.94,3.94
			c0,0.72,0.59,1.31,1.31,1.31c0.72,0,1.31-0.59,1.31-1.31c0-2.17,1.77-3.94,3.94-3.94c0.72,0,1.31-0.59,1.31-1.31
			S271.62,60.86,270.89,60.86z"/>
	</g>
</g>
<g>
	<g>
		<path class="st1" d="M229.02,34.92c-2.17,0-3.94-1.77-3.94-3.94c0-0.72-0.59-1.31-1.31-1.31c-0.72,0-1.31,0.59-1.31,1.31
			c0,2.17-1.77,3.94-3.94,3.94c-0.72,0-1.31,0.59-1.31,1.31s0.59,1.31,1.31,1.31c2.17,0,3.94,1.77,3.94,3.94
			c0,0.72,0.59,1.31,1.31,1.31c0.72,0,1.31-0.59,1.31-1.31c0-2.17,1.77-3.94,3.94-3.94c0.72,0,1.31-0.59,1.31-1.31
			S229.74,34.92,229.02,34.92z"/>
	</g>
</g>
<g>
	<g>
		<g>
			<path class="st2" d="M24.28,285.73c-7.17,0-13-5.83-13-13v-250c0-7.17,5.83-13,13-13h140c7.17,0,13,5.83,13,13v250
				c0,7.17-5.83,13-13,13H24.28z"/>
		</g>
		<g>
			<path class="st3" d="M164.28,12.73c5.52,0,10,4.48,10,10v250c0,5.52-4.48,10-10,10h-140c-5.52,0-10-4.48-10-10v-250
				c0-5.52,4.48-10,10-10H164.28 M164.28,6.73h-140c-8.82,0-16,7.18-16,16v250c0,8.82,7.18,16,16,16h140c8.82,0,16-7.18,16-16v-250
				C180.28,13.91,173.11,6.73,164.28,6.73L164.28,6.73z"/>
		</g>
	</g>
	<g>
		<g>
			<path class="st4" d="M24.28,285.73c-7.17,0-13-5.83-13-13v-84c0-1.66,1.34-3,3-3h160c1.66,0,3,1.34,3,3v84c0,7.17-5.83,13-13,13
				H24.28z"/>
		</g>
		<g>
			<g>
				<path class="st3" d="M174.28,188.73v84c0,5.52-4.48,10-10,10h-140c-5.52,0-10-4.48-10-10v-84H174.28 M174.28,182.73h-160
					c-3.31,0-6,2.69-6,6v84c0,8.82,7.18,16,16,16h140c8.82,0,16-7.18,16-16v-84C180.28,185.42,177.6,182.73,174.28,182.73
					L174.28,182.73z"/>
			</g>
		</g>
	</g>
	<g>
		<g>
			<g>
				<path class="st5" d="M14.28,43.73c-1.66,0-3-1.34-3-3v-18c0-7.17,5.83-13,13-13h140c7.17,0,13,5.83,13,13v18c0,1.66-1.34,3-3,3
					H14.28z"/>
			</g>
			<g>
				<path class="st3" d="M164.28,12.73c5.52,0,10,4.48,10,10v18h-160v-18c0-5.52,4.48-10,10-10H164.28 M164.28,6.73h-140
					c-8.82,0-16,7.18-16,16v18c0,3.31,2.69,6,6,6h160c3.31,0,6-2.69,6-6v-18C180.28,13.91,173.11,6.73,164.28,6.73L164.28,6.73z"/>
			</g>
		</g>
		<g>
			<g>
				<path class="st6" d="M104.28,33.73c-3.86,0-7-3.14-7-7s3.14-7,7-7h54c3.86,0,7,3.14,7,7s-3.14,7-7,7H104.28z"/>
			</g>
			<g>
				<g>
					<path class="st3" d="M158.28,22.73c2.21,0,4,1.79,4,4s-1.79,4-4,4h-54c-2.21,0-4-1.79-4-4s1.79-4,4-4H158.28 M158.28,16.73h-54
						c-5.51,0-10,4.49-10,10s4.49,10,10,10h54c5.51,0,10-4.49,10-10S163.8,16.73,158.28,16.73L158.28,16.73z"/>
				</g>
			</g>
		</g>
		<g>
			<g>
				<circle class="st7" cx="30.28" cy="26.73" r="7"/>
			</g>
			<g>
				<g>
					<path class="st3" d="M30.28,22.73c2.21,0,4,1.79,4,4s-1.79,4-4,4c-2.21,0-4-1.79-4-4S28.07,22.73,30.28,22.73 M30.28,16.73
						c-5.51,0-10,4.49-10,10s4.49,10,10,10s10-4.49,10-10S35.8,16.73,30.28,16.73L30.28,16.73z"/>
				</g>
			</g>
		</g>
		<g>
			<g>
				<circle class="st4" cx="54.28" cy="26.73" r="7"/>
			</g>
			<g>
				<g>
					<path class="st3" d="M54.28,22.73c2.21,0,4,1.79,4,4s-1.79,4-4,4c-2.21,0-4-1.79-4-4S52.07,22.73,54.28,22.73 M54.28,16.73
						c-5.51,0-10,4.49-10,10s4.49,10,10,10s10-4.49,10-10S59.8,16.73,54.28,16.73L54.28,16.73z"/>
				</g>
			</g>
		</g>
		<g>
			<g>
				<circle class="st8" cx="78.28" cy="26.73" r="7"/>
			</g>
			<g>
				<g>
					<path class="st3" d="M78.28,22.73c2.21,0,4,1.79,4,4s-1.79,4-4,4c-2.21,0-4-1.79-4-4S76.07,22.73,78.28,22.73 M78.28,16.73
						c-5.51,0-10,4.49-10,10s4.49,10,10,10s10-4.49,10-10S83.8,16.73,78.28,16.73L78.28,16.73z"/>
				</g>
			</g>
		</g>
	</g>
	<g>
		<g>
			<g>
				<path class="st3" d="M110.31,79.51c-0.16,0-0.33-0.03-0.49-0.08c-1.6-0.55-4.42-0.55-6.02,0c-0.78,0.27-1.64-0.15-1.91-0.93
					c-0.27-0.78,0.15-1.64,0.93-1.91c2.24-0.77,5.74-0.77,7.98,0c0.78,0.27,1.2,1.12,0.93,1.91
					C111.51,79.12,110.93,79.51,110.31,79.51z"/>
			</g>
			<g>
				<g>
					<circle class="st3" cx="106.81" cy="71.31" r="6"/>
				</g>
				<g>
					<circle class="st6" cx="108.31" cy="71.31" r="1.5"/>
				</g>
			</g>
			<g>
				<path class="st3" d="M103.28,57.06c2.78-1.86,6.35-1.98,9.29-0.41c1.81,0.88,4.09,3.69,1.7,5.22c-0.54,0.34-1.19,0.29-1.79,0.24
					c-1.3-0.11-2.62-0.36-3.85-0.52c-1.52-0.24-3.43-0.34-4.87-0.93C102.22,60.17,101.93,57.93,103.28,57.06L103.28,57.06z"/>
			</g>
		</g>
		<g>
			<g>
				<path class="st3" d="M78.26,79.51c-0.62,0-1.2-0.39-1.42-1.01c-0.27-0.78,0.15-1.64,0.93-1.91c2.24-0.77,5.74-0.77,7.98,0
					c0.78,0.27,1.2,1.12,0.93,1.91c-0.27,0.78-1.13,1.2-1.91,0.93c-1.6-0.55-4.42-0.55-6.02,0C78.59,79.48,78.42,79.51,78.26,79.51z
					"/>
			</g>
			<g>
				<g>
					<circle class="st3" cx="81.76" cy="71.31" r="6"/>
				</g>
				<g>
					<circle class="st6" cx="83.26" cy="71.31" r="1.5"/>
				</g>
			</g>
			<g>
				<path class="st3" d="M84.13,60.89c-1.84,0.5-4.16,0.63-6.04,0.97c-0.74,0.1-1.73,0.26-2.62,0.29c-1.15,0.07-2.14-0.8-2.21-1.95
					c0.23-2.74,3.51-4.27,5.92-4.56c2.34-0.37,8.5,0.79,6.63,4.25C85.44,60.48,84.74,60.69,84.13,60.89L84.13,60.89z"/>
			</g>
		</g>
		<g>
			<path class="st3" d="M106.29,82.73L106.29,82.73h-24c-2.21,0-4,1.79-4,4c0,8.82,7.18,16,16,16c8.77,0,15.91-7.09,16-15.84
				c0-0.05,0-0.11,0-0.16C110.29,84.52,108.5,82.73,106.29,82.73z"/>
			<g>
				<g>
					<ellipse class="st7" cx="94.28" cy="94.73" rx="8.93" ry="4"/>
				</g>
			</g>
		</g>
	</g>
	<g>
		<path class="st6" d="M158.28,73.73c-2.87,0-5.32,1.72-6.41,4.19c-1.22-4.15-5.05-7.19-9.59-7.19c-5.52,0-10,4.48-10,10h33
			C165.28,76.87,162.15,73.73,158.28,73.73z"/>
	</g>
	<g>
		<path class="st6" d="M60.28,62.73c-1.89,0-3.57,0.88-4.67,2.24c-1.54-4.22-5.57-7.24-10.33-7.24c-4.36,0-8.12,2.54-9.9,6.22
			c-1.28-1.36-3.09-2.22-5.1-2.22c-3.87,0-7,3.13-7,7h43C66.28,65.42,63.6,62.73,60.28,62.73z"/>
	</g>
	<g>
		<g>
			<g>
				<g>
					<circle class="st9" cx="121.28" cy="80.73" r="2"/>
				</g>
			</g>
			<g>
				<g>
					<circle class="st9" cx="117.28" cy="86.73" r="2"/>
				</g>
			</g>
			<g>
				<g>
					<circle class="st9" cx="125.28" cy="86.73" r="2"/>
				</g>
			</g>
		</g>
		<g>
			<g>
				<g>
					<circle class="st9" cx="67.28" cy="80.73" r="2"/>
				</g>
			</g>
			<g>
				<g>
					<circle class="st9" cx="63.28" cy="86.73" r="2"/>
				</g>
			</g>
			<g>
				<g>
					<circle class="st9" cx="71.28" cy="86.73" r="2"/>
				</g>
			</g>
		</g>
	</g>
	<g>
		<g>
			<path class="st3" d="M145.28,261.23c-0.83,0-1.5-0.67-1.5-1.5c0-1.38-1.12-2.5-2.5-2.5s-2.5,1.12-2.5,2.5
				c0,0.83-0.67,1.5-1.5,1.5s-1.5-0.67-1.5-1.5c0-3.03,2.47-5.5,5.5-5.5s5.5,2.47,5.5,5.5
				C146.78,260.56,146.11,261.23,145.28,261.23z"/>
		</g>
		<g>
			<path class="st3" d="M153.28,261.23c-0.83,0-1.5-0.67-1.5-1.5c0-1.38-1.12-2.5-2.5-2.5s-2.5,1.12-2.5,2.5
				c0,0.83-0.67,1.5-1.5,1.5s-1.5-0.67-1.5-1.5c0-3.03,2.47-5.5,5.5-5.5s5.5,2.47,5.5,5.5
				C154.78,260.56,154.11,261.23,153.28,261.23z"/>
		</g>
		<g>
			<path class="st3" d="M161.28,261.23c-0.83,0-1.5-0.67-1.5-1.5c0-1.38-1.12-2.5-2.5-2.5s-2.5,1.12-2.5,2.5
				c0,0.83-0.67,1.5-1.5,1.5s-1.5-0.67-1.5-1.5c0-3.03,2.47-5.5,5.5-5.5s5.5,2.47,5.5,5.5
				C162.78,260.56,162.11,261.23,161.28,261.23z"/>
		</g>
	</g>
	<g>
		<g>
			<path class="st10" d="M31.28,272.73"/>
		</g>
		<g>
			<path class="st3" d="M39.28,274.23c-0.83,0-1.5-0.67-1.5-1.5c0-1.38-1.12-2.5-2.5-2.5s-2.5,1.12-2.5,2.5c0,0.83-0.67,1.5-1.5,1.5
				s-1.5-0.67-1.5-1.5c0-3.03,2.47-5.5,5.5-5.5s5.5,2.47,5.5,5.5C40.78,273.56,40.11,274.23,39.28,274.23z"/>
		</g>
		<g>
			<path class="st3" d="M47.28,274.23c-0.83,0-1.5-0.67-1.5-1.5c0-1.38-1.12-2.5-2.5-2.5s-2.5,1.12-2.5,2.5c0,0.83-0.67,1.5-1.5,1.5
				s-1.5-0.67-1.5-1.5c0-3.03,2.47-5.5,5.5-5.5s5.5,2.47,5.5,5.5C48.78,273.56,48.11,274.23,47.28,274.23z"/>
		</g>
	</g>
	<g>
		<g>
			<g>
				<path class="st11" d="M32.28,238.23c-0.42,0-0.83-0.18-1.11-0.49c-0.28-0.31-0.42-0.73-0.38-1.16l2-20
					c0.08-0.77,0.72-1.35,1.49-1.35h36c0.77,0,1.42,0.58,1.49,1.35l2,20c0.04,0.42-0.1,0.84-0.38,1.16
					c-0.28,0.31-0.69,0.49-1.11,0.49H32.28z"/>
			</g>
			<g>
				<g>
					<path class="st3" d="M70.28,216.73l2,20h-40l2-20H70.28 M70.28,213.73h-36c-1.54,0-2.83,1.17-2.99,2.7l-2,20
						c-0.08,0.84,0.19,1.68,0.76,2.31c0.57,0.63,1.38,0.99,2.22,0.99h40c0.85,0,1.66-0.36,2.22-0.99c0.57-0.63,0.85-1.47,0.76-2.31
						l-2-20C73.12,214.9,71.83,213.73,70.28,213.73L70.28,213.73z"/>
				</g>
			</g>
		</g>
		<g>
			<polygon class="st7" points="33.28,227.73 32.28,237.73 72.28,237.73 71.28,227.73 			"/>
		</g>
		<g>
			<polygon class="st12" points="70.28,216.73 34.28,216.73 34.08,218.73 70.48,218.73 			"/>
		</g>
		<g>
			<g>
				<path class="st1" d="M34.28,256.23c-0.76,0-1.39-0.56-1.49-1.31l-2-16c-0.05-0.43,0.08-0.86,0.36-1.18s0.69-0.51,1.12-0.51h40
					c0.43,0,0.84,0.18,1.12,0.51s0.42,0.75,0.36,1.18l-2,16c-0.09,0.75-0.73,1.31-1.49,1.31H34.28z"/>
			</g>
			<g>
				<g>
					<path class="st3" d="M72.28,238.73L72.28,238.73 M72.28,238.73l-2,16h-36l-2-16H72.28 M72.29,235.73L72.29,235.73H32.28
						c-0.86,0-1.68,0.37-2.25,1.01c-0.57,0.65-0.83,1.5-0.73,2.36l2,16c0.19,1.5,1.46,2.63,2.98,2.63h36c1.51,0,2.79-1.13,2.98-2.63
						l1.98-15.87c0.03-0.16,0.04-0.33,0.04-0.5C75.29,237.07,73.95,235.73,72.29,235.73L72.29,235.73z M72.28,241.73L72.28,241.73
						L72.28,241.73L72.28,241.73z"/>
				</g>
			</g>
		</g>
		<g>
			<polygon class="st13" points="32.53,240.73 33.03,244.73 71.53,244.73 72.03,240.73 			"/>
		</g>
		<g>
			<g>
				<polygon class="st11" points="39.14,249.23 37.89,239.23 66.68,239.23 65.43,249.23 				"/>
			</g>
			<g>
				<path class="st3" d="M64.98,240.73l-0.88,7H40.46l-0.87-7H64.98 M68.38,237.73L68.38,237.73L68.38,237.73z M68.38,237.73H36.19
					l1.62,13h28.94L68.38,237.73L68.38,237.73z"/>
			</g>
		</g>
		<g>
			<polygon class="st7" points="39.57,240.73 40.07,244.73 64.5,244.73 65,240.73 			"/>
		</g>
		<g>
			<g>
				<path class="st1" d="M50.28,237.23c-0.83,0-1.5-0.67-1.5-1.5v-20c0-0.83,0.67-1.5,1.5-1.5h4c0.83,0,1.5,0.67,1.5,1.5v20
					c0,0.83-0.67,1.5-1.5,1.5H50.28z"/>
			</g>
			<g>
				<path class="st3" d="M54.28,215.73v20h-4v-20H54.28 M54.28,212.73h-4c-1.66,0-3,1.34-3,3v20c0,1.66,1.34,3,3,3h4
					c1.66,0,3-1.34,3-3v-20C57.28,214.07,55.94,212.73,54.28,212.73L54.28,212.73z"/>
			</g>
		</g>
		<g>
			<rect x="50.28" y="215.73" class="st14" width="4" height="2"/>
		</g>
		<g>
			<rect x="50.28" y="226.73" class="st13" width="4" height="9"/>
		</g>
		<g>
			<g>
				<path class="st1" d="M68.28,237.23c-0.77,0-1.42-0.58-1.49-1.35l-2-20c-0.04-0.42,0.1-0.84,0.38-1.16
					c0.28-0.31,0.69-0.49,1.11-0.49h4c0.77,0,1.42,0.58,1.49,1.35l2,20c0.04,0.42-0.1,0.84-0.38,1.16
					c-0.28,0.31-0.69,0.49-1.11,0.49H68.28z"/>
			</g>
			<g>
				<g>
					<path class="st3" d="M70.28,215.73l2,20h-4l-2-20H70.28 M70.28,212.73h-4c-0.85,0-1.66,0.36-2.22,0.99
						c-0.57,0.63-0.85,1.47-0.76,2.31l2,20c0.15,1.53,1.44,2.7,2.99,2.7h4c0.85,0,1.66-0.36,2.22-0.99
						c0.57-0.63,0.85-1.47,0.76-2.31l-2-20C73.12,213.9,71.83,212.73,70.28,212.73L70.28,212.73z"/>
				</g>
			</g>
		</g>
		<g>
			<polygon class="st14" points="66.28,215.73 66.48,217.73 70.48,217.73 70.28,215.73 			"/>
		</g>
		<g>
			<polygon class="st13" points="67.38,226.73 68.28,235.73 72.28,235.73 71.38,226.73 			"/>
		</g>
		<g>
			<g>
				<path class="st1" d="M32.28,237.23c-0.42,0-0.83-0.18-1.11-0.49c-0.28-0.31-0.42-0.73-0.38-1.16l2-20
					c0.08-0.77,0.72-1.35,1.49-1.35h4c0.42,0,0.83,0.18,1.11,0.49c0.28,0.31,0.42,0.73,0.38,1.16l-2,20
					c-0.08,0.77-0.72,1.35-1.49,1.35H32.28z"/>
			</g>
			<g>
				<g>
					<path class="st3" d="M38.28,215.73L38.28,215.73 M38.28,215.73l-2,20h-4l2-20H38.28 M38.29,212.73L38.29,212.73h-4.01
						c-1.54,0-2.83,1.17-2.99,2.7l-2,20c-0.08,0.84,0.19,1.68,0.76,2.31c0.57,0.63,1.38,0.99,2.22,0.99h4c1.54,0,2.83-1.17,2.99-2.7
						l1.99-19.87c0.02-0.14,0.03-0.28,0.03-0.43C41.29,214.07,39.95,212.73,38.29,212.73L38.29,212.73z M38.28,218.73L38.28,218.73
						L38.28,218.73L38.28,218.73z"/>
				</g>
			</g>
		</g>
		<g>
			<polygon class="st14" points="34.28,215.73 34.08,217.73 38.08,217.73 38.28,215.73 			"/>
		</g>
		<g>
			<polygon class="st13" points="32.28,235.73 36.28,235.73 37.18,226.73 33.18,226.73 			"/>
		</g>
		<g>
			<g>
				<path class="st1" d="M29.28,241.23c-0.83,0-1.5-0.67-1.5-1.5v-4c0-0.83,0.67-1.5,1.5-1.5h46c0.83,0,1.5,0.67,1.5,1.5v4
					c0,0.83-0.67,1.5-1.5,1.5H29.28z"/>
			</g>
			<g>
				<path class="st3" d="M75.28,235.73v4h-46v-4H75.28 M75.28,232.73h-46c-1.66,0-3,1.34-3,3v4c0,1.66,1.34,3,3,3h46
					c1.66,0,3-1.34,3-3v-4C78.28,234.07,76.94,232.73,75.28,232.73L75.28,232.73z"/>
			</g>
		</g>
		<g>
			<g>
				<circle class="st1" cx="52.28" cy="237.73" r="5.5"/>
			</g>
			<g>
				<path class="st3" d="M52.28,233.73c2.21,0,4,1.79,4,4s-1.79,4-4,4c-2.21,0-4-1.79-4-4S50.07,233.73,52.28,233.73 M52.28,230.73
					c-3.86,0-7,3.14-7,7s3.14,7,7,7s7-3.14,7-7S56.14,230.73,52.28,230.73L52.28,230.73z"/>
			</g>
		</g>
		<g>
			<path class="st3" d="M53.17,237.94c0.37-0.27,0.62-0.71,0.62-1.21c0-0.83-0.67-1.5-1.5-1.5s-1.5,0.67-1.5,1.5
				c0,0.5,0.24,0.93,0.62,1.21l-0.12,1.79h2L53.17,237.94z"/>
		</g>
	</g>
	<g>
		<g>
			<g>
				<circle class="st15" cx="169.28" cy="120.73" r="7"/>
			</g>
			<g>
				<g>
					<path class="st3" d="M169.28,115.73c2.76,0,5,2.24,5,5s-2.24,5-5,5c-2.76,0-5-2.24-5-5S166.52,115.73,169.28,115.73
						 M169.28,111.73c-4.96,0-9,4.04-9,9s4.04,9,9,9s9-4.04,9-9S174.25,111.73,169.28,111.73L169.28,111.73z"/>
				</g>
			</g>
		</g>
		<g>
			<g>
				<circle class="st15" cx="154.28" cy="120.73" r="7"/>
			</g>
			<g>
				<g>
					<path class="st3" d="M154.28,115.73c2.76,0,5,2.24,5,5s-2.24,5-5,5c-2.76,0-5-2.24-5-5S151.52,115.73,154.28,115.73
						 M154.28,111.73c-4.96,0-9,4.04-9,9s4.04,9,9,9s9-4.04,9-9S159.25,111.73,154.28,111.73L154.28,111.73z"/>
				</g>
			</g>
		</g>
		<g>
			<g>
				<circle class="st15" cx="139.28" cy="120.73" r="7"/>
			</g>
			<g>
				<g>
					<path class="st3" d="M139.28,115.73c2.76,0,5,2.24,5,5s-2.24,5-5,5c-2.76,0-5-2.24-5-5S136.52,115.73,139.28,115.73
						 M139.28,111.73c-4.96,0-9,4.04-9,9s4.04,9,9,9s9-4.04,9-9S144.25,111.73,139.28,111.73L139.28,111.73z"/>
				</g>
			</g>
		</g>
		<g>
			<g>
				<circle class="st15" cx="124.28" cy="120.73" r="7"/>
			</g>
			<g>
				<g>
					<path class="st3" d="M124.28,115.73c2.76,0,5,2.24,5,5s-2.24,5-5,5c-2.76,0-5-2.24-5-5S121.52,115.73,124.28,115.73
						 M124.28,111.73c-4.96,0-9,4.04-9,9s4.04,9,9,9c4.96,0,9-4.04,9-9S129.25,111.73,124.28,111.73L124.28,111.73z"/>
				</g>
			</g>
		</g>
		<g>
			<g>
				<circle class="st15" cx="109.28" cy="120.73" r="7"/>
			</g>
			<g>
				<g>
					<path class="st3" d="M109.28,115.73c2.76,0,5,2.24,5,5s-2.24,5-5,5c-2.76,0-5-2.24-5-5S106.52,115.73,109.28,115.73
						 M109.28,111.73c-4.96,0-9,4.04-9,9s4.04,9,9,9s9-4.04,9-9S114.25,111.73,109.28,111.73L109.28,111.73z"/>
				</g>
			</g>
		</g>
		<g>
			<g>
				<circle class="st15" cx="94.28" cy="120.73" r="7"/>
			</g>
			<g>
				<g>
					<path class="st3" d="M94.28,115.73c2.76,0,5,2.24,5,5s-2.24,5-5,5c-2.76,0-5-2.24-5-5S91.52,115.73,94.28,115.73 M94.28,111.73
						c-4.96,0-9,4.04-9,9s4.04,9,9,9s9-4.04,9-9S99.25,111.73,94.28,111.73L94.28,111.73z"/>
				</g>
			</g>
		</g>
		<g>
			<g>
				<circle class="st15" cx="79.28" cy="120.73" r="7"/>
			</g>
			<g>
				<g>
					<path class="st3" d="M79.28,115.73c2.76,0,5,2.24,5,5s-2.24,5-5,5c-2.76,0-5-2.24-5-5S76.52,115.73,79.28,115.73 M79.28,111.73
						c-4.96,0-9,4.04-9,9s4.04,9,9,9s9-4.04,9-9S84.25,111.73,79.28,111.73L79.28,111.73z"/>
				</g>
			</g>
		</g>
		<g>
			<g>
				<circle class="st15" cx="64.28" cy="120.73" r="7"/>
			</g>
			<g>
				<g>
					<path class="st3" d="M64.28,115.73c2.76,0,5,2.24,5,5s-2.24,5-5,5c-2.76,0-5-2.24-5-5S61.52,115.73,64.28,115.73 M64.28,111.73
						c-4.96,0-9,4.04-9,9s4.04,9,9,9s9-4.04,9-9S69.25,111.73,64.28,111.73L64.28,111.73z"/>
				</g>
			</g>
		</g>
		<g>
			<g>
				<circle class="st15" cx="49.28" cy="120.73" r="7"/>
			</g>
			<g>
				<g>
					<path class="st3" d="M49.28,115.73c2.76,0,5,2.24,5,5s-2.24,5-5,5c-2.76,0-5-2.24-5-5S46.52,115.73,49.28,115.73 M49.28,111.73
						c-4.96,0-9,4.04-9,9s4.04,9,9,9s9-4.04,9-9S54.25,111.73,49.28,111.73L49.28,111.73z"/>
				</g>
			</g>
		</g>
		<g>
			<g>
				<circle class="st15" cx="34.28" cy="120.73" r="7"/>
			</g>
			<g>
				<g>
					<path class="st3" d="M34.28,115.73c2.76,0,5,2.24,5,5s-2.24,5-5,5c-2.76,0-5-2.24-5-5S31.52,115.73,34.28,115.73 M34.28,111.73
						c-4.96,0-9,4.04-9,9s4.04,9,9,9s9-4.04,9-9S39.25,111.73,34.28,111.73L34.28,111.73z"/>
				</g>
			</g>
		</g>
		<g>
			<g>
				<circle class="st15" cx="19.28" cy="120.73" r="7"/>
			</g>
			<g>
				<g>
					<path class="st3" d="M19.28,115.73c2.76,0,5,2.24,5,5s-2.24,5-5,5s-5-2.24-5-5S16.52,115.73,19.28,115.73 M19.28,111.73
						c-4.96,0-9,4.04-9,9s4.04,9,9,9c4.96,0,9-4.04,9-9S24.25,111.73,19.28,111.73L19.28,111.73z"/>
				</g>
			</g>
		</g>
	</g>
	<g>
		<g>
			<path class="st8" d="M154.28,199.92c-5.7,0-8.65-2.36-11.25-4.44c-2.39-1.91-4.45-3.56-8.75-3.56c-4.3,0-6.36,1.65-8.75,3.56
				c-2.6,2.08-5.55,4.44-11.25,4.44s-8.65-2.36-11.25-4.44c-2.39-1.91-4.45-3.56-8.75-3.56s-6.36,1.65-8.75,3.56
				c-2.6,2.08-5.55,4.44-11.25,4.44s-8.65-2.36-11.25-4.44c-2.39-1.91-4.45-3.56-8.75-3.56c-4.3,0-6.36,1.65-8.75,3.56
				c-2.6,2.08-5.55,4.44-11.25,4.44s-8.65-2.36-11.25-4.44c-2.39-1.91-4.45-3.56-8.75-3.56h-2.01l0.3-70.19h163.71v70.19h-2
				c-4.3,0-6.36,1.65-8.75,3.56C162.93,197.56,159.98,199.92,154.28,199.92z"/>
		</g>
		<g>
			<path class="st3" d="M174.28,123.73v66.19c-10,0-10,8-20,8c-10,0-10-8-20-8c-10,0-10,8-20,8c-10,0-10-8-20-8c-10,0-10,8-20,8
				c-10,0-10-8-20-8c-10,0-10,8-20,8c-10,0-10-8-20-8l0.28-66.19H174.28 M178.28,119.73h-4H14.56h-3.98l-0.02,3.98l-0.28,66.19
				l-0.02,4.02h4.02c3.6,0,5.15,1.24,7.5,3.12c2.72,2.17,6.09,4.88,12.5,4.88c6.4,0,9.78-2.7,12.5-4.88c2.35-1.88,3.9-3.12,7.5-3.12
				c3.6,0,5.15,1.24,7.5,3.12c2.72,2.17,6.1,4.88,12.5,4.88c6.4,0,9.78-2.7,12.5-4.88c2.35-1.88,3.9-3.12,7.5-3.12
				c3.6,0,5.15,1.24,7.5,3.12c2.72,2.17,6.1,4.88,12.5,4.88c6.4,0,9.78-2.7,12.5-4.88c2.35-1.88,3.9-3.12,7.5-3.12
				c3.6,0,5.15,1.24,7.5,3.12c2.72,2.17,6.1,4.88,12.5,4.88c6.4,0,9.78-2.7,12.5-4.88c2.35-1.88,3.91-3.12,7.5-3.12h4v-4v-66.19
				V119.73L178.28,119.73z"/>
		</g>
	</g>
	<g>
		<g>
			<path class="st3" d="M32.28,180.23c-0.83,0-1.5-0.67-1.5-1.5c0-1.38-1.12-2.5-2.5-2.5s-2.5,1.12-2.5,2.5c0,0.83-0.67,1.5-1.5,1.5
				s-1.5-0.67-1.5-1.5c0-3.03,2.47-5.5,5.5-5.5s5.5,2.47,5.5,5.5C33.78,179.56,33.11,180.23,32.28,180.23z"/>
		</g>
		<g>
			<path class="st3" d="M40.28,180.23c-0.83,0-1.5-0.67-1.5-1.5c0-1.38-1.12-2.5-2.5-2.5s-2.5,1.12-2.5,2.5c0,0.83-0.67,1.5-1.5,1.5
				s-1.5-0.67-1.5-1.5c0-3.03,2.47-5.5,5.5-5.5s5.5,2.47,5.5,5.5C41.78,179.56,41.11,180.23,40.28,180.23z"/>
		</g>
		<g>
			<path class="st3" d="M48.28,180.23c-0.83,0-1.5-0.67-1.5-1.5c0-1.38-1.12-2.5-2.5-2.5s-2.5,1.12-2.5,2.5c0,0.83-0.67,1.5-1.5,1.5
				s-1.5-0.67-1.5-1.5c0-3.03,2.47-5.5,5.5-5.5s5.5,2.47,5.5,5.5C49.78,179.56,49.11,180.23,48.28,180.23z"/>
		</g>
	</g>
	<g>
		<g>
			<path class="st10" d="M74.28,172.73"/>
		</g>
		<g>
			<path class="st3" d="M82.28,174.23c-0.83,0-1.5-0.67-1.5-1.5c0-1.38-1.12-2.5-2.5-2.5s-2.5,1.12-2.5,2.5c0,0.83-0.67,1.5-1.5,1.5
				s-1.5-0.67-1.5-1.5c0-3.03,2.47-5.5,5.5-5.5s5.5,2.47,5.5,5.5C83.78,173.56,83.11,174.23,82.28,174.23z"/>
		</g>
		<g>
			<path class="st3" d="M90.28,174.23c-0.83,0-1.5-0.67-1.5-1.5c0-1.38-1.12-2.5-2.5-2.5s-2.5,1.12-2.5,2.5c0,0.83-0.67,1.5-1.5,1.5
				s-1.5-0.67-1.5-1.5c0-3.03,2.47-5.5,5.5-5.5s5.5,2.47,5.5,5.5C91.78,173.56,91.11,174.23,90.28,174.23z"/>
		</g>
	</g>
	<g>
		<g>
			<path class="st3" d="M72.28,137.73h-44c-1.1,0-2-0.9-2-2l0,0c0-1.1,0.9-2,2-2h44c1.1,0,2,0.9,2,2l0,0
				C74.28,136.84,73.39,137.73,72.28,137.73z"/>
		</g>
		<g>
			<path class="st3" d="M80.28,145.73h-52c-1.1,0-2-0.9-2-2l0,0c0-1.1,0.9-2,2-2h52c1.1,0,2,0.9,2,2l0,0
				C82.28,144.84,81.39,145.73,80.28,145.73z"/>
		</g>
		<g>
			<path class="st3" d="M80.28,153.73h-52c-1.1,0-2-0.9-2-2l0,0c0-1.1,0.9-2,2-2h52c1.1,0,2,0.9,2,2l0,0
				C82.28,152.84,81.39,153.73,80.28,153.73z"/>
		</g>
		<g>
			<path class="st3" d="M60.28,161.73h-32c-1.1,0-2-0.9-2-2l0,0c0-1.1,0.9-2,2-2h32c1.1,0,2,0.9,2,2l0,0
				C62.28,160.84,61.39,161.73,60.28,161.73z"/>
		</g>
	</g>
	<g>
		<g>
			<path class="st3" d="M152.28,220.73h-56c-1.1,0-2-0.9-2-2l0,0c0-1.1,0.9-2,2-2h56c1.1,0,2,0.9,2,2l0,0
				C154.28,219.84,153.39,220.73,152.28,220.73z"/>
		</g>
		<g>
			<path class="st3" d="M138.28,228.73h-42c-1.1,0-2-0.9-2-2l0,0c0-1.1,0.9-2,2-2h42c1.1,0,2,0.9,2,2l0,0
				C140.28,227.84,139.39,228.73,138.28,228.73z"/>
		</g>
		<g>
			<path class="st3" d="M148.28,236.73h-52c-1.1,0-2-0.9-2-2l0,0c0-1.1,0.9-2,2-2h52c1.1,0,2,0.9,2,2l0,0
				C150.28,235.84,149.39,236.73,148.28,236.73z"/>
		</g>
		<g>
			<path class="st3" d="M122.28,244.73h-26c-1.1,0-2-0.9-2-2l0,0c0-1.1,0.9-2,2-2h26c1.1,0,2,0.9,2,2l0,0
				C124.28,243.84,123.39,244.73,122.28,244.73z"/>
		</g>
	</g>
	<g>
		<g>
			<path class="st16" d="M174.23,174.73c-15.96-0.39-21.69-6.48-27.24-12.37c-3.77-4-7.32-7.79-14.28-9.82
				c-12.8-3.75-19.04-11.32-22.01-17.01c-3.24-6.2-3.42-11.51-3.42-11.73l-0.05-2.05h69.05v53.05L174.23,174.73z"/>
		</g>
		<g>
			<path class="st3" d="M174.28,123.73v49c-25.96-0.64-23.08-16.86-41-22.12c-23.47-6.88-24-26.88-24-26.88H174.28 M178.28,119.73
				h-4h-65h-4.11l0.11,4.11c0.01,0.24,0.2,6,3.65,12.61c3.16,6.03,9.75,14.06,23.22,18.01c6.43,1.89,9.65,5.31,13.38,9.28
				c5.55,5.9,11.84,12.59,28.64,13l4.1,0.1v-4.1v-49V119.73L178.28,119.73z"/>
		</g>
	</g>
	<g>
		<g>
			<path class="st3" d="M131.1,138.7c-0.83,0-1.5-0.67-1.5-1.5s0.67-1.5,1.5-1.5c1.38,0,2.5-1.12,2.5-2.5c0-0.83,0.67-1.5,1.5-1.5
				s1.5,0.67,1.5,1.5C136.6,136.23,134.14,138.7,131.1,138.7z"/>
		</g>
		<g>
			<path class="st3" d="M139.1,138.7c-3.03,0-5.5-2.47-5.5-5.5c0-0.83,0.67-1.5,1.5-1.5s1.5,0.67,1.5,1.5c0,1.38,1.12,2.5,2.5,2.5
				s2.5-1.12,2.5-2.5c0-0.83,0.67-1.5,1.5-1.5s1.5,0.67,1.5,1.5C144.6,136.23,142.14,138.7,139.1,138.7z"/>
		</g>
		<g>
			<path class="st3" d="M147.1,138.7c-3.03,0-5.5-2.47-5.5-5.5c0-0.83,0.67-1.5,1.5-1.5s1.5,0.67,1.5,1.5c0,1.38,1.12,2.5,2.5,2.5
				c0.83,0,1.5,0.67,1.5,1.5S147.93,138.7,147.1,138.7z"/>
		</g>
	</g>
	<g>
		<g>
			<path class="st3" d="M158.1,152.7c-0.83,0-1.5-0.67-1.5-1.5s0.67-1.5,1.5-1.5c1.38,0,2.5-1.12,2.5-2.5c0-0.83,0.67-1.5,1.5-1.5
				s1.5,0.67,1.5,1.5C163.6,150.23,161.14,152.7,158.1,152.7z"/>
		</g>
		<g>
			<path class="st3" d="M166.1,152.7c-3.03,0-5.5-2.47-5.5-5.5c0-0.83,0.67-1.5,1.5-1.5s1.5,0.67,1.5,1.5c0,1.38,1.12,2.5,2.5,2.5
				c0.83,0,1.5,0.67,1.5,1.5S166.93,152.7,166.1,152.7z"/>
		</g>
	</g>
	<g>
		<g>
			<circle class="st15" cx="138.28" cy="175.73" r="5"/>
		</g>
		<g>
			<path class="st3" d="M138.28,172.73c1.66,0,3,1.34,3,3c0,1.66-1.34,3-3,3c-1.66,0-3-1.34-3-3
				C135.28,174.07,136.63,172.73,138.28,172.73 M138.28,168.73c-3.86,0-7,3.14-7,7c0,3.86,3.14,7,7,7s7-3.14,7-7
				C145.28,171.87,142.14,168.73,138.28,168.73L138.28,168.73z"/>
		</g>
	</g>
	<g>
		<g>
			<circle class="st15" cx="114.28" cy="163.73" r="7"/>
		</g>
		<g>
			<path class="st3" d="M114.28,158.73c2.76,0,5,2.24,5,5c0,2.76-2.24,5-5,5c-2.76,0-5-2.24-5-5
				C109.28,160.97,111.52,158.73,114.28,158.73 M114.28,154.73c-4.96,0-9,4.04-9,9c0,4.96,4.04,9,9,9s9-4.04,9-9
				C123.28,158.77,119.25,154.73,114.28,154.73L114.28,154.73z"/>
		</g>
	</g>
	<g>
		<g>
			<g>
				<path class="st17" d="M92.28,284.73v-2c0-5.51,4.49-10,10-10s10,4.49,10,10v2H92.28z"/>
			</g>
			<g>
				<path class="st3" d="M102.28,274.73c4.42,0,8,3.58,8,8h-16C94.28,278.31,97.87,274.73,102.28,274.73 M102.28,270.73
					c-6.62,0-12,5.38-12,12v4h4h16h4v-4C114.28,276.11,108.9,270.73,102.28,270.73L102.28,270.73z"/>
			</g>
		</g>
		<g>
			<g>
				<path class="st17" d="M78.28,284.73v-2c0-3.86,3.14-7,7-7s7,3.14,7,7v2H78.28z"/>
			</g>
			<g>
				<path class="st3" d="M85.28,277.73c2.76,0,5,2.24,5,5h-10C80.28,279.97,82.52,277.73,85.28,277.73 M85.28,273.73
					c-4.96,0-9,4.04-9,9v4h4h10h4v-4C94.28,277.77,90.25,273.73,85.28,273.73L85.28,273.73z"/>
			</g>
		</g>
	</g>
</g>
<g>
	<g>
		<g>
			<path class="st6" d="M222.7,391.73c-7.17,0-13-5.83-13-13v-244c0-7.17,5.83-13,13-13h140c7.17,0,13,5.83,13,13v244
				c0,7.17-5.83,13-13,13H222.7z"/>
		</g>
		<g>
			<path class="st3" d="M362.7,124.73c5.52,0,10,4.48,10,10v244c0,5.52-4.48,10-10,10h-140c-5.52,0-10-4.48-10-10v-244
				c0-5.52,4.48-10,10-10H362.7 M362.7,118.73h-140c-8.82,0-16,7.18-16,16v244c0,8.82,7.18,16,16,16h140c8.82,0,16-7.18,16-16v-244
				C378.7,125.91,371.52,118.73,362.7,118.73L362.7,118.73z"/>
		</g>
	</g>
	<g>
		<path class="st16" d="M362.7,388.73h-140c-5.52,0-10-4.48-10-10v-48h160v48C372.7,384.25,368.22,388.73,362.7,388.73z"/>
	</g>
	<g>
		<g>
			<rect x="210.7" y="218.73" class="st18" width="164" height="110"/>
		</g>
		<g>
			<path class="st3" d="M372.7,220.73v106h-160v-106H372.7 M376.7,216.73h-4h-160h-4v4v106v4h4h160h4v-4v-106V216.73L376.7,216.73z"
				/>
		</g>
	</g>
	<g>
		<g>
			<path class="st3" d="M268.7,354.73h-40c-1.1,0-2-0.9-2-2l0,0c0-1.1,0.9-2,2-2h40c1.1,0,2,0.9,2,2l0,0
				C270.7,353.84,269.8,354.73,268.7,354.73z"/>
		</g>
		<g>
			<path class="st3" d="M260.7,370.73h-32c-1.1,0-2-0.9-2-2l0,0c0-1.1,0.9-2,2-2h32c1.1,0,2,0.9,2,2l0,0
				C262.7,369.84,261.8,370.73,260.7,370.73z"/>
		</g>
		<g>
			<path class="st3" d="M272.7,346.73h-44c-1.1,0-2-0.9-2-2l0,0c0-1.1,0.9-2,2-2h44c1.1,0,2,0.9,2,2l0,0
				C274.7,345.84,273.8,346.73,272.7,346.73z"/>
		</g>
		<g>
			<path class="st3" d="M274.7,362.73h-46c-1.1,0-2-0.9-2-2l0,0c0-1.1,0.9-2,2-2h46c1.1,0,2,0.9,2,2l0,0
				C276.7,361.84,275.8,362.73,274.7,362.73z"/>
		</g>
	</g>
	<g>
		<path class="st3" d="M243.7,267.23c-10.75,0-19.5-8.75-19.5-19.5s8.75-19.5,19.5-19.5s19.5,8.75,19.5,19.5
			S254.45,267.23,243.7,267.23z M243.7,233.23c-8,0-14.5,6.5-14.5,14.5s6.5,14.5,14.5,14.5s14.5-6.5,14.5-14.5
			S251.69,233.23,243.7,233.23z"/>
	</g>
	<g>
		<path class="st16" d="M243.7,268.73v-8c7.17,0,13-5.83,13-13s-5.83-13-13-13v-8c11.58,0,21,9.42,21,21S255.28,268.73,243.7,268.73
			z"/>
	</g>
	<g>
		<path class="st3" d="M233.7,246.32c0.16-0.03,0.32-0.05,0.47-0.07c0.15-0.01,0.3-0.02,0.44-0.02c0.46,0,0.87,0.07,1.22,0.21
			c0.35,0.14,0.65,0.33,0.89,0.57c0.24,0.24,0.42,0.53,0.54,0.85c0.12,0.33,0.18,0.68,0.18,1.05c0,0.47-0.08,0.9-0.25,1.28
			c-0.17,0.39-0.4,0.72-0.69,1c-0.3,0.28-0.65,0.5-1.06,0.65s-0.86,0.23-1.35,0.23c-0.28,0-0.56-0.03-0.81-0.09
			c-0.26-0.06-0.5-0.14-0.73-0.24c-0.23-0.1-0.44-0.22-0.63-0.35c-0.19-0.13-0.37-0.28-0.52-0.43l0.58-0.77
			c0.06-0.08,0.13-0.14,0.21-0.18c0.08-0.04,0.17-0.06,0.26-0.06c0.12,0,0.23,0.03,0.34,0.1c0.11,0.06,0.22,0.14,0.35,0.21
			s0.27,0.15,0.44,0.21s0.38,0.1,0.62,0.1s0.46-0.04,0.64-0.12c0.18-0.08,0.32-0.19,0.43-0.34c0.11-0.14,0.19-0.31,0.24-0.5
			c0.05-0.19,0.08-0.39,0.08-0.61c0-0.43-0.12-0.75-0.36-0.97c-0.24-0.22-0.58-0.33-1.02-0.33c-0.39,0-0.78,0.07-1.15,0.22
			l-1.15-0.31l0.74-4.38h4.48v0.77c0,0.13-0.02,0.24-0.06,0.35s-0.1,0.2-0.19,0.27c-0.09,0.08-0.2,0.14-0.34,0.18
			c-0.14,0.04-0.31,0.06-0.5,0.06h-2.09L233.7,246.32z"/>
		<path class="st3" d="M244.71,247.61c0,0.76-0.08,1.43-0.25,1.99c-0.16,0.56-0.39,1.02-0.68,1.39c-0.29,0.37-0.63,0.64-1.03,0.82
			c-0.4,0.18-0.83,0.27-1.29,0.27s-0.89-0.09-1.29-0.27c-0.39-0.18-0.73-0.45-1.02-0.82c-0.29-0.37-0.51-0.83-0.67-1.39
			c-0.16-0.56-0.24-1.22-0.24-1.99s0.08-1.43,0.24-1.99c0.16-0.56,0.39-1.02,0.67-1.39c0.29-0.37,0.63-0.64,1.02-0.82
			c0.39-0.18,0.82-0.27,1.29-0.27s0.9,0.09,1.29,0.27c0.4,0.18,0.74,0.45,1.03,0.82c0.29,0.37,0.52,0.83,0.68,1.39
			S244.71,246.85,244.71,247.61z M242.79,247.61c0-0.6-0.04-1.1-0.11-1.49c-0.08-0.38-0.18-0.69-0.3-0.91s-0.27-0.37-0.43-0.45
			s-0.32-0.12-0.49-0.12s-0.33,0.04-0.48,0.12c-0.16,0.08-0.3,0.23-0.42,0.45c-0.12,0.22-0.22,0.52-0.29,0.91
			c-0.07,0.39-0.11,0.88-0.11,1.49c0,0.61,0.04,1.1,0.11,1.49c0.07,0.38,0.17,0.69,0.29,0.91c0.12,0.22,0.26,0.38,0.42,0.46
			c0.16,0.08,0.32,0.12,0.48,0.12s0.33-0.04,0.49-0.12c0.16-0.08,0.3-0.23,0.43-0.46s0.23-0.53,0.3-0.91
			C242.75,248.71,242.79,248.22,242.79,247.61z"/>
		<path class="st3" d="M249.55,245.36c0,0.32-0.06,0.61-0.17,0.88s-0.27,0.49-0.46,0.68s-0.42,0.34-0.67,0.44s-0.52,0.16-0.79,0.16
			c-0.3,0-0.58-0.05-0.84-0.16s-0.47-0.25-0.66-0.44s-0.33-0.42-0.43-0.68c-0.1-0.26-0.16-0.55-0.16-0.88c0-0.33,0.05-0.63,0.16-0.9
			c0.1-0.27,0.25-0.5,0.43-0.69c0.19-0.19,0.41-0.34,0.66-0.45s0.53-0.16,0.84-0.16s0.58,0.05,0.84,0.16s0.48,0.25,0.67,0.45
			c0.19,0.19,0.33,0.42,0.44,0.69C249.5,244.73,249.55,245.03,249.55,245.36z M252.29,243.52c0.06-0.07,0.13-0.13,0.22-0.19
			c0.09-0.06,0.21-0.09,0.37-0.09h1.36l-6.59,8.48c-0.06,0.08-0.13,0.14-0.23,0.19c-0.09,0.05-0.2,0.07-0.33,0.07h-1.39
			L252.29,243.52z M248.12,245.36c0-0.21-0.02-0.37-0.05-0.51c-0.03-0.13-0.08-0.24-0.14-0.32c-0.06-0.08-0.13-0.14-0.21-0.17
			c-0.08-0.03-0.17-0.05-0.27-0.05s-0.18,0.02-0.26,0.05c-0.08,0.03-0.15,0.09-0.2,0.17c-0.06,0.08-0.1,0.19-0.13,0.32
			c-0.03,0.13-0.05,0.3-0.05,0.51c0,0.19,0.02,0.35,0.05,0.48c0.03,0.13,0.08,0.23,0.13,0.3c0.06,0.08,0.12,0.13,0.2,0.16
			c0.08,0.03,0.17,0.05,0.26,0.05s0.18-0.02,0.27-0.05c0.08-0.03,0.15-0.09,0.21-0.16c0.06-0.08,0.11-0.18,0.14-0.3
			C248.1,245.71,248.12,245.55,248.12,245.36z M254.58,249.93c0,0.32-0.06,0.61-0.17,0.88c-0.12,0.27-0.27,0.49-0.46,0.68
			c-0.19,0.19-0.42,0.34-0.67,0.44c-0.25,0.1-0.52,0.16-0.79,0.16c-0.3,0-0.58-0.05-0.84-0.16c-0.25-0.11-0.47-0.25-0.66-0.44
			c-0.19-0.19-0.33-0.42-0.44-0.68c-0.1-0.27-0.16-0.56-0.16-0.88c0-0.33,0.05-0.63,0.16-0.9c0.1-0.27,0.25-0.5,0.44-0.69
			c0.19-0.19,0.41-0.34,0.66-0.45c0.25-0.11,0.53-0.16,0.84-0.16c0.3,0,0.58,0.05,0.84,0.16c0.26,0.11,0.48,0.25,0.67,0.45
			c0.19,0.19,0.33,0.42,0.43,0.69C254.52,249.3,254.58,249.6,254.58,249.93z M253.15,249.93c0-0.2-0.02-0.37-0.05-0.5
			c-0.03-0.13-0.08-0.24-0.14-0.32c-0.06-0.08-0.13-0.14-0.21-0.17c-0.08-0.03-0.17-0.05-0.27-0.05c-0.1,0-0.18,0.02-0.26,0.05
			c-0.08,0.03-0.15,0.09-0.2,0.17c-0.06,0.08-0.1,0.19-0.13,0.32c-0.03,0.13-0.05,0.3-0.05,0.5c0,0.19,0.02,0.35,0.05,0.48
			c0.03,0.13,0.08,0.23,0.13,0.31c0.06,0.08,0.12,0.13,0.2,0.16s0.17,0.05,0.26,0.05c0.1,0,0.18-0.02,0.27-0.05s0.15-0.09,0.21-0.16
			c0.06-0.08,0.11-0.18,0.14-0.31C253.13,250.29,253.15,250.12,253.15,249.93z"/>
	</g>
	<g>
		<path class="st3" d="M243.7,315.23c-10.75,0-19.5-8.75-19.5-19.5s8.75-19.5,19.5-19.5s19.5,8.75,19.5,19.5
			S254.45,315.23,243.7,315.23z M243.7,281.23c-8,0-14.5,6.5-14.5,14.5s6.5,14.5,14.5,14.5s14.5-6.5,14.5-14.5
			S251.69,281.23,243.7,281.23z"/>
	</g>
	<g>
		<path class="st11" d="M257.14,311.87l-5.12-6.14c2.98-2.48,4.68-6.12,4.68-9.99c0-7.17-5.83-13-13-13v-8c11.58,0,21,9.42,21,21
			C264.7,301.98,261.94,307.86,257.14,311.87z"/>
	</g>
	<g>
		<path class="st3" d="M237.72,296.59v1.04c0,0.09-0.03,0.17-0.09,0.24c-0.06,0.07-0.15,0.1-0.27,0.1h-0.54v2.01h-1.62v-2.01h-3.52
			c-0.12,0-0.22-0.04-0.32-0.11s-0.15-0.16-0.18-0.27l-0.19-0.92l4.04-5.44h1.78v5.35H237.72z M235.2,296.59v-2.28
			c0-0.14,0-0.29,0.01-0.45c0.01-0.16,0.03-0.33,0.05-0.51l-2.31,3.24H235.2z"/>
		<path class="st3" d="M240.66,294.32c0.16-0.03,0.32-0.05,0.47-0.07c0.15-0.01,0.3-0.02,0.44-0.02c0.46,0,0.87,0.07,1.22,0.21
			c0.35,0.14,0.65,0.33,0.89,0.57c0.24,0.24,0.42,0.53,0.54,0.85c0.12,0.33,0.18,0.68,0.18,1.05c0,0.47-0.08,0.9-0.25,1.28
			c-0.17,0.39-0.4,0.72-0.69,1c-0.3,0.28-0.65,0.5-1.06,0.65s-0.86,0.23-1.35,0.23c-0.28,0-0.56-0.03-0.81-0.09
			c-0.26-0.06-0.5-0.14-0.73-0.24c-0.23-0.1-0.44-0.22-0.63-0.35c-0.19-0.13-0.37-0.28-0.52-0.43l0.58-0.77
			c0.06-0.08,0.13-0.14,0.21-0.18c0.08-0.04,0.17-0.06,0.26-0.06c0.12,0,0.23,0.03,0.34,0.1c0.11,0.06,0.22,0.14,0.35,0.21
			s0.27,0.15,0.44,0.21s0.38,0.1,0.62,0.1s0.46-0.04,0.64-0.12c0.18-0.08,0.32-0.19,0.43-0.34c0.11-0.14,0.19-0.31,0.24-0.5
			c0.05-0.19,0.08-0.39,0.08-0.61c0-0.43-0.12-0.75-0.36-0.97c-0.24-0.22-0.58-0.33-1.02-0.33c-0.39,0-0.78,0.07-1.15,0.22
			l-1.15-0.31l0.74-4.38h4.48v0.77c0,0.13-0.02,0.24-0.06,0.35s-0.1,0.2-0.19,0.27c-0.09,0.08-0.2,0.14-0.34,0.18
			c-0.14,0.04-0.31,0.06-0.5,0.06h-2.09L240.66,294.32z"/>
		<path class="st3" d="M249.55,293.36c0,0.32-0.06,0.61-0.17,0.88s-0.27,0.49-0.46,0.68s-0.42,0.34-0.67,0.44s-0.52,0.16-0.79,0.16
			c-0.3,0-0.58-0.05-0.84-0.16s-0.47-0.25-0.66-0.44s-0.33-0.42-0.43-0.68c-0.1-0.26-0.16-0.55-0.16-0.88c0-0.33,0.05-0.63,0.16-0.9
			c0.1-0.27,0.25-0.5,0.43-0.69c0.19-0.19,0.41-0.34,0.66-0.45s0.53-0.16,0.84-0.16s0.58,0.05,0.84,0.16s0.48,0.25,0.67,0.45
			c0.19,0.19,0.33,0.42,0.44,0.69C249.5,292.73,249.55,293.03,249.55,293.36z M252.29,291.52c0.06-0.07,0.13-0.13,0.22-0.19
			c0.09-0.06,0.21-0.09,0.37-0.09h1.36l-6.59,8.48c-0.06,0.08-0.13,0.14-0.23,0.19c-0.09,0.05-0.2,0.07-0.33,0.07h-1.39
			L252.29,291.52z M248.12,293.36c0-0.21-0.02-0.37-0.05-0.51c-0.03-0.13-0.08-0.24-0.14-0.32c-0.06-0.08-0.13-0.14-0.21-0.17
			c-0.08-0.03-0.17-0.05-0.27-0.05s-0.18,0.02-0.26,0.05c-0.08,0.03-0.15,0.09-0.2,0.17c-0.06,0.08-0.1,0.19-0.13,0.32
			c-0.03,0.13-0.05,0.3-0.05,0.51c0,0.19,0.02,0.35,0.05,0.48c0.03,0.13,0.08,0.23,0.13,0.3c0.06,0.08,0.12,0.13,0.2,0.16
			c0.08,0.03,0.17,0.05,0.26,0.05s0.18-0.02,0.27-0.05c0.08-0.03,0.15-0.09,0.21-0.16c0.06-0.08,0.11-0.18,0.14-0.3
			C248.1,293.71,248.12,293.55,248.12,293.36z M254.58,297.93c0,0.32-0.06,0.61-0.17,0.88c-0.12,0.27-0.27,0.49-0.46,0.68
			c-0.19,0.19-0.42,0.34-0.67,0.44c-0.25,0.1-0.52,0.16-0.79,0.16c-0.3,0-0.58-0.05-0.84-0.16c-0.25-0.11-0.47-0.25-0.66-0.44
			c-0.19-0.19-0.33-0.42-0.44-0.68c-0.1-0.27-0.16-0.56-0.16-0.88c0-0.33,0.05-0.63,0.16-0.9c0.1-0.27,0.25-0.5,0.44-0.69
			c0.19-0.19,0.41-0.34,0.66-0.45c0.25-0.11,0.53-0.16,0.84-0.16c0.3,0,0.58,0.05,0.84,0.16c0.26,0.11,0.48,0.25,0.67,0.45
			c0.19,0.19,0.33,0.42,0.43,0.69C254.52,297.3,254.58,297.6,254.58,297.93z M253.15,297.93c0-0.2-0.02-0.37-0.05-0.5
			c-0.03-0.13-0.08-0.24-0.14-0.32c-0.06-0.08-0.13-0.14-0.21-0.17c-0.08-0.03-0.17-0.05-0.27-0.05c-0.1,0-0.18,0.02-0.26,0.05
			c-0.08,0.03-0.15,0.09-0.2,0.17c-0.06,0.08-0.1,0.19-0.13,0.32c-0.03,0.13-0.05,0.3-0.05,0.5c0,0.19,0.02,0.35,0.05,0.48
			c0.03,0.13,0.08,0.23,0.13,0.31c0.06,0.08,0.12,0.13,0.2,0.16s0.17,0.05,0.26,0.05c0.1,0,0.18-0.02,0.27-0.05s0.15-0.09,0.21-0.16
			c0.06-0.08,0.11-0.18,0.14-0.31C253.13,298.29,253.15,298.12,253.15,297.93z"/>
	</g>
	<g>
		<g>
			<circle class="st3" cx="332.2" cy="345.73" r="4"/>
		</g>
		<g>
			<path class="st3" d="M336.2,349.73h-8c-1.66,0-3,1.34-3,3v9.5c0,0.83,0.67,1.5,1.5,1.5s1.5-0.67,1.5-1.5v13.5c0,1.1,0.9,2,2,2
				c1.1,0,2-0.9,2-2c0,1.1,0.9,2,2,2c1.1,0,2-0.9,2-2v-13.5c0,0.83,0.67,1.5,1.5,1.5s1.5-0.67,1.5-1.5v-9.5
				C339.2,351.07,337.86,349.73,336.2,349.73z"/>
		</g>
	</g>
	<g>
		<g>
			<circle class="st3" cx="296.2" cy="345.73" r="4"/>
		</g>
		<g>
			<path class="st3" d="M300.2,349.73h-8c-1.66,0-3,1.34-3,3v9.5c0,0.83,0.67,1.5,1.5,1.5s1.5-0.67,1.5-1.5v13.5c0,1.1,0.9,2,2,2
				c1.1,0,2-0.9,2-2c0,1.1,0.9,2,2,2c1.1,0,2-0.9,2-2v-13.5c0,0.83,0.67,1.5,1.5,1.5s1.5-0.67,1.5-1.5v-9.5
				C303.2,351.07,301.86,349.73,300.2,349.73z"/>
		</g>
	</g>
	<g>
		<g>
			<circle class="st19" cx="350.2" cy="345.73" r="4"/>
		</g>
		<g>
			<path class="st19" d="M354.2,349.73h-8c-1.66,0-3,1.34-3,3v9.5c0,0.83,0.67,1.5,1.5,1.5s1.5-0.67,1.5-1.5v13.5c0,1.1,0.9,2,2,2
				s2-0.9,2-2c0,1.1,0.9,2,2,2s2-0.9,2-2v-13.5c0,0.83,0.67,1.5,1.5,1.5s1.5-0.67,1.5-1.5v-9.5
				C357.2,351.07,355.86,349.73,354.2,349.73z"/>
		</g>
	</g>
	<g>
		<g>
			<circle class="st3" cx="314.2" cy="345.73" r="4"/>
		</g>
		<g>
			<path class="st3" d="M318.2,349.73h-8c-1.66,0-3,1.34-3,3v9.5c0,0.83,0.67,1.5,1.5,1.5s1.5-0.67,1.5-1.5v13.5c0,1.1,0.9,2,2,2
				c1.1,0,2-0.9,2-2c0,1.1,0.9,2,2,2c1.1,0,2-0.9,2-2v-13.5c0,0.83,0.67,1.5,1.5,1.5s1.5-0.67,1.5-1.5v-9.5
				C321.2,351.07,319.86,349.73,318.2,349.73z"/>
		</g>
	</g>
	<g>
		<path class="st3" d="M282.7,249.73h-2c-1.1,0-2-0.9-2-2s0.9-2,2-2h2c1.1,0,2,0.9,2,2S283.8,249.73,282.7,249.73z M272.7,249.73h-2
			c-1.1,0-2-0.9-2-2s0.9-2,2-2h2c1.1,0,2,0.9,2,2S273.8,249.73,272.7,249.73z"/>
	</g>
	<g>
		<path class="st3" d="M282.7,297.73h-2c-1.1,0-2-0.9-2-2s0.9-2,2-2h2c1.1,0,2,0.9,2,2S283.8,297.73,282.7,297.73z M272.7,297.73h-2
			c-1.1,0-2-0.9-2-2s0.9-2,2-2h2c1.1,0,2,0.9,2,2S273.8,297.73,272.7,297.73z"/>
	</g>
	<g>
		<path class="st20" d="M354.7,312.73h-60c-2.21,0-4-1.79-4-4v-74c0-2.21,1.79-4,4-4h60c2.21,0,4,1.79,4,4v74
			C358.7,310.94,356.91,312.73,354.7,312.73z"/>
	</g>
	<g>
		<g>
			<path class="st3" d="M339.7,243.73h-38c-1.1,0-2-0.9-2-2l0,0c0-1.1,0.9-2,2-2h38c1.1,0,2,0.9,2,2l0,0
				C341.7,242.84,340.8,243.73,339.7,243.73z"/>
		</g>
		<g>
			<path class="st3" d="M347.7,251.73h-46c-1.1,0-2-0.9-2-2l0,0c0-1.1,0.9-2,2-2h46c1.1,0,2,0.9,2,2l0,0
				C349.7,250.84,348.8,251.73,347.7,251.73z"/>
		</g>
		<g>
			<path class="st3" d="M347.7,259.73h-46c-1.1,0-2-0.9-2-2l0,0c0-1.1,0.9-2,2-2h46c1.1,0,2,0.9,2,2l0,0
				C349.7,258.84,348.8,259.73,347.7,259.73z"/>
		</g>
		<g>
			<path class="st3" d="M327.7,267.73h-26c-1.1,0-2-0.9-2-2l0,0c0-1.1,0.9-2,2-2h26c1.1,0,2,0.9,2,2l0,0
				C329.7,266.84,328.8,267.73,327.7,267.73z"/>
		</g>
		<g>
			<path class="st3" d="M347.7,279.73h-46c-1.1,0-2-0.9-2-2l0,0c0-1.1,0.9-2,2-2h46c1.1,0,2,0.9,2,2l0,0
				C349.7,278.84,348.8,279.73,347.7,279.73z"/>
		</g>
		<g>
			<path class="st3" d="M339.7,287.73h-38c-1.1,0-2-0.9-2-2l0,0c0-1.1,0.9-2,2-2h38c1.1,0,2,0.9,2,2l0,0
				C341.7,286.84,340.8,287.73,339.7,287.73z"/>
		</g>
		<g>
			<path class="st3" d="M345.7,295.73h-44c-1.1,0-2-0.9-2-2l0,0c0-1.1,0.9-2,2-2h44c1.1,0,2,0.9,2,2l0,0
				C347.7,294.84,346.8,295.73,345.7,295.73z"/>
		</g>
		<g>
			<path class="st3" d="M335.7,303.73h-34c-1.1,0-2-0.9-2-2l0,0c0-1.1,0.9-2,2-2h34c1.1,0,2,0.9,2,2l0,0
				C337.7,302.84,336.8,303.73,335.7,303.73z"/>
		</g>
	</g>
	<g>
		<g>
			<g>
				<g>
					<g>
						<path class="st3" d="M308.22,186.49c-1.1,0-2-0.9-2-2c0-1.65-1.35-3-3-3s-3,1.35-3,3c0,1.1-0.9,2-2,2s-2-0.9-2-2
							c0-3.86,3.14-7,7-7s7,3.14,7,7C310.22,185.59,309.33,186.49,308.22,186.49z"/>
					</g>
				</g>
				<g>
					<path class="st3" d="M300.79,168.55c3.57-2.19,8.99-1.73,11.44,1.9c0.84,1.2-0.31,2.92-1.73,2.64
						c-1.57-0.27-2.86-0.63-4.4-0.83c-1.46-0.21-3.36-0.28-4.78-0.61C299.87,171.38,299.53,169.28,300.79,168.55L300.79,168.55z"/>
				</g>
			</g>
			<g>
				<g>
					<g>
						<path class="st3" d="M287.17,186.49c-1.1,0-2-0.9-2-2c0-1.65-1.35-3-3-3s-3,1.35-3,3c0,1.1-0.9,2-2,2s-2-0.9-2-2
							c0-3.86,3.14-7,7-7s7,3.14,7,7C289.17,185.59,288.28,186.49,287.17,186.49z"/>
					</g>
				</g>
				<g>
					<path class="st3" d="M283.64,171.74c-1.25,0.24-3.08,0.34-4.36,0.52c-1.54,0.19-2.82,0.55-4.39,0.82
						c-0.94,0.16-1.83-0.47-1.98-1.41c-0.07-0.44,0.03-0.88,0.25-1.22c1.78-2.76,5.51-3.65,8.57-3.02c1.01,0.21,1.9,0.51,2.88,1.12
						C286.09,169.55,285.36,171.62,283.64,171.74L283.64,171.74z"/>
				</g>
			</g>
			<g>
				<path class="st3" d="M304.7,189.9L304.7,189.9h-24c-2.21,0-4,1.79-4,4c0,8.82,7.18,16,16,16c8.77,0,15.91-7.09,16-15.84
					c0-0.05,0-0.11,0-0.16C308.7,191.69,306.91,189.9,304.7,189.9z"/>
				<g>
					<g>
						<ellipse class="st7" cx="292.7" cy="201.9" rx="8.93" ry="4"/>
					</g>
				</g>
			</g>
		</g>
		<g>
			<g>
				<circle class="st21" cx="318.7" cy="195.9" r="2"/>
			</g>
			<g>
				<circle class="st21" cx="326.7" cy="195.9" r="2"/>
			</g>
			<g>
				<circle class="st21" cx="322.7" cy="187.9" r="2"/>
			</g>
		</g>
		<g>
			<g>
				<circle class="st21" cx="258.7" cy="195.9" r="2"/>
			</g>
			<g>
				<circle class="st21" cx="266.7" cy="195.9" r="2"/>
			</g>
			<g>
				<circle class="st21" cx="262.7" cy="187.9" r="2"/>
			</g>
		</g>
	</g>
	<g>
		<g>
			<g>
				<path class="st5" d="M212.7,155.73c-1.66,0-3-1.34-3-3v-18c0-7.17,5.83-13,13-13h140c7.17,0,13,5.83,13,13v18c0,1.66-1.34,3-3,3
					H212.7z"/>
			</g>
			<g>
				<path class="st3" d="M362.7,124.73c5.52,0,10,4.48,10,10v18h-160v-18c0-5.52,4.48-10,10-10H362.7 M362.7,118.73h-140
					c-8.82,0-16,7.18-16,16v18c0,3.31,2.69,6,6,6h160c3.31,0,6-2.69,6-6v-18C378.7,125.91,371.52,118.73,362.7,118.73L362.7,118.73z
					"/>
			</g>
		</g>
		<g>
			<g>
				<path class="st6" d="M302.7,145.73c-3.86,0-7-3.14-7-7s3.14-7,7-7h54c3.86,0,7,3.14,7,7s-3.14,7-7,7H302.7z"/>
			</g>
			<g>
				<g>
					<path class="st3" d="M356.7,134.73c2.21,0,4,1.79,4,4v0c0,2.21-1.79,4-4,4h-54c-2.21,0-4-1.79-4-4v0c0-2.21,1.79-4,4-4H356.7
						 M356.7,128.73h-54c-5.51,0-10,4.49-10,10s4.49,10,10,10h54c5.51,0,10-4.49,10-10S362.21,128.73,356.7,128.73L356.7,128.73z"/>
				</g>
			</g>
		</g>
		<g>
			<g>
				<circle class="st7" cx="228.7" cy="138.73" r="7"/>
			</g>
			<g>
				<g>
					<path class="st3" d="M228.7,134.73c2.21,0,4,1.79,4,4c0,2.21-1.79,4-4,4c-2.21,0-4-1.79-4-4
						C224.7,136.52,226.49,134.73,228.7,134.73 M228.7,128.73c-5.51,0-10,4.49-10,10s4.49,10,10,10s10-4.49,10-10
						S234.21,128.73,228.7,128.73L228.7,128.73z"/>
				</g>
			</g>
		</g>
		<g>
			<g>
				<circle class="st4" cx="252.7" cy="138.73" r="7"/>
			</g>
			<g>
				<g>
					<path class="st3" d="M252.7,134.73c2.21,0,4,1.79,4,4c0,2.21-1.79,4-4,4c-2.21,0-4-1.79-4-4
						C248.7,136.52,250.49,134.73,252.7,134.73 M252.7,128.73c-5.51,0-10,4.49-10,10s4.49,10,10,10s10-4.49,10-10
						S258.21,128.73,252.7,128.73L252.7,128.73z"/>
				</g>
			</g>
		</g>
		<g>
			<g>
				<circle class="st8" cx="276.7" cy="138.73" r="7"/>
			</g>
			<g>
				<g>
					<path class="st3" d="M276.7,134.73c2.21,0,4,1.79,4,4c0,2.21-1.79,4-4,4s-4-1.79-4-4C272.7,136.52,274.49,134.73,276.7,134.73
						 M276.7,128.73c-5.51,0-10,4.49-10,10s4.49,10,10,10c5.51,0,10-4.49,10-10S282.21,128.73,276.7,128.73L276.7,128.73z"/>
				</g>
			</g>
		</g>
	</g>
</g>
</svg>
