<?xml version="1.0" encoding="utf-8"?>
<!-- Generator: Adobe Illustrator 26.0.1, SVG Export Plug-In . SVG Version: 6.00 Build 0)  -->
<svg version="1.1" id="CRO_x5F_Hub-Conversion_x5F_Rate_x5F_Optimization_x5F_Strategy"
	 xmlns="http://www.w3.org/2000/svg" xmlns:xlink="http://www.w3.org/1999/xlink" x="0px" y="0px" viewBox="0 0 400 400"
	 style="enable-background:new 0 0 400 400;" xml:space="preserve">
<style type="text/css">
	.st0{fill:none;}
	.st1{fill:#B29D90;}
	.st2{fill:#515979;}
	.st3{fill:#FFFFFF;}
	.st4{fill:#D8EBFB;}
	.st5{fill:#BAD2E1;}
	.st6{fill:#BAD2E1;stroke:#515979;stroke-width:6;stroke-linecap:round;stroke-linejoin:round;stroke-miterlimit:10;}
	.st7{fill:none;stroke:#F89D81;stroke-width:6;stroke-linecap:round;stroke-linejoin:round;stroke-miterlimit:10;}
	.st8{fill:none;stroke:#515979;stroke-width:4;stroke-linecap:round;stroke-linejoin:round;stroke-miterlimit:10;}
	.st9{fill:#EF7D7D;}
	.st10{fill:#667683;}
	.st11{fill:#FFE8A0;}
	.st12{fill:#7DDF96;}
	.st13{fill:#FDE1D9;}
	.st14{fill:#B4ECFB;}
	.st15{fill:#D8F5DF;}
	.st16{fill:none;stroke:#7DDF96;stroke-width:4;stroke-linecap:round;stroke-linejoin:round;stroke-miterlimit:10;}
	.st17{fill:none;stroke:#515979;stroke-width:3;stroke-linecap:round;stroke-linejoin:round;stroke-miterlimit:10;}
	.st18{fill:#6ADAF7;}
	.st19{fill:#F89D81;}
	.st20{fill:#00C853;}
	.st21{fill:#FFD886;}
</style>
<rect class="st0" width="400" height="400"/>
<g>
	<g>
		<path class="st1" d="M226.94,392.07c-8.27,0-15-6.73-15-15v-180c0-8.27,6.73-15,15-15h150c8.27,0,15,6.73,15,15v180
			c0,8.27-6.73,15-15,15H226.94z"/>
		<path class="st2" d="M376.94,185.07c6.63,0,12,5.37,12,12v180c0,6.63-5.37,12-12,12h-150c-6.63,0-12-5.37-12-12v-180
			c0-6.63,5.37-12,12-12H376.94 M376.94,179.07h-150c-9.93,0-18,8.07-18,18v180c0,9.93,8.07,18,18,18h150c9.93,0,18-8.07,18-18v-180
			C394.94,187.14,386.87,179.07,376.94,179.07L376.94,179.07z"/>
	</g>
	<g>
		<path class="st3" d="M230.94,380.07c-3.86,0-7-3.14-7-7v-172c0-3.86,3.14-7,7-7h142c3.86,0,7,3.14,7,7v152
			c0,0.8-0.32,1.56-0.88,2.12l-24,24c-0.56,0.56-1.33,0.88-2.12,0.88H230.94z"/>
		<path class="st2" d="M372.94,197.07c2.21,0,4,1.79,4,4v152l-24,24h-122c-2.21,0-4-1.79-4-4v-172c0-2.21,1.79-4,4-4H372.94
			 M372.94,191.07h-142c-5.51,0-10,4.49-10,10v172c0,5.51,4.49,10,10,10h122c1.59,0,3.12-0.63,4.24-1.76l24-24
			c1.13-1.13,1.76-2.65,1.76-4.24v-152C382.94,195.56,378.45,191.07,372.94,191.07L372.94,191.07z"/>
	</g>
	<g>
		<path class="st4" d="M352.94,380.07c-0.39,0-0.78-0.07-1.15-0.23c-1.12-0.46-1.85-1.56-1.85-2.77v-19.2c0-4.3,3.5-7.8,7.8-7.8
			h19.2c1.21,0,2.31,0.73,2.77,1.85c0.46,1.12,0.21,2.41-0.65,3.27l-24,24C354.49,379.76,353.72,380.07,352.94,380.07z"/>
		<path class="st2" d="M376.94,353.07l-24,24v-19.2c0-2.65,2.15-4.8,4.8-4.8H376.94 M376.94,347.07h-19.2
			c-5.96,0-10.8,4.84-10.8,10.8v19.2c0,2.43,1.46,4.61,3.7,5.54c0.74,0.31,1.52,0.46,2.29,0.46c1.56,0,3.1-0.61,4.24-1.76l24-24
			c1.72-1.72,2.23-4.3,1.3-6.54C381.55,348.53,379.37,347.07,376.94,347.07L376.94,347.07z M376.94,359.07L376.94,359.07
			L376.94,359.07L376.94,359.07z"/>
	</g>
	<path class="st2" d="M311.94,291.07h-26c-1.66,0-3-1.34-3-3l0,0c0-1.66,1.34-3,3-3h26c1.66,0,3,1.34,3,3l0,0
		C314.94,289.73,313.6,291.07,311.94,291.07z"/>
	<path class="st2" d="M353.94,279.07h-68c-1.66,0-3-1.34-3-3l0,0c0-1.66,1.34-3,3-3h68c1.66,0,3,1.34,3,3l0,0
		C356.94,277.73,355.6,279.07,353.94,279.07z"/>
	<g>
		<g>
			<path class="st5" d="M251.94,206.07c-1.66,0-3-1.34-3-3v-16c0-6.07,4.93-11,11-11h25.28c-1.48-2.74-2.28-5.83-2.28-9
				c0-10.48,8.52-19,19-19c0.72,0,1.45,0.04,2.17,0.12c8.56,0.95,15.58,7.85,16.67,16.39c0.52,4.02-0.26,8.03-2.12,11.49h25.28
				c6.07,0,11,4.93,11,11v16c0,1.66-1.34,3-3,3H251.94z M301.94,162.07c-0.33,0-0.67,0.03-1.01,0.1c-1.93,0.37-3.53,1.97-3.9,3.9
				c-0.29,1.53,0.08,3.02,1.05,4.19c0.95,1.15,2.36,1.81,3.85,1.81c0.33,0,0.67-0.03,1.01-0.1c1.93-0.37,3.53-1.97,3.9-3.9
				c0.29-1.54-0.08-3.02-1.05-4.19C304.84,162.73,303.43,162.07,301.94,162.07z"/>
		</g>
		<g>
			<path class="st2" d="M301.94,151.07c0.6,0,1.22,0.03,1.84,0.1c7.23,0.8,13.1,6.57,14.03,13.79c0.72,5.63-1.49,10.75-5.31,14.11
				h31.44c4.42,0,8,3.58,8,8v16h-100v-16c0-4.42,3.58-8,8-8h31.44c-3.33-2.93-5.44-7.21-5.44-12
				C285.94,158.23,293.1,151.07,301.94,151.07 M301.94,175.07c0.51,0,1.04-0.05,1.57-0.15c3.15-0.6,5.69-3.14,6.29-6.29
				c0.97-5.11-2.92-9.57-7.85-9.57c-0.51,0-1.04,0.05-1.57,0.15c-3.15,0.6-5.69,3.14-6.29,6.29
				C293.12,170.61,297.01,175.07,301.94,175.07 M301.94,145.07C301.94,145.07,301.94,145.07,301.94,145.07
				c-5.88,0-11.4,2.29-15.56,6.44c-4.16,4.16-6.44,9.68-6.44,15.56c0,2.05,0.29,4.07,0.84,6h-20.84c-7.72,0-14,6.28-14,14v16
				c0,3.31,2.69,6,6,6h100c3.31,0,6-2.69,6-6v-16c0-7.72-6.28-14-14-14h-20.85c0.81-2.84,1.05-5.85,0.66-8.87
				c-1.27-9.9-9.39-17.88-19.32-18.99C303.61,145.12,302.77,145.07,301.94,145.07L301.94,145.07z M301.94,169.07
				c-0.82,0-1.32-0.46-1.54-0.73c-0.27-0.33-0.57-0.9-0.41-1.72c0.14-0.72,0.79-1.37,1.51-1.51c0.15-0.03,0.3-0.04,0.45-0.04
				c0.82,0,1.32,0.46,1.54,0.73c0.27,0.33,0.57,0.9,0.41,1.72c-0.14,0.72-0.79,1.37-1.51,1.51
				C302.24,169.05,302.08,169.07,301.94,169.07L301.94,169.07z"/>
		</g>
	</g>
	<line class="st6" x1="266.94" y1="191.07" x2="336.94" y2="191.07"/>
	<g>
		<path class="st3" d="M252.94,294.07c-1.66,0-3-1.34-3-3v-18c0-1.66,1.34-3,3-3h18c1.66,0,3,1.34,3,3v18c0,1.66-1.34,3-3,3H252.94z
			"/>
		<path class="st2" d="M270.94,273.07v18h-18v-18H270.94 M270.94,267.07h-18c-3.31,0-6,2.69-6,6v18c0,3.31,2.69,6,6,6h18
			c3.31,0,6-2.69,6-6v-18C276.94,269.76,274.25,267.07,270.94,267.07L270.94,267.07z"/>
	</g>
	<polyline class="st7" points="257.94,279.07 263.39,285.07 277.94,269.07 	"/>
	<path class="st2" d="M331.94,327.07h-46c-1.66,0-3-1.34-3-3l0,0c0-1.66,1.34-3,3-3h46c1.66,0,3,1.34,3,3l0,0
		C334.94,325.73,333.6,327.07,331.94,327.07z"/>
	<path class="st2" d="M353.94,315.07h-68c-1.66,0-3-1.34-3-3l0,0c0-1.66,1.34-3,3-3h68c1.66,0,3,1.34,3,3l0,0
		C356.94,313.73,355.6,315.07,353.94,315.07z"/>
	<path class="st2" d="M295.94,361.07h-46c-1.66,0-3-1.34-3-3l0,0c0-1.66,1.34-3,3-3h46c1.66,0,3,1.34,3,3l0,0
		C298.94,359.73,297.6,361.07,295.94,361.07z"/>
	<path class="st2" d="M317.94,349.07h-68c-1.66,0-3-1.34-3-3l0,0c0-1.66,1.34-3,3-3h68c1.66,0,3,1.34,3,3l0,0
		C320.94,347.73,319.6,349.07,317.94,349.07z"/>
	<g>
		<path class="st3" d="M252.94,330.07c-1.66,0-3-1.34-3-3v-18c0-1.66,1.34-3,3-3h18c1.66,0,3,1.34,3,3v18c0,1.66-1.34,3-3,3H252.94z
			"/>
		<path class="st2" d="M270.94,309.07v18h-18v-18H270.94 M270.94,303.07h-18c-3.31,0-6,2.69-6,6v18c0,3.31,2.69,6,6,6h18
			c3.31,0,6-2.69,6-6v-18C276.94,305.76,274.25,303.07,270.94,303.07L270.94,303.07z"/>
	</g>
	<polyline class="st7" points="257.94,315.07 263.39,321.07 277.94,305.07 	"/>
	<g>
		<g>
			<path class="st8" d="M310.44,235.67c2.49-1.33,6.51-1.33,9,0"/>
			<g>
				<circle class="st2" cx="314.94" cy="227.92" r="7"/>
				<circle class="st3" cx="316.69" cy="227.92" r="1.75"/>
			</g>
			<g>
				<path class="st2" d="M310.71,213.73c3.7-2.29,8.96-1.89,12.03,1.33c1.57,1.57,3.49,5.3,0.49,6.24c-0.74,0.19-1.4-0.13-1.97-0.54
					c-2.44-1.9-4.85-2.79-7.91-3.04c-0.74-0.07-1.47-0.17-2.14-0.4C309.58,216.92,309.28,214.56,310.71,213.73L310.71,213.73z"/>
			</g>
			<path class="st8" d="M284.44,235.67c2.49-1.33,6.51-1.33,9,0"/>
			<g>
				<circle class="st2" cx="288.94" cy="227.92" r="7"/>
				<circle class="st3" cx="290.69" cy="227.92" r="1.75"/>
			</g>
			<g>
				<path class="st2" d="M291.95,217.97c-1.64,0.12-3.63,0.06-5.19,0.46c-1.68,0.37-2.76,1.03-4.35,1.94
					c-1.07,0.75-2.56,0.59-3.2-0.62c-0.27-0.5-0.3-1.08-0.14-1.58c0.42-1.32,1.19-2.63,2.36-3.6c2.76-2.47,7.01-2.8,10.28-1.34
					c1.51,0.61,3.52,1.98,2.22,3.84C293.49,217.73,292.66,217.85,291.95,217.97L291.95,217.97z"/>
			</g>
		</g>
		<g>
			<g>
				<path class="st2" d="M301.94,261.57c-9.1,0-16.5-7.4-16.5-16.5c0-1.38,1.12-2.5,2.5-2.5h28c1.38,0,2.5,1.12,2.5,2.5
					C318.44,254.17,311.04,261.57,301.94,261.57z"/>
				<path class="st2" d="M315.94,245.07L315.94,245.07 M315.94,245.07c0,7.73-6.27,14-14,14c-7.73,0-14-6.27-14-14H315.94
					 M315.95,240.07L315.95,240.07h-28.01c-2.76,0-5,2.24-5,5c0,10.48,8.52,19,19,19c10.41,0,18.9-8.42,19-18.81
					c0-0.06,0-0.12,0-0.19C320.94,242.31,318.71,240.07,315.95,240.07L315.95,240.07z M315.94,250.07L315.94,250.07L315.94,250.07
					L315.94,250.07z"/>
			</g>
			<g>
				<ellipse class="st9" cx="301.94" cy="254.4" rx="10.41" ry="4.67"/>
			</g>
		</g>
	</g>
</g>
<g>
	<path class="st3" d="M1850,3248c-7.17,0-13-5.83-13-13v-180c0-7.17,5.83-13,13-13h200c7.17,0,13,5.83,13,13v180
		c0,7.17-5.83,13-13,13H1850z"/>
	<path class="st2" d="M2050,3045c5.52,0,10,4.48,10,10v180c0,5.52-4.48,10-10,10h-200c-5.52,0-10-4.48-10-10v-180
		c0-5.52,4.48-10,10-10H2050 M2050,3039h-200c-8.82,0-16,7.18-16,16v180c0,8.82,7.18,16,16,16h200c8.82,0,16-7.18,16-16v-180
		C2066,3046.18,2058.82,3039,2050,3039L2050,3039z"/>
</g>
<g>
	<g>
		<path class="st3" d="M24.44,220.12c-7.17,0-13-5.83-13-13v-180c0-7.17,5.83-13,13-13h200c7.17,0,13,5.83,13,13v180
			c0,7.17-5.83,13-13,13H24.44z"/>
		<path class="st2" d="M224.44,17.12c5.52,0,10,4.48,10,10v180c0,5.52-4.48,10-10,10h-200c-5.52,0-10-4.48-10-10v-180
			c0-5.52,4.48-10,10-10H224.44 M224.44,11.12h-200c-8.82,0-16,7.18-16,16v180c0,8.82,7.18,16,16,16h200c8.82,0,16-7.18,16-16v-180
			C240.44,18.3,233.26,11.12,224.44,11.12L224.44,11.12z"/>
	</g>
	<g>
		<path class="st10" d="M14.44,48.12c-1.66,0-3-1.34-3-3v-18c0-7.17,5.83-13,13-13h200c7.17,0,13,5.83,13,13v18c0,1.66-1.34,3-3,3
			H14.44z"/>
		<path class="st2" d="M224.44,17.12c5.52,0,10,4.48,10,10v18h-220v-18c0-5.52,4.48-10,10-10H224.44 M224.44,11.12h-200
			c-8.82,0-16,7.18-16,16v18c0,3.31,2.69,6,6,6h220c3.31,0,6-2.69,6-6v-18C240.44,18.3,233.26,11.12,224.44,11.12L224.44,11.12z"/>
	</g>
	<g>
		<path class="st3" d="M104.44,38.12c-3.86,0-7-3.14-7-7s3.14-7,7-7h114c3.86,0,7,3.14,7,7s-3.14,7-7,7H104.44z"/>
		<g>
			<path class="st2" d="M218.44,27.12c2.21,0,4,1.79,4,4s-1.79,4-4,4h-114c-2.21,0-4-1.79-4-4s1.79-4,4-4H218.44 M218.44,21.12h-114
				c-5.51,0-10,4.49-10,10s4.49,10,10,10h114c5.51,0,10-4.49,10-10S223.95,21.12,218.44,21.12L218.44,21.12z"/>
		</g>
	</g>
	<g>
		<circle class="st9" cx="30.44" cy="31.12" r="7"/>
		<g>
			<path class="st2" d="M30.44,27.12c2.21,0,4,1.79,4,4s-1.79,4-4,4s-4-1.79-4-4S28.23,27.12,30.44,27.12 M30.44,21.12
				c-5.51,0-10,4.49-10,10s4.49,10,10,10s10-4.49,10-10S35.95,21.12,30.44,21.12L30.44,21.12z"/>
		</g>
	</g>
	<g>
		<circle class="st11" cx="54.44" cy="31.12" r="7"/>
		<g>
			<path class="st2" d="M54.44,27.12c2.21,0,4,1.79,4,4s-1.79,4-4,4s-4-1.79-4-4S52.23,27.12,54.44,27.12 M54.44,21.12
				c-5.51,0-10,4.49-10,10s4.49,10,10,10s10-4.49,10-10S59.95,21.12,54.44,21.12L54.44,21.12z"/>
		</g>
	</g>
	<g>
		<circle class="st12" cx="78.44" cy="31.12" r="7"/>
		<g>
			<path class="st2" d="M78.44,27.12c2.21,0,4,1.79,4,4s-1.79,4-4,4s-4-1.79-4-4S76.23,27.12,78.44,27.12 M78.44,21.12
				c-5.51,0-10,4.49-10,10s4.49,10,10,10s10-4.49,10-10S83.95,21.12,78.44,21.12L78.44,21.12z"/>
		</g>
	</g>
	<g>
		<g>
			<g>
				<path class="st8" d="M136.94,85.72c2.49-1.33,6.51-1.33,9,0"/>
				<g>
					<circle class="st2" cx="141.44" cy="76.97" r="8"/>
					<circle class="st3" cx="143.44" cy="76.97" r="2"/>
				</g>
				<g>
					<path class="st2" d="M135.58,60.65c3.68-3.11,9.5-3.68,13.48-0.8c1.83,1.3,4.9,4.78,2.04,6.4c-0.73,0.35-1.49,0.16-2.13-0.21
						c-3.12-1.93-6.26-2.5-9.86-2.01c-0.77,0.07-1.51,0.18-2.23,0.14C135.04,64.2,134.18,61.79,135.58,60.65L135.58,60.65z"/>
				</g>
				<path class="st8" d="M102.94,85.72c2.49-1.33,6.51-1.33,9,0"/>
				<g>
					<circle class="st2" cx="107.44" cy="76.97" r="8"/>
					<circle class="st3" cx="109.44" cy="76.97" r="2"/>
				</g>
				<g>
					<path class="st2" d="M111.4,64.17c-2.9-0.28-6.02-0.65-8.74,0.51c-0.95,0.32-2.01,1.02-3.12,1.54c-1.68,0.88-3.57-1-2.75-2.68
						c1.9-4.63,7.88-6.6,12.45-5.07c1.95,0.65,6.2,2.34,4.3,4.99C112.99,64.13,112.17,64.21,111.4,64.17L111.4,64.17z"/>
				</g>
			</g>
		</g>
		<g>
			<circle class="st13" cx="83.44" cy="84.62" r="2.5"/>
			<circle class="st13" cx="88.94" cy="95.62" r="2.5"/>
			<circle class="st13" cx="77.94" cy="95.62" r="2.5"/>
		</g>
		<g>
			<circle class="st13" cx="165.44" cy="84.62" r="2.5"/>
			<circle class="st13" cx="170.94" cy="95.62" r="2.5"/>
			<circle class="st13" cx="159.94" cy="95.62" r="2.5"/>
		</g>
		<g>
			<g>
				<path class="st2" d="M124.44,116.62c-11.3,0-20.5-9.2-20.5-20.5c0-1.38,1.12-2.5,2.5-2.5h36c1.38,0,2.5,1.12,2.5,2.5
					C144.94,107.43,135.74,116.62,124.44,116.62z"/>
				<path class="st2" d="M142.44,96.12L142.44,96.12 M142.44,96.12c0,9.94-8.06,18-18,18s-18-8.06-18-18H142.44 M142.45,91.12
					L142.45,91.12h-36c-2.76,0-5,2.24-5,5c0,12.68,10.32,23,23,23c12.62,0,22.9-10.22,23-22.82c0-0.06,0-0.12,0-0.18
					C147.44,93.36,145.21,91.12,142.45,91.12L142.45,91.12z M142.44,101.12L142.44,101.12L142.44,101.12L142.44,101.12z"/>
			</g>
			<g>
				<ellipse class="st9" cx="124.44" cy="108.12" rx="13.39" ry="6"/>
			</g>
		</g>
	</g>
	<circle class="st14" cx="130.44" cy="152.12" r="20"/>
	<g>
		<polygon class="st15" points="172.44,170.12 183.44,153.12 189.44,157.12 195.44,148.12 201.44,152.12 207.44,144.12 
			213.44,148.12 222.44,137.12 222.44,170.12 		"/>
		<polyline class="st16" points="172.44,170.12 183.44,153.12 189.44,157.12 195.44,148.12 201.44,152.12 207.44,144.12 
			213.44,148.12 222.44,137.12 		"/>
		<line class="st17" x1="166.44" y1="165.12" x2="172.44" y2="165.12"/>
		<line class="st17" x1="166.44" y1="155.12" x2="172.44" y2="155.12"/>
		<line class="st17" x1="166.44" y1="145.12" x2="172.44" y2="145.12"/>
		<line class="st17" x1="166.44" y1="135.12" x2="172.44" y2="135.12"/>
		<line class="st17" x1="217.44" y1="176.12" x2="217.44" y2="170.12"/>
		<line class="st17" x1="207.44" y1="176.12" x2="207.44" y2="170.12"/>
		<line class="st17" x1="197.44" y1="176.12" x2="197.44" y2="170.12"/>
		<line class="st17" x1="187.44" y1="176.12" x2="187.44" y2="170.12"/>
		<line class="st17" x1="177.44" y1="176.12" x2="177.44" y2="170.12"/>
		<polyline class="st8" points="222.44,170.12 172.44,170.12 172.44,130.12 		"/>
		<path class="st2" d="M218.44,190.12h-36c-1.1,0-2-0.9-2-2l0,0c0-1.1,0.9-2,2-2h36c1.1,0,2,0.9,2,2l0,0
			C220.44,189.23,219.54,190.12,218.44,190.12z"/>
		<circle class="st12" cx="173.44" cy="188.12" r="3"/>
		<path class="st2" d="M204.44,198.12h-22c-1.1,0-2-0.9-2-2l0,0c0-1.1,0.9-2,2-2h22c1.1,0,2,0.9,2,2l0,0
			C206.44,197.23,205.54,198.12,204.44,198.12z"/>
	</g>
	<path class="st2" d="M150.44,190.12h-30c-1.1,0-2-0.9-2-2l0,0c0-1.1,0.9-2,2-2h30c1.1,0,2,0.9,2,2l0,0
		C152.44,189.23,151.54,190.12,150.44,190.12z"/>
	<circle class="st18" cx="111.44" cy="188.12" r="3"/>
	<path class="st2" d="M140.44,198.12h-20c-1.1,0-2-0.9-2-2l0,0c0-1.1,0.9-2,2-2h20c1.1,0,2,0.9,2,2l0,0
		C142.44,197.23,141.54,198.12,140.44,198.12z"/>
	<circle class="st14" cx="111.44" cy="196.12" r="3"/>
	<g>
		<line class="st17" x1="25.44" y1="159.12" x2="31.44" y2="159.12"/>
		<line class="st17" x1="25.44" y1="147.12" x2="31.44" y2="147.12"/>
		<line class="st17" x1="25.44" y1="135.12" x2="31.44" y2="135.12"/>
		<line class="st17" x1="57.44" y1="176.12" x2="57.44" y2="170.12"/>
		<line class="st17" x1="42.44" y1="176.12" x2="42.44" y2="170.12"/>
		<path class="st2" d="M77.44,190.12h-36c-1.1,0-2-0.9-2-2l0,0c0-1.1,0.9-2,2-2h36c1.1,0,2,0.9,2,2l0,0
			C79.44,189.23,78.54,190.12,77.44,190.12z"/>
		<circle class="st11" cx="32.44" cy="188.12" r="3"/>
		<path class="st2" d="M57.44,198.12h-16c-1.1,0-2-0.9-2-2l0,0c0-1.1,0.9-2,2-2h16c1.1,0,2,0.9,2,2l0,0
			C59.44,197.23,58.54,198.12,57.44,198.12z"/>
		<circle class="st19" cx="32.44" cy="196.12" r="3"/>
		<rect x="36.44" y="146.12" class="st11" width="6" height="24"/>
		<rect x="42.44" y="134.12" class="st19" width="6" height="36"/>
		<rect x="51.44" y="140.12" class="st11" width="6" height="30"/>
		<rect x="57.44" y="154.12" class="st19" width="6" height="16"/>
		<line class="st17" x1="72.44" y1="176.12" x2="72.44" y2="170.12"/>
		<rect x="66.44" y="148.12" class="st11" width="6" height="22"/>
		<rect x="72.44" y="144.12" class="st19" width="6" height="26"/>
		<line class="st17" x1="87.44" y1="176.12" x2="87.44" y2="170.12"/>
		<rect x="81.44" y="132.12" class="st11" width="6" height="38"/>
		<rect x="87.44" y="138.12" class="st19" width="6" height="32"/>
		<polyline class="st8" points="96.44,170.12 31.44,170.12 31.44,130.12 		"/>
	</g>
	<path class="st18" d="M130.44,129.12v23h23C153.44,139.42,143.14,129.12,130.44,129.12z"/>
</g>
<g>
	<g>
		<rect x="310.94" y="7.97" class="st3" width="12" height="108"/>
		<rect x="328.94" y="37.97" class="st3" width="12" height="90"/>
		<rect x="346.94" y="43.97" class="st3" width="12" height="84"/>
		<rect x="364.94" y="49.97" class="st3" width="6" height="66"/>
		<rect x="370.94" y="55.97" class="st3" width="6" height="42"/>
		<rect x="370.94" y="55.97" class="st4" width="6" height="42"/>
		<rect x="304.94" y="79.97" class="st3" width="6" height="24"/>
		<rect x="298.94" y="67.97" class="st3" width="6" height="24"/>
		<rect x="292.94" y="61.97" class="st3" width="6" height="18"/>
		<rect x="286.94" y="61.97" class="st3" width="6" height="12"/>
		<rect x="316.94" y="49.97" class="st3" width="48" height="78"/>
		<rect x="304.94" y="7.97" class="st2" width="6" height="72"/>
		<rect x="310.94" y="1.97" class="st2" width="12" height="6"/>
		<rect x="328.94" y="31.97" class="st2" width="12" height="6"/>
		<rect x="346.94" y="37.97" class="st2" width="12" height="6"/>
		<rect x="310.94" y="127.97" class="st2" width="60" height="6"/>
		<rect x="322.94" y="7.97" class="st2" width="6" height="54"/>
		<rect x="340.94" y="37.97" class="st2" width="6" height="24"/>
		<rect x="358.94" y="43.97" class="st2" width="6" height="24"/>
		<rect x="370.94" y="97.97" class="st2" width="6" height="18"/>
		<rect x="364.94" y="97.97" class="st4" width="6" height="18"/>
		<rect x="364.94" y="115.97" class="st2" width="6" height="18"/>
		<rect x="358.94" y="115.97" class="st4" width="6" height="12"/>
		<rect x="310.94" y="115.97" class="st2" width="6" height="18"/>
		<rect x="304.94" y="103.97" class="st2" width="6" height="12"/>
		<rect x="298.94" y="91.97" class="st2" width="6" height="12"/>
		<rect x="292.94" y="79.97" class="st2" width="6" height="12"/>
		<rect x="280.94" y="61.97" class="st2" width="6" height="12"/>
		<rect x="286.94" y="73.97" class="st2" width="6" height="6"/>
		<rect x="298.94" y="61.97" class="st2" width="6" height="6"/>
		<rect x="280.94" y="55.97" class="st2" width="18" height="6"/>
		<rect x="364.94" y="43.97" class="st2" width="6" height="6"/>
		<rect x="370.94" y="49.97" class="st2" width="6" height="6"/>
		<rect x="376.94" y="55.97" class="st2" width="6" height="42"/>
		<rect x="324.94" y="77.97" class="st2" width="6" height="24"/>
		<rect x="336.94" y="77.97" class="st2" width="6" height="24"/>
		<rect x="348.94" y="77.97" class="st2" width="6" height="24"/>
	</g>
</g>
<g>
	<g>
		<g>
			<g>
				<g>
					<g>
						<path class="st12" d="M51.44,304.37c-1.66-0.37-3-2.08-3-3.73c0-15.79,0-31.58,0-47.37c0-1.66,1.34-2.63,3-2.27
							c33.33,7.38,66.67-10.6,100-3.23c1.66,0.37,3,2.08,3,3.73c0,15.79,0,31.58,0,47.37c0,1.66-1.34,2.63-3,2.27
							C118.11,293.76,84.77,311.74,51.44,304.37z"/>
						<path class="st2" d="M151.44,250.77c0,15.79,0,31.58,0,47.37c-33.33-7.38-66.67,10.6-100,3.23c0-15.79,0-31.58,0-47.37
							C84.77,261.37,118.11,243.4,151.44,250.77 M151.44,244.77c-33.33-7.38-66.67,10.6-100,3.23c-3.31-0.73-6,1.07-6,4.39
							c0,15.79,0,31.58,0,47.37c0,3.31,2.69,6.89,6,7.61c33.33,7.38,66.67-10.6,100-3.23c3.31,0.73,6-1.07,6-4.39
							c0-15.79,0-31.58,0-47.37C157.44,249.07,154.75,245.5,151.44,244.77L151.44,244.77z"/>
					</g>
					<path class="st20" d="M147.23,285.23c0-7.72,0-15.44,0-23.16c-4.36-0.7-7.89-4.38-7.89-8.75c-25.26-1.5-50.53,8.03-75.79,6.53
						c0,4.35-3.53,7.74-7.89,7.04c0,7.72,0,15.44,0,23.16c4.36,0.7,7.89,4.38,7.89,8.75c25.26,1.5,50.53-8.03,75.79-6.53
						C139.34,287.93,142.87,284.54,147.23,285.23z"/>
					<g>
						<path class="st12" d="M119.86,273.46c0,12.17-8.25,23.03-18.42,24.72c-10.17,1.69-18.42-7.25-18.42-19.49
							c0-12.17,8.25-23.03,18.42-24.72C111.61,252.27,119.86,261.21,119.86,273.46z"/>
					</g>
					<g>
						<path class="st12" d="M75.65,279.3c0,3.77-2.83,7.03-6.32,7.04c-3.49,0.01-6.32-3.26-6.32-7.04c0-3.78,2.83-6.63,6.32-6.65
							C72.82,272.65,75.65,275.52,75.65,279.3z"/>
					</g>
					<g>
						<path class="st12" d="M139.86,272.84c0,3.78-2.83,6.63-6.32,6.65c-3.49,0.01-6.32-2.86-6.32-6.65c0-3.77,2.83-7.03,6.32-7.04
							C137.03,265.79,139.86,269.06,139.86,272.84z"/>
					</g>
					<g>
						<path class="st8" d="M106.44,276.07c0-1.66,1.34-3.21,3-3.46c1.66-0.25,3,0.91,3,2.56"/>
						<path class="st8" d="M90.44,278.54c0-1.66,1.34-3.19,3-3.44c1.66-0.25,3,0.89,3,2.54"/>
						<path class="st8" d="M94.31,284.47c1.81,1.57,4.34,2.33,7.13,1.88c2.79-0.45,5.32-1.99,7.13-4.12"/>
						<g>
							<path class="st2" d="M96.44,266.94c-2.53,0.89-5.16,1.78-7.72,2.46c-1.41,0.4-2.45-1.19-1.65-2.45
								c2.26-3.46,7.2-5.05,10.42-3.35C98.81,264.46,98.06,266.54,96.44,266.94C96.44,266.94,96.44,266.94,96.44,266.94z"/>
						</g>
						<g>
							<path class="st2" d="M113.75,265.58c-2.55-0.05-5.19-0.09-7.71-0.25c-1.4-0.07-1.79-1.97-0.64-2.97
								c3.22-2.73,8.16-2.58,10.42,0.33C116.71,264.03,115.33,265.78,113.75,265.58C113.75,265.58,113.75,265.58,113.75,265.58z"/>
						</g>
					</g>
				</g>
			</g>
		</g>
	</g>
</g>
<g>
	<g>
		<g>
			<g>
				<g>
					<g>
						<path class="st12" d="M31.94,372.37c-1.66-0.37-3-2.08-3-3.73c0-15.79,0-31.58,0-47.37c0-1.66,1.34-2.63,3-2.27
							c33.33,7.38,66.67-10.6,100-3.23c1.66,0.37,3,2.08,3,3.73c0,15.79,0,31.58,0,47.37c0,1.66-1.34,2.63-3,2.27
							C98.61,361.76,65.27,379.74,31.94,372.37z"/>
						<path class="st2" d="M131.94,318.77c0,15.79,0,31.58,0,47.37c-33.33-7.38-66.67,10.6-100,3.23c0-15.79,0-31.58,0-47.37
							C65.27,329.37,98.61,311.4,131.94,318.77 M131.94,312.77c-33.33-7.38-66.67,10.6-100,3.23c-3.31-0.73-6,1.07-6,4.39
							c0,15.79,0,31.58,0,47.37c0,3.31,2.69,6.89,6,7.61c33.33,7.38,66.67-10.6,100-3.23c3.31,0.73,6-1.07,6-4.39
							c0-15.79,0-31.58,0-47.37C137.94,317.07,135.25,313.5,131.94,312.77L131.94,312.77z"/>
					</g>
					<path class="st20" d="M127.73,353.23c0-7.72,0-15.44,0-23.16c-4.36-0.7-7.89-4.38-7.89-8.75c-25.26-1.5-50.53,8.03-75.79,6.53
						c0,4.35-3.53,7.74-7.89,7.04c0,7.72,0,15.44,0,23.16c4.36,0.7,7.89,4.38,7.89,8.75c25.26,1.5,50.53-8.03,75.79-6.53
						C119.84,355.93,123.37,352.54,127.73,353.23z"/>
					<g>
						<path class="st12" d="M100.36,341.46c0,12.17-8.25,23.03-18.42,24.72c-10.17,1.69-18.42-7.25-18.42-19.49
							c0-12.17,8.25-23.03,18.42-24.72C92.11,320.27,100.36,329.21,100.36,341.46z"/>
					</g>
					<g>
						<path class="st12" d="M56.15,347.3c0,3.77-2.83,7.03-6.32,7.04c-3.49,0.01-6.32-3.26-6.32-7.04c0-3.78,2.83-6.63,6.32-6.65
							C53.32,340.65,56.15,343.52,56.15,347.3z"/>
					</g>
					<g>
						<path class="st12" d="M120.36,340.84c0,3.78-2.83,6.63-6.32,6.65c-3.49,0.01-6.32-2.86-6.32-6.65c0-3.77,2.83-7.03,6.32-7.04
							C117.53,333.79,120.36,337.06,120.36,340.84z"/>
					</g>
					<g>
						<path class="st8" d="M86.94,344.07c0-1.66,1.34-3.21,3-3.46c1.66-0.25,3,0.91,3,2.56"/>
						<path class="st8" d="M70.94,346.54c0-1.66,1.34-3.19,3-3.44c1.66-0.25,3,0.89,3,2.54"/>
						<path class="st8" d="M74.81,352.47c1.81,1.57,4.34,2.33,7.13,1.88c2.79-0.45,5.32-1.99,7.13-4.12"/>
						<g>
							<path class="st2" d="M76.94,334.94c-2.53,0.89-5.16,1.78-7.72,2.46c-1.41,0.4-2.45-1.19-1.65-2.45
								c2.26-3.46,7.2-5.05,10.42-3.35C79.31,332.46,78.56,334.54,76.94,334.94C76.94,334.94,76.94,334.94,76.94,334.94z"/>
						</g>
						<g>
							<path class="st2" d="M94.25,333.58c-2.55-0.05-5.19-0.09-7.71-0.25c-1.4-0.07-1.79-1.97-0.64-2.97
								c3.22-2.73,8.16-2.58,10.42,0.33C97.21,332.03,95.83,333.78,94.25,333.58C94.25,333.58,94.25,333.58,94.25,333.58z"/>
						</g>
					</g>
				</g>
			</g>
		</g>
	</g>
</g>
<g>
	<circle class="st21" cx="173.44" cy="315.07" r="3.5"/>
</g>
<g>
	<circle class="st21" cx="42.44" cy="235.17" r="3.5"/>
</g>
<g>
	<circle class="st21" cx="261.94" cy="135.12" r="3.5"/>
</g>
<g>
	<circle class="st21" cx="277.94" cy="106.97" r="3.5"/>
</g>
<g>
	<circle class="st21" cx="266.94" cy="17.12" r="3.5"/>
</g>
<g>
	<circle class="st21" cx="193.44" cy="283.36" r="3.5"/>
</g>
<g>
	<circle class="st21" cx="17.94" cy="259.07" r="3.5"/>
</g>
<g>
	<circle class="st21" cx="180.44" cy="249.74" r="4.5"/>
</g>
<g>
	<circle class="st21" cx="283.94" cy="37.97" r="4.5"/>
</g>
<g>
	<path class="st21" d="M194.64,359.27c-2.98,0-5.4-2.42-5.4-5.4c0-0.99-0.81-1.8-1.8-1.8c-0.99,0-1.8,0.81-1.8,1.8
		c0,2.98-2.42,5.4-5.4,5.4c-0.99,0-1.8,0.81-1.8,1.8c0,0.99,0.81,1.8,1.8,1.8c2.98,0,5.4,2.42,5.4,5.4c0,0.99,0.81,1.8,1.8,1.8
		c0.99,0,1.8-0.81,1.8-1.8c0-2.98,2.42-5.4,5.4-5.4c0.99,0,1.8-0.81,1.8-1.8C196.44,360.08,195.63,359.27,194.64,359.27z"/>
</g>
</svg>
