<?xml version="1.0" encoding="utf-8"?>
<!-- Generator: Adobe Illustrator 25.0.1, SVG Export Plug-In . SVG Version: 6.00 Build 0)  -->
<svg version="1.1" id="Layer_1" xmlns="http://www.w3.org/2000/svg" xmlns:xlink="http://www.w3.org/1999/xlink" x="0px" y="0px"
	 viewBox="0 0 400 400" style="enable-background:new 0 0 400 400;" xml:space="preserve">
<style type="text/css">
	.st0{clip-path:url(#SVGID_2_);}
	.st1{fill:#1877F2;}
	.st2{fill:#FFD886;}
	.st3{fill:#515979;}
	.st4{fill:#FFE8B6;}
	.st5{fill:#F89D81;}
	.st6{fill:#FBC4B3;}
	.st7{opacity:0.3;}
</style>
<g>
	<defs>
		<rect id="SVGID_1_" width="400" height="400"/>
	</defs>
	<clipPath id="SVGID_2_">
		<use xlink:href="#SVGID_1_"  style="overflow:visible;"/>
	</clipPath>
	<g class="st0">
		<path class="st1" d="M144.9,34C117,34,90.1,44.4,69.6,63.3C49.1,82.3,36.5,108.2,34.3,136c-2.2,27.8,6.2,55.4,23.5,77.3
			c17.3,21.9,42.2,36.4,69.8,40.7v-77.5H99.5v-31.9h28.1v-24.4c0-27.7,16.5-43.1,41.8-43.1c8.3,0.1,16.6,0.8,24.8,2.1v27.3h-13.9
			c-13.8,0-18,8.5-18,17.3v20.8h30.7l-4.9,32h-25.8v77.5c27.7-4.1,52.8-18.6,70.3-40.5c17.4-21.9,25.9-49.6,23.7-77.6
			c-2.2-27.9-14.9-54-35.5-72.9C200,44.2,172.9,33.8,144.9,34L144.9,34z"/>
		<path class="st2" d="M363.5,274.6c-0.9,0.3-1.9,0.2-2.7-0.1c-26.7-8-55.1-8.3-81.9-0.9c-11,3.2-21.6,7.8-31.4,13.7
			c-0.3,0.2-0.7,0.4-1.1,0.5c-0.9,0.3-2,0.2-2.9-0.1c-0.9-0.4-1.7-1-2.2-1.9l-30.7-51c-0.3-0.5-0.5-1.1-0.6-1.6
			c-0.1-0.6-0.1-1.2,0.1-1.7c0.1-0.6,0.4-1.1,0.7-1.6c0.3-0.5,0.8-0.9,1.3-1.2c54.8-32.9,64.3-93.5,64.4-94.1
			c0.1-0.9,0.5-1.6,1.1-2.3c0.6-0.6,1.3-1.1,2.1-1.3l0.3-0.1c0.9-0.2,1.8-0.1,2.7,0.3c0.8,0.4,1.6,1,2,1.8L366,268
			c0.4,0.6,0.6,1.2,0.6,1.9c0.1,0.7,0,1.4-0.3,2c-0.3,0.6-0.6,1.2-1.2,1.7C364.7,274.1,364.1,274.4,363.5,274.6L363.5,274.6z"/>
		<path class="st3" d="M281,135.1l81.3,135.2c-27.5-8.4-56.9-8.8-84.7-1c-11.4,3.3-22.3,8-32.5,14.1l-30.7-51
			C271.9,197.9,281,135.1,281,135.1L281,135.1z M278.5,126.5c-1.6,0.5-3.1,1.4-4.2,2.7c-1.1,1.3-1.8,2.9-2.1,4.5
			c-2.2,11.7-6,23.1-11.3,33.8c-11.8,24.7-29,43.9-51.1,57.2c-1,0.6-1.9,1.4-2.6,2.3c-0.7,0.9-1.2,2-1.5,3.2
			c-0.3,1.1-0.3,2.3-0.2,3.5c0.2,1.2,0.6,2.3,1.2,3.3l30.7,51c1,1.7,2.6,3,4.4,3.7c1.8,0.7,3.8,0.8,5.7,0.3c0.8-0.2,1.5-0.5,2.1-0.9
			c9.5-5.7,19.7-10.1,30.3-13.2c26-7.2,53.4-6.9,79.2,0.9c1.8,0.6,3.7,0.7,5.4,0.2c1.8-0.5,3.3-1.5,4.5-2.9c1.2-1.4,1.9-3.2,2-5
			c0.1-1.8-0.3-3.7-1.2-5.2l-81.2-135.2c-0.9-1.6-2.4-2.8-4-3.6c-1.7-0.7-3.6-0.9-5.4-0.6L278.5,126.5L278.5,126.5z"/>
		<path class="st4" d="M214.5,232.4l4.6,7.6c57.4-34.5,66.6-97.3,66.6-97.3l-4.6-7.6C281.1,135.1,271.9,197.9,214.5,232.4z"/>
		<path class="st5" d="M370.1,279.2c-1.9,0.5-3.9,0.4-5.7-0.3c-1.8-0.7-3.4-2-4.4-3.7l-84.3-140.4c-0.6-1-1-2.1-1.2-3.3
			c-0.2-1.2-0.1-2.3,0.2-3.5c0.3-1.1,0.8-2.2,1.5-3.2c0.7-0.9,1.6-1.7,2.6-2.3c0.7-0.4,1.4-0.7,2.1-0.9c1.9-0.5,3.9-0.4,5.7,0.3
			s3.4,2,4.4,3.7L375.3,266c0.6,1,1,2.1,1.2,3.3c0.2,1.2,0.1,2.3-0.2,3.5c-0.3,1.1-0.8,2.2-1.5,3.2c-0.7,0.9-1.6,1.7-2.6,2.3
			C371.6,278.6,370.9,279,370.1,279.2z"/>
		<path class="st3" d="M282.1,126c0.9-0.3,2-0.2,2.9,0.1c0.9,0.4,1.7,1,2.2,1.9l84.3,140.4c0.6,1,0.8,2.2,0.5,3.4
			c-0.3,1.1-1,2.1-2,2.7c-0.3,0.2-0.7,0.4-1.1,0.5c-0.9,0.3-2,0.2-2.9-0.1c-0.9-0.4-1.7-1-2.2-1.9l-84.3-140.3
			c-0.4-0.6-0.6-1.2-0.6-1.9c-0.1-0.7,0-1.4,0.3-2c0.3-0.6,0.6-1.2,1.2-1.7C280.8,126.5,281.4,126.1,282.1,126L282.1,126z
			 M279.6,117.4c-1.1,0.3-2.2,0.8-3.2,1.4c-3,1.8-5.2,4.8-6.1,8.2c-0.9,3.4-0.3,7.1,1.5,10.1l84.3,140.3c1.5,2.5,3.8,4.5,6.6,5.6
			c2.7,1.1,5.8,1.2,8.6,0.4c1.1-0.3,2.2-0.8,3.2-1.4c3-1.8,5.2-4.8,6.1-8.2c0.9-3.4,0.3-7.1-1.5-10.1l-84.3-140.4
			c-1.5-2.5-3.8-4.5-6.6-5.6C285.5,116.7,282.5,116.6,279.6,117.4L279.6,117.4z"/>
		<path class="st6" d="M281,126.4c-0.5,0.3-0.9,0.7-1.3,1.2c-0.3,0.5-0.6,1-0.7,1.6c-0.1,0.6-0.2,1.2-0.1,1.7
			c0.1,0.6,0.3,1.1,0.6,1.6l6.2,10.2c-0.6-1-0.8-2.2-0.5-3.4c0.3-1.2,1-2.1,2-2.7c1-0.6,2.2-0.8,3.4-0.5c1.1,0.3,2.1,1,2.7,2
			l-6.2-10.2c-0.3-0.5-0.7-0.9-1.2-1.3c-0.5-0.4-1-0.6-1.6-0.7c-0.6-0.1-1.2-0.2-1.8-0.1C282,125.9,281.5,126.1,281,126.4z"/>
		<path class="st2" d="M181.1,326.7c-2.2,0.6-4.6,0.5-6.7-0.3c-2.1-0.8-3.9-2.4-5.1-4.3l-24.5-40.8c-0.7-1.2-1.2-2.5-1.4-3.8
			c-0.2-1.4-0.1-2.7,0.2-4.1c0.3-1.3,0.9-2.6,1.7-3.7c0.8-1.1,1.8-2,3-2.7l15.3-9.2c1.2-0.7,2.5-1.2,3.8-1.4
			c1.4-0.2,2.7-0.1,4.1,0.2c1.3,0.3,2.6,0.9,3.7,1.8c1.1,0.8,2,1.9,2.7,3l24.5,40.7c0.7,1.2,1.2,2.5,1.4,3.8
			c0.2,1.4,0.1,2.7-0.2,4.1c-0.3,1.3-0.9,2.6-1.8,3.7c-0.8,1.1-1.9,2-3,2.7l-15.3,9.2C182.8,326,181.9,326.4,181.1,326.7
			L181.1,326.7z"/>
		<path class="st3" d="M167.4,260.9c1.3-0.4,2.6-0.3,3.8,0.2c1.2,0.5,2.2,1.4,2.9,2.5l24.5,40.8c0.4,0.7,0.7,1.4,0.8,2.2
			c0.1,0.8,0.1,1.6-0.1,2.3c-0.2,0.8-0.5,1.5-1,2.1c-0.5,0.6-1.1,1.2-1.7,1.6l-15.3,9.2c-0.4,0.3-0.9,0.5-1.4,0.6
			c-1.3,0.4-2.6,0.3-3.8-0.2c-1.2-0.5-2.2-1.4-2.9-2.5l-24.5-40.8c-0.4-0.7-0.7-1.4-0.8-2.2c-0.1-0.8-0.1-1.6,0.1-2.3
			c0.2-0.8,0.5-1.5,1-2.1c0.5-0.6,1.1-1.2,1.7-1.6l15.3-9.2C166.5,261.2,166.9,261,167.4,260.9L167.4,260.9z M165,252.3
			c-1.3,0.4-2.5,0.9-3.6,1.6l-15.3,9.2c-1.7,1-3.1,2.3-4.3,3.9c-1.2,1.6-2,3.4-2.5,5.3c-0.5,1.9-0.6,3.9-0.3,5.8
			c0.3,1.9,1,3.8,2,5.5l24.5,40.8c1.7,2.8,4.3,5,7.3,6.2c3,1.2,6.4,1.4,9.6,0.5c1.3-0.4,2.5-0.9,3.6-1.5l15.3-9.2
			c1.7-1,3.1-2.3,4.3-3.9c1.2-1.6,2-3.4,2.5-5.3c0.5-1.9,0.6-3.9,0.3-5.8c-0.3-1.9-1-3.8-2-5.5L181.8,259c-1.7-2.8-4.3-5-7.3-6.2
			C171.5,251.6,168.1,251.4,165,252.3L165,252.3z"/>
		<path class="st4" d="M150.2,281.5l25.5-15.3l-1.5-2.6c-0.4-0.7-0.9-1.3-1.6-1.7c-0.6-0.5-1.3-0.8-2.1-1c-0.8-0.2-1.5-0.2-2.3-0.1
			c-0.8,0.1-1.5,0.4-2.2,0.8l-15.3,9.2c-0.7,0.4-1.3,0.9-1.7,1.6c-0.5,0.6-0.8,1.3-1,2.1c-0.2,0.8-0.2,1.5-0.1,2.3
			c0.1,0.8,0.4,1.5,0.8,2.2L150.2,281.5z"/>
		<path class="st2" d="M250,374c-1.4,0.4-2.9,0.4-4.3-0.1c-1.4-0.4-2.6-1.3-3.6-2.5L205,324.9l31.2-18.7l25.1,41.9
			c2,0,3.9,0.6,5.5,1.8c1.6,1.2,2.7,2.9,3.3,4.8c0.5,1.9,0.4,3.9-0.3,5.8c-0.8,1.8-2.1,3.4-3.8,4.4l-14.2,8.5
			C251.2,373.5,250.6,373.8,250,374L250,374z"/>
		<path class="st3" d="M234.7,312.3l24.6,40.8c0.6-0.3,1.2-0.6,1.9-0.6s1.3,0,1.9,0.2c0.6,0.2,1.2,0.6,1.7,1c0.5,0.5,0.8,1,1,1.7
			c0.3,1,0.3,2.1-0.1,3.1c-0.4,1-1.1,1.8-2,2.3l-14.2,8.5c-0.2,0.1-0.5,0.2-0.7,0.3c-0.6,0.2-1.2,0.2-1.7,0c-0.6-0.2-1.1-0.5-1.4-1
			l-33.9-42.6L234.7,312.3L234.7,312.3z M237.8,300l-7.7,4.6l-23,13.8l-8.7,5.2l6.3,8l33.9,42.6c1.8,2.3,4.3,3.8,7.2,4.3
			c2.8,0.5,5.8,0,8.2-1.5l14.3-8.6c2.3-1.4,4.2-3.4,5.4-5.9c1.1-2.5,1.5-5.2,1.1-7.9c-0.5-2.7-1.7-5.2-3.6-7.1
			c-1.9-1.9-4.4-3.3-7-3.8l-21.8-36.1L237.8,300L237.8,300z"/>
		<path class="st5" d="M201.8,326.4c-2.2,0.6-4.6,0.5-6.7-0.3c-2.1-0.8-3.9-2.4-5.1-4.3l-35.3-58.6c-1.4-2.4-1.8-5.2-1.2-7.9
			c0.7-2.7,2.4-5,4.7-6.4l43.4-26.1c2.4-1.4,5.2-1.8,7.9-1.2c2.7,0.7,5,2.4,6.4,4.7l35.2,58.7c1.4,2.4,1.8,5.2,1.2,7.9
			c-0.7,2.7-2.4,5-4.7,6.4l-43.4,26.1C203.5,325.8,202.7,326.2,201.8,326.4L201.8,326.4z"/>
		<path class="st3" d="M205.4,225.9c1.3-0.4,2.6-0.3,3.8,0.2c1.2,0.5,2.2,1.4,2.9,2.5l35.3,58.7c0.4,0.7,0.7,1.4,0.8,2.2
			c0.1,0.8,0.1,1.6-0.1,2.3c-0.2,0.8-0.5,1.5-1,2.1c-0.5,0.6-1.1,1.2-1.7,1.6L202,321.5c-0.4,0.3-0.9,0.5-1.4,0.6
			c-1.3,0.4-2.6,0.3-3.8-0.2s-2.2-1.4-2.9-2.5l-35.3-58.7c-0.4-0.7-0.7-1.4-0.8-2.2c-0.1-0.8-0.1-1.6,0.1-2.3c0.2-0.8,0.5-1.5,1-2.1
			c0.5-0.6,1.1-1.2,1.7-1.6l43.4-26.1C204.5,226.3,204.9,226.1,205.4,225.9L205.4,225.9z M203,217.3c-1.3,0.4-2.5,0.9-3.6,1.6
			L156,245c-1.7,1-3.1,2.3-4.3,3.9c-1.2,1.6-2,3.4-2.5,5.3c-0.5,1.9-0.6,3.9-0.3,5.8c0.3,1.9,1,3.8,2,5.5l35.3,58.7
			c1,1.7,2.3,3.1,3.9,4.3c1.6,1.2,3.4,2,5.3,2.5c1.9,0.5,3.9,0.6,5.8,0.3c1.9-0.3,3.8-1,5.5-2l43.4-26.1c1.7-1,3.1-2.3,4.3-3.9
			c1.2-1.6,2-3.4,2.5-5.3c0.5-1.9,0.6-3.9,0.3-5.8c-0.3-1.9-1-3.8-2-5.5L219.8,224c-1.7-2.8-4.3-5-7.3-6.2
			C209.5,216.6,206.1,216.4,203,217.3L203,217.3z"/>
		<path class="st6" d="M160.1,263.3l53.6-32.2l-1.5-2.6c-0.4-0.7-0.9-1.3-1.6-1.7c-0.6-0.5-1.3-0.8-2.1-1c-0.8-0.2-1.5-0.2-2.3-0.1
			c-0.8,0.1-1.5,0.4-2.2,0.8l-43.4,26.1c-0.7,0.4-1.3,0.9-1.7,1.6c-0.5,0.6-0.8,1.3-1,2.1c-0.2,0.8-0.2,1.5-0.1,2.3
			c0.1,0.8,0.4,1.5,0.8,2.2L160.1,263.3z"/>
		<path class="st5" d="M252.8,327.3c-0.9,0.3-2,0.2-2.9-0.1c-0.9-0.4-1.7-1-2.2-1.9l-9.2-15.3c-0.3-0.5-0.5-1.1-0.6-1.6
			c-0.1-0.6-0.1-1.2,0.1-1.7c0.1-0.6,0.4-1.1,0.7-1.6c0.3-0.5,0.8-0.9,1.3-1.2l5.1-3c1-0.6,2.2-0.8,3.4-0.5c1.1,0.3,2.1,1,2.7,2
			l6.9,11.5c0.6,1,1,2.1,1.2,3.3c0.2,1.2,0.1,2.3-0.2,3.5c-0.3,1.1-0.8,2.2-1.5,3.2c-0.7,0.9-1.6,1.7-2.6,2.3l-1.3,0.8
			C253.5,327.1,253.1,327.2,252.8,327.3L252.8,327.3z"/>
		<path class="st3" d="M247.4,304.7l6.9,11.5c0.6,1,0.8,2.2,0.5,3.4c-0.3,1.1-1,2.1-2,2.7l-1.3,0.8l-9.2-15.4L247.4,304.7
			L247.4,304.7z M245,296.1c-0.8,0.2-1.5,0.5-2.2,0.9l-5.1,3c-2,1.2-3.5,3.2-4.1,5.5c-0.6,2.3-0.2,4.7,1,6.8l9.2,15.3
			c0.6,1,1.4,1.9,2.3,2.6c0.9,0.7,2,1.2,3.2,1.5c1.1,0.3,2.3,0.3,3.5,0.2c1.2-0.2,2.3-0.6,3.3-1.2l1.3-0.8c3-1.8,5.2-4.8,6.1-8.2
			c0.9-3.4,0.3-7.1-1.5-10.1l-6.9-11.5c-1-1.7-2.6-3-4.4-3.7C248.9,295.6,246.9,295.5,245,296.1L245,296.1z"/>
		<g class="st7">
			<g class="st7">
				<path class="st3" d="M211.7,326.1l5.6,7.1l22-13.2l-4.6-7.6L211.7,326.1z"/>
			</g>
		</g>
	</g>
</g>
</svg>
