<?xml version="1.0" encoding="utf-8"?>
<!-- Generator: Adobe Illustrator 26.0.2, SVG Export Plug-In . SVG Version: 6.00 Build 0)  -->
<svg version="1.1" id="Layer_1" xmlns="http://www.w3.org/2000/svg" xmlns:xlink="http://www.w3.org/1999/xlink" x="0px" y="0px"
	 viewBox="0 0 400 400" style="enable-background:new 0 0 400 400;" xml:space="preserve">
<style type="text/css">
	.st0{fill:#ECFAEF;}
	.st1{fill:#D8F5DF;}
	.st2{fill:#C4F1D0;}
	.st3{fill:none;}
	.st4{fill:#FFD886;}
	.st5{fill:#FFFFFF;}
	.st6{fill:#515979;}
	.st7{fill:#E9E4FF;}
	.st8{fill:#EEEBFF;}
	.st9{fill:#667683;}
	.st10{fill:#EF7D7D;}
	.st11{fill:#FFE8A0;}
	.st12{fill:#7DDF96;}
	.st13{fill:#C4BDFF;}
	.st14{fill:#AAA0FF;}
	.st15{fill:#FFEBEB;}
	.st16{fill:#FBB040;}
	.st17{fill:#75A5C3;}
</style>
<g id="Landing_x5F_Page_x5F_Hub-Landing_x5F_Page_x5F_Copy">
	<g>
		<g>
			<circle class="st0" cx="200" cy="198.37" r="170"/>
		</g>
		<g>
			<circle class="st1" cx="200" cy="198.37" r="140"/>
		</g>
		<g>
			<circle class="st2" cx="200" cy="198.37" r="110"/>
		</g>
	</g>
	<g>
		<rect class="st3" width="400" height="400"/>
	</g>
	<g>
		<g>
			<g>
				<path class="st4" d="M353.51,317.57c2.98,0,5.4-2.42,5.4-5.4c0-0.99,0.81-1.8,1.8-1.8s1.8,0.81,1.8,1.8c0,2.98,2.42,5.4,5.4,5.4
					c0.99,0,1.8,0.81,1.8,1.8s-0.81,1.8-1.8,1.8c-2.98,0-5.4,2.42-5.4,5.4c0,0.99-0.81,1.8-1.8,1.8s-1.8-0.81-1.8-1.8
					c0-2.98-2.42-5.4-5.4-5.4c-0.99,0-1.8-0.81-1.8-1.8S352.52,317.57,353.51,317.57z"/>
			</g>
		</g>
	</g>
	<g>
		<g>
			<g>
				<circle class="st4" cx="227.21" cy="384.58" r="3"/>
			</g>
		</g>
	</g>
	<g>
		<g>
			<g>
				<circle class="st4" cx="158.21" cy="376.75" r="3"/>
			</g>
		</g>
	</g>
	<g>
		<g>
			<g>
				<circle class="st4" cx="351.71" cy="368.37" r="3"/>
			</g>
		</g>
	</g>
	<g>
		<g>
			<g>
				<circle class="st4" cx="383.36" cy="262.62" r="3"/>
			</g>
		</g>
	</g>
	<g>
		<g>
			<g>
				<circle class="st4" cx="16.52" cy="119.37" r="3"/>
			</g>
		</g>
	</g>
	<g>
		<g>
			<g>
				<circle class="st4" cx="128.21" cy="19.99" r="3"/>
			</g>
		</g>
	</g>
	<g>
		<g>
			<g>
				<circle class="st4" cx="30" cy="184.37" r="3"/>
			</g>
		</g>
	</g>
	<g>
		<g>
			<circle class="st4" cx="69.78" cy="28.37" r="4"/>
		</g>
	</g>
	<g>
		<g>
			<circle class="st4" cx="281.71" cy="358.79" r="4.5"/>
		</g>
	</g>
	<path class="st4" d="M56.58,73.37h-6v-6c0-1.66-1.34-3-3-3s-3,1.34-3,3v6h-6c-1.66,0-3,1.34-3,3s1.34,3,3,3h6v6c0,1.66,1.34,3,3,3
		s3-1.34,3-3v-6h6c1.66,0,3-1.34,3-3S58.24,73.37,56.58,73.37z"/>
	<g>
		<g>
			<g>
				<path class="st5" d="M109.71,325.37c-7.17,0-13-5.83-13-13v-226c0-7.17,5.83-13,13-13h180c7.17,0,13,5.83,13,13v226
					c0,7.17-5.83,13-13,13H109.71z"/>
			</g>
			<g>
				<path class="st6" d="M289.71,76.37c5.52,0,10,4.48,10,10v226c0,5.52-4.48,10-10,10h-180c-5.52,0-10-4.48-10-10v-226
					c0-5.52,4.48-10,10-10L289.71,76.37 M289.71,70.37h-180c-8.82,0-16,7.18-16,16v226c0,8.82,7.18,16,16,16h180
					c8.82,0,16-7.18,16-16v-226C305.71,77.55,298.53,70.37,289.71,70.37L289.71,70.37z"/>
			</g>
		</g>
		<g>
			<path class="st7" d="M289.71,322.37h-180c-5.52,0-10-4.48-10-10v-42h200v42C299.71,317.89,295.23,322.37,289.71,322.37z"/>
		</g>
		<g>
			<rect x="99.71" y="110.37" class="st8" width="200" height="72"/>
		</g>
		<g>
			<g>
				<path class="st9" d="M99.71,107.37c-1.66,0-3-1.34-3-3v-18c0-7.17,5.83-13,13-13h180c7.17,0,13,5.83,13,13v18c0,1.66-1.34,3-3,3
					H99.71z"/>
			</g>
			<g>
				<path class="st6" d="M289.71,76.37c5.52,0,10,4.48,10,10v18h-200v-18c0-5.52,4.48-10,10-10H289.71 M289.71,70.37h-180
					c-8.82,0-16,7.18-16,16v18c0,3.31,2.69,6,6,6h200c3.31,0,6-2.69,6-6v-18C305.71,77.55,298.53,70.37,289.71,70.37L289.71,70.37z"
					/>
			</g>
		</g>
		<g>
			<g>
				<path class="st5" d="M189.71,97.37c-3.86,0-7-3.14-7-7s3.14-7,7-7h94c3.86,0,7,3.14,7,7s-3.14,7-7,7H189.71z"/>
			</g>
			<g>
				<g>
					<path class="st6" d="M283.71,86.37c2.21,0,4,1.79,4,4s-1.79,4-4,4h-94c-2.21,0-4-1.79-4-4s1.79-4,4-4H283.71 M283.71,80.37h-94
						c-5.51,0-10,4.49-10,10s4.49,10,10,10h94c5.51,0,10-4.49,10-10S289.22,80.37,283.71,80.37L283.71,80.37z"/>
				</g>
			</g>
		</g>
		<g>
			<g>
				<circle class="st10" cx="115.71" cy="90.37" r="7"/>
			</g>
			<g>
				<g>
					<path class="st6" d="M115.71,86.37c2.21,0,4,1.79,4,4s-1.79,4-4,4s-4-1.79-4-4S113.5,86.37,115.71,86.37 M115.71,80.37
						c-5.51,0-10,4.49-10,10s4.49,10,10,10s10-4.49,10-10S121.22,80.37,115.71,80.37L115.71,80.37z"/>
				</g>
			</g>
		</g>
		<g>
			<g>
				<path class="st11" d="M139.71,97.37c-3.86,0-7-3.14-7-7s3.14-7,7-7s7,3.14,7,7S143.57,97.37,139.71,97.37z"/>
			</g>
			<g>
				<g>
					<path class="st6" d="M139.71,86.37c2.21,0,4,1.79,4,4s-1.79,4-4,4s-4-1.79-4-4S137.5,86.37,139.71,86.37 M139.71,80.37
						c-5.51,0-10,4.49-10,10s4.49,10,10,10s10-4.49,10-10S145.22,80.37,139.71,80.37L139.71,80.37z"/>
				</g>
			</g>
		</g>
		<g>
			<g>
				<circle class="st12" cx="163.71" cy="90.37" r="7"/>
			</g>
			<g>
				<g>
					<path class="st6" d="M163.71,86.37c2.21,0,4,1.79,4,4s-1.79,4-4,4s-4-1.79-4-4S161.5,86.37,163.71,86.37 M163.71,80.37
						c-5.51,0-10,4.49-10,10s4.49,10,10,10s10-4.49,10-10S169.22,80.37,163.71,80.37L163.71,80.37z"/>
				</g>
			</g>
		</g>
		<g>
			<g>
				<rect x="99.71" y="182.37" class="st13" width="200" height="88"/>
			</g>
		</g>
		<g>
			<g>
				<rect x="99.71" y="182.37" class="st14" width="200" height="4"/>
			</g>
		</g>
		<g>
			<g>
				<path class="st14" d="M278.71,297.37h-88c-1.1,0-2-0.9-2-2l0,0c0-1.1,0.9-2,2-2h88c1.1,0,2,0.9,2,2l0,0
					C280.71,296.48,279.81,297.37,278.71,297.37z"/>
			</g>
		</g>
		<g>
			<g>
				<path class="st14" d="M264.71,305.37h-74c-1.1,0-2-0.9-2-2l0,0c0-1.1,0.9-2,2-2h74c1.1,0,2,0.9,2,2l0,0
					C266.71,304.48,265.81,305.37,264.71,305.37z"/>
			</g>
		</g>
		<g>
			<g>
				<path class="st14" d="M240.71,313.37h-50c-1.1,0-2-0.9-2-2l0,0c0-1.1,0.9-2,2-2h50c1.1,0,2,0.9,2,2l0,0
					C242.71,312.48,241.81,313.37,240.71,313.37z"/>
			</g>
		</g>
		<g>
			<circle class="st8" cx="140.71" cy="215.37" r="21"/>
		</g>
		<g>
			<g>
				<path class="st13" d="M149.71,276.37c-16.57,0-30,13.43-30,30c0,5.88,1.7,11.37,4.63,16h50.74c2.93-4.63,4.63-10.12,4.63-16
					C179.71,289.8,166.28,276.37,149.71,276.37z"/>
			</g>
		</g>
		<g>
			<circle class="st8" cx="199.71" cy="215.37" r="21"/>
		</g>
		<g>
			<circle class="st8" cx="258.71" cy="215.37" r="21"/>
		</g>
		<g>
			<g>
				<path class="st14" d="M157.71,246.37h-34c-1.1,0-2-0.9-2-2l0,0c0-1.1,0.9-2,2-2h34c1.1,0,2,0.9,2,2l0,0
					C159.71,245.48,158.81,246.37,157.71,246.37z"/>
			</g>
		</g>
		<g>
			<g>
				<path class="st14" d="M157.71,254.37h-34c-1.1,0-2-0.9-2-2l0,0c0-1.1,0.9-2,2-2h34c1.1,0,2,0.9,2,2l0,0
					C159.71,253.48,158.81,254.37,157.71,254.37z"/>
			</g>
		</g>
		<g>
			<g>
				<path class="st14" d="M147.71,262.37h-24c-1.1,0-2-0.9-2-2l0,0c0-1.1,0.9-2,2-2h24c1.1,0,2,0.9,2,2l0,0
					C149.71,261.48,148.81,262.37,147.71,262.37z"/>
			</g>
		</g>
		<g>
			<g>
				<path class="st14" d="M216.71,246.37h-34c-1.1,0-2-0.9-2-2l0,0c0-1.1,0.9-2,2-2h34c1.1,0,2,0.9,2,2l0,0
					C218.71,245.48,217.81,246.37,216.71,246.37z"/>
			</g>
		</g>
		<g>
			<g>
				<path class="st14" d="M216.71,254.37h-34c-1.1,0-2-0.9-2-2l0,0c0-1.1,0.9-2,2-2h34c1.1,0,2,0.9,2,2l0,0
					C218.71,253.48,217.81,254.37,216.71,254.37z"/>
			</g>
		</g>
		<g>
			<g>
				<path class="st14" d="M206.71,262.37h-24c-1.1,0-2-0.9-2-2l0,0c0-1.1,0.9-2,2-2h24c1.1,0,2,0.9,2,2l0,0
					C208.71,261.48,207.81,262.37,206.71,262.37z"/>
			</g>
		</g>
		<g>
			<g>
				<path class="st14" d="M275.71,246.37h-34c-1.1,0-2-0.9-2-2l0,0c0-1.1,0.9-2,2-2h34c1.1,0,2,0.9,2,2l0,0
					C277.71,245.48,276.81,246.37,275.71,246.37z"/>
			</g>
		</g>
		<g>
			<g>
				<path class="st14" d="M275.71,254.37h-34c-1.1,0-2-0.9-2-2l0,0c0-1.1,0.9-2,2-2h34c1.1,0,2,0.9,2,2l0,0
					C277.71,253.48,276.81,254.37,275.71,254.37z"/>
			</g>
		</g>
		<g>
			<g>
				<path class="st14" d="M265.71,262.37h-24c-1.1,0-2-0.9-2-2l0,0c0-1.1,0.9-2,2-2h24c1.1,0,2,0.9,2,2l0,0
					C267.71,261.48,266.81,262.37,265.71,262.37z"/>
			</g>
		</g>
		<g>
			<path class="st6" d="M217.71,149.37H181.7c-2.76,0-5,2.24-5,5c0,12.68,10.32,23,23,23c12.62,0,22.9-10.22,23-22.82
				c0-0.06,0-0.12,0-0.18C222.71,151.61,220.47,149.37,217.71,149.37z"/>
			<g>
				<g>
					<ellipse class="st10" cx="199.71" cy="166.37" rx="13.39" ry="6"/>
				</g>
			</g>
		</g>
		<g>
			<g>
				<path class="st6" d="M209.73,123.16c3.68-3.2,9.6-3.78,13.59-0.77c1.81,1.35,4.82,4.88,1.93,6.45c-0.74,0.34-1.5,0.14-2.13-0.25
					c-1.05-0.55-1.86-1.12-2.73-1.43c-2.91-1.36-6.23-0.67-9.32-0.51C209.24,126.71,208.35,124.31,209.73,123.16L209.73,123.16z"/>
			</g>
		</g>
		<g>
			<g>
				<path class="st6" d="M187.73,126.65c-1.94-0.19-4.24-0.52-6.14-0.2c-2.14,0.25-3.69,1.26-5.66,2.33c-1,0.52-2.23,0.14-2.75-0.86
					c-0.3-0.57-0.3-1.22-0.06-1.77c1.83-4.71,7.87-6.81,12.48-5.23c1.95,0.66,6.22,2.41,4.28,5.04
					C189.33,126.63,188.5,126.7,187.73,126.65L187.73,126.65z"/>
			</g>
		</g>
		<g>
			<g>
				<path class="st6" d="M191.71,144.87c-1.38,0-2.5-1.12-2.5-2.5c0-2.48-2.02-4.5-4.5-4.5s-4.5,2.02-4.5,4.5
					c0,1.38-1.12,2.5-2.5,2.5s-2.5-1.12-2.5-2.5c0-5.24,4.26-9.5,9.5-9.5s9.5,4.26,9.5,9.5
					C194.21,143.75,193.09,144.87,191.71,144.87z"/>
			</g>
		</g>
		<g>
			<g>
				<path class="st6" d="M221.71,144.87c-1.38,0-2.5-1.12-2.5-2.5c0-2.48-2.02-4.5-4.5-4.5s-4.5,2.02-4.5,4.5
					c0,1.38-1.12,2.5-2.5,2.5s-2.5-1.12-2.5-2.5c0-5.24,4.26-9.5,9.5-9.5s9.5,4.26,9.5,9.5
					C224.21,143.75,223.09,144.87,221.71,144.87z"/>
			</g>
		</g>
		<g>
			<g>
				<g>
					<circle class="st14" cx="162.71" cy="146.87" r="2.5"/>
				</g>
			</g>
			<g>
				<g>
					<circle class="st14" cx="168.21" cy="157.87" r="2.5"/>
				</g>
			</g>
			<g>
				<g>
					<circle class="st14" cx="157.21" cy="157.87" r="2.5"/>
				</g>
			</g>
		</g>
		<g>
			<g>
				<g>
					<circle class="st14" cx="236.71" cy="146.87" r="2.5"/>
				</g>
			</g>
			<g>
				<g>
					<circle class="st14" cx="242.21" cy="157.87" r="2.5"/>
				</g>
			</g>
			<g>
				<g>
					<circle class="st14" cx="231.21" cy="157.87" r="2.5"/>
				</g>
			</g>
		</g>
	</g>
	<g>
		<g>
			<g>
				<path class="st15" d="M130.51,361.48c-0.77,0-1.52-0.29-2.09-0.85L98.59,331.6c-0.77-0.75-1.08-1.86-0.81-2.91l4.26-16.36
					c0.24-0.92,0.91-1.68,1.8-2.03l13.51-5.37c0.36-0.14,0.73-0.21,1.11-0.21c0.58,0,1.16,0.17,1.66,0.5l13.82,9.17
					c0.88,0.58,1.38,1.58,1.34,2.63l-1.77,41.59c-0.05,1.18-0.79,2.22-1.89,2.66C131.26,361.41,130.88,361.48,130.51,361.48z"/>
			</g>
			<g>
				<path class="st6" d="M118.45,307.72l13.82,9.17l-1.77,41.59l-29.83-29.04l4.26-16.36L118.45,307.72 M118.45,301.72
					c-0.75,0-1.5,0.14-2.22,0.42l-13.51,5.37c-1.78,0.71-3.11,2.21-3.59,4.06l-4.26,16.36c-0.54,2.09,0.08,4.31,1.62,5.81
					l29.83,29.04c1.14,1.11,2.65,1.7,4.19,1.7c0.75,0,1.5-0.14,2.21-0.42c2.2-0.87,3.68-2.96,3.78-5.32l1.77-41.59
					c0.09-2.1-0.93-4.09-2.68-5.25l-13.82-9.17C120.77,302.06,119.62,301.72,118.45,301.72L118.45,301.72z"/>
			</g>
		</g>
		<g>
			<polygon class="st6" points="130.51,358.48 118.83,348.06 131.84,342.89 			"/>
		</g>
		<g>
			<g>
				<path class="st4" d="M100.64,332.45c-1.21-0.02-2.3-0.76-2.74-1.89l-31.4-79c-0.61-1.54,0.14-3.28,1.68-3.9l31.6-12.56
					c0.36-0.14,0.73-0.21,1.11-0.21c0.4,0,0.81,0.08,1.19,0.25c0.73,0.32,1.31,0.91,1.6,1.65l31.39,78.99
					c0.45,1.13,0.17,2.41-0.7,3.26c-0.57,0.56-1.33,0.85-2.09,0.85c-0.4,0-0.8-0.08-1.19-0.25l-9.7-4.18l-1.99,8.4
					c-0.23,0.95-0.9,1.74-1.81,2.1c-0.36,0.14-0.73,0.21-1.11,0.21c-0.58,0-1.15-0.17-1.65-0.49l-7.21-4.74l-4.18,9.7
					c-0.47,1.1-1.56,1.81-2.75,1.81C100.66,332.45,100.65,332.45,100.64,332.45z"/>
			</g>
			<g>
				<path class="st6" d="M100.89,237.9l31.39,78.99l-12.99-5.6l-2.81,11.88l-10.2-6.71l-5.6,12.99l-31.39-78.99L100.89,237.9
					 M100.89,231.9c-0.74,0-1.49,0.14-2.21,0.43l-31.6,12.55c-1.48,0.59-2.66,1.74-3.29,3.2c-0.63,1.46-0.65,3.11-0.07,4.59
					l31.39,78.99c0.9,2.26,3.06,3.75,5.49,3.78c0.03,0,0.06,0,0.09,0c2.39,0,4.56-1.42,5.51-3.62l2.77-6.42l4.22,2.78
					c0.99,0.65,2.14,0.99,3.3,0.99c0.75,0,1.5-0.14,2.22-0.42c1.82-0.72,3.17-2.29,3.62-4.19l1.16-4.92l6.42,2.77
					c0.77,0.33,1.57,0.49,2.37,0.49c1.53,0,3.04-0.59,4.18-1.7c1.74-1.69,2.29-4.26,1.4-6.52l-31.39-78.99
					C105.53,233.33,103.27,231.9,100.89,231.9L100.89,231.9z"/>
			</g>
		</g>
		<g>
			<polygon class="st16" points="132.28,316.89 121.89,312.41 93.45,240.85 100.89,237.9 			"/>
		</g>
		<g>
			<g>
				
					<rect x="60.3" y="221.09" transform="matrix(0.9293 -0.3693 0.3693 0.9293 -80.0349 46.0618)" class="st17" width="40" height="22"/>
			</g>
			<g>
				<path class="st6" d="M93.13,218.38l5.91,14.87l-31.6,12.55l-5.91-14.87L93.13,218.38 M96.5,210.59l-5.58,2.22l-31.6,12.55
					l-5.58,2.22l2.22,5.58l5.91,14.87l2.22,5.58l5.58-2.22l31.6-12.55l5.58-2.22l-2.22-5.58l-5.91-14.87L96.5,210.59L96.5,210.59z"
					/>
			</g>
		</g>
		<g>
			<g>
				<path class="st10" d="M48.78,206.95c-0.89-2.23-0.85-4.68,0.1-6.89s2.71-3.91,4.94-4.8l20.45-8.12
					c1.06-0.42,2.18-0.64,3.32-0.64c3.71,0,6.99,2.23,8.37,5.68l8.86,22.3l-37.17,14.77L48.78,206.95z"/>
			</g>
			<g>
				<path class="st6" d="M77.59,189.51c2.39,0,4.64,1.43,5.58,3.79l7.75,19.52l-31.6,12.55l-7.75-19.52
					c-1.22-3.08,0.28-6.57,3.36-7.79l20.45-8.12C76.1,189.64,76.85,189.51,77.59,189.51 M77.59,183.51L77.59,183.51
					c-1.52,0-3.01,0.29-4.43,0.85l-20.45,8.12c-2.98,1.18-5.32,3.46-6.59,6.4c-1.27,2.94-1.32,6.2-0.13,9.18l7.75,19.52l2.22,5.58
					l5.58-2.22l31.6-12.55l5.58-2.22l-2.22-5.58l-7.75-19.52C86.91,186.48,82.54,183.51,77.59,183.51L77.59,183.51z"/>
			</g>
		</g>
		<g>
			<path class="st6" d="M120.4,316.58c-0.99,0-1.94-0.6-2.32-1.58l-28.8-72.49c-0.51-1.28,0.12-2.74,1.4-3.25
				c1.29-0.51,2.74,0.12,3.25,1.4l28.8,72.49c0.51,1.28-0.12,2.74-1.4,3.25C121.02,316.52,120.71,316.58,120.4,316.58z"/>
		</g>
		<g>
			<path class="st6" d="M107.39,321.75c-0.99,0-1.93-0.6-2.32-1.58l-28.8-72.49c-0.51-1.28,0.12-2.74,1.4-3.25
				c1.28-0.51,2.74,0.12,3.25,1.4l28.8,72.49c0.51,1.28-0.12,2.74-1.4,3.25C108.01,321.69,107.7,321.75,107.39,321.75z"/>
		</g>
		<g>
			<path class="st6" d="M64.49,240.87c-0.99,0-1.93-0.6-2.32-1.58c-0.51-1.28,0.12-2.74,1.4-3.25l31.6-12.55
				c1.28-0.51,2.74,0.12,3.25,1.4c0.51,1.28-0.12,2.74-1.4,3.25l-31.6,12.55C65.11,240.81,64.8,240.87,64.49,240.87z"/>
		</g>
		<g>
			<g>
				<g>
					<g>
						<g>
							<g>
								<path class="st6" d="M72.64,204.52c-0.99,0-1.93-0.59-2.32-1.57c-0.65-1.61-0.62-3.38,0.07-4.97
									c0.69-1.6,1.96-2.83,3.57-3.47c1.6-0.64,3.37-0.62,4.96,0.07c1.6,0.69,2.83,1.96,3.47,3.57c0.51,1.28-0.12,2.74-1.41,3.24
									c-1.29,0.51-2.74-0.12-3.24-1.41c-0.15-0.37-0.43-0.66-0.8-0.82c-0.37-0.16-0.77-0.16-1.14-0.02
									c-0.38,0.15-0.67,0.43-0.83,0.8c-0.16,0.37-0.16,0.77-0.02,1.14c0.51,1.28-0.11,2.74-1.39,3.25
									C73.26,204.46,72.95,204.52,72.64,204.52z"/>
							</g>
						</g>
						<g>
							<g>
								<path class="st6" d="M57.77,210.42c-0.99,0-1.93-0.59-2.32-1.57c-0.64-1.61-0.62-3.38,0.07-4.98
									c0.69-1.6,1.96-2.83,3.57-3.47c1.6-0.64,3.37-0.62,4.96,0.07c1.6,0.69,2.83,1.96,3.47,3.57c0.51,1.28-0.12,2.74-1.41,3.24
									c-1.29,0.51-2.74-0.12-3.24-1.41c-0.15-0.37-0.43-0.66-0.8-0.82c-0.37-0.16-0.77-0.17-1.14-0.02
									c-0.38,0.15-0.67,0.43-0.83,0.8s-0.16,0.77-0.02,1.14c0.51,1.28-0.11,2.74-1.39,3.25
									C58.39,210.36,58.08,210.42,57.77,210.42z"/>
							</g>
						</g>
						<g>
							<g>
								<path class="st6" d="M64.64,178.37c2.35-2.39,5.82-3.22,9.02-2.28c1.95,0.5,4.76,2.79,2.72,4.77
									c-0.46,0.45-1.11,0.52-1.7,0.59c-1.3,0.15-2.64,0.18-3.87,0.27c-1.54,0.07-3.43,0.36-4.95,0.08
									C64.22,181.63,63.49,179.49,64.64,178.37L64.64,178.37z"/>
							</g>
						</g>
						<g>
							<g>
								<path class="st6" d="M55.83,186.14c-1.3,1.39-3.21,2.72-4.64,3.99c-0.58,0.47-1.33,1.13-2.08,1.62
									c-0.94,0.67-2.24,0.44-2.9-0.49c-1.24-2.45,0.74-5.47,2.64-6.99c1.79-1.54,7.65-3.79,7.87,0.14
									C56.72,185.11,56.24,185.65,55.83,186.14L55.83,186.14z"/>
							</g>
						</g>
					</g>
				</g>
			</g>
			<g>
				<g>
					<path class="st6" d="M67.04,215.82c-1.44,0-2.89-0.17-4.35-0.52c-1.07-0.26-1.73-1.34-1.47-2.41c0.26-1.07,1.34-1.74,2.42-1.47
						c5.77,1.4,11.87-1.01,14.5-5.71c0.54-0.96,1.76-1.31,2.72-0.77c0.96,0.54,1.31,1.76,0.77,2.72
						C78.75,212.78,73.11,215.82,67.04,215.82z"/>
				</g>
			</g>
		</g>
	</g>
</g>
</svg>
