<?xml version="1.0" encoding="utf-8"?>
<!-- Generator: Adobe Illustrator 26.2.1, SVG Export Plug-In . SVG Version: 6.00 Build 0)  -->
<svg version="1.1" id="PPC_x5F_Hub-Keyword_x5F_Expansion"
	 xmlns="http://www.w3.org/2000/svg" xmlns:xlink="http://www.w3.org/1999/xlink" x="0px" y="0px" viewBox="0 0 400 400"
	 style="enable-background:new 0 0 400 400;" xml:space="preserve">
<style type="text/css">
	.st0{fill:#7170B2;}
	.st1{fill:#515979;}
	.st2{fill:#AAA0FF;}
	.st3{fill:#EF7D7D;}
	.st4{fill:#FFFFFF;}
	.st5{fill:#329B87;}
	.st6{fill:#7DDF96;}
	.st7{fill:#F89D81;}
	.st8{fill:#FFD886;}
	.st9{fill:none;}
</style>
<path class="st0" d="M18,241.32c-4.96,0-9-4.04-9-9v-58c0-4.96,4.04-9,9-9h188c4.96,0,9,4.04,9,9v58c0,4.96-4.04,9-9,9H18z"/>
<path class="st1" d="M206,168.32c3.31,0,6,2.69,6,6v58c0,3.31-2.69,6-6,6H18c-3.31,0-6-2.69-6-6v-58c0-3.31,2.69-6,6-6H206
	 M206,162.32H18c-6.62,0-12,5.38-12,12v58c0,6.62,5.38,12,12,12h188c6.62,0,12-5.38,12-12v-58C218,167.71,212.62,162.32,206,162.32
	L206,162.32z"/>
<path class="st2" d="M36,241.32c-4.96,0-9-4.04-9-9v-58c0-4.96,4.04-9,9-9h188c4.96,0,9,4.04,9,9v58c0,4.96-4.04,9-9,9H36z"/>
<path class="st1" d="M224,168.32c3.31,0,6,2.69,6,6v58c0,3.31-2.69,6-6,6H36c-3.31,0-6-2.69-6-6v-58c0-3.31,2.69-6,6-6H224
	 M224,162.32H36c-6.62,0-12,5.38-12,12v58c0,6.62,5.38,12,12,12h188c6.62,0,12-5.38,12-12v-58C236,167.71,230.62,162.32,224,162.32
	L224,162.32z"/>
<path class="st1" d="M144.01,187.32H116c-2.21,0-4,1.79-4,4c0,9.93,8.07,18,18,18c9.87,0,17.91-7.99,18-17.84c0-0.05,0-0.11,0-0.16
	C148,189.12,146.21,187.32,144.01,187.32z"/>
<path class="st3" d="M130,205.32c4.14,0,7.85-1.81,10.41-4.67c-2.56-2.86-6.27-4.67-10.41-4.67c-4.14,0-7.85,1.81-10.41,4.67
	C122.15,203.52,125.86,205.32,130,205.32z"/>
<path class="st1" d="M140.21,155.35c3.19-2.67,8.07-3.16,11.63-0.84c1.85,1.15,4.47,4.36,1.78,5.89c-0.68,0.34-1.38,0.17-2.03-0.08
	c-2.39-0.99-4.33-1.45-6.9-1.39c-1.13-0.02-2.38,0.14-3.48-0.09C139.54,158.65,138.92,156.37,140.21,155.35L140.21,155.35z"/>
<path class="st1" d="M118.03,158.94c-2.41,0.03-4.98-0.2-7.28,0.54c-0.82,0.19-1.84,0.7-2.84,1c-1.65,0.62-3.29-1.26-2.5-2.81
	c1.73-3.99,6.96-5.48,10.88-4.21c1.87,0.58,5.51,2.24,3.74,4.67C119.55,158.77,118.73,158.86,118.03,158.94L118.03,158.94z"/>
<path class="st1" d="M120.02,181.82c-1.38,0-2.5-1.12-2.5-2.5c0-1.38-1.12-2.5-2.5-2.5s-2.5,1.12-2.5,2.5c0,1.38-1.12,2.5-2.5,2.5
	s-2.5-1.12-2.5-2.5c0-4.14,3.36-7.5,7.5-7.5s7.5,3.36,7.5,7.5C122.52,180.71,121.4,181.82,120.02,181.82z"/>
<path class="st1" d="M149.98,181.82c-1.38,0-2.5-1.12-2.5-2.5c0-1.38-1.12-2.5-2.5-2.5s-2.5,1.12-2.5,2.5c0,1.38-1.12,2.5-2.5,2.5
	s-2.5-1.12-2.5-2.5c0-4.14,3.36-7.5,7.5-7.5s7.5,3.36,7.5,7.5C152.48,180.71,151.36,181.82,149.98,181.82z"/>
<path class="st4" d="M84.55,223.75h0.49c0.45,0,0.77-0.14,0.97-0.42l2.95-4.29c0.17-0.23,0.36-0.38,0.56-0.47
	c0.2-0.09,0.45-0.13,0.75-0.13h2.65l-3.89,5.3c-0.28,0.37-0.57,0.63-0.89,0.79c0.23,0.08,0.43,0.2,0.62,0.35
	c0.19,0.15,0.36,0.34,0.52,0.58l3.96,6.08h-2.72c-0.17,0-0.32-0.01-0.45-0.04s-0.23-0.06-0.32-0.11c-0.09-0.05-0.17-0.11-0.23-0.18
	c-0.07-0.07-0.13-0.15-0.19-0.24l-2.97-4.56c-0.11-0.17-0.24-0.29-0.41-0.36c-0.17-0.07-0.39-0.1-0.67-0.1h-0.74v5.58h-3.04v-13.11
	h3.04V223.75z"/>
<path class="st4" d="M98.18,220.78v3.06h4.12v2.25h-4.12v3.12h5.38v2.34h-8.44v-13.11h8.44v2.34H98.18z"/>
<path class="st4" d="M112.62,226.57v4.99h-3.04v-4.99l-4.75-8.13h2.68c0.26,0,0.47,0.06,0.62,0.19s0.28,0.28,0.38,0.47l1.85,3.82
	c0.16,0.3,0.3,0.58,0.42,0.84c0.13,0.26,0.24,0.52,0.33,0.77c0.09-0.26,0.19-0.52,0.31-0.78c0.12-0.26,0.25-0.54,0.41-0.83
	l1.84-3.82c0.04-0.08,0.09-0.16,0.15-0.23c0.06-0.08,0.13-0.15,0.21-0.21c0.08-0.06,0.17-0.12,0.28-0.15
	c0.1-0.04,0.22-0.06,0.35-0.06h2.7L112.62,226.57z"/>
<path class="st4" d="M137.16,218.44l-4.05,13.11h-2.75l-2.47-8.13c-0.05-0.12-0.09-0.27-0.14-0.42s-0.08-0.31-0.13-0.48
	c-0.04,0.17-0.08,0.33-0.13,0.48s-0.09,0.29-0.13,0.42l-2.5,8.13h-2.75l-4.05-13.11h2.56c0.26,0,0.48,0.06,0.66,0.18
	c0.18,0.12,0.29,0.28,0.35,0.48l1.8,6.84c0.05,0.21,0.11,0.45,0.16,0.71c0.05,0.25,0.11,0.52,0.16,0.79c0.11-0.56,0.24-1.06,0.4-1.5
	l2.12-6.84c0.05-0.17,0.17-0.32,0.35-0.46c0.18-0.13,0.39-0.2,0.64-0.2h0.9c0.26,0,0.48,0.06,0.64,0.19
	c0.16,0.12,0.28,0.28,0.37,0.47l2.11,6.84c0.16,0.42,0.29,0.9,0.4,1.43c0.05-0.27,0.1-0.52,0.15-0.76c0.05-0.24,0.1-0.46,0.16-0.67
	l1.8-6.84c0.05-0.17,0.16-0.33,0.34-0.46c0.18-0.13,0.4-0.2,0.65-0.2H137.16z"/>
<path class="st4" d="M151.9,225c0,0.95-0.16,1.83-0.49,2.65s-0.79,1.53-1.38,2.13c-0.59,0.6-1.31,1.07-2.15,1.42
	s-1.77,0.51-2.79,0.51c-1.02,0-1.95-0.17-2.79-0.51s-1.56-0.81-2.16-1.42c-0.6-0.6-1.06-1.31-1.39-2.13
	c-0.33-0.82-0.49-1.7-0.49-2.65s0.16-1.83,0.49-2.65c0.33-0.81,0.79-1.52,1.39-2.12c0.6-0.6,1.32-1.07,2.16-1.41
	s1.77-0.51,2.79-0.51c1.02,0,1.95,0.17,2.79,0.52c0.84,0.34,1.55,0.82,2.15,1.42c0.59,0.6,1.05,1.31,1.38,2.12
	S151.9,224.05,151.9,225z M148.79,225c0-0.65-0.08-1.23-0.25-1.75c-0.17-0.52-0.41-0.96-0.72-1.32c-0.32-0.36-0.7-0.64-1.16-0.83
	c-0.46-0.19-0.97-0.29-1.56-0.29c-0.59,0-1.11,0.1-1.57,0.29c-0.46,0.19-0.85,0.47-1.16,0.83c-0.32,0.36-0.56,0.8-0.72,1.32
	c-0.17,0.52-0.25,1.1-0.25,1.75c0,0.65,0.08,1.24,0.25,1.76c0.17,0.52,0.41,0.96,0.72,1.32s0.7,0.63,1.16,0.82
	c0.46,0.19,0.98,0.28,1.57,0.28c0.58,0,1.1-0.1,1.56-0.28c0.46-0.19,0.84-0.46,1.16-0.82c0.31-0.36,0.56-0.8,0.72-1.32
	C148.71,226.24,148.79,225.65,148.79,225z"/>
<path class="st4" d="M165.32,231.56h-2.75c-0.51,0-0.88-0.19-1.1-0.58l-2.18-3.81c-0.1-0.16-0.22-0.28-0.34-0.36
	c-0.13-0.07-0.31-0.11-0.54-0.11h-0.77v4.85h-3.04v-13.11h4.27c0.95,0,1.76,0.1,2.43,0.29c0.67,0.2,1.21,0.47,1.64,0.81
	s0.73,0.76,0.92,1.23c0.19,0.47,0.29,0.99,0.29,1.55c0,0.43-0.06,0.83-0.17,1.21c-0.11,0.38-0.28,0.73-0.5,1.05
	c-0.22,0.32-0.5,0.61-0.82,0.86s-0.7,0.46-1.13,0.62c0.2,0.1,0.38,0.23,0.56,0.38c0.17,0.15,0.33,0.33,0.47,0.54L165.32,231.56z
	 M158.86,224.61c0.41,0,0.77-0.05,1.06-0.16c0.29-0.1,0.53-0.25,0.71-0.44c0.19-0.19,0.32-0.4,0.41-0.65
	c0.08-0.25,0.13-0.52,0.13-0.81c0-0.58-0.19-1.03-0.56-1.35s-0.96-0.49-1.74-0.49h-1.22v3.89H158.86z"/>
<path class="st4" d="M179.23,225c0,0.95-0.16,1.82-0.49,2.62s-0.79,1.49-1.38,2.08c-0.59,0.58-1.31,1.04-2.15,1.37
	c-0.84,0.33-1.77,0.49-2.79,0.49h-5.09v-13.11h5.09c1.02,0,1.95,0.17,2.79,0.5s1.55,0.79,2.15,1.37s1.05,1.27,1.38,2.07
	C179.07,223.18,179.23,224.05,179.23,225z M176.11,225c0-0.65-0.08-1.23-0.25-1.76c-0.17-0.52-0.41-0.96-0.72-1.33
	c-0.31-0.36-0.7-0.64-1.16-0.84c-0.46-0.2-0.97-0.29-1.56-0.29h-2.03v8.43h2.03c0.58,0,1.1-0.1,1.56-0.29
	c0.46-0.19,0.84-0.47,1.16-0.84c0.32-0.36,0.56-0.81,0.72-1.33S176.11,225.65,176.11,225z"/>
<path class="st5" d="M194,111.7c-4.96,0-9-4.04-9-9v-58c0-4.96,4.04-9,9-9h188c4.96,0,9,4.04,9,9v58c0,4.96-4.04,9-9,9H194z"/>
<path class="st1" d="M382,38.7c3.31,0,6,2.69,6,6v58c0,3.31-2.69,6-6,6H194c-3.31,0-6-2.69-6-6v-58c0-3.31,2.69-6,6-6H382 M382,32.7
	H194c-6.62,0-12,5.38-12,12v58c0,6.62,5.38,12,12,12h188c6.62,0,12-5.38,12-12v-58C394,38.08,388.62,32.7,382,32.7L382,32.7z"/>
<path class="st6" d="M176,111.7c-4.96,0-9-4.04-9-9v-58c0-4.96,4.04-9,9-9h188c4.96,0,9,4.04,9,9v58c0,4.96-4.04,9-9,9H176z"/>
<path class="st1" d="M364,38.7c3.31,0,6,2.69,6,6v58c0,3.31-2.69,6-6,6H176c-3.31,0-6-2.69-6-6v-58c0-3.31,2.69-6,6-6H364 M364,32.7
	H176c-6.62,0-12,5.38-12,12v58c0,6.62,5.38,12,12,12h188c6.62,0,12-5.38,12-12v-58C376,38.08,370.62,32.7,364,32.7L364,32.7z"/>
<path class="st4" d="M224.55,94.13h0.49c0.45,0,0.77-0.14,0.97-0.42l2.95-4.28c0.17-0.23,0.36-0.39,0.56-0.47s0.45-0.13,0.75-0.13
	h2.65l-3.89,5.3c-0.28,0.37-0.57,0.63-0.89,0.79c0.23,0.08,0.43,0.2,0.62,0.35c0.19,0.15,0.36,0.34,0.52,0.58l3.96,6.08h-2.72
	c-0.17,0-0.32-0.01-0.45-0.04c-0.12-0.02-0.23-0.06-0.32-0.11c-0.09-0.05-0.17-0.11-0.23-0.18c-0.07-0.07-0.13-0.15-0.19-0.24
	l-2.97-4.56c-0.11-0.17-0.24-0.29-0.41-0.36c-0.17-0.07-0.39-0.1-0.67-0.1h-0.74v5.58h-3.04V88.82h3.04V94.13z"/>
<path class="st4" d="M238.18,91.16v3.06h4.12v2.25h-4.12v3.12h5.38v2.34h-8.44V88.82h8.44v2.34H238.18z"/>
<path class="st4" d="M252.62,96.94v4.99h-3.04v-4.99l-4.75-8.13h2.68c0.26,0,0.47,0.06,0.62,0.18s0.28,0.28,0.38,0.47l1.85,3.82
	c0.16,0.3,0.3,0.58,0.42,0.84c0.13,0.26,0.24,0.52,0.33,0.77c0.09-0.26,0.19-0.52,0.31-0.78c0.12-0.26,0.25-0.54,0.41-0.83
	l1.84-3.82c0.04-0.08,0.09-0.16,0.15-0.23c0.06-0.08,0.13-0.15,0.21-0.21c0.08-0.06,0.17-0.11,0.28-0.15
	c0.1-0.04,0.22-0.06,0.35-0.06h2.7L252.62,96.94z"/>
<path class="st4" d="M277.16,88.82l-4.05,13.11h-2.75l-2.47-8.13c-0.05-0.13-0.09-0.27-0.14-0.42c-0.04-0.15-0.08-0.31-0.13-0.48
	c-0.04,0.17-0.08,0.33-0.13,0.48c-0.04,0.15-0.09,0.29-0.13,0.42l-2.5,8.13h-2.75l-4.05-13.11h2.56c0.26,0,0.48,0.06,0.66,0.18
	c0.18,0.12,0.29,0.28,0.35,0.48l1.8,6.84c0.05,0.22,0.11,0.45,0.16,0.71c0.05,0.25,0.11,0.52,0.16,0.8c0.11-0.56,0.24-1.06,0.4-1.5
	l2.12-6.84c0.05-0.17,0.17-0.32,0.35-0.45c0.18-0.14,0.39-0.2,0.64-0.2h0.9c0.26,0,0.48,0.06,0.64,0.18
	c0.16,0.12,0.28,0.28,0.37,0.47l2.11,6.84c0.16,0.42,0.29,0.9,0.4,1.43c0.05-0.27,0.1-0.52,0.15-0.76c0.05-0.24,0.1-0.46,0.16-0.67
	l1.8-6.84c0.05-0.17,0.16-0.33,0.34-0.46c0.18-0.13,0.4-0.2,0.65-0.2H277.16z"/>
<path class="st4" d="M291.9,95.37c0,0.95-0.16,1.83-0.49,2.65c-0.33,0.82-0.79,1.53-1.38,2.13c-0.59,0.6-1.31,1.08-2.15,1.42
	s-1.77,0.51-2.79,0.51c-1.02,0-1.95-0.17-2.79-0.51s-1.56-0.81-2.16-1.42c-0.6-0.6-1.06-1.31-1.39-2.13
	c-0.33-0.82-0.49-1.7-0.49-2.65c0-0.95,0.16-1.83,0.49-2.65c0.33-0.82,0.79-1.52,1.39-2.12c0.6-0.6,1.32-1.07,2.16-1.41
	s1.77-0.51,2.79-0.51c1.02,0,1.95,0.17,2.79,0.52s1.55,0.82,2.15,1.42c0.59,0.6,1.05,1.31,1.38,2.12
	C291.74,93.55,291.9,94.43,291.9,95.37z M288.79,95.37c0-0.65-0.08-1.23-0.25-1.75c-0.17-0.52-0.41-0.96-0.72-1.32
	c-0.32-0.36-0.7-0.64-1.16-0.83s-0.97-0.29-1.56-0.29c-0.59,0-1.11,0.1-1.57,0.29s-0.85,0.47-1.16,0.83s-0.56,0.8-0.72,1.32
	c-0.17,0.52-0.25,1.1-0.25,1.75c0,0.65,0.08,1.24,0.25,1.76c0.17,0.52,0.41,0.96,0.72,1.32c0.32,0.36,0.7,0.63,1.16,0.82
	c0.46,0.19,0.98,0.28,1.57,0.28c0.58,0,1.1-0.09,1.56-0.28c0.46-0.19,0.84-0.46,1.16-0.82c0.31-0.36,0.56-0.8,0.72-1.32
	C288.71,96.61,288.79,96.02,288.79,95.37z"/>
<path class="st4" d="M305.32,101.93h-2.75c-0.51,0-0.88-0.19-1.1-0.58l-2.18-3.81c-0.1-0.16-0.22-0.28-0.34-0.36
	s-0.31-0.11-0.54-0.11h-0.77v4.85h-3.04V88.82h4.27c0.95,0,1.76,0.1,2.43,0.29c0.67,0.2,1.21,0.47,1.64,0.81s0.73,0.76,0.92,1.23
	c0.19,0.47,0.29,0.99,0.29,1.55c0,0.43-0.06,0.83-0.17,1.21c-0.11,0.38-0.28,0.73-0.5,1.05c-0.22,0.32-0.5,0.61-0.82,0.86
	s-0.7,0.46-1.13,0.62c0.2,0.1,0.38,0.23,0.56,0.38c0.17,0.15,0.33,0.33,0.47,0.54L305.32,101.93z M298.86,94.98
	c0.41,0,0.77-0.05,1.06-0.16c0.29-0.1,0.53-0.25,0.71-0.44c0.19-0.19,0.32-0.4,0.41-0.65s0.13-0.52,0.13-0.81
	c0-0.58-0.19-1.03-0.56-1.35c-0.38-0.32-0.96-0.49-1.74-0.49h-1.22v3.89H298.86z"/>
<path class="st4" d="M319.23,95.37c0,0.95-0.16,1.82-0.49,2.62s-0.79,1.49-1.38,2.08s-1.31,1.04-2.15,1.37s-1.77,0.49-2.79,0.49
	h-5.09V88.82h5.09c1.02,0,1.95,0.17,2.79,0.5s1.55,0.79,2.15,1.37s1.05,1.27,1.38,2.07C319.07,93.56,319.23,94.43,319.23,95.37z
	 M316.11,95.37c0-0.65-0.08-1.23-0.25-1.76c-0.17-0.52-0.41-0.96-0.72-1.33c-0.31-0.36-0.7-0.64-1.16-0.84s-0.97-0.29-1.56-0.29
	h-2.03v8.43h2.03c0.58,0,1.1-0.1,1.56-0.29c0.46-0.19,0.84-0.47,1.16-0.84c0.32-0.36,0.56-0.81,0.72-1.33
	C316.03,96.61,316.11,96.02,316.11,95.37z"/>
<path class="st1" d="M289.5,58.3c-0.32,0-0.64-0.08-0.94-0.24c-1.89-1.02-5.21-1.02-7.11,0c-0.97,0.52-2.19,0.15-2.71-0.82
	c-0.52-0.97-0.16-2.19,0.82-2.71c3.05-1.64,7.84-1.64,10.89,0c0.97,0.52,1.34,1.73,0.82,2.71C290.9,57.91,290.21,58.3,289.5,58.3z"
	/>
<circle class="st1" cx="285" cy="48.55" r="7"/>
<circle class="st4" cx="286.75" cy="48.55" r="1.75"/>
<path class="st1" d="M270.36,69.56c-5.29,0-10.71-1.42-15.4-4.27c-0.94-0.57-1.25-1.8-0.67-2.75c0.57-0.94,1.8-1.25,2.75-0.67
	c8,4.86,18.86,4.87,25.82,0.03c0.91-0.63,2.15-0.41,2.78,0.5s0.41,2.15-0.5,2.78C280.95,68.1,275.72,69.56,270.36,69.56z"/>
<path class="st1" d="M265.82,72.68c2.7,0.79,5.66,0.86,8.34,0c1.29-0.47,2.34,1.21,1.39,2.17c0,0-0.72,0.76-0.72,0.76
	c-2.84,2.68-7.68,2.05-10.33-0.58C263.38,74.07,264.45,72.21,265.82,72.68L265.82,72.68z"/>
<path class="st1" d="M280.03,25.53c3.24-2.9,8.49-3.41,12.08-0.78c1.81,1.28,4.35,4.61,1.57,6.06c-0.7,0.31-1.41,0.12-2.04-0.19
	c-1.67-0.77-2.8-1.34-4.5-1.56c-1.59-0.26-3.56-0.04-5.21-0.01c0,0-0.78-0.08-0.78-0.08C279.47,28.86,278.76,26.59,280.03,25.53
	L280.03,25.53z"/>
<path class="st1" d="M259.5,58.3c-0.32,0-0.64-0.08-0.94-0.24c-1.89-1.02-5.21-1.02-7.11,0c-0.98,0.52-2.19,0.15-2.71-0.82
	c-0.52-0.97-0.16-2.19,0.82-2.71c3.05-1.64,7.84-1.64,10.89,0c0.97,0.52,1.34,1.73,0.82,2.71C260.9,57.91,260.21,58.3,259.5,58.3z"
	/>
<circle class="st1" cx="255" cy="48.55" r="7"/>
<circle class="st4" cx="256.75" cy="48.55" r="1.75"/>
<path class="st1" d="M258.07,29.05c-1.64-0.03-3.62-0.25-5.21,0.01c-1.71,0.22-2.84,0.78-4.5,1.56c-1.13,0.65-2.6,0.36-3.13-0.9
	c-0.22-0.53-0.2-1.1,0-1.59c0.54-1.28,1.41-2.51,2.67-3.38c2.96-2.22,7.23-2.17,10.35-0.44c1.45,0.74,3.33,2.28,1.88,4.02
	C259.63,28.95,258.79,29,258.07,29.05L258.07,29.05z"/>
<path class="st3" d="M176.67,367.7c-4.96,0-9-4.04-9-9v-58c0-4.96,4.04-9,9-9h188c4.96,0,9,4.04,9,9v58c0,4.96-4.04,9-9,9H176.67z"
	/>
<path class="st1" d="M364.67,294.7c3.31,0,6,2.69,6,6v58c0,3.31-2.69,6-6,6h-188c-3.31,0-6-2.69-6-6v-58c0-3.31,2.69-6,6-6H364.67
	 M364.67,288.7h-188c-6.62,0-12,5.38-12,12v58c0,6.62,5.38,12,12,12h188c6.62,0,12-5.38,12-12v-58
	C376.67,294.08,371.28,288.7,364.67,288.7L364.67,288.7z"/>
<path class="st7" d="M158.67,367.7c-4.96,0-9-4.04-9-9v-58c0-4.96,4.04-9,9-9h188c4.96,0,9,4.04,9,9v58c0,4.96-4.04,9-9,9H158.67z"
	/>
<path class="st1" d="M346.67,294.7c3.31,0,6,2.69,6,6v58c0,3.31-2.69,6-6,6h-188c-3.31,0-6-2.69-6-6v-58c0-3.31,2.69-6,6-6H346.67
	 M346.67,288.7h-188c-6.62,0-12,5.38-12,12v58c0,6.62,5.38,12,12,12h188c6.62,0,12-5.38,12-12v-58
	C358.67,294.08,353.28,288.7,346.67,288.7L346.67,288.7z"/>
<path class="st4" d="M207.22,350.13h0.49c0.45,0,0.77-0.14,0.97-0.42l2.95-4.28c0.17-0.23,0.36-0.39,0.56-0.47s0.45-0.13,0.75-0.13
	h2.65l-3.89,5.3c-0.28,0.37-0.57,0.63-0.89,0.79c0.23,0.08,0.43,0.2,0.62,0.35c0.19,0.15,0.36,0.34,0.52,0.58l3.96,6.08h-2.72
	c-0.17,0-0.32-0.01-0.45-0.04c-0.12-0.02-0.23-0.06-0.32-0.11c-0.09-0.05-0.17-0.11-0.23-0.18c-0.07-0.07-0.13-0.15-0.19-0.24
	l-2.97-4.56c-0.11-0.17-0.24-0.29-0.41-0.36c-0.17-0.07-0.39-0.1-0.67-0.1h-0.74v5.58h-3.04v-13.11h3.04V350.13z"/>
<path class="st4" d="M220.85,347.16v3.06h4.12v2.25h-4.12v3.12h5.38v2.34h-8.44v-13.11h8.44v2.34H220.85z"/>
<path class="st4" d="M235.29,352.94v4.99h-3.04v-4.99l-4.75-8.13h2.68c0.26,0,0.47,0.06,0.62,0.18s0.28,0.28,0.38,0.47l1.85,3.82
	c0.16,0.3,0.3,0.58,0.42,0.84c0.13,0.26,0.24,0.52,0.33,0.77c0.09-0.26,0.19-0.52,0.31-0.78c0.12-0.26,0.25-0.54,0.41-0.83
	l1.84-3.82c0.04-0.08,0.09-0.16,0.15-0.23c0.06-0.08,0.13-0.15,0.21-0.21c0.08-0.06,0.17-0.11,0.28-0.15
	c0.1-0.04,0.22-0.06,0.35-0.06h2.7L235.29,352.94z"/>
<path class="st4" d="M259.83,344.82l-4.05,13.11h-2.75l-2.47-8.13c-0.05-0.13-0.09-0.27-0.14-0.42c-0.04-0.15-0.08-0.31-0.13-0.48
	c-0.04,0.17-0.08,0.33-0.13,0.48c-0.04,0.15-0.09,0.29-0.13,0.42l-2.5,8.13h-2.75l-4.05-13.11h2.56c0.26,0,0.48,0.06,0.66,0.18
	c0.18,0.12,0.29,0.28,0.35,0.48l1.8,6.84c0.05,0.22,0.11,0.45,0.16,0.71c0.05,0.25,0.11,0.52,0.16,0.8c0.11-0.56,0.24-1.06,0.4-1.5
	l2.12-6.84c0.05-0.17,0.17-0.32,0.35-0.45c0.18-0.14,0.39-0.2,0.64-0.2h0.9c0.26,0,0.48,0.06,0.64,0.18
	c0.16,0.12,0.28,0.28,0.37,0.47l2.11,6.84c0.16,0.42,0.29,0.9,0.4,1.43c0.05-0.27,0.1-0.52,0.15-0.76c0.05-0.24,0.1-0.46,0.16-0.67
	l1.8-6.84c0.05-0.17,0.16-0.33,0.34-0.46c0.18-0.13,0.4-0.2,0.65-0.2H259.83z"/>
<path class="st4" d="M274.57,351.37c0,0.95-0.16,1.83-0.49,2.65c-0.33,0.82-0.79,1.53-1.38,2.13c-0.59,0.6-1.31,1.08-2.15,1.42
	s-1.77,0.51-2.79,0.51c-1.02,0-1.95-0.17-2.79-0.51s-1.56-0.81-2.16-1.42c-0.6-0.6-1.06-1.31-1.39-2.13
	c-0.33-0.82-0.49-1.7-0.49-2.65c0-0.95,0.16-1.83,0.49-2.65c0.33-0.82,0.79-1.52,1.39-2.12c0.6-0.6,1.32-1.07,2.16-1.41
	s1.77-0.51,2.79-0.51c1.02,0,1.95,0.17,2.79,0.52s1.55,0.82,2.15,1.42c0.59,0.6,1.05,1.31,1.38,2.12
	C274.41,349.55,274.57,350.43,274.57,351.37z M271.46,351.37c0-0.65-0.08-1.23-0.25-1.75c-0.17-0.52-0.41-0.96-0.72-1.32
	c-0.32-0.36-0.7-0.64-1.16-0.83s-0.97-0.29-1.56-0.29c-0.59,0-1.11,0.1-1.57,0.29s-0.85,0.47-1.16,0.83s-0.56,0.8-0.72,1.32
	c-0.17,0.52-0.25,1.1-0.25,1.75c0,0.65,0.08,1.24,0.25,1.76c0.17,0.52,0.41,0.96,0.72,1.32c0.32,0.36,0.7,0.63,1.16,0.82
	c0.46,0.19,0.98,0.28,1.57,0.28c0.58,0,1.1-0.09,1.56-0.28c0.46-0.19,0.84-0.46,1.16-0.82c0.31-0.36,0.56-0.8,0.72-1.32
	C271.37,352.61,271.46,352.02,271.46,351.37z"/>
<path class="st4" d="M287.99,357.93h-2.75c-0.51,0-0.88-0.19-1.1-0.58l-2.18-3.81c-0.1-0.16-0.22-0.28-0.34-0.36
	s-0.31-0.11-0.54-0.11h-0.77v4.85h-3.04v-13.11h4.27c0.95,0,1.76,0.1,2.43,0.29c0.67,0.2,1.21,0.47,1.64,0.81s0.73,0.76,0.92,1.23
	c0.19,0.47,0.29,0.99,0.29,1.55c0,0.43-0.06,0.83-0.17,1.21c-0.11,0.38-0.28,0.73-0.5,1.05c-0.22,0.32-0.5,0.61-0.82,0.86
	s-0.7,0.46-1.13,0.62c0.2,0.1,0.38,0.23,0.56,0.38c0.17,0.15,0.33,0.33,0.47,0.54L287.99,357.93z M281.53,350.98
	c0.41,0,0.77-0.05,1.06-0.16c0.29-0.1,0.53-0.25,0.71-0.44c0.19-0.19,0.32-0.4,0.41-0.65s0.13-0.52,0.13-0.81
	c0-0.58-0.19-1.03-0.56-1.35c-0.38-0.32-0.96-0.49-1.74-0.49h-1.22v3.89H281.53z"/>
<path class="st4" d="M301.89,351.37c0,0.95-0.16,1.82-0.49,2.62s-0.79,1.49-1.38,2.08s-1.31,1.04-2.15,1.37s-1.77,0.49-2.79,0.49
	H290v-13.11h5.09c1.02,0,1.95,0.17,2.79,0.5s1.55,0.79,2.15,1.37s1.05,1.27,1.38,2.07C301.73,349.56,301.89,350.43,301.89,351.37z
	 M298.78,351.37c0-0.65-0.08-1.23-0.25-1.76c-0.17-0.52-0.41-0.96-0.72-1.33c-0.31-0.36-0.7-0.64-1.16-0.84s-0.97-0.29-1.56-0.29
	h-2.03v8.43h2.03c0.58,0,1.1-0.1,1.56-0.29c0.46-0.19,0.84-0.47,1.16-0.84c0.32-0.36,0.56-0.81,0.72-1.33
	C298.7,352.61,298.78,352.02,298.78,351.37z"/>
<path class="st1" d="M272.16,314.3c-0.32,0-0.64-0.08-0.94-0.24c-1.89-1.02-5.21-1.02-7.11,0c-0.98,0.52-2.19,0.16-2.71-0.82
	c-0.52-0.97-0.16-2.19,0.82-2.71c3.05-1.64,7.84-1.64,10.89,0c0.97,0.52,1.34,1.74,0.82,2.71
	C273.57,313.91,272.88,314.3,272.16,314.3z"/>
<circle class="st1" cx="267.67" cy="304.55" r="7"/>
<circle class="st4" cx="269.42" cy="304.55" r="1.75"/>
<path class="st1" d="M253.03,325.57c-5.29,0-10.71-1.42-15.4-4.27c-0.94-0.57-1.25-1.8-0.67-2.75c0.57-0.94,1.8-1.24,2.75-0.67
	c8,4.86,18.86,4.87,25.82,0.03c0.91-0.63,2.15-0.41,2.78,0.5s0.41,2.15-0.5,2.78C263.62,324.1,258.39,325.57,253.03,325.57z"/>
<path class="st1" d="M248.49,328.68c2.7,0.79,5.66,0.86,8.34,0c1.29-0.47,2.34,1.21,1.39,2.17c0,0-0.72,0.76-0.72,0.76
	c-2.84,2.68-7.68,2.05-10.33-0.58C246.05,330.07,247.12,328.21,248.49,328.68L248.49,328.68z"/>
<path class="st1" d="M262.69,281.53c3.24-2.9,8.49-3.41,12.08-0.78c1.81,1.28,4.35,4.61,1.57,6.06c-0.7,0.31-1.41,0.12-2.04-0.19
	c-1.67-0.77-2.8-1.34-4.5-1.56c-1.59-0.26-3.56-0.04-5.21-0.01c0,0-0.78-0.08-0.78-0.08C262.14,284.86,261.42,282.59,262.69,281.53
	L262.69,281.53z"/>
<path class="st1" d="M242.16,314.3c-0.32,0-0.64-0.08-0.94-0.24c-1.89-1.02-5.21-1.02-7.11,0c-0.98,0.52-2.19,0.16-2.71-0.82
	c-0.52-0.97-0.16-2.19,0.82-2.71c3.05-1.64,7.84-1.64,10.89,0c0.97,0.52,1.34,1.74,0.82,2.71
	C243.57,313.91,242.88,314.3,242.16,314.3z"/>
<circle class="st1" cx="237.67" cy="304.55" r="7"/>
<circle class="st4" cx="239.42" cy="304.55" r="1.75"/>
<path class="st1" d="M240.74,285.05c-1.64-0.03-3.62-0.25-5.21,0.01c-1.71,0.22-2.84,0.78-4.5,1.56c-1.13,0.65-2.6,0.36-3.13-0.9
	c-0.22-0.53-0.2-1.1,0-1.59c0.54-1.28,1.41-2.51,2.67-3.38c2.96-2.22,7.23-2.17,10.35-0.44c1.45,0.74,3.33,2.28,1.88,4.02
	C242.29,284.95,241.46,285,240.74,285.05L240.74,285.05z"/>
<path class="st1" d="M146.95,333.5h-5c-0.83,0-1.5-0.67-1.5-1.5s0.67-1.5,1.5-1.5h5c0.83,0,1.5,0.67,1.5,1.5
	S147.78,333.5,146.95,333.5z M132.95,333.5h-5c-0.83,0-1.5-0.67-1.5-1.5s0.67-1.5,1.5-1.5h5c0.83,0,1.5,0.67,1.5,1.5
	S133.78,333.5,132.95,333.5z M118.95,333.5h-5c-0.83,0-1.5-0.67-1.5-1.5s0.67-1.5,1.5-1.5h5c0.83,0,1.5,0.67,1.5,1.5
	S119.78,333.5,118.95,333.5z M104.95,333.5h-5c-0.83,0-1.5-0.67-1.5-1.5s0.67-1.5,1.5-1.5h5c0.83,0,1.5,0.67,1.5,1.5
	S105.78,333.5,104.95,333.5z M90.95,333.5h-5c-0.83,0-1.5-0.67-1.5-1.5s0.67-1.5,1.5-1.5h5c0.83,0,1.5,0.67,1.5,1.5
	S91.78,333.5,90.95,333.5z M76.95,333.5h-5c-0.83,0-1.5-0.67-1.5-1.5s0.67-1.5,1.5-1.5h5c0.83,0,1.5,0.67,1.5,1.5
	S77.78,333.5,76.95,333.5z M63.04,332.82c-0.18,0-0.36-0.03-0.54-0.1c-1.79-0.69-3.39-1.84-4.63-3.31
	c-0.53-0.63-0.45-1.58,0.18-2.11c0.63-0.53,1.58-0.45,2.11,0.18c0.92,1.09,2.1,1.94,3.42,2.45c0.77,0.3,1.15,1.17,0.85,1.94
	C64.21,332.46,63.64,332.82,63.04,332.82z M56.67,321.5c-0.83,0-1.5-0.67-1.5-1.5v-5c0-0.83,0.67-1.5,1.5-1.5s1.5,0.67,1.5,1.5v5
	C58.17,320.83,57.5,321.5,56.67,321.5z M56.67,307.5c-0.83,0-1.5-0.67-1.5-1.5v-5c0-0.83,0.67-1.5,1.5-1.5s1.5,0.67,1.5,1.5v5
	C58.17,306.83,57.5,307.5,56.67,307.5z M56.67,293.5c-0.83,0-1.5-0.67-1.5-1.5v-5c0-0.83,0.67-1.5,1.5-1.5s1.5,0.67,1.5,1.5v5
	C58.17,292.83,57.5,293.5,56.67,293.5z M56.67,279.5c-0.83,0-1.5-0.67-1.5-1.5v-5c0-0.83,0.67-1.5,1.5-1.5s1.5,0.67,1.5,1.5v5
	C58.17,278.83,57.5,279.5,56.67,279.5z M56.67,265.5c-0.83,0-1.5-0.67-1.5-1.5v-5c0-0.83,0.67-1.5,1.5-1.5s1.5,0.67,1.5,1.5v5
	C58.17,264.83,57.5,265.5,56.67,265.5z M56.67,251.5c-0.83,0-1.5-0.67-1.5-1.5v-5c0-0.83,0.67-1.5,1.5-1.5s1.5,0.67,1.5,1.5v5
	C58.17,250.83,57.5,251.5,56.67,251.5z"/>
<path class="st1" d="M59,163.5c-0.83,0-1.5-0.67-1.5-1.5v-5c0-0.83,0.67-1.5,1.5-1.5s1.5,0.67,1.5,1.5v5
	C60.5,162.83,59.83,163.5,59,163.5z M59,149.5c-0.83,0-1.5-0.67-1.5-1.5v-5c0-0.83,0.67-1.5,1.5-1.5s1.5,0.67,1.5,1.5v5
	C60.5,148.83,59.83,149.5,59,149.5z M59,135.5c-0.83,0-1.5-0.67-1.5-1.5v-5c0-0.83,0.67-1.5,1.5-1.5s1.5,0.67,1.5,1.5v5
	C60.5,134.83,59.83,135.5,59,135.5z M59,121.5c-0.83,0-1.5-0.67-1.5-1.5v-5c0-0.83,0.67-1.5,1.5-1.5s1.5,0.67,1.5,1.5v5
	C60.5,120.83,59.83,121.5,59,121.5z M59,107.5c-0.83,0-1.5-0.67-1.5-1.5v-5c0-0.83,0.67-1.5,1.5-1.5s1.5,0.67,1.5,1.5v5
	C60.5,106.83,59.83,107.5,59,107.5z M59,93.5c-0.83,0-1.5-0.67-1.5-1.5v-5c0-0.83,0.67-1.5,1.5-1.5s1.5,0.67,1.5,1.5v5
	C60.5,92.83,59.83,93.5,59,93.5z M62.03,80.33c-0.39,0-0.78-0.15-1.08-0.45c-0.58-0.59-0.56-1.54,0.03-2.12
	c1.38-1.34,3.09-2.32,4.93-2.83c0.8-0.22,1.63,0.25,1.85,1.04c0.22,0.8-0.25,1.62-1.04,1.85c-1.36,0.38-2.62,1.1-3.64,2.1
	C62.78,80.19,62.41,80.33,62.03,80.33z M164.29,77.5h-5c-0.83,0-1.5-0.67-1.5-1.5s0.67-1.5,1.5-1.5h5c0.83,0,1.5,0.67,1.5,1.5
	S165.11,77.5,164.29,77.5z M150.29,77.5h-5c-0.83,0-1.5-0.67-1.5-1.5s0.67-1.5,1.5-1.5h5c0.83,0,1.5,0.67,1.5,1.5
	S151.11,77.5,150.29,77.5z M136.29,77.5h-5c-0.83,0-1.5-0.67-1.5-1.5s0.67-1.5,1.5-1.5h5c0.83,0,1.5,0.67,1.5,1.5
	S137.11,77.5,136.29,77.5z M122.29,77.5h-5c-0.83,0-1.5-0.67-1.5-1.5s0.67-1.5,1.5-1.5h5c0.83,0,1.5,0.67,1.5,1.5
	S123.11,77.5,122.29,77.5z M108.29,77.5h-5c-0.83,0-1.5-0.67-1.5-1.5s0.67-1.5,1.5-1.5h5c0.83,0,1.5,0.67,1.5,1.5
	S109.11,77.5,108.29,77.5z M94.29,77.5h-5c-0.83,0-1.5-0.67-1.5-1.5s0.67-1.5,1.5-1.5h5c0.83,0,1.5,0.67,1.5,1.5
	S95.11,77.5,94.29,77.5z M80.29,77.5h-5c-0.83,0-1.5-0.67-1.5-1.5s0.67-1.5,1.5-1.5h5c0.83,0,1.5,0.67,1.5,1.5
	S81.11,77.5,80.29,77.5z"/>
<path class="st1" d="M308,289.5c-0.83,0-1.5-0.67-1.5-1.5v-5c0-0.83,0.67-1.5,1.5-1.5s1.5,0.67,1.5,1.5v5
	C309.5,288.83,308.83,289.5,308,289.5z M308,275.5c-0.83,0-1.5-0.67-1.5-1.5v-5c0-0.83,0.67-1.5,1.5-1.5s1.5,0.67,1.5,1.5v5
	C309.5,274.83,308.83,275.5,308,275.5z M308,261.5c-0.83,0-1.5-0.67-1.5-1.5v-5c0-0.83,0.67-1.5,1.5-1.5s1.5,0.67,1.5,1.5v5
	C309.5,260.83,308.83,261.5,308,261.5z M308,247.5c-0.83,0-1.5-0.67-1.5-1.5v-5c0-0.83,0.67-1.5,1.5-1.5s1.5,0.67,1.5,1.5v5
	C309.5,246.83,308.83,247.5,308,247.5z M308,233.5c-0.83,0-1.5-0.67-1.5-1.5v-5c0-0.83,0.67-1.5,1.5-1.5s1.5,0.67,1.5,1.5v5
	C309.5,232.83,308.83,233.5,308,233.5z M308,219.5c-0.83,0-1.5-0.67-1.5-1.5v-5c0-0.83,0.67-1.5,1.5-1.5s1.5,0.67,1.5,1.5v5
	C309.5,218.83,308.83,219.5,308,219.5z M308,205.5c-0.83,0-1.5-0.67-1.5-1.5v-5c0-0.83,0.67-1.5,1.5-1.5s1.5,0.67,1.5,1.5v5
	C309.5,204.83,308.83,205.5,308,205.5z M308,191.5c-0.83,0-1.5-0.67-1.5-1.5v-5c0-0.83,0.67-1.5,1.5-1.5s1.5,0.67,1.5,1.5v5
	C309.5,190.83,308.83,191.5,308,191.5z M308,177.5c-0.83,0-1.5-0.67-1.5-1.5v-5c0-0.83,0.67-1.5,1.5-1.5s1.5,0.67,1.5,1.5v5
	C309.5,176.83,308.83,177.5,308,177.5z M308,163.5c-0.83,0-1.5-0.67-1.5-1.5v-5c0-0.83,0.67-1.5,1.5-1.5s1.5,0.67,1.5,1.5v5
	C309.5,162.83,308.83,163.5,308,163.5z M308,149.5c-0.83,0-1.5-0.67-1.5-1.5v-5c0-0.83,0.67-1.5,1.5-1.5s1.5,0.67,1.5,1.5v5
	C309.5,148.83,308.83,149.5,308,149.5z M308,135.5c-0.83,0-1.5-0.67-1.5-1.5v-5c0-0.83,0.67-1.5,1.5-1.5s1.5,0.67,1.5,1.5v5
	C309.5,134.83,308.83,135.5,308,135.5z M308,121.5c-0.83,0-1.5-0.67-1.5-1.5v-5c0-0.83,0.67-1.5,1.5-1.5s1.5,0.67,1.5,1.5v5
	C309.5,120.83,308.83,121.5,308,121.5z"/>
<path class="st8" d="M267.8,177.2c2.98,0,5.4-2.42,5.4-5.4c0-0.99,0.81-1.8,1.8-1.8s1.8,0.81,1.8,1.8c0,2.98,2.42,5.4,5.4,5.4
	c0.99,0,1.8,0.81,1.8,1.8s-0.81,1.8-1.8,1.8c-2.98,0-5.4,2.42-5.4,5.4c0,0.99-0.81,1.8-1.8,1.8s-1.8-0.81-1.8-1.8
	c0-2.98-2.42-5.4-5.4-5.4c-0.99,0-1.8-0.81-1.8-1.8S266.81,177.2,267.8,177.2z"/>
<circle class="st8" cx="29.17" cy="38.5" r="4.5"/>
<circle class="st8" cx="283" cy="237" r="5"/>
<path class="st8" d="M356,218h-6v-6c0-1.66-1.34-3-3-3s-3,1.34-3,3v6h-6c-1.66,0-3,1.34-3,3s1.34,3,3,3h6v6c0,1.66,1.34,3,3,3
	s3-1.34,3-3v-6h6c1.66,0,3-1.34,3-3S357.66,218,356,218z"/>
<path class="st8" d="M79.73,359.6c2.32,0,4.2-1.88,4.2-4.2c0-0.77,0.63-1.4,1.4-1.4c0.77,0,1.4,0.63,1.4,1.4
	c0,2.32,1.88,4.2,4.2,4.2c0.77,0,1.4,0.63,1.4,1.4s-0.63,1.4-1.4,1.4c-2.32,0-4.2,1.88-4.2,4.2c0,0.77-0.63,1.4-1.4,1.4
	c-0.77,0-1.4-0.63-1.4-1.4c0-2.32-1.88-4.2-4.2-4.2c-0.77,0-1.4-0.63-1.4-1.4S78.96,359.6,79.73,359.6z"/>
<circle class="st8" cx="31.33" cy="356" r="4"/>
<circle class="st8" cx="26" cy="295" r="3"/>
<path class="st8" d="M19.47,91.2c2.98,0,5.4-2.42,5.4-5.4c0-0.99,0.81-1.8,1.8-1.8c0.99,0,1.8,0.81,1.8,1.8c0,2.98,2.42,5.4,5.4,5.4
	c0.99,0,1.8,0.81,1.8,1.8s-0.81,1.8-1.8,1.8c-2.98,0-5.4,2.42-5.4,5.4c0,0.99-0.81,1.8-1.8,1.8c-0.99,0-1.8-0.81-1.8-1.8
	c0-2.98-2.42-5.4-5.4-5.4c-0.99,0-1.8-0.81-1.8-1.8S18.48,91.2,19.47,91.2z"/>
<circle class="st8" cx="84.17" cy="99.5" r="4.5"/>
<circle class="st8" cx="81.67" cy="43" r="3"/>
<rect class="st9" width="400" height="400"/>
</svg>
