<?xml version="1.0" encoding="utf-8"?>
<!-- Generator: Adobe Illustrator 26.0.2, SVG Export Plug-In . SVG Version: 6.00 Build 0)  -->
<svg version="1.1" id="Landing_x5F_Page_x5F_Hub-Landing_x5F_Page_x5F_Checklist"
	 xmlns="http://www.w3.org/2000/svg" xmlns:xlink="http://www.w3.org/1999/xlink" x="0px" y="0px" viewBox="0 0 400 400"
	 style="enable-background:new 0 0 400 400;" xml:space="preserve">
<style type="text/css">
	.st0{fill:#FFFFFF;}
	.st1{fill:#515979;}
	.st2{fill:#E9E4FF;}
	.st3{fill:#EEEBFF;}
	.st4{fill:#667683;}
	.st5{fill:#EF7D7D;}
	.st6{fill:#FFE8A0;}
	.st7{fill:#7DDF96;}
	.st8{fill:#C4BDFF;}
	.st9{fill:#AAA0FF;}
	.st10{fill:#B29D90;}
	.st11{fill:#D8EBFB;}
	.st12{fill:#BAD2E1;}
	.st13{fill:#F89D81;}
	.st14{fill:none;}
	.st15{fill:#FFD886;}
</style>
<g>
	<g>
		<g>
			<path class="st0" d="M27.71,263.37c-7.17,0-13-5.83-13-13v-226c0-7.17,5.83-13,13-13h180c7.17,0,13,5.83,13,13v226
				c0,7.17-5.83,13-13,13H27.71z"/>
		</g>
		<g>
			<path class="st1" d="M207.71,14.37c5.52,0,10,4.48,10,10v226c0,5.52-4.48,10-10,10h-180c-5.52,0-10-4.48-10-10v-226
				c0-5.52,4.48-10,10-10H207.71 M207.71,8.37h-180c-8.82,0-16,7.18-16,16v226c0,8.82,7.18,16,16,16h180c8.82,0,16-7.18,16-16v-226
				C223.71,15.55,216.53,8.37,207.71,8.37L207.71,8.37z"/>
		</g>
	</g>
	<g>
		<path class="st2" d="M207.71,260.37h-180c-5.52,0-10-4.48-10-10v-42h200v42C217.71,255.89,213.23,260.37,207.71,260.37z"/>
	</g>
	<g>
		<rect x="17.71" y="48.37" class="st3" width="200" height="72"/>
	</g>
	<g>
		<g>
			<path class="st4" d="M17.71,45.37c-1.66,0-3-1.34-3-3v-18c0-7.17,5.83-13,13-13h180c7.17,0,13,5.83,13,13v18c0,1.66-1.34,3-3,3
				H17.71z"/>
		</g>
		<g>
			<path class="st1" d="M207.71,14.37c5.52,0,10,4.48,10,10v18h-200v-18c0-5.52,4.48-10,10-10H207.71 M207.71,8.37h-180
				c-8.82,0-16,7.18-16,16v18c0,3.31,2.69,6,6,6h200c3.31,0,6-2.69,6-6v-18C223.71,15.55,216.53,8.37,207.71,8.37L207.71,8.37z"/>
		</g>
	</g>
	<g>
		<g>
			<path class="st0" d="M107.71,35.37c-3.86,0-7-3.14-7-7s3.14-7,7-7h94c3.86,0,7,3.14,7,7s-3.14,7-7,7H107.71z"/>
		</g>
		<g>
			<g>
				<path class="st1" d="M201.71,24.37c2.21,0,4,1.79,4,4v0c0,2.21-1.79,4-4,4h-94c-2.21,0-4-1.79-4-4s1.79-4,4-4H201.71
					 M201.71,18.37h-94c-5.51,0-10,4.49-10,10s4.49,10,10,10h94c5.51,0,10-4.49,10-10C211.71,22.86,207.22,18.37,201.71,18.37
					L201.71,18.37z"/>
			</g>
		</g>
	</g>
	<g>
		<g>
			<circle class="st5" cx="33.71" cy="28.37" r="7"/>
		</g>
		<g>
			<g>
				<path class="st1" d="M33.71,24.37c2.21,0,4,1.79,4,4c0,2.21-1.79,4-4,4s-4-1.79-4-4C29.71,26.16,31.5,24.37,33.71,24.37
					 M33.71,18.37c-5.51,0-10,4.49-10,10s4.49,10,10,10s10-4.49,10-10S39.22,18.37,33.71,18.37L33.71,18.37z"/>
			</g>
		</g>
	</g>
	<g>
		<g>
			<circle class="st6" cx="57.71" cy="28.37" r="7"/>
		</g>
		<g>
			<g>
				<path class="st1" d="M57.71,24.37c2.21,0,4,1.79,4,4c0,2.21-1.79,4-4,4s-4-1.79-4-4C53.71,26.16,55.5,24.37,57.71,24.37
					 M57.71,18.37c-5.51,0-10,4.49-10,10s4.49,10,10,10s10-4.49,10-10S63.22,18.37,57.71,18.37L57.71,18.37z"/>
			</g>
		</g>
	</g>
	<g>
		<g>
			<circle class="st7" cx="81.71" cy="28.37" r="7"/>
		</g>
		<g>
			<g>
				<path class="st1" d="M81.71,24.37c2.21,0,4,1.79,4,4c0,2.21-1.79,4-4,4s-4-1.79-4-4C77.71,26.16,79.5,24.37,81.71,24.37
					 M81.71,18.37c-5.51,0-10,4.49-10,10s4.49,10,10,10s10-4.49,10-10S87.22,18.37,81.71,18.37L81.71,18.37z"/>
			</g>
		</g>
	</g>
	<g>
		<rect x="17.71" y="120.37" class="st8" width="200" height="88"/>
	</g>
	<g>
		<rect x="17.71" y="120.37" class="st9" width="200" height="4"/>
	</g>
	<g>
		<path class="st9" d="M196.71,235.37h-88c-1.1,0-2-0.9-2-2l0,0c0-1.1,0.9-2,2-2h88c1.1,0,2,0.9,2,2l0,0
			C198.71,234.48,197.81,235.37,196.71,235.37z"/>
	</g>
	<g>
		<path class="st9" d="M182.71,243.37h-74c-1.1,0-2-0.9-2-2l0,0c0-1.1,0.9-2,2-2h74c1.1,0,2,0.9,2,2l0,0
			C184.71,242.48,183.81,243.37,182.71,243.37z"/>
	</g>
	<g>
		<path class="st9" d="M158.71,251.37h-50c-1.1,0-2-0.9-2-2l0,0c0-1.1,0.9-2,2-2h50c1.1,0,2,0.9,2,2l0,0
			C160.71,250.48,159.81,251.37,158.71,251.37z"/>
	</g>
	<g>
		<circle class="st3" cx="58.71" cy="153.37" r="21"/>
	</g>
	<g>
		<path class="st8" d="M67.71,214.37c-16.57,0-30,13.43-30,30c0,5.88,1.7,11.37,4.63,16h50.74c2.93-4.63,4.63-10.12,4.63-16
			C97.71,227.8,84.28,214.37,67.71,214.37z"/>
	</g>
	<g>
		<circle class="st3" cx="117.71" cy="153.37" r="21"/>
	</g>
	<g>
		<circle class="st3" cx="176.71" cy="153.37" r="21"/>
	</g>
	<g>
		<path class="st9" d="M75.71,184.37h-34c-1.1,0-2-0.9-2-2l0,0c0-1.1,0.9-2,2-2h34c1.1,0,2,0.9,2,2l0,0
			C77.71,183.48,76.81,184.37,75.71,184.37z"/>
	</g>
	<g>
		<path class="st9" d="M75.71,192.37h-34c-1.1,0-2-0.9-2-2l0,0c0-1.1,0.9-2,2-2h34c1.1,0,2,0.9,2,2l0,0
			C77.71,191.48,76.81,192.37,75.71,192.37z"/>
	</g>
	<g>
		<path class="st9" d="M65.71,200.37h-24c-1.1,0-2-0.9-2-2l0,0c0-1.1,0.9-2,2-2h24c1.1,0,2,0.9,2,2l0,0
			C67.71,199.48,66.81,200.37,65.71,200.37z"/>
	</g>
	<g>
		<path class="st9" d="M134.71,184.37h-34c-1.1,0-2-0.9-2-2l0,0c0-1.1,0.9-2,2-2h34c1.1,0,2,0.9,2,2l0,0
			C136.71,183.48,135.81,184.37,134.71,184.37z"/>
	</g>
	<g>
		<path class="st9" d="M134.71,192.37h-34c-1.1,0-2-0.9-2-2l0,0c0-1.1,0.9-2,2-2h34c1.1,0,2,0.9,2,2l0,0
			C136.71,191.48,135.81,192.37,134.71,192.37z"/>
	</g>
	<g>
		<path class="st9" d="M124.71,200.37h-24c-1.1,0-2-0.9-2-2l0,0c0-1.1,0.9-2,2-2h24c1.1,0,2,0.9,2,2l0,0
			C126.71,199.48,125.81,200.37,124.71,200.37z"/>
	</g>
	<g>
		<path class="st9" d="M193.71,184.37h-34c-1.1,0-2-0.9-2-2l0,0c0-1.1,0.9-2,2-2h34c1.1,0,2,0.9,2,2l0,0
			C195.71,183.48,194.81,184.37,193.71,184.37z"/>
	</g>
	<g>
		<path class="st9" d="M193.71,192.37h-34c-1.1,0-2-0.9-2-2l0,0c0-1.1,0.9-2,2-2h34c1.1,0,2,0.9,2,2l0,0
			C195.71,191.48,194.81,192.37,193.71,192.37z"/>
	</g>
	<g>
		<path class="st9" d="M183.71,200.37h-24c-1.1,0-2-0.9-2-2l0,0c0-1.1,0.9-2,2-2h24c1.1,0,2,0.9,2,2l0,0
			C185.71,199.48,184.81,200.37,183.71,200.37z"/>
	</g>
	<g>
		<path class="st1" d="M135.71,87.37L135.71,87.37H99.71c-2.76,0-5,2.24-5,5c0,12.68,10.32,23,23,23c12.62,0,22.9-10.22,23-22.82
			c0-0.06,0-0.12,0-0.18C140.71,89.61,138.47,87.37,135.71,87.37z"/>
		<g>
			<g>
				<ellipse class="st5" cx="117.71" cy="104.37" rx="13.39" ry="6"/>
			</g>
		</g>
	</g>
	<g>
		<path class="st1" d="M127.73,61.16c3.68-3.2,9.6-3.78,13.59-0.77c1.81,1.35,4.82,4.88,1.93,6.45c-0.74,0.34-1.5,0.14-2.13-0.25
			c-1.05-0.55-1.86-1.12-2.73-1.43c-2.91-1.36-6.23-0.67-9.32-0.51C127.24,64.71,126.35,62.31,127.73,61.16L127.73,61.16z"/>
	</g>
	<g>
		<path class="st1" d="M105.73,64.65c-1.94-0.19-4.24-0.52-6.14-0.2c-2.14,0.25-3.69,1.26-5.66,2.33c-1,0.52-2.23,0.14-2.75-0.86
			c-0.3-0.57-0.3-1.22-0.06-1.77c1.83-4.71,7.87-6.81,12.48-5.23c1.95,0.66,6.22,2.41,4.28,5.04
			C107.33,64.63,106.5,64.7,105.73,64.65L105.73,64.65z"/>
	</g>
	<g>
		<g>
			<path class="st1" d="M109.71,82.87c-1.38,0-2.5-1.12-2.5-2.5c0-2.48-2.02-4.5-4.5-4.5s-4.5,2.02-4.5,4.5c0,1.38-1.12,2.5-2.5,2.5
				s-2.5-1.12-2.5-2.5c0-5.24,4.26-9.5,9.5-9.5s9.5,4.26,9.5,9.5C112.21,81.75,111.09,82.87,109.71,82.87z"/>
		</g>
	</g>
	<g>
		<g>
			<path class="st1" d="M139.71,82.87c-1.38,0-2.5-1.12-2.5-2.5c0-2.48-2.02-4.5-4.5-4.5s-4.5,2.02-4.5,4.5c0,1.38-1.12,2.5-2.5,2.5
				s-2.5-1.12-2.5-2.5c0-5.24,4.26-9.5,9.5-9.5s9.5,4.26,9.5,9.5C142.21,81.75,141.09,82.87,139.71,82.87z"/>
		</g>
	</g>
	<g>
		<g>
			<circle class="st9" cx="80.71" cy="84.87" r="2.5"/>
		</g>
		<g>
			<circle class="st9" cx="86.21" cy="95.87" r="2.5"/>
		</g>
		<g>
			<circle class="st9" cx="75.21" cy="95.87" r="2.5"/>
		</g>
	</g>
	<g>
		<g>
			<circle class="st9" cx="154.71" cy="84.87" r="2.5"/>
		</g>
		<g>
			<circle class="st9" cx="160.21" cy="95.87" r="2.5"/>
		</g>
		<g>
			<circle class="st9" cx="149.21" cy="95.87" r="2.5"/>
		</g>
	</g>
</g>
<g>
	<g>
		<g>
			<path class="st10" d="M214.21,389.37c-8.27,0-15-6.73-15-15v-180c0-8.27,6.73-15,15-15h150c8.27,0,15,6.73,15,15v180
				c0,8.27-6.73,15-15,15H214.21z"/>
		</g>
		<g>
			<path class="st1" d="M364.21,182.37c6.63,0,12,5.37,12,12v180c0,6.63-5.37,12-12,12h-150c-6.63,0-12-5.37-12-12v-180
				c0-6.63,5.37-12,12-12H364.21 M364.21,176.37h-150c-9.93,0-18,8.07-18,18v180c0,9.93,8.07,18,18,18h150c9.93,0,18-8.07,18-18
				v-180C382.21,184.45,374.13,176.37,364.21,176.37L364.21,176.37z"/>
		</g>
	</g>
	<g>
		<g>
			<path class="st0" d="M218.21,377.37c-3.86,0-7-3.14-7-7v-172c0-3.86,3.14-7,7-7h142c3.86,0,7,3.14,7,7v152
				c0,0.8-0.32,1.56-0.88,2.12l-24,24c-0.56,0.56-1.33,0.88-2.12,0.88H218.21z"/>
		</g>
		<g>
			<path class="st1" d="M360.21,194.37c2.21,0,4,1.79,4,4v152l-24,24h-122c-2.21,0-4-1.79-4-4v-172c0-2.21,1.79-4,4-4H360.21
				 M360.21,188.37h-142c-5.51,0-10,4.49-10,10v172c0,5.51,4.49,10,10,10h122c1.59,0,3.12-0.63,4.24-1.76l24-24
				c1.13-1.13,1.76-2.65,1.76-4.24v-152C370.21,192.86,365.72,188.37,360.21,188.37L360.21,188.37z"/>
		</g>
	</g>
	<g>
		<g>
			<path class="st11" d="M340.21,377.37c-0.39,0-0.78-0.07-1.15-0.23c-1.12-0.46-1.85-1.56-1.85-2.77v-19.2c0-4.3,3.5-7.8,7.8-7.8
				h19.2c1.21,0,2.31,0.73,2.77,1.85c0.46,1.12,0.21,2.41-0.65,3.27l-24,24C341.76,377.07,340.99,377.37,340.21,377.37z"/>
		</g>
		<g>
			<path class="st1" d="M364.21,350.37l-24,24v-19.2c0-2.65,2.15-4.8,4.8-4.8H364.21 M364.21,344.37h-19.2
				c-5.96,0-10.8,4.84-10.8,10.8v19.2c0,2.43,1.46,4.61,3.7,5.54c0.74,0.31,1.52,0.46,2.29,0.46c1.56,0,3.1-0.61,4.24-1.76l24-24
				c1.72-1.72,2.23-4.3,1.3-6.54C368.82,345.83,366.63,344.37,364.21,344.37L364.21,344.37z M364.21,356.37L364.21,356.37
				L364.21,356.37L364.21,356.37z"/>
		</g>
	</g>
	<g>
		<path class="st1" d="M299.21,288.37h-26c-1.66,0-3-1.34-3-3l0,0c0-1.66,1.34-3,3-3h26c1.66,0,3,1.34,3,3l0,0
			C302.21,287.03,300.87,288.37,299.21,288.37z"/>
	</g>
	<g>
		<path class="st1" d="M341.21,276.37h-68c-1.66,0-3-1.34-3-3l0,0c0-1.66,1.34-3,3-3h68c1.66,0,3,1.34,3,3l0,0
			C344.21,275.03,342.87,276.37,341.21,276.37z"/>
	</g>
	<g>
		<g>
			<g>
				<path class="st12" d="M239.21,203.37c-1.66,0-3-1.34-3-3v-16c0-6.07,4.93-11,11-11h25.28c-1.48-2.74-2.28-5.83-2.28-9
					c0-10.48,8.52-19,19-19c0.72,0,1.45,0.04,2.17,0.12c8.56,0.95,15.58,7.85,16.67,16.39c0.52,4.02-0.26,8.03-2.12,11.49h25.28
					c6.07,0,11,4.93,11,11v16c0,1.66-1.34,3-3,3H239.21z M289.21,159.37c-0.33,0-0.67,0.03-1.01,0.1c-1.93,0.37-3.53,1.97-3.9,3.9
					c-0.29,1.53,0.08,3.02,1.05,4.19c0.95,1.15,2.36,1.81,3.85,1.81c0.33,0,0.67-0.03,1.01-0.1c1.93-0.37,3.53-1.97,3.9-3.9
					c0.29-1.54-0.08-3.02-1.05-4.19C292.11,160.03,290.7,159.37,289.21,159.37z"/>
			</g>
		</g>
		<g>
			<g>
				<path class="st1" d="M289.21,148.37c0.6,0,1.22,0.03,1.84,0.1c7.23,0.8,13.1,6.57,14.03,13.79c0.72,5.63-1.49,10.75-5.31,14.11
					h31.44c4.42,0,8,3.58,8,8v16h-100v-16c0-4.42,3.58-8,8-8h31.44c-3.33-2.93-5.44-7.21-5.44-12
					C273.21,155.53,280.37,148.37,289.21,148.37 M289.21,172.37c0.51,0,1.04-0.05,1.57-0.15c3.15-0.6,5.69-3.14,6.29-6.29
					c0.97-5.11-2.92-9.57-7.85-9.57c-0.51,0-1.04,0.05-1.57,0.15c-3.15,0.6-5.69,3.14-6.29,6.29
					C280.39,167.91,284.28,172.37,289.21,172.37 M289.21,142.37C289.21,142.37,289.21,142.37,289.21,142.37
					c-5.88,0-11.4,2.29-15.56,6.44c-4.16,4.16-6.44,9.68-6.44,15.56c0,2.05,0.29,4.07,0.84,6h-20.84c-7.72,0-14,6.28-14,14v16
					c0,3.31,2.69,6,6,6h100c3.31,0,6-2.69,6-6v-16c0-7.72-6.28-14-14-14h-20.85c0.81-2.84,1.05-5.85,0.66-8.87
					c-1.27-9.9-9.39-17.88-19.32-18.99C290.88,142.42,290.04,142.37,289.21,142.37L289.21,142.37z M289.21,166.37
					c-0.82,0-1.32-0.46-1.54-0.73c-0.27-0.33-0.57-0.9-0.41-1.72c0.14-0.72,0.79-1.37,1.51-1.51c0.15-0.03,0.3-0.04,0.45-0.04
					c0.82,0,1.32,0.46,1.54,0.73c0.27,0.33,0.57,0.9,0.41,1.72c-0.14,0.72-0.79,1.37-1.51,1.51
					C289.5,166.36,289.35,166.37,289.21,166.37L289.21,166.37z"/>
			</g>
		</g>
	</g>
	<g>
		<line class="st12" x1="254.21" y1="188.37" x2="324.21" y2="188.37"/>
		<path class="st1" d="M324.21,191.37h-70c-1.66,0-3-1.34-3-3s1.34-3,3-3h70c1.66,0,3,1.34,3,3S325.87,191.37,324.21,191.37z"/>
	</g>
	<g>
		<g>
			<path class="st0" d="M240.21,291.37c-1.66,0-3-1.34-3-3v-18c0-1.66,1.34-3,3-3h18c1.66,0,3,1.34,3,3v18c0,1.66-1.34,3-3,3H240.21
				z"/>
		</g>
		<g>
			<path class="st1" d="M258.21,270.37v18h-18v-18H258.21 M258.21,264.37h-18c-3.31,0-6,2.69-6,6v18c0,3.31,2.69,6,6,6h18
				c3.31,0,6-2.69,6-6v-18C264.21,267.06,261.52,264.37,258.21,264.37L258.21,264.37z"/>
		</g>
	</g>
	<g>
		<path class="st13" d="M250.66,285.37c-0.84,0-1.65-0.36-2.22-0.98l-5.46-6c-1.11-1.23-1.02-3.12,0.2-4.24
			c1.23-1.11,3.12-1.02,4.24,0.2l3.24,3.56l12.33-13.56c1.11-1.23,3.01-1.32,4.24-0.2c1.23,1.11,1.32,3.01,0.2,4.24l-14.54,16
			C252.31,285.01,251.51,285.37,250.66,285.37z"/>
	</g>
	<g>
		<path class="st1" d="M319.21,324.37h-46c-1.66,0-3-1.34-3-3l0,0c0-1.66,1.34-3,3-3h46c1.66,0,3,1.34,3,3l0,0
			C322.21,323.03,320.87,324.37,319.21,324.37z"/>
	</g>
	<g>
		<path class="st1" d="M341.21,312.37h-68c-1.66,0-3-1.34-3-3l0,0c0-1.66,1.34-3,3-3h68c1.66,0,3,1.34,3,3l0,0
			C344.21,311.03,342.87,312.37,341.21,312.37z"/>
	</g>
	<g>
		<path class="st1" d="M283.21,358.37h-46c-1.66,0-3-1.34-3-3l0,0c0-1.66,1.34-3,3-3h46c1.66,0,3,1.34,3,3l0,0
			C286.21,357.03,284.87,358.37,283.21,358.37z"/>
	</g>
	<g>
		<path class="st1" d="M305.21,346.37h-68c-1.66,0-3-1.34-3-3l0,0c0-1.66,1.34-3,3-3h68c1.66,0,3,1.34,3,3l0,0
			C308.21,345.03,306.87,346.37,305.21,346.37z"/>
	</g>
	<g>
		<g>
			<path class="st0" d="M240.21,327.37c-1.66,0-3-1.34-3-3v-18c0-1.66,1.34-3,3-3h18c1.66,0,3,1.34,3,3v18c0,1.66-1.34,3-3,3H240.21
				z"/>
		</g>
		<g>
			<path class="st1" d="M258.21,306.37v18h-18v-18H258.21 M258.21,300.37h-18c-3.31,0-6,2.69-6,6v18c0,3.31,2.69,6,6,6h18
				c3.31,0,6-2.69,6-6v-18C264.21,303.06,261.52,300.37,258.21,300.37L258.21,300.37z"/>
		</g>
	</g>
	<g>
		<path class="st13" d="M250.66,321.37c-0.84,0-1.65-0.36-2.22-0.98l-5.46-6c-1.11-1.23-1.02-3.12,0.2-4.24
			c1.23-1.12,3.12-1.02,4.24,0.2l3.24,3.56l12.33-13.56c1.11-1.23,3.01-1.32,4.24-0.2c1.23,1.11,1.32,3.01,0.2,4.24l-14.54,16
			C252.31,321.01,251.51,321.37,250.66,321.37z"/>
	</g>
	<g>
		<g>
			<g>
				<path class="st1" d="M306.71,234.97c-0.32,0-0.64-0.08-0.94-0.24c-1.89-1.02-5.21-1.02-7.11,0c-0.98,0.52-2.19,0.16-2.71-0.82
					c-0.52-0.97-0.16-2.19,0.82-2.71c3.05-1.64,7.84-1.64,10.89,0c0.97,0.52,1.34,1.73,0.82,2.71
					C308.11,234.59,307.42,234.97,306.71,234.97z"/>
			</g>
			<g>
				<g>
					<circle class="st1" cx="302.21" cy="225.22" r="7"/>
				</g>
				<g>
					<circle class="st0" cx="303.96" cy="225.22" r="1.75"/>
				</g>
			</g>
			<g>
				<path class="st1" d="M297.98,211.03c3.7-2.29,8.96-1.89,12.03,1.33c1.57,1.57,3.49,5.3,0.49,6.24c-0.74,0.19-1.4-0.13-1.97-0.54
					c-2.44-1.9-4.85-2.79-7.91-3.04c-0.74-0.07-1.47-0.17-2.14-0.4C296.85,214.22,296.54,211.86,297.98,211.03L297.98,211.03z"/>
			</g>
			<g>
				<path class="st1" d="M280.71,234.97c-0.32,0-0.64-0.08-0.94-0.24c-1.89-1.02-5.21-1.02-7.11,0c-0.98,0.52-2.19,0.16-2.71-0.82
					c-0.52-0.97-0.16-2.19,0.82-2.71c3.05-1.64,7.84-1.64,10.89,0c0.97,0.52,1.34,1.73,0.82,2.71
					C282.11,234.59,281.42,234.97,280.71,234.97z"/>
			</g>
			<g>
				<g>
					<circle class="st1" cx="276.21" cy="225.22" r="7"/>
				</g>
				<g>
					<circle class="st0" cx="277.96" cy="225.22" r="1.75"/>
				</g>
			</g>
			<g>
				<path class="st1" d="M279.22,215.27c-1.64,0.12-3.63,0.06-5.19,0.46c-1.68,0.37-2.76,1.03-4.35,1.94
					c-1.07,0.75-2.56,0.59-3.2-0.62c-0.27-0.5-0.3-1.08-0.14-1.58c0.42-1.32,1.19-2.63,2.36-3.6c2.76-2.47,7.01-2.8,10.28-1.34
					c1.51,0.61,3.52,1.98,2.22,3.84C280.76,215.03,279.93,215.16,279.22,215.27L279.22,215.27z"/>
			</g>
		</g>
		<g>
			<path class="st1" d="M303.21,237.37L303.21,237.37h-28.01c-2.76,0-5,2.24-5,5c0,10.48,8.52,19,19,19c10.41,0,18.9-8.42,19-18.81
				c0-0.06,0-0.12,0-0.19C308.21,239.61,305.97,237.37,303.21,237.37z"/>
			<g>
				<g>
					<ellipse class="st5" cx="289.21" cy="251.7" rx="10.41" ry="4.67"/>
				</g>
			</g>
		</g>
	</g>
</g>
<g>
	<rect x="-1.29" y="0.37" class="st14" width="400" height="400"/>
</g>
<g>
	<g>
		<circle class="st15" cx="265.21" cy="120.37" r="3"/>
	</g>
</g>
<g>
	<g>
		<circle class="st15" cx="102.71" cy="340.37" r="3"/>
	</g>
</g>
<g>
	<g>
		<circle class="st15" cx="305.71" cy="84.87" r="3"/>
	</g>
</g>
<g>
	<g>
		<circle class="st15" cx="106.71" cy="296.37" r="3"/>
	</g>
</g>
<g>
	<g>
		<circle class="st15" cx="331.21" cy="148.37" r="3"/>
	</g>
</g>
<path class="st15" d="M58.71,349.37h-6v-6c0-1.66-1.34-3-3-3s-3,1.34-3,3v6h-6c-1.66,0-3,1.34-3,3s1.34,3,3,3h6v6c0,1.66,1.34,3,3,3
	s3-1.34,3-3v-6h6c1.66,0,3-1.34,3-3S60.36,349.37,58.71,349.37z"/>
<g>
	<circle class="st15" cx="265.21" cy="73.37" r="4.5"/>
</g>
<g>
	<circle class="st15" cx="152.71" cy="315.37" r="4.5"/>
</g>
<g>
	<g>
		<path class="st15" d="M315.01,30.57c2.98,0,5.4-2.42,5.4-5.4c0-0.99,0.81-1.8,1.8-1.8s1.8,0.81,1.8,1.8c0,2.98,2.42,5.4,5.4,5.4
			c0.99,0,1.8,0.81,1.8,1.8c0,0.99-0.81,1.8-1.8,1.8c-2.98,0-5.4,2.42-5.4,5.4c0,0.99-0.81,1.8-1.8,1.8s-1.8-0.81-1.8-1.8
			c0-2.98-2.42-5.4-5.4-5.4c-0.99,0-1.8-0.81-1.8-1.8C313.21,31.38,314.02,30.57,315.01,30.57z"/>
	</g>
</g>
</svg>
