<?xml version="1.0" encoding="utf-8"?>
<!-- Generator: Adobe Illustrator 26.0.1, SVG Export Plug-In . SVG Version: 6.00 Build 0)  -->
<svg version="1.1" id="SEO_x5F_Hub-SEO_x5F_Reporting_x5F_Tools"
	 xmlns="http://www.w3.org/2000/svg" xmlns:xlink="http://www.w3.org/1999/xlink" x="0px" y="0px" viewBox="0 0 400 400"
	 style="enable-background:new 0 0 400 400;" xml:space="preserve">
<style type="text/css">
	.st0{fill:none;}
	.st1{fill:#75A5C3;}
	.st2{fill:#515979;}
	.st3{fill:#508CB4;}
	.st4{fill:#ACC9DB;}
	.st5{fill:#F89D81;}
	.st6{fill:#747A94;}
	.st7{fill:#D8EBFB;}
	.st8{fill:#F3F9FE;}
	.st9{fill:#FFFFFF;}
	.st10{fill:#96C8F0;}
	.st11{fill:#EF7D7D;}
	.st12{fill:#B29D90;}
	.st13{fill:#BAD2E1;}
	.st14{fill:#D8F5DF;}
	.st15{fill:#7DDF96;}
	.st16{fill:#FFF8E2;}
	.st17{fill:#FFE8A0;}
	.st18{fill:#FAD8D8;}
	.st19{fill:#6ADAF7;}
	.st20{fill:#C7BCFF;}
	.st21{fill:#FFEBEB;}
	.st22{fill:#FFD886;}
	.st23{fill:#FBB040;}
</style>
<g>
	<rect class="st0" width="400" height="400"/>
</g>
<g>
	<g>
		<g>
			<path class="st1" d="M112.33,214.88c-0.26,0-0.52-0.03-0.78-0.1l-7.73-2.07c-0.77-0.21-1.42-0.71-1.82-1.4
				c-0.4-0.69-0.51-1.51-0.3-2.28l10.35-38.64c0.36-1.34,1.57-2.22,2.9-2.22c0.26,0,0.52,0.03,0.78,0.1l7.73,2.07
				c0.77,0.21,1.42,0.71,1.82,1.4c0.4,0.69,0.51,1.51,0.3,2.28l-10.35,38.64C114.86,214,113.65,214.88,112.33,214.88z"/>
		</g>
		<g>
			<path class="st2" d="M114.95,171.18l7.73,2.07l-10.35,38.64l-7.73-2.07L114.95,171.18 M114.95,165.18c-1.04,0-2.08,0.27-3,0.8
				c-1.38,0.8-2.38,2.11-2.8,3.64L98.8,208.26c-0.86,3.2,1.04,6.49,4.24,7.35l7.73,2.07c0.51,0.14,1.03,0.2,1.55,0.2
				c1.04,0,2.08-0.27,3-0.8c1.38-0.8,2.38-2.11,2.8-3.64l10.35-38.64c0.86-3.2-1.04-6.49-4.24-7.35l-7.73-2.07
				C115.99,165.24,115.47,165.18,114.95,165.18L114.95,165.18z"/>
		</g>
	</g>
	<g>
		
			<rect x="114.04" y="172.11" transform="matrix(0.9659 0.2588 -0.2588 0.9659 49.3437 -24.5841)" class="st3" width="8" height="6"/>
	</g>
	<g>
		<g>
			<path class="st1" d="M107.03,165.95l0.78-2.9c0.59-2.19,0.29-4.48-0.85-6.45c-1.13-1.97-2.97-3.37-5.16-3.96
				c-0.72-0.19-1.47-0.29-2.21-0.29c-3.83,0-7.21,2.59-8.2,6.3l-0.78,2.9l-10.62-2.85l0.78-2.9c3.16-11.79,13.88-20.02,26.07-20.02
				c2.35,0,4.71,0.31,7,0.93l26.08,6.99l-7.76,28.98L107.03,165.95z"/>
		</g>
		<g>
			<path class="st2" d="M106.83,138.79c2.06,0,4.15,0.27,6.23,0.82l23.18,6.21L130.03,169l-19.32-5.18c1.64-6.13-2-12.44-8.13-14.08
				c-1-0.27-2-0.39-2.98-0.39c-5.08,0-9.72,3.39-11.1,8.53l-4.83-1.29v0C86.54,145.86,96.23,138.79,106.83,138.79 M106.83,132.79
				c-13.54,0-25.45,9.15-28.96,22.24l-1.55,5.8l5.8,1.55l4.83,1.29l5.8,1.55l1.55-5.8c0.64-2.4,2.83-4.08,5.31-4.08
				c0.48,0,0.96,0.06,1.43,0.19c1.42,0.38,2.61,1.29,3.34,2.56c0.73,1.27,0.93,2.75,0.55,4.17l-1.55,5.8l5.8,1.55l19.32,5.18
				l5.8,1.55l1.55-5.8l6.21-23.18l1.55-5.8l-5.8-1.55l-23.18-6.21C112.06,133.13,109.45,132.79,106.83,132.79L106.83,132.79z"/>
		</g>
	</g>
	<g>
		<path class="st4" d="M112.28,142.51l23.18,6.21l0.78-2.9l-23.18-6.21c-12.8-3.43-25.96,4.17-29.39,16.97l0,0l2.12,0.57
			C88.89,145.56,100.46,139.34,112.28,142.51z"/>
	</g>
	<g>
		<g>
			<path class="st5" d="M103.25,264.21c-0.26,0-0.52-0.03-0.78-0.1l-15.46-4.14c-1.6-0.43-2.55-2.07-2.12-3.67l12.42-46.36
				c0.82-3.06,3.6-5.19,6.76-5.19c0.61,0,1.22,0.08,1.82,0.24l7.73,2.07c1.81,0.48,3.32,1.64,4.25,3.26s1.18,3.51,0.7,5.31
				l-12.42,46.37c-0.21,0.77-0.71,1.42-1.4,1.82C104.29,264.08,103.77,264.21,103.25,264.21z"/>
		</g>
		<g>
			<g>
				<path class="st2" d="M104.08,207.74c0.34,0,0.69,0.04,1.04,0.14l7.73,2.07c2.13,0.57,3.4,2.77,2.83,4.9l-12.42,46.36
					l-15.45-4.14l12.42-46.36C100.7,208.92,102.31,207.74,104.08,207.74 M104.08,201.74C104.08,201.74,104.08,201.74,104.08,201.74
					c-4.52,0-8.49,3.05-9.66,7.41L82,255.52c-0.41,1.54-0.2,3.17,0.6,4.55c0.8,1.38,2.11,2.38,3.64,2.8l15.45,4.14
					c0.52,0.14,1.04,0.21,1.56,0.21c2.65,0,5.07-1.77,5.79-4.45l12.42-46.36c0.69-2.58,0.34-5.27-1-7.59
					c-1.34-2.31-3.49-3.97-6.07-4.66l-7.73-2.07C105.82,201.86,104.95,201.74,104.08,201.74L104.08,201.74z"/>
			</g>
		</g>
	</g>
	<g>
		<g>
			<path class="st1" d="M157.46,177.8c-0.26,0-0.52-0.03-0.78-0.1l-9.66-2.59c-0.77-0.21-1.42-0.71-1.82-1.4
				c-0.4-0.69-0.51-1.51-0.3-2.28l5.44-20.29c0.21-0.77,0.71-1.42,1.4-1.82c0.46-0.27,0.98-0.4,1.5-0.4c0.26,0,0.52,0.03,0.78,0.1
				l9.66,2.59c1.6,0.43,2.55,2.07,2.12,3.67l-5.44,20.28C160,176.92,158.79,177.8,157.46,177.8z"/>
		</g>
		<g>
			<path class="st2" d="M153.24,151.93l9.66,2.59l-5.44,20.28l-9.66-2.59L153.24,151.93 M153.24,145.93c-1.04,0-2.08,0.27-3,0.8
				c-1.38,0.8-2.38,2.11-2.8,3.64l-5.44,20.28c-0.86,3.2,1.04,6.49,4.24,7.35l9.66,2.59c0.51,0.14,1.03,0.2,1.55,0.2
				c1.04,0,2.08-0.27,3-0.8c1.38-0.8,2.38-2.11,2.8-3.64l5.44-20.28c0.41-1.54,0.2-3.17-0.6-4.55s-2.11-2.38-3.64-2.8l-9.66-2.59
				C154.28,146,153.76,145.93,153.24,145.93L153.24,145.93z"/>
		</g>
	</g>
	<g>
		
			<rect x="156.18" y="149.67" transform="matrix(0.2588 -0.9659 0.9659 0.2588 -32.5328 266.9456)" class="st4" width="3" height="10"/>
	</g>
	<g>
		<g>
			<path class="st1" d="M143.43,168.35c-0.26,0-0.52-0.03-0.78-0.1l-5.8-1.55c-0.77-0.21-1.42-0.71-1.82-1.4
				c-0.4-0.69-0.51-1.51-0.3-2.28l2.59-9.66c0.36-1.34,1.57-2.22,2.9-2.22c0.26,0,0.52,0.03,0.78,0.1l5.79,1.55
				c1.6,0.43,2.55,2.07,2.12,3.67l-2.59,9.66C145.97,167.46,144.76,168.35,143.43,168.35z"/>
		</g>
		<g>
			<path class="st2" d="M140.22,154.14l5.8,1.55l-2.59,9.66l-5.8-1.55L140.22,154.14 M140.22,148.14c-1.04,0-2.08,0.27-3,0.8
				c-1.38,0.8-2.38,2.11-2.8,3.64l-2.59,9.66c-0.41,1.54-0.2,3.17,0.6,4.55c0.8,1.38,2.11,2.38,3.64,2.8l5.8,1.55
				c0.51,0.14,1.03,0.2,1.55,0.2c1.04,0,2.08-0.27,3-0.8c1.38-0.8,2.38-2.11,2.8-3.64l2.59-9.66c0.86-3.2-1.04-6.49-4.24-7.35
				l-5.8-1.55C141.26,148.2,140.74,148.14,140.22,148.14L140.22,148.14z"/>
		</g>
	</g>
	<g>
		
			<rect x="138.44" y="157.69" transform="matrix(0.9659 0.2588 -0.2588 0.9659 46.5385 -31.1145)" class="st3" width="6" height="7"/>
	</g>
</g>
<g>
	<g>
		<g>
			<g>
				<path class="st1" d="M64.36,268.48c-4.52,0-8.49-3.05-9.66-7.41l-18.89-70.51c-0.21-0.77-0.1-1.59,0.3-2.28
					c0.4-0.69,1.05-1.19,1.82-1.4l13.52-3.62c0.26-0.07,0.52-0.1,0.78-0.1c1.32,0,2.54,0.88,2.9,2.22l18.89,70.51
					c1.43,5.33-1.75,10.82-7.07,12.25C66.11,268.36,65.24,268.48,64.36,268.48L64.36,268.48z M64.11,256.51
					c-0.09,0-0.17,0.01-0.26,0.04c-0.35,0.09-0.53,0.33-0.61,0.47c-0.08,0.13-0.19,0.41-0.1,0.76c0.14,0.51,0.6,0.74,0.96,0.74
					c0.09,0,0.17-0.01,0.26-0.04c0.35-0.09,0.53-0.33,0.61-0.47s0.19-0.41,0.1-0.76C64.94,256.74,64.48,256.51,64.11,256.51z"/>
			</g>
		</g>
		<g>
			<g>
				<path class="st2" d="M52.24,186.15l18.89,70.51c1,3.73-1.22,7.57-4.95,8.57c-0.61,0.16-1.22,0.24-1.82,0.24
					c-3.09,0-5.92-2.06-6.76-5.19l-18.89-70.51L52.24,186.15 M64.11,261.51c0.34,0,0.69-0.04,1.04-0.14c2.13-0.57,3.4-2.77,2.83-4.9
					c-0.48-1.79-2.1-2.97-3.86-2.97c-0.34,0-0.69,0.04-1.04,0.14c-2.13,0.57-3.4,2.77-2.83,4.9
					C60.72,260.33,62.34,261.51,64.11,261.51 M52.24,180.15c-0.52,0-1.04,0.07-1.55,0.2l-13.52,3.62c-3.2,0.86-5.1,4.15-4.24,7.35
					l18.89,70.51c1.52,5.67,6.68,9.64,12.55,9.64c1.13,0,2.27-0.15,3.37-0.44c3.35-0.9,6.16-3.05,7.89-6.06s2.2-6.51,1.3-9.86
					L58.03,184.6c-0.41-1.54-1.42-2.85-2.8-3.64C54.32,180.42,53.28,180.15,52.24,180.15L52.24,180.15z"/>
			</g>
		</g>
	</g>
	<g>
		<path class="st3" d="M38.97,190.74l3.55,13.25c2.32,0.22,4.71,0.07,7.09-0.57c2.38-0.64,4.53-1.7,6.43-3.05l-3.55-13.25
			L38.97,190.74z"/>
	</g>
	<g>
		<g>
			<path class="st1" d="M41.32,195.51c-10.38,0-19.51-7.01-22.2-17.05c-2-7.48-0.13-15.41,5.03-21.22c0.58-0.65,1.4-1.01,2.24-1.01
				c0.23,0,0.46,0.03,0.69,0.08c1.07,0.25,1.92,1.08,2.21,2.14l4.06,15.16l15.46-4.14l-4.06-15.16c-0.29-1.07,0.04-2.2,0.84-2.96
				c0.57-0.53,1.3-0.82,2.06-0.82c0.32,0,0.64,0.05,0.95,0.15c7.36,2.46,12.96,8.39,14.96,15.87c1.59,5.93,0.77,12.13-2.3,17.45
				c-3.07,5.32-8.03,9.13-13.97,10.72C45.33,195.25,43.33,195.51,41.32,195.51C41.32,195.51,41.32,195.51,41.32,195.51z"/>
		</g>
		<g>
			<g>
				<path class="st2" d="M47.64,153.53c6.16,2.05,11.21,7.05,13.01,13.8c2.86,10.67-3.47,21.64-14.14,24.49
					c-1.73,0.46-3.48,0.69-5.19,0.69c-8.83,0-16.91-5.89-19.31-14.83c-1.81-6.74,0.06-13.6,4.37-18.46l4.84,18.06l21.25-5.69
					L47.64,153.53 M47.64,147.53c-1.51,0-2.98,0.57-4.11,1.63c-1.61,1.51-2.25,3.79-1.68,5.92l3.29,12.26l-9.66,2.59l-3.29-12.26
					c-0.57-2.13-2.27-3.78-4.42-4.29c-0.46-0.11-0.92-0.16-1.38-0.16c-1.69,0-3.34,0.72-4.49,2.02c-5.82,6.57-7.94,15.53-5.68,23.99
					c3.04,11.35,13.36,19.28,25.1,19.28c2.27,0,4.54-0.3,6.74-0.89c13.85-3.71,22.1-18,18.38-31.84
					c-2.27-8.46-8.59-15.16-16.91-17.94C48.91,147.63,48.27,147.53,47.64,147.53L47.64,147.53z"/>
			</g>
		</g>
	</g>
	<g>
		
			<rect x="31.24" y="174.39" transform="matrix(0.9659 -0.2588 0.2588 0.9659 -44.0839 16.9254)" class="st4" width="22" height="3"/>
	</g>
	<g>
		<line class="st1" x1="51.69" y1="211.14" x2="61" y2="245.92"/>
		<path class="st2" d="M61,247.92c-0.88,0-1.69-0.59-1.93-1.48l-9.32-34.77c-0.29-1.07,0.35-2.16,1.41-2.45
			c1.07-0.29,2.16,0.35,2.45,1.41l9.32,34.77c0.29,1.07-0.35,2.16-1.41,2.45C61.35,247.9,61.17,247.92,61,247.92z"/>
	</g>
</g>
<g>
	<g>
		<g>
			<path class="st6" d="M33.37,377.59c-4.96,0-9-4.04-9-9v-128c0-4.96,4.04-9,9-9h212c4.96,0,9,4.04,9,9v128c0,4.96-4.04,9-9,9
				H33.37z"/>
		</g>
		<g>
			<path class="st2" d="M245.37,234.59c3.31,0,6,2.69,6,6v128c0,3.31-2.69,6-6,6l-212,0c-3.31,0-6-2.69-6-6v-128c0-3.31,2.69-6,6-6
				H245.37 M245.37,228.59h-212c-6.62,0-12,5.38-12,12v128c0,6.62,5.38,12,12,12l212,0c6.62,0,12-5.38,12-12v-128
				C257.37,233.98,251.99,228.59,245.37,228.59L245.37,228.59z"/>
		</g>
	</g>
	<g>
		<g>
			<rect x="37.37" y="244.59" class="st7" width="204" height="120"/>
		</g>
		<g>
			<g>
				<path class="st2" d="M239.37,246.59v116l-200,0v-116H239.37 M243.37,242.59h-4h-200h-4v4v116v4h4l200,0h4v-4v-116V242.59
					L243.37,242.59z"/>
			</g>
		</g>
	</g>
	<g>
		<g>
			<polygon class="st8" points="120.87,362.59 94.87,362.59 134.87,246.59 160.87,246.59 			"/>
		</g>
		<g>
			<polygon class="st8" points="143.87,362.59 126.87,362.59 166.87,246.59 183.87,246.59 			"/>
		</g>
	</g>
	<g>
		<g>
			<path class="st6" d="M16.37,388.59c-6.07,0-11-4.93-11-11c0-1.66,1.34-3,3-3h262c1.66,0,3,1.34,3,3c0,6.07-4.93,11-11,11H16.37z"
				/>
		</g>
		<g>
			<path class="st2" d="M270.37,377.59c0,4.42-3.58,8-8,8h-246c-4.42,0-8-3.58-8-8H270.37 M270.37,371.59h-262c-3.31,0-6,2.69-6,6
				c0,7.72,6.28,14,14,14h246c7.72,0,14-6.28,14-14C276.37,374.28,273.68,371.59,270.37,371.59L270.37,371.59z M270.37,383.59
				L270.37,383.59L270.37,383.59L270.37,383.59z"/>
		</g>
	</g>
	<g>
		<path class="st2" d="M160.37,381.59h-42c-2.21,0-4-1.79-4-4l0,0h50l0,0C164.37,379.8,162.58,381.59,160.37,381.59z"/>
	</g>
	<g>
		<g>
			<g>
				<path class="st2" d="M151.87,304.78c-0.71,0-1.4-0.38-1.76-1.05c-0.52-0.97-0.16-2.19,0.82-2.71c3.06-1.64,7.84-1.64,10.89,0
					c0.97,0.52,1.34,1.73,0.82,2.71c-0.52,0.97-1.73,1.34-2.71,0.82c-1.89-1.02-5.22-1.02-7.11,0
					C152.52,304.71,152.19,304.78,151.87,304.78z"/>
			</g>
			<g>
				<g>
					<circle class="st2" cx="156.37" cy="294.03" r="8"/>
				</g>
				<g>
					<circle class="st9" cx="158.37" cy="294.03" r="2"/>
				</g>
			</g>
			<g>
				<path class="st2" d="M150.51,277.72c3.68-3.11,9.5-3.68,13.48-0.8c1.83,1.3,4.9,4.78,2.04,6.4c-0.73,0.35-1.49,0.16-2.13-0.21
					c-3.12-1.93-6.26-2.5-9.86-2.01c-0.77,0.07-1.51,0.18-2.23,0.14C149.97,281.27,149.12,278.85,150.51,277.72L150.51,277.72z"/>
			</g>
			<g>
				<path class="st2" d="M117.87,304.78c-0.71,0-1.4-0.38-1.76-1.05c-0.52-0.97-0.16-2.19,0.82-2.71c3.06-1.64,7.84-1.64,10.89,0
					c0.97,0.52,1.34,1.73,0.82,2.71c-0.52,0.97-1.73,1.34-2.71,0.82c-1.89-1.02-5.22-1.02-7.11,0
					C118.52,304.71,118.19,304.78,117.87,304.78z"/>
			</g>
			<g>
				<g>
					<circle class="st2" cx="122.37" cy="294.03" r="8"/>
				</g>
				<g>
					<circle class="st9" cx="124.37" cy="294.03" r="2"/>
				</g>
			</g>
			<g>
				<path class="st2" d="M126.33,281.24c-2.9-0.28-6.02-0.65-8.74,0.51c-0.95,0.32-2.01,1.02-3.12,1.54c-1.68,0.88-3.57-1-2.75-2.68
					c1.9-4.63,7.88-6.6,12.45-5.07c1.95,0.65,6.2,2.34,4.3,4.99C127.92,281.2,127.1,281.28,126.33,281.24L126.33,281.24z"/>
			</g>
		</g>
	</g>
	<g>
		<circle class="st10" cx="98.37" cy="301.68" r="2.5"/>
	</g>
	<g>
		<circle class="st10" cx="103.87" cy="312.68" r="2.5"/>
	</g>
	<g>
		<circle class="st10" cx="92.87" cy="312.68" r="2.5"/>
	</g>
	<g>
		<circle class="st10" cx="180.37" cy="301.68" r="2.5"/>
	</g>
	<g>
		<circle class="st10" cx="185.87" cy="312.68" r="2.5"/>
	</g>
	<g>
		<circle class="st10" cx="174.87" cy="312.68" r="2.5"/>
	</g>
	<g>
		<path class="st2" d="M157.38,308.18L157.38,308.18h-36.01c-2.76,0-5,2.24-5,5c0,12.68,10.32,23,23,23c12.62,0,22.9-10.22,23-22.82
			c0-0.06,0-0.12,0-0.18C162.37,310.42,160.14,308.18,157.38,308.18z"/>
		<g>
			<g>
				<ellipse class="st11" cx="139.37" cy="325.18" rx="13.39" ry="6"/>
			</g>
		</g>
	</g>
	<g>
		<circle class="st2" cx="139.37" cy="238.59" r="2"/>
	</g>
</g>
<g>
	<g>
		<g>
			<path class="st12" d="M229.35,252.51c-8.27,0-15-6.73-15-15v-180c0-8.27,6.73-15,15-15h150c8.27,0,15,6.73,15,15v180
				c0,8.27-6.73,15-15,15H229.35z"/>
		</g>
		<g>
			<path class="st2" d="M379.35,45.51c6.63,0,12,5.37,12,12v180c0,6.63-5.37,12-12,12h-150c-6.63,0-12-5.37-12-12v-180
				c0-6.63,5.37-12,12-12H379.35 M379.35,39.51h-150c-9.93,0-18,8.07-18,18v180c0,9.93,8.07,18,18,18h150c9.93,0,18-8.07,18-18v-180
				C397.35,47.58,389.28,39.51,379.35,39.51L379.35,39.51z"/>
		</g>
	</g>
	<g>
		<g>
			<path class="st9" d="M233.35,240.51c-3.86,0-7-3.14-7-7v-172c0-3.86,3.14-7,7-7h142c3.86,0,7,3.14,7,7v152
				c0,0.8-0.32,1.56-0.88,2.12l-24,24c-0.56,0.56-1.33,0.88-2.12,0.88H233.35z"/>
		</g>
		<g>
			<path class="st2" d="M375.35,57.51c2.21,0,4,1.79,4,4v152l-24,24h-122c-2.21,0-4-1.79-4-4v-172c0-2.21,1.79-4,4-4H375.35
				 M375.35,51.51h-142c-5.51,0-10,4.49-10,10v172c0,5.51,4.49,10,10,10h122c1.59,0,3.12-0.63,4.24-1.76l24-24
				c1.13-1.13,1.76-2.65,1.76-4.24v-152C385.35,55.99,380.87,51.51,375.35,51.51L375.35,51.51z"/>
		</g>
	</g>
	<g>
		<g>
			<path class="st7" d="M355.35,240.51c-0.39,0-0.78-0.07-1.15-0.23c-1.12-0.46-1.85-1.56-1.85-2.77v-19.2c0-4.3,3.5-7.8,7.8-7.8
				h19.2c1.21,0,2.31,0.73,2.77,1.85c0.46,1.12,0.21,2.41-0.65,3.27l-24,24C356.9,240.2,356.13,240.51,355.35,240.51z"/>
		</g>
		<g>
			<path class="st2" d="M379.35,213.51l-24,24v-19.2c0-2.65,2.15-4.8,4.8-4.8H379.35 M379.35,207.51h-19.2
				c-5.96,0-10.8,4.84-10.8,10.8v19.2c0,2.43,1.46,4.61,3.7,5.54c0.74,0.31,1.52,0.46,2.29,0.46c1.56,0,3.1-0.61,4.24-1.76l24-24
				c1.72-1.72,2.23-4.3,1.3-6.54C383.97,208.97,381.78,207.51,379.35,207.51L379.35,207.51z M379.35,219.51L379.35,219.51
				L379.35,219.51L379.35,219.51z"/>
		</g>
	</g>
	<g>
		<path class="st2" d="M314.35,151.51h-62c-1.66,0-3-1.34-3-3v0c0-1.66,1.34-3,3-3h62c1.66,0,3,1.34,3,3v0
			C317.35,150.16,316.01,151.51,314.35,151.51z"/>
	</g>
	<g>
		<path class="st2" d="M356.35,139.51h-104c-1.66,0-3-1.34-3-3v0c0-1.66,1.34-3,3-3h104c1.66,0,3,1.34,3,3v0
			C359.35,138.16,358.01,139.51,356.35,139.51z"/>
	</g>
	<g>
		<g>
			<g>
				<path class="st13" d="M254.35,66.51c-1.66,0-3-1.34-3-3v-16c0-6.07,4.93-11,11-11h25.28c-1.48-2.74-2.28-5.83-2.28-9
					c0-10.48,8.52-19,19-19c0.72,0,1.45,0.04,2.17,0.12c8.56,0.95,15.57,7.84,16.67,16.39c0.52,4.02-0.26,8.03-2.12,11.49h25.28
					c6.07,0,11,4.93,11,11v16c0,1.66-1.34,3-3,3H254.35z M304.35,22.51c-0.33,0-0.67,0.03-1.01,0.1c-1.93,0.37-3.53,1.97-3.9,3.9
					c-0.29,1.53,0.08,3.02,1.05,4.19c0.95,1.15,2.36,1.81,3.85,1.81c0.33,0,0.67-0.03,1.01-0.1c1.93-0.37,3.53-1.97,3.9-3.9
					c0.29-1.53-0.08-3.02-1.05-4.19C307.25,23.17,305.85,22.51,304.35,22.51z"/>
			</g>
		</g>
		<g>
			<g>
				<path class="st2" d="M304.35,11.51c0.6,0,1.22,0.03,1.84,0.1c7.23,0.8,13.1,6.57,14.03,13.79c0.72,5.63-1.49,10.75-5.31,14.11
					h31.44c4.42,0,8,3.58,8,8v16h-100v-16c0-4.42,3.58-8,8-8h31.44c-3.33-2.93-5.44-7.21-5.44-12
					C288.35,18.67,295.52,11.51,304.35,11.51 M304.35,35.51c0.51,0,1.04-0.05,1.57-0.15c3.15-0.6,5.69-3.14,6.29-6.29
					c0.97-5.11-2.92-9.57-7.85-9.57c-0.51,0-1.04,0.05-1.57,0.15c-3.15,0.6-5.69,3.14-6.29,6.29
					C295.54,31.05,299.42,35.51,304.35,35.51 M304.35,5.51C304.35,5.51,304.35,5.51,304.35,5.51c-5.88,0-11.4,2.29-15.56,6.44
					c-4.16,4.16-6.44,9.68-6.44,15.56c0,2.05,0.29,4.07,0.84,6h-20.84c-7.72,0-14,6.28-14,14v16c0,3.31,2.69,6,6,6h100
					c3.31,0,6-2.69,6-6v-16c0-7.72-6.28-14-14-14h-20.85c0.81-2.84,1.05-5.85,0.66-8.87c-1.27-9.9-9.39-17.88-19.32-18.99
					C306.02,5.55,305.18,5.51,304.35,5.51L304.35,5.51z M304.35,29.51c-0.82,0-1.32-0.46-1.54-0.73c-0.27-0.33-0.57-0.9-0.41-1.72
					c0.14-0.72,0.79-1.37,1.51-1.51c0.15-0.03,0.3-0.04,0.45-0.04c0.82,0,1.32,0.46,1.54,0.73c0.27,0.33,0.57,0.9,0.41,1.72
					c-0.14,0.72-0.79,1.37-1.51,1.51C304.65,29.49,304.5,29.51,304.35,29.51L304.35,29.51z"/>
			</g>
		</g>
	</g>
	<g>
		<line class="st13" x1="269.35" y1="51.51" x2="339.35" y2="51.51"/>
		<path class="st2" d="M339.35,54.51h-70c-1.66,0-3-1.34-3-3s1.34-3,3-3h70c1.66,0,3,1.34,3,3S341.01,54.51,339.35,54.51z"/>
	</g>
	<g>
		<path class="st2" d="M334.35,187.51h-82c-1.66,0-3-1.34-3-3v0c0-1.66,1.34-3,3-3h82c1.66,0,3,1.34,3,3v0
			C337.35,186.16,336.01,187.51,334.35,187.51z"/>
	</g>
	<g>
		<path class="st2" d="M356.35,175.51h-104c-1.66,0-3-1.34-3-3v0c0-1.66,1.34-3,3-3h104c1.66,0,3,1.34,3,3v0
			C359.35,174.16,358.01,175.51,356.35,175.51z"/>
	</g>
	<g>
		<path class="st2" d="M298.35,221.51h-46c-1.66,0-3-1.34-3-3v0c0-1.66,1.34-3,3-3h46c1.66,0,3,1.34,3,3v0
			C301.35,220.16,300.01,221.51,298.35,221.51z"/>
	</g>
	<g>
		<path class="st2" d="M320.35,209.51h-68c-1.66,0-3-1.34-3-3v0c0-1.66,1.34-3,3-3h68c1.66,0,3,1.34,3,3v0
			C323.35,208.16,322.01,209.51,320.35,209.51z"/>
	</g>
	<g>
		<g>
			<g>
				<path class="st2" d="M321.85,98.1c-0.32,0-0.64-0.08-0.94-0.24c-1.9-1.02-5.22-1.02-7.11,0c-0.97,0.52-2.18,0.16-2.71-0.82
					c-0.52-0.97-0.16-2.19,0.82-2.71c3.05-1.64,7.83-1.64,10.89,0c0.97,0.52,1.34,1.73,0.82,2.71
					C323.26,97.72,322.57,98.1,321.85,98.1z"/>
			</g>
			<g>
				<g>
					<circle class="st2" cx="317.35" cy="88.35" r="7"/>
				</g>
				<g>
					<circle class="st9" cx="319.1" cy="88.35" r="1.75"/>
				</g>
			</g>
			<g>
				<path class="st2" d="M313.13,74.17c3.7-2.29,8.96-1.89,12.03,1.33c1.57,1.57,3.49,5.3,0.49,6.24c-0.74,0.19-1.4-0.13-1.97-0.54
					c-2.44-1.9-4.85-2.79-7.91-3.04c-0.74-0.07-1.47-0.17-2.14-0.4C312,77.35,311.69,74.99,313.13,74.17L313.13,74.17z"/>
			</g>
			<g>
				<path class="st2" d="M295.85,98.1c-0.32,0-0.64-0.08-0.94-0.24c-1.9-1.02-5.22-1.02-7.11,0c-0.97,0.52-2.18,0.16-2.71-0.82
					c-0.52-0.97-0.16-2.19,0.82-2.71c3.05-1.64,7.84-1.64,10.89,0c0.97,0.52,1.34,1.73,0.82,2.71
					C297.26,97.72,296.57,98.1,295.85,98.1z"/>
			</g>
			<g>
				<g>
					<circle class="st2" cx="291.35" cy="88.35" r="7"/>
				</g>
				<g>
					<circle class="st9" cx="293.1" cy="88.35" r="1.75"/>
				</g>
			</g>
			<g>
				<path class="st2" d="M294.36,78.41c-1.64,0.12-3.63,0.06-5.19,0.46c-1.68,0.37-2.76,1.03-4.35,1.94
					c-1.07,0.75-2.56,0.59-3.2-0.62c-0.27-0.5-0.3-1.08-0.14-1.58c0.42-1.32,1.19-2.63,2.36-3.6c2.76-2.47,7.01-2.8,10.28-1.34
					c1.51,0.61,3.52,1.98,2.22,3.84C295.9,78.17,295.08,78.29,294.36,78.41L294.36,78.41z"/>
			</g>
		</g>
		<g>
			<path class="st2" d="M318.36,100.51L318.36,100.51h-28.01c-2.76,0-5,2.24-5,5c0,10.48,8.52,19,19,19c10.41,0,18.9-8.42,19-18.81
				c0-0.06,0-0.12,0-0.19C323.36,102.74,321.12,100.51,318.36,100.51z"/>
			<g>
				<g>
					<ellipse class="st11" cx="304.35" cy="114.84" rx="10.41" ry="4.67"/>
				</g>
			</g>
		</g>
	</g>
</g>
<g>
	<g>
		<polygon class="st14" points="291.35,318.99 303.51,287.9 312.26,293.88 325.18,281.47 339.43,286.11 351.35,275.99 
			351.35,318.99 		"/>
	</g>
	<g>
		<path class="st15" d="M291.35,320.99c-0.24,0-0.49-0.04-0.73-0.14c-1.03-0.4-1.54-1.56-1.13-2.59l12.16-31.09
			c0.22-0.57,0.69-1,1.27-1.18c0.58-0.18,1.22-0.08,1.72,0.26l7.41,5.06l11.74-11.28c0.53-0.51,1.3-0.69,2-0.46l13.19,4.29
			l11.08-9.4c0.84-0.71,2.1-0.61,2.82,0.23c0.71,0.84,0.61,2.1-0.23,2.82l-11.93,10.12c-0.53,0.45-1.25,0.59-1.91,0.38l-13.11-4.27
			l-12.05,11.58c-0.68,0.66-1.73,0.74-2.51,0.21l-6.67-4.56l-11.24,28.75C292.91,320.51,292.15,320.99,291.35,320.99z"/>
	</g>
	<g>
		<polygon class="st16" points="291.35,318.99 303.18,299.69 309.62,303.6 318.51,294.9 325.26,299.88 334.18,290.47 342.43,293.11 
			351.35,285.99 351.35,318.99 		"/>
	</g>
	<g>
		<path class="st17" d="M291.35,320.99c-0.36,0-0.72-0.09-1.04-0.29c-0.94-0.58-1.24-1.81-0.66-2.75l11.82-19.3
			c0.58-0.94,1.8-1.24,2.74-0.67l5.12,3.1l7.78-7.62c0.7-0.69,1.8-0.76,2.59-0.18l5.33,3.93l7.7-8.12c0.53-0.56,1.33-0.76,2.06-0.53
			l7.23,2.31l8.09-6.45c0.86-0.69,2.12-0.55,2.81,0.32c0.69,0.86,0.55,2.12-0.32,2.81l-8.93,7.12c-0.52,0.42-1.22,0.55-1.86,0.34
			l-7.05-2.25l-8.05,8.49c-0.69,0.73-1.83,0.83-2.64,0.23l-5.38-3.97l-7.67,7.51c-0.65,0.64-1.66,0.75-2.44,0.28l-4.74-2.88
			l-10.78,17.6C292.68,320.65,292.03,320.99,291.35,320.99z"/>
	</g>
	<g>
		<path class="st2" d="M291.35,315.49h-6c-0.83,0-1.5-0.67-1.5-1.5s0.67-1.5,1.5-1.5h6c0.83,0,1.5,0.67,1.5,1.5
			S292.18,315.49,291.35,315.49z"/>
	</g>
	<g>
		<path class="st2" d="M291.35,305.49h-6c-0.83,0-1.5-0.67-1.5-1.5s0.67-1.5,1.5-1.5h6c0.83,0,1.5,0.67,1.5,1.5
			S292.18,305.49,291.35,305.49z"/>
	</g>
	<g>
		<path class="st2" d="M291.35,295.49h-6c-0.83,0-1.5-0.67-1.5-1.5s0.67-1.5,1.5-1.5h6c0.83,0,1.5,0.67,1.5,1.5
			S292.18,295.49,291.35,295.49z"/>
	</g>
	<g>
		<path class="st2" d="M291.35,285.49h-6c-0.83,0-1.5-0.67-1.5-1.5s0.67-1.5,1.5-1.5h6c0.83,0,1.5,0.67,1.5,1.5
			S292.18,285.49,291.35,285.49z"/>
	</g>
	<g>
		<path class="st2" d="M336.35,326.49c-0.83,0-1.5-0.67-1.5-1.5v-6c0-0.83,0.67-1.5,1.5-1.5s1.5,0.67,1.5,1.5v6
			C337.85,325.82,337.18,326.49,336.35,326.49z"/>
	</g>
	<g>
		<path class="st2" d="M346.35,326.49c-0.83,0-1.5-0.67-1.5-1.5v-6c0-0.83,0.67-1.5,1.5-1.5s1.5,0.67,1.5,1.5v6
			C347.85,325.82,347.18,326.49,346.35,326.49z"/>
	</g>
	<g>
		<path class="st2" d="M326.35,326.49c-0.83,0-1.5-0.67-1.5-1.5v-6c0-0.83,0.67-1.5,1.5-1.5s1.5,0.67,1.5,1.5v6
			C327.85,325.82,327.18,326.49,326.35,326.49z"/>
	</g>
	<g>
		<path class="st2" d="M316.35,326.49c-0.83,0-1.5-0.67-1.5-1.5v-6c0-0.83,0.67-1.5,1.5-1.5s1.5,0.67,1.5,1.5v6
			C317.85,325.82,317.18,326.49,316.35,326.49z"/>
	</g>
	<g>
		<path class="st2" d="M306.35,326.49c-0.83,0-1.5-0.67-1.5-1.5v-6c0-0.83,0.67-1.5,1.5-1.5s1.5,0.67,1.5,1.5v6
			C307.85,325.82,307.18,326.49,306.35,326.49z"/>
	</g>
	<g>
		<path class="st2" d="M296.35,326.49c-0.83,0-1.5-0.67-1.5-1.5v-6c0-0.83,0.67-1.5,1.5-1.5s1.5,0.67,1.5,1.5v6
			C297.85,325.82,297.18,326.49,296.35,326.49z"/>
	</g>
	<g>
		<polygon class="st18" points="291.35,318.99 301.18,308.69 308.62,313.6 316.51,304.9 324.26,311.88 332.53,302.11 340.28,309.06 
			351.35,296.99 351.35,318.99 		"/>
	</g>
	<g>
		<path class="st11" d="M291.35,320.99c-0.5,0-0.99-0.18-1.38-0.55c-0.8-0.76-0.83-2.03-0.07-2.83l9.82-10.3
			c0.67-0.7,1.74-0.82,2.55-0.29l6.02,3.97l6.74-7.43c0.74-0.82,2-0.88,2.82-0.14l6.22,5.6l6.94-8.19c0.35-0.41,0.85-0.67,1.39-0.7
			c0.54-0.04,1.07,0.14,1.47,0.51l6.28,5.62l9.74-10.61c0.75-0.81,2.01-0.87,2.83-0.12c0.81,0.75,0.87,2.01,0.12,2.83l-11.07,12.07
			c-0.74,0.81-1.99,0.87-2.81,0.14l-6.22-5.57l-6.94,8.2c-0.35,0.41-0.85,0.67-1.39,0.7c-0.54,0.04-1.07-0.15-1.47-0.51l-6.27-5.65
			l-6.55,7.23c-0.66,0.73-1.76,0.87-2.58,0.33l-6.05-3.99l-8.67,9.09C292.41,320.78,291.88,320.99,291.35,320.99z"/>
	</g>
	<g>
		<path class="st2" d="M351.35,320.99h-60c-1.1,0-2-0.9-2-2v-40c0-1.1,0.9-2,2-2s2,0.9,2,2v38h58c1.1,0,2,0.9,2,2
			S352.46,320.99,351.35,320.99z"/>
	</g>
	<g>
		<path class="st2" d="M337.35,338.99h-36c-1.1,0-2-0.9-2-2l0,0c0-1.1,0.9-2,2-2h36c1.1,0,2,0.9,2,2l0,0
			C339.35,338.09,338.46,338.99,337.35,338.99z"/>
	</g>
	<g>
		<circle class="st15" cx="292.35" cy="336.99" r="3"/>
	</g>
	<g>
		<path class="st2" d="M317.35,346.99h-16c-1.1,0-2-0.9-2-2l0,0c0-1.1,0.9-2,2-2h16c1.1,0,2,0.9,2,2l0,0
			C319.35,346.09,318.46,346.99,317.35,346.99z"/>
	</g>
	<g>
		<circle class="st17" cx="292.35" cy="344.99" r="3"/>
	</g>
	<g>
		<path class="st2" d="M327.35,354.99h-26c-1.1,0-2-0.9-2-2l0,0c0-1.1,0.9-2,2-2h26c1.1,0,2,0.9,2,2l0,0
			C329.35,354.09,328.46,354.99,327.35,354.99z"/>
	</g>
	<g>
		<circle class="st11" cx="292.35" cy="352.99" r="3"/>
	</g>
</g>
<g>
	<g>
		<path class="st2" d="M41.33,56.01c-11.03,0-20-8.97-20-20s8.97-20,20-20s20,8.97,20,20S52.36,56.01,41.33,56.01z M41.33,22.01
			c-7.72,0-14,6.28-14,14s6.28,14,14,14s14-6.28,14-14S49.05,22.01,41.33,22.01z"/>
	</g>
	<g>
		<path class="st11" d="M58.28,50.02l-7.7-6.38c1.8-2.17,2.75-4.82,2.75-7.64h10C63.33,41.12,61.54,46.09,58.28,50.02z"/>
	</g>
	<g>
		<path class="st17" d="M63.33,36.01h-10c0-2.55-0.79-4.99-2.28-7.04l8.09-5.88C61.88,26.86,63.33,31.33,63.33,36.01z"/>
	</g>
	<g>
		<path class="st15" d="M51.05,28.96c-2.25-3.1-5.89-4.96-9.72-4.96v-10c7.02,0,13.68,3.4,17.81,9.08L51.05,28.96z"/>
	</g>
	<g>
		<path class="st2" d="M61.33,74.01h-30c-1.1,0-2-0.9-2-2v0c0-1.1,0.9-2,2-2h30c1.1,0,2,0.9,2,2v0
			C63.33,73.11,62.43,74.01,61.33,74.01z"/>
	</g>
	<g>
		<circle class="st15" cx="22.33" cy="72.01" r="3"/>
	</g>
	<g>
		<path class="st2" d="M51.33,82.01l-20,0c-1.1,0-2-0.9-2-2v0c0-1.1,0.9-2,2-2h20c1.1,0,2,0.9,2,2v0
			C53.33,81.11,52.43,82.01,51.33,82.01z"/>
	</g>
	<g>
		<circle class="st17" cx="22.33" cy="80.01" r="3"/>
	</g>
	<g>
		<path class="st2" d="M45.33,90.01h-14c-1.1,0-2-0.9-2-2v0c0-1.1,0.9-2,2-2h14c1.1,0,2,0.9,2,2v0
			C47.33,89.11,46.43,90.01,45.33,90.01z"/>
	</g>
	<g>
		<circle class="st11" cx="22.33" cy="88.01" r="3"/>
	</g>
</g>
<g>
	<g>
		<path class="st2" d="M138.87,101.01h-39c-1.1,0-2-0.9-2-2v0c0-1.1,0.9-2,2-2h39c1.1,0,2,0.9,2,2v0
			C140.87,100.11,139.98,101.01,138.87,101.01z"/>
	</g>
	<g>
		<rect x="99.87" y="59.01" class="st19" width="10" height="22"/>
	</g>
	<g>
		<rect x="112.87" y="67.01" class="st5" width="10" height="14"/>
	</g>
	<g>
		<rect x="125.87" y="53.01" class="st20" width="10" height="28"/>
	</g>
	<g>
		<circle class="st19" cx="90.87" cy="99.01" r="3"/>
	</g>
	<g>
		<path class="st2" d="M123.87,109.01h-24c-1.1,0-2-0.9-2-2v0c0-1.1,0.9-2,2-2h24c1.1,0,2,0.9,2,2v0
			C125.87,108.11,124.98,109.01,123.87,109.01z"/>
	</g>
	<g>
		<circle class="st5" cx="90.87" cy="107.01" r="3"/>
	</g>
	<g>
		<path class="st2" d="M117.87,117.01h-18c-1.1,0-2-0.9-2-2v0c0-1.1,0.9-2,2-2h18c1.1,0,2,0.9,2,2v0
			C119.87,116.11,118.98,117.01,117.87,117.01z"/>
	</g>
	<g>
		<circle class="st20" cx="90.87" cy="115.01" r="3"/>
	</g>
	<g>
		<path class="st2" d="M94.87,79.51h-6c-0.83,0-1.5-0.67-1.5-1.5s0.67-1.5,1.5-1.5h6c0.83,0,1.5,0.67,1.5,1.5
			S95.7,79.51,94.87,79.51z"/>
	</g>
	<g>
		<path class="st2" d="M94.87,69.51h-6c-0.83,0-1.5-0.67-1.5-1.5s0.67-1.5,1.5-1.5h6c0.83,0,1.5,0.67,1.5,1.5
			S95.7,69.51,94.87,69.51z"/>
	</g>
	<g>
		<path class="st2" d="M94.87,59.51h-6c-0.83,0-1.5-0.67-1.5-1.5s0.67-1.5,1.5-1.5h6c0.83,0,1.5,0.67,1.5,1.5
			S95.7,59.51,94.87,59.51z"/>
	</g>
	<g>
		<path class="st2" d="M130.87,90.51c-0.83,0-1.5-0.67-1.5-1.5v-6c0-0.83,0.67-1.5,1.5-1.5s1.5,0.67,1.5,1.5v6
			C132.37,89.83,131.7,90.51,130.87,90.51z"/>
	</g>
	<g>
		<path class="st2" d="M117.87,90.51c-0.83,0-1.5-0.67-1.5-1.5v-6c0-0.83,0.67-1.5,1.5-1.5s1.5,0.67,1.5,1.5v6
			C119.37,89.83,118.7,90.51,117.87,90.51z"/>
	</g>
	<g>
		<path class="st2" d="M104.87,90.51c-0.83,0-1.5-0.67-1.5-1.5v-6c0-0.83,0.67-1.5,1.5-1.5s1.5,0.67,1.5,1.5v6
			C106.37,89.83,105.7,90.51,104.87,90.51z"/>
	</g>
	<g>
		<path class="st2" d="M138.87,85.01h-44c-1.1,0-2-0.9-2-2v-30c0-1.1,0.9-2,2-2s2,0.9,2,2v28h42c1.1,0,2,0.9,2,2
			S139.98,85.01,138.87,85.01z"/>
	</g>
</g>
<g>
	<g>
		<g>
			<path class="st21" d="M239.96,184.73c-0.56,0-1.12-0.19-1.58-0.56l-14.96-12.21c-0.64-0.52-0.98-1.33-0.91-2.15
				s0.54-1.56,1.26-1.96l12.18-6.9c0.38-0.22,0.81-0.33,1.23-0.33c0.38,0,0.75,0.08,1.1,0.25c0.74,0.36,1.25,1.07,1.37,1.89
				l2.79,19.11c0.15,1.02-0.34,2.03-1.24,2.54C240.81,184.62,240.38,184.73,239.96,184.73z"/>
		</g>
		<g>
			<path class="st2" d="M237.18,163.12l2.78,19.11L225,170.02L237.18,163.12 M237.18,158.12c-0.85,0-1.7,0.22-2.47,0.65l-12.18,6.9
				c-1.44,0.81-2.38,2.28-2.52,3.93c-0.14,1.64,0.54,3.25,1.82,4.3l14.96,12.21c0.91,0.74,2.03,1.13,3.16,1.13
				c0.85,0,1.7-0.21,2.46-0.65c1.79-1.02,2.78-3.03,2.48-5.07l-2.78-19.11c-0.24-1.63-1.27-3.04-2.75-3.77
				C238.68,158.29,237.93,158.12,237.18,158.12L237.18,158.12z"/>
		</g>
	</g>
	<g>
		<polygon class="st2" points="239.96,182.23 234.39,178.49 239.61,175.53 		"/>
	</g>
	<g>
		<g>
			<path class="st22" d="M225,172.52c-0.87,0-1.72-0.46-2.18-1.27L180.91,97.3c-0.68-1.2-0.26-2.73,0.94-3.41l12.18-6.9
				c0.38-0.22,0.8-0.33,1.23-0.33c0.22,0,0.45,0.03,0.67,0.09c0.64,0.18,1.18,0.6,1.51,1.18l41.91,73.95
				c0.33,0.58,0.41,1.26,0.23,1.9s-0.6,1.18-1.18,1.51l-12.18,6.9C225.84,172.42,225.42,172.52,225,172.52z"/>
		</g>
		<g>
			<path class="st2" d="M195.27,89.17l41.91,73.95l-12.18,6.9l-41.91-73.95L195.27,89.17 M195.26,84.17c-0.84,0-1.68,0.21-2.46,0.65
				l-12.18,6.9c-1.15,0.65-2,1.74-2.35,3.02c-0.35,1.28-0.18,2.64,0.47,3.8l41.91,73.95c0.92,1.62,2.61,2.54,4.35,2.54
				c0.84,0,1.68-0.21,2.46-0.65l12.18-6.9c1.15-0.65,2-1.74,2.35-3.02c0.35-1.28,0.18-2.64-0.47-3.8L199.62,86.7
				C198.7,85.08,197,84.17,195.26,84.17L195.26,84.17z"/>
		</g>
	</g>
	<g>
		<rect x="209.68" y="85.37" transform="matrix(0.87 -0.493 0.493 0.87 -35.3325 121.7278)" class="st23" width="7" height="85"/>
	</g>
	<g>
		<g>
			
				<rect x="175.24" y="78.29" transform="matrix(0.87 -0.4931 0.4931 0.87 -17.7888 102.1091)" class="st1" width="19" height="13"/>
		</g>
		<g>
			<path class="st2" d="M188.86,77.86l3.94,6.96l-12.18,6.9l-3.94-6.96L188.86,77.86 M190.74,71.04l-4.35,2.47l-12.18,6.9
				l-4.35,2.47l2.47,4.35l3.94,6.96l2.47,4.35l4.35-2.47l12.18-6.9l4.35-2.47l-2.47-4.35l-3.94-6.96L190.74,71.04L190.74,71.04z"/>
		</g>
	</g>
	<g>
		<g>
			<path class="st11" d="M169.02,75.31c-0.66-1.16-0.83-2.51-0.47-3.8c0.36-1.29,1.19-2.36,2.36-3.02l6.96-3.94
				c0.75-0.43,1.6-0.65,2.46-0.65c1.8,0,3.46,0.97,4.35,2.53l4.44,7.83l-15.66,8.88L169.02,75.31z"/>
		</g>
		<g>
			<path class="st2" d="M180.33,66.9c0.7,0,1.37,0.36,1.74,1.01l2.96,5.22l-10.44,5.92l-2.96-5.22c-0.54-0.96-0.21-2.18,0.75-2.73
				l6.96-3.94C179.66,66.98,180,66.9,180.33,66.9 M180.33,60.9L180.33,60.9c-1.38,0-2.74,0.36-3.94,1.04l-6.96,3.94
				c-3.84,2.17-5.19,7.07-3.02,10.9l2.96,5.22l2.96,5.22l5.22-2.96l10.44-5.92l5.22-2.96l-2.96-5.22l-2.96-5.22
				C185.87,62.45,183.21,60.9,180.33,60.9L180.33,60.9z"/>
		</g>
	</g>
	<g>
		<path class="st2" d="M231.09,168.57c-0.7,0-1.37-0.36-1.74-1.01L187.44,93.6c-0.54-0.96-0.21-2.18,0.75-2.73
			c0.96-0.54,2.18-0.21,2.73,0.75l41.91,73.95c0.54,0.96,0.21,2.18-0.75,2.73C231.76,168.49,231.42,168.57,231.09,168.57z"/>
	</g>
</g>
<g>
	<g>
		<g>
			<circle class="st22" cx="167.68" cy="119.51" r="4"/>
		</g>
	</g>
</g>
<g>
	<g>
		<g>
			<circle class="st22" cx="374.85" cy="366.59" r="4"/>
		</g>
	</g>
</g>
<g>
	<g>
		<g>
			<circle class="st22" cx="117.87" cy="19.76" r="2.5"/>
		</g>
	</g>
</g>
<g>
	<g>
		<g>
			<circle class="st22" cx="194.87" cy="175.51" r="2.5"/>
		</g>
	</g>
</g>
<g>
	<g>
		<g>
			<circle class="st22" cx="330.85" cy="381.59" r="2.5"/>
		</g>
	</g>
</g>
<g>
	<g>
		<g>
			<circle class="st22" cx="384.85" cy="333.99" r="2.5"/>
		</g>
	</g>
</g>
<path class="st22" d="M167.68,21.76h-7v-7c0-1.66-1.34-3-3-3s-3,1.34-3,3v7h-7c-1.66,0-3,1.34-3,3s1.34,3,3,3h7v7c0,1.66,1.34,3,3,3
	s3-1.34,3-3v-7h7c1.66,0,3-1.34,3-3S169.34,21.76,167.68,21.76z"/>
<g>
	<g>
		<g>
			<path class="st22" d="M173.17,204.71c2.98,0,5.4-2.42,5.4-5.4c0-0.99,0.81-1.8,1.8-1.8s1.8,0.81,1.8,1.8c0,2.98,2.42,5.4,5.4,5.4
				c0.99,0,1.8,0.81,1.8,1.8c0,0.99-0.81,1.8-1.8,1.8c-2.98,0-5.4,2.42-5.4,5.4c0,0.99-0.81,1.8-1.8,1.8s-1.8-0.81-1.8-1.8
				c0-2.98-2.42-5.4-5.4-5.4c-0.99,0-1.8-0.81-1.8-1.8C171.37,205.52,172.18,204.71,173.17,204.71z"/>
		</g>
	</g>
</g>
<g>
	<g>
		<g>
			<circle class="st22" cx="188.18" cy="40.85" r="2.5"/>
		</g>
	</g>
</g>
<g>
	<g>
		<g>
			<circle class="st22" cx="148.37" cy="200.84" r="2.5"/>
		</g>
	</g>
</g>
<g>
	<g>
		<g>
			<circle class="st22" cx="188.18" cy="148.51" r="2.5"/>
		</g>
	</g>
</g>
</svg>
