<?xml version="1.0" encoding="utf-8"?>
<!-- Generator: Adobe Illustrator 25.4.1, SVG Export Plug-In . SVG Version: 6.00 Build 0)  -->
<svg version="1.1" id="Google_x5F_Hub-Responsive_x5F_Search_x5F_Ads"
	 xmlns="http://www.w3.org/2000/svg" xmlns:xlink="http://www.w3.org/1999/xlink" x="0px" y="0px" viewBox="0 0 400 400"
	 style="enable-background:new 0 0 400 400;" xml:space="preserve">
<style type="text/css">
	.st0{fill:#FFD886;}
	.st1{fill:none;}
	.st2{fill:#FBBD04;}
	.st3{fill:#438EDC;}
	.st4{fill:#34A952;}
	.st5{fill:#D8EBFB;}
	.st6{fill:#515979;}
	.st7{fill:#7DDF96;}
</style>
<path class="st0" d="M370,46h-6v-6c0-1.66-1.34-3-3-3s-3,1.34-3,3v6h-6c-1.66,0-3,1.34-3,3s1.34,3,3,3h6v6c0,1.66,1.34,3,3,3
	s3-1.34,3-3v-6h6c1.66,0,3-1.34,3-3S371.66,46,370,46z"/>
<path class="st0" d="M30,356h-6v-6c0-1.66-1.34-3-3-3s-3,1.34-3,3v6h-6c-1.66,0-3,1.34-3,3s1.34,3,3,3h6v6c0,1.66,1.34,3,3,3
	s3-1.34,3-3v-6h6c1.66,0,3-1.34,3-3S31.66,356,30,356z"/>
<g>
	<g>
		<circle class="st0" cx="355.5" cy="355.5" r="2.5"/>
	</g>
</g>
<g>
	<g>
		<circle class="st0" cx="364.5" cy="318.5" r="4.5"/>
	</g>
</g>
<g>
	<g>
		<circle class="st0" cx="36.5" cy="314.5" r="4.5"/>
	</g>
</g>
<g>
	<path class="st0" d="M124.4,132.4c-2.65,0-4.8-2.15-4.8-4.8c0-0.88-0.72-1.6-1.6-1.6c-0.88,0-1.6,0.72-1.6,1.6
		c0,2.65-2.15,4.8-4.8,4.8c-0.88,0-1.6,0.72-1.6,1.6s0.72,1.6,1.6,1.6c2.65,0,4.8,2.15,4.8,4.8c0,0.88,0.72,1.6,1.6,1.6
		c0.88,0,1.6-0.72,1.6-1.6c0-2.65,2.15-4.8,4.8-4.8c0.88,0,1.6-0.72,1.6-1.6S125.28,132.4,124.4,132.4z"/>
</g>
<g>
	<g>
		<circle class="st0" cx="13" cy="71" r="3"/>
	</g>
</g>
<g>
	<g>
		<circle class="st0" cx="148" cy="113" r="3"/>
	</g>
</g>
<g>
	<g>
		<circle class="st0" cx="68.5" cy="37.5" r="4.5"/>
	</g>
</g>
<g>
	<path class="st0" d="M36,31c-3.31,0-6-2.69-6-6c0-1.1-0.9-2-2-2c-1.1,0-2,0.9-2,2c0,3.31-2.69,6-6,6c-1.1,0-2,0.9-2,2s0.9,2,2,2
		c3.31,0,6,2.69,6,6c0,1.1,0.9,2,2,2c1.1,0,2-0.9,2-2c0-3.31,2.69-6,6-6c1.1,0,2-0.9,2-2S37.1,31,36,31z"/>
</g>
<g>
	<path class="st0" d="M302.6,119.6c-2.32,0-4.2-1.88-4.2-4.2c0-0.77-0.63-1.4-1.4-1.4s-1.4,0.63-1.4,1.4c0,2.32-1.88,4.2-4.2,4.2
		c-0.77,0-1.4,0.63-1.4,1.4s0.63,1.4,1.4,1.4c2.32,0,4.2,1.88,4.2,4.2c0,0.77,0.63,1.4,1.4,1.4s1.4-0.63,1.4-1.4
		c0-2.32,1.88-4.2,4.2-4.2c0.77,0,1.4-0.63,1.4-1.4S303.37,119.6,302.6,119.6z"/>
</g>
<g>
	<path class="st0" d="M302.6,299.6c-2.32,0-4.2-1.88-4.2-4.2c0-0.77-0.63-1.4-1.4-1.4s-1.4,0.63-1.4,1.4c0,2.32-1.88,4.2-4.2,4.2
		c-0.77,0-1.4,0.63-1.4,1.4s0.63,1.4,1.4,1.4c2.32,0,4.2,1.88,4.2,4.2c0,0.77,0.63,1.4,1.4,1.4s1.4-0.63,1.4-1.4
		c0-2.32,1.88-4.2,4.2-4.2c0.77,0,1.4-0.63,1.4-1.4S303.37,299.6,302.6,299.6z"/>
</g>
<g>
	<g>
		<circle class="st0" cx="375" cy="90" r="3"/>
	</g>
</g>
<g>
	<rect class="st1" width="400" height="400"/>
</g>
<g>
	<g>
		<path class="st2" d="M129.26,270.69L129.26,270.69c-13.58-7.84-18.27-25.35-10.43-38.93l56.35-97.62
			c7.84-13.58,25.35-18.27,38.93-10.43l0,0c13.58,7.84,18.27,25.35,10.43,38.93l-56.35,97.62
			C160.35,273.83,142.84,278.53,129.26,270.69z"/>
	</g>
	<g>
		<path class="st3" d="M270.78,270.28L270.78,270.28c-13.58,7.84-31.09,3.14-38.93-10.43l-56.35-97.62
			c-7.84-13.58-3.14-31.09,10.43-38.93l0,0c13.58-7.84,31.09-3.14,38.93,10.43l56.35,97.62
			C289.04,244.91,284.34,262.44,270.78,270.28z"/>
	</g>
	<g>
		<circle class="st4" cx="143.9" cy="245.59" r="28.9"/>
	</g>
</g>
<g>
	<g>
		<g>
			<path class="st5" d="M44,96c-2.76,0-5-2.24-5-5V61c0-2.76,2.24-5,5-5h126c2.76,0,5,2.24,5,5v30c0,2.76-2.24,5-5,5H44z"/>
		</g>
		<g>
			<g>
				<path class="st6" d="M170,59c1.1,0,2,0.9,2,2v30c0,1.1-0.9,2-2,2H44c-1.1,0-2-0.9-2-2V61c0-1.1,0.9-2,2-2H170 M170,53H44
					c-4.41,0-8,3.59-8,8v30c0,4.41,3.59,8,8,8h126c4.41,0,8-3.59,8-8V61C178,56.59,174.41,53,170,53L170,53z"/>
			</g>
		</g>
	</g>
	<g>
		<g>
			<path class="st7" d="M124,84c-2.76,0-5-2.24-5-5v-6c0-2.76,2.24-5,5-5h34c2.76,0,5,2.24,5,5v6c0,2.76-2.24,5-5,5H124z"/>
		</g>
		<g>
			<path class="st6" d="M158,71c1.1,0,2,0.9,2,2v6c0,1.1-0.9,2-2,2h-34c-1.1,0-2-0.9-2-2v-6c0-1.1,0.9-2,2-2H158 M158,65h-34
				c-4.41,0-8,3.59-8,8v6c0,4.41,3.59,8,8,8h34c4.41,0,8-3.59,8-8v-6C166,68.59,162.41,65,158,65L158,65z"/>
		</g>
	</g>
	<g>
		<path class="st6" d="M85,79H51c-1.66,0-3,1.34-3,3l0,0c0,1.66,1.34,3,3,3h34c1.66,0,3-1.34,3-3l0,0C88,80.34,86.66,79,85,79z"/>
	</g>
	<g>
		<path class="st6" d="M107,67H51c-1.66,0-3,1.34-3,3l0,0c0,1.66,1.34,3,3,3h56c1.66,0,3-1.34,3-3l0,0C110,68.34,108.66,67,107,67z"
			/>
	</g>
</g>
<g>
	<g>
		<g>
			<path class="st5" d="M193,365c-2.76,0-5-2.24-5-5v-30c0-2.76,2.24-5,5-5h126c2.76,0,5,2.24,5,5v30c0,2.76-2.24,5-5,5H193z"/>
		</g>
		<g>
			<g>
				<path class="st6" d="M319,328c1.1,0,2,0.9,2,2v30c0,1.1-0.9,2-2,2H193c-1.1,0-2-0.9-2-2v-30c0-1.1,0.9-2,2-2H319 M319,322H193
					c-4.41,0-8,3.59-8,8v30c0,4.41,3.59,8,8,8h126c4.41,0,8-3.59,8-8v-30C327,325.59,323.41,322,319,322L319,322z"/>
			</g>
		</g>
	</g>
	<g>
		<g>
			<path class="st7" d="M273,353c-2.76,0-5-2.24-5-5v-6c0-2.76,2.24-5,5-5h34c2.76,0,5,2.24,5,5v6c0,2.76-2.24,5-5,5H273z"/>
		</g>
		<g>
			<path class="st6" d="M307,340c1.1,0,2,0.9,2,2v6c0,1.1-0.9,2-2,2h-34c-1.1,0-2-0.9-2-2v-6c0-1.1,0.9-2,2-2H307 M307,334h-34
				c-4.41,0-8,3.59-8,8v6c0,4.41,3.59,8,8,8h34c4.41,0,8-3.59,8-8v-6C315,337.59,311.41,334,307,334L307,334z"/>
		</g>
	</g>
	<g>
		<path class="st6" d="M242,336h-42c-1.66,0-3,1.34-3,3l0,0c0,1.66,1.34,3,3,3h42c1.66,0,3-1.34,3-3l0,0
			C245,337.34,243.66,336,242,336z"/>
	</g>
	<g>
		<path class="st6" d="M256,348h-56c-1.66,0-3,1.34-3,3l0,0c0,1.66,1.34,3,3,3h56c1.66,0,3-1.34,3-3l0,0
			C259,349.34,257.66,348,256,348z"/>
	</g>
</g>
<g>
	<g>
		<g>
			<path class="st5" d="M230,96c-2.76,0-5-2.24-5-5V15c0-2.76,2.24-5,5-5h92c2.76,0,5,2.24,5,5v76c0,2.76-2.24,5-5,5H230z"/>
		</g>
		<g>
			<path class="st6" d="M322,13c1.1,0,2,0.9,2,2v76c0,1.1-0.9,2-2,2h-92c-1.1,0-2-0.9-2-2V15c0-1.1,0.9-2,2-2H322 M322,7h-92
				c-4.41,0-8,3.59-8,8v76c0,4.41,3.59,8,8,8h92c4.41,0,8-3.59,8-8V15C330,10.59,326.41,7,322,7L322,7z"/>
		</g>
	</g>
	<g>
		<g>
			<path class="st7" d="M248,84c-2.76,0-5-2.24-5-5V69c0-2.76,2.24-5,5-5h56c2.76,0,5,2.24,5,5v10c0,2.76-2.24,5-5,5H248z"/>
		</g>
		<g>
			<path class="st6" d="M304,67c1.1,0,2,0.9,2,2v10c0,1.1-0.9,2-2,2h-56c-1.1,0-2-0.9-2-2V69c0-1.1,0.9-2,2-2H304 M304,61h-56
				c-4.41,0-8,3.59-8,8v10c0,4.41,3.59,8,8,8h56c4.41,0,8-3.59,8-8V69C312,64.59,308.41,61,304,61L304,61z"/>
		</g>
	</g>
	<g>
		<path class="st6" d="M297,49h-54c-1.66,0-3,1.34-3,3v0c0,1.66,1.34,3,3,3h54c1.66,0,3-1.34,3-3v0C300,50.34,298.66,49,297,49z"/>
	</g>
	<g>
		<path class="st6" d="M309,37h-66c-1.66,0-3,1.34-3,3v0c0,1.66,1.34,3,3,3h66c1.66,0,3-1.34,3-3v0C312,38.34,310.66,37,309,37z"/>
	</g>
	<g>
		<path class="st6" d="M309,25h-66c-1.66,0-3,1.34-3,3v0c0,1.66,1.34,3,3,3h66c1.66,0,3-1.34,3-3v0C312,26.34,310.66,25,309,25z"/>
	</g>
</g>
<g>
	<g>
		<g>
			<path class="st5" d="M63,384c-2.76,0-5-2.24-5-5v-76c0-2.76,2.24-5,5-5h92c2.76,0,5,2.24,5,5v76c0,2.76-2.24,5-5,5H63z"/>
		</g>
		<g>
			<path class="st6" d="M155,301c1.1,0,2,0.9,2,2v76c0,1.1-0.9,2-2,2H63c-1.1,0-2-0.9-2-2v-76c0-1.1,0.9-2,2-2H155 M155,295H63
				c-4.41,0-8,3.59-8,8v76c0,4.41,3.59,8,8,8h92c4.41,0,8-3.59,8-8v-76C163,298.59,159.41,295,155,295L155,295z"/>
		</g>
	</g>
	<g>
		<g>
			<path class="st7" d="M81,372c-2.76,0-5-2.24-5-5v-10c0-2.76,2.24-5,5-5h56c2.76,0,5,2.24,5,5v10c0,2.76-2.24,5-5,5H81z"/>
		</g>
		<g>
			<path class="st6" d="M137,355c1.1,0,2,0.9,2,2v10c0,1.1-0.9,2-2,2H81c-1.1,0-2-0.9-2-2v-10c0-1.1,0.9-2,2-2H137 M137,349H81
				c-4.41,0-8,3.59-8,8v10c0,4.41,3.59,8,8,8h56c4.41,0,8-3.59,8-8v-10C145,352.59,141.41,349,137,349L137,349z"/>
		</g>
	</g>
	<g>
		<path class="st6" d="M130,337H76c-1.66,0-3,1.34-3,3l0,0c0,1.66,1.34,3,3,3h54c1.66,0,3-1.34,3-3l0,0
			C133,338.34,131.66,337,130,337z"/>
	</g>
	<g>
		<path class="st6" d="M142,325H76c-1.66,0-3,1.34-3,3l0,0c0,1.66,1.34,3,3,3h66c1.66,0,3-1.34,3-3l0,0
			C145,326.34,143.66,325,142,325z"/>
	</g>
	<g>
		<path class="st6" d="M142,313H76c-1.66,0-3,1.34-3,3l0,0c0,1.66,1.34,3,3,3h66c1.66,0,3-1.34,3-3l0,0
			C145,314.34,143.66,313,142,313z"/>
	</g>
</g>
<g>
	<g>
		<g>
			<path class="st5" d="M25,267c-2.76,0-5-2.24-5-5V134c0-2.76,2.24-5,5-5h58c2.76,0,5,2.24,5,5v128c0,2.76-2.24,5-5,5H25z"/>
		</g>
		<g>
			<path class="st6" d="M83,132c1.1,0,2,0.9,2,2v128c0,1.1-0.9,2-2,2H25c-1.1,0-2-0.9-2-2V134c0-1.1,0.9-2,2-2H83 M83,126H25
				c-4.41,0-8,3.59-8,8v128c0,4.41,3.59,8,8,8h58c4.41,0,8-3.59,8-8V134C91,129.59,87.41,126,83,126L83,126z"/>
		</g>
	</g>
	<g>
		<g>
			<path class="st7" d="M37,255c-2.76,0-5-2.24-5-5v-10c0-2.76,2.24-5,5-5h34c2.76,0,5,2.24,5,5v10c0,2.76-2.24,5-5,5H37z"/>
		</g>
		<g>
			<path class="st6" d="M71,238c1.1,0,2,0.9,2,2v10c0,1.1-0.9,2-2,2H37c-1.1,0-2-0.9-2-2v-10c0-1.1,0.9-2,2-2H71 M71,232H37
				c-4.41,0-8,3.59-8,8v10c0,4.41,3.59,8,8,8h34c4.41,0,8-3.59,8-8v-10C79,235.59,75.41,232,71,232L71,232z"/>
		</g>
	</g>
	<g>
		<path class="st6" d="M76,144H32c-1.66,0-3,1.34-3,3l0,0c0,1.66,1.34,3,3,3h44c1.66,0,3-1.34,3-3l0,0C79,145.34,77.66,144,76,144z"
			/>
	</g>
	<g>
		<path class="st6" d="M76,156H32c-1.66,0-3,1.34-3,3l0,0c0,1.66,1.34,3,3,3h44c1.66,0,3-1.34,3-3l0,0C79,157.34,77.66,156,76,156z"
			/>
	</g>
	<g>
		<path class="st6" d="M64,168H32c-1.66,0-3,1.34-3,3l0,0c0,1.66,1.34,3,3,3h32c1.66,0,3-1.34,3-3l0,0C67,169.34,65.66,168,64,168z"
			/>
	</g>
	<g>
		<path class="st6" d="M76,186H32c-1.66,0-3,1.34-3,3l0,0c0,1.66,1.34,3,3,3h44c1.66,0,3-1.34,3-3l0,0C79,187.34,77.66,186,76,186z"
			/>
	</g>
	<g>
		<path class="st6" d="M76,198H32c-1.66,0-3,1.34-3,3l0,0c0,1.66,1.34,3,3,3h44c1.66,0,3-1.34,3-3l0,0C79,199.34,77.66,198,76,198z"
			/>
	</g>
	<g>
		<path class="st6" d="M56,216H32c-1.66,0-3,1.34-3,3l0,0c0,1.66,1.34,3,3,3h24c1.66,0,3-1.34,3-3l0,0C59,217.34,57.66,216,56,216z"
			/>
	</g>
</g>
<g>
	<g>
		<g>
			<path class="st5" d="M322,283c-2.76,0-5-2.24-5-5V150c0-2.76,2.24-5,5-5h58c2.76,0,5,2.24,5,5v128c0,2.76-2.24,5-5,5H322z"/>
		</g>
		<g>
			<path class="st6" d="M380,148c1.1,0,2,0.9,2,2v128c0,1.1-0.9,2-2,2h-58c-1.1,0-2-0.9-2-2V150c0-1.1,0.9-2,2-2H380 M380,142h-58
				c-4.41,0-8,3.59-8,8v128c0,4.41,3.59,8,8,8h58c4.41,0,8-3.59,8-8V150C388,145.59,384.41,142,380,142L380,142z"/>
		</g>
	</g>
	<g>
		<g>
			<path class="st7" d="M334,271c-2.76,0-5-2.24-5-5v-10c0-2.76,2.24-5,5-5h34c2.76,0,5,2.24,5,5v10c0,2.76-2.24,5-5,5H334z"/>
		</g>
		<g>
			<path class="st6" d="M368,254c1.1,0,2,0.9,2,2v10c0,1.1-0.9,2-2,2h-34c-1.1,0-2-0.9-2-2v-10c0-1.1,0.9-2,2-2H368 M368,248h-34
				c-4.41,0-8,3.59-8,8v10c0,4.41,3.59,8,8,8h34c4.41,0,8-3.59,8-8v-10C376,251.59,372.41,248,368,248L368,248z"/>
		</g>
	</g>
	<g>
		<path class="st6" d="M373,160h-44c-1.66,0-3,1.34-3,3l0,0c0,1.66,1.34,3,3,3h44c1.66,0,3-1.34,3-3l0,0
			C376,161.34,374.66,160,373,160z"/>
	</g>
	<g>
		<path class="st6" d="M359,172h-30c-1.66,0-3,1.34-3,3l0,0c0,1.66,1.34,3,3,3h30c1.66,0,3-1.34,3-3l0,0
			C362,173.34,360.66,172,359,172z"/>
	</g>
	<g>
		<path class="st6" d="M365,184h-36c-1.66,0-3,1.34-3,3l0,0c0,1.66,1.34,3,3,3h36c1.66,0,3-1.34,3-3l0,0
			C368,185.34,366.66,184,365,184z"/>
	</g>
	<g>
		<path class="st6" d="M373,220h-44c-1.66,0-3,1.34-3,3l0,0c0,1.66,1.34,3,3,3h44c1.66,0,3-1.34,3-3l0,0
			C376,221.34,374.66,220,373,220z"/>
	</g>
	<g>
		<path class="st6" d="M365,232h-36c-1.66,0-3,1.34-3,3l0,0c0,1.66,1.34,3,3,3h36c1.66,0,3-1.34,3-3l0,0
			C368,233.34,366.66,232,365,232z"/>
	</g>
	<g>
		<path class="st6" d="M359,202h-30c-1.66,0-3,1.34-3,3l0,0c0,1.66,1.34,3,3,3h30c1.66,0,3-1.34,3-3l0,0
			C362,203.34,360.66,202,359,202z"/>
	</g>
</g>
</svg>
