<?xml version="1.0" encoding="utf-8"?>
<!-- Generator: Adobe Illustrator 25.0.1, SVG Export Plug-In . SVG Version: 6.00 Build 0)  -->
<svg version="1.1" id="Layer_1" xmlns="http://www.w3.org/2000/svg" xmlns:xlink="http://www.w3.org/1999/xlink" x="0px" y="0px"
	 viewBox="0 0 400 400" style="enable-background:new 0 0 400 400;" xml:space="preserve">
<style type="text/css">
	.st0{fill:#75A5C3;}
	.st1{fill:#515979;}
	.st2{opacity:0.3;}
	.st3{fill:#9FC0D5;}
	.st4{fill:#FFE8A0;}
	.st5{fill:#FFD886;}
	.st6{fill:#FFF8E2;}
	.st7{fill:#FFFFFF;}
</style>
<path class="st0" d="M191.1,308c-39.4,0-68-12.5-69.5-30.4c-1.8-20.7,33.2-40.1,79.8-44.2c5.6-0.5,11.2-0.7,16.8-0.7
	c39.4,0,68,12.5,69.5,30.4c0.9,10.5-7.3,20.9-23.2,29.2c-14.8,7.8-34.9,13.1-56.6,15C202.2,307.8,196.6,308,191.1,308z"/>
<path class="st1" d="M218.2,236.7c36.1,0,64.2,10.9,65.6,26.8c1.6,18.2-32.5,36.1-76.2,39.9c-5.6,0.5-11.1,0.7-16.4,0.7
	c-36.1,0-64.2-10.9-65.6-26.8c-1.6-18.2,32.5-36.1,76.2-39.9C207.4,236.9,212.9,236.7,218.2,236.7L218.2,236.7z M218.2,228.8
	c-5.6,0-11.4,0.3-17.1,0.8c-22.1,1.9-42.8,7.4-58.1,15.4c-17.4,9.1-26.4,20.8-25.4,33.1c2.1,23.5,38.4,34,73.5,34
	c5.6,0,11.4-0.3,17.1-0.8c22.1-1.9,42.8-7.4,58.1-15.4c17.4-9.1,26.4-20.9,25.3-33.1C289.6,239.3,253.2,228.8,218.2,228.8
	L218.2,228.8z"/>
<g class="st2">
	<g class="st2">
		<path class="st1" d="M207.5,303.3c43.7-3.8,77.8-21.7,76.2-39.9c-1.6-18.2-38.3-29.9-82-26c-43.7,3.8-77.8,21.7-76.2,39.9
			C127.1,295.5,163.8,307.2,207.5,303.3z"/>
	</g>
</g>
<path class="st0" d="M173,289c-76.6,0-132.2-23.5-135.1-57.1c-3.4-39.2,65.1-76.1,156-84c11.2-1,22.3-1.4,33.1-1.4
	c76.6,0,132.2,23.5,135.1,57.1c3.4,39.2-65.1,76.1-156,84C195,288.5,183.8,289,173,289z"/>
<path class="st1" d="M227,150.3c72.2,0,128.4,21.8,131.2,53.5c3.2,36.4-65,72.1-152.4,79.8c-11.2,1-22.2,1.4-32.8,1.4
	c-72.2,0-128.4-21.8-131.2-53.5c-3.2-36.4,65-72.1,152.4-79.8C205.4,150.7,216.4,150.3,227,150.3L227,150.3z M227,142.4
	c-11,0-22.2,0.5-33.5,1.5c-43.3,3.8-83.5,14.4-113.2,30c-31.8,16.6-48.3,37.4-46.5,58.4c1.6,18.6,17,34.3,44.5,45.3
	c24.8,10,58.3,15.4,94.6,15.4c11,0,22.2-0.5,33.5-1.5c43.3-3.8,83.5-14.4,113.2-30c31.8-16.6,48.3-37.4,46.5-58.4
	c-1.6-18.6-17-34.3-44.5-45.3C296.9,147.8,263.3,142.4,227,142.4L227,142.4z"/>
<path class="st3" d="M205.3,278.3c-85.2,7.5-157.2-14.6-163.5-49.4c0,0.9,0,1.8,0.1,2.6c3.2,36.4,76.6,59.7,163.9,52.1
	s155.6-43.4,152.4-79.8c-0.1-0.9-0.2-1.8-0.4-2.6C357.6,236.7,290.5,270.8,205.3,278.3z"/>
<path class="st0" d="M174.9,267.7c-27.4,0-52.7-3.6-71.1-10.2c-19.7-7.1-30.6-16.9-31.7-28.7c-2.3-27.3,51.9-53.7,123.7-59.9
	c9.9-0.9,19.8-1.3,29.4-1.3c58.5,0,100.8,16,102.7,38.9c1.2,13.5-11.4,27.2-35.3,38.5c-23.2,10.9-54.5,18.6-88.2,21.5
	C194.4,267.3,184.5,267.7,174.9,267.7z"/>
<path class="st1" d="M225.1,170.2c55.6,0,98.2,14.7,100.1,36.5c2.2,25.5-52,51-121.2,57.1c-10,0.9-19.8,1.3-29.1,1.3
	c-55.6,0-98.2-14.7-100.1-36.5c-2.2-25.5,52-51,121.2-57.1C206,170.6,215.7,170.2,225.1,170.2z M225.1,164.9
	c-9.7,0-19.6,0.4-29.6,1.3c-34.1,3-65.7,10.7-89.2,21.7c-25,11.8-38.1,26.4-36.8,41.1c2.2,24.7,44.5,41.3,105.4,41.3
	c9.7,0,19.6-0.4,29.6-1.3c34.1-3,65.7-10.7,89.2-21.7c25-11.8,38.1-26.4,36.8-41.1C328.3,181.5,286,165,225.1,164.9L225.1,164.9z"/>
<g class="st2">
	<g class="st2">
		<path class="st1" d="M196.4,176.8c66.8-5.9,123,8.6,128.8,32.6c0.1-0.9,0.1-1.8,0-2.6c-2.2-25.5-60.1-41.2-129.2-35.2
			c-69.2,6-123.4,31.6-121.2,57.1c0.1,0.9,0.2,1.8,0.4,2.6C76.8,206.7,129.7,182.6,196.4,176.8z"/>
	</g>
</g>
<path class="st0" d="M175.1,247.9c-31.4,0-68.6-5.7-70-21.9c-0.7-8.4,8.6-16.6,27.1-23.7c17.2-6.6,40.4-11.4,65.3-13.6
	c9.3-0.8,18.5-1.2,27.4-1.2c31.4,0,68.6,5.7,70,21.9c0.7,8.4-8.6,16.6-27.1,23.7c-17.2,6.6-40.4,11.4-65.3,13.6
	C193.2,247.5,184,247.9,175.1,247.9z"/>
<path class="st1" d="M224.9,190.1c38.1,0,66.4,7.6,67.4,19.5c1.3,14.6-39,30-90,34.4c-9.4,0.8-18.5,1.2-27.2,1.2
	c-38.1,0-66.4-7.6-67.4-19.5c-1.3-14.5,39.1-29.9,90-34.4C207.1,190.5,216.2,190.1,224.9,190.1z M224.9,184.8
	c-9,0-18.2,0.4-27.6,1.2c-25.1,2.2-48.6,7.1-66,13.7c-19.6,7.5-29.6,16.7-28.8,26.4c0.7,8.2,8.7,14.6,23.7,18.8
	c12.7,3.6,29.7,5.5,49,5.5c9,0,18.2-0.4,27.6-1.2c25.1-2.2,48.6-7.1,66-13.8c19.6-7.5,29.6-16.7,28.8-26.4
	c-0.7-8.3-8.7-14.6-23.7-18.8C261.2,186.7,244.2,184.8,224.9,184.8L224.9,184.8z"/>
<g class="st2">
	<g class="st2">
		<path class="st1" d="M198.2,196.6c47.9-4.2,88.1,2.8,93.9,15.7c0.2-0.9,0.3-1.8,0.2-2.7c-1.3-14.6-43.6-22.8-94.6-18.3
			c-51,4.5-91.2,19.9-90,34.4c0.1,0.9,0.3,1.8,0.7,2.6C111.9,214.6,150.3,200.8,198.2,196.6z"/>
	</g>
</g>
<path class="st4" d="M255.6,227h-0.3l-97.5-8.5c-0.7-0.1-1.3-0.3-1.9-0.7c-0.6-0.4-1-0.9-1.3-1.5l-12.4-25c-0.3-0.6-0.4-1.3-0.4-1.9
	c0-0.7,0.2-1.3,0.6-1.9l13.5-22l6.2-41.1c0.1-0.6,0.3-1.2,0.7-1.7c0.4-0.5,0.8-0.9,1.4-1.2l34.8-18.2c0.6-0.3,1.2-0.4,1.8-0.4
	c0.3,0,0.7,0,1,0.1l62.3,16c0.8,0.2,1.4,0.6,2,1.2c0.5,0.6,0.9,1.3,1,2.1l3.2,22.3l14.3,31.4c0.3,0.6,0.4,1.3,0.3,2l-2.3,26.4
	c0,0.5-0.2,1-0.4,1.5c-0.2,0.5-0.6,0.9-1,1.2L258.1,226C257.4,226.6,256.5,227,255.6,227L255.6,227z"/>
<path class="st1" d="M200.7,106.6l62.3,16.1l3.3,22.9l14.5,31.8l-2.3,26.4L255.6,223l-97.6-8.5l-12.4-25l14-22.7l6.3-42L200.7,106.6
	L200.7,106.6z M200.7,98.6c-1.3,0-2.5,0.3-3.7,0.9l-34.8,18.3c-1.1,0.6-2.1,1.4-2.8,2.4c-0.7,1-1.2,2.2-1.4,3.4l-6.1,40.3
	l-13.1,21.3c-0.7,1.1-1.1,2.5-1.2,3.8c-0.1,1.3,0.2,2.7,0.8,3.9l12.4,25c0.6,1.2,1.5,2.3,2.6,3s2.4,1.2,3.8,1.3l97.5,8.5h0.7
	c1.9,0,3.7-0.7,5.1-1.9l22.9-19.2c1.6-1.4,2.6-3.3,2.8-5.4l2.3-26.4c0.1-1.4-0.1-2.7-0.7-4l-14-30.8l-3.2-21.7c-0.2-1.5-0.9-3-2-4.2
	c-1-1.2-2.4-2-3.9-2.4l-62.3-16.1C202,98.8,201.3,98.7,200.7,98.6L200.7,98.6z"/>
<path class="st5" d="M198.3,133l2.3-26.4l-34.8,18.2L198.3,133z"/>
<path class="st5" d="M212.8,195.3l-12.6,22.8l34.3,3L212.8,195.3z"/>
<path class="st6" d="M266.3,145.6l-19.8,28.8l34.3,3L266.3,145.6z"/>
<path class="st6" d="M255.6,223l22.9-19.3l-31.2-8L255.6,223z"/>
<path class="st6" d="M266.3,145.6l-3.3-22.9l-22.4,12.7L266.3,145.6z"/>
<path class="st5" d="M186.2,195.7l-26.7-28.9l-13.9,22.7l12.4,25L186.2,195.7z"/>
<g class="st2">
	<g class="st2">
		<path class="st7" d="M246.5,174.4l19.8-28.8l-25.7-10.2l-42.3-2.4l-12.1,62.7l26.6-0.3l21.6,25.8l12.9-25.4L246.5,174.4z"/>
	</g>
</g>
<path class="st1" d="M238,175.8c-0.5,0-1-0.2-1.4-0.4c-1.4-0.8-3-1.3-4.6-1.4c-1.6-0.1-3.2,0.1-4.8,0.6c-0.6,0.2-1.3,0.2-2,0
	c-0.6-0.3-1.1-0.8-1.4-1.4c-0.3-0.6-0.3-1.3,0-2c0.2-0.6,0.7-1.2,1.3-1.5c2.3-0.9,4.8-1.2,7.3-1c2.5,0.2,4.9,1,7,2.2
	c0.5,0.3,0.8,0.8,1,1.3c0.2,0.5,0.2,1.1,0.1,1.7c-0.2,0.5-0.5,1-0.9,1.4C239.2,175.6,238.7,175.8,238,175.8L238,175.8z"/>
<path class="st1" d="M242.2,163.2c0.4-5.1-3.3-9.6-8.4-10s-9.6,3.3-10,8.4c-0.4,5.1,3.3,9.6,8.4,10
	C237.3,172.1,241.8,168.3,242.2,163.2z"/>
<path class="st7" d="M237.6,162.8c0.1-1.3-0.8-2.4-2.1-2.5c-1.3-0.1-2.4,0.8-2.5,2.1c-0.1,1.3,0.8,2.4,2.1,2.5
	C236.3,165,237.5,164.1,237.6,162.8z"/>
<path class="st1" d="M217.2,188.8c-8.3,0-16.4-2.7-23.2-7.6c-0.3-0.2-0.6-0.4-0.8-0.7c-0.2-0.3-0.4-0.6-0.4-1
	c-0.1-0.4-0.1-0.7,0-1.1c0.1-0.4,0.2-0.7,0.5-1c0.2-0.3,0.5-0.5,0.8-0.7c0.3-0.2,0.7-0.3,1-0.3c0.4,0,0.7,0,1.1,0.1
	c0.4,0.1,0.7,0.3,0.9,0.5c10,7.3,24.3,8.6,34,3c0.3-0.2,0.6-0.3,1-0.4c0.4-0.1,0.7,0,1.1,0c0.3,0.1,0.7,0.2,1,0.5
	c0.3,0.2,0.5,0.5,0.7,0.8c0.2,0.3,0.3,0.7,0.3,1c0,0.4,0,0.7-0.1,1.1c-0.1,0.3-0.3,0.7-0.5,0.9c-0.2,0.3-0.5,0.5-0.8,0.7
	C228.8,187.4,223.1,188.9,217.2,188.8L217.2,188.8z"/>
<path class="st1" d="M207.5,192.3c1.8,0.7,3.6,1.1,5.4,1.3c0.9,0.1,1.9,0.1,2.8,0c0.9,0,1.9-0.2,2.8-0.4c0.4-0.1,0.8-0.1,1.1,0.1
	c0.4,0.2,0.7,0.4,0.8,0.8c0.2,0.3,0.2,0.7,0.2,1.1c-0.1,0.4-0.3,0.7-0.6,1l-1,0.9c-0.9,0.8-2,1.3-3.2,1.5c-1.1,0.2-2.3,0.3-3.4,0.1
	c-0.6-0.1-1.1-0.2-1.7-0.3c-0.5-0.1-1.1-0.3-1.6-0.5c-1.1-0.4-2.1-1.1-2.9-1.9l-0.8-0.9c-0.3-0.3-0.5-0.7-0.5-1.1
	c0-0.4,0.1-0.8,0.3-1.2c0.2-0.3,0.6-0.6,1-0.7C206.8,192,207.2,192.1,207.5,192.3L207.5,192.3z"/>
<path class="st1" d="M228.1,142c0.8-0.6,1.6-1,2.4-1.4c0.8-0.4,1.7-0.6,2.6-0.8c1.9-0.4,3.8-0.4,5.7,0c2,0.4,3.8,1.3,5.3,2.6
	c1.5,1.3,2.6,2.9,3.1,4.8c0.2,0.5,0.2,1.1,0,1.6c-0.1,0.5-0.4,1-0.9,1.3c-0.4,0.3-0.9,0.6-1.5,0.6c-0.5,0.1-1.1,0-1.6-0.3l-0.6-0.3
	c-1.2-0.6-2.1-1.3-3-1.6c-0.9-0.4-1.8-0.7-2.8-0.9c-1.1-0.2-2.1-0.4-3.2-0.4c-0.6,0-1.2-0.1-1.8-0.1c-0.6,0-1.3,0-1.8-0.1l-1-0.2
	c-0.5-0.1-1-0.3-1.3-0.7c-0.4-0.4-0.6-0.8-0.7-1.3c-0.1-0.5-0.1-1,0.1-1.5C227.4,142.8,227.7,142.4,228.1,142L228.1,142z"/>
<path class="st1" d="M203.7,172.8c-0.5,0-1-0.2-1.4-0.4c-1.4-0.8-3-1.3-4.6-1.4c-1.6-0.1-3.2,0.1-4.8,0.6c-0.3,0.2-0.7,0.2-1,0.3
	c-0.4,0-0.7,0-1-0.2c-0.3-0.1-0.6-0.3-0.9-0.6c-0.3-0.2-0.5-0.5-0.6-0.9c-0.1-0.3-0.2-0.7-0.2-1c0-0.4,0.1-0.7,0.2-1
	s0.3-0.6,0.6-0.9c0.3-0.2,0.6-0.4,0.9-0.6c2.3-0.9,4.8-1.2,7.3-1c2.5,0.2,4.9,1,7,2.2c0.5,0.3,0.8,0.8,1,1.3
	c0.2,0.5,0.2,1.1,0.1,1.7c-0.2,0.5-0.5,1-0.9,1.4C204.9,172.6,204.4,172.8,203.7,172.8L203.7,172.8z"/>
<path class="st1" d="M207.9,160.2c0.4-5.1-3.3-9.6-8.4-10s-9.6,3.3-10,8.4c-0.4,5.1,3.3,9.6,8.4,10S207.5,165.3,207.9,160.2z"/>
<path class="st7" d="M203.3,159.8c0.1-1.3-0.8-2.4-2.1-2.5c-1.3-0.1-2.4,0.8-2.5,2.1c-0.1,1.3,0.8,2.4,2.1,2.5
	C202.1,162,203.2,161.1,203.3,159.8z"/>
<path class="st1" d="M204.1,144.6c-0.5,0-1.2-0.2-1.8-0.2c-0.6-0.1-1.2-0.2-1.8-0.2c-1.1-0.1-2.2-0.2-3.2-0.1
	c-0.9,0-1.9,0.2-2.8,0.4c-1.1,0.3-2.2,0.7-3.2,1.1l-0.6,0.2c-0.3,0.1-0.7,0.2-1.1,0.1c-0.4,0-0.7-0.1-1-0.3
	c-0.3-0.2-0.6-0.4-0.8-0.7c-0.2-0.3-0.4-0.6-0.5-0.9c-0.2-0.7-0.1-1.4,0.2-2.1c0.9-1.7,2.2-3.2,3.9-4.2c1.7-1.1,3.7-1.6,5.7-1.7
	c1.9-0.1,3.8,0.3,5.6,1c0.8,0.3,1.6,0.8,2.4,1.3c0.8,0.5,1.5,1.1,2.1,1.8c0.4,0.4,0.6,0.8,0.7,1.3c0.1,0.5,0,1-0.2,1.5
	s-0.5,0.9-1,1.2c-0.4,0.3-0.9,0.4-1.4,0.4L204.1,144.6z"/>
<path class="st1" d="M294,124.4c1.1,0,2-0.9,2-2s-0.9-2-2-2s-2,0.9-2,2S292.9,124.4,294,124.4z"/>
<path class="st1" d="M296.6,93.3c1.5,0,2.6-1.2,2.6-2.6c0-1.5-1.2-2.6-2.6-2.6c-1.5,0-2.6,1.2-2.6,2.6
	C294,92.1,295.1,93.3,296.6,93.3z"/>
<path class="st1" d="M159.8,102c1.5,0,2.6-1.2,2.6-2.6c0-1.5-1.2-2.6-2.6-2.6c-1.5,0-2.6,1.2-2.6,2.6
	C157.2,100.8,158.4,102,159.8,102z"/>
<path class="st1" d="M288.1,105.7c-1.3,0-2.5-0.5-3.4-1.4c-0.9-0.9-1.4-2.1-1.4-3.4c0-0.2,0-0.4-0.1-0.7c-0.1-0.2-0.2-0.4-0.3-0.6
	c-0.2-0.2-0.3-0.3-0.5-0.4c-0.2-0.1-0.4-0.1-0.6-0.1c-0.2,0-0.4,0-0.6,0.1c-0.2,0.1-0.4,0.2-0.5,0.4c-0.1,0.2-0.3,0.4-0.3,0.6
	c-0.1,0.2-0.1,0.4-0.1,0.7c0,1.3-0.5,2.5-1.4,3.4c-0.9,0.9-2.1,1.4-3.4,1.4c-0.4,0-0.8,0.2-1,0.5c-0.3,0.3-0.4,0.7-0.4,1.1
	c0,0.4,0.1,0.8,0.4,1.1c0.3,0.3,0.6,0.5,1,0.5c1.3,0,2.5,0.5,3.4,1.4c0.9,0.9,1.4,2.1,1.4,3.4c0,0.4,0.2,0.8,0.5,1
	c0.3,0.3,0.7,0.4,1.1,0.4c0.4,0,0.8-0.1,1.1-0.4c0.3-0.3,0.5-0.6,0.5-1c0-1.3,0.5-2.5,1.4-3.4c0.9-0.9,2.1-1.4,3.4-1.4
	c0.2,0,0.4,0,0.7-0.1c0.2-0.1,0.4-0.2,0.6-0.3c0.2-0.2,0.3-0.3,0.4-0.5s0.1-0.4,0.1-0.6s0-0.4-0.1-0.6c-0.1-0.2-0.2-0.4-0.4-0.5
	c-0.2-0.2-0.4-0.3-0.6-0.3C288.5,105.7,288.3,105.7,288.1,105.7z"/>
<path class="st1" d="M148.8,126.4c-1.5,0-2.9-0.6-4-1.6c-1.1-1.1-1.6-2.5-1.6-4c0-0.2,0-0.5-0.1-0.7c-0.1-0.2-0.2-0.4-0.4-0.6
	c-0.2-0.2-0.4-0.3-0.6-0.4c-0.2-0.1-0.5-0.1-0.7-0.1c-0.2,0-0.5,0-0.7,0.1c-0.2,0.1-0.4,0.2-0.6,0.4c-0.2,0.2-0.3,0.4-0.4,0.6
	c-0.1,0.2-0.1,0.5-0.1,0.7c0,1.5-0.6,2.9-1.6,4c-1.1,1.1-2.5,1.6-4,1.6c-0.3,0-0.5,0-0.8,0.1c-0.2,0.1-0.5,0.2-0.7,0.4
	c-0.2,0.2-0.3,0.4-0.4,0.6c-0.1,0.2-0.2,0.5-0.2,0.8s0.1,0.5,0.2,0.8c0.1,0.2,0.3,0.4,0.4,0.6c0.2,0.2,0.4,0.3,0.7,0.4
	c0.2,0.1,0.5,0.1,0.8,0.1c1.5,0,2.9,0.6,4,1.6c1.1,1.1,1.6,2.5,1.6,4c0,0.5,0.2,1,0.5,1.3c0.3,0.3,0.8,0.5,1.3,0.5
	c0.5,0,1-0.2,1.3-0.5c0.3-0.3,0.5-0.8,0.5-1.3c0-1.5,0.6-2.9,1.6-4s2.5-1.6,4-1.6c0.5,0,0.9-0.3,1.2-0.6c0.3-0.3,0.5-0.8,0.5-1.3
	s-0.2-0.9-0.5-1.3C149.7,126.7,149.2,126.5,148.8,126.4z"/>
<path class="st4" d="M103.4,248c-0.8,0-1.6-0.2-2.2-0.7c-0.7-0.4-1.2-1.1-1.5-1.8l-5.3-13.2c-0.3-0.7-0.4-1.5-0.2-2.3s0.5-1.5,1.1-2
	l6-6l-2.9-6.8c-0.3-0.8-0.4-1.7-0.2-2.5c0.2-0.8,0.7-1.6,1.3-2.1l15.9-13.2c0.7-0.6,1.6-0.9,2.5-0.9c0.6,0,1.2,0.1,1.8,0.4l7.9,4
	c0.7,0.3,1.2,0.8,1.6,1.5c0.4,0.6,0.6,1.4,0.6,2.1v7.5l9.2,8.1c0.4,0.4,0.8,0.8,1,1.3c0.2,0.5,0.4,1.1,0.4,1.6v10.6
	c0,1.1-0.4,2.1-1.2,2.8l-10.7,10.6c-0.7,0.7-1.8,1.2-2.8,1.2H103.4z"/>
<path class="st1" d="M117.9,200.4l7.9,4v9.3l10.6,9.3v10.6l-10.6,10.6h-22.4l-5.3-13.3l7.9-7.9l-4-9.2L117.9,200.4L117.9,200.4z
	 M117.9,192.5c-1.9,0-3.7,0.7-5.1,1.8l-15.9,13.2c-1.3,1.1-2.2,2.6-2.6,4.3c-0.4,1.7-0.2,3.4,0.5,5l1.8,4.3l-4.2,4.2
	c-1.1,1.1-1.8,2.5-2.2,4c-0.3,1.5-0.2,3.1,0.4,4.5l5.3,13.2c0.6,1.5,1.6,2.7,2.9,3.6c1.3,0.9,2.9,1.4,4.4,1.4h22.5
	c2.1,0,4.1-0.8,5.6-2.3l10.6-10.6c1.5-1.5,2.3-3.5,2.3-5.6V223c0-1.1-0.2-2.3-0.7-3.3c-0.5-1-1.1-2-2-2.7l-7.9-6.9v-5.6
	c0-1.5-0.4-2.9-1.2-4.2c-0.8-1.3-1.9-2.3-3.2-2.9l-7.9-4c-1.1-0.5-2.3-0.8-3.6-0.8L117.9,192.5z"/>
<path class="st6" d="M125.8,213.6l-4,10.6l14.6-1.3L125.8,213.6z"/>
<path class="st6" d="M125.8,213.6v-9.3l-7.9-4l-4,17.2L125.8,213.6z"/>
<path class="st5" d="M106,222.9l-7.9,7.9l13.2-2.6L106,222.9z"/>
<path class="st5" d="M103.3,244.1h22.5l-10.6-9.3L103.3,244.1z"/>
<g class="st2">
	<g class="st2">
		<path class="st7" d="M121.9,224.2l4-10.6l-11.9,4l-7.9,5.3l5.3,5.3l4,6.6l10.6-2.6L121.9,224.2z"/>
	</g>
</g>
<path class="st1" d="M154.8,232.9c1.1,0,2-0.9,2-2c0-1.1-0.9-2-2-2c-1.1,0-2,0.9-2,2C152.8,232,153.7,232.9,154.8,232.9z"/>
<path class="st1" d="M84.7,192.3c-0.5,0-1-0.1-1.5-0.3s-0.9-0.5-1.3-0.9s-0.7-0.8-0.9-1.3c-0.2-0.5-0.3-1-0.3-1.5
	c0-0.3-0.2-0.6-0.4-0.9c-0.2-0.2-0.6-0.3-0.9-0.3c-0.3,0-0.6,0.1-0.9,0.3c-0.2,0.2-0.4,0.5-0.4,0.9c0,1.1-0.4,2.1-1.2,2.8
	c-0.7,0.7-1.8,1.2-2.8,1.2c-0.2,0-0.4,0-0.5,0.1c-0.2,0.1-0.3,0.2-0.5,0.3c-0.1,0.1-0.2,0.3-0.3,0.4c-0.1,0.2-0.1,0.4-0.1,0.5
	c0,0.2,0,0.4,0.1,0.5c0.1,0.2,0.2,0.3,0.3,0.4c0.1,0.1,0.3,0.2,0.5,0.3s0.4,0.1,0.5,0.1c1.1,0,2.1,0.4,2.8,1.2
	c0.7,0.7,1.2,1.8,1.2,2.8c0,0.2,0,0.4,0.1,0.5c0.1,0.2,0.2,0.3,0.3,0.5s0.3,0.2,0.4,0.3c0.2,0.1,0.4,0.1,0.5,0.1
	c0.2,0,0.4,0,0.5-0.1c0.2-0.1,0.3-0.2,0.4-0.3s0.2-0.3,0.3-0.5c0.1-0.2,0.1-0.4,0.1-0.5c0-1.1,0.4-2.1,1.2-2.8
	c0.7-0.7,1.8-1.2,2.8-1.2c0.3,0,0.6-0.2,0.9-0.4c0.2-0.2,0.3-0.6,0.3-0.9c0-0.3-0.1-0.6-0.3-0.9C85.4,192.5,85.1,192.3,84.7,192.3
	L84.7,192.3z"/>
</svg>
