<?xml version="1.0" encoding="utf-8"?>
<!-- Generator: Adobe Illustrator 26.0.2, SVG Export Plug-In . SVG Version: 6.00 Build 0)  -->
<svg version="1.1" id="Facebook_x5F_Hub-Facebook_x5F_Ads_x5F_Automated_x5F_Rules"
	 xmlns="http://www.w3.org/2000/svg" xmlns:xlink="http://www.w3.org/1999/xlink" x="0px" y="0px" viewBox="0 0 400 400"
	 style="enable-background:new 0 0 400 400;" xml:space="preserve">
<style type="text/css">
	.st0{fill:none;}
	.st1{fill:#FFD886;}
	.st2{fill:#1877F2;}
	.st3{fill:#B29D90;}
	.st4{fill:#515979;}
	.st5{fill:#FFFFFF;}
	.st6{fill:#D8EBFB;}
	.st7{fill:#BAD2E1;}
	.st8{fill:#F89D81;}
	.st9{fill:#EF7D7D;}
	.st10{fill:#FFEBEB;}
	.st11{fill:#FBB040;}
	.st12{fill:#75A5C3;}
</style>
<g>
	<rect x="-0.63" y="0.79" class="st0" width="400" height="400"/>
</g>
<g>
	<path class="st1" d="M235.63,90.21c-2.17,0-3.94-1.77-3.94-3.94c0-0.72-0.59-1.31-1.31-1.31c-0.72,0-1.31,0.59-1.31,1.31
		c0,2.17-1.77,3.94-3.94,3.94c-0.72,0-1.31,0.59-1.31,1.31s0.59,1.31,1.31,1.31c2.17,0,3.94,1.77,3.94,3.94
		c0,0.72,0.59,1.31,1.31,1.31c0.72,0,1.31-0.59,1.31-1.31c0-2.17,1.77-3.94,3.94-3.94c0.72,0,1.31-0.59,1.31-1.31
		S236.35,90.21,235.63,90.21z"/>
</g>
<g>
	<path class="st1" d="M163.26,172.91c-2.17,0-3.94-1.77-3.94-3.94c0-0.72-0.59-1.31-1.31-1.31s-1.31,0.59-1.31,1.31
		c0,2.17-1.77,3.94-3.94,3.94c-0.72,0-1.31,0.59-1.31,1.31s0.59,1.31,1.31,1.31c2.17,0,3.94,1.77,3.94,3.94
		c0,0.72,0.59,1.31,1.31,1.31s1.31-0.59,1.31-1.31c0-2.17,1.77-3.94,3.94-3.94c0.72,0,1.31-0.59,1.31-1.31
		S163.98,172.91,163.26,172.91z"/>
</g>
<g>
	<path class="st1" d="M120.75,298.51c-2.17,0-3.94-1.77-3.94-3.94c0-0.72-0.59-1.31-1.31-1.31c-0.72,0-1.31,0.59-1.31,1.31
		c0,2.17-1.77,3.94-3.94,3.94c-0.72,0-1.31,0.59-1.31,1.31c0,0.72,0.59,1.31,1.31,1.31c2.17,0,3.94,1.77,3.94,3.94
		c0,0.72,0.59,1.31,1.31,1.31c0.72,0,1.31-0.59,1.31-1.31c0-2.17,1.77-3.94,3.94-3.94c0.72,0,1.31-0.59,1.31-1.31
		C122.06,299.1,121.47,298.51,120.75,298.51z"/>
</g>
<g>
	<path class="st1" d="M85.8,239.88c-3.31,0-6-2.69-6-6c0-1.1-0.9-2-2-2c-1.1,0-2,0.9-2,2c0,3.31-2.69,6-6,6c-1.1,0-2,0.9-2,2
		c0,1.1,0.9,2,2,2c3.31,0,6,2.69,6,6c0,1.1,0.9,2,2,2c1.1,0,2-0.9,2-2c0-3.31,2.69-6,6-6c1.1,0,2-0.9,2-2
		C87.8,240.77,86.91,239.88,85.8,239.88z"/>
</g>
<g>
	<circle class="st1" cx="210.38" cy="109.02" r="4.5"/>
</g>
<g>
	<circle class="st1" cx="103.19" cy="215.84" r="4.5"/>
</g>
<g>
	<circle class="st1" cx="42.35" cy="263.73" r="4.5"/>
</g>
<g>
	<circle class="st1" cx="324.88" cy="91.52" r="4.5"/>
</g>
<g>
	<circle class="st1" cx="39.85" cy="206.82" r="2.5"/>
</g>
<g>
	<circle class="st1" cx="217.38" cy="62.23" r="2.5"/>
</g>
<g>
	<circle class="st1" cx="189.8" cy="32.52" r="2.5"/>
</g>
<g>
	<circle class="st1" cx="291.38" cy="76.52" r="2.5"/>
</g>
<g>
	<circle class="st1" cx="80.3" cy="200.82" r="2.5"/>
</g>
<g>
	<circle class="st1" cx="108.94" cy="274.57" r="2.5"/>
</g>
<g>
	<circle class="st1" cx="25.69" cy="241.88" r="2.5"/>
</g>
<g>
	<circle class="st1" cx="130.13" cy="186.28" r="2.5"/>
</g>
<g>
	<path class="st2" d="M103.19,12.01c-44.18,0-80,35.82-80,80c0,39.93,29.25,73.03,67.5,79.03l0-55.9l-20.31,0l0-23.12l20.31,0
		l0-17.62c0-20.05,11.94-31.13,30.22-31.13c8.75,0,17.91,1.56,17.91,1.56v19.69h-10.09c-9.94,0-13.04,6.17-13.04,12.49l0,15.01
		l22.19,0l-3.55,23.12l-18.64,0l0,55.9c38.25-6,67.5-39.1,67.5-79.03C183.19,47.82,147.37,12.01,103.19,12.01z"/>
</g>
<path class="st1" d="M276.88,38.52h-6v-6c0-1.66-1.34-3-3-3s-3,1.34-3,3v6h-6c-1.66,0-3,1.34-3,3s1.34,3,3,3h6v6c0,1.66,1.34,3,3,3
	s3-1.34,3-3v-6h6c1.66,0,3-1.34,3-3S278.54,38.52,276.88,38.52z"/>
<g>
	<g>
		<g>
			<path class="st3" d="M210.38,363.23c-8.27,0-15-6.73-15-15v-180c0-8.27,6.73-15,15-15h150c8.27,0,15,6.73,15,15v180
				c0,8.27-6.73,15-15,15H210.38z"/>
		</g>
		<g>
			<path class="st4" d="M360.38,156.23c6.63,0,12,5.37,12,12v180c0,6.63-5.37,12-12,12h-150c-6.63,0-12-5.37-12-12v-180
				c0-6.63,5.37-12,12-12H360.38 M360.38,150.23h-150c-9.93,0-18,8.07-18,18v180c0,9.93,8.07,18,18,18h150c9.93,0,18-8.07,18-18
				v-180C378.38,158.3,370.31,150.23,360.38,150.23L360.38,150.23z"/>
		</g>
	</g>
	<g>
		<g>
			<path class="st5" d="M214.38,351.23c-3.86,0-7-3.14-7-7v-172c0-3.86,3.14-7,7-7h142c3.86,0,7,3.14,7,7v152
				c0,0.8-0.32,1.56-0.88,2.12l-24,24c-0.56,0.56-1.33,0.88-2.12,0.88H214.38z"/>
		</g>
		<g>
			<path class="st4" d="M356.38,168.23c2.21,0,4,1.79,4,4v152l-24,24h-122c-2.21,0-4-1.79-4-4v-172c0-2.21,1.79-4,4-4H356.38
				 M356.38,162.23h-142c-5.51,0-10,4.49-10,10v172c0,5.51,4.49,10,10,10h122c1.59,0,3.12-0.63,4.24-1.76l24-24
				c1.13-1.13,1.76-2.65,1.76-4.24v-152C366.38,166.71,361.9,162.23,356.38,162.23L356.38,162.23z"/>
		</g>
	</g>
	<g>
		<g>
			<path class="st6" d="M336.38,351.23c-0.39,0-0.78-0.07-1.15-0.23c-1.12-0.46-1.85-1.56-1.85-2.77v-19.2c0-4.3,3.5-7.8,7.8-7.8
				h19.2c1.21,0,2.31,0.73,2.77,1.85c0.46,1.12,0.21,2.41-0.65,3.27l-24,24C337.93,350.92,337.16,351.23,336.38,351.23z"/>
		</g>
		<g>
			<path class="st4" d="M360.38,324.23l-24,24v-19.2c0-2.65,2.15-4.8,4.8-4.8H360.38 M360.38,318.23h-19.2
				c-5.96,0-10.8,4.84-10.8,10.8v19.2c0,2.43,1.46,4.61,3.7,5.54c0.74,0.31,1.52,0.46,2.29,0.46c1.56,0,3.1-0.61,4.24-1.76l24-24
				c1.72-1.72,2.23-4.3,1.3-6.54C365,319.69,362.81,318.23,360.38,318.23L360.38,318.23z M360.38,330.23L360.38,330.23
				L360.38,330.23L360.38,330.23z"/>
		</g>
	</g>
	<g>
		<path class="st4" d="M295.38,262.23h-26c-1.66,0-3-1.34-3-3l0,0c0-1.66,1.34-3,3-3h26c1.66,0,3,1.34,3,3l0,0
			C298.38,260.88,297.04,262.23,295.38,262.23z"/>
	</g>
	<g>
		<path class="st4" d="M337.38,250.23h-68c-1.66,0-3-1.34-3-3l0,0c0-1.66,1.34-3,3-3h68c1.66,0,3,1.34,3,3l0,0
			C340.38,248.88,339.04,250.23,337.38,250.23z"/>
	</g>
	<g>
		<g>
			<g>
				<path class="st7" d="M235.38,177.23c-1.66,0-3-1.34-3-3v-16c0-6.07,4.93-11,11-11h25.28c-1.48-2.74-2.28-5.83-2.28-9
					c0-10.48,8.52-19,19-19c0.72,0,1.45,0.04,2.17,0.12c8.56,0.95,15.58,7.85,16.67,16.39c0.52,4.02-0.26,8.03-2.12,11.49h25.28
					c6.07,0,11,4.93,11,11v16c0,1.66-1.34,3-3,3H235.38z M285.38,133.23c-0.33,0-0.67,0.03-1.01,0.1c-1.93,0.37-3.53,1.97-3.9,3.9
					c-0.29,1.54,0.08,3.02,1.05,4.19c0.95,1.15,2.36,1.81,3.85,1.81c0.33,0,0.67-0.03,1.01-0.1c1.93-0.37,3.53-1.97,3.9-3.9
					c0.29-1.54-0.08-3.02-1.05-4.19C288.28,133.89,286.88,133.23,285.38,133.23z"/>
			</g>
		</g>
		<g>
			<g>
				<path class="st4" d="M285.38,122.23c0.6,0,1.22,0.03,1.84,0.1c7.23,0.8,13.1,6.57,14.03,13.79c0.72,5.63-1.49,10.75-5.31,14.11
					h31.44c4.42,0,8,3.58,8,8v16h-100v-16c0-4.42,3.58-8,8-8h31.44c-3.33-2.93-5.44-7.21-5.44-12
					C269.38,129.39,276.55,122.23,285.38,122.23 M285.38,146.23c0.51,0,1.04-0.05,1.57-0.15c3.15-0.6,5.69-3.14,6.29-6.29
					c0.97-5.11-2.92-9.57-7.85-9.57c-0.51,0-1.04,0.05-1.57,0.15c-3.15,0.6-5.69,3.14-6.29,6.29
					C276.56,141.77,280.45,146.23,285.38,146.23 M285.38,116.23C285.38,116.23,285.38,116.23,285.38,116.23
					c-5.88,0-11.4,2.29-15.56,6.44c-4.16,4.16-6.44,9.68-6.44,15.56c0,2.05,0.29,4.07,0.84,6h-20.84c-7.72,0-14,6.28-14,14v16
					c0,3.31,2.69,6,6,6h100c3.31,0,6-2.69,6-6v-16c0-7.72-6.28-14-14-14h-20.85c0.81-2.84,1.05-5.85,0.66-8.87
					c-1.27-9.9-9.39-17.88-19.32-18.99C287.05,116.27,286.21,116.23,285.38,116.23L285.38,116.23z M285.38,140.23
					c-0.82,0-1.32-0.46-1.54-0.73c-0.27-0.33-0.57-0.9-0.41-1.72c0.14-0.72,0.79-1.37,1.51-1.51c0.15-0.03,0.3-0.04,0.45-0.04
					c0.82,0,1.32,0.46,1.54,0.73c0.27,0.33,0.57,0.9,0.41,1.72c-0.14,0.72-0.79,1.37-1.51,1.51
					C285.68,140.21,285.53,140.23,285.38,140.23L285.38,140.23z"/>
			</g>
		</g>
	</g>
	<g>
		<line class="st7" x1="250.38" y1="162.23" x2="320.38" y2="162.23"/>
		<path class="st4" d="M320.38,165.23h-70c-1.66,0-3-1.34-3-3s1.34-3,3-3h70c1.66,0,3,1.34,3,3S322.04,165.23,320.38,165.23z"/>
	</g>
	<g>
		<g>
			<path class="st5" d="M236.38,265.23c-1.66,0-3-1.34-3-3v-18c0-1.66,1.34-3,3-3h18c1.66,0,3,1.34,3,3v18c0,1.66-1.34,3-3,3H236.38
				z"/>
		</g>
		<g>
			<path class="st4" d="M254.38,244.23v18h-18v-18H254.38 M254.38,238.23h-18c-3.31,0-6,2.69-6,6v18c0,3.31,2.69,6,6,6h18
				c3.31,0,6-2.69,6-6v-18C260.38,240.91,257.7,238.23,254.38,238.23L254.38,238.23z"/>
		</g>
	</g>
	<g>
		<path class="st8" d="M246.84,259.23c-0.84,0-1.65-0.36-2.22-0.98l-5.46-6c-1.11-1.23-1.02-3.12,0.2-4.24
			c1.23-1.11,3.12-1.02,4.24,0.2l3.24,3.56l12.33-13.56c1.11-1.23,3.01-1.32,4.24-0.2c1.23,1.11,1.32,3.01,0.2,4.24l-14.54,16
			C248.49,258.87,247.68,259.23,246.84,259.23z"/>
	</g>
	<g>
		<path class="st4" d="M315.38,298.23h-46c-1.66,0-3-1.34-3-3l0,0c0-1.66,1.34-3,3-3h46c1.66,0,3,1.34,3,3l0,0
			C318.38,296.88,317.04,298.23,315.38,298.23z"/>
	</g>
	<g>
		<path class="st4" d="M337.38,286.23h-68c-1.66,0-3-1.34-3-3l0,0c0-1.66,1.34-3,3-3h68c1.66,0,3,1.34,3,3l0,0
			C340.38,284.88,339.04,286.23,337.38,286.23z"/>
	</g>
	<g>
		<path class="st4" d="M279.38,332.23h-46c-1.66,0-3-1.34-3-3l0,0c0-1.66,1.34-3,3-3h46c1.66,0,3,1.34,3,3l0,0
			C282.38,330.88,281.04,332.23,279.38,332.23z"/>
	</g>
	<g>
		<path class="st4" d="M301.38,320.23h-68c-1.66,0-3-1.34-3-3l0,0c0-1.66,1.34-3,3-3h68c1.66,0,3,1.34,3,3l0,0
			C304.38,318.88,303.04,320.23,301.38,320.23z"/>
	</g>
	<g>
		<g>
			<path class="st5" d="M236.38,301.23c-1.66,0-3-1.34-3-3v-18c0-1.66,1.34-3,3-3h18c1.66,0,3,1.34,3,3v18c0,1.66-1.34,3-3,3H236.38
				z"/>
		</g>
		<g>
			<path class="st4" d="M254.38,280.23v18h-18v-18H254.38 M254.38,274.23h-18c-3.31,0-6,2.69-6,6v18c0,3.31,2.69,6,6,6h18
				c3.31,0,6-2.69,6-6v-18C260.38,276.91,257.7,274.23,254.38,274.23L254.38,274.23z"/>
		</g>
	</g>
	<g>
		<path class="st8" d="M246.84,295.23c-0.84,0-1.65-0.36-2.22-0.98l-5.46-6c-1.11-1.23-1.02-3.12,0.2-4.24
			c1.23-1.12,3.12-1.02,4.24,0.2l3.24,3.56l12.33-13.56c1.11-1.23,3.01-1.32,4.24-0.2c1.23,1.11,1.32,3.01,0.2,4.24l-14.54,16
			C248.49,294.87,247.68,295.23,246.84,295.23z"/>
	</g>
	<g>
		<g>
			<g>
				<path class="st4" d="M302.88,208.82c-0.32,0-0.64-0.08-0.94-0.24c-1.89-1.02-5.21-1.02-7.11,0c-0.98,0.52-2.19,0.16-2.71-0.82
					c-0.52-0.97-0.16-2.19,0.82-2.71c3.05-1.64,7.84-1.64,10.89,0c0.97,0.52,1.34,1.73,0.82,2.71
					C304.28,208.44,303.59,208.82,302.88,208.82z"/>
			</g>
			<g>
				<g>
					<circle class="st4" cx="298.38" cy="199.07" r="7"/>
				</g>
				<g>
					<circle class="st5" cx="300.13" cy="199.07" r="1.75"/>
				</g>
			</g>
			<g>
				<path class="st4" d="M294.15,184.89c3.7-2.29,8.96-1.89,12.03,1.33c1.57,1.57,3.49,5.3,0.49,6.24c-0.74,0.19-1.4-0.13-1.97-0.54
					c-2.44-1.9-4.85-2.79-7.91-3.04c-0.74-0.07-1.47-0.17-2.14-0.4C293.03,188.07,292.72,185.71,294.15,184.89L294.15,184.89z"/>
			</g>
			<g>
				<path class="st4" d="M276.88,208.82c-0.32,0-0.64-0.08-0.94-0.24c-1.89-1.02-5.21-1.02-7.11,0c-0.97,0.52-2.19,0.16-2.71-0.82
					c-0.52-0.97-0.16-2.19,0.82-2.71c3.05-1.64,7.84-1.64,10.89,0c0.97,0.52,1.34,1.73,0.82,2.71
					C278.28,208.44,277.59,208.82,276.88,208.82z"/>
			</g>
			<g>
				<g>
					<circle class="st4" cx="272.38" cy="199.07" r="7"/>
				</g>
				<g>
					<circle class="st5" cx="274.13" cy="199.07" r="1.75"/>
				</g>
			</g>
			<g>
				<path class="st4" d="M275.39,189.13c-1.64,0.12-3.63,0.06-5.19,0.46c-1.68,0.37-2.76,1.03-4.35,1.94
					c-1.07,0.75-2.56,0.59-3.2-0.62c-0.27-0.5-0.3-1.08-0.14-1.58c0.42-1.32,1.19-2.63,2.36-3.6c2.76-2.47,7.01-2.8,10.28-1.34
					c1.51,0.61,3.52,1.98,2.22,3.84C276.93,188.89,276.1,189.01,275.39,189.13L275.39,189.13z"/>
			</g>
		</g>
		<g>
			<path class="st4" d="M299.39,211.23L299.39,211.23h-28.01c-2.76,0-5,2.24-5,5c0,10.48,8.52,19,19,19c10.41,0,18.9-8.42,19-18.81
				c0-0.06,0-0.12,0-0.19C304.38,213.46,302.15,211.23,299.39,211.23z"/>
			<g>
				<g>
					<ellipse class="st9" cx="285.38" cy="225.56" rx="10.41" ry="4.67"/>
				</g>
			</g>
		</g>
	</g>
</g>
<g>
	<g>
		<g>
			<path class="st10" d="M212.92,393.12c-0.77,0-1.52-0.29-2.09-0.85l-29.83-29.04c-0.77-0.75-1.08-1.86-0.81-2.91l4.26-16.36
				c0.24-0.92,0.91-1.68,1.8-2.03l13.51-5.37c0.36-0.14,0.73-0.21,1.11-0.21c0.58,0,1.16,0.17,1.66,0.5l13.82,9.17
				c0.88,0.58,1.38,1.58,1.34,2.63l-1.77,41.59c-0.05,1.18-0.79,2.22-1.89,2.66C213.67,393.05,213.29,393.12,212.92,393.12z"/>
		</g>
		<g>
			<path class="st4" d="M200.86,339.36l13.82,9.17l-1.77,41.59l-29.83-29.04l4.26-16.36L200.86,339.36 M200.86,333.36
				c-0.75,0-1.5,0.14-2.22,0.42l-13.51,5.37c-1.78,0.71-3.11,2.21-3.59,4.06l-4.26,16.36c-0.54,2.09,0.08,4.31,1.62,5.81
				l29.83,29.04c1.14,1.11,2.65,1.7,4.19,1.7c0.75,0,1.5-0.14,2.21-0.42c2.2-0.87,3.68-2.96,3.78-5.32l1.77-41.59
				c0.09-2.1-0.93-4.09-2.68-5.25l-13.82-9.17C203.18,333.7,202.03,333.36,200.86,333.36L200.86,333.36z"/>
		</g>
	</g>
	<g>
		<polygon class="st4" points="212.92,390.12 201.24,379.7 214.25,374.53 		"/>
	</g>
	<g>
		<g>
			<path class="st1" d="M183.04,364.09c-1.21-0.02-2.3-0.76-2.74-1.89l-31.39-78.99c-0.29-0.74-0.28-1.56,0.03-2.3
				c0.32-0.73,0.91-1.31,1.65-1.6l31.6-12.55c0.36-0.14,0.74-0.21,1.11-0.21c1.19,0,2.32,0.72,2.79,1.89l31.39,78.99
				c0.45,1.13,0.17,2.41-0.7,3.26c-0.57,0.56-1.33,0.85-2.09,0.85c-0.4,0-0.8-0.08-1.19-0.25l-9.7-4.18l-1.99,8.4
				c-0.23,0.95-0.9,1.74-1.81,2.1c-0.36,0.14-0.73,0.21-1.11,0.21c-0.58,0-1.15-0.17-1.65-0.49l-7.21-4.74l-4.18,9.7
				c-0.48,1.1-1.56,1.81-2.75,1.81C183.07,364.09,183.06,364.09,183.04,364.09z"/>
		</g>
		<g>
			<path class="st4" d="M183.3,269.54l31.39,78.99l-12.99-5.6l-2.81,11.88l-10.2-6.71l-5.6,12.99l-31.39-78.99L183.3,269.54
				 M183.29,263.54c-0.74,0-1.49,0.14-2.21,0.43l-31.6,12.55c-1.48,0.59-2.66,1.74-3.29,3.2c-0.63,1.46-0.65,3.11-0.07,4.59
				l31.39,78.99c0.9,2.26,3.06,3.75,5.49,3.78c0.03,0,0.06,0,0.09,0c2.39,0,4.56-1.42,5.51-3.62l2.77-6.42l4.22,2.78
				c0.99,0.65,2.14,0.99,3.3,0.99c0.75,0,1.5-0.14,2.22-0.42c1.82-0.72,3.17-2.29,3.62-4.19l1.16-4.92l6.42,2.77
				c0.77,0.33,1.57,0.49,2.37,0.49c1.53,0,3.04-0.59,4.18-1.7c1.74-1.69,2.29-4.26,1.4-6.52l-31.39-78.99
				C187.94,264.97,185.68,263.54,183.29,263.54L183.29,263.54z"/>
		</g>
	</g>
	<g>
		<polygon class="st11" points="214.68,348.53 204.3,344.05 175.86,272.49 183.3,269.54 		"/>
	</g>
	<g>
		<g>
			
				<rect x="142.7" y="252.73" transform="matrix(0.9293 -0.3692 0.3692 0.9293 -85.8839 78.7113)" class="st12" width="40" height="22"/>
		</g>
		<g>
			<path class="st4" d="M175.54,250.02l5.91,14.87l-31.6,12.55l-5.91-14.87L175.54,250.02 M178.9,242.23l-5.58,2.22L141.73,257
				l-5.58,2.22l2.22,5.58l5.91,14.87l2.22,5.58l5.58-2.22l31.6-12.55l5.58-2.22l-2.22-5.58l-5.91-14.87L178.9,242.23L178.9,242.23z"
				/>
		</g>
	</g>
	<g>
		<g>
			<path class="st9" d="M131.19,238.59c-1.83-4.61,0.43-9.86,5.04-11.69l20.45-8.12c1.06-0.42,2.18-0.64,3.32-0.64
				c3.71,0,6.99,2.23,8.37,5.68l8.86,22.3l-37.17,14.77L131.19,238.59z"/>
		</g>
		<g>
			<path class="st4" d="M159.99,221.14c2.39,0,4.64,1.43,5.58,3.79l7.75,19.52L141.73,257l-7.75-19.52
				c-1.22-3.08,0.28-6.57,3.36-7.79l20.45-8.12C158.51,221.28,159.26,221.14,159.99,221.14 M159.99,215.14
				c-1.52,0-3.01,0.29-4.43,0.85l-20.45,8.12c-2.98,1.18-5.32,3.46-6.59,6.4c-1.27,2.94-1.32,6.2-0.13,9.18l7.75,19.52l2.22,5.58
				l5.58-2.22l31.6-12.55l5.58-2.22l-2.22-5.58l-7.75-19.52C169.32,218.12,164.94,215.14,159.99,215.14L159.99,215.14z"/>
		</g>
	</g>
	<g>
		<path class="st4" d="M202.81,348.22c-0.99,0-1.93-0.6-2.32-1.58l-28.8-72.49c-0.51-1.28,0.12-2.74,1.4-3.25
			c1.28-0.51,2.74,0.12,3.25,1.4l28.8,72.49c0.51,1.28-0.12,2.74-1.4,3.25C203.43,348.16,203.11,348.22,202.81,348.22z"/>
	</g>
	<g>
		<path class="st4" d="M189.8,353.39c-0.99,0-1.93-0.6-2.32-1.58l-28.8-72.49c-0.51-1.28,0.12-2.74,1.4-3.25
			c1.28-0.51,2.74,0.12,3.25,1.4l28.8,72.49c0.51,1.28-0.12,2.74-1.4,3.25C190.42,353.33,190.1,353.39,189.8,353.39z"/>
	</g>
	<g>
		<path class="st4" d="M146.9,272.51c-0.99,0-1.93-0.6-2.32-1.58c-0.51-1.28,0.12-2.74,1.4-3.25l31.6-12.55
			c1.28-0.51,2.74,0.12,3.25,1.4c0.51,1.28-0.12,2.74-1.4,3.25l-31.6,12.55C147.52,272.46,147.21,272.51,146.9,272.51z"/>
	</g>
	<g>
		<g>
			<g>
				<g>
					<g>
						<g>
							<path class="st4" d="M155.05,236.16c-0.99,0-1.93-0.6-2.32-1.58c-1.32-3.33,0.31-7.12,3.64-8.44
								c3.33-1.32,7.12,0.31,8.44,3.64c0.51,1.28-0.12,2.74-1.4,3.25c-1.28,0.51-2.74-0.12-3.25-1.4c-0.31-0.77-1.18-1.15-1.95-0.84
								c-0.77,0.31-1.15,1.18-0.84,1.95c0.51,1.28-0.12,2.74-1.4,3.25C155.67,236.1,155.36,236.16,155.05,236.16z"/>
						</g>
					</g>
					<g>
						<g>
							<path class="st4" d="M140.18,242.06c-0.99,0-1.93-0.6-2.32-1.58c-0.64-1.61-0.62-3.38,0.07-4.97
								c0.69-1.59,1.96-2.83,3.57-3.47c3.33-1.32,7.12,0.31,8.44,3.64c0.51,1.28-0.12,2.74-1.4,3.25c-1.28,0.51-2.74-0.12-3.25-1.4
								c-0.31-0.77-1.18-1.15-1.95-0.84c-0.37,0.15-0.66,0.43-0.82,0.8s-0.16,0.78-0.02,1.15c0.51,1.28-0.12,2.74-1.4,3.25
								C140.8,242.01,140.49,242.06,140.18,242.06z"/>
						</g>
					</g>
					<g>
						<path class="st4" d="M147.04,210c2.35-2.39,5.82-3.22,9.02-2.28c1.95,0.5,4.76,2.79,2.72,4.77c-0.46,0.45-1.11,0.52-1.7,0.59
							c-1.3,0.15-2.64,0.18-3.87,0.27c-1.54,0.07-3.43,0.36-4.95,0.08C146.63,213.27,145.9,211.13,147.04,210L147.04,210z"/>
					</g>
					<g>
						<path class="st4" d="M138.24,217.78c-1.3,1.39-3.21,2.72-4.64,3.99c-0.58,0.47-1.33,1.13-2.08,1.62
							c-0.94,0.67-2.24,0.44-2.9-0.49c-1.24-2.45,0.74-5.47,2.64-6.99c1.79-1.54,7.65-3.79,7.87,0.14
							C139.13,216.75,138.65,217.29,138.24,217.78L138.24,217.78z"/>
					</g>
				</g>
			</g>
		</g>
		<g>
			<g>
				<path class="st4" d="M149.44,247.46c-1.44,0-2.89-0.17-4.35-0.52c-1.07-0.26-1.73-1.34-1.47-2.41c0.26-1.07,1.34-1.74,2.42-1.47
					c5.76,1.39,11.86-1,14.5-5.71c0.54-0.96,1.76-1.3,2.72-0.77c0.96,0.54,1.31,1.76,0.77,2.72
					C161.15,244.42,155.51,247.46,149.44,247.46z"/>
			</g>
		</g>
	</g>
</g>
</svg>
