<svg width="361" height="208" viewBox="0 0 361 208" fill="none" xmlns="http://www.w3.org/2000/svg">
<path d="M65.222 141.327C64.6672 141.084 64.2033 140.671 63.8963 140.149C63.5893 139.626 63.4548 139.02 63.5119 138.417L71.2999 83.0025C71.3245 82.7459 71.4117 82.4992 71.5539 82.2842C71.6962 82.0692 71.889 81.8924 72.1156 81.7694C72.3422 81.6464 72.5955 81.5809 72.8533 81.5787C73.1111 81.5765 73.3655 81.6377 73.5941 81.7568C111.245 96.8243 153.258 80.7964 190.906 95.8847C191.459 96.1301 191.922 96.5429 192.229 97.0649C192.535 97.587 192.671 98.1921 192.616 98.7951L184.828 154.209C184.803 154.466 184.716 154.713 184.574 154.928C184.432 155.143 184.239 155.32 184.012 155.443C183.786 155.566 183.532 155.631 183.274 155.633C183.017 155.635 182.762 155.574 182.534 155.455C144.886 140.367 102.873 156.395 65.222 141.327Z" fill="#7DDF96"/>
<path d="M190.614 97.9627L182.826 153.377C145.178 138.289 103.164 154.317 65.514 139.249L73.3019 83.8349C110.952 98.9023 152.966 82.8744 190.614 97.9627ZM191.198 93.8066C153.55 78.7184 111.537 94.7462 73.886 79.6788C71.6721 78.7955 69.6326 79.7874 69.3065 82.1078L61.5185 137.522C61.4038 138.736 61.6709 139.955 62.2824 141.01C62.894 142.064 63.8195 142.902 64.9299 143.405C102.576 158.5 144.59 142.473 182.238 157.561C184.452 158.444 186.491 157.452 186.817 155.132L194.605 99.7174C194.72 98.5037 194.453 97.2844 193.841 96.2298C193.23 95.1751 192.304 94.3377 191.194 93.8343L191.198 93.8066Z" fill="#515979"/>
<path d="M180.039 137.467L183.847 110.376C178.872 108.73 175.351 103.778 176.067 98.6872C146.835 92.2692 115.695 99.3852 86.4546 92.9801C85.7401 98.0643 81.033 101.401 76.089 99.7382L72.2885 126.78C77.2562 128.425 80.7772 133.377 80.0617 138.468C109.3 144.887 140.44 137.771 169.674 144.175C170.38 139.153 175.065 135.821 180.039 137.467Z" fill="#00C853"/>
<path d="M150.025 118.726C148.025 132.96 136.603 144.218 124.428 144.449C112.253 144.681 104.092 132.79 106.105 118.465C108.118 104.141 119.528 92.9663 131.694 92.7477C143.86 92.5292 152.04 104.394 150.025 118.726Z" fill="#7DDF96"/>
<path d="M97.3988 117.892C96.7786 122.304 92.9371 125.614 88.864 124.992C84.7909 124.37 82.033 120.02 82.6531 115.607C83.2732 111.195 87.0397 108.369 91.1138 108.984C95.1878 109.599 98.0237 113.445 97.3988 117.892Z" fill="#7DDF96"/>
<path d="M173.477 121.584C172.856 126.003 169.091 128.822 165.017 128.207C160.943 127.592 158.11 123.726 158.732 119.299C159.354 114.873 163.193 111.577 167.267 112.199C171.34 112.821 174.099 117.164 173.477 121.584Z" fill="#7DDF96"/>
<path d="M31.1458 146.101C30.5461 146.188 29.9341 146.084 29.3969 145.804C28.8597 145.523 28.4245 145.081 28.1533 144.539L5.39275 93.4178C5.27758 93.1872 5.22084 92.9317 5.22751 92.674C5.23418 92.4163 5.30406 92.1642 5.431 91.9398C5.55795 91.7154 5.73807 91.5256 5.95554 91.3872C6.173 91.2487 6.42116 91.1658 6.67818 91.1457C46.5922 83.9719 73.7254 48.1093 113.651 40.961C114.25 40.8748 114.862 40.9792 115.399 41.2595C115.936 41.5398 116.371 41.9818 116.643 42.523L139.404 93.644C139.519 93.8746 139.576 94.1301 139.569 94.3878C139.562 94.6455 139.492 94.8976 139.366 95.122C139.239 95.3464 139.058 95.5362 138.841 95.6746C138.624 95.8131 138.375 95.896 138.118 95.9161C98.193 103.064 71.0597 138.927 31.1458 146.101Z" fill="#7DDF96"/>
<path d="M114.504 42.8781L137.265 93.9991C97.3424 101.154 70.2064 137.01 30.2924 144.184L7.53184 93.0627C47.4458 85.8889 74.5819 50.0327 114.504 42.8781ZM112.797 39.044C72.8749 46.1986 45.7388 82.0549 5.8248 89.2287C3.47922 89.6528 2.27523 91.5747 3.22833 93.7154L25.9889 144.836C26.5348 145.926 27.4074 146.819 28.4849 147.389C29.5624 147.96 30.791 148.179 31.9994 148.018C71.9248 140.87 99.0609 105.013 138.983 97.8587C141.329 97.4346 142.533 95.5127 141.58 93.372L118.819 42.251C118.273 41.1609 117.401 40.2685 116.323 39.6981C115.246 39.1278 114.017 38.9081 112.809 39.0696L112.797 39.044Z" fill="#515979"/>
<path d="M126.471 81.9828L115.344 56.991C110.253 58.2316 104.643 55.8979 102.552 51.2012C74.3613 61.2486 51.7235 83.7853 23.5322 93.8484C25.6205 98.5387 23.3967 103.863 18.323 105.073L29.4301 130.02C34.5145 128.782 40.1246 131.116 42.2158 135.812C70.4128 125.762 93.0505 103.225 121.235 93.1651C119.173 88.5323 121.38 83.2233 126.471 81.9828Z" fill="#00C853"/>
<path d="M91.0862 81.9946C96.9329 95.1263 93.2123 110.726 83.0101 117.374C72.8078 124.022 59.5854 118.263 53.7018 105.048C47.8182 91.8332 51.5729 76.3103 61.7745 69.678C71.976 63.0456 85.1998 68.7734 91.0862 81.9946Z" fill="#7DDF96"/>
<path d="M46.0143 109.175C47.8266 113.246 46.3227 118.088 42.539 119.719C38.7553 121.35 34.1111 119.122 32.2988 115.052C30.4865 110.981 32.1832 106.589 35.964 104.952C39.7449 103.314 44.1877 105.073 46.0143 109.175Z" fill="#7DDF96"/>
<path d="M112.489 71.9906C114.305 76.0675 112.605 80.4536 108.824 82.091C105.043 83.7284 100.592 81.9508 98.7739 77.8675C96.9559 73.7842 98.4655 68.9544 102.249 67.3234C106.033 65.6924 110.674 67.9137 112.489 71.9906Z" fill="#7DDF96"/>
<path d="M76.7844 93.8291C76.5621 93.9292 76.3119 93.9488 76.0768 93.8844C75.8416 93.8201 75.6362 93.6759 75.4959 93.4766C75.3555 93.2773 75.2889 93.0353 75.3075 92.7922C75.3262 92.5492 75.4288 92.3202 75.598 92.1446C76.9802 90.8302 78.7148 89.9462 80.5906 89.6001C80.7273 89.581 80.8665 89.5889 81.0002 89.6236C81.1339 89.6582 81.2595 89.7188 81.3697 89.802C81.48 89.8851 81.5728 89.9892 81.6428 90.1082C81.7128 90.2272 81.7588 90.3589 81.7779 90.4957C81.7971 90.6324 81.7891 90.7716 81.7545 90.9053C81.7199 91.039 81.6592 91.1645 81.5761 91.2748C81.4929 91.3851 81.3889 91.4779 81.2698 91.5479C81.1508 91.6179 81.0192 91.6639 80.8824 91.683C79.4831 91.9637 78.1875 92.6226 77.1365 93.5882C77.0379 93.6929 76.9178 93.7751 76.7844 93.8291Z" fill="#515979"/>
<path d="M78.1075 91.4178C80.225 90.475 81.1773 87.9942 80.2346 85.8767C79.2918 83.7592 76.811 82.8069 74.6935 83.7497C72.5759 84.6924 71.6236 87.1733 72.5664 89.2908C73.5092 91.4083 75.99 92.3606 78.1075 91.4178Z" fill="#515979"/>
<path d="M77.7658 88.0708C78.2951 87.8351 78.5332 87.2148 78.2975 86.6855C78.0618 86.1561 77.4416 85.918 76.9123 86.1537C76.3829 86.3894 76.1448 87.0096 76.3805 87.539C76.6162 88.0684 77.2364 88.3064 77.7658 88.0708Z" fill="white"/>
<path d="M64.303 100.19C64.0806 100.289 63.831 100.307 63.5967 100.241C63.3625 100.176 63.1582 100.031 63.0189 99.8319C62.8795 99.6327 62.8137 99.3912 62.8327 99.1487C62.8517 98.9063 62.9543 98.678 63.123 98.5028C64.505 97.1881 66.2397 96.304 68.1156 95.9584C68.3848 95.9327 68.6535 96.0119 68.8658 96.1796C69.078 96.3472 69.2172 96.5904 69.2545 96.8582C69.2918 97.1261 69.2242 97.398 69.0658 97.6172C68.9075 97.8365 68.6706 97.9861 68.4046 98.0349C67.0062 98.3196 65.712 98.9805 64.6615 99.9464C64.5597 100.051 64.4377 100.134 64.303 100.19Z" fill="#515979"/>
<path d="M65.6451 97.7704C67.7626 96.8276 68.7149 94.3468 67.7722 92.2293C66.8294 90.1118 64.3485 89.1595 62.231 90.1022C60.1135 91.045 59.1612 93.5258 60.104 95.6433C61.0468 97.7608 63.5276 98.7131 65.6451 97.7704Z" fill="#515979"/>
<path d="M65.2941 94.4198C65.8235 94.1841 66.0615 93.5638 65.8259 93.0345C65.5902 92.5051 64.9699 92.267 64.4406 92.5027C63.9112 92.7384 63.6731 93.3586 63.9088 93.888C64.1445 94.4174 64.7647 94.6554 65.2941 94.4198Z" fill="white"/>
<path d="M69.7883 80.076C70.1638 79.4586 70.6535 78.9183 71.2312 78.4842C71.7969 78.0373 72.4301 77.6831 73.1069 77.4347C73.8141 77.1628 74.5679 77.0328 75.3254 77.0519C76.0984 77.0602 76.8565 77.2655 77.5281 77.6484C77.6673 77.7274 77.7894 77.8332 77.8874 77.9597C77.9853 78.0862 78.0573 78.2308 78.099 78.3853C78.1407 78.5397 78.1514 78.7009 78.1304 78.8596C78.1094 79.0182 78.0571 79.171 77.9767 79.3093C77.8264 79.5681 77.5841 79.7608 77.2981 79.8488L77.0361 79.9655C76.512 80.1299 76.0732 80.2104 75.6287 80.3471C75.1841 80.4837 74.7567 80.5898 74.2852 80.7691L72.8935 81.2892C72.4076 81.4713 71.9124 81.6278 71.4102 81.7582L71.1219 81.833C70.9679 81.8739 70.8073 81.8835 70.6496 81.8611C70.4919 81.8388 70.3403 81.785 70.2038 81.7029C70.0673 81.6209 69.9487 81.5122 69.8549 81.3835C69.7612 81.2547 69.6943 81.1084 69.6582 80.9533C69.5846 80.6551 69.6313 80.34 69.7883 80.076Z" fill="#515979"/>
<path d="M62.1591 86.4666C61.7723 86.7844 61.2739 87.0752 60.8479 87.3567L59.612 88.175C59.2116 88.4451 58.8702 88.7273 58.4946 89.0017C58.1191 89.2761 57.8075 89.5909 57.3702 89.9158L57.1402 90.0871C56.8828 90.2748 56.5618 90.3534 56.2467 90.3059C55.9317 90.2583 55.6481 90.0885 55.4576 89.8332C55.276 89.5906 55.1933 89.288 55.2262 88.9868C55.3164 88.2126 55.6051 87.4748 56.0643 86.8449C56.4916 86.2258 57.0366 85.6969 57.6683 85.2885C58.2733 84.893 58.9378 84.5971 59.6365 84.4122C60.3364 84.2103 61.0685 84.1442 61.7933 84.2176C62.0084 84.2582 62.2082 84.3575 62.3705 84.5044C62.5328 84.6513 62.6514 84.8402 62.7132 85.0502C62.7751 85.2602 62.7777 85.4832 62.7209 85.6946C62.6641 85.9061 62.55 86.0977 62.3912 86.2484L62.1591 86.4666Z" fill="#515979"/>
<path d="M75.326 102.763C72.7093 103.945 69.8672 104.544 66.9962 104.519C66.6249 104.513 66.2712 104.36 66.013 104.093C65.7549 103.826 65.6134 103.467 65.6196 103.096C65.6259 102.724 65.7794 102.371 66.0464 102.112C66.3134 101.854 66.6721 101.713 67.0434 101.719C72.4468 101.817 78.2275 98.8758 80.783 94.7442C80.9797 94.433 81.291 94.212 81.6496 94.1288C82.0081 94.0457 82.385 94.1072 82.6985 94.3C83.012 94.4929 83.2369 94.8015 83.3244 95.159C83.4119 95.5165 83.3551 95.8941 83.1661 96.2099C81.2587 99.122 78.5302 101.403 75.326 102.763Z" fill="#515979"/>
<path d="M74.6746 106.047C75.6476 105.861 76.5909 105.544 77.4787 105.105C77.9185 104.885 78.3403 104.63 78.7403 104.344C79.143 104.07 79.516 103.756 79.8533 103.404C79.9987 103.256 80.1894 103.161 80.3951 103.134C80.6008 103.107 80.8097 103.149 80.9886 103.254C81.1675 103.36 81.306 103.522 81.3822 103.715C81.4585 103.908 81.468 104.121 81.4093 104.32L81.1995 105.018C81.0046 105.62 80.6627 106.165 80.2048 106.602C79.7691 107.016 79.2684 107.355 78.7225 107.606C78.4522 107.734 78.1732 107.843 77.8875 107.932C77.5959 108.001 77.2997 108.048 77.0012 108.074C76.3942 108.181 75.7718 108.164 75.1717 108.023L74.5615 107.874C74.3149 107.81 74.1034 107.652 73.973 107.433C73.8426 107.214 73.8039 106.953 73.8654 106.706C73.9237 106.531 74.0308 106.375 74.1742 106.259C74.3175 106.142 74.4911 106.069 74.6746 106.047Z" fill="#515979"/>
<path d="M224.319 121.704C223.803 121.386 223.401 120.913 223.17 120.353C222.939 119.793 222.89 119.174 223.03 118.584L238.455 64.7932C238.515 64.5425 238.636 64.3103 238.806 64.1172C238.977 63.9241 239.193 63.7758 239.434 63.6855C239.676 63.5953 239.936 63.5657 240.191 63.5994C240.447 63.6331 240.69 63.7291 240.9 63.8789C276.087 84.0397 319.923 74.0149 355.104 94.1959C355.618 94.516 356.019 94.9891 356.25 95.5488C356.481 96.1084 356.531 96.7265 356.392 97.3159L340.968 151.107C340.908 151.358 340.787 151.59 340.616 151.783C340.446 151.976 340.23 152.124 339.988 152.215C339.747 152.305 339.487 152.335 339.231 152.301C338.976 152.267 338.732 152.171 338.523 152.021C303.343 131.834 259.506 141.865 224.319 121.704Z" fill="#7DDF96"/>
<path d="M354.525 96.213L339.101 150.004C303.92 129.823 260.084 139.848 224.897 119.687L240.322 65.8961C275.509 86.0568 319.344 76.0321 354.525 96.213ZM355.682 92.1787C320.501 71.9978 276.666 82.0225 241.478 61.8617C239.409 60.6789 237.251 61.3773 236.605 63.6298L221.181 117.421C220.899 118.607 220.993 119.851 221.452 120.981C221.911 122.11 222.711 123.069 223.74 123.722C258.92 143.909 302.755 133.884 337.937 154.065C340.006 155.248 342.164 154.55 342.81 152.297L358.234 98.5062C358.516 97.3203 358.422 96.0757 357.963 94.9462C357.504 93.8167 356.704 92.8586 355.675 92.2056L355.682 92.1787Z" fill="#515979"/>
<path d="M338.556 133.861L346.097 107.564C341.4 105.242 338.602 99.848 340.019 94.906C311.966 84.4822 280.138 87.195 252.074 76.7828C250.659 81.7181 245.533 84.367 240.868 82.0326L233.341 108.283C238.032 110.603 240.829 115.997 239.412 120.939C267.473 131.364 299.3 128.651 327.36 139.055C328.756 134.187 333.859 131.539 338.556 133.861Z" fill="#00C853"/>
<path d="M311.443 111.125C307.48 124.943 294.603 134.501 282.514 133.036C270.426 131.571 263.999 118.66 267.986 104.755C271.973 90.8499 284.827 81.3721 296.905 82.8489C308.983 84.3256 315.432 97.2135 311.443 111.125Z" fill="#7DDF96"/>
<path d="M259.444 102.975C258.216 107.258 253.951 110.001 250.004 108.818C246.057 107.636 243.932 102.944 245.16 98.6608C246.388 94.3776 250.511 92.1035 254.46 93.2794C258.409 94.4554 260.682 98.6583 259.444 102.975Z" fill="#7DDF96"/>
<path d="M334.269 117.219C333.039 121.509 328.917 123.777 324.969 122.601C321.02 121.425 318.752 117.202 319.984 112.905C321.216 108.609 325.477 105.879 329.424 107.062C333.371 108.244 335.499 112.93 334.269 117.219Z" fill="#7DDF96"/>
<path d="M292.839 110.986C292.606 110.919 292.403 110.772 292.265 110.572C292.128 110.371 292.065 110.129 292.086 109.887C292.107 109.644 292.212 109.417 292.382 109.243C292.553 109.07 292.778 108.961 293.02 108.935C294.923 108.82 296.82 109.258 298.48 110.195C298.712 110.346 298.875 110.582 298.934 110.852C298.993 111.123 298.942 111.405 298.794 111.639C298.645 111.871 298.41 112.034 298.141 112.093C297.871 112.152 297.59 112.103 297.357 111.954C296.104 111.272 294.689 110.944 293.263 111.006C293.122 111.031 292.977 111.025 292.839 110.986Z" fill="#515979"/>
<path d="M295.416 109.993C297.644 110.632 299.969 109.344 300.607 107.116C301.246 104.888 299.958 102.564 297.73 101.925C295.502 101.286 293.178 102.574 292.539 104.802C291.9 107.03 293.188 109.355 295.416 109.993Z" fill="#515979"/>
<path d="M297.299 107.208C297.856 107.368 298.437 107.046 298.597 106.489C298.757 105.932 298.435 105.35 297.878 105.191C297.321 105.031 296.74 105.353 296.58 105.91C296.42 106.467 296.742 107.048 297.299 107.208Z" fill="white"/>
<path d="M279.229 107.848C278.996 107.78 278.793 107.634 278.656 107.433C278.518 107.232 278.455 106.99 278.476 106.748C278.497 106.506 278.602 106.278 278.773 106.105C278.943 105.931 279.168 105.823 279.41 105.797C281.314 105.676 283.212 106.114 284.87 107.057C285.107 107.204 285.276 107.439 285.339 107.71C285.402 107.981 285.355 108.267 285.208 108.504C285.061 108.74 284.826 108.909 284.555 108.972C284.284 109.036 283.998 108.989 283.762 108.842C282.51 108.155 281.093 107.827 279.668 107.894C279.52 107.908 279.371 107.893 279.229 107.848Z" fill="#515979"/>
<path d="M281.779 106.847C284.007 107.486 286.332 106.198 286.971 103.97C287.609 101.742 286.321 99.4175 284.093 98.7786C281.865 98.1397 279.541 99.428 278.902 101.656C278.263 103.884 279.551 106.208 281.779 106.847Z" fill="#515979"/>
<path d="M283.671 104.057C284.228 104.217 284.809 103.895 284.969 103.338C285.129 102.78 284.807 102.199 284.25 102.04C283.693 101.88 283.111 102.202 282.952 102.759C282.792 103.316 283.114 103.897 283.671 104.057Z" fill="white"/>
<path d="M296.327 95.9558C297.014 95.7261 297.739 95.6277 298.462 95.6658C299.183 95.6901 299.895 95.8256 300.574 96.0675C301.285 96.3194 301.943 96.7031 302.512 97.1983C303.103 97.7005 303.554 98.3461 303.823 99.0731C303.881 99.2218 303.909 99.3805 303.905 99.5399C303.901 99.6994 303.866 99.8565 303.801 100.002C303.736 100.148 303.643 100.28 303.527 100.389C303.411 100.499 303.275 100.585 303.126 100.641C302.842 100.742 302.531 100.736 302.251 100.623L301.991 100.513C301.478 100.3 301.096 100.081 300.668 99.9003C300.24 99.7192 299.842 99.5325 299.368 99.36L297.967 98.8639C297.462 98.7093 296.965 98.528 296.478 98.3205L296.203 98.1906C296.059 98.123 295.929 98.0271 295.823 97.9086C295.717 97.7901 295.635 97.6515 295.583 97.5008C295.531 97.3502 295.51 97.1908 295.521 97.0319C295.532 96.873 295.575 96.7179 295.647 96.5759C295.783 96.2877 296.028 96.0649 296.327 95.9558Z" fill="#515979"/>
<path d="M286.38 95.9559C285.879 95.9507 285.305 95.8444 284.805 95.7882L283.325 95.6187C282.852 95.5702 282.4 95.5717 281.945 95.5357C281.489 95.4997 281.04 95.5454 280.496 95.5132L280.216 95.4985C279.906 95.4702 279.618 95.3223 279.414 95.0861C279.21 94.8498 279.106 94.5436 279.124 94.232C279.139 93.9314 279.27 93.6482 279.489 93.4416C280.046 92.903 280.733 92.5183 281.483 92.3251C282.209 92.1252 282.966 92.0682 283.714 92.1572C284.416 92.2485 285.101 92.4472 285.743 92.7462C286.409 93.0405 287.013 93.4606 287.52 93.9835C287.631 94.0935 287.719 94.2245 287.779 94.3688C287.839 94.513 287.87 94.6678 287.87 94.8241C287.87 94.9803 287.839 95.135 287.778 95.2792C287.718 95.4234 287.63 95.5541 287.518 95.664C287.298 95.884 287.001 96.0102 286.69 96.0158L286.38 95.9559Z" fill="#515979"/>
<path d="M284.959 122.938C282.633 122.273 280.652 120.738 279.425 118.653C278.199 116.568 277.821 114.091 278.37 111.735C278.399 111.6 278.455 111.473 278.535 111.36C278.614 111.247 278.715 111.152 278.831 111.078C278.948 111.004 279.077 110.955 279.213 110.932C279.349 110.909 279.488 110.913 279.622 110.944L296.003 114.724C296.259 114.801 296.478 114.971 296.614 115.202C296.75 115.433 296.794 115.706 296.737 115.968C296.177 118.405 294.674 120.521 292.556 121.851C290.438 123.181 287.879 123.616 285.44 123.062C285.279 123.015 285.124 122.971 284.963 122.925L284.959 122.938Z" fill="#515979"/>
<path d="M295.745 115.749C295.498 116.824 295.041 117.839 294.402 118.737C293.762 119.635 292.952 120.398 292.017 120.983C291.083 121.567 290.042 121.962 288.955 122.145C287.867 122.327 286.755 122.294 285.68 122.046L285.25 121.923C283.181 121.333 281.417 119.97 280.323 118.117C279.23 116.264 278.89 114.061 279.373 111.964L295.754 115.744L295.745 115.749ZM296.332 113.727L296.225 113.696L279.846 109.909C279.301 109.789 278.73 109.886 278.255 110.181C278.021 110.328 277.819 110.519 277.659 110.745C277.5 110.97 277.386 111.224 277.325 111.493C276.721 114.114 277.147 116.867 278.514 119.183C279.881 121.5 282.085 123.202 284.672 123.94L285.203 124.092C286.545 124.403 287.936 124.446 289.295 124.219C290.654 123.992 291.955 123.5 293.124 122.77C294.292 122.04 295.306 121.087 296.107 119.966C296.907 118.844 297.479 117.576 297.789 116.233C297.912 115.709 297.828 115.157 297.554 114.692C297.281 114.228 296.84 113.887 296.322 113.739L296.332 113.727Z" fill="#515979"/>
<path d="M285.59 122.244C288.954 123.029 291.966 122.444 292.318 120.938C292.669 119.431 290.228 117.573 286.864 116.788C283.5 116.003 280.488 116.588 280.137 118.095C279.785 119.601 282.227 121.459 285.59 122.244Z" fill="#EF7D7D"/>
<path d="M212.575 128.973C208.732 136.838 202.645 143.387 195.082 147.795C187.52 152.203 178.82 154.271 170.083 153.738C161.346 153.205 152.963 150.095 145.991 144.801C139.02 139.507 133.774 132.266 130.916 123.993L114.892 77.4577C111.112 66.3615 111.884 54.2191 117.041 43.6914C122.197 33.1637 131.316 25.1094 142.4 21.2936C153.485 17.4777 165.629 18.2115 176.173 23.334C186.718 28.4566 194.801 37.5503 198.652 48.6222L214.675 95.1571C216.576 100.653 217.369 106.471 217.009 112.275C216.648 118.079 215.141 123.754 212.575 128.973ZM139.678 54.7063C138.579 56.9448 137.935 59.379 137.783 61.8681C137.631 64.3572 137.974 66.8517 138.793 69.2072L154.816 115.742C156.456 120.502 159.919 124.416 164.444 126.622C168.97 128.829 174.186 129.147 178.947 127.508C183.707 125.868 187.62 122.404 189.827 117.879C192.033 113.353 192.352 108.137 190.712 103.377L174.689 56.8419C173.466 53.292 171.218 50.1844 168.229 47.9122C165.24 45.6399 161.644 44.3051 157.897 44.0765C154.149 43.8479 150.418 44.7358 147.175 46.6279C143.932 48.52 141.323 51.3313 139.678 54.7063Z" fill="#75A5C3"/>
<path d="M118.825 44.5357C122.482 37.036 128.281 30.7891 135.488 26.5852C142.695 22.3813 150.988 20.4093 159.316 20.9185C167.644 21.4277 175.634 24.3954 182.276 29.446C188.917 34.4967 193.912 41.4035 196.627 49.293L212.644 95.8248C216.182 106.376 215.406 117.897 210.487 127.879C205.568 137.861 196.904 145.495 186.382 149.118C175.86 152.741 164.333 152.06 154.311 147.222C144.29 142.385 136.586 133.783 132.877 123.291L116.854 76.756C115.044 71.5203 114.287 65.9786 114.625 60.4492C114.963 54.9199 116.391 49.5119 118.825 44.5357ZM191.722 118.802C192.939 116.314 193.653 113.609 193.821 110.844C193.99 108.079 193.61 105.308 192.705 102.691L176.682 56.1556C175.796 53.5159 174.397 51.0775 172.565 48.9813C170.732 46.885 168.503 45.1722 166.005 43.9418C163.508 42.7114 160.791 41.9877 158.013 41.8123C155.234 41.637 152.448 42.0136 149.816 42.9204C147.183 43.8272 144.756 45.2462 142.675 47.0956C140.594 48.9449 138.899 51.1881 137.689 53.6957C136.479 56.2032 135.777 58.9255 135.625 61.7056C135.472 64.4856 135.871 67.2684 136.8 69.8934L152.816 116.425C154.174 120.371 156.671 123.826 159.992 126.352C163.314 128.879 167.31 130.363 171.475 130.617C175.64 130.872 179.787 129.885 183.391 127.782C186.996 125.679 189.895 122.554 191.722 118.802ZM115.034 42.6865C112.348 48.1578 110.774 54.1072 110.402 60.1907C110.03 66.2742 110.868 72.371 112.868 78.1285L128.897 124.651C132.904 136.287 141.369 145.855 152.43 151.25C163.491 156.645 176.243 157.425 187.879 153.418C199.515 149.411 209.083 140.946 214.478 129.885C219.873 118.824 220.653 106.073 216.646 94.4365L200.62 47.9078C197.632 39.2291 192.137 31.6315 184.83 26.0762C177.523 20.5208 168.733 17.2573 159.571 16.6983C150.41 16.1394 141.288 18.3102 133.36 22.9362C125.432 27.5621 119.055 34.4354 115.034 42.6865ZM187.931 116.953C186.473 119.962 184.154 122.469 181.268 124.157C178.382 125.846 175.06 126.639 171.723 126.436C168.386 126.233 165.185 125.043 162.525 123.018C159.865 120.992 157.867 118.222 156.784 115.059L140.767 68.5116C139.312 64.2755 139.6 59.6351 141.567 55.6112C143.534 51.5873 147.019 48.5097 151.255 47.0552C155.491 45.6008 160.132 45.8887 164.156 47.8557C168.179 49.8226 171.257 53.3075 172.711 57.5437L188.738 104.072C189.461 106.17 189.762 108.39 189.622 110.604C189.481 112.818 188.904 114.983 187.922 116.972L187.931 116.953Z" fill="#515979"/>
<path d="M143.004 23.1392C132.427 26.7818 123.729 34.4769 118.825 44.5319C113.921 54.5869 113.212 66.1782 116.854 76.756L118.233 80.7451C114.695 70.1941 115.471 58.6727 120.39 48.6907C125.309 38.7087 133.973 31.0748 144.495 27.4518C155.017 23.8288 166.544 24.5103 176.566 29.3478C186.587 34.1853 194.291 42.7869 198 53.279L196.628 49.293C194.824 44.0545 192.007 39.2225 188.336 35.073C184.665 30.9235 180.213 27.5377 175.233 25.1091C170.254 22.6804 164.845 21.2564 159.315 20.9184C153.785 20.5805 148.243 21.3351 143.004 23.1392Z" fill="#9FC0D5"/>
<g style="mix-blend-mode:multiply" opacity="0.3">
<g style="mix-blend-mode:multiply" opacity="0.3">
<path d="M184.441 78.6898L191.795 100.049C194.224 97.2537 197.345 95.1471 200.846 93.9408C204.347 92.7345 208.103 92.471 211.738 93.1768L204.383 71.8178C200.839 72.1044 197.344 72.8361 193.982 73.9956C190.615 75.1488 187.409 76.7263 184.441 78.6898Z" fill="#515979"/>
</g>
</g>
<path d="M258.515 165.185C254.678 173.061 248.591 179.622 241.024 184.038C233.458 188.454 224.751 190.527 216.007 189.995C207.262 189.463 198.871 186.349 191.896 181.047C184.921 175.746 179.675 168.495 176.821 160.212L160.798 113.677C158.801 108.153 157.923 102.287 158.215 96.4209C158.506 90.5545 159.961 84.8047 162.496 79.506C165.031 74.2074 168.594 69.4658 172.978 65.5572C177.363 61.6486 182.481 58.6511 188.035 56.7392C193.588 54.8272 199.467 54.039 205.328 54.4203C211.189 54.8017 216.916 56.345 222.175 58.9605C227.435 61.576 232.121 65.2114 235.962 69.6552C239.803 74.0989 242.722 79.2623 244.548 84.8447L260.575 131.373C262.483 136.866 263.283 142.682 262.93 148.486C262.576 154.289 261.076 159.965 258.515 165.185ZM185.627 90.9157C184.527 93.1538 183.882 95.5881 183.73 98.0774C183.578 100.567 183.922 103.061 184.742 105.417L200.759 151.948C202.398 156.709 205.86 160.624 210.385 162.831C214.91 165.039 220.126 165.359 224.887 163.72C229.647 162.082 233.562 158.619 235.77 154.094C237.977 149.57 238.297 144.353 236.658 139.593L220.635 93.0576C219.413 89.5083 217.165 86.4011 214.177 84.1289C211.189 81.8568 207.594 80.5217 203.847 80.2924C200.1 80.0632 196.369 80.9501 193.126 82.841C189.883 84.7319 187.273 87.5419 185.627 90.9157Z" fill="#75A5C3"/>
<path d="M164.765 80.7642C168.424 73.2674 174.223 67.0237 181.429 62.8222C188.636 58.6207 196.926 56.6502 205.252 57.1597C213.578 57.6692 221.566 60.6359 228.207 65.6847C234.847 70.7335 239.841 77.6378 242.558 85.5246L258.585 132.053C262.228 142.632 261.52 154.224 256.616 164.28C251.712 174.336 243.014 182.032 232.436 185.675C221.858 189.318 210.265 188.61 200.209 183.706C190.153 178.802 182.457 170.104 178.814 159.526L162.779 113.016C160.969 107.779 160.212 102.236 160.551 96.7058C160.89 91.1754 162.318 85.7665 164.753 80.7894L164.765 80.7642ZM237.663 155.015C238.875 152.527 239.585 149.824 239.749 147.061C239.914 144.299 239.532 141.53 238.623 138.916L222.6 92.3811C220.684 87.2158 216.824 83.005 211.843 80.6493C206.863 78.2935 201.159 77.9798 195.951 79.7753C190.742 81.5707 186.443 85.3328 183.973 90.257C181.502 95.1811 181.056 100.876 182.731 106.125L198.757 152.654C200.116 156.599 202.615 160.052 205.937 162.577C209.259 165.102 213.256 166.584 217.421 166.837C221.586 167.09 225.732 166.101 229.335 163.997C232.938 161.893 235.836 158.767 237.663 155.015ZM160.983 78.896C158.291 84.3694 156.712 90.3229 156.338 96.4112C155.964 102.5 156.802 108.602 158.805 114.363L174.828 160.898C178.908 172.439 187.383 181.901 198.408 187.221C209.432 192.542 222.112 193.291 233.686 189.305C245.26 185.319 254.79 176.921 260.2 165.941C265.61 154.96 266.462 142.287 262.571 130.681L246.56 84.152C243.574 75.4724 238.08 67.8734 230.775 62.3165C223.469 56.7595 214.679 53.4942 205.517 52.9336C196.355 52.373 187.233 54.5423 179.304 59.167C171.375 63.7918 164.996 70.6642 160.974 78.915L160.983 78.896ZM233.871 153.166C232.413 156.174 230.094 158.682 227.208 160.37C224.323 162.058 221.001 162.851 217.663 162.649C214.326 162.446 211.125 161.256 208.465 159.23C205.805 157.205 203.807 154.435 202.724 151.272L186.707 104.74C185.292 100.52 185.602 95.9111 187.57 91.9183C189.537 87.9255 193.003 84.8719 197.212 83.4228C201.421 81.9736 206.031 82.2461 210.04 84.1811C214.049 86.1161 217.131 89.5568 218.614 93.7536L234.637 140.289C235.362 142.386 235.663 144.606 235.523 146.82C235.383 149.035 234.804 151.199 233.821 153.188L233.871 153.166Z" fill="#515979"/>
<g style="mix-blend-mode:soft-light">
<g style="mix-blend-mode:soft-light">
<path d="M231.062 181.684C220.484 185.326 208.893 184.617 198.838 179.713C188.783 174.808 181.087 166.111 177.445 155.533L178.814 159.526C182.457 170.104 190.153 178.802 200.209 183.706C210.265 188.61 221.858 189.318 232.436 185.675C243.014 182.032 251.712 174.336 256.616 164.28C261.52 154.224 262.228 142.631 258.585 132.053L257.212 128.067C260.854 138.645 260.145 150.236 255.241 160.291C250.337 170.346 241.639 178.041 231.062 181.684Z" fill="#515979"/>
</g>
</g>
<g style="mix-blend-mode:multiply" opacity="0.3">
<g style="mix-blend-mode:multiply" opacity="0.3">
<path d="M203.407 160.311C201.321 158.126 199.734 155.513 198.757 152.654L192.904 135.657C190.639 138.653 187.532 140.907 183.98 142.131C180.428 143.355 176.592 143.493 172.962 142.529L178.814 159.526C179.86 162.553 181.246 165.452 182.946 168.166C190.32 167.315 197.358 164.613 203.407 160.311Z" fill="#515979"/>
</g>
</g>
<path d="M178.942 127.509C174.452 129.048 169.548 128.85 165.197 126.952C160.846 125.055 157.364 121.596 155.438 117.258L131.462 125.534C135.666 136.123 143.787 144.684 154.139 149.44C164.491 154.196 176.278 154.78 187.05 151.071C197.821 147.362 206.749 139.645 211.979 129.524C217.209 119.403 218.338 107.656 215.131 96.7248L191.18 104.966C192.33 109.574 191.71 114.444 189.445 118.618C187.179 122.791 183.432 125.963 178.942 127.509Z" fill="#75A5C3"/>
<path d="M188.719 104.063C190.134 108.284 189.824 112.892 187.856 116.885C185.889 120.878 182.423 123.931 178.214 125.38C174.005 126.83 169.394 126.557 165.386 124.622C161.377 122.687 158.295 119.246 156.812 115.05L156.081 112.941L152.069 114.301L152.791 116.413C154.613 121.702 158.461 126.052 163.489 128.504C168.517 130.957 174.313 131.311 179.603 129.49C184.892 127.668 189.242 123.821 191.694 118.792C194.146 113.764 194.501 107.968 192.68 102.678L191.951 100.563L187.962 101.942L188.719 104.063Z" fill="#515979"/>
<path d="M212.644 95.8249C216.182 106.376 215.406 117.897 210.487 127.879C205.568 137.861 196.904 145.495 186.382 149.118C175.861 152.741 164.333 152.06 154.311 147.222C144.29 142.385 136.586 133.783 132.877 123.291L132.149 121.176L128.16 122.555L128.897 124.651C132.904 136.287 141.369 145.855 152.43 151.25C163.491 156.645 176.243 157.425 187.879 153.418C199.515 149.411 209.083 140.946 214.478 129.885C219.873 118.824 220.653 106.073 216.646 94.4365L215.915 92.3276L211.929 93.7001L212.644 95.8249Z" fill="#515979"/>
<path d="M188.942 59.374C178.364 63.0165 169.667 70.7117 164.762 80.7667C159.858 90.8217 159.149 102.413 162.791 112.991L164.164 116.977C160.522 106.397 161.233 94.8046 166.138 84.7489C171.044 74.6932 179.744 66.9982 190.324 63.3568C200.903 59.7154 212.496 60.4258 222.552 65.3317C232.607 70.2377 240.302 78.9374 243.944 89.5168L242.565 85.5277C240.762 80.2892 237.944 75.4573 234.273 71.3078C230.602 67.1582 226.15 63.7725 221.171 61.3438C216.191 58.9152 210.782 57.4912 205.252 57.1532C199.722 56.8152 194.18 57.5698 188.942 59.374Z" fill="#9FC0D5"/>
<g style="mix-blend-mode:soft-light">
<g style="mix-blend-mode:soft-light">
<path d="M185.121 145.456C174.543 149.097 162.952 148.388 152.897 143.484C142.842 138.58 135.147 129.883 131.504 119.305L132.877 123.291C136.585 133.783 144.29 142.385 154.311 147.222C164.333 152.06 175.86 152.741 186.382 149.118C196.904 145.495 205.568 137.861 210.487 127.879C215.406 117.897 216.182 106.376 212.644 95.8249L211.275 91.8325C213.079 97.0707 213.834 102.613 213.496 108.143C213.158 113.673 211.734 119.082 209.305 124.061C206.877 129.041 203.491 133.493 199.341 137.164C195.192 140.835 190.36 143.652 185.121 145.456Z" fill="#515979"/>
</g>
</g>
<path d="M154.293 37.5703C153.805 38.5715 153.123 39.466 152.288 40.2024C151.452 40.9387 150.479 41.5023 149.424 41.8605C148.369 42.2188 147.254 42.3647 146.143 42.2897C145.032 42.2148 143.946 41.9205 142.949 41.4239C142.614 41.2605 142.357 40.9705 142.236 40.6179C142.114 40.2653 142.138 39.8789 142.302 39.5437C142.465 39.2086 142.755 38.952 143.108 38.8306C143.46 38.7092 143.847 38.7328 144.182 38.8963C144.846 39.2267 145.57 39.4222 146.31 39.4717C147.051 39.5211 147.794 39.4236 148.496 39.1846C149.199 38.9456 149.848 38.5699 150.404 38.0791C150.961 37.5884 151.415 36.9923 151.74 36.3252L151.771 36.262C151.935 35.9268 152.225 35.6703 152.577 35.5489C152.93 35.4275 153.316 35.4511 153.652 35.6146C153.987 35.7781 154.243 36.068 154.365 36.4206C154.486 36.7732 154.462 37.1596 154.299 37.4948L154.293 37.5703Z" fill="#515979"/>
<path d="M141.033 28.2242C140.645 28.4732 140.273 28.675 139.923 28.8954L138.791 29.5166L137.662 30.1471C137.287 30.3552 136.918 30.5664 136.499 30.7686L136.236 30.8907C136.027 30.9879 135.796 31.0246 135.568 30.9964C135.34 30.9683 135.125 30.8765 134.946 30.7316C134.768 30.5867 134.634 30.3945 134.56 30.1771C134.486 29.9596 134.475 29.7257 134.527 29.502C134.705 28.8219 135.05 28.197 135.531 27.6841C135.958 27.1796 136.47 26.7541 137.044 26.4272C137.629 26.1048 138.265 25.8858 138.924 25.7798C139.613 25.6437 140.326 25.6821 140.997 25.8914C141.216 25.9632 141.41 26.0958 141.557 26.2737C141.704 26.4516 141.797 26.6675 141.825 26.8962C141.854 27.125 141.817 27.3571 141.719 27.5656C141.62 27.7742 141.465 27.9505 141.27 28.074L141.033 28.2242Z" fill="#515979"/>
<path d="M152.844 25.1143C152.385 25.2194 151.977 25.2863 151.544 25.3409L150.263 25.5611L149.001 25.7276C148.574 25.801 148.15 25.868 147.698 25.9134L147.431 25.9789C147.109 26.0071 146.788 25.9072 146.539 25.7007C146.29 25.4942 146.132 25.1978 146.1 24.8758C146.076 24.5962 146.147 24.3168 146.299 24.0815C146.703 23.5049 147.243 23.0372 147.871 22.7202C149.034 22.0905 150.374 21.866 151.679 22.0821C152.386 22.1896 153.054 22.4727 153.624 22.9056C153.805 23.0479 153.943 23.2391 154.02 23.4568C154.097 23.6744 154.111 23.9095 154.059 24.1346C154.008 24.3597 153.893 24.5655 153.729 24.7279C153.565 24.8903 153.358 25.0026 153.132 25.0517L152.844 25.1143Z" fill="#515979"/>
<path d="M201.326 68.5275C201.205 68.7801 201.011 68.9906 200.769 69.1321C200.527 69.2736 200.249 69.3397 199.969 69.3218C199.69 69.304 199.422 69.203 199.2 69.0319C198.978 68.8608 198.812 68.6273 198.724 68.3614C198.663 68.1872 198.537 68.044 198.371 67.9624C198.204 67.8807 198.01 67.8689 197.834 67.9296C197.658 67.9903 197.513 68.1185 197.431 68.2861C197.39 68.369 197.366 68.4592 197.36 68.5516C197.354 68.6439 197.366 68.7365 197.396 68.8241C197.517 69.1769 197.493 69.5635 197.33 69.8989C197.166 70.2343 196.876 70.4909 196.523 70.6124C196.171 70.7339 195.784 70.7102 195.449 70.5467C195.113 70.3831 194.857 70.093 194.735 69.7402C194.431 68.8584 194.489 67.8919 194.898 67.0531C195.1 66.6379 195.382 66.2665 195.727 65.9602C196.073 65.6539 196.476 65.4187 196.912 65.268C197.349 65.1173 197.811 65.0541 198.272 65.0819C198.733 65.1098 199.184 65.2282 199.599 65.4304C200.015 65.6326 200.386 65.9146 200.692 66.2603C200.999 66.606 201.234 67.0087 201.385 67.4453C201.447 67.6206 201.474 67.8065 201.464 67.9923C201.454 68.1781 201.407 68.36 201.326 68.5275Z" fill="#515979"/>
<path d="M190.687 72.1855C190.566 72.4353 190.373 72.6435 190.133 72.7838C189.893 72.9241 189.617 72.9902 189.34 72.9738C189.063 72.9573 188.796 72.8591 188.575 72.6915C188.353 72.5238 188.186 72.2943 188.095 72.0319C188.071 71.9381 188.027 71.8504 187.967 71.7742C187.907 71.698 187.832 71.6351 187.747 71.5893C187.662 71.5435 187.568 71.5158 187.471 71.508C187.374 71.5002 187.277 71.5125 187.186 71.5441C187.094 71.5756 187.01 71.6257 186.939 71.6913C186.867 71.7569 186.81 71.8366 186.771 71.9252C186.732 72.0139 186.712 72.1097 186.711 72.2066C186.711 72.3035 186.731 72.3994 186.769 72.4883C186.891 72.8411 186.867 73.2277 186.704 73.5631C186.54 73.8984 186.25 74.1551 185.897 74.2766C185.544 74.398 185.158 74.3744 184.822 74.2108C184.487 74.0473 184.23 73.7572 184.109 73.4044C183.949 72.9657 183.879 72.4997 183.901 72.0335C183.924 71.5672 184.039 71.1101 184.24 70.6888C184.441 70.2675 184.723 69.8905 185.072 69.5797C185.42 69.2689 185.827 69.0305 186.268 68.8786C186.709 68.7266 187.176 68.6641 187.642 68.6946C188.108 68.7251 188.563 68.8481 188.981 69.0563C189.398 69.2646 189.771 69.5539 190.075 69.9075C190.38 70.2611 190.611 70.6719 190.755 71.1158C190.875 71.4674 190.85 71.8519 190.687 72.1855Z" fill="#515979"/>
<path d="M200.212 73.7958C199.723 74.7969 199.042 75.6915 198.206 76.4278C197.37 77.1642 196.397 77.7277 195.342 78.086C194.288 78.4443 193.172 78.5901 192.061 78.5152C190.95 78.4403 189.864 78.146 188.867 77.6494C188.532 77.4859 188.276 77.196 188.154 76.8434C188.033 76.4908 188.056 76.1044 188.22 75.7692C188.383 75.434 188.673 75.1775 189.026 75.0561C189.378 74.9347 189.765 74.9583 190.1 75.1218C190.765 75.4532 191.489 75.6497 192.23 75.6999C192.971 75.7501 193.714 75.653 194.418 75.4143C195.121 75.1755 195.77 74.7998 196.327 74.3088C196.885 73.8179 197.339 73.2214 197.665 72.5538L197.693 72.4969C197.856 72.1617 198.146 71.9052 198.499 71.7838C198.851 71.6624 199.238 71.686 199.573 71.8495C199.908 72.013 200.165 72.3029 200.286 72.6555C200.407 73.0081 200.384 73.3945 200.22 73.7297L200.212 73.7958Z" fill="#515979"/>
<path d="M187.458 65.7998C187.064 66.0458 186.692 66.2476 186.348 66.4711L185.213 67.0986L184.119 67.7382C183.741 67.9526 183.375 68.1575 182.955 68.3597L182.693 68.4818C182.487 68.5692 182.262 68.5987 182.041 68.5671C181.82 68.5355 181.611 68.444 181.439 68.3025C181.266 68.1611 181.135 67.975 181.061 67.7645C180.986 67.5541 180.97 67.3272 181.016 67.1085C181.196 66.4294 181.541 65.805 182.02 65.2906C182.467 64.7956 182.993 64.3782 183.576 64.0553C184.162 63.7351 184.798 63.5163 185.457 63.4079C186.146 63.2718 186.859 63.3102 187.53 63.5195C187.749 63.5913 187.943 63.7239 188.09 63.9018C188.236 64.0797 188.329 64.2956 188.358 64.5243C188.387 64.753 188.35 64.9852 188.251 65.1937C188.153 65.4022 187.998 65.5786 187.803 65.7021L187.458 65.7998Z" fill="#515979"/>
<path d="M199.234 62.6809C198.779 62.7797 198.371 62.8466 197.941 62.9106L196.679 63.0771L195.407 63.2783C194.98 63.3517 194.556 63.4188 194.113 63.4294L193.824 63.4606C193.501 63.4907 193.18 63.3914 192.93 63.1846C192.68 62.9777 192.523 62.6803 192.493 62.3575C192.467 62.0778 192.54 61.7981 192.699 61.5662C193.099 60.9882 193.636 60.5192 194.264 60.2019C195.446 59.569 196.808 59.3539 198.128 59.5915C198.835 59.6993 199.504 59.9824 200.073 60.415C200.255 60.558 200.393 60.7496 200.47 60.9677C200.548 61.1858 200.562 61.4214 200.511 61.6471C200.459 61.8727 200.345 62.0793 200.182 62.2428C200.018 62.4062 199.811 62.5199 199.585 62.5705L199.234 62.6809Z" fill="#515979"/>
<path d="M155.139 33.4146C155.044 33.6106 154.89 33.772 154.699 33.8765C154.508 33.9809 154.289 34.0232 154.073 33.9974C153.18 33.957 152.304 34.2529 151.619 34.8266C151.519 34.9254 151.401 35.0037 151.271 35.0569C151.141 35.1101 151.002 35.1372 150.862 35.1367C150.722 35.1362 150.583 35.108 150.454 35.0539C150.324 34.9997 150.207 34.9206 150.108 34.821C150.009 34.7214 149.931 34.6034 149.878 34.4736C149.824 34.3438 149.797 34.2047 149.798 34.0644C149.798 33.9241 149.826 33.7853 149.881 33.6559C149.935 33.5265 150.014 33.409 150.113 33.3101C150.678 32.7979 151.341 32.4058 152.062 32.1576C152.782 31.9094 153.546 31.8104 154.306 31.8664C154.583 31.901 154.835 32.0432 155.008 32.2621C155.181 32.4811 155.26 32.7592 155.23 33.0364C155.22 33.1666 155.19 33.2944 155.139 33.4146Z" fill="#515979"/>
<path d="M154.385 31.2714C155.236 29.5264 154.512 27.4219 152.767 26.5708C151.022 25.7198 148.917 26.4444 148.066 28.1894C147.215 29.9343 147.94 32.0388 149.685 32.8899C151.43 33.7409 153.534 33.0163 154.385 31.2714Z" fill="#515979"/>
<path d="M152.843 29.8308C153.056 29.3945 152.875 28.8684 152.438 28.6556C152.002 28.4429 151.476 28.624 151.263 29.0603C151.05 29.4965 151.232 30.0226 151.668 30.2354C152.104 30.4481 152.63 30.267 152.843 29.8308Z" fill="white"/>
<path d="M144.507 37.0757C144.411 37.2717 144.258 37.4331 144.066 37.5376C143.875 37.642 143.656 37.6843 143.44 37.6585C142.543 37.6221 141.665 37.9261 140.983 38.5097C140.783 38.7068 140.513 38.8164 140.233 38.8145C139.952 38.8125 139.684 38.6992 139.487 38.4993C139.289 38.2994 139.18 38.0294 139.182 37.7487C139.184 37.468 139.297 37.1996 139.497 37.0025C140.061 36.4903 140.724 36.0982 141.445 35.85C142.166 35.6018 142.93 35.5027 143.69 35.5588C143.967 35.5917 144.22 35.7333 144.394 35.9527C144.567 36.1721 144.646 36.4512 144.613 36.7288C144.598 36.8498 144.562 36.9673 144.507 37.0757Z" fill="#515979"/>
<path d="M143.753 34.9324C144.604 33.1875 143.879 31.083 142.134 30.2319C140.389 29.3809 138.285 30.1055 137.434 31.8504C136.583 33.5954 137.307 35.6999 139.052 36.5509C140.797 37.402 142.902 36.6774 143.753 34.9324Z" fill="#515979"/>
<path d="M142.21 33.4918C142.423 33.0556 142.242 32.5295 141.806 32.3167C141.37 32.104 140.843 32.2851 140.631 32.7214C140.418 33.1576 140.599 33.6837 141.035 33.8965C141.471 34.1092 141.998 33.9281 142.21 33.4918Z" fill="white"/>
</svg>
