<?xml version="1.0" encoding="utf-8"?>
<!-- Generator: Adobe Illustrator 26.0.2, SVG Export Plug-In . SVG Version: 6.00 Build 0)  -->
<svg version="1.1" id="CRO_x5F_Hub-Coversion_x5F_Optimization_x5F_Rules"
	 xmlns="http://www.w3.org/2000/svg" xmlns:xlink="http://www.w3.org/1999/xlink" x="0px" y="0px" viewBox="0 0 400 400"
	 style="enable-background:new 0 0 400 400;" xml:space="preserve">
<style type="text/css">
	.st0{fill:#F2F1FF;}
	.st1{fill:#E5E2FF;}
	.st2{fill:#FFD886;}
	.st3{fill:#B29D90;}
	.st4{fill:#515979;}
	.st5{fill:#FFFFFF;}
	.st6{fill:#D8EBFB;}
	.st7{fill:#BAD2E1;}
	.st8{fill:#F89D81;}
	.st9{fill:#EF7D7D;}
	.st10{fill:#508CB4;}
	.st11{fill:#507396;}
	.st12{fill:#85AFCB;}
	.st13{fill:#75A5C3;}
	.st14{fill:#FABBA7;}
	.st15{fill:#6ADAF7;}
	.st16{fill:#46B9E6;}
	.st17{fill:#9FC0D5;}
	.st18{fill:none;}
</style>
<g>
	<g>
		<circle class="st0" cx="200" cy="200" r="145"/>
	</g>
	<g>
		<circle class="st1" cx="200" cy="200" r="120"/>
	</g>
</g>
<g>
	<circle class="st2" cx="41.62" cy="159" r="2.5"/>
</g>
<g>
	<circle class="st2" cx="326.75" cy="94" r="2.5"/>
</g>
<g>
	<circle class="st2" cx="184.17" cy="343.58" r="4.5"/>
</g>
<g>
	<path class="st2" d="M51.28,245.7c2.98,0,5.4-2.42,5.4-5.4c0-0.99,0.81-1.8,1.8-1.8c0.99,0,1.8,0.81,1.8,1.8
		c0,2.98,2.42,5.4,5.4,5.4c0.99,0,1.8,0.81,1.8,1.8s-0.81,1.8-1.8,1.8c-2.98,0-5.4,2.42-5.4,5.4c0,0.99-0.81,1.8-1.8,1.8
		c-0.99,0-1.8-0.81-1.8-1.8c0-2.98-2.42-5.4-5.4-5.4c-0.99,0-1.8-0.81-1.8-1.8S50.28,245.7,51.28,245.7z"/>
</g>
<g>
	<circle class="st2" cx="28.62" cy="202.5" r="2.5"/>
</g>
<g>
	<circle class="st2" cx="139.67" cy="353.55" r="2.5"/>
</g>
<g>
	<circle class="st2" cx="62.59" cy="288.81" r="2.5"/>
</g>
<g>
	<path class="st2" d="M282.77,25.08c2.65,0,4.8-2.15,4.8-4.8c0-0.88,0.72-1.6,1.6-1.6c0.88,0,1.6,0.72,1.6,1.6
		c0,2.65,2.15,4.8,4.8,4.8c0.88,0,1.6,0.72,1.6,1.6c0,0.88-0.72,1.6-1.6,1.6c-2.65,0-4.8,2.15-4.8,4.8c0,0.88-0.72,1.6-1.6,1.6
		c-0.88,0-1.6-0.72-1.6-1.6c0-2.65-2.15-4.8-4.8-4.8c-0.88,0-1.6-0.72-1.6-1.6C281.17,25.8,281.89,25.08,282.77,25.08z"/>
</g>
<g>
	<circle class="st2" cx="326.75" cy="57.5" r="2.5"/>
</g>
<g>
	<circle class="st2" cx="362" cy="136.73" r="2.5"/>
</g>
<g>
	<circle class="st2" cx="359.5" cy="84" r="2.5"/>
</g>
<g>
	<circle class="st2" cx="222.17" cy="22.68" r="4"/>
</g>
<g>
	<g>
		<g>
			<path class="st3" d="M124.01,309c-8.27,0-15-6.73-15-15V114c0-8.27,6.73-15,15-15h150c8.27,0,15,6.73,15,15v180
				c0,8.27-6.73,15-15,15H124.01z"/>
		</g>
		<g>
			<path class="st4" d="M274.01,102c6.63,0,12,5.37,12,12v180c0,6.63-5.37,12-12,12h-150c-6.63,0-12-5.37-12-12V114
				c0-6.63,5.37-12,12-12H274.01 M274.01,96h-150c-9.93,0-18,8.07-18,18v180c0,9.93,8.07,18,18,18h150c9.93,0,18-8.07,18-18V114
				C292.01,104.07,283.93,96,274.01,96L274.01,96z"/>
		</g>
	</g>
	<g>
		<g>
			<path class="st5" d="M128.01,297c-3.86,0-7-3.14-7-7V118c0-3.86,3.14-7,7-7h142c3.86,0,7,3.14,7,7v152c0,0.8-0.32,1.56-0.88,2.12
				l-24,24c-0.56,0.56-1.33,0.88-2.12,0.88H128.01z"/>
		</g>
		<g>
			<path class="st4" d="M270.01,114c2.21,0,4,1.79,4,4v152l-24,24h-122c-2.21,0-4-1.79-4-4V118c0-2.21,1.79-4,4-4H270.01
				 M270.01,108h-142c-5.51,0-10,4.49-10,10v172c0,5.51,4.49,10,10,10h122c1.59,0,3.12-0.63,4.24-1.76l24-24
				c1.13-1.13,1.76-2.65,1.76-4.24V118C280.01,112.49,275.52,108,270.01,108L270.01,108z"/>
		</g>
	</g>
	<g>
		<g>
			<path class="st6" d="M250.01,297c-0.39,0-0.78-0.07-1.15-0.23c-1.12-0.46-1.85-1.56-1.85-2.77v-19.2c0-4.3,3.5-7.8,7.8-7.8h19.2
				c1.21,0,2.31,0.73,2.77,1.85c0.46,1.12,0.21,2.41-0.65,3.27l-24,24C251.55,296.7,250.79,297,250.01,297z"/>
		</g>
		<g>
			<path class="st4" d="M274.01,270l-24,24v-19.2c0-2.65,2.15-4.8,4.8-4.8H274.01 M274.01,264h-19.2c-5.96,0-10.8,4.84-10.8,10.8
				V294c0,2.43,1.46,4.61,3.7,5.54c0.74,0.31,1.52,0.46,2.29,0.46c1.56,0,3.1-0.61,4.24-1.76l24-24c1.72-1.72,2.23-4.3,1.3-6.54
				C278.62,265.46,276.43,264,274.01,264L274.01,264z M274.01,276L274.01,276L274.01,276L274.01,276z"/>
		</g>
	</g>
	<g>
		<path class="st4" d="M209.01,208h-26c-1.66,0-3-1.34-3-3l0,0c0-1.66,1.34-3,3-3h26c1.66,0,3,1.34,3,3l0,0
			C212.01,206.66,210.66,208,209.01,208z"/>
	</g>
	<g>
		<path class="st4" d="M251.01,196h-68c-1.66,0-3-1.34-3-3l0,0c0-1.66,1.34-3,3-3h68c1.66,0,3,1.34,3,3l0,0
			C254.01,194.66,252.66,196,251.01,196z"/>
	</g>
	<g>
		<g>
			<g>
				<path class="st7" d="M149.01,123c-1.66,0-3-1.34-3-3v-16c0-6.07,4.93-11,11-11h25.28c-1.48-2.74-2.28-5.83-2.28-9
					c0-10.48,8.52-19,19-19c0.72,0,1.45,0.04,2.17,0.12c8.56,0.95,15.57,7.84,16.67,16.39c0.52,4.02-0.26,8.03-2.12,11.49h25.28
					c6.07,0,11,4.93,11,11v16c0,1.66-1.34,3-3,3H149.01z M199.01,79c-0.33,0-0.67,0.03-1.01,0.1c-1.93,0.37-3.53,1.97-3.9,3.9
					c-0.29,1.54,0.08,3.02,1.05,4.19c0.96,1.15,2.36,1.81,3.85,1.81c0.33,0,0.67-0.03,1.01-0.1c1.93-0.37,3.53-1.97,3.9-3.9
					c0.29-1.54-0.08-3.02-1.05-4.19C201.91,79.66,200.5,79,199.01,79z"/>
			</g>
		</g>
		<g>
			<g>
				<path class="st4" d="M199.01,68c0.6,0,1.22,0.03,1.84,0.1c7.23,0.8,13.1,6.57,14.03,13.79c0.72,5.63-1.49,10.75-5.31,14.11
					h31.44c4.42,0,8,3.58,8,8v16h-100v-16c0-4.42,3.58-8,8-8h31.44c-3.33-2.93-5.44-7.21-5.44-12C183.01,75.16,190.17,68,199.01,68
					 M199.01,92c0.51,0,1.04-0.05,1.57-0.15c3.15-0.6,5.69-3.14,6.29-6.29c0.97-5.11-2.92-9.57-7.85-9.57
					c-0.51,0-1.04,0.05-1.57,0.15c-3.15,0.6-5.69,3.14-6.29,6.29C190.19,87.54,194.08,92,199.01,92 M199.01,62
					C199.01,62,199.01,62,199.01,62c-5.88,0-11.4,2.29-15.56,6.44c-4.16,4.16-6.44,9.68-6.44,15.56c0,2.05,0.29,4.07,0.84,6h-20.84
					c-7.72,0-14,6.28-14,14v16c0,3.31,2.69,6,6,6h100c3.31,0,6-2.69,6-6v-16c0-7.72-6.28-14-14-14h-20.85
					c0.81-2.84,1.05-5.85,0.66-8.87c-1.27-9.9-9.39-17.88-19.32-18.99C200.68,62.05,199.84,62,199.01,62L199.01,62z M199.01,86
					c-0.82,0-1.32-0.46-1.54-0.73c-0.27-0.33-0.57-0.9-0.41-1.72c0.14-0.72,0.79-1.37,1.51-1.51c0.15-0.03,0.3-0.04,0.45-0.04
					c0.82,0,1.32,0.46,1.54,0.73c0.27,0.33,0.57,0.9,0.41,1.72c-0.14,0.72-0.79,1.37-1.51,1.51C199.3,85.99,199.15,86,199.01,86
					L199.01,86z"/>
			</g>
		</g>
	</g>
	<g>
		<line class="st7" x1="164.01" y1="108" x2="234.01" y2="108"/>
		<path class="st4" d="M234.01,111h-70c-1.66,0-3-1.34-3-3s1.34-3,3-3h70c1.66,0,3,1.34,3,3S235.66,111,234.01,111z"/>
	</g>
	<g>
		<g>
			<path class="st5" d="M150.01,211c-1.66,0-3-1.34-3-3v-18c0-1.66,1.34-3,3-3h18c1.66,0,3,1.34,3,3v18c0,1.66-1.34,3-3,3H150.01z"
				/>
		</g>
		<g>
			<path class="st4" d="M168.01,190v18h-18v-18H168.01 M168.01,184h-18c-3.31,0-6,2.69-6,6v18c0,3.31,2.69,6,6,6h18
				c3.31,0,6-2.69,6-6v-18C174.01,186.69,171.32,184,168.01,184L168.01,184z"/>
		</g>
	</g>
	<g>
		<path class="st8" d="M160.46,205c-0.85,0-1.65-0.36-2.22-0.98l-5.45-6c-1.11-1.23-1.02-3.12,0.2-4.24
			c1.23-1.11,3.12-1.02,4.24,0.2l3.23,3.56l12.33-13.56c1.11-1.23,3.01-1.31,4.24-0.2c1.23,1.11,1.32,3.01,0.2,4.24l-14.55,16
			C162.11,204.64,161.31,205,160.46,205z"/>
	</g>
	<g>
		<path class="st4" d="M229.01,244h-46c-1.66,0-3-1.34-3-3l0,0c0-1.66,1.34-3,3-3h46c1.66,0,3,1.34,3,3l0,0
			C232.01,242.66,230.66,244,229.01,244z"/>
	</g>
	<g>
		<path class="st4" d="M251.01,232h-68c-1.66,0-3-1.34-3-3l0,0c0-1.66,1.34-3,3-3h68c1.66,0,3,1.34,3,3l0,0
			C254.01,230.66,252.66,232,251.01,232z"/>
	</g>
	<g>
		<path class="st4" d="M193.01,278h-46c-1.66,0-3-1.34-3-3v0c0-1.66,1.34-3,3-3h46c1.66,0,3,1.34,3,3v0
			C196.01,276.66,194.66,278,193.01,278z"/>
	</g>
	<g>
		<path class="st4" d="M215.01,266h-68c-1.66,0-3-1.34-3-3v0c0-1.66,1.34-3,3-3h68c1.66,0,3,1.34,3,3v0
			C218.01,264.66,216.66,266,215.01,266z"/>
	</g>
	<g>
		<g>
			<path class="st5" d="M150.01,247c-1.66,0-3-1.34-3-3v-18c0-1.66,1.34-3,3-3h18c1.66,0,3,1.34,3,3v18c0,1.66-1.34,3-3,3H150.01z"
				/>
		</g>
		<g>
			<path class="st4" d="M168.01,226v18h-18v-18H168.01 M168.01,220h-18c-3.31,0-6,2.69-6,6v18c0,3.31,2.69,6,6,6h18
				c3.31,0,6-2.69,6-6v-18C174.01,222.69,171.32,220,168.01,220L168.01,220z"/>
		</g>
	</g>
	<g>
		<path class="st8" d="M160.46,241c-0.85,0-1.65-0.36-2.22-0.98l-5.45-6c-1.11-1.23-1.02-3.12,0.2-4.24
			c1.23-1.11,3.12-1.02,4.24,0.2l3.23,3.56l12.33-13.56c1.11-1.23,3.01-1.32,4.24-0.2c1.23,1.11,1.32,3.01,0.2,4.24l-14.55,16
			C162.11,240.64,161.31,241,160.46,241z"/>
	</g>
	<g>
		<g>
			<path class="st4" d="M207.51,154.6c-0.71,0-1.4-0.38-1.76-1.05c-0.52-0.97-0.16-2.19,0.82-2.71c3.05-1.64,7.84-1.64,10.89,0
				c0.97,0.52,1.34,1.73,0.82,2.71c-0.52,0.97-1.73,1.34-2.71,0.82c-1.89-1.02-5.21-1.02-7.11,0
				C208.15,154.52,207.83,154.6,207.51,154.6z"/>
		</g>
		<g>
			<g>
				<circle class="st4" cx="212.01" cy="144.85" r="7"/>
			</g>
			<g>
				<circle class="st5" cx="213.76" cy="144.85" r="1.75"/>
			</g>
		</g>
		<g>
			<path class="st4" d="M207.78,130.66c3.7-2.29,8.96-1.89,12.03,1.33c1.57,1.57,3.49,5.3,0.49,6.24c-0.74,0.19-1.4-0.13-1.97-0.54
				c-2.44-1.9-4.85-2.79-7.91-3.04c-0.74-0.07-1.47-0.17-2.14-0.4C206.65,133.85,206.34,131.49,207.78,130.66L207.78,130.66z"/>
		</g>
		<g>
			<path class="st4" d="M181.51,154.6c-0.71,0-1.4-0.38-1.76-1.05c-0.52-0.97-0.16-2.19,0.82-2.71c3.05-1.64,7.84-1.64,10.89,0
				c0.97,0.52,1.34,1.73,0.82,2.71c-0.52,0.97-1.73,1.34-2.71,0.82c-1.89-1.02-5.22-1.02-7.11,0
				C182.15,154.52,181.83,154.6,181.51,154.6z"/>
		</g>
		<g>
			<g>
				<circle class="st4" cx="186.01" cy="144.85" r="7"/>
			</g>
			<g>
				<circle class="st5" cx="187.76" cy="144.85" r="1.75"/>
			</g>
		</g>
		<g>
			<path class="st4" d="M189.02,134.9c-1.64,0.12-3.63,0.06-5.19,0.46c-1.68,0.37-2.76,1.03-4.35,1.94
				c-1.07,0.75-2.56,0.59-3.2-0.62c-0.27-0.5-0.3-1.08-0.14-1.58c0.42-1.32,1.19-2.63,2.36-3.6c2.76-2.47,7.01-2.8,10.28-1.34
				c1.51,0.61,3.52,1.98,2.22,3.84C190.55,134.66,189.73,134.78,189.02,134.9L189.02,134.9z"/>
		</g>
	</g>
	<g>
		<path class="st4" d="M213.01,157L213.01,157h-28.01c-2.76,0-5,2.24-5,5c0,10.48,8.52,19,19,19c10.41,0,18.9-8.42,19-18.81
			c0-0.06,0-0.12,0-0.19C218.01,159.24,215.77,157,213.01,157z"/>
		<g>
			<g>
				<ellipse class="st9" cx="199.01" cy="171.33" rx="10.41" ry="4.67"/>
			</g>
		</g>
	</g>
</g>
<g>
	<g>
		<g>
			<path class="st10" d="M350.31,368.5c-0.25,0-0.5-0.03-0.75-0.09c-1.31-0.34-2.23-1.51-2.25-2.87c-0.27-20.69-8.12-33.04-21-33.04
				c-0.92,0-1.8-0.43-2.36-1.15c-0.57-0.73-0.77-1.68-0.55-2.57l6-24c0.34-1.36,1.56-2.27,2.91-2.27c0.21,0,0.42,0.02,0.64,0.07
				c0.83,0.18,20.42,4.6,26.6,20.17c7.54,18.99-6.05,43.22-6.64,44.24C352.37,367.94,351.37,368.5,350.31,368.5z"/>
		</g>
		<g>
			<path class="st4" d="M332.31,305.5c0,0,18.79,4.08,24.45,18.35c7.09,17.87-6.45,41.65-6.45,41.65c-0.3-23-9.58-36-24-36
				L332.31,305.5 M332.3,299.5c-2.7,0-5.14,1.83-5.82,4.55l-6,24c-0.45,1.79-0.05,3.69,1.09,5.15c1.14,1.46,2.88,2.31,4.73,2.31
				c5.3,0,17.65,2.93,18,30.08c0.03,2.71,1.88,5.06,4.5,5.73c0.5,0.13,1,0.19,1.5,0.19c2.12,0,4.13-1.13,5.21-3.03
				c0.61-1.07,14.88-26.52,6.82-46.84c-6.77-17.04-27.86-21.8-28.76-22C333.15,299.54,332.72,299.5,332.3,299.5L332.3,299.5z"/>
		</g>
	</g>
	<g>
		<path class="st11" d="M332.31,305.5l-6,24c5.28,0,9.87,1.75,13.59,5.09c1.51-4.92,3.86-13.19,5.94-23.28
			C339.16,306.99,332.31,305.5,332.31,305.5z"/>
	</g>
	<g>
		<g>
			<path class="st10" d="M266.31,368.5c-1.06,0-2.06-0.56-2.61-1.51c-0.58-1.02-14.18-25.25-6.64-44.24
				c6.18-15.57,25.77-19.99,26.6-20.17c0.21-0.05,0.43-0.07,0.64-0.07c1.35,0,2.57,0.91,2.91,2.27l6,24
				c0.22,0.9,0.02,1.85-0.55,2.57c-0.57,0.73-1.44,1.15-2.36,1.15c-12.88,0-20.73,12.35-21,33.04c-0.02,1.35-0.94,2.53-2.25,2.87
				C266.81,368.47,266.56,368.5,266.31,368.5z"/>
		</g>
		<g>
			<path class="st4" d="M284.31,305.5l6,24c-14.42,0-23.7,13-24,36c0,0-13.55-23.78-6.45-41.65
				C265.52,309.58,284.31,305.5,284.31,305.5 M284.31,299.5c-0.42,0-0.85,0.04-1.28,0.14c-0.89,0.19-21.99,4.96-28.76,22
				c-8.07,20.32,6.21,45.76,6.82,46.84c1.09,1.91,3.1,3.03,5.21,3.03c0.5,0,1-0.06,1.5-0.19c2.62-0.68,4.47-3.03,4.5-5.73
				c0.35-27.15,12.7-30.08,18-30.08c1.85,0,3.59-0.85,4.73-2.31s1.54-3.36,1.09-5.15l-6-24C289.45,301.33,287.01,299.5,284.31,299.5
				L284.31,299.5z"/>
		</g>
	</g>
	<g>
		<path class="st12" d="M269.85,323.85c3-7.55,9.67-12.25,15.29-15l-0.84-3.35c0,0-18.79,4.08-24.45,18.35
			c-7.09,17.87,6.45,41.65,6.45,41.65c0.09-7.29,1.09-13.57,2.87-18.76C267.51,339.48,266.95,331.17,269.85,323.85z"/>
	</g>
	<g>
		<g>
			<path class="st13" d="M294.31,348.5c-1.43,0-2.66-1.01-2.94-2.41l-2-10c-0.18-0.88,0.05-1.79,0.62-2.49
				c0.57-0.69,1.42-1.1,2.32-1.1h32c0.9,0,1.75,0.4,2.32,1.1c0.57,0.7,0.8,1.61,0.62,2.49l-2,10c-0.28,1.4-1.51,2.41-2.94,2.41
				H294.31z"/>
		</g>
		<g>
			<path class="st4" d="M324.31,335.5l-2,10h-28l-2-10H324.31 M324.31,329.5h-32c-1.8,0-3.5,0.81-4.64,2.2
				c-1.14,1.39-1.6,3.22-1.24,4.98l2,10c0.56,2.8,3.02,4.82,5.88,4.82h28c2.86,0,5.32-2.02,5.88-4.82l2-10
				c0.35-1.76-0.1-3.59-1.24-4.98C327.81,330.31,326.1,329.5,324.31,329.5L324.31,329.5z M324.31,341.5L324.31,341.5L324.31,341.5
				L324.31,341.5z"/>
		</g>
	</g>
	<g>
		<g>
			<path class="st8" d="M290.31,332.5c-1.27,0-2.41-0.8-2.83-2c-0.5-1.41-12.17-34.88-12.17-69c0-27.86,11.26-54.89,30.9-74.14
				c0.58-0.57,1.34-0.86,2.1-0.86s1.52,0.29,2.1,0.86c19.64,19.25,30.9,46.28,30.9,74.14c0,34.12-11.67,67.59-12.17,69
				c-0.42,1.2-1.56,2-2.83,2H290.31z"/>
		</g>
		<g>
			<path class="st4" d="M308.31,189.5c18.51,18.15,30,44.03,30,72c0,34-12,68-12,68h-36c0,0-12-34-12-68
				C278.31,233.53,289.8,207.65,308.31,189.5 M308.31,183.5c-1.52,0-3.03,0.57-4.2,1.72c-20.21,19.81-31.8,47.62-31.8,76.28
				c0,34.63,11.84,68.57,12.34,70c0.85,2.4,3.11,4,5.66,4h36c2.54,0,4.81-1.6,5.66-4c0.5-1.43,12.34-35.37,12.34-70
				c0-28.67-11.59-56.47-31.8-76.28C311.34,184.07,309.82,183.5,308.31,183.5L308.31,183.5z"/>
		</g>
	</g>
	<g>
		<path class="st10" d="M287.38,219.5h41.85c-5.13-11.31-12.26-21.5-20.92-30C299.64,198,292.51,208.19,287.38,219.5z"/>
	</g>
	<g>
		<path class="st10" d="M329.23,219.5c-5.13-11.31-12.26-21.5-20.92-30c-4.38,9.37-8.66,19.3-12.14,30H329.23z"/>
	</g>
	<g>
		<path class="st14" d="M288.31,261.5c0.67-15.4,3.7-29.25,7.86-42h-8.77c-5.83,12.84-9.09,27.12-9.09,42c0,34,12,68,12,68h10
			C300.31,329.5,286.82,295.47,288.31,261.5z"/>
	</g>
	<g>
		<path class="st12" d="M308.31,189.5c-1.03,1.01-2.03,2.04-3.01,3.09c-0.08,0.08-0.16,0.17-0.24,0.25
			c-0.93,1.01-1.85,2.04-2.74,3.09c-0.11,0.13-0.23,0.27-0.34,0.4c-0.87,1.03-1.71,2.08-2.53,3.14c-0.13,0.16-0.25,0.32-0.38,0.49
			c-0.81,1.06-1.6,2.14-2.37,3.23c-0.12,0.17-0.24,0.35-0.36,0.52c-0.76,1.1-1.51,2.22-2.23,3.35c-0.11,0.17-0.21,0.34-0.32,0.51
			c-0.73,1.16-1.43,2.33-2.11,3.52c-0.08,0.14-0.16,0.28-0.24,0.42c-0.69,1.23-1.37,2.47-2.01,3.73c-0.04,0.08-0.08,0.16-0.12,0.24
			c-0.57,1.13-1.12,2.27-1.65,3.42c-0.09,0.2-0.18,0.4-0.27,0.6h8.77C299.65,208.8,303.93,198.87,308.31,189.5z"/>
	</g>
	<g>
		<path class="st4" d="M332.31,225.5h-48c-1.66,0-3-1.34-3-3s1.34-3,3-3h48c1.66,0,3,1.34,3,3S333.96,225.5,332.31,225.5z"/>
	</g>
	<g>
		<g>
			<path class="st10" d="M308.31,368.5c-2.73,0-4.97-2.14-5.08-4.87l-2.7-52.98c-0.09-2.17,0.67-4.2,2.16-5.75
				c1.48-1.55,3.48-2.4,5.62-2.4s4.14,0.85,5.62,2.4c1.48,1.55,2.25,3.58,2.16,5.72l-2.7,53.03
				C313.27,366.36,311.04,368.5,308.31,368.5z"/>
		</g>
		<g>
			<path class="st4" d="M308.31,305.5c2.73,0,4.9,2.27,4.79,5l-2.7,53.01c-0.05,1.12-0.97,2-2.09,2c-1.12,0-2.04-0.88-2.09-2
				l-2.7-53.01C303.4,307.77,305.58,305.5,308.31,305.5 M308.31,299.5c-2.93,0-5.77,1.21-7.79,3.33c-2.02,2.11-3.11,5-2.99,7.93
				l2.7,53.05c0.18,4.29,3.73,7.69,8.08,7.69s7.89-3.4,8.08-7.74l2.7-52.96c0.13-2.97-0.96-5.86-2.99-7.98
				C314.07,300.71,311.23,299.5,308.31,299.5L308.31,299.5z"/>
		</g>
	</g>
	<g>
		<g>
			<path class="st13" d="M277.33,290.5c-1.49,0-2.75-1.09-2.97-2.57c-0.29-2.01-0.56-4.06-0.8-6.08c-0.1-0.85,0.17-1.7,0.74-2.34
				s1.38-1.01,2.24-1.01h63.52c0.86,0,1.67,0.37,2.24,1.01s0.84,1.49,0.74,2.34c-0.23,2.01-0.5,4.05-0.8,6.08
				c-0.21,1.47-1.48,2.57-2.97,2.57H277.33z"/>
		</g>
		<g>
			<path class="st4" d="M340.07,281.5L340.07,281.5 M340.07,281.5c-0.24,2.03-0.5,4.03-0.79,6h-61.94c-0.29-1.97-0.55-3.97-0.79-6
				H340.07 M340.07,275.5L340.07,275.5h-63.53c-1.71,0-3.34,0.73-4.48,2.01s-1.68,2.98-1.48,4.69c0.24,2.04,0.51,4.12,0.81,6.17
				c0.43,2.95,2.96,5.13,5.94,5.13h61.94c2.98,0,5.51-2.19,5.94-5.13c0.29-1.98,0.55-3.99,0.79-5.97c0.04-0.29,0.07-0.59,0.07-0.9
				C346.07,278.19,343.39,275.5,340.07,275.5L340.07,275.5z M340.07,287.5L340.07,287.5L340.07,287.5L340.07,287.5z"/>
		</g>
	</g>
	<g>
		<g>
			<circle class="st15" cx="308.31" cy="250.5" r="16"/>
		</g>
		<g>
			<path class="st4" d="M308.31,237.5c7.18,0,13,5.82,13,13s-5.82,13-13,13c-7.18,0-13-5.82-13-13S301.13,237.5,308.31,237.5
				 M308.31,231.5c-10.48,0-19,8.52-19,19s8.52,19,19,19c10.48,0,19-8.52,19-19S318.78,231.5,308.31,231.5L308.31,231.5z"/>
		</g>
	</g>
	<g>
		<g>
			<path class="st16" d="M301.31,253.5c0-7.18,5.82-13,13-13c0.89,0,1.75,0.09,2.59,0.26c-2.29-2.02-5.29-3.26-8.59-3.26
				c-7.18,0-13,5.82-13,13c0,6.29,4.47,11.54,10.41,12.74C303.02,260.86,301.31,257.38,301.31,253.5z"/>
		</g>
	</g>
	<g>
		<path class="st17" d="M276.55,281.5c0.24,2.03,0.5,4.03,0.79,6h10c-0.29-1.97-0.55-3.97-0.79-6H276.55z"/>
	</g>
</g>
<g>
	<g>
		<rect class="st18" width="400" height="400"/>
	</g>
</g>
</svg>
