<svg width="1007" height="392" viewBox="0 0 1007 392" fill="none" xmlns="http://www.w3.org/2000/svg">
<path d="M134.736 174.227C134.303 174.169 133.899 173.975 133.583 173.674C133.266 173.373 133.052 172.979 132.972 172.55L127.356 132.59C127.322 132.407 127.334 132.219 127.389 132.042C127.445 131.864 127.544 131.704 127.676 131.573C127.809 131.443 127.972 131.347 128.15 131.294C128.328 131.242 128.517 131.234 128.699 131.271C157.792 134.231 183.728 114.766 212.824 117.746C213.257 117.806 213.66 118 213.976 118.301C214.293 118.602 214.507 118.995 214.588 119.424L220.204 159.383C220.238 159.566 220.226 159.755 220.17 159.932C220.114 160.109 220.016 160.27 219.883 160.4C219.751 160.531 219.588 160.626 219.41 160.679C219.232 160.732 219.043 160.74 218.861 160.703C189.765 157.722 163.829 177.188 134.736 174.227Z" fill="#7DDF96"/>
<path d="M213.034 119.245L218.65 159.204C189.555 156.229 163.618 175.689 134.525 172.729L128.909 132.769C158.002 135.73 183.939 116.269 213.034 119.245ZM212.613 116.248C183.518 113.272 157.581 132.733 128.488 129.772C126.778 129.6 125.561 130.693 125.797 132.366L131.413 172.326C131.574 173.19 132.002 173.982 132.635 174.591C133.269 175.201 134.077 175.597 134.946 175.726C164.042 178.706 189.979 159.246 219.074 162.221C220.785 162.394 222.001 161.301 221.766 159.627L216.15 119.668C215.988 118.804 215.561 118.012 214.927 117.402C214.294 116.793 213.486 116.396 212.616 116.268L212.613 116.248Z" fill="#515979"/>
<path d="M213.557 148.73L210.811 129.194C207.036 129.042 203.611 126.31 203.095 122.638C181.557 124 161.386 135.122 139.844 136.494C140.359 140.16 137.76 143.409 134.002 143.239L136.743 162.739C140.513 162.892 143.938 165.625 144.454 169.296C165.997 167.934 186.168 156.812 207.705 155.44C207.196 151.819 209.781 148.578 213.557 148.73Z" fill="#00C853"/>
<path d="M189.027 141.705C190.469 151.969 184.79 162.043 176.397 164.623C168.003 167.204 159.983 160.583 158.531 150.254C157.079 139.924 162.767 129.911 171.157 127.341C179.546 124.771 187.574 131.37 189.027 141.705Z" fill="#7DDF96"/>
<path d="M152.382 151.587C152.829 154.769 150.824 157.826 147.877 158.205C144.93 158.583 142.154 156.116 141.706 152.934C141.259 149.753 143.308 147.045 146.255 146.662C149.201 146.278 151.931 148.38 152.382 151.587Z" fill="#7DDF96"/>
<path d="M205.851 139.024C206.299 142.211 204.249 144.914 201.303 145.297C198.357 145.681 195.624 143.564 195.176 140.372C194.727 137.18 196.734 134.132 199.681 133.754C202.628 133.375 205.403 135.838 205.851 139.024Z" fill="#7DDF96"/>
<path d="M142.835 287.38C142.464 287.15 142.174 286.809 142.007 286.405C141.84 286.001 141.805 285.555 141.906 285.13L153.029 246.341C153.072 246.16 153.159 245.993 153.282 245.853C153.406 245.714 153.561 245.607 153.735 245.542C153.909 245.477 154.097 245.456 154.281 245.48C154.465 245.504 154.641 245.573 154.792 245.681C180.166 260.219 211.777 252.986 237.145 267.543C237.516 267.773 237.806 268.115 237.972 268.518C238.139 268.922 238.175 269.368 238.074 269.793L226.952 308.582C226.908 308.763 226.821 308.93 226.698 309.07C226.575 309.209 226.419 309.316 226.245 309.381C226.071 309.446 225.884 309.467 225.699 309.443C225.515 309.419 225.34 309.349 225.188 309.241C199.82 294.684 168.209 301.918 142.835 287.38Z" fill="#7DDF96"/>
<path d="M236.728 268.998L225.605 307.787C200.236 293.234 168.626 300.463 143.253 285.925L154.375 247.136C179.749 261.674 211.359 254.445 236.728 268.998ZM237.562 266.089C212.193 251.536 180.583 258.765 155.209 244.227C153.717 243.374 152.161 243.878 151.695 245.502L140.573 284.291C140.369 285.146 140.437 286.043 140.768 286.858C141.099 287.672 141.676 288.363 142.418 288.834C167.786 303.392 199.396 296.163 224.766 310.715C226.258 311.568 227.814 311.065 228.28 309.44L239.402 270.651C239.606 269.796 239.538 268.899 239.207 268.084C238.876 267.27 238.299 266.579 237.557 266.108L237.562 266.089Z" fill="#515979"/>
<path d="M225.213 296.146L230.65 277.183C227.263 275.508 225.246 271.619 226.268 268.055C206.038 260.539 183.087 262.495 162.849 254.986C161.829 258.545 158.133 260.455 154.769 258.772L149.341 277.701C152.724 279.374 154.741 283.264 153.719 286.827C173.954 294.345 196.905 292.389 217.137 299.896C218.145 296.381 221.825 294.471 225.213 296.146Z" fill="#00C853"/>
<path d="M205.661 279.751C202.804 289.715 193.518 296.608 184.801 295.551C176.083 294.494 171.449 285.184 174.324 275.157C177.199 265.13 186.468 258.296 195.178 259.361C203.887 260.426 208.537 269.719 205.661 279.751Z" fill="#7DDF96"/>
<path d="M168.164 273.874C167.279 276.962 164.203 278.94 161.357 278.088C158.511 277.235 156.978 273.851 157.864 270.763C158.75 267.674 161.723 266.034 164.57 266.882C167.418 267.73 169.057 270.761 168.164 273.874Z" fill="#7DDF96"/>
<path d="M222.121 284.146C221.234 287.239 218.262 288.874 215.414 288.026C212.567 287.178 210.932 284.133 211.82 281.035C212.709 277.936 215.781 275.968 218.627 276.821C221.474 277.674 223.008 281.052 222.121 284.146Z" fill="#7DDF96"/>
<path d="M81.2604 277.705C81.027 277.335 80.9159 276.902 80.9431 276.466C80.9702 276.029 81.1342 275.613 81.4116 275.275L108.413 245.288C108.531 245.144 108.682 245.032 108.854 244.961C109.026 244.89 109.212 244.862 109.397 244.879C109.582 244.897 109.76 244.96 109.915 245.063C110.07 245.166 110.198 245.305 110.286 245.468C126.719 269.658 158.302 277.014 174.721 301.218C174.954 301.588 175.064 302.022 175.037 302.458C175.01 302.894 174.847 303.31 174.57 303.648L147.569 333.635C147.451 333.779 147.299 333.891 147.127 333.962C146.956 334.034 146.769 334.062 146.584 334.044C146.399 334.026 146.221 333.963 146.066 333.86C145.911 333.758 145.784 333.618 145.695 333.455C129.276 309.25 97.693 301.894 81.2604 277.705Z" fill="#7DDF96"/>
<path d="M173.709 302.343L146.708 332.33C130.285 308.13 98.7055 300.77 82.273 276.58L109.274 246.593C125.706 270.782 157.286 278.142 173.709 302.343ZM175.734 300.094C159.311 275.893 127.732 268.533 111.299 244.344C110.332 242.923 108.712 242.693 107.582 243.949L80.5808 273.937C80.0228 274.616 79.6908 275.453 79.6311 276.33C79.5715 277.207 79.7871 278.081 80.2479 278.829C96.667 303.034 128.247 310.394 144.669 334.595C145.636 336.015 147.256 336.245 148.386 334.989L175.387 305.002C175.945 304.322 176.277 303.486 176.337 302.608C176.397 301.731 176.181 300.858 175.72 300.109L175.734 300.094Z" fill="#515979"/>
<path d="M151.458 321.695L164.658 307.035C162.347 304.046 162.239 299.665 164.72 296.91C149.833 281.286 128.347 272.983 113.449 257.364C110.972 260.115 106.812 260.211 104.527 257.224L91.3508 271.858C93.6574 274.844 93.7655 279.224 91.2848 281.98C106.176 297.607 127.662 305.91 142.556 321.526C145.003 318.809 149.147 318.706 151.458 321.695Z" fill="#00C853"/>
<path d="M141.072 298.389C134.136 306.092 122.768 308.216 115.396 303.445C108.025 298.674 107.94 288.275 114.92 280.523C121.9 272.771 133.227 270.692 140.588 275.467C147.949 280.242 148.055 290.633 141.072 298.389Z" fill="#7DDF96"/>
<path d="M109.946 276.669C107.797 279.057 104.165 279.487 101.981 277.472C99.7969 275.458 99.9023 271.745 102.052 269.358C104.202 266.97 107.593 266.799 109.781 268.81C111.969 270.82 112.113 274.263 109.946 276.669Z" fill="#7DDF96"/>
<path d="M153.939 309.554C151.786 311.946 148.398 312.113 146.211 310.102C144.023 308.092 143.888 304.638 146.045 302.243C148.202 299.847 151.826 299.425 154.01 301.44C156.195 303.454 156.093 307.163 153.939 309.554Z" fill="#7DDF96"/>
<path d="M919.439 27.5329C919.324 27.1114 919.344 26.6642 919.498 26.2551C919.651 25.8459 919.93 25.4956 920.294 25.2538L954.883 4.4709C955.038 4.3682 955.215 4.30514 955.4 4.28727C955.586 4.2694 955.772 4.29725 955.944 4.36839C956.116 4.43953 956.267 4.55177 956.385 4.69525C956.504 4.83873 956.585 5.00906 956.622 5.19125C965.264 33.1284 993.316 49.3969 1001.94 77.3444C1002.06 77.766 1002.03 78.2128 1001.88 78.6218C1001.73 79.0308 1001.45 79.3812 1001.09 79.6235L966.498 100.406C966.343 100.509 966.165 100.572 965.98 100.59C965.795 100.608 965.608 100.58 965.436 100.509C965.265 100.438 965.113 100.326 964.995 100.182C964.877 100.039 964.795 99.8683 964.759 99.6861C956.134 71.7385 928.081 55.4701 919.439 27.5329Z" fill="#7DDF96"/>
<path d="M1000.64 78.1238L966.056 98.9067C957.426 70.9618 929.378 54.6907 920.736 26.7536L955.325 5.97062C963.967 33.9078 992.015 50.1788 1000.64 78.1238ZM1003.24 76.5651C994.609 48.6201 966.561 32.3491 957.919 4.4119C957.409 2.77037 955.928 2.07754 954.479 2.94783L919.891 23.7308C919.159 24.2173 918.597 24.9203 918.283 25.7416C917.97 26.5629 917.92 27.4616 918.142 28.3123C926.767 56.2598 954.815 72.5309 963.444 100.476C963.954 102.117 965.435 102.81 966.884 101.94L1001.47 81.157C1002.2 80.6705 1002.77 79.9675 1003.08 79.1462C1003.39 78.3249 1003.44 77.4262 1003.22 76.5755L1003.24 76.5651Z" fill="#515979"/>
<path d="M973.707 90.1251L990.617 79.9649C989.282 76.4303 990.459 72.2099 993.637 70.3004C983.968 51.0066 965.849 36.7846 956.169 17.4916C952.995 19.3984 948.989 18.2747 947.677 14.7496L930.798 24.8917C932.131 28.4219 930.954 32.6424 927.776 34.5518C937.447 53.85 955.567 68.072 965.244 87.3606C968.378 85.4772 972.372 86.5906 973.707 90.1251Z" fill="#00C853"/>
<path d="M970.589 64.8004C961.704 70.139 950.212 68.847 944.558 62.1292C938.903 55.4114 941.863 45.4416 950.804 40.0692C959.745 34.6968 971.185 36.02 976.829 42.7387C982.472 49.4574 979.535 59.4254 970.589 64.8004Z" fill="#7DDF96"/>
<path d="M947.174 34.9296C944.42 36.5845 940.822 35.9337 939.322 33.3689C937.822 30.8041 939.009 27.2844 941.763 25.6295C944.517 23.9747 947.81 24.803 949.314 27.3652C950.818 29.9274 949.95 33.2618 947.174 34.9296Z" fill="#7DDF96"/>
<path d="M979.63 79.24C976.872 80.8975 973.583 80.0665 972.079 77.5043C970.575 74.9422 971.456 71.5999 974.219 69.9399C976.982 68.2799 980.571 68.9359 982.071 71.5007C983.571 74.0654 982.389 77.5826 979.63 79.24Z" fill="#7DDF96"/>
<path d="M581.443 270.796C581.045 270.976 580.6 271.026 580.172 270.938C579.744 270.85 579.354 270.63 579.058 270.308L553.12 239.397C552.995 239.26 552.905 239.094 552.858 238.914C552.811 238.734 552.81 238.545 552.853 238.365C552.896 238.184 552.984 238.017 553.107 237.877C553.23 237.738 553.386 237.631 553.56 237.566C579.801 224.66 591.481 194.408 617.735 181.518C618.134 181.339 618.578 181.289 619.006 181.377C619.434 181.465 619.824 181.684 620.12 182.006L646.058 212.917C646.183 213.054 646.273 213.22 646.32 213.4C646.367 213.58 646.368 213.769 646.325 213.949C646.282 214.13 646.194 214.297 646.071 214.437C645.948 214.576 645.792 214.683 645.618 214.748C619.364 227.638 607.684 257.89 581.443 270.796Z" fill="#7DDF96"/>
<path d="M618.708 182.677L644.646 213.588C618.395 226.483 606.712 256.731 580.47 269.637L554.532 238.726C580.774 225.819 592.457 195.571 618.708 182.677ZM616.762 180.358C590.511 193.253 578.828 223.501 552.587 236.407C551.045 237.167 550.593 238.739 551.679 240.033L577.617 270.945C578.212 271.592 578.994 272.037 579.854 272.218C580.715 272.4 581.61 272.308 582.416 271.956C608.67 259.065 620.353 228.817 646.604 215.922C648.145 215.162 648.598 213.59 647.512 212.296L621.574 181.384C620.979 180.737 620.197 180.292 619.336 180.111C618.476 179.93 617.581 180.022 616.775 180.374L616.762 180.358Z" fill="#515979"/>
<path d="M634.775 207.405L622.095 192.293C618.813 194.164 614.46 193.662 612.077 190.822C594.533 203.39 583.321 223.511 565.779 236.09C568.159 238.926 567.676 243.058 564.4 244.906L577.057 259.99C580.336 258.122 584.688 258.624 587.071 261.464C604.619 248.893 615.831 228.772 633.369 216.196C631.018 213.395 631.493 209.276 634.775 207.405Z" fill="#00C853"/>
<path d="M610.25 214.446C616.913 222.386 617.434 233.939 611.684 240.575C605.933 247.211 595.623 245.847 588.918 237.857C582.213 229.866 581.731 218.36 587.484 211.735C593.237 205.109 603.542 206.451 610.25 214.446Z" fill="#7DDF96"/>
<path d="M584.41 242.245C586.475 244.707 586.395 248.362 584.097 250.245C581.798 252.128 578.136 251.506 576.071 249.045C574.005 246.584 574.309 243.202 576.604 241.315C578.899 239.429 582.328 239.765 584.41 242.245Z" fill="#7DDF96"/>
<path d="M623.097 203.257C625.166 205.723 624.86 209.101 622.564 210.987C620.269 212.874 616.83 212.526 614.758 210.057C612.687 207.588 612.773 203.94 615.072 202.058C617.37 200.175 621.029 200.792 623.097 203.257Z" fill="#7DDF96"/>
<path d="M797.026 303.421C796.606 303.303 796.233 303.055 795.961 302.713C795.69 302.37 795.533 301.951 795.513 301.515V261.162C795.505 260.977 795.543 260.792 795.622 260.624C795.702 260.456 795.822 260.311 795.972 260.2C796.121 260.089 796.296 260.017 796.48 259.99C796.663 259.962 796.851 259.98 797.026 260.043C825.424 267.024 853.817 251.357 882.215 258.358C882.635 258.477 883.007 258.725 883.279 259.067C883.551 259.409 883.708 259.828 883.728 260.265V300.617C883.736 300.802 883.699 300.987 883.619 301.155C883.539 301.323 883.419 301.469 883.269 301.579C883.12 301.69 882.946 301.762 882.762 301.789C882.578 301.817 882.39 301.799 882.215 301.737C853.817 294.735 825.424 310.402 797.026 303.421Z" fill="#7DDF96"/>
<path d="M882.215 259.871V300.223C853.817 293.227 825.424 308.889 797.026 301.908V261.556C825.424 268.537 853.817 252.875 882.215 259.871ZM882.215 256.845C853.817 249.849 825.424 265.51 797.026 258.529C795.357 258.121 794 259.034 794 260.724V301.076C794.04 301.954 794.353 302.798 794.896 303.49C795.438 304.181 796.183 304.686 797.026 304.934C825.424 311.936 853.817 296.274 882.215 303.27C883.885 303.678 885.241 302.765 885.241 301.076V260.724C885.202 259.845 884.888 259.001 884.346 258.31C883.803 257.618 883.058 257.113 882.215 256.865V256.845Z" fill="#515979"/>
<path d="M878.629 289.142V269.414C874.911 268.738 871.9 265.556 871.9 261.848C850.382 260.199 828.859 268.406 807.336 266.766C807.336 270.469 804.31 273.323 800.613 272.632V292.324C804.325 293 807.336 296.183 807.336 299.89C828.859 301.54 850.382 293.333 871.9 294.972C871.9 291.316 874.911 288.466 878.629 289.142Z" fill="#00C853"/>
<path d="M855.315 278.771C855.315 289.137 848.289 298.322 839.618 299.709C830.948 301.096 823.926 293.424 823.926 282.993C823.926 272.562 830.953 263.437 839.618 262.06C848.284 260.683 855.315 268.335 855.315 278.771Z" fill="#7DDF96"/>
<path d="M817.651 283.457C817.651 286.67 815.24 289.419 812.269 289.384C809.299 289.348 806.893 286.519 806.893 283.306C806.893 280.093 809.299 277.697 812.269 277.727C815.24 277.757 817.651 280.219 817.651 283.457Z" fill="#7DDF96"/>
<path d="M872.349 278.458C872.349 281.676 869.943 284.067 866.972 284.037C864.001 284.007 861.59 281.53 861.59 278.307C861.59 275.084 864.001 272.345 866.972 272.38C869.943 272.416 872.349 275.24 872.349 278.458Z" fill="#7DDF96"/>
<path d="M310.067 350.235C308.768 349.763 307.711 348.794 307.126 347.541C306.542 346.289 306.48 344.855 306.953 343.557L353.288 216.251C353.761 214.952 354.73 213.895 355.982 213.311C357.235 212.727 358.668 212.664 359.967 213.137L459.293 249.289C460.592 249.761 461.65 250.73 462.234 251.983C462.818 253.235 462.88 254.669 462.408 255.967L421.164 369.283C420.961 369.84 420.545 370.292 420.008 370.542L397.111 381.22C396.574 381.47 395.96 381.498 395.404 381.296L310.067 350.235Z" fill="white"/>
<path d="M458.53 251.387C459.272 251.657 459.876 252.211 460.21 252.927C460.543 253.642 460.579 254.461 460.309 255.203L419.065 368.52L396.168 379.197L310.831 348.137C310.089 347.867 309.484 347.313 309.15 346.597C308.817 345.882 308.781 345.063 309.051 344.321L355.387 217.015C355.657 216.273 356.21 215.668 356.926 215.334C357.642 215.001 358.461 214.965 359.203 215.235L458.53 251.387ZM460.057 247.19L360.73 211.038C358.875 210.363 356.828 210.452 355.039 211.287C353.249 212.121 351.865 213.632 351.19 215.487L304.854 342.793C304.179 344.648 304.268 346.696 305.103 348.485C305.937 350.274 307.448 351.659 309.303 352.334L394.64 383.394C395.753 383.798 396.981 383.743 398.054 383.242L420.952 372.565C422.025 372.065 422.856 371.16 423.262 370.047L464.506 256.731C465.181 254.876 465.092 252.828 464.258 251.039C463.423 249.25 461.912 247.865 460.057 247.19Z" fill="#515979"/>
<path d="M395.404 381.296C395.127 381.197 394.873 381.043 394.658 380.842C394.333 380.544 394.103 380.155 393.999 379.727C393.894 379.298 393.918 378.848 394.069 378.433L398.957 365.003C399.486 363.557 400.566 362.38 401.961 361.73C403.356 361.079 404.952 361.008 406.399 361.533L419.829 366.421C420.244 366.573 420.604 366.843 420.865 367.199C421.126 367.556 421.275 367.981 421.295 368.422C421.314 368.863 421.202 369.3 420.973 369.677C420.744 370.054 420.408 370.356 420.009 370.542L397.111 381.22C396.574 381.47 395.96 381.498 395.404 381.296Z" fill="#D8EBFB"/>
<path d="M419.065 368.52L396.168 379.197L401.056 365.767C401.216 365.326 401.462 364.921 401.779 364.575C402.096 364.229 402.478 363.949 402.903 363.751C403.328 363.552 403.789 363.44 404.257 363.419C404.726 363.399 405.194 363.471 405.635 363.631L419.065 368.52ZM420.593 364.323L407.163 359.435C405.159 358.707 402.949 358.805 401.017 359.706C399.085 360.607 397.59 362.237 396.859 364.239L391.971 377.67C391.669 378.499 391.621 379.4 391.831 380.257C392.041 381.114 392.501 381.89 393.152 382.487C393.803 383.083 394.616 383.473 395.488 383.607C396.361 383.742 397.254 383.615 398.054 383.242L420.952 372.565C421.751 372.191 422.423 371.589 422.88 370.834C423.338 370.08 423.562 369.206 423.524 368.324C423.485 367.442 423.186 366.591 422.665 365.879C422.143 365.167 421.422 364.625 420.593 364.323Z" fill="#515979"/>
<path d="M438.875 264.037C436.834 263.294 435.172 261.771 434.254 259.803C433.336 257.835 433.238 255.583 433.981 253.542L435.254 250.045C435.524 249.303 436.078 248.698 436.793 248.364C437.509 248.031 438.328 247.995 439.07 248.265C439.812 248.535 440.416 249.089 440.75 249.805C441.084 250.52 441.12 251.339 440.85 252.081L439.577 255.579C439.374 256.135 439.401 256.75 439.651 257.286C439.901 257.823 440.355 258.238 440.911 258.441C441.468 258.644 442.082 258.617 442.619 258.366C443.156 258.116 443.571 257.663 443.774 257.106L449.375 241.718C449.577 241.161 449.55 240.547 449.3 240.01C449.05 239.473 448.596 239.058 448.04 238.855C447.483 238.653 446.869 238.68 446.332 238.93C445.796 239.18 445.38 239.634 445.178 240.19L444.159 242.988L438.563 240.951L439.582 238.153C440.324 236.113 441.847 234.451 443.816 233.533C445.784 232.615 448.036 232.517 450.077 233.26C452.117 234.002 453.779 235.525 454.697 237.493C455.615 239.462 455.713 241.714 454.97 243.754L449.369 259.143C448.627 261.184 447.104 262.846 445.136 263.764C443.167 264.681 440.915 264.78 438.875 264.037Z" fill="#CCCCCC"/>
<path d="M449.567 234.659C451.237 235.266 452.597 236.512 453.348 238.123C454.099 239.733 454.179 241.576 453.571 243.245L447.97 258.634C447.363 260.304 446.117 261.663 444.506 262.414C442.896 263.165 441.053 263.246 439.384 262.638C437.714 262.03 436.354 260.784 435.603 259.174C434.852 257.564 434.772 255.721 435.38 254.051L436.653 250.554C436.788 250.183 437.065 249.881 437.422 249.714C437.78 249.547 438.19 249.529 438.561 249.664C438.932 249.799 439.234 250.076 439.401 250.434C439.568 250.792 439.586 251.201 439.451 251.572L438.178 255.07C437.84 255.997 437.885 257.021 438.302 257.916C438.719 258.81 439.474 259.502 440.402 259.84C441.33 260.178 442.353 260.133 443.248 259.716C444.143 259.299 444.835 258.543 445.172 257.616L450.773 242.227C451.111 241.299 451.066 240.276 450.649 239.381C450.232 238.486 449.477 237.794 448.549 237.457C447.621 237.119 446.598 237.164 445.703 237.581C444.808 237.998 444.116 238.753 443.779 239.681L443.269 241.08L440.471 240.062L440.981 238.663C441.588 236.993 442.834 235.633 444.445 234.882C446.055 234.131 447.898 234.051 449.567 234.659V234.659ZM450.586 231.861C448.174 230.983 445.512 231.099 443.186 232.184C440.86 233.268 439.061 235.233 438.183 237.644L436.655 241.841L445.049 244.896L446.577 240.699C446.644 240.514 446.783 240.363 446.961 240.279C447.14 240.196 447.345 240.187 447.531 240.254C447.716 240.322 447.867 240.46 447.951 240.639C448.034 240.818 448.043 241.023 447.976 241.209L442.375 256.597C442.307 256.783 442.169 256.934 441.99 257.017C441.811 257.101 441.606 257.11 441.42 257.042C441.235 256.975 441.084 256.836 441 256.657C440.917 256.478 440.908 256.273 440.976 256.088L442.248 252.591C442.654 251.477 442.6 250.249 442.099 249.175C441.599 248.102 440.692 247.271 439.579 246.866C438.466 246.461 437.238 246.515 436.164 247.015C435.091 247.516 434.26 248.422 433.855 249.535L432.582 253.033C431.704 255.445 431.82 258.106 432.905 260.432C433.989 262.758 435.954 264.558 438.365 265.436C440.777 266.314 443.439 266.197 445.765 265.113C448.091 264.028 449.891 262.064 450.768 259.652L456.369 244.264C457.247 241.852 457.131 239.19 456.046 236.864C454.962 234.538 452.997 232.738 450.586 231.861Z" fill="#515A78"/>
<path d="M379.339 297.026L345.764 284.805C344.605 284.384 343.323 284.981 342.901 286.14C342.48 287.299 343.077 288.58 344.236 289.002L377.811 301.223C378.97 301.644 380.252 301.047 380.673 299.888C381.095 298.729 380.498 297.448 379.339 297.026Z" fill="#515979"/>
<path d="M353.262 303.378L340.672 298.795C339.513 298.373 338.231 298.971 337.81 300.13C337.388 301.289 337.985 302.57 339.144 302.992L351.735 307.575C352.894 307.996 354.175 307.399 354.597 306.24C355.019 305.081 354.421 303.8 353.262 303.378Z" fill="#515979"/>
<path d="M370.683 320.808L337.107 308.588C335.948 308.166 334.667 308.764 334.245 309.922C333.823 311.081 334.421 312.363 335.58 312.785L369.155 325.005C370.314 325.427 371.595 324.829 372.017 323.67C372.439 322.511 371.842 321.23 370.683 320.808Z" fill="#515979"/>
<path d="M361.142 325.257L334.562 315.583C333.403 315.161 332.121 315.758 331.699 316.917C331.277 318.076 331.875 319.358 333.034 319.78L359.614 329.454C360.773 329.876 362.055 329.278 362.477 328.119C362.898 326.96 362.301 325.679 361.142 325.257Z" fill="#515979"/>
<path d="M364.573 337.596L330.997 325.375C329.838 324.954 328.557 325.551 328.135 326.71C327.713 327.869 328.311 329.15 329.47 329.572L363.045 341.793C364.204 342.215 365.485 341.617 365.907 340.458C366.329 339.299 365.731 338.018 364.573 337.596Z" fill="#515979"/>
<path d="M348.037 339.499L328.451 332.37C327.292 331.948 326.011 332.546 325.589 333.705C325.167 334.864 325.765 336.145 326.924 336.567L346.509 343.696C347.668 344.118 348.95 343.52 349.372 342.361C349.793 341.202 349.196 339.921 348.037 339.499Z" fill="#515979"/>
<path d="M369.798 301.475L343.218 291.8C342.059 291.378 340.777 291.976 340.355 293.135C339.934 294.294 340.531 295.575 341.69 295.997L368.27 305.672C369.429 306.093 370.711 305.496 371.133 304.337C371.554 303.178 370.957 301.896 369.798 301.475Z" fill="#515979"/>
<path d="M414.112 342.953L390.33 334.296C389.557 334.015 388.703 334.414 388.422 335.186C388.141 335.959 388.539 336.813 389.312 337.094L413.094 345.75C413.867 346.032 414.721 345.633 415.002 344.861C415.283 344.088 414.885 343.234 414.112 342.953Z" fill="#515979"/>
<path d="M403.502 308.989L396.507 306.443L390.906 321.832L397.901 324.378L403.502 308.989Z" fill="#6ADAF7"/>
<path d="M410.558 317.894L403.563 315.349L399.999 325.141L406.994 327.687L410.558 317.894Z" fill="#F89D81"/>
<path d="M423.216 311.411L416.221 308.866L409.093 328.451L416.087 330.997L423.216 311.411Z" fill="#C7BCFF"/>
<path d="M382.762 335.503C383.921 335.924 385.202 335.327 385.624 334.168C386.046 333.009 385.448 331.727 384.289 331.306C383.13 330.884 381.849 331.481 381.427 332.64C381.005 333.799 381.603 335.081 382.762 335.503Z" fill="#6ADAF7"/>
<path d="M401.583 344.729L388.293 339.892C387.521 339.611 386.666 340.009 386.385 340.782C386.104 341.555 386.502 342.409 387.275 342.69L400.565 347.527C401.338 347.809 402.192 347.41 402.473 346.638C402.754 345.865 402.356 345.011 401.583 344.729Z" fill="#515979"/>
<path d="M380.725 341.098C381.884 341.52 383.165 340.923 383.587 339.764C384.009 338.605 383.411 337.323 382.252 336.902C381.093 336.48 379.812 337.077 379.39 338.236C378.968 339.395 379.566 340.677 380.725 341.098Z" fill="#F89D81"/>
<path d="M395.35 348.798L386.256 345.488C385.484 345.207 384.63 345.605 384.348 346.378C384.067 347.151 384.465 348.005 385.238 348.286L394.331 351.596C395.104 351.877 395.958 351.479 396.24 350.706C396.521 349.933 396.122 349.079 395.35 348.798Z" fill="#515979"/>
<path d="M378.688 346.694C379.847 347.116 381.129 346.518 381.55 345.36C381.972 344.201 381.375 342.919 380.216 342.497C379.057 342.075 377.775 342.673 377.353 343.832C376.932 344.991 377.529 346.272 378.688 346.694Z" fill="#C7BCFF"/>
<path d="M388.372 289.619C384.572 288.23 381.479 285.391 379.769 281.725C378.06 278.059 377.873 273.864 379.251 270.061C379.42 269.597 379.766 269.219 380.214 269.011C380.661 268.802 381.173 268.78 381.637 268.949L406.818 278.114C407.282 278.283 407.659 278.629 407.868 279.076C408.077 279.524 408.099 280.035 407.93 280.499C406.541 284.298 403.702 287.392 400.036 289.102C396.37 290.811 392.175 290.997 388.372 289.619V289.619Z" fill="#515979"/>
<path d="M406.181 279.863C404.966 283.202 402.474 285.922 399.253 287.423C396.033 288.925 392.347 289.086 389.008 287.871C385.669 286.655 382.949 284.163 381.447 280.943C379.946 277.722 379.785 274.037 381 270.697L406.181 279.863ZM407.454 276.365L382.273 267.2C381.345 266.862 380.322 266.907 379.427 267.324C378.532 267.741 377.84 268.497 377.503 269.424C375.933 273.685 376.12 278.395 378.023 282.518C379.926 286.64 383.389 289.838 387.649 291.408C391.91 292.978 396.62 292.791 400.743 290.888C404.865 288.985 408.063 285.522 409.633 281.262L409.679 281.136C410.016 280.208 409.972 279.184 409.555 278.29C409.137 277.395 408.382 276.703 407.454 276.365Z" fill="#515979"/>
<path d="M389.008 287.871C394.181 289.753 399.058 289.401 399.902 287.083C400.745 284.765 397.236 281.36 392.063 279.477C386.89 277.594 382.013 277.947 381.17 280.265C380.326 282.583 383.835 285.988 389.008 287.871Z" fill="#EF7D7D"/>
<path d="M391.168 251.466C390.84 251.346 390.434 251.111 390.073 250.948C389.713 250.785 389.334 250.608 388.978 250.454C388.308 250.166 387.612 249.942 386.9 249.785C386.253 249.634 385.589 249.571 384.925 249.597C384.164 249.636 383.406 249.72 382.655 249.848L382.348 249.887C382.029 249.943 381.701 249.894 381.413 249.746C381.124 249.599 380.892 249.361 380.751 249.07C380.61 248.778 380.568 248.449 380.63 248.131C380.693 247.814 380.858 247.525 381.1 247.31C381.928 246.436 382.979 245.805 384.14 245.486C384.437 245.386 384.745 245.323 385.057 245.296C385.369 245.251 385.683 245.223 385.999 245.211C386.311 245.222 386.624 245.233 386.939 245.261C387.238 245.293 387.534 245.343 387.828 245.41C389.549 245.829 391.108 246.746 392.31 248.047C392.717 248.483 393.073 248.964 393.373 249.48C393.522 249.743 393.587 250.047 393.559 250.348C393.531 250.65 393.412 250.936 393.217 251.169C393.022 251.401 392.761 251.568 392.469 251.648C392.177 251.728 391.867 251.717 391.581 251.616L391.168 251.466Z" fill="#515979"/>
<path d="M389.524 264.69C389.06 264.521 388.682 264.175 388.474 263.728C388.265 263.281 388.243 262.769 388.412 262.305C388.715 261.47 388.675 260.549 388.3 259.744C387.924 258.938 387.244 258.315 386.409 258.012C385.575 257.708 384.653 257.748 383.848 258.123C383.043 258.499 382.42 259.179 382.116 260.014C381.947 260.477 381.601 260.855 381.154 261.064C380.707 261.272 380.195 261.295 379.731 261.126C379.267 260.957 378.889 260.611 378.681 260.164C378.472 259.716 378.45 259.204 378.619 258.741C379.26 256.978 380.575 255.543 382.275 254.75C383.975 253.958 385.92 253.873 387.682 254.514C389.445 255.156 390.88 256.471 391.673 258.171C392.465 259.87 392.55 261.816 391.909 263.578C391.74 264.042 391.394 264.419 390.947 264.628C390.499 264.837 389.988 264.859 389.524 264.69V264.69Z" fill="#515979"/>
<path d="M410.349 255.659C410.908 255.455 411.49 255.318 412.082 255.251C412.645 255.173 413.215 255.152 413.783 255.19C414.977 255.26 416.143 255.572 417.213 256.105C417.49 256.245 417.759 256.401 418.017 256.572C418.276 256.754 418.523 256.946 418.769 257.139C419.003 257.351 419.226 257.574 419.436 257.81C419.658 258.03 419.853 258.277 420.017 258.544C420.701 259.534 421.101 260.694 421.173 261.895C421.218 262.214 421.158 262.539 421.003 262.821C420.847 263.103 420.604 263.327 420.311 263.46C420.017 263.592 419.688 263.626 419.374 263.555C419.06 263.485 418.777 263.315 418.567 263.07L418.35 262.84C417.857 262.259 417.331 261.707 416.773 261.189C416.281 260.742 415.731 260.363 415.138 260.063C414.492 259.726 413.815 259.45 413.117 259.241C412.753 259.108 412.36 259.013 411.96 258.915C411.56 258.816 411.118 258.727 410.789 258.607L410.362 258.452C409.991 258.317 409.689 258.04 409.522 257.682C409.355 257.324 409.337 256.915 409.472 256.544C409.546 256.342 409.662 256.158 409.814 256.005C409.965 255.852 410.148 255.734 410.349 255.659V255.659Z" fill="#515979"/>
<path d="M413.306 273.346C412.842 273.177 412.465 272.831 412.256 272.384C412.047 271.937 412.025 271.425 412.194 270.961C412.498 270.126 412.458 269.205 412.082 268.4C411.707 267.595 411.027 266.971 410.192 266.668C409.357 266.364 408.436 266.404 407.631 266.779C406.825 267.155 406.202 267.835 405.899 268.67C405.73 269.133 405.384 269.511 404.936 269.72C404.489 269.928 403.977 269.951 403.513 269.782C403.05 269.613 402.672 269.267 402.463 268.82C402.255 268.372 402.232 267.86 402.401 267.397C403.043 265.634 404.358 264.199 406.058 263.406C407.757 262.614 409.702 262.529 411.465 263.17C413.227 263.812 414.663 265.127 415.455 266.827C416.248 268.527 416.333 270.472 415.691 272.234C415.523 272.698 415.176 273.075 414.729 273.284C414.282 273.493 413.77 273.515 413.306 273.346V273.346Z" fill="#515979"/>
<path d="M367.203 258.546C368.169 258.898 369.237 258.4 369.588 257.434C369.94 256.468 369.442 255.401 368.476 255.049C367.51 254.698 366.443 255.196 366.091 256.161C365.739 257.127 366.237 258.195 367.203 258.546Z" fill="#FDE1D9"/>
<path d="M368.25 267.641C369.216 267.993 370.284 267.495 370.635 266.529C370.987 265.563 370.489 264.495 369.523 264.144C368.557 263.792 367.489 264.29 367.138 265.256C366.786 266.222 367.284 267.29 368.25 267.641Z" fill="#FDE1D9"/>
<path d="M360.556 264.84C361.521 265.192 362.589 264.694 362.941 263.728C363.292 262.762 362.794 261.695 361.829 261.343C360.863 260.992 359.795 261.49 359.443 262.455C359.092 263.421 359.59 264.489 360.556 264.84Z" fill="#FDE1D9"/>
<path d="M424.561 279.423C425.527 279.774 426.595 279.276 426.946 278.311C427.298 277.345 426.8 276.277 425.834 275.925C424.868 275.574 423.8 276.072 423.449 277.038C423.097 278.003 423.595 279.071 424.561 279.423Z" fill="#FDE1D9"/>
<path d="M425.608 288.518C426.573 288.869 427.641 288.371 427.993 287.405C428.344 286.439 427.846 285.372 426.88 285.02C425.915 284.669 424.847 285.167 424.495 286.132C424.144 287.098 424.642 288.166 425.608 288.518Z" fill="#FDE1D9"/>
<path d="M417.913 285.717C418.879 286.069 419.947 285.571 420.298 284.605C420.65 283.639 420.152 282.571 419.186 282.22C418.22 281.868 417.152 282.366 416.801 283.332C416.449 284.298 416.947 285.366 417.913 285.717Z" fill="#FDE1D9"/>
<path d="M387.79 319.509L383.594 317.982C383.315 317.881 383.089 317.673 382.963 317.405C382.838 317.136 382.825 316.829 382.926 316.551C383.028 316.273 383.235 316.046 383.504 315.921C383.772 315.796 384.079 315.782 384.357 315.883L388.554 317.411C388.833 317.512 389.059 317.72 389.184 317.988C389.309 318.257 389.323 318.564 389.222 318.842C389.12 319.12 388.913 319.347 388.644 319.472C388.376 319.597 388.069 319.611 387.79 319.509Z" fill="#515979"/>
<path d="M390.336 312.515L386.139 310.987C385.861 310.886 385.635 310.678 385.509 310.41C385.384 310.141 385.371 309.834 385.472 309.556C385.573 309.278 385.781 309.051 386.049 308.926C386.318 308.801 386.625 308.787 386.903 308.889L391.1 310.416C391.378 310.518 391.605 310.725 391.73 310.994C391.855 311.262 391.869 311.569 391.767 311.847C391.666 312.126 391.459 312.352 391.19 312.477C390.922 312.603 390.615 312.616 390.336 312.515Z" fill="#515979"/>
<path d="M392.882 305.52L388.685 303.992C388.407 303.891 388.18 303.683 388.055 303.415C387.93 303.147 387.917 302.84 388.018 302.561C388.119 302.283 388.327 302.056 388.595 301.931C388.864 301.806 389.171 301.793 389.449 301.894L393.646 303.421C393.924 303.523 394.151 303.73 394.276 303.999C394.401 304.267 394.415 304.574 394.313 304.853C394.212 305.131 394.004 305.357 393.736 305.483C393.468 305.608 393.161 305.621 392.882 305.52V305.52Z" fill="#515979"/>
<path d="M410.171 336.369C409.893 336.268 409.666 336.06 409.541 335.792C409.416 335.523 409.403 335.216 409.504 334.938L411.032 330.741C411.133 330.463 411.341 330.236 411.609 330.111C411.877 329.986 412.184 329.972 412.463 330.074C412.741 330.175 412.968 330.383 413.093 330.651C413.218 330.92 413.231 331.227 413.13 331.505L411.602 335.702C411.501 335.98 411.294 336.207 411.025 336.332C410.757 336.457 410.45 336.47 410.171 336.369Z" fill="#515979"/>
<path d="M401.078 333.059C400.8 332.958 400.573 332.75 400.448 332.482C400.323 332.214 400.309 331.907 400.411 331.628L401.938 327.431C402.04 327.153 402.247 326.927 402.516 326.801C402.784 326.676 403.091 326.663 403.369 326.764C403.648 326.865 403.874 327.073 403.999 327.341C404.125 327.61 404.138 327.917 404.037 328.195L402.509 332.392C402.408 332.67 402.2 332.897 401.932 333.022C401.663 333.147 401.356 333.161 401.078 333.059Z" fill="#515979"/>
<path d="M391.985 329.75C391.707 329.648 391.48 329.441 391.355 329.172C391.23 328.904 391.216 328.597 391.317 328.319L392.845 324.122C392.946 323.843 393.154 323.617 393.422 323.492C393.691 323.367 393.998 323.353 394.276 323.454C394.554 323.556 394.781 323.763 394.906 324.032C395.031 324.3 395.045 324.607 394.943 324.886L393.416 329.082C393.315 329.361 393.107 329.587 392.839 329.712C392.57 329.838 392.263 329.851 391.985 329.75Z" fill="#515979"/>
<path d="M417.167 334.559L386.39 323.357C386.019 323.222 385.717 322.945 385.55 322.587C385.383 322.229 385.365 321.82 385.5 321.449L393.138 300.464C393.273 300.093 393.55 299.791 393.908 299.624C394.266 299.457 394.675 299.439 395.046 299.574C395.417 299.709 395.72 299.986 395.886 300.344C396.053 300.702 396.071 301.111 395.936 301.482L388.808 321.068L418.186 331.761C418.557 331.896 418.859 332.173 419.026 332.531C419.193 332.888 419.211 333.298 419.076 333.669C418.941 334.04 418.664 334.342 418.306 334.509C417.948 334.676 417.539 334.694 417.167 334.559Z" fill="#515979"/>
<path d="M18.3252 197.104C16.5908 197.102 14.9282 196.411 13.7026 195.184C12.477 193.957 11.7886 192.293 11.7886 190.559V93.3503C11.7886 91.6159 12.477 89.9524 13.7026 88.7252C14.9282 87.4979 16.5908 86.8074 18.3252 86.8051H55.4432C56.5848 86.8079 57.7059 87.1085 58.6958 87.6772C59.6857 88.2458 60.5101 89.0629 61.0876 90.0477L65.7456 98.0168H156.675C157.535 98.0191 158.387 98.1908 159.182 98.5223C159.976 98.8537 160.697 99.3383 161.304 99.9485C161.911 100.559 162.392 101.282 162.719 102.078C163.046 102.874 163.214 103.727 163.211 104.588V190.559C163.211 192.293 162.523 193.957 161.297 195.184C160.072 196.411 158.409 197.102 156.675 197.104H18.3252Z" fill="#FBB040"/>
<path d="M55.4432 89.6102C56.0959 89.6099 56.7372 89.7809 57.3032 90.1061C57.8692 90.4312 58.34 90.8991 58.6686 91.4631L64.1329 100.822H156.675C157.168 100.822 157.657 100.919 158.112 101.109C158.568 101.299 158.981 101.576 159.329 101.926C159.676 102.276 159.951 102.692 160.138 103.149C160.324 103.605 160.418 104.094 160.415 104.588V190.559C160.415 191.549 160.022 192.499 159.322 193.2C158.623 193.902 157.674 194.297 156.683 194.299H18.3252C17.3332 194.299 16.3819 193.905 15.6805 193.203C14.9791 192.502 14.5851 191.551 14.5851 190.559V93.3503C14.5851 92.3598 14.9779 91.4098 15.6775 90.7086C16.377 90.0075 17.3261 89.6124 18.3166 89.6102H55.4432ZM55.4432 84H18.3252C15.8475 84.0045 13.4728 84.9914 11.7216 86.7442C9.97042 88.4969 8.98576 90.8726 8.98349 93.3503V190.559C8.98576 193.036 9.97042 195.412 11.7216 197.165C13.4728 198.918 15.8475 199.904 18.3252 199.909H156.675C159.152 199.904 161.527 198.918 163.278 197.165C165.03 195.412 166.014 193.036 166.016 190.559V104.588C166.014 102.111 165.029 99.7361 163.278 97.9847C161.526 96.2333 159.152 95.2483 156.675 95.2461H67.3497L63.481 88.6408C62.6591 87.2363 61.4859 86.0698 60.0766 85.2561C58.6673 84.4424 57.0705 84.0095 55.4432 84V84Z" fill="#515979"/>
<g style="mix-blend-mode:color-burn" opacity="0.2">
<g style="mix-blend-mode:color-burn" opacity="0.2">
<path d="M160.415 110.172H14.5937V128.864H160.415V110.172Z" fill="#515979"/>
</g>
</g>
<path d="M152.926 106.432H22.0653C21.0325 106.432 20.1953 107.269 20.1953 108.302V132.604C20.1953 133.637 21.0325 134.474 22.0653 134.474H152.926C153.959 134.474 154.796 133.637 154.796 132.604V108.302C154.796 107.269 153.959 106.432 152.926 106.432Z" fill="white"/>
<path d="M152.935 108.302V132.604H22.0653V108.302H152.935ZM152.935 104.562H22.0653C21.0733 104.562 20.122 104.956 19.4206 105.657C18.7192 106.359 18.3252 107.31 18.3252 108.302V132.604C18.3297 133.593 18.7258 134.54 19.4267 135.238C20.1276 135.936 21.0763 136.327 22.0653 136.327H152.935C153.927 136.327 154.878 135.933 155.579 135.232C156.281 134.53 156.675 133.579 156.675 132.587V108.302C156.668 107.315 156.271 106.37 155.57 105.674C154.87 104.978 153.922 104.588 152.935 104.588V104.562Z" fill="#515979"/>
<path d="M152.926 112.042H22.0653V130.734H152.926V112.042Z" fill="#B4ECFB"/>
<path d="M17.3987 202.714C15.945 202.713 14.5484 202.148 13.5022 201.139C12.4561 200.129 11.8418 198.754 11.7886 197.301L2.85007 124.884C2.75145 124.095 2.82189 123.294 3.05671 122.535C3.29152 121.775 3.68533 121.074 4.21195 120.479C4.73858 119.883 5.38595 119.406 6.11104 119.08C6.83613 118.754 7.62232 118.586 8.41734 118.587H166.583C167.378 118.586 168.164 118.754 168.889 119.08C169.614 119.406 170.261 119.883 170.788 120.479C171.315 121.074 171.708 121.775 171.943 122.535C172.178 123.294 172.249 124.095 172.15 124.884L163.211 197.301C163.158 198.754 162.544 200.129 161.498 201.139C160.452 202.148 159.055 202.713 157.601 202.714H17.3987Z" fill="#FFD886"/>
<path d="M166.583 121.392C166.98 121.392 167.374 121.476 167.736 121.639C168.099 121.802 168.423 122.04 168.687 122.338C168.95 122.636 169.148 122.986 169.265 123.366C169.383 123.745 169.419 124.146 169.371 124.541L160.415 197.104C160.415 197.472 160.342 197.837 160.201 198.177C160.06 198.518 159.854 198.827 159.593 199.087C159.333 199.348 159.024 199.554 158.683 199.695C158.343 199.836 157.978 199.909 157.61 199.909H17.3987C17.0297 199.91 16.664 199.838 16.3226 199.698C15.9813 199.557 15.6711 199.351 15.4097 199.09C15.1483 198.83 14.9409 198.52 14.7994 198.179C14.6579 197.838 14.5851 197.473 14.5851 197.104L5.62941 124.541C5.58077 124.146 5.6166 123.745 5.73452 123.366C5.85245 122.986 6.04978 122.636 6.31342 122.338C6.57705 122.04 6.90098 121.802 7.26371 121.639C7.62644 121.476 8.01967 121.392 8.41734 121.392H166.583V121.392ZM166.583 115.782H8.41734C7.22588 115.782 6.04795 116.035 4.96147 116.524C3.87499 117.013 2.90472 117.727 2.11488 118.619C1.32503 119.511 0.733611 120.56 0.37974 121.698C0.0258681 122.836 -0.0823842 124.036 0.0621447 125.218L8.99208 197.533C9.10829 199.685 10.0442 201.711 11.6077 203.195C13.1711 204.678 15.2434 205.507 17.3987 205.511H157.601C159.757 205.507 161.829 204.678 163.392 203.195C164.956 201.711 165.892 199.685 166.008 197.533L174.938 125.218C175.082 124.036 174.974 122.836 174.62 121.698C174.266 120.56 173.675 119.511 172.885 118.619C172.095 117.727 171.125 117.013 170.039 116.524C168.952 116.035 167.774 115.782 166.583 115.782Z" fill="#515979"/>
<path d="M8.41734 125.175H166.583C167.109 125.174 167.625 125.322 168.07 125.603C168.515 125.884 168.871 126.286 169.096 126.762L169.371 124.584C169.419 124.189 169.383 123.788 169.265 123.409C169.148 123.029 168.95 122.678 168.687 122.381C168.423 122.083 168.099 121.845 167.736 121.682C167.374 121.519 166.98 121.435 166.583 121.435H8.41734C8.01968 121.435 7.62644 121.519 7.26371 121.682C6.90099 121.845 6.57706 122.083 6.31342 122.381C6.04978 122.678 5.85245 123.029 5.73453 123.409C5.6166 123.788 5.58077 124.189 5.62942 124.584L5.90392 126.762C6.12883 126.286 6.48468 125.884 6.92981 125.603C7.37494 125.322 7.89092 125.174 8.41734 125.175Z" fill="#FFEBC2"/>
<g style="mix-blend-mode:color-burn" opacity="0.3">
<g style="mix-blend-mode:color-burn" opacity="0.3">
<path d="M158.536 194.299H16.4637C15.9834 194.296 15.5119 194.17 15.0944 193.933C14.6768 193.695 14.3272 193.355 14.079 192.943L14.5937 197.087C14.5937 197.455 14.6662 197.82 14.8072 198.16C14.9481 198.501 15.1548 198.81 15.4152 199.07C15.6757 199.331 15.985 199.537 16.3253 199.678C16.6656 199.819 17.0304 199.892 17.3987 199.892H157.601C157.97 199.892 158.334 199.819 158.675 199.678C159.015 199.537 159.324 199.331 159.585 199.07C159.845 198.81 160.052 198.501 160.193 198.16C160.334 197.82 160.406 197.455 160.406 197.087L160.921 192.943C160.673 193.355 160.323 193.695 159.906 193.933C159.488 194.17 159.017 194.296 158.536 194.299V194.299Z" fill="#515979"/>
</g>
</g>
<path d="M96.0182 138.643C96.577 138.155 97.1901 137.731 97.8453 137.382C98.4802 137.028 99.15 136.741 99.8441 136.525C101.299 136.083 102.83 135.952 104.339 136.138C105.128 136.238 105.903 136.43 106.647 136.713C107.015 136.868 107.367 137.065 107.719 137.245C108.078 137.418 108.416 137.634 108.723 137.888C109.967 138.803 110.935 140.044 111.519 141.474C111.62 141.703 111.675 141.95 111.681 142.201C111.686 142.451 111.642 142.7 111.552 142.934C111.461 143.167 111.325 143.381 111.151 143.561C110.978 143.742 110.771 143.887 110.541 143.988C110.281 144.101 109.999 144.155 109.715 144.145C109.431 144.134 109.154 144.06 108.903 143.928L108.551 143.747C107.723 143.247 106.863 142.8 105.977 142.409C105.214 142.079 104.409 141.856 103.584 141.749C102.683 141.626 101.772 141.592 100.865 141.646C100.376 141.646 99.8698 141.706 99.3551 141.774C98.8404 141.843 98.2742 141.929 97.8453 141.937H97.262C96.8825 141.938 96.5119 141.823 96.1994 141.608C95.8868 141.392 95.6472 141.087 95.5122 140.732C95.3772 140.378 95.3533 139.99 95.4437 139.622C95.5341 139.253 95.7344 138.921 96.0182 138.669V138.643Z" fill="#515979"/>
<path d="M77.1547 141.912C76.7257 141.912 76.1424 141.783 75.6449 141.749C75.1474 141.714 74.6241 141.654 74.1351 141.62C73.2275 141.566 72.3168 141.6 71.4158 141.723C70.5912 141.831 69.7857 142.053 69.0225 142.383C68.137 142.774 67.2774 143.221 66.449 143.722L66.1059 143.902C65.7587 144.079 65.3654 144.146 64.9792 144.093C64.5929 144.04 64.2323 143.869 63.946 143.604C63.6597 143.34 63.4616 142.993 63.3785 142.612C63.2953 142.231 63.3311 141.834 63.481 141.474C64.0699 140.068 65.0308 138.849 66.2603 137.949C66.5673 137.694 66.9044 137.478 67.264 137.305C67.6157 137.125 67.9674 136.928 68.3362 136.773C69.0798 136.491 69.8545 136.298 70.6438 136.199C72.1526 136.012 73.6838 136.143 75.1388 136.585C75.8329 136.801 76.5027 137.088 77.1375 137.442C77.7928 137.791 78.4058 138.215 78.9647 138.703C79.2526 138.953 79.457 139.285 79.5504 139.654C79.6438 140.023 79.6217 140.412 79.487 140.768C79.3524 141.125 79.1116 141.431 78.7973 141.646C78.483 141.861 78.1103 141.975 77.7294 141.972L77.1547 141.912Z" fill="#515979"/>
<path d="M78.1755 157.378C77.5544 157.378 76.9587 157.131 76.5195 156.692C76.0803 156.253 75.8336 155.657 75.8336 155.036C75.8336 154.417 75.5878 153.824 75.1502 153.386C74.7126 152.949 74.1192 152.703 73.5003 152.703C72.8815 152.703 72.288 152.949 71.8505 153.386C71.4129 153.824 71.1671 154.417 71.1671 155.036C71.1864 155.355 71.1403 155.675 71.0315 155.975C70.9228 156.275 70.7537 156.55 70.5348 156.783C70.3158 157.016 70.0516 157.201 69.7583 157.328C69.4651 157.454 69.149 157.52 68.8295 157.52C68.51 157.52 68.1939 157.454 67.9007 157.328C67.6074 157.201 67.3432 157.016 67.1242 156.783C66.9052 156.55 66.7362 156.275 66.6275 155.975C66.5187 155.675 66.4726 155.355 66.4919 155.036C66.4919 153.178 67.2303 151.395 68.5446 150.081C69.859 148.766 71.6416 148.028 73.5003 148.028C75.3591 148.028 77.1417 148.766 78.456 150.081C79.7704 151.395 80.5087 153.178 80.5087 155.036C80.5099 155.343 80.4504 155.648 80.3336 155.932C80.2169 156.216 80.0452 156.474 79.8284 156.692C79.6116 156.909 79.354 157.082 79.0704 157.2C78.7867 157.318 78.4826 157.378 78.1755 157.378Z" fill="#515979"/>
<path d="M106.175 157.378C105.864 157.383 105.556 157.325 105.268 157.21C104.98 157.094 104.718 156.922 104.497 156.704C104.276 156.487 104.1 156.227 103.98 155.94C103.86 155.654 103.799 155.347 103.799 155.036C103.799 154.417 103.553 153.824 103.115 153.386C102.678 152.949 102.084 152.703 101.465 152.703C100.847 152.703 100.253 152.949 99.8155 153.386C99.3779 153.824 99.1321 154.417 99.1321 155.036C99.1514 155.355 99.1053 155.675 98.9966 155.975C98.8878 156.275 98.7188 156.55 98.4998 156.783C98.2809 157.016 98.0166 157.201 97.7233 157.328C97.4301 157.454 97.114 157.52 96.7945 157.52C96.4751 157.52 96.159 157.454 95.8657 157.328C95.5724 157.201 95.3082 157.016 95.0892 156.783C94.8703 156.55 94.7012 156.275 94.5925 155.975C94.4838 155.675 94.4376 155.355 94.457 155.036C94.457 153.178 95.1953 151.395 96.5097 150.081C97.824 148.766 99.6066 148.028 101.465 148.028C103.324 148.028 105.107 148.766 106.421 150.081C107.735 151.395 108.474 153.178 108.474 155.036C108.476 155.651 108.236 156.241 107.806 156.68C107.375 157.118 106.789 157.369 106.175 157.378V157.378Z" fill="#515979"/>
<path d="M87.5 181.217C83.5351 181.21 79.7347 179.632 76.9319 176.827C74.1292 174.023 72.5527 170.222 72.5482 166.257C72.5482 165.762 72.744 165.288 73.0928 164.937C73.4417 164.587 73.9151 164.389 74.4096 164.387H100.59C101.085 164.389 101.558 164.587 101.907 164.937C102.256 165.288 102.452 165.762 102.452 166.257C102.447 170.222 100.871 174.023 98.0681 176.827C95.2653 179.632 91.4649 181.21 87.5 181.217Z" fill="#515979"/>
<path d="M100.59 166.257C100.59 167.976 100.252 169.678 99.5939 171.266C98.9361 172.854 97.9718 174.297 96.7563 175.513C95.5407 176.728 94.0977 177.693 92.5095 178.351C90.9213 179.008 89.219 179.347 87.5 179.347C85.7809 179.347 84.0787 179.008 82.4905 178.351C80.9023 177.693 79.4593 176.728 78.2437 175.513C77.0282 174.297 76.0639 172.854 75.4061 171.266C74.7482 169.678 74.4096 167.976 74.4096 166.257H100.59ZM100.59 162.517H74.4096C73.4192 162.519 72.4701 162.914 71.7705 163.615C71.071 164.316 70.6781 165.266 70.6781 166.257C70.6576 170.718 72.4103 175.005 75.5505 178.174C78.6908 181.343 82.9613 183.135 87.4228 183.156C91.8842 183.176 96.1711 181.424 99.3403 178.283C102.509 175.143 104.301 170.873 104.322 166.411C104.326 166.36 104.326 166.308 104.322 166.257C104.322 165.265 103.928 164.313 103.226 163.612C102.525 162.911 101.574 162.517 100.582 162.517H100.59Z" fill="#515979"/>
<path d="M87.5 179.347C92.8772 179.347 97.2363 177.392 97.2363 174.981C97.2363 172.569 92.8772 170.614 87.5 170.614C82.1228 170.614 77.7637 172.569 77.7637 174.981C77.7637 177.392 82.1228 179.347 87.5 179.347Z" fill="#EF7D7D"/>
<path d="M867.98 283.906C866.684 283.906 865.442 283.391 864.525 282.475C863.609 281.558 863.094 280.316 863.094 279.02V151.98C863.094 150.684 863.609 149.442 864.525 148.525C865.442 147.609 866.684 147.094 867.98 147.094H953.139C953.694 147.095 954.226 147.315 954.618 147.708L971.371 164.461C971.764 164.853 971.985 165.385 971.985 165.941V279.02C971.985 280.316 971.47 281.558 970.554 282.475C969.638 283.391 968.395 283.906 967.099 283.906H867.98Z" fill="white"/>
<path d="M953.139 149.188L969.891 165.941V279.02C969.891 279.76 969.597 280.47 969.073 280.994C968.55 281.518 967.84 281.812 967.099 281.812H867.98C867.24 281.812 866.53 281.518 866.006 280.994C865.482 280.47 865.188 279.76 865.188 279.02V151.98C865.188 151.24 865.482 150.53 866.006 150.006C866.53 149.482 867.24 149.188 867.98 149.188H953.139ZM953.139 145H867.98C866.129 145 864.353 145.735 863.044 147.044C861.735 148.353 861 150.129 861 151.98V279.02C861 280.871 861.735 282.647 863.044 283.956C864.353 285.265 866.129 286 867.98 286H967.099C968.95 286 970.726 285.265 972.035 283.956C973.344 282.647 974.079 280.871 974.079 279.02V165.941C974.078 164.83 973.636 163.766 972.851 162.981L956.098 146.229C955.314 145.443 954.249 145.001 953.139 145V145Z" fill="#515979"/>
<path d="M956.489 168.035C955.046 168.033 953.662 167.459 952.641 166.438C951.621 165.417 951.046 164.034 951.045 162.59V149.188C951.045 148.774 951.167 148.37 951.397 148.026C951.627 147.682 951.954 147.413 952.336 147.255C952.59 147.147 952.863 147.092 953.139 147.094C953.694 147.095 954.226 147.315 954.618 147.708L971.371 164.461C971.663 164.754 971.863 165.127 971.943 165.533C972.024 165.939 971.982 166.359 971.824 166.742C971.666 167.124 971.398 167.451 971.054 167.681C970.709 167.911 970.305 168.034 969.891 168.035H956.489Z" fill="#D8EBFB"/>
<path d="M953.139 149.188L969.891 165.941H956.489C956.049 165.941 955.613 165.854 955.207 165.686C954.8 165.517 954.431 165.27 954.12 164.959C953.809 164.648 953.562 164.279 953.394 163.872C953.225 163.466 953.139 163.03 953.139 162.59V149.188ZM953.139 145C952.028 145 950.963 145.441 950.177 146.227C949.392 147.012 948.95 148.077 948.95 149.188V162.59C948.952 164.589 949.747 166.505 951.16 167.919C952.574 169.332 954.49 170.127 956.489 170.129H969.891C970.719 170.128 971.528 169.882 972.216 169.422C972.904 168.961 973.44 168.308 973.757 167.543C974.074 166.778 974.156 165.936 973.995 165.125C973.834 164.313 973.436 163.567 972.851 162.981L956.098 146.229C955.313 145.443 954.249 145.001 953.139 145V145Z" fill="#515979"/>
<path d="M877.054 246.911L885.542 225.209L891.65 229.384L900.661 220.721L910.608 223.96L918.936 216.896V246.911H877.054Z" fill="#D8F5DF"/>
<path d="M877.054 248.307C876.88 248.308 876.707 248.275 876.545 248.209C876.201 248.074 875.925 247.807 875.777 247.468C875.629 247.129 875.621 246.746 875.756 246.401L884.237 224.7C884.314 224.504 884.435 224.328 884.59 224.186C884.744 224.043 884.929 223.937 885.131 223.876C885.331 223.814 885.544 223.798 885.752 223.83C885.96 223.861 886.158 223.939 886.331 224.058L891.497 227.59L899.698 219.688C899.88 219.513 900.106 219.391 900.352 219.335C900.598 219.278 900.854 219.289 901.094 219.367L910.301 222.362L918.035 215.8C918.175 215.682 918.338 215.592 918.512 215.537C918.687 215.481 918.871 215.461 919.054 215.476C919.237 215.492 919.415 215.543 919.578 215.628C919.741 215.712 919.885 215.827 920.004 215.968C920.122 216.108 920.211 216.27 920.267 216.445C920.323 216.62 920.343 216.804 920.328 216.987C920.312 217.169 920.261 217.347 920.176 217.51C920.092 217.673 919.976 217.818 919.836 217.936L911.516 225.028C911.334 225.181 911.116 225.285 910.883 225.33C910.649 225.375 910.408 225.36 910.183 225.286L901.031 222.313L892.613 230.389C892.382 230.61 892.082 230.746 891.763 230.772C891.444 230.799 891.126 230.715 890.861 230.535L886.199 227.366L878.353 247.42C878.25 247.681 878.072 247.906 877.84 248.064C877.609 248.222 877.335 248.307 877.054 248.307Z" fill="#7DDF96"/>
<path d="M877.054 246.911L885.305 233.439L889.807 236.168L896.013 230.096L900.724 233.572L906.944 227.003L912.702 228.846L918.936 223.876V246.911H877.054Z" fill="#FFF8E2"/>
<path d="M877.055 248.307C876.808 248.302 876.567 248.232 876.357 248.105C876.2 248.009 876.063 247.884 875.955 247.736C875.846 247.588 875.768 247.42 875.725 247.242C875.681 247.063 875.673 246.878 875.702 246.697C875.73 246.516 875.793 246.342 875.889 246.185L884.146 232.713C884.339 232.398 884.648 232.172 885.006 232.085C885.365 231.997 885.743 232.055 886.059 232.245L889.619 234.416L895.049 229.097C895.287 228.865 895.599 228.724 895.93 228.701C896.262 228.678 896.59 228.774 896.857 228.972L900.571 231.715L905.946 226.047C906.126 225.856 906.357 225.721 906.611 225.655C906.866 225.59 907.133 225.597 907.384 225.677L912.43 227.29L918.077 222.787C918.219 222.666 918.385 222.574 918.563 222.518C918.741 222.462 918.929 222.442 919.115 222.459C919.301 222.477 919.482 222.532 919.647 222.62C919.811 222.709 919.956 222.83 920.073 222.976C920.19 223.122 920.277 223.29 920.327 223.47C920.378 223.65 920.392 223.838 920.369 224.024C920.345 224.209 920.285 224.388 920.191 224.55C920.097 224.712 919.972 224.853 919.822 224.965L913.589 229.935C913.409 230.08 913.197 230.178 912.97 230.221C912.744 230.263 912.51 230.249 912.291 230.179L907.404 228.602L901.82 234.535C901.586 234.782 901.269 234.935 900.929 234.964C900.59 234.994 900.251 234.898 899.978 234.696L896.222 231.903L890.785 237.139C890.563 237.356 890.275 237.493 889.967 237.529C889.658 237.564 889.347 237.496 889.081 237.334L885.773 235.331L878.248 247.616C878.126 247.825 877.952 247.998 877.743 248.119C877.533 248.24 877.296 248.305 877.055 248.307V248.307Z" fill="#FFE8A0"/>
<path d="M941.97 248.307C939.209 248.307 936.51 247.488 934.214 245.954C931.919 244.42 930.129 242.24 929.073 239.689C928.016 237.138 927.739 234.331 928.278 231.623C928.817 228.915 930.146 226.427 932.099 224.475C934.051 222.523 936.539 221.193 939.247 220.654C941.955 220.116 944.762 220.392 947.313 221.449C949.864 222.505 952.044 224.295 953.578 226.591C955.112 228.886 955.931 231.585 955.931 234.347C955.931 238.049 954.46 241.6 951.842 244.218C949.224 246.836 945.673 248.307 941.97 248.307V248.307ZM941.97 224.574C940.038 224.574 938.148 225.147 936.541 226.221C934.934 227.295 933.682 228.821 932.942 230.607C932.202 232.392 932.009 234.357 932.386 236.253C932.763 238.149 933.694 239.89 935.06 241.257C936.427 242.623 938.168 243.554 940.064 243.931C941.959 244.308 943.924 244.115 945.71 243.375C947.496 242.635 949.022 241.383 950.096 239.776C951.169 238.169 951.743 236.279 951.743 234.347C951.743 231.755 950.713 229.269 948.88 227.436C947.048 225.604 944.562 224.574 941.97 224.574Z" fill="#515979"/>
<path d="M953.837 244.119L948.455 239.665C949.691 238.17 950.361 236.287 950.347 234.347H957.327C957.333 237.91 956.099 241.365 953.837 244.119Z" fill="#EF7D7D"/>
<path d="M957.327 234.347H950.346C950.345 232.591 949.788 230.88 948.755 229.46L954.402 225.356C956.304 227.968 957.328 231.116 957.327 234.347V234.347Z" fill="#FFE8A0"/>
<path d="M948.755 229.46C947.981 228.383 946.963 227.505 945.783 226.898C944.604 226.291 943.297 225.973 941.97 225.97V218.99C944.395 218.994 946.785 219.57 948.945 220.671C951.105 221.772 952.975 223.368 954.402 225.328L948.755 229.46Z" fill="#7DDF96"/>
<path d="M877.054 244.468H872.866C872.589 244.468 872.322 244.358 872.126 244.161C871.93 243.965 871.819 243.698 871.819 243.421C871.819 243.143 871.93 242.877 872.126 242.68C872.322 242.484 872.589 242.374 872.866 242.374H877.054C877.332 242.374 877.598 242.484 877.795 242.68C877.991 242.877 878.102 243.143 878.102 243.421C878.102 243.698 877.991 243.965 877.795 244.161C877.598 244.358 877.332 244.468 877.054 244.468Z" fill="#515979"/>
<path d="M877.054 237.488H872.866C872.589 237.488 872.322 237.377 872.126 237.181C871.93 236.985 871.819 236.718 871.819 236.441C871.819 236.163 871.93 235.897 872.126 235.7C872.322 235.504 872.589 235.394 872.866 235.394H877.054C877.332 235.394 877.598 235.504 877.795 235.7C877.991 235.897 878.102 236.163 878.102 236.441C878.102 236.718 877.991 236.985 877.795 237.181C877.598 237.377 877.332 237.488 877.054 237.488Z" fill="#515979"/>
<path d="M877.054 230.507H872.866C872.589 230.507 872.322 230.397 872.126 230.201C871.93 230.004 871.819 229.738 871.819 229.46C871.819 229.183 871.93 228.916 872.126 228.72C872.322 228.524 872.589 228.413 872.866 228.413H877.054C877.332 228.413 877.598 228.524 877.795 228.72C877.991 228.916 878.102 229.183 878.102 229.46C878.102 229.738 877.991 230.004 877.795 230.201C877.598 230.397 877.332 230.507 877.054 230.507V230.507Z" fill="#515979"/>
<path d="M877.054 223.527H872.866C872.589 223.527 872.322 223.417 872.126 223.221C871.93 223.024 871.819 222.758 871.819 222.48C871.819 222.203 871.93 221.936 872.126 221.74C872.322 221.543 872.589 221.433 872.866 221.433H877.054C877.332 221.433 877.598 221.543 877.795 221.74C877.991 221.936 878.102 222.203 878.102 222.48C878.102 222.758 877.991 223.024 877.795 223.221C877.598 223.417 877.332 223.527 877.054 223.527Z" fill="#515979"/>
<path d="M908.465 252.146C908.188 252.146 907.921 252.036 907.725 251.839C907.529 251.643 907.418 251.377 907.418 251.099V246.911C907.418 246.633 907.529 246.367 907.725 246.171C907.921 245.974 908.188 245.864 908.465 245.864C908.743 245.864 909.009 245.974 909.206 246.171C909.402 246.367 909.512 246.633 909.512 246.911V251.099C909.512 251.377 909.402 251.643 909.206 251.839C909.009 252.036 908.743 252.146 908.465 252.146Z" fill="#515979"/>
<path d="M915.446 252.146C915.168 252.146 914.902 252.036 914.705 251.839C914.509 251.643 914.399 251.377 914.399 251.099V246.911C914.399 246.633 914.509 246.367 914.705 246.171C914.902 245.974 915.168 245.864 915.446 245.864C915.723 245.864 915.99 245.974 916.186 246.171C916.382 246.367 916.493 246.633 916.493 246.911V251.099C916.493 251.377 916.382 251.643 916.186 251.839C915.99 252.036 915.723 252.146 915.446 252.146Z" fill="#515979"/>
<path d="M901.485 252.146C901.207 252.146 900.941 252.036 900.745 251.839C900.548 251.643 900.438 251.377 900.438 251.099V246.911C900.438 246.633 900.548 246.367 900.745 246.171C900.941 245.974 901.207 245.864 901.485 245.864C901.763 245.864 902.029 245.974 902.226 246.171C902.422 246.367 902.532 246.633 902.532 246.911V251.099C902.532 251.377 902.422 251.643 902.226 251.839C902.029 252.036 901.763 252.146 901.485 252.146Z" fill="#515979"/>
<path d="M894.505 252.146C894.227 252.146 893.961 252.036 893.765 251.839C893.568 251.643 893.458 251.377 893.458 251.099V246.911C893.458 246.633 893.568 246.367 893.765 246.171C893.961 245.974 894.227 245.864 894.505 245.864C894.783 245.864 895.049 245.974 895.245 246.171C895.442 246.367 895.552 246.633 895.552 246.911V251.099C895.552 251.377 895.442 251.643 895.245 251.839C895.049 252.036 894.783 252.146 894.505 252.146Z" fill="#515979"/>
<path d="M887.525 252.146C887.247 252.146 886.981 252.036 886.784 251.839C886.588 251.643 886.478 251.377 886.478 251.099V246.911C886.478 246.633 886.588 246.367 886.784 246.171C886.981 245.974 887.247 245.864 887.525 245.864C887.803 245.864 888.069 245.974 888.265 246.171C888.462 246.367 888.572 246.633 888.572 246.911V251.099C888.572 251.377 888.462 251.643 888.265 251.839C888.069 252.036 887.803 252.146 887.525 252.146Z" fill="#515979"/>
<path d="M880.545 252.146C880.267 252.146 880.001 252.036 879.804 251.839C879.608 251.643 879.498 251.377 879.498 251.099V246.911C879.498 246.633 879.608 246.367 879.804 246.171C880.001 245.974 880.267 245.864 880.545 245.864C880.822 245.864 881.089 245.974 881.285 246.171C881.481 246.367 881.592 246.633 881.592 246.911V251.099C881.592 251.377 881.481 251.643 881.285 251.839C881.089 252.036 880.822 252.146 880.545 252.146V252.146Z" fill="#515979"/>
<path d="M877.054 246.911L883.909 239.728L889.109 243.149L894.617 237.076L900.026 241.948L905.799 235.135L911.209 239.98L918.936 231.554V246.911H877.054Z" fill="#FAD8D8"/>
<path d="M877.054 248.307C876.781 248.307 876.514 248.227 876.285 248.077C876.057 247.927 875.878 247.713 875.77 247.461C875.662 247.21 875.63 246.933 875.679 246.664C875.727 246.394 875.854 246.146 876.042 245.948L882.904 238.758C883.129 238.523 883.43 238.374 883.754 238.337C884.078 238.3 884.404 238.377 884.677 238.556L888.865 241.348L893.57 236.161C893.817 235.887 894.163 235.722 894.532 235.702C894.901 235.683 895.263 235.81 895.538 236.057L899.873 239.966L904.717 234.249C904.838 234.107 904.986 233.991 905.153 233.907C905.319 233.823 905.501 233.774 905.687 233.761C905.873 233.749 906.06 233.774 906.236 233.835C906.412 233.896 906.575 233.991 906.713 234.116L911.097 238.039L917.896 230.633C918.152 230.388 918.492 230.249 918.846 230.246C919.201 230.242 919.544 230.374 919.805 230.613C920.066 230.853 920.226 231.184 920.253 231.537C920.279 231.891 920.17 232.242 919.948 232.518L912.235 240.922C911.986 241.193 911.641 241.356 911.274 241.374C910.907 241.392 910.547 241.265 910.273 241.02L905.938 237.139L901.087 242.855C900.967 242.999 900.819 243.117 900.652 243.202C900.486 243.287 900.304 243.338 900.117 243.351C899.931 243.363 899.744 243.338 899.568 243.277C899.392 243.216 899.23 243.12 899.091 242.995L894.714 239.051L890.142 244.119C889.918 244.365 889.613 244.522 889.283 244.563C888.953 244.604 888.619 244.526 888.341 244.342L884.118 241.55L878.067 247.895C877.934 248.028 877.776 248.133 877.602 248.204C877.429 248.275 877.242 248.31 877.054 248.307V248.307Z" fill="#EF7D7D"/>
<path d="M918.936 248.307H877.054C876.684 248.307 876.329 248.16 876.067 247.898C875.806 247.636 875.658 247.281 875.658 246.911V218.99C875.658 218.62 875.806 218.265 876.067 218.003C876.329 217.741 876.684 217.594 877.054 217.594C877.425 217.594 877.78 217.741 878.042 218.003C878.303 218.265 878.451 218.62 878.451 218.99V245.515H918.936C919.306 245.515 919.661 245.662 919.923 245.924C920.185 246.186 920.332 246.541 920.332 246.911C920.332 247.281 920.185 247.636 919.923 247.898C919.661 248.16 919.306 248.307 918.936 248.307Z" fill="#515979"/>
<path d="M909.163 258.079H884.035C883.264 258.079 882.639 258.704 882.639 259.475C882.639 260.246 883.264 260.871 884.035 260.871H909.163C909.934 260.871 910.559 260.246 910.559 259.475C910.559 258.704 909.934 258.079 909.163 258.079Z" fill="#515979"/>
<path d="M877.753 261.569C878.909 261.569 879.847 260.632 879.847 259.475C879.847 258.319 878.909 257.381 877.753 257.381C876.596 257.381 875.658 258.319 875.658 259.475C875.658 260.632 876.596 261.569 877.753 261.569Z" fill="#7DDF96"/>
<path d="M895.203 263.663H884.035C883.264 263.663 882.639 264.288 882.639 265.059C882.639 265.83 883.264 266.455 884.035 266.455H895.203C895.974 266.455 896.599 265.83 896.599 265.059C896.599 264.288 895.974 263.663 895.203 263.663Z" fill="#515979"/>
<path d="M877.753 267.153C878.909 267.153 879.847 266.216 879.847 265.059C879.847 263.903 878.909 262.965 877.753 262.965C876.596 262.965 875.658 263.903 875.658 265.059C875.658 266.216 876.596 267.153 877.753 267.153Z" fill="#FFE8A0"/>
<path d="M902.183 269.248H884.035C883.264 269.248 882.639 269.873 882.639 270.644C882.639 271.415 883.264 272.04 884.035 272.04H902.183C902.954 272.04 903.579 271.415 903.579 270.644C903.579 269.873 902.954 269.248 902.183 269.248Z" fill="#515979"/>
<path d="M877.753 272.738C878.909 272.738 879.847 271.8 879.847 270.644C879.847 269.487 878.909 268.549 877.753 268.549C876.596 268.549 875.658 269.487 875.658 270.644C875.658 271.8 876.596 272.738 877.753 272.738Z" fill="#EF7D7D"/>
<path d="M955.931 258.079H934.99C934.219 258.079 933.594 258.704 933.594 259.475C933.594 260.246 934.219 260.871 934.99 260.871H955.931C956.702 260.871 957.327 260.246 957.327 259.475C957.327 258.704 956.702 258.079 955.931 258.079Z" fill="#515979"/>
<path d="M928.708 261.569C929.864 261.569 930.802 260.632 930.802 259.475C930.802 258.319 929.864 257.381 928.708 257.381C927.551 257.381 926.614 258.319 926.614 259.475C926.614 260.632 927.551 261.569 928.708 261.569Z" fill="#7DDF96"/>
<path d="M948.951 263.663H934.99C934.219 263.663 933.594 264.288 933.594 265.059C933.594 265.83 934.219 266.455 934.99 266.455H948.951C949.722 266.455 950.347 265.83 950.347 265.059C950.347 264.288 949.722 263.663 948.951 263.663Z" fill="#515979"/>
<path d="M928.708 267.153C929.864 267.153 930.802 266.216 930.802 265.059C930.802 263.903 929.864 262.965 928.708 262.965C927.551 262.965 926.614 263.903 926.614 265.059C926.614 266.216 927.551 267.153 928.708 267.153Z" fill="#FFE8A0"/>
<path d="M944.762 269.248H934.99C934.219 269.248 933.594 269.873 933.594 270.644C933.594 271.415 934.219 272.04 934.99 272.04H944.762C945.533 272.04 946.158 271.415 946.158 270.644C946.158 269.873 945.533 269.248 944.762 269.248Z" fill="#515979"/>
<path d="M928.708 272.738C929.864 272.738 930.802 271.8 930.802 270.644C930.802 269.487 929.864 268.549 928.708 268.549C927.551 268.549 926.614 269.487 926.614 270.644C926.614 271.8 927.551 272.738 928.708 272.738Z" fill="#EF7D7D"/>
<path d="M932.547 187.3C932.304 187.304 932.064 187.246 931.849 187.132C931.069 186.784 930.225 186.604 929.371 186.604C928.517 186.604 927.673 186.784 926.893 187.132C926.567 187.308 926.185 187.348 925.83 187.242C925.475 187.136 925.177 186.893 925.001 186.567C924.826 186.241 924.786 185.859 924.892 185.504C924.998 185.149 925.241 184.851 925.567 184.675C926.755 184.11 928.055 183.817 929.371 183.817C930.687 183.817 931.987 184.11 933.175 184.675C933.452 184.824 933.67 185.062 933.794 185.35C933.919 185.638 933.943 185.96 933.862 186.263C933.781 186.567 933.601 186.834 933.35 187.022C933.098 187.21 932.791 187.308 932.477 187.3H932.547Z" fill="#515979"/>
<path d="M929.406 185.38C932.49 185.38 934.99 182.88 934.99 179.796C934.99 176.712 932.49 174.212 929.406 174.212C926.322 174.212 923.822 176.712 923.822 179.796C923.822 182.88 926.322 185.38 929.406 185.38Z" fill="#515979"/>
<path d="M930.802 181.192C931.573 181.192 932.198 180.567 932.198 179.796C932.198 179.025 931.573 178.4 930.802 178.4C930.031 178.4 929.406 179.025 929.406 179.796C929.406 180.567 930.031 181.192 930.802 181.192Z" fill="white"/>
<path d="M925.316 168.405C925.743 168.046 926.212 167.739 926.712 167.49C927.183 167.24 927.679 167.039 928.191 166.89C929.265 166.57 930.393 166.47 931.507 166.597C931.796 166.631 932.083 166.682 932.366 166.75C932.652 166.827 932.931 166.918 933.21 167.009C933.484 167.12 933.752 167.246 934.013 167.385C934.279 167.509 934.53 167.664 934.76 167.846C935.68 168.5 936.405 169.393 936.854 170.429C936.996 170.696 937.047 171.001 937 171.299C936.954 171.598 936.812 171.873 936.595 172.084C936.379 172.295 936.1 172.43 935.801 172.469C935.501 172.507 935.197 172.448 934.934 172.3L934.669 172.167C934.049 171.812 933.408 171.495 932.749 171.218C932.173 170.981 931.567 170.824 930.949 170.75C930.271 170.66 929.586 170.634 928.903 170.673C928.54 170.673 928.163 170.715 927.78 170.757C927.396 170.799 926.977 170.862 926.649 170.862H926.223C925.853 170.862 925.498 170.715 925.236 170.453C924.974 170.191 924.827 169.836 924.827 169.466C924.827 169.264 924.871 169.065 924.955 168.882C925.039 168.698 925.162 168.536 925.316 168.405V168.405Z" fill="#515979"/>
<path d="M908.814 187.3C908.571 187.306 908.33 187.248 908.116 187.132C907.335 186.784 906.49 186.604 905.635 186.604C904.78 186.604 903.934 186.784 903.153 187.132C902.83 187.287 902.459 187.31 902.118 187.199C901.778 187.087 901.493 186.848 901.323 186.532C901.154 186.216 901.112 185.847 901.207 185.502C901.302 185.156 901.527 184.86 901.834 184.675C903.021 184.11 904.32 183.817 905.635 183.817C906.95 183.817 908.248 184.11 909.436 184.675C909.708 184.823 909.925 185.057 910.05 185.341C910.175 185.624 910.202 185.942 910.127 186.243C910.052 186.543 909.878 186.811 909.634 187.002C909.39 187.194 909.09 187.298 908.779 187.3H908.814Z" fill="#515979"/>
<path d="M905.673 185.38C908.757 185.38 911.257 182.88 911.257 179.796C911.257 176.712 908.757 174.212 905.673 174.212C902.589 174.212 900.089 176.712 900.089 179.796C900.089 182.88 902.589 185.38 905.673 185.38Z" fill="#515979"/>
<path d="M907.069 181.192C907.84 181.192 908.465 180.567 908.465 179.796C908.465 179.025 907.84 178.4 907.069 178.4C906.298 178.4 905.673 179.025 905.673 179.796C905.673 180.567 906.298 181.192 907.069 181.192Z" fill="white"/>
<path d="M908.465 170.862C908.137 170.862 907.705 170.785 907.335 170.757C906.965 170.729 906.574 170.694 906.211 170.673C905.528 170.634 904.843 170.66 904.166 170.75C903.547 170.824 902.941 170.981 902.365 171.218C901.706 171.495 901.065 171.812 900.445 172.167L900.187 172.3C900.02 172.386 899.838 172.438 899.651 172.453C899.464 172.467 899.275 172.444 899.098 172.384C898.92 172.324 898.756 172.228 898.615 172.104C898.475 171.979 898.361 171.827 898.281 171.657C898.192 171.465 898.146 171.255 898.146 171.043C898.146 170.831 898.192 170.621 898.281 170.429C898.73 169.393 899.455 168.5 900.375 167.846C900.605 167.664 900.856 167.509 901.122 167.385C901.383 167.246 901.651 167.12 901.925 167.009C902.204 166.918 902.483 166.827 902.77 166.75C903.036 166.684 903.307 166.633 903.579 166.597C904.693 166.47 905.821 166.57 906.895 166.89C907.407 167.039 907.903 167.24 908.375 167.49C908.875 167.739 909.343 168.046 909.771 168.405C909.987 168.589 910.141 168.836 910.213 169.11C910.286 169.385 910.273 169.676 910.175 169.943C910.078 170.21 909.902 170.441 909.67 170.605C909.438 170.769 909.161 170.859 908.877 170.862H908.465Z" fill="#515979"/>
<path d="M917.54 207.473C913.746 207.467 910.11 205.958 907.427 203.276C904.745 200.593 903.236 196.957 903.23 193.163C903.23 192.701 903.414 192.257 903.741 191.929C904.069 191.602 904.512 191.418 904.975 191.418H930.104C930.567 191.418 931.011 191.602 931.338 191.929C931.665 192.257 931.849 192.701 931.849 193.163C931.843 196.957 930.334 200.593 927.652 203.276C924.969 205.958 921.333 207.467 917.54 207.473Z" fill="#515979"/>
<path d="M930.104 193.163C930.104 196.496 928.78 199.691 926.424 202.048C924.068 204.404 920.872 205.728 917.54 205.728C914.207 205.728 911.012 204.404 908.655 202.048C906.299 199.691 904.975 196.496 904.975 193.163H930.104ZM930.104 189.673H904.975C904.05 189.673 903.162 190.041 902.507 190.696C901.853 191.35 901.485 192.238 901.485 193.163C901.477 195.272 901.884 197.361 902.683 199.312C903.482 201.263 904.658 203.037 906.143 204.534C909.142 207.557 913.219 209.264 917.477 209.281C921.735 209.297 925.825 207.622 928.847 204.623C931.87 201.624 933.577 197.547 933.594 193.289V193.163C933.594 192.238 933.226 191.35 932.572 190.696C931.917 190.041 931.03 189.673 930.104 189.673Z" fill="#515979"/>
<path d="M917.54 205.728C922.702 205.728 926.886 203.853 926.886 201.54C926.886 199.227 922.702 197.352 917.54 197.352C912.378 197.352 908.193 199.227 908.193 201.54C908.193 203.853 912.378 205.728 917.54 205.728Z" fill="#EF7D7D"/>
<path d="M888.921 188.975C889.885 188.975 890.666 188.194 890.666 187.23C890.666 186.266 889.885 185.485 888.921 185.485C887.957 185.485 887.176 186.266 887.176 187.23C887.176 188.194 887.957 188.975 888.921 188.975Z" fill="#FDE1D9"/>
<path d="M892.76 196.653C893.724 196.653 894.505 195.872 894.505 194.908C894.505 193.945 893.724 193.163 892.76 193.163C891.796 193.163 891.015 193.945 891.015 194.908C891.015 195.872 891.796 196.653 892.76 196.653Z" fill="#FDE1D9"/>
<path d="M885.082 196.653C886.045 196.653 886.827 195.872 886.827 194.908C886.827 193.945 886.045 193.163 885.082 193.163C884.118 193.163 883.337 193.945 883.337 194.908C883.337 195.872 884.118 196.653 885.082 196.653Z" fill="#FDE1D9"/>
<path d="M946.158 188.975C947.122 188.975 947.903 188.194 947.903 187.23C947.903 186.266 947.122 185.485 946.158 185.485C945.195 185.485 944.413 186.266 944.413 187.23C944.413 188.194 945.195 188.975 946.158 188.975Z" fill="#FDE1D9"/>
<path d="M949.997 196.653C950.961 196.653 951.743 195.872 951.743 194.908C951.743 193.945 950.961 193.163 949.997 193.163C949.034 193.163 948.252 193.945 948.252 194.908C948.252 195.872 949.034 196.653 949.997 196.653Z" fill="#FDE1D9"/>
<path d="M942.319 196.653C943.283 196.653 944.064 195.872 944.064 194.908C944.064 193.945 943.283 193.163 942.319 193.163C941.356 193.163 940.574 193.945 940.574 194.908C940.574 195.872 941.356 196.653 942.319 196.653Z" fill="#FDE1D9"/>
</svg>
