<svg width="260" height="260" fill="none" xmlns="http://www.w3.org/2000/svg"><path d="M32.933 183.239a2.602 2.602 0 0 1-2.6-2.6V87.906a2.6 2.6 0 0 1 2.522-2.6l83.278-2.6a2.601 2.601 0 0 1 2.6 2.6v95.333c0 .69-.274 1.351-.761 1.839a2.603 2.603 0 0 1-1.839.761h-83.2z" fill="#EF7D7D"/><path d="M116.133 85.306v95.333h-83.2V87.906l83.2-2.6zm0-5.2h-.164l-83.2 2.6a5.2 5.2 0 0 0-5.036 5.2v92.733a5.2 5.2 0 0 0 5.2 5.2h83.2a5.2 5.2 0 0 0 5.2-5.2V85.306a5.2 5.2 0 0 0-5.2-5.2z" fill="#515979"/><path d="M138.667 183.239c-.69 0-1.351-.274-1.839-.761a2.603 2.603 0 0 1-.761-1.839V85.306a2.602 2.602 0 0 1 2.6-2.6l83.278 2.6a2.601 2.601 0 0 1 2.522 2.6v92.733a2.6 2.6 0 0 1-2.6 2.6h-83.2z" fill="#EF7D7D"/><path d="m138.667 85.306 83.2 2.6v92.733h-83.2V85.306zm0-5.2a5.2 5.2 0 0 0-5.2 5.2v95.333a5.2 5.2 0 0 0 5.2 5.2h83.2a5.202 5.202 0 0 0 5.2-5.2V87.906a5.203 5.203 0 0 0-5.036-5.2l-83.2-2.6h-.164z" fill="#515979"/><path d="M127.4 185.961a38.378 38.378 0 0 1-12.081-1.994 2.6 2.6 0 0 1-1.786-2.461v-96.2a2.599 2.599 0 0 1 2.6-2.6h22.534a2.599 2.599 0 0 1 2.6 2.6v96.2a2.6 2.6 0 0 1-1.786 2.461 38.378 38.378 0 0 1-12.081 1.994z" fill="#D26E78"/><path d="M138.667 85.306v96.2a35.149 35.149 0 0 1-22.534 0v-96.2h22.534zm0-5.2h-22.534a5.202 5.202 0 0 0-5.2 5.2v96.2a5.203 5.203 0 0 0 3.571 4.931 40.211 40.211 0 0 0 25.792 0 5.199 5.199 0 0 0 3.571-4.931v-96.2a5.2 5.2 0 0 0-5.2-5.2z" fill="#515979"/><path d="M138.667 77.506h-22.534a2.6 2.6 0 0 0-2.6 2.6v5.2a2.6 2.6 0 0 0 2.6 2.6h22.534a2.6 2.6 0 0 0 2.6-2.6v-5.2a2.6 2.6 0 0 0-2.6-2.6z" fill="#D26E78"/><path d="M138.667 80.106v5.2h-22.534v-5.2h22.534zm0-5.2h-22.534a5.202 5.202 0 0 0-5.2 5.2v5.2a5.2 5.2 0 0 0 5.2 5.2h22.534a5.202 5.202 0 0 0 5.2-5.2v-5.2a5.2 5.2 0 0 0-5.2-5.2z" fill="#515979"/><path d="M213.2 71.44h-74.533A13.869 13.869 0 0 0 124.8 85.305v86.667a5.2 5.2 0 0 0 5.2 5.2h83.2a5.2 5.2 0 0 0 5.2-5.2V76.639a5.2 5.2 0 0 0-5.2-5.2z" fill="#515979"/><path d="M130 85.306v87.395a8.584 8.584 0 0 1 3.467-.728H213.2V76.639h-74.533A8.669 8.669 0 0 0 130 85.306z" fill="#C3DEFF"/><path d="M204.533 62.773h-65.866A13.869 13.869 0 0 0 124.8 76.639v95.334h5.2a3.469 3.469 0 0 1 3.467-3.467h71.066a5.199 5.199 0 0 0 5.2-5.2V67.973a5.196 5.196 0 0 0-5.2-5.2z" fill="#515979"/><path d="M130 76.64v87.394a8.584 8.584 0 0 1 3.467-.728h71.066V67.973h-65.866A8.669 8.669 0 0 0 130 76.639z" fill="#C3DEFF"/><path d="M41.6 71.44h74.533A13.869 13.869 0 0 1 130 85.305v86.667a5.2 5.2 0 0 1-5.2 5.2H41.6a5.2 5.2 0 0 1-5.2-5.2V76.639a5.2 5.2 0 0 1 5.2-5.2z" fill="#515979"/><path d="M124.8 85.306v87.395a8.587 8.587 0 0 0-3.467-.728H41.6V76.639h74.533a8.669 8.669 0 0 1 8.667 8.667z" fill="#C3DEFF"/><path d="M50.267 62.773h65.866A13.869 13.869 0 0 1 130 76.639v95.334h-5.2a3.469 3.469 0 0 0-3.467-3.467H50.267a5.2 5.2 0 0 1-5.2-5.2V67.973a5.2 5.2 0 0 1 5.2-5.2z" fill="#515979"/><path d="M124.8 76.64v87.394a8.587 8.587 0 0 0-3.467-.728H50.267V67.973h65.866a8.669 8.669 0 0 1 8.667 8.666z" fill="#C3DEFF"/><path d="M130 125.173h-5.2v52h5.2v-52z" fill="#515979"/><path d="M58.933 54.106h57.2A13.869 13.869 0 0 1 130 67.973v95.333h-5.2a3.467 3.467 0 0 0-3.467-3.467h-62.4a5.2 5.2 0 0 1-5.2-5.2V59.306a5.2 5.2 0 0 1 5.2-5.2z" fill="#515979"/><path d="M116.133 59.306a8.669 8.669 0 0 1 8.667 8.667v87.394a8.617 8.617 0 0 0-3.467-.728h-62.4V59.306h57.2z" fill="#E8F3FD"/><path d="M116.133 59.306h-57.2v95.333h62.4c1.194 0 2.375.248 3.467.728V67.973a8.668 8.668 0 0 0-8.667-8.667z" fill="#E8F3FD"/><path d="M116.133 59.306h-57.2v3.467h57.2a8.669 8.669 0 0 1 8.667 8.666v-3.466a8.668 8.668 0 0 0-8.667-8.667z" fill="#FBFDFF"/><path d="M116.133 76.64H67.6a1.733 1.733 0 1 1 0-3.467h48.533a1.734 1.734 0 1 1 0 3.466zM116.133 83.573H67.6a1.734 1.734 0 0 1 0-3.467h48.533a1.733 1.733 0 1 1 0 3.467zM116.133 90.506H67.6a1.733 1.733 0 1 1 0-3.467h48.533a1.734 1.734 0 1 1 0 3.467zM116.133 97.44H67.6a1.734 1.734 0 0 1 0-3.467h48.533a1.733 1.733 0 1 1 0 3.466zM98.8 104.373H67.6a1.734 1.734 0 0 1 0-3.467h31.2a1.735 1.735 0 0 1 1.226 2.959 1.735 1.735 0 0 1-1.226.508zM116.133 114.773H67.6a1.734 1.734 0 0 1 0-3.467h48.533a1.734 1.734 0 0 1 0 3.467zM116.133 121.706H67.6a1.734 1.734 0 0 1 0-3.467h48.533a1.734 1.734 0 0 1 0 3.467zM116.133 128.639H67.6a1.733 1.733 0 1 1 0-3.466h48.533a1.733 1.733 0 1 1 0 3.466zM116.133 135.573H67.6a1.734 1.734 0 0 1 0-3.467h48.533a1.734 1.734 0 1 1 0 3.467zM98.8 142.506H67.6a1.734 1.734 0 0 1 0-3.467h31.2a1.735 1.735 0 0 1 1.226 2.959 1.735 1.735 0 0 1-1.226.508zM195.867 54.106h-57.2A13.869 13.869 0 0 0 124.8 67.973v95.333h5.2a3.467 3.467 0 0 1 3.467-3.467h62.4a5.2 5.2 0 0 0 5.2-5.2V59.306a5.2 5.2 0 0 0-5.2-5.2z" fill="#515979"/><path d="M138.667 59.306A8.669 8.669 0 0 0 130 67.973v87.394a8.617 8.617 0 0 1 3.467-.728h62.4V59.306h-57.2z" fill="#E8F3FD"/><path d="M138.667 59.306A8.669 8.669 0 0 0 130 67.973v3.466a8.668 8.668 0 0 1 8.667-8.666h57.2v-3.467h-57.2z" fill="#FBFDFF"/><path d="M187.2 76.64h-48.533a1.733 1.733 0 1 1 0-3.467H187.2a1.736 1.736 0 0 1 1.733 1.733 1.733 1.733 0 0 1-1.733 1.733zM187.2 83.573h-48.533a1.734 1.734 0 1 1 0-3.467H187.2a1.735 1.735 0 0 1 1.733 1.733 1.733 1.733 0 0 1-1.733 1.734zM187.2 90.506h-48.533a1.733 1.733 0 1 1 0-3.467H187.2a1.736 1.736 0 0 1 1.733 1.734 1.733 1.733 0 0 1-1.733 1.733zM187.2 97.44h-48.533a1.734 1.734 0 1 1 0-3.467H187.2a1.735 1.735 0 0 1 1.733 1.733 1.733 1.733 0 0 1-1.733 1.733zM169.867 104.373h-31.2a1.734 1.734 0 0 1 0-3.467h31.2a1.734 1.734 0 0 1 0 3.467zM187.2 114.773h-48.533a1.734 1.734 0 0 1 0-3.467H187.2a1.736 1.736 0 0 1 1.733 1.733 1.733 1.733 0 0 1-1.733 1.734zM187.2 121.706h-48.533a1.734 1.734 0 0 1 0-3.467H187.2a1.736 1.736 0 0 1 1.733 1.734 1.733 1.733 0 0 1-1.733 1.733zM187.2 128.639h-48.533a1.733 1.733 0 1 1 0-3.466H187.2a1.735 1.735 0 0 1 1.733 1.733 1.733 1.733 0 0 1-1.733 1.733zM187.2 135.573h-48.533a1.734 1.734 0 0 1 0-3.467H187.2a1.732 1.732 0 0 1 1.733 1.733 1.733 1.733 0 0 1-1.733 1.734zM169.867 142.506h-31.2a1.734 1.734 0 0 1 0-3.467h31.2a1.734 1.734 0 0 1 0 3.467z" fill="#515979"/><path d="M193.267 191.143c-.69 0-1.351-.274-1.839-.761a2.603 2.603 0 0 1-.761-1.839c0-9.334-3.996-14.369-8.624-20.193-5.295-6.682-11.31-14.257-11.31-29.207a37.266 37.266 0 0 1 74.534 0c0 14.95-6.015 22.534-11.31 29.207-4.628 5.824-8.624 10.859-8.624 20.193 0 .69-.274 1.351-.761 1.839a2.603 2.603 0 0 1-1.839.761h-29.466z" fill="#FFE8A0"/><path d="M208 104.477a34.667 34.667 0 0 1 34.667 34.666c0 26.676-19.934 27.734-19.934 49.4h-29.466c0-21.666-19.934-22.724-19.934-49.4A34.67 34.67 0 0 1 208 104.477zm0-5.2a39.919 39.919 0 0 0-39.867 39.866c0 15.852 6.587 24.154 11.874 30.819 4.506 5.677 8.06 10.149 8.06 18.581a5.197 5.197 0 0 0 5.2 5.2h29.466a5.2 5.2 0 0 0 5.2-5.2c0-8.432 3.553-12.904 8.06-18.581 5.287-6.665 11.874-14.967 11.874-30.819A39.92 39.92 0 0 0 208 99.277z" fill="#515979"/><path d="M208.225 156.511a18.35 18.35 0 0 1-9.828-2.851 1.739 1.739 0 0 1 1.872-2.929c4.767 3.042 11.267 3.059 15.375 0a1.725 1.725 0 0 1 1.925-.081 1.74 1.74 0 0 1 .782 1.071 1.73 1.73 0 0 1-.661 1.809 15.994 15.994 0 0 1-9.465 2.981zM213.737 130.503a8.401 8.401 0 0 1 4.192-1.718 8.406 8.406 0 0 1 4.475.704c1.404.65 3.796 2.6 2.054 4.064a1.672 1.672 0 0 1-1.482.182 19.92 19.92 0 0 0-3.831-.676c-1.447-.112-3.068.096-4.533 0a1.458 1.458 0 0 1-1.332-1 1.469 1.469 0 0 1 .466-1.6l-.009.044zM201.067 133.111a23.283 23.283 0 0 0-8.009.624 1.539 1.539 0 0 1-1.79-.495 1.541 1.541 0 0 1-.281-.597 1.442 1.442 0 0 1 .252-1.152 5.98 5.98 0 0 1 2.391-2.002 8.255 8.255 0 0 1 6.015-.364c1.343.424 4.152 1.594 2.878 3.466a1.673 1.673 0 0 1-.66.459c-.253.096-.527.129-.796.096v-.035zM202.8 145.713a2.167 2.167 0 0 1-2.167-2.167 1.297 1.297 0 0 0-1.3-1.3 1.3 1.3 0 0 0-1.3 1.3 2.166 2.166 0 1 1-4.333 0 5.63 5.63 0 0 1 5.633-5.633 5.634 5.634 0 0 1 5.634 5.633 2.167 2.167 0 0 1-2.167 2.167zM220.133 145.713a2.17 2.17 0 0 1-2.166-2.167 1.297 1.297 0 0 0-1.3-1.3 1.297 1.297 0 0 0-1.3 1.3 2.167 2.167 0 0 1-4.334 0 5.634 5.634 0 0 1 11.267 0 2.167 2.167 0 0 1-2.167 2.167z" fill="#515979"/><path d="M231.4 130.156a2.6 2.6 0 0 1-2.392-1.586 21.818 21.818 0 0 0-20.141-13.303 2.6 2.6 0 1 1 0-5.2 26.991 26.991 0 0 1 24.925 16.518 2.603 2.603 0 0 1-1.378 3.406 2.598 2.598 0 0 1-1.014.165z" fill="#FFF3CF"/><path d="M201.933 187.677a1.734 1.734 0 0 1-1.673-1.266l-6.066-21.666a1.737 1.737 0 0 1 3.345-.936l6.067 21.666a1.729 1.729 0 0 1-.289 1.517 1.738 1.738 0 0 1-1.384.685zM214.066 187.677a1.74 1.74 0 0 1-1.383-.685 1.731 1.731 0 0 1-.289-1.517l6.066-21.666a1.738 1.738 0 0 1 3.346.936l-6.067 21.666a1.734 1.734 0 0 1-1.673 1.266z" fill="#515979"/><path d="M213.2 171.21a1.729 1.729 0 0 1-1.109-.399L208 167.405l-4.091 3.406a1.731 1.731 0 0 1-2.149.052l-6.933-5.2a1.712 1.712 0 0 1-.676-1.141 1.73 1.73 0 0 1 1.471-1.961 1.725 1.725 0 0 1 1.285.329l5.833 4.333 4.151-3.466a1.73 1.73 0 0 1 2.218 0l4.152 3.466 5.832-4.333a1.733 1.733 0 0 1 2.081 2.773l-6.934 5.2c-.3.225-.665.347-1.04.347z" fill="#515979"/><path d="M205.287 220.61a4.333 4.333 0 0 1-4.142-3.068l-2.089-5.599h17.888l-2.089 5.599a4.334 4.334 0 0 1-4.142 3.068h-5.426z" fill="#75A5C3"/><path d="m213.2 214.543-.815 2.184a1.73 1.73 0 0 1-1.672 1.283h-5.426a1.728 1.728 0 0 1-1.672-1.283l-.815-2.184h10.4zm7.488-5.2h-25.376l2.6 7.02.754 2.02a6.93 6.93 0 0 0 6.604 4.827h5.425a6.928 6.928 0 0 0 6.604-4.827l.754-2.02 2.6-7.02h.035z" fill="#515979"/><path d="M196.733 211.943a6.063 6.063 0 0 1-4.289-1.777 6.063 6.063 0 0 1-1.777-4.289v-19.934h34.666v19.934a6.063 6.063 0 0 1-1.777 4.289 6.063 6.063 0 0 1-4.289 1.777h-22.534z" fill="#BAD2E1"/><path d="M222.733 188.543v17.334a3.467 3.467 0 0 1-3.466 3.466h-22.534a3.467 3.467 0 0 1-3.466-3.466v-17.334h29.466zm5.2-5.2h-39.866v22.534a8.667 8.667 0 0 0 8.666 8.666h22.534a8.667 8.667 0 0 0 8.666-8.666v-22.534z" fill="#515979"/><path d="M190.667 198.943a2.602 2.602 0 0 1-2.061-4.346 2.606 2.606 0 0 1 1.801-.854l34.666-3.466a2.613 2.613 0 1 1 .52 5.2l-34.667 3.466h-.259zM190.667 207.61a2.607 2.607 0 0 1-1.877-.67 2.599 2.599 0 0 1-.853-1.8 2.606 2.606 0 0 1 2.47-2.73l34.666-3.467a2.613 2.613 0 0 1 .52 5.2l-34.667 3.467h-.259z" fill="#515979"/></svg>