<?xml version="1.0" encoding="UTF-8"?>
<svg xmlns="http://www.w3.org/2000/svg" version="1.1" id="artwork" x="0" y="0" viewBox="0 0 1351 343" style="enable-background:new 0 0 1351 343" xml:space="preserve">
  <style>.st0{fill:#dc646e}.st1{fill:#515979}.st2{fill:#ef7d7d}.st3{fill:#fff}.st4{fill:#ffd886}.st5{fill:#9e8271}.st6{fill:#7ddf96}.st7{fill:#50c864}.st8{fill:none;stroke:#515979;stroke-width:4;stroke-linecap:round;stroke-linejoin:round;stroke-miterlimit:10}</style>
  <path class="st0" d="M104.5 261c-1.7 0-3-1.3-3-3V153c0-1.7 1.3-3 3-3h15c22.3 0 40.5 24.9 40.5 55.5S141.8 261 119.5 261h-15z"></path>
  <path class="st1" d="M119.5 153c20.7 0 37.5 23.5 37.5 52.5S140.2 258 119.5 258h-15V153h15m0-6h-15c-3.3 0-6 2.7-6 6v105c0 3.3 2.7 6 6 6h15c12 0 23.2-6.3 31.4-17.9 7.8-10.9 12.1-25.4 12.1-40.6s-4.3-29.7-12.1-40.6c-8.2-11.5-19.4-17.9-31.4-17.9z"></path>
  <ellipse class="st2" cx="104.5" cy="205.5" rx="40.5" ry="55.5"></ellipse>
  <path class="st1" d="M104.5 153c20.7 0 37.5 23.5 37.5 52.5S125.2 258 104.5 258 67 234.5 67 205.5 83.8 153 104.5 153m0-6c-12 0-23.2 6.4-31.4 17.9-7.8 10.9-12.1 25.3-12.1 40.6s4.3 29.7 12.1 40.6c8.2 11.5 19.4 17.9 31.4 17.9s23.2-6.3 31.4-17.9c7.8-10.9 12.1-25.4 12.1-40.6s-4.3-29.7-12.1-40.6c-8.2-11.5-19.4-17.9-31.4-17.9z"></path>
  <ellipse class="st3" cx="102.5" cy="205.5" rx="29.5" ry="41.5"></ellipse>
  <ellipse class="st2" cx="102.5" cy="205.5" rx="21" ry="31.5"></ellipse>
  <ellipse class="st3" cx="102.5" cy="205.5" rx="13.5" ry="22.5"></ellipse>
  <ellipse class="st2" cx="102.5" cy="205.5" rx="5.5" ry="12"></ellipse>
  <path class="st4" d="M37.5 202.8c-1.1 0-2.1-.6-2.7-1.6l-4.5-8.5c-.5-.9-.5-2 .1-3s1.5-1.5 2.6-1.5h18c1.1 0 2.1.6 2.7 1.6l4.5 8.5c.5.9.5 2-.1 3-.5.9-1.5 1.5-2.6 1.5h-18z"></path>
  <path class="st1" d="m51 191.2 4.5 8.5h-18l-4.5-8.5h18m0-6H33c-2.1 0-4.1 1.1-5.1 2.9-1.1 1.8-1.2 4-.2 5.9l4.5 8.5c1 2 3.1 3.2 5.3 3.2h18c2.1 0 4.1-1.1 5.1-2.9 1.1-1.8 1.2-4 .2-5.9l-4.5-8.5c-1-1.9-3.1-3.1-5.3-3.2z"></path>
  <path class="st4" d="M33 222.8c-1.1 0-2-.5-2.6-1.5s-.6-2-.1-3l4.5-8.5c.5-1 1.5-1.6 2.7-1.6h18c1.1 0 2 .5 2.6 1.5s.6 2 .1 3l-4.5 8.5c-.5 1-1.5 1.6-2.7 1.6H33z"></path>
  <path class="st1" d="m55.5 211.2-4.5 8.5H33l4.5-8.5h18m0-6h-18c-2.2 0-4.3 1.2-5.3 3.2l-4.5 8.5c-1 1.9-.9 4.1.2 5.9 1.1 1.8 3 2.9 5.1 2.9h18c2.2 0 4.3-1.2 5.3-3.2l4.5-8.5c1.6-2.9.4-6.6-2.5-8.1-.9-.4-1.8-.6-2.8-.7z"></path>
  <path class="st5" d="M34.5 210c-1.7 0-3-1.3-3-3v-3c0-1.7 1.3-3 3-3H100c2.5 0 4.5 2 4.5 4.5s-2 4.5-4.5 4.5H34.5z"></path>
  <path class="st1" d="M100 204c.8 0 1.5.7 1.5 1.5s-.7 1.5-1.5 1.5H34.5v-3H100m0-6H34.5c-3.3 0-6 2.7-6 6v3c0 3.3 2.7 6 6 6H100c4.1 0 7.5-3.4 7.5-7.5s-3.4-7.5-7.5-7.5z"></path>
  <path class="st0" d="M1239.5 251c1.7 0 3-1.3 3-3V143c0-1.7-1.3-3-3-3h-15c-22.3 0-40.5 24.9-40.5 55.5s18.2 55.5 40.5 55.5h15z"></path>
  <path class="st1" d="M1224.5 143h15v105h-15c-20.7 0-37.5-23.5-37.5-52.5s16.8-52.5 37.5-52.5m0-6c-12 0-23.2 6.4-31.4 17.9-7.8 10.9-12.1 25.4-12.1 40.6s4.3 29.7 12.1 40.6c8.2 11.5 19.4 17.9 31.4 17.9h15c3.3 0 6-2.7 6-6V143c0-3.3-2.7-6-6-6h-15z"></path>
  <ellipse class="st2" cx="1239.5" cy="195.5" rx="40.5" ry="55.5"></ellipse>
  <path class="st1" d="M1239.5 143c20.7 0 37.5 23.5 37.5 52.5s-16.8 52.5-37.5 52.5-37.5-23.5-37.5-52.5 16.8-52.5 37.5-52.5m0-6c-12 0-23.2 6.4-31.4 17.9-7.8 10.9-12.1 25.4-12.1 40.6s4.3 29.7 12.1 40.6c8.2 11.5 19.4 17.9 31.4 17.9s23.2-6.3 31.4-17.9c7.8-10.9 12.1-25.4 12.1-40.6s-4.3-29.7-12.1-40.6c-8.2-11.5-19.4-17.9-31.4-17.9z"></path>
  <ellipse class="st3" cx="1241.5" cy="195.5" rx="29.5" ry="41.5"></ellipse>
  <ellipse class="st2" cx="1241.5" cy="195.5" rx="21" ry="31.5"></ellipse>
  <ellipse class="st3" cx="1241.5" cy="195.5" rx="13.5" ry="22.5"></ellipse>
  <ellipse class="st2" cx="1241.5" cy="195.5" rx="5.5" ry="12"></ellipse>
  <path class="st4" d="M1306.5 192.8c1.1 0 2.1-.6 2.7-1.6l4.5-8.5c.5-.9.5-2-.1-3-.5-.9-1.5-1.5-2.6-1.5h-18c-1.1 0-2.1.6-2.7 1.6l-4.5 8.5c-.5.9-.5 2 .1 3s1.5 1.5 2.6 1.5h18z"></path>
  <path class="st1" d="M1293 181.2h18l-4.5 8.5h-18l4.5-8.5m0-6c-2.2 0-4.3 1.2-5.3 3.2l-4.5 8.5c-1 1.9-.9 4.1.2 5.9s3 2.9 5.1 2.9h18c2.2 0 4.3-1.2 5.3-3.2l4.5-8.5c1-1.9.9-4.1-.2-5.9-1.1-1.8-3-2.9-5.1-2.9h-18z"></path>
  <path class="st4" d="M1311 212.8c1.1 0 2-.5 2.6-1.5s.6-2 .1-3l-4.5-8.5c-.5-1-1.5-1.6-2.7-1.6h-18c-1.1 0-2 .5-2.6 1.5s-.6 2-.1 3l4.5 8.5c.5 1 1.5 1.6 2.7 1.6h18z"></path>
  <path class="st1" d="M1288.5 201.2h18l4.5 8.5h-18l-4.5-8.5m0-6c-2.1 0-4.1 1.1-5.1 2.9s-1.2 4-.2 5.9l4.5 8.5c1 2 3.1 3.2 5.3 3.2h18c2.1 0 4.1-1.1 5.1-2.9 1.1-1.8 1.2-4 .2-5.9l-4.5-8.5c-1-2-3.1-3.2-5.3-3.2h-18z"></path>
  <path class="st5" d="M1309.5 200c1.7 0 3-1.3 3-3v-3c0-1.7-1.3-3-3-3H1244c-2.5 0-4.5 2-4.5 4.5s2 4.5 4.5 4.5h65.5z"></path>
  <path class="st1" d="M1244 194h65.5v3H1244c-.8 0-1.5-.7-1.5-1.5s.7-1.5 1.5-1.5m0-6c-4.1 0-7.5 3.4-7.5 7.5s3.4 7.5 7.5 7.5h65.5c3.3 0 6-2.7 6-6v-3c0-3.3-2.7-6-6-6H1244z"></path>
  <path class="st6" d="M1005.1 299.8c-8 0-15.2-.9-21.9-2.8-1.3-.4-2.2-1.5-2.2-2.9v-47.4c0-.9.4-1.8 1.2-2.4.5-.4 1.2-.6 1.8-.6.3 0 .6 0 .8.1 6.2 1.8 12.8 2.6 20.3 2.6 9.4 0 19.1-1.4 28.4-2.7 9.6-1.4 19.5-2.8 29.3-2.8 8 0 15.2.9 21.9 2.8 1.3.4 2.2 1.5 2.2 2.9V294c0 .9-.4 1.8-1.2 2.4-.5.4-1.2.6-1.8.6-.3 0-.6 0-.8-.1-6.2-1.8-12.8-2.6-20.3-2.6-9.4 0-19.1 1.4-28.4 2.7-9.5 1.4-19.4 2.8-29.3 2.8z"></path>
  <path class="st1" d="M1062.9 244c7.1 0 14.1.7 21.1 2.7v47.4c-7-2-14.1-2.7-21.1-2.7-19.2 0-38.5 5.5-57.7 5.5-7.1 0-14.1-.7-21.1-2.7v-47.4c7 2 14.1 2.7 21.1 2.7 19.2 0 38.4-5.5 57.7-5.5m0-6c-10.1 0-20.1 1.4-29.7 2.8-9.7 1.4-18.8 2.7-28 2.7-7.2 0-13.6-.8-19.5-2.5-.5-.1-1.1-.2-1.6-.2-1.3 0-2.6.4-3.6 1.2-1.5 1.1-2.4 2.9-2.4 4.8v47.4c0 2.7 1.8 5 4.4 5.8 7 2 14.5 3 22.8 3 10.1 0 20-1.4 29.7-2.8s18.8-2.7 28-2.7c7.2 0 13.6.8 19.5 2.5.5.2 1.1.2 1.6.2 1.3 0 2.6-.4 3.6-1.2 1.5-1.1 2.4-2.9 2.4-4.8v-47.4c0-2.7-1.8-5-4.4-5.8-7.1-2-14.5-3-22.8-3z"></path>
  <path class="st7" d="M1015.6 272.7c0-8.4 3.9-16.1 9.7-20.5-9.7 1.3-19.5 2.1-29.2 1.1 0 4.3-3.5 7.6-7.9 6.7v23c4.4.9 7.9 4.8 7.9 9.1 9.7 1 19.4.2 29.2-1.1-5.8-2.9-9.7-9.9-9.7-18.3zm-13.7 7.2c-3.5-.1-6.3-3.5-6.3-7.3s2.8-6.5 6.3-6.4c3.5.1 6.3 3.1 6.3 6.8s-2.8 7.1-6.3 6.9zm70-31.2c-9.7-1-19.4-.2-29.2 1.1 5.8 3 9.7 10 9.7 18.4 0 8.4-3.9 16.1-9.7 20.5 9.7-1.3 19.4-2.1 29.2-1.1 0-4.3 3.5-7.6 7.9-6.7v-23.2c-4.4-.9-7.9-4.7-7.9-9zm-5.8 25.9c-3.5-.1-6.3-3.1-6.3-6.8 0-3.8 2.8-7 6.3-6.8 3.5.1 6.3 3.5 6.3 7.3 0 3.7-2.8 6.4-6.3 6.3zm-28.8-1.4c0-1.2-1.2-1.4-3.5-1.3-4.1.1-7.4-.3-7.7-5.2 0-3.2 2-5.6 5.7-6.7v-2.3l4.5-.6v2.3c2.4.1 4.1 1.1 5.2 3.2.1.1.1.1.1.2l.3.6c-1.5.8-2.9 1.7-4.4 2.6l-.4-.8c-.6-1.1-1.4-1.5-3-1.3-2.1.3-3 .9-3 2.2 0 1.1 1.3 1.3 3.6 1.3 4-.2 7.6.3 7.6 5.2 0 3.2-2.1 5.7-5.8 6.9v2.4l-4.5.6v-2.3c-2.9 0-4.9-1.2-5.8-3.6l-.3-.9c1.5-.7 3-1.5 4.5-2.2.1.3.2.5.4.8.5 1.2 1.6 1.6 3.3 1.4 2.1-.4 3.2-1.2 3.2-2.5z"></path>
  <path class="st6" d="M448.1 219.8c-8 0-15.2-.9-22-2.9-1.3-.4-2.2-1.5-2.2-2.9v-47.4c0-.9.4-1.8 1.2-2.4.5-.4 1.2-.6 1.8-.6.3 0 .5 0 .8.1 6.2 1.8 12.9 2.6 20.3 2.6 9.4 0 19.1-1.4 28.5-2.7 9.6-1.4 19.5-2.8 29.3-2.8 8 0 15.2.9 22 2.9 1.3.4 2.2 1.5 2.2 2.9V214c0 .9-.4 1.8-1.2 2.4-.5.4-1.2.6-1.8.6-.3 0-.5 0-.8-.1-6.2-1.8-12.8-2.6-20.3-2.6-9.4 0-19.1 1.4-28.5 2.7-9.5 1.4-19.4 2.8-29.3 2.8z"></path>
  <path class="st1" d="M505.9 164c7 0 14.1.7 21.1 2.7v47.4c-7-2-14.1-2.7-21.1-2.7-19.2 0-38.5 5.5-57.7 5.5-7 0-14.1-.7-21.1-2.7v-47.4c7 2 14.1 2.7 21.1 2.7 19.2 0 38.4-5.5 57.7-5.5m0-6c-10 0-20 1.4-29.7 2.8s-18.8 2.7-28 2.7c-7.2 0-13.6-.8-19.5-2.5-.5-.1-1.1-.2-1.6-.2-1.3 0-2.6.4-3.6 1.2-1.5 1.1-2.4 2.9-2.4 4.8v47.4c0 2.7 1.8 5 4.4 5.8 7 2 14.5 3 22.8 3 10 0 20-1.4 29.7-2.8s18.8-2.7 28-2.7c7.2 0 13.6.8 19.5 2.5.5.1 1.1.2 1.6.2 1.3 0 2.6-.4 3.6-1.2 1.5-1.1 2.4-2.9 2.4-4.8v-47.4c0-2.7-1.8-5-4.4-5.8-7.1-2-14.5-3-22.8-3z"></path>
  <path class="st7" d="M458.6 192.7c0-8.4 3.9-16.1 9.7-20.5-9.7 1.3-19.5 2.1-29.2 1.1 0 4.4-3.5 7.6-7.9 6.6V203c4.4.9 7.9 4.8 7.9 9.1 9.7 1 19.5.2 29.2-1.1-5.8-2.9-9.7-9.9-9.7-18.3zm-13.7 7.2c-3.5-.1-6.3-3.5-6.3-7.3s2.8-6.5 6.3-6.4c3.5.1 6.3 3.1 6.3 6.9s-2.8 7-6.3 6.8zm70-31.3c-9.7-1-19.5-.2-29.2 1.1 5.8 3 9.7 10 9.7 18.4 0 8.4-3.9 16.1-9.7 20.5 9.7-1.3 19.5-2.1 29.2-1.1 0-4.4 3.5-7.6 7.9-6.6v-23.2c-4.4-.8-7.9-4.7-7.9-9.1zm-5.8 26c-3.5-.1-6.3-3.1-6.3-6.9 0-3.8 2.8-7 6.3-6.8 3.5.1 6.3 3.5 6.3 7.3s-2.8 6.5-6.3 6.4zm-28.8-1.4c0-1.2-1.2-1.4-3.5-1.3-4.1.1-7.4-.3-7.7-5.2 0-3.1 2-5.6 5.7-6.7v-2.3l4.5-.6v2.3c2.4.1 4.1 1.1 5.2 3.2.1.1.1.1.1.2l.3.6c-1.5.9-2.9 1.7-4.4 2.6l-.5-.8c-.6-1.1-1.4-1.5-3-1.3-2.1.3-3 .9-3 2.2 0 1.1 1.3 1.4 3.6 1.3 4-.1 7.6.3 7.6 5.2 0 3.2-2.1 5.7-5.8 6.9v2.4l-4.5.6v-2.3c-2.9 0-4.9-1.2-5.8-3.6l-.3-.9c1.5-.7 3-1.5 4.5-2.2.1.3.2.5.4.8.5 1.2 1.6 1.6 3.3 1.4 2.1-.4 3.3-1.2 3.3-2.5z"></path>
  <path class="st6" d="M178.1 99.8c-8 0-15.2-.9-21.9-2.9-1.3-.4-2.2-1.5-2.2-2.9V46.7c0-.9.4-1.8 1.2-2.4.5-.4 1.2-.6 1.8-.6.3 0 .6 0 .8.1 6.2 1.8 12.9 2.6 20.3 2.6 9.4 0 19.1-1.4 28.4-2.7 9.6-1.4 19.5-2.8 29.3-2.8 8 0 15.2.9 22 2.9 1.3.4 2.2 1.5 2.2 2.9v47.4c0 .9-.4 1.8-1.2 2.4-.5.4-1.2.6-1.8.6-.3 0-.5 0-.8-.1-6.2-1.8-12.9-2.6-20.3-2.6-9.4 0-19.1 1.4-28.5 2.7-9.5 1.3-19.4 2.7-29.3 2.7z"></path>
  <path class="st1" d="M235.9 44c7 0 14.1.7 21.1 2.7v47.4c-7-2-14.1-2.7-21.1-2.7-19.2 0-38.5 5.5-57.7 5.5-7.1 0-14.1-.7-21.1-2.7V46.7c7 2 14.1 2.7 21.1 2.7 19.2.1 38.4-5.4 57.7-5.4m0-6c-10 0-20 1.4-29.7 2.8s-18.8 2.7-28 2.7c-7.2 0-13.6-.8-19.5-2.5-.5-.1-1.1-.2-1.6-.2-1.3 0-2.6.4-3.6 1.2-1.5 1.1-2.4 2.9-2.4 4.8v47.4c0 2.7 1.8 5 4.4 5.8 7 2 14.5 3 22.8 3 10.1 0 20-1.4 29.7-2.8s18.8-2.7 28-2.7c7.2 0 13.6.8 19.5 2.5.5.1 1.1.2 1.6.2 1.3 0 2.6-.4 3.6-1.2 1.5-1.1 2.4-2.9 2.4-4.8V46.7c0-2.7-1.8-5-4.4-5.8-7.1-1.9-14.5-2.9-22.8-2.9z"></path>
  <path class="st7" d="M188.6 72.7c0-8.4 3.9-16.1 9.7-20.5-9.7 1.3-19.4 2.1-29.2 1.1 0 4.4-3.5 7.6-7.9 6.6V83c4.4.9 7.9 4.8 7.9 9.1 9.7 1 19.4.2 29.2-1.1-5.8-2.9-9.7-9.9-9.7-18.3zm-13.7 7.2c-3.5-.1-6.3-3.5-6.3-7.3s2.8-6.5 6.3-6.4c3.5.1 6.3 3.1 6.3 6.9s-2.8 7-6.3 6.8zm70-31.3c-9.7-1-19.5-.2-29.2 1.1 5.8 3 9.7 10 9.7 18.4 0 8.4-3.9 16.1-9.7 20.5 9.7-1.3 19.5-2.1 29.2-1.1 0-4.4 3.5-7.6 7.9-6.6V57.8c-4.4-.9-7.9-4.8-7.9-9.2zm-5.8 26c-3.5-.1-6.3-3.1-6.3-6.9 0-3.8 2.8-7 6.3-6.8 3.5.1 6.3 3.5 6.3 7.3s-2.8 6.5-6.3 6.4z"></path>
  <path class="st8" d="M211 69.6c0-1.7 1.3-3.2 3-3.4s3 1 3 2.6m-20 2.8c0-1.7 1.3-3.2 3-3.4s3 .9 3 2.6m-3.1 7.9c1.8 1.6 4.3 2.4 7.1 2s5.3-1.9 7.1-4"></path>
  <path class="st1" d="M203 62.1c-2.5.9-5.2 1.7-7.7 2.3-1.4.4-2.4-1.2-1.6-2.5 2.3-3.4 7.2-4.9 10.4-3.2 1.3.9.5 3-1.1 3.4zm15.3-.8c-2.5-.1-5.2-.2-7.7-.4-1.4-.1-1.8-2-.6-3 3.2-2.7 8.2-2.5 10.4.5.9 1.4-.5 3.1-2.1 2.9z"></path>
  <path class="st6" d="M1109.1 99.8c-8 0-15.2-.9-21.9-2.9-1.3-.4-2.2-1.5-2.2-2.9V46.7c0-.9.4-1.8 1.2-2.4.5-.4 1.2-.6 1.8-.6.3 0 .6 0 .8.1 6.2 1.8 12.8 2.6 20.3 2.6 9.4 0 19.1-1.4 28.4-2.7 9.6-1.4 19.5-2.8 29.3-2.8 8 0 15.2.9 21.9 2.9 1.3.4 2.2 1.5 2.2 2.9v47.4c0 .9-.4 1.8-1.2 2.4-.5.4-1.2.6-1.8.6-.3 0-.6 0-.8-.1-6.2-1.8-12.8-2.6-20.3-2.6-9.4 0-19.1 1.4-28.4 2.7-9.5 1.3-19.4 2.7-29.3 2.7z"></path>
  <path class="st1" d="M1166.9 44c7.1 0 14.1.7 21.1 2.7v47.4c-7-2-14.1-2.7-21.1-2.7-19.2 0-38.5 5.5-57.7 5.5-7.1 0-14.1-.7-21.1-2.7V46.7c7 2 14.1 2.7 21.1 2.7 19.2.1 38.4-5.4 57.7-5.4m0-6c-10.1 0-20.1 1.4-29.7 2.8-9.7 1.4-18.8 2.7-28 2.7-7.2 0-13.6-.8-19.5-2.5-.5-.1-1.1-.2-1.6-.2-1.3 0-2.6.4-3.6 1.2-1.5 1.1-2.4 2.9-2.4 4.8v47.4c0 2.7 1.8 5 4.4 5.8 7 2 14.5 3 22.8 3 10.1 0 20-1.4 29.7-2.8s18.8-2.7 28-2.7c7.2 0 13.6.8 19.5 2.5.5.1 1.1.2 1.6.2 1.3 0 2.6-.4 3.6-1.2 1.5-1.1 2.4-2.9 2.4-4.8V46.7c0-2.7-1.8-5-4.4-5.8-7.1-1.9-14.5-2.9-22.8-2.9z"></path>
  <path class="st7" d="M1119.6 72.7c0-8.4 3.9-16.1 9.7-20.5-9.7 1.3-19.5 2.1-29.2 1.1 0 4.4-3.5 7.6-7.9 6.6V83c4.4.9 7.9 4.8 7.9 9.1 9.7 1 19.4.2 29.2-1.1-5.8-2.9-9.7-9.9-9.7-18.3zm-13.7 7.2c-3.5-.1-6.3-3.5-6.3-7.3s2.8-6.5 6.3-6.4c3.5.1 6.3 3.1 6.3 6.9s-2.8 7-6.3 6.8zm70-31.3c-9.7-1-19.4-.2-29.2 1.1 5.8 3 9.7 10 9.7 18.4 0 8.4-3.9 16.1-9.7 20.5 9.7-1.3 19.4-2.1 29.2-1.1 0-4.4 3.5-7.6 7.9-6.6V57.8c-4.4-.9-7.9-4.8-7.9-9.2zm-5.8 26c-3.5-.1-6.3-3.1-6.3-6.9 0-3.8 2.8-7 6.3-6.8 3.5.1 6.3 3.5 6.3 7.3s-2.8 6.5-6.3 6.4z"></path>
  <path class="st8" d="M1142 65.6c0-1.7 1.3-3.2 3-3.4s3 1 3 2.6m-20 2.8c0-1.7 1.3-3.2 3-3.4s3 .9 3 2.6"></path>
  <path class="st1" d="M1134 60.1c-2.5.9-5.2 1.7-7.7 2.3-1.4.4-2.4-1.2-1.7-2.5 2.3-3.4 7.2-4.9 10.4-3.2 1.4.9.6 3-1 3.4zm15.3-.8c-2.6-.1-5.2-.2-7.7-.4-1.4-.1-1.8-2-.6-3 3.2-2.7 8.2-2.5 10.4.5.9 1.4-.5 3.1-2.1 2.9zm-3.3 10c-5.3.7-10.7 1.5-16 2.2-2.2.3-4 2.3-4 4.5 0 6.6 5.4 11.4 12 10.4s11.9-6.9 12-13.4v-.2c0-2.2-1.8-3.8-4-3.5z"></path>
  <path class="st2" d="M1143.7 79.2c-1.4-1.3-3.5-1.9-5.7-1.6s-4.3 1.5-5.7 3.2c1.4 1.3 3.5 1.9 5.7 1.6s4.3-1.5 5.7-3.2z"></path>
  <path class="st6" d="M258.1 309.8c-8 0-15.2-.9-22-2.8-1.3-.4-2.2-1.5-2.2-2.9v-47.4c0-.9.4-1.8 1.2-2.4.5-.4 1.2-.6 1.8-.6.3 0 .5 0 .8.1 6.2 1.8 12.9 2.6 20.3 2.6 9.4 0 19.1-1.4 28.5-2.7 9.6-1.4 19.5-2.8 29.3-2.8 8 0 15.2.9 22 2.8 1.3.4 2.2 1.5 2.2 2.9V304c0 .9-.4 1.8-1.2 2.4-.5.4-1.2.6-1.8.6-.3 0-.5 0-.8-.1-6.2-1.8-12.9-2.6-20.3-2.6-9.4 0-19.1 1.4-28.5 2.7-9.5 1.4-19.4 2.8-29.3 2.8z"></path>
  <path class="st1" d="M315.9 254c7 0 14.1.7 21.1 2.7v47.4c-7-2-14.1-2.7-21.1-2.7-19.2 0-38.5 5.5-57.7 5.5-7 0-14.1-.7-21.1-2.7v-47.4c7 2 14.1 2.7 21.1 2.7 19.2 0 38.4-5.5 57.7-5.5m0-6c-10 0-20 1.4-29.7 2.8s-18.8 2.7-28 2.7c-7.2 0-13.6-.8-19.5-2.5-.5-.2-1.1-.2-1.6-.2-1.3 0-2.6.4-3.6 1.2-1.5 1.1-2.4 2.9-2.4 4.8v47.4c0 2.7 1.8 5 4.4 5.8 7 2 14.5 3 22.8 3 10 0 20-1.4 29.7-2.8s18.8-2.7 28-2.7c7.2 0 13.6.8 19.5 2.5.5.2 1.1.2 1.6.2 1.3 0 2.6-.4 3.6-1.2 1.5-1.1 2.4-2.9 2.4-4.8v-47.4c0-2.7-1.8-5-4.4-5.8-7.1-2-14.5-3-22.8-3z"></path>
  <path class="st7" d="M268.6 282.7c0-8.4 3.9-16.1 9.7-20.5-9.7 1.3-19.5 2.1-29.2 1.1 0 4.3-3.5 7.6-7.9 6.7v23c4.4.9 7.9 4.8 7.9 9.1 9.7 1 19.5.2 29.2-1.1-5.8-2.9-9.7-9.9-9.7-18.3zm-13.7 7.2c-3.5-.1-6.3-3.5-6.3-7.3s2.8-6.5 6.3-6.4c3.5.1 6.3 3.1 6.3 6.8s-2.8 7.1-6.3 6.9zm70-31.2c-9.7-1-19.5-.2-29.2 1.1 5.8 3 9.7 10 9.7 18.4 0 8.4-3.9 16.1-9.7 20.5 9.7-1.3 19.5-2.1 29.2-1.1 0-4.3 3.5-7.6 7.9-6.7v-23.2c-4.4-.9-7.9-4.7-7.9-9zm-5.8 25.9c-3.5-.1-6.3-3.1-6.3-6.8 0-3.8 2.8-7 6.3-6.8 3.5.1 6.3 3.5 6.3 7.3 0 3.7-2.8 6.4-6.3 6.3z"></path>
  <path class="st8" d="M291 275.6c0-1.7 1.3-3.2 3-3.4s3 1 3 2.6m-20 2.8c0-1.7 1.3-3.2 3-3.4 1.7-.2 3 .9 3 2.6"></path>
  <path class="st1" d="M283 270.1c-2.5.8-5.2 1.7-7.7 2.3-1.4.4-2.5-1.2-1.6-2.5 2.3-3.4 7.2-4.9 10.4-3.2 1.3.9.5 3-1.1 3.4zm15.3-.8c-2.5-.1-5.2-.2-7.7-.4-1.4-.1-1.8-2-.6-3 3.2-2.7 8.2-2.5 10.4.5.9 1.4-.5 3.1-2.1 2.9zm-3.3 10c-5.3.7-10.7 1.5-16 2.2-2.2.3-4 2.3-4 4.5 0 6.6 5.4 11.4 12 10.4s11.9-6.9 12-13.4v-.2c0-2.2-1.8-3.8-4-3.5z"></path>
  <path class="st2" d="M292.7 289.2c-1.5-1.3-3.5-1.9-5.7-1.6s-4.3 1.5-5.7 3.2c1.5 1.3 3.5 1.9 5.7 1.6s4.3-1.5 5.7-3.2z"></path>
</svg>
