<?xml version="1.0" encoding="utf-8"?>
<!-- Generator: Adobe Illustrator 26.0.2, SVG Export Plug-In . SVG Version: 6.00 Build 0)  -->
<svg version="1.1" id="Landing_x5F_Page_x5F_Hub-Landing_x5F_Page_x5F_Hero_Shots"
	 xmlns="http://www.w3.org/2000/svg" xmlns:xlink="http://www.w3.org/1999/xlink" x="0px" y="0px" viewBox="0 0 400 400"
	 style="enable-background:new 0 0 400 400;" xml:space="preserve">
<style type="text/css">
	.st0{fill:#FFFFFF;}
	.st1{fill:#515979;}
	.st2{fill:#7DDF96;}
	.st3{fill:#667683;}
	.st4{fill:#EF7D7D;}
	.st5{fill:#FFE8A0;}
	.st6{fill:#CEEDD9;}
	.st7{fill:#3CB48C;}
	.st8{fill:none;}
	.st9{fill:#FFD886;}
	.st10{fill:#A6D5FA;}
	.st11{fill:#4DABF5;}
	.st12{fill:#C8DBE7;}
	.st13{fill:#91B7CF;}
	.st14{fill:#FCD8CD;}
	.st15{fill:#F9B19A;}
	.st16{fill:#DDD9FF;}
	.st17{fill:#BBB3FF;}
	.st18{fill:#CBF2D5;}
	.st19{fill:#97E5AB;}
	.st20{fill:#FFEFCF;}
	.st21{fill:#FFE09E;}
</style>
<g>
	<g>
		<g>
			<path class="st0" d="M32.03,268.35c-7.17,0-13-5.83-13-13v-226c0-7.17,5.83-13,13-13h180c7.17,0,13,5.83,13,13v226
				c0,7.17-5.83,13-13,13H32.03z"/>
		</g>
		<g>
			<path class="st1" d="M212.03,19.35c5.52,0,10,4.48,10,10v226c0,5.52-4.48,10-10,10h-180c-5.52,0-10-4.48-10-10v-226
				c0-5.52,4.48-10,10-10H212.03 M212.03,13.35h-180c-8.82,0-16,7.18-16,16v226c0,8.82,7.18,16,16,16h180c8.82,0,16-7.18,16-16v-226
				C228.03,20.53,220.85,13.35,212.03,13.35L212.03,13.35z"/>
		</g>
	</g>
	<g>
		<path class="st2" d="M212.03,265.35h-180c-5.52,0-10-4.48-10-10v-54h200v54C222.03,260.88,217.55,265.35,212.03,265.35z"/>
	</g>
	<g>
		<rect x="22.03" y="53.35" class="st2" width="200" height="76"/>
	</g>
	<g>
		<g>
			<path class="st3" d="M22.03,50.35c-1.66,0-3-1.34-3-3v-18c0-7.17,5.83-13,13-13h180c7.17,0,13,5.83,13,13v18c0,1.66-1.34,3-3,3
				H22.03z"/>
		</g>
		<g>
			<path class="st1" d="M212.03,19.35c5.52,0,10,4.48,10,10v18h-200v-18c0-5.52,4.48-10,10-10H212.03 M212.03,13.35h-180
				c-8.82,0-16,7.18-16,16v18c0,3.31,2.69,6,6,6h200c3.31,0,6-2.69,6-6v-18C228.03,20.53,220.85,13.35,212.03,13.35L212.03,13.35z"
				/>
		</g>
	</g>
	<g>
		<g>
			<path class="st0" d="M112.03,40.35c-3.86,0-7-3.14-7-7s3.14-7,7-7h94c3.86,0,7,3.14,7,7s-3.14,7-7,7H112.03z"/>
		</g>
		<g>
			<g>
				<path class="st1" d="M206.03,29.35c2.21,0,4,1.79,4,4s-1.79,4-4,4h-94c-2.21,0-4-1.79-4-4s1.79-4,4-4H206.03 M206.03,23.35h-94
					c-5.51,0-10,4.49-10,10s4.49,10,10,10h94c5.51,0,10-4.49,10-10S211.54,23.35,206.03,23.35L206.03,23.35z"/>
			</g>
		</g>
	</g>
	<g>
		<g>
			<circle class="st4" cx="38.03" cy="33.35" r="7"/>
		</g>
		<g>
			<g>
				<path class="st1" d="M38.03,29.35c2.21,0,4,1.79,4,4c0,2.21-1.79,4-4,4s-4-1.79-4-4C34.03,31.14,35.82,29.35,38.03,29.35
					 M38.03,23.35c-5.51,0-10,4.49-10,10s4.49,10,10,10s10-4.49,10-10S43.54,23.35,38.03,23.35L38.03,23.35z"/>
			</g>
		</g>
	</g>
	<g>
		<g>
			<circle class="st5" cx="62.03" cy="33.35" r="7"/>
		</g>
		<g>
			<g>
				<path class="st1" d="M62.03,29.35c2.21,0,4,1.79,4,4c0,2.21-1.79,4-4,4s-4-1.79-4-4C58.03,31.14,59.82,29.35,62.03,29.35
					 M62.03,23.35c-5.51,0-10,4.49-10,10s4.49,10,10,10s10-4.49,10-10S67.54,23.35,62.03,23.35L62.03,23.35z"/>
			</g>
		</g>
	</g>
	<g>
		<g>
			<circle class="st2" cx="86.03" cy="33.35" r="7"/>
		</g>
		<g>
			<g>
				<path class="st1" d="M86.03,29.35c2.21,0,4,1.79,4,4c0,2.21-1.79,4-4,4s-4-1.79-4-4C82.03,31.14,83.82,29.35,86.03,29.35
					 M86.03,23.35c-5.51,0-10,4.49-10,10s4.49,10,10,10s10-4.49,10-10S91.54,23.35,86.03,23.35L86.03,23.35z"/>
			</g>
		</g>
	</g>
	<g>
		<rect x="22.03" y="128.35" class="st6" width="200" height="74"/>
	</g>
	<g>
		<g>
			<path class="st0" d="M41.03,187.35h42c2.21,0,4-1.79,4-4v-36c0-2.21-1.79-4-4-4h-42c-2.21,0-4,1.79-4,4v36
				C37.03,185.56,38.82,187.35,41.03,187.35z"/>
		</g>
		<g>
			<circle class="st6" cx="49.03" cy="155.35" r="6"/>
		</g>
		<g>
			<path class="st2" d="M79.03,169.35h-34c-1.1,0-2-0.9-2-2l0,0c0-1.1,0.9-2,2-2h34c1.1,0,2,0.9,2,2l0,0
				C81.03,168.46,80.13,169.35,79.03,169.35z"/>
		</g>
		<g>
			<path class="st2" d="M65.03,177.35h-20c-1.1,0-2-0.9-2-2l0,0c0-1.1,0.9-2,2-2h20c1.1,0,2,0.9,2,2l0,0
				C67.03,176.46,66.13,177.35,65.03,177.35z"/>
		</g>
	</g>
	<g>
		<g>
			<path class="st0" d="M161.03,187.35h42c2.21,0,4-1.79,4-4v-36c0-2.21-1.79-4-4-4h-42c-2.21,0-4,1.79-4,4v36
				C157.03,185.56,158.82,187.35,161.03,187.35z"/>
		</g>
		<g>
			<circle class="st6" cx="169.03" cy="155.35" r="6"/>
		</g>
		<g>
			<path class="st2" d="M199.03,169.35h-34c-1.1,0-2-0.9-2-2l0,0c0-1.1,0.9-2,2-2h34c1.1,0,2,0.9,2,2l0,0
				C201.03,168.46,200.13,169.35,199.03,169.35z"/>
		</g>
		<g>
			<path class="st2" d="M177.03,177.35h-12c-1.1,0-2-0.9-2-2l0,0c0-1.1,0.9-2,2-2h12c1.1,0,2,0.9,2,2l0,0
				C179.03,176.46,178.13,177.35,177.03,177.35z"/>
		</g>
	</g>
	<g>
		<g>
			<path class="st0" d="M101.03,187.35h42c2.21,0,4-1.79,4-4v-36c0-2.21-1.79-4-4-4h-42c-2.21,0-4,1.79-4,4v36
				C97.03,185.56,98.82,187.35,101.03,187.35z"/>
		</g>
		<g>
			<circle class="st6" cx="109.03" cy="155.35" r="6"/>
		</g>
		<g>
			<path class="st2" d="M139.03,169.35h-34c-1.1,0-2-0.9-2-2l0,0c0-1.1,0.9-2,2-2h34c1.1,0,2,0.9,2,2l0,0
				C141.03,168.46,140.13,169.35,139.03,169.35z"/>
		</g>
		<g>
			<path class="st2" d="M131.03,177.35h-26c-1.1,0-2-0.9-2-2l0,0c0-1.1,0.9-2,2-2h26c1.1,0,2,0.9,2,2l0,0
				C133.03,176.46,132.13,177.35,131.03,177.35z"/>
		</g>
	</g>
	<g>
		<circle class="st6" cx="62.03" cy="235.35" r="24"/>
	</g>
	<g>
		<circle class="st6" cx="122.03" cy="235.35" r="24"/>
	</g>
	<g>
		<circle class="st6" cx="182.03" cy="235.35" r="24"/>
	</g>
	<g>
		<g>
			<circle class="st7" cx="87.03" cy="89.85" r="2.5"/>
		</g>
		<g>
			<circle class="st7" cx="92.53" cy="100.85" r="2.5"/>
		</g>
		<g>
			<circle class="st7" cx="81.53" cy="100.85" r="2.5"/>
		</g>
	</g>
	<g>
		<g>
			<circle class="st7" cx="157.03" cy="89.85" r="2.5"/>
		</g>
		<g>
			<circle class="st7" cx="162.53" cy="100.85" r="2.5"/>
		</g>
		<g>
			<circle class="st7" cx="151.53" cy="100.85" r="2.5"/>
		</g>
	</g>
	<g>
		<g>
			<path class="st1" d="M140.03,87.85L140.03,87.85h-36.01c-2.76,0-5,2.24-5,5c0,12.68,10.32,23,23,23c12.62,0,22.9-10.22,23-22.82
				c0-0.06,0-0.12,0-0.18C145.03,90.09,142.8,87.85,140.03,87.85z"/>
			<g>
				<g>
					<ellipse class="st4" cx="122.03" cy="104.85" rx="13.39" ry="6"/>
				</g>
			</g>
		</g>
		<g>
			<path class="st1" d="M132.05,61.64c3.68-3.2,9.6-3.78,13.59-0.77c1.81,1.35,4.82,4.88,1.93,6.45c-0.74,0.34-1.5,0.14-2.13-0.25
				c-1.05-0.55-1.86-1.12-2.73-1.43c-2.91-1.36-6.23-0.67-9.32-0.51C131.56,65.19,130.67,62.79,132.05,61.64L132.05,61.64z"/>
		</g>
		<g>
			<path class="st1" d="M110.05,65.13c-1.94-0.19-4.24-0.52-6.14-0.2c-2.14,0.25-3.69,1.26-5.66,2.33c-1,0.52-2.23,0.14-2.75-0.86
				c-0.3-0.57-0.3-1.22-0.06-1.77c1.83-4.71,7.87-6.81,12.48-5.23c1.95,0.66,6.22,2.41,4.28,5.04
				C111.65,65.11,110.82,65.18,110.05,65.13L110.05,65.13z"/>
		</g>
		<g>
			<g>
				<path class="st1" d="M114.03,83.35c-1.38,0-2.5-1.12-2.5-2.5c0-2.48-2.02-4.5-4.5-4.5s-4.5,2.02-4.5,4.5
					c0,1.38-1.12,2.5-2.5,2.5s-2.5-1.12-2.5-2.5c0-5.24,4.26-9.5,9.5-9.5s9.5,4.26,9.5,9.5C116.53,82.23,115.41,83.35,114.03,83.35z
					"/>
			</g>
		</g>
		<g>
			<g>
				<path class="st1" d="M144.03,83.35c-1.38,0-2.5-1.12-2.5-2.5c0-2.48-2.02-4.5-4.5-4.5s-4.5,2.02-4.5,4.5
					c0,1.38-1.12,2.5-2.5,2.5s-2.5-1.12-2.5-2.5c0-5.24,4.26-9.5,9.5-9.5s9.5,4.26,9.5,9.5C146.53,82.23,145.41,83.35,144.03,83.35z
					"/>
			</g>
		</g>
	</g>
</g>
<g>
	<rect x="0" class="st8" width="400" height="400"/>
</g>
<g>
	<g>
		<path class="st9" d="M147.33,284.76c2.98,0,5.4-2.42,5.4-5.4c0-0.99,0.81-1.8,1.8-1.8s1.8,0.81,1.8,1.8c0,2.98,2.42,5.4,5.4,5.4
			c0.99,0,1.8,0.81,1.8,1.8s-0.81,1.8-1.8,1.8c-2.98,0-5.4,2.42-5.4,5.4c0,0.99-0.81,1.8-1.8,1.8s-1.8-0.81-1.8-1.8
			c0-2.98-2.42-5.4-5.4-5.4c-0.99,0-1.8-0.81-1.8-1.8S146.34,284.76,147.33,284.76z"/>
	</g>
</g>
<g>
	<g>
		<path class="st9" d="M58.83,376.47c2.98,0,5.4-2.42,5.4-5.4c0-0.99,0.81-1.8,1.8-1.8c0.99,0,1.8,0.81,1.8,1.8
			c0,2.98,2.42,5.4,5.4,5.4c0.99,0,1.8,0.81,1.8,1.8s-0.81,1.8-1.8,1.8c-2.98,0-5.4,2.42-5.4,5.4c0,0.99-0.81,1.8-1.8,1.8
			c-0.99,0-1.8-0.81-1.8-1.8c0-2.98-2.42-5.4-5.4-5.4c-0.99,0-1.8-0.81-1.8-1.8S57.84,376.47,58.83,376.47z"/>
	</g>
</g>
<g>
	<g>
		<path class="st9" d="M356.64,371.97c2.98,0,5.4-2.42,5.4-5.4c0-0.99,0.81-1.8,1.8-1.8s1.8,0.81,1.8,1.8c0,2.98,2.42,5.4,5.4,5.4
			c0.99,0,1.8,0.81,1.8,1.8s-0.81,1.8-1.8,1.8c-2.98,0-5.4,2.42-5.4,5.4c0,0.99-0.81,1.8-1.8,1.8s-1.8-0.81-1.8-1.8
			c0-2.98-2.42-5.4-5.4-5.4c-0.99,0-1.8-0.81-1.8-1.8S355.65,371.97,356.64,371.97z"/>
	</g>
</g>
<g>
	<g>
		<circle class="st9" cx="247.32" cy="104.85" r="3"/>
	</g>
</g>
<g>
	<g>
		<circle class="st9" cx="353.81" cy="340.77" r="3"/>
	</g>
</g>
<g>
	<g>
		<circle class="st9" cx="283.74" cy="258.33" r="3"/>
	</g>
</g>
<g>
	<g>
		<circle class="st9" cx="357.84" cy="135.21" r="3"/>
	</g>
</g>
<g>
	<g>
		<circle class="st9" cx="95.03" cy="369.27" r="3"/>
	</g>
</g>
<g>
	<g>
		<circle class="st9" cx="122.03" cy="305.77" r="3"/>
	</g>
</g>
<g>
	<g>
		<circle class="st9" cx="280.74" cy="369.27" r="3"/>
	</g>
</g>
<g>
	<g>
		<circle class="st9" cx="292.74" cy="19.35" r="3"/>
	</g>
</g>
<g>
	<g>
		<circle class="st9" cx="257.82" cy="34.64" r="3"/>
	</g>
</g>
<g>
	<circle class="st9" cx="265.55" cy="233.35" r="4"/>
</g>
<g>
	<circle class="st9" cx="363.84" cy="160.75" r="4.5"/>
</g>
<g>
	<circle class="st9" cx="189.16" cy="295.56" r="4.5"/>
</g>
<g>
	<circle class="st9" cx="254.82" cy="77.35" r="4.5"/>
</g>
<g>
	<circle class="st9" cx="324.74" cy="364.77" r="4.5"/>
</g>
<g>
	<circle class="st9" cx="34.03" cy="373.77" r="4.5"/>
</g>
<path class="st9" d="M378.84,309.04h-6v-6c0-1.66-1.34-3-3-3s-3,1.34-3,3v6h-6c-1.66,0-3,1.34-3,3s1.34,3,3,3h6v6c0,1.66,1.34,3,3,3
	s3-1.34,3-3v-6h6c1.66,0,3-1.34,3-3S380.5,309.04,378.84,309.04z"/>
<g>
	<path class="st9" d="M292.04,45.15c-3.64,0-6.6-2.96-6.6-6.6c0-1.21-0.98-2.2-2.2-2.2c-1.21,0-2.2,0.98-2.2,2.2
		c0,3.64-2.96,6.6-6.6,6.6c-1.21,0-2.2,0.98-2.2,2.2c0,1.21,0.99,2.2,2.2,2.2c3.64,0,6.6,2.96,6.6,6.6c0,1.21,0.98,2.2,2.2,2.2
		c1.21,0,2.2-0.98,2.2-2.2c0-3.64,2.96-6.6,6.6-6.6c1.21,0,2.2-0.98,2.2-2.2C294.24,46.14,293.25,45.15,292.04,45.15z"/>
</g>
<g>
	<g>
		<g>
			<path class="st10" d="M267.74,189.21c-3.31,0-6-2.69-6-6v-42c0-3.31,2.69-6,6-6h54c3.31,0,6,2.69,6,6v42c0,3.31-2.69,6-6,6
				H267.74z"/>
		</g>
		<g>
			<g>
				<path class="st1" d="M321.74,138.21c1.66,0,3,1.34,3,3l0,42c0,1.66-1.34,3-3,3l-54,0c-1.66,0-3-1.34-3-3l0-42c0-1.66,1.34-3,3-3
					L321.74,138.21 M321.74,132.21l-54,0c-4.96,0-9,4.04-9,9l0,42c0,4.96,4.04,9,9,9l54,0c4.96,0,9-4.04,9-9l0-42
					C330.74,136.24,326.7,132.21,321.74,132.21L321.74,132.21z"/>
			</g>
		</g>
	</g>
	<g>
		<g>
			<circle class="st11" cx="304.74" cy="151.21" r="8.5"/>
		</g>
		<g>
			<g>
				<path class="st1" d="M304.74,145.21c3.31,0,6,2.69,6,6c0,3.31-2.69,6-6,6c-3.31,0-6-2.69-6-6
					C298.74,147.89,301.42,145.21,304.74,145.21 M304.74,140.21c-6.07,0-11,4.93-11,11s4.93,11,11,11s11-4.93,11-11
					S310.8,140.21,304.74,140.21L304.74,140.21z"/>
			</g>
		</g>
	</g>
	<g>
		<g>
			<path class="st11" d="M267.74,188.71c-1.51,0-2.98-0.64-4.02-1.75c-0.77-0.83-0.89-2.07-0.29-3.03l14.64-23.56
				c0.83-1.33,2.25-2.12,3.82-2.12c1.43,0,2.74,0.66,3.6,1.8l14.29,19.06l7.44-9.47c0.86-1.09,2.15-1.72,3.54-1.72
				c1.36,0,2.63,0.6,3.49,1.66l11.55,14.17c0.81,0.99,0.74,2.43-0.16,3.34c-1.04,1.05-2.43,1.63-3.9,1.63H267.74z"/>
		</g>
		<g>
			<g>
				<path class="st1" d="M281.89,160.75c0.6,0,1.2,0.26,1.6,0.8l16.25,21.66l9.46-12.03c0.4-0.51,0.99-0.76,1.57-0.76
					c0.57,0,1.15,0.25,1.55,0.74l11.55,14.17c-0.54,0.55-1.3,0.89-2.13,0.89l-54,0c-0.87,0-1.64-0.37-2.19-0.96l14.64-23.56
					C280.58,161.07,281.24,160.75,281.89,160.75 M281.89,155.75C281.89,155.75,281.89,155.75,281.89,155.75
					c-2.44,0-4.66,1.24-5.95,3.3l-14.64,23.56c-1.19,1.92-0.95,4.4,0.59,6.05c1.51,1.62,3.64,2.55,5.84,2.55l54,0
					c2.15,0,4.16-0.84,5.68-2.37c1.8-1.82,1.94-4.7,0.33-6.68l-11.55-14.17c-1.34-1.64-3.31-2.58-5.43-2.58
					c-2.16,0-4.17,0.98-5.5,2.68l-5.43,6.91l-12.34-16.45C286.16,156.77,284.12,155.75,281.89,155.75L281.89,155.75L281.89,155.75z"
					/>
			</g>
		</g>
	</g>
</g>
<g>
	<g>
		<g>
			<path class="st12" d="M133.03,376.77c-3.31,0-6-2.69-6-6v-42c0-3.31,2.69-6,6-6h54c3.31,0,6,2.69,6,6v42c0,3.31-2.69,6-6,6
				H133.03z"/>
		</g>
		<g>
			<g>
				<path class="st1" d="M187.03,325.77c1.66,0,3,1.34,3,3v42c0,1.66-1.34,3-3,3l-54,0c-1.66,0-3-1.34-3-3v-42c0-1.66,1.34-3,3-3
					L187.03,325.77 M187.03,319.77l-54,0c-4.96,0-9,4.04-9,9v42c0,4.96,4.04,9,9,9l54,0c4.96,0,9-4.04,9-9v-42
					C196.03,323.81,191.99,319.77,187.03,319.77L187.03,319.77z"/>
			</g>
		</g>
	</g>
	<g>
		<g>
			<circle class="st13" cx="170.03" cy="338.77" r="8.5"/>
		</g>
		<g>
			<g>
				<path class="st1" d="M170.03,332.77c3.31,0,6,2.69,6,6c0,3.31-2.69,6-6,6s-6-2.69-6-6
					C164.03,335.46,166.72,332.77,170.03,332.77 M170.03,327.77c-6.07,0-11,4.93-11,11c0,6.07,4.93,11,11,11s11-4.93,11-11
					C181.03,332.71,176.09,327.77,170.03,327.77L170.03,327.77z"/>
			</g>
		</g>
	</g>
	<g>
		<g>
			<path class="st13" d="M133.03,376.27c-1.51,0-2.98-0.64-4.02-1.75c-0.77-0.83-0.89-2.07-0.3-3.03l14.64-23.56
				c0.83-1.33,2.25-2.12,3.82-2.12c1.43,0,2.74,0.66,3.6,1.8l14.29,19.05l7.44-9.47c0.86-1.09,2.15-1.72,3.54-1.72
				c1.36,0,2.63,0.6,3.49,1.66l11.55,14.17c0.81,0.99,0.74,2.43-0.16,3.34c-1.04,1.05-2.43,1.63-3.9,1.63H133.03z"/>
		</g>
		<g>
			<g>
				<path class="st1" d="M147.19,348.31c0.6,0,1.2,0.26,1.6,0.8l16.25,21.66l9.46-12.03c0.4-0.51,0.99-0.76,1.57-0.76
					c0.57,0,1.15,0.25,1.55,0.74l11.55,14.17c-0.54,0.55-1.3,0.89-2.13,0.89h-54c-0.87,0-1.64-0.37-2.19-0.96l14.64-23.56
					C145.87,348.63,146.53,348.31,147.19,348.31 M147.19,343.31C147.19,343.31,147.19,343.31,147.19,343.31
					c-2.44,0-4.66,1.24-5.95,3.3l-14.64,23.56c-1.19,1.92-0.95,4.4,0.59,6.05c1.51,1.62,3.64,2.55,5.84,2.55h54
					c2.15,0,4.16-0.84,5.68-2.37c1.8-1.82,1.94-4.7,0.33-6.68l-11.55-14.17c-1.34-1.64-3.31-2.58-5.43-2.58
					c-2.16,0-4.17,0.98-5.5,2.68l-5.43,6.91l-12.34-16.45C151.45,344.33,149.41,343.31,147.19,343.31L147.19,343.31L147.19,343.31z"
					/>
			</g>
		</g>
	</g>
</g>
<g>
	<g>
		<g>
			<path class="st14" d="M237.74,343.77c-3.31,0-6-2.69-6-6v-42c0-3.31,2.69-6,6-6h54c3.31,0,6,2.69,6,6v42c0,3.31-2.69,6-6,6
				H237.74z"/>
		</g>
		<g>
			<g>
				<path class="st1" d="M291.74,292.77c1.66,0,3,1.34,3,3v42c0,1.66-1.34,3-3,3l-54,0c-1.66,0-3-1.34-3-3l0-42c0-1.66,1.34-3,3-3
					L291.74,292.77 M291.74,286.77l-54,0c-4.96,0-9,4.04-9,9l0,42c0,4.96,4.04,9,9,9l54,0c4.96,0,9-4.04,9-9v-42
					C300.74,290.81,296.7,286.77,291.74,286.77L291.74,286.77z"/>
			</g>
		</g>
	</g>
	<g>
		<g>
			<circle class="st15" cx="274.74" cy="305.77" r="8.5"/>
		</g>
		<g>
			<g>
				<path class="st1" d="M274.74,299.77c3.31,0,6,2.69,6,6s-2.69,6-6,6s-6-2.69-6-6C268.74,302.46,271.42,299.77,274.74,299.77
					 M274.74,294.77c-6.07,0-11,4.93-11,11c0,6.07,4.93,11,11,11s11-4.93,11-11C285.74,299.71,280.8,294.77,274.74,294.77
					L274.74,294.77z"/>
			</g>
		</g>
	</g>
	<g>
		<g>
			<path class="st15" d="M237.74,343.27c-1.51,0-2.97-0.64-4.01-1.75c-0.77-0.83-0.89-2.07-0.3-3.03l14.64-23.56
				c0.83-1.33,2.26-2.12,3.82-2.12c1.43,0,2.74,0.66,3.6,1.8l14.29,19.05l7.44-9.47c0.86-1.09,2.15-1.72,3.54-1.72
				c1.36,0,2.63,0.6,3.49,1.66l11.55,14.17c0.81,0.99,0.74,2.43-0.16,3.34c-1.04,1.05-2.43,1.63-3.9,1.63H237.74z"/>
		</g>
		<g>
			<g>
				<path class="st1" d="M251.89,315.31c0.6,0,1.2,0.26,1.6,0.8l16.25,21.66l9.46-12.03c0.4-0.51,0.99-0.76,1.57-0.76
					c0.57,0,1.15,0.25,1.55,0.74l11.55,14.17c-0.54,0.55-1.3,0.89-2.13,0.89l-54,0c-0.87,0-1.64-0.37-2.19-0.96l14.64-23.56
					C250.58,315.63,251.24,315.31,251.89,315.31 M251.89,310.31C251.89,310.31,251.89,310.31,251.89,310.31
					c-2.44,0-4.66,1.24-5.95,3.3l-14.64,23.56c-1.19,1.92-0.95,4.4,0.59,6.05c1.51,1.62,3.64,2.55,5.84,2.55h54
					c2.15,0,4.16-0.84,5.68-2.37c1.8-1.82,1.94-4.7,0.33-6.68l-11.55-14.17c-1.34-1.64-3.31-2.58-5.43-2.58
					c-2.16,0-4.17,0.98-5.5,2.68l-5.43,6.91l-12.34-16.45C256.16,311.33,254.12,310.31,251.89,310.31L251.89,310.31L251.89,310.31z"
					/>
			</g>
		</g>
	</g>
</g>
<g>
	<g>
		<g>
			<path class="st16" d="M318.53,95.81c-3.31,0-6-2.69-6-6v-42c0-3.31,2.69-6,6-6h54c3.31,0,6,2.69,6,6v42c0,3.31-2.69,6-6,6H318.53
				z"/>
		</g>
		<g>
			<path class="st1" d="M372.53,44.81c1.66,0,3,1.34,3,3v42c0,1.66-1.34,3-3,3l-54,0c-1.66,0-3-1.34-3-3v-42c0-1.66,1.34-3,3-3
				L372.53,44.81 M372.53,38.81l-54,0c-4.96,0-9,4.04-9,9v42c0,4.96,4.04,9,9,9l54,0c4.96,0,9-4.04,9-9v-42
				C381.53,42.85,377.49,38.81,372.53,38.81L372.53,38.81z"/>
		</g>
	</g>
	<g>
		<g>
			<circle class="st17" cx="355.53" cy="57.81" r="8.5"/>
		</g>
		<g>
			<g>
				<path class="st1" d="M355.53,51.81c3.31,0,6,2.69,6,6c0,3.31-2.69,6-6,6s-6-2.69-6-6S352.22,51.81,355.53,51.81 M355.53,46.81
					c-6.07,0-11,4.93-11,11s4.93,11,11,11s11-4.93,11-11S361.6,46.81,355.53,46.81L355.53,46.81z"/>
			</g>
		</g>
	</g>
	<g>
		<g>
			<path class="st17" d="M318.53,95.31c-1.51,0-2.97-0.64-4.02-1.75c-0.77-0.83-0.89-2.07-0.3-3.03l14.64-23.56
				c0.83-1.33,2.25-2.12,3.82-2.12c1.43,0,2.74,0.66,3.6,1.8l14.29,19.05l7.44-9.47c0.86-1.09,2.15-1.72,3.54-1.72
				c1.36,0,2.63,0.6,3.49,1.66l11.55,14.17c0.81,0.99,0.74,2.43-0.16,3.34c-1.04,1.05-2.43,1.63-3.9,1.63H318.53z"/>
		</g>
		<g>
			<g>
				<path class="st1" d="M332.69,67.35c0.6,0,1.2,0.26,1.6,0.8l16.25,21.66l9.46-12.03c0.4-0.51,0.99-0.76,1.57-0.76
					c0.57,0,1.15,0.25,1.55,0.74l11.55,14.17c-0.54,0.55-1.3,0.89-2.13,0.89l-54,0c-0.87,0-1.64-0.37-2.19-0.96l14.64-23.56
					C331.38,67.67,332.03,67.35,332.69,67.35 M332.69,62.35C332.69,62.35,332.69,62.35,332.69,62.35c-2.44,0-4.66,1.24-5.95,3.3
					L312.1,89.21c-1.19,1.92-0.95,4.4,0.59,6.05c1.51,1.62,3.64,2.55,5.84,2.55l54,0c2.15,0,4.16-0.84,5.68-2.37
					c1.8-1.82,1.94-4.7,0.33-6.68l-11.55-14.17c-1.34-1.64-3.31-2.58-5.43-2.58c-2.16,0-4.17,0.98-5.5,2.68l-5.43,6.91l-12.34-16.45
					C336.95,63.37,334.91,62.35,332.69,62.35L332.69,62.35L332.69,62.35z"/>
			</g>
		</g>
	</g>
</g>
<g>
	<g>
		<g>
			<path class="st18" d="M326.84,274.06c-3.31,0-6-2.69-6-6v-42c0-3.31,2.69-6,6-6h54c3.31,0,6,2.69,6,6v42c0,3.31-2.69,6-6,6
				H326.84z"/>
		</g>
		<g>
			<g>
				<path class="st1" d="M380.84,223.06c1.66,0,3,1.34,3,3v42c0,1.66-1.34,3-3,3h-54c-1.66,0-3-1.34-3-3v-42c0-1.66,1.34-3,3-3
					H380.84 M380.84,217.06h-54c-4.96,0-9,4.04-9,9v42c0,4.96,4.04,9,9,9h54c4.96,0,9-4.04,9-9v-42
					C389.84,221.1,385.8,217.06,380.84,217.06L380.84,217.06z"/>
			</g>
		</g>
	</g>
	<g>
		<g>
			<circle class="st19" cx="363.84" cy="236.06" r="8.5"/>
		</g>
		<g>
			<g>
				<path class="st1" d="M363.84,230.06c3.31,0,6,2.69,6,6c0,3.31-2.69,6-6,6s-6-2.69-6-6S360.53,230.06,363.84,230.06
					 M363.84,225.06c-6.07,0-11,4.93-11,11s4.93,11,11,11s11-4.93,11-11S369.9,225.06,363.84,225.06L363.84,225.06z"/>
			</g>
		</g>
	</g>
	<g>
		<g>
			<path class="st19" d="M326.84,273.56c-1.51,0-2.97-0.64-4.01-1.75c-0.77-0.83-0.89-2.07-0.3-3.03l14.64-23.56
				c0.83-1.33,2.25-2.12,3.82-2.12c1.43,0,2.74,0.66,3.6,1.8l14.29,19.06l7.44-9.47c0.86-1.09,2.15-1.72,3.54-1.72
				c1.36,0,2.63,0.6,3.49,1.66l11.55,14.17c0.81,0.99,0.74,2.43-0.16,3.34c-1.04,1.05-2.43,1.63-3.9,1.63H326.84z"/>
		</g>
		<g>
			<g>
				<path class="st1" d="M341,245.6c0.6,0,1.2,0.26,1.6,0.8l16.25,21.66l9.46-12.03c0.4-0.51,0.99-0.76,1.57-0.76
					c0.57,0,1.15,0.25,1.55,0.74l11.55,14.17c-0.54,0.55-1.3,0.89-2.13,0.89h-54c-0.87,0-1.64-0.37-2.19-0.96l14.64-23.56
					C339.68,245.92,340.34,245.6,341,245.6 M341,240.6C341,240.6,341,240.6,341,240.6c-2.44,0-4.66,1.24-5.95,3.3l-14.64,23.56
					c-1.19,1.92-0.95,4.4,0.59,6.05c1.51,1.62,3.64,2.55,5.84,2.55h54c2.15,0,4.16-0.84,5.68-2.37c1.8-1.82,1.94-4.7,0.33-6.68
					l-11.55-14.17c-1.34-1.64-3.31-2.58-5.43-2.58c-2.16,0-4.17,0.98-5.5,2.68l-5.43,6.91l-12.34-16.45
					C345.26,241.62,343.22,240.6,341,240.6L341,240.6L341,240.6z"/>
			</g>
		</g>
	</g>
</g>
<g>
	<g>
		<g>
			<path class="st20" d="M35.03,350.04c-3.31,0-6-2.69-6-6v-42c0-3.31,2.69-6,6-6h54c3.31,0,6,2.69,6,6v42c0,3.31-2.69,6-6,6H35.03z
				"/>
		</g>
		<g>
			<g>
				<path class="st1" d="M89.03,299.04c1.66,0,3,1.34,3,3l0,42c0,1.66-1.34,3-3,3l-54,0c-1.66,0-3-1.34-3-3l0-42c0-1.66,1.34-3,3-3
					L89.03,299.04 M89.03,293.04l-54,0c-4.96,0-9,4.04-9,9l0,42c0,4.96,4.04,9,9,9l54,0c4.96,0,9-4.04,9-9l0-42
					C98.03,297.08,93.99,293.04,89.03,293.04L89.03,293.04z"/>
			</g>
		</g>
	</g>
	<g>
		<g>
			<circle class="st21" cx="72.03" cy="312.04" r="8.5"/>
		</g>
		<g>
			<g>
				<path class="st1" d="M72.03,306.04c3.31,0,6,2.69,6,6c0,3.31-2.69,6-6,6c-3.31,0-6-2.69-6-6
					C66.03,308.73,68.72,306.04,72.03,306.04 M72.03,301.04c-6.07,0-11,4.93-11,11c0,6.07,4.93,11,11,11s11-4.93,11-11
					C83.03,305.98,78.09,301.04,72.03,301.04L72.03,301.04z"/>
			</g>
		</g>
	</g>
	<g>
		<g>
			<path class="st21" d="M35.03,349.54c-1.51,0-2.98-0.64-4.02-1.75c-0.77-0.83-0.89-2.07-0.29-3.02l14.64-23.56
				c0.83-1.33,2.25-2.12,3.82-2.12c1.43,0,2.74,0.66,3.6,1.8l14.29,19.06l7.44-9.47c0.86-1.09,2.15-1.72,3.54-1.72
				c1.36,0,2.63,0.6,3.49,1.66l11.55,14.17c0.81,0.99,0.74,2.43-0.16,3.34c-1.04,1.05-2.43,1.63-3.9,1.63H35.03z"/>
		</g>
		<g>
			<g>
				<path class="st1" d="M49.19,321.58c0.6,0,1.2,0.26,1.6,0.8l16.25,21.66l9.46-12.03c0.4-0.51,0.99-0.76,1.57-0.76
					c0.57,0,1.15,0.25,1.55,0.74l11.55,14.17c-0.54,0.55-1.3,0.89-2.13,0.89h-54c-0.87,0-1.64-0.37-2.19-0.96l14.64-23.56
					C47.87,321.9,48.53,321.58,49.19,321.58 M49.19,316.58C49.19,316.58,49.19,316.58,49.19,316.58c-2.44,0-4.66,1.24-5.95,3.3
					L28.6,343.44c-1.19,1.92-0.95,4.4,0.59,6.05c1.51,1.62,3.64,2.55,5.84,2.55h54c2.15,0,4.16-0.84,5.68-2.37
					c1.8-1.82,1.94-4.7,0.33-6.68l-11.55-14.17c-1.34-1.64-3.31-2.58-5.43-2.58c-2.16,0-4.17,0.98-5.5,2.68l-5.43,6.91l-12.34-16.45
					C53.45,317.6,51.41,316.58,49.19,316.58L49.19,316.58L49.19,316.58z"/>
			</g>
		</g>
	</g>
</g>
</svg>
