<?xml version="1.0" encoding="utf-8"?>
<!-- Generator: Adobe Illustrator 26.5.0, SVG Export Plug-In . SVG Version: 6.00 Build 0)  -->
<svg version="1.1" id="chapter-02_00000084493632825100065280000014090466402417480881_"
	 xmlns="http://www.w3.org/2000/svg" xmlns:xlink="http://www.w3.org/1999/xlink" x="0px" y="0px" viewBox="0 0 300 300"
	 style="enable-background:new 0 0 300 300;" xml:space="preserve">
<style type="text/css">
	.st0{fill:#7DDF96;}
	.st1{fill:#515979;}
	.st2{fill:#00C853;}
	.st3{fill:none;}
	.st4{fill:#EF7D7D;}
	.st5{fill:#FFD886;}
</style>
<path class="st0" d="M176,190c-9.39,0-17-7.61-17-17s7.61-17,17-17c4.9,0,7.34,1.74,10,2.71V140h-28c-1.64-6.57,3-9.99,3-16
	c0-6.08-4.92-11-11-11s-11,4.92-11,11c0,6.01,4.64,9.43,3,16h-28v18.71c2.66-0.97,5.1-2.71,10-2.71c9.39,0,17,7.61,17,17
	s-7.61,17-17,17c-4.9,0-7.34-1.74-10-2.71V206h72v-18.71C183.34,188.26,180.9,190,176,190z"/>
<g>
	<path class="st1" d="M82,76v18.71C79.34,93.74,76.9,92,72,92c-9.39,0-17,7.61-17,17c0,9.39,7.61,17,17,17c3.74,0,7.19-1.22,10-3.27
		V142H54c-1.64,6.57,3,9.99,3,16c0,6.08-4.92,11-11,11s-11-4.92-11-11c0-6.01,4.64-9.43,3-16H10V76H82 M82,70H10c-3.31,0-6,2.69-6,6
		v66c0,3.31,2.69,6,6,6h21.54c-0.12,0.3-0.25,0.63-0.39,0.97C30.19,151.32,29,154.25,29,158c0,9.37,7.63,17,17,17s17-7.63,17-17
		c0-3.75-1.19-6.68-2.15-9.03c-0.14-0.35-0.27-0.67-0.39-0.97H82c3.31,0,6-2.69,6-6v-19.27c0-2.26-1.27-4.33-3.28-5.35
		c-0.86-0.44-1.79-0.65-2.72-0.65c-1.25,0-2.49,0.39-3.54,1.15c-1.9,1.39-4.14,2.12-6.46,2.12c-6.07,0-11-4.93-11-11s4.93-11,11-11
		c2.49,0,3.91,0.63,5.7,1.42c0.7,0.31,1.43,0.63,2.24,0.93c0.67,0.24,1.36,0.36,2.06,0.36c1.21,0,2.42-0.37,3.44-1.08
		c1.6-1.12,2.56-2.96,2.56-4.92V76C88,72.69,85.31,70,82,70L82,70z"/>
</g>
<path class="st0" d="M35,158c0,6.08,4.92,11,11,11s11-4.92,11-11c0-6.01-4.64-9.43-3-16h28v-19.27c-2.81,2.05-6.26,3.27-10,3.27
	c-9.39,0-17-7.61-17-17s7.61-17,17-17c4.9,0,7.34,1.74,10,2.71V76H10v66h28C39.64,148.57,35,151.99,35,158z"/>
<path class="st2" d="M47.53,143.17c-1.75-0.2-2.61-0.31-3.41-0.94c-0.43-0.34-0.63-0.74-0.63-1.29c0-1.63,1.12-2.35,3.55-2.35
	c1.95,0,2.89,0.72,3.67,2.21l0.34,0.66l3.32-1.49l-0.34-0.69c-1.12-2.29-2.63-3.61-5.27-3.98V133h-3.32v2.29
	c-3.67,0.49-5.61,2.55-5.61,5.64c0,4.35,3.47,5.36,7.05,5.67c1.29,0.11,2,0.23,2.84,0.54c0.83,0.34,1.23,0.89,1.23,1.78
	c0,1.69-1.32,2.52-3.95,2.52c-1.95,0-3.24-0.8-3.87-2.41l-0.29-0.74l-3.38,1.23l0.26,0.72c0.94,2.58,2.86,4.04,5.73,4.41V157h3.32
	v-2.38c3.54-0.52,5.58-2.5,5.75-5.4c-0.4-1.13-0.71-2.29-0.82-3.56c-0.2-0.33-0.43-0.62-0.67-0.83
	C51.68,143.65,49.22,143.31,47.53,143.17z"/>
<path class="st2" d="M47,128c7.38,0,13.5,6.04,14.75,14h10.31c0.22-5.62,1.04-11.05,2.4-16.19C73.66,125.93,72.84,126,72,126
	c-9.39,0-17-7.61-17-17s7.61-17,17-17c4.9,0,7.34,1.74,10,2.71V88H40c0,9.94-8.06,18-18,18v36h10.25C33.5,134.04,39.62,128,47,128z"
	/>
<g>
	<path class="st3" d="M72,92c4.9,0,7.34,1.74,10,2.71V76H10v66h28c1.64,6.57-3,9.99-3,16c0,6.08,4.92,11,11,11s11-4.92,11-11
		c0-6.01-4.64-9.43-3-16h28v-19.27c-2.81,2.05-6.26,3.27-10,3.27c-9.39,0-17-7.61-17-17S62.61,92,72,92z"/>
</g>
<path class="st1" d="M290,76v66h-28c-1.64,6.57,3,9.99,3,16c0,6.08-4.92,11-11,11s-11-4.92-11-11c0-6.01,4.64-9.43,3-16h-28v-19.27
	c2.81,2.05,6.26,3.27,10,3.27c9.39,0,17-7.61,17-17c0-9.39-7.61-17-17-17c-4.9,0-7.34,1.74-10,2.71V76H290 M290,70h-72
	c-3.31,0-6,2.69-6,6v18.71c0,1.96,0.96,3.79,2.56,4.92c1.02,0.71,2.23,1.08,3.44,1.08c0.69,0,1.39-0.12,2.06-0.36
	c0.81-0.3,1.54-0.62,2.24-0.93c1.8-0.79,3.22-1.42,5.7-1.42c6.07,0,11,4.93,11,11s-4.93,11-11,11c-2.33,0-4.56-0.73-6.46-2.12
	c-1.05-0.76-2.29-1.15-3.54-1.15c-0.93,0-1.86,0.21-2.72,0.65c-2.01,1.02-3.28,3.09-3.28,5.35V142c0,3.31,2.69,6,6,6h21.54
	c-0.12,0.3-0.25,0.63-0.39,0.97c-0.96,2.35-2.15,5.27-2.15,9.03c0,9.37,7.63,17,17,17s17-7.63,17-17c0-3.75-1.19-6.68-2.15-9.03
	c-0.14-0.35-0.27-0.67-0.39-0.97H290c3.31,0,6-2.69,6-6V76C296,72.69,293.31,70,290,70L290,70z"/>
<g>
	<path class="st0" d="M218,76v18.71c2.66-0.97,5.1-2.71,10-2.71c9.39,0,17,7.61,17,17s-7.61,17-17,17c-3.74,0-7.19-1.22-10-3.27V142
		h28c1.64,6.57-3,9.99-3,16c0,6.08,4.92,11,11,11s11-4.92,11-11c0-6.01-4.64-9.43-3-16h28V76H218z"/>
</g>
<path class="st2" d="M252.87,146.6c1.29,0.11,2,0.23,2.84,0.54c0.83,0.34,1.23,0.89,1.23,1.78c0,1.69-1.32,2.52-3.95,2.52
	c-1.95,0-3.24-0.8-3.87-2.41l-0.29-0.74l-3.38,1.23l0.26,0.72c0.94,2.58,2.86,4.04,5.73,4.41V157h3.32v-2.38
	c3.69-0.54,5.79-2.66,5.79-5.79c0-1.83-0.72-3.27-1.52-4.01c-1.35-1.17-3.81-1.52-5.5-1.66c-1.75-0.2-2.61-0.31-3.41-0.94
	c-0.43-0.34-0.63-0.74-0.63-1.29c0-1.63,1.12-2.35,3.55-2.35c1.95,0,2.89,0.72,3.67,2.21l0.34,0.66l3.32-1.49l-0.34-0.69
	c-1.12-2.29-2.63-3.61-5.27-3.98V133h-3.32v2.29c-3.67,0.49-5.61,2.55-5.61,5.64c0,0.38,0.04,0.73,0.09,1.07H246
	c0.1,0.41,0.18,0.81,0.24,1.2C247.25,145.66,250.02,146.35,252.87,146.6z"/>
<path class="st2" d="M260,88h-42v6.71c2.66-0.97,5.1-2.71,10-2.71c9.39,0,17,7.61,17,17s-7.61,17-17,17c-0.84,0-1.66-0.07-2.47-0.19
	c1.36,5.14,2.18,10.57,2.4,16.19h10.31c1.25-7.96,7.37-14,14.75-14c7.38,0,13.5,6.04,14.75,14H278v-36C268.06,106,260,97.94,260,88z
	"/>
<path class="st1" d="M280,200v66h-72v-25c-0.99-0.25-1.9-0.35-2.77-0.35c-4.89,0-8.13,3.35-13.23,3.35c-6.08,0-11-4.92-11-11
	s4.92-11,11-11c5.11,0,8.34,3.35,13.23,3.35c0.86,0,1.78-0.1,2.77-0.35v-25h21.71c-0.97,2.66-2.71,5.1-2.71,10c0,9.39,7.61,17,17,17
	s17-7.61,17-17c0-4.9-1.74-7.34-2.71-10H280 M280,194h-21.71c-1.96,0-3.79,0.96-4.92,2.56c-1.12,1.6-1.39,3.66-0.72,5.5
	c0.3,0.81,0.62,1.54,0.93,2.24c0.79,1.8,1.42,3.22,1.42,5.7c0,6.07-4.93,11-11,11s-11-4.93-11-11c0-2.49,0.63-3.91,1.42-5.7
	c0.31-0.7,0.63-1.43,0.93-2.24c0.67-1.84,0.4-3.89-0.72-5.5c-1.12-1.61-2.96-2.56-4.92-2.56H208c-3.31,0-6,2.69-6,6v18.54
	c-0.31-0.12-0.64-0.25-0.97-0.39c-2.35-0.96-5.27-2.15-9.03-2.15c-9.37,0-17,7.63-17,17s7.63,17,17,17c3.75,0,6.68-1.19,9.03-2.15
	c0.34-0.14,0.66-0.27,0.97-0.39V266c0,3.31,2.69,6,6,6h72c3.31,0,6-2.69,6-6v-66C286,196.69,283.31,194,280,194L280,194z"/>
<g>
	<path class="st0" d="M261,210c0,9.39-7.61,17-17,17s-17-7.61-17-17c0-4.9,1.74-7.34,2.71-10H208v25c-6.57,1.64-9.99-3-16-3
		c-6.08,0-11,4.92-11,11s4.92,11,11,11c6.01,0,9.43-4.64,16-3v25h72v-66h-21.71C259.26,202.66,261,205.1,261,210z"/>
</g>
<path class="st2" d="M268,236v-36h-9.71c0.97,2.66,2.71,5.1,2.71,10c0,9.39-7.61,17-17,17s-17-7.61-17-17c0-3.5,0.89-5.74,1.75-7.71
	c-0.21-0.74-0.38-1.51-0.5-2.29h-10.31c-0.61,15.85-6.06,30.15-14.59,40.82c1.4-0.24,2.92-0.26,4.66,0.18v13h42
	C250,244.06,258.06,236,268,236z"/>
<path class="st3" d="M258.29,200c0.97,2.66,2.71,5.1,2.71,10c0,9.39-7.61,17-17,17s-17-7.61-17-17c0-4.9,1.74-7.34,2.71-10H208v25
	c-6.57,1.64-9.99-3-16-3c-6.08,0-11,4.92-11,11s4.92,11,11,11c6.01,0,9.43-4.64,16-3v25h72v-66H258.29z"/>
<path class="st1" d="M92,200v25c0.99,0.25,1.9,0.35,2.77,0.35c4.89,0,8.13-3.35,13.23-3.35c6.08,0,11,4.92,11,11s-4.92,11-11,11
	c-5.11,0-8.34-3.35-13.23-3.35c-0.86,0-1.78,0.1-2.77,0.35v25H20v-66h21.71c-0.97,2.66-2.71,5.1-2.71,10c0,9.39,7.61,17,17,17
	s17-7.61,17-17c0-4.9-1.74-7.34-2.71-10H92 M92,194H70.29c-1.96,0-3.79,0.96-4.92,2.56c-1.12,1.6-1.39,3.66-0.72,5.5
	c0.3,0.81,0.62,1.54,0.93,2.24c0.79,1.8,1.42,3.22,1.42,5.7c0,6.07-4.93,11-11,11s-11-4.93-11-11c0-2.49,0.63-3.91,1.42-5.7
	c0.31-0.7,0.63-1.43,0.93-2.24c0.67-1.84,0.4-3.89-0.72-5.5c-1.12-1.61-2.96-2.56-4.92-2.56H20c-3.31,0-6,2.69-6,6v66
	c0,3.31,2.69,6,6,6h72c3.31,0,6-2.69,6-6v-18.54c0.31,0.12,0.64,0.25,0.97,0.39c2.35,0.96,5.27,2.15,9.03,2.15c9.37,0,17-7.63,17-17
	s-7.63-17-17-17c-3.75,0-6.68,1.19-9.03,2.15c-0.34,0.14-0.66,0.27-0.97,0.39V200C98,196.69,95.31,194,92,194L92,194z"/>
<path class="st0" d="M108,244c6.08,0,11-4.92,11-11s-4.92-11-11-11c-6.01,0-9.43,4.64-16,3v-25H70.29c0.97,2.66,2.71,5.1,2.71,10
	c0,9.39-7.61,17-17,17s-17-7.61-17-17c0-4.9,1.74-7.34,2.71-10H20v66h72v-25C98.57,239.36,101.99,244,108,244z"/>
<path class="st2" d="M71.75,200c-0.12,0.78-0.29,1.55-0.5,2.29C72.11,204.26,73,206.5,73,210c0,9.39-7.61,17-17,17s-17-7.61-17-17
	c0-4.9,1.74-7.34,2.71-10H32v36c9.94,0,18,8.06,18,18h42v-13c1.74-0.43,3.25-0.42,4.66-0.18c-8.53-10.67-13.98-24.98-14.59-40.82
	H71.75z"/>
<path class="st3" d="M108,222c-6.01,0-9.43,4.64-16,3v-25H70.29c0.97,2.66,2.71,5.1,2.71,10c0,9.39-7.61,17-17,17s-17-7.61-17-17
	c0-4.9,1.74-7.34,2.71-10H20v66h72v-25c6.57-1.64,9.99,3,16,3c6.08,0,11-4.92,11-11S114.08,222,108,222z"/>
<g>
	<path class="st1" d="M150,113c6.08,0,11,4.92,11,11c0,6.01-4.64,9.43-3,16h28v18.71c-2.66-0.97-5.1-2.71-10-2.71
		c-9.39,0-17,7.61-17,17s7.61,17,17,17c4.9,0,7.34-1.74,10-2.71V206h-72v-18.71c2.66,0.97,5.1,2.71,10,2.71c9.39,0,17-7.61,17-17
		s-7.61-17-17-17c-4.9,0-7.34,1.74-10,2.71V140h28c1.64-6.57-3-9.99-3-16C139,117.92,143.92,113,150,113 M150,107
		c-9.37,0-17,7.63-17,17c0,3.75,1.19,6.68,2.15,9.03c0.14,0.35,0.27,0.67,0.39,0.97H114c-3.31,0-6,2.69-6,6v18.71
		c0,1.96,0.96,3.79,2.56,4.92c1.02,0.71,2.23,1.08,3.44,1.08c0.69,0,1.39-0.12,2.06-0.36c0.81-0.3,1.54-0.62,2.24-0.93
		c1.8-0.79,3.22-1.42,5.7-1.42c6.07,0,11,4.93,11,11s-4.93,11-11,11c-2.49,0-3.91-0.63-5.7-1.42c-0.7-0.31-1.43-0.63-2.24-0.93
		c-0.67-0.24-1.36-0.36-2.06-0.36c-1.21,0-2.42,0.37-3.44,1.08c-1.61,1.12-2.56,2.96-2.56,4.92V206c0,3.31,2.69,6,6,6h72
		c3.31,0,6-2.69,6-6v-18.71c0-1.96-0.96-3.79-2.56-4.92c-1.02-0.71-2.23-1.08-3.44-1.08c-0.69,0-1.39,0.12-2.06,0.36
		c-0.81,0.3-1.54,0.62-2.24,0.93c-1.8,0.79-3.22,1.42-5.7,1.42c-6.07,0-11-4.93-11-11s4.93-11,11-11c2.49,0,3.91,0.63,5.7,1.42
		c0.7,0.31,1.43,0.63,2.24,0.93c0.67,0.24,1.36,0.36,2.06,0.36c1.21,0,2.42-0.37,3.44-1.08c1.6-1.12,2.56-2.96,2.56-4.92V140
		c0-3.31-2.69-6-6-6h-21.54c0.12-0.3,0.25-0.63,0.39-0.97c0.96-2.35,2.15-5.27,2.15-9.03C167,114.63,159.37,107,150,107L150,107z"/>
</g>
<path class="st2" d="M121.72,189.86c-3.45-0.43-5.51-1.76-7.72-2.57V194h13.84C125.72,192.79,123.68,191.4,121.72,189.86z"/>
<path class="st2" d="M178.28,189.86c-1.96,1.54-4,2.93-6.12,4.14H186v-6.71C183.79,188.1,181.73,189.43,178.28,189.86z"/>
<path class="st1" d="M186,16v25c0.99,0.25,1.9,0.35,2.77,0.35c4.89,0,8.13-3.35,13.23-3.35c6.08,0,11,4.92,11,11s-4.92,11-11,11
	c-5.11,0-8.34-3.35-13.23-3.35c-0.86,0-1.78,0.1-2.77,0.35v25h-21.71c0.97-2.66,2.71-5.1,2.71-10c0-9.39-7.61-17-17-17
	s-17,7.61-17,17c0,4.9,1.74,7.34,2.71,10H114V57c-0.99-0.25-1.9-0.35-2.77-0.35c-4.89,0-8.13,3.35-13.23,3.35c-6.08,0-11-4.92-11-11
	s4.92-11,11-11c5.11,0,8.34,3.35,13.23,3.35c0.86,0,1.78-0.1,2.77-0.35V16H186 M186,10h-72c-3.31,0-6,2.69-6,6v18.54
	c-0.31-0.12-0.64-0.25-0.97-0.39C104.68,33.19,101.76,32,98,32c-9.37,0-17,7.63-17,17s7.63,17,17,17c3.75,0,6.68-1.19,9.03-2.15
	c0.34-0.14,0.66-0.27,0.97-0.39V82c0,3.31,2.69,6,6,6h21.71c1.96,0,3.79-0.96,4.92-2.56c1.12-1.6,1.39-3.66,0.72-5.5
	c-0.3-0.81-0.62-1.54-0.93-2.24c-0.79-1.8-1.42-3.22-1.42-5.7c0-6.07,4.93-11,11-11s11,4.93,11,11c0,2.49-0.63,3.91-1.42,5.7
	c-0.31,0.7-0.63,1.43-0.93,2.24c-0.67,1.84-0.4,3.89,0.72,5.5c1.12,1.61,2.96,2.56,4.92,2.56H186c3.31,0,6-2.69,6-6V63.46
	c0.31,0.12,0.64,0.25,0.97,0.39c2.35,0.96,5.27,2.15,9.03,2.15c9.37,0,17-7.63,17-17s-7.63-17-17-17c-3.75,0-6.68,1.19-9.03,2.15
	c-0.34,0.14-0.66,0.27-0.97,0.39V16C192,12.69,189.31,10,186,10L186,10z"/>
<path class="st0" d="M98,38c-6.08,0-11,4.92-11,11s4.92,11,11,11c6.01,0,9.43-4.64,16-3v25h21.71c-0.97-2.66-2.71-5.1-2.71-10
	c0-9.39,7.61-17,17-17s17,7.61,17,17c0,4.9-1.74,7.34-2.71,10H186V57c6.57-1.64,9.99,3,16,3c6.08,0,11-4.92,11-11s-4.92-11-11-11
	c-6.01,0-9.43,4.64-16,3V16h-72v25C107.43,42.64,104.01,38,98,38z"/>
<path class="st2" d="M98,38c-6.08,0-11,4.92-11,11s4.92,11,11,11c1.69,0,3.17-0.37,4.58-0.86c2.48-6.66,5.88-12.7,10.02-17.88
	C106.91,41.97,103.56,38,98,38z"/>
<path class="st2" d="M127.84,28H114v11.56C118.05,34.86,122.71,30.93,127.84,28z"/>
<path class="st2" d="M213,49c0-6.08-4.92-11-11-11c-5.56,0-8.91,3.97-14.6,3.26c4.13,5.18,7.54,11.22,10.02,17.88
	c1.41,0.49,2.89,0.86,4.58,0.86C208.08,60,213,55.08,213,49z"/>
<path class="st2" d="M186,39.56V28h-13.84C177.29,30.93,181.95,34.86,186,39.56z"/>
<path class="st1" d="M154.12,25.51c2.78-2.58,6.97-3.26,10.39-1.6c1.91,0.86,4.6,3.67,2.17,5.39c-0.59,0.39-1.28,0.32-1.93,0.22
	c-1.59-0.26-2.63-0.47-4.15-0.52c-1.67-0.1-3.58,0.19-5.29-0.02C153.64,28.88,152.88,26.62,154.12,25.51L154.12,25.51z"/>
<path class="st1" d="M144,29.05c-3.04-0.03-5.77-0.19-8.77,0.48c0,0-0.59,0.07-0.59,0.07c-1.67,0.26-2.92-1.74-2-3.12
	c2-3.36,6.73-4.18,10.17-2.85c1.75,0.62,5.02,2.56,3.13,4.74C145.45,28.93,144.69,29,144,29.05L144,29.05z"/>
<path class="st1" d="M144,39.5c-1.38,0-2.5-1.12-2.5-2.5c0-0.83-0.67-1.5-1.5-1.5s-1.5,0.67-1.5,1.5c0,1.38-1.12,2.5-2.5,2.5
	s-2.5-1.12-2.5-2.5c0-3.58,2.92-6.5,6.5-6.5s6.5,2.92,6.5,6.5C146.5,38.38,145.38,39.5,144,39.5z"/>
<path class="st1" d="M164,39.5c-1.38,0-2.5-1.12-2.5-2.5c0-0.83-0.67-1.5-1.5-1.5s-1.5,0.67-1.5,1.5c0,1.38-1.12,2.5-2.5,2.5
	s-2.5-1.12-2.5-2.5c0-3.58,2.92-6.5,6.5-6.5s6.5,2.92,6.5,6.5C166.5,38.38,165.38,39.5,164,39.5z"/>
<path class="st1" d="M150,49.51c-4.08,0-8.15-1.1-12.2-3.31c-1.21-0.66-1.66-2.18-1-3.39c0.66-1.21,2.18-1.66,3.39-1
	c6.6,3.6,13.01,3.6,19.61,0c1.21-0.66,2.73-0.21,3.39,1c0.66,1.21,0.21,2.73-1,3.39C158.15,48.4,154.08,49.51,150,49.51z"/>
<path class="st1" d="M247.62,232.01c2.78-2.58,6.97-3.26,10.39-1.6c1.91,0.86,4.6,3.67,2.17,5.39c-0.59,0.39-1.28,0.32-1.93,0.22
	c-1.59-0.26-2.63-0.47-4.15-0.52c-1.67-0.1-3.58,0.19-5.29-0.02C247.14,235.38,246.38,233.12,247.62,232.01L247.62,232.01z"/>
<path class="st1" d="M237.5,235.55c-3.04-0.03-5.77-0.19-8.77,0.48c0,0-0.59,0.07-0.59,0.07c-1.67,0.26-2.92-1.74-2-3.12
	c2-3.36,6.73-4.18,10.17-2.85c1.75,0.62,5.02,2.56,3.13,4.74C238.95,235.43,238.19,235.5,237.5,235.55L237.5,235.55z"/>
<g>
	<path class="st1" d="M237.5,246c-1.38,0-2.5-1.12-2.5-2.5c0-0.83-0.67-1.5-1.5-1.5s-1.5,0.67-1.5,1.5c0,1.38-1.12,2.5-2.5,2.5
		s-2.5-1.12-2.5-2.5c0-3.58,2.92-6.5,6.5-6.5s6.5,2.92,6.5,6.5C240,244.88,238.88,246,237.5,246z"/>
</g>
<g>
	<path class="st1" d="M257.5,246c-1.38,0-2.5-1.12-2.5-2.5c0-0.83-0.67-1.5-1.5-1.5s-1.5,0.67-1.5,1.5c0,1.38-1.12,2.5-2.5,2.5
		s-2.5-1.12-2.5-2.5c0-3.58,2.92-6.5,6.5-6.5s6.5,2.92,6.5,6.5C260,244.88,258.88,246,257.5,246z"/>
</g>
<g>
	<path class="st1" d="M243.5,256.01c-4.08,0-8.15-1.1-12.2-3.31c-1.21-0.66-1.66-2.18-1-3.39c0.66-1.21,2.18-1.66,3.39-1
		c6.6,3.6,13.01,3.6,19.61,0c1.21-0.66,2.73-0.22,3.39,1c0.66,1.21,0.21,2.73-1,3.39C251.65,254.9,247.58,256.01,243.5,256.01z"/>
</g>
<path class="st1" d="M60.62,232.01c2.78-2.58,6.97-3.26,10.39-1.6c1.91,0.86,4.6,3.67,2.17,5.39c-0.59,0.39-1.28,0.32-1.93,0.22
	c-1.59-0.26-2.63-0.47-4.15-0.52c-1.67-0.1-3.58,0.19-5.29-0.02C60.14,235.38,59.38,233.12,60.62,232.01L60.62,232.01z"/>
<path class="st1" d="M50.5,235.55c-3.04-0.03-5.77-0.19-8.77,0.48c0,0-0.59,0.07-0.59,0.07c-1.67,0.26-2.92-1.74-2-3.12
	c2-3.36,6.73-4.18,10.17-2.85c1.75,0.62,5.02,2.56,3.13,4.74C51.95,235.43,51.19,235.5,50.5,235.55L50.5,235.55z"/>
<path class="st1" d="M50.5,246c-1.38,0-2.5-1.12-2.5-2.5c0-0.83-0.67-1.5-1.5-1.5s-1.5,0.67-1.5,1.5c0,1.38-1.12,2.5-2.5,2.5
	s-2.5-1.12-2.5-2.5c0-3.58,2.92-6.5,6.5-6.5s6.5,2.92,6.5,6.5C53,244.88,51.88,246,50.5,246z"/>
<path class="st1" d="M70.5,246c-1.38,0-2.5-1.12-2.5-2.5c0-0.83-0.67-1.5-1.5-1.5s-1.5,0.67-1.5,1.5c0,1.38-1.12,2.5-2.5,2.5
	s-2.5-1.12-2.5-2.5c0-3.58,2.92-6.5,6.5-6.5s6.5,2.92,6.5,6.5C73,244.88,71.88,246,70.5,246z"/>
<path class="st1" d="M56.5,256.01c-4.08,0-8.15-1.1-12.2-3.31c-1.21-0.66-1.66-2.18-1-3.39c0.66-1.21,2.18-1.66,3.39-1
	c6.6,3.6,13.01,3.6,19.61,0c1.21-0.66,2.73-0.21,3.39,1c0.66,1.21,0.21,2.73-1,3.39C64.65,254.9,60.58,256.01,56.5,256.01z"/>
<g>
	<path class="st1" d="M146.37,146.12c-1.06,0.25-2.71,0.28-3.82,0.41c-1.31,0.09-2.79,0.3-4.15,0.2c-0.97-0.05-1.72-0.88-1.67-1.85
		c0.16-1.38,1.62-2.17,2.74-2.69c2.63-1.08,5.66-0.88,8.04,0.8c1.14,0.77,0.78,2.66-0.54,2.97
		C146.97,145.96,146.37,146.12,146.37,146.12L146.37,146.12z"/>
</g>
<g>
	<path class="st1" d="M152.49,142.98c2.38-1.68,5.41-1.88,8.04-0.8c1.55,0.57,3.85,2.46,2.16,4.1c-0.4,0.37-0.9,0.46-1.4,0.46
		c-1.25,0.05-2.64-0.14-3.84-0.22c-1.36-0.16-3.12-0.15-4.42-0.57C151.7,145.64,151.37,143.74,152.49,142.98L152.49,142.98z"/>
</g>
<g>
	<path class="st1" d="M146,155.77c-1.38,0-2.5-1.12-2.5-2.5c0-0.28-0.22-0.5-0.5-0.5s-0.5,0.22-0.5,0.5c0,1.38-1.12,2.5-2.5,2.5
		s-2.5-1.12-2.5-2.5c0-3.03,2.47-5.5,5.5-5.5s5.5,2.47,5.5,5.5C148.5,154.65,147.38,155.77,146,155.77z"/>
</g>
<g>
	<path class="st1" d="M160,155.77c-1.38,0-2.5-1.12-2.5-2.5c0-0.28-0.22-0.5-0.5-0.5s-0.5,0.22-0.5,0.5c0,1.38-1.12,2.5-2.5,2.5
		s-2.5-1.12-2.5-2.5c0-3.03,2.47-5.5,5.5-5.5s5.5,2.47,5.5,5.5C162.5,154.65,161.38,155.77,160,155.77z"/>
</g>
<g>
	<path class="st1" d="M150,165.48c-3.49,0-6.99-1.13-10.39-3.4c-1.15-0.77-1.46-2.32-0.69-3.47c0.77-1.15,2.32-1.46,3.47-0.69
		c5.19,3.46,10.03,3.46,15.23,0c1.15-0.77,2.7-0.46,3.47,0.69c0.77,1.15,0.46,2.7-0.69,3.47C156.99,164.34,153.49,165.48,150,165.48
		z"/>
</g>
<g>
	<path class="st1" d="M36.18,92.51c3.59-3.47,10.46-3.49,13.23,0.96c0.94,1.4-0.35,3.38-1.99,3.12c-0.96-0.08-2-0.36-2.78-0.42
		c-2.36-0.4-4.85,0.03-7.26-0.19C35.7,95.88,34.94,93.62,36.18,92.51L36.18,92.51z"/>
</g>
<g>
	<path class="st1" d="M28.06,96.05c-3.04-0.03-5.77-0.19-8.77,0.48c0,0-0.59,0.07-0.59,0.07c-1.67,0.26-2.92-1.74-2-3.12
		c2-3.36,6.73-4.18,10.17-2.85c1.75,0.62,5.02,2.56,3.13,4.74C29.51,95.93,28.75,96,28.06,96.05L28.06,96.05z"/>
</g>
<g>
	<path class="st1" d="M28.06,106.5c-1.38,0-2.5-1.12-2.5-2.5c0-0.83-0.67-1.5-1.5-1.5s-1.5,0.67-1.5,1.5c0,1.38-1.12,2.5-2.5,2.5
		s-2.5-1.12-2.5-2.5c0-3.58,2.92-6.5,6.5-6.5s6.5,2.92,6.5,6.5C30.56,105.38,29.44,106.5,28.06,106.5z"/>
</g>
<g>
	<path class="st1" d="M46.06,106.5c-1.38,0-2.5-1.12-2.5-2.5c0-0.83-0.67-1.5-1.5-1.5s-1.5,0.67-1.5,1.5c0,1.38-1.12,2.5-2.5,2.5
		s-2.5-1.12-2.5-2.5c0-3.58,2.92-6.5,6.5-6.5s6.5,2.92,6.5,6.5C48.56,105.38,47.44,106.5,46.06,106.5z"/>
</g>
<path class="st1" d="M42.07,109h-18c-2.76,0-5,2.24-5,5c0,7.72,6.28,14,14,14c7.65,0,13.89-6.17,14-13.8c0-0.07,0-0.13,0-0.2
	C47.06,111.24,44.83,109,42.07,109z"/>
<g>
	<path class="st4" d="M33.06,123c2.66,0,5.05-1.16,6.69-3c-1.65-1.84-4.03-3-6.69-3s-5.05,1.16-6.69,3
		C28.01,121.84,30.4,123,33.06,123z"/>
</g>
<path class="st1" d="M268.62,94.51c2.78-2.58,6.97-3.26,10.39-1.6c1.91,0.86,4.6,3.67,2.17,5.39c-0.59,0.39-1.28,0.32-1.93,0.22
	c-1.59-0.26-2.63-0.47-4.15-0.52c-1.67-0.1-3.58,0.19-5.29-0.02C268.14,97.88,267.38,95.62,268.62,94.51L268.62,94.51z"/>
<path class="st1" d="M260.5,98.05c-3.04-0.03-5.77-0.19-8.77,0.48c0,0-0.59,0.07-0.59,0.07c-1.67,0.26-2.92-1.74-2-3.12
	c2-3.36,6.73-4.18,10.17-2.85c1.75,0.62,5.02,2.56,3.13,4.74C261.95,97.93,261.19,98,260.5,98.05L260.5,98.05z"/>
<path class="st1" d="M260.5,108.5c-1.38,0-2.5-1.12-2.5-2.5c0-0.83-0.67-1.5-1.5-1.5s-1.5,0.67-1.5,1.5c0,1.38-1.12,2.5-2.5,2.5
	s-2.5-1.12-2.5-2.5c0-3.58,2.92-6.5,6.5-6.5s6.5,2.92,6.5,6.5C263,107.38,261.88,108.5,260.5,108.5z"/>
<path class="st1" d="M278.5,108.5c-1.38,0-2.5-1.12-2.5-2.5c0-0.83-0.67-1.5-1.5-1.5s-1.5,0.67-1.5,1.5c0,1.38-1.12,2.5-2.5,2.5
	s-2.5-1.12-2.5-2.5c0-3.58,2.92-6.5,6.5-6.5s6.5,2.92,6.5,6.5C281,107.38,279.88,108.5,278.5,108.5z"/>
<path class="st1" d="M274.51,111H256.5c-2.76,0-5,2.24-5,5c0,7.72,6.28,14,14,14c7.65,0,13.89-6.17,14-13.8c0-0.07,0-0.13,0-0.2
	C279.5,113.24,277.27,111,274.51,111z"/>
<path class="st4" d="M265.5,125c2.66,0,5.05-1.16,6.69-3c-1.65-1.84-4.03-3-6.69-3s-5.05,1.16-6.69,3
	C260.45,123.84,262.84,125,265.5,125z"/>
<rect class="st3" width="300" height="300"/>
<path class="st5" d="M166.4,243.4c-2.65,0-4.8-2.15-4.8-4.8c0-0.88-0.72-1.6-1.6-1.6c-0.88,0-1.6,0.72-1.6,1.6
	c0,2.65-2.15,4.8-4.8,4.8c-0.88,0-1.6,0.72-1.6,1.6s0.72,1.6,1.6,1.6c2.65,0,4.8,2.15,4.8,4.8c0,0.88,0.72,1.6,1.6,1.6
	c0.88,0,1.6-0.72,1.6-1.6c0-2.65,2.15-4.8,4.8-4.8c0.88,0,1.6-0.72,1.6-1.6S167.28,243.4,166.4,243.4z"/>
<path class="st5" d="M229,178c-1.65,0-3-1.35-3-3c0-0.55-0.45-1-1-1c-0.55,0-1,0.45-1,1c0,1.65-1.35,3-3,3c-0.55,0-1,0.45-1,1
	s0.45,1,1,1c1.65,0,3,1.35,3,3c0,0.55,0.45,1,1,1c0.55,0,1-0.45,1-1c0-1.65,1.35-3,3-3c0.55,0,1-0.45,1-1S229.55,178,229,178z"/>
<path class="st5" d="M24.4,48.4c-2.65,0-4.8-2.15-4.8-4.8c0-0.88-0.72-1.6-1.6-1.6c-0.88,0-1.6,0.72-1.6,1.6
	c0,2.65-2.15,4.8-4.8,4.8c-0.88,0-1.6,0.72-1.6,1.6s0.72,1.6,1.6,1.6c2.65,0,4.8,2.15,4.8,4.8c0,0.88,0.72,1.6,1.6,1.6
	c0.88,0,1.6-0.72,1.6-1.6c0-2.65,2.15-4.8,4.8-4.8c0.88,0,1.6-0.72,1.6-1.6S25.28,48.4,24.4,48.4z"/>
<circle class="st5" cx="44" cy="15" r="3"/>
<circle class="st5" cx="156" cy="277" r="3"/>
<path class="st5" d="M125.2,281.2c-2.98,0-5.4-2.42-5.4-5.4c0-0.99-0.81-1.8-1.8-1.8c-0.99,0-1.8,0.81-1.8,1.8
	c0,2.98-2.42,5.4-5.4,5.4c-0.99,0-1.8,0.81-1.8,1.8s0.81,1.8,1.8,1.8c2.98,0,5.4,2.42,5.4,5.4c0,0.99,0.81,1.8,1.8,1.8
	c0.99,0,1.8-0.81,1.8-1.8c0-2.98,2.42-5.4,5.4-5.4c0.99,0,1.8-0.81,1.8-1.8S126.19,281.2,125.2,281.2z"/>
<path class="st5" d="M245.2,20.2c-2.98,0-5.4-2.42-5.4-5.4c0-0.99-0.81-1.8-1.8-1.8c-0.99,0-1.8,0.81-1.8,1.8
	c0,2.98-2.42,5.4-5.4,5.4c-0.99,0-1.8,0.81-1.8,1.8s0.81,1.8,1.8,1.8c2.98,0,5.4,2.42,5.4,5.4c0,0.99,0.81,1.8,1.8,1.8
	c0.99,0,1.8-0.81,1.8-1.8c0-2.98,2.42-5.4,5.4-5.4c0.99,0,1.8-0.81,1.8-1.8S246.19,20.2,245.2,20.2z"/>
<circle class="st5" cx="85" cy="283.5" r="2.5"/>
<circle class="st5" cx="210" cy="161" r="2"/>
<circle class="st5" cx="118" cy="256" r="3"/>
<circle class="st5" cx="124" cy="100" r="3"/>
<circle class="st5" cx="104" cy="119" r="2"/>
<circle class="st5" cx="185" cy="277.5" r="4.5"/>
<circle class="st5" cx="274" cy="19" r="3"/>
<circle class="st5" cx="266" cy="50" r="4"/>
<path class="st5" d="M65,42h-5v-5c0-1.66-1.34-3-3-3s-3,1.34-3,3v5h-5c-1.66,0-3,1.34-3,3s1.34,3,3,3h5v5c0,1.66,1.34,3,3,3
	s3-1.34,3-3v-5h5c1.66,0,3-1.34,3-3S66.66,42,65,42z"/>
<rect class="st3" width="300" height="300"/>
</svg>
