<?xml version="1.0" encoding="utf-8"?>
<!-- Generator: Adobe Illustrator 26.0.2, SVG Export Plug-In . SVG Version: 6.00 Build 0)  -->
<svg version="1.1" id="CRO_x5F_Hub-Call_x5F_Tracking_x5F_Platforms"
	 xmlns="http://www.w3.org/2000/svg" xmlns:xlink="http://www.w3.org/1999/xlink" x="0px" y="0px" viewBox="0 0 400 400"
	 style="enable-background:new 0 0 400 400;" xml:space="preserve">
<style type="text/css">
	.st0{fill:#515979;}
	.st1{fill:#FFFFFF;}
	.st2{fill:#667683;}
	.st3{fill:#EF7D7D;}
	.st4{fill:#FFE8A0;}
	.st5{fill:#7DDF96;}
	.st6{fill:#FDE1D9;}
	.st7{fill:#B4ECFB;}
	.st8{fill:#D8F5DF;}
	.st9{fill:#6ADAF7;}
	.st10{fill:#F89D81;}
	.st11{fill:#747A94;}
	.st12{fill:#D8EBFB;}
	.st13{fill:#F3F9FE;}
	.st14{fill:#FFD886;}
	.st15{fill:none;}
</style>
<g>
	<path class="st0" d="M195.86,351.58h-0.59c-1.48,0-2.98-0.02-4.46-0.07c-0.83-0.03-1.48-0.72-1.45-1.54
		c0.03-0.83,0.72-1.51,1.55-1.45c1.45,0.04,2.92,0.07,4.38,0.07h0.57c0,0,0.01,0,0.01,0c0.83,0,1.5,0.67,1.5,1.49
		C197.36,350.9,196.69,351.58,195.86,351.58z M204.84,351.27c-0.78,0-1.44-0.61-1.5-1.4c-0.05-0.83,0.57-1.54,1.4-1.6
		c1.65-0.11,3.31-0.25,4.93-0.41c0.81-0.1,1.56,0.52,1.64,1.34c0.08,0.82-0.52,1.56-1.34,1.64c-1.65,0.17-3.35,0.31-5.03,0.42
		C204.91,351.27,204.88,351.27,204.84,351.27z M181.88,350.96c-0.05,0-0.09,0-0.14-0.01c-1.66-0.15-3.35-0.34-5.02-0.55
		c-0.82-0.11-1.4-0.86-1.3-1.68c0.1-0.82,0.86-1.4,1.68-1.3c1.64,0.21,3.29,0.39,4.92,0.54c0.82,0.08,1.43,0.81,1.35,1.63
		C183.3,350.38,182.65,350.96,181.88,350.96z M218.74,349.66c-0.72,0-1.36-0.52-1.48-1.26c-0.13-0.82,0.42-1.59,1.24-1.72
		c1.61-0.26,3.24-0.56,4.86-0.89c0.81-0.16,1.6,0.36,1.77,1.17c0.16,0.81-0.36,1.6-1.17,1.77c-1.66,0.33-3.33,0.64-4.97,0.91
		C218.9,349.66,218.82,349.66,218.74,349.66z M168.03,348.99c-0.09,0-0.19-0.01-0.29-0.03c-1.64-0.32-3.3-0.67-4.94-1.04
		c-0.81-0.19-1.31-0.99-1.13-1.8s0.99-1.32,1.8-1.13c1.6,0.37,3.23,0.71,4.84,1.02c0.81,0.16,1.35,0.94,1.19,1.76
		C169.36,348.49,168.74,348.99,168.03,348.99z M232.42,346.71c-0.66,0-1.27-0.44-1.45-1.11c-0.21-0.8,0.26-1.62,1.06-1.84
		c1.59-0.43,3.19-0.89,4.75-1.37c0.79-0.24,1.63,0.2,1.87,1c0.24,0.79-0.2,1.63-1,1.87c-1.6,0.49-3.23,0.96-4.85,1.39
		C232.68,346.69,232.54,346.71,232.42,346.71z M154.44,345.66c-0.14,0-0.29-0.02-0.43-0.06c-1.59-0.47-3.21-0.99-4.81-1.53
		c-0.79-0.26-1.21-1.11-0.94-1.9s1.11-1.21,1.9-0.94c1.57,0.53,3.16,1.03,4.72,1.49c0.79,0.24,1.25,1.07,1.01,1.87
		C155.69,345.24,155.09,345.66,154.44,345.66z M245.74,342.42c-0.61,0-1.18-0.37-1.4-0.97c-0.29-0.77,0.1-1.64,0.87-1.93
		c1.52-0.58,3.07-1.19,4.58-1.82c0.76-0.32,1.64,0.04,1.96,0.81c0.32,0.76-0.04,1.64-0.81,1.96c-1.55,0.65-3.12,1.27-4.68,1.86
		C246.09,342.39,245.91,342.42,245.74,342.42z M141.23,341.01c-0.19,0-0.38-0.04-0.57-0.11c-1.55-0.63-3.11-1.31-4.65-2
		c-0.76-0.34-1.09-1.23-0.75-1.98c0.34-0.76,1.23-1.09,1.98-0.75c1.51,0.68,3.04,1.34,4.56,1.96c0.77,0.31,1.13,1.19,0.82,1.96
		C142.38,340.66,141.82,341.01,141.23,341.01z M258.54,336.85c-0.55,0-1.08-0.31-1.35-0.84c-0.37-0.74-0.06-1.64,0.68-2.01
		c1.47-0.73,2.95-1.49,4.38-2.26c0.73-0.39,1.64-0.12,2.03,0.61s0.12,1.64-0.61,2.03c-1.47,0.79-2.97,1.57-4.48,2.31
		C258.99,336.8,258.76,336.85,258.54,336.85z M128.54,335.07c-0.24,0-0.48-0.06-0.7-0.17c-1.47-0.78-2.96-1.6-4.43-2.44
		c-0.72-0.41-0.97-1.33-0.55-2.05c0.41-0.72,1.33-0.96,2.05-0.55c1.44,0.83,2.9,1.63,4.34,2.39c0.73,0.39,1.01,1.3,0.62,2.03
		C129.59,334.78,129.07,335.07,128.54,335.07z M270.75,330.05c-0.5,0-0.99-0.25-1.27-0.71c-0.44-0.7-0.22-1.63,0.48-2.07
		c1.39-0.87,2.79-1.77,4.15-2.69c0.69-0.46,1.62-0.28,2.08,0.41c0.46,0.69,0.28,1.62-0.41,2.08c-1.39,0.93-2.81,1.85-4.23,2.74
		C271.29,329.98,271.02,330.05,270.75,330.05z M116.49,327.92c-0.28,0-0.57-0.08-0.83-0.25c-1.39-0.92-2.79-1.88-4.17-2.86
		c-0.67-0.48-0.83-1.42-0.35-2.09c0.48-0.67,1.42-0.83,2.09-0.35c1.35,0.96,2.72,1.91,4.08,2.8c0.69,0.46,0.88,1.39,0.42,2.08
		C117.46,327.69,116.98,327.92,116.49,327.92z M282.24,322.09c-0.45,0-0.9-0.2-1.19-0.59c-0.5-0.66-0.38-1.6,0.28-2.1
		c1.29-0.99,2.59-2.02,3.87-3.08c0.64-0.53,1.58-0.43,2.11,0.2c0.53,0.64,0.44,1.58-0.2,2.11c-1.3,1.07-2.63,2.13-3.95,3.14
		C282.88,321.99,282.55,322.09,282.24,322.09z M105.21,319.64c-0.33,0-0.67-0.11-0.95-0.34c-1.29-1.05-2.59-2.14-3.86-3.25
		c-0.62-0.54-0.69-1.49-0.15-2.12c0.54-0.62,1.49-0.69,2.12-0.15c1.25,1.09,2.53,2.16,3.79,3.19c0.64,0.52,0.74,1.47,0.22,2.11
		C106.08,319.45,105.65,319.64,105.21,319.64z M292.9,313.04c-0.4,0-0.8-0.16-1.1-0.48c-0.57-0.61-0.53-1.55,0.07-2.12
		c1.19-1.12,2.39-2.27,3.55-3.44c0.58-0.59,1.54-0.59,2.12,0c0.59,0.58,0.59,1.53,0,2.12c-1.19,1.19-2.41,2.37-3.63,3.51
		C293.64,312.91,293.27,313.04,292.9,313.04z M94.79,310.29c-0.38,0-0.76-0.14-1.06-0.43c-1.18-1.17-2.37-2.38-3.53-3.61
		c-0.57-0.6-0.54-1.55,0.06-2.12c0.6-0.57,1.55-0.54,2.12,0.06c1.14,1.21,2.3,2.4,3.46,3.54c0.59,0.58,0.59,1.53,0.01,2.12
		C95.57,310.14,95.18,310.29,94.79,310.29z M302.64,303c-0.35,0-0.71-0.12-0.99-0.37c-0.62-0.55-0.68-1.5-0.13-2.12
		c1.09-1.24,2.17-2.51,3.2-3.77c0.52-0.64,1.47-0.74,2.11-0.21c0.64,0.52,0.74,1.47,0.21,2.11c-1.06,1.29-2.16,2.59-3.27,3.85
		C303.47,302.83,303.06,303,302.64,303z M85.34,299.98c-0.43,0-0.86-0.18-1.15-0.54c-1.07-1.29-2.13-2.61-3.16-3.94
		c-0.51-0.66-0.39-1.6,0.27-2.1c0.66-0.51,1.6-0.39,2.1,0.27c1,1.3,2.04,2.59,3.09,3.86c0.53,0.64,0.44,1.58-0.19,2.11
		C86.01,299.87,85.67,299.98,85.34,299.98z M311.36,292.05c-0.3,0-0.61-0.09-0.88-0.28c-0.67-0.48-0.82-1.42-0.34-2.09
		c0.95-1.31,1.9-2.68,2.82-4.07c0.46-0.69,1.39-0.87,2.08-0.41c0.69,0.46,0.87,1.39,0.41,2.08c-0.95,1.42-1.92,2.81-2.88,4.15
		C312.28,291.83,311.82,292.05,311.36,292.05z M76.93,288.81c-0.48,0-0.95-0.23-1.24-0.66c-0.94-1.38-1.86-2.8-2.76-4.22
		c-0.44-0.7-0.23-1.63,0.47-2.07c0.7-0.44,1.63-0.23,2.07,0.47c0.88,1.39,1.79,2.79,2.7,4.14c0.47,0.69,0.29,1.62-0.4,2.08
		C77.51,288.72,77.22,288.81,76.93,288.81z M318.97,280.3c-0.26,0-0.52-0.07-0.75-0.2c-0.72-0.42-0.96-1.33-0.54-2.05
		c0.83-1.42,1.64-2.88,2.41-4.33c0.39-0.73,1.3-1.01,2.03-0.62c0.73,0.39,1.01,1.3,0.62,2.03c-0.79,1.48-1.62,2.97-2.46,4.42
		C319.99,280.03,319.49,280.3,318.97,280.3z M69.66,276.88c-0.53,0-1.05-0.28-1.32-0.78c-0.8-1.46-1.58-2.97-2.33-4.47
		c-0.37-0.74-0.07-1.64,0.67-2.01c0.74-0.37,1.64-0.07,2.01,0.67c0.73,1.47,1.5,2.94,2.28,4.38c0.4,0.73,0.13,1.64-0.6,2.03
		C70.15,276.82,69.9,276.88,69.66,276.88z M325.4,267.85c-0.21,0-0.42-0.04-0.62-0.13c-0.75-0.34-1.09-1.23-0.74-1.99
		c0.68-1.5,1.35-3.03,1.98-4.55c0.32-0.76,1.19-1.13,1.96-0.81c0.77,0.32,1.13,1.19,0.81,1.96c-0.64,1.55-1.32,3.11-2.02,4.64
		C326.52,267.53,325.97,267.85,325.4,267.85z M63.59,264.29c-0.58,0-1.14-0.34-1.38-0.92c-0.65-1.54-1.28-3.11-1.88-4.67
		c-0.3-0.77,0.09-1.64,0.87-1.94c0.78-0.3,1.64,0.09,1.94,0.87c0.59,1.53,1.2,3.07,1.84,4.57c0.32,0.76-0.03,1.64-0.8,1.97
		C63.98,264.25,63.79,264.29,63.59,264.29z M330.58,254.83c-0.16,0-0.32-0.03-0.48-0.08c-0.78-0.27-1.2-1.12-0.94-1.9
		c0.53-1.56,1.04-3.15,1.52-4.72c0.24-0.79,1.08-1.24,1.87-1c0.79,0.24,1.24,1.08,1,1.87c-0.49,1.61-1.01,3.23-1.55,4.82
		C331.78,254.43,331.2,254.83,330.58,254.83z M58.79,251.17c-0.64,0-1.23-0.41-1.43-1.05c-0.5-1.59-0.97-3.22-1.42-4.85
		c-0.22-0.8,0.25-1.62,1.05-1.84c0.8-0.22,1.62,0.25,1.84,1.05c0.43,1.59,0.9,3.19,1.39,4.75c0.25,0.79-0.2,1.63-0.99,1.88
		C59.08,251.15,58.93,251.17,58.79,251.17z M334.44,241.36c-0.11,0-0.23-0.01-0.34-0.04c-0.81-0.19-1.31-1-1.12-1.8
		c0.38-1.61,0.73-3.24,1.04-4.83c0.16-0.81,0.96-1.34,1.76-1.18c0.81,0.16,1.34,0.95,1.18,1.76c-0.32,1.63-0.68,3.29-1.06,4.94
		C335.74,240.9,335.12,241.36,334.44,241.36z M55.29,237.62c-0.7,0-1.32-0.49-1.47-1.2c-0.34-1.64-0.65-3.31-0.93-4.96
		c-0.14-0.82,0.41-1.59,1.23-1.73c0.82-0.14,1.59,0.41,1.73,1.23c0.28,1.62,0.58,3.26,0.91,4.86c0.17,0.81-0.36,1.61-1.17,1.77
		C55.49,237.61,55.39,237.62,55.29,237.62z M336.96,227.6c-0.07,0-0.13,0-0.2-0.01c-0.82-0.11-1.4-0.86-1.29-1.68
		c0.22-1.64,0.41-3.29,0.56-4.91c0.08-0.83,0.83-1.43,1.64-1.35c0.82,0.08,1.43,0.81,1.35,1.64c-0.16,1.66-0.35,3.34-0.58,5.02
		C338.34,227.05,337.7,227.6,336.96,227.6z M53.15,223.8c-0.76,0-1.41-0.57-1.49-1.34c-0.17-1.66-0.32-3.35-0.44-5.03
		c-0.06-0.83,0.56-1.54,1.39-1.6c0.82-0.07,1.54,0.56,1.6,1.39c0.12,1.64,0.26,3.3,0.43,4.93c0.09,0.82-0.51,1.56-1.33,1.65
		C53.25,223.8,53.2,223.8,53.15,223.8z M338.11,213.66c-0.02,0-0.04,0-0.05,0c-0.83-0.03-1.48-0.72-1.45-1.55
		c0.06-1.62,0.08-3.29,0.08-4.95c0-0.77-0.01-1.55-0.02-2.32c-0.01-0.83,0.65-1.51,1.48-1.52c0.01,0,0.02,0,0.02,0
		c0.82,0,1.49,0.66,1.5,1.48c0.01,0.79,0.02,1.58,0.02,2.37c0,1.69-0.03,3.39-0.09,5.05C339.58,213.02,338.92,213.66,338.11,213.66z
		 M52.36,209.83c-0.82,0-1.49-0.66-1.5-1.49l0-1.18c0-1.3,0.02-2.59,0.05-3.87c0.02-0.83,0.73-1.53,1.54-1.46
		c0.83,0.02,1.48,0.71,1.46,1.54c-0.03,1.26-0.05,2.52-0.05,3.79l0,1.16c0.01,0.83-0.66,1.51-1.49,1.51
		C52.37,209.83,52.37,209.83,52.36,209.83z M337.75,197.33c-0.77,0-1.43-0.6-1.49-1.38c-0.13-1.64-0.29-3.3-0.47-4.92
		c-0.09-0.82,0.5-1.57,1.32-1.66c0.81-0.1,1.57,0.5,1.66,1.32c0.19,1.66,0.35,3.35,0.48,5.03c0.07,0.83-0.55,1.55-1.38,1.61
		C337.83,197.33,337.79,197.33,337.75,197.33z M52.93,195.85c-0.04,0-0.09,0-0.13-0.01c-0.83-0.07-1.43-0.8-1.36-1.63
		c0.15-1.67,0.33-3.36,0.53-5.02c0.1-0.82,0.85-1.41,1.67-1.3c0.82,0.1,1.41,0.85,1.3,1.67c-0.2,1.62-0.38,3.28-0.52,4.92
		C54.35,195.26,53.69,195.85,52.93,195.85z M335.98,183.46c-0.71,0-1.35-0.51-1.47-1.24c-0.29-1.62-0.61-3.25-0.95-4.85
		c-0.17-0.81,0.34-1.61,1.15-1.78c0.81-0.17,1.61,0.34,1.78,1.15c0.35,1.63,0.68,3.3,0.97,4.96c0.15,0.82-0.4,1.59-1.21,1.74
		C336.15,183.45,336.06,183.46,335.98,183.46z M54.84,182c-0.09,0-0.19-0.01-0.28-0.03c-0.81-0.15-1.35-0.94-1.2-1.75
		c0.31-1.65,0.66-3.31,1.02-4.95c0.18-0.81,0.99-1.32,1.79-1.13c0.81,0.18,1.32,0.98,1.13,1.79c-0.36,1.6-0.7,3.23-1,4.84
		C56.18,181.49,55.55,182,54.84,182z M332.85,169.82c-0.66,0-1.26-0.43-1.44-1.09c-0.44-1.57-0.92-3.16-1.42-4.74
		c-0.25-0.79,0.18-1.63,0.97-1.89c0.79-0.25,1.63,0.18,1.89,0.97c0.51,1.61,1,3.24,1.46,4.84c0.22,0.8-0.24,1.63-1.04,1.85
		C333.13,169.8,332.99,169.82,332.85,169.82z M58.11,168.39c-0.14,0-0.28-0.02-0.42-0.06c-0.79-0.23-1.25-1.07-1.02-1.86
		c0.47-1.61,0.98-3.23,1.51-4.82c0.26-0.79,1.11-1.21,1.9-0.95c0.79,0.26,1.21,1.11,0.95,1.9c-0.52,1.56-1.01,3.15-1.47,4.72
		C59.36,167.97,58.76,168.39,58.11,168.39z M328.4,156.56c-0.6,0-1.17-0.36-1.4-0.95c-0.6-1.53-1.23-3.06-1.88-4.56
		c-0.33-0.76,0.02-1.64,0.78-1.97c0.76-0.33,1.64,0.02,1.97,0.78c0.66,1.53,1.31,3.1,1.92,4.66c0.3,0.77-0.08,1.64-0.85,1.94
		C328.77,156.53,328.58,156.56,328.4,156.56z M62.71,155.16c-0.19,0-0.38-0.04-0.56-0.11c-0.77-0.31-1.14-1.18-0.83-1.95
		c0.63-1.56,1.3-3.13,1.98-4.66c0.34-0.76,1.22-1.1,1.98-0.76c0.76,0.34,1.1,1.22,0.76,1.98c-0.67,1.5-1.32,3.04-1.94,4.56
		C63.86,154.81,63.3,155.16,62.71,155.16z M322.68,143.82c-0.55,0-1.07-0.3-1.34-0.82c-0.75-1.46-1.53-2.93-2.32-4.36
		c-0.4-0.72-0.14-1.64,0.58-2.04c0.72-0.4,1.64-0.14,2.04,0.58c0.81,1.46,1.61,2.96,2.37,4.45c0.38,0.74,0.08,1.64-0.65,2.02
		C323.14,143.77,322.91,143.82,322.68,143.82z M68.59,142.44c-0.23,0-0.47-0.06-0.69-0.17c-0.73-0.38-1.02-1.29-0.63-2.02
		c0.78-1.49,1.6-2.98,2.43-4.44c0.41-0.72,1.33-0.97,2.05-0.56c0.72,0.41,0.97,1.33,0.56,2.05c-0.81,1.43-1.61,2.89-2.38,4.35
		C69.65,142.15,69.13,142.44,68.59,142.44z M315.73,131.7c-0.49,0-0.98-0.24-1.26-0.69c-0.88-1.38-1.8-2.76-2.74-4.11
		c-0.47-0.68-0.3-1.62,0.38-2.09c0.68-0.47,1.62-0.3,2.09,0.38c0.95,1.38,1.89,2.79,2.79,4.2c0.45,0.7,0.24,1.63-0.46,2.07
		C316.29,131.63,316,131.7,315.73,131.7z M75.69,130.37c-0.28,0-0.57-0.08-0.82-0.25c-0.69-0.45-0.89-1.38-0.43-2.08
		c0.92-1.4,1.87-2.8,2.85-4.18c0.48-0.68,1.42-0.84,2.09-0.36c0.68,0.48,0.84,1.41,0.36,2.09c-0.95,1.35-1.89,2.72-2.79,4.09
		C76.66,130.13,76.18,130.37,75.69,130.37z M307.62,120.31c-0.44,0-0.88-0.2-1.18-0.57c-1.01-1.29-2.07-2.58-3.12-3.83
		c-0.54-0.63-0.46-1.58,0.18-2.11c0.63-0.54,1.58-0.45,2.11,0.18c1.08,1.28,2.16,2.59,3.19,3.91c0.51,0.65,0.4,1.59-0.25,2.11
		C308.27,120.2,307.95,120.31,307.62,120.31z M83.93,119.05c-0.33,0-0.66-0.11-0.94-0.33c-0.65-0.52-0.75-1.46-0.23-2.11
		c1.05-1.31,2.14-2.61,3.24-3.88c0.54-0.63,1.49-0.69,2.12-0.15c0.63,0.54,0.7,1.49,0.15,2.12c-1.07,1.24-2.14,2.52-3.17,3.8
		C84.8,118.86,84.37,119.05,83.93,119.05z M298.44,109.76c-0.39,0-0.79-0.15-1.08-0.46c-1.14-1.19-2.31-2.37-3.48-3.51
		c-0.59-0.58-0.61-1.53-0.03-2.12c0.58-0.59,1.53-0.61,2.12-0.03c1.2,1.16,2.39,2.37,3.56,3.58c0.57,0.6,0.55,1.55-0.04,2.12
		C299.19,109.62,298.82,109.76,298.44,109.76z M93.23,108.6c-0.38,0-0.76-0.14-1.05-0.43c-0.59-0.58-0.6-1.53-0.02-2.12
		c1.18-1.21,2.39-2.4,3.6-3.54c0.6-0.57,1.55-0.55,2.12,0.05c0.57,0.6,0.55,1.55-0.05,2.12c-1.18,1.12-2.37,2.29-3.52,3.47
		C94.01,108.45,93.62,108.6,93.23,108.6z M288.28,100.14c-0.35,0-0.69-0.12-0.98-0.36c-1.25-1.07-2.53-2.13-3.81-3.16
		c-0.65-0.52-0.75-1.46-0.24-2.11c0.52-0.65,1.46-0.75,2.11-0.24c1.31,1.05,2.62,2.13,3.89,3.22c0.63,0.54,0.7,1.49,0.16,2.12
		C289.12,99.96,288.7,100.14,288.28,100.14z M103.5,99.1c-0.43,0-0.85-0.18-1.15-0.54c-0.53-0.63-0.45-1.58,0.19-2.11
		c1.29-1.08,2.61-2.15,3.92-3.18c0.65-0.51,1.6-0.39,2.11,0.26c0.51,0.65,0.39,1.6-0.26,2.11c-1.29,1.01-2.58,2.05-3.84,3.11
		C104.19,98.98,103.84,99.1,103.5,99.1z M277.22,91.55c-0.3,0-0.6-0.09-0.86-0.27c-1.34-0.94-2.72-1.87-4.1-2.77
		c-0.69-0.45-0.89-1.38-0.44-2.08c0.45-0.7,1.38-0.89,2.08-0.44c1.41,0.92,2.82,1.87,4.19,2.83c0.68,0.48,0.84,1.41,0.37,2.09
		C278.16,91.33,277.7,91.55,277.22,91.55z M114.65,90.65c-0.48,0-0.95-0.23-1.24-0.65c-0.47-0.68-0.29-1.62,0.39-2.09
		c1.38-0.94,2.8-1.88,4.21-2.78c0.7-0.44,1.63-0.24,2.07,0.46c0.44,0.7,0.24,1.63-0.46,2.07c-1.39,0.88-2.77,1.79-4.12,2.72
		C115.23,90.56,114.94,90.65,114.65,90.65z M265.38,84.09c-0.25,0-0.5-0.06-0.74-0.19c-1.43-0.81-2.9-1.6-4.36-2.36
		c-0.74-0.38-1.02-1.29-0.64-2.02c0.38-0.73,1.29-1.02,2.02-0.64c1.49,0.77,2.99,1.58,4.45,2.41c0.72,0.41,0.98,1.32,0.57,2.04
		C266.41,83.81,265.9,84.09,265.38,84.09z M126.55,83.32c-0.53,0-1.04-0.28-1.32-0.78c-0.4-0.73-0.13-1.64,0.59-2.04
		c1.47-0.81,2.97-1.6,4.46-2.35c0.74-0.37,1.64-0.08,2.02,0.66c0.37,0.74,0.08,1.64-0.66,2.02c-1.46,0.74-2.93,1.51-4.37,2.3
		C127.04,83.26,126.79,83.32,126.55,83.32z M252.85,77.81c-0.2,0-0.41-0.04-0.6-0.13c-1.5-0.66-3.04-1.31-4.57-1.92
		c-0.77-0.31-1.14-1.18-0.84-1.95c0.31-0.77,1.19-1.14,1.95-0.84c1.56,0.62,3.13,1.28,4.67,1.96c0.76,0.33,1.1,1.22,0.77,1.98
		C253.98,77.48,253.43,77.81,252.85,77.81z M139.11,77.21c-0.58,0-1.14-0.34-1.38-0.91c-0.33-0.76,0.03-1.64,0.79-1.97
		c1.53-0.65,3.1-1.29,4.66-1.9c0.77-0.3,1.64,0.08,1.94,0.86c0.3,0.77-0.08,1.64-0.86,1.94c-1.53,0.59-3.07,1.22-4.57,1.86
		C139.5,77.17,139.3,77.21,139.11,77.21z M239.76,72.8c-0.15,0-0.31-0.02-0.47-0.08c-1.55-0.51-3.14-1-4.73-1.45
		c-0.8-0.23-1.25-1.06-1.03-1.86c0.23-0.8,1.06-1.25,1.86-1.03c1.62,0.47,3.24,0.97,4.83,1.49c0.79,0.26,1.22,1.11,0.96,1.89
		C240.98,72.4,240.39,72.8,239.76,72.8z M152.21,72.35c-0.64,0-1.23-0.41-1.43-1.05c-0.25-0.79,0.19-1.63,0.98-1.88
		c1.6-0.5,3.23-0.99,4.84-1.44c0.8-0.22,1.62,0.25,1.85,1.04s-0.25,1.62-1.04,1.85c-1.58,0.44-3.18,0.91-4.74,1.41
		C152.51,72.32,152.36,72.35,152.21,72.35z M226.27,69.11c-0.11,0-0.22-0.01-0.33-0.04c-1.6-0.35-3.23-0.68-4.85-0.98
		c-0.81-0.15-1.35-0.93-1.2-1.75c0.15-0.82,0.94-1.35,1.75-1.2c1.65,0.31,3.32,0.64,4.95,1c0.81,0.18,1.32,0.98,1.14,1.79
		C227.58,68.64,226.96,69.11,226.27,69.11z M165.74,68.8c-0.69,0-1.32-0.49-1.47-1.19c-0.17-0.81,0.35-1.61,1.16-1.78
		c1.64-0.35,3.31-0.67,4.96-0.95c0.82-0.14,1.59,0.41,1.73,1.22s-0.41,1.59-1.22,1.73c-1.62,0.28-3.25,0.59-4.86,0.93
		C165.95,68.79,165.84,68.8,165.74,68.8z M212.48,66.77c-0.06,0-0.12,0-0.18-0.01c-1.62-0.19-3.27-0.36-4.92-0.5
		c-0.83-0.07-1.44-0.8-1.37-1.62c0.07-0.83,0.8-1.45,1.62-1.37c1.68,0.14,3.37,0.32,5.02,0.51c0.82,0.1,1.41,0.85,1.31,1.67
		C213.87,66.21,213.22,66.77,212.48,66.77z M179.55,66.6c-0.76,0-1.41-0.57-1.49-1.34c-0.09-0.82,0.5-1.56,1.33-1.65
		c1.66-0.18,3.35-0.34,5.03-0.46c0.83-0.06,1.55,0.56,1.61,1.38c0.06,0.83-0.56,1.55-1.38,1.61c-1.64,0.12-3.3,0.27-4.93,0.45
		C179.66,66.59,179.61,66.6,179.55,66.6z M198.52,65.78c-0.01,0-0.02,0-0.03,0c-1.64-0.04-3.3-0.04-4.95-0.02
		c-0.82,0.01-1.51-0.65-1.52-1.48c-0.01-0.83,0.65-1.51,1.48-1.52c1.68-0.02,3.37-0.01,5.05,0.03c0.83,0.02,1.48,0.7,1.47,1.53
		C200,65.13,199.33,65.78,198.52,65.78z"/>
</g>
<g>
	<g>
		<g>
			<path class="st1" d="M160.28,232.16c-7.17,0-13-5.83-13-13v-180c0-7.17,5.83-13,13-13h200c7.17,0,13,5.83,13,13v180
				c0,7.17-5.83,13-13,13H160.28z"/>
		</g>
		<g>
			<path class="st0" d="M360.28,29.16c5.52,0,10,4.48,10,10v180c0,5.52-4.48,10-10,10h-200c-5.52,0-10-4.48-10-10v-180
				c0-5.52,4.48-10,10-10H360.28 M360.28,23.16h-200c-8.82,0-16,7.18-16,16v180c0,8.82,7.18,16,16,16h200c8.82,0,16-7.18,16-16v-180
				C376.28,30.34,369.1,23.16,360.28,23.16L360.28,23.16z"/>
		</g>
	</g>
	<g>
		<g>
			<path class="st2" d="M150.28,60.16c-1.66,0-3-1.34-3-3v-18c0-7.17,5.83-13,13-13h200c7.17,0,13,5.83,13,13v18c0,1.66-1.34,3-3,3
				H150.28z"/>
		</g>
		<g>
			<path class="st0" d="M360.28,29.16c5.52,0,10,4.48,10,10v18h-220v-18c0-5.52,4.48-10,10-10H360.28 M360.28,23.16h-200
				c-8.82,0-16,7.18-16,16v18c0,3.31,2.69,6,6,6h220c3.31,0,6-2.69,6-6v-18C376.28,30.34,369.1,23.16,360.28,23.16L360.28,23.16z"/>
		</g>
	</g>
	<g>
		<g>
			<path class="st1" d="M240.28,50.16c-3.86,0-7-3.14-7-7s3.14-7,7-7h114c3.86,0,7,3.14,7,7s-3.14,7-7,7H240.28z"/>
		</g>
		<g>
			<g>
				<path class="st0" d="M354.28,39.16c2.21,0,4,1.79,4,4v0c0,2.21-1.79,4-4,4h-114c-2.21,0-4-1.79-4-4v0c0-2.21,1.79-4,4-4H354.28
					 M354.28,33.16h-114c-5.51,0-10,4.49-10,10s4.49,10,10,10h114c5.51,0,10-4.49,10-10C364.28,37.65,359.79,33.16,354.28,33.16
					L354.28,33.16z"/>
			</g>
		</g>
	</g>
	<g>
		<g>
			<circle class="st3" cx="166.28" cy="43.16" r="7"/>
		</g>
		<g>
			<g>
				<path class="st0" d="M166.28,39.16c2.21,0,4,1.79,4,4c0,2.21-1.79,4-4,4s-4-1.79-4-4C162.28,40.95,164.07,39.16,166.28,39.16
					 M166.28,33.16c-5.51,0-10,4.49-10,10s4.49,10,10,10s10-4.49,10-10S171.79,33.16,166.28,33.16L166.28,33.16z"/>
			</g>
		</g>
	</g>
	<g>
		<g>
			<circle class="st4" cx="190.28" cy="43.16" r="7"/>
		</g>
		<g>
			<g>
				<path class="st0" d="M190.28,39.16c2.21,0,4,1.79,4,4c0,2.21-1.79,4-4,4s-4-1.79-4-4C186.28,40.95,188.07,39.16,190.28,39.16
					 M190.28,33.16c-5.51,0-10,4.49-10,10s4.49,10,10,10c5.51,0,10-4.49,10-10S195.79,33.16,190.28,33.16L190.28,33.16z"/>
			</g>
		</g>
	</g>
	<g>
		<g>
			<circle class="st5" cx="214.28" cy="43.16" r="7"/>
		</g>
		<g>
			<g>
				<path class="st0" d="M214.28,39.16c2.21,0,4,1.79,4,4c0,2.21-1.79,4-4,4s-4-1.79-4-4C210.28,40.95,212.07,39.16,214.28,39.16
					 M214.28,33.16c-5.51,0-10,4.49-10,10s4.49,10,10,10c5.51,0,10-4.49,10-10S219.79,33.16,214.28,33.16L214.28,33.16z"/>
			</g>
		</g>
	</g>
	<g>
		<g>
			<g>
				<g>
					<path class="st0" d="M281.78,99.76c-0.32,0-0.64-0.08-0.94-0.24c-1.89-1.02-5.21-1.02-7.11,0c-0.97,0.52-2.18,0.16-2.71-0.82
						c-0.52-0.97-0.16-2.19,0.82-2.71c3.05-1.64,7.84-1.64,10.89,0c0.97,0.52,1.34,1.73,0.82,2.71
						C283.18,99.38,282.49,99.76,281.78,99.76z"/>
				</g>
				<g>
					<g>
						<circle class="st0" cx="277.28" cy="89.01" r="8"/>
					</g>
					<g>
						<circle class="st1" cx="279.28" cy="89.01" r="2"/>
					</g>
				</g>
				<g>
					<path class="st0" d="M271.42,72.69c3.68-3.11,9.5-3.68,13.48-0.8c1.83,1.3,4.9,4.78,2.04,6.4c-0.73,0.35-1.49,0.16-2.13-0.21
						c-3.12-1.93-6.26-2.5-9.86-2.01c-0.77,0.07-1.51,0.18-2.23,0.14C270.88,76.24,270.02,73.83,271.42,72.69L271.42,72.69z"/>
				</g>
				<g>
					<path class="st0" d="M247.78,99.76c-0.32,0-0.64-0.08-0.94-0.24c-1.89-1.02-5.21-1.02-7.11,0c-0.97,0.52-2.18,0.16-2.71-0.82
						c-0.52-0.97-0.16-2.19,0.82-2.71c3.05-1.64,7.84-1.64,10.89,0c0.97,0.52,1.34,1.73,0.82,2.71
						C249.18,99.38,248.49,99.76,247.78,99.76z"/>
				</g>
				<g>
					<g>
						<circle class="st0" cx="243.28" cy="89.01" r="8"/>
					</g>
					<g>
						<circle class="st1" cx="245.28" cy="89.01" r="2"/>
					</g>
				</g>
				<g>
					<path class="st0" d="M247.24,76.21c-2.9-0.28-6.02-0.65-8.74,0.51c-0.95,0.32-2.01,1.02-3.12,1.54c-1.68,0.88-3.57-1-2.75-2.68
						c1.9-4.63,7.88-6.6,12.45-5.07c1.95,0.65,6.2,2.34,4.3,4.99C248.83,76.17,248,76.25,247.24,76.21L247.24,76.21z"/>
				</g>
			</g>
		</g>
		<g>
			<g>
				<circle class="st6" cx="219.28" cy="96.66" r="2.5"/>
			</g>
			<g>
				<circle class="st6" cx="224.78" cy="107.66" r="2.5"/>
			</g>
			<g>
				<circle class="st6" cx="213.78" cy="107.66" r="2.5"/>
			</g>
		</g>
		<g>
			<g>
				<circle class="st6" cx="301.28" cy="96.66" r="2.5"/>
			</g>
			<g>
				<circle class="st6" cx="306.78" cy="107.66" r="2.5"/>
			</g>
			<g>
				<circle class="st6" cx="295.78" cy="107.66" r="2.5"/>
			</g>
		</g>
		<g>
			<path class="st0" d="M278.28,103.16L278.28,103.16h-36.01c-2.76,0-5,2.24-5,5c0,12.68,10.32,23,23,23
				c12.62,0,22.9-10.22,23-22.82c0-0.06,0-0.12,0-0.18C283.28,105.4,281.04,103.16,278.28,103.16z"/>
			<g>
				<g>
					<ellipse class="st3" cx="260.28" cy="120.16" rx="13.39" ry="6"/>
				</g>
			</g>
		</g>
	</g>
	<g>
		<circle class="st7" cx="266.28" cy="164.16" r="20"/>
	</g>
	<g>
		<g>
			<polygon class="st8" points="308.28,182.16 319.28,165.16 325.28,169.16 331.28,160.16 337.28,164.16 343.28,156.16 
				349.28,160.16 358.28,149.16 358.28,182.16 			"/>
		</g>
		<g>
			<path class="st5" d="M308.28,184.16c-0.37,0-0.75-0.1-1.08-0.32c-0.93-0.6-1.19-1.84-0.59-2.77l11-17
				c0.29-0.45,0.75-0.76,1.27-0.87c0.52-0.11,1.07,0,1.51,0.29l4.34,2.89l4.89-7.34c0.61-0.92,1.85-1.17,2.77-0.55l4.43,2.95
				l4.87-6.49c0.64-0.85,1.83-1.05,2.71-0.46l4.49,2.99l7.85-9.6c0.7-0.85,1.96-0.98,2.81-0.28c0.85,0.7,0.98,1.96,0.28,2.81l-9,11
				c-0.65,0.8-1.8,0.97-2.66,0.4l-4.43-2.95l-4.87,6.49c-0.64,0.85-1.83,1.05-2.71,0.46l-4.34-2.89l-4.89,7.34
				c-0.61,0.92-1.85,1.17-2.77,0.55l-4.31-2.88l-9.9,15.3C309.57,183.84,308.93,184.16,308.28,184.16z"/>
		</g>
		<g>
			<path class="st0" d="M308.28,178.66h-6c-0.83,0-1.5-0.67-1.5-1.5s0.67-1.5,1.5-1.5h6c0.83,0,1.5,0.67,1.5,1.5
				S309.11,178.66,308.28,178.66z"/>
		</g>
		<g>
			<path class="st0" d="M308.28,168.66h-6c-0.83,0-1.5-0.67-1.5-1.5s0.67-1.5,1.5-1.5h6c0.83,0,1.5,0.67,1.5,1.5
				S309.11,168.66,308.28,168.66z"/>
		</g>
		<g>
			<path class="st0" d="M308.28,158.66h-6c-0.83,0-1.5-0.67-1.5-1.5s0.67-1.5,1.5-1.5h6c0.83,0,1.5,0.67,1.5,1.5
				S309.11,158.66,308.28,158.66z"/>
		</g>
		<g>
			<path class="st0" d="M308.28,148.66h-6c-0.83,0-1.5-0.67-1.5-1.5s0.67-1.5,1.5-1.5h6c0.83,0,1.5,0.67,1.5,1.5
				S309.11,148.66,308.28,148.66z"/>
		</g>
		<g>
			<path class="st0" d="M353.28,189.66c-0.83,0-1.5-0.67-1.5-1.5v-6c0-0.83,0.67-1.5,1.5-1.5s1.5,0.67,1.5,1.5v6
				C354.78,188.99,354.11,189.66,353.28,189.66z"/>
		</g>
		<g>
			<path class="st0" d="M343.28,189.66c-0.83,0-1.5-0.67-1.5-1.5v-6c0-0.83,0.67-1.5,1.5-1.5s1.5,0.67,1.5,1.5v6
				C344.78,188.99,344.11,189.66,343.28,189.66z"/>
		</g>
		<g>
			<path class="st0" d="M333.28,189.66c-0.83,0-1.5-0.67-1.5-1.5v-6c0-0.83,0.67-1.5,1.5-1.5s1.5,0.67,1.5,1.5v6
				C334.78,188.99,334.11,189.66,333.28,189.66z"/>
		</g>
		<g>
			<path class="st0" d="M323.28,189.66c-0.83,0-1.5-0.67-1.5-1.5v-6c0-0.83,0.67-1.5,1.5-1.5s1.5,0.67,1.5,1.5v6
				C324.78,188.99,324.11,189.66,323.28,189.66z"/>
		</g>
		<g>
			<path class="st0" d="M313.28,189.66c-0.83,0-1.5-0.67-1.5-1.5v-6c0-0.83,0.67-1.5,1.5-1.5s1.5,0.67,1.5,1.5v6
				C314.78,188.99,314.11,189.66,313.28,189.66z"/>
		</g>
		<g>
			<path class="st0" d="M358.28,184.16h-50c-1.1,0-2-0.9-2-2v-40c0-1.1,0.9-2,2-2s2,0.9,2,2v38h48c1.1,0,2,0.9,2,2
				S359.38,184.16,358.28,184.16z"/>
		</g>
		<g>
			<path class="st0" d="M354.28,202.16h-36c-1.1,0-2-0.9-2-2l0,0c0-1.1,0.9-2,2-2h36c1.1,0,2,0.9,2,2l0,0
				C356.28,201.27,355.38,202.16,354.28,202.16z"/>
		</g>
		<g>
			<circle class="st5" cx="309.28" cy="200.16" r="3"/>
		</g>
		<g>
			<path class="st0" d="M340.28,210.16h-22c-1.1,0-2-0.9-2-2l0,0c0-1.1,0.9-2,2-2h22c1.1,0,2,0.9,2,2l0,0
				C342.28,209.27,341.38,210.16,340.28,210.16z"/>
		</g>
	</g>
	<g>
		<path class="st0" d="M286.28,202.16h-30c-1.1,0-2-0.9-2-2l0,0c0-1.1,0.9-2,2-2h30c1.1,0,2,0.9,2,2l0,0
			C288.28,201.27,287.38,202.16,286.28,202.16z"/>
	</g>
	<g>
		<circle class="st9" cx="247.28" cy="200.16" r="3"/>
	</g>
	<g>
		<path class="st0" d="M276.28,210.16h-20c-1.1,0-2-0.9-2-2l0,0c0-1.1,0.9-2,2-2h20c1.1,0,2,0.9,2,2l0,0
			C278.28,209.27,277.38,210.16,276.28,210.16z"/>
	</g>
	<g>
		<circle class="st7" cx="247.28" cy="208.16" r="3"/>
	</g>
	<g>
		<g>
			<path class="st0" d="M167.28,172.66h-6c-0.83,0-1.5-0.67-1.5-1.5s0.67-1.5,1.5-1.5h6c0.83,0,1.5,0.67,1.5,1.5
				S168.11,172.66,167.28,172.66z"/>
		</g>
		<g>
			<path class="st0" d="M167.28,160.66h-6c-0.83,0-1.5-0.67-1.5-1.5s0.67-1.5,1.5-1.5h6c0.83,0,1.5,0.67,1.5,1.5
				S168.11,160.66,167.28,160.66z"/>
		</g>
		<g>
			<path class="st0" d="M167.28,148.66h-6c-0.83,0-1.5-0.67-1.5-1.5s0.67-1.5,1.5-1.5h6c0.83,0,1.5,0.67,1.5,1.5
				S168.11,148.66,167.28,148.66z"/>
		</g>
		<g>
			<path class="st0" d="M193.28,189.66c-0.83,0-1.5-0.67-1.5-1.5v-6c0-0.83,0.67-1.5,1.5-1.5s1.5,0.67,1.5,1.5v6
				C194.78,188.99,194.11,189.66,193.28,189.66z"/>
		</g>
		<g>
			<path class="st0" d="M178.28,189.66c-0.83,0-1.5-0.67-1.5-1.5v-6c0-0.83,0.67-1.5,1.5-1.5s1.5,0.67,1.5,1.5v6
				C179.78,188.99,179.11,189.66,178.28,189.66z"/>
		</g>
		<g>
			<path class="st0" d="M213.28,202.16h-36c-1.1,0-2-0.9-2-2l0,0c0-1.1,0.9-2,2-2h36c1.1,0,2,0.9,2,2l0,0
				C215.28,201.27,214.38,202.16,213.28,202.16z"/>
		</g>
		<g>
			<circle class="st4" cx="168.28" cy="200.16" r="3"/>
		</g>
		<g>
			<path class="st0" d="M193.28,210.16h-16c-1.1,0-2-0.9-2-2l0,0c0-1.1,0.9-2,2-2h16c1.1,0,2,0.9,2,2l0,0
				C195.28,209.27,194.38,210.16,193.28,210.16z"/>
		</g>
		<g>
			<circle class="st10" cx="168.28" cy="208.16" r="3"/>
		</g>
		<g>
			<rect x="172.28" y="158.16" class="st4" width="6" height="24"/>
		</g>
		<g>
			<rect x="178.28" y="146.16" class="st10" width="6" height="36"/>
		</g>
		<g>
			<rect x="187.28" y="152.16" class="st4" width="6" height="30"/>
		</g>
		<g>
			<rect x="193.28" y="166.16" class="st10" width="6" height="16"/>
		</g>
		<g>
			<path class="st0" d="M208.28,189.66c-0.83,0-1.5-0.67-1.5-1.5v-6c0-0.83,0.67-1.5,1.5-1.5s1.5,0.67,1.5,1.5v6
				C209.78,188.99,209.11,189.66,208.28,189.66z"/>
		</g>
		<g>
			<rect x="202.28" y="160.16" class="st4" width="6" height="22"/>
		</g>
		<g>
			<rect x="208.28" y="156.16" class="st10" width="6" height="26"/>
		</g>
		<g>
			<path class="st0" d="M223.28,189.66c-0.83,0-1.5-0.67-1.5-1.5v-6c0-0.83,0.67-1.5,1.5-1.5s1.5,0.67,1.5,1.5v6
				C224.78,188.99,224.11,189.66,223.28,189.66z"/>
		</g>
		<g>
			<rect x="217.28" y="144.16" class="st4" width="6" height="38"/>
		</g>
		<g>
			<rect x="223.28" y="150.16" class="st10" width="6" height="32"/>
		</g>
		<g>
			<path class="st0" d="M232.28,184.16h-65c-1.1,0-2-0.9-2-2v-40c0-1.1,0.9-2,2-2s2,0.9,2,2v38h63c1.1,0,2,0.9,2,2
				S233.38,184.16,232.28,184.16z"/>
		</g>
	</g>
	<g>
		<path class="st9" d="M266.28,141.16v23h23C289.28,151.46,278.98,141.16,266.28,141.16z"/>
	</g>
</g>
<g>
	<g>
		<g>
			<path class="st11" d="M40.75,378.38c-3.86,0-7-3.14-7-7v-126c0-3.86,3.14-7,7-7h62c3.86,0,7,3.14,7,7v126c0,3.86-3.14,7-7,7
				H40.75z"/>
		</g>
		<g>
			<path class="st0" d="M102.75,241.38c2.21,0,4,1.79,4,4v126c0,2.21-1.79,4-4,4h-62c-2.21,0-4-1.79-4-4v-126c0-2.21,1.79-4,4-4
				H102.75 M102.75,235.38h-62c-5.51,0-10,4.49-10,10v126c0,5.51,4.49,10,10,10h62c5.51,0,10-4.49,10-10v-126
				C112.75,239.87,108.27,235.38,102.75,235.38L102.75,235.38z"/>
		</g>
	</g>
	<g>
		<g>
			<rect x="34.75" y="253.38" class="st12" width="74" height="114"/>
		</g>
		<g>
			<g>
				<path class="st0" d="M106.75,255.38v110h-70v-110H106.75 M110.75,251.38h-4h-70h-4v4v110v4h4h70h4v-4v-110V251.38L110.75,251.38
					z"/>
			</g>
		</g>
	</g>
	<g>
		<polygon class="st13" points="60.75,365.38 44.75,365.38 64.75,255.38 80.75,255.38 		"/>
	</g>
	<g>
		<polygon class="st13" points="76.75,365.38 66.75,365.38 86.75,255.38 96.75,255.38 		"/>
	</g>
	<g>
		<path class="st0" d="M81.75,248.38h-20c-1.1,0-2-0.9-2-2s0.9-2,2-2h20c1.1,0,2,0.9,2,2S82.86,248.38,81.75,248.38z"/>
	</g>
	<g>
		<path class="st0" d="M30.75,280.38c-1.66,0-3-1.34-3-3v-12c0-1.66,1.34-3,3-3s3,1.34,3,3v12
			C33.75,279.04,32.41,280.38,30.75,280.38z"/>
	</g>
	<g>
		<path class="st0" d="M30.75,304.38c-1.66,0-3-1.34-3-3v-12c0-1.66,1.34-3,3-3s3,1.34,3,3v12
			C33.75,303.04,32.41,304.38,30.75,304.38z"/>
	</g>
	<g>
		<path class="st0" d="M112.75,292.38c-1.66,0-3-1.34-3-3v-12c0-1.66,1.34-3,3-3s3,1.34,3,3v12
			C115.75,291.04,114.41,292.38,112.75,292.38z"/>
	</g>
	<g>
		<g>
			<g>
				<path class="st0" d="M85.78,310.38c-0.16,0-0.33-0.03-0.49-0.08c-1.6-0.55-4.42-0.55-6.02,0c-0.78,0.27-1.64-0.15-1.91-0.93
					c-0.27-0.78,0.15-1.64,0.93-1.91c2.24-0.77,5.74-0.77,7.98,0c0.78,0.27,1.2,1.12,0.93,1.91
					C86.98,309.99,86.4,310.38,85.78,310.38z"/>
			</g>
			<g>
				<g>
					<circle class="st0" cx="82.28" cy="302.19" r="6"/>
				</g>
				<g>
					<circle class="st1" cx="83.78" cy="302.19" r="1.5"/>
				</g>
			</g>
			<g>
				<path class="st0" d="M79.16,288.35c3.02-1.72,6.69-1.65,9.73-0.02c1.81,0.93,4.35,3.84,1.77,5.43
					c-0.53,0.31-1.14,0.27-1.71,0.22c-3.34-0.42-6.38-1.23-9.46-2.64C78.2,290.84,77.95,289.09,79.16,288.35L79.16,288.35z"/>
			</g>
		</g>
		<g>
			<g>
				<path class="st0" d="M64.73,310.38c-0.16,0-0.33-0.03-0.49-0.08c-1.6-0.55-4.42-0.55-6.02,0c-0.79,0.27-1.64-0.15-1.91-0.93
					c-0.27-0.78,0.15-1.64,0.93-1.91c2.24-0.77,5.74-0.77,7.98,0c0.78,0.27,1.2,1.12,0.93,1.91
					C65.93,309.99,65.35,310.38,64.73,310.38z"/>
			</g>
			<g>
				<g>
					<circle class="st0" cx="61.23" cy="302.19" r="6"/>
				</g>
				<g>
					<circle class="st1" cx="62.73" cy="302.19" r="1.5"/>
				</g>
			</g>
			<g>
				<path class="st0" d="M64.01,291.34c-3.08,1.41-6.12,2.22-9.46,2.64c-1.36,0.25-2.69-0.47-2.8-1.93
					c0.45-3.92,6.13-5.43,9.43-4.82c1.53,0.27,4.87,1.12,3.72,3.36C64.7,290.95,64.35,291.16,64.01,291.34L64.01,291.34z"/>
			</g>
		</g>
		<g>
			<path class="st0" d="M83.75,314.6h-24c-1.06,0-2.08,0.42-2.83,1.17c-0.75,0.75-1.17,1.77-1.17,2.83c0,8.82,7.18,16,16,16
				c8.82,0,16-7.18,16-16C87.75,316.39,85.96,314.6,83.75,314.6z"/>
			<g>
				<g>
					<ellipse class="st3" cx="71.75" cy="326.6" rx="8.93" ry="4"/>
				</g>
			</g>
		</g>
	</g>
</g>
<g>
	<path class="st14" d="M353.42,316.12c-2.98,0-5.4-2.42-5.4-5.4c0-0.99-0.81-1.8-1.8-1.8c-0.99,0-1.8,0.81-1.8,1.8
		c0,2.98-2.42,5.4-5.4,5.4c-0.99,0-1.8,0.81-1.8,1.8c0,0.99,0.81,1.8,1.8,1.8c2.98,0,5.4,2.42,5.4,5.4c0,0.99,0.81,1.8,1.8,1.8
		c0.99,0,1.8-0.81,1.8-1.8c0-2.98,2.42-5.4,5.4-5.4c0.99,0,1.8-0.81,1.8-1.8C355.22,316.92,354.41,316.12,353.42,316.12z"/>
</g>
<g>
	<circle class="st14" cx="96.75" cy="180.83" r="4.5"/>
</g>
<g>
	<circle class="st14" cx="232.28" cy="291.1" r="4.5"/>
</g>
<g>
	<circle class="st14" cx="164.28" cy="255.38" r="2.5"/>
</g>
<g>
	<circle class="st14" cx="210.28" cy="265.38" r="2.5"/>
</g>
<g>
	<circle class="st14" cx="313.84" cy="333.79" r="2.5"/>
</g>
<g>
	<circle class="st14" cx="80.68" cy="87.01" r="2.5"/>
</g>
<g>
	<rect x="-0.72" y="0" class="st15" width="400" height="400"/>
</g>
<path class="st14" d="M121.75,126.16h-6v-6c0-1.66-1.34-3-3-3s-3,1.34-3,3v6h-6c-1.66,0-3,1.34-3,3s1.34,3,3,3h6v6
	c0,1.66,1.34,3,3,3s3-1.34,3-3v-6h6c1.66,0,3-1.34,3-3S123.41,126.16,121.75,126.16z"/>
</svg>
