<?xml version="1.0" encoding="utf-8"?>
<!-- Generator: Adobe Illustrator 25.4.1, SVG Export Plug-In . SVG Version: 6.00 Build 0)  -->
<svg version="1.1" id="facebook-pixel" xmlns="http://www.w3.org/2000/svg" xmlns:xlink="http://www.w3.org/1999/xlink" x="0px"
	 y="0px" viewBox="0 0 400 400" style="enable-background:new 0 0 400 400;" xml:space="preserve">
<style type="text/css">
	.st0{fill:#FFFFFF;}
	.st1{fill:#515979;}
	.st2{fill:#7DDF96;}
	.st3{fill:#667683;}
	.st4{fill:#EF7D7D;}
	.st5{fill:#FFE8A0;}
	.st6{fill:#3CB48C;}
	.st7{fill:#CEEDD9;}
	.st8{fill:#CCCCCC;}
	.st9{fill:#979BAF;}
	.st10{fill:#D8EBFB;}
	.st11{fill:#A0D2FF;}
	.st12{fill:#9E8271;}
	.st13{fill:#FFD886;}
	.st14{fill:#1877F2;}
	.st15{fill:none;}
</style>
<path class="st0" d="M35,323c-7.17,0-13-5.83-13-13V84c0-7.17,5.83-13,13-13h180c7.17,0,13,5.83,13,13v226c0,7.17-5.83,13-13,13H35z
	"/>
<path class="st1" d="M215,74c5.52,0,10,4.48,10,10v226c0,5.52-4.48,10-10,10H35c-5.52,0-10-4.48-10-10V84c0-5.52,4.48-10,10-10H215
	 M215,68H35c-8.82,0-16,7.18-16,16v226c0,8.82,7.18,16,16,16h180c8.82,0,16-7.18,16-16V84C231,75.18,223.82,68,215,68L215,68z"/>
<path class="st2" d="M215,320H35c-5.52,0-10-4.48-10-10v-54h200v54C225,315.52,220.52,320,215,320z"/>
<rect x="25" y="108" class="st2" width="200" height="76"/>
<path class="st3" d="M25,105c-1.66,0-3-1.34-3-3V84c0-7.17,5.83-13,13-13h180c7.17,0,13,5.83,13,13v18c0,1.66-1.34,3-3,3H25z"/>
<path class="st1" d="M215,74c5.52,0,10,4.48,10,10v18H25V84c0-5.52,4.48-10,10-10H215 M215,68H35c-8.82,0-16,7.18-16,16v18
	c0,3.31,2.69,6,6,6h200c3.31,0,6-2.69,6-6V84C231,75.18,223.82,68,215,68L215,68z"/>
<path class="st0" d="M115,95c-3.86,0-7-3.14-7-7s3.14-7,7-7h94c3.86,0,7,3.14,7,7s-3.14,7-7,7H115z"/>
<path class="st1" d="M209,84c2.21,0,4,1.79,4,4s-1.79,4-4,4h-94c-2.21,0-4-1.79-4-4s1.79-4,4-4H209 M209,78h-94
	c-5.51,0-10,4.49-10,10c0,5.51,4.49,10,10,10h94c5.51,0,10-4.49,10-10C219,82.49,214.51,78,209,78L209,78z"/>
<circle class="st4" cx="41" cy="88" r="7"/>
<path class="st1" d="M41,84c2.21,0,4,1.79,4,4s-1.79,4-4,4s-4-1.79-4-4S38.79,84,41,84 M41,78c-5.51,0-10,4.49-10,10s4.49,10,10,10
	s10-4.49,10-10S46.51,78,41,78L41,78z"/>
<circle class="st5" cx="65" cy="88" r="7"/>
<path class="st1" d="M65,84c2.21,0,4,1.79,4,4s-1.79,4-4,4c-2.21,0-4-1.79-4-4S62.79,84,65,84 M65,78c-5.51,0-10,4.49-10,10
	s4.49,10,10,10s10-4.49,10-10S70.51,78,65,78L65,78z"/>
<circle class="st2" cx="89" cy="88" r="7"/>
<path class="st1" d="M89,84c2.21,0,4,1.79,4,4s-1.79,4-4,4s-4-1.79-4-4S86.79,84,89,84 M89,78c-5.51,0-10,4.49-10,10s4.49,10,10,10
	s10-4.49,10-10S94.51,78,89,78L89,78z"/>
<circle class="st6" cx="90" cy="144.5" r="2.5"/>
<circle class="st6" cx="95.5" cy="155.5" r="2.5"/>
<circle class="st6" cx="84.5" cy="155.5" r="2.5"/>
<circle class="st6" cx="160" cy="144.5" r="2.5"/>
<circle class="st6" cx="165.5" cy="155.5" r="2.5"/>
<circle class="st6" cx="154.5" cy="155.5" r="2.5"/>
<rect x="25" y="183" class="st7" width="200" height="74"/>
<path class="st0" d="M44,242h42c2.21,0,4-1.79,4-4v-36c0-2.21-1.79-4-4-4H44c-2.21,0-4,1.79-4,4v36C40,240.21,41.79,242,44,242z"/>
<circle class="st7" cx="52" cy="210" r="6"/>
<path class="st2" d="M82,224H48c-1.1,0-2-0.9-2-2v0c0-1.1,0.9-2,2-2h34c1.1,0,2,0.9,2,2v0C84,223.1,83.1,224,82,224z"/>
<path class="st2" d="M68,232H48c-1.1,0-2-0.9-2-2v0c0-1.1,0.9-2,2-2h20c1.1,0,2,0.9,2,2v0C70,231.1,69.1,232,68,232z"/>
<path class="st0" d="M164,242h42c2.21,0,4-1.79,4-4v-36c0-2.21-1.79-4-4-4h-42c-2.21,0-4,1.79-4,4v36C160,240.21,161.79,242,164,242
	z"/>
<circle class="st7" cx="172" cy="210" r="6"/>
<path class="st2" d="M202,224h-34c-1.1,0-2-0.9-2-2v0c0-1.1,0.9-2,2-2h34c1.1,0,2,0.9,2,2v0C204,223.1,203.1,224,202,224z"/>
<path class="st2" d="M180,232h-12c-1.1,0-2-0.9-2-2v0c0-1.1,0.9-2,2-2h12c1.1,0,2,0.9,2,2v0C182,231.1,181.1,232,180,232z"/>
<path class="st0" d="M104,242h42c2.21,0,4-1.79,4-4v-36c0-2.21-1.79-4-4-4h-42c-2.21,0-4,1.79-4,4v36C100,240.21,101.79,242,104,242
	z"/>
<circle class="st7" cx="112" cy="210" r="6"/>
<path class="st2" d="M142,224h-34c-1.1,0-2-0.9-2-2v0c0-1.1,0.9-2,2-2h34c1.1,0,2,0.9,2,2v0C144,223.1,143.1,224,142,224z"/>
<path class="st2" d="M134,232h-26c-1.1,0-2-0.9-2-2v0c0-1.1,0.9-2,2-2h26c1.1,0,2,0.9,2,2v0C136,231.1,135.1,232,134,232z"/>
<circle class="st7" cx="65" cy="290" r="24"/>
<circle class="st7" cx="125" cy="290" r="24"/>
<circle class="st7" cx="185" cy="290" r="24"/>
<path class="st1" d="M144.5,146.48c-0.32,0-0.64-0.08-0.94-0.24c-1.89-1.02-5.22-1.02-7.11,0c-0.98,0.52-2.19,0.16-2.71-0.82
	c-0.52-0.97-0.16-2.19,0.82-2.71c3.05-1.64,7.84-1.64,10.89,0c0.97,0.52,1.34,1.73,0.82,2.71
	C145.9,146.09,145.21,146.48,144.5,146.48z"/>
<circle class="st1" cx="140" cy="135.72" r="8"/>
<circle class="st0" cx="142" cy="135.72" r="2"/>
<path class="st1" d="M134.11,120.34c0.68-0.6,1.26-0.97,1.95-1.35c0.68-0.36,1.39-0.66,2.14-0.88c1.49-0.46,3.14-0.63,4.81-0.42
	c0.84,0.09,1.66,0.34,2.47,0.62c0.4,0.16,0.77,0.38,1.15,0.57c0.39,0.18,0.74,0.42,1.07,0.69c1.4,0.97,2.36,2.35,2.98,3.77
	c0.45,1.03-0.01,2.23-1.04,2.69c-0.59,0.26-1.23,0.22-1.76-0.06l-0.37-0.2c-1.05-0.55-1.86-1.12-2.73-1.43
	c-0.84-0.36-1.66-0.59-2.56-0.71c-0.9-0.13-1.87-0.17-2.91-0.11c-0.52,0.04-1.06,0.07-1.61,0.14c-0.53,0.04-1.16,0.16-1.62,0.17
	l-0.62,0.01c-1.1,0.01-2-0.87-2.01-1.98C133.43,121.26,133.7,120.71,134.11,120.34z"/>
<path class="st1" d="M114.5,146.48c-0.32,0-0.64-0.08-0.94-0.24c-1.89-1.02-5.22-1.02-7.11,0c-0.98,0.52-2.19,0.16-2.71-0.82
	c-0.52-0.97-0.16-2.19,0.82-2.71c3.05-1.64,7.84-1.64,10.89,0c0.97,0.52,1.34,1.73,0.82,2.71
	C115.9,146.09,115.21,146.48,114.5,146.48z"/>
<circle class="st1" cx="110" cy="135.72" r="8"/>
<circle class="st0" cx="112" cy="135.72" r="2"/>
<path class="st1" d="M113.93,123.83c-0.46,0-1.08-0.13-1.62-0.17c-0.55-0.07-1.09-0.1-1.61-0.14c-1.05-0.05-2.02-0.02-2.91,0.11
	c-0.9,0.12-1.72,0.35-2.56,0.71c-0.87,0.31-1.69,0.88-2.73,1.43l-0.36,0.19c-1,0.52-2.23,0.14-2.75-0.86
	c-0.3-0.57-0.3-1.22-0.06-1.77c0.62-1.41,1.58-2.79,2.98-3.77c0.33-0.27,0.68-0.51,1.07-0.69c0.38-0.19,0.76-0.41,1.15-0.57
	c0.81-0.28,1.63-0.53,2.47-0.62c1.67-0.21,3.32-0.04,4.81,0.42c0.75,0.22,1.46,0.52,2.14,0.88c0.69,0.38,1.27,0.75,1.95,1.35
	c0.83,0.72,0.91,1.98,0.19,2.81c-0.4,0.45-0.95,0.68-1.51,0.68L113.93,123.83z"/>
<path class="st1" d="M125.42,158.76c-6.02,0-12.19-1.77-17.52-5.31c-0.92-0.61-1.17-1.85-0.56-2.77c0.61-0.92,1.85-1.17,2.77-0.56
	c9.2,6.1,21.68,6.11,29.68,0.02c0.88-0.67,2.13-0.5,2.8,0.38c0.67,0.88,0.5,2.13-0.38,2.8
	C137.45,156.94,131.51,158.76,125.42,158.76z"/>
<path class="st1" d="M120.82,161.86c1.35,0.43,2.77,0.57,4.18,0.62c0.71,0.03,1.41-0.07,2.11-0.15c0.7-0.09,1.39-0.24,2.05-0.47
	c0.69-0.24,1.45,0.13,1.68,0.82c0.17,0.48,0.04,1-0.29,1.34l-0.72,0.76c-0.67,0.71-1.48,1.09-2.3,1.37
	c-0.83,0.24-1.69,0.36-2.54,0.31c-0.43-0.02-0.85-0.04-1.27-0.13c-0.42-0.06-0.84-0.17-1.25-0.3c-0.81-0.27-1.6-0.64-2.3-1.25
	l-0.67-0.59c-0.57-0.5-0.63-1.37-0.13-1.94C119.74,161.84,120.32,161.7,120.82,161.86z"/>
<path class="st8" d="M262.5,360.15c-0.77,0-1.54-0.29-2.12-0.88l-19.8-19.8c-0.56-0.56-0.88-1.33-0.88-2.12s0.32-1.56,0.88-2.12
	l5.66-5.66c0.56-0.56,1.33-0.88,2.12-0.88s1.56,0.32,2.12,0.88l19.8,19.8c1.17,1.17,1.17,3.07,0,4.24l-5.66,5.66
	C264.03,359.86,263.26,360.15,262.5,360.15z"/>
<path class="st1" d="M248.36,331.7l19.8,19.8l-5.66,5.66l-19.8-19.8L248.36,331.7 M248.36,325.7c-1.54,0-3.07,0.59-4.24,1.76
	l-5.66,5.66c-1.13,1.13-1.76,2.65-1.76,4.24c0,1.59,0.63,3.12,1.76,4.24l19.8,19.8c1.17,1.17,2.71,1.76,4.24,1.76
	c1.54,0,3.07-0.59,4.24-1.76l5.66-5.66c2.34-2.34,2.34-6.14,0-8.49l-19.8-19.8C251.43,326.28,249.89,325.7,248.36,325.7
	L248.36,325.7z"/>
<rect x="250.37" y="339.87" transform="matrix(0.7071 -0.7071 0.7071 0.7071 -168.2942 280.4332)" class="st9" width="8" height="7"/>
<path class="st8" d="M213,355c-14.16,0-27.47-5.51-37.48-15.52c-20.66-20.67-20.66-54.29,0-74.95C185.53,254.51,198.84,249,213,249
	s27.47,5.51,37.48,15.52c20.67,20.66,20.67,54.29,0,74.95C240.47,349.49,227.16,355,213,355z"/>
<path class="st1" d="M213,252c12.8,0,25.59,4.88,35.36,14.64c19.53,19.53,19.53,51.18,0,70.71C238.59,347.12,225.8,352,213,352
	s-25.59-4.88-35.36-14.64c-19.53-19.53-19.53-51.18,0-70.71C187.41,256.88,200.2,252,213,252 M213,246
	c-14.96,0-29.02,5.83-39.6,16.4C162.83,272.98,157,287.04,157,302s5.83,29.02,16.4,39.6c10.58,10.58,24.64,16.4,39.6,16.4
	c14.96,0,29.02-5.83,39.6-16.4c10.58-10.58,16.4-24.64,16.4-39.6s-5.83-29.02-16.4-39.6C242.02,251.83,227.96,246,213,246L213,246z"
	/>
<path class="st10" d="M213,340c-10.15,0-19.69-3.95-26.87-11.13c-14.82-14.82-14.82-38.92,0-53.74C193.31,267.95,202.85,264,213,264
	s19.69,3.95,26.87,11.13c14.82,14.82,14.82,38.92,0,53.74C232.69,336.05,223.15,340,213,340z"/>
<path class="st1" d="M213,267c8.96,0,17.91,3.42,24.75,10.25c13.67,13.67,13.67,35.83,0,49.5C230.91,333.58,221.96,337,213,337
	s-17.91-3.42-24.75-10.25c-13.67-13.67-13.67-35.83,0-49.5C195.09,270.42,204.04,267,213,267 M213,261
	c-10.95,0-21.25,4.26-28.99,12.01C176.26,280.75,172,291.05,172,302s4.26,21.25,12.01,28.99C191.75,338.74,202.05,343,213,343
	c10.95,0,21.25-4.26,28.99-12.01C249.74,323.25,254,312.95,254,302s-4.26-21.25-12.01-28.99C234.25,265.26,223.95,261,213,261
	L213,261z"/>
<path class="st11" d="M191.79,280.79c-13.07,13.07-13.63,33.91-1.7,47.66c-0.63-0.54-1.24-1.1-1.84-1.7
	c-13.67-13.67-13.67-35.83,0-49.5c13.67-13.67,35.83-13.67,49.5,0c0.6,0.6,1.15,1.21,1.7,1.84
	C225.7,267.15,204.86,267.71,191.79,280.79z"/>
<path class="st12" d="M291.49,396.22c-0.77,0-1.54-0.29-2.12-0.88l-32.53-32.53c-0.56-0.56-0.88-1.33-0.88-2.12s0.32-1.56,0.88-2.12
	l12.73-12.73c0.56-0.56,1.33-0.88,2.12-0.88s1.56,0.32,2.12,0.88l32.53,32.53c1.17,1.17,1.17,3.07,0,4.24l-12.73,12.73
	C293.02,395.92,292.26,396.22,291.49,396.22z"/>
<path class="st1" d="M271.69,347.96l32.53,32.53l-12.73,12.73l-32.53-32.53L271.69,347.96 M271.69,341.96
	c-1.54,0-3.07,0.59-4.24,1.76l-12.73,12.73c-2.34,2.34-2.34,6.14,0,8.49l32.53,32.53c1.17,1.17,2.71,1.76,4.24,1.76
	c1.54,0,3.07-0.59,4.24-1.76l12.73-12.73c2.34-2.34,2.34-6.14,0-8.49l-32.53-32.53C274.76,342.55,273.23,341.96,271.69,341.96
	L271.69,341.96z"/>
<path class="st13" d="M263.2,367.93c-0.8,0-1.56-0.32-2.12-0.88l-4.24-4.24c-1.17-1.17-1.17-3.07,0-4.24l12.73-12.73
	c0.59-0.59,1.35-0.88,2.12-0.88s1.54,0.29,2.12,0.88l4.24,4.24c0.56,0.56,0.88,1.33,0.88,2.12s-0.32,1.56-0.88,2.12l-12.73,12.73
	C264.76,367.62,264,367.93,263.2,367.93L263.2,367.93z"/>
<path class="st1" d="M271.69,347.96l4.24,4.24l-12.73,12.73l-4.24-4.24L271.69,347.96 M271.69,341.96c-1.54,0-3.07,0.59-4.24,1.76
	l-12.73,12.73c-2.34,2.34-2.34,6.14,0,8.49l4.24,4.24c1.13,1.13,2.65,1.76,4.24,1.76c1.59,0,3.12-0.63,4.24-1.76l12.73-12.73
	c1.13-1.13,1.76-2.65,1.76-4.24s-0.63-3.12-1.76-4.24l-4.24-4.24C274.76,342.55,273.23,341.96,271.69,341.96L271.69,341.96z"/>
<path class="st1" d="M229.97,307.8c-0.32,0-0.64-0.08-0.94-0.24c-1.89-1.02-5.21-1.02-7.11,0c-0.97,0.52-2.19,0.16-2.71-0.82
	c-0.52-0.97-0.16-2.19,0.82-2.71c3.05-1.64,7.84-1.64,10.89,0c0.97,0.52,1.34,1.73,0.82,2.71
	C231.37,307.42,230.68,307.8,229.97,307.8z"/>
<circle class="st1" cx="225.47" cy="298.05" r="7"/>
<circle class="st0" cx="227.22" cy="298.05" r="1.75"/>
<path class="st1" d="M220.49,283.04c0.61-0.55,1.11-0.88,1.72-1.22c0.6-0.32,1.22-0.59,1.88-0.8c1.32-0.41,2.78-0.57,4.26-0.39
	c1.48,0.15,2.99,0.73,4.21,1.63c1.26,0.87,2.13,2.1,2.67,3.38c0.44,1.04-0.05,2.24-1.1,2.68c-0.53,0.22-1.09,0.2-1.58,0l-0.45-0.19
	c-0.94-0.4-1.64-0.83-2.38-1.03c-0.71-0.25-1.37-0.43-2.13-0.52c-0.74-0.1-1.56-0.14-2.44-0.12c-0.44,0.01-0.91,0.02-1.37,0.06
	c-0.46,0.01-1,0.09-1.39,0.05l-0.78-0.08c-1.09-0.11-1.88-1.08-1.77-2.16C219.89,283.81,220.14,283.36,220.49,283.04z"/>
<path class="st1" d="M203.97,307.8c-0.32,0-0.64-0.08-0.94-0.24c-1.89-1.02-5.22-1.02-7.11,0c-0.97,0.52-2.19,0.16-2.71-0.82
	s-0.16-2.19,0.82-2.71c3.05-1.64,7.84-1.64,10.89,0c0.97,0.52,1.34,1.73,0.82,2.71C205.37,307.42,204.68,307.8,203.97,307.8z"/>
<circle class="st1" cx="199.47" cy="298.05" r="7"/>
<circle class="st0" cx="201.22" cy="298.05" r="1.75"/>
<path class="st1" d="M202.54,286.56c-0.39,0.04-0.94-0.05-1.39-0.05c-0.47-0.04-0.93-0.05-1.37-0.06c-0.89-0.02-1.7,0.02-2.44,0.12
	c-0.75,0.09-1.41,0.28-2.13,0.52c-0.74,0.21-1.43,0.64-2.38,1.03l-0.45,0.19c-1.04,0.44-2.24-0.05-2.68-1.09
	c-0.22-0.53-0.2-1.1,0-1.59c0.54-1.28,1.41-2.51,2.67-3.38c1.21-0.9,2.72-1.48,4.21-1.63c1.49-0.18,2.95-0.02,4.26,0.39
	c0.66,0.21,1.29,0.48,1.88,0.8c0.61,0.34,1.11,0.68,1.72,1.22c0.81,0.73,0.88,1.98,0.16,2.79c-0.34,0.38-0.8,0.6-1.27,0.65
	L202.54,286.56z"/>
<path class="st1" d="M212.81,318.08c-4.96,0-10.04-1.43-14.43-4.31c-0.92-0.6-1.18-1.84-0.58-2.77c0.6-0.93,1.84-1.18,2.77-0.58
	c7.35,4.8,17.32,4.82,23.71,0.03c0.88-0.66,2.14-0.48,2.8,0.4c0.66,0.88,0.48,2.14-0.4,2.8
	C222.74,316.6,217.83,318.08,212.81,318.08z"/>
<path class="st1" d="M208.29,320.73c1.35,0.43,2.77,0.57,4.18,0.62c0.71,0.03,1.41-0.07,2.11-0.15c0.7-0.09,1.39-0.24,2.05-0.47
	c0.69-0.24,1.45,0.13,1.68,0.82c0.17,0.48,0.04,1-0.29,1.34l-0.72,0.76c-0.67,0.71-1.48,1.09-2.3,1.37
	c-0.83,0.24-1.69,0.36-2.54,0.31c-0.43-0.02-0.85-0.04-1.27-0.13c-0.42-0.06-0.84-0.17-1.25-0.3c-0.81-0.27-1.6-0.64-2.3-1.25
	l-0.67-0.59c-0.57-0.5-0.63-1.37-0.13-1.94C207.21,320.71,207.79,320.57,208.29,320.73z"/>
<path class="st1" d="M297,194h-51c-1.1,0-2-0.9-2-2l0,0c0-1.1,0.9-2,2-2h51c1.1,0,2,0.9,2,2l0,0C299,193.1,298.1,194,297,194z"/>
<path class="st1" d="M287,202h-41c-1.1,0-2-0.9-2-2l0,0c0-1.1,0.9-2,2-2h41c1.1,0,2,0.9,2,2l0,0C289,201.1,288.1,202,287,202z"/>
<path class="st1" d="M297,186h-51c-1.1,0-2-0.9-2-2l0,0c0-1.1,0.9-2,2-2h51c1.1,0,2,0.9,2,2l0,0C299,185.1,298.1,186,297,186z"/>
<path class="st1" d="M297,226h-51c-1.1,0-2-0.9-2-2l0,0c0-1.1,0.9-2,2-2h51c1.1,0,2,0.9,2,2l0,0C299,225.1,298.1,226,297,226z"/>
<path class="st1" d="M287,234h-41c-1.1,0-2-0.9-2-2l0,0c0-1.1,0.9-2,2-2h41c1.1,0,2,0.9,2,2l0,0C289,233.1,288.1,234,287,234z"/>
<path class="st1" d="M297,218h-51c-1.1,0-2-0.9-2-2l0,0c0-1.1,0.9-2,2-2h51c1.1,0,2,0.9,2,2l0,0C299,217.1,298.1,218,297,218z"/>
<path class="st1" d="M379,281h-51c-1.1,0-2-0.9-2-2l0,0c0-1.1,0.9-2,2-2h51c1.1,0,2,0.9,2,2l0,0C381,280.1,380.1,281,379,281z"/>
<path class="st1" d="M369,289h-41c-1.1,0-2-0.9-2-2l0,0c0-1.1,0.9-2,2-2h41c1.1,0,2,0.9,2,2l0,0C371,288.1,370.1,289,369,289z"/>
<path class="st1" d="M379,273h-51c-1.1,0-2-0.9-2-2l0,0c0-1.1,0.9-2,2-2h51c1.1,0,2,0.9,2,2l0,0C381,272.1,380.1,273,379,273z"/>
<path class="st1" d="M379,313h-51c-1.1,0-2-0.9-2-2l0,0c0-1.1,0.9-2,2-2h51c1.1,0,2,0.9,2,2l0,0C381,312.1,380.1,313,379,313z"/>
<path class="st1" d="M369,321h-41c-1.1,0-2-0.9-2-2l0,0c0-1.1,0.9-2,2-2h41c1.1,0,2,0.9,2,2l0,0C371,320.1,370.1,321,369,321z"/>
<path class="st1" d="M379,305h-51c-1.1,0-2-0.9-2-2l0,0c0-1.1,0.9-2,2-2h51c1.1,0,2,0.9,2,2l0,0C381,304.1,380.1,305,379,305z"/>
<path class="st1" d="M379,249h-51c-1.1,0-2-0.9-2-2l0,0c0-1.1,0.9-2,2-2h51c1.1,0,2,0.9,2,2l0,0C381,248.1,380.1,249,379,249z"/>
<path class="st1" d="M369,257h-41c-1.1,0-2-0.9-2-2l0,0c0-1.1,0.9-2,2-2h41c1.1,0,2,0.9,2,2l0,0C371,256.1,370.1,257,369,257z"/>
<path class="st1" d="M379,241h-51c-1.1,0-2-0.9-2-2l0,0c0-1.1,0.9-2,2-2h51c1.1,0,2,0.9,2,2l0,0C381,240.1,380.1,241,379,241z"/>
<path class="st1" d="M379,217h-51c-1.1,0-2-0.9-2-2l0,0c0-1.1,0.9-2,2-2h51c1.1,0,2,0.9,2,2l0,0C381,216.1,380.1,217,379,217z"/>
<path class="st1" d="M369,225h-41c-1.1,0-2-0.9-2-2l0,0c0-1.1,0.9-2,2-2h41c1.1,0,2,0.9,2,2l0,0C371,224.1,370.1,225,369,225z"/>
<path class="st1" d="M379,209h-51c-1.1,0-2-0.9-2-2l0,0c0-1.1,0.9-2,2-2h51c1.1,0,2,0.9,2,2l0,0C381,208.1,380.1,209,379,209z"/>
<path class="st1" d="M303,300.5h-5c-0.83,0-1.5-0.67-1.5-1.5s0.67-1.5,1.5-1.5h5c0.83,0,1.5,0.67,1.5,1.5S303.83,300.5,303,300.5z
	 M289,300.5h-5c-0.83,0-1.5-0.67-1.5-1.5s0.67-1.5,1.5-1.5h5c0.83,0,1.5,0.67,1.5,1.5S289.83,300.5,289,300.5z M275,300.5h-5
	c-0.83,0-1.5-0.67-1.5-1.5s0.67-1.5,1.5-1.5h5c0.83,0,1.5,0.67,1.5,1.5S275.83,300.5,275,300.5z M310.83,296.72
	c-0.33,0-0.66-0.11-0.93-0.33c-0.65-0.51-0.76-1.46-0.24-2.11c0.88-1.11,1.48-2.44,1.72-3.83c0.14-0.82,0.92-1.36,1.73-1.22
	c0.82,0.14,1.37,0.92,1.22,1.73c-0.33,1.89-1.13,3.69-2.33,5.19C311.71,296.52,311.27,296.72,310.83,296.72z M313,283.21
	c-0.83,0-1.5-0.67-1.5-1.5v-5c0-0.83,0.67-1.5,1.5-1.5s1.5,0.67,1.5,1.5v5C314.5,282.54,313.83,283.21,313,283.21z M313,269.21
	c-0.83,0-1.5-0.67-1.5-1.5v-5c0-0.83,0.67-1.5,1.5-1.5s1.5,0.67,1.5,1.5v5C314.5,268.54,313.83,269.21,313,269.21z M313,255.21
	c-0.83,0-1.5-0.67-1.5-1.5v-5c0-0.83,0.67-1.5,1.5-1.5s1.5,0.67,1.5,1.5v5C314.5,254.54,313.83,255.21,313,255.21z M313,241.21
	c-0.83,0-1.5-0.67-1.5-1.5v-5c0-0.83,0.67-1.5,1.5-1.5s1.5,0.67,1.5,1.5v5C314.5,240.54,313.83,241.21,313,241.21z M313,227.21
	c-0.83,0-1.5-0.67-1.5-1.5v-5c0-0.83,0.67-1.5,1.5-1.5s1.5,0.67,1.5,1.5v5C314.5,226.54,313.83,227.21,313,227.21z M313,213.21
	c-0.83,0-1.5-0.67-1.5-1.5v-5c0-0.83,0.67-1.5,1.5-1.5s1.5,0.67,1.5,1.5v5C314.5,212.54,313.83,213.21,313,213.21z M313,199.21
	c-0.83,0-1.5-0.67-1.5-1.5v-5c0-0.83,0.67-1.5,1.5-1.5s1.5,0.67,1.5,1.5v5C314.5,198.54,313.83,199.21,313,199.21z M313,185.21
	c-0.83,0-1.5-0.67-1.5-1.5v-5c0-0.83,0.67-1.5,1.5-1.5s1.5,0.67,1.5,1.5v5C314.5,184.54,313.83,185.21,313,185.21z M313,171.21
	c-0.83,0-1.5-0.67-1.5-1.5v-5c0-0.83,0.67-1.5,1.5-1.5s1.5,0.67,1.5,1.5v5C314.5,170.54,313.83,171.21,313,171.21z"/>
<path class="st14" d="M383,89c0-38.66-31.34-70-70-70s-70,31.34-70,70c0,34.94,25.6,63.9,59.06,69.15v-48.91h-17.77V89h17.77V73.58
	c0-17.54,10.45-27.23,26.44-27.23c7.66,0,15.67,1.37,15.67,1.37v17.23h-8.83c-8.7,0-11.41,5.4-11.41,10.93V89h19.41l-3.1,20.23
	h-16.31v48.91C357.4,152.9,383,123.94,383,89z"/>
<path class="st0" d="M340.25,109.23l3.1-20.23h-19.41V75.87c0-5.54,2.71-10.93,11.41-10.93h8.83V47.71c0,0-8.01-1.37-15.67-1.37
	c-15.99,0-26.44,9.69-26.44,27.23V89h-17.77v20.23h17.77v48.91c3.56,0.56,7.22,0.85,10.94,0.85s7.37-0.29,10.94-0.85v-48.91H340.25z
	"/>
<path class="st13" d="M216.6,42.4c2.65,0,4.8-2.15,4.8-4.8c0-0.88,0.72-1.6,1.6-1.6s1.6,0.72,1.6,1.6c0,2.65,2.15,4.8,4.8,4.8
	c0.88,0,1.6,0.72,1.6,1.6s-0.72,1.6-1.6,1.6c-2.65,0-4.8,2.15-4.8,4.8c0,0.88-0.72,1.6-1.6,1.6s-1.6-0.72-1.6-1.6
	c0-2.65-2.15-4.8-4.8-4.8c-0.88,0-1.6-0.72-1.6-1.6S215.72,42.4,216.6,42.4z"/>
<circle class="st13" cx="172" cy="50" r="3"/>
<circle class="st13" cx="249" cy="16" r="4"/>
<path class="st13" d="M126.6,341.4c2.65,0,4.8-2.15,4.8-4.8c0-0.88,0.72-1.6,1.6-1.6s1.6,0.72,1.6,1.6c0,2.65,2.15,4.8,4.8,4.8
	c0.88,0,1.6,0.72,1.6,1.6s-0.72,1.6-1.6,1.6c-2.65,0-4.8,2.15-4.8,4.8c0,0.88-0.72,1.6-1.6,1.6c-0.88,0-1.6-0.72-1.6-1.6
	c0-2.65-2.15-4.8-4.8-4.8c-0.88,0-1.6-0.72-1.6-1.6S125.72,341.4,126.6,341.4z"/>
<path class="st13" d="M198.4,374.6c2.32,0,4.2-1.88,4.2-4.2c0-0.77,0.63-1.4,1.4-1.4c0.77,0,1.4,0.63,1.4,1.4
	c0,2.32,1.88,4.2,4.2,4.2c0.77,0,1.4,0.63,1.4,1.4s-0.63,1.4-1.4,1.4c-2.32,0-4.2,1.88-4.2,4.2c0,0.77-0.63,1.4-1.4,1.4
	c-0.77,0-1.4-0.63-1.4-1.4c0-2.32-1.88-4.2-4.2-4.2c-0.77,0-1.4-0.63-1.4-1.4S197.63,374.6,198.4,374.6z"/>
<circle class="st13" cx="156" cy="372" r="4"/>
<rect class="st15" width="400" height="400"/>
</svg>
