<?xml version="1.0" encoding="utf-8"?>
<!-- Generator: Adobe Illustrator 26.0.1, SVG Export Plug-In . SVG Version: 6.00 Build 0)  -->
<svg version="1.1" id="CRO_x5F_Hub-Page_x5F_Speed" xmlns="http://www.w3.org/2000/svg" xmlns:xlink="http://www.w3.org/1999/xlink"
	 x="0px" y="0px" viewBox="0 0 400 400" style="enable-background:new 0 0 400 400;" xml:space="preserve">
<style type="text/css">
	.st0{fill:#EF7D7D;}
	.st1{fill:#515979;}
	.st2{fill:#FFD886;}
	.st3{fill:#FFE8A0;}
	.st4{fill:#5F87A5;}
	.st5{fill:#FFF1C6;}
	.st6{fill:#BEE7FA;}
	.st7{fill:#7799B2;}
	.st8{fill:#D2EEFC;}
	.st9{fill:#FFFFFF;}
	.st10{fill:#E9E4FF;}
	.st11{fill:#EEEBFF;}
	.st12{fill:#667683;}
	.st13{fill:#7DDF96;}
	.st14{fill:#C4BDFF;}
	.st15{fill:#AAA0FF;}
	.st16{fill:none;}
</style>
<g>
	<g>
		<g>
			<g>
				<path class="st0" d="M115.05,197.43c-1.6,0-3.11-0.62-4.24-1.76l-5.66-5.66c-1.13-1.13-1.76-2.64-1.76-4.24
					c0-1.6,0.62-3.11,1.76-4.24l12.73-12.73c1.13-1.13,2.64-1.76,4.24-1.76c1.6,0,3.11,0.62,4.24,1.76l5.66,5.66
					c1.13,1.13,1.76,2.64,1.76,4.24c0,1.6-0.62,3.11-1.76,4.24l-12.73,12.73C118.16,196.8,116.65,197.43,115.05,197.43z"/>
			</g>
			<g>
				<g>
					<path class="st1" d="M122.12,170.04c0.77,0,1.54,0.29,2.12,0.88l5.66,5.66c1.17,1.17,1.17,3.07,0,4.24l-12.73,12.73
						c-0.59,0.59-1.35,0.88-2.12,0.88c-0.77,0-1.54-0.29-2.12-0.88l-5.66-5.66c-1.17-1.17-1.17-3.07,0-4.24L120,170.92
						C120.58,170.33,121.35,170.04,122.12,170.04 M122.12,164.04c-2.4,0-4.66,0.94-6.36,2.64l-12.73,12.73
						c-3.51,3.51-3.51,9.22,0,12.73l5.66,5.66c1.7,1.7,3.96,2.64,6.36,2.64c2.4,0,4.66-0.94,6.36-2.64l12.73-12.73
						c3.51-3.51,3.51-9.22,0-12.73l-5.66-5.66C126.78,164.98,124.52,164.04,122.12,164.04L122.12,164.04z"/>
				</g>
			</g>
		</g>
		<g>
			<g>
				<path class="st2" d="M111.51,208.03c-1.6,0-3.11-0.62-4.24-1.76l-12.73-12.73c-2.34-2.34-2.34-6.15,0-8.48l12.73-12.73
					c1.13-1.13,2.64-1.76,4.24-1.76c1.6,0,3.11,0.62,4.24,1.76l12.73,12.73c2.34,2.34,2.34,6.14,0,8.48l-12.73,12.73
					C114.62,207.41,113.11,208.03,111.51,208.03z"/>
			</g>
			<g>
				<path class="st1" d="M111.51,173.58c0.77,0,1.54,0.29,2.12,0.88l12.73,12.73c1.17,1.17,1.17,3.07,0,4.24l-12.73,12.73
					c-0.59,0.59-1.35,0.88-2.12,0.88s-1.54-0.29-2.12-0.88l-12.73-12.73c-1.17-1.17-1.17-3.07,0-4.24l12.73-12.73
					C109.97,173.87,110.74,173.58,111.51,173.58 M111.51,167.58c-2.4,0-4.66,0.94-6.36,2.64l-12.73,12.73
					c-1.7,1.7-2.64,3.96-2.64,6.36s0.94,4.66,2.64,6.36l12.73,12.73c1.7,1.7,3.96,2.64,6.36,2.64s4.66-0.94,6.36-2.64l12.73-12.73
					c1.7-1.7,2.64-3.96,2.64-6.36s-0.94-4.66-2.64-6.36l-12.73-12.73C116.17,168.51,113.91,167.58,111.51,167.58L111.51,167.58z"/>
			</g>
		</g>
		<g>
			<path class="st3" d="M100.2,194.96l-3.54-3.54c-1.17-1.17-1.17-3.07,0-4.24l12.73-12.73c1.17-1.17,3.07-1.17,4.24,0l3.54,3.54
				L100.2,194.96z"/>
		</g>
	</g>
	<g>
		<g>
			<path class="st4" d="M71.28,176.54c-3.31,0-6-2.69-6-6v-18c0-3.31,2.69-6,6-6h8c3.31,0,6,2.69,6,6v18c0,3.31-2.69,6-6,6H71.28z"
				/>
		</g>
		<g>
			<g>
				<path class="st1" d="M79.28,149.54c1.66,0,3,1.34,3,3v18c0,1.66-1.34,3-3,3h-8c-1.66,0-3-1.34-3-3v-18c0-1.66,1.34-3,3-3H79.28
					 M79.28,143.54h-8c-4.96,0-9,4.04-9,9v18c0,4.96,4.04,9,9,9h8c4.96,0,9-4.04,9-9v-18C88.28,147.57,84.24,143.54,79.28,143.54
					L79.28,143.54z"/>
			</g>
		</g>
	</g>
	<g>
		<g>
			<path class="st3" d="M66.28,186.54c-3.31,0-6-2.69-6-6v-18c0-3.31,2.69-6,6-6h18c3.31,0,6,2.69,6,6v18c0,3.31-2.69,6-6,6H66.28z"
				/>
		</g>
		<g>
			<g>
				<path class="st1" d="M84.28,159.54c1.66,0,3,1.34,3,3v18c0,1.66-1.34,3-3,3h-18c-1.66,0-3-1.34-3-3v-18c0-1.66,1.34-3,3-3H84.28
					 M84.28,153.54h-18c-4.96,0-9,4.04-9,9v18c0,4.96,4.04,9,9,9h18c4.96,0,9-4.04,9-9v-18C93.28,157.57,89.24,153.54,84.28,153.54
					L84.28,153.54z"/>
			</g>
		</g>
	</g>
	<g>
		<path class="st2" d="M71.28,183.54h-5c-1.66,0-3-1.34-3-3v-18c0-1.66,1.34-3,3-3h5V183.54z"/>
	</g>
	<g>
		<g>
			<g>
				<path class="st4" d="M35.51,197.43c-1.6,0-3.11-0.62-4.24-1.76l-12.73-12.73c-1.13-1.13-1.76-2.64-1.76-4.24
					c0-1.6,0.62-3.11,1.76-4.24l5.66-5.66c1.13-1.13,2.64-1.76,4.24-1.76c1.6,0,3.11,0.62,4.24,1.76l12.73,12.73
					c2.34,2.34,2.34,6.15,0,8.49l-5.66,5.66C38.62,196.8,37.11,197.43,35.51,197.43z"/>
			</g>
			<g>
				<g>
					<path class="st1" d="M28.44,170.04c0.77,0,1.54,0.29,2.12,0.88l12.73,12.73c1.17,1.17,1.17,3.07,0,4.24l-5.66,5.66
						c-0.59,0.59-1.35,0.88-2.12,0.88c-0.77,0-1.54-0.29-2.12-0.88l-12.73-12.73c-1.17-1.17-1.17-3.07,0-4.24l5.66-5.66
						C26.9,170.33,27.67,170.04,28.44,170.04 M28.44,164.04c-2.4,0-4.66,0.94-6.36,2.64l-5.66,5.66c-3.51,3.51-3.51,9.22,0,12.73
						l12.73,12.73c1.7,1.7,3.96,2.64,6.36,2.64s4.66-0.94,6.36-2.64l5.66-5.66c1.7-1.7,2.64-3.96,2.64-6.36
						c0-2.4-0.94-4.66-2.64-6.36L34.8,166.68C33.1,164.98,30.84,164.04,28.44,164.04L28.44,164.04z"/>
				</g>
			</g>
		</g>
		<g>
			<g>
				<path class="st5" d="M39.05,208.03c-1.6,0-3.11-0.62-4.24-1.76l-12.73-12.73c-1.13-1.13-1.76-2.64-1.76-4.24
					c0-1.6,0.62-3.11,1.76-4.24l12.73-12.73c1.13-1.13,2.64-1.76,4.24-1.76c1.6,0,3.11,0.62,4.24,1.76l12.73,12.73
					c1.13,1.13,1.76,2.64,1.76,4.24c0,1.6-0.62,3.11-1.76,4.24l-12.73,12.73C42.16,207.41,40.65,208.03,39.05,208.03z"/>
			</g>
			<g>
				<g>
					<path class="st1" d="M39.05,173.58c0.77,0,1.54,0.29,2.12,0.88l12.73,12.73c1.17,1.17,1.17,3.07,0,4.24l-12.73,12.73
						c-0.59,0.59-1.35,0.88-2.12,0.88c-0.77,0-1.54-0.29-2.12-0.88L24.2,191.43c-1.17-1.17-1.17-3.07,0-4.24l12.73-12.73
						C37.51,173.87,38.28,173.58,39.05,173.58 M39.05,167.58c-2.4,0-4.66,0.94-6.36,2.64l-12.73,12.73c-1.7,1.7-2.64,3.96-2.64,6.36
						s0.94,4.66,2.64,6.36l12.73,12.73c1.7,1.7,3.96,2.64,6.36,2.64s4.66-0.94,6.36-2.64l12.73-12.73c1.7-1.7,2.64-3.96,2.64-6.36
						s-0.94-4.66-2.64-6.36l-12.73-12.73C43.71,168.51,41.45,167.58,39.05,167.58L39.05,167.58z"/>
				</g>
			</g>
		</g>
	</g>
	<g>
		<g>
			<g>
				<path class="st3" d="M75.28,294.54c-9.71,0-20.77-7.03-31.14-19.79c-9.33-11.48-16.83-26.25-20.06-39.51
					c-1-3.74-1.6-7.69-1.75-11.67c-0.03-0.67-0.05-1.37-0.05-2.04c0-29.22,23.78-53,53-53c29.22,0,53,23.78,53,53
					c0,0.68-0.02,1.37-0.05,2.06c-0.15,3.96-0.75,7.91-1.77,11.71c-3.22,13.19-10.72,27.96-20.05,39.44
					C96.05,287.51,84.99,294.54,75.28,294.54z M75.28,270.54c-3.31,0-6,2.69-6,6s2.69,6,6,6s6-2.69,6-6S78.59,270.54,75.28,270.54z"
					/>
			</g>
		</g>
		<g>
			<g>
				<path class="st1" d="M75.28,171.54c27.62,0,50,22.38,50,50c0,0.63-0.02,1.28-0.05,1.93c-0.14,3.81-0.71,7.52-1.67,11.07
					c-6.39,26.2-29.45,57-48.28,57s-41.89-30.81-48.28-57c-0.95-3.55-1.52-7.25-1.67-11.07c-0.03-0.65-0.05-1.29-0.05-1.93
					C25.28,193.92,47.66,171.54,75.28,171.54 M75.28,285.54c4.97,0,9-4.03,9-9s-4.03-9-9-9c-4.97,0-9,4.03-9,9
					S70.31,285.54,75.28,285.54 M75.28,165.54c-30.88,0-56,25.12-56,56c0,0.66,0.02,1.38,0.05,2.2c0.16,4.14,0.78,8.28,1.85,12.29
					c3.34,13.65,11.05,28.83,20.63,40.62c10.95,13.47,22.83,20.89,33.46,20.89s22.52-7.42,33.46-20.89
					c9.58-11.79,17.29-26.97,20.63-40.62c1.07-4,1.69-8.15,1.85-12.33c0.04-0.78,0.05-1.5,0.05-2.16
					C131.28,190.66,106.16,165.54,75.28,165.54L75.28,165.54z M75.28,279.54c-1.65,0-3-1.35-3-3s1.35-3,3-3s3,1.35,3,3
					S76.93,279.54,75.28,279.54L75.28,279.54z"/>
			</g>
		</g>
	</g>
	<g>
		<path class="st5" d="M31.33,229.47c-0.03-0.65-0.05-1.29-0.05-1.93c0-27.62,22.38-50,50-50c12.28,0,23.52,4.43,32.22,11.78
			c-9.17-10.87-22.89-17.78-38.22-17.78c-27.62,0-50,22.38-50,50c0,0.63,0.02,1.28,0.05,1.93c0.14,3.81,0.71,7.52,1.67,11.07
			c4.2,17.19,15.57,36.37,28.22,47.52c-10.13-11.31-18.7-27.11-22.22-41.52C32.04,236.98,31.47,233.28,31.33,229.47z"/>
	</g>
	<g>
		<g>
			<rect x="87.28" y="183.54" class="st1" width="2" height="2"/>
		</g>
		<g>
			<rect x="87.28" y="185.54" class="st1" width="2" height="2"/>
		</g>
		<g>
			<rect x="87.28" y="187.54" class="st1" width="2" height="2"/>
		</g>
		<g>
			<rect x="91.28" y="187.54" class="st1" width="2" height="2"/>
		</g>
		<g>
			<rect x="91.28" y="185.54" class="st1" width="2" height="2"/>
		</g>
		<g>
			<rect x="91.28" y="183.54" class="st1" width="2" height="2"/>
		</g>
		<g>
			<rect x="89.28" y="183.54" class="st1" width="2" height="2"/>
		</g>
		<g>
			<rect x="89.28" y="188.54" class="st1" width="2" height="2"/>
		</g>
		<g>
			<rect x="91.28" y="191.54" class="st1" width="2" height="2"/>
		</g>
		<g>
			<rect x="91.28" y="189.54" class="st1" width="2" height="2"/>
		</g>
		<g>
			<rect x="87.28" y="189.54" class="st1" width="2" height="2"/>
		</g>
		<g>
			<rect x="87.28" y="191.54" class="st1" width="2" height="2"/>
		</g>
		<g>
			<rect x="57.28" y="183.54" class="st1" width="2" height="2"/>
		</g>
		<g>
			<rect x="57.28" y="185.54" class="st1" width="2" height="2"/>
		</g>
		<g>
			<rect x="57.28" y="187.54" class="st1" width="2" height="2"/>
		</g>
		<g>
			<rect x="57.28" y="189.54" class="st1" width="2" height="2"/>
		</g>
		<g>
			<rect x="57.28" y="191.54" class="st1" width="2" height="2"/>
		</g>
		<g>
			<rect x="61.28" y="183.54" class="st1" width="2" height="2"/>
		</g>
		<g>
			<rect x="61.28" y="185.54" class="st1" width="2" height="2"/>
		</g>
		<g>
			<rect x="59.28" y="191.54" class="st1" width="2" height="2"/>
		</g>
		<g>
			<rect x="61.28" y="189.54" class="st1" width="2" height="2"/>
		</g>
		<g>
			<rect x="61.28" y="187.54" class="st1" width="2" height="2"/>
		</g>
		<g>
			<rect x="61.28" y="191.54" class="st1" width="2" height="2"/>
		</g>
		<g>
			<rect x="65.28" y="183.54" class="st1" width="2" height="2"/>
		</g>
		<g>
			<rect x="65.28" y="185.54" class="st1" width="2" height="2"/>
		</g>
		<g>
			<rect x="65.28" y="187.54" class="st1" width="2" height="2"/>
		</g>
		<g>
			<rect x="65.28" y="189.54" class="st1" width="2" height="2"/>
		</g>
		<g>
			<rect x="65.28" y="191.54" class="st1" width="2" height="2"/>
		</g>
		<g>
			<rect x="67.28" y="191.54" class="st1" width="2" height="2"/>
		</g>
		<g>
			<rect x="69.28" y="191.54" class="st1" width="2" height="2"/>
		</g>
		<g>
			<rect x="79.28" y="183.54" class="st1" width="2" height="2"/>
		</g>
		<g>
			<rect x="79.28" y="185.54" class="st1" width="2" height="2"/>
		</g>
		<g>
			<rect x="79.28" y="187.54" class="st1" width="2" height="2"/>
		</g>
		<g>
			<rect x="81.28" y="183.54" class="st1" width="2" height="2"/>
		</g>
		<g>
			<rect x="83.28" y="185.54" class="st1" width="2" height="2"/>
		</g>
		<g>
			<rect x="83.28" y="187.54" class="st1" width="2" height="2"/>
		</g>
		<g>
			<g>
				<rect x="81.28" y="189.54" class="st1" width="2" height="2"/>
			</g>
		</g>
		<g>
			<g>
				<rect x="83.28" y="191.54" class="st1" width="2" height="2"/>
			</g>
		</g>
		<g>
			<rect x="79.28" y="191.54" class="st1" width="2" height="2"/>
		</g>
		<g>
			<rect x="79.28" y="189.54" class="st1" width="2" height="2"/>
		</g>
		<g>
			<rect x="73.28" y="183.54" class="st1" width="2" height="2"/>
		</g>
		<g>
			<rect x="73.28" y="185.54" class="st1" width="2" height="2"/>
		</g>
		<g>
			<rect x="73.28" y="187.54" class="st1" width="2" height="2"/>
		</g>
		<g>
			<rect x="75.28" y="183.54" class="st1" width="2" height="2"/>
		</g>
		<g>
			<rect x="71.28" y="183.54" class="st1" width="2" height="2"/>
		</g>
		<g>
			<rect x="73.28" y="191.54" class="st1" width="2" height="2"/>
		</g>
		<g>
			<rect x="73.28" y="189.54" class="st1" width="2" height="2"/>
		</g>
	</g>
	<g>
		<path class="st2" d="M125.21,219.2c-0.02-0.36-0.03-0.71-0.06-1.06c-0.01-0.11-0.02-0.23-0.03-0.34c-0.05-0.63-0.1-1.26-0.17-1.89
			c-0.03-0.25-0.06-0.49-0.09-0.73c-0.09-0.69-0.19-1.37-0.3-2.05c0,0,0,0,0,0c0-0.01,0-0.02-0.01-0.03c-0.06-0.33-0.11-0.67-0.18-1
			c-0.12-0.62-0.25-1.23-0.39-1.84c-0.06-0.28-0.13-0.57-0.2-0.85c0,0,0,0,0,0c-0.18-0.7-0.37-1.4-0.57-2.09
			c-0.01-0.03-0.02-0.05-0.02-0.08c-0.3-1.02-0.63-2.03-1-3.02c0,0,0,0,0,0c-0.02-0.06-0.05-0.12-0.07-0.18
			c-0.06-0.15-0.12-0.29-0.17-0.44c-0.24-0.63-0.5-1.26-0.76-1.88c-0.09-0.2-0.18-0.4-0.27-0.6c-0.28-0.63-0.57-1.25-0.88-1.86
			c-0.14-0.29-0.29-0.57-0.44-0.85c-0.35-0.67-0.71-1.32-1.09-1.97c-0.07-0.13-0.14-0.26-0.22-0.38c-0.46-0.77-0.93-1.53-1.43-2.27
			c-0.5-0.75-1.02-1.48-1.56-2.2c-0.01-0.01-0.01-0.01-0.02-0.02c-0.55-0.73-1.12-1.44-1.7-2.14c-0.14-0.16-0.28-0.32-0.42-0.49
			c-0.45-0.52-0.9-1.03-1.37-1.53c-0.17-0.18-0.34-0.36-0.51-0.54c-0.47-0.49-0.95-0.97-1.44-1.43c-0.16-0.15-0.32-0.31-0.49-0.46
			c-0.54-0.51-1.1-1-1.67-1.48c-0.11-0.09-0.22-0.19-0.33-0.28c-0.66-0.56-1.34-1.1-2.03-1.62c-0.01-0.01-0.03-0.02-0.04-0.03
			c6.28,8.36,10,18.74,10,30c0,0.63-0.02,1.28-0.05,1.93c-0.15,3.81-0.71,7.52-1.67,11.07c-4.37,17.93-16.56,38-29.85,48.9
			c0.36,0.97,0.56,2.01,0.56,3.11c0,4.97-4.03,9-9,9c-3.2,0-6-1.67-7.59-4.18c-0.81,0.11-1.61,0.18-2.41,0.18
			c-5.81,0-12.03-2.94-18.03-7.77c0.14,0.16,0.27,0.33,0.4,0.49c0.25,0.29,0.5,0.58,0.75,0.87c0.41,0.47,0.83,0.94,1.25,1.4
			c0.22,0.24,0.44,0.49,0.66,0.73c0.64,0.68,1.28,1.35,1.92,2c0.03,0.03,0.05,0.05,0.08,0.08c0.55,0.54,1.09,1.07,1.64,1.58
			c0.02,0.02,0.04,0.04,0.06,0.06c0.55,0.51,1.11,1.01,1.67,1.49c0.05,0.04,0.09,0.08,0.14,0.12c0.54,0.46,1.08,0.91,1.62,1.34
			c0.03,0.02,0.06,0.05,0.09,0.07c0.56,0.44,1.11,0.87,1.67,1.28c0.06,0.04,0.12,0.08,0.18,0.13c0.14,0.1,0.27,0.19,0.41,0.28
			c0.34,0.24,0.67,0.47,1.01,0.7c0.25,0.17,0.5,0.32,0.74,0.48c0.3,0.19,0.6,0.38,0.9,0.56c0.19,0.12,0.38,0.23,0.57,0.34
			c0.1,0.05,0.2,0.11,0.29,0.17c0.42,0.24,0.84,0.47,1.26,0.69c0.22,0.11,0.44,0.21,0.66,0.32c0.38,0.19,0.76,0.37,1.14,0.54
			c0.1,0.04,0.2,0.08,0.3,0.12c0.5,0.21,1,0.42,1.5,0.6c0.29,0.1,0.58,0.19,0.86,0.28c0.31,0.1,0.62,0.21,0.93,0.29
			c0.23,0.06,0.46,0.11,0.69,0.16c0.53,0.13,1.05,0.24,1.57,0.33c0.23,0.04,0.45,0.07,0.68,0.1c0.21,0.03,0.41,0.07,0.62,0.09
			c0,0,0,0,0,0c0.59,0.06,1.17,0.09,1.75,0.09c18.83,0,41.89-30.81,48.28-57c0.95-3.55,1.52-7.25,1.67-11.07
			c0.03-0.65,0.05-1.29,0.05-1.93C125.28,220.75,125.24,219.97,125.21,219.2z"/>
	</g>
	<g>
		<g>
			<path class="st4" d="M55.28,243.54c-12.13,0-22-9.87-22-22s9.87-22,22-22h40c12.13,0,22,9.87,22,22s-9.87,22-22,22H55.28z"/>
		</g>
		<g>
			<g>
				<path class="st1" d="M95.28,201.54c11.05,0,20,8.96,20,20c0,11.04-8.95,20-20,20h-40c-11.05,0-20-8.96-20-20
					c0-11.04,8.95-20,20-20H95.28 M95.28,197.54h-40c-13.23,0-24,10.77-24,24s10.77,24,24,24h40c13.23,0,24-10.77,24-24
					S108.51,197.54,95.28,197.54L95.28,197.54z"/>
			</g>
		</g>
	</g>
	<g>
		<g>
			<path class="st6" d="M56.28,235.04c-7.44,0-13.5-6.06-13.5-13.5s6.06-13.5,13.5-13.5h38c7.44,0,13.5,6.06,13.5,13.5
				s-6.06,13.5-13.5,13.5H56.28z"/>
		</g>
		<g>
			<g>
				<path class="st1" d="M94.28,209.54c6.62,0,12,5.38,12,12s-5.38,12-12,12h-38c-6.62,0-12-5.38-12-12s5.38-12,12-12H94.28
					 M94.28,206.54h-38c-8.28,0-15,6.72-15,15c0,8.28,6.72,15,15,15h38c8.28,0,15-6.72,15-15
					C109.28,213.25,102.56,206.54,94.28,206.54L94.28,206.54z"/>
			</g>
		</g>
	</g>
	<g>
		<path class="st7" d="M41.28,221.54c0-8.28,6.72-15,15-15h38c2.63,0,5.1,0.68,7.25,1.87l5.73-2.86c-3.34-2.51-7.48-4.01-11.98-4.01
			h-40c-11.05,0-20,8.96-20,20c0,6.55,3.16,12.34,8.02,15.99l5.73-2.86C44.41,232.11,41.28,227.19,41.28,221.54z"/>
	</g>
	<g>
		<path class="st8" d="M56.28,206.54c-8.28,0-15,6.72-15,15c0,5.65,3.13,10.57,7.75,13.13l52.51-26.25
			c-2.15-1.19-4.62-1.87-7.25-1.87H56.28z"/>
	</g>
	<g>
		<g>
			<path class="st1" d="M94.28,210.54c6.07,0,11,4.93,11,11c0,6.07-4.93,11-11,11h-38c-6.07,0-11-4.93-11-11c0-6.07,4.93-11,11-11
				H94.28 M94.28,206.54h-38c-8.28,0-15,6.72-15,15c0,8.28,6.72,15,15,15h38c8.28,0,15-6.72,15-15
				C109.28,213.25,102.56,206.54,94.28,206.54L94.28,206.54z"/>
		</g>
	</g>
	<g>
		<g>
			<polygon class="st1" points="79.28,220.54 80.28,219.54 80.28,215.54 79.28,214.54 78.28,215.54 78.28,219.54 			"/>
		</g>
		<g>
			<polygon class="st1" points="85.28,212.54 81.28,212.54 80.28,213.54 81.28,214.54 85.28,214.54 86.28,213.54 			"/>
		</g>
		<g>
			<polygon class="st1" points="85.28,228.54 81.28,228.54 80.28,229.54 81.28,230.54 85.28,230.54 86.28,229.54 			"/>
		</g>
		<g>
			<polygon class="st1" points="86.28,215.54 86.28,219.54 87.28,220.54 88.28,219.54 88.28,215.54 87.28,214.54 			"/>
		</g>
		<g>
			<polygon class="st1" points="86.28,223.54 86.28,227.54 87.28,228.54 88.28,227.54 88.28,223.54 87.28,222.54 			"/>
		</g>
		<g>
			<polygon class="st1" points="78.28,223.54 78.28,227.54 79.28,228.54 80.28,227.54 80.28,223.54 79.28,222.54 			"/>
		</g>
		<g>
			<polygon class="st1" points="69.28,212.54 65.28,212.54 64.28,213.54 65.28,214.54 69.28,214.54 70.28,213.54 			"/>
		</g>
		<g>
			<polygon class="st1" points="69.28,220.54 65.28,220.54 64.28,221.54 65.28,222.54 69.28,222.54 70.28,221.54 			"/>
		</g>
		<g>
			<polygon class="st1" points="69.28,228.54 65.28,228.54 64.28,229.54 65.28,230.54 69.28,230.54 70.28,229.54 			"/>
		</g>
		<g>
			<polygon class="st1" points="70.28,215.54 70.28,219.54 71.28,220.54 72.28,219.54 72.28,215.54 71.28,214.54 			"/>
		</g>
		<g>
			<polygon class="st1" points="70.28,223.54 70.28,227.54 71.28,228.54 72.28,227.54 72.28,223.54 71.28,222.54 			"/>
		</g>
		<g>
			<polygon class="st1" points="51.28,220.54 52.28,219.54 52.28,215.54 51.28,214.54 50.28,215.54 50.28,219.54 			"/>
		</g>
		<g>
			<polygon class="st1" points="57.28,212.54 53.28,212.54 52.28,213.54 53.28,214.54 57.28,214.54 58.28,213.54 			"/>
		</g>
		<g>
			<polygon class="st1" points="57.28,228.54 53.28,228.54 52.28,229.54 53.28,230.54 57.28,230.54 58.28,229.54 			"/>
		</g>
		<g>
			<polygon class="st1" points="58.28,215.54 58.28,219.54 59.28,220.54 60.28,219.54 60.28,215.54 59.28,214.54 			"/>
		</g>
		<g>
			<polygon class="st1" points="58.28,223.54 58.28,227.54 59.28,228.54 60.28,227.54 60.28,223.54 59.28,222.54 			"/>
		</g>
		<g>
			<polygon class="st1" points="50.28,223.54 50.28,227.54 51.28,228.54 52.28,227.54 52.28,223.54 51.28,222.54 			"/>
		</g>
		<g>
			<polygon class="st1" points="91.28,220.54 92.28,219.54 92.28,215.54 91.28,214.54 90.28,215.54 90.28,219.54 			"/>
		</g>
		<g>
			<polygon class="st1" points="97.28,212.54 93.28,212.54 92.28,213.54 93.28,214.54 97.28,214.54 98.28,213.54 			"/>
		</g>
		<g>
			<polygon class="st1" points="97.28,228.54 93.28,228.54 92.28,229.54 93.28,230.54 97.28,230.54 98.28,229.54 			"/>
		</g>
		<g>
			<polygon class="st1" points="98.28,215.54 98.28,219.54 99.28,220.54 100.28,219.54 100.28,215.54 99.28,214.54 			"/>
		</g>
		<g>
			<polygon class="st1" points="98.28,223.54 98.28,227.54 99.28,228.54 100.28,227.54 100.28,223.54 99.28,222.54 			"/>
		</g>
		<g>
			<polygon class="st1" points="90.28,223.54 90.28,227.54 91.28,228.54 92.28,227.54 92.28,223.54 91.28,222.54 			"/>
		</g>
		<g>
			<rect x="74.28" y="217.54" class="st1" width="2" height="2"/>
		</g>
		<g>
			<rect x="74.28" y="223.54" class="st1" width="2" height="2"/>
		</g>
	</g>
	<g>
		<g>
			<rect x="68.28" y="253.54" class="st1" width="2" height="2"/>
		</g>
		<g>
			<rect x="70.28" y="253.54" class="st1" width="2" height="2"/>
		</g>
		<g>
			<rect x="75.28" y="249.54" class="st1" width="2" height="2"/>
		</g>
		<g>
			<rect x="75.28" y="251.54" class="st1" width="2" height="2"/>
		</g>
		<g>
			<rect x="75.28" y="253.54" class="st1" width="2" height="2"/>
		</g>
		<g>
			<rect x="77.28" y="249.54" class="st1" width="2" height="2"/>
		</g>
		<g>
			<rect x="73.28" y="249.54" class="st1" width="2" height="2"/>
		</g>
		<g>
			<rect x="81.28" y="249.54" class="st1" width="2" height="2"/>
		</g>
		<g>
			<rect x="81.28" y="251.54" class="st1" width="2" height="2"/>
		</g>
		<g>
			<rect x="81.28" y="253.54" class="st1" width="2" height="2"/>
		</g>
		<g>
			<rect x="85.28" y="253.54" class="st1" width="2" height="2"/>
		</g>
		<g>
			<rect x="85.28" y="251.54" class="st1" width="2" height="2"/>
		</g>
		<g>
			<rect x="85.28" y="249.54" class="st1" width="2" height="2"/>
		</g>
		<g>
			<rect x="87.28" y="249.54" class="st1" width="2" height="2"/>
		</g>
		<g>
			<rect x="89.28" y="251.54" class="st1" width="2" height="2"/>
		</g>
		<g>
			<rect x="89.28" y="253.54" class="st1" width="2" height="2"/>
		</g>
		<g>
			<rect x="91.28" y="249.54" class="st1" width="2" height="2"/>
		</g>
		<g>
			<rect x="93.28" y="249.54" class="st1" width="2" height="2"/>
		</g>
		<g>
			<rect x="93.28" y="251.54" class="st1" width="2" height="2"/>
		</g>
		<g>
			<rect x="93.28" y="253.54" class="st1" width="2" height="2"/>
		</g>
		<g>
			<rect x="97.28" y="253.54" class="st1" width="2" height="2"/>
		</g>
		<g>
			<rect x="97.28" y="251.54" class="st1" width="2" height="2"/>
		</g>
		<g>
			<rect x="97.28" y="255.54" class="st1" width="2" height="2"/>
		</g>
		<g>
			<rect x="97.28" y="257.54" class="st1" width="2" height="2"/>
		</g>
		<g>
			<rect x="99.28" y="257.54" class="st1" width="2" height="2"/>
		</g>
		<g>
			<rect x="93.28" y="257.54" class="st1" width="2" height="2"/>
		</g>
		<g>
			<rect x="93.28" y="255.54" class="st1" width="2" height="2"/>
		</g>
		<g>
			<rect x="89.28" y="255.54" class="st1" width="2" height="2"/>
		</g>
		<g>
			<rect x="89.28" y="257.54" class="st1" width="2" height="2"/>
		</g>
		<g>
			<rect x="85.28" y="257.54" class="st1" width="2" height="2"/>
		</g>
		<g>
			<rect x="85.28" y="255.54" class="st1" width="2" height="2"/>
		</g>
		<g>
			<rect x="81.28" y="255.54" class="st1" width="2" height="2"/>
		</g>
		<g>
			<rect x="81.28" y="257.54" class="st1" width="2" height="2"/>
		</g>
		<g>
			<rect x="47.28" y="249.54" class="st1" width="2" height="2"/>
		</g>
		<g>
			<rect x="47.28" y="251.54" class="st1" width="2" height="2"/>
		</g>
		<g>
			<rect x="47.28" y="253.54" class="st1" width="2" height="2"/>
		</g>
		<g>
			<rect x="47.28" y="255.54" class="st1" width="2" height="2"/>
		</g>
		<g>
			<rect x="47.28" y="257.54" class="st1" width="2" height="2"/>
		</g>
		<g>
			<rect x="53.28" y="249.54" class="st1" width="2" height="2"/>
		</g>
		<g>
			<rect x="53.28" y="251.54" class="st1" width="2" height="2"/>
		</g>
		<g>
			<rect x="49.28" y="253.54" class="st1" width="2" height="2"/>
		</g>
		<g>
			<rect x="51.28" y="253.54" class="st1" width="2" height="2"/>
		</g>
		<g>
			<rect x="53.28" y="255.54" class="st1" width="2" height="2"/>
		</g>
		<g>
			<rect x="53.28" y="257.54" class="st1" width="2" height="2"/>
		</g>
		<g>
			<rect x="57.28" y="249.54" class="st1" width="2" height="2"/>
		</g>
		<g>
			<rect x="57.28" y="251.54" class="st1" width="2" height="2"/>
		</g>
		<g>
			<rect x="57.28" y="253.54" class="st1" width="2" height="2"/>
		</g>
		<g>
			<rect x="57.28" y="255.54" class="st1" width="2" height="2"/>
		</g>
		<g>
			<rect x="57.28" y="257.54" class="st1" width="2" height="2"/>
		</g>
		<g>
			<rect x="61.28" y="249.54" class="st1" width="2" height="2"/>
		</g>
		<g>
			<rect x="59.28" y="249.54" class="st1" width="2" height="2"/>
		</g>
		<g>
			<rect x="59.28" y="257.54" class="st1" width="2" height="2"/>
		</g>
		<g>
			<rect x="61.28" y="257.54" class="st1" width="2" height="2"/>
		</g>
		<g>
			<rect x="63.28" y="251.54" class="st1" width="2" height="2"/>
		</g>
		<g>
			<rect x="59.28" y="253.54" class="st1" width="2" height="2"/>
		</g>
		<g>
			<rect x="61.28" y="253.54" class="st1" width="2" height="2"/>
		</g>
		<g>
			<rect x="63.28" y="255.54" class="st1" width="2" height="2"/>
		</g>
		<g>
			<rect x="75.28" y="257.54" class="st1" width="2" height="2"/>
		</g>
		<g>
			<rect x="75.28" y="255.54" class="st1" width="2" height="2"/>
		</g>
		<g>
			<rect x="97.28" y="249.54" class="st1" width="2" height="2"/>
		</g>
		<g>
			<rect x="99.28" y="249.54" class="st1" width="2" height="2"/>
		</g>
		<g>
			<rect x="101.28" y="257.54" class="st1" width="2" height="2"/>
		</g>
		<g>
			<rect x="101.28" y="249.54" class="st1" width="2" height="2"/>
		</g>
		<g>
			<rect x="99.28" y="253.54" class="st1" width="2" height="2"/>
		</g>
	</g>
	<g>
		<path class="st1" d="M203.4,396.16L203.4,396.16c-8.34,0-14.79-2.42-19.17-7.2c-6.52-7.11-6.04-16.86-5.96-18
			c-0.02-8.67-3.01-15.88-8.88-21.42c-16.29-15.37-49.46-13.65-49.79-13.63c-0.04,0-0.08,0-0.12,0c-44.73,0-46.2-45.71-46.21-46.17
			l0-11.88c0-1.1,0.9-2,2-2s2,0.9,2,2v11.83c0,0.06,0.3,10.79,5.71,21.31c7.12,13.85,19.38,20.88,36.44,20.9
			c2.12-0.11,35.38-1.64,52.71,14.72c6.73,6.35,10.14,14.56,10.14,24.41c0,0.06,0,0.12-0.01,0.17c-0.01,0.09-0.67,8.99,4.93,15.07
			c3.59,3.9,9.04,5.88,16.2,5.88c0.45,0,11.32-0.29,14.66-15.01c0.16-1.04,3.01-20.96-11.54-38.22
			c-14.9-17.68-42.22-26.64-81.2-26.65c-0.78,0.04-8.25,0.31-16.73-1.93c-11.87-3.14-19.94-9.75-23.33-19.12
			c-0.38-1.04,0.16-2.19,1.2-2.56c1.04-0.37,2.19,0.16,2.56,1.2c7.14,19.71,35.86,18.42,36.15,18.41c0.04,0,0.07,0,0.11,0
			c40.28,0,68.67,9.47,84.36,28.14c16.05,19.1,12.52,40.55,12.36,41.46c-2.12,9.41-6.99,13.86-10.71,15.95
			C207.21,396.13,203.58,396.16,203.4,396.16z"/>
	</g>
</g>
<g>
	<g>
		<g>
			<path class="st9" d="M190.86,269.16c-7.17,0-13-5.83-13-13v-226c0-7.17,5.83-13,13-13h180c7.17,0,13,5.83,13,13v226
				c0,7.17-5.83,13-13,13H190.86z"/>
		</g>
		<g>
			<path class="st1" d="M370.86,20.16c5.52,0,10,4.48,10,10v226c0,5.52-4.48,10-10,10h-180c-5.52,0-10-4.48-10-10v-226
				c0-5.52,4.48-10,10-10H370.86 M370.86,14.16h-180c-8.82,0-16,7.18-16,16v226c0,8.82,7.18,16,16,16h180c8.82,0,16-7.18,16-16v-226
				C386.86,21.34,379.68,14.16,370.86,14.16L370.86,14.16z"/>
		</g>
	</g>
	<g>
		<path class="st10" d="M370.86,266.16h-180c-5.52,0-10-4.48-10-10v-42h200v42C380.86,261.68,376.38,266.16,370.86,266.16z"/>
	</g>
	<g>
		<rect x="180.86" y="54.16" class="st11" width="200" height="72"/>
	</g>
	<g>
		<g>
			<path class="st12" d="M180.86,51.16c-1.66,0-3-1.34-3-3v-18c0-7.17,5.83-13,13-13h180c7.17,0,13,5.83,13,13v18c0,1.66-1.34,3-3,3
				H180.86z"/>
		</g>
		<g>
			<path class="st1" d="M370.86,20.16c5.52,0,10,4.48,10,10v18h-200v-18c0-5.52,4.48-10,10-10H370.86 M370.86,14.16h-180
				c-8.82,0-16,7.18-16,16v18c0,3.31,2.69,6,6,6h200c3.31,0,6-2.69,6-6v-18C386.86,21.34,379.68,14.16,370.86,14.16L370.86,14.16z"
				/>
		</g>
	</g>
	<g>
		<g>
			<path class="st9" d="M270.86,41.16c-3.86,0-7-3.14-7-7s3.14-7,7-7h94c3.86,0,7,3.14,7,7s-3.14,7-7,7H270.86z"/>
		</g>
		<g>
			<g>
				<path class="st1" d="M364.86,30.16c2.21,0,4,1.79,4,4s-1.79,4-4,4h-94c-2.21,0-4-1.79-4-4s1.79-4,4-4H364.86 M364.86,24.16h-94
					c-5.51,0-10,4.49-10,10s4.49,10,10,10h94c5.51,0,10-4.49,10-10S370.37,24.16,364.86,24.16L364.86,24.16z"/>
			</g>
		</g>
	</g>
	<g>
		<g>
			<circle class="st0" cx="196.86" cy="34.16" r="7"/>
		</g>
		<g>
			<g>
				<path class="st1" d="M196.86,30.16c2.21,0,4,1.79,4,4s-1.79,4-4,4s-4-1.79-4-4S194.65,30.16,196.86,30.16 M196.86,24.16
					c-5.51,0-10,4.49-10,10s4.49,10,10,10s10-4.49,10-10S202.37,24.16,196.86,24.16L196.86,24.16z"/>
			</g>
		</g>
	</g>
	<g>
		<g>
			<circle class="st3" cx="220.86" cy="34.16" r="7"/>
		</g>
		<g>
			<g>
				<path class="st1" d="M220.86,30.16c2.21,0,4,1.79,4,4s-1.79,4-4,4s-4-1.79-4-4S218.65,30.16,220.86,30.16 M220.86,24.16
					c-5.51,0-10,4.49-10,10s4.49,10,10,10s10-4.49,10-10S226.37,24.16,220.86,24.16L220.86,24.16z"/>
			</g>
		</g>
	</g>
	<g>
		<g>
			<circle class="st13" cx="244.86" cy="34.16" r="7"/>
		</g>
		<g>
			<g>
				<path class="st1" d="M244.86,30.16c2.21,0,4,1.79,4,4s-1.79,4-4,4s-4-1.79-4-4S242.65,30.16,244.86,30.16 M244.86,24.16
					c-5.51,0-10,4.49-10,10s4.49,10,10,10s10-4.49,10-10S250.37,24.16,244.86,24.16L244.86,24.16z"/>
			</g>
		</g>
	</g>
	<g>
		<rect x="180.86" y="126.16" class="st14" width="200" height="88"/>
	</g>
	<g>
		<rect x="180.86" y="126.16" class="st15" width="200" height="4"/>
	</g>
	<g>
		<path class="st15" d="M359.86,241.16h-88c-1.1,0-2-0.9-2-2v0c0-1.1,0.9-2,2-2h88c1.1,0,2,0.9,2,2v0
			C361.86,240.27,360.96,241.16,359.86,241.16z"/>
	</g>
	<g>
		<path class="st15" d="M345.86,249.16h-74c-1.1,0-2-0.9-2-2v0c0-1.1,0.9-2,2-2h74c1.1,0,2,0.9,2,2v0
			C347.86,248.27,346.96,249.16,345.86,249.16z"/>
	</g>
	<g>
		<path class="st15" d="M321.86,257.16h-50c-1.1,0-2-0.9-2-2v0c0-1.1,0.9-2,2-2h50c1.1,0,2,0.9,2,2v0
			C323.86,256.27,322.96,257.16,321.86,257.16z"/>
	</g>
	<g>
		<circle class="st11" cx="221.86" cy="159.16" r="21"/>
	</g>
	<g>
		<path class="st14" d="M230.86,220.16c-16.57,0-30,13.43-30,30c0,5.88,1.7,11.37,4.63,16h50.74c2.93-4.63,4.63-10.12,4.63-16
			C260.86,233.59,247.43,220.16,230.86,220.16z"/>
	</g>
	<g>
		<circle class="st11" cx="280.86" cy="159.16" r="21"/>
	</g>
	<g>
		<circle class="st11" cx="339.86" cy="159.16" r="21"/>
	</g>
	<g>
		<path class="st15" d="M238.86,190.16h-34c-1.1,0-2-0.9-2-2v0c0-1.1,0.9-2,2-2h34c1.1,0,2,0.9,2,2v0
			C240.86,189.27,239.96,190.16,238.86,190.16z"/>
	</g>
	<g>
		<path class="st15" d="M238.86,198.16h-34c-1.1,0-2-0.9-2-2v0c0-1.1,0.9-2,2-2h34c1.1,0,2,0.9,2,2v0
			C240.86,197.27,239.96,198.16,238.86,198.16z"/>
	</g>
	<g>
		<path class="st15" d="M228.86,206.16h-24c-1.1,0-2-0.9-2-2v0c0-1.1,0.9-2,2-2h24c1.1,0,2,0.9,2,2v0
			C230.86,205.27,229.96,206.16,228.86,206.16z"/>
	</g>
	<g>
		<path class="st15" d="M297.86,190.16h-34c-1.1,0-2-0.9-2-2v0c0-1.1,0.9-2,2-2h34c1.1,0,2,0.9,2,2v0
			C299.86,189.27,298.96,190.16,297.86,190.16z"/>
	</g>
	<g>
		<path class="st15" d="M297.86,198.16h-34c-1.1,0-2-0.9-2-2v0c0-1.1,0.9-2,2-2h34c1.1,0,2,0.9,2,2v0
			C299.86,197.27,298.96,198.16,297.86,198.16z"/>
	</g>
	<g>
		<path class="st15" d="M287.86,206.16h-24c-1.1,0-2-0.9-2-2v0c0-1.1,0.9-2,2-2h24c1.1,0,2,0.9,2,2v0
			C289.86,205.27,288.96,206.16,287.86,206.16z"/>
	</g>
	<g>
		<path class="st15" d="M356.86,190.16h-34c-1.1,0-2-0.9-2-2v0c0-1.1,0.9-2,2-2h34c1.1,0,2,0.9,2,2v0
			C358.86,189.27,357.96,190.16,356.86,190.16z"/>
	</g>
	<g>
		<path class="st15" d="M356.86,198.16h-34c-1.1,0-2-0.9-2-2v0c0-1.1,0.9-2,2-2h34c1.1,0,2,0.9,2,2v0
			C358.86,197.27,357.96,198.16,356.86,198.16z"/>
	</g>
	<g>
		<path class="st15" d="M346.86,206.16h-24c-1.1,0-2-0.9-2-2v0c0-1.1,0.9-2,2-2h24c1.1,0,2,0.9,2,2v0
			C348.86,205.27,347.96,206.16,346.86,206.16z"/>
	</g>
	<g>
		<path class="st1" d="M298.86,93.16L298.86,93.16h-36.01c-2.76,0-5,2.24-5,5c0,12.68,10.32,23,23,23c12.62,0,22.9-10.22,23-22.82
			c0-0.06,0-0.12,0-0.18C303.86,95.4,301.63,93.16,298.86,93.16z"/>
		<g>
			<g>
				<ellipse class="st0" cx="280.86" cy="110.16" rx="13.39" ry="6"/>
			</g>
		</g>
	</g>
	<g>
		<path class="st1" d="M290.88,66.95c3.68-3.2,9.6-3.78,13.59-0.77c1.81,1.35,4.82,4.88,1.93,6.45c-0.74,0.34-1.5,0.14-2.13-0.25
			c-1.05-0.55-1.86-1.12-2.73-1.43c-2.91-1.36-6.23-0.67-9.32-0.51C290.39,70.5,289.5,68.1,290.88,66.95L290.88,66.95z"/>
	</g>
	<g>
		<path class="st1" d="M268.88,70.44c-1.94-0.19-4.24-0.52-6.14-0.2c-2.14,0.25-3.69,1.26-5.66,2.33c-1,0.52-2.23,0.14-2.75-0.86
			c-0.3-0.57-0.3-1.22-0.06-1.77c1.83-4.71,7.87-6.81,12.48-5.23c1.95,0.66,6.22,2.41,4.28,5.04
			C270.48,70.42,269.65,70.49,268.88,70.44L268.88,70.44z"/>
	</g>
	<g>
		<g>
			<path class="st1" d="M272.86,88.66c-1.38,0-2.5-1.12-2.5-2.5c0-2.48-2.02-4.5-4.5-4.5s-4.5,2.02-4.5,4.5c0,1.38-1.12,2.5-2.5,2.5
				s-2.5-1.12-2.5-2.5c0-5.24,4.26-9.5,9.5-9.5s9.5,4.26,9.5,9.5C275.36,87.54,274.24,88.66,272.86,88.66z"/>
		</g>
	</g>
	<g>
		<g>
			<path class="st1" d="M302.86,88.66c-1.38,0-2.5-1.12-2.5-2.5c0-2.48-2.02-4.5-4.5-4.5s-4.5,2.02-4.5,4.5c0,1.38-1.12,2.5-2.5,2.5
				s-2.5-1.12-2.5-2.5c0-5.24,4.26-9.5,9.5-9.5s9.5,4.26,9.5,9.5C305.36,87.54,304.24,88.66,302.86,88.66z"/>
		</g>
	</g>
	<g>
		<g>
			<circle class="st15" cx="243.86" cy="90.66" r="2.5"/>
		</g>
		<g>
			<circle class="st15" cx="249.36" cy="101.66" r="2.5"/>
		</g>
		<g>
			<circle class="st15" cx="238.36" cy="101.66" r="2.5"/>
		</g>
	</g>
	<g>
		<g>
			<circle class="st15" cx="317.86" cy="90.66" r="2.5"/>
		</g>
		<g>
			<circle class="st15" cx="323.36" cy="101.66" r="2.5"/>
		</g>
		<g>
			<circle class="st15" cx="312.36" cy="101.66" r="2.5"/>
		</g>
	</g>
</g>
<g>
	<g>
		<rect class="st16" width="400" height="400"/>
	</g>
</g>
<g>
	<circle class="st2" cx="103.28" cy="104.16" r="3.5"/>
</g>
<g>
	<circle class="st2" cx="28.97" cy="361.93" r="3.5"/>
</g>
<g>
	<circle class="st2" cx="79.28" cy="377.02" r="3.5"/>
</g>
<g>
	<circle class="st2" cx="124.23" cy="63.06" r="3.5"/>
</g>
<g>
	<circle class="st2" cx="347.86" cy="351.93" r="3.5"/>
</g>
<g>
	<circle class="st2" cx="270.86" cy="355.43" r="3.5"/>
</g>
<g>
	<circle class="st2" cx="47.25" cy="88.16" r="4.5"/>
</g>
<g>
	<circle class="st2" cx="308.86" cy="331.02" r="4.5"/>
</g>
<g>
	<circle class="st2" cx="38.28" cy="334.02" r="4.5"/>
</g>
<g>
	<path class="st2" d="M69.18,28.06c0-1.66-1.34-3-3-3s-3,1.34-3,3v6h6V28.06z"/>
	<path class="st2" d="M63.18,46.06c0,1.66,1.34,3,3,3s3-1.34,3-3v-6h-6V46.06z"/>
	<path class="st2" d="M75.18,34.06h-6h-6h-6c-1.66,0-3,1.34-3,3s1.34,3,3,3h6h6h6c1.66,0,3-1.34,3-3S76.84,34.06,75.18,34.06z"/>
</g>
<g>
	<path class="st2" d="M366.06,301.56c-2.98,0-5.4-2.42-5.4-5.4c0-0.99-0.81-1.8-1.8-1.8c-0.99,0-1.8,0.81-1.8,1.8
		c0,2.98-2.42,5.4-5.4,5.4c-0.99,0-1.8,0.81-1.8,1.8s0.81,1.8,1.8,1.8c2.98,0,5.4,2.42,5.4,5.4c0,0.99,0.81,1.8,1.8,1.8
		c0.99,0,1.8-0.81,1.8-1.8c0-2.98,2.42-5.4,5.4-5.4c0.99,0,1.8-0.81,1.8-1.8S367.05,301.56,366.06,301.56z"/>
</g>
</svg>
