<?xml version="1.0" encoding="utf-8"?>
<!-- Generator: Adobe Illustrator 26.0.1, SVG Export Plug-In . SVG Version: 6.00 Build 0)  -->
<svg version="1.1" id="CRO_x5F_Hub-Website_x5F_Personalization"
	 xmlns="http://www.w3.org/2000/svg" xmlns:xlink="http://www.w3.org/1999/xlink" x="0px" y="0px" viewBox="0 0 400 400"
	 style="enable-background:new 0 0 400 400;" xml:space="preserve">
<style type="text/css">
	.st0{fill:none;}
	.st1{fill:#F89D81;}
	.st2{fill:#515979;}
	.st3{clip-path:url(#SVGID_00000089562163894355586440000014090903861003353265_);}
	.st4{fill:#66A7C6;}
	.st5{fill:#7D839B;}
	.st6{fill:#E6C3AF;}
	.st7{fill:#D2A5A0;}
	.st8{fill:#FFFFFF;}
	.st9{fill:#D8EBFB;}
	.st10{clip-path:url(#SVGID_00000145772667264888501250000003459720413989013420_);}
	.st11{fill:#FF987A;}
	.st12{fill:#8988CE;}
	.st13{fill:#FFD4D7;}
	.st14{fill:#FFE8A0;}
	.st15{fill:#FFEAEB;}
	.st16{fill:#7DDF96;}
	.st17{fill:#667683;}
	.st18{fill:#EF7D7D;}
	.st19{fill:#CEEDD9;}
	.st20{fill:#3CB48C;}
	.st21{fill:#FFD886;}
</style>
<g>
	<rect class="st0" width="400" height="400"/>
</g>
<g>
	<g>
		<g>
			<circle class="st1" cx="97.16" cy="126.02" r="70"/>
			<path class="st2" d="M97.16,199.02c-40.25,0-73-32.75-73-73s32.75-73,73-73s73,32.75,73,73S137.41,199.02,97.16,199.02z
				 M97.16,59.02c-36.94,0-67,30.06-67,67s30.06,67,67,67s67-30.06,67-67S134.11,59.02,97.16,59.02z"/>
		</g>
		<g>
			<defs>
				<path id="SVGID_1_" d="M27.16-3.98v130c0,38.66,31.34,70,70,70s70-31.34,70-70v-130H27.16z"/>
			</defs>
			<clipPath id="SVGID_00000051363916921570008230000001632799613409880504_">
				<use xlink:href="#SVGID_1_"  style="overflow:visible;"/>
			</clipPath>
			<g style="clip-path:url(#SVGID_00000051363916921570008230000001632799613409880504_);">
				<g>
					<g>
						<g>
							<path class="st4" d="M14.16,236.02v-34.52c0-19.29,12.99-36.34,31.6-41.46l51.4-14.13l51.4,14.13
								c18.6,5.12,31.6,22.17,31.6,41.46v34.52H14.16z"/>
						</g>
						<g>
							<g>
								<path class="st2" d="M97.16,149.02l50.61,13.92c17.36,4.77,29.39,20.56,29.39,38.57v31.52h-160v-31.52
									c0-18.01,12.03-33.79,29.39-38.57L97.16,149.02 M97.16,142.8l-1.59,0.44l-50.61,13.92c-19.9,5.47-33.8,23.71-33.8,44.35
									v31.52v6h6h160h6v-6v-31.52c0-20.64-13.9-38.88-33.8-44.35l-50.61-13.92L97.16,142.8L97.16,142.8z"/>
							</g>
						</g>
					</g>
					<g>
						<g>
							<circle class="st5" cx="136.16" cy="51.02" r="20"/>
						</g>
						<g>
							<path class="st2" d="M136.16,34.02c9.39,0,17,7.61,17,17s-7.61,17-17,17c-9.39,0-17-7.61-17-17S126.77,34.02,136.16,34.02
								 M136.16,28.02c-12.68,0-23,10.32-23,23s10.32,23,23,23c12.68,0,23-10.32,23-23S148.84,28.02,136.16,28.02L136.16,28.02z"/>
						</g>
					</g>
					<g>
						<g>
							<circle class="st5" cx="58.16" cy="51.02" r="20"/>
						</g>
						<g>
							<path class="st2" d="M58.16,34.02c9.39,0,17,7.61,17,17s-7.61,17-17,17c-9.39,0-17-7.61-17-17S48.77,34.02,58.16,34.02
								 M58.16,28.02c-12.68,0-23,10.32-23,23s10.32,23,23,23s23-10.32,23-23S70.84,28.02,58.16,28.02L58.16,28.02z"/>
						</g>
					</g>
					<g>
						<g>
							<circle class="st5" cx="129.16" cy="109.02" r="20"/>
						</g>
						<g>
							<path class="st2" d="M129.16,92.02c9.39,0,17,7.61,17,17c0,9.39-7.61,17-17,17c-9.39,0-17-7.61-17-17
								C112.16,99.63,119.77,92.02,129.16,92.02 M129.16,86.02c-12.68,0-23,10.32-23,23s10.32,23,23,23s23-10.32,23-23
								S141.84,86.02,129.16,86.02L129.16,86.02z"/>
						</g>
					</g>
					<g>
						<g>
							<circle class="st5" cx="65.16" cy="109.02" r="20"/>
						</g>
						<g>
							<path class="st2" d="M65.16,92.02c9.39,0,17,7.61,17,17c0,9.39-7.61,17-17,17c-9.39,0-17-7.61-17-17
								C48.16,99.63,55.77,92.02,65.16,92.02 M65.16,86.02c-12.68,0-23,10.32-23,23s10.32,23,23,23s23-10.32,23-23
								S77.84,86.02,65.16,86.02L65.16,86.02z"/>
						</g>
					</g>
					<g>
						<g>
							<circle class="st5" cx="138.16" cy="72.02" r="20"/>
						</g>
						<g>
							<path class="st2" d="M138.16,55.02c9.39,0,17,7.61,17,17s-7.61,17-17,17c-9.39,0-17-7.61-17-17S128.77,55.02,138.16,55.02
								 M138.16,49.02c-12.68,0-23,10.32-23,23s10.32,23,23,23c12.68,0,23-10.32,23-23S150.84,49.02,138.16,49.02L138.16,49.02z"/>
						</g>
					</g>
					<g>
						<g>
							<circle class="st5" cx="56.16" cy="72.02" r="20"/>
						</g>
						<g>
							<path class="st2" d="M56.16,55.02c9.39,0,17,7.61,17,17s-7.61,17-17,17c-9.39,0-17-7.61-17-17S46.77,55.02,56.16,55.02
								 M56.16,49.02c-12.68,0-23,10.32-23,23s10.32,23,23,23s23-10.32,23-23S68.84,49.02,56.16,49.02L56.16,49.02z"/>
						</g>
					</g>
					<g>
						<g>
							<path class="st6" d="M97.16,176.02c-9.93,0-18-8.08-18-18v-35c0-1.66,1.34-3,3-3h30c1.66,0,3,1.34,3,3v35
								C115.16,167.95,107.09,176.02,97.16,176.02z"/>
						</g>
						<g>
							<g>
								<path class="st2" d="M112.16,123.02v35c0,8.28-6.72,15-15,15h0c-8.28,0-15-6.72-15-15v-35H112.16 M112.16,117.02h-30
									c-3.31,0-6,2.69-6,6v35c0,11.58,9.42,21,21,21c11.58,0,21-9.42,21-21v-35C118.16,119.71,115.48,117.02,112.16,117.02
									L112.16,117.02z"/>
							</g>
						</g>
					</g>
					<g>
						<path class="st7" d="M82.16,129.02v25.16c4.65,1.83,9.7,2.84,15,2.84h0c5.3,0,10.35-1.02,15-2.84v-25.16H82.16z"/>
					</g>
					<g>
						<path class="st2" d="M95.16,153.52c-1.38,0-2.5-1.12-2.5-2.5s1.12-2.5,2.5-2.5c1.93,0,3.5-1.57,3.5-3.5s-1.57-3.5-3.5-3.5
							c-1.38,0-2.5-1.12-2.5-2.5s1.12-2.5,2.5-2.5c4.69,0,8.5,3.81,8.5,8.5S99.85,153.52,95.16,153.52z"/>
					</g>
					<g>
						<g>
							<path class="st6" d="M141.16,106.02c-1.66,0-3-1.34-3-3l0-22c0-0.8,0.32-1.56,0.88-2.12c0.56-0.56,1.33-0.88,2.12-0.88
								c7.17,0,13,5.83,13,13v2C154.16,100.19,148.33,106.02,141.16,106.02z"/>
						</g>
						<g>
							<g>
								<path class="st2" d="M141.16,81.02c5.52,0,10,4.48,10,10v2c0,5.52-4.48,10-10,10V81.02 M141.16,75.02c-3.31,0-6,2.69-6,6v22
									c0,3.31,2.69,6,6,6c8.82,0,16-7.18,16-16v-2C157.16,82.2,149.98,75.02,141.16,75.02L141.16,75.02z"/>
							</g>
						</g>
					</g>
					<g>
						<g>
							<path class="st7" d="M53.16,106.02c-7.17,0-13-5.83-13-13v-2c0-7.17,5.83-13,13-13c1.66,0,3,1.34,3,3v22
								C56.16,104.68,54.82,106.02,53.16,106.02z"/>
						</g>
						<g>
							<g>
								<path class="st2" d="M53.16,81.02v22c-5.52,0-10-4.48-10-10v-2C43.16,85.5,47.64,81.02,53.16,81.02 M53.16,75.02
									c-8.82,0-16,7.18-16,16v2c0,8.82,7.18,16,16,16c3.31,0,6-2.69,6-6v-22C59.16,77.71,56.48,75.02,53.16,75.02L53.16,75.02z"/>
							</g>
						</g>
					</g>
					<g>
						<g>
							<path class="st6" d="M97.16,142.02c-24.26,0-44-19.74-44-44v-30c0-24.26,19.74-44,44-44s44,19.74,44,44v30
								C141.16,122.28,121.42,142.02,97.16,142.02z"/>
						</g>
						<g>
							<path class="st2" d="M97.16,27.02c22.64,0,41,18.36,41,41v30c0,22.64-18.36,41-41,41h0c-22.64,0-41-18.36-41-41v-30
								C56.16,45.38,74.52,27.02,97.16,27.02L97.16,27.02 M97.16,21.02c-25.92,0-47,21.08-47,47v30c0,25.92,21.08,47,47,47
								c25.92,0,47-21.08,47-47v-30C144.16,42.11,123.08,21.02,97.16,21.02L97.16,21.02z"/>
						</g>
					</g>
					<g>
						<path class="st7" d="M64.16,98.02v-30c0-21.29,16.23-38.79,37-40.8c-1.32-0.13-2.65-0.2-4-0.2c-22.64,0-41,18.36-41,41v30
							c0,22.64,18.36,41,41,41c1.35,0,2.68-0.07,4-0.2C80.4,136.81,64.16,119.32,64.16,98.02z"/>
					</g>
					<g>
						<path class="st7" d="M105.16,90.02c0,4.42-3.58,8-8,8h0c-4.42,0-8-3.58-8-8L105.16,90.02z"/>
					</g>
					<g>
						<path class="st2" d="M97.16,100.52c-5.79,0-10.5-4.71-10.5-10.5v-13c0-1.38,1.12-2.5,2.5-2.5s2.5,1.12,2.5,2.5v13
							c0,3.03,2.47,5.5,5.5,5.5s5.5-2.47,5.5-5.5v-13c0-1.38,1.12-2.5,2.5-2.5s2.5,1.12,2.5,2.5v13
							C107.66,95.81,102.95,100.52,97.16,100.52z"/>
					</g>
					<g>
						<g>
							<path class="st5" d="M70.16,52.02c-10.48,0-19-8.52-19-19c0-10.48,8.52-19,19-19c10.48,0,19,8.52,19,19
								C89.16,43.5,80.64,52.02,70.16,52.02z"/>
						</g>
						<g>
							<path class="st2" d="M70.16,17.02c8.84,0,16,7.16,16,16c0,8.84-7.16,16-16,16c-8.84,0-16-7.16-16-16
								C54.16,24.19,61.33,17.02,70.16,17.02 M70.16,11.02c-12.13,0-22,9.87-22,22s9.87,22,22,22s22-9.87,22-22
								S82.29,11.02,70.16,11.02L70.16,11.02z"/>
						</g>
					</g>
					<g>
						<g>
							<path class="st5" d="M124.16,52.02c-10.48,0-19-8.52-19-19c0-10.48,8.52-19,19-19c10.48,0,19,8.52,19,19
								C143.16,43.5,134.64,52.02,124.16,52.02z"/>
						</g>
						<g>
							<path class="st2" d="M124.16,17.02c8.84,0,16,7.16,16,16c0,8.84-7.16,16-16,16c-8.84,0-16-7.16-16-16
								C108.16,24.19,115.33,17.02,124.16,17.02 M124.16,11.02c-12.13,0-22,9.87-22,22s9.87,22,22,22s22-9.87,22-22
								S136.29,11.02,124.16,11.02L124.16,11.02z"/>
						</g>
					</g>
					<g>
						<g>
							<path class="st5" d="M97.16,47.02c-11.03,0-20-8.97-20-20s8.97-20,20-20s20,8.97,20,20S108.19,47.02,97.16,47.02z"/>
						</g>
						<g>
							<path class="st2" d="M97.16,10.02c9.39,0,17,7.61,17,17s-7.61,17-17,17c-9.39,0-17-7.61-17-17S87.77,10.02,97.16,10.02
								 M97.16,4.02c-12.68,0-23,10.32-23,23s10.32,23,23,23s23-10.32,23-23S109.84,4.02,97.16,4.02L97.16,4.02z"/>
						</g>
					</g>
					<g>
						<path class="st2" d="M95.16,37.52c-1.38,0-2.5-1.12-2.5-2.5s1.12-2.5,2.5-2.5c4.14,0,7.5-3.36,7.5-7.5
							c0-1.38,1.12-2.5,2.5-2.5s2.5,1.12,2.5,2.5C107.66,31.92,102.05,37.52,95.16,37.52z"/>
					</g>
					<g>
						<g>
							<circle class="st2" cx="117.16" cy="80.02" r="6"/>
						</g>
						<g>
							<circle class="st8" cx="119.16" cy="80.02" r="1.5"/>
						</g>
						<g>
							<path class="st2" d="M121.16,89.02c-0.35,0-0.71-0.09-1.03-0.29c-1.58-0.95-4.35-0.95-5.93,0c-0.94,0.57-2.17,0.27-2.75-0.68
								c-0.57-0.95-0.27-2.17,0.68-2.75c2.82-1.7,7.24-1.7,10.07,0c0.95,0.57,1.25,1.8,0.68,2.75
								C122.5,88.68,121.84,89.02,121.16,89.02z"/>
						</g>
					</g>
					<g>
						<g>
							<circle class="st2" cx="77.16" cy="80.02" r="6"/>
						</g>
						<g>
							<path class="st2" d="M81.16,89.02c-0.35,0-0.71-0.09-1.03-0.29c-1.58-0.95-4.35-0.95-5.93,0c-0.94,0.57-2.17,0.27-2.75-0.68
								c-0.57-0.95-0.27-2.17,0.68-2.75c2.82-1.7,7.24-1.7,10.07,0c0.95,0.57,1.25,1.8,0.68,2.75
								C82.5,88.68,81.84,89.02,81.16,89.02z"/>
						</g>
						<g>
							<circle class="st8" cx="79.16" cy="80.02" r="1.5"/>
						</g>
					</g>
					<g>
						<path class="st2" d="M97.49,111.03c-4.88,0-9.88-1.06-14.21-3.18c-0.99-0.49-1.4-1.68-0.92-2.68c0.49-0.99,1.68-1.4,2.68-0.92
							c7.48,3.67,17.64,3.68,24.14,0.02c0.96-0.54,2.18-0.2,2.72,0.76c0.54,0.96,0.2,2.18-0.76,2.72
							C107.27,109.94,102.44,111.03,97.49,111.03z"/>
					</g>
					<g>
						<path class="st2" d="M110.81,65.8c3.65-3.59,9.86-4.33,14.11-1.29c2.26,1.52,5.25,5.55,1.87,7.31
							c-1.81,0.8-3.81-1.11-5.31-1.51c-2.93-1.34-6.33-0.84-9.48-1.08C110.35,69.1,109.61,66.9,110.81,65.8L110.81,65.8z"/>
					</g>
					<g>
						<path class="st2" d="M81.61,69.31c-2.94,0-6.06-0.19-8.76,1c-0.94,0.31-2.12,1.05-3.29,1.51c-1.29,0.56-2.79-0.03-3.35-1.33
							c-0.29-0.67-0.27-1.4,0-2.02c1.25-3.2,4.76-5.57,8.21-5.8c2.6-0.24,5.01,0.34,7.17,1.61c1.46,0.84,3.62,2.57,1.97,4.36
							C83.04,69.19,82.28,69.25,81.61,69.31L81.61,69.31z"/>
					</g>
					<g>
						<g>
							<path class="st2" d="M92.97,113.62c2.76,0.55,5.62,0.57,8.37,0c1.33-0.31,2.21,1.46,1.18,2.33c-0.8,0.78-1.8,1.42-2.84,1.7
								c-2.46,0.7-5.29,0.44-7.32-1.22c0,0-0.54-0.47-0.54-0.47C90.76,115.08,91.65,113.32,92.97,113.62L92.97,113.62z"/>
						</g>
					</g>
				</g>
			</g>
		</g>
		<g>
			<path class="st2" d="M97.16,199.02c-40.25,0-73-32.75-73-73h6c0,36.94,30.06,67,67,67s67-30.06,67-67h6
				C170.16,166.27,137.41,199.02,97.16,199.02z"/>
		</g>
	</g>
</g>
<g>
	<g>
		<g>
			<circle class="st9" cx="80.67" cy="321.02" r="70"/>
			<path class="st2" d="M80.67,394.02c-40.25,0-73-32.75-73-73s32.75-73,73-73s73,32.75,73,73S120.93,394.02,80.67,394.02z
				 M80.67,254.02c-36.94,0-67,30.06-67,67s30.06,67,67,67s67-30.06,67-67S117.62,254.02,80.67,254.02z"/>
		</g>
		<g>
			<defs>
				<path id="SVGID_00000156574219661271663210000014493049403548435594_" d="M10.67,191.02v130c0,38.66,31.34,70,70,70
					s70-31.34,70-70v-130H10.67z"/>
			</defs>
			<clipPath id="SVGID_00000108273034268440987130000004145337066934025895_">
				<use xlink:href="#SVGID_00000156574219661271663210000014493049403548435594_"  style="overflow:visible;"/>
			</clipPath>
			<g style="clip-path:url(#SVGID_00000108273034268440987130000004145337066934025895_);">
				<g>
					<g>
						<path class="st11" d="M30.67,379.02c-0.55,0-1.1-0.15-1.58-0.45c-0.88-0.55-1.42-1.51-1.42-2.55v-112c0-29.22,23.78-53,53-53
							s53,23.78,53,53v62c0,1.14-0.64,2.17-1.66,2.68l-100,50C31.59,378.92,31.13,379.02,30.67,379.02z"/>
					</g>
					<g>
						<path class="st2" d="M80.67,214.02c27.61,0,50,22.39,50,50v62l-100,50v-112C30.67,236.41,53.06,214.02,80.67,214.02
							L80.67,214.02 M80.67,208.02c-30.88,0-56,25.12-56,56v112c0,2.08,1.08,4.01,2.85,5.1c0.96,0.6,2.06,0.9,3.15,0.9
							c0.92,0,1.84-0.21,2.68-0.63l100-50c2.03-1.02,3.32-3.09,3.32-5.37v-62C136.67,233.14,111.55,208.02,80.67,208.02
							L80.67,208.02z"/>
					</g>
				</g>
				<g>
					<path class="st2" d="M51.67,354.52c-1.38,0-2.5-1.12-2.5-2.5v-46c0-1.38,1.12-2.5,2.5-2.5s2.5,1.12,2.5,2.5v46
						C54.17,353.4,53.05,354.52,51.67,354.52z"/>
				</g>
				<g>
					<path class="st2" d="M39.67,354.52c-1.38,0-2.5-1.12-2.5-2.5v-46c0-1.38,1.12-2.5,2.5-2.5s2.5,1.12,2.5,2.5v46
						C42.17,353.4,41.05,354.52,39.67,354.52z"/>
				</g>
				<g>
					<g>
						<path class="st12" d="M7.67,431.02v-35.64c0-18.88,12.1-35.36,30.11-41.02l42.89-13.48l42.89,13.48
							c18.01,5.66,30.11,22.15,30.11,41.02v35.64H7.67z"/>
					</g>
					<g>
						<g>
							<path class="st2" d="M80.67,344.02l41.99,13.2c16.67,5.24,28.01,20.69,28.01,38.16v32.64h-140v-32.64
								c0-17.47,11.34-32.92,28.01-38.16L80.67,344.02 M80.67,337.73l-1.8,0.57l-41.99,13.2c-19.26,6.05-32.21,23.69-32.21,43.88
								v32.64v6h6h140h6v-6v-32.64c0-20.19-12.94-37.83-32.21-43.88l-41.99-13.2L80.67,337.73L80.67,337.73z"/>
						</g>
					</g>
				</g>
				<g>
					<g>
						<path class="st13" d="M40.67,296.82c-6.07,0-11-4.93-11-11v-1.6c0-6.07,4.93-11,11-11c1.66,0,3,1.34,3,3v17.6
							C43.67,295.48,42.33,296.82,40.67,296.82z"/>
					</g>
					<g>
						<g>
							<path class="st2" d="M40.67,276.22v17.6c-4.42,0-8-3.58-8-8v-1.6C32.67,279.8,36.26,276.22,40.67,276.22 M40.67,270.22
								c-7.72,0-14,6.28-14,14v1.6c0,7.72,6.28,14,14,14c3.31,0,6-2.69,6-6v-17.6C46.67,272.91,43.99,270.22,40.67,270.22
								L40.67,270.22z"/>
						</g>
					</g>
				</g>
				<g>
					<g>
						<circle class="st14" cx="37.67" cy="300.02" r="6"/>
					</g>
					<g>
						<path class="st2" d="M37.67,297.02c1.66,0,3,1.34,3,3c0,1.66-1.34,3-3,3s-3-1.34-3-3C34.67,298.37,36.02,297.02,37.67,297.02
							 M37.67,291.02c-4.96,0-9,4.04-9,9s4.04,9,9,9s9-4.04,9-9S42.64,291.02,37.67,291.02L37.67,291.02z"/>
					</g>
				</g>
				<g>
					<g>
						<path class="st15" d="M80.67,384.02c-0.82,0-1.61-0.34-2.18-0.94c-1.41-1.49-13.82-14.85-13.82-24.06v-45c0-1.66,1.34-3,3-3
							h26c1.66,0,3,1.34,3,3v45c0,9.21-12.41,22.57-13.82,24.06C82.28,383.68,81.5,384.02,80.67,384.02z"/>
					</g>
					<g>
						<g>
							<path class="st2" d="M93.67,314.02v45c0,8.28-13,22-13,22s-13-13.72-13-22v-45H93.67 M93.67,308.02h-26c-3.31,0-6,2.69-6,6
								v45c0,4.8,2.5,10.57,7.65,17.64c3.44,4.72,6.85,8.34,7,8.49c1.13,1.2,2.71,1.87,4.35,1.87s3.22-0.68,4.35-1.87
								c0.14-0.15,3.56-3.77,7-8.49c5.15-7.07,7.65-12.84,7.65-17.64v-45C99.67,310.71,96.99,308.02,93.67,308.02L93.67,308.02z"/>
						</g>
					</g>
				</g>
				<g>
					<path class="st13" d="M67.67,318.02v29.93c4.09,1.33,8.46,2.07,13,2.07s8.91-0.73,13-2.07v-29.93H67.67z"/>
				</g>
				<g>
					<g>
						<path class="st11" d="M100.67,372.4c-1.66,0-3-1.34-3-3v-84.38c0-1.66,1.34-3,3-3h30c1.66,0,3,1.34,3,3v54.38
							C133.67,357.59,118.87,372.4,100.67,372.4z"/>
					</g>
					<g>
						<path class="st2" d="M130.67,285.02v54.38c0,16.57-13.43,30-30,30v-84.38H130.67 M130.67,279.02h-30c-3.31,0-6,2.69-6,6v84.38
							c0,3.31,2.69,6,6,6c19.85,0,36-16.15,36-36v-54.38C136.67,281.71,133.99,279.02,130.67,279.02L130.67,279.02z"/>
					</g>
				</g>
				<g>
					<path class="st2" d="M109.67,361.52c-1.38,0-2.5-1.12-2.5-2.5v-46c0-1.38,1.12-2.5,2.5-2.5s2.5,1.12,2.5,2.5v46
						C112.17,360.4,111.05,361.52,109.67,361.52z"/>
				</g>
				<g>
					<path class="st2" d="M120.67,350.52c-1.38,0-2.5-1.12-2.5-2.5v-46c0-1.38,1.12-2.5,2.5-2.5s2.5,1.12,2.5,2.5v46
						C123.17,349.4,122.05,350.52,120.67,350.52z"/>
				</g>
				<g>
					<g>
						<path class="st15" d="M120.67,296.82c-1.66,0-3-1.34-3-3v-17.6c0-1.66,1.34-3,3-3c6.07,0,11,4.93,11,11v1.6
							C131.67,291.89,126.74,296.82,120.67,296.82z"/>
					</g>
					<g>
						<g>
							<path class="st2" d="M120.67,276.22c4.42,0,8,3.58,8,8v1.6c0,4.42-3.58,8-8,8V276.22 M120.67,270.22c-3.31,0-6,2.69-6,6v17.6
								c0,3.31,2.69,6,6,6c7.72,0,14-6.28,14-14v-1.6C134.67,276.5,128.39,270.22,120.67,270.22L120.67,270.22z"/>
						</g>
					</g>
				</g>
				<g>
					<g>
						<circle class="st14" cx="123.67" cy="300.02" r="6"/>
					</g>
					<g>
						<path class="st2" d="M123.67,297.02c1.66,0,3,1.34,3,3c0,1.66-1.34,3-3,3s-3-1.34-3-3
							C120.67,298.37,122.02,297.02,123.67,297.02 M123.67,291.02c-4.96,0-9,4.04-9,9s4.04,9,9,9s9-4.04,9-9
							S128.64,291.02,123.67,291.02L123.67,291.02z"/>
					</g>
				</g>
				<g>
					<g>
						<path class="st15" d="M80.67,331.02c-21.5,0-39-17.5-39-39v-28c0-21.5,17.5-39,39-39s39,17.5,39,39v28
							C119.67,313.53,102.18,331.02,80.67,331.02z"/>
					</g>
					<g>
						<g>
							<path class="st2" d="M80.67,228.02c19.88,0,36,16.12,36,36v28c0,19.88-16.12,36-36,36h0c-19.88,0-36-16.12-36-36v-28
								C44.67,244.14,60.79,228.02,80.67,228.02L80.67,228.02 M80.67,222.02c-23.16,0-42,18.84-42,42v28c0,23.16,18.84,42,42,42
								c23.16,0,42-18.84,42-42v-28C122.67,240.86,103.83,222.02,80.67,222.02L80.67,222.02z"/>
						</g>
					</g>
				</g>
				<g>
					<path class="st13" d="M52.67,292.02v-28c0-18.53,14-33.78,32-35.77c-1.31-0.15-2.65-0.23-4-0.23h0c-19.88,0-36,16.12-36,36v28
						c0,19.88,16.12,36,36,36h0c1.35,0,2.69-0.08,4-0.23C66.67,325.81,52.67,310.55,52.67,292.02z"/>
				</g>
				<g>
					<path class="st13" d="M87.67,285.02c0,3.87-3.13,7-7,7h0c-3.87,0-7-3.13-7-7H87.67z"/>
				</g>
				<g>
					<path class="st2" d="M81.01,305.03c-4.88,0-9.88-1.06-14.21-3.18c-0.99-0.49-1.4-1.68-0.92-2.68c0.49-0.99,1.68-1.4,2.68-0.92
						c7.48,3.67,17.64,3.68,24.14,0.02c0.96-0.54,2.18-0.2,2.72,0.76c0.54,0.96,0.2,2.18-0.76,2.72
						C90.78,303.94,85.96,305.03,81.01,305.03z"/>
				</g>
				<g>
					<g>
						<path class="st2" d="M76.89,307.8c2.47,0.57,5.1,0.59,7.57,0c1.27-0.35,2.15,1.33,1.18,2.18c-0.77,0.76-1.77,1.54-2.78,1.78
							c-2.16,0.62-4.6,0.39-6.39-1.11c0,0-0.74-0.66-0.74-0.66C74.73,309.13,75.64,307.46,76.89,307.8L76.89,307.8z"/>
					</g>
				</g>
				<g>
					<path class="st11" d="M33.46,258.41c13.19,0,35.22-25.39,35.22-25.39s21.46,31,61,31l-4-18.89l-9.2-11.88l-15.12-10.73
						l-21.23-4.64l-21.5,4.93l-14.59,10.41l-7.84,10.68L33.46,258.41z"/>
				</g>
				<g>
					<path class="st2" d="M127.67,267.02c-33.32,0-52.75-20.8-59.18-29.09c-2.14,2.5-5.48,6.21-9.41,9.96
						c-9.41,8.97-17.36,13.52-23.63,13.52c-1.66,0-3-1.34-3-3s1.34-3,3-3c4.53,0,11.44-4.2,19.44-11.82
						c6.44-6.13,11.38-12.37,11.43-12.43c0.6-0.77,1.54-1.19,2.52-1.14c0.97,0.05,1.86,0.57,2.38,1.4
						c0.18,0.29,19.13,29.59,56.46,29.59c1.66,0,3,1.34,3,3S129.33,267.02,127.67,267.02z"/>
				</g>
				<g>
					<path class="st2" d="M118.67,255.5c-0.23,0-0.46-0.03-0.7-0.1c-26.57-7.7-40.71-26.09-41.3-26.87c-0.83-1.1-0.61-2.67,0.49-3.5
						c1.1-0.83,2.67-0.62,3.5,0.49c0.13,0.18,13.79,17.86,38.7,25.08c1.33,0.38,2.09,1.77,1.71,3.1
						C120.76,254.78,119.76,255.5,118.67,255.5z"/>
				</g>
				<g>
					<path class="st2" d="M80.67,294.52c-5.24,0-9.5-4.26-9.5-9.5v-11c0-1.38,1.12-2.5,2.5-2.5s2.5,1.12,2.5,2.5v11
						c0,2.48,2.02,4.5,4.5,4.5s4.5-2.02,4.5-4.5v-11c0-1.38,1.12-2.5,2.5-2.5s2.5,1.12,2.5,2.5v11
						C90.17,290.26,85.91,294.52,80.67,294.52z"/>
				</g>
				<g>
					<g>
						<circle class="st2" cx="99.67" cy="275.02" r="6"/>
					</g>
					<g>
						<circle class="st8" cx="101.67" cy="275.02" r="1.5"/>
					</g>
					<g>
						<path class="st2" d="M103.67,284.02c-0.35,0-0.71-0.09-1.03-0.29c-1.58-0.95-4.35-0.95-5.93,0c-0.95,0.57-2.18,0.27-2.75-0.68
							c-0.57-0.95-0.27-2.17,0.68-2.75c2.82-1.71,7.24-1.71,10.07,0c0.95,0.57,1.25,1.8,0.68,2.75
							C105.01,283.68,104.35,284.02,103.67,284.02z"/>
					</g>
				</g>
				<g>
					<g>
						<circle class="st2" cx="61.67" cy="275.02" r="6"/>
					</g>
					<g>
						<path class="st2" d="M65.67,284.02c-0.35,0-0.71-0.09-1.03-0.29c-1.58-0.95-4.35-0.95-5.93,0c-0.95,0.57-2.18,0.27-2.75-0.68
							c-0.57-0.95-0.27-2.17,0.68-2.75c2.82-1.71,7.24-1.71,10.07,0c0.95,0.57,1.25,1.8,0.68,2.75
							C67.01,283.68,66.35,284.02,65.67,284.02z"/>
					</g>
					<g>
						<circle class="st8" cx="63.67" cy="275.02" r="1.5"/>
					</g>
				</g>
				<g>
					<path class="st2" d="M93.8,263.67c4.22-4.89,13.85-3.9,15.66,2.73c0.16,0.57-0.16,1.16-0.73,1.33
						c-0.29,0.09-0.58,0.03-0.84-0.09c-3.26-1.49-5.9-2.32-9.45-2.25c-1.19-0.02-2.54,0.06-3.88,0.03
						C93.69,265.45,93.2,264.3,93.8,263.67L93.8,263.67z"/>
				</g>
				<g>
					<path class="st2" d="M66.6,265.43c-4.84-0.2-8.73-0.03-13.14,2.21c-0.58,0.29-1.31,0.07-1.54-0.56
						c-0.02-3.42,3.92-6.14,7.13-6.43c3.19-0.34,6.32,0.65,8.51,3.02C68.21,264.41,67.55,265.56,66.6,265.43L66.6,265.43z"/>
				</g>
			</g>
		</g>
		<g>
			<path class="st2" d="M80.67,394.02c-40.25,0-73-32.75-73-73h6c0,36.94,30.06,67,67,67s67-30.06,67-67h6
				C153.67,361.27,120.93,394.02,80.67,394.02z"/>
		</g>
	</g>
</g>
<g>
	<g>
		<g>
			<path class="st8" d="M199.14,323.72c-7.17,0-13-5.83-13-13v-226c0-7.17,5.83-13,13-13h180c7.17,0,13,5.83,13,13v226
				c0,7.17-5.83,13-13,13H199.14z"/>
		</g>
		<g>
			<path class="st2" d="M379.14,74.72c5.52,0,10,4.48,10,10v226c0,5.52-4.48,10-10,10h-180c-5.52,0-10-4.48-10-10v-226
				c0-5.52,4.48-10,10-10H379.14 M379.14,68.72h-180c-8.82,0-16,7.18-16,16v226c0,8.82,7.18,16,16,16h180c8.82,0,16-7.18,16-16v-226
				C395.14,75.9,387.96,68.72,379.14,68.72L379.14,68.72z"/>
		</g>
	</g>
	<g>
		<path class="st16" d="M379.14,320.72h-180c-5.52,0-10-4.48-10-10v-54h200v54C389.14,316.24,384.66,320.72,379.14,320.72z"/>
	</g>
	<g>
		<rect x="189.14" y="108.72" class="st16" width="200" height="76"/>
	</g>
	<g>
		<g>
			<path class="st17" d="M189.14,105.72c-1.66,0-3-1.34-3-3v-18c0-7.17,5.83-13,13-13h180c7.17,0,13,5.83,13,13v18
				c0,1.66-1.34,3-3,3H189.14z"/>
		</g>
		<g>
			<path class="st2" d="M379.14,74.72c5.52,0,10,4.48,10,10v18h-200v-18c0-5.52,4.48-10,10-10H379.14 M379.14,68.72h-180
				c-8.82,0-16,7.18-16,16v18c0,3.31,2.69,6,6,6h200c3.31,0,6-2.69,6-6v-18C395.14,75.9,387.96,68.72,379.14,68.72L379.14,68.72z"/>
		</g>
	</g>
	<g>
		<g>
			<path class="st8" d="M279.14,95.72c-3.86,0-7-3.14-7-7c0-3.86,3.14-7,7-7h94c3.86,0,7,3.14,7,7c0,3.86-3.14,7-7,7H279.14z"/>
		</g>
		<g>
			<g>
				<path class="st2" d="M373.14,84.72c2.21,0,4,1.79,4,4v0c0,2.21-1.79,4-4,4l-94,0c-2.21,0-4-1.79-4-4v0c0-2.21,1.79-4,4-4H373.14
					 M373.14,78.72h-94c-5.51,0-10,4.49-10,10s4.49,10,10,10l94,0c5.51,0,10-4.49,10-10C383.14,83.21,378.65,78.72,373.14,78.72
					L373.14,78.72z"/>
			</g>
		</g>
	</g>
	<g>
		<g>
			<circle class="st18" cx="205.14" cy="88.72" r="7"/>
		</g>
		<g>
			<g>
				<path class="st2" d="M205.14,84.72c2.21,0,4,1.79,4,4c0,2.21-1.79,4-4,4s-4-1.79-4-4C201.14,86.51,202.93,84.72,205.14,84.72
					 M205.14,78.72c-5.51,0-10,4.49-10,10s4.49,10,10,10s10-4.49,10-10S210.65,78.72,205.14,78.72L205.14,78.72z"/>
			</g>
		</g>
	</g>
	<g>
		<g>
			<circle class="st14" cx="229.14" cy="88.72" r="7"/>
		</g>
		<g>
			<g>
				<path class="st2" d="M229.14,84.72c2.21,0,4,1.79,4,4c0,2.21-1.79,4-4,4s-4-1.79-4-4C225.14,86.51,226.93,84.72,229.14,84.72
					 M229.14,78.72c-5.51,0-10,4.49-10,10s4.49,10,10,10s10-4.49,10-10S234.65,78.72,229.14,78.72L229.14,78.72z"/>
			</g>
		</g>
	</g>
	<g>
		<g>
			<circle class="st16" cx="253.14" cy="88.72" r="7"/>
		</g>
		<g>
			<g>
				<path class="st2" d="M253.14,84.72c2.21,0,4,1.79,4,4c0,2.21-1.79,4-4,4s-4-1.79-4-4C249.14,86.51,250.93,84.72,253.14,84.72
					 M253.14,78.72c-5.51,0-10,4.49-10,10s4.49,10,10,10s10-4.49,10-10S258.65,78.72,253.14,78.72L253.14,78.72z"/>
			</g>
		</g>
	</g>
	<g>
		<rect x="189.14" y="183.72" class="st19" width="200" height="74"/>
	</g>
	<g>
		<g>
			<path class="st8" d="M208.14,242.72h42c2.21,0,4-1.79,4-4v-36c0-2.21-1.79-4-4-4h-42c-2.21,0-4,1.79-4,4v36
				C204.14,240.93,205.93,242.72,208.14,242.72z"/>
		</g>
		<g>
			<circle class="st19" cx="216.14" cy="210.72" r="6"/>
		</g>
		<g>
			<path class="st16" d="M246.14,224.72h-34c-1.1,0-2-0.9-2-2v0c0-1.1,0.9-2,2-2h34c1.1,0,2,0.9,2,2v0
				C248.14,223.82,247.24,224.72,246.14,224.72z"/>
		</g>
		<g>
			<path class="st16" d="M232.14,232.72h-20c-1.1,0-2-0.9-2-2v0c0-1.1,0.9-2,2-2h20c1.1,0,2,0.9,2,2v0
				C234.14,231.82,233.24,232.72,232.14,232.72z"/>
		</g>
	</g>
	<g>
		<g>
			<path class="st8" d="M328.14,242.72h42c2.21,0,4-1.79,4-4v-36c0-2.21-1.79-4-4-4h-42c-2.21,0-4,1.79-4,4v36
				C324.14,240.93,325.93,242.72,328.14,242.72z"/>
		</g>
		<g>
			<circle class="st19" cx="336.14" cy="210.72" r="6"/>
		</g>
		<g>
			<path class="st16" d="M366.14,224.72h-34c-1.1,0-2-0.9-2-2v0c0-1.1,0.9-2,2-2h34c1.1,0,2,0.9,2,2v0
				C368.14,223.82,367.24,224.72,366.14,224.72z"/>
		</g>
		<g>
			<path class="st16" d="M344.14,232.72h-12c-1.1,0-2-0.9-2-2v0c0-1.1,0.9-2,2-2h12c1.1,0,2,0.9,2,2v0
				C346.14,231.82,345.24,232.72,344.14,232.72z"/>
		</g>
	</g>
	<g>
		<g>
			<path class="st8" d="M268.14,242.72h42c2.21,0,4-1.79,4-4v-36c0-2.21-1.79-4-4-4h-42c-2.21,0-4,1.79-4,4v36
				C264.14,240.93,265.93,242.72,268.14,242.72z"/>
		</g>
		<g>
			<circle class="st19" cx="276.14" cy="210.72" r="6"/>
		</g>
		<g>
			<path class="st16" d="M306.14,224.72h-34c-1.1,0-2-0.9-2-2v0c0-1.1,0.9-2,2-2h34c1.1,0,2,0.9,2,2v0
				C308.14,223.82,307.24,224.72,306.14,224.72z"/>
		</g>
		<g>
			<path class="st16" d="M298.14,232.72h-26c-1.1,0-2-0.9-2-2v0c0-1.1,0.9-2,2-2h26c1.1,0,2,0.9,2,2v0
				C300.14,231.82,299.24,232.72,298.14,232.72z"/>
		</g>
	</g>
	<g>
		<circle class="st19" cx="229.14" cy="290.72" r="24"/>
	</g>
	<g>
		<circle class="st19" cx="289.14" cy="290.72" r="24"/>
	</g>
	<g>
		<circle class="st19" cx="349.14" cy="290.72" r="24"/>
	</g>
	<g>
		<g>
			<circle class="st2" cx="306.14" cy="133.72" r="8"/>
		</g>
		<g>
			<circle class="st8" cx="308.14" cy="133.72" r="2"/>
		</g>
	</g>
	<g>
		<g>
			<circle class="st2" cx="272.14" cy="133.72" r="8"/>
		</g>
		<g>
			<circle class="st8" cx="274.14" cy="133.72" r="2"/>
		</g>
	</g>
	<g>
		<path class="st2" d="M276.64,144.72c-0.32,0-0.64-0.08-0.94-0.24c-1.89-1.02-5.21-1.02-7.11,0c-0.98,0.52-2.19,0.15-2.71-0.82
			c-0.52-0.97-0.16-2.19,0.82-2.71c3.05-1.64,7.84-1.64,10.89,0c0.97,0.52,1.34,1.73,0.82,2.71
			C278.04,144.34,277.35,144.72,276.64,144.72z"/>
	</g>
	<g>
		<path class="st2" d="M310.64,144.72c-0.32,0-0.64-0.08-0.94-0.24c-1.89-1.02-5.21-1.02-7.11,0c-0.98,0.52-2.19,0.15-2.71-0.82
			c-0.52-0.97-0.16-2.19,0.82-2.71c3.05-1.64,7.84-1.64,10.89,0c0.97,0.52,1.34,1.73,0.82,2.71
			C312.04,144.34,311.35,144.72,310.64,144.72z"/>
	</g>
	<g>
		<path class="st2" d="M299.17,118.67c3.68-3.18,9.58-3.76,13.56-0.78c1.82,1.34,4.84,4.86,1.96,6.44
			c-0.74,0.34-1.49,0.14-2.13-0.24c-1.05-0.54-1.86-1.11-2.74-1.41c-2.91-1.34-6.23-0.66-9.33-0.51
			C298.66,122.22,297.78,119.81,299.17,118.67L299.17,118.67z"/>
	</g>
	<g>
		<path class="st2" d="M277.16,122c-1.94-0.19-4.24-0.52-6.14-0.2c-2.14,0.25-3.69,1.26-5.66,2.33c-1,0.52-2.23,0.14-2.75-0.86
			c-0.3-0.57-0.3-1.22-0.06-1.77c1.83-4.71,7.87-6.81,12.48-5.23c1.95,0.66,6.22,2.41,4.28,5.04
			C278.76,121.98,277.93,122.05,277.16,122L277.16,122z"/>
	</g>
	<g>
		<path class="st2" d="M289.55,156.75c-6.02,0-12.19-1.77-17.52-5.31c-0.92-0.61-1.17-1.85-0.56-2.77c0.61-0.92,1.85-1.17,2.77-0.56
			c9.2,6.1,21.68,6.11,29.68,0.02c0.88-0.67,2.13-0.5,2.8,0.38c0.67,0.88,0.5,2.13-0.38,2.8
			C301.59,154.94,295.65,156.75,289.55,156.75z"/>
	</g>
	<g>
		<path class="st2" d="M284.96,160.26c2.7,0.79,5.66,0.86,8.34,0c1.29-0.47,2.34,1.21,1.39,2.17c0,0-0.72,0.76-0.72,0.76
			c-2.84,2.68-7.68,2.05-10.33-0.58C282.52,161.65,283.59,159.79,284.96,160.26L284.96,160.26z"/>
	</g>
	<g>
		<g>
			<circle class="st20" cx="254.14" cy="145.22" r="2.5"/>
		</g>
		<g>
			<circle class="st20" cx="259.64" cy="156.22" r="2.5"/>
		</g>
		<g>
			<circle class="st20" cx="248.64" cy="156.22" r="2.5"/>
		</g>
	</g>
	<g>
		<g>
			<circle class="st20" cx="324.14" cy="145.22" r="2.5"/>
		</g>
		<g>
			<circle class="st20" cx="329.64" cy="156.22" r="2.5"/>
		</g>
		<g>
			<circle class="st20" cx="318.64" cy="156.22" r="2.5"/>
		</g>
	</g>
</g>
<g>
	<circle class="st21" cx="284.64" cy="342.77" r="3.5"/>
</g>
<g>
	<circle class="st21" cx="189.14" cy="30.7" r="3.5"/>
</g>
<g>
	<circle class="st21" cx="318.64" cy="356.02" r="3.5"/>
</g>
<g>
	<circle class="st21" cx="233.14" cy="40.42" r="3.5"/>
</g>
<g>
	<circle class="st21" cx="270.14" cy="379.24" r="3.5"/>
</g>
<g>
	<path class="st21" d="M362.34,368.44c-2.98,0-5.4-2.42-5.4-5.4c0-0.99-0.81-1.8-1.8-1.8c-0.99,0-1.8,0.81-1.8,1.8
		c0,2.98-2.42,5.4-5.4,5.4c-0.99,0-1.8,0.81-1.8,1.8c0,0.99,0.81,1.8,1.8,1.8c2.98,0,5.4,2.42,5.4,5.4c0,0.99,0.81,1.8,1.8,1.8
		c0.99,0,1.8-0.81,1.8-1.8c0-2.98,2.42-5.4,5.4-5.4c0.99,0,1.8-0.81,1.8-1.8C364.14,369.25,363.33,368.44,362.34,368.44z"/>
</g>
<g>
	<circle class="st21" cx="222.14" cy="356.02" r="4.5"/>
</g>
<g>
	<circle class="st21" cx="276.64" cy="20.2" r="4.5"/>
</g>
</svg>
