<?xml version="1.0" encoding="utf-8"?>
<!-- Generator: Adobe Illustrator 26.0.2, SVG Export Plug-In . SVG Version: 6.00 Build 0)  -->
<svg version="1.1" id="sem-agency-illustration-01" xmlns="http://www.w3.org/2000/svg" xmlns:xlink="http://www.w3.org/1999/xlink"
	 x="0px" y="0px" viewBox="0 0 400 400" style="enable-background:new 0 0 400 400;" xml:space="preserve">
<style type="text/css">
	.st0{fill:none;}
	.st1{fill:#FFD886;}
	.st2{fill:#515979;}
	.st3{fill:#FBB040;}
	.st4{fill:#9E8271;}
	.st5{fill:#FFE8B6;}
	.st6{fill:#EF7D7D;}
	.st7{fill:#FFFFFF;}
	.st8{fill:#FFC369;}
</style>
<g>
	<rect class="st0" width="400" height="400"/>
	<g>
		<g>
			<g>
				<path class="st1" d="M120,180c-16.91,0-30.67-13.76-30.67-30.67v-38.67c0-2.21,1.79-4,4-4h40c2.21,0,4,1.79,4,4v8
					c0,2.21-1.79,4-4,4h-28V148c0,8.82,7.18,16,16,16h12c2.21,0,4,1.79,4,4v8c0,2.21-1.79,4-4,4H120z"/>
			</g>
			<g>
				<path class="st2" d="M133.33,110.67v8h-32V148c0,11.05,8.95,20,20,20h12v8H120c-14.73,0-26.67-11.94-26.67-26.67v-38.67H133.33
					 M133.33,102.67h-40c-4.42,0-8,3.58-8,8v38.67c0,19.12,15.55,34.67,34.67,34.67h13.33c4.42,0,8-3.58,8-8v-8c0-4.42-3.58-8-8-8
					h-12c-6.62,0-12-5.38-12-12v-21.33h24c4.42,0,8-3.58,8-8v-8C141.33,106.25,137.75,102.67,133.33,102.67L133.33,102.67z"/>
			</g>
		</g>
		<g>
			<g>
				<rect x="117.33" y="110.67" class="st3" width="16" height="8"/>
			</g>
			<g>
				<path class="st3" d="M133.33,168h-12c-0.43,0-0.85-0.04-1.28-0.06c0.76,2.76,1.68,5.45,2.74,8.06h10.53V168z"/>
			</g>
		</g>
		<g>
			<g>
				<path class="st1" d="M266.67,180c-2.21,0-4-1.79-4-4v-8c0-2.21,1.79-4,4-4h12c8.82,0,16-7.18,16-16v-25.33h-28
					c-2.21,0-4-1.79-4-4v-8c0-2.21,1.79-4,4-4h40c2.21,0,4,1.79,4,4v38.67c0,16.91-13.76,30.67-30.67,30.67H266.67z"/>
			</g>
			<g>
				<path class="st2" d="M306.67,110.67v38.67c0,14.73-11.94,26.67-26.67,26.67h-13.33v-8h12c11.05,0,20-8.95,20-20v-29.33h-32v-8
					H306.67 M306.67,102.67h-40c-4.42,0-8,3.58-8,8v8c0,4.42,3.58,8,8,8h24V148c0,6.62-5.38,12-12,12h-12c-4.42,0-8,3.58-8,8v8
					c0,4.42,3.58,8,8,8H280c19.12,0,34.67-15.55,34.67-34.67v-38.67C314.67,106.25,311.08,102.67,306.67,102.67L306.67,102.67z"/>
			</g>
		</g>
		<g>
			<g>
				<rect x="266.67" y="110.67" class="st3" width="16" height="8"/>
			</g>
			<g>
				<path class="st3" d="M266.67,168h12c0.43,0,0.85-0.04,1.28-0.06c-0.76,2.76-1.68,5.45-2.74,8.06h-10.53V168z"/>
			</g>
		</g>
		<g>
			<g>
				<path class="st1" d="M192,264c-2.21,0-4-1.79-4-4v-37.33c0-2.21,1.79-4,4-4h16c2.21,0,4,1.79,4,4V260c0,2.21-1.79,4-4,4H192z"/>
			</g>
			<g>
				<g>
					<path class="st2" d="M208,222.67V260h-16v-37.33H208 M208,214.67h-16c-4.42,0-8,3.58-8,8V260c0,4.42,3.58,8,8,8h16
						c4.42,0,8-3.58,8-8v-37.33C216,218.25,212.42,214.67,208,214.67L208,214.67z"/>
				</g>
			</g>
		</g>
		<g>
			<rect x="192" y="214.67" class="st3" width="16" height="21.33"/>
		</g>
		<g>
			<g>
				<path class="st4" d="M150.67,322.67c-2.21,0-4-1.79-4-4v-56c0-2.21,1.79-4,4-4h98.67c2.21,0,4,1.79,4,4v56c0,2.21-1.79,4-4,4
					H150.67z"/>
			</g>
			<g>
				<g>
					<path class="st2" d="M249.33,262.67v56h-98.67v-56H249.33 M249.33,254.67h-98.67c-4.42,0-8,3.58-8,8v56c0,4.42,3.58,8,8,8
						h98.67c4.42,0,8-3.58,8-8v-56C257.33,258.25,253.75,254.67,249.33,254.67L249.33,254.67z"/>
				</g>
			</g>
		</g>
		<g>
			<g>
				<path class="st1" d="M164,308c-1.47,0-2.67-1.19-2.67-2.67V276c0-1.47,1.19-2.67,2.67-2.67h72c1.47,0,2.67,1.19,2.67,2.67v29.33
					c0,1.47-1.19,2.67-2.67,2.67H164z"/>
			</g>
			<g>
				<g>
					<path class="st2" d="M236,276v29.33h-72V276H236 M236,270.67h-72c-2.95,0-5.33,2.39-5.33,5.33v29.33
						c0,2.95,2.39,5.33,5.33,5.33h72c2.95,0,5.33-2.39,5.33-5.33V276C241.33,273.05,238.95,270.67,236,270.67L236,270.67z"/>
				</g>
			</g>
		</g>
		<g>
			<g>
				<path class="st1" d="M200,218.67c-38.97,0-70.67-31.7-70.67-70.67V81.33c0-2.21,1.79-4,4-4h133.33c2.21,0,4,1.79,4,4V148
					C270.67,186.97,238.97,218.67,200,218.67z"/>
			</g>
			<g>
				<path class="st2" d="M266.67,81.33V148c0,36.82-29.85,66.67-66.67,66.67h0c-36.82,0-66.67-29.85-66.67-66.67V81.33H266.67
					 M266.67,73.33H133.33c-4.42,0-8,3.58-8,8V148c0,41.17,33.5,74.67,74.67,74.67c41.17,0,74.67-33.5,74.67-74.67V81.33
					C274.67,76.92,271.08,73.33,266.67,73.33L266.67,73.33z"/>
			</g>
		</g>
		<g>
			<g>
				<path class="st2" d="M182.81,285.91l-3,9.71h-2.04l-1.83-6.02c-0.04-0.09-0.07-0.2-0.1-0.31s-0.06-0.23-0.09-0.36
					c-0.03,0.12-0.06,0.24-0.09,0.36s-0.06,0.22-0.1,0.31l-1.85,6.02h-2.04l-3-9.71h1.89c0.2,0,0.36,0.04,0.49,0.13
					c0.13,0.09,0.22,0.21,0.26,0.35l1.33,5.07c0.04,0.16,0.08,0.34,0.12,0.52c0.04,0.19,0.08,0.39,0.12,0.59
					c0.08-0.42,0.18-0.79,0.29-1.11l1.57-5.07c0.04-0.12,0.12-0.24,0.26-0.34c0.13-0.1,0.29-0.15,0.48-0.15h0.67
					c0.2,0,0.35,0.04,0.47,0.14c0.12,0.09,0.21,0.21,0.27,0.35l1.56,5.07c0.11,0.31,0.21,0.67,0.29,1.06
					c0.04-0.2,0.07-0.39,0.11-0.56c0.04-0.17,0.08-0.34,0.12-0.5l1.33-5.07c0.04-0.13,0.12-0.24,0.25-0.34
					c0.13-0.1,0.29-0.15,0.48-0.15H182.81z"/>
			</g>
			<g>
				<path class="st2" d="M186.05,295.62h-2.27v-9.71h2.27V295.62z"/>
			</g>
			<g>
				<path class="st2" d="M196.41,285.91v9.71h-1.17c-0.17,0-0.32-0.03-0.44-0.08c-0.12-0.06-0.23-0.15-0.35-0.29l-4.58-5.79
					c0.02,0.17,0.03,0.34,0.04,0.5c0.01,0.16,0.01,0.32,0.01,0.46v5.21h-1.99v-9.71h1.19c0.1,0,0.18,0,0.25,0.01
					c0.07,0.01,0.13,0.03,0.18,0.05c0.05,0.02,0.1,0.06,0.15,0.1c0.05,0.04,0.1,0.1,0.17,0.18l4.62,5.83
					c-0.02-0.19-0.04-0.37-0.05-0.54c-0.01-0.17-0.01-0.34-0.01-0.5v-5.14H196.41z"/>
			</g>
			<g>
				<path class="st2" d="M208.11,288.53l-0.16,0.84c-0.04,0.21-0.13,0.36-0.26,0.46c-0.14,0.1-0.35,0.14-0.64,0.14h-0.42l-0.27,1.57
					h0.72c0.21,0,0.36,0.06,0.45,0.18c0.09,0.12,0.11,0.33,0.06,0.62l-0.11,0.64h-1.32l-0.47,2.63h-0.96
					c-0.09,0-0.18-0.02-0.26-0.07c-0.08-0.04-0.15-0.1-0.21-0.18c-0.05-0.08-0.09-0.16-0.12-0.26c-0.02-0.1-0.02-0.2,0-0.31
					l0.32-1.81h-1.1l-0.33,1.91c-0.02,0.13-0.06,0.24-0.12,0.33s-0.13,0.17-0.21,0.22c-0.08,0.06-0.17,0.1-0.27,0.13
					c-0.1,0.03-0.2,0.04-0.31,0.04h-0.92l0.47-2.63h-0.59c-0.21,0-0.36-0.06-0.45-0.18c-0.09-0.12-0.11-0.33-0.06-0.62l0.11-0.64
					h1.19l0.27-1.57h-1.33l0.16-0.84c0.04-0.2,0.13-0.35,0.26-0.45c0.14-0.1,0.35-0.15,0.64-0.15h0.45l0.35-1.95
					c0.04-0.21,0.14-0.37,0.3-0.49c0.16-0.12,0.35-0.18,0.56-0.18h0.95l-0.47,2.62h1.11l0.47-2.62h0.92c0.11,0,0.2,0.02,0.29,0.05
					c0.09,0.04,0.16,0.08,0.22,0.14c0.06,0.06,0.1,0.13,0.13,0.21c0.03,0.08,0.03,0.17,0.01,0.27l-0.35,1.94H208.11z M204.93,289.97
					h-1.11l-0.27,1.57h1.11L204.93,289.97z"/>
			</g>
			<g>
				<path class="st2" d="M214.67,293.76c0.22,0,0.4,0.06,0.53,0.18c0.13,0.12,0.19,0.28,0.19,0.48v1.2h-6.83v-0.67
					c0-0.13,0.03-0.27,0.08-0.41c0.05-0.15,0.15-0.28,0.28-0.4l2.8-2.82c0.24-0.24,0.45-0.47,0.63-0.69
					c0.18-0.22,0.32-0.43,0.44-0.64c0.12-0.21,0.2-0.42,0.26-0.63c0.06-0.21,0.09-0.43,0.09-0.67c0-0.39-0.09-0.68-0.28-0.89
					c-0.18-0.21-0.47-0.31-0.84-0.31c-0.31,0-0.57,0.08-0.78,0.24s-0.36,0.36-0.44,0.6c-0.09,0.24-0.22,0.41-0.37,0.49
					s-0.37,0.1-0.65,0.05l-1.09-0.19c0.07-0.48,0.21-0.91,0.41-1.27c0.2-0.36,0.45-0.66,0.75-0.9c0.3-0.24,0.64-0.42,1.03-0.54
					c0.39-0.12,0.8-0.18,1.25-0.18c0.48,0,0.91,0.07,1.3,0.21c0.39,0.14,0.71,0.33,0.98,0.58c0.27,0.25,0.48,0.55,0.62,0.89
					c0.14,0.35,0.22,0.72,0.22,1.14c0,0.35-0.05,0.68-0.15,0.99c-0.1,0.3-0.24,0.59-0.41,0.86c-0.17,0.27-0.38,0.54-0.6,0.79
					c-0.23,0.26-0.47,0.51-0.73,0.78l-1.9,1.95c0.24-0.08,0.49-0.13,0.73-0.17c0.24-0.04,0.46-0.06,0.67-0.06H214.67z"/>
			</g>
			<g>
				<path class="st2" d="M223.25,285.91v0.87c0,0.26-0.03,0.46-0.09,0.62c-0.06,0.16-0.11,0.29-0.17,0.4l-3.37,7.15
					c-0.09,0.18-0.23,0.35-0.4,0.48c-0.17,0.13-0.4,0.2-0.68,0.2h-1.51l3.47-6.95c0.1-0.19,0.21-0.36,0.31-0.51
					c0.1-0.15,0.22-0.3,0.35-0.44h-4.27c-0.06,0-0.12-0.01-0.18-0.04c-0.06-0.02-0.1-0.06-0.15-0.1c-0.04-0.04-0.08-0.09-0.1-0.15
					c-0.03-0.05-0.04-0.11-0.04-0.17v-1.36H223.25z"/>
			</g>
			<g>
				<path class="st2" d="M227.15,289.64c0.31-0.12,0.66-0.17,1.04-0.17c0.35,0,0.7,0.06,1.04,0.17s0.65,0.29,0.92,0.53
					c0.27,0.24,0.49,0.54,0.66,0.91c0.17,0.37,0.25,0.8,0.25,1.3c0,0.45-0.08,0.88-0.25,1.29c-0.17,0.41-0.41,0.76-0.72,1.07
					c-0.31,0.3-0.68,0.55-1.12,0.72c-0.43,0.18-0.92,0.27-1.45,0.27c-0.54,0-1.03-0.09-1.46-0.26c-0.43-0.17-0.8-0.41-1.1-0.72
					c-0.3-0.31-0.53-0.67-0.69-1.1c-0.16-0.43-0.24-0.89-0.24-1.41c0-0.96,0.37-1.93,1.11-2.91l2.19-2.95
					c0.1-0.13,0.25-0.24,0.44-0.33c0.19-0.09,0.41-0.14,0.66-0.14h1.84l-2.88,3.44L227.15,289.64z M227.48,294.1
					c0.21,0,0.41-0.04,0.6-0.12c0.18-0.08,0.34-0.19,0.48-0.33c0.13-0.14,0.24-0.3,0.32-0.49c0.08-0.19,0.12-0.39,0.12-0.62
					c0-0.25-0.04-0.47-0.11-0.67c-0.07-0.2-0.18-0.36-0.31-0.49s-0.29-0.24-0.48-0.31c-0.19-0.07-0.4-0.11-0.63-0.11
					c-0.21,0-0.4,0.04-0.57,0.11c-0.17,0.07-0.32,0.18-0.45,0.32s-0.23,0.3-0.3,0.49s-0.11,0.41-0.11,0.65s0.03,0.46,0.09,0.65
					c0.06,0.19,0.15,0.36,0.27,0.49c0.12,0.14,0.27,0.24,0.45,0.32C227.02,294.06,227.23,294.1,227.48,294.1z"/>
			</g>
		</g>
		<g>
			<path class="st3" d="M200,208c-36.82,0-66.67-29.85-66.67-66.67V148c0,36.82,29.85,66.67,66.67,66.67s66.67-29.85,66.67-66.67
				v-6.67C266.67,178.15,236.82,208,200,208z"/>
		</g>
		<g>
			<rect x="133.33" y="81.33" class="st5" width="133.33" height="5.33"/>
		</g>
		<g>
			<g>
				<g>
					<g>
						<path class="st2" d="M200,180.91c-15.07,0-27.33-12.26-27.33-27.33c0-1.84,1.49-3.33,3.33-3.33h48c1.84,0,3.33,1.49,3.33,3.33
							C227.33,168.65,215.07,180.91,200,180.91z"/>
					</g>
					<g>
						<path class="st2" d="M224,153.58L224,153.58 M224,153.58c0,13.25-10.75,24-24,24s-24-10.75-24-24H224 M224.01,146.91
							L224.01,146.91H176c-3.68,0-6.67,2.98-6.67,6.67c0,16.91,13.76,30.67,30.67,30.67c16.83,0,30.54-13.63,30.67-30.43
							c0-0.08,0-0.16,0-0.24C230.67,149.9,227.69,146.91,224.01,146.91L224.01,146.91z M224,160.25L224,160.25L224,160.25
							L224,160.25z"/>
					</g>
				</g>
				<g>
					<g>
						<ellipse class="st6" cx="200" cy="169.58" rx="17.85" ry="8"/>
					</g>
				</g>
			</g>
			<g>
				<g>
					<g>
						<path class="st2" d="M226,142.51c-0.43,0-0.86-0.1-1.26-0.32c-2.53-1.35-6.95-1.35-9.48,0c-1.3,0.7-2.91,0.21-3.61-1.09
							c-0.7-1.3-0.21-2.91,1.09-3.61c4.07-2.18,10.45-2.18,14.52,0c1.3,0.7,1.79,2.31,1.09,3.61
							C227.87,142,226.95,142.51,226,142.51z"/>
					</g>
					<g>
						<g>
							<circle class="st2" cx="220" cy="129.51" r="9.33"/>
						</g>
						<g>
							<circle class="st7" cx="222.33" cy="129.51" r="2.33"/>
						</g>
					</g>
					<g>
						<path class="st2" d="M213.37,106.82c4.32-3.87,11.33-4.55,16.1-1.04c2.42,1.7,5.8,6.15,2.09,8.08
							c-0.93,0.42-1.87,0.16-2.71-0.26c-2.22-1.03-3.73-1.78-6-2.08c-2.12-0.35-4.75-0.05-6.94-0.01c0,0-1.04-0.1-1.04-0.1
							C212.63,111.27,211.67,108.24,213.37,106.82L213.37,106.82z"/>
					</g>
					<g>
						<path class="st2" d="M186,142.51c-0.43,0-0.86-0.1-1.26-0.32c-2.52-1.35-6.95-1.35-9.48,0c-1.3,0.7-2.91,0.21-3.61-1.09
							c-0.7-1.3-0.21-2.91,1.09-3.61c4.07-2.18,10.45-2.18,14.52,0c1.3,0.7,1.79,2.31,1.09,3.61
							C187.87,142,186.95,142.51,186,142.51z"/>
					</g>
					<g>
						<g>
							<circle class="st2" cx="180" cy="129.51" r="9.33"/>
						</g>
						<g>
							<circle class="st7" cx="182.33" cy="129.51" r="2.33"/>
						</g>
					</g>
					<g>
						<path class="st2" d="M184.1,111.51c-2.19-0.04-4.82-0.34-6.94,0.01c-2.28,0.29-3.78,1.05-6,2.08c-1.5,0.87-3.47,0.49-4.17-1.2
							c-0.3-0.7-0.27-1.46,0-2.12c0.71-1.71,1.88-3.35,3.56-4.51c3.95-2.95,9.64-2.9,13.8-0.59c1.93,0.99,4.44,3.04,2.51,5.35
							C186.17,111.38,185.06,111.44,184.1,111.51L184.1,111.51z"/>
					</g>
				</g>
			</g>
		</g>
		<g>
			<g>
				<g>
					<circle class="st8" cx="242.67" cy="154.67" r="2.67"/>
				</g>
			</g>
			<g>
				<g>
					<circle class="st8" cx="253.33" cy="154.67" r="2.67"/>
				</g>
			</g>
			<g>
				<g>
					<circle class="st8" cx="248" cy="144" r="2.67"/>
				</g>
			</g>
		</g>
		<g>
			<g>
				<g>
					<circle class="st8" cx="146.67" cy="154.67" r="2.67"/>
				</g>
			</g>
			<g>
				<g>
					<circle class="st8" cx="157.33" cy="154.67" r="2.67"/>
				</g>
			</g>
			<g>
				<g>
					<circle class="st8" cx="152" cy="144" r="2.67"/>
				</g>
			</g>
		</g>
	</g>
	<g>
		<g>
			<path class="st1" d="M215.87,47.2c-3.53,0-6.4-2.87-6.4-6.4c0-1.18-0.96-2.13-2.13-2.13c-1.18,0-2.13,0.96-2.13,2.13
				c0,3.53-2.87,6.4-6.4,6.4c-1.18,0-2.13,0.96-2.13,2.13c0,1.18,0.96,2.13,2.13,2.13c3.53,0,6.4,2.87,6.4,6.4
				c0,1.18,0.96,2.13,2.13,2.13c1.18,0,2.13-0.96,2.13-2.13c0-3.53,2.87-6.4,6.4-6.4c1.18,0,2.13-0.96,2.13-2.13
				C218,48.16,217.04,47.2,215.87,47.2z"/>
		</g>
		<g>
			<path class="st1" d="M359.6,166.93c-3.97,0-7.2-3.23-7.2-7.2c0-1.33-1.07-2.4-2.4-2.4c-1.33,0-2.4,1.07-2.4,2.4
				c0,3.97-3.23,7.2-7.2,7.2c-1.33,0-2.4,1.07-2.4,2.4s1.07,2.4,2.4,2.4c3.97,0,7.2,3.23,7.2,7.2c0,1.33,1.07,2.4,2.4,2.4
				c1.33,0,2.4-1.07,2.4-2.4c0-3.97,3.23-7.2,7.2-7.2c1.33,0,2.4-1.07,2.4-2.4S360.93,166.93,359.6,166.93z"/>
		</g>
		<g>
			<path class="st1" d="M115.6,341.6c-3.97,0-7.2-3.23-7.2-7.2c0-1.33-1.07-2.4-2.4-2.4c-1.33,0-2.4,1.07-2.4,2.4
				c0,3.97-3.23,7.2-7.2,7.2c-1.33,0-2.4,1.07-2.4,2.4s1.07,2.4,2.4,2.4c3.97,0,7.2,3.23,7.2,7.2c0,1.33,1.07,2.4,2.4,2.4
				c1.33,0,2.4-1.07,2.4-2.4c0-3.97,3.23-7.2,7.2-7.2c1.33,0,2.4-1.07,2.4-2.4S116.93,341.6,115.6,341.6z"/>
		</g>
		<g>
			<circle class="st1" cx="62" cy="204" r="4"/>
		</g>
		<g>
			<circle class="st1" cx="305.33" cy="319.33" r="3.33"/>
		</g>
		<g>
			<circle class="st1" cx="362.67" cy="260.67" r="3.33"/>
		</g>
		<g>
			<circle class="st1" cx="122.67" cy="247.33" r="3.33"/>
		</g>
		<g>
			<circle class="st1" cx="48" cy="282" r="6"/>
		</g>
		<g>
			<circle class="st1" cx="95.33" cy="82.67" r="5.33"/>
		</g>
		<g>
			<circle class="st1" cx="42.67" cy="136.67" r="3.33"/>
		</g>
		<g>
			<circle class="st1" cx="298" cy="238.67" r="4"/>
		</g>
		<path class="st1" d="M320.67,68h-9.33v-9.33c0-2.21-1.79-4-4-4c-2.21,0-4,1.79-4,4V68H294c-2.21,0-4,1.79-4,4s1.79,4,4,4h9.33
			v9.33c0,2.21,1.79,4,4,4c2.21,0,4-1.79,4-4V76h9.33c2.21,0,4-1.79,4-4S322.88,68,320.67,68z"/>
	</g>
</g>
</svg>
