<?xml version="1.0" encoding="utf-8"?>
<!-- Generator: Adobe Illustrator 25.4.1, SVG Export Plug-In . SVG Version: 6.00 Build 0)  -->
<svg version="1.1" id="hero-image-desktop" xmlns="http://www.w3.org/2000/svg" xmlns:xlink="http://www.w3.org/1999/xlink" x="0px"
	 y="0px" viewBox="0 0 1440 400" style="enable-background:new 0 0 1440 400;" xml:space="preserve">
<style type="text/css">
	.st0{fill:#515979;}
	.st1{fill:none;}
	.st2{fill:#FFD886;}
	.st3{fill:#7DDF96;}
	.st4{fill:#00C853;}
	.st5{fill:#FFFFFF;}
	.st6{fill:#EF7D7D;}
	.st7{fill:#D8EBFB;}
	.st8{fill:#ACC9DB;}
	.st9{fill:#FFEBEB;}
	.st10{fill:#F89D81;}
	.st11{fill:#515A78;}
	.st12{fill:#3CB48C;}
	.st13{fill:#B29D90;}
	.st14{fill:#9E8271;}
	.st15{fill:#E5E5E5;}
	.st16{fill:#B1B1B1;}
	.st17{fill:#FAFAFA;}
	.st18{fill:#CCCCCC;}
	.st19{fill:#FABBA7;}
	.st20{fill:#FDE1D9;}
</style>
<g>
	<path class="st0" d="M645.57,141.5h-5c-0.83,0-1.5-0.67-1.5-1.5s0.67-1.5,1.5-1.5h5c0.83,0,1.5,0.67,1.5,1.5
		S646.4,141.5,645.57,141.5z M631.57,141.5h-5c-0.83,0-1.5-0.67-1.5-1.5s0.67-1.5,1.5-1.5h5c0.83,0,1.5,0.67,1.5,1.5
		S632.4,141.5,631.57,141.5z M617.57,141.5h-5c-0.83,0-1.5-0.67-1.5-1.5s0.67-1.5,1.5-1.5h5c0.83,0,1.5,0.67,1.5,1.5
		S618.4,141.5,617.57,141.5z M603.57,141.5h-5c-0.83,0-1.5-0.67-1.5-1.5s0.67-1.5,1.5-1.5h5c0.83,0,1.5,0.67,1.5,1.5
		S604.4,141.5,603.57,141.5z M590.54,138.16c-0.41,0-0.82-0.17-1.12-0.5c-1.28-1.44-2.19-3.18-2.62-5.05
		c-0.19-0.81,0.32-1.61,1.12-1.8c0.8-0.19,1.61,0.32,1.8,1.12c0.32,1.38,0.99,2.67,1.94,3.73c0.55,0.62,0.5,1.57-0.12,2.12
		C591.25,138.03,590.89,138.16,590.54,138.16z M588,124.79c-0.83,0-1.5-0.67-1.5-1.5v-5c0-0.83,0.67-1.5,1.5-1.5s1.5,0.67,1.5,1.5v5
		C589.5,124.11,588.83,124.79,588,124.79z M588,110.79c-0.83,0-1.5-0.67-1.5-1.5v-5c0-0.83,0.67-1.5,1.5-1.5s1.5,0.67,1.5,1.5v5
		C589.5,110.11,588.83,110.79,588,110.79z M588,96.79c-0.83,0-1.5-0.67-1.5-1.5v-5c0-0.83,0.67-1.5,1.5-1.5s1.5,0.67,1.5,1.5v5
		C589.5,96.11,588.83,96.79,588,96.79z M588,82.79c-0.83,0-1.5-0.67-1.5-1.5v-5c0-0.83,0.67-1.5,1.5-1.5s1.5,0.67,1.5,1.5v5
		C589.5,82.11,588.83,82.79,588,82.79z M587.97,68.79c-0.78,0-1.44-0.6-1.49-1.39c-0.1-1.42-0.56-2.79-1.33-3.99
		c-0.45-0.7-0.25-1.62,0.45-2.07c0.7-0.45,1.63-0.25,2.07,0.45c1.04,1.62,1.66,3.48,1.8,5.4c0.06,0.83-0.56,1.54-1.39,1.6
		C588.04,68.79,588.01,68.79,587.97,68.79z M579,59.55c-0.05,0-0.1,0-0.15-0.01c-0.28-0.03-0.56-0.04-0.85-0.04h-4
		c-0.83,0-1.5-0.67-1.5-1.5s0.67-1.5,1.5-1.5h4c0.39,0,0.77,0.02,1.14,0.06c0.82,0.08,1.43,0.82,1.35,1.64
		C580.41,58.97,579.76,59.55,579,59.55z M565,59.5h-5c-0.83,0-1.5-0.67-1.5-1.5s0.67-1.5,1.5-1.5h5c0.83,0,1.5,0.67,1.5,1.5
		S565.83,59.5,565,59.5z M551,59.5h-5c-0.83,0-1.5-0.67-1.5-1.5s0.67-1.5,1.5-1.5h5c0.83,0,1.5,0.67,1.5,1.5S551.83,59.5,551,59.5z"
		/>
	<path class="st0" d="M975,285.5c-0.83,0-1.5-0.67-1.5-1.5v-5c0-0.83,0.67-1.5,1.5-1.5s1.5,0.67,1.5,1.5v5
		C976.5,284.83,975.83,285.5,975,285.5z M975,271.5c-0.83,0-1.5-0.67-1.5-1.5v-5c0-0.83,0.67-1.5,1.5-1.5s1.5,0.67,1.5,1.5v5
		C976.5,270.83,975.83,271.5,975,271.5z M975,257.5c-0.83,0-1.5-0.67-1.5-1.5v-5c0-0.83,0.67-1.5,1.5-1.5s1.5,0.67,1.5,1.5v5
		C976.5,256.83,975.83,257.5,975,257.5z M975,243.5c-0.83,0-1.5-0.67-1.5-1.5v-5c0-0.83,0.67-1.5,1.5-1.5s1.5,0.67,1.5,1.5v5
		C976.5,242.83,975.83,243.5,975,243.5z M978.78,230.67c-0.44,0-0.88-0.19-1.17-0.57c-0.52-0.65-0.41-1.59,0.24-2.11
		c1.51-1.2,3.3-2,5.19-2.33c0.81-0.13,1.59,0.41,1.73,1.22s-0.41,1.59-1.22,1.73c-1.39,0.24-2.72,0.83-3.83,1.72
		C979.44,230.56,979.11,230.67,978.78,230.67z M1011.29,228.5h-5c-0.83,0-1.5-0.67-1.5-1.5s0.67-1.5,1.5-1.5h5
		c0.83,0,1.5,0.67,1.5,1.5S1012.11,228.5,1011.29,228.5z M997.29,228.5h-5c-0.83,0-1.5-0.67-1.5-1.5s0.67-1.5,1.5-1.5h5
		c0.83,0,1.5,0.67,1.5,1.5S998.11,228.5,997.29,228.5z M1020.29,228.5c-0.81,0-1.48-0.64-1.5-1.46c-0.02-0.83,0.63-1.52,1.46-1.54
		c1.42-0.04,2.82-0.44,4.04-1.15c0.71-0.42,1.63-0.18,2.05,0.54c0.42,0.71,0.18,1.63-0.54,2.05c-1.66,0.97-3.55,1.51-5.47,1.56
		C1020.31,228.5,1020.3,228.5,1020.29,228.5z M1029.9,219.92c-0.07,0-0.14,0-0.21-0.01c-0.82-0.12-1.39-0.88-1.27-1.7
		c0.06-0.4,0.09-0.8,0.09-1.21v-3.57c0-0.83,0.67-1.5,1.5-1.5s1.5,0.67,1.5,1.5V217c0,0.55-0.04,1.1-0.12,1.63
		C1031.28,219.38,1030.64,219.92,1029.9,219.92z M1030,205.93c-0.83,0-1.5-0.67-1.5-1.5v-5c0-0.83,0.67-1.5,1.5-1.5
		s1.5,0.67,1.5,1.5v5C1031.5,205.26,1030.83,205.93,1030,205.93z M1030,191.93c-0.83,0-1.5-0.67-1.5-1.5v-5c0-0.83,0.67-1.5,1.5-1.5
		s1.5,0.67,1.5,1.5v5C1031.5,191.26,1030.83,191.93,1030,191.93z M1030,177.93c-0.83,0-1.5-0.67-1.5-1.5v-5c0-0.83,0.67-1.5,1.5-1.5
		s1.5,0.67,1.5,1.5v5C1031.5,177.26,1030.83,177.93,1030,177.93z M1030,163.93c-0.83,0-1.5-0.67-1.5-1.5v-5c0-0.83,0.67-1.5,1.5-1.5
		s1.5,0.67,1.5,1.5v5C1031.5,163.26,1030.83,163.93,1030,163.93z"/>
	<path class="st0" d="M321,170.5h-1.57c-0.83,0-1.5-0.67-1.5-1.5s0.67-1.5,1.5-1.5H321c0.98,0,1.94-0.17,2.86-0.49
		c0.78-0.28,1.64,0.13,1.92,0.91c0.28,0.78-0.13,1.64-0.91,1.92C323.62,170.27,322.33,170.5,321,170.5z M310.43,170.5h-5
		c-0.83,0-1.5-0.67-1.5-1.5s0.67-1.5,1.5-1.5h5c0.83,0,1.5,0.67,1.5,1.5S311.26,170.5,310.43,170.5z M296.43,170.5h-5
		c-0.83,0-1.5-0.67-1.5-1.5s0.67-1.5,1.5-1.5h5c0.83,0,1.5,0.67,1.5,1.5S297.26,170.5,296.43,170.5z M282.43,170.5h-5
		c-0.83,0-1.5-0.67-1.5-1.5s0.67-1.5,1.5-1.5h5c0.83,0,1.5,0.67,1.5,1.5S283.26,170.5,282.43,170.5z M268.43,170.5h-5
		c-0.83,0-1.5-0.67-1.5-1.5s0.67-1.5,1.5-1.5h5c0.83,0,1.5,0.67,1.5,1.5S269.26,170.5,268.43,170.5z M330.47,163.73
		c-0.16,0-0.32-0.03-0.48-0.08c-0.78-0.27-1.2-1.12-0.94-1.9c0.3-0.88,0.45-1.8,0.45-2.74v-1.71c0-0.83,0.67-1.5,1.5-1.5
		s1.5,0.67,1.5,1.5V159c0,1.27-0.21,2.52-0.61,3.71C331.67,163.33,331.09,163.73,330.47,163.73z M331,149.79
		c-0.83,0-1.5-0.67-1.5-1.5v-5c0-0.83,0.67-1.5,1.5-1.5s1.5,0.67,1.5,1.5v5C332.5,149.11,331.83,149.79,331,149.79z M331,135.79
		c-0.83,0-1.5-0.67-1.5-1.5v-5c0-0.83,0.67-1.5,1.5-1.5s1.5,0.67,1.5,1.5v5C332.5,135.11,331.83,135.79,331,135.79z M331,121.79
		c-0.83,0-1.5-0.67-1.5-1.5v-5c0-0.83,0.67-1.5,1.5-1.5s1.5,0.67,1.5,1.5v5C332.5,121.11,331.83,121.79,331,121.79z M331,107.79
		c-0.83,0-1.5-0.67-1.5-1.5v-5c0-0.83,0.67-1.5,1.5-1.5s1.5,0.67,1.5,1.5v5C332.5,107.11,331.83,107.79,331,107.79z M331,93.79
		c-0.83,0-1.5-0.67-1.5-1.5V90c0-1.05,0.14-2.08,0.42-3.08c0.22-0.8,1.05-1.27,1.85-1.04c0.8,0.22,1.27,1.05,1.04,1.85
		c-0.2,0.74-0.31,1.5-0.31,2.28v2.29C332.5,93.11,331.83,93.79,331,93.79z M337.11,82.29c-0.58,0-1.14-0.34-1.38-0.92
		c-0.32-0.76,0.03-1.64,0.8-1.97c1.42-0.6,2.93-0.9,4.48-0.9h1c0.83,0,1.5,0.67,1.5,1.5s-0.67,1.5-1.5,1.5h-1
		c-1.15,0-2.26,0.22-3.31,0.67C337.5,82.25,337.3,82.29,337.11,82.29z M384,81.5h-5c-0.83,0-1.5-0.67-1.5-1.5s0.67-1.5,1.5-1.5h5
		c0.83,0,1.5,0.67,1.5,1.5S384.83,81.5,384,81.5z M370,81.5h-5c-0.83,0-1.5-0.67-1.5-1.5s0.67-1.5,1.5-1.5h5
		c0.83,0,1.5,0.67,1.5,1.5S370.83,81.5,370,81.5z M356,81.5h-5c-0.83,0-1.5-0.67-1.5-1.5s0.67-1.5,1.5-1.5h5
		c0.83,0,1.5,0.67,1.5,1.5S356.83,81.5,356,81.5z"/>
	<path class="st0" d="M886.57,333.5h-5c-0.83,0-1.5-0.67-1.5-1.5s0.67-1.5,1.5-1.5h5c0.83,0,1.5,0.67,1.5,1.5
		S887.4,333.5,886.57,333.5z M872.57,333.5h-5c-0.83,0-1.5-0.67-1.5-1.5s0.67-1.5,1.5-1.5h5c0.83,0,1.5,0.67,1.5,1.5
		S873.4,333.5,872.57,333.5z M858.57,333.5h-5c-0.83,0-1.5-0.67-1.5-1.5s0.67-1.5,1.5-1.5h5c0.83,0,1.5,0.67,1.5,1.5
		S859.4,333.5,858.57,333.5z M844.57,333.5h-5c-0.83,0-1.5-0.67-1.5-1.5s0.67-1.5,1.5-1.5h5c0.83,0,1.5,0.67,1.5,1.5
		S845.4,333.5,844.57,333.5z M830.57,333.49c-0.02,0-0.04,0-0.06,0c-1.92-0.08-3.81-0.65-5.45-1.64c-0.71-0.43-0.94-1.35-0.51-2.06
		c0.43-0.71,1.35-0.94,2.06-0.51c1.21,0.73,2.6,1.15,4.02,1.21c0.83,0.04,1.47,0.73,1.44,1.56
		C832.04,332.86,831.37,333.49,830.57,333.49z M821.08,324.78c-0.74,0-1.39-0.55-1.49-1.31c-0.06-0.48-0.09-0.98-0.09-1.47v-3.71
		c0-0.83,0.67-1.5,1.5-1.5s1.5,0.67,1.5,1.5V322c0,0.37,0.02,0.73,0.07,1.09c0.1,0.82-0.48,1.57-1.3,1.68
		C821.21,324.78,821.14,324.78,821.08,324.78z M821,310.79c-0.83,0-1.5-0.67-1.5-1.5V305c0-0.21-0.01-0.41-0.02-0.61
		c-0.06-0.83,0.56-1.54,1.39-1.6c0.81-0.08,1.54,0.56,1.6,1.39c0.02,0.27,0.03,0.55,0.03,0.82v4.28
		C822.5,310.11,821.83,310.79,821,310.79z M816.64,298.24c-0.29,0-0.59-0.08-0.85-0.26c-1.17-0.8-2.54-1.3-3.95-1.44
		c-0.82-0.08-1.43-0.82-1.34-1.64c0.08-0.82,0.81-1.42,1.64-1.34c1.91,0.19,3.76,0.86,5.35,1.95c0.68,0.47,0.86,1.4,0.39,2.08
		C817.59,298.02,817.12,298.24,816.64,298.24z M803,296.5h-5c-0.83,0-1.5-0.67-1.5-1.5s0.67-1.5,1.5-1.5h5c0.83,0,1.5,0.67,1.5,1.5
		S803.83,296.5,803,296.5z M789,296.5h-5c-0.83,0-1.5-0.67-1.5-1.5s0.67-1.5,1.5-1.5h5c0.83,0,1.5,0.67,1.5,1.5
		S789.83,296.5,789,296.5z M775,296.5h-5c-0.83,0-1.5-0.67-1.5-1.5s0.67-1.5,1.5-1.5h5c0.83,0,1.5,0.67,1.5,1.5
		S775.83,296.5,775,296.5z M761,296.5h-5c-0.83,0-1.5-0.67-1.5-1.5s0.67-1.5,1.5-1.5h5c0.83,0,1.5,0.67,1.5,1.5
		S761.83,296.5,761,296.5z M747,296.5h-5c-0.83,0-1.5-0.67-1.5-1.5s0.67-1.5,1.5-1.5h5c0.83,0,1.5,0.67,1.5,1.5
		S747.83,296.5,747,296.5z"/>
	<path class="st0" d="M385,267.07c-0.83,0-1.5-0.67-1.5-1.5v-5c0-0.83,0.67-1.5,1.5-1.5s1.5,0.67,1.5,1.5v5
		C386.5,266.4,385.83,267.07,385,267.07z M385,253.07c-0.83,0-1.5-0.67-1.5-1.5v-5c0-0.83,0.67-1.5,1.5-1.5s1.5,0.67,1.5,1.5v5
		C386.5,252.4,385.83,253.07,385,253.07z M385,239.07c-0.83,0-1.5-0.67-1.5-1.5v-5c0-0.83,0.67-1.5,1.5-1.5s1.5,0.67,1.5,1.5v5
		C386.5,238.4,385.83,239.07,385,239.07z M385,225.07c-0.83,0-1.5-0.67-1.5-1.5v-5c0-0.83,0.67-1.5,1.5-1.5s1.5,0.67,1.5,1.5v5
		C386.5,224.4,385.83,225.07,385,225.07z M388.34,212.04c-0.41,0-0.82-0.17-1.12-0.5c-0.55-0.62-0.5-1.57,0.12-2.12
		c1.44-1.28,3.18-2.19,5.05-2.62c0.81-0.19,1.61,0.31,1.8,1.12c0.19,0.81-0.32,1.61-1.12,1.8c-1.38,0.32-2.67,0.99-3.73,1.94
		C389.06,211.91,388.7,212.04,388.34,212.04z M448.71,209.5h-5c-0.83,0-1.5-0.67-1.5-1.5s0.67-1.5,1.5-1.5h5
		c0.83,0,1.5,0.67,1.5,1.5S449.54,209.5,448.71,209.5z M434.71,209.5h-5c-0.83,0-1.5-0.67-1.5-1.5s0.67-1.5,1.5-1.5h5
		c0.83,0,1.5,0.67,1.5,1.5S435.54,209.5,434.71,209.5z M420.71,209.5h-5c-0.83,0-1.5-0.67-1.5-1.5s0.67-1.5,1.5-1.5h5
		c0.83,0,1.5,0.67,1.5,1.5S421.54,209.5,420.71,209.5z M406.71,209.5h-5c-0.83,0-1.5-0.67-1.5-1.5s0.67-1.5,1.5-1.5h5
		c0.83,0,1.5,0.67,1.5,1.5S407.54,209.5,406.71,209.5z M457.68,209.14c-0.66,0-1.26-0.43-1.44-1.1c-0.22-0.8,0.25-1.62,1.04-1.85
		c1.36-0.38,2.62-1.1,3.64-2.1c0.59-0.58,1.54-0.56,2.12,0.03c0.58,0.59,0.56,1.54-0.03,2.12c-1.38,1.34-3.09,2.32-4.93,2.83
		C457.95,209.12,457.81,209.14,457.68,209.14z M465,198.5c-0.83,0-1.5-0.67-1.5-1.5v-5c0-0.83,0.67-1.5,1.5-1.5s1.5,0.67,1.5,1.5v5
		C466.5,197.83,465.83,198.5,465,198.5z M465,184.5c-0.83,0-1.5-0.67-1.5-1.5v-5c0-0.83,0.67-1.5,1.5-1.5s1.5,0.67,1.5,1.5v5
		C466.5,183.83,465.83,184.5,465,184.5z M465,170.5c-0.83,0-1.5-0.67-1.5-1.5v-5c0-0.83,0.67-1.5,1.5-1.5s1.5,0.67,1.5,1.5v5
		C466.5,169.83,465.83,170.5,465,170.5z M465,156.5c-0.83,0-1.5-0.67-1.5-1.5v-5c0-0.83,0.67-1.5,1.5-1.5s1.5,0.67,1.5,1.5v5
		C466.5,155.83,465.83,156.5,465,156.5z M465,142.5c-0.83,0-1.5-0.67-1.5-1.5v-5c0-0.83,0.67-1.5,1.5-1.5s1.5,0.67,1.5,1.5v5
		C466.5,141.83,465.83,142.5,465,142.5z"/>
	<path class="st0" d="M662,253.07c-0.83,0-1.5-0.67-1.5-1.5v-5c0-0.83,0.67-1.5,1.5-1.5s1.5,0.67,1.5,1.5v5
		C663.5,252.4,662.83,253.07,662,253.07z M662,239.07c-0.83,0-1.5-0.67-1.5-1.5v-5c0-0.83,0.67-1.5,1.5-1.5s1.5,0.67,1.5,1.5v5
		C663.5,238.4,662.83,239.07,662,239.07z M663.43,225.33c-0.26,0-0.53-0.07-0.77-0.22c-0.71-0.43-0.94-1.35-0.51-2.06
		c0.99-1.64,2.39-3.02,4.05-3.99c0.72-0.42,1.63-0.18,2.05,0.54c0.42,0.71,0.18,1.63-0.54,2.05c-1.23,0.72-2.26,1.74-3,2.95
		C664.44,225.08,663.94,225.33,663.43,225.33z M722.71,220.5h-5c-0.83,0-1.5-0.67-1.5-1.5s0.67-1.5,1.5-1.5h5
		c0.83,0,1.5,0.67,1.5,1.5S723.54,220.5,722.71,220.5z M708.71,220.5h-5c-0.83,0-1.5-0.67-1.5-1.5s0.67-1.5,1.5-1.5h5
		c0.83,0,1.5,0.67,1.5,1.5S709.54,220.5,708.71,220.5z M694.71,220.5h-5c-0.83,0-1.5-0.67-1.5-1.5s0.67-1.5,1.5-1.5h5
		c0.83,0,1.5,0.67,1.5,1.5S695.54,220.5,694.71,220.5z M680.71,220.5h-5c-0.83,0-1.5-0.67-1.5-1.5s0.67-1.5,1.5-1.5h5
		c0.83,0,1.5,0.67,1.5,1.5S681.54,220.5,680.71,220.5z M731.41,218.91c-0.49,0-0.98-0.24-1.26-0.69c-0.45-0.7-0.25-1.62,0.45-2.07
		c1.19-0.77,2.19-1.83,2.87-3.08c0.4-0.73,1.31-1,2.04-0.6c0.73,0.4,0.99,1.31,0.6,2.04c-0.92,1.68-2.26,3.12-3.88,4.16
		C731.97,218.84,731.69,218.91,731.41,218.91z M736,206.5c-0.83,0-1.5-0.67-1.5-1.5v-5c0-0.83,0.67-1.5,1.5-1.5s1.5,0.67,1.5,1.5v5
		C737.5,205.83,736.83,206.5,736,206.5z M736,192.5c-0.83,0-1.5-0.67-1.5-1.5v-5c0-0.83,0.67-1.5,1.5-1.5s1.5,0.67,1.5,1.5v5
		C737.5,191.83,736.83,192.5,736,192.5z"/>
	<path class="st0" d="M1143,333.5h-5c-0.83,0-1.5-0.67-1.5-1.5s0.67-1.5,1.5-1.5h5c0.83,0,1.5,0.67,1.5,1.5
		S1143.83,333.5,1143,333.5z M1129,333.5h-5c-0.83,0-1.5-0.67-1.5-1.5s0.67-1.5,1.5-1.5h5c0.83,0,1.5,0.67,1.5,1.5
		S1129.83,333.5,1129,333.5z M1115,333.5h-5c-0.83,0-1.5-0.67-1.5-1.5s0.67-1.5,1.5-1.5h5c0.83,0,1.5,0.67,1.5,1.5
		S1115.83,333.5,1115,333.5z M1101,333.5h-5c-0.83,0-1.5-0.67-1.5-1.5s0.67-1.5,1.5-1.5h5c0.83,0,1.5,0.67,1.5,1.5
		S1101.83,333.5,1101,333.5z M1087,333.5h-5c-0.83,0-1.5-0.67-1.5-1.5s0.67-1.5,1.5-1.5h5c0.83,0,1.5,0.67,1.5,1.5
		S1087.83,333.5,1087,333.5z M1073,333.5h-5c-0.83,0-1.5-0.67-1.5-1.5s0.67-1.5,1.5-1.5h5c0.83,0,1.5,0.67,1.5,1.5
		S1073.83,333.5,1073,333.5z M1151.17,330.47c-0.38,0-0.75-0.14-1.05-0.42c-0.59-0.58-0.61-1.53-0.03-2.12
		c0.99-1.02,1.72-2.28,2.09-3.64c0.22-0.8,1.04-1.26,1.85-1.04c0.8,0.22,1.27,1.05,1.04,1.85c-0.51,1.85-1.49,3.55-2.83,4.93
		C1151.95,330.32,1151.56,330.47,1151.17,330.47z M1154,317.21c-0.83,0-1.5-0.67-1.5-1.5v-5c0-0.83,0.67-1.5,1.5-1.5
		s1.5,0.67,1.5,1.5v5C1155.5,316.54,1154.83,317.21,1154,317.21z M1154,303.21c-0.83,0-1.5-0.67-1.5-1.5v-5c0-0.83,0.67-1.5,1.5-1.5
		s1.5,0.67,1.5,1.5v5C1155.5,302.54,1154.83,303.21,1154,303.21z M1154.9,289.34c-0.21,0-0.42-0.04-0.62-0.14
		c-0.75-0.34-1.08-1.24-0.74-1.99c0.8-1.74,2.03-3.27,3.57-4.43c0.67-0.5,1.6-0.36,2.1,0.3c0.5,0.66,0.36,1.6-0.3,2.1
		c-1.14,0.85-2.05,1.99-2.64,3.28C1156.01,289.02,1155.47,289.34,1154.9,289.34z M1241.57,283.5h-5c-0.83,0-1.5-0.67-1.5-1.5
		s0.67-1.5,1.5-1.5h5c0.83,0,1.5,0.67,1.5,1.5S1242.4,283.5,1241.57,283.5z M1227.57,283.5h-5c-0.83,0-1.5-0.67-1.5-1.5
		s0.67-1.5,1.5-1.5h5c0.83,0,1.5,0.67,1.5,1.5S1228.4,283.5,1227.57,283.5z M1213.57,283.5h-5c-0.83,0-1.5-0.67-1.5-1.5
		s0.67-1.5,1.5-1.5h5c0.83,0,1.5,0.67,1.5,1.5S1214.4,283.5,1213.57,283.5z M1199.57,283.5h-5c-0.83,0-1.5-0.67-1.5-1.5
		s0.67-1.5,1.5-1.5h5c0.83,0,1.5,0.67,1.5,1.5S1200.4,283.5,1199.57,283.5z M1185.57,283.5h-5c-0.83,0-1.5-0.67-1.5-1.5
		s0.67-1.5,1.5-1.5h5c0.83,0,1.5,0.67,1.5,1.5S1186.4,283.5,1185.57,283.5z M1171.57,283.5h-5c-0.83,0-1.5-0.67-1.5-1.5
		s0.67-1.5,1.5-1.5h5c0.83,0,1.5,0.67,1.5,1.5S1172.4,283.5,1171.57,283.5z M1250.45,282.63c-0.57,0-1.12-0.33-1.37-0.89
		c-0.34-0.76,0-1.64,0.76-1.98c1.29-0.58,2.43-1.48,3.3-2.61c0.5-0.66,1.45-0.78,2.1-0.28c0.66,0.5,0.79,1.44,0.28,2.1
		c-1.17,1.53-2.71,2.75-4.46,3.53C1250.86,282.59,1250.65,282.63,1250.45,282.63z M1256.38,271.02c-0.83,0-1.5-0.67-1.5-1.5v-5
		c0-0.83,0.67-1.5,1.5-1.5s1.5,0.67,1.5,1.5v5C1257.88,270.34,1257.2,271.02,1256.38,271.02z M1256.38,257.02
		c-0.83,0-1.5-0.67-1.5-1.5v-5c0-0.83,0.67-1.5,1.5-1.5s1.5,0.67,1.5,1.5v5C1257.88,256.34,1257.2,257.02,1256.38,257.02z
		 M1256.38,243.02c-0.83,0-1.5-0.67-1.5-1.5v-5c0-0.83,0.67-1.5,1.5-1.5s1.5,0.67,1.5,1.5v5
		C1257.88,242.34,1257.2,243.02,1256.38,243.02z"/>
	<rect class="st1" width="1440" height="400"/>
	<path class="st2" d="M1233.8,338.8c2.98,0,5.4,2.42,5.4,5.4c0,0.99,0.81,1.8,1.8,1.8s1.8-0.81,1.8-1.8c0-2.98,2.42-5.4,5.4-5.4
		c0.99,0,1.8-0.81,1.8-1.8s-0.81-1.8-1.8-1.8c-2.98,0-5.4-2.42-5.4-5.4c0-0.99-0.81-1.8-1.8-1.8s-1.8,0.81-1.8,1.8
		c0,2.98-2.42,5.4-5.4,5.4c-0.99,0-1.8,0.81-1.8,1.8S1232.81,338.8,1233.8,338.8z"/>
	<path class="st2" d="M906.6,94.6c2.65,0,4.8,2.15,4.8,4.8c0,0.88,0.72,1.6,1.6,1.6s1.6-0.72,1.6-1.6c0-2.65,2.15-4.8,4.8-4.8
		c0.88,0,1.6-0.72,1.6-1.6s-0.72-1.6-1.6-1.6c-2.65,0-4.8-2.15-4.8-4.8c0-0.88-0.72-1.6-1.6-1.6s-1.6,0.72-1.6,1.6
		c0,2.65-2.15,4.8-4.8,4.8c-0.88,0-1.6,0.72-1.6,1.6C905,93.88,905.72,94.6,906.6,94.6z"/>
	<circle class="st2" cx="1297.5" cy="332.5" r="2.5"/>
	<circle class="st2" cx="1368.5" cy="120.5" r="2.5"/>
	<circle class="st2" cx="1300.5" cy="275.5" r="4.5"/>
	<circle class="st2" cx="925.5" cy="35.5" r="4.5"/>
	<path class="st2" d="M1339,86h-6v-6c0-1.66-1.34-3-3-3s-3,1.34-3,3v6h-6c-1.66,0-3,1.34-3,3s1.34,3,3,3h6v6c0,1.66,1.34,3,3,3
		s3-1.34,3-3v-6h6c1.66,0,3-1.34,3-3S1340.66,86,1339,86z"/>
	<path class="st2" d="M823,214h-6v-6c0-1.66-1.34-3-3-3s-3,1.34-3,3v6h-6c-1.66,0-3,1.34-3,3s1.34,3,3,3h6v6c0,1.66,1.34,3,3,3
		s3-1.34,3-3v-6h6c1.66,0,3-1.34,3-3S824.66,214,823,214z"/>
	<path class="st2" d="M73,146h-6v-6c0-1.66-1.34-3-3-3s-3,1.34-3,3v6h-6c-1.66,0-3,1.34-3,3s1.34,3,3,3h6v6c0,1.66,1.34,3,3,3
		s3-1.34,3-3v-6h6c1.66,0,3-1.34,3-3S74.66,146,73,146z"/>
	<path class="st2" d="M110.8,78.2c2.98,0,5.4-2.42,5.4-5.4c0-0.99,0.81-1.8,1.8-1.8c0.99,0,1.8,0.81,1.8,1.8
		c0,2.98,2.42,5.4,5.4,5.4c0.99,0,1.8,0.81,1.8,1.8s-0.81,1.8-1.8,1.8c-2.98,0-5.4,2.42-5.4,5.4c0,0.99-0.81,1.8-1.8,1.8
		c-0.99,0-1.8-0.81-1.8-1.8c0-2.98-2.42-5.4-5.4-5.4c-0.99,0-1.8-0.81-1.8-1.8S109.81,78.2,110.8,78.2z"/>
	<circle class="st2" cx="556" cy="339" r="3"/>
	<circle class="st2" cx="514.5" cy="307.5" r="4.5"/>
	<circle class="st2" cx="284.5" cy="208.5" r="4.5"/>
	<circle class="st2" cx="58.5" cy="93.5" r="3.5"/>
	<path class="st2" d="M372.6,157.6c-2.32,0-4.2-1.88-4.2-4.2c0-0.77-0.63-1.4-1.4-1.4s-1.4,0.63-1.4,1.4c0,2.32-1.88,4.2-4.2,4.2
		c-0.77,0-1.4,0.63-1.4,1.4s0.63,1.4,1.4,1.4c2.32,0,4.2,1.88,4.2,4.2c0,0.77,0.63,1.4,1.4,1.4s1.4-0.63,1.4-1.4
		c0-2.32,1.88-4.2,4.2-4.2c0.77,0,1.4-0.63,1.4-1.4S373.37,157.6,372.6,157.6z"/>
	<path class="st2" d="M276.2,256.2c-2.98,0-5.4-2.42-5.4-5.4c0-0.99-0.81-1.8-1.8-1.8c-0.99,0-1.8,0.81-1.8,1.8
		c0,2.98-2.42,5.4-5.4,5.4c-0.99,0-1.8,0.81-1.8,1.8s0.81,1.8,1.8,1.8c2.98,0,5.4,2.42,5.4,5.4c0,0.99,0.81,1.8,1.8,1.8
		c0.99,0,1.8-0.81,1.8-1.8c0-2.98,2.42-5.4,5.4-5.4c0.99,0,1.8-0.81,1.8-1.8S277.19,256.2,276.2,256.2z"/>
	<circle class="st2" cx="1042.5" cy="252.5" r="4.5"/>
	<circle class="st2" cx="777.5" cy="250.5" r="4.5"/>
	<circle class="st2" cx="1094.5" cy="293.5" r="2.5"/>
	<circle class="st2" cx="1086.5" cy="251.5" r="3.5"/>
	<circle class="st2" cx="273" cy="353" r="3"/>
	<path class="st3" d="M652,184.65c-1.66-0.41-3-2.13-3-3.78c0-26.67,0-53.33,0-80c0-1.66,1.34-2.63,3-2.22
		c56.3,13.87,112.59-17.18,168.89-3.31c1.66,0.41,3,2.13,3,3.78c0,26.67,0,53.33,0,80c0,1.66-1.34,2.63-3,2.22
		C764.59,167.47,708.3,198.53,652,184.65z"/>
	<path class="st0" d="M820.89,98.35c0,26.67,0,53.33,0,80c-56.3-13.87-112.59,17.18-168.89,3.31c0-26.67,0-53.33,0-80
		C708.3,115.53,764.59,84.47,820.89,98.35 M820.89,92.35C764.59,78.47,708.3,109.53,652,95.65c-3.31-0.81-6,1.03-6,4.35
		c0,26.67,0,53.33,0,80c0,3.31,2.69,6.84,6,7.65c56.3,13.87,112.59-17.18,168.89-3.31c3.31,0.81,6-1.03,6-4.35c0-26.67,0-53.33,0-80
		C826.89,96.69,824.2,93.16,820.89,92.35L820.89,92.35z"/>
	<path class="st4" d="M813.78,156.38c0-13.04,0-26.07,0-39.11c-7.36-1.34-13.33-7.65-13.33-15.04c-42.67-3.27-85.33,13.02-128,9.75
		c0,7.35-5.97,12.97-13.33,11.63c0,13.04,0,26.07,0,39.11c7.36,1.34,13.33,7.65,13.33,15.04c42.67,3.27,85.33-13.02,128-9.75
		C800.44,160.67,806.41,155.04,813.78,156.38z"/>
	<path class="st3" d="M767.56,135.81c0,20.55-13.93,38.76-31.11,41.52c-17.18,2.75-31.11-12.47-31.11-33.15
		c0-20.55,13.93-38.76,31.11-41.52C753.63,99.91,767.56,115.13,767.56,135.81z"/>
	<path class="st3" d="M692.89,145.1c0,6.37-4.78,11.82-10.67,11.75c-5.89-0.06-10.67-5.67-10.67-12.05
		c0-6.39,4.78-11.12,10.67-11.06C688.11,133.81,692.89,138.71,692.89,145.1z"/>
	<path class="st3" d="M801.33,135.2c0,6.39-4.78,11.12-10.67,11.06c-5.89-0.07-10.67-4.97-10.67-11.36
		c0-6.37,4.78-11.82,10.67-11.75C796.56,123.2,801.33,128.82,801.33,135.2z"/>
	<path class="st0" d="M741.94,142.96c-0.59,0-1.16-0.35-1.39-0.94c-0.31-0.77,0.06-1.64,0.83-1.95c2.19-0.89,5.69-1.07,7.97-0.42
		c0.8,0.23,1.26,1.06,1.03,1.86c-0.23,0.8-1.06,1.25-1.86,1.03c-1.63-0.47-4.44-0.32-6.01,0.32
		C742.32,142.93,742.13,142.96,741.94,142.96z"/>
	<circle class="st0" cx="745.09" cy="134.58" r="6"/>
	<circle class="st5" cx="746.58" cy="134.5" r="1.5"/>
	<path class="st0" d="M721.97,144.01c-0.59,0-1.16-0.35-1.39-0.94c-0.31-0.77,0.06-1.64,0.83-1.95c2.19-0.89,5.69-1.07,7.97-0.42
		c0.8,0.23,1.26,1.06,1.03,1.86c-0.23,0.8-1.06,1.25-1.86,1.03c-1.63-0.47-4.44-0.32-6.01,0.32
		C722.35,143.97,722.16,144.01,721.97,144.01z"/>
	<circle class="st0" cx="725.11" cy="135.63" r="6"/>
	<circle class="st5" cx="726.61" cy="135.55" r="1.5"/>
	<path class="st0" d="M740.81,120.93c0.94-0.66,1.81-1.01,2.81-1.27c0.98-0.26,2.02-0.34,3.06-0.28c1.05,0.05,2.12,0.32,3.11,0.79
		c1,0.45,1.89,1.18,2.54,2.06c0.56,0.77,0.39,1.85-0.38,2.4c-0.36,0.26-0.79,0.36-1.2,0.32l-0.4-0.05c-0.79-0.09-1.4-0.24-2.06-0.32
		c-0.65-0.07-1.28-0.18-1.97-0.23l-2.12-0.13c-0.72-0.04-1.55-0.04-2.26-0.16l-0.43-0.07c-0.93-0.15-1.55-1.03-1.4-1.95
		C740.19,121.58,740.46,121.18,740.81,120.93z"/>
	<path class="st0" d="M727.14,124.84c-0.69,0.19-1.52,0.28-2.23,0.39l-2.1,0.36c-0.68,0.12-1.29,0.29-1.94,0.43
		c-0.65,0.15-1.24,0.36-2.02,0.54l-0.39,0.09c-0.93,0.21-1.85-0.38-2.05-1.31c-0.1-0.44-0.02-0.88,0.19-1.24
		c0.55-0.95,1.36-1.77,2.31-2.31c0.93-0.57,1.98-0.95,3.01-1.11c1.04-0.17,2.08-0.19,3.08-0.04c1.02,0.15,1.93,0.41,2.93,0.97
		c0.82,0.46,1.11,1.49,0.66,2.31c-0.23,0.41-0.61,0.69-1.03,0.81L727.14,124.84z"/>
	<path class="st0" d="M751.81,148.15c-0.11-2.13-1.88-3.79-3.99-3.79c-0.07,0-0.14,0-0.21,0.01l-23.97,1.26
		c-2.21,0.12-3.9,2-3.79,4.2c0.45,8.5,7.46,15.16,15.97,15.16c0.28,0,0.56-0.01,0.85-0.02c4.27-0.22,8.19-2.1,11.05-5.27
		S752.03,152.42,751.81,148.15z"/>
	
		<ellipse transform="matrix(0.9986 -0.0523 0.0523 0.9986 -7.2066 38.7473)" class="st6" cx="736.25" cy="156.98" rx="8.93" ry="4"/>
	<path class="st3" d="M893,374.65c-1.66-0.41-3-2.13-3-3.78c0-26.67,0-53.33,0-80c0-1.66,1.34-2.63,3-2.22
		c56.3,13.87,112.59-17.18,168.89-3.31c1.66,0.41,3,2.13,3,3.78c0,26.67,0,53.33,0,80c0,1.66-1.34,2.63-3,2.22
		C1005.59,357.47,949.3,388.53,893,374.65z"/>
	<path class="st0" d="M1061.89,288.35c0,26.67,0,53.33,0,80c-56.3-13.87-112.59,17.18-168.89,3.31c0-26.67,0-53.33,0-80
		C949.3,305.53,1005.59,274.47,1061.89,288.35 M1061.89,282.35c-56.3-13.87-112.59,17.18-168.89,3.31c-3.31-0.81-6,1.03-6,4.35
		c0,26.67,0,53.33,0,80c0,3.31,2.69,6.84,6,7.65c56.3,13.87,112.59-17.18,168.89-3.31c3.31,0.81,6-1.03,6-4.35c0-26.67,0-53.33,0-80
		C1067.89,286.69,1065.2,283.16,1061.89,282.35L1061.89,282.35z"/>
	<path class="st4" d="M1054.78,346.38c0-13.04,0-26.07,0-39.11c-7.36-1.34-13.33-7.65-13.33-15.04c-42.67-3.27-85.33,13.02-128,9.75
		c0,7.35-5.97,12.97-13.33,11.63c0,13.04,0,26.07,0,39.11c7.36,1.34,13.33,7.65,13.33,15.04c42.67,3.27,85.33-13.02,128-9.75
		C1041.44,350.67,1047.41,345.04,1054.78,346.38z"/>
	<path class="st3" d="M1008.56,325.81c0,20.56-13.93,38.76-31.11,41.52c-17.18,2.75-31.11-12.47-31.11-33.15
		c0-20.55,13.93-38.76,31.11-41.52C994.63,289.91,1008.56,305.13,1008.56,325.81z"/>
	<path class="st3" d="M933.89,335.1c0,6.37-4.78,11.82-10.67,11.75c-5.89-0.06-10.67-5.67-10.67-12.05
		c0-6.39,4.78-11.12,10.67-11.06C929.11,323.81,933.89,328.71,933.89,335.1z"/>
	<path class="st3" d="M1042.33,325.2c0,6.38-4.77,11.12-10.67,11.06c-5.89-0.07-10.67-4.97-10.67-11.36
		c0-6.37,4.78-11.82,10.67-11.75C1037.56,313.2,1042.33,318.82,1042.33,325.2z"/>
	<path class="st0" d="M982.08,328.85c-1.06,0-1.94-0.83-2-1.9c-0.08-1.6,0.46-3.14,1.53-4.33c1.07-1.19,2.55-1.89,4.15-1.98
		c3.34-0.19,6.13,2.37,6.31,5.68c0.06,1.1-0.79,2.04-1.89,2.1c-1.13,0.06-2.04-0.79-2.1-1.89c-0.06-1.1-1.04-1.95-2.1-1.9
		c-0.54,0.03-1.03,0.26-1.38,0.66c-0.36,0.4-0.54,0.91-0.51,1.44c0.06,1.1-0.79,2.04-1.89,2.1
		C982.16,328.84,982.12,328.85,982.08,328.85z"/>
	<path class="st0" d="M962.11,329.89c-1.06,0-1.94-0.83-2-1.9c-0.17-3.31,2.38-6.14,5.68-6.31c3.31-0.18,6.13,2.37,6.31,5.68
		c0.06,1.1-0.79,2.04-1.89,2.1c-1.12,0.04-2.04-0.79-2.1-1.89c-0.06-1.1-1.04-1.94-2.1-1.9c-1.1,0.06-1.95,1-1.9,2.1
		c0.06,1.1-0.79,2.04-1.89,2.1C962.18,329.89,962.15,329.89,962.11,329.89z"/>
	<path class="st0" d="M981.99,312.45c0.99-0.58,1.89-0.85,2.91-1.02c1-0.17,2.04-0.17,3.08-0.01c1.04,0.14,2.09,0.51,3.03,1.06
		c0.96,0.53,1.78,1.34,2.35,2.27c0.49,0.81,0.23,1.87-0.59,2.36c-0.38,0.23-0.82,0.29-1.23,0.21l-0.4-0.08
		c-0.78-0.16-1.38-0.36-2.03-0.5c-0.65-0.13-1.26-0.29-1.94-0.4l-2.1-0.32c-0.71-0.1-1.54-0.18-2.24-0.35l-0.42-0.11
		c-0.91-0.23-1.46-1.16-1.22-2.07C981.31,313.04,981.61,312.68,981.99,312.45z"/>
	<path class="st0" d="M968.18,316.45c-0.67,0.25-1.49,0.41-2.19,0.59l-2.06,0.54c-0.66,0.17-1.26,0.4-1.89,0.6
		c-0.63,0.2-1.21,0.47-1.96,0.71l-0.38,0.12c-0.91,0.29-1.87-0.22-2.16-1.12c-0.14-0.43-0.09-0.87,0.08-1.25
		c0.46-0.99,1.2-1.88,2.1-2.51c0.88-0.65,1.89-1.12,2.9-1.37c1.02-0.26,2.05-0.37,3.06-0.31c1.03,0.06,1.96,0.24,3,0.71
		c0.86,0.38,1.24,1.39,0.86,2.24c-0.19,0.43-0.54,0.74-0.95,0.9L968.18,316.45z"/>
	<path class="st0" d="M992.81,335.15c-0.06-1.06-0.53-2.05-1.32-2.76c-0.74-0.66-1.69-1.03-2.68-1.03c-0.07,0-0.14,0-0.21,0.01
		l-23.97,1.26c-1.06,0.06-2.05,0.53-2.76,1.32c-0.71,0.79-1.08,1.83-1.02,2.89c0.45,8.5,7.46,15.16,15.97,15.16
		c0.28,0,0.56-0.01,0.85-0.02c4.27-0.22,8.19-2.1,11.05-5.27S993.03,339.42,992.81,335.15z"/>
	
		<ellipse transform="matrix(0.9986 -0.0523 0.0523 0.9986 -16.6632 51.6165)" class="st6" cx="977.25" cy="343.98" rx="8.93" ry="4"/>
	<path class="st3" d="M301,355.65c-1.66-0.41-3-2.13-3-3.78c0-26.67,0-53.33,0-80c0-1.66,1.34-2.62,3-2.22
		c56.3,13.87,112.59-17.18,168.89-3.31c1.66,0.41,3,2.13,3,3.78c0,26.67,0,53.33,0,80c0,1.66-1.34,2.63-3,2.22
		C413.59,338.47,357.3,369.53,301,355.65z"/>
	<path class="st0" d="M469.89,269.35c0,26.67,0,53.33,0,80c-56.3-13.87-112.59,17.18-168.89,3.31c0-26.67,0-53.33,0-80
		C357.3,286.53,413.59,255.47,469.89,269.35 M469.89,263.35c-56.3-13.87-112.59,17.18-168.89,3.31c-3.31-0.81-6,1.03-6,4.35
		c0,26.67,0,53.33,0,80c0,3.31,2.69,6.84,6,7.65c56.3,13.87,112.59-17.18,168.89-3.31c3.31,0.81,6-1.03,6-4.35c0-26.67,0-53.33,0-80
		C475.89,267.69,473.2,264.16,469.89,263.35L469.89,263.35z"/>
	<path class="st4" d="M462.78,327.38c0-13.04,0-26.07,0-39.11c-7.36-1.34-13.33-7.65-13.33-15.04c-42.67-3.27-85.33,13.02-128,9.75
		c0,7.35-5.97,12.97-13.33,11.63c0,13.04,0,26.07,0,39.11c7.36,1.34,13.33,7.65,13.33,15.04c42.67,3.27,85.33-13.02,128-9.75
		C449.44,331.67,455.41,326.04,462.78,327.38z"/>
	<path class="st3" d="M416.56,306.81c0,20.55-13.93,38.77-31.11,41.52c-17.18,2.75-31.11-12.47-31.11-33.15
		c0-20.56,13.93-38.76,31.11-41.52C402.63,270.91,416.56,286.13,416.56,306.81z"/>
	<path class="st3" d="M341.89,316.1c0,6.37-4.78,11.82-10.67,11.75c-5.89-0.06-10.67-5.67-10.67-12.05
		c0-6.39,4.78-11.12,10.67-11.06C337.11,304.82,341.89,309.71,341.89,316.1z"/>
	<path class="st3" d="M450.33,306.2c0,6.39-4.78,11.12-10.67,11.06c-5.89-0.07-10.67-4.97-10.67-11.36
		c0-6.37,4.78-11.82,10.67-11.75C445.56,294.2,450.33,299.82,450.33,306.2z"/>
	<path class="st0" d="M390.99,313.96c-0.59,0-1.15-0.35-1.39-0.94c-0.31-0.77,0.06-1.64,0.83-1.95c2.19-0.89,5.69-1.07,7.97-0.42
		c0.8,0.23,1.26,1.06,1.03,1.86s-1.06,1.26-1.86,1.03c-1.63-0.47-4.44-0.32-6.01,0.32C391.36,313.93,391.17,313.96,390.99,313.96z"
		/>
	<circle class="st0" cx="394.13" cy="305.58" r="6"/>
	<circle class="st5" cx="395.63" cy="305.5" r="1.5"/>
	<path class="st0" d="M371.01,315.01c-0.59,0-1.15-0.35-1.39-0.94c-0.31-0.77,0.06-1.64,0.83-1.95c2.19-0.89,5.69-1.07,7.97-0.42
		c0.8,0.23,1.26,1.06,1.03,1.86s-1.06,1.26-1.86,1.03c-1.63-0.47-4.44-0.32-6.01,0.32C371.39,314.97,371.2,315.01,371.01,315.01z"/>
	<circle class="st0" cx="374.16" cy="306.63" r="6"/>
	<circle class="st5" cx="375.65" cy="306.55" r="1.5"/>
	<path class="st0" d="M389.86,291.93c0.94-0.66,1.81-1.01,2.81-1.27c0.98-0.26,2.02-0.34,3.06-0.28c1.05,0.05,2.12,0.32,3.11,0.79
		c1,0.45,1.89,1.18,2.54,2.06c0.56,0.77,0.39,1.85-0.38,2.4c-0.36,0.26-0.79,0.36-1.2,0.32l-0.4-0.05c-0.79-0.09-1.4-0.24-2.06-0.32
		c-0.65-0.07-1.28-0.18-1.97-0.23l-2.12-0.13c-0.72-0.04-1.55-0.04-2.26-0.16l-0.43-0.07c-0.93-0.15-1.55-1.03-1.4-1.95
		C389.23,292.58,389.5,292.18,389.86,291.93z"/>
	<path class="st0" d="M376.18,295.84c-0.69,0.19-1.52,0.28-2.23,0.39l-2.1,0.36c-0.68,0.12-1.29,0.29-1.94,0.43
		c-0.65,0.15-1.24,0.36-2.02,0.54l-0.39,0.09c-0.93,0.21-1.85-0.38-2.05-1.31c-0.1-0.44-0.02-0.88,0.19-1.23
		c0.55-0.95,1.36-1.77,2.31-2.31c0.93-0.57,1.98-0.95,3.01-1.11c1.04-0.17,2.08-0.19,3.08-0.04c1.02,0.15,1.93,0.41,2.93,0.97
		c0.82,0.46,1.11,1.49,0.66,2.31c-0.23,0.41-0.61,0.69-1.03,0.81L376.18,295.84z"/>
	<path class="st0" d="M383.9,324.78c-4.06,0-8.19-0.84-11.86-2.55c-1-0.47-1.44-1.66-0.97-2.66c0.47-1,1.66-1.43,2.66-0.97
		c7.01,3.27,16.26,2.79,21.99-1.13c0.91-0.62,2.16-0.39,2.78,0.52c0.62,0.91,0.39,2.16-0.52,2.78
		C394.09,323.43,389.05,324.78,383.9,324.78z"/>
	<path class="st0" d="M381.14,328.64c1.37,0.36,2.8,0.42,4.21,0.4c0.71-0.01,1.41-0.14,2.1-0.26c0.69-0.13,1.37-0.31,2.03-0.57
		c0.68-0.27,1.45,0.05,1.72,0.73c0.19,0.47,0.09,0.99-0.22,1.36l-0.68,0.79c-0.64,0.74-1.42,1.17-2.22,1.49
		c-0.81,0.28-1.67,0.45-2.52,0.45c-0.43,0-0.85,0-1.28-0.06c-0.42-0.04-0.85-0.12-1.26-0.24c-0.83-0.23-1.63-0.56-2.36-1.13
		l-0.7-0.55c-0.6-0.47-0.7-1.33-0.23-1.93C380.06,328.68,380.63,328.5,381.14,328.64z"/>
	<path class="st7" d="M396,133c-4.96,0-9-4.04-9-9V36c0-4.96,4.04-9,9-9h138c4.96,0,9,4.04,9,9v88c0,4.96-4.04,9-9,9H396z"/>
	<path class="st0" d="M534,30c3.31,0,6,2.69,6,6v88c0,3.31-2.69,6-6,6H396c-3.31,0-6-2.69-6-6V36c0-3.31,2.69-6,6-6H534 M534,24H396
		c-6.62,0-12,5.38-12,12v88c0,6.62,5.38,12,12,12h138c6.62,0,12-5.38,12-12V36C546,29.38,540.62,24,534,24L534,24z"/>
	<path class="st8" d="M458.67,102.48L390,30l0,16.28l60.29,64.31c3.95,4.21,10.64,4.21,14.59,0l5.7-6.08
		C466.72,106.51,461.82,105.84,458.67,102.48z"/>
	<path class="st0" d="M465,108.38c-3.58,0-7.04-1.5-9.48-4.11l-67.7-72.22c-1.13-1.21-1.07-3.11,0.14-4.24
		c1.21-1.13,3.11-1.07,4.24,0.14l67.7,72.22c1.34,1.43,3.15,2.21,5.11,2.21s3.77-0.79,5.11-2.21l67.7-72.22
		c1.13-1.21,3.03-1.27,4.24-0.14c1.21,1.13,1.27,3.03,0.14,4.24l-67.7,72.22C472.04,106.88,468.58,108.38,465,108.38z"/>
	<path class="st0" d="M540,133c-0.82,0-1.64-0.33-2.23-0.99l-45-50c-1.11-1.23-1.01-3.13,0.22-4.24c1.23-1.11,3.13-1.01,4.24,0.22
		l45,50c1.11,1.23,1.01,3.13-0.22,4.24C541.43,132.75,540.72,133,540,133z"/>
	<path class="st0" d="M390,133c-0.71,0-1.43-0.25-2.01-0.77c-1.23-1.11-1.33-3-0.22-4.24l45-50c1.11-1.23,3-1.33,4.24-0.22
		c1.23,1.11,1.33,3,0.22,4.24l-45,50C391.64,132.67,390.82,133,390,133z"/>
	<path class="st0" d="M465.36,75.47c-5.29,0-10.71-1.42-15.4-4.27c-0.94-0.57-1.25-1.8-0.67-2.75c0.57-0.94,1.8-1.24,2.75-0.67
		c8,4.86,18.86,4.87,25.82,0.03c0.91-0.63,2.15-0.41,2.78,0.5c0.63,0.91,0.41,2.15-0.5,2.78C475.95,74.01,470.72,75.47,465.36,75.47
		z"/>
	<path class="st0" d="M460.82,78.58c1.35,0.43,2.77,0.57,4.18,0.62c0.71,0.03,1.41-0.07,2.11-0.15c0.7-0.09,1.39-0.24,2.05-0.47
		c0.69-0.24,1.45,0.13,1.68,0.82c0.17,0.48,0.04,1-0.29,1.34l-0.72,0.76c-0.67,0.71-1.48,1.09-2.3,1.37
		c-0.83,0.24-1.69,0.36-2.54,0.31c-0.43-0.02-0.85-0.04-1.27-0.13c-0.42-0.06-0.84-0.17-1.25-0.3c-0.81-0.27-1.6-0.64-2.3-1.25
		l-0.67-0.59c-0.57-0.5-0.63-1.37-0.13-1.94C459.74,78.56,460.32,78.42,460.82,78.58z"/>
	<path class="st0" d="M473.02,45.12c0.64-0.63,1.18-1.01,1.84-1.4c0.64-0.37,1.33-0.68,2.05-0.92c1.45-0.46,3.09-0.61,4.7-0.33
		c1.61,0.26,3.2,0.94,4.4,1.98c0.66,0.47,1.11,1.09,1.6,1.67c0.44,0.61,0.77,1.27,1.06,1.94c0.44,1.03-0.04,2.22-1.07,2.66
		c-0.53,0.22-1.1,0.21-1.59,0l-0.51-0.22c-0.53-0.23-0.93-0.55-1.37-0.77c-0.44-0.21-0.83-0.47-1.23-0.61
		c-0.78-0.38-1.52-0.58-2.3-0.74c-0.78-0.15-1.62-0.2-2.54-0.16c-0.46,0.03-0.95,0.05-1.44,0.12c-0.48,0.03-1.05,0.17-1.46,0.16
		l-0.82-0.02c-1.08-0.02-1.94-0.92-1.92-2C472.44,45.95,472.67,45.46,473.02,45.12z"/>
	<path class="st0" d="M454.84,48.5c-0.4,0.01-0.98-0.13-1.46-0.16c-0.49-0.07-0.98-0.09-1.44-0.12c-0.93-0.05-1.77,0.01-2.54,0.16
		c-0.78,0.15-1.52,0.35-2.3,0.74c-0.41,0.14-0.8,0.4-1.23,0.61c-0.44,0.22-0.84,0.54-1.37,0.77l-0.51,0.22
		c-1.03,0.44-2.22-0.03-2.66-1.06c-0.23-0.53-0.21-1.1-0.01-1.6c0.28-0.67,0.62-1.33,1.06-1.94c0.49-0.58,0.95-1.2,1.6-1.67
		c1.2-1.04,2.79-1.72,4.4-1.98c1.62-0.27,3.25-0.13,4.7,0.33c0.72,0.24,1.41,0.54,2.05,0.92c0.66,0.39,1.19,0.78,1.84,1.4
		c0.78,0.75,0.79,1.99,0.04,2.77c-0.37,0.38-0.86,0.58-1.36,0.59L454.84,48.5z"/>
	<path class="st0" d="M457.02,63.1c-1.38,0-2.5-1.12-2.5-2.5c0-1.38-1.12-2.5-2.5-2.5s-2.5,1.12-2.5,2.5c0,1.38-1.12,2.5-2.5,2.5
		s-2.5-1.12-2.5-2.5c0-4.14,3.36-7.5,7.5-7.5s7.5,3.36,7.5,7.5C459.52,61.98,458.4,63.1,457.02,63.1z"/>
	<path class="st0" d="M482.98,63.1c-1.38,0-2.5-1.12-2.5-2.5c0-1.38-1.12-2.5-2.5-2.5s-2.5,1.12-2.5,2.5c0,1.38-1.12,2.5-2.5,2.5
		s-2.5-1.12-2.5-2.5c0-4.14,3.36-7.5,7.5-7.5s7.5,3.36,7.5,7.5C485.48,61.98,484.36,63.1,482.98,63.1z"/>
	<path class="st2" d="M528,139c-6.47,0-12.6-2.18-17.57-6.19l-2.94,2.94c-0.57,0.57-1.34,0.88-2.12,0.88
		c-0.34,0-0.69-0.06-1.02-0.18c-1.09-0.4-1.86-1.39-1.97-2.55l-1.41-15.56c-0.08-0.89,0.24-1.76,0.87-2.39
		c0.56-0.57,1.33-0.88,2.12-0.88c0.09,0,0.18,0,0.27,0.01l15.56,1.41c1.16,0.11,2.15,0.87,2.55,1.97c0.4,1.09,0.12,2.32-0.7,3.14
		l-2.63,2.63c2.63,1.8,5.74,2.76,9,2.76c4.27,0,8.29-1.67,11.31-4.69c1.76-1.76,3.06-3.87,3.85-6.26c0.41-1.23,1.55-2.05,2.85-2.05
		h6.26c0.92,0,1.79,0.42,2.36,1.15s0.77,1.67,0.55,2.57c-1.22,4.94-3.77,9.47-7.39,13.08C542.51,136.09,535.48,139,528,139z"/>
	<path class="st0" d="M552.27,117L552.27,117 M552.27,117c-1.05,4.28-3.25,8.33-6.59,11.68C540.8,133.56,534.4,136,528,136
		s-12.8-2.44-17.68-7.32l-4.95,4.95l-1.41-15.56l15.56,1.41l-4.95,4.95c3.71,3.71,8.57,5.57,13.44,5.57c4.86,0,9.73-1.85,13.43-5.57
		c2.16-2.16,3.67-4.72,4.58-7.43L552.27,117 M552.28,111L552.28,111C552.27,111,552.27,111,552.28,111l-6.27,0
		c-2.58,0-4.88,1.66-5.69,4.11c-0.65,1.95-1.7,3.66-3.12,5.08c-2.46,2.46-5.72,3.81-9.19,3.81c-1.36,0-2.68-0.21-3.94-0.6
		c1.4-1.63,1.83-3.91,1.09-5.95c-0.79-2.19-2.78-3.72-5.1-3.93l-15.56-1.41c-0.18-0.02-0.36-0.02-0.54-0.02
		c-1.58,0-3.11,0.63-4.24,1.76c-1.26,1.26-1.89,3.01-1.73,4.79l1.41,15.56c0.21,2.32,1.74,4.31,3.93,5.1
		c0.67,0.24,1.36,0.36,2.04,0.36c1.56,0,3.1-0.61,4.24-1.76l1.11-1.11c5.07,3.41,11.03,5.24,17.27,5.24
		c8.28,0,16.07-3.22,21.92-9.08c3.95-3.95,6.75-8.87,8.12-14.26c0.15-0.53,0.23-1.09,0.23-1.66C558.27,113.69,555.59,111,552.28,111
		L552.28,111z M552.27,123L552.27,123L552.27,123L552.27,123z"/>
	<path class="st2" d="M503.73,108c-0.92,0-1.79-0.42-2.36-1.15c-0.57-0.73-0.77-1.67-0.55-2.57c1.22-4.94,3.77-9.47,7.39-13.08
		c5.29-5.29,12.32-8.2,19.8-8.2c6.47,0,12.6,2.18,17.57,6.19l2.94-2.94c0.57-0.57,1.34-0.88,2.12-0.88c0.34,0,0.69,0.06,1.02,0.18
		c1.09,0.4,1.86,1.39,1.97,2.55l1.41,15.56c0.08,0.89-0.24,1.76-0.87,2.39c-0.56,0.57-1.33,0.88-2.12,0.88c-0.09,0-0.18,0-0.27-0.01
		l-15.56-1.41c-1.16-0.11-2.15-0.87-2.55-1.97c-0.4-1.09-0.12-2.32,0.7-3.14l2.63-2.63c-2.63-1.8-5.74-2.76-9-2.76
		c-4.27,0-8.29,1.66-11.31,4.69c-1.76,1.76-3.06,3.87-3.85,6.26c-0.41,1.23-1.55,2.05-2.85,2.05H503.73z"/>
	<path class="st0" d="M528,86c6.4,0,12.8,2.44,17.68,7.32l4.95-4.95l1.41,15.56l-15.56-1.41l4.95-4.95
		C537.73,93.85,532.86,92,528,92s-9.73,1.85-13.44,5.57c-2.16,2.16-3.67,4.72-4.58,7.43h-6.26c1.05-4.28,3.25-8.33,6.59-11.68
		C515.2,88.44,521.6,86,528,86 M528,80c-8.28,0-16.07,3.22-21.92,9.08c-4,4-6.83,9.01-8.18,14.49c-0.44,1.79-0.03,3.68,1.1,5.14
		s2.88,2.3,4.72,2.3h6.26c2.58,0,4.88-1.66,5.69-4.11c0.65-1.95,1.7-3.66,3.12-5.08c2.46-2.46,5.72-3.81,9.19-3.81
		c1.36,0,2.68,0.21,3.94,0.6c-1.4,1.63-1.83,3.91-1.09,5.95c0.79,2.19,2.78,3.72,5.1,3.93l15.56,1.41c0.18,0.02,0.36,0.02,0.54,0.02
		c1.58,0,3.11-0.63,4.24-1.76c1.26-1.26,1.89-3.01,1.73-4.79l-1.41-15.56c-0.21-2.32-1.74-4.31-3.93-5.1
		c-0.67-0.24-1.36-0.36-2.04-0.36c-1.56,0-3.1,0.61-4.24,1.76l-1.11,1.11C540.2,81.83,534.24,80,528,80L528,80z"/>
	<path class="st7" d="M113,222c-4.96,0-9-4.04-9-9v-88c0-4.96,4.04-9,9-9h138c4.96,0,9,4.04,9,9v88c0,4.96-4.04,9-9,9H113z"/>
	<path class="st0" d="M251,119c3.31,0,6,2.69,6,6v88c0,3.31-2.69,6-6,6H113c-3.31,0-6-2.69-6-6v-88c0-3.31,2.69-6,6-6H251 M251,113
		H113c-6.62,0-12,5.38-12,12v88c0,6.62,5.38,12,12,12h138c6.62,0,12-5.38,12-12v-88C263,118.38,257.62,113,251,113L251,113z"/>
	<path class="st8" d="M175.67,191.48L107,119l0,16.28l60.29,64.31c3.95,4.21,10.64,4.21,14.59,0l5.7-6.08
		C183.72,195.51,178.82,194.84,175.67,191.48z"/>
	<path class="st0" d="M182,197.38c-3.58,0-7.04-1.5-9.48-4.11l-67.7-72.22c-1.13-1.21-1.07-3.11,0.14-4.24
		c1.21-1.13,3.11-1.07,4.24,0.14l67.7,72.22c1.34,1.43,3.15,2.21,5.11,2.21s3.77-0.79,5.11-2.21l67.7-72.22
		c1.13-1.21,3.03-1.27,4.24-0.14c1.21,1.13,1.27,3.03,0.14,4.24l-67.7,72.22C189.04,195.88,185.58,197.38,182,197.38z"/>
	<path class="st0" d="M257,222c-0.82,0-1.64-0.33-2.23-0.99l-45-50c-1.11-1.23-1.01-3.13,0.22-4.24c1.23-1.11,3.13-1.01,4.24,0.22
		l45,50c1.11,1.23,1.01,3.13-0.22,4.24C258.43,221.75,257.72,222,257,222z"/>
	<path class="st0" d="M107,222c-0.71,0-1.43-0.25-2.01-0.77c-1.23-1.11-1.33-3-0.22-4.24l45-50c1.11-1.23,3.01-1.33,4.24-0.22
		c1.23,1.11,1.33,3,0.22,4.24l-45,50C108.64,221.67,107.82,222,107,222z"/>
	<path class="st0" d="M98,248c-0.2,0-0.39-0.02-0.59-0.06c-1.62-0.32-2.68-1.91-2.35-3.53l4-20c0.32-1.63,1.91-2.68,3.53-2.35
		c1.62,0.32,2.68,1.91,2.35,3.53l-4,20C100.66,247.01,99.4,248,98,248z"/>
	<path class="st0" d="M94,204c-1.37,0-2.6-0.94-2.92-2.33l-3-13c-0.37-1.61,0.63-3.23,2.25-3.6c1.62-0.37,3.23,0.63,3.6,2.25l3,13
		c0.37,1.61-0.63,3.23-2.25,3.6C94.45,203.98,94.22,204,94,204z"/>
	<path class="st9" d="M102,228c-1.42,0-2.65-1-2.94-2.39l-5-24c-0.18-0.88,0.04-1.8,0.61-2.5c0.57-0.7,1.42-1.11,2.33-1.11h42
		c0.9,0,1.76,0.41,2.33,1.11c0.57,0.7,0.79,1.62,0.61,2.5l-5,24C136.65,227,135.42,228,134,228H102z"/>
	<path class="st0" d="M139,201L139,201 M139,201l-5,24h-32l-5-24H139 M139.01,195L139.01,195H97c-1.81,0-3.52,0.81-4.66,2.21
		c-1.14,1.4-1.59,3.24-1.22,5.01l5,24c0.58,2.78,3.03,4.78,5.87,4.78h32c2.84,0,5.29-1.99,5.87-4.78l4.96-23.79
		c0.11-0.46,0.17-0.94,0.17-1.43C145,197.69,142.32,195,139.01,195L139.01,195z M139,207L139,207L139,207L139,207z"/>
	<path class="st0" d="M130,248H98c-1.66,0-3-1.34-3-3s1.34-3,3-3h32c1.66,0,3,1.34,3,3S131.66,248,130,248z"/>
	<rect x="93" y="195" class="st0" width="32" height="6"/>
	<circle class="st10" cx="98" cy="245" r="7"/>
	<path class="st0" d="M98,241c2.21,0,4,1.79,4,4s-1.79,4-4,4s-4-1.79-4-4S95.79,241,98,241 M98,235c-5.51,0-10,4.49-10,10
		s4.49,10,10,10s10-4.49,10-10S103.51,235,98,235L98,235z"/>
	<circle class="st10" cx="130" cy="245" r="7"/>
	<path class="st0" d="M130,241c2.21,0,4,1.79,4,4s-1.79,4-4,4s-4-1.79-4-4S127.79,241,130,241 M130,235c-5.51,0-10,4.49-10,10
		s4.49,10,10,10s10-4.49,10-10S135.51,235,130,235L130,235z"/>
	<path class="st0" d="M91,191h-9c-1.66,0-3-1.34-3-3s1.34-3,3-3h9c1.66,0,3,1.34,3,3S92.66,191,91,191z"/>
	<path class="st0" d="M118,227c-1.1,0-2-0.9-2-2v-24c0-1.1,0.9-2,2-2s2,0.9,2,2v24C120,226.1,119.1,227,118,227z"/>
	<path class="st0" d="M138,210H98c-1.1,0-2-0.9-2-2s0.9-2,2-2h40c1.1,0,2,0.9,2,2S139.1,210,138,210z"/>
	<path class="st0" d="M138,220H98c-1.1,0-2-0.9-2-2s0.9-2,2-2h40c1.1,0,2,0.9,2,2S139.1,220,138,220z"/>
	<path class="st0" d="M109,227c-0.99,0-1.86-0.74-1.98-1.75l-3-24c-0.14-1.1,0.64-2.1,1.74-2.23c1.09-0.14,2.1,0.64,2.23,1.74l3,24
		c0.14,1.1-0.64,2.1-1.74,2.23C109.16,227,109.08,227,109,227z"/>
	<path class="st0" d="M127,227c-0.08,0-0.17,0-0.25-0.02c-1.1-0.14-1.87-1.14-1.74-2.23l3-24c0.14-1.1,1.14-1.88,2.23-1.74
		c1.1,0.14,1.87,1.14,1.74,2.23l-3,24C128.86,226.26,128,227,127,227z"/>
	<path class="st0" d="M182.36,164.47c-5.29,0-10.71-1.42-15.4-4.27c-0.94-0.57-1.25-1.8-0.67-2.75c0.57-0.94,1.8-1.24,2.75-0.67
		c8,4.86,18.86,4.87,25.82,0.03c0.91-0.63,2.15-0.41,2.78,0.5c0.63,0.91,0.41,2.15-0.5,2.78
		C192.95,163.01,187.72,164.47,182.36,164.47z"/>
	<path class="st0" d="M177.82,167.58c1.35,0.43,2.77,0.57,4.18,0.62c0.71,0.03,1.41-0.07,2.11-0.15c0.7-0.09,1.39-0.24,2.05-0.47
		c0.69-0.24,1.45,0.13,1.68,0.82c0.17,0.48,0.04,1-0.29,1.34l-0.72,0.76c-0.67,0.71-1.48,1.09-2.3,1.37
		c-0.83,0.24-1.69,0.36-2.54,0.31c-0.43-0.02-0.85-0.04-1.27-0.13c-0.42-0.06-0.84-0.17-1.25-0.3c-0.81-0.27-1.6-0.64-2.3-1.25
		l-0.67-0.59c-0.57-0.5-0.63-1.37-0.13-1.94C176.74,167.56,177.32,167.42,177.82,167.58z"/>
	<path class="st0" d="M199.5,153.55c-0.32,0-0.64-0.08-0.94-0.24c-1.89-1.02-5.22-1.02-7.11,0c-0.97,0.52-2.19,0.16-2.71-0.82
		c-0.52-0.97-0.16-2.19,0.82-2.71c3.05-1.64,7.84-1.64,10.89,0c0.97,0.52,1.34,1.73,0.82,2.71
		C200.9,153.17,200.21,153.55,199.5,153.55z"/>
	<circle class="st0" cx="195" cy="144.8" r="7"/>
	<circle class="st5" cx="196.75" cy="144.8" r="1.75"/>
	<path class="st0" d="M191.82,131.03c0.73-0.37,1.3-0.57,1.98-0.74c0.66-0.16,1.33-0.26,2.03-0.29c1.38-0.05,2.83,0.17,4.22,0.73
		c1.39,0.53,2.7,1.48,3.64,2.67c0.99,1.16,1.52,2.58,1.7,3.96c0.15,1.12-0.63,2.15-1.75,2.3c-0.57,0.08-1.11-0.09-1.53-0.41
		l-0.39-0.3c-0.81-0.63-1.37-1.22-2.03-1.61c-0.62-0.42-1.21-0.77-1.92-1.06c-0.69-0.29-1.47-0.54-2.33-0.75
		c-0.43-0.1-0.88-0.22-1.34-0.3c-0.44-0.11-0.99-0.17-1.36-0.31l-0.73-0.28c-1.02-0.39-1.54-1.53-1.15-2.55
		C191.05,131.62,191.4,131.25,191.82,131.03z"/>
	<path class="st0" d="M173.5,153.55c-0.32,0-0.64-0.08-0.94-0.24c-1.89-1.02-5.22-1.02-7.11,0c-0.97,0.52-2.19,0.16-2.71-0.82
		c-0.52-0.97-0.16-2.19,0.82-2.71c3.05-1.64,7.84-1.64,10.89,0c0.97,0.52,1.34,1.73,0.82,2.71
		C174.9,153.17,174.21,153.55,173.5,153.55z"/>
	<circle class="st0" cx="169" cy="144.8" r="7"/>
	<circle class="st5" cx="170.75" cy="144.8" r="1.75"/>
	<path class="st0" d="M171.25,134.92c-0.37,0.14-0.92,0.2-1.36,0.31c-0.46,0.08-0.91,0.19-1.34,0.3c-0.86,0.21-1.63,0.46-2.33,0.75
		c-0.7,0.28-1.29,0.64-1.92,1.06c-0.66,0.39-1.22,0.98-2.03,1.61l-0.38,0.3c-0.89,0.69-2.18,0.53-2.87-0.36
		c-0.35-0.45-0.48-1.01-0.41-1.53c0.19-1.37,0.71-2.79,1.7-3.96c0.94-1.18,2.25-2.14,3.64-2.67c1.39-0.56,2.84-0.78,4.22-0.73
		c0.69,0.03,1.37,0.13,2.03,0.29c0.68,0.17,1.25,0.37,1.98,0.74c0.97,0.49,1.37,1.68,0.87,2.65c-0.23,0.46-0.62,0.79-1.06,0.96
		L171.25,134.92z"/>
	<path class="st7" d="M958.46,154c-4.96,0-9-4.04-9-9V57c0-4.96,4.04-9,9-9h138c4.96,0,9,4.04,9,9v88c0,4.96-4.04,9-9,9H958.46z"/>
	<path class="st0" d="M1096.46,51c3.31,0,6,2.69,6,6v88c0,3.31-2.69,6-6,6h-138c-3.31,0-6-2.69-6-6V57c0-3.31,2.69-6,6-6H1096.46
		 M1096.46,45h-138c-6.62,0-12,5.38-12,12v88c0,6.62,5.38,12,12,12h138c6.62,0,12-5.38,12-12V57
		C1108.46,50.38,1103.08,45,1096.46,45L1096.46,45z"/>
	<path class="st8" d="M1021.13,123.48L952.46,51l0,16.28l60.29,64.31c3.95,4.21,10.64,4.21,14.59,0l5.7-6.08
		C1029.18,127.51,1024.29,126.84,1021.13,123.48z"/>
	<path class="st0" d="M1027.46,129.38c-3.58,0-7.04-1.5-9.48-4.11l-67.71-72.22c-1.13-1.21-1.07-3.11,0.14-4.24
		c1.21-1.13,3.11-1.07,4.24,0.14l67.71,72.22c1.34,1.43,3.15,2.21,5.11,2.21s3.77-0.79,5.11-2.21l67.71-72.22
		c1.13-1.21,3.03-1.27,4.24-0.14c1.21,1.13,1.27,3.03,0.14,4.24l-67.71,72.22C1034.5,127.88,1031.04,129.38,1027.46,129.38z"/>
	<path class="st0" d="M1102.46,154c-0.82,0-1.64-0.33-2.23-0.99l-45-50c-1.11-1.23-1.01-3.13,0.22-4.24
		c1.23-1.11,3.13-1.01,4.24,0.22l45,50c1.11,1.23,1.01,3.13-0.22,4.24C1103.9,153.75,1103.18,154,1102.46,154z"/>
	<path class="st0" d="M952.46,154c-0.71,0-1.43-0.25-2.01-0.77c-1.23-1.11-1.33-3-0.22-4.24l45-50c1.11-1.23,3-1.33,4.24-0.22
		c1.23,1.11,1.33,3,0.22,4.24l-45,50C954.1,153.67,953.28,154,952.46,154z"/>
	<path class="st0" d="M1027.46,105.81c-7.72,0-14-6.28-14-14c0-1.1,0.9-2,2-2h24c1.1,0,2,0.9,2,2
		C1041.46,99.53,1035.18,105.81,1027.46,105.81z"/>
	<path class="st0" d="M1039.46,91.81L1039.46,91.81 M1039.46,91.81c0,6.63-5.37,12-12,12s-12-5.37-12-12H1039.46 M1039.47,87.81
		L1039.47,87.81h-24.01c-2.21,0-4,1.79-4,4c0,8.82,7.18,16,16,16c8.77,0,15.91-7.09,16-15.84c0-0.05,0-0.11,0-0.16
		C1043.47,89.6,1041.68,87.81,1039.47,87.81L1039.47,87.81z M1039.46,95.81L1039.46,95.81L1039.46,95.81L1039.46,95.81z"/>
	<ellipse class="st6" cx="1027.46" cy="99.81" rx="8.93" ry="4"/>
	<path class="st0" d="M1035.48,67.12c0.64-0.63,1.18-1.01,1.84-1.4c0.64-0.37,1.33-0.68,2.05-0.92c1.45-0.46,3.09-0.61,4.7-0.33
		c1.61,0.26,3.2,0.94,4.4,1.98c0.66,0.47,1.11,1.09,1.6,1.67c0.44,0.61,0.77,1.27,1.06,1.94c0.44,1.03-0.04,2.22-1.07,2.66
		c-0.53,0.22-1.1,0.21-1.59,0l-0.51-0.22c-0.53-0.23-0.93-0.55-1.37-0.77c-0.44-0.21-0.83-0.47-1.23-0.61
		c-0.78-0.38-1.52-0.58-2.3-0.74c-0.78-0.15-1.62-0.2-2.54-0.16c-0.46,0.03-0.95,0.05-1.44,0.12c-0.48,0.03-1.05,0.17-1.45,0.16
		l-0.82-0.02c-1.08-0.02-1.94-0.92-1.92-2C1034.9,67.95,1035.13,67.46,1035.48,67.12z"/>
	<path class="st0" d="M1017.3,70.5c-0.4,0.01-0.97-0.13-1.45-0.16c-0.49-0.07-0.98-0.09-1.44-0.12c-0.93-0.05-1.77,0.01-2.54,0.16
		c-0.78,0.15-1.52,0.35-2.3,0.74c-0.41,0.14-0.8,0.4-1.23,0.61c-0.44,0.22-0.84,0.54-1.37,0.77l-0.51,0.22
		c-1.03,0.44-2.22-0.03-2.66-1.06c-0.23-0.53-0.21-1.1-0.01-1.6c0.28-0.67,0.62-1.33,1.06-1.94c0.49-0.58,0.95-1.2,1.6-1.67
		c1.2-1.04,2.79-1.72,4.4-1.98c1.62-0.27,3.25-0.13,4.7,0.33c0.72,0.24,1.41,0.54,2.05,0.92c0.66,0.39,1.19,0.78,1.84,1.4
		c0.78,0.75,0.79,1.99,0.04,2.77c-0.37,0.38-0.86,0.58-1.36,0.59L1017.3,70.5z"/>
	<path class="st0" d="M1019.49,85.1c-1.38,0-2.5-1.12-2.5-2.5c0-1.38-1.12-2.5-2.5-2.5s-2.5,1.12-2.5,2.5c0,1.38-1.12,2.5-2.5,2.5
		s-2.5-1.12-2.5-2.5c0-4.14,3.36-7.5,7.5-7.5s7.5,3.36,7.5,7.5C1021.99,83.98,1020.87,85.1,1019.49,85.1z"/>
	<path class="st0" d="M1045.44,85.1c-1.38,0-2.5-1.12-2.5-2.5c0-1.38-1.12-2.5-2.5-2.5s-2.5,1.12-2.5,2.5c0,1.38-1.12,2.5-2.5,2.5
		s-2.5-1.12-2.5-2.5c0-4.14,3.36-7.5,7.5-7.5s7.5,3.36,7.5,7.5C1047.94,83.98,1046.82,85.1,1045.44,85.1z"/>
	<path class="st3" d="M1085.57,132.99l-0.11-1.89c-0.04-0.76-0.92-18.84,10.53-28.81l2.8,2.84c-0.06,0.07-6.56,7.76-5.34,25.73
		l0.15,2.14H1085.57z"/>
	<path class="st11" d="M1097.31,103.8c0,0-7.15,8-5.84,27.19h-4C1087.46,130.99,1086.46,113.24,1097.31,103.8 M1094.68,100.78
		c-12.18,10.61-11.26,29.63-11.21,30.44l0.21,3.78h3.78h4h4.28l-0.29-4.27c-1.15-16.96,4.81-24.23,4.87-24.3l-0.04,0.04
		L1094.68,100.78L1094.68,100.78z"/>
	<path class="st12" d="M1106.5,106.77c-5.03,0-9.24-2.21-9.42-2.3l-0.71-0.38l-0.25-0.77c-0.12-0.37-2.9-9.18,1.87-15.74
		c3.17-4.37,8.79-6.58,16.7-6.58c2.02,0,4.23,0.15,6.57,0.44l1.84,0.23l-0.09,1.86C1122.56,92.21,1119.83,106.77,1106.5,106.77
		C1106.5,106.77,1106.5,106.77,1106.5,106.77z"/>
	<path class="st11" d="M1114.68,83c1.9,0,4,0.13,6.32,0.42c-0.89,17.6-8.33,21.35-14.5,21.35c-4.59,0-8.48-2.07-8.48-2.07
		S1091.62,83,1114.68,83 M1114.68,79c-8.58,0-14.74,2.49-18.31,7.4c-5.36,7.38-2.29,17.13-2.16,17.54l0.5,1.54l1.43,0.76
		c0.49,0.26,4.93,2.53,10.35,2.53c6.44,0,17.4-3.27,18.5-25.15l0.19-3.71l-3.69-0.46C1119.08,79.15,1116.79,79,1114.68,79
		L1114.68,79z"/>
	<line class="st4" x1="1116.4" y1="87.28" x2="1098.02" y2="102.71"/>
	<path class="st11" d="M1098.02,104.21c-0.43,0-0.85-0.18-1.15-0.54c-0.53-0.63-0.45-1.58,0.19-2.11l18.38-15.43
		c0.63-0.53,1.58-0.45,2.11,0.19c0.53,0.63,0.45,1.58-0.19,2.11l-18.38,15.43C1098.7,104.09,1098.36,104.21,1098.02,104.21z"/>
	<line class="st4" x1="1101.82" y1="91.68" x2="1101.08" y2="100.14"/>
	<path class="st11" d="M1101.08,101.64c-0.04,0-0.09,0-0.13-0.01c-0.83-0.07-1.44-0.8-1.36-1.62l0.74-8.45
		c0.07-0.83,0.79-1.44,1.62-1.36c0.83,0.07,1.44,0.8,1.36,1.62l-0.74,8.45C1102.51,101.05,1101.85,101.64,1101.08,101.64z"/>
	<line class="st4" x1="1109.54" y1="100.88" x2="1101.08" y2="100.14"/>
	<path class="st11" d="M1109.54,102.38c-0.04,0-0.09,0-0.13-0.01l-8.45-0.74c-0.83-0.07-1.44-0.8-1.36-1.62s0.79-1.44,1.62-1.36
		l8.45,0.74c0.83,0.07,1.44,0.8,1.36,1.62C1110.96,101.79,1110.31,102.38,1109.54,102.38z"/>
	<line class="st4" x1="1107.95" y1="86.54" x2="1107.21" y2="94.99"/>
	<path class="st11" d="M1107.21,96.49c-0.04,0-0.09,0-0.13-0.01c-0.83-0.07-1.44-0.8-1.36-1.62l0.74-8.45
		c0.07-0.82,0.8-1.43,1.62-1.36c0.83,0.07,1.44,0.8,1.36,1.62l-0.74,8.45C1108.64,95.9,1107.98,96.49,1107.21,96.49z"/>
	<line class="st4" x1="1115.66" y1="95.73" x2="1107.21" y2="94.99"/>
	<path class="st11" d="M1115.67,97.23c-0.04,0-0.09,0-0.13-0.01l-8.45-0.74c-0.83-0.07-1.44-0.8-1.36-1.62
		c0.07-0.82,0.8-1.43,1.62-1.36l8.45,0.74c0.83,0.07,1.44,0.8,1.36,1.62C1117.09,96.64,1116.43,97.23,1115.67,97.23z"/>
	<path class="st13" d="M1078.27,159.99c-1.87,0-3.52-1.33-3.91-3.16l-3.61-16.84h37.42l-3.61,16.84c-0.39,1.83-2.04,3.16-3.91,3.16
		H1078.27z"/>
	<path class="st0" d="M1104.46,142.99l-2.83,13.21c-0.1,0.46-0.51,0.79-0.98,0.79h-22.38c-0.47,0-0.88-0.33-0.98-0.79l-2.83-13.21
		H1104.46 M1111.89,136.99h-7.42h-30h-7.42l1.56,7.26l2.83,13.21c0.69,3.21,3.57,5.53,6.84,5.53h22.38c3.28,0,6.16-2.33,6.84-5.53
		l2.83-13.21L1111.89,136.99L1111.89,136.99z"/>
	<polygon class="st14" points="1104.46,142.99 1074.46,142.99 1075.32,146.99 1103.61,146.99 	"/>
	<path class="st13" d="M1070.46,139.99c-1.66,0-3-1.34-3-3v-6c0-1.66,1.34-3,3-3h38c1.66,0,3,1.34,3,3v6c0,1.66-1.34,3-3,3H1070.46z
		"/>
	<path class="st0" d="M1108.46,130.99v6h-38v-6H1108.46 M1108.46,124.99h-38c-3.31,0-6,2.69-6,6v6c0,3.31,2.69,6,6,6h38
		c3.31,0,6-2.69,6-6v-6C1114.46,127.68,1111.78,124.99,1108.46,124.99L1108.46,124.99z"/>
	<path class="st7" d="M1186,233c-4.96,0-9-4.04-9-9v-88c0-4.96,4.04-9,9-9h138c4.96,0,9,4.04,9,9v88c0,4.96-4.04,9-9,9H1186z"/>
	<path class="st0" d="M1324,130c3.31,0,6,2.69,6,6v88c0,3.31-2.69,6-6,6h-138c-3.31,0-6-2.69-6-6v-88c0-3.31,2.69-6,6-6H1324
		 M1324,124h-138c-6.62,0-12,5.38-12,12v88c0,6.62,5.38,12,12,12h138c6.62,0,12-5.38,12-12v-88C1336,129.38,1330.62,124,1324,124
		L1324,124z"/>
	<path class="st8" d="M1248.67,202.48L1180,130v16.28l60.29,64.31c3.95,4.21,10.64,4.21,14.59,0l5.7-6.08
		C1256.72,206.51,1251.82,205.84,1248.67,202.48z"/>
	<path class="st0" d="M1255,208.38c-3.58,0-7.04-1.5-9.48-4.11l-67.71-72.22c-1.13-1.21-1.07-3.11,0.14-4.24
		c1.21-1.13,3.11-1.07,4.24,0.14l67.71,72.22c1.34,1.43,3.15,2.21,5.11,2.21s3.77-0.79,5.11-2.21l67.71-72.22
		c1.13-1.21,3.03-1.27,4.24-0.14c1.21,1.13,1.27,3.03,0.14,4.24l-67.71,72.22C1262.04,206.88,1258.58,208.38,1255,208.38z"/>
	<path class="st0" d="M1330,233c-0.82,0-1.64-0.33-2.23-0.99l-45-50c-1.11-1.23-1.01-3.13,0.22-4.24c1.23-1.11,3.13-1.01,4.24,0.22
		l45,50c1.11,1.23,1.01,3.13-0.22,4.24C1331.43,232.75,1330.72,233,1330,233z"/>
	<path class="st0" d="M1180,233c-0.71,0-1.43-0.25-2.01-0.77c-1.23-1.11-1.33-3-0.22-4.24l45-50c1.11-1.23,3-1.33,4.24-0.22
		c1.23,1.11,1.33,3,0.22,4.24l-45,50C1181.64,232.67,1180.82,233,1180,233z"/>
	<path class="st0" d="M1255.36,175.47c-5.29,0-10.71-1.42-15.4-4.27c-0.94-0.57-1.25-1.8-0.67-2.75c0.57-0.95,1.8-1.24,2.75-0.67
		c8,4.86,18.86,4.87,25.82,0.03c0.91-0.63,2.15-0.41,2.78,0.5c0.63,0.91,0.41,2.15-0.5,2.78
		C1265.95,174.01,1260.72,175.47,1255.36,175.47z"/>
	<path class="st0" d="M1250.82,178.58c1.35,0.43,2.77,0.57,4.18,0.62c0.71,0.03,1.41-0.07,2.11-0.15c0.7-0.09,1.39-0.24,2.05-0.47
		c0.69-0.24,1.45,0.13,1.68,0.82c0.17,0.48,0.04,1-0.29,1.34l-0.72,0.76c-0.67,0.71-1.48,1.09-2.3,1.37
		c-0.83,0.24-1.69,0.36-2.54,0.31c-0.43-0.02-0.85-0.04-1.27-0.13c-0.42-0.06-0.84-0.17-1.25-0.3c-0.81-0.27-1.6-0.64-2.3-1.25
		l-0.67-0.59c-0.57-0.5-0.63-1.37-0.13-1.94C1249.74,178.56,1250.32,178.42,1250.82,178.58z"/>
	<path class="st0" d="M1272.5,164.55c-0.32,0-0.64-0.08-0.94-0.24c-1.89-1.02-5.21-1.02-7.11,0c-0.98,0.52-2.19,0.16-2.71-0.82
		c-0.52-0.97-0.16-2.19,0.82-2.71c3.05-1.64,7.84-1.64,10.89,0c0.97,0.52,1.34,1.73,0.82,2.71
		C1273.9,164.17,1273.21,164.55,1272.5,164.55z"/>
	<circle class="st0" cx="1268" cy="155.8" r="7"/>
	<circle class="st5" cx="1269.75" cy="155.8" r="1.75"/>
	<path class="st0" d="M1264.82,139.03c0.73-0.37,1.3-0.57,1.98-0.74c0.66-0.16,1.33-0.26,2.03-0.29c1.38-0.05,2.83,0.17,4.22,0.73
		c1.39,0.53,2.7,1.48,3.64,2.67c0.99,1.16,1.52,2.58,1.7,3.96c0.15,1.12-0.63,2.15-1.75,2.3c-0.57,0.08-1.11-0.09-1.53-0.41
		l-0.39-0.3c-0.81-0.63-1.37-1.22-2.03-1.61c-0.62-0.42-1.21-0.77-1.92-1.06c-0.69-0.29-1.47-0.54-2.33-0.75
		c-0.43-0.1-0.88-0.22-1.34-0.3c-0.44-0.11-0.99-0.17-1.36-0.31l-0.73-0.28c-1.02-0.39-1.54-1.53-1.15-2.55
		C1264.05,139.62,1264.4,139.25,1264.82,139.03z"/>
	<path class="st0" d="M1246.5,164.55c-0.32,0-0.64-0.08-0.94-0.24c-1.89-1.02-5.21-1.02-7.11,0c-0.98,0.52-2.19,0.16-2.71-0.82
		c-0.52-0.97-0.16-2.19,0.82-2.71c3.05-1.64,7.84-1.64,10.89,0c0.97,0.52,1.34,1.73,0.82,2.71
		C1247.9,164.17,1247.21,164.55,1246.5,164.55z"/>
	<circle class="st0" cx="1242" cy="155.8" r="7"/>
	<circle class="st5" cx="1243.75" cy="155.8" r="1.75"/>
	<path class="st0" d="M1244.25,142.92c-0.37,0.14-0.92,0.2-1.36,0.31c-0.46,0.08-0.91,0.19-1.34,0.3c-0.86,0.21-1.63,0.46-2.33,0.75
		c-0.7,0.28-1.29,0.64-1.92,1.06c-0.66,0.39-1.22,0.98-2.03,1.61l-0.38,0.3c-0.89,0.69-2.18,0.53-2.87-0.36
		c-0.35-0.45-0.48-1.01-0.41-1.53c0.19-1.37,0.71-2.79,1.7-3.96c0.94-1.18,2.25-2.14,3.64-2.67c1.39-0.56,2.84-0.78,4.22-0.73
		c0.69,0.03,1.37,0.13,2.03,0.29c0.68,0.17,1.25,0.37,1.98,0.74c0.97,0.49,1.37,1.68,0.87,2.65c-0.23,0.46-0.62,0.79-1.06,0.96
		L1244.25,142.92z"/>
	<path class="st15" d="M1294,238.5c-1.38,0-2.5-1.12-2.5-2.5v-15c0-1.38,1.12-2.5,2.5-2.5h8.5V192c0-1.38,1.12-2.5,2.5-2.5h56
		c1.38,0,2.5,1.12,2.5,2.5v39c0,4.14-3.36,7.5-7.5,7.5H1294z"/>
	<path class="st0" d="M1361,192v39c0,2.76-2.24,5-5,5h-62v-15h11v-29H1361 M1361,187h-56c-2.76,0-5,2.24-5,5v24h-6
		c-2.76,0-5,2.24-5,5v15c0,2.76,2.24,5,5,5h62c5.51,0,10-4.49,10-10v-39C1366,189.24,1363.76,187,1361,187L1361,187z"/>
	<path class="st16" d="M1293.5,238.5c-4.96,0-9-4.04-9-9V204c0-1.38,1.12-2.5,2.5-2.5h13c1.38,0,2.5,1.12,2.5,2.5v25.5
		C1302.5,234.46,1298.46,238.5,1293.5,238.5z"/>
	<path class="st0" d="M1300,204v25.5c0,3.59-2.91,6.5-6.5,6.5s-6.5-2.91-6.5-6.5V204H1300 M1300,199h-13c-2.76,0-5,2.24-5,5v25.5
		c0,6.34,5.16,11.5,11.5,11.5s11.5-5.16,11.5-11.5V204C1305,201.24,1302.76,199,1300,199L1300,199z"/>
	<polyline class="st16" points="1293.5,230 1293.5,196 1302.5,196 1302.5,228 	"/>
	<path class="st0" d="M1293.5,232.5c-1.38,0-2.5-1.12-2.5-2.5v-34c0-1.38,1.12-2.5,2.5-2.5h9c1.38,0,2.5,1.12,2.5,2.5v32
		c0,1.38-1.12,2.5-2.5,2.5s-2.5-1.12-2.5-2.5v-29.5h-4V230C1296,231.38,1294.88,232.5,1293.5,232.5z"/>
	<rect x="1305" y="192" class="st17" width="56" height="4"/>
	<rect x="1325" y="198" class="st18" width="16" height="16"/>
	<path class="st0" d="M1339,200v12h-12v-12H1339 M1341,196h-16c-1.1,0-2,0.9-2,2v16c0,1.1,0.9,2,2,2h16c1.1,0,2-0.9,2-2v-16
		C1343,196.9,1342.1,196,1341,196L1341,196z"/>
	<path class="st18" d="M1313,238c-1.1,0-2-0.9-2-2v-6c0-1.1,0.9-2,2-2h40c1.1,0,2,0.9,2,2v6c0,1.1-0.9,2-2,2H1313z"/>
	<path class="st0" d="M1353,230v6h-40v-6H1353 M1353,226h-40c-2.21,0-4,1.79-4,4v6c0,2.21,1.79,4,4,4h40c2.21,0,4-1.79,4-4v-6
		C1357,227.79,1355.21,226,1353,226L1353,226z"/>
	<line class="st18" x1="1311" y1="198" x2="1317" y2="198"/>
	<path class="st0" d="M1317,200h-6c-1.1,0-2-0.9-2-2s0.9-2,2-2h6c1.1,0,2,0.9,2,2S1318.1,200,1317,200z"/>
	<line class="st18" x1="1311" y1="206" x2="1317" y2="206"/>
	<path class="st0" d="M1317,208h-6c-1.1,0-2-0.9-2-2s0.9-2,2-2h6c1.1,0,2,0.9,2,2S1318.1,208,1317,208z"/>
	<line class="st18" x1="1311" y1="214" x2="1317" y2="214"/>
	<path class="st0" d="M1317,216h-6c-1.1,0-2-0.9-2-2s0.9-2,2-2h6c1.1,0,2,0.9,2,2S1318.1,216,1317,216z"/>
	<line class="st18" x1="1349" y1="198" x2="1355" y2="198"/>
	<path class="st0" d="M1355,200h-6c-1.1,0-2-0.9-2-2s0.9-2,2-2h6c1.1,0,2,0.9,2,2S1356.1,200,1355,200z"/>
	<line class="st18" x1="1349" y1="206" x2="1355" y2="206"/>
	<path class="st0" d="M1355,208h-6c-1.1,0-2-0.9-2-2s0.9-2,2-2h6c1.1,0,2,0.9,2,2S1356.1,208,1355,208z"/>
	<line class="st18" x1="1349" y1="214" x2="1355" y2="214"/>
	<path class="st0" d="M1355,216h-6c-1.1,0-2-0.9-2-2s0.9-2,2-2h6c1.1,0,2,0.9,2,2S1356.1,216,1355,216z"/>
	<line class="st18" x1="1311" y1="221" x2="1355" y2="221"/>
	<path class="st0" d="M1355,223h-44c-1.1,0-2-0.9-2-2s0.9-2,2-2h44c1.1,0,2,0.9,2,2S1356.1,223,1355,223z"/>
	<path class="st7" d="M592,361c-4.96,0-9-4.04-9-9v-88c0-4.96,4.04-9,9-9h138c4.96,0,9,4.04,9,9v88c0,4.96-4.04,9-9,9H592z"/>
	<path class="st0" d="M730,258c3.31,0,6,2.69,6,6v88c0,3.31-2.69,6-6,6H592c-3.31,0-6-2.69-6-6v-88c0-3.31,2.69-6,6-6H730 M730,252
		H592c-6.62,0-12,5.38-12,12v88c0,6.62,5.38,12,12,12h138c6.62,0,12-5.38,12-12v-88C742,257.38,736.62,252,730,252L730,252z"/>
	<path class="st8" d="M654.67,330.48L586,258l0,16.28l60.29,64.31c3.95,4.21,10.64,4.21,14.59,0l5.7-6.08
		C662.72,334.51,657.82,333.84,654.67,330.48z"/>
	<path class="st0" d="M661,336.38c-3.58,0-7.04-1.5-9.48-4.11l-67.7-72.22c-1.13-1.21-1.07-3.11,0.14-4.24
		c1.21-1.13,3.11-1.07,4.24,0.14l67.7,72.22c1.34,1.43,3.15,2.21,5.11,2.21s3.77-0.79,5.11-2.21l67.7-72.22
		c1.13-1.21,3.03-1.27,4.24-0.14c1.21,1.13,1.27,3.03,0.14,4.24l-67.7,72.22C668.04,334.88,664.58,336.38,661,336.38z"/>
	<path class="st0" d="M736,361c-0.82,0-1.64-0.33-2.23-0.99l-45-50c-1.11-1.23-1.01-3.13,0.22-4.24c1.23-1.11,3.13-1.01,4.24,0.22
		l45,50c1.11,1.23,1.01,3.13-0.22,4.24C737.43,360.75,736.72,361,736,361z"/>
	<path class="st0" d="M586,361c-0.71,0-1.43-0.25-2.01-0.77c-1.23-1.11-1.33-3-0.22-4.24l45-50c1.11-1.23,3.01-1.33,4.24-0.22
		c1.23,1.11,1.33,3,0.22,4.24l-45,50C587.64,360.67,586.82,361,586,361z"/>
	<path class="st0" d="M669.02,273.12c0.64-0.63,1.18-1.01,1.84-1.4c0.64-0.37,1.33-0.68,2.05-0.92c1.45-0.46,3.09-0.61,4.7-0.33
		c1.61,0.26,3.2,0.94,4.4,1.98c0.66,0.47,1.11,1.09,1.6,1.67c0.44,0.61,0.77,1.27,1.06,1.94c0.44,1.03-0.04,2.22-1.07,2.66
		c-0.53,0.22-1.1,0.21-1.59,0l-0.51-0.22c-0.53-0.23-0.93-0.55-1.37-0.77c-0.44-0.21-0.83-0.47-1.23-0.61
		c-0.78-0.38-1.52-0.58-2.3-0.74c-0.78-0.15-1.62-0.2-2.54-0.16c-0.46,0.03-0.95,0.05-1.44,0.12c-0.48,0.03-1.05,0.17-1.46,0.16
		l-0.82-0.02c-1.08-0.02-1.94-0.92-1.92-2C668.44,273.95,668.67,273.46,669.02,273.12z"/>
	<path class="st0" d="M650.84,276.5c-0.4,0.01-0.98-0.13-1.46-0.16c-0.49-0.07-0.98-0.09-1.44-0.12c-0.93-0.05-1.77,0.01-2.54,0.16
		c-0.78,0.15-1.52,0.35-2.3,0.74c-0.41,0.14-0.8,0.4-1.23,0.61c-0.44,0.22-0.84,0.54-1.37,0.77l-0.51,0.22
		c-1.03,0.44-2.22-0.03-2.66-1.06c-0.23-0.53-0.21-1.1-0.01-1.6c0.28-0.67,0.62-1.33,1.06-1.94c0.49-0.58,0.95-1.2,1.6-1.67
		c1.2-1.04,2.79-1.72,4.4-1.98c1.62-0.27,3.25-0.13,4.7,0.33c0.72,0.24,1.41,0.54,2.05,0.92c0.66,0.39,1.19,0.78,1.84,1.4
		c0.78,0.75,0.79,1.99,0.04,2.77c-0.37,0.38-0.86,0.58-1.36,0.59L650.84,276.5z"/>
	<path class="st0" d="M653.02,291.1c-1.38,0-2.5-1.12-2.5-2.5c0-1.38-1.12-2.5-2.5-2.5s-2.5,1.12-2.5,2.5c0,1.38-1.12,2.5-2.5,2.5
		s-2.5-1.12-2.5-2.5c0-4.14,3.36-7.5,7.5-7.5s7.5,3.36,7.5,7.5C655.52,289.98,654.4,291.1,653.02,291.1z"/>
	<path class="st0" d="M678.98,291.1c-1.38,0-2.5-1.12-2.5-2.5c0-1.38-1.12-2.5-2.5-2.5s-2.5,1.12-2.5,2.5c0,1.38-1.12,2.5-2.5,2.5
		s-2.5-1.12-2.5-2.5c0-4.14,3.36-7.5,7.5-7.5s7.5,3.36,7.5,7.5C681.48,289.98,680.36,291.1,678.98,291.1z"/>
	<path class="st19" d="M708,375c-1.38,0-2.58-0.94-2.91-2.27l-4-16c-0.22-0.9-0.02-1.85,0.55-2.57c0.57-0.73,1.44-1.15,2.36-1.15h8
		c1.66,0,3,1.34,3,3v16c0,1.66-1.34,3-3,3H708z"/>
	<path class="st0" d="M712,356v16h-4l-4-16H712 M712,350h-8c-1.85,0-3.59,0.85-4.73,2.31c-1.14,1.46-1.54,3.36-1.09,5.15l4,16
		c0.67,2.67,3.07,4.54,5.82,4.54h4c3.31,0,6-2.69,6-6v-16C718,352.69,715.31,350,712,350L712,350z"/>
	<path class="st19" d="M692,351c-2.76,0-5-2.24-5-5v-8c0-2.76,2.24-5,5-5h6c2.76,0,5,2.24,5,5v8c0,2.76-2.24,5-5,5H692z"/>
	<path class="st0" d="M698,336c1.1,0,2,0.9,2,2v8c0,1.1-0.9,2-2,2h-6c-1.1,0-2-0.9-2-2v-8c0-1.1,0.9-2,2-2H698 M698,330h-6
		c-4.41,0-8,3.59-8,8v8c0,4.41,3.59,8,8,8h6c4.41,0,8-3.59,8-8v-8C706,333.59,702.41,330,698,330L698,330z"/>
	<path class="st19" d="M740,362c-0.86,0-1.7-0.37-2.28-1.05c-0.08-0.1-8.37-9.54-21.72-9.54c-1.66,0-3-1.34-3-3v-12.83
		c0-1.66,1.34-3,3-3c13.46,0,21.63-9.43,21.71-9.53c0.58-0.68,1.42-1.06,2.29-1.06c0.35,0,0.7,0.06,1.03,0.18
		c1.18,0.43,1.96,1.56,1.96,2.82v34c0,1.26-0.78,2.38-1.96,2.82C740.7,361.94,740.35,362,740,362z"/>
	<path class="st0" d="M740,325v34c0,0-9-10.58-24-10.58l0-12.83C731,335.58,740,325,740,325 M740,319c-1.72,0-3.39,0.74-4.55,2.09
		c-0.35,0.4-7.6,8.5-19.45,8.5c-1.59,0-3.12,0.63-4.24,1.76c-1.13,1.13-1.76,2.65-1.76,4.24l0,12.83c0,3.31,2.69,6,6,6
		c11.89,0,19.36,8.39,19.43,8.47c1.16,1.37,2.85,2.11,4.57,2.11c0.69,0,1.39-0.12,2.07-0.37c2.36-0.87,3.93-3.12,3.93-5.63v-34
		c0-2.52-1.57-4.76-3.93-5.63C741.39,319.12,740.69,319,740,319L740,319z"/>
	<path class="st20" d="M716,335.58v4c15,0,24-8.58,24-8.58v-6C740,325,731,335.58,716,335.58z"/>
	<path class="st19" d="M745,369c-3.31,0-6-2.69-6-6v-42c0-3.31,2.69-6,6-6s6,2.69,6,6v42C751,366.31,748.31,369,745,369z"/>
	<path class="st0" d="M745,318c1.66,0,3,1.34,3,3l0,42c0,1.66-1.34,3-3,3h0c-1.66,0-3-1.34-3-3l0-42C742,319.34,743.34,318,745,318
		 M745,312c-4.96,0-9,4.04-9,9l0,42c0,4.96,4.04,9,9,9c4.96,0,9-4.04,9-9l0-42C754,316.04,749.96,312,745,312L745,312z"/>
	<path class="st20" d="M745,318c-1.66,0-3,1.34-3,3v9c0-1.66,1.34-3,3-3c1.66,0,3,1.34,3,3v-9C748,319.34,746.66,318,745,318z"/>
	<path class="st19" d="M702,356c-2.76,0-5-2.24-5-5v-18c0-2.76,2.24-5,5-5h12c2.76,0,5,2.24,5,5v18c0,2.76-2.24,5-5,5H702z"/>
	<path class="st0" d="M714,331c1.1,0,2,0.9,2,2l0,18c0,1.1-0.9,2-2,2h-12c-1.1,0-2-0.9-2-2v-18c0-1.1,0.9-2,2-2H714 M714,325h-12
		c-4.41,0-8,3.59-8,8v18c0,4.41,3.59,8,8,8h12c4.41,0,8-3.59,8-8l0-18C722,328.59,718.41,325,714,325L714,325z"/>
	<path class="st20" d="M700,335h16v-2c0-1.1-0.9-2-2-2l-12,0c-1.1,0-2,0.9-2,2V335z"/>
	<path class="st0" d="M673.01,293.81H649c-2.21,0-4,1.79-4,4c0,8.82,7.18,16,16,16c8.77,0,15.91-7.09,16-15.84c0-0.05,0-0.11,0-0.16
		C677,295.6,675.21,293.81,673.01,293.81z"/>
	<ellipse class="st6" cx="661" cy="305.81" rx="8.93" ry="4"/>
</g>
</svg>
