<?xml version="1.0" encoding="utf-8"?>
<!-- Generator: Adobe Illustrator 25.4.1, SVG Export Plug-In . SVG Version: 6.00 Build 0)  -->
<svg version="1.1" id="hero-image-mobile" xmlns="http://www.w3.org/2000/svg" xmlns:xlink="http://www.w3.org/1999/xlink" x="0px"
	 y="0px" viewBox="0 0 400 400" style="enable-background:new 0 0 400 400;" xml:space="preserve">
<style type="text/css">
	.st0{fill:#FFD886;}
	.st1{fill:#515979;}
	.st2{fill:#FFE8B6;}
	.st3{fill:#F89D81;}
	.st4{fill:#FBC4B3;}
	.st5{fill:#FFC369;}
	.st6{fill:#75A5C3;}
	.st7{fill:#5F87A5;}
	.st8{fill:#FFFFFF;}
	.st9{fill:#667683;}
	.st10{fill:#EF7D7D;}
	.st11{fill:#FFE8A0;}
	.st12{fill:#7DDF96;}
	.st13{fill:#F3F9FE;}
	.st14{fill:#2196F3;}
	.st15{fill:#E06B52;}
	.st16{fill:#00C853;}
	.st17{fill:#E8F3FD;}
	.st18{fill:#FDE1D9;}
	.st19{fill:#CCCCCC;}
	.st20{fill:#979BAF;}
	.st21{fill:#D8EBFB;}
	.st22{fill:#A0D2FF;}
	.st23{fill:#9E8271;}
	.st24{fill:none;}
</style>
<g>
	<circle class="st0" cx="171" cy="10" r="3"/>
	<path class="st0" d="M202.5,130h-6v-6c0-1.66-1.34-3-3-3s-3,1.34-3,3v6h-6c-1.66,0-3,1.34-3,3s1.34,3,3,3h6v6c0,1.66,1.34,3,3,3
		s3-1.34,3-3v-6h6c1.66,0,3-1.34,3-3S204.16,130,202.5,130z"/>
	<path class="st0" d="M354,376h-6v-6c0-1.66-1.34-3-3-3s-3,1.34-3,3v6h-6c-1.66,0-3,1.34-3,3s1.34,3,3,3h6v6c0,1.66,1.34,3,3,3
		s3-1.34,3-3v-6h6c1.66,0,3-1.34,3-3S355.66,376,354,376z"/>
	<path class="st1" d="M325,301.5h-5c-0.83,0-1.5-0.67-1.5-1.5s0.67-1.5,1.5-1.5h5c0.83,0,1.5,0.67,1.5,1.5S325.83,301.5,325,301.5z
		 M311,301.5h-5c-0.83,0-1.5-0.67-1.5-1.5s0.67-1.5,1.5-1.5h5c0.83,0,1.5,0.67,1.5,1.5S311.83,301.5,311,301.5z M297,301.5h-5
		c-0.83,0-1.5-0.67-1.5-1.5s0.67-1.5,1.5-1.5h5c0.83,0,1.5,0.67,1.5,1.5S297.83,301.5,297,301.5z M333.17,298.47
		c-0.38,0-0.75-0.14-1.05-0.42c-0.59-0.58-0.61-1.53-0.03-2.12c0.99-1.02,1.72-2.28,2.1-3.64c0.22-0.8,1.05-1.27,1.85-1.04
		c0.8,0.22,1.27,1.05,1.04,1.85c-0.51,1.85-1.49,3.55-2.84,4.93C333.95,298.32,333.56,298.47,333.17,298.47z M336,285.21
		c-0.83,0-1.5-0.67-1.5-1.5v-5c0-0.83,0.67-1.5,1.5-1.5s1.5,0.67,1.5,1.5v5C337.5,284.54,336.83,285.21,336,285.21z M336,271.21
		c-0.83,0-1.5-0.67-1.5-1.5v-5c0-0.83,0.67-1.5,1.5-1.5s1.5,0.67,1.5,1.5v5C337.5,270.54,336.83,271.21,336,271.21z M336,257.21
		c-0.83,0-1.5-0.67-1.5-1.5v-5c0-0.83,0.67-1.5,1.5-1.5s1.5,0.67,1.5,1.5v5C337.5,256.54,336.83,257.21,336,257.21z M336,243.21
		c-0.83,0-1.5-0.67-1.5-1.5v-5c0-0.83,0.67-1.5,1.5-1.5s1.5,0.67,1.5,1.5v5C337.5,242.54,336.83,243.21,336,243.21z"/>
	<circle class="st0" cx="24" cy="189" r="4"/>
	<circle class="st0" cx="57.5" cy="218.5" r="2.5"/>
	<path class="st0" d="M79.2,160.2c-2.98,0-5.4-2.42-5.4-5.4c0-0.99-0.81-1.8-1.8-1.8c-0.99,0-1.8,0.81-1.8,1.8
		c0,2.98-2.42,5.4-5.4,5.4c-0.99,0-1.8,0.81-1.8,1.8s0.81,1.8,1.8,1.8c2.98,0,5.4,2.42,5.4,5.4c0,0.99,0.81,1.8,1.8,1.8
		c0.99,0,1.8-0.81,1.8-1.8c0-2.98,2.42-5.4,5.4-5.4c0.99,0,1.8-0.81,1.8-1.8S80.19,160.2,79.2,160.2z"/>
	<circle class="st0" cx="81" cy="388" r="4"/>
	<path class="st0" d="M34.2,382.2c-2.98,0-5.4-2.42-5.4-5.4c0-0.99-0.81-1.8-1.8-1.8s-1.8,0.81-1.8,1.8c0,2.98-2.42,5.4-5.4,5.4
		c-0.99,0-1.8,0.81-1.8,1.8s0.81,1.8,1.8,1.8c2.98,0,5.4,2.42,5.4,5.4c0,0.99,0.81,1.8,1.8,1.8s1.8-0.81,1.8-1.8
		c0-2.98,2.42-5.4,5.4-5.4c0.99,0,1.8-0.81,1.8-1.8S35.19,382.2,34.2,382.2z"/>
	<circle class="st0" cx="332" cy="327" r="4.5"/>
	<circle class="st0" cx="196.5" cy="35.5" r="4.5"/>
	<circle class="st0" cx="15.5" cy="17.5" r="4.5"/>
	<circle class="st0" cx="15" cy="350" r="3"/>
	<path class="st0" d="M147.6,41.4c2.65,0,4.8-2.15,4.8-4.8c0-0.88,0.72-1.6,1.6-1.6s1.6,0.72,1.6,1.6c0,2.65,2.15,4.8,4.8,4.8
		c0.88,0,1.6,0.72,1.6,1.6s-0.72,1.6-1.6,1.6c-2.65,0-4.8,2.15-4.8,4.8c0,0.88-0.72,1.6-1.6,1.6s-1.6-0.72-1.6-1.6
		c0-2.65-2.15-4.8-4.8-4.8c-0.88,0-1.6-0.72-1.6-1.6S146.72,41.4,147.6,41.4z"/>
	<path class="st0" d="M390.6,313.6c-2.32,0-4.2-1.88-4.2-4.2c0-0.77-0.63-1.4-1.4-1.4s-1.4,0.63-1.4,1.4c0,2.32-1.88,4.2-4.2,4.2
		c-0.77,0-1.4,0.63-1.4,1.4s0.63,1.4,1.4,1.4c2.32,0,4.2,1.88,4.2,4.2c0,0.77,0.63,1.4,1.4,1.4s1.4-0.63,1.4-1.4
		c0-2.32,1.88-4.2,4.2-4.2c0.77,0,1.4-0.63,1.4-1.4S391.37,313.6,390.6,313.6z"/>
	<path class="st0" d="M218.2,268.2c-2.98,0-5.4-2.42-5.4-5.4c0-0.99-0.81-1.8-1.8-1.8s-1.8,0.81-1.8,1.8c0,2.98-2.42,5.4-5.4,5.4
		c-0.99,0-1.8,0.81-1.8,1.8s0.81,1.8,1.8,1.8c2.98,0,5.4,2.42,5.4,5.4c0,0.99,0.81,1.8,1.8,1.8s1.8-0.81,1.8-1.8
		c0-2.98,2.42-5.4,5.4-5.4c0.99,0,1.8-0.81,1.8-1.8S219.19,268.2,218.2,268.2z"/>
	<path class="st0" d="M149.7,324.1c-0.61,0-1.23-0.19-1.75-0.56c-0.25-0.18-22.41-15.78-52.74-15.78c-7.71,0-15.39,1.01-22.82,3
		c-0.26,0.07-0.52,0.1-0.78,0.1c-1.32,0-2.54-0.88-2.9-2.22L58.36,270c-0.43-1.6,0.52-3.25,2.12-3.67
		c41.61-11.15,58.88-48.47,59.05-48.85c0.49-1.08,1.56-1.77,2.73-1.77c0.08,0,0.16,0,0.24,0.01c1.26,0.1,2.33,0.99,2.65,2.21
		l27.44,102.39c0.33,1.22-0.15,2.52-1.19,3.24C150.89,323.92,150.3,324.1,149.7,324.1z"/>
	<path class="st1" d="M122.27,218.71L149.7,321.1c0,0-22.73-16.34-54.49-16.34c-7.43,0-15.36,0.9-23.6,3.1l-10.35-38.64
		C104.73,257.57,122.27,218.71,122.27,218.71 M122.27,212.71c-2.34,0-4.49,1.37-5.46,3.53c-0.12,0.25-4.38,9.4-13.52,19.71
		c-12.19,13.75-26.85,23-43.58,27.48c-3.2,0.86-5.1,4.15-4.24,7.35l10.35,38.64c0.72,2.68,3.14,4.45,5.79,4.45
		c0.51,0,1.04-0.07,1.56-0.21c7.18-1.92,14.6-2.9,22.04-2.9c29.31,0,50.78,15.07,51,15.22c1.04,0.74,2.27,1.12,3.49,1.12
		c1.2,0,2.39-0.36,3.42-1.07c2.08-1.44,3.04-4.03,2.38-6.48l-27.43-102.39c-0.66-2.45-2.78-4.22-5.31-4.43
		C122.59,212.72,122.43,212.71,122.27,212.71L122.27,212.71z"/>
	<path class="st2" d="M61.26,269.22l1.55,5.8c43.47-11.65,61.01-50.51,61.01-50.51l-1.55-5.8
		C122.27,218.71,104.73,257.57,61.26,269.22z"/>
	<path class="st3" d="M153.12,328.25c-2.71,0-5.09-1.83-5.79-4.45l-28.47-106.25c-0.86-3.19,1.05-6.49,4.24-7.35
		c0.51-0.14,1.03-0.21,1.56-0.21c2.71,0,5.09,1.83,5.79,4.45l28.47,106.25c0.41,1.55,0.2,3.16-0.6,4.55c-0.8,1.39-2.1,2.38-3.64,2.8
		C154.16,328.18,153.64,328.25,153.12,328.25z"/>
	<path class="st1" d="M124.65,213c1.32,0,2.54,0.88,2.9,2.22l28.47,106.25c0.43,1.6-0.52,3.25-2.12,3.67
		c-0.26,0.07-0.52,0.1-0.78,0.1c-1.32,0-2.54-0.88-2.9-2.22l-28.47-106.25c-0.43-1.6,0.52-3.25,2.12-3.67
		C124.13,213.03,124.39,213,124.65,213 M124.65,207L124.65,207c-0.79,0-1.57,0.1-2.33,0.31c-4.79,1.28-7.65,6.23-6.36,11.02
		l28.47,106.25c1.05,3.93,4.63,6.67,8.69,6.67c0.79,0,1.57-0.1,2.33-0.31c4.79-1.28,7.65-6.23,6.36-11.02l-28.47-106.25
		C132.29,209.74,128.71,207,124.65,207L124.65,207z"/>
	<path class="st4" d="M123.87,213.1c-1.6,0.43-2.55,2.07-2.12,3.67l2.07,7.73c-0.43-1.6,0.52-3.25,2.12-3.67
		c1.6-0.43,3.25,0.52,3.67,2.12l-2.07-7.73C127.12,213.62,125.47,212.67,123.87,213.1z"/>
	<path class="st0" d="M22.28,323.93c-3.16,0-5.94-2.13-6.76-5.19l-8.28-30.91c-1-3.73,1.22-7.57,4.95-8.57l11.59-3.11
		c0.59-0.16,1.2-0.24,1.81-0.24c3.16,0,5.94,2.13,6.76,5.19l8.28,30.91c0.48,1.81,0.24,3.69-0.7,5.31
		c-0.94,1.62-2.44,2.78-4.25,3.26l-11.59,3.11C23.5,323.85,22.89,323.93,22.28,323.93L22.28,323.93z"/>
	<path class="st1" d="M25.59,278.92c1.77,0,3.38,1.18,3.86,2.97l8.28,30.91c0.57,2.13-0.69,4.33-2.83,4.9l-11.59,3.11
		c-0.35,0.09-0.7,0.14-1.04,0.14c-1.77,0-3.38-1.18-3.86-2.97l-8.28-30.91c-0.57-2.13,0.69-4.33,2.83-4.9l11.59-3.11
		C24.9,278.96,25.25,278.92,25.59,278.92 M25.59,272.92c-0.87,0-1.74,0.11-2.59,0.34l-11.59,3.11c-2.58,0.69-4.74,2.35-6.07,4.66
		c-1.34,2.31-1.69,5.01-1,7.59l8.28,30.91c1.17,4.36,5.14,7.41,9.66,7.41c0.87,0,1.74-0.11,2.59-0.34l11.59-3.11
		c2.58-0.69,4.74-2.35,6.07-4.66c1.34-2.31,1.69-5.01,1-7.59l-8.28-30.91C34.08,275.97,30.11,272.92,25.59,272.92L25.59,272.92z"/>
	<path class="st2" d="M10.65,288.99l19.32-5.18l-0.52-1.93c-0.57-2.13-2.77-3.4-4.9-2.83l-11.59,3.11c-2.13,0.57-3.4,2.77-2.83,4.9
		L10.65,288.99z"/>
	<path class="st0" d="M57.98,367.24c-2.03,0-3.84-1.21-4.62-3.09l-15.3-36.95l23.59-6.32l8.49,31.69c2.41,0.65,4.25,2.79,4.44,5.39
		c0.21,2.85-1.7,5.47-4.54,6.23l-10.76,2.88C58.85,367.18,58.42,367.24,57.98,367.24L57.98,367.24z"/>
	<path class="st1" d="M59.52,324.55l8.28,30.91c0.26-0.07,0.52-0.1,0.78-0.1c1.51,0,2.87,1.15,2.99,2.81
		c0.1,1.45-0.93,2.74-2.33,3.11l-10.76,2.88c-0.17,0.05-0.35,0.07-0.52,0.07c-0.79,0-1.53-0.47-1.85-1.24L42.12,329.2L59.52,324.55
		 M63.77,317.21l-5.8,1.55l-17.39,4.66l-6.61,1.77l2.62,6.32l13.99,33.79c1.24,3,4.14,4.94,7.39,4.94c0.7,0,1.4-0.09,2.07-0.27
		l10.76-2.88c4.23-1.13,7.07-5.06,6.76-9.34c-0.23-3.24-2.19-6-4.92-7.4L65.32,323L63.77,317.21L63.77,317.21z"/>
	<path class="st3" d="M35.68,327.59c-3.16,0-5.94-2.13-6.76-5.19l-11.91-44.43c-1-3.73,1.22-7.57,4.95-8.57l32.84-8.8
		c0.59-0.16,1.2-0.24,1.81-0.24c3.16,0,5.94,2.13,6.76,5.19l11.91,44.43c0.48,1.81,0.24,3.69-0.7,5.31
		c-0.94,1.62-2.44,2.78-4.25,3.26l-32.84,8.8C36.9,327.51,36.29,327.59,35.68,327.59L35.68,327.59z"/>
	<path class="st1" d="M56.62,263.36c1.77,0,3.38,1.18,3.86,2.97l11.91,44.43c0.57,2.13-0.69,4.33-2.83,4.9l-32.84,8.8
		c-0.35,0.09-0.7,0.14-1.04,0.14c-1.77,0-3.38-1.18-3.86-2.97L19.91,277.2c-0.57-2.13,0.69-4.33,2.83-4.9l32.84-8.8
		C55.93,263.4,56.28,263.36,56.62,263.36 M56.62,257.36c-0.87,0-1.74,0.11-2.59,0.34l-32.84,8.8c-2.58,0.69-4.74,2.35-6.07,4.66
		c-1.34,2.31-1.69,5.01-1,7.59l11.91,44.43c1.17,4.36,5.14,7.41,9.66,7.41c0.87,0,1.74-0.11,2.59-0.34l32.84-8.8
		c2.58-0.69,4.74-2.35,6.07-4.66c1.34-2.31,1.69-5.01,1-7.59l-11.91-44.43C65.11,260.4,61.14,257.36,56.62,257.36L56.62,257.36z"/>
	<path class="st4" d="M20.43,279.12L61,268.25l-0.52-1.93c-0.57-2.13-2.77-3.4-4.9-2.83l-32.84,8.8c-2.13,0.57-3.4,2.77-2.83,4.9
		L20.43,279.12z"/>
	<path class="st3" d="M68.42,337.59c-1.32,0-2.54-0.88-2.9-2.22l-3.11-11.59c-0.21-0.77-0.1-1.59,0.3-2.28s1.05-1.19,1.82-1.4
		l3.86-1.04c0.26-0.07,0.52-0.1,0.78-0.1c1.32,0,2.54,0.88,2.9,2.22l2.33,8.69c0.86,3.2-1.05,6.49-4.24,7.35l-0.97,0.26
		C68.94,337.56,68.68,337.59,68.42,337.59z"/>
	<path class="st1" d="M69.18,321.97l2.33,8.69c0.43,1.6-0.52,3.25-2.12,3.67l-0.97,0.26L65.32,323L69.18,321.97 M69.18,315.97
		c-0.52,0-1.04,0.07-1.55,0.2l-3.86,1.04c-3.2,0.86-5.1,4.15-4.24,7.35l3.11,11.59c0.41,1.54,1.42,2.85,2.8,3.64
		c0.92,0.53,1.96,0.8,3,0.8c0.52,0,1.04-0.07,1.55-0.2l0.97-0.26c4.79-1.28,7.65-6.23,6.36-11.02l-2.33-8.69
		c-0.41-1.54-1.42-2.85-2.8-3.64C71.26,316.24,70.23,315.97,69.18,315.97L69.18,315.97z"/>
	<polygon class="st5" points="42.14,329.21 44.45,334.8 61.08,330.35 59.52,324.55 	"/>
	<path class="st6" d="M238.9,352.63c-7.21,0-13.99-2.81-19.09-7.91c-5.1-5.1-7.91-11.88-7.91-19.09s2.81-13.99,7.91-19.09
		l22.63-22.63c5.1-5.1,11.88-7.91,19.09-7.91s13.99,2.81,19.09,7.91c10.53,10.53,10.53,27.66,0,38.18l-22.63,22.63
		C252.89,349.82,246.11,352.63,238.9,352.63z M261.53,288c-4.01,0-7.77,1.56-10.61,4.39l-22.63,22.63
		c-2.83,2.83-4.39,6.6-4.39,10.61c0,4.01,1.56,7.77,4.39,10.61c2.83,2.83,6.6,4.39,10.61,4.39s7.77-1.56,10.61-4.39l22.63-22.63
		c5.85-5.85,5.85-15.36,0-21.21C269.3,289.56,265.53,288,261.53,288z"/>
	<path class="st1" d="M261.53,279c6.14,0,12.28,2.34,16.97,7.03c9.37,9.37,9.37,24.57,0,33.94l-22.63,22.63
		c-4.69,4.69-10.83,7.03-16.97,7.03s-12.28-2.34-16.97-7.03c-9.37-9.37-9.37-24.57,0-33.94l22.63-22.63
		C249.24,281.34,255.38,279,261.53,279 M238.9,343.63c4.61,0,9.21-1.76,12.73-5.27l22.63-22.63c7.03-7.03,7.03-18.43,0-25.46
		c-3.51-3.51-8.12-5.27-12.73-5.27s-9.21,1.76-12.73,5.27l-22.63,22.63c-7.03,7.03-7.03,18.43,0,25.46
		C229.69,341.87,234.29,343.63,238.9,343.63 M261.53,273c-8.01,0-15.55,3.12-21.21,8.79l-22.63,22.63
		c-5.67,5.67-8.79,13.2-8.79,21.21s3.12,15.55,8.79,21.21c5.67,5.67,13.2,8.79,21.21,8.79s15.55-3.12,21.21-8.79l22.63-22.63
		c11.7-11.7,11.7-30.73,0-42.43C277.07,276.12,269.54,273,261.53,273L261.53,273z M238.9,337.63c-3.21,0-6.22-1.25-8.49-3.51
		c-4.68-4.68-4.68-12.29,0-16.97l22.63-22.63c2.27-2.27,5.28-3.51,8.49-3.51s6.22,1.25,8.49,3.51c4.68,4.68,4.68,12.29,0,16.97
		l-22.63,22.63C245.12,336.38,242.1,337.63,238.9,337.63L238.9,337.63z"/>
	<path class="st6" d="M229,392.23c-7.21,0-13.99-2.81-19.09-7.91c-10.53-10.53-10.53-27.66,0-38.18l22.63-22.63
		c5.1-5.1,11.88-7.91,19.09-7.91s13.99,2.81,19.09,7.91s7.91,11.88,7.91,19.09s-2.81,13.99-7.91,19.09l-22.63,22.63
		C242.99,389.42,236.21,392.23,229,392.23z M251.63,327.6c-4.01,0-7.77,1.56-10.61,4.39l-22.63,22.63c-5.85,5.85-5.85,15.37,0,21.21
		c2.83,2.83,6.6,4.39,10.61,4.39s7.77-1.56,10.61-4.39l22.63-22.63c5.85-5.85,5.85-15.37,0-21.21
		C259.4,329.16,255.63,327.6,251.63,327.6z"/>
	<path class="st1" d="M251.63,318.6c6.14,0,12.28,2.34,16.97,7.03c9.37,9.37,9.37,24.57,0,33.94l-22.63,22.63
		c-4.69,4.69-10.83,7.03-16.97,7.03s-12.28-2.34-16.97-7.03c-9.37-9.37-9.37-24.57,0-33.94l22.63-22.63
		C239.34,320.94,245.49,318.6,251.63,318.6 M229,383.23c4.61,0,9.21-1.76,12.73-5.27l22.63-22.63c7.03-7.03,7.03-18.43,0-25.46
		c-3.51-3.51-8.12-5.27-12.73-5.27s-9.21,1.76-12.73,5.27l-22.63,22.63c-7.03,7.03-7.03,18.43,0,25.46
		C219.79,381.47,224.39,383.23,229,383.23 M251.63,312.6c-8.01,0-15.55,3.12-21.21,8.79l-22.63,22.63
		c-5.67,5.67-8.79,13.2-8.79,21.21c0,8.01,3.12,15.55,8.79,21.21c5.67,5.67,13.2,8.79,21.21,8.79s15.55-3.12,21.21-8.79l22.63-22.63
		c5.67-5.67,8.79-13.2,8.79-21.21c0-8.01-3.12-15.55-8.79-21.21C267.17,315.72,259.64,312.6,251.63,312.6L251.63,312.6z M229,377.23
		c-3.21,0-6.22-1.25-8.49-3.51c-2.27-2.27-3.51-5.28-3.51-8.49s1.25-6.22,3.51-8.49l22.63-22.63c2.27-2.27,5.28-3.51,8.49-3.51
		s6.22,1.25,8.49,3.51c4.68,4.68,4.68,12.29,0,16.97l-22.63,22.63C235.22,375.98,232.21,377.23,229,377.23L229,377.23z"/>
	
		<rect x="254.06" y="326.16" transform="matrix(0.7071 -0.7071 0.7071 0.7071 -155.1125 283.8353)" class="st6" width="22" height="6"/>
	
		<rect x="258.31" y="330.4" transform="matrix(0.7071 -0.7071 0.7071 0.7071 -156.8745 288.0812)" class="st1" width="22" height="6"/>
	<path class="st7" d="M267.8,350.47l7.82-7.82c0.01-3.21-0.63-6.41-1.9-9.41l-4.72,4.72C270.11,342.1,269.71,346.55,267.8,350.47z"
		/>
	<path class="st7" d="M234.25,343l-4.72,4.72c3,1.27,6.21,1.91,9.41,1.9l7.82-7.82C242.85,343.71,238.4,344.11,234.25,343z"/>
	
		<rect x="249.82" y="321.92" transform="matrix(0.7071 -0.7071 0.7071 0.7071 -153.3616 279.5913)" class="st1" width="22" height="6"/>
	<path class="st1" d="M175.01,262.5C175.01,262.5,175,262.5,175.01,262.5h-1.58c-0.83,0-1.5-0.67-1.5-1.5s0.67-1.5,1.5-1.5H175
		c0,0,0,0,0.01,0c0.98,0,1.94-0.17,2.85-0.49c0.78-0.27,1.64,0.13,1.92,0.91s-0.13,1.64-0.91,1.92
		C177.63,262.28,176.33,262.5,175.01,262.5z M164.43,262.5h-5c-0.83,0-1.5-0.67-1.5-1.5s0.67-1.5,1.5-1.5h5c0.83,0,1.5,0.67,1.5,1.5
		S165.26,262.5,164.43,262.5z M150.43,262.5h-5c-0.83,0-1.5-0.67-1.5-1.5s0.67-1.5,1.5-1.5h5c0.83,0,1.5,0.67,1.5,1.5
		S151.26,262.5,150.43,262.5z M184.47,255.73c-0.16,0-0.32-0.03-0.48-0.08c-0.78-0.27-1.2-1.12-0.94-1.9
		c0.3-0.88,0.45-1.8,0.45-2.74v-1.71c0-0.83,0.67-1.5,1.5-1.5s1.5,0.67,1.5,1.5v1.7c0,1.27-0.21,2.52-0.61,3.71
		C185.68,255.33,185.09,255.73,184.47,255.73z M185,241.79c-0.83,0-1.5-0.67-1.5-1.5v-5c0-0.83,0.67-1.5,1.5-1.5s1.5,0.67,1.5,1.5v5
		C186.5,241.11,185.83,241.79,185,241.79z M185,227.79c-0.83,0-1.5-0.67-1.5-1.5v-5c0-0.83,0.67-1.5,1.5-1.5s1.5,0.67,1.5,1.5v5
		C186.5,227.11,185.83,227.79,185,227.79z M185,213.79c-0.83,0-1.5-0.67-1.5-1.5v-5c0-0.83,0.67-1.5,1.5-1.5s1.5,0.67,1.5,1.5v5
		C186.5,213.11,185.83,213.79,185,213.79z M185,199.79c-0.83,0-1.5-0.67-1.5-1.5v-5c0-0.83,0.67-1.5,1.5-1.5s1.5,0.67,1.5,1.5v5
		C186.5,199.11,185.83,199.79,185,199.79z M185.03,185.79c-0.04,0-0.07,0-0.11,0c-0.83-0.06-1.45-0.78-1.39-1.6
		c0.14-1.92,0.76-3.78,1.8-5.4c0.45-0.7,1.38-0.9,2.07-0.45c0.7,0.45,0.9,1.38,0.45,2.07c-0.77,1.19-1.23,2.57-1.33,3.99
		C186.46,185.18,185.81,185.79,185.03,185.79z M194,176.55c-0.76,0-1.41-0.58-1.49-1.35c-0.08-0.82,0.52-1.56,1.35-1.64
		c0.38-0.04,0.76-0.06,1.14-0.06h4c0.83,0,1.5,0.67,1.5,1.5s-0.67,1.5-1.5,1.5h-4c-0.29,0-0.57,0.01-0.85,0.04
		C194.1,176.55,194.05,176.55,194,176.55z M227,176.5h-5c-0.83,0-1.5-0.67-1.5-1.5s0.67-1.5,1.5-1.5h5c0.83,0,1.5,0.67,1.5,1.5
		S227.83,176.5,227,176.5z M213,176.5h-5c-0.83,0-1.5-0.67-1.5-1.5s0.67-1.5,1.5-1.5h5c0.83,0,1.5,0.67,1.5,1.5
		S213.83,176.5,213,176.5z"/>
	<path class="st8" d="M243,234c-7.17,0-13-5.83-13-13V28c0-7.17,5.83-13,13-13h134c7.17,0,13,5.83,13,13v193c0,7.17-5.83,13-13,13
		H243z"/>
	<path class="st1" d="M377,18c5.52,0,10,4.48,10,10v193c0,5.52-4.48,10-10,10H243c-5.52,0-10-4.48-10-10V28c0-5.52,4.48-10,10-10
		H377 M377,12H243c-8.82,0-16,7.18-16,16v193c0,8.82,7.18,16,16,16h134c8.82,0,16-7.18,16-16V28C393,19.18,385.82,12,377,12L377,12z
		"/>
	<path class="st9" d="M233,49c-1.66,0-3-1.34-3-3V28c0-7.17,5.83-13,13-13h134c7.17,0,13,5.83,13,13v18c0,1.66-1.34,3-3,3H233z"/>
	<path class="st1" d="M377,18c5.52,0,10,4.48,10,10v18H233V28c0-5.52,4.48-10,10-10H377 M377,12H243c-8.82,0-16,7.18-16,16v18
		c0,3.31,2.69,6,6,6h154c3.31,0,6-2.69,6-6V28C393,19.18,385.82,12,377,12L377,12z"/>
	<path class="st8" d="M314,37c-3.31,0-6-2.69-6-6s2.69-6,6-6h58c3.31,0,6,2.69,6,6s-2.69,6-6,6H314z"/>
	<path class="st1" d="M372,28c1.66,0,3,1.34,3,3s-1.34,3-3,3h-58c-1.66,0-3-1.34-3-3s1.34-3,3-3H372 M372,22h-58c-4.96,0-9,4.04-9,9
		s4.04,9,9,9h58c4.96,0,9-4.04,9-9S376.96,22,372,22L372,22z"/>
	<circle class="st10" cx="248" cy="31" r="6"/>
	<path class="st1" d="M248,28c1.66,0,3,1.34,3,3s-1.34,3-3,3s-3-1.34-3-3S246.34,28,248,28 M248,22c-4.96,0-9,4.04-9,9s4.04,9,9,9
		s9-4.04,9-9S252.96,22,248,22L248,22z"/>
	<circle class="st11" cx="269" cy="31" r="6"/>
	<path class="st1" d="M269,28c1.66,0,3,1.34,3,3s-1.34,3-3,3s-3-1.34-3-3S267.34,28,269,28 M269,22c-4.96,0-9,4.04-9,9s4.04,9,9,9
		s9-4.04,9-9S273.96,22,269,22L269,22z"/>
	<circle class="st12" cx="290" cy="31" r="6"/>
	<path class="st1" d="M290,28c1.66,0,3,1.34,3,3s-1.34,3-3,3s-3-1.34-3-3S288.34,28,290,28 M290,22c-4.96,0-9,4.04-9,9s4.04,9,9,9
		s9-4.04,9-9S294.96,22,290,22L290,22z"/>
	<path class="st13" d="M233,85c-1.66,0-3-1.34-3-3V52c0-1.66,1.34-3,3-3h154c1.66,0,3,1.34,3,3v30c0,1.66-1.34,3-3,3H233z"/>
	<path class="st1" d="M387,52v30H233V52H387 M387,46H233c-3.31,0-6,2.69-6,6v30c0,3.31,2.69,6,6,6h154c3.31,0,6-2.69,6-6V52
		C393,48.69,390.31,46,387,46L387,46z"/>
	<path class="st14" d="M257.78,65.02h-6.07v1.8h4.3c-0.21,2.52-2.31,3.6-4.3,3.6c-2.54,0-4.75-2-4.75-4.79
		c0-2.73,2.11-4.82,4.76-4.82c2.04,0,3.24,1.3,3.24,1.3l1.26-1.31c0,0-1.62-1.8-4.57-1.8c-3.76,0-6.67,3.17-6.67,6.6
		c0,3.36,2.73,6.63,6.76,6.63c3.54,0,6.13-2.43,6.13-6.01C257.89,65.46,257.78,65.02,257.78,65.02L257.78,65.02z"/>
	<path class="st15" d="M267.02,67.98c0,2.46-1.91,4.24-4.24,4.24c-2.57,0-4.3-1.98-4.3-4.29c0-2.27,1.78-4.22,4.27-4.22
		C264.8,63.72,267.02,65.17,267.02,67.98z M262.78,65.39c-1.38,0-2.43,1.1-2.43,2.57c0,1.5,1.07,2.59,2.43,2.59
		c1.23,0,2.39-1.02,2.39-2.58C265.16,66.38,264,65.39,262.78,65.39L262.78,65.39z"/>
	<path class="st0" d="M276.32,67.98c0,2.46-1.91,4.24-4.24,4.24c-2.57,0-4.3-1.98-4.3-4.29c0-2.27,1.78-4.22,4.27-4.22
		C274.1,63.72,276.32,65.17,276.32,67.98z M272.08,65.39c-1.38,0-2.43,1.1-2.43,2.57c0,1.5,1.07,2.59,2.43,2.59
		c1.23,0,2.39-1.02,2.39-2.58C274.46,66.38,273.3,65.39,272.08,65.39L272.08,65.39z"/>
	<path class="st14" d="M281.17,63.72c0.99,0,1.74,0.39,2.29,0.98v-0.72h1.78v7.64c0,3-1.73,4.43-4,4.43c-2.08,0-3.24-1.28-3.82-2.5
		l1.63-0.68c0.23,0.55,0.88,1.51,2.18,1.51c1.34,0,2.23-0.88,2.23-2.35v-0.84c-0.48,0.55-1.12,1.03-2.33,1.03
		c-1.96,0-4.04-1.7-4.04-4.26C277.09,65.72,278.88,63.72,281.17,63.72L281.17,63.72z M281.33,65.39c-1.2,0-2.38,0.97-2.38,2.61
		c0,1.57,1.13,2.56,2.35,2.56c1.15,0,2.3-0.92,2.3-2.58C283.6,66.35,282.45,65.39,281.33,65.39L281.33,65.39z"/>
	<path class="st15" d="M293.17,63.71c1.7,0,2.98,1.13,3.54,2.49l0.3,0.69l-5.7,2.37c0.34,0.63,0.89,1.29,2.09,1.29
		c1.06,0,1.7-0.58,2.08-1.17l1.47,0.98c-0.66,0.88-1.76,1.87-3.56,1.87c-2.16,0-4.17-1.59-4.17-4.27
		C289.2,65.43,291.01,63.71,293.17,63.71L293.17,63.71z M291.01,67.85l3.81-1.59c-0.24-0.5-0.8-0.91-1.57-0.91
		C292.01,65.35,290.84,66.61,291.01,67.85z"/>
	<path class="st16" d="M286.48,71.97h1.87V59.44h-1.87V71.97z"/>
	<path class="st1" d="M279,104h-32c-1.1,0-2-0.9-2-2l0,0c0-1.1,0.9-2,2-2h32c1.1,0,2,0.9,2,2l0,0C281,103.1,280.1,104,279,104z"/>
	<path class="st1" d="M295,120h-48c-1.1,0-2-0.9-2-2l0,0c0-1.1,0.9-2,2-2h48c1.1,0,2,0.9,2,2l0,0C297,119.1,296.1,120,295,120z"/>
	<path class="st1" d="M285,128h-38c-1.1,0-2-0.9-2-2l0,0c0-1.1,0.9-2,2-2h38c1.1,0,2,0.9,2,2l0,0C287,127.1,286.1,128,285,128z"/>
	<path class="st14" d="M301,112h-54c-1.1,0-2-0.9-2-2l0,0c0-1.1,0.9-2,2-2h54c1.1,0,2,0.9,2,2l0,0C303,111.1,302.1,112,301,112z"/>
	<path class="st1" d="M287,195h-40c-1.1,0-2-0.9-2-2l0,0c0-1.1,0.9-2,2-2h40c1.1,0,2,0.9,2,2l0,0C289,194.1,288.1,195,287,195z"/>
	<path class="st1" d="M295,211h-48c-1.1,0-2-0.9-2-2l0,0c0-1.1,0.9-2,2-2h48c1.1,0,2,0.9,2,2l0,0C297,210.1,296.1,211,295,211z"/>
	<path class="st1" d="M295,219h-48c-1.1,0-2-0.9-2-2l0,0c0-1.1,0.9-2,2-2h48c1.1,0,2,0.9,2,2l0,0C297,218.1,296.1,219,295,219z"/>
	<path class="st14" d="M301,203h-54c-1.1,0-2-0.9-2-2l0,0c0-1.1,0.9-2,2-2h54c1.1,0,2,0.9,2,2l0,0C303,202.1,302.1,203,301,203z"/>
	<rect x="261" y="140" class="st17" width="98" height="40"/>
	<path class="st1" d="M317,150h-48c-1.1,0-2-0.9-2-2l0,0c0-1.1,0.9-2,2-2h48c1.1,0,2,0.9,2,2l0,0C319,149.1,318.1,150,317,150z"/>
	<path class="st1" d="M315,166h-46c-1.1,0-2-0.9-2-2l0,0c0-1.1,0.9-2,2-2h46c1.1,0,2,0.9,2,2l0,0C317,165.1,316.1,166,315,166z"/>
	<path class="st1" d="M307,174h-38c-1.1,0-2-0.9-2-2l0,0c0-1.1,0.9-2,2-2h38c1.1,0,2,0.9,2,2l0,0C309,173.1,308.1,174,307,174z"/>
	<path class="st14" d="M323,158h-54c-1.1,0-2-0.9-2-2l0,0c0-1.1,0.9-2,2-2h54c1.1,0,2,0.9,2,2l0,0C325,157.1,324.1,158,323,158z"/>
	<path class="st1" d="M265,184h-6c-1.1,0-2-0.9-2-2v-44c0-1.1,0.9-2,2-2h6c1.1,0,2,0.9,2,2s-0.9,2-2,2h-4v40h4c1.1,0,2,0.9,2,2
		S266.1,184,265,184z"/>
	<path class="st1" d="M361,184h-6c-1.1,0-2-0.9-2-2s0.9-2,2-2h4v-40h-4c-1.1,0-2-0.9-2-2s0.9-2,2-2h6c1.1,0,2,0.9,2,2v44
		C363,183.1,362.1,184,361,184z"/>
	<path class="st12" d="M339,166c-1.1,0-2-0.9-2-2v-6h-2c-0.78,0-1.5-0.46-1.82-1.17c-0.32-0.71-0.2-1.55,0.32-2.14l7-8
		c0.38-0.43,0.93-0.68,1.51-0.68s1.13,0.25,1.51,0.68l7,8c0.52,0.59,0.64,1.43,0.32,2.14s-1.04,1.17-1.82,1.17h-2v6c0,1.1-0.9,2-2,2
		H339z"/>
	<path class="st1" d="M342,148l7,8h-4v8h-6v-8h-4L342,148 M342,144c-1.15,0-2.25,0.5-3.01,1.37l-7,8c-1.03,1.18-1.28,2.86-0.63,4.29
		s2.07,2.35,3.64,2.35v4c0,2.21,1.79,4,4,4h6c2.21,0,4-1.79,4-4v-4c1.57,0,2.99-0.92,3.64-2.35c0.65-1.43,0.4-3.11-0.63-4.29l-7-8
		C344.25,144.5,343.15,144,342,144L342,144z"/>
	<path class="st1" d="M360.53,112.81c-1.1,0-2-0.9-2-2c0-1.65-1.35-3-3-3s-3,1.35-3,3c0,1.1-0.9,2-2,2s-2-0.9-2-2c0-3.86,3.14-7,7-7
		s7,3.14,7,7C362.53,111.91,361.63,112.81,360.53,112.81z"/>
	<path class="st1" d="M353.09,94.87c0.97-0.61,1.86-0.91,2.88-1.12c0.99-0.21,2.03-0.24,3.08-0.12c1.04,0.11,2.1,0.44,3.07,0.95
		c0.97,0.5,1.83,1.28,2.42,2.19c0.52,0.8,0.29,1.86-0.51,2.38c-0.38,0.24-0.81,0.32-1.22,0.25l-0.4-0.07
		c-0.78-0.13-1.39-0.32-2.04-0.43c-0.65-0.1-1.27-0.25-1.96-0.33l-2.11-0.25c-0.72-0.08-1.55-0.12-2.25-0.28l-0.42-0.09
		c-0.92-0.2-1.5-1.11-1.29-2.02C352.44,95.48,352.72,95.1,353.09,94.87z"/>
	<path class="st1" d="M339.47,112.81c-1.1,0-2-0.9-2-2c0-1.65-1.35-3-3-3s-3,1.35-3,3c0,1.1-0.9,2-2,2s-2-0.9-2-2c0-3.86,3.14-7,7-7
		s7,3.14,7,7C341.47,111.91,340.58,112.81,339.47,112.81z"/>
	<path class="st1" d="M335.94,98.06c-0.7,0.15-1.53,0.2-2.25,0.28l-2.11,0.25c-0.68,0.08-1.3,0.22-1.96,0.33
		c-0.65,0.11-1.26,0.3-2.04,0.43l-0.39,0.07c-0.94,0.16-1.83-0.47-1.98-1.41c-0.07-0.44,0.03-0.88,0.25-1.22
		c0.59-0.92,1.45-1.69,2.42-2.19c0.96-0.52,2.02-0.84,3.07-0.95c1.05-0.12,2.08-0.08,3.08,0.12c1.01,0.21,1.9,0.51,2.88,1.12
		c0.79,0.5,1.03,1.55,0.54,2.34c-0.25,0.4-0.64,0.66-1.07,0.76L335.94,98.06z"/>
	<path class="st1" d="M345.28,124.04c-4.22,0-8.55-1.08-12.29-3.25c-0.96-0.55-1.28-1.78-0.73-2.73c0.55-0.96,1.78-1.28,2.73-0.73
		c6.17,3.58,14.54,3.59,19.89,0.03c0.92-0.61,2.16-0.36,2.77,0.56s0.36,2.16-0.56,2.77C353.75,122.92,349.57,124.04,345.28,124.04z"
		/>
	<path class="st1" d="M341.26,127.14c1.22,0.34,2.49,0.43,3.75,0.48c0.63,0.03,1.26-0.05,1.89-0.12s1.25-0.18,1.85-0.36
		c0.68-0.21,1.4,0.17,1.61,0.85c0.14,0.45,0.01,0.92-0.29,1.25l-0.79,0.85c-0.61,0.66-1.32,1-2.04,1.25
		c-0.73,0.21-1.48,0.32-2.23,0.27c-0.37-0.02-0.75-0.04-1.12-0.11c-0.37-0.06-0.74-0.15-1.09-0.27c-0.72-0.24-1.42-0.57-2.04-1.13
		l-0.74-0.66c-0.55-0.49-0.6-1.34-0.11-1.89C340.24,127.15,340.78,127.01,341.26,127.14z"/>
	<circle class="st18" cx="369" cy="122.04" r="2"/>
	<circle class="st18" cx="377" cy="122.04" r="2"/>
	<circle class="st18" cx="373" cy="114.04" r="2"/>
	<circle class="st18" cx="313" cy="122.04" r="2"/>
	<circle class="st18" cx="321" cy="122.04" r="2"/>
	<circle class="st18" cx="317" cy="114.04" r="2"/>
	<path class="st1" d="M226.57,103.5h-5c-0.83,0-1.5-0.67-1.5-1.5s0.67-1.5,1.5-1.5h5c0.83,0,1.5,0.67,1.5,1.5
		S227.4,103.5,226.57,103.5z M212.57,103.5h-5c-0.83,0-1.5-0.67-1.5-1.5s0.67-1.5,1.5-1.5h5c0.83,0,1.5,0.67,1.5,1.5
		S213.4,103.5,212.57,103.5z M198.57,103.5h-5c-0.83,0-1.5-0.67-1.5-1.5s0.67-1.5,1.5-1.5h5c0.83,0,1.5,0.67,1.5,1.5
		S199.4,103.5,198.57,103.5z M184.57,103.49c-0.02,0-0.04,0-0.06,0c-1.92-0.08-3.81-0.65-5.45-1.64c-0.71-0.43-0.94-1.35-0.51-2.06
		c0.43-0.71,1.35-0.94,2.06-0.51c1.21,0.73,2.6,1.15,4.02,1.21c0.83,0.03,1.47,0.73,1.44,1.56
		C186.04,102.86,185.37,103.49,184.57,103.49z M175.08,94.78c-0.74,0-1.39-0.55-1.49-1.31c-0.06-0.49-0.09-0.98-0.09-1.47v-3.71
		c0-0.83,0.67-1.5,1.5-1.5s1.5,0.67,1.5,1.5V92c0,0.36,0.02,0.73,0.07,1.09c0.1,0.82-0.48,1.57-1.3,1.68
		C175.21,94.78,175.14,94.78,175.08,94.78z M175,80.79c-0.83,0-1.5-0.67-1.5-1.5V76c0-0.49-0.04-0.97-0.12-1.45
		c-0.14-0.82,0.41-1.59,1.22-1.73c0.82-0.14,1.59,0.41,1.73,1.22c0.11,0.65,0.17,1.3,0.17,1.96v3.28
		C176.5,80.11,175.83,80.79,175,80.79z M169.79,68.72c-0.24,0-0.49-0.06-0.72-0.18c-1.24-0.68-2.65-1.04-4.07-1.04
		c-0.83,0-1.5-0.67-1.5-1.5s0.67-1.5,1.5-1.5c1.93,0,3.83,0.49,5.51,1.41c0.73,0.4,0.99,1.31,0.6,2.04
		C170.84,68.44,170.32,68.72,169.79,68.72z M156,67.5h-5c-0.83,0-1.5-0.67-1.5-1.5s0.67-1.5,1.5-1.5h5c0.83,0,1.5,0.67,1.5,1.5
		S156.83,67.5,156,67.5z M142,67.5h-5c-0.83,0-1.5-0.67-1.5-1.5s0.67-1.5,1.5-1.5h5c0.83,0,1.5,0.67,1.5,1.5S142.83,67.5,142,67.5z
		 M128,67.5h-5c-0.83,0-1.5-0.67-1.5-1.5s0.67-1.5,1.5-1.5h5c0.83,0,1.5,0.67,1.5,1.5S128.83,67.5,128,67.5z"/>
	<path class="st19" d="M117.5,136.15c-0.77,0-1.54-0.29-2.12-0.88l-19.8-19.8c-0.56-0.56-0.88-1.33-0.88-2.12
		c0-0.8,0.32-1.56,0.88-2.12l5.66-5.66c0.56-0.56,1.33-0.88,2.12-0.88c0.8,0,1.56,0.32,2.12,0.88l19.8,19.8
		c1.17,1.17,1.17,3.07,0,4.24l-5.66,5.66C119.03,135.86,118.27,136.15,117.5,136.15z"/>
	<path class="st1" d="M103.36,107.7l19.8,19.8l-5.66,5.66l-19.8-19.8L103.36,107.7 M103.36,101.7c-1.59,0-3.12,0.63-4.24,1.76
		l-5.66,5.66c-1.13,1.13-1.76,2.65-1.76,4.24s0.63,3.12,1.76,4.24l19.8,19.8c1.17,1.17,2.71,1.76,4.24,1.76
		c1.54,0,3.07-0.59,4.24-1.76l5.66-5.66c1.13-1.13,1.76-2.65,1.76-4.24s-0.63-3.12-1.76-4.24l-19.8-19.8
		C106.47,102.33,104.95,101.7,103.36,101.7L103.36,101.7z"/>
	
		<rect x="105.37" y="115.87" transform="matrix(0.7071 -0.7071 0.7071 0.7071 -52.3705 112.2979)" class="st20" width="8" height="7"/>
	<path class="st19" d="M68,131c-14.16,0-27.47-5.51-37.48-15.52c-20.66-20.67-20.66-54.29,0-74.95C40.53,30.51,53.84,25,68,25
		s27.47,5.51,37.48,15.52c20.66,20.67,20.66,54.29,0,74.95C95.47,125.49,82.16,131,68,131z"/>
	<path class="st1" d="M68,28c12.8,0,25.59,4.88,35.36,14.64c19.53,19.53,19.53,51.18,0,70.71C93.59,123.12,80.8,128,68,128
		s-25.59-4.88-35.36-14.64c-19.53-19.53-19.53-51.18,0-70.71C42.41,32.88,55.2,28,68,28 M68,22c-14.96,0-29.02,5.83-39.6,16.4
		C17.83,48.98,12,63.04,12,78s5.83,29.02,16.4,39.6C38.98,128.17,53.04,134,68,134s29.02-5.83,39.6-16.4
		C118.17,107.02,124,92.96,124,78s-5.83-29.02-16.4-39.6C97.02,27.83,82.96,22,68,22L68,22z"/>
	<path class="st21" d="M68,116c-10.15,0-19.69-3.95-26.87-11.13S30,88.15,30,78s3.95-19.69,11.13-26.87S57.85,40,68,40
		s19.69,3.95,26.87,11.13S106,67.85,106,78s-3.95,19.69-11.13,26.87S78.15,116,68,116z"/>
	<path class="st1" d="M68,43c8.96,0,17.91,3.42,24.75,10.25c13.67,13.67,13.67,35.83,0,49.5C85.91,109.58,76.96,113,68,113
		s-17.91-3.42-24.75-10.25c-13.67-13.67-13.67-35.83,0-49.5C50.09,46.42,59.04,43,68,43 M68,37c-10.95,0-21.25,4.26-28.99,12.01
		C31.26,56.75,27,67.05,27,78s4.26,21.25,12.01,28.99C46.75,114.74,57.05,119,68,119s21.25-4.26,28.99-12.01
		C104.74,99.25,109,88.95,109,78s-4.26-21.25-12.01-28.99C89.25,41.26,78.95,37,68,37L68,37z"/>
	<path class="st22" d="M46.79,56.79c-13.07,13.07-13.63,33.91-1.7,47.66c-0.63-0.54-1.24-1.1-1.84-1.7
		c-13.67-13.67-13.67-35.83,0-49.5s35.83-13.67,49.5,0c0.6,0.6,1.15,1.21,1.7,1.84C80.7,43.15,59.86,43.71,46.79,56.79z"/>
	<path class="st23" d="M146.49,172.22c-0.77,0-1.54-0.29-2.12-0.88l-32.53-32.53c-1.17-1.17-1.17-3.07,0-4.24l12.73-12.73
		c0.59-0.59,1.35-0.88,2.12-0.88s1.54,0.29,2.12,0.88l32.53,32.53c1.17,1.17,1.17,3.07,0,4.24l-12.73,12.73
		C148.02,171.92,147.26,172.22,146.49,172.22z"/>
	<path class="st1" d="M126.69,123.96l32.53,32.53l-12.73,12.73l-32.53-32.53L126.69,123.96 M126.69,117.96
		c-1.59,0-3.12,0.63-4.24,1.76l-12.73,12.73c-2.34,2.34-2.34,6.14,0,8.49l32.53,32.53c1.13,1.13,2.65,1.76,4.24,1.76
		c1.59,0,3.12-0.63,4.24-1.76l12.73-12.73c2.34-2.34,2.34-6.14,0-8.49l-32.53-32.53C129.81,118.59,128.28,117.96,126.69,117.96
		L126.69,117.96z"/>
	<path class="st0" d="M118.2,143.93c-0.77,0-1.54-0.29-2.12-0.88l-4.24-4.24c-1.17-1.17-1.17-3.07,0-4.24l12.73-12.73
		c0.59-0.59,1.35-0.88,2.12-0.88s1.54,0.29,2.12,0.88l4.24,4.24c1.17,1.17,1.17,3.07,0,4.24l-12.73,12.73
		C119.74,143.64,118.97,143.93,118.2,143.93z"/>
	<path class="st1" d="M126.69,123.96l4.24,4.24l-12.73,12.73l-4.24-4.24L126.69,123.96 M126.69,117.96c-1.59,0-3.12,0.63-4.24,1.76
		l-12.73,12.73c-1.13,1.13-1.76,2.65-1.76,4.24c0,1.59,0.63,3.12,1.76,4.24l4.24,4.24c1.17,1.17,2.71,1.76,4.24,1.76
		c1.54,0,3.07-0.59,4.24-1.76l12.73-12.73c1.13-1.13,1.76-2.65,1.76-4.24s-0.63-3.12-1.76-4.24l-4.24-4.24
		C129.81,118.59,128.28,117.96,126.69,117.96L126.69,117.96z"/>
	<path class="st1" d="M84.97,83.8c-0.32,0-0.64-0.08-0.94-0.24c-1.89-1.02-5.22-1.02-7.11,0c-0.98,0.52-2.19,0.16-2.71-0.82
		c-0.52-0.97-0.16-2.19,0.82-2.71c3.05-1.64,7.84-1.64,10.89,0c0.97,0.52,1.34,1.73,0.82,2.71C86.37,83.42,85.68,83.8,84.97,83.8z"
		/>
	<circle class="st1" cx="80.47" cy="74.05" r="7"/>
	<circle class="st8" cx="82.22" cy="74.05" r="1.75"/>
	<path class="st1" d="M75.49,59.04c0.61-0.55,1.11-0.88,1.72-1.22c0.6-0.32,1.22-0.59,1.88-0.8c1.32-0.41,2.78-0.57,4.26-0.39
		c1.48,0.15,2.99,0.73,4.21,1.63c1.26,0.87,2.13,2.1,2.67,3.38c0.44,1.04-0.05,2.24-1.1,2.68c-0.53,0.22-1.09,0.2-1.58,0l-0.45-0.19
		c-0.94-0.4-1.64-0.83-2.38-1.03c-0.71-0.25-1.37-0.43-2.13-0.52c-0.74-0.1-1.56-0.14-2.44-0.12c-0.44,0.01-0.91,0.02-1.37,0.06
		c-0.46,0.01-1,0.09-1.39,0.05l-0.78-0.08c-1.09-0.11-1.88-1.08-1.77-2.16C74.89,59.81,75.14,59.36,75.49,59.04z"/>
	<path class="st1" d="M58.97,83.8c-0.32,0-0.64-0.08-0.94-0.24c-1.89-1.02-5.22-1.02-7.11,0c-0.98,0.52-2.19,0.16-2.71-0.82
		c-0.52-0.97-0.16-2.19,0.82-2.71c3.05-1.64,7.84-1.64,10.89,0c0.97,0.52,1.34,1.73,0.82,2.71C60.37,83.42,59.68,83.8,58.97,83.8z"
		/>
	<circle class="st1" cx="54.47" cy="74.05" r="7"/>
	<circle class="st8" cx="56.22" cy="74.05" r="1.75"/>
	<path class="st1" d="M57.54,62.56c-0.39,0.04-0.94-0.05-1.39-0.05c-0.47-0.04-0.93-0.05-1.37-0.06c-0.89-0.02-1.7,0.02-2.44,0.12
		c-0.75,0.09-1.41,0.28-2.13,0.52c-0.74,0.21-1.43,0.64-2.38,1.03l-0.45,0.19c-1.04,0.44-2.24-0.05-2.68-1.09
		c-0.22-0.53-0.2-1.1,0-1.59c0.54-1.28,1.41-2.51,2.67-3.38c1.21-0.9,2.72-1.48,4.21-1.63c1.49-0.18,2.95-0.02,4.26,0.39
		c0.66,0.21,1.29,0.48,1.88,0.8c0.61,0.34,1.11,0.68,1.72,1.22c0.81,0.73,0.88,1.98,0.16,2.79c-0.34,0.38-0.8,0.6-1.27,0.65
		L57.54,62.56z"/>
	<path class="st1" d="M67.81,94.08c-4.96,0-10.04-1.43-14.43-4.31c-0.92-0.6-1.18-1.84-0.58-2.77c0.6-0.92,1.84-1.18,2.77-0.58
		c7.35,4.8,17.32,4.82,23.71,0.03c0.88-0.66,2.14-0.48,2.8,0.4c0.66,0.88,0.48,2.14-0.4,2.8C77.74,92.6,72.83,94.08,67.81,94.08z"/>
	<path class="st1" d="M63.29,96.73c1.35,0.43,2.77,0.57,4.18,0.62c0.71,0.03,1.41-0.07,2.11-0.15c0.7-0.09,1.39-0.24,2.05-0.47
		c0.69-0.24,1.45,0.13,1.68,0.82c0.17,0.48,0.04,1-0.29,1.34l-0.72,0.76c-0.67,0.71-1.48,1.09-2.3,1.37
		c-0.83,0.24-1.69,0.36-2.54,0.31c-0.43-0.02-0.85-0.04-1.27-0.13c-0.42-0.06-0.84-0.17-1.25-0.3c-0.81-0.27-1.6-0.64-2.3-1.25
		l-0.67-0.59c-0.57-0.5-0.63-1.37-0.13-1.94C62.21,96.71,62.79,96.57,63.29,96.73z"/>
	<rect class="st24" width="400" height="400"/>
</g>
</svg>
