<svg id="Layer_1" data-name="Layer 1" xmlns="http://www.w3.org/2000/svg" viewBox="0 0 240 240"><defs><style>.cls-1{fill:#d8ebfb;}.cls-2{fill:#515979;}.cls-3{fill:#acc9db;}.cls-4{fill:#fff;}.cls-5{fill:#ef7d7d;}.cls-6{fill:#e5e5e5;}</style></defs><rect class="cls-1" x="24.5" y="65.5" width="156" height="106" rx="9"/><path class="cls-2" d="M171.5,68.5a6,6,0,0,1,6,6v88a6,6,0,0,1-6,6H33.5a6,6,0,0,1-6-6v-88a6,6,0,0,1,6-6h138m0-6H33.5a12,12,0,0,0-12,12v88a12,12,0,0,0,12,12h138a12,12,0,0,0,12-12v-88a12,12,0,0,0-12-12Z"/><path class="cls-3" d="M96.17,141,27.5,68.5V84.78l60.29,64.3a10,10,0,0,0,14.59,0l5.7-6.07A10,10,0,0,1,96.17,141Z"/><path class="cls-2" d="M102.5,146.88h0A13,13,0,0,1,93,142.77L25.31,70.55a3,3,0,1,1,4.38-4.1l67.7,72.22a7,7,0,0,0,10.22,0l67.7-72.22a3,3,0,0,1,4.38,4.1L112,142.77A13,13,0,0,1,102.5,146.88Z"/><path class="cls-2" d="M177.5,171.5a3,3,0,0,1-2.23-1l-45-50a3,3,0,1,1,4.46-4l45,50a3,3,0,0,1-2.23,5Z"/><path class="cls-2" d="M27.5,171.5a3,3,0,0,1-2.23-5l45-50a3,3,0,1,1,4.46,4l-45,50A3,3,0,0,1,27.5,171.5Z"/><path class="cls-2" d="M120,103.05a1.94,1.94,0,0,1-1-.24,8.7,8.7,0,0,0-7.1,0,2,2,0,0,1-1.9-3.52,12.69,12.69,0,0,1,10.9,0,2,2,0,0,1-1,3.76Z"/><circle class="cls-2" cx="115.5" cy="94.3" r="7"/><circle class="cls-4" cx="117.25" cy="94.3" r="1.75"/><path class="cls-2" d="M112.32,77.53a9,9,0,0,1,2-.73,10.47,10.47,0,0,1,2-.29,10.31,10.31,0,0,1,4.22.73,8.66,8.66,0,0,1,3.64,2.66,7.73,7.73,0,0,1,1.71,4,2,2,0,0,1-1.76,2.3,2,2,0,0,1-1.52-.41l-.39-.3a25.11,25.11,0,0,0-2-1.61,10.28,10.28,0,0,0-1.92-1.06A15.57,15.57,0,0,0,116,82c-.43-.1-.88-.22-1.34-.3s-1-.17-1.36-.31l-.73-.27a2,2,0,0,1-1.15-2.55A2,2,0,0,1,112.32,77.53Z"/><path class="cls-2" d="M94,103.05a1.94,1.94,0,0,1-1-.24,8.7,8.7,0,0,0-7.1,0,2,2,0,0,1-1.9-3.52,12.69,12.69,0,0,1,10.9,0,2,2,0,0,1-1,3.76Z"/><circle class="cls-2" cx="89.5" cy="94.3" r="7"/><circle class="cls-4" cx="91.25" cy="94.3" r="1.75"/><path class="cls-2" d="M91.75,81.42c-.37.14-.92.2-1.36.31s-.91.2-1.34.3a15.57,15.57,0,0,0-2.33.75,10.28,10.28,0,0,0-1.92,1.06,25.11,25.11,0,0,0-2,1.61l-.38.3a2,2,0,0,1-2.87-.36,2.1,2.1,0,0,1-.42-1.53,7.73,7.73,0,0,1,1.71-4,8.66,8.66,0,0,1,3.64-2.66,10.31,10.31,0,0,1,4.22-.73,10.47,10.47,0,0,1,2,.29,9,9,0,0,1,2,.73,2,2,0,0,1-.19,3.62Z"/><path class="cls-2" d="M102.5,123.31a14,14,0,0,1-14-14,2,2,0,0,1,2-2h24a2,2,0,0,1,2,2A14,14,0,0,1,102.5,123.31Z"/><path class="cls-2" d="M114.5,109.31h0m0,0a12,12,0,0,1-24,0h24m0-4h-24a4,4,0,0,0-4,4,16,16,0,0,0,32,.16v-.16a4,4,0,0,0-4-4Zm0,8Z"/><ellipse class="cls-5" cx="102.5" cy="117.31" rx="8.93" ry="4"/><path class="cls-5" d="M197.5,177.5a3,3,0,0,1-3-3v-19a7,7,0,0,0-14,0v19a3,3,0,0,1-3,3h-15a3,3,0,0,1-3-3v-19a28,28,0,0,1,56,0v19a3,3,0,0,1-3,3Z"/><path class="cls-2" d="M187.5,130.5a25,25,0,0,1,25,25v19h-15v-19a10,10,0,0,0-20,0v19h-15v-19a25,25,0,0,1,25-25m0-6a31,31,0,0,0-31,31v19a6,6,0,0,0,6,6h15a6,6,0,0,0,6-6v-19a4,4,0,0,1,8,0v19a6,6,0,0,0,6,6h15a6,6,0,0,0,6-6v-19a31,31,0,0,0-31-31Z"/><rect class="cls-6" x="159.5" y="165.5" width="21" height="12" rx="3"/><path class="cls-2" d="M177.5,168.5v6h-15v-6h15m0-6h-15a6,6,0,0,0-6,6v6a6,6,0,0,0,6,6h15a6,6,0,0,0,6-6v-6a6,6,0,0,0-6-6Z"/><rect class="cls-6" x="194.5" y="165.5" width="21" height="12" rx="3"/><path class="cls-2" d="M212.5,168.5v6h-15v-6h15m0-6h-15a6,6,0,0,0-6,6v6a6,6,0,0,0,6,6h15a6,6,0,0,0,6-6v-6a6,6,0,0,0-6-6Z"/></svg>