<svg width="760" height="208" viewBox="0 0 760 208" fill="none" xmlns="http://www.w3.org/2000/svg">
<mask id="mask0" mask-type="alpha" maskUnits="userSpaceOnUse" x="0" y="0" width="760" height="208">
<rect width="760" height="208" fill="#C4C4C4"/>
</mask>
<g mask="url(#mask0)">
<path d="M423.905 124.476C423.499 124.476 423.098 124.384 422.733 124.205C422.239 123.959 421.836 123.564 421.58 123.075C421.324 122.587 421.229 122.03 421.307 121.485L421.902 117.312L413.749 120.575C413.441 120.702 413.111 120.768 412.778 120.767C412.385 120.775 411.996 120.694 411.638 120.532C411.281 120.369 410.965 120.128 410.713 119.826C410.461 119.525 410.28 119.171 410.183 118.79C410.086 118.41 410.076 118.012 410.153 117.627L411.667 110.069L405.683 112.527C405.27 112.695 404.82 112.754 404.377 112.7C403.934 112.646 403.513 112.48 403.152 112.217C402.791 111.954 402.503 111.604 402.316 111.199C402.128 110.794 402.047 110.348 402.079 109.903L402.692 103.106C402.748 102.494 403.017 101.921 403.453 101.487L421.438 83.4846C424.053 80.6614 425.472 76.9344 425.397 73.0868C425.321 69.2392 423.757 65.5707 421.033 62.8523C418.309 60.1339 414.637 58.5774 410.789 58.5099C406.942 58.4423 403.218 59.8691 400.4 62.4901L382.554 80.3355C382.119 80.7726 381.542 81.0421 380.927 81.0965L373.002 81.7351H372.775C372.37 81.7339 371.971 81.6393 371.609 81.4586C371.248 81.2779 370.932 81.0159 370.689 80.6933C370.445 80.3706 370.279 79.9959 370.203 79.5985C370.128 79.2011 370.146 78.7917 370.255 78.4022L372.005 72.0601L365.112 73.6872C364.68 73.7861 364.231 73.7743 363.805 73.6528C363.379 73.5314 362.992 73.3043 362.677 72.9927C362.363 72.681 362.133 72.2949 362.008 71.8704C361.883 71.4458 361.867 70.9965 361.962 70.5643L363.642 63.015L361.726 63.2249H361.429C360.914 63.2194 360.413 63.0628 359.987 62.7746C359.561 62.4865 359.229 62.0794 359.032 61.6041C358.835 61.1287 358.783 60.606 358.881 60.101C358.979 59.596 359.223 59.131 359.583 58.7636L378.137 40.201C386.837 31.5008 398.637 26.6132 410.941 26.6132C423.245 26.6132 435.045 31.5008 443.745 40.201C452.445 48.9011 457.332 60.701 457.332 73.0049C457.332 85.3087 452.445 97.1086 443.745 105.809L425.768 123.724C425.522 123.966 425.231 124.157 424.911 124.286C424.592 124.415 424.25 124.48 423.905 124.476V124.476Z" fill="#75A5C3"/>
<path d="M410.915 29.2488C419.563 29.2541 428.017 31.8234 435.205 36.632C442.394 41.4406 447.996 48.2726 451.303 56.2644C454.61 64.2561 455.473 73.0488 453.784 81.5311C452.094 90.0134 447.928 97.8043 441.811 103.919L423.87 121.852L425.191 113.227L412.822 118.178L415.288 105.809L404.791 110.183L405.412 103.377L423.354 85.4353C426.634 82.1536 428.477 77.7031 428.476 73.063C428.475 68.4228 426.631 63.9729 423.349 60.6924C420.068 57.4119 415.617 55.5694 410.977 55.5702C406.337 55.571 401.887 57.4151 398.606 60.6968L380.761 78.5421L372.775 79.1107L375.775 68.5085L364.525 71.1328L367.001 59.997L361.437 60.6181L379.991 42.0554C384.048 37.989 388.868 34.7643 394.175 32.5665C399.482 30.3687 405.171 29.2412 410.915 29.2488V29.2488ZM410.915 24.0002C404.48 23.9836 398.106 25.243 392.162 27.7055C386.217 30.168 380.82 33.7847 376.282 38.3464L357.72 56.909C357.052 57.5773 356.577 58.4134 356.345 59.329C356.113 60.2447 356.132 61.206 356.401 62.1116C356.67 63.0172 357.178 63.8335 357.872 64.4744C358.566 65.1153 359.42 65.557 360.344 65.753L359.399 69.9956C359.229 70.763 359.233 71.5588 359.412 72.3243C359.59 73.0898 359.938 73.8055 360.43 74.4184C360.922 75.0314 361.546 75.526 362.255 75.8658C362.963 76.2055 363.739 76.3818 364.525 76.3814C364.923 76.381 365.319 76.337 365.706 76.2502L368.331 75.6116L367.745 77.6848C367.525 78.4636 367.488 79.2826 367.637 80.078C367.786 80.8733 368.117 81.6234 368.604 82.2696C369.091 82.9158 369.721 83.4407 370.444 83.8032C371.168 84.1657 371.965 84.3561 372.775 84.3593C372.926 84.3682 373.078 84.3682 373.229 84.3593L381.155 83.6683C382.387 83.5639 383.542 83.0279 384.418 82.1549L402.254 64.3096C404.551 62.0128 407.666 60.7224 410.915 60.7224C414.163 60.7224 417.278 62.0128 419.575 64.3096C421.872 66.6064 423.162 69.7216 423.162 72.9698C423.162 76.218 421.872 79.3332 419.575 81.6301L401.642 99.5716C400.774 100.44 400.239 101.586 400.129 102.808L399.508 109.605C399.44 110.334 399.526 111.068 399.76 111.762C399.994 112.455 400.37 113.092 400.864 113.632C401.358 114.171 401.96 114.601 402.63 114.895C403.3 115.188 404.024 115.338 404.756 115.335C405.444 115.336 406.125 115.199 406.759 114.933L408.203 114.338L407.652 117.093C407.499 117.855 407.517 118.642 407.705 119.396C407.893 120.15 408.247 120.853 408.74 121.454C409.233 122.055 409.853 122.539 410.556 122.871C411.259 123.203 412.027 123.375 412.804 123.374C413.47 123.375 414.129 123.247 414.746 122.998L418.7 121.415C418.613 122.486 418.858 123.558 419.4 124.486C419.942 125.415 420.757 126.154 421.733 126.604C422.709 127.054 423.799 127.194 424.858 127.005C425.916 126.815 426.89 126.305 427.649 125.544L445.582 107.611C452.429 100.757 457.09 92.0274 458.977 82.5249C460.863 73.0224 459.889 63.1739 456.178 54.2248C452.468 45.2757 446.187 37.6277 438.13 32.2478C430.074 26.8679 420.602 23.9977 410.915 24.0002V24.0002Z" fill="#515979"/>
<g style="mix-blend-mode:soft-light">
<g style="mix-blend-mode:soft-light">
<path d="M379.493 64.8257L368.234 67.4238L370.71 56.288L365.147 56.9091L361.438 60.6181L367.001 59.997L364.525 71.1328L375.775 68.5435L372.775 79.1457L380.7 78.4634L384.418 74.7456L376.492 75.4367L379.493 64.8257Z" fill="#515979"/>
</g>
</g>
<g style="mix-blend-mode:soft-light">
<g style="mix-blend-mode:soft-light">
<path d="M416.487 114.434L418.962 102.056L408.448 106.386L409.06 99.5891L405.351 103.298L404.73 110.104L415.245 105.774L412.778 118.143L425.147 113.192L423.905 121.852L427.623 118.143L428.856 109.483L416.487 114.434Z" fill="#515979"/>
</g>
</g>
<path d="M441.811 42.0554C433.609 33.853 422.484 29.245 410.884 29.245C399.284 29.245 388.159 33.853 379.956 42.0554L376.247 45.7732C384.45 37.5661 395.577 32.9535 407.18 32.9502C418.783 32.9469 429.913 37.5532 438.12 45.7557C446.327 53.9582 450.94 65.085 450.943 76.6883C450.946 88.2917 446.34 99.4211 438.137 107.628L441.811 103.919C445.874 99.8576 449.097 95.0353 451.296 89.728C453.494 84.4206 454.626 78.7321 454.626 72.9873C454.626 67.2425 453.494 61.554 451.296 56.2466C449.097 50.9393 445.874 46.1171 441.811 42.0554Z" fill="#9FC0D5"/>
<path d="M349.086 181.205C339.914 181.21 330.946 178.494 323.318 173.401C315.69 168.308 309.744 161.067 306.232 152.594C302.721 144.12 301.801 134.796 303.59 125.8C305.379 116.804 309.796 108.541 316.282 102.056L334.836 83.4846C335.257 83.0633 335.809 82.798 336.402 82.7323L341.965 82.1112H342.262C342.631 82.112 342.995 82.1902 343.331 82.3409C343.667 82.4917 343.968 82.7114 344.213 82.986C344.492 83.2977 344.692 83.6715 344.797 84.0762C344.902 84.481 344.909 84.905 344.817 85.3129L343.251 92.381L350.45 90.7277C350.893 90.6258 351.355 90.6408 351.791 90.7712C352.226 90.9015 352.62 91.1428 352.935 91.4712C353.248 91.7996 353.47 92.2035 353.581 92.6435C353.691 93.0835 353.685 93.5446 353.565 93.9818L351.596 100.98L355.734 100.621H355.961C356.473 100.627 356.971 100.781 357.396 101.066C357.821 101.351 358.153 101.754 358.352 102.225C358.551 102.696 358.608 103.215 358.515 103.718C358.423 104.221 358.186 104.686 357.833 105.056L338.588 124.301C337.074 125.648 335.85 127.289 334.993 129.126C334.135 130.962 333.662 132.954 333.602 134.98C333.543 137.005 333.898 139.022 334.646 140.905C335.394 142.789 336.519 144.5 337.952 145.933C339.385 147.366 341.095 148.491 342.979 149.239C344.862 149.986 346.879 150.341 348.905 150.282C350.93 150.222 352.923 149.749 354.759 148.892C356.595 148.034 358.237 146.811 359.583 145.296L378.758 126.121C379.002 125.876 379.293 125.682 379.613 125.55C379.932 125.418 380.275 125.35 380.621 125.351C381.006 125.353 381.385 125.44 381.732 125.605C382.221 125.835 382.628 126.21 382.895 126.68C383.163 127.15 383.279 127.691 383.228 128.229L383.009 130.722L389.518 128.045C389.834 127.914 390.172 127.846 390.515 127.844C391.123 127.848 391.712 128.058 392.186 128.439C392.548 128.745 392.82 129.143 392.974 129.591C393.128 130.039 393.158 130.521 393.06 130.985L391.538 138.604L399.411 135.455C399.721 135.334 400.05 135.272 400.382 135.271C400.76 135.267 401.134 135.345 401.479 135.499C401.824 135.654 402.132 135.881 402.381 136.165C402.63 136.449 402.815 136.783 402.923 137.145C403.031 137.507 403.059 137.889 403.007 138.263L401.773 146.923C401.693 147.486 401.432 148.008 401.03 148.41L381.846 167.629C377.553 171.944 372.448 175.366 366.825 177.696C361.202 180.027 355.172 181.219 349.086 181.205V181.205Z" fill="#75A5C3"/>
<path d="M342.263 84.7443L339.787 95.8713L351.036 93.247L348.036 103.893L355.961 103.202L336.716 122.447C333.436 125.729 331.593 130.179 331.594 134.819C331.595 137.117 332.048 139.392 332.927 141.514C333.807 143.637 335.096 145.565 336.721 147.19C338.346 148.814 340.275 150.103 342.398 150.981C344.52 151.86 346.796 152.312 349.093 152.312C353.733 152.311 358.183 150.467 361.464 147.185L380.577 128.037L379.956 134.842L390.454 130.512L387.978 142.882L400.347 137.939L399.114 146.599L379.991 165.774C371.777 173.917 360.67 178.475 349.104 178.45C337.537 178.424 326.451 173.818 318.271 165.639C310.092 157.46 305.486 146.374 305.461 134.807C305.436 123.24 309.993 112.134 318.136 103.919L336.69 85.3566L342.263 84.7443V84.7443ZM342.263 79.4956H342.131C341.956 79.4866 341.781 79.4866 341.606 79.4956L336.113 80.108C334.928 80.2394 333.824 80.7701 332.981 81.6126L314.427 100.201C309.841 104.742 306.198 110.144 303.706 116.096C301.214 122.049 299.923 128.436 299.906 134.889C299.89 141.343 301.149 147.736 303.611 153.701C306.073 159.666 309.689 165.086 314.252 169.65C318.815 174.213 324.235 177.83 330.2 180.293C336.165 182.756 342.557 184.015 349.011 184C355.464 183.984 361.851 182.694 367.804 180.203C373.757 177.712 379.159 174.069 383.7 169.483L402.875 150.308C403.68 149.504 404.202 148.46 404.362 147.334L405.596 138.674C405.724 137.764 405.611 136.836 405.267 135.984C404.924 135.131 404.363 134.384 403.641 133.816C402.918 133.248 402.059 132.88 401.149 132.749C400.24 132.617 399.312 132.727 398.458 133.067L395.081 134.414L395.65 131.544C395.836 130.613 395.767 129.649 395.449 128.755C395.13 127.86 394.576 127.068 393.843 126.464C393.11 125.86 392.228 125.466 391.289 125.324C390.35 125.182 389.39 125.297 388.512 125.657L385.712 126.812C385.495 125.904 385.039 125.071 384.392 124.398C383.745 123.726 382.93 123.238 382.032 122.984C381.134 122.731 380.184 122.722 379.281 122.958C378.378 123.195 377.554 123.667 376.895 124.328L357.72 143.503C355.423 145.799 352.308 147.09 349.059 147.09C345.811 147.09 342.696 145.799 340.399 143.503C338.102 141.206 336.812 138.091 336.812 134.842C336.812 131.594 338.102 128.479 340.399 126.182L359.644 106.937C360.377 106.203 360.876 105.268 361.079 104.251C361.281 103.233 361.177 102.179 360.78 101.22C360.383 100.262 359.711 99.4423 358.849 98.8656C357.986 98.2888 356.973 97.9804 355.935 97.9795H355.48H355.13L356.084 94.7079C356.304 93.9277 356.341 93.1071 356.191 92.3105C356.041 91.5138 355.708 90.7628 355.219 90.1162C354.73 89.4696 354.098 88.9451 353.372 88.5837C352.647 88.2223 351.847 88.034 351.036 88.0334C350.639 88.0338 350.243 88.0778 349.856 88.1646L346.715 88.8907L347.336 86.0564C347.445 85.6275 347.501 85.1868 347.502 84.7443C347.502 83.3613 346.957 82.0342 345.984 81.0513C345.011 80.0685 343.689 79.5095 342.306 79.4956H342.263Z" fill="#515979"/>
<path d="M336.078 99.5891L347.327 96.9911L344.327 107.602L352.252 106.911L355.961 103.202L348.036 103.893L351.036 93.282L339.787 95.8713L342.263 84.7443L336.69 85.3566L332.981 89.0744L338.545 88.4533L336.078 99.5891Z" fill="#9FC0D5"/>
<path d="M400.4 137.939L388.031 142.881L390.506 130.512L379.991 134.842L380.612 128.037L376.895 131.746L376.282 138.551L386.797 134.221L384.321 146.599L396.691 141.648L395.457 150.308L399.166 146.599L400.4 137.939Z" fill="#9FC0D5"/>
<g style="mix-blend-mode:soft-light">
<g style="mix-blend-mode:soft-light">
<path d="M321.845 162.056C313.643 153.854 309.035 142.729 309.035 131.129C309.035 119.529 313.643 108.404 321.845 100.201L318.136 103.919C309.993 112.134 305.436 123.24 305.461 134.807C305.486 146.374 310.092 157.46 318.271 165.639C326.451 173.818 337.537 178.424 349.104 178.45C360.67 178.475 371.777 173.917 379.991 165.774L383.7 162.056C375.498 170.259 364.373 174.867 352.773 174.867C341.173 174.867 330.048 170.259 321.845 162.056V162.056Z" fill="#515979"/>
</g>
</g>
<path d="M429.451 65.0269C428.987 65.0269 428.542 64.8426 428.214 64.5145C427.886 64.1864 427.701 63.7414 427.701 63.2774C427.708 62.3539 427.532 61.4383 427.184 60.5832C426.835 59.728 426.321 58.9504 425.67 58.2949C425.02 57.6395 424.246 57.1194 423.393 56.7644C422.541 56.4094 421.627 56.2267 420.703 56.2267H420.624C420.16 56.2267 419.715 56.0424 419.387 55.7143C419.059 55.3862 418.875 54.9412 418.875 54.4772C418.875 54.0132 419.059 53.5682 419.387 53.2401C419.715 52.912 420.16 52.7276 420.624 52.7276C422.019 52.7044 423.403 52.9637 424.695 53.4899C425.986 54.0161 427.158 54.7983 428.139 55.7893C429.128 56.7743 429.909 57.9475 430.436 59.2397C430.964 60.5319 431.226 61.9168 431.209 63.3124C431.2 63.7718 431.01 64.2092 430.681 64.53C430.352 64.8508 429.91 65.0293 429.451 65.0269Z" fill="#515979"/>
<path d="M434.551 42.0816C433.991 41.9242 433.501 41.7317 433.002 41.548L431.489 40.9969L429.976 40.4458C429.468 40.2709 428.979 40.0959 428.445 39.8597L428.112 39.7198C427.746 39.5551 427.458 39.2526 427.313 38.8777C427.167 38.5029 427.175 38.0858 427.334 37.7165C427.474 37.3981 427.718 37.1361 428.025 36.973C428.812 36.5917 429.68 36.4085 430.553 36.4394C432.226 36.4622 433.842 37.0511 435.137 38.1102C435.825 38.6448 436.369 39.3422 436.72 40.1397C436.83 40.4045 436.864 40.6951 436.816 40.978C436.768 41.2609 436.641 41.5245 436.45 41.7384C436.259 41.9524 436.011 42.108 435.736 42.1873C435.46 42.2666 435.168 42.2663 434.892 42.1866L434.551 42.0816Z" fill="#515979"/>
<path d="M444.042 55.4919C443.815 54.9671 443.64 54.4684 443.456 53.9611L442.905 52.4565L442.354 50.9431C442.17 50.4357 441.986 49.9459 441.82 49.3948L441.724 49.0449C441.668 48.8542 441.649 48.6542 441.67 48.4565C441.691 48.2587 441.751 48.067 441.846 47.8924C441.941 47.7177 442.069 47.5635 442.224 47.4385C442.379 47.3136 442.557 47.2203 442.747 47.1641C443.081 47.0619 443.441 47.0805 443.762 47.2166C444.564 47.569 445.264 48.1163 445.8 48.8087C446.337 49.4378 446.763 50.1537 447.06 50.9256C447.349 51.701 447.5 52.5211 447.506 53.3487C447.542 54.2227 447.358 55.0917 446.973 55.8768C446.788 56.2348 446.468 56.505 446.085 56.6279C445.701 56.7509 445.284 56.7167 444.926 56.5329C444.616 56.3732 444.371 56.1102 444.235 55.7893L444.042 55.4919Z" fill="#515979"/>
<path d="M436.318 61.8865C436.047 61.887 435.782 61.803 435.561 61.6462C435.34 61.4894 435.174 61.2676 435.084 61.0117C434.636 59.9864 433.818 59.168 432.793 58.7198C432.63 58.6624 432.48 58.5735 432.352 58.4582C432.224 58.3429 432.12 58.2035 432.045 58.048C431.971 57.8924 431.928 57.7237 431.919 57.5516C431.91 57.3794 431.935 57.2072 431.992 57.0446C432.05 56.8821 432.138 56.7324 432.254 56.6042C432.369 56.476 432.508 56.3718 432.664 56.2975C432.819 56.2231 432.988 56.1802 433.16 56.171C433.332 56.1619 433.505 56.1868 433.667 56.2442C434.548 56.5962 435.348 57.1235 436.019 57.7942C436.689 58.4649 437.217 59.2649 437.569 60.1457C437.683 60.474 437.663 60.8343 437.512 61.1476C437.361 61.4609 437.092 61.7015 436.764 61.8165C436.621 61.8663 436.47 61.89 436.318 61.8865Z" fill="#515979"/>
<path d="M438.172 60.0056C440.588 60.0056 442.546 58.0474 442.546 55.6318C442.546 53.2162 440.588 51.2579 438.172 51.2579C435.757 51.2579 433.799 53.2162 433.799 55.6318C433.799 58.0474 435.757 60.0056 438.172 60.0056Z" fill="#515979"/>
<path d="M438.951 57.4952C439.555 57.4952 440.044 57.0056 440.044 56.4017C440.044 55.7978 439.555 55.3082 438.951 55.3082C438.347 55.3082 437.857 55.7978 437.857 56.4017C437.857 57.0056 438.347 57.4952 438.951 57.4952Z" fill="white"/>
<path d="M426.424 51.9928C426.154 51.9908 425.891 51.9058 425.67 51.7494C425.449 51.593 425.282 51.3726 425.191 51.1181C424.749 50.0937 423.932 49.2769 422.908 48.8349C422.579 48.7189 422.311 48.4772 422.16 48.1631C422.01 47.8489 421.991 47.488 422.107 47.1597C422.223 46.8314 422.465 46.5627 422.779 46.4126C423.093 46.2625 423.454 46.2433 423.782 46.3593C424.659 46.7087 425.455 47.2335 426.121 47.9013C426.787 48.5692 427.31 49.3661 427.658 50.2433C427.773 50.5728 427.752 50.9343 427.602 51.249C427.451 51.5637 427.182 51.806 426.853 51.9228C426.714 51.9674 426.57 51.991 426.424 51.9928V51.9928Z" fill="#515979"/>
<path d="M428.279 50.1033C430.694 50.1033 432.653 48.1451 432.653 45.7294C432.653 43.3138 430.694 41.3556 428.279 41.3556C425.863 41.3556 423.905 43.3138 423.905 45.7294C423.905 48.1451 425.863 50.1033 428.279 50.1033Z" fill="#515979"/>
<path d="M429.048 47.6015C429.652 47.6015 430.142 47.1119 430.142 46.508C430.142 45.9041 429.652 45.4146 429.048 45.4146C428.445 45.4146 427.955 45.9041 427.955 46.508C427.955 47.1119 428.445 47.6015 429.048 47.6015Z" fill="white"/>
<path d="M448.031 137.467C447.798 137.467 447.566 137.438 447.34 137.379L433.737 133.661C433.399 133.576 433.082 133.424 432.803 133.215C432.525 133.006 432.291 132.743 432.115 132.442C431.939 132.141 431.824 131.808 431.778 131.463C431.732 131.118 431.756 130.766 431.847 130.43C431.938 130.094 432.095 129.779 432.309 129.504C432.524 129.229 432.79 129 433.094 128.829C433.398 128.658 433.733 128.55 434.079 128.51C434.425 128.47 434.776 128.499 435.111 128.596L448.722 132.314C449.332 132.484 449.86 132.869 450.209 133.398C450.558 133.926 450.703 134.563 450.619 135.191C450.535 135.819 450.227 136.395 449.751 136.813C449.275 137.231 448.664 137.463 448.031 137.467V137.467Z" fill="#EF7D7D"/>
<path d="M414.011 171.486C413.465 171.49 412.932 171.324 412.485 171.01C412.038 170.697 411.7 170.252 411.518 169.737L407.144 156.747C406.924 156.085 406.975 155.364 407.287 154.74C407.599 154.117 408.145 153.643 408.806 153.422C409.468 153.202 410.189 153.253 410.813 153.565C411.436 153.877 411.91 154.423 412.13 155.085L416.461 168.075C416.57 168.402 416.614 168.748 416.59 169.092C416.566 169.437 416.474 169.773 416.319 170.082C416.165 170.391 415.951 170.666 415.69 170.892C415.429 171.118 415.126 171.29 414.798 171.399C414.542 171.465 414.276 171.495 414.011 171.486Z" fill="#EF7D7D"/>
<path d="M435.041 157.884C434.345 157.883 433.678 157.606 433.186 157.114L423.293 147.212C422.829 146.714 422.577 146.056 422.589 145.376C422.601 144.696 422.876 144.048 423.357 143.567C423.838 143.086 424.486 142.811 425.166 142.799C425.846 142.787 426.504 143.039 427.002 143.503L436.895 153.396C437.265 153.763 437.517 154.231 437.62 154.741C437.723 155.252 437.671 155.781 437.473 156.262C437.274 156.743 436.936 157.154 436.503 157.443C436.07 157.732 435.561 157.885 435.041 157.884V157.884Z" fill="#EF7D7D"/>
<path d="M350.608 49.3684C350.033 49.3676 349.474 49.178 349.017 48.8287C348.561 48.4795 348.231 47.9899 348.08 47.4352L344.362 33.78C344.179 33.1084 344.27 32.3914 344.615 31.7869C344.96 31.1823 345.532 30.7398 346.203 30.5565C346.875 30.3732 347.592 30.4642 348.196 30.8096C348.801 31.1549 349.244 31.7262 349.427 32.3979L353.145 46.0093C353.327 46.6809 353.234 47.3974 352.888 48.0011C352.542 48.6047 351.97 49.0462 351.299 49.2285C351.076 49.3053 350.843 49.3523 350.608 49.3684V49.3684Z" fill="#EF7D7D"/>
<path d="M325.869 74.0632C325.587 74.0631 325.307 74.0189 325.038 73.932L312.048 69.6019C311.715 69.4979 311.406 69.3285 311.139 69.1036C310.872 68.8788 310.653 68.6029 310.494 68.2923C310.335 67.9816 310.239 67.6423 310.213 67.2944C310.187 66.9464 310.23 66.5967 310.341 66.2657C310.451 65.9347 310.627 65.629 310.857 65.3666C311.087 65.1043 311.367 64.8904 311.681 64.7376C311.995 64.5847 312.336 64.496 312.684 64.4766C313.032 64.4572 313.381 64.5074 313.71 64.6245L326.7 68.9983C327.288 69.1982 327.785 69.5998 328.105 70.1317C328.424 70.6637 328.545 71.2916 328.445 71.9041C328.346 72.5165 328.032 73.0738 327.561 73.4771C327.089 73.8804 326.49 74.1036 325.869 74.107V74.0632Z" fill="#EF7D7D"/>
<path d="M336.384 58.5974C335.69 58.5991 335.023 58.3254 334.53 57.8363L324.592 47.9339C324.1 47.4409 323.824 46.7727 323.825 46.0763C323.826 45.3799 324.104 44.7123 324.597 44.2205C325.09 43.7287 325.758 43.4528 326.454 43.4536C327.151 43.4544 327.818 43.7319 328.31 44.2249L338.239 54.1185C338.605 54.4855 338.855 54.9529 338.956 55.4617C339.057 55.9705 339.005 56.4978 338.806 56.977C338.608 57.4563 338.272 57.8659 337.841 58.1543C337.41 58.4427 336.903 58.5969 336.384 58.5974V58.5974Z" fill="#EF7D7D"/>
<path d="M703.862 44.2759H552.138C546.691 44.2759 542.276 48.6913 542.276 54.1379V152.759C542.276 158.205 546.691 162.621 552.138 162.621H703.862C709.309 162.621 713.724 158.205 713.724 152.759V54.1379C713.724 48.6913 709.309 44.2759 703.862 44.2759Z" fill="white"/>
<path d="M703.862 46.5517C705.874 46.5517 707.804 47.351 709.226 48.7737C710.649 50.1964 711.448 52.1259 711.448 54.1379V152.759C711.448 154.771 710.649 156.7 709.226 158.123C707.804 159.546 705.874 160.345 703.862 160.345H552.138C550.126 160.345 548.196 159.546 546.774 158.123C545.351 156.7 544.552 154.771 544.552 152.759V54.1379C544.552 52.1259 545.351 50.1964 546.774 48.7737C548.196 47.351 550.126 46.5517 552.138 46.5517H703.862ZM703.862 42H552.138C548.919 42 545.831 43.2788 543.555 45.5551C541.279 47.8314 540 50.9188 540 54.1379V152.759C540 155.978 541.279 159.065 543.555 161.341C545.831 163.618 548.919 164.897 552.138 164.897H703.862C707.081 164.897 710.169 163.618 712.445 161.341C714.721 159.065 716 155.978 716 152.759V54.1379C716 50.9188 714.721 47.8314 712.445 45.5551C710.169 43.2788 707.081 42 703.862 42V42Z" fill="#515979"/>
<path d="M544.552 70.069C543.948 70.069 543.369 69.8292 542.942 69.4024C542.516 68.9756 542.276 68.3967 542.276 67.7931V54.1379C542.276 51.5224 543.315 49.0139 545.164 47.1644C547.014 45.3149 549.522 44.2759 552.138 44.2759H703.862C706.478 44.2759 708.986 45.3149 710.836 47.1644C712.685 49.0139 713.724 51.5224 713.724 54.1379V67.7931C713.724 68.3967 713.484 68.9756 713.058 69.4024C712.631 69.8292 712.052 70.069 711.448 70.069H544.552Z" fill="#667683"/>
<path d="M703.862 46.5517C705.874 46.5517 707.804 47.351 709.226 48.7737C710.649 50.1964 711.448 52.1259 711.448 54.1379V67.7931H544.552V54.1379C544.552 52.1259 545.351 50.1964 546.774 48.7737C548.196 47.351 550.126 46.5517 552.138 46.5517H703.862ZM703.862 42H552.138C548.919 42 545.831 43.2788 543.555 45.5551C541.279 47.8314 540 50.9188 540 54.1379V67.7931C540 69.0003 540.48 70.158 541.333 71.0117C542.187 71.8653 543.345 72.3448 544.552 72.3448H711.448C712.655 72.3448 713.813 71.8653 714.667 71.0117C715.52 70.158 716 69.0003 716 67.7931V54.1379C716 50.9188 714.721 47.8314 712.445 45.5551C710.169 43.2788 707.081 42 703.862 42V42Z" fill="#515979"/>
<path d="M612.828 62.4828C611.419 62.4828 610.068 61.9233 609.073 60.9274C608.077 59.9315 607.517 58.5808 607.517 57.1724C607.517 55.764 608.077 54.4133 609.073 53.4174C610.068 52.4215 611.419 51.8621 612.828 51.8621H699.31C700.719 51.8621 702.069 52.4215 703.065 53.4174C704.061 54.4133 704.621 55.764 704.621 57.1724C704.621 58.5808 704.061 59.9315 703.065 60.9274C702.069 61.9233 700.719 62.4828 699.31 62.4828H612.828Z" fill="white"/>
<path d="M699.31 54.1379C700.115 54.1379 700.887 54.4576 701.456 55.0267C702.025 55.5958 702.345 56.3676 702.345 57.1724C702.345 57.9772 702.025 58.749 701.456 59.3181C700.887 59.8872 700.115 60.2069 699.31 60.2069H612.828C612.023 60.2069 611.251 59.8872 610.682 59.3181C610.113 58.749 609.793 57.9772 609.793 57.1724C609.793 56.3676 610.113 55.5958 610.682 55.0267C611.251 54.4576 612.023 54.1379 612.828 54.1379H699.31ZM699.31 49.5862H612.828C610.816 49.5862 608.886 50.3854 607.463 51.8081C606.041 53.2308 605.241 55.1604 605.241 57.1724C605.241 59.1844 606.041 61.114 607.463 62.5366C608.886 63.9593 610.816 64.7586 612.828 64.7586H699.31C701.322 64.7586 703.252 63.9593 704.675 62.5366C706.097 61.114 706.897 59.1844 706.897 57.1724C706.897 55.1604 706.097 53.2308 704.675 51.8081C703.252 50.3854 701.322 49.5862 699.31 49.5862Z" fill="#515979"/>
<path d="M556.69 62.4827C559.623 62.4827 562 60.1052 562 57.1724C562 54.2396 559.623 51.8621 556.69 51.8621C553.757 51.8621 551.379 54.2396 551.379 57.1724C551.379 60.1052 553.757 62.4827 556.69 62.4827Z" fill="#EF7D7D"/>
<path d="M556.69 54.1379C557.29 54.1379 557.877 54.3159 558.376 54.6493C558.875 54.9827 559.263 55.4567 559.493 56.0111C559.723 56.5656 559.783 57.1758 559.666 57.7644C559.549 58.353 559.26 58.8937 558.835 59.3181C558.411 59.7425 557.87 60.0315 557.282 60.1486C556.693 60.2657 556.083 60.2056 555.528 59.9759C554.974 59.7462 554.5 59.3573 554.167 58.8583C553.833 58.3592 553.655 57.7726 553.655 57.1724C553.655 56.3676 553.975 55.5958 554.544 55.0267C555.113 54.4576 555.885 54.1379 556.69 54.1379V54.1379ZM556.69 49.5862C555.189 49.5862 553.723 50.0311 552.475 50.8647C551.227 51.6983 550.255 52.8831 549.681 54.2693C549.107 55.6555 548.957 57.1808 549.249 58.6524C549.542 60.124 550.264 61.4757 551.325 62.5366C552.386 63.5976 553.738 64.3201 555.21 64.6128C556.681 64.9055 558.207 64.7553 559.593 64.1811C560.979 63.6069 562.164 62.6346 562.997 61.3871C563.831 60.1395 564.276 58.6728 564.276 57.1724C564.276 55.1604 563.477 53.2308 562.054 51.8081C560.631 50.3854 558.702 49.5862 556.69 49.5862Z" fill="#515979"/>
<path d="M574.897 62.4827C577.829 62.4827 580.207 60.1052 580.207 57.1724C580.207 54.2396 577.829 51.8621 574.897 51.8621C571.964 51.8621 569.586 54.2396 569.586 57.1724C569.586 60.1052 571.964 62.4827 574.897 62.4827Z" fill="#FFE8A0"/>
<path d="M574.897 54.1379C575.497 54.1379 576.083 54.3159 576.582 54.6493C577.081 54.9827 577.47 55.4567 577.7 56.0111C577.93 56.5656 577.99 57.1758 577.873 57.7644C577.756 58.353 577.467 58.8937 577.042 59.3181C576.618 59.7425 576.077 60.0315 575.489 60.1486C574.9 60.2657 574.29 60.2056 573.735 59.9759C573.181 59.7462 572.707 59.3573 572.373 58.8583C572.04 58.3592 571.862 57.7726 571.862 57.1724C571.862 56.3676 572.182 55.5958 572.751 55.0267C573.32 54.4576 574.092 54.1379 574.897 54.1379V54.1379ZM574.897 49.5862C573.396 49.5862 571.929 50.0311 570.682 50.8647C569.434 51.6983 568.462 52.8831 567.888 54.2693C567.314 55.6555 567.163 57.1808 567.456 58.6524C567.749 60.124 568.471 61.4757 569.532 62.5366C570.593 63.5976 571.945 64.3201 573.417 64.6128C574.888 64.9055 576.413 64.7553 577.8 64.1811C579.186 63.6069 580.371 62.6346 581.204 61.3871C582.038 60.1395 582.483 58.6728 582.483 57.1724C582.483 55.1604 581.684 53.2308 580.261 51.8081C578.838 50.3854 576.909 49.5862 574.897 49.5862V49.5862Z" fill="#515979"/>
<path d="M593.103 62.4827C596.036 62.4827 598.414 60.1052 598.414 57.1724C598.414 54.2396 596.036 51.8621 593.103 51.8621C590.171 51.8621 587.793 54.2396 587.793 57.1724C587.793 60.1052 590.171 62.4827 593.103 62.4827Z" fill="#7DDF96"/>
<path d="M593.103 54.1379C593.704 54.1379 594.29 54.3159 594.789 54.6493C595.288 54.9827 595.677 55.4567 595.907 56.0111C596.137 56.5656 596.197 57.1758 596.08 57.7644C595.963 58.353 595.674 58.8937 595.249 59.3181C594.825 59.7425 594.284 60.0315 593.695 60.1486C593.107 60.2657 592.497 60.2056 591.942 59.9759C591.388 59.7462 590.914 59.3573 590.58 58.8583C590.247 58.3592 590.069 57.7726 590.069 57.1724C590.069 56.3676 590.389 55.5958 590.958 55.0267C591.527 54.4576 592.299 54.1379 593.103 54.1379V54.1379ZM593.103 49.5862C591.603 49.5862 590.136 50.0311 588.889 50.8647C587.641 51.6983 586.669 52.8831 586.095 54.2693C585.52 55.6555 585.37 57.1808 585.663 58.6524C585.956 60.124 586.678 61.4757 587.739 62.5366C588.8 63.5976 590.152 64.3201 591.623 64.6128C593.095 64.9055 594.62 64.7553 596.007 64.1811C597.393 63.6069 598.578 62.6346 599.411 61.3871C600.245 60.1395 600.69 58.6728 600.69 57.1724C600.69 55.1604 599.89 53.2308 598.468 51.8081C597.045 50.3854 595.115 49.5862 593.103 49.5862Z" fill="#515979"/>
<path d="M561.241 112.779C559.372 112.774 557.546 112.216 555.992 111.175C554.439 110.135 553.228 108.658 552.511 106.932C551.795 105.205 551.604 103.305 551.965 101.47C552.325 99.6356 553.219 97.9485 554.535 96.6207L569.586 81.5697C571.39 79.9241 573.759 79.0377 576.2 79.095C578.641 79.1524 580.966 80.149 582.69 81.8774C584.415 83.6059 585.406 85.9329 585.458 88.374C585.51 90.8151 584.618 93.182 582.968 94.9821L567.948 110.003C567.069 110.886 566.024 111.586 564.873 112.063C563.721 112.539 562.487 112.783 561.241 112.779V112.779Z" fill="#F6CB9F"/>
<path d="M576.262 80.6897C578.274 80.6902 580.203 81.4897 581.625 82.9125V82.9125C583.048 84.3351 583.847 86.2644 583.847 88.2759C583.847 90.2875 583.048 92.2168 581.625 93.6394L566.605 108.66C565.182 110.082 563.253 110.881 561.241 110.881C559.23 110.881 557.301 110.082 555.878 108.66V108.66C554.456 107.237 553.657 105.308 553.657 103.297C553.657 101.285 554.456 99.3558 555.878 97.9332L570.899 82.9125C572.321 81.4897 574.25 80.6902 576.262 80.6897V80.6897ZM576.262 76.8966C574.767 76.8931 573.286 77.1855 571.905 77.7571C570.523 78.3287 569.269 79.1681 568.213 80.227L553.192 95.2477C551.058 97.3824 549.858 100.278 549.858 103.297C549.858 106.316 551.058 109.211 553.192 111.346C555.327 113.48 558.222 114.68 561.241 114.68C564.26 114.68 567.156 113.48 569.29 111.346L584.311 96.3249C585.903 94.7335 586.988 92.7054 587.428 90.4974C587.867 88.2893 587.642 86.0005 586.78 83.9206C585.918 81.8406 584.459 80.0631 582.587 78.8128C580.714 77.5625 578.513 76.8956 576.262 76.8966V76.8966Z" fill="#515979"/>
<path d="M573.577 87.1076C574.415 87.1076 575.094 86.4283 575.094 85.5904C575.094 84.7524 574.415 84.0731 573.577 84.0731C572.739 84.0731 572.059 84.7524 572.059 85.5904C572.059 86.4283 572.739 87.1076 573.577 87.1076Z" fill="#EBAF8C"/>
<path d="M578.94 92.4787C579.778 92.4787 580.457 91.7994 580.457 90.9615C580.457 90.1235 579.778 89.4442 578.94 89.4442C578.102 89.4442 577.423 90.1235 577.423 90.9615C577.423 91.7994 578.102 92.4787 578.94 92.4787Z" fill="#EBAF8C"/>
<path d="M574.115 91.94C574.953 91.94 575.632 91.2607 575.632 90.4228C575.632 89.5848 574.953 88.9055 574.115 88.9055C573.277 88.9055 572.598 89.5848 572.598 90.4228C572.598 91.2607 573.277 91.94 574.115 91.94Z" fill="#EBAF8C"/>
<path d="M578.409 87.6463C579.247 87.6463 579.926 86.967 579.926 86.1291C579.926 85.2911 579.247 84.6118 578.409 84.6118C577.571 84.6118 576.892 85.2911 576.892 86.1291C576.892 86.967 577.571 87.6463 578.409 87.6463Z" fill="#EBAF8C"/>
<path d="M569.29 91.4014C570.128 91.4014 570.808 90.7221 570.808 89.8842C570.808 89.0462 570.128 88.3669 569.29 88.3669C568.452 88.3669 567.773 89.0462 567.773 89.8842C567.773 90.7221 568.452 91.4014 569.29 91.4014Z" fill="#EBAF8C"/>
<path d="M574.654 96.7648C575.492 96.7648 576.171 96.0855 576.171 95.2476C576.171 94.4096 575.492 93.7303 574.654 93.7303C573.816 93.7303 573.137 94.4096 573.137 95.2476C573.137 96.0855 573.816 96.7648 574.654 96.7648Z" fill="#EBAF8C"/>
<path d="M562.85 97.8421C563.688 97.8421 564.367 97.1628 564.367 96.3249C564.367 95.4869 563.688 94.8076 562.85 94.8076C562.012 94.8076 561.332 95.4869 561.332 96.3249C561.332 97.1628 562.012 97.8421 562.85 97.8421Z" fill="#EBAF8C"/>
<path d="M568.213 103.206C569.051 103.206 569.73 102.526 569.73 101.688C569.73 100.85 569.051 100.171 568.213 100.171C567.375 100.171 566.696 100.85 566.696 101.688C566.696 102.526 567.375 103.206 568.213 103.206Z" fill="#EBAF8C"/>
<path d="M563.388 102.667C564.226 102.667 564.906 101.988 564.906 101.15C564.906 100.312 564.226 99.6324 563.388 99.6324C562.55 99.6324 561.871 100.312 561.871 101.15C561.871 101.988 562.55 102.667 563.388 102.667Z" fill="#EBAF8C"/>
<path d="M559.094 106.961C559.932 106.961 560.612 106.281 560.612 105.444C560.612 104.606 559.932 103.926 559.094 103.926C558.257 103.926 557.577 104.606 557.577 105.444C557.577 106.281 558.257 106.961 559.094 106.961Z" fill="#EBAF8C"/>
<path d="M558.556 102.128C559.394 102.128 560.073 101.449 560.073 100.611C560.073 99.773 559.394 99.0938 558.556 99.0938C557.718 99.0938 557.039 99.773 557.039 100.611C557.039 101.449 557.718 102.128 558.556 102.128Z" fill="#EBAF8C"/>
<path d="M563.927 107.492C564.765 107.492 565.444 106.812 565.444 105.974C565.444 105.136 564.765 104.457 563.927 104.457C563.089 104.457 562.41 105.136 562.41 105.974C562.41 106.812 563.089 107.492 563.927 107.492Z" fill="#EBAF8C"/>
<path d="M596.897 100.482C597.944 100.482 598.793 99.633 598.793 98.5855C598.793 97.5381 597.944 96.689 596.897 96.689C595.849 96.689 595 97.5381 595 98.5855C595 99.633 595.849 100.482 596.897 100.482Z" fill="#FDE1D9"/>
<path d="M601.069 108.827C602.116 108.827 602.966 107.978 602.966 106.93C602.966 105.883 602.116 105.034 601.069 105.034C600.022 105.034 599.172 105.883 599.172 106.93C599.172 107.978 600.022 108.827 601.069 108.827Z" fill="#FDE1D9"/>
<path d="M592.724 108.827C593.772 108.827 594.621 107.978 594.621 106.93C594.621 105.883 593.772 105.034 592.724 105.034C591.677 105.034 590.828 105.883 590.828 106.93C590.828 107.978 591.677 108.827 592.724 108.827Z" fill="#FDE1D9"/>
<path d="M659.103 100.482C660.151 100.482 661 99.633 661 98.5855C661 97.5381 660.151 96.689 659.103 96.689C658.056 96.689 657.207 97.5381 657.207 98.5855C657.207 99.633 658.056 100.482 659.103 100.482Z" fill="#FDE1D9"/>
<path d="M663.276 108.827C664.323 108.827 665.172 107.978 665.172 106.93C665.172 105.883 664.323 105.034 663.276 105.034C662.228 105.034 661.379 105.883 661.379 106.93C661.379 107.978 662.228 108.827 663.276 108.827Z" fill="#FDE1D9"/>
<path d="M654.931 108.827C655.978 108.827 656.828 107.978 656.828 106.93C656.828 105.883 655.978 105.034 654.931 105.034C653.884 105.034 653.034 105.883 653.034 106.93C653.034 107.978 653.884 108.827 654.931 108.827Z" fill="#FDE1D9"/>
<path d="M614.345 118.241C613.842 118.241 613.359 118.042 613.004 117.686C612.648 117.33 612.448 116.848 612.448 116.345C612.448 112.22 614.087 108.265 617.003 105.348C619.92 102.432 623.875 100.793 628 100.793C632.125 100.793 636.08 102.432 638.997 105.348C641.913 108.265 643.552 112.22 643.552 116.345C643.552 116.848 643.352 117.33 642.996 117.686C642.641 118.042 642.158 118.241 641.655 118.241H614.345Z" fill="#515979"/>
<path d="M628 102.69C631.622 102.69 635.095 104.128 637.656 106.689C640.217 109.25 641.655 112.723 641.655 116.345H614.345C614.345 112.723 615.784 109.25 618.344 106.689C620.905 104.128 624.378 102.69 628 102.69V102.69ZM628 98.8966C623.372 98.8966 618.934 100.735 615.662 104.007C612.39 107.279 610.552 111.717 610.552 116.345C610.552 117.351 610.951 118.316 611.663 119.027C612.374 119.738 613.339 120.138 614.345 120.138H641.655C642.661 120.138 643.626 119.738 644.337 119.027C645.049 118.316 645.448 117.351 645.448 116.345C645.448 111.717 643.61 107.279 640.338 104.007C637.066 100.735 632.628 98.8966 628 98.8966V98.8966Z" fill="#515979"/>
<path d="M617.448 81.0917C617.106 81.1903 616.628 81.2207 616.234 81.3041C615.839 81.3875 615.415 81.4482 615.028 81.5241C614.301 81.6792 613.59 81.9001 612.903 82.1841C612.276 82.4396 611.684 82.7763 611.143 83.1855C610.53 83.6536 609.947 84.1604 609.399 84.7027L609.163 84.9151C608.855 85.1849 608.452 85.3219 608.043 85.2964C607.634 85.2708 607.251 85.0847 606.979 84.7786C606.828 84.6044 606.717 84.3994 606.655 84.1779C606.592 83.9564 606.578 83.7238 606.615 83.4965C606.804 82.2746 607.329 81.1295 608.132 80.1889C608.319 79.9297 608.538 79.6952 608.784 79.491C609.027 79.2862 609.255 79.051 609.543 78.8689C609.831 78.6869 610.081 78.52 610.355 78.3606C611.713 77.6366 613.239 77.2834 614.777 77.3365C615.357 77.3459 615.934 77.4171 616.499 77.5489C617.083 77.676 617.651 77.8694 618.191 78.1255C618.469 78.2591 618.7 78.4744 618.853 78.7427C619.006 79.011 619.073 79.3195 619.046 79.627C619.019 79.9345 618.898 80.2264 618.701 80.4637C618.503 80.701 618.238 80.8725 617.941 80.9551L617.448 81.0917Z" fill="#515979"/>
<path d="M637.862 78.1406C638.402 77.8846 638.97 77.6911 639.554 77.5641C640.119 77.4323 640.696 77.3611 641.276 77.3517C642.813 77.3129 644.333 77.6792 645.683 78.4137C645.957 78.573 646.23 78.7475 646.495 78.922C646.761 79.0965 646.988 79.3393 647.254 79.5441C647.5 79.7483 647.719 79.9828 647.906 80.242C648.709 81.1826 649.234 82.3277 649.423 83.5496C649.498 83.8697 649.467 84.2053 649.334 84.506C649.202 84.8067 648.975 85.0562 648.688 85.217C648.402 85.3779 648.071 85.4413 647.745 85.3978C647.419 85.3543 647.116 85.2062 646.882 84.9758L646.639 84.7558C646.091 84.2135 645.508 83.7067 644.894 83.2386C644.344 82.8158 643.739 82.4688 643.097 82.2068C642.41 81.9229 641.699 81.702 640.972 81.5468C640.586 81.471 640.214 81.3875 639.766 81.3268C639.319 81.2662 638.894 81.213 638.552 81.1144L638.105 80.993C637.717 80.8882 637.386 80.6336 637.185 80.2851C636.985 79.9366 636.931 79.5227 637.035 79.1344C637.094 78.9192 637.198 78.719 637.34 78.5475C637.483 78.3761 637.661 78.2373 637.862 78.1406Z" fill="#515979"/>
<path d="M644.333 97.7587C644.084 97.7595 643.837 97.711 643.606 97.616C643.376 97.5209 643.167 97.3812 642.99 97.2049L635.404 89.6187C635.048 89.2625 634.848 88.7795 634.848 88.2759C634.848 87.7723 635.048 87.2893 635.404 86.9331C635.76 86.577 636.243 86.377 636.747 86.377C637.251 86.377 637.734 86.577 638.09 86.9331L645.676 94.5194C645.942 94.7846 646.123 95.1228 646.196 95.4912C646.27 95.8595 646.232 96.2414 646.089 96.5883C645.945 96.9353 645.701 97.2318 645.389 97.4401C645.076 97.6485 644.709 97.7593 644.333 97.7587V97.7587Z" fill="#515979"/>
<path d="M636.747 97.7587C636.498 97.7595 636.251 97.711 636.02 97.616C635.79 97.5209 635.58 97.3812 635.404 97.2049C635.051 96.8471 634.853 96.3647 634.853 95.8621C634.853 95.3595 635.051 94.8771 635.404 94.5194L642.99 86.9331C643.346 86.577 643.83 86.377 644.333 86.377C644.837 86.377 645.32 86.577 645.676 86.9331C646.032 87.2893 646.232 87.7723 646.232 88.2759C646.232 88.7795 646.032 89.2625 645.676 89.6187L638.09 97.2049C637.913 97.3812 637.704 97.5209 637.474 97.616C637.243 97.711 636.996 97.7595 636.747 97.7587V97.7587Z" fill="#515979"/>
<path d="M619.253 97.7587C619.004 97.7595 618.757 97.711 618.526 97.616C618.296 97.5209 618.087 97.3812 617.91 97.2049L610.324 89.6187C609.968 89.2625 609.768 88.7795 609.768 88.2759C609.768 87.7723 609.968 87.2893 610.324 86.9331C610.68 86.577 611.163 86.377 611.667 86.377C612.171 86.377 612.654 86.577 613.01 86.9331L620.596 94.5194C620.949 94.8771 621.147 95.3595 621.147 95.8621C621.147 96.3647 620.949 96.8471 620.596 97.2049C620.42 97.3812 620.21 97.5209 619.98 97.616C619.749 97.711 619.502 97.7595 619.253 97.7587Z" fill="#515979"/>
<path d="M611.667 97.7587C611.418 97.7595 611.171 97.711 610.94 97.616C610.71 97.5209 610.5 97.3812 610.324 97.2049C609.971 96.8471 609.773 96.3647 609.773 95.8621C609.773 95.3595 609.971 94.8771 610.324 94.5194L617.91 86.9331C618.087 86.7568 618.296 86.6169 618.526 86.5215C618.757 86.4261 619.004 86.377 619.253 86.377C619.502 86.377 619.749 86.4261 619.98 86.5215C620.21 86.6169 620.42 86.7568 620.596 86.9331C620.772 87.1095 620.912 87.3188 621.008 87.5492C621.103 87.7796 621.152 88.0265 621.152 88.2759C621.152 88.5253 621.103 88.7722 621.008 89.0026C620.912 89.233 620.772 89.4423 620.596 89.6187L613.01 97.2049C612.833 97.3812 612.624 97.5209 612.394 97.616C612.163 97.711 611.916 97.7595 611.667 97.7587V97.7587Z" fill="#515979"/>
<path d="M613.92 137.017H608.799V142.138H613.92V137.017Z" fill="#D1D6DA"/>
<path d="M603.679 137.017H598.558V142.138H603.679V137.017Z" fill="#D1D6DA"/>
<path d="M603.679 131.897H598.558V137.017H603.679V131.897Z" fill="#D1D6DA"/>
<path d="M603.679 142.138H598.558V147.259H603.679V142.138Z" fill="#D1D6DA"/>
<path d="M608.799 142.138H603.679V147.259H608.799V142.138Z" fill="#D1D6DA"/>
<path d="M616.477 142.138H608.799V147.259H616.477V142.138Z" fill="#D1D6DA"/>
<path d="M613.92 147.259H608.799V152.379H613.92V147.259Z" fill="#D1D6DA"/>
<path d="M634.403 137.017H629.282V142.138H634.403V137.017Z" fill="#D1D6DA"/>
<path d="M624.161 137.017H619.041V142.138H624.161V137.017Z" fill="#D1D6DA"/>
<path d="M624.161 142.138H619.041V147.259H624.161V142.138Z" fill="#D1D6DA"/>
<path d="M634.403 147.259H619.041V152.379H634.403V147.259Z" fill="#D1D6DA"/>
<path d="M634.403 131.897H619.041V137.017H634.403V131.897Z" fill="#D1D6DA"/>
<path d="M634.403 142.138H629.282V147.259H634.403V142.138Z" fill="#D1D6DA"/>
<path d="M654.885 137.017H649.765V142.138H654.885V137.017Z" fill="#D1D6DA"/>
<path d="M644.644 137.017H639.523V142.138H644.644V137.017Z" fill="#D1D6DA"/>
<path d="M644.644 131.897H639.523V137.017H644.644V131.897Z" fill="#D1D6DA"/>
<path d="M644.644 142.138H639.523V147.259H644.644V142.138Z" fill="#D1D6DA"/>
<path d="M649.765 142.138H644.644V147.259H649.765V142.138Z" fill="#D1D6DA"/>
<path d="M657.442 142.138H649.765V147.259H657.442V142.138Z" fill="#D1D6DA"/>
<path d="M654.885 147.259H649.765V152.379H654.885V147.259Z" fill="#D1D6DA"/>
<path d="M634.828 133.414C632.514 133.412 630.297 132.492 628.661 130.856C627.025 129.221 626.105 127.003 626.103 124.69V116.345C626.103 115.842 626.303 115.359 626.659 115.004C627.015 114.648 627.497 114.448 628 114.448H641.655C642.158 114.448 642.641 114.648 642.996 115.004C643.352 115.359 643.552 115.842 643.552 116.345V124.69C643.55 127.003 642.63 129.221 640.994 130.856C639.359 132.492 637.141 133.412 634.828 133.414V133.414Z" fill="#EF7D7D"/>
<path d="M641.655 116.345V124.69C641.655 126.5 640.936 128.237 639.655 129.518C638.375 130.798 636.638 131.517 634.828 131.517C633.017 131.517 631.28 130.798 630 129.518C628.719 128.237 628 126.5 628 124.69V116.345H641.655ZM641.655 112.552H628C626.994 112.552 626.029 112.951 625.318 113.663C624.607 114.374 624.207 115.339 624.207 116.345V124.69C624.207 127.506 625.326 130.208 627.318 132.2C629.309 134.191 632.011 135.31 634.828 135.31C637.644 135.31 640.346 134.191 642.338 132.2C644.329 130.208 645.448 127.506 645.448 124.69V116.345C645.448 115.339 645.049 114.374 644.337 113.663C643.626 112.951 642.661 112.552 641.655 112.552Z" fill="#515979"/>
<path d="M631.793 120.138C633.888 120.138 635.586 118.44 635.586 116.345C635.586 114.25 633.888 112.552 631.793 112.552C629.698 112.552 628 114.25 628 116.345C628 118.44 629.698 120.138 631.793 120.138Z" fill="#EF7D7D"/>
<path d="M637.862 120.138C639.957 120.138 641.655 118.44 641.655 116.345C641.655 114.25 639.957 112.552 637.862 112.552C635.767 112.552 634.069 114.25 634.069 116.345C634.069 118.44 635.767 120.138 637.862 120.138Z" fill="#EF7D7D"/>
<path d="M685.42 140.81C685.12 140.811 684.827 140.722 684.578 140.556C684.328 140.39 684.133 140.153 684.018 139.876C683.903 139.6 683.872 139.295 683.93 139.001C683.988 138.707 684.131 138.436 684.343 138.223L689.797 132.769C689.938 132.628 690.106 132.516 690.29 132.44C690.474 132.364 690.671 132.324 690.871 132.324C691.07 132.324 691.268 132.364 691.452 132.44C691.636 132.516 691.803 132.628 691.944 132.769C692.085 132.91 692.197 133.077 692.273 133.261C692.35 133.446 692.389 133.643 692.389 133.842C692.389 134.042 692.35 134.239 692.273 134.423C692.197 134.608 692.085 134.775 691.944 134.916L686.49 140.37C686.205 140.653 685.821 140.811 685.42 140.81Z" fill="#DBDBDB"/>
<path d="M679.495 137.632C679.195 137.632 678.902 137.543 678.653 137.377C678.403 137.211 678.209 136.975 678.093 136.698C677.978 136.421 677.947 136.116 678.005 135.822C678.063 135.528 678.207 135.258 678.418 135.045L686.763 126.7C686.901 126.548 687.069 126.426 687.256 126.34C687.443 126.255 687.645 126.209 687.851 126.204C688.056 126.199 688.26 126.236 688.451 126.313C688.642 126.39 688.815 126.504 688.96 126.65C689.105 126.795 689.219 126.969 689.295 127.16C689.371 127.351 689.407 127.555 689.402 127.761C689.397 127.966 689.349 128.169 689.264 128.355C689.178 128.542 689.055 128.709 688.902 128.847L680.557 137.192C680.275 137.472 679.893 137.63 679.495 137.632Z" fill="#DBDBDB"/>
<path d="M208.825 26.0952H55.1746C50.1602 26.0952 46.0952 30.1602 46.0952 35.1746V173.46C46.0952 178.475 50.1602 182.54 55.1746 182.54H208.825C213.84 182.54 217.905 178.475 217.905 173.46V35.1746C217.905 30.1602 213.84 26.0952 208.825 26.0952Z" fill="white"/>
<path d="M208.825 28.1905C210.678 28.1905 212.454 28.9263 213.764 30.2361C215.074 31.5459 215.81 33.3223 215.81 35.1746V173.46C215.81 175.313 215.074 177.089 213.764 178.399C212.454 179.709 210.678 180.444 208.825 180.444H55.1746C53.3223 180.444 51.5459 179.709 50.2361 178.399C48.9263 177.089 48.1905 175.313 48.1905 173.46V35.1746C48.1905 33.3223 48.9263 31.5459 50.2361 30.2361C51.5459 28.9263 53.3223 28.1905 55.1746 28.1905H208.825ZM208.825 24H55.1746C52.2109 24 49.3686 25.1773 47.273 27.273C45.1773 29.3686 44 32.2109 44 35.1746V173.46C44 176.424 45.1773 179.266 47.273 181.362C49.3686 183.458 52.2109 184.635 55.1746 184.635H208.825C211.789 184.635 214.631 183.458 216.727 181.362C218.823 179.266 220 176.424 220 173.46V35.1746C220 32.2109 218.823 29.3686 216.727 27.273C214.631 25.1773 211.789 24 208.825 24V24Z" fill="#515979"/>
<path d="M215.81 49.8413H48.1905C47.0333 49.8413 46.0952 50.7794 46.0952 51.9365V79.8731C46.0952 81.0302 47.0333 81.9683 48.1905 81.9683H215.81C216.967 81.9683 217.905 81.0302 217.905 79.8731V51.9365C217.905 50.7794 216.967 49.8413 215.81 49.8413Z" fill="#F3F9FE"/>
<path d="M215.81 51.9364V79.873H48.1905V51.9364H215.81ZM215.81 47.746H48.1905C47.0791 47.746 46.0132 48.1875 45.2274 48.9733C44.4415 49.7592 44 50.8251 44 51.9364V79.873C44 80.9843 44.4415 82.0502 45.2274 82.8361C46.0132 83.6219 47.0791 84.0634 48.1905 84.0634H215.81C216.921 84.0634 217.987 83.6219 218.773 82.8361C219.559 82.0502 220 80.9843 220 79.873V51.9364C220 50.8251 219.559 49.7592 218.773 48.9733C217.987 48.1875 216.921 47.746 215.81 47.746Z" fill="#515979"/>
<path d="M48.1905 49.8412C47.6348 49.8412 47.1019 49.6205 46.7089 49.2276C46.316 48.8346 46.0952 48.3017 46.0952 47.746V35.1746C46.0952 32.7666 47.0518 30.4572 48.7545 28.7545C50.4572 27.0518 52.7666 26.0952 55.1746 26.0952H208.825C211.233 26.0952 213.543 27.0518 215.245 28.7545C216.948 30.4572 217.905 32.7666 217.905 35.1746V47.746C217.905 48.3017 217.684 48.8346 217.291 49.2276C216.898 49.6205 216.365 49.8412 215.81 49.8412H48.1905Z" fill="#667683"/>
<path d="M208.825 28.1905C210.678 28.1905 212.454 28.9263 213.764 30.2361C215.074 31.5459 215.81 33.3223 215.81 35.1746V47.746H48.1905V35.1746C48.1905 33.3223 48.9263 31.5459 50.2361 30.2361C51.5459 28.9263 53.3223 28.1905 55.1746 28.1905H208.825ZM208.825 24H55.1746C52.2109 24 49.3686 25.1773 47.273 27.273C45.1773 29.3686 44 32.2109 44 35.1746V47.746C44 48.8574 44.4415 49.9233 45.2274 50.7091C46.0132 51.495 47.0791 51.9365 48.1905 51.9365H215.81C216.921 51.9365 217.987 51.495 218.773 50.7091C219.559 49.9233 220 48.8574 220 47.746V35.1746C220 32.2109 218.823 29.3686 216.727 27.273C214.631 25.1773 211.789 24 208.825 24V24Z" fill="#515979"/>
<path d="M111.048 42.8571C109.751 42.8571 108.507 42.342 107.591 41.4252C106.674 40.5084 106.159 39.2648 106.159 37.9682C106.159 36.6716 106.674 35.4281 107.591 34.5113C108.507 33.5944 109.751 33.0793 111.048 33.0793H190.667C191.963 33.0793 193.207 33.5944 194.124 34.5113C195.04 35.4281 195.556 36.6716 195.556 37.9682C195.556 39.2648 195.04 40.5084 194.124 41.4252C193.207 42.342 191.963 42.8571 190.667 42.8571H111.048Z" fill="white"/>
<path d="M190.667 35.1746C191.408 35.1746 192.118 35.4689 192.642 35.9928C193.166 36.5168 193.46 37.2273 193.46 37.9683C193.46 38.7092 193.166 39.4198 192.642 39.9437C192.118 40.4676 191.408 40.7619 190.667 40.7619H111.048C110.307 40.7619 109.596 40.4676 109.072 39.9437C108.548 39.4198 108.254 38.7092 108.254 37.9683C108.254 37.2273 108.548 36.5168 109.072 35.9928C109.596 35.4689 110.307 35.1746 111.048 35.1746H190.667ZM190.667 30.9841H111.048C109.195 30.9841 107.419 31.72 106.109 33.0297C104.799 34.3395 104.063 36.116 104.063 37.9683C104.063 39.8206 104.799 41.597 106.109 42.9068C107.419 44.2166 109.195 44.9524 111.048 44.9524H190.667C192.519 44.9524 194.295 44.2166 195.605 42.9068C196.915 41.597 197.651 39.8206 197.651 37.9683C197.651 36.116 196.915 34.3395 195.605 33.0297C194.295 31.72 192.519 30.9841 190.667 30.9841Z" fill="#515979"/>
<path d="M59.3651 42.8571C62.0651 42.8571 64.254 40.6683 64.254 37.9682C64.254 35.2682 62.0651 33.0793 59.3651 33.0793C56.665 33.0793 54.4762 35.2682 54.4762 37.9682C54.4762 40.6683 56.665 42.8571 59.3651 42.8571Z" fill="#EF7D7D"/>
<path d="M59.3651 35.1746C59.9176 35.1746 60.4577 35.3385 60.9172 35.6454C61.3766 35.9524 61.7346 36.3887 61.9461 36.8992C62.1575 37.4096 62.2128 37.9714 62.1051 38.5133C61.9973 39.0552 61.7312 39.553 61.3405 39.9437C60.9498 40.3344 60.452 40.6004 59.9101 40.7082C59.3682 40.816 58.8065 40.7607 58.296 40.5493C57.7855 40.3378 57.3492 39.9797 57.0422 39.5203C56.7353 39.0609 56.5714 38.5208 56.5714 37.9683C56.5714 37.2273 56.8658 36.5168 57.3897 35.9928C57.9136 35.4689 58.6242 35.1746 59.3651 35.1746V35.1746ZM59.3651 30.9841C57.9838 30.9841 56.6334 31.3937 55.4849 32.1612C54.3364 32.9286 53.4412 34.0194 52.9126 35.2955C52.384 36.5717 52.2457 37.976 52.5152 39.3308C52.7846 40.6856 53.4498 41.93 54.4266 42.9068C55.4033 43.8835 56.6478 44.5487 58.0025 44.8182C59.3573 45.0877 60.7616 44.9494 62.0378 44.4208C63.314 43.8921 64.4047 42.997 65.1722 41.8484C65.9396 40.6999 66.3492 39.3496 66.3492 37.9683C66.3492 36.116 65.6134 34.3395 64.3036 33.0297C62.9938 31.72 61.2174 30.9841 59.3651 30.9841Z" fill="#515979"/>
<path d="M76.127 42.8571C78.827 42.8571 81.0159 40.6683 81.0159 37.9682C81.0159 35.2682 78.827 33.0793 76.127 33.0793C73.4269 33.0793 71.2381 35.2682 71.2381 37.9682C71.2381 40.6683 73.4269 42.8571 76.127 42.8571Z" fill="#FFE8A0"/>
<path d="M76.127 35.1746C76.6795 35.1746 77.2196 35.3385 77.6791 35.6454C78.1385 35.9524 78.4965 36.3887 78.708 36.8992C78.9194 37.4096 78.9747 37.9714 78.867 38.5133C78.7592 39.0552 78.4931 39.553 78.1024 39.9437C77.7117 40.3344 77.2139 40.6004 76.672 40.7082C76.1301 40.816 75.5684 40.7607 75.0579 40.5493C74.5474 40.3378 74.1111 39.9797 73.8041 39.5203C73.4972 39.0609 73.3333 38.5208 73.3333 37.9683C73.3333 37.2273 73.6277 36.5168 74.1516 35.9928C74.6755 35.4689 75.3861 35.1746 76.127 35.1746V35.1746ZM76.127 30.9841C74.7457 30.9841 73.3953 31.3937 72.2468 32.1612C71.0983 32.9286 70.2031 34.0194 69.6745 35.2955C69.1459 36.5717 69.0076 37.976 69.2771 39.3308C69.5465 40.6856 70.2117 41.93 71.1885 42.9068C72.1652 43.8835 73.4097 44.5487 74.7644 44.8182C76.1192 45.0877 77.5235 44.9494 78.7997 44.4208C80.0759 43.8921 81.1666 42.997 81.9341 41.8484C82.7015 40.6999 83.1111 39.3496 83.1111 37.9683C83.1111 36.116 82.3753 34.3395 81.0655 33.0297C79.7557 31.72 77.9793 30.9841 76.127 30.9841V30.9841Z" fill="#515979"/>
<path d="M92.8889 42.8571C95.5889 42.8571 97.7778 40.6683 97.7778 37.9682C97.7778 35.2682 95.5889 33.0793 92.8889 33.0793C90.1888 33.0793 88 35.2682 88 37.9682C88 40.6683 90.1888 42.8571 92.8889 42.8571Z" fill="#7DDF96"/>
<path d="M92.8889 35.1746C93.4414 35.1746 93.9815 35.3385 94.441 35.6454C94.9004 35.9524 95.2584 36.3887 95.4699 36.8992C95.6813 37.4096 95.7367 37.9714 95.6289 38.5133C95.5211 39.0552 95.255 39.553 94.8643 39.9437C94.4736 40.3344 93.9758 40.6004 93.4339 40.7082C92.892 40.816 92.3303 40.7607 91.8198 40.5493C91.3093 40.3378 90.873 39.9797 90.566 39.5203C90.2591 39.0609 90.0952 38.5208 90.0952 37.9683C90.0952 37.2273 90.3896 36.5168 90.9135 35.9928C91.4374 35.4689 92.148 35.1746 92.8889 35.1746V35.1746ZM92.8889 30.9841C91.5076 30.9841 90.1572 31.3937 89.0087 32.1612C87.8602 32.9286 86.965 34.0194 86.4364 35.2955C85.9078 36.5717 85.7695 37.976 86.039 39.3308C86.3084 40.6856 86.9736 41.93 87.9504 42.9068C88.9271 43.8835 90.1716 44.5487 91.5263 44.8182C92.8811 45.0877 94.2854 44.9494 95.5616 44.4208C96.8378 43.8921 97.9286 42.997 98.696 41.8484C99.4634 40.6999 99.873 39.3496 99.873 37.9683C99.873 36.116 99.1372 34.3395 97.8274 33.0297C96.5176 31.72 94.7412 30.9841 92.8889 30.9841Z" fill="#515979"/>
<path d="M76.127 91.0476H62.1587C61.3873 91.0476 60.7619 91.673 60.7619 92.4444C60.7619 93.2159 61.3873 93.8413 62.1587 93.8413H76.127C76.8984 93.8413 77.5238 93.2159 77.5238 92.4444C77.5238 91.673 76.8984 91.0476 76.127 91.0476Z" fill="#515979"/>
<path d="M115.238 102.222H62.1587C61.3873 102.222 60.7619 102.848 60.7619 103.619C60.7619 104.39 61.3873 105.016 62.1587 105.016H115.238C116.01 105.016 116.635 104.39 116.635 103.619C116.635 102.848 116.01 102.222 115.238 102.222Z" fill="#515979"/>
<path d="M101.27 107.81H62.1587C61.3873 107.81 60.7619 108.435 60.7619 109.206C60.7619 109.978 61.3873 110.603 62.1587 110.603H101.27C102.041 110.603 102.667 109.978 102.667 109.206C102.667 108.435 102.041 107.81 101.27 107.81Z" fill="#515979"/>
<path d="M87.3016 96.6349H62.1587C61.3873 96.6349 60.7619 97.2603 60.7619 98.0317C60.7619 98.8032 61.3873 99.4285 62.1587 99.4285H87.3016C88.073 99.4285 88.6984 98.8032 88.6984 98.0317C88.6984 97.2603 88.073 96.6349 87.3016 96.6349Z" fill="#2196F3"/>
<path d="M81.7143 153.905H62.1587C61.3873 153.905 60.7619 154.53 60.7619 155.302C60.7619 156.073 61.3873 156.698 62.1587 156.698H81.7143C82.4857 156.698 83.1111 156.073 83.1111 155.302C83.1111 154.53 82.4857 153.905 81.7143 153.905Z" fill="#515979"/>
<path d="M109.651 165.079H62.1587C61.3873 165.079 60.7619 165.705 60.7619 166.476C60.7619 167.248 61.3873 167.873 62.1587 167.873H109.651C110.422 167.873 111.048 167.248 111.048 166.476C111.048 165.705 110.422 165.079 109.651 165.079Z" fill="#515979"/>
<path d="M101.27 170.667H62.1587C61.3873 170.667 60.7619 171.292 60.7619 172.063C60.7619 172.835 61.3873 173.46 62.1587 173.46H101.27C102.041 173.46 102.667 172.835 102.667 172.063C102.667 171.292 102.041 170.667 101.27 170.667Z" fill="#515979"/>
<path d="M92.8889 159.492H62.1587C61.3873 159.492 60.7619 160.117 60.7619 160.889C60.7619 161.66 61.3873 162.286 62.1587 162.286H92.8889C93.6603 162.286 94.2857 161.66 94.2857 160.889C94.2857 160.117 93.6603 159.492 92.8889 159.492Z" fill="#2196F3"/>
<path d="M67.746 63.4463H61.7746V65.2063H66.007C65.7975 67.6857 63.7371 68.7473 61.8165 68.7473C60.5625 68.7473 59.3598 68.2491 58.4731 67.3624C57.5864 66.4757 57.0882 65.273 57.0882 64.019C57.0882 62.765 57.5864 61.5624 58.4731 60.6756C59.3598 59.7889 60.5625 59.2908 61.8165 59.2908C62.9875 59.3033 64.1094 59.763 64.9524 60.5758L66.1886 59.2977C64.9944 58.139 63.3895 57.5011 61.7257 57.5238C60.8718 57.5302 60.0276 57.7047 59.2411 58.0374C58.4547 58.3701 57.7415 58.8545 57.1423 59.4628C56.543 60.0711 56.0694 60.7915 55.7486 61.5829C55.4278 62.3742 55.2659 63.221 55.2724 64.0749C55.2788 64.9288 55.4533 65.773 55.786 66.5595C56.1187 67.3459 56.6031 68.0591 57.2114 68.6583C57.8197 69.2576 58.5401 69.7311 59.3315 70.052C60.1228 70.3728 60.9696 70.5346 61.8235 70.5282C65.3155 70.5282 67.8508 68.1466 67.8508 64.6197C67.8586 64.2259 67.8235 63.8325 67.746 63.4463V63.4463Z" fill="#2196F3"/>
<path d="M76.8254 66.3588C76.8254 67.1876 76.5796 67.9978 76.1192 68.6869C75.6587 69.3761 75.0043 69.9132 74.2386 70.2303C73.4729 70.5475 72.6303 70.6305 71.8174 70.4688C71.0045 70.3071 70.2579 69.908 69.6718 69.3219C69.0858 68.7359 68.6867 67.9892 68.525 67.1763C68.3633 66.3635 68.4463 65.5209 68.7634 64.7552C69.0806 63.9895 69.6177 63.335 70.3068 62.8746C70.996 62.4141 71.8061 62.1684 72.6349 62.1684C73.1884 62.1569 73.7384 62.2575 74.252 62.4641C74.7655 62.6706 75.2321 62.9789 75.6235 63.3703C76.0149 63.7617 76.3231 64.2282 76.5297 64.7418C76.7362 65.2554 76.8368 65.8054 76.8254 66.3588V66.3588ZM72.6349 63.8096C72.1236 63.7675 71.6115 63.8806 71.1655 64.1341C70.7195 64.3877 70.3604 64.77 70.1351 65.2309C69.9098 65.6919 69.8289 66.21 69.9028 66.7177C69.9768 67.2254 70.2022 67.699 70.5497 68.0765C70.8971 68.454 71.3504 68.7179 71.8502 68.8337C72.35 68.9494 72.8731 68.9117 73.3512 68.7254C73.8292 68.5391 74.2399 68.2128 74.5295 67.7894C74.8192 67.3659 74.9743 66.8649 74.9746 66.3518C74.9915 66.0305 74.944 65.7089 74.835 65.4061C74.7259 65.1033 74.5575 64.8254 74.3395 64.5886C74.1216 64.3518 73.8585 64.1609 73.5658 64.0271C73.2731 63.8934 72.9566 63.8194 72.6349 63.8096V63.8096Z" fill="#E06B52"/>
<path d="M85.9606 66.3588C85.973 66.9125 85.8731 67.463 85.6669 67.977C85.4607 68.491 85.1525 68.9579 84.7609 69.3495C84.3693 69.7411 83.9024 70.0494 83.3883 70.2556C82.8743 70.4618 82.3239 70.5617 81.7702 70.5493C80.6588 70.5493 79.5929 70.1078 78.807 69.3219C78.0212 68.536 77.5797 67.4702 77.5797 66.3588C77.5797 65.2474 78.0212 64.1815 78.807 63.3957C79.5929 62.6098 80.6588 62.1683 81.7702 62.1683C82.3241 62.1549 82.875 62.2541 83.3895 62.46C83.904 62.6658 84.3713 62.974 84.7631 63.3658C85.1549 63.7577 85.4631 64.225 85.669 64.7394C85.8748 65.2539 85.974 65.8048 85.9606 66.3588ZM81.7702 63.8026C81.259 63.7619 80.7474 63.8762 80.3023 64.1307C79.8571 64.3853 79.4991 64.7681 79.2749 65.2293C79.0507 65.6905 78.9709 66.2085 79.0457 66.7158C79.1206 67.2231 79.3466 67.696 79.6945 68.0728C80.0423 68.4496 80.4956 68.7128 80.9953 68.8279C81.495 68.943 82.0178 68.9047 82.4954 68.7181C82.973 68.5315 83.3832 68.2052 83.6725 67.7818C83.9618 67.3584 84.1166 66.8576 84.1168 66.3448C84.1328 66.0251 84.085 65.7055 83.9764 65.4044C83.8678 65.1033 83.7004 64.8268 83.484 64.5909C83.2677 64.3551 83.0066 64.1645 82.716 64.0304C82.4253 63.8963 82.111 63.8212 81.7911 63.8096L81.7702 63.8026Z" fill="#FFD886"/>
<path d="M90.7308 62.1683C91.1523 62.1558 91.5715 62.2334 91.9606 62.396C92.3496 62.5586 92.6995 62.8024 92.9867 63.1111V62.4127H94.7397V69.9277C94.7397 72.8889 93.0356 74.2858 90.7937 74.2858C89.9939 74.2959 89.2093 74.0675 88.54 73.6296C87.8707 73.1917 87.3472 72.5642 87.0362 71.8273L88.6425 71.1289C88.8047 71.5696 89.0977 71.9502 89.4821 72.2198C89.8665 72.4894 90.3241 72.6351 90.7937 72.6375C91.096 72.6542 91.3984 72.6052 91.68 72.4938C91.9616 72.3823 92.2157 72.2112 92.4248 71.9922C92.634 71.7731 92.7931 71.5113 92.8913 71.2248C92.9895 70.9384 93.0244 70.634 92.9937 70.3327V69.5086C92.7177 69.8453 92.3668 70.1129 91.9691 70.2899C91.5714 70.4669 91.1378 70.5486 90.7029 70.5283C89.5915 70.5283 88.5256 70.0868 87.7398 69.3009C86.9539 68.5151 86.5124 67.4492 86.5124 66.3378C86.5124 65.2264 86.9539 64.1606 87.7398 63.3747C88.5256 62.5888 89.5915 62.1473 90.7029 62.1473L90.7308 62.1683ZM90.8914 63.8096C90.5682 63.8192 90.2502 63.8938 89.9564 64.029C89.6625 64.1641 89.3989 64.357 89.1813 64.5962C88.9636 64.8354 88.7963 65.116 88.6893 65.4212C88.5824 65.7264 88.538 66.05 88.5587 66.3727C88.5389 66.6915 88.5836 67.0109 88.6901 67.312C88.7966 67.613 88.9627 67.8895 89.1785 68.1249C89.3943 68.3603 89.6554 68.5497 89.9461 68.6819C90.2369 68.814 90.5512 68.8862 90.8705 68.894C91.1881 68.8848 91.5005 68.8107 91.7885 68.6764C92.0765 68.5421 92.334 68.3503 92.5452 68.113C92.7565 67.8756 92.917 67.5975 93.0169 67.2959C93.1168 66.9942 93.1541 66.6753 93.1264 66.3588C93.151 66.0438 93.1124 65.7271 93.0128 65.4273C92.9132 65.1274 92.7545 64.8506 92.5463 64.613C92.338 64.3755 92.0843 64.182 91.8001 64.044C91.5159 63.906 91.2069 63.8263 90.8914 63.8096V63.8096Z" fill="#2196F3"/>
<path d="M102.527 62.1543C103.288 62.1635 104.029 62.4025 104.652 62.84C105.275 63.2774 105.752 63.8929 106.019 64.6058L106.312 65.3042L100.725 67.6229C100.901 68.0159 101.19 68.3472 101.557 68.5738C101.923 68.8004 102.348 68.9119 102.778 68.894C103.182 68.887 103.576 68.7759 103.923 68.5715C104.271 68.3672 104.56 68.0765 104.762 67.7277L106.236 68.6985C105.845 69.2635 105.323 69.7253 104.715 70.044C104.107 70.3627 103.43 70.5289 102.743 70.5283C102.194 70.5382 101.649 70.4359 101.141 70.2278C100.632 70.0196 100.172 69.7099 99.7875 69.3176C99.4031 68.9253 99.1028 68.4587 98.9049 67.9464C98.7071 67.434 98.6158 66.8867 98.6368 66.3378C98.6046 65.8037 98.6812 65.2687 98.8619 64.7651C99.0426 64.2615 99.3236 63.7998 99.688 63.408C100.052 63.0162 100.492 62.7025 100.982 62.4858C101.471 62.2691 101.999 62.1539 102.534 62.1473L102.527 62.1543ZM100.432 66.2191L104.175 64.6546C104.029 64.3749 103.806 64.1424 103.533 63.9842C103.26 63.826 102.947 63.7485 102.632 63.7607C102.323 63.7741 102.021 63.8485 101.742 63.9796C101.462 64.1108 101.212 64.2961 101.004 64.5247C100.797 64.7534 100.637 65.0209 100.534 65.3117C100.431 65.6026 100.387 65.911 100.404 66.2191H100.432Z" fill="#E06B52"/>
<path d="M95.9619 70.2768H97.7778V57.9568H95.9619V70.2768Z" fill="#00C853"/>
<path d="M147.365 118.286H74.7302V146.222H147.365V118.286Z" fill="#E8F3FD"/>
<path d="M90.0952 122.476H80.3174C79.546 122.476 78.9206 123.102 78.9206 123.873C78.9206 124.644 79.546 125.27 80.3174 125.27H90.0952C90.8667 125.27 91.4921 124.644 91.4921 123.873C91.4921 123.102 90.8667 122.476 90.0952 122.476Z" fill="#515979"/>
<path d="M122.222 133.651H80.3174C79.546 133.651 78.9206 134.276 78.9206 135.048C78.9206 135.819 79.546 136.444 80.3174 136.444H122.222C122.994 136.444 123.619 135.819 123.619 135.048C123.619 134.276 122.994 133.651 122.222 133.651Z" fill="#515979"/>
<path d="M111.048 139.238H80.3174C79.546 139.238 78.9206 139.863 78.9206 140.635C78.9206 141.406 79.546 142.032 80.3174 142.032H111.048C111.819 142.032 112.444 141.406 112.444 140.635C112.444 139.863 111.819 139.238 111.048 139.238Z" fill="#515979"/>
<path d="M108.254 128.063H80.3174C79.546 128.063 78.9206 128.689 78.9206 129.46C78.9206 130.232 79.546 130.857 80.3174 130.857H108.254C109.025 130.857 109.651 130.232 109.651 129.46C109.651 128.689 109.025 128.063 108.254 128.063Z" fill="#2196F3"/>
<path d="M205.445 112.056C204.429 112.047 203.458 111.638 202.742 110.918C201.653 109.828 200.863 106.678 200.57 105.372C200.519 105.142 200.527 104.904 200.593 104.678C200.659 104.452 200.781 104.246 200.947 104.08C201.078 103.951 201.233 103.848 201.403 103.779C201.573 103.709 201.755 103.674 201.939 103.675C202.039 103.662 202.14 103.662 202.239 103.675C203.545 103.961 206.695 104.751 207.785 105.84C208.472 106.518 208.876 107.432 208.916 108.396C208.942 108.878 208.866 109.36 208.693 109.81C208.519 110.26 208.253 110.668 207.91 111.008C207.255 111.659 206.368 112.023 205.445 112.021V112.056Z" fill="#6ADAF7"/>
<path d="M201.939 105.072C201.939 105.072 205.878 105.945 206.828 106.86C207.268 107.267 207.529 107.832 207.554 108.432C207.579 109.031 207.366 109.616 206.961 110.058C206.566 110.446 206.034 110.662 205.48 110.659C204.838 110.661 204.221 110.41 203.762 109.961C202.84 109.039 201.974 105.072 201.974 105.072H201.939ZM201.974 102.278C201.556 102.278 201.143 102.371 200.766 102.552C200.389 102.732 200.057 102.995 199.795 103.321C199.533 103.646 199.347 104.027 199.252 104.434C199.156 104.841 199.153 105.264 199.243 105.672C199.718 107.837 200.549 110.673 201.785 111.902C202.764 112.886 204.092 113.444 205.48 113.453C206.119 113.46 206.753 113.34 207.345 113.1C207.937 112.86 208.476 112.505 208.93 112.056C209.403 111.575 209.771 111.002 210.011 110.372C210.252 109.742 210.359 109.07 210.327 108.396C210.269 107.08 209.718 105.833 208.784 104.904C207.547 103.668 204.712 102.809 202.554 102.362C202.356 102.321 202.155 102.3 201.953 102.299L201.974 102.278Z" fill="#515979"/>
<path d="M164.909 112.056C163.983 112.059 163.094 111.695 162.437 111.043C161.769 110.341 161.407 109.402 161.431 108.433C161.455 107.464 161.862 106.544 162.563 105.875C163.652 104.785 166.809 103.996 168.108 103.71C168.21 103.696 168.313 103.696 168.415 103.71C168.784 103.71 169.138 103.855 169.4 104.115C169.567 104.281 169.689 104.487 169.754 104.713C169.82 104.938 169.828 105.177 169.777 105.407C169.484 106.713 168.695 109.863 167.612 110.952C166.889 111.658 165.919 112.054 164.909 112.056V112.056Z" fill="#6ADAF7"/>
<path d="M168.415 105.072C168.415 105.072 167.542 109.011 166.62 109.961C166.164 110.409 165.549 110.66 164.909 110.659C164.634 110.662 164.361 110.61 164.106 110.507C163.85 110.404 163.618 110.251 163.422 110.058C163.017 109.616 162.803 109.031 162.828 108.432C162.853 107.832 163.114 107.267 163.554 106.86C164.469 105.945 168.443 105.072 168.443 105.072H168.415ZM168.443 102.278C168.239 102.278 168.035 102.299 167.836 102.341C165.677 102.823 162.842 103.647 161.606 104.883C160.671 105.812 160.12 107.059 160.062 108.375C160.03 109.049 160.138 109.721 160.378 110.351C160.618 110.981 160.986 111.554 161.459 112.035C161.918 112.489 162.464 112.847 163.064 113.086C163.664 113.326 164.305 113.444 164.951 113.432C166.337 113.421 167.662 112.864 168.639 111.881C169.875 110.652 170.734 107.817 171.181 105.651C171.271 105.244 171.268 104.821 171.173 104.415C171.078 104.008 170.893 103.628 170.631 103.302C170.37 102.977 170.039 102.714 169.663 102.533C169.287 102.352 168.875 102.258 168.457 102.257L168.443 102.278Z" fill="#515979"/>
<path d="M197.742 103.13C197.278 103.13 196.834 102.946 196.507 102.619C196.179 102.291 195.996 101.847 195.996 101.384C195.996 100.921 195.812 100.477 195.484 100.15C195.157 99.8221 194.713 99.6382 194.25 99.6382C193.786 99.6382 193.342 99.8221 193.015 100.15C192.687 100.477 192.503 100.921 192.503 101.384C192.503 101.847 192.32 102.291 191.992 102.619C191.665 102.946 191.221 103.13 190.757 103.13C190.294 103.13 189.85 102.946 189.523 102.619C189.195 102.291 189.011 101.847 189.011 101.384C189.011 99.995 189.563 98.6627 190.546 97.6803C191.528 96.698 192.86 96.1461 194.25 96.1461C195.639 96.1461 196.971 96.698 197.953 97.6803C198.936 98.6627 199.488 99.995 199.488 101.384C199.489 101.614 199.444 101.841 199.357 102.053C199.269 102.266 199.141 102.459 198.978 102.621C198.816 102.783 198.623 102.912 198.411 102.999C198.199 103.087 197.971 103.131 197.742 103.13V103.13Z" fill="#515979"/>
<path d="M192.064 90.3491C192.507 90.1229 192.976 89.9516 193.46 89.8393C193.918 89.7273 194.386 89.6595 194.857 89.6368C195.864 89.5985 196.869 89.7722 197.804 90.1466C198.8 90.5323 199.677 91.173 200.347 92.0044C201.002 92.8027 201.414 93.7723 201.534 94.798C201.564 94.9843 201.555 95.1747 201.509 95.3576C201.463 95.5405 201.38 95.7122 201.266 95.8623C201.152 96.0124 201.008 96.1378 200.844 96.231C200.68 96.3241 200.499 96.3831 200.312 96.4044C200.124 96.4319 199.932 96.4207 199.748 96.3715C199.564 96.3223 199.392 96.236 199.243 96.118L198.971 95.9085C198.526 95.5085 198.06 95.1331 197.574 94.7841C197.156 94.4873 196.707 94.239 196.233 94.0438C195.708 93.8267 195.166 93.6515 194.613 93.5199C194.312 93.4501 193.998 93.3663 193.677 93.3104C193.357 93.2551 193.04 93.1828 192.727 93.0939L192.21 92.9053C192.037 92.8436 191.878 92.7483 191.742 92.625C191.606 92.5017 191.495 92.3527 191.417 92.1867C191.338 92.0206 191.293 91.8407 191.284 91.6572C191.276 91.4737 191.303 91.2903 191.365 91.1174C191.491 90.7811 191.741 90.506 192.064 90.3491Z" fill="#515979"/>
<path d="M179.583 103.13C179.12 103.13 178.676 102.946 178.348 102.619C178.021 102.291 177.837 101.847 177.837 101.384C177.837 100.921 177.653 100.477 177.325 100.15C176.998 99.8221 176.554 99.6382 176.091 99.6382C175.628 99.6382 175.184 99.8221 174.856 100.15C174.529 100.477 174.345 100.921 174.345 101.384C174.345 101.847 174.161 102.291 173.833 102.619C173.506 102.946 173.062 103.13 172.599 103.13C172.136 103.13 171.692 102.946 171.364 102.619C171.037 102.291 170.853 101.847 170.853 101.384C170.853 99.995 171.405 98.6627 172.387 97.6803C173.369 96.698 174.702 96.1461 176.091 96.1461C177.48 96.1461 178.812 96.698 179.795 97.6803C180.777 98.6627 181.329 99.995 181.329 101.384C181.33 101.614 181.285 101.841 181.198 102.053C181.11 102.266 180.982 102.459 180.82 102.621C180.657 102.783 180.464 102.912 180.252 102.999C180.04 103.087 179.812 103.131 179.583 103.13V103.13Z" fill="#515979"/>
<path d="M177.662 93.0871C177.352 93.1753 177.037 93.2475 176.719 93.3036C176.391 93.3594 176.077 93.4433 175.776 93.5131C175.223 93.6447 174.682 93.8198 174.156 94.0369C173.683 94.2321 173.233 94.4805 172.815 94.7772C172.329 95.1263 171.863 95.5016 171.418 95.9017L171.153 96.1112C170.934 96.306 170.659 96.4271 170.368 96.4572C170.076 96.4873 169.783 96.4249 169.529 96.2789C169.274 96.1329 169.073 95.9107 168.952 95.6437C168.831 95.3767 168.797 95.0785 168.855 94.7912C168.975 93.7655 169.387 92.7958 170.043 91.9975C170.712 91.1661 171.589 90.5255 172.585 90.1398C173.516 89.7754 174.512 89.6089 175.511 89.6509C175.982 89.6736 176.45 89.7414 176.908 89.8534C177.393 89.9657 177.862 90.137 178.305 90.3633C178.63 90.5307 178.877 90.8191 178.992 91.1665C179.107 91.5139 179.081 91.8926 178.919 92.221C178.768 92.5399 178.5 92.7895 178.172 92.9194L177.662 93.0871Z" fill="#515979"/>
<path d="M176.796 116.19C176.426 116.19 176.07 116.043 175.808 115.781C175.547 115.519 175.399 115.164 175.399 114.794C175.399 112.2 176.43 109.713 178.263 107.88C180.097 106.046 182.584 105.016 185.177 105.016C187.77 105.016 190.257 106.046 192.091 107.88C193.925 109.713 194.955 112.2 194.955 114.794C194.955 115.164 194.808 115.519 194.546 115.781C194.284 116.043 193.929 116.19 193.558 116.19H176.796Z" fill="#515979"/>
<path d="M185.177 106.413C187.4 106.413 189.532 107.296 191.103 108.867C192.675 110.439 193.558 112.571 193.558 114.794H176.796C176.796 112.571 177.679 110.439 179.251 108.867C180.823 107.296 182.954 106.413 185.177 106.413ZM185.177 103.619C182.213 103.619 179.371 104.796 177.276 106.892C175.18 108.988 174.003 111.83 174.003 114.794C174.003 115.535 174.297 116.245 174.821 116.769C175.345 117.293 176.055 117.587 176.796 117.587H193.558C194.299 117.587 195.01 117.293 195.534 116.769C196.057 116.245 196.352 115.535 196.352 114.794C196.352 111.83 195.174 108.988 193.079 106.892C190.983 104.796 188.141 103.619 185.177 103.619Z" fill="#515979"/>
<path d="M185.177 111.302C183.926 111.339 182.703 111.675 181.609 112.283C180.516 112.89 179.583 113.751 178.891 114.794H191.463C190.77 113.753 189.837 112.892 188.744 112.285C187.65 111.677 186.427 111.34 185.177 111.302V111.302Z" fill="#EF7D7D"/>
<path d="M77.5238 149.016H73.3333C72.9629 149.016 72.6076 148.869 72.3456 148.607C72.0837 148.345 71.9365 147.99 71.9365 147.619V116.889C71.9365 116.518 72.0837 116.163 72.3456 115.901C72.6076 115.639 72.9629 115.492 73.3333 115.492H77.5238C77.8943 115.492 78.2496 115.639 78.5115 115.901C78.7735 116.163 78.9207 116.518 78.9207 116.889C78.9207 117.259 78.7735 117.615 78.5115 117.877C78.2496 118.139 77.8943 118.286 77.5238 118.286H74.7302V146.222H77.5238C77.8943 146.222 78.2496 146.369 78.5115 146.631C78.7735 146.893 78.9207 147.249 78.9207 147.619C78.9207 147.99 78.7735 148.345 78.5115 148.607C78.2496 148.869 77.8943 149.016 77.5238 149.016Z" fill="#515979"/>
<path d="M148.762 149.016H144.571C144.201 149.016 143.846 148.869 143.584 148.607C143.322 148.345 143.175 147.99 143.175 147.619C143.175 147.249 143.322 146.893 143.584 146.631C143.846 146.369 144.201 146.222 144.571 146.222H147.365V118.286H144.571C144.201 118.286 143.846 118.139 143.584 117.877C143.322 117.615 143.175 117.259 143.175 116.889C143.175 116.518 143.322 116.163 143.584 115.901C143.846 115.639 144.201 115.492 144.571 115.492H148.762C149.132 115.492 149.488 115.639 149.75 115.901C150.012 116.163 150.159 116.518 150.159 116.889V147.619C150.159 147.99 150.012 148.345 149.75 148.607C149.488 148.869 149.132 149.016 148.762 149.016Z" fill="#515979"/>
<path d="M135.492 142.032C135.296 142.032 135.102 141.992 134.923 141.912C134.743 141.833 134.583 141.716 134.451 141.571L128.166 134.587C127.984 134.386 127.865 134.137 127.823 133.87C127.781 133.602 127.817 133.329 127.927 133.082C128.037 132.835 128.217 132.625 128.444 132.478C128.671 132.331 128.936 132.253 129.206 132.254H131.302V125.27C131.302 124.899 131.449 124.544 131.711 124.282C131.973 124.02 132.328 123.873 132.698 123.873H138.286C138.656 123.873 139.011 124.02 139.273 124.282C139.535 124.544 139.683 124.899 139.683 125.27V132.254H141.778C142.048 132.254 142.313 132.332 142.54 132.48C142.767 132.627 142.946 132.838 143.056 133.085C143.166 133.332 143.201 133.605 143.159 133.871C143.117 134.138 142.999 134.386 142.818 134.587L136.533 141.571C136.401 141.716 136.241 141.833 136.061 141.912C135.882 141.992 135.688 142.032 135.492 142.032Z" fill="#F89D81"/>
<path d="M138.286 125.27V133.651H141.778L135.492 140.635L129.206 133.651H132.698V125.27H138.286ZM138.286 122.476H132.698C131.958 122.476 131.247 122.771 130.723 123.294C130.199 123.818 129.905 124.529 129.905 125.27V130.857H129.206C128.664 130.853 128.133 131.007 127.676 131.3C127.22 131.592 126.859 132.012 126.637 132.506C126.414 133.001 126.341 133.549 126.425 134.085C126.51 134.621 126.748 135.12 127.111 135.523L133.397 142.507C133.659 142.797 133.979 143.029 134.336 143.188C134.693 143.347 135.08 143.429 135.471 143.429C135.862 143.429 136.249 143.347 136.606 143.188C136.963 143.029 137.283 142.797 137.545 142.507L143.789 135.564C144.285 135.05 144.565 134.365 144.571 133.651C144.571 132.91 144.277 132.199 143.753 131.675C143.229 131.151 142.519 130.857 141.778 130.857H141.079V125.27C141.079 124.529 140.785 123.818 140.261 123.294C139.737 122.771 139.027 122.476 138.286 122.476Z" fill="#515979"/>
</g>
</svg>
