<svg width="928" height="248" viewBox="0 0 928 248" fill="none" xmlns="http://www.w3.org/2000/svg">
<mask id="mask0" mask-type="alpha" maskUnits="userSpaceOnUse" x="0" y="0" width="928" height="248">
<rect width="928" height="248" fill="#C4C4C4"/>
</mask>
<g mask="url(#mask0)">
<path d="M427.827 152.481H400.712V230.211H427.827V152.481Z" fill="#9E8271"/>
<path d="M425.115 155.192V227.5H403.423V155.192H425.115ZM430.538 149.769H398V232.923H430.538V149.769Z" fill="#515979"/>
<g style="mix-blend-mode:multiply" opacity="0.3">
<g style="mix-blend-mode:multiply" opacity="0.3">
<path d="M425.115 160.615H408.846V169.654H425.115V160.615Z" fill="#515979"/>
</g>
</g>
<path d="M406.135 152.481H384.442V230.211H406.135V152.481Z" fill="#B29D90"/>
<path d="M403.423 155.192V227.5H387.154V155.192H403.423ZM408.846 149.769H381.731V232.923H408.846V149.769Z" fill="#515979"/>
<g style="mix-blend-mode:multiply" opacity="0.3">
<g style="mix-blend-mode:multiply" opacity="0.3">
<path d="M403.423 160.615H387.154V169.654H403.423V160.615Z" fill="#515979"/>
</g>
</g>
<path d="M345.577 157.904C344.858 157.904 344.168 157.618 343.66 157.11C343.151 156.601 342.865 155.911 342.865 155.192V59.3846C342.865 58.6655 343.151 57.9758 343.66 57.4673C344.168 56.9588 344.858 56.6731 345.577 56.6731H450.423C460.731 56.6731 470.616 60.7678 477.905 68.0565C485.194 75.3452 489.289 85.2307 489.289 95.5385V155.192C489.289 155.911 489.003 156.601 488.494 157.11C487.986 157.618 487.296 157.904 486.577 157.904H345.577Z" fill="#6ADAF7"/>
<path d="M450.423 59.3847C455.171 59.3847 459.872 60.3199 464.259 62.1368C468.645 63.9537 472.63 66.6168 475.988 69.974C479.345 73.3312 482.008 77.3167 483.825 81.7031C485.642 86.0895 486.577 90.7908 486.577 95.5386V155.192H345.577V59.3847H450.423ZM450.423 53.9617H345.577C344.139 53.9617 342.759 54.533 341.742 55.5501C340.725 56.5671 340.154 57.9465 340.154 59.3847V155.192C340.154 156.631 340.725 158.01 341.742 159.027C342.759 160.044 344.139 160.616 345.577 160.616H486.577C488.015 160.616 489.395 160.044 490.412 159.027C491.429 158.01 492 156.631 492 155.192V95.5386C491.986 84.5161 487.601 73.9492 479.807 66.1551C472.012 58.361 461.446 53.976 450.423 53.9617V53.9617Z" fill="#515979"/>
<path d="M450.423 59.3848H345.577V64.8079H469.467C463.751 61.2552 457.153 59.3764 450.423 59.3848V59.3848Z" fill="#B4ECFB"/>
<path d="M309.423 157.904C308.704 157.904 308.014 157.618 307.506 157.11C306.997 156.601 306.712 155.911 306.712 155.192V95.5385C306.712 85.2307 310.806 75.3452 318.095 68.0565C325.384 60.7678 335.269 56.6731 345.577 56.6731C355.885 56.6731 365.77 60.7678 373.059 68.0565C380.348 75.3452 384.442 85.2307 384.442 95.5385V155.192C384.442 155.911 384.157 156.601 383.648 157.11C383.14 157.618 382.45 157.904 381.731 157.904H309.423Z" fill="#6ADAF7"/>
<path d="M345.577 59.3847C355.166 59.3847 364.361 63.1938 371.142 69.974C377.922 76.7541 381.731 85.95 381.731 95.5386V155.192H309.423V95.5386C309.423 85.95 313.232 76.7541 320.012 69.974C326.792 63.1938 335.988 59.3847 345.577 59.3847V59.3847ZM345.577 53.9617C334.554 53.976 323.988 58.361 316.193 66.1551C308.399 73.9492 304.014 84.5161 304 95.5386V155.192C304 156.631 304.571 158.01 305.588 159.027C306.605 160.044 307.985 160.616 309.423 160.616H381.731C383.169 160.616 384.548 160.044 385.565 159.027C386.582 158.01 387.154 156.631 387.154 155.192V95.5386C387.139 84.5161 382.754 73.9492 374.96 66.1551C367.166 58.361 356.599 53.976 345.577 53.9617V53.9617Z" fill="#515979"/>
<path d="M406.135 95.5386C404.696 95.5386 403.317 94.9672 402.3 93.9502C401.283 92.9332 400.712 91.5538 400.712 90.1155V21.4232C400.712 20.7041 400.997 20.0144 401.506 19.5059C402.014 18.9973 402.704 18.7117 403.423 18.7117H437.769C438.488 18.7117 439.178 18.9973 439.687 19.5059C440.195 20.0144 440.481 20.7041 440.481 21.4232V43.1155C440.481 43.8347 440.195 44.5244 439.687 45.0329C439.178 45.5414 438.488 45.8271 437.769 45.8271H411.558V90.1155C411.558 91.5538 410.986 92.9332 409.969 93.9502C408.952 94.9672 407.573 95.5386 406.135 95.5386Z" fill="#F89D81"/>
<path d="M437.769 21.4231V43.1154H408.846V90.1154C408.846 90.8345 408.56 91.5242 408.052 92.0327C407.543 92.5412 406.854 92.8269 406.135 92.8269C405.415 92.8269 404.726 92.5412 404.217 92.0327C403.709 91.5242 403.423 90.8345 403.423 90.1154V21.4231H437.769ZM437.769 16H403.423C401.985 16 400.605 16.5714 399.588 17.5884C398.571 18.6054 398 19.9848 398 21.4231V90.1154C398 92.2728 398.857 94.3419 400.383 95.8674C401.908 97.393 403.977 98.25 406.135 98.25C408.292 98.25 410.361 97.393 411.887 95.8674C413.412 94.3419 414.269 92.2728 414.269 90.1154V48.5385H437.769C439.208 48.5385 440.587 47.9671 441.604 46.9501C442.621 45.9331 443.192 44.5537 443.192 43.1154V21.4231C443.192 19.9848 442.621 18.6054 441.604 17.5884C440.587 16.5714 439.208 16 437.769 16V16Z" fill="#515979"/>
<path d="M437.769 21.4231H403.423V25.0385H437.769V21.4231Z" fill="#FBC4B3"/>
<path d="M356.875 114.158C356.56 114.163 356.249 114.088 355.971 113.941C354.962 113.489 353.868 113.256 352.762 113.256C351.657 113.256 350.563 113.489 349.554 113.941C349.132 114.168 348.637 114.219 348.177 114.082C347.718 113.945 347.332 113.63 347.104 113.209C346.877 112.787 346.826 112.292 346.963 111.832C347.1 111.373 347.415 110.987 347.837 110.759C349.376 110.027 351.058 109.647 352.762 109.647C354.467 109.647 356.149 110.027 357.688 110.759C358.046 110.952 358.329 111.26 358.49 111.633C358.651 112.006 358.682 112.422 358.578 112.815C358.473 113.208 358.24 113.554 357.914 113.798C357.589 114.041 357.191 114.168 356.785 114.158H356.875Z" fill="#515979"/>
<path d="M352.808 111.672C356.302 111.672 359.135 108.84 359.135 105.345C359.135 101.851 356.302 99.0186 352.808 99.0186C349.313 99.0186 346.481 101.851 346.481 105.345C346.481 108.84 349.313 111.672 352.808 111.672Z" fill="#515979"/>
<path d="M354.389 106.927C355.263 106.927 355.971 106.219 355.971 105.345C355.971 104.472 355.263 103.763 354.389 103.763C353.516 103.763 352.808 104.472 352.808 105.345C352.808 106.219 353.516 106.927 354.389 106.927Z" fill="white"/>
<path d="M348.288 89.9619C348.762 89.5354 349.284 89.1653 349.843 88.8592C350.386 88.5669 350.955 88.3248 351.542 88.1362C352.79 87.7484 354.105 87.6283 355.402 87.7837C356.775 87.9304 358.085 88.4388 359.198 89.2569C360.279 90.0224 361.117 91.083 361.611 92.3119C361.711 92.5355 361.765 92.777 361.768 93.0218C361.772 93.2666 361.726 93.5097 361.633 93.7362C361.54 93.9627 361.402 94.168 361.228 94.3395C361.053 94.5111 360.845 94.6454 360.617 94.7342C360.391 94.8312 360.148 94.8812 359.903 94.8812C359.657 94.8812 359.414 94.8312 359.189 94.7342L358.782 94.5625C358.084 94.2183 357.366 93.9164 356.631 93.6587C356.012 93.4272 355.37 93.2665 354.715 93.1796C353.981 93.0862 353.24 93.05 352.5 93.0712C352.103 93.0712 351.687 93.0712 351.262 93.1254C350.844 93.1468 350.424 93.1468 350.006 93.1254L349.301 93.0621C348.963 93.0177 348.644 92.8785 348.382 92.6606C348.119 92.4428 347.924 92.1551 347.818 91.8309C347.712 91.5068 347.7 91.1592 347.783 90.8285C347.867 90.4978 348.042 90.1974 348.288 89.9619V89.9619Z" fill="#515979"/>
<path d="M333.375 114.158C333.076 114.155 332.781 114.081 332.516 113.941C331.507 113.489 330.413 113.256 329.308 113.256C328.202 113.256 327.109 113.489 326.099 113.941C325.677 114.168 325.182 114.219 324.723 114.082C324.263 113.945 323.877 113.63 323.65 113.209C323.422 112.787 323.371 112.292 323.508 111.832C323.646 111.373 323.96 110.987 324.382 110.759C325.921 110.027 327.604 109.647 329.308 109.647C331.012 109.647 332.695 110.027 334.234 110.759C334.591 110.952 334.874 111.26 335.035 111.633C335.197 112.006 335.228 112.422 335.123 112.815C335.019 113.208 334.785 113.554 334.459 113.798C334.134 114.041 333.736 114.168 333.33 114.158H333.375Z" fill="#515979"/>
<path d="M329.308 111.672C332.802 111.672 335.635 108.84 335.635 105.345C335.635 101.851 332.802 99.0186 329.308 99.0186C325.813 99.0186 322.981 101.851 322.981 105.345C322.981 108.84 325.813 111.672 329.308 111.672Z" fill="#515979"/>
<path d="M330.889 106.927C331.763 106.927 332.471 106.219 332.471 105.345C332.471 104.472 331.763 103.763 330.889 103.763C330.016 103.763 329.308 104.472 329.308 105.345C329.308 106.219 330.016 106.927 330.889 106.927Z" fill="white"/>
<path d="M332.083 93.1432C331.664 93.1647 331.245 93.1647 330.826 93.1432C330.401 93.1432 329.986 93.1432 329.588 93.089C328.848 93.0678 328.108 93.1041 327.373 93.1975C326.719 93.2843 326.076 93.445 325.457 93.6765C324.723 93.9343 324.004 94.2361 323.306 94.5804L322.899 94.7521C322.674 94.8513 322.431 94.9036 322.185 94.9055C321.939 94.9075 321.695 94.8592 321.468 94.7636C321.241 94.668 321.036 94.527 320.866 94.3494C320.696 94.1718 320.563 93.9613 320.477 93.7307C320.287 93.2706 320.287 92.7538 320.477 92.2936C320.971 91.0646 321.809 90.004 322.89 89.2386C324.003 88.4205 325.313 87.9121 326.687 87.7654C327.984 87.61 329.299 87.7301 330.546 88.1178C331.133 88.3065 331.702 88.5485 332.245 88.8409C332.815 89.1509 333.346 89.5271 333.827 89.9617C334.176 90.28 334.386 90.7219 334.413 91.1931C334.44 91.6643 334.281 92.1274 333.972 92.4834C333.68 92.8209 333.268 93.0316 332.824 93.0709L332.083 93.1432Z" fill="#515979"/>
<path d="M341.058 136.211C337.222 136.211 333.544 134.688 330.832 131.976C328.12 129.264 326.596 125.585 326.596 121.75C326.596 121.27 326.787 120.811 327.126 120.472C327.465 120.133 327.924 119.942 328.404 119.942H353.712C354.191 119.942 354.651 120.133 354.99 120.472C355.329 120.811 355.519 121.27 355.519 121.75C355.519 125.585 353.996 129.264 351.284 131.976C348.572 134.688 344.893 136.211 341.058 136.211Z" fill="#515979"/>
<path d="M353.712 121.75C353.712 125.106 352.378 128.325 350.005 130.698C347.632 133.071 344.414 134.404 341.058 134.404C337.702 134.404 334.483 133.071 332.11 130.698C329.737 128.325 328.404 125.106 328.404 121.75H353.712ZM353.712 118.135H328.404C327.445 118.135 326.525 118.516 325.847 119.194C325.169 119.872 324.788 120.791 324.788 121.75C324.769 126.065 326.465 130.211 329.503 133.275C332.54 136.34 336.671 138.073 340.985 138.092C345.3 138.111 349.446 136.415 352.511 133.378C355.575 130.34 357.308 126.21 357.327 121.895V121.75C357.327 120.791 356.946 119.872 356.268 119.194C355.59 118.516 354.67 118.135 353.712 118.135Z" fill="#515979"/>
<path d="M341.058 134.404C346.254 134.404 350.467 132.514 350.467 130.183C350.467 127.851 346.254 125.962 341.058 125.962C335.861 125.962 331.649 127.851 331.649 130.183C331.649 132.514 335.861 134.404 341.058 134.404Z" fill="#EF7D7D"/>
<path d="M727.583 186.591C722.299 186.748 717.082 185.378 712.556 182.646C702.944 176.5 697.733 175.656 693.514 175.656C690.811 175.729 688.117 176 685.453 176.466L684.313 176.637C682.985 176.839 681.643 176.942 680.3 176.945V176.945C665.865 176.945 658.966 164.551 657.336 158.029C657.154 157.303 657.215 156.538 657.509 155.85C657.804 155.162 658.316 154.59 658.966 154.221L713.696 123.116C714.21 122.825 714.792 122.671 715.383 122.672C715.671 122.672 715.958 122.706 716.238 122.774L749.737 131.394C750.301 131.537 750.819 131.822 751.242 132.221C751.664 132.62 751.979 133.12 752.155 133.675L763.5 171.803C763.717 172.53 763.686 173.31 763.411 174.018C763.137 174.726 762.634 175.322 761.983 175.713C761.208 176.204 743.877 186.591 727.583 186.591Z" fill="#FBB040"/>
<path d="M715.338 126.092L748.837 134.758L760.17 172.897C760.17 172.897 743.067 183.227 727.583 183.227C722.934 183.383 718.338 182.195 714.346 179.807C705.042 173.855 699.067 172.282 693.469 172.282C690.203 172.386 686.949 172.725 683.731 173.296C682.569 173.473 681.395 173.565 680.22 173.57C664.736 173.57 660.654 157.299 660.654 157.299L715.383 126.195L715.338 126.092ZM715.383 119.354C714.185 119.345 713.005 119.652 711.963 120.243L657.233 151.348C655.932 152.086 654.908 153.23 654.319 154.606C653.73 155.982 653.608 157.513 653.972 158.964C655.842 166.375 663.71 180.411 680.197 180.411C681.724 180.411 683.248 180.297 684.758 180.069L685.898 179.898C688.399 179.456 690.93 179.196 693.469 179.123C697.163 179.123 701.804 179.898 710.663 185.565C715.742 188.692 721.62 190.277 727.583 190.126C744.812 190.126 762.929 179.271 763.716 178.803C765.009 178.019 766.006 176.828 766.551 175.417C767.096 174.006 767.157 172.454 766.726 171.005L755.393 132.865C755.056 131.733 754.431 130.707 753.58 129.888C752.729 129.069 751.68 128.484 750.535 128.19L717.048 119.57C716.488 119.435 715.914 119.366 715.338 119.365L715.383 119.354Z" fill="#515979"/>
<g style="mix-blend-mode:color-burn" opacity="0.2">
<g style="mix-blend-mode:color-burn" opacity="0.2">
<path d="M724.186 133.002L708.36 130.06L660.654 157.197C660.654 157.197 665.34 175.884 683.731 173.159C711.028 160.982 724.186 133.002 724.186 133.002Z" fill="#515979"/>
</g>
</g>
<path d="M742.109 192.589C739.851 192.588 737.656 191.842 735.865 190.467C734.074 189.092 732.786 187.165 732.201 184.983L706.239 88.0668C705.542 85.4422 705.914 82.6484 707.273 80.2975C708.633 77.9466 710.868 76.2304 713.491 75.5247L865.479 34.7741C866.344 34.5378 867.238 34.4189 868.135 34.4207C870.393 34.4215 872.588 35.1671 874.38 36.5421C876.171 37.9171 877.459 39.8445 878.044 42.0258L904.017 138.942C904.714 141.567 904.342 144.361 902.983 146.712C901.623 149.063 899.388 150.779 896.766 151.484L744.778 192.201C743.91 192.449 743.012 192.579 742.109 192.589V192.589Z" fill="#D8EBFB"/>
<path d="M868.135 37.8412C869.643 37.8402 871.108 38.3371 872.304 39.2546C873.5 40.1722 874.359 41.4589 874.748 42.915L900.711 139.832C900.943 140.699 901.003 141.604 900.886 142.495C900.769 143.386 900.478 144.245 900.029 145.023C899.58 145.801 898.982 146.483 898.27 147.031C897.557 147.578 896.744 147.979 895.876 148.212L743.888 188.94C743.307 189.088 742.71 189.165 742.11 189.168C740.604 189.166 739.141 188.668 737.948 187.751C736.754 186.834 735.897 185.548 735.508 184.094L709.546 87.1774C709.313 86.3097 709.253 85.4046 709.37 84.5139C709.487 83.6231 709.778 82.7641 710.227 81.9859C710.676 81.2077 711.274 80.5256 711.986 79.9784C712.699 79.4313 713.512 79.0298 714.38 78.797L866.368 38.0806C866.944 37.924 867.538 37.8435 868.135 37.8412ZM868.135 31C866.938 31.0025 865.746 31.1596 864.589 31.4675L712.613 72.1952C709.108 73.1334 706.12 75.4248 704.305 78.5657C702.489 81.7067 701.996 85.4399 702.932 88.9447L728.906 185.861C729.845 189.358 732.131 192.34 735.264 194.155C738.397 195.969 742.121 196.468 745.621 195.542L897.609 154.814C901.114 153.876 904.102 151.584 905.917 148.443C907.733 145.302 908.226 141.569 907.29 138.064L881.305 41.1477C880.528 38.2449 878.818 35.6783 876.438 33.8443C874.058 32.0102 871.14 31.0107 868.135 31V31Z" fill="#515979"/>
<path d="M804.786 140.128L707.767 80.5757L712.556 98.4995L797.922 151.53C799.247 152.354 800.727 152.897 802.27 153.126C803.814 153.354 805.388 153.264 806.895 152.86C808.402 152.456 809.81 151.747 811.032 150.777C812.254 149.807 813.263 148.596 813.999 147.22L818.48 138.851C816.647 140.525 814.319 141.556 811.847 141.787C809.376 142.017 806.896 141.435 804.786 140.128V140.128Z" fill="#ACC9DB"/>
<path d="M902.478 149.865C901.817 149.863 901.172 149.668 900.619 149.307L836.301 107.519C835.634 106.988 835.189 106.227 835.053 105.386C834.917 104.544 835.1 103.682 835.567 102.969C836.034 102.255 836.75 101.742 837.575 101.529C838.401 101.316 839.276 101.419 840.029 101.818L904.348 143.606C904.969 144.007 905.444 144.599 905.7 145.292C905.957 145.986 905.981 146.744 905.771 147.453C905.56 148.162 905.125 148.784 904.532 149.225C903.938 149.666 903.218 149.903 902.478 149.9V149.865Z" fill="#515979"/>
<path d="M737.275 194.128C736.736 194.124 736.205 193.995 735.724 193.751C734.927 193.339 734.323 192.63 734.043 191.777C733.764 190.924 733.831 189.995 734.231 189.191L769.041 120.836C769.237 120.422 769.514 120.052 769.856 119.748C770.198 119.444 770.597 119.211 771.031 119.063C771.464 118.916 771.923 118.857 772.379 118.891C772.836 118.924 773.281 119.048 773.688 119.257C774.096 119.465 774.457 119.753 774.752 120.104C775.046 120.454 775.267 120.86 775.401 121.298C775.535 121.735 775.581 122.195 775.534 122.651C775.487 123.106 775.35 123.547 775.13 123.949L740.331 192.292C740.039 192.849 739.6 193.315 739.061 193.639C738.522 193.963 737.904 194.132 737.275 194.128V194.128Z" fill="#515979"/>
<path d="M660.654 160.617C659.917 160.619 659.199 160.382 658.607 159.943C658.015 159.503 657.581 158.884 657.369 158.178C657.158 157.472 657.18 156.716 657.433 156.023C657.686 155.331 658.156 154.739 658.773 154.335C696.331 129.581 710.822 113.288 710.971 113.071C711.295 112.709 711.692 112.42 712.136 112.223C712.581 112.027 713.062 111.927 713.548 111.931C713.829 111.93 714.109 111.969 714.38 112.045L801.035 133.834C801.787 134.026 802.451 134.468 802.919 135.087C803.386 135.706 803.63 136.466 803.608 137.242C803.587 138.018 803.303 138.763 802.802 139.356C802.301 139.949 801.614 140.354 800.852 140.504C790.898 142.223 780.806 143.009 770.706 142.853C753.59 142.688 736.502 141.435 719.545 139.102C700.845 147.843 681.448 155.006 661.555 160.515C661.26 160.587 660.957 160.622 660.654 160.617V160.617Z" fill="#FFD886"/>
<path d="M713.536 115.374L800.191 137.175C790.431 138.843 780.538 139.607 770.637 139.455C753.343 139.292 736.079 138.005 718.952 135.601C700.172 144.479 680.663 151.726 660.643 157.265C699.17 131.805 713.536 115.374 713.536 115.374ZM713.536 108.533C712.566 108.527 711.606 108.727 710.72 109.12C709.833 109.514 709.04 110.091 708.394 110.814C708.166 111.076 693.811 127.141 656.891 151.484C655.668 152.296 654.738 153.479 654.239 154.86C653.74 156.24 653.698 157.745 654.12 159.151C654.542 160.557 655.405 161.79 656.582 162.668C657.758 163.546 659.186 164.022 660.654 164.026C661.237 164.034 661.82 163.969 662.387 163.833C682.176 158.4 701.472 151.31 720.069 142.636C736.855 144.913 753.767 146.128 770.706 146.274C781.019 146.431 791.325 145.629 801.491 143.879C803.019 143.583 804.401 142.775 805.407 141.588C806.414 140.401 806.986 138.906 807.029 137.35C807.071 135.794 806.582 134.27 805.641 133.029C804.701 131.789 803.365 130.906 801.856 130.528L715.201 108.738C714.654 108.594 714.09 108.521 713.525 108.522L713.536 108.533Z" fill="#515979"/>
<g style="mix-blend-mode:color-burn" opacity="0.3">
<g style="mix-blend-mode:color-burn" opacity="0.3">
<path d="M799.666 137.038L757.422 126.411L778.288 139.318C785.553 139.15 792.795 138.43 799.951 137.163L799.666 137.038Z" fill="#515979"/>
</g>
</g>
<path d="M887.005 65.354H888.396C891.578 65.354 899.639 69.5271 904.359 77.7365C908.042 84.133 910.664 94.8394 902.216 109.662L898.168 116.731L891.327 92.4906C880.905 100.837 852.56 122.364 828.035 130.847L813.212 135.943L887.005 65.354Z" fill="#FFD886"/>
<path d="M888.385 68.7863C891.885 68.7863 914.381 81.4994 899.251 107.952L893.185 86.5391C893.185 86.5391 856.699 117.324 826.906 127.586L888.385 68.7749V68.7863ZM885.66 61.9337L883.653 63.8492L822.185 122.66L799.587 144.324L829.141 134.062C851.466 126.355 876.709 108.169 889.411 98.3287L892.706 109.822L897.142 125.488L905.249 111.35C914.507 95.159 911.52 83.2097 907.392 76.0037C902.569 67.6233 893.71 61.9451 888.488 61.9109L885.66 61.9337Z" fill="#515979"/>
<path d="M759.589 112.752L803.646 140.117C804.971 140.943 806.451 141.488 807.995 141.719C809.539 141.949 811.114 141.86 812.622 141.457C814.131 141.054 815.54 140.346 816.763 139.376C817.987 138.406 818.998 137.195 819.734 135.818L842.88 92.5706L759.589 112.752Z" fill="#D8EBFB"/>
<path d="M809.677 145.259C806.91 145.264 804.197 144.493 801.844 143.036L705.965 83.449C705.229 82.9545 704.714 82.1935 704.528 81.3264C704.342 80.4594 704.501 79.5541 704.969 78.8014C705.438 78.0487 706.181 77.5075 707.041 77.2918C707.901 77.0761 708.811 77.2029 709.58 77.6454L805.459 137.198C806.385 137.773 807.42 138.152 808.499 138.311C809.578 138.471 810.678 138.408 811.731 138.126C812.785 137.844 813.769 137.349 814.624 136.671C815.479 135.994 816.186 135.149 816.701 134.188L869.96 34.6942C870.168 34.2917 870.454 33.9345 870.801 33.6435C871.149 33.3524 871.55 33.1333 871.983 32.9989C872.416 32.8645 872.871 32.8174 873.322 32.8604C873.774 32.9034 874.212 33.0357 874.611 33.2494C875.011 33.4632 875.364 33.7543 875.65 34.1057C875.936 34.4572 876.15 34.862 876.278 35.2966C876.407 35.7313 876.447 36.1871 876.398 36.6376C876.349 37.0882 876.21 37.5244 875.991 37.921L822.733 137.437C821.776 139.224 820.462 140.795 818.874 142.055C817.285 143.314 815.455 144.233 813.497 144.757C812.252 145.094 810.967 145.263 809.677 145.259V145.259Z" fill="#515979"/>
<path d="M703.138 160.526C703.138 160.526 714.197 152.351 719.773 143.788Z" fill="#FFE8A0"/>
<path d="M703.149 162.807C702.792 162.807 702.44 162.724 702.121 162.563C701.802 162.403 701.526 162.17 701.313 161.883C701.134 161.643 701.004 161.37 700.931 161.079C700.857 160.789 700.842 160.486 700.885 160.19C700.929 159.893 701.03 159.608 701.184 159.351C701.338 159.094 701.54 158.869 701.781 158.691C701.895 158.611 712.578 150.709 717.869 142.545C718.017 142.265 718.221 142.018 718.469 141.821C718.718 141.623 719.005 141.48 719.312 141.4C719.618 141.32 719.939 141.305 720.252 141.355C720.565 141.406 720.864 141.522 721.13 141.694C721.396 141.867 721.623 142.093 721.796 142.359C721.97 142.624 722.086 142.923 722.138 143.236C722.189 143.549 722.175 143.869 722.095 144.176C722.016 144.484 721.874 144.771 721.677 145.02C715.976 153.822 704.951 161.997 704.483 162.351C704.098 162.64 703.631 162.799 703.149 162.807Z" fill="#515979"/>
<path d="M717.914 170.423C720.714 167.176 723.296 163.748 725.645 160.161Z" fill="#FFE8A0"/>
<path d="M717.915 172.703C717.474 172.705 717.043 172.579 716.673 172.34C716.302 172.102 716.009 171.761 715.828 171.36C715.647 170.958 715.587 170.513 715.653 170.077C715.72 169.642 715.911 169.235 716.204 168.907C718.931 165.744 721.448 162.408 723.741 158.918C723.898 158.655 724.107 158.425 724.355 158.244C724.603 158.063 724.885 157.934 725.184 157.864C725.483 157.795 725.793 157.786 726.095 157.84C726.398 157.893 726.686 158.007 726.944 158.174C727.201 158.342 727.422 158.559 727.593 158.814C727.764 159.069 727.882 159.356 727.94 159.658C727.998 159.959 727.994 160.27 727.928 160.57C727.863 160.87 727.738 161.154 727.561 161.404C725.14 165.088 722.474 168.604 719.579 171.928C719.371 172.166 719.115 172.357 718.828 172.491C718.542 172.624 718.231 172.697 717.915 172.703V172.703Z" fill="#515979"/>
<path d="M882.445 86.1855C885.033 84.1169 887.5 81.9013 889.833 79.5496Z" fill="#FFE8A0"/>
<path d="M882.445 88.4656C881.975 88.4665 881.517 88.3224 881.132 88.0531C880.747 87.7837 880.455 87.4022 880.296 86.9606C880.136 86.519 880.117 86.0389 880.24 85.5859C880.363 85.1328 880.624 84.7289 880.985 84.4293L881.213 84.2355C883.664 82.2672 886.001 80.1621 888.214 77.9302C888.653 77.5595 889.215 77.3681 889.789 77.3942C890.363 77.4204 890.906 77.6622 891.309 78.0712C891.713 78.4803 891.947 79.0266 891.965 79.6008C891.983 80.1749 891.783 80.7348 891.407 81.1683C889.1 83.4939 886.664 85.6866 884.109 87.7359L883.881 87.9297C883.479 88.2688 882.971 88.4581 882.445 88.4656Z" fill="#515979"/>
<path d="M801.582 116.252C798.068 116.251 794.653 115.091 791.866 112.951C789.078 110.811 787.075 107.811 786.167 104.417C786.013 103.836 786.095 103.217 786.395 102.695C786.543 102.435 786.741 102.206 786.978 102.022C787.215 101.838 787.485 101.703 787.774 101.624L814.215 94.5429C814.406 94.4941 814.601 94.4673 814.797 94.4631C815.197 94.4638 815.591 94.57 815.937 94.771C816.199 94.9205 816.428 95.1204 816.612 95.3592C816.796 95.598 816.931 95.8708 817.009 96.162C817.642 98.5275 817.723 101.007 817.244 103.408C816.766 105.81 815.741 108.069 814.25 110.011C812.758 111.954 810.84 113.527 808.644 114.609C806.447 115.691 804.031 116.253 801.582 116.252V116.252Z" fill="#515979"/>
<path d="M814.797 96.7437C815.263 98.4791 815.382 100.289 815.148 102.071C814.914 103.852 814.332 105.57 813.434 107.127C812.536 108.683 811.34 110.047 809.915 111.142C808.49 112.236 806.863 113.039 805.128 113.505C803.393 113.97 801.582 114.09 799.801 113.856C798.019 113.622 796.301 113.039 794.745 112.141C791.602 110.328 789.308 107.341 788.367 103.836L814.797 96.7437ZM814.797 92.1829C814.412 92.1885 814.029 92.2421 813.657 92.3425L787.193 99.4118C786.606 99.5647 786.056 99.8331 785.575 100.201C785.093 100.569 784.689 101.03 784.388 101.555C783.794 102.592 783.63 103.82 783.932 104.976C784.971 108.854 787.26 112.282 790.445 114.727C793.63 117.171 797.533 118.497 801.548 118.499C803.142 118.501 804.73 118.29 806.268 117.872C810.942 116.621 814.927 113.565 817.347 109.376C819.768 105.187 820.425 100.209 819.175 95.5351C818.923 94.5567 818.352 93.6898 817.554 93.0707C816.755 92.4516 815.773 92.1153 814.763 92.1145L814.797 92.1829Z" fill="#515979"/>
<path d="M805.126 113.507C810.558 112.051 814.432 108.899 813.78 106.466C813.129 104.033 808.197 103.24 802.765 104.696C797.333 106.151 793.459 109.303 794.11 111.736C794.762 114.169 799.694 114.962 805.126 113.507Z" fill="#EF7D7D"/>
<path d="M808.332 90.4609C807.874 90.4616 807.427 90.3246 807.048 90.0676C806.669 89.8106 806.377 89.4456 806.208 89.0201C806.04 88.5945 806.003 88.1281 806.103 87.6814C806.203 87.2348 806.436 86.8287 806.77 86.5159C808.405 85.1232 810.33 84.1121 812.405 83.5559C814.48 82.9998 816.652 82.9125 818.765 83.3005C819.065 83.3601 819.351 83.4796 819.604 83.652C819.858 83.8245 820.074 84.0462 820.24 84.304C820.405 84.5618 820.517 84.8504 820.569 85.1525C820.621 85.4546 820.611 85.764 820.541 86.0623C820.47 86.3605 820.34 86.6415 820.159 86.8885C819.977 87.1354 819.748 87.3432 819.484 87.4994C819.22 87.6556 818.928 87.7571 818.624 87.7977C818.32 87.8383 818.011 87.8173 817.716 87.7359C816.338 87.5128 814.928 87.5845 813.58 87.9461C812.232 88.3077 810.975 88.9511 809.894 89.8338C809.472 90.2344 808.914 90.4587 808.332 90.4609Z" fill="#515979"/>
<path d="M811.342 87.3939C815.75 87.3939 819.323 83.8205 819.323 79.4125C819.323 75.0045 815.75 71.4312 811.342 71.4312C806.934 71.4312 803.361 75.0045 803.361 79.4125C803.361 83.8205 806.934 87.3939 811.342 87.3939Z" fill="#515979"/>
<path d="M813.269 80.895C814.371 80.895 815.264 80.0016 815.264 78.8996C815.264 77.7976 814.371 76.9043 813.269 76.9043C812.167 76.9043 811.274 77.7976 811.274 78.8996C811.274 80.0016 812.167 80.895 813.269 80.895Z" fill="white"/>
<path d="M779.736 98.1232C779.281 98.1215 778.836 97.9836 778.46 97.7272C778.084 97.4708 777.793 97.1076 777.625 96.6845C777.457 96.2613 777.42 95.7976 777.517 95.353C777.615 94.9083 777.844 94.5031 778.174 94.1896C779.808 92.7955 781.733 91.7835 783.808 91.2273C785.883 90.671 788.056 90.5846 790.169 90.9742C790.731 91.1357 791.21 91.5073 791.506 92.0119C791.802 92.5165 791.893 93.1157 791.76 93.6854C791.626 94.2551 791.279 94.7518 790.79 95.0728C790.301 95.3937 789.707 95.5143 789.131 95.4096C787.751 95.1863 786.34 95.2578 784.99 95.6194C783.64 95.9811 782.382 96.6245 781.298 97.5075C780.875 97.904 780.316 98.1241 779.736 98.1232V98.1232Z" fill="#515979"/>
<path d="M782.7 95.0675C787.108 95.0675 790.682 91.4941 790.682 87.0861C790.682 82.6781 787.108 79.1047 782.7 79.1047C778.292 79.1047 774.719 82.6781 774.719 87.0861C774.719 91.4941 778.292 95.0675 782.7 95.0675Z" fill="#515979"/>
<path d="M784.627 88.5683C785.729 88.5683 786.623 87.675 786.623 86.573C786.623 85.471 785.729 84.5776 784.627 84.5776C783.525 84.5776 782.632 85.471 782.632 86.573C782.632 87.675 783.525 88.5683 784.627 88.5683Z" fill="white"/>
<path d="M802.392 65.4224C802.54 64.9993 802.712 64.5844 802.905 64.1796C803.089 63.8122 803.299 63.4579 803.532 63.1193C804.004 62.4236 804.559 61.788 805.185 61.2265C806.523 60.0331 808.157 59.2218 809.917 58.8777C811.661 58.521 813.47 58.6431 815.15 59.2312C815.925 59.4971 816.667 59.849 817.362 60.2802C818.007 60.7225 818.606 61.2266 819.152 61.7852C819.473 62.1175 819.688 62.5368 819.772 62.9909C819.855 63.4449 819.803 63.9134 819.622 64.338C819.441 64.7625 819.138 65.1242 818.753 65.378C818.367 65.6317 817.915 65.7661 817.454 65.7645H816.895C816.322 65.7368 815.751 65.6759 815.185 65.5821L814.421 65.5251C814.184 65.4787 813.943 65.4596 813.702 65.4681C812.872 65.4196 812.038 65.4616 811.217 65.5935C810.402 65.7322 809.611 65.9856 808.868 66.346C808.457 66.5512 808.024 66.7565 807.602 67.0187C807.186 67.2842 806.756 67.5277 806.314 67.7484L805.082 68.1817C804.549 68.3674 803.963 68.3336 803.454 68.0877C802.945 67.8419 802.555 67.4041 802.369 66.8705C802.214 66.3989 802.222 65.8889 802.392 65.4224V65.4224Z" fill="#515979"/>
<path d="M781.207 74.4756C780.819 74.544 780.215 74.4756 779.725 74.4756C779.234 74.4756 778.744 74.4756 778.299 74.4756C777.472 74.5268 776.657 74.7037 775.882 75.0001C775.103 75.2928 774.361 75.6754 773.67 76.1403C773.458 76.2548 773.259 76.3924 773.077 76.5507L772.439 76.984C771.995 77.3492 771.531 77.688 771.048 77.9988L770.58 78.2724C770.183 78.4912 769.73 78.5901 769.278 78.5573C768.825 78.5246 768.392 78.3614 768.03 78.0877C767.669 77.814 767.394 77.4413 767.239 77.0148C767.085 76.5883 767.057 76.1261 767.16 75.6842C767.359 74.9282 767.626 74.1917 767.958 73.4836C768.35 72.7617 768.82 72.085 769.36 71.4655C770.521 70.1554 772.008 69.1759 773.67 68.6264C775.364 68.0448 777.183 67.9267 778.938 68.2843C779.76 68.4684 780.559 68.7438 781.321 69.1053C781.693 69.2839 782.051 69.4897 782.393 69.721C782.768 69.965 783.123 70.2396 783.453 70.5419C783.763 70.7994 783.993 71.14 784.117 71.5238C784.24 71.9075 784.252 72.3185 784.15 72.7086C784.049 73.0987 783.838 73.4517 783.543 73.7263C783.248 74.0009 782.88 74.1856 782.484 74.2589L781.207 74.4756Z" fill="#515979"/>
<path d="M581.673 190.559C581.002 190.558 580.346 190.361 579.787 189.991C579.228 189.62 578.789 189.094 578.527 188.477C578.264 187.859 578.189 187.179 578.311 186.519C578.432 185.859 578.745 185.25 579.21 184.767C589.472 174.117 602.367 174.505 614.818 174.87C626.22 175.212 637.109 175.531 645.296 167.059C645.933 166.44 646.787 166.094 647.675 166.093C648.564 166.092 649.418 166.437 650.057 167.055C650.696 167.673 651.069 168.515 651.097 169.404C651.126 170.292 650.808 171.156 650.21 171.814C639.948 182.463 627.052 182.076 614.613 181.711C603.211 181.369 592.322 181.05 584.136 189.521C583.816 189.851 583.433 190.112 583.01 190.291C582.587 190.469 582.132 190.56 581.673 190.559V190.559Z" fill="#515979"/>
<path d="M574.592 164.129C573.921 164.129 573.265 163.931 572.706 163.561C572.147 163.191 571.709 162.664 571.446 162.047C571.184 161.43 571.109 160.749 571.23 160.089C571.351 159.43 571.664 158.82 572.129 158.337C582.391 147.688 595.287 148.075 607.737 148.44C619.139 148.771 630.017 149.101 638.215 140.63C638.523 140.291 638.896 140.017 639.312 139.825C639.728 139.633 640.178 139.526 640.636 139.512C641.094 139.497 641.551 139.574 641.978 139.739C642.405 139.904 642.795 140.153 643.125 140.472C643.454 140.791 643.716 141.172 643.895 141.594C644.074 142.016 644.166 142.469 644.167 142.927C644.167 143.385 644.076 143.839 643.897 144.261C643.719 144.683 643.458 145.065 643.129 145.384C632.867 156.022 619.972 155.646 607.532 155.281C596.13 154.939 585.241 154.62 577.055 163.092C576.735 163.421 576.352 163.683 575.929 163.861C575.506 164.039 575.051 164.13 574.592 164.129Z" fill="#515979"/>
<path d="M588.753 217C587.867 216.996 587.017 216.649 586.382 216.031C585.73 215.4 585.356 214.537 585.341 213.63C585.326 212.724 585.672 211.848 586.302 211.196C596.564 200.547 609.448 200.935 621.899 201.299C633.301 201.641 644.19 201.961 652.376 193.489C653.007 192.836 653.871 192.46 654.779 192.444C655.686 192.428 656.563 192.773 657.216 193.404C657.869 194.034 658.245 194.898 658.261 195.806C658.278 196.714 657.932 197.59 657.302 198.244C647.04 208.893 634.133 208.505 621.694 208.141C610.235 207.799 599.403 207.479 591.216 215.951C590.897 216.282 590.515 216.546 590.092 216.726C589.668 216.907 589.213 217 588.753 217Z" fill="#515979"/>
<path d="M208.667 56.8333H32.3333C25.9821 56.8333 20.8333 61.982 20.8333 68.3333V180.778C20.8333 187.129 25.9821 192.278 32.3333 192.278H208.667C215.018 192.278 220.167 187.129 220.167 180.778V68.3333C220.167 61.982 215.018 56.8333 208.667 56.8333Z" fill="#D8EBFB"/>
<path d="M208.667 60.6667C210.7 60.6667 212.65 61.4744 214.088 62.9122C215.526 64.35 216.333 66.3 216.333 68.3333V180.778C216.333 182.811 215.526 184.761 214.088 186.199C212.65 187.637 210.7 188.444 208.667 188.444H32.3333C30.3 188.444 28.35 187.637 26.9122 186.199C25.4744 184.761 24.6667 182.811 24.6667 180.778V68.3333C24.6667 66.3 25.4744 64.35 26.9122 62.9122C28.35 61.4744 30.3 60.6667 32.3333 60.6667H208.667ZM208.667 53H32.3333C28.2667 53 24.3666 54.6155 21.491 57.491C18.6155 60.3666 17 64.2667 17 68.3333L17 180.778C17 184.844 18.6155 188.745 21.491 191.62C24.3666 194.496 28.2667 196.111 32.3333 196.111H208.667C212.733 196.111 216.633 194.496 219.509 191.62C222.385 188.745 224 184.844 224 180.778V68.3333C224 64.2667 222.385 60.3666 219.509 57.491C216.633 54.6155 212.733 53 208.667 53V53Z" fill="#515979"/>
<path d="M112.412 153.28L24.6667 60.6667V81.469L101.704 163.63C102.899 164.905 104.343 165.921 105.946 166.615C107.549 167.31 109.278 167.668 111.025 167.668C112.773 167.668 114.501 167.31 116.104 166.615C117.708 165.921 119.152 164.905 120.347 163.63L127.63 155.874C125.158 157.161 122.332 157.603 119.585 157.135C116.837 156.667 114.318 155.313 112.412 153.28V153.28Z" fill="#ACC9DB"/>
<path d="M120.5 160.819C118.229 160.818 115.983 160.351 113.899 159.448C111.816 158.545 109.94 157.224 108.387 155.567L21.8683 63.2861C21.3045 62.5271 21.041 61.5864 21.1286 60.6449C21.2162 59.7034 21.6487 58.8275 22.343 58.1856C23.0372 57.5436 23.9443 57.1809 24.8897 57.1672C25.8352 57.1534 26.7524 57.4896 27.465 58.1111L113.971 150.392C114.807 151.286 115.818 151.998 116.942 152.485C118.065 152.972 119.276 153.224 120.5 153.224C121.724 153.224 122.935 152.972 124.058 152.485C125.182 151.998 126.193 151.286 127.029 150.392L213.535 58.1111C214.233 57.3836 215.19 56.9605 216.198 56.9335C217.206 56.9065 218.184 57.2778 218.92 57.9669C219.656 58.656 220.092 59.6075 220.131 60.6151C220.171 61.6227 219.812 62.6053 219.132 63.35L132.613 155.567C131.06 157.224 129.184 158.545 127.101 159.448C125.017 160.351 122.771 160.818 120.5 160.819V160.819Z" fill="#515979"/>
<path d="M216.333 192.278C215.795 192.277 215.264 192.162 214.773 191.942C214.282 191.722 213.843 191.401 213.484 191L155.984 127.111C155.615 126.743 155.325 126.303 155.132 125.819C154.939 125.335 154.847 124.817 154.861 124.296C154.875 123.775 154.995 123.262 155.214 122.79C155.433 122.317 155.746 121.893 156.133 121.545C156.521 121.197 156.976 120.932 157.47 120.766C157.964 120.6 158.487 120.536 159.006 120.578C159.525 120.621 160.031 120.769 160.491 121.013C160.951 121.258 161.357 121.594 161.683 122L219.183 185.889C219.676 186.44 219.999 187.122 220.113 187.852C220.227 188.583 220.128 189.331 219.827 190.006C219.525 190.681 219.035 191.255 218.416 191.658C217.796 192.061 217.073 192.276 216.333 192.278V192.278Z" fill="#515979"/>
<path d="M24.6667 192.278C23.9273 192.276 23.2042 192.061 22.5844 191.658C21.9647 191.255 21.4747 190.681 21.1735 190.006C20.8724 189.331 20.7729 188.583 20.8871 187.852C21.0013 187.122 21.3243 186.44 21.8172 185.889L79.3172 122C80.0108 121.307 80.9434 120.907 81.9233 120.88C82.9031 120.854 83.8559 121.204 84.5857 121.858C85.3154 122.513 85.7667 123.422 85.8468 124.399C85.9268 125.376 85.6296 126.347 85.0161 127.111L27.5161 191C27.1574 191.401 26.7184 191.722 26.2274 191.942C25.7365 192.162 25.2047 192.277 24.6667 192.278V192.278Z" fill="#515979"/>
<path d="M142.861 104.814C142.415 104.828 141.974 104.722 141.583 104.507C140.156 103.869 138.61 103.539 137.047 103.539C135.484 103.539 133.938 103.869 132.511 104.507C131.915 104.829 131.215 104.901 130.565 104.707C129.916 104.513 129.37 104.069 129.048 103.472C128.726 102.876 128.655 102.176 128.849 101.526C129.043 100.877 129.487 100.331 130.083 100.009C132.259 98.9746 134.638 98.4377 137.047 98.4377C139.456 98.4377 141.835 98.9746 144.011 100.009C144.517 100.282 144.916 100.717 145.144 101.244C145.372 101.772 145.416 102.361 145.269 102.916C145.121 103.471 144.79 103.96 144.33 104.305C143.87 104.649 143.308 104.828 142.733 104.814H142.861Z" fill="#515979"/>
<path d="M137.111 102.578C142.051 102.578 146.056 98.5733 146.056 93.6334C146.056 88.6935 142.051 84.689 137.111 84.689C132.171 84.689 128.167 88.6935 128.167 93.6334C128.167 98.5733 132.171 102.578 137.111 102.578Z" fill="#515979"/>
<path d="M139.347 95.8694C140.582 95.8694 141.583 94.8683 141.583 93.6333C141.583 92.3984 140.582 91.3972 139.347 91.3972C138.112 91.3972 137.111 92.3984 137.111 93.6333C137.111 94.8683 138.112 95.8694 139.347 95.8694Z" fill="white"/>
<path d="M133.048 76.0001C133.86 75.5891 134.718 75.276 135.603 75.0673C136.441 74.8617 137.297 74.7376 138.159 74.6967C140.002 74.6268 141.839 74.9446 143.551 75.6295C145.374 76.332 146.979 77.5047 148.202 79.0284C149.405 80.4878 150.163 82.2618 150.387 84.1395C150.441 84.4813 150.425 84.8305 150.34 85.1659C150.255 85.5013 150.103 85.816 149.892 86.0908C149.682 86.3656 149.418 86.5948 149.117 86.7646C148.815 86.9343 148.482 87.0411 148.138 87.0784C147.796 87.127 147.447 87.1056 147.114 87.0156C146.78 86.9255 146.468 86.7687 146.196 86.5545L145.698 86.1712C144.882 85.4423 144.029 84.7557 143.142 84.114C142.375 83.5763 141.553 83.1222 140.689 82.7595C139.723 82.3624 138.728 82.042 137.712 81.8012C137.162 81.6734 136.587 81.5201 135.999 81.4178C135.412 81.3156 134.722 81.2006 134.262 81.0217L133.278 80.664C132.656 80.4207 132.153 79.9434 131.879 79.3344C131.604 78.7254 131.579 78.033 131.808 77.4056C132.029 76.7971 132.472 76.2947 133.048 76.0001Z" fill="#515979"/>
<path d="M109.639 104.814C109.193 104.83 108.751 104.724 108.361 104.507C106.934 103.869 105.388 103.539 103.825 103.539C102.262 103.539 100.716 103.869 99.2889 104.507C98.6924 104.829 97.9925 104.901 97.3431 104.707C96.6937 104.513 96.1481 104.069 95.8261 103.472C95.5042 102.876 95.4323 102.176 95.6264 101.526C95.8205 100.877 96.2647 100.331 96.8611 100.009C99.0368 98.9746 101.416 98.4377 103.825 98.4377C106.234 98.4377 108.613 98.9746 110.789 100.009C111.295 100.282 111.694 100.717 111.922 101.244C112.15 101.772 112.194 102.361 112.046 102.916C111.899 103.471 111.568 103.96 111.108 104.305C110.648 104.649 110.086 104.828 109.511 104.814H109.639Z" fill="#515979"/>
<path d="M103.889 102.578C108.829 102.578 112.833 98.5733 112.833 93.6334C112.833 88.6935 108.829 84.689 103.889 84.689C98.949 84.689 94.9445 88.6935 94.9445 93.6334C94.9445 98.5733 98.949 102.578 103.889 102.578Z" fill="#515979"/>
<path d="M106.125 95.8694C107.36 95.8694 108.361 94.8683 108.361 93.6333C108.361 92.3984 107.36 91.3972 106.125 91.3972C104.89 91.3972 103.889 92.3984 103.889 93.6333C103.889 94.8683 104.89 95.8694 106.125 95.8694Z" fill="white"/>
<path d="M106.764 81.0087C106.291 81.1876 105.588 81.2642 105.026 81.4048C104.464 81.5453 103.863 81.6603 103.314 81.7881C102.298 82.0289 101.302 82.3494 100.337 82.7464C99.4729 83.1092 98.6505 83.5632 97.8833 84.1009C96.997 84.7426 96.144 85.4292 95.3278 86.1581L94.8422 86.5414C94.5729 86.77 94.2591 86.9403 93.9207 87.0415C93.5822 87.1427 93.2264 87.1727 92.8758 87.1294C92.5252 87.0862 92.1874 86.9708 91.8837 86.7904C91.5799 86.61 91.3169 86.3686 91.1111 86.0814C90.6835 85.525 90.4908 84.8232 90.5745 84.1264C90.7985 82.2487 91.5569 80.4747 92.7595 79.0153C94.0137 77.4975 95.6501 76.3419 97.5 75.6676C99.1916 74.987 101.006 74.6651 102.828 74.722C103.69 74.7628 104.546 74.8869 105.384 75.0926C106.27 75.3013 107.128 75.6144 107.939 76.0253C108.373 76.2501 108.734 76.5946 108.978 77.018C109.222 77.4414 109.34 77.9259 109.317 78.4141C109.294 78.9023 109.132 79.3737 108.849 79.7724C108.566 80.1711 108.175 80.4804 107.722 80.6637L106.764 81.0087Z" fill="#515979"/>
<path d="M169.056 89.4168C166.514 89.4168 164.076 88.4072 162.279 86.61C160.482 84.8127 159.472 82.3752 159.472 79.8335C159.472 75.7446 164.341 68.3335 166.423 65.2413L169.056 61.408L171.688 65.2413C173.771 68.3335 178.639 75.7446 178.639 79.8335C178.639 82.3752 177.629 84.8127 175.832 86.61C174.035 88.4072 171.597 89.4168 169.056 89.4168Z" fill="#6ADAF7"/>
<path d="M169.056 67.0555C169.056 67.0555 175.444 76.3066 175.444 79.8333C175.444 81.5277 174.771 83.1527 173.573 84.3509C172.375 85.549 170.75 86.2221 169.056 86.2221C167.361 86.2221 165.736 85.549 164.538 84.3509C163.34 83.1527 162.667 81.5277 162.667 79.8333C162.667 76.3066 169.056 67.0555 169.056 67.0555ZM169.056 55.811L163.804 63.4777C160.367 68.3971 156.278 75.2716 156.278 79.8333C156.278 83.2221 157.624 86.4722 160.02 88.8685C162.417 91.2648 165.667 92.611 169.056 92.611C172.444 92.611 175.695 91.2648 178.091 88.8685C180.487 86.4722 181.833 83.2221 181.833 79.8333C181.833 75.2716 177.744 68.3971 174.307 63.4266L169.056 55.811V55.811Z" fill="#515979"/>
<path d="M105.167 128.389C104.489 128.389 103.839 128.12 103.36 127.64C102.88 127.161 102.611 126.511 102.611 125.833C102.611 121.089 104.496 116.539 107.851 113.184C111.205 109.829 115.756 107.944 120.5 107.944C125.244 107.944 129.795 109.829 133.149 113.184C136.504 116.539 138.389 121.089 138.389 125.833C138.389 126.511 138.12 127.161 137.64 127.64C137.161 128.12 136.511 128.389 135.833 128.389H105.167Z" fill="#515979"/>
<path d="M120.5 110.5C124.567 110.5 128.467 112.115 131.342 114.991C134.218 117.867 135.833 121.767 135.833 125.833H105.167C105.167 121.767 106.782 117.867 109.658 114.991C112.533 112.115 116.433 110.5 120.5 110.5ZM120.5 105.389C115.078 105.389 109.878 107.543 106.044 111.377C102.21 115.211 100.056 120.411 100.056 125.833C100.056 127.189 100.594 128.489 101.553 129.447C102.511 130.406 103.811 130.944 105.167 130.944H135.833C137.189 130.944 138.489 130.406 139.447 129.447C140.406 128.489 140.944 127.189 140.944 125.833C140.944 120.411 138.79 115.211 134.956 111.377C131.122 107.543 125.922 105.389 120.5 105.389V105.389Z" fill="#515979"/>
<path d="M120.5 119.444C118.212 119.513 115.974 120.129 113.973 121.24C111.972 122.352 110.267 123.927 109 125.833H132C130.733 123.927 129.028 122.352 127.027 121.24C125.026 120.129 122.788 119.513 120.5 119.444V119.444Z" fill="#EF7D7D"/>
</g>
</svg>
