<?xml version="1.0" encoding="utf-8"?>
<!-- Generator: Adobe Illustrator 25.4.1, SVG Export Plug-In . SVG Version: 6.00 Build 0)  -->
<svg version="1.1" id="on-page-seo" xmlns="http://www.w3.org/2000/svg" xmlns:xlink="http://www.w3.org/1999/xlink" x="0px"
	 y="0px" viewBox="0 0 400 400" style="enable-background:new 0 0 400 400;" xml:space="preserve">
<style type="text/css">
	.st0{fill:#FFD886;}
	.st1{fill:#FFFFFF;}
	.st2{fill:#515979;}
	.st3{fill:#2196F3;}
	.st4{fill:#667683;}
	.st5{fill:#EF7D7D;}
	.st6{fill:#FFE8A0;}
	.st7{fill:#7DDF96;}
	.st8{fill:#BCDFFB;}
	.st9{fill:#1E78D2;}
	.st10{fill:#747A94;}
	.st11{fill:#979BAF;}
	.st12{fill:#D8EBFB;}
	.st13{fill:#97E5AB;}
	.st14{fill:#63C3A3;}
	.st15{fill:#F9B19A;}
	.st16{fill:#75A5C3;}
	.st17{fill:#ACC9DB;}
	.st18{fill:none;}
</style>
<path class="st0" d="M370,96h-6v-6c0-1.66-1.34-3-3-3s-3,1.34-3,3v6h-6c-1.66,0-3,1.34-3,3s1.34,3,3,3h6v6c0,1.66,1.34,3,3,3
	s3-1.34,3-3v-6h6c1.66,0,3-1.34,3-3S371.66,96,370,96z"/>
<path class="st0" d="M128,346h-6v-6c0-1.66-1.34-3-3-3s-3,1.34-3,3v6h-6c-1.66,0-3,1.34-3,3s1.34,3,3,3h6v6c0,1.66,1.34,3,3,3
	s3-1.34,3-3v-6h6c1.66,0,3-1.34,3-3S129.66,346,128,346z"/>
<circle class="st0" cx="252.5" cy="141.5" r="2.5"/>
<circle class="st0" cx="372.5" cy="326.5" r="2.5"/>
<circle class="st0" cx="284.5" cy="114.5" r="4.5"/>
<circle class="st0" cx="123" cy="311" r="3"/>
<circle class="st0" cx="184.5" cy="358.5" r="4.5"/>
<path class="st0" d="M374.4,180.4c-2.65,0-4.8-2.15-4.8-4.8c0-0.88-0.72-1.6-1.6-1.6c-0.88,0-1.6,0.72-1.6,1.6
	c0,2.65-2.15,4.8-4.8,4.8c-0.88,0-1.6,0.72-1.6,1.6s0.72,1.6,1.6,1.6c2.65,0,4.8,2.15,4.8,4.8c0,0.88,0.72,1.6,1.6,1.6
	c0.88,0,1.6-0.72,1.6-1.6c0-2.65,2.15-4.8,4.8-4.8c0.88,0,1.6-0.72,1.6-1.6S375.28,180.4,374.4,180.4z"/>
<path class="st0" d="M176.2,311.2c-2.98,0-5.4-2.42-5.4-5.4c0-0.99-0.81-1.8-1.8-1.8c-0.99,0-1.8,0.81-1.8,1.8
	c0,2.98-2.42,5.4-5.4,5.4c-0.99,0-1.8,0.81-1.8,1.8s0.81,1.8,1.8,1.8c2.98,0,5.4,2.42,5.4,5.4c0,0.99,0.81,1.8,1.8,1.8
	c0.99,0,1.8-0.81,1.8-1.8c0-2.98,2.42-5.4,5.4-5.4c0.99,0,1.8-0.81,1.8-1.8S177.19,311.2,176.2,311.2z"/>
<path class="st0" d="M344.4,360.4c-2.65,0-4.8-2.15-4.8-4.8c0-0.88-0.72-1.6-1.6-1.6c-0.88,0-1.6,0.72-1.6,1.6
	c0,2.65-2.15,4.8-4.8,4.8c-0.88,0-1.6,0.72-1.6,1.6s0.72,1.6,1.6,1.6c2.65,0,4.8,2.15,4.8,4.8c0,0.88,0.72,1.6,1.6,1.6
	c0.88,0,1.6-0.72,1.6-1.6c0-2.65,2.15-4.8,4.8-4.8c0.88,0,1.6-0.72,1.6-1.6S345.28,360.4,344.4,360.4z"/>
<path class="st0" d="M322.6,149.6c-2.32,0-4.2-1.88-4.2-4.2c0-0.77-0.63-1.4-1.4-1.4s-1.4,0.63-1.4,1.4c0,2.32-1.88,4.2-4.2,4.2
	c-0.77,0-1.4,0.63-1.4,1.4s0.63,1.4,1.4,1.4c2.32,0,4.2,1.88,4.2,4.2c0,0.77,0.63,1.4,1.4,1.4s1.4-0.63,1.4-1.4
	c0-2.32,1.88-4.2,4.2-4.2c0.77,0,1.4-0.63,1.4-1.4S323.37,149.6,322.6,149.6z"/>
<circle class="st0" cx="373" cy="132" r="3"/>
<path class="st1" d="M36,283c-7.17,0-13-5.83-13-13V44c0-7.17,5.83-13,13-13h180c7.17,0,13,5.83,13,13v226c0,7.17-5.83,13-13,13H36z
	"/>
<path class="st2" d="M216,34c5.52,0,10,4.48,10,10v226c0,5.52-4.48,10-10,10H36c-5.52,0-10-4.48-10-10V44c0-5.52,4.48-10,10-10H216
	 M216,28H36c-8.82,0-16,7.18-16,16v226c0,8.82,7.18,16,16,16h180c8.82,0,16-7.18,16-16V44C232,35.18,224.82,28,216,28L216,28z"/>
<path class="st3" d="M216,280H36c-5.52,0-10-4.48-10-10v-62h200v62C226,275.52,221.52,280,216,280z"/>
<rect x="26" y="68" class="st3" width="200" height="76"/>
<path class="st4" d="M26,65c-1.66,0-3-1.34-3-3V44c0-7.17,5.83-13,13-13h180c7.17,0,13,5.83,13,13v18c0,1.66-1.34,3-3,3H26z"/>
<path class="st2" d="M216,34c5.52,0,10,4.48,10,10v18H26V44c0-5.52,4.48-10,10-10H216 M216,28H36c-8.82,0-16,7.18-16,16v18
	c0,3.31,2.69,6,6,6h200c3.31,0,6-2.69,6-6V44C232,35.18,224.82,28,216,28L216,28z"/>
<path class="st1" d="M116,55c-3.86,0-7-3.14-7-7s3.14-7,7-7h94c3.86,0,7,3.14,7,7s-3.14,7-7,7H116z"/>
<path class="st2" d="M210,44c2.21,0,4,1.79,4,4s-1.79,4-4,4h-94c-2.21,0-4-1.79-4-4s1.79-4,4-4H210 M210,38h-94
	c-5.51,0-10,4.49-10,10s4.49,10,10,10h94c5.51,0,10-4.49,10-10S215.51,38,210,38L210,38z"/>
<circle class="st5" cx="42" cy="48" r="7"/>
<path class="st2" d="M42,44c2.21,0,4,1.79,4,4s-1.79,4-4,4c-2.21,0-4-1.79-4-4S39.79,44,42,44 M42,38c-5.51,0-10,4.49-10,10
	s4.49,10,10,10s10-4.49,10-10S47.51,38,42,38L42,38z"/>
<circle class="st6" cx="66" cy="48" r="7"/>
<path class="st2" d="M66,44c2.21,0,4,1.79,4,4s-1.79,4-4,4c-2.21,0-4-1.79-4-4S63.79,44,66,44 M66,38c-5.51,0-10,4.49-10,10
	s4.49,10,10,10c5.51,0,10-4.49,10-10S71.51,38,66,38L66,38z"/>
<circle class="st7" cx="90" cy="48" r="7"/>
<path class="st2" d="M90,44c2.21,0,4,1.79,4,4s-1.79,4-4,4c-2.21,0-4-1.79-4-4S87.79,44,90,44 M90,38c-5.51,0-10,4.49-10,10
	s4.49,10,10,10s10-4.49,10-10S95.51,38,90,38L90,38z"/>
<rect x="26" y="143" class="st8" width="200" height="74"/>
<path class="st1" d="M45,202h42c2.21,0,4-1.79,4-4v-36c0-2.21-1.79-4-4-4H45c-2.21,0-4,1.79-4,4v36C41,200.21,42.79,202,45,202z"/>
<circle class="st8" cx="53" cy="170" r="6"/>
<path class="st3" d="M83,184H49c-1.1,0-2-0.9-2-2v0c0-1.1,0.9-2,2-2l34,0c1.1,0,2,0.9,2,2v0C85,183.1,84.1,184,83,184z"/>
<path class="st3" d="M69,192H49c-1.1,0-2-0.9-2-2v0c0-1.1,0.9-2,2-2l20,0c1.1,0,2,0.9,2,2v0C71,191.1,70.1,192,69,192z"/>
<path class="st1" d="M165,202h42c2.21,0,4-1.79,4-4v-36c0-2.21-1.79-4-4-4h-42c-2.21,0-4,1.79-4,4v36C161,200.21,162.79,202,165,202
	z"/>
<circle class="st8" cx="173" cy="170" r="6"/>
<path class="st3" d="M203,184h-34c-1.1,0-2-0.9-2-2v0c0-1.1,0.9-2,2-2h34c1.1,0,2,0.9,2,2v0C205,183.1,204.1,184,203,184z"/>
<path class="st3" d="M181,192l-12,0c-1.1,0-2-0.9-2-2v0c0-1.1,0.9-2,2-2h12c1.1,0,2,0.9,2,2v0C183,191.1,182.1,192,181,192z"/>
<path class="st1" d="M105,202h42c2.21,0,4-1.79,4-4v-36c0-2.21-1.79-4-4-4h-42c-2.21,0-4,1.79-4,4v36C101,200.21,102.79,202,105,202
	z"/>
<circle class="st8" cx="113" cy="170" r="6"/>
<path class="st3" d="M143,184h-34c-1.1,0-2-0.9-2-2v0c0-1.1,0.9-2,2-2h34c1.1,0,2,0.9,2,2v0C145,183.1,144.1,184,143,184z"/>
<path class="st3" d="M135,192h-26c-1.1,0-2-0.9-2-2v0c0-1.1,0.9-2,2-2h26c1.1,0,2,0.9,2,2v0C137,191.1,136.1,192,135,192z"/>
<circle class="st8" cx="66" cy="250" r="24"/>
<circle class="st8" cx="126" cy="250" r="24"/>
<circle class="st8" cx="186" cy="250" r="24"/>
<path class="st2" d="M145.5,105.24c-0.32,0-0.64-0.08-0.94-0.24c-1.89-1.02-5.22-1.02-7.11,0c-0.98,0.52-2.19,0.16-2.71-0.82
	c-0.52-0.97-0.16-2.19,0.82-2.71c3.05-1.64,7.84-1.64,10.89,0c0.97,0.52,1.34,1.73,0.82,2.71
	C146.9,104.86,146.21,105.24,145.5,105.24z"/>
<circle class="st2" cx="141" cy="94.49" r="8"/>
<circle class="st1" cx="143" cy="94.49" r="2"/>
<path class="st2" d="M135.14,78.18c0.69-0.58,1.26-0.95,1.95-1.32c0.67-0.35,1.38-0.64,2.12-0.86c1.48-0.44,3.1-0.61,4.75-0.42
	c0.41,0.06,0.82,0.11,1.23,0.22c0.41,0.11,0.81,0.24,1.21,0.37c0.4,0.15,0.77,0.36,1.15,0.54c0.38,0.18,0.74,0.4,1.07,0.66
	c1.41,0.94,2.39,2.3,3.04,3.7c0.47,1.02,0.02,2.23-1,2.7c-0.58,0.27-1.22,0.24-1.75-0.02l-0.39-0.19c-1.05-0.52-1.87-1.06-2.74-1.36
	c-0.85-0.34-1.67-0.56-2.59-0.68c-0.91-0.13-1.88-0.16-2.93-0.11c-0.52,0.04-1.06,0.06-1.61,0.13c-0.53,0.03-1.16,0.15-1.62,0.15
	l-0.62,0c-1.1,0-1.99-0.9-1.99-2C134.44,79.09,134.72,78.54,135.14,78.18z"/>
<path class="st2" d="M115.5,105.24c-0.32,0-0.64-0.08-0.94-0.24c-1.89-1.02-5.22-1.02-7.11,0c-0.98,0.52-2.19,0.16-2.71-0.82
	c-0.52-0.97-0.16-2.19,0.82-2.71c3.05-1.64,7.84-1.64,10.89,0c0.97,0.52,1.34,1.73,0.82,2.71
	C116.9,104.86,116.21,105.24,115.5,105.24z"/>
<circle class="st2" cx="111" cy="94.49" r="8"/>
<circle class="st1" cx="113" cy="94.49" r="2"/>
<path class="st2" d="M114.96,81.7c-0.46,0-1.08-0.11-1.62-0.15c-0.55-0.07-1.09-0.09-1.61-0.13c-1.05-0.05-2.02-0.02-2.93,0.11
	c-0.91,0.12-1.74,0.34-2.59,0.68c-0.88,0.29-1.69,0.84-2.74,1.36l-0.38,0.19c-1.01,0.5-2.23,0.09-2.73-0.92
	c-0.28-0.57-0.27-1.22-0.03-1.76c0.64-1.4,1.63-2.76,3.04-3.7c0.33-0.26,0.69-0.49,1.07-0.66c0.38-0.18,0.75-0.4,1.15-0.54
	c0.4-0.13,0.8-0.26,1.21-0.37c0.41-0.11,0.82-0.15,1.23-0.22c1.65-0.19,3.27-0.03,4.75,0.42c0.74,0.21,1.45,0.51,2.12,0.86
	c0.69,0.37,1.26,0.73,1.95,1.32c0.84,0.72,0.94,1.98,0.22,2.81c-0.39,0.46-0.94,0.7-1.5,0.7L114.96,81.7z"/>
<circle class="st9" cx="85" cy="102.14" r="2.5"/>
<circle class="st9" cx="90.5" cy="113.14" r="2.5"/>
<circle class="st9" cx="79.5" cy="113.14" r="2.5"/>
<circle class="st9" cx="167" cy="102.14" r="2.5"/>
<circle class="st9" cx="172.5" cy="113.14" r="2.5"/>
<circle class="st9" cx="161.5" cy="113.14" r="2.5"/>
<path class="st2" d="M144.01,108.64H108c-2.76,0-5,2.24-5,5c0,12.68,10.32,23,23,23c12.62,0,22.9-10.22,23-22.82
	c0-0.06,0-0.12,0-0.18C149,110.88,146.77,108.64,144.01,108.64z"/>
<ellipse class="st5" cx="126" cy="125.64" rx="13.39" ry="6"/>
<circle class="st10" cx="279" cy="259" r="96"/>
<path class="st2" d="M279,166c51.36,0,93,41.64,93,93s-41.64,93-93,93s-93-41.64-93-93S227.64,166,279,166 M279,160
	c-54.59,0-99,44.41-99,99s44.41,99,99,99s99-44.41,99-99S333.59,160,279,160L279,160z"/>
<path class="st11" d="M279,170c50.69,0,91.91,40.56,92.97,91c0.01-0.67,0.03-1.33,0.03-2c0-51.36-41.64-93-93-93s-93,41.64-93,93
	c0,0.67,0.01,1.33,0.03,2C187.09,210.56,228.31,170,279,170z"/>
<circle class="st12" cx="279" cy="259" r="73"/>
<path class="st2" d="M279,189c38.66,0,70,31.34,70,70s-31.34,70-70,70s-70-31.34-70-70S240.34,189,279,189 M279,183
	c-41.91,0-76,34.09-76,76s34.09,76,76,76s76-34.09,76-76S320.91,183,279,183L279,183z"/>
<path class="st13" d="M328.5,209.5C315.83,196.83,298.33,189,279,189v70h70C349,239.67,341.16,222.17,328.5,209.5z"/>
<path class="st14" d="M279,197c37.32,0,67.8,29.2,69.88,66c0.07-1.32,0.12-2.66,0.12-4c0-38.66-31.34-70-70-70s-70,31.34-70,70
	c0,1.34,0.05,2.68,0.12,4C211.2,226.2,241.68,197,279,197z"/>
<path class="st2" d="M287.03,294.78c-0.62,0-1.2-0.39-1.42-1.01c-0.27-0.78,0.15-1.64,0.93-1.91c2.24-0.77,5.74-0.77,7.98,0
	c0.78,0.27,1.2,1.12,0.93,1.91c-0.27,0.78-1.12,1.2-1.91,0.93c-1.6-0.55-4.42-0.55-6.02,0
	C287.35,294.75,287.19,294.78,287.03,294.78z"/>
<circle class="st2" cx="290.53" cy="286.58" r="6"/>
<circle class="st1" cx="292.03" cy="286.58" r="1.5"/>
<path class="st2" d="M287.09,272.64c0.97-0.61,1.86-0.91,2.88-1.12c0.99-0.21,2.03-0.24,3.08-0.12c1.04,0.11,2.1,0.44,3.07,0.95
	c0.97,0.5,1.83,1.28,2.42,2.19c0.52,0.8,0.29,1.86-0.51,2.38c-0.38,0.24-0.81,0.32-1.22,0.25l-0.4-0.07
	c-0.78-0.13-1.39-0.32-2.04-0.43c-0.65-0.1-1.27-0.25-1.96-0.33l-2.11-0.25c-0.72-0.08-1.55-0.12-2.25-0.28l-0.42-0.09
	c-0.92-0.2-1.5-1.11-1.29-2.02C286.44,273.26,286.72,272.88,287.09,272.64z"/>
<path class="st2" d="M270.97,294.78c-0.16,0-0.33-0.03-0.49-0.08c-1.6-0.55-4.42-0.55-6.02,0c-0.79,0.27-1.64-0.15-1.91-0.93
	c-0.27-0.78,0.15-1.64,0.93-1.91c2.24-0.77,5.74-0.77,7.98,0c0.78,0.27,1.2,1.12,0.93,1.91
	C272.18,294.39,271.6,294.78,270.97,294.78z"/>
<circle class="st2" cx="267.47" cy="286.58" r="6"/>
<circle class="st1" cx="268.97" cy="286.58" r="1.5"/>
<path class="st2" d="M269.94,275.84c-0.7,0.15-1.53,0.2-2.25,0.28l-2.11,0.25c-0.68,0.08-1.3,0.22-1.96,0.33
	c-0.65,0.11-1.26,0.3-2.04,0.43l-0.39,0.07c-0.94,0.16-1.83-0.47-1.98-1.41c-0.07-0.44,0.03-0.88,0.25-1.22
	c0.59-0.92,1.45-1.69,2.42-2.19c0.96-0.52,2.02-0.84,3.07-0.95c1.05-0.12,2.08-0.08,3.08,0.12c1.01,0.21,1.9,0.51,2.88,1.12
	c0.79,0.5,1.03,1.55,0.54,2.34c-0.25,0.4-0.64,0.66-1.07,0.76L269.94,275.84z"/>
<path class="st2" d="M291.01,297h-24c-2.21,0-4,1.79-4,4c0,8.82,7.18,16,16,16c8.77,0,15.91-7.09,16-15.84c0-0.05,0-0.11,0-0.16
	C295,298.79,293.21,297,291.01,297z"/>
<ellipse class="st5" cx="279" cy="309" rx="8.93" ry="4"/>
<path class="st15" d="M229.5,209.5C216.84,222.17,209,239.67,209,259h70v-70C259.67,189,242.17,196.83,229.5,209.5z"/>
<path class="st5" d="M268.34,189.81c-2.32,0.35-4.6,0.82-6.83,1.4c-1.12,0.29-2.23,0.6-3.32,0.94c-1.41,0.44-2.79,0.93-4.15,1.45
	c-1.5,0.57-2.97,1.19-4.42,1.86c-1.94,0.9-3.83,1.89-5.67,2.95c-1.39,0.81-2.76,1.64-4.09,2.54c-1.45,0.98-2.85,2.03-4.23,3.12
	c-1.27,1-2.51,2.03-3.7,3.11c-0.83,0.75-1.64,1.53-2.43,2.32c-0.79,0.79-1.56,1.6-2.32,2.43c-1.51,1.66-2.93,3.39-4.28,5.18
	c-1.34,1.8-2.6,3.66-3.77,5.58s-2.25,3.91-3.23,5.95c-0.49,1.02-0.96,2.05-1.4,3.1c-0.33,0.79-0.65,1.58-0.95,2.38
	c-0.91,2.4-1.7,4.86-2.34,7.38c-1.44,5.59-2.2,11.45-2.2,17.49h0.47c3.97-34.89,33.57-62,69.53-62v-8
	C275.38,189,271.82,189.28,268.34,189.81z"/>
<path class="st14" d="M290.54,259.86c-0.1,0-0.21-0.02-0.31-0.05l-19.2-6.29c-0.34-0.11-0.6-0.4-0.67-0.76
	c-0.07-0.35,0.06-0.72,0.33-0.95l46.23-39.54c0.19-0.16,0.42-0.24,0.65-0.24c0.23,0,0.46,0.08,0.64,0.23
	c0.38,0.31,0.47,0.85,0.22,1.27l-27.03,45.82C291.21,259.68,290.88,259.86,290.54,259.86z"/>
<path class="st14" d="M317.57,213.04l-27.03,45.82l-19.2-6.29L317.57,213.04 M317.57,211.04c-0.46,0-0.93,0.16-1.3,0.48
	l-46.23,39.53c-0.55,0.47-0.8,1.2-0.66,1.91c0.14,0.71,0.65,1.29,1.34,1.51l19.2,6.29c0.21,0.07,0.42,0.1,0.62,0.1
	c0.69,0,1.36-0.36,1.72-0.98l27.03-45.82c0.5-0.84,0.31-1.92-0.44-2.55C318.48,211.19,318.02,211.04,317.57,211.04L317.57,211.04z
	 M317.57,215.04L317.57,215.04L317.57,215.04L317.57,215.04z"/>
<path class="st5" d="M290.34,258.86c-0.09,0-0.19-0.01-0.28-0.02l-20-2.86c-0.72-0.1-1.32-0.58-1.58-1.26
	c-0.26-0.67-0.14-1.44,0.32-2l38.66-46.96c0.39-0.48,0.96-0.73,1.54-0.73c0.34,0,0.69,0.09,1,0.27c0.85,0.49,1.22,1.52,0.87,2.43
	l-18.66,49.82C291.91,258.35,291.16,258.86,290.34,258.86z"/>
<path class="st2" d="M309,207.04l-18.66,49.82l-20-2.86L309,207.04 M309,203.04c-1.16,0-2.31,0.51-3.09,1.46l-38.66,46.96
	c-0.92,1.12-1.16,2.64-0.64,3.99c0.52,1.35,1.73,2.31,3.16,2.51l20,2.86c0.19,0.03,0.38,0.04,0.57,0.04c1.65,0,3.15-1.02,3.74-2.6
	l18.66-49.82c0.69-1.83-0.05-3.89-1.75-4.87C310.37,203.21,309.68,203.04,309,203.04L309,203.04z M309,211.04L309,211.04L309,211.04
	L309,211.04z"/>
<path class="st16" d="M263,262c-1.66,0-3-1.34-3-3c0-10.48,8.52-19,19-19s19,8.52,19,19c0,1.66-1.34,3-3,3H263z"/>
<path class="st2" d="M279,243c8.84,0,16,7.16,16,16h-32C263,250.16,270.16,243,279,243 M279,237c-12.13,0-22,9.87-22,22
	c0,3.31,2.69,6,6,6h32c3.31,0,6-2.69,6-6C301,246.87,291.13,237,279,237L279,237z"/>
<path class="st17" d="M287.66,256c-0.69,0-1.36-0.36-1.73-1c-1.43-2.47-4.08-4-6.93-4c-1.1,0-2-0.9-2-2s0.9-2,2-2
	c4.27,0,8.25,2.3,10.39,6c0.55,0.96,0.23,2.18-0.73,2.73C288.35,255.91,288,256,287.66,256z"/>
<rect x="207.5" y="259" class="st2" width="143" height="6"/>
<rect class="st18" width="400" height="400"/>
</svg>
