<?xml version="1.0" encoding="utf-8"?>
<!-- Generator: Adobe Illustrator 26.1.0, SVG Export Plug-In . SVG Version: 6.00 Build 0)  -->
<svg version="1.1" id="Email_x5F_Hub-Email_x5F_Deliverability"
	 xmlns="http://www.w3.org/2000/svg" xmlns:xlink="http://www.w3.org/1999/xlink" x="0px" y="0px" viewBox="0 0 400 400"
	 style="enable-background:new 0 0 400 400;" xml:space="preserve">
<style type="text/css">
	.st0{fill:#7DDF96;}
	.st1{fill:#515979;}
	.st2{fill:none;}
	.st3{fill:#FFD886;}
	.st4{fill:#FAC864;}
	.st5{fill:#FBB040;}
	.st6{fill:#D8EBFB;}
	.st7{fill:#FFFFFF;}
	.st8{fill:#9DC8FA;}
	.st9{fill:#2196F3;}
	.st10{fill:#667683;}
	.st11{fill:#F89D81;}
	.st12{fill:#EF7D7D;}
	.st13{fill:#747A94;}
	.st14{fill:#F3F9FE;}
	.st15{fill:#96C8F0;}
</style>
<g>
	<g>
		
			<ellipse transform="matrix(0.7071 -0.7071 0.7071 0.7071 -79.9009 135.1023)" class="st0" cx="123.13" cy="164" rx="108" ry="108"/>
	</g>
	<g>
		<path class="st1" d="M123.13,59c57.99,0,105,47.01,105,105s-47.01,105-105,105s-105-47.01-105-105S65.14,59,123.13,59 M123.13,53
			c-29.65,0-57.52,11.55-78.49,32.51C23.68,106.48,12.13,134.35,12.13,164s11.55,57.52,32.51,78.49
			C65.61,263.45,93.48,275,123.13,275s57.52-11.55,78.49-32.51c20.97-20.97,32.51-48.84,32.51-78.49s-11.55-57.52-32.51-78.49
			C180.66,64.55,152.78,53,123.13,53L123.13,53z"/>
	</g>
</g>
<g>
	<rect class="st2" width="400" height="400"/>
</g>
<g>
	<g>
		<path class="st3" d="M57.4,18.6c2.32,0,4.2-1.88,4.2-4.2c0-0.77,0.63-1.4,1.4-1.4s1.4,0.63,1.4,1.4c0,2.32,1.88,4.2,4.2,4.2
			c0.77,0,1.4,0.63,1.4,1.4s-0.63,1.4-1.4,1.4c-2.32,0-4.2,1.88-4.2,4.2c0,0.77-0.63,1.4-1.4,1.4s-1.4-0.63-1.4-1.4
			c0-2.32-1.88-4.2-4.2-4.2c-0.77,0-1.4-0.63-1.4-1.4S56.63,18.6,57.4,18.6z"/>
	</g>
</g>
<g>
	<circle class="st3" cx="49.5" cy="55.5" r="4.5"/>
</g>
<g>
	<g>
		<circle class="st3" cx="16" cy="57" r="3"/>
	</g>
</g>
<g>
	<g>
		<circle class="st3" cx="332" cy="197" r="3"/>
	</g>
</g>
<g>
	<g>
		<path class="st3" d="M35.8,283.2c2.98,0,5.4-2.42,5.4-5.4c0-0.99,0.81-1.8,1.8-1.8s1.8,0.81,1.8,1.8c0,2.98,2.42,5.4,5.4,5.4
			c0.99,0,1.8,0.81,1.8,1.8s-0.81,1.8-1.8,1.8c-2.98,0-5.4,2.42-5.4,5.4c0,0.99-0.81,1.8-1.8,1.8s-1.8-0.81-1.8-1.8
			c0-2.98-2.42-5.4-5.4-5.4c-0.99,0-1.8-0.81-1.8-1.8S34.81,283.2,35.8,283.2z"/>
	</g>
</g>
<g>
	<circle class="st3" cx="101" cy="309" r="4.5"/>
</g>
<path class="st3" d="M300,125h-6v-6c0-1.66-1.34-3-3-3s-3,1.34-3,3v6h-6c-1.66,0-3,1.34-3,3s1.34,3,3,3h6v6c0,1.66,1.34,3,3,3
	s3-1.34,3-3v-6h6c1.66,0,3-1.34,3-3S301.66,125,300,125z"/>
<path class="st3" d="M76,351h-6v-6c0-1.66-1.34-3-3-3s-3,1.34-3,3v6h-6c-1.66,0-3,1.34-3,3s1.34,3,3,3h6v6c0,1.66,1.34,3,3,3
	s3-1.34,3-3v-6h6c1.66,0,3-1.34,3-3S77.66,351,76,351z"/>
<g>
	<path class="st3" d="M286.6,183.6c-2.32,0-4.2-1.88-4.2-4.2c0-0.77-0.63-1.4-1.4-1.4s-1.4,0.63-1.4,1.4c0,2.32-1.88,4.2-4.2,4.2
		c-0.77,0-1.4,0.63-1.4,1.4s0.63,1.4,1.4,1.4c2.32,0,4.2,1.88,4.2,4.2c0,0.77,0.63,1.4,1.4,1.4s1.4-0.63,1.4-1.4
		c0-2.32,1.88-4.2,4.2-4.2c0.77,0,1.4-0.63,1.4-1.4S287.37,183.6,286.6,183.6z"/>
</g>
<g>
	<g>
		<path class="st4" d="M117.05,271.83c-2.73-0.15-5.5-0.41-8.23-0.77c-1.49-0.2-2.61-1.47-2.61-2.97v-68.87c0-1.66,1.34-3,3-3h8
			c1.66,0,3,1.34,3,3v69.62c0,0.82-0.34,1.61-0.94,2.18c-0.56,0.53-1.3,0.82-2.06,0.82C117.16,271.83,117.1,271.83,117.05,271.83z"
			/>
	</g>
	<g>
		<path class="st1" d="M117.21,199.21v69.62c-2.7-0.15-5.36-0.4-8-0.75v-68.87H117.21 M117.21,193.21h-8c-3.31,0-6,2.69-6,6v68.87
			c0,3.01,2.23,5.55,5.21,5.95c2.79,0.37,5.64,0.64,8.45,0.79c0.11,0.01,0.22,0.01,0.33,0.01c1.53,0,3.01-0.58,4.12-1.64
			c1.2-1.13,1.88-2.71,1.88-4.36v-69.62C123.21,195.9,120.53,193.21,117.21,193.21L117.21,193.21z"/>
	</g>
</g>
<g>
	<polygon class="st5" points="109.21,227.65 117.21,224.65 117.21,205.65 109.21,205.65 	"/>
</g>
<g>
	<g>
		<circle class="st6" cx="113.21" cy="203.21" r="13"/>
	</g>
	<g>
		<g>
			<path class="st1" d="M113.21,193.21c5.52,0,10,4.48,10,10c0,5.52-4.48,10-10,10c-5.52,0-10-4.48-10-10
				C103.21,197.69,107.69,193.21,113.21,193.21 M113.21,187.21c-8.82,0-16,7.18-16,16c0,8.82,7.18,16,16,16s16-7.18,16-16
				C129.21,194.39,122.03,187.21,113.21,187.21L113.21,187.21z"/>
		</g>
	</g>
</g>
<g>
	<g>
		<path class="st4" d="M103.21,270.1c-0.19,0-0.38-0.02-0.57-0.05c-2.77-0.53-5.53-1.18-8.23-1.92c-1.3-0.36-2.2-1.54-2.2-2.89
			v-66.03c0-1.66,1.34-3,3-3h8c1.66,0,3,1.34,3,3v67.89c0,0.89-0.4,1.74-1.09,2.31C104.58,269.87,103.9,270.1,103.21,270.1z"/>
	</g>
	<g>
		<path class="st1" d="M103.21,199.21v67.89c-2.7-0.52-5.37-1.14-8-1.86v-66.03H103.21 M103.21,193.21h-8c-3.31,0-6,2.69-6,6v66.03
			c0,2.7,1.8,5.07,4.41,5.78c2.77,0.76,5.62,1.43,8.46,1.97c0.38,0.07,0.76,0.11,1.13,0.11c1.38,0,2.74-0.48,3.82-1.37
			c1.38-1.14,2.18-2.84,2.18-4.63v-67.89C109.21,195.9,106.53,193.21,103.21,193.21L103.21,193.21z"/>
	</g>
</g>
<g>
	<polygon class="st5" points="95.21,227.65 103.21,224.65 103.21,205.65 95.21,205.65 	"/>
</g>
<g>
	<g>
		<circle class="st7" cx="99.21" cy="203.21" r="13"/>
	</g>
	<g>
		<g>
			<path class="st1" d="M99.21,193.21c5.52,0,10,4.48,10,10c0,5.52-4.48,10-10,10c-5.52,0-10-4.48-10-10
				C89.21,197.69,93.69,193.21,99.21,193.21 M99.21,187.21c-8.82,0-16,7.18-16,16c0,8.82,7.18,16,16,16s16-7.18,16-16
				C115.21,194.39,108.03,187.21,99.21,187.21L99.21,187.21z"/>
		</g>
	</g>
</g>
<g>
	<g>
		<g>
			<path class="st6" d="M213.69,156.87c-1.13,0-2.24-0.21-3.3-0.63l-48.38-19.07c-2.24-0.88-4-2.58-4.95-4.79
				c-0.96-2.21-1-4.65-0.12-6.89l10.27-26.05c1.37-3.46,4.65-5.7,8.38-5.7c1.13,0,2.24,0.21,3.3,0.63l48.38,19.08
				c2.24,0.88,4,2.58,4.95,4.79s1,4.65,0.12,6.89l-10.27,26.05C220.7,154.63,217.41,156.87,213.69,156.87z"/>
		</g>
		<g>
			<g>
				<path class="st1" d="M175.58,96.74c0.73,0,1.48,0.13,2.2,0.42l48.38,19.07c3.08,1.22,4.6,4.7,3.38,7.78l-10.27,26.05
					c-0.93,2.36-3.19,3.8-5.58,3.8c-0.73,0-1.48-0.13-2.2-0.42l-48.38-19.07c-3.08-1.22-4.6-4.7-3.38-7.78L170,100.54
					C170.93,98.18,173.19,96.74,175.58,96.74 M175.58,90.74C175.58,90.74,175.58,90.74,175.58,90.74c-4.96,0-9.34,2.98-11.17,7.6
					l-10.27,26.05c-2.43,6.16,0.61,13.14,6.76,15.57l48.38,19.07c1.41,0.56,2.89,0.84,4.4,0.84c4.96,0,9.34-2.98,11.17-7.6
					l10.27-26.05c2.43-6.16-0.61-13.14-6.76-15.57l-48.38-19.07C178.57,91.02,177.09,90.74,175.58,90.74L175.58,90.74z"/>
			</g>
		</g>
	</g>
	<g>
		<path class="st8" d="M183.03,99.23l-16.42,36.52l44.87,17.69c2.07,0.82,4.33,0.4,5.95-0.9l-13.62-45.12L183.03,99.23z"/>
	</g>
	<g>
		<path class="st1" d="M191.41,136.49c-1.12,0-2.19-0.63-2.7-1.69l-17.87-36.85c-0.72-1.49-0.1-3.29,1.39-4.01
			c1.49-0.72,3.29-0.1,4.01,1.39l16.66,34.36l35.92-13.86c1.55-0.6,3.28,0.17,3.88,1.72c0.6,1.55-0.17,3.28-1.72,3.88l-38.49,14.85
			C192.13,136.43,191.77,136.49,191.41,136.49z"/>
	</g>
	<g>
		<path class="st1" d="M215.62,157.85c-1.11,0-2.18-0.62-2.7-1.69l-12.54-25.87c-0.72-1.49-0.1-3.29,1.39-4.01
			c1.49-0.72,3.29-0.1,4.01,1.39l12.54,25.87c0.72,1.49,0.1,3.29-1.39,4.01C216.51,157.76,216.06,157.85,215.62,157.85z"/>
	</g>
	<g>
		<path class="st1" d="M159.26,135.85c-1.2,0-2.34-0.73-2.8-1.92c-0.6-1.55,0.17-3.28,1.72-3.88L185,119.71
			c1.55-0.6,3.28,0.17,3.88,1.72c0.6,1.55-0.17,3.28-1.72,3.88l-26.82,10.35C159.99,135.79,159.62,135.85,159.26,135.85z"/>
	</g>
</g>
<g>
	<g>
		<g>
			<path class="st6" d="M165.61,156.01c-4.71,0-8.66-3.69-8.97-8.4l-1.88-27.94c-0.16-2.4,0.62-4.72,2.2-6.53
				c1.58-1.81,3.77-2.9,6.17-3.06l51.88-3.5c0.21-0.01,0.41-0.02,0.61-0.02c4.71,0,8.66,3.69,8.97,8.4l1.88,27.94
				c0.16,2.4-0.62,4.72-2.2,6.53c-1.58,1.81-3.77,2.9-6.17,3.06l-51.88,3.5C166.01,156,165.81,156.01,165.61,156.01z"/>
		</g>
		<g>
			<g>
				<path class="st1" d="M215.62,109.57c3.13,0,5.77,2.43,5.98,5.6l1.88,27.94c0.22,3.31-2.28,6.17-5.58,6.39l-51.88,3.5
					c-0.14,0.01-0.27,0.01-0.41,0.01c-3.13,0-5.77-2.43-5.98-5.6l-1.88-27.94c-0.22-3.31,2.28-6.17,5.58-6.39l51.88-3.5
					C215.35,109.58,215.48,109.57,215.62,109.57 M215.62,103.57c-0.27,0-0.54,0.01-0.81,0.03l-51.88,3.5
					c-3.2,0.22-6.12,1.66-8.23,4.08c-2.11,2.41-3.15,5.5-2.94,8.7l1.88,27.94c0.42,6.28,5.68,11.19,11.97,11.19
					c0.27,0,0.54-0.01,0.81-0.03l51.88-3.5c3.2-0.22,6.12-1.66,8.23-4.08c2.11-2.41,3.15-5.5,2.94-8.7l-1.88-27.94
					C227.16,108.49,221.91,103.57,215.62,103.57L215.62,103.57z"/>
			</g>
		</g>
	</g>
	<g>
		<polygon class="st8" points="180.03,111.96 166.02,152.99 215.52,149.66 199.71,110.63 		"/>
	</g>
	<g>
		<path class="st1" d="M191.2,143.07c-0.66,0-1.33-0.22-1.88-0.66l-31.93-25.64c-1.29-1.04-1.5-2.93-0.46-4.22
			c1.04-1.29,2.93-1.5,4.22-0.46L190.93,136l26.51-27.91c1.14-1.2,3.04-1.25,4.24-0.11c1.2,1.14,1.25,3.04,0.11,4.24l-28.42,29.91
			C192.79,142.76,192,143.07,191.2,143.07z"/>
	</g>
	<g>
		<path class="st1" d="M222.23,152c-0.66,0-1.32-0.22-1.88-0.66l-22.42-18c-1.29-1.04-1.5-2.93-0.46-4.22
			c1.04-1.29,2.93-1.5,4.22-0.46l22.42,18c1.29,1.04,1.5,2.93,0.46,4.22C223.98,151.61,223.11,152,222.23,152z"/>
	</g>
	<g>
		<path class="st1" d="M161.89,156.27c-0.74,0-1.49-0.27-2.07-0.82c-1.2-1.14-1.25-3.04-0.11-4.24l19.8-20.84
			c1.14-1.2,3.04-1.25,4.24-0.11c1.2,1.14,1.25,3.04,0.11,4.24l-19.8,20.84C163.47,155.96,162.68,156.27,161.89,156.27z"/>
	</g>
</g>
<g>
	<g>
		<g>
			<path class="st6" d="M205.6,145.81c-0.39,0-0.79-0.08-1.16-0.23c-0.74-0.31-1.32-0.9-1.62-1.64l-15.09-37.05
				c-0.62-1.53,0.11-3.27,1.63-3.9l34.11-14.12c1.1-0.46,2.26-0.69,3.44-0.69c3.66,0,6.92,2.18,8.32,5.56l10.71,25.87
				c0.92,2.22,0.92,4.67,0,6.89c-0.92,2.22-2.65,3.95-4.87,4.87l-34.32,14.21C206.38,145.73,205.99,145.81,205.6,145.81z"/>
		</g>
		<g>
			<g>
				<path class="st1" d="M226.92,91.19c2.35,0,4.59,1.4,5.55,3.71l10.71,25.87c1.27,3.06-0.19,6.57-3.25,7.84l-34.32,14.21
					l-15.09-37.05l34.11-14.12C225.38,91.33,226.15,91.19,226.92,91.19 M226.92,85.19C226.92,85.19,226.92,85.19,226.92,85.19
					c-1.58,0-3.12,0.31-4.59,0.91l-34.11,14.12c-3.05,1.26-4.51,4.75-3.26,7.81l15.09,37.05c0.6,1.48,1.77,2.66,3.24,3.27
					c0.74,0.31,1.53,0.46,2.31,0.46c0.78,0,1.56-0.15,2.3-0.46l34.32-14.21c6.11-2.53,9.03-9.56,6.5-15.68L238.01,92.6
					C236.14,88.09,231.79,85.19,226.92,85.19L226.92,85.19z"/>
			</g>
		</g>
	</g>
	<g>
		<polygon class="st8" points="190.51,105.77 205.6,142.81 230.38,132.55 214.32,95.91 		"/>
	</g>
	<g>
		<path class="st1" d="M211.62,131.2c-0.34,0-0.69-0.06-1.03-0.18l-15.01-5.5c-1.56-0.57-2.35-2.29-1.78-3.85
			c0.57-1.56,2.29-2.35,3.85-1.78l12.42,4.55l16.21-34.92c0.7-1.5,2.48-2.16,3.98-1.46c1.5,0.7,2.16,2.48,1.46,3.98l-17.37,37.42
			C213.84,130.55,212.76,131.2,211.62,131.2z"/>
	</g>
	<g>
		<path class="st1" d="M243.88,129.74c-0.34,0-0.69-0.06-1.03-0.18l-26.99-9.89c-1.56-0.57-2.35-2.29-1.78-3.85s2.29-2.35,3.85-1.78
			l26.99,9.89c1.56,0.57,2.35,2.29,1.78,3.85C246.25,128.99,245.1,129.74,243.88,129.74z"/>
	</g>
</g>
<g>
	<g>
		<g>
			<path class="st6" d="M237.23,160.58c-0.28,0-0.57-0.01-0.86-0.04l-36.98-3.5c-0.79-0.08-1.53-0.46-2.03-1.08
				s-0.75-1.41-0.67-2.21l4-39.8c0.16-1.55,1.46-2.7,2.98-2.7c0.09,0,0.19,0,0.29,0.01l36.75,3.48c2.39,0.23,4.56,1.37,6.09,3.22
				c1.53,1.85,2.25,4.19,2.02,6.58l-2.64,27.88C245.75,157.07,241.9,160.58,237.23,160.58z"/>
		</g>
		<g>
			<g>
				<path class="st1" d="M203.68,114.25l36.76,3.48c3.3,0.31,5.72,3.24,5.41,6.54l-2.64,27.88c-0.29,3.11-2.91,5.43-5.97,5.43
					c-0.19,0-0.38-0.01-0.57-0.03l-36.98-3.5L203.68,114.25 M203.67,108.25c-3.05,0-5.65,2.31-5.96,5.4l-4,39.8
					c-0.16,1.59,0.32,3.18,1.34,4.41c1.01,1.23,2.48,2.01,4.07,2.16l36.98,3.5c0.38,0.04,0.76,0.05,1.14,0.05
					c6.22,0,11.35-4.67,11.94-10.87l2.64-27.88c0.3-3.19-0.66-6.31-2.7-8.78c-2.04-2.47-4.93-4-8.12-4.3l-36.76-3.48
					C204.05,108.26,203.86,108.25,203.67,108.25L203.67,108.25z"/>
			</g>
		</g>
	</g>
	<g>
		<polygon class="st8" points="203.68,114.25 199.68,154.05 230.69,156.99 220.71,115.86 		"/>
	</g>
	<g>
		<path class="st1" d="M211.83,146.95c-0.82,0-1.64-0.34-2.23-0.99l-10.69-11.88c-1.11-1.23-1.01-3.13,0.22-4.24
			c1.23-1.11,3.13-1.01,4.24,0.22l8.85,9.83l30.66-23.28c1.32-1,3.2-0.74,4.2,0.58c1,1.32,0.74,3.2-0.58,4.2l-32.86,24.95
			C213.11,146.75,212.47,146.95,211.83,146.95z"/>
	</g>
	<g>
		<path class="st1" d="M241.02,160.76c-0.82,0-1.64-0.33-2.23-0.99l-19.23-21.37c-1.11-1.23-1.01-3.13,0.22-4.24
			c1.23-1.11,3.13-1.01,4.24,0.22l19.23,21.37c1.11,1.23,1.01,3.13-0.22,4.24C242.46,160.5,241.74,160.76,241.02,160.76z"/>
	</g>
</g>
<g>
	<g>
		<path class="st7" d="M106.21,206.21c-11.68,0-28.94-11.46-29.67-11.95c-1.19-0.8-1.65-2.33-1.1-3.66c0,0,7.21-17.14,14.45-34.28
			c3.62-8.57,7.25-17.14,10-23.57c1.37-3.22,2.53-5.9,3.34-7.78c0.31-0.71,0.58-1.32,0.82-1.85c-5.14-13.28-10.09-34.21-5.8-60.41
			c0.01-0.08,0.03-0.16,0.05-0.24c2.84-11.44,7.01-19.41,12.95-24.65c-5.33-4.14-7.2-9.73-7.29-10.01
			c-0.28-0.85-0.16-1.77,0.31-2.52c0.47-0.75,1.26-1.26,2.14-1.38c0.75-0.1,1.69-0.15,2.8-0.15c12.97,0,50,7.25,50,39.44
			c0,10.6-4.35,18.95-12.57,24.14c-8.18,5.17-17.84,5.72-21.61,5.72c0,0,0,0,0,0c-1.98,0-3.83-0.13-5.43-0.38
			c0.14,12.53,7.57,23.92,14.77,34.96c7.29,11.18,14.84,22.74,14.84,35.56C149.21,186.92,129.92,206.21,106.21,206.21z"/>
	</g>
	<g>
		<path class="st1" d="M109.21,26.77c11.45,0,47,6.09,47,36.44c0,21.79-19.4,26.87-31.19,26.87c-3.93,0-7.02-0.56-8.25-1.26l0,0
			c-2.89,28.26,29.44,48.95,29.44,74.39c0,22.09-17.91,40-40,40c-10.9,0-28-11.44-28-11.44s28.84-68.55,29.11-68.54
			c-5.39-13.42-10.35-34.05-6.1-60.02c3.09-12.41,7.91-20.93,15.38-25.63c-7.39-3.35-9.77-10.68-9.77-10.68
			C107.41,26.82,108.22,26.77,109.21,26.77 M109.21,20.77L109.21,20.77c-1.24,0-2.32,0.06-3.2,0.18c-1.76,0.24-3.33,1.25-4.28,2.75
			c-0.95,1.51-1.18,3.36-0.63,5.05c0.22,0.69,1.77,5.1,5.78,9.21c-5.14,5.6-8.92,13.47-11.5,23.81c-0.04,0.16-0.07,0.32-0.1,0.48
			c-4.27,26.1,0.41,47.12,5.52,60.8c-0.1,0.23-0.21,0.48-0.32,0.74c-0.82,1.88-1.97,4.57-3.35,7.8c-2.43,5.69-5.79,13.62-10,23.58
			c-7.25,17.14-14.46,34.28-14.46,34.28c-1.11,2.65-0.19,5.72,2.19,7.31c1.91,1.27,18.97,12.45,31.34,12.45c25.36,0,46-20.64,46-46
			c0-13.71-7.79-25.65-15.33-37.2c-6.57-10.07-12.84-19.67-14.07-29.99c0.82,0.04,1.58,0.05,2.21,0.05c5.01,0,14.69-0.8,23.22-6.19
			c6.37-4.02,13.97-11.92,13.97-26.68c0-15.29-7.77-27.37-22.46-34.94C129,22.74,116.58,20.77,109.21,20.77L109.21,20.77z"/>
	</g>
</g>
<g>
	<path class="st6" d="M106.81,26.9c0,0,2.38,7.33,9.77,10.68c-4.76,3-8.44,7.55-11.28,13.67l45.98-5.35
		C139.97,28.64,112.65,26.11,106.81,26.9z"/>
</g>
<g>
	<path class="st6" d="M116.21,186.21c21.8-18.14,3.96-53.14-9.88-60.82c-5.09,11.63-28.12,66.38-28.12,66.38s17.1,11.44,28,11.44
		c2.46,0,4.87-0.23,7.21-0.66C116.21,198.05,117.91,191.4,116.21,186.21z"/>
</g>
<g>
	<g>
		<path class="st7" d="M74.13,216.58c-0.84,0-1.64-0.35-2.22-0.98c-0.64-0.71-0.91-1.67-0.73-2.61
			c2.88-14.41,7.96-30.36,23.73-39.38c0.46-0.26,0.98-0.4,1.49-0.4c0.53,0,1.06,0.14,1.54,0.42c8.91,5.31,11.84,16.89,6.52,25.8
			c-8.77,14.71-29.16,17.03-30.02,17.12C74.34,216.57,74.24,216.58,74.13,216.58z"/>
	</g>
	<g>
		<g>
			<path class="st1" d="M96.41,176.21c7.5,4.47,9.96,14.19,5.48,21.69c-8.1,13.59-27.77,15.67-27.77,15.67
				C77.21,198.17,82.43,184.21,96.41,176.21 M96.41,170.21c-1.03,0-2.05,0.26-2.98,0.79c-16.82,9.62-22.17,26.32-25.19,41.4
				c-0.37,1.87,0.16,3.81,1.45,5.22c1.14,1.25,2.76,1.96,4.43,1.96c0.21,0,0.42-0.01,0.63-0.03c0.92-0.1,22.76-2.59,32.28-18.57
				c6.16-10.33,2.77-23.75-7.56-29.92C98.54,170.5,97.48,170.21,96.41,170.21L96.41,170.21z"/>
		</g>
	</g>
</g>
<g>
	<path class="st6" d="M96.41,176.21c-11.83,6.76-17.37,17.79-20.67,30.35c8.62-2.22,18.51-5.87,27.59-11.86
		C105.59,187.83,102.89,180.08,96.41,176.21z"/>
</g>
<g>
	<g>
		<path class="st7" d="M52.13,226.58c-0.84,0-1.64-0.35-2.22-0.98c-0.64-0.71-0.91-1.67-0.73-2.61
			c2.88-14.41,7.96-30.36,23.73-39.38c0.46-0.26,0.98-0.4,1.49-0.4c0.53,0,1.06,0.14,1.54,0.42c8.91,5.31,11.84,16.89,6.52,25.8
			c-8.77,14.71-29.16,17.03-30.02,17.12C52.34,226.57,52.24,226.58,52.13,226.58z"/>
	</g>
	<g>
		<path class="st1" d="M74.41,186.21c7.5,4.47,9.96,14.19,5.48,21.69c-8.1,13.59-27.77,15.67-27.77,15.67
			C55.21,208.17,60.43,194.21,74.41,186.21 M74.41,180.21c-1.03,0-2.05,0.26-2.98,0.79c-16.82,9.62-22.17,26.32-25.19,41.4
			c-0.37,1.87,0.16,3.81,1.45,5.22c1.14,1.25,2.76,1.96,4.43,1.96c0.21,0,0.42-0.01,0.63-0.03c0.92-0.1,22.76-2.59,32.28-18.57
			c6.16-10.33,2.77-23.75-7.56-29.92C76.54,180.5,75.48,180.21,74.41,180.21L74.41,180.21z"/>
	</g>
</g>
<g>
	<path class="st6" d="M74.41,186.21c-9.68,5.53-15.15,13.92-18.63,23.67c4.8-0.34,14.52-1.44,25.47-4.89
		C83.68,198.05,80.98,190.13,74.41,186.21z"/>
</g>
<g>
	<g>
		<path class="st7" d="M52.46,201.04c-0.94,0-1.82-0.44-2.39-1.18c-0.58-0.76-0.76-1.75-0.49-2.66c8.09-27.55,20.66-57.7,52.59-72.4
			c0.4-0.18,0.83-0.27,1.25-0.27c0.62,0,1.24,0.19,1.76,0.57c15.48,11.19,18.97,32.88,7.78,48.36
			c-7.98,11.04-20.99,19.31-37.62,23.92c-12.43,3.44-22.42,3.66-22.83,3.66C52.49,201.04,52.47,201.04,52.46,201.04z"/>
	</g>
	<g>
		<path class="st1" d="M103.42,127.52c14.16,10.23,17.35,30.01,7.11,44.17C92,197.34,52.46,198.04,52.46,198.04
			C61.3,167.89,74.14,140.99,103.42,127.52 M103.42,121.52c-0.85,0-1.71,0.18-2.51,0.55c-33.02,15.2-45.94,46.08-54.21,74.28
			c-0.54,1.83-0.17,3.81,0.99,5.33c1.14,1.49,2.9,2.36,4.77,2.36c0.04,0,0.07,0,0.11,0c1.74-0.03,42.77-1.07,62.83-28.83
			c5.89-8.15,8.25-18.1,6.65-28.03c-1.6-9.93-6.97-18.64-15.11-24.52C105.89,121.91,104.66,121.52,103.42,121.52L103.42,121.52z"/>
	</g>
</g>
<g>
	<path class="st1" d="M68.86,187.22c-1.23,0-2.38-0.76-2.82-1.98c-0.56-1.56,0.24-3.28,1.8-3.84c2.54-0.92,25.02-9.55,33.46-29.9
		c0.63-1.53,2.39-2.25,3.92-1.62c1.53,0.64,2.26,2.39,1.62,3.92c-7.16,17.26-24.39,28.7-36.97,33.24
		C69.54,187.16,69.19,187.22,68.86,187.22z"/>
</g>
<g>
	<path class="st1" d="M75.35,170.06c-0.97,0-1.92-0.47-2.49-1.33c-0.92-1.38-0.56-3.24,0.82-4.16c4.48-3.01,9.74-7.11,14.78-14.73
		c0.91-1.38,2.78-1.76,4.16-0.85c1.38,0.91,1.76,2.78,0.85,4.16c-5.66,8.55-11.76,13.26-16.44,16.4
		C76.51,169.89,75.93,170.06,75.35,170.06z"/>
</g>
<g>
	<g>
		<g>
			<path class="st1" d="M145.49,68.28c-1.38,0-2.5-1.12-2.5-2.5c0-0.83-0.67-1.5-1.5-1.5s-1.5,0.67-1.5,1.5c0,1.38-1.12,2.5-2.5,2.5
				s-2.5-1.12-2.5-2.5c0-3.58,2.92-6.5,6.5-6.5s6.5,2.92,6.5,6.5C147.99,67.16,146.87,68.28,145.49,68.28z"/>
		</g>
	</g>
	<g>
		<path class="st1" d="M144.32,54.65c-2.31,0.82-5.24,1.29-7.6,1.96c-0.43,0.12-2.39,0.69-2.78,0.81c-1.08,0.31-2.21-0.31-2.53-1.39
			c-0.45-3.07,3.81-5.38,6.3-5.85c2.33-0.53,9.27-0.68,8.1,3.2C145.54,54.05,144.96,54.44,144.32,54.65L144.32,54.65z"/>
	</g>
</g>
<g>
	<g>
		<g>
			<path class="st9" d="M104.18,48.79c-0.22,0-0.44-0.02-0.66-0.07c-0.79-0.18-1.47-0.66-1.89-1.35L90.66,29.6
				c-0.48-0.77-0.58-1.71-0.28-2.56c0.3-0.85,0.96-1.53,1.81-1.83l44.36-16.03c0.33-0.12,0.68-0.18,1.02-0.18
				c0.64,0,1.27,0.2,1.8,0.6c0.81,0.6,1.26,1.58,1.2,2.58l-0.76,12.63c-0.06,0.95-0.56,1.82-1.36,2.34l-32.63,21.17
				C105.33,48.63,104.76,48.79,104.18,48.79z"/>
		</g>
		<g>
			<g>
				<path class="st1" d="M137.57,12L137.57,12 M137.57,12l-0.76,12.63l-32.63,21.17L93.21,28.03L137.57,12 M137.57,6
					c-0.07,0-0.15,0-0.22,0c-0.68,0.02-1.34,0.16-1.95,0.4L91.17,22.39c-1.7,0.61-3.03,1.96-3.63,3.67
					c-0.59,1.71-0.39,3.59,0.56,5.13l10.97,17.77c0.85,1.37,2.21,2.35,3.79,2.7c0.44,0.1,0.88,0.15,1.32,0.15
					c1.15,0,2.29-0.33,3.27-0.97l32.63-21.17c1.6-1.04,2.61-2.77,2.72-4.67l0.75-12.44c0.02-0.18,0.02-0.36,0.02-0.54
					c0-3.3-2.65-5.97-5.94-6C137.61,6,137.59,6,137.57,6L137.57,6z M137.57,18L137.57,18L137.57,18L137.57,18z"/>
			</g>
		</g>
	</g>
	<g>
		<g>
			<path class="st10" d="M104.18,48.79c-1.24,0-2.39-0.77-2.83-1.99c-0.52-1.47,0.17-3.1,1.6-3.74l34.19-15.37
				c0.38-0.17,0.79-0.26,1.21-0.26c0,0,23.78-0.16,23.79-0.16c1.5,0,2.77,1.11,2.97,2.6c0.2,1.5-0.74,2.91-2.2,3.3l-57.96,15.53
				C104.7,48.76,104.44,48.79,104.18,48.79z"/>
		</g>
		<g>
			<path class="st1" d="M162.14,30.26L162.14,30.26 M162.14,30.26l-57.96,15.53l34.19-15.37L162.14,30.26 M162.14,24.26
				c-0.01,0-0.02,0-0.03,0c-0.01,0-0.01,0-0.02,0l-23.77,0.16c-0.83,0.01-1.66,0.19-2.42,0.53l-34.19,15.37
				c-2.85,1.28-4.24,4.54-3.19,7.49c0.87,2.44,3.17,3.99,5.65,3.99c0.51,0,1.04-0.07,1.56-0.21l57.83-15.5
				c0.77-0.19,1.49-0.53,2.11-0.98c0,0,0,0,0,0c0,0,0,0,0,0c0.06-0.04,0.12-0.09,0.17-0.13l0,0c0,0,0,0,0,0
				c1.39-1.1,2.29-2.8,2.29-4.71C168.14,26.95,165.46,24.27,162.14,24.26C162.15,24.26,162.15,24.26,162.14,24.26
				C162.15,24.26,162.14,24.26,162.14,24.26L162.14,24.26C162.14,24.26,162.14,24.26,162.14,24.26L162.14,24.26z M162.14,36.26
				L162.14,36.26L162.14,36.26L162.14,36.26z"/>
		</g>
	</g>
</g>
<g>
	<g>
		<g>
			<path class="st11" d="M193.5,60.41c-3.62,0-12.24-1.72-14.15-17.69c-0.11-0.91,0.21-1.82,0.85-2.47
				c0.57-0.57,1.33-0.88,2.13-0.88c0.11,0,0.23,0.01,0.34,0.02c1.09,0.13,10.81,1.42,14.99,7.87c1.37,2.12,2.68,5.71,1.08,10.74
				c-0.29,0.91-1,1.63-1.91,1.94C196.59,60.02,195.31,60.41,193.5,60.41z"/>
		</g>
		<g>
			<path class="st1" d="M182.32,42.37c0,0,17.59,2.02,13.55,14.72c0,0-0.96,0.32-2.38,0.32C190.05,57.41,183.89,55.5,182.32,42.37
				 M182.32,36.37c-1.59,0-3.12,0.63-4.25,1.77c-1.29,1.3-1.92,3.12-1.71,4.95c2.19,18.35,12.71,20.33,17.13,20.33
				c2.22,0,3.84-0.49,4.29-0.63c1.81-0.61,3.23-2.05,3.81-3.87c1.95-6.14,0.31-10.61-1.42-13.28c-4.93-7.61-15.93-9.08-17.17-9.22
				C182.78,36.38,182.55,36.37,182.32,36.37L182.32,36.37z"/>
		</g>
	</g>
	<g>
		<g>
			<path class="st11" d="M206.2,61.32c-2.75,0-4.74-0.96-4.96-1.07c-0.85-0.43-1.45-1.24-1.61-2.19c-0.85-5.12,0.88-8.46,2.48-10.35
				c4.55-5.38,13.19-5.79,15.73-5.79l0.33,0c0.92,0.03,1.77,0.47,2.32,1.21s0.73,1.68,0.5,2.56
				C217.35,59.29,210.16,61.32,206.2,61.32L206.2,61.32z"/>
		</g>
		<g>
			<path class="st1" d="M217.84,44.92c0.16,0,0.25,0,0.25,0c-3.02,11.29-8.34,13.4-11.89,13.4c-2.12,0-3.61-0.75-3.61-0.75
				C200.55,45.35,215.7,44.92,217.84,44.92 M217.84,38.92c-2.87,0-12.64,0.49-18.02,6.85c-2.01,2.38-4.2,6.53-3.15,12.78
				c0.32,1.89,1.51,3.51,3.22,4.37c0.65,0.33,3.02,1.39,6.31,1.39c4.82,0,13.53-2.32,17.69-17.85c0.47-1.77,0.1-3.66-0.99-5.13
				c-1.09-1.47-2.81-2.36-4.64-2.42C218.26,38.93,218.11,38.92,217.84,38.92L217.84,38.92z"/>
		</g>
	</g>
</g>
<g>
	<g>
		<path class="st4" d="M151.21,84.21c-0.99,0-1.92-0.49-2.48-1.32c-0.61-0.9-0.68-2.05-0.2-3.02l9-18c0.51-1.03,1.56-1.66,2.68-1.66
			c0.18,0,0.37,0.02,0.55,0.05l64,12c1.48,0.28,2.52,1.6,2.44,3.1c-0.08,1.5-1.25,2.71-2.75,2.83l-73,6
			C151.37,84.21,151.29,84.21,151.21,84.21z"/>
	</g>
	<g>
		<g>
			<path class="st1" d="M160.21,63.21l64,12l-73,6L160.21,63.21 M160.21,57.21c-2.24,0-4.34,1.26-5.36,3.32l-9,18
				c-0.97,1.94-0.82,4.25,0.4,6.04c1.12,1.66,2.99,2.64,4.97,2.64c0.16,0,0.33-0.01,0.49-0.02l73-6c2.99-0.25,5.35-2.67,5.5-5.67
				c0.16-3-1.93-5.65-4.89-6.21l-64-12C160.95,57.25,160.58,57.21,160.21,57.21L160.21,57.21z"/>
		</g>
	</g>
</g>
<g>
	<g>
		<path class="st11" d="M207.55,168.22c-3.57,0-7.19-0.96-10.76-2.87c-1.83,0.29-3.57,0.43-5.21,0.43c-11.85,0-14.82-7.5-14.94-7.82
			c-0.2-0.53-0.25-1.11-0.13-1.67l19.34-92.59c0.29-1.39,1.51-2.38,2.92-2.39c0,0,0.01,0,0.01,0c1.41,0,2.63,0.98,2.93,2.36
			l20.82,95.47c0.21,0.98-0.08,2-0.77,2.72C217.78,166.02,212.86,168.22,207.55,168.22C207.55,168.22,207.55,168.22,207.55,168.22z"
			/>
	</g>
	<g>
		<path class="st1" d="M198.8,64.31l20.82,95.47c-3.62,3.76-7.79,5.43-12.07,5.43c-3.42,0-6.91-1.07-10.23-3
			c-2.15,0.4-4.06,0.57-5.74,0.57c-9.91,0-12.13-5.88-12.13-5.88L198.8,64.31 M198.8,58.31c-0.01,0-0.02,0-0.03,0
			c-2.83,0.01-5.27,2-5.85,4.77l-19.34,92.59c-0.23,1.12-0.14,2.28,0.26,3.34c1.37,3.62,6.64,9.76,17.74,9.76
			c1.49,0,3.06-0.11,4.69-0.33c3.72,1.83,7.51,2.76,11.28,2.76c6.14,0,11.81-2.52,16.39-7.27c1.39-1.44,1.97-3.48,1.54-5.44
			l-20.82-95.47C204.06,60.28,201.62,58.31,198.8,58.31L198.8,58.31z"/>
	</g>
</g>
<g>
	<path class="st12" d="M197.33,162.21c7.47,4.34,15.77,4.34,22.29-2.43c-14.33-0.06-21.67-10.48-21.67-10.48
		c-8.68,6.28-18.5,7.61-18.5,7.61S182.49,164.94,197.33,162.21z"/>
</g>
<g>
	<path class="st1" d="M202.59,59.57c-0.53,0-1.06-0.21-1.46-0.63c-0.76-0.8-0.72-2.07,0.09-2.83l6.76-6.36
		c0.81-0.76,2.07-0.72,2.83,0.09c0.76,0.8,0.72,2.07-0.09,2.83l-6.76,6.36C203.57,59.39,203.08,59.57,202.59,59.57z"/>
</g>
<g>
	<path class="st1" d="M195.88,59.09c-0.55,0-1.09-0.22-1.49-0.66l-6.48-7.2c-0.74-0.82-0.67-2.09,0.15-2.82
		c0.82-0.74,2.08-0.67,2.82,0.15l6.48,7.2c0.74,0.82,0.67,2.09-0.15,2.82C196.83,58.92,196.35,59.09,195.88,59.09z"/>
</g>
<g>
	<path class="st1" d="M167.29,71.98c-0.12,0-0.25-0.01-0.37-0.03l-4.07-0.76c-1.09-0.2-1.8-1.25-1.6-2.33
		c0.2-1.09,1.25-1.8,2.33-1.6l4.07,0.76c1.09,0.2,1.8,1.25,1.6,2.33C169.07,71.31,168.23,71.98,167.29,71.98z"/>
</g>
<g>
	<path class="st1" d="M197.33,164.21c-0.03,0-0.07,0-0.1,0c-1.1-0.05-1.95-0.99-1.9-2.09l0.63-12.92c0.05-1.1,1-1.94,2.09-1.9
		c1.1,0.05,1.95,0.99,1.9,2.09l-0.63,12.92C199.27,163.38,198.39,164.21,197.33,164.21z"/>
</g>
<g>
	<g>
		<path class="st7" d="M198.13,208c-1.66,0-3-1.34-3-3c0-8.27,6.73-15,15-15c0.81,0,1.62,0.07,2.41,0.19
			c4.35-5.17,10.79-8.19,17.59-8.19c12.68,0,23,10.32,23,23c0,1.66-1.34,3-3,3H198.13z"/>
	</g>
	<g>
		<g>
			<path class="st1" d="M230.13,185c11.05,0,20,8.95,20,20h-52c0-6.63,5.37-12,12-12c1.26,0,2.47,0.2,3.61,0.56
				C217.36,188.39,223.35,185,230.13,185 M230.13,179c-7.14,0-13.91,2.95-18.78,8.04c-0.4-0.03-0.81-0.04-1.22-0.04
				c-9.93,0-18,8.07-18,18c0,3.31,2.69,6,6,6h52c3.31,0,6-2.69,6-6C256.13,190.66,244.47,179,230.13,179L230.13,179z"/>
		</g>
	</g>
</g>
<g>
	<g>
		<path class="st7" d="M18.13,114c-1.66,0-3-1.34-3-3c0-12.68,10.32-23,23-23c6.8,0,13.23,3.03,17.58,8.19
			c0.8-0.13,1.6-0.19,2.42-0.19c8.27,0,15,6.73,15,15c0,1.66-1.34,3-3,3H18.13z"/>
	</g>
	<g>
		<g>
			<path class="st1" d="M38.13,91c6.79,0,12.77,3.39,16.39,8.56C55.66,99.2,56.87,99,58.13,99c6.63,0,12,5.37,12,12h-52
				C18.13,99.95,27.09,91,38.13,91 M38.13,85c-14.34,0-26,11.66-26,26c0,3.31,2.69,6,6,6h52c3.31,0,6-2.69,6-6c0-9.93-8.07-18-18-18
				c-0.41,0-0.81,0.01-1.22,0.04C52.05,87.95,45.27,85,38.13,85L38.13,85z"/>
		</g>
	</g>
</g>
<g>
	<g>
		<g>
			<path class="st13" d="M144,372c-4.96,0-9-4.04-9-9V235c0-4.96,4.04-9,9-9h212c4.96,0,9,4.04,9,9v128c0,4.96-4.04,9-9,9H144z"/>
		</g>
		<g>
			<path class="st1" d="M356,229c3.31,0,6,2.69,6,6v128c0,3.31-2.69,6-6,6l-212,0c-3.31,0-6-2.69-6-6V235c0-3.31,2.69-6,6-6H356
				 M356,223H144c-6.62,0-12,5.38-12,12v128c0,6.62,5.38,12,12,12l212,0c6.62,0,12-5.38,12-12V235C368,228.38,362.62,223,356,223
				L356,223z"/>
		</g>
	</g>
	<g>
		<g>
			<rect x="148" y="239" class="st6" width="204" height="120"/>
		</g>
		<g>
			<g>
				<path class="st1" d="M350,241v116l-200,0V241H350 M354,237h-4H150h-4v4v116v4h4l200,0h4v-4V241V237L354,237z"/>
			</g>
		</g>
	</g>
	<g>
		<g>
			<polygon class="st14" points="231.5,357 205.5,357 245.5,241 271.5,241 			"/>
		</g>
		<g>
			<polygon class="st14" points="254.5,357 237.5,357 277.5,241 294.5,241 			"/>
		</g>
	</g>
	<g>
		<g>
			<path class="st13" d="M127,383c-6.07,0-11-4.93-11-11c0-1.66,1.34-3,3-3h262c1.66,0,3,1.34,3,3c0,6.07-4.93,11-11,11H127z"/>
		</g>
		<g>
			<path class="st1" d="M381,372c0,4.42-3.58,8-8,8H127c-4.42,0-8-3.58-8-8H381 M381,366H119c-3.31,0-6,2.69-6,6
				c0,7.72,6.28,14,14,14h246c7.72,0,14-6.28,14-14C387,368.69,384.31,366,381,366L381,366z M381,378L381,378L381,378L381,378z"/>
		</g>
	</g>
	<g>
		<path class="st1" d="M271,376l-42,0c-2.21,0-4-1.79-4-4l0,0h50l0,0C275,374.21,273.21,376,271,376z"/>
	</g>
	<g>
		<g>
			<g>
				<path class="st1" d="M271.5,299.19c-0.32,0-0.64-0.08-0.94-0.24c-1.89-1.02-5.21-1.02-7.11,0c-0.98,0.52-2.18,0.16-2.71-0.82
					c-0.52-0.97-0.16-2.19,0.82-2.71c3.05-1.64,7.84-1.64,10.89,0c0.97,0.52,1.34,1.73,0.82,2.71
					C272.9,298.81,272.21,299.19,271.5,299.19z"/>
			</g>
			<g>
				<g>
					<circle class="st1" cx="267" cy="288.44" r="8"/>
				</g>
				<g>
					<circle class="st7" cx="269" cy="288.44" r="2"/>
				</g>
			</g>
			<g>
				<path class="st1" d="M261.14,272.13c3.68-3.11,9.5-3.68,13.48-0.8c1.83,1.3,4.9,4.78,2.04,6.4c-0.73,0.35-1.49,0.16-2.13-0.21
					c-3.12-1.93-6.26-2.5-9.86-2.01c-0.77,0.07-1.51,0.18-2.23,0.14C260.6,275.67,259.74,273.26,261.14,272.13L261.14,272.13z"/>
			</g>
			<g>
				<path class="st1" d="M237.5,299.19c-0.32,0-0.64-0.08-0.94-0.24c-1.89-1.02-5.21-1.02-7.11,0c-0.98,0.52-2.19,0.16-2.71-0.82
					c-0.52-0.97-0.16-2.19,0.82-2.71c3.05-1.64,7.84-1.64,10.89,0c0.97,0.52,1.34,1.73,0.82,2.71
					C238.9,298.81,238.21,299.19,237.5,299.19z"/>
			</g>
			<g>
				<g>
					<circle class="st1" cx="233" cy="288.44" r="8"/>
				</g>
				<g>
					<circle class="st7" cx="235" cy="288.44" r="2"/>
				</g>
			</g>
			<g>
				<path class="st1" d="M236.96,275.64c-2.9-0.28-6.02-0.65-8.74,0.51c-0.95,0.32-2.01,1.02-3.12,1.54c-1.68,0.88-3.57-1-2.75-2.68
					c1.9-4.63,7.88-6.6,12.45-5.07c1.95,0.65,6.2,2.34,4.3,4.99C238.55,275.61,237.73,275.68,236.96,275.64L236.96,275.64z"/>
			</g>
		</g>
	</g>
	<g>
		<circle class="st15" cx="209" cy="296.09" r="2.5"/>
	</g>
	<g>
		<circle class="st15" cx="214.5" cy="307.09" r="2.5"/>
	</g>
	<g>
		<circle class="st15" cx="203.5" cy="307.09" r="2.5"/>
	</g>
	<g>
		<circle class="st15" cx="291" cy="296.09" r="2.5"/>
	</g>
	<g>
		<circle class="st15" cx="296.5" cy="307.09" r="2.5"/>
	</g>
	<g>
		<circle class="st15" cx="285.5" cy="307.09" r="2.5"/>
	</g>
	<g>
		<path class="st1" d="M268.01,302.59H232c-2.76,0-5,2.24-5,5c0,12.68,10.32,23,23,23c12.62,0,22.9-10.22,23-22.82
			c0-0.06,0-0.12,0-0.18C273,304.83,270.77,302.59,268.01,302.59z"/>
		<g>
			<g>
				<path class="st12" d="M250,325.59c5.32,0,10.09-2.33,13.39-6c-3.3-3.67-8.07-6-13.39-6s-10.09,2.33-13.39,6
					C239.91,323.27,244.68,325.59,250,325.59z"/>
			</g>
		</g>
	</g>
	<g>
		<circle class="st1" cx="250" cy="233" r="2"/>
	</g>
</g>
</svg>
