<?xml version="1.0" encoding="utf-8"?>
<!-- Generator: Adobe Illustrator 25.4.1, SVG Export Plug-In . SVG Version: 6.00 Build 0)  -->
<svg version="1.1" id="SEO_x5F_Hub-Image_x5F_SEO" xmlns="http://www.w3.org/2000/svg" xmlns:xlink="http://www.w3.org/1999/xlink"
	 x="0px" y="0px" viewBox="0 0 400 400" style="enable-background:new 0 0 400 400;" xml:space="preserve">
<style type="text/css">
	.st0{fill:none;}
	.st1{fill:#FFFFFF;}
	.st2{fill:#515979;}
	.st3{fill:#F3F9FE;}
	.st4{fill:#667683;}
	.st5{fill:#EF7D7D;}
	.st6{fill:#FFE8A0;}
	.st7{fill:#7DDF96;}
	.st8{fill:#2196F3;}
	.st9{fill:#E06B52;}
	.st10{fill:#FFD886;}
	.st11{fill:#00C853;}
	.st12{fill:#C8DBE7;}
	.st13{fill:#91B7CF;}
	.st14{fill:#A6D5FA;}
	.st15{fill:#4DABF5;}
	.st16{fill:#CBF2D5;}
	.st17{fill:#97E5AB;}
	.st18{fill:#FFEFCF;}
	.st19{fill:#FFE09E;}
	.st20{fill:#FCD8CD;}
	.st21{fill:#F9B19A;}
	.st22{fill:#DDD9FF;}
	.st23{fill:#BBB3FF;}
	.st24{fill:#CCCCCC;}
	.st25{fill:#979BAF;}
	.st26{fill:#D8EBFB;}
	.st27{fill:#A0D2FF;}
	.st28{fill:#9E8271;}
</style>
<g>
	<rect class="st0" width="400" height="400"/>
</g>
<g>
	<g>
		<g>
			<path class="st1" d="M96,299c-7.17,0-13-5.83-13-13V92c0-7.17,5.83-13,13-13h208c7.17,0,13,5.83,13,13v194c0,7.17-5.83,13-13,13
				H96z"/>
		</g>
		<g>
			<path class="st2" d="M304,82c5.52,0,10,4.48,10,10v194c0,5.52-4.48,10-10,10H96c-5.52,0-10-4.48-10-10V92c0-5.52,4.48-10,10-10
				H304 M304,76H96c-8.82,0-16,7.18-16,16v194c0,8.82,7.18,16,16,16h208c8.82,0,16-7.18,16-16V92C320,83.18,312.82,76,304,76L304,76
				z"/>
		</g>
	</g>
	<g>
		<g>
			<path class="st3" d="M86,159c-1.66,0-3-1.34-3-3v-40c0-1.66,1.34-3,3-3h228c1.66,0,3,1.34,3,3v40c0,1.66-1.34,3-3,3H86z"/>
		</g>
		<g>
			<path class="st2" d="M314,116v40H86v-40H314 M314,110H86c-3.31,0-6,2.69-6,6v40c0,3.31,2.69,6,6,6h228c3.31,0,6-2.69,6-6v-40
				C320,112.69,317.31,110,314,110L314,110z"/>
		</g>
	</g>
	<g>
		<g>
			<path class="st4" d="M86,113c-1.66,0-3-1.34-3-3V92c0-7.17,5.83-13,13-13h208c7.17,0,13,5.83,13,13v18c0,1.66-1.34,3-3,3H86z"/>
		</g>
		<g>
			<path class="st2" d="M304,82c5.52,0,10,4.48,10,10v18H86V92c0-5.52,4.48-10,10-10H304 M304,76H96c-8.82,0-16,7.18-16,16v18
				c0,3.31,2.69,6,6,6h228c3.31,0,6-2.69,6-6V92C320,83.18,312.82,76,304,76L304,76z"/>
		</g>
	</g>
	<g>
		<g>
			<path class="st1" d="M176,103c-3.86,0-7-3.14-7-7s3.14-7,7-7h102c3.86,0,7,3.14,7,7s-3.14,7-7,7H176z"/>
		</g>
		<g>
			<g>
				<path class="st2" d="M278,92c2.21,0,4,1.79,4,4s-1.79,4-4,4H176c-2.21,0-4-1.79-4-4s1.79-4,4-4H278 M278,86H176
					c-5.51,0-10,4.49-10,10s4.49,10,10,10h102c5.51,0,10-4.49,10-10S283.51,86,278,86L278,86z"/>
			</g>
		</g>
	</g>
	<g>
		<g>
			<circle class="st5" cx="102" cy="96" r="7"/>
		</g>
		<g>
			<g>
				<path class="st2" d="M102,92c2.21,0,4,1.79,4,4s-1.79,4-4,4s-4-1.79-4-4S99.79,92,102,92 M102,86c-5.51,0-10,4.49-10,10
					s4.49,10,10,10s10-4.49,10-10S107.51,86,102,86L102,86z"/>
			</g>
		</g>
	</g>
	<g>
		<g>
			<circle class="st6" cx="126" cy="96" r="7"/>
		</g>
		<g>
			<g>
				<path class="st2" d="M126,92c2.21,0,4,1.79,4,4s-1.79,4-4,4s-4-1.79-4-4S123.79,92,126,92 M126,86c-5.51,0-10,4.49-10,10
					s4.49,10,10,10c5.51,0,10-4.49,10-10S131.51,86,126,86L126,86z"/>
			</g>
		</g>
	</g>
	<g>
		<g>
			<circle class="st7" cx="150" cy="96" r="7"/>
		</g>
		<g>
			<g>
				<path class="st2" d="M150,92c2.21,0,4,1.79,4,4s-1.79,4-4,4s-4-1.79-4-4S147.79,92,150,92 M150,86c-5.51,0-10,4.49-10,10
					s4.49,10,10,10s10-4.49,10-10S155.51,86,150,86L150,86z"/>
			</g>
		</g>
	</g>
	<g>
		<g id="svg_7_00000047026917203583647600000005997500493080771982_">
			<path class="st8" d="M114,132.48h-8.54v2.53h6.06c-0.3,3.55-3.26,5.07-6.05,5.07c-3.57,0-6.69-2.81-6.69-6.75
				c0-3.84,2.97-6.79,6.69-6.79c2.87,0,4.57,1.83,4.57,1.83l1.77-1.84c0,0-2.28-2.54-6.43-2.54c-5.29,0-9.38,4.46-9.38,9.29
				c0,4.73,3.85,9.33,9.52,9.33c4.98,0,8.63-3.41,8.63-8.46C114.15,133.09,114,132.48,114,132.48L114,132.48z"/>
		</g>
		<g id="svg_6_00000129898079425824806830000007100918843283100555_">
			<path class="st9" d="M127,136.65c0,3.46-2.69,5.96-5.96,5.96c-3.62,0-6.06-2.79-6.06-6.03c0-3.2,2.51-5.94,6.02-5.94
				C123.87,130.64,127,132.68,127,136.65z M121.03,132.99c-1.94,0-3.42,1.55-3.42,3.62c0,2.12,1.51,3.65,3.42,3.65
				c1.74,0,3.36-1.43,3.36-3.63C124.38,134.38,122.75,132.99,121.03,132.99L121.03,132.99z"/>
		</g>
		<g id="svg_5_00000000221244021731447520000012789686610498510214_">
			<path class="st10" d="M140.08,136.65c0,3.46-2.69,5.96-5.96,5.96c-3.62,0-6.06-2.79-6.06-6.03c0-3.2,2.51-5.94,6.02-5.94
				C136.96,130.64,140.08,132.68,140.08,136.65z M134.11,132.99c-1.94,0-3.42,1.55-3.42,3.62c0,2.12,1.51,3.65,3.42,3.65
				c1.74,0,3.36-1.43,3.36-3.63C137.47,134.38,135.84,132.99,134.11,132.99L134.11,132.99z"/>
		</g>
		<g id="svg_4_00000142165411752503637800000016518966146572468909_">
			<path class="st8" d="M146.91,130.65c1.4,0,2.46,0.54,3.23,1.37v-1.01h2.51v10.75c0,4.23-2.44,6.24-5.64,6.24
				c-2.92,0-4.57-1.8-5.38-3.52l2.3-0.96c0.32,0.77,1.24,2.13,3.06,2.13c1.89,0,3.15-1.24,3.15-3.3v-1.18
				c-0.67,0.78-1.58,1.45-3.28,1.45c-2.76,0-5.69-2.39-5.69-5.99C141.17,133.46,143.69,130.65,146.91,130.65L146.91,130.65z
				 M147.14,132.99c-1.69,0-3.35,1.37-3.35,3.67c0,2.21,1.6,3.6,3.31,3.6c1.62,0,3.23-1.29,3.23-3.63
				C150.34,134.34,148.72,132.99,147.14,132.99L147.14,132.99z"/>
		</g>
		<g id="svg_3_00000092437094048272657600000016499266660557156512_">
			<path class="st9" d="M163.8,130.63c2.39,0,4.2,1.6,4.98,3.51l0.42,0.98l-8.02,3.33c0.48,0.89,1.25,1.81,2.94,1.81
				c1.5,0,2.4-0.81,2.93-1.65l2.07,1.38c-0.93,1.24-2.48,2.63-5.01,2.63c-3.03,0-5.87-2.24-5.87-6.01
				C158.22,133.05,160.77,130.63,163.8,130.63L163.8,130.63z M160.76,136.45l5.36-2.24c-0.33-0.7-1.12-1.28-2.21-1.28
				C162.18,132.93,160.53,134.72,160.76,136.45z"/>
		</g>
		<g id="svg_2_00000008865286368560866310000006052761948862945946_">
			<path class="st11" d="M154.4,142.26h2.64v-17.64h-2.64V142.26z"/>
		</g>
	</g>
	<g>
		<g>
			<g>
				<path class="st12" d="M102,224c-4.41,0-8-3.59-8-8v-38c0-4.41,3.59-8,8-8h48c4.41,0,8,3.59,8,8v38c0,4.41-3.59,8-8,8H102z"/>
			</g>
			<g>
				<path class="st2" d="M150,172c3.31,0,6,2.69,6,6v38c0,3.31-2.69,6-6,6h-48c-3.31,0-6-2.69-6-6v-38c0-3.31,2.69-6,6-6H150
					 M150,168h-48c-5.51,0-10,4.49-10,10v38c0,5.51,4.49,10,10,10h48c5.51,0,10-4.49,10-10v-38C160,172.49,155.51,168,150,168
					L150,168z"/>
			</g>
		</g>
		<g>
			<g>
				<circle class="st13" cx="133" cy="184" r="8"/>
			</g>
			<g>
				<g>
					<path class="st2" d="M133,178c3.31,0,6,2.69,6,6s-2.69,6-6,6s-6-2.69-6-6S129.69,178,133,178 M133,174c-5.51,0-10,4.49-10,10
						s4.49,10,10,10s10-4.49,10-10S138.51,174,133,174L133,174z"/>
				</g>
			</g>
		</g>
		<g>
			<g>
				<path class="st13" d="M102,224c-3.47,0-6.52-2.21-7.6-5.51c-0.18-0.56-0.11-1.18,0.2-1.68l15.16-24.38
					c0.74-1.18,2.01-1.89,3.4-1.89c1.27,0,2.44,0.58,3.2,1.6l14.68,19.58l7.85-9.99c0.76-0.97,1.91-1.53,3.15-1.53
					c1.21,0,2.34,0.54,3.1,1.47l12.13,14.89c0.43,0.52,0.56,1.23,0.35,1.87c-1.06,3.33-4.13,5.56-7.62,5.56H102z"/>
			</g>
			<g>
				<g>
					<path class="st2" d="M113.16,192.54c0.6,0,1.2,0.26,1.6,0.8L131,215l9.46-12.03c0.4-0.51,0.99-0.76,1.57-0.76
						c0.57,0,1.15,0.25,1.55,0.74l12.13,14.89c-0.77,2.42-3.04,4.17-5.71,4.17h-48c-2.66,0-4.92-1.73-5.7-4.13l15.16-24.38
						C111.85,192.86,112.5,192.54,113.16,192.54 M113.16,188.54c-2.09,0-3.99,1.06-5.1,2.83L92.9,215.75c-0.62,1-0.77,2.23-0.4,3.36
						c1.35,4.12,5.17,6.89,9.5,6.89h48c4.37,0,8.19-2.79,9.52-6.95c0.41-1.29,0.15-2.7-0.71-3.75l-12.13-14.89
						c-1.14-1.4-2.84-2.21-4.65-2.21c-1.85,0-3.57,0.84-4.72,2.29l-6.24,7.94l-13.12-17.49
						C116.81,189.41,115.06,188.54,113.16,188.54L113.16,188.54z"/>
				</g>
			</g>
		</g>
	</g>
	<g>
		<g>
			<g>
				<path class="st14" d="M102,288c-4.41,0-8-3.59-8-8v-38c0-4.41,3.59-8,8-8h48c4.41,0,8,3.59,8,8v38c0,4.41-3.59,8-8,8H102z"/>
			</g>
			<g>
				<path class="st2" d="M150,236c3.31,0,6,2.69,6,6v38c0,3.31-2.69,6-6,6h-48c-3.31,0-6-2.69-6-6v-38c0-3.31,2.69-6,6-6H150
					 M150,232h-48c-5.51,0-10,4.49-10,10v38c0,5.51,4.49,10,10,10h48c5.51,0,10-4.49,10-10v-38C160,236.49,155.51,232,150,232
					L150,232z"/>
			</g>
		</g>
		<g>
			<g>
				<circle class="st15" cx="133" cy="248" r="8"/>
			</g>
			<g>
				<g>
					<path class="st2" d="M133,242c3.31,0,6,2.69,6,6s-2.69,6-6,6s-6-2.69-6-6S129.69,242,133,242 M133,238c-5.51,0-10,4.49-10,10
						s4.49,10,10,10s10-4.49,10-10S138.51,238,133,238L133,238z"/>
				</g>
			</g>
		</g>
		<g>
			<g>
				<path class="st15" d="M102,288c-3.47,0-6.52-2.21-7.6-5.51c-0.18-0.56-0.11-1.18,0.2-1.68l15.16-24.38
					c0.74-1.18,2.01-1.89,3.4-1.89c1.27,0,2.44,0.58,3.2,1.6l14.68,19.58l7.85-9.99c0.76-0.97,1.91-1.53,3.15-1.53
					c1.21,0,2.34,0.54,3.1,1.47l12.13,14.89c0.43,0.52,0.56,1.23,0.35,1.87c-1.06,3.33-4.13,5.56-7.62,5.56H102z"/>
			</g>
			<g>
				<g>
					<path class="st2" d="M113.16,256.54c0.6,0,1.2,0.26,1.6,0.8L131,279l9.46-12.03c0.4-0.51,0.99-0.76,1.57-0.76
						c0.57,0,1.15,0.25,1.55,0.74l12.13,14.89c-0.77,2.42-3.04,4.17-5.71,4.17h-48c-2.66,0-4.92-1.73-5.7-4.13l15.16-24.38
						C111.85,256.86,112.5,256.54,113.16,256.54 M113.16,252.54c-2.09,0-3.99,1.06-5.1,2.83L92.9,279.75c-0.62,1-0.77,2.23-0.4,3.36
						c1.35,4.12,5.17,6.89,9.5,6.89h48c4.37,0,8.19-2.79,9.52-6.95c0.41-1.29,0.15-2.7-0.71-3.75l-12.13-14.89
						c-1.14-1.4-2.84-2.21-4.65-2.21c-1.85,0-3.57,0.84-4.72,2.29l-6.24,7.94l-13.12-17.49
						C116.81,253.41,115.06,252.54,113.16,252.54L113.16,252.54z"/>
				</g>
			</g>
		</g>
	</g>
	<g>
		<g>
			<g>
				<path class="st16" d="M176,224c-4.41,0-8-3.59-8-8v-38c0-4.41,3.59-8,8-8h48c4.41,0,8,3.59,8,8v38c0,4.41-3.59,8-8,8H176z"/>
			</g>
			<g>
				<path class="st2" d="M224,172c3.31,0,6,2.69,6,6v38c0,3.31-2.69,6-6,6h-48c-3.31,0-6-2.69-6-6v-38c0-3.31,2.69-6,6-6H224
					 M224,168h-48c-5.51,0-10,4.49-10,10v38c0,5.51,4.49,10,10,10h48c5.51,0,10-4.49,10-10v-38C234,172.49,229.51,168,224,168
					L224,168z"/>
			</g>
		</g>
		<g>
			<g>
				<circle class="st17" cx="207" cy="184" r="8"/>
			</g>
			<g>
				<g>
					<path class="st2" d="M207,178c3.31,0,6,2.69,6,6s-2.69,6-6,6s-6-2.69-6-6S203.69,178,207,178 M207,174c-5.51,0-10,4.49-10,10
						s4.49,10,10,10s10-4.49,10-10S212.51,174,207,174L207,174z"/>
				</g>
			</g>
		</g>
		<g>
			<g>
				<path class="st17" d="M176,224c-3.47,0-6.52-2.21-7.6-5.51c-0.18-0.56-0.11-1.18,0.2-1.68l15.16-24.38
					c0.74-1.18,2.01-1.89,3.4-1.89c1.27,0,2.44,0.58,3.2,1.6l14.68,19.58l7.85-9.99c0.76-0.97,1.91-1.53,3.15-1.53
					c1.21,0,2.34,0.54,3.1,1.47l12.14,14.89c0.43,0.52,0.56,1.23,0.35,1.87c-1.06,3.33-4.13,5.56-7.62,5.56H176z"/>
			</g>
			<g>
				<g>
					<path class="st2" d="M187.16,192.54c0.6,0,1.2,0.26,1.6,0.8L205,215l9.46-12.03c0.4-0.51,0.99-0.76,1.57-0.76
						c0.57,0,1.15,0.25,1.55,0.74l12.13,14.89c-0.77,2.42-3.04,4.17-5.71,4.17h-48c-2.66,0-4.92-1.73-5.7-4.13l15.16-24.38
						C185.85,192.86,186.5,192.54,187.16,192.54 M187.16,188.54c-2.09,0-3.99,1.06-5.1,2.83l-15.16,24.38
						c-0.62,1-0.77,2.23-0.4,3.36c1.35,4.12,5.17,6.89,9.5,6.89h48c4.37,0,8.19-2.79,9.52-6.95c0.41-1.29,0.15-2.7-0.71-3.75
						l-12.13-14.89c-1.14-1.4-2.84-2.21-4.65-2.21c-1.85,0-3.57,0.84-4.72,2.29l-6.24,7.94l-13.12-17.49
						C190.81,189.41,189.06,188.54,187.16,188.54L187.16,188.54z"/>
				</g>
			</g>
		</g>
	</g>
	<g>
		<g>
			<g>
				<path class="st18" d="M176,288c-4.41,0-8-3.59-8-8v-38c0-4.41,3.59-8,8-8h48c4.41,0,8,3.59,8,8v38c0,4.41-3.59,8-8,8H176z"/>
			</g>
			<g>
				<path class="st2" d="M224,236c3.31,0,6,2.69,6,6v38c0,3.31-2.69,6-6,6h-48c-3.31,0-6-2.69-6-6v-38c0-3.31,2.69-6,6-6H224
					 M224,232h-48c-5.51,0-10,4.49-10,10v38c0,5.51,4.49,10,10,10h48c5.51,0,10-4.49,10-10v-38C234,236.49,229.51,232,224,232
					L224,232z"/>
			</g>
		</g>
		<g>
			<g>
				<circle class="st19" cx="207" cy="248" r="8"/>
			</g>
			<g>
				<g>
					<path class="st2" d="M207,242c3.31,0,6,2.69,6,6s-2.69,6-6,6s-6-2.69-6-6S203.69,242,207,242 M207,238c-5.51,0-10,4.49-10,10
						s4.49,10,10,10s10-4.49,10-10S212.51,238,207,238L207,238z"/>
				</g>
			</g>
		</g>
		<g>
			<g>
				<path class="st19" d="M176,288c-3.47,0-6.52-2.21-7.6-5.51c-0.18-0.56-0.11-1.18,0.2-1.68l15.16-24.38
					c0.74-1.18,2.01-1.89,3.4-1.89c1.27,0,2.44,0.58,3.2,1.6l14.68,19.58l7.85-9.99c0.76-0.97,1.91-1.53,3.15-1.53
					c1.21,0,2.34,0.54,3.1,1.47l12.14,14.89c0.43,0.52,0.56,1.23,0.35,1.87c-1.06,3.33-4.13,5.56-7.62,5.56H176z"/>
			</g>
			<g>
				<g>
					<path class="st2" d="M187.16,256.54c0.6,0,1.2,0.26,1.6,0.8L205,279l9.46-12.03c0.4-0.51,0.99-0.76,1.57-0.76
						c0.57,0,1.15,0.25,1.55,0.74l12.13,14.89c-0.77,2.42-3.04,4.17-5.71,4.17h-48c-2.66,0-4.92-1.73-5.7-4.13l15.16-24.38
						C185.85,256.86,186.5,256.54,187.16,256.54 M187.16,252.54c-2.09,0-3.99,1.06-5.1,2.83l-15.16,24.38
						c-0.62,1-0.77,2.23-0.4,3.36c1.35,4.12,5.17,6.89,9.5,6.89h48c4.37,0,8.19-2.79,9.52-6.95c0.41-1.29,0.15-2.7-0.71-3.75
						l-12.13-14.89c-1.14-1.4-2.84-2.21-4.65-2.21c-1.85,0-3.57,0.84-4.72,2.29l-6.24,7.94l-13.12-17.49
						C190.81,253.41,189.06,252.54,187.16,252.54L187.16,252.54z"/>
				</g>
			</g>
		</g>
	</g>
	<g>
		<g>
			<g>
				<path class="st20" d="M250,224c-4.41,0-8-3.59-8-8v-38c0-4.41,3.59-8,8-8h48c4.41,0,8,3.59,8,8v38c0,4.41-3.59,8-8,8H250z"/>
			</g>
			<g>
				<path class="st2" d="M298,172c3.31,0,6,2.69,6,6v38c0,3.31-2.69,6-6,6h-48c-3.31,0-6-2.69-6-6v-38c0-3.31,2.69-6,6-6H298
					 M298,168h-48c-5.51,0-10,4.49-10,10v38c0,5.51,4.49,10,10,10h48c5.51,0,10-4.49,10-10v-38C308,172.49,303.51,168,298,168
					L298,168z"/>
			</g>
		</g>
		<g>
			<g>
				<circle class="st21" cx="281" cy="184" r="8"/>
			</g>
			<g>
				<g>
					<path class="st2" d="M281,178c3.31,0,6,2.69,6,6s-2.69,6-6,6s-6-2.69-6-6S277.69,178,281,178 M281,174c-5.51,0-10,4.49-10,10
						s4.49,10,10,10s10-4.49,10-10S286.51,174,281,174L281,174z"/>
				</g>
			</g>
		</g>
		<g>
			<g>
				<path class="st21" d="M250,224c-3.47,0-6.52-2.21-7.6-5.51c-0.18-0.56-0.11-1.18,0.2-1.68l15.16-24.38
					c0.74-1.18,2.01-1.89,3.4-1.89c1.27,0,2.44,0.58,3.2,1.6l14.68,19.58l7.85-9.99c0.76-0.97,1.91-1.53,3.15-1.53
					c1.21,0,2.34,0.54,3.1,1.47l12.14,14.89c0.43,0.52,0.56,1.23,0.35,1.87c-1.06,3.33-4.13,5.56-7.62,5.56H250z"/>
			</g>
			<g>
				<g>
					<path class="st2" d="M261.16,192.54c0.6,0,1.2,0.26,1.6,0.8L279,215l9.46-12.03c0.4-0.51,0.99-0.76,1.57-0.76
						c0.57,0,1.15,0.25,1.55,0.74l12.13,14.89c-0.77,2.42-3.04,4.17-5.71,4.17h-48c-2.66,0-4.92-1.73-5.7-4.13l15.16-24.38
						C259.85,192.86,260.5,192.54,261.16,192.54 M261.16,188.54c-2.09,0-3.99,1.06-5.1,2.83l-15.16,24.38
						c-0.62,1-0.77,2.23-0.4,3.36c1.35,4.12,5.17,6.89,9.5,6.89h48c4.37,0,8.19-2.79,9.52-6.95c0.41-1.29,0.15-2.7-0.71-3.75
						l-12.13-14.89c-1.14-1.4-2.84-2.21-4.65-2.21c-1.85,0-3.57,0.84-4.72,2.29l-6.24,7.94l-13.12-17.49
						C264.81,189.41,263.06,188.54,261.16,188.54L261.16,188.54z"/>
				</g>
			</g>
		</g>
	</g>
	<g>
		<g>
			<g>
				<path class="st22" d="M250,288c-4.41,0-8-3.59-8-8v-38c0-4.41,3.59-8,8-8h48c4.41,0,8,3.59,8,8v38c0,4.41-3.59,8-8,8H250z"/>
			</g>
			<g>
				<path class="st2" d="M298,236c3.31,0,6,2.69,6,6v38c0,3.31-2.69,6-6,6h-48c-3.31,0-6-2.69-6-6v-38c0-3.31,2.69-6,6-6H298
					 M298,232h-48c-5.51,0-10,4.49-10,10v38c0,5.51,4.49,10,10,10h48c5.51,0,10-4.49,10-10v-38C308,236.49,303.51,232,298,232
					L298,232z"/>
			</g>
		</g>
		<g>
			<g>
				<circle class="st23" cx="281" cy="248" r="8"/>
			</g>
			<g>
				<g>
					<path class="st2" d="M281,242c3.31,0,6,2.69,6,6s-2.69,6-6,6s-6-2.69-6-6S277.69,242,281,242 M281,238c-5.51,0-10,4.49-10,10
						s4.49,10,10,10s10-4.49,10-10S286.51,238,281,238L281,238z"/>
				</g>
			</g>
		</g>
		<g>
			<g>
				<path class="st23" d="M250,288c-3.47,0-6.52-2.21-7.6-5.51c-0.18-0.56-0.11-1.18,0.2-1.68l15.16-24.38
					c0.74-1.18,2.01-1.89,3.4-1.89c1.27,0,2.44,0.58,3.2,1.6l14.68,19.58l7.85-9.99c0.76-0.97,1.91-1.53,3.15-1.53
					c1.21,0,2.34,0.54,3.1,1.47l12.14,14.89c0.43,0.52,0.56,1.23,0.35,1.87c-1.06,3.33-4.13,5.56-7.62,5.56H250z"/>
			</g>
			<g>
				<g>
					<path class="st2" d="M261.16,256.54c0.6,0,1.2,0.26,1.6,0.8L279,279l9.46-12.03c0.4-0.51,0.99-0.76,1.57-0.76
						c0.57,0,1.15,0.25,1.55,0.74l12.13,14.89c-0.77,2.42-3.04,4.17-5.71,4.17h-48c-2.66,0-4.92-1.73-5.7-4.13l15.16-24.38
						C259.85,256.86,260.5,256.54,261.16,256.54 M261.16,252.54c-2.09,0-3.99,1.06-5.1,2.83l-15.16,24.38
						c-0.62,1-0.77,2.23-0.4,3.36c1.35,4.12,5.17,6.89,9.5,6.89h48c4.37,0,8.19-2.79,9.52-6.95c0.41-1.29,0.15-2.7-0.71-3.75
						l-12.13-14.89c-1.14-1.4-2.84-2.21-4.65-2.21c-1.85,0-3.57,0.84-4.72,2.29l-6.24,7.94l-13.12-17.49
						C264.81,253.41,263.06,252.54,261.16,252.54L261.16,252.54z"/>
				</g>
			</g>
		</g>
	</g>
</g>
<g>
	<g>
		<g>
			<path class="st24" d="M292.26,354.03c-0.8,0-1.56-0.32-2.12-0.88l-19.8-19.8c-0.56-0.56-0.88-1.33-0.88-2.12s0.32-1.56,0.88-2.12
				l5.66-5.66c0.59-0.59,1.35-0.88,2.12-0.88s1.54,0.29,2.12,0.88l19.8,19.8c1.17,1.17,1.17,3.07,0,4.24l-5.66,5.66
				C293.82,353.71,293.06,354.03,292.26,354.03L292.26,354.03z"/>
		</g>
		<g>
			<path class="st2" d="M278.12,325.57l19.8,19.8l-5.66,5.66l-19.8-19.8L278.12,325.57 M278.12,319.57c-1.59,0-3.12,0.63-4.24,1.76
				l-5.66,5.66c-1.13,1.13-1.76,2.65-1.76,4.24c0,1.59,0.63,3.12,1.76,4.24l19.8,19.8c1.17,1.17,2.71,1.76,4.24,1.76
				s3.07-0.59,4.24-1.76l5.66-5.66c2.34-2.34,2.34-6.14,0-8.49l-19.8-19.8C281.24,320.2,279.71,319.57,278.12,319.57L278.12,319.57z
				"/>
		</g>
	</g>
	<g>
		
			<rect x="280.13" y="333.74" transform="matrix(0.7071 -0.7071 0.7071 0.7071 -155.2434 299.686)" class="st25" width="8" height="7"/>
	</g>
	<g>
		<g>
			<path class="st24" d="M242.77,348.87c-14.16,0-27.47-5.51-37.48-15.52c-10.01-10.01-15.52-23.32-15.52-37.48
				c0-14.16,5.51-27.47,15.52-37.48c10.01-10.01,23.32-15.52,37.48-15.52s27.47,5.51,37.48,15.52
				c10.01,10.01,15.52,23.32,15.52,37.48c0,14.16-5.51,27.47-15.52,37.48C270.23,343.36,256.92,348.87,242.77,348.87z"/>
		</g>
		<g>
			<path class="st2" d="M242.77,245.87c12.8,0,25.59,4.88,35.36,14.64c19.53,19.53,19.53,51.18,0,70.71
				c-9.76,9.76-22.56,14.64-35.36,14.64s-25.59-4.88-35.36-14.64c-19.53-19.53-19.53-51.18,0-70.71
				C217.17,250.75,229.97,245.87,242.77,245.87 M242.77,239.87c-14.96,0-29.02,5.83-39.6,16.4c-10.58,10.58-16.4,24.64-16.4,39.6
				s5.83,29.02,16.4,39.6c10.58,10.58,24.64,16.4,39.6,16.4s29.02-5.83,39.6-16.4c10.58-10.58,16.4-24.64,16.4-39.6
				s-5.83-29.02-16.4-39.6C271.79,245.7,257.72,239.87,242.77,239.87L242.77,239.87z"/>
		</g>
	</g>
	<g>
		<g>
			<path class="st26" d="M242.77,333.87c-10.15,0-19.69-3.95-26.87-11.13c-7.18-7.18-11.13-16.72-11.13-26.87
				c0-10.15,3.95-19.69,11.13-26.87c7.18-7.18,16.72-11.13,26.87-11.13s19.69,3.95,26.87,11.13s11.13,16.72,11.13,26.87
				c0,10.15-3.95,19.69-11.13,26.87C262.46,329.92,252.92,333.87,242.77,333.87z"/>
		</g>
		<g>
			<path class="st2" d="M242.77,260.87c8.96,0,17.91,3.42,24.75,10.25c13.67,13.67,13.67,35.83,0,49.5
				c-6.83,6.83-15.79,10.25-24.75,10.25s-17.91-3.42-24.75-10.25c-13.67-13.67-13.67-35.83,0-49.5
				C224.85,264.29,233.81,260.87,242.77,260.87 M242.77,254.87c-10.95,0-21.25,4.26-28.99,12.01c-7.74,7.74-12.01,18.04-12.01,28.99
				s4.26,21.25,12.01,28.99c7.74,7.74,18.04,12.01,28.99,12.01c10.95,0,21.25-4.26,28.99-12.01c7.74-7.74,12.01-18.04,12.01-28.99
				s-4.26-21.25-12.01-28.99C264.01,259.14,253.72,254.87,242.77,254.87L242.77,254.87z"/>
		</g>
	</g>
	<g>
		<g>
			<path class="st27" d="M221.55,274.66c-13.07,13.07-13.63,33.91-1.7,47.66c-0.63-0.54-1.24-1.1-1.84-1.7
				c-13.67-13.67-13.67-35.83,0-49.5c13.67-13.67,35.83-13.67,49.5,0c0.6,0.6,1.15,1.21,1.7,1.84
				C255.46,261.03,234.63,261.59,221.55,274.66z"/>
		</g>
	</g>
	<g>
		<g>
			<path class="st28" d="M321.25,390.09c-0.8,0-1.56-0.32-2.12-0.88l-32.53-32.53c-0.56-0.56-0.88-1.33-0.88-2.12
				s0.32-1.56,0.88-2.12l12.73-12.73c0.59-0.59,1.35-0.88,2.12-0.88s1.54,0.29,2.12,0.88l32.53,32.53c1.17,1.17,1.17,3.07,0,4.24
				l-12.73,12.73C322.81,389.77,322.05,390.09,321.25,390.09z"/>
		</g>
		<g>
			<path class="st2" d="M301.46,341.83l32.53,32.53l-12.73,12.73l-32.53-32.53L301.46,341.83 M301.46,335.83
				c-1.54,0-3.07,0.59-4.24,1.76l-12.73,12.73c-2.34,2.34-2.34,6.14,0,8.49l32.53,32.53c1.17,1.17,2.71,1.76,4.24,1.76
				c1.54,0,3.07-0.59,4.24-1.76l12.73-12.73c2.34-2.34,2.34-6.14,0-8.49l-32.53-32.53C304.53,336.42,302.99,335.83,301.46,335.83
				L301.46,335.83z"/>
		</g>
	</g>
	<g>
		<g>
			<path class="st10" d="M292.97,361.8c-0.77,0-1.54-0.29-2.12-0.88l-4.24-4.24c-1.17-1.17-1.17-3.07,0-4.24l12.73-12.73
				c0.59-0.59,1.35-0.88,2.12-0.88s1.54,0.29,2.12,0.88l4.24,4.24c0.56,0.56,0.88,1.33,0.88,2.12s-0.32,1.56-0.88,2.12l-12.73,12.73
				C294.5,361.51,293.74,361.8,292.97,361.8z"/>
		</g>
		<g>
			<path class="st2" d="M301.46,341.83l4.24,4.24l-12.73,12.73l-4.24-4.24L301.46,341.83 M301.46,335.83
				c-1.54,0-3.07,0.59-4.24,1.76l-12.73,12.73c-2.34,2.34-2.34,6.14,0,8.49l4.24,4.24c1.17,1.17,2.71,1.76,4.24,1.76
				c1.54,0,3.07-0.59,4.24-1.76l12.73-12.73c2.34-2.34,2.34-6.14,0-8.49l-4.24-4.24C304.53,336.42,302.99,335.83,301.46,335.83
				L301.46,335.83z"/>
		</g>
	</g>
	<g>
		<g>
			<path class="st2" d="M259.73,301.68c-0.32,0-0.64-0.08-0.94-0.24c-1.89-1.02-5.21-1.02-7.11,0c-0.98,0.52-2.19,0.16-2.71-0.82
				c-0.52-0.97-0.16-2.19,0.82-2.71c3.05-1.64,7.84-1.64,10.89,0c0.97,0.52,1.34,1.74,0.82,2.71
				C261.13,301.29,260.44,301.68,259.73,301.68z"/>
		</g>
		<g>
			<g>
				<circle class="st2" cx="255.23" cy="291.93" r="7"/>
			</g>
			<g>
				<circle class="st1" cx="256.98" cy="291.93" r="1.75"/>
			</g>
		</g>
		<g>
			<path class="st2" d="M250.26,276.91c0.61-0.55,1.11-0.88,1.72-1.22c0.59-0.32,1.22-0.59,1.88-0.8c1.32-0.41,2.78-0.57,4.26-0.39
				c1.48,0.15,2.99,0.73,4.21,1.63c1.26,0.87,2.13,2.1,2.67,3.38c0.44,1.04-0.05,2.24-1.1,2.68c-0.53,0.22-1.09,0.2-1.58,0
				l-0.45-0.19c-0.94-0.4-1.64-0.83-2.38-1.03c-0.71-0.25-1.37-0.43-2.13-0.52c-0.74-0.1-1.56-0.14-2.44-0.12
				c-0.44,0.01-0.91,0.02-1.37,0.06c-0.46,0.01-1,0.09-1.39,0.05l-0.78-0.08c-1.09-0.11-1.88-1.08-1.77-2.16
				C249.66,277.68,249.9,277.23,250.26,276.91z"/>
		</g>
		<g>
			<path class="st2" d="M233.73,301.68c-0.32,0-0.64-0.08-0.94-0.24c-1.89-1.02-5.21-1.02-7.11,0c-0.98,0.52-2.19,0.16-2.71-0.82
				c-0.52-0.97-0.16-2.19,0.82-2.71c3.05-1.64,7.84-1.64,10.89,0c0.97,0.52,1.34,1.74,0.82,2.71
				C235.13,301.29,234.44,301.68,233.73,301.68z"/>
		</g>
		<g>
			<g>
				<circle class="st2" cx="229.23" cy="291.93" r="7"/>
			</g>
			<g>
				<circle class="st1" cx="230.98" cy="291.93" r="1.75"/>
			</g>
		</g>
		<g>
			<path class="st2" d="M232.31,280.43c-0.39,0.04-0.94-0.05-1.39-0.05c-0.47-0.04-0.93-0.05-1.37-0.06
				c-0.89-0.02-1.7,0.02-2.44,0.12c-0.75,0.09-1.41,0.28-2.13,0.52c-0.74,0.21-1.43,0.64-2.38,1.03l-0.45,0.19
				c-1.04,0.44-2.24-0.05-2.68-1.09c-0.22-0.53-0.2-1.1,0-1.59c0.54-1.28,1.41-2.51,2.67-3.38c1.21-0.9,2.72-1.48,4.21-1.63
				c1.49-0.18,2.95-0.02,4.26,0.39c0.66,0.21,1.29,0.48,1.88,0.8c0.61,0.34,1.11,0.68,1.72,1.22c0.81,0.73,0.89,1.98,0.16,2.79
				c-0.34,0.38-0.8,0.6-1.27,0.65L232.31,280.43z"/>
		</g>
	</g>
	<g>
		<path class="st2" d="M242.57,311.95c-4.96,0-10.04-1.43-14.43-4.31c-0.92-0.6-1.18-1.84-0.58-2.77c0.6-0.92,1.85-1.18,2.77-0.58
			c7.35,4.8,17.32,4.82,23.71,0.03c0.88-0.66,2.14-0.48,2.8,0.4c0.66,0.88,0.48,2.14-0.4,2.8
			C252.5,310.47,247.6,311.95,242.57,311.95z"/>
	</g>
	<g>
		<path class="st2" d="M238.06,314.6c1.35,0.43,2.77,0.57,4.18,0.62c0.71,0.03,1.41-0.06,2.11-0.15c0.7-0.09,1.39-0.24,2.05-0.46
			c0.69-0.24,1.45,0.13,1.68,0.82c0.17,0.48,0.04,1-0.29,1.34l-0.72,0.76c-0.67,0.71-1.48,1.09-2.3,1.37
			c-0.83,0.24-1.69,0.36-2.54,0.31c-0.43-0.02-0.85-0.04-1.27-0.13c-0.42-0.06-0.84-0.17-1.25-0.3c-0.81-0.27-1.6-0.64-2.3-1.25
			l-0.67-0.59c-0.57-0.5-0.63-1.37-0.13-1.94C236.98,314.58,237.55,314.44,238.06,314.6z"/>
	</g>
</g>
<g>
	<g>
		<path class="st10" d="M52.6,275.4c2.65,0,4.8-2.15,4.8-4.8c0-0.88,0.72-1.6,1.6-1.6s1.6,0.72,1.6,1.6c0,2.65,2.15,4.8,4.8,4.8
			c0.88,0,1.6,0.72,1.6,1.6s-0.72,1.6-1.6,1.6c-2.65,0-4.8,2.15-4.8,4.8c0,0.88-0.72,1.6-1.6,1.6s-1.6-0.72-1.6-1.6
			c0-2.65-2.15-4.8-4.8-4.8c-0.88,0-1.6-0.72-1.6-1.6S51.72,275.4,52.6,275.4z"/>
	</g>
</g>
<g>
	<g>
		<circle class="st10" cx="307" cy="49" r="5"/>
	</g>
</g>
<g>
	<g>
		<path class="st10" d="M339.6,279.4c2.65,0,4.8-2.15,4.8-4.8c0-0.88,0.72-1.6,1.6-1.6s1.6,0.72,1.6,1.6c0,2.65,2.15,4.8,4.8,4.8
			c0.88,0,1.6,0.72,1.6,1.6s-0.72,1.6-1.6,1.6c-2.65,0-4.8,2.15-4.8,4.8c0,0.88-0.72,1.6-1.6,1.6s-1.6-0.72-1.6-1.6
			c0-2.65-2.15-4.8-4.8-4.8c-0.88,0-1.6-0.72-1.6-1.6S338.72,279.4,339.6,279.4z"/>
	</g>
</g>
<g>
	<g>
		<circle class="st10" cx="324" cy="320" r="3"/>
	</g>
</g>
<g>
	<g>
		<circle class="st10" cx="55" cy="318" r="5"/>
	</g>
</g>
<path class="st10" d="M361,90h-7v-7c0-1.66-1.34-3-3-3s-3,1.34-3,3v7h-7c-1.66,0-3,1.34-3,3s1.34,3,3,3h7v7c0,1.66,1.34,3,3,3
	s3-1.34,3-3v-7h7c1.66,0,3-1.34,3-3S362.66,90,361,90z"/>
<g>
	<g>
		<path class="st10" d="M87.8,47.2c2.98,0,5.4-2.42,5.4-5.4c0-0.99,0.81-1.8,1.8-1.8c0.99,0,1.8,0.81,1.8,1.8
			c0,2.98,2.42,5.4,5.4,5.4c0.99,0,1.8,0.81,1.8,1.8s-0.81,1.8-1.8,1.8c-2.98,0-5.4,2.42-5.4,5.4c0,0.99-0.81,1.8-1.8,1.8
			c-0.99,0-1.8-0.81-1.8-1.8c0-2.98-2.42-5.4-5.4-5.4c-0.99,0-1.8-0.81-1.8-1.8S86.81,47.2,87.8,47.2z"/>
	</g>
</g>
<g>
	<g>
		<circle class="st10" cx="57" cy="77" r="3"/>
	</g>
</g>
<g>
	<g>
		<circle class="st10" cx="93" cy="325" r="4"/>
	</g>
</g>
</svg>
