<?xml version="1.0" encoding="utf-8"?>
<!-- Generator: Adobe Illustrator 26.1.0, SVG Export Plug-In . SVG Version: 6.00 Build 0)  -->
<svg version="1.1" id="Layer_1" xmlns="http://www.w3.org/2000/svg" xmlns:xlink="http://www.w3.org/1999/xlink" x="0px" y="0px"
	 viewBox="0 0 260 260" style="enable-background:new 0 0 260 260;" xml:space="preserve">
<style type="text/css">
	.st0{fill:#FFF5E6;}
	.st1{fill:#515979;}
	.st2{fill:#EF7D7D;}
	.st3{fill:#FBB040;}
	.st4{fill:#75A5C3;}
	.st5{fill:#ACC9DB;}
</style>
<path class="st0" d="M130,225.5c-22.7,0-41.1-18.4-41.2-41.2v-2.1c0-1.7,1.4-3.2,3.2-3.2c0,0,0,0,0,0h76c0.8,0,1.6,0.3,2.2,0.9
	c0.6,0.6,0.9,1.4,0.9,2.2v2.1C171.1,207.1,152.7,225.5,130,225.5L130,225.5z"/>
<path class="st1" d="M168,182.2v2.1c0,21-17,38-38,38c-21,0-38-17-38-38c0,0,0,0,0,0v-2.1H168z M168,175.9H92
	c-3.5,0-6.3,2.8-6.3,6.3v2.1c-0.2,24.5,19.5,44.5,44,44.7c24.5,0.2,44.5-19.5,44.7-44c0-0.2,0-0.4,0-0.7v-2.1
	C174.3,178.7,171.5,175.9,168,175.9L168,175.9z"/>
<path class="st1" d="M98.3,179.1v6.3c0,17.5,14.2,31.7,31.7,31.7s31.7-14.2,31.7-31.7v-6.3H98.3z"/>
<path class="st2" d="M130,195.9c-6.6,0-12.9,2.9-17.2,8c9.7,9,24.7,9,34.4,0C142.9,198.9,136.6,195.9,130,195.9z"/>
<path class="st0" d="M93.1,163.2c-19.2,0-34.8-15.6-34.8-34.8c0,0,0,0,0,0v-22.2c0.2-39.6,32.6-71.6,72.2-71.4
	c39.3,0.2,71.1,32,71.4,71.4v22.2c0,19.2-15.6,34.8-34.8,34.8c0,0,0,0,0,0H93.1z"/>
<path class="st1" d="M130,37.6c37.9,0,68.6,30.7,68.6,68.6v22.2c0,17.5-14.2,31.7-31.7,31.7H93.1c-17.5,0-31.7-14.2-31.7-31.7v-22.2
	C61.4,68.3,92.1,37.6,130,37.6z M130,31.3c-41.4,0-74.9,33.6-74.9,74.9v22.2c0,21,17,38,38,38h73.9c21,0,38-17,38-38v-22.2
	C204.9,64.8,171.4,31.3,130,31.3z"/>
<path class="st0" d="M173.3,155.8v10.6c0,3.5-2.8,6.3-6.3,6.3H93.1c-3.5,0-6.3-2.8-6.3-6.3v-10.6"/>
<path class="st1" d="M166.9,175.9H93.1c-5.2,0-9.5-4.3-9.5-9.5l0,0v-10.6c0-1.7,1.4-3.2,3.2-3.2c1.7,0,3.2,1.4,3.2,3.2l0,0v10.6
	c0,1.7,1.4,3.2,3.2,3.2c0,0,0,0,0,0h73.9c1.7,0,3.2-1.4,3.2-3.2v0v-10.6c0-1.7,1.4-3.2,3.2-3.2c0,0,0,0,0,0c1.7,0,3.2,1.4,3.2,3.2v0
	v10.6C176.4,171.6,172.2,175.9,166.9,175.9C167,175.9,166.9,175.9,166.9,175.9L166.9,175.9z"/>
<path class="st0" d="M152.2,182.2c-2.9,0-5.3-2.4-5.3-5.3v-5.3c0-4.7,3.8-8.4,8.4-8.4c4.7,0,8.4,3.8,8.4,8.4c0,0,0,0,0,0v5.3
	c0,2.9-2.4,5.3-5.3,5.3c0,0,0,0,0,0H152.2z"/>
<path class="st1" d="M155.3,166.4c2.9,0,5.3,2.4,5.3,5.3v5.3c0,1.2-0.9,2.1-2.1,2.1l0,0h-6.3c-1.2,0-2.1-0.9-2.1-2.1v-5.3
	C150.1,168.8,152.4,166.4,155.3,166.4C155.3,166.4,155.3,166.4,155.3,166.4L155.3,166.4z M155.3,160.1c-6.4,0-11.6,5.2-11.6,11.6
	c0,0,0,0,0,0v5.3c0,4.7,3.8,8.4,8.4,8.4h6.3c4.7,0,8.4-3.8,8.4-8.4v-5.3c0-4.7-2.8-8.9-7.2-10.7
	C158.4,160.4,156.9,160.1,155.3,160.1z"/>
<path class="st3" d="M135.3,182.2c-2.9,0-5.3-2.4-5.3-5.3v-5.3c0-4.7,3.8-8.4,8.4-8.4c0,0,0,0,0,0c4.7,0,8.4,3.8,8.4,8.4v5.3
	c0,2.9-2.4,5.3-5.3,5.3c0,0,0,0,0,0H135.3L135.3,182.2z"/>
<path class="st1" d="M138.4,166.4c2.9,0,5.3,2.4,5.3,5.3c0,0,0,0,0,0v5.3c0,1.2-0.9,2.1-2.1,2.1h-6.3c-1.2,0-2.1-0.9-2.1-2.1v-5.3
	C133.2,168.8,135.5,166.4,138.4,166.4L138.4,166.4z M138.4,160.1c-6.4,0-11.6,5.2-11.6,11.6l0,0v5.3c0,4.7,3.8,8.4,8.4,8.4
	c0,0,0,0,0,0h6.3c4.7,0,8.4-3.8,8.4-8.4v-5.3C150.1,165.3,144.9,160.1,138.4,160.1L138.4,160.1z"/>
<path class="st0" d="M118.4,182.2c-2.9,0-5.3-2.4-5.3-5.3c0,0,0,0,0,0v-5.3c0.1-4.7,3.9-8.4,8.5-8.3c4.6,0.1,8.3,3.8,8.3,8.3v5.3
	c0,2.9-2.4,5.3-5.3,5.3H118.4z"/>
<path class="st1" d="M121.6,166.4c2.9,0,5.3,2.4,5.3,5.3v5.3c0,1.2-0.9,2.1-2.1,2.1h-6.3c-1.2,0-2.1-0.9-2.1-2.1v-5.3
	C116.3,168.8,118.6,166.4,121.6,166.4C121.6,166.4,121.6,166.4,121.6,166.4z M121.6,160.1c-6.4,0-11.6,5.2-11.6,11.6v5.3
	c0,4.7,3.8,8.4,8.4,8.4h6.3c4.7,0,8.4-3.8,8.4-8.4v-5.3C133.2,165.3,128,160.1,121.6,160.1C121.6,160.1,121.6,160.1,121.6,160.1z"/>
<path class="st0" d="M101.5,182.2c-2.9,0-5.3-2.4-5.3-5.3v-5.3c0-4.7,3.8-8.4,8.4-8.4s8.4,3.8,8.4,8.4c0,0,0,0,0,0v5.3
	c0,2.9-2.4,5.3-5.3,5.3c0,0,0,0,0,0H101.5z"/>
<path class="st1" d="M104.7,166.4c2.9,0,5.3,2.4,5.3,5.3v5.3c0,1.2-0.9,2.1-2.1,2.1l0,0h-6.3c-1.2,0-2.1-0.9-2.1-2.1v-5.3
	C99.4,168.8,101.7,166.4,104.7,166.4C104.7,166.4,104.7,166.4,104.7,166.4z M104.7,160.1c-6.4,0-11.6,5.2-11.6,11.6l0,0v5.3
	c0,4.7,3.8,8.4,8.4,8.4h6.3c4.7,0,8.4-3.8,8.4-8.4v-5.3C116.3,165.3,111.1,160.1,104.7,160.1L104.7,160.1z M134.2,154.8h-8.4
	c-2.3,0-4.2-1.9-4.2-4.2v-6.3c0-2.2,0.9-4.4,2.5-6c3.3-3.3,8.7-3.3,11.9,0c1.6,1.6,2.5,3.7,2.5,6v6.3
	C138.4,152.9,136.6,154.8,134.2,154.8z"/>
<path class="st4" d="M163.8,146.3c-13.4,0-24.3-10.9-24.3-24.3v-8.4c0-4.1,3.3-7.4,7.4-7.4l0,0h33.8c4.1,0,7.4,3.3,7.4,7.4l0,0v8.4
	C188.1,135.5,177.2,146.3,163.8,146.3C163.8,146.3,163.8,146.3,163.8,146.3z M96.2,146.3c-13.4,0-24.3-10.9-24.3-24.3v-8.4
	c0-4.1,3.3-7.4,7.4-7.4h33.8c4.1,0,7.4,3.3,7.4,7.4l0,0v8.4C120.5,135.5,109.6,146.3,96.2,146.3z"/>
<path class="st5" d="M159,109.4l-10.3,27.4c2.4,2.4,5.3,4.2,8.6,5.3l12.3-32.7H159L159,109.4z M173.8,109.4L161.2,143
	c0.9,0.1,1.7,0.2,2.6,0.2c1.7,0,3.4-0.2,5-0.6l12.4-33.2C181.2,109.4,173.8,109.4,173.8,109.4z M91.5,109.4l-10.3,27.4
	c2.4,2.4,5.3,4.2,8.6,5.3l12.3-32.7C102,109.4,91.5,109.4,91.5,109.4z M113.1,109.4h-6.9L93.6,143c0.9,0.1,1.7,0.2,2.6,0.2
	c1.7,0,3.4-0.2,5-0.6l12.4-33.1C113.4,109.4,113.3,109.4,113.1,109.4z"/>
<path class="st1" d="M105.4,86.7c-0.6,0.2-1.9,0.2-2.6,0.3c-4.7,0.5-9.4,1.7-13.7,3.6c-1,0.4-2.1,0.8-3.2,1.1
	c-1.7,0.4-3.4-0.6-3.8-2.3c-0.5-2,1.1-3.6,2.1-5.1c5.1-5.6,13.2-7.3,20.1-4.1c1.1,0.6,2.2,1.3,3.1,2.1c1,0.9,1,2.3,0.2,3.3
	c0,0,0,0,0,0c-0.3,0.3-0.6,0.5-1,0.7L105.4,86.7L105.4,86.7L105.4,86.7z M152.6,82.4c5.6-5,14.7-4.8,20.5-0.4c2.6,1.9,7.5,7,3.1,9.5
	c-0.7,0.3-1.4,0.4-2.1,0.2c-3.4-1-6.5-2.6-9.8-3.5c-3.2-0.8-6.4-1.3-9.7-1.6l-1.2-0.4c-1.2-0.4-1.9-1.7-1.5-2.9
	C152.1,82.9,152.3,82.6,152.6,82.4C152.7,82.3,152.6,82.4,152.6,82.4z M191.2,100.9h-44.3c-5.4,0-10.1,3.4-11.9,8.4
	c-3.2-1.4-6.8-1.4-9.9,0c-1.8-5.1-6.6-8.4-11.9-8.4H68.8c-2.9,0-5.3,2.4-5.3,5.3c0,0.8,0.2,1.7,0.6,2.4c0.6,1.1,1.5,1.9,2.6,2.4v11
	c0.1,16.3,13.4,29.5,29.7,29.4c16.2-0.1,29.3-13.2,29.4-29.4V121c0.1-2.3,2-4.2,4.3-4.1c2.3,0.1,4.1,1.9,4.1,4.1v1.1
	c0,16.3,13.2,29.6,29.6,29.6c16.3,0,29.6-13.2,29.6-29.6v-11c2.7-1.2,3.9-4.3,2.7-7C195.2,102.2,193.3,100.9,191.2,100.9
	L191.2,100.9z M117.3,122.1c0.1,11.7-9.3,21.2-21,21.3c-11.7,0.1-21.2-9.3-21.3-21c0-0.1,0-0.2,0-0.3v-8.4c0-2.3,1.9-4.2,4.2-4.2
	h33.8c0.8,0,1.7,0.2,2.4,0.7c0.2,0.2,0.4,0.3,0.6,0.5c0.8,0.8,1.2,1.9,1.2,3C117.3,113.6,117.3,122.1,117.3,122.1z M163.8,143.2
	c-6.8,0-13.3-3.3-17.2-8.9c-0.5-0.7-1-1.4-1.4-2.1c-0.7-1.2-1.2-2.5-1.6-3.8c-0.6-2.1-1-4.2-1-6.3v-8.4c0-1.4,0.7-2.7,1.9-3.5
	c0.7-0.5,1.5-0.7,2.4-0.7h33.8c2.3,0,4.2,1.9,4.2,4.2v8.4c0,5.6-2.2,11-6.2,14.9C174.8,140.9,169.4,143.2,163.8,143.2L163.8,143.2z"
	/>
<path class="st5" d="M191.2,105.2h-3.2c-0.6,0-1.1,0.5-1.1,1.1c0,0.6,0.5,1.1,1.1,1.1l0,0h3.2c0.6,0,1.1-0.5,1.1-1.1
	C192.3,105.6,191.8,105.2,191.2,105.2z M71.9,105.2h-3.2c-0.6,0-1.1,0.5-1.1,1.1c0,0.6,0.5,1.1,1.1,1.1h3.2c0.6,0,1.1-0.5,1.1-1.1
	C73,105.6,72.5,105.2,71.9,105.2z"/>
</svg>
