<?xml version="1.0" encoding="utf-8"?>
<!-- Generator: Adobe Illustrator 25.2.3, SVG Export Plug-In . SVG Version: 6.00 Build 0)  -->
<svg version="1.1" id="what-is-ctr" xmlns="http://www.w3.org/2000/svg" xmlns:xlink="http://www.w3.org/1999/xlink" x="0px"
	 y="0px" viewBox="0 0 400 400" style="enable-background:new 0 0 400 400;" xml:space="preserve">
<style type="text/css">
	.st0{fill:#FFFFFF;}
	.st1{fill:#515979;}
	.st2{fill:#667683;}
	.st3{fill:#EF7D7D;}
	.st4{fill:#FFE8A0;}
	.st5{fill:#7DDF96;}
	.st6{fill:#FDE1D9;}
	.st7{fill:#B4ECFB;}
	.st8{fill:#D8F5DF;}
	.st9{fill:#6ADAF7;}
	.st10{fill:#F89D81;}
	.st11{fill-rule:evenodd;clip-rule:evenodd;fill:#FFD886;}
	.st12{fill-rule:evenodd;clip-rule:evenodd;fill:#FFF6D9;}
	.st13{fill-rule:evenodd;clip-rule:evenodd;fill:#7DDF96;}
	.st14{fill-rule:evenodd;clip-rule:evenodd;fill:#CBF2D5;}
</style>
<g>
	<g>
		<g>
			<path class="st0" d="M94,297c-7.17,0-13-5.83-13-13V104c0-7.17,5.83-13,13-13h200c7.17,0,13,5.83,13,13v180c0,7.17-5.83,13-13,13
				H94z"/>
		</g>
		<g>
			<path class="st1" d="M294,94c5.52,0,10,4.48,10,10v180c0,5.52-4.48,10-10,10H94c-5.52,0-10-4.48-10-10V104c0-5.52,4.48-10,10-10
				H294 M294,88H94c-8.82,0-16,7.18-16,16v180c0,8.82,7.18,16,16,16h200c8.82,0,16-7.18,16-16V104C310,95.18,302.82,88,294,88
				L294,88z"/>
		</g>
	</g>
	<g>
		<g>
			<path class="st2" d="M84,125c-1.66,0-3-1.34-3-3v-18c0-7.17,5.83-13,13-13h200c7.17,0,13,5.83,13,13v18c0,1.66-1.34,3-3,3H84z"/>
		</g>
		<g>
			<path class="st1" d="M294,94c5.52,0,10,4.48,10,10v18H84v-18c0-5.52,4.48-10,10-10H294 M294,88H94c-8.82,0-16,7.18-16,16v18
				c0,3.31,2.69,6,6,6h220c3.31,0,6-2.69,6-6v-18C310,95.18,302.82,88,294,88L294,88z"/>
		</g>
	</g>
	<g>
		<g>
			<path class="st0" d="M174,115c-3.86,0-7-3.14-7-7s3.14-7,7-7h114c3.86,0,7,3.14,7,7s-3.14,7-7,7H174z"/>
		</g>
		<g>
			<g>
				<path class="st1" d="M288,104c2.21,0,4,1.79,4,4s-1.79,4-4,4H174c-2.21,0-4-1.79-4-4s1.79-4,4-4H288 M288,98H174
					c-5.51,0-10,4.49-10,10s4.49,10,10,10h114c5.51,0,10-4.49,10-10S293.51,98,288,98L288,98z"/>
			</g>
		</g>
	</g>
	<g>
		<g>
			<circle class="st3" cx="100" cy="108" r="7"/>
		</g>
		<g>
			<g>
				<path class="st1" d="M100,104c2.21,0,4,1.79,4,4s-1.79,4-4,4s-4-1.79-4-4S97.79,104,100,104 M100,98c-5.51,0-10,4.49-10,10
					s4.49,10,10,10s10-4.49,10-10S105.51,98,100,98L100,98z"/>
			</g>
		</g>
	</g>
	<g>
		<g>
			<circle class="st4" cx="124" cy="108" r="7"/>
		</g>
		<g>
			<g>
				<path class="st1" d="M124,104c2.21,0,4,1.79,4,4s-1.79,4-4,4s-4-1.79-4-4S121.79,104,124,104 M124,98c-5.51,0-10,4.49-10,10
					s4.49,10,10,10c5.51,0,10-4.49,10-10S129.51,98,124,98L124,98z"/>
			</g>
		</g>
	</g>
	<g>
		<g>
			<circle class="st5" cx="148" cy="108" r="7"/>
		</g>
		<g>
			<g>
				<path class="st1" d="M148,104c2.21,0,4,1.79,4,4s-1.79,4-4,4s-4-1.79-4-4S145.79,104,148,104 M148,98c-5.51,0-10,4.49-10,10
					s4.49,10,10,10s10-4.49,10-10S153.51,98,148,98L148,98z"/>
			</g>
		</g>
	</g>
	<g>
		<g>
			<g>
				<g>
					<path class="st1" d="M215.5,164.6c-0.32,0-0.64-0.08-0.94-0.24c-1.89-1.02-5.21-1.02-7.11,0c-0.98,0.52-2.19,0.15-2.71-0.82
						c-0.52-0.97-0.16-2.19,0.82-2.71c3.05-1.64,7.84-1.64,10.89,0c0.97,0.52,1.34,1.73,0.82,2.71
						C216.9,164.22,216.21,164.6,215.5,164.6z"/>
				</g>
				<g>
					<g>
						<circle class="st1" cx="211" cy="153.85" r="8"/>
					</g>
					<g>
						<circle class="st0" cx="213" cy="153.85" r="2"/>
					</g>
				</g>
				<g>
					<path class="st1" d="M205.14,137.53c0.69-0.58,1.26-0.95,1.95-1.32c0.67-0.35,1.38-0.64,2.12-0.86
						c1.48-0.44,3.1-0.61,4.75-0.42c0.41,0.06,0.82,0.11,1.23,0.22c0.41,0.11,0.81,0.24,1.21,0.37c0.4,0.15,0.77,0.36,1.15,0.54
						c0.38,0.18,0.74,0.4,1.07,0.66c1.41,0.94,2.39,2.3,3.04,3.7c0.47,1.02,0.02,2.23-1,2.7c-0.58,0.27-1.22,0.24-1.75-0.02
						l-0.39-0.19c-1.05-0.52-1.87-1.06-2.74-1.36c-0.85-0.34-1.67-0.56-2.59-0.68c-0.91-0.13-1.88-0.16-2.93-0.11
						c-0.52,0.04-1.06,0.06-1.61,0.13c-0.53,0.03-1.16,0.15-1.62,0.15l-0.62,0c-1.1,0-1.99-0.9-1.99-2
						C204.44,138.44,204.72,137.9,205.14,137.53z"/>
				</g>
				<g>
					<path class="st1" d="M181.5,164.6c-0.32,0-0.64-0.08-0.94-0.24c-1.89-1.02-5.22-1.02-7.11,0c-0.97,0.52-2.19,0.16-2.71-0.82
						c-0.52-0.97-0.16-2.19,0.82-2.71c3.05-1.64,7.84-1.64,10.89,0c0.97,0.52,1.34,1.73,0.82,2.71
						C182.9,164.22,182.21,164.6,181.5,164.6z"/>
				</g>
				<g>
					<g>
						<circle class="st1" cx="177" cy="153.85" r="8"/>
					</g>
					<g>
						<circle class="st0" cx="179" cy="153.85" r="2"/>
					</g>
				</g>
				<g>
					<path class="st1" d="M180.96,141.05c-0.46,0-1.08-0.11-1.62-0.15c-0.55-0.07-1.09-0.09-1.61-0.13
						c-1.05-0.05-2.02-0.02-2.93,0.11c-0.91,0.12-1.74,0.34-2.59,0.68c-0.88,0.29-1.69,0.84-2.74,1.36l-0.38,0.19
						c-1.01,0.5-2.23,0.09-2.73-0.92c-0.28-0.57-0.27-1.22-0.03-1.76c0.64-1.4,1.63-2.76,3.04-3.7c0.33-0.26,0.69-0.49,1.07-0.66
						c0.38-0.18,0.75-0.4,1.15-0.54c0.4-0.13,0.8-0.26,1.21-0.37c0.41-0.11,0.82-0.15,1.23-0.22c1.65-0.19,3.27-0.03,4.75,0.42
						c0.74,0.21,1.45,0.51,2.12,0.86c0.69,0.37,1.26,0.73,1.95,1.32c0.84,0.72,0.94,1.98,0.22,2.81c-0.39,0.46-0.94,0.7-1.5,0.7
						L180.96,141.05z"/>
				</g>
			</g>
		</g>
		<g>
			<g>
				<circle class="st6" cx="153" cy="161.5" r="2.5"/>
			</g>
			<g>
				<circle class="st6" cx="158.5" cy="172.5" r="2.5"/>
			</g>
			<g>
				<circle class="st6" cx="147.5" cy="172.5" r="2.5"/>
			</g>
		</g>
		<g>
			<g>
				<circle class="st6" cx="235" cy="161.5" r="2.5"/>
			</g>
			<g>
				<circle class="st6" cx="240.5" cy="172.5" r="2.5"/>
			</g>
			<g>
				<circle class="st6" cx="229.5" cy="172.5" r="2.5"/>
			</g>
		</g>
		<g>
			<g>
				<g>
					<path class="st1" d="M194,193.5c-11.3,0-20.5-9.2-20.5-20.5c0-1.38,1.12-2.5,2.5-2.5h36c1.38,0,2.5,1.12,2.5,2.5
						C214.5,184.3,205.3,193.5,194,193.5z"/>
				</g>
				<g>
					<path class="st1" d="M212,173L212,173 M212,173c0,9.94-8.06,18-18,18s-18-8.06-18-18H212 M212.01,168L212.01,168H176
						c-2.76,0-5,2.24-5,5c0,12.68,10.32,23,23,23c12.62,0,22.9-10.22,23-22.82c0-0.06,0-0.12,0-0.18
						C217,170.24,214.77,168,212.01,168L212.01,168z M212,178L212,178L212,178L212,178z"/>
				</g>
			</g>
			<g>
				<g>
					<ellipse class="st3" cx="194" cy="185" rx="13.39" ry="6"/>
				</g>
			</g>
		</g>
	</g>
	<g>
		<circle class="st7" cx="200" cy="229" r="20"/>
	</g>
	<g>
		<g>
			<polygon class="st8" points="242,247 253,230 259,234 265,225 271,229 277,221 283,225 292,214 292,247 			"/>
		</g>
		<g>
			<path class="st5" d="M242,249c-0.37,0-0.75-0.1-1.08-0.32c-0.93-0.6-1.19-1.84-0.59-2.77l11-17c0.29-0.45,0.75-0.76,1.27-0.87
				c0.52-0.11,1.07,0,1.51,0.29l4.34,2.89l4.89-7.34c0.61-0.92,1.85-1.17,2.77-0.55l4.43,2.95l4.87-6.49
				c0.64-0.85,1.83-1.05,2.71-0.46l4.49,2.99l7.85-9.6c0.7-0.86,1.96-0.98,2.81-0.28c0.85,0.7,0.98,1.96,0.28,2.81l-9,11
				c-0.65,0.8-1.8,0.97-2.66,0.4l-4.43-2.95l-4.87,6.49c-0.64,0.85-1.83,1.05-2.71,0.46l-4.34-2.89l-4.89,7.34
				c-0.61,0.92-1.85,1.17-2.77,0.55l-4.31-2.88l-9.9,15.3C243.3,248.68,242.65,249,242,249z"/>
		</g>
		<g>
			<path class="st1" d="M242,243.5h-6c-0.83,0-1.5-0.67-1.5-1.5s0.67-1.5,1.5-1.5h6c0.83,0,1.5,0.67,1.5,1.5S242.83,243.5,242,243.5
				z"/>
		</g>
		<g>
			<path class="st1" d="M242,233.5h-6c-0.83,0-1.5-0.67-1.5-1.5s0.67-1.5,1.5-1.5h6c0.83,0,1.5,0.67,1.5,1.5S242.83,233.5,242,233.5
				z"/>
		</g>
		<g>
			<path class="st1" d="M242,223.5h-6c-0.83,0-1.5-0.67-1.5-1.5s0.67-1.5,1.5-1.5h6c0.83,0,1.5,0.67,1.5,1.5S242.83,223.5,242,223.5
				z"/>
		</g>
		<g>
			<path class="st1" d="M242,213.5h-6c-0.83,0-1.5-0.67-1.5-1.5s0.67-1.5,1.5-1.5h6c0.83,0,1.5,0.67,1.5,1.5S242.83,213.5,242,213.5
				z"/>
		</g>
		<g>
			<path class="st1" d="M287,254.5c-0.83,0-1.5-0.67-1.5-1.5v-6c0-0.83,0.67-1.5,1.5-1.5s1.5,0.67,1.5,1.5v6
				C288.5,253.83,287.83,254.5,287,254.5z"/>
		</g>
		<g>
			<path class="st1" d="M277,254.5c-0.83,0-1.5-0.67-1.5-1.5v-6c0-0.83,0.67-1.5,1.5-1.5s1.5,0.67,1.5,1.5v6
				C278.5,253.83,277.83,254.5,277,254.5z"/>
		</g>
		<g>
			<path class="st1" d="M267,254.5c-0.83,0-1.5-0.67-1.5-1.5v-6c0-0.83,0.67-1.5,1.5-1.5s1.5,0.67,1.5,1.5v6
				C268.5,253.83,267.83,254.5,267,254.5z"/>
		</g>
		<g>
			<path class="st1" d="M257,254.5c-0.83,0-1.5-0.67-1.5-1.5v-6c0-0.83,0.67-1.5,1.5-1.5s1.5,0.67,1.5,1.5v6
				C258.5,253.83,257.83,254.5,257,254.5z"/>
		</g>
		<g>
			<path class="st1" d="M247,254.5c-0.83,0-1.5-0.67-1.5-1.5v-6c0-0.83,0.67-1.5,1.5-1.5s1.5,0.67,1.5,1.5v6
				C248.5,253.83,247.83,254.5,247,254.5z"/>
		</g>
		<g>
			<path class="st1" d="M292,249h-50c-1.1,0-2-0.9-2-2v-40c0-1.1,0.9-2,2-2s2,0.9,2,2v38h48c1.1,0,2,0.9,2,2S293.1,249,292,249z"/>
		</g>
		<g>
			<path class="st1" d="M288,267h-36c-1.1,0-2-0.9-2-2l0,0c0-1.1,0.9-2,2-2h36c1.1,0,2,0.9,2,2l0,0C290,266.1,289.1,267,288,267z"/>
		</g>
		<g>
			<circle class="st5" cx="243" cy="265" r="3"/>
		</g>
		<g>
			<path class="st1" d="M274,275h-22c-1.1,0-2-0.9-2-2l0,0c0-1.1,0.9-2,2-2h22c1.1,0,2,0.9,2,2l0,0C276,274.1,275.1,275,274,275z"/>
		</g>
	</g>
	<g>
		<path class="st1" d="M220,267h-30c-1.1,0-2-0.9-2-2l0,0c0-1.1,0.9-2,2-2h30c1.1,0,2,0.9,2,2l0,0C222,266.1,221.1,267,220,267z"/>
	</g>
	<g>
		<circle class="st9" cx="181" cy="265" r="3"/>
	</g>
	<g>
		<path class="st1" d="M210,275h-20c-1.1,0-2-0.9-2-2l0,0c0-1.1,0.9-2,2-2h20c1.1,0,2,0.9,2,2l0,0C212,274.1,211.1,275,210,275z"/>
	</g>
	<g>
		<circle class="st7" cx="181" cy="273" r="3"/>
	</g>
	<g>
		<g>
			<path class="st1" d="M101,237.5h-6c-0.83,0-1.5-0.67-1.5-1.5s0.67-1.5,1.5-1.5h6c0.83,0,1.5,0.67,1.5,1.5S101.83,237.5,101,237.5
				z"/>
		</g>
		<g>
			<path class="st1" d="M101,225.5h-6c-0.83,0-1.5-0.67-1.5-1.5s0.67-1.5,1.5-1.5h6c0.83,0,1.5,0.67,1.5,1.5S101.83,225.5,101,225.5
				z"/>
		</g>
		<g>
			<path class="st1" d="M101,213.5h-6c-0.83,0-1.5-0.67-1.5-1.5s0.67-1.5,1.5-1.5h6c0.83,0,1.5,0.67,1.5,1.5S101.83,213.5,101,213.5
				z"/>
		</g>
		<g>
			<path class="st1" d="M127,254.5c-0.83,0-1.5-0.67-1.5-1.5v-6c0-0.83,0.67-1.5,1.5-1.5s1.5,0.67,1.5,1.5v6
				C128.5,253.83,127.83,254.5,127,254.5z"/>
		</g>
		<g>
			<path class="st1" d="M112,254.5c-0.83,0-1.5-0.67-1.5-1.5v-6c0-0.83,0.67-1.5,1.5-1.5s1.5,0.67,1.5,1.5v6
				C113.5,253.83,112.83,254.5,112,254.5z"/>
		</g>
		<g>
			<path class="st1" d="M147,267h-36c-1.1,0-2-0.9-2-2l0,0c0-1.1,0.9-2,2-2h36c1.1,0,2,0.9,2,2l0,0C149,266.1,148.1,267,147,267z"/>
		</g>
		<g>
			<circle class="st4" cx="102" cy="265" r="3"/>
		</g>
		<g>
			<path class="st1" d="M127,275h-16c-1.1,0-2-0.9-2-2l0,0c0-1.1,0.9-2,2-2h16c1.1,0,2,0.9,2,2l0,0C129,274.1,128.1,275,127,275z"/>
		</g>
		<g>
			<circle class="st10" cx="102" cy="273" r="3"/>
		</g>
		<g>
			<rect x="106" y="223" class="st4" width="6" height="24"/>
		</g>
		<g>
			<rect x="112" y="211" class="st10" width="6" height="36"/>
		</g>
		<g>
			<rect x="121" y="217" class="st4" width="6" height="30"/>
		</g>
		<g>
			<rect x="127" y="231" class="st10" width="6" height="16"/>
		</g>
		<g>
			<path class="st1" d="M142,254.5c-0.83,0-1.5-0.67-1.5-1.5v-6c0-0.83,0.67-1.5,1.5-1.5s1.5,0.67,1.5,1.5v6
				C143.5,253.83,142.83,254.5,142,254.5z"/>
		</g>
		<g>
			<rect x="136" y="225" class="st4" width="6" height="22"/>
		</g>
		<g>
			<rect x="142" y="221" class="st10" width="6" height="26"/>
		</g>
		<g>
			<path class="st1" d="M157,254.5c-0.83,0-1.5-0.67-1.5-1.5v-6c0-0.83,0.67-1.5,1.5-1.5s1.5,0.67,1.5,1.5v6
				C158.5,253.83,157.83,254.5,157,254.5z"/>
		</g>
		<g>
			<rect x="151" y="209" class="st4" width="6" height="38"/>
		</g>
		<g>
			<rect x="157" y="215" class="st10" width="6" height="32"/>
		</g>
		<g>
			<path class="st1" d="M166,249h-65c-1.1,0-2-0.9-2-2v-40c0-1.1,0.9-2,2-2s2,0.9,2,2v38h63c1.1,0,2,0.9,2,2S167.1,249,166,249z"/>
		</g>
	</g>
	<g>
		<path class="st9" d="M200,206v23h23C223,216.3,212.7,206,200,206z"/>
	</g>
</g>
<g>
	<g>
		<g>
			<path class="st11" d="M328,131c-1.66,0-3-1.34-3-3v-24c0-4.96,4.04-9,9-9h27V73h-30v9c0,1.66-1.34,3-3,3h-12c-1.66,0-3-1.34-3-3
				V64c0-4.96,4.04-9,9-9h48c4.96,0,9,4.04,9,9v40c0,4.96-4.04,9-9,9h-27v15c0,1.66-1.34,3-3,3H328z"/>
		</g>
		<g>
			<path class="st1" d="M370,58c3.31,0,6,2.69,6,6v40c0,3.31-2.69,6-6,6h-30v18h-12v-24c0-3.31,2.69-6,6-6h30V70h-36v12h-12V64
				c0-3.31,2.69-6,6-6H370 M370,52h-48c-6.62,0-12,5.38-12,12v18c0,3.31,2.69,6,6,6h12c3.31,0,6-2.69,6-6v-6h24v16h-24
				c-6.62,0-12,5.38-12,12v24c0,3.31,2.69,6,6,6h12c3.31,0,6-2.69,6-6v-12h24c6.62,0,12-5.38,12-12V64C382,57.38,376.62,52,370,52
				L370,52z"/>
		</g>
	</g>
	<g>
		<path class="st12" d="M373,61h-54c-1.66,0-3,1.34-3,3c0-3.31,2.69-6,6-6h48c3.31,0,6,2.69,6,6C376,62.34,374.66,61,373,61z"/>
	</g>
	<g>
		<path class="st12" d="M364,101h-33c-1.66,0-3,1.34-3,3c0-3.31,2.69-6,6-6h30V101z"/>
	</g>
	<g>
		<g>
			<path class="st11" d="M328,161c-1.66,0-3-1.34-3-3v-12c0-1.66,1.34-3,3-3h12c1.66,0,3,1.34,3,3v12c0,1.66-1.34,3-3,3H328z"/>
		</g>
		<g>
			<g>
				<path class="st1" d="M340,146v12h-12v-12H340 M340,140h-12c-3.31,0-6,2.69-6,6v12c0,3.31,2.69,6,6,6h12c3.31,0,6-2.69,6-6v-12
					C346,142.69,343.31,140,340,140L340,140z"/>
			</g>
		</g>
	</g>
	<g>
		<rect x="328" y="146" class="st12" width="12" height="3"/>
	</g>
</g>
<g>
	<g>
		<g>
			<path class="st13" d="M39,327c-1.66,0-3-1.34-3-3v-24c0-4.96,4.04-9,9-9h27v-22H42v9c0,1.66-1.34,3-3,3H27c-1.66,0-3-1.34-3-3
				v-18c0-4.96,4.04-9,9-9h48c4.96,0,9,4.04,9,9v40c0,4.96-4.04,9-9,9H54v15c0,1.66-1.34,3-3,3H39z"/>
		</g>
		<g>
			<path class="st1" d="M81,254c3.31,0,6,2.69,6,6v40c0,3.31-2.69,6-6,6H51v18H39v-24c0-3.31,2.69-6,6-6h30v-28H39v12H27v-18
				c0-3.31,2.69-6,6-6H81 M81,248H33c-6.62,0-12,5.38-12,12v18c0,3.31,2.69,6,6,6h12c3.31,0,6-2.69,6-6v-6h24v16H45
				c-6.62,0-12,5.38-12,12v24c0,3.31,2.69,6,6,6h12c3.31,0,6-2.69,6-6v-12h24c6.62,0,12-5.38,12-12v-40C93,253.38,87.62,248,81,248
				L81,248z"/>
		</g>
	</g>
	<g>
		<path class="st14" d="M84,257H30c-1.66,0-3,1.34-3,3c0-3.31,2.69-6,6-6h48c3.31,0,6,2.69,6,6C87,258.34,85.66,257,84,257z"/>
	</g>
	<g>
		<path class="st14" d="M75,297H42c-1.66,0-3,1.34-3,3c0-3.31,2.69-6,6-6h30V297z"/>
	</g>
	<g>
		<g>
			<path class="st13" d="M39,357c-1.66,0-3-1.34-3-3v-12c0-1.66,1.34-3,3-3h12c1.66,0,3,1.34,3,3v12c0,1.66-1.34,3-3,3H39z"/>
		</g>
		<g>
			<g>
				<path class="st1" d="M51,342v12H39v-12H51 M51,336H39c-3.31,0-6,2.69-6,6v12c0,3.31,2.69,6,6,6h12c3.31,0,6-2.69,6-6v-12
					C57,338.69,54.31,336,51,336L51,336z"/>
			</g>
		</g>
	</g>
	<g>
		<rect x="39" y="342" class="st14" width="12" height="3"/>
	</g>
</g>
<path class="st1" d="M373.4,150.4c-2.65,0-4.8-2.15-4.8-4.8c0-0.88-0.72-1.6-1.6-1.6c-0.88,0-1.6,0.72-1.6,1.6
	c0,2.65-2.15,4.8-4.8,4.8c-0.88,0-1.6,0.72-1.6,1.6s0.72,1.6,1.6,1.6c2.65,0,4.8,2.15,4.8,4.8c0,0.88,0.72,1.6,1.6,1.6
	c0.88,0,1.6-0.72,1.6-1.6c0-2.65,2.15-4.8,4.8-4.8c0.88,0,1.6-0.72,1.6-1.6S374.28,150.4,373.4,150.4z"/>
<path class="st1" d="M92.6,73.6c-2.32,0-4.2-1.88-4.2-4.2c0-0.77-0.63-1.4-1.4-1.4c-0.77,0-1.4,0.63-1.4,1.4
	c0,2.32-1.88,4.2-4.2,4.2c-0.77,0-1.4,0.63-1.4,1.4s0.63,1.4,1.4,1.4c2.32,0,4.2,1.88,4.2,4.2c0,0.77,0.63,1.4,1.4,1.4
	c0.77,0,1.4-0.63,1.4-1.4c0-2.32,1.88-4.2,4.2-4.2c0.77,0,1.4-0.63,1.4-1.4S93.37,73.6,92.6,73.6z"/>
<path class="st1" d="M26.6,235.6c-2.32,0-4.2-1.88-4.2-4.2c0-0.77-0.63-1.4-1.4-1.4c-0.77,0-1.4,0.63-1.4,1.4
	c0,2.32-1.88,4.2-4.2,4.2c-0.77,0-1.4,0.63-1.4,1.4s0.63,1.4,1.4,1.4c2.32,0,4.2,1.88,4.2,4.2c0,0.77,0.63,1.4,1.4,1.4
	c0.77,0,1.4-0.63,1.4-1.4c0-2.32,1.88-4.2,4.2-4.2c0.77,0,1.4-0.63,1.4-1.4S27.37,235.6,26.6,235.6z"/>
<path class="st1" d="M345.8,178.8c-1.99,0-3.6-1.61-3.6-3.6c0-0.66-0.54-1.2-1.2-1.2c-0.66,0-1.2,0.54-1.2,1.2
	c0,1.99-1.61,3.6-3.6,3.6c-0.66,0-1.2,0.54-1.2,1.2s0.54,1.2,1.2,1.2c1.99,0,3.6,1.61,3.6,3.6c0,0.66,0.54,1.2,1.2,1.2
	c0.66,0,1.2-0.54,1.2-1.2c0-1.99,1.61-3.6,3.6-3.6c0.66,0,1.2-0.54,1.2-1.2S346.46,178.8,345.8,178.8z"/>
<path class="st1" d="M290.4,316.4c-2.65,0-4.8-2.15-4.8-4.8c0-0.88-0.72-1.6-1.6-1.6c-0.88,0-1.6,0.72-1.6,1.6
	c0,2.65-2.15,4.8-4.8,4.8c-0.88,0-1.6,0.72-1.6,1.6s0.72,1.6,1.6,1.6c2.65,0,4.8,2.15,4.8,4.8c0,0.88,0.72,1.6,1.6,1.6
	c0.88,0,1.6-0.72,1.6-1.6c0-2.65,2.15-4.8,4.8-4.8c0.88,0,1.6-0.72,1.6-1.6S291.28,316.4,290.4,316.4z"/>
<path class="st1" d="M330.8,283.8c-1.99,0-3.6-1.61-3.6-3.6c0-0.66-0.54-1.2-1.2-1.2c-0.66,0-1.2,0.54-1.2,1.2
	c0,1.99-1.61,3.6-3.6,3.6c-0.66,0-1.2,0.54-1.2,1.2s0.54,1.2,1.2,1.2c1.99,0,3.6,1.61,3.6,3.6c0,0.66,0.54,1.2,1.2,1.2
	c0.66,0,1.2-0.54,1.2-1.2c0-1.99,1.61-3.6,3.6-3.6c0.66,0,1.2-0.54,1.2-1.2S331.46,283.8,330.8,283.8z"/>
<path class="st1" d="M70,99c-1.65,0-3-1.35-3-3c0-0.55-0.45-1-1-1c-0.55,0-1,0.45-1,1c0,1.65-1.35,3-3,3c-0.55,0-1,0.45-1,1
	s0.45,1,1,1c1.65,0,3,1.35,3,3c0,0.55,0.45,1,1,1c0.55,0,1-0.45,1-1c0-1.65,1.35-3,3-3c0.55,0,1-0.45,1-1S70.55,99,70,99z"/>
<path class="st1" d="M84.8,326.8c-1.99,0-3.6-1.61-3.6-3.6c0-0.66-0.54-1.2-1.2-1.2c-0.66,0-1.2,0.54-1.2,1.2
	c0,1.99-1.61,3.6-3.6,3.6c-0.66,0-1.2,0.54-1.2,1.2s0.54,1.2,1.2,1.2c1.99,0,3.6,1.61,3.6,3.6c0,0.66,0.54,1.2,1.2,1.2
	c0.66,0,1.2-0.54,1.2-1.2c0-1.99,1.61-3.6,3.6-3.6c0.66,0,1.2-0.54,1.2-1.2S85.46,326.8,84.8,326.8z"/>
</svg>
