<?xml version="1.0" encoding="utf-8"?>
<!-- Generator: Adobe Illustrator 25.4.1, SVG Export Plug-In . SVG Version: 6.00 Build 0)  -->
<svg version="1.1" id="Facebook_x5F_Hub-Campaign_x5F_Budget_x5F_Optimization"
	 xmlns="http://www.w3.org/2000/svg" xmlns:xlink="http://www.w3.org/1999/xlink" x="0px" y="0px" viewBox="0 0 400 400"
	 style="enable-background:new 0 0 400 400;" xml:space="preserve">
<style type="text/css">
	.st0{fill:none;}
	.st1{fill:#75A5C3;}
	.st2{fill:#515979;}
	.st3{fill:#5F87A5;}
	.st4{fill:#508CB4;}
	.st5{fill:#7DDF96;}
	.st6{fill:#00C853;}
	.st7{fill:#F8D886;}
	.st8{fill:#FBB040;}
	.st9{fill:#9FC0D5;}
	.st10{fill:#FFD886;}
</style>
<g>
	<rect class="st0" width="400" height="400"/>
</g>
<g>
	<g>
		<path class="st1" d="M134,366c-1.66,0-3-1.34-3-3v-2c0-7.17,5.83-13,13-13h112c7.17,0,13,5.83,13,13v2c0,1.66-1.34,3-3,3H134z"/>
	</g>
	<g>
		<g>
			<path class="st2" d="M256,351c5.52,0,10,4.48,10,10v2H134v-2c0-5.52,4.48-10,10-10H256 M256,345H144c-8.82,0-16,7.18-16,16v2
				c0,3.31,2.69,6,6,6h132c3.31,0,6-2.69,6-6v-2C272,352.18,264.82,345,256,345L256,345z"/>
		</g>
	</g>
</g>
<g>
	<g>
		<path class="st1" d="M158,348c-1.66,0-3-1.34-3-3c0-4.96,4.04-9,9-9h72c4.96,0,9,4.04,9,9c0,1.66-1.34,3-3,3H158z"/>
	</g>
	<g>
		<g>
			<path class="st2" d="M236,339c3.31,0,6,2.69,6,6h-84c0-3.31,2.69-6,6-6H236 M236,333h-72c-6.62,0-12,5.38-12,12
				c0,3.31,2.69,6,6,6h84c3.31,0,6-2.69,6-6C248,338.38,242.62,333,236,333L236,333z"/>
		</g>
	</g>
</g>
<g>
	<g>
		<path class="st1" d="M194,78c-1.66,0-3-1.34-3-3c0-4.96,4.04-9,9-9c4.96,0,9,4.04,9,9c0,1.66-1.34,3-3,3H194z"/>
	</g>
	<g>
		<g>
			<path class="st2" d="M200,69c3.31,0,6,2.69,6,6h-12C194,71.69,196.69,69,200,69L200,69 M200,63c-6.62,0-12,5.38-12,12
				c0,3.31,2.69,6,6,6h12c3.31,0,6-2.69,6-6C212,68.38,206.62,63,200,63L200,63z"/>
		</g>
	</g>
</g>
<g>
	<g>
		<path class="st1" d="M191,90c-3.31,0-6-2.69-6-6s2.69-6,6-6h18c3.31,0,6,2.69,6,6s-2.69,6-6,6H191z"/>
	</g>
	<g>
		<g>
			<path class="st2" d="M209,81c1.66,0,3,1.34,3,3s-1.34,3-3,3h-18c-1.66,0-3-1.34-3-3s1.34-3,3-3H209 M209,75h-18
				c-4.96,0-9,4.04-9,9s4.04,9,9,9h18c4.96,0,9-4.04,9-9S213.96,75,209,75L209,75z"/>
		</g>
	</g>
</g>
<g>
	<g>
		<path class="st1" d="M196,324c-1.66,0-3-1.34-3-3V93c0-1.66,1.34-3,3-3h8c1.66,0,3,1.34,3,3v228c0,1.66-1.34,3-3,3H196z"/>
	</g>
	<g>
		<g>
			<path class="st2" d="M204,93v228h-8V93H204 M204,87h-8c-3.31,0-6,2.69-6,6v228c0,3.31,2.69,6,6,6h8c3.31,0,6-2.69,6-6V93
				C210,89.69,207.31,87,204,87L204,87z"/>
		</g>
	</g>
</g>
<g>
	<path class="st3" d="M200,129c-1.37,0-2.71,0.14-4,0.4v39.2c1.29,0.26,2.63,0.4,4,0.4s2.71-0.14,4-0.4v-39.2
		C202.71,129.14,201.37,129,200,129z"/>
</g>
<g>
	<rect x="196" y="93" class="st4" width="8" height="6"/>
</g>
<g>
	<g>
		<path class="st1" d="M200,66c-9.93,0-18-8.07-18-18s8.07-18,18-18c9.92,0,18,8.07,18,18S209.92,66,200,66z M200,42
			c-3.31,0-6,2.69-6,6s2.69,6,6,6s6-2.69,6-6S203.31,42,200,42z"/>
	</g>
	<g>
		<path class="st2" d="M200,33c8.28,0,15,6.72,15,15c0,8.28-6.72,15-15,15c-8.28,0-15-6.72-15-15C185,39.72,191.72,33,200,33
			 M200,57c4.97,0,9-4.03,9-9c0-4.97-4.03-9-9-9s-9,4.03-9,9C191,52.97,195.03,57,200,57 M200,27c-11.58,0-21,9.42-21,21
			s9.42,21,21,21s21-9.42,21-21S211.58,27,200,27L200,27z M200,51c-1.65,0-3-1.35-3-3s1.35-3,3-3s3,1.35,3,3S201.65,51,200,51
			L200,51z"/>
	</g>
</g>
<g>
	<g>
		<path class="st1" d="M182,336c-1.66,0-3-1.34-3-3c0-4.96,4.04-9,9-9h24c4.96,0,9,4.04,9,9c0,1.66-1.34,3-3,3H182z"/>
	</g>
	<g>
		<g>
			<path class="st2" d="M212,327c3.31,0,6,2.69,6,6h-36c0-3.31,2.69-6,6-6H212 M212,321h-24c-6.62,0-12,5.38-12,12
				c0,3.31,2.69,6,6,6h36c3.31,0,6-2.69,6-6C224,326.38,218.62,321,212,321L212,321z"/>
		</g>
	</g>
</g>
<g>
	<g>
		<path class="st1" d="M77.33,169.87c-2.71,0-5.09-1.83-5.79-4.45c-0.86-3.2,1.05-6.49,4.24-7.35l245.35-65.74
			c0.51-0.14,1.03-0.21,1.55-0.21c2.71,0,5.09,1.83,5.79,4.45c0.86,3.2-1.05,6.49-4.24,7.35L78.88,169.67
			C78.37,169.8,77.85,169.87,77.33,169.87z"/>
	</g>
	<g>
		<path class="st2" d="M322.67,95.13c1.32,0,2.54,0.88,2.9,2.22c0.43,1.6-0.52,3.25-2.12,3.67L78.1,166.77
			c-0.26,0.07-0.52,0.1-0.78,0.1c-1.32,0-2.54-0.88-2.9-2.22v0c-0.43-1.6,0.52-3.25,2.12-3.67L321.9,95.23
			C322.16,95.16,322.42,95.13,322.67,95.13 M322.67,89.13c-0.79,0-1.57,0.1-2.33,0.31L75,155.18c-2.32,0.62-4.26,2.11-5.46,4.19
			c-1.2,2.08-1.52,4.51-0.9,6.83c1.05,3.93,4.63,6.67,8.69,6.67c0.79,0,1.57-0.1,2.33-0.31L325,106.82
			c4.79-1.28,7.65-6.23,6.36-11.02C330.31,91.87,326.74,89.13,322.67,89.13L322.67,89.13z"/>
	</g>
</g>
<g>
	<path class="st2" d="M168,310c-1.05,0-2.07-0.56-2.62-1.54L90,173.16l-75.38,135.3c-0.81,1.45-2.64,1.96-4.08,1.16
		c-1.45-0.81-1.97-2.63-1.16-4.08l78-140c0.53-0.95,1.53-1.54,2.62-1.54s2.09,0.59,2.62,1.54l78,140c0.81,1.45,0.29,3.27-1.16,4.08
		C169,309.88,168.5,310,168,310z"/>
</g>
<g>
	<g>
		<g>
			<path class="st5" d="M57,292c-1.66,0-3-1.34-3-3v-32c0-1.66,1.34-3,3-3h68c1.66,0,3,1.34,3,3v32c0,1.66-1.34,3-3,3H57z"/>
		</g>
		<g>
			<path class="st2" d="M57,257h68v32l-68,0V257 M57,251c-1.59,0-3.12,0.63-4.24,1.76C51.63,253.88,51,255.41,51,257v32
				c0,3.31,2.69,6,6,6l68,0c1.59,0,3.12-0.63,4.24-1.76c1.13-1.13,1.76-2.65,1.76-4.24v-32c0-3.31-2.69-6-6-6L57,251L57,251z"/>
		</g>
	</g>
	<g>
		<g>
			<path class="st6" d="M122,280v-14c-3.31,0-6-2.69-6-6v0H66v0c0,3.31-2.69,6-6,6h0v14h0c3.31,0,6,2.69,6,6h50
				C116,282.69,118.69,280,122,280z"/>
		</g>
	</g>
	<g>
		<path class="st5" d="M113,277.5c-2.21,0-4-2.01-4-4.5s1.79-4.5,4-4.5c2.21,0,4,2.01,4,4.5S115.21,277.5,113,277.5z"/>
	</g>
	<g>
		<path class="st5" d="M91,289c-7.18,0-13-7.16-13-16c0-8.84,5.82-16,13-16c7.18,0,13,7.16,13,16C104,281.84,98.18,289,91,289z"/>
	</g>
	<g>
		<path class="st5" d="M69,277.5c-2.21,0-4-2.01-4-4.5s1.79-4.5,4-4.5c2.21,0,4,2.01,4,4.5S71.21,277.5,69,277.5z"/>
	</g>
	<g>
		<g>
			<path class="st6" d="M93.27,275.65c0-0.81-0.79-1.07-2.39-1.24c-2.78-0.32-5.01-0.87-5.17-4.21c0-2.13,1.36-3.59,3.87-3.99v-1.56
				h3.04v1.56c1.64,0.28,2.8,1.16,3.49,2.63c0.04,0.06,0.06,0.1,0.08,0.16l0.2,0.45l-2.96,1.34l-0.3-0.59
				c-0.41-0.79-0.93-1.18-2.05-1.18c-1.44,0-2.05,0.3-2.05,1.18c0,0.75,0.85,1.03,2.41,1.2c2.68,0.28,5.11,0.89,5.11,4.2
				c0,2.17-1.42,3.67-3.93,4.13v1.62h-3.04l0-1.58c-1.99-0.3-3.28-1.3-3.91-2.96l-0.22-0.61l3.04-1.07l0.24,0.59
				c0.32,0.83,1.07,1.24,2.23,1.24C92.5,276.95,93.27,276.53,93.27,275.65z"/>
		</g>
	</g>
</g>
<g>
	<g>
		<g>
			<path class="st5" d="M45,304c-1.66,0-3-1.34-3-3v-32c0-1.66,1.34-3,3-3h68c1.66,0,3,1.34,3,3v32c0,1.66-1.34,3-3,3H45z"/>
		</g>
		<g>
			<path class="st2" d="M45,269h68v32l-68,0V269 M45,263c-1.59,0-3.12,0.63-4.24,1.76S39,267.41,39,269v32c0,3.31,2.69,6,6,6l68,0
				c1.59,0,3.12-0.63,4.24-1.76c1.13-1.13,1.76-2.65,1.76-4.24v-32c0-3.31-2.69-6-6-6H45L45,263z"/>
		</g>
	</g>
	<g>
		<g>
			<path class="st6" d="M110,292v-14c-3.31,0-6-2.69-6-6v0H54v0c0,3.31-2.69,6-6,6h0v14h0c3.31,0,6,2.69,6,6h50
				C104,294.69,106.69,292,110,292z"/>
		</g>
	</g>
	<g>
		<path class="st5" d="M101,289.5c-2.21,0-4-2.01-4-4.5s1.79-4.5,4-4.5c2.21,0,4,2.01,4,4.5S103.21,289.5,101,289.5z"/>
	</g>
	<g>
		<path class="st5" d="M79,301c-7.18,0-13-7.16-13-16c0-8.84,5.82-16,13-16c7.18,0,13,7.16,13,16C92,293.84,86.18,301,79,301z"/>
	</g>
	<g>
		<path class="st5" d="M57,289.5c-2.21,0-4-2.01-4-4.5s1.79-4.5,4-4.5c2.21,0,4,2.01,4,4.5S59.21,289.5,57,289.5z"/>
	</g>
	<g>
		<g>
			<path class="st6" d="M81.27,287.65c0-0.81-0.79-1.07-2.39-1.24c-2.78-0.32-5.01-0.87-5.17-4.21c0-2.13,1.36-3.59,3.87-3.99v-1.56
				h3.04v1.56c1.64,0.28,2.8,1.16,3.49,2.63c0.04,0.06,0.06,0.1,0.08,0.16l0.2,0.45l-2.96,1.34l-0.3-0.59
				c-0.41-0.79-0.93-1.18-2.05-1.18c-1.44,0-2.05,0.3-2.05,1.18c0,0.75,0.85,1.03,2.41,1.2c2.68,0.28,5.11,0.89,5.11,4.2
				c0,2.17-1.42,3.67-3.93,4.13v1.62h-3.04l0-1.58c-1.99-0.3-3.28-1.3-3.91-2.96l-0.22-0.61l3.04-1.07l0.24,0.59
				c0.32,0.83,1.07,1.24,2.23,1.24C80.5,288.95,81.27,288.53,81.27,287.65z"/>
		</g>
	</g>
</g>
<g>
	<g>
		<g>
			<path class="st7" d="M107,304c-1.66,0-3-1.34-3-3v-6c0-1.66,1.34-3,3-3h30c1.66,0,3,1.34,3,3v6c0,1.66-1.34,3-3,3H107z"/>
		</g>
		<g>
			<path class="st2" d="M137,295v6h-30v-6H137 M137,289h-30c-3.31,0-6,2.69-6,6v6c0,3.31,2.69,6,6,6h30c3.31,0,6-2.69,6-6v-6
				C143,291.69,140.31,289,137,289L137,289z"/>
		</g>
	</g>
	<g>
		<line class="st8" x1="116" y1="295" x2="116" y2="301"/>
		<path class="st2" d="M116,304c-1.66,0-3-1.34-3-3v-6c0-1.66,1.34-3,3-3s3,1.34,3,3v6C119,302.66,117.66,304,116,304z"/>
	</g>
	<g>
		<line class="st8" x1="128" y1="295" x2="128" y2="301"/>
		<path class="st2" d="M128,304c-1.66,0-3-1.34-3-3v-6c0-1.66,1.34-3,3-3s3,1.34,3,3v6C131,302.66,129.66,304,128,304z"/>
	</g>
</g>
<g>
	<g>
		<g>
			<path class="st7" d="M33,304c-1.66,0-3-1.34-3-3v-6c0-1.66,1.34-3,3-3h30c1.66,0,3,1.34,3,3v6c0,1.66-1.34,3-3,3H33z"/>
		</g>
		<g>
			<path class="st2" d="M63,295v6H33v-6H63 M63,289H33c-3.31,0-6,2.69-6,6v6c0,3.31,2.69,6,6,6h30c3.31,0,6-2.69,6-6v-6
				C69,291.69,66.31,289,63,289L63,289z"/>
		</g>
	</g>
	<g>
		<line class="st8" x1="42" y1="295" x2="42" y2="301"/>
		<path class="st2" d="M42,304c-1.66,0-3-1.34-3-3v-6c0-1.66,1.34-3,3-3s3,1.34,3,3v6C45,302.66,43.66,304,42,304z"/>
	</g>
	<g>
		<line class="st8" x1="54" y1="295" x2="54" y2="301"/>
		<path class="st2" d="M54,304c-1.66,0-3-1.34-3-3v-6c0-1.66,1.34-3,3-3s3,1.34,3,3v6C57,302.66,55.66,304,54,304z"/>
	</g>
</g>
<g>
	<g>
		<g>
			<path class="st7" d="M113,292c-1.66,0-3-1.34-3-3v-6c0-1.66,1.34-3,3-3h30c1.66,0,3,1.34,3,3v6c0,1.66-1.34,3-3,3H113z"/>
		</g>
		<g>
			<path class="st2" d="M143,283v6h-30v-6H143 M143,277h-30c-3.31,0-6,2.69-6,6v6c0,3.31,2.69,6,6,6h30c3.31,0,6-2.69,6-6v-6
				C149,279.69,146.31,277,143,277L143,277z"/>
		</g>
	</g>
	<g>
		<line class="st8" x1="122" y1="283" x2="122" y2="289"/>
		<path class="st2" d="M122,292c-1.66,0-3-1.34-3-3v-6c0-1.66,1.34-3,3-3s3,1.34,3,3v6C125,290.66,123.66,292,122,292z"/>
	</g>
	<g>
		<line class="st8" x1="134" y1="283" x2="134" y2="289"/>
		<path class="st2" d="M134,292c-1.66,0-3-1.34-3-3v-6c0-1.66,1.34-3,3-3s3,1.34,3,3v6C137,290.66,135.66,292,134,292z"/>
	</g>
</g>
<g>
	<g>
		<path class="st1" d="M18,319c-4.96,0-9-4.04-9-9v-3c0-1.66,1.34-3,3-3h156c1.66,0,3,1.34,3,3v3c0,4.96-4.04,9-9,9H18z"/>
	</g>
	<g>
		<g>
			<path class="st2" d="M168,307v3c0,3.31-2.69,6-6,6H18c-3.31,0-6-2.69-6-6v-3H168 M168,301H12c-3.31,0-6,2.69-6,6v3
				c0,6.62,5.38,12,12,12h144c6.62,0,12-5.38,12-12v-3C174,303.69,171.31,301,168,301L168,301z"/>
		</g>
	</g>
</g>
<g>
	<path class="st2" d="M388,251c-1.05,0-2.08-0.56-2.62-1.54L310,114.16l-75.38,135.3c-0.81,1.45-2.64,1.96-4.08,1.16
		c-1.45-0.81-1.97-2.63-1.16-4.08l78-140c0.53-0.95,1.53-1.54,2.62-1.54s2.09,0.59,2.62,1.54l78,140c0.81,1.45,0.29,3.27-1.16,4.08
		C389,250.88,388.5,251,388,251z"/>
</g>
<g>
	<g>
		<g>
			<path class="st5" d="M267,245c-1.66,0-3-1.34-3-3v-32c0-1.66,1.34-3,3-3h68c1.66,0,3,1.34,3,3v32c0,1.66-1.34,3-3,3H267z"/>
		</g>
		<g>
			<path class="st2" d="M267,210l68,0v32l-68,0V210 M267,204c-1.59,0-3.12,0.63-4.24,1.76c-1.13,1.13-1.76,2.65-1.76,4.24v32
				c0,3.31,2.69,6,6,6l68,0c1.59,0,3.12-0.63,4.24-1.76c1.13-1.13,1.76-2.65,1.76-4.24v-32c0-3.31-2.69-6-6-6L267,204L267,204z"/>
		</g>
	</g>
	<g>
		<g>
			<path class="st6" d="M332,233v-14c-3.31,0-6-2.69-6-6v0h-50v0c0,3.31-2.69,6-6,6h0v14h0c3.31,0,6,2.69,6,6h50
				C326,235.69,328.69,233,332,233z"/>
		</g>
	</g>
	<g>
		<path class="st5" d="M323,230.5c-2.21,0-4-2.01-4-4.5c0-2.49,1.79-4.5,4-4.5c2.21,0,4,2.01,4,4.5
			C327,228.49,325.21,230.5,323,230.5z"/>
	</g>
	<g>
		<path class="st5" d="M301,242c-7.18,0-13-7.16-13-16s5.82-16,13-16c7.18,0,13,7.16,13,16S308.18,242,301,242z"/>
	</g>
	<g>
		<path class="st5" d="M279,230.5c-2.21,0-4-2.01-4-4.5c0-2.49,1.79-4.5,4-4.5c2.21,0,4,2.01,4,4.5
			C283,228.49,281.21,230.5,279,230.5z"/>
	</g>
	<g>
		<g>
			<path class="st6" d="M303.27,228.65c0-0.81-0.79-1.07-2.39-1.24c-2.78-0.32-5.01-0.87-5.17-4.21c0-2.13,1.36-3.59,3.87-3.99
				v-1.56h3.04v1.56c1.64,0.28,2.8,1.16,3.49,2.63c0.04,0.06,0.06,0.1,0.08,0.16l0.2,0.45l-2.96,1.34l-0.3-0.59
				c-0.41-0.79-0.93-1.18-2.05-1.18c-1.44,0-2.05,0.3-2.05,1.18c0,0.75,0.85,1.03,2.41,1.2c2.68,0.28,5.11,0.89,5.11,4.2
				c0,2.17-1.42,3.67-3.93,4.13v1.62h-3.04v-1.58c-1.99-0.3-3.28-1.3-3.91-2.96l-0.22-0.61l3.04-1.07l0.24,0.59
				c0.32,0.83,1.07,1.24,2.23,1.24C302.5,229.95,303.27,229.53,303.27,228.65z"/>
		</g>
	</g>
</g>
<g>
	<g>
		<g>
			<path class="st7" d="M329,245c-1.66,0-3-1.34-3-3v-6c0-1.66,1.34-3,3-3h30c1.66,0,3,1.34,3,3v6c0,1.66-1.34,3-3,3H329z"/>
		</g>
		<g>
			<path class="st2" d="M359,236v6h-30v-6H359 M359,230h-30c-3.31,0-6,2.69-6,6v6c0,3.31,2.69,6,6,6h30c3.31,0,6-2.69,6-6v-6
				C365,232.69,362.31,230,359,230L359,230z"/>
		</g>
	</g>
	<g>
		<line class="st8" x1="338" y1="236" x2="338" y2="242"/>
		<path class="st2" d="M338,245c-1.66,0-3-1.34-3-3v-6c0-1.66,1.34-3,3-3s3,1.34,3,3v6C341,243.66,339.66,245,338,245z"/>
	</g>
	<g>
		<line class="st8" x1="350" y1="236" x2="350" y2="242"/>
		<path class="st2" d="M350,245c-1.66,0-3-1.34-3-3v-6c0-1.66,1.34-3,3-3s3,1.34,3,3v6C353,243.66,351.66,245,350,245z"/>
	</g>
</g>
<g>
	<g>
		<path class="st1" d="M241,260c-6.62,0-12-5.38-12-12c0-1.66,1.34-3,3-3h156c1.66,0,3,1.34,3,3c0,6.62-5.38,12-12,12H241z"/>
	</g>
	<g>
		<g>
			<path class="st2" d="M388,248c0,4.97-4.03,9-9,9H241c-4.97,0-9-4.03-9-9H388 M388,242H232c-3.31,0-6,2.69-6,6
				c0,8.27,6.73,15,15,15h138c8.27,0,15-6.73,15-15C394,244.69,391.31,242,388,242L388,242z M388,254L388,254L388,254L388,254z"/>
		</g>
	</g>
</g>
<g>
	<g>
		<circle class="st1" cx="200" cy="131" r="23"/>
	</g>
	<g>
		<path class="st2" d="M200,111c11.05,0,20,8.95,20,20s-8.95,20-20,20s-20-8.95-20-20S188.95,111,200,111 M200,105
			c-14.34,0-26,11.66-26,26s11.66,26,26,26s26-11.66,26-26S214.34,105,200,105L200,105z"/>
	</g>
</g>
<g>
	<path class="st9" d="M214,133c-1.1,0-2-0.9-2-2c0-6.62-5.38-12-12-12c-1.1,0-2-0.9-2-2s0.9-2,2-2c8.82,0,16,7.18,16,16
		C216,132.1,215.1,133,214,133z"/>
</g>
<g>
	<circle class="st10" cx="26" cy="197" r="3"/>
</g>
<g>
	<circle class="st10" cx="166" cy="258" r="3"/>
</g>
<path class="st10" d="M49,150h-6v-6c0-1.66-1.34-3-3-3s-3,1.34-3,3v6h-6c-1.66,0-3,1.34-3,3s1.34,3,3,3h6v6c0,1.66,1.34,3,3,3
	s3-1.34,3-3v-6h6c1.66,0,3-1.34,3-3S50.66,150,49,150z"/>
<g>
	<circle class="st10" cx="121" cy="180" r="4"/>
</g>
<g>
	<path class="st10" d="M138.2,107.2c-2.98,0-5.4-2.42-5.4-5.4c0-0.99-0.81-1.8-1.8-1.8c-0.99,0-1.8,0.81-1.8,1.8
		c0,2.98-2.42,5.4-5.4,5.4c-0.99,0-1.8,0.81-1.8,1.8s0.81,1.8,1.8,1.8c2.98,0,5.4,2.42,5.4,5.4c0,0.99,0.81,1.8,1.8,1.8
		c0.99,0,1.8-0.81,1.8-1.8c0-2.98,2.42-5.4,5.4-5.4c0.99,0,1.8-0.81,1.8-1.8S139.19,107.2,138.2,107.2z"/>
</g>
<g>
	<g>
		<path class="st10" d="M68.8,231.2c2.98,0,5.4-2.42,5.4-5.4c0-0.99,0.81-1.8,1.8-1.8s1.8,0.81,1.8,1.8c0,2.98,2.42,5.4,5.4,5.4
			c0.99,0,1.8,0.81,1.8,1.8s-0.81,1.8-1.8,1.8c-2.98,0-5.4,2.42-5.4,5.4c0,0.99-0.81,1.8-1.8,1.8s-1.8-0.81-1.8-1.8
			c0-2.98-2.42-5.4-5.4-5.4c-0.99,0-1.8-0.81-1.8-1.8S67.81,231.2,68.8,231.2z"/>
	</g>
</g>
</svg>
