<?xml version="1.0" encoding="utf-8"?>
<!-- Generator: Adobe Illustrator 26.0.2, SVG Export Plug-In . SVG Version: 6.00 Build 0)  -->
<svg version="1.1" id="email-marketing-illustration-02"
	 xmlns="http://www.w3.org/2000/svg" xmlns:xlink="http://www.w3.org/1999/xlink" x="0px" y="0px" viewBox="0 0 400 400"
	 style="enable-background:new 0 0 400 400;" xml:space="preserve">
<style type="text/css">
	.st0{fill:#FFD886;}
	.st1{fill:none;}
	.st2{fill:#D8EBFB;}
	.st3{fill:#515979;}
	.st4{fill:#ACC9DB;}
	.st5{fill:none;stroke:#515979;stroke-width:4;stroke-linecap:round;stroke-linejoin:round;stroke-miterlimit:10;}
</style>
<g>
	<g>
		<path class="st0" d="M237.47,352.53c3.53,0,6.4-2.87,6.4-6.4c0-1.18,0.96-2.13,2.13-2.13c1.18,0,2.13,0.96,2.13,2.13
			c0,3.53,2.87,6.4,6.4,6.4c1.18,0,2.13,0.96,2.13,2.13c0,1.18-0.96,2.13-2.13,2.13c-3.53,0-6.4,2.87-6.4,6.4
			c0,1.18-0.96,2.13-2.13,2.13c-1.18,0-2.13-0.96-2.13-2.13c0-3.53-2.87-6.4-6.4-6.4c-1.18,0-2.13-0.96-2.13-2.13
			C235.33,353.49,236.29,352.53,237.47,352.53z"/>
	</g>
	<g>
		<path class="st0" d="M50.8,365.87c3.53,0,6.4-2.87,6.4-6.4c0-1.18,0.96-2.13,2.13-2.13c1.18,0,2.13,0.96,2.13,2.13
			c0,3.53,2.87,6.4,6.4,6.4c1.18,0,2.13,0.96,2.13,2.13s-0.96,2.13-2.13,2.13c-3.53,0-6.4,2.87-6.4,6.4c0,1.18-0.96,2.13-2.13,2.13
			c-1.18,0-2.13-0.96-2.13-2.13c0-3.53-2.87-6.4-6.4-6.4c-1.18,0-2.13-0.96-2.13-2.13S49.62,365.87,50.8,365.87z"/>
	</g>
	<g>
		<path class="st0" d="M141.73,70.93c3.97,0,7.2-3.23,7.2-7.2c0-1.33,1.07-2.4,2.4-2.4c1.33,0,2.4,1.07,2.4,2.4
			c0,3.97,3.23,7.2,7.2,7.2c1.33,0,2.4,1.07,2.4,2.4c0,1.33-1.07,2.4-2.4,2.4c-3.97,0-7.2,3.23-7.2,7.2c0,1.33-1.07,2.4-2.4,2.4
			c-1.33,0-2.4-1.07-2.4-2.4c0-3.97-3.23-7.2-7.2-7.2c-1.33,0-2.4-1.07-2.4-2.4C139.33,72.01,140.41,70.93,141.73,70.93z"/>
	</g>
	<g>
		<path class="st0" d="M285.73,34.93c3.97,0,7.2-3.23,7.2-7.2c0-1.33,1.07-2.4,2.4-2.4c1.33,0,2.4,1.07,2.4,2.4
			c0,3.97,3.23,7.2,7.2,7.2c1.33,0,2.4,1.07,2.4,2.4c0,1.33-1.07,2.4-2.4,2.4c-3.97,0-7.2,3.23-7.2,7.2c0,1.33-1.07,2.4-2.4,2.4
			c-1.33,0-2.4-1.07-2.4-2.4c0-3.97-3.23-7.2-7.2-7.2c-1.33,0-2.4-1.07-2.4-2.4C283.33,36.01,284.41,34.93,285.73,34.93z"/>
	</g>
	<g>
		<circle class="st0" cx="311.33" cy="377.33" r="4"/>
	</g>
	<g>
		<circle class="st0" cx="134.67" cy="346" r="3.33"/>
	</g>
	<g>
		<circle class="st0" cx="10.67" cy="167.33" r="3.33"/>
	</g>
	<g>
		<circle class="st0" cx="365.33" cy="295.33" r="6"/>
	</g>
	<g>
		<circle class="st0" cx="45.33" cy="295.33" r="6"/>
	</g>
	<g>
		<circle class="st0" cx="371.33" cy="149.33" r="5.33"/>
	</g>
	<g>
		<circle class="st0" cx="384" cy="64.67" r="3.33"/>
	</g>
	<g>
		<circle class="st0" cx="257.33" cy="97.33" r="4"/>
	</g>
	<path class="st0" d="M72.67,40h-9.33v-9.33c0-2.21-1.79-4-4-4s-4,1.79-4,4V40H46c-2.21,0-4,1.79-4,4s1.79,4,4,4h9.33v9.33
		c0,2.21,1.79,4,4,4s4-1.79,4-4V48h9.33c2.21,0,4-1.79,4-4S74.88,40,72.67,40z"/>
</g>
<rect class="st1" width="400" height="400"/>
<g>
	<g>
		<g>
			<path class="st2" d="M108,270.67c-6.62,0-12-5.38-12-12V141.33c0-6.62,5.38-12,12-12h184c6.62,0,12,5.38,12,12v117.33
				c0,6.62-5.38,12-12,12H108z"/>
		</g>
		<g>
			<g>
				<path class="st3" d="M292,133.33c4.42,0,8,3.58,8,8v117.33c0,4.42-3.58,8-8,8H108c-4.42,0-8-3.58-8-8V141.33c0-4.42,3.58-8,8-8
					H292 M292,125.33H108c-8.82,0-16,7.18-16,16v117.33c0,8.82,7.18,16,16,16h184c8.82,0,16-7.18,16-16V141.33
					C308,132.51,300.82,125.33,292,125.33L292,125.33z"/>
			</g>
		</g>
	</g>
	<g>
		<g>
			<path class="st4" d="M191.56,229.97L100,133.33l0,21.7l80.38,85.74c5.27,5.62,14.19,5.62,19.45,0l7.6-8.1
				C202.29,235.35,195.77,234.45,191.56,229.97z"/>
		</g>
	</g>
	<g>
		<path class="st3" d="M200,237.84C200,237.84,200,237.84,200,237.84c-4.77,0-9.38-2-12.65-5.48l-90.27-96.29
			c-1.51-1.61-1.43-4.14,0.18-5.65c1.61-1.51,4.14-1.43,5.65,0.18l90.27,96.29c1.78,1.9,4.2,2.95,6.81,2.95
			c2.61,0,5.03-1.05,6.81-2.95l90.27-96.29c1.51-1.61,4.04-1.7,5.65-0.18c1.61,1.51,1.69,4.04,0.18,5.65l-90.27,96.29
			C209.38,235.84,204.77,237.84,200,237.84z"/>
	</g>
	<g>
		<path class="st3" d="M300,270.67c-1.1,0-2.18-0.45-2.97-1.32l-60-66.67c-1.48-1.64-1.35-4.17,0.3-5.65
			c1.64-1.48,4.17-1.34,5.65,0.3l60,66.67c1.48,1.64,1.35,4.17-0.3,5.65C301.91,270.33,300.95,270.67,300,270.67z"/>
	</g>
	<g>
		<path class="st3" d="M100,270.67c-0.95,0-1.91-0.34-2.67-1.03c-1.64-1.48-1.78-4.01-0.3-5.65l60-66.67
			c1.48-1.64,4.01-1.78,5.65-0.3c1.64,1.48,1.78,4.01,0.3,5.65l-60,66.67C102.18,270.22,101.09,270.67,100,270.67z"/>
	</g>
</g>
<g>
	<path class="st5" d="M181.33,185.99c11.15,6.77,26.74,7.32,37.33-0.06"/>
	<g>
		<g>
			<path class="st3" d="M194.43,198.11c3.6,1.05,7.54,1.15,11.13,0c1.71-0.62,3.12,1.61,1.85,2.89c0,0-0.96,1.01-0.96,1.01
				c-3.78,3.57-10.24,2.73-13.77-0.78C191.18,199.97,192.6,197.49,194.43,198.11L194.43,198.11z"/>
		</g>
	</g>
</g>
<g>
	<g>
		<g>
			<path class="st3" d="M210.69,153.49c4.5-4.49,12.43-5.04,17.33-0.89c2.17,1.78,5.9,6.42,2.12,8.36c-0.96,0.44-1.94,0.13-2.8-0.3
				c-1.24-0.6-2.27-1.38-3.48-1.85c-3.21-1.62-6.85-1.25-10.31-0.82c0,0-1.09-0.02-1.09-0.02
				C210.19,158,209.04,154.99,210.69,153.49L210.69,153.49z"/>
		</g>
		<g>
			<path class="st3" d="M186.45,157.99c-2.28-0.23-5.04-0.66-7.25-0.16c-2.36,0.37-4.41,1.66-6.54,2.83
				c-1.54,0.89-3.46,0.61-4.23-1.12c-0.3-0.7-0.28-1.47-0.01-2.13c0.77-1.85,1.93-3.55,3.55-4.82c4.03-3.46,10.44-3.66,14.88-0.98
				c1.9,1.06,4.6,3.25,2.5,5.56C188.62,158.02,187.45,158,186.45,157.99L186.45,157.99z"/>
		</g>
		<g>
			<path class="st3" d="M189.36,177.47c-1.84,0-3.33-1.49-3.33-3.33c0-1.84-1.5-3.33-3.33-3.33s-3.33,1.5-3.33,3.33
				c0,1.84-1.49,3.33-3.33,3.33c-1.84,0-3.33-1.49-3.33-3.33c0-5.51,4.49-10,10-10c5.51,0,10,4.49,10,10
				C192.7,175.98,191.2,177.47,189.36,177.47z"/>
		</g>
		<g>
			<path class="st3" d="M223.97,177.47c-1.84,0-3.33-1.49-3.33-3.33c0-1.84-1.49-3.33-3.33-3.33s-3.33,1.5-3.33,3.33
				c0,1.84-1.49,3.33-3.33,3.33c-1.84,0-3.33-1.49-3.33-3.33c0-5.51,4.49-10,10-10s10,4.49,10,10
				C227.3,175.98,225.81,177.47,223.97,177.47z"/>
		</g>
	</g>
</g>
<g>
	<g>
		<g>
			<path class="st0" d="M284,278.67c-8.63,0-16.81-2.91-23.42-8.26l-3.92,3.92c-0.76,0.76-1.79,1.17-2.83,1.17
				c-0.46,0-0.92-0.08-1.36-0.24c-1.46-0.53-2.48-1.85-2.62-3.4l-1.89-20.74c-0.11-1.18,0.32-2.35,1.15-3.19
				c0.75-0.75,1.77-1.17,2.83-1.17c0.12,0,0.24,0.01,0.36,0.02l20.74,1.89c1.55,0.14,2.87,1.16,3.4,2.62
				c0.53,1.46,0.16,3.09-0.93,4.19l-3.51,3.51c3.51,2.39,7.65,3.68,11.99,3.68c5.7,0,11.05-2.22,15.08-6.25
				c2.35-2.35,4.07-5.15,5.13-8.35c0.54-1.64,2.07-2.74,3.8-2.74l8.35,0c1.23,0,2.39,0.57,3.15,1.53c0.76,0.97,1.03,2.23,0.74,3.42
				c-1.62,6.59-5.03,12.62-9.85,17.44C303.35,274.78,293.97,278.67,284,278.67z"/>
		</g>
		<g>
			<path class="st3" d="M316.36,249.33L316.36,249.33 M316.36,249.33c-1.4,5.71-4.33,11.11-8.79,15.57
				c-6.51,6.51-15.04,9.76-23.57,9.76c-8.53,0-17.06-3.25-23.57-9.76l-6.6,6.6l-1.89-20.74l20.74,1.89l-6.6,6.6
				c4.95,4.95,11.43,7.42,17.91,7.42c6.48,0,12.97-2.47,17.91-7.42c2.88-2.88,4.9-6.29,6.1-9.91L316.36,249.33 M316.37,241.33
				L316.37,241.33C316.36,241.33,316.36,241.33,316.37,241.33l-8.36,0c-3.45,0-6.51,2.21-7.59,5.48c-0.86,2.6-2.26,4.88-4.17,6.78
				c-3.27,3.27-7.63,5.08-12.26,5.08c-1.81,0-3.57-0.27-5.25-0.8c1.87-2.18,2.44-5.21,1.46-7.94c-1.06-2.92-3.71-4.96-6.8-5.24
				l-20.74-1.89c-0.24-0.02-0.48-0.03-0.72-0.03c-2.11,0-4.15,0.84-5.66,2.34c-1.68,1.68-2.53,4.02-2.31,6.38l1.89,20.74
				c0.28,3.09,2.32,5.74,5.24,6.8c0.89,0.32,1.81,0.48,2.72,0.48c2.09,0,4.13-0.82,5.66-2.34l1.49-1.49
				c6.75,4.55,14.7,6.99,23.03,6.99c11.04,0,21.42-4.3,29.23-12.11c5.26-5.26,9-11.83,10.83-19.01c0.2-0.7,0.31-1.45,0.31-2.22
				C324.37,244.91,320.79,241.33,316.37,241.33L316.37,241.33z M316.36,257.33L316.36,257.33L316.36,257.33L316.36,257.33z"/>
		</g>
	</g>
	<g>
		<g>
			<path class="st0" d="M251.64,237.33c-1.23,0-2.39-0.57-3.15-1.53c-0.76-0.97-1.03-2.23-0.74-3.42
				c1.62-6.59,5.03-12.62,9.85-17.44c7.05-7.05,16.43-10.94,26.4-10.94c8.63,0,16.81,2.91,23.42,8.26l3.92-3.92
				c0.76-0.76,1.79-1.17,2.83-1.17c0.46,0,0.92,0.08,1.36,0.24c1.46,0.53,2.48,1.85,2.62,3.4l1.89,20.74
				c0.11,1.18-0.32,2.35-1.15,3.19c-0.75,0.75-1.77,1.17-2.83,1.17c-0.12,0-0.24-0.01-0.36-0.02L294.95,234
				c-1.55-0.14-2.87-1.16-3.4-2.62c-0.53-1.46-0.16-3.09,0.93-4.19l3.51-3.51c-3.51-2.39-7.65-3.68-11.99-3.68
				c-5.7,0-11.06,2.22-15.09,6.25c-2.35,2.35-4.07,5.15-5.13,8.35c-0.54,1.64-2.07,2.74-3.8,2.74H251.64z"/>
		</g>
		<g>
			<path class="st3" d="M284,208c8.53,0,17.06,3.25,23.57,9.76l6.6-6.6l1.89,20.74l-20.74-1.89l6.6-6.6
				c-4.95-4.95-11.43-7.42-17.91-7.42c-6.48,0-12.97,2.47-17.91,7.42c-2.88,2.88-4.9,6.29-6.1,9.91h-8.35
				c1.4-5.71,4.33-11.11,8.79-15.57C266.94,211.25,275.47,208,284,208 M284,200c-11.04,0-21.42,4.3-29.23,12.11
				c-5.34,5.34-9.11,12.01-10.9,19.31c-0.59,2.39-0.05,4.91,1.47,6.85c1.52,1.94,3.84,3.07,6.3,3.07h8.35
				c3.45,0,6.51-2.21,7.59-5.48c0.86-2.6,2.26-4.88,4.17-6.78c3.27-3.27,7.63-5.08,12.26-5.08c1.81,0,3.57,0.27,5.25,0.8
				c-1.87,2.18-2.44,5.21-1.46,7.94c1.06,2.92,3.71,4.96,6.8,5.24l20.74,1.89c0.24,0.02,0.48,0.03,0.72,0.03
				c2.11,0,4.15-0.84,5.66-2.34c1.68-1.68,2.53-4.02,2.31-6.38l-1.89-20.74c-0.28-3.09-2.33-5.74-5.24-6.8
				c-0.89-0.32-1.81-0.48-2.72-0.48c-2.09,0-4.13,0.82-5.66,2.34l-1.49,1.49C300.27,202.44,292.32,200,284,200L284,200z"/>
		</g>
	</g>
</g>
</svg>
