<?xml version="1.0" encoding="utf-8"?>
<!-- Generator: Adobe Illustrator 26.0.2, SVG Export Plug-In . SVG Version: 6.00 Build 0)  -->
<svg version="1.1" id="Google_x5F_Hub-Google_x5F_Call_x5F_Ads"
	 xmlns="http://www.w3.org/2000/svg" xmlns:xlink="http://www.w3.org/1999/xlink" x="0px" y="0px" viewBox="0 0 400 400"
	 style="enable-background:new 0 0 400 400;" xml:space="preserve">
<style type="text/css">
	.st0{fill:#747A94;}
	.st1{fill:#515979;}
	.st2{fill:#D8EBFB;}
	.st3{fill:#F3F9FE;}
	.st4{fill:#FFFFFF;}
	.st5{fill:#EF7D7D;}
	.st6{fill:#00C853;}
	.st7{fill:#2196F3;}
	.st8{fill:#FDE1D9;}
	.st9{fill:#FFD886;}
	.st10{fill:none;}
</style>
<g>
	<g>
		<g>
			<path class="st0" d="M91.69,354.32c-3.66,0-6.72-2.86-6.98-6.51l-8.82-125.69c-0.13-1.87,0.47-3.67,1.7-5.08s2.93-2.26,4.79-2.39
				l61.85-4.34c0.17-0.01,0.33-0.02,0.49-0.02c3.66,0,6.72,2.86,6.98,6.51l8.82,125.69c0.27,3.85-2.64,7.2-6.49,7.47l-61.85,4.34
				C92.02,354.31,91.85,354.32,91.69,354.32z"/>
		</g>
		<g>
			<path class="st1" d="M144.73,213.29c2.08,0,3.84,1.61,3.99,3.72l8.82,125.69c0.15,2.2-1.51,4.12-3.71,4.27l-61.85,4.34
				c-0.1,0.01-0.19,0.01-0.28,0.01c-2.08,0-3.84-1.61-3.99-3.72l-8.82-125.69c-0.15-2.2,1.51-4.12,3.71-4.27l61.85-4.34
				C144.54,213.29,144.63,213.29,144.73,213.29 M144.73,207.29c-0.23,0-0.47,0.01-0.7,0.02l-61.85,4.34
				c-5.5,0.39-9.66,5.18-9.28,10.68l8.82,125.69c0.37,5.22,4.75,9.3,9.97,9.3c0.23,0,0.47-0.01,0.7-0.02l61.85-4.34
				c5.5-0.39,9.66-5.17,9.28-10.68l-8.82-125.69C154.33,211.37,149.95,207.29,144.73,207.29L144.73,207.29z"/>
		</g>
	</g>
	<g>
		<g>
			<rect x="81.35" y="227.3" transform="matrix(0.9975 -0.07 0.07 0.9975 -19.6114 8.982)" class="st2" width="74" height="114"/>
		</g>
		<g>
			<g>
				<path class="st1" d="M149.41,226.99l7.7,109.73l-69.83,4.9l-7.7-109.73L149.41,226.99 M153.12,222.72l-3.99,0.28l-69.83,4.9
					l-3.99,0.28l0.28,3.99l7.7,109.73l0.28,3.99l3.99-0.28l69.83-4.9l3.99-0.28l-0.28-3.99l-7.7-109.73L153.12,222.72L153.12,222.72
					z"/>
			</g>
		</g>
	</g>
	<g>
		<polygon class="st3" points="111.22,339.94 95.26,341.06 107.51,229.93 123.48,228.81 		"/>
	</g>
	<g>
		<polygon class="st3" points="127.18,338.82 117.21,339.52 129.46,228.39 139.44,227.69 		"/>
	</g>
	<g>
		<path class="st1" d="M103.89,223.16c-1.04,0-1.92-0.81-1.99-1.86c-0.08-1.1,0.75-2.06,1.85-2.13l19.95-1.4
			c1.11-0.07,2.06,0.75,2.14,1.86c0.08,1.1-0.75,2.06-1.85,2.13l-19.95,1.4C103.98,223.16,103.94,223.16,103.89,223.16z"/>
	</g>
	<g>
		<path class="st1" d="M75.13,257.25c-1.56,0-2.88-1.21-2.99-2.79l-0.84-11.97c-0.12-1.65,1.13-3.09,2.78-3.2
			c1.66-0.13,3.09,1.13,3.2,2.78l0.84,11.97c0.12,1.65-1.13,3.09-2.78,3.2C75.28,257.25,75.21,257.25,75.13,257.25z"/>
	</g>
	<g>
		<path class="st1" d="M76.81,281.19c-1.56,0-2.88-1.21-2.99-2.79l-0.84-11.97c-0.12-1.65,1.13-3.09,2.78-3.2
			c1.65-0.14,3.09,1.13,3.2,2.78l0.84,11.97c0.12,1.65-1.13,3.09-2.78,3.2C76.96,281.19,76.89,281.19,76.81,281.19z"/>
	</g>
	<g>
		<path class="st1" d="M157.77,263.48c-1.56,0-2.88-1.21-2.99-2.79l-0.84-11.97c-0.12-1.65,1.13-3.09,2.78-3.2
			c1.65-0.13,3.09,1.13,3.2,2.78l0.84,11.97c0.12,1.65-1.13,3.09-2.78,3.2C157.92,263.48,157.84,263.48,157.77,263.48z"/>
	</g>
	<g>
		<g>
			<g>
				<path class="st1" d="M125.25,283.81c-0.58,0-1.14-0.34-1.38-0.91c-0.32-0.76,0.03-1.64,0.79-1.97c2.18-0.92,5.67-1.17,7.96-0.56
					c0.8,0.21,1.28,1.04,1.06,1.84c-0.21,0.8-1.04,1.27-1.84,1.06c-1.64-0.44-4.45-0.24-6.01,0.42
					C125.65,283.78,125.45,283.81,125.25,283.81z"/>
			</g>
			<g>
				<g>
					<circle class="st1" cx="128.27" cy="275.39" r="6"/>
				</g>
				<g>
					<circle class="st4" cx="129.77" cy="275.28" r="1.5"/>
				</g>
			</g>
			<g>
				<path class="st1" d="M124.2,261.81c2.89-1.93,6.56-2.11,9.7-0.7c1.87,0.8,4.61,3.52,2.15,5.29c-0.5,0.35-1.12,0.35-1.69,0.33
					c-3.36-0.18-6.45-0.78-9.62-1.97C123.42,264.35,123.04,262.62,124.2,261.81L124.2,261.81z"/>
			</g>
		</g>
		<g>
			<g>
				<path class="st1" d="M104.25,285.29c-0.58,0-1.14-0.34-1.38-0.91c-0.32-0.76,0.03-1.64,0.79-1.97c2.18-0.93,5.67-1.17,7.96-0.56
					c0.8,0.21,1.27,1.04,1.06,1.84c-0.21,0.8-1.04,1.27-1.84,1.06c-1.64-0.44-4.45-0.24-6.01,0.42
					C104.65,285.25,104.45,285.29,104.25,285.29z"/>
			</g>
			<g>
				<g>
					<circle class="st1" cx="107.27" cy="276.86" r="6"/>
				</g>
				<g>
					<circle class="st4" cx="108.77" cy="276.76" r="1.5"/>
				</g>
			</g>
			<g>
				<path class="st1" d="M109.29,265.84c-2.98,1.62-5.95,2.65-9.25,3.3c-1.32,0.35-2.72-0.28-2.93-1.72
					c0.2-3.97,5.71-5.83,9.07-5.47c1.55,0.16,4.94,0.78,3.95,3.1C109.95,265.41,109.62,265.64,109.29,265.84L109.29,265.84z"/>
			</g>
		</g>
		<g>
			<path class="st1" d="M134.88,291.38c-0.07-1.06-0.57-2.04-1.37-2.74c-0.73-0.63-1.66-0.98-2.62-0.98c-0.09,0-0.19,0-0.28,0.01
				l-23.94,1.68c-2.2,0.15-3.86,2.07-3.71,4.27c0.59,8.34,7.59,14.88,15.95,14.88c0.38,0,0.76-0.01,1.13-0.04
				c4.26-0.3,8.15-2.24,10.96-5.47C133.8,299.77,135.18,295.64,134.88,291.38z"/>
			<g>
				<g>
					
						<ellipse transform="matrix(0.9975 -0.07 0.07 0.9975 -20.7401 9.1006)" class="st5" cx="119.48" cy="300.48" rx="8.93" ry="4"/>
				</g>
			</g>
		</g>
	</g>
</g>
<g>
	<g>
		<g>
			<path class="st4" d="M214.81,190.5c-3.31,0-6-2.69-6-6v-114c0-3.31,2.69-6,6-6h114c3.31,0,6,2.69,6,6v97
				c0,0.8-0.32,1.56-0.88,2.12l-20,20c-0.56,0.56-1.33,0.88-2.12,0.88H214.81z"/>
		</g>
		<g>
			<path class="st1" d="M328.81,67.5c1.66,0,3,1.34,3,3v97l-20,20h-97c-1.66,0-3-1.34-3-3v-114c0-1.66,1.34-3,3-3H328.81
				 M328.81,61.5h-114c-4.96,0-9,4.04-9,9v114c0,4.96,4.04,9,9,9h97c1.59,0,3.12-0.63,4.24-1.76l20-20
				c1.13-1.13,1.76-2.65,1.76-4.24v-97C337.81,65.53,333.78,61.5,328.81,61.5L328.81,61.5z"/>
		</g>
	</g>
	<g>
		<path class="st6" d="M298.31,132.5h-69c-1.38,0-2.5-1.12-2.5-2.5v0c0-1.38,1.12-2.5,2.5-2.5h69c1.38,0,2.5,1.12,2.5,2.5v0
			C300.81,131.38,299.69,132.5,298.31,132.5z"/>
	</g>
	<g>
		<path class="st1" d="M284.31,152.5h-55c-1.38,0-2.5-1.12-2.5-2.5v0c0-1.38,1.12-2.5,2.5-2.5h55c1.38,0,2.5,1.12,2.5,2.5v0
			C286.81,151.38,285.69,152.5,284.31,152.5z"/>
	</g>
	<g>
		<path class="st1" d="M294.31,162.5h-65c-1.38,0-2.5-1.12-2.5-2.5v0c0-1.38,1.12-2.5,2.5-2.5h65c1.38,0,2.5,1.12,2.5,2.5v0
			C296.81,161.38,295.69,162.5,294.31,162.5z"/>
	</g>
	<g>
		<path class="st1" d="M274.31,172.5h-45c-1.38,0-2.5-1.12-2.5-2.5v0c0-1.38,1.12-2.5,2.5-2.5h45c1.38,0,2.5,1.12,2.5,2.5v0
			C276.81,171.38,275.69,172.5,274.31,172.5z"/>
	</g>
	<g>
		<path class="st7" d="M292.31,142.5h-63c-1.38,0-2.5-1.12-2.5-2.5v0c0-1.38,1.12-2.5,2.5-2.5h63c1.38,0,2.5,1.12,2.5,2.5v0
			C294.81,141.38,293.69,142.5,292.31,142.5z"/>
	</g>
	<g>
		<g>
			<path class="st2" d="M311.81,190.5c-0.39,0-0.78-0.07-1.15-0.23c-1.12-0.46-1.85-1.56-1.85-2.77v-17c0-3.31,2.69-6,6-6h17
				c1.21,0,2.31,0.73,2.77,1.85c0.46,1.12,0.21,2.41-0.65,3.27l-20,20C313.36,190.19,312.59,190.5,311.81,190.5z"/>
		</g>
		<g>
			<g>
				<path class="st1" d="M331.81,167.5l-20,20v-17c0-1.66,1.34-3,3-3H331.81 M331.81,161.5h-17c-4.96,0-9,4.04-9,9v17
					c0,2.43,1.46,4.61,3.7,5.54c0.74,0.31,1.52,0.46,2.29,0.46c1.56,0,3.1-0.61,4.24-1.76l20-20c1.72-1.72,2.23-4.3,1.3-6.54
					C336.43,162.96,334.24,161.5,331.81,161.5L331.81,161.5z M331.81,173.5L331.81,173.5L331.81,173.5L331.81,173.5z"/>
			</g>
		</g>
	</g>
	<g>
		<g>
			<g>
				<g>
					<path class="st1" d="M287.34,97.08c-1.1,0-2-0.9-2-2c0-1.65-1.35-3-3-3s-3,1.35-3,3c0,1.1-0.9,2-2,2s-2-0.9-2-2
						c0-3.86,3.14-7,7-7s7,3.14,7,7C289.34,96.19,288.44,97.08,287.34,97.08z"/>
				</g>
			</g>
			<g>
				<path class="st1" d="M279.91,79.14c3.57-2.19,8.99-1.73,11.44,1.9c0.84,1.2-0.31,2.92-1.73,2.64c-1.57-0.27-2.86-0.63-4.4-0.83
					c-1.46-0.21-3.36-0.28-4.78-0.61C278.98,81.97,278.64,79.88,279.91,79.14L279.91,79.14z"/>
			</g>
		</g>
		<g>
			<g>
				<g>
					<path class="st1" d="M266.29,97.08c-1.1,0-2-0.9-2-2c0-1.65-1.35-3-3-3s-3,1.35-3,3c0,1.1-0.9,2-2,2s-2-0.9-2-2
						c0-3.86,3.14-7,7-7s7,3.14,7,7C268.29,96.19,267.39,97.08,266.29,97.08z"/>
				</g>
			</g>
			<g>
				<path class="st1" d="M262.76,82.33c-1.25,0.24-3.08,0.34-4.36,0.52c-1.54,0.19-2.82,0.55-4.39,0.82
					c-0.94,0.16-1.83-0.47-1.98-1.41c-0.07-0.44,0.03-0.88,0.25-1.22c1.79-2.76,5.51-3.65,8.57-3.02c1.01,0.21,1.9,0.51,2.88,1.12
					C265.2,80.15,264.47,82.21,262.76,82.33L262.76,82.33z"/>
			</g>
		</g>
		<g>
			<path class="st1" d="M283.82,100.5L283.82,100.5h-24c-2.21,0-4,1.79-4,4c0,8.82,7.18,16,16,16c8.77,0,15.91-7.09,16-15.84
				c0-0.05,0-0.11,0-0.16C287.82,102.29,286.03,100.5,283.82,100.5z"/>
			<g>
				<g>
					<ellipse class="st5" cx="271.81" cy="112.5" rx="8.93" ry="4"/>
				</g>
			</g>
		</g>
	</g>
	<g>
		<g>
			<circle class="st8" cx="297.81" cy="106.5" r="2"/>
		</g>
		<g>
			<circle class="st8" cx="305.81" cy="106.5" r="2"/>
		</g>
		<g>
			<circle class="st8" cx="301.81" cy="98.5" r="2"/>
		</g>
	</g>
	<g>
		<g>
			<circle class="st8" cx="237.81" cy="106.5" r="2"/>
		</g>
		<g>
			<circle class="st8" cx="245.81" cy="106.5" r="2"/>
		</g>
		<g>
			<circle class="st8" cx="241.81" cy="98.5" r="2"/>
		</g>
	</g>
</g>
<g>
	<g>
		<g>
			<path class="st4" d="M41.66,161.5c-3.31,0-6-2.69-6-6v-114c0-3.31,2.69-6,6-6h114c3.31,0,6,2.69,6,6v97
				c0,0.8-0.32,1.56-0.88,2.12l-20,20c-0.56,0.56-1.33,0.88-2.12,0.88H41.66z"/>
		</g>
		<g>
			<path class="st1" d="M155.66,38.5c1.66,0,3,1.34,3,3v97l-20,20h-97c-1.66,0-3-1.34-3-3v-114c0-1.66,1.34-3,3-3H155.66
				 M155.66,32.5h-114c-4.96,0-9,4.04-9,9v114c0,4.96,4.04,9,9,9h97c1.59,0,3.12-0.63,4.24-1.76l20-20
				c1.13-1.13,1.76-2.65,1.76-4.24v-97C164.66,36.53,160.62,32.5,155.66,32.5L155.66,32.5z"/>
		</g>
	</g>
	<g>
		<path class="st6" d="M131.16,103.5h-75c-1.38,0-2.5-1.12-2.5-2.5v0c0-1.38,1.12-2.5,2.5-2.5h75c1.38,0,2.5,1.12,2.5,2.5v0
			C133.66,102.38,132.54,103.5,131.16,103.5z"/>
	</g>
	<g>
		<path class="st1" d="M121.16,123.5h-65c-1.38,0-2.5-1.12-2.5-2.5v0c0-1.38,1.12-2.5,2.5-2.5h65c1.38,0,2.5,1.12,2.5,2.5v0
			C123.66,122.38,122.54,123.5,121.16,123.5z"/>
	</g>
	<g>
		<path class="st1" d="M107.16,133.5h-51c-1.38,0-2.5-1.12-2.5-2.5v0c0-1.38,1.12-2.5,2.5-2.5h51c1.38,0,2.5,1.12,2.5,2.5v0
			C109.66,132.38,108.54,133.5,107.16,133.5z"/>
	</g>
	<g>
		<path class="st1" d="M91.16,143.5h-35c-1.38,0-2.5-1.12-2.5-2.5v0c0-1.38,1.12-2.5,2.5-2.5h35c1.38,0,2.5,1.12,2.5,2.5v0
			C93.66,142.38,92.54,143.5,91.16,143.5z"/>
	</g>
	<g>
		<path class="st7" d="M113.16,113.5h-57c-1.38,0-2.5-1.12-2.5-2.5v0c0-1.38,1.12-2.5,2.5-2.5h57c1.38,0,2.5,1.12,2.5,2.5v0
			C115.66,112.38,114.54,113.5,113.16,113.5z"/>
	</g>
	<g>
		<g>
			<path class="st2" d="M138.66,161.5c-0.39,0-0.78-0.07-1.15-0.23c-1.12-0.46-1.85-1.56-1.85-2.77v-17c0-3.31,2.69-6,6-6h17
				c1.21,0,2.31,0.73,2.77,1.85c0.46,1.12,0.21,2.41-0.65,3.27l-20,20C140.21,161.19,139.44,161.5,138.66,161.5z"/>
		</g>
		<g>
			<g>
				<path class="st1" d="M158.66,138.5l-20,20v-17c0-1.66,1.34-3,3-3H158.66 M158.66,132.5h-17c-4.96,0-9,4.04-9,9v17
					c0,2.43,1.46,4.61,3.7,5.54c0.74,0.31,1.52,0.46,2.29,0.46c1.56,0,3.1-0.61,4.24-1.76l20-20c1.72-1.72,2.23-4.3,1.3-6.54
					C163.28,133.96,161.09,132.5,158.66,132.5L158.66,132.5z M158.66,144.5L158.66,144.5L158.66,144.5L158.66,144.5z"/>
			</g>
		</g>
	</g>
	<g>
		<g>
			<circle class="st8" cx="124.66" cy="77.5" r="2"/>
		</g>
		<g>
			<circle class="st8" cx="132.66" cy="77.5" r="2"/>
		</g>
		<g>
			<circle class="st8" cx="128.66" cy="69.5" r="2"/>
		</g>
	</g>
	<g>
		<g>
			<circle class="st8" cx="64.66" cy="77.5" r="2"/>
		</g>
		<g>
			<circle class="st8" cx="72.66" cy="77.5" r="2"/>
		</g>
		<g>
			<circle class="st8" cx="68.66" cy="69.5" r="2"/>
		</g>
	</g>
	<g>
		<g>
			<g>
				<path class="st1" d="M113.69,72.28c-0.16,0-0.33-0.03-0.49-0.08c-1.6-0.55-4.42-0.55-6.02,0c-0.78,0.27-1.64-0.15-1.91-0.93
					c-0.27-0.78,0.15-1.64,0.93-1.91c2.24-0.77,5.74-0.77,7.98,0c0.78,0.27,1.2,1.12,0.93,1.91
					C114.89,71.89,114.31,72.28,113.69,72.28z"/>
			</g>
			<g>
				<g>
					<circle class="st1" cx="110.19" cy="64.08" r="6"/>
				</g>
				<g>
					<circle class="st4" cx="111.69" cy="64.08" r="1.5"/>
				</g>
			</g>
			<g>
				<path class="st1" d="M106.76,50.14c3.57-2.19,8.99-1.73,11.44,1.9c0.84,1.2-0.31,2.92-1.73,2.64c-1.57-0.27-2.86-0.63-4.4-0.83
					c-1.46-0.21-3.36-0.28-4.78-0.61C105.83,52.97,105.49,50.88,106.76,50.14L106.76,50.14z"/>
			</g>
		</g>
		<g>
			<g>
				<path class="st1" d="M90.64,72.28c-0.16,0-0.33-0.03-0.49-0.08c-1.6-0.55-4.42-0.55-6.02,0c-0.78,0.27-1.64-0.15-1.91-0.93
					c-0.27-0.78,0.15-1.64,0.93-1.91c2.24-0.77,5.74-0.77,7.98,0c0.78,0.27,1.2,1.12,0.93,1.91C91.84,71.89,91.26,72.28,90.64,72.28
					z"/>
			</g>
			<g>
				<g>
					<circle class="st1" cx="87.14" cy="64.08" r="6"/>
				</g>
				<g>
					<circle class="st4" cx="88.64" cy="64.08" r="1.5"/>
				</g>
			</g>
			<g>
				<path class="st1" d="M89.6,53.33c-1.25,0.24-3.08,0.34-4.36,0.52c-1.54,0.19-2.82,0.55-4.39,0.82
					c-0.94,0.16-1.83-0.47-1.98-1.41c-0.07-0.44,0.03-0.88,0.25-1.22c1.79-2.76,5.51-3.65,8.57-3.02c1.01,0.21,1.9,0.51,2.88,1.12
					C92.05,51.15,91.32,53.21,89.6,53.33L89.6,53.33z"/>
			</g>
		</g>
		<g>
			<path class="st1" d="M98.97,83.47c-4.55,0-9.21-1.07-13.25-3.21c-0.98-0.52-1.35-1.73-0.83-2.7c0.52-0.97,1.73-1.35,2.7-0.83
				c6.83,3.63,16.09,3.64,22.02,0.03c0.94-0.57,2.17-0.28,2.75,0.67c0.57,0.94,0.28,2.17-0.67,2.75
				C108.09,82.37,103.59,83.47,98.97,83.47z"/>
		</g>
		<g>
			<path class="st1" d="M94.92,86.58c1.83,0.47,3.76,0.6,5.63,0.36c1.17-0.03,2.9-1.11,3.45,0.49c0.33,0.86-0.59,1.55-1.07,2.1
				c-0.61,0.66-1.32,1-2.04,1.25c-2.2,0.61-4.68,0.25-6.48-1.25c0,0-0.74-0.66-0.74-0.66C92.6,87.95,93.59,86.18,94.92,86.58
				L94.92,86.58z"/>
		</g>
	</g>
</g>
<g>
	<g>
		<g>
			<path class="st4" d="M244.34,353.08c-3.31,0-6-2.69-6-6v-114c0-3.31,2.69-6,6-6h114c3.31,0,6,2.69,6,6v97
				c0,0.8-0.32,1.56-0.88,2.12l-20,20c-0.56,0.56-1.33,0.88-2.12,0.88H244.34z"/>
		</g>
		<g>
			<path class="st1" d="M358.34,230.08c1.66,0,3,1.34,3,3v97l-20,20h-97c-1.66,0-3-1.34-3-3v-114c0-1.66,1.34-3,3-3H358.34
				 M358.34,224.08h-114c-4.96,0-9,4.04-9,9v114c0,4.96,4.04,9,9,9h97c1.59,0,3.12-0.63,4.24-1.76l20-20
				c1.13-1.13,1.76-2.65,1.76-4.24v-97C367.34,228.12,363.3,224.08,358.34,224.08L358.34,224.08z"/>
		</g>
	</g>
	<g>
		<path class="st6" d="M323.84,295.08h-65c-1.38,0-2.5-1.12-2.5-2.5l0,0c0-1.38,1.12-2.5,2.5-2.5h65c1.38,0,2.5,1.12,2.5,2.5l0,0
			C326.34,293.97,325.22,295.08,323.84,295.08z"/>
	</g>
	<g>
		<path class="st1" d="M318.84,315.08h-60c-1.38,0-2.5-1.12-2.5-2.5l0,0c0-1.38,1.12-2.5,2.5-2.5h60c1.38,0,2.5,1.12,2.5,2.5l0,0
			C321.34,313.97,320.22,315.08,318.84,315.08z"/>
	</g>
	<g>
		<path class="st1" d="M309.84,325.08h-51c-1.38,0-2.5-1.12-2.5-2.5l0,0c0-1.38,1.12-2.5,2.5-2.5h51c1.38,0,2.5,1.12,2.5,2.5l0,0
			C312.34,323.97,311.22,325.08,309.84,325.08z"/>
	</g>
	<g>
		<path class="st1" d="M293.84,335.08h-35c-1.38,0-2.5-1.12-2.5-2.5l0,0c0-1.38,1.12-2.5,2.5-2.5h35c1.38,0,2.5,1.12,2.5,2.5l0,0
			C296.34,333.97,295.22,335.08,293.84,335.08z"/>
	</g>
	<g>
		<path class="st7" d="M309.84,305.08h-51c-1.38,0-2.5-1.12-2.5-2.5l0,0c0-1.38,1.12-2.5,2.5-2.5h51c1.38,0,2.5,1.12,2.5,2.5l0,0
			C312.34,303.97,311.22,305.08,309.84,305.08z"/>
	</g>
	<g>
		<g>
			<path class="st2" d="M341.34,353.08c-0.39,0-0.78-0.07-1.15-0.23c-1.12-0.46-1.85-1.56-1.85-2.77v-17c0-3.31,2.69-6,6-6h17
				c1.21,0,2.31,0.73,2.77,1.85c0.46,1.12,0.21,2.41-0.65,3.27l-20,20C342.89,352.78,342.12,353.08,341.34,353.08z"/>
		</g>
		<g>
			<g>
				<path class="st1" d="M361.34,330.08l-20,20v-17c0-1.66,1.34-3,3-3H361.34 M361.34,324.08h-17c-4.96,0-9,4.04-9,9v17
					c0,2.43,1.46,4.61,3.7,5.54c0.74,0.31,1.52,0.46,2.29,0.46c1.56,0,3.1-0.61,4.24-1.76l20-20c1.72-1.72,2.23-4.3,1.3-6.54
					C365.95,325.55,363.77,324.08,361.34,324.08L361.34,324.08z M361.34,336.08L361.34,336.08L361.34,336.08L361.34,336.08z"/>
			</g>
		</g>
	</g>
	<g>
		<g>
			<g>
				<g>
					<g>
						<path class="st1" d="M316.86,259.85c-1.1,0-2-0.9-2-2c0-1.65-1.35-3-3-3s-3,1.35-3,3c0,1.1-0.9,2-2,2s-2-0.9-2-2
							c0-3.86,3.14-7,7-7s7,3.14,7,7C318.86,258.96,317.97,259.85,316.86,259.85z"/>
					</g>
				</g>
				<g>
					<path class="st1" d="M309.43,241.91c3.57-2.19,8.99-1.73,11.44,1.9c0.84,1.2-0.31,2.92-1.73,2.64
						c-1.57-0.27-2.86-0.63-4.4-0.83c-1.46-0.21-3.36-0.28-4.78-0.61C308.51,244.74,308.17,242.65,309.43,241.91L309.43,241.91z"/>
				</g>
			</g>
			<g>
				<g>
					<g>
						<path class="st1" d="M295.81,259.85c-1.1,0-2-0.9-2-2c0-1.65-1.35-3-3-3s-3,1.35-3,3c0,1.1-0.9,2-2,2s-2-0.9-2-2
							c0-3.86,3.14-7,7-7s7,3.14,7,7C297.81,258.96,296.92,259.85,295.81,259.85z"/>
					</g>
				</g>
				<g>
					<path class="st1" d="M292.28,245.1c-1.25,0.24-3.08,0.34-4.36,0.52c-1.54,0.19-2.82,0.55-4.39,0.82
						c-0.94,0.16-1.83-0.47-1.98-1.41c-0.07-0.44,0.03-0.87,0.25-1.22c1.79-2.76,5.51-3.65,8.57-3.02c1.01,0.21,1.9,0.51,2.88,1.12
						C294.73,242.92,294,244.99,292.28,245.1L292.28,245.1z"/>
				</g>
			</g>
		</g>
		<g>
			<path class="st1" d="M301.62,271.08c-4.22,0-8.54-1.08-12.29-3.25c-0.96-0.55-1.28-1.78-0.73-2.73c0.55-0.96,1.77-1.28,2.73-0.73
				c6.17,3.57,14.54,3.59,19.89,0.03c0.92-0.61,2.16-0.36,2.77,0.56c0.61,0.92,0.36,2.16-0.56,2.77
				C310.09,269.97,305.91,271.08,301.62,271.08z"/>
		</g>
		<g>
			<path class="st1" d="M297.59,274.19c1.83,0.47,3.76,0.6,5.63,0.36c1.17-0.03,2.9-1.11,3.45,0.49c0.33,0.86-0.59,1.55-1.07,2.1
				c-0.61,0.66-1.32,1-2.04,1.25c-2.2,0.61-4.68,0.25-6.48-1.25c0,0-0.74-0.66-0.74-0.66C295.28,275.57,296.27,273.79,297.59,274.19
				L297.59,274.19z"/>
		</g>
	</g>
	<g>
		<g>
			<circle class="st8" cx="327.34" cy="269.08" r="2"/>
		</g>
		<g>
			<circle class="st8" cx="335.34" cy="269.08" r="2"/>
		</g>
		<g>
			<circle class="st8" cx="331.34" cy="261.08" r="2"/>
		</g>
	</g>
	<g>
		<g>
			<circle class="st8" cx="267.34" cy="269.08" r="2"/>
		</g>
		<g>
			<circle class="st8" cx="275.34" cy="269.08" r="2"/>
		</g>
		<g>
			<circle class="st8" cx="271.34" cy="261.08" r="2"/>
		</g>
	</g>
</g>
<g>
	<path class="st9" d="M198.6,227.41c-2.32,0-4.2-1.88-4.2-4.2c0-0.77-0.63-1.4-1.4-1.4c-0.77,0-1.4,0.63-1.4,1.4
		c0,2.32-1.88,4.2-4.2,4.2c-0.77,0-1.4,0.63-1.4,1.4s0.63,1.4,1.4,1.4c2.32,0,4.2,1.88,4.2,4.2c0,0.77,0.63,1.4,1.4,1.4
		c0.77,0,1.4-0.63,1.4-1.4c0-2.32,1.88-4.2,4.2-4.2c0.77,0,1.4-0.63,1.4-1.4S199.37,227.41,198.6,227.41z"/>
</g>
<path class="st9" d="M370.34,30.81h-6v-6c0-1.66-1.34-3-3-3s-3,1.34-3,3v6h-6c-1.66,0-3,1.34-3,3s1.34,3,3,3h6v6c0,1.66,1.34,3,3,3
	s3-1.34,3-3v-6h6c1.66,0,3-1.34,3-3S372,30.81,370.34,30.81z"/>
<g>
	<g>
		<circle class="st9" cx="376.34" cy="85.33" r="3"/>
	</g>
</g>
<g>
	<g>
		<circle class="st9" cx="158.66" cy="187.5" r="3"/>
	</g>
</g>
<g>
	<g>
		<circle class="st9" cx="46.16" cy="312.58" r="3"/>
	</g>
</g>
<g>
	<g>
		<circle class="st9" cx="203" cy="272.21" r="3"/>
	</g>
</g>
<g>
	<g>
		<circle class="st9" cx="226.81" cy="212.21" r="3"/>
	</g>
</g>
<g>
	<g>
		<circle class="st9" cx="80.19" cy="380.98" r="3"/>
	</g>
</g>
<g>
	<circle class="st9" cx="38.66" cy="363.24" r="4.5"/>
</g>
<g>
	<rect x="-0.7" class="st10" width="400" height="400"/>
</g>
</svg>
