<?xml version="1.0" encoding="utf-8"?>
<!-- Generator: Adobe Illustrator 25.0.1, SVG Export Plug-In . SVG Version: 6.00 Build 0)  -->
<svg version="1.1" id="Layer_1" xmlns="http://www.w3.org/2000/svg" xmlns:xlink="http://www.w3.org/1999/xlink" x="0px" y="0px"
	 viewBox="0 0 400 400" style="enable-background:new 0 0 400 400;" xml:space="preserve">
<style type="text/css">
	.st0{fill:#1877F2;}
	.st1{fill:#7DDF96;}
	.st2{fill:#515979;}
	.st3{fill:#00C853;}
	.st4{fill:#EF7D7D;}
	.st5{fill:#FFFFFF;}
</style>
<path class="st0" d="M172.9,49C145,49,118.1,59.4,97.6,78.3C77.1,97.3,64.5,123.2,62.3,151c-2.2,27.8,6.2,55.4,23.5,77.3
	c17.3,21.9,42.2,36.4,69.8,40.7v-77.5h-28.1v-31.9h28.1v-24.4c0-27.7,16.5-43.1,41.8-43.1c8.3,0.1,16.6,0.8,24.8,2.1v27.3h-13.9
	c-13.8,0-18,8.5-18,17.3v20.8h30.7l-4.9,32h-25.8v77.5c27.7-4.1,52.8-18.6,70.3-40.5c17.4-21.9,25.9-49.6,23.7-77.6
	c-2.2-27.9-14.9-54-35.5-72.9C228,59.2,200.9,48.8,172.9,49L172.9,49z"/>
<path class="st1" d="M95.2,362.3c-4.2,0.7-8.4-0.1-12.1-2.1c-0.2-0.1-0.5-0.3-0.7-0.5c-5.4-4.9-7.6-11.3-6-17.6c0-0.1,0-0.2,0.1-0.3
	c0-0.1,0.1-0.3,0.1-0.5c0.2-0.6,0.4-1.1,0.7-1.7c1.2-2.6,2.1-5.2,0.7-7.5l-41,7.2c-0.8,0.1-1.6,0-2.2-0.5c-0.7-0.5-1.1-1.2-1.2-1.9
	l-17-96.3c-0.1-0.8,0-1.6,0.5-2.2c0.5-0.7,1.2-1.1,1.9-1.2l105-18.5c0.8-0.1,1.6,0,2.2,0.5c0.7,0.5,1.1,1.2,1.2,1.9l6.3,35.7
	c0.1,0.5,0.1,1-0.1,1.4c-0.1,0.5-0.4,0.9-0.8,1.2c-1.9,2-4.4,3.3-7.1,3.8c-4.7,0.8-8.9-1-11.4-2.2c-0.5-0.2-1-0.4-1.2-0.5l-0.1,0
	l-0.4-0.1l-0.2-0.1c-3.5-0.9-7.3-0.4-10.5,1.3c-3.2,1.8-5.5,4.8-6.6,8.3c-1.6,5.5,0.2,11.2,5,15.9c3.3,1.8,7.1,2.5,10.9,1.9
	c2-0.4,3.9-1.1,5.5-2.3l0.5-0.3l0.1-0.1c0.2-0.1,0.6-0.5,1-0.9c2-1.9,5.3-5,10-5.8c2.7-0.5,5.5-0.2,8,1c0.4,0.2,0.8,0.5,1.1,0.9
	c0.3,0.4,0.5,0.8,0.6,1.3l6.3,35.7c0.1,0.8,0,1.6-0.5,2.2c-0.5,0.7-1.2,1.1-1.9,1.2l-41,7.2c-0.5,2.6,1.2,4.7,3.2,6.8
	c0.4,0.4,0.8,0.9,1.2,1.3l0.3,0.5c0,0,0,0.1,0.1,0.1c1.6,2.3,2.5,4.9,2.8,7.6c0.3,2.7-0.1,5.5-1.2,8c-1.1,2.5-2.7,4.8-4.9,6.5
	C100.4,360.7,97.9,361.9,95.2,362.3L95.2,362.3z"/>
<path class="st2" d="M124.5,221.7l6.3,35.7c-1.5,1.6-3.4,2.6-5.6,3c-4.9,0.9-9.7-2.2-11.3-2.6l-0.6-0.2l-0.1,0
	c-2.4-0.6-4.9-0.7-7.3-0.3c-13.2,2.3-20.1,19.2-7.2,31.2c4,2.2,8.6,3.1,13.2,2.4c2.4-0.4,4.7-1.4,6.7-2.8l0.6-0.5
	c1.4-1,4.8-5.4,9.8-6.3c2.1-0.4,4.3-0.1,6.2,0.9l6.3,35.7l-42.8,7.5c-2.9,6.5,3.2,11,4.2,12.5c0.1,0.1,0.2,0.3,0.3,0.4l0,0
	c1.3,1.8,2.1,4,2.3,6.2c0.2,2.2-0.1,4.5-1,6.6c-0.9,2.1-2.2,3.9-4,5.3c-1.8,1.4-3.8,2.3-6.1,2.7c-3.5,0.5-7.1-0.1-10.2-1.8
	c-5-4.6-6.3-10.1-5.1-14.8l0-0.1c0-0.1,0.1-0.3,0.1-0.4c0.5-1.8,4.8-8.1-0.3-13.2l-42.7,7.5l-17-96.3L124.5,221.7z M123.5,215.8
	l-105,18.5c-1.6,0.3-3,1.2-3.9,2.5c-0.9,1.3-1.3,2.9-1,4.5l17,96.3c0.3,1.6,1.2,3,2.5,3.9c1.3,0.9,2.9,1.3,4.5,1l38.1-6.7
	c-0.3,1-0.6,1.9-1,2.8c-0.3,0.7-0.6,1.3-0.8,2c0,0.1-0.1,0.3-0.1,0.4c0,0.1-0.1,0.3-0.1,0.5c-1.8,7.3,0.7,14.9,6.9,20.5
	c0.4,0.4,0.9,0.7,1.4,0.9c4.3,2.3,9.2,3.1,14,2.4c5-0.9,9.5-3.8,12.5-8c2.9-4.2,4.1-9.4,3.2-14.5c-0.5-2.7-1.5-5.3-3.1-7.5
	c-0.1-0.1-0.1-0.2-0.2-0.3c-0.1-0.2-0.2-0.3-0.3-0.5c-0.4-0.6-0.9-1.1-1.4-1.6c-0.7-0.7-1.4-1.5-1.9-2.3l38-6.7
	c1.6-0.3,3-1.2,3.9-2.5c0.9-1.3,1.3-2.9,1-4.5l-6.3-35.7c-0.2-1-0.6-1.9-1.2-2.7c-0.6-0.8-1.4-1.4-2.3-1.8c-3-1.4-6.4-1.9-9.7-1.3
	c-5.6,1-9.4,4.7-11.5,6.7l-0.7,0.7l-0.1,0l-0.4,0.3c-1.3,0.9-2.8,1.5-4.3,1.8c-2.9,0.5-5.9,0-8.6-1.3c-3.7-3.8-5.2-8.3-3.9-12.5
	c0.8-2.8,2.7-5.1,5.2-6.5c2.5-1.4,5.4-1.8,8.2-1.1l0.1,0l0.4,0.1l0.1,0c0.2,0.1,0.6,0.2,0.9,0.4c2.6,1.2,7.5,3.4,13.2,2.4
	c3.3-0.6,6.4-2.2,8.7-4.6c0.7-0.7,1.2-1.5,1.5-2.5c0.3-0.9,0.4-1.9,0.2-2.9l-6.3-35.6c-0.3-1.6-1.2-3-2.5-3.9
	C126.7,215.9,125.1,215.5,123.5,215.8L123.5,215.8z"/>
<path class="st1" d="M124.3,221.8l6.3,35.7c-6.6,6.5-14.6,1-16.9,0.4l-0.6-0.2l-0.1,0c-2.4-0.6-4.9-0.7-7.3-0.3
	c-13.2,2.3-20.1,19.2-7.2,31.2c4,2.2,8.6,3.1,13.2,2.4c2.4-0.4,4.7-1.4,6.7-2.8l0.1,0l0.6-0.4c2-1.4,7.6-9.2,15.9-5.4l6.3,35.7
	l-42.8,7.5c-0.4,0.8-0.6,1.7-0.7,2.5c-0.5,4.3,2.7,7.5,4.3,9.2c0.3,0.3,0.5,0.5,0.7,0.8l0.3,0.4l0,0c1.9,2.7,2.7,6,2.3,9.2
	c-0.2,1.9-0.8,3.7-1.8,5.3c-1,1.6-2.3,3-3.8,4.1c-4,2.7-9.5,3.5-15.6,0.4c-4.5-4.1-6-9-5.4-13.3c0.1-0.5,0.2-1,0.4-1.6l0,0l0-0.1
	l0.1-0.4c0.5-1.8,4.8-8.1-0.3-13.2l-42.3,7.5l-17-96.3L124.3,221.8z"/>
<path class="st3" d="M78.9,344.3c-0.6,4.3,0.8,9.2,5.4,13.3c6,3.1,11.6,2.3,15.6-0.4c-4.2-0.6-8.2-2-11.8-4.2
	C84.4,350.7,81.3,347.8,78.9,344.3L78.9,344.3z M105.8,257.4c2.4-0.4,4.9-0.3,7.3,0.3l0,0l0.1,0l0.6,0.2c2.3,0.6,10.2,6.1,16.9-0.4
	l-3.9-21.9l-53.3,9.4c1.5,8.9-0.5,18-5.6,25.3c-5.2,7.4-13,12.4-21.9,14l8.6,49l18.4-3.2c-3.1-17.6,7.6-34.3,23.9-37.2
	c16.3-2.9,32.1,9.1,35.2,26.7l9.3-1.6l-6.3-35.7c-8.3-3.8-13.9,4-15.9,5.4l-0.6,0.4l-0.1,0c-2,1.4-4.3,2.4-6.7,2.8
	c-4.5,0.7-9.2-0.1-13.2-2.4C85.7,276.6,92.6,259.7,105.8,257.4z"/>
<path class="st3" d="M103.1,338.6L103.1,338.6l-0.3-0.5c-0.2-0.3-0.5-0.6-0.7-0.8c-1.1,0-2.3-0.4-3.2-1c-1-0.6-1.8-1.4-2.3-2.4
	l-0.8-1.3l-6,3.5l0.7,1.3c2.7,4.5,6.8,6.7,12.3,6.4l0.8,4.4l1.9-0.3C105.8,344.6,105,341.3,103.1,338.6L103.1,338.6z M102.8,321.3
	c-3.4,0.2-5,0.3-6.8-0.6c-0.4-0.2-0.8-0.5-1.1-0.9c-0.3-0.4-0.5-0.9-0.5-1.3c-0.5-3.1,1.3-4.8,5.9-5.6c3.7-0.6,5.7,0.4,7.6,3
	l0.9,1.1l5.8-3.9l-0.9-1.2c-2.9-4-6.2-5.9-11.3-5.8l-0.8-4.3l-6.3,1.1l0.8,4.3c-6.7,2.1-9.8,6.7-8.7,12.5c1.1,6.2,5.3,8.2,10.2,8.5
	c0.1-0.9,0.4-1.7,0.7-2.5l15.6-2.8l-0.3-0.2C110.9,320.9,106.1,321,102.8,321.3z"/>
<path class="st2" d="M67.8,278.2c-0.5,0.1-1.1,0-1.5-0.3c-0.4-0.3-0.7-0.8-0.8-1.3c-0.3-1.8,0.1-3.7,1.2-5.2
	c1.1-1.5,2.7-2.6,4.5-2.9c1.8-0.3,3.7,0.1,5.2,1.2c1.5,1.1,2.6,2.7,2.9,4.5c0.1,0.5,0,1.1-0.3,1.5c-0.3,0.4-0.8,0.7-1.3,0.8
	c-0.5,0.1-1.1,0-1.5-0.3c-0.4-0.3-0.7-0.8-0.8-1.3c-0.1-0.8-0.6-1.5-1.2-1.9c-0.7-0.5-1.5-0.6-2.2-0.5c-0.8,0.1-1.5,0.6-1.9,1.2
	c-0.5,0.7-0.6,1.5-0.5,2.2c0.1,0.5,0,1.1-0.3,1.5C68.8,277.9,68.3,278.2,67.8,278.2z"/>
<path class="st2" d="M67.2,260.1c0.8-0.7,1.7-1.2,2.6-1.6c1-0.4,2-0.6,3-0.7c1.1-0.1,2.2,0.1,3.2,0.4c1.1,0.3,2,0.9,2.8,1.7
	c0.2,0.2,0.4,0.5,0.4,0.9c0.1,0.3,0,0.7-0.1,1c-0.1,0.3-0.4,0.6-0.6,0.8c-0.3,0.2-0.6,0.3-0.9,0.3l-0.4,0c-0.8,0-1.4-0.1-2-0.1
	c-0.6,0-1.3,0-2,0L71,263c-0.8,0.1-1.5,0.1-2.3,0.1l-0.4,0c-0.4,0-0.9-0.2-1.2-0.5c-0.3-0.3-0.5-0.8-0.5-1.2c0-0.2,0.1-0.5,0.1-0.7
	C66.9,260.5,67,260.3,67.2,260.1L67.2,260.1z"/>
<path class="st2" d="M47.1,281.9c-0.5,0.1-1.1,0-1.5-0.3c-0.4-0.3-0.7-0.8-0.8-1.3c-0.3-1.8,0.1-3.7,1.2-5.2
	c1.1-1.5,2.7-2.6,4.5-2.9c1.8-0.3,3.7,0.1,5.2,1.2c1.5,1.1,2.6,2.7,2.9,4.5c0.1,0.5,0,1.1-0.3,1.5c-0.3,0.4-0.8,0.7-1.3,0.8
	c-0.5,0.1-1.1,0-1.5-0.3c-0.4-0.3-0.7-0.8-0.8-1.3c-0.1-0.8-0.6-1.5-1.2-1.9c-0.7-0.5-1.5-0.6-2.2-0.5s-1.5,0.6-1.9,1.2
	c-0.5,0.7-0.6,1.5-0.5,2.2c0.1,0.5,0,1.1-0.3,1.5C48,281.5,47.6,281.8,47.1,281.9z"/>
<path class="st2" d="M50.9,266.3c-0.7,0.3-1.4,0.5-2.2,0.7l-2.1,0.6c-0.7,0.2-1.3,0.4-1.9,0.7c-0.7,0.2-1.2,0.5-1.9,0.8l-0.4,0.1
	c-0.3,0.1-0.7,0.1-1,0.1c-0.3-0.1-0.6-0.2-0.9-0.5c-0.2-0.2-0.4-0.6-0.4-0.9c-0.1-0.3,0-0.7,0.1-1c0.4-1,1.1-1.9,2-2.6
	c0.8-0.7,1.8-1.2,2.9-1.5c1-0.3,2-0.4,3-0.4c1,0,2.1,0.2,3,0.6c0.3,0.1,0.6,0.3,0.8,0.6s0.3,0.6,0.3,1c0,0.3-0.1,0.7-0.3,1
	c-0.2,0.3-0.5,0.5-0.8,0.6L50.9,266.3z"/>
<path class="st2" d="M66.1,300.3c-3.7,0.6-7.4-0.2-10.5-2.3c-3-2.1-5.1-5.4-5.8-9c-0.1-0.5,0-1.1,0.3-1.5c0.3-0.4,0.8-0.7,1.3-0.8
	l23.6-4.2c0.5-0.1,1.1,0,1.5,0.3c0.4,0.3,0.7,0.8,0.8,1.3c0.6,3.7-0.2,7.4-2.3,10.5C73,297.6,69.7,299.7,66.1,300.3z"/>
<path class="st2" d="M51.8,288.6l23.6-4.2c0.6,3.1-0.2,6.4-2,9c-1.8,2.6-4.6,4.4-7.7,4.9c-3.1,0.6-6.4-0.2-9-2
	C54.1,294.5,52.4,291.7,51.8,288.6L51.8,288.6z M51.1,284.7c-1,0.2-2,0.8-2.6,1.6c-0.6,0.9-0.8,1.9-0.7,3c0.7,4.2,3.1,7.9,6.6,10.3
	c3.5,2.4,7.8,3.4,12,2.7s7.9-3.1,10.3-6.6c2.4-3.5,3.4-7.8,2.7-12c-0.2-1-0.8-2-1.6-2.6c-0.9-0.6-1.9-0.8-3-0.7L51.1,284.7z"/>
<path class="st4" d="M65.7,298.3c4.9-0.9,8.5-3.3,8.1-5.5c-0.4-2.2-4.6-3.2-9.5-2.4c-4.9,0.9-8.5,3.3-8.1,5.5
	C56.6,298.1,60.9,299.2,65.7,298.3z"/>
<path class="st1" d="M310.9,327.4c-0.4,0.2-0.9,0.3-1.4,0.3c-0.5,0-1-0.2-1.4-0.4c-8.4-4.9-7-13.7-6.4-17.5c0.1-0.5,0.2-1.1,0.2-1.3
	l0-0.1l0-0.4c0,0,0-0.2,0-0.2c0-2.3-0.6-4.6-1.8-6.7c-1.1-2-2.8-3.8-4.8-5c-2-1.2-4.2-2-6.6-2.1c-2.3-0.1-4.7,0.3-6.8,1.3
	c-2.1,1-4,2.5-5.4,4.4c-1.4,1.9-2.3,4.1-2.6,6.4c-0.3,2.3-0.1,4.7,0.8,6.9c0.8,2.2,2.2,4.1,4,5.7l0,0l0.4,0.4l0.1,0.1
	c0.1,0.1,0.7,0.4,1.1,0.7c3.2,2,10.8,6.6,9.3,16.1c-0.1,0.5-0.3,0.9-0.6,1.3c-0.3,0.4-0.7,0.7-1.1,0.9l-36.9,17.2
	c-0.7,0.3-1.5,0.4-2.3,0.1c-0.7-0.3-1.4-0.8-1.7-1.6l-15.7-33.7c-0.6,0-1.1,0.2-1.6,0.4c-1.9,0.9-3.2,3-4.1,4.4
	c-0.3,0.5-0.6,1-1,1.5l-0.3,0.4l-0.1,0c-1.8,2.1-4,3.7-6.6,4.7s-5.3,1.3-8,1c-2.7-0.4-5.3-1.4-7.5-3c-2.2-1.6-4-3.8-5.2-6.2
	c-1.2-2.5-1.7-5.2-1.5-7.9c0.2-2.7,1-5.4,2.5-7.7c1.4-2.3,3.5-4.3,5.8-5.6c2.4-1.3,5.1-2.1,7.8-2.1h0.3l0.5,0c0.6,0,1.2,0.1,1.8,0.2
	c1.6,0.3,4.1,0.6,6-0.2c0.5-0.2,1-0.6,1.4-1l-15.7-33.7c-0.3-0.7-0.4-1.5-0.1-2.3c0.3-0.7,0.8-1.4,1.6-1.7l96.7-45.1
	c0.7-0.3,1.5-0.4,2.3-0.1c0.7,0.3,1.4,0.8,1.7,1.6l15.7,33.7c0.6,0,1.1-0.2,1.6-0.4c1.9-0.9,3.2-3,4.1-4.4c0.3-0.5,0.6-1,1-1.5
	l0.3-0.4l0.1-0.1c1.5-1.8,3.4-3.3,5.6-4.2c2.2-1,4.6-1.6,7.1-1.5c2.4,0,4.8,0.6,7,1.7c2.2,1.1,4.1,2.6,5.6,4.5
	c1.5,1.9,2.6,4.1,3.1,6.5s0.6,4.9,0,7.2c-0.5,2.4-1.6,4.6-3.1,6.5c-1.5,1.9-3.4,3.5-5.6,4.6c-2.2,1.1-4.6,1.7-7,1.7l-0.4,0l-0.5,0
	c-0.6,0-1.2-0.1-1.8-0.2c-1.6-0.3-4.1-0.6-6,0.3c-0.5,0.2-1,0.6-1.4,1l15.7,33.7c0.3,0.7,0.4,1.5,0.1,2.3c-0.3,0.7-0.8,1.4-1.6,1.7
	L310.9,327.4z"/>
<path class="st2" d="M305.2,218.8l16.5,35.3c1.6,0.3,3.3,0.1,4.9-0.6c3.6-1.7,5.3-5.7,6.1-6.7c0.1-0.1,0.2-0.3,0.3-0.4l0,0
	c1.2-1.5,2.8-2.7,4.5-3.5c3.2-1.5,6.9-1.7,10.2-0.4c3.3,1.2,6.1,3.7,7.6,6.9c1.5,3.2,1.7,6.9,0.4,10.2c-1.2,3.3-3.7,6.1-6.9,7.6
	c-1.7,0.8-3.7,1.2-5.6,1.2l0,0l-0.1,0l-0.5,0c-1.3,0-5.5-1.3-9.1,0.3c-1.5,0.7-2.8,1.9-3.6,3.4l16.5,35.3l-36.9,17.2
	c-8-4.7-4.7-13.8-4.7-16.2c0-0.2,0-0.4,0-0.6l0-0.1c0-2.8-0.8-5.6-2.2-8.1c-1.4-2.5-3.4-4.6-5.8-6.1s-5.1-2.4-8-2.6
	c-2.8-0.2-5.7,0.4-8.2,1.6c-2.6,1.2-4.8,3-6.5,5.3c-1.7,2.3-2.8,5-3.2,7.8c-0.4,2.8-0.1,5.7,0.9,8.3c1,2.7,2.7,5,4.8,6.9l0,0
	c0.2,0.2,0.4,0.3,0.5,0.4c1.8,1.5,10.8,5,9.3,14l-36.9,17.2l-16.5-35.3c-1.6-0.3-3.3-0.1-4.9,0.6c-3.6,1.7-5.3,5.7-6.1,6.7l-0.4,0.4
	c-1.5,1.7-3.3,3-5.4,3.8c-2.1,0.8-4.4,1.1-6.6,0.8c-2.2-0.3-4.3-1.2-6.2-2.5c-1.8-1.3-3.3-3.1-4.2-5.1c-0.9-2-1.4-4.3-1.2-6.5
	c0.1-2.2,0.9-4.4,2.1-6.3c1.2-1.9,2.9-3.5,4.8-4.5s4.2-1.7,6.4-1.7l0,0l0.1,0l0.5,0c1.3,0,5.5,1.3,9.1-0.3c1.5-0.7,2.8-1.9,3.6-3.3
	l-16.5-35.3L305.2,218.8z M302.7,213.4L206,258.5c-1.4,0.7-2.6,1.9-3.1,3.4c-0.5,1.5-0.5,3.1,0.2,4.6l14.5,31c-1,0-2-0.1-3-0.3
	c-0.7-0.1-1.4-0.2-2.2-0.2l-0.5,0l-0.5,0c-2.7,0-5.4,0.6-7.9,1.8c-4.7,2.2-8.3,6.1-10,10.9s-1.5,10.2,0.6,14.8
	c2.2,4.7,6.1,8.3,10.9,10c4.8,1.8,10.2,1.5,14.8-0.6c2.5-1.2,4.7-2.8,6.5-4.9c0.1,0,0.2-0.2,0.2-0.3l0.4-0.4
	c0.4-0.6,0.8-1.2,1.2-1.8c0.5-0.9,1.1-1.7,1.7-2.4l14.4,31c0.7,1.4,1.9,2.6,3.4,3.1c1.5,0.5,3.1,0.5,4.6-0.2l36.9-17.2
	c0.9-0.4,1.7-1,2.3-1.8c0.6-0.8,1-1.7,1.2-2.7c1.9-11.4-7.2-17-10.7-19.1c-0.3-0.2-0.7-0.4-0.8-0.5l-0.1-0.1
	c-0.1-0.1-0.2-0.2-0.4-0.3c-1.2-1-2.2-2.3-2.8-3.7c-1.2-2.7-1.4-5.7-0.4-8.4c1-2.8,3.1-5,5.7-6.2c2.7-1.2,5.7-1.4,8.4-0.4
	c2.8,1,5,3.1,6.2,5.7c0.7,1.4,1,3,1,4.6c0,0,0,0.1,0,0.1l0,0.4l0,0.1l-0.1,0.9c-0.6,4-2.3,14.6,7.8,20.5c0.8,0.5,1.8,0.8,2.8,0.8
	c1,0,2-0.2,2.8-0.6l36.9-17.2c1.4-0.7,2.6-1.9,3.1-3.4c0.5-1.5,0.5-3.1-0.2-4.6l-14.5-31.1c1,0,2,0.1,3,0.3c0.7,0.1,1.4,0.2,2.2,0.2
	l0.5,0l0.5,0c3.2-0.1,6.4-0.9,9.2-2.5c2.8-1.6,5.2-3.9,6.9-6.6c1.7-2.7,2.7-5.9,2.9-9.1c0.2-3.2-0.4-6.5-1.8-9.4s-3.5-5.5-6.1-7.4
	c-2.6-1.9-5.6-3.2-8.9-3.6c-3.2-0.4-6.5-0.1-9.5,1.1c-3,1.1-5.7,3-7.8,5.5l-0.2,0.3l-0.4,0.4c-0.4,0.6-0.8,1.2-1.2,1.8
	c-0.5,0.9-1.1,1.7-1.7,2.4l-14.4-31c-0.7-1.4-1.9-2.6-3.4-3.1c-1.5-0.5-3.1-0.5-4.6,0.2L302.7,213.4z"/>
<path class="st1" d="M355.4,249.4c1.4,3.1,1.6,6.6,0.6,9.8c-1,3.2-3.3,5.9-6.2,7.6c-0.3,0.1-0.6,0.3-0.8,0.4
	c-1.7,0.8-3.7,1.2-5.6,1.2l0,0l-0.1,0l-0.5,0c-1.9,0-9-2.5-12.7,3.7l16.5,35.3l-36.9,17.2c-8-4.7-4.7-13.8-4.7-16.2l0-0.6
	c0,0,0-0.1,0-0.1l0,0c0-2.8-0.8-5.6-2.2-8.1c-1.4-2.5-3.4-4.6-5.8-6.1c-2.4-1.5-5.1-2.4-8-2.6c-2.8-0.2-5.7,0.4-8.2,1.6
	c-2.6,1.2-4.8,3-6.5,5.3c-1.7,2.3-2.8,5-3.2,7.8c-0.4,2.8-0.1,5.7,0.9,8.3c1,2.7,2.7,5,4.8,6.9l0,0c0.2,0.2,0.4,0.3,0.5,0.4
	c1.8,1.5,10.8,5,9.4,14l-36.9,17.2l-16.5-35.3c-7.1-1.1-9.8,5.9-11,7.3l-0.3,0.5c-1.2,1.5-2.8,2.7-4.5,3.5c-0.3,0.1-0.6,0.3-0.8,0.4
	c-3.2,1.2-6.8,1.1-10-0.2c-3.2-1.4-5.7-3.9-7.1-7.1c-1.3-3.2-1.4-6.8-0.2-10c1.2-3.2,3.7-5.9,6.8-7.3c1.8-0.8,3.7-1.2,5.6-1.2l0,0
	l0.1,0l0.5,0c0.8,0,2.6,0.5,4.6,0.5c2.7,0.1,6-0.6,8.1-4.2l-16.5-35.3l96.6-45.1l16.5,35.3c4.1,0.7,6.7-1.4,8.4-3.5
	c1.3-1.6,2.1-3.2,2.6-3.8c0.1-0.1,0.2-0.3,0.4-0.4c1.2-1.5,2.8-2.7,4.5-3.5c3.2-1.5,6.9-1.7,10.2-0.4S353.9,246.2,355.4,249.4
	L355.4,249.4z"/>
<path class="st3" d="M214.5,276.7l5.7,12.2c2.1-6.6,5-13,8.7-18.9L214.5,276.7z M211.8,302.9l-0.1,0c-1.9,0-3.8,0.4-5.6,1.2
	c-3.1,1.5-5.5,4.1-6.8,7.3c-1.2,3.2-1.2,6.8,0.2,10c1.3,3.2,3.9,5.7,7.1,7.1c3.2,1.4,6.8,1.4,10,0.2c-1-8.4-0.9-17,0.3-25.4
	c-2,0-3.8-0.5-4.6-0.5L211.8,302.9z"/>
<path class="st3" d="M337.6,242.9c-1.8,0.8-3.3,2-4.5,3.5l0,0c-0.1,0.1-0.2,0.3-0.4,0.4c-0.5,0.6-1.3,2.2-2.6,3.8
	c7.2,4.5,13.8,9.9,19.6,16.1c3-1.7,5.2-4.5,6.2-7.8c1-3.3,0.7-6.9-0.9-9.9c-1.6-3.1-4.3-5.4-7.5-6.6
	C344.3,241.3,340.7,241.4,337.6,242.9L337.6,242.9z M316.9,243.8l-5.7-12.2l-14.3,6.7C303.7,239.3,310.4,241.1,316.9,243.8
	L316.9,243.8z"/>
<path class="st2" d="M276,263.3c-0.3,0.2-0.7,0.2-1,0.1c-0.3-0.1-0.6-0.3-0.8-0.6c-0.2-0.3-0.3-0.6-0.3-1c0-0.4,0.2-0.7,0.5-0.9
	c2-1.8,4.6-3,7.2-3.4c0.2,0,0.4,0,0.6,0.1c0.2,0.1,0.4,0.2,0.5,0.3c0.2,0.1,0.3,0.3,0.4,0.5c0.1,0.2,0.2,0.4,0.2,0.6
	c0,0.2,0,0.4-0.1,0.6c-0.1,0.2-0.2,0.4-0.3,0.5c-0.1,0.2-0.3,0.3-0.5,0.4c-0.2,0.1-0.4,0.2-0.6,0.2c-2,0.3-3.9,1.2-5.4,2.5
	C276.3,263.2,276.2,263.3,276,263.3L276,263.3z"/>
<path class="st2" d="M278.2,259.9c3-1.4,4.3-5,2.9-8c-1.4-3-5-4.3-8-2.9c-3,1.4-4.3,5-2.9,8C271.6,260,275.2,261.3,278.2,259.9z"/>
<path class="st5" d="M277.7,255.2c0.8-0.4,1.1-1.2,0.7-2c-0.4-0.8-1.2-1.1-2-0.7c-0.8,0.3-1.1,1.2-0.7,2
	C276,255.2,276.9,255.5,277.7,255.2z"/>
<path class="st2" d="M266.7,243.3c0.6-0.9,1.3-1.6,2.1-2.2c0.8-0.6,1.8-1.1,2.7-1.4c1-0.4,2.1-0.5,3.2-0.4c1.1,0,2.2,0.4,3.1,1
	c0.3,0.2,0.5,0.4,0.7,0.7c0.1,0.3,0.2,0.6,0.1,1c0,0.3-0.2,0.6-0.4,0.9c-0.2,0.3-0.5,0.4-0.8,0.5l-0.4,0.1c-0.8,0.2-1.4,0.3-2,0.5
	c-0.6,0.2-1.3,0.3-2,0.5l-2,0.7c-0.7,0.3-1.4,0.5-2.2,0.7l-0.4,0.1c-0.4,0.1-0.9,0-1.3-0.2c-0.4-0.2-0.6-0.6-0.8-1
	c-0.1-0.2-0.1-0.5,0-0.7C266.5,243.7,266.5,243.5,266.7,243.3L266.7,243.3z"/>
<path class="st2" d="M261.4,270.1c-0.1,0.1-0.3,0.1-0.5,0.1c-2,0.3-3.9,1.2-5.4,2.5c-0.1,0.1-0.3,0.2-0.5,0.3
	c-0.2,0.1-0.4,0.1-0.6,0.1c-0.2,0-0.4,0-0.6-0.1c-0.2-0.1-0.3-0.2-0.5-0.3c-0.1-0.1-0.2-0.3-0.3-0.5c-0.1-0.2-0.1-0.4-0.1-0.6
	c0-0.2,0-0.4,0.1-0.6c0.1-0.2,0.2-0.3,0.3-0.5c2-1.8,4.6-3,7.3-3.4c0.4,0,0.7,0.1,1,0.3c0.3,0.2,0.5,0.5,0.6,0.8
	c0.1,0.3,0.1,0.7-0.1,1C262,269.7,261.8,270,261.4,270.1L261.4,270.1z"/>
<path class="st2" d="M257.3,269.6c3-1.4,4.3-5,2.9-8c-1.4-3-5-4.3-8-2.9c-3,1.4-4.3,5-2.9,8C250.8,269.7,254.3,271,257.3,269.6z"/>
<path class="st5" d="M256.8,264.9c0.8-0.4,1.1-1.2,0.7-2s-1.2-1.1-2-0.7c-0.8,0.4-1.1,1.2-0.7,2S256,265.3,256.8,264.9z"/>
<path class="st2" d="M252.5,253.4c-0.6,0.4-1.3,0.8-1.9,1.2l-1.8,1.1c-0.6,0.4-1.1,0.7-1.7,1.1c-0.6,0.4-1,0.8-1.6,1.2l-0.3,0.2
	c-0.2,0.1-0.4,0.2-0.6,0.3c-0.2,0.1-0.5,0.1-0.7,0c-0.2,0-0.4-0.1-0.6-0.2c-0.2-0.1-0.4-0.3-0.5-0.5c-0.2-0.4-0.4-0.8-0.3-1.2
	c0.2-1.1,0.6-2.1,1.3-3c0.6-0.9,1.5-1.6,2.4-2.2c0.9-0.5,1.8-1,2.8-1.2c1-0.3,2-0.3,3.1-0.2c0.2,0,0.4,0.1,0.6,0.2
	c0.2,0.1,0.4,0.3,0.5,0.4c0.1,0.2,0.2,0.4,0.3,0.6c0.1,0.2,0.1,0.4,0,0.7c0,0.2-0.1,0.4-0.2,0.6c-0.1,0.2-0.3,0.4-0.4,0.5
	L252.5,253.4z"/>
<path class="st2" d="M277.7,286c-3.4,1.6-7.2,1.7-10.7,0.5c-3.5-1.3-6.3-3.9-7.9-7.2c-0.2-0.5-0.2-1-0.1-1.5c0.2-0.5,0.6-0.9,1-1.1
	l21.8-10.1c0.5-0.2,1-0.2,1.5-0.1c0.5,0.2,0.9,0.6,1.1,1c1.6,3.4,1.7,7.2,0.5,10.7C283.6,281.6,281,284.4,277.7,286z"/>
<path class="st2" d="M260.9,278.4l21.8-10.1c1.3,2.9,1.5,6.2,0.4,9.2c-1.1,3-3.3,5.4-6.2,6.8c-2.9,1.3-6.2,1.5-9.2,0.4
	C264.7,283.5,262.2,281.2,260.9,278.4z M259.2,274.7c-1,0.4-1.7,1.3-2.1,2.3s-0.3,2.1,0.1,3.1c1.8,3.8,5,6.8,9,8.3
	c4,1.5,8.4,1.3,12.2-0.5c3.8-1.8,6.8-5,8.3-9c1.5-4,1.3-8.4-0.5-12.2c-0.4-1-1.3-1.7-2.3-2.1c-1-0.4-2.1-0.3-3.1,0.1L259.2,274.7z"
	/>
<path class="st4" d="M276.8,284.2c4.5-2.1,7.3-5.4,6.4-7.4c-0.9-2-5.3-1.9-9.8,0.1c-4.5,2.1-7.3,5.4-6.4,7.4
	C268,286.3,272.4,286.2,276.8,284.2z"/>
<path class="st1" d="M293.3,190.8c-4.2-0.5-8.1-2.4-11.1-5.3c-0.2-0.2-0.4-0.4-0.5-0.6c-3.8-6.2-4.1-13-0.9-18.6l0.1-0.3l0.3-0.4
	c0.3-0.5,0.7-1,1.1-1.4c1.8-2.2,3.4-4.4,2.7-7l-41.4-4.4c-0.8-0.1-1.5-0.5-2-1.1c-0.5-0.6-0.7-1.4-0.7-2.2l3.8-36.1
	c0.1-0.5,0.2-1,0.5-1.4c0.3-0.4,0.6-0.7,1.1-1c2.4-1.4,5.2-1.9,7.9-1.7c4.8,0.5,8.3,3.5,10.4,5.2c0.4,0.3,0.9,0.7,1,0.8l0.1,0.1
	l0.3,0.2l0.2,0.1c3.1,1.9,6.9,2.4,10.4,1.6c3.5-0.8,6.6-3,8.6-6.1c3.1-4.8,2.9-10.9-0.4-16.6c-2.7-2.6-6.2-4.3-9.9-4.8
	c-2-0.2-4,0-6,0.7l0,0l-0.5,0.2l-0.1,0c-0.2,0.1-0.7,0.4-1.2,0.6c-2.4,1.3-6.5,3.3-11.2,2.8c-2.7-0.3-5.3-1.4-7.3-3.2
	c-0.4-0.3-0.7-0.7-0.9-1.1c-0.2-0.4-0.3-0.9-0.2-1.4l3.8-36.1c0.1-0.8,0.5-1.5,1.1-2c0.6-0.5,1.4-0.7,2.2-0.7l106.1,11.2
	c0.8,0.1,1.5,0.5,2,1.1c0.5,0.6,0.7,1.4,0.7,2.2l-10.2,97.2c-0.1,0.8-0.5,1.5-1.1,2c-0.6,0.5-1.4,0.7-2.2,0.7l-41.4-4.4
	c-1.2,2.4-0.1,4.9,1.2,7.4c0.3,0.5,0.5,1,0.7,1.6c0.1,0.2,0.1,0.3,0.2,0.5l0,0.1c0.9,2.6,1.1,5.4,0.6,8.1c-0.5,2.7-1.6,5.3-3.3,7.4
	c-1.7,2.1-3.9,3.8-6.5,4.9C298.8,190.7,296,191.1,293.3,190.8L293.3,190.8z"/>
<path class="st2" d="M360.3,63.7L350.1,161l-43.2-4.5c-4.6,5.5,0,11.4,0.6,13.2c0.1,0.2,0.1,0.3,0.2,0.5l0,0.1
	c0.7,2.1,0.9,4.4,0.5,6.6s-1.3,4.3-2.7,6.1c-1.4,1.8-3.2,3.1-5.3,4c-2.1,0.9-4.3,1.2-6.6,1c-3.5-0.4-6.8-2-9.3-4.5
	c-3.6-5.8-3.2-11.5-0.8-15.6l0-0.1c0.1-0.1,0.2-0.3,0.2-0.4c1-1.6,6.8-6.4,3.4-12.8l-43.1-4.5l3.8-36.1c1.9-1.1,4-1.6,6.2-1.4
	c5,0.5,8.7,4.7,10.2,5.6l0.5,0.3l0.1,0.1c2.1,1.3,4.5,2,6.9,2.3c13.3,1.4,24.6-12.9,15.5-28c-3.2-3.3-7.4-5.3-12-5.9
	c-2.4-0.3-4.9,0-7.2,0.8l0,0l-0.1,0l-0.7,0.2c-1.6,0.6-6.1,3.9-11.1,3.3c-2.1-0.2-4.1-1.1-5.7-2.5l3.8-36.1L360.3,63.7z M360.9,57.8
	L254.8,46.6c-1.6-0.2-3.2,0.3-4.4,1.3c-1.2,1-2,2.5-2.2,4l-3.8,36.1c-0.1,1,0,2,0.4,2.9c0.4,0.9,0.9,1.7,1.7,2.4
	c2.5,2.2,5.6,3.6,9,4c5.6,0.6,10.4-1.9,12.9-3.2l0.9-0.5l0.1,0l0.4-0.2l0.1,0c1.5-0.5,3.1-0.7,4.7-0.5c3,0.4,5.7,1.7,7.9,3.8
	c2.5,4.6,2.7,9.4,0.3,13.1c-1.1,1.7-2.7,3.1-4.5,4s-3.9,1.3-6,1c-1.6-0.2-3.1-0.7-4.5-1.5l-0.1,0l-0.3-0.2l-0.1,0l-0.8-0.6
	c-2.2-1.9-6.3-5.3-12-5.9c-3.3-0.3-6.7,0.4-9.6,2c-0.8,0.5-1.6,1.1-2.1,1.9c-0.5,0.8-0.9,1.7-1,2.6l-3.8,36.1
	c-0.2,1.6,0.3,3.2,1.3,4.4c1,1.2,2.5,2,4,2.2l38.5,4c-0.5,0.9-1.1,1.7-1.8,2.4c-0.5,0.5-1,1.1-1.4,1.7c-0.1,0.1-0.2,0.3-0.2,0.4
	c-0.1,0.1-0.2,0.3-0.3,0.4c-3.7,6.5-3.4,14.5,0.9,21.6c0.3,0.5,0.7,0.9,1.1,1.3c3.5,3.4,8,5.6,12.8,6.1c5.1,0.5,10.2-1,14.2-4.2
	c4-3.2,6.5-7.9,7.1-13c0.3-2.7,0-5.5-0.9-8.1c0-0.1-0.1-0.2-0.1-0.4c0-0.1-0.1-0.4-0.2-0.5c-0.3-0.7-0.6-1.3-0.9-1.9
	c-0.5-0.9-0.9-1.8-1.2-2.7l38.4,4c1.6,0.2,3.2-0.3,4.4-1.3c1.2-1,2-2.5,2.2-4l10.2-97.2c0.2-1.6-0.3-3.2-1.3-4.4
	C363.9,58.7,362.5,57.9,360.9,57.8L360.9,57.8z"/>
<path class="st1" d="M360.1,63.7L349.9,161l-42.8-4.5c-4.6,5.5,0,11.4,0.6,13.2c0.1,0.2,0.1,0.3,0.2,0.5c0,0,0,0,0,0.1
	c0.2,0.5,0.3,1,0.4,1.5c0.3,1.4,0.4,2.8,0.2,4.2c-1,9.2-11.1,15.3-20.4,10.1c-1.4-0.7-2.6-1.7-3.7-2.7c-1.2-1.9-2-4.1-2.4-6.3
	c-0.6-3.2,0-6.5,1.7-9.4l0,0l0.1-0.1c0.1-0.1,0.2-0.3,0.2-0.4c0.2-0.3,0.4-0.5,0.6-0.8c1.2-1.5,3.6-4.1,3.8-7.6
	c0.1-1.6-0.3-3.1-1.1-4.5l-43.1-4.5l3.8-36.1c8.1-4.4,14.3,3.1,16.3,4.3l0.5,0.3l0.1,0.1c2.1,1.3,4.5,2,6.9,2.3
	c13.3,1.4,24.6-12.9,15.5-28c-3.2-3.3-7.4-5.3-12-5.9c-2.4-0.3-4.9,0-7.2,0.8l-0.1,0l-0.7,0.2c-2.3,0.8-9.9,6.7-16.8,0.8l3.8-36.1
	L360.1,63.7z"/>
<path class="st3" d="M308.3,171.7c-2.2,3.6-5.1,6.8-8.6,9.3c-3.5,2.5-7.4,4.2-11.6,5c9.3,5.2,19.4-0.9,20.4-10.1
	C308.7,174.5,308.6,173.1,308.3,171.7L308.3,171.7z M306.8,72.3L253,66.7l-2.3,22.1c7,5.9,14.6,0,16.8-0.8l0.7-0.2l0.1,0
	c2.3-0.8,4.8-1.1,7.2-0.8c4.5,0.6,8.8,2.6,12,5.9c9.1,15-2.3,29.4-15.5,28c-2.4-0.3-4.8-1-6.9-2.3l0,0l-0.1-0.1l-0.5-0.3
	c-2-1.2-8.1-8.7-16.3-4.3l-3.8,36.1l9.4,1c1.9-17.8,16.8-30.9,33.2-29.1c16.5,1.7,28.3,17.6,26.4,35.4l18.6,2l5.2-49.4
	c-8.9-1-17.1-5.4-22.8-12.4C308.6,90.2,305.9,81.3,306.8,72.3L306.8,72.3z"/>
<path class="st3" d="M295,154.9c-2.3-2.5-7-3.7-10.2-4.3s-4.9-1.1-6.3-2.5c-0.4-0.3-0.6-0.7-0.8-1.2c-0.2-0.5-0.2-0.9-0.1-1.4
	c0.3-3.1,2.6-4.3,7.3-3.8c3.7,0.4,5.4,2,6.5,4.9l0.6,1.3l6.6-2.2l-0.5-1.4c-1.7-4.6-4.3-7.4-9.3-8.6l0.5-4.4l-6.3-0.7l-0.5,4.4
	c-7.1,0.2-11.2,3.7-11.9,9.6c-0.4,3.7,0.7,6.2,2.5,8.1l14.4,1.5c0.8,1.4,1.1,2.9,1.1,4.5c0.6,0.3,1.1,0.8,1.4,1.5
	c0.3,0.6,0.4,1.3,0.3,2c-0.3,2.6-2.1,4-5.5,4.1c-0.2,0.2-0.4,0.5-0.6,0.8c-0.1,0.1-0.2,0.3-0.2,0.4l-0.1,0.1
	c-1.7,2.8-2.3,6.1-1.7,9.4l2.3,0.2l0.5-4.5c7.2-0.3,11.6-3.9,12.2-9.9c0.2-1.4,0.1-2.8-0.2-4.2C296.5,157.3,295.8,156,295,154.9
	L295,154.9z"/>
<path class="st2" d="M328.9,109.7c-0.4,0-0.7-0.2-0.9-0.5c-0.2-0.3-0.4-0.6-0.4-0.9c0-0.4,0.1-0.7,0.3-1c0.2-0.3,0.5-0.5,0.9-0.6
	c2.7-0.5,5.4-0.2,8,0.8c0.2,0.1,0.3,0.2,0.5,0.4c0.1,0.1,0.2,0.3,0.3,0.5c0.1,0.2,0.1,0.4,0.1,0.6c0,0.2-0.1,0.4-0.1,0.6
	c-0.1,0.2-0.2,0.3-0.4,0.5c-0.1,0.1-0.3,0.2-0.5,0.3c-0.2,0.1-0.4,0.1-0.6,0.1c-0.2,0-0.4-0.1-0.6-0.1c-1.9-0.7-4-1-6-0.6
	C329.3,109.7,329.1,109.7,328.9,109.7L328.9,109.7z"/>
<path class="st2" d="M332.6,107.9c3.3,0.3,6.2-2,6.6-5.3c0.3-3.3-2-6.2-5.3-6.6c-3.3-0.3-6.2,2-6.6,5.3
	C326.9,104.6,329.3,107.6,332.6,107.9z"/>
<path class="st5" d="M334.6,103.6c0.8,0.1,1.6-0.5,1.6-1.3c0.1-0.8-0.5-1.6-1.3-1.6c-0.8-0.1-1.6,0.5-1.6,1.3
	C333.2,102.8,333.8,103.5,334.6,103.6z"/>
<path class="st2" d="M331.3,87.7c0.9-0.5,1.9-0.7,3-0.8c1-0.1,2.1,0,3.1,0.2c1.1,0.2,2.1,0.7,2.9,1.3c0.9,0.6,1.7,1.4,2.2,2.4
	c0.2,0.3,0.2,0.6,0.2,1c0,0.3-0.2,0.7-0.4,0.9c-0.2,0.3-0.5,0.4-0.8,0.5s-0.7,0.1-1,0l-0.4-0.1c-0.8-0.2-1.3-0.5-1.9-0.6
	c-0.6-0.2-1.2-0.4-2-0.5l-2.1-0.5c-0.7-0.1-1.5-0.3-2.2-0.5l-0.4-0.1c-0.4-0.1-0.8-0.4-1-0.8s-0.2-0.9-0.1-1.3
	c0.1-0.2,0.2-0.4,0.3-0.6C330.9,88,331.1,87.8,331.3,87.7L331.3,87.7z"/>
<path class="st2" d="M312.9,108c-0.2,0-0.3-0.1-0.5-0.1c-1.9-0.7-4-1-6-0.6c-0.4,0.1-0.8,0-1.1-0.2c-0.3-0.2-0.6-0.5-0.7-0.9
	c-0.1-0.4,0-0.8,0.2-1.1c0.2-0.3,0.5-0.6,0.9-0.7c2.7-0.5,5.4-0.2,8,0.8c0.3,0.2,0.6,0.4,0.7,0.7c0.1,0.3,0.2,0.7,0.1,1
	c-0.1,0.3-0.3,0.6-0.6,0.8C313.7,108,313.3,108.1,312.9,108L312.9,108z"/>
<path class="st2" d="M309.7,105.5c3.3,0.3,6.2-2,6.6-5.3c0.3-3.3-2-6.2-5.3-6.6c-3.3-0.3-6.2,2-6.6,5.3
	C304,102.2,306.4,105.1,309.7,105.5z"/>
<path class="st5" d="M311.7,101.2c0.8,0.1,1.6-0.5,1.6-1.3c0.1-0.8-0.5-1.6-1.3-1.6c-0.8-0.1-1.6,0.5-1.6,1.3
	C310.2,100.3,310.8,101.1,311.7,101.2z"/>
<path class="st2" d="M313.9,89.1c-0.8,0.1-1.5,0.1-2.3,0l-2.1,0c-0.7,0-1.3,0.1-2,0.1c-0.7,0-1.3,0.2-2,0.2l-0.4,0
	c-0.3,0-0.7-0.1-1-0.2c-0.3-0.2-0.5-0.4-0.7-0.7c-0.2-0.3-0.2-0.6-0.2-1c0-0.3,0.2-0.6,0.4-0.9c0.7-0.9,1.6-1.5,2.6-1.9
	c1-0.4,2.1-0.6,3.2-0.6c1,0,2.1,0.1,3,0.4c1,0.3,1.9,0.8,2.7,1.4c0.4,0.3,0.6,0.7,0.6,1.1c0.1,0.4-0.1,0.9-0.4,1.2
	c-0.1,0.2-0.3,0.3-0.5,0.4c-0.2,0.1-0.4,0.2-0.6,0.2L313.9,89.1z"/>
<path class="st2" d="M320.1,120c-4.6-0.5-9-2-12.8-4.6c-0.4-0.3-0.7-0.8-0.8-1.3s0-1,0.3-1.5c0.3-0.4,0.7-0.7,1.3-0.8
	c0.5-0.1,1,0,1.5,0.3c6.4,4.3,15.6,5.3,21.9,2.3c0.2-0.1,0.5-0.2,0.8-0.2c0.3,0,0.5,0,0.8,0.1c0.3,0.1,0.5,0.2,0.7,0.4
	c0.2,0.2,0.4,0.4,0.5,0.6c0.1,0.2,0.2,0.5,0.2,0.8c0,0.3,0,0.5-0.1,0.8c-0.1,0.3-0.2,0.5-0.4,0.7c-0.2,0.2-0.4,0.3-0.7,0.5
	C329,119.9,324.5,120.6,320.1,120L320.1,120z"/>
<path class="st2" d="M315.7,122.7c1.2,0.4,2.4,0.7,3.7,0.9c0.6,0.1,1.3,0.1,1.9,0.1c0.6,0,1.3-0.1,1.9-0.2c0.3-0.1,0.6,0,0.8,0.1
	c0.3,0.1,0.5,0.3,0.6,0.6c0.1,0.3,0.2,0.5,0.1,0.8c-0.1,0.3-0.2,0.5-0.4,0.7l-0.9,0.8c-0.6,0.5-1.3,0.9-2.1,1
	c-0.7,0.1-1.5,0.2-2.2,0c-0.4,0-0.7-0.1-1.1-0.2c-0.4-0.1-0.8-0.2-1.2-0.4c-0.7-0.3-1.3-0.8-1.9-1.3l-0.7-0.7
	c-0.2-0.3-0.4-0.6-0.3-1c0-0.4,0.2-0.7,0.4-0.9c0.2-0.2,0.4-0.3,0.7-0.3C315.2,122.6,315.5,122.6,315.7,122.7z"/>
</svg>
