<?xml version="1.0" encoding="utf-8"?>
<!-- Generator: Adobe Illustrator 26.2.1, SVG Export Plug-In . SVG Version: 6.00 Build 0)  -->
<svg version="1.1" id="Email_x5F_Hub-Email_x5F_Marketing_x5F_Strategy"
	 xmlns="http://www.w3.org/2000/svg" xmlns:xlink="http://www.w3.org/1999/xlink" x="0px" y="0px" viewBox="0 0 400 400"
	 style="enable-background:new 0 0 400 400;" xml:space="preserve">
<style type="text/css">
	.st0{fill:#FFE8A0;}
	.st1{fill:#515979;}
	.st2{fill:#6ADAF7;}
	.st3{fill:#C7BCFF;}
	.st4{fill:none;}
	.st5{fill:#FFD886;}
	.st6{fill:#D8EBFB;}
	.st7{fill:#ACC9DB;}
	.st8{fill:#FFFFFF;}
	.st9{fill:#FABBA7;}
	.st10{fill:#FDE1D9;}
	.st11{fill-rule:evenodd;clip-rule:evenodd;fill:#7DDF96;}
	.st12{fill-rule:evenodd;clip-rule:evenodd;fill:#CBF2D5;}
	.st13{fill-rule:evenodd;clip-rule:evenodd;fill:#515A78;}
	.st14{fill:#7DDF96;}
	.st15{fill:#FDE4DD;}
	.st16{fill:#FFC8BE;}
</style>
<circle class="st0" cx="320" cy="185" r="68"/>
<path class="st1" d="M320,120c35.9,0,65,29.1,65,65s-29.1,65-65,65s-65-29.1-65-65S284.1,120,320,120 M320,114
	c-39.15,0-71,31.85-71,71s31.85,71,71,71s71-31.85,71-71S359.15,114,320,114L320,114z"/>
<circle class="st2" cx="74.83" cy="199" r="63"/>
<circle class="st3" cx="193" cy="87" r="73"/>
<path class="st1" d="M193,17c38.66,0,70,31.34,70,70s-31.34,70-70,70s-70-31.34-70-70S154.34,17,193,17 M193,11
	c-41.91,0-76,34.09-76,76s34.09,76,76,76s76-34.09,76-76S234.91,11,193,11L193,11z"/>
<path class="st1" d="M119,315.5h-5c-0.83,0-1.5-0.67-1.5-1.5s0.67-1.5,1.5-1.5h5c0.83,0,1.5,0.67,1.5,1.5S119.83,315.5,119,315.5z
	 M105,315.5h-5c-0.83,0-1.5-0.67-1.5-1.5s0.67-1.5,1.5-1.5h5c0.83,0,1.5,0.67,1.5,1.5S105.83,315.5,105,315.5z M91,315.5h-5
	c-0.83,0-1.5-0.67-1.5-1.5s0.67-1.5,1.5-1.5h5c0.83,0,1.5,0.67,1.5,1.5S91.83,315.5,91,315.5z M77.83,312.47
	c-0.39,0-0.78-0.15-1.08-0.45c-1.34-1.38-2.32-3.09-2.84-4.93c-0.22-0.8,0.25-1.62,1.04-1.85c0.8-0.22,1.62,0.25,1.85,1.04
	c0.38,1.36,1.1,2.62,2.1,3.64c0.58,0.59,0.56,1.54-0.03,2.12C78.58,312.33,78.21,312.47,77.83,312.47z M75,299.21
	c-0.83,0-1.5-0.67-1.5-1.5v-5c0-0.83,0.67-1.5,1.5-1.5s1.5,0.67,1.5,1.5v5C76.5,298.54,75.83,299.21,75,299.21z M75,285.21
	c-0.83,0-1.5-0.67-1.5-1.5v-5c0-0.83,0.67-1.5,1.5-1.5s1.5,0.67,1.5,1.5v5C76.5,284.54,75.83,285.21,75,285.21z M75,271.21
	c-0.83,0-1.5-0.67-1.5-1.5v-5c0-0.83,0.67-1.5,1.5-1.5s1.5,0.67,1.5,1.5v5C76.5,270.54,75.83,271.21,75,271.21z"/>
<path class="st1" d="M218,265.54c-0.83,0-1.5-0.67-1.5-1.5v-5c0-0.83,0.67-1.5,1.5-1.5s1.5,0.67,1.5,1.5v5
	C219.5,264.86,218.83,265.54,218,265.54z M218,251.54c-0.83,0-1.5-0.67-1.5-1.5v-5c0-0.83,0.67-1.5,1.5-1.5s1.5,0.67,1.5,1.5v5
	C219.5,250.86,218.83,251.54,218,251.54z M217.99,237.54c-0.8,0-1.46-0.63-1.5-1.44c-0.06-1.42-0.48-2.81-1.21-4.02
	c-0.43-0.71-0.2-1.63,0.51-2.06s1.63-0.2,2.06,0.51c0.99,1.64,1.56,3.53,1.64,5.45c0.04,0.83-0.61,1.53-1.44,1.56
	C218.03,237.54,218.01,237.54,217.99,237.54z M209.28,228.04c-0.06,0-0.13,0-0.19-0.01c-0.36-0.05-0.72-0.07-1.09-0.07h-3.71
	c-0.83,0-1.5-0.67-1.5-1.5s0.67-1.5,1.5-1.5H208c0.49,0,0.99,0.03,1.47,0.09c0.82,0.11,1.4,0.86,1.3,1.68
	C210.67,227.49,210.03,228.04,209.28,228.04z M196.03,225.14c-0.38,0-0.75-0.14-1.05-0.42c-1.38-1.34-2.41-3.02-2.97-4.85
	c-0.24-0.79,0.2-1.63,0.99-1.88c0.79-0.24,1.63,0.2,1.88,0.99c0.42,1.35,1.18,2.59,2.2,3.58c0.59,0.58,0.61,1.53,0.03,2.12
	C196.81,224.98,196.42,225.14,196.03,225.14z M193,211.96c-0.83,0-1.5-0.67-1.5-1.5v-5c0-0.83,0.67-1.5,1.5-1.5s1.5,0.67,1.5,1.5v5
	C194.5,211.29,193.83,211.96,193,211.96z M193,197.96c-0.83,0-1.5-0.67-1.5-1.5v-5c0-0.83,0.67-1.5,1.5-1.5s1.5,0.67,1.5,1.5v5
	C194.5,197.29,193.83,197.96,193,197.96z M193,183.96c-0.83,0-1.5-0.67-1.5-1.5v-5c0-0.83,0.67-1.5,1.5-1.5s1.5,0.67,1.5,1.5v5
	C194.5,183.29,193.83,183.96,193,183.96z M193,169.96c-0.83,0-1.5-0.67-1.5-1.5v-5c0-0.83,0.67-1.5,1.5-1.5s1.5,0.67,1.5,1.5v5
	C194.5,169.29,193.83,169.96,193,169.96z"/>
<path class="st1" d="M310,339.5h-1c-0.83,0-1.5-0.67-1.5-1.5s0.67-1.5,1.5-1.5h1c1.15,0,2.26-0.22,3.31-0.67
	c0.76-0.32,1.64,0.04,1.97,0.8c0.32,0.76-0.03,1.64-0.8,1.97C313.06,339.2,311.55,339.5,310,339.5z M300,339.5h-5
	c-0.83,0-1.5-0.67-1.5-1.5s0.67-1.5,1.5-1.5h5c0.83,0,1.5,0.67,1.5,1.5S300.83,339.5,300,339.5z M286,339.5h-5
	c-0.83,0-1.5-0.67-1.5-1.5s0.67-1.5,1.5-1.5h5c0.83,0,1.5,0.67,1.5,1.5S286.83,339.5,286,339.5z M272,339.5h-5
	c-0.83,0-1.5-0.67-1.5-1.5s0.67-1.5,1.5-1.5h5c0.83,0,1.5,0.67,1.5,1.5S272.83,339.5,272,339.5z M319.64,332.18
	c-0.13,0-0.27-0.02-0.4-0.05c-0.8-0.22-1.27-1.05-1.04-1.85c0.21-0.74,0.31-1.51,0.31-2.28v-2.29c0-0.83,0.67-1.5,1.5-1.5
	s1.5,0.67,1.5,1.5V328c0,1.04-0.14,2.08-0.42,3.08C320.9,331.75,320.29,332.18,319.64,332.18z M320,318.21c-0.83,0-1.5-0.67-1.5-1.5
	v-5c0-0.83,0.67-1.5,1.5-1.5s1.5,0.67,1.5,1.5v5C321.5,317.54,320.83,318.21,320,318.21z M320,304.21c-0.83,0-1.5-0.67-1.5-1.5v-5
	c0-0.83,0.67-1.5,1.5-1.5s1.5,0.67,1.5,1.5v5C321.5,303.54,320.83,304.21,320,304.21z M320,290.21c-0.83,0-1.5-0.67-1.5-1.5v-5
	c0-0.83,0.67-1.5,1.5-1.5s1.5,0.67,1.5,1.5v5C321.5,289.54,320.83,290.21,320,290.21z M320,276.21c-0.83,0-1.5-0.67-1.5-1.5v-5
	c0-0.83,0.67-1.5,1.5-1.5s1.5,0.67,1.5,1.5v5C321.5,275.54,320.83,276.21,320,276.21z M320,262.21c-0.83,0-1.5-0.67-1.5-1.5v-5
	c0-0.83,0.67-1.5,1.5-1.5s1.5,0.67,1.5,1.5v5C321.5,261.54,320.83,262.21,320,262.21z"/>
<rect class="st4" width="400" height="400"/>
<circle class="st5" cx="304" cy="44" r="4"/>
<circle class="st5" cx="263.5" cy="22.5" r="2.5"/>
<path class="st5" d="M284.6,78.4c2.65,0,4.8-2.15,4.8-4.8c0-0.88,0.72-1.6,1.6-1.6s1.6,0.72,1.6,1.6c0,2.65,2.15,4.8,4.8,4.8
	c0.88,0,1.6,0.72,1.6,1.6s-0.72,1.6-1.6,1.6c-2.65,0-4.8,2.15-4.8,4.8c0,0.88-0.72,1.6-1.6,1.6s-1.6-0.72-1.6-1.6
	c0-2.65-2.15-4.8-4.8-4.8c-0.88,0-1.6-0.72-1.6-1.6S283.72,78.4,284.6,78.4z"/>
<path class="st5" d="M78.6,51.4c2.65,0,4.8-2.15,4.8-4.8c0-0.88,0.72-1.6,1.6-1.6s1.6,0.72,1.6,1.6c0,2.65,2.15,4.8,4.8,4.8
	c0.88,0,1.6,0.72,1.6,1.6s-0.72,1.6-1.6,1.6c-2.65,0-4.8,2.15-4.8,4.8c0,0.88-0.72,1.6-1.6,1.6s-1.6-0.72-1.6-1.6
	c0-2.65-2.15-4.8-4.8-4.8c-0.88,0-1.6-0.72-1.6-1.6S77.72,51.4,78.6,51.4z"/>
<circle class="st5" cx="46" cy="115" r="5"/>
<path class="st5" d="M342.8,364.2c2.98,0,5.4-2.42,5.4-5.4c0-0.99,0.81-1.8,1.8-1.8s1.8,0.81,1.8,1.8c0,2.98,2.42,5.4,5.4,5.4
	c0.99,0,1.8,0.81,1.8,1.8s-0.81,1.8-1.8,1.8c-2.98,0-5.4,2.42-5.4,5.4c0,0.99-0.81,1.8-1.8,1.8s-1.8-0.81-1.8-1.8
	c0-2.98-2.42-5.4-5.4-5.4c-0.99,0-1.8-0.81-1.8-1.8S341.81,364.2,342.8,364.2z"/>
<path class="st5" d="M80.8,343.2c2.98,0,5.4-2.42,5.4-5.4c0-0.99,0.81-1.8,1.8-1.8s1.8,0.81,1.8,1.8c0,2.98,2.42,5.4,5.4,5.4
	c0.99,0,1.8,0.81,1.8,1.8s-0.81,1.8-1.8,1.8c-2.98,0-5.4,2.42-5.4,5.4c0,0.99-0.81,1.8-1.8,1.8s-1.8-0.81-1.8-1.8
	c0-2.98-2.42-5.4-5.4-5.4c-0.99,0-1.8-0.81-1.8-1.8S79.81,343.2,80.8,343.2z"/>
<circle class="st5" cx="99" cy="296" r="3"/>
<circle class="st5" cx="305" cy="363" r="3"/>
<circle class="st5" cx="351.5" cy="318.5" r="2.5"/>
<circle class="st5" cx="45" cy="314" r="4"/>
<path class="st5" d="M103,104h-7v-7c0-1.66-1.34-3-3-3s-3,1.34-3,3v7h-7c-1.66,0-3,1.34-3,3s1.34,3,3,3h7v7c0,1.66,1.34,3,3,3
	s3-1.34,3-3v-7h7c1.66,0,3-1.34,3-3S104.66,104,103,104z"/>
<path class="st6" d="M131,373c-4.96,0-9-4.04-9-9v-88c0-4.96,4.04-9,9-9h138c4.96,0,9,4.04,9,9v88c0,4.96-4.04,9-9,9H131z"/>
<path class="st1" d="M269,270c3.31,0,6,2.69,6,6v88c0,3.31-2.69,6-6,6H131c-3.31,0-6-2.69-6-6v-88c0-3.31,2.69-6,6-6H269 M269,264
	H131c-6.62,0-12,5.38-12,12v88c0,6.62,5.38,12,12,12h138c6.62,0,12-5.38,12-12v-88C281,269.38,275.62,264,269,264L269,264z"/>
<path class="st7" d="M193.67,342.48L125,270l0,16.28l60.29,64.31c3.95,4.21,10.64,4.21,14.59,0l5.7-6.08
	C201.72,346.51,196.82,345.84,193.67,342.48z"/>
<path class="st1" d="M200,348.38c-3.58,0-7.04-1.5-9.48-4.11l-67.7-72.22c-1.13-1.21-1.07-3.11,0.14-4.24
	c1.21-1.13,3.11-1.07,4.24,0.14l67.7,72.22c1.34,1.43,3.15,2.21,5.11,2.21c1.96,0,3.77-0.79,5.11-2.21l67.71-72.22
	c1.13-1.21,3.03-1.27,4.24-0.14c1.21,1.13,1.27,3.03,0.14,4.24l-67.71,72.22C207.04,346.88,203.58,348.38,200,348.38z"/>
<path class="st1" d="M275,373c-0.82,0-1.64-0.33-2.23-0.99l-45-50c-1.11-1.23-1.01-3.13,0.22-4.24c1.23-1.11,3.13-1.01,4.24,0.22
	l45,50c1.11,1.23,1.01,3.13-0.22,4.24C276.43,372.75,275.72,373,275,373z"/>
<path class="st1" d="M125,373c-0.71,0-1.43-0.25-2.01-0.77c-1.23-1.11-1.33-3-0.22-4.24l45-50c1.11-1.23,3-1.33,4.24-0.22
	c1.23,1.11,1.33,3,0.22,4.24l-45,50C126.64,372.67,125.82,373,125,373z"/>
<path class="st1" d="M200.36,315.47c-5.29,0-10.71-1.42-15.4-4.27c-0.94-0.57-1.25-1.8-0.67-2.75c0.57-0.94,1.8-1.24,2.75-0.67
	c8,4.86,18.86,4.87,25.82,0.03c0.91-0.63,2.15-0.41,2.78,0.5c0.63,0.91,0.41,2.15-0.5,2.78
	C210.95,314.01,205.72,315.47,200.36,315.47z"/>
<path class="st1" d="M195.82,318.58c2.7,0.79,5.66,0.86,8.34,0c1.29-0.47,2.34,1.21,1.39,2.17c0,0-0.72,0.76-0.72,0.76
	c-2.84,2.68-7.68,2.05-10.33-0.58C193.38,319.98,194.45,318.12,195.82,318.58L195.82,318.58z"/>
<path class="st1" d="M217.5,304.55c-0.32,0-0.64-0.08-0.94-0.24c-1.89-1.02-5.21-1.02-7.11,0c-0.98,0.52-2.19,0.16-2.71-0.82
	c-0.52-0.97-0.16-2.19,0.82-2.71c3.05-1.64,7.84-1.64,10.89,0c0.97,0.52,1.34,1.73,0.82,2.71
	C218.9,304.17,218.21,304.55,217.5,304.55z"/>
<circle class="st1" cx="213" cy="295.8" r="7"/>
<circle class="st8" cx="214.75" cy="295.8" r="1.75"/>
<path class="st1" d="M209.82,279.03c3.88-1.96,9.09-1.1,11.87,2.37c1.42,1.7,3.01,5.58-0.05,6.26c-0.76,0.12-1.39-0.25-1.92-0.71
	c-2.27-2.11-4.59-3.2-7.62-3.72c-0.73-0.14-1.45-0.3-2.09-0.59C208.42,282.11,208.32,279.73,209.82,279.03L209.82,279.03z"/>
<path class="st1" d="M191.5,304.55c-0.32,0-0.64-0.08-0.94-0.24c-1.89-1.02-5.22-1.02-7.11,0c-0.97,0.52-2.19,0.16-2.71-0.82
	c-0.52-0.97-0.16-2.19,0.82-2.71c3.05-1.64,7.84-1.64,10.89,0c0.97,0.52,1.34,1.73,0.82,2.71
	C192.9,304.17,192.21,304.55,191.5,304.55z"/>
<circle class="st1" cx="187" cy="295.8" r="7"/>
<circle class="st8" cx="188.75" cy="295.8" r="1.75"/>
<path class="st1" d="M189.25,282.92c-1.59,0.4-3.56,0.69-5.03,1.36c-1.59,0.65-2.54,1.49-3.95,2.67c-0.91,0.92-2.43,1.02-3.26-0.06
	c-0.35-0.45-0.48-1.01-0.41-1.53c0.19-1.37,0.71-2.79,1.7-3.96c2.29-2.91,6.42-3.97,9.89-3.11c1.6,0.36,3.8,1.32,2.86,3.39
	C190.72,282.42,189.93,282.68,189.25,282.92L189.25,282.92z"/>
<path class="st9" d="M309,215c-1.38,0-2.58-0.94-2.91-2.27l-4-16c-0.22-0.9-0.02-1.85,0.55-2.57c0.57-0.73,1.44-1.15,2.36-1.15h8
	c1.66,0,3,1.34,3,3v16c0,1.66-1.34,3-3,3H309z"/>
<path class="st1" d="M313,196v16h-4l-4-16H313 M313,190h-8c-1.85,0-3.59,0.85-4.73,2.31c-1.14,1.46-1.54,3.36-1.09,5.15l4,16
	c0.67,2.67,3.07,4.54,5.82,4.54h4c3.31,0,6-2.69,6-6v-16C319,192.69,316.31,190,313,190L313,190z"/>
<path class="st9" d="M293,191c-2.76,0-5-2.24-5-5v-8c0-2.76,2.24-5,5-5h6c2.76,0,5,2.24,5,5v8c0,2.76-2.24,5-5,5H293z"/>
<path class="st1" d="M299,176c1.1,0,2,0.9,2,2v8c0,1.1-0.9,2-2,2h-6c-1.1,0-2-0.9-2-2v-8c0-1.1,0.9-2,2-2H299 M299,170h-6
	c-4.41,0-8,3.59-8,8v8c0,4.41,3.59,8,8,8h6c4.41,0,8-3.59,8-8v-8C307,173.59,303.41,170,299,170L299,170z"/>
<path class="st9" d="M341,202c-0.86,0-1.7-0.37-2.28-1.05c-0.08-0.1-8.37-9.54-21.72-9.54c-1.66,0-3-1.34-3-3v-12.83
	c0-1.66,1.34-3,3-3c13.46,0,21.63-9.43,21.71-9.53c0.58-0.68,1.42-1.06,2.29-1.06c0.35,0,0.7,0.06,1.03,0.18
	c1.18,0.43,1.96,1.56,1.96,2.82v34c0,1.26-0.78,2.38-1.96,2.82C341.7,201.94,341.35,202,341,202z"/>
<path class="st1" d="M341,165l0,34c0,0-9-10.58-24-10.58v-12.83C332,175.58,341,165,341,165 M341,159c-1.72,0-3.39,0.74-4.55,2.09
	c-0.35,0.4-7.6,8.5-19.45,8.5c-3.31,0-6,2.69-6,6v12.83c0,1.59,0.63,3.12,1.76,4.24s2.65,1.76,4.24,1.76
	c11.89,0,19.36,8.39,19.43,8.47c1.16,1.37,2.85,2.11,4.57,2.11c0.69,0,1.39-0.12,2.07-0.37c2.36-0.87,3.93-3.12,3.93-5.63l0-34
	c0-2.52-1.57-4.76-3.93-5.63C342.39,159.12,341.69,159,341,159L341,159z"/>
<path class="st10" d="M317,175.58v4c15,0,24-8.58,24-8.58v-6C341,165,332,175.58,317,175.58z"/>
<path class="st9" d="M346,209c-3.31,0-6-2.69-6-6v-42c0-3.31,2.69-6,6-6s6,2.69,6,6v42C352,206.31,349.31,209,346,209z"/>
<path class="st1" d="M346,158c1.66,0,3,1.34,3,3l0,42c0,1.66-1.34,3-3,3h0c-1.66,0-3-1.34-3-3l0-42C343,159.34,344.34,158,346,158
	 M346,152c-4.96,0-9,4.04-9,9l0,42c0,4.96,4.04,9,9,9s9-4.04,9-9l0-42C355,156.04,350.96,152,346,152L346,152z"/>
<path class="st10" d="M346,158c-1.66,0-3,1.34-3,3v9c0-1.66,1.34-3,3-3c1.66,0,3,1.34,3,3v-9C349,159.34,347.66,158,346,158z"/>
<path class="st9" d="M303,196c-2.76,0-5-2.24-5-5v-18c0-2.76,2.24-5,5-5h12c2.76,0,5,2.24,5,5v18c0,2.76-2.24,5-5,5H303z"/>
<path class="st1" d="M315,171c1.1,0,2,0.9,2,2l0,18c0,1.1-0.9,2-2,2l-12,0c-1.1,0-2-0.9-2-2v-18c0-1.1,0.9-2,2-2H315 M315,165h-12
	c-4.41,0-8,3.59-8,8v18c0,4.41,3.59,8,8,8l12,0c4.41,0,8-3.59,8-8l0-18C323,168.59,319.41,165,315,165L315,165z"/>
<path class="st10" d="M301,175l16,0v-2c0-1.1-0.9-2-2-2l-12,0c-1.1,0-2,0.9-2,2L301,175z"/>
<path class="st11" d="M187,141c-1.66,0-3-1.34-3-3V36c0-1.66,1.34-3,3-3h12c1.66,0,3,1.34,3,3v102c0,1.66-1.34,3-3,3H187z"/>
<path class="st1" d="M199,36v102h-12V36H199 M199,30h-12c-3.31,0-6,2.69-6,6v102c0,3.31,2.69,6,6,6h12c3.31,0,6-2.69,6-6V36
	C205,32.69,202.31,30,199,30L199,30z"/>
<path class="st11" d="M175,126c-4.96,0-9-4.04-9-9v-12c0-1.66,1.34-3,3-3h12c1.66,0,3,1.34,3,3v3h18V96h-27c-4.96,0-9-4.04-9-9V57
	c0-4.96,4.04-9,9-9h36c4.96,0,9,4.04,9,9v12c0,1.66-1.34,3-3,3h-12c-1.66,0-3-1.34-3-3v-3h-18v12h27c4.96,0,9,4.04,9,9v30
	c0,4.96-4.04,9-9,9H175z"/>
<path class="st1" d="M211,51c3.31,0,6,2.69,6,6v12h-12v-6h-24v18h30c3.31,0,6,2.69,6,6v30c0,3.31-2.69,6-6,6h-36c-3.31,0-6-2.69-6-6
	v-12h12v6h24V93h-30c-3.31,0-6-2.69-6-6V57c0-3.31,2.69-6,6-6H211 M211,45h-36c-6.62,0-12,5.38-12,12v30c0,6.62,5.38,12,12,12h-6
	c-3.31,0-6,2.69-6,6v12c0,6.62,5.38,12,12,12h36c6.62,0,12-5.38,12-12V87c0-6.62-5.38-12-12-12h-24v-6h12c0,3.31,2.69,6,6,6h12
	c3.31,0,6-2.69,6-6V57C223,50.38,217.62,45,211,45L211,45z M181,99h18v6h-12C187,101.69,184.31,99,181,99L181,99z"/>
<rect x="181" y="111" class="st12" width="24" height="3"/>
<path class="st12" d="M172,54h42c1.66,0,3,1.34,3,3c0-3.31-2.69-6-6-6h-36c-3.31,0-6,2.69-6,6C169,55.34,170.34,54,172,54z"/>
<path class="st12" d="M181,84h33c1.66,0,3,1.34,3,3c0-3.31-2.69-6-6-6h-30V84z"/>
<rect x="187" y="36" class="st12" width="12" height="3"/>
<rect x="187" y="129" class="st13" width="12" height="3"/>
<rect x="187" y="99" class="st13" width="12" height="3"/>
<rect x="187" y="69" class="st13" width="12" height="3"/>
<path class="st5" d="M48.83,220.74c-1.1,0-2-0.9-2-2v-36c0-15.44,12.56-28,28-28s28,12.56,28,28v36c0,1.1-0.9,2-2,2H48.83z"/>
<path class="st1" d="M74.83,156.74c14.36,0,26,11.64,26,26v36h-52v-36C48.83,168.38,60.47,156.74,74.83,156.74L74.83,156.74
	 M74.83,152.74c-16.54,0-30,13.46-30,30v36c0,2.21,1.79,4,4,4h52c2.21,0,4-1.79,4-4v-36C104.83,166.2,91.37,152.74,74.83,152.74
	L74.83,152.74z"/>
<path class="st1" d="M95.83,220.24c-0.83,0-1.5-0.67-1.5-1.5v-20c0-0.83,0.67-1.5,1.5-1.5s1.5,0.67,1.5,1.5v20
	C97.33,219.57,96.66,220.24,95.83,220.24z"/>
<path class="st1" d="M88.83,220.24c-0.83,0-1.5-0.67-1.5-1.5v-20c0-0.83,0.67-1.5,1.5-1.5s1.5,0.67,1.5,1.5v20
	C90.33,219.57,89.66,220.24,88.83,220.24z"/>
<path class="st1" d="M60.83,220.24c-0.83,0-1.5-0.67-1.5-1.5v-20c0-0.83,0.67-1.5,1.5-1.5s1.5,0.67,1.5,1.5v20
	C62.33,219.57,61.66,220.24,60.83,220.24z"/>
<path class="st1" d="M53.83,220.24c-0.83,0-1.5-0.67-1.5-1.5v-20c0-0.83,0.67-1.5,1.5-1.5s1.5,0.67,1.5,1.5v20
	C55.33,219.57,54.66,220.24,53.83,220.24z"/>
<path class="st14" d="M96.43,228.43l-21-6.6c-0.2-0.06-0.4-0.09-0.6-0.09s-0.4,0.03-0.6,0.09l-21,6.6
	c-9.21,2.9-15.4,11.33-15.4,20.99v0.52c8.99,6.55,19.77,10.77,31.46,11.8h11.08c11.69-1.02,22.47-5.25,31.46-11.8v-0.52
	C111.83,239.76,105.64,231.33,96.43,228.43z"/>
<path class="st1" d="M97.03,226.53l-21-6.6c-0.39-0.12-0.79-0.18-1.2-0.18s-0.81,0.06-1.2,0.18l-21,6.6
	c-9.74,3.06-16.36,11.8-16.77,21.93c1.28,1.01,2.6,1.99,3.96,2.9v-1.93c0-8.74,5.67-16.46,14-19.08l21-6.6l21,6.6
	c8.33,2.62,14,10.34,14,19.08v1.93c1.36-0.91,2.68-1.89,3.96-2.9C113.39,238.33,106.77,229.59,97.03,226.53z"/>
<path class="st15" d="M74.83,237.74c-0.35,0-0.71-0.09-1.03-0.28c-0.71-0.43-6.97-4.32-6.97-9.72v-34c0-1.1,0.9-2,2-2h12
	c1.1,0,2,0.9,2,2v34c0,5.4-6.26,9.29-6.97,9.72C75.54,237.65,75.19,237.74,74.83,237.74z"/>
<path class="st1" d="M80.83,193.74v34c0,4.42-6,8-6,8h0c0,0-6-3.58-6-8v-34H80.83 M80.83,189.74h-12c-2.21,0-4,1.79-4,4v34
	c0,6.5,7.14,10.95,7.95,11.43c0.63,0.38,1.34,0.57,2.05,0.57s1.42-0.19,2.05-0.57c0.81-0.49,7.95-4.93,7.95-11.43v-34
	C84.83,191.53,83.04,189.74,80.83,189.74L80.83,189.74z"/>
<path class="st16" d="M68.83,193.74v29.95c1.88,0.67,3.89,1.05,6,1.05s4.12-0.38,6-1.05v-29.95H68.83z"/>
<circle class="st15" cx="96.83" cy="193.74" r="6"/>
<path class="st1" d="M96.83,189.74c2.21,0,4,1.79,4,4c0,2.21-1.79,4-4,4c-2.21,0-4-1.79-4-4C92.83,191.53,94.62,189.74,96.83,189.74
	 M96.83,185.74c-4.41,0-8,3.59-8,8s3.59,8,8,8s8-3.59,8-8S101.24,185.74,96.83,185.74L96.83,185.74z"/>
<circle class="st16" cx="52.83" cy="193.74" r="6"/>
<path class="st1" d="M52.83,189.74c2.21,0,4,1.79,4,4c0,2.21-1.79,4-4,4c-2.21,0-4-1.79-4-4C48.83,191.53,50.62,189.74,52.83,189.74
	 M52.83,185.74c-4.41,0-8,3.59-8,8s3.59,8,8,8s8-3.59,8-8S57.24,185.74,52.83,185.74L52.83,185.74z"/>
<circle class="st14" cx="74.83" cy="176.74" r="22"/>
<path class="st1" d="M74.83,156.74c11.05,0,20,8.95,20,20c0,11.05-8.95,20-20,20s-20-8.95-20-20
	C54.83,165.7,63.79,156.74,74.83,156.74 M74.83,152.74c-13.23,0-24,10.77-24,24s10.77,24,24,24s24-10.77,24-24
	S88.06,152.74,74.83,152.74L74.83,152.74z"/>
<path class="st15" d="M74.83,216.74c-11.03,0-20-8.97-20-20v-14c0-11.03,8.97-20,20-20s20,8.97,20,20v14
	C94.83,207.77,85.86,216.74,74.83,216.74z"/>
<path class="st1" d="M74.83,164.74c9.94,0,18,8.06,18,18v14c0,9.94-8.06,18-18,18h0c-9.94,0-18-8.06-18-18v-14
	C56.83,172.8,64.89,164.74,74.83,164.74L74.83,164.74 M74.83,160.74c-12.13,0-22,9.87-22,22v14c0,12.13,9.87,22,22,22
	c12.13,0,22-9.87,22-22v-14C96.83,170.61,86.96,160.74,74.83,160.74L74.83,160.74z"/>
<path class="st16" d="M60.83,196.74v-14c0-9.26,7-16.89,16-17.88c-0.66-0.07-1.32-0.12-2-0.12c-9.94,0-18,8.06-18,18v14
	c0,9.94,8.06,18,18,18c0.68,0,1.34-0.04,2-0.12C67.83,213.63,60.83,206.01,60.83,196.74z"/>
<path class="st0" d="M56.83,184.74c-1.1,0-2-0.9-2-2c0-11.03,8.97-20,20-20s20,8.97,20,20c0,1.1-0.9,2-2,2H56.83z"/>
<path class="st1" d="M74.83,164.74c9.94,0,18,8.06,18,18v0h-36v0C56.83,172.8,64.89,164.74,74.83,164.74L74.83,164.74 M74.83,160.74
	c-12.13,0-22,9.87-22,22c0,2.21,1.79,4,4,4l36,0c1.06,0,2.08-0.42,2.83-1.17c0.75-0.75,1.17-1.77,1.17-2.83
	C96.83,170.61,86.96,160.74,74.83,160.74L74.83,160.74z"/>
<path class="st1" d="M74.96,206.25c-2.04,0-4.13-0.57-5.93-1.72c-0.7-0.45-0.9-1.37-0.46-2.07c0.45-0.7,1.37-0.9,2.07-0.46
	c2.59,1.65,6.08,1.66,8.31,0.04c0.67-0.49,1.61-0.34,2.1,0.33c0.49,0.67,0.34,1.61-0.33,2.1C79.08,205.65,77.04,206.25,74.96,206.25
	z"/>
<circle class="st1" cx="66.33" cy="190.74" r="3"/>
<circle class="st1" cx="83.33" cy="190.74" r="3"/>
<path class="st1" d="M74.83,201.24c-2.48,0-4.5-2.02-4.5-4.5v-5c0-0.83,0.67-1.5,1.5-1.5s1.5,0.67,1.5,1.5v5
	c0,0.83,0.67,1.5,1.5,1.5s1.5-0.67,1.5-1.5v-5c0-0.83,0.67-1.5,1.5-1.5s1.5,0.67,1.5,1.5v5C79.33,199.22,77.31,201.24,74.83,201.24z
	"/>
<path class="st1" d="M61.83,184.24c-0.83,0-1.5-0.67-1.5-1.5v-6c0-0.83,0.67-1.5,1.5-1.5s1.5,0.67,1.5,1.5v6
	C63.33,183.57,62.66,184.24,61.83,184.24z"/>
<path class="st1" d="M68.83,184.24c-0.83,0-1.5-0.67-1.5-1.5v-12c0-0.83,0.67-1.5,1.5-1.5s1.5,0.67,1.5,1.5v12
	C70.33,183.57,69.66,184.24,68.83,184.24z"/>
<path class="st1" d="M101.97,243.19c-0.31-1.06-1.41-1.68-2.47-1.37c-1.06,0.3-1.67,1.41-1.37,2.47c1.85,6.44,1.99,10.06,1.35,12.68
	c1.47-0.63,2.91-1.32,4.33-2.06C103.96,251.95,103.43,248.28,101.97,243.19z"/>
<path class="st1" d="M51.54,244.29c0.31-1.06-0.31-2.17-1.37-2.47c-1.06-0.31-2.17,0.31-2.47,1.37c-1.46,5.09-1.99,8.76-1.83,11.73
	c1.41,0.74,2.85,1.43,4.33,2.06C49.55,254.36,49.69,250.73,51.54,244.29z"/>
<path class="st1" d="M74.83,139c33.14,0,60,26.86,60,60s-26.86,60-60,60s-60-26.86-60-60S41.69,139,74.83,139 M74.83,133
	c-36.39,0-66,29.61-66,66s29.61,66,66,66s66-29.61,66-66S111.22,133,74.83,133L74.83,133z"/>
</svg>
