<?xml version="1.0" encoding="utf-8"?>
<!-- Generator: Adobe Illustrator 26.0.1, SVG Export Plug-In . SVG Version: 6.00 Build 0)  -->
<svg version="1.1" id="Google_x5F_Hub-Google_x5F_Discovery_x5F_Ads"
	 xmlns="http://www.w3.org/2000/svg" xmlns:xlink="http://www.w3.org/1999/xlink" x="0px" y="0px" viewBox="0 0 400 400"
	 style="enable-background:new 0 0 400 400;" xml:space="preserve">
<style type="text/css">
	.st0{fill:#515979;}
	.st1{fill:#747A94;}
	.st2{fill:#FFF5E6;}
	.st3{fill:#F5DCC8;}
	.st4{fill:#FFFFFF;}
	.st5{fill:#F3F9FE;}
	.st6{fill:#667683;}
	.st7{fill:#EF7D7D;}
	.st8{fill:#FFE8A0;}
	.st9{fill:#7DDF96;}
	.st10{fill:#2196F3;}
	.st11{fill:#E06B52;}
	.st12{fill:#FFD886;}
	.st13{fill:#00C853;}
	.st14{fill:#E8F3FD;}
	.st15{fill:#FDE1D9;}
	.st16{fill:#FBBD04;}
	.st17{fill:#438EDC;}
	.st18{fill:#34A952;}
	.st19{fill:none;}
</style>
<g>
	<path class="st0" d="M344.31,270.17c-0.83,0-1.5-0.67-1.5-1.5v-5c0-0.83,0.67-1.5,1.5-1.5s1.5,0.67,1.5,1.5v5
		C345.81,269.5,345.14,270.17,344.31,270.17z M344.31,256.17c-0.83,0-1.5-0.67-1.5-1.5v-5c0-0.83,0.67-1.5,1.5-1.5s1.5,0.67,1.5,1.5
		v5C345.81,255.5,345.14,256.17,344.31,256.17z M344.31,242.17c-0.83,0-1.5-0.67-1.5-1.5v-5c0-0.83,0.67-1.5,1.5-1.5
		s1.5,0.67,1.5,1.5v5C345.81,241.5,345.14,242.17,344.31,242.17z M344.31,228.17c-0.83,0-1.5-0.67-1.5-1.5v-5
		c0-0.83,0.67-1.5,1.5-1.5s1.5,0.67,1.5,1.5v5C345.81,227.5,345.14,228.17,344.31,228.17z M344.31,214.17c-0.83,0-1.5-0.67-1.5-1.5
		v-5c0-0.83,0.67-1.5,1.5-1.5s1.5,0.67,1.5,1.5v5C345.81,213.5,345.14,214.17,344.31,214.17z M344.31,200.17
		c-0.83,0-1.5-0.67-1.5-1.5v-5c0-0.83,0.67-1.5,1.5-1.5s1.5,0.67,1.5,1.5v5C345.81,199.5,345.14,200.17,344.31,200.17z
		 M344.37,186.17c-0.05,0-0.11,0-0.16-0.01c-0.82-0.09-1.42-0.82-1.34-1.65c0.2-1.91,0.89-3.76,1.99-5.34
		c0.48-0.68,1.41-0.84,2.09-0.37c0.68,0.47,0.84,1.41,0.37,2.09c-0.81,1.16-1.32,2.52-1.47,3.93
		C345.78,185.6,345.13,186.17,344.37,186.17z M353.69,177.31c-0.79,0-1.45-0.62-1.5-1.42c-0.05-0.83,0.59-1.54,1.41-1.58
		c0.21-0.01,0.42-0.02,0.63-0.02h4.45c0.83,0,1.5,0.67,1.5,1.5s-0.67,1.5-1.5,1.5h-4.45c-0.16,0-0.31,0-0.47,0.01
		C353.75,177.31,353.72,177.31,353.69,177.31z M371.71,177.29h-4.01c-0.83,0-1.5-0.67-1.5-1.5s0.67-1.5,1.5-1.5h4.01
		c0.28,0,0.56-0.01,0.84-0.04c0.82-0.09,1.56,0.52,1.64,1.35c0.08,0.82-0.52,1.56-1.35,1.64
		C372.46,177.27,372.09,177.29,371.71,177.29z M380.09,172.69c-0.28,0-0.55-0.08-0.8-0.23c-0.7-0.44-0.91-1.37-0.46-2.07
		c0.76-1.2,1.21-2.58,1.29-3.99c0.05-0.83,0.75-1.45,1.59-1.41c0.83,0.05,1.46,0.76,1.41,1.59c-0.12,1.92-0.72,3.79-1.76,5.42
		C381.07,172.44,380.59,172.69,380.09,172.69z M381.63,158.98c-0.83,0-1.5-0.67-1.5-1.5v-5c0-0.83,0.67-1.5,1.5-1.5
		s1.5,0.67,1.5,1.5v5C383.13,158.31,382.46,158.98,381.63,158.98z M381.63,144.98c-0.83,0-1.5-0.67-1.5-1.5v-5
		c0-0.83,0.67-1.5,1.5-1.5s1.5,0.67,1.5,1.5v5C383.13,144.31,382.46,144.98,381.63,144.98z M381.63,130.98c-0.83,0-1.5-0.67-1.5-1.5
		v-5c0-0.83,0.67-1.5,1.5-1.5s1.5,0.67,1.5,1.5v5C383.13,130.31,382.46,130.98,381.63,130.98z M381.13,117.04
		c-0.63,0-1.21-0.4-1.42-1.03c-0.45-1.34-1.23-2.56-2.28-3.53c-0.61-0.56-0.65-1.51-0.08-2.12c0.56-0.61,1.51-0.65,2.12-0.08
		c1.42,1.31,2.48,2.96,3.09,4.78c0.26,0.79-0.16,1.64-0.95,1.9C381.45,117.01,381.29,117.04,381.13,117.04z M370.11,110.25h-5
		c-0.83,0-1.5-0.67-1.5-1.5s0.67-1.5,1.5-1.5h5c0.83,0,1.5,0.67,1.5,1.5S370.94,110.25,370.11,110.25z M356.11,110.25h-5
		c-0.83,0-1.5-0.67-1.5-1.5s0.67-1.5,1.5-1.5h5c0.83,0,1.5,0.67,1.5,1.5S356.94,110.25,356.11,110.25z M342.11,110.25h-5
		c-0.83,0-1.5-0.67-1.5-1.5s0.67-1.5,1.5-1.5h5c0.83,0,1.5,0.67,1.5,1.5S342.94,110.25,342.11,110.25z M328.11,110.25h-5
		c-0.83,0-1.5-0.67-1.5-1.5s0.67-1.5,1.5-1.5h5c0.83,0,1.5,0.67,1.5,1.5S328.94,110.25,328.11,110.25z M314.11,110.25h-5
		c-0.83,0-1.5-0.67-1.5-1.5s0.67-1.5,1.5-1.5h5c0.83,0,1.5,0.67,1.5,1.5S314.94,110.25,314.11,110.25z"/>
</g>
<g>
	<path class="st0" d="M250.03,290.13h-5c-0.83,0-1.5-0.67-1.5-1.5s0.67-1.5,1.5-1.5h5c0.83,0,1.5,0.67,1.5,1.5
		S250.86,290.13,250.03,290.13z M236.03,290.13h-5c-0.83,0-1.5-0.67-1.5-1.5s0.67-1.5,1.5-1.5h5c0.83,0,1.5,0.67,1.5,1.5
		S236.86,290.13,236.03,290.13z M222.03,290.13h-5c-0.83,0-1.5-0.67-1.5-1.5s0.67-1.5,1.5-1.5h5c0.83,0,1.5,0.67,1.5,1.5
		S222.86,290.13,222.03,290.13z M208.03,290.13L208.03,290.13c-1.93,0-3.83-0.48-5.51-1.4c-0.73-0.4-1-1.31-0.6-2.04
		c0.4-0.73,1.31-1,2.04-0.6c1.24,0.68,2.65,1.03,4.07,1.03c0.83,0,1.5,0.67,1.5,1.5S208.86,290.13,208.03,290.13z M198.15,281.85
		c-0.72,0-1.35-0.51-1.48-1.24c-0.11-0.65-0.17-1.32-0.17-1.99v-3.26c0-0.83,0.67-1.5,1.5-1.5s1.5,0.67,1.5,1.5v3.26
		c0,0.5,0.04,0.99,0.13,1.48c0.14,0.82-0.4,1.59-1.22,1.74C198.33,281.84,198.24,281.85,198.15,281.85z M198.01,267.86
		c-0.83,0-1.5-0.67-1.5-1.5v-2.84c0-0.61-0.07-1.23-0.19-1.82c-0.18-0.81,0.34-1.61,1.15-1.78c0.81-0.18,1.61,0.34,1.78,1.15
		c0.17,0.8,0.26,1.63,0.26,2.46v2.84C199.51,267.19,198.84,267.86,198.01,267.86z M192.41,256.03c-0.22,0-0.45-0.05-0.66-0.15
		c-1.17-0.58-2.44-0.87-3.76-0.87h-0.42c-0.83,0-1.5-0.67-1.5-1.5s0.67-1.5,1.5-1.5h0.42c1.78,0,3.49,0.4,5.08,1.18
		c0.74,0.37,1.05,1.26,0.68,2.01C193.5,255.72,192.96,256.03,192.41,256.03z M178.57,255h-5c-0.83,0-1.5-0.67-1.5-1.5
		s0.67-1.5,1.5-1.5h5c0.83,0,1.5,0.67,1.5,1.5S179.4,255,178.57,255z M164.57,255h-5c-0.83,0-1.5-0.67-1.5-1.5s0.67-1.5,1.5-1.5h5
		c0.83,0,1.5,0.67,1.5,1.5S165.4,255,164.57,255z M150.57,255h-5c-0.83,0-1.5-0.67-1.5-1.5s0.67-1.5,1.5-1.5h5
		c0.83,0,1.5,0.67,1.5,1.5S151.4,255,150.57,255z M136.57,255h-5c-0.83,0-1.5-0.67-1.5-1.5s0.67-1.5,1.5-1.5h5
		c0.83,0,1.5,0.67,1.5,1.5S137.4,255,136.57,255z"/>
</g>
<g>
	<path class="st0" d="M66.36,291.88h-5c-0.83,0-1.5-0.67-1.5-1.5s0.67-1.5,1.5-1.5h5c0.83,0,1.5,0.67,1.5,1.5
		S67.19,291.88,66.36,291.88z M52.36,291.88h-5c-0.83,0-1.5-0.67-1.5-1.5s0.67-1.5,1.5-1.5h5c0.83,0,1.5,0.67,1.5,1.5
		S53.19,291.88,52.36,291.88z M38.38,291.63c-0.11,0-0.22-0.01-0.33-0.04c-1.87-0.42-3.62-1.31-5.07-2.58
		c-0.62-0.55-0.68-1.5-0.14-2.12c0.55-0.62,1.49-0.68,2.12-0.14c1.07,0.94,2.36,1.6,3.75,1.91c0.81,0.18,1.32,0.98,1.13,1.79
		C39.68,291.16,39.07,291.63,38.38,291.63z M30.57,281.38c-0.83,0-1.5-0.67-1.5-1.5v-5c0-0.83,0.67-1.5,1.5-1.5s1.5,0.67,1.5,1.5v5
		C32.07,280.71,31.39,281.38,30.57,281.38z M30.57,267.38c-0.83,0-1.5-0.67-1.5-1.5v-5c0-0.83,0.67-1.5,1.5-1.5s1.5,0.67,1.5,1.5v5
		C32.07,266.71,31.39,267.38,30.57,267.38z M30.57,253.38c-0.83,0-1.5-0.67-1.5-1.5v-5c0-0.83,0.67-1.5,1.5-1.5s1.5,0.67,1.5,1.5v5
		C32.07,252.71,31.39,253.38,30.57,253.38z M30.57,239.38c-0.83,0-1.5-0.67-1.5-1.5v-5c0-0.83,0.67-1.5,1.5-1.5s1.5,0.67,1.5,1.5v5
		C32.07,238.71,31.39,239.38,30.57,239.38z M30.57,225.38c-0.83,0-1.5-0.67-1.5-1.5v-5c0-0.83,0.67-1.5,1.5-1.5s1.5,0.67,1.5,1.5v5
		C32.07,224.71,31.39,225.38,30.57,225.38z M30.57,211.38c-0.83,0-1.5-0.67-1.5-1.5v-5c0-0.83,0.67-1.5,1.5-1.5s1.5,0.67,1.5,1.5v5
		C32.07,210.71,31.39,211.38,30.57,211.38z M31.2,197.46c-0.18,0-0.35-0.03-0.53-0.1c-0.78-0.29-1.17-1.16-0.88-1.93
		c0.67-1.79,1.8-3.41,3.25-4.66c0.63-0.54,1.57-0.47,2.12,0.15c0.54,0.63,0.47,1.57-0.15,2.12c-1.08,0.93-1.91,2.12-2.41,3.45
		C32.38,197.09,31.81,197.46,31.2,197.46z M47.44,190.96h-5c-0.83,0-1.5-0.67-1.5-1.5s0.67-1.5,1.5-1.5h5c0.83,0,1.5,0.67,1.5,1.5
		S48.27,190.96,47.44,190.96z M56.03,189.04c-0.46,0-0.92-0.21-1.21-0.62c-0.49-0.67-0.34-1.61,0.33-2.1
		c1.15-0.84,2.08-1.96,2.68-3.24c0.35-0.75,1.25-1.07,2-0.71c0.75,0.35,1.07,1.25,0.71,2c-0.82,1.73-2.07,3.25-3.63,4.38
		C56.65,188.95,56.34,189.04,56.03,189.04z M60.15,176.37c-0.83,0-1.5-0.67-1.5-1.5v-5c0-0.83,0.67-1.5,1.5-1.5s1.5,0.67,1.5,1.5v5
		C61.65,175.7,60.98,176.37,60.15,176.37z M60.15,162.37c-0.83,0-1.5-0.67-1.5-1.5v-5c0-0.83,0.67-1.5,1.5-1.5s1.5,0.67,1.5,1.5v5
		C61.65,161.7,60.98,162.37,60.15,162.37z M60.15,148.37c-0.83,0-1.5-0.67-1.5-1.5v-5c0-0.83,0.67-1.5,1.5-1.5s1.5,0.67,1.5,1.5v5
		C61.65,147.7,60.98,148.37,60.15,148.37z M60.15,134.37c-0.83,0-1.5-0.67-1.5-1.5v-5c0-0.83,0.67-1.5,1.5-1.5s1.5,0.67,1.5,1.5v5
		C61.65,133.7,60.98,134.37,60.15,134.37z M60.15,120.37c-0.83,0-1.5-0.67-1.5-1.5v-0.11c0-1.88,0.47-3.75,1.34-5.4
		c0.39-0.73,1.3-1.01,2.03-0.62c0.73,0.39,1.01,1.3,0.62,2.03c-0.65,1.22-0.99,2.6-0.99,4v0.11
		C61.65,119.7,60.98,120.37,60.15,120.37z M68.32,110.42c-0.71,0-1.34-0.5-1.47-1.23c-0.15-0.81,0.39-1.6,1.2-1.75
		c0.69-0.13,1.4-0.19,2.11-0.19h3.15c0.83,0,1.5,0.67,1.5,1.5s-0.67,1.5-1.5,1.5h-3.15c-0.53,0-1.05,0.05-1.57,0.14
		C68.51,110.41,68.41,110.42,68.32,110.42z M101.31,110.25h-5c-0.83,0-1.5-0.67-1.5-1.5s0.67-1.5,1.5-1.5h5c0.83,0,1.5,0.67,1.5,1.5
		S102.14,110.25,101.31,110.25z M87.31,110.25h-5c-0.83,0-1.5-0.67-1.5-1.5s0.67-1.5,1.5-1.5h5c0.83,0,1.5,0.67,1.5,1.5
		S88.14,110.25,87.31,110.25z"/>
</g>
<g>
	<g>
		<g>
			<path class="st1" d="M247.13,312c-1.29,0-2.43-0.82-2.84-2.04c-3.96-11.75-6.95-28.17,1.32-39.7
				c5.27-7.33,14.26-11.37,25.32-11.37c2.87,0,5.85,0.28,8.85,0.82c1.51,0.27,2.57,1.64,2.46,3.18l-3.43,45.84
				c-0.12,1.55-1.39,2.75-2.94,2.78C275.87,311.5,247.15,312,247.13,312z"/>
		</g>
		<g>
			<path class="st0" d="M270.93,261.9c2.72,0,5.51,0.26,8.32,0.77l-3.43,45.84l-28.68,0.5C235.82,275.48,251.39,261.9,270.93,261.9
				 M270.93,255.9c-12.05,0-21.91,4.48-27.75,12.62c-9.02,12.56-5.92,29.99-1.73,42.4c0.82,2.44,3.11,4.08,5.68,4.08
				c0.04,0,0.07,0,0.11,0l28.68-0.5c3.1-0.05,5.65-2.46,5.88-5.55l3.43-45.84c0.23-3.06-1.89-5.8-4.91-6.35
				C277.14,256.19,273.98,255.9,270.93,255.9L270.93,255.9z"/>
		</g>
	</g>
	<g>
		<g>
			<path class="st1" d="M313.69,311.5c-1.55-0.03-2.82-1.23-2.94-2.78l-3.43-45.84c-0.12-1.53,0.95-2.9,2.46-3.18
				c3-0.54,5.98-0.82,8.85-0.82c11.06,0,20.05,4.04,25.32,11.37c4.57,6.36,8.5,18.41,1.32,39.7c-0.41,1.22-1.56,2.04-2.84,2.04
				C342.41,312,313.69,311.5,313.69,311.5z"/>
		</g>
		<g>
			<path class="st0" d="M318.63,261.9c19.53,0,35.11,13.58,23.79,47.11l-28.68-0.5l-3.43-45.84
				C313.12,262.16,315.92,261.9,318.63,261.9 M318.63,255.9v6V255.9C318.63,255.9,318.63,255.9,318.63,255.9
				c-3.05,0-6.21,0.29-9.39,0.87c-3.02,0.55-5.14,3.29-4.91,6.35l3.43,45.84c0.23,3.09,2.78,5.5,5.88,5.55l28.68,0.5
				c0.04,0,0.07,0,0.11,0c2.57,0,4.86-1.64,5.68-4.08c4.19-12.41,7.29-29.84-1.73-42.4C340.54,260.38,330.69,255.9,318.63,255.9
				L318.63,255.9z"/>
		</g>
	</g>
	<g>
		<g>
			<path class="st2" d="M339.31,333.5c-1.66,0-3-1.34-3-3v-22c0-1.66,1.34-3,3-3c7.17,0,13,5.83,13,13v2
				C352.31,327.67,346.48,333.5,339.31,333.5z"/>
		</g>
		<g>
			<g>
				<path class="st0" d="M339.31,308.5c5.52,0,10,4.48,10,10v2c0,5.52-4.48,10-10,10h0L339.31,308.5L339.31,308.5 M339.31,302.5
					c-3.31,0-6,2.69-6,6l0,22c0,1.59,0.63,3.12,1.76,4.24c1.13,1.13,2.65,1.76,4.24,1.76c8.82,0,16-7.18,16-16v-2
					C355.31,309.68,348.14,302.5,339.31,302.5L339.31,302.5z"/>
			</g>
		</g>
	</g>
	<g>
		<g>
			<path class="st3" d="M251.31,333.5c-7.17,0-13-5.83-13-13v-2c0-7.17,5.83-13,13-13c1.66,0,3,1.34,3,3v22
				C254.31,332.16,252.97,333.5,251.31,333.5z"/>
		</g>
		<g>
			<g>
				<path class="st0" d="M251.31,308.5v22h0c-5.52,0-10-4.48-10-10v-2C241.31,312.98,245.79,308.5,251.31,308.5L251.31,308.5
					 M251.31,302.5c-8.82,0-16,7.18-16,16v2c0,8.82,7.18,16,16,16c3.31,0,6-2.69,6-6v-22c0-1.59-0.63-3.12-1.76-4.24
					C254.43,303.14,252.91,302.5,251.31,302.5L251.31,302.5z"/>
			</g>
		</g>
	</g>
	<g>
		<g>
			<path class="st2" d="M295.31,369.5c-24.26,0-44-19.74-44-44v-30c0-24.26,19.74-44,44-44s44,19.74,44,44v30
				C339.31,349.77,319.58,369.5,295.31,369.5z"/>
		</g>
		<g>
			<path class="st0" d="M295.31,254.5c22.64,0,41,18.36,41,41v30c0,22.64-18.36,41-41,41h0c-22.64,0-41-18.36-41-41v-30
				C254.31,272.86,272.67,254.5,295.31,254.5L295.31,254.5 M295.31,248.5c-25.92,0-47,21.08-47,47v30c0,25.92,21.08,47,47,47
				c25.92,0,47-21.08,47-47v-30C342.31,269.59,321.23,248.5,295.31,248.5L295.31,248.5z"/>
		</g>
	</g>
	<g>
		<path class="st3" d="M262.31,325.5v-30c0-21.29,16.23-38.79,37-40.8c-1.32-0.13-2.65-0.2-4-0.2c-22.64,0-41,18.36-41,41v30
			c0,22.64,18.36,41,41,41c1.35,0,2.68-0.07,4-0.2C278.55,364.3,262.31,346.8,262.31,325.5z"/>
	</g>
	<g>
		<circle class="st0" cx="314.31" cy="309.5" r="6"/>
	</g>
	<g>
		<circle class="st4" cx="316.31" cy="309.5" r="1.5"/>
	</g>
	<g>
		<circle class="st0" cx="276.31" cy="309.5" r="6"/>
	</g>
	<g>
		<path class="st0" d="M272.32,316.5c-0.68,0-1.34-0.34-1.71-0.97c-0.57-0.95-0.27-2.17,0.68-2.75c2.82-1.71,7.25-1.7,10.07,0
			c0.95,0.57,1.25,1.8,0.68,2.75c-0.57,0.95-1.8,1.25-2.75,0.68c-1.58-0.95-4.35-0.95-5.93,0
			C273.02,316.41,272.67,316.5,272.32,316.5z"/>
	</g>
	<g>
		<path class="st0" d="M310.32,316.5c-0.68,0-1.34-0.34-1.71-0.97c-0.57-0.95-0.27-2.17,0.68-2.75c2.82-1.71,7.25-1.7,10.07,0
			c0.95,0.57,1.25,1.8,0.68,2.75c-0.57,0.95-1.8,1.25-2.75,0.68c-1.58-0.95-4.35-0.95-5.93,0
			C311.02,316.41,310.67,316.5,310.32,316.5z"/>
	</g>
	<g>
		<circle class="st4" cx="278.31" cy="309.5" r="1.5"/>
	</g>
	<g>
		<path class="st0" d="M295.68,339.97c-5.29,0-10.71-1.42-15.4-4.27c-0.94-0.57-1.25-1.8-0.67-2.75c0.57-0.94,1.8-1.24,2.75-0.67
			c8,4.86,18.86,4.87,25.82,0.03c0.91-0.63,2.15-0.41,2.78,0.5s0.41,2.15-0.5,2.78C306.26,338.51,301.04,339.97,295.68,339.97z"/>
	</g>
	<g>
		<g>
			<path class="st0" d="M291.12,343.1c1.38,0.28,2.79,0.42,4.19,0.41c1.4,0.02,2.8-0.11,4.18-0.4c0.73-0.16,1.45,0.31,1.6,1.04
				c0.11,0.49-0.07,0.98-0.43,1.3l-0.54,0.47c-0.69,0.61-1.49,0.98-2.31,1.23c-0.82,0.26-1.67,0.35-2.52,0.37
				c-0.85-0.02-1.7-0.12-2.51-0.38c-0.81-0.25-1.6-0.61-2.29-1.21l-0.54-0.47c-0.56-0.49-0.62-1.34-0.14-1.91
				C290.16,343.15,290.66,343,291.12,343.1z"/>
		</g>
	</g>
	<g>
		<path class="st0" d="M325.31,261c-0.52,0-1.05-0.16-1.5-0.5c-1.1-0.83-1.33-2.4-0.5-3.5l6-8c0.83-1.1,2.39-1.33,3.5-0.5
			c1.1,0.83,1.33,2.4,0.5,3.5l-6,8C326.82,260.66,326.07,261,325.31,261z"/>
	</g>
	<g>
		<g>
			<path class="st1" d="M245.52,288.73c-3.48,0-5.55-0.1-5.63-0.1c-0.92-0.04-1.76-0.51-2.29-1.25c-0.53-0.75-0.7-1.7-0.44-2.58
				c0.11-0.38,2.79-9.49,9.53-19.25c9.05-13.09,21.13-21.02,34.94-22.94c2.53-0.35,5.05-0.53,7.49-0.53
				c22.86,0,33.52,15.17,33.97,15.81c0.64,0.94,0.7,2.15,0.15,3.15c-6.13,11.08-19.08,19-38.49,23.54
				C269.3,288.19,253.54,288.73,245.52,288.73z"/>
		</g>
		<g>
			<path class="st0" d="M289.11,245.09c21.54,0,31.49,14.51,31.49,14.51c-13.27,24-59.17,26.13-75.08,26.13
				c-3.45,0-5.49-0.1-5.49-0.1s10.31-35.65,42-40.04C284.51,245.24,286.87,245.09,289.11,245.09 M289.11,239.09
				c-2.58,0-5.23,0.19-7.9,0.56c-14.67,2.03-27.46,10.4-37,24.2c-7.01,10.15-9.83,19.72-9.94,20.12c-0.51,1.76-0.19,3.66,0.88,5.15
				c1.07,1.49,2.76,2.42,4.59,2.51c0.09,0,2.23,0.11,5.78,0.11c19.3,0,65.75-2.85,80.33-29.23c1.1-1.99,0.98-4.42-0.3-6.3
				C325.07,255.5,313.52,239.09,289.11,239.09L289.11,239.09z"/>
		</g>
	</g>
	<g>
		<path class="st0" d="M307.96,296.28c0.67-0.66,1.25-1.09,1.95-1.51c0.68-0.4,1.41-0.75,2.17-1.02c1.53-0.53,3.24-0.76,4.99-0.6
			c1.75,0.14,3.55,0.79,5,1.84c1.5,1.01,2.56,2.45,3.21,3.97c0.55,1.29-0.05,2.79-1.34,3.35c-0.67,0.29-1.39,0.26-2.01,0l-0.58-0.25
			c-1.09-0.47-1.88-0.99-2.72-1.26c-0.81-0.32-1.57-0.58-2.46-0.73c-0.87-0.16-1.84-0.26-2.91-0.28c-0.53-0.01-1.1-0.02-1.67,0
			c-0.56-0.01-1.21,0.06-1.72,0.01l-0.72-0.08c-1.1-0.12-1.9-1.12-1.78-2.22C307.42,297.01,307.64,296.59,307.96,296.28z"/>
	</g>
	<g>
		<path class="st0" d="M280.76,299.79c-0.51,0.06-1.16-0.02-1.72-0.01c-0.57-0.03-1.13-0.01-1.67,0c-1.07,0.02-2.04,0.12-2.91,0.28
			c-0.89,0.15-1.65,0.41-2.46,0.73c-0.84,0.27-1.63,0.79-2.72,1.26l-0.57,0.25c-1.29,0.56-2.79-0.03-3.35-1.33
			c-0.29-0.67-0.27-1.4,0-2.02c0.65-1.51,1.7-2.96,3.21-3.97c1.45-1.05,3.25-1.7,5-1.84c1.75-0.17,3.46,0.07,4.99,0.6
			c0.77,0.27,1.49,0.61,2.17,1.02c0.7,0.43,1.28,0.85,1.95,1.51c0.79,0.78,0.8,2.05,0.02,2.85c-0.34,0.34-0.77,0.54-1.21,0.59
			L280.76,299.79z"/>
	</g>
	<g>
		<path class="st0" d="M251.62,280.68c-1.34,0-2.45-1.06-2.5-2.41c-0.05-1.38,1.03-2.54,2.41-2.58c0.38-0.01,38.44-1.52,55.27-17.89
			c0.99-0.96,2.57-0.94,3.54,0.05s0.94,2.57-0.05,3.54c-18.22,17.72-56.95,19.24-58.59,19.3
			C251.68,280.68,251.65,280.68,251.62,280.68z"/>
	</g>
	<g>
		<path class="st3" d="M302.31,320.5c0,3.87-3.13,7-7,7l0,0c-3.87,0-7-3.13-7-7H302.31z"/>
	</g>
	<g>
		<path class="st0" d="M295.31,330c-5.24,0-9.5-4.26-9.5-9.5v-15c0-1.38,1.12-2.5,2.5-2.5s2.5,1.12,2.5,2.5v15
			c0,2.48,2.02,4.5,4.5,4.5s4.5-2.02,4.5-4.5v-15c0-1.38,1.12-2.5,2.5-2.5s2.5,1.12,2.5,2.5v15C304.81,325.74,300.55,330,295.31,330
			z"/>
	</g>
</g>
<g>
	<g>
		<g>
			<g>
				<path class="st4" d="M102.31,212.79c-7.17,0-13-5.83-13-13v-175c0-7.17,5.83-13,13-13h207c7.17,0,13,5.83,13,13v175
					c0,7.17-5.83,13-13,13H102.31z"/>
			</g>
		</g>
		<g>
			<g>
				<path class="st0" d="M309.31,14.79c5.52,0,10,4.48,10,10v175c0,5.52-4.48,10-10,10h-207c-5.52,0-10-4.48-10-10v-175
					c0-5.52,4.48-10,10-10L309.31,14.79 M309.31,8.79h-207c-8.82,0-16,7.18-16,16v175c0,8.82,7.18,16,16,16h207
					c8.82,0,16-7.18,16-16v-175C325.31,15.97,318.13,8.79,309.31,8.79L309.31,8.79z"/>
			</g>
		</g>
	</g>
	<g>
		<g>
			<g>
				<path class="st5" d="M92.31,91.79c-1.66,0-3-1.34-3-3v-40c0-1.66,1.34-3,3-3h227c1.66,0,3,1.34,3,3v40c0,1.66-1.34,3-3,3H92.31z
					"/>
			</g>
		</g>
		<g>
			<g>
				<path class="st0" d="M319.31,48.79v40h-227v-40H319.31 M319.31,42.79h-227c-3.31,0-6,2.69-6,6v40c0,3.31,2.69,6,6,6h227
					c3.31,0,6-2.69,6-6v-40C325.31,45.47,322.63,42.79,319.31,42.79L319.31,42.79z"/>
			</g>
		</g>
	</g>
	<g>
		<g>
			<g>
				<path class="st6" d="M92.31,45.79c-1.66,0-3-1.34-3-3v-18c0-7.17,5.83-13,13-13h207c7.17,0,13,5.83,13,13v18c0,1.66-1.34,3-3,3
					H92.31z"/>
			</g>
		</g>
		<g>
			<g>
				<path class="st0" d="M309.31,14.79c5.52,0,10,4.48,10,10v18h-227v-18c0-5.52,4.48-10,10-10L309.31,14.79 M309.31,8.79h-207
					c-8.82,0-16,7.18-16,16v18c0,3.31,2.69,6,6,6h227c3.31,0,6-2.69,6-6v-18C325.31,15.97,318.13,8.79,309.31,8.79L309.31,8.79z"/>
			</g>
		</g>
	</g>
	<g>
		<g>
			<g>
				<path class="st4" d="M182.31,35.79c-3.86,0-7-3.14-7-7s3.14-7,7-7h101c3.86,0,7,3.14,7,7s-3.14,7-7,7H182.31z"/>
			</g>
		</g>
		<g>
			<g>
				<g>
					<path class="st0" d="M283.31,24.79c2.21,0,4,1.79,4,4s-1.79,4-4,4h-101c-2.21,0-4-1.79-4-4s1.79-4,4-4L283.31,24.79
						 M283.31,18.79h-101c-5.51,0-10,4.49-10,10s4.49,10,10,10h101c5.51,0,10-4.49,10-10S288.83,18.79,283.31,18.79L283.31,18.79z"
						/>
				</g>
			</g>
		</g>
	</g>
	<g>
		<g>
			<g>
				<circle class="st7" cx="108.31" cy="28.79" r="7"/>
			</g>
		</g>
		<g>
			<g>
				<g>
					<path class="st0" d="M108.31,24.79c2.21,0,4,1.79,4,4s-1.79,4-4,4s-4-1.79-4-4S106.1,24.79,108.31,24.79 M108.31,18.79
						c-5.51,0-10,4.49-10,10s4.49,10,10,10s10-4.49,10-10S113.83,18.79,108.31,18.79L108.31,18.79z"/>
				</g>
			</g>
		</g>
	</g>
	<g>
		<g>
			<g>
				<circle class="st8" cx="132.31" cy="28.79" r="7"/>
			</g>
		</g>
		<g>
			<g>
				<g>
					<path class="st0" d="M132.31,24.79c2.21,0,4,1.79,4,4s-1.79,4-4,4s-4-1.79-4-4S130.1,24.79,132.31,24.79 M132.31,18.79
						c-5.51,0-10,4.49-10,10s4.49,10,10,10s10-4.49,10-10S137.83,18.79,132.31,18.79L132.31,18.79z"/>
				</g>
			</g>
		</g>
	</g>
	<g>
		<g>
			<g>
				<circle class="st9" cx="156.31" cy="28.79" r="7"/>
			</g>
		</g>
		<g>
			<g>
				<g>
					<path class="st0" d="M156.31,24.79c2.21,0,4,1.79,4,4s-1.79,4-4,4s-4-1.79-4-4S154.1,24.79,156.31,24.79 M156.31,18.79
						c-5.51,0-10,4.49-10,10s4.49,10,10,10s10-4.49,10-10S161.83,18.79,156.31,18.79L156.31,18.79z"/>
				</g>
			</g>
		</g>
	</g>
	<g>
		<g id="svg_7_00000032610882228998118930000006163261968786191509_">
			<g>
				<path class="st10" d="M120.31,65.26h-8.54v2.53h6.06c-0.3,3.55-3.26,5.07-6.05,5.07c-3.57,0-6.69-2.81-6.69-6.75
					c0-3.84,2.97-6.79,6.69-6.79c2.87,0,4.57,1.83,4.57,1.83l1.77-1.84c0,0-2.28-2.54-6.43-2.54c-5.29,0-9.38,4.46-9.38,9.29
					c0,4.73,3.85,9.33,9.52,9.33c4.98,0,8.63-3.41,8.63-8.46C120.46,65.88,120.31,65.26,120.31,65.26L120.31,65.26z"/>
			</g>
		</g>
		<g id="svg_6_00000062153764832976305850000003742932599715322010_">
			<g>
				<path class="st11" d="M133.31,69.43c0,3.46-2.69,5.96-5.96,5.96c-3.62,0-6.06-2.79-6.06-6.03c0-3.2,2.51-5.94,6.02-5.94
					C130.19,63.43,133.31,65.47,133.31,69.43z M127.34,65.78c-1.94,0-3.42,1.55-3.42,3.62c0,2.12,1.51,3.65,3.42,3.65
					c1.74,0,3.36-1.43,3.36-3.63C130.7,67.17,129.06,65.78,127.34,65.78L127.34,65.78z"/>
			</g>
		</g>
		<g id="svg_5_00000129888173669914620930000009287419981687603100_">
			<g>
				<path class="st12" d="M146.4,69.43c0,3.46-2.69,5.96-5.96,5.96c-3.62,0-6.06-2.79-6.06-6.03c0-3.2,2.51-5.94,6.02-5.94
					C143.27,63.43,146.4,65.47,146.4,69.43z M140.42,65.78c-1.94,0-3.42,1.55-3.42,3.62c0,2.12,1.51,3.65,3.42,3.65
					c1.74,0,3.36-1.43,3.36-3.63C143.78,67.17,142.15,65.78,140.42,65.78L140.42,65.78z"/>
			</g>
		</g>
		<g id="svg_4_00000175304841963293168630000000056639666046681519_">
			<g>
				<path class="st10" d="M153.22,63.43c1.4,0,2.46,0.54,3.23,1.37v-1.01h2.51v10.75c0,4.23-2.44,6.24-5.64,6.24
					c-2.92,0-4.57-1.8-5.38-3.52l2.3-0.96c0.32,0.77,1.24,2.13,3.06,2.13c1.89,0,3.15-1.24,3.15-3.3v-1.18
					c-0.67,0.78-1.58,1.45-3.28,1.45c-2.76,0-5.69-2.39-5.69-5.99C147.48,66.25,150.01,63.43,153.22,63.43L153.22,63.43z
					 M153.46,65.78c-1.69,0-3.35,1.37-3.35,3.67c0,2.21,1.6,3.6,3.31,3.6c1.62,0,3.23-1.29,3.23-3.63
					C156.65,67.13,155.03,65.78,153.46,65.78L153.46,65.78z"/>
			</g>
		</g>
		<g id="svg_3_00000051371785412089424170000014429440258813233299_">
			<g>
				<path class="st11" d="M170.12,63.42c2.39,0,4.2,1.6,4.98,3.51l0.42,0.98l-8.02,3.33c0.48,0.89,1.25,1.81,2.94,1.81
					c1.5,0,2.4-0.81,2.93-1.65l2.07,1.38c-0.93,1.24-2.48,2.63-5.01,2.63c-3.03,0-5.87-2.24-5.87-6.01
					C164.53,65.83,167.08,63.42,170.12,63.42L170.12,63.42z M167.08,69.24l5.36-2.24c-0.33-0.7-1.12-1.28-2.21-1.28
					C168.49,65.72,166.85,67.51,167.08,69.24z"/>
			</g>
		</g>
		<g id="svg_2_00000043453137535262342170000008316359012368257679_">
			<g>
				<path class="st13" d="M160.71,75.05h2.64V57.41h-2.64V75.05z"/>
			</g>
		</g>
	</g>
	<g>
		<g>
			<path class="st10" d="M162.31,163.79h-44c-1.1,0-2-0.9-2-2l0,0c0-1.1,0.9-2,2-2h44c1.1,0,2,0.9,2,2l0,0
				C164.31,162.89,163.42,163.79,162.31,163.79z"/>
		</g>
	</g>
	<g>
		<g>
			<path class="st0" d="M186.31,179.79h-68c-1.1,0-2-0.9-2-2l0,0c0-1.1,0.9-2,2-2h68c1.1,0,2,0.9,2,2l0,0
				C188.31,178.89,187.42,179.79,186.31,179.79z"/>
		</g>
	</g>
	<g>
		<g>
			<path class="st0" d="M178.31,187.79h-60c-1.1,0-2-0.9-2-2l0,0c0-1.1,0.9-2,2-2h60c1.1,0,2,0.9,2,2l0,0
				C180.31,186.89,179.42,187.79,178.31,187.79z"/>
		</g>
	</g>
	<g>
		<g>
			<path class="st13" d="M162.31,171.79h-44c-1.1,0-2-0.9-2-2l0,0c0-1.1,0.9-2,2-2h44c1.1,0,2,0.9,2,2l0,0
				C164.31,170.89,163.42,171.79,162.31,171.79z"/>
		</g>
	</g>
	<g>
		<g>
			<rect x="110.31" y="108.79" class="st14" width="104" height="40"/>
		</g>
	</g>
	<g>
		<g>
			<path class="st10" d="M132.31,118.79h-14c-1.1,0-2-0.9-2-2l0,0c0-1.1,0.9-2,2-2h14c1.1,0,2,0.9,2,2l0,0
				C134.31,117.89,133.42,118.79,132.31,118.79z"/>
		</g>
	</g>
	<g>
		<g>
			<path class="st0" d="M178.31,134.79h-60c-1.1,0-2-0.9-2-2l0,0c0-1.1,0.9-2,2-2h60c1.1,0,2,0.9,2,2l0,0
				C180.31,133.89,179.42,134.79,178.31,134.79z"/>
		</g>
	</g>
	<g>
		<g>
			<path class="st0" d="M162.31,142.79h-44c-1.1,0-2-0.9-2-2l0,0c0-1.1,0.9-2,2-2h44c1.1,0,2,0.9,2,2l0,0
				C164.31,141.89,163.42,142.79,162.31,142.79z"/>
		</g>
	</g>
	<g>
		<g>
			<path class="st13" d="M158.31,126.79h-40c-1.1,0-2-0.9-2-2l0,0c0-1.1,0.9-2,2-2h40c1.1,0,2,0.9,2,2l0,0
				C160.31,125.89,159.42,126.79,158.31,126.79z"/>
		</g>
	</g>
	<g>
		<g>
			<path class="st0" d="M114.31,152.79h-6c-1.1,0-2-0.9-2-2v-44c0-1.1,0.9-2,2-2h6c1.1,0,2,0.9,2,2s-0.9,2-2,2h-4v40h4
				c1.1,0,2,0.9,2,2S115.42,152.79,114.31,152.79z"/>
		</g>
	</g>
	<g>
		<g>
			<path class="st0" d="M216.31,152.79h-6c-1.1,0-2-0.9-2-2s0.9-2,2-2h4v-40h-4c-1.1,0-2-0.9-2-2s0.9-2,2-2h6c1.1,0,2,0.9,2,2v44
				C218.31,151.89,217.42,152.79,216.31,152.79z"/>
		</g>
	</g>
	<g>
		<g>
			<g>
				<g>
					<g>
						<path class="st0" d="M279.95,127.9c-0.16,0-0.33-0.03-0.49-0.08c-1.6-0.55-4.42-0.55-6.02,0c-0.79,0.27-1.64-0.15-1.91-0.93
							s0.15-1.64,0.93-1.91c2.24-0.77,5.74-0.77,7.98,0c0.78,0.27,1.2,1.12,0.93,1.91C281.15,127.51,280.57,127.9,279.95,127.9z"/>
					</g>
				</g>
				<g>
					<g>
						<g>
							<circle class="st0" cx="276.45" cy="119.7" r="6"/>
						</g>
					</g>
					<g>
						<g>
							<circle class="st4" cx="277.95" cy="119.7" r="1.5"/>
						</g>
					</g>
				</g>
				<g>
					<g>
						<path class="st0" d="M259.95,127.9c-0.16,0-0.33-0.03-0.49-0.08c-1.6-0.55-4.42-0.55-6.02,0c-0.79,0.27-1.64-0.15-1.91-0.93
							s0.15-1.64,0.93-1.91c2.24-0.77,5.74-0.77,7.98,0c0.78,0.27,1.2,1.12,0.93,1.91C261.15,127.51,260.57,127.9,259.95,127.9z"/>
					</g>
				</g>
				<g>
					<g>
						<g>
							<circle class="st0" cx="256.45" cy="119.7" r="6"/>
						</g>
					</g>
					<g>
						<g>
							<circle class="st4" cx="257.95" cy="119.7" r="1.5"/>
						</g>
					</g>
				</g>
				<g>
					<g>
						<path class="st0" d="M273.78,105.92c3.9-1.54,9.15-0.14,10.94,3.86c0.62,1.33-0.82,2.82-2.16,2.3
							c-1.5-0.54-2.7-1.12-4.19-1.58c-1.4-0.46-3.26-0.86-4.6-1.43C272.38,108.54,272.41,106.42,273.78,105.92L273.78,105.92z"/>
					</g>
				</g>
				<g>
					<g>
						<path class="st0" d="M258.72,109.23c-1.19,0.45-2.97,0.87-4.2,1.27c-1.48,0.45-2.68,1.04-4.18,1.57
							c-1.36,0.54-2.77-0.99-2.16-2.3c1.28-3.03,4.8-4.55,7.91-4.46c1.56,0.02,4.77,0.5,3.96,2.82
							C259.82,108.74,259.28,109.03,258.72,109.23L258.72,109.23z"/>
					</g>
				</g>
			</g>
		</g>
		<g>
			<g>
				<g>
					<g>
						<circle class="st15" cx="292.45" cy="128.05" r="2"/>
					</g>
				</g>
			</g>
			<g>
				<g>
					<g>
						<circle class="st15" cx="288.45" cy="134.05" r="2"/>
					</g>
				</g>
			</g>
			<g>
				<g>
					<g>
						<circle class="st15" cx="296.45" cy="134.05" r="2"/>
					</g>
				</g>
			</g>
		</g>
		<g>
			<g>
				<g>
					<g>
						<circle class="st15" cx="240.45" cy="128.05" r="2"/>
					</g>
				</g>
			</g>
			<g>
				<g>
					<g>
						<circle class="st15" cx="236.45" cy="134.05" r="2"/>
					</g>
				</g>
			</g>
			<g>
				<g>
					<g>
						<circle class="st15" cx="244.45" cy="134.05" r="2"/>
					</g>
				</g>
			</g>
		</g>
		<g>
			<g>
				<g>
					<g>
						<path class="st0" d="M266.45,148.05c-7.72,0-14-6.28-14-14c0-1.1,0.9-2,2-2h24c1.1,0,2,0.9,2,2
							C280.45,141.77,274.17,148.05,266.45,148.05z"/>
					</g>
				</g>
				<g>
					<g>
						<path class="st0" d="M278.45,134.05L278.45,134.05 M278.45,134.05c0,6.63-5.37,12-12,12s-12-5.37-12-12H278.45 M278.45,130.05
							L278.45,130.05h-24c-2.21,0-4,1.79-4,4c0,8.82,7.18,16,16,16c8.77,0,15.91-7.09,16-15.84c0-0.05,0-0.11,0-0.16
							C282.45,131.84,280.66,130.05,278.45,130.05L278.45,130.05z M278.45,138.05L278.45,138.05L278.45,138.05L278.45,138.05z"/>
					</g>
				</g>
			</g>
			<g>
				<g>
					<ellipse class="st7" cx="266.45" cy="142.05" rx="8.93" ry="4"/>
				</g>
			</g>
		</g>
	</g>
</g>
<g>
	<g>
		<path class="st16" d="M39.1,381.7L39.1,381.7c-13.58-7.84-18.27-25.35-10.43-38.93l56.35-97.62
			c7.84-13.58,25.35-18.27,38.93-10.43l0,0c13.58,7.84,18.27,25.35,10.43,38.93l-56.35,97.62C70.19,384.83,52.68,389.54,39.1,381.7z
			"/>
	</g>
	<g>
		<path class="st17" d="M180.62,381.28L180.62,381.28c-13.58,7.84-31.09,3.14-38.93-10.43l-56.35-97.62
			c-7.84-13.58-3.14-31.09,10.43-38.93l0,0c13.58-7.84,31.09-3.14,38.93,10.43l56.35,97.62
			C198.88,355.92,194.18,373.44,180.62,381.28z"/>
	</g>
	<g>
		<circle class="st18" cx="53.74" cy="356.6" r="28.9"/>
	</g>
</g>
<g>
	<g>
		<circle class="st12" cx="381.63" cy="335.96" r="3"/>
	</g>
</g>
<g>
	<g>
		<circle class="st12" cx="33.57" cy="94.79" r="3"/>
	</g>
</g>
<g>
	<g>
		<circle class="st12" cx="56.74" cy="72.11" r="3"/>
	</g>
</g>
<path class="st12" d="M59.74,35.62h-6.91v-5.82c0-1.75-1.42-3.18-3.18-3.18s-3.18,1.42-3.18,3.18v5.82h-6.91
	c-1.75,0-3.18,1.42-3.18,3.18s1.42,3.18,3.18,3.18h6.91v5.82c0,1.75,1.42,3.18,3.18,3.18s3.18-1.42,3.18-3.18v-5.82h6.91
	c1.75,0,3.18-1.42,3.18-3.18S61.5,35.62,59.74,35.62z"/>
<g>
	<path class="st12" d="M381.8,372.3c-3.64,0-6.6-2.96-6.6-6.6c0-1.21-0.98-2.2-2.2-2.2c-1.21,0-2.2,0.98-2.2,2.2
		c0,3.64-2.96,6.6-6.6,6.6c-1.21,0-2.2,0.98-2.2,2.2s0.99,2.2,2.2,2.2c3.64,0,6.6,2.96,6.6,6.6c0,1.21,0.98,2.2,2.2,2.2
		c1.21,0,2.2-0.98,2.2-2.2c0-3.64,2.96-6.6,6.6-6.6c1.21,0,2.2-0.98,2.2-2.2S383.01,372.3,381.8,372.3z"/>
</g>
<g>
	<rect class="st19" width="400" height="400"/>
</g>
</svg>
