<?xml version="1.0" encoding="utf-8"?>
<!-- Generator: Adobe Illustrator 26.0.2, SVG Export Plug-In . SVG Version: 6.00 Build 0)  -->
<svg version="1.1" id="Google_x5F_Hub-Smart_x5F_Bidding"
	 xmlns="http://www.w3.org/2000/svg" xmlns:xlink="http://www.w3.org/1999/xlink" x="0px" y="0px" viewBox="0 0 400 400"
	 style="enable-background:new 0 0 400 400;" xml:space="preserve">
<style type="text/css">
	.st0{fill-rule:evenodd;clip-rule:evenodd;fill:#3E82F1;}
	.st1{fill-rule:evenodd;clip-rule:evenodd;fill:#32A753;}
	.st2{fill-rule:evenodd;clip-rule:evenodd;fill:#F9BB00;}
	.st3{fill-rule:evenodd;clip-rule:evenodd;fill:#E74235;}
	.st4{fill:none;}
	.st5{fill:#FFD886;}
	.st6{fill:#C7BCFF;}
	.st7{fill:#515979;}
	.st8{fill:#B29D90;}
	.st9{fill:#FFFFFF;}
	.st10{fill:#75A5C3;}
	.st11{clip-path:url(#SVGID_00000173131898000803697140000007091835957892846236_);}
	.st12{fill:#A3816E;}
	.st13{fill:#FFD678;}
	.st14{fill:#FFE3DC;}
	.st15{fill:#FFC8BE;}
	.st16{fill:#EF7D7D;}
	.st17{fill:#D8EBFB;}
</style>
<g>
	<g>
		<path class="st0" d="M192.16,89.22c0-5.06-0.45-9.94-1.3-14.61h-67.27v27.63h38.44c-1.66,8.93-6.69,16.49-14.25,21.56v17.92h23.08
			C184.37,129.29,192.16,110.98,192.16,89.22L192.16,89.22L192.16,89.22z M192.16,89.22"/>
	</g>
	<g>
		<path class="st1" d="M123.59,159.03c19.29,0,35.45-6.4,47.27-17.31l-23.08-17.92c-6.4,4.29-14.58,6.82-24.19,6.82
			c-18.6,0-34.35-12.57-39.97-29.45H59.76v18.51C71.51,143.02,95.67,159.03,123.59,159.03L123.59,159.03L123.59,159.03z
			 M123.59,159.03"/>
	</g>
	<g>
		<path class="st2" d="M83.62,101.17c-1.43-4.29-2.24-8.86-2.24-13.57c0-4.71,0.81-9.29,2.24-13.57V55.52H59.76
			c-4.84,9.64-7.6,20.55-7.6,32.08s2.76,22.44,7.6,32.08L83.62,101.17L83.62,101.17L83.62,101.17z M83.62,101.17"/>
	</g>
	<g>
		<path class="st3" d="M123.59,44.58c10.49,0,19.9,3.6,27.31,10.68l20.49-20.49c-12.37-11.53-28.54-18.6-47.79-18.6
			c-27.92,0-52.08,16.01-63.83,39.35l23.86,18.51C89.24,57.15,104.99,44.58,123.59,44.58L123.59,44.58L123.59,44.58z M123.59,44.58"
			/>
	</g>
</g>
<g>
	<rect x="-0.7" class="st4" width="400" height="400"/>
</g>
<g>
	<path class="st5" d="M197.76,280.51c-2.32,0-4.2-1.88-4.2-4.2c0-0.77-0.63-1.4-1.4-1.4c-0.77,0-1.4,0.63-1.4,1.4
		c0,2.32-1.88,4.2-4.2,4.2c-0.77,0-1.4,0.63-1.4,1.4s0.63,1.4,1.4,1.4c2.32,0,4.2,1.88,4.2,4.2c0,0.77,0.63,1.4,1.4,1.4
		c0.77,0,1.4-0.63,1.4-1.4c0-2.32,1.88-4.2,4.2-4.2c0.77,0,1.4-0.63,1.4-1.4S198.54,280.51,197.76,280.51z"/>
</g>
<g>
	<g>
		<circle class="st5" cx="250.42" cy="52.52" r="3"/>
	</g>
</g>
<g>
	<g>
		<circle class="st5" cx="232.45" cy="89.22" r="3"/>
	</g>
</g>
<g>
	<g>
		<circle class="st5" cx="283.95" cy="30.96" r="3"/>
	</g>
</g>
<g>
	<g>
		<circle class="st5" cx="216" cy="245.41" r="3"/>
	</g>
</g>
<g>
	<g>
		<circle class="st5" cx="192.16" cy="340.06" r="3"/>
	</g>
</g>
<g>
	<g>
		<circle class="st5" cx="232.45" cy="306.41" r="3"/>
	</g>
</g>
<g>
	<g>
		<circle class="st5" cx="307.45" cy="72.99" r="3"/>
	</g>
</g>
<path class="st5" d="M337.45,30.96h-6v-6c0-1.66-1.34-3-3-3s-3,1.34-3,3v6h-6c-1.66,0-3,1.34-3,3s1.34,3,3,3h6v6c0,1.66,1.34,3,3,3
	s3-1.34,3-3v-6h6c1.66,0,3-1.34,3-3S339.11,30.96,337.45,30.96z"/>
<g>
	<circle class="st5" cx="199.55" cy="197.04" r="4.5"/>
</g>
<g>
	<g>
		<g>
			<path class="st6" d="M313.65,271.66c-6.36,0-12.73-0.84-18.94-2.5c-18.83-5.05-34.58-17.13-44.33-34.01
				c-9.75-16.89-12.34-36.56-7.29-55.39c8.54-31.87,37.52-54.12,70.47-54.12c6.36,0,12.73,0.84,18.94,2.5
				c18.83,5.05,34.58,17.13,44.33,34.01c9.75,16.89,12.34,36.56,7.29,55.39C375.58,249.4,346.6,271.66,313.65,271.66z"/>
		</g>
		<g>
			<g>
				<path class="st7" d="M313.56,128.62c6,0,12.09,0.78,18.16,2.4c37.34,10.01,59.5,48.39,49.5,85.73
					c-8.38,31.27-36.67,51.9-67.57,51.9c-6,0-12.09-0.78-18.16-2.4c-37.34-10.01-59.5-48.39-49.5-85.73
					C254.37,149.25,282.66,128.63,313.56,128.62 M313.57,122.62v6V122.62c-34.31,0-64.48,23.17-73.37,56.35
					c-5.25,19.61-2.56,40.09,7.59,57.67c10.15,17.58,26.54,30.16,46.15,35.41c6.46,1.73,13.09,2.61,19.71,2.61
					c34.31,0,64.48-23.17,73.37-56.35c10.85-40.48-13.26-82.23-53.74-93.08C326.82,123.5,320.19,122.62,313.57,122.62L313.57,122.62
					z"/>
			</g>
		</g>
	</g>
	<g>
		<g>
			<path class="st8" d="M288.84,332.7c-0.26,0-0.52-0.03-0.78-0.1l-19.32-5.18c-1.6-0.43-2.55-2.07-2.12-3.67l18.12-67.61
				c1.05-3.93,4.62-6.67,8.69-6.67c0.79,0,1.57,0.1,2.33,0.31l7.73,2.07c2.32,0.62,4.26,2.11,5.46,4.19c1.2,2.08,1.52,4.51,0.9,6.83
				l-18.12,67.61c-0.21,0.77-0.71,1.42-1.4,1.82C289.88,332.56,289.36,332.7,288.84,332.7z"/>
		</g>
		<g>
			<g>
				<path class="st7" d="M293.43,252.46c0.51,0,1.04,0.07,1.56,0.21l7.73,2.07c3.2,0.86,5.1,4.15,4.24,7.35l-18.12,67.61
					l-19.32-5.18l18.12-67.61C288.36,254.23,290.78,252.46,293.43,252.46 M293.43,246.46C293.43,246.46,293.43,246.46,293.43,246.46
					c-5.42,0-10.18,3.66-11.59,8.9l-18.12,67.61c-0.86,3.2,1.04,6.49,4.24,7.35l19.32,5.18c0.51,0.14,1.03,0.2,1.55,0.2
					c1.04,0,2.08-0.27,3-0.8c1.38-0.8,2.38-2.11,2.8-3.64l18.12-67.61c1.71-6.39-2.09-12.98-8.49-14.7l-7.73-2.07
					C295.53,246.6,294.48,246.46,293.43,246.46L293.43,246.46z"/>
			</g>
		</g>
	</g>
	<g>
		<path class="st9" d="M273.64,199.49c-2.45-0.78-4.69-1.97-6.72-3.58l1.51-5.64c1.13,1.02,2.41,1.96,3.83,2.82
			c1.42,0.86,2.71,1.45,3.88,1.76c0.96,0.26,1.7,0.33,2.21,0.22c0.51-0.11,0.84-0.44,0.98-0.98c0.1-0.37,0.02-0.73-0.23-1.08
			s-0.71-0.79-1.38-1.32c-0.66-0.53-1.57-1.2-2.73-2c-1.29-0.92-2.3-1.83-3-2.72s-1.15-1.81-1.33-2.74c-0.18-0.93-0.11-2,0.22-3.23
			c0.5-1.87,1.49-3.17,2.97-3.9c1.48-0.73,3.46-0.9,5.92-0.51l0.62-2.33l3.52,0.94l-0.61,2.29c2.22,0.73,4.34,1.89,6.36,3.49
			l-3.32,4.3c-2.08-1.7-4.07-2.8-5.97-3.31c-0.91-0.24-1.57-0.3-2-0.18s-0.7,0.4-0.81,0.83c-0.1,0.37-0.05,0.72,0.15,1.03
			c0.2,0.32,0.59,0.71,1.17,1.19c0.58,0.48,1.39,1.07,2.45,1.78c2.14,1.47,3.58,2.88,4.33,4.23c0.74,1.35,0.89,2.86,0.44,4.55
			c-0.51,1.9-1.53,3.29-3.05,4.15c-1.52,0.87-3.48,1.13-5.86,0.79l-0.88,3.28l-3.52-0.94L273.64,199.49z"/>
		<path class="st9" d="M308.58,189.25c-0.41,1.54-1.24,2.74-2.47,3.59s-2.81,1.29-4.72,1.31l-0.03,0.1c4,1.63,5.55,4.14,4.64,7.54
			c-0.62,2.31-2.02,3.88-4.2,4.72c-2.18,0.83-4.9,0.82-8.15-0.05c-1.34-0.36-2.55-0.79-3.63-1.28c-1.09-0.5-2.22-1.18-3.41-2.04
			l1.49-5.57c0.94,0.85,1.93,1.55,2.99,2.12c1.06,0.57,2.06,0.98,3.01,1.23c1.47,0.39,2.6,0.47,3.38,0.24s1.29-0.79,1.53-1.67
			c0.18-0.68,0.15-1.25-0.11-1.71s-0.74-0.89-1.48-1.29c-0.73-0.4-1.72-0.76-2.98-1.1l-1.53-0.41l1.35-5.04l1.56,0.42
			c3.41,0.91,5.34,0.5,5.81-1.25c0.18-0.66,0.05-1.21-0.36-1.66c-0.42-0.45-1.05-0.79-1.9-1.02c-1.58-0.42-3.37-0.33-5.35,0.28
			l-1.58-5.23c1.56-0.55,3.07-0.84,4.55-0.86c1.48-0.02,3.11,0.21,4.88,0.69c2.57,0.69,4.45,1.74,5.64,3.15
			C308.7,185.86,309.06,187.46,308.58,189.25z"/>
		<path class="st9" d="M307.74,206.84c0.28-1.04,0.8-1.76,1.57-2.16c0.77-0.4,1.74-0.44,2.92-0.13c1.12,0.3,1.91,0.81,2.35,1.54
			s0.53,1.61,0.25,2.65c-0.27,1.02-0.79,1.73-1.56,2.14c-0.77,0.41-1.7,0.46-2.79,0.17c-1.12-0.3-1.93-0.82-2.42-1.56
			C307.57,208.76,307.47,207.87,307.74,206.84z"/>
		<path class="st9" d="M338.05,204.72c-1.18,4.39-2.77,7.41-4.79,9.06c-2.02,1.65-4.54,2.07-7.58,1.25c-2.96-0.79-4.92-2.46-5.85-5
			s-0.84-5.91,0.29-10.12c1.18-4.42,2.79-7.46,4.81-9.12s4.55-2.09,7.58-1.28c2.96,0.79,4.9,2.46,5.84,5.01
			C339.29,197.07,339.18,200.47,338.05,204.72z M326.79,201.7c-0.75,2.81-1.09,4.78-1.03,5.93s0.52,1.83,1.34,2.05
			c0.84,0.22,1.57-0.16,2.21-1.15s1.32-2.86,2.06-5.6c0.74-2.75,1.08-4.72,1.02-5.92c-0.06-1.2-0.5-1.91-1.32-2.13
			c-0.83-0.22-1.56,0.15-2.19,1.12C328.25,196.97,327.55,198.87,326.79,201.7z"/>
		<path class="st9" d="M358.42,210.18c-1.18,4.39-2.77,7.41-4.79,9.06c-2.02,1.65-4.54,2.07-7.58,1.25c-2.96-0.79-4.92-2.46-5.85-5
			s-0.84-5.91,0.29-10.12c1.18-4.41,2.79-7.45,4.81-9.12s4.55-2.09,7.58-1.28c2.96,0.79,4.9,2.46,5.84,5.01
			S359.56,205.93,358.42,210.18z M347.17,207.16c-0.75,2.81-1.09,4.78-1.03,5.93c0.07,1.15,0.52,1.83,1.34,2.05
			c0.84,0.22,1.57-0.16,2.21-1.16c0.64-0.99,1.32-2.86,2.06-5.6c0.74-2.75,1.08-4.72,1.02-5.92c-0.06-1.2-0.5-1.91-1.32-2.13
			c-0.83-0.22-1.56,0.15-2.19,1.12C348.62,202.43,347.92,204.33,347.17,207.16z"/>
	</g>
</g>
<g>
	<g>
		<circle class="st10" cx="95.71" cy="312.41" r="70"/>
		<path class="st7" d="M95.71,385.41c-40.25,0-73-32.75-73-73s32.75-73,73-73s73,32.75,73,73S135.96,385.41,95.71,385.41z
			 M95.71,245.41c-36.94,0-67,30.06-67,67s30.06,67,67,67s67-30.06,67-67S132.65,245.41,95.71,245.41z"/>
	</g>
	<g>
		<defs>
			<path id="SVGID_1_" d="M25.71,182.41v130c0,38.66,31.34,70,70,70s70-31.34,70-70v-130H25.71z"/>
		</defs>
		<clipPath id="SVGID_00000103965391803052109270000001573264093784881589_">
			<use xlink:href="#SVGID_1_"  style="overflow:visible;"/>
		</clipPath>
		<g style="clip-path:url(#SVGID_00000103965391803052109270000001573264093784881589_);">
			<g>
				<g>
					<path class="st12" d="M64.84,280.09c-0.28,0-0.57-0.04-0.85-0.12l-12.47-3.68c-0.65-0.19-1.22-0.6-1.61-1.16
						c-0.68-0.97-16.44-24-5.83-43.45c4.74-8.68,11.55-10.5,16.42-10.5c5.5,0,9.87,2.33,10.06,2.43c1.05,0.57,1.66,1.7,1.56,2.89
						l-4.29,50.85c-0.08,0.9-0.55,1.72-1.3,2.22C66.03,279.91,65.44,280.09,64.84,280.09z"/>
				</g>
				<g>
					<path class="st7" d="M60.5,224.17c4.8,0,8.63,2.07,8.63,2.07l-4.29,50.85l-12.47-3.68c0,0-15.51-22.25-5.66-40.29
						C50.58,226,55.97,224.17,60.5,224.17 M60.5,218.17c-8.04,0-14.81,4.28-19.06,12.06c-11.49,21.06,5.28,45.57,6,46.6
						c0.78,1.12,1.92,1.94,3.22,2.32l12.47,3.68c0.56,0.16,1.13,0.25,1.7,0.25c1.2,0,2.38-0.36,3.39-1.05
						c1.49-1.02,2.44-2.65,2.59-4.45l4.29-50.85c0.2-2.38-1.03-4.65-3.13-5.78C71.45,220.68,66.64,218.17,60.5,218.17L60.5,218.17z"
						/>
				</g>
			</g>
			<g>
				<g>
					<path class="st12" d="M125.72,280.09c-0.6,0-1.19-0.18-1.69-0.52c-0.74-0.51-1.22-1.33-1.3-2.22l-4.29-50.85
						c-0.1-1.19,0.51-2.32,1.56-2.89c0.18-0.1,4.56-2.43,10.05-2.43c4.88,0,11.69,1.82,16.42,10.5c4.44,8.13,4.81,18.27,1.07,29.31
						c-2.75,8.13-6.73,13.89-6.9,14.13c-0.39,0.56-0.96,0.97-1.61,1.16l-12.47,3.68C126.29,280.05,126,280.09,125.72,280.09z"/>
				</g>
				<g>
					<path class="st7" d="M130.06,224.17c4.52,0,9.91,1.83,13.79,8.94c9.85,18.04-5.66,40.29-5.66,40.29l-12.47,3.68l-4.29-50.85
						C121.43,226.24,125.26,224.17,130.06,224.17 M130.06,218.17C130.06,218.17,130.06,218.17,130.06,218.17
						c-6.14,0-10.95,2.5-11.48,2.79c-2.1,1.13-3.33,3.41-3.13,5.78l4.29,50.85c0.15,1.8,1.1,3.43,2.59,4.45
						c1.01,0.69,2.19,1.05,3.39,1.05c0.57,0,1.14-0.08,1.7-0.25l12.47-3.68c1.31-0.39,2.44-1.21,3.22-2.32
						c0.72-1.03,17.5-25.54,6-46.6C144.87,222.46,138.11,218.17,130.06,218.17L130.06,218.17z"/>
				</g>
			</g>
			<g>
				<g>
					<path class="st13" d="M12.71,422.41v-34.52c0-19.29,12.99-36.34,31.6-41.46l51.4-14.13l51.4,14.13
						c18.6,5.12,31.6,22.17,31.6,41.46v34.52H12.71z"/>
				</g>
				<g>
					<g>
						<path class="st7" d="M95.71,335.41l50.61,13.92c17.36,4.77,29.39,20.56,29.39,38.57v31.52h-160v-31.52
							c0-18.01,12.03-33.79,29.39-38.57L95.71,335.41 M95.71,329.18l-1.59,0.44l-50.61,13.92c-19.9,5.47-33.8,23.71-33.8,44.35
							v31.52v6h6h160h6v-6v-31.52c0-20.64-13.9-38.88-33.8-44.35L97.3,329.62L95.71,329.18L95.71,329.18z"/>
					</g>
				</g>
			</g>
			<g>
				<g>
					<path class="st14" d="M95.71,371.41c-9.92,0-18-8.08-18-18v-35c0-1.66,1.34-3,3-3h30c1.66,0,3,1.34,3,3v35
						C113.71,363.33,105.63,371.41,95.71,371.41z"/>
				</g>
				<g>
					<path class="st7" d="M110.71,318.41v35c0,8.28-6.72,15-15,15h0c-8.28,0-15-6.72-15-15v-35H110.71 M110.71,312.41h-30
						c-3.31,0-6,2.69-6,6v35c0,11.58,9.42,21,21,21c11.58,0,21-9.42,21-21v-35C116.71,315.09,114.02,312.41,110.71,312.41
						L110.71,312.41z"/>
				</g>
			</g>
			<g>
				<path class="st15" d="M80.71,324.41v25.16c4.65,1.83,9.7,2.84,15,2.84h0c5.3,0,10.35-1.02,15-2.84v-25.16H80.71z"/>
			</g>
			<g>
				<path class="st7" d="M93.71,348.91c-1.38,0-2.5-1.12-2.5-2.5s1.12-2.5,2.5-2.5c1.93,0,3.5-1.57,3.5-3.5s-1.57-3.5-3.5-3.5
					c-1.38,0-2.5-1.12-2.5-2.5s1.12-2.5,2.5-2.5c4.69,0,8.5,3.81,8.5,8.5S98.39,348.91,93.71,348.91z"/>
			</g>
			<g>
				<g>
					<path class="st14" d="M139.71,292.41c-1.66,0-3-1.34-3-3v-22c0-1.66,1.34-3,3-3c7.17,0,13,5.83,13,13v2
						C152.71,286.57,146.87,292.41,139.71,292.41z"/>
				</g>
				<g>
					<g>
						<path class="st7" d="M139.71,267.41c5.52,0,10,4.48,10,10v2c0,5.52-4.48,10-10,10V267.41 M139.71,261.41c-3.31,0-6,2.69-6,6
							v22c0,3.31,2.69,6,6,6c8.82,0,16-7.18,16-16v-2C155.71,268.58,148.53,261.41,139.71,261.41L139.71,261.41z"/>
					</g>
				</g>
			</g>
			<g>
				<g>
					<path class="st15" d="M51.71,292.41c-7.17,0-13-5.83-13-13v-2c0-7.17,5.83-13,13-13c1.66,0,3,1.34,3,3v22
						C54.71,291.06,53.36,292.41,51.71,292.41z"/>
				</g>
				<g>
					<g>
						<path class="st7" d="M51.71,267.41v22c-5.52,0-10-4.48-10-10v-2C41.71,271.88,46.18,267.41,51.71,267.41 M51.71,261.41
							c-8.82,0-16,7.18-16,16v2c0,8.82,7.18,16,16,16c3.31,0,6-2.69,6-6v-22C57.71,264.09,55.02,261.41,51.71,261.41L51.71,261.41z"
							/>
					</g>
				</g>
			</g>
			<g>
				<g>
					<path class="st14" d="M95.71,328.41c-24.26,0-44-19.74-44-44v-30c0-24.26,19.74-44,44-44s44,19.74,44,44v30
						C139.71,308.67,119.97,328.41,95.71,328.41z"/>
				</g>
				<g>
					<path class="st7" d="M95.71,213.41c22.64,0,41,18.36,41,41v30c0,22.64-18.36,41-41,41h0c-22.64,0-41-18.36-41-41v-30
						C54.71,231.76,73.06,213.41,95.71,213.41L95.71,213.41 M95.71,207.41c-25.92,0-47,21.08-47,47v30c0,25.92,21.08,47,47,47
						c25.92,0,47-21.08,47-47v-30C142.71,228.49,121.62,207.41,95.71,207.41L95.71,207.41z"/>
				</g>
			</g>
			<g>
				<path class="st15" d="M62.71,284.41v-30c0-21.29,16.23-38.79,37-40.8c-1.32-0.13-2.65-0.2-4-0.2c-22.64,0-41,18.36-41,41v30
					c0,22.64,18.36,41,41,41c1.35,0,2.68-0.07,4-0.2C78.94,323.2,62.71,305.7,62.71,284.41z"/>
			</g>
			<g>
				<path class="st7" d="M110.33,246.86c4.66-3.09,11.11-3.41,15.79-0.04c2.4,1.72,5.7,6.58,1.71,8.21
					c-0.97,0.34-1.89-0.03-2.71-0.48c-2.11-1.13-3.48-1.65-5.73-2.07c-2.5-0.47-5.51-0.25-8.06-0.75
					C109.02,251.32,108.39,248.12,110.33,246.86L110.33,246.86z"/>
			</g>
			<g>
				<path class="st7" d="M79.87,251.97c-4.56,0.34-8.95,0.22-13,2.67c0,0-0.69,0.34-0.69,0.34c-1.34,0.66-2.97,0.1-3.63-1.24
					c-1.02-2.38,1.44-5.38,3.32-6.82c3.15-2.34,7.29-2.83,10.93-2.03c2.56,0.62,7.65,2.32,5.56,5.82
					C81.8,251.58,80.81,251.83,79.87,251.97L79.87,251.97z"/>
			</g>
			<g>
				<g>
					<path class="st12" d="M95.71,333.41c-16.91,0-40.43-16.26-40.43-32.26c0-0.47,0.11-0.93,0.32-1.35
						c4.38-8.67,19.78-15.39,30.1-15.39c3.36,0,6.72,0.39,10,1.15c3.28-0.76,6.64-1.15,10-1.15c9.9,0,25.5,6.88,30.04,15.42
						c0.23,0.43,0.35,0.92,0.35,1.41c0,7.91-5.22,16.2-14.32,22.76C113.71,329.8,103.72,333.41,95.71,333.41z"/>
				</g>
				<g>
					<g>
						<path class="st7" d="M105.71,287.41c9.45,0,23.56,6.62,27.39,13.83c0,15.3-22.39,29.17-37.39,29.17
							c-15,0-37.43-15-37.43-29.26c3.77-7.45,17.94-13.74,27.43-13.74h0c3.45,0,6.8,0.43,10,1.23
							C98.91,287.84,102.26,287.41,105.71,287.41L105.71,287.41 M105.71,281.41c-3.36,0-6.72,0.36-10,1.07
							c-3.28-0.71-6.64-1.07-10-1.07c-5.57,0-12.3,1.7-18.46,4.67c-3.98,1.92-11.14,6.07-14.32,12.37
							c-0.42,0.84-0.64,1.77-0.64,2.71c0,8.47,5.66,17.51,15.52,24.8c8.86,6.55,19.29,10.46,27.91,10.46
							c8.61,0,19.28-3.83,27.82-9.98c10.03-7.23,15.56-16.17,15.56-25.19c0-0.98-0.24-1.95-0.7-2.81
							C133.22,288.68,116.87,281.41,105.71,281.41L105.71,281.41z"/>
					</g>
				</g>
			</g>
			<g>
				<path class="st15" d="M103.71,278.41c0,4.42-3.58,8-8,8h0c-4.42,0-8-3.58-8-8H103.71z"/>
			</g>
			<g>
				<path class="st7" d="M95.71,288.91c-5.79,0-10.5-4.71-10.5-10.5v-13c0-1.38,1.12-2.5,2.5-2.5s2.5,1.12,2.5,2.5v13
					c0,3.03,2.47,5.5,5.5,5.5s5.5-2.47,5.5-5.5v-13c0-1.38,1.12-2.5,2.5-2.5s2.5,1.12,2.5,2.5v13
					C106.21,284.2,101.49,288.91,95.71,288.91z"/>
			</g>
			<g>
				<path class="st12" d="M117.62,318.41c-1.01,11.21-10.43,20-21.91,20h0c-11.48,0-20.9-8.79-21.91-20"/>
				<path class="st7" d="M95.71,341.41c-13.03,0-23.73-9.77-24.9-22.73c-0.15-1.65,1.07-3.11,2.72-3.26
					c1.65-0.14,3.11,1.07,3.26,2.72c0.89,9.85,9.02,17.27,18.92,17.27s18.04-7.42,18.92-17.27c0.15-1.65,1.61-2.86,3.26-2.72
					c1.65,0.15,2.87,1.61,2.72,3.26C119.44,331.63,108.73,341.41,95.71,341.41z"/>
			</g>
			<g>
				<g>
					<path class="st12" d="M105.1,242.19c-22.71,0-37.09-16.84-37.69-17.56c-0.73-0.87-0.9-2.07-0.46-3.11
						c5.69-13.29,15.75-20.31,29.07-20.31c22.21,0,46.52,19.03,47.55,19.84c0.7,0.55,1.12,1.39,1.14,2.28
						c0.02,0.89-0.36,1.75-1.03,2.33C131.07,236.63,118.1,242.19,105.1,242.19C105.1,242.19,105.1,242.19,105.1,242.19z"/>
				</g>
				<g>
					<path class="st7" d="M96.02,204.21c21.42,0,45.69,19.19,45.69,19.19c-13.59,11.82-26.03,15.78-36.6,15.78
						c-21.57,0-35.4-16.48-35.4-16.48C75.64,208.85,85.48,204.21,96.02,204.21 M96.02,198.21c-14.62,0-25.63,7.65-31.83,22.13
						c-0.89,2.08-0.54,4.49,0.92,6.22c0.64,0.76,15.9,18.63,39.99,18.63c13.74,0,27.38-5.8,40.54-17.25
						c1.35-1.17,2.1-2.88,2.06-4.67c-0.04-1.78-0.88-3.46-2.28-4.57C144.37,217.86,119.26,198.21,96.02,198.21L96.02,198.21z"/>
				</g>
			</g>
			<g>
				<path class="st7" d="M106.23,231.64c-15.81,0-25.55-7.78-26.11-8.24c-1.07-0.88-1.22-2.45-0.35-3.52
					c0.87-1.07,2.45-1.22,3.51-0.35l0,0c0.69,0.56,17.26,13.63,42.53,2.87c1.27-0.54,2.74,0.05,3.28,1.32
					c0.54,1.27-0.05,2.74-1.32,3.28C119.76,230.41,112.51,231.64,106.23,231.64z"/>
			</g>
			<g>
				<g>
					<path class="st7" d="M95.71,314.41c-7.72,0-14-6.28-14-14c0-1.1,0.9-2,2-2h24c1.1,0,2,0.9,2,2
						C109.71,308.13,103.42,314.41,95.71,314.41z"/>
				</g>
				<g>
					<path class="st7" d="M107.71,300.41L107.71,300.41 M107.71,300.41c0,6.63-5.37,12-12,12s-12-5.37-12-12H107.71 M107.71,296.41
						L107.71,296.41H83.71c-2.21,0-4,1.79-4,4c0,8.82,7.18,16,16,16c8.77,0,15.91-7.09,16-15.84c0-0.05,0-0.11,0-0.16
						C111.71,298.2,109.92,296.41,107.71,296.41L107.71,296.41z M107.71,304.41L107.71,304.41L107.71,304.41L107.71,304.41z"/>
				</g>
			</g>
			<g>
				<ellipse class="st16" cx="95.71" cy="308.41" rx="8.93" ry="4"/>
			</g>
			<g>
				<g>
					<g>
						<path class="st7" d="M91.53,320.94c2.02,0.62,4.2,0.77,6.29,0.46c1.26-0.04,3.12-1.31,3.76,0.4c0.33,0.91-0.46,1.53-1.04,2.06
							c-0.69,0.66-1.48,1.05-2.3,1.31c-2.47,0.75-5.35,0.46-7.35-1.31c0,0-0.69-0.65-0.69-0.65
							C89.14,322.26,90.2,320.49,91.53,320.94L91.53,320.94z"/>
					</g>
				</g>
			</g>
			<g>
				<path class="st12" d="M77.71,300.41c0,0,12.99-2.21,18-6c5.01,3.79,17.6,6.02,18,6v-7.01l-18-3.26l-18,3.42V300.41z"/>
			</g>
			<g>
				<path class="st7" d="M77.7,302.41c-0.96,0-1.8-0.69-1.97-1.66c-0.19-1.09,0.55-2.12,1.63-2.31c3.48-0.59,13.34-2.76,17.13-5.62
					c0.71-0.54,1.7-0.54,2.41,0c4.4,3.32,15.77,5.46,16.91,5.6c1.02,0.06,1.84,0.88,1.89,1.91c0.05,1.1-0.81,2.04-1.91,2.08
					c-0.01,0-0.01,0-0.02,0c-0.97,0-12.17-2.02-18.06-5.59c-5.87,3.52-17.15,5.48-17.66,5.57C77.93,302.4,77.81,302.41,77.7,302.41z
					"/>
			</g>
			<g>
				<path class="st7" d="M64.71,222.91c-0.99,0-1.93-0.59-2.32-1.57l-4-10c-0.51-1.28,0.11-2.74,1.39-3.25
					c1.28-0.52,2.74,0.11,3.25,1.39l4,10c0.51,1.28-0.11,2.74-1.39,3.25C65.33,222.85,65.01,222.91,64.71,222.91z"/>
			</g>
			<g>
				<g>
					<g>
						<circle class="st17" cx="75.71" cy="267.41" r="11.5"/>
					</g>
					<g>
						<g>
							<path class="st7" d="M75.71,258.41c4.97,0,9,4.03,9,9c0,4.97-4.03,9-9,9s-9-4.03-9-9C66.71,262.44,70.73,258.41,75.71,258.41
								 M75.71,253.41c-7.72,0-14,6.28-14,14s6.28,14,14,14s14-6.28,14-14S83.42,253.41,75.71,253.41L75.71,253.41z"/>
						</g>
					</g>
				</g>
				<g>
					<g>
						<circle class="st17" cx="115.71" cy="267.41" r="11.5"/>
					</g>
					<g>
						<g>
							<path class="st7" d="M115.71,258.41c4.97,0,9,4.03,9,9c0,4.97-4.03,9-9,9s-9-4.03-9-9
								C106.71,262.44,110.73,258.41,115.71,258.41 M115.71,253.41c-7.72,0-14,6.28-14,14s6.28,14,14,14s14-6.28,14-14
								S123.42,253.41,115.71,253.41L115.71,253.41z"/>
						</g>
					</g>
				</g>
				<g>
					<path class="st7" d="M103.71,271.91c-1.38,0-2.5-1.12-2.5-2.5c0-3.03-2.47-5.5-5.5-5.5s-5.5,2.47-5.5,5.5
						c0,1.38-1.12,2.5-2.5,2.5s-2.5-1.12-2.5-2.5c0-5.79,4.71-10.5,10.5-10.5s10.5,4.71,10.5,10.5
						C106.21,270.79,105.09,271.91,103.71,271.91z"/>
				</g>
				<g>
					<path class="st7" d="M127.71,266.91c-0.81,0-1.6-0.39-2.08-1.11c-0.77-1.15-0.46-2.7,0.69-3.47l9-6
						c1.15-0.77,2.7-0.46,3.47,0.69c0.77,1.15,0.46,2.7-0.69,3.47l-9,6C128.67,266.77,128.18,266.91,127.71,266.91z"/>
				</g>
				<g>
					<path class="st7" d="M63.7,266.91c-0.48,0-0.96-0.14-1.38-0.42l-9-6c-1.15-0.77-1.46-2.32-0.69-3.47
						c0.77-1.15,2.32-1.46,3.47-0.69l9,6c1.15,0.77,1.46,2.32,0.69,3.47C65.3,266.52,64.51,266.91,63.7,266.91z"/>
				</g>
			</g>
			<g>
				<g>
					<circle class="st7" cx="115.71" cy="266.41" r="6"/>
				</g>
				<g>
					<circle class="st9" cx="117.71" cy="266.41" r="1.5"/>
				</g>
				<g>
					<path class="st7" d="M111.71,274.41c-0.68,0-1.34-0.34-1.71-0.97c-0.57-0.95-0.27-2.17,0.68-2.75c2.82-1.7,7.25-1.7,10.07,0
						c0.95,0.57,1.25,1.8,0.68,2.75c-0.57,0.95-1.8,1.25-2.75,0.68c-1.58-0.95-4.35-0.95-5.93,0
						C112.42,274.31,112.06,274.41,111.71,274.41z"/>
				</g>
			</g>
			<g>
				<g>
					<circle class="st7" cx="75.71" cy="266.41" r="6"/>
				</g>
				<g>
					<path class="st7" d="M71.71,274.41c-0.68,0-1.34-0.34-1.71-0.97c-0.57-0.95-0.27-2.17,0.68-2.75c2.82-1.7,7.25-1.7,10.07,0
						c0.95,0.57,1.25,1.8,0.68,2.75c-0.57,0.95-1.8,1.25-2.75,0.68c-1.58-0.95-4.35-0.95-5.93,0
						C72.42,274.31,72.06,274.41,71.71,274.41z"/>
				</g>
				<g>
					<circle class="st9" cx="77.71" cy="266.41" r="1.5"/>
				</g>
			</g>
		</g>
	</g>
	<g>
		<path class="st7" d="M95.71,385.41c-40.25,0-73-32.75-73-73h6c0,36.94,30.06,67,67,67s67-30.06,67-67h6
			C168.71,352.66,135.96,385.41,95.71,385.41z"/>
	</g>
</g>
</svg>
