<?xml version="1.0" encoding="utf-8"?>
<!-- Generator: Adobe Illustrator 25.2.3, SVG Export Plug-In . SVG Version: 6.00 Build 0)  -->
<svg version="1.1" id="before-beginning-email-marketing"
	 xmlns="http://www.w3.org/2000/svg" xmlns:xlink="http://www.w3.org/1999/xlink" x="0px" y="0px" viewBox="0 0 400 400"
	 style="enable-background:new 0 0 400 400;" xml:space="preserve">
<style type="text/css">
	.st0{fill:#D8EBFB;}
	.st1{fill:#515979;}
	.st2{fill:#ACC9DB;}
	.st3{fill:none;stroke:#515979;stroke-width:4;stroke-linecap:round;stroke-linejoin:round;stroke-miterlimit:10;}
	.st4{fill:#FFFFFF;}
	.st5{fill:#B29D90;}
	.st6{fill:#BAD2E1;}
	.st7{fill:#F89D81;}
	.st8{fill:#EF7D7D;}
</style>
<g>
	<g>
		<g>
			<g>
				<path class="st0" d="M180,379c-4.96,0-9-4.04-9-9v-88c0-4.96,4.04-9,9-9h138c4.96,0,9,4.04,9,9v88c0,4.96-4.04,9-9,9H180z"/>
			</g>
			<g>
				<g>
					<path class="st1" d="M318,276c3.31,0,6,2.69,6,6v88c0,3.31-2.69,6-6,6H180c-3.31,0-6-2.69-6-6v-88c0-3.31,2.69-6,6-6H318
						 M318,270H180c-6.62,0-12,5.38-12,12v88c0,6.62,5.38,12,12,12h138c6.62,0,12-5.38,12-12v-88C330,275.38,324.62,270,318,270
						L318,270z"/>
				</g>
			</g>
		</g>
		<g>
			<g>
				<path class="st2" d="M242.67,348.48L174,276l0,16.28l60.29,64.31c3.95,4.21,10.64,4.21,14.59,0l5.7-6.08
					C250.72,352.51,245.82,351.84,242.67,348.48z"/>
			</g>
		</g>
		<g>
			<path class="st1" d="M249,354.38c-3.58,0-7.04-1.5-9.48-4.11l-67.71-72.22c-1.13-1.21-1.07-3.11,0.14-4.24
				c1.21-1.13,3.11-1.07,4.24,0.14l67.71,72.22c1.34,1.43,3.15,2.21,5.11,2.21s3.77-0.79,5.11-2.21l67.71-72.22
				c1.13-1.21,3.03-1.27,4.24-0.14c1.21,1.13,1.27,3.03,0.14,4.24l-67.71,72.22C256.04,352.88,252.58,354.38,249,354.38z"/>
		</g>
		<g>
			<path class="st1" d="M324,379c-0.82,0-1.64-0.33-2.23-0.99l-45-50c-1.11-1.23-1.01-3.13,0.22-4.24c1.23-1.11,3.13-1.01,4.24,0.22
				l45,50c1.11,1.23,1.01,3.13-0.22,4.24C325.43,378.75,324.72,379,324,379z"/>
		</g>
		<g>
			<path class="st1" d="M174,379c-0.71,0-1.43-0.25-2.01-0.77c-1.23-1.11-1.33-3-0.22-4.24l45-50c1.11-1.23,3-1.33,4.24-0.22
				c1.23,1.11,1.33,3,0.22,4.24l-45,50C175.64,378.67,174.82,379,174,379z"/>
		</g>
	</g>
	<g>
		<path class="st3" d="M235,315.49c8.36,5.08,20.05,5.49,28-0.04"/>
		<g>
			<g>
				<path class="st1" d="M244.82,324.58c1.35,0.43,2.77,0.57,4.18,0.62c0.71,0.03,1.41-0.07,2.11-0.15c0.7-0.09,1.39-0.24,2.05-0.47
					c0.69-0.24,1.45,0.13,1.68,0.82c0.17,0.48,0.04,1-0.29,1.34l-0.72,0.76c-0.67,0.71-1.48,1.09-2.3,1.37
					c-0.83,0.24-1.69,0.36-2.54,0.31c-0.43-0.02-0.85-0.04-1.27-0.13c-0.42-0.06-0.84-0.17-1.25-0.3c-0.81-0.27-1.6-0.64-2.3-1.25
					l-0.67-0.59c-0.57-0.5-0.63-1.37-0.13-1.94C243.74,324.56,244.32,324.42,244.82,324.58z"/>
			</g>
		</g>
	</g>
	<g>
		<g>
			<g>
				<path class="st1" d="M266.5,310.55c-0.32,0-0.64-0.08-0.94-0.24c-1.89-1.02-5.21-1.02-7.11,0c-0.98,0.52-2.19,0.16-2.71-0.82
					c-0.52-0.97-0.16-2.19,0.82-2.71c3.05-1.64,7.84-1.64,10.89,0c0.97,0.52,1.34,1.73,0.82,2.71
					C267.9,310.17,267.21,310.55,266.5,310.55z"/>
			</g>
			<g>
				<g>
					<circle class="st1" cx="262" cy="301.8" r="7"/>
				</g>
				<g>
					<circle class="st4" cx="263.75" cy="301.8" r="1.75"/>
				</g>
			</g>
			<g>
				<path class="st1" d="M258.82,285.03c0.73-0.37,1.3-0.57,1.98-0.74c0.66-0.16,1.33-0.26,2.03-0.29c1.38-0.05,2.83,0.17,4.22,0.73
					c1.39,0.53,2.7,1.48,3.64,2.67c0.99,1.16,1.52,2.58,1.7,3.96c0.15,1.12-0.63,2.15-1.75,2.3c-0.57,0.08-1.11-0.09-1.53-0.41
					l-0.39-0.3c-0.81-0.63-1.37-1.22-2.03-1.61c-0.62-0.42-1.21-0.77-1.92-1.06c-0.69-0.29-1.47-0.54-2.33-0.75
					c-0.43-0.1-0.88-0.22-1.34-0.3c-0.44-0.11-0.99-0.17-1.36-0.31l-0.73-0.28c-1.02-0.39-1.54-1.53-1.15-2.55
					C258.05,285.62,258.4,285.25,258.82,285.03z"/>
			</g>
			<g>
				<path class="st1" d="M240.5,310.55c-0.32,0-0.64-0.08-0.94-0.24c-1.89-1.02-5.21-1.02-7.11,0c-0.98,0.52-2.19,0.16-2.71-0.82
					c-0.52-0.97-0.16-2.19,0.82-2.71c3.05-1.64,7.84-1.64,10.89,0c0.97,0.52,1.34,1.73,0.82,2.71
					C241.9,310.17,241.21,310.55,240.5,310.55z"/>
			</g>
			<g>
				<g>
					<circle class="st1" cx="236" cy="301.8" r="7"/>
				</g>
				<g>
					<circle class="st4" cx="237.75" cy="301.8" r="1.75"/>
				</g>
			</g>
			<g>
				<path class="st1" d="M238.25,288.92c-0.37,0.14-0.92,0.2-1.36,0.31c-0.46,0.08-0.91,0.19-1.34,0.3
					c-0.86,0.21-1.63,0.46-2.33,0.75c-0.7,0.28-1.29,0.64-1.92,1.06c-0.66,0.39-1.22,0.98-2.03,1.61l-0.38,0.3
					c-0.89,0.69-2.18,0.53-2.87-0.36c-0.35-0.45-0.48-1.01-0.41-1.53c0.19-1.37,0.71-2.79,1.7-3.96c0.94-1.18,2.25-2.13,3.64-2.67
					c1.39-0.56,2.84-0.78,4.22-0.73c0.69,0.03,1.37,0.13,2.03,0.29c0.68,0.17,1.25,0.37,1.98,0.74c0.97,0.49,1.37,1.68,0.87,2.65
					c-0.23,0.46-0.62,0.79-1.06,0.96L238.25,288.92z"/>
			</g>
		</g>
	</g>
</g>
<g>
	<g>
		<g>
			<path class="st0" d="M79,197c-4.96,0-9-4.04-9-9v-68c0-4.96,4.04-9,9-9h106c4.96,0,9,4.04,9,9v68c0,4.96-4.04,9-9,9H79z"/>
		</g>
		<g>
			<g>
				<path class="st1" d="M185,114c3.31,0,6,2.69,6,6v68c0,3.31-2.69,6-6,6H79c-3.31,0-6-2.69-6-6v-68c0-3.31,2.69-6,6-6H185
					 M185,108H79c-6.62,0-12,5.38-12,12v68c0,6.62,5.38,12,12,12h106c6.62,0,12-5.38,12-12v-68C197,113.38,191.62,108,185,108
					L185,108z"/>
			</g>
		</g>
	</g>
	<g>
		<path class="st2" d="M131.88,174.58l5.7-6.08c-3.86,2.01-8.75,1.34-11.91-2.03l-50.31-51.24c-1.43,1.1-2.36,2.82-2.36,4.76v9.29
			l44.29,45.3C121.24,178.8,127.93,178.8,131.88,174.58z"/>
	</g>
	<g>
		<path class="st1" d="M189.33,195.86c-0.81,0-1.61-0.32-2.2-0.96l-35.9-38.86c-1.12-1.22-1.05-3.11,0.17-4.24
			c1.22-1.12,3.11-1.05,4.24,0.17l35.9,38.86c1.12,1.22,1.05,3.11-0.17,4.24C190.79,195.59,190.06,195.86,189.33,195.86z"/>
	</g>
	<g>
		<path class="st1" d="M75.18,195.63c-0.72,0-1.45-0.26-2.03-0.79c-1.22-1.12-1.3-3.02-0.19-4.24l35.39-38.63
			c1.12-1.22,3.02-1.31,4.24-0.19c1.22,1.12,1.3,3.02,0.19,4.24l-35.39,38.63C76.8,195.3,75.99,195.63,75.18,195.63z"/>
	</g>
	<g>
		<path class="st1" d="M132,173.31c-3.19,0-6.38-1.16-8.87-3.48c-0.04-0.04-0.08-0.08-0.12-0.12l-49.99-52.26
			c-1.15-1.2-1.1-3.1,0.09-4.24c1.2-1.15,3.1-1.1,4.24,0.09l49.93,52.19c2.66,2.43,6.78,2.43,9.44,0l51.4-53.57
			c1.15-1.19,3.05-1.23,4.24-0.09c1.2,1.15,1.23,3.05,0.09,4.24l-51.46,53.63c-0.04,0.04-0.08,0.08-0.12,0.12
			C138.38,172.15,135.19,173.31,132,173.31z"/>
	</g>
	<g>
		<g>
			<g>
				<g>
					<g>
						<path class="st1" d="M147.53,138.36c-1.1,0-2-0.9-2-2c0-1.65-1.35-3-3-3s-3,1.35-3,3c0,1.1-0.9,2-2,2s-2-0.9-2-2
							c0-3.86,3.14-7,7-7s7,3.14,7,7C149.53,137.47,148.63,138.36,147.53,138.36z"/>
					</g>
				</g>
				<g>
					<path class="st1" d="M140.09,122.42c0.97-0.61,1.86-0.91,2.88-1.12c0.99-0.21,2.03-0.24,3.08-0.12
						c1.04,0.11,2.1,0.44,3.07,0.95c0.97,0.5,1.83,1.28,2.42,2.19c0.52,0.8,0.29,1.86-0.51,2.38c-0.38,0.24-0.81,0.32-1.22,0.25
						l-0.4-0.07c-0.78-0.13-1.39-0.32-2.04-0.43c-0.65-0.1-1.27-0.25-1.96-0.33l-2.11-0.25c-0.72-0.08-1.55-0.12-2.25-0.28
						l-0.42-0.09c-0.92-0.2-1.5-1.11-1.29-2.02C139.44,123.04,139.72,122.66,140.09,122.42z"/>
				</g>
			</g>
			<g>
				<g>
					<g>
						<path class="st1" d="M126.47,138.36c-1.1,0-2-0.9-2-2c0-1.65-1.35-3-3-3s-3,1.35-3,3c0,1.1-0.9,2-2,2s-2-0.9-2-2
							c0-3.86,3.14-7,7-7s7,3.14,7,7C128.47,137.47,127.58,138.36,126.47,138.36z"/>
					</g>
				</g>
				<g>
					<path class="st1" d="M122.94,125.62c-0.7,0.15-1.53,0.2-2.25,0.28l-2.11,0.25c-0.68,0.08-1.3,0.22-1.96,0.33
						c-0.65,0.11-1.26,0.3-2.04,0.43l-0.39,0.07c-0.94,0.16-1.83-0.47-1.98-1.41c-0.07-0.44,0.03-0.87,0.25-1.22
						c0.59-0.92,1.45-1.69,2.42-2.19c0.96-0.52,2.02-0.84,3.07-0.95c1.04-0.12,2.08-0.08,3.08,0.12c1.01,0.21,1.9,0.51,2.88,1.12
						c0.79,0.5,1.03,1.55,0.54,2.34c-0.25,0.4-0.64,0.66-1.07,0.76L122.94,125.62z"/>
				</g>
			</g>
		</g>
		<g>
			<path class="st1" d="M132.28,148.59c-4.22,0-8.55-1.08-12.29-3.25c-0.96-0.55-1.28-1.78-0.73-2.73c0.55-0.96,1.78-1.28,2.73-0.73
				c6.17,3.58,14.54,3.59,19.89,0.03c0.92-0.61,2.16-0.36,2.77,0.56c0.61,0.92,0.36,2.16-0.56,2.77
				C140.75,147.48,136.57,148.59,132.28,148.59z"/>
		</g>
		<g>
			<path class="st1" d="M128.26,151.7c1.22,0.34,2.49,0.43,3.75,0.48c0.63,0.03,1.26-0.05,1.89-0.12c0.63-0.07,1.25-0.18,1.85-0.36
				c0.68-0.21,1.4,0.17,1.61,0.85c0.14,0.45,0.01,0.92-0.29,1.25l-0.79,0.85c-0.61,0.66-1.32,1-2.04,1.25
				c-0.73,0.21-1.48,0.32-2.23,0.27c-0.37-0.02-0.75-0.04-1.12-0.11c-0.37-0.06-0.74-0.15-1.09-0.27c-0.72-0.24-1.42-0.57-2.04-1.13
				L127,154c-0.55-0.49-0.6-1.34-0.11-1.89C127.24,151.71,127.78,151.57,128.26,151.7z"/>
		</g>
	</g>
</g>
<g>
	<g>
		<g>
			<path class="st5" d="M191,255c-8.27,0-15-6.73-15-15V60c0-8.27,6.73-15,15-15h150c8.27,0,15,6.73,15,15v180c0,8.27-6.73,15-15,15
				H191z"/>
		</g>
		<g>
			<path class="st1" d="M341,48c6.63,0,12,5.37,12,12v180c0,6.63-5.37,12-12,12H191c-6.63,0-12-5.37-12-12V60c0-6.63,5.37-12,12-12
				H341 M341,42H191c-9.93,0-18,8.07-18,18v180c0,9.93,8.07,18,18,18h150c9.93,0,18-8.07,18-18V60C359,50.07,350.93,42,341,42
				L341,42z"/>
		</g>
	</g>
	<g>
		<g>
			<path class="st4" d="M195,243c-3.86,0-7-3.14-7-7V64c0-3.86,3.14-7,7-7h142c3.86,0,7,3.14,7,7v152c0,0.8-0.32,1.56-0.88,2.12
				l-24,24c-0.56,0.56-1.33,0.88-2.12,0.88H195z"/>
		</g>
		<g>
			<path class="st1" d="M337,60c2.21,0,4,1.79,4,4v152l-24,24H195c-2.21,0-4-1.79-4-4V64c0-2.21,1.79-4,4-4H337 M337,54H195
				c-5.51,0-10,4.49-10,10v172c0,5.51,4.49,10,10,10h122c1.59,0,3.12-0.63,4.24-1.76l24-24c1.13-1.13,1.76-2.65,1.76-4.24V64
				C347,58.49,342.51,54,337,54L337,54z"/>
		</g>
	</g>
	<g>
		<g>
			<path class="st0" d="M317,243c-0.39,0-0.78-0.07-1.15-0.23c-1.12-0.46-1.85-1.56-1.85-2.77v-19.2c0-4.3,3.5-7.8,7.8-7.8H341
				c1.21,0,2.31,0.73,2.77,1.85c0.46,1.12,0.21,2.41-0.65,3.27l-24,24C318.55,242.7,317.78,243,317,243z"/>
		</g>
		<g>
			<path class="st1" d="M341,216l-24,24v-19.2c0-2.65,2.15-4.8,4.8-4.8H341 M341,210h-19.2c-5.96,0-10.8,4.84-10.8,10.8V240
				c0,2.43,1.46,4.61,3.7,5.54c0.74,0.31,1.52,0.46,2.29,0.46c1.56,0,3.1-0.61,4.24-1.76l24-24c1.72-1.72,2.23-4.3,1.3-6.54
				C345.61,211.46,343.43,210,341,210L341,210z M341,222L341,222L341,222L341,222z"/>
		</g>
	</g>
	<g>
		<path class="st1" d="M276,154h-26c-1.66,0-3-1.34-3-3l0,0c0-1.66,1.34-3,3-3h26c1.66,0,3,1.34,3,3l0,0
			C279,152.66,277.66,154,276,154z"/>
	</g>
	<g>
		<path class="st1" d="M318,142h-68c-1.66,0-3-1.34-3-3l0,0c0-1.66,1.34-3,3-3h68c1.66,0,3,1.34,3,3l0,0
			C321,140.66,319.66,142,318,142z"/>
	</g>
	<g>
		<g>
			<g>
				<path class="st6" d="M216,69c-1.66,0-3-1.34-3-3V50c0-6.07,4.93-11,11-11h25.28c-1.48-2.74-2.28-5.83-2.28-9
					c0-10.48,8.52-19,19-19c0.72,0,1.45,0.04,2.17,0.12c8.56,0.95,15.57,7.84,16.67,16.39c0.52,4.02-0.26,8.03-2.12,11.49H308
					c6.07,0,11,4.93,11,11v16c0,1.66-1.34,3-3,3H216z M266,25c-0.33,0-0.67,0.03-1.01,0.1c-1.93,0.37-3.53,1.97-3.9,3.9
					c-0.29,1.53,0.08,3.02,1.05,4.19C263.1,34.34,264.51,35,266,35c0.33,0,0.67-0.03,1.01-0.1c1.93-0.37,3.53-1.97,3.9-3.9
					c0.29-1.53-0.08-3.02-1.05-4.19C268.9,25.66,267.49,25,266,25z"/>
			</g>
		</g>
		<g>
			<g>
				<path class="st1" d="M266,14c0.6,0,1.22,0.03,1.84,0.1c7.23,0.8,13.1,6.57,14.03,13.79c0.72,5.63-1.49,10.75-5.31,14.11H308
					c4.42,0,8,3.58,8,8v16H216V50c0-4.42,3.58-8,8-8h31.44c-3.33-2.93-5.44-7.21-5.44-12C250,21.16,257.16,14,266,14 M266,38
					c0.51,0,1.04-0.05,1.57-0.15c3.15-0.6,5.69-3.14,6.29-6.29c0.97-5.11-2.92-9.57-7.85-9.57c-0.51,0-1.04,0.05-1.57,0.15
					c-3.15,0.6-5.69,3.14-6.29,6.29C257.18,33.54,261.07,38,266,38 M266,8C266,8,266,8,266,8c-5.88,0-11.4,2.29-15.56,6.44
					C246.29,18.6,244,24.12,244,30c0,2.05,0.29,4.07,0.84,6H224c-7.72,0-14,6.28-14,14v16c0,3.31,2.69,6,6,6h100c3.31,0,6-2.69,6-6
					V50c0-7.72-6.28-14-14-14h-20.85c0.81-2.84,1.05-5.85,0.66-8.87c-1.27-9.9-9.39-17.88-19.32-18.99C267.67,8.05,266.83,8,266,8
					L266,8z M266,32c-0.82,0-1.32-0.46-1.54-0.73c-0.27-0.33-0.57-0.9-0.41-1.72c0.14-0.72,0.79-1.37,1.51-1.51
					c0.15-0.03,0.3-0.04,0.45-0.04c0.82,0,1.32,0.46,1.54,0.73c0.27,0.33,0.57,0.9,0.41,1.72c-0.14,0.72-0.79,1.37-1.51,1.51
					C266.3,31.99,266.14,32,266,32L266,32z"/>
			</g>
		</g>
	</g>
	<g>
		<line class="st6" x1="231" y1="54" x2="301" y2="54"/>
		<path class="st1" d="M301,57h-70c-1.66,0-3-1.34-3-3s1.34-3,3-3h70c1.66,0,3,1.34,3,3S302.66,57,301,57z"/>
	</g>
	<g>
		<g>
			<path class="st4" d="M217,157c-1.66,0-3-1.34-3-3v-18c0-1.66,1.34-3,3-3h18c1.66,0,3,1.34,3,3v18c0,1.66-1.34,3-3,3H217z"/>
		</g>
		<g>
			<path class="st1" d="M235,136v18h-18v-18H235 M235,130h-18c-3.31,0-6,2.69-6,6v18c0,3.31,2.69,6,6,6h18c3.31,0,6-2.69,6-6v-18
				C241,132.69,238.31,130,235,130L235,130z"/>
		</g>
	</g>
	<g>
		<path class="st7" d="M227.45,151L227.45,151c-0.85,0-1.65-0.36-2.22-0.98l-5.45-6c-1.11-1.23-1.02-3.12,0.2-4.24
			c1.23-1.12,3.12-1.02,4.24,0.2l3.23,3.56l12.33-13.56c1.11-1.23,3.01-1.32,4.24-0.2c1.23,1.11,1.32,3.01,0.2,4.24l-14.55,16
			C229.11,150.64,228.3,151,227.45,151z"/>
	</g>
	<g>
		<path class="st1" d="M296,190h-46c-1.66,0-3-1.34-3-3l0,0c0-1.66,1.34-3,3-3h46c1.66,0,3,1.34,3,3l0,0
			C299,188.66,297.66,190,296,190z"/>
	</g>
	<g>
		<path class="st1" d="M318,178h-68c-1.66,0-3-1.34-3-3l0,0c0-1.66,1.34-3,3-3h68c1.66,0,3,1.34,3,3l0,0
			C321,176.66,319.66,178,318,178z"/>
	</g>
	<g>
		<path class="st1" d="M260,224h-46c-1.66,0-3-1.34-3-3l0,0c0-1.66,1.34-3,3-3h46c1.66,0,3,1.34,3,3l0,0
			C263,222.66,261.66,224,260,224z"/>
	</g>
	<g>
		<path class="st1" d="M282,212h-68c-1.66,0-3-1.34-3-3l0,0c0-1.66,1.34-3,3-3h68c1.66,0,3,1.34,3,3l0,0
			C285,210.66,283.66,212,282,212z"/>
	</g>
	<g>
		<g>
			<path class="st4" d="M217,193c-1.66,0-3-1.34-3-3v-18c0-1.66,1.34-3,3-3h18c1.66,0,3,1.34,3,3v18c0,1.66-1.34,3-3,3H217z"/>
		</g>
		<g>
			<path class="st1" d="M235,172v18h-18v-18H235 M235,166h-18c-3.31,0-6,2.69-6,6v18c0,3.31,2.69,6,6,6h18c3.31,0,6-2.69,6-6v-18
				C241,168.69,238.31,166,235,166L235,166z"/>
		</g>
	</g>
	<g>
		<path class="st7" d="M227.45,187L227.45,187c-0.85,0-1.65-0.36-2.22-0.98l-5.45-6c-1.11-1.23-1.02-3.12,0.2-4.24
			c1.23-1.11,3.12-1.02,4.24,0.2l3.23,3.56l12.33-13.56c1.11-1.23,3.01-1.32,4.24-0.2c1.23,1.11,1.32,3.01,0.2,4.24l-14.55,16
			C229.11,186.64,228.3,187,227.45,187z"/>
	</g>
	<g>
		<g>
			<g>
				<path class="st1" d="M283.5,100.6c-0.32,0-0.64-0.08-0.94-0.24c-1.89-1.02-5.21-1.02-7.11,0c-0.98,0.52-2.19,0.15-2.71-0.82
					c-0.52-0.97-0.16-2.19,0.82-2.71c3.05-1.64,7.84-1.64,10.89,0c0.97,0.52,1.34,1.73,0.82,2.71
					C284.9,100.22,284.21,100.6,283.5,100.6z"/>
			</g>
			<g>
				<g>
					<circle class="st1" cx="279" cy="90.85" r="7"/>
				</g>
				<g>
					<circle class="st4" cx="280.75" cy="90.85" r="1.75"/>
				</g>
			</g>
			<g>
				<path class="st1" d="M274.77,76.66c0.7-0.43,1.25-0.68,1.91-0.91c0.64-0.21,1.31-0.37,1.99-0.46c1.37-0.17,2.84-0.08,4.27,0.36
					c1.43,0.41,2.82,1.24,3.86,2.34c1.09,1.07,1.73,2.44,2.04,3.79c0.25,1.1-0.44,2.2-1.55,2.45c-0.56,0.13-1.11,0.01-1.56-0.27
					l-0.41-0.27c-0.86-0.56-1.47-1.1-2.16-1.43c-0.66-0.37-1.28-0.67-2-0.89c-0.71-0.23-1.51-0.41-2.38-0.54
					c-0.44-0.07-0.89-0.14-1.36-0.18c-0.45-0.07-1-0.08-1.38-0.19l-0.76-0.21c-1.05-0.29-1.66-1.39-1.37-2.44
					C274.05,77.31,274.37,76.91,274.77,76.66z"/>
			</g>
			<g>
				<path class="st1" d="M257.5,100.6c-0.32,0-0.64-0.08-0.94-0.24c-1.89-1.02-5.21-1.02-7.11,0c-0.98,0.52-2.19,0.15-2.71-0.82
					c-0.52-0.97-0.16-2.19,0.82-2.71c3.05-1.64,7.84-1.64,10.89,0c0.97,0.52,1.34,1.73,0.82,2.71
					C258.9,100.22,258.21,100.6,257.5,100.6z"/>
			</g>
			<g>
				<g>
					<circle class="st1" cx="253" cy="90.85" r="7"/>
				</g>
				<g>
					<circle class="st4" cx="254.75" cy="90.85" r="1.75"/>
				</g>
			</g>
			<g>
				<path class="st1" d="M256.01,80.9c-0.39,0.07-0.94,0.03-1.39,0.07c-0.47,0-0.93,0.03-1.37,0.06c-0.88,0.05-1.69,0.17-2.42,0.33
					c-0.74,0.16-1.39,0.4-2.07,0.71c-0.71,0.27-1.37,0.76-2.28,1.24l-0.43,0.23c-1,0.53-2.24,0.15-2.77-0.85
					c-0.27-0.5-0.3-1.08-0.14-1.58c0.42-1.32,1.19-2.63,2.36-3.6c1.13-1,2.58-1.71,4.05-1.99c1.46-0.31,2.93-0.27,4.28,0.02
					c0.68,0.15,1.32,0.37,1.95,0.63c0.64,0.29,1.17,0.58,1.82,1.07c0.87,0.65,1.05,1.89,0.4,2.77c-0.31,0.41-0.75,0.67-1.21,0.76
					L256.01,80.9z"/>
			</g>
		</g>
		<g>
			<g>
				<g>
					<path class="st1" d="M266,124.5c-9.1,0-16.5-7.4-16.5-16.5c0-1.38,1.12-2.5,2.5-2.5h28c1.38,0,2.5,1.12,2.5,2.5
						C282.5,117.1,275.1,124.5,266,124.5z"/>
				</g>
				<g>
					<path class="st1" d="M280,108L280,108 M280,108c0,7.73-6.27,14-14,14s-14-6.27-14-14H280 M280.01,103L280.01,103H252
						c-2.76,0-5,2.24-5,5c0,10.48,8.52,19,19,19c10.41,0,18.9-8.42,19-18.81c0-0.06,0-0.12,0-0.19C285,105.24,282.77,103,280.01,103
						L280.01,103z M280,113L280,113L280,113L280,113z"/>
				</g>
			</g>
			<g>
				<g>
					<ellipse class="st8" cx="266" cy="117.33" rx="10.41" ry="4.67"/>
				</g>
			</g>
		</g>
	</g>
</g>
<g>
	<g>
		<g>
			<g>
				<path class="st0" d="M47,321c-4.96,0-9-4.04-9-9v-88c0-4.96,4.04-9,9-9h138c4.96,0,9,4.04,9,9v88c0,4.96-4.04,9-9,9H47z"/>
			</g>
			<g>
				<g>
					<path class="st1" d="M185,218c3.31,0,6,2.69,6,6v88c0,3.31-2.69,6-6,6H47c-3.31,0-6-2.69-6-6v-88c0-3.31,2.69-6,6-6H185
						 M185,212H47c-6.62,0-12,5.38-12,12v88c0,6.62,5.38,12,12,12h138c6.62,0,12-5.38,12-12v-88C197,217.38,191.62,212,185,212
						L185,212z"/>
				</g>
			</g>
		</g>
		<g>
			<g>
				<path class="st2" d="M109.67,290.48L41,218l0,16.28l60.29,64.31c3.95,4.21,10.64,4.21,14.59,0l5.7-6.08
					C117.72,294.51,112.82,293.84,109.67,290.48z"/>
			</g>
		</g>
		<g>
			<path class="st1" d="M116,296.38c-3.58,0-7.04-1.5-9.48-4.11l-67.7-72.22c-1.13-1.21-1.07-3.11,0.14-4.24
				c1.21-1.13,3.11-1.07,4.24,0.14l67.7,72.22c1.34,1.43,3.15,2.21,5.11,2.21s3.77-0.79,5.11-2.21l67.7-72.22
				c1.13-1.21,3.03-1.27,4.24-0.14c1.21,1.13,1.27,3.03,0.14,4.24l-67.7,72.22C123.04,294.88,119.58,296.38,116,296.38z"/>
		</g>
		<g>
			<path class="st1" d="M191,321c-0.82,0-1.64-0.33-2.23-0.99l-45-50c-1.11-1.23-1.01-3.13,0.22-4.24c1.23-1.11,3.13-1.01,4.24,0.22
				l45,50c1.11,1.23,1.01,3.13-0.22,4.24C192.43,320.75,191.72,321,191,321z"/>
		</g>
		<g>
			<path class="st1" d="M41,321c-0.71,0-1.43-0.25-2.01-0.77c-1.23-1.11-1.33-3-0.22-4.24l45-50c1.11-1.23,3-1.33,4.24-0.22
				c1.23,1.11,1.33,3,0.22,4.24l-45,50C42.64,320.67,41.82,321,41,321z"/>
		</g>
	</g>
	<g>
		<g>
			<g>
				<path class="st1" d="M133.5,252.55c-0.32,0-0.64-0.08-0.94-0.24c-1.89-1.02-5.22-1.02-7.11,0c-0.97,0.52-2.19,0.16-2.71-0.82
					s-0.16-2.19,0.82-2.71c3.05-1.64,7.84-1.64,10.89,0c0.97,0.52,1.34,1.73,0.82,2.71C134.9,252.17,134.21,252.55,133.5,252.55z"/>
			</g>
			<g>
				<g>
					<circle class="st1" cx="129" cy="243.8" r="7"/>
				</g>
				<g>
					<circle class="st4" cx="130.75" cy="243.8" r="1.75"/>
				</g>
			</g>
			<g>
				<path class="st1" d="M125.82,227.03c0.73-0.37,1.3-0.57,1.98-0.74c0.66-0.16,1.33-0.26,2.03-0.29c1.38-0.05,2.83,0.17,4.22,0.73
					c1.39,0.53,2.7,1.48,3.64,2.67c0.99,1.16,1.52,2.58,1.7,3.96c0.15,1.12-0.63,2.15-1.75,2.3c-0.57,0.08-1.11-0.09-1.53-0.41
					l-0.39-0.3c-0.81-0.63-1.37-1.22-2.03-1.61c-0.62-0.42-1.21-0.77-1.92-1.06c-0.69-0.29-1.47-0.54-2.33-0.75
					c-0.43-0.1-0.88-0.22-1.34-0.3c-0.44-0.11-0.99-0.17-1.36-0.31l-0.73-0.28c-1.02-0.39-1.54-1.53-1.15-2.55
					C125.05,227.62,125.4,227.25,125.82,227.03z"/>
			</g>
			<g>
				<path class="st1" d="M107.5,252.55c-0.32,0-0.64-0.08-0.94-0.24c-1.89-1.02-5.22-1.02-7.11,0c-0.97,0.52-2.19,0.16-2.71-0.82
					s-0.16-2.19,0.82-2.71c3.05-1.64,7.84-1.64,10.89,0c0.97,0.52,1.34,1.73,0.82,2.71C108.9,252.17,108.21,252.55,107.5,252.55z"/>
			</g>
			<g>
				<g>
					<circle class="st1" cx="103" cy="243.8" r="7"/>
				</g>
				<g>
					<circle class="st4" cx="104.75" cy="243.8" r="1.75"/>
				</g>
			</g>
			<g>
				<path class="st1" d="M105.25,230.92c-0.37,0.14-0.92,0.2-1.36,0.31c-0.46,0.08-0.91,0.19-1.34,0.3
					c-0.86,0.21-1.63,0.46-2.33,0.75c-0.7,0.28-1.29,0.64-1.92,1.06c-0.66,0.39-1.22,0.98-2.03,1.61l-0.38,0.3
					c-0.89,0.69-2.18,0.53-2.87-0.36c-0.35-0.45-0.48-1.01-0.41-1.53c0.19-1.37,0.71-2.79,1.7-3.96c0.94-1.18,2.25-2.13,3.64-2.67
					c1.39-0.56,2.84-0.78,4.22-0.73c0.69,0.03,1.37,0.13,2.03,0.29c0.68,0.17,1.25,0.37,1.98,0.74c0.97,0.49,1.37,1.68,0.87,2.65
					c-0.23,0.46-0.62,0.79-1.06,0.96L105.25,230.92z"/>
			</g>
		</g>
	</g>
	<g>
		<g>
			<g>
				<g>
					<path class="st1" d="M116,272.81c-7.72,0-14-6.28-14-14c0-1.1,0.9-2,2-2h24c1.1,0,2,0.9,2,2
						C130,266.53,123.72,272.81,116,272.81z"/>
				</g>
				<g>
					<path class="st1" d="M128,258.81L128,258.81 M128,258.81c0,6.63-5.37,12-12,12s-12-5.37-12-12H128 M128,254.81L128,254.81h-24
						c-2.21,0-4,1.79-4,4c0,8.82,7.18,16,16,16c8.77,0,15.91-7.09,16-15.84c0-0.05,0-0.11,0-0.16
						C132,256.6,130.21,254.81,128,254.81L128,254.81z M128,262.81L128,262.81L128,262.81L128,262.81z"/>
				</g>
			</g>
			<g>
				<g>
					<ellipse class="st8" cx="116" cy="266.81" rx="8.93" ry="4"/>
				</g>
			</g>
		</g>
	</g>
</g>
</svg>
