<svg version="1.1" id="Layer_1" xmlns="http://www.w3.org/2000/svg" xmlns:xlink="http://www.w3.org/1999/xlink" x="0" y="0" viewBox="0 0 220 220" style="enable-background:new 0 0 220 220" xml:space="preserve"><style>.st3{fill:#ffd678}.st5{fill:#515979}.st7{fill:#ef7d7d}</style><path d="M110.2 218.5c59.8 0 108.2-48.5 108.2-108.2C218.5 50.5 170 2 110.2 2 50.5 2 2 50.5 2 110.2 2 170 50.5 218.5 110.2 218.5z" style="fill:#eaf0f9"/><path d="M110.2 198.8c48.9 0 88.6-39.7 88.6-88.6 0-48.9-39.7-88.6-88.6-88.6-48.9 0-88.6 39.7-88.6 88.6.1 49 39.7 88.6 88.6 88.6z" style="fill:#e0e8f6"/><path d="M110.2 179.1c38 0 68.9-30.8 68.9-68.9 0-38-30.8-68.9-68.9-68.9-38 0-68.9 30.8-68.9 68.9.1 38.1 30.9 68.9 68.9 68.9z" style="fill:#d6e0f2"/><path class="st3" d="M192.5 182.6c-1 0-2-.4-2.7-1.1-.7-.7-1.1-1.7-1.1-2.7 0-.3-.1-.7-.4-.9-.2-.2-.6-.4-.9-.4-.3 0-.7.1-.9.4-.2.2-.4.6-.4.9 0 1-.4 2-1.1 2.7-.7.7-1.7 1.1-2.7 1.1-.3 0-.7.1-.9.4-.2.2-.4.6-.4.9s.1.7.4.9c.2.2.6.4.9.4 1 0 2 .4 2.7 1.1.7.7 1.1 1.7 1.1 2.7 0 .3.1.7.4.9.2.2.6.4.9.4.3 0 .7-.1.9-.4.2-.2.4-.6.4-.9 0-1 .4-2 1.1-2.7.7-.7 1.7-1.1 2.7-1.1.3 0 .7-.1.9-.4.2-.2.4-.6.4-.9s-.1-.7-.4-.9c-.2-.3-.5-.4-.9-.4zM200.9 161.7c1.2 0 2.2-1 2.2-2.2s-1-2.2-2.2-2.2c-1.2 0-2.2 1-2.2 2.2s1 2.2 2.2 2.2zM168.3 203c1.9 0 3.4-1.5 3.4-3.4s-1.5-3.4-3.4-3.4-3.4 1.5-3.4 3.4c.1 1.9 1.6 3.4 3.4 3.4zM207.1 181.5c1 0 1.9-.8 1.9-1.9 0-1-.8-1.9-1.9-1.9-1 0-1.9.8-1.9 1.9 0 1.1.9 1.9 1.9 1.9zM177 168.6c1 0 1.9-.8 1.9-1.9 0-1-.8-1.9-1.9-1.9s-1.9.8-1.9 1.9c0 1.1.8 1.9 1.9 1.9zM189.5 26.6c1 0 1.9-.8 1.9-1.9 0-1-.8-1.9-1.9-1.9-1 0-1.9.8-1.9 1.9 0 1 .8 1.9 1.9 1.9zM184.3 43.7c1 0 1.9-.8 1.9-1.9 0-1-.8-1.9-1.9-1.9s-1.9.8-1.9 1.9c0 1.1.8 1.9 1.9 1.9zM201.4 41.5c1 0 1.9-.8 1.9-1.9 0-1-.8-1.9-1.9-1.9-1 0-1.9.8-1.9 1.9.1 1.1.9 1.9 1.9 1.9zM42.1 188.3c1 0 1.9-.8 1.9-1.9 0-1-.8-1.9-1.9-1.9-1 0-1.9.8-1.9 1.9 0 1 .9 1.9 1.9 1.9zM51.1 169.6c1 0 1.9-.8 1.9-1.9 0-1-.8-1.9-1.9-1.9-1 0-1.9.8-1.9 1.9 0 1.1.8 1.9 1.9 1.9zM32.4 170.3c1 0 1.9-.8 1.9-1.9 0-1-.8-1.9-1.9-1.9-1 0-1.9.8-1.9 1.9 0 1.1.9 1.9 1.9 1.9zM58.6 42.5c1 0 1.9-.8 1.9-1.9 0-1-.8-1.9-1.9-1.9-1 0-1.9.8-1.9 1.9.1 1.1.9 1.9 1.9 1.9zM6 58.9c1 0 1.9-.8 1.9-1.9 0-1-.8-1.9-1.9-1.9-1 0-1.9.8-1.9 1.9 0 1 .9 1.9 1.9 1.9zM9.7 27.1c1 0 1.9-.8 1.9-1.9 0-1-.8-1.9-1.9-1.9-1 0-1.9.8-1.9 1.9.1 1.1.9 1.9 1.9 1.9zM38.9 37.2H34v-4.9c0-.6-.2-1.2-.7-1.6-.4-.4-1-.7-1.6-.7-.6 0-1.2.2-1.6.7-.4.4-.7 1-.7 1.6v4.9h-4.9c-.6 0-1.2.2-1.6.7-.4.4-.7 1-.7 1.6s.2 1.2.7 1.6c.4.4 1 .7 1.6.7h4.9v4.9c0 .6.2 1.2.7 1.6.4.4 1 .7 1.6.7.6 0 1.2-.2 1.6-.7.4-.4.7-1 .7-1.6v-4.9h4.9c.6 0 1.2-.2 1.6-.7.4-.4.7-1 .7-1.6s-.2-1.2-.7-1.6c-.5-.5-1.1-.7-1.6-.7zM51.9 17.3c-1 0-1.9-.4-2.5-1-.7-.7-1-1.6-1-2.5 0-.3-.1-.6-.3-.8-.2-.2-.5-.3-.8-.3-.3 0-.6.1-.8.3-.2.2-.3.5-.3.8 0 1-.4 1.9-1 2.5-.7.7-1.6 1-2.5 1-.3 0-.6.1-.8.3-.2.2-.3.5-.3.8 0 .3.1.6.3.8.2.2.5.3.8.3 1 0 1.9.4 2.5 1 .7.7 1 1.6 1 2.5 0 .3.1.6.3.8.2.2.5.3.8.3.3 0 .6-.1.8-.3.2-.2.3-.5.3-.8 0-1 .4-1.9 1-2.5.7-.7 1.6-1 2.5-1 .3 0 .6-.1.8-.3.2-.2.3-.5.3-.8 0-.3-.1-.6-.3-.8-.2-.2-.5-.3-.8-.3z"/><defs><path id="SVGID_1_" d="M86.3 136.8h72.1v72.7H86.3z"/></defs><clipPath id="SVGID_00000002375892003373719400000005090543549331376288_"><use xlink:href="#SVGID_1_" style="overflow:visible"/></clipPath><g style="clip-path:url(#SVGID_00000002375892003373719400000005090543549331376288_)"><path class="st5" d="M121 197.8c-6.6-3-34.7-17.1-34.7-39.4h72.1c0 22.2-28.1 36.4-34.7 39.4-.4.2-.9.3-1.4.3-.4 0-.9-.1-1.3-.3z"/><path class="st5" d="M107.9 180c11.9 0 21.6-9.7 21.6-21.6 0-11.9-9.7-21.6-21.6-21.6-11.9 0-21.6 9.7-21.6 21.6 0 11.9 9.7 21.6 21.6 21.6z"/><path class="st5" d="M136.9 180c11.9 0 21.6-9.7 21.6-21.6 0-11.9-9.7-21.6-21.6-21.6-11.9 0-21.6 9.7-21.6 21.6 0 11.9 9.6 21.6 21.6 21.6z"/><path d="M149.7 206.7c0 1.5-12.2 2.7-27.3 2.7s-27.3-1.2-27.3-2.7c0-1.5 12.2-2.7 27.3-2.7s27.3 1.2 27.3 2.7z" style="fill:#d6e0f1"/><path class="st7" d="M136.9 176.7c10.1 0 18.3-8.2 18.3-18.3 0-10.1-8.2-18.3-18.3-18.3-10.1 0-18.3 8.2-18.3 18.3 0 10.1 8.2 18.3 18.3 18.3z"/><path class="st7" d="M107.9 176.7c10.1 0 18.3-8.2 18.3-18.3 0-10.1-8.2-18.3-18.3-18.3-10.1 0-18.3 8.2-18.3 18.3 0 10.1 8.2 18.3 18.3 18.3z"/><path class="st7" d="M122.4 194.7s-32.8-13.4-32.8-36.3h65.6c0 22.9-32.8 36.3-32.8 36.3z"/><path d="M95.1 161.1c0-2.9.7-5.7 2-8.2 1.3-2.6 3.2-4.8 5.4-6.5 2.3-1.7 5-2.8 7.8-3.3s5.7-.3 8.4.5c-2.7-2-6-3.2-9.3-3.5-3.4-.3-6.7.4-9.8 1.9-3 1.5-5.5 3.9-7.3 6.7s-2.7 6.2-2.7 9.6c0 20.6 26.6 33.6 31.9 35.9-9.5-5.1-26.4-16.6-26.4-33.1z" style="fill:#f29797"/><path class="st5" d="M130 169.3h-15.3c-.6 0-1.1.2-1.5.6-.4.4-.6 1-.6 1.5 0 1.3.2 2.6.7 3.8.5 1.2 1.2 2.3 2.1 3.2.9.9 2 1.6 3.2 2.1 1.2.5 2.5.8 3.8.8 1.3 0 2.6-.2 3.8-.7 1.2-.5 2.3-1.2 3.2-2.1.9-.9 1.6-2 2.1-3.2.5-1.2.8-2.5.8-3.8v-.1c0-.6-.2-1.1-.6-1.5-.5-.4-1.1-.6-1.7-.6z"/><path class="st7" d="M122.4 179.1c3.1 0 5.7-1.1 5.7-2.6 0-1.4-2.5-2.6-5.7-2.6-3.1 0-5.7 1.1-5.7 2.6s2.5 2.6 5.7 2.6z"/><path class="st5" d="M126.9 155.6c.9-.7 2-1.2 3.1-1.3 1.1-.1 2.3.2 3.3.8 1 .6 2.4 2.4 1 3.2-.2.1-.4.1-.6.1-.2 0-.4-.1-.5-.1-1.2-.5-2.5-.8-3.8-.8-.6 0-1.3 0-1.9-.1-.2 0-.4-.1-.6-.3-.2-.1-.3-.3-.3-.5-.1-.2-.1-.4 0-.6 0-.1.1-.2.3-.4zM116.9 157.6c-1.3 0-2.7-.1-4 .3-.4.1-1 .4-1.6.5-.2.1-.4.1-.6 0-.2-.1-.4-.2-.5-.3l-.3-.6c0-.2 0-.4.1-.6 1-2.2 3.8-3 5.9-2.3 1 .3 3 1.2 2 2.6-.1.1-.3.3-.5.3-.1.1-.3.1-.5.1zM118 166.3c-.4 0-.7-.1-1-.4-.3-.3-.4-.6-.4-1s-.1-.7-.4-1c-.3-.3-.6-.4-1-.4s-.7.1-1 .4c-.3.3-.4.6-.4 1s-.1.7-.4 1c-.3.3-.6.4-1 .4s-.7-.1-1-.4c-.3-.3-.4-.6-.4-1 0-1.1.4-2.1 1.2-2.9.8-.8 1.8-1.2 2.9-1.2 1.1 0 2.1.4 2.9 1.2.8.8 1.2 1.8 1.2 2.9 0 .4-.1.7-.4 1-.1.2-.4.4-.8.4zM132.2 166.3c-.4 0-.7-.1-1-.4-.3-.3-.4-.6-.4-1s-.1-.7-.4-1c-.3-.3-.6-.4-1-.4s-.7.1-1 .4c-.3.3-.4.6-.4 1s-.1.7-.4 1c-.3.3-.6.4-1 .4s-.7-.1-1-.4c-.3-.3-.4-.6-.4-1 0-1.1.4-2.1 1.2-2.9.8-.8 1.8-1.2 2.9-1.2 1.1 0 2.1.4 2.9 1.2.8.8 1.2 1.8 1.2 2.9 0 .4-.1.7-.4 1-.1.2-.4.4-.8.4z"/></g><path d="M65.7 164.8v-2.7h10.2v2.7H65.7zm0 4.6v-2.7h10.2v2.7H65.7zM110.4 93.5h-5.7v-4.1h5.7v-5.6h4.1v5.6h5.7v4.1h-5.7v5.6h-4.1v-5.6z"/><g><path d="m81.7 55.9-64.4 5.6c-2 .2-3.4 1.9-3.3 3.9l5.4 64.4c.2 2 1.9 3.4 3.9 3.3l64.4-5.6c2-.2 3.4-1.9 3.3-3.9l-5.4-64.4c-.2-2-1.9-3.4-3.9-3.3z" style="fill:#6fdaf6"/><path d="m81.6 55-64.4 5.6c-2.5.2-4.4 2.4-4.2 5l5.4 64.4c.2 2.5 2.4 4.4 4.9 4.2l64.4-5.6c2.5-.2 4.4-2.4 4.2-5l-5.4-64.4c-.1-2.6-2.3-4.5-4.9-4.2z" style="fill:none;stroke:#fff;stroke-width:2"/></g><path d="M57.1 106.8c-.8-2.5-1.2-5.3-1.5-7.8-.4-3.3-.2-6.6.3-9.8 1.4-6.7 2.7-9.5 4.3-10.6 6.1-5.1 18.1-1.7 17.8 5.2.1 9.8-8.5 10.7-8.5 10.8 7.6.1 8.4 11 4.8 14.3-4.4 4.7-12.9 3.1-13 3.1-.6-.1-1.1-.3-1.6-.6-.3-.2-.6-.5-.9-.8-.7 1.1-1.8 1.9-3.1 2.3-9.6 3.4-9.1-8.1-14.2-12.2l-.6.3c.4 1.9.8 3.7 1.2 5.5l.9 3.6c0 .1.6 1.3.5 1.4 0 0-2.3 2.9-5.7 1.7-.9-.4-1.7-1.5-2.2-2.3-1.3-2.1-2.2-4.5-3-6.9-2.6.3-4.4-.2-5.2-.9-2.1-1.9-.9-3.8-.5-4.7.5-.9 2.1-2.9 3.9-3.4-.1-1.6-.1-3.2-.1-4.7.1-1.8.1-3.9 1-5.7 2.2-4.4 5.9-5.2 7.5-4.4 1.2.6.9 3.5.9 4.5 0 1.9-.3 3.8-.3 5.8 0 1.5 0 3 .1 4.6 4.9-5 4.9-12.1 5.5-15 1.1-5.3 6.2-.1 7 1.4 1.3 2.4.3 10.2-5.8 15.6 1.2.6 2.3 1.5 3.6 2.8 2.3 1.9 3.4 6.2 6.9 6.9zm11.7 1.3c-.8 1.1-2.1.5-2.1.5-.7-.1-2.5-13.3.7-11.7 2.6 1.5 1.9 10.5 1.4 11.2zm.4-26.8c2.4.6-.1 10.7-1.4 11.4-.7.4-1.7.4-1.9-.3-.6-1.9.2-7 .4-7.9.2-2.1.8-3.7 2.9-3.2z" style="fill-rule:evenodd;clip-rule:evenodd;fill:#fff"/></svg>