<?xml version="1.0" encoding="utf-8"?>
<!-- Generator: Adobe Illustrator 25.2.3, SVG Export Plug-In . SVG Version: 6.00 Build 0)  -->
<svg version="1.1" id="Layer_1" xmlns="http://www.w3.org/2000/svg" xmlns:xlink="http://www.w3.org/1999/xlink" x="0px" y="0px"
	 viewBox="0 0 400 400" style="enable-background:new 0 0 400 400;" xml:space="preserve">
<style type="text/css">
	.st0{fill:#515979;}
	.st1{fill:#FFFFFF;}
	.st2{fill:#7DDF96;}
	.st3{fill:#667683;}
	.st4{fill:#EF7D7D;}
	.st5{fill:#FFE8A0;}
	.st6{opacity:0.3;}
	.st7{fill:#6B6B6B;}
	.st8{fill:#D8F5DF;}
	.st9{fill:#CCCCCC;}
	.st10{fill:#979BAF;}
	.st11{fill:#D8EBFB;}
	.st12{fill:#A0D2FF;}
	.st13{fill:#9E8271;}
	.st14{fill:#FFD886;}
	.st15{fill:#FFE8B6;}
	.st16{fill:#F89D81;}
	.st17{fill:#FBC4B3;}
</style>
<g>
	<path class="st0" d="M197.19,381.9c-0.01,0-0.02,0-0.03,0c-2.01-0.03-4.05-0.09-6.06-0.18c-1.1-0.05-1.96-0.99-1.9-2.09
		c0.05-1.1,0.98-1.94,2.09-1.91c1.97,0.09,3.96,0.15,5.93,0.18c1.1,0.02,1.99,0.92,1.97,2.03
		C199.17,381.02,198.28,381.9,197.19,381.9z M215.16,381.26c-1.03,0-1.9-0.79-1.99-1.83c-0.09-1.1,0.72-2.07,1.82-2.16
		c1.97-0.17,3.95-0.37,5.9-0.6c1.09-0.12,2.09,0.65,2.22,1.75c0.13,1.1-0.65,2.09-1.75,2.22c-1.99,0.24-4.02,0.44-6.03,0.61
		C215.27,381.26,215.22,381.26,215.16,381.26z M173.29,379.99c-0.1,0-0.19-0.01-0.29-0.02c-1.99-0.29-4-0.62-5.99-0.98
		c-1.09-0.2-1.81-1.24-1.61-2.33c0.2-1.09,1.24-1.81,2.33-1.61c1.94,0.35,3.91,0.68,5.85,0.96c1.09,0.16,1.85,1.18,1.69,2.27
		C175.12,379.27,174.27,379.99,173.29,379.99z M238.86,377.64c-0.92,0-1.74-0.63-1.95-1.57c-0.24-1.08,0.44-2.15,1.52-2.39
		c1.92-0.42,3.86-0.89,5.77-1.38c1.07-0.28,2.16,0.37,2.43,1.44c0.28,1.07-0.37,2.16-1.44,2.43c-1.95,0.5-3.94,0.98-5.9,1.41
		C239.15,377.63,239,377.64,238.86,377.64z M149.86,374.92c-0.18,0-0.37-0.03-0.55-0.08c-1.94-0.56-3.89-1.15-5.8-1.77
		c-1.05-0.34-1.63-1.47-1.28-2.52c0.34-1.05,1.47-1.62,2.52-1.29c1.87,0.61,3.77,1.19,5.67,1.74c1.06,0.3,1.67,1.41,1.37,2.47
		C151.53,374.35,150.73,374.92,149.86,374.92z M261.87,370.9c-0.81,0-1.58-0.5-1.88-1.31c-0.38-1.04,0.15-2.19,1.19-2.57
		c1.86-0.68,3.72-1.41,5.55-2.15c1.02-0.42,2.19,0.08,2.61,1.1c0.42,1.02-0.08,2.19-1.1,2.61c-1.86,0.76-3.77,1.5-5.67,2.2
		C262.33,370.86,262.1,370.9,261.87,370.9z M127.31,366.76c-0.27,0-0.54-0.05-0.8-0.17c-1.84-0.81-3.69-1.66-5.5-2.53
		c-1-0.48-1.42-1.67-0.94-2.67c0.48-1,1.67-1.41,2.67-0.94c1.76,0.85,3.57,1.68,5.37,2.47c1.01,0.45,1.47,1.62,1.03,2.64
		C128.81,366.31,128.08,366.76,127.31,366.76z M283.78,361.12c-0.72,0-1.41-0.39-1.77-1.06c-0.52-0.98-0.14-2.19,0.83-2.7
		c1.73-0.92,3.48-1.88,5.21-2.87c0.96-0.55,2.18-0.21,2.73,0.74c0.55,0.96,0.22,2.18-0.74,2.73c-1.76,1.01-3.55,1.99-5.32,2.93
		C284.42,361.04,284.1,361.12,283.78,361.12z M106.07,355.67c-0.35,0-0.71-0.09-1.04-0.29c-1.71-1.04-3.43-2.13-5.12-3.24
		c-0.92-0.61-1.18-1.85-0.57-2.77c0.61-0.92,1.85-1.18,2.77-0.57c1.65,1.08,3.33,2.15,5,3.17c0.94,0.58,1.24,1.81,0.67,2.75
		C107.41,355.33,106.75,355.67,106.07,355.67z M304.19,348.51c-0.62,0-1.24-0.29-1.63-0.84c-0.64-0.9-0.43-2.15,0.47-2.79
		c1.61-1.15,3.21-2.33,4.77-3.53c0.88-0.67,2.13-0.5,2.8,0.37c0.67,0.88,0.5,2.13-0.37,2.8c-1.59,1.22-3.24,2.43-4.88,3.61
		C305,348.39,304.59,348.51,304.19,348.51z M86.49,341.85c-0.44,0-0.89-0.15-1.26-0.45c-1.57-1.27-3.13-2.58-4.65-3.89
		c-0.83-0.72-0.92-1.99-0.2-2.82c0.72-0.84,1.99-0.92,2.82-0.2c1.48,1.29,3.01,2.57,4.54,3.81c0.86,0.7,0.99,1.96,0.3,2.81
		C87.65,341.6,87.07,341.85,86.49,341.85z M322.74,333.31c-0.53,0-1.07-0.21-1.46-0.63c-0.75-0.81-0.71-2.07,0.09-2.83
		c1.44-1.35,2.88-2.74,4.26-4.13c0.78-0.78,2.05-0.78,2.83,0c0.78,0.78,0.78,2.05,0,2.83c-1.42,1.42-2.88,2.84-4.36,4.22
		C323.72,333.13,323.23,333.31,322.74,333.31z M68.9,325.56c-0.53,0-1.06-0.21-1.45-0.63c-1.39-1.47-2.77-2.97-4.09-4.48
		c-0.73-0.83-0.65-2.09,0.17-2.82c0.83-0.73,2.09-0.66,2.82,0.17c1.3,1.47,2.65,2.94,4,4.38c0.76,0.8,0.72,2.07-0.08,2.83
		C69.89,325.38,69.4,325.56,68.9,325.56z M339.12,315.8c-0.45,0-0.89-0.15-1.27-0.45c-0.85-0.7-0.98-1.96-0.28-2.81
		c1.24-1.52,2.48-3.08,3.68-4.65c0.67-0.88,1.92-1.04,2.8-0.37c0.88,0.67,1.04,1.93,0.37,2.8c-1.23,1.6-2.49,3.2-3.76,4.75
		C340.27,315.55,339.7,315.8,339.12,315.8z M53.62,307.08c-0.62,0-1.23-0.29-1.62-0.83c-1.18-1.63-2.34-3.31-3.47-4.98
		c-0.62-0.92-0.37-2.16,0.54-2.78c0.92-0.62,2.16-0.37,2.78,0.54c1.1,1.64,2.24,3.28,3.39,4.87c0.65,0.9,0.44,2.15-0.45,2.79
		C54.44,306.96,54.03,307.08,53.62,307.08z M353.03,296.28c-0.36,0-0.72-0.1-1.05-0.3c-0.94-0.58-1.23-1.81-0.65-2.75
		c1.03-1.68,2.05-3.39,3.02-5.09c0.55-0.96,1.77-1.29,2.73-0.74c0.96,0.55,1.29,1.77,0.74,2.73c-0.99,1.74-2.03,3.49-3.09,5.21
		C354.35,295.94,353.7,296.28,353.03,296.28z M40.92,286.74c-0.71,0-1.4-0.38-1.77-1.06c-0.95-1.78-1.89-3.59-2.78-5.4
		c-0.49-0.99-0.08-2.19,0.91-2.68c0.99-0.49,2.19-0.08,2.68,0.91c0.87,1.77,1.79,3.55,2.72,5.28c0.52,0.97,0.15,2.19-0.82,2.71
		C41.56,286.66,41.24,286.74,40.92,286.74z M364.22,275.08c-0.27,0-0.55-0.06-0.81-0.17c-1.01-0.45-1.46-1.63-1.01-2.64
		c0.8-1.8,1.58-3.63,2.32-5.44c0.42-1.02,1.58-1.52,2.61-1.1c1.02,0.42,1.52,1.58,1.1,2.61c-0.75,1.85-1.55,3.73-2.37,5.57
		C365.72,274.64,364.99,275.08,364.22,275.08z M31.04,264.88c-0.81,0-1.57-0.5-1.87-1.3c-0.7-1.88-1.39-3.81-2.03-5.73
		c-0.35-1.05,0.21-2.18,1.26-2.53c1.04-0.35,2.18,0.21,2.53,1.26c0.63,1.88,1.3,3.76,1.99,5.61c0.39,1.03-0.14,2.19-1.17,2.57
		C31.51,264.84,31.27,264.88,31.04,264.88z M372.48,252.6c-0.19,0-0.38-0.03-0.56-0.08c-1.06-0.31-1.67-1.42-1.36-2.48
		c0.56-1.91,1.09-3.83,1.57-5.72c0.28-1.07,1.36-1.72,2.43-1.44c1.07,0.27,1.71,1.36,1.44,2.43c-0.5,1.93-1.04,3.9-1.61,5.85
		C374.15,252.03,373.35,252.6,372.48,252.6z M24.17,241.88c-0.91,0-1.74-0.63-1.95-1.56c-0.45-1.97-0.86-3.96-1.24-5.94
		c-0.21-1.08,0.5-2.13,1.59-2.34c1.09-0.21,2.13,0.5,2.34,1.59c0.37,1.93,0.78,3.88,1.21,5.81c0.24,1.08-0.43,2.15-1.51,2.39
		C24.46,241.87,24.32,241.88,24.17,241.88z M377.67,229.19c-0.1,0-0.2-0.01-0.3-0.02c-1.09-0.17-1.84-1.19-1.68-2.28
		c0.3-1.95,0.56-3.92,0.79-5.88c0.13-1.1,1.13-1.88,2.22-1.75c1.1,0.13,1.88,1.12,1.75,2.22c-0.24,2-0.51,4.02-0.81,6.01
		C379.49,228.48,378.64,229.19,377.67,229.19z M20.44,218.2c-1.02,0-1.9-0.78-1.99-1.82c-0.18-2.01-0.33-4.04-0.44-6.05
		c-0.06-1.1,0.78-2.05,1.88-2.11c1.1-0.06,2.05,0.78,2.11,1.88c0.11,1.96,0.26,3.95,0.43,5.92c0.1,1.1-0.71,2.07-1.81,2.17
		C20.56,218.2,20.5,218.2,20.44,218.2z M379.69,205.3c-0.01,0-0.03,0-0.04,0c-1.1-0.02-1.98-0.93-1.96-2.04
		c0.02-1.12,0.03-2.23,0.03-3.35c0-1.96-0.03-3.95-0.1-5.93c-0.04-1.1,0.83-2.03,1.93-2.06c1.1-0.02,2.03,0.83,2.06,1.93
		c0.07,2.02,0.1,4.06,0.1,6.06c0,1.14-0.01,2.28-0.03,3.42C381.67,204.43,380.77,205.3,379.69,205.3z M19.88,194.23
		c-0.03,0-0.06,0-0.09,0c-1.1-0.05-1.96-0.98-1.91-2.08c0.08-2.02,0.2-4.06,0.35-6.05c0.08-1.1,1.05-1.92,2.14-1.84
		c1.1,0.08,1.93,1.04,1.84,2.14c-0.15,1.95-0.26,3.94-0.35,5.92C21.83,193.39,20.95,194.23,19.88,194.23z M378.14,177.99
		c-0.99,0-1.85-0.73-1.98-1.74c-0.26-1.97-0.56-3.94-0.88-5.87c-0.18-1.09,0.55-2.12,1.64-2.3c1.09-0.18,2.12,0.55,2.3,1.64
		c0.33,1.97,0.63,3.99,0.9,6c0.15,1.1-0.62,2.1-1.72,2.25C378.31,177.99,378.23,177.99,378.14,177.99z M22.47,170.4
		c-0.12,0-0.23-0.01-0.35-0.03c-1.09-0.19-1.81-1.23-1.62-2.32c0.35-1.98,0.74-3.99,1.16-5.95c0.23-1.08,1.29-1.78,2.37-1.54
		c1.08,0.23,1.77,1.29,1.54,2.37c-0.41,1.93-0.79,3.88-1.13,5.82C24.26,169.72,23.42,170.4,22.47,170.4z M373.4,154.49
		c-0.88,0-1.69-0.58-1.93-1.48c-0.52-1.91-1.08-3.83-1.66-5.69c-0.33-1.06,0.26-2.17,1.32-2.5c1.05-0.33,2.18,0.26,2.5,1.32
		c0.59,1.91,1.16,3.87,1.69,5.83c0.29,1.07-0.34,2.17-1.4,2.46C373.75,154.47,373.58,154.49,373.4,154.49z M28.21,147.12
		c-0.2,0-0.41-0.03-0.61-0.1c-1.05-0.34-1.63-1.46-1.3-2.51c0.61-1.91,1.26-3.85,1.94-5.75c0.37-1.04,1.52-1.58,2.56-1.21
		c1.04,0.37,1.58,1.52,1.21,2.56c-0.66,1.86-1.3,3.75-1.9,5.62C29.84,146.58,29.06,147.12,28.21,147.12z M365.56,131.83
		c-0.78,0-1.52-0.46-1.84-1.22c-0.77-1.82-1.58-3.65-2.41-5.44c-0.46-1-0.03-2.19,0.98-2.66c1-0.46,2.19-0.03,2.66,0.97
		c0.84,1.83,1.67,3.7,2.46,5.56c0.43,1.02-0.04,2.19-1.06,2.62C366.09,131.78,365.82,131.83,365.56,131.83z M37.01,124.82
		c-0.29,0-0.58-0.06-0.86-0.19c-1-0.47-1.42-1.67-0.95-2.66c0.86-1.82,1.77-3.64,2.69-5.42c0.51-0.98,1.71-1.37,2.69-0.86
		c0.98,0.51,1.37,1.71,0.86,2.69c-0.9,1.74-1.78,3.52-2.63,5.3C38.48,124.4,37.76,124.82,37.01,124.82z M354.76,110.41
		c-0.68,0-1.35-0.35-1.72-0.98c-1-1.7-2.05-3.4-3.11-5.06c-0.59-0.93-0.32-2.17,0.61-2.76c0.93-0.59,2.17-0.32,2.76,0.61
		c1.08,1.7,2.15,3.44,3.18,5.17c0.56,0.95,0.25,2.18-0.7,2.74C355.46,110.32,355.11,110.41,354.76,110.41z M48.71,103.91
		c-0.37,0-0.75-0.1-1.09-0.32c-0.93-0.6-1.19-1.84-0.59-2.77c1.09-1.68,2.23-3.37,3.39-5.02c0.63-0.9,1.88-1.13,2.79-0.49
		c0.91,0.63,1.13,1.88,0.49,2.79c-1.13,1.62-2.24,3.27-3.31,4.91C50,103.59,49.36,103.91,48.71,103.91z M341.2,90.62
		c-0.59,0-1.18-0.26-1.57-0.76c-1.22-1.55-2.48-3.1-3.75-4.6c-0.71-0.84-0.6-2.11,0.24-2.82c0.84-0.71,2.11-0.6,2.82,0.24
		c1.3,1.54,2.59,3.12,3.83,4.7c0.68,0.87,0.53,2.12-0.33,2.81C342.07,90.48,341.63,90.62,341.2,90.62z M63.08,84.73
		c-0.46,0-0.92-0.16-1.3-0.48c-0.84-0.72-0.93-1.98-0.21-2.82c1.31-1.53,2.66-3.05,4.02-4.53c0.75-0.81,2.01-0.87,2.83-0.12
		c0.81,0.75,0.87,2.01,0.12,2.83c-1.33,1.45-2.66,2.94-3.94,4.43C64.21,84.49,63.65,84.73,63.08,84.73z M325.14,72.81
		c-0.5,0-1-0.19-1.39-0.57c-1.4-1.36-2.85-2.73-4.32-4.06c-0.82-0.74-0.88-2.01-0.13-2.83c0.75-0.82,2.01-0.88,2.83-0.13
		c1.5,1.37,2.99,2.76,4.42,4.15c0.79,0.77,0.81,2.04,0.04,2.83C326.19,72.61,325.67,72.81,325.14,72.81z M79.87,67.61
		c-0.55,0-1.1-0.23-1.49-0.67c-0.74-0.82-0.66-2.09,0.16-2.82c1.5-1.34,3.05-2.68,4.59-3.97c0.85-0.71,2.11-0.59,2.82,0.25
		c0.71,0.85,0.59,2.11-0.25,2.82c-1.51,1.26-3.02,2.57-4.49,3.88C80.82,67.44,80.35,67.61,79.87,67.61z M306.88,57.28
		c-0.41,0-0.83-0.13-1.19-0.39c-1.57-1.16-3.19-2.33-4.82-3.45c-0.91-0.63-1.13-1.88-0.51-2.78c0.63-0.91,1.87-1.14,2.78-0.51
		c1.66,1.15,3.32,2.34,4.92,3.53c0.89,0.66,1.07,1.91,0.42,2.8C308.09,57,307.49,57.28,306.88,57.28z M98.78,52.86
		c-0.64,0-1.27-0.31-1.66-0.88c-0.62-0.91-0.38-2.16,0.53-2.78c1.66-1.13,3.37-2.25,5.08-3.33c0.93-0.59,2.17-0.31,2.76,0.62
		c0.59,0.93,0.31,2.17-0.62,2.76c-1.67,1.06-3.34,2.15-4.97,3.25C99.56,52.75,99.17,52.86,98.78,52.86z M286.72,44.3
		c-0.33,0-0.66-0.08-0.97-0.25c-1.72-0.95-3.48-1.89-5.23-2.78c-0.98-0.5-1.37-1.71-0.87-2.69c0.5-0.98,1.71-1.38,2.69-0.87
		c1.78,0.91,3.58,1.87,5.34,2.84c0.97,0.53,1.32,1.75,0.78,2.72C288.11,43.93,287.43,44.3,286.72,44.3z M119.48,40.74
		c-0.73,0-1.44-0.41-1.79-1.11c-0.49-0.99-0.09-2.19,0.9-2.68c1.8-0.9,3.64-1.78,5.48-2.62c1.01-0.46,2.19-0.02,2.65,0.99
		c0.46,1,0.02,2.19-0.99,2.65c-1.8,0.82-3.61,1.69-5.36,2.56C120.08,40.68,119.78,40.74,119.48,40.74z M265.03,34.13
		c-0.24,0-0.49-0.04-0.72-0.14c-1.84-0.72-3.71-1.41-5.56-2.06c-1.04-0.37-1.59-1.51-1.22-2.55c0.37-1.04,1.5-1.59,2.55-1.22
		c1.89,0.66,3.8,1.37,5.69,2.11c1.03,0.4,1.54,1.56,1.14,2.59C266.58,33.65,265.83,34.13,265.03,34.13z M141.61,31.5
		c-0.83,0-1.61-0.52-1.89-1.35c-0.36-1.05,0.2-2.18,1.25-2.54c1.91-0.65,3.86-1.28,5.79-1.87c1.06-0.32,2.17,0.28,2.49,1.33
		c0.32,1.06-0.28,2.17-1.33,2.49c-1.89,0.57-3.8,1.19-5.66,1.82C142.05,31.46,141.83,31.5,141.61,31.5z M242.16,26.94
		c-0.16,0-0.31-0.02-0.47-0.06c-1.91-0.46-3.85-0.9-5.79-1.3c-1.08-0.22-1.78-1.28-1.55-2.36c0.22-1.08,1.28-1.78,2.36-1.55
		c1.98,0.41,3.97,0.85,5.92,1.33c1.07,0.26,1.73,1.34,1.47,2.41C243.88,26.33,243.06,26.94,242.16,26.94z M164.79,25.3
		c-0.94,0-1.77-0.66-1.96-1.61c-0.21-1.08,0.49-2.14,1.58-2.35c1.97-0.39,3.98-0.75,5.97-1.07c1.08-0.18,2.12,0.56,2.29,1.65
		c0.18,1.09-0.56,2.12-1.65,2.29c-1.94,0.32-3.91,0.67-5.84,1.05C165.05,25.29,164.92,25.3,164.79,25.3z M218.53,22.88
		c-0.07,0-0.14,0-0.21-0.01c-1.96-0.2-3.95-0.38-5.91-0.51c-1.1-0.08-1.93-1.03-1.85-2.14c0.08-1.1,1.03-1.93,2.14-1.85
		c2,0.14,4.04,0.32,6.04,0.53c1.1,0.11,1.9,1.1,1.78,2.2C220.41,22.12,219.54,22.88,218.53,22.88z M188.57,22.25
		c-1.05,0-1.93-0.82-1.99-1.88c-0.07-1.1,0.77-2.05,1.87-2.12c2.01-0.12,4.05-0.21,6.06-0.27c1.09-0.04,2.02,0.84,2.06,1.94
		c0.03,1.1-0.84,2.02-1.94,2.06c-1.97,0.06-3.96,0.14-5.93,0.26C188.66,22.25,188.61,22.25,188.57,22.25z"/>
</g>
<g>
	<g>
		<g>
			<path class="st1" d="M329.14,319.93c-0.36,0-0.72-0.01-1.08-0.04l-179.39-14.79c-3.46-0.29-6.6-1.9-8.85-4.55
				c-2.25-2.65-3.32-6.01-3.04-9.47l18.57-225.24c0.55-6.69,6.24-11.93,12.95-11.93c0.36,0,0.72,0.01,1.08,0.04l179.39,14.79
				c3.46,0.29,6.6,1.9,8.85,4.55c2.25,2.65,3.33,6.01,3.04,9.47l-18.57,225.24C341.53,314.69,335.85,319.93,329.14,319.93z"/>
		</g>
		<g>
			<path class="st0" d="M168.3,56.9c0.28,0,0.55,0.01,0.83,0.03l179.39,14.79c5.5,0.45,9.6,5.28,9.14,10.79l-18.57,225.24
				c-0.43,5.22-4.8,9.18-9.96,9.18c-0.28,0-0.55-0.01-0.83-0.03L148.91,302.1c-5.5-0.45-9.6-5.28-9.14-10.79l18.57-225.24
				C158.77,60.85,163.15,56.9,168.3,56.9 M168.3,50.9c-8.26,0-15.26,6.45-15.93,14.69l-18.57,225.24
				c-0.73,8.79,5.84,16.54,14.63,17.26l179.39,14.79c0.44,0.04,0.89,0.05,1.33,0.05c8.26,0,15.26-6.45,15.93-14.69l18.57-225.24
				c0.35-4.26-0.98-8.4-3.74-11.66c-2.76-3.26-6.63-5.25-10.89-5.6L169.62,50.95C169.18,50.92,168.74,50.9,168.3,50.9L168.3,50.9z"
				/>
		</g>
	</g>
	<g>
		<path class="st2" d="M328.31,316.89L148.91,302.1c-5.5-0.45-9.6-5.28-9.14-10.79l5.09-61.79l199.32,16.43l-5.09,61.79
			C338.64,313.25,333.81,317.35,328.31,316.89z"/>
	</g>
	<g>
		
			<rect x="214.91" y="36.09" transform="matrix(0.0822 -0.9966 0.9966 0.0822 96.5009 376.956)" class="st2" width="76" height="200"/>
	</g>
	<g>
		<g>
			<path class="st3" d="M356.19,103.45c-0.08,0-0.16,0-0.25-0.01L156.61,87.01c-1.65-0.14-2.88-1.58-2.74-3.24l1.48-17.94
				c0.55-6.69,6.24-11.93,12.95-11.93c0.36,0,0.72,0.01,1.08,0.04l179.39,14.79c3.46,0.29,6.6,1.9,8.85,4.55
				c2.25,2.65,3.33,6.01,3.04,9.47l-1.48,17.94c-0.07,0.79-0.44,1.53-1.05,2.04C357.58,103.2,356.89,103.45,356.19,103.45z"/>
		</g>
		<g>
			<path class="st0" d="M168.3,56.9c0.28,0,0.55,0.01,0.83,0.03l179.39,14.79c5.5,0.45,9.6,5.28,9.14,10.79l-1.48,17.94
				L156.86,84.02l1.48-17.94C158.77,60.85,163.15,56.9,168.3,56.9 M168.3,50.9C168.3,50.9,168.3,50.9,168.3,50.9
				c-8.26,0-15.26,6.45-15.93,14.69l-1.48,17.94c-0.13,1.59,0.37,3.16,1.4,4.37c1.03,1.21,2.5,1.97,4.08,2.1l199.32,16.43
				c0.17,0.01,0.33,0.02,0.5,0.02c3.09,0,5.71-2.37,5.97-5.51l1.48-17.94c0.72-8.79-5.84-16.54-14.63-17.26L169.62,50.95
				C169.18,50.92,168.74,50.9,168.3,50.9L168.3,50.9z"/>
		</g>
	</g>
	<g>
		<g>
			<path class="st1" d="M341.39,92.18c-0.19,0-0.38-0.01-0.58-0.02l-93.68-7.72c-1.86-0.15-3.56-1.02-4.77-2.45
				c-1.21-1.43-1.79-3.24-1.64-5.1c0.3-3.6,3.36-6.42,6.97-6.42c0.19,0,0.38,0.01,0.58,0.02l93.68,7.72
				c1.86,0.15,3.56,1.02,4.76,2.45s1.79,3.24,1.64,5.1C348.07,89.36,345.01,92.18,341.39,92.18z"/>
		</g>
		<g>
			<g>
				<path class="st0" d="M247.7,73.46c0.11,0,0.22,0,0.33,0.01l93.68,7.72c2.2,0.18,3.84,2.11,3.66,4.32
					c-0.17,2.09-1.92,3.67-3.98,3.67c-0.11,0-0.22,0-0.33-0.01l-93.68-7.72c-2.2-0.18-3.84-2.11-3.66-4.32v0
					C243.89,75.04,245.64,73.46,247.7,73.46 M247.7,67.46C247.7,67.46,247.7,67.46,247.7,67.46c-5.16,0-9.54,4.03-9.96,9.18
					c-0.45,5.5,3.65,10.33,9.14,10.79l93.68,7.72c0.27,0.02,0.55,0.03,0.83,0.03c5.16,0,9.54-4.03,9.96-9.18
					c0.45-5.5-3.65-10.33-9.14-10.79l-93.68-7.72C248.25,67.47,247.98,67.46,247.7,67.46L247.7,67.46z"/>
			</g>
		</g>
	</g>
	<g>
		<g>
			<path class="st4" d="M173.96,78.38c-0.19,0-0.39-0.01-0.58-0.02c-1.86-0.15-3.56-1.02-4.76-2.45c-1.21-1.43-1.79-3.24-1.64-5.1
				c0.3-3.6,3.36-6.42,6.97-6.42c0.19,0,0.39,0.01,0.58,0.02c3.85,0.32,6.72,3.71,6.4,7.55C180.64,75.56,177.57,78.38,173.96,78.38z
				"/>
		</g>
		<g>
			<g>
				<path class="st0" d="M173.95,67.38c0.11,0,0.22,0,0.33,0.01c2.2,0.18,3.84,2.11,3.66,4.32c-0.17,2.09-1.92,3.67-3.98,3.67
					c-0.11,0-0.22,0-0.33-0.01c-2.2-0.18-3.84-2.11-3.66-4.32C170.14,68.96,171.89,67.38,173.95,67.38 M173.95,61.38
					C173.95,61.38,173.95,61.38,173.95,61.38c-5.16,0-9.54,4.03-9.96,9.18c-0.45,5.5,3.65,10.33,9.14,10.79
					c0.27,0.02,0.55,0.03,0.83,0.03c5.16,0,9.54-4.03,9.96-9.18c0.22-2.66-0.61-5.25-2.34-7.29c-1.73-2.04-4.14-3.28-6.81-3.5
					C174.51,61.39,174.23,61.38,173.95,61.38L173.95,61.38z"/>
			</g>
		</g>
	</g>
	<g>
		<g>
			<path class="st5" d="M197.88,80.35c-0.19,0-0.39-0.01-0.58-0.02c-3.85-0.32-6.72-3.71-6.4-7.55c0.3-3.6,3.36-6.42,6.97-6.42
				c0.19,0,0.39,0.01,0.58,0.02c1.86,0.15,3.56,1.02,4.76,2.45c1.21,1.43,1.79,3.24,1.64,5.1
				C204.56,77.53,201.49,80.35,197.88,80.35z"/>
		</g>
		<g>
			<g>
				<path class="st0" d="M197.87,69.35c0.11,0,0.22,0,0.33,0.01c2.2,0.18,3.84,2.11,3.66,4.32c-0.17,2.09-1.92,3.67-3.98,3.67
					c-0.11,0-0.22,0-0.33-0.01c-2.2-0.18-3.84-2.11-3.66-4.32C194.06,70.93,195.81,69.35,197.87,69.35 M197.87,63.35
					C197.87,63.35,197.87,63.35,197.87,63.35c-5.16,0-9.54,4.03-9.96,9.18c-0.45,5.5,3.65,10.33,9.14,10.79
					c0.27,0.02,0.55,0.03,0.83,0.03c5.16,0,9.54-4.03,9.96-9.18c0.22-2.66-0.61-5.25-2.34-7.29c-1.73-2.04-4.14-3.28-6.81-3.5
					C198.42,63.36,198.15,63.35,197.87,63.35L197.87,63.35z"/>
			</g>
		</g>
	</g>
	<g>
		<g>
			<path class="st2" d="M221.8,82.32c-0.19,0-0.38-0.01-0.58-0.02c-3.84-0.32-6.72-3.7-6.4-7.55c0.3-3.6,3.36-6.43,6.97-6.43
				c0.19,0,0.38,0.01,0.58,0.02c1.86,0.15,3.56,1.02,4.77,2.45s1.79,3.24,1.64,5.1C228.47,79.5,225.41,82.32,221.8,82.32z"/>
		</g>
		<g>
			<g>
				<path class="st0" d="M221.79,71.32c0.11,0,0.22,0,0.33,0.01c2.2,0.18,3.84,2.11,3.66,4.32c-0.17,2.09-1.92,3.67-3.98,3.67
					c-0.11,0-0.22,0-0.33-0.01c-2.2-0.18-3.84-2.11-3.66-4.32C217.98,72.91,219.73,71.32,221.79,71.32 M221.79,65.32
					C221.79,65.32,221.79,65.32,221.79,65.32c-5.16,0-9.54,4.03-9.96,9.18c-0.22,2.66,0.61,5.25,2.34,7.29
					c1.73,2.04,4.14,3.28,6.81,3.5c0.27,0.02,0.55,0.03,0.83,0.03c5.16,0,9.54-4.03,9.96-9.18c0.22-2.66-0.61-5.25-2.34-7.29
					c-1.73-2.04-4.14-3.28-6.81-3.5C222.34,65.33,222.07,65.32,221.79,65.32L221.79,65.32z"/>
			</g>
		</g>
	</g>
	<g>
		<g class="st6">
			<circle class="st7" cx="218.15" cy="131.71" r="2.5"/>
		</g>
		<g class="st6">
			<circle class="st7" cx="222.73" cy="143.13" r="2.5"/>
		</g>
		<g class="st6">
			<circle class="st7" cx="211.76" cy="142.23" r="2.5"/>
		</g>
	</g>
	<g>
		<g class="st6">
			<circle class="st7" cx="287.91" cy="137.47" r="2.5"/>
		</g>
		<g class="st6">
			<circle class="st7" cx="292.49" cy="148.88" r="2.5"/>
		</g>
		<g class="st6">
			<circle class="st7" cx="281.53" cy="147.98" r="2.5"/>
		</g>
	</g>
	<g>
		
			<rect x="146.83" y="172.84" transform="matrix(0.9966 0.0822 -0.0822 0.9966 18.0769 -19.5723)" class="st8" width="200" height="74"/>
	</g>
	<g>
		<g>
			<path class="st1" d="M164.29,225.11l41.86,3.45c2.2,0.18,4.13-1.46,4.32-3.66l2.96-35.88c0.18-2.2-1.46-4.13-3.66-4.32
				l-41.86-3.45c-2.2-0.18-4.13,1.46-4.32,3.66l-2.96,35.88C160.45,222.99,162.09,224.92,164.29,225.11z"/>
		</g>
		<g>
			<circle class="st8" cx="174.9" cy="193.87" r="6"/>
		</g>
		<g>
			<path class="st2" d="M203.64,210.29l-33.89-2.79c-1.1-0.09-1.92-1.06-1.83-2.16l0,0c0.09-1.1,1.06-1.92,2.16-1.83l33.89,2.79
				c1.1,0.09,1.92,1.06,1.83,2.16v0C205.71,209.56,204.74,210.38,203.64,210.29z"/>
		</g>
		<g>
			<path class="st2" d="M189.03,217.11l-19.93-1.64c-1.1-0.09-1.92-1.06-1.83-2.16l0,0c0.09-1.1,1.06-1.92,2.16-1.83l19.93,1.64
				c1.1,0.09,1.92,1.06,1.83,2.16l0,0C191.1,216.38,190.13,217.2,189.03,217.11z"/>
		</g>
	</g>
	<g>
		<g>
			<path class="st1" d="M283.89,234.97l41.86,3.45c2.2,0.18,4.13-1.46,4.32-3.66l2.96-35.88c0.18-2.2-1.46-4.13-3.66-4.32
				l-41.86-3.45c-2.2-0.18-4.13,1.46-4.32,3.66l-2.96,35.88C280.05,232.85,281.69,234.78,283.89,234.97z"/>
		</g>
		<g>
			<circle class="st8" cx="294.49" cy="203.73" r="6"/>
		</g>
		<g>
			<path class="st2" d="M323.24,220.15l-33.89-2.79c-1.1-0.09-1.92-1.06-1.83-2.16l0,0c0.09-1.1,1.06-1.92,2.16-1.83l33.89,2.79
				c1.1,0.09,1.92,1.06,1.83,2.16l0,0C325.3,219.42,324.34,220.24,323.24,220.15z"/>
		</g>
		<g>
			<path class="st2" d="M300.66,226.31l-11.96-0.99c-1.1-0.09-1.92-1.06-1.83-2.16l0,0c0.09-1.1,1.06-1.92,2.16-1.83l11.96,0.99
				c1.1,0.09,1.92,1.06,1.83,2.16l0,0C302.72,225.59,301.76,226.4,300.66,226.31z"/>
		</g>
	</g>
	<g>
		<g>
			<path class="st1" d="M224.09,230.04l41.86,3.45c2.2,0.18,4.13-1.46,4.32-3.66l2.96-35.88c0.18-2.2-1.46-4.13-3.66-4.32
				l-41.86-3.45c-2.2-0.18-4.13,1.46-4.32,3.66l-2.96,35.88C220.25,227.92,221.89,229.85,224.09,230.04z"/>
		</g>
		<g>
			<circle class="st8" cx="234.69" cy="198.8" r="6"/>
		</g>
		<g>
			<path class="st2" d="M263.44,215.22l-33.89-2.79c-1.1-0.09-1.92-1.06-1.83-2.16l0,0c0.09-1.1,1.06-1.92,2.16-1.83l33.89,2.79
				c1.1,0.09,1.92,1.06,1.83,2.16l0,0C265.51,214.49,264.54,215.31,263.44,215.22z"/>
		</g>
		<g>
			<path class="st2" d="M254.81,222.53l-25.91-2.14c-1.1-0.09-1.92-1.06-1.83-2.16l0,0c0.09-1.1,1.06-1.92,2.16-1.83l25.91,2.14
				c1.1,0.09,1.92,1.06,1.83,2.16v0C256.88,221.81,255.91,222.63,254.81,222.53z"/>
		</g>
	</g>
	<g>
		<circle class="st8" cx="181.28" cy="274.67" r="24"/>
	</g>
	<g>
		<circle class="st8" cx="241.08" cy="279.6" r="24"/>
	</g>
	<g>
		<circle class="st8" cx="300.87" cy="284.53" r="24"/>
	</g>
	<g>
		<g>
			<g>
				<path class="st0" d="M272.46,138.17c-0.37,0-0.75-0.1-1.08-0.32c-1.8-1.17-5.11-1.44-7.09-0.58c-1.01,0.44-2.19-0.02-2.63-1.04
					c-0.44-1.01,0.02-2.19,1.04-2.63c3.18-1.38,7.95-0.99,10.85,0.9c0.93,0.6,1.19,1.84,0.59,2.77
					C273.76,137.85,273.12,138.17,272.46,138.17z"/>
			</g>
			<g>
				<g>
					<circle class="st0" cx="268.7" cy="127.08" r="8"/>
				</g>
				<g>
					<circle class="st1" cx="270.69" cy="127.24" r="2"/>
				</g>
			</g>
			<g>
				<path class="st0" d="M264.1,111.26c0.73-0.54,1.34-0.87,2.06-1.19c0.7-0.3,1.44-0.55,2.2-0.7c1.52-0.33,3.18-0.37,4.83-0.02
					c0.83,0.15,1.63,0.47,2.41,0.82c0.38,0.19,0.74,0.44,1.1,0.66c0.37,0.21,0.7,0.48,1.01,0.78c1.31,1.09,2.16,2.54,2.66,4
					c0.37,1.06-0.2,2.22-1.26,2.59c-0.61,0.21-1.24,0.12-1.75-0.2l-0.35-0.22c-1-0.63-1.77-1.27-2.61-1.65
					c-0.81-0.43-1.61-0.72-2.5-0.92c-0.88-0.21-1.85-0.32-2.89-0.35c-0.52,0-1.06-0.02-1.61,0.01c-0.54-0.01-1.17,0.07-1.63,0.03
					l-0.62-0.05c-1.1-0.08-1.92-1.04-1.84-2.13C263.34,112.12,263.65,111.59,264.1,111.26z"/>
			</g>
			<g>
				<path class="st0" d="M242.57,135.7c-0.37,0-0.75-0.1-1.08-0.32c-1.8-1.17-5.11-1.44-7.09-0.58c-1.01,0.44-2.19-0.02-2.63-1.04
					s0.02-2.19,1.04-2.63c3.17-1.38,7.94-0.99,10.85,0.89c0.93,0.6,1.19,1.84,0.59,2.77C243.86,135.38,243.22,135.7,242.57,135.7z"
					/>
			</g>
			<g>
				<g>
					<circle class="st0" cx="238.8" cy="124.61" r="8"/>
				</g>
				<g>
					<circle class="st1" cx="240.8" cy="124.78" r="2"/>
				</g>
			</g>
			<g>
				<path class="st0" d="M243.7,113.08c-0.46-0.04-1.07-0.22-1.6-0.3c-0.54-0.12-1.08-0.19-1.59-0.27
					c-1.04-0.14-2.01-0.19-2.91-0.13c-0.91,0.05-1.75,0.21-2.61,0.5c-0.89,0.24-1.75,0.74-2.84,1.2l-0.38,0.16
					c-1.04,0.44-2.23-0.04-2.67-1.08c-0.25-0.59-0.2-1.24,0.08-1.77c0.74-1.36,1.81-2.65,3.28-3.51c0.35-0.24,0.72-0.45,1.12-0.6
					c0.39-0.16,0.79-0.34,1.2-0.47c0.83-0.22,1.67-0.4,2.51-0.41c1.68-0.07,3.31,0.23,4.76,0.81c0.73,0.28,1.41,0.64,2.06,1.05
					c0.66,0.43,1.2,0.85,1.83,1.51c0.77,0.79,0.75,2.05-0.04,2.82c-0.43,0.42-1.01,0.6-1.56,0.56L243.7,113.08z"/>
			</g>
		</g>
		<g>
			<path class="st0" d="M254.77,148.94c-6.81,0-13.8-2.32-19.52-6.84c-0.87-0.68-1.01-1.94-0.33-2.81c0.69-0.87,1.94-1.01,2.81-0.33
				c8.66,6.84,21.1,7.88,29.58,2.46c0.93-0.59,2.17-0.32,2.76,0.61c0.59,0.93,0.32,2.17-0.61,2.76
				C265.11,147.57,259.99,148.94,254.77,148.94z"/>
		</g>
		<g>
			<path class="st0" d="M247.44,151.55c1.31,0.54,2.72,0.79,4.12,0.96c0.7,0.08,1.41,0.05,2.11,0.02c0.7-0.03,1.4-0.12,2.09-0.29
				c0.71-0.18,1.43,0.25,1.61,0.96c0.13,0.5-0.05,1-0.4,1.32l-0.78,0.7c-0.73,0.65-1.56,0.97-2.4,1.18
				c-0.84,0.17-1.71,0.22-2.56,0.1c-0.42-0.05-0.85-0.11-1.26-0.23c-0.42-0.1-0.82-0.24-1.22-0.41c-0.79-0.34-1.54-0.77-2.19-1.43
				l-0.62-0.64c-0.53-0.54-0.52-1.41,0.03-1.94C246.37,151.44,246.95,151.34,247.44,151.55z"/>
		</g>
	</g>
</g>
<g>
	<g>
		<g>
			<path class="st9" d="M124.61,301.46c-0.8,0-1.56-0.32-2.12-0.88l-19.8-19.8c-1.17-1.17-1.17-3.07,0-4.24l5.66-5.66
				c0.56-0.56,1.33-0.88,2.12-0.88c0.8,0,1.56,0.32,2.12,0.88l19.8,19.8c1.17,1.17,1.17,3.07,0,4.24l-5.66,5.66
				C126.17,301.14,125.4,301.46,124.61,301.46z"/>
		</g>
		<g>
			<path class="st0" d="M110.46,273l19.8,19.8l-5.66,5.66l-19.8-19.8L110.46,273 M110.46,267c-1.59,0-3.12,0.63-4.24,1.76
				l-5.66,5.66c-2.34,2.34-2.34,6.14,0,8.49l19.8,19.8c1.17,1.17,2.71,1.76,4.24,1.76c1.54,0,3.07-0.59,4.24-1.76l5.66-5.66
				c1.13-1.13,1.76-2.65,1.76-4.24c0-1.59-0.63-3.12-1.76-4.24l-19.8-19.8C113.58,267.64,112.06,267,110.46,267L110.46,267z"/>
		</g>
	</g>
	<g>
		
			<rect x="112.47" y="281.17" transform="matrix(0.7071 -0.7071 0.7071 0.7071 -167.1778 165.738)" class="st10" width="8" height="7"/>
	</g>
	<g>
		<g>
			<path class="st9" d="M75.11,296.3c-14.16,0-27.47-5.51-37.48-15.52c-20.67-20.66-20.67-54.29,0-74.95
				c10.01-10.01,23.32-15.52,37.48-15.52s27.47,5.51,37.48,15.52c20.67,20.66,20.67,54.29,0,74.95
				C102.58,290.79,89.27,296.3,75.11,296.3z"/>
		</g>
		<g>
			<path class="st0" d="M75.11,193.3c12.8,0,25.59,4.88,35.36,14.64c19.53,19.53,19.53,51.18,0,70.71
				c-9.76,9.76-22.56,14.64-35.36,14.64s-25.59-4.88-35.36-14.64c-19.53-19.53-19.53-51.18,0-70.71
				C49.52,198.19,62.31,193.3,75.11,193.3 M75.11,187.3c-14.96,0-29.02,5.83-39.6,16.4c-10.58,10.58-16.4,24.64-16.4,39.6
				c0,14.96,5.83,29.02,16.4,39.6s24.64,16.4,39.6,16.4c14.96,0,29.02-5.83,39.6-16.4c10.58-10.58,16.4-24.64,16.4-39.6
				c0-14.96-5.83-29.02-16.4-39.6C104.13,193.13,90.07,187.3,75.11,187.3L75.11,187.3z"/>
		</g>
	</g>
	<g>
		<g>
			<path class="st11" d="M75.11,281.3c-10.15,0-19.69-3.95-26.87-11.13c-14.82-14.82-14.82-38.92,0-53.74
				c7.18-7.18,16.72-11.13,26.87-11.13c10.15,0,19.69,3.95,26.87,11.13c14.82,14.82,14.82,38.92,0,53.74
				C94.8,277.35,85.26,281.3,75.11,281.3z"/>
		</g>
		<g>
			<path class="st0" d="M75.11,208.3c8.96,0,17.91,3.42,24.75,10.25c13.67,13.67,13.67,35.83,0,49.5
				c-6.83,6.83-15.79,10.25-24.75,10.25s-17.91-3.42-24.75-10.25c-13.67-13.67-13.67-35.83,0-49.5
				C57.19,211.72,66.15,208.3,75.11,208.3 M75.11,202.3c-10.95,0-21.25,4.26-28.99,12.01s-12.01,18.04-12.01,28.99
				s4.26,21.25,12.01,28.99c7.74,7.74,18.04,12.01,28.99,12.01c10.95,0,21.25-4.26,28.99-12.01s12.01-18.04,12.01-28.99
				s-4.26-21.25-12.01-28.99C96.36,206.57,86.06,202.3,75.11,202.3L75.11,202.3z"/>
		</g>
	</g>
	<g>
		<g>
			<path class="st12" d="M53.9,222.09c-13.07,13.07-13.63,33.91-1.7,47.66c-0.63-0.54-1.24-1.1-1.84-1.7
				c-13.67-13.67-13.67-35.83,0-49.5c13.67-13.67,35.83-13.67,49.5,0c0.6,0.6,1.15,1.21,1.7,1.84
				C87.81,208.46,66.97,209.02,53.9,222.09z"/>
		</g>
	</g>
	<g>
		<g>
			<path class="st13" d="M153.6,337.52c-0.77,0-1.54-0.29-2.12-0.88l-32.53-32.53c-0.56-0.56-0.88-1.33-0.88-2.12
				s0.32-1.56,0.88-2.12l12.73-12.73c0.59-0.59,1.35-0.88,2.12-0.88c0.77,0,1.54,0.29,2.12,0.88l32.53,32.53
				c0.56,0.56,0.88,1.33,0.88,2.12s-0.32,1.56-0.88,2.12l-12.73,12.73C155.13,337.23,154.37,337.52,153.6,337.52z"/>
		</g>
		<g>
			<path class="st0" d="M133.8,289.27l32.53,32.53l-12.73,12.73l-32.53-32.53L133.8,289.27 M133.8,283.27
				c-1.59,0-3.12,0.63-4.24,1.76l-12.73,12.73c-2.34,2.34-2.34,6.14,0,8.49l32.53,32.53c1.17,1.17,2.71,1.76,4.24,1.76
				c1.54,0,3.07-0.59,4.24-1.76l12.73-12.73c2.34-2.34,2.34-6.14,0-8.49l-32.53-32.53C136.92,283.9,135.39,283.27,133.8,283.27
				L133.8,283.27z"/>
		</g>
	</g>
	<g>
		<g>
			<path class="st14" d="M125.31,309.24c-0.8,0-1.56-0.32-2.12-0.88l-4.24-4.24c-1.17-1.17-1.17-3.07,0-4.24l12.73-12.73
				c0.56-0.56,1.33-0.88,2.12-0.88l0,0c0.8,0,1.56,0.32,2.12,0.88l4.24,4.24c1.17,1.17,1.17,3.07,0,4.24l-12.73,12.73
				C126.87,308.92,126.11,309.24,125.31,309.24L125.31,309.24z"/>
		</g>
		<g>
			<path class="st0" d="M133.8,289.27l4.24,4.24l-12.73,12.73l-4.24-4.24L133.8,289.27 M133.8,283.27c-1.59,0-3.12,0.63-4.24,1.76
				l-12.73,12.73c-1.13,1.13-1.76,2.65-1.76,4.24s0.63,3.12,1.76,4.24l4.24,4.24c1.17,1.17,2.71,1.76,4.24,1.76
				c1.54,0,3.07-0.59,4.24-1.76l12.73-12.73c2.34-2.34,2.34-6.14,0-8.49l-4.24-4.24C136.92,283.9,135.39,283.27,133.8,283.27
				L133.8,283.27z"/>
		</g>
	</g>
	<g>
		<g>
			<path class="st0" d="M92.07,249.11c-0.32,0-0.64-0.08-0.94-0.24c-1.89-1.02-5.22-1.01-7.11,0c-0.97,0.52-2.19,0.16-2.71-0.82
				c-0.52-0.97-0.16-2.19,0.82-2.71c3.05-1.64,7.84-1.64,10.89,0c0.97,0.52,1.34,1.73,0.82,2.71
				C93.48,248.73,92.79,249.11,92.07,249.11z"/>
		</g>
		<g>
			<g>
				<circle class="st0" cx="87.58" cy="239.36" r="7"/>
			</g>
			<g>
				<circle class="st1" cx="89.33" cy="239.36" r="1.75"/>
			</g>
		</g>
		<g>
			<path class="st0" d="M82.6,224.34c0.61-0.55,1.11-0.88,1.72-1.22c0.6-0.32,1.22-0.59,1.88-0.8c1.32-0.41,2.78-0.57,4.26-0.39
				c1.48,0.15,2.99,0.73,4.21,1.63c1.26,0.87,2.13,2.1,2.67,3.38c0.44,1.04-0.05,2.24-1.1,2.68c-0.53,0.22-1.09,0.2-1.58,0
				l-0.45-0.19c-0.94-0.4-1.64-0.83-2.38-1.03c-0.71-0.25-1.37-0.43-2.13-0.52c-0.74-0.1-1.56-0.14-2.44-0.12
				c-0.44,0.01-0.91,0.02-1.37,0.06c-0.46,0.01-1,0.09-1.39,0.05l-0.78-0.08c-1.09-0.11-1.88-1.08-1.77-2.16
				C82,225.11,82.25,224.66,82.6,224.34z"/>
		</g>
		<g>
			<path class="st0" d="M66.07,249.11c-0.32,0-0.64-0.08-0.94-0.24c-1.89-1.02-5.22-1.01-7.11,0c-0.97,0.52-2.19,0.16-2.71-0.82
				c-0.52-0.97-0.16-2.19,0.82-2.71c3.05-1.64,7.84-1.64,10.89,0c0.97,0.52,1.34,1.73,0.82,2.71
				C67.48,248.73,66.79,249.11,66.07,249.11z"/>
		</g>
		<g>
			<g>
				<circle class="st0" cx="61.58" cy="239.36" r="7"/>
			</g>
			<g>
				<circle class="st1" cx="63.33" cy="239.36" r="1.75"/>
			</g>
		</g>
		<g>
			<path class="st0" d="M64.65,227.86c-0.39,0.04-0.94-0.05-1.39-0.05c-0.47-0.04-0.93-0.05-1.37-0.06
				c-0.89-0.02-1.7,0.02-2.44,0.12c-0.75,0.09-1.41,0.28-2.13,0.52c-0.74,0.21-1.43,0.64-2.38,1.03l-0.45,0.19
				c-1.04,0.44-2.24-0.05-2.68-1.09c-0.22-0.53-0.2-1.1,0-1.59c0.54-1.28,1.41-2.51,2.67-3.38c1.21-0.9,2.72-1.48,4.21-1.63
				c1.49-0.18,2.95-0.02,4.26,0.39c0.66,0.21,1.29,0.48,1.88,0.8c0.61,0.34,1.11,0.68,1.72,1.22c0.81,0.73,0.88,1.98,0.16,2.79
				c-0.34,0.38-0.8,0.6-1.27,0.65L64.65,227.86z"/>
		</g>
	</g>
	<g>
		<path class="st0" d="M74.91,259.38c-4.96,0-10.04-1.43-14.43-4.31c-0.92-0.6-1.18-1.84-0.58-2.77c0.6-0.92,1.84-1.18,2.77-0.58
			c7.35,4.8,17.32,4.82,23.71,0.03c0.88-0.66,2.14-0.48,2.8,0.4c0.66,0.88,0.48,2.14-0.4,2.8
			C84.84,257.91,79.94,259.38,74.91,259.38z"/>
	</g>
	<g>
		<path class="st0" d="M70.4,262.03c1.35,0.43,2.77,0.57,4.18,0.62c0.71,0.03,1.41-0.07,2.11-0.15c0.7-0.09,1.39-0.24,2.05-0.47
			c0.69-0.24,1.45,0.13,1.68,0.82c0.17,0.48,0.04,1-0.29,1.34l-0.72,0.76c-0.67,0.71-1.48,1.09-2.3,1.37
			c-0.83,0.24-1.69,0.36-2.54,0.31c-0.43-0.02-0.85-0.04-1.27-0.13c-0.42-0.06-0.84-0.17-1.25-0.3c-0.81-0.27-1.6-0.64-2.3-1.25
			l-0.67-0.59c-0.57-0.5-0.63-1.37-0.13-1.94C69.32,262.01,69.89,261.87,70.4,262.03z"/>
	</g>
</g>
<g>
	<g>
		<g>
			<path class="st14" d="M153.75,126.83c-0.61,0-1.23-0.19-1.75-0.56l0,0c-0.22-0.16-22.39-15.78-52.74-15.78
				c-7.71,0-15.39,1.01-22.82,3c-0.26,0.07-0.52,0.1-0.78,0.1c-0.52,0-1.04-0.14-1.5-0.4c-0.69-0.4-1.19-1.05-1.4-1.82L62.41,72.73
				c-0.43-1.6,0.52-3.25,2.12-3.67c41.61-11.15,58.88-48.47,59.05-48.85c0.49-1.08,1.56-1.77,2.73-1.77c0.08,0,0.16,0,0.24,0.01
				c1.26,0.1,2.33,0.99,2.65,2.21l27.44,102.39c0.33,1.22-0.15,2.52-1.19,3.24C154.94,126.66,154.35,126.83,153.75,126.83z"/>
		</g>
		<g>
			<path class="st0" d="M126.32,21.45l27.43,102.39c0,0-22.73-16.34-54.49-16.34c-7.43,0-15.36,0.9-23.6,3.1L65.31,71.96
				C108.78,60.31,126.32,21.45,126.32,21.45 M126.31,15.44c-2.34,0-4.49,1.37-5.46,3.53c-0.12,0.25-4.38,9.4-13.52,19.71
				c-12.19,13.75-26.85,23-43.58,27.48c-3.2,0.86-5.1,4.15-4.24,7.35l10.35,38.64c0.72,2.68,3.14,4.45,5.79,4.45
				c0.51,0,1.04-0.07,1.56-0.21c7.18-1.92,14.6-2.9,22.04-2.9c29.48,0,50.78,15.06,50.99,15.22c1.05,0.75,2.27,1.13,3.5,1.13
				c1.19,0,2.38-0.35,3.41-1.06c2.09-1.44,3.04-4.04,2.38-6.49L132.11,19.89c-0.66-2.45-2.78-4.22-5.31-4.43
				C126.64,15.45,126.48,15.44,126.31,15.44L126.31,15.44z"/>
		</g>
	</g>
	<g>
		<g>
			<path class="st15" d="M65.31,71.96l1.55,5.8c43.47-11.65,61.01-50.51,61.01-50.51l-1.55-5.8
				C126.32,21.45,108.78,60.31,65.31,71.96z"/>
		</g>
	</g>
	<g>
		<g>
			<path class="st16" d="M157.17,130.99c-2.71,0-5.09-1.83-5.79-4.45L122.9,20.29c-0.41-1.55-0.2-3.17,0.6-4.55
				c0.8-1.39,2.1-2.38,3.64-2.8c0.51-0.14,1.03-0.21,1.55-0.21c2.71,0,5.09,1.83,5.79,4.45l28.47,106.25
				c0.42,1.55,0.2,3.17-0.6,4.55c-0.8,1.39-2.1,2.38-3.64,2.8C158.21,130.92,157.69,130.99,157.17,130.99z"/>
		</g>
		<g>
			<g>
				<path class="st0" d="M128.7,15.74c1.32,0,2.54,0.88,2.9,2.22l28.47,106.25c0.43,1.6-0.52,3.25-2.12,3.67
					c-0.26,0.07-0.52,0.1-0.78,0.1c-1.32,0-2.54-0.88-2.9-2.22L125.8,19.51c-0.43-1.6,0.52-3.25,2.12-3.67
					C128.18,15.77,128.44,15.74,128.7,15.74 M128.7,9.74C128.7,9.74,128.7,9.74,128.7,9.74c-0.79,0-1.57,0.1-2.33,0.31
					c-2.32,0.62-4.26,2.11-5.46,4.19c-1.2,2.08-1.52,4.51-0.9,6.83l28.47,106.25c1.05,3.93,4.63,6.67,8.69,6.67
					c0.79,0,1.57-0.1,2.33-0.31c2.32-0.62,4.26-2.11,5.46-4.19c1.2-2.08,1.52-4.51,0.9-6.83L137.39,16.41
					C136.34,12.48,132.76,9.74,128.7,9.74L128.7,9.74z"/>
			</g>
		</g>
	</g>
	<g>
		<path class="st17" d="M127.92,15.84c-1.6,0.43-2.55,2.07-2.12,3.67l2.07,7.73c-0.43-1.6,0.52-3.25,2.12-3.67
			c1.6-0.43,3.25,0.52,3.67,2.12l-2.07-7.73C131.17,16.36,129.52,15.41,127.92,15.84z"/>
	</g>
	<g>
		<g>
			<path class="st14" d="M26.33,126.67c-3.16,0-5.94-2.13-6.76-5.19l-8.28-30.91c-0.48-1.81-0.24-3.69,0.7-5.31s2.44-2.78,4.25-3.26
				l11.59-3.11c0.59-0.16,1.2-0.24,1.81-0.24c3.16,0,5.94,2.13,6.76,5.19l8.28,30.91c0.48,1.81,0.24,3.69-0.7,5.31
				s-2.44,2.78-4.25,3.26l-11.59,3.11C27.55,126.59,26.94,126.67,26.33,126.67L26.33,126.67z"/>
		</g>
		<g>
			<g>
				<path class="st0" d="M29.64,81.65c1.77,0,3.38,1.18,3.86,2.97l8.28,30.91c0.57,2.13-0.69,4.33-2.83,4.9l-11.59,3.11
					c-0.35,0.09-0.7,0.14-1.04,0.14c-1.77,0-3.38-1.18-3.86-2.97L14.19,89.8c-0.57-2.13,0.69-4.33,2.83-4.9l11.59-3.11
					C28.95,81.7,29.3,81.65,29.64,81.65 M29.64,75.65c-0.87,0-1.74,0.11-2.59,0.34L15.46,79.1c-5.33,1.43-8.5,6.92-7.07,12.25
					l8.28,30.91c1.17,4.36,5.14,7.41,9.66,7.41c0.87,0,1.74-0.11,2.59-0.34l11.59-3.11c5.33-1.43,8.5-6.92,7.07-12.25L39.3,83.07
					C38.13,78.7,34.16,75.65,29.64,75.65L29.64,75.65z"/>
			</g>
		</g>
	</g>
	<g>
		<path class="st15" d="M14.7,91.73l19.32-5.18l-0.52-1.93c-0.57-2.13-2.77-3.4-4.9-2.83L17.02,84.9c-2.13,0.57-3.4,2.77-2.83,4.9
			L14.7,91.73z"/>
	</g>
	<g>
		<g>
			<path class="st14" d="M62.03,169.98c-2.03,0-3.84-1.21-4.62-3.09l-15.3-36.95l23.59-6.32l8.49,31.69
				c2.41,0.65,4.25,2.79,4.44,5.39c0.21,2.85-1.7,5.47-4.54,6.23l-10.76,2.88C62.9,169.92,62.46,169.98,62.03,169.98L62.03,169.98z"
				/>
		</g>
		<g>
			<g>
				<path class="st0" d="M63.57,127.29l8.28,30.91c0.26-0.07,0.52-0.1,0.78-0.1c1.51,0,2.87,1.15,2.99,2.81
					c0.1,1.45-0.93,2.74-2.33,3.11l-10.76,2.88c-0.17,0.05-0.35,0.07-0.52,0.07c-0.79,0-1.53-0.47-1.85-1.24l-13.99-33.79
					L63.57,127.29 M67.82,119.94l-5.8,1.55l-17.39,4.66l-6.61,1.77l2.62,6.32l13.99,33.79c1.24,3,4.14,4.94,7.39,4.94
					c0.7,0,1.4-0.09,2.07-0.27l10.76-2.88c4.23-1.13,7.07-5.06,6.76-9.34c-0.23-3.24-2.19-6-4.92-7.4l-7.33-27.34L67.82,119.94
					L67.82,119.94z"/>
			</g>
		</g>
	</g>
	<g>
		<g>
			<path class="st16" d="M39.73,130.33c-3.16,0-5.94-2.13-6.76-5.19L21.07,80.7c-0.48-1.81-0.24-3.69,0.7-5.31
				c0.94-1.62,2.44-2.78,4.25-3.26l32.84-8.8c0.59-0.16,1.2-0.24,1.81-0.24c3.16,0,5.94,2.13,6.76,5.19l11.91,44.43
				c1,3.73-1.22,7.57-4.95,8.57l-32.84,8.8C40.95,130.25,40.34,130.33,39.73,130.33L39.73,130.33z"/>
		</g>
		<g>
			<g>
				<path class="st0" d="M60.67,66.09c1.77,0,3.38,1.18,3.86,2.97l11.91,44.43c0.57,2.13-0.69,4.33-2.83,4.9l-32.84,8.8
					c-0.35,0.09-0.7,0.14-1.04,0.14c-1.77,0-3.38-1.18-3.86-2.97L23.97,79.93c-0.57-2.13,0.69-4.33,2.83-4.9l32.84-8.8
					C59.98,66.14,60.33,66.09,60.67,66.09 M60.67,60.09c-0.87,0-1.74,0.11-2.59,0.34l-32.84,8.8c-2.58,0.69-4.74,2.35-6.07,4.66
					c-1.34,2.31-1.69,5.01-1,7.59l11.91,44.43c1.17,4.36,5.14,7.41,9.66,7.41c0.87,0,1.74-0.11,2.59-0.34l32.84-8.8
					c2.58-0.69,4.74-2.35,6.07-4.66c1.34-2.31,1.69-5.01,1-7.59L70.33,67.5C69.16,63.14,65.19,60.09,60.67,60.09L60.67,60.09z"/>
			</g>
		</g>
	</g>
	<g>
		<path class="st17" d="M24.48,81.86l40.57-10.87l-0.52-1.93c-0.57-2.13-2.77-3.4-4.9-2.83l-32.84,8.8c-2.13,0.57-3.4,2.77-2.83,4.9
			L24.48,81.86z"/>
	</g>
	<g>
		<g>
			<path class="st16" d="M72.47,140.33c-1.32,0-2.54-0.88-2.9-2.22l-3.11-11.59c-0.21-0.77-0.1-1.59,0.3-2.28s1.05-1.19,1.82-1.4
				l3.86-1.04c0.26-0.07,0.52-0.1,0.78-0.1c1.32,0,2.54,0.88,2.9,2.22l2.33,8.69c0.42,1.55,0.2,3.16-0.6,4.55
				c-0.8,1.39-2.09,2.38-3.64,2.8l-0.97,0.26C72.99,140.3,72.73,140.33,72.47,140.33z"/>
		</g>
		<g>
			<path class="st0" d="M73.23,124.7l2.33,8.69c0.43,1.6-0.52,3.25-2.12,3.67l-0.97,0.26l-3.11-11.59L73.23,124.7 M73.23,118.7
				c-0.52,0-1.04,0.07-1.55,0.2l-3.86,1.04c-3.2,0.86-5.1,4.15-4.24,7.35l3.11,11.59c0.72,2.68,3.14,4.45,5.79,4.45
				c0.51,0,1.04-0.07,1.56-0.21l0.97-0.26c4.79-1.28,7.65-6.23,6.36-11.02l-2.33-8.69c-0.41-1.54-1.42-2.85-2.8-3.64
				C75.31,118.98,74.28,118.7,73.23,118.7L73.23,118.7z"/>
		</g>
	</g>
	<g class="st6">
		<polygon class="st0" points="46.19,131.95 48.5,137.54 65.13,133.09 63.57,127.29 		"/>
	</g>
</g>
</svg>
