<svg version="1.1" id="Layer_1" xmlns="http://www.w3.org/2000/svg" x="0" y="0" viewBox="0 0 306.3 270" style="enable-background:new 0 0 306.3 270" xml:space="preserve"><style>.st0{fill:#88ca91}.st1{fill:#515a7a}.st2{fill:#a1aab4}.st3{fill:#d9dde1}.st4{fill:#d8ebf9}</style><path class="st0" d="M67.3 237.3c-.8 0-1.5-.3-2-.8s-.8-1.3-.8-2c0-3.3 1.3-6.5 3.6-8.8 2.3-2.3 5.5-3.6 8.8-3.6s6.5 1.3 8.8 3.6 3.6 5.5 3.6 8.8c0 .8-.3 1.5-.8 2s-1.3.8-2 .8H67.3z"/><path class="st1" d="M76.8 224.8c2.5 0 5 1 6.8 2.8s2.8 4.2 2.8 6.8H67.3c0-2.5 1-5 2.8-6.8 1.8-1.7 4.2-2.8 6.7-2.8zm0-5.7c-4.1 0-7.9 1.6-10.8 4.5s-4.5 6.8-4.5 10.8c0 1.5.6 3 1.7 4.1s2.5 1.7 4.1 1.7h19.1c1.5 0 3-.6 4.1-1.7 1.1-1.1 1.7-2.5 1.7-4.1 0-4.1-1.6-7.9-4.5-10.8-2.9-2.9-6.8-4.5-10.9-4.5z"/><path class="st2" d="M147.5 80.6h-19.1c-1.6 0-2.9 1.3-2.9 2.9v28.7c0 1.6 1.3 2.9 2.9 2.9h19.1c1.6 0 2.9-1.3 2.9-2.9V83.5c0-1.6-1.3-2.9-2.9-2.9z"/><path class="st1" d="M147.5 83.5v28.7h-19.1V83.5h19.1zm0-5.8h-19.1c-1.5 0-3 .6-4.1 1.7s-1.7 2.5-1.7 4.1v28.7c0 1.5.6 3 1.7 4.1s2.5 1.7 4.1 1.7h19.1c1.5 0 3-.6 4.1-1.7s1.7-2.5 1.7-4.1V83.5c0-1.5-.6-3-1.7-4.1-1.1-1.1-2.6-1.7-4.1-1.7z"/><path class="st3" d="M128.4 80.6H99.8c-1.6 0-2.9 1.3-2.9 2.9v28.7c0 1.6 1.3 2.9 2.9 2.9h28.7c1.6 0 2.9-1.3 2.9-2.9V83.5c-.1-1.6-1.4-2.9-3-2.9z"/><path class="st1" d="M128.4 83.5v28.7H99.8V83.5h28.6zm0-5.8H99.8c-1.5 0-3 .6-4.1 1.7S94 81.9 94 83.5v28.7c0 1.5.6 3 1.7 4.1s2.5 1.7 4.1 1.7h28.7c1.5 0 3-.6 4.1-1.7s1.7-2.5 1.7-4.1V83.5c0-1.5-.6-3-1.7-4.1-1.2-1.1-2.7-1.7-4.2-1.7z"/><path class="st2" d="M237.3 109.3h-28.7c-1.6 0-2.9 1.3-2.9 2.9v122.3c0 1.6 1.3 2.9 2.9 2.9h28.7c1.6 0 2.9-1.3 2.9-2.9V112.1c0-1.6-1.3-2.8-2.9-2.8z"/><path class="st1" d="M237.3 112.1v122.3h-28.7V112.1h28.7zm0-5.7h-28.7c-1.5 0-3 .6-4.1 1.7s-1.7 2.5-1.7 4.1v122.3c0 1.5.6 3 1.7 4.1 1.1 1.1 2.5 1.7 4.1 1.7h28.7c1.5 0 3-.6 4.1-1.7 1.1-1.1 1.7-2.5 1.7-4.1V112.1c0-1.5-.6-3-1.7-4.1-1.1-1-2.6-1.6-4.1-1.6z"/><path class="st3" d="M202.9 109.3H82.6c-1.6 0-2.9 1.3-2.9 2.9v122.3c0 1.6 1.3 2.9 2.9 2.9H203c1.6 0 2.9-1.3 2.9-2.9V112.1c-.1-1.6-1.4-2.8-3-2.8z"/><path class="st1" d="M202.9 112.1v122.3H82.6V112.1h120.3zm0-5.7H82.6c-1.5 0-3 .6-4.1 1.7s-1.7 2.5-1.7 4.1v122.3c0 1.5.6 3 1.7 4.1s2.5 1.7 4.1 1.7H203c1.5 0 3-.6 4.1-1.7 1.1-1.1 1.7-2.5 1.7-4.1V112.1c0-1.5-.6-3-1.7-4.1-1.2-1-2.6-1.6-4.2-1.6z"/><path class="st2" d="M149.4 201h-19.1c-1.6 0-2.9 1.3-2.9 2.9v30.6c0 1.6 1.3 2.9 2.9 2.9h19.1c1.6 0 2.9-1.3 2.9-2.9v-30.6c0-1.7-1.3-2.9-2.9-2.9z"/><path class="st1" d="M149.4 203.8v30.6h-19.1v-30.6h19.1zm0-5.7h-19.1c-1.5 0-3 .6-4.1 1.7-1.1 1.1-1.7 2.5-1.7 4.1v30.6c0 1.5.6 3 1.7 4.1s2.5 1.7 4.1 1.7h19.1c1.5 0 3-.6 4.1-1.7 1.1-1.1 1.7-2.5 1.7-4.1v-30.6c0-1.5-.6-3-1.7-4.1-1.1-1.1-2.5-1.7-4.1-1.7z"/><path class="st2" d="M127.5 201v-2.9c0-3.3 1.3-6.5 3.6-8.8s5.5-3.6 8.8-3.6 6.5 1.3 8.8 3.6 3.6 5.5 3.6 8.8v2.9h-24.8z"/><path class="st1" d="M139.9 188.5c2.5 0 5 1 6.8 2.8s2.8 4.2 2.8 6.8h-19.1c0-2.5 1-5 2.8-6.8 1.7-1.7 4.2-2.8 6.7-2.8zm0-5.7c-4.1 0-7.9 1.6-10.8 4.5-2.9 2.9-4.5 6.8-4.5 10.8v5.7h30.6v-5.7c0-4.1-1.6-7.9-4.5-10.8-2.9-2.9-6.8-4.5-10.8-4.5z"/><path class="st4" d="M185.7 197.1h-17.2c-1.6 0-2.9 1.3-2.9 2.9v17.2c0 1.6 1.3 2.9 2.9 2.9h17.2c1.6 0 2.9-1.3 2.9-2.9V200c0-1.6-1.3-2.9-2.9-2.9z"/><path class="st1" d="M185.7 200v17.2h-17.2V200h17.2zm0-5.7h-17.2c-1.5 0-3 .6-4.1 1.7-1.1 1.1-1.7 2.5-1.7 4.1v17.2c0 1.5.6 3 1.7 4.1 1.1 1.1 2.5 1.7 4.1 1.7h17.2c1.5 0 3-.6 4.1-1.7 1.1-1.1 1.7-2.5 1.7-4.1V200c0-1.5-.6-3-1.7-4.1-1.1-1-2.5-1.6-4.1-1.6z"/><path class="st4" d="M111.2 197.1H94c-1.6 0-2.9 1.3-2.9 2.9v17.2c0 1.6 1.3 2.9 2.9 2.9h17.2c1.6 0 2.9-1.3 2.9-2.9V200c0-1.6-1.3-2.9-2.9-2.9z"/><path class="st1" d="M111.2 200v17.2H94V200h17.2zm0-5.7H94c-1.5 0-3 .6-4.1 1.7-1.1 1.1-1.7 2.5-1.7 4.1v17.2c0 1.5.6 3 1.7 4.1s2.5 1.7 4.1 1.7h17.2c1.5 0 3-.6 4.1-1.7 1.1-1.1 1.7-2.5 1.7-4.1V200c0-1.5-.6-3-1.7-4.1-1.1-1-2.6-1.6-4.1-1.6z"/><path class="st4" d="M243.1 97.8h-91.7c-1.6 0-2.9 1.3-2.9 2.9v5.7c0 1.6 1.3 2.9 2.9 2.9h91.7c1.6 0 2.9-1.3 2.9-2.9v-5.7c-.1-1.6-1.4-2.9-2.9-2.9z"/><path class="st1" d="M243.1 100.7v5.7h-91.7v-5.7h91.7zm0-5.8h-91.7c-1.5 0-3 .6-4.1 1.7s-1.7 2.5-1.7 4.1v5.7c0 1.5.6 3 1.7 4.1 1.1 1.1 2.5 1.7 4.1 1.7h91.7c1.5 0 3-.6 4.1-1.7s1.7-2.5 1.7-4.1v-5.7c0-1.5-.6-3-1.7-4.1-1.2-1.1-2.6-1.7-4.1-1.7z"/><path d="M208.7 97.8H76.8c-1.6 0-2.9 1.3-2.9 2.9v5.7c0 1.6 1.3 2.9 2.9 2.9h131.8c1.6 0 2.9-1.3 2.9-2.9v-5.7c0-1.6-1.3-2.9-2.8-2.9z" style="fill:#fff"/><path class="st1" d="M208.7 100.7v5.7H76.8v-5.7h131.9zm0-5.8H76.8c-1.5 0-3 .6-4.1 1.7s-1.7 2.5-1.7 4.1v5.7c0 1.5.6 3 1.7 4.1s2.5 1.7 4.1 1.7h131.8c1.5 0 3-.6 4.1-1.7s1.7-2.5 1.7-4.1v-5.7c0-1.5-.6-3-1.7-4.1-1.1-1.1-2.5-1.7-4-1.7zm-65.9 93.6H137v45.9h5.7v-45.9h.1z"/><path class="st1" d="M152.3 216.2h-24.8v5.7h24.8v-5.7zm37.3-10.5h-24.8v5.7h24.8v-5.7z"/><path class="st4" d="M185.7 151.3h-17.2c-1.6 0-2.9 1.3-2.9 2.9v17.2c0 1.6 1.3 2.9 2.9 2.9h17.2c1.6 0 2.9-1.3 2.9-2.9v-17.2c0-1.6-1.3-2.9-2.9-2.9z"/><path class="st1" d="M185.7 154.2v17.2h-17.2v-17.2h17.2zm0-5.8h-17.2c-1.5 0-3 .6-4.1 1.7-1.1 1.1-1.7 2.5-1.7 4.1v17.2c0 1.5.6 3 1.7 4.1 1.1 1.1 2.5 1.7 4.1 1.7h17.2c1.5 0 3-.6 4.1-1.7 1.1-1.1 1.7-2.5 1.7-4.1v-17.2c0-1.5-.6-3-1.7-4.1-1.1-1.1-2.5-1.7-4.1-1.7z"/><path class="st4" d="M111.2 151.3H94c-1.6 0-2.9 1.3-2.9 2.9v17.2c0 1.6 1.3 2.9 2.9 2.9h17.2c1.6 0 2.9-1.3 2.9-2.9v-17.2c0-1.6-1.3-2.9-2.9-2.9z"/><path class="st1" d="M111.2 154.2v17.2H94v-17.2h17.2zm0-5.8H94c-1.5 0-3 .6-4.1 1.7-1.1 1.1-1.7 2.5-1.7 4.1v17.2c0 1.5.6 3 1.7 4.1s2.5 1.7 4.1 1.7h17.2c1.5 0 3-.6 4.1-1.7 1.1-1.1 1.7-2.5 1.7-4.1v-17.2c0-1.5-.6-3-1.7-4.1s-2.6-1.7-4.1-1.7zm143.3 91.7H55.8c-.8 0-1.5-.3-2-.8s-.8-1.3-.8-2c0-.8.3-1.5.8-2s1.3-.8 2-.8h198.7c.8 0 1.5.3 2 .8s.8 1.3.8 2c0 .8-.3 1.5-.8 2s-1.2.8-2 .8z"/><path class="st0" d="M199.1 237.3c-.8 0-1.5-.3-2-.8s-.8-1.3-.8-2c0-3.3 1.3-6.5 3.6-8.8s5.5-3.6 8.8-3.6 6.5 1.3 8.8 3.6 3.6 5.5 3.6 8.8c0 .8-.3 1.5-.8 2s-1.3.8-2 .8h-19.2z"/><path class="st1" d="M208.7 224.8c2.5 0 5 1 6.8 2.8s2.8 4.2 2.8 6.8h-19.1c0-2.5 1-5 2.8-6.8 1.7-1.7 4.1-2.8 6.7-2.8zm0-5.7c-4.1 0-7.9 1.6-10.8 4.5-2.9 2.9-4.5 6.8-4.5 10.8 0 1.5.6 3 1.7 4.1 1.1 1.1 2.5 1.7 4.1 1.7h19.1c1.5 0 3-.6 4.1-1.7 1.1-1.1 1.7-2.5 1.7-4.1 0-4.1-1.6-7.9-4.5-10.8-3-2.9-6.9-4.5-10.9-4.5z"/><path class="st0" d="M223.9 237.3c-.8 0-1.5-.3-2-.8s-.8-1.3-.8-2c0-3.3 1.3-6.5 3.6-8.8s5.5-3.6 8.8-3.6 6.5 1.3 8.8 3.6 3.6 5.5 3.6 8.8c0 .8-.3 1.5-.8 2s-1.3.8-2 .8h-19.2z"/><path class="st1" d="M233.5 224.8c2.5 0 5 1 6.8 2.8s2.8 4.2 2.8 6.8H224c0-2.5 1-5 2.8-6.8 1.7-1.7 4.2-2.8 6.7-2.8zm0-5.7c-4.1 0-7.9 1.6-10.8 4.5-2.9 2.9-4.5 6.8-4.5 10.8 0 1.5.6 3 1.7 4.1 1.1 1.1 2.5 1.7 4.1 1.7h19.1c1.5 0 3-.6 4.1-1.7 1.1-1.1 1.7-2.5 1.7-4.1 0-4.1-1.6-7.9-4.5-10.8-3-2.9-6.8-4.5-10.9-4.5zm-43.9-59.2h-24.8v5.7h24.8v-5.7zM115 205.7H90.2v5.7H115v-5.7zm0-45.8H90.2v5.7H115v-5.7zm24.9 10c-4.1 0-7.9-1.6-10.8-4.5-2.9-2.9-4.5-6.8-4.5-10.8 0-.5.2-1 .6-1.4s.8-.6 1.4-.6h26.7c.5 0 1 .2 1.4.6.4.4.6.8.6 1.4 0 4.1-1.6 7.9-4.5 10.8-3 2.9-6.9 4.5-10.9 4.5z"/><path class="st1" d="M153.3 154.6c0 3.5-1.4 6.9-3.9 9.5-2.5 2.5-5.9 3.9-9.5 3.9-3.5 0-6.9-1.4-9.5-3.9-2.5-2.5-3.9-5.9-3.9-9.5h26.8zm0-3.8h-26.7c-1 0-2 .4-2.7 1.1-.7.7-1.1 1.7-1.1 2.7 0 4.6 1.8 8.9 5 12.2 3.2 3.2 7.6 5.1 12.1 5.1 4.6 0 8.9-1.8 12.2-5 3.2-3.2 5.1-7.6 5.1-12.1v-.2c0-1-.4-2-1.1-2.7-.9-.7-1.8-1.1-2.8-1.1z"/><path d="M139.9 168c5.5 0 9.9-2 9.9-4.5s-4.5-4.5-9.9-4.5c-5.5 0-9.9 2-9.9 4.5-.1 2.5 4.4 4.5 9.9 4.5z" style="fill:#ee7d7d"/><path class="st1" d="M147.7 126.9c1.5-1.3 3.4-2 5.4-2.2 2-.1 4 .3 5.7 1.4 1.8 1.1 4.3 4.2 1.7 5.6-.3.1-.6.2-1 .2-.3 0-.7-.1-.9-.3-2.1-.9-4.3-1.4-6.6-1.3-1.1.1-2.2 0-3.3-.1-.4-.1-.7-.2-1-.5-.3-.2-.5-.6-.6-.9-.1-.3-.1-.7 0-1.1.2-.2.4-.5.6-.8zm-17.4 3.5c-2.3 0-4.8-.2-7 .5-.8.2-1.8.7-2.7 1-.4.1-.7.1-1.1 0s-.7-.3-1-.6-.4-.6-.5-1 0-.8.1-1.1c1.7-3.8 6.7-5.2 10.4-4 1.8.6 5.3 2.1 3.6 4.5l-.9.6c-.2 0-.5.1-.9.1zm1.9 15.2c-.6 0-1.2-.3-1.7-.7-.4-.4-.7-1.1-.7-1.7 0-.6-.3-1.2-.7-1.7-.4-.4-1.1-.7-1.7-.7-.6 0-1.2.3-1.7.7-.4.4-.7 1.1-.7 1.7 0 .6-.3 1.2-.7 1.7-.4.4-1.1.7-1.7.7s-1.2-.3-1.7-.7c-.4-.4-.7-1.1-.7-1.7 0-1.9.8-3.7 2.1-5.1 1.3-1.3 3.2-2.1 5.1-2.1 1.9 0 3.7.8 5.1 2.1 1.3 1.3 2.1 3.2 2.1 5.1 0 .6-.3 1.2-.7 1.7-.4.4-1 .7-1.7.7zm24.9 0c-.6 0-1.2-.3-1.7-.7-.4-.4-.7-1.1-.7-1.7 0-.6-.3-1.2-.7-1.7-.4-.4-1.1-.7-1.7-.7-.6 0-1.2.3-1.7.7-.4.4-.7 1.1-.7 1.7 0 .6-.3 1.2-.7 1.7-.4.4-1.1.7-1.7.7-.6 0-1.2-.3-1.7-.7-.4-.4-.7-1.1-.7-1.7 0-1.9.8-3.7 2.1-5.1 1.3-1.3 3.2-2.1 5.1-2.1s3.7.8 5.1 2.1c1.3 1.3 2.1 3.2 2.1 5.1 0 .6-.3 1.2-.7 1.7-.5.4-1.1.7-1.7.7z"/><path class="st4" d="M225.9 189.5h-5.7c-1.6 0-2.9 1.3-2.9 2.9v17.2c0 1.6 1.3 2.9 2.9 2.9h5.7c1.6 0 2.9-1.3 2.9-2.9v-17.2c-.1-1.6-1.4-2.9-2.9-2.9z"/><path class="st1" d="M225.9 192.4v17.2h-5.7v-17.2h5.7zm0-5.8h-5.7c-1.5 0-3 .6-4.1 1.7-1.1 1.1-1.7 2.5-1.7 4.1v17.2c0 1.5.6 3 1.7 4.1 1.1 1.1 2.5 1.7 4.1 1.7h5.7c1.5 0 3-.6 4.1-1.7 1.1-1.1 1.7-2.5 1.7-4.1v-17.2c0-1.5-.6-3-1.7-4.1-1.2-1.1-2.6-1.7-4.1-1.7z"/><path class="st2" d="M225.9 189.5h-5.7c-1.6 0-2.9 1.3-2.9 2.9v5.7c0 1.6 1.3 2.9 2.9 2.9h5.7c1.6 0 2.9-1.3 2.9-2.9v-5.7c-.1-1.6-1.4-2.9-2.9-2.9z"/><path class="st1" d="M225.9 192.4v5.7h-5.7v-5.7h5.7zm0-5.8h-5.7c-1.5 0-3 .6-4.1 1.7-1.1 1.1-1.7 2.5-1.7 4.1v5.7c0 1.5.6 3 1.7 4.1 1.1 1.1 2.5 1.7 4.1 1.7h5.7c1.5 0 3-.6 4.1-1.7 1.1-1.1 1.7-2.5 1.7-4.1v-5.7c0-1.5-.6-3-1.7-4.1-1.2-1.1-2.6-1.7-4.1-1.7z"/><path class="st4" d="M225.9 155.1h-5.7c-1.6 0-2.9 1.3-2.9 2.9v17.2c0 1.6 1.3 2.9 2.9 2.9h5.7c1.6 0 2.9-1.3 2.9-2.9V158c-.1-1.6-1.4-2.9-2.9-2.9z"/><path class="st1" d="M225.9 158v17.2h-5.7V158h5.7zm0-5.8h-5.7c-1.5 0-3 .6-4.1 1.7-1.1 1.1-1.7 2.5-1.7 4.1v17.2c0 1.5.6 3 1.7 4.1 1.1 1.1 2.5 1.7 4.1 1.7h5.7c1.5 0 3-.6 4.1-1.7 1.1-1.1 1.7-2.5 1.7-4.1V158c0-1.5-.6-3-1.7-4.1-1.2-1.1-2.6-1.7-4.1-1.7z"/><path class="st2" d="M225.9 155.1h-5.7c-1.6 0-2.9 1.3-2.9 2.9v5.7c0 1.6 1.3 2.9 2.9 2.9h5.7c1.6 0 2.9-1.3 2.9-2.9V158c-.1-1.6-1.4-2.9-2.9-2.9z"/><path class="st1" d="M225.9 158v5.7h-5.7V158h5.7zm0-5.8h-5.7c-1.5 0-3 .6-4.1 1.7-1.1 1.1-1.7 2.5-1.7 4.1v5.7c0 1.5.6 3 1.7 4.1 1.1 1.1 2.5 1.7 4.1 1.7h5.7c1.5 0 3-.6 4.1-1.7 1.1-1.1 1.7-2.5 1.7-4.1V158c0-1.5-.6-3-1.7-4.1-1.2-1.1-2.6-1.7-4.1-1.7z"/><path class="st4" d="M225.9 120.7h-5.7c-1.6 0-2.9 1.3-2.9 2.9v17.2c0 1.6 1.3 2.9 2.9 2.9h5.7c1.6 0 2.9-1.3 2.9-2.9v-17.2c-.1-1.6-1.4-2.9-2.9-2.9z"/><path class="st1" d="M225.9 123.6v17.2h-5.7v-17.2h5.7zm0-5.7h-5.7c-1.5 0-3 .6-4.1 1.7s-1.7 2.5-1.7 4.1v17.2c0 1.5.6 3 1.7 4.1 1.1 1.1 2.5 1.7 4.1 1.7h5.7c1.5 0 3-.6 4.1-1.7 1.1-1.1 1.7-2.5 1.7-4.1v-17.2c0-1.5-.6-3-1.7-4.1-1.2-1.1-2.6-1.7-4.1-1.7z"/><path class="st2" d="M225.9 120.7h-5.7c-1.6 0-2.9 1.3-2.9 2.9v5.7c0 1.6 1.3 2.9 2.9 2.9h5.7c1.6 0 2.9-1.3 2.9-2.9v-5.7c-.1-1.6-1.4-2.9-2.9-2.9z"/><path class="st1" d="M225.9 123.6v5.7h-5.7v-5.7h5.7zm0-5.7h-5.7c-1.5 0-3 .6-4.1 1.7s-1.7 2.5-1.7 4.1v5.7c0 1.5.6 3 1.7 4.1 1.1 1.1 2.5 1.7 4.1 1.7h5.7c1.5 0 3-.6 4.1-1.7 1.1-1.1 1.7-2.5 1.7-4.1v-5.7c0-1.5-.6-3-1.7-4.1-1.2-1.1-2.6-1.7-4.1-1.7z"/></svg>