<svg version="1.1" id="Layer_1" xmlns="http://www.w3.org/2000/svg" x="0" y="0" viewBox="0 0 306.3 270" style="enable-background:new 0 0 306.3 270" xml:space="preserve"><style>.st0{fill:#88ca91}.st1{fill:#515a7a}.st2{fill:#a1aab4}.st3{fill:#d9dde1}.st4{fill:#d8ebf9}.st5{fill:#fff}</style><path class="st0" d="M67.2 237.3c-.8 0-1.5-.3-2-.8s-.8-1.3-.8-2c0-3.3 1.3-6.4 3.6-8.7 2.3-2.3 5.4-3.6 8.7-3.6 3.3 0 6.4 1.3 8.7 3.6 2.3 2.3 3.6 5.4 3.6 8.7 0 .8-.3 1.5-.8 2s-1.3.8-2 .8h-19z"/><path class="st1" d="M76.7 225c2.5 0 4.9 1 6.7 2.8 1.8 1.8 2.8 4.2 2.8 6.7h-19c0-2.5 1-4.9 2.8-6.7s4.2-2.8 6.7-2.8zm0-5.7c-4 0-7.9 1.6-10.7 4.4-2.8 2.8-4.4 6.7-4.4 10.7 0 1.5.6 3 1.7 4 1.1 1.1 2.5 1.7 4 1.7h18.9c1.5 0 3-.6 4-1.7 1.1-1.1 1.7-2.5 1.7-4 0-4-1.6-7.9-4.4-10.7-2.9-2.8-6.8-4.4-10.8-4.4z"/><path class="st2" d="M146.7 72.6h-18.9c-1.6 0-2.8 1.3-2.8 2.8v28.4c0 1.6 1.3 2.8 2.8 2.8h18.9c1.6 0 2.8-1.3 2.8-2.8V75.4c.1-1.6-1.2-2.8-2.8-2.8z"/><path class="st1" d="M146.7 75.4v28.4h-18.9V75.4h18.9zm0-5.7h-18.9c-1.5 0-2.9.6-4 1.7s-1.7 2.5-1.7 4v28.4c0 1.5.6 3 1.7 4 1.1 1.1 2.5 1.7 4 1.7h18.9c1.5 0 2.9-.6 4-1.7s1.7-2.5 1.7-4V75.4c0-1.5-.6-3-1.7-4-1-1.1-2.5-1.7-4-1.7z"/><path class="st3" d="M127.8 72.6H99.4c-1.6 0-2.8 1.3-2.8 2.8v28.4c0 1.6 1.3 2.8 2.8 2.8h28.4c1.6 0 2.8-1.3 2.8-2.8V75.4c0-1.6-1.2-2.8-2.8-2.8z"/><path class="st1" d="M127.8 75.4v28.4H99.4V75.4h28.4zm0-5.7H99.4c-1.5 0-2.9.6-4 1.7s-1.7 2.5-1.7 4v28.4c0 1.5.6 3 1.7 4 1.1 1.1 2.5 1.7 4 1.7h28.4c1.5 0 3-.6 4-1.7 1.1-1.1 1.7-2.5 1.7-4V75.4c0-1.5-.6-3-1.7-4-1-1.1-2.5-1.7-4-1.7z"/><path class="st2" d="M235.7 101h-28.4c-1.6 0-2.8 1.3-2.8 2.8V225c0 1.6 1.3 2.8 2.8 2.8h28.4c1.6 0 2.8-1.3 2.8-2.8V103.8c0-1.6-1.2-2.8-2.8-2.8z"/><path class="st1" d="M235.7 103.8V225h-28.4V103.8h28.4zm0-5.7h-28.4c-1.5 0-2.9.6-4 1.7s-1.7 2.5-1.7 4V225c0 1.5.6 3 1.7 4 1.1 1.1 2.5 1.7 4 1.7h28.4c1.5 0 3-.6 4-1.7 1.1-1.1 1.7-2.5 1.7-4V103.8c0-1.5-.6-3-1.7-4-1-1.1-2.5-1.7-4-1.7z"/><path class="st3" d="M201.6 101H82.4c-1.6 0-2.8 1.3-2.8 2.8V225c0 1.6 1.3 2.8 2.8 2.8h119.3c1.6 0 2.8-1.3 2.8-2.8V103.8c0-1.6-1.3-2.8-2.9-2.8z"/><path class="st1" d="M201.6 103.8V225H82.4V103.8h119.2zm0-5.7H82.4c-1.5 0-2.9.6-4 1.7s-1.7 2.5-1.7 4V225c0 1.5.6 3 1.7 4 1.1 1.1 2.5 1.7 4 1.7h119.3c1.5 0 3-.6 4-1.7 1.1-1.1 1.7-2.5 1.7-4V103.8c0-1.5-.6-3-1.7-4-1.1-1.1-2.6-1.7-4.1-1.7z"/><path class="st4" d="M241.4 89.6h-90.9c-1.6 0-2.8 1.3-2.8 2.8v5.7c0 1.6 1.3 2.8 2.8 2.8h90.9c1.6 0 2.8-1.3 2.8-2.8v-5.7c0-1.5-1.3-2.8-2.8-2.8z"/><path class="st1" d="M241.4 92.4v5.7h-90.9v-5.7h90.9zm0-5.6h-90.9c-1.5 0-2.9.6-4 1.7s-1.7 2.5-1.7 4v5.7c0 1.5.6 3 1.7 4 1.1 1.1 2.5 1.7 4 1.7h90.9c1.5 0 3-.6 4-1.7 1.1-1.1 1.7-2.5 1.7-4v-5.7c0-1.5-.6-3-1.7-4-1.1-1.1-2.5-1.7-4-1.7z"/><path class="st5" d="M207.3 89.6H76.7c-1.6 0-2.8 1.3-2.8 2.8v5.7c0 1.6 1.3 2.8 2.8 2.8h130.6c1.6 0 2.8-1.3 2.8-2.8v-5.7c0-1.5-1.2-2.8-2.8-2.8z"/><path class="st1" d="M207.3 92.4v5.7H76.7v-5.7h130.6zm0-5.6H76.7c-1.5 0-2.9.6-4 1.7S71 91 71 92.5v5.7c0 1.5.6 3 1.7 4 1.1 1.1 2.5 1.7 4 1.7h130.6c1.5 0 3-.6 4-1.7 1.1-1.1 1.7-2.5 1.7-4v-5.7c0-1.5-.6-3-1.7-4-1-1.1-2.5-1.7-4-1.7zm-51.6 55.5c-.3 0-.6-.1-.9-.2-1.1-.5-2.2-.7-3.4-.7s-2.3.2-3.4.7c-.2.1-.5.2-.7.2s-.5 0-.7-.1-.5-.2-.7-.3c-.2-.2-.4-.3-.5-.6-.1-.2-.2-.5-.2-.7s0-.5.1-.7.2-.5.3-.7c.2-.2.3-.4.6-.5 1.6-.8 3.4-1.2 5.2-1.2s3.5.4 5.2 1.2c.4.2.7.5.8.9.2.4.2.8.1 1.2-.1.4-.3.8-.7 1-.2.4-.7.5-1.1.5z"/><path class="st1" d="M151.5 139.7c3.7 0 6.6-3 6.6-6.6 0-3.7-3-6.6-6.6-6.6-3.7 0-6.6 3-6.6 6.6-.1 3.7 2.9 6.6 6.6 6.6z"/><path class="st5" d="M153.1 134.8c.9 0 1.7-.7 1.7-1.7 0-.9-.7-1.7-1.7-1.7-.9 0-1.7.7-1.7 1.7.1.9.8 1.7 1.7 1.7z"/><path class="st1" d="M146.7 118.9c1.5-1.4 3.5-2.2 5.6-2.3 2.1-.1 4.1.4 5.8 1.6s4.1 4.4 1.5 5.7c-.3.1-.6.2-1 .1-.3 0-.6-.1-.9-.3-1.3-.7-2.8-1.2-4.3-1.5-1.6-.1-3.3-.1-4.9 0l-.7-.1c-.4 0-.7-.2-1-.4-.3-.2-.5-.5-.6-.9-.1-.3-.1-.7 0-1.1.1-.2.3-.5.5-.8zm-15.6 23.4c-.3 0-.6-.1-.9-.2-1.1-.5-2.2-.7-3.4-.7-1.2 0-2.3.2-3.4.7-.4.2-1 .3-1.4.1-.5-.1-.9-.5-1.1-.9s-.3-1-.1-1.4c.1-.5.5-.9.9-1.1 1.6-.8 3.4-1.2 5.2-1.2 1.8 0 3.5.4 5.2 1.2.4.2.7.5.8.9.2.4.2.8.1 1.2-.1.4-.3.8-.7 1-.4.3-.8.4-1.2.4z"/><path class="st1" d="M126.9 139.7c3.7 0 6.6-3 6.6-6.6 0-3.7-3-6.6-6.6-6.6-3.7 0-6.6 3-6.6 6.6-.1 3.7 2.9 6.6 6.6 6.6z"/><path class="st5" d="M128.5 134.8c.9 0 1.7-.7 1.7-1.7 0-.9-.7-1.7-1.7-1.7-.9 0-1.7.7-1.7 1.7.1.9.8 1.7 1.7 1.7z"/><path class="st1" d="M129.8 122.2c-1.6-.1-3.3-.1-4.9 0-1.5.2-2.9.7-4.3 1.5-.2.2-.5.3-.8.3s-.6 0-.9-.1-.5-.2-.8-.4c-.2-.2-.4-.4-.5-.7-.1-.2-.1-.5-.1-.7 0-.3.1-.5.1-.7.5-1.3 1.4-2.4 2.5-3.2 1.4-1 3.1-1.5 4.8-1.6 1.7-.1 3.4.3 5 1.2 1.4.7 3.2 2.2 1.8 3.8-.3.2-.6.4-.9.5-.3.1-.7.1-1 .1zm9.7 29.9c-4.9 0-9.6-1.4-13.7-4.1-.4-.3-.7-.7-.8-1.2-.1-.5 0-1 .3-1.4s.7-.7 1.2-.8 1 0 1.4.2c7 4.5 16.4 4.6 22.4 0 .4-.3.9-.4 1.4-.4.5.1.9.3 1.2.7s.4.9.4 1.4c-.1.5-.3.9-.7 1.2-3.8 2.9-8.4 4.4-13.1 4.4zm-4.3 2.5c2.6.8 5.3.8 7.9 0 .3-.1.6-.1.8 0 .3.1.5.3.6.5.2.2.2.5.2.8s-.1.5-.3.7c-.7.9-1.7 1.6-2.8 2-1.3.4-2.7.4-4 .1-1.3-.3-2.5-1-3.5-2-.2-.2-.4-.5-.4-.8s0-.6.2-.8c.1-.3.4-.5.6-.6.2 0 .5-.1.7.1z"/><path class="st4" d="M184.6 142.6h-17c-1.6 0-2.8 1.3-2.8 2.8v17c0 1.6 1.3 2.8 2.8 2.8h17c1.6 0 2.8-1.3 2.8-2.8v-17c0-1.5-1.2-2.8-2.8-2.8z"/><path class="st1" d="M184.6 145.5v17h-17v-17h17zm0-5.7h-17c-1.5 0-2.9.6-4 1.7s-1.7 2.5-1.7 4v17c0 1.5.6 3 1.7 4 1.1 1.1 2.5 1.7 4 1.7h17c1.5 0 3-.6 4-1.7 1.1-1.1 1.7-2.5 1.7-4v-17c0-1.5-.6-2.9-1.7-4s-2.5-1.7-4-1.7z"/><path class="st4" d="M110.8 142.6h-17c-1.6 0-2.8 1.3-2.8 2.8v17c0 1.6 1.3 2.8 2.8 2.8h17c1.6 0 2.8-1.3 2.8-2.8v-17c0-1.5-1.3-2.8-2.8-2.8z"/><path class="st1" d="M110.8 145.5v17h-17v-17h17zm0-5.7h-17c-1.5 0-2.9.6-4 1.7s-1.7 2.5-1.7 4v17c0 1.5.6 3 1.7 4 1.1 1.1 2.5 1.7 4 1.7h17c1.5 0 3-.6 4-1.7 1.1-1.1 1.7-2.5 1.7-4v-17c0-1.5-.6-2.9-1.7-4s-2.5-1.7-4-1.7zm77.6 11.3h-24.6v5.7h24.6v-5.7z"/><path class="st1" d="M114.5 151.1H89.9v5.7h24.6v-5.7z"/><path class="st4" d="M224.3 154h-5.7c-1.6 0-2.8 1.3-2.8 2.8v17c0 1.6 1.3 2.8 2.8 2.8h5.7c1.6 0 2.8-1.3 2.8-2.8v-17c.1-1.6-1.2-2.8-2.8-2.8z"/><path class="st1" d="M224.3 156.8v17h-5.7v-17h5.7zm0-5.7h-5.7c-1.5 0-2.9.6-4 1.7s-1.7 2.5-1.7 4v17c0 1.5.6 3 1.7 4 1.1 1.1 2.5 1.7 4 1.7h5.7c1.5 0 3-.6 4-1.7 1.1-1.1 1.7-2.5 1.7-4v-17c0-1.5-.6-2.9-1.7-4-1-1.1-2.5-1.7-4-1.7z"/><path class="st2" d="M224.3 154h-5.7c-1.6 0-2.8 1.3-2.8 2.8v5.7c0 1.6 1.3 2.8 2.8 2.8h5.7c1.6 0 2.8-1.3 2.8-2.8v-5.7c.1-1.6-1.2-2.8-2.8-2.8z"/><path class="st1" d="M224.3 156.8v5.7h-5.7v-5.7h5.7zm0-5.7h-5.7c-1.5 0-2.9.6-4 1.7s-1.7 2.5-1.7 4v5.7c0 1.5.6 3 1.7 4 1.1 1.1 2.5 1.7 4 1.7h5.7c1.5 0 3-.6 4-1.7 1.1-1.1 1.7-2.5 1.7-4v-5.7c0-1.5-.6-2.9-1.7-4-1-1.1-2.5-1.7-4-1.7z"/><path class="st4" d="M224.3 119.9h-5.7c-1.6 0-2.8 1.3-2.8 2.8v17c0 1.6 1.3 2.8 2.8 2.8h5.7c1.6 0 2.8-1.3 2.8-2.8v-17c.1-1.5-1.2-2.8-2.8-2.8z"/><path class="st1" d="M224.3 122.7v17h-5.7v-17h5.7zm0-5.6h-5.7c-1.5 0-2.9.6-4 1.7s-1.7 2.5-1.7 4v17c0 1.5.6 3 1.7 4 1.1 1.1 2.5 1.7 4 1.7h5.7c1.5 0 3-.6 4-1.7 1.1-1.1 1.7-2.5 1.7-4v-17c0-1.5-.6-3-1.7-4-1-1.1-2.5-1.7-4-1.7z"/><path class="st2" d="M224.3 119.9h-5.7c-1.6 0-2.8 1.3-2.8 2.8v5.7c0 1.6 1.3 2.8 2.8 2.8h5.7c1.6 0 2.8-1.3 2.8-2.8v-5.7c.1-1.5-1.2-2.8-2.8-2.8z"/><path class="st1" d="M224.3 122.7v5.7h-5.7v-5.7h5.7zm0-5.6h-5.7c-1.5 0-2.9.6-4 1.7s-1.7 2.5-1.7 4v5.7c0 1.5.6 3 1.7 4 1.1 1.1 2.5 1.7 4 1.7h5.7c1.5 0 3-.6 4-1.7 1.1-1.1 1.7-2.5 1.7-4v-5.7c0-1.5-.6-3-1.7-4-1-1.1-2.5-1.7-4-1.7z"/><path d="M235.7 176.7H82.4c-1.6 0-2.8 1.3-2.8 2.8v54.9c0 1.6 1.3 2.8 2.8 2.8h153.3c1.6 0 2.8-1.3 2.8-2.8v-54.9c0-1.5-1.2-2.8-2.8-2.8z" style="fill:#74d0ed"/><path class="st1" d="M235.7 179.5v54.9H82.4v-54.9h153.3zm0-5.7H82.4c-1.5 0-2.9.6-4 1.7s-1.7 2.5-1.7 4v54.9c0 1.5.6 3 1.7 4 1.1 1.1 2.5 1.7 4 1.7h153.3c1.5 0 3-.6 4-1.7 1.1-1.1 1.7-2.5 1.7-4v-54.9c0-1.5-.6-2.9-1.7-4-1-1.1-2.5-1.7-4-1.7z"/><path class="st5" d="M193.8 193.2c.1 1.3.3 2.6.7 3.9.2.5.5 1 .9 1.4.5.3 1 .4 1.6.4s1.1-.2 1.5-.6c0-.3 0-.5-.1-.7 0-.6 0-1.3-.1-1.9v-3c.1 0 .2-.1.3-.1 2.1 2.7.6 8.5 5.8 7.9.7-.1 1.3-.4 1.8-.9.1.2.2.4.4.5.2.2.5.4.8.5 0 0 4.2 1.8 7-.1 2.2-1.3 3-6.9-.9-7.8 1.3.1 2.6-.3 3.7-1.2 1-.8 1.7-2 1.9-3.4.9-3.5-4.8-6.5-8.5-4.6-.9.4-1.9 1.7-3.4 4.9-.6 1.6-1.1 3.3-1.2 5-.2 1.4-.2 2.8-.1 4.2-1.7-.8-1.8-3.1-2.6-4.3-.4-.7-.9-1.3-1.5-1.9 3.7-2 5.1-5.9 4.7-7.3-.2-.9-2.2-4.1-3.4-1.5-.6 1.4-1.4 5-4.5 7 .1-.8.2-1.6.4-2.3.2-.9.6-1.9.8-2.9.1-.5.6-2 .1-2.4-.7-.6-2.7-.6-4.3 1.4-.6.9-1 1.8-1.1 2.8-.2.8-.4 1.6-.5 2.4-.9.2-1.7.6-2.4 1.3-.4.3-.6.7-.6 1.2-.1.5.1.9.3 1.3.7.5 1.6.8 2.5.8zm19.2-6.1c.4-1.1.9-1.8 1.9-1.3 1.2.6-1.2 5.4-2 5.7-.4.1-.9 0-.9-.4-.1-1 .9-3.5 1-4zm-.8 6.5c1.2 1-.2 5.5-.5 5.9-.2.1-.4.2-.6.2-.2 0-.4-.1-.6-.2-.3-.2.3-7.1 1.7-5.9zm-81.1 16.2c-1 .1-2.3 1.1-4.5 3.9-1 1.4-1.8 2.9-2.4 4.5-.5 1.3-.9 2.6-1.1 4-1.4-1.2-.9-3.4-1.5-4.9-.2-.8-.6-1.5-1-2.2 4.1-1.1 6.4-4.5 6.4-5.9 0-.9-1.1-4.5-2.9-2.3-.9 1.2-2.7 4.5-6.1 5.7.3-.7.6-1.5 1-2.2.5-.9 1-1.7 1.5-2.6.2-.5 1.1-1.8.7-2.3-.5-.7-2.5-1.2-4.5.3-.8.7-1.4 1.5-1.8 2.4-.4.7-.7 1.5-1.1 2.2-.9-.1-1.8.2-2.6.7-.4.2-.7.6-.9 1-.2.4-.2.9 0 1.3s.6.8.9 1c.4.3.8.5 1.3.6-.2 1.3-.3 2.6-.3 3.9 0 .6.2 1.1.5 1.6.4.4.9.7 1.4.8s1.1 0 1.6-.2c.1-.2.1-.5.1-.7.2-.6.3-1.2.4-1.9.2-.9.5-1.9.7-2.8h.3c1.4 3.1-1.6 8.4 3.7 9.1.7.1 1.4 0 2-.4 0 .2.1.4.2.6.2.2.4.5.6.7 0 0 3.6 2.8 6.8 1.6 2.4-.7 4.6-6 1.1-7.8 1.3.4 2.7.3 3.9-.2 1.2-.6 2.2-1.6 2.6-2.8 1.8-3.2-2.9-7.6-7-6.7zm-3 15.8c-.2.1-.4.1-.6.1s-.4-.1-.5-.3c-.3-.2 2-6.8 3.1-5.3.9 1.3-1.5 5.3-2 5.5zm3.2-7.4c-.4 0-.9-.2-.8-.6.2-1 1.8-3.2 2-3.6.6-.9 1.3-1.6 2.1-.8.9.7-2.4 5-3.3 5zm-30.7 13.7c0-.5.2-2-.4-2.4-.8-.4-2.8 0-4 2.2-.4.8-.6 1.7-.5 2.6h4.7c.1-.7.2-1.5.2-2.4zm10.4-2.8c-.9.5-1.5 2-2.3 5.3h5.1c.1-.9.3-1.9.3-2.2.2-1.1.5-1.9 1.6-1.7.8.2.5 2.2.1 3.8h4c.3-.8.4-1.6.4-2.4.3-3.5-5.9-5.4-9.2-2.8zm-4 1.3c-.4-.8-3-3.6-3.6-.8-.2 1.6-.6 3.3-1.1 4.8h4.4c.6-1.2.7-2.6.3-4zm-3.8-47.8c-.9 0-1.8.2-2.6.7-.4.2-.7.6-.9 1-.2.4-.1.9 0 1.3.5.8 1.3 1.4 2.2 1.6-.2 1.3-.3 2.6-.1 3.9 0 .6.2 1.1.5 1.6.4.4.9.6 1.5.7.5.1 1.1 0 1.6-.2 0-.2.1-.5.1-.8.1-.6.2-1.2.4-1.9.2-.9.4-1.9.7-2.8h.3c1.5 3.1-1.3 8.4 3.9 9 .7.1 1.4 0 2-.4 0 .2.1.4.2.6.2.2.4.5.6.6 0 0 3.7 2.7 6.8 1.4 2.4-.7 4.4-6.1.9-7.8 1.3.4 2.6.3 3.8-.3 1.2-.6 2.1-1.6 2.6-2.9 1.7-3.2-3.2-7.4-7.2-6.4-1 .2-2.2 1.2-4.4 4-1 1.4-1.8 3-2.3 4.6-.5 1.3-.8 2.7-1 4-1.5-1.1-1.1-3.4-1.6-4.8-.2-.8-.6-1.5-1.1-2.1 4.1-1.2 6.3-4.7 6.2-6.1-.1-.5-.2-1.1-.4-1.5h-3c-.9 1.5-2.6 4.1-5.5 5.1.3-.7.6-1.5.9-2.2.5-.9.9-1.8 1.4-2.7l.2-.3h-5.3c-.2.3-.3.6-.4.8-.3.8-.7 1.5-1 2.3zm18.9 3c.6-.9 1.2-1.6 2.1-.9.9.7-2.4 5-3.2 5.1-.4 0-.9-.2-.8-.6.1-.9 1.6-3.2 1.9-3.6zm-2.2 6.1c.9 1.2-1.4 5.4-1.8 5.6-.2.1-.4.1-.6.1s-.4-.1-.5-.3c-.4-.2 1.7-6.8 2.9-5.4zm24.8 9c-.5-.8-1-1.7-1.5-2.6.1-.1.2-.2.2-.3 3.2 1.3 4.7 7.1 9 3.9.6-.4 1-1 1.2-1.6.2.1.4.2.5.2h.9c.1 0 4.5-.5 6-3.5 1.3-2.2-.8-7.5-4.6-6.4 1.2-.6 2.1-1.6 2.6-2.8a5 5 0 0 0 0-3.8c-.9-3.5-7.4-3.3-9.7.1-.7.8-.9 2.4-.5 5.9.2 1.7.7 3.4 1.4 5 .6 1.3 1.2 2.5 2 3.7-1.9.2-3.1-1.8-4.4-2.5-.7-.4-1.5-.7-2.2-.9 2.2-3.6 1.5-7.7.5-8.7-.6-.6-3.9-2.5-3.7.4.2 1.5 1.2 5.1-.4 8.3-.3-.7-.6-1.5-.8-2.3-.3-.9-.5-2-.7-2.9-.2-.5-.5-2-1.1-2.1-.9-.1-2.6.8-3 3.4-.1 1 .1 2 .4 3 .2.8.5 1.6.8 2.4-.7.6-1.2 1.4-1.4 2.3-.2.4-.1.9 0 1.3.2.4.5.8.9 1 .9.2 1.9.1 2.7-.4.7 1.1 1.6 2.1 2.6 3 .4.4.9.7 1.5.8.6 0 1.1-.1 1.6-.4.5-.3.8-.7 1-1.3 0-.1-.4-.5-.5-.6-.6-.5-1-1-1.3-1.6zm13.4-3.3c-.1.2-.2.3-.4.4-.2.1-.4.2-.6.1-.4.1-3.3-6.3-1.5-5.9 1.6.4 2.7 5 2.5 5.4zm-3.9-13.4c1.3-.1 1.6 5.3 1.1 5.9-.3.3-.8.5-1 .2-.6-.8-.9-3.5-1-4-.3-1.1-.2-2.1.9-2.1zm-67.3 17.6c.7 1.1 1.7 2 3 2.4s2.6.3 3.8-.3c3.4-1.2 2.7-7.6-.9-9.6-.9-.6-2.5-.7-6-.1-1.6.4-3.1.9-4.6 1.6v5.7c1.5-.7 3.1-1.1 3-.2-.1.9-1.6 1.7-3 2.3v3.6c2.6-.1 5.8-2.3 4.7-5.4zm.4-2.1c.8-.6 3.4-1.2 3.9-1.3 1.1-.3 2-.3 2.1.8.2 1.3-5.2 2-5.8 1.5-.3-.3-.5-.8-.2-1zm2.8-8.6c.6-.7 2.1-4.1-.6-3.7-1.3.2-4.2 1.3-7.1.6v3.7c3.4 1.3 6.9.4 7.7-.6zm-6.7-4.4c.9-.4 1.9-.6 2.8-.9.5-.2 2-.6 2-1.3.1-.9-1-2.6-3.6-2.8-.8 0-1.6.1-2.3.4v5c.4-.1.7-.3 1.1-.4zm2.4 42.2c0-.1-.4-.5-.5-.6-.3-.5-.7-1.1-1-1.6-.5-.8-1-1.7-1.5-2.5.1-.1.2-.2.2-.3 3.2 1.2 4.8 7 9 3.8.6-.4 1-1 1.2-1.7.2.1.4.2.5.2h.9s4.5-.6 5.9-3.6c1.2-2.2-.9-7.5-4.7-6.3 1.2-.6 2.1-1.6 2.6-2.9.5-1.2.4-2.6-.1-3.8-.9-3.5-7.4-3.2-9.7.3-.6.8-.8 2.4-.4 5.9.3 1.7.8 3.4 1.5 4.9.6 1.3 1.2 2.5 2 3.6-1.9.2-3.1-1.7-4.5-2.4-.7-.4-1.5-.7-2.3-.8 2.2-3.6 1.4-7.7.3-8.7-.4-.4-2-1.3-3-1.1V230c.3.2.6.3.9.3.6 0 1.1-.1 1.6-.4.6-.2.9-.6 1.1-1.2zm11.9-5.6c-.1.2-.2.3-.4.5-.2.1-.4.2-.6.1-.4.1-3.4-6.2-1.6-5.9 1.6.2 2.8 4.8 2.6 5.3zm-4.1-13.4c1.3-.1 1.7 5.3 1.2 5.9-.3.3-.8.5-1 .2-.6-.8-1-3.5-1.1-3.9-.3-1.3-.2-2.2.9-2.2zm78.3 14c1.9-1.7 1.5-7.4-2.5-7.5 1.3-.2 2.5-.9 3.3-1.9s1.2-2.3 1.1-3.7c.2-3.6-6-5.4-9.3-2.8-.9.6-1.5 2-2.3 5.5-.3 1.7-.3 3.4-.2 5.1.1 1.4.4 2.8.8 4.1-1.8-.4-2.4-2.6-3.5-3.7-.6-.6-1.2-1.1-1.9-1.5 3.2-2.8 3.8-6.9 3.1-8.1-.4-.8-3-3.5-3.6-.8-.3 1.5-.4 5.2-2.9 7.8-.1-.8-.1-1.6-.1-2.4 0-1 .2-2 .2-3 0-.5.2-2-.4-2.4-.8-.4-2.8 0-3.9 2.3-.4.9-.6 1.9-.5 3v2.5c-.9.3-1.6 1-2 1.8-.3.4-.4.8-.4 1.3s.3.9.6 1.2c.8.5 1.8.7 2.7.5.4 1.3.9 2.5 1.5 3.6.3.5.7.9 1.2 1.2.5.2 1.1.2 1.6 0s1-.5 1.4-.9c0 0-.2-.6-.3-.7-.1-.6-.3-1.2-.5-1.9-.2-.9-.4-1.9-.6-2.8.1 0 .2-.1.3-.2 2.6 2.2 2.3 8.2 7.3 6.5.7-.2 1.2-.6 1.6-1.2.1.2.3.3.4.4.3.1.5.3.8.3s4.7.8 7-1.6zm-4.1-12.7c.1-1.1.5-2 1.6-1.7 1.3.3-.1 5.6-.8 5.9-.4.2-.9.2-.9-.2-.4-.9 0-3.6.1-4zm.5 6.5c1.4.7.9 5.5.7 5.8-.1.2-.3.3-.5.3h-.6c-.3-.1-1.2-7 .4-6.1zm14 2.9c.4.7.9 1.4 1.4 2.1-.5.8-.8 1.7-.7 2.6 0 .5.1.9.4 1.3.3.3.7.6 1.2.6.9 0 1.9-.4 2.5-1.1 1 .9 2.1 1.6 3.3 2.2.5.3 1.1.4 1.6.4.5-.1 1-.4 1.4-.9.4-.4.6-.9.6-1.5 0-.1-.6-.4-.6-.5-.5-.4-.9-.9-1.4-1.3l-2.1-2.1c.1-.1.1-.2.1-.3 3.4.4 6.5 5.5 9.7 1.3.4-.5.7-1.2.7-1.9.2.1.4.1.6.1.3 0 .6-.1.9-.2 0 0 4.2-1.7 4.8-5.1.6-2.4-2.8-7-6.2-4.9 1-.9 1.6-2.1 1.7-3.4.1-1.3-.3-2.6-1.1-3.7-1.9-3.1-8-1.2-9.3 2.8-.4.9-.2 2.5 1.1 5.8.7 1.6 1.6 3 2.7 4.4.9 1.1 1.9 2.1 2.9 3-1.8.7-3.5-.9-5-1.2-.8-.2-1.6-.3-2.4-.2 1.1-4.1-.7-7.8-1.9-8.5-.8-.4-4.5-1.3-3.4 1.4.6 1.4 2.6 4.5 1.9 8.1-.5-.6-.9-1.3-1.4-2-.5-.9-.9-1.8-1.5-2.6-.3-.4-.9-1.8-1.7-1.7-.9.1-2.3 1.5-2 4.1.3 1.1.7 2.1 1.2 2.9zm17.9-7.4c1.5-.1 3.8 4 3.8 4.5 0 .2-.1.4-.2.5-.1.1-.3.2-.5.3-.4.2-4.9-5.1-3.1-5.3zm-1.9-1.5c-.8-.6-1.9-3.1-2.1-3.5-.5-1-.7-1.9.4-2.3 1.2-.4 3 4.7 2.7 5.4-.3.3-.7.6-1 .4zm-22.5 22.1c.7-.7 1.5-1.3 2.3-2 .4-.4 1.6-1.3 1.4-2-.3-.9-2-2-4.4-1.2-.9.4-1.8 1-2.5 1.7-.6.6-1.2 1.2-1.7 1.8-.9-.4-1.8-.4-2.7-.2-.5.1-.9.3-1.2.6-.3.4-.4.8-.4 1.3 0 .3.1.5.2.7h8.2l.8-.7zm5.9-1.7c-1.2.9-2.5 1.8-3.8 2.5h5.9c.2-1.3-.1-3.8-2.1-2.5zm-34 2.5h6.3c-1.8-1.4-4.8-2-6.3 0zm-5.8-.3c-.9-.6-1.6-1.3-.8-2.1.7-.9 3.3 1.2 4.4 2.4h2c.2-1.2.5-4.2-3.2-5.9-2.8-1.6-6.7 2.2-6.7 5.9h4.7l-.4-.3zm23.6-53.4c-.1.5-.1 1.1.1 1.6s.6.9 1 1.2c.2-.1.5-.2.7-.3.6-.2 1.2-.4 1.8-.7.9-.3 1.9-.6 2.8-.9.1.1.1.2.2.3-1.9 2.8-7.9 3.2-5.7 8 .3.6.8 1.2 1.4 1.5-.1.1-.3.3-.3.5-.1.3-.2.6-.2.9 0 0-.4 4.6 2.3 6.6 1.9 1.7 7.5.7 7.2-3.2a4.8 4.8 0 0 0 2.3 3.1c1.1.7 2.5 1 3.8.7 3.6-.2 4.7-6.6 1.8-9.5-.7-.8-2.2-1.3-5.7-1.7-1.7-.1-3.4 0-5.1.4-1.4.3-2.7.7-4 1.2.2-1.9 2.4-2.7 3.3-3.9.5-.6 1-1.3 1.3-2 3.1 2.9 7.2 3 8.4 2.2.7-.5 3.2-3.4.4-3.7-1.5-.2-5.2.2-8-2.1.8-.1 1.6-.3 2.4-.3 1-.1 2 0 3-.1.5-.1 2.1 0 2.3-.7v-.2h-16.4c-.6.2-.9.6-1.1 1.1zm12.1 13.4c.9-.4 3.6-.2 4.1-.2 1.1 0 2 .3 1.9 1.4-.2 1.3-5.5.5-6-.2-.2-.3-.3-.8 0-1zm-2.3 1c-.6 1.4-5.3 1.6-5.7 1.3-.2-.1-.3-.3-.4-.5-.1-.2-.1-.4 0-.6 0-.3 6.9-1.9 6.1-.2z"/><path d="M235.7 179.5h-28.4v54.9h28.4v-54.9z" style="fill:#2fa0d1"/><path class="st4" d="M229.9 207.7c1-.9 1.7-2.1 1.8-3.4.1-1.3-.2-2.6-1-3.7-1.8-3.1-8-1.3-9.3 2.6-.4.9-.2 2.5 1 5.9.7 1.6 1.5 3.1 2.6 4.4.9 1.1 1.8 2.1 2.8 3.1-1.8.6-3.4-.9-4.9-1.3-.8-.2-1.6-.3-2.4-.3 1.2-4.1-.5-7.8-1.7-8.5-.8-.5-4.4-1.4-3.5 1.3.5 1.4 2.5 4.6 1.7 8.1-.5-.6-.9-1.3-1.3-2-.5-.9-.9-1.8-1.5-2.6-.3-.4-.9-1.8-1.6-1.8-.9.1-2.3 1.5-2.1 4 .2 1 .6 1.9 1.1 2.8.4.7.9 1.4 1.3 2.1-.5.8-.8 1.7-.8 2.6 0 .5.1.9.4 1.3.3.4.7.6 1.1.7 1 0 1.9-.4 2.5-1 1 .9 2.1 1.6 3.2 2.3.5.3 1.1.4 1.6.4.5-.1 1-.4 1.4-.8.4-.4.6-.9.7-1.5 0-.1-.5-.4-.6-.5-.4-.4-.9-.9-1.4-1.3l-2.1-2.1c.1-.1.1-.2.2-.3 3.4.4 6.3 5.7 9.6 1.6.5-.5.7-1.2.7-1.9.2.1.4.1.6.1.3 0 .6-.1.9-.2 0 0 3.5-1.3 4.6-4v-3.2c-.7-2.4-3.1-4.4-5.6-2.9zm-1.3-.4c-.2.4-.6.7-.9.4-.8-.7-1.8-3.1-2-3.6-.5-1-.7-1.9.4-2.3 1.3-.3 3 4.8 2.5 5.5zm4 7.4c-.3.2-4.8-5.2-2.9-5.4 1.6-.1 3.7 4.1 3.7 4.6 0 .2-.1.4-.3.5-.2.2-.3.3-.5.3zm-11.4 15.7c-.3-.8-2.6-3.9-3.5-1.2-.4 1.8-1 3.6-1.9 5.2h4.7c.7-1.2.9-2.6.7-4zm4.1-1c-.9.5-1.7 1.8-2.8 5h5.2c.2-.7.3-1.3.4-1.5.3-1.1.7-1.9 1.7-1.5.6.2.4 1.6 0 3h4.1c.1-.4.2-.8.2-1.2.7-3.5-5.3-6-8.8-3.8zm-11.2 4.9c.1-1 .4-2 .5-3 .1-.5.4-2-.2-2.4-.8-.5-2.8-.3-4.1 1.8-.5.9-.8 1.8-.9 2.8 0 .3-.1.6-.1.9h4.7c.1 0 .1-.1.1-.1zm.3-33.9c2.2-1.3 3-6.9-.9-7.8 1.3.1 2.6-.3 3.7-1.2 1-.8 1.7-2 1.9-3.4.9-3.5-4.8-6.5-8.5-4.6-.9.4-1.9 1.6-3.3 4.7v12.3l.2.1s4.2 1.8 6.9-.1zm-1.4-13.2c.4-1.1.9-1.8 1.9-1.3 1.2.6-1.2 5.4-2 5.7-.4.1-.9 0-.9-.4-.1-1.1.9-3.6 1-4zm-.8 6.4c1.2 1-.2 5.5-.5 5.9-.2.1-.4.2-.6.2s-.4-.1-.6-.2c-.3-.2.3-7.1 1.7-5.9zm18.8-.6c-.2 0-.4-.1-.5-.3-.1-.1-.2-.3-.2-.5-.1-.3 4.9-3.9 5.5-2.8v-6.6c-1.3.5-2.5 1.1-3.7 1.9-1.2.8-2.2 1.6-3.3 2.6-.5-1.8 1.2-3.4 1.6-4.8.3-.8.4-1.6.4-2.4 1.6.6 3.2.8 4.9.6v-1.1h-8.1c-1.3 2.9-5.5 5.3-2 8.6.5.5 1.1.8 1.8.9-.1.2-.1.4-.2.6 0 .3 0 .6.1.9 0 0 1.3 4.4 4.6 5.3.6.1 1.3.1 2 0 .6-.1 1.3-.4 1.8-.8v-5c-.5 1.3-4.3 3-4.7 2.9zm-7.6-10.8c.1 0 .5-.5.5-.6.5-.4.9-.9 1.4-1.3l.9-.8h-5v.4c.1.5.3 1.1.7 1.5.5.4 1 .7 1.5.8z"/><path class="st1" d="M139.2 237.3c-.8 0-1.5-.3-2-.8s-.8-1.3-.8-2v-23.7c0-.8.3-1.5.8-2s1.3-.8 2-.8c.8 0 1.5.3 2 .8s.8 1.3.8 2v23.7c0 .8-.3 1.5-.8 2-.6.5-1.3.8-2 .8zm8.5-31.3c-.6 0-1.3-.2-1.8-.6-.5-.4-.9-1-1-1.6l-3.8-17c-.1-.4-.1-.7 0-1.1.1-.4.2-.7.4-1s.5-.6.8-.8.7-.4 1-.4c.4-.1.7-.1 1.1 0 .4.1.7.2 1 .4s.6.5.8.8.4.6.4 1l3.8 17c.1.4.1.7 0 1.1-.1.4-.2.7-.4 1s-.5.6-.8.8-.7.4-1 .4h-.5zm-17.1 0c-.2 0-.4 0-.6-.1-.4-.1-.7-.2-1-.4s-.6-.5-.8-.8-.3-.7-.4-1c-.1-.4-.1-.7 0-1.1l3.8-17c.2-.7.6-1.4 1.2-1.8.6-.4 1.4-.5 2.1-.4.7.2 1.4.6 1.8 1.2.4.6.5 1.4.4 2.1l-3.8 17c-.1.6-.5 1.2-1 1.6-.4.5-1 .7-1.7.7zm73.9 31.3c-.8 0-1.5-.3-2-.8s-.8-1.3-.8-2v-54.9c0-.8.3-1.5.8-2s1.3-.8 2-.8c.8 0 1.5.3 2 .8s.8 1.3.8 2v54.9c0 .8-.3 1.5-.8 2-.6.5-1.3.8-2 .8z"/><path class="st1" d="M213.9 197.5h-30.3c-.8 0-1.5-.3-2-.8s-.8-1.3-.8-2c0-.8.3-1.5.8-2s1.3-.8 2-.8h30.3c.8 0 1.5.3 2 .8s.8 1.3.8 2c0 .8-.3 1.5-.8 2s-1.2.8-2 .8zm-116.4 0H82.4c-.8 0-1.5-.3-2-.8s-.8-1.3-.8-2c0-.8.3-1.5.8-2s1.3-.8 2-.8h15.1c.8 0 1.5.3 2 .8s.8 1.3.8 2c0 .8-.3 1.5-.8 2s-1.2.8-2 .8zm15.2 0H107c-.8 0-1.5-.3-2-.8s-.8-1.3-.8-2c0-.8.3-1.5.8-2s1.3-.8 2-.8h5.7c.8 0 1.5.3 2 .8s.8 1.3.8 2c0 .8-.3 1.5-.8 2-.6.5-1.3.8-2 .8zm140 42.6H55.9c-.8 0-1.5-.3-2-.8s-.8-1.3-.8-2 .3-1.5.8-2 1.3-.8 2-.8h196.9c.8 0 1.5.3 2 .8s.8 1.3.8 2-.3 1.5-.8 2c-.6.5-1.3.8-2.1.8z"/><path class="st0" d="M197.8 237.3c-.8 0-1.5-.3-2-.8s-.8-1.3-.8-2c0-3.3 1.3-6.4 3.6-8.7s5.4-3.6 8.7-3.6 6.4 1.3 8.7 3.6 3.6 5.4 3.6 8.7c0 .8-.3 1.5-.8 2s-1.3.8-2 .8h-19z"/><path class="st1" d="M207.3 225c2.5 0 4.9 1 6.7 2.8s2.8 4.2 2.8 6.7h-18.9c0-2.5 1-4.9 2.8-6.7 1.7-1.8 4.1-2.8 6.6-2.8zm0-5.7c-4 0-7.9 1.6-10.7 4.4-2.8 2.8-4.4 6.7-4.4 10.7 0 1.5.6 3 1.7 4 1.1 1.1 2.5 1.7 4 1.7h18.9c1.5 0 3-.6 4-1.7 1.1-1.1 1.7-2.5 1.7-4 0-4-1.6-7.9-4.4-10.7-2.9-2.8-6.8-4.4-10.8-4.4z"/><path class="st1" d="M235.7 179.5v54.9H82.4v-54.9h153.3zm0-5.7H82.4c-1.5 0-2.9.6-4 1.7s-1.7 2.5-1.7 4v54.9c0 1.5.6 3 1.7 4 1.1 1.1 2.5 1.7 4 1.7h153.3c1.5 0 3-.6 4-1.7 1.1-1.1 1.7-2.5 1.7-4v-54.9c0-1.5-.6-2.9-1.7-4-1-1.1-2.5-1.7-4-1.7z"/><path class="st0" d="M222.5 237.3c-.8 0-1.5-.3-2-.8s-.8-1.3-.8-2c0-3.3 1.3-6.4 3.6-8.7s5.4-3.6 8.7-3.6 6.4 1.3 8.7 3.6 3.6 5.4 3.6 8.7c0 .8-.3 1.5-.8 2s-1.3.8-2 .8h-19z"/><path class="st1" d="M231.9 225c2.5 0 4.9 1 6.7 2.8s2.8 4.2 2.8 6.7h-18.9c0-2.5 1-4.9 2.8-6.7 1.7-1.8 4.1-2.8 6.6-2.8zm0-5.7c-4 0-7.9 1.6-10.7 4.4-2.8 2.8-4.4 6.7-4.4 10.7 0 1.5.6 3 1.7 4 1.1 1.1 2.5 1.7 4 1.7h18.9c1.5 0 3-.6 4-1.7 1.1-1.1 1.7-2.5 1.7-4 0-4-1.6-7.9-4.4-10.7-2.9-2.8-6.8-4.4-10.8-4.4z"/></svg>