<?xml version="1.0" encoding="utf-8"?>
<!-- Generator: Adobe Illustrator 26.3.1, SVG Export Plug-In . SVG Version: 6.00 Build 0)  -->
<svg version="1.1" id="hero-image-mobile" xmlns="http://www.w3.org/2000/svg" xmlns:xlink="http://www.w3.org/1999/xlink" x="0px"
	 y="0px" viewBox="0 0 400 400" style="enable-background:new 0 0 400 400;" xml:space="preserve">
<style type="text/css">
	.st0{fill:#515979;}
	.st1{fill:#FFD886;}
	.st2{fill:#7DDF96;}
	.st3{fill:#00C853;}
	.st4{fill:#EF7D7D;}
	.st5{fill:#FFFFFF;}
	.st6{fill:#D8EBFB;}
	.st7{fill:#ACC9DB;}
	.st8{fill:#E5E5E5;}
	.st9{fill:#B1B1B1;}
	.st10{fill:#FAFAFA;}
	.st11{fill:#CCCCCC;}
	.st12{fill:#FABBA7;}
	.st13{fill:#FDE1D9;}
	.st14{opacity:0.2;fill:none;}
</style>
<path class="st0" d="M85,263.07c-0.83,0-1.5-0.67-1.5-1.5v-5c0-0.83,0.67-1.5,1.5-1.5s1.5,0.67,1.5,1.5v5
	C86.5,262.4,85.83,263.07,85,263.07z M85,249.07c-0.83,0-1.5-0.67-1.5-1.5v-5c0-0.83,0.67-1.5,1.5-1.5s1.5,0.67,1.5,1.5v5
	C86.5,248.4,85.83,249.07,85,249.07z M85,235.07c-0.83,0-1.5-0.67-1.5-1.5v-5c0-0.83,0.67-1.5,1.5-1.5s1.5,0.67,1.5,1.5v5
	C86.5,234.4,85.83,235.07,85,235.07z M85,221.07c-0.83,0-1.5-0.67-1.5-1.5v-5c0-0.83,0.67-1.5,1.5-1.5s1.5,0.67,1.5,1.5v5
	C86.5,220.4,85.83,221.07,85,221.07z M87.63,207.74c-0.36,0-0.73-0.13-1.01-0.39c-0.61-0.56-0.65-1.51-0.09-2.12
	c1.3-1.42,2.95-2.49,4.76-3.11c0.79-0.27,1.64,0.15,1.9,0.94s-0.15,1.64-0.94,1.9c-1.34,0.46-2.56,1.25-3.52,2.3
	C88.44,207.58,88.04,207.74,87.63,207.74z M105.71,204.5h-5c-0.83,0-1.5-0.67-1.5-1.5s0.67-1.5,1.5-1.5h5c0.83,0,1.5,0.67,1.5,1.5
	S106.54,204.5,105.71,204.5z M114.41,202.91c-0.49,0-0.98-0.24-1.26-0.69c-0.45-0.7-0.25-1.62,0.45-2.07
	c1.19-0.77,2.19-1.83,2.87-3.08c0.4-0.73,1.31-0.99,2.04-0.6c0.73,0.4,0.99,1.31,0.6,2.04c-0.92,1.68-2.26,3.12-3.88,4.16
	C114.97,202.84,114.69,202.91,114.41,202.91z M119,190.5c-0.83,0-1.5-0.67-1.5-1.5v-5c0-0.83,0.67-1.5,1.5-1.5s1.5,0.67,1.5,1.5v5
	C120.5,189.83,119.83,190.5,119,190.5z M119,176.5c-0.83,0-1.5-0.67-1.5-1.5v-5c0-0.83,0.67-1.5,1.5-1.5s1.5,0.67,1.5,1.5v5
	C120.5,175.83,119.83,176.5,119,176.5z M119,162.5c-0.83,0-1.5-0.67-1.5-1.5v-5c0-0.83,0.67-1.5,1.5-1.5s1.5,0.67,1.5,1.5v5
	C120.5,161.83,119.83,162.5,119,162.5z M119,148.5c-0.83,0-1.5-0.67-1.5-1.5v-5c0-0.83,0.67-1.5,1.5-1.5s1.5,0.67,1.5,1.5v5
	C120.5,147.83,119.83,148.5,119,148.5z"/>
<path class="st0" d="M300,201.07c-0.83,0-1.5-0.67-1.5-1.5v-5c0-0.83,0.67-1.5,1.5-1.5s1.5,0.67,1.5,1.5v5
	C301.5,200.4,300.83,201.07,300,201.07z M300,187.07c-0.83,0-1.5-0.67-1.5-1.5v-5c0-0.83,0.67-1.5,1.5-1.5s1.5,0.67,1.5,1.5v5
	C301.5,186.4,300.83,187.07,300,187.07z M299.04,173.22c-0.56,0-1.1-0.32-1.36-0.86c-0.61-1.28-1.54-2.4-2.69-3.24
	c-0.67-0.49-0.82-1.43-0.33-2.1c0.49-0.67,1.42-0.82,2.1-0.33c1.55,1.13,2.81,2.64,3.63,4.38c0.36,0.75,0.04,1.64-0.71,2
	C299.47,173.17,299.26,173.22,299.04,173.22z M287.29,167.5h-5c-0.83,0-1.5-0.67-1.5-1.5s0.67-1.5,1.5-1.5h5
	c0.83,0,1.5,0.67,1.5,1.5S288.11,167.5,287.29,167.5z M273.32,167.14c-0.13,0-0.27-0.02-0.4-0.06c-1.85-0.51-3.55-1.49-4.93-2.83
	c-0.59-0.58-0.61-1.53-0.03-2.12c0.58-0.59,1.53-0.61,2.12-0.03c1.02,0.99,2.28,1.72,3.64,2.1c0.8,0.22,1.27,1.05,1.04,1.85
	C274.58,166.7,273.98,167.14,273.32,167.14z M266,156.5c-0.83,0-1.5-0.67-1.5-1.5v-5c0-0.83,0.67-1.5,1.5-1.5s1.5,0.67,1.5,1.5v5
	C267.5,155.83,266.83,156.5,266,156.5z M266,142.5c-0.83,0-1.5-0.67-1.5-1.5v-5c0-0.83,0.67-1.5,1.5-1.5s1.5,0.67,1.5,1.5v5
	C267.5,141.83,266.83,142.5,266,142.5z"/>
<circle class="st1" cx="59" cy="213" r="3"/>
<path class="st1" d="M34,176h-6v-6c0-1.66-1.34-3-3-3s-3,1.34-3,3v6h-6c-1.66,0-3,1.34-3,3s1.34,3,3,3h6v6c0,1.66,1.34,3,3,3
	s3-1.34,3-3v-6h6c1.66,0,3-1.34,3-3S35.66,176,34,176z"/>
<path class="st1" d="M384,376h-6v-6c0-1.66-1.34-3-3-3s-3,1.34-3,3v6h-6c-1.66,0-3,1.34-3,3s1.34,3,3,3h6v6c0,1.66,1.34,3,3,3
	s3-1.34,3-3v-6h6c1.66,0,3-1.34,3-3S385.66,376,384,376z"/>
<path class="st0" d="M290,355.5c-0.83,0-1.5-0.67-1.5-1.5s0.67-1.5,1.5-1.5c1.43,0,2.83-0.36,4.07-1.04
	c0.73-0.4,1.64-0.13,2.04,0.59c0.4,0.73,0.13,1.64-0.6,2.04C293.83,355.01,291.93,355.5,290,355.5z M281,355.5h-5
	c-0.83,0-1.5-0.67-1.5-1.5s0.67-1.5,1.5-1.5h5c0.83,0,1.5,0.67,1.5,1.5S281.83,355.5,281,355.5z M267,355.5h-5
	c-0.83,0-1.5-0.67-1.5-1.5s0.67-1.5,1.5-1.5h5c0.83,0,1.5,0.67,1.5,1.5S267.83,355.5,267,355.5z M253,355.5h-5
	c-0.83,0-1.5-0.67-1.5-1.5s0.67-1.5,1.5-1.5h5c0.83,0,1.5,0.67,1.5,1.5S253.83,355.5,253,355.5z M239,355.5h-5
	c-0.83,0-1.5-0.67-1.5-1.5s0.67-1.5,1.5-1.5h5c0.83,0,1.5,0.67,1.5,1.5S239.83,355.5,239,355.5z M225,355.5h-5
	c-0.83,0-1.5-0.67-1.5-1.5s0.67-1.5,1.5-1.5h5c0.83,0,1.5,0.67,1.5,1.5S225.83,355.5,225,355.5z M211,355.5h-5
	c-0.83,0-1.5-0.67-1.5-1.5s0.67-1.5,1.5-1.5h5c0.83,0,1.5,0.67,1.5,1.5S211.83,355.5,211,355.5z M299.86,347.21
	c-0.08,0-0.17-0.01-0.26-0.02c-0.82-0.14-1.36-0.92-1.22-1.73c0.08-0.48,0.12-0.96,0.12-1.45v-3.29c0-0.83,0.67-1.5,1.5-1.5
	s1.5,0.67,1.5,1.5V344c0,0.66-0.06,1.31-0.17,1.96C301.21,346.69,300.57,347.21,299.86,347.21z M300,333.21
	c-0.83,0-1.5-0.67-1.5-1.5v-5c0-0.83,0.67-1.5,1.5-1.5s1.5,0.67,1.5,1.5v5C301.5,332.54,300.83,333.21,300,333.21z M300,319.21
	c-0.83,0-1.5-0.67-1.5-1.5v-5c0-0.83,0.67-1.5,1.5-1.5s1.5,0.67,1.5,1.5v5C301.5,318.54,300.83,319.21,300,319.21z M300,305.21
	c-0.83,0-1.5-0.67-1.5-1.5v-5c0-0.83,0.67-1.5,1.5-1.5s1.5,0.67,1.5,1.5v5C301.5,304.54,300.83,305.21,300,305.21z"/>
<circle class="st1" cx="378" cy="169" r="4"/>
<circle class="st1" cx="340.5" cy="181.5" r="2.5"/>
<path class="st1" d="M32.2,23.2c-2.98,0-5.4-2.42-5.4-5.4c0-0.99-0.81-1.8-1.8-1.8c-0.99,0-1.8,0.81-1.8,1.8
	c0,2.98-2.42,5.4-5.4,5.4c-0.99,0-1.8,0.81-1.8,1.8s0.81,1.8,1.8,1.8c2.98,0,5.4,2.42,5.4,5.4c0,0.99,0.81,1.8,1.8,1.8
	c0.99,0,1.8-0.81,1.8-1.8c0-2.98,2.42-5.4,5.4-5.4c0.99,0,1.8-0.81,1.8-1.8S33.19,23.2,32.2,23.2z"/>
<circle class="st1" cx="319.5" cy="373.5" r="4.5"/>
<circle class="st1" cx="36.5" cy="245.5" r="4.5"/>
<circle class="st1" cx="72.5" cy="37.5" r="4.5"/>
<circle class="st1" cx="179" cy="182" r="3"/>
<path class="st1" d="M161.6,231.4c2.65,0,4.8-2.15,4.8-4.8c0-0.88,0.72-1.6,1.6-1.6s1.6,0.72,1.6,1.6c0,2.65,2.15,4.8,4.8,4.8
	c0.88,0,1.6,0.72,1.6,1.6c0,0.88-0.72,1.6-1.6,1.6c-2.65,0-4.8,2.15-4.8,4.8c0,0.88-0.72,1.6-1.6,1.6s-1.6-0.72-1.6-1.6
	c0-2.65-2.15-4.8-4.8-4.8c-0.88,0-1.6-0.72-1.6-1.6C160,232.12,160.72,231.4,161.6,231.4z"/>
<path class="st1" d="M370.6,323.6c-2.32,0-4.2-1.88-4.2-4.2c0-0.77-0.63-1.4-1.4-1.4s-1.4,0.63-1.4,1.4c0,2.32-1.88,4.2-4.2,4.2
	c-0.77,0-1.4,0.63-1.4,1.4s0.63,1.4,1.4,1.4c2.32,0,4.2,1.88,4.2,4.2c0,0.77,0.63,1.4,1.4,1.4s1.4-0.63,1.4-1.4
	c0-2.32,1.88-4.2,4.2-4.2c0.77,0,1.4-0.63,1.4-1.4S371.37,323.6,370.6,323.6z"/>
<path class="st1" d="M124.6,21.6c-2.32,0-4.2-1.88-4.2-4.2c0-0.77-0.63-1.4-1.4-1.4c-0.77,0-1.4,0.63-1.4,1.4
	c0,2.32-1.88,4.2-4.2,4.2c-0.77,0-1.4,0.63-1.4,1.4s0.63,1.4,1.4,1.4c2.32,0,4.2,1.88,4.2,4.2c0,0.77,0.63,1.4,1.4,1.4
	c0.77,0,1.4-0.63,1.4-1.4c0-2.32,1.88-4.2,4.2-4.2c0.77,0,1.4-0.63,1.4-1.4S125.37,21.6,124.6,21.6z"/>
<path class="st1" d="M228.2,165.2c-2.98,0-5.4-2.42-5.4-5.4c0-0.99-0.81-1.8-1.8-1.8c-0.99,0-1.8,0.81-1.8,1.8
	c0,2.98-2.42,5.4-5.4,5.4c-0.99,0-1.8,0.81-1.8,1.8s0.81,1.8,1.8,1.8c2.98,0,5.4,2.42,5.4,5.4c0,0.99,0.81,1.8,1.8,1.8
	c0.99,0,1.8-0.81,1.8-1.8c0-2.98,2.42-5.4,5.4-5.4c0.99,0,1.8-0.81,1.8-1.8S229.19,165.2,228.2,165.2z"/>
<path class="st2" d="M212.86,291.38c-1.66-0.41-3-2.13-3-3.78c0-26.67,0-53.33,0-80c0-1.66,1.34-2.63,3-2.22
	c56.3,13.87,112.59-17.18,168.89-3.31c1.66,0.41,3,2.13,3,3.78c0,26.67,0,53.33,0,80c0,1.66-1.34,2.63-3,2.22
	C325.46,274.2,269.16,305.25,212.86,291.38z"/>
<path class="st0" d="M381.75,205.07c0,26.67,0,53.33,0,80c-56.3-13.87-112.59,17.18-168.89,3.31c0-26.67,0-53.33,0-80
	C269.16,222.25,325.46,191.2,381.75,205.07 M381.75,199.07c-56.3-13.87-112.59,17.18-168.89,3.31c-3.31-0.81-6,1.03-6,4.35
	c0,26.67,0,53.33,0,80c0,3.31,2.69,6.84,6,7.65c56.3,13.87,112.59-17.18,168.89-3.31c3.31,0.81,6-1.03,6-4.35c0-26.67,0-53.33,0-80
	C387.75,203.42,385.07,199.89,381.75,199.07L381.75,199.07z"/>
<g>
	<path class="st3" d="M266.2,250.91c0-14.18,6.63-27.25,16.39-34.89c-16.43,2.31-32.85,3.95-49.28,2.69
		c0,7.35-5.97,12.97-13.33,11.63v39.11c7.36,1.34,13.33,7.65,13.33,15.04c16.42,1.26,32.84-0.38,49.26-2.69
		C272.82,276.84,266.2,265.18,266.2,250.91z M243.09,263.58c-5.89-0.06-10.67-5.67-10.67-12.05c0-6.39,4.78-11.12,10.67-11.06
		c5.89,0.07,10.67,4.97,10.67,11.36C253.75,258.2,248.98,263.65,243.09,263.58z"/>
	<path class="st3" d="M361.31,208.96c-16.42-1.26-32.84,0.38-49.26,2.69c9.75,4.96,16.37,16.63,16.37,30.89
		c0,14.18-6.63,27.25-16.39,34.89c16.43-2.31,32.85-3.95,49.28-2.69c0-7.35,5.97-12.97,13.33-11.63V224
		C367.28,222.65,361.31,216.34,361.31,208.96z M351.53,252.98c-5.89-0.07-10.67-4.97-10.67-11.36c0-6.37,4.78-11.82,10.67-11.75
		c5.89,0.06,10.67,5.67,10.67,12.05C362.2,248.31,357.42,253.04,351.53,252.98z"/>
</g>
<path class="st0" d="M301.95,245.57c-1.06,0-1.94-0.83-2-1.9c-0.08-1.6,0.46-3.14,1.53-4.33c1.07-1.19,2.55-1.89,4.15-1.98
	c1.61-0.09,3.14,0.46,4.33,1.53s1.89,2.54,1.98,4.15c0.06,1.1-0.79,2.04-1.89,2.1c-1.07,0.07-2.04-0.79-2.1-1.89
	c-0.03-0.53-0.26-1.03-0.66-1.38c-0.4-0.36-0.92-0.54-1.44-0.51c-0.53,0.03-1.03,0.26-1.38,0.66s-0.54,0.91-0.51,1.44
	c0.06,1.1-0.79,2.04-1.89,2.1C302.02,245.57,301.98,245.57,301.95,245.57z"/>
<path class="st0" d="M281.98,246.62c-1.06,0-1.94-0.83-2-1.9c-0.08-1.6,0.46-3.14,1.53-4.33c1.07-1.19,2.55-1.89,4.15-1.98
	c1.61-0.09,3.14,0.46,4.33,1.53c1.19,1.07,1.89,2.54,1.98,4.15c0.06,1.1-0.79,2.04-1.89,2.1c-1.07,0.07-2.04-0.79-2.1-1.89
	c-0.03-0.53-0.26-1.03-0.66-1.38c-0.4-0.36-0.91-0.54-1.44-0.51c-0.53,0.03-1.03,0.26-1.38,0.66s-0.54,0.91-0.51,1.44
	c0.06,1.1-0.79,2.04-1.89,2.1C282.05,246.62,282.01,246.62,281.98,246.62z"/>
<path class="st0" d="M301.85,229.18c0.99-0.58,1.89-0.85,2.91-1.02c1-0.17,2.04-0.17,3.08-0.01c1.04,0.14,2.09,0.51,3.03,1.06
	c0.96,0.53,1.78,1.34,2.35,2.27c0.49,0.81,0.23,1.87-0.59,2.36c-0.38,0.23-0.82,0.29-1.23,0.21l-0.4-0.08
	c-0.78-0.16-1.38-0.36-2.03-0.5c-0.65-0.13-1.26-0.29-1.94-0.4l-2.1-0.32c-0.71-0.1-1.54-0.17-2.24-0.35l-0.42-0.11
	c-0.91-0.23-1.46-1.16-1.22-2.07C301.18,229.77,301.47,229.4,301.85,229.18z"/>
<path class="st0" d="M288.05,233.18c-0.67,0.25-1.49,0.41-2.19,0.58l-2.06,0.54c-0.66,0.17-1.26,0.4-1.89,0.6
	c-0.63,0.2-1.21,0.47-1.96,0.71l-0.38,0.12c-0.91,0.29-1.87-0.22-2.16-1.12c-0.14-0.43-0.09-0.87,0.08-1.25
	c0.46-0.99,1.2-1.88,2.1-2.51c0.88-0.65,1.89-1.12,2.9-1.37c1.02-0.26,2.05-0.37,3.06-0.31c1.03,0.06,1.96,0.24,3,0.71
	c0.86,0.38,1.24,1.39,0.86,2.24c-0.19,0.43-0.54,0.74-0.95,0.9L288.05,233.18z"/>
<path class="st0" d="M312.67,251.88c-0.11-2.13-1.88-3.79-3.99-3.79c-0.07,0-0.14,0-0.21,0.01l-23.97,1.26
	c-1.06,0.06-2.05,0.53-2.76,1.32c-0.71,0.79-1.08,1.83-1.02,2.89c0.45,8.5,7.46,15.16,15.97,15.16c0.28,0,0.56-0.01,0.85-0.02
	c4.27-0.22,8.19-2.1,11.05-5.27C311.44,260.25,312.89,256.15,312.67,251.88z"/>
<path class="st4" d="M297.32,264.7c3.54-0.19,6.64-1.9,8.7-4.46c-2.32-2.33-5.58-3.71-9.12-3.53c-3.54,0.19-6.64,1.9-8.7,4.46
	C290.52,263.5,293.77,264.89,297.32,264.7z"/>
<path class="st2" d="M15,143.65c-1.66-0.41-3-2.13-3-3.78c0-26.67,0-53.33,0-80c0-1.66,1.34-2.63,3-2.22
	c56.3,13.87,112.59-17.18,168.89-3.31c1.66,0.41,3,2.13,3,3.78c0,26.67,0,53.33,0,80c0,1.66-1.34,2.62-3,2.22
	C127.59,126.47,71.3,157.53,15,143.65z"/>
<path class="st0" d="M183.89,57.35c0,26.67,0,53.33,0,80C127.59,123.47,71.3,154.53,15,140.65c0-26.67,0-53.33,0-80
	C71.3,74.53,127.59,43.47,183.89,57.35 M183.89,51.35C127.59,37.47,71.3,68.53,15,54.65c-3.31-0.81-6,1.03-6,4.35
	c0,26.67,0,53.33,0,80c0,3.31,2.69,6.84,6,7.65c56.3,13.87,112.59-17.18,168.89-3.31c3.31,0.81,6-1.03,6-4.35c0-26.67,0-53.33,0-80
	C189.89,55.69,187.2,52.16,183.89,51.35C183.89,51.35,183.89,51.35,183.89,51.35z"/>
<g>
	<path class="st3" d="M68.33,103.19c0-14.18,6.63-27.25,16.39-34.89c-16.43,2.31-32.85,3.95-49.28,2.69
		c0,7.35-5.97,12.97-13.33,11.63v39.11c7.36,1.34,13.33,7.65,13.33,15.04c16.42,1.26,32.84-0.38,49.26-2.69
		C74.96,129.11,68.33,117.45,68.33,103.19z M45.22,115.86c-5.89-0.06-10.67-5.67-10.67-12.05c0-6.39,4.78-11.12,10.67-11.06
		c5.89,0.07,10.67,4.97,10.67,11.36C55.89,110.48,51.11,115.93,45.22,115.86z"/>
	<path class="st3" d="M163.44,61.24c-16.42-1.26-32.84,0.38-49.26,2.69c9.75,4.96,16.37,16.63,16.37,30.89
		c0,14.18-6.63,27.25-16.39,34.89c16.43-2.31,32.85-3.95,49.28-2.69c0-7.35,5.97-12.97,13.33-11.63V76.27
		C169.41,74.93,163.44,68.62,163.44,61.24z M153.67,105.26c-5.89-0.07-10.67-4.97-10.67-11.36c0-6.37,4.78-11.82,10.67-11.75
		c5.89,0.06,10.67,5.67,10.67,12.05C164.33,100.58,159.56,105.31,153.67,105.26z"/>
</g>
<path class="st0" d="M104.99,101.96c-0.59,0-1.15-0.35-1.39-0.94c-0.31-0.77,0.06-1.64,0.83-1.95c2.19-0.89,5.69-1.07,7.97-0.42
	c0.8,0.23,1.26,1.06,1.03,1.86c-0.23,0.8-1.06,1.26-1.86,1.03c-1.63-0.47-4.44-0.32-6.01,0.32
	C105.36,101.93,105.17,101.96,104.99,101.96z"/>
<circle class="st0" cx="108.13" cy="93.58" r="6"/>
<circle class="st5" cx="109.63" cy="93.5" r="1.5"/>
<path class="st0" d="M85.01,103.01c-0.59,0-1.15-0.35-1.39-0.94c-0.31-0.77,0.06-1.64,0.83-1.95c2.19-0.89,5.69-1.07,7.97-0.42
	c0.8,0.23,1.26,1.06,1.03,1.86c-0.23,0.8-1.06,1.25-1.86,1.03c-1.63-0.47-4.44-0.32-6.01,0.32
	C85.39,102.97,85.2,103.01,85.01,103.01z"/>
<circle class="st0" cx="88.16" cy="94.63" r="6"/>
<circle class="st5" cx="89.65" cy="94.55" r="1.5"/>
<path class="st0" d="M103.86,79.93c0.94-0.66,1.81-1.01,2.81-1.27c0.98-0.26,2.02-0.34,3.06-0.28c1.05,0.05,2.12,0.32,3.11,0.79
	c1,0.45,1.89,1.18,2.54,2.06c0.56,0.77,0.39,1.85-0.38,2.4c-0.36,0.26-0.79,0.36-1.2,0.32l-0.4-0.05c-0.79-0.09-1.4-0.24-2.06-0.32
	c-0.65-0.07-1.28-0.18-1.97-0.23l-2.12-0.13c-0.72-0.04-1.55-0.04-2.26-0.16L104.56,83c-0.93-0.15-1.55-1.03-1.4-1.95
	C103.23,80.58,103.5,80.18,103.86,79.93z"/>
<path class="st0" d="M90.18,83.84c-0.69,0.19-1.52,0.28-2.23,0.39l-2.1,0.36c-0.68,0.12-1.29,0.29-1.94,0.43
	c-0.65,0.15-1.24,0.36-2.02,0.54l-0.39,0.09c-0.93,0.21-1.85-0.38-2.05-1.31c-0.1-0.44-0.02-0.88,0.19-1.24
	c0.55-0.95,1.36-1.77,2.31-2.31c0.93-0.57,1.98-0.95,3.01-1.11c1.04-0.17,2.08-0.19,3.08-0.04c1.02,0.15,1.93,0.41,2.93,0.97
	c0.82,0.46,1.11,1.49,0.66,2.31c-0.23,0.41-0.61,0.69-1.03,0.81L90.18,83.84z"/>
<path class="st0" d="M97.9,112.78c-4.06,0-8.19-0.84-11.86-2.55c-1-0.47-1.44-1.66-0.97-2.66c0.47-1,1.66-1.44,2.66-0.97
	c7.01,3.26,16.26,2.79,21.99-1.13c0.91-0.62,2.16-0.39,2.78,0.52c0.62,0.91,0.39,2.16-0.52,2.78
	C108.09,111.43,103.05,112.78,97.9,112.78z"/>
<path class="st0" d="M95.14,116.64c1.37,0.36,2.8,0.42,4.21,0.4c0.71-0.01,1.41-0.14,2.1-0.26c0.69-0.13,1.37-0.31,2.03-0.57
	c0.68-0.27,1.45,0.05,1.72,0.73c0.19,0.47,0.09,0.99-0.22,1.36l-0.68,0.79c-0.64,0.74-1.42,1.17-2.22,1.49
	c-0.81,0.28-1.67,0.45-2.52,0.45c-0.43,0-0.85,0-1.28-0.06c-0.42-0.04-0.85-0.12-1.26-0.24c-0.83-0.23-1.63-0.56-2.36-1.13
	l-0.7-0.55c-0.6-0.47-0.7-1.33-0.23-1.93C94.06,116.68,94.63,116.5,95.14,116.64z"/>
<path class="st6" d="M26,371c-4.96,0-9-4.04-9-9v-88c0-4.96,4.04-9,9-9h138c4.96,0,9,4.04,9,9v88c0,4.96-4.04,9-9,9H26z"/>
<path class="st0" d="M164,268c3.31,0,6,2.69,6,6v88c0,3.31-2.69,6-6,6H26c-3.31,0-6-2.69-6-6v-88c0-3.31,2.69-6,6-6H164 M164,262H26
	c-6.62,0-12,5.38-12,12v88c0,6.62,5.38,12,12,12h138c6.62,0,12-5.38,12-12v-88C176,267.38,170.62,262,164,262L164,262z"/>
<path class="st7" d="M88.67,340.48L20,268l0,16.28l60.29,64.31c3.95,4.21,10.64,4.21,14.59,0l5.7-6.08
	C96.72,344.51,91.82,343.84,88.67,340.48z"/>
<path class="st0" d="M95,346.38c-3.58,0-7.04-1.5-9.48-4.11l-67.7-72.22c-1.13-1.21-1.07-3.11,0.14-4.24
	c1.21-1.13,3.11-1.07,4.24,0.14l67.7,72.22c1.34,1.43,3.15,2.21,5.11,2.21s3.77-0.79,5.11-2.21l67.7-72.22
	c1.13-1.21,3.03-1.27,4.24-0.14c1.21,1.13,1.27,3.03,0.14,4.24l-67.7,72.22C102.04,344.88,98.58,346.38,95,346.38z"/>
<path class="st0" d="M170,371c-0.82,0-1.64-0.33-2.23-0.99l-45-50c-1.11-1.23-1.01-3.13,0.22-4.24c1.23-1.11,3.13-1.01,4.24,0.22
	l45,50c1.11,1.23,1.01,3.13-0.22,4.24C171.43,370.75,170.72,371,170,371z"/>
<path class="st0" d="M20,371c-0.71,0-1.43-0.25-2.01-0.77c-1.23-1.11-1.33-3-0.22-4.24l45-50c1.11-1.23,3.01-1.33,4.24-0.22
	c1.23,1.11,1.33,3,0.22,4.24l-45,50C21.64,370.67,20.82,371,20,371z"/>
<path class="st0" d="M95.36,313.47c-5.29,0-10.71-1.42-15.4-4.27c-0.94-0.57-1.25-1.8-0.67-2.75c0.57-0.94,1.8-1.24,2.75-0.67
	c8,4.86,18.86,4.87,25.82,0.03c0.91-0.63,2.15-0.41,2.78,0.5s0.41,2.15-0.5,2.78C105.95,312.01,100.72,313.47,95.36,313.47z"/>
<path class="st0" d="M90.82,316.58c1.35,0.43,2.77,0.57,4.18,0.62c0.71,0.03,1.41-0.07,2.11-0.15c0.7-0.09,1.39-0.24,2.05-0.47
	c0.69-0.24,1.45,0.13,1.68,0.82c0.17,0.48,0.04,1-0.29,1.34l-0.72,0.76c-0.67,0.71-1.48,1.09-2.3,1.37
	c-0.83,0.24-1.69,0.36-2.54,0.31c-0.43-0.02-0.85-0.04-1.27-0.13c-0.42-0.06-0.84-0.17-1.25-0.3c-0.81-0.27-1.6-0.64-2.3-1.25
	l-0.67-0.59c-0.57-0.5-0.63-1.37-0.13-1.94C89.74,316.56,90.32,316.42,90.82,316.58z"/>
<path class="st0" d="M112.5,302.55c-0.32,0-0.64-0.08-0.94-0.24c-1.89-1.02-5.22-1.02-7.11,0c-0.97,0.52-2.19,0.16-2.71-0.82
	c-0.52-0.97-0.16-2.19,0.82-2.71c3.05-1.64,7.84-1.64,10.89,0c0.97,0.52,1.34,1.73,0.82,2.71
	C113.9,302.17,113.21,302.55,112.5,302.55z"/>
<circle class="st0" cx="108" cy="293.8" r="7"/>
<circle class="st5" cx="109.75" cy="293.8" r="1.75"/>
<path class="st0" d="M104.82,277.03c0.73-0.37,1.3-0.57,1.98-0.74c0.66-0.16,1.33-0.26,2.03-0.29c1.38-0.05,2.83,0.17,4.22,0.73
	c1.39,0.53,2.7,1.48,3.64,2.67c0.99,1.16,1.52,2.58,1.7,3.96c0.15,1.12-0.63,2.15-1.75,2.3c-0.57,0.08-1.11-0.09-1.53-0.41
	l-0.39-0.3c-0.81-0.63-1.37-1.22-2.03-1.61c-0.62-0.42-1.21-0.77-1.92-1.06c-0.69-0.29-1.47-0.54-2.33-0.75
	c-0.43-0.1-0.88-0.22-1.34-0.3c-0.44-0.11-0.99-0.17-1.36-0.31l-0.73-0.28c-1.02-0.39-1.54-1.53-1.15-2.55
	C104.05,277.62,104.4,277.25,104.82,277.03z"/>
<path class="st0" d="M86.5,302.55c-0.32,0-0.64-0.08-0.94-0.24c-1.89-1.02-5.22-1.02-7.11,0c-0.97,0.52-2.19,0.16-2.71-0.82
	c-0.52-0.97-0.16-2.19,0.82-2.71c3.05-1.64,7.84-1.64,10.89,0c0.97,0.52,1.34,1.73,0.82,2.71C87.9,302.17,87.21,302.55,86.5,302.55z
	"/>
<circle class="st0" cx="82" cy="293.8" r="7"/>
<circle class="st5" cx="83.75" cy="293.8" r="1.75"/>
<path class="st0" d="M84.25,280.92c-0.37,0.14-0.92,0.2-1.36,0.31c-0.46,0.08-0.91,0.19-1.34,0.3c-0.86,0.21-1.63,0.46-2.33,0.75
	c-0.7,0.28-1.29,0.64-1.92,1.06c-0.66,0.39-1.22,0.98-2.03,1.61l-0.38,0.3c-0.89,0.69-2.18,0.53-2.87-0.36
	c-0.35-0.45-0.48-1.01-0.41-1.53c0.19-1.37,0.71-2.79,1.7-3.96c0.94-1.18,2.25-2.14,3.64-2.67c1.39-0.56,2.84-0.78,4.22-0.73
	c0.69,0.03,1.37,0.13,2.03,0.29c0.68,0.17,1.25,0.37,1.98,0.74c0.97,0.49,1.37,1.68,0.87,2.65c-0.23,0.46-0.62,0.79-1.06,0.96
	L84.25,280.92z"/>
<path class="st8" d="M134,376.5c-1.38,0-2.5-1.12-2.5-2.5v-15c0-1.38,1.12-2.5,2.5-2.5h8.5V330c0-1.38,1.12-2.5,2.5-2.5h56
	c1.38,0,2.5,1.12,2.5,2.5v39c0,4.14-3.36,7.5-7.5,7.5H134z"/>
<path class="st0" d="M201,330v39c0,2.76-2.24,5-5,5h-62v-15h11v-29H201 M201,325h-56c-2.76,0-5,2.24-5,5v24h-6c-2.76,0-5,2.24-5,5
	v15c0,2.76,2.24,5,5,5h62c5.51,0,10-4.49,10-10v-39C206,327.24,203.76,325,201,325L201,325z"/>
<path class="st9" d="M133.5,376.5c-4.96,0-9-4.04-9-9V342c0-1.38,1.12-2.5,2.5-2.5h13c1.38,0,2.5,1.12,2.5,2.5v25.5
	C142.5,372.46,138.46,376.5,133.5,376.5z"/>
<path class="st0" d="M140,342v25.5c0,3.59-2.91,6.5-6.5,6.5h0c-3.59,0-6.5-2.91-6.5-6.5V342H140 M140,337h-13c-2.76,0-5,2.24-5,5
	v25.5c0,6.34,5.16,11.5,11.5,11.5c6.34,0,11.5-5.16,11.5-11.5V342C145,339.24,142.76,337,140,337L140,337z"/>
<polyline class="st9" points="133.5,368 133.5,334 142.5,334 142.5,366 "/>
<path class="st0" d="M133.5,370.5c-1.38,0-2.5-1.12-2.5-2.5v-34c0-1.38,1.12-2.5,2.5-2.5h9c1.38,0,2.5,1.12,2.5,2.5v32
	c0,1.38-1.12,2.5-2.5,2.5s-2.5-1.12-2.5-2.5v-29.5h-4V368C136,369.38,134.88,370.5,133.5,370.5z"/>
<rect x="145" y="330" class="st10" width="56" height="4"/>
<rect x="165" y="336" class="st11" width="16" height="16"/>
<path class="st0" d="M179,338v12h-12v-12H179 M181,334h-16c-1.1,0-2,0.9-2,2v16c0,1.1,0.9,2,2,2h16c1.1,0,2-0.9,2-2v-16
	C183,334.9,182.1,334,181,334L181,334z"/>
<path class="st11" d="M153,376c-1.1,0-2-0.9-2-2v-6c0-1.1,0.9-2,2-2h40c1.1,0,2,0.9,2,2v6c0,1.1-0.9,2-2,2H153z"/>
<path class="st0" d="M193,368v6h-40v-6H193 M193,364h-40c-2.21,0-4,1.79-4,4v6c0,2.21,1.79,4,4,4h40c2.21,0,4-1.79,4-4v-6
	C197,365.79,195.21,364,193,364L193,364z"/>
<line class="st11" x1="151" y1="336" x2="157" y2="336"/>
<path class="st0" d="M157,338h-6c-1.1,0-2-0.9-2-2s0.9-2,2-2h6c1.1,0,2,0.9,2,2S158.1,338,157,338z"/>
<line class="st11" x1="151" y1="344" x2="157" y2="344"/>
<path class="st0" d="M157,346h-6c-1.1,0-2-0.9-2-2s0.9-2,2-2h6c1.1,0,2,0.9,2,2S158.1,346,157,346z"/>
<line class="st11" x1="151" y1="352" x2="157" y2="352"/>
<path class="st0" d="M157,354h-6c-1.1,0-2-0.9-2-2s0.9-2,2-2h6c1.1,0,2,0.9,2,2S158.1,354,157,354z"/>
<line class="st11" x1="189" y1="336" x2="195" y2="336"/>
<path class="st0" d="M195,338h-6c-1.1,0-2-0.9-2-2s0.9-2,2-2h6c1.1,0,2,0.9,2,2S196.1,338,195,338z"/>
<line class="st11" x1="189" y1="344" x2="195" y2="344"/>
<path class="st0" d="M195,346h-6c-1.1,0-2-0.9-2-2s0.9-2,2-2h6c1.1,0,2,0.9,2,2S196.1,346,195,346z"/>
<line class="st11" x1="189" y1="352" x2="195" y2="352"/>
<path class="st0" d="M195,354h-6c-1.1,0-2-0.9-2-2s0.9-2,2-2h6c1.1,0,2,0.9,2,2S196.1,354,195,354z"/>
<line class="st11" x1="151" y1="359" x2="195" y2="359"/>
<path class="st0" d="M195,361h-44c-1.1,0-2-0.9-2-2s0.9-2,2-2h44c1.1,0,2,0.9,2,2S196.1,361,195,361z"/>
<path class="st6" d="M234,133c-4.96,0-9-4.04-9-9V36c0-4.96,4.04-9,9-9h138c4.96,0,9,4.04,9,9v88c0,4.96-4.04,9-9,9H234z"/>
<path class="st0" d="M372,30c3.31,0,6,2.69,6,6v88c0,3.31-2.69,6-6,6H234c-3.31,0-6-2.69-6-6V36c0-3.31,2.69-6,6-6H372 M372,24H234
	c-6.62,0-12,5.38-12,12v88c0,6.62,5.38,12,12,12h138c6.62,0,12-5.38,12-12V36C384,29.38,378.62,24,372,24L372,24z"/>
<path class="st7" d="M296.67,102.48L228,30l0,16.28l60.29,64.31c3.95,4.21,10.64,4.21,14.59,0l5.7-6.08
	C304.72,106.51,299.82,105.84,296.67,102.48z"/>
<path class="st0" d="M303,108.38c-3.58,0-7.04-1.5-9.48-4.11l-67.7-72.22c-1.13-1.21-1.07-3.11,0.14-4.24
	c1.21-1.13,3.11-1.07,4.24,0.14l67.7,72.22c1.34,1.43,3.15,2.21,5.11,2.21s3.77-0.79,5.11-2.21l67.7-72.22
	c1.13-1.21,3.03-1.27,4.24-0.14c1.21,1.13,1.27,3.03,0.14,4.24l-67.7,72.22C310.04,106.88,306.58,108.38,303,108.38z"/>
<path class="st0" d="M378,133c-0.82,0-1.64-0.33-2.23-0.99l-45-50c-1.11-1.23-1.01-3.13,0.22-4.24s3.13-1.01,4.24,0.22l45,50
	c1.11,1.23,1.01,3.13-0.22,4.24C379.43,132.75,378.72,133,378,133z"/>
<path class="st0" d="M228,133c-0.71,0-1.43-0.25-2.01-0.77c-1.23-1.11-1.33-3.01-0.22-4.24l45-50c1.11-1.23,3-1.33,4.24-0.22
	c1.23,1.11,1.33,3.01,0.22,4.24l-45,50C229.64,132.67,228.82,133,228,133z"/>
<path class="st0" d="M311.02,45.12c0.64-0.63,1.18-1.01,1.84-1.4c0.64-0.37,1.33-0.68,2.05-0.92c1.45-0.46,3.09-0.61,4.7-0.33
	c1.61,0.26,3.2,0.94,4.4,1.98c0.66,0.47,1.11,1.09,1.6,1.67c0.44,0.61,0.77,1.27,1.06,1.94c0.44,1.03-0.04,2.22-1.07,2.66
	c-0.53,0.22-1.1,0.21-1.59,0l-0.51-0.22c-0.53-0.23-0.93-0.55-1.37-0.77c-0.44-0.21-0.83-0.47-1.23-0.61
	c-0.78-0.38-1.52-0.58-2.3-0.74c-0.78-0.15-1.62-0.2-2.54-0.16c-0.46,0.03-0.95,0.05-1.44,0.12c-0.48,0.03-1.05,0.17-1.46,0.16
	l-0.82-0.02c-1.08-0.02-1.94-0.92-1.92-2C310.44,45.95,310.67,45.46,311.02,45.12z"/>
<path class="st0" d="M292.84,48.5c-0.4,0.01-0.98-0.13-1.46-0.16c-0.49-0.07-0.98-0.09-1.44-0.12c-0.93-0.05-1.77,0.01-2.54,0.16
	c-0.78,0.15-1.52,0.35-2.3,0.74c-0.41,0.14-0.8,0.4-1.23,0.61c-0.44,0.22-0.84,0.54-1.37,0.77l-0.51,0.22
	c-1.03,0.44-2.22-0.03-2.66-1.06c-0.23-0.53-0.21-1.1-0.01-1.6c0.28-0.67,0.62-1.33,1.06-1.94c0.49-0.58,0.95-1.2,1.6-1.67
	c1.2-1.04,2.79-1.72,4.4-1.98c1.62-0.27,3.25-0.13,4.7,0.33c0.72,0.24,1.41,0.54,2.05,0.92c0.66,0.39,1.19,0.78,1.84,1.4
	c0.78,0.75,0.79,1.99,0.04,2.77c-0.37,0.38-0.86,0.58-1.36,0.59L292.84,48.5z"/>
<path class="st0" d="M295.02,63.1c-1.38,0-2.5-1.12-2.5-2.5c0-1.38-1.12-2.5-2.5-2.5s-2.5,1.12-2.5,2.5c0,1.38-1.12,2.5-2.5,2.5
	s-2.5-1.12-2.5-2.5c0-4.14,3.36-7.5,7.5-7.5s7.5,3.36,7.5,7.5C297.52,61.98,296.4,63.1,295.02,63.1z"/>
<path class="st0" d="M320.98,63.1c-1.38,0-2.5-1.12-2.5-2.5c0-1.38-1.12-2.5-2.5-2.5s-2.5,1.12-2.5,2.5c0,1.38-1.12,2.5-2.5,2.5
	s-2.5-1.12-2.5-2.5c0-4.14,3.36-7.5,7.5-7.5s7.5,3.36,7.5,7.5C323.48,61.98,322.36,63.1,320.98,63.1z"/>
<path class="st12" d="M350,147c-1.38,0-2.58-0.94-2.91-2.27l-4-16c-0.22-0.9-0.02-1.85,0.55-2.57c0.57-0.73,1.44-1.15,2.36-1.15h8
	c1.66,0,3,1.34,3,3v16c0,1.66-1.34,3-3,3H350z"/>
<path class="st0" d="M354,128v16h-4l-4-16H354 M354,122h-8c-1.85,0-3.59,0.85-4.73,2.31c-1.14,1.46-1.54,3.36-1.09,5.15l4,16
	c0.67,2.67,3.07,4.54,5.82,4.54h4c3.31,0,6-2.69,6-6v-16C360,124.69,357.31,122,354,122L354,122z"/>
<path class="st12" d="M334,123c-2.76,0-5-2.24-5-5v-8c0-2.76,2.24-5,5-5h6c2.76,0,5,2.24,5,5v8c0,2.76-2.24,5-5,5H334z"/>
<path class="st0" d="M340,108c1.1,0,2,0.9,2,2v8c0,1.1-0.9,2-2,2h-6c-1.1,0-2-0.9-2-2v-8c0-1.1,0.9-2,2-2H340 M340,102h-6
	c-4.41,0-8,3.59-8,8v8c0,4.41,3.59,8,8,8h6c4.41,0,8-3.59,8-8v-8C348,105.59,344.41,102,340,102L340,102z"/>
<path class="st12" d="M382,134c-0.86,0-1.7-0.37-2.28-1.05c-0.08-0.1-8.37-9.54-21.72-9.54c-1.66,0-3-1.34-3-3v-12.83
	c0-1.66,1.34-3,3-3c13.46,0,21.63-9.43,21.71-9.53C380.3,94.37,381.14,94,382,94c0.35,0,0.7,0.06,1.03,0.18
	c1.18,0.43,1.96,1.56,1.96,2.82v34c0,1.26-0.78,2.38-1.96,2.82C382.7,133.94,382.35,134,382,134z"/>
<path class="st0" d="M382,97v34c0,0-9-10.58-24-10.58v-12.83C373,107.58,382,97,382,97 M382,91c-1.72,0-3.39,0.74-4.55,2.09
	c-0.35,0.4-7.6,8.5-19.45,8.5c-3.31,0-6,2.69-6,6v12.83c0,3.31,2.69,6,6,6c11.89,0,19.15,8.15,19.45,8.5
	c1.16,1.36,2.83,2.1,4.55,2.1c0.7,0,1.4-0.12,2.08-0.37c2.36-0.87,3.92-3.13,3.92-5.65V97c0-2.52-1.57-4.76-3.93-5.63
	C383.39,91.12,382.69,91,382,91L382,91z"/>
<path class="st13" d="M358,107.58v4c15,0,24-8.58,24-8.58v-6C382,97,373,107.58,358,107.58z"/>
<path class="st12" d="M387,141c-3.31,0-6-2.69-6-6V93c0-3.31,2.69-6,6-6s6,2.69,6,6v42C393,138.31,390.31,141,387,141z"/>
<path class="st0" d="M387,90c1.66,0,3,1.34,3,3v42c0,1.66-1.34,3-3,3s-3-1.34-3-3l0-42C384,91.34,385.34,90,387,90 M387,84
	c-4.96,0-9,4.04-9,9l0,42c0,4.96,4.04,9,9,9c4.96,0,9-4.04,9-9V93C396,88.04,391.96,84,387,84L387,84z"/>
<path class="st13" d="M387,90c-1.66,0-3,1.34-3,3v9c0-1.66,1.34-3,3-3c1.66,0,3,1.34,3,3v-9C390,91.34,388.66,90,387,90z"/>
<path class="st12" d="M344,128c-2.76,0-5-2.24-5-5v-18c0-2.76,2.24-5,5-5h12c2.76,0,5,2.24,5,5v18c0,2.76-2.24,5-5,5H344z"/>
<path class="st0" d="M356,103c1.1,0,2,0.9,2,2v18c0,1.1-0.9,2-2,2h-12c-1.1,0-2-0.9-2-2v-18c0-1.1,0.9-2,2-2H356 M356,97h-12
	c-4.41,0-8,3.59-8,8v18c0,4.41,3.59,8,8,8h12c4.41,0,8-3.59,8-8v-18C364,100.59,360.41,97,356,97L356,97z"/>
<path class="st13" d="M342,107l16,0v-2c0-1.1-0.9-2-2-2l-12,0c-1.1,0-2,0.9-2,2V107z"/>
<path class="st0" d="M315.01,65.81L315.01,65.81l-24.01,0c-2.21,0-4,1.79-4,4c0,8.82,7.18,16,16,16c8.77,0,15.91-7.09,16-15.84
	c0-0.05,0-0.11,0-0.16C319,67.6,317.21,65.81,315.01,65.81z"/>
<path class="st4" d="M303,81.81c3.55,0,6.73-1.55,8.93-4c-2.2-2.45-5.38-4-8.93-4s-6.73,1.55-8.93,4
	C296.27,80.26,299.45,81.81,303,81.81z"/>
<path class="st0" d="M222,94.5h-5c-0.83,0-1.5-0.67-1.5-1.5s0.67-1.5,1.5-1.5h5c0.83,0,1.5,0.67,1.5,1.5S222.83,94.5,222,94.5z
	 M208,94.5h-5c-0.83,0-1.5-0.67-1.5-1.5s0.67-1.5,1.5-1.5h5c0.83,0,1.5,0.67,1.5,1.5S208.83,94.5,208,94.5z M194,94.5h-5
	c-0.83,0-1.5-0.67-1.5-1.5s0.67-1.5,1.5-1.5h5c0.83,0,1.5,0.67,1.5,1.5S194.83,94.5,194,94.5z"/>
<rect class="st14" width="400" height="400"/>
</svg>
