<?xml version="1.0" encoding="utf-8"?>
<!-- Generator: Adobe Illustrator 25.2.3, SVG Export Plug-In . SVG Version: 6.00 Build 0)  -->
<svg version="1.1" id="exit-popup" xmlns="http://www.w3.org/2000/svg" xmlns:xlink="http://www.w3.org/1999/xlink" x="0px" y="0px"
	 viewBox="0 0 400 400" style="enable-background:new 0 0 400 400;" xml:space="preserve">
<style type="text/css">
	.st0{fill:#75A5C3;}
	.st1{fill:#FFFFFF;}
	.st2{fill:#FF5056;}
	.st3{fill:#EAF2F6;}
	.st4{fill:#D5E4ED;}
	.st5{fill:#D8EBFB;}
	.st6{fill:#515979;}
	.st7{fill:#ACC9DB;}
	.st8{fill:#EF7D7D;}
	.st9{fill:#FFD886;}
</style>
<g>
	<rect x="50" y="22" class="st0" width="300" height="358"/>
</g>
<g>
	<path class="st1" d="M315,350H85c-2.76,0-5-2.24-5-5V57c0-2.76,2.24-5,5-5h230c2.76,0,5,2.24,5,5v288
		C320,347.76,317.76,350,315,350z"/>
</g>
<g>
	<path class="st2" d="M297,324H103c-1.66,0-3-1.34-3-3v-30c0-1.66,1.34-3,3-3h194c1.66,0,3,1.34,3,3v30
		C300,322.66,298.66,324,297,324z"/>
</g>
<g>
	<circle class="st3" cx="200" cy="149" r="85"/>
</g>
<g>
	<circle class="st4" cx="200" cy="149" r="65"/>
</g>
<g>
	<g>
		<g>
			<path class="st5" d="M147,191.67c-4.96,0-9-4.04-9-9v-68c0-4.96,4.04-9,9-9h106c4.96,0,9,4.04,9,9v68c0,4.96-4.04,9-9,9H147z"/>
		</g>
		<g>
			<g>
				<path class="st6" d="M253,108.67c3.31,0,6,2.69,6,6v68c0,3.31-2.69,6-6,6H147c-3.31,0-6-2.69-6-6v-68c0-3.31,2.69-6,6-6H253
					 M253,102.67H147c-6.62,0-12,5.38-12,12v68c0,6.62,5.38,12,12,12h106c6.62,0,12-5.38,12-12v-68
					C265,108.05,259.62,102.67,253,102.67L253,102.67z"/>
			</g>
		</g>
	</g>
	<g>
		<path class="st7" d="M199.88,169.25l5.7-6.08c-3.86,2.01-8.75,1.34-11.91-2.03l-50.31-51.24c-1.43,1.1-2.36,2.82-2.36,4.76v9.29
			l44.29,45.3C189.24,173.46,195.93,173.46,199.88,169.25z"/>
	</g>
	<g>
		<path class="st6" d="M259,192.33c-0.81,0-1.61-0.32-2.2-0.96l-37.57-40.67c-1.12-1.22-1.05-3.11,0.17-4.24
			c1.22-1.12,3.12-1.05,4.24,0.17l37.57,40.67c1.12,1.22,1.05,3.11-0.17,4.24C260.46,192.07,259.73,192.33,259,192.33z"/>
	</g>
	<g>
		<path class="st6" d="M143.18,190.3c-0.72,0-1.45-0.26-2.03-0.79c-1.22-1.12-1.3-3.02-0.19-4.24l35.39-38.63
			c1.12-1.22,3.02-1.31,4.24-0.19c1.22,1.12,1.3,3.02,0.19,4.24l-35.39,38.63C144.8,189.97,143.99,190.3,143.18,190.3z"/>
	</g>
	<g>
		<path class="st6" d="M200,167.97c-3.19,0-6.38-1.16-8.87-3.48c-0.04-0.04-0.08-0.08-0.12-0.12l-49.99-52.26
			c-1.15-1.2-1.1-3.1,0.09-4.24c1.2-1.14,3.1-1.1,4.24,0.09l49.93,52.19c2.66,2.43,6.78,2.43,9.44,0l51.4-53.57
			c1.15-1.2,3.05-1.23,4.24-0.09c1.2,1.15,1.23,3.05,0.09,4.24l-51.46,53.63c-0.04,0.04-0.08,0.08-0.12,0.12
			C206.38,166.81,203.19,167.97,200,167.97z"/>
	</g>
</g>
<g>
	<g>
		<path class="st6" d="M204.12,116.51c0.98-0.93,1.93-1.45,3.06-1.89c1.11-0.41,2.33-0.62,3.59-0.61c1.26,0,2.57,0.32,3.74,0.9
			c1.19,0.56,2.18,1.5,2.84,2.56c0.6,0.96,0.3,2.23-0.66,2.83c-0.41,0.26-0.88,0.35-1.33,0.29l-0.59-0.07
			c-0.88-0.11-1.51-0.3-2.18-0.35c-0.66-0.07-1.27-0.16-1.96-0.17c-0.68-0.02-1.41-0.02-2.19,0.01c-0.76,0-1.67,0.1-2.43,0.03
			l-0.67-0.06c-1.11-0.1-1.93-1.09-1.82-2.2C203.55,117.28,203.78,116.84,204.12,116.51z"/>
	</g>
	<g>
		<path class="st6" d="M194,120.05c-0.77,0.07-1.67-0.03-2.43-0.03c-0.78-0.03-1.51-0.03-2.19-0.01c-0.69,0.01-1.31,0.1-1.96,0.17
			c-0.67,0.05-1.3,0.24-2.18,0.35l-0.59,0.07c-1.13,0.14-2.15-0.66-2.29-1.79c-0.06-0.48,0.06-0.95,0.29-1.33
			c0.66-1.06,1.64-2.01,2.84-2.56c1.17-0.58,2.49-0.9,3.74-0.9c1.26-0.02,2.48,0.2,3.59,0.61c1.13,0.44,2.08,0.96,3.06,1.89
			c0.81,0.77,0.84,2.05,0.07,2.85c-0.35,0.37-0.8,0.57-1.27,0.62L194,120.05z"/>
	</g>
	<g>
		<path class="st6" d="M194,130.5c-1.38,0-2.5-1.12-2.5-2.5c0-0.83-0.67-1.5-1.5-1.5s-1.5,0.67-1.5,1.5c0,1.38-1.12,2.5-2.5,2.5
			s-2.5-1.12-2.5-2.5c0-3.58,2.92-6.5,6.5-6.5s6.5,2.92,6.5,6.5C196.5,129.38,195.38,130.5,194,130.5z"/>
	</g>
	<g>
		<path class="st6" d="M214,130.5c-1.38,0-2.5-1.12-2.5-2.5c0-0.83-0.67-1.5-1.5-1.5s-1.5,0.67-1.5,1.5c0,1.38-1.12,2.5-2.5,2.5
			s-2.5-1.12-2.5-2.5c0-3.58,2.92-6.5,6.5-6.5s6.5,2.92,6.5,6.5C216.5,129.38,215.38,130.5,214,130.5z"/>
	</g>
	<g>
		<g>
			<g>
				<g>
					<path class="st6" d="M200,149.5c-6.34,0-11.5-5.16-11.5-11.5c0-1.38,1.12-2.5,2.5-2.5h18c1.38,0,2.5,1.12,2.5,2.5
						C211.5,144.34,206.34,149.5,200,149.5z"/>
				</g>
				<g>
					<path class="st6" d="M209,138L209,138 M209,138c0,4.97-4.03,9-9,9c-4.97,0-9-4.03-9-9H209 M209,133L209,133h-18
						c-2.76,0-5,2.24-5,5c0,7.72,6.28,14,14,14c7.65,0,13.89-6.17,14-13.8c0-0.07,0-0.13,0-0.2C214,135.24,211.77,133,209,133
						L209,133z M209,143L209,143L209,143L209,143z"/>
				</g>
			</g>
			<g>
				<g>
					<ellipse class="st8" cx="200" cy="144" rx="6.69" ry="3"/>
				</g>
			</g>
		</g>
	</g>
</g>
<g>
	<path class="st6" d="M260,278c-0.49,0-0.98-0.12-1.44-0.37l-9.47-5.21l-9.47,5.21c-0.9,0.5-1.99,0.49-2.89,0l-9.46-5.21l-9.47,5.21
		c-0.9,0.49-1.99,0.49-2.89,0l-9.46-5.21l-9.46,5.21c-0.9,0.49-1.99,0.5-2.89,0l-9.46-5.2l-9.46,5.21c-0.9,0.49-1.99,0.49-2.89,0
		l-9.46-5.21l-9.46,5.21c-0.9,0.49-1.99,0.49-2.89,0l-10.91-6c-1.45-0.8-1.98-2.62-1.18-4.08c0.8-1.45,2.62-1.98,4.07-1.18
		l9.46,5.21l9.46-5.21c0.9-0.49,1.99-0.49,2.89,0l9.46,5.21l9.46-5.21c0.9-0.49,1.99-0.5,2.89,0l9.46,5.2l9.46-5.21
		c0.9-0.49,1.99-0.49,2.89,0l9.46,5.21l9.47-5.21c0.9-0.49,1.99-0.49,2.89,0l9.46,5.21l9.47-5.21c0.9-0.49,1.99-0.5,2.89,0l10.92,6
		c1.45,0.8,1.98,2.62,1.18,4.07C262.08,277.44,261.06,278,260,278z"/>
</g>
<g>
	<path class="st6" d="M159,342c-0.5,0-1-0.12-1.46-0.38l-5.68-3.18l-5.68,3.18c-0.91,0.51-2.02,0.51-2.93,0l-5.68-3.18l-5.67,3.18
		c-0.91,0.51-2.02,0.51-2.93,0l-5.68-3.18l-5.67,3.18c-0.91,0.51-2.02,0.51-2.93,0l-7.14-4c-1.45-0.81-1.96-2.64-1.15-4.08
		c0.81-1.45,2.64-1.96,4.08-1.15l5.67,3.18l5.67-3.18c0.91-0.51,2.02-0.51,2.93,0l5.68,3.18l5.67-3.18c0.91-0.51,2.02-0.51,2.93,0
		l5.68,3.18l5.68-3.18c0.91-0.51,2.02-0.51,2.93,0l7.15,4c1.45,0.81,1.96,2.64,1.15,4.08C161.07,341.45,160.05,342,159,342z"/>
</g>
<g>
	<path class="st6" d="M291,342c-0.5,0-1-0.12-1.46-0.38l-5.68-3.18l-5.68,3.18c-0.91,0.51-2.02,0.51-2.93,0l-5.68-3.18l-5.67,3.18
		c-0.91,0.51-2.02,0.51-2.93,0l-5.68-3.18l-5.67,3.18c-0.91,0.51-2.02,0.51-2.93,0l-7.14-4c-1.45-0.81-1.96-2.64-1.15-4.08
		c0.81-1.45,2.64-1.96,4.08-1.15l5.67,3.18l5.67-3.18c0.91-0.51,2.02-0.51,2.93,0l5.68,3.18l5.67-3.18c0.91-0.51,2.02-0.51,2.93,0
		l5.68,3.18l5.68-3.18c0.91-0.51,2.02-0.51,2.93,0l7.15,4c1.45,0.81,1.96,2.64,1.15,4.08C293.07,341.45,292.05,342,291,342z"/>
</g>
<g>
	<path class="st6" d="M270,258c-0.43,0-0.86-0.09-1.28-0.29l-11.46-5.4l-11.46,5.4c-0.81,0.38-1.75,0.38-2.56,0l-11.45-5.4
		l-11.45,5.4c-0.81,0.38-1.75,0.38-2.56,0l-11.45-5.4l-11.44,5.4c-0.81,0.38-1.75,0.38-2.56,0l-11.45-5.4l-11.45,5.4
		c-0.81,0.38-1.75,0.38-2.56,0l-11.44-5.4l-11.45,5.4c-0.81,0.38-1.75,0.38-2.56,0l-12.72-6c-1.5-0.71-2.14-2.5-1.43-3.99
		c0.71-1.5,2.5-2.14,3.99-1.43l11.45,5.4l11.45-5.4c0.81-0.38,1.75-0.38,2.56,0l11.44,5.4l11.45-5.4c0.81-0.38,1.75-0.38,2.56,0
		l11.45,5.4l11.44-5.4c0.81-0.38,1.75-0.38,2.56,0l11.45,5.4l11.45-5.4c0.81-0.38,1.75-0.38,2.56,0l11.45,5.4l11.46-5.4
		c0.81-0.38,1.75-0.38,2.56,0l12.73,6c1.5,0.71,2.14,2.49,1.44,3.99C272.2,257.36,271.12,258,270,258z"/>
</g>
<g>
	<path class="st1" d="M270,311c-0.33,0-0.66-0.08-0.97-0.25l-9.8-5.46l-9.8,5.46c-0.6,0.34-1.34,0.34-1.95,0l-9.8-5.46l-9.8,5.46
		c-0.61,0.34-1.34,0.34-1.95,0l-9.8-5.46l-9.79,5.46c-0.61,0.34-1.34,0.34-1.95,0l-9.79-5.46l-9.79,5.46
		c-0.61,0.34-1.34,0.34-1.95,0l-9.79-5.46l-9.8,5.46c-0.61,0.34-1.34,0.34-1.95,0l-9.79-5.46l-9.79,5.46
		c-0.61,0.34-1.34,0.34-1.95,0l-10.77-6c-0.96-0.54-1.31-1.76-0.77-2.72c0.54-0.96,1.76-1.31,2.72-0.77l9.79,5.46l9.79-5.46
		c0.61-0.34,1.34-0.34,1.95,0l9.79,5.46l9.8-5.46c0.61-0.34,1.34-0.34,1.95,0l9.79,5.46l9.79-5.46c0.61-0.34,1.34-0.34,1.95,0
		l9.79,5.46l9.79-5.46c0.6-0.34,1.34-0.34,1.95,0l9.8,5.46l9.8-5.46c0.61-0.34,1.34-0.34,1.95,0l9.8,5.46l9.8-5.46
		c0.6-0.34,1.34-0.34,1.95,0l10.78,6c0.96,0.54,1.31,1.75,0.77,2.72C271.38,310.63,270.7,311,270,311z"/>
</g>
<g>
	<g>
		
			<rect x="331" y="33.34" transform="matrix(0.7071 -0.7071 0.7071 0.7071 69.9563 246.8894)" class="st6" width="4" height="11.31"/>
	</g>
	<g>
		
			<rect x="327.34" y="37" transform="matrix(0.7071 -0.7071 0.7071 0.7071 69.9563 246.8894)" class="st6" width="11.31" height="4"/>
	</g>
</g>
<g>
	<circle class="st9" cx="289" cy="176" r="3"/>
</g>
<g>
	<circle class="st9" cx="112" cy="97" r="3"/>
</g>
<g>
	<circle class="st9" cx="257" cy="86" r="3"/>
</g>
<path class="st9" d="M281,196h-6v-6c0-1.66-1.34-3-3-3s-3,1.34-3,3v6h-6c-1.66,0-3,1.34-3,3s1.34,3,3,3h6v6c0,1.66,1.34,3,3,3
	s3-1.34,3-3v-6h6c1.66,0,3-1.34,3-3S282.66,196,281,196z"/>
<path class="st9" d="M145,83h-5v-5c0-1.66-1.34-3-3-3s-3,1.34-3,3v5h-5c-1.66,0-3,1.34-3,3s1.34,3,3,3h5v5c0,1.66,1.34,3,3,3
	s3-1.34,3-3v-5h5c1.66,0,3-1.34,3-3S146.66,83,145,83z"/>
<g>
	<circle class="st9" cx="253" cy="215" r="4"/>
</g>
<g>
	<circle class="st9" cx="124" cy="208" r="3"/>
</g>
<g>
	<circle class="st9" cx="119" cy="192" r="3"/>
</g>
<g>
	<path class="st9" d="M125.4,118.4c-2.65,0-4.8-2.15-4.8-4.8c0-0.88-0.72-1.6-1.6-1.6c-0.88,0-1.6,0.72-1.6,1.6
		c0,2.65-2.15,4.8-4.8,4.8c-0.88,0-1.6,0.72-1.6,1.6s0.72,1.6,1.6,1.6c2.65,0,4.8,2.15,4.8,4.8c0,0.88,0.72,1.6,1.6,1.6
		c0.88,0,1.6-0.72,1.6-1.6c0-2.65,2.15-4.8,4.8-4.8c0.88,0,1.6-0.72,1.6-1.6S126.28,118.4,125.4,118.4z"/>
</g>
<g>
	<path class="st9" d="M286.2,109.2c-2.98,0-5.4-2.42-5.4-5.4c0-0.99-0.81-1.8-1.8-1.8c-0.99,0-1.8,0.81-1.8,1.8
		c0,2.98-2.42,5.4-5.4,5.4c-0.99,0-1.8,0.81-1.8,1.8s0.81,1.8,1.8,1.8c2.98,0,5.4,2.42,5.4,5.4c0,0.99,0.81,1.8,1.8,1.8
		c0.99,0,1.8-0.81,1.8-1.8c0-2.98,2.42-5.4,5.4-5.4c0.99,0,1.8-0.81,1.8-1.8S287.19,109.2,286.2,109.2z"/>
</g>
<g>
	<path class="st9" d="M152.6,217.6c-2.32,0-4.2-1.88-4.2-4.2c0-0.77-0.63-1.4-1.4-1.4c-0.77,0-1.4,0.63-1.4,1.4
		c0,2.32-1.88,4.2-4.2,4.2c-0.77,0-1.4,0.63-1.4,1.4s0.63,1.4,1.4,1.4c2.32,0,4.2,1.88,4.2,4.2c0,0.77,0.63,1.4,1.4,1.4
		c0.77,0,1.4-0.63,1.4-1.4c0-2.32,1.88-4.2,4.2-4.2c0.77,0,1.4-0.63,1.4-1.4S153.37,217.6,152.6,217.6z"/>
</g>
</svg>
