<?xml version="1.0" encoding="utf-8"?>
<!-- Generator: Adobe Illustrator 26.0.1, SVG Export Plug-In . SVG Version: 6.00 Build 0)  -->
<svg version="1.1" id="CRO_x5F_Hub-Thank_x5F_You_x5F_Page"
	 xmlns="http://www.w3.org/2000/svg" xmlns:xlink="http://www.w3.org/1999/xlink" x="0px" y="0px" viewBox="0 0 400 400"
	 style="enable-background:new 0 0 400 400;" xml:space="preserve">
<style type="text/css">
	.st0{fill:none;}
	.st1{fill:#F2F1FF;}
	.st2{fill:#E5E2FF;}
	.st3{fill:#FFD886;}
	.st4{fill:#FFFFFF;}
	.st5{fill:#515979;}
	.st6{fill:#D2F4FD;}
	.st7{fill:#667683;}
	.st8{fill:#EF7D7D;}
	.st9{fill:#FFE8A0;}
	.st10{fill:#7DDF96;}
	.st11{fill:#6ADAF7;}
	.st12{fill:#3CC3F7;}
	.st13{fill:#F29797;}
</style>
<g>
	<rect y="0.42" class="st0" width="400" height="400"/>
</g>
<g>
	<g>
		<circle class="st1" cx="200" cy="200" r="145"/>
	</g>
	<g>
		<circle class="st2" cx="200" cy="200" r="120"/>
	</g>
</g>
<g>
	<circle class="st3" cx="355.5" cy="159" r="2.5"/>
</g>
<g>
	<path class="st3" d="M57.46,169.2c-2.98,0-5.4-2.42-5.4-5.4c0-0.99-0.81-1.8-1.8-1.8c-0.99,0-1.8,0.81-1.8,1.8
		c0,2.98-2.42,5.4-5.4,5.4c-0.99,0-1.8,0.81-1.8,1.8s0.81,1.8,1.8,1.8c2.98,0,5.4,2.42,5.4,5.4c0,0.99,0.81,1.8,1.8,1.8
		c0.99,0,1.8-0.81,1.8-1.8c0-2.98,2.42-5.4,5.4-5.4c0.99,0,1.8-0.81,1.8-1.8S58.45,169.2,57.46,169.2z"/>
</g>
<g>
	<circle class="st3" cx="59.04" cy="123.14" r="2.5"/>
</g>
<g>
	<circle class="st3" cx="194.95" cy="342.58" r="4.5"/>
</g>
<g>
	<path class="st3" d="M347.85,245.7c-2.98,0-5.4-2.42-5.4-5.4c0-0.99-0.81-1.8-1.8-1.8c-0.99,0-1.8,0.81-1.8,1.8
		c0,2.98-2.42,5.4-5.4,5.4c-0.99,0-1.8,0.81-1.8,1.8s0.81,1.8,1.8,1.8c2.98,0,5.4,2.42,5.4,5.4c0,0.99,0.81,1.8,1.8,1.8
		c0.99,0,1.8-0.81,1.8-1.8c0-2.98,2.42-5.4,5.4-5.4c0.99,0,1.8-0.81,1.8-1.8S348.84,245.7,347.85,245.7z"/>
</g>
<g>
	<circle class="st3" cx="368.5" cy="202.5" r="2.5"/>
</g>
<g>
	<circle class="st3" cx="239.45" cy="352.55" r="2.5"/>
</g>
<g>
	<circle class="st3" cx="324.53" cy="288.81" r="2.5"/>
</g>
<g>
	<path class="st3" d="M114.35,25.08c-2.65,0-4.8-2.15-4.8-4.8c0-0.88-0.72-1.6-1.6-1.6c-0.88,0-1.6,0.72-1.6,1.6
		c0,2.65-2.15,4.8-4.8,4.8c-0.88,0-1.6,0.72-1.6,1.6c0,0.88,0.72,1.6,1.6,1.6c2.65,0,4.8,2.15,4.8,4.8c0,0.88,0.72,1.6,1.6,1.6
		c0.88,0,1.6-0.72,1.6-1.6c0-2.65,2.15-4.8,4.8-4.8c0.88,0,1.6-0.72,1.6-1.6C115.95,25.8,115.24,25.08,114.35,25.08z"/>
</g>
<g>
	<circle class="st3" cx="63.87" cy="79.19" r="2.5"/>
</g>
<g>
	<circle class="st3" cx="52.76" cy="257" r="2.5"/>
</g>
<g>
	<circle class="st3" cx="28.62" cy="103" r="2.5"/>
</g>
<g>
	<circle class="st3" cx="174.95" cy="22.68" r="4"/>
</g>
<g>
	<g>
		<g>
			<path class="st4" d="M109.95,324c-7.17,0-13-5.83-13-13V85c0-7.17,5.83-13,13-13h180c7.17,0,13,5.83,13,13v226
				c0,7.17-5.83,13-13,13H109.95z"/>
		</g>
		<g>
			<path class="st5" d="M289.95,75c5.52,0,10,4.48,10,10v226c0,5.52-4.48,10-10,10h-180c-5.52,0-10-4.48-10-10V85
				c0-5.52,4.48-10,10-10H289.95 M289.95,69h-180c-8.82,0-16,7.18-16,16v226c0,8.82,7.18,16,16,16h180c8.82,0,16-7.18,16-16V85
				C305.95,76.18,298.78,69,289.95,69L289.95,69z"/>
		</g>
	</g>
	<g>
		<path class="st6" d="M289.95,321h-180c-5.52,0-10-4.48-10-10v-42h200v42C299.95,316.52,295.48,321,289.95,321z"/>
	</g>
	<g>
		<rect x="99.95" y="109" class="st6" width="200" height="72"/>
	</g>
	<g>
		<g>
			<path class="st7" d="M99.95,106c-1.66,0-3-1.34-3-3V85c0-7.17,5.83-13,13-13h180c7.17,0,13,5.83,13,13v18c0,1.66-1.34,3-3,3
				H99.95z"/>
		</g>
		<g>
			<path class="st5" d="M289.95,75c5.52,0,10,4.48,10,10v18h-200V85c0-5.52,4.48-10,10-10H289.95 M289.95,69h-180
				c-8.82,0-16,7.18-16,16v18c0,3.31,2.69,6,6,6h200c3.31,0,6-2.69,6-6V85C305.95,76.18,298.78,69,289.95,69L289.95,69z"/>
		</g>
	</g>
	<g>
		<g>
			<path class="st4" d="M189.95,96c-3.86,0-7-3.14-7-7s3.14-7,7-7h94c3.86,0,7,3.14,7,7s-3.14,7-7,7H189.95z"/>
		</g>
		<g>
			<g>
				<path class="st5" d="M283.95,85c2.21,0,4,1.79,4,4s-1.79,4-4,4h-94c-2.21,0-4-1.79-4-4s1.79-4,4-4H283.95 M283.95,79h-94
					c-5.51,0-10,4.49-10,10s4.49,10,10,10h94c5.51,0,10-4.49,10-10S289.47,79,283.95,79L283.95,79z"/>
			</g>
		</g>
	</g>
	<g>
		<g>
			<circle class="st8" cx="115.95" cy="89" r="7"/>
		</g>
		<g>
			<g>
				<path class="st5" d="M115.95,85c2.21,0,4,1.79,4,4c0,2.21-1.79,4-4,4s-4-1.79-4-4C111.95,86.79,113.74,85,115.95,85 M115.95,79
					c-5.51,0-10,4.49-10,10s4.49,10,10,10s10-4.49,10-10S121.47,79,115.95,79L115.95,79z"/>
			</g>
		</g>
	</g>
	<g>
		<g>
			<circle class="st9" cx="139.95" cy="89" r="7"/>
		</g>
		<g>
			<g>
				<path class="st5" d="M139.95,85c2.21,0,4,1.79,4,4c0,2.21-1.79,4-4,4s-4-1.79-4-4C135.95,86.79,137.74,85,139.95,85 M139.95,79
					c-5.51,0-10,4.49-10,10s4.49,10,10,10s10-4.49,10-10S145.47,79,139.95,79L139.95,79z"/>
			</g>
		</g>
	</g>
	<g>
		<g>
			<circle class="st10" cx="163.95" cy="89" r="7"/>
		</g>
		<g>
			<g>
				<path class="st5" d="M163.95,85c2.21,0,4,1.79,4,4c0,2.21-1.79,4-4,4s-4-1.79-4-4C159.95,86.79,161.74,85,163.95,85 M163.95,79
					c-5.51,0-10,4.49-10,10s4.49,10,10,10s10-4.49,10-10S169.47,79,163.95,79L163.95,79z"/>
			</g>
		</g>
	</g>
	<g>
		<rect x="99.95" y="181" class="st11" width="200" height="88"/>
	</g>
	<g>
		<path class="st12" d="M278.95,296h-88c-1.1,0-2-0.9-2-2v0c0-1.1,0.9-2,2-2h88c1.1,0,2,0.9,2,2v0
			C280.95,295.1,280.06,296,278.95,296z"/>
	</g>
	<g>
		<path class="st12" d="M264.95,304h-74c-1.1,0-2-0.9-2-2v0c0-1.1,0.9-2,2-2h74c1.1,0,2,0.9,2,2v0
			C266.95,303.1,266.06,304,264.95,304z"/>
	</g>
	<g>
		<path class="st12" d="M240.95,312h-50c-1.1,0-2-0.9-2-2v0c0-1.1,0.9-2,2-2h50c1.1,0,2,0.9,2,2v0
			C242.95,311.1,242.06,312,240.95,312z"/>
	</g>
	<g>
		<circle class="st6" cx="140.95" cy="214" r="21"/>
	</g>
	<g>
		<path class="st11" d="M149.95,275c-16.57,0-30,13.43-30,30c0,5.88,1.7,11.37,4.63,16h50.74c2.93-4.63,4.63-10.12,4.63-16
			C179.95,288.43,166.52,275,149.95,275z"/>
	</g>
	<g>
		<circle class="st6" cx="199.95" cy="214" r="21"/>
	</g>
	<g>
		<circle class="st6" cx="258.95" cy="214" r="21"/>
	</g>
	<g>
		<path class="st12" d="M157.95,245h-34c-1.1,0-2-0.9-2-2l0,0c0-1.1,0.9-2,2-2h34c1.1,0,2,0.9,2,2l0,0
			C159.95,244.1,159.06,245,157.95,245z"/>
	</g>
	<g>
		<path class="st12" d="M157.95,253h-34c-1.1,0-2-0.9-2-2l0,0c0-1.1,0.9-2,2-2h34c1.1,0,2,0.9,2,2l0,0
			C159.95,252.1,159.06,253,157.95,253z"/>
	</g>
	<g>
		<path class="st12" d="M147.95,261h-24c-1.1,0-2-0.9-2-2v0c0-1.1,0.9-2,2-2h24c1.1,0,2,0.9,2,2v0
			C149.95,260.1,149.06,261,147.95,261z"/>
	</g>
	<g>
		<path class="st12" d="M216.95,245h-34c-1.1,0-2-0.9-2-2l0,0c0-1.1,0.9-2,2-2h34c1.1,0,2,0.9,2,2l0,0
			C218.95,244.1,218.06,245,216.95,245z"/>
	</g>
	<g>
		<path class="st12" d="M216.95,253h-34c-1.1,0-2-0.9-2-2l0,0c0-1.1,0.9-2,2-2h34c1.1,0,2,0.9,2,2l0,0
			C218.95,252.1,218.06,253,216.95,253z"/>
	</g>
	<g>
		<path class="st12" d="M206.95,261h-24c-1.1,0-2-0.9-2-2v0c0-1.1,0.9-2,2-2h24c1.1,0,2,0.9,2,2v0
			C208.95,260.1,208.06,261,206.95,261z"/>
	</g>
	<g>
		<path class="st12" d="M275.95,245h-34c-1.1,0-2-0.9-2-2l0,0c0-1.1,0.9-2,2-2h34c1.1,0,2,0.9,2,2l0,0
			C277.95,244.1,277.06,245,275.95,245z"/>
	</g>
	<g>
		<path class="st12" d="M275.95,253h-34c-1.1,0-2-0.9-2-2l0,0c0-1.1,0.9-2,2-2h34c1.1,0,2,0.9,2,2l0,0
			C277.95,252.1,277.06,253,275.95,253z"/>
	</g>
	<g>
		<path class="st12" d="M265.95,261h-24c-1.1,0-2-0.9-2-2v0c0-1.1,0.9-2,2-2h24c1.1,0,2,0.9,2,2v0
			C267.95,260.1,267.06,261,265.95,261z"/>
	</g>
	<g>
		<g>
			<circle class="st5" cx="216.95" cy="134" r="8"/>
		</g>
		<g>
			<circle class="st4" cx="218.95" cy="134" r="2"/>
		</g>
	</g>
	<g>
		<g>
			<circle class="st5" cx="182.95" cy="134" r="8"/>
		</g>
		<g>
			<circle class="st4" cx="184.95" cy="134" r="2"/>
		</g>
	</g>
	<g>
		<path class="st5" d="M187.45,145c-0.32,0-0.64-0.08-0.94-0.24c-1.89-1.02-5.22-1.02-7.11,0c-0.98,0.52-2.19,0.16-2.71-0.82
			c-0.52-0.97-0.16-2.19,0.82-2.71c3.05-1.64,7.84-1.64,10.89,0c0.97,0.52,1.34,1.73,0.82,2.71C188.85,144.62,188.17,145,187.45,145
			z"/>
	</g>
	<g>
		<path class="st5" d="M221.45,145c-0.32,0-0.64-0.08-0.94-0.24c-1.89-1.02-5.21-1.02-7.11,0c-0.97,0.52-2.18,0.16-2.71-0.82
			c-0.52-0.97-0.16-2.19,0.82-2.71c3.05-1.64,7.84-1.64,10.89,0c0.97,0.52,1.34,1.73,0.82,2.71C222.85,144.62,222.16,145,221.45,145
			z"/>
	</g>
	<g>
		<path class="st5" d="M217.96,148L217.96,148h-36.01c-2.76,0-5,2.24-5,5c0,12.68,10.32,23,23,23c12.62,0,22.9-10.22,23-22.82
			c0-0.06,0-0.12,0-0.18C222.96,150.24,220.72,148,217.96,148z"/>
		<g>
			<g>
				<ellipse class="st8" cx="199.95" cy="165" rx="13.39" ry="6"/>
			</g>
		</g>
	</g>
	<g>
		<rect x="99.95" y="181" class="st12" width="200" height="4"/>
	</g>
	<g>
		<path class="st5" d="M209.98,118.95c3.68-3.18,9.58-3.76,13.56-0.78c1.82,1.34,4.84,4.86,1.96,6.44
			c-0.74,0.34-1.49,0.14-2.13-0.24c-1.05-0.54-1.86-1.11-2.74-1.41c-2.91-1.34-6.23-0.66-9.33-0.51
			C209.48,122.5,208.6,120.09,209.98,118.95L209.98,118.95z"/>
	</g>
	<g>
		<path class="st5" d="M187.98,122.28c-1.94-0.19-4.24-0.52-6.14-0.2c-2.14,0.25-3.69,1.26-5.66,2.33c-1,0.52-2.23,0.14-2.75-0.86
			c-0.3-0.57-0.3-1.22-0.06-1.77c1.83-4.71,7.87-6.81,12.48-5.23c1.95,0.66,6.22,2.41,4.28,5.04
			C189.58,122.26,188.75,122.33,187.98,122.28L187.98,122.28z"/>
	</g>
	<g>
		<circle class="st12" cx="162.95" cy="145.5" r="2.5"/>
	</g>
	<g>
		<circle class="st12" cx="168.45" cy="156.5" r="2.5"/>
	</g>
	<g>
		<circle class="st12" cx="157.45" cy="156.5" r="2.5"/>
	</g>
	<g>
		<circle class="st12" cx="236.95" cy="145.5" r="2.5"/>
	</g>
	<g>
		<circle class="st12" cx="242.45" cy="156.5" r="2.5"/>
	</g>
	<g>
		<circle class="st12" cx="231.45" cy="156.5" r="2.5"/>
	</g>
</g>
<g>
	<g>
		<g>
			<path class="st8" d="M90.89,382.64c-0.15,0-0.3-0.01-0.45-0.03c-0.68-0.1-16.75-2.58-34.39-9.96
				c-23.78-9.96-38.74-24.17-43.27-41.09c-5.19-19.35,6.34-39.31,25.69-44.5c3.07-0.82,6.23-1.24,9.38-1.24
				c6.83,0,13.6,1.99,19.4,5.65c4.7-9.01,12.81-15.55,22.73-18.21c3.09-0.83,6.26-1.25,9.42-1.25c16.4,0,30.82,11.08,35.07,26.94
				c4.54,16.92-1.32,36.71-16.93,57.22c-11.58,15.21-24.26,25.4-24.8,25.82C92.23,382.41,91.57,382.64,90.89,382.64z"/>
		</g>
		<g>
			<path class="st5" d="M99.42,275c14.72,0,28.19,9.82,32.18,24.71c10.48,39.12-40.7,79.92-40.7,79.92s-64.73-9.75-75.21-48.87
				c-4.76-17.78,5.79-36.06,23.57-40.82c2.88-0.77,5.76-1.14,8.61-1.14c7.58,0,14.82,2.62,20.62,7.17
				c3.77-9.41,11.74-17.01,22.29-19.84C93.66,275.37,96.56,275,99.42,275 M99.42,269c-3.43,0-6.86,0.45-10.2,1.35
				c-9.72,2.6-17.84,8.66-23.06,17.01c-5.63-2.96-11.93-4.55-18.29-4.55c-3.41,0-6.83,0.45-10.16,1.34
				c-10.15,2.72-18.63,9.23-23.88,18.33c-5.25,9.1-6.65,19.7-3.93,29.85C21.26,374.75,87.2,385.15,90,385.57
				c0.3,0.04,0.6,0.07,0.89,0.07c1.35,0,2.67-0.46,3.74-1.31c2.22-1.77,54.12-43.74,42.76-86.17C132.79,280.99,117.17,269,99.42,269
				L99.42,269z"/>
		</g>
	</g>
	<g>
		<g>
			<path class="st13" d="M24.7,333.53c-4.76-17.78,5.79-36.06,23.57-40.82c4.61-1.23,9.24-1.43,13.67-0.75
				c-6.85-3.21-14.81-4.12-22.69-2.01c-17.78,4.76-28.34,23.04-23.57,40.82c7.25,27.07,40.47,40.07,60.25,45.51
				C56.36,369.67,30.94,356.8,24.7,333.53z"/>
		</g>
	</g>
	<g>
		<g>
			<path class="st5" d="M97.07,333.89c-0.27-1.02-0.94-1.9-1.86-2.43c-0.61-0.35-1.3-0.54-2-0.54c-0.35,0-0.69,0.05-1.04,0.14
				l-27.05,7.25c-1.02,0.27-1.9,0.95-2.43,1.86c-0.53,0.92-0.67,2.01-0.4,3.04c2.11,7.86,9.25,13.34,17.38,13.34
				c1.57,0,3.14-0.21,4.67-0.62C93.93,353.37,99.64,343.48,97.07,333.89z"/>
			<g>
				<g>
					
						<ellipse transform="matrix(0.9659 -0.2588 0.2588 0.9659 -87.1586 33.0919)" class="st8" cx="82.1" cy="347.56" rx="10.41" ry="4.67"/>
				</g>
			</g>
		</g>
		<g>
			<g>
				<g>
					<path class="st5" d="M80.12,308.44c2.39-3.41,6.98-5.14,11.01-3.82c2.09,0.63,5.45,3.05,3.24,5.23
						c-0.56,0.5-1.29,0.52-1.98,0.44c-2.57-0.33-4.55-0.28-7.03,0.44c-1.1,0.27-2.26,0.75-3.39,0.81
						C80.32,311.79,79.13,309.76,80.12,308.44L80.12,308.44z"/>
				</g>
				<g>
					<path class="st5" d="M63.48,316.61c-2.32,0.65-4.86,1.1-6.89,2.41c-0.74,0.39-1.6,1.16-2.49,1.71
						c-1.43,1.03-3.51-0.37-3.14-2.06c0.64-4.3,5.31-7.1,9.42-6.88c1.96,0.08,5.9,0.74,4.82,3.54
						C64.91,316.06,64.14,316.35,63.48,316.61L63.48,316.61z"/>
				</g>
				<g>
					<path class="st5" d="M59.21,334.11c-1.1,0-2.11-0.74-2.41-1.85c-1.07-4,1.31-8.12,5.3-9.19c1.93-0.52,3.96-0.25,5.69,0.75
						c1.74,1,2.98,2.62,3.49,4.55c0.36,1.33-0.43,2.7-1.77,3.06c-1.33,0.36-2.7-0.43-3.06-1.77c-0.17-0.64-0.59-1.18-1.16-1.52
						c-0.58-0.33-1.25-0.42-1.9-0.25c-1.33,0.36-2.12,1.73-1.77,3.06c0.36,1.33-0.43,2.71-1.77,3.06
						C59.64,334.08,59.43,334.11,59.21,334.11z"/>
				</g>
				<g>
					<path class="st5" d="M84.28,327.39c-1.1,0-2.11-0.74-2.41-1.85c-1.07-3.99,1.31-8.12,5.3-9.19c1.93-0.52,3.96-0.25,5.69,0.75
						s2.98,2.62,3.49,4.55c0.36,1.33-0.43,2.7-1.77,3.06c-1.34,0.35-2.7-0.43-3.06-1.77c-0.17-0.64-0.59-1.18-1.16-1.52
						c-0.58-0.33-1.25-0.42-1.9-0.25c-1.33,0.36-2.12,1.73-1.77,3.06c0.36,1.33-0.43,2.7-1.77,3.06
						C84.71,327.37,84.5,327.39,84.28,327.39z"/>
				</g>
			</g>
		</g>
	</g>
</g>
<g>
	<g>
		<g>
			<path class="st8" d="M302.88,130.32c-0.67,0-1.34-0.23-1.87-0.65c-0.53-0.43-13.22-10.61-24.8-25.82
				c-15.61-20.51-21.47-40.3-16.93-57.22c4.25-15.86,18.67-26.94,35.07-26.94c3.17,0,6.34,0.42,9.43,1.25
				c9.92,2.66,18.03,9.21,22.73,18.21c5.8-3.66,12.57-5.65,19.4-5.65c3.15,0,6.31,0.42,9.38,1.24c9.38,2.51,17.21,8.52,22.06,16.93
				c4.85,8.4,6.14,18.2,3.63,27.57c-4.53,16.92-19.5,31.13-43.27,41.09c-17.63,7.39-33.71,9.86-34.39,9.96
				C303.18,130.31,303.03,130.32,302.88,130.32z"/>
		</g>
		<g>
			<path class="st5" d="M294.36,22.68c2.86,0,5.76,0.37,8.65,1.14c10.55,2.83,18.52,10.43,22.29,19.84
				c5.8-4.56,13.04-7.17,20.62-7.17c2.84,0,5.73,0.37,8.61,1.14c17.78,4.76,28.34,23.04,23.57,40.82
				c-10.48,39.12-75.21,48.87-75.21,48.87s-51.18-40.81-40.7-79.92C266.17,32.5,279.64,22.68,294.36,22.68 M294.36,16.68
				C294.36,16.68,294.36,16.68,294.36,16.68c-17.76,0-33.37,11.99-37.97,29.16c-11.37,42.43,40.54,84.4,42.76,86.17
				c1.07,0.85,2.39,1.31,3.74,1.31c0.3,0,0.6-0.02,0.89-0.07c2.8-0.42,68.74-10.82,80.11-53.25c2.72-10.15,1.32-20.75-3.93-29.85
				c-5.25-9.1-13.74-15.61-23.88-18.33c-3.33-0.89-6.74-1.34-10.16-1.34c-6.36,0-12.66,1.59-18.29,4.55
				c-5.22-8.35-13.34-14.4-23.06-17.01C301.22,17.13,297.79,16.68,294.36,16.68L294.36,16.68z"/>
		</g>
	</g>
	<g>
		<g>
			<path class="st13" d="M268.61,54.3c4.76-17.78,23.04-28.34,40.82-23.57c4.61,1.23,8.72,3.38,12.21,6.19
				c-4.33-6.2-10.76-10.98-18.64-13.09c-17.78-4.76-36.06,5.79-40.82,23.57c-7.25,27.07,15.01,54.94,29.42,69.54
				C277.96,101.42,262.38,77.56,268.61,54.3z"/>
		</g>
	</g>
	<g>
		<g>
			<path class="st5" d="M328.28,85.89l-27.05-7.25c-0.34-0.09-0.69-0.14-1.04-0.14c-0.7,0-1.39,0.18-2,0.54
				c-0.92,0.53-1.59,1.4-1.86,2.43c-2.57,9.59,3.14,19.48,12.73,22.05c1.53,0.41,3.1,0.62,4.67,0.62c8.13,0,15.27-5.49,17.38-13.34
				C331.68,88.65,330.41,86.46,328.28,85.89z"/>
			<g>
				<g>
					
						<ellipse transform="matrix(0.2588 -0.9659 0.9659 0.2588 138.8292 371.2147)" class="st8" cx="311.3" cy="95.14" rx="4.67" ry="10.41"/>
				</g>
			</g>
		</g>
		<g>
			<g>
				<g>
					<path class="st5" d="M329.15,60.27c3.78-1.75,8.62-0.96,11.45,2.2c1.49,1.59,3.19,5.37,0.19,6.15
						c-0.74,0.15-1.38-0.19-1.94-0.61c-2.06-1.57-3.81-2.52-6.3-3.13c-1.09-0.32-2.34-0.48-3.34-0.99
						C327.65,63.28,327.64,60.92,329.15,60.27L329.15,60.27z"/>
				</g>
				<g>
					<path class="st5" d="M310.66,59.03c-2.34-0.6-4.76-1.48-7.17-1.36c-0.84-0.03-1.96,0.2-3.01,0.23
						c-1.75,0.17-2.85-2.07-1.69-3.36c2.71-3.41,8.15-3.49,11.6-1.25c1.66,1.05,4.74,3.59,2.4,5.48
						C312.17,59.26,311.36,59.13,310.66,59.03L310.66,59.03z"/>
				</g>
				<g>
					<path class="st5" d="M309.12,74.97c-0.21,0-0.43-0.03-0.65-0.09c-1.33-0.36-2.13-1.73-1.77-3.06c0.36-1.33-0.44-2.71-1.77-3.06
						c-0.65-0.18-1.32-0.08-1.9,0.25c-0.58,0.33-0.99,0.87-1.17,1.52c-0.36,1.33-1.73,2.12-3.06,1.77
						c-1.33-0.36-2.12-1.73-1.77-3.06c0.52-1.94,1.76-3.55,3.5-4.55c1.74-1,3.76-1.27,5.69-0.75c3.99,1.07,6.37,5.19,5.3,9.18
						C311.24,74.24,310.22,74.97,309.12,74.97z"/>
				</g>
				<g>
					<path class="st5" d="M334.19,81.69c-0.21,0-0.43-0.03-0.65-0.09c-1.33-0.36-2.12-1.73-1.77-3.06c0.17-0.65,0.08-1.32-0.25-1.9
						c-0.33-0.58-0.87-0.99-1.52-1.16c-0.65-0.18-1.32-0.08-1.9,0.25c-0.58,0.33-0.99,0.87-1.16,1.52
						c-0.36,1.33-1.73,2.13-3.06,1.77c-1.33-0.36-2.13-1.73-1.77-3.06c0.52-1.94,1.76-3.55,3.49-4.55c1.74-1,3.76-1.27,5.69-0.75
						c1.93,0.52,3.55,1.76,4.55,3.49c1,1.73,1.27,3.76,0.75,5.69C336.3,80.96,335.29,81.69,334.19,81.69z"/>
				</g>
			</g>
		</g>
	</g>
</g>
</svg>
