<?xml version="1.0" encoding="utf-8"?>
<!-- Generator: Adobe Illustrator 26.5.0, SVG Export Plug-In . SVG Version: 6.00 Build 0)  -->
<svg version="1.1" id="hero-image-mobile" xmlns="http://www.w3.org/2000/svg" xmlns:xlink="http://www.w3.org/1999/xlink" x="0px"
	 y="0px" viewBox="0 0 400 400" style="enable-background:new 0 0 400 400;" xml:space="preserve">
<style type="text/css">
	.st0{fill:#7DDF96;}
	.st1{fill:#515979;}
	.st2{fill:#00C853;}
	.st3{fill:#00AF55;}
	.st4{fill:#9E8271;}
	.st5{fill:#876969;}
	.st6{fill:#3CB48C;}
	.st7{fill:#FFFFFF;}
	.st8{fill:#FFD886;}
	.st9{fill:#EF7D7D;}
	.st10{fill:#FFC369;}
	.st11{fill:#75A5C3;}
	.st12{fill:#ACC9DB;}
	.st13{fill:none;}
	.st14{fill:#515A78;}
	.st15{fill:#D26E78;}
	.st16{fill:#F89D81;}
</style>
<path class="st0" d="M315.16,165.96c-0.59,0-1.18-0.17-1.68-0.51l-21.73-14.65c-1.22-0.82-1.67-2.42-1.04-3.75
	c7.88-16.91,18.32-32.41,31.04-46.06c0.58-0.63,1.39-0.95,2.2-0.95c0.58,0,1.16,0.17,1.68,0.51l21.73,14.65
	c0.73,0.49,1.2,1.27,1.3,2.15s-0.19,1.74-0.79,2.39c-12.29,13.19-22.38,28.16-29.99,44.5c-0.37,0.8-1.07,1.39-1.92,1.62
	C315.7,165.92,315.43,165.96,315.16,165.96z"/>
<path class="st1" d="M323.94,103.03c7.24,4.88,14.49,9.77,21.73,14.65c-12.48,13.4-22.78,28.68-30.52,45.28
	c-7.25-4.88-14.49-9.77-21.73-14.65C301.16,131.71,311.46,116.43,323.94,103.03 M323.95,97.03c-1.62,0-3.22,0.65-4.39,1.91
	c-12.93,13.88-23.55,29.64-31.57,46.84c-1.25,2.68-0.36,5.86,2.09,7.51l21.73,14.65c1,0.67,2.17,1.02,3.35,1.02
	c0.54,0,1.08-0.07,1.61-0.22c1.69-0.47,3.09-1.66,3.83-3.25c7.48-16.05,17.39-30.77,29.47-43.72c1.2-1.28,1.77-3.03,1.57-4.77
	c-0.2-1.74-1.15-3.31-2.61-4.29l-18.33-12.36l-3.4-2.29C326.27,97.37,325.11,97.03,323.95,97.03L323.95,97.03z"/>
<path class="st2" d="M321.56,109.36c-3.49,4.04-6.78,8.23-9.88,12.57c3.53-1.43,8.16-0.9,11.97,1.67c3.82,2.57,5.81,6.51,5.66,10.22
	c3.1-4.33,6.39-8.53,9.88-12.57c-1.97-1.33-2.31-3.88-0.7-5.65c-3.5-2.36-6.99-4.71-10.49-7.07
	C326.39,110.3,323.53,110.69,321.56,109.36z M331.42,119.81c-1.22,1.47-3.57,1.75-5.29,0.6c-1.71-1.15-2.13-3.3-0.91-4.77
	c1.22-1.47,3.63-1.7,5.34-0.55C332.27,116.24,332.64,118.34,331.42,119.81z"/>
<path class="st2" d="M318,281c-11.24,0-22-4.41-30-12.21c-8,7.8-18.76,12.21-30,12.21c-14.01,0-27.06-6.78-35.13-18.2
	C211.12,259.25,203,248.39,203,236c0-1.22,0.08-2.46,0.25-3.69c-4.75-6.52-7.25-14.2-7.25-22.31c0-9.92,3.93-19.5,10.85-26.57
	c-0.56-2.44-0.85-4.93-0.85-7.43c0-13.99,9.03-26.59,22.14-31.16C234.68,128.72,250.51,118,268,118c9.09,0,17.72,2.78,25.05,8.06
	c4.73-2.03,9.75-3.06,14.95-3.06c14.09,0,27.11,7.93,33.64,20.33C357.93,145.6,370,159.36,370,176c0,3.06-0.42,6.08-1.25,9.01
	C375.92,192.13,380,201.86,380,212c0,9.05-3.2,17.73-9.04,24.6c0.02,0.47,0.04,0.94,0.04,1.4c0,12.03-7.85,22.82-19.2,26.58
	C343.59,275.03,331.32,281,318,281z"/>
<path class="st1" d="M268,121c9.31,0,17.88,3.19,24.67,8.53c4.63-2.26,9.83-3.53,15.33-3.53c14.01,0,26.09,8.23,31.68,20.13
	C354.99,147.48,367,160.34,367,176c0,3.47-0.6,6.8-1.68,9.91C372.49,192.32,377,201.63,377,212c0,9.08-3.45,17.34-9.12,23.56
	c0.08,0.8,0.12,1.61,0.12,2.44c0,11.38-7.6,20.97-18,24c-7.3,9.72-18.91,16-32,16c-11.95,0-22.67-5.25-30-13.56
	c-7.33,8.31-18.05,13.56-30,13.56c-13.87,0-26.1-7.07-33.27-17.79C213.96,257.42,206,247.64,206,236c0-1.53,0.14-3.03,0.41-4.48
	c-4.64-5.94-7.41-13.4-7.41-21.52c0-10.13,4.31-19.25,11.19-25.64c-0.77-2.65-1.19-5.46-1.19-8.36c0-13.59,9.04-25.06,21.43-28.75
	C236.03,131.93,250.74,121,268,121 M268,115c-18.26,0-34.83,10.93-42.12,27.48c-6.14,2.41-11.6,6.53-15.6,11.81
	c-4.77,6.29-7.28,13.8-7.28,21.71c0,2.18,0.2,4.36,0.59,6.51C196.82,190.01,193,199.84,193,210c0,8.35,2.46,16.29,7.14,23.11
	c-0.09,0.97-0.14,1.93-0.14,2.89c0,13.37,8.53,25.13,21.02,29.36C229.69,277.07,243.35,284,258,284c11.07,0,21.7-4,30-11.14
	C296.3,280,306.93,284,318,284c13.96,0,26.82-6.12,35.6-16.87c12.11-4.41,20.4-16.11,20.4-29.13c0-0.12,0-0.24,0-0.36
	c5.82-7.26,9-16.27,9-25.64c0-10.36-3.94-20.32-10.93-27.86c0.62-2.66,0.93-5.39,0.93-8.14c0-9.05-3.37-17.71-9.5-24.36
	c-5.32-5.78-12.3-9.62-19.93-11.03C336.31,127.99,322.69,120,308,120c-5.05,0-9.93,0.9-14.58,2.67C285.89,117.64,277.17,115,268,115
	L268,115z"/>
<path class="st3" d="M368,238c0-0.82-0.04-1.64-0.12-2.44c-3.01,4.91-12.77,14.19-20.72,15.9c-7.88,8.79-41.33,13.76-59.16-3.85
	c-15.72,16.8-51.74,12.03-59.51,0.41c-8.43-0.47-17.71-6.15-22.08-16.51c-0.26,1.45-0.41,2.95-0.41,4.48
	c0,11.64,7.96,21.42,18.73,24.21C231.9,270.93,244.13,278,258,278c11.95,0,22.67-5.25,30-13.56c7.33,8.31,18.05,13.56,30,13.56
	c13.09,0,24.7-6.29,32-16C360.4,258.97,368,249.38,368,238z"/>
<path class="st4" d="M288,235c-4.56,6.07-11.82,10-20,10c-0.42,0-0.84-0.01-1.26-0.03c-2.19,41.63-6.31,76.79-15.38,93.61
	c-0.5,0.93-0.48,2.05,0.06,2.96c0.54,0.91,1.52,1.46,2.58,1.46h68c1.06,0,2.03-0.56,2.58-1.46c0.54-0.91,0.57-2.03,0.06-2.96
	c-9.07-16.82-13.18-51.98-15.38-93.61c-0.42,0.02-0.84,0.03-1.26,0.03C299.82,245,292.56,241.07,288,235z"/>
<path class="st1" d="M312.24,244.63c-1.38,0.24-2.79,0.37-4.24,0.37c-0.59,0-1.18-0.03-1.77-0.07c2.21,42.39,6.38,77.66,15.77,95.07
	h-68c9.39-17.41,13.56-52.68,15.77-95.07c-0.58,0.04-1.17,0.07-1.77,0.07c-1.45,0-2.86-0.13-4.24-0.37
	c-2.16,41.31-6.19,76.11-15.04,92.52c-1,1.86-0.95,4.11,0.13,5.92c1.08,1.81,3.04,2.92,5.15,2.92h68c2.11,0,4.07-1.11,5.15-2.92
	c1.08-1.81,1.13-4.06,0.13-5.92C318.43,320.74,314.4,285.95,312.24,244.63z"/>
<path class="st5" d="M288,235c-4.23,5.63-10.78,9.41-18.24,9.93c-0.27,5.12-0.56,10.15-0.89,15.04c7.82-0.27,14.73-4.12,19.13-9.97
	c4.4,5.85,11.31,9.7,19.13,9.97c-0.33-4.89-0.62-9.92-0.89-15.04C298.78,244.41,292.23,240.63,288,235z"/>
<path class="st1" d="M308,248c-7.65,0-14.76-3.02-20-8.4c-5.24,5.38-12.35,8.4-20,8.4c-5.09,0-10.07-1.38-14.41-3.99
	c-1.42-0.85-1.88-2.7-1.03-4.12c0.85-1.42,2.7-1.88,4.12-1.03C260.09,240.92,264,242,268,242c6.98,0,13.4-3.21,17.6-8.8
	c0.57-0.75,1.46-1.2,2.4-1.2s1.83,0.44,2.4,1.2c4.2,5.59,10.62,8.8,17.6,8.8c3.87,0,7.67-1.02,11-2.94c1.43-0.83,3.27-0.34,4.1,1.09
	c0.83,1.43,0.34,3.27-1.09,4.1C317.77,246.7,312.92,248,308,248z"/>
<path class="st0" d="M230.43,166.25C236.03,150.93,250.74,140,268,140c9.31,0,17.88,3.19,24.67,8.53c4.63-2.26,9.83-3.53,15.33-3.53
	c14.01,0,26.09,8.23,31.68,20.13c15.31,1.36,21.69,6.78,25.63,20.78c1.09-3.1,1.68-6.43,1.68-9.91c0-15.66-12.01-28.52-27.32-29.87
	C334.09,134.23,322.01,126,308,126c-5.5,0-10.7,1.27-15.33,3.53c-6.8-5.34-15.36-8.53-24.67-8.53c-17.26,0-31.97,10.93-37.57,26.25
	C218.04,150.94,209,162.41,209,176c0,2.9,0.42,5.7,1.19,8.36C213.24,172.96,218.37,168.89,230.43,166.25z"/>
<path class="st6" d="M246,343v-3c0-4.96,4.04-9,9-9s9,4.04,9,9v3H246z"/>
<path class="st1" d="M255,334c3.31,0,6,2.69,6,6h-12C249,336.69,251.69,334,255,334 M255,328c-6.62,0-12,5.38-12,12v6h6h12h6v-6
	C267,333.38,261.62,328,255,328L255,328z"/>
<path class="st6" d="M228,343v-3c0-4.96,4.04-9,9-9s9,4.04,9,9v3H228z"/>
<path class="st1" d="M237,334c3.31,0,6,2.69,6,6h-12C231,336.69,233.69,334,237,334 M237,328c-6.62,0-12,5.38-12,12v6h6h12h6v-6
	C249,333.38,243.62,328,237,328L237,328z"/>
<path class="st6" d="M264,343v-3c0-4.96,4.04-9,9-9s9,4.04,9,9v3H264z"/>
<path class="st1" d="M273,334c3.31,0,6,2.69,6,6h-12C267,336.69,269.69,334,273,334 M273,328c-6.62,0-12,5.38-12,12v6h6h12h6v-6
	C285,333.38,279.62,328,273,328L273,328z"/>
<path class="st6" d="M282,343v-3c0-4.96,4.04-9,9-9s9,4.04,9,9v3H282z"/>
<path class="st1" d="M291,334c3.31,0,6,2.69,6,6h-12C285,336.69,287.69,334,291,334 M291,328c-6.62,0-12,5.38-12,12v6h6h12h6v-6
	C303,333.38,297.62,328,291,328L291,328z"/>
<path class="st6" d="M300,343v-3c0-4.96,4.04-9,9-9s9,4.04,9,9v3H300z"/>
<path class="st1" d="M309,334c3.31,0,6,2.69,6,6h-12C303,336.69,305.69,334,309,334 M309,328c-6.62,0-12,5.38-12,12v6h6h12h6v-6
	C321,333.38,315.62,328,309,328L309,328z"/>
<path class="st6" d="M318,343v-3c0-4.96,4.04-9,9-9s9,4.04,9,9v3H318z"/>
<path class="st1" d="M327,334c3.31,0,6,2.69,6,6h-12C321,336.69,323.69,334,327,334 M327,328c-6.62,0-12,5.38-12,12v6h6h12h6v-6
	C339,333.38,333.62,328,327,328L327,328z"/>
<path class="st6" d="M336,343v-3c0-4.96,4.04-9,9-9s9,4.04,9,9v3H336z"/>
<path class="st1" d="M345,334c3.31,0,6,2.69,6,6h-12C339,336.69,341.69,334,345,334 M345,328c-6.62,0-12,5.38-12,12v6h6h12h6v-6
	C357,333.38,351.62,328,345,328L345,328z"/>
<path class="st1" d="M348,346H228c-1.66,0-3-1.34-3-3s1.34-3,3-3h120c1.66,0,3,1.34,3,3S349.66,346,348,346z"/>
<path class="st0" d="M348.95,161.65c-0.1-0.87-0.58-1.66-1.3-2.15l-21.73-14.65c-0.51-0.34-1.1-0.51-1.68-0.51
	c-0.81,0-1.61,0.33-2.2,0.96c-7.44,7.99-14.1,16.61-19.93,25.78c5.63,4.19,9.06,10.42,9.87,17.04c5.57-2.37,11.94-2.7,17.89-0.67
	c5.4-8.3,11.51-16.13,18.3-23.42C348.77,163.39,349.05,162.52,348.95,161.65z"/>
<path class="st1" d="M351.93,161.3c-0.2-1.74-1.15-3.31-2.61-4.29l-21.73-14.65c-1.02-0.69-2.19-1.02-3.35-1.02
	c-1.62,0-3.22,0.65-4.39,1.91c-7.56,8.11-14.32,16.87-20.24,26.18c0.02,0.01,0.04,0.02,0.06,0.03c1.77,1.02,3.36,2.22,4.77,3.57
	c5.78-9.14,12.41-17.75,19.81-25.69c7.24,4.88,14.49,9.77,21.73,14.65c-7.11,7.64-13.52,15.88-19.14,24.64
	c1.99,0.41,3.96,1.07,5.86,1.99c5.23-7.98,11.13-15.52,17.67-22.54C351.56,164.79,352.13,163.05,351.93,161.3z"/>
<path class="st2" d="M321.85,153.67c-3.49,4.04-6.78,8.23-9.88,12.57c3.53-1.43,8.16-0.9,11.97,1.67c3.82,2.57,5.81,6.51,5.66,10.22
	c3.1-4.33,6.39-8.53,9.88-12.57c-1.97-1.33-2.31-3.88-0.7-5.65c-3.5-2.36-6.99-4.71-10.49-7.07
	C326.69,154.6,323.83,155,321.85,153.67z M331.71,164.12c-1.22,1.47-3.57,1.75-5.29,0.6c-1.71-1.15-2.13-3.3-0.91-4.77
	c1.22-1.47,3.63-1.7,5.34-0.55C332.57,160.54,332.94,162.65,331.71,164.12z"/>
<path class="st2" d="M320.56,175.61c-0.54-0.37-1.09,0.04-1.92,1.04c-1.47,1.72-2.81,3-5.12,1.6c-1.42-0.96-1.82-2.55-0.96-4.43
	c-0.35-0.23-0.7-0.47-1.05-0.7c0.45-0.68,0.91-1.37,1.38-2.04c0.35,0.23,0.7,0.47,1.05,0.7c0.94-0.97,2.07-1.34,3.38-1.13
	c0.06,0,0.1,0.01,0.15,0.02c0.13,0.02,0.26,0.04,0.39,0.07c-0.16,0.85-0.32,1.71-0.48,2.57c-0.18-0.02-0.36-0.04-0.53-0.06
	c-0.72-0.09-1.22,0.09-1.72,0.84c-0.65,0.97-0.72,1.52-0.13,1.91c0.5,0.34,1.07-0.11,1.89-1.09c1.4-1.67,2.96-3,5.17-1.51
	c1.46,0.98,1.79,2.59,0.95,4.48c0.36,0.24,0.72,0.49,1.09,0.73c-0.46,0.68-0.92,1.36-1.38,2.04c-0.35-0.24-0.71-0.48-1.06-0.71
	c-1.09,1.2-2.33,1.64-3.71,1.32c-0.17-0.04-0.34-0.08-0.5-0.12c0.2-0.85,0.41-1.71,0.62-2.55c0.17,0.03,0.33,0.07,0.5,0.1
	c0.7,0.16,1.31-0.17,1.83-0.95C321.07,176.7,321.14,176,320.56,175.61z"/>
<path class="st1" d="M343.67,201.97c-1.06,0-2.08-0.56-2.63-1.55c-1.93-3.48-4.77-6.37-8.24-8.37c-6.05-3.49-13.21-3.92-19.64-1.18
	c-0.87,0.37-1.86,0.31-2.68-0.16s-1.36-1.3-1.48-2.24c-0.84-6.95-4.79-12.93-10.84-16.42c-3.35-1.93-7.14-2.95-10.98-2.95
	c-0.01,0-0.01,0-0.02,0c-1.66,0-3-1.34-3-3c0-1.66,1.34-3,3-3c0.01,0,0.02,0,0.03,0c4.89,0,9.72,1.3,13.98,3.76
	c6.62,3.82,11.27,10,13.12,17.27c7.22-2.04,14.9-1.1,21.52,2.73c4.41,2.54,8.03,6.23,10.49,10.66c0.8,1.45,0.28,3.27-1.17,4.08
	C344.66,201.85,344.16,201.97,343.67,201.97z"/>
<path class="st1" d="M293.5,283.72c-0.56,0-1.09-0.31-1.35-0.85c-0.36-0.75-0.05-1.64,0.7-2c1.79-0.87,4.51-0.87,6.3,0
	c0.75,0.36,1.06,1.26,0.7,2s-1.26,1.06-2,0.7c-0.97-0.47-2.73-0.47-3.7,0C293.94,283.68,293.72,283.72,293.5,283.72z"/>
<circle class="st1" cx="296" cy="276.52" r="5"/>
<circle class="st7" cx="297.25" cy="276.52" r="1.25"/>
<path class="st1" d="M277.5,283.72c-0.56,0-1.09-0.31-1.35-0.85c-0.36-0.75-0.05-1.64,0.7-2c1.79-0.87,4.51-0.87,6.3,0
	c0.75,0.36,1.06,1.26,0.7,2c-0.36,0.75-1.26,1.06-2,0.7c-0.97-0.47-2.73-0.47-3.7,0C277.94,283.68,277.72,283.72,277.5,283.72z"/>
<circle class="st1" cx="280" cy="276.52" r="5"/>
<circle class="st7" cx="281.25" cy="276.52" r="1.25"/>
<path class="st1" d="M293.21,265.68c3.26-2.3,8.41-1.59,10.53,1.87c0.77,1.21-0.35,2.87-1.75,2.62c-0.8-0.09-1.62-0.32-2.28-0.45
	c-1.96-0.53-4.07-0.53-6.02-1.1C292.39,268.29,292.09,266.41,293.21,265.68L293.21,265.68z"/>
<path class="st1" d="M281.65,268.81c-2.49,0.39-4.78,0.74-7.27,1.31c-1.05,0.29-2.2-0.3-2.35-1.43c-0.1-1.43,1.23-2.5,2.32-3.22
	c2.58-1.55,5.92-1.54,8.44,0.21c0.75,0.53,0.93,1.56,0.4,2.31C282.86,268.52,282.2,268.66,281.65,268.81L281.65,268.81z"/>
<path class="st1" d="M288,294.71c-4.38,0-8.77-1.09-13.12-3.26c-1.23-0.62-1.74-2.12-1.12-3.35c0.62-1.24,2.12-1.74,3.35-1.12
	c7.32,3.66,14.44,3.66,21.76,0c1.24-0.61,2.74-0.12,3.35,1.12c0.62,1.24,0.12,2.74-1.12,3.35
	C296.77,293.62,292.38,294.71,288,294.71z"/>
<path class="st1" d="M284.26,297.39c2.43,0.63,5.05,0.65,7.48,0c1.29-0.4,2.26,1.3,1.29,2.21c-0.77,0.82-1.77,1.67-2.81,1.93
	c-2.19,0.67-4.71,0.41-6.47-1.19c0,0-0.76-0.73-0.76-0.73C281.99,298.69,282.98,297,284.26,297.39L284.26,297.39z"/>
<line class="st2" x1="223" y1="343" x2="359" y2="343"/>
<path class="st1" d="M359,346H223c-1.66,0-3-1.34-3-3s1.34-3,3-3h136c1.66,0,3,1.34,3,3S360.66,346,359,346z"/>
<path class="st8" d="M390,95h-6v-6c0-1.66-1.34-3-3-3s-3,1.34-3,3v6h-6c-1.66,0-3,1.34-3,3s1.34,3,3,3h6v6c0,1.66,1.34,3,3,3
	s3-1.34,3-3v-6h6c1.66,0,3-1.34,3-3S391.66,95,390,95z"/>
<circle class="st8" cx="348" cy="95" r="3"/>
<path class="st8" d="M262.2,34.2c-2.98,0-5.4-2.42-5.4-5.4c0-0.99-0.81-1.8-1.8-1.8s-1.8,0.81-1.8,1.8c0,2.98-2.42,5.4-5.4,5.4
	c-0.99,0-1.8,0.81-1.8,1.8s0.81,1.8,1.8,1.8c2.98,0,5.4,2.42,5.4,5.4c0,0.99,0.81,1.8,1.8,1.8s1.8-0.81,1.8-1.8
	c0-2.98,2.42-5.4,5.4-5.4c0.99,0,1.8-0.81,1.8-1.8S263.19,34.2,262.2,34.2z"/>
<circle class="st8" cx="99" cy="42" r="3"/>
<circle class="st8" cx="296.5" cy="29.5" r="2.5"/>
<circle class="st8" cx="275.5" cy="58.5" r="4.5"/>
<circle class="st8" cx="39" cy="59" r="3"/>
<circle class="st8" cx="368.5" cy="129.5" r="2.5"/>
<path class="st8" d="M5.6,72.4c2.65,0,4.8-2.15,4.8-4.8c0-0.88,0.72-1.6,1.6-1.6s1.6,0.72,1.6,1.6c0,2.65,2.15,4.8,4.8,4.8
	c0.88,0,1.6,0.72,1.6,1.6c0,0.88-0.72,1.6-1.6,1.6c-2.65,0-4.8,2.15-4.8,4.8c0,0.88-0.72,1.6-1.6,1.6s-1.6-0.72-1.6-1.6
	c0-2.65-2.15-4.8-4.8-4.8C4.72,75.6,4,74.88,4,74C4,73.12,4.72,72.4,5.6,72.4z"/>
<path class="st8" d="M130.6,18.6c-2.32,0-4.2-1.88-4.2-4.2c0-0.77-0.63-1.4-1.4-1.4c-0.77,0-1.4,0.63-1.4,1.4
	c0,2.32-1.88,4.2-4.2,4.2c-0.77,0-1.4,0.63-1.4,1.4s0.63,1.4,1.4,1.4c2.32,0,4.2,1.88,4.2,4.2c0,0.77,0.63,1.4,1.4,1.4
	c0.77,0,1.4-0.63,1.4-1.4c0-2.32,1.88-4.2,4.2-4.2c0.77,0,1.4-0.63,1.4-1.4S131.37,18.6,130.6,18.6z"/>
<path class="st8" d="M50.4,283.4c-2.65,0-4.8-2.15-4.8-4.8c0-0.88-0.72-1.6-1.6-1.6c-0.88,0-1.6,0.72-1.6,1.6
	c0,2.65-2.15,4.8-4.8,4.8c-0.88,0-1.6,0.72-1.6,1.6s0.72,1.6,1.6,1.6c2.65,0,4.8,2.15,4.8,4.8c0,0.88,0.72,1.6,1.6,1.6
	c0.88,0,1.6-0.72,1.6-1.6c0-2.65,2.15-4.8,4.8-4.8c0.88,0,1.6-0.72,1.6-1.6S51.28,283.4,50.4,283.4z"/>
<circle class="st8" cx="23" cy="98" r="3"/>
<circle class="st8" cx="18" cy="299.5" r="2.5"/>
<path class="st0" d="M87.05,116.32c-0.88-0.04-1.69-0.47-2.22-1.17c-10.99-14.29-24.1-26.71-38.96-36.9
	c-0.72-0.5-1.19-1.28-1.29-2.16c-0.09-0.87,0.2-1.74,0.81-2.38L63.4,54.69c0.58-0.62,1.38-0.94,2.18-0.94c0.59,0,1.18,0.17,1.7,0.53
	c15.39,10.55,28.95,23.4,40.33,38.19c0.9,1.17,0.81,2.82-0.2,3.89l-18.02,19.03c-0.57,0.6-1.36,0.94-2.18,0.94
	C87.15,116.33,87.1,116.32,87.05,116.32z"/>
<path class="st1" d="M65.58,56.75c15.1,10.36,28.48,23.03,39.65,37.55c-6.01,6.34-12.01,12.69-18.02,19.03
	C76.04,98.81,62.66,86.14,47.56,75.78C53.57,69.44,59.57,63.09,65.58,56.75 M65.58,50.75c-1.6,0-3.19,0.64-4.36,1.87L43.2,71.65
	c-1.21,1.27-1.8,3.01-1.61,4.76c0.19,1.75,1.13,3.32,2.57,4.31c14.61,10.02,27.49,22.21,38.28,36.26c1.07,1.39,2.7,2.24,4.45,2.33
	c0.1,0.01,0.21,0.01,0.31,0.01c1.64,0,3.22-0.67,4.36-1.87l8.82-9.32l9.2-9.71c2.03-2.14,2.2-5.44,0.4-7.78
	C98.42,75.6,84.62,62.53,68.98,51.8C67.94,51.09,66.76,50.75,65.58,50.75L65.58,50.75z"/>
<path class="st2" d="M70.35,76.75c3.16-3.34,7.56-4.87,11.32-4.23c-3.97-3.56-8.1-6.93-12.38-10.11c-1.64,1.73-4.52,1.97-6.47,0.59
	c-2.9,3.06-5.8,6.12-8.7,9.18c1.96,1.38,2.18,3.94,0.55,5.67c4.28,3.18,8.41,6.56,12.38,10.11C66.09,84.37,67.18,80.1,70.35,76.75z
	 M61.94,74.76c-1.51-1.17-1.61-3.3-0.19-4.8c1.42-1.5,3.82-1.79,5.33-0.62c1.51,1.17,1.57,3.36,0.15,4.86
	C65.81,75.69,63.46,75.93,61.94,74.76z"/>
<path class="st2" d="M77.95,86.02c0.45-0.48,0.14-1.08-0.71-2.07c-1.45-1.74-2.5-3.26-0.74-5.32c1.18-1.25,2.82-1.37,4.53-0.22
	c0.29-0.31,0.58-0.61,0.87-0.92c0.6,0.56,1.2,1.13,1.79,1.7c-0.29,0.31-0.58,0.61-0.87,0.92c0.8,1.09,0.98,2.26,0.56,3.52
	c-0.01,0.06-0.02,0.09-0.04,0.14c-0.04,0.13-0.09,0.25-0.13,0.38c-0.81-0.3-1.63-0.6-2.46-0.9c0.05-0.17,0.1-0.34,0.15-0.52
	c0.2-0.69,0.11-1.22-0.55-1.84c-0.85-0.8-1.38-0.96-1.86-0.45c-0.42,0.44-0.07,1.07,0.76,2.04c1.41,1.66,2.47,3.41,0.64,5.35
	c-1.21,1.27-2.85,1.34-4.58,0.2c-0.3,0.32-0.6,0.63-0.9,0.95c-0.59-0.57-1.19-1.13-1.79-1.7c0.29-0.31,0.59-0.62,0.88-0.93
	c-1.01-1.28-1.24-2.56-0.69-3.88c0.07-0.16,0.14-0.32,0.2-0.48c0.81,0.34,1.62,0.68,2.42,1.03c-0.06,0.16-0.12,0.32-0.18,0.48
	c-0.27,0.67-0.05,1.32,0.63,1.96C76.78,86.34,77.46,86.53,77.95,86.02z"/>
<path class="st0" d="M43.53,267.99c-0.88-0.04-1.69-0.46-2.23-1.15l-16.35-20.96c-0.91-1.16-0.83-2.81,0.17-3.89
	c12.91-13.82,27.85-25.48,44.39-34.63c0.46-0.25,0.96-0.38,1.45-0.38c0.9,0,1.78,0.4,2.37,1.15l16.35,20.95
	c0.54,0.69,0.75,1.59,0.57,2.45c-0.18,0.86-0.72,1.6-1.49,2.02c-16,8.85-30.43,20.12-42.91,33.48c-0.57,0.61-1.36,0.95-2.19,0.95
	C43.62,267.99,43.58,267.99,43.53,267.99z"/>
<path class="st1" d="M70.97,209.98c5.45,6.98,10.9,13.97,16.35,20.95c-16.25,8.99-30.98,20.48-43.65,34.06
	c-5.45-6.98-10.9-13.97-16.35-20.95C39.99,230.47,54.72,218.97,70.97,209.98 M70.97,203.98c-0.99,0-1.99,0.24-2.9,0.75
	c-16.82,9.31-32.01,21.16-45.13,35.21c-2.01,2.16-2.16,5.46-0.35,7.79l16.35,20.95c1.08,1.38,2.71,2.23,4.46,2.3
	c0.09,0,0.18,0.01,0.27,0.01c1.66,0,3.25-0.69,4.38-1.9c12.26-13.13,26.45-24.2,42.17-32.9c1.54-0.85,2.62-2.33,2.97-4.05
	c0.35-1.72-0.07-3.51-1.15-4.89L75.7,206.29C74.53,204.79,72.77,203.98,70.97,203.98L70.97,203.98z"/>
<path class="st2" d="M48.1,242.29c-2.86-3.67-3.73-8.32-2.53-11.99c-4.17,3.44-8.18,7.07-12.02,10.88c1.49,1.9,1.29,4.83-0.39,6.58
	c2.63,3.37,5.26,6.74,7.89,10.11c1.68-1.75,4.28-1.59,5.77,0.31c3.84-3.81,7.85-7.44,12.02-10.88
	C55.09,247.71,50.97,245.97,48.1,242.29z M44.82,250.42c-1.4,1.34-3.56,1.12-4.84-0.53c-1.29-1.65-1.22-4.1,0.18-5.44
	c1.4-1.34,3.6-1.06,4.89,0.58C46.34,246.68,46.22,249.08,44.82,250.42z"/>
<path class="st0" d="M224.87,288.49c-0.2,0-0.4-0.02-0.6-0.06c-0.86-0.18-1.6-0.72-2.02-1.49c-8.85-16-20.12-30.44-33.48-42.91
	c-0.64-0.6-0.99-1.45-0.95-2.33s0.46-1.69,1.15-2.23l20.95-16.35c0.54-0.42,1.2-0.63,1.84-0.63c0.74,0,1.47,0.27,2.05,0.81
	c13.82,12.91,25.48,27.84,34.63,44.39c0.71,1.29,0.38,2.91-0.78,3.82l-20.95,16.35C226.18,288.27,225.53,288.49,224.87,288.49z"/>
<path class="st1" d="M211.77,225.49c13.57,12.67,25.06,27.41,34.06,43.65c-6.98,5.45-13.97,10.9-20.95,16.35
	c-8.99-16.25-20.48-30.98-34.06-43.65C197.8,236.38,204.78,230.94,211.77,225.49 M211.77,219.49c-1.3,0-2.6,0.42-3.69,1.27
	l-20.95,16.35c-1.38,1.08-2.23,2.71-2.3,4.46c-0.08,1.75,0.62,3.45,1.9,4.65c13.13,12.26,24.2,26.45,32.9,42.17
	c0.85,1.54,2.33,2.62,4.05,2.97c0.4,0.08,0.8,0.12,1.2,0.12c1.33,0,2.63-0.44,3.69-1.27l9.79-7.64l11.17-8.71
	c2.33-1.82,2.99-5.05,1.56-7.64c-9.31-16.82-21.16-32.01-35.21-45.13C214.71,220.03,213.24,219.49,211.77,219.49L211.77,219.49z"/>
<path class="st2" d="M240.47,264.85c-2.8-4.63-5.8-9.13-9.01-13.47c0.27,3.85-1.7,8.15-5.37,11.02c-3.68,2.87-8.1,3.56-11.63,2.25
	c3.2,4.35,6.21,8.84,9.01,13.47c1.9-1.48,4.47-1.01,5.67,1.1c3.37-2.63,6.74-5.26,10.11-7.89
	C238.05,269.22,238.57,266.33,240.47,264.85z M227.29,271.07c-1.03-1.64-0.56-4,1.09-5.28c1.65-1.29,3.85-1.02,4.89,0.62
	c1.03,1.64,0.5,4.03-1.15,5.32C230.47,273.02,228.33,272.71,227.29,271.07z"/>
<path class="st0" d="M13.74,205.48c-0.57,0-1.13-0.16-1.61-0.47c-0.74-0.47-1.24-1.24-1.36-2.11l-3.68-26.32
	c-0.2-1.46,0.68-2.85,2.1-3.29c17.03-5.19,34.69-7.83,52.5-7.83c1.09,0,2.18,0.01,3.27,0.03c1.48,0.03,2.71,1.12,2.92,2.58
	l3.68,26.32c0.12,0.87-0.14,1.75-0.73,2.41c-0.57,0.64-1.39,1.01-2.25,1.01c-0.02,0-0.04,0-0.05,0c-1.05-0.02-2.11-0.03-3.16-0.03
	c-17.21,0-34.28,2.54-50.75,7.57C14.33,205.44,14.04,205.48,13.74,205.48z"/>
<path class="st1" d="M61.68,168.46c1.07,0,2.14,0.01,3.21,0.03c1.23,8.77,2.45,17.55,3.68,26.32c-1.07-0.02-2.14-0.03-3.21-0.03
	c-17.49,0-34.88,2.59-51.62,7.7c-1.23-8.77-2.45-17.55-3.68-26.32C26.8,171.06,44.2,168.46,61.68,168.46 M61.69,162.46v6V162.46
	c-18.1,0-36.06,2.68-53.37,7.96c-2.82,0.86-4.6,3.65-4.19,6.57l3.68,26.32c0.24,1.74,1.24,3.28,2.71,4.23
	c0.97,0.62,2.1,0.94,3.23,0.94c0.59,0,1.18-0.09,1.75-0.26c16.18-4.93,32.96-7.44,49.87-7.44c1.03,0,2.07,0.01,3.1,0.03
	c0.04,0,0.07,0,0.11,0c1.72,0,3.35-0.73,4.49-2.02c1.16-1.31,1.69-3.07,1.45-4.81l-3.68-26.32c-0.41-2.92-2.88-5.11-5.83-5.17
	C63.9,162.47,62.79,162.46,61.69,162.46L61.69,162.46z"/>
<path class="st2" d="M28.93,185.04c-0.64-4.61,0.93-9.07,3.81-11.65c-5.33,0.89-10.61,2.03-15.85,3.41c0.33,2.39-1.3,4.82-3.63,5.5
	c0.59,4.23,1.18,8.47,1.78,12.7c2.33-0.68,4.51,0.77,4.84,3.16c5.23-1.38,10.52-2.52,15.85-3.41
	C32.27,193.23,29.57,189.66,28.93,185.04z M22.03,190.44c-1.89,0.46-3.64-0.81-3.93-2.88c-0.29-2.07,1-4.16,2.88-4.62
	c1.88-0.46,3.65,0.88,3.94,2.95C25.21,187.96,23.91,189.98,22.03,190.44z"/>
<path class="st0" d="M209.98,108.55c-0.5,0-0.99-0.12-1.44-0.37l-23.01-12.54c-1.3-0.71-1.89-2.25-1.39-3.64
	c6.25-17.58,15.2-33.99,26.58-48.77c0.58-0.76,1.47-1.17,2.38-1.17c0.49,0,0.98,0.12,1.43,0.37l23.01,12.54
	c0.77,0.42,1.32,1.16,1.5,2.02c0.18,0.86-0.02,1.75-0.56,2.45c-11,14.29-19.64,30.14-25.68,47.12c-0.29,0.83-0.94,1.48-1.75,1.8
	C210.71,108.49,210.35,108.55,209.98,108.55z"/>
<path class="st1" d="M213.1,45.06c7.67,4.18,15.34,8.36,23.01,12.54c-11.17,14.51-19.99,30.69-26.13,47.95
	c-7.67-4.18-15.34-8.36-23.01-12.54C193.11,75.76,201.93,59.58,213.1,45.06 M213.1,39.06c-1.81,0-3.59,0.82-4.76,2.34
	C196.77,56.44,187.68,73.12,181.32,91c-0.99,2.78,0.19,5.87,2.78,7.28l23.01,12.54c0.89,0.49,1.88,0.73,2.87,0.73
	c0.72,0,1.45-0.13,2.14-0.4c1.64-0.63,2.92-1.94,3.51-3.59c5.94-16.69,14.43-32.26,25.23-46.3c1.07-1.39,1.48-3.18,1.12-4.9
	s-1.46-3.19-3-4.03l-4.59-2.5l-18.42-10.04C215.06,39.3,214.07,39.06,213.1,39.06L213.1,39.06z"/>
<path class="st2" d="M211.31,51.59c-3.09,4.35-5.98,8.83-8.65,13.44c3.38-1.76,8.04-1.66,12.08,0.53c4.04,2.2,6.4,5.93,6.6,9.64
	c2.68-4.61,5.56-9.09,8.65-13.44c-2.09-1.14-2.67-3.65-1.23-5.56c-3.7-2.02-7.4-4.03-11.1-6.05
	C216.22,52.07,213.4,52.73,211.31,51.59z M222.12,61.07c-1.08,1.58-3.39,2.08-5.21,1.09c-1.81-0.99-2.44-3.09-1.35-4.67
	c1.08-1.58,3.45-2.04,5.26-1.05C222.63,57.43,223.19,59.49,222.12,61.07z"/>
<path class="st0" d="M290.89,224c-0.61,0-1.21-0.18-1.71-0.54c-15.01-10.44-31.49-18.42-48.99-23.71c-0.84-0.25-1.53-0.86-1.88-1.67
	c-0.35-0.8-0.34-1.72,0.05-2.51l11.58-23.92c0.51-1.06,1.58-1.69,2.7-1.69c0.29,0,0.58,0.04,0.87,0.13
	c18.1,5.48,35.16,13.73,50.68,24.53c1.21,0.84,1.63,2.44,0.99,3.77l-11.58,23.92c-0.38,0.79-1.09,1.37-1.94,1.6
	C291.4,223.97,291.15,224,290.89,224z"/>
<path class="st1" d="M252.63,172.96c17.77,5.38,34.59,13.52,49.84,24.12c-3.86,7.97-7.72,15.95-11.58,23.92
	c-15.24-10.61-32.06-18.74-49.84-24.12C244.92,188.91,248.77,180.93,252.63,172.96 M252.63,166.96c-2.25,0-4.38,1.27-5.4,3.39
	l-11.58,23.92c-0.76,1.58-0.8,3.42-0.09,5.02c0.7,1.61,2.08,2.83,3.76,3.33c17.2,5.2,33.4,13.04,48.15,23.3
	c1.02,0.71,2.21,1.07,3.43,1.07c0.51,0,1.02-0.06,1.52-0.2c1.7-0.44,3.12-1.61,3.88-3.19l6.31-13.04l5.27-10.88
	c1.29-2.66,0.45-5.85-1.97-7.54c-15.78-10.98-33.12-19.37-51.53-24.94C253.79,167.04,253.21,166.96,252.63,166.96L252.63,166.96z"/>
<path class="st2" d="M295.77,195.59c-4.56-2.92-9.24-5.62-14.03-8.11c1.95,3.34,2.08,8.06,0.05,12.26c-2.03,4.2-5.7,6.77-9.44,7.15
	c4.8,2.49,9.48,5.19,14.03,8.11c1.05-2.17,3.56-2.88,5.57-1.52c1.86-3.85,3.72-7.69,5.59-11.54
	C295.53,200.58,294.72,197.77,295.77,195.59z M286.7,207c-1.65-1.02-2.27-3.34-1.36-5.22c0.91-1.88,3.01-2.62,4.66-1.6
	c1.65,1.02,2.23,3.4,1.32,5.28C290.41,207.34,288.35,208.01,286.7,207z"/>
<path class="st2" d="M125.96,275c-20.07,0-38.99-9.63-50.85-25.82c-17.29-3.62-29.78-18.67-30.15-36.39
	c-9.69-11.39-15.01-25.83-15.01-40.79c0-14.97,5.32-29.41,15.01-40.79c0.36-19.83,14.26-36.83,33.53-41.15
	C89.08,68.71,111.08,55,134.96,55c12.22,0,24.03,3.49,34.23,10.1c3.88-0.73,7.83-1.1,11.77-1.1c16.36,0,31.79,6.21,43.58,17.51
	c20.84,3.2,36.42,21.29,36.42,42.49c0,0.61-0.02,1.25-0.05,1.93c12.76,11.9,20.05,28.61,20.05,46.07c0,12.83-3.82,25.12-11.07,35.65
	c0.71,2.72,1.07,5.52,1.07,8.35c0,17.39-13.79,31.89-31,32.93c-11.97,13.41-29.02,21.07-47,21.07c-10.3,0-20.47-2.54-29.54-7.36
	C152.52,270.73,139.61,275,125.96,275z"/>
<path class="st1" d="M134.96,58c12.45,0,24.02,3.79,33.61,10.29c4-0.84,8.14-1.29,12.39-1.29c16.45,0,31.35,6.62,42.19,17.35
	c19.64,2.54,34.81,19.32,34.81,39.65c0,1.07-0.05,2.12-0.14,3.17c12.35,10.99,20.14,27,20.14,44.83c0,13.11-4.21,25.22-11.35,35.09
	c0.87,2.81,1.35,5.81,1.35,8.91c0,16.37-13.12,29.67-29.41,29.99c-11,12.86-27.34,21.01-45.59,21.01c-10.85,0-21.02-2.9-29.81-7.94
	c-10.23,8.09-23.14,12.94-37.19,12.94c-20.31,0-38.25-10.1-49.1-25.54c-16.42-2.89-28.9-17.21-28.9-34.46
	c0-0.11,0.01-0.22,0.01-0.33C38.64,201.1,32.96,187.22,32.96,172s5.67-29.1,15.01-39.67c0-0.11-0.01-0.22-0.01-0.33
	c0-19.56,14.04-35.83,32.6-39.3C90.1,72.21,110.87,58,134.96,58 M134.96,52c-24.54,0-47.19,13.82-58.51,35.46
	C56.91,92.49,42.84,109.81,42,130.08c-9.72,11.8-15.04,26.6-15.04,41.92c0,15.33,5.33,30.13,15.04,41.93
	c0.84,18.27,13.64,33.71,31.37,37.94C85.83,268.27,105.31,278,125.96,278c13.67,0,26.63-4.09,37.72-11.85
	c9.07,4.49,19.11,6.85,29.28,6.85c18.43,0,35.93-7.68,48.42-21.17c8.44-0.79,16.27-4.5,22.27-10.61
	c6.65-6.77,10.31-15.73,10.31-25.22c0-2.63-0.28-5.23-0.84-7.77c7.1-10.78,10.84-23.24,10.84-36.23c0-17.84-7.26-34.92-20.01-47.32
	c0-0.23,0.01-0.46,0.01-0.68c0-22.36-16.21-41.48-38.03-45.3C213.68,67.27,197.78,61,180.96,61c-3.73,0-7.47,0.32-11.15,0.95
	C159.36,55.43,147.37,52,134.96,52L134.96,52z"/>
<path class="st0" d="M83.56,109.7C93.1,89.21,110.87,78,134.96,78c12.45,0,24.02,3.79,33.61,10.29c4-0.84,8.14-1.29,12.39-1.29
	c16.45,0,31.35,6.62,42.19,17.35c15.21-1.58,27.78,6.93,34.79,18.64c-0.5-19.87-15.48-36.14-34.79-38.64
	C212.31,73.62,197.41,67,180.96,67c-4.25,0-8.39,0.45-12.39,1.29C158.98,61.79,147.41,58,134.96,58c-24.09,0-44.86,14.21-54.4,34.7
	c-16.9,3.16-30.06,16.95-32.26,34.17C56.96,116.38,70.04,108.64,83.56,109.7z"/>
<path class="st3" d="M240.88,228.26c-11.31,13.22-28.11,18.6-46.87,18.6c-11.16,0-21.61-2.98-30.64-8.16
	c-10.51,8.32-23.79,10.3-38.24,10.3c-20.88,0-39.32-4.38-50.48-20.26C54.24,232,47.96,212,47.97,211.67c0,0.11-0.01,0.22-0.01,0.33
	c0,17.25,12.48,31.57,28.9,34.46c10.86,15.44,28.8,25.54,49.1,25.54c14.05,0,26.97-4.84,37.19-12.94
	c8.78,5.04,18.95,7.94,29.81,7.94c18.25,0,34.58-8.16,45.59-21.01c16.3-0.32,29.41-13.61,29.41-29.99c0-1.48-0.11-2.93-0.32-4.35
	C262.59,221.35,252.53,228.03,240.88,228.26z"/>
<path class="st4" d="M157.96,211.37c-6.39,11.53-18.3,19.57-32.17,20.53c-1.86,52.26-5.63,98.56-16.47,118.68
	c-0.5,0.93-0.48,2.05,0.06,2.96c0.54,0.91,1.52,1.46,2.58,1.46h92c1.06,0,2.03-0.56,2.58-1.46c0.54-0.91,0.57-2.03,0.06-2.96
	c-10.84-20.11-14.61-66.42-16.47-118.68C176.27,230.93,164.35,222.89,157.96,211.37z"/>
<path class="st1" d="M187.11,231.57c1.87,53.42,5.65,99.65,16.85,120.43h-92c11.2-20.78,14.98-67.02,16.85-120.43
	c-1.91,0.28-3.86,0.43-5.85,0.43c-0.06,0-0.12,0-0.17,0c-1.85,51.79-5.55,97.57-16.11,117.16c-1,1.86-0.95,4.11,0.13,5.92
	c1.08,1.81,3.04,2.92,5.15,2.92h92c2.11,0,4.07-1.11,5.15-2.92c1.08-1.81,1.13-4.06,0.13-5.92
	c-10.56-19.59-14.26-65.36-16.11-117.16c-0.06,0-0.12,0-0.17,0C190.97,232,189.02,231.85,187.11,231.57z"/>
<path class="st5" d="M157.96,211.37c-5.93,10.69-16.6,18.37-29.18,20.21c-0.19,5.74-0.38,11.05-0.58,15.38
	c0.58,0.03,1.17,0.04,1.76,0.04c11.45,0,21.61-5.5,28-14c6.39,8.5,16.55,14,28,14c0.59,0,1.17-0.02,1.76-0.04
	c-0.19-4.33-0.39-9.64-0.58-15.38C174.56,229.74,163.89,222.05,157.96,211.37z"/>
<path class="st1" d="M192.96,235c-13.97,0-26.98-6.8-35-18.03c-8.02,11.23-21.03,18.03-35,18.03c-4.74,0-9.39-0.77-13.84-2.28
	c-1.57-0.53-2.41-2.24-1.88-3.81c0.53-1.57,2.24-2.41,3.81-1.88c3.82,1.3,7.83,1.96,11.91,1.96c13.44,0,25.85-7.31,32.38-19.09
	c0.53-0.95,1.53-1.54,2.62-1.54s2.09,0.59,2.62,1.54c6.53,11.78,18.94,19.09,32.38,19.09c6.13,0,12.19-1.53,17.55-4.42
	c1.46-0.79,3.28-0.24,4.06,1.21c0.79,1.46,0.24,3.28-1.21,4.06C207.13,233.22,200.08,235,192.96,235z"/>
<path class="st0" d="M76.68,151.6c-0.12-6.75,2.77-13.37,8.1-17.87c-10.52-12.09-22.59-22.69-35.99-31.55
	c-0.51-0.33-1.08-0.5-1.65-0.5c-0.82,0-1.63,0.33-2.21,0.97l-17.7,19.33c-0.59,0.65-0.87,1.52-0.76,2.39
	c0.11,0.87,0.59,1.65,1.32,2.14c10.31,6.82,19.79,14.72,28.37,23.54C62.98,147.22,70.6,147.94,76.68,151.6z"/>
<path class="st1" d="M59.3,149.01c-8.99-9.4-18.99-17.8-29.87-25c5.9-6.44,11.8-12.89,17.7-19.33c13.19,8.72,25.12,19.2,35.48,31.13
	c1.32-1.46,2.86-2.76,4.59-3.87c-10.73-12.37-23.06-23.21-36.76-32.26c-1.01-0.67-2.16-1-3.31-1c-1.64,0-3.25,0.67-4.43,1.95
	l-17.7,19.33c-1.19,1.29-1.74,3.04-1.53,4.79s1.18,3.3,2.65,4.27c9.86,6.52,18.95,14.05,27.2,22.44c0.04-0.02,0.08-0.05,0.12-0.07
	C55.32,150.3,57.3,149.51,59.3,149.01z"/>
<path class="st2" d="M52.24,124.6c3.1-3.39,7.48-4.99,11.25-4.42c-4.03-3.49-8.21-6.79-12.55-9.9c-1.61,1.76-4.48,2.04-6.46,0.7
	c-2.85,3.11-5.69,6.22-8.54,9.33c1.98,1.35,2.25,3.91,0.64,5.66c4.34,3.11,8.52,6.42,12.55,9.9C48.11,132.29,49.13,128,52.24,124.6z
	 M43.8,122.75c-1.53-1.14-1.67-3.27-0.28-4.8c1.39-1.52,3.79-1.86,5.32-0.71c1.53,1.14,1.63,3.33,0.23,4.85
	C47.68,123.61,45.33,123.89,43.8,122.75z"/>
<path class="st2" d="M75.64,151.02c0.36-0.39,0.72-0.79,1.08-1.18c0.26-4.34,1.75-8.55,4.32-12.11c-3.34-3.86-6.85-7.56-10.51-11.11
	c0.9,3.7-0.31,8.21-3.42,11.59c-3.11,3.39-7.29,4.79-10.94,4.09c2.07,2,4.08,4.06,6.05,6.16C66.87,147.93,71.55,148.84,75.64,151.02
	z M69.9,141.15c1.39-1.52,3.58-1.62,4.85-0.2c1.27,1.43,1.15,3.84-0.24,5.36c-1.39,1.52-3.53,1.57-4.8,0.15
	C68.43,145.04,68.5,142.67,69.9,141.15z"/>
<path class="st2" d="M59.99,133.73c0.44-0.48,0.12-1.08-0.75-2.05c-1.48-1.71-2.55-3.22-0.83-5.3c1.16-1.27,2.79-1.42,4.53-0.3
	c0.28-0.31,0.57-0.62,0.85-0.93c0.61,0.55,1.22,1.11,1.82,1.66c-0.28,0.31-0.57,0.62-0.85,0.93c0.82,1.08,1.02,2.24,0.62,3.51
	c-0.01,0.06-0.02,0.09-0.04,0.14c-0.04,0.13-0.08,0.25-0.12,0.38c-0.82-0.29-1.64-0.57-2.47-0.85c0.05-0.17,0.09-0.35,0.14-0.52
	c0.19-0.69,0.09-1.22-0.58-1.83c-0.86-0.79-1.4-0.93-1.87-0.41c-0.41,0.45-0.05,1.08,0.79,2.03c1.44,1.63,2.53,3.37,0.73,5.34
	c-1.18,1.29-2.83,1.38-4.57,0.27c-0.3,0.32-0.59,0.64-0.89,0.97c-0.6-0.56-1.21-1.11-1.82-1.66c0.29-0.31,0.58-0.63,0.86-0.94
	c-1.03-1.26-1.28-2.54-0.76-3.87c0.07-0.16,0.13-0.32,0.2-0.48c0.82,0.33,1.63,0.65,2.44,0.99c-0.06,0.16-0.12,0.32-0.17,0.48
	c-0.26,0.67-0.03,1.32,0.67,1.95C58.83,134.08,59.52,134.25,59.99,133.73z"/>
<path class="st0" d="M278.25,106.12c-0.06-0.88-0.5-1.68-1.2-2.21l-21.32-15.87c-0.53-0.4-1.16-0.59-1.79-0.59
	c-0.76,0-1.52,0.29-2.1,0.85c-10.8,10.55-20.18,22.37-28,35.23c3.81,4.31,5.83,9.89,5.73,15.55c6.84-4.11,15.63-4.51,23.06-0.31
	c7.07-10.99,15.34-21.15,24.73-30.32C277.99,107.85,278.31,106.99,278.25,106.12z"/>
<path class="st1" d="M281.25,105.92c-0.12-1.75-1-3.36-2.4-4.41l-4.03-3l-17.29-12.87c-1.07-0.8-2.33-1.19-3.58-1.19
	c-1.52,0-3.04,0.58-4.19,1.71c-10.81,10.56-20.22,22.37-28.09,35.22c1.62,1.4,3.01,2.99,4.15,4.72
	c7.8-13.03,17.26-25.01,28.14-35.65c7.11,5.29,14.21,10.58,21.32,15.87c-9.62,9.4-18.11,19.85-25.35,31.15
	c0.98,0.4,1.95,0.87,2.89,1.41c0.83,0.48,1.61,1,2.35,1.56c6.95-10.81,15.07-20.81,24.3-29.83
	C280.71,109.38,281.37,107.67,281.25,105.92z"/>
<path class="st2" d="M230.08,138.81c1.38-0.78,2.82-1.41,4.32-1.89c-1.48-1.29-1.96-3.5-1.02-5.07c1-1.67,3.19-1.98,4.87-0.73
	c1.52,1.13,2.08,3.16,1.43,4.77c2.59-0.19,5.22,0.05,7.79,0.77c1.5-2.37,3.06-4.7,4.67-7c-3.5,1.39-7.94,0.8-11.68-1.98
	c-3.74-2.78-5.8-7.03-5.62-10.89c-2.69,3.83-5.23,7.78-7.61,11.82c1.5,3.06,2.3,6.42,2.34,9.84
	C229.74,138.56,229.91,138.69,230.08,138.81z"/>
<path class="st2" d="M251.23,96.75c-3.72,3.93-7.26,8.02-10.6,12.26c3.64-1.29,8.31-0.53,12.05,2.26c3.74,2.79,5.58,6.87,5.25,10.62
	c3.34-4.24,6.88-8.33,10.6-12.26c-1.94-1.44-2.16-4.04-0.44-5.76c-3.43-2.55-6.86-5.1-10.29-7.66
	C256.08,97.92,253.16,98.19,251.23,96.75z M260.72,107.8c-1.31,1.43-3.7,1.6-5.38,0.35c-1.68-1.25-2.01-3.44-0.7-4.88
	c1.31-1.43,3.76-1.55,5.43-0.31C261.75,104.22,262.03,106.37,260.72,107.8z"/>
<path class="st2" d="M248.87,118.91c-0.53-0.4-1.1-0.01-1.99,0.97c-1.57,1.67-2.99,2.9-5.26,1.38c-1.4-1.04-1.72-2.67-0.77-4.54
	c-0.34-0.25-0.68-0.51-1.03-0.76c0.49-0.67,0.99-1.34,1.49-2c0.34,0.25,0.68,0.51,1.03,0.76c1-0.94,2.16-1.26,3.48-0.98
	c0.06,0,0.1,0.01,0.15,0.03c0.13,0.03,0.26,0.06,0.4,0.09c-0.21,0.86-0.41,1.72-0.61,2.58c-0.18-0.03-0.36-0.06-0.54-0.09
	c-0.72-0.12-1.24,0.04-1.78,0.77c-0.71,0.95-0.8,1.5-0.23,1.93c0.49,0.37,1.09-0.06,1.96-1.01c1.5-1.62,3.14-2.9,5.31-1.28
	c1.43,1.06,1.69,2.71,0.75,4.58c0.36,0.26,0.71,0.53,1.07,0.79c-0.5,0.66-1,1.33-1.49,2c-0.35-0.26-0.69-0.52-1.04-0.77
	c-1.16,1.17-2.43,1.55-3.82,1.16c-0.17-0.05-0.34-0.1-0.51-0.15c0.24-0.86,0.49-1.71,0.75-2.56c0.17,0.04,0.34,0.08,0.5,0.13
	c0.7,0.19,1.33-0.11,1.9-0.87C249.34,120.04,249.45,119.33,248.87,118.91z"/>
<path class="st1" d="M42.4,170.01c-0.18,0-0.37-0.02-0.55-0.05c-1.63-0.3-2.7-1.87-2.4-3.5c1.39-7.44,5.95-13.88,12.5-17.67
	c6.78-3.91,14.89-4.5,22.07-1.8c1.25-7.57,5.82-14.3,12.59-18.22c4.89-2.83,10.44-3.96,16.03-3.28c1.64,0.2,2.82,1.69,2.62,3.34
	c-0.2,1.64-1.69,2.81-3.34,2.62c-4.29-0.52-8.55,0.35-12.31,2.52c-6.25,3.61-10.06,10.34-9.93,17.58c0.02,1.09-0.56,2.1-1.5,2.65
	c-0.94,0.55-2.11,0.54-3.04-0.03c-6.2-3.73-13.94-3.8-20.19-0.19c-5.03,2.91-8.53,7.85-9.6,13.57
	C45.07,169,43.81,170.01,42.4,170.01z"/>
<path class="st1" d="M263.86,157.5c-1.42,0-2.68-1.01-2.95-2.45c-1.07-5.72-4.57-10.67-9.6-13.57c-6.25-3.61-13.99-3.54-20.19,0.19
	c-0.94,0.56-2.1,0.57-3.04,0.03c-0.94-0.55-1.52-1.56-1.5-2.65c0.13-7.23-3.68-13.97-9.93-17.58c-3.76-2.17-8.01-3.04-12.31-2.52
	c-1.65,0.21-3.14-0.97-3.34-2.62c-0.2-1.65,0.97-3.14,2.62-3.34c5.6-0.68,11.14,0.46,16.03,3.28c6.78,3.91,11.35,10.64,12.59,18.22
	c7.18-2.71,15.3-2.12,22.07,1.8c6.55,3.78,11.11,10.22,12.5,17.67c0.3,1.63-0.77,3.2-2.4,3.5
	C264.22,157.48,264.04,157.5,263.86,157.5z"/>
<path class="st1" d="M169.19,251.66c3.1-1.94,6.91-2.24,10.32-0.93c1.9,0.68,5.1,3.34,2.67,5.3c-0.52,0.4-1.17,0.41-1.79,0.38
	c-2.7-0.07-5.09-0.5-7.76-0.99c-1.01-0.22-2.12-0.46-3.15-0.9C168.29,254.09,168.12,252.33,169.19,251.66L169.19,251.66z"/>
<path class="st1" d="M146.22,254.62c-3.53,1.16-7.03,1.6-10.69,1.8c-1.96,0.28-3.39-1.58-2.27-3.29c2.37-3.11,6.68-3.64,10.21-2.84
	c1.53,0.43,4.98,1.39,3.71,3.64C146.95,254.28,146.6,254.48,146.22,254.62L146.22,254.62z"/>
<path class="st1" d="M169.97,284.42h-24c-2.21,0-4,1.79-4,4c0,8.82,7.18,16,16,16c8.77,0,15.91-7.09,16-15.84c0-0.05,0-0.11,0-0.16
	C173.96,286.21,172.18,284.42,169.97,284.42z"/>
<path class="st9" d="M157.96,300.42c3.55,0,6.73-1.55,8.93-4c-2.2-2.45-5.38-4-8.93-4c-3.55,0-6.73,1.55-8.93,4
	C151.23,298.87,154.41,300.42,157.96,300.42z"/>
<path class="st0" d="M145.35,101.86c3.46-5.71,9.34-9.75,16.15-10.78c-2.36-15.91-6.85-31.4-13.41-46.13
	c-0.49-1.1-1.58-1.78-2.74-1.78c-0.26,0-0.52,0.03-0.78,0.1l-25.32,6.78c-0.85,0.23-1.55,0.81-1.93,1.61s-0.39,1.71-0.03,2.51
	c5.07,11.4,8.87,23.26,11.35,35.42C136,90.8,142.13,95.49,145.35,101.86z"/>
<path class="st1" d="M131.85,90.36c-2.52-12.86-6.47-25.4-11.81-37.4c8.44-2.26,16.88-4.52,25.32-6.78
	c6.46,14.52,10.9,29.85,13.22,45.55c1.89-0.55,3.88-0.86,5.93-0.9c-2.39-16.25-6.97-32.06-13.67-47.1
	c-0.98-2.21-3.16-3.56-5.48-3.56c-0.51,0-1.04,0.07-1.55,0.21l-25.32,6.78c-1.7,0.45-3.11,1.63-3.86,3.21s-0.78,3.42-0.07,5.02
	c4.86,10.92,8.52,22.27,10.96,33.9c0.1,0,0.19,0,0.29,0C127.91,89.39,129.93,89.75,131.85,90.36z"/>
<path class="st2" d="M138.94,65.72c4.44-1.19,8.99-0.19,11.86,2.32c-1.52-5.11-3.27-10.14-5.25-15.1c-2.3,0.62-4.88-0.69-5.82-2.89
	c-4.07,1.09-8.14,2.18-12.21,3.27c0.95,2.2-0.21,4.5-2.5,5.12c1.98,4.95,3.73,9.99,5.25,15.1C131.33,69.98,134.5,66.91,138.94,65.72
	z M132.82,59.62c-0.68-1.79,0.35-3.66,2.35-4.19c1.99-0.53,4.19,0.47,4.87,2.26c0.68,1.79-0.42,3.68-2.41,4.22
	C135.63,62.43,133.5,61.4,132.82,59.62z"/>
<path class="st2" d="M144.62,100.53c0.67-0.18,1.34-0.36,2-0.54c2.46-3.28,5.76-5.86,9.58-7.44c-0.75-5.14-1.73-10.24-2.93-15.29
	c-1.24,3.6-4.68,6.75-9.12,7.94c-4.45,1.19-8.73,0.11-11.43-2.44c0.68,2.87,1.29,5.75,1.83,8.65
	C138.77,93.38,142.28,96.58,144.62,100.53z M144.93,89.17c1.99-0.53,3.89,0.56,4.2,2.45c0.31,1.89-1.1,3.86-3.09,4.39
	c-1.99,0.53-3.82-0.57-4.13-2.46C141.6,91.66,142.94,89.7,144.93,89.17z"/>
<path class="st2" d="M140.57,77.59c0.63-0.17,0.68-0.85,0.47-2.13c-0.33-2.24-0.42-4.09,2.16-4.91c1.66-0.44,3.12,0.3,3.98,2.18
	c0.41-0.11,0.81-0.22,1.22-0.33c0.22,0.79,0.43,1.59,0.64,2.38c-0.41,0.11-0.81,0.22-1.22,0.33c0.11,1.35-0.35,2.44-1.37,3.29
	c-0.04,0.04-0.07,0.07-0.11,0.1c-0.1,0.08-0.21,0.17-0.31,0.25c-0.54-0.68-1.08-1.37-1.62-2.05c0.13-0.12,0.26-0.24,0.4-0.36
	c0.54-0.48,0.73-0.98,0.5-1.85c-0.3-1.13-0.68-1.54-1.35-1.36c-0.59,0.16-0.62,0.88-0.42,2.14c0.34,2.15,0.32,4.2-2.26,4.89
	c-1.69,0.45-3.13-0.35-4-2.23c-0.42,0.11-0.84,0.23-1.27,0.34c-0.21-0.8-0.42-1.59-0.64-2.38c0.41-0.11,0.82-0.22,1.23-0.33
	c-0.19-1.62,0.29-2.83,1.44-3.67c0.14-0.1,0.28-0.2,0.42-0.3c0.51,0.71,1.02,1.43,1.52,2.14c-0.14,0.1-0.27,0.21-0.41,0.31
	c-0.58,0.43-0.73,1.1-0.49,2C139.41,77.25,139.89,77.77,140.57,77.59z"/>
<path class="st1" d="M145.35,104.86c-0.04,0-0.08,0-0.12,0c-1.09-0.04-2.07-0.67-2.56-1.64c-3.26-6.46-9.77-10.64-16.98-10.91
	c-5.82-0.22-11.41,2.1-15.36,6.37c-1.13,1.22-3.02,1.29-4.24,0.16c-1.22-1.13-1.29-3.02-0.16-4.24c5.14-5.56,12.44-8.58,19.99-8.29
	c7.82,0.3,15,4.12,19.64,10.24c5.09-5.75,12.54-9.02,20.36-8.71c5.65,0.22,10.94,2.21,15.32,5.77c1.29,1.05,1.48,2.93,0.44,4.22
	c-1.04,1.29-2.93,1.48-4.22,0.44c-3.36-2.73-7.42-4.26-11.76-4.43c-7.21-0.27-14.02,3.39-17.77,9.58
	C147.37,104.32,146.4,104.86,145.35,104.86z"/>
<path class="st0" d="M154.4,179.6c2.36-6.07,7.25-10.99,13.56-13.26c-5.93-12.94-13.37-25.12-22.21-36.35
	c-0.59-0.74-1.46-1.14-2.36-1.14c-0.5,0-1,0.12-1.46,0.38l-23.19,12.98c-0.77,0.43-1.31,1.17-1.48,2.03
	c-0.17,0.86,0.04,1.75,0.58,2.44c5.94,7.54,11.21,15.52,15.8,23.88C141.93,169.67,149.71,173.33,154.4,179.6z"/>
<path class="st1" d="M137,170.44c-4.84-9-10.46-17.57-16.8-25.62c7.73-4.33,15.46-8.65,23.19-12.98
	c8.67,11.01,15.99,22.99,21.82,35.69c1.76-0.91,3.66-1.6,5.67-2.03c-6.06-13.31-13.68-25.84-22.77-37.38
	c-1.17-1.49-2.93-2.29-4.72-2.29c-1,0-2,0.25-2.93,0.76l-23.19,12.98c-1.53,0.86-2.61,2.34-2.95,4.06s0.08,3.51,1.17,4.89
	c5.62,7.13,10.64,14.68,15.04,22.57c0.8-0.2,1.61-0.36,2.44-0.47C134.33,170.44,135.68,170.39,137,170.44z"/>
<path class="st2" d="M141.97,152.64c4.07-2.27,8.79-2.42,12.24-0.68c-2.77-4.64-5.74-9.15-8.93-13.53
	c-2.11,1.18-4.97,0.54-6.44-1.39c-3.73,2.09-7.46,4.17-11.19,6.26c1.48,1.93,0.92,4.48-1.18,5.65c3.18,4.37,6.16,8.89,8.93,13.53
	C135.55,158.73,137.9,154.92,141.97,152.64z M134.43,148.17c-1.11-1.59-0.56-3.68,1.26-4.71c1.83-1.02,4.24-0.58,5.35,1.01
	c1.11,1.59,0.5,3.72-1.32,4.75C137.9,150.24,135.55,149.76,134.43,148.17z"/>
<path class="st2" d="M153.7,174.19c1.25-0.7,2.64-0.62,3.65,0.06c1.56-2.11,3.49-3.95,5.7-5.43c-1.3-2.84-2.67-5.64-4.12-8.41
	c-0.32,3.85-2.91,7.8-6.98,10.07c-2.28,1.27-4.67,1.81-6.92,1.74c2.48,1.06,4.75,2.55,6.7,4.39
	C152.05,175.64,152.73,174.74,153.7,174.19z"/>
<path class="st2" d="M146.53,163.9c0.58-0.32,0.46-1-0.07-2.21c-0.88-2.12-1.43-3.91,0.89-5.37c1.52-0.85,3.14-0.48,4.45,1.15
	c0.37-0.21,0.74-0.42,1.12-0.62c0.41,0.72,0.82,1.45,1.22,2.18c-0.37,0.21-0.74,0.42-1.12,0.62c0.45,1.3,0.27,2.48-0.52,3.58
	c-0.03,0.05-0.05,0.08-0.08,0.12c-0.08,0.11-0.16,0.22-0.24,0.33c-0.7-0.54-1.4-1.08-2.11-1.61c0.1-0.15,0.2-0.3,0.3-0.45
	c0.41-0.61,0.47-1.14,0.03-1.94c-0.58-1.03-1.05-1.34-1.67-0.99c-0.54,0.3-0.39,1.02,0.12,2.2c0.87,2.03,1.36,4.05-1,5.37
	c-1.55,0.87-3.16,0.43-4.49-1.19c-0.39,0.22-0.77,0.43-1.16,0.65c-0.4-0.73-0.81-1.46-1.22-2.18c0.38-0.21,0.75-0.42,1.13-0.63
	c-0.59-1.54-0.42-2.86,0.5-3.96c0.11-0.13,0.23-0.27,0.34-0.4c0.68,0.57,1.36,1.15,2.03,1.73c-0.11,0.14-0.21,0.27-0.32,0.41
	c-0.46,0.56-0.44,1.26,0.02,2.09C145.3,163.86,145.9,164.25,146.53,163.9z"/>
<path class="st1" d="M116.84,183.91c-0.56,0-1.12-0.15-1.62-0.48c-1.39-0.9-1.8-2.75-0.9-4.15c4.1-6.37,10.75-10.61,18.25-11.64
	c7.75-1.06,15.49,1.45,21.12,6.68c4.02-6.54,10.79-11.05,18.54-12.11c5.6-0.77,11.16,0.28,16.09,3.02c1.45,0.81,1.97,2.63,1.16,4.08
	c-0.81,1.45-2.63,1.97-4.08,1.16c-3.78-2.1-8.05-2.9-12.35-2.32c-7.15,0.98-13.22,5.78-15.84,12.52c-0.39,1.02-1.31,1.74-2.39,1.89
	c-1.08,0.15-2.16-0.3-2.81-1.17c-4.33-5.79-11.47-8.78-18.62-7.8c-5.76,0.79-10.87,4.05-14.02,8.94
	C118.79,183.42,117.82,183.91,116.84,183.91z"/>
<path class="st6" d="M193.96,355v-3c0-6.62,5.38-12,12-12s12,5.38,12,12v3H193.96z"/>
<path class="st1" d="M205.96,343c4.97,0,9,4.03,9,9h-18C196.96,347.03,200.99,343,205.96,343 M205.96,337c-8.27,0-15,6.73-15,15v6h6
	h18h6v-6C220.96,343.73,214.23,337,205.96,337L205.96,337z"/>
<path class="st6" d="M145.96,355v-3c0-6.62,5.38-12,12-12c6.62,0,12,5.38,12,12v3H145.96z"/>
<path class="st1" d="M157.96,343c4.97,0,9,4.03,9,9h-18C148.96,347.03,152.99,343,157.96,343 M157.96,337c-8.27,0-15,6.73-15,15v6h6
	h18h6v-6C172.96,343.73,166.23,337,157.96,337L157.96,337z"/>
<path class="st6" d="M121.96,355v-3c0-6.62,5.38-12,12-12s12,5.38,12,12v3H121.96z"/>
<path class="st1" d="M133.96,343c4.97,0,9,4.03,9,9h-18C124.96,347.03,128.99,343,133.96,343 M133.96,337c-8.27,0-15,6.73-15,15v6h6
	h18h6v-6C148.96,343.73,142.23,337,133.96,337L133.96,337z"/>
<path class="st6" d="M97.96,355v-3c0-6.62,5.38-12,12-12s12,5.38,12,12v3H97.96z"/>
<path class="st1" d="M109.96,343c4.97,0,9,4.03,9,9h-18C100.96,347.03,104.99,343,109.96,343 M109.96,337c-8.27,0-15,6.73-15,15v6h6
	h18h6v-6C124.96,343.73,118.23,337,109.96,337L109.96,337z"/>
<path class="st6" d="M169.96,355v-3c0-6.62,5.38-12,12-12s12,5.38,12,12v3H169.96z"/>
<path class="st1" d="M181.96,343c4.97,0,9,4.03,9,9h-18C172.96,347.03,176.99,343,181.96,343 M181.96,337c-8.27,0-15,6.73-15,15v6h6
	h18h6v-6C196.96,343.73,190.23,337,181.96,337L181.96,337z"/>
<line class="st2" x1="92.96" y1="355" x2="222.96" y2="355"/>
<path class="st1" d="M222.96,358h-130c-1.66,0-3-1.34-3-3s1.34-3,3-3h130c1.66,0,3,1.34,3,3S224.62,358,222.96,358z"/>
<path class="st0" d="M371.5,336.67c-0.33,0-0.66-0.05-0.98-0.16l-24.79-8.52c-1.4-0.48-2.23-1.9-1.98-3.36
	c3.23-18.38,9.31-36.05,18.06-52.52c0.53-1,1.57-1.59,2.65-1.59c0.32,0,0.65,0.05,0.98,0.16l24.79,8.52
	c0.83,0.29,1.49,0.92,1.82,1.74c0.32,0.82,0.27,1.73-0.14,2.51c-8.46,15.92-14.33,32.99-17.45,50.75c-0.15,0.86-0.67,1.62-1.43,2.06
	C372.56,336.53,372.03,336.67,371.5,336.67z"/>
<path class="st1" d="M364.47,273.51c8.26,2.84,16.52,5.68,24.79,8.52c-8.59,16.17-14.58,33.6-17.76,51.64
	c-8.26-2.84-16.52-5.68-24.79-8.52C349.89,307.11,355.88,289.68,364.47,273.51 M364.48,267.51c-2.17,0-4.23,1.18-5.3,3.19
	c-8.9,16.75-15.08,34.72-18.37,53.41c-0.51,2.91,1.17,5.75,3.96,6.71l24.79,8.52c0.63,0.22,1.29,0.33,1.95,0.33
	c1.06,0,2.11-0.28,3.05-0.83c1.51-0.89,2.56-2.4,2.86-4.13c3.07-17.44,8.84-34.22,17.15-49.86c0.82-1.55,0.93-3.38,0.28-5.02
	c-0.64-1.63-1.97-2.9-3.63-3.47l-16.61-5.71l-8.18-2.81C365.78,267.61,365.12,267.51,364.48,267.51L364.48,267.51z"/>
<path class="st2" d="M363.81,280.24c-2.32,4.8-4.42,9.71-6.29,14.7c3.04-2.3,7.65-2.98,12-1.49c4.35,1.5,7.3,4.78,8.11,8.4
	c1.87-4.99,3.97-9.89,6.29-14.7c-2.25-0.77-3.24-3.15-2.14-5.28c-3.99-1.37-7.97-2.74-11.96-4.11
	C368.72,279.89,366.06,281.01,363.81,280.24z M376.04,287.78c-0.8,1.74-3,2.61-4.95,1.94c-1.95-0.67-2.92-2.64-2.11-4.37
	c0.8-1.74,3.06-2.59,5.01-1.92C375.94,284.11,376.84,286.05,376.04,287.78z"/>
<path class="st0" d="M358.61,345.46c-0.59,0-1.18-0.17-1.68-0.51L335.2,330.3c-1.22-0.82-1.67-2.42-1.04-3.75
	c7.88-16.91,18.32-32.41,31.04-46.06c0.59-0.63,1.39-0.96,2.2-0.96c0.58,0,1.16,0.17,1.68,0.51l21.73,14.65
	c0.73,0.49,1.2,1.27,1.3,2.15s-0.19,1.74-0.79,2.39c-12.29,13.19-22.38,28.16-29.99,44.5c-0.37,0.8-1.07,1.39-1.92,1.62
	C359.15,345.43,358.88,345.46,358.61,345.46z"/>
<path class="st1" d="M367.39,282.54c7.24,4.88,14.49,9.77,21.73,14.65c-12.48,13.4-22.78,28.68-30.52,45.28
	c-7.24-4.88-14.49-9.77-21.73-14.65C344.61,311.22,354.91,295.93,367.39,282.54 M367.39,276.54c-1.62,0-3.22,0.65-4.39,1.91
	c-12.93,13.88-23.55,29.64-31.57,46.84c-1.25,2.68-0.36,5.86,2.09,7.51l21.73,14.65c1,0.67,2.17,1.02,3.35,1.02
	c0.54,0,1.08-0.07,1.61-0.22c1.69-0.47,3.09-1.66,3.83-3.25c7.48-16.05,17.39-30.77,29.47-43.72c1.2-1.28,1.77-3.03,1.57-4.77
	c-0.2-1.74-1.15-3.31-2.61-4.29l-17.45-11.76l-4.29-2.89C369.72,276.87,368.55,276.54,367.39,276.54L367.39,276.54z"/>
<path class="st2" d="M355.82,319.83c-3.81-2.57-6.04-6.66-6.04-10.47c-2.86,4.5-5.51,9.13-7.94,13.87c1.98,1.33,2.68,4.13,1.64,6.29
	c3.5,2.36,6.99,4.71,10.49,7.07c1.04-2.16,3.53-2.8,5.5-1.47c2.44-4.75,5.09-9.38,7.94-13.87
	C364.04,322.77,359.64,322.4,355.82,319.83z M355.24,328.45c-0.91,1.69-2.99,2.13-4.71,0.98c-1.71-1.15-2.4-3.47-1.49-5.16
	c0.9-1.69,3.05-2.1,4.76-0.95C355.52,324.48,356.14,326.76,355.24,328.45z"/>
<path class="st2" d="M365,288.86c-3.49,4.04-6.78,8.23-9.88,12.57c3.53-1.43,8.16-0.9,11.97,1.67c3.82,2.57,5.81,6.51,5.66,10.22
	c3.1-4.33,6.39-8.53,9.88-12.57c-1.97-1.33-2.31-3.88-0.7-5.65c-3.5-2.36-6.99-4.71-10.49-7.07
	C369.84,289.8,366.98,290.2,365,288.86z M374.87,299.32c-1.22,1.47-3.57,1.75-5.29,0.6c-1.71-1.15-2.13-3.3-0.91-4.77
	c1.22-1.47,3.63-1.7,5.34-0.55C375.72,295.74,376.09,297.85,374.87,299.32z"/>
<path class="st0" d="M356.12,345.27c-0.38,0-0.76-0.07-1.12-0.22c-0.81-0.33-1.44-1-1.72-1.83c-5.73-17.09-14.07-33.11-24.8-47.59
	c-0.52-0.71-0.71-1.6-0.51-2.46c0.2-0.85,0.76-1.58,1.54-1.99l23.24-12.11c0.44-0.23,0.92-0.34,1.38-0.34
	c0.92,0,1.83,0.43,2.41,1.21c11.1,14.99,19.74,31.56,25.67,49.25c0.47,1.4-0.15,2.93-1.46,3.61l-23.24,12.11
	C357.07,345.15,356.59,345.27,356.12,345.27z"/>
<path class="st1" d="M354.13,281.73c10.9,14.72,19.42,31.06,25.23,48.42c-7.75,4.04-15.5,8.07-23.24,12.11
	c-5.82-17.37-14.33-33.71-25.23-48.42C338.63,289.81,346.38,285.77,354.13,281.73 M354.12,275.73c-0.94,0-1.89,0.22-2.77,0.68
	l-23.24,12.11c-1.56,0.81-2.68,2.26-3.07,3.97s-0.02,3.51,1.03,4.92c10.54,14.23,18.74,29.96,24.37,46.76
	c0.56,1.66,1.82,3,3.44,3.66c0.72,0.29,1.48,0.44,2.25,0.44c0.95,0,1.91-0.23,2.77-0.68l22.65-11.8l0.6-0.31
	c2.62-1.36,3.85-4.43,2.92-7.23c-6.03-17.99-14.81-34.84-26.1-50.09C357.78,276.59,355.97,275.73,354.12,275.73L354.12,275.73z"/>
<path class="st2" d="M352.11,302.2c4.08-2.12,8.74-2.13,12.08-0.31c-2.59-4.65-5.39-9.19-8.4-13.6c-2.11,1.1-4.91,0.39-6.31-1.56
	c-3.74,1.95-7.48,3.9-11.21,5.84c1.4,1.94,0.78,4.44-1.33,5.54c3.01,4.41,5.81,8.94,8.4,13.6
	C345.6,308.01,348.03,304.32,352.11,302.2z M344.81,297.57c-1.05-1.6-0.45-3.65,1.38-4.6c1.83-0.95,4.19-0.45,5.24,1.15
	c1.05,1.6,0.39,3.69-1.44,4.64C348.17,299.71,345.86,299.17,344.81,297.57z"/>
<path class="st10" d="M342,349c-7.17,0-13-5.83-13-13v-26c0-1.66,1.34-3,3-3h54c1.66,0,3,1.34,3,3v26c0,7.17-5.83,13-13,13H342z"/>
<path class="st1" d="M386,304h-54c-3.31,0-6,2.69-6,6v26c0,8.82,7.18,16,16,16h34c8.82,0,16-7.18,16-16v-26
	C392,306.69,389.31,304,386,304z M380,332v-8h6v8H380z M332,324h6v8h-6V324z M344,324h6v8h-6V324z M356,324h6v8h-6V324z M368,324h6
	v8h-6V324z M386,310v8h-6v-8H386z M374,310v8h-6v-8H374z M362,310v8h-6v-8H362z M350,310v8h-6v-8H350z M332,310h6v8h-6V310z
	 M332.2,338h5.8v7.16C335.06,343.88,332.85,341.22,332.2,338z M344,346v-8h6v8H344z M356,346v-8h6v8H356z M368,346v-8h6v8H368z
	 M380,345.16V338h5.8C385.15,341.22,382.94,343.88,380,345.16z"/>
<path class="st11" d="M137.96,282.23L137.96,282.23c-6.9,0-12.5-5.6-12.5-12.5v-4.83c0-1.73,1.4-3.12,3.12-3.12h18.75
	c1.73,0,3.12,1.4,3.12,3.12v4.83C150.46,276.63,144.86,282.23,137.96,282.23z"/>
<polygon class="st12" points="126.96,282 132.96,282 139.96,262 133.96,262 "/>
<polygon class="st12" points="135.96,282 139.96,282 146.96,262 142.96,262 "/>
<path class="st11" d="M177.96,282.23L177.96,282.23c-6.9,0-12.5-5.6-12.5-12.5v-4.83c0-1.73,1.4-3.12,3.12-3.12h18.75
	c1.73,0,3.12,1.4,3.12,3.12v4.83C190.46,276.63,184.86,282.23,177.96,282.23z"/>
<polygon class="st12" points="166.96,282 172.96,282 179.96,262 173.96,262 "/>
<polygon class="st12" points="175.96,282 179.96,282 186.96,262 182.96,262 "/>
<path class="st1" d="M195.96,257h-26.25c-3.12,0-5.86,1.65-7.41,4.12c-1.29-0.71-2.77-1.12-4.34-1.12s-3.05,0.41-4.34,1.12
	c-1.55-2.47-4.29-4.12-7.41-4.12h-26.25c-2.21,0-4,1.79-4,4c0,2.21,1.79,4,4,4h1v5c0,9.37,7.63,17,17,17s17-7.63,17-17v-1
	c0-1.65,1.35-3,3-3s3,1.35,3,3v1c0,9.37,7.63,17,17,17s17-7.63,17-17v-5h1c2.21,0,4-1.79,4-4C199.96,258.79,198.17,257,195.96,257z
	 M148.96,270c0,6.08-4.92,11-11,11s-11-4.92-11-11v-4.25c0-1.52,1.23-2.75,2.75-2.75h16.5c1.52,0,2.75,1.23,2.75,2.75V270z
	 M188.96,270c0,6.08-4.92,11-11,11s-11-4.92-11-11v-4.25c0-1.52,1.23-2.75,2.75-2.75h16.5c1.52,0,2.75,1.23,2.75,2.75V270z"/>
<path class="st12" d="M121.96,262h-2c-0.55,0-1-0.45-1-1l0,0c0-0.55,0.45-1,1-1h2c0.55,0,1,0.45,1,1l0,0
	C122.96,261.55,122.51,262,121.96,262z"/>
<path class="st12" d="M193.96,262h2c0.55,0,1-0.45,1-1l0,0c0-0.55-0.45-1-1-1h-2c-0.55,0-1,0.45-1,1l0,0
	C192.96,261.55,193.41,262,193.96,262z"/>
<rect class="st13" width="400" height="400"/>
<path class="st0" d="M71.95,295.62c-1.32,0-2.42-1.03-2.5-2.35c-0.03-0.5-0.6-12.21,11.01-19.47c0.41-0.26,0.87-0.38,1.32-0.38
	c0.75,0,1.49,0.34,1.98,0.97c0.79,1.02,0.67,2.46-0.26,3.35c-0.21,0.21-5.49,5.42-5.06,15.27c0.03,0.68-0.22,1.34-0.69,1.84
	c-0.47,0.49-1.12,0.77-1.81,0.77H71.95z"/>
<path class="st14" d="M81.79,275.93c0,0-6.33,5.97-5.84,17.19h-4C71.95,293.12,71.3,282.48,81.79,275.93 M81.84,270.91
	c-0.93,0-1.87,0.25-2.7,0.77c-12.87,8.04-12.22,21.18-12.19,21.74c0.16,2.64,2.35,4.7,4.99,4.7h4c1.36,0,2.67-0.56,3.61-1.54
	c0.94-0.98,1.44-2.31,1.38-3.67c-0.36-8.39,3.9-12.95,4.3-13.36c1.91-1.73,2.15-4.6,0.59-6.67
	C84.86,271.59,83.37,270.91,81.84,270.91L81.84,270.91z M81.79,280.93L81.79,280.93L81.79,280.93L81.79,280.93z"/>
<path class="st6" d="M90.98,279.4c-5.15,0-9.47-2.26-9.65-2.36c-0.57-0.3-1-0.82-1.21-1.44c-0.12-0.38-2.98-9.42,1.94-16.19
	c3.27-4.5,9.03-6.79,17.1-6.79c2.05,0,4.28,0.15,6.63,0.44c1.3,0.16,2.25,1.3,2.19,2.61C107.53,264.54,104.73,279.4,90.98,279.4
	C90.98,279.4,90.98,279.4,90.98,279.4z"/>
<path class="st14" d="M106.1,250.59c-2.45-0.31-4.79-0.46-6.94-0.46c-8.92,0-15.35,2.63-19.12,7.82c-5.56,7.66-2.65,17.35-2.3,18.43
	c0.4,1.23,1.26,2.26,2.41,2.87c0.51,0.27,5.16,2.65,10.82,2.65c6.79,0,18.35-3.39,19.5-26.1
	C110.61,253.19,108.7,250.91,106.1,250.59z M90.98,276.9c-2.83,0-5.4-0.79-6.95-1.39l2.02-1.7l7.83,0.69c0.04,0,0.09,0.01,0.13,0.01
	c0.77,0,1.42-0.59,1.49-1.37c0.07-0.83-0.54-1.55-1.36-1.62l-4.84-0.42l2.88-2.42l7.83,0.69c0.04,0,0.09,0.01,0.13,0.01
	c0.77,0,1.42-0.59,1.49-1.37c0.07-0.83-0.54-1.55-1.36-1.62l-4.84-0.42l6.42-5.39c0.63-0.53,0.72-1.48,0.18-2.11
	c-0.53-0.63-1.48-0.72-2.11-0.19l-6.42,5.39l0.42-4.85c0.07-0.83-0.54-1.55-1.36-1.62c-0.82-0.07-1.55,0.54-1.62,1.36l-0.69,7.83
	l-2.88,2.42l0.42-4.85c0.07-0.83-0.54-1.55-1.36-1.62c-0.82-0.07-1.55,0.54-1.62,1.36l-0.69,7.83l-2.02,1.7
	c-0.94-4.71-1.94-18.08,17.06-18.08c1.9,0,4,0.13,6.32,0.42C104.6,273.15,97.16,276.9,90.98,276.9z"/>
<path class="st4" d="M54.08,309.99c-1.23,0-2.33-0.75-2.78-1.88c-0.46-1.14-0.17-2.44,0.71-3.29c0.42-0.4,10.4-9.82,22-9.82
	c11.59,0,21.58,9.42,22,9.82c0.89,0.85,1.17,2.15,0.71,3.29s-1.56,1.88-2.78,1.88H54.08z"/>
<path class="st1" d="M74,298c10.52,0,19.92,8.99,19.92,8.99H54.08C54.08,306.99,63.48,298,74,298 M74,292
	c-12.57,0-22.93,9.56-24.07,10.65c-1.77,1.69-2.33,4.3-1.42,6.57c0.91,2.27,3.12,3.77,5.57,3.77h39.84c2.45,0,4.66-1.49,5.57-3.77
	c0.91-2.27,0.35-4.88-1.42-6.57C96.93,301.56,86.57,292,74,292L74,292z"/>
<path class="st9" d="M54,361c-1.5,0-2.77-1.1-2.97-2.59l-5-36c-0.12-0.86,0.14-1.73,0.71-2.38S48.13,319,49,319h50
	c0.87,0,1.69,0.38,2.26,1.03c0.57,0.65,0.83,1.52,0.71,2.38l-5,36C96.77,359.9,95.5,361,94,361H54z"/>
<path class="st1" d="M99,322l-5,36H54l-5-36H99 M99,316H49c-1.74,0-3.39,0.75-4.53,2.06c-1.14,1.31-1.66,3.05-1.42,4.77l5,36
	c0.41,2.97,2.95,5.17,5.94,5.17h40c2.99,0,5.53-2.21,5.94-5.17l5-36c0.24-1.72-0.28-3.46-1.42-4.77C102.39,316.75,100.74,316,99,316
	L99,316z M99,328L99,328L99,328L99,328z"/>
<polygon class="st15" points="49,322 50.67,334 97.33,334 99,322 "/>
<path class="st9" d="M44,325c-1.66,0-3-1.34-3-3v-12c0-1.66,1.34-3,3-3h60c1.66,0,3,1.34,3,3v12c0,1.66-1.34,3-3,3H44z"/>
<path class="st1" d="M104,310v12H44v-12H104 M104,304H44c-3.31,0-6,2.69-6,6v12c0,3.31,2.69,6,6,6h60c3.31,0,6-2.69,6-6v-12
	C110,306.69,107.31,304,104,304L104,304z"/>
<rect x="44" y="310" class="st16" width="60" height="4"/>
</svg>
