<svg width="238" height="562" viewBox="0 0 238 562" fill="none" xmlns="http://www.w3.org/2000/svg">
<mask id="mask0" mask-type="alpha" maskUnits="userSpaceOnUse" x="0" y="0" width="238" height="562">
<rect width="238" height="562" fill="#C4C4C4"/>
</mask>
<g mask="url(#mask0)">
<path d="M162.905 325.476C162.499 325.476 162.098 325.384 161.733 325.205C161.239 324.959 160.836 324.564 160.58 324.075C160.324 323.587 160.229 323.03 160.307 322.485L160.902 318.312L152.749 321.575C152.441 321.702 152.111 321.768 151.778 321.767C151.385 321.775 150.996 321.694 150.638 321.532C150.281 321.369 149.965 321.128 149.713 320.826C149.461 320.525 149.28 320.171 149.183 319.79C149.086 319.41 149.076 319.012 149.154 318.627L150.667 311.069L144.684 313.527C144.27 313.695 143.82 313.754 143.377 313.7C142.935 313.646 142.513 313.48 142.152 313.217C141.791 312.954 141.503 312.604 141.316 312.199C141.128 311.794 141.047 311.348 141.079 310.903L141.692 304.106C141.748 303.494 142.018 302.921 142.453 302.487L160.438 284.485C163.053 281.661 164.472 277.934 164.397 274.087C164.321 270.239 162.757 266.571 160.033 263.852C157.309 261.134 153.637 259.577 149.79 259.51C145.942 259.442 142.218 260.869 139.4 263.49L121.555 281.335C121.119 281.773 120.542 282.042 119.928 282.097L112.002 282.735H111.775C111.37 282.734 110.971 282.639 110.61 282.459C110.248 282.278 109.933 282.016 109.689 281.693C109.445 281.371 109.279 280.996 109.204 280.599C109.128 280.201 109.146 279.792 109.255 279.402L111.005 273.06L104.112 274.687C103.68 274.786 103.231 274.774 102.805 274.653C102.38 274.531 101.992 274.304 101.677 273.993C101.363 273.681 101.133 273.295 101.008 272.87C100.883 272.446 100.867 271.996 100.962 271.564L102.642 264.015L100.726 264.225H100.429C99.9145 264.219 99.413 264.063 98.9869 263.775C98.5608 263.486 98.2288 263.079 98.0321 262.604C97.8354 262.129 97.7828 261.606 97.8808 261.101C97.9787 260.596 98.223 260.131 98.5831 259.764L117.137 241.201C125.837 232.501 137.637 227.613 149.941 227.613C162.245 227.613 174.045 232.501 182.745 241.201C191.445 249.901 196.333 261.701 196.333 274.005C196.333 286.309 191.445 298.109 182.745 306.809L164.768 324.724C164.522 324.966 164.231 325.157 163.911 325.286C163.592 325.415 163.25 325.48 162.905 325.476V325.476Z" fill="#75A5C3"/>
<path d="M149.915 230.249C158.563 230.254 167.017 232.823 174.206 237.632C181.394 242.441 186.996 249.273 190.303 257.264C193.61 265.256 194.473 274.049 192.784 282.531C191.094 291.013 186.928 298.804 180.811 304.919L162.87 322.852L164.191 314.227L151.822 319.178L154.288 306.809L143.791 311.183L144.412 304.377L162.354 286.435C165.634 283.154 167.477 278.703 167.476 274.063C167.475 269.423 165.631 264.973 162.349 261.692C159.068 258.412 154.617 256.569 149.977 256.57C145.337 256.571 140.887 258.415 137.607 261.697L119.761 279.542L111.775 280.111L114.775 269.508L103.525 272.133L106.001 260.997L100.438 261.618L118.991 243.055C123.048 238.989 127.868 235.764 133.175 233.567C138.482 231.369 144.171 230.241 149.915 230.249V230.249ZM149.915 225C143.48 224.984 137.106 226.243 131.162 228.705C125.217 231.168 119.82 234.785 115.282 239.346L96.7198 257.909C96.0522 258.577 95.5773 259.413 95.3452 260.329C95.1131 261.245 95.1325 262.206 95.4012 263.112C95.6699 264.017 96.178 264.834 96.872 265.474C97.566 266.115 98.42 266.557 99.3441 266.753L98.3993 270.996C98.229 271.763 98.2332 272.559 98.4117 273.324C98.5901 274.09 98.9382 274.805 99.4303 275.418C99.9223 276.031 100.546 276.526 101.255 276.866C101.963 277.206 102.739 277.382 103.525 277.381C103.923 277.381 104.319 277.337 104.706 277.25L107.331 276.612L106.745 278.685C106.525 279.464 106.488 280.283 106.637 281.078C106.786 281.873 107.117 282.623 107.604 283.27C108.091 283.916 108.721 284.441 109.444 284.803C110.168 285.166 110.965 285.356 111.775 285.359C111.926 285.368 112.078 285.368 112.229 285.359L120.155 284.668C121.387 284.564 122.542 284.028 123.418 283.155L141.254 265.31C143.551 263.013 146.666 261.722 149.915 261.722C153.163 261.722 156.278 263.013 158.575 265.31C160.872 267.606 162.162 270.722 162.162 273.97C162.162 277.218 160.872 280.333 158.575 282.63L140.642 300.572C139.775 301.44 139.239 302.586 139.129 303.808L138.508 310.605C138.44 311.334 138.526 312.068 138.76 312.762C138.994 313.455 139.37 314.092 139.864 314.632C140.358 315.171 140.96 315.601 141.63 315.895C142.3 316.188 143.025 316.338 143.756 316.335C144.444 316.336 145.125 316.199 145.759 315.933L147.203 315.338L146.652 318.093C146.499 318.855 146.517 319.642 146.705 320.396C146.894 321.15 147.247 321.853 147.74 322.454C148.233 323.055 148.853 323.539 149.556 323.871C150.259 324.203 151.027 324.375 151.804 324.374C152.47 324.375 153.129 324.247 153.746 323.998L157.7 322.415C157.613 323.486 157.858 324.558 158.4 325.486C158.942 326.415 159.757 327.154 160.733 327.604C161.709 328.054 162.8 328.194 163.858 328.005C164.916 327.815 165.89 327.305 166.649 326.544L184.582 308.611C191.429 301.757 196.09 293.027 197.977 283.525C199.863 274.022 198.889 264.174 195.178 255.225C191.468 246.276 185.187 238.628 177.13 233.248C169.074 227.868 159.602 224.998 149.915 225V225Z" fill="#515979"/>
<g style="mix-blend-mode:soft-light">
<g style="mix-blend-mode:soft-light">
<path d="M118.493 265.826L107.234 268.424L109.71 257.288L104.147 257.909L100.438 261.618L106.001 260.997L103.525 272.133L114.775 269.543L111.775 280.146L119.7 279.463L123.418 275.746L115.492 276.437L118.493 265.826Z" fill="#515979"/>
</g>
</g>
<g style="mix-blend-mode:soft-light">
<g style="mix-blend-mode:soft-light">
<path d="M155.487 315.434L157.963 303.056L147.448 307.386L148.06 300.589L144.351 304.298L143.73 311.104L154.245 306.774L151.778 319.143L164.147 314.192L162.905 322.852L166.623 319.143L167.856 310.483L155.487 315.434Z" fill="#515979"/>
</g>
</g>
<path d="M180.811 243.055C172.609 234.853 161.484 230.245 149.884 230.245C138.284 230.245 127.159 234.853 118.956 243.055L115.247 246.773C123.45 238.566 134.577 233.954 146.18 233.95C157.783 233.947 168.913 238.553 177.12 246.756C185.327 254.958 189.94 266.085 189.943 277.688C189.946 289.292 185.34 300.421 177.137 308.628L180.811 304.919C184.874 300.858 188.097 296.035 190.296 290.728C192.495 285.421 193.626 279.732 193.626 273.987C193.626 268.243 192.495 262.554 190.296 257.247C188.097 251.939 184.874 247.117 180.811 243.055Z" fill="#9FC0D5"/>
<path d="M88.0858 382.205C78.9138 382.21 69.9464 379.494 62.3183 374.401C54.6902 369.308 48.7442 362.067 45.2324 353.594C41.7207 345.12 40.8011 335.796 42.5899 326.8C44.3788 317.804 48.7957 309.541 55.2819 303.056L73.8358 284.485C74.2572 284.063 74.8094 283.798 75.4016 283.732L80.9652 283.111H81.2626C81.6309 283.112 81.995 283.19 82.3311 283.341C82.6672 283.492 82.9678 283.711 83.2133 283.986C83.492 284.298 83.6922 284.671 83.7972 285.076C83.9022 285.481 83.909 285.905 83.8169 286.313L82.2511 293.381L89.4504 291.728C89.8935 291.626 90.3554 291.641 90.7909 291.771C91.2264 291.902 91.6206 292.143 91.9348 292.471C92.2478 292.8 92.4704 293.203 92.5808 293.643C92.6912 294.084 92.6856 294.545 92.5646 294.982L90.5964 301.98L94.7341 301.621H94.9615C95.4729 301.627 95.9715 301.781 96.3962 302.066C96.8209 302.351 97.153 302.754 97.3519 303.225C97.5508 303.696 97.6076 304.215 97.5155 304.718C97.4234 305.221 97.1864 305.686 96.8335 306.056L77.5885 325.301C76.0737 326.648 74.8501 328.289 73.9927 330.126C73.1352 331.962 72.6622 333.954 72.6026 335.98C72.5429 338.005 72.898 340.022 73.6459 341.905C74.3938 343.789 75.5188 345.5 76.9518 346.933C78.3848 348.366 80.0956 349.491 81.9791 350.239C83.8626 350.986 85.8791 351.341 87.9048 351.282C89.9305 351.222 91.9226 350.749 93.7589 349.892C95.5952 349.034 97.2368 347.811 98.583 346.296L117.758 327.121C118.003 326.876 118.293 326.682 118.613 326.55C118.933 326.418 119.275 326.35 119.621 326.351C120.006 326.353 120.385 326.44 120.732 326.605C121.222 326.835 121.628 327.21 121.896 327.68C122.163 328.15 122.279 328.691 122.228 329.229L122.009 331.722L128.518 329.045C128.834 328.914 129.173 328.846 129.515 328.844C130.123 328.848 130.712 329.058 131.186 329.439C131.548 329.745 131.82 330.143 131.974 330.591C132.128 331.039 132.158 331.521 132.061 331.985L130.538 339.604L138.411 336.455C138.721 336.334 139.05 336.272 139.382 336.271C139.76 336.267 140.134 336.345 140.479 336.499C140.824 336.654 141.132 336.881 141.381 337.165C141.63 337.449 141.815 337.783 141.923 338.145C142.031 338.507 142.06 338.889 142.007 339.263L140.773 347.923C140.693 348.486 140.432 349.008 140.03 349.41L120.846 368.629C116.553 372.944 111.448 376.366 105.825 378.696C100.202 381.027 94.1726 382.219 88.0858 382.205V382.205Z" fill="#75A5C3"/>
<path d="M81.2626 285.744L78.787 296.871L90.0365 294.247L87.0361 304.893L94.9615 304.202L75.7165 323.447C72.436 326.729 70.5935 331.179 70.5943 335.819C70.5947 338.117 71.0476 340.392 71.9273 342.514C72.8069 344.637 74.096 346.565 75.7209 348.19C77.3458 349.814 79.2748 351.103 81.3976 351.981C83.5205 352.86 85.7957 353.312 88.0933 353.312C92.7334 353.311 97.1833 351.467 100.464 348.185L119.578 329.037L118.956 335.842L129.454 331.512L126.978 343.882L139.347 338.939L138.114 347.599L118.991 366.774C110.777 374.917 99.6706 379.475 88.1036 379.45C76.5366 379.424 65.4506 374.818 57.2715 366.639C49.0924 358.46 44.4863 347.374 44.4609 335.807C44.4356 324.24 48.9932 313.134 57.1364 304.919L75.6903 286.357L81.2626 285.744V285.744ZM81.2626 280.496H81.1314C80.9565 280.487 80.7813 280.487 80.6065 280.496L75.1129 281.108C73.9285 281.239 72.8241 281.77 71.9813 282.613L53.4274 301.201C48.8415 305.742 45.1978 311.144 42.7059 317.096C40.2139 323.049 38.9227 329.436 38.9064 335.889C38.8901 342.343 40.1491 348.736 42.611 354.701C45.0728 360.666 48.6891 366.086 53.2521 370.65C57.815 375.213 63.2347 378.83 69.1997 381.293C75.1647 383.756 81.5575 385.015 88.0109 385C94.4642 384.984 100.851 383.694 106.804 381.203C112.757 378.712 118.159 375.069 122.7 370.483L141.875 351.308C142.68 350.504 143.202 349.46 143.363 348.334L144.596 339.674C144.724 338.764 144.611 337.836 144.267 336.984C143.924 336.131 143.363 335.384 142.641 334.816C141.918 334.248 141.059 333.88 140.149 333.749C139.24 333.617 138.312 333.727 137.458 334.067L134.081 335.414L134.65 332.544C134.836 331.613 134.767 330.649 134.449 329.755C134.131 328.86 133.576 328.068 132.843 327.464C132.11 326.86 131.228 326.466 130.289 326.324C129.35 326.182 128.39 326.297 127.512 326.657L124.712 327.812C124.495 326.904 124.039 326.071 123.392 325.398C122.745 324.726 121.93 324.238 121.032 323.984C120.134 323.731 119.184 323.722 118.281 323.958C117.378 324.195 116.554 324.667 115.895 325.328L96.7198 344.503C94.4229 346.799 91.3078 348.09 88.0595 348.09C84.8113 348.09 81.6961 346.799 79.3993 344.503C77.1025 342.206 75.8121 339.091 75.8121 335.842C75.8121 332.594 77.1025 329.479 79.3993 327.182L98.6443 307.937C99.3774 307.203 99.8765 306.268 100.079 305.251C100.281 304.233 100.177 303.179 99.78 302.22C99.3831 301.262 98.7111 300.442 97.8488 299.866C96.9865 299.289 95.9726 298.98 94.9352 298.98H94.4804H94.1304L95.0839 295.708C95.3042 294.928 95.3407 294.107 95.1906 293.31C95.0406 292.514 94.708 291.763 94.2191 291.116C93.7301 290.47 93.098 289.945 92.3723 289.584C91.6467 289.222 90.8472 289.034 90.0365 289.033C89.6393 289.034 89.2432 289.078 88.8556 289.165L85.7152 289.891L86.3362 287.056C86.4453 286.628 86.5011 286.187 86.5024 285.744C86.5025 284.361 85.9567 283.034 84.9838 282.051C84.0108 281.069 82.6892 280.509 81.3063 280.496H81.2626Z" fill="#515979"/>
<path d="M75.078 300.589L86.3276 297.991L83.3271 308.602L91.2525 307.911L94.9615 304.202L87.0361 304.893L90.0366 294.282L78.787 296.871L81.2626 285.744L75.6904 286.357L71.9813 290.074L77.5449 289.453L75.078 300.589Z" fill="#9FC0D5"/>
<path d="M139.4 338.939L127.031 343.881L129.506 331.512L118.992 335.842L119.613 329.037L115.895 332.746L115.282 339.551L125.797 335.221L123.322 347.599L135.691 342.648L134.457 351.308L138.166 347.599L139.4 338.939Z" fill="#9FC0D5"/>
<g style="mix-blend-mode:soft-light">
<g style="mix-blend-mode:soft-light">
<path d="M60.8454 363.056C52.643 354.854 48.035 343.729 48.035 332.129C48.035 320.529 52.643 309.404 60.8454 301.201L57.1364 304.919C48.9932 313.134 44.4356 324.24 44.4609 335.807C44.4862 347.374 49.0924 358.46 57.2715 366.639C65.4506 374.818 76.5366 379.424 88.1036 379.45C99.6705 379.475 110.777 374.917 118.991 366.774L122.7 363.056C114.498 371.259 103.373 375.867 91.7729 375.867C80.1729 375.867 69.048 371.259 60.8454 363.056V363.056Z" fill="#515979"/>
</g>
</g>
<path d="M168.451 266.027C167.987 266.027 167.542 265.843 167.214 265.514C166.886 265.186 166.701 264.741 166.701 264.277C166.708 263.354 166.532 262.438 166.184 261.583C165.835 260.728 165.321 259.95 164.67 259.295C164.02 258.64 163.246 258.119 162.394 257.764C161.541 257.409 160.627 257.227 159.703 257.227H159.625C159.161 257.227 158.716 257.042 158.387 256.714C158.059 256.386 157.875 255.941 157.875 255.477C157.875 255.013 158.059 254.568 158.387 254.24C158.716 253.912 159.161 253.728 159.625 253.728C161.019 253.704 162.403 253.964 163.695 254.49C164.986 255.016 166.158 255.798 167.139 256.789C168.128 257.774 168.909 258.948 169.436 260.24C169.964 261.532 170.227 262.917 170.209 264.312C170.2 264.772 170.011 265.209 169.682 265.53C169.353 265.851 168.91 266.029 168.451 266.027Z" fill="#515979"/>
<path d="M173.551 243.082C172.991 242.924 172.501 242.732 172.002 242.548L170.489 241.997L168.976 241.446C168.468 241.271 167.979 241.096 167.445 240.86L167.112 240.72C166.746 240.555 166.458 240.253 166.313 239.878C166.167 239.503 166.175 239.086 166.334 238.717C166.474 238.398 166.718 238.136 167.025 237.973C167.812 237.592 168.68 237.409 169.553 237.439C171.226 237.462 172.842 238.051 174.137 239.11C174.825 239.645 175.369 240.342 175.72 241.14C175.83 241.405 175.864 241.695 175.816 241.978C175.768 242.261 175.641 242.524 175.45 242.738C175.259 242.952 175.011 243.108 174.736 243.187C174.46 243.267 174.168 243.266 173.892 243.187L173.551 243.082Z" fill="#515979"/>
<path d="M183.042 256.492C182.815 255.967 182.64 255.468 182.456 254.961L181.905 253.456L181.354 251.943C181.17 251.436 180.986 250.946 180.82 250.395L180.724 250.045C180.668 249.854 180.649 249.654 180.67 249.456C180.691 249.259 180.751 249.067 180.846 248.892C180.941 248.718 181.07 248.563 181.224 248.439C181.379 248.314 181.557 248.22 181.747 248.164C182.081 248.062 182.441 248.08 182.762 248.217C183.564 248.569 184.264 249.116 184.8 249.809C185.337 250.438 185.763 251.154 186.06 251.926C186.349 252.701 186.5 253.521 186.506 254.349C186.542 255.223 186.358 256.092 185.973 256.877C185.788 257.235 185.468 257.505 185.085 257.628C184.701 257.751 184.284 257.717 183.926 257.533C183.616 257.373 183.371 257.11 183.235 256.789L183.042 256.492Z" fill="#515979"/>
<path d="M175.318 262.886C175.047 262.887 174.783 262.803 174.561 262.646C174.34 262.489 174.174 262.268 174.085 262.012C173.636 260.986 172.818 260.168 171.793 259.72C171.63 259.662 171.48 259.573 171.352 259.458C171.224 259.343 171.12 259.204 171.046 259.048C170.971 258.892 170.928 258.724 170.919 258.552C170.91 258.379 170.935 258.207 170.992 258.045C171.05 257.882 171.139 257.732 171.254 257.604C171.369 257.476 171.509 257.372 171.664 257.297C171.82 257.223 171.988 257.18 172.16 257.171C172.333 257.162 172.505 257.187 172.667 257.244C173.548 257.596 174.348 258.124 175.019 258.794C175.69 259.465 176.217 260.265 176.569 261.146C176.684 261.474 176.663 261.834 176.512 262.148C176.361 262.461 176.092 262.701 175.764 262.816C175.621 262.866 175.47 262.89 175.318 262.886Z" fill="#515979"/>
<path d="M177.172 261.006C179.588 261.006 181.546 259.047 181.546 256.632C181.546 254.216 179.588 252.258 177.172 252.258C174.757 252.258 172.799 254.216 172.799 256.632C172.799 259.047 174.757 261.006 177.172 261.006Z" fill="#515979"/>
<path d="M177.951 258.495C178.555 258.495 179.044 258.006 179.044 257.402C179.044 256.798 178.555 256.308 177.951 256.308C177.347 256.308 176.858 256.798 176.858 257.402C176.858 258.006 177.347 258.495 177.951 258.495Z" fill="white"/>
<path d="M165.424 252.993C165.154 252.991 164.891 252.906 164.67 252.749C164.449 252.593 164.282 252.373 164.191 252.118C163.749 251.094 162.932 250.277 161.908 249.835C161.579 249.719 161.311 249.477 161.16 249.163C161.01 248.849 160.991 248.488 161.107 248.16C161.223 247.831 161.465 247.563 161.779 247.413C162.093 247.262 162.454 247.243 162.782 247.359C163.659 247.709 164.455 248.233 165.121 248.901C165.787 249.569 166.31 250.366 166.658 251.243C166.773 251.573 166.752 251.934 166.602 252.249C166.451 252.564 166.182 252.806 165.853 252.923C165.714 252.967 165.57 252.991 165.424 252.993V252.993Z" fill="#515979"/>
<path d="M167.279 251.103C169.694 251.103 171.653 249.145 171.653 246.729C171.653 244.314 169.694 242.356 167.279 242.356C164.863 242.356 162.905 244.314 162.905 246.729C162.905 249.145 164.863 251.103 167.279 251.103Z" fill="#515979"/>
<path d="M168.049 248.601C168.652 248.601 169.142 248.112 169.142 247.508C169.142 246.904 168.652 246.415 168.049 246.415C167.445 246.415 166.955 246.904 166.955 247.508C166.955 248.112 167.445 248.601 168.049 248.601Z" fill="white"/>
<path d="M187.031 338.467C186.798 338.467 186.566 338.438 186.34 338.379L172.737 334.661C172.4 334.576 172.082 334.424 171.803 334.215C171.525 334.006 171.291 333.743 171.115 333.442C170.939 333.141 170.824 332.808 170.778 332.463C170.732 332.118 170.756 331.766 170.847 331.43C170.938 331.094 171.095 330.779 171.31 330.504C171.524 330.229 171.791 330 172.094 329.829C172.398 329.658 172.733 329.55 173.079 329.51C173.425 329.47 173.776 329.499 174.111 329.596L187.722 333.314C188.332 333.484 188.86 333.869 189.209 334.398C189.558 334.926 189.703 335.563 189.619 336.191C189.535 336.819 189.227 337.395 188.751 337.813C188.275 338.231 187.664 338.463 187.031 338.467V338.467Z" fill="#EF7D7D"/>
<path d="M153.011 372.486C152.465 372.49 151.932 372.324 151.485 372.01C151.038 371.697 150.7 371.252 150.518 370.737L146.144 357.747C145.924 357.085 145.975 356.364 146.287 355.74C146.599 355.117 147.145 354.643 147.806 354.422C148.468 354.202 149.189 354.253 149.813 354.565C150.436 354.877 150.91 355.423 151.13 356.085L155.461 369.075C155.57 369.402 155.614 369.748 155.59 370.092C155.566 370.437 155.474 370.773 155.319 371.082C155.165 371.391 154.951 371.666 154.69 371.892C154.429 372.118 154.126 372.29 153.798 372.399C153.542 372.465 153.276 372.495 153.011 372.486Z" fill="#EF7D7D"/>
<path d="M174.041 358.884C173.345 358.883 172.678 358.606 172.186 358.114L162.293 348.212C161.829 347.714 161.577 347.056 161.589 346.376C161.601 345.696 161.876 345.048 162.357 344.567C162.838 344.086 163.486 343.811 164.166 343.799C164.846 343.787 165.504 344.039 166.002 344.503L175.895 354.396C176.265 354.763 176.517 355.231 176.62 355.741C176.723 356.252 176.671 356.781 176.473 357.262C176.274 357.743 175.936 358.154 175.503 358.443C175.07 358.732 174.561 358.885 174.041 358.884V358.884Z" fill="#EF7D7D"/>
<path d="M89.6079 250.368C89.0329 250.368 88.4741 250.178 88.0173 249.829C87.5606 249.479 87.2312 248.99 87.0798 248.435L83.362 234.78C83.1787 234.108 83.2698 233.391 83.6151 232.787C83.9604 232.182 84.5318 231.74 85.2034 231.556C85.8751 231.373 86.592 231.464 87.1965 231.81C87.8011 232.155 88.2437 232.726 88.4269 233.398L92.1447 247.009C92.3267 247.681 92.2345 248.397 91.8884 249.001C91.5423 249.605 90.9705 250.046 90.2989 250.228C90.0757 250.305 89.8434 250.352 89.6079 250.368V250.368Z" fill="#EF7D7D"/>
<path d="M64.8694 275.063C64.5872 275.063 64.3068 275.019 64.0383 274.932L51.048 270.602C50.7149 270.498 50.4059 270.329 50.139 270.104C49.8722 269.879 49.6528 269.603 49.4939 269.292C49.3349 268.982 49.2395 268.642 49.2133 268.294C49.187 267.946 49.2304 267.597 49.3409 267.266C49.4514 266.935 49.6269 266.629 49.857 266.367C50.087 266.104 50.3671 265.89 50.6809 265.738C50.9946 265.585 51.3356 265.496 51.6841 265.477C52.0325 265.457 52.3813 265.507 52.7101 265.624L65.7004 269.998C66.2878 270.198 66.7854 270.6 67.1048 271.132C67.4242 271.664 67.5448 272.292 67.4452 272.904C67.3456 273.516 67.0322 274.074 66.5606 274.477C66.0891 274.88 65.4899 275.104 64.8694 275.107V275.063Z" fill="#EF7D7D"/>
<path d="M75.3841 259.597C74.6896 259.599 74.0227 259.325 73.5296 258.836L63.5922 248.934C63.1004 248.441 62.8245 247.773 62.8253 247.076C62.8261 246.38 63.1036 245.712 63.5966 245.22C64.0896 244.729 64.7578 244.453 65.4542 244.454C66.1506 244.454 66.8181 244.732 67.31 245.225L77.2386 255.119C77.6052 255.486 77.8547 255.953 77.9558 256.462C78.0569 256.97 78.0049 257.498 77.8065 257.977C77.608 258.456 77.272 258.866 76.8409 259.154C76.4098 259.443 75.9028 259.597 75.3841 259.597V259.597Z" fill="#EF7D7D"/>
<path d="M193.862 427.276H42.1379C36.6913 427.276 32.2759 431.691 32.2759 437.138V535.759C32.2759 541.205 36.6913 545.621 42.1379 545.621H193.862C199.309 545.621 203.724 541.205 203.724 535.759V437.138C203.724 431.691 199.309 427.276 193.862 427.276Z" fill="white"/>
<path d="M193.862 429.552C195.874 429.552 197.804 430.351 199.226 431.774C200.649 433.196 201.448 435.126 201.448 437.138V535.759C201.448 537.771 200.649 539.7 199.226 541.123C197.804 542.546 195.874 543.345 193.862 543.345H42.1379C40.1259 543.345 38.1964 542.546 36.7737 541.123C35.351 539.7 34.5517 537.771 34.5517 535.759V437.138C34.5517 435.126 35.351 433.196 36.7737 431.774C38.1964 430.351 40.1259 429.552 42.1379 429.552H193.862ZM193.862 425H42.1379C38.9188 425 35.8314 426.279 33.5551 428.555C31.2788 430.831 30 433.919 30 437.138L30 535.759C30 538.978 31.2788 542.065 33.5551 544.341C35.8314 546.618 38.9188 547.897 42.1379 547.897H193.862C197.081 547.897 200.169 546.618 202.445 544.341C204.721 542.065 206 538.978 206 535.759V437.138C206 433.919 204.721 430.831 202.445 428.555C200.169 426.279 197.081 425 193.862 425V425Z" fill="#515979"/>
<path d="M34.5517 453.069C33.9481 453.069 33.3693 452.829 32.9425 452.402C32.5157 451.976 32.2759 451.397 32.2759 450.793V437.138C32.2759 434.522 33.3149 432.014 35.1644 430.164C37.0139 428.315 39.5224 427.276 42.1379 427.276H193.862C196.478 427.276 198.986 428.315 200.836 430.164C202.685 432.014 203.724 434.522 203.724 437.138V450.793C203.724 451.397 203.484 451.976 203.058 452.402C202.631 452.829 202.052 453.069 201.448 453.069H34.5517Z" fill="#667683"/>
<path d="M193.862 429.552C195.874 429.552 197.804 430.351 199.226 431.774C200.649 433.196 201.448 435.126 201.448 437.138V450.793H34.5517V437.138C34.5517 435.126 35.351 433.196 36.7737 431.774C38.1964 430.351 40.1259 429.552 42.1379 429.552H193.862ZM193.862 425H42.1379C38.9188 425 35.8314 426.279 33.5551 428.555C31.2788 430.831 30 433.919 30 437.138L30 450.793C30 452 30.4796 453.158 31.3332 454.012C32.1868 454.865 33.3445 455.345 34.5517 455.345H201.448C202.655 455.345 203.813 454.865 204.667 454.012C205.52 453.158 206 452 206 450.793V437.138C206 433.919 204.721 430.831 202.445 428.555C200.169 426.279 197.081 425 193.862 425V425Z" fill="#515979"/>
<path d="M102.828 445.483C101.419 445.483 100.068 444.923 99.0726 443.927C98.0767 442.932 97.5172 441.581 97.5172 440.172C97.5172 438.764 98.0767 437.413 99.0726 436.417C100.068 435.422 101.419 434.862 102.828 434.862H189.31C190.719 434.862 192.069 435.422 193.065 436.417C194.061 437.413 194.621 438.764 194.621 440.172C194.621 441.581 194.061 442.932 193.065 443.927C192.069 444.923 190.719 445.483 189.31 445.483H102.828Z" fill="white"/>
<path d="M189.31 437.138C190.115 437.138 190.887 437.458 191.456 438.027C192.025 438.596 192.345 439.368 192.345 440.172C192.345 440.977 192.025 441.749 191.456 442.318C190.887 442.887 190.115 443.207 189.31 443.207H102.828C102.023 443.207 101.251 442.887 100.682 442.318C100.113 441.749 99.7931 440.977 99.7931 440.172C99.7931 439.368 100.113 438.596 100.682 438.027C101.251 437.458 102.023 437.138 102.828 437.138H189.31ZM189.31 432.586H102.828C100.816 432.586 98.886 433.385 97.4633 434.808C96.0406 436.231 95.2413 438.16 95.2413 440.172C95.2413 442.184 96.0406 444.114 97.4633 445.537C98.886 446.959 100.816 447.759 102.828 447.759H189.31C191.322 447.759 193.252 446.959 194.675 445.537C196.097 444.114 196.897 442.184 196.897 440.172C196.897 438.16 196.097 436.231 194.675 434.808C193.252 433.385 191.322 432.586 189.31 432.586Z" fill="#515979"/>
<path d="M46.6896 445.483C49.6224 445.483 52 443.105 52 440.172C52 437.24 49.6224 434.862 46.6896 434.862C43.7568 434.862 41.3793 437.24 41.3793 440.172C41.3793 443.105 43.7568 445.483 46.6896 445.483Z" fill="#EF7D7D"/>
<path d="M46.6896 437.138C47.2898 437.138 47.8765 437.316 48.3755 437.649C48.8745 437.983 49.2634 438.457 49.4931 439.011C49.7228 439.566 49.7829 440.176 49.6658 440.764C49.5487 441.353 49.2597 441.894 48.8353 442.318C48.4109 442.742 47.8702 443.031 47.2816 443.149C46.693 443.266 46.0828 443.206 45.5284 442.976C44.9739 442.746 44.5 442.357 44.1665 441.858C43.8331 441.359 43.6551 440.773 43.6551 440.172C43.6551 439.368 43.9748 438.596 44.5439 438.027C45.113 437.458 45.8848 437.138 46.6896 437.138V437.138ZM46.6896 432.586C45.1892 432.586 43.7225 433.031 42.4749 433.865C41.2274 434.698 40.255 435.883 39.6809 437.269C39.1067 438.655 38.9564 440.181 39.2492 441.652C39.5419 443.124 40.2644 444.476 41.3253 445.537C42.3863 446.598 43.738 447.32 45.2096 447.613C46.6812 447.906 48.2065 447.755 49.5927 447.181C50.9789 446.607 52.1637 445.635 52.9973 444.387C53.8309 443.14 54.2758 441.673 54.2758 440.172C54.2758 438.16 53.4766 436.231 52.0539 434.808C50.6312 433.385 48.7016 432.586 46.6896 432.586Z" fill="#515979"/>
<path d="M64.8965 445.483C67.8293 445.483 70.2069 443.105 70.2069 440.172C70.2069 437.24 67.8293 434.862 64.8965 434.862C61.9637 434.862 59.5862 437.24 59.5862 440.172C59.5862 443.105 61.9637 445.483 64.8965 445.483Z" fill="#FFE8A0"/>
<path d="M64.8965 437.138C65.4967 437.138 66.0834 437.316 66.5824 437.649C67.0814 437.983 67.4703 438.457 67.7 439.011C67.9297 439.566 67.9898 440.176 67.8727 440.764C67.7556 441.353 67.4666 441.894 67.0422 442.318C66.6178 442.742 66.0771 443.031 65.4885 443.149C64.8999 443.266 64.2897 443.206 63.7353 442.976C63.1808 442.746 62.7069 442.357 62.3734 441.858C62.04 441.359 61.862 440.773 61.862 440.172C61.862 439.368 62.1817 438.596 62.7508 438.027C63.3199 437.458 64.0917 437.138 64.8965 437.138V437.138ZM64.8965 432.586C63.3961 432.586 61.9294 433.031 60.6818 433.865C59.4343 434.698 58.462 435.883 57.8878 437.269C57.3136 438.655 57.1634 440.181 57.4561 441.652C57.7488 443.124 58.4713 444.476 59.5323 445.537C60.5932 446.598 61.9449 447.32 63.4165 447.613C64.8881 447.906 66.4134 447.755 67.7996 447.181C69.1858 446.607 70.3706 445.635 71.2042 444.387C72.0378 443.14 72.4827 441.673 72.4827 440.172C72.4827 438.16 71.6835 436.231 70.2608 434.808C68.8381 433.385 66.9085 432.586 64.8965 432.586V432.586Z" fill="#515979"/>
<path d="M83.1034 445.483C86.0363 445.483 88.4138 443.105 88.4138 440.172C88.4138 437.24 86.0363 434.862 83.1034 434.862C80.1706 434.862 77.7931 437.24 77.7931 440.172C77.7931 443.105 80.1706 445.483 83.1034 445.483Z" fill="#7DDF96"/>
<path d="M83.1034 437.138C83.7036 437.138 84.2903 437.316 84.7893 437.649C85.2883 437.983 85.6772 438.457 85.9069 439.011C86.1366 439.566 86.1967 440.176 86.0796 440.764C85.9625 441.353 85.6735 441.894 85.2491 442.318C84.8247 442.742 84.2841 443.031 83.6954 443.149C83.1068 443.266 82.4967 443.206 81.9422 442.976C81.3877 442.746 80.9138 442.357 80.5803 441.858C80.2469 441.359 80.0689 440.773 80.0689 440.172C80.0689 439.368 80.3886 438.596 80.9577 438.027C81.5268 437.458 82.2986 437.138 83.1034 437.138V437.138ZM83.1034 432.586C81.603 432.586 80.1363 433.031 78.8888 433.865C77.6412 434.698 76.6689 435.883 76.0947 437.269C75.5205 438.655 75.3703 440.181 75.663 441.652C75.9557 443.124 76.6782 444.476 77.7392 445.537C78.8001 446.598 80.1518 447.32 81.6234 447.613C83.095 447.906 84.6203 447.755 86.0065 447.181C87.3927 446.607 88.5775 445.635 89.4111 444.387C90.2447 443.14 90.6896 441.673 90.6896 440.172C90.6896 438.16 89.8904 436.231 88.4677 434.808C87.045 433.385 85.1154 432.586 83.1034 432.586Z" fill="#515979"/>
<path d="M51.2413 495.779C49.3718 495.774 47.5456 495.216 45.9923 494.175C44.439 493.135 43.228 491.658 42.5113 489.932C41.7947 488.205 41.6045 486.305 41.9645 484.47C42.3246 482.636 43.219 480.948 44.5351 479.621L59.5862 464.57C61.3899 462.924 63.7589 462.038 66.1999 462.095C68.6408 462.152 70.9656 463.149 72.6902 464.877C74.4147 466.606 75.4061 468.933 75.4579 471.374C75.5097 473.815 74.6179 476.182 72.9682 477.982L57.9476 493.003C57.0688 493.886 56.0237 494.586 54.8725 495.063C53.7214 495.539 52.4872 495.783 51.2413 495.779V495.779Z" fill="#F6CB9F"/>
<path d="M66.262 463.69C68.2739 463.69 70.2031 464.49 71.6255 465.913V465.913C73.0477 467.335 73.8466 469.264 73.8466 471.276C73.8466 473.288 73.0477 475.217 71.6255 476.639L56.6048 491.66C55.1822 493.082 53.2529 493.881 51.2414 493.881C49.2298 493.881 47.3005 493.082 45.8779 491.66V491.66C44.4557 490.237 43.6568 488.308 43.6568 486.297C43.6568 484.285 44.4557 482.356 45.8779 480.933L60.8986 465.913C62.321 464.49 64.2502 463.69 66.262 463.69V463.69ZM66.262 459.897C64.767 459.893 63.2861 460.185 61.9046 460.757C60.5231 461.329 59.2685 462.168 58.2131 463.227L43.1924 478.248C41.0577 480.382 39.8584 483.278 39.8584 486.297C39.8584 489.316 41.0577 492.211 43.1924 494.346C45.3271 496.48 48.2224 497.68 51.2414 497.68C54.2603 497.68 57.1556 496.48 59.2903 494.346L74.311 479.325C75.9035 477.733 76.9881 475.705 77.4276 473.497C77.8671 471.289 77.6417 469.001 76.78 466.921C75.9183 464.841 74.459 463.063 72.5868 461.813C70.7145 460.562 68.5134 459.896 66.262 459.897V459.897Z" fill="#515979"/>
<path d="M63.5766 470.108C64.4145 470.108 65.0938 469.428 65.0938 468.59C65.0938 467.752 64.4145 467.073 63.5766 467.073C62.7386 467.073 62.0593 467.752 62.0593 468.59C62.0593 469.428 62.7386 470.108 63.5766 470.108Z" fill="#EBAF8C"/>
<path d="M68.94 475.479C69.7779 475.479 70.4572 474.799 70.4572 473.961C70.4572 473.124 69.7779 472.444 68.94 472.444C68.102 472.444 67.4227 473.124 67.4227 473.961C67.4227 474.799 68.102 475.479 68.94 475.479Z" fill="#EBAF8C"/>
<path d="M64.1151 474.94C64.9531 474.94 65.6324 474.261 65.6324 473.423C65.6324 472.585 64.9531 471.906 64.1151 471.906C63.2772 471.906 62.5979 472.585 62.5979 473.423C62.5979 474.261 63.2772 474.94 64.1151 474.94Z" fill="#EBAF8C"/>
<path d="M68.409 470.646C69.2469 470.646 69.9262 469.967 69.9262 469.129C69.9262 468.291 69.2469 467.612 68.409 467.612C67.571 467.612 66.8917 468.291 66.8917 469.129C66.8917 469.967 67.571 470.646 68.409 470.646Z" fill="#EBAF8C"/>
<path d="M59.2903 474.401C60.1283 474.401 60.8076 473.722 60.8076 472.884C60.8076 472.046 60.1283 471.367 59.2903 471.367C58.4524 471.367 57.7731 472.046 57.7731 472.884C57.7731 473.722 58.4524 474.401 59.2903 474.401Z" fill="#EBAF8C"/>
<path d="M64.6538 479.765C65.4918 479.765 66.1711 479.086 66.1711 478.248C66.1711 477.41 65.4918 476.73 64.6538 476.73C63.8159 476.73 63.1366 477.41 63.1366 478.248C63.1366 479.086 63.8159 479.765 64.6538 479.765Z" fill="#EBAF8C"/>
<path d="M52.8496 480.842C53.6876 480.842 54.3669 480.163 54.3669 479.325C54.3669 478.487 53.6876 477.808 52.8496 477.808C52.0117 477.808 51.3324 478.487 51.3324 479.325C51.3324 480.163 52.0117 480.842 52.8496 480.842Z" fill="#EBAF8C"/>
<path d="M58.2132 486.206C59.0511 486.206 59.7304 485.526 59.7304 484.688C59.7304 483.85 59.0511 483.171 58.2132 483.171C57.3752 483.171 56.6959 483.85 56.6959 484.688C56.6959 485.526 57.3752 486.206 58.2132 486.206Z" fill="#EBAF8C"/>
<path d="M53.3883 485.667C54.2263 485.667 54.9056 484.988 54.9056 484.15C54.9056 483.312 54.2263 482.632 53.3883 482.632C52.5504 482.632 51.8711 483.312 51.8711 484.15C51.8711 484.988 52.5504 485.667 53.3883 485.667Z" fill="#EBAF8C"/>
<path d="M49.0945 489.961C49.9325 489.961 50.6118 489.281 50.6118 488.444C50.6118 487.606 49.9325 486.926 49.0945 486.926C48.2566 486.926 47.5773 487.606 47.5773 488.444C47.5773 489.281 48.2566 489.961 49.0945 489.961Z" fill="#EBAF8C"/>
<path d="M48.5559 485.128C49.3939 485.128 50.0732 484.449 50.0732 483.611C50.0732 482.773 49.3939 482.094 48.5559 482.094C47.718 482.094 47.0387 482.773 47.0387 483.611C47.0387 484.449 47.718 485.128 48.5559 485.128Z" fill="#EBAF8C"/>
<path d="M53.9269 490.492C54.7649 490.492 55.4442 489.812 55.4442 488.974C55.4442 488.136 54.7649 487.457 53.9269 487.457C53.089 487.457 52.4097 488.136 52.4097 488.974C52.4097 489.812 53.089 490.492 53.9269 490.492Z" fill="#EBAF8C"/>
<path d="M86.8966 483.482C87.944 483.482 88.7931 482.633 88.7931 481.586C88.7931 480.538 87.944 479.689 86.8966 479.689C85.8491 479.689 85 480.538 85 481.586C85 482.633 85.8491 483.482 86.8966 483.482Z" fill="#FDE1D9"/>
<path d="M91.0689 491.827C92.1164 491.827 92.9655 490.978 92.9655 489.93C92.9655 488.883 92.1164 488.034 91.0689 488.034C90.0215 488.034 89.1724 488.883 89.1724 489.93C89.1724 490.978 90.0215 491.827 91.0689 491.827Z" fill="#FDE1D9"/>
<path d="M82.7242 491.827C83.7716 491.827 84.6207 490.978 84.6207 489.93C84.6207 488.883 83.7716 488.034 82.7242 488.034C81.6768 488.034 80.8276 488.883 80.8276 489.93C80.8276 490.978 81.6768 491.827 82.7242 491.827Z" fill="#FDE1D9"/>
<path d="M149.103 483.482C150.151 483.482 151 482.633 151 481.586C151 480.538 150.151 479.689 149.103 479.689C148.056 479.689 147.207 480.538 147.207 481.586C147.207 482.633 148.056 483.482 149.103 483.482Z" fill="#FDE1D9"/>
<path d="M153.276 491.827C154.323 491.827 155.172 490.978 155.172 489.93C155.172 488.883 154.323 488.034 153.276 488.034C152.228 488.034 151.379 488.883 151.379 489.93C151.379 490.978 152.228 491.827 153.276 491.827Z" fill="#FDE1D9"/>
<path d="M144.931 491.827C145.978 491.827 146.828 490.978 146.828 489.93C146.828 488.883 145.978 488.034 144.931 488.034C143.884 488.034 143.034 488.883 143.034 489.93C143.034 490.978 143.884 491.827 144.931 491.827Z" fill="#FDE1D9"/>
<path d="M104.345 501.241C103.842 501.241 103.359 501.042 103.004 500.686C102.648 500.33 102.448 499.848 102.448 499.345C102.448 495.22 104.087 491.265 107.003 488.348C109.92 485.432 113.875 483.793 118 483.793C122.125 483.793 126.08 485.432 128.997 488.348C131.913 491.265 133.552 495.22 133.552 499.345C133.552 499.848 133.352 500.33 132.996 500.686C132.641 501.042 132.158 501.241 131.655 501.241H104.345Z" fill="#515979"/>
<path d="M118 485.69C121.622 485.69 125.095 487.128 127.656 489.689C130.217 492.25 131.655 495.723 131.655 499.345H104.345C104.345 495.723 105.784 492.25 108.344 489.689C110.905 487.128 114.378 485.69 118 485.69V485.69ZM118 481.897C113.372 481.897 108.934 483.735 105.662 487.007C102.39 490.279 100.552 494.717 100.552 499.345C100.552 500.351 100.951 501.316 101.663 502.027C102.374 502.738 103.339 503.138 104.345 503.138H131.655C132.661 503.138 133.626 502.738 134.337 502.027C135.049 501.316 135.448 500.351 135.448 499.345C135.448 494.717 133.61 490.279 130.338 487.007C127.066 483.735 122.628 481.897 118 481.897V481.897Z" fill="#515979"/>
<path d="M107.448 464.092C107.106 464.19 106.628 464.221 106.234 464.304C105.839 464.388 105.414 464.448 105.028 464.524C104.301 464.679 103.59 464.9 102.903 465.184C102.276 465.44 101.684 465.776 101.143 466.185C100.53 466.654 99.9473 467.16 99.3986 467.703L99.1634 467.915C98.8548 468.185 98.4521 468.322 98.0429 468.296C97.6338 468.271 97.2513 468.085 96.9786 467.779C96.828 467.604 96.7174 467.399 96.6545 467.178C96.5916 466.956 96.5779 466.724 96.6145 466.497C96.8038 465.275 97.3291 464.129 98.1317 463.189C98.3189 462.93 98.5381 462.695 98.7841 462.491C99.0269 462.286 99.2545 462.051 99.5427 461.869C99.831 461.687 100.081 461.52 100.354 461.361C101.713 460.637 103.239 460.283 104.777 460.337C105.357 460.346 105.934 460.417 106.499 460.549C107.083 460.676 107.651 460.869 108.191 461.125C108.469 461.259 108.7 461.474 108.853 461.743C109.006 462.011 109.073 462.319 109.046 462.627C109.019 462.935 108.898 463.226 108.701 463.464C108.503 463.701 108.238 463.872 107.941 463.955L107.448 464.092Z" fill="#515979"/>
<path d="M127.862 461.141C128.402 460.885 128.97 460.691 129.554 460.564C130.119 460.432 130.696 460.361 131.276 460.352C132.813 460.313 134.333 460.679 135.683 461.414C135.957 461.573 136.23 461.748 136.495 461.922C136.761 462.096 136.988 462.339 137.254 462.544C137.5 462.748 137.719 462.983 137.906 463.242C138.709 464.183 139.234 465.328 139.423 466.55C139.498 466.87 139.467 467.205 139.334 467.506C139.202 467.807 138.975 468.056 138.688 468.217C138.402 468.378 138.071 468.441 137.745 468.398C137.419 468.354 137.116 468.206 136.882 467.976L136.639 467.756C136.091 467.213 135.508 466.707 134.894 466.239C134.344 465.816 133.739 465.469 133.097 465.207C132.41 464.923 131.699 464.702 130.972 464.547C130.586 464.471 130.214 464.388 129.766 464.327C129.319 464.266 128.894 464.213 128.552 464.114L128.105 463.993C127.717 463.888 127.386 463.634 127.185 463.285C126.985 462.937 126.931 462.523 127.035 462.134C127.094 461.919 127.198 461.719 127.34 461.548C127.483 461.376 127.661 461.237 127.862 461.141Z" fill="#515979"/>
<path d="M134.333 480.759C134.084 480.76 133.837 480.711 133.606 480.616C133.376 480.521 133.166 480.381 132.99 480.205L125.404 472.619C125.048 472.263 124.848 471.78 124.848 471.276C124.848 470.772 125.048 470.289 125.404 469.933C125.76 469.577 126.243 469.377 126.747 469.377C127.25 469.377 127.733 469.577 128.09 469.933L135.676 477.519C135.942 477.785 136.123 478.123 136.196 478.491C136.27 478.86 136.232 479.241 136.088 479.588C135.945 479.935 135.701 480.232 135.388 480.44C135.076 480.648 134.709 480.759 134.333 480.759V480.759Z" fill="#515979"/>
<path d="M126.747 480.759C126.498 480.76 126.251 480.711 126.02 480.616C125.79 480.521 125.58 480.381 125.404 480.205C125.051 479.847 124.853 479.365 124.853 478.862C124.853 478.359 125.051 477.877 125.404 477.519L132.99 469.933C133.346 469.577 133.829 469.377 134.333 469.377C134.837 469.377 135.32 469.577 135.676 469.933C136.032 470.289 136.232 470.772 136.232 471.276C136.232 471.78 136.032 472.263 135.676 472.619L128.09 480.205C127.913 480.381 127.704 480.521 127.474 480.616C127.243 480.711 126.996 480.76 126.747 480.759V480.759Z" fill="#515979"/>
<path d="M109.253 480.759C109.004 480.76 108.757 480.711 108.526 480.616C108.296 480.521 108.087 480.381 107.91 480.205L100.324 472.619C99.968 472.263 99.7679 471.78 99.7679 471.276C99.7679 470.772 99.968 470.289 100.324 469.933C100.68 469.577 101.163 469.377 101.667 469.377C102.171 469.377 102.654 469.577 103.01 469.933L110.596 477.519C110.949 477.877 111.147 478.359 111.147 478.862C111.147 479.365 110.949 479.847 110.596 480.205C110.42 480.381 110.21 480.521 109.98 480.616C109.749 480.711 109.502 480.76 109.253 480.759Z" fill="#515979"/>
<path d="M101.667 480.759C101.418 480.76 101.171 480.711 100.94 480.616C100.71 480.521 100.5 480.381 100.324 480.205C99.9711 479.847 99.7732 479.365 99.7732 478.862C99.7732 478.359 99.9711 477.877 100.324 477.519L107.91 469.933C108.087 469.757 108.296 469.617 108.526 469.522C108.757 469.426 109.004 469.377 109.253 469.377C109.502 469.377 109.749 469.426 109.98 469.522C110.21 469.617 110.42 469.757 110.596 469.933C110.772 470.109 110.912 470.319 111.008 470.549C111.103 470.78 111.152 471.027 111.152 471.276C111.152 471.525 111.103 471.772 111.008 472.003C110.912 472.233 110.772 472.442 110.596 472.619L103.01 480.205C102.833 480.381 102.624 480.521 102.394 480.616C102.163 480.711 101.916 480.76 101.667 480.759V480.759Z" fill="#515979"/>
<path d="M103.92 520.017H98.7993V525.138H103.92V520.017Z" fill="#D1D6DA"/>
<path d="M93.6787 520.017H88.558V525.138H93.6787V520.017Z" fill="#D1D6DA"/>
<path d="M93.6787 514.897H88.558V520.017H93.6787V514.897Z" fill="#D1D6DA"/>
<path d="M93.6787 525.138H88.558V530.259H93.6787V525.138Z" fill="#D1D6DA"/>
<path d="M98.7993 525.138H93.6786V530.259H98.7993V525.138Z" fill="#D1D6DA"/>
<path d="M106.477 525.138H98.7993V530.259H106.477V525.138Z" fill="#D1D6DA"/>
<path d="M103.92 530.259H98.7993V535.379H103.92V530.259Z" fill="#D1D6DA"/>
<path d="M124.403 520.017H119.282V525.138H124.403V520.017Z" fill="#D1D6DA"/>
<path d="M114.161 520.017H109.041V525.138H114.161V520.017Z" fill="#D1D6DA"/>
<path d="M114.161 525.138H109.041V530.259H114.161V525.138Z" fill="#D1D6DA"/>
<path d="M124.403 530.259H109.041V535.379H124.403V530.259Z" fill="#D1D6DA"/>
<path d="M124.403 514.897H109.041V520.017H124.403V514.897Z" fill="#D1D6DA"/>
<path d="M124.403 525.138H119.282V530.259H124.403V525.138Z" fill="#D1D6DA"/>
<path d="M144.885 520.017H139.765V525.138H144.885V520.017Z" fill="#D1D6DA"/>
<path d="M134.644 520.017H129.523V525.138H134.644V520.017Z" fill="#D1D6DA"/>
<path d="M134.644 514.897H129.523V520.017H134.644V514.897Z" fill="#D1D6DA"/>
<path d="M134.644 525.138H129.523V530.259H134.644V525.138Z" fill="#D1D6DA"/>
<path d="M139.765 525.138H134.644V530.259H139.765V525.138Z" fill="#D1D6DA"/>
<path d="M147.442 525.138H139.765V530.259H147.442V525.138Z" fill="#D1D6DA"/>
<path d="M144.885 530.259H139.765V535.379H144.885V530.259Z" fill="#D1D6DA"/>
<path d="M124.828 516.414C122.514 516.412 120.297 515.492 118.661 513.856C117.025 512.221 116.105 510.003 116.103 507.69V499.345C116.103 498.842 116.303 498.359 116.659 498.004C117.015 497.648 117.497 497.448 118 497.448H131.655C132.158 497.448 132.641 497.648 132.996 498.004C133.352 498.359 133.552 498.842 133.552 499.345V507.69C133.55 510.003 132.63 512.221 130.994 513.856C129.359 515.492 127.141 516.412 124.828 516.414V516.414Z" fill="#EF7D7D"/>
<path d="M131.655 499.345V507.69C131.655 509.5 130.936 511.237 129.655 512.518C128.375 513.798 126.638 514.517 124.828 514.517C123.017 514.517 121.28 513.798 120 512.518C118.719 511.237 118 509.5 118 507.69V499.345H131.655ZM131.655 495.552H118C116.994 495.552 116.029 495.951 115.318 496.663C114.607 497.374 114.207 498.339 114.207 499.345V507.69C114.207 510.506 115.326 513.208 117.318 515.2C119.309 517.191 122.011 518.31 124.828 518.31C127.644 518.31 130.346 517.191 132.338 515.2C134.329 513.208 135.448 510.506 135.448 507.69V499.345C135.448 498.339 135.049 497.374 134.337 496.663C133.626 495.951 132.661 495.552 131.655 495.552Z" fill="#515979"/>
<path d="M121.793 503.138C123.888 503.138 125.586 501.44 125.586 499.345C125.586 497.25 123.888 495.552 121.793 495.552C119.698 495.552 118 497.25 118 499.345C118 501.44 119.698 503.138 121.793 503.138Z" fill="#EF7D7D"/>
<path d="M127.862 503.138C129.957 503.138 131.655 501.44 131.655 499.345C131.655 497.25 129.957 495.552 127.862 495.552C125.767 495.552 124.069 497.25 124.069 499.345C124.069 501.44 125.767 503.138 127.862 503.138Z" fill="#EF7D7D"/>
<path d="M175.42 523.81C175.12 523.811 174.827 523.722 174.578 523.556C174.328 523.39 174.133 523.153 174.018 522.876C173.903 522.6 173.872 522.295 173.93 522.001C173.988 521.707 174.131 521.436 174.343 521.223L179.797 515.769C179.938 515.628 180.106 515.516 180.29 515.44C180.474 515.364 180.671 515.324 180.871 515.324C181.07 515.324 181.268 515.364 181.452 515.44C181.636 515.516 181.803 515.628 181.944 515.769C182.085 515.91 182.197 516.077 182.273 516.261C182.35 516.446 182.389 516.643 182.389 516.842C182.389 517.042 182.35 517.239 182.273 517.423C182.197 517.608 182.085 517.775 181.944 517.916L176.49 523.37C176.205 523.653 175.821 523.811 175.42 523.81Z" fill="#DBDBDB"/>
<path d="M169.495 520.632C169.195 520.632 168.902 520.543 168.653 520.377C168.403 520.211 168.209 519.975 168.093 519.698C167.978 519.421 167.947 519.116 168.005 518.822C168.063 518.528 168.207 518.258 168.418 518.045L176.763 509.7C176.901 509.548 177.069 509.426 177.256 509.34C177.443 509.255 177.645 509.209 177.851 509.204C178.056 509.199 178.26 509.236 178.451 509.313C178.642 509.39 178.815 509.504 178.96 509.65C179.105 509.795 179.219 509.969 179.295 510.16C179.371 510.351 179.407 510.555 179.402 510.761C179.397 510.966 179.349 511.169 179.263 511.355C179.178 511.542 179.055 511.709 178.902 511.847L170.557 520.192C170.275 520.472 169.893 520.63 169.495 520.632Z" fill="#DBDBDB"/>
<path d="M195.825 26.0952H42.1746C37.1602 26.0952 33.0952 30.1602 33.0952 35.1746V173.46C33.0952 178.475 37.1602 182.54 42.1746 182.54H195.825C200.84 182.54 204.905 178.475 204.905 173.46V35.1746C204.905 30.1602 200.84 26.0952 195.825 26.0952Z" fill="white"/>
<path d="M195.825 28.1905C197.678 28.1905 199.454 28.9263 200.764 30.2361C202.074 31.5459 202.81 33.3223 202.81 35.1746V173.46C202.81 175.313 202.074 177.089 200.764 178.399C199.454 179.709 197.678 180.444 195.825 180.444H42.1746C40.3223 180.444 38.5459 179.709 37.2361 178.399C35.9263 177.089 35.1905 175.313 35.1905 173.46V35.1746C35.1905 33.3223 35.9263 31.5459 37.2361 30.2361C38.5459 28.9263 40.3223 28.1905 42.1746 28.1905H195.825ZM195.825 24H42.1746C39.2109 24 36.3686 25.1773 34.273 27.273C32.1773 29.3686 31 32.2109 31 35.1746L31 173.46C31 176.424 32.1773 179.266 34.273 181.362C36.3686 183.458 39.2109 184.635 42.1746 184.635H195.825C198.789 184.635 201.631 183.458 203.727 181.362C205.823 179.266 207 176.424 207 173.46V35.1746C207 32.2109 205.823 29.3686 203.727 27.273C201.631 25.1773 198.789 24 195.825 24V24Z" fill="#515979"/>
<path d="M202.81 49.8413H35.1905C34.0333 49.8413 33.0952 50.7794 33.0952 51.9365V79.8731C33.0952 81.0302 34.0333 81.9683 35.1905 81.9683H202.81C203.967 81.9683 204.905 81.0302 204.905 79.8731V51.9365C204.905 50.7794 203.967 49.8413 202.81 49.8413Z" fill="#F3F9FE"/>
<path d="M202.81 51.9364V79.873H35.1905V51.9364H202.81ZM202.81 47.746H35.1905C34.0791 47.746 33.0132 48.1875 32.2274 48.9733C31.4415 49.7592 31 50.8251 31 51.9364V79.873C31 80.9843 31.4415 82.0502 32.2274 82.8361C33.0132 83.6219 34.0791 84.0634 35.1905 84.0634H202.81C203.921 84.0634 204.987 83.6219 205.773 82.8361C206.559 82.0502 207 80.9843 207 79.873V51.9364C207 50.8251 206.559 49.7592 205.773 48.9733C204.987 48.1875 203.921 47.746 202.81 47.746Z" fill="#515979"/>
<path d="M35.1905 49.8412C34.6348 49.8412 34.1018 49.6205 33.7089 49.2276C33.316 48.8346 33.0952 48.3017 33.0952 47.746V35.1746C33.0952 32.7666 34.0518 30.4572 35.7545 28.7545C37.4572 27.0518 39.7666 26.0952 42.1746 26.0952H195.825C198.233 26.0952 200.543 27.0518 202.245 28.7545C203.948 30.4572 204.905 32.7666 204.905 35.1746V47.746C204.905 48.3017 204.684 48.8346 204.291 49.2276C203.898 49.6205 203.365 49.8412 202.81 49.8412H35.1905Z" fill="#667683"/>
<path d="M195.825 28.1905C197.678 28.1905 199.454 28.9263 200.764 30.2361C202.074 31.5459 202.81 33.3223 202.81 35.1746V47.746H35.1905V35.1746C35.1905 33.3223 35.9263 31.5459 37.2361 30.2361C38.5459 28.9263 40.3223 28.1905 42.1746 28.1905H195.825ZM195.825 24H42.1746C39.2109 24 36.3686 25.1773 34.273 27.273C32.1773 29.3686 31 32.2109 31 35.1746L31 47.746C31 48.8574 31.4415 49.9233 32.2274 50.7091C33.0132 51.495 34.0791 51.9365 35.1905 51.9365H202.81C203.921 51.9365 204.987 51.495 205.773 50.7091C206.559 49.9233 207 48.8574 207 47.746V35.1746C207 32.2109 205.823 29.3686 203.727 27.273C201.631 25.1773 198.789 24 195.825 24V24Z" fill="#515979"/>
<path d="M98.0476 42.8571C96.751 42.8571 95.5075 42.342 94.5906 41.4252C93.6738 40.5084 93.1587 39.2648 93.1587 37.9682C93.1587 36.6716 93.6738 35.4281 94.5906 34.5113C95.5075 33.5944 96.751 33.0793 98.0476 33.0793H177.667C178.963 33.0793 180.207 33.5944 181.124 34.5113C182.04 35.4281 182.556 36.6716 182.556 37.9682C182.556 39.2648 182.04 40.5084 181.124 41.4252C180.207 42.342 178.963 42.8571 177.667 42.8571H98.0476Z" fill="white"/>
<path d="M177.667 35.1746C178.408 35.1746 179.118 35.4689 179.642 35.9928C180.166 36.5168 180.46 37.2273 180.46 37.9683C180.46 38.7092 180.166 39.4198 179.642 39.9437C179.118 40.4676 178.408 40.7619 177.667 40.7619H98.0476C97.3067 40.7619 96.5961 40.4676 96.0722 39.9437C95.5483 39.4198 95.254 38.7092 95.254 37.9683C95.254 37.2273 95.5483 36.5168 96.0722 35.9928C96.5961 35.4689 97.3067 35.1746 98.0476 35.1746H177.667ZM177.667 30.9841H98.0476C96.1953 30.9841 94.4189 31.72 93.1091 33.0297C91.7993 34.3395 91.0635 36.116 91.0635 37.9683C91.0635 39.8206 91.7993 41.597 93.1091 42.9068C94.4189 44.2166 96.1953 44.9524 98.0476 44.9524H177.667C179.519 44.9524 181.295 44.2166 182.605 42.9068C183.915 41.597 184.651 39.8206 184.651 37.9683C184.651 36.116 183.915 34.3395 182.605 33.0297C181.295 31.72 179.519 30.9841 177.667 30.9841Z" fill="#515979"/>
<path d="M46.3651 42.8571C49.0651 42.8571 51.254 40.6683 51.254 37.9682C51.254 35.2682 49.0651 33.0793 46.3651 33.0793C43.665 33.0793 41.4762 35.2682 41.4762 37.9682C41.4762 40.6683 43.665 42.8571 46.3651 42.8571Z" fill="#EF7D7D"/>
<path d="M46.3651 35.1746C46.9176 35.1746 47.4578 35.3385 47.9172 35.6454C48.3766 35.9524 48.7347 36.3887 48.9461 36.8992C49.1576 37.4096 49.2129 37.9714 49.1051 38.5133C48.9973 39.0552 48.7312 39.553 48.3405 39.9437C47.9498 40.3344 47.452 40.6004 46.9101 40.7082C46.3682 40.816 45.8065 40.7607 45.296 40.5493C44.7856 40.3378 44.3492 39.9797 44.0423 39.5203C43.7353 39.0609 43.5715 38.5208 43.5715 37.9683C43.5715 37.2273 43.8658 36.5168 44.3897 35.9928C44.9136 35.4689 45.6242 35.1746 46.3651 35.1746V35.1746ZM46.3651 30.9841C44.9838 30.9841 43.6335 31.3937 42.4849 32.1612C41.3364 32.9286 40.4412 34.0194 39.9126 35.2955C39.384 36.5717 39.2457 37.976 39.5152 39.3308C39.7847 40.6856 40.4498 41.93 41.4266 42.9068C42.4033 43.8835 43.6478 44.5487 45.0026 44.8182C46.3574 45.0877 47.7616 44.9494 49.0378 44.4208C50.314 43.8921 51.4048 42.997 52.1722 41.8484C52.9396 40.6999 53.3492 39.3496 53.3492 37.9683C53.3492 36.116 52.6134 34.3395 51.3036 33.0297C49.9939 31.72 48.2174 30.9841 46.3651 30.9841Z" fill="#515979"/>
<path d="M63.1269 42.8571C65.827 42.8571 68.0158 40.6683 68.0158 37.9682C68.0158 35.2682 65.827 33.0793 63.1269 33.0793C60.4269 33.0793 58.238 35.2682 58.238 37.9682C58.238 40.6683 60.4269 42.8571 63.1269 42.8571Z" fill="#FFE8A0"/>
<path d="M63.127 35.1746C63.6795 35.1746 64.2196 35.3385 64.679 35.6454C65.1384 35.9524 65.4965 36.3887 65.708 36.8992C65.9194 37.4096 65.9747 37.9714 65.8669 38.5133C65.7591 39.0552 65.4931 39.553 65.1024 39.9437C64.7117 40.3344 64.2139 40.6004 63.672 40.7082C63.1301 40.816 62.5683 40.7607 62.0579 40.5493C61.5474 40.3378 61.1111 39.9797 60.8041 39.5203C60.4971 39.0609 60.3333 38.5208 60.3333 37.9683C60.3333 37.2273 60.6276 36.5168 61.1515 35.9928C61.6755 35.4689 62.386 35.1746 63.127 35.1746V35.1746ZM63.127 30.9841C61.7456 30.9841 60.3953 31.3937 59.2468 32.1612C58.0982 32.9286 57.2031 34.0194 56.6745 35.2955C56.1458 36.5717 56.0075 37.976 56.277 39.3308C56.5465 40.6856 57.2117 41.93 58.1884 42.9068C59.1652 43.8835 60.4096 44.5487 61.7644 44.8182C63.1192 45.0877 64.5235 44.9494 65.7997 44.4208C67.0758 43.8921 68.1666 42.997 68.934 41.8484C69.7015 40.6999 70.1111 39.3496 70.1111 37.9683C70.1111 36.116 69.3753 34.3395 68.0655 33.0297C66.7557 31.72 64.9793 30.9841 63.127 30.9841V30.9841Z" fill="#515979"/>
<path d="M79.8889 42.8571C82.5889 42.8571 84.7778 40.6683 84.7778 37.9682C84.7778 35.2682 82.5889 33.0793 79.8889 33.0793C77.1888 33.0793 75 35.2682 75 37.9682C75 40.6683 77.1888 42.8571 79.8889 42.8571Z" fill="#7DDF96"/>
<path d="M79.8889 35.1746C80.4414 35.1746 80.9816 35.3385 81.441 35.6454C81.9004 35.9524 82.2585 36.3887 82.4699 36.8992C82.6814 37.4096 82.7367 37.9714 82.6289 38.5133C82.5211 39.0552 82.255 39.553 81.8643 39.9437C81.4736 40.3344 80.9758 40.6004 80.4339 40.7082C79.892 40.816 79.3303 40.7607 78.8198 40.5493C78.3094 40.3378 77.873 39.9797 77.5661 39.5203C77.2591 39.0609 77.0953 38.5208 77.0953 37.9683C77.0953 37.2273 77.3896 36.5168 77.9135 35.9928C78.4374 35.4689 79.148 35.1746 79.8889 35.1746V35.1746ZM79.8889 30.9841C78.5076 30.9841 77.1573 31.3937 76.0087 32.1612C74.8602 32.9286 73.965 34.0194 73.4364 35.2955C72.9078 36.5717 72.7695 37.976 73.039 39.3308C73.3085 40.6856 73.9736 41.93 74.9504 42.9068C75.9271 43.8835 77.1716 44.5487 78.5264 44.8182C79.8812 45.0877 81.2854 44.9494 82.5616 44.4208C83.8378 43.8921 84.9286 42.997 85.696 41.8484C86.4634 40.6999 86.873 39.3496 86.873 37.9683C86.873 36.116 86.1372 34.3395 84.8274 33.0297C83.5177 31.72 81.7412 30.9841 79.8889 30.9841Z" fill="#515979"/>
<path d="M63.127 91.0476H49.1588C48.3873 91.0476 47.762 91.673 47.762 92.4444C47.762 93.2159 48.3873 93.8413 49.1588 93.8413H63.127C63.8985 93.8413 64.5239 93.2159 64.5239 92.4444C64.5239 91.673 63.8985 91.0476 63.127 91.0476Z" fill="#515979"/>
<path d="M102.238 102.222H49.1588C48.3873 102.222 47.762 102.848 47.762 103.619C47.762 104.39 48.3873 105.016 49.1588 105.016H102.238C103.01 105.016 103.635 104.39 103.635 103.619C103.635 102.848 103.01 102.222 102.238 102.222Z" fill="#515979"/>
<path d="M88.2699 107.81H49.1588C48.3873 107.81 47.762 108.435 47.762 109.206C47.762 109.978 48.3873 110.603 49.1588 110.603H88.2699C89.0413 110.603 89.6667 109.978 89.6667 109.206C89.6667 108.435 89.0413 107.81 88.2699 107.81Z" fill="#515979"/>
<path d="M74.3016 96.6349H49.1588C48.3873 96.6349 47.762 97.2603 47.762 98.0317C47.762 98.8032 48.3873 99.4285 49.1588 99.4285H74.3016C75.0731 99.4285 75.6985 98.8032 75.6985 98.0317C75.6985 97.2603 75.0731 96.6349 74.3016 96.6349Z" fill="#2196F3"/>
<path d="M68.7143 153.905H49.1588C48.3873 153.905 47.762 154.53 47.762 155.302C47.762 156.073 48.3873 156.698 49.1588 156.698H68.7143C69.4858 156.698 70.1112 156.073 70.1112 155.302C70.1112 154.53 69.4858 153.905 68.7143 153.905Z" fill="#515979"/>
<path d="M96.6508 165.079H49.1588C48.3873 165.079 47.762 165.705 47.762 166.476C47.762 167.248 48.3873 167.873 49.1588 167.873H96.6508C97.4223 167.873 98.0477 167.248 98.0477 166.476C98.0477 165.705 97.4223 165.079 96.6508 165.079Z" fill="#515979"/>
<path d="M88.2699 170.667H49.1588C48.3873 170.667 47.762 171.292 47.762 172.063C47.762 172.835 48.3873 173.46 49.1588 173.46H88.2699C89.0413 173.46 89.6667 172.835 89.6667 172.063C89.6667 171.292 89.0413 170.667 88.2699 170.667Z" fill="#515979"/>
<path d="M79.8889 159.492H49.1588C48.3873 159.492 47.762 160.117 47.762 160.889C47.762 161.66 48.3873 162.286 49.1588 162.286H79.8889C80.6604 162.286 81.2858 161.66 81.2858 160.889C81.2858 160.117 80.6604 159.492 79.8889 159.492Z" fill="#2196F3"/>
<path d="M54.7461 63.4463H48.7746V65.2063H53.007C52.7975 67.6857 50.7372 68.7473 48.8165 68.7473C47.5625 68.7473 46.3599 68.2491 45.4731 67.3624C44.5864 66.4757 44.0883 65.273 44.0883 64.019C44.0883 62.765 44.5864 61.5624 45.4731 60.6756C46.3599 59.7889 47.5625 59.2908 48.8165 59.2908C49.9875 59.3033 51.1094 59.763 51.9524 60.5758L53.1886 59.2977C51.9944 58.139 50.3895 57.5011 48.7257 57.5238C47.8718 57.5302 47.0276 57.7047 46.2412 58.0374C45.4547 58.3701 44.7415 58.8545 44.1423 59.4628C43.543 60.0711 43.0695 60.7915 42.7486 61.5829C42.4278 62.3742 42.266 63.221 42.2724 64.0749C42.2788 64.9288 42.4534 65.773 42.7861 66.5595C43.1188 67.3459 43.6031 68.0591 44.2114 68.6583C44.8198 69.2576 45.5402 69.7311 46.3315 70.052C47.1228 70.3728 47.9696 70.5346 48.8235 70.5282C52.3156 70.5282 54.8508 68.1466 54.8508 64.6197C54.8586 64.2259 54.8235 63.8325 54.7461 63.4463V63.4463Z" fill="#2196F3"/>
<path d="M63.8254 66.3588C63.8254 67.1876 63.5796 67.9978 63.1192 68.6869C62.6587 69.3761 62.0043 69.9132 61.2386 70.2303C60.4729 70.5475 59.6303 70.6305 58.8174 70.4688C58.0045 70.3071 57.2579 69.908 56.6718 69.3219C56.0858 68.7359 55.6867 67.9892 55.525 67.1763C55.3633 66.3635 55.4463 65.5209 55.7634 64.7552C56.0806 63.9895 56.6177 63.335 57.3068 62.8746C57.996 62.4141 58.8061 62.1684 59.6349 62.1684C60.1884 62.1569 60.7384 62.2575 61.252 62.4641C61.7655 62.6706 62.2321 62.9789 62.6235 63.3703C63.0149 63.7617 63.3231 64.2282 63.5297 64.7418C63.7362 65.2554 63.8368 65.8054 63.8254 66.3588V66.3588ZM59.6349 63.8096C59.1236 63.7675 58.6115 63.8806 58.1655 64.1341C57.7195 64.3877 57.3604 64.77 57.1351 65.2309C56.9098 65.6919 56.8289 66.21 56.9028 66.7177C56.9768 67.2254 57.2022 67.699 57.5497 68.0765C57.8971 68.454 58.3504 68.7179 58.8502 68.8337C59.35 68.9494 59.8731 68.9117 60.3512 68.7254C60.8292 68.5391 61.2399 68.2128 61.5295 67.7894C61.8192 67.3659 61.9743 66.8649 61.9746 66.3518C61.9915 66.0305 61.944 65.7089 61.835 65.4061C61.7259 65.1033 61.5575 64.8254 61.3395 64.5886C61.1216 64.3518 60.8585 64.1609 60.5658 64.0271C60.2731 63.8934 59.9566 63.8194 59.6349 63.8096V63.8096Z" fill="#E06B52"/>
<path d="M72.9607 66.3588C72.9731 66.9125 72.8732 67.463 72.667 67.977C72.4608 68.491 72.1525 68.9579 71.7609 69.3495C71.3693 69.7411 70.9024 70.0494 70.3884 70.2556C69.8744 70.4618 69.3239 70.5617 68.7702 70.5493C67.6588 70.5493 66.5929 70.1078 65.8071 69.3219C65.0212 68.536 64.5797 67.4702 64.5797 66.3588C64.5797 65.2474 65.0212 64.1815 65.8071 63.3957C66.5929 62.6098 67.6588 62.1683 68.7702 62.1683C69.3241 62.1549 69.8751 62.2541 70.3895 62.46C70.904 62.6658 71.3713 62.974 71.7631 63.3658C72.155 63.7577 72.4631 64.225 72.669 64.7394C72.8748 65.2539 72.9741 65.8048 72.9607 66.3588ZM68.7702 63.8026C68.259 63.7619 67.7475 63.8762 67.3023 64.1307C66.8572 64.3853 66.4991 64.7681 66.275 65.2293C66.0508 65.6905 65.9709 66.2085 66.0457 66.7158C66.1206 67.2231 66.3467 67.696 66.6945 68.0728C67.0423 68.4496 67.4956 68.7128 67.9953 68.8279C68.495 68.943 69.0178 68.9047 69.4954 68.7181C69.973 68.5315 70.3833 68.2052 70.6725 67.7818C70.9618 67.3584 71.1166 66.8576 71.1169 66.3448C71.1328 66.0251 71.0851 65.7055 70.9764 65.4044C70.8678 65.1033 70.7004 64.8268 70.4841 64.5909C70.2677 64.3551 70.0066 64.1645 69.716 64.0304C69.4254 63.8963 69.111 63.8212 68.7911 63.8096L68.7702 63.8026Z" fill="#FFD886"/>
<path d="M77.7307 62.1683C78.1522 62.1558 78.5715 62.2334 78.9605 62.396C79.3496 62.5586 79.6994 62.8024 79.9866 63.1111V62.4127H81.7396V69.9277C81.7396 72.8889 80.0355 74.2858 77.7936 74.2858C76.9939 74.2959 76.2092 74.0675 75.54 73.6296C74.8707 73.1917 74.3471 72.5642 74.0361 71.8273L75.6425 71.1289C75.8047 71.5696 76.0976 71.9502 76.482 72.2198C76.8665 72.4894 77.3241 72.6351 77.7936 72.6375C78.096 72.6542 78.3984 72.6052 78.68 72.4938C78.9616 72.3823 79.2157 72.2112 79.4248 71.9922C79.6339 71.7731 79.793 71.5113 79.8912 71.2248C79.9894 70.9384 80.0243 70.634 79.9936 70.3327V69.5086C79.7176 69.8453 79.3668 70.1129 78.969 70.2899C78.5713 70.4669 78.1377 70.5486 77.7028 70.5283C76.5914 70.5283 75.5256 70.0868 74.7397 69.3009C73.9538 68.5151 73.5123 67.4492 73.5123 66.3378C73.5123 65.2264 73.9538 64.1606 74.7397 63.3747C75.5256 62.5888 76.5914 62.1473 77.7028 62.1473L77.7307 62.1683ZM77.8914 63.8096C77.5681 63.8192 77.2501 63.8938 76.9563 64.029C76.6625 64.1641 76.3989 64.357 76.1812 64.5962C75.9635 64.8354 75.7962 65.116 75.6893 65.4212C75.5823 65.7264 75.5379 66.05 75.5587 66.3727C75.5389 66.6915 75.5835 67.0109 75.69 67.312C75.7965 67.613 75.9626 67.8895 76.1785 68.1249C76.3943 68.3603 76.6554 68.5497 76.9461 68.6819C77.2368 68.814 77.5512 68.8862 77.8704 68.894C78.1881 68.8848 78.5005 68.8107 78.7884 68.6764C79.0764 68.5421 79.3339 68.3503 79.5452 68.113C79.7564 67.8756 79.9169 67.5975 80.0168 67.2959C80.1168 66.9942 80.154 66.6753 80.1263 66.3588C80.151 66.0438 80.1124 65.7271 80.0127 65.4273C79.9131 65.1274 79.7545 64.8506 79.5462 64.613C79.3379 64.3755 79.0842 64.182 78.8 64.044C78.5158 63.906 78.2069 63.8263 77.8914 63.8096V63.8096Z" fill="#2196F3"/>
<path d="M89.527 62.1543C90.2882 62.1635 91.029 62.4025 91.6521 62.84C92.2752 63.2774 92.7517 63.8929 93.019 64.6058L93.3124 65.3042L87.725 67.6229C87.9008 68.0159 88.1904 68.3472 88.5565 68.5738C88.9226 68.8004 89.3482 68.9119 89.7784 68.894C90.1815 68.887 90.5759 68.7759 90.9234 68.5715C91.2709 68.3672 91.5598 68.0765 91.7619 67.7277L93.2355 68.6985C92.8452 69.2635 92.3234 69.7253 91.7151 70.044C91.1068 70.3627 90.4302 70.5289 89.7435 70.5283C89.1943 70.5382 88.6489 70.4359 88.1406 70.2278C87.6324 70.0196 87.1719 69.7099 86.7875 69.3176C86.4031 68.9253 86.1027 68.4587 85.9049 67.9464C85.707 67.434 85.6158 66.8867 85.6368 66.3378C85.6046 65.8037 85.6812 65.2687 85.8619 64.7651C86.0426 64.2615 86.3236 63.7998 86.688 63.408C87.0523 63.0162 87.4925 62.7025 87.9816 62.4858C88.4708 62.2691 88.9989 62.1539 89.5339 62.1473L89.527 62.1543ZM87.4317 66.2191L91.1752 64.6546C91.0288 64.3749 90.8061 64.1424 90.5329 63.9842C90.2597 63.826 89.9472 63.7485 89.6317 63.7607C89.3234 63.7741 89.0209 63.8485 88.7415 63.9796C88.4622 64.1108 88.2117 64.2961 88.0045 64.5247C87.7973 64.7534 87.6375 65.0209 87.5343 65.3117C87.4312 65.6026 87.3869 65.911 87.4038 66.2191H87.4317Z" fill="#E06B52"/>
<path d="M82.9619 70.2768H84.7778V57.9568H82.9619V70.2768Z" fill="#00C853"/>
<path d="M134.365 118.286H61.7301V146.222H134.365V118.286Z" fill="#E8F3FD"/>
<path d="M77.0953 122.476H67.3175C66.546 122.476 65.9207 123.102 65.9207 123.873C65.9207 124.644 66.546 125.27 67.3175 125.27H77.0953C77.8667 125.27 78.4921 124.644 78.4921 123.873C78.4921 123.102 77.8667 122.476 77.0953 122.476Z" fill="#515979"/>
<path d="M109.222 133.651H67.3175C66.546 133.651 65.9207 134.276 65.9207 135.048C65.9207 135.819 66.546 136.444 67.3175 136.444H109.222C109.994 136.444 110.619 135.819 110.619 135.048C110.619 134.276 109.994 133.651 109.222 133.651Z" fill="#515979"/>
<path d="M98.0476 139.238H67.3175C66.546 139.238 65.9207 139.863 65.9207 140.635C65.9207 141.406 66.546 142.032 67.3175 142.032H98.0476C98.8191 142.032 99.4445 141.406 99.4445 140.635C99.4445 139.863 98.8191 139.238 98.0476 139.238Z" fill="#515979"/>
<path d="M95.254 128.063H67.3175C66.546 128.063 65.9207 128.689 65.9207 129.46C65.9207 130.232 66.546 130.857 67.3175 130.857H95.254C96.0254 130.857 96.6508 130.232 96.6508 129.46C96.6508 128.689 96.0254 128.063 95.254 128.063Z" fill="#2196F3"/>
<path d="M192.445 112.056C191.429 112.047 190.458 111.638 189.742 110.918C188.653 109.828 187.863 106.678 187.57 105.372C187.519 105.142 187.527 104.904 187.593 104.678C187.659 104.452 187.781 104.246 187.947 104.08C188.078 103.951 188.233 103.848 188.403 103.779C188.573 103.709 188.755 103.674 188.939 103.675C189.039 103.662 189.14 103.662 189.239 103.675C190.545 103.961 193.695 104.751 194.785 105.84C195.472 106.518 195.876 107.432 195.916 108.396C195.942 108.878 195.866 109.36 195.693 109.81C195.519 110.26 195.253 110.668 194.91 111.008C194.255 111.659 193.368 112.023 192.445 112.021V112.056Z" fill="#6ADAF7"/>
<path d="M188.939 105.072C188.939 105.072 192.878 105.945 193.828 106.86C194.268 107.267 194.529 107.832 194.554 108.432C194.579 109.031 194.366 109.616 193.961 110.058C193.566 110.446 193.034 110.662 192.48 110.659C191.838 110.661 191.221 110.41 190.762 109.961C189.84 109.039 188.974 105.072 188.974 105.072H188.939ZM188.974 102.278C188.556 102.278 188.143 102.371 187.766 102.552C187.389 102.732 187.057 102.995 186.795 103.321C186.533 103.646 186.347 104.027 186.252 104.434C186.156 104.841 186.153 105.264 186.243 105.672C186.718 107.837 187.549 110.673 188.785 111.902C189.764 112.886 191.092 113.444 192.48 113.453C193.119 113.46 193.753 113.34 194.345 113.1C194.937 112.86 195.476 112.505 195.93 112.056C196.403 111.575 196.771 111.002 197.011 110.372C197.252 109.742 197.359 109.07 197.327 108.396C197.269 107.08 196.718 105.833 195.784 104.904C194.547 103.668 191.712 102.809 189.554 102.362C189.356 102.321 189.155 102.3 188.953 102.299L188.974 102.278Z" fill="#515979"/>
<path d="M151.909 112.056C150.983 112.059 150.094 111.695 149.437 111.043C148.769 110.341 148.407 109.402 148.431 108.433C148.455 107.464 148.862 106.544 149.563 105.875C150.652 104.785 153.809 103.996 155.108 103.71C155.21 103.696 155.313 103.696 155.415 103.71C155.784 103.71 156.138 103.855 156.4 104.115C156.567 104.281 156.689 104.487 156.754 104.713C156.82 104.938 156.828 105.177 156.777 105.407C156.484 106.713 155.695 109.863 154.612 110.952C153.889 111.658 152.919 112.054 151.909 112.056V112.056Z" fill="#6ADAF7"/>
<path d="M155.415 105.072C155.415 105.072 154.542 109.011 153.62 109.961C153.164 110.409 152.549 110.66 151.909 110.659C151.634 110.662 151.361 110.61 151.106 110.507C150.85 110.404 150.618 110.251 150.422 110.058C150.016 109.616 149.803 109.031 149.828 108.432C149.853 107.832 150.114 107.267 150.554 106.86C151.469 105.945 155.443 105.072 155.443 105.072H155.415ZM155.443 102.278C155.239 102.278 155.035 102.299 154.836 102.341C152.677 102.823 149.842 103.647 148.606 104.883C147.671 105.812 147.12 107.059 147.062 108.375C147.03 109.049 147.138 109.721 147.378 110.351C147.618 110.981 147.986 111.554 148.459 112.035C148.918 112.489 149.464 112.847 150.064 113.086C150.664 113.326 151.305 113.444 151.951 113.432C153.337 113.421 154.662 112.864 155.639 111.881C156.875 110.652 157.734 107.817 158.181 105.651C158.271 105.244 158.268 104.821 158.173 104.415C158.078 104.008 157.893 103.628 157.631 103.302C157.37 102.977 157.039 102.714 156.663 102.533C156.287 102.352 155.875 102.258 155.457 102.257L155.443 102.278Z" fill="#515979"/>
<path d="M184.742 103.13C184.279 103.13 183.834 102.946 183.507 102.619C183.18 102.291 182.996 101.847 182.996 101.384C182.996 100.921 182.812 100.477 182.484 100.15C182.157 99.8221 181.713 99.6382 181.25 99.6382C180.786 99.6382 180.342 99.8221 180.015 100.15C179.687 100.477 179.504 100.921 179.504 101.384C179.504 101.847 179.32 102.291 178.992 102.619C178.665 102.946 178.221 103.13 177.758 103.13C177.294 103.13 176.85 102.946 176.523 102.619C176.195 102.291 176.011 101.847 176.011 101.384C176.011 99.995 176.563 98.6627 177.546 97.6803C178.528 96.698 179.86 96.1461 181.25 96.1461C182.639 96.1461 183.971 96.698 184.953 97.6803C185.936 98.6627 186.488 99.995 186.488 101.384C186.489 101.614 186.444 101.841 186.357 102.053C186.269 102.266 186.141 102.459 185.978 102.621C185.816 102.783 185.623 102.912 185.411 102.999C185.199 103.087 184.971 103.131 184.742 103.13V103.13Z" fill="#515979"/>
<path d="M179.064 90.3491C179.507 90.1229 179.976 89.9516 180.46 89.8393C180.918 89.7273 181.386 89.6595 181.857 89.6368C182.864 89.5985 183.869 89.7722 184.804 90.1466C185.8 90.5323 186.677 91.173 187.347 92.0044C188.002 92.8027 188.414 93.7723 188.534 94.798C188.564 94.9843 188.555 95.1747 188.509 95.3576C188.463 95.5405 188.38 95.7122 188.266 95.8623C188.152 96.0124 188.008 96.1378 187.844 96.231C187.68 96.3241 187.499 96.3831 187.312 96.4044C187.124 96.4319 186.932 96.4207 186.748 96.3715C186.564 96.3223 186.392 96.236 186.243 96.118L185.971 95.9085C185.526 95.5085 185.06 95.1331 184.574 94.7841C184.156 94.4873 183.707 94.239 183.233 94.0438C182.708 93.8267 182.166 93.6515 181.613 93.5199C181.312 93.4501 180.998 93.3663 180.677 93.3104C180.357 93.2551 180.04 93.1828 179.727 93.0939L179.21 92.9053C179.037 92.8436 178.878 92.7483 178.742 92.625C178.606 92.5017 178.495 92.3527 178.417 92.1867C178.338 92.0206 178.293 91.8407 178.284 91.6572C178.276 91.4737 178.303 91.2903 178.365 91.1174C178.491 90.7811 178.741 90.506 179.064 90.3491Z" fill="#515979"/>
<path d="M166.583 103.13C166.12 103.13 165.676 102.946 165.348 102.619C165.021 102.291 164.837 101.847 164.837 101.384C164.837 100.921 164.653 100.477 164.325 100.15C163.998 99.8221 163.554 99.6382 163.091 99.6382C162.628 99.6382 162.184 99.8221 161.856 100.15C161.529 100.477 161.345 100.921 161.345 101.384C161.345 101.847 161.161 102.291 160.833 102.619C160.506 102.946 160.062 103.13 159.599 103.13C159.136 103.13 158.691 102.946 158.364 102.619C158.037 102.291 157.853 101.847 157.853 101.384C157.853 99.995 158.405 98.6627 159.387 97.6803C160.369 96.698 161.702 96.1461 163.091 96.1461C164.48 96.1461 165.812 96.698 166.795 97.6803C167.777 98.6627 168.329 99.995 168.329 101.384C168.33 101.614 168.285 101.841 168.198 102.053C168.11 102.266 167.982 102.459 167.82 102.621C167.657 102.783 167.464 102.912 167.252 102.999C167.04 103.087 166.812 103.131 166.583 103.13V103.13Z" fill="#515979"/>
<path d="M164.662 93.0871C164.352 93.1753 164.037 93.2475 163.719 93.3036C163.391 93.3594 163.077 93.4433 162.777 93.5131C162.223 93.6447 161.682 93.8198 161.156 94.0369C160.683 94.2321 160.233 94.4805 159.815 94.7772C159.33 95.1263 158.863 95.5016 158.418 95.9017L158.153 96.1112C157.934 96.306 157.659 96.4271 157.368 96.4572C157.076 96.4873 156.783 96.4249 156.529 96.2789C156.275 96.1329 156.073 95.9107 155.952 95.6437C155.831 95.3767 155.797 95.0785 155.855 94.7912C155.975 93.7655 156.387 92.7958 157.043 91.9975C157.712 91.1661 158.589 90.5255 159.585 90.1398C160.516 89.7754 161.512 89.6089 162.511 89.6509C162.982 89.6736 163.45 89.7414 163.908 89.8534C164.393 89.9657 164.862 90.137 165.305 90.3633C165.63 90.5307 165.877 90.8191 165.992 91.1665C166.107 91.5139 166.081 91.8926 165.919 92.221C165.768 92.5399 165.501 92.7895 165.172 92.9194L164.662 93.0871Z" fill="#515979"/>
<path d="M163.796 116.19C163.426 116.19 163.07 116.043 162.809 115.781C162.547 115.519 162.399 115.164 162.399 114.794C162.399 112.2 163.43 109.713 165.263 107.88C167.097 106.046 169.584 105.016 172.177 105.016C174.77 105.016 177.257 106.046 179.091 107.88C180.925 109.713 181.955 112.2 181.955 114.794C181.955 115.164 181.808 115.519 181.546 115.781C181.284 116.043 180.929 116.19 180.558 116.19H163.796Z" fill="#515979"/>
<path d="M172.177 106.413C174.4 106.413 176.532 107.296 178.103 108.867C179.675 110.439 180.558 112.571 180.558 114.794H163.796C163.796 112.571 164.679 110.439 166.251 108.867C167.823 107.296 169.954 106.413 172.177 106.413ZM172.177 103.619C169.213 103.619 166.371 104.796 164.276 106.892C162.18 108.988 161.003 111.83 161.003 114.794C161.003 115.535 161.297 116.245 161.821 116.769C162.345 117.293 163.055 117.587 163.796 117.587H180.558C181.299 117.587 182.01 117.293 182.534 116.769C183.057 116.245 183.352 115.535 183.352 114.794C183.352 111.83 182.174 108.988 180.079 106.892C177.983 104.796 175.141 103.619 172.177 103.619Z" fill="#515979"/>
<path d="M172.177 111.302C170.927 111.339 169.703 111.675 168.609 112.283C167.516 112.89 166.584 113.751 165.891 114.794H178.463C177.77 113.753 176.837 112.892 175.744 112.285C174.65 111.677 173.427 111.34 172.177 111.302V111.302Z" fill="#EF7D7D"/>
<path d="M64.5238 149.016H60.3333C59.9629 149.016 59.6076 148.869 59.3456 148.607C59.0837 148.345 58.9365 147.99 58.9365 147.619V116.889C58.9365 116.518 59.0837 116.163 59.3456 115.901C59.6076 115.639 59.9629 115.492 60.3333 115.492H64.5238C64.8943 115.492 65.2496 115.639 65.5115 115.901C65.7735 116.163 65.9207 116.518 65.9207 116.889C65.9207 117.259 65.7735 117.615 65.5115 117.877C65.2496 118.139 64.8943 118.286 64.5238 118.286H61.7302V146.222H64.5238C64.8943 146.222 65.2496 146.369 65.5115 146.631C65.7735 146.893 65.9207 147.249 65.9207 147.619C65.9207 147.99 65.7735 148.345 65.5115 148.607C65.2496 148.869 64.8943 149.016 64.5238 149.016Z" fill="#515979"/>
<path d="M135.762 149.016H131.571C131.201 149.016 130.846 148.869 130.584 148.607C130.322 148.345 130.175 147.99 130.175 147.619C130.175 147.249 130.322 146.893 130.584 146.631C130.846 146.369 131.201 146.222 131.571 146.222H134.365V118.286H131.571C131.201 118.286 130.846 118.139 130.584 117.877C130.322 117.615 130.175 117.259 130.175 116.889C130.175 116.518 130.322 116.163 130.584 115.901C130.846 115.639 131.201 115.492 131.571 115.492H135.762C136.132 115.492 136.488 115.639 136.75 115.901C137.012 116.163 137.159 116.518 137.159 116.889V147.619C137.159 147.99 137.012 148.345 136.75 148.607C136.488 148.869 136.132 149.016 135.762 149.016Z" fill="#515979"/>
<path d="M122.492 142.032C122.296 142.032 122.102 141.992 121.923 141.912C121.743 141.833 121.583 141.716 121.451 141.571L115.166 134.587C114.984 134.386 114.865 134.137 114.823 133.87C114.781 133.602 114.817 133.329 114.927 133.082C115.037 132.835 115.217 132.625 115.444 132.478C115.671 132.331 115.936 132.253 116.206 132.254H118.302V125.27C118.302 124.899 118.449 124.544 118.711 124.282C118.973 124.02 119.328 123.873 119.698 123.873H125.286C125.656 123.873 126.011 124.02 126.273 124.282C126.535 124.544 126.682 124.899 126.682 125.27V132.254H128.778C129.048 132.254 129.313 132.332 129.54 132.48C129.767 132.627 129.946 132.838 130.056 133.085C130.165 133.332 130.201 133.605 130.159 133.871C130.117 134.138 129.999 134.386 129.818 134.587L123.533 141.571C123.401 141.716 123.241 141.833 123.061 141.912C122.882 141.992 122.688 142.032 122.492 142.032Z" fill="#F89D81"/>
<path d="M125.286 125.27V133.651H128.778L122.492 140.635L116.206 133.651H119.698V125.27H125.286ZM125.286 122.476H119.698C118.957 122.476 118.247 122.771 117.723 123.294C117.199 123.818 116.905 124.529 116.905 125.27V130.857H116.206C115.664 130.853 115.132 131.007 114.676 131.3C114.22 131.592 113.859 132.012 113.636 132.506C113.414 133.001 113.341 133.549 113.425 134.085C113.509 134.621 113.748 135.12 114.111 135.523L120.397 142.507C120.659 142.797 120.979 143.029 121.336 143.188C121.693 143.347 122.08 143.429 122.471 143.429C122.862 143.429 123.249 143.347 123.606 143.188C123.963 143.029 124.283 142.797 124.545 142.507L130.789 135.564C131.285 135.05 131.565 134.365 131.571 133.651C131.571 132.91 131.277 132.199 130.753 131.675C130.229 131.151 129.519 130.857 128.778 130.857H128.079V125.27C128.079 124.529 127.785 123.818 127.261 123.294C126.737 122.771 126.027 122.476 125.286 122.476Z" fill="#515979"/>
</g>
</svg>
