<svg width="260" height="260" fill="none" xmlns="http://www.w3.org/2000/svg"><path d="M79.733 186.333a5.197 5.197 0 0 1-5.2-5.2V39a5.2 5.2 0 0 1 5.2-5.2h97.934a2.6 2.6 0 0 1 1.837.763l17.333 17.333a2.6 2.6 0 0 1 .763 1.837v127.4a5.199 5.199 0 0 1-5.2 5.2H79.733z" fill="#fff"/><path d="M177.667 36.4 195 53.733v127.4a2.6 2.6 0 0 1-2.6 2.6H79.733a2.602 2.602 0 0 1-2.6-2.6V39a2.6 2.6 0 0 1 2.6-2.6h97.934zm0-5.2H79.733a7.8 7.8 0 0 0-7.8 7.8v142.133a7.801 7.801 0 0 0 7.8 7.8H192.4a7.796 7.796 0 0 0 7.8-7.8v-127.4a5.2 5.2 0 0 0-1.525-3.674l-17.334-17.334a5.199 5.199 0 0 0-3.674-1.525z" fill="#515979"/><path d="M195 77.957H77.133v2.6H195v-2.6zM195 69.29H77.133v2.6H195v-2.6zM195 86.623H77.133v2.6H195v-2.6zM195 95.29H77.133v2.6H195v-2.6zM195 103.957H77.133v2.6H195v-2.6zM195 112.623H77.133v2.6H195v-2.6zM195 121.29H77.133v2.6H195v-2.6zM195 129.957H77.133v2.6H195v-2.6zM195 138.623H77.133v2.6H195v-2.6zM195 147.29H77.133v2.6H195v-2.6zM195 155.957H77.133v2.6H195v-2.6zM195 164.623H77.133v2.6H195v-2.6zM195 173.29H77.133v2.6H195v-2.6zM180.267 56.334a5.2 5.2 0 0 1-5.2-5.2V36.4a2.6 2.6 0 0 1 2.6-2.6 2.6 2.6 0 0 1 1.837.763l17.333 17.333a2.594 2.594 0 0 1 .563 2.832 2.605 2.605 0 0 1-2.4 1.605h-14.733z" fill="#D8EBFB"/><path d="M177.667 36.4 195 53.733h-14.733a2.601 2.601 0 0 1-2.6-2.6V36.4zm0-5.2a5.2 5.2 0 0 0-5.2 5.2v14.733a7.798 7.798 0 0 0 7.8 7.8H195a5.197 5.197 0 0 0 4.8-3.21 5.204 5.204 0 0 0-1.125-5.664l-17.334-17.334a5.199 5.199 0 0 0-3.674-1.525z" fill="#515979"/><path d="M103.567 36.4h-2.6v147.333h2.6V36.4z" fill="#F89D81"/><path d="M74.533 228.8a2.599 2.599 0 0 1-2.374-1.534l-14.734-32.933a2.604 2.604 0 0 1 .278-2.6l8.666-11.813a2.598 2.598 0 0 1 2.098-1.066h12.601a2.605 2.605 0 0 1 2.14 1.118l8.19 11.813a2.595 2.595 0 0 1 .243 2.548l-14.733 32.933a2.602 2.602 0 0 1-2.375 1.534z" fill="#FFEBEB"/><path d="m81.068 181.454 8.199 11.813L74.533 226.2 59.8 193.267l8.667-11.813h12.601zm0-5.2H68.467a5.208 5.208 0 0 0-4.195 2.123l-8.667 11.813a5.199 5.199 0 0 0-.554 5.2l14.733 32.933a5.196 5.196 0 0 0 4.767 3.122 5.196 5.196 0 0 0 4.766-3.122l14.734-32.933a5.2 5.2 0 0 0-.477-5.087l-8.199-11.813a5.196 5.196 0 0 0-4.272-2.236h-.035z" fill="#515979"/><path d="m74.533 226.2-6.066-12.133H80.6L74.533 226.2z" fill="#515979"/><path d="M89.267 195.867a2.601 2.601 0 0 1-1.838-.763l-6.474-6.474-4.29 6.127a2.599 2.599 0 0 1-4.264 0l-4.29-6.127-6.474 6.474a2.601 2.601 0 0 1-1.837.763 2.509 2.509 0 0 1-.997-.2 2.602 2.602 0 0 1-1.603-2.4V119.6a2.597 2.597 0 0 1 2.6-2.6h29.467a2.599 2.599 0 0 1 2.6 2.6v73.667a2.6 2.6 0 0 1-2.6 2.6z" fill="#FFD886"/><path d="M89.267 119.6v73.667L80.6 184.6l-6.067 8.667-6.066-8.667-8.667 8.667V119.6h29.467zm0-5.2H59.8a5.2 5.2 0 0 0-5.2 5.2v73.667a5.199 5.199 0 0 0 8.875 3.674l4.333-4.281 2.505 3.588a5.204 5.204 0 0 0 6.668 1.634 5.202 5.202 0 0 0 1.86-1.634l2.504-3.588 4.334 4.281a5.204 5.204 0 0 0 7.892-.844c.567-.837.879-1.82.896-2.83V119.6a5.2 5.2 0 0 0-5.2-5.2z" fill="#515979"/><path d="m89.267 193.267-6.934-6.934V119.6h6.934v73.667z" fill="#FBB040"/><path d="M91.867 98.8H57.2v19.067h34.667V98.8z" fill="#75A5C3"/><path d="M89.267 101.4v13.867H59.8V101.4h29.467zm5.2-5.2H54.6v24.267h39.867V96.2z" fill="#515979"/><path d="M57.2 98.8V78a7.8 7.8 0 0 1 7.8-7.8h19.067a7.8 7.8 0 0 1 7.8 7.8v20.8H57.2z" fill="#EF7D7D"/><path d="M84.067 72.8a5.2 5.2 0 0 1 5.2 5.2v18.2H59.8V78a5.2 5.2 0 0 1 5.2-5.2h19.067zm0-5.2H65A10.4 10.4 0 0 0 54.6 78v23.4h39.867V78a10.4 10.4 0 0 0-10.4-10.4zM80.6 189.367a2.169 2.169 0 0 1-2.167-2.167v-67.6a2.165 2.165 0 0 1 3.7-1.532c.406.406.634.957.634 1.532v67.6a2.165 2.165 0 0 1-2.167 2.167zM68.467 189.367A2.169 2.169 0 0 1 66.3 187.2v-67.6a2.165 2.165 0 0 1 3.699-1.532c.406.406.634.957.634 1.532v67.6a2.165 2.165 0 0 1-2.166 2.167zM89.267 110.5H59.8a2.168 2.168 0 1 1 0-4.333h29.467a2.168 2.168 0 1 1 0 4.333z" fill="#515979"/><path d="M84.933 83.824a2.167 2.167 0 0 1-2.166-2.167 1.3 1.3 0 0 0-2.6 0 2.167 2.167 0 1 1-4.334 0 5.633 5.633 0 1 1 11.267 0 2.167 2.167 0 0 1-2.167 2.167zM71.067 83.824a2.167 2.167 0 0 1-2.167-2.167 1.3 1.3 0 0 0-2.6 0 2.167 2.167 0 1 1-4.333 0 5.633 5.633 0 1 1 11.266 0 2.167 2.167 0 0 1-2.166 2.167zM79.118 60.051a7.8 7.8 0 0 1 7.99 1.05c1.396 1.04 2.965 3.743.668 4.705a2.348 2.348 0 0 1-1.56-.07c-1.092-.285-2.184-.693-3.207-1.022a20.139 20.139 0 0 1-4.012-1.517 1.732 1.732 0 0 1 .121-3.146zM69.541 63.492c-1.5.702-3.466 1.161-5.018 1.733-.716.253-1.445.467-2.184.642a1.811 1.811 0 0 1-2.184-1.326c-.217-2.375 2.349-4.178 4.334-4.784 1.984-.607 7.366-.607 6.292 2.6a2.479 2.479 0 0 1-1.274 1.1l.034.035zM74.733 92.075a15.694 15.694 0 0 1-9.005-2.904 1.737 1.737 0 1 1 2.01-2.834c4.195 2.973 9.872 2.99 13.503 0a1.732 1.732 0 0 1 2.879 1.51 1.734 1.734 0 0 1-.695 1.177 13.71 13.71 0 0 1-8.692 3.05z" fill="#515979"/><path d="M170.3 199.333a2.594 2.594 0 0 1-1.933-.866l-58.5-65a2.597 2.597 0 0 1-.147-3.302l19.5-26a2.603 2.603 0 0 1 2.08-1.04h78a2.606 2.606 0 0 1 2.08 1.04l19.5 26a2.604 2.604 0 0 1-.147 3.302l-58.5 65a2.602 2.602 0 0 1-1.933.866z" fill="#6ADAF7"/><path d="m209.3 105.733 19.5 26-58.5 65-58.5-65 19.5-26h78zm0-5.2h-78a5.203 5.203 0 0 0-4.16 2.08l-19.5 26a5.202 5.202 0 0 0 .295 6.596l58.5 65a5.195 5.195 0 0 0 5.981 1.272 5.205 5.205 0 0 0 1.749-1.272l58.5-65a5.202 5.202 0 0 0 .295-6.596l-19.5-26a5.207 5.207 0 0 0-4.16-2.08z" fill="#515979"/><path d="M228.8 131.733h-39l19.5-26 19.5 26zM150.8 131.733h-39l19.5-26 19.5 26zM228.8 131.733l-58.5 65 19.5-65h39zM150.8 131.733l19.5 65-58.5-65h39zM189.8 131.733h-39l19.5-26 19.5 26z" fill="#3CC3F7"/><path d="M228.8 134.333h-117a2.6 2.6 0 1 1 0-5.2h117a2.6 2.6 0 1 1 0 5.2zM176.367 154.267h-12.134a2.6 2.6 0 0 0-2.6 2.6 8.67 8.67 0 0 0 8.602 8.731 8.666 8.666 0 0 0 8.732-8.601v-.13a2.6 2.6 0 0 0-2.6-2.6z" fill="#515979"/><path d="M170.3 162.899c2.494 0 4.515-.904 4.515-2.02 0-1.115-2.021-2.019-4.515-2.019-2.494 0-4.515.904-4.515 2.019 0 1.116 2.021 2.02 4.515 2.02z" fill="#EF7D7D"/><path d="M178.083 151.935a.871.871 0 0 1-.382-.086 4.703 4.703 0 0 0-3.536 0 .867.867 0 1 1-.762-1.56 6.414 6.414 0 0 1 5.061 0 .866.866 0 0 1-.381 1.646z" fill="#515979"/><path d="M175.933 150.644a3.683 3.683 0 1 0 .001-7.367 3.683 3.683 0 0 0-.001 7.367z" fill="#515979"/><path d="M176.852 147.879a.919.919 0 1 0 0-1.838.919.919 0 0 0 0 1.838z" fill="#fff"/><path d="M166.816 151.935a.867.867 0 0 1-.381-.086 4.703 4.703 0 0 0-3.536 0 .867.867 0 0 1-.763-1.56 6.423 6.423 0 0 1 5.061 0 .866.866 0 0 1-.381 1.646z" fill="#515979"/><path d="M164.667 150.644a3.683 3.683 0 1 0 0-7.366 3.683 3.683 0 0 0 0 7.366z" fill="#515979"/><path d="M165.585 147.879a.918.918 0 1 0 .002-1.836.918.918 0 0 0-.002 1.836z" fill="#fff"/><path d="M172.874 138.823a5.319 5.319 0 0 1 6.535.502c.927.789 2.158 2.6.598 3.363a1.285 1.285 0 0 1-1.084-.078 14.301 14.301 0 0 0-5.148-1.664l-.546-.139a1.114 1.114 0 0 1-.802-.88 1.123 1.123 0 0 1 .447-1.104zM166.825 140.946a12.136 12.136 0 0 0-3.762 1.014c-.459.208-.996.512-1.568.728a1.214 1.214 0 0 1-1.312-.273 1.215 1.215 0 0 1-.257-.394c-.329-1.049.555-1.994 1.265-2.696a5.321 5.321 0 0 1 6.535-.502 1.104 1.104 0 0 1 .446 1.148 1.114 1.114 0 0 1-.177.394c-.243.399-.772.477-1.17.581z" fill="#515979"/></svg>