<?xml version="1.0" encoding="utf-8"?>
<!-- Generator: Adobe Illustrator 26.0.2, SVG Export Plug-In . SVG Version: 6.00 Build 0)  -->
<svg version="1.1" id="Landing_x5F_Page_x5F_Hub-Landing_x5F_Page_x5F_User_x5F_Experience"
	 xmlns="http://www.w3.org/2000/svg" xmlns:xlink="http://www.w3.org/1999/xlink" x="0px" y="0px" viewBox="0 0 400 400"
	 style="enable-background:new 0 0 400 400;" xml:space="preserve">
<style type="text/css">
	.st0{fill:none;}
	.st1{fill:#EF7D7D;}
	.st2{fill:#515979;}
	.st3{fill:#F29797;}
	.st4{fill:#FFD886;}
	.st5{fill:#D8EBFB;}
	.st6{clip-path:url(#SVGID_00000095339473252796193490000008710062060607844011_);}
	.st7{fill:#FF987A;}
	.st8{fill:#8988CE;}
	.st9{fill:#FFD4D7;}
	.st10{fill:#FFE8A0;}
	.st11{fill:#FFEAEB;}
	.st12{fill:#FFFFFF;}
	.st13{fill:#7DDF96;}
	.st14{fill:#667683;}
	.st15{fill:#3CB48C;}
	.st16{fill:#D8F5DF;}
</style>
<g>
	<rect class="st0" width="400" height="400"/>
</g>
<g>
	<g>
		<g>
			<g>
				<path class="st1" d="M67.24,131.78c-0.63,0-1.25-0.2-1.77-0.58c-0.55-0.4-13.66-10.04-25.87-24.75
					C23.13,86.62,16.44,67.1,20.26,50c3.67-16.48,18.57-28.44,35.43-28.44c2.65,0,5.32,0.3,7.94,0.88
					c10.02,2.23,18.41,8.43,23.49,17.23c6.07-4.21,13.29-6.5,20.67-6.5c2.64,0,5.3,0.29,7.9,0.87
					c19.55,4.36,31.92,23.81,27.56,43.37c-3.81,17.1-18.16,31.93-41.49,42.89c-17.3,8.13-33.26,11.28-33.93,11.41
					C67.62,131.76,67.43,131.78,67.24,131.78z"/>
			</g>
		</g>
		<g>
			<g>
				<path class="st2" d="M55.69,24.57c2.4,0,4.84,0.26,7.28,0.81c10.66,2.38,18.95,9.63,23.11,18.87c5.94-5.1,13.61-8.07,21.7-8.07
					c2.39,0,4.82,0.26,7.25,0.8c17.97,4.01,29.29,21.82,25.28,39.79c-8.81,39.53-73.07,52.02-73.07,52.02s-52.87-38.6-44.06-78.12
					C26.64,35.13,40.41,24.57,55.69,24.57 M55.69,18.57c-8.8,0-17.47,3.02-24.41,8.52c-7.04,5.58-12,13.48-13.95,22.27
					c-9.56,42.87,44.09,82.6,46.38,84.28c1.04,0.76,2.28,1.15,3.54,1.15c0.38,0,0.76-0.04,1.14-0.11
					c2.78-0.54,68.22-13.73,77.78-56.6c4.72-21.17-8.66-42.23-29.83-46.95c-2.81-0.63-5.69-0.95-8.55-0.95
					c-6.95,0-13.76,1.87-19.74,5.35c-5.57-8.12-13.94-13.82-23.76-16.01C61.45,18.89,58.56,18.57,55.69,18.57L55.69,18.57z"/>
			</g>
		</g>
	</g>
	<g>
		<g>
			<g>
				<path class="st3" d="M29.9,57.28C33.91,39.31,51.72,27.99,69.69,32c4.66,1.04,8.86,3.01,12.46,5.66
					c-4.59-6.01-11.22-10.51-19.18-12.28C45,21.37,27.19,32.69,23.18,50.66c-6.1,27.35,17.33,54.25,32.35,68.23
					C41.24,103.96,24.66,80.78,29.9,57.28z"/>
			</g>
		</g>
	</g>
	<g>
		<g>
			<g>
				<path class="st2" d="M90.85,86.31l-27.33-6.09c-0.29-0.06-0.58-0.1-0.87-0.1c-0.75,0-1.5,0.21-2.15,0.62
					c-0.9,0.57-1.53,1.47-1.76,2.51c-1.05,4.69-0.2,9.51,2.38,13.57c2.58,4.06,6.58,6.87,11.28,7.91c1.29,0.29,2.61,0.43,3.93,0.43
					c8.35,0,15.74-5.92,17.56-14.09C94.37,88.93,93.01,86.79,90.85,86.31z"/>
			</g>
			<g>
				<g>
					<g>
						
							<ellipse transform="matrix(0.2176 -0.976 0.976 0.2176 -35.86 147.8507)" class="st1" cx="74.29" cy="96.29" rx="4.67" ry="10.41"/>
					</g>
				</g>
			</g>
		</g>
		<g>
			<g>
				<g>
					<g>
						<path class="st2" d="M90.64,60.67c3.7-1.91,8.57-1.32,11.53,1.71c1.56,1.53,3.42,5.23,0.45,6.14
							c-0.73,0.19-1.39-0.13-1.96-0.52c-2.12-1.48-3.91-2.35-6.43-2.86c-1.1-0.27-2.35-0.38-3.38-0.85
							C89.27,63.74,89.15,61.39,90.64,60.67L90.64,60.67z"/>
					</g>
				</g>
				<g>
					<g>
						<path class="st2" d="M72.11,60.22c-2.36-0.5-4.82-1.28-7.22-1.06c-0.84,0-1.95,0.29-2.99,0.36c-1.74,0.25-2.94-1.95-1.83-3.28
							c2.56-3.52,7.99-3.84,11.54-1.74c1.7,0.98,4.89,3.38,2.63,5.37C73.63,60.39,72.82,60.29,72.11,60.22L72.11,60.22z"/>
					</g>
				</g>
				<g>
					<g>
						<path class="st2" d="M71.15,76.22c-0.18,0-0.36-0.02-0.55-0.06c-1.35-0.3-2.2-1.64-1.9-2.98c0.15-0.65,0.03-1.32-0.33-1.88
							s-0.91-0.95-1.57-1.1c-0.65-0.14-1.32-0.03-1.88,0.33s-0.95,0.91-1.1,1.57c-0.3,1.35-1.63,2.2-2.98,1.9
							c-1.35-0.3-2.2-1.64-1.9-2.98c0.44-1.96,1.61-3.62,3.3-4.7c1.69-1.07,3.7-1.43,5.65-0.99c1.96,0.44,3.62,1.61,4.7,3.3
							c1.08,1.69,1.43,3.7,0.99,5.65C73.32,75.43,72.29,76.22,71.15,76.22z"/>
					</g>
				</g>
				<g>
					<g>
						<path class="st2" d="M96.48,81.87c-0.18,0-0.36-0.02-0.55-0.06c-1.35-0.3-2.2-1.64-1.9-2.98c0.3-1.35-0.55-2.68-1.9-2.98
							s-2.68,0.55-2.98,1.9c-0.3,1.35-1.63,2.2-2.98,1.9c-1.35-0.3-2.2-1.64-1.9-2.98c0.44-1.96,1.61-3.62,3.3-4.7
							c1.69-1.07,3.7-1.42,5.65-0.99c4.04,0.9,6.59,4.92,5.69,8.95C98.66,81.07,97.62,81.87,96.48,81.87z"/>
					</g>
				</g>
			</g>
		</g>
	</g>
</g>
<g>
	<g>
		<g>
			<path class="st4" d="M140.89,15.53c2.98,0,5.4-2.42,5.4-5.4c0-0.99,0.81-1.8,1.8-1.8s1.8,0.81,1.8,1.8c0,2.98,2.42,5.4,5.4,5.4
				c0.99,0,1.8,0.81,1.8,1.8s-0.81,1.8-1.8,1.8c-2.98,0-5.4,2.42-5.4,5.4c0,0.99-0.81,1.8-1.8,1.8s-1.8-0.81-1.8-1.8
				c0-2.98-2.42-5.4-5.4-5.4c-0.99,0-1.8-0.81-1.8-1.8C139.09,16.34,139.9,15.53,140.89,15.53z"/>
		</g>
	</g>
</g>
<g>
	<g>
		<g>
			<path class="st4" d="M123.4,164.69c2.98,0,5.4-2.42,5.4-5.4c0-0.99,0.81-1.8,1.8-1.8s1.8,0.81,1.8,1.8c0,2.98,2.42,5.4,5.4,5.4
				c0.99,0,1.8,0.81,1.8,1.8c0,0.99-0.81,1.8-1.8,1.8c-2.98,0-5.4,2.42-5.4,5.4c0,0.99-0.81,1.8-1.8,1.8s-1.8-0.81-1.8-1.8
				c0-2.98-2.42-5.4-5.4-5.4c-0.99,0-1.8-0.81-1.8-1.8C121.6,165.5,122.41,164.69,123.4,164.69z"/>
		</g>
	</g>
</g>
<g>
	<g>
		<g>
			<circle class="st4" cx="23.81" cy="168.99" r="2.5"/>
		</g>
	</g>
</g>
<g>
	<g>
		<g>
			<circle class="st4" cx="343.75" cy="51.71" r="2.5"/>
		</g>
	</g>
</g>
<g>
	<g>
		<g>
			<circle class="st4" cx="237.4" cy="175.49" r="2.5"/>
		</g>
	</g>
</g>
<g>
	<g>
		<g>
			<circle class="st4" cx="198.82" cy="192.22" r="4"/>
		</g>
	</g>
</g>
<g>
	<g>
		<g>
			<circle class="st4" cx="211.82" cy="157.23" r="4"/>
		</g>
	</g>
</g>
<g>
	<g>
		<g>
			<circle class="st4" cx="371.25" cy="26.6" r="4"/>
		</g>
	</g>
</g>
<g>
	<g>
		<g>
			<circle class="st4" cx="93.98" cy="153.23" r="2.5"/>
		</g>
	</g>
</g>
<g>
	<g>
		<g>
			<circle class="st4" cx="62.8" cy="166.49" r="2.5"/>
		</g>
	</g>
</g>
<g>
	<g>
		<g>
			<circle class="st4" cx="175.75" cy="88.53" r="2.5"/>
		</g>
	</g>
</g>
<g>
	<g>
		<g>
			<path class="st4" d="M255.71,82.73c2.98,0,5.4-2.42,5.4-5.4c0-0.99,0.81-1.8,1.8-1.8c0.99,0,1.8,0.81,1.8,1.8
				c0,2.98,2.42,5.4,5.4,5.4c0.99,0,1.8,0.81,1.8,1.8s-0.81,1.8-1.8,1.8c-2.98,0-5.4,2.42-5.4,5.4c0,0.99-0.81,1.8-1.8,1.8
				c-0.99,0-1.8-0.81-1.8-1.8c0-2.98-2.42-5.4-5.4-5.4c-0.99,0-1.8-0.81-1.8-1.8S254.72,82.73,255.71,82.73z"/>
		</g>
	</g>
</g>
<g>
	<g>
		<g>
			<circle class="st4" cx="290.75" cy="60.27" r="2.5"/>
		</g>
	</g>
</g>
<g>
	<g>
		<g>
			<circle class="st4" cx="283.68" cy="113.01" r="2.5"/>
		</g>
	</g>
</g>
<g>
	<g>
		<g>
			<circle class="st4" cx="224.33" cy="95.26" r="2.5"/>
		</g>
	</g>
</g>
<g>
	<g>
		<g>
			<circle class="st4" cx="313.25" cy="123.51" r="4"/>
		</g>
	</g>
</g>
<g>
	<g>
		<g>
			<path class="st1" d="M231.36,67.35c-0.59,0-1.18-0.18-1.68-0.52c-0.62-0.42-15.15-10.42-12.96-22.17c1-5.37,5.68-9.26,11.13-9.26
				c0.7,0,1.4,0.06,2.08,0.19c2.41,0.45,4.54,1.63,6.16,3.36c1.51-0.72,3.17-1.11,4.87-1.11c0.69,0,1.39,0.06,2.08,0.19
				c6.14,1.14,10.21,7.07,9.07,13.22c-2.19,11.75-19.34,15.84-20.07,16.01C231.81,67.33,231.58,67.35,231.36,67.35z"/>
		</g>
	</g>
	<g>
		<g>
			<path class="st2" d="M227.85,38.41c0.51,0,1.02,0.05,1.54,0.14c2.68,0.5,4.82,2.24,5.94,4.51c1.51-1.39,3.51-2.21,5.64-2.21
				c0.5,0,1.01,0.05,1.53,0.14c4.52,0.84,7.51,5.19,6.67,9.72c-1.85,9.95-17.8,13.64-17.8,13.64s-13.55-9.18-11.69-19.13
				C220.41,41.21,223.91,38.41,227.85,38.41 M227.85,32.41L227.85,32.41c-6.9,0-12.82,4.92-14.08,11.71
				c-2.5,13.43,12.51,24.03,14.23,25.2c1,0.68,2.18,1.03,3.37,1.03c0.45,0,0.9-0.05,1.35-0.15c2.02-0.47,19.84-4.96,22.35-18.38
				c1.45-7.77-3.7-15.27-11.47-16.72c-0.87-0.16-1.75-0.24-2.63-0.24c-1.45,0-2.88,0.22-4.24,0.64c-1.8-1.42-3.94-2.42-6.24-2.84
				C229.61,32.49,228.73,32.41,227.85,32.41L227.85,32.41z"/>
		</g>
	</g>
</g>
<g>
	<g>
		<g>
			<path class="st1" d="M322.36,105.95c-0.75-0.03-18.37-0.75-22.77-11.86c-1.12-2.81-1.07-5.89,0.13-8.67s3.41-4.92,6.23-6.04
				c1.33-0.53,2.73-0.8,4.16-0.8c0.96,0,1.91,0.12,2.83,0.36c1.26-2.01,3.13-3.57,5.4-4.48c1.34-0.53,2.74-0.8,4.17-0.8
				c4.68,0,8.81,2.81,10.54,7.16c4.4,11.11-7.94,23.71-8.46,24.24c-0.56,0.57-1.33,0.89-2.13,0.89
				C322.42,105.95,322.39,105.95,322.36,105.95z"/>
		</g>
	</g>
	<g>
		<g>
			<path class="st2" d="M322.51,76.67c3.32,0,6.45,1.99,7.75,5.26c3.73,9.41-7.8,21.02-7.8,21.02s-16.36-0.55-20.09-9.97
				c-1.7-4.28,0.4-9.12,4.68-10.82c1-0.4,2.04-0.59,3.05-0.59c1.56,0,3.07,0.44,4.38,1.24c0.67-2.45,2.43-4.56,4.96-5.57
				C320.45,76.86,321.49,76.67,322.51,76.67 M322.51,70.67c-1.81,0-3.59,0.34-5.28,1.01c-2.17,0.86-4.08,2.25-5.58,3.99
				c-0.51-0.06-1.03-0.08-1.55-0.08c-1.81,0-3.58,0.34-5.27,1.01c-7.35,2.91-10.96,11.26-8.04,18.61
				c5.03,12.7,23.38,13.68,25.46,13.75c0.07,0,0.14,0,0.2,0c1.6,0,3.13-0.64,4.26-1.77c1.46-1.47,14.16-14.76,9.12-27.46
				C333.66,74.22,328.43,70.67,322.51,70.67L322.51,70.67z"/>
		</g>
	</g>
</g>
<g>
	<g>
		<circle class="st5" cx="91.65" cy="302.28" r="70"/>
		<path class="st2" d="M91.65,375.28c-40.25,0-73-32.75-73-73s32.75-73,73-73s73,32.75,73,73S131.9,375.28,91.65,375.28z
			 M91.65,235.28c-36.94,0-67,30.06-67,67s30.06,67,67,67s67-30.06,67-67S128.59,235.28,91.65,235.28z"/>
	</g>
	<g>
		<defs>
			<path id="SVGID_1_" d="M21.65,172.28v130c0,38.66,31.34,70,70,70s70-31.34,70-70v-130H21.65z"/>
		</defs>
		<clipPath id="SVGID_00000025422807511614296760000005433690222641838507_">
			<use xlink:href="#SVGID_1_"  style="overflow:visible;"/>
		</clipPath>
		<g style="clip-path:url(#SVGID_00000025422807511614296760000005433690222641838507_);">
			<g>
				<g>
					<g>
						<path class="st7" d="M41.65,360.28c-0.55,0-1.1-0.15-1.58-0.45c-0.88-0.55-1.42-1.51-1.42-2.55v-112c0-29.22,23.78-53,53-53
							s53,23.78,53,53v62c0,1.14-0.64,2.18-1.66,2.68l-100,50C42.56,360.17,42.1,360.28,41.65,360.28z"/>
					</g>
				</g>
				<g>
					<g>
						<path class="st2" d="M91.65,195.28c27.61,0,50,22.39,50,50v62l-100,50v-112C41.65,217.66,64.03,195.28,91.65,195.28
							L91.65,195.28 M91.65,189.28c-30.88,0-56,25.12-56,56v112c0,2.08,1.08,4.01,2.85,5.1c0.96,0.6,2.06,0.9,3.15,0.9
							c0.92,0,1.84-0.21,2.68-0.63l100-50c2.03-1.02,3.32-3.09,3.32-5.37v-62C147.65,214.4,122.52,189.28,91.65,189.28L91.65,189.28
							z"/>
					</g>
				</g>
			</g>
			<g>
				<g>
					<path class="st2" d="M62.65,335.78c-1.38,0-2.5-1.12-2.5-2.5v-46c0-1.38,1.12-2.5,2.5-2.5s2.5,1.12,2.5,2.5v46
						C65.15,334.66,64.03,335.78,62.65,335.78z"/>
				</g>
			</g>
			<g>
				<g>
					<path class="st2" d="M50.65,335.78c-1.38,0-2.5-1.12-2.5-2.5v-46c0-1.38,1.12-2.5,2.5-2.5s2.5,1.12,2.5,2.5v46
						C53.15,334.66,52.03,335.78,50.65,335.78z"/>
				</g>
			</g>
			<g>
				<g>
					<g>
						<path class="st8" d="M18.65,412.28v-35.64c0-18.88,12.1-35.36,30.11-41.02l42.89-13.48l42.89,13.48
							c18.01,5.66,30.11,22.15,30.11,41.02v35.64H18.65z"/>
					</g>
				</g>
				<g>
					<g>
						<g>
							<path class="st2" d="M91.65,325.28l41.99,13.2c16.67,5.24,28.01,20.69,28.01,38.16v32.64h-140v-32.64
								c0-17.47,11.34-32.92,28.01-38.16L91.65,325.28 M91.65,318.99l-1.8,0.57l-41.99,13.2c-19.26,6.05-32.21,23.69-32.21,43.88
								v32.64v6h6h140h6v-6v-32.64c0-20.19-12.94-37.83-32.21-43.88l-41.99-13.2L91.65,318.99L91.65,318.99z"/>
						</g>
					</g>
				</g>
			</g>
			<g>
				<g>
					<g>
						<path class="st9" d="M51.65,278.08c-6.07,0-11-4.93-11-11v-1.6c0-6.07,4.93-11,11-11c1.66,0,3,1.34,3,3v17.6
							C54.65,276.74,53.3,278.08,51.65,278.08z"/>
					</g>
				</g>
				<g>
					<g>
						<g>
							<path class="st2" d="M51.65,257.48v17.6c-4.42,0-8-3.58-8-8v-1.6C43.65,261.06,47.23,257.48,51.65,257.48 M51.65,251.48
								c-7.72,0-14,6.28-14,14v1.6c0,7.72,6.28,14,14,14c3.31,0,6-2.69,6-6v-17.6C57.65,254.16,54.96,251.48,51.65,251.48
								L51.65,251.48z"/>
						</g>
					</g>
				</g>
			</g>
			<g>
				<g>
					<g>
						<circle class="st10" cx="48.65" cy="281.28" r="6"/>
					</g>
				</g>
				<g>
					<g>
						<path class="st2" d="M48.65,278.28c1.66,0,3,1.34,3,3s-1.34,3-3,3s-3-1.34-3-3S46.99,278.28,48.65,278.28 M48.65,272.28
							c-4.96,0-9,4.04-9,9s4.04,9,9,9s9-4.04,9-9S53.61,272.28,48.65,272.28L48.65,272.28z"/>
					</g>
				</g>
			</g>
			<g>
				<g>
					<g>
						<path class="st11" d="M91.65,365.28c-0.82,0-1.61-0.34-2.18-0.94c-1.42-1.49-13.82-14.85-13.82-24.06v-45c0-1.66,1.34-3,3-3
							h26c1.66,0,3,1.34,3,3v45c0,9.21-12.41,22.57-13.82,24.06C93.26,364.94,92.47,365.28,91.65,365.28z"/>
					</g>
				</g>
				<g>
					<g>
						<g>
							<path class="st2" d="M104.65,295.28v45c0,8.28-13,22-13,22s-13-13.72-13-22v-45H104.65 M104.65,289.28h-26
								c-3.31,0-6,2.69-6,6v45c0,4.8,2.5,10.57,7.65,17.64c3.44,4.72,6.85,8.34,7,8.49c1.13,1.2,2.71,1.87,4.35,1.87
								c1.65,0,3.22-0.68,4.35-1.87c0.14-0.15,3.56-3.77,7-8.49c5.15-7.07,7.65-12.84,7.65-17.64v-45
								C110.65,291.96,107.96,289.28,104.65,289.28L104.65,289.28z"/>
						</g>
					</g>
				</g>
			</g>
			<g>
				<g>
					<path class="st9" d="M78.65,299.28v29.93c4.09,1.33,8.46,2.07,13,2.07s8.91-0.73,13-2.07v-29.93H78.65z"/>
				</g>
			</g>
			<g>
				<g>
					<g>
						<path class="st7" d="M111.65,353.65c-1.66,0-3-1.34-3-3v-84.38c0-1.66,1.34-3,3-3h30c1.66,0,3,1.34,3,3v54.38
							C144.65,338.85,129.84,353.65,111.65,353.65z"/>
					</g>
				</g>
				<g>
					<g>
						<path class="st2" d="M141.65,266.28v54.38c0,16.57-13.43,30-30,30h0v-84.38H141.65 M141.65,260.28h-30c-3.31,0-6,2.69-6,6
							v84.38c0,3.31,2.69,6,6,6c19.85,0,36-16.15,36-36v-54.38C147.65,262.96,144.96,260.28,141.65,260.28L141.65,260.28z"/>
					</g>
				</g>
			</g>
			<g>
				<g>
					<path class="st2" d="M120.65,342.78c-1.38,0-2.5-1.12-2.5-2.5v-46c0-1.38,1.12-2.5,2.5-2.5s2.5,1.12,2.5,2.5v46
						C123.15,341.66,122.03,342.78,120.65,342.78z"/>
				</g>
			</g>
			<g>
				<g>
					<path class="st2" d="M131.65,331.78c-1.38,0-2.5-1.12-2.5-2.5v-46c0-1.38,1.12-2.5,2.5-2.5s2.5,1.12,2.5,2.5v46
						C134.15,330.66,133.03,331.78,131.65,331.78z"/>
				</g>
			</g>
			<g>
				<g>
					<g>
						<path class="st11" d="M131.65,278.08c-1.66,0-3-1.34-3-3v-17.6c0-1.66,1.34-3,3-3c6.07,0,11,4.93,11,11v1.6
							C142.65,273.14,137.71,278.08,131.65,278.08z"/>
					</g>
				</g>
				<g>
					<g>
						<g>
							<path class="st2" d="M131.65,257.48c4.42,0,8,3.58,8,8v1.6c0,4.42-3.58,8-8,8h0L131.65,257.48L131.65,257.48 M131.65,251.48
								c-3.31,0-6,2.69-6,6l0,17.6c0,1.59,0.63,3.12,1.76,4.24s2.65,1.76,4.24,1.76c7.72,0,14-6.28,14-14v-1.6
								C145.65,257.76,139.37,251.48,131.65,251.48L131.65,251.48z"/>
						</g>
					</g>
				</g>
			</g>
			<g>
				<g>
					<g>
						<circle class="st10" cx="134.65" cy="281.28" r="6"/>
					</g>
				</g>
				<g>
					<g>
						<path class="st2" d="M134.65,278.28c1.66,0,3,1.34,3,3s-1.34,3-3,3c-1.66,0-3-1.34-3-3S132.99,278.28,134.65,278.28
							 M134.65,272.28c-4.96,0-9,4.04-9,9s4.04,9,9,9s9-4.04,9-9S139.61,272.28,134.65,272.28L134.65,272.28z"/>
					</g>
				</g>
			</g>
			<g>
				<g>
					<g>
						<path class="st11" d="M91.65,312.28c-21.5,0-39-17.5-39-39v-28c0-21.5,17.5-39,39-39s39,17.5,39,39v28
							C130.65,294.78,113.15,312.28,91.65,312.28z"/>
					</g>
				</g>
				<g>
					<g>
						<g>
							<path class="st2" d="M91.65,209.28c19.88,0,36,16.12,36,36v28c0,19.88-16.12,36-36,36h0c-19.88,0-36-16.12-36-36v-28
								C55.65,225.4,71.76,209.28,91.65,209.28L91.65,209.28 M91.65,203.28c-23.16,0-42,18.84-42,42v28c0,23.16,18.84,42,42,42
								c23.16,0,42-18.84,42-42v-28C133.65,222.12,114.8,203.28,91.65,203.28L91.65,203.28z"/>
						</g>
					</g>
				</g>
			</g>
			<g>
				<g>
					<path class="st9" d="M63.65,273.28v-28c0-18.53,14-33.78,32-35.77c-1.31-0.15-2.65-0.23-4-0.23h0c-19.88,0-36,16.12-36,36v28
						c0,19.88,16.12,36,36,36h0c1.35,0,2.69-0.08,4-0.23C77.65,307.06,63.65,291.81,63.65,273.28z"/>
				</g>
			</g>
			<g>
				<g>
					<path class="st9" d="M98.65,266.28c0,3.87-3.13,7-7,7h0c-3.87,0-7-3.13-7-7L98.65,266.28z"/>
				</g>
			</g>
			<g>
				<g>
					<path class="st2" d="M91.98,286.29c-4.88,0-9.88-1.06-14.21-3.18c-0.99-0.49-1.4-1.68-0.92-2.68c0.49-0.99,1.69-1.4,2.68-0.92
						c7.48,3.67,17.64,3.68,24.14,0.02c0.96-0.54,2.18-0.2,2.72,0.76c0.54,0.96,0.2,2.18-0.76,2.72
						C101.76,285.2,96.93,286.29,91.98,286.29z"/>
				</g>
			</g>
			<g>
				<g>
					<g>
						<path class="st2" d="M87.86,289.05c2.47,0.57,5.1,0.59,7.57,0c1.27-0.35,2.15,1.33,1.18,2.18c-0.77,0.76-1.77,1.54-2.78,1.78
							c-2.16,0.62-4.6,0.39-6.39-1.11c0,0-0.74-0.66-0.74-0.66C85.7,290.38,86.61,288.71,87.86,289.05L87.86,289.05z"/>
					</g>
				</g>
			</g>
			<g>
				<g>
					<path class="st7" d="M44.43,239.67c13.19,0,35.22-25.39,35.22-25.39s21.46,31,61,31l-4-18.89l-9.2-11.88l-15.12-10.73
						l-21.23-4.64l-21.5,4.93L55,214.48l-7.84,10.68L44.43,239.67z"/>
				</g>
			</g>
			<g>
				<g>
					<path class="st2" d="M138.65,248.28c-33.32,0-52.75-20.8-59.18-29.09c-2.14,2.5-5.48,6.21-9.41,9.96
						c-9.41,8.97-17.36,13.52-23.63,13.52c-1.66,0-3-1.34-3-3s1.34-3,3-3c4.53,0,11.44-4.2,19.44-11.82
						c6.44-6.13,11.38-12.37,11.43-12.43c0.6-0.77,1.55-1.19,2.52-1.14c0.97,0.05,1.86,0.57,2.38,1.4
						c0.18,0.29,19.13,29.59,56.46,29.59c1.66,0,3,1.34,3,3S140.3,248.28,138.65,248.28z"/>
				</g>
			</g>
			<g>
				<g>
					<path class="st2" d="M129.64,236.75c-0.23,0-0.46-0.03-0.7-0.1c-26.57-7.7-40.71-26.09-41.3-26.87
						c-0.83-1.1-0.61-2.67,0.49-3.5c1.1-0.83,2.67-0.62,3.5,0.49c0.13,0.18,13.79,17.86,38.7,25.08c1.33,0.38,2.09,1.77,1.71,3.1
						C131.73,236.04,130.73,236.75,129.64,236.75z"/>
				</g>
			</g>
			<g>
				<g>
					<path class="st2" d="M91.65,275.78c-5.24,0-9.5-4.26-9.5-9.5v-11c0-1.38,1.12-2.5,2.5-2.5s2.5,1.12,2.5,2.5v11
						c0,2.48,2.02,4.5,4.5,4.5s4.5-2.02,4.5-4.5v-11c0-1.38,1.12-2.5,2.5-2.5s2.5,1.12,2.5,2.5v11
						C101.15,271.52,96.88,275.78,91.65,275.78z"/>
				</g>
			</g>
			<g>
				<g>
					<g>
						<circle class="st2" cx="110.65" cy="256.28" r="6"/>
					</g>
				</g>
				<g>
					<g>
						<circle class="st12" cx="112.65" cy="256.28" r="1.5"/>
					</g>
				</g>
				<g>
					<g>
						<path class="st2" d="M114.64,265.28c-0.35,0-0.71-0.09-1.03-0.29c-1.58-0.95-4.35-0.95-5.93,0c-0.95,0.57-2.18,0.27-2.75-0.68
							c-0.57-0.95-0.27-2.17,0.68-2.75c2.82-1.71,7.24-1.71,10.07,0c0.95,0.57,1.25,1.8,0.68,2.75
							C115.98,264.93,115.32,265.28,114.64,265.28z"/>
					</g>
				</g>
			</g>
			<g>
				<g>
					<g>
						<circle class="st2" cx="72.65" cy="256.28" r="6"/>
					</g>
				</g>
				<g>
					<g>
						<path class="st2" d="M76.64,265.28c-0.35,0-0.71-0.09-1.03-0.29c-1.58-0.95-4.35-0.95-5.93,0c-0.95,0.57-2.18,0.27-2.75-0.68
							c-0.57-0.95-0.27-2.17,0.68-2.75c2.82-1.71,7.24-1.71,10.07,0c0.95,0.57,1.25,1.8,0.68,2.75
							C77.98,264.93,77.32,265.28,76.64,265.28z"/>
					</g>
				</g>
				<g>
					<g>
						<circle class="st12" cx="74.65" cy="256.28" r="1.5"/>
					</g>
				</g>
			</g>
			<g>
				<g>
					<path class="st2" d="M104.77,244.93c4.22-4.89,13.85-3.9,15.66,2.73c0.16,0.57-0.16,1.16-0.73,1.33
						c-0.29,0.09-0.58,0.03-0.84-0.09c-3.26-1.49-5.9-2.32-9.45-2.25c-1.19-0.02-2.54,0.06-3.88,0.03
						C104.66,246.7,104.17,245.56,104.77,244.93L104.77,244.93z"/>
				</g>
			</g>
			<g>
				<g>
					<path class="st2" d="M77.57,246.69c-4.84-0.2-8.73-0.03-13.14,2.21c-0.58,0.29-1.31,0.07-1.54-0.56
						c-0.02-3.42,3.92-6.14,7.13-6.43c3.19-0.34,6.32,0.65,8.51,3.02C79.19,245.67,78.52,246.81,77.57,246.69L77.57,246.69z"/>
				</g>
			</g>
		</g>
	</g>
	<g>
		<path class="st2" d="M91.65,375.28c-40.25,0-73-32.75-73-73h6c0,36.94,30.06,67,67,67s67-30.06,67-67h6
			C164.65,342.53,131.9,375.28,91.65,375.28z"/>
	</g>
</g>
<g>
	<g>
		<g>
			<g>
				<path class="st12" d="M198.25,391.28c-7.17,0-13-5.83-13-13v-226c0-7.17,5.83-13,13-13h180c7.17,0,13,5.83,13,13v226
					c0,7.17-5.83,13-13,13H198.25z"/>
			</g>
		</g>
		<g>
			<g>
				<path class="st2" d="M378.25,142.28c5.52,0,10,4.48,10,10v226c0,5.52-4.48,10-10,10h-180c-5.52,0-10-4.48-10-10v-226
					c0-5.52,4.48-10,10-10H378.25 M378.25,136.28h-180c-8.82,0-16,7.18-16,16v226c0,8.82,7.18,16,16,16h180c8.82,0,16-7.18,16-16
					v-226C394.25,143.46,387.07,136.28,378.25,136.28L378.25,136.28z"/>
			</g>
		</g>
	</g>
	<g>
		<g>
			<path class="st13" d="M378.25,388.28h-180c-5.52,0-10-4.48-10-10v-54h200v54C388.25,383.8,383.77,388.28,378.25,388.28z"/>
		</g>
	</g>
	<g>
		<g>
			<rect x="188.25" y="176.28" class="st13" width="200" height="76"/>
		</g>
	</g>
	<g>
		<g>
			<g>
				<path class="st14" d="M188.25,173.28c-1.66,0-3-1.34-3-3v-18c0-7.17,5.83-13,13-13h180c7.17,0,13,5.83,13,13v18
					c0,1.66-1.34,3-3,3H188.25z"/>
			</g>
		</g>
		<g>
			<g>
				<path class="st2" d="M378.25,142.28c5.52,0,10,4.48,10,10v18h-200v-18c0-5.52,4.48-10,10-10H378.25 M378.25,136.28h-180
					c-8.82,0-16,7.18-16,16v18c0,3.31,2.69,6,6,6h200c3.31,0,6-2.69,6-6v-18C394.25,143.46,387.07,136.28,378.25,136.28
					L378.25,136.28z"/>
			</g>
		</g>
	</g>
	<g>
		<g>
			<g>
				<path class="st12" d="M278.25,163.28c-3.86,0-7-3.14-7-7s3.14-7,7-7h94c3.86,0,7,3.14,7,7s-3.14,7-7,7H278.25z"/>
			</g>
		</g>
		<g>
			<g>
				<g>
					<path class="st2" d="M372.25,152.28c2.21,0,4,1.79,4,4s-1.79,4-4,4h-94c-2.21,0-4-1.79-4-4s1.79-4,4-4H372.25 M372.25,146.28
						h-94c-5.51,0-10,4.49-10,10s4.49,10,10,10h94c5.51,0,10-4.49,10-10S377.77,146.28,372.25,146.28L372.25,146.28z"/>
				</g>
			</g>
		</g>
	</g>
	<g>
		<g>
			<g>
				<circle class="st1" cx="204.25" cy="156.28" r="7"/>
			</g>
		</g>
		<g>
			<g>
				<g>
					<path class="st2" d="M204.25,152.28c2.21,0,4,1.79,4,4s-1.79,4-4,4c-2.21,0-4-1.79-4-4S202.04,152.28,204.25,152.28
						 M204.25,146.28c-5.51,0-10,4.49-10,10c0,5.51,4.49,10,10,10c5.51,0,10-4.49,10-10C214.25,150.76,209.77,146.28,204.25,146.28
						L204.25,146.28z"/>
				</g>
			</g>
		</g>
	</g>
	<g>
		<g>
			<g>
				<circle class="st10" cx="228.25" cy="156.28" r="7"/>
			</g>
		</g>
		<g>
			<g>
				<g>
					<path class="st2" d="M228.25,152.28c2.21,0,4,1.79,4,4s-1.79,4-4,4c-2.21,0-4-1.79-4-4S226.04,152.28,228.25,152.28
						 M228.25,146.28c-5.51,0-10,4.49-10,10c0,5.51,4.49,10,10,10c5.51,0,10-4.49,10-10C238.25,150.76,233.77,146.28,228.25,146.28
						L228.25,146.28z"/>
				</g>
			</g>
		</g>
	</g>
	<g>
		<g>
			<g>
				<circle class="st13" cx="252.25" cy="156.28" r="7"/>
			</g>
		</g>
		<g>
			<g>
				<g>
					<path class="st2" d="M252.25,152.28c2.21,0,4,1.79,4,4s-1.79,4-4,4s-4-1.79-4-4S250.04,152.28,252.25,152.28 M252.25,146.28
						c-5.51,0-10,4.49-10,10c0,5.51,4.49,10,10,10s10-4.49,10-10C262.25,150.76,257.77,146.28,252.25,146.28L252.25,146.28z"/>
				</g>
			</g>
		</g>
	</g>
	<g>
		<g>
			<g>
				<circle class="st15" cx="253.25" cy="212.78" r="2.5"/>
			</g>
		</g>
		<g>
			<g>
				<circle class="st15" cx="258.75" cy="223.78" r="2.5"/>
			</g>
		</g>
		<g>
			<g>
				<circle class="st15" cx="247.75" cy="223.78" r="2.5"/>
			</g>
		</g>
	</g>
	<g>
		<g>
			<g>
				<circle class="st15" cx="323.25" cy="212.78" r="2.5"/>
			</g>
		</g>
		<g>
			<g>
				<circle class="st15" cx="328.75" cy="223.78" r="2.5"/>
			</g>
		</g>
		<g>
			<g>
				<circle class="st15" cx="317.75" cy="223.78" r="2.5"/>
			</g>
		</g>
	</g>
	<g>
		<g>
			<rect x="188.25" y="251.28" class="st16" width="200" height="74"/>
		</g>
	</g>
	<g>
		<g>
			<g>
				<path class="st12" d="M207.25,310.28h42c2.21,0,4-1.79,4-4v-36c0-2.21-1.79-4-4-4h-42c-2.21,0-4,1.79-4,4v36
					C203.25,308.49,205.04,310.28,207.25,310.28z"/>
			</g>
		</g>
		<g>
			<g>
				<circle class="st16" cx="215.25" cy="278.28" r="6"/>
			</g>
		</g>
		<g>
			<g>
				<path class="st13" d="M245.25,292.28h-34c-1.1,0-2-0.9-2-2l0,0c0-1.1,0.9-2,2-2h34c1.1,0,2,0.9,2,2l0,0
					C247.25,291.38,246.36,292.28,245.25,292.28z"/>
			</g>
		</g>
		<g>
			<g>
				<path class="st13" d="M231.25,300.28h-20c-1.1,0-2-0.9-2-2l0,0c0-1.1,0.9-2,2-2h20c1.1,0,2,0.9,2,2l0,0
					C233.25,299.38,232.36,300.28,231.25,300.28z"/>
			</g>
		</g>
	</g>
	<g>
		<g>
			<g>
				<path class="st12" d="M327.25,310.28h42c2.21,0,4-1.79,4-4v-36c0-2.21-1.79-4-4-4h-42c-2.21,0-4,1.79-4,4v36
					C323.25,308.49,325.04,310.28,327.25,310.28z"/>
			</g>
		</g>
		<g>
			<g>
				<circle class="st16" cx="335.25" cy="278.28" r="6"/>
			</g>
		</g>
		<g>
			<g>
				<path class="st13" d="M365.25,292.28h-34c-1.1,0-2-0.9-2-2l0,0c0-1.1,0.9-2,2-2h34c1.1,0,2,0.9,2,2l0,0
					C367.25,291.38,366.36,292.28,365.25,292.28z"/>
			</g>
		</g>
		<g>
			<g>
				<path class="st13" d="M343.25,300.28h-12c-1.1,0-2-0.9-2-2l0,0c0-1.1,0.9-2,2-2h12c1.1,0,2,0.9,2,2l0,0
					C345.25,299.38,344.36,300.28,343.25,300.28z"/>
			</g>
		</g>
	</g>
	<g>
		<g>
			<g>
				<path class="st12" d="M267.25,310.28h42c2.21,0,4-1.79,4-4v-36c0-2.21-1.79-4-4-4h-42c-2.21,0-4,1.79-4,4v36
					C263.25,308.49,265.04,310.28,267.25,310.28z"/>
			</g>
		</g>
		<g>
			<g>
				<circle class="st16" cx="275.25" cy="278.28" r="6"/>
			</g>
		</g>
		<g>
			<g>
				<path class="st13" d="M305.25,292.28h-34c-1.1,0-2-0.9-2-2l0,0c0-1.1,0.9-2,2-2h34c1.1,0,2,0.9,2,2l0,0
					C307.25,291.38,306.36,292.28,305.25,292.28z"/>
			</g>
		</g>
		<g>
			<g>
				<path class="st13" d="M297.25,300.28h-26c-1.1,0-2-0.9-2-2l0,0c0-1.1,0.9-2,2-2h26c1.1,0,2,0.9,2,2l0,0
					C299.25,299.38,298.36,300.28,297.25,300.28z"/>
			</g>
		</g>
	</g>
	<g>
		<g>
			<circle class="st16" cx="228.25" cy="358.28" r="24"/>
		</g>
	</g>
	<g>
		<g>
			<circle class="st16" cx="288.25" cy="358.28" r="24"/>
		</g>
	</g>
	<g>
		<g>
			<circle class="st16" cx="348.25" cy="358.28" r="24"/>
		</g>
	</g>
	<g>
		<g>
			<g>
				<g>
					<path class="st2" d="M307.75,214.75c-0.32,0-0.64-0.08-0.94-0.24c-1.89-1.02-5.21-1.02-7.11,0c-0.98,0.52-2.19,0.16-2.71-0.82
						c-0.52-0.97-0.16-2.19,0.82-2.71c3.05-1.64,7.84-1.64,10.89,0c0.97,0.52,1.34,1.73,0.82,2.71
						C309.15,214.37,308.46,214.75,307.75,214.75z"/>
				</g>
			</g>
			<g>
				<g>
					<g>
						<circle class="st2" cx="303.25" cy="204" r="8"/>
					</g>
				</g>
				<g>
					<g>
						<circle class="st12" cx="305.25" cy="204" r="2"/>
					</g>
				</g>
			</g>
			<g>
				<g>
					<path class="st2" d="M297.37,188.62c3.68-3.2,9.6-3.78,13.59-0.77c1.81,1.35,4.82,4.88,1.93,6.45
						c-0.74,0.34-1.5,0.14-2.13-0.25c-1.05-0.55-1.86-1.12-2.73-1.43c-2.91-1.36-6.23-0.67-9.32-0.51
						C296.87,192.17,295.98,189.77,297.37,188.62L297.37,188.62z"/>
				</g>
			</g>
			<g>
				<g>
					<path class="st2" d="M277.75,214.75c-0.32,0-0.64-0.08-0.94-0.24c-1.89-1.02-5.21-1.02-7.11,0c-0.97,0.52-2.19,0.16-2.71-0.82
						c-0.52-0.97-0.16-2.19,0.82-2.71c3.05-1.64,7.84-1.64,10.89,0c0.97,0.52,1.34,1.73,0.82,2.71
						C279.15,214.37,278.46,214.75,277.75,214.75z"/>
				</g>
			</g>
			<g>
				<g>
					<g>
						<circle class="st2" cx="273.25" cy="204" r="8"/>
					</g>
				</g>
				<g>
					<g>
						<circle class="st12" cx="275.25" cy="204" r="2"/>
					</g>
				</g>
			</g>
			<g>
				<g>
					<path class="st2" d="M277.18,192.11c-1.94-0.19-4.24-0.52-6.14-0.2c-2.14,0.25-3.69,1.26-5.66,2.33
						c-1,0.52-2.23,0.14-2.75-0.86c-0.3-0.57-0.3-1.22-0.06-1.77c1.83-4.71,7.87-6.81,12.48-5.23c1.95,0.66,6.22,2.41,4.28,5.04
						C278.78,192.09,277.95,192.16,277.18,192.11L277.18,192.11z"/>
				</g>
			</g>
		</g>
		<g>
			<g>
				<path class="st2" d="M288.67,227.03c-6.02,0-12.19-1.77-17.52-5.31c-0.92-0.61-1.17-1.85-0.56-2.77
					c0.61-0.92,1.85-1.17,2.77-0.56c9.2,6.1,21.68,6.11,29.68,0.02c0.88-0.67,2.13-0.5,2.8,0.38c0.67,0.88,0.5,2.13-0.38,2.8
					C300.7,225.22,294.76,227.03,288.67,227.03z"/>
			</g>
		</g>
		<g>
			<g>
				<path class="st2" d="M284.07,230.13c2.7,0.79,5.66,0.86,8.34,0c1.29-0.47,2.34,1.21,1.39,2.17c0,0-0.72,0.76-0.72,0.76
					c-2.84,2.68-7.68,2.05-10.33-0.58C281.63,231.53,282.7,229.67,284.07,230.13L284.07,230.13z"/>
			</g>
		</g>
	</g>
</g>
</svg>
