<?xml version="1.0" encoding="utf-8"?>
<!-- Generator: Adobe Illustrator 25.3.1, SVG Export Plug-In . SVG Version: 6.00 Build 0)  -->
<svg version="1.1" id="_x35_0-best-seo-tools" xmlns="http://www.w3.org/2000/svg" xmlns:xlink="http://www.w3.org/1999/xlink"
	 x="0px" y="0px" viewBox="0 0 400 400" style="enable-background:new 0 0 400 400;" xml:space="preserve">
<style type="text/css">
	.st0{fill:#FFFFFF;}
	.st1{fill:#515979;}
	.st2{fill:#FDE1D9;}
	.st3{fill:#D8EBFB;}
	.st4{fill:#7DDF96;}
	.st5{fill:#C7BCFF;}
	.st6{fill:#EF7D7D;}
	.st7{fill:#FFD886;}
	.st8{fill:#FFE8B6;}
	.st9{fill:#F89D81;}
	.st10{fill:#FBC4B3;}
	.st11{fill:#FFC369;}
	.st12{fill:#CCCCCC;}
	.st13{fill:#979BAF;}
	.st14{fill:#A0D2FF;}
	.st15{fill:#9E8271;}
	.st16{fill:#FAC864;}
</style>
<g>
	<g>
		<g>
			<path class="st0" d="M241,397c-3.86,0-7-3.19-7-7.11V256.11c0-3.92,3.14-7.11,7-7.11h102c0.8,0,1.56,0.32,2.12,0.88l24,24
				c0.56,0.56,0.88,1.33,0.88,2.12v113.89c0,3.92-3.14,7.11-7,7.11H241z"/>
		</g>
		<g>
			<path class="st1" d="M343,252l24,24v113.89c0,2.27-1.79,4.11-4,4.11H241c-2.21,0-4-1.84-4-4.11V256.11c0-2.27,1.79-4.11,4-4.11
				H343 M343,246H241c-5.51,0-10,4.53-10,10.11v133.79c0,5.57,4.49,10.11,10,10.11h122c5.51,0,10-4.53,10-10.11V276
				c0-1.59-0.63-3.12-1.76-4.24l-24-24C346.12,246.63,344.59,246,343,246L343,246z"/>
		</g>
	</g>
	<g>
		<g>
			<circle class="st2" cx="272" cy="287" r="2"/>
		</g>
		<g>
			<circle class="st2" cx="276" cy="295" r="2"/>
		</g>
		<g>
			<circle class="st2" cx="268" cy="295" r="2"/>
		</g>
	</g>
	<g>
		<g>
			<circle class="st2" cx="332" cy="287" r="2"/>
		</g>
		<g>
			<circle class="st2" cx="336" cy="295" r="2"/>
		</g>
		<g>
			<circle class="st2" cx="328" cy="295" r="2"/>
		</g>
	</g>
	<g>
		<g>
			<path class="st3" d="M347.8,279c-4.3,0-7.8-3.5-7.8-7.8V252c0-1.21,0.73-2.31,1.85-2.77c0.37-0.15,0.76-0.23,1.15-0.23
				c0.78,0,1.55,0.3,2.12,0.88l24,24c0.86,0.86,1.12,2.15,0.65,3.27c-0.46,1.12-1.56,1.85-2.77,1.85H347.8z"/>
		</g>
		<g>
			<path class="st1" d="M343,252l24,24h-19.2c-2.65,0-4.8-2.15-4.8-4.8V252 M343,246c-0.77,0-1.55,0.15-2.29,0.46
				c-2.24,0.93-3.7,3.12-3.7,5.54v19.2c0,5.96,4.84,10.8,10.8,10.8H367c2.43,0,4.61-1.46,5.54-3.7c0.93-2.24,0.42-4.82-1.3-6.54
				l-24-24C346.09,246.61,344.56,246,343,246L343,246z"/>
		</g>
	</g>
	<g>
		<g>
			<g>
				<g>
					<g>
						<path class="st1" d="M317.53,287.81c-1.1,0-2-0.9-2-2c0-1.65-1.35-3-3-3s-3,1.35-3,3c0,1.1-0.9,2-2,2s-2-0.9-2-2
							c0-3.86,3.14-7,7-7s7,3.14,7,7C319.53,286.91,318.63,287.81,317.53,287.81z"/>
					</g>
				</g>
				<g>
					<path class="st1" d="M310.09,271.87c0.97-0.61,1.86-0.91,2.88-1.12c0.99-0.21,2.03-0.24,3.08-0.12
						c1.04,0.11,2.1,0.44,3.07,0.95c0.97,0.5,1.83,1.28,2.42,2.19c0.52,0.8,0.29,1.86-0.51,2.38c-0.38,0.24-0.81,0.32-1.22,0.25
						l-0.4-0.07c-0.78-0.13-1.39-0.32-2.04-0.43c-0.65-0.1-1.27-0.25-1.96-0.33l-2.11-0.25c-0.72-0.08-1.55-0.12-2.25-0.28
						l-0.42-0.09c-0.92-0.2-1.5-1.11-1.29-2.02C309.44,272.48,309.72,272.1,310.09,271.87z"/>
				</g>
			</g>
			<g>
				<g>
					<g>
						<path class="st1" d="M296.47,287.81c-1.1,0-2-0.9-2-2c0-1.65-1.35-3-3-3s-3,1.35-3,3c0,1.1-0.9,2-2,2s-2-0.9-2-2
							c0-3.86,3.14-7,7-7s7,3.14,7,7C298.47,286.91,297.58,287.81,296.47,287.81z"/>
					</g>
				</g>
				<g>
					<path class="st1" d="M292.94,275.06c-0.7,0.15-1.53,0.2-2.25,0.28l-2.11,0.25c-0.68,0.08-1.3,0.22-1.96,0.33
						c-0.65,0.11-1.26,0.3-2.04,0.43l-0.39,0.07c-0.94,0.16-1.83-0.47-1.98-1.41c-0.07-0.44,0.03-0.87,0.25-1.22
						c0.59-0.92,1.45-1.69,2.42-2.19c0.96-0.52,2.02-0.84,3.07-0.95c1.05-0.12,2.08-0.08,3.08,0.12c1.01,0.21,1.9,0.51,2.88,1.12
						c0.79,0.5,1.03,1.55,0.54,2.34c-0.25,0.4-0.64,0.66-1.07,0.76L292.94,275.06z"/>
				</g>
			</g>
		</g>
		<g>
			<path class="st1" d="M302.28,298.04c-4.22,0-8.54-1.08-12.29-3.25c-0.96-0.55-1.28-1.78-0.73-2.73c0.55-0.95,1.77-1.28,2.73-0.73
				c6.17,3.57,14.54,3.59,19.89,0.03c0.92-0.61,2.16-0.36,2.77,0.56c0.61,0.92,0.36,2.16-0.56,2.77
				C310.75,296.92,306.57,298.04,302.28,298.04z"/>
		</g>
		<g>
			<path class="st1" d="M298.26,301.14c1.22,0.34,2.49,0.43,3.75,0.48c0.63,0.03,1.26-0.05,1.89-0.12c0.63-0.07,1.25-0.18,1.85-0.36
				c0.68-0.21,1.4,0.17,1.61,0.85c0.14,0.45,0.01,0.92-0.29,1.25l-0.79,0.85c-0.61,0.66-1.32,1-2.04,1.25
				c-0.73,0.21-1.48,0.32-2.23,0.27c-0.37-0.02-0.75-0.04-1.12-0.11c-0.37-0.06-0.74-0.15-1.09-0.27c-0.72-0.24-1.42-0.57-2.04-1.13
				l-0.74-0.66c-0.55-0.49-0.6-1.34-0.11-1.89C297.24,301.15,297.78,301.01,298.26,301.14z"/>
		</g>
	</g>
	<g>
		<path class="st4" d="M353,332H251c-1.1,0-2-0.9-2-2v-14c0-1.1,0.9-2,2-2h102c1.1,0,2,0.9,2,2v14C355,331.1,354.1,332,353,332z"/>
	</g>
	<g>
		<path class="st1" d="M352,344H252c-1.66,0-3-1.34-3-3l0,0c0-1.66,1.34-3,3-3h100c1.66,0,3,1.34,3,3l0,0
			C355,342.66,353.66,344,352,344z"/>
	</g>
	<g>
		<path class="st1" d="M332,380h-80c-1.66,0-3-1.34-3-3l0,0c0-1.66,1.34-3,3-3h80c1.66,0,3,1.34,3,3l0,0
			C335,378.66,333.66,380,332,380z"/>
	</g>
	<g>
		<path class="st1" d="M342,368h-90c-1.66,0-3-1.34-3-3l0,0c0-1.66,1.34-3,3-3h90c1.66,0,3,1.34,3,3l0,0
			C345,366.66,343.66,368,342,368z"/>
	</g>
	<g>
		<path class="st1" d="M322,356h-70c-1.66,0-3-1.34-3-3l0,0c0-1.66,1.34-3,3-3h70c1.66,0,3,1.34,3,3l0,0
			C325,354.66,323.66,356,322,356z"/>
	</g>
</g>
<g>
	<g>
		<g>
			<g>
				<path class="st0" d="M15,162c-3.86,0-7-3.19-7-7.11V21.11C8,17.19,11.14,14,15,14h102c0.8,0,1.56,0.32,2.12,0.88l24,24
					C143.68,39.44,144,40.2,144,41v113.89c0,3.92-3.14,7.11-7,7.11H15z"/>
			</g>
			<g>
				<path class="st1" d="M117,17l24,24v113.89c0,2.27-1.79,4.11-4,4.11H15c-2.21,0-4-1.84-4-4.11V21.11c0-2.27,1.79-4.11,4-4.11H117
					 M117,11H15C9.49,11,5,15.53,5,21.11v133.79C5,160.47,9.49,165,15,165h122c5.51,0,10-4.53,10-10.11V41
					c0-1.59-0.63-3.12-1.76-4.24l-24-24C120.12,11.63,118.59,11,117,11L117,11z"/>
			</g>
		</g>
		<g>
			<g>
				<path class="st3" d="M121.8,44c-4.3,0-7.8-3.5-7.8-7.8V17c0-1.21,0.73-2.31,1.85-2.77c0.37-0.15,0.76-0.23,1.15-0.23
					c0.78,0,1.55,0.3,2.12,0.88l24,24c0.86,0.86,1.11,2.15,0.65,3.27S142.21,44,141,44H121.8z"/>
			</g>
			<g>
				<path class="st1" d="M117,17l24,24h-19.2c-2.65,0-4.8-2.15-4.8-4.8V17 M117,11c-0.77,0-1.55,0.15-2.29,0.46
					c-2.24,0.93-3.7,3.12-3.7,5.54v19.2c0,5.96,4.84,10.8,10.8,10.8H141c2.43,0,4.61-1.46,5.54-3.7c0.93-2.24,0.42-4.82-1.3-6.54
					l-24-24C120.09,11.61,118.56,11,117,11L117,11z"/>
			</g>
		</g>
		<g>
			<path class="st5" d="M127,97H25c-1.1,0-2-0.9-2-2V81c0-1.1,0.9-2,2-2h102c1.1,0,2,0.9,2,2v14C129,96.1,128.1,97,127,97z"/>
		</g>
		<g>
			<path class="st1" d="M126,109H26c-1.66,0-3-1.34-3-3l0,0c0-1.66,1.34-3,3-3h100c1.66,0,3,1.34,3,3l0,0
				C129,107.66,127.66,109,126,109z"/>
		</g>
		<g>
			<path class="st1" d="M66,145H26c-1.66,0-3-1.34-3-3l0,0c0-1.66,1.34-3,3-3h40c1.66,0,3,1.34,3,3l0,0C69,143.66,67.66,145,66,145z
				"/>
		</g>
		<g>
			<path class="st1" d="M86,133H26c-1.66,0-3-1.34-3-3l0,0c0-1.66,1.34-3,3-3h60c1.66,0,3,1.34,3,3l0,0C89,131.66,87.66,133,86,133z
				"/>
		</g>
		<g>
			<path class="st1" d="M106,121H26c-1.66,0-3-1.34-3-3l0,0c0-1.66,1.34-3,3-3h80c1.66,0,3,1.34,3,3l0,0
				C109,119.66,107.66,121,106,121z"/>
		</g>
	</g>
	<g>
		<g>
			<g>
				<path class="st1" d="M84.03,50.7c-0.62,0-1.2-0.39-1.42-1.01c-0.27-0.78,0.15-1.64,0.93-1.91c2.24-0.77,5.74-0.77,7.98,0
					c0.78,0.27,1.2,1.12,0.93,1.91s-1.12,1.2-1.91,0.93c-1.6-0.55-4.42-0.55-6.02,0C84.35,50.67,84.19,50.7,84.03,50.7z"/>
			</g>
			<g>
				<g>
					<circle class="st1" cx="87.53" cy="42.5" r="6"/>
				</g>
				<g>
					<circle class="st0" cx="89.03" cy="42.5" r="1.5"/>
				</g>
			</g>
			<g>
				<path class="st1" d="M84.09,28.57c0.97-0.61,1.86-0.91,2.88-1.12c0.99-0.21,2.03-0.24,3.08-0.12c1.04,0.11,2.1,0.44,3.07,0.95
					c0.97,0.5,1.83,1.28,2.42,2.19c0.52,0.8,0.29,1.86-0.51,2.38c-0.38,0.24-0.81,0.32-1.22,0.25l-0.4-0.07
					c-0.78-0.13-1.39-0.32-2.04-0.43c-0.65-0.1-1.27-0.25-1.96-0.33l-2.11-0.25c-0.72-0.08-1.55-0.12-2.25-0.28l-0.42-0.09
					c-0.92-0.2-1.5-1.11-1.29-2.02C83.44,29.18,83.72,28.8,84.09,28.57z"/>
			</g>
		</g>
		<g>
			<g>
				<path class="st1" d="M67.97,50.7c-0.16,0-0.33-0.03-0.49-0.08c-1.6-0.55-4.42-0.55-6.02,0c-0.79,0.27-1.64-0.15-1.91-0.93
					s0.15-1.64,0.93-1.91c2.24-0.77,5.74-0.77,7.98,0c0.78,0.27,1.2,1.12,0.93,1.91C69.18,50.31,68.6,50.7,67.97,50.7z"/>
			</g>
			<g>
				<g>
					<circle class="st1" cx="64.47" cy="42.5" r="6"/>
				</g>
				<g>
					<circle class="st0" cx="65.97" cy="42.5" r="1.5"/>
				</g>
			</g>
			<g>
				<path class="st1" d="M66.94,31.76c-0.7,0.15-1.53,0.2-2.25,0.28l-2.11,0.25c-0.68,0.08-1.3,0.22-1.96,0.33
					c-0.65,0.11-1.26,0.3-2.04,0.43l-0.39,0.07c-0.94,0.16-1.83-0.47-1.98-1.41c-0.07-0.44,0.03-0.87,0.25-1.22
					c0.59-0.92,1.45-1.69,2.42-2.19c0.96-0.52,2.02-0.84,3.07-0.95c1.05-0.12,2.08-0.08,3.08,0.12c1.01,0.21,1.9,0.51,2.88,1.12
					c0.79,0.5,1.03,1.55,0.54,2.34c-0.25,0.4-0.64,0.66-1.07,0.76L66.94,31.76z"/>
			</g>
		</g>
		<g>
			<g>
				<g>
					<path class="st1" d="M76,71.92c-7.72,0-14-6.28-14-14c0-1.1,0.9-2,2-2h24c1.1,0,2,0.9,2,2C90,65.64,83.72,71.92,76,71.92z"/>
				</g>
				<g>
					<path class="st1" d="M88,57.92L88,57.92 M88,57.92c0,6.63-5.37,12-12,12s-12-5.37-12-12H88 M88,53.92L88,53.92H64
						c-2.21,0-4,1.79-4,4c0,8.82,7.18,16,16,16c8.77,0,15.91-7.09,16-15.84c0-0.05,0-0.11,0-0.16C92,55.71,90.21,53.92,88,53.92
						L88,53.92z M88,61.92L88,61.92L88,61.92L88,61.92z"/>
				</g>
			</g>
			<g>
				<g>
					<ellipse class="st6" cx="76" cy="65.92" rx="8.93" ry="4"/>
				</g>
			</g>
		</g>
	</g>
	<g>
		<g>
			<circle class="st2" cx="46" cy="52" r="2"/>
		</g>
		<g>
			<circle class="st2" cx="50" cy="60" r="2"/>
		</g>
		<g>
			<circle class="st2" cx="42" cy="60" r="2"/>
		</g>
	</g>
	<g>
		<g>
			<circle class="st2" cx="106" cy="52" r="2"/>
		</g>
		<g>
			<circle class="st2" cx="110" cy="60" r="2"/>
		</g>
		<g>
			<circle class="st2" cx="102" cy="60" r="2"/>
		</g>
	</g>
</g>
<g>
	<g>
		<g>
			<path class="st7" d="M383.58,121.1c-0.61,0-1.23-0.19-1.75-0.56c-0.35-0.25-22.48-15.78-52.74-15.78c-7.71,0-15.39,1.01-22.82,3
				c-0.26,0.07-0.52,0.1-0.78,0.1c-1.32,0-2.54-0.88-2.9-2.22L292.25,67c-0.43-1.6,0.52-3.25,2.12-3.67
				c41.51-11.12,58.88-48.47,59.05-48.85c0.49-1.08,1.56-1.76,2.73-1.76c0.08,0,0.16,0,0.25,0.01c1.26,0.1,2.33,0.99,2.65,2.21
				l27.43,102.39c0.33,1.22-0.15,2.52-1.19,3.24C384.78,120.92,384.18,121.1,383.58,121.1z"/>
		</g>
		<g>
			<path class="st1" d="M356.15,15.71l27.43,102.39c0,0-22.73-16.34-54.49-16.34c-7.43,0-15.36,0.9-23.6,3.1l-10.35-38.64
				C338.61,54.57,356.15,15.71,356.15,15.71 M356.15,9.71c-2.34,0-4.49,1.37-5.46,3.53c-0.12,0.25-4.38,9.4-13.52,19.71
				c-12.19,13.75-26.85,23-43.58,27.48c-3.2,0.86-5.1,4.15-4.24,7.35l10.35,38.64c0.72,2.68,3.14,4.45,5.79,4.45
				c0.51,0,1.04-0.07,1.56-0.21c7.18-1.92,14.6-2.9,22.04-2.9c29.31,0,50.78,15.07,51,15.22c1.04,0.74,2.27,1.12,3.49,1.12
				c1.2,0,2.39-0.36,3.42-1.07c2.08-1.44,3.04-4.03,2.38-6.48L361.94,14.16c-0.66-2.45-2.78-4.22-5.31-4.43
				C356.47,9.72,356.31,9.71,356.15,9.71L356.15,9.71z"/>
		</g>
	</g>
	<g>
		<g>
			<path class="st8" d="M295.14,66.22l1.55,5.8C340.16,60.37,357.7,21.5,357.7,21.5l-1.55-5.8
				C356.15,15.71,338.61,54.57,295.14,66.22z"/>
		</g>
	</g>
	<g>
		<g>
			<path class="st9" d="M387,125.25c-2.71,0-5.09-1.83-5.79-4.45L352.73,14.55c-0.42-1.55-0.2-3.16,0.6-4.55
				c0.8-1.39,2.1-2.38,3.64-2.8c0.51-0.14,1.03-0.21,1.55-0.21c2.71,0,5.09,1.83,5.79,4.45l28.47,106.25
				c0.42,1.55,0.2,3.17-0.6,4.55c-0.8,1.39-2.1,2.38-3.64,2.8C388.04,125.18,387.52,125.25,387,125.25z"/>
		</g>
		<g>
			<g>
				<path class="st1" d="M358.53,10c1.32,0,2.54,0.88,2.9,2.22l28.47,106.25c0.43,1.6-0.52,3.25-2.12,3.67l0,0
					c-0.26,0.07-0.52,0.1-0.78,0.1c-1.32,0-2.54-0.88-2.9-2.22L355.63,13.78c-0.43-1.6,0.52-3.25,2.12-3.67h0
					C358.01,10.03,358.27,10,358.53,10 M358.53,4C358.53,4,358.53,4,358.53,4c-0.79,0-1.57,0.1-2.33,0.31
					c-2.32,0.62-4.26,2.11-5.46,4.19c-1.2,2.08-1.52,4.51-0.9,6.83l28.47,106.25c1.05,3.93,4.63,6.67,8.69,6.67
					c0.79,0,1.57-0.1,2.33-0.31c4.79-1.28,7.65-6.23,6.36-11.02L367.22,10.67C366.17,6.74,362.6,4,358.53,4L358.53,4z"/>
			</g>
		</g>
	</g>
	<g>
		<path class="st10" d="M357.75,10.1c-1.6,0.43-2.55,2.07-2.12,3.67l2.07,7.73c-0.43-1.6,0.52-3.25,2.12-3.67s3.25,0.52,3.67,2.12
			l-2.07-7.73C361,10.62,359.35,9.67,357.75,10.1z"/>
	</g>
	<g>
		<g>
			<path class="st7" d="M256.16,120.93c-3.16,0-5.94-2.13-6.76-5.19l-8.28-30.91c-1-3.73,1.22-7.57,4.95-8.57l11.59-3.11
				c0.59-0.16,1.2-0.24,1.81-0.24c3.16,0,5.94,2.13,6.76,5.19l8.28,30.91c0.48,1.81,0.24,3.69-0.7,5.31
				c-0.94,1.62-2.44,2.78-4.25,3.26l-11.59,3.11C257.38,120.85,256.77,120.93,256.16,120.93L256.16,120.93z"/>
		</g>
		<g>
			<g>
				<path class="st1" d="M259.48,75.92c1.77,0,3.38,1.18,3.86,2.97l8.28,30.91c0.57,2.13-0.69,4.33-2.83,4.9l-11.59,3.11
					c-0.35,0.09-0.7,0.14-1.04,0.14c-1.77,0-3.38-1.18-3.86-2.97l-8.28-30.91c-0.57-2.13,0.69-4.33,2.83-4.9l11.59-3.11
					C258.79,75.96,259.13,75.92,259.48,75.92 M259.48,69.92c-0.87,0-1.74,0.11-2.59,0.34l-11.59,3.11
					c-2.58,0.69-4.74,2.35-6.07,4.66c-1.34,2.31-1.69,5.01-1,7.59l8.28,30.91c1.17,4.36,5.14,7.41,9.66,7.41
					c0.87,0,1.74-0.11,2.59-0.34l11.59-3.11c2.58-0.69,4.74-2.35,6.07-4.66c1.34-2.31,1.69-5.01,1-7.59l-8.28-30.91
					C267.96,72.97,263.99,69.92,259.48,69.92L259.48,69.92z"/>
			</g>
		</g>
	</g>
	<g>
		<path class="st8" d="M244.54,85.99l19.32-5.18l-0.52-1.93c-0.57-2.13-2.77-3.4-4.9-2.83l-11.59,3.11c-2.13,0.57-3.4,2.77-2.83,4.9
			L244.54,85.99z"/>
	</g>
	<g>
		<g>
			<path class="st7" d="M291.86,164.24c-2.03,0-3.84-1.21-4.62-3.09l-15.3-36.95l23.59-6.32l8.49,31.69
				c2.41,0.65,4.25,2.79,4.43,5.39c0.21,2.85-1.71,5.47-4.54,6.23l-10.76,2.88C292.73,164.18,292.3,164.24,291.86,164.24
				L291.86,164.24z"/>
		</g>
		<g>
			<g>
				<path class="st1" d="M293.41,121.55l8.28,30.91c0.26-0.07,0.52-0.1,0.78-0.1c1.51,0,2.87,1.15,2.99,2.81
					c0.1,1.45-0.93,2.74-2.33,3.11l-10.76,2.88c-0.17,0.05-0.35,0.07-0.52,0.07c-0.79,0-1.53-0.47-1.85-1.24l-13.99-33.79
					L293.41,121.55 M297.65,114.21l-5.8,1.55l-17.39,4.66l-6.61,1.77l2.62,6.32l13.99,33.79c1.24,3,4.14,4.94,7.39,4.94
					c0.7,0,1.4-0.09,2.07-0.27l10.76-2.88c4.23-1.13,7.07-5.06,6.76-9.34c-0.23-3.24-2.19-6-4.92-7.4L299.2,120L297.65,114.21
					L297.65,114.21z"/>
			</g>
		</g>
	</g>
	<g>
		<g>
			<path class="st9" d="M269.56,124.59c-3.16,0-5.94-2.13-6.76-5.19L250.9,74.97c-0.48-1.81-0.24-3.69,0.7-5.31
				c0.93-1.62,2.45-2.78,4.25-3.26l32.84-8.8c0.59-0.16,1.2-0.24,1.81-0.24c3.16,0,5.94,2.13,6.76,5.19l11.91,44.43
				c0.48,1.81,0.24,3.69-0.7,5.31c-0.94,1.62-2.44,2.78-4.25,3.26l-32.84,8.8C270.79,124.51,270.18,124.59,269.56,124.59
				L269.56,124.59z"/>
		</g>
		<g>
			<g>
				<path class="st1" d="M290.51,60.36c1.77,0,3.38,1.18,3.86,2.97l11.91,44.43c0.57,2.13-0.69,4.33-2.83,4.9l-32.84,8.8
					c-0.35,0.09-0.7,0.14-1.04,0.14c-1.77,0-3.38-1.18-3.86-2.97L253.8,74.19c-0.57-2.13,0.69-4.33,2.83-4.9l32.84-8.8
					C289.81,60.4,290.16,60.36,290.51,60.36 M290.51,54.36c-0.87,0-1.74,0.11-2.59,0.34l-32.84,8.8c-5.33,1.43-8.5,6.92-7.07,12.25
					l11.91,44.43c1.17,4.36,5.14,7.41,9.66,7.41c0.87,0,1.74-0.11,2.59-0.34l32.84-8.8c5.33-1.43,8.5-6.92,7.07-12.25l-11.91-44.43
					C298.99,57.4,295.02,54.36,290.51,54.36L290.51,54.36z"/>
			</g>
		</g>
	</g>
	<g>
		<path class="st10" d="M254.32,76.12l40.57-10.87l-0.52-1.93c-0.57-2.13-2.77-3.4-4.9-2.83l-32.84,8.8
			c-2.13,0.57-3.4,2.77-2.83,4.9L254.32,76.12z"/>
	</g>
	<g>
		<g>
			<path class="st9" d="M302.31,134.59c-1.32,0-2.54-0.88-2.9-2.22l-3.11-11.59c-0.21-0.77-0.1-1.59,0.3-2.28
				c0.4-0.69,1.05-1.19,1.82-1.4l3.86-1.04c0.26-0.07,0.52-0.1,0.78-0.1c1.32,0,2.54,0.88,2.9,2.22l2.33,8.69
				c0.86,3.2-1.05,6.49-4.24,7.35l-0.97,0.26C302.82,134.56,302.56,134.59,302.31,134.59z"/>
		</g>
		<g>
			<path class="st1" d="M303.07,118.97l2.33,8.69c0.43,1.6-0.52,3.25-2.12,3.67l-0.97,0.26L299.2,120L303.07,118.97 M303.07,112.97
				c-0.52,0-1.04,0.07-1.55,0.2l-3.86,1.04c-3.2,0.86-5.1,4.15-4.24,7.35l3.11,11.59c0.41,1.54,1.42,2.85,2.8,3.64
				c0.92,0.53,1.96,0.8,3,0.8c0.52,0,1.04-0.07,1.55-0.2l0.97-0.26c2.32-0.62,4.26-2.11,5.46-4.19c1.2-2.08,1.52-4.51,0.9-6.83
				l-2.33-8.69c-0.41-1.54-1.42-2.85-2.8-3.64C305.15,113.24,304.11,112.97,303.07,112.97L303.07,112.97z"/>
		</g>
	</g>
	<g>
		<polygon class="st11" points="276.02,126.21 278.33,131.8 294.96,127.35 293.41,121.55 		"/>
	</g>
</g>
<g>
	<g>
		<path class="st1" d="M135.71,206.43c0,7.08-1.8,13.37-5.39,18.87c-3.59,5.5-8.78,9.77-15.55,12.81
			c-6.77,3.05-14.71,4.57-23.83,4.57c-7.6,0-13.98-0.54-19.14-1.6s-10.52-2.93-16.09-5.59v-27.5c5.88,3.02,12,5.38,18.36,7.07
			c6.35,1.69,12.19,2.54,17.5,2.54c4.58,0,7.94-0.79,10.08-2.38c2.13-1.59,3.2-3.63,3.2-6.13c0-1.56-0.43-2.93-1.29-4.1
			s-2.24-2.36-4.14-3.55c-1.9-1.2-6.97-3.64-15.2-7.34c-7.45-3.38-13.03-6.67-16.76-9.84c-3.72-3.18-6.48-6.82-8.28-10.94
			c-1.8-4.11-2.7-8.98-2.7-14.61c0-10.52,3.83-18.72,11.48-24.61c7.66-5.88,18.18-8.83,31.56-8.83c11.82,0,23.88,2.73,36.17,8.2
			l-9.45,23.83c-10.68-4.9-19.9-7.34-27.66-7.34c-4.01,0-6.93,0.7-8.75,2.11c-1.82,1.41-2.73,3.15-2.73,5.23
			c0,2.24,1.16,4.25,3.48,6.02c2.32,1.77,8.61,5,18.87,9.69c9.84,4.43,16.68,9.18,20.51,14.26S135.71,198.72,135.71,206.43z"/>
	</g>
	<g>
		<path class="st1" d="M220.11,251.12H152.3V136.9h67.81v24.77h-36.95v17.97h34.22v24.77h-34.22v21.56h36.95V251.12z"/>
	</g>
	<g>
		<path class="st1" d="M344.89,203.85c0,19.22-4.71,33.83-14.14,43.83c-9.43,10-23.23,15-41.41,15c-17.92,0-31.65-5.03-41.21-15.08
			c-9.56-10.05-14.34-24.69-14.34-43.91c0-19.01,4.75-33.53,14.26-43.55c9.5-10.03,23.32-15.04,41.45-15.04
			c18.18,0,31.95,4.97,41.33,14.92C340.2,169.97,344.89,184.58,344.89,203.85z M266.3,203.85c0,22.08,7.68,33.12,23.05,33.12
			c7.81,0,13.61-2.68,17.38-8.05c3.78-5.36,5.66-13.72,5.66-25.08c0-11.41-1.91-19.83-5.74-25.27c-3.83-5.44-9.54-8.16-17.15-8.16
			C274.03,170.41,266.3,181.56,266.3,203.85z"/>
	</g>
</g>
<g>
	<g>
		<g>
			<path class="st12" d="M129.5,338.15c-0.8,0-1.56-0.32-2.12-0.88l-19.8-19.8c-0.56-0.56-0.88-1.33-0.88-2.12s0.32-1.56,0.88-2.12
				l5.66-5.66c0.56-0.56,1.33-0.88,2.12-0.88c0.8,0,1.56,0.32,2.12,0.88l19.8,19.8c1.17,1.17,1.17,3.07,0,4.24l-5.66,5.66
				C131.06,337.84,130.29,338.15,129.5,338.15z"/>
		</g>
		<g>
			<path class="st1" d="M115.36,309.7l19.8,19.8l-5.66,5.66l-19.8-19.8L115.36,309.7 M115.36,303.7c-1.59,0-3.12,0.63-4.24,1.76
				l-5.66,5.66c-2.34,2.34-2.34,6.14,0,8.49l19.8,19.8c1.17,1.17,2.71,1.76,4.24,1.76c1.54,0,3.07-0.59,4.24-1.76l5.66-5.66
				c1.13-1.13,1.76-2.65,1.76-4.24c0-1.59-0.63-3.12-1.76-4.24l-19.8-19.8C118.47,304.33,116.95,303.7,115.36,303.7L115.36,303.7z"
				/>
		</g>
	</g>
	<g>
		
			<rect x="117.37" y="317.87" transform="matrix(0.7071 -0.7071 0.7071 0.7071 -191.6927 179.9444)" class="st13" width="8" height="7"/>
	</g>
	<g>
		<g>
			<path class="st12" d="M80,333c-14.16,0-27.47-5.51-37.48-15.52c-20.66-20.67-20.66-54.29,0-74.95C52.53,232.51,65.84,227,80,227
				s27.47,5.51,37.48,15.52c20.66,20.67,20.66,54.29,0,74.95C107.47,327.49,94.16,333,80,333z"/>
		</g>
		<g>
			<path class="st1" d="M80,230c12.8,0,25.59,4.88,35.36,14.64c19.53,19.53,19.53,51.18,0,70.71C105.59,325.12,92.8,330,80,330
				s-25.59-4.88-35.36-14.64c-19.53-19.53-19.53-51.18,0-70.71C54.41,234.88,67.2,230,80,230 M80,224c-14.96,0-29.02,5.83-39.6,16.4
				C29.83,250.98,24,265.04,24,280s5.83,29.02,16.4,39.6S65.04,336,80,336s29.02-5.83,39.6-16.4S136,294.96,136,280
				s-5.83-29.02-16.4-39.6C109.02,229.83,94.96,224,80,224L80,224z"/>
		</g>
	</g>
	<g>
		<g>
			<path class="st3" d="M80,318c-10.15,0-19.69-3.95-26.87-11.13c-14.82-14.82-14.82-38.92,0-53.74C60.31,245.95,69.85,242,80,242
				s19.69,3.95,26.87,11.13c14.82,14.82,14.82,38.92,0,53.74C99.69,314.05,90.15,318,80,318z"/>
		</g>
		<g>
			<path class="st1" d="M80,245c8.96,0,17.91,3.42,24.75,10.25c13.67,13.67,13.67,35.83,0,49.5C97.91,311.58,88.96,315,80,315
				s-17.91-3.42-24.75-10.25c-13.67-13.67-13.67-35.83,0-49.5C62.09,248.42,71.04,245,80,245 M80,239
				c-10.95,0-21.25,4.26-28.99,12.01S39,269.05,39,280s4.26,21.25,12.01,28.99C58.75,316.74,69.05,321,80,321
				c10.95,0,21.25-4.26,28.99-12.01C116.74,301.25,121,290.95,121,280s-4.26-21.25-12.01-28.99C101.25,243.26,90.95,239,80,239
				L80,239z"/>
		</g>
	</g>
	<g>
		<g>
			<path class="st14" d="M58.79,258.79c-13.07,13.07-13.63,33.91-1.7,47.66c-0.63-0.54-1.24-1.1-1.84-1.7
				c-13.67-13.67-13.67-35.83,0-49.5s35.83-13.67,49.5,0c0.6,0.6,1.15,1.21,1.7,1.84C92.7,245.15,71.86,245.71,58.79,258.79z"/>
		</g>
	</g>
	<g>
		<g>
			<path class="st15" d="M158.49,374.22c-0.77,0-1.54-0.29-2.12-0.88l-32.53-32.53c-0.56-0.56-0.88-1.33-0.88-2.12
				s0.32-1.56,0.88-2.12l12.73-12.73c0.59-0.59,1.35-0.88,2.12-0.88c0.77,0,1.54,0.29,2.12,0.88l32.53,32.53
				c0.56,0.56,0.88,1.33,0.88,2.12s-0.32,1.56-0.88,2.12l-12.73,12.73C160.02,373.92,159.26,374.22,158.49,374.22z"/>
		</g>
		<g>
			<path class="st1" d="M138.69,325.96l32.53,32.53l-12.73,12.73l-32.53-32.53L138.69,325.96 M138.69,319.96
				c-1.54,0-3.07,0.59-4.24,1.76l-12.73,12.73c-2.34,2.34-2.34,6.14,0,8.49l32.53,32.53c1.17,1.17,2.71,1.76,4.24,1.76
				c1.54,0,3.07-0.59,4.24-1.76l12.73-12.73c2.34-2.34,2.34-6.14,0-8.49l-32.53-32.53C141.76,320.55,140.23,319.96,138.69,319.96
				L138.69,319.96z"/>
		</g>
	</g>
	<g>
		<g>
			<path class="st7" d="M130.2,345.93c-0.8,0-1.56-0.32-2.12-0.88l-4.24-4.24c-1.17-1.17-1.17-3.07,0-4.24l12.73-12.73
				c0.59-0.59,1.35-0.88,2.12-0.88s1.54,0.29,2.12,0.88l4.24,4.24c0.56,0.56,0.88,1.33,0.88,2.12s-0.32,1.56-0.88,2.12l-12.73,12.73
				C131.76,345.62,131,345.93,130.2,345.93L130.2,345.93z"/>
		</g>
		<g>
			<path class="st1" d="M138.69,325.96l4.24,4.24l-12.73,12.73l-4.24-4.24L138.69,325.96 M138.69,319.96
				c-1.54,0-3.07,0.59-4.24,1.76l-12.73,12.73c-2.34,2.34-2.34,6.14,0,8.49l4.24,4.24c1.13,1.13,2.65,1.76,4.24,1.76
				c1.59,0,3.12-0.63,4.24-1.76l12.73-12.73c1.13-1.13,1.76-2.65,1.76-4.24s-0.63-3.12-1.76-4.24l-4.24-4.24
				C141.76,320.55,140.23,319.96,138.69,319.96L138.69,319.96z"/>
		</g>
	</g>
	<g>
		<g>
			<path class="st1" d="M96.97,285.8c-0.32,0-0.64-0.08-0.94-0.24c-1.89-1.02-5.22-1.02-7.11,0c-0.97,0.52-2.19,0.16-2.71-0.82
				c-0.52-0.97-0.16-2.19,0.82-2.71c3.05-1.64,7.84-1.64,10.89,0c0.97,0.52,1.34,1.73,0.82,2.71
				C98.37,285.42,97.68,285.8,96.97,285.8z"/>
		</g>
		<g>
			<g>
				<circle class="st1" cx="92.47" cy="276.05" r="7"/>
			</g>
			<g>
				<circle class="st0" cx="94.22" cy="276.05" r="1.75"/>
			</g>
		</g>
		<g>
			<path class="st1" d="M87.49,261.04c0.61-0.55,1.11-0.88,1.72-1.22c0.6-0.32,1.22-0.59,1.88-0.8c1.32-0.41,2.78-0.57,4.26-0.39
				c1.48,0.15,2.99,0.73,4.21,1.63c1.26,0.87,2.13,2.1,2.67,3.38c0.44,1.04-0.05,2.24-1.1,2.68c-0.53,0.22-1.09,0.2-1.58,0
				l-0.45-0.19c-0.94-0.4-1.64-0.83-2.38-1.03c-0.71-0.25-1.37-0.43-2.13-0.52c-0.74-0.1-1.56-0.14-2.44-0.12
				c-0.44,0.01-0.91,0.02-1.37,0.06c-0.46,0.01-1,0.09-1.39,0.05l-0.78-0.08c-1.09-0.11-1.88-1.08-1.77-2.16
				C86.89,261.81,87.14,261.36,87.49,261.04z"/>
		</g>
		<g>
			<path class="st1" d="M70.97,285.8c-0.32,0-0.64-0.08-0.94-0.24c-1.89-1.02-5.22-1.02-7.11,0c-0.97,0.52-2.19,0.16-2.71-0.82
				c-0.52-0.97-0.16-2.19,0.82-2.71c3.05-1.64,7.84-1.64,10.89,0c0.97,0.52,1.34,1.73,0.82,2.71
				C72.37,285.42,71.68,285.8,70.97,285.8z"/>
		</g>
		<g>
			<g>
				<circle class="st1" cx="66.47" cy="276.05" r="7"/>
			</g>
			<g>
				<circle class="st0" cx="68.22" cy="276.05" r="1.75"/>
			</g>
		</g>
		<g>
			<path class="st1" d="M69.54,264.56c-0.39,0.04-0.94-0.05-1.39-0.05c-0.47-0.04-0.93-0.05-1.37-0.06
				c-0.89-0.02-1.7,0.02-2.44,0.12c-0.75,0.09-1.41,0.28-2.13,0.52c-0.74,0.21-1.43,0.64-2.38,1.03l-0.45,0.19
				c-1.04,0.44-2.24-0.05-2.68-1.09c-0.22-0.53-0.2-1.1,0-1.59c0.54-1.28,1.41-2.51,2.67-3.38c1.21-0.9,2.72-1.48,4.21-1.63
				c1.49-0.18,2.95-0.02,4.26,0.39c0.66,0.21,1.29,0.48,1.88,0.8c0.61,0.34,1.11,0.68,1.72,1.22c0.81,0.73,0.88,1.98,0.16,2.79
				c-0.34,0.38-0.8,0.6-1.27,0.65L69.54,264.56z"/>
		</g>
	</g>
	<g>
		<path class="st1" d="M79.81,296.08c-4.96,0-10.04-1.43-14.43-4.31c-0.92-0.6-1.18-1.84-0.58-2.77c0.6-0.92,1.84-1.18,2.77-0.58
			c7.35,4.8,17.32,4.82,23.71,0.03c0.88-0.66,2.14-0.48,2.8,0.4c0.66,0.88,0.48,2.14-0.4,2.8C89.74,294.6,84.83,296.08,79.81,296.08
			z"/>
	</g>
	<g>
		<path class="st1" d="M75.29,298.73c1.35,0.43,2.77,0.57,4.18,0.62c0.71,0.03,1.41-0.07,2.11-0.15c0.7-0.09,1.39-0.24,2.05-0.47
			c0.69-0.24,1.45,0.13,1.68,0.82c0.17,0.48,0.04,1-0.29,1.34l-0.72,0.76c-0.67,0.71-1.48,1.09-2.3,1.37
			c-0.83,0.24-1.69,0.36-2.54,0.31c-0.43-0.02-0.85-0.04-1.27-0.13c-0.42-0.06-0.84-0.17-1.25-0.3c-0.81-0.27-1.6-0.64-2.3-1.25
			l-0.67-0.59c-0.57-0.5-0.63-1.37-0.13-1.94C74.21,298.71,74.79,298.57,75.29,298.73z"/>
	</g>
</g>
<g>
	<path class="st16" d="M216.2,97.2c-2.98,0-5.4-2.42-5.4-5.4c0-0.99-0.81-1.8-1.8-1.8c-0.99,0-1.8,0.81-1.8,1.8
		c0,2.98-2.42,5.4-5.4,5.4c-0.99,0-1.8,0.81-1.8,1.8s0.81,1.8,1.8,1.8c2.98,0,5.4,2.42,5.4,5.4c0,0.99,0.81,1.8,1.8,1.8
		c0.99,0,1.8-0.81,1.8-1.8c0-2.98,2.42-5.4,5.4-5.4c0.99,0,1.8-0.81,1.8-1.8S217.19,97.2,216.2,97.2z"/>
</g>
<g>
	<path class="st16" d="M170.8,284.8c-1.99,0-3.6-1.61-3.6-3.6c0-0.66-0.54-1.2-1.2-1.2c-0.66,0-1.2,0.54-1.2,1.2
		c0,1.99-1.61,3.6-3.6,3.6c-0.66,0-1.2,0.54-1.2,1.2s0.54,1.2,1.2,1.2c1.99,0,3.6,1.61,3.6,3.6c0,0.66,0.54,1.2,1.2,1.2
		c0.66,0,1.2-0.54,1.2-1.2c0-1.99,1.61-3.6,3.6-3.6c0.66,0,1.2-0.54,1.2-1.2S171.46,284.8,170.8,284.8z"/>
</g>
<g>
	<circle class="st16" cx="366.5" cy="206.5" r="2.5"/>
</g>
<g>
	<circle class="st16" cx="206.5" cy="271.5" r="2.5"/>
</g>
<g>
	<circle class="st16" cx="232.5" cy="125.5" r="2.5"/>
</g>
<g>
	<circle class="st16" cx="164" cy="114" r="4"/>
</g>
<g>
	<circle class="st16" cx="201" cy="313" r="4"/>
</g>
<g>
	<circle class="st16" cx="359" cy="169" r="3"/>
</g>
<g>
	<circle class="st16" cx="19" cy="229" r="3"/>
</g>
<g>
	<g>
		<path class="st16" d="M340,143c-1.66,0-3-1.34-3-3v-20c0-1.66,1.34-3,3-3s3,1.34,3,3v20C343,141.66,341.66,143,340,143z"/>
	</g>
	<g>
		<path class="st16" d="M350,133h-20c-1.66,0-3-1.34-3-3s1.34-3,3-3h20c1.66,0,3,1.34,3,3S351.66,133,350,133z"/>
	</g>
</g>
<g>
	<g>
		<path class="st16" d="M31,204c-1.66,0-3-1.34-3-3v-20c0-1.66,1.34-3,3-3s3,1.34,3,3v20C34,202.66,32.66,204,31,204z"/>
	</g>
	<g>
		<path class="st16" d="M41,194H21c-1.66,0-3-1.34-3-3s1.34-3,3-3h20c1.66,0,3,1.34,3,3S42.66,194,41,194z"/>
	</g>
</g>
</svg>
