<?xml version="1.0" encoding="utf-8"?>
<!-- Generator: Adobe Illustrator 25.4.1, SVG Export Plug-In . SVG Version: 6.00 Build 0)  -->
<svg version="1.1" id="SEO_x5F_Hub-How-To-Choose-Keywords-For-SEO"
	 xmlns="http://www.w3.org/2000/svg" xmlns:xlink="http://www.w3.org/1999/xlink" x="0px" y="0px" viewBox="0 0 400 400"
	 style="enable-background:new 0 0 400 400;" xml:space="preserve">
<style type="text/css">
	.st0{fill:#515979;}
	.st1{fill:none;}
	.st2{fill:#7170B2;}
	.st3{fill:#AAA0FF;}
	.st4{fill:#FFFFFF;}
	.st5{fill:#EF7D7D;}
	.st6{fill:#329B87;}
	.st7{fill:#7DDF96;}
	.st8{fill:#F9CBCB;}
	.st9{fill:#FCE5E5;}
	.st10{fill:#F4A4A4;}
	.st11{fill:#D8EBFB;}
	.st12{fill:#FFD886;}
</style>
<g>
	<path class="st0" d="M137.47,301.07c-0.28,0-0.57-0.08-0.83-0.25c-1.4-0.93-2.81-1.89-4.17-2.87c-0.67-0.48-0.83-1.42-0.35-2.09
		c0.48-0.67,1.42-0.83,2.09-0.35c1.33,0.96,2.7,1.9,4.08,2.8c0.69,0.46,0.88,1.39,0.43,2.08
		C138.43,300.83,137.95,301.07,137.47,301.07z M126.22,292.74c-0.34,0-0.68-0.11-0.95-0.34c-1.29-1.06-2.58-2.17-3.84-3.3
		c-0.62-0.55-0.67-1.5-0.12-2.12c0.55-0.62,1.5-0.67,2.12-0.12c1.23,1.1,2.49,2.18,3.75,3.22c0.64,0.53,0.73,1.47,0.2,2.11
		C127.08,292.55,126.65,292.74,126.22,292.74z M300.28,285.06c-0.39,0-0.77-0.15-1.07-0.45c-0.58-0.59-0.58-1.54,0.02-2.12
		c1.17-1.16,2.33-2.34,3.45-3.54c0.57-0.6,1.52-0.63,2.12-0.07c0.6,0.57,0.63,1.52,0.07,2.12c-1.14,1.22-2.33,2.44-3.53,3.62
		C301.04,284.92,300.66,285.06,300.28,285.06z M115.93,283.26c-0.39,0-0.78-0.15-1.07-0.45c-1.16-1.19-2.33-2.43-3.46-3.68
		c-0.56-0.61-0.51-1.56,0.11-2.12c0.61-0.56,1.56-0.51,2.12,0.11c1.11,1.22,2.25,2.44,3.38,3.6c0.58,0.59,0.57,1.54-0.03,2.12
		C116.68,283.12,116.3,283.26,115.93,283.26z M309.7,274.72c-0.33,0-0.67-0.11-0.95-0.34c-0.64-0.52-0.74-1.47-0.21-2.11
		c1.04-1.27,2.07-2.58,3.06-3.89c0.5-0.66,1.44-0.79,2.1-0.29c0.66,0.5,0.79,1.44,0.29,2.1c-1.01,1.34-2.06,2.67-3.12,3.98
		C310.57,274.53,310.13,274.72,309.7,274.72z M317.97,263.42c-0.28,0-0.57-0.08-0.82-0.24c-0.69-0.45-0.89-1.38-0.44-2.08
		c0.9-1.38,1.78-2.79,2.62-4.19c0.43-0.71,1.35-0.94,2.06-0.52c0.71,0.43,0.94,1.35,0.52,2.06c-0.86,1.44-1.76,2.88-2.68,4.29
		C318.94,263.18,318.46,263.42,317.97,263.42z M324.97,251.3c-0.23,0-0.46-0.05-0.68-0.16c-0.74-0.38-1.03-1.28-0.66-2.02
		c0.75-1.47,1.47-2.97,2.16-4.46c0.35-0.75,1.24-1.08,1.99-0.74c0.75,0.35,1.08,1.24,0.74,1.99c-0.7,1.52-1.44,3.05-2.21,4.56
		C326.05,251,325.52,251.3,324.97,251.3z M84.9,153.67c-0.15,0-0.3-0.02-0.45-0.07c-0.79-0.25-1.23-1.09-0.98-1.88
		c0.5-1.61,1.04-3.23,1.61-4.81c0.28-0.78,1.13-1.19,1.92-0.91c0.78,0.28,1.19,1.14,0.91,1.92c-0.55,1.55-1.08,3.13-1.57,4.7
		C86.13,153.26,85.54,153.67,84.9,153.67z M89.8,140.54c-0.2,0-0.4-0.04-0.6-0.13c-0.76-0.33-1.11-1.22-0.77-1.98
		c0.67-1.54,1.38-3.09,2.12-4.6c0.36-0.75,1.26-1.06,2-0.7c0.75,0.36,1.06,1.26,0.7,2c-0.72,1.48-1.41,3-2.07,4.5
		C90.93,140.2,90.38,140.54,89.8,140.54z M327.12,138.13c-0.57,0-1.11-0.32-1.36-0.87c-0.68-1.48-1.4-2.97-2.15-4.44
		c-0.38-0.74-0.08-1.64,0.66-2.02c0.74-0.37,1.64-0.08,2.02,0.66c0.76,1.5,1.5,3.03,2.2,4.54c0.35,0.75,0.02,1.64-0.73,1.99
		C327.54,138.08,327.33,138.13,327.12,138.13z M96.09,128.02c-0.25,0-0.51-0.06-0.74-0.2c-0.72-0.41-0.97-1.33-0.56-2.05
		c0.84-1.47,1.71-2.93,2.6-4.35c0.44-0.7,1.36-0.92,2.07-0.48c0.7,0.44,0.92,1.36,0.48,2.07c-0.87,1.38-1.72,2.81-2.54,4.25
		C97.12,127.75,96.61,128.02,96.09,128.02z M320.59,125.77c-0.51,0-1.01-0.26-1.29-0.73c-0.83-1.39-1.71-2.8-2.62-4.18
		c-0.45-0.69-0.26-1.62,0.44-2.08c0.69-0.45,1.62-0.26,2.08,0.44c0.92,1.41,1.82,2.85,2.68,4.28c0.43,0.71,0.19,1.63-0.52,2.06
		C321.12,125.71,320.85,125.77,320.59,125.77z M312.77,114.19c-0.45,0-0.9-0.21-1.2-0.6c-0.99-1.31-2.02-2.62-3.05-3.88
		c-0.52-0.64-0.43-1.59,0.21-2.11c0.64-0.52,1.58-0.43,2.11,0.21c1.06,1.3,2.11,2.63,3.12,3.97c0.5,0.66,0.37,1.6-0.29,2.1
		C313.41,114.09,313.09,114.19,312.77,114.19z M303.75,103.5c-0.4,0-0.8-0.16-1.09-0.47c-1.12-1.19-2.28-2.38-3.45-3.53
		c-0.59-0.58-0.6-1.53-0.02-2.12c0.58-0.59,1.53-0.6,2.12-0.02c1.2,1.18,2.38,2.4,3.53,3.62c0.57,0.6,0.54,1.55-0.07,2.12
		C304.49,103.36,304.12,103.5,303.75,103.5z M293.64,93.83c-0.35,0-0.69-0.12-0.98-0.36c-1.24-1.07-2.53-2.13-3.81-3.15
		c-0.65-0.52-0.76-1.46-0.24-2.11c0.52-0.65,1.46-0.76,2.11-0.24c1.31,1.04,2.63,2.13,3.9,3.22c0.63,0.54,0.7,1.49,0.16,2.12
		C294.48,93.65,294.06,93.83,293.64,93.83z"/>
</g>
<rect class="st1" width="400" height="400"/>
<path class="st2" d="M106.22,113.75c-4.96,0-9-4.04-9-9v-58c0-4.96,4.04-9,9-9h148c4.96,0,9,4.04,9,9v58c0,4.96-4.04,9-9,9H106.22z"
	/>
<path class="st0" d="M254.22,40.75c3.31,0,6,2.69,6,6v58c0,3.31-2.69,6-6,6h-148c-3.31,0-6-2.69-6-6v-58c0-3.31,2.69-6,6-6H254.22
	 M254.22,34.75h-148c-6.62,0-12,5.38-12,12v58c0,6.62,5.38,12,12,12h148c6.62,0,12-5.38,12-12v-58
	C266.22,40.14,260.83,34.75,254.22,34.75L254.22,34.75z"/>
<path class="st3" d="M124.22,113.75c-4.96,0-9-4.04-9-9v-58c0-4.96,4.04-9,9-9h148c4.96,0,9,4.04,9,9v58c0,4.96-4.04,9-9,9H124.22z"
	/>
<path class="st0" d="M272.22,40.75c3.31,0,6,2.69,6,6v58c0,3.31-2.69,6-6,6h-148c-3.31,0-6-2.69-6-6v-58c0-3.31,2.69-6,6-6H272.22
	 M272.22,34.75h-148c-6.62,0-12,5.38-12,12v58c0,6.62,5.38,12,12,12h148c6.62,0,12-5.38,12-12v-58
	C284.22,40.14,278.83,34.75,272.22,34.75L272.22,34.75z"/>
<path class="st0" d="M217.71,60.35c-0.32,0-0.64-0.08-0.94-0.24c-1.89-1.02-5.21-1.02-7.11,0c-0.97,0.52-2.19,0.16-2.71-0.82
	c-0.52-0.97-0.16-2.19,0.82-2.71c3.05-1.64,7.84-1.64,10.89,0c0.97,0.52,1.34,1.73,0.82,2.71
	C219.12,59.97,218.43,60.35,217.71,60.35z"/>
<circle class="st0" cx="213.22" cy="50.6" r="7"/>
<circle class="st4" cx="214.97" cy="50.6" r="1.75"/>
<path class="st0" d="M208.24,27.59c0.61-0.55,1.11-0.88,1.72-1.22c0.6-0.32,1.22-0.59,1.88-0.8c1.32-0.41,2.78-0.57,4.26-0.39
	c1.48,0.15,2.99,0.73,4.21,1.63c1.26,0.87,2.13,2.1,2.67,3.38c0.44,1.04-0.05,2.24-1.1,2.68c-0.53,0.22-1.09,0.2-1.58,0l-0.45-0.19
	c-0.94-0.4-1.64-0.83-2.38-1.03c-0.71-0.25-1.37-0.43-2.13-0.52c-0.74-0.1-1.56-0.14-2.44-0.12c-0.44,0.01-0.91,0.02-1.37,0.06
	c-0.46,0.01-1,0.09-1.39,0.05l-0.78-0.08c-1.09-0.11-1.88-1.08-1.77-2.16C207.64,28.36,207.89,27.91,208.24,27.59z"/>
<path class="st0" d="M187.71,60.35c-0.32,0-0.64-0.08-0.94-0.24c-1.89-1.02-5.22-1.02-7.11,0c-0.98,0.52-2.19,0.16-2.71-0.82
	c-0.52-0.97-0.16-2.19,0.82-2.71c3.05-1.64,7.84-1.64,10.89,0c0.97,0.52,1.34,1.73,0.82,2.71
	C189.12,59.97,188.43,60.35,187.71,60.35z"/>
<circle class="st0" cx="183.22" cy="50.6" r="7"/>
<circle class="st4" cx="184.97" cy="50.6" r="1.75"/>
<path class="st0" d="M186.29,31.11c-0.39,0.04-0.94-0.05-1.39-0.05c-0.47-0.04-0.93-0.05-1.37-0.06c-0.89-0.02-1.7,0.02-2.44,0.12
	c-0.75,0.09-1.41,0.28-2.13,0.52c-0.74,0.21-1.43,0.64-2.38,1.03l-0.45,0.19c-1.04,0.44-2.24-0.05-2.68-1.09
	c-0.22-0.53-0.2-1.1,0-1.59c0.54-1.28,1.41-2.51,2.67-3.38c1.21-0.9,2.72-1.48,4.21-1.63c1.49-0.18,2.95-0.02,4.26,0.39
	c0.66,0.21,1.29,0.48,1.88,0.8c0.61,0.34,1.11,0.68,1.72,1.22c0.81,0.73,0.88,1.98,0.16,2.79c-0.34,0.38-0.8,0.6-1.27,0.65
	L186.29,31.11z"/>
<path class="st0" d="M212.22,62.75h-28.01c-2.21,0-4,1.79-4,4c0,9.93,8.07,18,18,18c9.87,0,17.91-7.99,18-17.84
	c0-0.05,0-0.11,0-0.16C216.22,64.54,214.43,62.75,212.22,62.75z"/>
<ellipse class="st5" cx="198.22" cy="76.09" rx="10.41" ry="4.67"/>
<path class="st4" d="M152.77,96.18h0.49c0.45,0,0.77-0.14,0.97-0.42l2.95-4.28c0.17-0.23,0.36-0.39,0.56-0.47s0.45-0.13,0.75-0.13
	h2.65l-3.89,5.3c-0.28,0.37-0.57,0.63-0.89,0.79c0.23,0.08,0.43,0.2,0.62,0.35c0.19,0.15,0.36,0.34,0.52,0.58l3.96,6.08h-2.72
	c-0.17,0-0.32-0.01-0.45-0.04c-0.12-0.02-0.23-0.06-0.32-0.11c-0.09-0.05-0.17-0.11-0.23-0.18c-0.07-0.07-0.13-0.15-0.19-0.24
	l-2.97-4.56c-0.11-0.17-0.24-0.29-0.41-0.36c-0.17-0.07-0.39-0.1-0.67-0.1h-0.74v5.58h-3.04V90.87h3.04V96.18z"/>
<path class="st4" d="M166.4,93.21v3.06h4.12v2.25h-4.12v3.12h5.38v2.34h-8.44V90.87h8.44v2.34H166.4z"/>
<path class="st4" d="M180.84,99v4.99h-3.04V99l-4.75-8.13h2.68c0.26,0,0.47,0.06,0.62,0.18s0.28,0.28,0.38,0.47l1.85,3.82
	c0.16,0.3,0.3,0.58,0.42,0.84c0.13,0.26,0.24,0.52,0.33,0.77c0.09-0.26,0.19-0.52,0.31-0.78c0.12-0.26,0.25-0.54,0.41-0.83
	l1.84-3.82c0.04-0.08,0.09-0.16,0.15-0.23c0.06-0.08,0.13-0.15,0.21-0.21c0.08-0.06,0.17-0.11,0.28-0.15
	c0.1-0.04,0.22-0.06,0.35-0.06h2.7L180.84,99z"/>
<path class="st4" d="M205.38,90.87l-4.05,13.11h-2.75l-2.47-8.13c-0.05-0.13-0.09-0.27-0.14-0.42c-0.04-0.15-0.08-0.31-0.13-0.48
	c-0.04,0.17-0.08,0.33-0.13,0.48c-0.04,0.15-0.09,0.29-0.13,0.42l-2.5,8.13h-2.75l-4.05-13.11h2.56c0.26,0,0.48,0.06,0.66,0.18
	c0.18,0.12,0.29,0.28,0.35,0.48l1.8,6.84c0.05,0.22,0.11,0.45,0.16,0.71c0.05,0.25,0.11,0.52,0.16,0.8c0.11-0.56,0.24-1.06,0.4-1.5
	l2.12-6.84c0.05-0.17,0.17-0.32,0.35-0.45c0.18-0.14,0.39-0.2,0.64-0.2h0.9c0.26,0,0.48,0.06,0.64,0.18
	c0.16,0.12,0.28,0.28,0.37,0.47l2.11,6.84c0.16,0.42,0.29,0.9,0.4,1.43c0.05-0.27,0.1-0.52,0.15-0.76c0.05-0.24,0.1-0.46,0.16-0.67
	l1.8-6.84c0.05-0.17,0.16-0.33,0.34-0.46c0.18-0.13,0.4-0.2,0.65-0.2H205.38z"/>
<path class="st4" d="M220.12,97.43c0,0.95-0.16,1.83-0.49,2.65c-0.33,0.82-0.79,1.53-1.38,2.13c-0.59,0.6-1.31,1.08-2.15,1.42
	s-1.77,0.51-2.79,0.51c-1.02,0-1.95-0.17-2.79-0.51s-1.56-0.81-2.16-1.42c-0.6-0.6-1.06-1.31-1.39-2.13
	c-0.33-0.82-0.49-1.7-0.49-2.65c0-0.95,0.16-1.83,0.49-2.65c0.33-0.82,0.79-1.52,1.39-2.12c0.6-0.6,1.32-1.07,2.16-1.41
	s1.77-0.51,2.79-0.51c1.02,0,1.95,0.17,2.79,0.52s1.55,0.82,2.15,1.42c0.59,0.6,1.05,1.31,1.38,2.12
	C219.96,95.6,220.12,96.48,220.12,97.43z M217.01,97.43c0-0.65-0.08-1.23-0.25-1.75c-0.17-0.52-0.41-0.96-0.72-1.32
	c-0.32-0.36-0.7-0.64-1.16-0.83s-0.97-0.29-1.56-0.29c-0.59,0-1.11,0.1-1.57,0.29s-0.85,0.47-1.16,0.83s-0.56,0.8-0.72,1.32
	c-0.17,0.52-0.25,1.1-0.25,1.75c0,0.65,0.08,1.24,0.25,1.76c0.17,0.52,0.41,0.96,0.72,1.32c0.32,0.36,0.7,0.63,1.16,0.82
	c0.46,0.19,0.98,0.28,1.57,0.28c0.58,0,1.1-0.09,1.56-0.28c0.46-0.19,0.84-0.46,1.16-0.82c0.31-0.36,0.56-0.8,0.72-1.32
	C216.92,98.67,217.01,98.08,217.01,97.43z"/>
<path class="st4" d="M233.54,103.99h-2.75c-0.51,0-0.88-0.19-1.1-0.58l-2.18-3.81c-0.1-0.16-0.22-0.28-0.34-0.36
	s-0.31-0.11-0.54-0.11h-0.77v4.85h-3.04V90.87h4.27c0.95,0,1.76,0.1,2.43,0.29c0.67,0.2,1.21,0.47,1.64,0.81s0.73,0.76,0.92,1.23
	c0.19,0.47,0.29,0.99,0.29,1.55c0,0.43-0.06,0.83-0.17,1.21c-0.11,0.38-0.28,0.73-0.5,1.05c-0.22,0.32-0.5,0.61-0.82,0.86
	s-0.7,0.46-1.13,0.62c0.2,0.1,0.38,0.23,0.56,0.38c0.17,0.15,0.33,0.33,0.47,0.54L233.54,103.99z M227.08,97.04
	c0.41,0,0.77-0.05,1.06-0.16c0.29-0.1,0.53-0.25,0.71-0.44c0.19-0.19,0.32-0.4,0.41-0.65s0.13-0.52,0.13-0.81
	c0-0.58-0.19-1.03-0.56-1.35c-0.38-0.32-0.96-0.49-1.74-0.49h-1.22v3.89H227.08z"/>
<path class="st4" d="M247.45,97.43c0,0.95-0.16,1.82-0.49,2.62s-0.79,1.49-1.38,2.08s-1.31,1.04-2.15,1.37s-1.77,0.49-2.79,0.49
	h-5.09V90.87h5.09c1.02,0,1.95,0.17,2.79,0.5s1.55,0.79,2.15,1.37s1.05,1.27,1.38,2.07C247.28,95.61,247.45,96.48,247.45,97.43z
	 M244.33,97.43c0-0.65-0.08-1.23-0.25-1.76c-0.17-0.52-0.41-0.96-0.72-1.33c-0.31-0.36-0.7-0.64-1.16-0.84s-0.97-0.29-1.56-0.29
	h-2.03v8.43h2.03c0.58,0,1.1-0.1,1.56-0.29c0.46-0.19,0.84-0.47,1.16-0.84c0.32-0.36,0.56-0.81,0.72-1.33
	C244.25,98.67,244.33,98.08,244.33,97.43z"/>
<path class="st6" d="M173.22,366.75c-4.96,0-9-4.04-9-9v-58c0-4.96,4.04-9,9-9h148c4.96,0,9,4.04,9,9v58c0,4.96-4.04,9-9,9H173.22z"
	/>
<path class="st0" d="M321.22,293.75c3.31,0,6,2.69,6,6v58c0,3.31-2.69,6-6,6h-148c-3.31,0-6-2.69-6-6v-58c0-3.31,2.69-6,6-6H321.22
	 M321.22,287.75h-148c-6.62,0-12,5.38-12,12v58c0,6.62,5.38,12,12,12h148c6.62,0,12-5.38,12-12v-58
	C333.22,293.14,327.83,287.75,321.22,287.75L321.22,287.75z"/>
<path class="st7" d="M155.22,366.75c-4.96,0-9-4.04-9-9v-58c0-4.96,4.04-9,9-9h148c4.96,0,9,4.04,9,9v58c0,4.96-4.04,9-9,9H155.22z"
	/>
<path class="st0" d="M303.22,293.75c3.31,0,6,2.69,6,6v58c0,3.31-2.69,6-6,6h-148c-3.31,0-6-2.69-6-6v-58c0-3.31,2.69-6,6-6H303.22
	 M303.22,287.75h-148c-6.62,0-12,5.38-12,12v58c0,6.62,5.38,12,12,12h148c6.62,0,12-5.38,12-12v-58
	C315.22,293.14,309.83,287.75,303.22,287.75L303.22,287.75z"/>
<path class="st0" d="M248.71,313.35c-0.32,0-0.64-0.08-0.94-0.24c-1.89-1.02-5.21-1.02-7.11,0c-0.98,0.52-2.19,0.16-2.71-0.82
	c-0.52-0.97-0.16-2.19,0.82-2.71c3.05-1.64,7.84-1.64,10.89,0c0.97,0.52,1.34,1.74,0.82,2.71
	C250.12,312.97,249.43,313.35,248.71,313.35z"/>
<circle class="st0" cx="244.22" cy="303.6" r="7"/>
<circle class="st4" cx="245.97" cy="303.6" r="1.75"/>
<path class="st0" d="M229.58,324.62c-5.29,0-10.71-1.42-15.4-4.27c-0.94-0.57-1.25-1.8-0.67-2.75c0.57-0.95,1.8-1.25,2.75-0.67
	c8,4.86,18.86,4.87,25.82,0.03c0.91-0.63,2.15-0.41,2.78,0.5c0.63,0.91,0.41,2.15-0.5,2.78
	C240.17,323.16,234.94,324.62,229.58,324.62z"/>
<path class="st0" d="M225.04,327.73c1.35,0.43,2.77,0.57,4.18,0.62c0.71,0.03,1.41-0.07,2.11-0.15c0.7-0.09,1.39-0.24,2.05-0.47
	c0.69-0.24,1.45,0.13,1.68,0.82c0.17,0.48,0.04,1-0.29,1.34l-0.72,0.76c-0.67,0.71-1.48,1.09-2.3,1.37
	c-0.83,0.24-1.69,0.36-2.54,0.31c-0.43-0.02-0.85-0.04-1.27-0.13c-0.42-0.06-0.84-0.17-1.25-0.3c-0.81-0.27-1.6-0.64-2.3-1.25
	l-0.67-0.59c-0.57-0.5-0.63-1.37-0.13-1.94C223.96,327.72,224.53,327.57,225.04,327.73z"/>
<path class="st0" d="M239.24,280.59c0.61-0.55,1.11-0.88,1.72-1.22c0.6-0.32,1.22-0.59,1.88-0.8c1.32-0.41,2.78-0.57,4.26-0.39
	c1.48,0.15,2.99,0.73,4.21,1.63c1.26,0.87,2.13,2.1,2.67,3.38c0.44,1.04-0.05,2.24-1.1,2.68c-0.53,0.22-1.09,0.2-1.58,0l-0.45-0.19
	c-0.94-0.4-1.64-0.83-2.38-1.03c-0.71-0.25-1.37-0.43-2.13-0.52c-0.74-0.1-1.56-0.14-2.44-0.12c-0.44,0.01-0.91,0.02-1.37,0.06
	c-0.46,0.01-1,0.09-1.39,0.05l-0.78-0.08c-1.09-0.11-1.88-1.08-1.77-2.16C238.64,281.36,238.89,280.91,239.24,280.59z"/>
<path class="st0" d="M218.71,313.35c-0.32,0-0.64-0.08-0.94-0.24c-1.89-1.02-5.21-1.02-7.11,0c-0.98,0.52-2.19,0.16-2.71-0.82
	c-0.52-0.97-0.16-2.19,0.82-2.71c3.05-1.64,7.84-1.64,10.89,0c0.97,0.52,1.34,1.74,0.82,2.71
	C220.12,312.97,219.43,313.35,218.71,313.35z"/>
<circle class="st0" cx="214.22" cy="303.6" r="7"/>
<circle class="st4" cx="215.97" cy="303.6" r="1.75"/>
<path class="st0" d="M217.29,284.11c-0.39,0.04-0.94-0.05-1.39-0.05c-0.47-0.04-0.93-0.05-1.37-0.06c-0.89-0.02-1.7,0.02-2.44,0.12
	c-0.75,0.09-1.41,0.28-2.13,0.52c-0.74,0.21-1.43,0.64-2.38,1.03l-0.45,0.19c-1.04,0.44-2.24-0.05-2.68-1.09
	c-0.22-0.53-0.2-1.1,0-1.59c0.54-1.28,1.41-2.51,2.67-3.38c1.21-0.9,2.72-1.48,4.21-1.63c1.49-0.18,2.95-0.02,4.26,0.39
	c0.66,0.21,1.29,0.48,1.88,0.8c0.61,0.34,1.11,0.68,1.72,1.22c0.81,0.73,0.88,1.98,0.16,2.79c-0.34,0.38-0.8,0.6-1.27,0.65
	L217.29,284.11z"/>
<path class="st4" d="M183.77,349.18h0.49c0.45,0,0.77-0.14,0.97-0.42l2.95-4.28c0.17-0.23,0.36-0.39,0.56-0.47s0.45-0.13,0.75-0.13
	h2.65l-3.89,5.3c-0.28,0.37-0.57,0.63-0.89,0.79c0.23,0.08,0.43,0.2,0.62,0.35c0.19,0.15,0.36,0.34,0.52,0.58l3.96,6.08h-2.72
	c-0.17,0-0.32-0.01-0.45-0.04c-0.12-0.02-0.23-0.06-0.32-0.11c-0.09-0.05-0.17-0.11-0.23-0.18c-0.07-0.07-0.13-0.15-0.19-0.24
	l-2.97-4.56c-0.11-0.17-0.24-0.29-0.41-0.36c-0.17-0.07-0.39-0.1-0.67-0.1h-0.74v5.58h-3.04v-13.11h3.04V349.18z"/>
<path class="st4" d="M197.4,346.21v3.06h4.12v2.25h-4.12v3.12h5.38v2.34h-8.44v-13.11h8.44v2.34H197.4z"/>
<path class="st4" d="M211.84,352v4.99h-3.04V352l-4.75-8.13h2.68c0.26,0,0.47,0.06,0.62,0.18s0.28,0.28,0.38,0.47l1.85,3.82
	c0.16,0.3,0.3,0.58,0.42,0.84c0.13,0.26,0.24,0.52,0.33,0.77c0.09-0.26,0.19-0.52,0.31-0.78c0.12-0.26,0.25-0.54,0.41-0.83
	l1.84-3.82c0.04-0.08,0.09-0.16,0.15-0.23c0.06-0.08,0.13-0.15,0.21-0.21c0.08-0.06,0.17-0.11,0.28-0.15
	c0.1-0.04,0.22-0.06,0.35-0.06h2.7L211.84,352z"/>
<path class="st4" d="M236.38,343.87l-4.05,13.11h-2.75l-2.47-8.13c-0.05-0.13-0.09-0.27-0.14-0.42c-0.04-0.15-0.08-0.31-0.13-0.48
	c-0.04,0.17-0.08,0.33-0.13,0.48c-0.04,0.15-0.09,0.29-0.13,0.42l-2.5,8.13h-2.75l-4.05-13.11h2.56c0.26,0,0.48,0.06,0.66,0.18
	c0.18,0.12,0.29,0.28,0.35,0.48l1.8,6.84c0.05,0.22,0.11,0.45,0.16,0.71c0.05,0.25,0.11,0.52,0.16,0.8c0.11-0.56,0.24-1.06,0.4-1.5
	l2.12-6.84c0.05-0.17,0.17-0.32,0.35-0.45c0.18-0.14,0.39-0.2,0.64-0.2h0.9c0.26,0,0.48,0.06,0.64,0.18
	c0.16,0.12,0.28,0.28,0.37,0.47l2.11,6.84c0.16,0.42,0.29,0.9,0.4,1.43c0.05-0.27,0.1-0.52,0.15-0.76c0.05-0.24,0.1-0.46,0.16-0.67
	l1.8-6.84c0.05-0.17,0.16-0.33,0.34-0.46c0.18-0.13,0.4-0.2,0.65-0.2H236.38z"/>
<path class="st4" d="M251.12,350.43c0,0.95-0.16,1.83-0.49,2.65c-0.33,0.82-0.79,1.53-1.38,2.13c-0.59,0.6-1.31,1.08-2.15,1.42
	s-1.77,0.51-2.79,0.51c-1.02,0-1.95-0.17-2.79-0.51s-1.56-0.81-2.16-1.42c-0.6-0.6-1.06-1.31-1.39-2.13
	c-0.33-0.82-0.49-1.7-0.49-2.65c0-0.95,0.16-1.83,0.49-2.65c0.33-0.82,0.79-1.52,1.39-2.12c0.6-0.6,1.32-1.07,2.16-1.41
	s1.77-0.51,2.79-0.51c1.02,0,1.95,0.17,2.79,0.52s1.55,0.82,2.15,1.42c0.59,0.6,1.05,1.31,1.38,2.12
	C250.96,348.6,251.12,349.48,251.12,350.43z M248.01,350.43c0-0.65-0.08-1.23-0.25-1.75c-0.17-0.52-0.41-0.96-0.72-1.32
	c-0.32-0.36-0.7-0.64-1.16-0.83s-0.97-0.29-1.56-0.29c-0.59,0-1.11,0.1-1.57,0.29s-0.85,0.47-1.16,0.83s-0.56,0.8-0.72,1.32
	c-0.17,0.52-0.25,1.1-0.25,1.75c0,0.65,0.08,1.24,0.25,1.76c0.17,0.52,0.41,0.96,0.72,1.32c0.32,0.36,0.7,0.63,1.16,0.82
	c0.46,0.19,0.98,0.28,1.57,0.28c0.58,0,1.1-0.09,1.56-0.28c0.46-0.19,0.84-0.46,1.16-0.82c0.31-0.36,0.56-0.8,0.72-1.32
	C247.92,351.67,248.01,351.08,248.01,350.43z"/>
<path class="st4" d="M264.54,356.99h-2.75c-0.51,0-0.88-0.19-1.1-0.58l-2.18-3.81c-0.1-0.16-0.22-0.28-0.34-0.36
	s-0.31-0.11-0.54-0.11h-0.77v4.85h-3.04v-13.11h4.27c0.95,0,1.76,0.1,2.43,0.29c0.67,0.2,1.21,0.47,1.64,0.81s0.73,0.76,0.92,1.23
	c0.19,0.47,0.29,0.99,0.29,1.55c0,0.43-0.06,0.83-0.17,1.21c-0.11,0.38-0.28,0.73-0.5,1.05c-0.22,0.32-0.5,0.61-0.82,0.86
	s-0.7,0.46-1.13,0.62c0.2,0.1,0.38,0.23,0.56,0.38c0.17,0.15,0.33,0.33,0.47,0.54L264.54,356.99z M258.08,350.04
	c0.41,0,0.77-0.05,1.06-0.16c0.29-0.1,0.53-0.25,0.71-0.44c0.19-0.19,0.32-0.4,0.41-0.65s0.13-0.52,0.13-0.81
	c0-0.58-0.19-1.03-0.56-1.35c-0.38-0.32-0.96-0.49-1.74-0.49h-1.22v3.89H258.08z"/>
<path class="st4" d="M278.45,350.43c0,0.95-0.16,1.82-0.49,2.62s-0.79,1.49-1.38,2.08s-1.31,1.04-2.15,1.37s-1.77,0.49-2.79,0.49
	h-5.09v-13.11h5.09c1.02,0,1.95,0.17,2.79,0.5s1.55,0.79,2.15,1.37s1.05,1.27,1.38,2.07C278.28,348.61,278.45,349.48,278.45,350.43z
	 M275.33,350.43c0-0.65-0.08-1.23-0.25-1.76c-0.17-0.52-0.41-0.96-0.72-1.33c-0.31-0.36-0.7-0.64-1.16-0.84s-0.97-0.29-1.56-0.29
	h-2.03v8.43h2.03c0.58,0,1.1-0.1,1.56-0.29c0.46-0.19,0.84-0.47,1.16-0.84c0.32-0.36,0.56-0.81,0.72-1.33
	C275.25,351.67,275.33,351.08,275.33,350.43z"/>
<path class="st8" d="M76.88,270.23c-6.09,0-11.95-1.64-16.39-4.55c-3.39,1.63-7.21,2.48-11.15,2.48c-10.59,0-20.05-6.05-22.99-14.39
	c-8.19-1.45-14.19-7.35-15.89-15.79c-1.72-8.54,1.49-17.11,7.93-21.8c-2.49-6.97-1.43-15.12,2.99-22.33
	c5.09-8.28,13.41-13.42,21.73-13.42c0.57,0,1.13,0.02,1.7,0.07c2.47-14.64,15.3-22.5,26.99-22.5c8.31,0,15.95,3.63,21.51,10.23
	l0.71,0.84v95.06l-0.96,0.89C89.53,268.28,83.49,270.23,76.88,270.23C76.88,270.23,76.88,270.23,76.88,270.23z"/>
<path class="st9" d="M93.23,186.96c-0.51,0-1.03-0.2-1.42-0.59c-4.81-4.83-11.64-2.19-11.71-2.17c-1.02,0.41-2.19-0.09-2.6-1.12
	c-0.41-1.03,0.09-2.19,1.12-2.6c0.38-0.15,9.36-3.62,16.02,3.06c0.78,0.78,0.78,2.05,0,2.83C94.25,186.77,93.74,186.96,93.23,186.96
	z"/>
<path class="st9" d="M57.02,197.06c-0.15,0-0.3-0.02-0.45-0.05c-1.08-0.25-1.75-1.32-1.5-2.4c0.56-2.41,3.08-6.89,8.73-6.68
	c1.1,0.05,1.96,0.98,1.92,2.08s-0.98,1.97-2.08,1.92c-3.76-0.15-4.64,3.43-4.67,3.58C58.76,196.43,57.93,197.06,57.02,197.06z"/>
<path class="st9" d="M53.86,183.03c0.16-10.75,15.66-29.07,37.14-12.87c-13.65-16.21-38.62-9.59-42.97,9.49L53.86,183.03z"/>
<path class="st1" d="M92,261.64v-87.14c-0.32-0.32-0.66-0.6-1-0.89v88.44C91.35,261.92,91.69,261.79,92,261.64z"/>
<path class="st10" d="M60.72,262.16c8.82,6.99,24.2,6.31,30.28,0.66v-6.93c0,0-11.21,7.33-22.55,0.89c0,0-23.38,9.51-32.93-4.44
	l-5.75,1.92C34.42,264.07,49.75,268.61,60.72,262.16z"/>
<rect x="91" y="171.09" class="st0" width="6" height="30"/>
<path class="st8" d="M111.12,270.23c-6.61,0-12.65-1.95-16.16-5.21L94,264.12v-95.06l0.71-0.84c5.56-6.6,13.19-10.23,21.51-10.23
	c11.69,0,24.51,7.86,26.99,22.5c0.56-0.05,1.13-0.07,1.7-0.07c8.32,0,16.64,5.14,21.73,13.42c4.43,7.2,5.48,15.35,2.99,22.33
	c6.43,4.69,9.65,13.25,7.93,21.8c-1.71,8.45-7.71,14.34-15.89,15.79c-2.94,8.34-12.4,14.39-22.99,14.39
	c-3.94,0-7.76-0.85-11.15-2.48C123.07,268.58,117.21,270.23,111.12,270.23z"/>
<path class="st9" d="M94.77,186.96c-0.51,0-1.02-0.19-1.41-0.58c-0.78-0.78-0.78-2.05,0-2.83c6.65-6.68,15.64-3.21,16.02-3.06
	c1.03,0.41,1.53,1.57,1.12,2.6c-0.41,1.02-1.57,1.53-2.59,1.12c-0.31-0.12-6.95-2.61-11.71,2.16
	C95.79,186.76,95.28,186.96,94.77,186.96z"/>
<path class="st9" d="M130.98,197.06c-0.91,0-1.73-0.62-1.94-1.54c-0.1-0.39-1.04-3.75-4.67-3.59c-1.12,0.04-2.04-0.81-2.08-1.92
	c-0.04-1.1,0.81-2.03,1.92-2.08c5.64-0.23,8.18,4.27,8.73,6.68c0.25,1.08-0.42,2.15-1.5,2.4
	C131.28,197.04,131.12,197.06,130.98,197.06z"/>
<path class="st9" d="M134.14,183.03c-0.16-10.75-15.66-29.07-37.14-12.87c13.65-16.21,38.62-9.59,42.97,9.49L134.14,183.03z"/>
<path class="st1" d="M96,261.64v-87.14c0.32-0.32,0.66-0.6,1-0.89v88.44C96.65,261.92,96.31,261.79,96,261.64z"/>
<path class="st10" d="M127.28,262.16c-8.82,6.99-24.2,6.31-30.28,0.66v-6.93c0,0,11.21,7.33,22.55,0.89c0,0,23.38,9.51,32.93-4.44
	l5.75,1.92C153.58,264.07,138.25,268.61,127.28,262.16z"/>
<path class="st0" d="M106,221.69c-0.62,0-1.23-0.29-1.62-0.83c-0.65-0.89-0.45-2.14,0.45-2.79c3.46-2.51,8.88-2.5,12.35,0
	c0.89,0.65,1.09,1.9,0.45,2.79s-1.9,1.1-2.79,0.45c-2.07-1.5-5.58-1.5-7.65,0C106.82,221.57,106.41,221.69,106,221.69z"/>
<circle class="st0" cx="111" cy="210.94" r="8"/>
<circle class="st4" cx="113" cy="210.94" r="2"/>
<path class="st0" d="M104.98,193.33c0.7-0.63,1.28-1.02,1.98-1.41c0.68-0.37,1.4-0.69,2.16-0.92c1.51-0.49,3.19-0.66,4.9-0.46
	c1.71,0.17,3.44,0.84,4.84,1.88c1.45,1,2.45,2.42,3.06,3.9c0.5,1.22-0.08,2.62-1.3,3.12c-0.61,0.25-1.25,0.23-1.82,0l-0.54-0.22
	c-1.09-0.45-1.88-0.93-2.72-1.16c-0.81-0.27-1.56-0.49-2.41-0.59c-0.84-0.12-1.76-0.16-2.78-0.15c-0.5,0.02-1.03,0.02-1.57,0.07
	c-0.52,0-1.15,0.1-1.59,0.05l-0.94-0.11c-1.26-0.15-2.17-1.29-2.02-2.55C104.3,194.2,104.58,193.69,104.98,193.33z"/>
<path class="st0" d="M72,221.69c-0.62,0-1.23-0.29-1.62-0.83c-0.65-0.89-0.45-2.14,0.45-2.79c3.46-2.51,8.89-2.5,12.35,0
	c0.89,0.65,1.09,1.9,0.45,2.79s-1.9,1.1-2.79,0.45c-2.07-1.5-5.58-1.5-7.65,0C72.82,221.57,72.41,221.69,72,221.69z"/>
<circle class="st0" cx="77" cy="210.94" r="8"/>
<circle class="st4" cx="79" cy="210.94" r="2"/>
<path class="st0" d="M80.8,197.43c-0.44,0.05-1.07-0.04-1.59-0.05c-0.54-0.04-1.06-0.05-1.57-0.07c-1.01,0-1.93,0.03-2.78,0.15
	c-0.86,0.1-1.6,0.31-2.41,0.59c-0.84,0.23-1.63,0.71-2.72,1.16l-0.54,0.22c-1.22,0.5-2.62-0.08-3.12-1.3
	c-0.25-0.61-0.23-1.26,0-1.82c0.61-1.47,1.61-2.9,3.06-3.9c1.4-1.04,3.13-1.71,4.84-1.88c1.71-0.2,3.39-0.03,4.9,0.46
	c0.76,0.23,1.48,0.55,2.16,0.92c0.7,0.39,1.27,0.78,1.98,1.41c0.94,0.85,1.02,2.31,0.17,3.25c-0.39,0.43-0.9,0.68-1.44,0.75
	L80.8,197.43z"/>
<path class="st9" d="M161.18,226.77c-2.61,1.52-5.75,0.46-5.85,0.42c-1.55-0.57-3.26,0.22-3.84,1.76c-0.58,1.55,0.2,3.28,1.75,3.86
	c0.14,0.05,2.08,0.76,4.69,0.76c1.86,0,4.06-0.36,6.19-1.58c3.39-1.94,5.67-5.47,6.81-10.46c-1.3-1.6-2.92-2.98-4.85-4.03
	c-0.37,0.41-0.64,0.92-0.75,1.51C164.66,222.95,163.26,225.56,161.18,226.77z"/>
<path class="st9" d="M27.05,226.77c2.61,1.52,5.75,0.46,5.85,0.42c1.55-0.57,3.26,0.22,3.84,1.76c0.58,1.55-0.2,3.28-1.75,3.86
	c-0.14,0.05-2.08,0.76-4.69,0.76c-1.86,0-4.06-0.36-6.19-1.58c-3.39-1.94-5.67-5.47-6.81-10.46c1.3-1.6,2.92-2.98,4.85-4.03
	c0.37,0.41,0.64,0.92,0.75,1.51C23.57,222.95,24.97,225.56,27.05,226.77z"/>
<polygon class="st4" points="352.7,151.49 349.7,146.29 339.31,152.29 336.31,147.1 325.92,153.1 328.92,158.29 323.72,161.29 
	317.72,150.9 307.33,156.9 313.33,167.29 308.13,170.29 287.13,133.92 276.74,139.92 312.74,202.27 307.54,205.27 301.54,194.88 
	296.35,197.88 293.35,192.68 282.96,198.68 288.96,209.08 294.15,206.08 297.15,211.27 302.35,208.27 308.35,218.67 313.54,215.67 
	319.54,226.06 324.74,223.06 330.74,233.45 335.94,230.45 341.94,240.84 383.51,216.84 377.51,206.45 382.7,203.45 373.7,187.86 
	378.9,184.86 357.9,148.49 "/>
<rect x="327.34" y="220.75" transform="matrix(0.866 -0.5 0.5 0.866 -69.1198 195.5482)" class="st11" width="6" height="12"/>
<rect x="316.14" y="213.36" transform="matrix(0.866 -0.5 0.5 0.866 -66.9237 188.9598)" class="st11" width="6" height="12"/>
<rect x="304.95" y="205.97" transform="matrix(0.866 -0.5 0.5 0.866 -64.7275 182.3713)" class="st11" width="6" height="12"/>
<rect x="285.55" y="196.38" transform="matrix(0.866 -0.5 0.5 0.866 -62.5314 171.3905)" class="st11" width="6" height="12"/>
<rect x="295.25" y="204.17" transform="matrix(0.866 -0.5 0.5 0.866 -63.6294 176.8809)" class="st11" width="6" height="6"/>
<rect x="338.53" y="228.15" transform="matrix(0.866 -0.5 0.5 0.866 -71.316 202.1367)" class="st11" width="6" height="12"/>
<rect x="274.44" y="131.32" transform="matrix(0.866 -0.5 0.5 0.866 -29.5891 158.2136)" class="st0" width="12" height="6"/>
<polygon class="st0" points="319.33,177.68 307.33,156.9 317.72,150.9 314.72,145.7 304.33,151.7 292.33,130.92 287.13,133.92 
	314.13,180.68 "/>
<polygon class="st0" points="334.92,168.68 325.92,153.1 336.31,147.1 333.31,141.9 317.72,150.9 329.72,171.68 "/>
<polygon class="st0" points="353.51,164.88 344.51,149.29 349.7,146.29 346.7,141.1 336.31,147.1 348.31,167.88 "/>
<rect x="377.8" y="185.16" transform="matrix(0.866 -0.5 0.5 0.866 -46.0602 216.4117)" class="st0" width="6" height="18"/>
<polygon class="st0" points="383.51,216.84 341.94,240.84 335.94,230.45 330.74,233.45 339.74,249.04 391.7,219.04 382.7,203.45 
	377.51,206.45 "/>
<rect x="322.14" y="223.75" transform="matrix(0.866 -0.5 0.5 0.866 -71.316 193.3521)" class="st0" width="6" height="12"/>
<rect x="310.95" y="216.36" transform="matrix(0.866 -0.5 0.5 0.866 -69.1198 186.7636)" class="st0" width="6" height="12"/>
<rect x="299.75" y="208.97" transform="matrix(0.866 -0.5 0.5 0.866 -66.9237 180.1752)" class="st0" width="6" height="12"/>
<rect x="290.05" y="207.17" transform="matrix(0.866 -0.5 0.5 0.866 -65.8256 174.6848)" class="st0" width="6" height="6"/>
<polygon class="st0" points="301.54,194.88 307.54,205.27 312.74,202.27 276.74,139.92 271.54,142.92 298.54,189.68 293.35,192.68 
	296.35,197.88 "/>
<polygon class="st0" points="293.35,192.68 290.35,187.49 274.76,196.49 283.76,212.08 288.96,209.08 282.96,198.68 "/>
<rect x="350.8" y="144.39" transform="matrix(0.866 -0.5 0.5 0.866 -26.2949 196.6463)" class="st0" width="6" height="6"/>
<rect x="368" y="144.17" transform="matrix(0.866 -0.5 0.5 0.866 -32.8833 207.6271)" class="st0" width="6" height="42"/>
<rect x="329.46" y="190.43" transform="matrix(0.866 -0.5 0.5 0.866 -56.675 193.3521)" class="st0" width="6" height="24"/>
<rect x="339.85" y="184.43" transform="matrix(0.866 -0.5 0.5 0.866 -52.2827 197.7444)" class="st0" width="6" height="24"/>
<rect x="350.25" y="178.43" transform="matrix(0.866 -0.5 0.5 0.866 -47.8904 202.1367)" class="st0" width="6" height="24"/>
<path class="st12" d="M109.6,332.4c2.65,0,4.8-2.15,4.8-4.8c0-0.88,0.72-1.6,1.6-1.6c0.88,0,1.6,0.72,1.6,1.6
	c0,2.65,2.15,4.8,4.8,4.8c0.88,0,1.6,0.72,1.6,1.6s-0.72,1.6-1.6,1.6c-2.65,0-4.8,2.15-4.8,4.8c0,0.88-0.72,1.6-1.6,1.6
	c-0.88,0-1.6-0.72-1.6-1.6c0-2.65-2.15-4.8-4.8-4.8c-0.88,0-1.6-0.72-1.6-1.6S108.72,332.4,109.6,332.4z"/>
<circle class="st12" cx="349" cy="98" r="5"/>
<path class="st12" d="M361.6,279.4c2.65,0,4.8-2.15,4.8-4.8c0-0.88,0.72-1.6,1.6-1.6s1.6,0.72,1.6,1.6c0,2.65,2.15,4.8,4.8,4.8
	c0.88,0,1.6,0.72,1.6,1.6s-0.72,1.6-1.6,1.6c-2.65,0-4.8,2.15-4.8,4.8c0,0.88-0.72,1.6-1.6,1.6s-1.6-0.72-1.6-1.6
	c0-2.65-2.15-4.8-4.8-4.8c-0.88,0-1.6-0.72-1.6-1.6S360.72,279.4,361.6,279.4z"/>
<circle class="st12" cx="331" cy="270" r="3"/>
<circle class="st12" cx="351" cy="310" r="4"/>
<path class="st12" d="M326,70h-7v-7c0-1.66-1.34-3-3-3s-3,1.34-3,3v7h-7c-1.66,0-3,1.34-3,3s1.34,3,3,3h7v7c0,1.66,1.34,3,3,3
	s3-1.34,3-3v-7h7c1.66,0,3-1.34,3-3S327.66,70,326,70z"/>
<path class="st12" d="M59.8,127.2c2.98,0,5.4-2.42,5.4-5.4c0-0.99,0.81-1.8,1.8-1.8c0.99,0,1.8,0.81,1.8,1.8
	c0,2.98,2.42,5.4,5.4,5.4c0.99,0,1.8,0.81,1.8,1.8s-0.81,1.8-1.8,1.8c-2.98,0-5.4,2.42-5.4,5.4c0,0.99-0.81,1.8-1.8,1.8
	c-0.99,0-1.8-0.81-1.8-1.8c0-2.98-2.42-5.4-5.4-5.4c-0.99,0-1.8-0.81-1.8-1.8S58.81,127.2,59.8,127.2z"/>
<circle class="st12" cx="29" cy="161" r="3"/>
<circle class="st12" cx="92" cy="297" r="4"/>
<path class="st0" d="M173.08,215.13c1.93-7.33,0.58-15.55-3.9-22.84c-5.49-8.94-14.48-14.57-23.59-14.84
	C142.14,164.3,130.43,155,116.22,155v6l0-6c-8.45,0-16.25,3.38-22.21,9.55c-5.97-6.17-13.77-9.55-22.21-9.55
	c-14.21,0-25.93,9.3-29.38,22.44c-9.12,0.27-18.1,5.91-23.59,14.84c-4.48,7.3-5.83,15.51-3.9,22.85c-6.22,5.56-9.21,14.52-7.4,23.44
	c1.84,9.13,8.06,15.67,16.63,17.8c3.9,8.77,13.82,14.79,25.19,14.79c3.6,0,7.1-0.65,10.34-1.88c0.02,0,0.04,0,0.06,0
	c0.25,0,0.5-0.04,0.74-0.11c4.68,2.63,10.36,4.05,16.4,4.05c6.84,0,12.98-1.85,17.12-5.1c4.14,3.25,10.28,5.1,17.12,5.1
	c6.05,0,11.73-1.42,16.4-4.05c0.25,0.06,0.49,0.11,0.74,0.11c0.02,0,0.04,0,0.06,0c3.24,1.24,6.74,1.89,10.34,1.89
	c11.37,0,21.3-6.02,25.19-14.79c8.57-2.13,14.79-8.67,16.63-17.8C182.29,229.65,179.31,220.69,173.08,215.13z M66.25,265.29
	c2.12-2.11,4.28-5.21,5.27-9.59c0.03-0.15,0.04-0.3,0.05-0.45c0.01,0,0.03,0,0.04,0c1.02,0,1.96-0.12,2.8-0.29
	c1.08-0.22,1.78-1.28,1.55-2.36c-0.22-1.08-1.28-1.78-2.36-1.55c-2.3,0.48-5.79,0.33-9.33-3.07c-0.8-0.77-2.06-0.74-2.83,0.06
	c-0.77,0.8-0.74,2.06,0.06,2.83c1.45,1.39,2.9,2.37,4.31,3.05c-0.06,0.15-0.12,0.31-0.16,0.48c-0.9,4.01-3.18,6.46-4.92,7.79
	c-0.01-0.01-0.02-0.01-0.02-0.02c-3.51,2.07-7.47,3.01-11.39,3.01c-7.34,0-14.5-3.31-18.25-8.68c4.04-0.5,9.15-2.09,13.2-6.55
	c1.21,0.6,2.41,0.96,3.47,1.16c0.13,0.02,0.26,0.04,0.38,0.04c0.94,0,1.78-0.67,1.96-1.62c0.21-1.08-0.5-2.13-1.59-2.34
	c-2.31-0.44-5.47-1.92-7.43-6.41c-0.44-1.01-1.62-1.48-2.63-1.03c-1.01,0.44-1.48,1.62-1.03,2.63c0.65,1.48,1.4,2.72,2.21,3.76
	c-5.03,5.27-12.61,4.61-14.01,4.44c-13.4-3.32-16.13-20.39-8.17-29.48c2.31,3.28,7.29,8.2,16.43,8.33c0.35,1.29,0.86,2.41,1.41,3.33
	c0.37,0.63,1.04,0.99,1.73,0.99c0.34,0,0.69-0.09,1.01-0.27c0.95-0.56,1.27-1.78,0.71-2.74c-1.19-2.03-2.17-5.38-0.09-9.81
	c0.47-1,0.04-2.19-0.96-2.66c-1-0.47-2.19-0.04-2.66,0.96c-0.7,1.48-1.13,2.88-1.37,4.19c-6.84-0.21-10.27-4.12-11.6-6.19
	c-7.16-14.52,6.09-33.75,21.04-33.75c1.1,0,2.21,0.11,3.32,0.32c0.15,0.07,0.3,0.13,0.47,0.18c4.5,1.22,6.69,3.4,7.47,4.36
	c-1.44,1.41-2.36,3.08-2.81,4.64c-0.3,1.06,0.31,2.17,1.37,2.47c0.18,0.05,0.37,0.08,0.55,0.08c0.87,0,1.67-0.57,1.92-1.45
	c0.71-2.46,3.14-5.11,7.84-5.15c1.1-0.01,1.99-0.91,1.98-2.02s-0.89-2.02-2.02-1.98c-1.3,0.01-2.49,0.17-3.56,0.45
	c-0.91-1.35-4.08-5.27-11.18-7.19c-0.01,0-0.01,0-0.02,0C51.61,167.4,61.5,161,71.79,161c6.86,0,13.9,2.85,19.21,9.16v6.89
	c-3.02-1.5-8.45-2.95-15.35,0.48c-0.99,0.49-1.39,1.69-0.9,2.68c0.49,0.99,1.69,1.39,2.68,0.9c8.03-4.01,13.29,0.41,13.53,0.62
	c0.01,0.01,0.02,0.01,0.03,0.02v81.06c-3.04,2.83-8.41,4.41-14.12,4.41C73.31,267.23,69.61,266.61,66.25,265.29z M162.38,250.55
	c-1.38,0.17-8.97,0.84-14.01-4.44c0.81-1.04,1.57-2.28,2.21-3.76c0.44-1.01-0.02-2.19-1.03-2.63c-1.01-0.45-2.19,0.02-2.63,1.03
	c-1.96,4.5-5.12,5.97-7.43,6.41c-1.08,0.21-1.79,1.26-1.59,2.34c0.18,0.96,1.02,1.62,1.96,1.62c0.13,0,0.25-0.01,0.38-0.04
	c1.06-0.2,2.26-0.56,3.47-1.16c4.05,4.46,9.16,6.05,13.2,6.55c-3.75,5.37-10.91,8.68-18.25,8.68c-3.91,0-7.87-0.94-11.39-3.01
	c-0.01,0.01-0.02,0.01-0.02,0.02c-1.73-1.34-4.02-3.78-4.92-7.79c-0.04-0.17-0.1-0.32-0.16-0.48c1.41-0.68,2.87-1.66,4.31-3.05
	c0.8-0.77,0.82-2.03,0.06-2.83c-0.76-0.79-2.03-0.82-2.83-0.06c-3.53,3.4-7.02,3.54-9.33,3.07c-1.08-0.22-2.14,0.47-2.36,1.55
	c-0.22,1.08,0.47,2.14,1.55,2.36c0.84,0.17,1.78,0.29,2.8,0.29c0.01,0,0.03,0,0.04,0c0.01,0.15,0.02,0.3,0.05,0.45
	c0.99,4.39,3.15,7.49,5.27,9.59c-3.35,1.32-7.06,1.94-10.63,1.94c-5.71,0-11.08-1.58-14.12-4.41v-81.06
	c0.01-0.01,0.02-0.01,0.02-0.02c0.22-0.19,5.49-4.64,13.53-0.62c0.99,0.49,2.19,0.09,2.68-0.9c0.49-0.99,0.09-2.19-0.9-2.68
	c-6.89-3.44-12.32-1.98-15.35-0.48v-6.89c5.32-6.31,12.35-9.16,19.21-9.16c10.28,0,20.18,6.4,23.35,17.14c-0.01,0-0.01,0-0.02,0
	c-7.1,1.93-10.27,5.84-11.18,7.19c-1.08-0.28-2.26-0.44-3.56-0.45h-0.02c-1.1,0-1.99,0.88-2,1.98c-0.01,1.1,0.88,2.01,1.98,2.02
	c4.7,0.04,7.13,2.69,7.84,5.15c0.25,0.88,1.05,1.45,1.92,1.45c0.18,0,0.37-0.03,0.55-0.08c1.06-0.3,1.68-1.41,1.37-2.47
	c-0.45-1.56-1.37-3.23-2.81-4.64c0.79-0.96,2.98-3.14,7.47-4.36c0.16-0.04,0.32-0.11,0.47-0.18c1.11-0.22,2.22-0.32,3.32-0.32
	c14.96,0,28.21,19.24,21.03,33.76c-1.33,2.06-4.76,5.97-11.6,6.18c-0.24-1.31-0.68-2.71-1.37-4.19c-0.47-1-1.66-1.43-2.66-0.96
	c-1,0.47-1.43,1.66-0.96,2.66c2.08,4.44,1.1,7.79-0.09,9.81c-0.56,0.95-0.24,2.18,0.71,2.74c0.32,0.19,0.67,0.27,1.01,0.27
	c0.69,0,1.35-0.35,1.73-0.99c0.54-0.93,1.05-2.04,1.41-3.33c9.14-0.12,14.13-5.05,16.43-8.33
	C178.51,230.16,175.78,247.22,162.38,250.55z"/>
<path class="st0" d="M112.01,225.09H76c-2.76,0-5,2.24-5,5c0,12.68,10.32,23,23,23c12.62,0,22.9-10.22,23-22.82
	c0-0.06,0-0.12,0-0.18C117,227.33,114.77,225.09,112.01,225.09z"/>
<ellipse class="st5" cx="94" cy="242.09" rx="13.39" ry="6"/>
</svg>
