<svg id="Layer_1" data-name="Layer 1" xmlns="http://www.w3.org/2000/svg" viewBox="0 0 344 208"><defs><style>.cls-1{fill:#fffaec;}.cls-2{fill:#515979;}.cls-3{fill:#747a94;}.cls-4{fill:#979baf;}.cls-5{fill:#fff;}.cls-6{fill:#ef7d7d;}.cls-7{fill:#d6d6d6;}.cls-8{fill:#b1b1b1;}.cls-9{fill:#b29d90;}.cls-10{fill:#c9bbb2;}</style></defs><path class="cls-1" d="M172,147.57a458.22,458.22,0,0,1-67.44-5,3,3,0,0,1-2.55-3.16c3.53-54.41,14.52-73.87,23.7-84.74,3.2-3.8,8.4-5.72,15.44-5.72,12.09,0,26.58,5.62,30.85,7.39,4.27-1.77,18.76-7.39,30.84-7.39,7,0,12.25,1.92,15.45,5.72C227.47,65.51,238.46,85,242,139.38a3,3,0,0,1-2.55,3.16A458.22,458.22,0,0,1,172,147.57Z"/><path class="cls-2" d="M202.85,51.92c5.42,0,10.26,1.22,13.15,4.65,10.13,12,19.73,32.6,23,83a452.37,452.37,0,0,1-67,5,452.37,452.37,0,0,1-67-5c3.27-50.4,12.87-71,23-83,2.9-3.43,7.73-4.65,13.15-4.65,13.57,0,30.85,7.65,30.85,7.65s17.28-7.65,30.85-7.65m0-6c-11.68,0-25.36,5-30.85,7.15-5.49-2.19-19.17-7.15-30.84-7.15-8,0-13.94,2.28-17.74,6.78C113.94,63.93,102.6,83.9,99,139.18a6,6,0,0,0,5.1,6.33A461.79,461.79,0,0,0,172,150.57a461.79,461.79,0,0,0,67.89-5.06,6,6,0,0,0,5.1-6.33C241.4,83.9,230.06,63.93,220.58,52.7c-3.8-4.5-9.76-6.78-17.73-6.78Z"/><path class="cls-3" d="M172,147.57a458.22,458.22,0,0,1-67.44-5l-2.73-.41.18-2.75c.25-4,.57-7.83,1-11.8l.28-2.81,2.82.11c21.87.84,44.05,1.27,65.92,1.27s44.05-.43,65.92-1.27l2.82-.11.28,2.81c.4,4,.72,7.85,1,11.8l.18,2.75-2.73.41A458.22,458.22,0,0,1,172,147.57Z"/><path class="cls-2" d="M238,127.87c.37,3.72.69,7.6,1,11.7a452.37,452.37,0,0,1-67,5,452.37,452.37,0,0,1-67-5c.27-4.1.59-8,1-11.7q33,1.27,66,1.28t66-1.28m5.41-6.21-5.64.22c-21.84.84-44,1.27-65.81,1.27s-44-.43-65.81-1.27l-5.64-.22-.56,5.62c-.4,4-.72,7.9-1,11.9l-.35,5.51,5.45.82A461.79,461.79,0,0,0,172,150.57a461.79,461.79,0,0,0,67.89-5.06l5.45-.82-.35-5.51c-.26-4-.58-7.9-1-11.9l-.56-5.62Z"/><path class="cls-4" d="M106,127.87c-.37,3.72-.69,7.6-1,11.7q6.24.93,12.49,1.67c.24-4,.51-8.74.77-13C114.16,128.16,110.06,128,106,127.87Z"/><path class="cls-1" d="M172,159.08c-31.5,0-63.44-1.5-94.94-4.45-4.67-.44-8.06-3.6-8.06-7.52,0-4.16,3.84-7.55,8.56-7.55q.36,0,.72,0c31.1,2.3,62.63,3.47,93.72,3.47s62.62-1.17,93.72-3.47q.36,0,.72,0c4.72,0,8.56,3.39,8.56,7.55,0,3.92-3.39,7.08-8.06,7.52C235.44,157.58,203.5,159.08,172,159.08Z"/><path class="cls-2" d="M266.44,142.56c3.07,0,5.56,2.09,5.56,4.55s-2.33,4.25-5.34,4.53q-47.34,4.44-94.66,4.44t-94.66-4.44c-3-.28-5.34-2.16-5.34-4.53s2.49-4.55,5.56-4.55l.5,0q47,3.48,93.94,3.48t93.94-3.48l.5,0m0-6-.95,0c-31,2.31-62.47,3.47-93.49,3.47s-62.47-1.16-93.49-3.47l-1,0c-6.37,0-11.56,4.73-11.56,10.55,0,5.5,4.53,9.92,10.78,10.5,31.59,3,63.63,4.47,95.22,4.47s63.63-1.5,95.22-4.47c6.25-.58,10.78-5,10.78-10.5,0-5.82-5.18-10.55-11.56-10.55Z"/><path class="cls-2" d="M182.5,91.17a2,2,0,0,1-.95-3.76,12.69,12.69,0,0,1,10.9,0,2,2,0,1,1-1.9,3.52,8.7,8.7,0,0,0-7.1,0A1.94,1.94,0,0,1,182.5,91.17Z"/><circle class="cls-2" cx="187" cy="81.42" r="7"/><circle class="cls-5" cx="188.75" cy="81.42" r="1.75"/><path class="cls-2" d="M182,65.41a8.74,8.74,0,0,1,1.72-1.23,11.18,11.18,0,0,1,1.88-.8A10.44,10.44,0,0,1,189.9,63a8.64,8.64,0,0,1,4.2,1.63A7.68,7.68,0,0,1,196.77,68a2,2,0,0,1-1.1,2.68,2,2,0,0,1-1.58,0l-.45-.19a23.5,23.5,0,0,0-2.38-1,9.66,9.66,0,0,0-2.12-.52,14.62,14.62,0,0,0-2.45-.13c-.44,0-.9,0-1.37.06s-1,.09-1.39.06l-.78-.08a2,2,0,0,1-1.77-2.16A1.94,1.94,0,0,1,182,65.41Z"/><path class="cls-2" d="M152.5,91.17a2,2,0,0,1-.95-3.76,12.69,12.69,0,0,1,10.9,0,2,2,0,1,1-1.9,3.52,8.7,8.7,0,0,0-7.1,0A1.94,1.94,0,0,1,152.5,91.17Z"/><circle class="cls-2" cx="157" cy="81.42" r="7"/><circle class="cls-5" cx="158.75" cy="81.42" r="1.75"/><path class="cls-2" d="M160.07,68.93c-.39,0-.93-.05-1.39-.06s-.93-.05-1.37-.06a15.83,15.83,0,0,0-2.45.12,9.68,9.68,0,0,0-2.12.53,23.5,23.5,0,0,0-2.38,1l-.45.19a2,2,0,0,1-2.68-1.09,2.08,2.08,0,0,1,0-1.59,7.63,7.63,0,0,1,2.67-3.38A8.64,8.64,0,0,1,154.1,63a10.44,10.44,0,0,1,4.27.39,11.18,11.18,0,0,1,1.88.8A8.74,8.74,0,0,1,162,65.41a2,2,0,0,1,.16,2.79,2,2,0,0,1-1.27.65Z"/><path class="cls-2" d="M172,115.25a16,16,0,0,1-16-16,2,2,0,0,1,2-2h28a2,2,0,0,1,2,2A16,16,0,0,1,172,115.25Z"/><path class="cls-2" d="M186,99.25h0m0,0a14,14,0,0,1-28,0h28m0-4H158a4,4,0,0,0-4,4,18,18,0,0,0,36,.16v-.16a4,4,0,0,0-4-4Zm0,8h0Z"/><ellipse class="cls-6" cx="172" cy="108.58" rx="10.41" ry="4.67"/><path class="cls-7" d="M207.21,118.89a7.28,7.28,0,0,1-.93-.07,21,21,0,0,1-6.86-2.34l-1.63-.89,4.13-9.11,1-.2a11.23,11.23,0,0,1,1.9-.16c3.49,0,6.19,1.45,7.58,4.07a5.62,5.62,0,0,1-1.15,7.11A5.83,5.83,0,0,1,207.21,118.89Z"/><path class="cls-2" d="M204.83,108.13c1.72,0,4.45.44,5.81,3a3.65,3.65,0,0,1-.75,4.72,3.87,3.87,0,0,1-2.68,1,4.46,4.46,0,0,1-.63,0,19.08,19.08,0,0,1-6.2-2.11l2.93-6.48a8.83,8.83,0,0,1,1.52-.12m0-4h0a13.18,13.18,0,0,0-2.28.19l-2,.39-.85,1.89-2.93,6.48-1.53,3.38,3.26,1.78a23,23,0,0,0,7.5,2.55,7.41,7.41,0,0,0,1.24.1,7.84,7.84,0,0,0,5.42-2.13,7.58,7.58,0,0,0,1.54-9.51c-1.73-3.26-5.13-5.12-9.34-5.12Z"/><path class="cls-8" d="M206.58,116.84a4,4,0,0,0,3.31-1,4.35,4.35,0,0,0,1.08-1.6c-3.41-.22-7-2.76-9.81-3.25l-.78,3.73A19.08,19.08,0,0,0,206.58,116.84Z"/><path class="cls-9" d="M198.75,116.75c-9.86-2-11.93-2.52-18.83-5.46a3,3,0,0,1-1.74-3.44l1.09-4.73a3,3,0,0,1,2.92-2.33,3.4,3.4,0,0,1,.45,0l3,.45c6.37.93,6.61,1,16.84,4l2,.61-4.1,11.19Z"/><path class="cls-2" d="M182.19,102.79h.15c9.4,1.41,8.08,1,19.59,4.42l-2.78,7.57c-9.88-2-11.78-2.5-18.44-5.34a1,1,0,0,1-.58-1.15l1.09-4.73a1,1,0,0,1,1-.78m0-4a5,5,0,0,0-4.87,3.88l-1.09,4.73a5,5,0,0,0,2.91,5.73c7.05,3,9.38,3.54,19.2,5.58l3.38.69,1.19-3.24,2.77-7.57,1.47-4-4.07-1.22c-10.08-3-10.56-3.14-17.13-4.1l-3-.44a4.74,4.74,0,0,0-.75-.06Z"/><path class="cls-10" d="M201,109.74l.92-2.52c-11.51-3.45-10.19-3-19.59-4.42a1,1,0,0,0-1.12.77l-.45,1.92C188.44,106.3,192.34,107.34,201,109.74Z"/><path class="cls-2" d="M184.22,112.89a1.46,1.46,0,0,1-.78-.22,1.5,1.5,0,0,1-.5-2.06l4.9-8a1.5,1.5,0,0,1,2.56,1.56l-4.9,8A1.51,1.51,0,0,1,184.22,112.89Z"/><path class="cls-2" d="M192,114.69a1.5,1.5,0,0,1-1.28-2.28l4.91-8A1.5,1.5,0,0,1,198.2,106l-4.91,8A1.5,1.5,0,0,1,192,114.69Z"/><path class="cls-2" d="M220,112.57a2,2,0,0,1-2-2,6.12,6.12,0,0,1,2.72-4.87c1-.8,1.28-1.12,1.28-1.79s-.31-1-1.28-1.8a5.72,5.72,0,0,1,0-9.74c1-.81,1.28-1.12,1.28-1.8a2,2,0,0,1,4,0,6.08,6.08,0,0,1-2.72,4.87c-1,.81-1.28,1.13-1.28,1.8s.31,1,1.28,1.8a5.72,5.72,0,0,1,0,9.74c-1,.8-1.28,1.12-1.28,1.79A2,2,0,0,1,220,112.57Z"/></svg>