<?xml version="1.0" encoding="utf-8"?>
<!-- Generator: Adobe Illustrator 26.0.1, SVG Export Plug-In . SVG Version: 6.00 Build 0)  -->
<svg version="1.1" id="Google_x5F_Hub-Google_x5F_Ads_x5F_Automated_x5F_Rules"
	 xmlns="http://www.w3.org/2000/svg" xmlns:xlink="http://www.w3.org/1999/xlink" x="0px" y="0px" viewBox="0 0 400 400"
	 style="enable-background:new 0 0 400 400;" xml:space="preserve">
<style type="text/css">
	.st0{fill:none;}
	.st1{fill:#515979;}
	.st2{fill:#FFFFFF;}
	.st3{fill:#2196F3;}
	.st4{fill:#00C853;}
	.st5{fill:#D8EBFB;}
	.st6{fill:#EF7D7D;}
	.st7{fill:#FDE1D9;}
	.st8{fill:#B29D90;}
	.st9{fill:#BAD2E1;}
	.st10{fill:#F89D81;}
	.st11{fill:#FFD886;}
	.st12{fill-rule:evenodd;clip-rule:evenodd;fill:#3E82F1;}
	.st13{fill-rule:evenodd;clip-rule:evenodd;fill:#32A753;}
	.st14{fill-rule:evenodd;clip-rule:evenodd;fill:#F9BB00;}
	.st15{fill-rule:evenodd;clip-rule:evenodd;fill:#E74235;}
</style>
<g>
	<rect class="st0" width="400" height="400"/>
</g>
<g>
	<g>
		<path class="st1" d="M199.55,314.29c-0.02,0-0.04,0-0.05,0c-1.7-0.06-3.43-0.17-5.14-0.32c-0.84-0.08-1.45-0.81-1.38-1.65
			c0.08-0.84,0.81-1.46,1.65-1.38c1.66,0.15,3.33,0.25,4.97,0.31c0.84,0.03,1.5,0.73,1.47,1.57
			C201.04,313.65,200.36,314.29,199.55,314.29z M208.66,314.16c-0.79,0-1.46-0.62-1.51-1.42c-0.05-0.84,0.58-1.56,1.42-1.62
			c1.19-0.08,2.39-0.18,3.56-0.3c0.47-0.05,0.94-0.1,1.4-0.16c0.83-0.1,1.59,0.5,1.69,1.33c0.1,0.83-0.5,1.59-1.33,1.69
			c-0.48,0.06-0.96,0.11-1.45,0.16c-1.22,0.13-2.45,0.23-3.68,0.31C208.72,314.16,208.69,314.16,208.66,314.16z M185.46,312.7
			c-0.1,0-0.19-0.01-0.29-0.03c-1.69-0.33-3.38-0.7-5.04-1.12c-0.81-0.21-1.31-1.03-1.1-1.85s1.03-1.31,1.85-1.1
			c1.6,0.4,3.24,0.77,4.87,1.09c0.82,0.16,1.36,0.96,1.2,1.78C186.81,312.19,186.18,312.7,185.46,312.7z M222.69,312.16
			c-0.7,0-1.33-0.48-1.48-1.19c-0.18-0.82,0.33-1.63,1.15-1.81c1.62-0.36,3.25-0.77,4.83-1.21c0.81-0.22,1.65,0.24,1.88,1.05
			c0.23,0.81-0.25,1.65-1.05,1.88c-1.64,0.46-3.32,0.88-4.99,1.25C222.91,312.15,222.79,312.16,222.69,312.16z M171.79,308.92
			c-0.17,0-0.35-0.03-0.52-0.09c-1.6-0.58-3.22-1.22-4.8-1.89c-0.77-0.33-1.13-1.22-0.8-2s1.22-1.13,2-0.8
			c1.53,0.65,3.09,1.27,4.64,1.83c0.79,0.29,1.2,1.16,0.91,1.95C173,308.53,172.41,308.92,171.79,308.92z M236.24,308.03
			c-0.61,0-1.18-0.37-1.42-0.96c-0.31-0.78,0.08-1.66,0.86-1.97c1.54-0.6,3.08-1.26,4.58-1.95c0.76-0.35,1.67-0.01,2.02,0.75
			s0.02,1.67-0.75,2.02c-1.55,0.71-3.15,1.39-4.74,2.02C236.61,307.99,236.43,308.03,236.24,308.03z M158.88,303.06
			c-0.25,0-0.5-0.06-0.73-0.19c-1.5-0.83-2.99-1.71-4.44-2.61c-0.71-0.45-0.93-1.38-0.48-2.1s1.38-0.93,2.09-0.48
			c1.4,0.88,2.85,1.73,4.3,2.53c0.74,0.41,1,1.33,0.6,2.07C159.94,302.78,159.42,303.06,158.88,303.06z M248.98,301.83
			c-0.52,0-1.03-0.27-1.31-0.75c-0.42-0.72-0.18-1.66,0.54-2.08c1.42-0.83,2.83-1.72,4.22-2.64c0.7-0.46,1.64-0.27,2.11,0.43
			c0.46,0.7,0.27,1.64-0.43,2.11c-1.43,0.95-2.9,1.87-4.36,2.73C249.51,301.76,249.25,301.83,248.98,301.83z M147.03,295.28
			c-0.32,0-0.65-0.1-0.93-0.32c-1.35-1.05-2.69-2.14-3.99-3.26c-0.63-0.55-0.7-1.51-0.15-2.14c0.55-0.64,1.51-0.71,2.14-0.15
			c1.25,1.08,2.55,2.14,3.85,3.16c0.66,0.51,0.79,1.47,0.27,2.13C147.94,295.08,147.49,295.28,147.03,295.28z M260.6,293.73
			c-0.44,0-0.88-0.19-1.18-0.56c-0.53-0.65-0.44-1.61,0.21-2.14c1.27-1.04,2.54-2.14,3.76-3.26c0.62-0.57,1.58-0.53,2.15,0.09
			c0.57,0.62,0.53,1.58-0.09,2.15c-1.27,1.16-2.57,2.29-3.89,3.37C261.28,293.62,260.94,293.73,260.6,293.73z M136.53,285.77
			c-0.4,0-0.81-0.16-1.1-0.48c-1.18-1.25-2.33-2.54-3.43-3.84c-0.54-0.64-0.46-1.6,0.18-2.14c0.64-0.54,1.6-0.46,2.14,0.18
			c1.06,1.26,2.18,2.51,3.32,3.71c0.58,0.61,0.55,1.57-0.06,2.15C137.28,285.63,136.9,285.77,136.53,285.77z M270.83,283.92
			c-0.36,0-0.72-0.13-1.01-0.39c-0.63-0.56-0.68-1.52-0.12-2.15c1.09-1.22,2.18-2.5,3.22-3.8c0.52-0.66,1.48-0.76,2.14-0.24
			c0.66,0.52,0.76,1.48,0.24,2.14c-1.07,1.34-2.19,2.67-3.33,3.93C271.66,283.75,271.25,283.92,270.83,283.92z M127.62,274.75
			c-0.48,0-0.96-0.23-1.25-0.66c-0.97-1.41-1.91-2.86-2.8-4.32c-0.44-0.72-0.21-1.65,0.51-2.09c0.72-0.44,1.65-0.21,2.09,0.51
			c0.86,1.41,1.77,2.81,2.7,4.18c0.48,0.69,0.3,1.64-0.39,2.11C128.22,274.67,127.92,274.75,127.62,274.75z M279.43,272.66
			c-0.28,0-0.57-0.08-0.83-0.25c-0.7-0.46-0.91-1.4-0.45-2.1c0.9-1.38,1.77-2.81,2.59-4.25c0.42-0.73,1.35-0.98,2.07-0.57
			c0.73,0.42,0.98,1.34,0.57,2.07c-0.85,1.49-1.75,2.97-2.68,4.4C280.41,272.42,279.92,272.66,279.43,272.66z M120.53,262.49
			c-0.57,0-1.11-0.32-1.37-0.86c-0.74-1.54-1.44-3.13-2.09-4.71c-0.32-0.78,0.05-1.67,0.83-1.98c0.78-0.32,1.66,0.05,1.98,0.83
			c0.63,1.53,1.31,3.06,2.02,4.55c0.36,0.76,0.04,1.67-0.71,2.03C120.97,262.45,120.75,262.49,120.53,262.49z M286.19,260.2
			c-0.21,0-0.42-0.04-0.62-0.13c-0.77-0.34-1.11-1.24-0.77-2.01c0.68-1.52,1.32-3.07,1.9-4.61c0.3-0.79,1.17-1.18,1.96-0.88
			c0.78,0.3,1.18,1.18,0.88,1.96c-0.61,1.59-1.27,3.2-1.97,4.76C287.33,259.87,286.77,260.2,286.19,260.2z M115.43,249.27
			c-0.66,0-1.26-0.43-1.46-1.09c-0.49-1.64-0.94-3.31-1.33-4.97c-0.19-0.82,0.31-1.64,1.13-1.83c0.81-0.2,1.64,0.31,1.83,1.13
			c0.38,1.61,0.82,3.23,1.29,4.81c0.24,0.8-0.22,1.65-1.02,1.89C115.72,249.25,115.58,249.27,115.43,249.27z M290.94,246.84
			c-0.13,0-0.26-0.02-0.4-0.05c-0.81-0.22-1.29-1.05-1.07-1.86c0.43-1.6,0.82-3.23,1.16-4.85c0.17-0.82,0.98-1.35,1.8-1.17
			c0.82,0.17,1.35,0.98,1.17,1.8c-0.35,1.67-0.75,3.36-1.2,5.02C292.22,246.39,291.61,246.84,290.94,246.84z M112.45,235.42
			c-0.75,0-1.4-0.55-1.5-1.32c-0.13-0.96-0.24-1.92-0.35-2.89c-0.08-0.75-0.15-1.49-0.21-2.23c-0.07-0.84,0.56-1.57,1.39-1.64
			c0.85-0.06,1.57,0.56,1.64,1.39c0.06,0.72,0.12,1.44,0.2,2.16c0.1,0.94,0.21,1.87,0.33,2.8c0.11,0.83-0.47,1.6-1.3,1.71
			C112.59,235.42,112.52,235.42,112.45,235.42z M293.54,232.9c-0.05,0-0.11,0-0.16-0.01c-0.83-0.09-1.44-0.84-1.35-1.67
			c0.17-1.65,0.31-3.32,0.39-4.97c0.04-0.84,0.73-1.47,1.6-1.44c0.84,0.04,1.48,0.76,1.44,1.6c-0.09,1.7-0.22,3.43-0.4,5.13
			C294.97,232.32,294.31,232.9,293.54,232.9z M111.63,221.27c-0.01,0-0.02,0-0.03,0c-0.84-0.02-1.51-0.71-1.49-1.55
			c0.03-1.71,0.11-3.44,0.24-5.14c0.06-0.84,0.79-1.47,1.63-1.4c0.84,0.06,1.47,0.79,1.4,1.63c-0.12,1.65-0.2,3.32-0.23,4.98
			C113.14,220.61,112.46,221.27,111.63,221.27z M293.94,218.74c-0.81,0-1.48-0.63-1.52-1.45c-0.08-1.64-0.21-3.32-0.38-4.97
			c-0.01-0.11-0.01-0.23,0-0.34c-0.04-0.1-0.06-0.21-0.07-0.32c-0.18-1.65-0.42-3.31-0.69-4.94c-0.14-0.83,0.42-1.61,1.25-1.75
			c0.82-0.14,1.61,0.42,1.75,1.25c0.28,1.68,0.52,3.4,0.71,5.1c0.01,0.12,0.01,0.24,0,0.35c0.04,0.11,0.06,0.22,0.07,0.33
			c0.18,1.71,0.31,3.44,0.39,5.14c0.04,0.84-0.61,1.55-1.44,1.59C293.99,218.74,293.96,218.74,293.94,218.74z M113.01,207.17
			c-0.09,0-0.18-0.01-0.27-0.02c-0.83-0.15-1.38-0.94-1.23-1.76c0.3-1.68,0.65-3.38,1.04-5.05c0.19-0.82,1.02-1.32,1.83-1.13
			c0.82,0.19,1.32,1.01,1.13,1.83c-0.38,1.61-0.72,3.26-1.01,4.89C114.37,206.65,113.73,207.17,113.01,207.17z M290.83,199.09
			c-0.67,0-1.28-0.44-1.47-1.12c-0.44-1.6-0.92-3.21-1.44-4.77c-0.27-0.8,0.17-1.66,0.96-1.92c0.79-0.26,1.66,0.17,1.92,0.96
			c0.54,1.61,1.04,3.27,1.49,4.93c0.22,0.81-0.26,1.65-1.07,1.87C291.1,199.07,290.96,199.09,290.83,199.09z M286.06,185.75
			c-0.58,0-1.13-0.33-1.39-0.9c-0.67-1.5-1.4-3-2.16-4.48c-0.39-0.75-0.09-1.66,0.65-2.05c0.74-0.39,1.66-0.09,2.05,0.65
			c0.79,1.52,1.54,3.08,2.23,4.63c0.34,0.77,0,1.67-0.76,2.01C286.48,185.71,286.27,185.75,286.06,185.75z M279.27,173.33
			c-0.5,0-0.98-0.24-1.27-0.69c-0.91-1.39-1.86-2.77-2.83-4.09c-0.5-0.68-0.35-1.63,0.32-2.13c0.67-0.5,1.63-0.35,2.12,0.32
			c1.01,1.37,1.99,2.79,2.93,4.23c0.46,0.7,0.26,1.65-0.44,2.1C279.84,173.25,279.56,173.33,279.27,173.33z M270.63,162.1
			c-0.42,0-0.83-0.17-1.13-0.5c-1.1-1.23-2.26-2.44-3.44-3.6c-0.6-0.59-0.6-1.55-0.01-2.15c0.59-0.6,1.55-0.6,2.15-0.01
			c1.21,1.21,2.41,2.46,3.55,3.73c0.56,0.62,0.51,1.58-0.11,2.15C271.36,161.98,270.99,162.1,270.63,162.1z M139.16,157.82
			c-0.4,0-0.79-0.15-1.09-0.46c-0.59-0.6-0.57-1.56,0.03-2.15c1.22-1.19,2.49-2.37,3.78-3.49c0.63-0.55,1.59-0.49,2.15,0.14
			s0.49,1.59-0.14,2.15c-1.25,1.09-2.48,2.23-3.66,3.38C139.93,157.67,139.55,157.82,139.16,157.82z M260.36,152.35
			c-0.34,0-0.68-0.11-0.96-0.34c-1.29-1.04-2.62-2.07-3.95-3.03c-0.68-0.49-0.83-1.44-0.34-2.12c0.49-0.68,1.44-0.83,2.12-0.34
			c1.38,1,2.76,2.06,4.09,3.14c0.65,0.53,0.75,1.49,0.22,2.14C261.24,152.15,260.8,152.35,260.36,152.35z M150.04,148.73
			c-0.48,0-0.94-0.22-1.24-0.64c-0.49-0.68-0.33-1.63,0.36-2.12c1.39-0.99,2.83-1.96,4.27-2.86c0.71-0.45,1.65-0.23,2.1,0.48
			c0.45,0.71,0.23,1.65-0.48,2.1c-1.39,0.88-2.78,1.81-4.13,2.77C150.65,148.64,150.34,148.73,150.04,148.73z M248.7,144.28
			c-0.26,0-0.52-0.07-0.76-0.21c-1.43-0.83-2.9-1.64-4.37-2.39c-0.75-0.38-1.04-1.3-0.66-2.05c0.38-0.75,1.3-1.04,2.04-0.66
			c1.52,0.78,3.04,1.61,4.52,2.47c0.73,0.42,0.97,1.35,0.55,2.08C249.73,144.01,249.22,144.28,248.7,144.28z M162.19,141.45
			c-0.56,0-1.1-0.31-1.36-0.84c-0.37-0.75-0.07-1.66,0.68-2.04c1.53-0.76,3.11-1.49,4.67-2.17c0.77-0.33,1.67,0.03,2,0.8
			s-0.03,1.67-0.8,2c-1.52,0.65-3.04,1.35-4.52,2.09C162.65,141.4,162.42,141.45,162.19,141.45z M235.94,138.12
			c-0.18,0-0.37-0.03-0.55-0.1c-1.54-0.6-3.12-1.17-4.69-1.68c-0.8-0.26-1.23-1.12-0.97-1.92c0.26-0.8,1.12-1.23,1.92-0.97
			c1.63,0.53,3.26,1.12,4.85,1.74c0.78,0.31,1.17,1.19,0.86,1.97C237.12,137.75,236.54,138.12,235.94,138.12z M175.33,136.15
			c-0.65,0-1.25-0.42-1.45-1.06c-0.25-0.8,0.19-1.65,0.99-1.91c1.63-0.51,3.3-0.99,4.95-1.41c0.81-0.21,1.64,0.28,1.85,1.1
			s-0.28,1.64-1.1,1.85c-1.6,0.41-3.21,0.87-4.79,1.36C175.63,136.13,175.48,136.15,175.33,136.15z M222.37,134.01
			c-0.11,0-0.22-0.01-0.33-0.04c-1.62-0.35-3.26-0.67-4.89-0.93c-0.83-0.13-1.39-0.91-1.26-1.74c0.13-0.83,0.91-1.39,1.74-1.26
			c1.69,0.27,3.39,0.59,5.06,0.96c0.82,0.18,1.34,0.99,1.16,1.81C223.69,133.53,223.06,134.01,222.37,134.01z M189.13,132.95
			c-0.74,0-1.39-0.54-1.5-1.29c-0.13-0.83,0.45-1.6,1.28-1.73c1.43-0.22,2.88-0.4,4.33-0.55l0.78-0.08
			c0.83-0.08,1.58,0.53,1.66,1.37s-0.53,1.58-1.37,1.66l-0.76,0.08c-1.4,0.15-2.81,0.33-4.19,0.53
			C189.28,132.95,189.2,132.95,189.13,132.95z M208.33,132.07c-0.03,0-0.06,0-0.09,0c-1.65-0.1-3.32-0.15-4.98-0.16
			c-0.84,0-1.52-0.69-1.52-1.53c0-0.84,0.68-1.51,1.52-1.51c0,0,0,0,0,0c1.71,0.01,3.44,0.06,5.15,0.16
			c0.84,0.05,1.48,0.77,1.43,1.61C209.8,131.45,209.13,132.07,208.33,132.07z"/>
	</g>
</g>
<g>
	<g>
		<g>
			<path class="st2" d="M115,390c-3.31,0-6-2.69-6-6V270c0-3.31,2.69-6,6-6h114c3.31,0,6,2.69,6,6v97c0,0.8-0.32,1.56-0.88,2.12
				l-20,20c-0.56,0.56-1.33,0.88-2.12,0.88H115z"/>
		</g>
		<g>
			<path class="st1" d="M229,267c1.66,0,3,1.34,3,3v97l-20,20h-97c-1.66,0-3-1.34-3-3V270c0-1.66,1.34-3,3-3H229 M229,261H115
				c-4.96,0-9,4.04-9,9v114c0,4.96,4.04,9,9,9h97c1.59,0,3.12-0.63,4.24-1.76l20-20c1.13-1.13,1.76-2.65,1.76-4.24v-97
				C238,265.04,233.96,261,229,261L229,261z"/>
		</g>
	</g>
	<g>
		<path class="st3" d="M198.5,332h-69c-1.38,0-2.5-1.12-2.5-2.5l0,0c0-1.38,1.12-2.5,2.5-2.5h69c1.38,0,2.5,1.12,2.5,2.5l0,0
			C201,330.88,199.88,332,198.5,332z"/>
	</g>
	<g>
		<path class="st1" d="M184.5,352h-55c-1.38,0-2.5-1.12-2.5-2.5l0,0c0-1.38,1.12-2.5,2.5-2.5h55c1.38,0,2.5,1.12,2.5,2.5l0,0
			C187,350.88,185.88,352,184.5,352z"/>
	</g>
	<g>
		<path class="st1" d="M194.5,362h-65c-1.38,0-2.5-1.12-2.5-2.5l0,0c0-1.38,1.12-2.5,2.5-2.5h65c1.38,0,2.5,1.12,2.5,2.5l0,0
			C197,360.88,195.88,362,194.5,362z"/>
	</g>
	<g>
		<path class="st1" d="M174.5,372h-45c-1.38,0-2.5-1.12-2.5-2.5l0,0c0-1.38,1.12-2.5,2.5-2.5h45c1.38,0,2.5,1.12,2.5,2.5l0,0
			C177,370.88,175.88,372,174.5,372z"/>
	</g>
	<g>
		<path class="st4" d="M192.5,342h-63c-1.38,0-2.5-1.12-2.5-2.5l0,0c0-1.38,1.12-2.5,2.5-2.5h63c1.38,0,2.5,1.12,2.5,2.5l0,0
			C195,340.88,193.88,342,192.5,342z"/>
	</g>
	<g>
		<g>
			<path class="st5" d="M212,390c-0.39,0-0.78-0.07-1.15-0.23c-1.12-0.46-1.85-1.56-1.85-2.77v-17c0-3.31,2.69-6,6-6h17
				c1.21,0,2.31,0.73,2.77,1.85s0.21,2.41-0.65,3.27l-20,20C213.55,389.7,212.78,390,212,390z"/>
		</g>
		<g>
			<g>
				<path class="st1" d="M232,367l-20,20v-17c0-1.66,1.34-3,3-3H232 M232,361h-17c-4.96,0-9,4.04-9,9v17c0,2.43,1.46,4.61,3.7,5.54
					c0.74,0.31,1.52,0.46,2.29,0.46c1.56,0,3.1-0.61,4.24-1.76l20-20c1.72-1.72,2.23-4.3,1.3-6.54C236.61,362.46,234.43,361,232,361
					L232,361z M232,373L232,373L232,373L232,373z"/>
			</g>
		</g>
	</g>
	<g>
		<g>
			<g>
				<g>
					<path class="st1" d="M187.53,296.59c-1.1,0-2-0.9-2-2c0-1.65-1.35-3-3-3s-3,1.35-3,3c0,1.1-0.9,2-2,2s-2-0.9-2-2
						c0-3.86,3.14-7,7-7s7,3.14,7,7C189.53,295.69,188.63,296.59,187.53,296.59z"/>
				</g>
			</g>
			<g>
				<path class="st1" d="M180.09,278.65c0.97-0.61,1.86-0.91,2.88-1.12c0.99-0.21,2.03-0.24,3.08-0.12c1.04,0.11,2.1,0.44,3.07,0.95
					c0.97,0.5,1.83,1.28,2.42,2.19c0.52,0.8,0.29,1.86-0.51,2.38c-0.38,0.24-0.81,0.32-1.22,0.25l-0.4-0.07
					c-0.78-0.13-1.39-0.32-2.04-0.43c-0.65-0.1-1.27-0.25-1.96-0.33l-2.11-0.25c-0.72-0.08-1.55-0.12-2.25-0.28l-0.42-0.09
					c-0.92-0.2-1.5-1.11-1.29-2.02C179.44,279.26,179.72,278.88,180.09,278.65z"/>
			</g>
		</g>
		<g>
			<g>
				<g>
					<path class="st1" d="M166.47,296.59c-1.1,0-2-0.9-2-2c0-1.65-1.35-3-3-3s-3,1.35-3,3c0,1.1-0.9,2-2,2s-2-0.9-2-2
						c0-3.86,3.14-7,7-7s7,3.14,7,7C168.47,295.69,167.58,296.59,166.47,296.59z"/>
				</g>
			</g>
			<g>
				<path class="st1" d="M162.94,281.84c-0.7,0.15-1.53,0.2-2.25,0.28l-2.11,0.25c-0.68,0.08-1.3,0.22-1.96,0.33
					c-0.65,0.11-1.26,0.3-2.04,0.43l-0.39,0.07c-0.94,0.16-1.83-0.47-1.98-1.41c-0.07-0.44,0.03-0.87,0.25-1.22
					c0.59-0.92,1.45-1.69,2.42-2.19c0.96-0.52,2.02-0.84,3.07-0.95c1.04-0.12,2.08-0.08,3.08,0.12c1.01,0.21,1.9,0.51,2.88,1.12
					c0.79,0.5,1.03,1.55,0.54,2.34c-0.25,0.4-0.64,0.66-1.07,0.76L162.94,281.84z"/>
			</g>
		</g>
		<g>
			<path class="st1" d="M184,300l-24,0c-1.06,0-2.08,0.42-2.83,1.17c-0.75,0.75-1.17,1.77-1.17,2.83c0,8.82,7.18,16,16,16
				s16-7.18,16-16C188,301.79,186.21,300,184,300z"/>
			<g>
				<g>
					<ellipse class="st6" cx="172" cy="312" rx="8.93" ry="4"/>
				</g>
			</g>
		</g>
	</g>
	<g>
		<g>
			<circle class="st7" cx="198" cy="306" r="2"/>
		</g>
		<g>
			<circle class="st7" cx="206" cy="306" r="2"/>
		</g>
		<g>
			<circle class="st7" cx="202" cy="298" r="2"/>
		</g>
	</g>
	<g>
		<g>
			<circle class="st7" cx="138" cy="306" r="2"/>
		</g>
		<g>
			<circle class="st7" cx="146" cy="306" r="2"/>
		</g>
		<g>
			<circle class="st7" cx="142" cy="298" r="2"/>
		</g>
	</g>
</g>
<g>
	<g>
		<path class="st8" d="M227,250c-8.27,0-15-6.73-15-15V55c0-8.27,6.73-15,15-15h150c8.27,0,15,6.73,15,15v180c0,8.27-6.73,15-15,15
			H227z"/>
	</g>
	<g>
		<path class="st1" d="M377,43c6.63,0,12,5.37,12,12v180c0,6.63-5.37,12-12,12H227c-6.63,0-12-5.37-12-12V55c0-6.63,5.37-12,12-12
			H377 M377,37H227c-9.93,0-18,8.07-18,18v180c0,9.93,8.07,18,18,18h150c9.93,0,18-8.07,18-18V55C395,45.07,386.93,37,377,37L377,37
			z"/>
	</g>
</g>
<g>
	<g>
		<path class="st2" d="M231,238c-3.86,0-7-3.14-7-7V59c0-3.86,3.14-7,7-7h142c3.86,0,7,3.14,7,7v152c0,0.8-0.32,1.56-0.88,2.12
			l-24,24c-0.56,0.56-1.33,0.88-2.12,0.88H231z"/>
	</g>
	<g>
		<path class="st1" d="M373,55c2.21,0,4,1.79,4,4v152l-24,24H231c-2.21,0-4-1.79-4-4V59c0-2.21,1.79-4,4-4H373 M373,49H231
			c-5.51,0-10,4.49-10,10v172c0,5.51,4.49,10,10,10h122c1.59,0,3.12-0.63,4.24-1.76l24-24c1.13-1.13,1.76-2.65,1.76-4.24V59
			C383,53.49,378.51,49,373,49L373,49z"/>
	</g>
</g>
<g>
	<g>
		<path class="st5" d="M353,238c-0.39,0-0.78-0.07-1.15-0.23c-1.12-0.46-1.85-1.56-1.85-2.77v-19.2c0-4.3,3.5-7.8,7.8-7.8H377
			c1.21,0,2.31,0.73,2.77,1.85c0.46,1.12,0.21,2.41-0.65,3.27l-24,24C354.55,237.7,353.78,238,353,238z"/>
	</g>
	<g>
		<path class="st1" d="M377,211l-24,24v-19.2c0-2.65,2.15-4.8,4.8-4.8H377 M377,205h-19.2c-5.96,0-10.8,4.84-10.8,10.8V235
			c0,2.43,1.46,4.61,3.7,5.54c0.74,0.31,1.52,0.46,2.29,0.46c1.56,0,3.1-0.61,4.24-1.76l24-24c1.72-1.72,2.23-4.3,1.3-6.54
			C381.61,206.46,379.43,205,377,205L377,205z M377,217L377,217L377,217L377,217z"/>
	</g>
</g>
<g>
	<path class="st1" d="M342,109h-56c-1.66,0-3-1.34-3-3l0,0c0-1.66,1.34-3,3-3h56c1.66,0,3,1.34,3,3l0,0
		C345,107.66,343.66,109,342,109z"/>
</g>
<g>
	<path class="st1" d="M354,97h-68c-1.66,0-3-1.34-3-3l0,0c0-1.66,1.34-3,3-3h68c1.66,0,3,1.34,3,3l0,0C357,95.66,355.66,97,354,97z"
		/>
</g>
<g>
	<path class="st1" d="M312,145h-26c-1.66,0-3-1.34-3-3l0,0c0-1.66,1.34-3,3-3h26c1.66,0,3,1.34,3,3l0,0
		C315,143.66,313.66,145,312,145z"/>
</g>
<g>
	<path class="st1" d="M354,133h-68c-1.66,0-3-1.34-3-3l0,0c0-1.66,1.34-3,3-3h68c1.66,0,3,1.34,3,3l0,0
		C357,131.66,355.66,133,354,133z"/>
</g>
<g>
	<g>
		<g>
			<path class="st9" d="M252,64c-1.66,0-3-1.34-3-3V45c0-6.07,4.93-11,11-11h25.28c-1.48-2.74-2.28-5.83-2.28-9
				c0-10.48,8.52-19,19-19c0.72,0,1.45,0.04,2.17,0.12c8.56,0.95,15.57,7.84,16.67,16.39c0.52,4.02-0.26,8.03-2.12,11.49H344
				c6.07,0,11,4.93,11,11v16c0,1.66-1.34,3-3,3H252z M302,20c-0.33,0-0.67,0.03-1.01,0.1c-1.93,0.37-3.53,1.97-3.9,3.9
				c-0.29,1.53,0.08,3.02,1.05,4.19C299.1,29.34,300.51,30,302,30c0.33,0,0.67-0.03,1.01-0.1c1.93-0.37,3.53-1.97,3.9-3.9
				c0.29-1.53-0.08-3.02-1.05-4.19C304.9,20.66,303.49,20,302,20z"/>
		</g>
	</g>
	<g>
		<g>
			<path class="st1" d="M302,9c0.6,0,1.22,0.03,1.84,0.1c7.23,0.8,13.1,6.57,14.03,13.79c0.72,5.63-1.49,10.75-5.31,14.11H344
				c4.42,0,8,3.58,8,8v16H252V45c0-4.42,3.58-8,8-8h31.44c-3.33-2.93-5.44-7.21-5.44-12C286,16.16,293.16,9,302,9 M302,33
				c0.51,0,1.04-0.05,1.57-0.15c3.15-0.6,5.69-3.14,6.29-6.29c0.97-5.11-2.92-9.57-7.85-9.57c-0.51,0-1.04,0.05-1.57,0.15
				c-3.15,0.6-5.69,3.14-6.29,6.29C293.18,28.54,297.07,33,302,33 M302,3C302,3,302,3,302,3c-5.88,0-11.4,2.29-15.56,6.44
				C282.29,13.6,280,19.12,280,25c0,2.05,0.29,4.07,0.84,6H260c-7.72,0-14,6.28-14,14v16c0,3.31,2.69,6,6,6h100c3.31,0,6-2.69,6-6
				V45c0-7.72-6.28-14-14-14h-20.85c0.81-2.84,1.05-5.85,0.66-8.87c-1.27-9.9-9.39-17.88-19.32-18.99C303.67,3.05,302.83,3,302,3
				L302,3z M302,27c-0.82,0-1.32-0.46-1.54-0.73c-0.27-0.33-0.57-0.9-0.41-1.72c0.14-0.72,0.79-1.37,1.51-1.51
				c0.15-0.03,0.3-0.04,0.45-0.04c0.82,0,1.32,0.46,1.54,0.73c0.27,0.33,0.57,0.9,0.41,1.72c-0.14,0.72-0.79,1.37-1.51,1.51
				C302.3,26.99,302.14,27,302,27L302,27z"/>
		</g>
	</g>
</g>
<g>
	<line class="st9" x1="267" y1="49" x2="337" y2="49"/>
	<path class="st1" d="M337,52h-70c-1.66,0-3-1.34-3-3s1.34-3,3-3h70c1.66,0,3,1.34,3,3S338.66,52,337,52z"/>
</g>
<g>
	<g>
		<path class="st2" d="M253,112c-1.66,0-3-1.34-3-3V91c0-1.66,1.34-3,3-3h18c1.66,0,3,1.34,3,3v18c0,1.66-1.34,3-3,3H253z"/>
	</g>
	<g>
		<path class="st1" d="M271,91v18h-18V91H271 M271,85h-18c-3.31,0-6,2.69-6,6v18c0,3.31,2.69,6,6,6h18c3.31,0,6-2.69,6-6V91
			C277,87.69,274.31,85,271,85L271,85z"/>
	</g>
</g>
<g>
	<g>
		<path class="st2" d="M253,148c-1.66,0-3-1.34-3-3v-18c0-1.66,1.34-3,3-3h18c1.66,0,3,1.34,3,3v18c0,1.66-1.34,3-3,3H253z"/>
	</g>
	<g>
		<path class="st1" d="M271,127v18h-18v-18H271 M271,121h-18c-3.31,0-6,2.69-6,6v18c0,3.31,2.69,6,6,6h18c3.31,0,6-2.69,6-6v-18
			C277,123.69,274.31,121,271,121L271,121z"/>
	</g>
</g>
<g>
	<path class="st10" d="M263.45,106L263.45,106c-0.85,0-1.65-0.36-2.22-0.98l-5.45-6c-1.11-1.23-1.02-3.12,0.2-4.24
		s3.12-1.02,4.24,0.2l3.23,3.56l12.33-13.56c1.11-1.23,3.01-1.32,4.24-0.2c1.23,1.11,1.32,3.01,0.2,4.24l-14.55,16
		C265.11,105.64,264.3,106,263.45,106z"/>
</g>
<g>
	<path class="st10" d="M263.45,142L263.45,142c-0.85,0-1.65-0.36-2.22-0.98l-5.45-6c-1.11-1.23-1.02-3.12,0.2-4.24
		c1.23-1.12,3.12-1.02,4.24,0.2l3.23,3.56l12.33-13.56c1.11-1.23,3.01-1.32,4.24-0.2c1.23,1.11,1.32,3.01,0.2,4.24l-14.55,16
		C265.11,141.64,264.3,142,263.45,142z"/>
</g>
<g>
	<path class="st1" d="M332,181h-46c-1.66,0-3-1.34-3-3l0,0c0-1.66,1.34-3,3-3h46c1.66,0,3,1.34,3,3l0,0
		C335,179.66,333.66,181,332,181z"/>
</g>
<g>
	<path class="st1" d="M354,169h-68c-1.66,0-3-1.34-3-3l0,0c0-1.66,1.34-3,3-3h68c1.66,0,3,1.34,3,3l0,0
		C357,167.66,355.66,169,354,169z"/>
</g>
<g>
	<path class="st1" d="M296,217h-46c-1.66,0-3-1.34-3-3l0,0c0-1.66,1.34-3,3-3h46c1.66,0,3,1.34,3,3l0,0
		C299,215.66,297.66,217,296,217z"/>
</g>
<g>
	<path class="st1" d="M318,205h-68c-1.66,0-3-1.34-3-3l0,0c0-1.66,1.34-3,3-3h68c1.66,0,3,1.34,3,3l0,0
		C321,203.66,319.66,205,318,205z"/>
</g>
<g>
	<g>
		<path class="st2" d="M253,184c-1.66,0-3-1.34-3-3v-18c0-1.66,1.34-3,3-3h18c1.66,0,3,1.34,3,3v18c0,1.66-1.34,3-3,3H253z"/>
	</g>
	<g>
		<path class="st1" d="M271,163v18h-18v-18H271 M271,157h-18c-3.31,0-6,2.69-6,6v18c0,3.31,2.69,6,6,6h18c3.31,0,6-2.69,6-6v-18
			C277,159.69,274.31,157,271,157L271,157z"/>
	</g>
</g>
<g>
	<path class="st10" d="M263.45,178L263.45,178c-0.85,0-1.65-0.36-2.22-0.98l-5.45-6c-1.11-1.23-1.02-3.12,0.2-4.24
		c1.23-1.11,3.12-1.02,4.24,0.2l3.23,3.56l12.33-13.56c1.11-1.23,3.01-1.32,4.24-0.2c1.23,1.11,1.32,3.01,0.2,4.24l-14.55,16
		C265.11,177.64,264.3,178,263.45,178z"/>
</g>
<g>
	<g>
		<path class="st11" d="M160.07,85.53c2.65,0,4.8-2.15,4.8-4.8c0-0.88,0.72-1.6,1.6-1.6c0.88,0,1.6,0.72,1.6,1.6
			c0,2.65,2.15,4.8,4.8,4.8c0.88,0,1.6,0.72,1.6,1.6c0,0.88-0.72,1.6-1.6,1.6c-2.65,0-4.8,2.15-4.8,4.8c0,0.88-0.72,1.6-1.6,1.6
			c-0.88,0-1.6-0.72-1.6-1.6c0-2.65-2.15-4.8-4.8-4.8c-0.88,0-1.6-0.72-1.6-1.6C158.47,86.25,159.19,85.53,160.07,85.53z"/>
	</g>
</g>
<g>
	<g>
		<circle class="st11" cx="156.47" cy="49" r="4"/>
	</g>
</g>
<g>
	<g>
		<path class="st11" d="M38.17,270.29c2.65,0,4.8-2.15,4.8-4.8c0-0.88,0.72-1.6,1.6-1.6c0.88,0,1.6,0.72,1.6,1.6
			c0,2.65,2.15,4.8,4.8,4.8c0.88,0,1.6,0.72,1.6,1.6s-0.72,1.6-1.6,1.6c-2.65,0-4.8,2.15-4.8,4.8c0,0.88-0.72,1.6-1.6,1.6
			c-0.88,0-1.6-0.72-1.6-1.6c0-2.65-2.15-4.8-4.8-4.8c-0.88,0-1.6-0.72-1.6-1.6S37.29,270.29,38.17,270.29z"/>
	</g>
</g>
<g>
	<g>
		<circle class="st11" cx="67.66" cy="302.47" r="3"/>
	</g>
</g>
<g>
	<g>
		<circle class="st11" cx="74.73" cy="252.47" r="4"/>
	</g>
</g>
<g>
	<g>
		<path class="st11" d="M321.6,327.9c2.65,0,4.8-2.15,4.8-4.8c0-0.88,0.72-1.6,1.6-1.6s1.6,0.72,1.6,1.6c0,2.65,2.15,4.8,4.8,4.8
			c0.88,0,1.6,0.72,1.6,1.6s-0.72,1.6-1.6,1.6c-2.65,0-4.8,2.15-4.8,4.8c0,0.88-0.72,1.6-1.6,1.6s-1.6-0.72-1.6-1.6
			c0-2.65-2.15-4.8-4.8-4.8c-0.88,0-1.6-0.72-1.6-1.6S320.72,327.9,321.6,327.9z"/>
	</g>
</g>
<g>
	<g>
		<circle class="st11" cx="299" cy="306.47" r="4"/>
	</g>
</g>
<g>
	<g>
		<path class="st12" d="M157,155.62c0-5.06-0.45-9.94-1.3-14.61H88.43v27.63h38.44c-1.66,8.93-6.69,16.49-14.25,21.56v17.92h23.08
			C149.21,195.69,157,177.38,157,155.62L157,155.62L157,155.62z M157,155.62"/>
	</g>
	<g>
		<path class="st13" d="M88.43,225.43c19.29,0,35.45-6.4,47.27-17.31l-23.08-17.92c-6.4,4.29-14.58,6.82-24.19,6.82
			c-18.6,0-34.35-12.57-39.97-29.45H24.6v18.51C36.35,209.42,60.51,225.43,88.43,225.43L88.43,225.43L88.43,225.43z M88.43,225.43"
			/>
	</g>
	<g>
		<path class="st14" d="M48.46,167.57c-1.43-4.29-2.24-8.86-2.24-13.57c0-4.71,0.81-9.29,2.24-13.57v-18.51H24.6
			C19.76,131.57,17,142.47,17,154s2.76,22.44,7.6,32.08L48.46,167.57L48.46,167.57L48.46,167.57z M48.46,167.57"/>
	</g>
	<g>
		<path class="st15" d="M88.43,110.98c10.49,0,19.9,3.6,27.31,10.68l20.49-20.49c-12.37-11.53-28.54-18.6-47.79-18.6
			c-27.92,0-52.08,16.01-63.83,39.35l23.86,18.51C54.08,123.55,69.82,110.98,88.43,110.98L88.43,110.98L88.43,110.98z M88.43,110.98
			"/>
	</g>
</g>
<path class="st11" d="M355.09,280.75h-6.91v-5.82c0-1.75-1.42-3.18-3.18-3.18s-3.18,1.42-3.18,3.18v5.82h-6.91
	c-1.75,0-3.18,1.42-3.18,3.18s1.42,3.18,3.18,3.18h6.91v5.82c0,1.75,1.42,3.18,3.18,3.18s3.18-1.42,3.18-3.18v-5.82h6.91
	c1.75,0,3.18-1.42,3.18-3.18S356.84,280.75,355.09,280.75z"/>
</svg>
