<?xml version="1.0" encoding="utf-8"?>
<!-- Generator: Adobe Illustrator 25.4.1, SVG Export Plug-In . SVG Version: 6.00 Build 0)  -->
<svg version="1.1" id="SEO_x5F_Hub-Keyword_x5F_Difficulty"
	 xmlns="http://www.w3.org/2000/svg" xmlns:xlink="http://www.w3.org/1999/xlink" x="0px" y="0px" viewBox="0 0 400 400"
	 style="enable-background:new 0 0 400 400;" xml:space="preserve">
<style type="text/css">
	.st0{fill:#FBB040;}
	.st1{fill:#515979;}
	.st2{fill:#FFD886;}
	.st3{fill:#FFFFFF;}
	.st4{fill:none;}
	.st5{fill:#747A94;}
	.st6{fill:#979BAF;}
	.st7{fill:#D8EBFB;}
	.st8{fill:#97E5AB;}
	.st9{fill:#63C3A3;}
	.st10{fill:#EF7D7D;}
	.st11{fill:#F9B19A;}
	.st12{fill:#75A5C3;}
	.st13{fill:#ACC9DB;}
	.st14{fill:#2DA0D2;}
	.st15{fill:#6ADAF7;}
</style>
<g>
	<g>
		<g>
			<path class="st0" d="M18,149.7c-4.96,0-9-4.04-9-9v-58c0-4.96,4.04-9,9-9h148c4.96,0,9,4.04,9,9v58c0,4.96-4.04,9-9,9H18z"/>
		</g>
		<g>
			<g>
				<path class="st1" d="M166,76.7c3.31,0,6,2.69,6,6v58c0,3.31-2.69,6-6,6H18c-3.31,0-6-2.69-6-6v-58c0-3.31,2.69-6,6-6H166
					 M166,70.7H18c-6.62,0-12,5.38-12,12v58c0,6.62,5.38,12,12,12h148c6.62,0,12-5.38,12-12v-58C178,76.08,172.62,70.7,166,70.7
					L166,70.7z"/>
			</g>
		</g>
	</g>
	<g>
		<g>
			<path class="st2" d="M36,149.7c-4.96,0-9-4.04-9-9v-58c0-4.96,4.04-9,9-9h148c4.96,0,9,4.04,9,9v58c0,4.96-4.04,9-9,9H36z"/>
		</g>
		<g>
			<g>
				<path class="st1" d="M184,76.7c3.31,0,6,2.69,6,6v58c0,3.31-2.69,6-6,6H36c-3.31,0-6-2.69-6-6v-58c0-3.31,2.69-6,6-6H184
					 M184,70.7H36c-6.62,0-12,5.38-12,12v58c0,6.62,5.38,12,12,12h148c6.62,0,12-5.38,12-12v-58C196,76.08,190.62,70.7,184,70.7
					L184,70.7z"/>
			</g>
		</g>
	</g>
	<g>
		<g>
			<g>
				<path class="st1" d="M129.5,96.3c-0.32,0-0.64-0.08-0.94-0.24c-1.89-1.02-5.22-1.02-7.11,0c-0.97,0.52-2.19,0.15-2.71-0.82
					c-0.52-0.97-0.16-2.19,0.82-2.71c3.05-1.64,7.84-1.64,10.89,0c0.97,0.52,1.34,1.73,0.82,2.71
					C130.9,95.91,130.21,96.3,129.5,96.3z"/>
			</g>
			<g>
				<g>
					<circle class="st1" cx="125" cy="86.55" r="7"/>
				</g>
				<g>
					<circle class="st3" cx="126.75" cy="86.55" r="1.75"/>
				</g>
			</g>
			<g>
				<g>
					<path class="st1" d="M96,108.64c-0.71,0-1.39-0.38-1.75-1.04c-0.53-0.97-0.18-2.18,0.79-2.72c9.29-5.1,21.04-5.11,29.95-0.03
						c0.96,0.55,1.29,1.77,0.75,2.73c-0.55,0.96-1.77,1.29-2.73,0.75c-7.61-4.34-18.08-4.32-26.05,0.06
						C96.66,108.56,96.33,108.64,96,108.64z"/>
				</g>
				<g>
					<path class="st1" d="M105.82,109.08c0.67,0.21,1.37,0.37,2.07,0.45c0.7,0.1,1.41,0.16,2.11,0.18c0.71-0.02,1.41-0.07,2.11-0.17
						c0.7-0.08,1.39-0.24,2.05-0.46c0.71-0.23,1.48,0.15,1.71,0.86c0.17,0.51,0.01,1.05-0.35,1.4l-0.69,0.66
						c-0.69,0.66-1.48,1.05-2.3,1.31c-0.82,0.28-1.68,0.37-2.53,0.39c-0.85-0.02-1.71-0.12-2.53-0.4c-0.82-0.26-1.61-0.65-2.29-1.3
						l-0.69-0.65c-0.55-0.51-0.57-1.37-0.06-1.91C104.79,109.05,105.34,108.93,105.82,109.08z"/>
				</g>
			</g>
			<g>
				<path class="st1" d="M120.03,63.53c0.61-0.55,1.11-0.88,1.72-1.22c0.6-0.32,1.22-0.59,1.88-0.8c1.32-0.41,2.78-0.57,4.26-0.39
					c1.48,0.15,2.99,0.73,4.21,1.63c1.26,0.87,2.13,2.1,2.67,3.38c0.44,1.04-0.05,2.24-1.1,2.68c-0.53,0.22-1.09,0.2-1.58,0
					l-0.45-0.19c-0.94-0.4-1.64-0.83-2.38-1.03c-0.71-0.25-1.37-0.43-2.13-0.52c-0.74-0.1-1.56-0.14-2.44-0.12
					c-0.44,0.01-0.91,0.02-1.37,0.06c-0.46,0.01-1,0.09-1.39,0.05l-0.78-0.08c-1.09-0.11-1.88-1.08-1.77-2.16
					C119.43,64.3,119.67,63.85,120.03,63.53z"/>
			</g>
			<g>
				<path class="st1" d="M99.5,96.3c-0.32,0-0.64-0.08-0.94-0.24c-1.89-1.02-5.22-1.02-7.11,0c-0.97,0.52-2.19,0.15-2.71-0.82
					c-0.52-0.97-0.16-2.19,0.82-2.71c3.05-1.64,7.84-1.64,10.89,0c0.97,0.52,1.34,1.73,0.82,2.71C100.9,95.91,100.21,96.3,99.5,96.3
					z"/>
			</g>
			<g>
				<g>
					<circle class="st1" cx="95" cy="86.55" r="7"/>
				</g>
				<g>
					<circle class="st3" cx="96.75" cy="86.55" r="1.75"/>
				</g>
			</g>
			<g>
				<path class="st1" d="M98.07,67.05C97.68,67.09,97.14,67,96.68,67c-0.47-0.04-0.93-0.05-1.37-0.06c-0.89-0.02-1.7,0.02-2.44,0.12
					c-0.75,0.09-1.41,0.28-2.13,0.52c-0.74,0.21-1.43,0.64-2.38,1.03l-0.45,0.19c-1.04,0.44-2.24-0.05-2.68-1.09
					c-0.22-0.53-0.2-1.1,0-1.59c0.54-1.28,1.41-2.51,2.67-3.38c1.21-0.9,2.72-1.48,4.21-1.63c1.49-0.18,2.95-0.02,4.26,0.39
					c0.66,0.21,1.29,0.48,1.88,0.8c0.61,0.34,1.11,0.68,1.72,1.22c0.81,0.73,0.88,1.98,0.16,2.79c-0.34,0.38-0.8,0.6-1.27,0.65
					L98.07,67.05z"/>
			</g>
		</g>
	</g>
	<g>
		<g>
			<path class="st3" d="M64.55,132.13h0.49c0.45,0,0.77-0.14,0.97-0.42l2.95-4.28c0.17-0.23,0.36-0.39,0.56-0.47
				s0.45-0.13,0.75-0.13h2.65l-3.89,5.3c-0.28,0.37-0.57,0.63-0.89,0.79c0.23,0.08,0.43,0.2,0.62,0.35
				c0.19,0.15,0.36,0.34,0.52,0.58l3.96,6.08h-2.72c-0.17,0-0.32-0.01-0.45-0.04c-0.12-0.02-0.23-0.06-0.32-0.11
				c-0.09-0.05-0.17-0.11-0.23-0.18c-0.07-0.07-0.13-0.15-0.19-0.24l-2.97-4.56c-0.11-0.17-0.24-0.29-0.41-0.36
				c-0.17-0.07-0.39-0.1-0.67-0.1h-0.74v5.58h-3.04v-13.11h3.04V132.13z"/>
		</g>
		<g>
			<path class="st3" d="M78.18,129.16v3.06h4.12v2.25h-4.12v3.12h5.38v2.34h-8.44v-13.11h8.44v2.34H78.18z"/>
		</g>
		<g>
			<path class="st3" d="M92.62,134.94v4.99h-3.04v-4.99l-4.75-8.13h2.68c0.26,0,0.47,0.06,0.62,0.18s0.28,0.28,0.38,0.47l1.85,3.82
				c0.16,0.3,0.3,0.58,0.42,0.84c0.13,0.26,0.24,0.52,0.33,0.77c0.09-0.26,0.19-0.52,0.31-0.78c0.12-0.26,0.25-0.54,0.41-0.83
				l1.84-3.82c0.04-0.08,0.09-0.16,0.15-0.23c0.06-0.08,0.13-0.15,0.21-0.21c0.08-0.06,0.17-0.11,0.28-0.15
				c0.1-0.04,0.22-0.06,0.35-0.06h2.7L92.62,134.94z"/>
		</g>
		<g>
			<path class="st3" d="M117.16,126.82l-4.05,13.11h-2.75l-2.47-8.13c-0.05-0.13-0.09-0.27-0.14-0.42
				c-0.04-0.15-0.08-0.31-0.13-0.48c-0.04,0.17-0.08,0.33-0.13,0.48c-0.04,0.15-0.09,0.29-0.13,0.42l-2.5,8.13h-2.75l-4.05-13.11
				h2.56c0.26,0,0.48,0.06,0.66,0.18c0.18,0.12,0.29,0.28,0.35,0.48l1.8,6.84c0.05,0.22,0.11,0.45,0.16,0.71
				c0.05,0.25,0.11,0.52,0.16,0.8c0.11-0.56,0.24-1.06,0.4-1.5l2.12-6.84c0.05-0.17,0.17-0.32,0.35-0.45
				c0.18-0.14,0.39-0.2,0.64-0.2h0.9c0.26,0,0.48,0.06,0.64,0.18c0.16,0.12,0.28,0.28,0.37,0.47l2.11,6.84
				c0.16,0.42,0.29,0.9,0.4,1.43c0.05-0.27,0.1-0.52,0.15-0.76c0.05-0.24,0.1-0.46,0.16-0.67l1.8-6.84
				c0.05-0.17,0.16-0.33,0.34-0.46c0.18-0.13,0.4-0.2,0.65-0.2H117.16z"/>
		</g>
		<g>
			<path class="st3" d="M131.9,133.37c0,0.95-0.16,1.83-0.49,2.65c-0.33,0.82-0.79,1.53-1.38,2.13c-0.59,0.6-1.31,1.08-2.15,1.42
				s-1.77,0.51-2.79,0.51c-1.02,0-1.95-0.17-2.79-0.51s-1.56-0.81-2.16-1.42c-0.6-0.6-1.06-1.31-1.39-2.13
				c-0.33-0.82-0.49-1.7-0.49-2.65c0-0.95,0.16-1.83,0.49-2.65c0.33-0.82,0.79-1.52,1.39-2.12c0.6-0.6,1.32-1.07,2.16-1.41
				s1.77-0.51,2.79-0.51c1.02,0,1.95,0.17,2.79,0.52s1.55,0.82,2.15,1.42c0.59,0.6,1.05,1.31,1.38,2.12
				C131.74,131.55,131.9,132.43,131.9,133.37z M128.79,133.37c0-0.65-0.08-1.23-0.25-1.75c-0.17-0.52-0.41-0.96-0.72-1.32
				c-0.32-0.36-0.7-0.64-1.16-0.83s-0.97-0.29-1.56-0.29c-0.59,0-1.11,0.1-1.57,0.29s-0.85,0.47-1.16,0.83s-0.56,0.8-0.72,1.32
				c-0.17,0.52-0.25,1.1-0.25,1.75c0,0.65,0.08,1.24,0.25,1.76c0.17,0.52,0.41,0.96,0.72,1.32c0.32,0.36,0.7,0.63,1.16,0.82
				c0.46,0.19,0.98,0.28,1.57,0.28c0.58,0,1.1-0.09,1.56-0.28c0.46-0.19,0.84-0.46,1.16-0.82c0.31-0.36,0.56-0.8,0.72-1.32
				C128.71,134.61,128.79,134.02,128.79,133.37z"/>
		</g>
		<g>
			<path class="st3" d="M145.32,139.93h-2.75c-0.51,0-0.88-0.19-1.1-0.58l-2.18-3.81c-0.1-0.16-0.22-0.28-0.34-0.36
				s-0.31-0.11-0.54-0.11h-0.77v4.85h-3.04v-13.11h4.27c0.95,0,1.76,0.1,2.43,0.29c0.67,0.2,1.21,0.47,1.64,0.81
				s0.73,0.76,0.92,1.23c0.19,0.47,0.29,0.99,0.29,1.55c0,0.43-0.06,0.83-0.17,1.21c-0.11,0.38-0.28,0.73-0.5,1.05
				c-0.22,0.32-0.5,0.61-0.82,0.86s-0.7,0.46-1.13,0.62c0.2,0.1,0.38,0.23,0.56,0.38c0.17,0.15,0.33,0.33,0.47,0.54L145.32,139.93z
				 M138.86,132.98c0.41,0,0.77-0.05,1.06-0.16c0.29-0.1,0.53-0.25,0.71-0.44c0.19-0.19,0.32-0.4,0.41-0.65s0.13-0.52,0.13-0.81
				c0-0.58-0.19-1.03-0.56-1.35c-0.38-0.32-0.96-0.49-1.74-0.49h-1.22v3.89H138.86z"/>
		</g>
		<g>
			<path class="st3" d="M159.23,133.37c0,0.95-0.16,1.82-0.49,2.62s-0.79,1.49-1.38,2.08s-1.31,1.04-2.15,1.37s-1.77,0.49-2.79,0.49
				h-5.09v-13.11h5.09c1.02,0,1.95,0.17,2.79,0.5s1.55,0.79,2.15,1.37s1.05,1.27,1.38,2.07
				C159.07,131.56,159.23,132.43,159.23,133.37z M156.11,133.37c0-0.65-0.08-1.23-0.25-1.76c-0.17-0.52-0.41-0.96-0.72-1.33
				c-0.31-0.36-0.7-0.64-1.16-0.84s-0.97-0.29-1.56-0.29h-2.03v8.43h2.03c0.58,0,1.1-0.1,1.56-0.29c0.46-0.19,0.84-0.47,1.16-0.84
				c0.32-0.36,0.56-0.81,0.72-1.33C156.03,134.61,156.11,134.02,156.11,133.37z"/>
		</g>
	</g>
</g>
<path class="st2" d="M30,232h-6v-6c0-1.66-1.34-3-3-3s-3,1.34-3,3v6h-6c-1.66,0-3,1.34-3,3s1.34,3,3,3h6v6c0,1.66,1.34,3,3,3
	s3-1.34,3-3v-6h6c1.66,0,3-1.34,3-3S31.66,232,30,232z"/>
<path class="st2" d="M358,304h-6v-6c0-1.66-1.34-3-3-3s-3,1.34-3,3v6h-6c-1.66,0-3,1.34-3,3s1.34,3,3,3h6v6c0,1.66,1.34,3,3,3
	s3-1.34,3-3v-6h6c1.66,0,3-1.34,3-3S359.66,304,358,304z"/>
<g>
	<circle class="st2" cx="316" cy="277" r="3"/>
</g>
<g>
	<circle class="st2" cx="74.5" cy="234.5" r="4.5"/>
</g>
<g>
	<path class="st2" d="M53.4,286.4c-2.65,0-4.8-2.15-4.8-4.8c0-0.88-0.72-1.6-1.6-1.6c-0.88,0-1.6,0.72-1.6,1.6
		c0,2.65-2.15,4.8-4.8,4.8c-0.88,0-1.6,0.72-1.6,1.6s0.72,1.6,1.6,1.6c2.65,0,4.8,2.15,4.8,4.8c0,0.88,0.72,1.6,1.6,1.6
		c0.88,0,1.6-0.72,1.6-1.6c0-2.65,2.15-4.8,4.8-4.8c0.88,0,1.6-0.72,1.6-1.6S54.28,286.4,53.4,286.4z"/>
</g>
<g>
	<path class="st2" d="M386.2,265.2c-2.98,0-5.4-2.42-5.4-5.4c0-0.99-0.81-1.8-1.8-1.8c-0.99,0-1.8,0.81-1.8,1.8
		c0,2.98-2.42,5.4-5.4,5.4c-0.99,0-1.8,0.81-1.8,1.8s0.81,1.8,1.8,1.8c2.98,0,5.4,2.42,5.4,5.4c0,0.99,0.81,1.8,1.8,1.8
		c0.99,0,1.8-0.81,1.8-1.8c0-2.98,2.42-5.4,5.4-5.4c0.99,0,1.8-0.81,1.8-1.8S387.19,265.2,386.2,265.2z"/>
</g>
<g>
	<g>
		<circle class="st2" cx="83" cy="308" r="3"/>
	</g>
</g>
<g>
	<rect class="st4" width="400" height="400"/>
</g>
<g>
	<g>
		<g>
			<circle class="st5" cx="200" cy="275" r="96"/>
		</g>
		<g>
			<g>
				<path class="st1" d="M200,182c51.36,0,93,41.64,93,93s-41.64,93-93,93s-93-41.64-93-93S148.64,182,200,182 M200,176
					c-54.59,0-99,44.41-99,99s44.41,99,99,99s99-44.41,99-99S254.59,176,200,176L200,176z"/>
			</g>
		</g>
	</g>
	<g>
		<g>
			<path class="st6" d="M200,186c50.69,0,91.91,40.56,92.97,91c0.01-0.67,0.03-1.33,0.03-2c0-51.36-41.64-93-93-93s-93,41.64-93,93
				c0,0.67,0.01,1.33,0.03,2C108.09,226.56,149.31,186,200,186z"/>
		</g>
	</g>
	<g>
		<g>
			<circle class="st7" cx="200" cy="275" r="73"/>
		</g>
		<g>
			<g>
				<path class="st1" d="M200,205c38.66,0,70,31.34,70,70s-31.34,70-70,70s-70-31.34-70-70S161.34,205,200,205 M200,199
					c-41.91,0-76,34.09-76,76s34.09,76,76,76s76-34.09,76-76S241.91,199,200,199L200,199z"/>
			</g>
		</g>
	</g>
	<g>
		<path class="st8" d="M249.5,225.5C236.83,212.83,219.33,205,200,205v70h70C270,255.67,262.16,238.17,249.5,225.5z"/>
	</g>
	<g>
		<path class="st9" d="M200,213c37.32,0,67.8,29.2,69.88,66c0.07-1.32,0.12-2.66,0.12-4c0-38.66-31.34-70-70-70s-70,31.34-70,70
			c0,1.34,0.05,2.68,0.12,4C132.2,242.2,162.68,213,200,213z"/>
	</g>
	<g>
		<g>
			<path class="st1" d="M208.03,310.78c-0.62,0-1.2-0.39-1.42-1.01c-0.27-0.78,0.15-1.64,0.93-1.91c2.24-0.77,5.74-0.77,7.98,0
				c0.78,0.27,1.2,1.12,0.93,1.91c-0.27,0.78-1.12,1.2-1.91,0.93c-1.6-0.55-4.42-0.55-6.02,0
				C208.35,310.75,208.19,310.78,208.03,310.78z"/>
		</g>
		<g>
			<g>
				<circle class="st1" cx="211.53" cy="302.58" r="6"/>
			</g>
			<g>
				<circle class="st3" cx="213.03" cy="302.58" r="1.5"/>
			</g>
		</g>
		<g>
			<path class="st1" d="M208.09,288.64c0.97-0.61,1.86-0.91,2.88-1.12c0.99-0.21,2.03-0.24,3.08-0.12c1.04,0.11,2.1,0.44,3.07,0.95
				c0.97,0.5,1.83,1.28,2.42,2.19c0.52,0.8,0.29,1.86-0.51,2.38c-0.38,0.24-0.81,0.32-1.22,0.25l-0.4-0.07
				c-0.78-0.13-1.39-0.32-2.04-0.43c-0.65-0.1-1.27-0.25-1.96-0.33l-2.11-0.25c-0.72-0.08-1.55-0.12-2.25-0.28l-0.42-0.09
				c-0.92-0.2-1.5-1.11-1.29-2.02C207.44,289.26,207.72,288.88,208.09,288.64z"/>
		</g>
	</g>
	<g>
		<g>
			<path class="st1" d="M184.97,310.78c-0.62,0-1.2-0.39-1.42-1.01c-0.27-0.78,0.15-1.64,0.93-1.91c2.24-0.77,5.74-0.77,7.98,0
				c0.78,0.27,1.2,1.12,0.93,1.91c-0.27,0.78-1.12,1.2-1.91,0.93c-1.6-0.55-4.42-0.55-6.02,0
				C185.3,310.75,185.14,310.78,184.97,310.78z"/>
		</g>
		<g>
			<g>
				<circle class="st1" cx="188.47" cy="302.58" r="6"/>
			</g>
			<g>
				<circle class="st3" cx="189.97" cy="302.58" r="1.5"/>
			</g>
		</g>
		<g>
			<path class="st1" d="M190.94,291.84c-0.7,0.15-1.53,0.2-2.25,0.28l-2.11,0.25c-0.68,0.08-1.31,0.22-1.96,0.33
				c-0.65,0.11-1.26,0.3-2.04,0.43l-0.39,0.07c-0.94,0.16-1.83-0.47-1.98-1.41c-0.07-0.44,0.03-0.88,0.25-1.22
				c0.59-0.92,1.45-1.69,2.42-2.19c0.96-0.52,2.02-0.84,3.07-0.95c1.04-0.12,2.08-0.08,3.08,0.12c1.01,0.21,1.9,0.51,2.88,1.12
				c0.79,0.5,1.03,1.55,0.54,2.34c-0.25,0.4-0.64,0.66-1.07,0.76L190.94,291.84z"/>
		</g>
	</g>
	<g>
		<g>
			<g>
				<path class="st1" d="M200,331c-7.72,0-14-6.28-14-14c0-1.1,0.9-2,2-2h24c1.1,0,2,0.9,2,2C214,324.72,207.72,331,200,331z"/>
			</g>
			<g>
				<path class="st1" d="M212,317L212,317 M212,317c0,6.63-5.37,12-12,12s-12-5.37-12-12H212 M212,313L212,313h-24
					c-2.21,0-4,1.79-4,4c0,8.82,7.18,16,16,16c8.77,0,15.91-7.09,16-15.84c0-0.05,0-0.11,0-0.16C216,314.79,214.21,313,212,313
					L212,313z M212,321L212,321L212,321L212,321z"/>
			</g>
		</g>
		<g>
			<g>
				<ellipse class="st10" cx="200" cy="325" rx="8.93" ry="4"/>
			</g>
		</g>
	</g>
	<g>
		<path class="st11" d="M150.5,225.5C137.84,238.17,130,255.67,130,275h70v-70C180.67,205,163.17,212.83,150.5,225.5z"/>
	</g>
	<g>
		<path class="st10" d="M189.34,205.81c-2.32,0.35-4.6,0.82-6.83,1.4c-1.12,0.29-2.23,0.6-3.32,0.94c-1.41,0.44-2.79,0.93-4.15,1.45
			c-1.5,0.57-2.97,1.19-4.42,1.86c-1.94,0.9-3.83,1.89-5.67,2.95c-1.39,0.81-2.76,1.64-4.09,2.54c-1.45,0.98-2.85,2.03-4.23,3.12
			c-1.27,1-2.51,2.03-3.7,3.11c-0.83,0.75-1.64,1.53-2.43,2.32c-0.79,0.79-1.56,1.6-2.32,2.43c-1.51,1.66-2.93,3.39-4.28,5.18
			c-1.34,1.8-2.6,3.66-3.77,5.58s-2.25,3.91-3.23,5.95c-0.49,1.02-0.96,2.05-1.4,3.1c-0.33,0.79-0.65,1.58-0.95,2.38
			c-0.91,2.4-1.7,4.86-2.34,7.38c-1.44,5.59-2.2,11.45-2.2,17.49h0.47c3.97-34.89,33.57-62,69.53-62v-8
			C196.38,205,192.82,205.28,189.34,205.81z"/>
	</g>
	<g>
		<g>
			<path class="st9" d="M211.54,275.86c-0.1,0-0.21-0.02-0.31-0.05l-19.2-6.29c-0.34-0.11-0.6-0.4-0.67-0.76s0.06-0.72,0.33-0.95
				l46.23-39.54c0.19-0.16,0.42-0.24,0.65-0.24c0.23,0,0.46,0.08,0.64,0.23c0.38,0.31,0.47,0.85,0.22,1.27l-27.03,45.82
				C212.21,275.68,211.88,275.86,211.54,275.86z"/>
		</g>
		<g>
			<g>
				<path class="st9" d="M238.57,229.04l-27.03,45.82l-19.2-6.29L238.57,229.04 M238.57,227.04c-0.46,0-0.93,0.16-1.3,0.48
					l-46.23,39.53c-0.55,0.47-0.8,1.2-0.66,1.91s0.65,1.29,1.34,1.51l19.2,6.29c0.21,0.07,0.42,0.1,0.62,0.1
					c0.69,0,1.36-0.36,1.72-0.98l27.03-45.82c0.5-0.84,0.31-1.92-0.44-2.55C239.48,227.19,239.02,227.04,238.57,227.04
					L238.57,227.04z M238.57,231.04L238.57,231.04L238.57,231.04L238.57,231.04z"/>
			</g>
		</g>
	</g>
	<g>
		<g>
			<g>
				<path class="st10" d="M211.34,274.86c-0.09,0-0.19-0.01-0.28-0.02l-20-2.86c-0.72-0.1-1.32-0.58-1.58-1.26
					c-0.26-0.67-0.14-1.44,0.32-2l38.66-46.96c0.39-0.48,0.96-0.73,1.54-0.73c0.34,0,0.69,0.09,1,0.27
					c0.85,0.49,1.22,1.52,0.87,2.43l-18.66,49.82C212.91,274.35,212.16,274.86,211.34,274.86z"/>
			</g>
			<g>
				<path class="st1" d="M230,223.04l-18.66,49.82l-20-2.86L230,223.04 M230,219.04c-1.16,0-2.31,0.51-3.09,1.46l-38.66,46.96
					c-0.92,1.12-1.16,2.64-0.64,3.99s1.73,2.31,3.16,2.51l20,2.86c0.19,0.03,0.38,0.04,0.57,0.04c1.65,0,3.15-1.02,3.74-2.6
					l18.66-49.82c0.69-1.83-0.05-3.89-1.75-4.87C231.37,219.21,230.68,219.04,230,219.04L230,219.04z M230,227.04L230,227.04
					L230,227.04L230,227.04z"/>
			</g>
		</g>
		<g>
			<g>
				<path class="st12" d="M184,278c-1.66,0-3-1.34-3-3c0-10.48,8.52-19,19-19s19,8.52,19,19c0,1.66-1.34,3-3,3H184z"/>
			</g>
			<g>
				<g>
					<path class="st1" d="M200,259c8.84,0,16,7.16,16,16h-32C184,266.16,191.16,259,200,259 M200,253c-12.13,0-22,9.87-22,22
						c0,3.31,2.69,6,6,6h32c3.31,0,6-2.69,6-6C222,262.87,212.13,253,200,253L200,253z"/>
				</g>
			</g>
		</g>
		<g>
			<path class="st13" d="M208.66,272c-0.69,0-1.36-0.36-1.73-1c-1.43-2.47-4.08-4-6.93-4c-1.1,0-2-0.9-2-2s0.9-2,2-2
				c4.27,0,8.25,2.3,10.39,6c0.55,0.96,0.23,2.18-0.73,2.73C209.35,271.91,209,272,208.66,272z"/>
		</g>
	</g>
	<g>
		<rect x="128.5" y="275" class="st1" width="143" height="6"/>
	</g>
</g>
<g>
	<g>
		<g>
			<path class="st14" d="M234,110.91c-4.96,0-9-4.04-9-9v-58c0-4.96,4.04-9,9-9h148c4.96,0,9,4.04,9,9v58c0,4.96-4.04,9-9,9H234z"/>
		</g>
		<g>
			<g>
				<path class="st1" d="M382,37.91c3.31,0,6,2.69,6,6v58c0,3.31-2.69,6-6,6H234c-3.31,0-6-2.69-6-6v-58c0-3.31,2.69-6,6-6H382
					 M382,31.91H234c-6.62,0-12,5.38-12,12v58c0,6.62,5.38,12,12,12h148c6.62,0,12-5.38,12-12v-58C394,37.3,388.62,31.91,382,31.91
					L382,31.91z"/>
			</g>
		</g>
	</g>
	<g>
		<g>
			<path class="st15" d="M216,110.91c-4.96,0-9-4.04-9-9v-58c0-4.96,4.04-9,9-9h148c4.96,0,9,4.04,9,9v58c0,4.96-4.04,9-9,9H216z"/>
		</g>
		<g>
			<g>
				<path class="st1" d="M364,37.91c3.31,0,6,2.69,6,6v58c0,3.31-2.69,6-6,6H216c-3.31,0-6-2.69-6-6v-58c0-3.31,2.69-6,6-6H364
					 M364,31.91H216c-6.62,0-12,5.38-12,12v58c0,6.62,5.38,12,12,12h148c6.62,0,12-5.38,12-12v-58C376,37.3,370.62,31.91,364,31.91
					L364,31.91z"/>
			</g>
		</g>
	</g>
	<g>
		<g>
			<path class="st3" d="M244.55,93.34h0.49c0.45,0,0.77-0.14,0.97-0.42l2.95-4.28c0.17-0.23,0.36-0.39,0.56-0.47
				s0.45-0.13,0.75-0.13h2.65l-3.89,5.3c-0.28,0.37-0.57,0.63-0.89,0.79c0.23,0.08,0.43,0.2,0.62,0.35
				c0.19,0.15,0.36,0.34,0.52,0.58l3.96,6.08h-2.72c-0.17,0-0.32-0.01-0.45-0.04c-0.12-0.02-0.23-0.06-0.32-0.11
				c-0.09-0.05-0.17-0.11-0.23-0.18c-0.07-0.07-0.13-0.15-0.19-0.24l-2.97-4.56c-0.11-0.17-0.24-0.29-0.41-0.36
				c-0.17-0.07-0.39-0.1-0.67-0.1h-0.74v5.58h-3.04V88.03h3.04V93.34z"/>
		</g>
		<g>
			<path class="st3" d="M258.18,90.37v3.06h4.12v2.25h-4.12v3.12h5.38v2.34h-8.44V88.03h8.44v2.34H258.18z"/>
		</g>
		<g>
			<path class="st3" d="M272.62,96.16v4.99h-3.04v-4.99l-4.75-8.13h2.68c0.26,0,0.47,0.06,0.62,0.18s0.28,0.28,0.38,0.47l1.85,3.82
				c0.16,0.3,0.3,0.58,0.42,0.84c0.13,0.26,0.24,0.52,0.33,0.77c0.09-0.26,0.19-0.52,0.31-0.78c0.12-0.26,0.25-0.54,0.41-0.83
				l1.84-3.82c0.04-0.08,0.09-0.16,0.15-0.23c0.06-0.08,0.13-0.15,0.21-0.21c0.08-0.06,0.17-0.11,0.28-0.15
				c0.1-0.04,0.22-0.06,0.35-0.06h2.7L272.62,96.16z"/>
		</g>
		<g>
			<path class="st3" d="M297.16,88.03l-4.05,13.11h-2.75l-2.47-8.13c-0.05-0.13-0.09-0.27-0.14-0.42c-0.04-0.15-0.08-0.31-0.13-0.48
				c-0.04,0.17-0.08,0.33-0.13,0.48c-0.04,0.15-0.09,0.29-0.13,0.42l-2.5,8.13h-2.75l-4.05-13.11h2.56c0.26,0,0.48,0.06,0.66,0.18
				c0.18,0.12,0.29,0.28,0.35,0.48l1.8,6.84c0.05,0.22,0.11,0.45,0.16,0.71c0.05,0.25,0.11,0.52,0.16,0.8
				c0.11-0.56,0.24-1.06,0.4-1.5l2.12-6.84c0.05-0.17,0.17-0.32,0.35-0.45c0.18-0.14,0.39-0.2,0.64-0.2h0.9
				c0.26,0,0.48,0.06,0.64,0.18c0.16,0.12,0.28,0.28,0.37,0.47l2.11,6.84c0.16,0.42,0.29,0.9,0.4,1.43c0.05-0.27,0.1-0.52,0.15-0.76
				c0.05-0.24,0.1-0.46,0.16-0.67l1.8-6.84c0.05-0.17,0.16-0.33,0.34-0.46c0.18-0.13,0.4-0.2,0.65-0.2H297.16z"/>
		</g>
		<g>
			<path class="st3" d="M311.9,94.59c0,0.95-0.16,1.83-0.49,2.65c-0.33,0.82-0.79,1.53-1.38,2.13c-0.59,0.6-1.31,1.08-2.15,1.42
				s-1.77,0.51-2.79,0.51c-1.02,0-1.95-0.17-2.79-0.51s-1.56-0.81-2.16-1.42c-0.6-0.6-1.06-1.31-1.39-2.13
				c-0.33-0.82-0.49-1.7-0.49-2.65c0-0.95,0.16-1.83,0.49-2.65c0.33-0.82,0.79-1.52,1.39-2.12c0.6-0.6,1.32-1.07,2.16-1.41
				s1.77-0.51,2.79-0.51c1.02,0,1.95,0.17,2.79,0.52s1.55,0.82,2.15,1.42c0.59,0.6,1.05,1.31,1.38,2.12
				C311.74,92.76,311.9,93.64,311.9,94.59z M308.79,94.59c0-0.65-0.08-1.23-0.25-1.75c-0.17-0.52-0.41-0.96-0.72-1.32
				c-0.32-0.36-0.7-0.64-1.16-0.83s-0.97-0.29-1.56-0.29c-0.59,0-1.11,0.1-1.57,0.29s-0.85,0.47-1.16,0.83s-0.56,0.8-0.72,1.32
				c-0.17,0.52-0.25,1.1-0.25,1.75c0,0.65,0.08,1.24,0.25,1.76c0.17,0.52,0.41,0.96,0.72,1.32c0.32,0.36,0.7,0.63,1.16,0.82
				c0.46,0.19,0.98,0.28,1.57,0.28c0.58,0,1.1-0.09,1.56-0.28c0.46-0.19,0.84-0.46,1.16-0.82c0.31-0.36,0.56-0.8,0.72-1.32
				C308.71,95.83,308.79,95.24,308.79,94.59z"/>
		</g>
		<g>
			<path class="st3" d="M325.32,101.15h-2.75c-0.51,0-0.88-0.19-1.1-0.58l-2.18-3.81c-0.1-0.16-0.22-0.28-0.34-0.36
				s-0.31-0.11-0.54-0.11h-0.77v4.85h-3.04V88.03h4.27c0.95,0,1.76,0.1,2.43,0.29c0.67,0.2,1.21,0.47,1.64,0.81s0.73,0.76,0.92,1.23
				c0.19,0.47,0.29,0.99,0.29,1.55c0,0.43-0.06,0.83-0.17,1.21c-0.11,0.38-0.28,0.73-0.5,1.05c-0.22,0.32-0.5,0.61-0.82,0.86
				s-0.7,0.46-1.13,0.62c0.2,0.1,0.38,0.23,0.56,0.38c0.17,0.15,0.33,0.33,0.47,0.54L325.32,101.15z M318.86,94.2
				c0.41,0,0.77-0.05,1.06-0.16c0.29-0.1,0.53-0.25,0.71-0.44c0.19-0.19,0.32-0.4,0.41-0.65s0.13-0.52,0.13-0.81
				c0-0.58-0.19-1.03-0.56-1.35c-0.38-0.32-0.96-0.49-1.74-0.49h-1.22v3.89H318.86z"/>
		</g>
		<g>
			<path class="st3" d="M339.23,94.59c0,0.95-0.16,1.82-0.49,2.62s-0.79,1.49-1.38,2.08s-1.31,1.04-2.15,1.37s-1.77,0.49-2.79,0.49
				h-5.09V88.03h5.09c1.02,0,1.95,0.17,2.79,0.5s1.55,0.79,2.15,1.37s1.05,1.27,1.38,2.07C339.07,92.77,339.23,93.64,339.23,94.59z
				 M336.11,94.59c0-0.65-0.08-1.23-0.25-1.76c-0.17-0.52-0.41-0.96-0.72-1.33c-0.31-0.36-0.7-0.64-1.16-0.84s-0.97-0.29-1.56-0.29
				h-2.03v8.43h2.03c0.58,0,1.1-0.1,1.56-0.29c0.46-0.19,0.84-0.47,1.16-0.84c0.32-0.36,0.56-0.81,0.72-1.33
				C336.03,95.83,336.11,95.24,336.11,94.59z"/>
		</g>
	</g>
	<g>
		<g>
			<path class="st1" d="M304.01,57.32H276c-2.21,0-4,1.79-4,4c0,9.93,8.07,18,18,18c9.87,0,17.91-7.99,18-17.84
				c0-0.05,0-0.11,0-0.16C308,59.12,306.21,57.32,304.01,57.32z"/>
			<g>
				<g>
					<ellipse class="st10" cx="290" cy="70.66" rx="10.41" ry="4.67"/>
				</g>
			</g>
		</g>
		<g>
			<g>
				<g>
					<path class="st1" d="M300.21,25.35c0.6-0.51,1.09-0.82,1.69-1.14c0.58-0.3,1.18-0.55,1.82-0.74c1.27-0.37,2.65-0.52,4.06-0.39
						c1.41,0.11,2.85,0.62,4.07,1.42c1.25,0.77,2.18,1.94,2.76,3.17c0.48,1.02,0.04,2.24-0.98,2.72c-0.5,0.23-1.04,0.25-1.52,0.09
						l-0.51-0.17c-0.93-0.31-1.61-0.67-2.34-0.83c-0.71-0.19-1.37-0.36-2.13-0.44c-0.75-0.09-1.56-0.13-2.43-0.12
						c-0.44,0-0.89,0-1.35,0.02c-0.45-0.01-0.98,0.05-1.36,0l-0.77-0.11c-1.08-0.16-1.83-1.17-1.68-2.25
						C299.6,26.08,299.85,25.65,300.21,25.35z"/>
				</g>
				<g>
					<path class="st1" d="M278.03,28.94c-0.38,0.06-0.92-0.01-1.36,0c-0.46-0.02-0.92-0.02-1.35-0.02
						c-0.87-0.01-1.68,0.04-2.43,0.12c-0.76,0.07-1.42,0.25-2.13,0.44c-0.73,0.16-1.41,0.52-2.34,0.83l-0.5,0.17
						c-1.07,0.36-2.23-0.21-2.59-1.28c-0.18-0.52-0.13-1.06,0.09-1.52c0.58-1.23,1.5-2.4,2.76-3.17c1.22-0.8,2.66-1.31,4.07-1.42
						c1.41-0.14,2.79,0.01,4.06,0.39c0.63,0.19,1.24,0.44,1.82,0.74c0.59,0.32,1.08,0.63,1.69,1.14c0.84,0.71,0.94,1.96,0.24,2.8
						c-0.32,0.38-0.76,0.62-1.23,0.68L278.03,28.94z"/>
				</g>
				<g>
					<path class="st1" d="M280.02,51.82c-1.38,0-2.5-1.12-2.5-2.5c0-1.38-1.12-2.5-2.5-2.5s-2.5,1.12-2.5,2.5
						c0,1.38-1.12,2.5-2.5,2.5s-2.5-1.12-2.5-2.5c0-4.14,3.36-7.5,7.5-7.5s7.5,3.36,7.5,7.5C282.52,50.71,281.4,51.82,280.02,51.82z
						"/>
				</g>
				<g>
					<path class="st1" d="M309.98,51.82c-1.38,0-2.5-1.12-2.5-2.5c0-1.38-1.12-2.5-2.5-2.5s-2.5,1.12-2.5,2.5
						c0,1.38-1.12,2.5-2.5,2.5s-2.5-1.12-2.5-2.5c0-4.14,3.36-7.5,7.5-7.5s7.5,3.36,7.5,7.5C312.48,50.71,311.36,51.82,309.98,51.82
						z"/>
				</g>
			</g>
		</g>
	</g>
</g>
<g>
	<path class="st1" d="M356,258.5h-3c-0.83,0-1.5-0.67-1.5-1.5s0.67-1.5,1.5-1.5h3c0.57,0,1.14-0.06,1.69-0.17
		c0.82-0.16,1.6,0.36,1.77,1.17c0.16,0.81-0.36,1.6-1.17,1.77C357.53,258.42,356.76,258.5,356,258.5z M344,258.5h-5
		c-0.83,0-1.5-0.67-1.5-1.5s0.67-1.5,1.5-1.5h5c0.83,0,1.5,0.67,1.5,1.5S344.83,258.5,344,258.5z M330,258.5h-5
		c-0.83,0-1.5-0.67-1.5-1.5s0.67-1.5,1.5-1.5h5c0.83,0,1.5,0.67,1.5,1.5S330.83,258.5,330,258.5z M316,258.5h-5
		c-0.83,0-1.5-0.67-1.5-1.5s0.67-1.5,1.5-1.5h5c0.83,0,1.5,0.67,1.5,1.5S316.83,258.5,316,258.5z M302,258.5h-5
		c-0.83,0-1.5-0.67-1.5-1.5s0.67-1.5,1.5-1.5h5c0.83,0,1.5,0.67,1.5,1.5S302.83,258.5,302,258.5z M364.91,253.04
		c-0.23,0-0.46-0.05-0.68-0.16c-0.74-0.38-1.03-1.28-0.65-2.02c0.61-1.2,0.92-2.5,0.92-3.86v-0.29c0-0.83,0.67-1.5,1.5-1.5
		s1.5,0.67,1.5,1.5V247c0,1.84-0.42,3.6-1.25,5.22C365.98,252.74,365.46,253.04,364.91,253.04z M366,239.21
		c-0.83,0-1.5-0.67-1.5-1.5v-5c0-0.83,0.67-1.5,1.5-1.5s1.5,0.67,1.5,1.5v5C367.5,238.54,366.83,239.21,366,239.21z M366,225.21
		c-0.83,0-1.5-0.67-1.5-1.5v-5c0-0.83,0.67-1.5,1.5-1.5s1.5,0.67,1.5,1.5v5C367.5,224.54,366.83,225.21,366,225.21z M366,211.21
		c-0.83,0-1.5-0.67-1.5-1.5v-5c0-0.83,0.67-1.5,1.5-1.5s1.5,0.67,1.5,1.5v5C367.5,210.54,366.83,211.21,366,211.21z M366,197.21
		c-0.83,0-1.5-0.67-1.5-1.5V193c0-0.65-0.07-1.3-0.22-1.93c-0.19-0.81,0.31-1.61,1.12-1.8c0.8-0.19,1.61,0.31,1.8,1.12
		c0.2,0.85,0.3,1.72,0.3,2.6v2.71C367.5,196.54,366.83,197.21,366,197.21z M360.28,185.46c-0.22,0-0.43-0.05-0.64-0.15
		c-1.14-0.54-2.37-0.82-3.64-0.82h-0.57c-0.83,0-1.5-0.67-1.5-1.5s0.67-1.5,1.5-1.5H356c1.72,0,3.38,0.37,4.93,1.11
		c0.75,0.36,1.07,1.25,0.71,2C361.38,185.15,360.85,185.46,360.28,185.46z M346.43,184.5h-5c-0.83,0-1.5-0.67-1.5-1.5
		s0.67-1.5,1.5-1.5h5c0.83,0,1.5,0.67,1.5,1.5S347.26,184.5,346.43,184.5z M332.43,184.5h-5c-0.83,0-1.5-0.67-1.5-1.5
		s0.67-1.5,1.5-1.5h5c0.83,0,1.5,0.67,1.5,1.5S333.26,184.5,332.43,184.5z M318.43,184.5h-5c-0.83,0-1.5-0.67-1.5-1.5
		s0.67-1.5,1.5-1.5h5c0.83,0,1.5,0.67,1.5,1.5S319.26,184.5,318.43,184.5z M304.43,184.5H304c-1.78,0-3.49-0.4-5.08-1.18
		c-0.74-0.37-1.05-1.27-0.68-2.01c0.37-0.74,1.27-1.05,2.01-0.68c1.17,0.58,2.43,0.87,3.75,0.87h0.43c0.83,0,1.5,0.67,1.5,1.5
		S305.26,184.5,304.43,184.5z M294.23,176.63c-0.69,0-1.31-0.48-1.46-1.18c-0.17-0.8-0.26-1.62-0.26-2.44v-2.86
		c0-0.83,0.67-1.5,1.5-1.5s1.5,0.67,1.5,1.5V173c0,0.61,0.06,1.22,0.19,1.81c0.18,0.81-0.34,1.61-1.15,1.78
		C294.44,176.61,294.33,176.63,294.23,176.63z M294,162.64c-0.83,0-1.5-0.67-1.5-1.5v-5c0-0.83,0.67-1.5,1.5-1.5s1.5,0.67,1.5,1.5v5
		C295.5,161.97,294.83,162.64,294,162.64z M294,148.64c-0.83,0-1.5-0.67-1.5-1.5v-5c0-0.83,0.67-1.5,1.5-1.5s1.5,0.67,1.5,1.5v5
		C295.5,147.97,294.83,148.64,294,148.64z M294,134.64c-0.83,0-1.5-0.67-1.5-1.5v-5c0-0.83,0.67-1.5,1.5-1.5s1.5,0.67,1.5,1.5v5
		C295.5,133.97,294.83,134.64,294,134.64z M294,120.64c-0.83,0-1.5-0.67-1.5-1.5v-5c0-0.83,0.67-1.5,1.5-1.5s1.5,0.67,1.5,1.5v5
		C295.5,119.97,294.83,120.64,294,120.64z"/>
</g>
<g>
	<path class="st1" d="M104,258.5h-5c-0.83,0-1.5-0.67-1.5-1.5s0.67-1.5,1.5-1.5h5c0.83,0,1.5,0.67,1.5,1.5S104.83,258.5,104,258.5z
		 M90,258.5h-5c-0.83,0-1.5-0.67-1.5-1.5s0.67-1.5,1.5-1.5h5c0.83,0,1.5,0.67,1.5,1.5S90.83,258.5,90,258.5z M76,258.5h-5
		c-0.83,0-1.5-0.67-1.5-1.5s0.67-1.5,1.5-1.5h5c0.83,0,1.5,0.67,1.5,1.5S76.83,258.5,76,258.5z M62,258.5h-1
		c-1.55,0-3.06-0.3-4.48-0.9c-0.76-0.32-1.12-1.2-0.8-1.97c0.32-0.76,1.2-1.12,1.97-0.8c1.05,0.44,2.16,0.67,3.31,0.67h1
		c0.83,0,1.5,0.67,1.5,1.5S62.83,258.5,62,258.5z M51.36,251.18c-0.66,0-1.26-0.43-1.44-1.1c-0.28-1-0.42-2.04-0.42-3.08v-2.29
		c0-0.83,0.67-1.5,1.5-1.5s1.5,0.67,1.5,1.5V247c0,0.77,0.1,1.54,0.31,2.28c0.22,0.8-0.25,1.62-1.04,1.85
		C51.63,251.16,51.5,251.18,51.36,251.18z M51,237.21c-0.83,0-1.5-0.67-1.5-1.5v-5c0-0.83,0.67-1.5,1.5-1.5s1.5,0.67,1.5,1.5v5
		C52.5,236.54,51.83,237.21,51,237.21z M51,223.21c-0.83,0-1.5-0.67-1.5-1.5v-5c0-0.83,0.67-1.5,1.5-1.5s1.5,0.67,1.5,1.5v5
		C52.5,222.54,51.83,223.21,51,223.21z M51,209.21c-0.01,0-0.03,0-0.04,0c-0.83-0.02-1.48-0.71-1.46-1.54
		c0.05-1.92,0.59-3.82,1.56-5.47c0.42-0.72,1.34-0.96,2.05-0.54c0.71,0.42,0.96,1.34,0.54,2.05c-0.71,1.22-1.11,2.62-1.15,4.04
		C52.48,208.57,51.81,209.21,51,209.21z M59.58,199.6c-0.73,0-1.38-0.54-1.48-1.29c-0.12-0.82,0.45-1.58,1.27-1.7
		c0.53-0.08,1.08-0.12,1.62-0.12c0,0,0.01,0,0.01,0h3.57c0.83,0,1.5,0.67,1.5,1.5s-0.67,1.5-1.5,1.5H61
		c-0.4,0.04-0.81,0.03-1.21,0.08C59.72,199.6,59.65,199.6,59.58,199.6z M92.57,199.5h-5c-0.83,0-1.5-0.67-1.5-1.5s0.67-1.5,1.5-1.5
		h5c0.83,0,1.5,0.67,1.5,1.5S93.4,199.5,92.57,199.5z M78.57,199.5h-5c-0.83,0-1.5-0.67-1.5-1.5s0.67-1.5,1.5-1.5h5
		c0.83,0,1.5,0.67,1.5,1.5S79.4,199.5,78.57,199.5z M101.5,198.87c-0.61,0-1.18-0.37-1.41-0.98c-0.29-0.78,0.1-1.64,0.88-1.93
		c1.33-0.5,2.52-1.33,3.45-2.4c0.54-0.63,1.49-0.69,2.12-0.15c0.63,0.54,0.69,1.49,0.15,2.12c-1.26,1.45-2.88,2.58-4.67,3.25
		C101.85,198.84,101.67,198.87,101.5,198.87z M108,187.64c-0.83,0-1.5-0.67-1.5-1.5v-5c0-0.83,0.67-1.5,1.5-1.5s1.5,0.67,1.5,1.5v5
		C109.5,186.97,108.83,187.64,108,187.64z M108,173.64c-0.83,0-1.5-0.67-1.5-1.5v-5c0-0.83,0.67-1.5,1.5-1.5s1.5,0.67,1.5,1.5v5
		C109.5,172.97,108.83,173.64,108,173.64z M108,159.64c-0.83,0-1.5-0.67-1.5-1.5v-5c0-0.83,0.67-1.5,1.5-1.5s1.5,0.67,1.5,1.5v5
		C109.5,158.97,108.83,159.64,108,159.64z"/>
</g>
</svg>
