<?xml version="1.0" encoding="utf-8"?>
<!-- Generator: Adobe Illustrator 26.0.2, SVG Export Plug-In . SVG Version: 6.00 Build 0)  -->
<svg version="1.1" id="Google_x5F_Hub-Google_x5F_Ad_x5F_Filters"
	 xmlns="http://www.w3.org/2000/svg" xmlns:xlink="http://www.w3.org/1999/xlink" x="0px" y="0px" viewBox="0 0 400 400"
	 style="enable-background:new 0 0 400 400;" xml:space="preserve">
<style type="text/css">
	.st0{fill:#F89D81;}
	.st1{fill:#515979;}
	.st2{fill:#EF7D7D;}
	.st3{fill:#FABBA7;}
	.st4{fill:#FBBD04;}
	.st5{fill:#438EDC;}
	.st6{fill:#34A952;}
	.st7{fill:none;}
	.st8{fill:#FFD886;}
</style>
<g>
	<g>
		<g>
			<path class="st0" d="M119.72,214.37c-0.57,0-1.14-0.16-1.63-0.48c-0.85-0.55-1.37-1.5-1.37-2.52v-36c0-1.66,1.34-3,3-3h20
				c1.66,0,3,1.34,3,3v27c0,1.18-0.69,2.25-1.77,2.74l-20,9C120.56,214.28,120.14,214.37,119.72,214.37z"/>
		</g>
		<g>
			<path class="st1" d="M139.72,175.37v27l-20,9v-36H139.72 M139.72,169.37h-20c-3.31,0-6,2.69-6,6v36c0,2.04,1.03,3.93,2.74,5.04
				c0.99,0.64,2.12,0.96,3.26,0.96c0.84,0,1.68-0.17,2.46-0.53l20-9c2.15-0.97,3.54-3.11,3.54-5.47v-27
				C145.72,172.06,143.03,169.37,139.72,169.37L139.72,169.37z"/>
		</g>
	</g>
	<g>
		<g>
			<polygon class="st2" points="131.72,175.37 131.72,205.97 139.72,202.37 139.72,175.37 			"/>
		</g>
	</g>
	<g>
		<g>
			<path class="st0" d="M119.72,178.37c-0.99,0-1.92-0.49-2.48-1.31l-56-82c-0.63-0.92-0.69-2.11-0.18-3.09
				c0.52-0.98,1.54-1.6,2.65-1.6h132c1.11,0,2.13,0.62,2.65,1.6c0.52,0.98,0.45,2.17-0.18,3.09l-56,82
				c-0.56,0.82-1.49,1.31-2.48,1.31H119.72z"/>
		</g>
		<g>
			<path class="st1" d="M195.72,93.37l-56,82h-20l-56-82H195.72 M195.72,87.37h-132c-2.22,0-4.27,1.23-5.31,3.2
				c-1.04,1.97-0.9,4.35,0.35,6.19l56,82c1.12,1.64,2.97,2.62,4.95,2.62h20c1.98,0,3.84-0.98,4.95-2.62l56-82
				c1.25-1.84,1.39-4.22,0.35-6.19C199.98,88.6,197.94,87.37,195.72,87.37L195.72,87.37z M195.72,99.37L195.72,99.37L195.72,99.37
				L195.72,99.37z"/>
		</g>
	</g>
	<g>
		<polygon class="st2" points="171.72,93.37 131.72,175.37 139.72,175.37 195.72,93.37 		"/>
	</g>
	<g>
		<g>
			<path class="st0" d="M57.72,96.37c-3.31,0-6-2.69-6-6v-18c0-3.31,2.69-6,6-6h144c3.31,0,6,2.69,6,6v18c0,3.31-2.69,6-6,6H57.72z"
				/>
		</g>
		<g>
			<path class="st1" d="M201.72,69.37c1.66,0,3,1.34,3,3v18c0,1.66-1.34,3-3,3h-144c-1.66,0-3-1.34-3-3v-18c0-1.66,1.34-3,3-3
				H201.72 M201.72,63.37h-144c-4.96,0-9,4.04-9,9v18c0,4.96,4.04,9,9,9h144c4.96,0,9-4.04,9-9v-18
				C210.72,67.41,206.68,63.37,201.72,63.37L201.72,63.37z"/>
		</g>
	</g>
	<g>
		<path class="st3" d="M66.72,93.37h-9c-1.66,0-3-1.34-3-3v-18c0-1.66,1.34-3,3-3h9V93.37z"/>
	</g>
	<g>
		<path class="st2" d="M201.72,69.37h-21v24h21c1.66,0,3-1.34,3-3v-18C204.72,70.71,203.37,69.37,201.72,69.37z"/>
	</g>
</g>
<g>
	<g>
		<path class="st4" d="M214.26,338.28L214.26,338.28c-13.58-7.84-18.27-25.35-10.43-38.93l56.35-97.62
			c7.84-13.58,25.35-18.27,38.93-10.43l0,0c13.58,7.84,18.27,25.35,10.43,38.93l-56.35,97.62
			C245.35,341.41,227.84,346.12,214.26,338.28z"/>
	</g>
	<g>
		<path class="st5" d="M355.78,337.86L355.78,337.86c-13.58,7.84-31.09,3.14-38.93-10.43l-56.35-97.62
			c-7.84-13.58-3.14-31.09,10.43-38.93l0,0c13.58-7.84,31.09-3.14,38.93,10.43l56.35,97.62
			C374.04,312.5,369.34,330.02,355.78,337.86z"/>
	</g>
	<g>
		<circle class="st6" cx="228.9" cy="313.18" r="28.9"/>
	</g>
</g>
<g>
	<rect x="0.03" y="0" class="st7" width="400" height="400"/>
</g>
<g>
	<g>
		<path class="st8" d="M350.47,79.57c2.98,0,5.4-2.42,5.4-5.4c0-0.99,0.81-1.8,1.8-1.8c0.99,0,1.8,0.81,1.8,1.8
			c0,2.98,2.42,5.4,5.4,5.4c0.99,0,1.8,0.81,1.8,1.8c0,0.99-0.81,1.8-1.8,1.8c-2.98,0-5.4,2.42-5.4,5.4c0,0.99-0.81,1.8-1.8,1.8
			c-0.99,0-1.8-0.81-1.8-1.8c0-2.98-2.42-5.4-5.4-5.4c-0.99,0-1.8-0.81-1.8-1.8C348.67,80.38,349.48,79.57,350.47,79.57z"/>
	</g>
</g>
<g>
	<g>
		<path class="st8" d="M47.52,29.48c2.98,0,5.4-2.42,5.4-5.4c0-0.99,0.81-1.8,1.8-1.8s1.8,0.81,1.8,1.8c0,2.98,2.42,5.4,5.4,5.4
			c0.99,0,1.8,0.81,1.8,1.8s-0.81,1.8-1.8,1.8c-2.98,0-5.4,2.42-5.4,5.4c0,0.99-0.81,1.8-1.8,1.8s-1.8-0.81-1.8-1.8
			c0-2.98-2.42-5.4-5.4-5.4c-0.99,0-1.8-0.81-1.8-1.8S46.53,29.48,47.52,29.48z"/>
	</g>
</g>
<g>
	<g>
		<path class="st8" d="M258.49,105.07c2.98,0,5.4-2.42,5.4-5.4c0-0.99,0.81-1.8,1.8-1.8s1.8,0.81,1.8,1.8c0,2.98,2.42,5.4,5.4,5.4
			c0.99,0,1.8,0.81,1.8,1.8c0,0.99-0.81,1.8-1.8,1.8c-2.98,0-5.4,2.42-5.4,5.4c0,0.99-0.81,1.8-1.8,1.8s-1.8-0.81-1.8-1.8
			c0-2.98-2.42-5.4-5.4-5.4c-0.99,0-1.8-0.81-1.8-1.8C256.69,105.88,257.5,105.07,258.49,105.07z"/>
	</g>
</g>
<g>
	<g>
		<path class="st8" d="M209.82,26.38c2.98,0,5.4-2.42,5.4-5.4c0-0.99,0.81-1.8,1.8-1.8s1.8,0.81,1.8,1.8c0,2.98,2.42,5.4,5.4,5.4
			c0.99,0,1.8,0.81,1.8,1.8s-0.81,1.8-1.8,1.8c-2.98,0-5.4,2.42-5.4,5.4c0,0.99-0.81,1.8-1.8,1.8s-1.8-0.81-1.8-1.8
			c0-2.98-2.42-5.4-5.4-5.4c-0.99,0-1.8-0.81-1.8-1.8S208.83,26.38,209.82,26.38z"/>
	</g>
</g>
<g>
	<g>
		<path class="st8" d="M89.33,311.38c2.98,0,5.4-2.42,5.4-5.4c0-0.99,0.81-1.8,1.8-1.8c0.99,0,1.8,0.81,1.8,1.8
			c0,2.98,2.42,5.4,5.4,5.4c0.99,0,1.8,0.81,1.8,1.8c0,0.99-0.81,1.8-1.8,1.8c-2.98,0-5.4,2.42-5.4,5.4c0,0.99-0.81,1.8-1.8,1.8
			c-0.99,0-1.8-0.81-1.8-1.8c0-2.98-2.42-5.4-5.4-5.4c-0.99,0-1.8-0.81-1.8-1.8C87.53,312.19,88.34,311.38,89.33,311.38z"/>
	</g>
</g>
<g>
	<g>
		<path class="st8" d="M147.52,247.66c2.98,0,5.4-2.42,5.4-5.4c0-0.99,0.81-1.8,1.8-1.8s1.8,0.81,1.8,1.8c0,2.98,2.42,5.4,5.4,5.4
			c0.99,0,1.8,0.81,1.8,1.8s-0.81,1.8-1.8,1.8c-2.98,0-5.4,2.42-5.4,5.4c0,0.99-0.81,1.8-1.8,1.8s-1.8-0.81-1.8-1.8
			c0-2.98-2.42-5.4-5.4-5.4c-0.99,0-1.8-0.81-1.8-1.8S146.53,247.66,147.52,247.66z"/>
	</g>
</g>
<g>
	<circle class="st8" cx="313.34" cy="97.87" r="4.5"/>
</g>
<g>
	<circle class="st8" cx="202.24" cy="166.53" r="4.5"/>
</g>
<g>
	<circle class="st8" cx="110.03" cy="269.29" r="4.5"/>
</g>
<g>
	<circle class="st8" cx="176.22" cy="366.53" r="4.5"/>
</g>
<g>
	<circle class="st8" cx="284.43" cy="371.03" r="4.5"/>
</g>
<g>
	<g>
		<circle class="st8" cx="335.2" cy="39.37" r="3"/>
	</g>
</g>
<g>
	<g>
		<circle class="st8" cx="102.53" cy="19.18" r="3"/>
	</g>
</g>
<g>
	<g>
		<circle class="st8" cx="250.69" cy="50.77" r="3"/>
	</g>
</g>
<g>
	<g>
		<circle class="st8" cx="78.53" cy="246.46" r="3"/>
	</g>
</g>
<g>
	<g>
		<circle class="st8" cx="352.43" cy="211.37" r="3"/>
	</g>
</g>
<g>
	<g>
		<circle class="st8" cx="75.53" cy="355.65" r="3"/>
	</g>
</g>
<g>
	<g>
		<circle class="st8" cx="237.04" cy="153.63" r="3"/>
	</g>
</g>
<g>
	<g>
		<circle class="st8" cx="154.72" cy="316.18" r="3"/>
	</g>
</g>
<g>
	<g>
		<circle class="st8" cx="320.96" cy="358.65" r="3"/>
	</g>
</g>
<path class="st8" d="M69.72,197h-6v-6c0-1.66-1.34-3-3-3s-3,1.34-3,3v6h-6c-1.66,0-3,1.34-3,3c0,1.66,1.34,3,3,3h6v6
	c0,1.66,1.34,3,3,3s3-1.34,3-3v-6h6c1.66,0,3-1.34,3-3C72.72,198.34,71.37,197,69.72,197z"/>
<path class="st8" d="M341.96,158.42h-6v-6c0-1.66-1.34-3-3-3s-3,1.34-3,3v6h-6c-1.66,0-3,1.34-3,3s1.34,3,3,3h6v6c0,1.66,1.34,3,3,3
	s3-1.34,3-3v-6h6c1.66,0,3-1.34,3-3S343.62,158.42,341.96,158.42z"/>
</svg>
