<?xml version="1.0" encoding="utf-8"?>
<!-- Generator: Adobe Illustrator 26.0.2, SVG Export Plug-In . SVG Version: 6.00 Build 0)  -->
<svg version="1.1" id="CRO_x5F_Hub-Chatbot" xmlns="http://www.w3.org/2000/svg" xmlns:xlink="http://www.w3.org/1999/xlink"
	 x="0px" y="0px" viewBox="0 0 400 400" style="enable-background:new 0 0 400 400;" xml:space="preserve">
<style type="text/css">
	.st0{fill:#515979;}
	.st1{fill:#F89D81;}
	.st2{fill:#FBCEC0;}
	.st3{fill:#75A5C3;}
	.st4{fill:#BAD2E1;}
	.st5{fill:#E3EDF3;}
	.st6{fill:#FFFFFF;}
	.st7{fill:#EF7D7D;}
	.st8{fill:#FFE8A0;}
	.st9{fill:#D8EBFB;}
	.st10{fill:#FFF3CF;}
	.st11{fill:#FFD886;}
	.st12{fill:none;}
</style>
<g>
	<path class="st0" d="M199.81,340.72c-0.91,0-1.81-0.01-2.71-0.03c-0.83-0.02-1.49-0.7-1.47-1.53s0.68-1.46,1.53-1.47
		c1.64,0.03,3.3,0.03,4.94,0.01c0.83-0.01,1.51,0.65,1.52,1.48c0.01,0.83-0.65,1.51-1.48,1.52
		C201.37,340.72,200.59,340.72,199.81,340.72z M211.11,340.26c-0.77,0-1.43-0.59-1.49-1.38c-0.07-0.83,0.55-1.55,1.37-1.62
		c1.64-0.14,3.29-0.3,4.92-0.5c0.82-0.11,1.57,0.49,1.67,1.31c0.1,0.82-0.49,1.57-1.31,1.67c-1.66,0.2-3.35,0.37-5.03,0.51
		C211.19,340.26,211.15,340.26,211.11,340.26z M188.15,340.23c-0.04,0-0.09,0-0.13-0.01c-1.67-0.14-3.36-0.32-5.03-0.52
		c-0.82-0.1-1.41-0.85-1.31-1.67c0.1-0.82,0.85-1.4,1.67-1.31c1.63,0.2,3.28,0.37,4.92,0.51c0.83,0.07,1.44,0.8,1.37,1.62
		C189.57,339.64,188.92,340.23,188.15,340.23z M224.97,338.39c-0.71,0-1.34-0.5-1.47-1.22c-0.15-0.81,0.38-1.6,1.2-1.75
		c1.62-0.31,3.25-0.64,4.84-1.01c0.81-0.19,1.61,0.32,1.79,1.13s-0.32,1.61-1.13,1.79c-1.63,0.37-3.29,0.72-4.95,1.03
		C225.16,338.38,225.07,338.39,224.97,338.39z M174.29,338.32c-0.09,0-0.19-0.01-0.28-0.03c-1.64-0.31-3.3-0.66-4.95-1.04
		c-0.81-0.19-1.31-0.99-1.13-1.8c0.19-0.81,0.99-1.31,1.8-1.13c1.61,0.37,3.24,0.71,4.84,1.02c0.81,0.16,1.35,0.94,1.19,1.75
		C175.62,337.82,175,338.32,174.29,338.32z M238.57,335.08c-0.65,0-1.24-0.42-1.44-1.07c-0.24-0.79,0.21-1.63,1.01-1.87
		c1.57-0.47,3.15-0.97,4.71-1.5c0.78-0.27,1.64,0.15,1.9,0.94c0.27,0.78-0.15,1.64-0.94,1.9c-1.59,0.54-3.21,1.06-4.81,1.54
		C238.85,335.06,238.71,335.08,238.57,335.08z M160.7,334.98c-0.14,0-0.29-0.02-0.43-0.06c-1.61-0.49-3.24-1.01-4.83-1.55
		c-0.78-0.27-1.2-1.12-0.93-1.91c0.27-0.78,1.12-1.2,1.91-0.93c1.55,0.53,3.14,1.04,4.72,1.52c0.79,0.24,1.24,1.08,1,1.87
		C161.94,334.56,161.35,334.98,160.7,334.98z M251.73,330.39c-0.59,0-1.15-0.35-1.39-0.92c-0.32-0.77,0.04-1.64,0.81-1.96
		c1.5-0.62,3.02-1.29,4.51-1.98c0.75-0.35,1.64-0.02,1.99,0.73s0.02,1.64-0.73,1.99c-1.53,0.71-3.09,1.39-4.62,2.02
		C252.12,330.35,251.92,330.39,251.73,330.39z M147.51,330.23c-0.19,0-0.39-0.04-0.58-0.12c-1.54-0.65-3.1-1.33-4.63-2.05
		c-0.75-0.35-1.08-1.24-0.73-1.99c0.35-0.75,1.24-1.08,1.99-0.73c1.5,0.7,3.03,1.37,4.53,2c0.76,0.32,1.12,1.2,0.8,1.96
		C148.66,329.88,148.1,330.23,147.51,330.23z M264.33,324.35c-0.53,0-1.05-0.28-1.32-0.78c-0.4-0.73-0.13-1.64,0.6-2.03
		c1.44-0.78,2.88-1.6,4.29-2.44c0.71-0.42,1.63-0.19,2.06,0.52c0.42,0.71,0.19,1.63-0.52,2.06c-1.44,0.85-2.91,1.69-4.39,2.49
		C264.82,324.3,264.57,324.35,264.33,324.35z M134.9,324.14c-0.24,0-0.49-0.06-0.72-0.18c-1.47-0.81-2.94-1.65-4.39-2.52
		c-0.71-0.42-0.94-1.35-0.52-2.06c0.43-0.71,1.35-0.94,2.06-0.52c1.42,0.85,2.86,1.67,4.3,2.46c0.73,0.4,0.99,1.31,0.59,2.04
		C135.94,323.86,135.43,324.14,134.9,324.14z M276.24,317.04c-0.48,0-0.95-0.23-1.24-0.65c-0.47-0.68-0.3-1.62,0.39-2.09
		c1.35-0.93,2.71-1.9,4.02-2.87c0.67-0.49,1.61-0.36,2.1,0.31c0.49,0.67,0.36,1.6-0.31,2.1c-1.34,1-2.72,1.98-4.11,2.94
		C276.83,316.96,276.53,317.04,276.24,317.04z M122.99,316.77c-0.29,0-0.59-0.09-0.85-0.27c-1.38-0.95-2.76-1.95-4.1-2.96
		c-0.66-0.5-0.8-1.44-0.3-2.1c0.5-0.66,1.44-0.8,2.1-0.3c1.32,0.99,2.67,1.96,4.02,2.89c0.68,0.47,0.85,1.41,0.38,2.09
		C123.93,316.54,123.46,316.77,122.99,316.77z M287.34,308.54c-0.42,0-0.85-0.18-1.14-0.53c-0.54-0.63-0.46-1.58,0.17-2.12
		c1.25-1.06,2.5-2.16,3.7-3.27c0.61-0.56,1.56-0.52,2.12,0.09c0.56,0.61,0.52,1.56-0.09,2.12c-1.24,1.13-2.51,2.26-3.79,3.34
		C288.03,308.42,287.68,308.54,287.34,308.54z M111.91,308.22c-0.35,0-0.69-0.12-0.98-0.36c-1.27-1.09-2.54-2.22-3.78-3.36
		c-0.61-0.56-0.65-1.51-0.08-2.12s1.51-0.65,2.12-0.08c1.21,1.12,2.45,2.22,3.69,3.29c0.63,0.54,0.7,1.49,0.16,2.12
		C112.75,308.04,112.33,308.22,111.91,308.22z M297.51,298.94c-0.37,0-0.75-0.14-1.04-0.42c-0.6-0.57-0.62-1.52-0.05-2.12
		c1.14-1.19,2.26-2.41,3.35-3.64c0.55-0.62,1.5-0.68,2.12-0.13c0.62,0.55,0.68,1.5,0.13,2.12c-1.11,1.25-2.26,2.5-3.42,3.72
		C298.3,298.78,297.91,298.94,297.51,298.94z M101.77,298.58c-0.4,0-0.79-0.16-1.09-0.47c-1.15-1.21-2.3-2.47-3.41-3.73
		c-0.55-0.62-0.49-1.57,0.13-2.12c0.62-0.55,1.57-0.49,2.12,0.13c1.09,1.23,2.21,2.46,3.33,3.65c0.57,0.6,0.54,1.55-0.06,2.12
		C102.51,298.44,102.14,298.58,101.77,298.58z M306.64,288.34c-0.32,0-0.65-0.1-0.92-0.32c-0.65-0.51-0.77-1.45-0.26-2.1
		c1-1.28,1.99-2.62,2.96-3.96c0.48-0.67,1.42-0.83,2.09-0.34c0.67,0.48,0.83,1.42,0.34,2.09c-0.99,1.38-2.01,2.74-3.03,4.05
		C307.53,288.14,307.09,288.34,306.64,288.34z M92.68,287.95c-0.45,0-0.89-0.2-1.19-0.58c-1.02-1.33-2.03-2.69-3.01-4.06
		c-0.48-0.67-0.32-1.61,0.35-2.09c0.68-0.48,1.61-0.32,2.09,0.35c0.95,1.33,1.94,2.67,2.94,3.97c0.51,0.66,0.38,1.6-0.27,2.1
		C93.32,287.84,93,287.95,92.68,287.95z M314.64,276.84c-0.27,0-0.54-0.07-0.79-0.23c-0.7-0.44-0.92-1.36-0.48-2.07
		c0.87-1.39,1.72-2.82,2.53-4.25c0.41-0.72,1.33-0.97,2.05-0.56c0.72,0.41,0.97,1.33,0.56,2.05c-0.83,1.46-1.71,2.92-2.59,4.35
		C315.63,276.59,315.14,276.84,314.64,276.84z M84.74,276.44c-0.5,0-0.99-0.25-1.28-0.71c-0.88-1.43-1.75-2.89-2.57-4.34
		c-0.41-0.72-0.16-1.64,0.57-2.04c0.72-0.41,1.64-0.16,2.04,0.57c0.8,1.42,1.65,2.85,2.51,4.25c0.43,0.71,0.22,1.63-0.49,2.06
		C85.28,276.37,85,276.44,84.74,276.44z M321.41,264.58c-0.22,0-0.44-0.05-0.65-0.15c-0.75-0.36-1.06-1.26-0.69-2
		c0.72-1.48,1.42-3,2.08-4.49c0.33-0.76,1.22-1.1,1.98-0.77c0.76,0.33,1.1,1.22,0.77,1.98c-0.67,1.53-1.39,3.08-2.13,4.6
		C322.5,264.27,321.96,264.58,321.41,264.58z M78.03,264.18c-0.56,0-1.09-0.31-1.35-0.85c-0.73-1.51-1.43-3.05-2.1-4.58
		c-0.33-0.76,0.01-1.64,0.77-1.97c0.76-0.33,1.64,0.01,1.98,0.77c0.66,1.5,1.35,3.01,2.06,4.48c0.36,0.75,0.05,1.64-0.7,2
		C78.47,264.14,78.24,264.18,78.03,264.18z M326.87,251.68c-0.17,0-0.34-0.03-0.51-0.09c-0.78-0.28-1.18-1.14-0.9-1.92
		c0.55-1.53,1.09-3.1,1.6-4.69c0.25-0.79,1.1-1.22,1.89-0.97c0.79,0.25,1.22,1.1,0.97,1.89c-0.52,1.62-1.07,3.24-1.64,4.8
		C328.05,251.3,327.48,251.68,326.87,251.68z M72.63,251.31c-0.61,0-1.19-0.38-1.41-0.99c-0.57-1.58-1.11-3.19-1.62-4.79
		c-0.25-0.79,0.19-1.63,0.98-1.88c0.79-0.25,1.63,0.19,1.88,0.98c0.5,1.57,1.03,3.14,1.58,4.68c0.28,0.78-0.12,1.64-0.9,1.92
		C72.97,251.28,72.79,251.31,72.63,251.31z M330.95,238.28c-0.12,0-0.24-0.01-0.36-0.04c-0.8-0.2-1.29-1.01-1.09-1.82
		c0.39-1.59,0.76-3.21,1.1-4.82c0.17-0.81,0.97-1.33,1.78-1.16c0.81,0.17,1.33,0.96,1.16,1.78c-0.34,1.64-0.72,3.3-1.13,4.93
		C332.23,237.83,331.62,238.28,330.95,238.28z M68.59,237.91c-0.67,0-1.29-0.46-1.46-1.14c-0.4-1.62-0.77-3.28-1.11-4.93
		c-0.17-0.81,0.35-1.6,1.17-1.77c0.82-0.17,1.6,0.36,1.77,1.17c0.33,1.61,0.7,3.23,1.09,4.82c0.2,0.8-0.29,1.62-1.1,1.81
		C68.83,237.9,68.71,237.91,68.59,237.91z M333.61,224.55c-0.07,0-0.14,0-0.21-0.01c-0.82-0.12-1.39-0.87-1.28-1.69
		c0.23-1.63,0.43-3.28,0.6-4.91c0.08-0.82,0.83-1.41,1.65-1.34c0.82,0.08,1.42,0.82,1.34,1.65c-0.17,1.67-0.38,3.35-0.61,5.02
		C334.99,224.01,334.34,224.55,333.61,224.55z M65.97,224.17c-0.74,0-1.38-0.54-1.48-1.3c-0.23-1.66-0.43-3.35-0.6-5.02
		c-0.08-0.83,0.52-1.56,1.34-1.64c0.83-0.09,1.56,0.52,1.64,1.34c0.16,1.63,0.36,3.28,0.58,4.91c0.11,0.82-0.46,1.58-1.28,1.69
		C66.1,224.17,66.03,224.17,65.97,224.17z M334.83,211.61c-0.02,0-0.04,0-0.05,0c-0.83-0.03-1.47-0.72-1.45-1.55
		c0.06-1.64,0.09-3.3,0.09-4.94c0-0.83,0.67-1.5,1.5-1.5s1.5,0.67,1.5,1.5c0,1.67-0.03,3.37-0.09,5.05
		C336.3,210.97,335.64,211.61,334.83,211.61z M64.78,210.23c-0.81,0-1.47-0.64-1.5-1.45c-0.05-1.54-0.08-3.11-0.08-4.67l0-0.39
		c0-0.83,0.67-1.49,1.5-1.49c0,0,0,0,0.01,0c0.83,0,1.5,0.68,1.49,1.51l0,0.38c0,1.52,0.03,3.06,0.08,4.57
		c0.03,0.83-0.62,1.52-1.45,1.55C64.81,210.23,64.8,210.23,64.78,210.23z M334.85,198.39c-0.81,0-1.47-0.64-1.5-1.45
		c-0.05-1.63-0.13-3.29-0.24-4.94c-0.05-0.83,0.57-1.54,1.4-1.6c0.81-0.06,1.54,0.57,1.6,1.4c0.11,1.68,0.2,3.38,0.25,5.05
		c0.03,0.83-0.62,1.52-1.45,1.54C334.89,198.39,334.87,198.39,334.85,198.39z M65.03,196.25c-0.03,0-0.07,0-0.1,0
		c-0.83-0.06-1.45-0.77-1.39-1.6c0.11-1.68,0.26-3.37,0.44-5.03c0.09-0.82,0.82-1.43,1.65-1.33c0.82,0.09,1.42,0.83,1.33,1.65
		c-0.17,1.63-0.32,3.29-0.43,4.92C66.47,195.64,65.81,196.25,65.03,196.25z M333.71,186.44c-0.74,0-1.38-0.55-1.48-1.3
		c-0.22-1.62-0.47-3.27-0.75-4.89c-0.14-0.82,0.41-1.59,1.22-1.73c0.81-0.14,1.59,0.41,1.73,1.22c0.29,1.66,0.54,3.34,0.77,5
		c0.11,0.82-0.47,1.58-1.29,1.69C333.84,186.44,333.77,186.44,333.71,186.44z M66.7,182.36c-0.09,0-0.17-0.01-0.26-0.02
		c-0.82-0.14-1.36-0.92-1.22-1.73c0.29-1.65,0.61-3.32,0.96-4.96c0.17-0.81,0.97-1.33,1.78-1.16c0.81,0.17,1.33,0.97,1.16,1.78
		c-0.34,1.6-0.65,3.24-0.94,4.85C68.05,181.84,67.42,182.36,66.7,182.36z M331.13,173.7c-0.68,0-1.29-0.46-1.46-1.15
		c-0.38-1.58-0.8-3.19-1.25-4.78c-0.23-0.8,0.24-1.63,1.04-1.85c0.8-0.22,1.63,0.24,1.85,1.04c0.46,1.63,0.89,3.27,1.28,4.89
		c0.19,0.81-0.3,1.62-1.11,1.81C331.36,173.68,331.24,173.7,331.13,173.7z M69.81,168.72c-0.14,0-0.27-0.02-0.41-0.06
		c-0.8-0.23-1.26-1.06-1.03-1.85c0.46-1.62,0.95-3.25,1.47-4.84c0.26-0.79,1.1-1.22,1.89-0.96c0.79,0.26,1.22,1.1,0.96,1.89
		c-0.5,1.55-0.99,3.15-1.44,4.73C71.06,168.29,70.46,168.72,69.81,168.72z M327.13,160.29c-0.62,0-1.19-0.38-1.41-1
		c-0.55-1.55-1.14-3.1-1.74-4.62c-0.31-0.77,0.07-1.64,0.84-1.95c0.77-0.31,1.64,0.07,1.95,0.84c0.62,1.55,1.22,3.15,1.78,4.73
		c0.28,0.78-0.13,1.64-0.91,1.92C327.47,160.26,327.3,160.29,327.13,160.29z M74.32,155.46c-0.19,0-0.37-0.03-0.56-0.11
		c-0.77-0.31-1.14-1.18-0.84-1.95c0.62-1.56,1.29-3.13,1.97-4.67c0.34-0.76,1.22-1.1,1.98-0.76c0.76,0.34,1.1,1.22,0.76,1.98
		c-0.67,1.51-1.32,3.04-1.93,4.57C75.48,155.11,74.91,155.46,74.32,155.46z M321.76,147.38c-0.56,0-1.1-0.31-1.35-0.85
		c-0.7-1.47-1.45-2.96-2.21-4.41c-0.38-0.73-0.1-1.64,0.63-2.02c0.73-0.39,1.64-0.1,2.03,0.63c0.78,1.48,1.54,3,2.26,4.51
		c0.36,0.75,0.04,1.64-0.71,2C322.2,147.34,321.98,147.38,321.76,147.38z M80.19,142.74c-0.24,0-0.47-0.06-0.7-0.17
		c-0.73-0.39-1.01-1.29-0.63-2.03c0.78-1.48,1.6-2.98,2.44-4.43c0.41-0.72,1.33-0.97,2.05-0.55c0.72,0.41,0.97,1.33,0.55,2.05
		c-0.82,1.43-1.62,2.89-2.39,4.34C81.25,142.45,80.73,142.74,80.19,142.74z M315.09,135.11c-0.5,0-1-0.25-1.28-0.72
		c-0.86-1.4-1.75-2.8-2.66-4.16c-0.46-0.69-0.27-1.62,0.42-2.08c0.69-0.46,1.62-0.27,2.08,0.42c0.93,1.39,1.84,2.82,2.72,4.25
		c0.43,0.71,0.21,1.63-0.5,2.06C315.63,135.04,315.36,135.11,315.09,135.11z M87.35,130.71c-0.29,0-0.58-0.08-0.83-0.25
		c-0.69-0.46-0.88-1.39-0.42-2.08c0.93-1.39,1.9-2.79,2.89-4.16c0.48-0.67,1.42-0.82,2.09-0.34c0.67,0.48,0.82,1.42,0.34,2.09
		c-0.96,1.33-1.91,2.7-2.82,4.06C88.31,130.47,87.84,130.71,87.35,130.71z M307.18,123.58c-0.45,0-0.9-0.2-1.19-0.59
		c-1-1.31-2.03-2.61-3.07-3.87c-0.53-0.64-0.44-1.58,0.2-2.11c0.64-0.53,1.58-0.44,2.11,0.2c1.06,1.29,2.12,2.62,3.14,3.95
		c0.5,0.66,0.38,1.6-0.28,2.1C307.82,123.48,307.5,123.58,307.18,123.58z M95.71,119.48c-0.34,0-0.68-0.11-0.96-0.34
		c-0.64-0.53-0.73-1.47-0.2-2.11c1.07-1.29,2.18-2.58,3.3-3.83c0.55-0.62,1.5-0.67,2.12-0.12c0.62,0.55,0.67,1.5,0.12,2.12
		c-1.09,1.22-2.18,2.48-3.22,3.75C96.57,119.3,96.15,119.48,95.71,119.48z M298.12,112.93c-0.4,0-0.8-0.16-1.09-0.47
		c-1.13-1.2-2.29-2.38-3.46-3.53c-0.59-0.58-0.6-1.53-0.02-2.12c0.58-0.59,1.53-0.6,2.12-0.02c1.19,1.17,2.38,2.39,3.53,3.61
		c0.57,0.6,0.54,1.55-0.06,2.12C298.86,112.79,298.49,112.93,298.12,112.93z M105.19,109.18c-0.39,0-0.78-0.15-1.07-0.45
		c-0.58-0.59-0.57-1.54,0.02-2.12c1.2-1.17,2.43-2.34,3.67-3.47c0.61-0.56,1.56-0.51,2.12,0.1c0.56,0.61,0.51,1.56-0.1,2.12
		c-1.21,1.1-2.42,2.25-3.59,3.4C105.94,109.03,105.56,109.18,105.19,109.18z M288,103.26c-0.35,0-0.7-0.12-0.98-0.36
		c-1.24-1.07-2.52-2.13-3.8-3.16c-0.65-0.52-0.75-1.46-0.23-2.11c0.52-0.65,1.46-0.75,2.11-0.23c1.31,1.05,2.62,2.14,3.89,3.23
		c0.63,0.54,0.7,1.49,0.16,2.12C288.84,103.08,288.42,103.26,288,103.26z M115.66,99.91c-0.44,0-0.88-0.19-1.17-0.56
		c-0.52-0.65-0.41-1.59,0.24-2.11c1.31-1.04,2.66-2.08,4.01-3.07c0.66-0.49,1.6-0.35,2.1,0.32c0.49,0.67,0.35,1.61-0.32,2.1
		c-1.32,0.97-2.64,1.99-3.92,3.01C116.32,99.8,115.99,99.91,115.66,99.91z M127.03,91.77c-0.49,0-0.98-0.24-1.26-0.69
		c-0.45-0.7-0.24-1.62,0.45-2.07c1.4-0.9,2.85-1.79,4.3-2.64c0.71-0.42,1.63-0.18,2.05,0.53c0.42,0.71,0.18,1.63-0.53,2.05
		c-1.42,0.84-2.83,1.71-4.2,2.59C127.59,91.69,127.31,91.77,127.03,91.77z M265.06,87.28c-0.25,0-0.49-0.06-0.72-0.19
		c-1.44-0.8-2.91-1.57-4.38-2.31c-0.74-0.37-1.04-1.28-0.66-2.02s1.28-1.03,2.02-0.66c1.5,0.76,3,1.55,4.47,2.37
		c0.72,0.4,0.99,1.31,0.59,2.04C266.1,87,265.59,87.28,265.06,87.28z M139.17,84.85c-0.55,0-1.08-0.3-1.34-0.83
		c-0.37-0.74-0.07-1.64,0.67-2.01c1.5-0.75,3.03-1.49,4.55-2.18c0.75-0.35,1.64-0.01,1.99,0.74s0.01,1.64-0.74,1.99
		c-1.49,0.68-2.98,1.4-4.45,2.13C139.63,84.8,139.4,84.85,139.17,84.85z M252.46,81.15c-0.19,0-0.39-0.04-0.58-0.12
		c-1.52-0.64-3.07-1.27-4.6-1.85c-0.77-0.29-1.16-1.16-0.87-1.94c0.29-0.77,1.16-1.16,1.94-0.87c1.56,0.59,3.14,1.23,4.7,1.89
		c0.76,0.32,1.12,1.2,0.8,1.97C253.6,80.81,253.05,81.15,252.46,81.15z M151.95,79.23c-0.61,0-1.18-0.37-1.4-0.97
		c-0.29-0.77,0.1-1.64,0.87-1.93c1.57-0.59,3.17-1.17,4.76-1.7c0.78-0.27,1.64,0.16,1.9,0.94c0.26,0.79-0.16,1.64-0.94,1.9
		c-1.55,0.52-3.12,1.08-4.65,1.67C152.31,79.2,152.13,79.23,151.95,79.23z M239.29,76.37c-0.15,0-0.29-0.02-0.44-0.07
		c-1.57-0.48-3.17-0.93-4.75-1.35c-0.8-0.21-1.28-1.03-1.07-1.83s1.03-1.27,1.83-1.07c1.62,0.43,3.26,0.9,4.86,1.38
		c0.79,0.24,1.24,1.08,1,1.87C240.53,75.95,239.93,76.37,239.29,76.37z M165.28,74.96c-0.66,0-1.27-0.45-1.45-1.12
		c-0.21-0.8,0.27-1.62,1.07-1.83c1.63-0.43,3.28-0.83,4.91-1.2c0.81-0.18,1.61,0.33,1.79,1.14c0.18,0.81-0.33,1.61-1.14,1.79
		c-1.6,0.36-3.21,0.75-4.8,1.17C165.53,74.94,165.4,74.96,165.28,74.96z M225.72,72.99c-0.1,0-0.19-0.01-0.29-0.03
		c-1.6-0.31-3.24-0.6-4.87-0.85c-0.82-0.13-1.38-0.89-1.25-1.71c0.13-0.82,0.89-1.38,1.71-1.25c1.67,0.26,3.34,0.55,4.98,0.87
		c0.81,0.16,1.34,0.95,1.19,1.76C227.05,72.49,226.42,72.99,225.72,72.99z M178.97,72.1c-0.73,0-1.37-0.53-1.48-1.27
		c-0.13-0.82,0.43-1.58,1.25-1.71c1.66-0.26,3.34-0.49,5.01-0.68c0.82-0.1,1.57,0.49,1.66,1.31c0.1,0.82-0.49,1.57-1.31,1.66
		c-1.63,0.19-3.28,0.42-4.9,0.67C179.12,72.1,179.04,72.1,178.97,72.1z M211.86,71.04c-0.04,0-0.09,0-0.13-0.01
		c-1.63-0.14-3.29-0.26-4.93-0.34c-0.83-0.04-1.46-0.75-1.42-1.58c0.04-0.83,0.72-1.47,1.58-1.42c1.68,0.09,3.38,0.21,5.04,0.35
		c0.83,0.07,1.43,0.8,1.36,1.63C213.29,70.45,212.63,71.04,211.86,71.04z M192.88,70.68c-0.79,0-1.46-0.62-1.5-1.42
		c-0.04-0.83,0.6-1.53,1.42-1.57c1.67-0.08,3.37-0.14,5.05-0.16c0.82-0.01,1.51,0.65,1.52,1.48c0.01,0.83-0.65,1.51-1.48,1.52
		c-1.64,0.02-3.31,0.08-4.94,0.16C192.94,70.68,192.91,70.68,192.88,70.68z"/>
</g>
<g>
	<g>
		<g>
			<circle class="st1" cx="115.81" cy="234.22" r="12"/>
		</g>
		<g>
			<path class="st0" d="M115.81,225.22c4.97,0,9,4.03,9,9c0,4.97-4.03,9-9,9c-4.97,0-9-4.03-9-9
				C106.81,229.25,110.84,225.22,115.81,225.22 M115.81,219.22c-8.27,0-15,6.73-15,15s6.73,15,15,15s15-6.73,15-15
				S124.08,219.22,115.81,219.22L115.81,219.22z"/>
		</g>
	</g>
	<g>
		<path class="st2" d="M120.81,235.65c-0.79,0-1.43-0.64-1.43-1.43c0-1.97-1.6-3.57-3.57-3.57c-0.79,0-1.43-0.64-1.43-1.43
			s0.64-1.43,1.43-1.43c3.54,0,6.43,2.88,6.43,6.43C122.24,235.01,121.6,235.65,120.81,235.65z"/>
	</g>
	<g>
		<g>
			<path class="st3" d="M39.81,321.22c-2.76,0-5-2.24-5-5v-24c0-2.76,2.24-5,5-5h12c1.66,0,3,1.34,3,3v28c0,1.66-1.34,3-3,3H39.81z"
				/>
		</g>
		<g>
			<g>
				<path class="st0" d="M51.81,290.22v28h-12c-1.1,0-2-0.9-2-2v-24c0-1.1,0.9-2,2-2H51.81 M51.81,284.22h-12c-4.41,0-8,3.59-8,8v24
					c0,4.41,3.59,8,8,8h12c3.31,0,6-2.69,6-6v-28C57.81,286.91,55.13,284.22,51.81,284.22L51.81,284.22z"/>
			</g>
		</g>
	</g>
	<g>
		<g>
			<path class="st3" d="M94.81,257.22c-1.66,0-3-1.34-3-3v-12c0-2.76,2.24-5,5-5h38c2.76,0,5,2.24,5,5v12c0,1.66-1.34,3-3,3H94.81z"
				/>
		</g>
		<g>
			<g>
				<path class="st0" d="M134.81,240.22c1.1,0,2,0.9,2,2v12h-42v-12c0-1.1,0.9-2,2-2H134.81 M134.81,234.22h-38c-4.41,0-8,3.59-8,8
					v12c0,3.31,2.69,6,6,6h42c3.31,0,6-2.69,6-6v-12C142.81,237.81,139.22,234.22,134.81,234.22L134.81,234.22z"/>
			</g>
		</g>
	</g>
	<g>
		<g>
			<path class="st3" d="M179.81,321.22c-1.66,0-3-1.34-3-3v-28c0-1.66,1.34-3,3-3h12c2.76,0,5,2.24,5,5v24c0,2.76-2.24,5-5,5H179.81
				z"/>
		</g>
		<g>
			<g>
				<path class="st0" d="M191.81,290.22c1.1,0,2,0.9,2,2l0,24c0,1.1-0.9,2-2,2h-12l0-28H191.81 M191.81,284.22h-12
					c-3.31,0-6,2.69-6,6l0,28c0,1.59,0.63,3.12,1.76,4.24c1.13,1.13,2.65,1.76,4.24,1.76h12c4.41,0,8-3.59,8-8l0-24
					C199.81,287.81,196.22,284.22,191.81,284.22L191.81,284.22z"/>
			</g>
		</g>
	</g>
	<g>
		<path class="st4" d="M51.81,296.22h-14v-4c0-1.1,0.9-2,2-2h12V296.22z"/>
	</g>
	<g>
		<path class="st4" d="M191.81,290.22h-12l0,6h14v-4C193.81,291.12,192.92,290.22,191.81,290.22z"/>
	</g>
	<g>
		<g>
			<path class="st4" d="M61.81,357.22c-7.17,0-13-5.83-13-13v-80c0-7.17,5.83-13,13-13h108c7.17,0,13,5.83,13,13v80
				c0,7.17-5.83,13-13,13H61.81z"/>
		</g>
		<g>
			<path class="st0" d="M169.81,254.22c5.52,0,10,4.48,10,10v80c0,5.52-4.48,10-10,10h-108c-5.52,0-10-4.48-10-10v-80
				c0-5.52,4.48-10,10-10H169.81 M169.81,248.22h-108c-8.82,0-16,7.18-16,16v80c0,8.82,7.18,16,16,16h108c8.82,0,16-7.18,16-16v-80
				C185.81,255.4,178.63,248.22,169.81,248.22L169.81,248.22z"/>
		</g>
	</g>
	<g>
		<path class="st5" d="M171.81,278.22c-1.1,0-2-0.9-2-2v-9c0-1.65-1.35-3-3-3h-9c-1.1,0-2-0.9-2-2s0.9-2,2-2h9c3.86,0,7,3.14,7,7v9
			C173.81,277.33,172.92,278.22,171.81,278.22z"/>
	</g>
	<g>
		<g>
			<g>
				<g>
					<path class="st0" d="M140.81,306.8c-0.41,0-0.82-0.12-1.17-0.38c-2.07-1.5-5.58-1.5-7.65,0c-0.89,0.65-2.15,0.45-2.79-0.45
						s-0.45-2.14,0.45-2.79c3.46-2.51,8.88-2.51,12.35,0c0.89,0.65,1.09,1.9,0.45,2.79C142.04,306.51,141.43,306.8,140.81,306.8z"/>
				</g>
				<g>
					<g>
						<circle class="st0" cx="135.81" cy="296.05" r="8"/>
					</g>
					<g>
						<circle class="st6" cx="137.81" cy="296.05" r="2"/>
					</g>
				</g>
				<g>
					<path class="st0" d="M129.79,278.44c3.72-3.35,9.76-3.94,13.88-0.91c2.11,1.48,5,5.36,1.76,7.02
						c-0.81,0.36-1.63,0.13-2.36-0.22c-3.13-1.62-5.99-2.14-9.47-1.83c-0.86,0.07-1.72,0.08-2.53-0.06
						C129.14,282.28,128.34,279.67,129.79,278.44L129.79,278.44z"/>
				</g>
				<g>
					<path class="st0" d="M100.81,306.8c-0.41,0-0.82-0.12-1.17-0.38c-2.07-1.5-5.58-1.5-7.65,0c-0.89,0.65-2.15,0.45-2.79-0.45
						s-0.45-2.14,0.45-2.79c3.46-2.51,8.88-2.51,12.35,0c0.89,0.65,1.09,1.9,0.45,2.79C102.04,306.51,101.43,306.8,100.81,306.8z"/>
				</g>
				<g>
					<g>
						<circle class="st0" cx="95.81" cy="296.05" r="8"/>
					</g>
					<g>
						<circle class="st6" cx="97.81" cy="296.05" r="2"/>
					</g>
				</g>
				<g>
					<path class="st0" d="M99.61,282.55c-1.87-0.01-4.13-0.27-5.93,0.04c-1.94,0.25-3.22,0.88-5.13,1.75
						c-1.34,0.75-3.04,0.42-3.66-1.08c-0.25-0.61-0.23-1.26,0-1.82c0.61-1.47,1.61-2.9,3.06-3.9c2.72-2.06,6.62-2.44,9.74-1.42
						c2.2,0.7,6.47,2.78,4.31,5.58C101.42,282.41,100.44,282.46,99.61,282.55L99.61,282.55z"/>
				</g>
			</g>
		</g>
		<g>
			<path class="st0" d="M133.82,311.2L133.82,311.2H97.81c-2.76,0-5,2.24-5,5c0,12.68,10.32,23,23,23c12.62,0,22.9-10.22,23-22.82
				c0-0.06,0-0.12,0-0.18C138.81,313.44,136.58,311.2,133.82,311.2z"/>
			<g>
				<g>
					<ellipse class="st7" cx="115.81" cy="328.2" rx="13.39" ry="6"/>
				</g>
			</g>
		</g>
	</g>
</g>
<g>
	<g>
		<g>
			<path class="st6" d="M174.94,144.82c-0.39,0-0.78-0.07-1.15-0.23c-1.12-0.46-1.85-1.56-1.85-2.77v-21h-23c-9.37,0-17-7.63-17-17
				v-48c0-9.37,7.63-17,17-17h102c9.37,0,17,7.63,17,17v48c0,9.37-7.63,17-17,17h-50.76l-23.12,23.12
				C176.49,144.52,175.72,144.82,174.94,144.82z"/>
		</g>
		<g>
			<g>
				<path class="st0" d="M250.94,41.82c7.73,0,14,6.27,14,14v48c0,7.73-6.27,14-14,14h-52l-24,24v-24h-26c-7.73,0-14-6.27-14-14v-48
					c0-7.73,6.27-14,14-14H250.94 M250.94,35.82h-102c-11.03,0-20,8.97-20,20v48c0,11.03,8.97,20,20,20h20v18
					c0,2.43,1.46,4.61,3.7,5.54c0.74,0.31,1.52,0.46,2.29,0.46c1.56,0,3.1-0.61,4.24-1.76l22.24-22.24h49.51c11.03,0,20-8.97,20-20
					v-48C270.94,44.79,261.97,35.82,250.94,35.82L250.94,35.82z"/>
			</g>
		</g>
	</g>
	<g>
		<g>
			<path class="st8" d="M314.94,204.82c-0.78,0-1.55-0.3-2.12-0.88l-23.12-23.12h-50.76c-9.37,0-17-7.63-17-17v-48
				c0-9.37,7.63-17,17-17h102c9.37,0,17,7.63,17,17v48c0,9.37-7.63,17-17,17h-23v21c0,1.21-0.73,2.31-1.85,2.77
				C315.71,204.75,315.32,204.82,314.94,204.82z"/>
		</g>
		<g>
			<path class="st0" d="M340.94,101.82c7.73,0,14,6.27,14,14v48c0,7.73-6.27,14-14,14h-26v24l-24-24h-52c-7.73,0-14-6.27-14-14v-48
				c0-7.73,6.27-14,14-14H340.94 M340.94,95.82h-102c-11.03,0-20,8.97-20,20v48c0,11.03,8.97,20,20,20h49.51l22.24,22.24
				c1.15,1.15,2.68,1.76,4.24,1.76c0.77,0,1.55-0.15,2.29-0.46c2.24-0.93,3.7-3.12,3.7-5.54v-18h20c11.03,0,20-8.97,20-20v-48
				C360.94,104.79,351.97,95.82,340.94,95.82L340.94,95.82z"/>
		</g>
	</g>
	<g>
		<path class="st9" d="M256.94,65.82c-1.1,0-2-0.9-2-2v-6c0-3.31-2.69-6-6-6h-7.75c-1.1,0-2-0.9-2-2s0.9-2,2-2h7.75
			c5.51,0,10,4.49,10,10v6C258.94,64.93,258.04,65.82,256.94,65.82z"/>
	</g>
	<g>
		<path class="st10" d="M346.94,125.82c-1.1,0-2-0.9-2-2v-6c0-3.31-2.69-6-6-6h-7.75c-1.1,0-2-0.9-2-2s0.9-2,2-2h7.75
			c5.51,0,10,4.49,10,10v6C348.94,124.93,348.04,125.82,346.94,125.82z"/>
	</g>
	<g>
		<g>
			<g>
				<path class="st0" d="M299.05,119.94c3.68-3.2,9.6-3.78,13.59-0.77c1.81,1.35,4.82,4.88,1.93,6.45c-0.74,0.34-1.5,0.14-2.13-0.25
					c-1.05-0.55-1.86-1.12-2.73-1.43c-2.91-1.36-6.23-0.67-9.32-0.51C298.56,123.5,297.67,121.1,299.05,119.94L299.05,119.94z"/>
			</g>
			<g>
				<path class="st0" d="M278.87,123.43c-1.94-0.19-4.24-0.52-6.14-0.2c-2.14,0.25-3.69,1.26-5.66,2.33c-1,0.52-2.23,0.14-2.75-0.86
					c-0.3-0.57-0.3-1.22-0.06-1.77c1.83-4.71,7.87-6.81,12.48-5.23c1.95,0.66,6.22,2.41,4.28,5.04
					C280.47,123.42,279.64,123.48,278.87,123.43L278.87,123.43z"/>
			</g>
			<g>
				<path class="st0" d="M279.96,139.98c-1.38,0-2.5-1.12-2.5-2.5c0-1.38-1.12-2.5-2.5-2.5s-2.5,1.12-2.5,2.5
					c0,1.38-1.12,2.5-2.5,2.5s-2.5-1.12-2.5-2.5c0-4.14,3.36-7.5,7.5-7.5s7.5,3.36,7.5,7.5
					C282.46,138.86,281.34,139.98,279.96,139.98z"/>
			</g>
			<g>
				<path class="st0" d="M309.92,139.98c-1.38,0-2.5-1.12-2.5-2.5c0-1.38-1.12-2.5-2.5-2.5s-2.5,1.12-2.5,2.5
					c0,1.38-1.12,2.5-2.5,2.5s-2.5-1.12-2.5-2.5c0-4.14,3.36-7.5,7.5-7.5s7.5,3.36,7.5,7.5
					C312.42,138.86,311.3,139.98,309.92,139.98z"/>
			</g>
		</g>
		<g>
			<path class="st0" d="M303.94,144.48L303.94,144.48h-28.01c-2.21,0-4,1.79-4,4c0,9.93,8.07,18,18,18c9.87,0,17.91-7.99,18-17.84
				c0-0.05,0-0.11,0-0.16C307.94,146.27,306.15,144.48,303.94,144.48z"/>
			<g>
				<g>
					<ellipse class="st7" cx="289.94" cy="157.82" rx="10.41" ry="4.67"/>
				</g>
			</g>
		</g>
	</g>
	<g>
		<path class="st0" d="M206.49,69c0-3.29-2.31-5.39-6.72-5.39c-4.48,0-6.72,1.82-8.47,5.81l-1.19,2.73l-10.01-3.71l1.05-2.59
			c3.08-7.84,9.31-11.76,18.76-11.76c10.99,0,17.78,6.09,17.78,14.49c0,5.6-2.1,9.94-6.86,12.81c-1.33,0.84-4.34,2.52-5.11,3.01
			c-2.24,1.33-3.36,2.87-3.36,4.48v2.73h-9.59v-2.73c0-6.79,2.73-9.17,8.05-12.32C203.9,74.67,206.49,73.13,206.49,69z
			 M197.67,94.62c3.22,0,5.88,2.66,5.88,5.88c0,3.22-2.66,5.88-5.88,5.88c-3.22,0-5.88-2.66-5.88-5.88
			C191.79,97.28,194.45,94.62,197.67,94.62z"/>
	</g>
</g>
<g>
	<path class="st11" d="M97.56,56.26c-2.98,0-5.4-2.42-5.4-5.4c0-0.99-0.81-1.8-1.8-1.8c-0.99,0-1.8,0.81-1.8,1.8
		c0,2.98-2.42,5.4-5.4,5.4c-0.99,0-1.8,0.81-1.8,1.8c0,0.99,0.81,1.8,1.8,1.8c2.98,0,5.4,2.42,5.4,5.4c0,0.99,0.81,1.8,1.8,1.8
		c0.99,0,1.8-0.81,1.8-1.8c0-2.98,2.42-5.4,5.4-5.4c0.99,0,1.8-0.81,1.8-1.8C99.36,57.07,98.55,56.26,97.56,56.26z"/>
</g>
<g>
	<path class="st11" d="M311.14,371.1c-2.98,0-5.4-2.42-5.4-5.4c0-0.99-0.81-1.8-1.8-1.8c-0.99,0-1.8,0.81-1.8,1.8
		c0,2.98-2.42,5.4-5.4,5.4c-0.99,0-1.8,0.81-1.8,1.8c0,0.99,0.81,1.8,1.8,1.8c2.98,0,5.4,2.42,5.4,5.4c0,0.99,0.81,1.8,1.8,1.8
		c0.99,0,1.8-0.81,1.8-1.8c0-2.98,2.42-5.4,5.4-5.4c0.99,0,1.8-0.81,1.8-1.8C312.94,371.91,312.13,371.1,311.14,371.1z"/>
</g>
<g>
	<path class="st11" d="M165.01,207.2c-2.98,0-5.4-2.42-5.4-5.4c0-0.99-0.81-1.8-1.8-1.8c-0.99,0-1.8,0.81-1.8,1.8
		c0,2.98-2.42,5.4-5.4,5.4c-0.99,0-1.8,0.81-1.8,1.8s0.81,1.8,1.8,1.8c2.98,0,5.4,2.42,5.4,5.4c0,0.99,0.81,1.8,1.8,1.8
		c0.99,0,1.8-0.81,1.8-1.8c0-2.98,2.42-5.4,5.4-5.4c0.99,0,1.8-0.81,1.8-1.8S166.01,207.2,165.01,207.2z"/>
</g>
<g>
	<circle class="st11" cx="49.48" cy="111.41" r="4.5"/>
</g>
<g>
	<circle class="st11" cx="204.5" cy="218" r="4.5"/>
</g>
<g>
	<circle class="st11" cx="135.81" cy="372.9" r="4.5"/>
</g>
<g>
	<circle class="st11" cx="314.03" cy="339.22" r="4.5"/>
</g>
<g>
	<circle class="st11" cx="46.98" cy="67.06" r="2.5"/>
</g>
<g>
	<circle class="st11" cx="346.94" cy="318.22" r="2.5"/>
</g>
<g>
	<circle class="st11" cx="256.94" cy="356.72" r="2.5"/>
</g>
<g>
	<circle class="st11" cx="115.81" cy="186.84" r="2.5"/>
</g>
<g>
	<circle class="st11" cx="87.81" cy="381.9" r="2.5"/>
</g>
<g>
	<circle class="st11" cx="297.07" cy="41.83" r="2.5"/>
</g>
<g>
	<circle class="st11" cx="133.81" cy="153.15" r="2.5"/>
</g>
<g>
	<circle class="st11" cx="344.98" cy="51.56" r="2.5"/>
</g>
<g>
	<rect x="-0.72" y="0" class="st12" width="400" height="400"/>
</g>
<path class="st11" d="M342.48,17.54h-6v-6c0-1.66-1.34-3-3-3s-3,1.34-3,3v6h-6c-1.66,0-3,1.34-3,3s1.34,3,3,3h6v6c0,1.66,1.34,3,3,3
	s3-1.34,3-3v-6h6c1.66,0,3-1.34,3-3S344.14,17.54,342.48,17.54z"/>
<path class="st11" d="M242.94,251.22h-6v-6c0-1.66-1.34-3-3-3s-3,1.34-3,3v6h-6c-1.66,0-3,1.34-3,3s1.34,3,3,3h6v6
	c0,1.66,1.34,3,3,3s3-1.34,3-3v-6h6c1.66,0,3-1.34,3-3S244.59,251.22,242.94,251.22z"/>
</svg>
