<svg width="340" height="248" viewBox="0 0 340 248" fill="none" xmlns="http://www.w3.org/2000/svg">
<path d="M112.326 103.373C111.966 103.325 111.63 103.163 111.367 102.913C111.103 102.662 110.925 102.335 110.859 101.978L106.185 68.7259C106.157 68.5738 106.167 68.4171 106.213 68.2696C106.26 68.122 106.342 67.9881 106.452 67.8797C106.562 67.7713 106.698 67.6916 106.846 67.6477C106.994 67.6038 107.151 67.597 107.303 67.6279C131.512 70.0917 153.094 53.8936 177.306 56.374C177.666 56.4234 178.001 56.5847 178.265 56.8352C178.528 57.0857 178.706 57.4127 178.774 57.7698L183.447 91.0214C183.475 91.1735 183.466 91.3303 183.419 91.4778C183.373 91.6254 183.291 91.7592 183.18 91.8677C183.07 91.9761 182.935 92.0558 182.786 92.0997C182.638 92.1436 182.481 92.1503 182.33 92.1194C158.118 89.639 136.536 105.837 112.326 103.373Z" fill="#7DDF96"/>
<path d="M177.481 57.6209L182.154 90.8725C157.943 88.3963 136.36 104.59 112.151 102.126L107.478 68.8749C131.687 71.3386 153.27 55.1447 177.481 57.6209ZM177.131 55.127C152.92 52.6508 131.337 68.8448 107.127 66.381C105.704 66.2377 104.692 67.1471 104.888 68.5396L109.561 101.791C109.695 102.51 110.051 103.169 110.578 103.676C111.106 104.184 111.778 104.514 112.502 104.62C136.713 107.101 158.296 90.9068 182.507 93.383C183.93 93.5263 184.943 92.6169 184.747 91.2244L180.074 57.9728C179.939 57.2538 179.583 56.5947 179.056 56.0875C178.529 55.5803 177.857 55.2504 177.133 55.1437L177.131 55.127Z" fill="#515979"/>
<path d="M177.916 82.1561L175.631 65.9002C172.49 65.7738 169.64 63.4998 169.21 60.4448C151.288 61.5776 134.503 70.8327 116.577 71.9745C117.006 75.0253 114.843 77.7283 111.716 77.5871L113.996 93.8139C117.134 93.9409 119.984 96.2149 120.413 99.2699C138.34 98.1364 155.125 88.8813 173.046 87.7402C172.623 84.7268 174.774 82.0296 177.916 82.1561Z" fill="#00C853"/>
<path d="M157.504 76.3104C158.704 84.8519 153.978 93.2345 146.993 95.3817C140.009 97.5289 133.335 92.0201 132.127 83.4245C130.919 74.829 135.652 66.4963 142.633 64.358C149.615 62.2197 156.295 67.7107 157.504 76.3104Z" fill="#7DDF96"/>
<path d="M127.01 84.5336C127.382 87.1812 125.714 89.7257 123.261 90.0407C120.809 90.3557 118.499 88.3025 118.127 85.6549C117.755 83.0072 119.46 80.7543 121.912 80.4351C124.363 80.116 126.635 81.8651 127.01 84.5336Z" fill="#7DDF96"/>
<path d="M171.504 74.08C171.876 76.7318 170.171 78.9806 167.719 79.2997C165.267 79.6189 162.994 77.8573 162.62 75.2013C162.247 72.5453 163.917 70.0092 166.369 69.6942C168.821 69.3792 171.131 71.4282 171.504 74.08Z" fill="#7DDF96"/>
<path d="M67.8278 189.48C67.6335 189.173 67.5411 188.812 67.5637 188.449C67.5863 188.086 67.7228 187.74 67.9536 187.459L90.422 162.505C90.5203 162.386 90.6464 162.292 90.7894 162.233C90.9323 162.174 91.0875 162.151 91.2415 162.165C91.3955 162.18 91.5435 162.233 91.6725 162.318C91.8014 162.404 91.9075 162.519 91.9812 162.655C105.655 182.784 131.937 188.905 145.599 209.047C145.793 209.355 145.885 209.715 145.862 210.078C145.84 210.441 145.704 210.787 145.474 211.069L123.005 236.022C122.907 236.142 122.781 236.235 122.638 236.294C122.495 236.354 122.34 236.377 122.186 236.362C122.032 236.347 121.884 236.295 121.755 236.209C121.626 236.124 121.52 236.008 121.446 235.872C107.783 215.731 81.5018 209.609 67.8278 189.48Z" fill="#7DDF96"/>
<path d="M144.757 209.983L122.289 234.936C108.623 214.798 82.3445 208.674 68.6704 188.545L91.1387 163.591C104.813 183.72 131.091 189.844 144.757 209.983ZM146.442 208.111C132.776 187.973 106.498 181.849 92.8238 161.72C92.0189 160.537 90.6715 160.346 89.7306 161.391L67.2623 186.345C66.798 186.91 66.5217 187.606 66.472 188.336C66.4224 189.066 66.6018 189.793 66.9853 190.416C80.6481 210.558 106.927 216.682 120.592 236.82C121.397 238.003 122.745 238.193 123.685 237.149L146.154 212.195C146.618 211.63 146.894 210.933 146.944 210.204C146.994 209.474 146.814 208.747 146.431 208.124L146.442 208.111Z" fill="#515979"/>
<path d="M126.241 226.086L137.225 213.887C135.303 211.399 135.213 207.755 137.277 205.462C124.889 192.461 107.01 185.552 94.6131 172.554C92.5516 174.843 89.0904 174.924 87.1888 172.438L76.2243 184.615C78.1437 187.1 78.2337 190.745 76.1694 193.038C88.5606 206.042 106.44 212.951 118.833 225.946C120.87 223.684 124.319 223.599 126.241 226.086Z" fill="#00C853"/>
<path d="M117.599 206.692C111.827 213.102 102.368 214.87 96.2334 210.9C90.0991 206.93 90.029 198.276 95.837 191.826C101.645 185.375 111.071 183.645 117.196 187.618C123.322 191.592 123.409 200.239 117.599 206.692Z" fill="#7DDF96"/>
<path d="M91.6983 188.619C89.9093 190.606 86.8876 190.963 85.0701 189.287C83.2525 187.611 83.3403 184.521 85.1293 182.535C86.9184 180.548 89.7403 180.406 91.5606 182.079C93.381 183.752 93.5014 186.616 91.6983 188.619Z" fill="#7DDF96"/>
<path d="M128.306 215.983C126.514 217.973 123.695 218.112 121.875 216.439C120.054 214.766 119.942 211.892 121.737 209.899C123.532 207.906 126.548 207.555 128.365 209.231C130.183 210.907 130.098 213.993 128.306 215.983Z" fill="#7DDF96"/>
<path d="M239.396 148.563C239.3 148.212 239.317 147.84 239.445 147.5C239.572 147.159 239.804 146.868 240.107 146.667L268.889 129.372C269.018 129.287 269.166 129.234 269.32 129.22C269.474 129.205 269.629 129.228 269.772 129.287C269.915 129.346 270.042 129.44 270.14 129.559C270.238 129.678 270.306 129.82 270.337 129.972C277.528 153.219 300.871 166.757 308.048 190.013C308.144 190.364 308.126 190.735 307.998 191.076C307.871 191.416 307.639 191.708 307.337 191.909L278.555 209.203C278.426 209.289 278.278 209.341 278.124 209.356C277.97 209.371 277.814 209.348 277.671 209.289C277.529 209.23 277.402 209.136 277.304 209.017C277.206 208.897 277.138 208.756 277.107 208.604C269.93 185.348 246.587 171.81 239.396 148.563Z" fill="#7DDF96"/>
<path d="M306.969 190.661L278.187 207.955C271.006 184.702 247.666 171.162 240.475 147.914L269.257 130.62C276.449 153.868 299.788 167.407 306.969 190.661ZM309.128 189.364C301.947 166.11 278.607 152.571 271.416 129.323C270.992 127.957 269.759 127.381 268.554 128.105L239.772 145.399C239.162 145.804 238.695 146.389 238.434 147.072C238.173 147.756 238.132 148.504 238.316 149.212C245.493 172.468 268.833 186.007 276.014 209.261C276.438 210.627 277.671 211.204 278.876 210.479L307.658 193.185C308.267 192.78 308.735 192.196 308.996 191.512C309.257 190.829 309.298 190.081 309.113 189.373L309.128 189.364Z" fill="#515979"/>
<path d="M284.554 200.648L298.625 192.193C297.514 189.252 298.494 185.74 301.138 184.151C293.092 168.096 278.014 156.262 269.959 140.207C267.319 141.794 263.985 140.859 262.894 137.926L248.848 146.365C249.957 149.303 248.977 152.815 246.333 154.404C254.381 170.462 269.458 182.297 277.511 198.348C280.12 196.78 283.443 197.707 284.554 200.648Z" fill="#00C853"/>
<path d="M281.959 179.574C274.566 184.017 265.003 182.942 260.298 177.352C255.592 171.762 258.055 163.465 265.495 158.995C272.936 154.524 282.455 155.625 287.152 161.216C291.848 166.807 289.403 175.102 281.959 179.574Z" fill="#7DDF96"/>
<path d="M262.475 154.718C260.183 156.095 257.189 155.554 255.941 153.419C254.693 151.285 255.68 148.356 257.972 146.979C260.264 145.602 263.004 146.291 264.256 148.423C265.507 150.556 264.785 153.33 262.475 154.718Z" fill="#7DDF96"/>
<path d="M289.483 191.59C287.187 192.969 284.451 192.278 283.199 190.146C281.947 188.014 282.681 185.233 284.98 183.851C287.279 182.47 290.266 183.016 291.514 185.15C292.762 187.284 291.778 190.211 289.483 191.59Z" fill="#7DDF96"/>
<path d="M193.958 194.203C193.649 194.012 193.408 193.728 193.269 193.392C193.13 193.056 193.101 192.684 193.185 192.331L202.44 160.053C202.476 159.902 202.549 159.763 202.651 159.647C202.754 159.531 202.883 159.442 203.028 159.388C203.173 159.334 203.329 159.316 203.482 159.337C203.636 159.357 203.782 159.414 203.908 159.504C225.022 171.602 251.327 165.582 272.436 177.696C272.745 177.888 272.986 178.172 273.125 178.508C273.263 178.844 273.293 179.215 273.209 179.568L263.954 211.846C263.918 211.996 263.845 212.136 263.743 212.252C263.64 212.367 263.511 212.456 263.366 212.511C263.221 212.565 263.065 212.583 262.912 212.562C262.759 212.542 262.612 212.484 262.487 212.395C241.377 200.281 215.072 206.3 193.958 194.203Z" fill="#7DDF96"/>
<path d="M272.089 178.907L262.834 211.184C241.723 199.075 215.419 205.09 194.305 192.992L203.561 160.715C224.675 172.812 250.978 166.797 272.089 178.907ZM272.783 176.486C251.673 164.376 225.369 170.391 204.255 158.294C203.013 157.584 201.718 158.003 201.331 159.355L192.075 191.632C191.906 192.344 191.963 193.091 192.238 193.769C192.513 194.446 192.993 195.021 193.611 195.413C214.721 207.527 241.024 201.511 262.135 213.621C263.377 214.331 264.671 213.912 265.059 212.56L274.314 180.283C274.484 179.571 274.427 178.824 274.152 178.146C273.876 177.469 273.396 176.894 272.779 176.502L272.783 176.486Z" fill="#515979"/>
<path d="M262.507 201.497L267.032 185.718C264.213 184.324 262.534 181.088 263.385 178.122C246.551 171.867 227.453 173.495 210.613 167.247C209.763 170.209 206.688 171.798 203.889 170.398L199.372 186.149C202.187 187.541 203.865 190.778 203.015 193.743C219.853 199.999 238.951 198.371 255.787 204.618C256.626 201.693 259.688 200.104 262.507 201.497Z" fill="#00C853"/>
<path d="M246.237 187.855C243.86 196.146 236.133 201.882 228.879 201.002C221.625 200.123 217.768 192.376 220.161 184.032C222.553 175.688 230.267 170.001 237.514 170.887C244.762 171.773 248.631 179.507 246.237 187.855Z" fill="#7DDF96"/>
<path d="M215.035 182.964C214.298 185.534 211.739 187.18 209.371 186.47C207.002 185.761 205.727 182.945 206.464 180.375C207.201 177.805 209.675 176.441 212.044 177.146C214.414 177.852 215.778 180.374 215.035 182.964Z" fill="#7DDF96"/>
<path d="M259.934 191.511C259.196 194.086 256.723 195.446 254.353 194.741C251.984 194.035 250.623 191.501 251.363 188.923C252.102 186.345 254.659 184.707 257.027 185.416C259.395 186.126 260.672 188.937 259.934 191.511Z" fill="#7DDF96"/>
<path d="M205.544 126.68C204.464 126.287 203.583 125.48 203.097 124.438C202.611 123.396 202.559 122.203 202.953 121.123L241.51 15.1871C241.903 14.1065 242.71 13.2264 243.752 12.7404C244.794 12.2544 245.987 12.2024 247.067 12.5957L329.72 42.6789C330.801 43.0722 331.681 43.8787 332.167 44.9209C332.653 45.9631 332.705 47.1557 332.312 48.2363L297.992 142.53C297.823 142.993 297.477 143.37 297.03 143.578L277.976 152.463C277.53 152.672 277.019 152.694 276.556 152.526L205.544 126.68Z" fill="white"/>
<path d="M329.085 44.425C329.702 44.6498 330.205 45.1106 330.483 45.7062C330.761 46.3017 330.79 46.9832 330.566 47.6007L296.245 141.895L277.191 150.78L206.18 124.934C205.562 124.709 205.059 124.248 204.782 123.653C204.504 123.057 204.474 122.376 204.699 121.758L243.256 15.8227C243.481 15.2052 243.942 14.7023 244.537 14.4246C245.133 14.1468 245.814 14.1171 246.432 14.3418L329.085 44.425ZM330.356 40.9327L247.703 10.8495C246.159 10.2876 244.456 10.362 242.967 11.0563C241.478 11.7505 240.326 13.0078 239.764 14.5516L201.207 120.487C200.645 122.031 200.719 123.734 201.413 125.223C202.108 126.712 203.365 127.864 204.909 128.426L275.92 154.272C276.847 154.608 277.868 154.563 278.761 154.146L297.815 145.261C298.708 144.845 299.4 144.092 299.738 143.166L334.058 48.8718C334.62 47.3281 334.546 45.6244 333.851 44.1355C333.157 42.6466 331.9 41.4945 330.356 40.9327Z" fill="#515979"/>
<path d="M276.556 152.526C276.325 152.444 276.114 152.316 275.935 152.149C275.665 151.9 275.474 151.577 275.386 151.221C275.299 150.864 275.32 150.489 275.445 150.144L279.513 138.969C279.952 137.766 280.851 136.786 282.012 136.245C283.173 135.703 284.501 135.645 285.705 136.081L296.881 140.149C297.226 140.275 297.526 140.5 297.743 140.796C297.96 141.093 298.084 141.447 298.1 141.814C298.116 142.18 298.023 142.544 297.833 142.858C297.642 143.172 297.363 143.423 297.03 143.578L277.976 152.463C277.53 152.671 277.019 152.694 276.556 152.526Z" fill="#D8EBFB"/>
<path d="M296.245 141.895L277.191 150.78L281.259 139.604C281.392 139.237 281.597 138.9 281.861 138.612C282.125 138.325 282.442 138.092 282.796 137.927C283.15 137.762 283.533 137.668 283.923 137.651C284.313 137.634 284.703 137.694 285.07 137.827L296.245 141.895ZM297.516 138.402L286.341 134.335C284.674 133.73 282.834 133.811 281.227 134.561C279.619 135.31 278.375 136.667 277.767 138.333L273.699 149.509C273.448 150.199 273.408 150.949 273.583 151.662C273.758 152.375 274.14 153.021 274.682 153.517C275.224 154.013 275.9 154.338 276.626 154.45C277.352 154.562 278.095 154.456 278.761 154.146L297.815 145.261C298.481 144.95 299.039 144.449 299.42 143.821C299.801 143.193 299.987 142.466 299.955 141.732C299.923 140.998 299.675 140.29 299.241 139.698C298.806 139.105 298.207 138.654 297.516 138.402Z" fill="#515979"/>
<path d="M312.729 54.9514C311.031 54.3333 309.648 53.066 308.884 51.4283C308.121 49.7905 308.039 47.9164 308.657 46.2183L309.716 43.308C309.941 42.6905 310.402 42.1876 310.997 41.9099C311.593 41.6322 312.274 41.6024 312.892 41.8272C313.509 42.0519 314.012 42.5128 314.29 43.1083C314.568 43.7039 314.598 44.3853 314.373 45.0028L313.314 47.9132C313.145 48.3763 313.167 48.8874 313.376 49.334C313.584 49.7807 313.961 50.1263 314.424 50.2949C314.887 50.4635 315.398 50.4411 315.845 50.2329C316.292 50.0246 316.637 49.6474 316.806 49.1843L321.467 36.3789C321.635 35.9158 321.613 35.4047 321.405 34.958C321.196 34.5113 320.819 34.1657 320.356 33.9971C319.893 33.8286 319.382 33.8509 318.935 34.0592C318.488 34.2675 318.143 34.6447 317.974 35.1078L317.127 37.436L312.47 35.7412L313.318 33.4129C313.936 31.7148 315.203 30.3318 316.841 29.5681C318.479 28.8044 320.353 28.7226 322.051 29.3406C323.749 29.9587 325.132 31.226 325.896 32.8638C326.659 34.5015 326.741 36.3756 326.123 38.0737L321.462 50.8791C320.844 52.5772 319.577 53.9602 317.939 54.7239C316.301 55.4876 314.427 55.5695 312.729 54.9514Z" fill="#CCCCCC"/>
<path d="M321.627 30.5048C323.016 31.0105 324.148 32.0474 324.773 33.3874C325.398 34.7274 325.465 36.2607 324.959 37.65L320.298 50.4554C319.793 51.8448 318.756 52.9763 317.416 53.6012C316.076 54.226 314.542 54.293 313.153 53.7873C311.764 53.2816 310.632 52.2447 310.007 50.9047C309.382 49.5647 309.315 48.0314 309.821 46.6421L310.88 43.7318C310.993 43.423 311.223 43.1715 311.521 43.0327C311.819 42.8938 312.159 42.879 312.468 42.9913C312.777 43.1037 313.028 43.3341 313.167 43.6319C313.306 43.9297 313.321 44.2704 313.209 44.5792L312.149 47.4895C311.868 48.2613 311.906 49.1132 312.253 49.8576C312.6 50.6021 313.229 51.1781 314 51.4591C314.772 51.74 315.624 51.7028 316.369 51.3557C317.113 51.0085 317.689 50.3799 317.97 49.608L322.631 36.8026C322.912 36.0308 322.874 35.1789 322.527 34.4345C322.18 33.69 321.552 33.114 320.78 32.8331C320.008 32.5521 319.156 32.5893 318.412 32.9364C317.667 33.2836 317.091 33.9122 316.81 34.6841L316.386 35.8482L314.058 35.0008L314.482 33.8367C314.988 32.4473 316.024 31.3158 317.364 30.6909C318.704 30.0661 320.238 29.9991 321.627 30.5048V30.5048ZM322.475 28.1766C320.468 27.4461 318.253 27.5428 316.317 28.4454C314.382 29.3479 312.884 30.9824 312.154 32.9893L310.882 36.4816L317.867 39.0239L319.138 35.5315C319.195 35.3771 319.31 35.2514 319.459 35.182C319.608 35.1126 319.778 35.1051 319.932 35.1613C320.087 35.2175 320.212 35.3327 320.282 35.4816C320.351 35.6305 320.359 35.8008 320.302 35.9552L315.642 48.7606C315.586 48.915 315.47 49.0407 315.321 49.1101C315.173 49.1796 315.002 49.187 314.848 49.1308C314.693 49.0746 314.568 48.9594 314.498 48.8105C314.429 48.6616 314.421 48.4913 314.478 48.3369L315.537 45.4266C315.874 44.5003 315.829 43.4781 315.413 42.5848C314.996 41.6915 314.242 41.0002 313.316 40.6631C312.389 40.326 311.367 40.3706 310.474 40.7872C309.58 41.2037 308.889 41.9581 308.552 42.8843L307.493 45.7946C306.762 47.8015 306.859 50.0163 307.762 51.9519C308.664 53.8874 310.299 55.3851 312.306 56.1156C314.312 56.846 316.527 56.7493 318.463 55.8467C320.398 54.9442 321.896 53.3097 322.626 51.3028L327.287 38.4975C328.018 36.4906 327.921 34.2758 327.018 32.3403C326.116 30.4047 324.481 28.907 322.475 28.1766Z" fill="#515A78"/>
<path d="M263.188 82.4026L235.249 72.2336C234.284 71.8826 233.218 72.3798 232.867 73.3442C232.516 74.3086 233.013 75.3749 233.977 75.726L261.916 85.8949C262.881 86.2459 263.947 85.7487 264.298 84.7843C264.649 83.8199 264.152 82.7536 263.188 82.4026Z" fill="#515979"/>
<path d="M241.489 87.6882L231.012 83.8748C230.047 83.5238 228.981 84.0211 228.63 84.9854C228.279 85.9498 228.776 87.0162 229.74 87.3672L240.218 91.1806C241.182 91.5316 242.248 91.0343 242.599 90.0699C242.95 89.1055 242.453 88.0392 241.489 87.6882Z" fill="#515979"/>
<path d="M255.985 102.193L228.046 92.0237C227.081 91.6727 226.015 92.1699 225.664 93.1343C225.313 94.0987 225.81 95.165 226.775 95.5161L254.714 105.685C255.678 106.036 256.744 105.539 257.095 104.574C257.446 103.61 256.949 102.544 255.985 102.193Z" fill="#515979"/>
<path d="M248.045 105.895L225.927 97.8443C224.963 97.4933 223.896 97.9905 223.545 98.9549C223.194 99.9193 223.691 100.986 224.656 101.337L246.774 109.387C247.739 109.738 248.805 109.241 249.156 108.276C249.507 107.312 249.01 106.246 248.045 105.895Z" fill="#515979"/>
<path d="M250.9 116.162L222.961 105.993C221.997 105.642 220.93 106.139 220.579 107.104C220.228 108.068 220.726 109.135 221.69 109.486L249.629 119.655C250.593 120.006 251.66 119.508 252.011 118.544C252.362 117.579 251.864 116.513 250.9 116.162Z" fill="#515979"/>
<path d="M237.14 117.746L220.843 111.814C219.878 111.463 218.812 111.96 218.461 112.924C218.11 113.889 218.607 114.955 219.571 115.306L235.869 121.238C236.834 121.589 237.9 121.092 238.251 120.127C238.602 119.163 238.105 118.097 237.14 117.746Z" fill="#515979"/>
<path d="M255.248 86.1046L233.13 78.0541C232.166 77.7031 231.099 78.2004 230.748 79.1648C230.397 80.1292 230.894 81.1955 231.859 81.5465L253.977 89.5969C254.942 89.948 256.008 89.4507 256.359 88.4863C256.71 87.5219 256.213 86.4556 255.248 86.1046Z" fill="#515979"/>
<path d="M292.124 120.62L272.334 113.417C271.691 113.183 270.98 113.514 270.746 114.157C270.512 114.8 270.843 115.511 271.486 115.745L291.277 122.948C291.919 123.182 292.63 122.85 292.864 122.207C293.098 121.565 292.767 120.854 292.124 120.62Z" fill="#515979"/>
<path d="M283.294 92.3575L277.474 90.239L272.813 103.044L278.634 105.163L283.294 92.3575Z" fill="#6ADAF7"/>
<path d="M289.166 99.7681L283.346 97.6495L280.38 105.798L286.201 107.917L289.166 99.7681Z" fill="#F89D81"/>
<path d="M299.699 94.3733L293.879 92.2548L287.947 108.553L293.767 110.671L299.699 94.3733Z" fill="#C7BCFF"/>
<path d="M266.036 114.42C267 114.771 268.067 114.274 268.418 113.31C268.769 112.345 268.271 111.279 267.307 110.928C266.343 110.577 265.276 111.074 264.925 112.038C264.574 113.003 265.071 114.069 266.036 114.42Z" fill="#6ADAF7"/>
<path d="M281.698 122.098L270.639 118.073C269.996 117.839 269.285 118.171 269.051 118.814C268.817 119.456 269.149 120.167 269.792 120.401L280.851 124.427C281.494 124.661 282.205 124.329 282.439 123.686C282.673 123.043 282.341 122.332 281.698 122.098Z" fill="#515979"/>
<path d="M264.341 119.077C265.305 119.428 266.372 118.931 266.723 117.966C267.074 117.002 266.577 115.935 265.612 115.584C264.648 115.233 263.581 115.731 263.23 116.695C262.879 117.659 263.377 118.726 264.341 119.077Z" fill="#F89D81"/>
<path d="M276.511 125.484L268.944 122.73C268.301 122.496 267.59 122.827 267.356 123.47C267.122 124.113 267.454 124.824 268.097 125.058L275.663 127.812C276.306 128.046 277.017 127.714 277.251 127.072C277.485 126.429 277.154 125.718 276.511 125.484Z" fill="#515979"/>
<path d="M262.646 123.733C263.611 124.084 264.677 123.587 265.028 122.623C265.379 121.658 264.882 120.592 263.917 120.241C262.953 119.89 261.887 120.387 261.536 121.351C261.185 122.316 261.682 123.382 262.646 123.733Z" fill="#C7BCFF"/>
<path d="M270.704 76.2395C267.543 75.0836 264.968 72.7213 263.546 69.6704C262.123 66.6196 261.968 63.1292 263.115 59.9643C263.255 59.5783 263.543 59.264 263.916 59.0904C264.288 58.9169 264.714 58.8983 265.1 59.0387L286.054 66.6655C286.44 66.8059 286.754 67.0939 286.928 67.4662C287.101 67.8384 287.12 68.2643 286.979 68.6502C285.824 71.8118 283.461 74.386 280.41 75.8087C277.36 77.2313 273.869 77.3862 270.704 76.2395V76.2395Z" fill="#515979"/>
<path d="M285.524 68.1206C284.513 70.8993 282.439 73.1624 279.759 74.4121C277.079 75.6618 274.012 75.7957 271.234 74.7843C268.455 73.773 266.192 71.6992 264.942 69.0192C263.693 66.3392 263.559 63.2726 264.57 60.4938L285.524 68.1206ZM286.584 65.2103L265.629 57.5835C264.857 57.3026 264.006 57.3398 263.261 57.6869C262.517 58.0341 261.941 58.6627 261.66 59.4346C260.354 62.9801 260.509 66.8993 262.093 70.33C263.676 73.7606 266.558 76.4218 270.103 77.728C273.649 79.0342 277.568 78.8784 280.998 77.295C284.429 75.7115 287.09 72.8301 288.396 69.2846L288.435 69.1798C288.716 68.408 288.678 67.5561 288.331 66.8117C287.984 66.0672 287.355 65.4912 286.584 65.2103Z" fill="#515979"/>
<path d="M271.234 74.7844C275.538 76.351 279.597 76.0575 280.299 74.1287C281.001 72.1999 278.08 69.3663 273.776 67.7996C269.472 66.2329 265.413 66.5265 264.711 68.4553C264.009 70.3841 266.929 73.2177 271.234 74.7844Z" fill="#EF7D7D"/>
<path d="M273.031 44.4905C272.758 44.391 272.42 44.1956 272.12 44.06C271.82 43.9245 271.505 43.7767 271.209 43.6491C270.651 43.4093 270.072 43.2229 269.48 43.0924C268.941 42.9663 268.389 42.9136 267.836 42.9358C267.203 42.9677 266.572 43.0375 265.947 43.1448L265.692 43.177C265.426 43.2235 265.153 43.1823 264.913 43.0596C264.673 42.9368 264.48 42.7393 264.363 42.4968C264.245 42.2543 264.21 41.9802 264.263 41.7159C264.315 41.4517 264.452 41.2117 264.653 41.0324C265.342 40.3049 266.217 39.7799 267.183 39.5143C267.43 39.4318 267.686 39.3789 267.946 39.3568C268.206 39.3194 268.467 39.2958 268.729 39.2861C268.99 39.2952 269.25 39.3043 269.512 39.3271C269.761 39.3543 270.008 39.3957 270.251 39.4511C271.684 39.7997 272.981 40.5632 273.981 41.6458C274.32 42.0086 274.617 42.4085 274.866 42.8378C274.99 43.0574 275.044 43.3096 275.021 43.5608C274.998 43.8119 274.898 44.05 274.736 44.2433C274.574 44.4366 274.357 44.5757 274.114 44.6423C273.87 44.7088 273.613 44.6994 273.375 44.6155L273.031 44.4905Z" fill="#515979"/>
<path d="M271.663 55.495C271.277 55.3545 270.963 55.0665 270.789 54.6943C270.615 54.3221 270.597 53.8961 270.737 53.5102C270.99 52.8155 270.957 52.0489 270.644 51.3789C270.332 50.7089 269.766 50.1904 269.071 49.9376C268.377 49.6847 267.61 49.7182 266.94 50.0306C266.27 50.3431 265.752 50.9088 265.499 51.6035C265.358 51.9894 265.07 52.3038 264.698 52.4773C264.326 52.6509 263.9 52.6695 263.514 52.529C263.128 52.3886 262.814 52.1005 262.64 51.7283C262.467 51.3561 262.448 50.9302 262.588 50.5442C263.122 49.0777 264.217 47.8833 265.631 47.2237C267.046 46.5641 268.664 46.4935 270.131 47.0273C271.597 47.561 272.792 48.6555 273.451 50.07C274.111 51.4844 274.181 53.1029 273.648 54.5695C273.507 54.9554 273.219 55.2697 272.847 55.4433C272.475 55.6169 272.049 55.6355 271.663 55.495V55.495Z" fill="#515979"/>
<path d="M288.992 47.9796C289.458 47.8099 289.942 47.6962 290.434 47.6408C290.903 47.5754 291.377 47.5581 291.85 47.5893C292.843 47.6483 293.814 47.9074 294.704 48.3512C294.934 48.4674 295.158 48.5972 295.373 48.7398C295.588 48.8907 295.794 49.0511 295.999 49.2115C296.194 49.3876 296.379 49.5738 296.554 49.7695C296.739 49.9532 296.901 50.1583 297.037 50.3803C297.606 51.2048 297.939 52.1693 297.999 53.1695C298.037 53.4349 297.987 53.7053 297.857 53.94C297.728 54.1747 297.526 54.3611 297.282 54.4713C297.037 54.5814 296.764 54.6093 296.502 54.5508C296.241 54.4923 296.005 54.3506 295.831 54.1468L295.65 53.9557C295.24 53.4719 294.802 53.013 294.337 52.5815C293.928 52.2095 293.471 51.8944 292.978 51.645C292.44 51.3641 291.877 51.1348 291.295 50.9602C290.993 50.85 290.666 50.7706 290.333 50.689C290 50.6074 289.632 50.5326 289.358 50.4331L289.003 50.3038C288.694 50.1915 288.443 49.961 288.304 49.6633C288.165 49.3655 288.15 49.0248 288.263 48.716C288.324 48.5479 288.421 48.395 288.547 48.2678C288.673 48.1407 288.825 48.0424 288.992 47.9796V47.9796Z" fill="#515979"/>
<path d="M291.453 62.6979C291.067 62.5575 290.753 62.2694 290.579 61.8972C290.406 61.525 290.387 61.0991 290.528 60.7131C290.78 60.0185 290.747 59.2518 290.434 58.5818C290.122 57.9118 289.556 57.3934 288.862 57.1405C288.167 56.8877 287.4 56.9211 286.73 57.2336C286.06 57.546 285.542 58.1118 285.289 58.8065C285.148 59.1924 284.86 59.5067 284.488 59.6803C284.116 59.8538 283.69 59.8724 283.304 59.732C282.918 59.5915 282.604 59.3035 282.43 58.9313C282.257 58.559 282.238 58.1331 282.379 57.7472C282.912 56.2806 284.007 55.0862 285.421 54.4267C286.836 53.7671 288.454 53.6964 289.921 54.2302C291.387 54.764 292.582 55.8585 293.241 57.2729C293.901 58.6873 293.972 60.3059 293.438 61.7724C293.297 62.1583 293.009 62.4727 292.637 62.6462C292.265 62.8198 291.839 62.8384 291.453 62.6979V62.6979Z" fill="#515979"/>
<path d="M253.089 50.3827C253.893 50.6752 254.782 50.2608 255.074 49.4572C255.367 48.6535 254.952 47.7649 254.149 47.4724C253.345 47.1799 252.456 47.5942 252.164 48.3979C251.871 49.2016 252.286 50.0902 253.089 50.3827Z" fill="#FDE1D9"/>
<path d="M253.96 57.9505C254.764 58.243 255.653 57.8286 255.945 57.025C256.238 56.2213 255.823 55.3327 255.019 55.0402C254.216 54.7477 253.327 55.1621 253.035 55.9657C252.742 56.7694 253.157 57.658 253.96 57.9505Z" fill="#FDE1D9"/>
<path d="M247.558 55.6202C248.361 55.9127 249.25 55.4983 249.542 54.6947C249.835 53.891 249.42 53.0024 248.617 52.7099C247.813 52.4174 246.924 52.8317 246.632 53.6354C246.339 54.4391 246.754 55.3277 247.558 55.6202Z" fill="#FDE1D9"/>
<path d="M300.818 67.7546C301.622 68.0472 302.511 67.6328 302.803 66.8291C303.096 66.0255 302.681 65.1368 301.878 64.8443C301.074 64.5518 300.185 64.9662 299.893 65.7699C299.6 66.5735 300.015 67.4621 300.818 67.7546Z" fill="#FDE1D9"/>
<path d="M301.689 75.3225C302.493 75.615 303.382 75.2007 303.674 74.397C303.967 73.5933 303.552 72.7047 302.748 72.4122C301.945 72.1197 301.056 72.5341 300.764 73.3377C300.471 74.1414 300.886 75.03 301.689 75.3225Z" fill="#FDE1D9"/>
<path d="M295.287 72.9921C296.09 73.2846 296.979 72.8703 297.271 72.0666C297.564 71.2629 297.15 70.3743 296.346 70.0818C295.542 69.7893 294.654 70.2037 294.361 71.0073C294.069 71.811 294.483 72.6996 295.287 72.9921Z" fill="#FDE1D9"/>
<path d="M270.221 101.112L266.728 99.8408C266.497 99.7565 266.308 99.5837 266.204 99.3604C266.1 99.1371 266.089 98.8815 266.173 98.6499C266.257 98.4184 266.43 98.2298 266.653 98.1257C266.877 98.0215 267.132 98.0104 267.364 98.0946L270.856 99.3658C271.088 99.45 271.276 99.6229 271.38 99.8462C271.485 100.07 271.496 100.325 271.411 100.557C271.327 100.788 271.154 100.977 270.931 101.081C270.708 101.185 270.452 101.196 270.221 101.112Z" fill="#515979"/>
<path d="M272.339 95.2913L268.847 94.0202C268.615 93.9359 268.427 93.7631 268.322 93.5398C268.218 93.3164 268.207 93.0609 268.291 92.8293C268.376 92.5978 268.548 92.4092 268.772 92.305C268.995 92.2009 269.251 92.1897 269.482 92.274L272.975 93.5451C273.206 93.6294 273.395 93.8022 273.499 94.0256C273.603 94.2489 273.614 94.5045 273.53 94.736C273.446 94.9676 273.273 95.1562 273.049 95.2603C272.826 95.3644 272.571 95.3756 272.339 95.2913Z" fill="#515979"/>
<path d="M274.458 89.4708L270.965 88.1996C270.734 88.1154 270.545 87.9426 270.441 87.7192C270.337 87.4959 270.326 87.2403 270.41 87.0088C270.494 86.7772 270.667 86.5886 270.89 86.4845C271.114 86.3803 271.369 86.3692 271.601 86.4535L275.093 87.7246C275.325 87.8089 275.513 87.9817 275.617 88.205C275.722 88.4283 275.733 88.6839 275.648 88.9155C275.564 89.147 275.391 89.3356 275.168 89.4398C274.945 89.5439 274.689 89.5551 274.458 89.4708V89.4708Z" fill="#515979"/>
<path d="M288.844 115.141C288.613 115.057 288.424 114.884 288.32 114.661C288.216 114.438 288.205 114.182 288.289 113.951L289.56 110.458C289.644 110.227 289.817 110.038 290.041 109.934C290.264 109.83 290.519 109.819 290.751 109.903C290.983 109.987 291.171 110.16 291.275 110.383C291.379 110.607 291.391 110.862 291.306 111.094L290.035 114.586C289.951 114.818 289.778 115.006 289.555 115.11C289.331 115.215 289.076 115.226 288.844 115.141Z" fill="#515979"/>
<path d="M281.278 112.387C281.046 112.303 280.857 112.13 280.753 111.907C280.649 111.684 280.638 111.428 280.722 111.196L281.993 107.704C282.078 107.472 282.25 107.284 282.474 107.18C282.697 107.076 282.953 107.064 283.184 107.149C283.416 107.233 283.604 107.406 283.709 107.629C283.813 107.852 283.824 108.108 283.74 108.34L282.468 111.832C282.384 112.064 282.211 112.252 281.988 112.356C281.765 112.46 281.509 112.472 281.278 112.387Z" fill="#515979"/>
<path d="M273.711 109.633C273.479 109.549 273.291 109.376 273.187 109.153C273.082 108.929 273.071 108.674 273.155 108.442L274.427 104.95C274.511 104.718 274.684 104.53 274.907 104.426C275.13 104.322 275.386 104.31 275.617 104.395C275.849 104.479 276.038 104.652 276.142 104.875C276.246 105.098 276.257 105.354 276.173 105.586L274.902 109.078C274.817 109.309 274.645 109.498 274.421 109.602C274.198 109.706 273.942 109.718 273.711 109.633Z" fill="#515979"/>
<path d="M294.666 113.635L269.055 104.313C268.747 104.201 268.495 103.971 268.356 103.673C268.217 103.375 268.203 103.034 268.315 102.725L274.671 85.2636C274.783 84.9549 275.013 84.7034 275.311 84.5646C275.609 84.4257 275.95 84.4108 276.258 84.5232C276.567 84.6356 276.819 84.866 276.957 85.1638C277.096 85.4615 277.111 85.8023 276.999 86.111L271.067 102.409L295.514 111.307C295.822 111.419 296.074 111.649 296.213 111.947C296.351 112.245 296.366 112.586 296.254 112.894C296.142 113.203 295.911 113.455 295.613 113.594C295.316 113.732 294.975 113.747 294.666 113.635Z" fill="#515979"/>
<path d="M15.4573 122.41C14.014 122.408 12.6305 121.833 11.6107 120.812C10.5908 119.791 10.0179 118.407 10.0179 116.963V36.0732C10.0179 34.6299 10.5908 33.2457 11.6107 32.2245C12.6305 31.2033 14.014 30.6286 15.4573 30.6267H46.3443C47.2943 30.6291 48.2272 30.8792 49.051 31.3524C49.8747 31.8256 50.5607 32.5055 51.0413 33.325L54.9173 39.9564H130.582C131.299 39.9582 132.007 40.1011 132.668 40.3769C133.329 40.6527 133.929 41.056 134.435 41.5638C134.94 42.0715 135.34 42.6738 135.612 43.3361C135.884 43.9985 136.024 44.7081 136.022 45.4242V116.963C136.022 118.407 135.449 119.791 134.429 120.812C133.409 121.833 132.026 122.408 130.582 122.41H15.4573Z" fill="#FBB040"/>
<path d="M46.3444 32.9609C46.8876 32.9607 47.4213 33.103 47.8922 33.3735C48.3632 33.6441 48.7549 34.0334 49.0284 34.5027L53.5754 42.2905H130.583C130.993 42.2905 131.4 42.3717 131.779 42.5295C132.158 42.6872 132.502 42.9184 132.791 43.2096C133.08 43.5009 133.309 43.8465 133.464 44.2266C133.619 44.6067 133.698 45.0137 133.695 45.4242V116.963C133.695 117.788 133.368 118.578 132.786 119.162C132.204 119.745 131.414 120.074 130.59 120.076H15.4574C14.6319 120.076 13.8403 119.748 13.2567 119.164C12.673 118.58 12.3451 117.789 12.3451 116.963V36.0731C12.3451 35.2489 12.672 34.4584 13.2541 33.875C13.8362 33.2915 14.626 32.9628 15.4502 32.9609H46.3444ZM46.3444 28.2925H15.4574C13.3956 28.2963 11.4195 29.1174 9.9623 30.576C8.5051 32.0345 7.68572 34.0114 7.68384 36.0731V116.963C7.68572 119.025 8.5051 121.002 9.9623 122.461C11.4195 123.919 13.3956 124.74 15.4574 124.744H130.583C132.644 124.74 134.62 123.919 136.078 122.461C137.535 121.002 138.354 119.025 138.356 116.963V45.4242C138.354 43.3631 137.535 41.387 136.077 39.9296C134.62 38.4722 132.644 37.6526 130.583 37.6507H56.2523L53.0329 32.1543C52.3491 30.9855 51.3728 30.0148 50.2 29.3377C49.0273 28.6606 47.6986 28.3004 46.3444 28.2925V28.2925Z" fill="#515979"/>
<g style="mix-blend-mode:color-burn" opacity="0.2">
<g style="mix-blend-mode:color-burn" opacity="0.2">
<path d="M133.695 50.0712H12.3522V65.6254H133.695V50.0712Z" fill="#515979"/>
</g>
</g>
<path d="M127.463 46.9589H18.5696C17.7101 46.9589 17.0134 47.6556 17.0134 48.5151V68.7376C17.0134 69.5971 17.7101 70.2938 18.5696 70.2938H127.463C128.323 70.2938 129.019 69.5971 129.019 68.7376V48.5151C129.019 47.6556 128.323 46.9589 127.463 46.9589Z" fill="white"/>
<path d="M127.47 48.5151V68.7377H18.5695V48.5151H127.47ZM127.47 45.4028H18.5695C17.7441 45.4028 16.9525 45.7307 16.3688 46.3144C15.7852 46.8981 15.4573 47.6897 15.4573 48.5151V68.7377C15.4611 69.5606 15.7906 70.3486 16.3739 70.9291C16.9571 71.5097 17.7466 71.8357 18.5695 71.8357H127.47C128.296 71.8357 129.087 71.5078 129.671 70.9241C130.255 70.3404 130.582 69.5488 130.582 68.7234V48.5151C130.577 47.6934 130.246 46.9073 129.663 46.3282C129.08 45.7492 128.292 45.4242 127.47 45.4242V45.4028Z" fill="#515979"/>
<path d="M127.463 51.6273H18.5696V67.1815H127.463V51.6273Z" fill="#B4ECFB"/>
<path d="M14.6864 127.078C13.4767 127.077 12.3145 126.607 11.444 125.768C10.5734 124.928 10.0623 123.783 10.018 122.574L2.57995 62.3132C2.49788 61.6568 2.5565 60.9904 2.75189 60.3583C2.94729 59.7263 3.27499 59.1431 3.71321 58.6474C4.15143 58.1518 4.69013 57.7552 5.2935 57.4838C5.89687 57.2125 6.55108 57.0727 7.21265 57.0738H138.827C139.489 57.0727 140.143 57.2125 140.746 57.4838C141.35 57.7552 141.888 58.1518 142.327 58.6474C142.765 59.1431 143.092 59.7263 143.288 60.3583C143.483 60.9904 143.542 61.6568 143.46 62.3132L136.022 122.574C135.977 123.783 135.466 124.928 134.596 125.768C133.725 126.607 132.563 127.077 131.353 127.078H14.6864Z" fill="#FFD886"/>
<path d="M138.827 59.408C139.158 59.4075 139.485 59.4774 139.787 59.613C140.089 59.7487 140.359 59.9469 140.578 60.1947C140.797 60.4424 140.961 60.7339 141.06 61.05C141.158 61.366 141.188 61.6993 141.147 62.0277L133.695 122.41C133.695 122.716 133.634 123.02 133.517 123.303C133.4 123.586 133.228 123.844 133.011 124.06C132.794 124.277 132.537 124.449 132.254 124.566C131.971 124.684 131.667 124.744 131.361 124.744H14.6864C14.3793 124.745 14.075 124.685 13.791 124.568C13.507 124.452 13.2488 124.28 13.0313 124.063C12.8138 123.846 12.6412 123.588 12.5234 123.305C12.4057 123.021 12.3451 122.717 12.3451 122.41L4.89279 62.0277C4.85231 61.6993 4.88213 61.366 4.98026 61.05C5.07839 60.7339 5.24259 60.4424 5.46197 60.1947C5.68135 59.9469 5.9509 59.7487 6.25274 59.613C6.55458 59.4774 6.8818 59.4075 7.21271 59.408H138.827V59.408ZM138.827 54.7396H7.21271C6.22126 54.7393 5.24107 54.9496 4.33697 55.3565C3.43287 55.7634 2.62549 56.3577 1.96823 57.1C1.31098 57.8422 0.818835 58.7156 0.524367 59.6623C0.2299 60.609 0.139819 61.6075 0.260087 62.5916L7.69097 122.767C7.78767 124.558 8.56651 126.244 9.8675 127.478C11.1685 128.713 12.8929 129.402 14.6864 129.405H131.353C133.147 129.402 134.871 128.713 136.172 127.478C137.473 126.244 138.252 124.558 138.349 122.767L145.78 62.5916C145.9 61.6075 145.81 60.609 145.516 59.6623C145.221 58.7156 144.729 57.8422 144.072 57.1C143.414 56.3577 142.607 55.7634 141.703 55.3565C140.799 54.9496 139.819 54.7393 138.827 54.7396Z" fill="#515979"/>
<path d="M7.21269 62.5559H138.827C139.265 62.5546 139.695 62.6781 140.065 62.912C140.435 63.1459 140.731 63.4804 140.919 63.8765L141.147 62.0634C141.188 61.735 141.158 61.4017 141.06 61.0857C140.961 60.7696 140.797 60.4781 140.578 60.2304C140.359 59.9826 140.089 59.7844 139.787 59.6487C139.485 59.5131 139.158 59.4432 138.827 59.4437H7.21269C6.88179 59.4432 6.55456 59.5131 6.25272 59.6487C5.95089 59.7844 5.68134 59.9826 5.46195 60.2304C5.24257 60.4781 5.07837 60.7696 4.98024 61.0857C4.88211 61.4017 4.8523 61.735 4.89277 62.0634L5.1212 63.8765C5.30835 63.4804 5.60447 63.1459 5.97487 62.912C6.34527 62.6781 6.77464 62.5546 7.21269 62.5559Z" fill="#FFEBC2"/>
<g style="mix-blend-mode:color-burn" opacity="0.3">
<g style="mix-blend-mode:color-burn" opacity="0.3">
<path d="M132.132 120.076H13.9084C13.5087 120.073 13.1164 119.968 12.7689 119.771C12.4214 119.573 12.1305 119.29 11.924 118.948L12.3522 122.396C12.3522 122.702 12.4126 123.006 12.5299 123.289C12.6472 123.572 12.8192 123.829 13.0359 124.046C13.2527 124.263 13.51 124.435 13.7932 124.552C14.0764 124.669 14.3799 124.73 14.6864 124.73H131.353C131.66 124.73 131.964 124.669 132.247 124.552C132.53 124.435 132.787 124.263 133.004 124.046C133.221 123.829 133.393 123.572 133.51 123.289C133.627 123.006 133.688 122.702 133.688 122.396L134.116 118.948C133.909 119.29 133.618 119.573 133.271 119.771C132.924 119.968 132.531 120.073 132.132 120.076V120.076Z" fill="#515979"/>
</g>
</g>
<path d="M80.1081 73.7629C80.5732 73.3562 81.0833 73.0041 81.6286 72.7136C82.1568 72.4189 82.7142 72.1796 83.2918 71.9998C84.5025 71.6327 85.7767 71.5233 87.0322 71.6786C87.689 71.761 88.3336 71.9215 88.9524 72.1568C89.2593 72.2853 89.552 72.4495 89.8447 72.5994C90.1439 72.743 90.4244 72.9228 90.6798 73.1348C91.7154 73.8962 92.5207 74.9287 93.0069 76.1185C93.0911 76.3092 93.1368 76.5147 93.1415 76.7231C93.1462 76.9316 93.1096 77.1389 93.034 77.3331C92.9584 77.5274 92.8453 77.7049 92.701 77.8554C92.5567 78.0058 92.3841 78.1264 92.1931 78.21C91.9768 78.3048 91.7418 78.3495 91.5057 78.3408C91.2697 78.3322 91.0386 78.2704 90.8297 78.1601L90.5371 78.0102C89.8478 77.5936 89.1325 77.2217 88.3956 76.8966C87.7606 76.6216 87.0902 76.4366 86.404 76.347C85.6543 76.2451 84.8965 76.2164 84.1412 76.2613C83.7344 76.2613 83.3132 76.3113 82.8849 76.3684C82.4566 76.4255 81.9855 76.4969 81.6286 76.504H81.1432C80.8274 76.5043 80.519 76.4086 80.2589 76.2295C79.9988 76.0505 79.7994 75.7965 79.6871 75.5014C79.5748 75.2062 79.5549 74.8839 79.6301 74.5772C79.7053 74.2706 79.872 73.994 80.1081 73.7843V73.7629Z" fill="#515979"/>
<path d="M64.4112 76.4826C64.0543 76.4826 63.5689 76.3755 63.1549 76.347C62.7409 76.3184 62.3054 76.2685 61.8985 76.2399C61.1433 76.195 60.3854 76.2237 59.6357 76.3256C58.9495 76.4152 58.2792 76.6002 57.6442 76.8752C56.9073 77.2003 56.192 77.5722 55.5027 77.9888L55.2172 78.1387C54.9283 78.2864 54.601 78.3418 54.2796 78.2975C53.9582 78.2533 53.6581 78.1114 53.4199 77.8911C53.1816 77.6708 53.0168 77.3827 52.9476 77.0657C52.8784 76.7487 52.9082 76.4181 53.0329 76.1185C53.523 74.9487 54.3225 73.9344 55.3457 73.1847C55.6011 72.9728 55.8816 72.793 56.1808 72.6494C56.4735 72.4995 56.7662 72.3353 57.0731 72.2068C57.6919 71.9715 58.3365 71.811 58.9933 71.7285C60.2489 71.5732 61.523 71.6827 62.7337 72.0498C63.3113 72.2296 63.8687 72.4688 64.3969 72.7636C64.9422 73.0541 65.4523 73.4062 65.9174 73.8129C66.1569 74.0205 66.327 74.2965 66.4048 74.6038C66.4825 74.911 66.4641 75.2348 66.352 75.5313C66.24 75.8278 66.0397 76.0827 65.7781 76.2618C65.5166 76.4408 65.2064 76.5354 64.8895 76.5326L64.4112 76.4826Z" fill="#515979"/>
<path d="M65.2607 89.3528C64.7439 89.3528 64.2482 89.1475 63.8828 88.782C63.5173 88.4166 63.312 87.9209 63.312 87.4041C63.312 86.8891 63.1074 86.3953 62.7433 86.0312C62.3792 85.667 61.8853 85.4625 61.3704 85.4625C60.8555 85.4625 60.3616 85.667 59.9975 86.0312C59.6334 86.3953 59.4288 86.8891 59.4288 87.4041C59.4449 87.6694 59.4065 87.9353 59.316 88.1852C59.2255 88.4352 59.0849 88.664 58.9027 88.8576C58.7205 89.0512 58.5006 89.2054 58.2566 89.3109C58.0125 89.4163 57.7495 89.4707 57.4836 89.4707C57.2178 89.4707 56.9548 89.4163 56.7107 89.3109C56.4667 89.2054 56.2468 89.0512 56.0646 88.8576C55.8824 88.664 55.7417 88.4352 55.6513 88.1852C55.5608 87.9353 55.5224 87.6694 55.5385 87.4041C55.5385 85.8573 56.1529 84.374 57.2466 83.2803C58.3403 82.1866 59.8237 81.5721 61.3704 81.5721C62.9171 81.5721 64.4005 82.1866 65.4942 83.2803C66.5879 84.374 67.2023 85.8573 67.2023 87.4041C67.2033 87.6596 67.1537 87.9129 67.0566 88.1493C66.9594 88.3857 66.8166 88.6006 66.6362 88.7816C66.4558 88.9627 66.2414 89.1063 66.0054 89.2043C65.7694 89.3023 65.5163 89.3528 65.2607 89.3528Z" fill="#515979"/>
<path d="M88.5598 89.3528C88.3015 89.3566 88.045 89.309 87.8053 89.2127C87.5655 89.1165 87.3473 88.9736 87.1633 88.7922C86.9793 88.6109 86.8332 88.3948 86.7335 88.1565C86.6338 87.9182 86.5825 87.6624 86.5825 87.4041C86.5825 86.8891 86.3779 86.3953 86.0138 86.0312C85.6497 85.667 85.1559 85.4625 84.6409 85.4625C84.126 85.4625 83.6321 85.667 83.268 86.0312C82.9039 86.3953 82.6993 86.8891 82.6993 87.4041C82.7154 87.6694 82.677 87.9353 82.5865 88.1852C82.4961 88.4352 82.3554 88.664 82.1732 88.8576C81.991 89.0512 81.7711 89.2054 81.5271 89.3109C81.283 89.4163 81.02 89.4707 80.7542 89.4707C80.4883 89.4707 80.2253 89.4163 79.9812 89.3109C79.7372 89.2054 79.5173 89.0512 79.3351 88.8576C79.1529 88.664 79.0123 88.4352 78.9218 88.1852C78.8313 87.9353 78.7929 87.6694 78.809 87.4041C78.809 85.8573 79.4234 84.374 80.5171 83.2803C81.6108 82.1866 83.0942 81.5721 84.6409 81.5721C86.1876 81.5721 87.671 82.1866 88.7647 83.2803C89.8584 84.374 90.4728 85.8573 90.4728 87.4041C90.4748 87.9153 90.275 88.4067 89.9168 88.7716C89.5586 89.1364 89.071 89.3453 88.5598 89.3528V89.3528Z" fill="#515979"/>
<path d="M73.0198 109.19C69.7205 109.184 66.5581 107.871 64.2258 105.537C61.8935 103.203 60.5817 100.04 60.5779 96.7409C60.5779 96.3294 60.7408 95.9347 61.0311 95.6431C61.3214 95.3514 61.7154 95.1866 62.1269 95.1848H83.9127C84.3242 95.1866 84.7182 95.3514 85.0085 95.6431C85.2987 95.9347 85.4617 96.3294 85.4617 96.7409C85.4579 100.04 84.1461 103.203 81.8138 105.537C79.4815 107.871 76.3191 109.184 73.0198 109.19Z" fill="#515979"/>
<path d="M83.9128 96.7409C83.9128 98.1714 83.6311 99.5879 83.0837 100.909C82.5362 102.231 81.7339 103.432 80.7224 104.443C79.7109 105.455 78.5101 106.257 77.1885 106.805C75.8669 107.352 74.4504 107.634 73.0199 107.634C71.5894 107.634 70.173 107.352 68.8514 106.805C67.5298 106.257 66.329 105.455 65.3175 104.443C64.306 103.432 63.5036 102.231 62.9562 100.909C62.4088 99.5879 62.127 98.1714 62.127 96.7409H83.9128ZM83.9128 93.6287H62.127C61.3028 93.6306 60.513 93.9593 59.9309 94.5427C59.3488 95.1262 59.0219 95.9167 59.0219 96.7409C59.0048 100.453 60.4633 104.021 63.0764 106.658C65.6895 109.295 69.2432 110.786 72.9557 110.803C76.6682 110.82 80.2354 109.362 82.8726 106.749C85.5098 104.136 87.0009 100.582 87.018 96.8694C87.0215 96.8267 87.0215 96.7837 87.018 96.7409C87.018 95.9155 86.6901 95.1239 86.1064 94.5402C85.5227 93.9566 84.7311 93.6287 83.9057 93.6287H83.9128Z" fill="#515979"/>
<path d="M73.0198 107.634C77.4944 107.634 81.1217 106.007 81.1217 104C81.1217 101.994 77.4944 100.367 73.0198 100.367C68.5453 100.367 64.918 101.994 64.918 104C64.918 106.007 68.5453 107.634 73.0198 107.634Z" fill="#EF7D7D"/>
<path d="M89.8749 244.577C88.8383 244.875 87.7262 244.748 86.783 244.225C85.8399 243.702 85.143 242.826 84.8458 241.79L55.7071 140.171C55.4099 139.134 55.5366 138.022 56.0594 137.079C56.5822 136.136 57.4583 135.439 58.4948 135.142L126.613 115.609C127.057 115.482 127.533 115.537 127.937 115.761L145.18 125.319C145.584 125.543 145.883 125.918 146.011 126.362L171.947 216.814C172.245 217.85 172.118 218.962 171.595 219.906C171.072 220.849 170.196 221.546 169.16 221.843L89.8749 244.577Z" fill="white"/>
<path d="M127.093 117.284L144.336 126.842L170.272 217.294C170.442 217.886 170.37 218.522 170.071 219.061C169.772 219.6 169.272 219.998 168.68 220.168L89.3947 242.902C88.8024 243.072 88.1668 243 87.6279 242.701C87.0889 242.402 86.6907 241.902 86.5209 241.309L57.3822 139.691C57.2124 139.098 57.2848 138.463 57.5835 137.924C57.8823 137.385 58.3829 136.987 58.9752 136.817L127.093 117.284ZM126.133 113.934L58.0146 133.467C56.5338 133.891 55.2823 134.887 54.5354 136.234C53.7886 137.582 53.6076 139.17 54.0322 140.651L83.1708 242.27C83.5955 243.751 84.5909 245.002 85.9383 245.749C87.2856 246.496 88.8745 246.677 90.3553 246.252L169.64 223.518C171.121 223.093 172.372 222.098 173.119 220.75C173.866 219.403 174.047 217.814 173.623 216.333L147.686 125.882C147.43 124.994 146.833 124.243 146.024 123.796L128.782 114.238C127.974 113.79 127.021 113.68 126.133 113.934V113.934Z" fill="#515979"/>
<path d="M134.096 131.591C132.941 131.921 131.702 131.779 130.652 131.197C129.601 130.614 128.825 129.639 128.492 128.485L125.418 117.765C125.323 117.434 125.329 117.082 125.434 116.754C125.538 116.426 125.738 116.136 126.008 115.922C126.186 115.777 126.392 115.671 126.613 115.609C127.057 115.482 127.533 115.537 127.937 115.761L145.18 125.319C145.481 125.486 145.726 125.739 145.884 126.045C146.041 126.351 146.105 126.697 146.066 127.04C146.027 127.382 145.887 127.705 145.665 127.968C145.442 128.231 145.147 128.422 144.816 128.517L134.096 131.591Z" fill="#D8EBFB"/>
<path d="M127.093 117.284L144.336 126.842L133.616 129.916C133.264 130.017 132.895 130.048 132.532 130.006C132.168 129.965 131.816 129.852 131.495 129.675C131.175 129.497 130.893 129.258 130.665 128.972C130.437 128.685 130.268 128.357 130.167 128.005L127.093 117.284ZM126.133 113.934C125.244 114.189 124.493 114.786 124.045 115.595C123.597 116.403 123.488 117.357 123.743 118.245L126.817 128.965C127.277 130.564 128.352 131.914 129.807 132.721C131.262 133.527 132.977 133.723 134.576 133.266L145.296 130.192C145.958 130.002 146.549 129.619 146.994 129.093C147.439 128.568 147.718 127.922 147.796 127.237C147.874 126.553 147.747 125.861 147.432 125.248C147.116 124.636 146.627 124.13 146.024 123.796L128.782 114.238C127.974 113.79 127.021 113.68 126.133 113.934V113.934Z" fill="#515979"/>
<path d="M88.648 212.904L90.4598 193.598L96.3028 195.536L101.524 186.54L110.223 186.849L115.264 179.289L122.149 203.298L88.648 212.904Z" fill="#D8F5DF"/>
<path d="M88.9683 214.02C88.8289 214.062 88.6828 214.075 88.5383 214.059C88.232 214.03 87.9498 213.88 87.7538 213.643C87.5578 213.406 87.4639 213.1 87.4927 212.794L89.299 193.49C89.3158 193.315 89.3719 193.147 89.4629 192.998C89.554 192.848 89.6777 192.721 89.8247 192.626C89.9712 192.53 90.1373 192.469 90.3108 192.446C90.4843 192.424 90.6607 192.441 90.8267 192.496L95.7686 194.136L100.517 185.935C100.622 185.753 100.775 185.604 100.959 185.502C101.142 185.4 101.35 185.351 101.56 185.358L109.611 185.641L114.293 178.619C114.378 178.492 114.487 178.383 114.614 178.299C114.741 178.214 114.884 178.155 115.033 178.126C115.183 178.096 115.337 178.097 115.487 178.127C115.637 178.157 115.779 178.216 115.906 178.301C116.032 178.386 116.141 178.495 116.226 178.623C116.31 178.75 116.369 178.892 116.398 179.042C116.428 179.192 116.428 179.346 116.398 179.495C116.367 179.645 116.308 179.787 116.223 179.914L111.194 187.495C111.084 187.659 110.933 187.793 110.757 187.882C110.581 187.972 110.385 188.015 110.187 188.008L102.185 187.728L97.3039 196.119C97.17 196.349 96.961 196.526 96.712 196.621C96.463 196.715 96.1891 196.722 95.9361 196.638L91.4795 195.173L89.8035 213.013C89.7815 213.246 89.6901 213.466 89.5411 213.646C89.3921 213.825 89.1925 213.956 88.9683 214.02Z" fill="#7DDF96"/>
<path d="M88.648 212.904L92.1577 200.235L96.385 201.386L99.9558 195.105L104.522 196.805L107.99 190.124L113.019 190.277L116.865 184.872L122.149 203.298L88.648 212.904Z" fill="#FFF8E2"/>
<path d="M88.9682 214.02C88.77 214.073 88.5614 214.073 88.3635 214.019C88.2162 213.978 88.0782 213.91 87.9576 213.816C87.8369 213.722 87.7358 213.606 87.6602 213.473C87.5846 213.341 87.5358 213.194 87.5168 213.043C87.4977 212.891 87.5087 212.738 87.5491 212.59L91.0643 199.92C91.1459 199.624 91.3414 199.373 91.6079 199.22C91.8745 199.068 92.1905 199.028 92.4869 199.108L95.8324 200.028L98.9563 194.527C99.0927 194.287 99.3102 194.103 99.57 194.009C99.8298 193.914 100.115 193.915 100.374 194.012L103.973 195.355L106.972 189.588C107.073 189.394 107.227 189.233 107.415 189.122C107.603 189.011 107.819 188.956 108.038 188.962L112.444 189.095L115.929 184.198C116.015 184.068 116.126 183.957 116.255 183.871C116.385 183.785 116.531 183.726 116.684 183.698C116.837 183.669 116.994 183.671 117.146 183.705C117.298 183.738 117.442 183.801 117.569 183.891C117.696 183.981 117.803 184.096 117.885 184.228C117.967 184.36 118.022 184.508 118.045 184.661C118.069 184.815 118.062 184.972 118.024 185.123C117.986 185.274 117.918 185.416 117.824 185.54L113.978 190.945C113.868 191.102 113.72 191.229 113.549 191.315C113.377 191.401 113.187 191.444 112.996 191.438L108.725 191.297L105.619 197.324C105.488 197.575 105.27 197.77 105.005 197.872C104.741 197.973 104.448 197.974 104.182 197.875L100.538 196.503L97.3892 201.938C97.2617 202.162 97.0629 202.338 96.8243 202.437C96.5857 202.536 96.3209 202.553 96.0717 202.485L92.9657 201.641L89.7645 213.194C89.7147 213.389 89.6152 213.567 89.4756 213.712C89.336 213.857 89.1612 213.963 88.9682 214.02V214.02Z" fill="#FFE8A0"/>
<path d="M140.894 199.131C138.686 199.764 136.339 199.728 134.15 199.028C131.962 198.327 130.031 196.994 128.601 195.196C127.17 193.398 126.305 191.216 126.115 188.926C125.925 186.636 126.418 184.342 127.532 182.332C128.646 180.322 130.33 178.688 132.373 177.636C134.416 176.584 136.724 176.162 139.007 176.422C141.29 176.682 143.444 177.613 145.198 179.098C146.952 180.582 148.226 182.553 148.859 184.762C149.708 187.724 149.346 190.901 147.852 193.596C146.359 196.291 143.856 198.282 140.894 199.131V199.131ZM135.451 180.147C133.905 180.59 132.525 181.482 131.486 182.71C130.446 183.937 129.795 185.445 129.613 187.043C129.43 188.641 129.726 190.257 130.463 191.687C131.199 193.117 132.343 194.296 133.75 195.076C135.156 195.856 136.763 196.201 138.365 196.068C139.968 195.935 141.496 195.329 142.754 194.328C144.013 193.327 144.946 191.975 145.437 190.443C145.927 188.911 145.952 187.269 145.509 185.723C144.914 183.649 143.521 181.897 141.634 180.852C139.748 179.806 137.524 179.553 135.451 180.147Z" fill="#515979"/>
<path d="M149.425 193.059L144.099 190.731C144.745 189.252 144.849 187.591 144.392 186.043L149.976 184.442C150.798 187.291 150.603 190.338 149.425 193.059Z" fill="#EF7D7D"/>
<path d="M149.976 184.442L144.392 186.043C143.988 184.639 143.151 183.398 141.998 182.499L145.574 177.921C147.695 179.574 149.236 181.857 149.976 184.442V184.442Z" fill="#FFE8A0"/>
<path d="M141.998 182.499C141.132 181.815 140.116 181.346 139.033 181.131C137.951 180.917 136.833 180.962 135.771 181.264L134.17 175.68C136.11 175.127 138.154 175.04 140.134 175.425C142.115 175.811 143.976 176.658 145.568 177.899L141.998 182.499Z" fill="#7DDF96"/>
<path d="M88.0876 210.949L84.7375 211.91C84.5154 211.974 84.277 211.947 84.0749 211.835C83.8728 211.723 83.7235 211.535 83.6598 211.313C83.5961 211.091 83.6233 210.852 83.7353 210.65C83.8473 210.448 84.0351 210.299 84.2572 210.235L87.6073 209.274C87.8294 209.211 88.0677 209.238 88.2698 209.35C88.4719 209.462 88.6212 209.65 88.6849 209.872C88.7486 210.094 88.7215 210.332 88.6094 210.534C88.4974 210.736 88.3097 210.886 88.0876 210.949Z" fill="#515979"/>
<path d="M86.4866 205.366L83.1365 206.327C82.9144 206.39 82.6761 206.363 82.474 206.251C82.2719 206.139 82.1226 205.951 82.0589 205.729C81.9952 205.507 82.0223 205.269 82.1344 205.067C82.2464 204.865 82.4341 204.715 82.6562 204.652L86.0063 203.691C86.2284 203.627 86.4668 203.655 86.6689 203.767C86.871 203.879 87.0203 204.066 87.084 204.288C87.1477 204.511 87.1205 204.749 87.0085 204.951C86.8965 205.153 86.7087 205.302 86.4866 205.366Z" fill="#515979"/>
<path d="M84.8855 199.783L81.5355 200.743C81.3134 200.807 81.075 200.78 80.8729 200.668C80.6708 200.556 80.5215 200.368 80.4578 200.146C80.3941 199.924 80.4213 199.685 80.5333 199.483C80.6453 199.281 80.833 199.132 81.0552 199.068L84.4052 198.108C84.6274 198.044 84.8657 198.071 85.0678 198.183C85.2699 198.295 85.4192 198.483 85.4829 198.705C85.5466 198.927 85.5194 199.165 85.4074 199.367C85.2954 199.57 85.1077 199.719 84.8855 199.783V199.783Z" fill="#515979"/>
<path d="M83.2846 194.199L79.9345 195.16C79.7124 195.224 79.4741 195.196 79.272 195.084C79.0699 194.972 78.9205 194.785 78.8569 194.562C78.7932 194.34 78.8203 194.102 78.9323 193.9C79.0444 193.698 79.2321 193.549 79.4542 193.485L82.8043 192.524C83.0264 192.461 83.2647 192.488 83.4668 192.6C83.6689 192.712 83.8183 192.899 83.8819 193.122C83.9456 193.344 83.9185 193.582 83.8065 193.784C83.6944 193.986 83.5067 194.136 83.2846 194.199Z" fill="#515979"/>
<path d="M114.974 209.887C114.752 209.95 114.514 209.923 114.312 209.811C114.11 209.699 113.96 209.511 113.897 209.289L112.936 205.939C112.872 205.717 112.899 205.479 113.011 205.277C113.123 205.075 113.311 204.925 113.533 204.862C113.755 204.798 113.994 204.825 114.196 204.937C114.398 205.049 114.547 205.237 114.611 205.459L115.572 208.809C115.635 209.031 115.608 209.269 115.496 209.472C115.384 209.674 115.196 209.823 114.974 209.887Z" fill="#515979"/>
<path d="M120.558 208.286C120.336 208.349 120.097 208.322 119.895 208.21C119.693 208.098 119.544 207.91 119.48 207.688L118.519 204.338C118.456 204.116 118.483 203.878 118.595 203.676C118.707 203.474 118.895 203.324 119.117 203.261C119.339 203.197 119.577 203.224 119.779 203.336C119.981 203.448 120.131 203.636 120.194 203.858L121.155 207.208C121.219 207.43 121.192 207.668 121.08 207.871C120.968 208.073 120.78 208.222 120.558 208.286Z" fill="#515979"/>
<path d="M109.391 211.488C109.169 211.551 108.93 211.524 108.728 211.412C108.526 211.3 108.377 211.112 108.313 210.89L107.352 207.54C107.289 207.318 107.316 207.08 107.428 206.878C107.54 206.676 107.728 206.526 107.95 206.463C108.172 206.399 108.41 206.426 108.612 206.538C108.814 206.65 108.964 206.838 109.027 207.06L109.988 210.41C110.052 210.632 110.025 210.87 109.913 211.073C109.801 211.275 109.613 211.424 109.391 211.488Z" fill="#515979"/>
<path d="M103.807 213.089C103.585 213.152 103.347 213.125 103.145 213.013C102.943 212.901 102.793 212.713 102.73 212.491L101.769 209.141C101.705 208.919 101.733 208.681 101.845 208.479C101.957 208.277 102.144 208.127 102.366 208.064C102.589 208 102.827 208.027 103.029 208.139C103.231 208.251 103.38 208.439 103.444 208.661L104.405 212.011C104.468 212.233 104.441 212.471 104.329 212.674C104.217 212.876 104.029 213.025 103.807 213.089Z" fill="#515979"/>
<path d="M98.2239 214.69C98.0017 214.753 97.7634 214.726 97.5613 214.614C97.3592 214.502 97.2099 214.315 97.1462 214.092L96.1856 210.742C96.1219 210.52 96.149 210.282 96.2611 210.08C96.3731 209.878 96.5608 209.728 96.783 209.665C97.0051 209.601 97.2434 209.628 97.4455 209.74C97.6476 209.852 97.7969 210.04 97.8606 210.262L98.8212 213.612C98.8849 213.834 98.8578 214.073 98.7457 214.275C98.6337 214.477 98.446 214.626 98.2239 214.69Z" fill="#515979"/>
<path d="M92.6405 216.291C92.4184 216.354 92.18 216.327 91.9779 216.215C91.7758 216.103 91.6265 215.916 91.5628 215.693L90.6022 212.343C90.5385 212.121 90.5657 211.883 90.6777 211.681C90.7897 211.479 90.9775 211.329 91.1996 211.266C91.4217 211.202 91.66 211.229 91.8621 211.341C92.0642 211.453 92.2136 211.641 92.2772 211.863L93.2379 215.213C93.3016 215.435 93.2744 215.674 93.1624 215.876C93.0503 216.078 92.8626 216.227 92.6405 216.291V216.291Z" fill="#515979"/>
<path d="M88.648 212.904L92.4835 205.586L97.4276 207.129L100.44 201.009L105.885 203.665L108.94 196.891L114.378 199.526L118.626 191.014L122.149 203.298L88.648 212.904Z" fill="#FAD8D8"/>
<path d="M88.9682 214.02C88.7496 214.083 88.5173 214.081 88.3001 214.013C88.083 213.945 87.8905 213.815 87.7467 213.639C87.6028 213.462 87.5139 213.248 87.4909 213.021C87.4679 212.795 87.5119 212.567 87.6175 212.365L91.4569 205.041C91.5832 204.801 91.7896 204.612 92.0401 204.509C92.2906 204.405 92.5696 204.392 92.8287 204.472L96.8192 205.745L99.3928 200.517C99.5278 200.241 99.7669 200.03 100.057 199.929C100.348 199.829 100.667 199.848 100.943 199.982L105.307 202.114L107.871 196.431C107.935 196.289 108.027 196.162 108.141 196.057C108.255 195.952 108.389 195.87 108.535 195.818C108.681 195.765 108.836 195.743 108.991 195.751C109.146 195.759 109.298 195.799 109.437 195.867L113.844 197.999L117.583 190.516C117.732 190.261 117.972 190.072 118.255 189.988C118.538 189.903 118.842 189.93 119.106 190.062C119.37 190.194 119.574 190.421 119.676 190.698C119.779 190.975 119.772 191.28 119.657 191.552L115.415 200.044C115.279 200.318 115.04 200.527 114.75 200.626C114.461 200.725 114.144 200.705 113.868 200.572L109.511 198.462L106.942 204.147C106.878 204.29 106.787 204.418 106.673 204.524C106.559 204.631 106.425 204.713 106.279 204.766C106.133 204.819 105.978 204.842 105.823 204.833C105.668 204.825 105.516 204.785 105.377 204.717L100.971 202.566L98.4765 207.668C98.3535 207.916 98.1459 208.112 97.8912 208.221C97.6364 208.329 97.3513 208.343 97.0872 208.26L93.0689 206.995L89.6833 213.459C89.608 213.596 89.5059 213.716 89.383 213.813C89.2601 213.909 89.119 213.98 88.9682 214.02V214.02Z" fill="#EF7D7D"/>
<path d="M122.469 204.414L88.9682 214.02C88.672 214.105 88.3543 214.069 88.0848 213.92C87.8153 213.77 87.6162 213.52 87.5313 213.224L81.1272 190.89C81.0423 190.594 81.0785 190.276 81.2279 190.007C81.3772 189.737 81.6275 189.538 81.9237 189.453C82.2199 189.368 82.5376 189.405 82.8071 189.554C83.0766 189.703 83.2757 189.954 83.3606 190.25L89.4445 211.467L121.828 202.181C122.125 202.096 122.442 202.132 122.712 202.282C122.981 202.431 123.18 202.681 123.265 202.977C123.35 203.274 123.314 203.591 123.165 203.861C123.015 204.13 122.765 204.329 122.469 204.414Z" fill="#515979"/>
<path d="M116.893 214.473L96.7931 220.236C96.1763 220.413 95.8198 221.056 95.9966 221.673C96.1734 222.29 96.8168 222.646 97.4335 222.47L117.534 216.706C118.151 216.529 118.507 215.886 118.33 215.269C118.154 214.652 117.51 214.296 116.893 214.473Z" fill="#515979"/>
<path d="M92.5685 224.469C93.4936 224.204 94.0285 223.239 93.7632 222.313C93.498 221.388 92.533 220.853 91.6079 221.119C90.6828 221.384 90.1479 222.349 90.4132 223.274C90.6784 224.199 91.6434 224.734 92.5685 224.469Z" fill="#7DDF96"/>
<path d="M107.007 222.141L98.0738 224.703C97.4571 224.88 97.1005 225.523 97.2774 226.14C97.4542 226.757 98.0975 227.113 98.7143 226.936L107.648 224.375C108.264 224.198 108.621 223.554 108.444 222.938C108.267 222.321 107.624 221.964 107.007 222.141Z" fill="#515979"/>
<path d="M93.8493 228.936C94.7744 228.67 95.3093 227.705 95.044 226.78C94.7787 225.855 93.8137 225.32 92.8887 225.586C91.9636 225.851 91.4287 226.816 91.6939 227.741C91.9592 228.666 92.9242 229.201 93.8493 228.936Z" fill="#FFE8A0"/>
<path d="M113.872 225.007L99.3547 229.17C98.738 229.347 98.3814 229.99 98.5582 230.607C98.7351 231.223 99.3784 231.58 99.9951 231.403L114.512 227.24C115.129 227.064 115.485 226.42 115.309 225.803C115.132 225.187 114.488 224.83 113.872 225.007Z" fill="#515979"/>
<path d="M95.1302 233.402C96.0552 233.137 96.5901 232.172 96.3249 231.247C96.0596 230.322 95.0946 229.787 94.1695 230.052C93.2444 230.318 92.7095 231.283 92.9748 232.208C93.2401 233.133 94.2051 233.668 95.1302 233.402Z" fill="#EF7D7D"/>
<path d="M154.303 203.746L137.552 208.549C136.936 208.726 136.579 209.369 136.756 209.986C136.933 210.602 137.576 210.959 138.193 210.782L154.943 205.979C155.56 205.802 155.916 205.159 155.739 204.542C155.563 203.925 154.919 203.569 154.303 203.746Z" fill="#515979"/>
<path d="M133.328 212.781C134.253 212.516 134.788 211.551 134.522 210.626C134.257 209.701 133.292 209.166 132.367 209.431C131.442 209.697 130.907 210.661 131.172 211.587C131.438 212.512 132.403 213.047 133.328 212.781Z" fill="#7DDF96"/>
<path d="M150 209.813L138.833 213.015C138.216 213.192 137.86 213.836 138.037 214.452C138.213 215.069 138.857 215.426 139.473 215.249L150.64 212.047C151.257 211.87 151.614 211.227 151.437 210.61C151.26 209.993 150.617 209.637 150 209.813Z" fill="#515979"/>
<path d="M134.608 217.248C135.534 216.983 136.068 216.018 135.803 215.093C135.538 214.168 134.573 213.633 133.648 213.898C132.723 214.163 132.188 215.128 132.453 216.053C132.718 216.978 133.683 217.513 134.608 217.248Z" fill="#FFE8A0"/>
<path d="M147.931 215.241L140.114 217.482C139.497 217.659 139.141 218.302 139.317 218.919C139.494 219.536 140.138 219.892 140.754 219.716L148.571 217.474C149.188 217.297 149.544 216.654 149.368 216.037C149.191 215.421 148.547 215.064 147.931 215.241Z" fill="#515979"/>
<path d="M135.889 221.715C136.814 221.45 137.349 220.485 137.084 219.56C136.819 218.634 135.854 218.1 134.929 218.365C134.003 218.63 133.469 219.595 133.734 220.52C133.999 221.445 134.964 221.98 135.889 221.715Z" fill="#EF7D7D"/>
<path d="M119.364 152.493C119.17 152.552 118.965 152.561 118.767 152.519C118.063 152.419 117.346 152.469 116.663 152.665C115.98 152.861 115.346 153.198 114.803 153.656C114.582 153.871 114.285 153.99 113.977 153.987C113.669 153.983 113.375 153.858 113.16 153.637C112.944 153.417 112.825 153.12 112.829 152.812C112.832 152.504 112.958 152.21 113.178 151.995C113.999 151.27 114.971 150.737 116.024 150.435C117.077 150.134 118.184 150.07 119.264 150.25C119.519 150.305 119.748 150.445 119.914 150.647C120.08 150.849 120.173 151.101 120.178 151.362C120.183 151.623 120.1 151.878 119.942 152.087C119.784 152.295 119.561 152.443 119.308 152.509L119.364 152.493Z" fill="#515979"/>
<path d="M116.411 151.678C118.878 150.971 120.304 148.397 119.597 145.93C118.889 143.464 116.316 142.037 113.849 142.745C111.382 143.452 109.956 146.025 110.663 148.492C111.371 150.959 113.944 152.385 116.411 151.678Z" fill="#515979"/>
<path d="M116.567 148.008C117.184 147.831 117.54 147.188 117.363 146.571C117.187 145.954 116.543 145.598 115.927 145.774C115.31 145.951 114.953 146.595 115.13 147.211C115.307 147.828 115.95 148.185 116.567 148.008Z" fill="white"/>
<path d="M109.245 139.037C109.505 138.652 109.809 138.299 110.152 137.986C110.472 137.678 110.822 137.403 111.198 137.166C111.984 136.664 112.863 136.325 113.783 136.171C114.022 136.132 114.263 136.107 114.505 136.097C114.751 136.093 114.996 136.101 115.24 136.11C115.485 136.136 115.728 136.175 115.968 136.227C116.21 136.265 116.446 136.331 116.671 136.424C117.558 136.736 118.342 137.284 118.939 138.01C119.113 138.191 119.225 138.423 119.256 138.673C119.287 138.922 119.236 139.175 119.112 139.393C118.987 139.611 118.795 139.783 118.564 139.883C118.334 139.983 118.077 140.005 117.832 139.947L117.59 139.901C117.012 139.76 116.427 139.654 115.837 139.582C115.321 139.525 114.801 139.539 114.289 139.621C113.726 139.705 113.172 139.841 112.635 140.029C112.345 140.112 112.053 140.232 111.756 140.354C111.458 140.475 111.138 140.622 110.875 140.697L110.535 140.795C110.238 140.879 109.921 140.843 109.651 140.694C109.382 140.545 109.183 140.294 109.098 139.998C109.051 139.837 109.041 139.667 109.066 139.502C109.092 139.336 109.153 139.177 109.245 139.037V139.037Z" fill="#515979"/>
<path d="M100.38 157.936C100.187 157.997 99.9808 158.006 99.783 157.963C99.0785 157.863 98.3608 157.913 97.6768 158.109C96.9928 158.305 96.3578 158.643 95.8132 159.101C95.5896 159.298 95.2985 159.402 95.0004 159.391C94.7022 159.38 94.4198 159.254 94.2117 159.041C94.0036 158.827 93.8857 158.541 93.8824 158.243C93.8792 157.945 93.9909 157.656 94.1944 157.438C95.0145 156.714 95.9858 156.181 97.0377 155.88C98.0895 155.578 99.1954 155.515 100.275 155.695C100.527 155.75 100.753 155.887 100.919 156.086C101.084 156.284 101.178 156.532 101.187 156.79C101.196 157.048 101.119 157.301 100.967 157.51C100.816 157.719 100.6 157.872 100.352 157.944L100.38 157.936Z" fill="#515979"/>
<path d="M97.4271 157.121C99.894 156.414 101.32 153.841 100.613 151.374C99.9056 148.907 97.3323 147.481 94.8654 148.188C92.3985 148.895 90.9721 151.469 91.6795 153.936C92.3869 156.402 94.9602 157.829 97.4271 157.121Z" fill="#515979"/>
<path d="M97.5831 153.451C98.1999 153.274 98.5565 152.631 98.3796 152.014C98.2028 151.398 97.5595 151.041 96.9427 151.218C96.326 151.395 95.9694 152.038 96.1463 152.655C96.3231 153.272 96.9664 153.628 97.5831 153.451Z" fill="white"/>
<path d="M96.3303 144.868C96.0678 144.943 95.7041 144.981 95.4017 145.043C95.0994 145.106 94.7787 145.167 94.4836 145.234C93.9286 145.359 93.3867 145.537 92.8653 145.764C92.3874 145.966 91.9389 146.23 91.532 146.552C91.0692 146.925 90.6292 147.325 90.2143 147.751L90.0381 147.917C89.9247 148.024 89.7908 148.107 89.6444 148.162C89.498 148.216 89.3421 148.241 89.186 148.234C89.03 148.227 88.877 148.188 88.7362 148.12C88.5954 148.053 88.4697 147.957 88.3665 147.84C88.2509 147.707 88.1658 147.549 88.1172 147.38C88.0685 147.21 88.0574 147.032 88.0848 146.857C88.2065 145.926 88.5809 145.045 89.1674 144.311C89.3094 144.112 89.4745 143.931 89.6592 143.771C89.8357 143.6 90.0212 143.438 90.2148 143.286C90.4173 143.149 90.6199 143.012 90.8312 142.885C91.0294 142.771 91.2339 142.668 91.4436 142.577C92.3054 142.22 93.2304 142.041 94.163 142.051C94.6071 142.053 95.0499 142.1 95.4844 142.192C95.9413 142.276 96.3865 142.414 96.8108 142.603C97.026 142.701 97.206 142.863 97.3269 143.066C97.4478 143.269 97.5038 143.504 97.4874 143.74C97.4709 143.976 97.3829 144.202 97.235 144.386C97.0871 144.571 96.8864 144.706 96.6597 144.773L96.3303 144.868Z" fill="#515979"/>
<path d="M111.986 172.071C108.951 172.937 105.696 172.564 102.935 171.033C100.174 169.503 98.1326 166.94 97.258 163.907C97.1519 163.537 97.1971 163.14 97.3839 162.803C97.5706 162.466 97.8834 162.217 98.2536 162.111L118.354 156.348C118.724 156.241 119.121 156.287 119.458 156.473C119.795 156.66 120.044 156.973 120.15 157.343C121.016 160.379 120.643 163.634 119.112 166.395C117.582 169.155 115.019 171.197 111.986 172.071Z" fill="#515979"/>
<path d="M118.754 157.743C119.519 160.409 119.193 163.269 117.848 165.694C116.504 168.119 114.251 169.911 111.586 170.676C108.92 171.44 106.06 171.114 103.635 169.77C101.21 168.425 99.4182 166.173 98.6539 163.507L118.754 157.743ZM117.954 154.952L97.8533 160.715C97.1129 160.928 96.4872 161.425 96.1138 162.099C95.7403 162.773 95.6498 163.567 95.8621 164.308C96.3391 165.996 97.144 167.574 98.2307 168.951C99.3175 170.328 100.665 171.478 102.196 172.335C105.288 174.065 108.941 174.495 112.351 173.532C115.76 172.569 118.648 170.29 120.378 167.198C122.107 164.106 122.538 160.453 121.575 157.043L121.546 156.943C121.334 156.203 120.836 155.577 120.162 155.203C119.489 154.83 118.694 154.739 117.954 154.952Z" fill="#515979"/>
<path d="M111.586 170.675C115.715 169.492 118.632 167.032 118.101 165.182C117.571 163.331 113.794 162.791 109.665 163.975C105.536 165.159 102.618 167.619 103.149 169.469C103.68 171.319 107.457 171.859 111.586 170.675Z" fill="#EF7D7D"/>
<path d="M84.8513 163.839C85.6222 163.618 86.0679 162.814 85.8469 162.043C85.6258 161.272 84.8217 160.827 84.0508 161.048C83.2799 161.269 82.8341 162.073 83.0552 162.844C83.2762 163.615 84.0804 164.061 84.8513 163.839Z" fill="#FDE1D9"/>
<path d="M89.6834 169.101C90.4543 168.88 90.9001 168.075 90.679 167.305C90.458 166.534 89.6538 166.088 88.8829 166.309C88.112 166.53 87.6663 167.334 87.8873 168.105C88.1084 168.876 88.9125 169.322 89.6834 169.101Z" fill="#FDE1D9"/>
<path d="M83.5416 170.862C84.3125 170.641 84.7582 169.837 84.5372 169.066C84.3161 168.295 83.512 167.849 82.7411 168.07C81.9702 168.291 81.5244 169.095 81.7455 169.866C81.9665 170.637 82.7707 171.083 83.5416 170.862Z" fill="#FDE1D9"/>
<path d="M130.636 150.711C131.406 150.49 131.852 149.686 131.631 148.915C131.41 148.144 130.606 147.698 129.835 147.919C129.064 148.14 128.618 148.945 128.839 149.715C129.061 150.486 129.865 150.932 130.636 150.711Z" fill="#FDE1D9"/>
<path d="M135.467 155.972C136.238 155.751 136.684 154.947 136.463 154.176C136.242 153.405 135.438 152.959 134.667 153.181C133.896 153.402 133.45 154.206 133.671 154.977C133.892 155.748 134.697 156.193 135.467 155.972Z" fill="#FDE1D9"/>
<path d="M129.326 157.733C130.097 157.512 130.542 156.708 130.321 155.937C130.1 155.166 129.296 154.721 128.525 154.942C127.754 155.163 127.309 155.967 127.53 156.738C127.751 157.509 128.555 157.954 129.326 157.733Z" fill="#FDE1D9"/>
</svg>
