<?xml version="1.0" encoding="utf-8"?>
<!-- Generator: Adobe Illustrator 26.0.2, SVG Export Plug-In . SVG Version: 6.00 Build 0)  -->
<svg version="1.1" id="CRO_x5F_Hub-Conversion_x5F_Tips"
	 xmlns="http://www.w3.org/2000/svg" xmlns:xlink="http://www.w3.org/1999/xlink" x="0px" y="0px" viewBox="0 0 400 400"
	 style="enable-background:new 0 0 400 400;" xml:space="preserve">
<style type="text/css">
	.st0{fill:#FFFFFF;}
	.st1{fill:#D8EBFB;}
	.st2{fill:#515979;}
	.st3{fill:#FFD886;}
	.st4{fill:none;}
	.st5{fill:#AAA0FF;}
	.st6{clip-path:url(#SVGID_00000166671090718628764270000005153383725049975211_);}
	.st7{fill:#B29D90;}
	.st8{fill:#9E8271;}
	.st9{fill:#7DDF96;}
	.st10{fill:#00C853;}
	.st11{fill:#DCD3CD;}
	.st12{fill:#F0EBE9;}
	.st13{fill:#FDE4DD;}
	.st14{fill:#5F87A5;}
	.st15{fill:#507396;}
	.st16{fill:#6F93AE;}
	.st17{fill:#3CB48C;}
	.st18{fill:#CEEDD9;}
	.st19{fill:#EF7D7D;}
</style>
<g>
	<g>
		<polygon class="st0" points="357.85,49.7 356.3,43.91 344.71,47.01 343.16,41.22 331.56,44.32 333.12,50.12 327.32,51.67 
			324.22,40.08 312.62,43.19 315.73,54.78 309.93,56.33 299.06,15.76 287.47,18.87 306.11,88.41 300.31,89.97 297.21,78.37 
			291.41,79.93 289.86,74.13 278.27,77.24 281.37,88.83 287.17,87.28 288.72,93.07 294.52,91.52 297.62,103.11 303.42,101.56 
			306.52,113.15 312.32,111.59 315.43,123.19 321.22,121.63 324.33,133.22 370.69,120.8 367.59,109.21 373.38,107.66 368.72,90.27 
			374.52,88.72 363.65,48.15 		"/>
	</g>
	<g>
		
			<rect x="313.77" y="110.61" transform="matrix(0.9659 -0.2588 0.2588 0.9659 -19.3883 85.9598)" class="st1" width="6" height="12"/>
	</g>
	<g>
		
			<rect x="304.87" y="100.58" transform="matrix(0.9659 -0.2588 0.2588 0.9659 -17.0935 83.3139)" class="st1" width="6" height="12"/>
	</g>
	<g>
		
			<rect x="295.97" y="90.54" transform="matrix(0.9659 -0.2588 0.2588 0.9659 -14.7987 80.668)" class="st1" width="6" height="12"/>
	</g>
	<g>
		
			<rect x="279.72" y="76.26" transform="matrix(0.9659 -0.2588 0.2588 0.9659 -11.6563 75.9756)" class="st1" width="6" height="12"/>
	</g>
	<g>
		<rect x="287.84" y="86.4" transform="matrix(0.9659 -0.2588 0.2588 0.9659 -13.2275 78.3218)" class="st1" width="6" height="6"/>
	</g>
	<g>
		
			<rect x="322.67" y="120.65" transform="matrix(0.9659 -0.2588 0.2588 0.9659 -21.683 88.6057)" class="st1" width="6" height="12"/>
	</g>
	<g>
		<g>
			
				<rect x="286.49" y="11.42" transform="matrix(0.9659 -0.2588 0.2588 0.9659 6.2355 76.1938)" class="st2" width="12" height="6"/>
		</g>
		<g>
			<polygon class="st2" points="318.84,66.37 312.62,43.19 324.22,40.08 322.66,34.28 311.07,37.39 304.86,14.21 299.06,15.76 
				313.04,67.92 			"/>
		</g>
		<g>
			<polygon class="st2" points="336.22,61.71 331.56,44.32 343.16,41.22 341.6,35.42 324.22,40.08 330.43,63.26 			"/>
		</g>
		<g>
			<polygon class="st2" points="355.16,62.85 350.5,45.46 356.3,43.91 354.75,38.11 343.16,41.22 349.37,64.4 			"/>
		</g>
		<g>
			
				<rect x="370.95" y="89.19" transform="matrix(0.9659 -0.2588 0.2588 0.9659 -12.6707 100.131)" class="st2" width="6" height="18"/>
		</g>
		<g>
			<polygon class="st2" points="370.69,120.8 324.33,133.22 321.22,121.63 315.43,123.19 320.08,140.57 378.04,125.04 
				373.38,107.66 367.59,109.21 			"/>
		</g>
		<g>
			
				<rect x="307.98" y="112.17" transform="matrix(0.9659 -0.2588 0.2588 0.9659 -19.9877 84.5127)" class="st2" width="6" height="12"/>
		</g>
		<g>
			
				<rect x="299.07" y="102.13" transform="matrix(0.9659 -0.2588 0.2588 0.9659 -17.6929 81.8668)" class="st2" width="6" height="12"/>
		</g>
		<g>
			
				<rect x="290.17" y="92.09" transform="matrix(0.9659 -0.2588 0.2588 0.9659 -15.3981 79.2209)" class="st2" width="6" height="12"/>
		</g>
		<g>
			
				<rect x="282.05" y="87.95" transform="matrix(0.9659 -0.2588 0.2588 0.9659 -13.8269 76.8747)" class="st2" width="6" height="6"/>
		</g>
		<g>
			<polygon class="st2" points="297.21,78.37 300.31,89.97 306.11,88.41 287.47,18.87 281.68,20.42 295.65,72.58 289.86,74.13 
				291.41,79.93 			"/>
		</g>
		<g>
			<polygon class="st2" points="289.86,74.13 288.31,68.34 270.92,73 275.58,90.38 281.37,88.83 278.27,77.24 			"/>
		</g>
		<g>
			<rect x="356.97" y="43.03" transform="matrix(0.9659 -0.2588 0.2588 0.9659 0.3531 94.7363)" class="st2" width="6" height="6"/>
		</g>
		<g>
			
				<rect x="368.98" y="46.66" transform="matrix(0.9659 -0.2588 0.2588 0.9659 -4.8359 98.581)" class="st2" width="6" height="42"/>
		</g>
	</g>
	<g>
		
			<rect x="322.12" y="81.67" transform="matrix(0.9659 -0.2588 0.2588 0.9659 -13.166 87.3383)" class="st2" width="6" height="24"/>
	</g>
	<g>
		
			<rect x="333.71" y="78.57" transform="matrix(0.9659 -0.2588 0.2588 0.9659 -11.9672 90.2325)" class="st2" width="6" height="24"/>
	</g>
	<g>
		
			<rect x="345.3" y="75.46" transform="matrix(0.9659 -0.2588 0.2588 0.9659 -10.7684 93.1267)" class="st2" width="6" height="24"/>
	</g>
</g>
<g>
	<path class="st3" d="M368.93,278.49c-2.98,0-5.4-2.42-5.4-5.4c0-0.99-0.81-1.8-1.8-1.8c-0.99,0-1.8,0.81-1.8,1.8
		c0,2.98-2.42,5.4-5.4,5.4c-0.99,0-1.8,0.81-1.8,1.8s0.81,1.8,1.8,1.8c2.98,0,5.4,2.42,5.4,5.4c0,0.99,0.81,1.8,1.8,1.8
		c0.99,0,1.8-0.81,1.8-1.8c0-2.98,2.42-5.4,5.4-5.4c0.99,0,1.8-0.81,1.8-1.8S369.93,278.49,368.93,278.49z"/>
</g>
<g>
	<circle class="st3" cx="216.45" cy="156.36" r="4.5"/>
</g>
<g>
	<circle class="st3" cx="218.95" cy="114.16" r="2.5"/>
</g>
<g>
	<circle class="st3" cx="338.4" cy="307.79" r="2.5"/>
</g>
<g>
	<circle class="st3" cx="355.16" cy="329.38" r="2.5"/>
</g>
<g>
	<circle class="st3" cx="331.12" cy="348.04" r="2.5"/>
</g>
<g>
	<rect y="0" class="st4" width="400" height="400"/>
</g>
<path class="st3" d="M252.28,71.8h-6v-6c0-1.66-1.34-3-3-3s-3,1.34-3,3v6h-6c-1.66,0-3,1.34-3,3s1.34,3,3,3h6v6c0,1.66,1.34,3,3,3
	s3-1.34,3-3v-6h6c1.66,0,3-1.34,3-3S253.94,71.8,252.28,71.8z"/>
<g>
	<g>
		<circle class="st5" cx="91.04" cy="191.71" r="80"/>
		<path class="st2" d="M91.04,274.71c-45.77,0-83-37.23-83-83c0-45.77,37.23-83,83-83s83,37.23,83,83
			C174.04,237.48,136.8,274.71,91.04,274.71z M91.04,114.71c-42.46,0-77,34.54-77,77c0,42.46,34.54,77,77,77s77-34.54,77-77
			C168.04,149.26,133.49,114.71,91.04,114.71z"/>
	</g>
	<g>
		<defs>
			<path id="SVGID_1_" d="M228.04,0.71h-150v112.07c-38,6.21-67,39.18-67,78.93c0,44.18,35.82,80,80,80s80-35.82,80-80
				c0-10.99-2.22-21.47-6.23-31h63.23V0.71z"/>
		</defs>
		<clipPath id="SVGID_00000012458523891514541820000012581588250173752237_">
			<use xlink:href="#SVGID_1_"  style="overflow:visible;"/>
		</clipPath>
		<g style="clip-path:url(#SVGID_00000012458523891514541820000012581588250173752237_);">
			<g>
				<g>
					<path class="st7" d="M49.08,352.76c-0.43,0-0.87-0.09-1.27-0.28l-53.47-24.93c-0.75-0.35-1.32-0.99-1.58-1.77
						c-0.26-0.78-0.19-1.63,0.2-2.36l53.29-100.17c0.39-7.11,3.65-62.74,9.67-75.64c0.99-2.11,3.99-8.55,32-21.92
						c13.47-6.43,26.42-11.44,26.55-11.49c0.35-0.13,0.72-0.2,1.08-0.2c0.65,0,1.3,0.21,1.83,0.62c0.83,0.64,1.27,1.66,1.15,2.71
						l-7.22,65.46c-0.01,0.12-0.03,0.23-0.06,0.35l-13.55,58.41c-0.04,0.17-0.09,0.33-0.16,0.48l-45.71,108.9
						c-0.32,0.75-0.92,1.34-1.69,1.64C49.81,352.69,49.44,352.76,49.08,352.76z"/>
				</g>
				<g>
					<g>
						<path class="st2" d="M115.55,116.99l-7.22,65.46l-13.55,58.41l-45.71,108.9l-53.47-24.93l53.6-100.76
							c0,0,3.31-62.07,9.43-75.2C64.29,136.75,115.55,116.99,115.55,116.99 M115.55,110.99c-0.73,0-1.46,0.13-2.16,0.4
							c-0.53,0.21-13.19,5.1-26.77,11.58c-25.98,12.4-31.52,19.27-33.43,23.36c-6.11,13.1-9.31,65.36-9.91,76.09L-9.69,322
							c-0.77,1.45-0.92,3.16-0.39,4.72c0.52,1.56,1.66,2.84,3.15,3.53l53.47,24.93c0.8,0.37,1.67,0.56,2.54,0.56
							c0.73,0,1.46-0.13,2.16-0.4c1.52-0.59,2.74-1.77,3.37-3.28l45.71-108.9c0.13-0.31,0.24-0.64,0.31-0.97l13.55-58.41
							c0.05-0.23,0.09-0.46,0.12-0.7l7.22-65.46c0.23-2.08-0.64-4.13-2.3-5.41C118.15,111.42,116.86,110.99,115.55,110.99
							L115.55,110.99z M115.55,122.99L115.55,122.99L115.55,122.99L115.55,122.99z"/>
					</g>
				</g>
			</g>
			<g>
				<path class="st8" d="M115.91,173.8l-0.35-56.81c0,0-27.53,10.61-44.47,21.05l1.46,11.24c0.17,1.3,0.96,2.43,2.12,3.03
					L115.91,173.8z"/>
			</g>
			<g>
				<g>
					<path class="st8" d="M94.76,193.74l18.56-26.42l14.87,10.45l0.27,1.09c0.37,1.53,3.52,15.15-0.97,21.62
						c-3.48,5.01-14.65,7.8-16.86,8.31l-1.7,0.39L94.76,193.74z"/>
				</g>
				<g>
					<g>
						<path class="st2" d="M114.05,171.5l11.49,8.08c0,0,3.33,13.65-0.52,19.19c-3,4.31-15.07,7.1-15.07,7.1L98.6,193.49
							L114.05,171.5 M112.59,163.14l-3.45,4.91l-15.45,21.99l-2.77,3.95l3.26,3.56l11.35,12.38l2.36,2.58l3.41-0.79
							c3.36-0.78,14.64-3.76,18.65-9.52c5.01-7.2,2.35-20.22,1.42-24.04l-0.53-2.19l-1.84-1.3l-11.49-8.08L112.59,163.14
							L112.59,163.14z"/>
					</g>
				</g>
			</g>
			<g>
				<g>
					<path class="st8" d="M102.19,178.34l13.64-29.26l16.47,7.68l0.46,1.03c0.64,1.44,6.13,14.3,2.83,21.45
						c-2.55,5.54-13.06,10.25-15.14,11.14l-1.61,0.69L102.19,178.34z"/>
				</g>
				<g>
					<g>
						<path class="st2" d="M117.29,153.07l12.73,5.94c0,0,5.68,12.86,2.85,18.99c-2.2,4.77-13.59,9.63-13.59,9.63l-13.35-10.2
							L117.29,153.07 M114.38,145.09l-2.54,5.44l-11.36,24.36l-2.04,4.37l3.83,2.93l13.35,10.2l2.78,2.12l3.22-1.37
							c3.17-1.35,13.75-6.26,16.69-12.64c3.67-7.97-1.23-20.32-2.81-23.92l-0.91-2.06l-2.04-0.95l-12.73-5.94L114.38,145.09
							L114.38,145.09z"/>
					</g>
				</g>
			</g>
			<g>
				<polygon class="st8" points="35.48,343.42 88.9,246.56 94.79,240.86 49.08,349.76 				"/>
			</g>
			<g>
				<g>
					<g>
						<g>
							<path class="st9" d="M148.81,152.02c-0.1,0-0.2,0-0.3-0.01l-62.67-6.26c-1.47-0.15-2.61-1.34-2.7-2.81
								c-2.55-44.32,1.87-88.56,13.14-131.5c0.35-1.33,1.55-2.24,2.9-2.24c0.1,0,0.2,0,0.3,0.01l62.67,6.26
								c0.87,0.09,1.66,0.55,2.17,1.27c0.5,0.72,0.66,1.62,0.44,2.47c-11.11,42.33-15.47,85.94-12.95,129.63
								c0.05,0.88-0.29,1.73-0.92,2.34C150.33,151.73,149.58,152.02,148.81,152.02z"/>
						</g>
						<g>
							<path class="st2" d="M99.19,12.2c20.89,2.09,41.78,4.17,62.67,6.26c-11.17,42.57-15.57,86.63-13.05,130.56
								c-20.89-2.09-41.78-4.17-62.67-6.26C83.62,98.83,88.02,54.77,99.19,12.2 M99.19,6.2c-2.7,0-5.1,1.82-5.8,4.48
								c-11.35,43.24-15.8,87.8-13.23,132.43c0.17,2.95,2.46,5.33,5.39,5.63l62.67,6.26c0.2,0.02,0.4,0.03,0.6,0.03
								c1.54,0,3.03-0.59,4.15-1.67c1.27-1.21,1.94-2.92,1.84-4.68c-2.5-43.37,1.83-86.67,12.86-128.7c0.45-1.7,0.13-3.51-0.88-4.95
								c-1-1.44-2.58-2.37-4.33-2.55L99.79,6.23C99.59,6.21,99.38,6.2,99.19,6.2L99.19,6.2z"/>
						</g>
					</g>
				</g>
				<g>
					<g>
						<path class="st10" d="M145.59,71.23c1.62-12.7,3.82-25.32,6.6-37.84c-5.69-0.57-9.31-5.59-7.92-11.17
							c-10.08-1.01-20.16-2.01-30.24-3.02c-1.39,5.59-7,9.68-12.69,9.11c-2.78,12.52-4.98,25.14-6.6,37.84
							c5.84-7.05,16.25-11.19,27.23-10.1C132.98,57.15,141.68,63.2,145.59,71.23z M123.6,46.49c-4.93-0.49-8.27-4.56-7.36-9.06
							c0.91-4.5,5.74-7.74,10.67-7.25c4.94,0.5,8.11,4.53,7.2,9.03C133.2,43.71,128.54,46.98,123.6,46.49z"/>
					</g>
					<g>
						<path class="st10" d="M102.08,138.83c10.08,1.01,20.16,2.01,30.24,3.02c-0.26-5.75,4.29-9.95,9.98-9.38
							c-0.25-12.82,0.09-25.63,1.01-38.4c-5.42,7.1-15.15,11.31-26.15,10.21c-10.99-1.1-20.37-7.22-24.7-15.29
							c-0.92,12.77-1.26,25.58-1.01,38.4C97.14,127.96,101.82,133.09,102.08,138.83z M116.88,130.63c-4.93-0.5-9.02-4.62-9.03-9.22
							c-0.01-4.6,4.07-7.92,9.01-7.43c4.93,0.49,8.86,4.61,8.86,9.21C125.72,127.79,121.81,131.12,116.88,130.63z"/>
					</g>
				</g>
				<g>
					<g>
						<path class="st10" d="M125.64,80.6c0.22-2.24-0.4-3.77-1.93-4.56c-0.36-0.19-0.72-0.39-1.08-0.58
							c0.91-1.89,1.84-3.78,2.78-5.67c0.37,0.18,0.75,0.36,1.12,0.55c3.06,1.54,4.66,4.24,4.84,8.14c1.02,0.1,2.04,0.2,3.05,0.31
							c-0.21,1.96-0.41,3.93-0.59,5.89c-1.04-0.1-2.09-0.21-3.13-0.31c-1.35,4.78-4.43,7.26-8.63,6.83
							c-6.38-0.64-7.22-5.48-7.25-10.72c-0.02-3.06-0.38-4.76-1.83-4.9c-1.68-0.17-2.41,0.95-2.69,3.74
							c-0.21,2.16,0.44,3.26,1.89,4.2c0.36,0.23,0.72,0.47,1.08,0.7c-1.03,1.83-2.05,3.66-3.05,5.49c-0.28-0.16-0.55-0.32-0.83-0.48
							c-0.11-0.05-0.19-0.1-0.3-0.19c-2.76-1.63-4.27-4.04-4.52-7.28c-1.01-0.1-2.01-0.2-3.02-0.3c0.18-1.97,0.38-3.93,0.59-5.89
							c1.01,0.1,2.01,0.2,3.02,0.3c1.31-4.79,4.48-7.13,8.59-6.72c6.42,0.96,6.93,5.38,7.02,10.82c0,3.13,0.38,4.72,1.95,4.88
							C124.4,85,125.34,83.59,125.64,80.6z"/>
					</g>
				</g>
			</g>
			<g>
				<g>
					<g>
						<g>
							<path class="st9" d="M149.23,166.42c-0.32,0-0.64-0.05-0.95-0.15l-62.89-20.99c-1.4-0.47-2.25-1.88-2.01-3.34
								c7.67-46.07,22.48-90.45,44.02-131.91c0.53-1.02,1.57-1.62,2.66-1.62c0.32,0,0.64,0.05,0.95,0.15l62.89,20.99
								c0.83,0.28,1.5,0.91,1.83,1.72c0.33,0.81,0.29,1.73-0.12,2.51c-21.24,40.89-35.85,84.67-43.42,130.13
								c-0.14,0.87-0.66,1.62-1.41,2.08C150.3,166.28,149.77,166.42,149.23,166.42z"/>
						</g>
						<g>
							<path class="st2" d="M130.06,11.42c20.96,6.99,41.93,13.99,62.89,20.99c-21.36,41.11-36.11,85.32-43.72,131.02
								c-20.96-7-41.93-13.99-62.89-20.99C93.95,96.74,108.71,52.53,130.06,11.42 M130.06,5.42c-2.19,0-4.27,1.2-5.32,3.23
								c-21.68,41.73-36.59,86.41-44.31,132.8c-0.48,2.91,1.22,5.74,4.02,6.68l62.89,20.99c0.62,0.21,1.26,0.31,1.9,0.31
								c1.08,0,2.15-0.29,3.09-0.86c1.5-0.91,2.54-2.42,2.82-4.15c7.52-45.14,22.03-88.63,43.13-129.24
								c0.81-1.56,0.9-3.39,0.24-5.02c-0.66-1.63-2-2.88-3.66-3.44L131.96,5.73C131.33,5.52,130.69,5.42,130.06,5.42L130.06,5.42z"
								/>
						</g>
					</g>
				</g>
				<g>
					<g>
						<path class="st10" d="M163.99,82.81c4.61-12.66,9.81-25.11,15.57-37.32c-5.71-1.91-8.26-7.9-5.54-13.31
							c-10.11-3.37-20.23-6.75-30.34-10.12c-2.72,5.41-9.43,8.31-15.15,6.4c-5.76,12.2-10.96,24.66-15.57,37.32
							c7.63-5.88,19.28-7.72,30.31-4.04C154.31,65.42,161.84,73.66,163.99,82.81z M147.16,52.29c-4.95-1.65-7.44-6.6-5.45-11.01
							c1.98-4.41,7.69-6.62,12.64-4.96c4.95,1.66,7.27,6.53,5.29,10.95C157.66,51.68,152.12,53.95,147.16,52.29z"/>
					</g>
					<g>
						<path class="st10" d="M103.61,142.11c10.11,3.37,20.23,6.75,30.34,10.12c1.07-5.96,6.71-9.22,12.42-7.31
							c2.72-13.22,6.05-26.3,9.96-39.19c-7.21,6.03-18.18,8.09-29.22,4.41c-11.03-3.68-19.24-12.14-21.81-21.43
							c-3.91,12.89-7.24,25.97-9.96,39.19C101.07,129.79,104.69,136.15,103.61,142.11z M120.72,137.12
							c-4.95-1.66-8.19-6.84-7.13-11.56c1.06-4.72,6.02-7.19,10.97-5.53c4.95,1.65,8.02,6.79,6.96,11.52
							C130.46,136.26,125.67,138.77,120.72,137.12z"/>
					</g>
				</g>
				<g>
					<g>
						<path class="st10" d="M141.33,87.8c0.75-2.25,0.47-3.96-0.93-5.13c-0.33-0.28-0.65-0.57-0.98-0.85
							c1.38-1.73,2.76-3.46,4.17-5.18c0.34,0.27,0.68,0.55,1.02,0.82c2.79,2.29,3.81,5.43,3.08,9.48c1.02,0.34,2.04,0.68,3.07,1.02
							c-0.67,1.97-1.33,3.94-1.97,5.91c-1.05-0.35-2.1-0.7-3.15-1.05c-2.49,4.6-6.24,6.42-10.44,5.01
							c-6.41-2.14-6.14-7.31-4.96-12.69c0.69-3.14,0.72-4.97-0.74-5.46c-1.69-0.56-2.69,0.42-3.63,3.21
							c-0.72,2.17-0.31,3.45,0.97,4.75c0.32,0.32,0.63,0.65,0.95,0.97c-1.48,1.64-2.95,3.28-4.41,4.92
							c-0.25-0.23-0.49-0.46-0.74-0.69c-0.1-0.08-0.17-0.15-0.26-0.26c-2.45-2.31-3.44-5.14-2.95-8.52
							c-1.01-0.34-2.02-0.67-3.03-1.01c0.64-1.98,1.3-3.95,1.97-5.91c1.01,0.34,2.02,0.67,3.03,1.01c2.46-4.61,6.25-6.28,10.38-4.91
							c6.37,2.48,5.87,7.13,4.69,12.74c-0.73,3.22-0.7,4.93,0.87,5.46C139.03,92.02,140.33,90.79,141.33,87.8z"/>
					</g>
				</g>
			</g>
			<g>
				<g>
					<g>
						<g>
							<path class="st9" d="M148.01,180.24c-0.5,0-0.99-0.12-1.44-0.37l-61.23-33.49c-1.29-0.71-1.88-2.25-1.38-3.64
								c16.55-46.28,40.18-89.47,70.22-128.37c0.59-0.76,1.47-1.17,2.38-1.17c0.49,0,0.98,0.12,1.44,0.37l61.23,33.49
								c0.77,0.42,1.32,1.16,1.5,2.02c0.18,0.86-0.03,1.75-0.56,2.45c-29.66,38.4-52.98,81.04-69.32,126.73
								c-0.3,0.83-0.94,1.48-1.76,1.79C148.74,180.18,148.37,180.24,148.01,180.24z"/>
						</g>
						<g>
							<path class="st2" d="M156.56,16.2c20.41,11.16,40.82,22.33,61.22,33.49c-29.81,38.59-53.35,81.64-69.77,127.55
								c-20.41-11.16-40.82-22.33-61.22-33.49C103.21,97.84,126.76,54.79,156.56,16.2 M156.57,10.2c-1.81,0-3.58,0.82-4.75,2.33
								c-30.24,39.15-54.02,82.62-70.68,129.2c-0.99,2.78,0.18,5.87,2.77,7.28l52.27,28.6l8.95,4.9c0.89,0.49,1.88,0.74,2.88,0.74
								c0.72,0,1.44-0.13,2.13-0.39c1.64-0.62,2.93-1.93,3.52-3.59c16.24-45.39,39.41-87.75,68.87-125.9
								c1.07-1.39,1.48-3.18,1.12-4.9c-0.36-1.72-1.45-3.19-2.99-4.03l-61.23-33.49C158.53,10.44,157.55,10.2,156.57,10.2
								L156.57,10.2z"/>
						</g>
					</g>
				</g>
				<g>
					<g>
						<path class="st10" d="M178.37,96.49c7.14-12.25,14.85-24.18,23.1-35.75c-5.56-3.04-7.08-9.73-3.25-14.82
							c-9.85-5.39-19.69-10.77-29.54-16.16c-3.83,5.1-11.32,6.85-16.89,3.8c-8.25,11.57-15.96,23.49-23.1,35.75
							c9.01-4.67,21.41-4.39,32.15,1.48C171.59,76.67,177.85,86.61,178.37,96.49z M166.64,61.73c-4.82-2.64-6.47-8.23-3.59-12.43
							c2.88-4.2,9.2-5.42,14.02-2.78c4.82,2.64,6.31,8.12,3.43,12.33C177.63,63.05,171.46,64.37,166.64,61.73z"/>
					</g>
					<g>
						<path class="st10" d="M104.74,146.63c9.85,5.39,19.69,10.77,29.54,16.16c2.22-5.97,8.68-8.3,14.23-5.25
							c5.29-13.19,11.18-26.11,17.64-38.73c-8.59,4.9-20.34,4.98-31.09-0.9c-10.73-5.87-17.66-16.18-18.58-26.28
							c-6.46,12.63-12.35,25.55-17.64,38.73C104.4,133.4,106.97,140.66,104.74,146.63z M123.39,144.66
							c-4.82-2.64-7.21-8.62-5.22-13.31c1.98-4.7,7.58-6.32,12.4-3.68c4.82,2.64,7.04,8.53,5.06,13.23
							C133.64,145.59,128.21,147.3,123.39,144.66z"/>
					</g>
				</g>
				<g>
					<g>
						<path class="st10" d="M153.83,91.9c-1.53-0.83-2.87,0.38-4.83,3.25c-3.48,4.93-6.7,8.65-13.18,5.52
							c-4.02-2.19-5.46-6.31-3.66-11.51c-0.98-0.54-1.97-1.07-2.95-1.61c1.03-1.93,2.08-3.85,3.14-5.76
							c0.98,0.54,1.97,1.07,2.95,1.61c2.26-2.81,5.14-4.07,8.68-3.84c0.16-0.01,0.26-0.01,0.39,0.02c0.35,0.03,0.71,0.05,1.06,0.08
							c-0.22,2.3-0.43,4.61-0.63,6.93c-0.48-0.01-0.95-0.02-1.43-0.03c-1.92-0.05-3.2,0.55-4.36,2.66c-1.49,2.73-1.52,4.2,0.12,5.1
							c1.42,0.77,2.81-0.56,4.73-3.35c3.3-4.77,7.1-8.69,13.34-5.29c4.1,2.23,5.38,6.42,3.63,11.64c1.02,0.56,2.04,1.11,3.06,1.67
							c-1.06,1.91-2.11,3.83-3.14,5.76c-1-0.54-1.99-1.09-2.99-1.63c-2.6,3.46-5.75,4.94-9.51,4.43c-0.46-0.07-0.91-0.13-1.37-0.2
							c0.32-2.32,0.65-4.62,1-6.93c0.45,0.05,0.9,0.09,1.36,0.14c1.9,0.24,3.42-0.77,4.62-2.96
							C155.46,94.68,155.48,92.79,153.83,91.9z"/>
					</g>
				</g>
			</g>
			<g>
				<g>
					<path class="st7" d="M88.9,246.56c34.76-19.76,30.27-41.47,28.59-53.82l19.01-54.29c2.92-8.34-1.49-17.47-9.81-20.39
						c-8.34-2.92-17.47,1.47-20.39,9.81l-16.35,46.54c0,0-7.11,3.69-10.48,8.59"/>
					<path class="st2" d="M88.9,249.56c-1.04,0-2.06-0.55-2.61-1.52c-0.82-1.44-0.32-3.27,1.12-4.09
						c31.71-18.03,29.05-36.9,27.29-49.39l-0.2-1.41c-0.06-0.47-0.02-0.95,0.14-1.4l19.01-54.29c2.37-6.77-1.21-14.2-7.97-16.57
						c-6.76-2.37-14.2,1.21-16.57,7.97l-16.35,46.54c-0.25,0.72-0.77,1.32-1.45,1.67c-0.06,0.03-6.5,3.42-9.38,7.63
						c-0.94,1.37-2.81,1.71-4.17,0.78c-1.37-0.94-1.71-2.81-0.78-4.17c2.95-4.3,8.23-7.65,10.5-8.96l15.97-45.47
						c3.46-9.89,14.32-15.11,24.21-11.65c9.89,3.46,15.12,14.32,11.65,24.21l-18.77,53.6l0.09,0.67
						c1.74,12.37,4.98,35.4-30.27,55.44C89.91,249.43,89.4,249.56,88.9,249.56z"/>
				</g>
			</g>
			<g>
				<g>
					<path class="st11" d="M109.38,138.09l3.07-9.14c2.29-4.75,7.99-6.75,12.75-4.46c4.74,2.28,6.75,7.99,4.46,12.75l-2.72,7.49
						C120.14,144.57,113.97,143.04,109.38,138.09z"/>
				</g>
			</g>
			<g>
				<path class="st12" d="M126.09,144.7c0.14-3.51-1.78-6.94-5.14-8.56c-3.89-1.87-8.44-0.73-11.03,2.5
					C114.25,142.95,119.89,144.45,126.09,144.7z"/>
			</g>
			<g>
				<path class="st2" d="M77,174.15c-1.07,0-2.11-0.58-2.65-1.59c-0.78-1.46-0.23-3.28,1.23-4.06c6.97-3.73,15.24-1.55,15.59-1.45
					c1.6,0.43,2.54,2.08,2.11,3.68c-0.43,1.6-2.08,2.54-3.68,2.11c-0.05-0.02-6.35-1.64-11.19,0.95
					C77.96,174.03,77.47,174.15,77,174.15z"/>
			</g>
			<g>
				<path class="st13" d="M106.61,153.18c0,0,4.48,2.7,13.17,4.27"/>
				<path class="st2" d="M119.79,159.45c-0.12,0-0.24-0.01-0.36-0.03c-8.95-1.62-13.65-4.41-13.85-4.53
					c-0.95-0.57-1.25-1.8-0.68-2.75c0.57-0.94,1.8-1.25,2.74-0.68c0.1,0.06,4.39,2.55,12.5,4.02c1.09,0.2,1.81,1.24,1.61,2.32
					C121.58,158.77,120.73,159.45,119.79,159.45z"/>
			</g>
		</g>
	</g>
	<g>
		<path class="st2" d="M91.04,274.71c-45.77,0-83-37.23-83-83c0-1.66,1.34-3,3-3s3,1.34,3,3c0,42.46,34.54,77,77,77s77-34.54,77-77
			c0-1.66,1.34-3,3-3s3,1.34,3,3C174.04,237.48,136.8,274.71,91.04,274.71z"/>
	</g>
</g>
<g>
	<g>
		<g>
			<g>
				<path class="st14" d="M245.62,392.67c-16.26,0-31.59-1.59-43.15-4.48c-13.17-3.29-19.85-7.84-19.85-13.52
					c0-2.71,1.24-11.52,3.44-26.86c3.77-26.27,10.07-70.23,8.05-80.15c-0.3-1.47,0.07-2.99,1.03-4.15c0.95-1.17,2.36-1.83,3.87-1.83
					h93.21c1.51,0,2.92,0.67,3.87,1.83c0.95,1.16,1.33,2.68,1.03,4.15c-2.01,9.92,4.29,53.88,8.05,80.15
					c2.2,15.34,3.44,24.15,3.44,26.86c0,5.68-6.68,10.22-19.85,13.52C277.21,391.08,261.88,392.67,245.62,392.67z"/>
			</g>
			<g>
				<g>
					<path class="st2" d="M292.22,264.67c1.26,0,2.21,1.15,1.96,2.39c-3.11,15.34,11.44,99.41,11.44,107.61c0,8.28-26.86,15-60,15
						s-60-6.72-60-15c0-8.2,14.55-92.27,11.44-107.61c-0.25-1.24,0.69-2.39,1.96-2.39h46.61H292.22 M292.22,258.67h-46.61h-46.61
						c-2.41,0-4.67,1.07-6.19,2.94c-1.52,1.86-2.12,4.29-1.64,6.65c1.91,9.41-4.59,54.76-8.08,79.13
						c-2.28,15.93-3.47,24.37-3.47,27.29c0,7.33,7.23,12.71,22.12,16.43c11.79,2.95,27.38,4.57,43.88,4.57s32.09-1.62,43.88-4.57
						c14.88-3.72,22.12-9.09,22.12-16.43c0-2.92-1.19-11.36-3.47-27.29c-3.49-24.36-9.99-69.71-8.08-79.13
						c0.48-2.36-0.12-4.78-1.64-6.65C296.89,259.74,294.63,258.67,292.22,258.67L292.22,258.67z"/>
				</g>
			</g>
		</g>
		<g>
			<path class="st15" d="M295.52,383c6.37-2.38,10.1-5.25,10.1-8.33c0-6.28-8.54-57.09-11.13-87.42c-3.31,0.68-6.85,1.3-10.57,1.84
				C285.26,315.73,294.48,371.03,295.52,383z"/>
		</g>
		<g>
			<path class="st16" d="M192.29,381.54c0.12,0.06,0.24,0.12,0.36,0.18c0.19,0.09,0.38,0.17,0.57,0.26c0.22,0.1,0.44,0.19,0.66,0.29
				c0.21,0.09,0.42,0.18,0.63,0.26c0.37,0.15,0.75,0.3,1.14,0.44c0.26,0.1,0.52,0.19,0.79,0.28c0.2,0.07,0.4,0.14,0.6,0.21
				c0.29,0.1,0.57,0.2,0.87,0.29c0.16,0.05,0.34,0.11,0.5,0.16c0.58,0.19,1.18,0.37,1.8,0.55c0.15,0.04,0.31,0.09,0.46,0.13
				c0.36,0.1,0.73,0.2,1.11,0.3c0.13,0.03,0.26,0.07,0.4,0.1c1.26,0.33,2.57,0.64,3.94,0.94c0.1,0.02,0.2,0.04,0.3,0.06
				c1.43,0.31,2.92,0.6,4.47,0.88c0.06,0.01,0.13,0.02,0.19,0.03c1.61,0.28,3.27,0.55,4.99,0.79c0.02,0,0.04,0.01,0.06,0.01
				c0.58,0.08,1.17,0.15,1.76,0.23c1.8-25.12,4.35-62.05,6.36-97.06c-7.73-0.56-14.97-1.42-21.53-2.53
				C200.04,317.39,195.52,354.56,192.29,381.54z"/>
		</g>
		<g>
			<g>
				<path class="st9" d="M245.62,317.67c-21.29,0-40.79-2.74-52.16-7.33c-1.26-0.51-2.02-1.8-1.85-3.15
					c2.63-21.49,3.48-34.79,2.52-39.53c-0.3-1.47,0.07-2.99,1.03-4.15c0.95-1.17,2.36-1.83,3.87-1.83h93.21
					c1.51,0,2.92,0.67,3.87,1.83c0.95,1.16,1.33,2.68,1.03,4.15c-0.96,4.75-0.12,18.05,2.51,39.53c0.17,1.35-0.6,2.64-1.85,3.15
					C286.41,314.93,266.91,317.67,245.62,317.67z"/>
			</g>
			<g>
				<g>
					<path class="st2" d="M292.22,264.67c1.26,0,2.21,1.15,1.96,2.39c-1.21,5.96,0.25,22.28,2.48,40.49
						c-10.58,4.27-29.48,7.12-51.04,7.12s-40.47-2.85-51.04-7.12c2.23-18.22,3.69-34.54,2.48-40.49c-0.25-1.24,0.69-2.39,1.96-2.39
						h46.61H292.22 M292.22,258.67h-46.61h-46.61c-2.41,0-4.67,1.07-6.19,2.94c-1.52,1.86-2.12,4.29-1.64,6.65
						c0.62,3.04,0.68,12.21-2.55,38.57c-0.33,2.7,1.19,5.28,3.71,6.29c11.71,4.73,31.63,7.55,53.29,7.55s41.57-2.82,53.29-7.55
						c2.52-1.02,4.04-3.6,3.71-6.29c-3.23-26.36-3.17-35.53-2.55-38.57c0.48-2.36-0.12-4.78-1.64-6.65
						C296.89,259.74,294.63,258.67,292.22,258.67L292.22,258.67z"/>
				</g>
			</g>
		</g>
		<g>
			<path class="st17" d="M284.18,277.06c-1.06,5.21-0.08,18.33,1.68,33.72c4.17-0.94,7.82-2.03,10.8-3.23
				c-2.23-18.22-3.69-34.54-2.48-40.49c0.25-1.24-0.69-2.39-1.96-2.39h-8.44C284.14,270.53,284.3,276.45,284.18,277.06z"/>
		</g>
		<g>
			<path class="st18" d="M201.09,309.72c0.14,0.04,0.27,0.08,0.42,0.12c0.73,0.2,1.47,0.39,2.24,0.57c0.19,0.05,0.38,0.09,0.57,0.14
				c0.74,0.18,1.49,0.35,2.27,0.51c0.07,0.02,0.15,0.03,0.22,0.05c0.82,0.17,1.66,0.34,2.51,0.5c0.23,0.04,0.47,0.09,0.7,0.13
				c0.84,0.16,1.7,0.31,2.57,0.45c0.2,0.03,0.41,0.06,0.61,0.1c0.75,0.12,1.52,0.24,2.3,0.35c0.24,0.04,0.48,0.07,0.73,0.11
				c0.9,0.13,1.82,0.25,2.75,0.36c0.28,0.04,0.57,0.07,0.85,0.1c0.84,0.1,1.7,0.2,2.56,0.29c0.17,0.02,0.33,0.04,0.5,0.05
				c0,0,0,0,0,0c1.03-16.55,2-33.32,2.78-48.89h-21.09c-0.68,11.96-2.17,27.87-3.97,44.91
				C200.77,309.62,200.92,309.67,201.09,309.72z"/>
		</g>
		<g>
			<g>
				<path class="st15" d="M245.62,294.67c-40.25,0-81-7.9-81-23v-13c0-1.66,1.34-3,3-3h156c1.66,0,3,1.34,3,3v13
					c0,7.04-8.45,12.78-25.1,17.05C286.55,292.56,266.69,294.67,245.62,294.67z"/>
			</g>
			<g>
				<path class="st2" d="M323.62,258.67v13c0,11.05-34.92,20-78,20s-78-8.95-78-20v-13H323.62 M323.62,252.67h-156
					c-3.31,0-6,2.69-6,6v13c0,8.59,9.2,15.3,27.36,19.95c15.21,3.9,35.32,6.05,56.64,6.05s41.44-2.15,56.64-6.05
					c18.15-4.65,27.36-11.37,27.36-19.95v-13C329.62,255.36,326.93,252.67,323.62,252.67L323.62,252.67z"/>
			</g>
		</g>
		<g>
			<path class="st14" d="M222.57,266.67h-30c-0.32,6.31-0.67,12.81-1.05,19.4c8.35,2.06,18.47,3.65,29.74,4.6
				C221.73,282.5,222.17,274.45,222.57,266.67z"/>
		</g>
		<g>
			<g>
				<path class="st14" d="M245.62,282.67c-21.09,0-40.96-2.22-55.93-6.25c-16.4-4.42-25.07-10.55-25.07-17.75
					s8.67-13.33,25.07-17.75c14.98-4.03,34.84-6.25,55.93-6.25c21.09,0,40.96,2.22,55.93,6.25c16.4,4.42,25.07,10.55,25.07,17.75
					s-8.67,13.33-25.07,17.75C286.57,280.45,266.71,282.67,245.62,282.67z"/>
			</g>
			<g>
				<g>
					<path class="st2" d="M245.62,237.67c43.08,0,78,9.4,78,21s-34.92,21-78,21s-78-9.4-78-21S202.54,237.67,245.62,237.67
						 M245.62,231.67c-21.35,0-41.49,2.26-56.71,6.36c-18.11,4.87-27.29,11.82-27.29,20.64c0,8.82,9.18,15.77,27.29,20.64
						c15.23,4.1,35.37,6.36,56.71,6.36s41.49-2.26,56.71-6.36c18.11-4.87,27.29-11.82,27.29-20.64c0-8.82-9.18-15.77-27.29-20.64
						C287.1,233.93,266.96,231.67,245.62,231.67L245.62,231.67z"/>
				</g>
			</g>
		</g>
		<g>
			<path class="st16" d="M232.6,268.29c0-0.01-22.48-1.62-22.48-1.62l-16.93,7.55c8.52,2.08,18.77,3.66,30.08,4.57L232.6,268.29
				L232.6,268.29z"/>
		</g>
		<g>
			<g>
				<ellipse class="st14" cx="245.62" cy="257.67" rx="53" ry="14"/>
			</g>
			<g>
				<g>
					<path class="st2" d="M245.62,246.67c27.61,0,50,4.92,50,11s-22.39,11-50,11s-50-4.92-50-11S218,246.67,245.62,246.67
						 M245.62,240.67c-13.78,0-26.79,1.19-36.64,3.36c-8.31,1.83-19.36,5.23-19.36,13.64s11.05,11.81,19.36,13.64
						c9.85,2.17,22.87,3.36,36.64,3.36s26.79-1.19,36.64-3.36c8.31-1.83,19.36-5.23,19.36-13.64s-11.05-11.81-19.36-13.64
						C272.41,241.86,259.39,240.67,245.62,240.67L245.62,240.67z"/>
				</g>
			</g>
		</g>
		<g>
			<ellipse class="st15" cx="245.62" cy="262.67" rx="44.53" ry="6"/>
		</g>
		<g>
			<g>
				<g>
					<path class="st1" d="M253.12,270.83c-0.78,0-1.54-0.31-2.1-0.86c-0.58-0.56-0.9-1.34-0.9-2.14v-81.95
						c0-4.63,3.47-8.47,8.06-8.95c0.05-0.01,0.3-0.02,0.3-0.02c0.21-0.02,0.42-0.03,0.63-0.03c15.14,0,27,23.28,27,53
						c0,14.25-2.76,27.58-7.76,37.53c-0.44,0.87-1.28,1.48-2.25,1.62c-6.86,1-14.79,1.62-22.92,1.8
						C253.16,270.83,253.14,270.83,253.12,270.83z"/>
				</g>
				<g>
					<path class="st2" d="M259.12,179.89c13.25,0,24,22.39,24,50c0,14.24-2.86,27.07-7.44,36.18c-6.59,0.96-14.28,1.59-22.56,1.77
						v-81.95c0-3.1,2.35-5.65,5.37-5.97C258.7,179.91,258.91,179.89,259.12,179.89 M259.12,173.89c-0.28,0-0.56,0.01-0.84,0.03
						l-0.1,0.01c-0.1,0.01-0.2,0.01-0.3,0.02c-6.13,0.64-10.75,5.77-10.75,11.93v81.95c0,1.61,0.65,3.16,1.8,4.29
						c1.12,1.1,2.63,1.71,4.2,1.71c0.04,0,0.09,0,0.13,0c8.26-0.18,16.31-0.81,23.29-1.83c1.94-0.28,3.61-1.49,4.49-3.24
						c5.21-10.36,8.08-24.16,8.08-38.88c0-14.24-2.71-27.71-7.62-37.95C275.91,180.3,267.96,173.89,259.12,173.89L259.12,173.89z"/>
				</g>
			</g>
			<g>
				<g>
					<path class="st1" d="M238.05,270.83c-8.14-0.18-16.06-0.8-22.92-1.8c-0.97-0.14-1.81-0.75-2.25-1.62
						c-5.01-9.95-7.76-23.27-7.76-37.53c0-29.72,11.86-53,27-53c0.21,0,0.42,0.01,0.63,0.03c0,0,0.25,0.02,0.3,0.02
						c4.6,0.48,8.06,4.33,8.06,8.95v81.95c0,0.81-0.33,1.58-0.9,2.14c-0.56,0.55-1.31,0.86-2.1,0.86
						C238.09,270.83,238.07,270.83,238.05,270.83z"/>
				</g>
				<g>
					<path class="st2" d="M232.12,179.89c0.21,0,0.42,0.02,0.63,0.03c3.02,0.31,5.37,2.86,5.37,5.97v81.95
						c-8.28-0.18-15.96-0.81-22.56-1.77c-4.58-9.11-7.44-21.94-7.44-36.18C208.12,202.27,218.86,179.89,232.12,179.89
						 M232.12,173.89c-8.85,0-16.79,6.41-22.38,18.05c-4.91,10.24-7.62,23.72-7.62,37.95c0,14.71,2.87,28.52,8.08,38.88
						c0.88,1.75,2.56,2.96,4.49,3.24c6.98,1.02,15.03,1.65,23.29,1.83c0.04,0,0.09,0,0.13,0c1.57,0,3.07-0.61,4.2-1.71
						c1.15-1.13,1.8-2.67,1.8-4.29v-81.95c0-6.17-4.62-11.3-10.75-11.93c-0.1-0.01-0.2-0.02-0.3-0.02l-0.1-0.01
						C232.68,173.9,232.4,173.89,232.12,173.89L232.12,173.89z"/>
				</g>
			</g>
			<g>
				<g>
					<path class="st19" d="M261.05,270.51c-0.78,0-1.53-0.3-2.1-0.85c-0.6-0.59-0.93-1.41-0.9-2.25l2.13-61.03
						c0.08-2.17,1.84-3.86,4.01-3.86c1.42,0,2.7,0.73,3.43,1.96c2.45,4.12,8.08,15.95,7.35,36.68c-0.35,9.97-2.14,19.31-5.19,27.01
						c-0.42,1.05-1.39,1.78-2.52,1.88c-1.97,0.18-4,0.33-6.04,0.45C261.17,270.51,261.11,270.51,261.05,270.51z"/>
				</g>
				<g>
					<path class="st2" d="M264.19,205.52c0.32,0,0.65,0.15,0.86,0.49c3.8,6.39,7.52,18.31,6.93,35.05
						c-0.38,10.88-2.43,19.57-4.98,26.01c-1.93,0.17-3.91,0.32-5.95,0.44l2.13-61.03C263.2,205.88,263.69,205.52,264.19,205.52
						 M264.19,199.52c-3.8,0-6.87,2.97-7.01,6.76l-2.13,61.03c-0.06,1.69,0.6,3.32,1.8,4.5c1.12,1.1,2.63,1.71,4.19,1.71
						c0.12,0,0.23,0,0.35-0.01c2.06-0.12,4.13-0.27,6.13-0.45c2.26-0.2,4.21-1.66,5.04-3.77c3.17-8.02,5.04-17.71,5.4-28.01
						c0.75-21.53-5.19-33.97-7.77-38.32C268.92,200.8,266.68,199.52,264.19,199.52L264.19,199.52z"/>
				</g>
			</g>
			<g>
				<g>
					<path class="st19" d="M230.01,270.51c-2.04-0.12-4.07-0.27-6.04-0.45c-1.13-0.1-2.1-0.83-2.52-1.88
						c-3.05-7.71-4.84-17.05-5.19-27.01c-0.72-20.74,4.9-32.56,7.35-36.69c0.73-1.23,2.01-1.96,3.43-1.96c2.17,0,3.93,1.7,4.01,3.86
						l2.13,61.03c0.03,0.84-0.3,1.66-0.9,2.25c-0.56,0.55-1.31,0.85-2.1,0.85C230.13,270.51,230.07,270.51,230.01,270.51z"/>
				</g>
				<g>
					<path class="st2" d="M227.04,205.52c0.5,0,0.99,0.36,1.01,0.97l2.13,61.03c-2.04-0.12-4.02-0.27-5.95-0.44
						c-2.55-6.45-4.6-15.14-4.98-26.01c-0.58-16.74,3.13-28.66,6.93-35.05C226.39,205.67,226.72,205.52,227.04,205.52
						 M227.04,199.52c-2.49,0-4.73,1.28-6.01,3.43c-2.59,4.35-8.53,16.79-7.77,38.32c0.36,10.31,2.23,19.99,5.4,28.01
						c0.83,2.11,2.78,3.57,5.04,3.77c2,0.18,4.07,0.33,6.13,0.45c0.12,0.01,0.24,0.01,0.35,0.01c1.56,0,3.07-0.61,4.19-1.71
						c1.21-1.18,1.86-2.81,1.8-4.5l-2.13-61.03C233.92,202.49,230.84,199.52,227.04,199.52L227.04,199.52z"/>
				</g>
			</g>
			<g>
				<path class="st2" d="M229.01,270.67c-0.6,0-1.18-0.27-1.58-0.77c-0.2-0.26-4.92-6.47-4.13-16.94c0.08-1.1,1.06-1.93,2.14-1.84
					c1.1,0.08,1.93,1.04,1.84,2.14c-0.67,8.86,3.27,14.14,3.31,14.2c0.67,0.88,0.5,2.13-0.37,2.8
					C229.87,270.53,229.44,270.67,229.01,270.67z"/>
			</g>
			<g>
				<path class="st2" d="M262.22,270.67c-0.43,0-0.86-0.14-1.22-0.42c-0.87-0.68-1.03-1.93-0.35-2.81c0.03-0.04,3.97-5.33,3.3-14.19
					c-0.08-1.1,0.74-2.06,1.84-2.14c1.11-0.08,2.06,0.74,2.14,1.84c0.79,10.47-3.93,16.68-4.13,16.94
					C263.4,270.4,262.81,270.67,262.22,270.67z"/>
			</g>
		</g>
	</g>
	<g>
		<g>
			<g>
				<path class="st14" d="M383.64,231.03c-0.61,0-1.21-0.19-1.72-0.54l-131.06-91.77c-0.7-0.49-2.26-1.98-1.52-5.15
					c0.32-1.35,1.03-2.87,2.01-4.27c0.72-1.03,3.31-4.39,6.41-4.39c0.83,0,1.62,0.24,2.27,0.7l131.06,91.77
					c1.36,0.95,1.69,2.82,0.74,4.18l-5.74,8.19c-0.46,0.65-1.15,1.1-1.94,1.23C383.98,231.01,383.81,231.03,383.64,231.03z"/>
			</g>
			<g>
				<g>
					<path class="st2" d="M257.76,127.9c0.21,0,0.4,0.05,0.55,0.16l131.06,91.77l-5.74,8.19l-131.06-91.77
						c-0.9-0.63-0.35-2.98,1.23-5.24C255.12,129.13,256.73,127.9,257.76,127.9 M257.76,121.9c-4.43,0-7.68,3.96-8.87,5.67
						c-4.36,6.22-3.02,11.32,0.24,13.6l131.06,91.77c1.05,0.73,2.25,1.09,3.44,1.09c1.89,0,3.75-0.89,4.92-2.56l5.74-8.19
						c0.91-1.3,1.27-2.92,0.99-4.48s-1.16-2.96-2.47-3.87l-131.06-91.77C260.59,122.33,259.21,121.9,257.76,121.9L257.76,121.9z"/>
				</g>
			</g>
		</g>
		<g>
			
				<rect x="320.69" y="95.59" transform="matrix(0.5736 -0.8192 0.8192 0.5736 -6.2286 339.2082)" class="st15" width="4" height="160"/>
		</g>
		<g>
			<g>
				<path class="st15" d="M384.18,231.18c-0.83,0-1.61-0.24-2.27-0.7c-0.7-0.49-2.26-1.98-1.52-5.15c0.32-1.35,1.03-2.87,2.01-4.27
					c0.72-1.03,3.31-4.39,6.41-4.39c0.83,0,1.61,0.24,2.27,0.7c0.7,0.49,2.26,1.98,1.52,5.15c-0.32,1.35-1.03,2.87-2.01,4.27
					C389.88,227.83,387.29,231.18,384.18,231.18z"/>
			</g>
			<g>
				<path class="st2" d="M388.82,219.68c0.21,0,0.4,0.05,0.55,0.16c0.9,0.63,0.35,2.98-1.23,5.24c-1.32,1.88-2.93,3.11-3.96,3.11
					c-0.21,0-0.4-0.05-0.55-0.16c-0.9-0.63-0.35-2.98,1.23-5.24C386.18,220.9,387.79,219.68,388.82,219.68 M388.82,213.68
					C388.82,213.68,388.82,213.68,388.82,213.68c-4.43,0-7.68,3.96-8.87,5.67c-4.36,6.22-3.02,11.32,0.24,13.6
					c1.16,0.81,2.54,1.24,3.99,1.24c4.43,0,7.68-3.96,8.87-5.67c1.21-1.73,2.07-3.56,2.47-5.3c0.81-3.44-0.21-6.54-2.72-8.3
					C391.65,214.11,390.27,213.68,388.82,213.68L388.82,213.68z"/>
			</g>
		</g>
		<g>
			<path class="st0" d="M253.8,131.01c-1.58,2.26-2.13,4.61-1.23,5.24l19.66,13.77c-0.9-0.63-0.35-2.98,1.23-5.24
				c1.58-2.26,3.6-3.58,4.51-2.95l-19.66-13.77C257.4,127.43,255.38,128.75,253.8,131.01z"/>
		</g>
		<g>
			<path class="st1" d="M254.41,130.21l19.66,13.77c1.46-1.76,3.11-2.71,3.9-2.15l-19.66-13.77
				C257.51,127.51,255.87,128.45,254.41,130.21z"/>
		</g>
	</g>
</g>
<g>
	<circle class="st3" cx="119.69" cy="304.39" r="4.5"/>
</g>
<g>
	<circle class="st3" cx="84.81" cy="296.85" r="2.5"/>
</g>
<g>
	<circle class="st3" cx="130.95" cy="342.99" r="2.5"/>
</g>
</svg>
