<?xml version="1.0" encoding="utf-8"?>
<!-- Generator: Adobe Illustrator 25.4.1, SVG Export Plug-In . SVG Version: 6.00 Build 0)  -->
<svg version="1.1" id="chapter-08" xmlns="http://www.w3.org/2000/svg" xmlns:xlink="http://www.w3.org/1999/xlink" x="0px" y="0px"
	 viewBox="0 0 300 300" style="enable-background:new 0 0 300 300;" xml:space="preserve">
<style type="text/css">
	.st0{fill:#FFE8A0;}
	.st1{fill:#515979;}
	.st2{fill:#FFFFFF;}
	.st3{fill:#FFF3CF;}
	.st4{fill:#75A5C3;}
	.st5{fill:#BAD2E1;}
	.st6{opacity:0.2;fill:none;}
	.st7{fill:#EF7D7D;}
	.st8{fill:#FFD886;}
	.st9{fill:#EEEBFF;}
	.st10{fill:#C4BDFF;}
	.st11{fill:#AAA0FF;}
	.st12{fill:#667683;}
	.st13{fill:#7DDF96;}
</style>
<g>
	<g>
		<g>
			<g>
				<path class="st0" d="M71.51,254.8c-1.04,0-2.05-0.54-2.6-1.5c-5.39-9.33-12.28-12.06-20.27-15.21
					c-9.15-3.62-19.53-7.72-28.15-22.65c-11.85-20.53-4.79-46.88,15.74-58.74c6.54-3.77,13.96-5.77,21.46-5.77
					c15.33,0,29.62,8.24,37.28,21.51c8.62,14.93,6.98,25.97,5.54,35.71c-1.26,8.49-2.35,15.83,3.04,25.16
					c0.4,0.69,0.51,1.51,0.3,2.28c-0.21,0.77-0.71,1.42-1.4,1.82L73,254.4C72.53,254.67,72.01,254.8,71.51,254.8z"/>
			</g>
			<g>
				<g>
					<path class="st1" d="M57.69,153.93c13.82,0,27.27,7.17,34.68,20.01c15.39,26.66-3.89,39.26,8.58,60.86l-29.44,17
						c-12.47-21.61-33.03-11.21-48.42-37.86c-11.05-19.13-4.49-43.6,14.64-54.64C44.02,155.66,50.9,153.93,57.69,153.93
						 M57.69,147.93c-8.03,0-15.97,2.13-22.96,6.17c-21.97,12.68-29.52,40.87-16.84,62.84c9.14,15.84,20.51,20.33,29.65,23.94
						c7.77,3.07,13.91,5.5,18.77,13.92c1.11,1.92,3.13,3,5.2,3c1.02,0,2.05-0.26,2.99-0.8l29.44-17c1.38-0.8,2.38-2.11,2.8-3.64
						c0.41-1.54,0.2-3.17-0.6-4.55c-4.86-8.43-3.9-14.95-2.67-23.22c1.44-9.72,3.23-21.81-5.91-37.65
						C89.37,156.75,74.09,147.93,57.69,147.93L57.69,147.93z"/>
				</g>
			</g>
		</g>
		<g>
			<path class="st1" d="M57.41,214c-0.3,0-0.6-0.01-0.91-0.02c-1.1-0.05-1.96-0.98-1.91-2.09s0.96-1.96,2.09-1.91
				c6.52,0.29,13-3.43,15.39-8.84c0.45-1.01,1.63-1.47,2.64-1.02c1.01,0.45,1.47,1.63,1.02,2.64C72.76,209.47,65.32,214,57.41,214z"
				/>
		</g>
		<g>
			<g>
				<path class="st1" d="M68.42,199.97c-0.35,0-0.7-0.12-0.98-0.37c-0.63-0.54-0.69-1.49-0.15-2.12c1.75-2.01,5.16-3.98,7.78-4.49
					c0.81-0.15,1.6,0.38,1.76,1.19c0.16,0.81-0.37,1.6-1.19,1.76c-1.98,0.38-4.76,1.99-6.08,3.51
					C69.26,199.8,68.84,199.97,68.42,199.97z"/>
			</g>
			<g>
				<g>
					<circle class="st1" cx="68.29" cy="190.23" r="6.5"/>
				</g>
				<g>
					<circle class="st2" cx="69.69" cy="189.42" r="1.62"/>
				</g>
			</g>
			<g>
				<path class="st1" d="M49.37,210.97c-0.35,0-0.7-0.12-0.98-0.37c-0.63-0.54-0.69-1.49-0.15-2.12c1.75-2.01,5.16-3.98,7.78-4.49
					c0.82-0.16,1.6,0.38,1.76,1.19c0.16,0.81-0.37,1.6-1.19,1.76c-1.98,0.38-4.76,1.99-6.08,3.51
					C50.21,210.8,49.79,210.97,49.37,210.97z"/>
			</g>
			<g>
				<g>
					<circle class="st1" cx="49.23" cy="201.23" r="6.5"/>
				</g>
				<g>
					<circle class="st2" cx="50.64" cy="200.42" r="1.62"/>
				</g>
			</g>
			<g>
				<path class="st1" d="M58.47,181.99c0.46-1.18,1.07-2.05,1.85-2.9c0.77-0.84,1.7-1.55,2.75-2.1c1.04-0.57,2.25-0.92,3.47-1
					c1.22-0.13,2.47,0.13,3.55,0.62c0.86,0.39,1.24,1.4,0.85,2.26c-0.2,0.45-0.57,0.76-1,0.91l-0.37,0.13
					c-0.84,0.28-1.54,0.41-2.22,0.68c-0.67,0.26-1.33,0.5-2,0.85c-0.67,0.33-1.33,0.72-2.03,1.14c-0.68,0.41-1.42,0.95-2.11,1.32
					l-0.36,0.2c-0.82,0.44-1.84,0.14-2.29-0.69C58.31,182.95,58.3,182.43,58.47,181.99z"/>
			</g>
			<g>
				<path class="st1" d="M47.28,191.93c-0.66,0.41-1.5,0.79-2.2,1.17c-0.71,0.39-1.39,0.78-2.01,1.19c-0.64,0.4-1.17,0.85-1.74,1.3
					c-0.58,0.45-1.04,1-1.7,1.58l-0.29,0.26c-0.71,0.62-1.78,0.55-2.41-0.15c-0.32-0.37-0.46-0.84-0.42-1.29
					c0.12-1.18,0.51-2.39,1.24-3.39c0.69-1.01,1.6-1.88,2.61-2.5c1.01-0.63,2.09-1.09,3.2-1.33c1.13-0.25,2.18-0.34,3.44-0.15
					c0.92,0.14,1.55,1,1.41,1.92c-0.08,0.51-0.37,0.93-0.78,1.18L47.28,191.93z"/>
			</g>
		</g>
		<g>
			<path class="st3" d="M74.42,171.86c-0.63,0-1.26-0.2-1.81-0.61c-8.11-6.13-19.03-6.8-27.82-1.72c-1.44,0.83-3.27,0.34-4.1-1.1
				c-0.83-1.43-0.34-3.27,1.1-4.1c10.89-6.29,24.41-5.45,34.44,2.13c1.32,1,1.58,2.88,0.58,4.2
				C76.22,171.45,75.33,171.86,74.42,171.86z"/>
		</g>
		<g>
			<g>
				<path class="st1" d="M78.66,246.21c-0.5,0-1.01-0.19-1.4-0.57L58.7,227.48c-0.79-0.77-0.8-2.04-0.03-2.83
					c0.77-0.79,2.04-0.8,2.83-0.03l18.56,18.15c0.79,0.77,0.8,2.04,0.03,2.83C79.7,246,79.18,246.21,78.66,246.21z"/>
			</g>
			<g>
				<path class="st1" d="M90.79,239.21c-0.89,0-1.7-0.6-1.94-1.5l-6.44-25.15c-0.27-1.07,0.37-2.16,1.44-2.43
					c1.07-0.28,2.16,0.37,2.43,1.44l6.44,25.15c0.27,1.07-0.37,2.16-1.44,2.43C91.12,239.19,90.95,239.21,90.79,239.21z"/>
			</g>
			<g>
				<path class="st1" d="M70.03,229.25c-0.08,0-0.16,0-0.24-0.01l-9.93-1.2c-1.1-0.13-1.88-1.13-1.75-2.22
					c0.13-1.1,1.13-1.88,2.23-1.75l8.36,1.01l2.15-5.85c0.33-0.91,1.26-1.45,2.22-1.28l6.14,1.06l3.31-7.74
					c0.43-1.02,1.61-1.49,2.62-1.05c1.02,0.43,1.49,1.61,1.05,2.62l-3.93,9.2c-0.36,0.85-1.27,1.34-2.18,1.19l-6.05-1.05l-2.12,5.77
					C71.61,228.74,70.86,229.25,70.03,229.25z"/>
			</g>
		</g>
		<g>
			<g>
				<path class="st4" d="M99.52,277.58c-1.28,0-2.49-0.48-3.41-1.35l-5.31-4.39l17.88-10.32l1.15,6.8c0.49,2.13-0.46,4.36-2.37,5.46
					l-5.42,3.13C101.25,277.35,100.39,277.58,99.52,277.58z"/>
			</g>
			<g>
				<path class="st1" d="M106.42,266.28l0.45,2.65c0.24,0.88-0.15,1.8-0.93,2.25l-5.42,3.13c-0.31,0.18-0.66,0.27-1,0.27
					c-0.52,0-1.03-0.2-1.42-0.59l-2.07-1.71L106.42,266.28 M110.9,256.77l-7.48,4.32l-10.39,6l-7.48,4.32l6.66,5.5l1.92,1.58
					c1.48,1.35,3.38,2.09,5.39,2.09c1.4,0,2.78-0.37,4-1.07l5.42-3.13c3.02-1.75,4.56-5.25,3.82-8.64l-0.41-2.46L110.9,256.77
					L110.9,256.77z"/>
			</g>
		</g>
		<g>
			<g>
				<path class="st5" d="M84.97,274.12c-2.5,0-4.82-1.34-6.07-3.5l-11.5-19.92l34.64-20l11.5,19.92c1.93,3.34,0.78,7.63-2.56,9.56
					l-22.52,13C87.4,273.8,86.19,274.12,84.97,274.12z"/>
			</g>
			<g>
				<path class="st1" d="M100.95,234.8l10,17.32c1.1,1.91,0.45,4.36-1.46,5.46l-22.52,13c-0.63,0.36-1.32,0.54-2,0.54
					c-1.38,0-2.73-0.72-3.47-2l-10-17.32L100.95,234.8 M103.14,226.61l-5.2,3l-29.44,17l-5.2,3l3,5.2l10,17.32
					c1.78,3.08,5.1,5,8.66,5c1.75,0,3.48-0.46,5-1.34l22.52-13c2.31-1.34,3.97-3.49,4.66-6.07c0.69-2.58,0.34-5.27-1-7.59l-10-17.32
					L103.14,226.61L103.14,226.61z"/>
			</g>
		</g>
		<g>
			<line class="st4" x1="73.4" y1="261.1" x2="106.05" y2="237.63"/>
			<path class="st1" d="M73.41,264.1c-0.93,0-1.85-0.43-2.44-1.25c-0.97-1.35-0.66-3.22,0.69-4.19l32.64-23.46
				c1.34-0.97,3.22-0.66,4.19,0.68c0.97,1.35,0.66,3.22-0.69,4.19l-32.64,23.46C74.63,263.92,74.01,264.1,73.41,264.1z"/>
		</g>
		<g>
			<line class="st4" x1="78.4" y1="269.76" x2="111.05" y2="246.29"/>
			<path class="st1" d="M78.41,272.76c-0.93,0-1.85-0.43-2.44-1.25c-0.97-1.35-0.66-3.22,0.69-4.19l32.64-23.46
				c1.34-0.97,3.22-0.66,4.19,0.68c0.97,1.35,0.66,3.22-0.69,4.19l-32.64,23.46C79.63,272.58,79.01,272.76,78.41,272.76z"/>
		</g>
	</g>
	<rect class="st6" width="300" height="300"/>
	<g>
		<g>
			<path class="st0" d="M90.29,113.36c-1.32,0-2.54-0.88-2.9-2.22c-2.79-10.41-8.74-14.82-15.64-19.94
				c-7.91-5.86-16.87-12.51-21.33-29.17c-6.14-22.9,7.5-46.53,30.41-52.66c3.65-0.98,7.41-1.48,11.15-1.48
				c19.41,0,36.48,13.11,41.51,31.88c4.46,16.66,0.03,26.89-3.89,35.92c-3.41,7.88-6.36,14.68-3.57,25.09
				c0.43,1.6-0.52,3.25-2.12,3.67l-32.84,8.8C90.81,113.32,90.54,113.36,90.29,113.36z"/>
		</g>
		<g>
			<g>
				<path class="st1" d="M91.98,10.89c17.66,0,33.82,11.79,38.61,29.66c7.97,29.73-13.92,36.91-7.46,61.01l-32.84,8.8
					c-6.46-24.1-29-19.37-36.97-49.1C47.6,39.91,60.27,17.98,81.6,12.26C85.07,11.33,88.55,10.89,91.98,10.89 M91.98,4.89
					c-4.01,0-8.02,0.53-11.93,1.58C68.18,9.65,58.26,17.26,52.12,27.9c-6.14,10.64-7.78,23.04-4.6,34.91
					c4.73,17.67,14.55,24.95,22.44,30.8c6.71,4.98,12.01,8.91,14.53,18.31c0.72,2.68,3.14,4.45,5.79,4.45
					c0.51,0,1.04-0.07,1.56-0.21l32.84-8.8c1.54-0.41,2.85-1.42,3.64-2.8s1.01-3.02,0.6-4.55c-2.52-9.4,0.11-15.45,3.43-23.12
					c3.91-9.01,8.77-20.23,4.03-37.89C131.01,18.91,112.75,4.89,91.98,4.89L91.98,4.89z"/>
			</g>
		</g>
	</g>
	<g>
		<g>
			<path class="st1" d="M78.19,56.14c-1.1,0-2.11-0.74-2.41-1.85c-0.93-3.46,1.13-7.03,4.6-7.96c3.46-0.93,7.03,1.13,7.96,4.6
				c0.36,1.33-0.43,2.7-1.77,3.06c-1.33,0.36-2.7-0.43-3.06-1.77c-0.1-0.39-0.35-0.71-0.7-0.91c-0.35-0.2-0.75-0.25-1.14-0.15
				c-0.39,0.1-0.71,0.35-0.91,0.7c-0.2,0.35-0.25,0.75-0.15,1.14c0.36,1.33-0.43,2.7-1.77,3.06C78.63,56.11,78.41,56.14,78.19,56.14
				z"/>
		</g>
		<g>
			<path class="st1" d="M97.51,50.96c-1.1,0-2.11-0.74-2.41-1.85c-0.93-3.46,1.13-7.03,4.6-7.96c3.46-0.93,7.03,1.13,7.96,4.6
				c0.36,1.33-0.43,2.7-1.77,3.06c-1.34,0.36-2.71-0.43-3.06-1.77c-0.21-0.8-1.04-1.28-1.84-1.06c-0.39,0.1-0.71,0.35-0.91,0.7
				c-0.2,0.35-0.25,0.75-0.15,1.14c0.36,1.33-0.43,2.7-1.77,3.06C97.94,50.93,97.73,50.96,97.51,50.96z"/>
		</g>
	</g>
	<g>
		<path class="st1" d="M93.77,35.94c0.75-1.02,1.56-1.7,2.54-2.32c0.96-0.61,2.05-1.05,3.2-1.32c1.15-0.28,2.41-0.3,3.61-0.07
			c1.21,0.19,2.35,0.77,3.27,1.52c0.73,0.6,0.83,1.67,0.24,2.4c-0.31,0.38-0.75,0.59-1.2,0.62l-0.39,0.02
			c-0.88,0.06-1.59-0.01-2.32,0.09c-0.72,0.08-1.42,0.14-2.15,0.31c-0.73,0.15-1.48,0.35-2.26,0.58c-0.76,0.22-1.62,0.55-2.38,0.73
			l-0.4,0.1c-0.91,0.21-1.82-0.35-2.03-1.25C93.37,36.83,93.49,36.33,93.77,35.94z"/>
	</g>
	<g>
		<path class="st1" d="M82.32,42.14c-0.75,0.22-1.66,0.38-2.43,0.56c-0.79,0.2-1.54,0.39-2.25,0.63c-0.72,0.22-1.35,0.52-2.01,0.81
			c-0.68,0.29-1.26,0.7-2.05,1.09l-0.35,0.17c-0.84,0.42-1.87,0.07-2.28-0.77c-0.22-0.44-0.23-0.93-0.07-1.36
			c0.42-1.11,1.11-2.18,2.07-2.95c0.93-0.8,2.03-1.41,3.16-1.74c1.14-0.35,2.3-0.51,3.43-0.46c1.16,0.05,2.19,0.23,3.36,0.74
			c0.85,0.37,1.24,1.37,0.87,2.22c-0.21,0.47-0.6,0.8-1.05,0.94L82.32,42.14z"/>
	</g>
	<g>
		<path class="st3" d="M114.58,33.99c-0.89,0-1.78-0.4-2.37-1.16c-6.24-8.01-16.62-11.49-26.43-8.86c-1.6,0.43-3.25-0.52-3.67-2.12
			c-0.43-1.6,0.52-3.25,2.12-3.67c12.14-3.25,24.99,1.05,32.72,10.97c1.02,1.31,0.78,3.19-0.52,4.21
			C115.87,33.79,115.22,33.99,114.58,33.99z"/>
	</g>
	<g>
		<g>
			<path class="st1" d="M99.17,106.87c-0.68,0-1.35-0.35-1.72-0.98L84.22,83.55c-0.56-0.95-0.25-2.18,0.7-2.74
				c0.95-0.56,2.18-0.25,2.74,0.7l13.23,22.34c0.56,0.95,0.25,2.18-0.7,2.74C99.87,106.78,99.52,106.87,99.17,106.87z"/>
		</g>
		<g>
			<path class="st1" d="M112.69,103.25c-0.01,0-0.02,0-0.02,0c-1.1-0.01-1.99-0.92-1.98-2.02l0.29-25.96c0.01-1.1,0.91-1.98,2-1.98
				c0.01,0,0.02,0,0.02,0c1.1,0.01,1.99,0.92,1.98,2.02l-0.29,25.96C114.68,102.37,113.79,103.25,112.69,103.25z"/>
		</g>
		<g>
			<path class="st1" d="M95.22,88.26c-0.25,0-0.5-0.05-0.74-0.14l-9.28-3.73c-1.02-0.41-1.52-1.58-1.11-2.6
				c0.41-1.02,1.58-1.52,2.6-1.11l7.81,3.14l3.59-5.09c0.56-0.79,1.6-1.07,2.47-0.66l5.65,2.61l5.2-6.62
				c0.68-0.87,1.94-1.02,2.81-0.34c0.87,0.68,1.02,1.94,0.34,2.81l-6.17,7.87c-0.57,0.73-1.57,0.97-2.41,0.58l-5.58-2.58l-3.54,5.02
				C96.47,87.96,95.85,88.26,95.22,88.26z"/>
		</g>
	</g>
	<g>
		<g>
			<path class="st4" d="M111.97,142.68c-1.72,0-3.33-0.9-4.24-2.35l-4-5.62l19.94-5.34l-0.65,6.86c-0.07,2.19-1.57,4.09-3.7,4.66
				l-6.05,1.62C112.84,142.62,112.4,142.68,111.97,142.68z"/>
		</g>
		<g>
			<path class="st1" d="M120.27,133.38l-0.25,2.67c0,0.91-0.61,1.7-1.48,1.93l-6.05,1.62c-0.17,0.05-0.35,0.07-0.52,0.07
				c-0.7,0-1.37-0.37-1.73-1l-1.56-2.19L120.27,133.38 M127.06,125.35l-8.34,2.24l-11.59,3.11l-8.34,2.24l5.01,7.04l1.45,2.03
				c1.46,2.28,4.01,3.68,6.73,3.68c0.7,0,1.39-0.09,2.07-0.27l6.05-1.62c3.37-0.9,5.76-3.89,5.92-7.35l0.24-2.48L127.06,125.35
				L127.06,125.35z"/>
		</g>
	</g>
	<g>
		<g>
			<path class="st5" d="M99.33,135.64c-3.16,0-5.94-2.13-6.76-5.19l-5.95-22.22l38.64-10.35l5.95,22.22
				c0.48,1.81,0.24,3.69-0.7,5.31c-0.94,1.62-2.44,2.78-4.25,3.26l-25.11,6.73C100.55,135.56,99.94,135.64,99.33,135.64z"/>
		</g>
		<g>
			<path class="st1" d="M123.13,101.56l5.18,19.32c0.57,2.13-0.69,4.33-2.83,4.9l-25.11,6.73c-0.35,0.09-0.7,0.14-1.04,0.14
				c-1.77,0-3.38-1.18-3.86-2.97l-5.18-19.32L123.13,101.56 M127.37,94.21l-5.8,1.55l-32.84,8.8l-5.8,1.55l1.55,5.8l5.18,19.32
				c1.17,4.36,5.14,7.41,9.66,7.41c0.87,0,1.74-0.11,2.59-0.34l25.11-6.73c2.58-0.69,4.74-2.35,6.07-4.66s1.69-5.01,1-7.59
				L128.93,100L127.37,94.21L127.37,94.21z"/>
		</g>
	</g>
	<g>
		<line class="st4" x1="89.72" y1="119.83" x2="127.32" y2="105.61"/>
		<path class="st1" d="M89.72,122.83c-1.21,0-2.35-0.74-2.81-1.94c-0.59-1.55,0.2-3.28,1.75-3.87l37.6-14.22
			c1.55-0.58,3.28,0.2,3.87,1.75s-0.2,3.28-1.75,3.87l-37.6,14.22C90.43,122.77,90.07,122.83,89.72,122.83z"/>
	</g>
	<g>
		<line class="st4" x1="92.31" y1="129.49" x2="129.91" y2="115.27"/>
		<path class="st1" d="M92.31,132.49c-1.21,0-2.35-0.74-2.81-1.94c-0.59-1.55,0.2-3.28,1.75-3.87l37.6-14.22
			c1.55-0.58,3.28,0.2,3.87,1.75c0.59,1.55-0.2,3.28-1.75,3.87l-37.6,14.22C93.02,132.42,92.66,132.49,92.31,132.49z"/>
	</g>
	<path class="st1" d="M108.07,56.94c-0.34-1.28-1.18-2.37-2.33-3.04c-0.77-0.44-1.63-0.67-2.5-0.67c-0.43,0-0.87,0.06-1.29,0.17
		l-17.39,4.66c-1.28,0.34-2.37,1.18-3.04,2.33c-0.66,1.15-0.84,2.51-0.5,3.79c1.64,6.11,7.2,10.38,13.52,10.38
		c1.22,0,2.44-0.16,3.63-0.48C105.62,72.08,110.07,64.39,108.07,56.94z"/>
	<g>
		<g>
			
				<ellipse transform="matrix(0.9659 -0.2588 0.2588 0.9659 -13.8994 27.1329)" class="st7" cx="96.1" cy="66.35" rx="6.69" ry="3"/>
		</g>
	</g>
	<path class="st8" d="M134,167h-6v-6c0-1.66-1.34-3-3-3s-3,1.34-3,3v6h-6c-1.66,0-3,1.34-3,3s1.34,3,3,3h6v6c0,1.66,1.34,3,3,3
		s3-1.34,3-3v-6h6c1.66,0,3-1.34,3-3S135.66,167,134,167z"/>
	<path class="st8" d="M39,15h-6V9c0-1.66-1.34-3-3-3s-3,1.34-3,3v6h-6c-1.66,0-3,1.34-3,3s1.34,3,3,3h6v6c0,1.66,1.34,3,3,3
		s3-1.34,3-3v-6h6c1.66,0,3-1.34,3-3S40.66,15,39,15z"/>
	<g>
		<g>
			<circle class="st8" cx="51" cy="110" r="3"/>
		</g>
	</g>
	<g>
		<g>
			<path class="st8" d="M198.8,275.2c2.98,0,5.4-2.42,5.4-5.4c0-0.99,0.81-1.8,1.8-1.8s1.8,0.81,1.8,1.8c0,2.98,2.42,5.4,5.4,5.4
				c0.99,0,1.8,0.81,1.8,1.8s-0.81,1.8-1.8,1.8c-2.98,0-5.4,2.42-5.4,5.4c0,0.99-0.81,1.8-1.8,1.8s-1.8-0.81-1.8-1.8
				c0-2.98-2.42-5.4-5.4-5.4c-0.99,0-1.8-0.81-1.8-1.8S197.81,275.2,198.8,275.2z"/>
		</g>
	</g>
	<g>
		<g>
			<circle class="st8" cx="14" cy="76" r="4"/>
		</g>
	</g>
	<g>
		<g>
			<circle class="st8" cx="35.5" cy="256.5" r="4.5"/>
		</g>
	</g>
	<g>
		<g>
			<circle class="st8" cx="145.5" cy="276.5" r="4.5"/>
		</g>
	</g>
	<g>
		<circle class="st8" cx="53" cy="292" r="3"/>
	</g>
	<g>
		<circle class="st8" cx="269" cy="285" r="3"/>
	</g>
	<g>
		<path class="st8" d="M24.4,136.4c-2.65,0-4.8-2.15-4.8-4.8c0-0.88-0.72-1.6-1.6-1.6c-0.88,0-1.6,0.72-1.6,1.6
			c0,2.65-2.15,4.8-4.8,4.8c-0.88,0-1.6,0.72-1.6,1.6s0.72,1.6,1.6,1.6c2.65,0,4.8,2.15,4.8,4.8c0,0.88,0.72,1.6,1.6,1.6
			c0.88,0,1.6-0.72,1.6-1.6c0-2.65,2.15-4.8,4.8-4.8c0.88,0,1.6-0.72,1.6-1.6S25.28,136.4,24.4,136.4z"/>
	</g>
	<g>
		<path class="st8" d="M19.4,283.4c-2.65,0-4.8-2.15-4.8-4.8c0-0.88-0.72-1.6-1.6-1.6c-0.88,0-1.6,0.72-1.6,1.6
			c0,2.65-2.15,4.8-4.8,4.8c-0.88,0-1.6,0.72-1.6,1.6s0.72,1.6,1.6,1.6c2.65,0,4.8,2.15,4.8,4.8c0,0.88,0.72,1.6,1.6,1.6
			c0.88,0,1.6-0.72,1.6-1.6c0-2.65,2.15-4.8,4.8-4.8c0.88,0,1.6-0.72,1.6-1.6S20.28,283.4,19.4,283.4z"/>
	</g>
	<g>
		<g>
			<circle class="st8" cx="276.5" cy="12.5" r="4.5"/>
		</g>
	</g>
	<g>
		<circle class="st8" cx="237" cy="39" r="3"/>
	</g>
	<g>
		<path class="st8" d="M194.4,27.4c-2.65,0-4.8-2.15-4.8-4.8c0-0.88-0.72-1.6-1.6-1.6c-0.88,0-1.6,0.72-1.6,1.6
			c0,2.65-2.15,4.8-4.8,4.8c-0.88,0-1.6,0.72-1.6,1.6c0,0.88,0.72,1.6,1.6,1.6c2.65,0,4.8,2.15,4.8,4.8c0,0.88,0.72,1.6,1.6,1.6
			c0.88,0,1.6-0.72,1.6-1.6c0-2.65,2.15-4.8,4.8-4.8c0.88,0,1.6-0.72,1.6-1.6C196,28.12,195.28,27.4,194.4,27.4z"/>
	</g>
	<g>
		<g>
			<g>
				<path class="st9" d="M265.59,260.04c-0.38,0-0.76-0.02-1.15-0.05l-110.58-9.67c-3.46-0.3-6.59-1.93-8.83-4.59
					s-3.29-6.03-2.99-9.49l14.64-167.36c0.58-6.65,6.27-11.87,12.94-11.87c0.38,0,0.76,0.02,1.14,0.05l110.58,9.67
					c3.46,0.3,6.59,1.93,8.83,4.59c2.23,2.66,3.29,6.03,2.99,9.49l-14.64,167.36C277.94,254.93,272.37,260.04,265.59,260.04z"/>
			</g>
			<g>
				<path class="st1" d="M169.63,60c0.29,0,0.59,0.01,0.88,0.04l110.58,9.67c5.5,0.48,9.57,5.33,9.09,10.83l-14.64,167.36
					c-0.46,5.21-4.82,9.13-9.95,9.13c-0.29,0-0.59-0.01-0.88-0.04l-110.58-9.67c-5.5-0.48-9.57-5.33-9.09-10.83l14.64-167.36
					C160.14,63.92,164.5,60,169.63,60 M169.63,54C169.63,54,169.63,54,169.63,54c-8.35,0-15.2,6.28-15.93,14.61l-14.64,167.36
					c-0.37,4.26,0.94,8.41,3.68,11.68c2.75,3.27,6.6,5.28,10.86,5.65l110.58,9.67c0.47,0.04,0.94,0.06,1.41,0.06
					c8.35,0,15.2-6.28,15.93-14.61l14.64-167.36c0.37-4.26-0.94-8.41-3.68-11.68c-2.75-3.27-6.6-5.28-10.86-5.65l-110.58-9.67
					C170.57,54.02,170.1,54,169.63,54L169.63,54z"/>
			</g>
		</g>
		<g>
			
				<rect x="184.93" y="106.47" transform="matrix(0.0872 -0.9962 0.9962 0.0872 26.2581 372.5891)" class="st10" width="63" height="131"/>
		</g>
		<g>
			
				<rect x="217.18" y="75.09" transform="matrix(0.0872 -0.9962 0.9962 0.0872 60.0249 346.6789)" class="st11" width="4" height="131"/>
		</g>
		<g>
			<g>
				<path class="st12" d="M288.79,99.49c-0.09,0-0.18,0-0.26-0.01l-130.5-11.42c-0.79-0.07-1.53-0.45-2.04-1.06
					c-0.51-0.61-0.76-1.4-0.69-2.19l1.39-15.94c0.58-6.65,6.27-11.87,12.94-11.87c0.38,0,0.76,0.02,1.14,0.05l110.58,9.67
					c7.14,0.62,12.44,6.94,11.82,14.08l-1.39,15.94C291.64,98.31,290.33,99.49,288.79,99.49z"/>
			</g>
			<g>
				<path class="st1" d="M169.63,60c0.29,0,0.59,0.01,0.88,0.04l110.58,9.67c5.5,0.48,9.57,5.33,9.09,10.83l-1.39,15.94
					l-130.5-11.42l1.39-15.94C160.14,63.92,164.5,60,169.63,60 M169.63,54C169.63,54,169.63,54,169.63,54
					c-8.35,0-15.2,6.28-15.93,14.61l-1.39,15.94c-0.14,1.59,0.36,3.16,1.38,4.38c1.02,1.22,2.49,1.98,4.07,2.12l130.5,11.42
					c0.17,0.02,0.35,0.02,0.52,0.02c1.4,0,2.77-0.49,3.86-1.4c1.22-1.02,1.98-2.49,2.12-4.07l1.39-15.94
					c0.37-4.26-0.94-8.41-3.68-11.68c-2.75-3.27-6.6-5.28-10.86-5.65l-110.58-9.67C170.57,54.02,170.1,54,169.63,54L169.63,54z"/>
			</g>
		</g>
		<g>
			<g>
				<path class="st2" d="M277.97,88.49c-0.17,0-0.35-0.01-0.53-0.02l-43.83-3.83c-3.3-0.29-5.74-3.21-5.45-6.5
					c0.27-3.12,2.84-5.48,5.97-5.48c0.17,0,0.35,0.01,0.52,0.02l43.83,3.83c3.3,0.29,5.74,3.21,5.45,6.5
					C283.67,86.13,281.1,88.49,277.97,88.49z"/>
			</g>
			<g>
				<g>
					<path class="st1" d="M234.13,75.65c0.09,0,0.18,0,0.26,0.01l43.83,3.83c1.65,0.14,2.87,1.6,2.73,3.25
						c-0.14,1.56-1.45,2.74-2.99,2.74c-0.09,0-0.18,0-0.26-0.01l-43.83-3.83c-1.65-0.14-2.87-1.6-2.73-3.25
						C231.28,76.83,232.59,75.65,234.13,75.65 M234.13,69.65C234.13,69.65,234.13,69.65,234.13,69.65c-4.7,0-8.55,3.53-8.96,8.22
						c-0.43,4.94,3.24,9.32,8.18,9.75l43.83,3.83c0.26,0.02,0.53,0.03,0.79,0.03c4.7,0,8.55-3.53,8.96-8.22
						c0.43-4.94-3.24-9.32-8.18-9.75l-43.83-3.83C234.66,69.67,234.39,69.65,234.13,69.65L234.13,69.65z"/>
				</g>
			</g>
		</g>
		<g>
			<g>
				<path class="st7" d="M171.38,79.16c-0.17,0-0.35-0.01-0.53-0.02c-1.6-0.14-3.04-0.89-4.07-2.12c-1.03-1.23-1.52-2.78-1.38-4.38
					c0.27-3.12,2.84-5.48,5.97-5.48c0.17,0,0.35,0.01,0.53,0.02c3.3,0.29,5.74,3.21,5.45,6.5
					C177.08,76.81,174.51,79.16,171.38,79.16z"/>
			</g>
			<g>
				<g>
					<path class="st1" d="M171.37,70.16c0.09,0,0.18,0,0.26,0.01c1.65,0.14,2.87,1.6,2.73,3.25c-0.14,1.56-1.45,2.74-2.99,2.74
						c-0.09,0-0.18,0-0.26-0.01c-1.65-0.14-2.87-1.6-2.73-3.25C168.52,71.34,169.83,70.16,171.37,70.16 M171.37,64.16
						C171.37,64.16,171.37,64.16,171.37,64.16c-4.7,0-8.55,3.53-8.96,8.22c-0.21,2.39,0.53,4.73,2.07,6.57
						c1.55,1.84,3.72,2.97,6.11,3.18c0.26,0.02,0.53,0.03,0.79,0.03c4.7,0,8.55-3.53,8.96-8.22c0.21-2.39-0.53-4.73-2.07-6.57
						s-3.72-2.97-6.11-3.18C171.9,64.17,171.63,64.16,171.37,64.16L171.37,64.16z"/>
				</g>
			</g>
		</g>
		<g>
			<g>
				<path class="st0" d="M192.3,80.99c-0.17,0-0.35-0.01-0.53-0.02c-3.3-0.29-5.74-3.21-5.45-6.5c0.27-3.12,2.84-5.48,5.97-5.48
					c0.17,0,0.35,0.01,0.53,0.02c1.6,0.14,3.04,0.89,4.07,2.12c1.03,1.23,1.52,2.78,1.38,4.38C198,78.64,195.43,80.99,192.3,80.99z"
					/>
			</g>
			<g>
				<g>
					<path class="st1" d="M192.29,71.99c0.09,0,0.18,0,0.26,0.01c1.65,0.14,2.87,1.6,2.73,3.25c-0.14,1.56-1.45,2.74-2.99,2.74
						c-0.09,0-0.18,0-0.26-0.01c-1.65-0.14-2.87-1.6-2.73-3.25C189.44,73.17,190.75,71.99,192.29,71.99 M192.29,65.99
						C192.29,65.99,192.29,65.99,192.29,65.99c-4.7,0-8.55,3.53-8.96,8.22c-0.21,2.39,0.53,4.73,2.07,6.57s3.72,2.97,6.11,3.18
						c0.26,0.02,0.53,0.03,0.79,0.03c4.7,0,8.55-3.53,8.96-8.22c0.21-2.39-0.53-4.73-2.07-6.57s-3.72-2.97-6.11-3.18
						C192.82,66.01,192.55,65.99,192.29,65.99L192.29,65.99z"/>
				</g>
			</g>
		</g>
		<g>
			<g>
				<path class="st13" d="M213.22,82.82c-0.17,0-0.35-0.01-0.53-0.02c-1.6-0.14-3.04-0.89-4.07-2.12c-1.03-1.23-1.52-2.78-1.38-4.38
					c0.27-3.12,2.84-5.48,5.97-5.48c0.17,0,0.35,0.01,0.53,0.02c3.29,0.29,5.74,3.2,5.45,6.5
					C218.92,80.47,216.35,82.82,213.22,82.82z"/>
			</g>
			<g>
				<g>
					<path class="st1" d="M213.21,73.82c0.09,0,0.18,0,0.26,0.01c1.65,0.14,2.87,1.6,2.73,3.25c-0.14,1.56-1.45,2.74-2.99,2.74
						c-0.09,0-0.18,0-0.26-0.01c-1.65-0.14-2.87-1.6-2.73-3.25C210.36,75,211.67,73.82,213.21,73.82 M213.21,67.82
						C213.21,67.82,213.21,67.82,213.21,67.82c-4.7,0-8.55,3.53-8.96,8.22c-0.21,2.39,0.53,4.73,2.07,6.57s3.72,2.97,6.11,3.18
						c0.26,0.02,0.53,0.03,0.79,0.03c4.7,0,8.55-3.53,8.96-8.22c0.21-2.39-0.53-4.73-2.07-6.57s-3.72-2.97-6.11-3.18
						C213.74,67.84,213.47,67.82,213.21,67.82L213.21,67.82z"/>
				</g>
			</g>
		</g>
		<g>
			<circle class="st9" cx="174.21" cy="161.25" r="16.5"/>
		</g>
		<g>
			<path class="st10" d="M178.8,206.32c-13.75-1.2-25.88,8.97-27.08,22.73c-0.62,7.04,1.76,13.66,6.06,18.6l34.55,3.02
				c5.1-4.12,8.58-10.22,9.2-17.26C202.73,219.65,192.55,207.52,178.8,206.32z"/>
		</g>
		<g>
			<circle class="st9" cx="217.04" cy="164.99" r="16.5"/>
		</g>
		<g>
			<circle class="st9" cx="259.88" cy="168.74" r="16.5"/>
		</g>
		<g>
			<path class="st11" d="M186.52,186.92l-28.89-2.53c-1.1-0.1-1.91-1.07-1.82-2.17l0,0c0.1-1.1,1.07-1.91,2.17-1.82l28.89,2.53
				c1.1,0.1,1.91,1.07,1.82,2.17v0C188.59,186.2,187.62,187.01,186.52,186.92z"/>
		</g>
		<g>
			<path class="st11" d="M178.85,194.28l-21.92-1.92c-1.1-0.1-1.91-1.07-1.82-2.17v0c0.1-1.1,1.07-1.91,2.17-1.82l21.92,1.92
				c1.1,0.1,1.91,1.07,1.82,2.17v0C180.92,193.56,179.95,194.37,178.85,194.28z"/>
		</g>
		<g>
			<path class="st11" d="M229.35,190.66l-28.89-2.53c-1.1-0.1-1.91-1.07-1.82-2.17l0,0c0.1-1.1,1.07-1.91,2.17-1.82l28.89,2.53
				c1.1,0.1,1.91,1.07,1.82,2.17v0C231.42,189.95,230.45,190.76,229.35,190.66z"/>
		</g>
		<g>
			<path class="st11" d="M268.09,241.23l-58.78-5.14c-1.1-0.1-1.91-1.07-1.82-2.17v0c0.1-1.1,1.07-1.91,2.17-1.82l58.78,5.14
				c1.1,0.1,1.91,1.07,1.82,2.17l0,0C270.16,240.52,269.19,241.33,268.09,241.23z"/>
		</g>
		<g>
			<path class="st11" d="M246.48,247.37l-37.86-3.31c-1.1-0.1-1.91-1.07-1.82-2.17l0,0c0.1-1.1,1.07-1.91,2.17-1.82l37.86,3.31
				c1.1,0.1,1.91,1.07,1.82,2.17l0,0C248.55,246.65,247.58,247.47,246.48,247.37z"/>
		</g>
		<g>
			<path class="st11" d="M268.79,233.26l-58.78-5.14c-1.1-0.1-1.91-1.07-1.82-2.17l0,0c0.1-1.1,1.07-1.91,2.17-1.82l58.78,5.14
				c1.1,0.1,1.91,1.07,1.82,2.17v0C270.86,232.55,269.89,233.36,268.79,233.26z"/>
		</g>
		<g>
			<path class="st11" d="M221.68,198.02l-21.92-1.92c-1.1-0.1-1.91-1.07-1.82-2.17l0,0c0.1-1.1,1.07-1.91,2.17-1.82l21.92,1.92
				c1.1,0.1,1.91,1.07,1.82,2.17v0C223.75,197.31,222.78,198.12,221.68,198.02z"/>
		</g>
		<g>
			<path class="st11" d="M272.19,194.41l-28.89-2.53c-1.1-0.1-1.91-1.07-1.82-2.17l0,0c0.1-1.1,1.07-1.91,2.17-1.82l28.89,2.53
				c1.1,0.1,1.91,1.07,1.82,2.17v0C274.26,193.69,273.29,194.51,272.19,194.41z"/>
		</g>
		<g>
			<path class="st11" d="M264.52,201.77l-21.92-1.92c-1.1-0.1-1.91-1.07-1.82-2.17l0,0c0.1-1.1,1.07-1.91,2.17-1.82l21.92,1.92
				c1.1,0.1,1.91,1.07,1.82,2.17v0C266.59,201.05,265.62,201.87,264.52,201.77z"/>
		</g>
		<g>
			<g>
				<path class="st1" d="M235.31,118.9c-0.06,0-0.12,0-0.18-0.01c-1.1-0.1-1.91-1.07-1.82-2.17c0.05-0.53-0.12-1.05-0.46-1.46
					c-0.34-0.41-0.83-0.66-1.36-0.71c-0.52-0.04-1.05,0.12-1.46,0.46c-0.41,0.34-0.66,0.83-0.71,1.36c-0.1,1.1-1.07,1.91-2.17,1.82
					c-1.1-0.1-1.91-1.07-1.82-2.17c0.14-1.6,0.89-3.04,2.12-4.07c1.23-1.03,2.79-1.52,4.38-1.38c1.6,0.14,3.04,0.89,4.07,2.12
					c1.03,1.23,1.52,2.78,1.38,4.38C237.21,118.12,236.33,118.9,235.31,118.9z"/>
			</g>
		</g>
		<g>
			<g>
				<path class="st1" d="M215.38,117.16c-0.06,0-0.12,0-0.18-0.01c-1.1-0.1-1.91-1.07-1.82-2.17c0.05-0.53-0.12-1.05-0.46-1.46
					c-0.34-0.41-0.83-0.66-1.36-0.71c-1.09-0.09-2.07,0.72-2.17,1.82c-0.1,1.1-1.06,1.91-2.17,1.82c-1.1-0.1-1.91-1.07-1.82-2.17
					c0.29-3.3,3.21-5.75,6.5-5.45c1.6,0.14,3.04,0.89,4.07,2.12c1.03,1.23,1.52,2.78,1.38,4.38
					C217.28,116.37,216.41,117.16,215.38,117.16z"/>
			</g>
		</g>
		<g>
			<path class="st1" d="M222.72,127.76c-4.89,0-9.95-1.5-14.08-4.4c-0.9-0.64-1.12-1.88-0.49-2.79s1.88-1.12,2.79-0.49
				c5.84,4.1,14.17,4.84,19.81,1.77c0.97-0.53,2.19-0.17,2.71,0.8c0.53,0.97,0.17,2.18-0.8,2.71
				C229.71,126.98,226.26,127.76,222.72,127.76z"/>
		</g>
		<g>
			<path class="st1" d="M216.36,129.82c0.59,0.22,1.2,0.4,1.82,0.51c0.62,0.13,1.24,0.23,1.87,0.3c0.63,0.04,1.26,0.05,1.89,0.03
				c0.63-0.01,1.26-0.07,1.87-0.19c0.72-0.14,1.41,0.33,1.55,1.05c0.1,0.5-0.1,0.98-0.46,1.28l-0.82,0.66
				c-0.67,0.54-1.4,0.83-2.14,1c-0.74,0.19-1.5,0.2-2.24,0.16c-0.74-0.08-1.48-0.23-2.18-0.54c-0.7-0.3-1.36-0.7-1.93-1.36
				l-0.7-0.81c-0.47-0.55-0.41-1.38,0.14-1.86C215.41,129.73,215.93,129.66,216.36,129.82z"/>
		</g>
		<g>
			<g>
				<circle class="st11" cx="248.08" cy="120.03" r="2"/>
			</g>
			<g>
				<circle class="st11" cx="243.4" cy="127.65" r="2"/>
			</g>
			<g>
				<circle class="st11" cx="251.37" cy="128.35" r="2"/>
			</g>
		</g>
		<g>
			<g>
				<circle class="st11" cx="194.29" cy="115.32" r="2"/>
			</g>
			<g>
				<circle class="st11" cx="189.6" cy="122.94" r="2"/>
			</g>
			<g>
				<circle class="st11" cx="197.57" cy="123.64" r="2"/>
			</g>
		</g>
		<g>
			<path class="st1" d="M229.01,103.15c1.03-0.51,1.94-0.73,2.97-0.85c1.01-0.12,2.04-0.06,3.07,0.14c1.03,0.2,2.06,0.6,2.98,1.19
				c0.93,0.57,1.74,1.4,2.27,2.36c0.46,0.83,0.16,1.88-0.67,2.34c-0.39,0.22-0.84,0.27-1.25,0.17l-0.38-0.09
				c-0.77-0.19-1.38-0.42-2.03-0.59c-0.65-0.16-1.28-0.35-1.96-0.49l-2.12-0.43c-0.72-0.14-1.55-0.26-2.24-0.48l-0.4-0.12
				c-0.9-0.28-1.4-1.24-1.11-2.13C228.3,103.71,228.62,103.35,229.01,103.15z"/>
		</g>
		<g>
			<path class="st1" d="M214.79,105.12c-0.72,0.09-1.56,0.07-2.29,0.08l-2.16,0.05c-0.7,0.02-1.35,0.1-2.02,0.14
				c-0.67,0.05-1.3,0.17-2.1,0.23l-0.39,0.03c-0.95,0.06-1.77-0.65-1.83-1.6c-0.03-0.45,0.12-0.88,0.38-1.2
				c0.69-0.85,1.63-1.53,2.65-1.93c1.01-0.42,2.1-0.64,3.14-0.65c1.05-0.02,2.08,0.1,3.05,0.39c0.99,0.29,1.86,0.67,2.78,1.35
				c0.75,0.56,0.91,1.63,0.35,2.38c-0.29,0.38-0.7,0.61-1.14,0.67L214.79,105.12z"/>
		</g>
	</g>
</g>
</svg>
