<svg version="1.1" id="partners-program-hero-mobile" xmlns="http://www.w3.org/2000/svg" x="0" y="0" viewBox="0 0 600 300" style="enable-background:new 0 0 600 300" xml:space="preserve"><style>.st0{fill:#7ddf96}.st1{fill:#515979}.st2{fill:#00c853}.st7{fill:#6adaf7}.st8{fill:#f89d81}.st9{fill:#c7bcff}.st11{fill:#fde1d9}.st12{fill:#ffd886}</style><path class="st0" d="M365.4 113.1c-1.7-.4-3-2.1-3-3.7V62c0-1.7 1.3-2.6 3-2.3 33.3 7.4 66.7-10.6 100-3.2 1.7.4 3 2.1 3 3.7v47.4c0 1.7-1.3 2.6-3 2.3-33.3-7.4-66.7 10.6-100 3.2z"/><path class="st1" d="M465.4 59.5v47.4c-33.3-7.4-66.7 10.6-100 3.2V62.7c33.3 7.5 66.7-10.5 100-3.2m0-6c-33.3-7.4-66.7 10.6-100 3.2-3.3-.7-6 1.1-6 4.4v47.4c0 3.3 2.7 6.9 6 7.6 33.3 7.4 66.7-10.6 100-3.2 3.3.7 6-1.1 6-4.4V61.1c0-3.3-2.7-6.8-6-7.6z"/><path class="st2" d="M461.2 94V70.8c-4.4-.7-7.9-4.4-7.9-8.8-25.3-1.5-50.5 8-75.8 6.5 0 4.3-3.5 7.7-7.9 7v23.2c4.4.7 7.9 4.4 7.9 8.8 25.3 1.5 50.5-8 75.8-6.5 0-4.3 3.5-7.7 7.9-7z"/><path class="st0" d="M433.8 82.2c0 12.2-8.2 23-18.4 24.7S397 99.7 397 87.5s8.2-23 18.4-24.7c10.2-1.8 18.4 7.2 18.4 19.4zM389.6 88.1c0 3.8-2.8 7-6.3 7s-6.3-3.3-6.3-7 2.8-6.6 6.3-6.7c3.5 0 6.3 2.9 6.3 6.7zM453.8 81.6c0 3.8-2.8 6.6-6.3 6.7-3.5 0-6.3-2.9-6.3-6.7 0-3.8 2.8-7 6.3-7s6.3 3.2 6.3 7z"/><path class="st2" d="M418.7 87.6c0-1.2-1.2-1.4-3.5-1.3-4.1.2-7.4-.1-7.6-5.1 0-3.2 2-5.6 5.7-6.8v-2.3c1.5-.2 3-.5 4.5-.7v2.3c2.4 0 4.1 1.1 5.2 3.1.1.1.1.1.1.2l.3.6c-1.5.9-2.9 1.8-4.4 2.7-.1-.3-.3-.5-.5-.8-.6-1.1-1.4-1.5-3-1.3-2.1.3-3 .9-3 2.2 0 1.1 1.3 1.3 3.6 1.2 4-.2 7.6.1 7.6 5 0 3.2-2.1 5.7-5.8 7V96c-1.5.2-3 .5-4.5.7v-2.3c-2.9 0-4.9-1.2-5.8-3.5-.1-.3-.2-.6-.3-.8 1.5-.8 3-1.5 4.5-2.3.1.3.2.5.4.8.5 1.2 1.6 1.6 3.3 1.3 2-.2 3.2-1 3.2-2.3z"/><path class="st0" d="M355.4 184.1c-1.7-.4-3-2.1-3-3.7V133c0-1.7 1.3-2.6 3-2.3 33.3 7.4 66.7-10.6 100-3.2 1.7.4 3 2.1 3 3.7v47.4c0 1.7-1.3 2.6-3 2.3-33.3-7.4-66.7 10.6-100 3.2z"/><path class="st1" d="M455.4 130.6V178c-33.3-7.4-66.7 10.6-100 3.2v-47.4c33.3 7.3 66.7-10.6 100-3.2m0-6c-33.3-7.4-66.7 10.6-100 3.2-3.3-.7-6 1.1-6 4.4v47.4c0 3.3 2.7 6.9 6 7.6 33.3 7.4 66.7-10.6 100-3.2 3.3.7 6-1.1 6-4.4v-47.4c0-3.3-2.7-6.9-6-7.6z"/><path class="st2" d="M451.2 165v-23.2c-4.4-.7-7.9-4.4-7.9-8.8-25.3-1.5-50.5 8-75.8 6.5 0 4.4-3.5 7.7-7.9 7v23.2c4.4.7 7.9 4.4 7.9 8.8 25.3 1.5 50.5-8 75.8-6.5 0-4.3 3.5-7.7 7.9-7z"/><path class="st0" d="M423.8 153.2c0 12.2-8.2 23-18.4 24.7s-18.4-7.2-18.4-19.5c0-12.2 8.2-23 18.4-24.7s18.4 7.3 18.4 19.5zM379.6 159.1c0 3.8-2.8 7-6.3 7s-6.3-3.3-6.3-7 2.8-6.6 6.3-6.6c3.5-.1 6.3 2.8 6.3 6.6zM443.8 152.6c0 3.8-2.8 6.6-6.3 6.6s-6.3-2.9-6.3-6.6c0-3.8 2.8-7 6.3-7s6.3 3.2 6.3 7z"/><path class="st2" d="M408.7 158.6c0-1.2-1.2-1.4-3.5-1.3-4.1.2-7.4-.1-7.6-5.1 0-3.1 2-5.6 5.7-6.8v-2.3c1.5-.2 3-.5 4.5-.7v2.3c2.4 0 4.1 1.1 5.2 3.1.1.1.1.1.1.2l.3.6c-1.5.9-2.9 1.8-4.4 2.6-.1-.3-.3-.5-.5-.8-.6-1.1-1.4-1.5-3-1.3-2.1.3-3 .9-3 2.2 0 1.1 1.3 1.3 3.6 1.2 4-.2 7.6.1 7.6 5 0 3.2-2.1 5.7-5.8 7v2.4c-1.5.2-3 .5-4.5.7v-2.3c-2.9 0-4.9-1.2-5.8-3.5l-.3-.9c1.5-.8 3-1.5 4.5-2.3.1.3.2.5.4.8.5 1.2 1.6 1.6 3.3 1.3 2 0 3.2-.8 3.2-2.1z"/><path d="M229.4 232.7c-3.9 0-7-3.1-7-7v-182c0-3.9 3.1-7 7-7h142c3.9 0 7 3.1 7 7v162c0 .8-.3 1.6-.9 2.1l-24 24c-.6.6-1.3.9-2.1.9h-122z" style="fill:#fff"/><path class="st1" d="M371.4 39.7c2.2 0 4 1.8 4 4v162l-24 24h-122c-2.2 0-4-1.8-4-4v-182c0-2.2 1.8-4 4-4h142m0-6h-142c-5.5 0-10 4.5-10 10v182c0 5.5 4.5 10 10 10h122c1.6 0 3.1-.6 4.2-1.8l24-24c1.1-1.1 1.8-2.6 1.8-4.2v-162c0-5.6-4.5-10-10-10z"/><path d="M351.4 232.7c-.4 0-.8-.1-1.1-.2-1.1-.5-1.9-1.6-1.9-2.8v-19.2c0-4.3 3.5-7.8 7.8-7.8h19.2c1.2 0 2.3.7 2.8 1.9.5 1.1.2 2.4-.6 3.3l-24 24c-.7.5-1.4.8-2.2.8z" style="fill:#d8ebfb"/><path class="st1" d="m375.4 205.7-24 24v-19.2c0-2.6 2.1-4.8 4.8-4.8h19.2m0-6h-19.2c-6 0-10.8 4.8-10.8 10.8v19.2c0 2.4 1.5 4.6 3.7 5.5.7.3 1.5.5 2.3.5 1.6 0 3.1-.6 4.2-1.8l24-24c1.7-1.7 2.2-4.3 1.3-6.5-.9-2.3-3.1-3.7-5.5-3.7zm0 12z"/><path d="M352.4 64.7c-6.1 0-11-4.9-11-11v-5c0-2.2 1.8-4 4-4s4 1.8 4 4v5c0 1.7 1.4 3 3 3s3-1.3 3-3v-22c0-1.6-1.4-3-3-3s-3 1.4-3 3v4h-8v-4c0-6.1 4.9-11 11-11s11 4.9 11 11v22c0 6-4.9 11-11 11z" style="fill:#ccc"/><path d="M352.4 22.7c5 0 9 4 9 9v22c0 5-4 9-9 9s-9-4-9-9v-5c0-1.1.9-2 2-2s2 .9 2 2v5c0 2.8 2.2 5 5 5s5-2.2 5-5v-22c0-2.8-2.2-5-5-5s-5 2.2-5 5v2h-4v-2c0-5 4-9 9-9m0-4c-7.2 0-13 5.8-13 13v6h12v-6c0-.5.5-1 1-1s1 .5 1 1v22c0 .5-.5 1-1 1s-1-.5-1-1v-5c0-3.3-2.7-6-6-6s-6 2.7-6 6v5c0 7.2 5.8 13 13 13s13-5.8 13-13v-22c0-7.2-5.8-13-13-13z" style="fill:#515a78"/><path class="st1" d="M292.4 139.7h-48c-1.7 0-3-1.3-3-3s1.3-3 3-3h48c1.7 0 3 1.3 3 3 0 1.6-1.4 3-3 3zM262.4 159.7h-18c-1.7 0-3-1.3-3-3s1.3-3 3-3h18c1.7 0 3 1.3 3 3 0 1.6-1.4 3-3 3zM292.4 173.7h-48c-1.7 0-3-1.3-3-3s1.3-3 3-3h48c1.7 0 3 1.3 3 3 0 1.6-1.4 3-3 3zM282.4 183.7h-38c-1.7 0-3-1.3-3-3s1.3-3 3-3h38c1.7 0 3 1.3 3 3 0 1.6-1.4 3-3 3zM292.4 197.7h-48c-1.7 0-3-1.3-3-3s1.3-3 3-3h48c1.7 0 3 1.3 3 3 0 1.6-1.4 3-3 3zM272.4 207.7h-28c-1.7 0-3-1.3-3-3s1.3-3 3-3h28c1.7 0 3 1.3 3 3 0 1.6-1.4 3-3 3zM282.4 149.7h-38c-1.7 0-3-1.3-3-3s1.3-3 3-3h38c1.7 0 3 1.3 3 3 0 1.6-1.4 3-3 3zM357.4 179.7h-34c-1.1 0-2-.9-2-2s.9-2 2-2h34c1.1 0 2 .9 2 2s-.9 2-2 2z"/><path class="st7" d="M318.4 137.7h10v22h-10z"/><path class="st8" d="M331.4 145.7h10v14h-10z"/><path class="st9" d="M344.4 131.7h10v28h-10z"/><circle class="st7" cx="314.4" cy="177.7" r="3"/><path class="st1" d="M342.4 187.7h-19c-1.1 0-2-.9-2-2s.9-2 2-2h19c1.1 0 2 .9 2 2s-.9 2-2 2z"/><circle class="st8" cx="314.4" cy="185.7" r="3"/><path class="st1" d="M336.4 195.7h-13c-1.1 0-2-.9-2-2s.9-2 2-2h13c1.1 0 2 .9 2 2s-.9 2-2 2z"/><circle class="st9" cx="314.4" cy="193.7" r="3"/><path class="st1" d="M300.4 120.2c-11.3 0-20.5-9.2-20.5-20.5 0-1.4 1.1-2.5 2.5-2.5h36c1.4 0 2.5 1.1 2.5 2.5 0 11.3-9.2 20.5-20.5 20.5z"/><path class="st1" d="M318.4 99.7c0 9.9-8.1 18-18 18s-18-8.1-18-18h36m0-5h-36c-2.8 0-5 2.2-5 5 0 12.7 10.3 23 23 23 12.6 0 22.9-10.2 23-22.8v-.2c0-2.8-2.2-5-5-5zm0 10z"/><ellipse cx="300.4" cy="111.7" rx="13.4" ry="6" style="fill:#ef7d7d"/><path class="st1" d="M286.4 70.7c-.5 0-1.1-.1-1.6-.2s-1.1-.1-1.6-.1c-1-.1-2 0-2.9.1-.9.1-1.7.3-2.6.7-.9.3-1.7.8-2.7 1.4l-.4.2c-1 .5-2.2.1-2.7-.9-.3-.6-.3-1.2 0-1.8.6-1.4 1.6-2.8 3-3.7.3-.3.7-.5 1.1-.7.4-.2.8-.4 1.1-.5.4-.1.8-.3 1.2-.4s.8-.2 1.2-.2c1.6-.2 3.3 0 4.8.4.7.2 1.5.5 2.1.9.7.4 1.3.7 2 1.3.8.7.9 2 .2 2.8-.4.5-.9.7-1.5.7h-.7zM290.4 88.2c-1.4 0-2.5-1.1-2.5-2.5 0-2.5-2-4.5-4.5-4.5s-4.5 2-4.5 4.5c0 1.4-1.1 2.5-2.5 2.5s-2.5-1.1-2.5-2.5c0-5.2 4.3-9.5 9.5-9.5s9.5 4.3 9.5 9.5c0 1.3-1.1 2.5-2.5 2.5zM312.5 67.2c.7-.6 1.3-.9 2-1.3l2.1-.9c1.5-.4 3.1-.6 4.8-.4.4.1.8.1 1.2.2s.8.2 1.2.4c.4.2.8.4 1.1.5s.7.4 1.1.7c1.4.9 2.4 2.3 3 3.7.5 1 0 2.2-1 2.7-.6.3-1.2.2-1.8 0l-.4-.2c-1-.5-1.9-1.1-2.7-1.4-.9-.3-1.7-.6-2.6-.7-.9-.1-1.9-.2-2.9-.1-.5 0-1.1.1-1.6.1s-1.2.2-1.6.2h-.6c-1.1 0-2-.9-2-2 0-.6.3-1.1.7-1.5zM324.4 88.2c-1.4 0-2.5-1.1-2.5-2.5 0-2.5-2-4.5-4.5-4.5s-4.5 2-4.5 4.5c0 1.4-1.1 2.5-2.5 2.5s-2.5-1.1-2.5-2.5c0-5.2 4.3-9.5 9.5-9.5s9.5 4.3 9.5 9.5c0 1.3-1.1 2.5-2.5 2.5z"/><circle class="st11" cx="259.4" cy="88.2" r="2.5"/><circle class="st11" cx="264.9" cy="99.2" r="2.5"/><circle transform="rotate(-80.781 253.892 99.156)" class="st11" cx="253.9" cy="99.2" r="2.5"/><circle class="st11" cx="341.4" cy="88.2" r="2.5"/><g><circle class="st11" cx="346.9" cy="99.2" r="2.5"/></g><g><circle class="st11" cx="335.9" cy="99.2" r="2.5"/></g><g><path class="st1" d="M313.4 158.2h-6c-.8 0-1.5-.7-1.5-1.5s.7-1.5 1.5-1.5h6c.8 0 1.5.7 1.5 1.5s-.7 1.5-1.5 1.5z"/></g><g><path class="st1" d="M313.4 148.2h-6c-.8 0-1.5-.7-1.5-1.5s.7-1.5 1.5-1.5h6c.8 0 1.5.7 1.5 1.5s-.7 1.5-1.5 1.5z"/></g><g><path class="st1" d="M313.4 138.2h-6c-.8 0-1.5-.7-1.5-1.5s.7-1.5 1.5-1.5h6c.8 0 1.5.7 1.5 1.5s-.7 1.5-1.5 1.5z"/></g><g><path class="st1" d="M349.4 169.2c-.8 0-1.5-.7-1.5-1.5v-6c0-.8.7-1.5 1.5-1.5s1.5.7 1.5 1.5v6c0 .8-.7 1.5-1.5 1.5z"/></g><g><path class="st1" d="M336.4 169.2c-.8 0-1.5-.7-1.5-1.5v-6c0-.8.7-1.5 1.5-1.5s1.5.7 1.5 1.5v6c0 .8-.7 1.5-1.5 1.5z"/></g><g><path class="st1" d="M323.4 169.2c-.8 0-1.5-.7-1.5-1.5v-6c0-.8.7-1.5 1.5-1.5s1.5.7 1.5 1.5v6c0 .8-.7 1.5-1.5 1.5z"/></g><g><path class="st1" d="M357.4 163.7h-44c-1.1 0-2-.9-2-2v-30c0-1.1.9-2 2-2s2 .9 2 2v28h42c1.1 0 2 .9 2 2s-.9 2-2 2z"/></g><g><path class="st0" d="M183.4 278.5c-1.7-.4-3-2.1-3-3.7v-47.4c0-1.7 1.3-2.6 3-2.3 33.3 7.4 66.7-10.6 100-3.2 1.7.4 3 2.1 3 3.7V273c0 1.7-1.3 2.6-3 2.3-33.3-7.4-66.7 10.5-100 3.2z"/><path class="st1" d="M283.4 224.9v47.4c-33.3-7.4-66.7 10.6-100 3.2v-47.4c33.3 7.4 66.7-10.6 100-3.2m0-6c-33.3-7.4-66.7 10.6-100 3.2-3.3-.7-6 1.1-6 4.4v47.4c0 3.3 2.7 6.9 6 7.6 33.3 7.4 66.7-10.6 100-3.2 3.3.7 6-1.1 6-4.4v-47.4c0-3.3-2.7-6.9-6-7.6z"/><path class="st2" d="M279.2 259.3v-23.2c-4.4-.7-7.9-4.4-7.9-8.8-25.3-1.5-50.5 8-75.8 6.5 0 4.4-3.5 7.7-7.9 7V264c4.4.7 7.9 4.4 7.9 8.8 25.3 1.5 50.5-8 75.8-6.5 0-4.3 3.5-7.7 7.9-7z"/><path class="st0" d="M251.8 247.6c0 12.2-8.2 23-18.4 24.7-10.2 1.7-18.4-7.3-18.4-19.5s8.2-23 18.4-24.7c10.2-1.7 18.4 7.2 18.4 19.5zM207.6 253.4c0 3.8-2.8 7-6.3 7s-6.3-3.3-6.3-7c0-3.8 2.8-6.6 6.3-6.6 3.5-.1 6.3 2.8 6.3 6.6zM271.8 246.9c0 3.8-2.8 6.6-6.3 6.6s-6.3-2.9-6.3-6.6c0-3.8 2.8-7 6.3-7s6.3 3.2 6.3 7z"/><g><path class="st1" d="M238.4 252.2c-1.1 0-2-.9-2-2 0-2.6 2.1-5 4.7-5.4 1.4-.2 2.7.2 3.7 1 1 .9 1.6 2.1 1.6 3.5 0 1.1-.9 2-2 2s-2-.9-2-2c0-.1 0-.4-.2-.5-.1-.1-.4-.1-.5-.1-.7.1-1.3.8-1.3 1.5 0 1.1-.9 2-2 2zM222.4 254.6c-1.1 0-2-.9-2-2 0-2.6 2.1-5 4.7-5.4 1.4-.2 2.7.2 3.7 1 1 .9 1.6 2.1 1.6 3.5 0 1.1-.9 2-2 2s-2-.9-2-2c0-.1 0-.3-.2-.5-.1-.1-.3-.1-.5-.1-.7.1-1.3.8-1.3 1.5 0 1.1-.9 2-2 2zM231.8 262.6c-2.6 0-5-.9-6.9-2.5-.8-.7-.9-2-.2-2.8.7-.8 2-.9 2.8-.2 1.4 1.2 3.4 1.8 5.5 1.4 2.2-.4 4.3-1.6 5.9-3.4.7-.8 2-.9 2.8-.2.8.7.9 2 .2 2.8-2.2 2.6-5.2 4.3-8.3 4.8-.5 0-1.2.1-1.8.1zM228.4 241l-1.8.6-1.8.6-1.8.6c-.6.2-1.2.4-1.9.6-.1 0-.3.1-.4.1-.9.2-1.8-.3-1.9-1.3-.1-.4.1-.8.3-1.2.6-.9 1.4-1.7 2.2-2.3.8-.6 1.7-1 2.7-1.3.9-.3 1.9-.5 2.8-.4.9 0 1.9.2 2.7.7.8.5.9 1.5.3 2.4-.2.4-.6.6-1 .8-.1 0-.3.1-.4.1zM245.7 239.7h-1.9c-.6 0-1.2 0-1.8-.1-.6 0-1.2 0-1.8-.1-.6 0-1.2 0-1.8-.1h-.4c-.9-.1-1.5-.9-1.3-1.9.1-.4.3-.8.6-1.1.8-.8 1.8-1.2 2.7-1.5.9-.3 1.9-.4 2.8-.4.9 0 1.8.2 2.7.6.8.4 1.6.9 2.2 1.7.5.7.3 1.8-.5 2.5-.4.3-.8.4-1.1.4h-.4z"/></g></g><g><path class="st0" d="M131.4 203.1c-1.7-.4-3-2.1-3-3.7V152c0-1.7 1.3-2.6 3-2.3 33.3 7.4 66.7-10.6 100-3.2 1.7.4 3 2.1 3 3.7v47.4c0 1.7-1.3 2.6-3 2.3-33.3-7.4-66.7 10.6-100 3.2z"/><path class="st1" d="M231.4 149.6V197c-33.3-7.4-66.7 10.6-100 3.2v-47.4c33.3 7.3 66.7-10.6 100-3.2m0-6c-33.3-7.4-66.7 10.6-100 3.2-3.3-.7-6 1.1-6 4.4v47.4c0 3.3 2.7 6.9 6 7.6 33.3 7.4 66.7-10.6 100-3.2 3.3.7 6-1.1 6-4.4v-47.4c0-3.3-2.7-6.9-6-7.6z"/><path class="st2" d="M227.2 184v-23.2c-4.4-.7-7.9-4.4-7.9-8.8-25.3-1.5-50.5 8-75.8 6.5 0 4.4-3.5 7.7-7.9 7v23.2c4.4.7 7.9 4.4 7.9 8.8 25.3 1.5 50.5-8 75.8-6.5 0-4.3 3.5-7.7 7.9-7z"/><path class="st0" d="M199.8 172.2c0 12.2-8.2 23-18.4 24.7s-18.4-7.2-18.4-19.5c0-12.2 8.2-23 18.4-24.7 10.2-1.7 18.4 7.3 18.4 19.5zM155.6 178.1c0 3.8-2.8 7-6.3 7s-6.3-3.3-6.3-7 2.8-6.6 6.3-6.6c3.5-.1 6.3 2.8 6.3 6.6zM219.8 171.6c0 3.8-2.8 6.6-6.3 6.6s-6.3-2.9-6.3-6.6c0-3.8 2.8-7 6.3-7s6.3 3.2 6.3 7z"/><g><path class="st2" d="M184.7 177.6c0-1.2-1.2-1.4-3.5-1.3-4.1.2-7.4-.1-7.6-5.1 0-3.1 2-5.6 5.7-6.8v-2.3c1.5-.2 3-.5 4.5-.7v2.3c2.4 0 4.1 1.1 5.2 3.1.1.1.1.1.1.2l.3.6c-1.5.9-2.9 1.8-4.4 2.6-.1-.3-.3-.5-.4-.8-.6-1.1-1.4-1.5-3-1.3-2.1.3-3 .9-3 2.2 0 1.1 1.3 1.3 3.6 1.2 4-.2 7.6.1 7.6 5 0 3.2-2.1 5.7-5.8 7v2.4c-1.5.2-3 .5-4.5.7v-2.3c-2.9 0-4.9-1.2-5.8-3.5l-.3-.9c1.5-.8 3-1.5 4.5-2.3.1.3.2.5.4.8.5 1.2 1.6 1.6 3.3 1.3 2 0 3.1-.8 3.1-2.1z"/></g></g><g><path class="st12" d="M466.3 213.4c-3 0-5.4-2.4-5.4-5.4 0-1-.8-1.8-1.8-1.8s-1.8.8-1.8 1.8c0 3-2.4 5.4-5.4 5.4-1 0-1.8.8-1.8 1.8s.8 1.8 1.8 1.8c3 0 5.4 2.4 5.4 5.4 0 1 .8 1.8 1.8 1.8s1.8-.8 1.8-1.8c0-3 2.4-5.4 5.4-5.4 1 0 1.8-.8 1.8-1.8s-.8-1.8-1.8-1.8z"/></g><g><path class="st12" d="M458.2 19.4c-2.2 0-3.9-1.8-3.9-3.9 0-.7-.6-1.3-1.3-1.3s-1.3.6-1.3 1.3c0 2.2-1.8 3.9-3.9 3.9-.7 0-1.3.6-1.3 1.3s.6 1.3 1.3 1.3c2.2 0 3.9 1.8 3.9 3.9 0 .7.6 1.3 1.3 1.3s1.3-.6 1.3-1.3c0-2.2 1.8-3.9 3.9-3.9.7 0 1.3-.6 1.3-1.3 0-.7-.6-1.3-1.3-1.3z"/></g><g><path class="st12" d="M198.2 119.4c-2.2 0-3.9-1.8-3.9-3.9 0-.7-.6-1.3-1.3-1.3s-1.3.6-1.3 1.3c0 2.2-1.8 3.9-3.9 3.9-.7 0-1.3.6-1.3 1.3s.6 1.3 1.3 1.3c2.2 0 3.9 1.8 3.9 3.9 0 .7.6 1.3 1.3 1.3s1.3-.6 1.3-1.3c0-2.2 1.8-3.9 3.9-3.9.7 0 1.3-.6 1.3-1.3s-.6-1.3-1.3-1.3z"/></g><g><path class="st12" d="M110.3 208.4c-3 0-5.4-2.4-5.4-5.4 0-1-.8-1.8-1.8-1.8s-1.8.8-1.8 1.8c0 3-2.4 5.4-5.4 5.4-1 0-1.8.8-1.8 1.8s.8 1.8 1.8 1.8c3 0 5.4 2.4 5.4 5.4 0 1 .8 1.8 1.8 1.8s1.8-.8 1.8-1.8c0-3 2.4-5.4 5.4-5.4 1 0 1.8-.8 1.8-1.8s-.8-1.8-1.8-1.8z"/></g><g><path class="st12" d="M163.3 104.4c-3 0-5.4-2.4-5.4-5.4 0-1-.8-1.8-1.8-1.8s-1.8.8-1.8 1.8c0 3-2.4 5.4-5.4 5.4-1 0-1.8.8-1.8 1.8s.8 1.8 1.8 1.8c3 0 5.4 2.4 5.4 5.4 0 1 .8 1.8 1.8 1.8s1.8-.8 1.8-1.8c0-3 2.4-5.4 5.4-5.4 1 0 1.8-.8 1.8-1.8s-.8-1.8-1.8-1.8z"/></g><g><path class="st12" d="M155.1 55.2c-3.3 0-6-2.7-6-6 0-1.1-.9-2-2-2s-2 .9-2 2c0 3.3-2.7 6-6 6-1.1 0-2 .9-2 2s.9 2 2 2c3.3 0 6 2.7 6 6 0 1.1.9 2 2 2s2-.9 2-2c0-3.3 2.7-6 6-6 1.1 0 2-.9 2-2s-.9-2-2-2z"/></g><g><circle class="st12" cx="232.1" cy="19.2" r="3"/></g><g><circle class="st12" cx="105.1" cy="163.2" r="3"/></g><g><circle class="st12" cx="128.6" cy="223.7" r="2.5"/></g><g><circle class="st12" cx="418.6" cy="202.7" r="2.5"/></g><g><circle class="st12" cx="136.6" cy="254.7" r="4.5"/></g><g><circle class="st12" cx="196.6" cy="34.7" r="4.5"/></g><g><circle class="st12" cx="415.4" cy="226.5" r="4.5"/></g><g><circle class="st12" cx="126.6" cy="120.7" r="2.5"/></g><g><circle class="st12" cx="194.6" cy="67.7" r="2.5"/></g><g><circle class="st12" cx="318.6" cy="262.7" r="2.5"/></g><g><circle class="st12" cx="428.6" cy="42.7" r="2.5"/></g><g><circle class="st12" cx="487.1" cy="81.2" r="3"/></g><g><circle class="st12" cx="477.1" cy="148.2" r="3"/></g><g><circle class="st12" cx="488.6" cy="240.7" r="2.5"/></g><g><path class="st12" d="M484.9 48.2c-1.7 0-3-1.3-3-3V28.8c0-1.7 1.3-3 3-3s3 1.3 3 3v16.4c0 1.6-1.3 3-3 3z"/><path class="st12" d="M493.1 40h-16.4c-1.7 0-3-1.3-3-3s1.3-3 3-3h16.4c1.7 0 3 1.3 3 3s-1.3 3-3 3z"/></g></svg>