<?xml version="1.0" encoding="utf-8"?>
<!-- Generator: Adobe Illustrator 26.0.2, SVG Export Plug-In . SVG Version: 6.00 Build 0)  -->
<svg version="1.1" id="CRO_x5F_Hub-Tips_x5F_From_x5F_CRO_x5F_Experts"
	 xmlns="http://www.w3.org/2000/svg" xmlns:xlink="http://www.w3.org/1999/xlink" x="0px" y="0px" viewBox="0 0 400 400"
	 style="enable-background:new 0 0 400 400;" xml:space="preserve">
<style type="text/css">
	.st0{fill:#FFFFFF;}
	.st1{fill:#515979;}
	.st2{fill:#D8EBFB;}
	.st3{fill:#FDE1D9;}
	.st4{fill:#F89D81;}
	.st5{fill:#C7BCFF;}
	.st6{fill:#EF7D7D;}
	.st7{fill:#FFEBEB;}
	.st8{fill:#FFD886;}
	.st9{fill:#FBB040;}
	.st10{fill:#75A5C3;}
	.st11{fill:none;}
	.st12{fill:#3CB48C;}
	.st13{clip-path:url(#SVGID_00000016775318197596038990000005314996655692471469_);}
	.st14{fill:#667683;}
	.st15{fill:#FFC8BE;}
	.st16{fill:#FDE4DD;}
	.st17{fill:#B29D90;}
	.st18{fill:#6ADAF7;}
	.st19{clip-path:url(#SVGID_00000163785427906325288450000017015379829162719149_);}
	.st20{fill:#747A94;}
	.st21{fill:#FFAC0B;}
	.st22{fill:#F5DCC8;}
	.st23{fill:#FF987A;}
	.st24{fill:#FFF5E6;}
</style>
<g>
	<g>
		<g>
			<path class="st0" d="M23.75,371.48c-3.86,0-7-3.14-7-7v-182c0-3.86,3.14-7,7-7h122c0.8,0,1.56,0.32,2.12,0.88l24,24
				c0.56,0.56,0.88,1.33,0.88,2.12v162c0,3.86-3.14,7-7,7H23.75z"/>
		</g>
		<g>
			<path class="st1" d="M145.75,178.48l24,24v162c0,2.21-1.79,4-4,4h-142c-2.21,0-4-1.79-4-4v-182c0-2.21,1.79-4,4-4H145.75
				 M145.75,172.48h-122c-5.51,0-10,4.49-10,10v182c0,5.51,4.49,10,10,10h142c5.51,0,10-4.49,10-10v-162c0-1.59-0.63-3.12-1.76-4.24
				l-24-24C148.86,173.11,147.34,172.48,145.75,172.48L145.75,172.48z"/>
		</g>
	</g>
	<g>
		<g>
			<path class="st2" d="M150.55,205.48c-4.3,0-7.8-3.5-7.8-7.8v-19.2c0-1.21,0.73-2.31,1.85-2.77c0.37-0.15,0.76-0.23,1.15-0.23
				c0.78,0,1.55,0.3,2.12,0.88l24,24c0.86,0.86,1.12,2.15,0.65,3.27c-0.46,1.12-1.56,1.85-2.77,1.85H150.55z"/>
		</g>
		<g>
			<path class="st1" d="M145.75,178.48l24,24h-19.2c-2.65,0-4.8-2.15-4.8-4.8V178.48 M145.74,172.48c-0.77,0-1.55,0.15-2.29,0.46
				c-2.24,0.93-3.7,3.12-3.7,5.54v19.2c0,5.96,4.84,10.8,10.8,10.8h19.2c2.43,0,4.61-1.46,5.54-3.7c0.93-2.24,0.42-4.82-1.3-6.54
				l-24-24C148.84,173.09,147.31,172.48,145.74,172.48L145.74,172.48z"/>
		</g>
	</g>
	<g>
		<g>
			<g>
				<path class="st1" d="M107.25,232.08c-0.71,0-1.4-0.38-1.76-1.05c-0.52-0.97-0.16-2.19,0.82-2.71c3.05-1.64,7.84-1.64,10.89,0
					c0.97,0.52,1.34,1.73,0.82,2.71c-0.52,0.97-1.74,1.34-2.71,0.82c-1.89-1.02-5.21-1.02-7.11,0
					C107.89,232,107.57,232.08,107.25,232.08z"/>
			</g>
			<g>
				<g>
					<circle class="st1" cx="111.75" cy="221.33" r="8"/>
				</g>
				<g>
					<circle class="st0" cx="113.75" cy="221.33" r="2"/>
				</g>
			</g>
			<g>
				<path class="st1" d="M105.89,205.01c3.68-3.11,9.49-3.68,13.48-0.8c1.83,1.3,4.9,4.78,2.04,6.4c-0.73,0.35-1.49,0.16-2.13-0.21
					c-3.12-1.93-6.26-2.5-9.86-2.01c-0.77,0.07-1.51,0.18-2.23,0.14C105.35,208.56,104.49,206.15,105.89,205.01L105.89,205.01z"/>
			</g>
			<g>
				<path class="st1" d="M73.25,232.08c-0.71,0-1.4-0.38-1.76-1.05c-0.52-0.97-0.16-2.19,0.82-2.71c3.06-1.64,7.84-1.64,10.89,0
					c0.97,0.52,1.34,1.73,0.82,2.71c-0.52,0.97-1.74,1.34-2.71,0.82c-1.89-1.02-5.21-1.02-7.11,0
					C73.89,232,73.57,232.08,73.25,232.08z"/>
			</g>
			<g>
				<g>
					<circle class="st1" cx="77.75" cy="221.33" r="8"/>
				</g>
				<g>
					<circle class="st0" cx="79.75" cy="221.33" r="2"/>
				</g>
			</g>
			<g>
				<path class="st1" d="M81.7,208.53c-2.9-0.28-6.02-0.65-8.74,0.51c-0.95,0.32-2.01,1.02-3.12,1.54c-1.68,0.88-3.57-1-2.75-2.67
					c1.9-4.63,7.88-6.6,12.45-5.07c1.95,0.65,6.2,2.34,4.3,4.99C83.3,208.49,82.47,208.57,81.7,208.53L81.7,208.53z"/>
			</g>
		</g>
	</g>
	<g>
		<circle class="st3" cx="53.75" cy="228.98" r="2.5"/>
	</g>
	<g>
		<circle class="st3" cx="59.25" cy="239.98" r="2.5"/>
	</g>
	<g>
		<circle class="st3" cx="48.25" cy="239.98" r="2.5"/>
	</g>
	<g>
		<circle class="st3" cx="135.75" cy="228.98" r="2.5"/>
	</g>
	<g>
		<circle class="st3" cx="141.25" cy="239.98" r="2.5"/>
	</g>
	<g>
		<circle class="st3" cx="130.25" cy="239.98" r="2.5"/>
	</g>
	<g>
		<g>
			<path class="st1" d="M101.75,296.98c-0.67,0-1.34-0.27-1.83-0.8l-13-14c-0.94-1.01-0.88-2.59,0.13-3.53
				c1.01-0.94,2.59-0.88,3.53,0.13l13,14c0.94,1.01,0.88,2.59-0.13,3.53C102.97,296.76,102.35,296.98,101.75,296.98z"/>
		</g>
		<g>
			<path class="st1" d="M87.75,296.98c-0.64,0-1.28-0.24-1.77-0.73c-0.98-0.98-0.98-2.56,0-3.54l14-14c0.98-0.98,2.56-0.98,3.54,0
				c0.98,0.98,0.98,2.56,0,3.54l-14,14C89.03,296.74,88.39,296.98,87.75,296.98z"/>
		</g>
	</g>
	<g>
		<g>
			<path class="st1" d="M77.75,299.98c-0.64,0-1.28-0.24-1.77-0.73l-14-14c-0.98-0.98-0.98-2.56,0-3.54c0.98-0.98,2.56-0.98,3.54,0
				l14,14c0.98,0.98,0.98,2.56,0,3.54C79.03,299.74,78.39,299.98,77.75,299.98z"/>
		</g>
		<g>
			<path class="st1" d="M64.75,299.98c-0.61,0-1.22-0.22-1.7-0.67c-1.01-0.94-1.07-2.52-0.13-3.53l13-14
				c0.94-1.01,2.52-1.07,3.53-0.13c1.01,0.94,1.07,2.52,0.13,3.53l-13,14C66.08,299.71,65.42,299.98,64.75,299.98z"/>
		</g>
	</g>
	<g>
		<g>
			<path class="st1" d="M55.06,269.27c-0.43,0-0.86-0.11-1.26-0.34l-15.86-9.3c-1.19-0.7-1.59-2.23-0.89-3.42
				c0.7-1.19,2.23-1.59,3.42-0.89l15.86,9.3c1.19,0.7,1.59,2.23,0.89,3.42C56.76,268.83,55.92,269.27,55.06,269.27z"/>
		</g>
		<g>
			<path class="st1" d="M42.74,273.52c-0.43,0-0.86-0.11-1.26-0.34c-1.19-0.7-1.59-2.23-0.89-3.42l10.01-17.08
				c0.7-1.19,2.23-1.59,3.42-0.89c1.19,0.7,1.59,2.23,0.89,3.42L44.9,272.29C44.43,273.08,43.6,273.52,42.74,273.52z"/>
		</g>
	</g>
	<g>
		<g>
			<path class="st1" d="M148.64,269.55c-0.58,0-1.17-0.2-1.64-0.62l-13.85-12.09c-1.04-0.91-1.15-2.49-0.24-3.53
				c0.91-1.04,2.49-1.15,3.53-0.24l13.85,12.09c1.04,0.91,1.15,2.49,0.24,3.53C150.03,269.26,149.33,269.55,148.64,269.55z"/>
		</g>
		<g>
			<path class="st1" d="M134.67,270.5c-0.58,0-1.17-0.2-1.64-0.62c-1.04-0.91-1.15-2.49-0.24-3.53l13.02-14.92
				c0.91-1.04,2.49-1.15,3.53-0.24c1.04,0.91,1.15,2.49,0.24,3.53l-13.02,14.92C136.06,270.21,135.37,270.5,134.67,270.5z"/>
		</g>
	</g>
	<g>
		<g>
			<path class="st1" d="M124.75,298.98c-0.67,0-1.34-0.27-1.83-0.8l-13-14c-0.94-1.01-0.88-2.59,0.13-3.53
				c1.01-0.94,2.59-0.88,3.53,0.13l13,14c0.94,1.01,0.88,2.59-0.13,3.53C125.97,298.76,125.35,298.98,124.75,298.98z"/>
		</g>
		<g>
			<path class="st1" d="M111.75,298.98c-0.64,0-1.28-0.24-1.77-0.73c-0.98-0.98-0.98-2.56,0-3.54l14-14c0.98-0.98,2.56-0.98,3.54,0
				c0.98,0.98,0.98,2.56,0,3.54l-14,14C113.03,298.74,112.39,298.98,111.75,298.98z"/>
		</g>
	</g>
	<g>
		<path class="st1" d="M110.75,324.98c-5.79,0-10.5-4.71-10.5-10.5s4.71-10.5,10.5-10.5s10.5,4.71,10.5,10.5
			S116.54,324.98,110.75,324.98z M110.75,308.98c-3.03,0-5.5,2.47-5.5,5.5s2.47,5.5,5.5,5.5s5.5-2.47,5.5-5.5
			S113.78,308.98,110.75,308.98z"/>
	</g>
	<g>
		<path class="st1" d="M97.75,359.98c-5.79,0-10.5-4.71-10.5-10.5s4.71-10.5,10.5-10.5s10.5,4.71,10.5,10.5
			S103.54,359.98,97.75,359.98z M97.75,343.98c-3.03,0-5.5,2.47-5.5,5.5s2.47,5.5,5.5,5.5s5.5-2.47,5.5-5.5
			S100.78,343.98,97.75,343.98z"/>
	</g>
	<g>
		<path class="st1" d="M83.75,323.98c-5.79,0-10.5-4.71-10.5-10.5s4.71-10.5,10.5-10.5s10.5,4.71,10.5,10.5
			S89.54,323.98,83.75,323.98z M83.75,307.98c-3.03,0-5.5,2.47-5.5,5.5s2.47,5.5,5.5,5.5s5.5-2.47,5.5-5.5
			S86.78,307.98,83.75,307.98z"/>
	</g>
	<g>
		<path class="st1" d="M142.75,325.98c-5.79,0-10.5-4.71-10.5-10.5s4.71-10.5,10.5-10.5s10.5,4.71,10.5,10.5
			S148.54,325.98,142.75,325.98z M142.75,309.98c-3.03,0-5.5,2.47-5.5,5.5s2.47,5.5,5.5,5.5s5.5-2.47,5.5-5.5
			S145.78,309.98,142.75,309.98z"/>
	</g>
	<g>
		<path class="st1" d="M56.75,327.98c-5.79,0-10.5-4.71-10.5-10.5s4.71-10.5,10.5-10.5s10.5,4.71,10.5,10.5
			S62.54,327.98,56.75,327.98z M56.75,311.98c-3.03,0-5.5,2.47-5.5,5.5s2.47,5.5,5.5,5.5s5.5-2.47,5.5-5.5
			S59.78,311.98,56.75,311.98z"/>
	</g>
	<g>
		<path class="st1" d="M67.75,353.98c-5.79,0-10.5-4.71-10.5-10.5s4.71-10.5,10.5-10.5s10.5,4.71,10.5,10.5
			S73.54,353.98,67.75,353.98z M67.75,337.98c-3.03,0-5.5,2.47-5.5,5.5s2.47,5.5,5.5,5.5s5.5-2.47,5.5-5.5
			S70.78,337.98,67.75,337.98z"/>
	</g>
	<g>
		<g>
			<path class="st4" d="M56.08,303.2c-1.15,0-2.18-0.8-2.44-1.97l-5.14-23.44c-0.3-1.35,0.56-2.68,1.91-2.98
				c1.35-0.29,2.68,0.56,2.98,1.91l5.14,23.44c0.3,1.35-0.56,2.68-1.91,2.98C56.43,303.18,56.25,303.2,56.08,303.2z"/>
		</g>
		<g>
			<path class="st4" d="M44.1,281.25c-1.15,0-2.18-0.8-2.44-1.97c-0.3-1.35,0.56-2.68,1.91-2.98l13.68-3
				c1.35-0.29,2.68,0.56,2.98,1.91c0.3,1.35-0.56,2.68-1.91,2.98l-13.68,3C44.46,281.23,44.28,281.25,44.1,281.25z"/>
		</g>
	</g>
	<g>
		<g>
			<path class="st4" d="M143,301.92c-1.33,0-2.44-1.05-2.5-2.39l-1.02-23.98c-0.06-1.38,1.01-2.55,2.39-2.6
				c1.38-0.04,2.55,1.01,2.6,2.39l1.02,23.98c0.06,1.38-1.01,2.55-2.39,2.6C143.07,301.92,143.03,301.92,143,301.92z"/>
		</g>
		<g>
			<path class="st4" d="M134.98,278.24c-1.33,0-2.44-1.05-2.5-2.39c-0.06-1.38,1.01-2.55,2.39-2.6l13.99-0.6
				c1.37-0.04,2.55,1.01,2.6,2.39c0.06,1.38-1.01,2.55-2.39,2.6l-13.99,0.6C135.06,278.24,135.02,278.24,134.98,278.24z"/>
		</g>
	</g>
	<g>
		<g>
			<path class="st5" d="M51.24,342.34c-0.34,0-0.69-0.07-1.02-0.22L49,341.57c-7.95-3.54-21.27-9.46-22.95-21.02
				c-1.27-8.69,4.29-18.22,17-29.11c1.05-0.9,2.63-0.78,3.52,0.27c0.9,1.05,0.78,2.63-0.27,3.53c-11.15,9.55-16.3,17.83-15.31,24.59
				c1.29,8.83,13.03,14.05,20.04,17.17l1.24,0.55c1.26,0.57,1.82,2.05,1.26,3.31C53.11,341.79,52.2,342.34,51.24,342.34z"/>
		</g>
		<g>
			<path class="st5" d="M44.15,307.56c-0.04,0-0.08,0-0.11,0c-1.38-0.06-2.45-1.23-2.39-2.61l0.4-8.92l-9.76,0.65
				c-1.38,0.1-2.57-0.95-2.66-2.33c-0.09-1.38,0.95-2.57,2.33-2.66l12.55-0.83c0.71-0.05,1.41,0.21,1.91,0.71
				c0.51,0.5,0.78,1.19,0.75,1.9l-0.53,11.71C46.59,306.51,45.48,307.56,44.15,307.56z"/>
		</g>
	</g>
	<g>
		<path class="st1" d="M112.75,235.48L112.75,235.48H76.75c-2.76,0-5,2.24-5,5c0,12.68,10.32,23,23,23c12.62,0,22.9-10.22,23-22.82
			c0-0.06,0-0.12,0-0.18C117.75,237.72,115.51,235.48,112.75,235.48z"/>
		<g>
			<g>
				<ellipse class="st6" cx="94.75" cy="252.48" rx="13.39" ry="6"/>
			</g>
		</g>
	</g>
	<g>
		<g>
			<path class="st5" d="M133.18,341.22c-0.05,0-0.09,0-0.14,0c-1.38-0.08-2.44-1.25-2.36-2.63l0.49-8.92l-9.77,0.55
				c-1.37,0.09-2.56-0.98-2.64-2.36s0.98-2.56,2.36-2.64l12.56-0.71c0.71-0.04,1.4,0.22,1.91,0.73c0.5,0.5,0.77,1.2,0.73,1.91
				l-0.64,11.71C135.6,340.19,134.5,341.22,133.18,341.22z"/>
		</g>
		<g>
			<path class="st5" d="M112.68,345.64c-0.99,0-1.92-0.59-2.31-1.55c-0.52-1.28,0.09-2.74,1.36-3.26l0,0
				c0.11-0.04,11.03-4.62,20.19-15.44c0.89-1.05,2.47-1.19,3.52-0.29c1.05,0.89,1.18,2.47,0.29,3.52
				c-9.99,11.79-21.62,16.63-22.11,16.83C113.31,345.58,112.99,345.64,112.68,345.64z"/>
		</g>
	</g>
	<g>
		<g>
			<g>
				<path class="st7" d="M121.57,381.33c-0.65,0-1.29-0.25-1.77-0.73c-0.73-0.73-0.94-1.83-0.52-2.77l7.78-17.68
					c0.33-0.76,1.02-1.3,1.83-1.45c0.15-0.03,0.31-0.04,0.46-0.04c0.66,0,1.29,0.26,1.77,0.73l9.9,9.9
					c0.58,0.58,0.84,1.42,0.69,2.23c-0.15,0.81-0.7,1.5-1.45,1.83l-17.68,7.78C122.25,381.26,121.91,381.33,121.57,381.33z"/>
			</g>
			<g>
				<path class="st1" d="M129.34,361.15l9.9,9.9l-17.68,7.78L129.34,361.15 M129.34,356.15c-0.31,0-0.62,0.03-0.92,0.09
					c-1.62,0.3-2.99,1.39-3.65,2.9l-7.78,17.68c-0.83,1.89-0.42,4.09,1.04,5.55c0.96,0.96,2.24,1.46,3.54,1.46
					c0.68,0,1.36-0.14,2.01-0.42l17.68-7.78c1.51-0.66,2.6-2.03,2.9-3.65c0.3-1.62-0.21-3.29-1.38-4.46l-9.9-9.9
					C131.93,356.67,130.66,356.15,129.34,356.15L129.34,356.15z"/>
			</g>
		</g>
		<g>
			<polygon class="st1" points="121.57,378.83 123.69,372.46 127.93,376.71 			"/>
		</g>
		<g>
			<g>
				<path class="st8" d="M139.24,373.55c-0.66,0-1.3-0.26-1.77-0.73l-9.9-9.9c-0.98-0.98-0.98-2.56,0-3.54l60.1-60.1
					c0.49-0.49,1.13-0.73,1.77-0.73s1.28,0.24,1.77,0.73l9.9,9.9c0.98,0.98,0.98,2.56,0,3.54l-60.1,60.1
					C140.54,373.29,139.91,373.55,139.24,373.55L139.24,373.55z"/>
			</g>
			<g>
				<path class="st1" d="M189.45,301.05l9.9,9.9l-60.1,60.1l-9.9-9.9L189.45,301.05 M189.45,296.05c-1.33,0-2.6,0.53-3.54,1.46
					l-60.1,60.1c-1.95,1.95-1.95,5.12,0,7.07l9.9,9.9c0.94,0.94,2.21,1.46,3.54,1.46s2.6-0.53,3.54-1.46l60.1-60.1
					c1.95-1.95,1.95-5.12,0-7.07l-9.9-9.9C192.05,296.57,190.77,296.05,189.45,296.05L189.45,296.05z"/>
			</g>
		</g>
		<g>
			
				<rect x="163.32" y="296.02" transform="matrix(0.7071 0.7071 -0.7071 0.7071 288.2327 -18.8092)" class="st9" width="7" height="85"/>
		</g>
		<g>
			<g>
				
					<rect x="194.26" y="290.13" transform="matrix(0.7071 -0.7071 0.7071 0.7071 -153.0663 229.7019)" class="st10" width="13" height="19"/>
			</g>
			<g>
				<path class="st1" d="M198.64,291.85l9.9,9.9l-5.66,5.66l-9.9-9.9L198.64,291.85 M198.64,284.78l-3.54,3.54l-5.66,5.66
					l-3.54,3.54l3.54,3.54l9.9,9.9l3.54,3.54l3.54-3.54l5.66-5.66l3.54-3.54l-3.54-3.54l-9.9-9.9L198.64,284.78L198.64,284.78z"/>
			</g>
		</g>
		<g>
			<g>
				<path class="st6" d="M199.35,288.32l6.37-6.36c0.94-0.94,2.2-1.46,3.54-1.46c1.33,0,2.59,0.52,3.54,1.46l5.66,5.66
					c0.94,0.94,1.46,2.2,1.46,3.54c0,1.33-0.52,2.59-1.46,3.54l-6.36,6.36L199.35,288.32z"/>
			</g>
			<g>
				<path class="st1" d="M209.25,283.49c0.51,0,1.02,0.2,1.41,0.59l5.66,5.66c0.78,0.78,0.78,2.05,0,2.83l-4.24,4.24l-8.49-8.49
					l4.24-4.24C208.22,283.69,208.74,283.49,209.25,283.49 M209.25,277.49c-2.14,0-4.15,0.83-5.66,2.34l-4.24,4.24l-4.24,4.24
					l4.24,4.24l8.49,8.49l4.24,4.24l4.24-4.24l4.24-4.24c3.12-3.12,3.12-8.19,0-11.31l-5.66-5.66
					C213.39,278.32,211.38,277.49,209.25,277.49L209.25,277.49z"/>
			</g>
		</g>
		<g>
			<path class="st1" d="M134.29,368.1c-0.51,0-1.02-0.2-1.41-0.59c-0.78-0.78-0.78-2.05,0-2.83l60.1-60.1
				c0.78-0.78,2.05-0.78,2.83,0c0.78,0.78,0.78,2.05,0,2.83l-60.1,60.1C135.32,367.91,134.81,368.1,134.29,368.1z"/>
		</g>
	</g>
</g>
<g>
	<rect x="1.4" y="0.28" class="st11" width="400" height="400"/>
</g>
<g>
	<g>
		<path class="st8" d="M76.91,124.69c2.98,0,5.4-2.42,5.4-5.4c0-0.99,0.81-1.8,1.8-1.8c0.99,0,1.8,0.81,1.8,1.8
			c0,2.98,2.42,5.4,5.4,5.4c0.99,0,1.8,0.81,1.8,1.8c0,0.99-0.81,1.8-1.8,1.8c-2.98,0-5.4,2.42-5.4,5.4c0,0.99-0.81,1.8-1.8,1.8
			c-0.99,0-1.8-0.81-1.8-1.8c0-2.98-2.42-5.4-5.4-5.4c-0.99,0-1.8-0.81-1.8-1.8C75.11,125.5,75.92,124.69,76.91,124.69z"/>
	</g>
</g>
<g>
	<g>
		<circle class="st8" cx="53.6" cy="78.06" r="3"/>
	</g>
</g>
<g>
	<g>
		<circle class="st8" cx="114.61" cy="40.88" r="3"/>
	</g>
</g>
<g>
	<g>
		<circle class="st8" cx="357.07" cy="93.69" r="3"/>
	</g>
</g>
<g>
	<g>
		<circle class="st8" cx="365.52" cy="37.18" r="3"/>
	</g>
</g>
<g>
	<g>
		<circle class="st8" cx="319.65" cy="55.36" r="3"/>
	</g>
</g>
<g>
	<g>
		<circle class="st8" cx="90.61" cy="88.18" r="3"/>
	</g>
</g>
<g>
	<g>
		<circle class="st8" cx="217.66" cy="218.33" r="3"/>
	</g>
</g>
<g>
	<g>
		<circle class="st8" cx="201.4" cy="369.66" r="3"/>
	</g>
</g>
<g>
	<circle class="st8" cx="82.11" cy="52.88" r="4"/>
</g>
<g>
	<circle class="st8" cx="53.6" cy="110.39" r="4"/>
</g>
<g>
	<circle class="st8" cx="345.48" cy="134.1" r="4"/>
</g>
<g>
	<circle class="st8" cx="184.33" cy="388.66" r="4"/>
</g>
<path class="st8" d="M48.24,49.88h-6v-6c0-1.66-1.34-3-3-3s-3,1.34-3,3v6h-6c-1.66,0-3,1.34-3,3s1.34,3,3,3h6v6c0,1.66,1.34,3,3,3
	s3-1.34,3-3v-6h6c1.66,0,3-1.34,3-3S49.9,49.88,48.24,49.88z"/>
<g>
	<g>
		<path class="st8" d="M213.01,242.17c-2.17,0-3.94-1.77-3.94-3.94c0-0.72-0.59-1.31-1.31-1.31s-1.31,0.59-1.31,1.31
			c0,2.17-1.77,3.94-3.94,3.94c-0.72,0-1.31,0.59-1.31,1.31s0.59,1.31,1.31,1.31c2.17,0,3.94,1.77,3.94,3.94
			c0,0.72,0.59,1.31,1.31,1.31s1.31-0.59,1.31-1.31c0-2.17,1.77-3.94,3.94-3.94c0.72,0,1.31-0.59,1.31-1.31
			S213.73,242.17,213.01,242.17z"/>
	</g>
</g>
<g>
	<g>
		<path class="st8" d="M149.94,55.57c-2.17,0-3.94-1.77-3.94-3.94c0-0.72-0.59-1.31-1.31-1.31s-1.31,0.59-1.31,1.31
			c0,2.17-1.77,3.94-3.94,3.94c-0.72,0-1.31,0.59-1.31,1.31s0.59,1.31,1.31,1.31c2.17,0,3.94,1.77,3.94,3.94
			c0,0.72,0.59,1.31,1.31,1.31s1.31-0.59,1.31-1.31c0-2.17,1.77-3.94,3.94-3.94c0.72,0,1.31-0.59,1.31-1.31
			S150.66,55.57,149.94,55.57z"/>
	</g>
</g>
<g>
	<g>
		<path class="st8" d="M348.84,60.61c-2.17,0-3.94-1.77-3.94-3.94c0-0.72-0.59-1.31-1.31-1.31c-0.72,0-1.31,0.59-1.31,1.31
			c0,2.17-1.77,3.94-3.94,3.94c-0.72,0-1.31,0.59-1.31,1.31s0.59,1.31,1.31,1.31c2.17,0,3.94,1.77,3.94,3.94
			c0,0.72,0.59,1.31,1.31,1.31c0.72,0,1.31-0.59,1.31-1.31c0-2.17,1.77-3.94,3.94-3.94c0.72,0,1.31-0.59,1.31-1.31
			S349.56,60.61,348.84,60.61z"/>
	</g>
</g>
<g>
	<g>
		<circle class="st12" cx="315.46" cy="319.98" r="70"/>
		<path class="st1" d="M315.46,392.98c-40.25,0-73-32.75-73-73s32.75-73,73-73s73,32.75,73,73S355.71,392.98,315.46,392.98z
			 M315.46,252.98c-36.94,0-67,30.06-67,67s30.06,67,67,67s67-30.06,67-67S352.41,252.98,315.46,252.98z"/>
	</g>
	<g>
		<defs>
			<path id="SVGID_1_" d="M385.46,319.98c0-38.66,0-135-70-135s-70,96.34-70,135s31.34,70,70,70S385.46,358.64,385.46,319.98z"/>
		</defs>
		<clipPath id="SVGID_00000150078519901438713120000002370890197103933335_">
			<use xlink:href="#SVGID_1_"  style="overflow:visible;"/>
		</clipPath>
		<g style="clip-path:url(#SVGID_00000150078519901438713120000002370890197103933335_);">
			<g>
				<g>
					<path class="st0" d="M274.46,241.4c-1.66,0-3-1.34-3-3v-3c0-22.06,17.94-40,40-40h2c16.54,0,30,13.46,30,30v13
						c0,1.66-1.34,3-3,3H274.46z"/>
				</g>
				<g>
					<path class="st1" d="M313.46,198.4c14.91,0,27,12.09,27,27v13h-66v-3c0-20.43,16.57-37,37-37H313.46 M313.46,192.4h-2
						c-23.71,0-43,19.29-43,43v3c0,3.31,2.69,6,6,6h66c3.31,0,6-2.69,6-6v-13C346.46,207.2,331.66,192.4,313.46,192.4L313.46,192.4z
						"/>
				</g>
			</g>
			<g>
				<g>
					<path class="st14" d="M239.46,421.4c-1.66,0-3-1.34-3-3v-55.6c0-10.28,6.16-19.48,15.33-22.91l43.62-16.3
						c0.34-0.12,0.69-0.19,1.05-0.19h38c0.36,0,0.71,0.06,1.05,0.19l43.62,16.3c9.17,3.43,15.33,12.63,15.33,22.91v55.6
						c0,1.66-1.34,3-3,3H239.46z"/>
				</g>
				<g>
					<g>
						<path class="st1" d="M334.46,326.4l43.62,16.3c8.01,2.99,13.38,11.05,13.38,20.1v55.6h-152v-55.6c0-9.04,5.36-17.1,13.38-20.1
							l43.62-16.3H334.46 M334.46,320.4h-38c-0.72,0-1.43,0.13-2.1,0.38l-43.62,16.3c-10.33,3.86-17.28,14.2-17.28,25.72v55.6
							c0,3.31,2.69,6,6,6h152c3.31,0,6-2.69,6-6v-55.6c0-11.52-6.94-21.86-17.28-25.72l-43.62-16.3
							C335.89,320.52,335.18,320.4,334.46,320.4L334.46,320.4z"/>
					</g>
				</g>
			</g>
			<g>
				<g>
					<path class="st14" d="M314.96,416.4c-0.47,0-0.95-0.11-1.39-0.34c-1.23-0.64-1.85-2.04-1.52-3.38l15.91-63.66l0.33-28.73
						c0.01-1.16,0.69-2.21,1.75-2.69c0.4-0.18,0.83-0.27,1.25-0.27c0.69,0,1.38,0.24,1.93,0.7l28.66,24.08
						c0.64,0.54,1.03,1.33,1.07,2.17s-0.28,1.66-0.88,2.25l-15.76,15.76l7.65,6.88c1.22,1.1,1.33,2.98,0.24,4.21l-37,42
						C316.63,416.04,315.8,416.4,314.96,416.4z"/>
				</g>
				<g>
					<g>
						<path class="st1" d="M331.3,320.31l28.66,24.09l-18,18l10,9l-37,42l16-64L331.3,320.31 M331.3,314.31
							c-0.85,0-1.7,0.18-2.5,0.55c-2.11,0.97-3.47,3.06-3.5,5.38l-0.33,28.38l-15.83,63.32c-0.67,2.68,0.58,5.48,3.03,6.77
							c0.88,0.46,1.84,0.69,2.79,0.69c1.68,0,3.33-0.71,4.5-2.03l37-42c2.17-2.47,1.96-6.23-0.49-8.43l-5.3-4.77l13.53-13.53
							c1.19-1.19,1.82-2.82,1.75-4.5c-0.07-1.68-0.85-3.25-2.13-4.33l-28.66-24.09C334.06,314.79,332.68,314.31,331.3,314.31
							L331.3,314.31z"/>
					</g>
				</g>
			</g>
			<g>
				<g>
					<path class="st14" d="M315.96,416.4c-0.84,0-1.67-0.35-2.25-1.02l-37-42c-1.09-1.23-0.98-3.11,0.24-4.21l7.65-6.88
						l-15.76-15.76c-0.59-0.59-0.91-1.41-0.88-2.25s0.42-1.63,1.07-2.17l28.66-24.08c0.55-0.46,1.24-0.7,1.93-0.7
						c0.42,0,0.85,0.09,1.25,0.27c1.05,0.48,1.74,1.53,1.75,2.69l0.33,28.73l15.91,63.66c0.34,1.34-0.29,2.74-1.52,3.38
						C316.92,416.28,316.44,416.4,315.96,416.4z"/>
				</g>
				<g>
					<g>
						<path class="st1" d="M299.63,320.31l0.34,29.09l16,64l-37-42l10-9l-18-18L299.63,320.31 M299.63,314.31
							c-1.39,0-2.76,0.48-3.86,1.41L267.1,339.8c-1.29,1.08-2.06,2.65-2.13,4.33c-0.07,1.68,0.56,3.31,1.75,4.5l13.53,13.53
							l-5.3,4.77c-2.44,2.2-2.66,5.96-0.49,8.43l37,42c1.17,1.33,2.82,2.03,4.5,2.03c0.95,0,1.9-0.22,2.79-0.69
							c2.45-1.29,3.7-4.08,3.03-6.77l-15.83-63.32l-0.33-28.38c-0.03-2.32-1.39-4.42-3.5-5.38
							C301.33,314.49,300.48,314.31,299.63,314.31L299.63,314.31z"/>
					</g>
				</g>
			</g>
			<g>
				<g>
					<path class="st2" d="M315.46,409.4c-1.33,0-2.5-0.87-2.88-2.15l-16-54c-0.08-0.28-0.12-0.56-0.12-0.85v-64c0-1.66,1.34-3,3-3
						h32c1.66,0,3,1.34,3,3v64c0,0.29-0.04,0.58-0.12,0.85l-16,54C317.96,408.52,316.79,409.4,315.46,409.4z"/>
				</g>
				<g>
					<g>
						<path class="st1" d="M331.46,288.4v64l-16,54l-16-54v-64H331.46 M331.46,282.4h-32c-3.31,0-6,2.69-6,6v64
							c0,0.58,0.08,1.15,0.25,1.7l16,54c0.75,2.55,3.1,4.3,5.75,4.3s5-1.75,5.75-4.3l16-54c0.16-0.55,0.25-1.13,0.25-1.7v-64
							C337.46,285.08,334.78,282.4,331.46,282.4L331.46,282.4z"/>
					</g>
				</g>
			</g>
			<g>
				<g>
					<path class="st6" d="M315.46,406.4c-1.33,0-2.5-0.88-2.87-2.15l-7.68-26c-0.15-0.5-0.16-1.03-0.04-1.53l4.68-20
						c0.32-1.36,1.53-2.32,2.92-2.32h6c1.39,0,2.6,0.95,2.92,2.31l4.75,20c0.12,0.51,0.11,1.05-0.04,1.55l-7.75,26
						C317.96,405.52,316.79,406.4,315.46,406.4C315.46,406.4,315.46,406.4,315.46,406.4z"/>
				</g>
				<g>
					<path class="st1" d="M318.46,357.4l4.75,20l-7.75,26l-7.68-26l4.68-20H318.46 M318.46,351.4h-6c-2.79,0-5.21,1.92-5.84,4.63
						l-4.68,20c-0.24,1.01-0.21,2.07,0.09,3.07l7.68,26c0.75,2.55,3.09,4.3,5.75,4.3c0,0,0.01,0,0.01,0c2.65,0,4.99-1.74,5.75-4.29
						l7.75-26c0.3-1.01,0.33-2.08,0.09-3.1l-4.75-20C323.66,353.3,321.24,351.4,318.46,351.4L318.46,351.4z"/>
				</g>
			</g>
			<g>
				<g>
					<path class="st6" d="M311.46,356.4c-1.14,0-2.17-0.64-2.68-1.66l-4-8c-0.48-0.96-0.41-2.11,0.19-3.01l8-12
						c0.56-0.83,1.49-1.34,2.5-1.34s1.94,0.5,2.5,1.34l8,12c0.6,0.9,0.67,2.04,0.19,3.01l-4,8c-0.51,1.02-1.55,1.66-2.68,1.66
						H311.46z"/>
				</g>
				<g>
					<path class="st1" d="M315.46,333.4l8,12l-4,8h-8l-4-8L315.46,333.4 M315.46,327.4c-2.01,0-3.88,1-4.99,2.67l-8,12
						c-1.19,1.79-1.34,4.09-0.37,6.01l4,8c1.02,2.03,3.09,3.32,5.37,3.32h8c2.27,0,4.35-1.28,5.37-3.32l4-8
						c0.96-1.93,0.82-4.22-0.37-6.01l-8-12C319.34,328.4,317.47,327.4,315.46,327.4L315.46,327.4z"/>
				</g>
			</g>
			<g>
				<g>
					<path class="st0" d="M331.46,346.4c-0.55,0-1.1-0.15-1.59-0.46l-16-10c-0.88-0.55-1.41-1.51-1.41-2.54v-14c0-1.66,1.34-3,3-3
						h16c1.66,0,3,1.34,3,3v24c0,1.09-0.59,2.1-1.55,2.62C332.46,346.27,331.96,346.4,331.46,346.4z"/>
				</g>
				<g>
					<path class="st1" d="M331.46,319.4v24l-16-10v-14H331.46 M331.46,313.4h-16c-3.31,0-6,2.69-6,6v14c0,2.07,1.07,3.99,2.82,5.09
						l16,10c0.97,0.61,2.07,0.91,3.18,0.91c1,0,2-0.25,2.91-0.75c1.91-1.06,3.09-3.07,3.09-5.25v-24
						C337.46,316.08,334.78,313.4,331.46,313.4L331.46,313.4z"/>
				</g>
			</g>
			<g>
				<g>
					<path class="st0" d="M299.46,346.4c-0.5,0-1-0.12-1.45-0.38c-0.95-0.53-1.55-1.53-1.55-2.62v-24c0-1.66,1.34-3,3-3h16
						c1.66,0,3,1.34,3,3v14c0,1.03-0.53,2-1.41,2.54l-16,10C300.57,346.24,300.02,346.4,299.46,346.4z"/>
				</g>
				<g>
					<path class="st1" d="M315.46,319.4v14l-16,10v-24H315.46 M315.46,313.4h-16c-3.31,0-6,2.69-6,6v24c0,2.18,1.18,4.19,3.09,5.25
						c0.91,0.5,1.91,0.75,2.91,0.75c1.11,0,2.21-0.31,3.18-0.91l16-10c1.75-1.1,2.82-3.02,2.82-5.09v-14
						C321.46,316.08,318.78,313.4,315.46,313.4L315.46,313.4z"/>
				</g>
			</g>
			<g>
				<g>
					<path class="st15" d="M315.46,335.4c-0.63,0-1.27-0.2-1.8-0.6l-16-12c-0.76-0.57-1.2-1.46-1.2-2.4v-32c0-1.66,1.34-3,3-3h32
						c1.66,0,3,1.34,3,3v32c0,0.94-0.44,1.83-1.2,2.4l-16,12C316.73,335.2,316.1,335.4,315.46,335.4z"/>
				</g>
				<g>
					<g>
						<path class="st1" d="M331.46,288.4v32l-16,12l-16-12v-32H331.46 M331.46,282.4h-32c-3.31,0-6,2.69-6,6v32
							c0,1.89,0.89,3.67,2.4,4.8l16,12c1.07,0.8,2.33,1.2,3.6,1.2c1.27,0,2.53-0.4,3.6-1.2l16-12c1.51-1.13,2.4-2.91,2.4-4.8v-32
							C337.46,285.08,334.78,282.4,331.46,282.4L331.46,282.4z"/>
					</g>
				</g>
			</g>
			<g>
				<g>
					<path class="st0" d="M323.46,279.4c-1.66,0-3-1.34-3-3v-50c0-1.66,1.34-3,3-3h22c11.58,0,21,9.42,21,21v2c0,18.2-14.8,33-33,33
						H323.46z"/>
				</g>
				<g>
					<path class="st1" d="M345.46,226.4c9.94,0,18,8.06,18,18v2c0,16.57-13.43,30-30,30h-10v-50H345.46 M345.46,220.4h-22
						c-3.31,0-6,2.69-6,6v50c0,3.31,2.69,6,6,6h10c19.85,0,36-16.15,36-36v-2C369.46,231.16,358.7,220.4,345.46,220.4L345.46,220.4z
						"/>
				</g>
			</g>
			<g>
				<g>
					<path class="st0" d="M297.46,279.4c-18.2,0-33-14.8-33-33v-2c0-11.58,9.42-21,21-21h12c1.66,0,3,1.34,3,3v50
						C300.46,278.05,299.12,279.4,297.46,279.4z"/>
				</g>
				<g>
					<path class="st1" d="M297.46,226.4v50h0c-16.57,0-30-13.43-30-30v-2c0-9.94,8.06-18,18-18H297.46 M297.46,220.4h-12
						c-13.23,0-24,10.77-24,24v2c0,19.85,16.15,36,36,36c3.31,0,6-2.69,6-6l0-50c0-1.59-0.63-3.12-1.76-4.24
						C300.58,221.03,299.05,220.4,297.46,220.4L297.46,220.4z"/>
				</g>
			</g>
			<g>
				<g>
					<path class="st15" d="M274.46,292.4c-7.17,0-13-5.83-13-13v-2c0-7.17,5.83-13,13-13c1.66,0,3,1.34,3,3v22
						C277.46,291.05,276.12,292.4,274.46,292.4z"/>
				</g>
				<g>
					<g>
						<path class="st1" d="M274.46,267.4v22h0c-5.52,0-10-4.48-10-10v-2C264.46,271.87,268.94,267.4,274.46,267.4L274.46,267.4
							 M274.46,261.4c-8.82,0-16,7.18-16,16v2c0,8.82,7.18,16,16,16c3.31,0,6-2.69,6-6l0-22c0-1.59-0.63-3.12-1.76-4.24
							C277.58,262.03,276.05,261.4,274.46,261.4L274.46,261.4z"/>
					</g>
				</g>
			</g>
			<g>
				<g>
					<path class="st16" d="M356.46,292.4c-1.66,0-3-1.34-3-3v-22c0-1.66,1.34-3,3-3c7.17,0,13,5.83,13,13v2
						C369.46,286.56,363.63,292.4,356.46,292.4z"/>
				</g>
				<g>
					<g>
						<path class="st1" d="M356.46,267.4c5.52,0,10,4.48,10,10v2c0,5.52-4.48,10-10,10V267.4 M356.46,261.4c-3.31,0-6,2.69-6,6v22
							c0,3.31,2.69,6,6,6c8.82,0,16-7.18,16-16v-2C372.46,268.57,365.29,261.4,356.46,261.4L356.46,261.4z"/>
					</g>
				</g>
			</g>
			<g>
				<g>
					<path class="st16" d="M315.46,321.4c-22.61,0-41-18.39-41-41v-26c0-22.61,18.39-41,41-41s41,18.39,41,41v26
						C356.46,303,338.07,321.4,315.46,321.4z"/>
				</g>
				<g>
					<path class="st1" d="M315.46,216.4c20.99,0,38,17.01,38,38v26c0,20.99-17.01,38-38,38h0c-20.99,0-38-17.01-38-38v-26
						C277.46,233.41,294.48,216.4,315.46,216.4L315.46,216.4 M315.46,210.4c-24.26,0-44,19.74-44,44v26c0,24.26,19.74,44,44,44
						c24.26,0,44-19.74,44-44v-26C359.46,230.13,339.72,210.4,315.46,210.4L315.46,210.4z"/>
				</g>
			</g>
			<g>
				<path class="st15" d="M285.46,280.4v-26c0-19.64,14.89-35.79,34-37.79c-1.31-0.14-2.65-0.21-4-0.21c-20.99,0-38,17.01-38,38v26
					c0,20.99,17.01,38,38,38c1.35,0,2.69-0.07,4-0.21C300.36,316.19,285.46,300.03,285.46,280.4z"/>
			</g>
			<g>
				<line class="st17" x1="366.46" y1="384.4" x2="366.46" y2="418.4"/>
				<path class="st1" d="M366.46,421.4c-1.66,0-3-1.34-3-3v-34c0-1.66,1.34-3,3-3s3,1.34,3,3v34
					C369.46,420.05,368.12,421.4,366.46,421.4z"/>
			</g>
			<g>
				<line class="st17" x1="264.46" y1="384.4" x2="264.46" y2="418.4"/>
				<path class="st1" d="M264.46,421.4c-1.66,0-3-1.34-3-3v-34c0-1.66,1.34-3,3-3s3,1.34,3,3v34
					C267.46,420.05,266.12,421.4,264.46,421.4z"/>
			</g>
			<g>
				<g>
					<path class="st15" d="M322.46,277.4c0,3.87-3.13,7-7,7h0c-3.87,0-7-3.13-7-7H322.46z"/>
				</g>
				<g>
					<path class="st1" d="M315.46,286.9c-5.24,0-9.5-4.26-9.5-9.5v-13c0-1.38,1.12-2.5,2.5-2.5s2.5,1.12,2.5,2.5v13
						c0,2.48,2.02,4.5,4.5,4.5s4.5-2.02,4.5-4.5v-13c0-1.38,1.12-2.5,2.5-2.5s2.5,1.12,2.5,2.5v13
						C324.96,282.63,320.7,286.9,315.46,286.9z"/>
				</g>
			</g>
			<g>
				<path class="st1" d="M315.85,297.4c-5.55,0-11.24-1.04-16.17-3.14c-1.02-0.43-1.49-1.61-1.06-2.62c0.43-1.02,1.6-1.49,2.62-1.06
					c8.78,3.73,20.7,3.73,28.34,0.01c1-0.49,2.19-0.07,2.67,0.92c0.48,0.99,0.07,2.19-0.92,2.67
					C326.95,296.33,321.47,297.4,315.85,297.4z"/>
			</g>
			<g>
				<path class="st1" d="M308.46,268.4c-0.5,0-1-0.18-1.38-0.56c-0.8-0.76-0.82-2.03-0.06-2.83c4.57-4.77,11.63-4.82,16.79-0.13
					c0.82,0.74,0.88,2.01,0.13,2.83c-0.74,0.82-2.01,0.88-2.83,0.13c-3.54-3.23-8.15-3.25-11.21-0.06
					C309.51,268.19,308.99,268.4,308.46,268.4z"/>
			</g>
			<g>
				<path class="st1" d="M335.93,294.43c-0.14,0-0.29-0.01-0.43-0.05c-6.86-1.5-11.81-7.58-14.16-11.07
					c-0.62-0.92-0.37-2.16,0.54-2.78c0.92-0.62,2.16-0.37,2.78,0.54c3.42,5.09,7.68,8.52,11.69,9.4c1.08,0.24,1.76,1.3,1.53,2.38
					C337.68,293.79,336.85,294.43,335.93,294.43z"/>
			</g>
			<g>
				<path class="st1" d="M295,294.43c-0.92,0-1.75-0.64-1.95-1.57c-0.24-1.08,0.45-2.15,1.53-2.38c4.01-0.88,8.27-4.3,11.69-9.4
					c0.62-0.92,1.86-1.16,2.78-0.54c0.92,0.62,1.16,1.86,0.54,2.78c-2.35,3.49-7.3,9.57-14.16,11.07
					C295.28,294.42,295.14,294.43,295,294.43z"/>
			</g>
			<g>
				<g>
					<path class="st1" d="M311.67,302.17c2.47,0.57,5.1,0.59,7.57,0c1.27-0.35,2.15,1.33,1.18,2.18c-0.77,0.76-1.77,1.54-2.78,1.78
						c-2.16,0.62-4.6,0.39-6.39-1.11c0,0-0.74-0.66-0.74-0.66C309.52,303.5,310.43,301.83,311.67,302.17L311.67,302.17z"/>
				</g>
			</g>
			<g>
				<g>
					<path class="st1" d="M355.73,216.42c-3.49,0.43-6.12,2.12-7.83,5.11c-0.75,1.23-2.72,0.47-2.45-0.93
						c0.41-4.95,5.7-8.32,10.38-6.79C357.24,214.12,357.14,216.23,355.73,216.42L355.73,216.42z"/>
				</g>
			</g>
			<g>
				<path class="st0" d="M326.94,251.89c3.48-3.49,9.37-4.6,13.7-2c1.93,1.13,5.41,4.42,2.68,6.28c-0.71,0.42-1.49,0.3-2.16-0.04
					c-2.02-0.91-3.56-1.6-5.68-1.67c-2-0.15-4.33,0.39-6.32,0.77c0,0-0.58,0.06-0.58,0.06
					C326.74,255.51,325.63,253.15,326.94,251.89L326.94,251.89z"/>
			</g>
			<g>
				<path class="st0" d="M301.77,255.22c-2.96-0.59-6.15-1.26-9.06-0.28c-1.01,0.25-2.14,0.89-3.31,1.35
					c-1.75,0.76-3.51-1.29-2.54-2.9c3.28-6.17,12.55-6.31,17.12-1.5c1.33,1.25,0.16,3.64-1.62,3.39
					C302.36,255.28,301.77,255.22,301.77,255.22L301.77,255.22z"/>
			</g>
			<g>
				<path class="st2" d="M300.96,273.4h-10c-4.42,0-8-3.58-8-8v-2c0-3.31,2.69-6,6-6h14c3.31,0,6,2.69,6,6v2
					C308.96,269.81,305.38,273.4,300.96,273.4z"/>
				<path class="st1" d="M300.96,275.4h-10c-5.51,0-10-4.49-10-10v-2c0-4.41,3.59-8,8-8h14c4.41,0,8,3.59,8,8v2
					C310.96,270.91,306.48,275.4,300.96,275.4z M288.96,259.4c-2.21,0-4,1.79-4,4v2c0,3.31,2.69,6,6,6h10c3.31,0,6-2.69,6-6v-2
					c0-2.21-1.79-4-4-4H288.96z"/>
			</g>
			<g>
				<path class="st2" d="M339.96,273.4h-10c-4.42,0-8-3.58-8-8v-2c0-3.31,2.69-6,6-6h14c3.31,0,6,2.69,6,6v2
					C347.96,269.81,344.38,273.4,339.96,273.4z"/>
				<path class="st1" d="M339.96,275.4h-10c-5.51,0-10-4.49-10-10v-2c0-4.41,3.59-8,8-8h14c4.41,0,8,3.59,8,8v2
					C349.96,270.91,345.48,275.4,339.96,275.4z M327.96,259.4c-2.21,0-4,1.79-4,4v2c0,3.31,2.69,6,6,6h10c3.31,0,6-2.69,6-6v-2
					c0-2.21-1.79-4-4-4H327.96z"/>
			</g>
			<g>
				<g>
					<circle class="st1" cx="333.46" cy="265.4" r="5"/>
				</g>
				<g>
					<path class="st2" d="M329.46,268.4c2.21-1.33,5.79-1.33,8,0v3h-7L329.46,268.4z"/>
				</g>
				<g>
					<path class="st1" d="M337.46,270.4c-0.35,0-0.71-0.09-1.03-0.29c-1.58-0.95-4.35-0.95-5.93,0c-0.95,0.57-2.18,0.27-2.75-0.68
						c-0.57-0.95-0.27-2.17,0.68-2.75c2.82-1.71,7.24-1.71,10.07,0c0.95,0.57,1.25,1.8,0.68,2.75
						C338.8,270.05,338.14,270.4,337.46,270.4z"/>
				</g>
				<g>
					<circle class="st0" cx="335.13" cy="264.4" r="1.25"/>
				</g>
			</g>
			<g>
				<g>
					<circle class="st1" cx="297.46" cy="265.4" r="5"/>
				</g>
				<g>
					<path class="st2" d="M293.46,268.4c2.21-1.33,5.79-1.33,8,0l-1,3h-7V268.4z"/>
				</g>
				<g>
					<path class="st1" d="M301.46,270.4c-0.35,0-0.71-0.09-1.03-0.29c-1.58-0.95-4.35-0.95-5.93,0c-0.95,0.57-2.18,0.27-2.75-0.68
						c-0.57-0.95-0.27-2.17,0.68-2.75c2.82-1.71,7.24-1.71,10.07,0c0.95,0.57,1.25,1.8,0.68,2.75
						C302.8,270.05,302.14,270.4,301.46,270.4z"/>
				</g>
				<g>
					<circle class="st0" cx="299.13" cy="264.4" r="1.25"/>
				</g>
			</g>
			<g>
				<path class="st1" d="M309.96,214.95c-0.14,0-0.29-0.02-0.44-0.05c-1.08-0.24-1.75-1.31-1.52-2.38c0.09-0.39,2-9.65-5.97-13.3
					c-1-0.46-1.44-1.65-0.98-2.65c0.46-1,1.65-1.44,2.65-0.98c8.75,4.01,9.19,13.4,8.2,17.81
					C311.71,214.32,310.88,214.95,309.96,214.95z"/>
			</g>
			<g>
				<path class="st1" d="M318.08,215.65c-0.45,0-0.9-0.15-1.27-0.46c-0.85-0.7-0.97-1.96-0.27-2.81c0.26-0.32,6.14-7.71,0.69-14.56
					c-0.69-0.86-0.54-2.12,0.32-2.81c0.86-0.69,2.12-0.54,2.81,0.32c5.99,7.53,2.14,16.11-0.73,19.59
					C319.23,215.4,318.66,215.65,318.08,215.65z"/>
			</g>
			<g>
				<path class="st1" d="M327.13,217.3c-0.61,0-1.21-0.27-1.6-0.79c-0.67-0.88-0.49-2.13,0.39-2.8c0.28-0.22,6.56-5.12,4.78-12
					c-0.28-1.07,0.37-2.16,1.44-2.44c1.07-0.28,2.16,0.37,2.44,1.44c2.45,9.5-5.89,15.92-6.24,16.19
					C327.97,217.17,327.55,217.3,327.13,217.3z"/>
			</g>
			<g>
				<path class="st1" d="M301.43,217.31c-0.99,0-1.84-0.73-1.98-1.73c-0.06-0.41-1.45-9.75-10.18-10.44
					c-1.1-0.09-1.92-1.05-1.84-2.15c0.09-1.1,1.05-1.91,2.15-1.84c9.59,0.76,13.24,9.42,13.83,13.9c0.14,1.1-0.63,2.1-1.72,2.24
					C301.6,217.3,301.51,217.31,301.43,217.31z"/>
			</g>
			<g>
				<path class="st1" d="M294.1,222.08c-0.73,0-1.44-0.41-1.79-1.11c-0.19-0.37-4.53-8.75-13.01-6.57
					c-1.08,0.28-2.16-0.37-2.43-1.44c-0.27-1.07,0.37-2.16,1.44-2.43c9.32-2.39,15.58,4.62,17.59,8.67c0.49,0.99,0.09,2.19-0.9,2.68
					C294.71,222.01,294.4,222.08,294.1,222.08z"/>
			</g>
			<g>
				<path class="st1" d="M265.96,240.12c-0.58,0-1.15-0.25-1.54-0.73c-0.7-0.85-0.58-2.11,0.27-2.82c3.85-3.19,8.5-4.13,13.42-2.71
					c1.06,0.3,1.67,1.41,1.37,2.47c-0.3,1.06-1.41,1.68-2.47,1.37c-3.65-1.05-6.93-0.39-9.76,1.95
					C266.86,239.97,266.41,240.12,265.96,240.12z"/>
			</g>
			<g>
				<path class="st1" d="M263.96,252.12c-0.58,0-1.15-0.25-1.54-0.73c-0.7-0.85-0.58-2.11,0.27-2.82c3.85-3.19,8.5-4.13,13.42-2.71
					c1.06,0.3,1.67,1.41,1.37,2.47c-0.3,1.06-1.41,1.68-2.47,1.37c-3.65-1.05-6.93-0.39-9.76,1.95
					C264.86,251.97,264.41,252.12,263.96,252.12z"/>
			</g>
			<g>
				<path class="st1" d="M364.55,240.12c-0.45,0-0.9-0.15-1.27-0.46c-2.83-2.34-6.12-3-9.76-1.95c-1.06,0.31-2.17-0.31-2.47-1.37
					s0.31-2.17,1.37-2.47c4.93-1.42,9.56-0.48,13.42,2.71c0.85,0.7,0.97,1.96,0.27,2.82C365.7,239.87,365.12,240.12,364.55,240.12z"
					/>
			</g>
			<g>
				<path class="st1" d="M366.55,252.12c-0.45,0-0.9-0.15-1.27-0.46c-2.83-2.34-6.12-3-9.76-1.95c-1.06,0.31-2.17-0.31-2.47-1.37
					c-0.31-1.06,0.31-2.17,1.37-2.47c4.92-1.42,9.56-0.48,13.42,2.71c0.85,0.7,0.97,1.96,0.27,2.82
					C367.7,251.87,367.12,252.12,366.55,252.12z"/>
			</g>
			<g>
				<path class="st1" d="M358.46,266.4h-10c-1.1,0-2-0.9-2-2s0.9-2,2-2h10c1.1,0,2,0.9,2,2S359.57,266.4,358.46,266.4z"/>
			</g>
			<g>
				<path class="st1" d="M330.96,303.9c-0.23,0-0.46-0.04-0.69-0.12c-1.04-0.38-1.57-1.53-1.19-2.57c1.86-5.08,0.21-8.2,0.14-8.33
					c-0.53-0.96-0.19-2.18,0.76-2.71c0.95-0.54,2.15-0.22,2.71,0.72c0.11,0.19,2.69,4.75,0.15,11.7
					C332.54,303.39,331.78,303.9,330.96,303.9z"/>
			</g>
			<g>
				<path class="st1" d="M299.96,303.9c-0.82,0-1.58-0.5-1.88-1.31c-2.54-6.94,0.04-11.5,0.15-11.7c0.56-0.95,1.78-1.28,2.74-0.72
					c0.95,0.55,1.27,1.76,0.73,2.72c-0.09,0.17-1.71,3.27,0.14,8.32c0.38,1.04-0.15,2.19-1.19,2.57
					C300.42,303.86,300.19,303.9,299.96,303.9z"/>
			</g>
			<g>
				<path class="st1" d="M282.46,267.4h-10c-1.1,0-2-0.9-2-2s0.9-2,2-2h10c1.1,0,2,0.9,2,2S283.57,267.4,282.46,267.4z"/>
			</g>
		</g>
	</g>
	<g>
		<path class="st1" d="M315.46,392.98c-40.25,0-73-32.75-73-73h6c0,36.94,30.06,67,67,67s67-30.06,67-67h6
			C388.46,360.23,355.71,392.98,315.46,392.98z"/>
	</g>
</g>
<g>
	<g>
		<circle class="st18" cx="233.95" cy="119.06" r="70"/>
		<path class="st1" d="M233.95,192.06c-40.25,0-73-32.75-73-73s32.75-73,73-73c40.25,0,73,32.75,73,73S274.2,192.06,233.95,192.06z
			 M233.95,52.06c-36.94,0-67,30.06-67,67s30.06,67,67,67c36.94,0,67-30.06,67-67S270.89,52.06,233.95,52.06z"/>
	</g>
	<g>
		<defs>
			<path id="SVGID_00000092414354549141296140000016539146368209182602_" d="M163.95-10.94v130c0,38.66,31.34,70,70,70
				s70-31.34,70-70v-130H163.95z"/>
		</defs>
		<clipPath id="SVGID_00000183952911920944662230000000645669031632705948_">
			<use xlink:href="#SVGID_00000092414354549141296140000016539146368209182602_"  style="overflow:visible;"/>
		</clipPath>
		<g style="clip-path:url(#SVGID_00000183952911920944662230000000645669031632705948_);">
			<g>
				<g>
					<path class="st20" d="M183.95,182.06c-1.66,0-3-1.34-3-3V67.3c0-29.22,23.78-53,53-53s53,23.78,53,53v111.76c0,1.66-1.34,3-3,3
						H183.95z"/>
				</g>
				<g>
					<g>
						<path class="st1" d="M233.95,17.3c27.61,0,50,22.39,50,50v111.76h-100V67.3C183.95,39.68,206.33,17.3,233.95,17.3L233.95,17.3
							 M233.95,11.3c-30.88,0-56,25.12-56,56v111.76c0,3.31,2.69,6,6,6h100c3.31,0,6-2.69,6-6V67.3
							C289.95,36.42,264.83,11.3,233.95,11.3L233.95,11.3z"/>
					</g>
				</g>
			</g>
			<g>
				<path class="st1" d="M204.95,152.56c-1.38,0-2.5-1.12-2.5-2.5v-46c0-1.38,1.12-2.5,2.5-2.5s2.5,1.12,2.5,2.5v46
					C207.45,151.44,206.33,152.56,204.95,152.56z"/>
			</g>
			<g>
				<path class="st1" d="M192.95,152.56c-1.38,0-2.5-1.12-2.5-2.5v-46c0-1.38,1.12-2.5,2.5-2.5s2.5,1.12,2.5,2.5v46
					C195.45,151.44,194.33,152.56,192.95,152.56z"/>
			</g>
			<g>
				<path class="st1" d="M274.95,152.56c-1.38,0-2.5-1.12-2.5-2.5v-46c0-1.38,1.12-2.5,2.5-2.5s2.5,1.12,2.5,2.5v46
					C277.45,151.44,276.33,152.56,274.95,152.56z"/>
			</g>
			<g>
				<path class="st1" d="M262.95,152.56c-1.38,0-2.5-1.12-2.5-2.5v-46c0-1.38,1.12-2.5,2.5-2.5s2.5,1.12,2.5,2.5v46
					C265.45,151.44,264.33,152.56,262.95,152.56z"/>
			</g>
			<g>
				<g>
					<path class="st21" d="M160.95,229.06v-35.64c0-18.88,12.1-35.36,30.11-41.02l42.89-13.48l42.89,13.48
						c18.01,5.66,30.11,22.15,30.11,41.02v35.64H160.95z"/>
				</g>
				<g>
					<g>
						<path class="st1" d="M233.95,142.06l41.99,13.2c16.67,5.24,28.01,20.69,28.01,38.16v32.64h-140v-32.64
							c0-17.47,11.34-32.92,28.01-38.16L233.95,142.06 M233.95,135.77l-1.8,0.57l-41.99,13.2c-19.26,6.05-32.21,23.69-32.21,43.88
							v32.64v6h6h140h6v-6v-32.64c0-20.19-12.94-37.83-32.21-43.88l-41.99-13.2L233.95,135.77L233.95,135.77z"/>
					</g>
				</g>
			</g>
			<g>
				<g>
					<path class="st22" d="M193.95,94.86c-6.07,0-11-4.93-11-11v-1.6c0-6.07,4.93-11,11-11c1.66,0,3,1.34,3,3v17.6
						C196.95,93.52,195.6,94.86,193.95,94.86z"/>
				</g>
				<g>
					<g>
						<path class="st1" d="M193.95,74.26v17.6h0c-4.42,0-8-3.58-8-8v-1.6C185.95,77.84,189.53,74.26,193.95,74.26L193.95,74.26
							 M193.95,68.26c-7.72,0-14,6.28-14,14v1.6c0,7.72,6.28,14,14,14c3.31,0,6-2.69,6-6l0-17.6c0-1.59-0.63-3.12-1.76-4.24
							S195.54,68.26,193.95,68.26L193.95,68.26z"/>
					</g>
				</g>
			</g>
			<g>
				<g>
					<circle class="st23" cx="190.95" cy="98.06" r="6"/>
				</g>
				<g>
					<g>
						<path class="st1" d="M190.95,95.06c1.66,0,3,1.34,3,3c0,1.66-1.34,3-3,3c-1.66,0-3-1.34-3-3
							C187.95,96.41,189.29,95.06,190.95,95.06 M190.95,89.06c-4.96,0-9,4.04-9,9s4.04,9,9,9s9-4.04,9-9S195.91,89.06,190.95,89.06
							L190.95,89.06z"/>
					</g>
				</g>
			</g>
			<g>
				<g>
					<path class="st24" d="M233.95,182.06c-0.82,0-1.61-0.34-2.18-0.94c-1.41-1.49-13.82-14.85-13.82-24.06v-45c0-1.66,1.34-3,3-3
						h26c1.66,0,3,1.34,3,3v45c0,9.21-12.41,22.57-13.82,24.06C235.56,181.72,234.77,182.06,233.95,182.06z"/>
				</g>
				<g>
					<g>
						<path class="st1" d="M246.95,112.06v45c0,8.28-13,22-13,22s-13-13.72-13-22v-45H246.95 M246.95,106.06h-26c-3.31,0-6,2.69-6,6
							v45c0,4.8,2.5,10.57,7.65,17.64c3.44,4.72,6.85,8.34,7,8.49c1.13,1.2,2.71,1.87,4.35,1.87s3.22-0.68,4.35-1.87
							c0.14-0.15,3.56-3.77,7-8.49c5.15-7.07,7.65-12.84,7.65-17.64v-45C252.95,108.75,250.26,106.06,246.95,106.06L246.95,106.06z"
							/>
					</g>
				</g>
			</g>
			<g>
				<path class="st22" d="M220.95,116.06V146c4.09,1.33,8.46,2.07,13,2.07s8.91-0.73,13-2.07v-29.93H220.95z"/>
			</g>
			<g>
				<g>
					<path class="st24" d="M273.95,94.86c-1.66,0-3-1.34-3-3v-17.6c0-1.66,1.34-3,3-3c6.07,0,11,4.93,11,11v1.6
						C284.95,89.93,280.01,94.86,273.95,94.86z"/>
				</g>
				<g>
					<g>
						<path class="st1" d="M273.95,74.26c4.42,0,8,3.58,8,8v1.6c0,4.42-3.58,8-8,8V74.26 M273.95,68.26c-3.31,0-6,2.69-6,6v17.6
							c0,3.31,2.69,6,6,6c7.72,0,14-6.28,14-14v-1.6C287.95,74.54,281.67,68.26,273.95,68.26L273.95,68.26z"/>
					</g>
				</g>
			</g>
			<g>
				<g>
					<circle class="st23" cx="276.95" cy="98.06" r="6"/>
				</g>
				<g>
					<g>
						<path class="st1" d="M276.95,95.06c1.66,0,3,1.34,3,3c0,1.66-1.34,3-3,3s-3-1.34-3-3C273.95,96.41,275.29,95.06,276.95,95.06
							 M276.95,89.06c-4.96,0-9,4.04-9,9s4.04,9,9,9s9-4.04,9-9S281.91,89.06,276.95,89.06L276.95,89.06z"/>
					</g>
				</g>
			</g>
			<g>
				<g>
					<path class="st24" d="M233.95,129.06c-21.5,0-39-17.5-39-39v-28c0-21.5,17.5-39,39-39s39,17.5,39,39v28
						C272.95,111.57,255.45,129.06,233.95,129.06z"/>
				</g>
				<g>
					<g>
						<path class="st1" d="M233.95,26.06c19.88,0,36,16.12,36,36v28c0,19.88-16.12,36-36,36h0c-19.88,0-36-16.12-36-36v-28
							C197.95,42.18,214.06,26.06,233.95,26.06L233.95,26.06 M233.95,20.06c-23.16,0-42,18.84-42,42v28c0,23.16,18.84,42,42,42
							c23.16,0,42-18.84,42-42v-28C275.95,38.9,257.11,20.06,233.95,20.06L233.95,20.06z"/>
					</g>
				</g>
			</g>
			<g>
				<path class="st22" d="M205.95,90.06v-28c0-18.53,14-33.78,32-35.77c-1.31-0.15-2.65-0.23-4-0.23h0c-19.88,0-36,16.12-36,36v28
					c0,19.88,16.12,36,36,36h0c1.35,0,2.69-0.08,4-0.23C219.95,123.84,205.95,108.59,205.95,90.06z"/>
			</g>
			<g>
				<path class="st20" d="M251.95,21.09l-2,8.4c0,0,6.83,29.09,27,41.94l4.23-5.41l-4.97-20.93l-7.98-11.65l-10.18-8.31
					L251.95,21.09z"/>
			</g>
			<g>
				<path class="st20" d="M276.95,71.43c-20.17-12.85-27-41.94-27-41.94"/>
				<path class="st1" d="M276.94,74.43c-0.55,0-1.11-0.15-1.61-0.47c-20.96-13.35-28.02-42.55-28.31-43.78
					c-0.38-1.61,0.62-3.23,2.23-3.6c1.61-0.38,3.23,0.62,3.61,2.23c0.07,0.28,6.81,28.07,25.69,40.1c1.4,0.89,1.81,2.74,0.92,4.14
					C278.91,73.94,277.94,74.43,276.94,74.43z"/>
			</g>
			<g>
				<path class="st20" d="M215.95,21.09l2,8.4c0,0-6.83,29.09-27,41.94l-4.23-5.41l4.97-20.93l7.98-11.65l10.18-8.31L215.95,21.09z"
					/>
			</g>
			<g>
				<path class="st20" d="M190.95,71.43c20.17-12.85,27-41.94,27-41.94"/>
				<path class="st1" d="M190.95,74.43c-0.99,0-1.96-0.49-2.53-1.39c-0.89-1.4-0.48-3.25,0.92-4.14
					c18.88-12.03,25.63-39.82,25.69-40.1c0.38-1.61,2-2.61,3.61-2.23c1.61,0.38,2.61,1.99,2.23,3.6
					c-0.29,1.24-7.35,30.43-28.31,43.78C192.06,74.28,191.5,74.43,190.95,74.43z"/>
			</g>
			<g>
				<path class="st20" d="M284.95,64.43c-20.17-12.85-27-41.94-27-41.94"/>
				<path class="st1" d="M284.94,67.43c-0.55,0-1.11-0.15-1.61-0.47c-20.96-13.35-28.02-42.55-28.31-43.78
					c-0.38-1.61,0.62-3.23,2.23-3.6c1.61-0.38,3.23,0.62,3.61,2.23c0.07,0.28,6.81,28.07,25.69,40.1c1.4,0.89,1.81,2.74,0.92,4.14
					C286.91,66.94,285.94,67.43,284.94,67.43z"/>
			</g>
			<g>
				<path class="st20" d="M182.95,64.43c20.17-12.85,27-41.94,27-41.94"/>
				<path class="st1" d="M182.95,67.43c-0.99,0-1.96-0.49-2.53-1.39c-0.89-1.4-0.48-3.25,0.92-4.14
					c18.88-12.03,25.63-39.82,25.69-40.1c0.38-1.61,2-2.61,3.61-2.23c1.61,0.38,2.61,1.99,2.23,3.6
					c-0.29,1.24-7.35,30.43-28.31,43.78C184.06,67.28,183.5,67.43,182.95,67.43z"/>
			</g>
			<g>
				<g>
					<path class="st20" d="M233.95,41.06c-12.77,0-28-2.43-28-14c0-9.96,12.49-22,28-22s28,12.04,28,22
						C261.95,33.45,257.09,41.06,233.95,41.06z"/>
				</g>
				<g>
					<g>
						<path class="st1" d="M233.95,8.06c13.81,0,25,10.72,25,19s-11.19,11-25,11s-25-2.72-25-11S220.14,8.06,233.95,8.06
							 M233.95,2.06c-7.76,0-15.39,2.75-21.49,7.76c-5.96,4.89-9.51,11.34-9.51,17.24c0,3.73,1.45,10.53,11.2,14.22
							c4.87,1.85,11.54,2.78,19.8,2.78s14.93-0.94,19.8-2.78c9.74-3.69,11.2-10.49,11.2-14.22c0-5.91-3.56-12.35-9.51-17.24
							C249.34,4.82,241.71,2.06,233.95,2.06L233.95,2.06z"/>
					</g>
				</g>
			</g>
			<g>
				<path class="st1" d="M248.95,33.56c-0.41,0-0.82-0.1-1.2-0.31c-1.21-0.66-1.66-2.18-0.99-3.39c1.25-2.29,2.08-3.81,0.8-8.05
					c-0.4-1.32,0.35-2.72,1.67-3.12c1.32-0.4,2.72,0.35,3.12,1.67c1.75,5.79,0.55,8.7-1.2,11.9
					C250.69,33.09,249.83,33.56,248.95,33.56z"/>
			</g>
			<g>
				<path class="st22" d="M233.95,92.06c3.31,0,6-2.69,6-6h-12C227.95,89.38,230.63,92.06,233.95,92.06z"/>
			</g>
			<g>
				<path class="st1" d="M233.95,94.56c-4.69,0-8.5-3.81-8.5-8.5v-10c0-1.38,1.12-2.5,2.5-2.5s2.5,1.12,2.5,2.5v10
					c0,1.93,1.57,3.5,3.5,3.5s3.5-1.57,3.5-3.5v-10c0-1.38,1.12-2.5,2.5-2.5s2.5,1.12,2.5,2.5v10
					C242.45,90.75,238.63,94.56,233.95,94.56z"/>
			</g>
			<g>
				<path class="st1" d="M234.28,103.07c-4.88,0-9.89-1.06-14.21-3.18c-0.99-0.49-1.4-1.68-0.92-2.68c0.49-0.99,1.68-1.4,2.68-0.92
					c7.48,3.67,17.64,3.68,24.14,0.02c0.96-0.54,2.18-0.2,2.72,0.76s0.2,2.18-0.76,2.72C244.06,101.98,239.23,103.07,234.28,103.07z
					"/>
			</g>
			<g>
				<g>
					<path class="st1" d="M230.16,105.84c2.47,0.57,5.1,0.59,7.57,0c1.27-0.35,2.15,1.33,1.18,2.18c-0.77,0.76-1.77,1.54-2.78,1.78
						c-2.16,0.62-4.6,0.39-6.39-1.11c0,0-0.74-0.66-0.74-0.66C228,107.17,228.91,105.5,230.16,105.84L230.16,105.84z"/>
				</g>
			</g>
			<g>
				<path class="st1" d="M244.82,68.39c3.78-5.24,13.46-5.1,15.84,1.35c0.21,0.55-0.06,1.17-0.62,1.39
					c-0.28,0.12-0.57,0.08-0.84-0.02c-3.38-1.2-6.08-1.8-9.61-1.41c-1.19,0.09-2.53,0.28-3.86,0.37
					C244.87,70.17,244.28,69.07,244.82,68.39L244.82,68.39z"/>
			</g>
			<g>
				<path class="st1" d="M220.96,70.06c-4.8-0.62-8.7-0.79-13.28,1.06c-0.85,0.39-1.82-0.5-1.46-1.37c1.68-4.77,8-6.29,12.26-4.18
					c1.13,0.53,5.03,2.85,3.37,4.3C221.58,70.07,221.27,70.1,220.96,70.06L220.96,70.06z"/>
			</g>
			<g>
				<circle class="st1" cx="251.95" cy="77.06" r="6"/>
			</g>
			<g>
				<circle class="st0" cx="253.95" cy="77.06" r="1.5"/>
			</g>
			<g>
				<circle class="st1" cx="215.95" cy="77.06" r="6"/>
			</g>
			<g>
				<path class="st1" d="M219.95,84.06c-0.35,0-0.71-0.09-1.03-0.29c-1.58-0.95-4.35-0.95-5.93,0c-0.95,0.57-2.18,0.27-2.75-0.68
					c-0.57-0.95-0.27-2.18,0.68-2.75c2.82-1.7,7.24-1.7,10.07,0c0.95,0.57,1.25,1.8,0.68,2.75
					C221.28,83.72,220.62,84.06,219.95,84.06z"/>
			</g>
			<g>
				<path class="st1" d="M255.95,84.06c-0.35,0-0.71-0.09-1.03-0.29c-1.58-0.95-4.35-0.95-5.93,0c-0.95,0.57-2.18,0.27-2.75-0.68
					c-0.57-0.95-0.27-2.18,0.68-2.75c2.82-1.7,7.24-1.7,10.07,0c0.95,0.57,1.25,1.8,0.68,2.75
					C257.28,83.72,256.62,84.06,255.95,84.06z"/>
			</g>
			<g>
				<circle class="st0" cx="217.95" cy="77.06" r="1.5"/>
			</g>
		</g>
	</g>
	<g>
		<path class="st1" d="M233.95,192.06c-40.25,0-73-32.75-73-73h6c0,36.94,30.06,67,67,67c36.94,0,67-30.06,67-67h6
			C306.95,159.31,274.2,192.06,233.95,192.06z"/>
	</g>
</g>
</svg>
