<?xml version="1.0" encoding="utf-8"?>
<!-- Generator: Adobe Illustrator 25.2.3, SVG Export Plug-In . SVG Version: 6.00 Build 0)  -->
<svg version="1.1" id="ppc-ad-copy-guide" xmlns="http://www.w3.org/2000/svg" xmlns:xlink="http://www.w3.org/1999/xlink" x="0px"
	 y="0px" viewBox="0 0 400 400" style="enable-background:new 0 0 400 400;" xml:space="preserve">
<style type="text/css">
	.st0{fill:#FFEBEB;}
	.st1{fill:#515979;}
	.st2{fill:#FFD886;}
	.st3{fill:#FBB040;}
	.st4{fill:#EF7D7D;}
	.st5{fill:#46B9E6;}
	.st6{fill:#D8EBFB;}
	.st7{fill:#6ADAF7;}
	.st8{fill:#FFFFFF;}
	.st9{fill:#00C853;}
	.st10{fill:#2196F3;}
	.st11{fill:#FDE1D9;}
	.st12{fill:#FFE8A0;}
	.st13{fill:#75A5C3;}
	.st14{fill:#BAD2E1;}
	.st15{fill:#FFF3CF;}
</style>
<g>
	<g>
		<path class="st0" d="M166,377c-0.37,0-0.74-0.07-1.09-0.2l-18-7c-1.15-0.45-1.91-1.56-1.91-2.8s0.76-2.35,1.91-2.8l18-7
			c0.35-0.14,0.72-0.2,1.09-0.2c0.6,0,1.19,0.18,1.69,0.52c0.82,0.56,1.31,1.49,1.31,2.48v14c0,0.99-0.49,1.92-1.31,2.48
			C167.19,376.82,166.6,377,166,377z"/>
	</g>
	<g>
		<path class="st1" d="M166,360v14l-18-7L166,360 M166,354c-0.73,0-1.47,0.13-2.17,0.41l-18,7c-2.31,0.9-3.83,3.12-3.83,5.59
			s1.52,4.7,3.83,5.59l18,7c0.7,0.27,1.44,0.41,2.17,0.41c1.19,0,2.38-0.36,3.39-1.05c1.63-1.12,2.61-2.97,2.61-4.95v-14
			c0-1.98-0.98-3.83-2.61-4.95C168.38,354.36,167.19,354,166,354L166,354z"/>
	</g>
</g>
<g>
	<polygon class="st1" points="148,367 154,364 154,370 	"/>
</g>
<g>
	<g>
		<rect x="169" y="357" class="st2" width="91" height="20"/>
	</g>
	<g>
		<path class="st1" d="M257,360v14h-85v-14L257,360 M263,354h-6l-85,0h-6v6v14v6h6h85h6v-6v-14V354L263,354z"/>
	</g>
</g>
<g>
	
		<rect x="211" y="328" transform="matrix(-4.588219e-07 1 -1 -4.588219e-07 585.0001 156.0002)" class="st3" width="7" height="85"/>
</g>
<g>
	<g>
		<path class="st4" d="M273.5,376.5v-19h9.5c3.03,0,5.5,2.47,5.5,5.5v8c0,3.03-2.47,5.5-5.5,5.5H273.5z"/>
	</g>
	<g>
		<path class="st1" d="M283,361c1.1,0,2,0.9,2,2v8c0,1.1-0.9,2-2,2h-6v-12H283 M283,354h-6h-7v7v12v7h7h6c4.96,0,9-4.04,9-9v-8
			C292,358.04,287.96,354,283,354L283,354z"/>
	</g>
</g>
<g>
	<path class="st1" d="M257,369h-85c-1.1,0-2-0.9-2-2s0.9-2,2-2h85c1.1,0,2,0.9,2,2S258.1,369,257,369z"/>
</g>
<g>
	<g>
		<g>
			<path class="st5" d="M72,315c-1.66,0-3-1.34-3-3V124c0-1.66,1.34-3,3-3h160c1.66,0,3,1.34,3,3v188c0,1.66-1.34,3-3,3H72z"/>
		</g>
		<g>
			<path class="st1" d="M232,124v188H72V124H232 M232,118H72c-3.31,0-6,2.69-6,6v188c0,3.31,2.69,6,6,6h160c3.31,0,6-2.69,6-6V124
				C238,120.69,235.31,118,232,118L232,118z"/>
		</g>
	</g>
	<g>
		<g>
			<path class="st6" d="M60,304c-1.66,0-3-1.34-3-3V135c0-1.66,1.34-3,3-3h160c1.66,0,3,1.34,3,3v166c0,1.66-1.34,3-3,3H60z"/>
		</g>
		<g>
			<g>
				<path class="st1" d="M220,135v166H60V135H220 M220,129H60c-3.31,0-6,2.69-6,6v166c0,3.31,2.69,6,6,6h160c3.31,0,6-2.69,6-6V135
					C226,131.69,223.31,129,220,129L220,129z"/>
			</g>
		</g>
	</g>
	<g>
		<g>
			<path class="st7" d="M48,321c-1.66,0-3-1.34-3-3V118c0-1.66,1.34-3,3-3h160c1.66,0,3,1.34,3,3v200c0,1.66-1.34,3-3,3H48z"/>
		</g>
		<g>
			<path class="st1" d="M208,118v200H48V118H208 M208,112H48c-3.31,0-6,2.69-6,6v200c0,3.31,2.69,6,6,6h160c3.31,0,6-2.69,6-6V118
				C214,114.69,211.31,112,208,112L208,112z"/>
		</g>
	</g>
	<g>
		<path class="st1" d="M159,298h-30c-1.66,0-3-1.34-3-3l0,0c0-1.66,1.34-3,3-3h30c1.66,0,3,1.34,3,3l0,0
			C162,296.66,160.66,298,159,298z"/>
	</g>
	<g>
		<g>
			<path class="st2" d="M48,321c-1.66,0-3-1.34-3-3V118c0-1.66,1.34-3,3-3h6c1.66,0,3,1.34,3,3v200c0,1.66-1.34,3-3,3H48z"/>
		</g>
		<g>
			<path class="st1" d="M54,118v200h-6V118H54 M54,112h-6c-3.31,0-6,2.69-6,6v200c0,3.31,2.69,6,6,6h6c3.31,0,6-2.69,6-6V118
				C60,114.69,57.31,112,54,112L54,112z"/>
		</g>
	</g>
	<g>
		<g>
			<path class="st1" d="M105.73,231.29v30.6h-7.14v-12.94H86.16v12.94h-7.14v-30.6h7.14v12.79h12.43v-12.79H105.73z"/>
		</g>
		<g>
			<path class="st1" d="M120.29,239.78c1.65,0,3.16,0.26,4.51,0.78s2.52,1.26,3.5,2.23c0.97,0.97,1.73,2.14,2.27,3.52
				s0.81,2.93,0.81,4.65c0,1.74-0.27,3.3-0.81,4.69c-0.54,1.39-1.29,2.58-2.27,3.55c-0.97,0.97-2.14,1.72-3.5,2.25
				c-1.36,0.52-2.86,0.79-4.51,0.79c-1.67,0-3.18-0.26-4.55-0.79c-1.37-0.53-2.54-1.27-3.53-2.25c-0.99-0.97-1.75-2.16-2.29-3.55
				c-0.54-1.39-0.81-2.96-0.81-4.69c0-1.72,0.27-3.27,0.81-4.65c0.54-1.38,1.3-2.55,2.29-3.52c0.99-0.97,2.16-1.71,3.53-2.23
				S118.62,239.78,120.29,239.78z M120.29,257.4c1.5,0,2.6-0.53,3.31-1.58c0.71-1.06,1.06-2.66,1.06-4.82
				c0-2.16-0.35-3.76-1.06-4.81c-0.71-1.05-1.81-1.58-3.31-1.58c-1.54,0-2.67,0.53-3.38,1.58s-1.07,2.65-1.07,4.81
				c0,2.16,0.36,3.76,1.07,4.82C117.62,256.87,118.75,257.4,120.29,257.4z"/>
		</g>
		<g>
			<path class="st1" d="M166.3,240.11l-6.76,21.78h-5.29c-0.28,0-0.52-0.08-0.71-0.25c-0.2-0.17-0.35-0.45-0.46-0.84l-3.11-10.86
				c-0.15-0.49-0.29-0.97-0.41-1.45c-0.12-0.48-0.23-0.96-0.33-1.45c-0.1,0.49-0.21,0.98-0.33,1.47s-0.26,0.98-0.41,1.47
				l-3.15,10.82c-0.21,0.73-0.67,1.09-1.39,1.09h-5.04l-6.76-21.78h5.21c0.46,0,0.85,0.11,1.17,0.33s0.53,0.49,0.64,0.81l2.18,9.76
				c0.18,0.74,0.34,1.46,0.48,2.15c0.14,0.69,0.27,1.39,0.38,2.09c0.18-0.7,0.37-1.4,0.58-2.09s0.42-1.41,0.66-2.15l2.73-9.79
				c0.11-0.32,0.32-0.59,0.63-0.81c0.31-0.22,0.67-0.33,1.09-0.33h2.9c0.46,0,0.85,0.11,1.17,0.33c0.31,0.22,0.53,0.49,0.64,0.81
				l2.6,9.79c0.21,0.74,0.42,1.46,0.62,2.16s0.39,1.41,0.56,2.12c0.11-0.7,0.25-1.4,0.4-2.1c0.15-0.7,0.33-1.43,0.52-2.18l2.31-9.76
				c0.11-0.32,0.32-0.59,0.63-0.81c0.31-0.22,0.67-0.33,1.09-0.33H166.3z"/>
		</g>
		<g>
			<path class="st1" d="M101.01,272.92H92.4v24.97h-7.1v-24.97h-8.61v-5.63h24.32V272.92z"/>
		</g>
		<g>
			<path class="st1" d="M108.91,275.78c1.65,0,3.16,0.26,4.51,0.78s2.52,1.26,3.5,2.23c0.97,0.97,1.73,2.14,2.27,3.52
				s0.81,2.93,0.81,4.65c0,1.74-0.27,3.3-0.81,4.69c-0.54,1.39-1.29,2.58-2.27,3.55c-0.97,0.97-2.14,1.72-3.5,2.25
				c-1.36,0.52-2.86,0.79-4.51,0.79c-1.67,0-3.18-0.26-4.55-0.79c-1.37-0.53-2.54-1.27-3.53-2.25c-0.99-0.97-1.75-2.16-2.29-3.55
				c-0.54-1.39-0.81-2.96-0.81-4.69c0-1.72,0.27-3.27,0.81-4.65c0.54-1.38,1.3-2.55,2.29-3.52c0.99-0.97,2.16-1.71,3.53-2.23
				S107.24,275.78,108.91,275.78z M108.91,293.4c1.5,0,2.6-0.53,3.31-1.58c0.71-1.06,1.06-2.66,1.06-4.82
				c0-2.16-0.35-3.76-1.06-4.81c-0.71-1.05-1.81-1.58-3.31-1.58c-1.54,0-2.67,0.53-3.38,1.58s-1.07,2.65-1.07,4.81
				c0,2.16,0.36,3.76,1.07,4.82C106.24,292.87,107.37,293.4,108.91,293.4z"/>
		</g>
	</g>
	<g>
		<g>
			<g>
				<path class="st1" d="M151.5,170.6c-0.32,0-0.64-0.08-0.94-0.24c-1.89-1.02-5.22-1.02-7.11,0c-0.97,0.52-2.19,0.16-2.71-0.82
					c-0.52-0.97-0.16-2.19,0.82-2.71c3.05-1.64,7.84-1.64,10.89,0c0.97,0.52,1.34,1.73,0.82,2.71
					C152.9,170.22,152.21,170.6,151.5,170.6z"/>
			</g>
			<g>
				<g>
					<circle class="st1" cx="147" cy="159.85" r="8"/>
				</g>
				<g>
					<circle class="st8" cx="149" cy="159.85" r="2"/>
				</g>
			</g>
			<g>
				<path class="st1" d="M141.14,143.53c0.69-0.58,1.26-0.95,1.95-1.32c0.67-0.35,1.38-0.64,2.12-0.86c1.48-0.44,3.1-0.61,4.75-0.42
					c0.41,0.06,0.82,0.11,1.23,0.22c0.41,0.11,0.81,0.24,1.21,0.37c0.4,0.15,0.77,0.36,1.15,0.54c0.38,0.18,0.74,0.4,1.07,0.66
					c1.41,0.94,2.39,2.3,3.04,3.7c0.47,1.02,0.02,2.23-1,2.7c-0.58,0.27-1.22,0.24-1.75-0.02l-0.39-0.19
					c-1.05-0.52-1.87-1.06-2.74-1.36c-0.85-0.34-1.67-0.56-2.59-0.68c-0.91-0.13-1.88-0.16-2.93-0.11
					c-0.52,0.04-1.06,0.06-1.61,0.13c-0.53,0.03-1.16,0.15-1.62,0.15l-0.62,0c-1.1,0-1.99-0.9-1.99-2
					C140.44,144.44,140.72,143.9,141.14,143.53z"/>
			</g>
			<g>
				<path class="st1" d="M117.5,170.6c-0.32,0-0.64-0.08-0.94-0.24c-1.89-1.02-5.22-1.02-7.11,0c-0.97,0.52-2.19,0.16-2.71-0.82
					c-0.52-0.97-0.16-2.19,0.82-2.71c3.05-1.64,7.84-1.64,10.89,0c0.97,0.52,1.34,1.73,0.82,2.71
					C118.9,170.22,118.21,170.6,117.5,170.6z"/>
			</g>
			<g>
				<g>
					<circle class="st1" cx="113" cy="159.85" r="8"/>
				</g>
				<g>
					<circle class="st8" cx="115" cy="159.85" r="2"/>
				</g>
			</g>
			<g>
				<path class="st1" d="M116.96,147.05c-0.46,0-1.08-0.11-1.62-0.15c-0.55-0.07-1.09-0.09-1.61-0.13
					c-1.05-0.05-2.02-0.02-2.93,0.11c-0.91,0.12-1.74,0.34-2.59,0.68c-0.88,0.29-1.69,0.84-2.74,1.36l-0.38,0.19
					c-1.01,0.5-2.23,0.09-2.73-0.92c-0.28-0.57-0.27-1.22-0.03-1.76c0.64-1.4,1.63-2.76,3.04-3.7c0.33-0.26,0.69-0.49,1.07-0.66
					c0.38-0.18,0.75-0.4,1.15-0.54c0.4-0.13,0.8-0.26,1.21-0.37c0.41-0.11,0.82-0.15,1.23-0.22c1.65-0.19,3.27-0.03,4.75,0.42
					c0.74,0.21,1.45,0.51,2.12,0.86c0.69,0.37,1.26,0.73,1.95,1.32c0.84,0.72,0.94,1.98,0.22,2.81c-0.39,0.46-0.94,0.7-1.5,0.7
					L116.96,147.05z"/>
			</g>
		</g>
	</g>
	<g>
		<g>
			<circle class="st1" cx="89" cy="167.5" r="2.5"/>
		</g>
	</g>
	<g>
		<g>
			<circle class="st1" cx="94.5" cy="178.5" r="2.5"/>
		</g>
	</g>
	<g>
		<g>
			<circle class="st1" cx="83.5" cy="178.5" r="2.5"/>
		</g>
	</g>
	<g>
		<g>
			<circle class="st1" cx="171" cy="167.5" r="2.5"/>
		</g>
	</g>
	<g>
		<g>
			<circle class="st1" cx="176.5" cy="178.5" r="2.5"/>
		</g>
	</g>
	<g>
		<g>
			<circle class="st1" cx="165.5" cy="178.5" r="2.5"/>
		</g>
	</g>
	<g>
		<circle class="st5" cx="89" cy="167.5" r="2.5"/>
	</g>
	<g>
		<circle class="st5" cx="94.5" cy="178.5" r="2.5"/>
	</g>
	<g>
		<circle class="st5" cx="83.5" cy="178.5" r="2.5"/>
	</g>
	<g>
		<circle class="st5" cx="171" cy="167.5" r="2.5"/>
	</g>
	<g>
		<circle class="st5" cx="176.5" cy="178.5" r="2.5"/>
	</g>
	<g>
		<circle class="st5" cx="165.5" cy="178.5" r="2.5"/>
	</g>
	<g>
		<g>
			<g>
				<path class="st1" d="M130,199.5c-11.3,0-20.5-9.2-20.5-20.5c0-1.38,1.12-2.5,2.5-2.5h36c1.38,0,2.5,1.12,2.5,2.5
					C150.5,190.3,141.3,199.5,130,199.5z"/>
			</g>
			<g>
				<path class="st1" d="M148,179L148,179 M148,179c0,9.94-8.06,18-18,18s-18-8.06-18-18H148 M148.01,174L148.01,174H112
					c-2.76,0-5,2.24-5,5c0,12.68,10.32,23,23,23c12.62,0,22.9-10.22,23-22.82c0-0.06,0-0.12,0-0.18
					C153,176.24,150.77,174,148.01,174L148.01,174z M148,184L148,184L148,184L148,184z"/>
			</g>
		</g>
		<g>
			<g>
				<ellipse class="st4" cx="130" cy="191" rx="13.39" ry="6"/>
			</g>
		</g>
	</g>
</g>
<g>
	<g>
		<g>
			<path class="st8" d="M206,339c-3.86,0-7-3.14-7-7V190c0-3.86,3.14-7,7-7h142c3.86,0,7,3.14,7,7v122c0,0.8-0.32,1.56-0.88,2.12
				l-24,24c-0.56,0.56-1.33,0.88-2.12,0.88H206z"/>
		</g>
		<g>
			<path class="st1" d="M348,186c2.21,0,4,1.79,4,4v122l-24,24H206c-2.21,0-4-1.79-4-4V190c0-2.21,1.79-4,4-4H348 M348,180H206
				c-5.51,0-10,4.49-10,10v142c0,5.51,4.49,10,10,10h122c1.59,0,3.12-0.63,4.24-1.76l24-24c1.13-1.13,1.76-2.65,1.76-4.24V190
				C358,184.49,353.51,180,348,180L348,180z"/>
		</g>
	</g>
	<g>
		<g>
			<path class="st6" d="M328,339c-0.39,0-0.78-0.07-1.15-0.23c-1.12-0.46-1.85-1.56-1.85-2.77v-19.2c0-4.3,3.5-7.8,7.8-7.8H352
				c1.21,0,2.31,0.73,2.77,1.85c0.46,1.12,0.21,2.41-0.65,3.27l-24,24C329.55,338.7,328.78,339,328,339z"/>
		</g>
		<g>
			<path class="st1" d="M352,312l-24,24v-19.2c0-2.65,2.15-4.8,4.8-4.8H352 M352,306h-19.2c-5.96,0-10.8,4.84-10.8,10.8V336
				c0,2.43,1.46,4.61,3.7,5.54c0.74,0.31,1.52,0.46,2.29,0.46c1.56,0,3.1-0.61,4.24-1.76l24-24c1.72-1.72,2.23-4.3,1.3-6.54
				S354.43,306,352,306L352,306z M352,318L352,318L352,318L352,318z"/>
		</g>
	</g>
	<g>
		<path class="st9" d="M295,273h-74c-1.66,0-3-1.34-3-3l0,0c0-1.66,1.34-3,3-3h74c1.66,0,3,1.34,3,3l0,0
			C298,271.66,296.66,273,295,273z"/>
	</g>
	<g>
		<path class="st1" d="M305,297h-84c-1.66,0-3-1.34-3-3l0,0c0-1.66,1.34-3,3-3h84c1.66,0,3,1.34,3,3l0,0
			C308,295.66,306.66,297,305,297z"/>
	</g>
	<g>
		<path class="st1" d="M295,309h-74c-1.66,0-3-1.34-3-3l0,0c0-1.66,1.34-3,3-3h74c1.66,0,3,1.34,3,3l0,0
			C298,307.66,296.66,309,295,309z"/>
	</g>
	<g>
		<path class="st1" d="M265,321h-44c-1.66,0-3-1.34-3-3l0,0c0-1.66,1.34-3,3-3h44c1.66,0,3,1.34,3,3l0,0
			C268,319.66,266.66,321,265,321z"/>
	</g>
	<g>
		<path class="st10" d="M275,285h-54c-1.66,0-3-1.34-3-3l0,0c0-1.66,1.34-3,3-3h54c1.66,0,3,1.34,3,3l0,0
			C278,283.66,276.66,285,275,285z"/>
	</g>
	<g>
		<g>
			<g>
				<circle class="st11" cx="236" cy="224.5" r="2.5"/>
			</g>
			<g>
				<circle class="st11" cx="241.5" cy="235.5" r="2.5"/>
			</g>
			<g>
				<circle class="st11" cx="230.5" cy="235.5" r="2.5"/>
			</g>
		</g>
		<g>
			<g>
				<circle class="st11" cx="318" cy="224.5" r="2.5"/>
			</g>
			<g>
				<circle class="st11" cx="323.5" cy="235.5" r="2.5"/>
			</g>
			<g>
				<circle class="st11" cx="312.5" cy="235.5" r="2.5"/>
			</g>
		</g>
	</g>
	<g>
		<g>
			<g>
				<path class="st1" d="M296.5,229.41c-0.32,0-0.64-0.08-0.94-0.24c-1.89-1.02-5.21-1.02-7.11,0c-0.98,0.52-2.19,0.16-2.71-0.82
					c-0.52-0.97-0.16-2.19,0.82-2.71c3.05-1.64,7.84-1.64,10.89,0c0.97,0.52,1.34,1.73,0.82,2.71
					C297.9,229.03,297.21,229.41,296.5,229.41z"/>
			</g>
			<g>
				<g>
					<circle class="st1" cx="292" cy="218.66" r="8"/>
				</g>
				<g>
					<circle class="st8" cx="294" cy="218.66" r="2"/>
				</g>
			</g>
			<g>
				<path class="st1" d="M286.11,203.28c0.68-0.6,1.26-0.97,1.95-1.35c0.68-0.36,1.39-0.66,2.14-0.88c1.49-0.46,3.14-0.63,4.81-0.42
					c0.84,0.09,1.66,0.34,2.47,0.62c0.4,0.16,0.77,0.38,1.15,0.57c0.39,0.18,0.74,0.42,1.07,0.69c1.4,0.97,2.36,2.35,2.98,3.77
					c0.45,1.03-0.01,2.23-1.04,2.69c-0.59,0.26-1.23,0.22-1.76-0.06l-0.37-0.2c-1.05-0.55-1.86-1.12-2.73-1.43
					c-0.84-0.36-1.66-0.59-2.56-0.71c-0.9-0.13-1.87-0.17-2.91-0.11c-0.52,0.04-1.06,0.07-1.61,0.14c-0.53,0.04-1.16,0.16-1.62,0.17
					l-0.62,0.01c-1.1,0.01-2-0.87-2.01-1.98C285.43,204.2,285.7,203.65,286.11,203.28z"/>
			</g>
			<g>
				<path class="st1" d="M266.5,229.41c-0.32,0-0.64-0.08-0.94-0.24c-1.89-1.02-5.21-1.02-7.11,0c-0.97,0.52-2.19,0.16-2.71-0.82
					c-0.52-0.97-0.16-2.19,0.82-2.71c3.05-1.64,7.84-1.64,10.89,0c0.97,0.52,1.34,1.73,0.82,2.71
					C267.9,229.03,267.21,229.41,266.5,229.41z"/>
			</g>
			<g>
				<g>
					<circle class="st1" cx="262" cy="218.66" r="8"/>
				</g>
				<g>
					<circle class="st8" cx="264" cy="218.66" r="2"/>
				</g>
			</g>
			<g>
				<path class="st1" d="M265.93,206.77c-0.46,0-1.08-0.13-1.62-0.17c-0.55-0.07-1.09-0.1-1.61-0.14c-1.05-0.05-2.02-0.02-2.91,0.11
					c-0.9,0.12-1.72,0.35-2.56,0.71c-0.87,0.31-1.69,0.88-2.73,1.43l-0.36,0.19c-1,0.52-2.23,0.14-2.75-0.86
					c-0.3-0.57-0.3-1.22-0.06-1.77c0.62-1.41,1.58-2.79,2.98-3.77c0.33-0.27,0.68-0.51,1.07-0.69c0.38-0.19,0.76-0.41,1.15-0.57
					c0.81-0.28,1.63-0.53,2.47-0.62c1.67-0.21,3.32-0.04,4.81,0.42c0.75,0.22,1.46,0.52,2.14,0.88c0.69,0.38,1.27,0.75,1.95,1.35
					c0.83,0.72,0.91,1.98,0.19,2.81c-0.4,0.45-0.95,0.68-1.51,0.68L265.93,206.77z"/>
			</g>
		</g>
		<g>
			<path class="st1" d="M277.42,241.7c-6.02,0-12.19-1.77-17.52-5.31c-0.92-0.61-1.17-1.85-0.56-2.77c0.61-0.92,1.85-1.17,2.77-0.56
				c9.2,6.1,21.68,6.11,29.68,0.02c0.88-0.67,2.13-0.5,2.8,0.38s0.5,2.13-0.38,2.8C289.45,239.88,283.51,241.7,277.42,241.7z"/>
		</g>
		<g>
			<path class="st1" d="M272.82,244.8c1.35,0.43,2.77,0.57,4.18,0.62c0.71,0.03,1.41-0.07,2.11-0.15c0.7-0.09,1.39-0.24,2.05-0.47
				c0.69-0.24,1.45,0.13,1.68,0.82c0.17,0.48,0.04,1-0.29,1.34l-0.72,0.76c-0.67,0.71-1.48,1.09-2.3,1.37
				c-0.83,0.24-1.69,0.36-2.54,0.31c-0.43-0.02-0.85-0.04-1.27-0.13c-0.42-0.06-0.84-0.17-1.25-0.3c-0.81-0.27-1.6-0.64-2.3-1.25
				l-0.67-0.59c-0.57-0.5-0.63-1.37-0.13-1.94C271.74,244.78,272.32,244.64,272.82,244.8z"/>
		</g>
	</g>
</g>
<g>
	<g>
		<g>
			<path class="st12" d="M260,125c-1.66,0-3-1.34-3-3c0-10.77-4.61-16.58-9.95-23.31C240.94,90.98,234,82.24,234,65
				c0-23.71,19.29-43,43-43s43,19.29,43,43c0,17.24-6.94,25.98-13.05,33.69c-5.34,6.73-9.95,12.53-9.95,23.31c0,1.66-1.34,3-3,3H260
				z"/>
		</g>
		<g>
			<path class="st1" d="M277,25c22.09,0,40,17.91,40,40c0,30.78-23,32.05-23,57h-34c0-24.95-23-26.22-23-57
				C237,42.91,254.91,25,277,25 M277,19c-25.36,0-46,20.64-46,46c0,18.29,7.6,27.86,13.7,35.56c5.19,6.54,9.3,11.71,9.3,21.44
				c0,3.31,2.69,6,6,6h34c3.31,0,6-2.69,6-6c0-9.73,4.1-14.9,9.3-21.44C315.4,92.86,323,83.29,323,65C323,39.64,302.36,19,277,19
				L277,19z"/>
		</g>
	</g>
	<g>
		<g>
			<path class="st13" d="M273.87,159c-2.2,0-4.14-1.45-4.78-3.54l-2.41-6.46h20.64l-2.41,6.46c-0.64,2.09-2.58,3.54-4.78,3.54
				H273.87z"/>
		</g>
		<g>
			<path class="st1" d="M283,152l-0.94,2.52c-0.23,0.88-1.03,1.48-1.93,1.48h-6.26c-0.91,0-1.7-0.61-1.93-1.48L271,152H283
				 M291.64,146H283h-12h-8.64l3.02,8.1l0.87,2.33c1.05,3.3,4.13,5.57,7.62,5.57h6.26c3.49,0,6.57-2.27,7.62-5.57l0.87-2.33
				L291.64,146L291.64,146z"/>
		</g>
	</g>
	<g>
		<g>
			<path class="st14" d="M264,149c-3.86,0-7-3.14-7-7v-23h40v23c0,3.86-3.14,7-7,7H264z"/>
		</g>
		<g>
			<path class="st1" d="M294,122v20c0,2.21-1.79,4-4,4h-26c-2.21,0-4-1.79-4-4v-20H294 M300,116h-6h-34h-6v6v20
				c0,5.51,4.49,10,10,10h26c5.51,0,10-4.49,10-10v-20V116L300,116z"/>
		</g>
	</g>
	<g>
		<line class="st13" x1="257" y1="131" x2="297" y2="127"/>
		<path class="st1" d="M257,134c-1.52,0-2.83-1.15-2.98-2.7c-0.17-1.65,1.04-3.12,2.69-3.28l40-4c1.64-0.16,3.12,1.04,3.28,2.69
			c0.17,1.65-1.04,3.12-2.69,3.28l-40,4C257.2,134,257.1,134,257,134z"/>
	</g>
	<g>
		<line class="st13" x1="257" y1="141" x2="297" y2="137"/>
		<path class="st1" d="M257,144c-1.52,0-2.83-1.15-2.98-2.7c-0.17-1.65,1.04-3.12,2.69-3.28l40-4c1.64-0.16,3.12,1.04,3.28,2.69
			c0.17,1.65-1.04,3.12-2.69,3.28l-40,4C257.2,144,257.1,144,257,144z"/>
	</g>
	<g>
		<path class="st15" d="M303,56.63c-1.17,0-2.28-0.69-2.76-1.83c-3.96-9.36-13.08-15.4-23.24-15.4c-1.66,0-3-1.34-3-3s1.34-3,3-3
			c12.58,0,23.87,7.48,28.76,19.07c0.65,1.53-0.07,3.29-1.59,3.93C303.79,56.55,303.39,56.63,303,56.63z"/>
	</g>
	<g>
		<path class="st1" d="M269,122c-1.4,0-2.65-0.99-2.94-2.41l-8-40c-0.33-1.62,0.73-3.21,2.35-3.53c1.63-0.33,3.21,0.73,3.53,2.35
			l8,40c0.33,1.62-0.73,3.21-2.35,3.53C269.39,121.98,269.19,122,269,122z"/>
	</g>
	<g>
		<path class="st1" d="M285,122c-0.19,0-0.39-0.02-0.59-0.06c-1.62-0.33-2.68-1.91-2.35-3.53l8-40c0.33-1.62,1.9-2.68,3.53-2.35
			c1.62,0.33,2.68,1.91,2.35,3.53l-8,40C287.66,121.01,286.4,122,285,122z"/>
	</g>
	<g>
		<path class="st1" d="M284,89c-0.77,0-1.54-0.3-2.12-0.88L277,83.24l-4.88,4.88c-1.07,1.07-2.77,1.18-3.96,0.25l-9-7
			c-1.31-1.02-1.54-2.9-0.53-4.21c1.02-1.31,2.9-1.54,4.21-0.53l6.91,5.37l5.13-5.13c1.17-1.17,3.07-1.17,4.24,0l5.13,5.13
			l6.91-5.37c1.31-1.02,3.19-0.78,4.21,0.53c1.02,1.31,0.78,3.19-0.53,4.21l-9,7C285.3,88.79,284.65,89,284,89z"/>
	</g>
</g>
<g>
	<g>
		<rect x="260" y="357" class="st13" width="14" height="20"/>
	</g>
	<g>
		<path class="st1" d="M271,360v14h-8v-14H271 M277,354h-6h-8h-6v6v14v6h6h8h6v-6v-14V354L277,354z"/>
	</g>
</g>
</svg>
