<svg id="Layer_1" data-name="Layer 1" xmlns="http://www.w3.org/2000/svg" viewBox="0 0 344 208"><defs><style>.cls-1{fill:#b29d90;}.cls-2{fill:#515979;}.cls-3{fill:#fffaec;}.cls-4{fill:#fff;}.cls-5{fill:#ef7d7d;}.cls-6{fill:#fff8e2;}</style></defs><path class="cls-1" d="M112.5,155a9,9,0,0,1-9-9V92a14.89,14.89,0,0,1,6.77-12.55A20.86,20.86,0,0,1,103.5,64a35,35,0,0,1,35-35h56a35,35,0,0,1,35,35,20.86,20.86,0,0,1-6.77,15.45A14.89,14.89,0,0,1,229.5,92v54a9,9,0,0,1-9,9Z"/><path class="cls-2" d="M194.5,32a32,32,0,0,1,32,32,18,18,0,0,1-10.12,16.16A12,12,0,0,1,226.5,92v54a6,6,0,0,1-6,6h-108a6,6,0,0,1-6-6V92a12,12,0,0,1,10.12-11.84A18,18,0,0,1,106.5,64a32,32,0,0,1,32-32h56m0-6h-56a38,38,0,0,0-38,38,23.82,23.82,0,0,0,5.37,15.15A17.91,17.91,0,0,0,100.5,92v54a12,12,0,0,0,12,12h108a12,12,0,0,0,12-12V92a17.91,17.91,0,0,0-5.37-12.85A23.82,23.82,0,0,0,232.5,64a38,38,0,0,0-38-38Z"/><path class="cls-3" d="M92.5,155a9,9,0,0,1-9-9V92a14.89,14.89,0,0,1,6.77-12.55A20.86,20.86,0,0,1,83.5,64a35,35,0,0,1,35-35h56a35,35,0,0,1,35,35,20.86,20.86,0,0,1-6.77,15.45A14.89,14.89,0,0,1,209.5,92v54a9,9,0,0,1-9,9Z"/><path class="cls-2" d="M174.5,32a32,32,0,0,1,32,32,18,18,0,0,1-10.12,16.16A12,12,0,0,1,206.5,92v54a6,6,0,0,1-6,6H92.5a6,6,0,0,1-6-6V92A12,12,0,0,1,96.62,80.16,18,18,0,0,1,86.5,64a32,32,0,0,1,32-32h56m0-6h-56a38,38,0,0,0-38,38,23.82,23.82,0,0,0,5.37,15.15A17.91,17.91,0,0,0,80.5,92v54a12,12,0,0,0,12,12h108a12,12,0,0,0,12-12V92a17.91,17.91,0,0,0-5.37-12.85A23.82,23.82,0,0,0,212.5,64a38,38,0,0,0-38-38Z"/><path class="cls-2" d="M166.5,93.58a2,2,0,0,1-1.17-.38,7,7,0,0,0-7.66,0,2,2,0,0,1-2.79-.45,2,2,0,0,1,.45-2.79,11.05,11.05,0,0,1,12.34,0,2,2,0,0,1-1.17,3.62Z"/><circle class="cls-2" cx="161.5" cy="82.83" r="8"/><circle class="cls-4" cx="163.5" cy="82.83" r="2"/><path class="cls-2" d="M155.48,65.22a10.16,10.16,0,0,1,2-1.42,10.85,10.85,0,0,1,2.16-.91,11.75,11.75,0,0,1,4.9-.47,10,10,0,0,1,4.84,1.89,8.76,8.76,0,0,1,3.06,3.89,2.39,2.39,0,0,1-1.3,3.12,2.37,2.37,0,0,1-1.81,0l-.55-.23c-1.08-.44-1.88-.92-2.71-1.15a11.11,11.11,0,0,0-2.42-.59,19.79,19.79,0,0,0-2.77-.16c-.5,0-1,0-1.57.07a14.6,14.6,0,0,1-1.59,0l-.94-.11a2.29,2.29,0,0,1-2-2.55A2.24,2.24,0,0,1,155.48,65.22Z"/><path class="cls-2" d="M122.5,93.58A2,2,0,0,1,121.33,90a11.05,11.05,0,0,1,12.34,0,2,2,0,0,1-2.34,3.24,7,7,0,0,0-7.66,0A2,2,0,0,1,122.5,93.58Z"/><circle class="cls-2" cx="127.5" cy="82.83" r="8"/><circle class="cls-4" cx="129.5" cy="82.83" r="2"/><path class="cls-2" d="M131.3,69.32a14.6,14.6,0,0,1-1.59,0c-.54,0-1.07,0-1.57-.07a19.79,19.79,0,0,0-2.77.16A11.11,11.11,0,0,0,123,70c-.83.23-1.63.71-2.71,1.15l-.54.22a2.39,2.39,0,0,1-3.12-3.12,8.76,8.76,0,0,1,3.06-3.89,10,10,0,0,1,4.84-1.89,11.75,11.75,0,0,1,4.9.47,10.85,10.85,0,0,1,2.16.91,10.16,10.16,0,0,1,2,1.42,2.3,2.3,0,0,1-1.27,4Z"/><path class="cls-2" d="M144.5,122.48A20.53,20.53,0,0,1,124,102a2.5,2.5,0,0,1,2.5-2.5h36A2.5,2.5,0,0,1,165,102,20.53,20.53,0,0,1,144.5,122.48Z"/><path class="cls-2" d="M162.5,102h0m0,0a18,18,0,1,1-36,0h36m0-5h-36a5,5,0,0,0-5,5,23,23,0,0,0,46,.18V102a5,5,0,0,0-5-5Zm0,10h0Z"/><ellipse class="cls-5" cx="144.5" cy="113.98" rx="13.39" ry="6"/><circle class="cls-6" cx="227.5" cy="170" r="4"/><path class="cls-2" d="M227.5,168a2,2,0,1,1-2,2,2,2,0,0,1,2-2m0-4a6,6,0,1,0,6,6,6,6,0,0,0-6-6Z"/><circle class="cls-6" cx="280.5" cy="163" r="4"/><path class="cls-2" d="M280.5,161a2,2,0,1,1-2,2,2,2,0,0,1,2-2m0-4a6,6,0,1,0,6,6,6,6,0,0,0-6-6Z"/><circle class="cls-6" cx="63.5" cy="158" r="4"/><path class="cls-2" d="M63.5,156a2,2,0,1,1-2,2,2,2,0,0,1,2-2m0-4a6,6,0,1,0,6,6,6,6,0,0,0-6-6Z"/><circle class="cls-1" cx="86.5" cy="169" r="4"/><path class="cls-2" d="M86.5,167a2,2,0,1,1-2,2,2,2,0,0,1,2-2m0-4a6,6,0,1,0,6,6,6,6,0,0,0-6-6Z"/><circle class="cls-6" cx="250.5" cy="157" r="4"/><path class="cls-2" d="M250.5,155a2,2,0,1,1-2,2,2,2,0,0,1,2-2m0-4a6,6,0,1,0,6,6,6,6,0,0,0-6-6Z"/><circle class="cls-1" cx="197.5" cy="174" r="4"/><path class="cls-2" d="M197.5,172a2,2,0,1,1-2,2,2,2,0,0,1,2-2m0-4a6,6,0,1,0,6,6,6,6,0,0,0-6-6Z"/><circle class="cls-1" cx="259.5" cy="176" r="4"/><path class="cls-2" d="M259.5,174a2,2,0,1,1-2,2,2,2,0,0,1,2-2m0-4a6,6,0,1,0,6,6,6,6,0,0,0-6-6Z"/></svg>