<?xml version="1.0" encoding="utf-8"?>
<!-- Generator: Adobe Illustrator 26.0.2, SVG Export Plug-In . SVG Version: 6.00 Build 0)  -->
<svg version="1.1" id="content-marketing-agency-illustration-03"
	 xmlns="http://www.w3.org/2000/svg" xmlns:xlink="http://www.w3.org/1999/xlink" x="0px" y="0px" viewBox="0 0 400 400"
	 style="enable-background:new 0 0 400 400;" xml:space="preserve">
<style type="text/css">
	.st0{fill:none;}
	.st1{fill:#FFD886;}
	.st2{fill:#FFFFFF;}
	.st3{fill:#515979;}
	.st4{fill:#D8EBFB;}
	.st5{fill:#FDE1D9;}
	.st6{fill:#F89D81;}
	.st7{fill:#C7BCFF;}
	.st8{fill:#EF7D7D;}
	.st9{fill:#FFEBEB;}
	.st10{fill:#FBB040;}
	.st11{fill:#75A5C3;}
</style>
<g>
	<rect class="st0" width="400" height="400"/>
	<g>
		<g>
			<path class="st1" d="M264.13,365.87c3.53,0,6.4-2.87,6.4-6.4c0-1.18,0.96-2.13,2.13-2.13s2.13,0.96,2.13,2.13
				c0,3.53,2.87,6.4,6.4,6.4c1.18,0,2.13,0.96,2.13,2.13s-0.96,2.13-2.13,2.13c-3.53,0-6.4,2.87-6.4,6.4c0,1.18-0.96,2.13-2.13,2.13
				s-2.13-0.96-2.13-2.13c0-3.53-2.87-6.4-6.4-6.4c-1.18,0-2.13-0.96-2.13-2.13S262.96,365.87,264.13,365.87z"/>
		</g>
		<g>
			<path class="st1" d="M37.47,272.53c3.53,0,6.4-2.87,6.4-6.4c0-1.18,0.96-2.13,2.13-2.13c1.18,0,2.13,0.96,2.13,2.13
				c0,3.53,2.87,6.4,6.4,6.4c1.18,0,2.13,0.96,2.13,2.13c0,1.18-0.96,2.13-2.13,2.13c-3.53,0-6.4,2.87-6.4,6.4
				c0,1.18-0.96,2.13-2.13,2.13c-1.18,0-2.13-0.96-2.13-2.13c0-3.53-2.87-6.4-6.4-6.4c-1.18,0-2.13-0.96-2.13-2.13
				C35.33,273.49,36.29,272.53,37.47,272.53z"/>
		</g>
		<g>
			<path class="st1" d="M8.4,110.93c3.97,0,7.2-3.23,7.2-7.2c0-1.33,1.07-2.4,2.4-2.4c1.33,0,2.4,1.07,2.4,2.4
				c0,3.97,3.23,7.2,7.2,7.2c1.33,0,2.4,1.07,2.4,2.4c0,1.33-1.07,2.4-2.4,2.4c-3.97,0-7.2,3.23-7.2,7.2c0,1.33-1.07,2.4-2.4,2.4
				c-1.33,0-2.4-1.07-2.4-2.4c0-3.97-3.23-7.2-7.2-7.2c-1.33,0-2.4-1.07-2.4-2.4C6,112.01,7.07,110.93,8.4,110.93z"/>
		</g>
		<g>
			<path class="st1" d="M365.73,74.93c3.97,0,7.2-3.23,7.2-7.2c0-1.33,1.07-2.4,2.4-2.4c1.33,0,2.4,1.07,2.4,2.4
				c0,3.97,3.23,7.2,7.2,7.2c1.33,0,2.4,1.07,2.4,2.4c0,1.33-1.07,2.4-2.4,2.4c-3.97,0-7.2,3.23-7.2,7.2c0,1.33-1.07,2.4-2.4,2.4
				c-1.33,0-2.4-1.07-2.4-2.4c0-3.97-3.23-7.2-7.2-7.2c-1.33,0-2.4-1.07-2.4-2.4C363.33,76.01,364.41,74.93,365.73,74.93z"/>
		</g>
		<g>
			<circle class="st1" cx="351.33" cy="377.33" r="4"/>
		</g>
		<g>
			<circle class="st1" cx="14.67" cy="346" r="3.33"/>
		</g>
		<g>
			<circle class="st1" cx="50.67" cy="167.33" r="3.33"/>
		</g>
		<g>
			<circle class="st1" cx="352" cy="308.67" r="6"/>
		</g>
		<g>
			<circle class="st1" cx="98.67" cy="362" r="6"/>
		</g>
		<g>
			<circle class="st1" cx="344.67" cy="162.67" r="5.33"/>
		</g>
		<g>
			<circle class="st1" cx="317.33" cy="51.33" r="3.33"/>
		</g>
		<g>
			<circle class="st1" cx="150.67" cy="30.67" r="4"/>
		</g>
		<path class="st1" d="M72.67,40h-9.33v-9.33c0-2.21-1.79-4-4-4s-4,1.79-4,4V40H46c-2.21,0-4,1.79-4,4s1.79,4,4,4h9.33v9.33
			c0,2.21,1.79,4,4,4s4-1.79,4-4V48h9.33c2.21,0,4-1.79,4-4S74.88,40,72.67,40z"/>
	</g>
	<g>
		<g>
			<g>
				<path class="st2" d="M105.33,330.67c-5.15,0-9.33-4.19-9.33-9.33V78.67c0-5.15,4.19-9.33,9.33-9.33H268
					c1.06,0,2.08,0.42,2.83,1.17l32,32c0.75,0.75,1.17,1.77,1.17,2.83v216c0,5.15-4.19,9.33-9.33,9.33H105.33z"/>
			</g>
			<g>
				<path class="st3" d="M268,73.33l32,32v216c0,2.95-2.39,5.33-5.33,5.33H105.33c-2.95,0-5.33-2.39-5.33-5.33V78.67
					c0-2.95,2.39-5.33,5.33-5.33H268 M268,65.33H105.33C97.98,65.33,92,71.31,92,78.67v242.67c0,7.35,5.98,13.33,13.33,13.33h189.33
					c7.35,0,13.33-5.98,13.33-13.33v-216c0-2.12-0.84-4.16-2.34-5.66l-32-32C272.16,66.18,270.12,65.33,268,65.33L268,65.33z"/>
			</g>
		</g>
		<g>
			<g>
				<path class="st4" d="M274.4,109.33c-5.73,0-10.4-4.67-10.4-10.4v-25.6c0-1.62,0.97-3.08,2.47-3.7c0.49-0.21,1.02-0.3,1.53-0.3
					c1.04,0,2.07,0.41,2.83,1.17l32,32c1.14,1.14,1.49,2.86,0.87,4.36c-0.62,1.49-2.08,2.47-3.7,2.47H274.4z"/>
			</g>
			<g>
				<path class="st3" d="M268,73.33l32,32h-25.6c-3.53,0-6.4-2.87-6.4-6.4V73.33 M268,65.33c-1.03,0-2.07,0.2-3.06,0.61
					c-2.99,1.24-4.94,4.16-4.94,7.39v25.6c0,7.94,6.46,14.4,14.4,14.4H300c3.24,0,6.15-1.95,7.39-4.94
					c1.24-2.99,0.55-6.43-1.73-8.72l-32-32C272.13,66.15,270.08,65.33,268,65.33L268,65.33z"/>
			</g>
		</g>
		<g>
			<g>
				<g>
					<path class="st3" d="M228.66,144.8c-0.43,0-0.86-0.1-1.26-0.32c-2.53-1.35-6.95-1.35-9.48,0c-1.3,0.7-2.91,0.21-3.61-1.09
						c-0.7-1.3-0.21-2.91,1.09-3.61c4.07-2.18,10.45-2.18,14.52,0c1.3,0.7,1.79,2.31,1.09,3.61
						C230.54,144.29,229.62,144.8,228.66,144.8z"/>
				</g>
				<g>
					<g>
						<circle class="st3" cx="222.67" cy="130.46" r="10.67"/>
					</g>
					<g>
						<circle class="st2" cx="225.33" cy="130.46" r="2.67"/>
					</g>
				</g>
				<g>
					<path class="st3" d="M214.85,108.71c4.9-4.15,12.66-4.91,17.98-1.06c2.44,1.74,6.53,6.37,2.72,8.53
						c-0.98,0.47-1.99,0.22-2.85-0.28c-4.15-2.57-8.35-3.34-13.15-2.69c-1.03,0.09-2.01,0.24-2.98,0.19
						C214.14,113.44,212.99,110.22,214.85,108.71L214.85,108.71z"/>
				</g>
				<g>
					<path class="st3" d="M183.33,144.8c-0.43,0-0.86-0.1-1.26-0.32c-2.52-1.35-6.95-1.35-9.48,0c-1.3,0.7-2.91,0.21-3.61-1.09
						c-0.7-1.3-0.21-2.91,1.09-3.61c4.07-2.18,10.45-2.18,14.52,0c1.3,0.7,1.79,2.31,1.09,3.61
						C185.2,144.29,184.28,144.8,183.33,144.8z"/>
				</g>
				<g>
					<g>
						<circle class="st3" cx="177.33" cy="130.46" r="10.67"/>
					</g>
					<g>
						<circle class="st2" cx="180" cy="130.46" r="2.67"/>
					</g>
				</g>
				<g>
					<path class="st3" d="M182.61,113.4c-3.87-0.37-8.02-0.86-11.66,0.68c-1.27,0.43-2.68,1.36-4.16,2.06
						c-2.24,1.17-4.76-1.33-3.67-3.57c2.54-6.18,10.5-8.8,16.6-6.76c2.6,0.86,8.26,3.12,5.73,6.65
						C184.74,113.35,183.63,113.45,182.61,113.4L182.61,113.4z"/>
				</g>
			</g>
		</g>
		<g>
			<circle class="st5" cx="145.33" cy="140.67" r="3.33"/>
		</g>
		<g>
			<circle class="st5" cx="152.67" cy="155.33" r="3.33"/>
		</g>
		<g>
			<circle class="st5" cx="138" cy="155.33" r="3.33"/>
		</g>
		<g>
			<circle class="st5" cx="254.67" cy="140.67" r="3.33"/>
		</g>
		<g>
			<circle class="st5" cx="262" cy="155.33" r="3.33"/>
		</g>
		<g>
			<circle class="st5" cx="247.33" cy="155.33" r="3.33"/>
		</g>
		<g>
			<g>
				<path class="st3" d="M209.33,231.33c-0.89,0-1.79-0.36-2.44-1.07l-17.33-18.67c-1.25-1.35-1.17-3.46,0.17-4.71
					c1.35-1.25,3.46-1.17,4.71,0.17l17.33,18.67c1.25,1.35,1.17,3.46-0.17,4.71C210.96,231.04,210.15,231.33,209.33,231.33z"/>
			</g>
			<g>
				<path class="st3" d="M190.67,231.33c-0.85,0-1.71-0.33-2.36-0.98c-1.3-1.3-1.3-3.41,0-4.71l18.67-18.67c1.3-1.3,3.41-1.3,4.71,0
					c1.3,1.3,1.3,3.41,0,4.71l-18.67,18.67C192.37,231.01,191.52,231.33,190.67,231.33z"/>
			</g>
		</g>
		<g>
			<g>
				<path class="st3" d="M177.33,235.33c-0.85,0-1.71-0.33-2.36-0.98l-18.67-18.67c-1.3-1.3-1.3-3.41,0-4.71
					c1.3-1.3,3.41-1.3,4.71,0l18.67,18.67c1.3,1.3,1.3,3.41,0,4.71C179.04,235.01,178.19,235.33,177.33,235.33z"/>
			</g>
			<g>
				<path class="st3" d="M160,235.33c-0.81,0-1.63-0.29-2.27-0.89c-1.35-1.25-1.43-3.36-0.17-4.71l17.33-18.67
					c1.25-1.35,3.36-1.43,4.71-0.17c1.35,1.25,1.43,3.36,0.17,4.71l-17.33,18.67C161.79,234.98,160.89,235.33,160,235.33z"/>
			</g>
		</g>
		<g>
			<g>
				<path class="st3" d="M147.09,194.39c-0.57,0-1.15-0.15-1.68-0.46l-21.15-12.4c-1.59-0.93-2.12-2.97-1.19-4.56
					c0.93-1.59,2.97-2.12,4.56-1.19l21.15,12.4c1.59,0.93,2.12,2.97,1.19,4.56C149.35,193.8,148.24,194.39,147.09,194.39z"/>
			</g>
			<g>
				<path class="st3" d="M130.65,200.05c-0.57,0-1.15-0.15-1.68-0.46c-1.59-0.93-2.12-2.97-1.19-4.56l13.35-22.77
					c0.93-1.59,2.97-2.12,4.56-1.19c1.59,0.93,2.12,2.97,1.19,4.56l-13.35,22.77C132.91,199.46,131.8,200.05,130.65,200.05z"/>
			</g>
		</g>
		<g>
			<g>
				<path class="st3" d="M271.86,194.76c-0.78,0-1.56-0.27-2.19-0.82l-18.47-16.12c-1.39-1.21-1.53-3.32-0.32-4.7
					c1.21-1.39,3.32-1.53,4.7-0.32l18.47,16.12c1.39,1.21,1.53,3.32,0.32,4.7C273.71,194.37,272.78,194.76,271.86,194.76z"/>
			</g>
			<g>
				<path class="st3" d="M253.23,196.02c-0.78,0-1.56-0.27-2.19-0.82c-1.39-1.21-1.53-3.32-0.32-4.7l17.36-19.89
					c1.21-1.39,3.32-1.53,4.7-0.32c1.39,1.21,1.53,3.32,0.32,4.7l-17.36,19.89C255.08,195.64,254.16,196.02,253.23,196.02z"/>
			</g>
		</g>
		<g>
			<g>
				<path class="st3" d="M240,234c-0.89,0-1.79-0.36-2.44-1.07l-17.33-18.67c-1.25-1.35-1.17-3.46,0.17-4.71
					c1.35-1.25,3.46-1.17,4.71,0.17l17.33,18.67c1.25,1.35,1.17,3.46-0.17,4.71C241.63,233.71,240.81,234,240,234z"/>
			</g>
			<g>
				<path class="st3" d="M222.67,234c-0.85,0-1.71-0.33-2.36-0.98c-1.3-1.3-1.3-3.41,0-4.71l18.67-18.67c1.3-1.3,3.41-1.3,4.71,0
					c1.3,1.3,1.3,3.41,0,4.71l-18.67,18.67C224.37,233.67,223.52,234,222.67,234z"/>
			</g>
		</g>
		<g>
			<path class="st3" d="M221.33,268.67c-7.72,0-14-6.28-14-14c0-7.72,6.28-14,14-14c7.72,0,14,6.28,14,14
				C235.33,262.39,229.05,268.67,221.33,268.67z M221.33,247.33c-4.04,0-7.33,3.29-7.33,7.33c0,4.04,3.29,7.33,7.33,7.33
				s7.33-3.29,7.33-7.33C228.67,250.62,225.38,247.33,221.33,247.33z"/>
		</g>
		<g>
			<path class="st3" d="M204,315.33c-7.72,0-14-6.28-14-14c0-7.72,6.28-14,14-14c7.72,0,14,6.28,14,14
				C218,309.05,211.72,315.33,204,315.33z M204,294c-4.04,0-7.33,3.29-7.33,7.33s3.29,7.33,7.33,7.33c4.04,0,7.33-3.29,7.33-7.33
				S208.04,294,204,294z"/>
		</g>
		<g>
			<path class="st3" d="M185.33,267.33c-7.72,0-14-6.28-14-14s6.28-14,14-14c7.72,0,14,6.28,14,14S193.05,267.33,185.33,267.33z
				 M185.33,246c-4.04,0-7.33,3.29-7.33,7.33c0,4.04,3.29,7.33,7.33,7.33c4.04,0,7.33-3.29,7.33-7.33
				C192.67,249.29,189.38,246,185.33,246z"/>
		</g>
		<g>
			<path class="st3" d="M264,270c-7.72,0-14-6.28-14-14c0-7.72,6.28-14,14-14s14,6.28,14,14C278,263.72,271.72,270,264,270z
				 M264,248.67c-4.04,0-7.33,3.29-7.33,7.33s3.29,7.33,7.33,7.33s7.33-3.29,7.33-7.33S268.04,248.67,264,248.67z"/>
		</g>
		<g>
			<path class="st3" d="M149.33,272.67c-7.72,0-14-6.28-14-14c0-7.72,6.28-14,14-14c7.72,0,14,6.28,14,14
				C163.33,266.39,157.05,272.67,149.33,272.67z M149.33,251.33c-4.04,0-7.33,3.29-7.33,7.33c0,4.04,3.29,7.33,7.33,7.33
				c4.04,0,7.33-3.29,7.33-7.33C156.67,254.62,153.38,251.33,149.33,251.33z"/>
		</g>
		<g>
			<path class="st3" d="M164,307.33c-7.72,0-14-6.28-14-14c0-7.72,6.28-14,14-14s14,6.28,14,14C178,301.05,171.72,307.33,164,307.33
				z M164,286c-4.04,0-7.33,3.29-7.33,7.33s3.29,7.33,7.33,7.33s7.33-3.29,7.33-7.33S168.04,286,164,286z"/>
		</g>
		<g>
			<g>
				<path class="st6" d="M148.44,239.62c-1.53,0-2.91-1.06-3.25-2.62l-6.85-31.26c-0.39-1.8,0.74-3.58,2.54-3.97
					c1.8-0.39,3.58,0.74,3.97,2.54l6.85,31.26c0.39,1.8-0.74,3.58-2.54,3.97C148.92,239.59,148.68,239.62,148.44,239.62z"/>
			</g>
			<g>
				<path class="st6" d="M132.47,210.36c-1.53,0-2.91-1.06-3.25-2.62c-0.39-1.8,0.74-3.58,2.54-3.97l18.23-4
					c1.8-0.4,3.58,0.74,3.97,2.54c0.39,1.8-0.74,3.58-2.54,3.97l-18.23,4C132.95,210.33,132.71,210.36,132.47,210.36z"/>
			</g>
		</g>
		<g>
			<g>
				<path class="st6" d="M264.34,237.91c-1.78,0-3.25-1.4-3.33-3.19l-1.36-31.97c-0.08-1.84,1.35-3.39,3.19-3.47
					c1.82-0.1,3.39,1.35,3.47,3.19l1.36,31.97c0.08,1.84-1.35,3.39-3.19,3.47C264.43,237.91,264.38,237.91,264.34,237.91z"/>
			</g>
			<g>
				<path class="st6" d="M253.65,206.34c-1.78,0-3.25-1.4-3.33-3.19c-0.08-1.84,1.35-3.39,3.19-3.47l18.65-0.79
					c1.81-0.1,3.39,1.35,3.47,3.19c0.08,1.84-1.35,3.39-3.19,3.47l-18.65,0.79C253.75,206.34,253.7,206.34,253.65,206.34z"/>
			</g>
		</g>
		<g>
			<g>
				<path class="st7" d="M142,291.81c-0.46,0-0.92-0.1-1.36-0.29l-1.63-0.73c-10.6-4.72-28.35-12.62-30.6-28.02
					c-1.69-11.59,5.72-24.29,22.67-38.81c1.4-1.2,3.5-1.04,4.7,0.36c1.2,1.4,1.04,3.5-0.36,4.7
					c-14.86,12.74-21.73,23.77-20.41,32.79c1.72,11.77,17.37,18.73,26.72,22.89l1.65,0.74c1.68,0.76,2.43,2.73,1.67,4.41
					C144.49,291.07,143.27,291.81,142,291.81z"/>
			</g>
			<g>
				<path class="st7" d="M132.54,245.44c-0.05,0-0.1,0-0.15,0c-1.84-0.08-3.26-1.64-3.18-3.48l0.53-11.9l-13.02,0.87
					c-1.84,0.13-3.43-1.27-3.55-3.1c-0.12-1.84,1.27-3.43,3.1-3.55l16.74-1.11c0.95-0.07,1.87,0.28,2.55,0.94
					c0.68,0.66,1.04,1.58,1,2.53l-0.7,15.62C135.79,244.04,134.32,245.44,132.54,245.44z"/>
			</g>
		</g>
		<g>
			<g>
				<g>
					<path class="st3" d="M200,183.33c-15.07,0-27.33-12.26-27.33-27.33c0-1.84,1.49-3.33,3.33-3.33h48c1.84,0,3.33,1.49,3.33,3.33
						C227.33,171.07,215.07,183.33,200,183.33z"/>
				</g>
				<g>
					<path class="st3" d="M224,156L224,156 M224,156c0,13.25-10.75,24-24,24s-24-10.75-24-24H224 M224.01,149.33L224.01,149.33H176
						c-3.68,0-6.67,2.98-6.67,6.67c0,16.91,13.76,30.67,30.67,30.67c16.83,0,30.54-13.63,30.67-30.43c0-0.08,0-0.16,0-0.24
						C230.67,152.32,227.69,149.33,224.01,149.33L224.01,149.33z M224,162.67L224,162.67L224,162.67L224,162.67z"/>
				</g>
			</g>
			<g>
				<g>
					<ellipse class="st8" cx="200" cy="172" rx="17.85" ry="8"/>
				</g>
			</g>
		</g>
		<g>
			<g>
				<path class="st7" d="M251.25,290.31c-0.06,0-0.12,0-0.19-0.01c-1.84-0.1-3.25-1.67-3.14-3.51l0.65-11.89l-13.03,0.73
					c-1.85,0.11-3.41-1.3-3.52-3.14c-0.1-1.84,1.3-3.41,3.14-3.52l16.75-0.94c0.95-0.06,1.87,0.3,2.54,0.97
					c0.67,0.67,1.02,1.59,0.97,2.54l-0.86,15.61C254.47,288.94,253,290.31,251.25,290.31z"/>
			</g>
			<g>
				<path class="st7" d="M223.91,296.21c-1.31,0-2.56-0.78-3.09-2.07c-0.7-1.7,0.12-3.65,1.82-4.34l0,0
					c0.15-0.06,14.71-6.17,26.92-20.58c1.19-1.4,3.29-1.58,4.7-0.39c1.4,1.19,1.58,3.29,0.39,4.7
					c-13.31,15.72-28.82,22.17-29.48,22.44C224.76,296.13,224.33,296.21,223.91,296.21z"/>
			</g>
		</g>
		<g>
			<g>
				<g>
					<path class="st9" d="M235.76,343.79c-0.87,0-1.72-0.34-2.36-0.98c-0.97-0.97-1.25-2.44-0.69-3.7l10.37-23.57
						c0.44-1.01,1.35-1.73,2.44-1.93c0.2-0.04,0.41-0.06,0.61-0.06c0.88,0,1.73,0.35,2.36,0.98l13.2,13.2
						c0.78,0.78,1.12,1.89,0.92,2.97s-0.93,1.99-1.93,2.44l-23.57,10.37C236.67,343.7,236.21,343.79,235.76,343.79z"/>
				</g>
				<g>
					<path class="st3" d="M246.13,316.89l13.2,13.2l-23.57,10.37L246.13,316.89 M246.13,310.22c-0.41,0-0.82,0.04-1.23,0.11
						c-2.16,0.41-3.99,1.85-4.87,3.87l-10.37,23.57c-1.11,2.52-0.56,5.45,1.39,7.4c1.28,1.28,2.98,1.95,4.72,1.95
						c0.91,0,1.82-0.18,2.68-0.56l23.57-10.37c2.01-0.89,3.46-2.71,3.87-4.87s-0.28-4.39-1.84-5.94l-13.2-13.2
						C249.58,310.91,247.88,310.22,246.13,310.22L246.13,310.22z"/>
				</g>
			</g>
			<g>
				<polygon class="st3" points="235.76,340.46 238.59,331.98 244.25,337.63 				"/>
			</g>
			<g>
				<g>
					<path class="st1" d="M259.33,333.42c-0.85,0-1.71-0.33-2.36-0.98l-13.2-13.2c-1.3-1.3-1.3-3.41,0-4.71l80.14-80.14
						c0.65-0.65,1.5-0.98,2.36-0.98c0.85,0,1.71,0.33,2.36,0.98l13.2,13.2c1.3,1.3,1.3,3.41,0,4.71l-80.14,80.14
						C261.04,333.1,260.18,333.42,259.33,333.42z"/>
				</g>
				<g>
					<path class="st3" d="M326.27,236.75l13.2,13.2l-80.14,80.14l-13.2-13.2L326.27,236.75 M326.27,230.09
						c-1.77,0-3.46,0.7-4.71,1.95l-80.14,80.14c-2.6,2.6-2.6,6.82,0,9.43l13.2,13.2c1.25,1.25,2.95,1.95,4.71,1.95
						c1.77,0,3.46-0.7,4.71-1.95l80.14-80.14c2.6-2.6,2.6-6.82,0-9.43l-13.2-13.2C329.73,230.79,328.04,230.09,326.27,230.09
						L326.27,230.09z"/>
				</g>
			</g>
			<g>
				
					<rect x="291.43" y="230.05" transform="matrix(0.7071 0.7071 -0.7071 0.7071 289.468 -125.3962)" class="st10" width="9.33" height="113.33"/>
			</g>
			<g>
				<g>
					
						<rect x="332.69" y="222.2" transform="matrix(0.7071 -0.7071 0.7071 0.7071 -66.0946 310.1654)" class="st11" width="17.33" height="25.33"/>
				</g>
				<g>
					<path class="st3" d="M338.53,224.5l13.2,13.2l-7.54,7.54l-13.2-13.2L338.53,224.5 M338.53,215.07l-4.71,4.71l-7.54,7.54
						l-4.71,4.71l4.71,4.71l13.2,13.2l4.71,4.71l4.71-4.71l7.54-7.54l4.71-4.71l-4.71-4.71l-13.2-13.2L338.53,215.07L338.53,215.07z
						"/>
				</g>
			</g>
			<g>
				<g>
					<path class="st8" d="M339.47,219.78l8.49-8.49c1.26-1.26,2.93-1.95,4.71-1.95c1.78,0,3.45,0.69,4.71,1.95l7.54,7.55
						c2.6,2.6,2.6,6.83,0,9.43l-8.49,8.49L339.47,219.78z"/>
				</g>
				<g>
					<path class="st3" d="M352.67,213.34c0.68,0,1.36,0.26,1.89,0.78l7.54,7.54c1.04,1.04,1.04,2.73,0,3.77l-5.66,5.66l-11.31-11.31
						l5.66-5.66C351.3,213.6,351.99,213.34,352.67,213.34 M352.67,205.34c-2.85,0-5.53,1.11-7.54,3.12l-5.66,5.66l-5.66,5.66
						l5.66,5.66l11.31,11.31l5.66,5.66l5.66-5.66l5.66-5.66c2.01-2.01,3.12-4.69,3.12-7.54c0-2.85-1.11-5.53-3.12-7.54l-7.54-7.54
						C358.2,206.45,355.52,205.34,352.67,205.34L352.67,205.34z"/>
				</g>
			</g>
			<g>
				<path class="st3" d="M252.73,326.16c-0.68,0-1.36-0.26-1.89-0.78c-1.04-1.04-1.04-2.73,0-3.77l80.14-80.14
					c1.04-1.04,2.73-1.04,3.77,0c1.04,1.04,1.04,2.73,0,3.77l-80.14,80.14C254.1,325.9,253.41,326.16,252.73,326.16z"/>
			</g>
		</g>
	</g>
</g>
</svg>
