<?xml version="1.0" encoding="utf-8"?>
<!-- Generator: Adobe Illustrator 26.0.2, SVG Export Plug-In . SVG Version: 6.00 Build 0)  -->
<svg version="1.1" id="Landing_x5F_Page_x5F_Hub-Landing_x5F_Page_x5F_vs_x5F_Homepage"
	 xmlns="http://www.w3.org/2000/svg" xmlns:xlink="http://www.w3.org/1999/xlink" x="0px" y="0px" viewBox="0 0 400 400"
	 style="enable-background:new 0 0 400 400;" xml:space="preserve">
<style type="text/css">
	.st0{fill:#E1F8FD;}
	.st1{fill:#CBF2FC;}
	.st2{fill:none;}
	.st3{fill:#FFD886;}
	.st4{fill:#FFFFFF;}
	.st5{fill:#515979;}
	.st6{fill:#667683;}
	.st7{fill:#EF7D7D;}
	.st8{fill:#FFE8A0;}
	.st9{fill:#7DDF96;}
	.st10{fill:#EEEBFF;}
	.st11{fill:#C7BCFF;}
	.st12{opacity:0.2;}
	.st13{opacity:0.4;}
	.st14{fill:#FFF3DA;}
	.st15{fill:#3CB48C;}
	.st16{fill:#D26E78;}
</style>
<g>
	<g>
		<circle class="st0" cx="199.42" cy="200" r="145"/>
	</g>
	<g>
		<circle class="st1" cx="199.42" cy="200" r="120"/>
	</g>
</g>
<g>
	<rect x="0.5" y="0.98" class="st2" width="400" height="400"/>
</g>
<g>
	<g>
		<path class="st3" d="M318.68,337.36c2.98,0,5.4-2.42,5.4-5.4c0-0.99,0.81-1.8,1.8-1.8s1.8,0.81,1.8,1.8c0,2.98,2.42,5.4,5.4,5.4
			c0.99,0,1.8,0.81,1.8,1.8s-0.81,1.8-1.8,1.8c-2.98,0-5.4,2.42-5.4,5.4c0,0.99-0.81,1.8-1.8,1.8s-1.8-0.81-1.8-1.8
			c0-2.98-2.42-5.4-5.4-5.4c-0.99,0-1.8-0.81-1.8-1.8S317.69,337.36,318.68,337.36z"/>
	</g>
</g>
<g>
	<g>
		<circle class="st3" cx="67.03" cy="92.98" r="3"/>
	</g>
</g>
<g>
	<g>
		<circle class="st3" cx="338.74" cy="304.98" r="3"/>
	</g>
</g>
<g>
	<g>
		<ellipse class="st3" cx="44.5" cy="155.17" rx="2.17" ry="3"/>
	</g>
</g>
<g>
	<g>
		<circle class="st3" cx="362.28" cy="152.98" r="3"/>
	</g>
</g>
<g>
	<g>
		<circle class="st3" cx="276.88" cy="351.16" r="3"/>
	</g>
</g>
<g>
	<g>
		<circle class="st3" cx="173.33" cy="361.64" r="3"/>
	</g>
</g>
<g>
	<g>
		<circle class="st3" cx="129.42" cy="58.41" r="3"/>
	</g>
</g>
<g>
	<g>
		<circle class="st3" cx="373.86" cy="110.98" r="3"/>
	</g>
</g>
<g>
	<g>
		<circle class="st3" cx="335.74" cy="185.98" r="3"/>
	</g>
</g>
<g>
	<g>
		<circle class="st3" cx="111.42" cy="347.13" r="3"/>
	</g>
</g>
<g>
	<g>
		<circle class="st3" cx="76.03" cy="138.91" r="3"/>
	</g>
</g>
<g>
	<circle class="st3" cx="149.42" cy="338.56" r="4"/>
</g>
<path class="st3" d="M82.02,43.87h-6v-6c0-1.66-1.34-3-3-3s-3,1.34-3,3v6h-6c-1.66,0-3,1.34-3,3s1.34,3,3,3h6v6c0,1.66,1.34,3,3,3
	s3-1.34,3-3v-6h6c1.66,0,3-1.34,3-3S83.68,43.87,82.02,43.87z"/>
<g>
	<g>
		<g>
			<g>
				<path class="st4" d="M109.42,315.98c-7.17,0-13-5.83-13-13v-204c0-7.17,5.83-13,13-13h90c1.66,0,3,1.34,3,3v224
					c0,1.66-1.34,3-3,3H109.42z"/>
			</g>
			<g>
				<path class="st5" d="M199.42,88.98v224h-90c-5.52,0-10-4.48-10-10v-204c0-5.52,4.48-10,10-10H199.42 M199.42,82.98h-90
					c-8.82,0-16,7.18-16,16v204c0,8.82,7.18,16,16,16h90c3.31,0,6-2.69,6-6v-224C205.42,85.67,202.73,82.98,199.42,82.98
					L199.42,82.98z"/>
			</g>
		</g>
		<g>
			<g>
				<path class="st6" d="M99.42,119.98c-1.66,0-3-1.34-3-3v-18c0-7.17,5.83-13,13-13h90c1.66,0,3,1.34,3,3v28c0,1.66-1.34,3-3,3
					H99.42z"/>
			</g>
			<g>
				<path class="st5" d="M199.42,88.98v28h-100v-18c0-5.52,4.48-10,10-10H199.42 M199.42,82.98h-90c-8.82,0-16,7.18-16,16v18
					c0,3.31,2.69,6,6,6h100c3.31,0,6-2.69,6-6v-28C205.42,85.67,202.73,82.98,199.42,82.98L199.42,82.98z"/>
			</g>
		</g>
		<g>
			<g>
				<path class="st4" d="M189.42,109.98c-3.86,0-7-3.14-7-7s3.14-7,7-7h10c1.66,0,3,1.34,3,3v8c0,1.66-1.34,3-3,3H189.42z"/>
			</g>
			<g>
				<g>
					<path class="st5" d="M199.42,98.98v8h-10c-2.21,0-4-1.79-4-4c0-2.21,1.79-4,4-4H199.42 M199.42,92.98h-10
						c-5.51,0-10,4.49-10,10s4.49,10,10,10h10c3.31,0,6-2.69,6-6v-8C205.42,95.67,202.73,92.98,199.42,92.98L199.42,92.98z"/>
				</g>
			</g>
		</g>
		<g>
			<g>
				<circle class="st7" cx="115.42" cy="102.98" r="7"/>
			</g>
			<g>
				<g>
					<path class="st5" d="M115.42,98.98c2.21,0,4,1.79,4,4c0,2.21-1.79,4-4,4s-4-1.79-4-4C111.42,100.77,113.21,98.98,115.42,98.98
						 M115.42,92.98c-5.51,0-10,4.49-10,10s4.49,10,10,10s10-4.49,10-10S120.93,92.98,115.42,92.98L115.42,92.98z"/>
				</g>
			</g>
		</g>
		<g>
			<g>
				<circle class="st8" cx="139.42" cy="102.98" r="7"/>
			</g>
			<g>
				<g>
					<path class="st5" d="M139.42,98.98c2.21,0,4,1.79,4,4c0,2.21-1.79,4-4,4s-4-1.79-4-4C135.42,100.77,137.21,98.98,139.42,98.98
						 M139.42,92.98c-5.51,0-10,4.49-10,10s4.49,10,10,10s10-4.49,10-10S144.93,92.98,139.42,92.98L139.42,92.98z"/>
				</g>
			</g>
		</g>
		<g>
			<g>
				<circle class="st9" cx="163.42" cy="102.98" r="7"/>
			</g>
			<g>
				<g>
					<path class="st5" d="M163.42,98.98c2.21,0,4,1.79,4,4c0,2.21-1.79,4-4,4s-4-1.79-4-4C159.42,100.77,161.21,98.98,163.42,98.98
						 M163.42,92.98c-5.51,0-10,4.49-10,10s4.49,10,10,10s10-4.49,10-10S168.93,92.98,163.42,92.98L163.42,92.98z"/>
				</g>
			</g>
		</g>
		<g>
			<path class="st10" d="M199.42,312.98h-90c-5.52,0-10-4.48-10-10v-20h100V312.98z"/>
		</g>
		<g>
			<rect x="99.42" y="122.98" class="st10" width="100" height="80"/>
		</g>
		<g>
			<g>
				<g>
					<circle class="st11" cx="160.42" cy="161.48" r="2.5"/>
				</g>
				<g>
					<circle class="st11" cx="165.92" cy="172.48" r="2.5"/>
				</g>
				<g>
					<circle class="st11" cx="154.92" cy="172.48" r="2.5"/>
				</g>
			</g>
			<g>
				<g>
					<path class="st5" d="M186.37,140.22c-1.95-0.16-4.25-0.47-6.15-0.17c-2.14,0.24-3.72,1.19-5.71,2.22
						c-1.68,0.88-3.57-1-2.75-2.67c1.9-4.63,7.88-6.6,12.45-5.07c1.95,0.65,6.2,2.34,4.3,4.99
						C187.97,140.18,187.14,140.26,186.37,140.22L186.37,140.22z"/>
				</g>
				<g>
					<path class="st5" d="M190.44,157.67c-1.38,0-2.5-1.12-2.5-2.5c0-1.93-1.57-3.5-3.5-3.5s-3.5,1.57-3.5,3.5
						c0,1.38-1.12,2.5-2.5,2.5s-2.5-1.12-2.5-2.5c0-4.69,3.81-8.5,8.5-8.5s8.5,3.81,8.5,8.5
						C192.94,156.55,191.82,157.67,190.44,157.67z"/>
				</g>
			</g>
		</g>
		<g>
			<rect x="99.42" y="200.98" class="st11" width="100" height="82"/>
		</g>
		<g class="st12">
			<rect x="99.42" y="200.98" class="st5" width="100" height="4"/>
		</g>
		<g>
			<path class="st10" d="M179.42,228.98c0,11.05,8.95,20,20,20v-40C188.37,208.98,179.42,217.94,179.42,228.98z"/>
		</g>
		<g>
			<circle class="st10" cx="139.42" cy="228.98" r="20"/>
		</g>
		<g class="st12">
			<path class="st5" d="M157.42,258.98h-36c-1.1,0-2-0.9-2-2l0,0c0-1.1,0.9-2,2-2h36c1.1,0,2,0.9,2,2l0,0
				C159.42,258.09,158.52,258.98,157.42,258.98z"/>
		</g>
		<g class="st12">
			<path class="st5" d="M157.42,266.98h-36c-1.1,0-2-0.9-2-2l0,0c0-1.1,0.9-2,2-2h36c1.1,0,2,0.9,2,2l0,0
				C159.42,266.09,158.52,266.98,157.42,266.98z"/>
		</g>
		<g class="st12">
			<path class="st5" d="M137.42,274.98h-16c-1.1,0-2-0.9-2-2l0,0c0-1.1,0.9-2,2-2h16c1.1,0,2,0.9,2,2l0,0
				C139.42,274.09,138.52,274.98,137.42,274.98z"/>
		</g>
		<g class="st12">
			<path class="st5" d="M199.42,258.98h-18c-1.1,0-2-0.9-2-2l0,0c0-1.1,0.9-2,2-2h18V258.98z"/>
		</g>
		<g>
			<path class="st11" d="M199.42,306.98h-11c-1.1,0-2-0.9-2-2l0,0c0-1.1,0.9-2,2-2h11V306.98z"/>
		</g>
		<g>
			<path class="st11" d="M199.42,298.98h-11c-1.1,0-2-0.9-2-2l0,0c0-1.1,0.9-2,2-2h11V298.98z"/>
		</g>
		<g class="st12">
			<path class="st5" d="M199.42,266.98h-18c-1.1,0-2-0.9-2-2l0,0c0-1.1,0.9-2,2-2h18V266.98z"/>
		</g>
		<g class="st12">
			<path class="st5" d="M199.42,274.98h-18c-1.1,0-2-0.9-2-2l0,0c0-1.1,0.9-2,2-2h18V274.98z"/>
		</g>
		<g>
			<path class="st11" d="M149.42,290.98c-13.8,0-25.41,9.32-28.91,22h57.83C174.83,300.3,163.21,290.98,149.42,290.98z"/>
		</g>
		<g>
			<path class="st5" d="M199.96,172.94c-6.53,0-13.16-1.85-18.6-5.25c-0.94-0.59-1.22-1.82-0.64-2.76c0.59-0.94,1.82-1.22,2.76-0.64
				c5.58,3.49,12.59,5.13,19.24,4.51c1.12-0.11,2.07,0.71,2.18,1.81c0.1,1.1-0.71,2.07-1.81,2.18
				C202.05,172.89,201,172.94,199.96,172.94z"/>
		</g>
		<g>
			<g>
				<path class="st5" d="M195.23,176.54c-0.49-0.15-1.05-0.01-1.41,0.41c-0.47,0.56-0.4,1.4,0.16,1.87l0.63,0.54
					c0.7,0.59,1.48,0.95,2.3,1.21c0.41,0.14,0.82,0.24,1.24,0.3c0.42,0.08,0.84,0.11,1.27,0.12h0v-3.83
					C198,177.1,196.58,176.96,195.23,176.54z"/>
			</g>
		</g>
	</g>
	<g>
		<g>
			<g>
				<path class="st4" d="M205.42,313.98c-1.66,0-3-1.34-3-3v-228c0-1.66,1.34-3,3-3h90c7.17,0,13,5.83,13,13v208
					c0,7.17-5.83,13-13,13H205.42z"/>
			</g>
			<g>
				<path class="st5" d="M295.42,82.98c5.52,0,10,4.48,10,10v208c0,5.52-4.48,10-10,10h-90v-228H295.42 M295.42,76.98h-90
					c-3.31,0-6,2.69-6,6v228c0,3.31,2.69,6,6,6h90c8.82,0,16-7.18,16-16v-208C311.42,84.16,304.24,76.98,295.42,76.98L295.42,76.98z
					"/>
			</g>
		</g>
		<g>
			<path class="st3" d="M295.42,310.98h-90v-50h100v40C305.42,306.5,300.94,310.98,295.42,310.98z"/>
		</g>
		<g>
			<rect x="205.42" y="116.98" class="st3" width="100" height="78"/>
		</g>
		<g>
			<g>
				<g class="st13">
					<circle class="st5" cx="246.42" cy="155.48" r="2.5"/>
				</g>
				<g class="st13">
					<circle class="st5" cx="251.92" cy="166.48" r="2.5"/>
				</g>
				<g class="st13">
					<circle class="st5" cx="240.92" cy="166.48" r="2.5"/>
				</g>
			</g>
		</g>
		<g>
			<rect x="205.42" y="194.98" class="st14" width="100" height="66"/>
		</g>
		<g>
			<path class="st4" d="M205.42,248.98h21c2.21,0,4-1.79,4-4v-36c0-2.21-1.79-4-4-4h-21V248.98z"/>
		</g>
		<g>
			<path class="st3" d="M222.42,230.98h-17v-4h17c1.1,0,2,0.9,2,2l0,0C224.42,230.09,223.52,230.98,222.42,230.98z"/>
		</g>
		<g>
			<path class="st3" d="M212.42,238.98h-7v-4h7c1.1,0,2,0.9,2,2l0,0C214.42,238.09,213.52,238.98,212.42,238.98z"/>
		</g>
		<g>
			<path class="st4" d="M244.42,248.98h42c2.21,0,4-1.79,4-4v-36c0-2.21-1.79-4-4-4h-42c-2.21,0-4,1.79-4,4v36
				C240.42,247.19,242.21,248.98,244.42,248.98z"/>
		</g>
		<g>
			<circle class="st14" cx="252.42" cy="216.98" r="6"/>
		</g>
		<g>
			<path class="st3" d="M282.42,230.98h-34c-1.1,0-2-0.9-2-2l0,0c0-1.1,0.9-2,2-2h34c1.1,0,2,0.9,2,2l0,0
				C284.42,230.09,283.52,230.98,282.42,230.98z"/>
		</g>
		<g>
			<path class="st3" d="M276.42,238.98h-28c-1.1,0-2-0.9-2-2l0,0c0-1.1,0.9-2,2-2h28c1.1,0,2,0.9,2,2l0,0
				C278.42,238.09,277.52,238.98,276.42,238.98z"/>
		</g>
		<g>
			<path class="st14" d="M265.42,270.98c-13.25,0-24,10.75-24,24c0,6.15,2.31,11.75,6.12,16h35.77c3.8-4.25,6.12-9.85,6.12-16
				C289.42,281.73,278.67,270.98,265.42,270.98z"/>
		</g>
		<g>
			<path class="st14" d="M205.42,270.98v40h17.88c3.8-4.25,6.12-9.85,6.12-16C229.42,281.73,218.67,270.98,205.42,270.98z"/>
		</g>
		<g>
			<g>
				<g>
					<g>
						<path class="st5" d="M226.92,159.58c-0.32,0-0.64-0.08-0.94-0.24c-1.89-1.02-5.21-1.02-7.11,0c-0.97,0.52-2.18,0.16-2.71-0.82
							c-0.52-0.97-0.16-2.19,0.82-2.71c3.05-1.64,7.84-1.64,10.89,0c0.97,0.52,1.34,1.73,0.82,2.71
							C228.32,159.2,227.63,159.58,226.92,159.58z"/>
					</g>
					<g>
						<g>
							<circle class="st5" cx="222.42" cy="148.83" r="8"/>
						</g>
						<g>
							<circle class="st4" cx="224.42" cy="148.83" r="2"/>
						</g>
					</g>
					<g>
						<path class="st5" d="M216.56,133.51c3.68-3.11,9.5-3.68,13.48-0.8c1.83,1.3,4.9,4.78,2.04,6.4c-0.73,0.35-1.49,0.16-2.13-0.21
							c-3.12-1.93-6.26-2.5-9.86-2.01c-0.77,0.07-1.51,0.18-2.23,0.14C216.02,137.06,215.16,134.65,216.56,133.51L216.56,133.51z"/>
					</g>
				</g>
			</g>
			<path class="st5" d="M222.42,162.98h-18c-2.76,0-5,2.24-5,5v18c0,2.76,2.24,5,5,5c12.68,0,23-10.32,23-23
				C227.42,165.22,225.18,162.98,222.42,162.98z"/>
			<g>
				<path class="st7" d="M217.81,179.98c-3.3,3.67-8.07,6-13.39,6v-12C209.74,173.98,214.51,176.31,217.81,179.98z"/>
			</g>
		</g>
		<g>
			<g>
				<path class="st6" d="M205.42,113.98c-1.66,0-3-1.34-3-3v-28c0-1.66,1.34-3,3-3h90c7.17,0,13,5.83,13,13v18c0,1.66-1.34,3-3,3
					H205.42z"/>
			</g>
			<g>
				<path class="st5" d="M295.42,82.98c5.52,0,10,4.48,10,10v18h-100v-28H295.42 M295.42,76.98h-90c-3.31,0-6,2.69-6,6v28
					c0,3.31,2.69,6,6,6h100c3.31,0,6-2.69,6-6v-18C311.42,84.16,304.24,76.98,295.42,76.98L295.42,76.98z"/>
			</g>
		</g>
		<g>
			<g>
				<path class="st4" d="M205.42,103.98c-1.66,0-3-1.34-3-3v-8c0-1.66,1.34-3,3-3h84c3.86,0,7,3.14,7,7s-3.14,7-7,7H205.42z"/>
			</g>
			<g>
				<g>
					<path class="st5" d="M289.42,92.98c2.21,0,4,1.79,4,4s-1.79,4-4,4h-84v-8H289.42 M289.42,86.98h-84c-3.31,0-6,2.69-6,6v8
						c0,3.31,2.69,6,6,6h84c5.51,0,10-4.49,10-10S294.93,86.98,289.42,86.98L289.42,86.98z"/>
				</g>
			</g>
		</g>
	</g>
	<g>
		<g>
			<path class="st5" d="M210.42,282.98L210.42,282.98c0,1.66-1.34,3-3,3h-10c-1.66,0-3-1.34-3-3v0c0-1.66,1.34-3,3-3h10
				C209.07,279.98,210.42,281.33,210.42,282.98z"/>
		</g>
		<g>
			<path class="st5" d="M210.42,291.98L210.42,291.98c0,1.66-1.34,3-3,3h-10c-1.66,0-3-1.34-3-3v0c0-1.66,1.34-3,3-3h10
				C209.07,288.98,210.42,290.33,210.42,291.98z"/>
		</g>
	</g>
	<g>
		<g>
			<path class="st5" d="M210.42,214.98L210.42,214.98c0,1.66-1.34,3-3,3h-10c-1.66,0-3-1.34-3-3l0,0c0-1.66,1.34-3,3-3h10
				C209.07,211.98,210.42,213.33,210.42,214.98z"/>
		</g>
		<g>
			<path class="st5" d="M210.42,223.98L210.42,223.98c0,1.66-1.34,3-3,3h-10c-1.66,0-3-1.34-3-3l0,0c0-1.66,1.34-3,3-3h10
				C209.07,220.98,210.42,222.33,210.42,223.98z"/>
		</g>
	</g>
	<g>
		<g>
			<path class="st5" d="M210.42,131.98L210.42,131.98c0,1.66-1.34,3-3,3h-10c-1.66,0-3-1.34-3-3l0,0c0-1.66,1.34-3,3-3h10
				C209.07,128.98,210.42,130.33,210.42,131.98z"/>
		</g>
		<g>
			<path class="st5" d="M210.42,140.98L210.42,140.98c0,1.66-1.34,3-3,3h-10c-1.66,0-3-1.34-3-3l0,0c0-1.66,1.34-3,3-3h10
				C209.07,137.98,210.42,139.33,210.42,140.98z"/>
		</g>
	</g>
</g>
<g>
	<g>
		<g>
			<circle class="st9" cx="314.88" cy="102.98" r="41"/>
		</g>
		<g>
			<g>
				<path class="st5" d="M314.88,64.98c20.99,0,38,17.01,38,38s-17.01,38-38,38s-38-17.01-38-38S293.89,64.98,314.88,64.98
					 M314.88,58.98c-24.26,0-44,19.74-44,44s19.74,44,44,44s44-19.74,44-44S339.14,58.98,314.88,58.98L314.88,58.98z"/>
			</g>
		</g>
	</g>
	<g>
		<polygon class="st15" points="311.16,126.12 293.13,108.09 300.91,100.31 311.16,110.56 334.85,86.88 342.63,94.65 		"/>
	</g>
	<g>
		<polygon class="st4" points="306.16,121.12 288.13,103.09 295.91,95.31 306.16,105.56 329.85,81.88 337.63,89.65 		"/>
	</g>
	<g>
		<path class="st4" d="M298.98,83.58c-1.49,0-2.7-1.21-2.7-2.7c0-0.5-0.4-0.9-0.9-0.9s-0.9,0.4-0.9,0.9c0,1.49-1.21,2.7-2.7,2.7
			c-0.5,0-0.9,0.4-0.9,0.9s0.4,0.9,0.9,0.9c1.49,0,2.7,1.21,2.7,2.7c0,0.5,0.4,0.9,0.9,0.9s0.9-0.4,0.9-0.9c0-1.49,1.21-2.7,2.7-2.7
			c0.5,0,0.9-0.4,0.9-0.9S299.48,83.58,298.98,83.58z"/>
	</g>
	<g>
		<circle class="st4" cx="329.38" cy="123.48" r="3.5"/>
	</g>
	<g>
		<circle class="st4" cx="319.38" cy="74.48" r="2.5"/>
	</g>
</g>
<g>
	<g>
		<g>
			<circle class="st7" cx="82.5" cy="289.76" r="41"/>
		</g>
		<g>
			<g>
				<path class="st5" d="M82.5,251.76c20.99,0,38,17.01,38,38s-17.01,38-38,38s-38-17.01-38-38S61.52,251.76,82.5,251.76
					 M82.5,245.76c-24.26,0-44,19.74-44,44s19.74,44,44,44s44-19.74,44-44S106.77,245.76,82.5,245.76L82.5,245.76z"/>
			</g>
		</g>
	</g>
	<g>
		
			<rect x="59.42" y="288.16" transform="matrix(0.7071 -0.7072 0.7072 0.7071 -182.6491 146.4036)" class="st16" width="51.93" height="11"/>
	</g>
	<g>
		
			<rect x="80" y="267.8" transform="matrix(0.7071 -0.7071 0.7071 0.7071 -182.6805 146.5037)" class="st16" width="11" height="51.93"/>
	</g>
	<g>
		
			<rect x="55.54" y="284.26" transform="matrix(0.7071 -0.7072 0.7072 0.7071 -181.0319 142.5184)" class="st4" width="51.93" height="11"/>
	</g>
	<g>
		
			<rect x="76" y="263.8" transform="matrix(0.7071 -0.7071 0.7071 0.7071 -181.0237 142.5036)" class="st4" width="11" height="51.93"/>
	</g>
</g>
</svg>
