<?xml version="1.0" encoding="utf-8"?>
<!-- Generator: Adobe Illustrator 26.0.2, SVG Export Plug-In . SVG Version: 6.00 Build 0)  -->
<svg version="1.1" id="Landing_x5F_Page_x5F_Hub-Startup_x5F_Landing_x5F_Page"
	 xmlns="http://www.w3.org/2000/svg" xmlns:xlink="http://www.w3.org/1999/xlink" x="0px" y="0px" viewBox="0 0 400 400"
	 style="enable-background:new 0 0 400 400;" xml:space="preserve">
<style type="text/css">
	.st0{fill:none;}
	.st1{fill:#FFD886;}
	.st2{fill:#FFFFFF;}
	.st3{fill:#515979;}
	.st4{fill:#E9E4FF;}
	.st5{fill:#EEEBFF;}
	.st6{fill:#667683;}
	.st7{fill:#EF7D7D;}
	.st8{fill:#FFE8A0;}
	.st9{fill:#7DDF96;}
	.st10{fill:#C4BDFF;}
	.st11{fill:#AAA0FF;}
	.st12{fill:#F3F9FE;}
	.st13{fill:#D8EBFB;}
	.st14{fill:#BBD9FC;}
	.st15{fill:#CFE5FF;}
	.st16{fill:#F89D81;}
</style>
<g>
	<rect x="0.5" y="0.98" class="st0" width="400" height="400"/>
</g>
<g>
	<g>
		<path class="st1" d="M183.73,347.2c2.98,0,5.4-2.42,5.4-5.4c0-0.99,0.81-1.8,1.8-1.8s1.8,0.81,1.8,1.8c0,2.98,2.42,5.4,5.4,5.4
			c0.99,0,1.8,0.81,1.8,1.8s-0.81,1.8-1.8,1.8c-2.98,0-5.4,2.42-5.4,5.4c0,0.99-0.81,1.8-1.8,1.8s-1.8-0.81-1.8-1.8
			c0-2.98-2.42-5.4-5.4-5.4c-0.99,0-1.8-0.81-1.8-1.8S182.74,347.2,183.73,347.2z"/>
	</g>
</g>
<g>
	<g>
		<circle class="st1" cx="114.25" cy="254.32" r="3"/>
	</g>
</g>
<g>
	<g>
		<circle class="st1" cx="203.79" cy="314.82" r="3"/>
	</g>
</g>
<g>
	<g>
		<circle class="st1" cx="371.86" cy="78.8" r="3"/>
	</g>
</g>
<g>
	<g>
		<circle class="st1" cx="139.77" cy="331.91" r="3"/>
	</g>
</g>
<g>
	<g>
		<circle class="st1" cx="117.25" cy="208.8" r="3"/>
	</g>
</g>
<g>
	<g>
		<circle class="st1" cx="336.95" cy="13.11" r="3"/>
	</g>
</g>
<g>
	<g>
		<circle class="st1" cx="379.6" cy="46.36" r="3"/>
	</g>
</g>
<g>
	<g>
		<circle class="st1" cx="87.95" cy="294.59" r="3"/>
	</g>
</g>
<g>
	<circle class="st1" cx="103.7" cy="349" r="4"/>
</g>
<path class="st1" d="M55.77,257.32h-6v-6c0-1.66-1.34-3-3-3s-3,1.34-3,3v6h-6c-1.66,0-3,1.34-3,3s1.34,3,3,3h6v6c0,1.66,1.34,3,3,3
	s3-1.34,3-3v-6h6c1.66,0,3-1.34,3-3S57.43,257.32,55.77,257.32z"/>
<g>
	<g>
		<g>
			<path class="st2" d="M160.86,293.8c-7.17,0-13-5.83-13-13v-226c0-7.17,5.83-13,13-13h180c7.17,0,13,5.83,13,13v226
				c0,7.17-5.83,13-13,13H160.86z"/>
		</g>
		<g>
			<path class="st3" d="M340.86,44.8c5.52,0,10,4.48,10,10v226c0,5.52-4.48,10-10,10h-180c-5.52,0-10-4.48-10-10v-226
				c0-5.52,4.48-10,10-10L340.86,44.8 M340.86,38.8h-180c-8.82,0-16,7.18-16,16v226c0,8.82,7.18,16,16,16h180c8.82,0,16-7.18,16-16
				v-226C356.86,45.98,349.68,38.8,340.86,38.8L340.86,38.8z"/>
		</g>
	</g>
	<g>
		<path class="st4" d="M340.86,290.8h-180c-5.52,0-10-4.48-10-10v-42h200v42C350.86,286.33,346.38,290.8,340.86,290.8z"/>
	</g>
	<g>
		<rect x="150.86" y="78.8" class="st5" width="200" height="72"/>
	</g>
	<g>
		<g>
			<path class="st6" d="M150.86,75.8c-1.66,0-3-1.34-3-3v-18c0-7.17,5.83-13,13-13h180c7.17,0,13,5.83,13,13v18c0,1.66-1.34,3-3,3
				H150.86z"/>
		</g>
		<g>
			<path class="st3" d="M340.86,44.8c5.52,0,10,4.48,10,10v18h-200v-18c0-5.52,4.48-10,10-10L340.86,44.8 M340.86,38.8h-180
				c-8.82,0-16,7.18-16,16v18c0,3.31,2.69,6,6,6h200c3.31,0,6-2.69,6-6v-18C356.86,45.98,349.68,38.8,340.86,38.8L340.86,38.8z"/>
		</g>
	</g>
	<g>
		<g>
			<path class="st2" d="M240.86,65.8c-3.86,0-7-3.14-7-7s3.14-7,7-7h94c3.86,0,7,3.14,7,7s-3.14,7-7,7H240.86z"/>
		</g>
		<g>
			<g>
				<path class="st3" d="M334.86,54.8c2.21,0,4,1.79,4,4s-1.79,4-4,4h-94c-2.21,0-4-1.79-4-4s1.79-4,4-4H334.86 M334.86,48.8h-94
					c-5.51,0-10,4.49-10,10s4.49,10,10,10h94c5.51,0,10-4.49,10-10S340.37,48.8,334.86,48.8L334.86,48.8z"/>
			</g>
		</g>
	</g>
	<g>
		<g>
			<circle class="st7" cx="166.86" cy="58.8" r="7"/>
		</g>
		<g>
			<g>
				<path class="st3" d="M166.86,54.8c2.21,0,4,1.79,4,4s-1.79,4-4,4s-4-1.79-4-4S164.65,54.8,166.86,54.8 M166.86,48.8
					c-5.51,0-10,4.49-10,10s4.49,10,10,10s10-4.49,10-10S172.37,48.8,166.86,48.8L166.86,48.8z"/>
			</g>
		</g>
	</g>
	<g>
		<g>
			<circle class="st8" cx="190.86" cy="58.8" r="7"/>
		</g>
		<g>
			<g>
				<path class="st3" d="M190.86,54.8c2.21,0,4,1.79,4,4s-1.79,4-4,4s-4-1.79-4-4S188.65,54.8,190.86,54.8 M190.86,48.8
					c-5.51,0-10,4.49-10,10s4.49,10,10,10s10-4.49,10-10S196.37,48.8,190.86,48.8L190.86,48.8z"/>
			</g>
		</g>
	</g>
	<g>
		<g>
			<circle class="st9" cx="214.86" cy="58.8" r="7"/>
		</g>
		<g>
			<g>
				<path class="st3" d="M214.86,54.8c2.21,0,4,1.79,4,4s-1.79,4-4,4s-4-1.79-4-4S212.65,54.8,214.86,54.8 M214.86,48.8
					c-5.51,0-10,4.49-10,10s4.49,10,10,10s10-4.49,10-10S220.37,48.8,214.86,48.8L214.86,48.8z"/>
			</g>
		</g>
	</g>
	<g>
		<rect x="150.86" y="150.8" class="st10" width="200" height="88"/>
	</g>
	<g>
		<rect x="150.86" y="150.8" class="st11" width="200" height="4"/>
	</g>
	<g>
		<path class="st11" d="M329.86,265.8h-88c-1.1,0-2-0.9-2-2l0,0c0-1.1,0.9-2,2-2h88c1.1,0,2,0.9,2,2l0,0
			C331.86,264.91,330.96,265.8,329.86,265.8z"/>
	</g>
	<g>
		<path class="st11" d="M315.86,273.8h-74c-1.1,0-2-0.9-2-2l0,0c0-1.1,0.9-2,2-2h74c1.1,0,2,0.9,2,2l0,0
			C317.86,272.91,316.96,273.8,315.86,273.8z"/>
	</g>
	<g>
		<path class="st11" d="M291.86,281.8h-50c-1.1,0-2-0.9-2-2l0,0c0-1.1,0.9-2,2-2h50c1.1,0,2,0.9,2,2l0,0
			C293.86,280.91,292.96,281.8,291.86,281.8z"/>
	</g>
	<g>
		<circle class="st5" cx="191.86" cy="183.8" r="21"/>
	</g>
	<g>
		<path class="st10" d="M200.86,244.8c-16.57,0-30,13.43-30,30c0,5.88,1.7,11.37,4.63,16h50.74c2.93-4.63,4.63-10.12,4.63-16
			C230.86,258.23,217.43,244.8,200.86,244.8z"/>
	</g>
	<g>
		<ellipse transform="matrix(0.1602 -0.9871 0.9871 0.1602 29.25 401.9792)" class="st5" cx="250.86" cy="183.8" rx="21" ry="21"/>
	</g>
	<g>
		<circle class="st5" cx="309.86" cy="183.8" r="21"/>
	</g>
	<g>
		<path class="st11" d="M208.86,214.8h-34c-1.1,0-2-0.9-2-2l0,0c0-1.1,0.9-2,2-2h34c1.1,0,2,0.9,2,2l0,0
			C210.86,213.91,209.96,214.8,208.86,214.8z"/>
	</g>
	<g>
		<path class="st11" d="M208.86,222.8h-34c-1.1,0-2-0.9-2-2l0,0c0-1.1,0.9-2,2-2h34c1.1,0,2,0.9,2,2l0,0
			C210.86,221.91,209.96,222.8,208.86,222.8z"/>
	</g>
	<g>
		<path class="st11" d="M198.86,230.8h-24c-1.1,0-2-0.9-2-2l0,0c0-1.1,0.9-2,2-2h24c1.1,0,2,0.9,2,2l0,0
			C200.86,229.91,199.96,230.8,198.86,230.8z"/>
	</g>
	<g>
		<path class="st11" d="M267.86,214.8h-34c-1.1,0-2-0.9-2-2l0,0c0-1.1,0.9-2,2-2h34c1.1,0,2,0.9,2,2l0,0
			C269.86,213.91,268.96,214.8,267.86,214.8z"/>
	</g>
	<g>
		<path class="st11" d="M267.86,222.8h-34c-1.1,0-2-0.9-2-2l0,0c0-1.1,0.9-2,2-2h34c1.1,0,2,0.9,2,2l0,0
			C269.86,221.91,268.96,222.8,267.86,222.8z"/>
	</g>
	<g>
		<path class="st11" d="M257.86,230.8h-24c-1.1,0-2-0.9-2-2l0,0c0-1.1,0.9-2,2-2h24c1.1,0,2,0.9,2,2l0,0
			C259.86,229.91,258.96,230.8,257.86,230.8z"/>
	</g>
	<g>
		<path class="st11" d="M326.86,214.8h-34c-1.1,0-2-0.9-2-2l0,0c0-1.1,0.9-2,2-2h34c1.1,0,2,0.9,2,2l0,0
			C328.86,213.91,327.96,214.8,326.86,214.8z"/>
	</g>
	<g>
		<path class="st11" d="M326.86,222.8h-34c-1.1,0-2-0.9-2-2l0,0c0-1.1,0.9-2,2-2h34c1.1,0,2,0.9,2,2l0,0
			C328.86,221.91,327.96,222.8,326.86,222.8z"/>
	</g>
	<g>
		<path class="st11" d="M316.86,230.8h-24c-1.1,0-2-0.9-2-2l0,0c0-1.1,0.9-2,2-2h24c1.1,0,2,0.9,2,2l0,0
			C318.86,229.91,317.96,230.8,316.86,230.8z"/>
	</g>
	<g>
		<path class="st3" d="M268.86,117.8L268.86,117.8h-36.01c-2.76,0-5,2.24-5,5c0,12.68,10.32,23,23,23c12.62,0,22.9-10.22,23-22.82
			c0-0.06,0-0.12,0-0.18C273.86,120.04,271.63,117.8,268.86,117.8z"/>
		<g>
			<g>
				<ellipse class="st7" cx="250.86" cy="134.8" rx="13.39" ry="6"/>
			</g>
		</g>
	</g>
	<g>
		<path class="st3" d="M260.88,91.59c3.68-3.2,9.6-3.78,13.59-0.77c1.81,1.35,4.82,4.88,1.93,6.45c-0.74,0.34-1.5,0.14-2.13-0.25
			c-1.05-0.55-1.86-1.12-2.73-1.43c-2.91-1.36-6.23-0.67-9.32-0.51C260.39,95.14,259.5,92.74,260.88,91.59L260.88,91.59z"/>
	</g>
	<g>
		<path class="st3" d="M238.88,95.08c-1.94-0.19-4.24-0.52-6.14-0.2c-2.14,0.25-3.69,1.26-5.66,2.33c-1,0.52-2.23,0.14-2.75-0.86
			c-0.3-0.57-0.3-1.22-0.06-1.77c1.83-4.71,7.87-6.81,12.48-5.23c1.95,0.66,6.22,2.41,4.28,5.04
			C240.48,95.06,239.65,95.13,238.88,95.08L238.88,95.08z"/>
	</g>
	<g>
		<g>
			<path class="st3" d="M242.86,113.3c-1.38,0-2.5-1.12-2.5-2.5c0-2.48-2.02-4.5-4.5-4.5s-4.5,2.02-4.5,4.5c0,1.38-1.12,2.5-2.5,2.5
				s-2.5-1.12-2.5-2.5c0-5.24,4.26-9.5,9.5-9.5s9.5,4.26,9.5,9.5C245.36,112.18,244.24,113.3,242.86,113.3z"/>
		</g>
	</g>
	<g>
		<g>
			<path class="st3" d="M272.86,113.3c-1.38,0-2.5-1.12-2.5-2.5c0-2.48-2.02-4.5-4.5-4.5s-4.5,2.02-4.5,4.5c0,1.38-1.12,2.5-2.5,2.5
				s-2.5-1.12-2.5-2.5c0-5.24,4.26-9.5,9.5-9.5s9.5,4.26,9.5,9.5C275.36,112.18,274.24,113.3,272.86,113.3z"/>
		</g>
	</g>
	<g>
		<g>
			<circle class="st11" cx="213.86" cy="115.3" r="2.5"/>
		</g>
		<g>
			<circle class="st11" cx="219.36" cy="126.3" r="2.5"/>
		</g>
		<g>
			<circle class="st11" cx="208.36" cy="126.3" r="2.5"/>
		</g>
	</g>
	<g>
		<g>
			<circle class="st11" cx="287.86" cy="115.3" r="2.5"/>
		</g>
		<g>
			<circle class="st11" cx="293.36" cy="126.3" r="2.5"/>
		</g>
		<g>
			<circle class="st11" cx="282.36" cy="126.3" r="2.5"/>
		</g>
	</g>
</g>
<g>
	<g>
		<g>
			<path class="st12" d="M295.86,390.32c-34.74,0-63-28.26-63-63v-77c0-1.66,1.34-3,3-3h150c1.66,0,3,1.34,3,3v77
				c0,34.74-28.26,63-63,63H295.86z"/>
		</g>
		<g>
			<g>
				<path class="st3" d="M385.86,250.32v77c0,33.14-26.86,60-60,60h-30c-33.14,0-60-26.86-60-60v-77H385.86 M385.86,244.32h-150
					c-3.31,0-6,2.69-6,6v77c0,36.39,29.61,66,66,66h30c36.39,0,66-29.61,66-66v-77C391.86,247.01,389.17,244.32,385.86,244.32
					L385.86,244.32z"/>
			</g>
		</g>
	</g>
	<g>
		<g>
			<path class="st13" d="M310.86,263.32c-20.16,0-39.14-1.05-53.43-2.96c-21.59-2.88-24.57-6.53-24.57-10.04s2.98-7.17,24.57-10.04
				c14.29-1.91,33.27-2.96,53.43-2.96s39.14,1.05,53.43,2.96c21.59,2.88,24.57,6.53,24.57,10.04s-2.98,7.17-24.57,10.04
				C350,262.27,331.02,263.32,310.86,263.32z"/>
		</g>
		<g>
			<path class="st3" d="M310.86,240.32c41.42,0,75,4.48,75,10s-33.58,10-75,10s-75-4.48-75-10
				C235.86,244.8,269.44,240.32,310.86,240.32 M310.86,234.32c-20.29,0-39.41,1.06-53.83,2.98c-7.23,0.96-12.98,2.11-17.08,3.4
				c-2.76,0.87-10.09,3.18-10.09,9.61c0,6.43,7.33,8.74,10.09,9.61c4.11,1.29,9.85,2.44,17.08,3.4c14.42,1.92,33.54,2.98,53.83,2.98
				s39.41-1.06,53.83-2.98c7.23-0.96,12.98-2.11,17.08-3.4c2.76-0.87,10.09-3.18,10.09-9.61c0-6.43-7.33-8.74-10.09-9.61
				c-4.11-1.29-9.85-2.44-17.08-3.4C350.27,235.38,331.15,234.32,310.86,234.32L310.86,234.32z"/>
		</g>
	</g>
	<g>
		<g>
			<path class="st13" d="M259.87,308.27c-0.24,0-0.49-0.01-0.74-0.04c-17.65-1.83-24.7-4.28-26.28-5.5v-27.37
				c4.66,1.8,12.94,3.61,27.65,5.04c3.62,0.35,6.35,3.35,6.35,6.97v13.9c0,1.88-0.73,3.64-2.07,4.96
				C263.47,307.54,261.72,308.27,259.87,308.27L259.87,308.27z"/>
		</g>
		<g>
			<path class="st3" d="M235.86,279.49c5.49,1.53,13.31,2.83,24.36,3.9c2.07,0.2,3.64,1.91,3.64,3.98v13.9c0,2.21-1.79,4-3.99,4
				c-0.14,0-0.28-0.01-0.43-0.02c-13.71-1.42-20.78-3.21-23.59-4.34L235.86,279.49 M229.86,269.32v34c0,3.21,11.34,6.06,28.97,7.89
				c0.35,0.04,0.7,0.05,1.05,0.05c5.44,0,9.99-4.43,9.99-10v-13.9c0-5.16-3.93-9.46-9.06-9.95
				C242.05,275.59,229.86,272.65,229.86,269.32L229.86,269.32z"/>
		</g>
	</g>
	<g>
		<g>
			<path class="st13" d="M361.85,308.27c-3.85,0-6.99-3.14-6.99-7v-13.9c0-3.62,2.73-6.62,6.35-6.97
				c14.71-1.43,22.99-3.24,27.65-5.04v27.37c-1.58,1.22-8.63,3.67-26.28,5.5C362.34,308.25,362.09,308.27,361.85,308.27
				L361.85,308.27z"/>
		</g>
		<g>
			<path class="st3" d="M385.86,279.49v21.42c-2.8,1.13-9.87,2.92-23.59,4.34c-0.14,0.01-0.29,0.02-0.43,0.02
				c-2.2,0-3.99-1.8-3.99-4v-13.9c0-2.07,1.56-3.78,3.64-3.98C372.55,282.31,380.37,281.02,385.86,279.49 M391.86,269.32
				c0,3.33-12.19,6.27-30.94,8.09c-5.13,0.5-9.06,4.8-9.06,9.95v13.9c0,5.57,4.54,10,9.99,10c0.35,0,0.69-0.02,1.05-0.05
				c17.62-1.83,28.97-4.68,28.97-7.89L391.86,269.32L391.86,269.32z"/>
		</g>
	</g>
	<g>
		<ellipse class="st14" cx="310.86" cy="254.32" rx="68.74" ry="6"/>
	</g>
	<g>
		<g>
			<path class="st13" d="M285.84,389.47c-0.17,0-0.33-0.01-0.5-0.04c-29.97-5.04-52.04-30.79-52.46-61.22
				c-0.01-0.89,0.37-1.74,1.05-2.32c0.55-0.47,1.24-0.72,1.95-0.72c0.17,0,0.33,0.01,0.5,0.04c29.97,5.04,52.04,30.79,52.46,61.22
				c0.01,0.89-0.37,1.74-1.05,2.32C287.24,389.22,286.55,389.47,285.84,389.47z"/>
		</g>
		<g>
			<g>
				<path class="st3" d="M235.88,328.17c28.09,4.73,49.55,28.96,49.96,58.3C257.75,381.74,236.29,357.51,235.88,328.17
					 M235.88,322.17c-1.42,0-2.81,0.51-3.91,1.45c-1.35,1.16-2.12,2.86-2.09,4.64c0.44,31.88,23.56,58.85,54.96,64.14
					c0.33,0.06,0.66,0.08,1,0.08c1.42,0,2.81-0.51,3.91-1.45c1.35-1.16,2.12-2.86,2.09-4.64c-0.44-31.88-23.56-58.85-54.96-64.14
					C236.54,322.2,236.21,322.17,235.88,322.17L235.88,322.17z"/>
			</g>
		</g>
	</g>
	<g>
		<g>
			<path class="st13" d="M335.88,389.47c-0.71,0-1.41-0.25-1.95-0.72c-0.68-0.58-1.06-1.43-1.05-2.32
				c0.42-30.43,22.49-56.18,52.46-61.22c0.17-0.03,0.33-0.04,0.5-0.04c0.71,0,1.41,0.25,1.95,0.72c0.68,0.58,1.06,1.43,1.05,2.32
				c-0.42,30.43-22.49,56.18-52.46,61.22C336.21,389.46,336.05,389.47,335.88,389.47z"/>
		</g>
		<g>
			<g>
				<path class="st3" d="M385.84,328.17L385.84,328.17 M385.84,328.17c-0.41,29.34-21.86,53.58-49.96,58.3
					C336.29,357.13,357.75,332.89,385.84,328.17 M385.84,322.17c-0.05,0-0.11,0-0.16,0c-0.32,0.01-0.64,0.04-0.95,0.1
					c-31.34,5.33-54.4,32.28-54.84,64.12c-0.02,1.78,0.74,3.48,2.09,4.64c1.1,0.94,2.48,1.45,3.91,1.45c0.33,0,0.66-0.03,1-0.08
					c31.34-5.27,54.43-32.15,54.96-63.95c0-0.09,0.01-0.18,0.01-0.27c0-3.3-2.66-5.97-5.95-6
					C385.87,322.17,385.86,322.17,385.84,322.17L385.84,322.17z M385.84,334.17L385.84,334.17L385.84,334.17L385.84,334.17z"/>
			</g>
		</g>
	</g>
	<g>
		<path class="st14" d="M284.82,386.27c0.34,0.06,0.68,0.14,1.02,0.19c-0.41-29.34-21.86-53.58-49.96-58.3
			c0.05,3.48,0.4,6.88,1.02,10.19C261.18,342.88,280.3,362,284.82,386.27z"/>
	</g>
	<g>
		<path class="st14" d="M384.82,338.36c0.62-3.31,0.97-6.72,1.02-10.19c-28.09,4.73-49.55,28.96-49.96,58.3
			c0.34-0.06,0.68-0.13,1.02-0.19C341.42,362,360.54,342.88,384.82,338.36z"/>
	</g>
	<g>
		<g>
			<g>
				<g>
					<path class="st3" d="M323.36,317.51c-0.71,0-1.4-0.38-1.76-1.05c-0.52-0.97-0.16-2.19,0.82-2.71c3.06-1.64,7.84-1.64,10.89,0
						c0.97,0.52,1.34,1.74,0.82,2.71s-1.74,1.34-2.71,0.82c-1.89-1.02-5.22-1.02-7.11,0C324,317.43,323.68,317.51,323.36,317.51z"/>
				</g>
				<g>
					<g>
						<circle class="st3" cx="327.86" cy="306.76" r="8"/>
					</g>
					<g>
						<circle class="st2" cx="329.86" cy="306.76" r="2"/>
					</g>
				</g>
				<g>
					<path class="st3" d="M322,290.44c3.68-3.11,9.5-3.68,13.48-0.8c1.83,1.3,4.9,4.78,2.04,6.4c-0.73,0.35-1.49,0.16-2.13-0.21
						c-3.12-1.93-6.26-2.5-9.86-2.01c-0.77,0.07-1.51,0.18-2.23,0.14C321.46,293.99,320.6,291.58,322,290.44L322,290.44z"/>
				</g>
				<g>
					<path class="st3" d="M289.36,317.51c-0.71,0-1.4-0.38-1.76-1.05c-0.52-0.97-0.16-2.19,0.82-2.71c3.06-1.64,7.84-1.64,10.89,0
						c0.97,0.52,1.34,1.74,0.82,2.71s-1.74,1.34-2.71,0.82c-1.89-1.02-5.22-1.02-7.11,0C290,317.43,289.68,317.51,289.36,317.51z"/>
				</g>
				<g>
					<g>
						<circle class="st3" cx="293.86" cy="306.76" r="8"/>
					</g>
					<g>
						<circle class="st2" cx="295.86" cy="306.76" r="2"/>
					</g>
				</g>
				<g>
					<path class="st3" d="M297.82,293.96c-2.9-0.28-6.02-0.65-8.74,0.51c-0.95,0.32-2.01,1.02-3.12,1.54
						c-1.68,0.88-3.57-1-2.75-2.68c1.9-4.63,7.88-6.6,12.45-5.07c1.95,0.65,6.2,2.34,4.3,4.99
						C299.41,293.92,298.58,294,297.82,293.96L297.82,293.96z"/>
				</g>
			</g>
		</g>
		<g>
			<circle class="st15" cx="271.86" cy="316.41" r="2.5"/>
		</g>
		<g>
			<circle class="st15" cx="277.36" cy="325.41" r="2.5"/>
		</g>
		<g>
			<circle class="st15" cx="266.36" cy="325.41" r="2.5"/>
		</g>
		<g>
			<circle class="st15" cx="349.86" cy="316.41" r="2.5"/>
		</g>
		<g>
			<circle class="st15" cx="355.36" cy="325.41" r="2.5"/>
		</g>
		<g>
			<circle class="st15" cx="344.36" cy="325.41" r="2.5"/>
		</g>
		<g>
			<path class="st3" d="M328.86,320.91L328.86,320.91h-36.01c-2.76,0-5,2.24-5,5c0,12.68,10.32,23,23,23
				c12.62,0,22.9-10.22,23-22.82c0-0.06,0-0.12,0-0.18C333.86,323.15,331.63,320.91,328.86,320.91z"/>
			<g>
				<g>
					<ellipse class="st7" cx="310.86" cy="337.91" rx="13.39" ry="6"/>
				</g>
			</g>
		</g>
	</g>
	<g>
		<path class="st3" d="M371.86,308.32c-1.66,0-3-1.34-3-3v-24c0-1.66,1.34-3,3-3s3,1.34,3,3v24
			C374.86,306.98,373.52,308.32,371.86,308.32z"/>
	</g>
	<g>
		<path class="st3" d="M249.86,308.32c-1.66,0-3-1.34-3-3v-24c0-1.66,1.34-3,3-3s3,1.34,3,3v24
			C252.86,306.98,251.52,308.32,249.86,308.32z"/>
	</g>
	<g>
		<path class="st3" d="M371.86,271.32c-1.1,0-2-0.9-2-2v-8c0-1.1,0.9-2,2-2s2,0.9,2,2v8C373.86,270.42,372.96,271.32,371.86,271.32z
			"/>
	</g>
	<g>
		<path class="st3" d="M363.86,272.32c-1.1,0-2-0.9-2-2v-8c0-1.1,0.9-2,2-2s2,0.9,2,2v8C365.86,271.42,364.96,272.32,363.86,272.32z
			"/>
	</g>
	<g>
		<path class="st3" d="M355.86,273.32c-1.1,0-2-0.9-2-2v-8c0-1.1,0.9-2,2-2s2,0.9,2,2v8C357.86,272.42,356.96,273.32,355.86,273.32z
			"/>
	</g>
	<g>
		<path class="st3" d="M379.86,270.32c-1.1,0-2-0.9-2-2v-8c0-1.1,0.9-2,2-2s2,0.9,2,2v8C381.86,269.42,380.96,270.32,379.86,270.32z
			"/>
	</g>
	<g>
		<path class="st3" d="M249.86,271.32c-1.1,0-2-0.9-2-2v-8c0-1.1,0.9-2,2-2s2,0.9,2,2v8C251.86,270.42,250.96,271.32,249.86,271.32z
			"/>
	</g>
	<g>
		<path class="st3" d="M257.86,272.32c-1.1,0-2-0.9-2-2v-8c0-1.1,0.9-2,2-2s2,0.9,2,2v8C259.86,271.42,258.96,272.32,257.86,272.32z
			"/>
	</g>
	<g>
		<path class="st3" d="M265.86,273.32c-1.1,0-2-0.9-2-2v-8c0-1.1,0.9-2,2-2s2,0.9,2,2v8C267.86,272.42,266.96,273.32,265.86,273.32z
			"/>
	</g>
	<g>
		<path class="st3" d="M241.86,270.32c-1.1,0-2-0.9-2-2v-8c0-1.1,0.9-2,2-2s2,0.9,2,2v8C243.86,269.42,242.96,270.32,241.86,270.32z
			"/>
	</g>
</g>
<g>
	<g>
		<g>
			<path class="st13" d="M70.49,211.33c-2.62,0-5.21-0.7-7.49-2.01l-48.5-28c-7.16-4.14-9.63-13.33-5.49-20.49l45-77.94
				c7.3-12.65,20.92-20.51,35.54-20.51c7.16,0,14.23,1.9,20.46,5.5l3.46,2c19.58,11.3,26.31,36.43,15.01,56.01l-45,77.94
				C80.82,208.46,75.84,211.33,70.49,211.33z"/>
		</g>
		<g>
			<path class="st3" d="M89.55,65.38c6.45,0,12.98,1.64,18.96,5.1l3.46,2c18.18,10.49,24.4,33.73,13.91,51.91l-45,77.94
				c-2.22,3.85-6.26,6-10.4,6c-2.04,0-4.1-0.52-5.99-1.61l-48.5-28c-5.74-3.31-7.71-10.65-4.39-16.39l45-77.94
				C63.65,72.2,76.42,65.38,89.55,65.38 M89.56,59.38C89.56,59.38,89.55,59.38,89.56,59.38c-15.69,0-30.31,8.43-38.14,22.01
				l-45,77.94c-2.4,4.16-3.04,9.01-1.8,13.66c1.24,4.64,4.22,8.53,8.39,10.93l48.5,28c2.73,1.58,5.84,2.41,8.99,2.41
				c6.42,0,12.39-3.45,15.6-9l45-77.94c12.13-21.01,4.91-47.97-16.11-60.11l-3.46-2C104.83,61.42,97.24,59.38,89.56,59.38
				L89.56,59.38z"/>
		</g>
	</g>
	<g>
		<path class="st2" d="M42.04,125.63l-21.5,37.24c-2.21,3.83-0.9,8.72,2.93,10.93l41.57,24c3.83,2.21,8.72,0.9,10.93-2.93
			l21.5-37.24C86.49,133.97,53.01,149.28,42.04,125.63z"/>
	</g>
	<g>
		<path class="st14" d="M111.98,72.48l-3.46-2c-11.07-6.39-24.02-6.57-34.82-1.63l57.11,32.97C129.68,90,123.05,78.87,111.98,72.48z
			"/>
	</g>
	<g>
		<path class="st3" d="M138.74,13.11c1.53,0,3.09,0.39,4.52,1.21c4.33,2.5,5.81,8.03,3.31,12.36c-0.82,1.43-1.98,2.54-3.31,3.3l0,0
			c-17.16,10.62,3.55,24.71-2.85,35.8L100.1,42.53c6.28-10.88,28.96-0.2,29.58-20.37l0,0c0-1.54,0.38-3.09,1.21-4.52
			C132.57,14.73,135.61,13.11,138.74,13.11 M138.74,7.11c-5.36,0-10.36,2.88-13.04,7.53c-1.27,2.21-1.97,4.72-2.01,7.28
			c0,0.02,0,0.04,0,0.06c-0.2,6.54-2.81,7.24-11.02,8.49c-6.11,0.93-13.72,2.08-17.75,9.07c-0.8,1.38-1.01,3.02-0.6,4.55
			c0.41,1.54,1.42,2.85,2.8,3.64l40.29,23.26c0.92,0.53,1.96,0.8,3,0.8c0.52,0,1.04-0.07,1.55-0.2c1.54-0.41,2.85-1.42,3.64-2.8
			c4.11-7.11,1.27-14.32-1.01-20.11c-3.25-8.25-3.45-10.33,1.83-13.6c0.02-0.01,0.03-0.02,0.05-0.03c2.19-1.31,4.02-3.17,5.3-5.38
			c2.01-3.48,2.54-7.54,1.5-11.42s-3.53-7.13-7.01-9.14C143.96,7.81,141.37,7.11,138.74,7.11L138.74,7.11z"/>
	</g>
	<g>
		<g>
			<path class="st16" d="M139.19,95.35c-1.05,0-2.09-0.28-3-0.8l-58.89-34c-1.39-0.8-2.38-2.09-2.8-3.64
				c-0.42-1.55-0.2-3.17,0.6-4.55l9-15.59c1.07-1.85,3.06-3,5.2-3c1.05,0,2.09,0.28,3,0.8l58.89,34c1.39,0.8,2.38,2.09,2.8,3.64
				s0.2,3.17-0.6,4.55l-9,15.59C143.32,94.2,141.33,95.35,139.19,95.35z"/>
		</g>
		<g>
			<path class="st3" d="M89.31,36.76c0.51,0,1.02,0.13,1.5,0.4l58.89,34c1.43,0.83,1.93,2.66,1.1,4.1l-9,15.59
				c-0.56,0.96-1.56,1.5-2.6,1.5c-0.51,0-1.02-0.13-1.5-0.4l-58.89-34c-1.43-0.83-1.93-2.66-1.1-4.1l9-15.59
				C87.26,37.29,88.27,36.76,89.31,36.76 M89.31,30.76L89.31,30.76c-3.21,0-6.19,1.72-7.8,4.5l-9,15.59
				c-1.2,2.08-1.52,4.51-0.9,6.83c0.62,2.32,2.11,4.26,4.19,5.46l58.89,34c1.37,0.79,2.92,1.21,4.5,1.21c3.21,0,6.19-1.72,7.8-4.5
				l9-15.59c1.2-2.08,1.52-4.51,0.9-6.83c-0.62-2.32-2.11-4.26-4.19-5.46l-58.89-34C92.44,31.17,90.88,30.76,89.31,30.76
				L89.31,30.76z"/>
		</g>
	</g>
	<g>
		<path class="st7" d="M111.25,71.75c-0.34,0-0.68-0.09-1-0.27c-0.96-0.55-1.28-1.78-0.73-2.73l6-10.39
			c0.55-0.96,1.77-1.29,2.73-0.73c0.96,0.55,1.28,1.78,0.73,2.73l-6,10.39C112.61,71.39,111.94,71.75,111.25,71.75z"/>
	</g>
	<g>
		<path class="st7" d="M122.51,78.25c-0.34,0-0.68-0.09-1-0.27c-0.96-0.55-1.28-1.78-0.73-2.73l6-10.39
			c0.55-0.96,1.78-1.29,2.73-0.73c0.96,0.55,1.28,1.78,0.73,2.73l-6,10.39C123.87,77.89,123.2,78.25,122.51,78.25z"/>
	</g>
	<g>
		<path class="st7" d="M133.77,84.75c-0.34,0-0.68-0.09-1-0.27c-0.96-0.55-1.28-1.78-0.73-2.73l6-10.39
			c0.55-0.96,1.78-1.28,2.73-0.73c0.96,0.55,1.28,1.78,0.73,2.73l-6,10.39C135.13,84.39,134.46,84.75,133.77,84.75z"/>
	</g>
	<g>
		<path class="st7" d="M88.73,58.75c-0.34,0-0.68-0.09-1-0.27c-0.96-0.55-1.28-1.78-0.73-2.73l6-10.39
			c0.55-0.96,1.77-1.28,2.73-0.73c0.96,0.55,1.28,1.78,0.73,2.73l-6,10.39C90.1,58.39,89.42,58.75,88.73,58.75z"/>
	</g>
	<g>
		<path class="st7" d="M99.99,65.25c-0.34,0-0.68-0.09-1-0.27c-0.96-0.55-1.28-1.78-0.73-2.73l6-10.39
			c0.55-0.96,1.77-1.29,2.73-0.73c0.96,0.55,1.28,1.78,0.73,2.73l-6,10.39C101.35,64.89,100.68,65.25,99.99,65.25z"/>
	</g>
	<g>
		<g>
			<g>
				<path class="st3" d="M97.08,123.94c-0.27-1.02-0.94-1.9-1.86-2.43l-20.78-12c-0.61-0.35-1.3-0.54-2-0.54
					c-0.35,0-0.69,0.05-1.04,0.14c-1.02,0.27-1.9,0.94-2.43,1.86c-4.41,7.64-1.78,17.45,5.86,21.86c2.43,1.4,5.19,2.15,7.99,2.15
					c5.7,0,11.02-3.07,13.87-8C97.22,126.06,97.36,124.97,97.08,123.94z"/>
				<g>
					<g>
						<ellipse transform="matrix(0.5 -0.866 0.866 0.5 -69.6242 131.2116)" class="st7" cx="78.82" cy="125.9" rx="4" ry="8.93"/>
					</g>
				</g>
			</g>
		</g>
		<g>
			<g>
				<g>
					<path class="st3" d="M103.82,99.01c4.65-0.71,9.55,2.38,10.98,6.85c0.65,1.98,1.29,6.34-1.88,6.15
						c-1.36-0.16-1.9-1.64-2.48-2.62c-1.33-2.43-3.16-4.33-5.61-5.65c-0.72-0.38-1.4-0.8-1.98-1.31
						C101.51,101.43,102.19,99.15,103.82,99.01L103.82,99.01z"/>
				</g>
				<g>
					<path class="st3" d="M86.28,93.02c-1.52-0.85-3.27-1.95-4.98-2.32c-1.79-0.5-3.68-0.4-5.58-0.43
						c-1.31,0.02-2.46-0.91-2.32-2.29c0.06-0.58,0.36-1.08,0.79-1.41c1.17-0.9,2.53-1.58,4.01-1.84c3.79-0.83,8.06,0.91,10.29,4.04
						c0.98,1.31,2.2,3.6,0.12,4.56C87.84,93.72,86.99,93.3,86.28,93.02L86.28,93.02z"/>
				</g>
				<g>
					<path class="st3" d="M81.52,107.78c-0.42,0-0.85-0.11-1.25-0.34c-1.2-0.69-1.61-2.22-0.92-3.42c0.69-1.19,0.28-2.73-0.92-3.42
						c-0.58-0.33-1.25-0.42-1.9-0.25s-1.18,0.59-1.52,1.17c-0.69,1.2-2.22,1.61-3.42,0.92s-1.61-2.22-0.92-3.42
						c1-1.73,2.62-2.98,4.55-3.49c1.93-0.52,3.96-0.25,5.69,0.75c3.58,2.07,4.81,6.66,2.75,10.25
						C83.22,107.34,82.38,107.78,81.52,107.78z"/>
				</g>
				<g>
					<path class="st3" d="M104,120.76c-0.42,0-0.85-0.11-1.25-0.34c-1.2-0.69-1.61-2.22-0.92-3.42c0.33-0.58,0.42-1.25,0.25-1.9
						c-0.17-0.64-0.59-1.18-1.16-1.52c-0.58-0.33-1.25-0.42-1.9-0.25s-1.18,0.59-1.52,1.17c-0.69,1.2-2.22,1.61-3.42,0.92
						s-1.61-2.22-0.92-3.42c1-1.73,2.62-2.98,4.55-3.49c1.93-0.52,3.96-0.25,5.69,0.75s2.98,2.62,3.49,4.55s0.25,3.96-0.75,5.69
						C105.7,120.31,104.86,120.76,104,120.76z"/>
				</g>
			</g>
		</g>
	</g>
	<g>
		<g>
			<circle class="st14" cx="103.04" cy="131.98" r="2"/>
		</g>
		<g>
			<circle class="st14" cx="109.96" cy="135.98" r="2"/>
		</g>
		<g>
			<circle class="st14" cx="110.5" cy="127.05" r="2"/>
		</g>
	</g>
	<g>
		<g>
			<circle class="st14" cx="54.54" cy="103.98" r="2"/>
		</g>
		<g>
			<circle class="st14" cx="61.47" cy="107.98" r="2"/>
		</g>
		<g>
			<circle class="st14" cx="62" cy="99.05" r="2"/>
		</g>
	</g>
	<g>
		<path class="st3" d="M33.29,168.77c-0.34,0-0.68-0.09-1-0.27l-8.66-5c-0.96-0.55-1.28-1.78-0.73-2.73
			c0.55-0.96,1.77-1.29,2.73-0.73l8.66,5c0.96,0.55,1.28,1.78,0.73,2.73C34.66,168.41,33.99,168.77,33.29,168.77z"/>
	</g>
	<g>
		<path class="st3" d="M34.83,158.11c-0.34,0-0.68-0.09-1-0.27l-5.2-3c-0.96-0.55-1.28-1.78-0.73-2.73
			c0.55-0.96,1.77-1.29,2.73-0.73l5.2,3c0.96,0.55,1.28,1.78,0.73,2.73C36.19,157.75,35.52,158.11,34.83,158.11z"/>
	</g>
	<g>
		<path class="st3" d="M43.29,151.45c-0.34,0-0.68-0.09-1-0.27l-8.66-5c-0.96-0.55-1.28-1.78-0.73-2.73
			c0.55-0.96,1.78-1.28,2.73-0.73l8.66,5c0.96,0.55,1.28,1.78,0.73,2.73C44.66,151.09,43.99,151.45,43.29,151.45z"/>
	</g>
	<g>
		<path class="st3" d="M44.83,140.79c-0.34,0-0.68-0.09-1-0.27l-5.2-3c-0.96-0.55-1.28-1.78-0.73-2.73
			c0.55-0.96,1.78-1.28,2.73-0.73l5.2,3c0.96,0.55,1.28,1.78,0.73,2.73C46.19,140.43,45.52,140.79,44.83,140.79z"/>
	</g>
	<g>
		<path class="st3" d="M53.29,134.13c-0.34,0-0.68-0.09-1-0.27l-8.66-5c-0.96-0.55-1.28-1.78-0.73-2.73
			c0.55-0.96,1.77-1.29,2.73-0.73l8.66,5c0.96,0.55,1.28,1.78,0.73,2.73C54.66,133.77,53.99,134.13,53.29,134.13z"/>
	</g>
	<g>
		<path class="st3" d="M20.77,168.47c-0.34,0-0.68-0.09-1-0.27c-0.96-0.55-1.28-1.78-0.73-2.73l26-45.03
			c0.55-0.96,1.77-1.28,2.73-0.73c0.96,0.55,1.28,1.78,0.73,2.73l-26,45.03C22.13,168.11,21.46,168.47,20.77,168.47z"/>
	</g>
</g>
</svg>
