<?xml version="1.0" encoding="utf-8"?>
<!-- Generator: Adobe Illustrator 26.0.2, SVG Export Plug-In . SVG Version: 6.00 Build 0)  -->
<svg version="1.1" id="Landing_x5F_Page_x5F_Hub-Landing_x5F_Page_x5F_forms"
	 xmlns="http://www.w3.org/2000/svg" xmlns:xlink="http://www.w3.org/1999/xlink" x="0px" y="0px" viewBox="0 0 400 400"
	 style="enable-background:new 0 0 400 400;" xml:space="preserve">
<style type="text/css">
	.st0{fill:#C7BCFF;}
	.st1{fill:#515979;}
	.st2{fill:#667683;}
	.st3{fill:#FFFFFF;}
	.st4{fill:#EF7D7D;}
	.st5{fill:#FFE8A0;}
	.st6{fill:#7DDF96;}
	.st7{fill:#AAA0FF;}
	.st8{fill:#E9E4FF;}
	.st9{fill:#F89D81;}
	.st10{fill:#FDE1D9;}
	.st11{fill:none;}
	.st12{fill:#FFD886;}
</style>
<g>
	<g>
		<g>
			<path class="st0" d="M17.21,304.68c-7.17,0-13-5.83-13-13v-274c0-7.17,5.83-13,13-13h192c7.17,0,13,5.83,13,13v274
				c0,7.17-5.83,13-13,13H17.21z"/>
		</g>
		<g>
			<path class="st1" d="M209.21,7.68c5.52,0,10,4.48,10,10v274c0,5.52-4.48,10-10,10h-192c-5.52,0-10-4.48-10-10v-274
				c0-5.52,4.48-10,10-10H209.21 M209.21,1.68h-192c-8.82,0-16,7.18-16,16v274c0,8.82,7.18,16,16,16h192c8.82,0,16-7.18,16-16v-274
				C225.21,8.86,218.03,1.68,209.21,1.68L209.21,1.68z"/>
		</g>
	</g>
	<g>
		<g>
			<path class="st2" d="M7.21,38.68c-1.66,0-3-1.34-3-3v-18c0-7.17,5.83-13,13-13h192c7.17,0,13,5.83,13,13v18c0,1.66-1.34,3-3,3
				H7.21z"/>
		</g>
		<g>
			<path class="st1" d="M209.21,7.68c5.52,0,10,4.48,10,10v18h-212v-18c0-5.52,4.48-10,10-10H209.21 M209.21,1.68h-192
				c-8.82,0-16,7.18-16,16v18c0,3.31,2.69,6,6,6h212c3.31,0,6-2.69,6-6v-18C225.21,8.86,218.03,1.68,209.21,1.68L209.21,1.68z"/>
		</g>
	</g>
	<g>
		<g>
			<path class="st3" d="M97.21,28.68c-3.86,0-7-3.14-7-7s3.14-7,7-7h106c3.86,0,7,3.14,7,7s-3.14,7-7,7H97.21z"/>
		</g>
		<g>
			<g>
				<path class="st1" d="M203.21,17.68c2.21,0,4,1.79,4,4s-1.79,4-4,4h-106c-2.21,0-4-1.79-4-4s1.79-4,4-4H203.21 M203.21,11.68
					h-106c-5.51,0-10,4.49-10,10s4.49,10,10,10h106c5.51,0,10-4.49,10-10S208.72,11.68,203.21,11.68L203.21,11.68z"/>
			</g>
		</g>
	</g>
	<g>
		<g>
			<circle class="st4" cx="23.21" cy="21.68" r="7"/>
		</g>
		<g>
			<g>
				<path class="st1" d="M23.21,17.68c2.21,0,4,1.79,4,4s-1.79,4-4,4s-4-1.79-4-4S21,17.68,23.21,17.68 M23.21,11.68
					c-5.51,0-10,4.49-10,10s4.49,10,10,10s10-4.49,10-10S28.72,11.68,23.21,11.68L23.21,11.68z"/>
			</g>
		</g>
	</g>
	<g>
		<g>
			<circle class="st5" cx="47.21" cy="21.68" r="7"/>
		</g>
		<g>
			<g>
				<path class="st1" d="M47.21,17.68c2.21,0,4,1.79,4,4s-1.79,4-4,4s-4-1.79-4-4S45,17.68,47.21,17.68 M47.21,11.68
					c-5.51,0-10,4.49-10,10s4.49,10,10,10s10-4.49,10-10S52.72,11.68,47.21,11.68L47.21,11.68z"/>
			</g>
		</g>
	</g>
	<g>
		<g>
			<circle class="st6" cx="71.21" cy="21.68" r="7"/>
		</g>
		<g>
			<g>
				<path class="st1" d="M71.21,17.68c2.21,0,4,1.79,4,4s-1.79,4-4,4s-4-1.79-4-4S69,17.68,71.21,17.68 M71.21,11.68
					c-5.51,0-10,4.49-10,10s4.49,10,10,10s10-4.49,10-10S76.72,11.68,71.21,11.68L71.21,11.68z"/>
			</g>
		</g>
	</g>
	<g>
		<g>
			<circle class="st7" cx="72.21" cy="78.18" r="2.5"/>
		</g>
		<g>
			<circle class="st7" cx="77.71" cy="89.18" r="2.5"/>
		</g>
		<g>
			<circle class="st7" cx="66.71" cy="89.18" r="2.5"/>
		</g>
	</g>
	<g>
		<g>
			<circle class="st7" cx="154.21" cy="78.18" r="2.5"/>
		</g>
		<g>
			<circle class="st7" cx="159.71" cy="89.18" r="2.5"/>
		</g>
		<g>
			<circle class="st7" cx="148.71" cy="89.18" r="2.5"/>
		</g>
	</g>
	<g>
		<rect x="7.21" y="116.68" class="st8" width="212" height="148"/>
	</g>
	<g>
		<g>
			<path class="st6" d="M54.21,249.68c-2.76,0-5-2.24-5-5v-12c0-2.76,2.24-5,5-5h118c2.76,0,5,2.24,5,5v12c0,2.76-2.24,5-5,5H54.21z
				"/>
		</g>
		<g>
			<path class="st1" d="M172.21,230.68c1.1,0,2,0.9,2,2v12c0,1.1-0.9,2-2,2h-118c-1.1,0-2-0.9-2-2v-12c0-1.1,0.9-2,2-2H172.21
				 M172.21,224.68h-118c-4.41,0-8,3.59-8,8v12c0,4.41,3.59,8,8,8h118c4.41,0,8-3.59,8-8v-12
				C180.21,228.27,176.62,224.68,172.21,224.68L172.21,224.68z"/>
		</g>
	</g>
	<g>
		<g>
			<g>
				<path class="st1" d="M131.21,81.4L131.21,81.4H95.21c-2.76,0-5,2.24-5,5c0,12.68,10.32,23,23,23c12.62,0,22.9-10.22,23-22.82
					c0-0.06,0-0.12,0-0.18C136.21,83.64,133.97,81.4,131.21,81.4z"/>
				<g>
					<g>
						<ellipse class="st4" cx="113.21" cy="98.4" rx="13.39" ry="6"/>
					</g>
				</g>
			</g>
		</g>
		<g>
			<g>
				<path class="st1" d="M132.71,78.15c-0.32,0-0.64-0.08-0.94-0.24c-1.89-1.02-5.22-1.02-7.11,0c-0.97,0.52-2.19,0.16-2.71-0.82
					c-0.52-0.97-0.16-2.19,0.82-2.71c3.05-1.64,7.84-1.64,10.89,0c0.97,0.52,1.34,1.73,0.82,2.71
					C134.11,77.77,133.42,78.15,132.71,78.15z"/>
			</g>
			<g>
				<g>
					<circle class="st1" cx="128.21" cy="67.4" r="8"/>
				</g>
				<g>
					<circle class="st3" cx="130.21" cy="67.4" r="2"/>
				</g>
			</g>
			<g>
				<path class="st1" d="M122.32,52.02c3.68-3.2,9.6-3.78,13.59-0.77c1.81,1.35,4.82,4.88,1.93,6.45c-0.74,0.34-1.5,0.14-2.13-0.25
					c-1.05-0.55-1.86-1.12-2.73-1.43c-2.91-1.36-6.23-0.67-9.32-0.51C121.83,55.57,120.94,53.17,122.32,52.02L122.32,52.02z"/>
			</g>
			<g>
				<path class="st1" d="M102.71,78.15c-0.32,0-0.64-0.08-0.94-0.24c-1.89-1.02-5.22-1.02-7.11,0c-0.97,0.52-2.19,0.16-2.71-0.82
					c-0.52-0.97-0.16-2.19,0.82-2.71c3.05-1.64,7.84-1.64,10.89,0c0.97,0.52,1.34,1.73,0.82,2.71
					C104.11,77.77,103.42,78.15,102.71,78.15z"/>
			</g>
			<g>
				<g>
					<circle class="st1" cx="98.21" cy="67.4" r="8"/>
				</g>
				<g>
					<circle class="st3" cx="100.21" cy="67.4" r="2"/>
				</g>
			</g>
			<g>
				<path class="st1" d="M102.14,55.51c-1.94-0.19-4.24-0.52-6.14-0.2c-2.14,0.25-3.69,1.26-5.66,2.33c-1,0.52-2.23,0.14-2.75-0.86
					c-0.3-0.57-0.3-1.22-0.06-1.77c1.83-4.71,7.87-6.81,12.48-5.23c1.95,0.66,6.22,2.41,4.28,5.04
					C103.74,55.49,102.91,55.56,102.14,55.51L102.14,55.51z"/>
			</g>
		</g>
	</g>
	<g>
		<path class="st3" d="M178.21,214.68h-130c-1.1,0-2-0.9-2-2v-8c0-1.1,0.9-2,2-2h130c1.1,0,2,0.9,2,2v8
			C180.21,213.78,179.31,214.68,178.21,214.68z"/>
	</g>
	<g>
		<path class="st3" d="M178.21,180.68h-130c-1.1,0-2-0.9-2-2v-8c0-1.1,0.9-2,2-2h130c1.1,0,2,0.9,2,2v8
			C180.21,179.78,179.31,180.68,178.21,180.68z"/>
	</g>
	<g>
		<path class="st1" d="M113.21,196.68h-64c-1.66,0-3-1.34-3-3v0c0-1.66,1.34-3,3-3l64,0c1.66,0,3,1.34,3,3v0
			C116.21,195.33,114.86,196.68,113.21,196.68z"/>
	</g>
	<g>
		<path class="st1" d="M113.21,162.68h-64c-1.66,0-3-1.34-3-3v0c0-1.66,1.34-3,3-3l64,0c1.66,0,3,1.34,3,3v0
			C116.21,161.33,114.86,162.68,113.21,162.68z"/>
	</g>
	<g>
		<path class="st1" d="M160.21,146.68h-111c-1.66,0-3-1.34-3-3v0c0-1.66,1.34-3,3-3l111,0c1.66,0,3,1.34,3,3v0
			C163.21,145.33,161.86,146.68,160.21,146.68z"/>
	</g>
	<g>
		<path class="st1" d="M177.21,134.68h-128c-1.66,0-3-1.34-3-3v0c0-1.66,1.34-3,3-3l128,0c1.66,0,3,1.34,3,3v0
			C180.21,133.33,178.86,134.68,177.21,134.68z"/>
	</g>
</g>
<g>
	<g>
		<g>
			<path class="st9" d="M247.88,394.93c-7.17,0-13-5.83-13-13v-198c0-7.17,5.83-13,13-13h134c7.17,0,13,5.83,13,13v198
				c0,7.17-5.83,13-13,13H247.88z"/>
		</g>
		<g>
			<g>
				<path class="st1" d="M381.88,173.93c5.52,0,10,4.48,10,10v198c0,5.52-4.48,10-10,10h-134c-5.52,0-10-4.48-10-10v-198
					c0-5.52,4.48-10,10-10H381.88 M381.88,167.93h-134c-8.82,0-16,7.18-16,16v198c0,8.82,7.18,16,16,16h134c8.82,0,16-7.18,16-16
					v-198C397.88,175.11,390.71,167.93,381.88,167.93L381.88,167.93z"/>
			</g>
		</g>
	</g>
	<g>
		<rect x="237.88" y="265.93" class="st10" width="154" height="72"/>
	</g>
	<g>
		<g>
			<path class="st2" d="M237.88,204.93c-1.66,0-3-1.34-3-3v-18c0-7.17,5.83-13,13-13h134c7.17,0,13,5.83,13,13v18c0,1.66-1.34,3-3,3
				H237.88z"/>
		</g>
		<g>
			<path class="st1" d="M381.88,173.93c5.52,0,10,4.48,10,10v18h-154v-18c0-5.52,4.48-10,10-10H381.88 M381.88,167.93h-134
				c-8.82,0-16,7.18-16,16v18c0,3.31,2.69,6,6,6h154c3.31,0,6-2.69,6-6v-18C397.88,175.11,390.71,167.93,381.88,167.93
				L381.88,167.93z"/>
		</g>
	</g>
	<g>
		<g>
			<path class="st3" d="M318.88,192.93c-3.31,0-6-2.69-6-6s2.69-6,6-6h58c3.31,0,6,2.69,6,6s-2.69,6-6,6H318.88z"/>
		</g>
		<g>
			<g>
				<path class="st1" d="M376.88,183.93c1.66,0,3,1.34,3,3c0,1.66-1.34,3-3,3h-58c-1.66,0-3-1.34-3-3c0-1.66,1.34-3,3-3H376.88
					 M376.88,177.93h-58c-4.96,0-9,4.04-9,9s4.04,9,9,9h58c4.96,0,9-4.04,9-9S381.85,177.93,376.88,177.93L376.88,177.93z"/>
			</g>
		</g>
	</g>
	<g>
		<g>
			<circle class="st4" cx="252.88" cy="186.93" r="6"/>
		</g>
		<g>
			<g>
				<path class="st1" d="M252.88,183.93c1.66,0,3,1.34,3,3c0,1.66-1.34,3-3,3c-1.66,0-3-1.34-3-3
					C249.88,185.27,251.23,183.93,252.88,183.93 M252.88,177.93c-4.96,0-9,4.04-9,9s4.04,9,9,9c4.96,0,9-4.04,9-9
					S257.85,177.93,252.88,177.93L252.88,177.93z"/>
			</g>
		</g>
	</g>
	<g>
		<g>
			<circle class="st5" cx="273.88" cy="186.93" r="6"/>
		</g>
		<g>
			<g>
				<path class="st1" d="M273.88,183.93c1.66,0,3,1.34,3,3c0,1.66-1.34,3-3,3c-1.66,0-3-1.34-3-3
					C270.88,185.27,272.23,183.93,273.88,183.93 M273.88,177.93c-4.96,0-9,4.04-9,9s4.04,9,9,9c4.96,0,9-4.04,9-9
					S278.85,177.93,273.88,177.93L273.88,177.93z"/>
			</g>
		</g>
	</g>
	<g>
		<g>
			<circle class="st6" cx="294.88" cy="186.93" r="6"/>
		</g>
		<g>
			<g>
				<path class="st1" d="M294.88,183.93c1.66,0,3,1.34,3,3c0,1.66-1.34,3-3,3c-1.66,0-3-1.34-3-3
					C291.88,185.27,293.23,183.93,294.88,183.93 M294.88,177.93c-4.96,0-9,4.04-9,9s4.04,9,9,9c4.96,0,9-4.04,9-9
					S299.85,177.93,294.88,177.93L294.88,177.93z"/>
			</g>
		</g>
	</g>
	<g>
		<g>
			<g>
				<circle class="st4" cx="344.88" cy="237.93" r="2"/>
			</g>
			<g>
				<circle class="st4" cx="340.88" cy="245.93" r="2"/>
			</g>
			<g>
				<circle class="st4" cx="348.88" cy="245.93" r="2"/>
			</g>
		</g>
		<g>
			<g>
				<circle class="st4" cx="284.88" cy="237.93" r="2"/>
			</g>
			<g>
				<circle class="st4" cx="280.88" cy="245.93" r="2"/>
			</g>
			<g>
				<circle class="st4" cx="288.88" cy="245.93" r="2"/>
			</g>
		</g>
	</g>
	<g>
		<g>
			<g>
				<path class="st1" d="M322.91,237.93c-0.62,0-1.2-0.39-1.42-1.01c-0.27-0.78,0.15-1.64,0.93-1.91c2.23-0.77,5.74-0.77,7.98,0
					c0.78,0.27,1.2,1.12,0.93,1.91c-0.27,0.78-1.13,1.2-1.91,0.93c-1.61-0.55-4.42-0.55-6.02,0
					C323.24,237.9,323.07,237.93,322.91,237.93z"/>
			</g>
			<g>
				<g>
					<circle class="st1" cx="326.41" cy="229.74" r="6"/>
				</g>
				<g>
					<circle class="st3" cx="327.91" cy="229.74" r="1.5"/>
				</g>
			</g>
			<g>
				<path class="st1" d="M322.98,215.8c3.57-2.19,8.99-1.73,11.44,1.9c0.84,1.2-0.31,2.92-1.73,2.64c-1.57-0.27-2.86-0.63-4.4-0.83
					c-1.46-0.21-3.36-0.28-4.78-0.61C322.05,218.63,321.71,216.53,322.98,215.8L322.98,215.8z"/>
			</g>
		</g>
		<g>
			<g>
				<path class="st1" d="M306.86,237.93c-0.16,0-0.33-0.03-0.49-0.08c-1.61-0.55-4.42-0.55-6.02,0c-0.78,0.27-1.64-0.15-1.91-0.93
					c-0.27-0.78,0.15-1.64,0.93-1.91c2.24-0.77,5.74-0.77,7.98,0c0.78,0.27,1.2,1.12,0.93,1.91
					C308.06,237.54,307.48,237.93,306.86,237.93z"/>
			</g>
			<g>
				<g>
					<circle class="st1" cx="303.36" cy="229.74" r="6"/>
				</g>
				<g>
					<circle class="st3" cx="304.86" cy="229.74" r="1.5"/>
				</g>
			</g>
			<g>
				<path class="st1" d="M305.83,218.99c-1.25,0.23-3.08,0.34-4.36,0.52c-1.54,0.19-2.82,0.55-4.39,0.82
					c-0.94,0.16-1.83-0.47-1.98-1.41c-0.07-0.44,0.03-0.88,0.25-1.22c1.78-2.76,5.51-3.65,8.57-3.02c1.01,0.21,1.9,0.51,2.88,1.12
					C308.27,216.8,307.54,218.87,305.83,218.99L305.83,218.99z"/>
			</g>
		</g>
		<g>
			<path class="st1" d="M326.89,241.15L326.89,241.15h-24.01c-2.21,0-4,1.79-4,4c0,8.82,7.18,16,16,16c4.27,0,8.29-1.66,11.31-4.69
				c2.98-2.98,4.64-6.94,4.69-11.15c0-0.05,0-0.11,0-0.16C330.89,242.94,329.1,241.15,326.89,241.15z"/>
			<g>
				<g>
					<ellipse class="st4" cx="314.88" cy="253.15" rx="8.93" ry="4"/>
				</g>
			</g>
		</g>
	</g>
	<g>
		<circle class="st10" cx="267.88" cy="364.93" r="18"/>
	</g>
	<g>
		<circle class="st10" cx="314.88" cy="364.93" r="18"/>
	</g>
	<g>
		<circle class="st10" cx="361.88" cy="364.93" r="18"/>
	</g>
	<g>
		<path class="st3" d="M375.88,325.93h-51c-2.21,0-4-1.79-4-4v-40c0-2.21,1.79-4,4-4h51c2.21,0,4,1.79,4,4v40
			C379.88,324.14,378.09,325.93,375.88,325.93z"/>
	</g>
	<g>
		<path class="st9" d="M371.88,311.93h-43c-1.1,0-2-0.9-2-2l0,0c0-1.1,0.9-2,2-2h43c1.1,0,2,0.9,2,2l0,0
			C373.88,311.03,372.99,311.93,371.88,311.93z"/>
	</g>
	<g>
		<path class="st9" d="M365.88,319.93h-37c-1.1,0-2-0.9-2-2l0,0c0-1.1,0.9-2,2-2h37c1.1,0,2,0.9,2,2l0,0
			C367.88,319.03,366.99,319.93,365.88,319.93z"/>
	</g>
	<g>
		<path class="st9" d="M371.88,303.93h-43c-1.1,0-2-0.9-2-2l0,0c0-1.1,0.9-2,2-2h43c1.1,0,2,0.9,2,2l0,0
			C373.88,303.03,372.99,303.93,371.88,303.93z"/>
	</g>
	<g>
		<circle class="st10" cx="332.88" cy="289.93" r="6"/>
	</g>
	<g>
		<path class="st3" d="M304.88,325.93h-51c-2.21,0-4-1.79-4-4v-40c0-2.21,1.79-4,4-4h51c2.21,0,4,1.79,4,4v40
			C308.88,324.14,307.09,325.93,304.88,325.93z"/>
	</g>
	<g>
		<path class="st9" d="M300.88,311.93h-43c-1.1,0-2-0.9-2-2l0,0c0-1.1,0.9-2,2-2h43c1.1,0,2,0.9,2,2l0,0
			C302.88,311.03,301.99,311.93,300.88,311.93z"/>
	</g>
	<g>
		<path class="st9" d="M294.88,319.93h-37c-1.1,0-2-0.9-2-2l0,0c0-1.1,0.9-2,2-2h37c1.1,0,2,0.9,2,2l0,0
			C296.88,319.03,295.99,319.93,294.88,319.93z"/>
	</g>
	<g>
		<path class="st9" d="M300.88,303.93h-43c-1.1,0-2-0.9-2-2l0,0c0-1.1,0.9-2,2-2h43c1.1,0,2,0.9,2,2l0,0
			C302.88,303.03,301.99,303.93,300.88,303.93z"/>
	</g>
	<g>
		<circle class="st10" cx="261.88" cy="289.93" r="6"/>
	</g>
</g>
<g>
	<rect class="st11" width="400" height="400"/>
</g>
<g>
	<g>
		<path class="st12" d="M263.68,76.38c2.98,0,5.4-2.42,5.4-5.4c0-0.99,0.81-1.8,1.8-1.8c0.99,0,1.8,0.81,1.8,1.8
			c0,2.98,2.42,5.4,5.4,5.4c0.99,0,1.8,0.81,1.8,1.8c0,0.99-0.81,1.8-1.8,1.8c-2.98,0-5.4,2.42-5.4,5.4c0,0.99-0.81,1.8-1.8,1.8
			c-0.99,0-1.8-0.81-1.8-1.8c0-2.98-2.42-5.4-5.4-5.4c-0.99,0-1.8-0.81-1.8-1.8C261.88,77.19,262.69,76.38,263.68,76.38z"/>
	</g>
</g>
<g>
	<g>
		<path class="st12" d="M143.01,354.13c2.98,0,5.4-2.42,5.4-5.4c0-0.99,0.81-1.8,1.8-1.8c0.99,0,1.8,0.81,1.8,1.8
			c0,2.98,2.42,5.4,5.4,5.4c0.99,0,1.8,0.81,1.8,1.8s-0.81,1.8-1.8,1.8c-2.98,0-5.4,2.42-5.4,5.4c0,0.99-0.81,1.8-1.8,1.8
			c-0.99,0-1.8-0.81-1.8-1.8c0-2.98-2.42-5.4-5.4-5.4c-0.99,0-1.8-0.81-1.8-1.8S142.02,354.13,143.01,354.13z"/>
	</g>
</g>
<g>
	<circle class="st12" cx="255.88" cy="140.68" r="4.5"/>
</g>
<g>
	<circle class="st12" cx="103.12" cy="331.93" r="4.5"/>
</g>
<g>
	<circle class="st12" cx="348.88" cy="116.68" r="4.5"/>
</g>
<path class="st12" d="M352.88,32.68h-6v-6c0-1.66-1.34-3-3-3s-3,1.34-3,3v6h-6c-1.66,0-3,1.34-3,3s1.34,3,3,3h6v6c0,1.66,1.34,3,3,3
	s3-1.34,3-3v-6h6c1.66,0,3-1.34,3-3S354.54,32.68,352.88,32.68z"/>
<path class="st12" d="M28.21,333.43h-6v-6c0-1.66-1.34-3-3-3s-3,1.34-3,3v6h-6c-1.66,0-3,1.34-3,3s1.34,3,3,3h6v6c0,1.66,1.34,3,3,3
	s3-1.34,3-3v-6h6c1.66,0,3-1.34,3-3S29.86,333.43,28.21,333.43z"/>
<g>
	<g>
		<circle class="st12" cx="320.88" cy="59.4" r="3"/>
	</g>
</g>
<g>
	<g>
		<circle class="st12" cx="252.88" cy="44.68" r="3"/>
	</g>
</g>
<g>
	<g>
		<circle class="st12" cx="308.88" cy="104.4" r="3"/>
	</g>
</g>
<g>
	<g>
		<circle class="st12" cx="55.21" cy="346.93" r="3"/>
	</g>
</g>
<g>
	<g>
		<circle class="st12" cx="77.71" cy="369.14" r="3"/>
	</g>
</g>
<g>
	<g>
		<circle class="st12" cx="200" cy="334.93" r="3"/>
	</g>
</g>
</svg>
