<svg id="Layer_1" data-name="Layer 1" xmlns="http://www.w3.org/2000/svg" viewBox="0 0 240 240"><defs><style>.cls-1{fill:#d8ebfb;}.cls-2{fill:#515979;}.cls-3{fill:#acc9db;}.cls-4{fill:#ffd886;}</style></defs><rect class="cls-1" x="35.86" y="65.5" width="156" height="106" rx="9"/><path class="cls-2" d="M182.86,68.5a6,6,0,0,1,6,6v88a6,6,0,0,1-6,6h-138a6,6,0,0,1-6-6v-88a6,6,0,0,1,6-6h138m0-6h-138a12,12,0,0,0-12,12v88a12,12,0,0,0,12,12h138a12,12,0,0,0,12-12v-88a12,12,0,0,0-12-12Z"/><path class="cls-3" d="M107.53,141,38.86,68.5V84.78l60.29,64.3a10,10,0,0,0,14.59,0l5.7-6.07A10,10,0,0,1,107.53,141Z"/><path class="cls-2" d="M113.86,146.88a13,13,0,0,1-9.48-4.11L36.67,70.55a3,3,0,1,1,4.38-4.1l67.71,72.22a7,7,0,0,0,10.21,0l67.7-72.22a3,3,0,0,1,4.38,4.1l-67.7,72.22A13.07,13.07,0,0,1,113.86,146.88Z"/><path class="cls-2" d="M188.86,171.5a3,3,0,0,1-2.23-1l-45-50a3,3,0,0,1,4.46-4l45,50a3,3,0,0,1-.22,4.24A3,3,0,0,1,188.86,171.5Z"/><path class="cls-2" d="M38.86,171.5a3,3,0,0,1-2-.77,3,3,0,0,1-.23-4.24l45-50a3,3,0,1,1,4.46,4l-45,50A3,3,0,0,1,38.86,171.5Z"/><path class="cls-2" d="M114.22,114a29.77,29.77,0,0,1-15.39-4.27,2,2,0,1,1,2.07-3.42c8,4.86,18.86,4.87,25.82,0a2,2,0,0,1,2.29,3.28A25.9,25.9,0,0,1,114.22,114Z"/><path class="cls-2" d="M109.68,117.08a15.68,15.68,0,0,0,4.19.62,12.29,12.29,0,0,0,2.1-.15,11.16,11.16,0,0,0,2.06-.46,1.32,1.32,0,0,1,1.68.82,1.31,1.31,0,0,1-.29,1.34l-.72.76a5.49,5.49,0,0,1-2.3,1.37,7.57,7.57,0,0,1-2.54.31,8.47,8.47,0,0,1-2.52-.43A6.48,6.48,0,0,1,109,120l-.67-.58a1.37,1.37,0,0,1,1.31-2.35Z"/><path class="cls-2" d="M121.88,83.62a9.06,9.06,0,0,1,1.84-1.4,10.52,10.52,0,0,1,2-.92,10,10,0,0,1,4.71-.33,9.37,9.37,0,0,1,6,3.65,9.66,9.66,0,0,1,1.06,1.94,2,2,0,0,1-2.66,2.65l-.51-.22c-.53-.23-.94-.55-1.38-.77a11.68,11.68,0,0,0-1.23-.61,9.33,9.33,0,0,0-2.3-.74,10.34,10.34,0,0,0-2.54-.15,12.15,12.15,0,0,0-1.44.12c-.48,0-1,.16-1.45.16l-.82,0a2,2,0,0,1-1.33-3.36Z"/><path class="cls-2" d="M103.7,87c-.4,0-1-.13-1.46-.16a12,12,0,0,0-1.43-.12,10.46,10.46,0,0,0-2.55.15,9.39,9.39,0,0,0-2.29.74,12.84,12.84,0,0,0-1.24.61c-.44.22-.84.54-1.37.77l-.51.22a2,2,0,0,1-2.66-1.06,2,2,0,0,1,0-1.59,10.77,10.77,0,0,1,1.06-1.94A8.76,8.76,0,0,1,92.85,83a9,9,0,0,1,4.4-2,10,10,0,0,1,4.7.33,10.34,10.34,0,0,1,2.06.92,8.75,8.75,0,0,1,1.83,1.4A2,2,0,0,1,104.53,87Z"/><path class="cls-2" d="M105.89,101.6a2.49,2.49,0,0,1-2.5-2.5,2.5,2.5,0,0,0-5,0,2.5,2.5,0,0,1-5,0,7.5,7.5,0,0,1,15,0A2.5,2.5,0,0,1,105.89,101.6Z"/><path class="cls-2" d="M131.84,101.6a2.5,2.5,0,0,1-2.5-2.5,2.5,2.5,0,0,0-5,0,2.5,2.5,0,0,1-5,0,7.5,7.5,0,0,1,15,0A2.5,2.5,0,0,1,131.84,101.6Z"/><path class="cls-4" d="M176.86,177.5a27.78,27.78,0,0,1-17.56-6.19l-2.94,2.94a3,3,0,0,1-2.12.88,3.06,3.06,0,0,1-1-.18,3,3,0,0,1-2-2.55l-1.42-15.56a3,3,0,0,1,.87-2.39,3,3,0,0,1,2.12-.88h.27L168.65,155a3,3,0,0,1,2.55,2,3,3,0,0,1-.7,3.15l-2.63,2.63A16,16,0,0,0,192,154.55a3,3,0,0,1,2.84-2.05h6.27a3,3,0,0,1,2.36,1.15,3,3,0,0,1,.55,2.57,28,28,0,0,1-27.19,21.28Z"/><path class="cls-2" d="M201.13,155.5h0m0,0a25,25,0,0,1-41.94,11.68l-4.95,4.95-1.42-15.56L168.38,158l-4.95,4.94a19,19,0,0,0,31.44-7.43h6.26m0-6h-6.27a6,6,0,0,0-5.69,4.11,12.94,12.94,0,0,1-12.32,8.89,13.22,13.22,0,0,1-3.93-.6,6,6,0,0,0-4-9.89l-15.56-1.41-.54,0a6,6,0,0,0-6,6.54l1.41,15.56a6,6,0,0,0,3.93,5.1,6,6,0,0,0,6.29-1.4l1.11-1.11a31,31,0,0,0,47.31-18.1,5.65,5.65,0,0,0,.24-1.66,6,6,0,0,0-6-6Zm0,12h0Z"/><path class="cls-4" d="M152.59,146.5a3,3,0,0,1-2.91-3.72,28,28,0,0,1,44.75-15.09l2.94-2.94a3,3,0,0,1,5.11,1.85l1.41,15.56a3,3,0,0,1-3,3.27h-.27L185.08,144a3,3,0,0,1-1.85-5.11l2.63-2.63a16,16,0,0,0-20.31,1.93,15.72,15.72,0,0,0-3.85,6.26,3,3,0,0,1-2.85,2.05Z"/><path class="cls-2" d="M176.86,124.5a24.93,24.93,0,0,1,17.68,7.32l5-4.95,1.41,15.56L185.35,141l5-4.95a19,19,0,0,0-31.45,7.44h-6.26a25,25,0,0,1,24.27-19m0-6a31,31,0,0,0-30.1,23.57,6,6,0,0,0,5.83,7.43h6.26a6,6,0,0,0,5.7-4.11,12.64,12.64,0,0,1,3.12-5.08,12.9,12.9,0,0,1,9.19-3.81,13.29,13.29,0,0,1,3.94.6,6,6,0,0,0,4,9.89l15.56,1.41.54,0a6,6,0,0,0,6-6.54l-1.41-15.56a6,6,0,0,0-10.22-3.7l-1.12,1.11a30.76,30.76,0,0,0-17.27-5.24Z"/></svg>