<?xml version="1.0" encoding="utf-8"?>
<!-- Generator: Adobe Illustrator 26.0.2, SVG Export Plug-In . SVG Version: 6.00 Build 0)  -->
<svg version="1.1" id="Landing_x5F_Page_x5F_Hub-Lead_x5F_Referral_x5F_Page"
	 xmlns="http://www.w3.org/2000/svg" xmlns:xlink="http://www.w3.org/1999/xlink" x="0px" y="0px" viewBox="0 0 400 400"
	 style="enable-background:new 0 0 400 400;" xml:space="preserve">
<style type="text/css">
	.st0{fill:#515979;}
	.st1{fill:#EEEBFF;}
	.st2{fill:#C7BCFF;}
	.st3{fill:#AAA0FF;}
	.st4{fill:#667683;}
	.st5{fill:#FFFFFF;}
	.st6{fill:#EF7D7D;}
	.st7{fill:#FFE8A0;}
	.st8{fill:#7DDF96;}
	.st9{fill:#F89D81;}
	.st10{clip-path:url(#SVGID_00000044171571935455389450000012352558666695678627_);}
	.st11{fill:#66A7C6;}
	.st12{fill:#7D839B;}
	.st13{fill:#E6C3AF;}
	.st14{fill:#D2A5A0;}
	.st15{clip-path:url(#SVGID_00000052788588572664560110000015530303201604091563_);}
	.st16{fill:#FFD886;}
	.st17{fill:#D8EBFB;}
	.st18{fill:#FFC8BE;}
	.st19{fill:#FDE4DD;}
	.st20{fill:none;}
</style>
<g>
	<path class="st0" d="M204.71,350.29c-0.01,0-0.02,0-0.03,0c-1.75-0.04-3.52-0.11-5.25-0.23c-0.86-0.06-1.5-0.8-1.45-1.66
		s0.79-1.52,1.66-1.44c1.68,0.11,3.4,0.19,5.1,0.22c0.86,0.02,1.54,0.73,1.52,1.58C206.25,349.61,205.55,350.29,204.71,350.29z"/>
</g>
<g>
	<path class="st0" d="M214.02,350.07c-0.81,0-1.49-0.63-1.55-1.45c-0.06-0.86,0.59-1.6,1.45-1.65c1.69-0.11,3.4-0.27,5.08-0.46
		c0.85-0.09,1.62,0.51,1.72,1.37s-0.51,1.62-1.37,1.72c-1.73,0.2-3.49,0.36-5.23,0.47C214.09,350.07,214.06,350.07,214.02,350.07z"
		/>
</g>
<g>
	<path class="st0" d="M190.28,349.02c-0.08,0-0.16-0.01-0.24-0.02c-1.72-0.27-3.45-0.58-5.17-0.94c-0.84-0.17-1.38-1-1.21-1.84
		c0.17-0.84,1-1.38,1.84-1.21c1.66,0.34,3.35,0.65,5.02,0.91c0.85,0.13,1.43,0.93,1.29,1.78
		C191.69,348.48,191.03,349.02,190.28,349.02z"/>
</g>
<g>
	<path class="st0" d="M228.38,348.14c-0.72,0-1.37-0.51-1.52-1.24c-0.17-0.84,0.37-1.66,1.21-1.83c1.67-0.34,3.34-0.72,4.97-1.14
		c0.83-0.21,1.68,0.29,1.89,1.12c0.21,0.83-0.29,1.68-1.12,1.89c-1.68,0.43-3.4,0.82-5.12,1.17
		C228.59,348.13,228.48,348.14,228.38,348.14z"/>
</g>
<g>
	<path class="st0" d="M176.15,345.82c-0.15,0-0.3-0.02-0.45-0.07c-1.67-0.5-3.35-1.05-5-1.64c-0.81-0.29-1.23-1.17-0.95-1.98
		c0.29-0.81,1.17-1.23,1.98-0.95c1.61,0.57,3.24,1.1,4.86,1.59c0.82,0.25,1.29,1.11,1.04,1.93
		C177.44,345.38,176.82,345.82,176.15,345.82z"/>
</g>
<g>
	<path class="st0" d="M242.34,344.29c-0.64,0-1.24-0.4-1.47-1.04c-0.28-0.81,0.14-1.7,0.95-1.98c1.6-0.56,3.21-1.17,4.77-1.81
		c0.8-0.33,1.7,0.06,2.02,0.85c0.32,0.79-0.06,1.7-0.85,2.02c-1.61,0.65-3.26,1.28-4.91,1.86
		C242.69,344.26,242.52,344.29,242.34,344.29z"/>
</g>
<g>
	<path class="st0" d="M162.58,340.71c-0.22,0-0.44-0.04-0.64-0.14c-1.59-0.72-3.18-1.5-4.73-2.3c-0.76-0.39-1.06-1.33-0.67-2.09
		c0.39-0.76,1.33-1.06,2.09-0.67c1.51,0.78,3.05,1.53,4.59,2.23c0.78,0.36,1.12,1.28,0.77,2.06
		C163.73,340.37,163.17,340.71,162.58,340.71z"/>
</g>
<g>
	<path class="st0" d="M255.65,338.57c-0.56,0-1.11-0.31-1.38-0.84c-0.39-0.76-0.09-1.7,0.67-2.09c1.5-0.77,3-1.59,4.47-2.43
		c0.74-0.43,1.69-0.17,2.12,0.57c0.43,0.74,0.17,1.69-0.57,2.12c-1.51,0.87-3.06,1.71-4.61,2.51
		C256.13,338.51,255.89,338.57,255.65,338.57z"/>
</g>
<g>
	<path class="st0" d="M149.83,333.81c-0.28,0-0.57-0.08-0.83-0.24c-1.47-0.93-2.94-1.91-4.37-2.92c-0.7-0.49-0.87-1.46-0.38-2.16
		s1.46-0.87,2.16-0.38c1.39,0.98,2.82,1.93,4.25,2.83c0.73,0.46,0.94,1.42,0.48,2.14C150.85,333.55,150.35,333.81,149.83,333.81z"/>
</g>
<g>
	<path class="st0" d="M268.05,331.1c-0.49,0-0.97-0.23-1.27-0.66c-0.49-0.7-0.32-1.67,0.38-2.16c1.39-0.97,2.77-1.99,4.11-3.02
		c0.68-0.52,1.65-0.4,2.18,0.28c0.52,0.68,0.4,1.65-0.28,2.18c-1.38,1.07-2.8,2.11-4.23,3.11
		C268.67,331.01,268.36,331.1,268.05,331.1z"/>
</g>
<g>
	<path class="st0" d="M138.14,325.25c-0.35,0-0.71-0.12-1-0.36c-1.33-1.12-2.66-2.29-3.94-3.48c-0.63-0.58-0.67-1.57-0.08-2.2
		s1.57-0.67,2.2-0.08c1.24,1.15,2.53,2.29,3.83,3.38c0.66,0.55,0.74,1.53,0.19,2.19C139.02,325.06,138.58,325.25,138.14,325.25z"/>
</g>
<g>
	<path class="st0" d="M279.34,322.02c-0.42,0-0.84-0.17-1.14-0.5c-0.58-0.63-0.54-1.61,0.09-2.2c1.25-1.16,2.48-2.35,3.67-3.55
		c0.6-0.61,1.59-0.62,2.2-0.02s0.62,1.59,0.02,2.2c-1.21,1.24-2.48,2.46-3.77,3.65C280.09,321.88,279.71,322.02,279.34,322.02z"/>
</g>
<g>
	<path class="st0" d="M127.7,315.2c-0.42,0-0.84-0.17-1.15-0.51c-1.17-1.29-2.32-2.62-3.43-3.97c-0.55-0.66-0.45-1.64,0.21-2.19
		c0.66-0.54,1.64-0.45,2.19,0.21c1.08,1.31,2.2,2.61,3.34,3.86c0.58,0.64,0.53,1.62-0.11,2.19
		C128.45,315.07,128.07,315.2,127.7,315.2z"/>
</g>
<g>
	<path class="st0" d="M289.3,311.5c-0.35,0-0.7-0.12-0.99-0.36c-0.66-0.55-0.75-1.53-0.21-2.19c1.08-1.31,2.14-2.66,3.16-4.01
		c0.52-0.69,1.49-0.83,2.17-0.31c0.69,0.51,0.83,1.49,0.31,2.17c-1.04,1.4-2.14,2.78-3.25,4.13
		C290.19,311.31,289.75,311.5,289.3,311.5z"/>
</g>
<g>
	<path class="st0" d="M118.72,303.84c-0.5,0-0.98-0.24-1.28-0.67c-0.99-1.44-1.95-2.92-2.86-4.4c-0.45-0.73-0.22-1.69,0.51-2.14
		c0.73-0.45,1.69-0.22,2.14,0.51c0.89,1.44,1.82,2.87,2.78,4.27c0.49,0.71,0.31,1.67-0.4,2.16
		C119.33,303.75,119.02,303.84,118.72,303.84z"/>
</g>
<g>
	<path class="st0" d="M297.76,299.74c-0.28,0-0.56-0.08-0.82-0.23c-0.73-0.45-0.95-1.41-0.5-2.14c0.9-1.44,1.77-2.92,2.59-4.4
		c0.42-0.75,1.36-1.02,2.11-0.6c0.75,0.42,1.02,1.36,0.6,2.11c-0.85,1.52-1.74,3.05-2.67,4.53
		C298.78,299.48,298.28,299.74,297.76,299.74z"/>
</g>
<g>
	<path class="st0" d="M111.35,291.37c-0.57,0-1.12-0.31-1.39-0.86c-0.78-1.55-1.53-3.15-2.24-4.74c-0.35-0.78,0.01-1.7,0.79-2.05
		c0.79-0.34,1.7,0.01,2.05,0.79c0.68,1.54,1.42,3.09,2.18,4.6c0.39,0.77,0.08,1.7-0.69,2.09
		C111.82,291.32,111.58,291.37,111.35,291.37z"/>
</g>
<g>
	<path class="st0" d="M304.55,286.93c-0.21,0-0.43-0.04-0.63-0.13c-0.78-0.35-1.13-1.27-0.79-2.05c0.69-1.54,1.35-3.13,1.97-4.72
		c0.31-0.8,1.21-1.2,2.01-0.88c0.8,0.31,1.2,1.21,0.88,2.01c-0.64,1.63-1.32,3.27-2.03,4.86
		C305.71,286.59,305.15,286.93,304.55,286.93z"/>
</g>
<g>
	<path class="st0" d="M105.74,278.03c-0.65,0-1.25-0.41-1.47-1.05c-0.56-1.64-1.09-3.33-1.58-5.01c-0.24-0.83,0.24-1.69,1.06-1.92
		c0.82-0.24,1.69,0.24,1.92,1.06c0.47,1.63,0.98,3.27,1.53,4.87c0.28,0.81-0.16,1.7-0.97,1.97
		C106.08,278,105.91,278.03,105.74,278.03z"/>
</g>
<g>
	<path class="st0" d="M309.55,273.32c-0.14,0-0.29-0.02-0.43-0.06c-0.82-0.24-1.3-1.1-1.06-1.93c0.47-1.63,0.91-3.29,1.31-4.93
		c0.2-0.83,1.03-1.35,1.87-1.15c0.83,0.2,1.35,1.04,1.15,1.87c-0.4,1.69-0.86,3.4-1.34,5.08
		C310.84,272.88,310.22,273.32,309.55,273.32z"/>
</g>
<g>
	<path class="st0" d="M102.01,264.03c-0.73,0-1.38-0.51-1.52-1.26c-0.33-1.7-0.63-3.45-0.88-5.18c-0.12-0.85,0.46-1.64,1.31-1.76
		c0.85-0.13,1.64,0.46,1.76,1.31c0.25,1.68,0.53,3.38,0.86,5.03c0.16,0.84-0.39,1.66-1.23,1.82
		C102.2,264.02,102.1,264.03,102.01,264.03z"/>
</g>
<g>
	<path class="st0" d="M312.64,259.17c-0.08,0-0.15,0-0.23-0.02c-0.85-0.13-1.44-0.92-1.31-1.76c0.25-1.67,0.46-3.37,0.62-5.06
		c0.08-0.85,0.84-1.49,1.7-1.39c0.85,0.08,1.48,0.84,1.39,1.7c-0.17,1.74-0.39,3.5-0.64,5.21
		C314.06,258.62,313.4,259.17,312.64,259.17z"/>
</g>
<g>
	<path class="st0" d="M100.2,249.66c-0.82,0-1.5-0.64-1.55-1.46c-0.05-0.8-0.08-1.6-0.11-2.41c-0.03-0.95-0.06-1.9-0.07-2.84
		c-0.01-0.86,0.68-1.56,1.54-1.57c0.01,0,0.01,0,0.02,0c0.85,0,1.54,0.68,1.55,1.54c0.01,0.92,0.03,1.84,0.06,2.76
		c0.03,0.78,0.06,1.56,0.11,2.34c0.05,0.86-0.6,1.59-1.46,1.64C100.26,249.66,100.23,249.66,100.2,249.66z"/>
</g>
<g>
	<path class="st0" d="M313.78,244.73c-0.01,0-0.01,0-0.02,0c-0.86-0.01-1.54-0.71-1.54-1.57c0-0.41,0.01-0.81,0.01-1.22
		c0-1.29-0.02-2.6-0.07-3.88c-0.06-1.55-0.15-3.12-0.27-4.66c-0.07-0.85,0.57-1.6,1.43-1.67c0.84-0.06,1.6,0.57,1.67,1.43
		c0.13,1.59,0.22,3.2,0.28,4.8c0.05,1.32,0.07,2.67,0.07,4c0,0.42,0,0.84-0.01,1.26C315.32,244.05,314.63,244.73,313.78,244.73z"/>
</g>
<g>
	<path class="st0" d="M100.33,235.17c-0.04,0-0.08,0-0.12,0c-0.86-0.06-1.5-0.81-1.43-1.67c0.13-1.74,0.31-3.5,0.53-5.23
		c0.11-0.85,0.88-1.45,1.73-1.35c0.85,0.11,1.46,0.88,1.35,1.74c-0.21,1.68-0.38,3.38-0.51,5.08
		C101.81,234.55,101.13,235.17,100.33,235.17z"/>
</g>
<g>
	<path class="st0" d="M312.29,225.58c-0.75,0-1.4-0.54-1.53-1.3c-0.28-1.68-0.61-3.36-0.97-5.01c-0.18-0.84,0.35-1.67,1.19-1.85
		c0.84-0.18,1.67,0.35,1.85,1.19c0.37,1.7,0.71,3.43,1,5.16c0.14,0.85-0.43,1.65-1.27,1.79
		C312.47,225.57,312.38,225.58,312.29,225.58z"/>
</g>
<g>
	<path class="st0" d="M102.41,220.84c-0.11,0-0.22-0.01-0.33-0.04c-0.84-0.18-1.37-1.01-1.19-1.85c0.37-1.7,0.78-3.42,1.23-5.11
		c0.22-0.83,1.07-1.32,1.9-1.1c0.83,0.22,1.32,1.07,1.1,1.9c-0.44,1.64-0.84,3.31-1.2,4.96
		C103.77,220.34,103.12,220.84,102.41,220.84z"/>
</g>
<g>
	<path class="st0" d="M307.93,209.07c-0.66,0-1.28-0.43-1.48-1.09c-0.51-1.62-1.06-3.25-1.64-4.83c-0.29-0.81,0.12-1.7,0.92-1.99
		c0.8-0.29,1.7,0.12,1.99,0.92c0.6,1.63,1.17,3.3,1.69,4.97c0.26,0.82-0.2,1.69-1.02,1.95
		C308.24,209.05,308.08,209.07,307.93,209.07z"/>
</g>
<g>
	<path class="st0" d="M106.41,206.91c-0.18,0-0.36-0.03-0.53-0.09c-0.81-0.29-1.22-1.18-0.93-1.99c0.6-1.64,1.24-3.29,1.92-4.9
		c0.33-0.79,1.24-1.16,2.03-0.83c0.79,0.33,1.16,1.24,0.83,2.03c-0.66,1.57-1.28,3.17-1.86,4.76
		C107.65,206.52,107.05,206.91,106.41,206.91z"/>
</g>
<g>
	<path class="st0" d="M303.39,197.06c-0.58,0-1.14-0.33-1.41-0.89c-0.72-1.53-1.49-3.06-2.28-4.56c-0.4-0.76-0.11-1.7,0.64-2.1
		c0.76-0.4,1.7-0.11,2.1,0.64c0.81,1.54,1.6,3.11,2.34,4.69c0.37,0.78,0.03,1.7-0.75,2.07
		C303.84,197.01,303.61,197.06,303.39,197.06z"/>
</g>
<g>
	<path class="st0" d="M112.29,193.66c-0.24,0-0.49-0.06-0.72-0.18c-0.76-0.4-1.05-1.34-0.65-2.1c0.81-1.54,1.68-3.09,2.56-4.59
		c0.44-0.74,1.39-0.98,2.13-0.55c0.74,0.44,0.98,1.39,0.55,2.13c-0.86,1.46-1.7,2.96-2.49,4.46
		C113.38,193.36,112.84,193.66,112.29,193.66z"/>
</g>
<g>
	<path class="st0" d="M297.65,186.34c-0.51,0-1.01-0.25-1.31-0.71c-0.92-1.41-1.88-2.83-2.88-4.21c-0.5-0.7-0.34-1.67,0.35-2.17
		c0.7-0.5,1.67-0.34,2.17,0.35c1.02,1.42,2.02,2.88,2.96,4.33c0.47,0.72,0.26,1.68-0.46,2.15
		C298.23,186.26,297.94,186.34,297.65,186.34z"/>
</g>
<g>
	<path class="st0" d="M119.9,181.32c-0.31,0-0.63-0.09-0.9-0.29c-0.7-0.5-0.86-1.47-0.36-2.17c1.01-1.42,2.08-2.83,3.16-4.2
		c0.53-0.67,1.51-0.79,2.18-0.26c0.67,0.53,0.79,1.51,0.26,2.18c-1.05,1.33-2.08,2.7-3.07,4.08
		C120.86,181.1,120.38,181.32,119.9,181.32z"/>
</g>
<g>
	<path class="st0" d="M287.96,173.75c-0.44,0-0.87-0.18-1.18-0.54c-1.09-1.27-2.24-2.55-3.42-3.78c-0.59-0.62-0.56-1.61,0.06-2.2
		c0.62-0.59,1.61-0.56,2.2,0.06c1.21,1.27,2.39,2.59,3.52,3.9c0.56,0.65,0.48,1.63-0.17,2.19
		C288.68,173.63,288.32,173.75,287.96,173.75z"/>
</g>
<g>
	<path class="st0" d="M129.1,170.13c-0.38,0-0.76-0.14-1.06-0.42c-0.62-0.59-0.65-1.57-0.07-2.2c1.2-1.27,2.44-2.53,3.69-3.73
		c0.62-0.59,1.6-0.58,2.2,0.04c0.6,0.62,0.58,1.6-0.04,2.2c-1.22,1.17-2.42,2.39-3.59,3.63
		C129.93,169.97,129.52,170.13,129.1,170.13z"/>
</g>
<g>
	<path class="st0" d="M277.79,163.43c-0.37,0-0.73-0.13-1.03-0.39c-1.27-1.13-2.58-2.23-3.9-3.29c-0.67-0.54-0.78-1.52-0.24-2.18
		c0.54-0.67,1.52-0.78,2.18-0.24c1.36,1.09,2.71,2.23,4.01,3.39c0.64,0.57,0.7,1.55,0.13,2.19
		C278.65,163.25,278.22,163.43,277.79,163.43z"/>
</g>
<g>
	<path class="st0" d="M139.72,160.28c-0.45,0-0.9-0.2-1.21-0.58c-0.54-0.67-0.44-1.65,0.23-2.19c1.36-1.1,2.75-2.17,4.16-3.2
		c0.69-0.51,1.67-0.36,2.17,0.34c0.51,0.69,0.36,1.66-0.34,2.17c-1.36,1-2.72,2.05-4.04,3.11
		C140.41,160.16,140.07,160.28,139.72,160.28z"/>
</g>
<g>
	<path class="st0" d="M266.33,154.57c-0.3,0-0.6-0.08-0.86-0.26c-1.41-0.94-2.86-1.87-4.31-2.74c-0.74-0.44-0.97-1.4-0.53-2.13
		c0.44-0.73,1.4-0.97,2.13-0.53c1.5,0.9,2.99,1.85,4.44,2.82c0.71,0.48,0.9,1.44,0.43,2.16
		C267.32,154.33,266.83,154.57,266.33,154.57z"/>
</g>
<g>
	<path class="st0" d="M150.57,151.95c-0.53,0-1.04-0.27-1.33-0.75c-0.44-0.73-0.21-1.69,0.52-2.13c1.49-0.9,3.02-1.78,4.55-2.61
		c0.75-0.41,1.7-0.13,2.11,0.63c0.41,0.75,0.13,1.7-0.63,2.11c-1.49,0.81-2.98,1.66-4.42,2.53
		C151.12,151.88,150.85,151.95,150.57,151.95z"/>
</g>
<g>
	<path class="st0" d="M253.77,147.34c-0.23,0-0.46-0.05-0.68-0.16c-1.52-0.74-3.08-1.46-4.64-2.13c-0.79-0.34-1.15-1.25-0.81-2.04
		c0.34-0.79,1.25-1.16,2.04-0.81c1.61,0.69,3.22,1.43,4.78,2.2c0.77,0.38,1.09,1.31,0.71,2.08
		C254.9,147.02,254.34,147.34,253.77,147.34z"/>
</g>
<g>
	<path class="st0" d="M162.43,145.31c-0.6,0-1.17-0.35-1.43-0.94c-0.34-0.79,0.02-1.7,0.81-2.04c1.6-0.69,3.24-1.36,4.87-1.97
		c0.81-0.3,1.7,0.1,2,0.91c0.3,0.8-0.1,1.7-0.91,2c-1.58,0.6-3.18,1.24-4.73,1.91C162.85,145.26,162.64,145.31,162.43,145.31z"/>
</g>
<g>
	<path class="st0" d="M240.34,141.87c-0.16,0-0.32-0.03-0.49-0.08c-1.62-0.53-3.26-1.03-4.89-1.48c-0.83-0.23-1.31-1.08-1.08-1.91
		c0.23-0.83,1.09-1.31,1.91-1.08c1.68,0.46,3.38,0.98,5.04,1.52c0.81,0.27,1.26,1.15,0.99,1.96
		C241.6,141.46,241,141.87,240.34,141.87z"/>
</g>
<g>
	<path class="st0" d="M226.29,138.29c-0.09,0-0.19-0.01-0.28-0.03c-1.67-0.31-3.36-0.57-5.04-0.8c-0.85-0.11-1.45-0.9-1.33-1.75
		c0.11-0.85,0.89-1.45,1.75-1.33c1.73,0.23,3.47,0.51,5.19,0.82c0.84,0.15,1.4,0.96,1.25,1.81
		C227.68,137.76,227.03,138.29,226.29,138.29z"/>
</g>
<g>
	<path class="st0" d="M188.27,137.54c-0.76,0-1.43-0.56-1.54-1.34c-0.12-0.85,0.48-1.63,1.33-1.75c1.73-0.24,3.49-0.43,5.22-0.59
		c0.86-0.07,1.61,0.56,1.68,1.41s-0.56,1.61-1.41,1.68c-1.68,0.15-3.39,0.34-5.07,0.57C188.41,137.53,188.34,137.54,188.27,137.54z"
		/>
</g>
<g>
	<path class="st0" d="M211.9,136.65c-0.02,0-0.05,0-0.07,0c-1.61-0.07-3.24-0.11-4.86-0.11h-0.24c-0.86,0-1.55-0.7-1.55-1.55
		s0.7-1.55,1.55-1.55h0.24c1.67,0,3.35,0.04,5,0.11c0.86,0.04,1.52,0.77,1.48,1.62C213.42,136,212.73,136.65,211.9,136.65z"/>
</g>
<g>
	<path class="st0" d="M175.09,140.47c-0.68,0-1.3-0.45-1.5-1.14c-0.23-0.83,0.25-1.68,1.08-1.91c1.68-0.47,3.39-0.9,5.09-1.29
		c0.83-0.19,1.67,0.33,1.86,1.17c0.19,0.84-0.33,1.67-1.17,1.86c-1.65,0.38-3.32,0.8-4.95,1.25
		C175.36,140.45,175.22,140.47,175.09,140.47z"/>
</g>
<g>
	<g>
		<g>
			<g>
				<path class="st1" d="M24.18,384.37c-7.17,0-13-5.83-13-13v-198c0-7.17,5.83-13,13-13h134c7.17,0,13,5.83,13,13v198
					c0,7.17-5.83,13-13,13H24.18z"/>
			</g>
		</g>
		<g>
			<g>
				<path class="st0" d="M158.18,163.37c5.52,0,10,4.48,10,10v198c0,5.52-4.48,10-10,10h-134c-5.52,0-10-4.48-10-10v-198
					c0-5.52,4.48-10,10-10H158.18 M158.18,157.37h-134c-8.82,0-16,7.18-16,16v198c0,8.82,7.18,16,16,16h134c8.82,0,16-7.18,16-16
					v-198C174.18,164.55,167,157.37,158.18,157.37L158.18,157.37z"/>
			</g>
		</g>
	</g>
	<g>
		<g>
			<rect x="14.18" y="255.37" class="st2" width="154" height="78"/>
		</g>
	</g>
	<g>
		<g>
			<rect x="14.18" y="255.37" class="st3" width="154" height="4"/>
		</g>
	</g>
	<g>
		<g>
			<path class="st3" d="M60.18,311.37h-32c-1.1,0-2-0.9-2-2l0,0c0-1.1,0.9-2,2-2h32c1.1,0,2,0.9,2,2l0,0
				C62.18,310.48,61.28,311.37,60.18,311.37z"/>
		</g>
	</g>
	<g>
		<g>
			<path class="st3" d="M60.18,319.37h-32c-1.1,0-2-0.9-2-2l0,0c0-1.1,0.9-2,2-2h32c1.1,0,2,0.9,2,2l0,0
				C62.18,318.48,61.28,319.37,60.18,319.37z"/>
		</g>
	</g>
	<g>
		<g>
			<path class="st3" d="M48.18,327.37h-20c-1.1,0-2-0.9-2-2l0,0c0-1.1,0.9-2,2-2h20c1.1,0,2,0.9,2,2l0,0
				C50.18,326.48,49.28,327.37,48.18,327.37z"/>
		</g>
	</g>
	<g>
		<g>
			<path class="st3" d="M107.18,311.37h-32c-1.1,0-2-0.9-2-2l0,0c0-1.1,0.9-2,2-2h32c1.1,0,2,0.9,2,2l0,0
				C109.18,310.48,108.28,311.37,107.18,311.37z"/>
		</g>
	</g>
	<g>
		<g>
			<path class="st3" d="M107.18,319.37h-32c-1.1,0-2-0.9-2-2l0,0c0-1.1,0.9-2,2-2h32c1.1,0,2,0.9,2,2l0,0
				C109.18,318.48,108.28,319.37,107.18,319.37z"/>
		</g>
	</g>
	<g>
		<g>
			<path class="st3" d="M95.18,327.37h-20c-1.1,0-2-0.9-2-2l0,0c0-1.1,0.9-2,2-2h20c1.1,0,2,0.9,2,2l0,0
				C97.18,326.48,96.28,327.37,95.18,327.37z"/>
		</g>
	</g>
	<g>
		<g>
			<path class="st3" d="M154.18,311.37h-32c-1.1,0-2-0.9-2-2l0,0c0-1.1,0.9-2,2-2h32c1.1,0,2,0.9,2,2l0,0
				C156.18,310.48,155.28,311.37,154.18,311.37z"/>
		</g>
	</g>
	<g>
		<g>
			<path class="st3" d="M154.18,319.37h-32c-1.1,0-2-0.9-2-2l0,0c0-1.1,0.9-2,2-2h32c1.1,0,2,0.9,2,2l0,0
				C156.18,318.48,155.28,319.37,154.18,319.37z"/>
		</g>
	</g>
	<g>
		<g>
			<path class="st3" d="M142.18,327.37h-20c-1.1,0-2-0.9-2-2l0,0c0-1.1,0.9-2,2-2h20c1.1,0,2,0.9,2,2l0,0
				C144.18,326.48,143.28,327.37,142.18,327.37z"/>
		</g>
	</g>
	<g>
		<g>
			<g>
				<path class="st2" d="M142.18,363.37h-60c-1.1,0-2-0.9-2-2l0,0c0-1.1,0.9-2,2-2h60c1.1,0,2,0.9,2,2l0,0
					C144.18,362.48,143.28,363.37,142.18,363.37z"/>
			</g>
		</g>
		<g>
			<g>
				<path class="st2" d="M154.18,354.37h-72c-1.1,0-2-0.9-2-2l0,0c0-1.1,0.9-2,2-2h72c1.1,0,2,0.9,2,2l0,0
					C156.18,353.48,155.28,354.37,154.18,354.37z"/>
			</g>
		</g>
		<g>
			<g>
				<path class="st2" d="M130.18,372.37h-48c-1.1,0-2-0.9-2-2l0,0c0-1.1,0.9-2,2-2h48c1.1,0,2,0.9,2,2l0,0
					C132.18,371.48,131.28,372.37,130.18,372.37z"/>
			</g>
		</g>
	</g>
	<g>
		<g>
			<g>
				<path class="st4" d="M14.18,194.37c-1.66,0-3-1.34-3-3v-18c0-7.17,5.83-13,13-13h134c7.17,0,13,5.83,13,13v18c0,1.66-1.34,3-3,3
					H14.18z"/>
			</g>
		</g>
		<g>
			<g>
				<path class="st0" d="M158.18,163.37c5.52,0,10,4.48,10,10v18h-154v-18c0-5.52,4.48-10,10-10H158.18 M158.18,157.37h-134
					c-8.82,0-16,7.18-16,16v18c0,3.31,2.69,6,6,6h154c3.31,0,6-2.69,6-6v-18C174.18,164.55,167,157.37,158.18,157.37L158.18,157.37z
					"/>
			</g>
		</g>
	</g>
	<g>
		<g>
			<g>
				<path class="st5" d="M95.18,182.37c-3.31,0-6-2.69-6-6s2.69-6,6-6h58c3.31,0,6,2.69,6,6s-2.69,6-6,6H95.18z"/>
			</g>
		</g>
		<g>
			<g>
				<g>
					<path class="st0" d="M153.18,173.37c1.66,0,3,1.34,3,3c0,1.66-1.34,3-3,3h-58c-1.66,0-3-1.34-3-3c0-1.66,1.34-3,3-3H153.18
						 M153.18,167.37h-58c-4.96,0-9,4.04-9,9c0,4.96,4.04,9,9,9h58c4.96,0,9-4.04,9-9C162.18,171.41,158.14,167.37,153.18,167.37
						L153.18,167.37z"/>
				</g>
			</g>
		</g>
	</g>
	<g>
		<g>
			<g>
				<circle class="st6" cx="29.18" cy="176.37" r="6"/>
			</g>
		</g>
		<g>
			<g>
				<g>
					<path class="st0" d="M29.18,173.37c1.66,0,3,1.34,3,3c0,1.66-1.34,3-3,3c-1.66,0-3-1.34-3-3
						C26.18,174.71,27.52,173.37,29.18,173.37 M29.18,167.37c-4.96,0-9,4.04-9,9s4.04,9,9,9s9-4.04,9-9S34.14,167.37,29.18,167.37
						L29.18,167.37z"/>
				</g>
			</g>
		</g>
	</g>
	<g>
		<g>
			<g>
				<circle class="st7" cx="50.18" cy="176.37" r="6"/>
			</g>
		</g>
		<g>
			<g>
				<g>
					<path class="st0" d="M50.18,173.37c1.66,0,3,1.34,3,3c0,1.66-1.34,3-3,3c-1.66,0-3-1.34-3-3
						C47.18,174.71,48.52,173.37,50.18,173.37 M50.18,167.37c-4.96,0-9,4.04-9,9s4.04,9,9,9s9-4.04,9-9S55.14,167.37,50.18,167.37
						L50.18,167.37z"/>
				</g>
			</g>
		</g>
	</g>
	<g>
		<g>
			<g>
				<circle class="st8" cx="71.18" cy="176.37" r="6"/>
			</g>
		</g>
		<g>
			<g>
				<g>
					<path class="st0" d="M71.18,173.37c1.66,0,3,1.34,3,3c0,1.66-1.34,3-3,3c-1.66,0-3-1.34-3-3
						C68.18,174.71,69.52,173.37,71.18,173.37 M71.18,167.37c-4.96,0-9,4.04-9,9s4.04,9,9,9s9-4.04,9-9S76.14,167.37,71.18,167.37
						L71.18,167.37z"/>
				</g>
			</g>
		</g>
	</g>
	<g>
		<g>
			<g>
				<g>
					<circle class="st3" cx="121.18" cy="225.37" r="2"/>
				</g>
			</g>
			<g>
				<g>
					<circle class="st3" cx="117.18" cy="233.37" r="2"/>
				</g>
			</g>
			<g>
				<g>
					<circle class="st3" cx="125.18" cy="233.37" r="2"/>
				</g>
			</g>
		</g>
		<g>
			<g>
				<g>
					<circle class="st3" cx="61.18" cy="225.37" r="2"/>
				</g>
			</g>
			<g>
				<g>
					<circle class="st3" cx="57.18" cy="233.37" r="2"/>
				</g>
			</g>
			<g>
				<g>
					<circle class="st3" cx="65.18" cy="233.37" r="2"/>
				</g>
			</g>
		</g>
	</g>
	<g>
		<g>
			<circle class="st1" cx="44.18" cy="283.37" r="18"/>
		</g>
	</g>
	<g>
		<g>
			<path class="st2" d="M74.18,363.37c0-13.25-10.75-24-24-24s-24,10.75-24,24c0,7.17,3.15,13.6,8.13,18h31.73
				C71.03,376.97,74.18,370.54,74.18,363.37z"/>
		</g>
	</g>
	<g>
		<g>
			<circle class="st1" cx="91.18" cy="283.37" r="18"/>
		</g>
	</g>
	<g>
		<g>
			<circle class="st1" cx="138.18" cy="283.37" r="18"/>
		</g>
	</g>
	<g>
		<g>
			<g>
				<g>
					<g>
						<g>
							<path class="st0" d="M106.7,223.19c-1.1,0-2-0.9-2-2c0-1.65-1.35-3-3-3s-3,1.35-3,3c0,1.1-0.9,2-2,2s-2-0.9-2-2
								c0-3.86,3.14-7,7-7s7,3.14,7,7C108.7,222.3,107.81,223.19,106.7,223.19z"/>
						</g>
					</g>
				</g>
				<g>
					<g>
						<path class="st0" d="M99.27,207.25c2.75-1.66,6.18-1.76,9.02-0.29c1.54,0.76,3.95,3.07,1.92,4.57
							c-1.04,0.67-2.61-0.13-3.66-0.24c-1.13-0.23-2.89-0.45-4.07-0.57c-0.87-0.08-1.82-0.15-2.67-0.37
							C98.35,210.08,98.01,207.99,99.27,207.25L99.27,207.25z"/>
					</g>
				</g>
			</g>
			<g>
				<g>
					<g>
						<g>
							<path class="st0" d="M85.65,223.19c-1.1,0-2-0.9-2-2c0-1.65-1.35-3-3-3s-3,1.35-3,3c0,1.1-0.9,2-2,2s-2-0.9-2-2
								c0-3.86,3.14-7,7-7s7,3.14,7,7C87.65,222.3,86.76,223.19,85.65,223.19z"/>
						</g>
					</g>
				</g>
				<g>
					<g>
						<path class="st0" d="M82.12,210.44c-2,0.33-4.34,0.42-6.31,0.85c-1.48,0.25-3.92,1.35-4.42-0.92
							c-0.07-0.44,0.03-0.87,0.25-1.22c1.79-2.76,5.51-3.65,8.57-3.02c1.01,0.21,1.9,0.51,2.88,1.12
							C84.56,208.26,83.84,210.33,82.12,210.44L82.12,210.44z"/>
					</g>
				</g>
			</g>
		</g>
		<g>
			<g>
				<path class="st0" d="M91.46,233.42c-4.22,0-8.55-1.08-12.28-3.25c-0.96-0.55-1.28-1.78-0.73-2.73c0.55-0.96,1.78-1.28,2.73-0.73
					c6.17,3.58,14.54,3.59,19.89,0.03c0.92-0.61,2.16-0.36,2.77,0.56s0.36,2.16-0.56,2.77C99.93,232.31,95.75,233.42,91.46,233.42z"
					/>
			</g>
		</g>
		<g>
			<g>
				<path class="st0" d="M87.43,236.89c2.48,0.43,5.02,0.44,7.48,0c1.37-0.27,2.22,1.56,1.15,2.43c0,0-0.62,0.52-0.62,0.52
					c-2.42,1.86-6.09,1.84-8.52,0c0,0-0.62-0.52-0.62-0.52C85.21,238.45,86.08,236.63,87.43,236.89L87.43,236.89z"/>
			</g>
		</g>
	</g>
</g>
<g>
	<g>
		<circle class="st9" cx="315.05" cy="323.37" r="70"/>
		<path class="st0" d="M315.05,396.37c-40.25,0-73-32.75-73-73s32.75-73,73-73s73,32.75,73,73S355.3,396.37,315.05,396.37z
			 M315.05,256.37c-36.94,0-67,30.06-67,67s30.06,67,67,67s67-30.06,67-67S351.99,256.37,315.05,256.37z"/>
	</g>
	<g>
		<defs>
			<path id="SVGID_1_" d="M245.05,193.37v130c0,38.66,31.34,70,70,70s70-31.34,70-70v-130H245.05z"/>
		</defs>
		<clipPath id="SVGID_00000101817472615725086580000009669968327782466733_">
			<use xlink:href="#SVGID_1_"  style="overflow:visible;"/>
		</clipPath>
		<g style="clip-path:url(#SVGID_00000101817472615725086580000009669968327782466733_);">
			<g>
				<g>
					<g>
						<g>
							<path class="st11" d="M232.05,433.37v-34.51c0-19.3,12.99-36.34,31.6-41.46l51.4-14.14l51.4,14.14
								c18.6,5.12,31.6,22.17,31.6,41.46v34.51H232.05z"/>
						</g>
					</g>
					<g>
						<g>
							<g>
								<path class="st0" d="M315.05,346.37l50.61,13.92c17.36,4.77,29.39,20.56,29.39,38.57v31.52h-160v-31.52
									c0-18.01,12.03-33.79,29.39-38.57L315.05,346.37 M315.05,340.15l-1.59,0.44l-50.61,13.92c-19.9,5.47-33.8,23.71-33.8,44.35
									v31.52v6h6h160h6v-6v-31.52c0-20.64-13.9-38.88-33.8-44.35l-50.61-13.92L315.05,340.15L315.05,340.15z"/>
							</g>
						</g>
					</g>
				</g>
				<g>
					<g>
						<g>
							<circle class="st12" cx="354.05" cy="248.37" r="20"/>
						</g>
					</g>
					<g>
						<g>
							<path class="st0" d="M354.05,231.37c9.39,0,17,7.61,17,17c0,9.39-7.61,17-17,17c-9.39,0-17-7.61-17-17
								C337.05,238.98,344.66,231.37,354.05,231.37 M354.05,225.37c-12.68,0-23,10.32-23,23c0,12.68,10.32,23,23,23s23-10.32,23-23
								C377.05,235.69,366.73,225.37,354.05,225.37L354.05,225.37z"/>
						</g>
					</g>
				</g>
				<g>
					<g>
						<g>
							<circle class="st12" cx="276.05" cy="248.37" r="20"/>
						</g>
					</g>
					<g>
						<g>
							<path class="st0" d="M276.05,231.37c9.39,0,17,7.61,17,17c0,9.39-7.61,17-17,17c-9.39,0-17-7.61-17-17
								C259.05,238.98,266.66,231.37,276.05,231.37 M276.05,225.37c-12.68,0-23,10.32-23,23c0,12.68,10.32,23,23,23s23-10.32,23-23
								C299.05,235.69,288.73,225.37,276.05,225.37L276.05,225.37z"/>
						</g>
					</g>
				</g>
				<g>
					<g>
						<g>
							<circle class="st12" cx="347.05" cy="306.37" r="20"/>
						</g>
					</g>
					<g>
						<g>
							<path class="st0" d="M347.05,289.37c9.39,0,17,7.61,17,17c0,9.39-7.61,17-17,17c-9.39,0-17-7.61-17-17
								C330.05,296.98,337.66,289.37,347.05,289.37 M347.05,283.37c-12.68,0-23,10.32-23,23c0,12.68,10.32,23,23,23s23-10.32,23-23
								C370.05,293.69,359.73,283.37,347.05,283.37L347.05,283.37z"/>
						</g>
					</g>
				</g>
				<g>
					<g>
						<g>
							<circle class="st12" cx="283.05" cy="306.37" r="20"/>
						</g>
					</g>
					<g>
						<g>
							<path class="st0" d="M283.05,289.37c9.39,0,17,7.61,17,17c0,9.39-7.61,17-17,17c-9.39,0-17-7.61-17-17
								C266.05,296.98,273.66,289.37,283.05,289.37 M283.05,283.37c-12.68,0-23,10.32-23,23c0,12.68,10.32,23,23,23s23-10.32,23-23
								C306.05,293.69,295.73,283.37,283.05,283.37L283.05,283.37z"/>
						</g>
					</g>
				</g>
				<g>
					<g>
						<g>
							<path class="st12" d="M356.05,289.37c-11.03,0-20-8.97-20-20s8.97-20,20-20s20,8.97,20,20S367.07,289.37,356.05,289.37z"/>
						</g>
					</g>
					<g>
						<g>
							<path class="st0" d="M356.05,252.37c9.39,0,17,7.61,17,17c0,9.39-7.61,17-17,17c-9.39,0-17-7.61-17-17
								C339.05,259.98,346.66,252.37,356.05,252.37 M356.05,246.37c-12.68,0-23,10.32-23,23c0,12.68,10.32,23,23,23s23-10.32,23-23
								C379.05,256.69,368.73,246.37,356.05,246.37L356.05,246.37z"/>
						</g>
					</g>
				</g>
				<g>
					<g>
						<g>
							<path class="st12" d="M274.05,289.37c-11.03,0-20-8.97-20-20s8.97-20,20-20s20,8.97,20,20S285.07,289.37,274.05,289.37z"/>
						</g>
					</g>
					<g>
						<g>
							<path class="st0" d="M274.05,252.37c9.39,0,17,7.61,17,17c0,9.39-7.61,17-17,17c-9.39,0-17-7.61-17-17
								C257.05,259.98,264.66,252.37,274.05,252.37 M274.05,246.37c-12.68,0-23,10.32-23,23c0,12.68,10.32,23,23,23s23-10.32,23-23
								C297.05,256.69,286.73,246.37,274.05,246.37L274.05,246.37z"/>
						</g>
					</g>
				</g>
				<g>
					<g>
						<g>
							<path class="st13" d="M315.05,373.37c-9.93,0-18-8.08-18-18v-35c0-1.66,1.34-3,3-3h30c1.66,0,3,1.34,3,3v35
								C333.05,365.3,324.97,373.37,315.05,373.37z"/>
						</g>
					</g>
					<g>
						<g>
							<g>
								<path class="st0" d="M330.05,320.37v35c0,8.28-6.72,15-15,15h0c-8.28,0-15-6.72-15-15v-35H330.05 M330.05,314.37h-30
									c-3.31,0-6,2.69-6,6v35c0,11.58,9.42,21,21,21c11.58,0,21-9.42,21-21v-35C336.05,317.06,333.36,314.37,330.05,314.37
									L330.05,314.37z"/>
							</g>
						</g>
					</g>
				</g>
				<g>
					<g>
						<path class="st14" d="M300.05,326.37v25.16c4.65,1.83,9.7,2.84,15,2.84h0c5.3,0,10.35-1.02,15-2.84v-25.16H300.05z"/>
					</g>
				</g>
				<g>
					<g>
						<path class="st0" d="M313.05,350.87c-1.38,0-2.5-1.12-2.5-2.5s1.12-2.5,2.5-2.5c1.93,0,3.5-1.57,3.5-3.5s-1.57-3.5-3.5-3.5
							c-1.38,0-2.5-1.12-2.5-2.5s1.12-2.5,2.5-2.5c4.69,0,8.5,3.81,8.5,8.5S317.73,350.87,313.05,350.87z"/>
					</g>
				</g>
				<g>
					<g>
						<g>
							<path class="st13" d="M359.05,303.37c-1.66,0-3-1.34-3-3v-22c0-1.66,1.34-3,3-3c7.17,0,13,5.83,13,13v2
								C372.05,297.54,366.21,303.37,359.05,303.37z"/>
						</g>
					</g>
					<g>
						<g>
							<g>
								<path class="st0" d="M359.05,278.37c5.52,0,10,4.48,10,10v2c0,5.52-4.48,10-10,10V278.37 M359.05,272.37c-3.31,0-6,2.69-6,6
									v22c0,3.31,2.69,6,6,6c8.82,0,16-7.18,16-16v-2C375.05,279.55,367.87,272.37,359.05,272.37L359.05,272.37z"/>
							</g>
						</g>
					</g>
				</g>
				<g>
					<g>
						<g>
							<path class="st14" d="M271.05,303.37c-7.17,0-13-5.83-13-13v-2c0-7.17,5.83-13,13-13c1.66,0,3,1.34,3,3v22
								C274.05,302.03,272.7,303.37,271.05,303.37z"/>
						</g>
					</g>
					<g>
						<g>
							<g>
								<path class="st0" d="M271.05,278.37v22h0c-5.52,0-10-4.48-10-10v-2C261.05,282.85,265.52,278.37,271.05,278.37
									L271.05,278.37 M271.05,272.37c-8.82,0-16,7.18-16,16v2c0,8.82,7.18,16,16,16c3.31,0,6-2.69,6-6l0-22
									c0-1.59-0.63-3.12-1.76-4.24C274.16,273,272.64,272.37,271.05,272.37L271.05,272.37z"/>
							</g>
						</g>
					</g>
				</g>
				<g>
					<g>
						<g>
							<path class="st13" d="M315.05,339.37c-24.26,0-44-19.74-44-44v-30c0-24.26,19.74-44,44-44s44,19.74,44,44v30
								C359.05,319.63,339.31,339.37,315.05,339.37z"/>
						</g>
					</g>
					<g>
						<g>
							<path class="st0" d="M315.05,224.37c22.64,0,41,18.36,41,41v30c0,22.64-18.36,41-41,41h0c-22.64,0-41-18.36-41-41v-30
								C274.05,242.73,292.4,224.37,315.05,224.37L315.05,224.37 M315.05,218.37c-25.92,0-47,21.08-47,47v30c0,25.92,21.08,47,47,47
								c25.92,0,47-21.08,47-47v-30C362.05,239.46,340.96,218.37,315.05,218.37L315.05,218.37z"/>
						</g>
					</g>
				</g>
				<g>
					<g>
						<path class="st14" d="M282.05,295.37v-30c0-21.29,16.23-38.79,37-40.8c-1.32-0.13-2.65-0.2-4-0.2c-22.64,0-41,18.36-41,41v30
							c0,22.64,18.36,41,41,41c1.35,0,2.68-0.07,4-0.2C298.28,334.16,282.05,316.67,282.05,295.37z"/>
					</g>
				</g>
				<g>
					<g>
						<path class="st14" d="M323.05,287.37c0,4.42-3.58,8-8,8h0c-4.42,0-8-3.58-8-8L323.05,287.37z"/>
					</g>
				</g>
				<g>
					<g>
						<path class="st0" d="M315.05,297.87c-5.79,0-10.5-4.71-10.5-10.5v-13c0-1.38,1.12-2.5,2.5-2.5s2.5,1.12,2.5,2.5v13
							c0,3.03,2.47,5.5,5.5,5.5s5.5-2.47,5.5-5.5v-13c0-1.38,1.12-2.5,2.5-2.5s2.5,1.12,2.5,2.5v13
							C325.55,293.16,320.84,297.87,315.05,297.87z"/>
					</g>
				</g>
				<g>
					<g>
						<g>
							<circle class="st12" cx="288.05" cy="230.37" r="19"/>
						</g>
					</g>
					<g>
						<g>
							<path class="st0" d="M288.05,214.37c8.84,0,16,7.16,16,16c0,8.84-7.16,16-16,16c-8.84,0-16-7.16-16-16
								C272.05,221.53,279.21,214.37,288.05,214.37 M288.05,208.37c-12.13,0-22,9.87-22,22s9.87,22,22,22s22-9.87,22-22
								S300.18,208.37,288.05,208.37L288.05,208.37z"/>
						</g>
					</g>
				</g>
				<g>
					<g>
						<g>
							<circle class="st12" cx="342.05" cy="230.37" r="19"/>
						</g>
					</g>
					<g>
						<g>
							<path class="st0" d="M342.05,214.37c8.84,0,16,7.16,16,16c0,8.84-7.16,16-16,16c-8.84,0-16-7.16-16-16
								C326.05,221.53,333.21,214.37,342.05,214.37 M342.05,208.37c-12.13,0-22,9.87-22,22s9.87,22,22,22s22-9.87,22-22
								S354.18,208.37,342.05,208.37L342.05,208.37z"/>
						</g>
					</g>
				</g>
				<g>
					<g>
						<g>
							<circle class="st12" cx="315.05" cy="224.37" r="20"/>
						</g>
					</g>
					<g>
						<g>
							<path class="st0" d="M315.05,207.37c9.39,0,17,7.61,17,17s-7.61,17-17,17c-9.39,0-17-7.61-17-17S305.66,207.37,315.05,207.37
								 M315.05,201.37c-12.68,0-23,10.32-23,23s10.32,23,23,23s23-10.32,23-23S327.73,201.37,315.05,201.37L315.05,201.37z"/>
						</g>
					</g>
				</g>
				<g>
					<g>
						<path class="st0" d="M313.05,234.87c-1.38,0-2.5-1.12-2.5-2.5s1.12-2.5,2.5-2.5c4.14,0,7.5-3.36,7.5-7.5
							c0-1.38,1.12-2.5,2.5-2.5s2.5,1.12,2.5,2.5C325.55,229.26,319.94,234.87,313.05,234.87z"/>
					</g>
				</g>
				<g>
					<g>
						<g>
							<circle class="st0" cx="335.05" cy="277.37" r="6"/>
						</g>
					</g>
					<g>
						<g>
							<circle class="st5" cx="337.05" cy="277.37" r="1.5"/>
						</g>
					</g>
					<g>
						<g>
							<path class="st0" d="M339.04,286.37c-0.35,0-0.71-0.09-1.03-0.29c-1.58-0.95-4.35-0.95-5.93,0
								c-0.95,0.57-2.18,0.27-2.75-0.68c-0.57-0.95-0.27-2.17,0.68-2.75c2.82-1.71,7.24-1.71,10.07,0c0.95,0.57,1.25,1.8,0.68,2.75
								C340.38,286.03,339.72,286.37,339.04,286.37z"/>
						</g>
					</g>
				</g>
				<g>
					<g>
						<g>
							<circle class="st0" cx="295.05" cy="277.37" r="6"/>
						</g>
					</g>
					<g>
						<g>
							<path class="st0" d="M299.04,286.37c-0.35,0-0.71-0.09-1.03-0.29c-1.58-0.95-4.35-0.95-5.93,0
								c-0.95,0.57-2.18,0.27-2.75-0.68c-0.57-0.95-0.27-2.17,0.68-2.75c2.82-1.71,7.24-1.71,10.07,0c0.95,0.57,1.25,1.8,0.68,2.75
								C300.38,286.03,299.72,286.37,299.04,286.37z"/>
						</g>
					</g>
					<g>
						<g>
							<circle class="st5" cx="297.05" cy="277.37" r="1.5"/>
						</g>
					</g>
				</g>
				<g>
					<g>
						<path class="st0" d="M315.38,308.38c-4.88,0-9.88-1.06-14.21-3.18c-0.99-0.49-1.4-1.68-0.92-2.68
							c0.49-0.99,1.68-1.4,2.68-0.92c7.48,3.67,17.64,3.68,24.14,0.02c0.96-0.54,2.18-0.2,2.72,0.76s0.2,2.18-0.76,2.72
							C325.16,307.29,320.33,308.38,315.38,308.38z"/>
					</g>
				</g>
				<g>
					<g>
						<path class="st0" d="M328.69,263.15c3.65-3.59,9.86-4.33,14.11-1.29c2.26,1.52,5.25,5.55,1.87,7.31
							c-1.81,0.8-3.81-1.11-5.31-1.51c-2.93-1.34-6.33-0.84-9.48-1.08C328.23,266.45,327.49,264.25,328.69,263.15L328.69,263.15z"/>
					</g>
				</g>
				<g>
					<g>
						<path class="st0" d="M299.49,266.66c-2.94,0-6.06-0.19-8.76,1c-0.94,0.31-2.13,1.05-3.29,1.51c-1.29,0.56-2.79-0.03-3.35-1.33
							c-0.29-0.67-0.27-1.4,0-2.02c1.25-3.2,4.76-5.57,8.21-5.8c2.6-0.24,5.01,0.34,7.17,1.61c1.46,0.84,3.62,2.57,1.97,4.36
							C300.93,266.54,300.16,266.6,299.49,266.66L299.49,266.66z"/>
					</g>
				</g>
				<g>
					<g>
						<g>
							<path class="st0" d="M310.85,310.97c2.76,0.55,5.62,0.57,8.37,0c1.33-0.31,2.21,1.46,1.18,2.33c-0.8,0.78-1.8,1.42-2.84,1.7
								c-2.46,0.7-5.29,0.44-7.32-1.22c0,0-0.54-0.47-0.54-0.47C308.64,312.43,309.54,310.66,310.85,310.97L310.85,310.97z"/>
						</g>
					</g>
				</g>
			</g>
		</g>
	</g>
	<g>
		<path class="st0" d="M315.05,396.37c-40.25,0-73-32.75-73-73h6c0,36.94,30.06,67,67,67s67-30.06,67-67h6
			C388.05,363.62,355.3,396.37,315.05,396.37z"/>
	</g>
</g>
<g>
	<g>
		<g>
			<circle class="st8" cx="262.79" cy="119.19" r="70"/>
			<path class="st0" d="M262.79,192.19c-40.25,0-73-32.75-73-73s32.75-73,73-73s73,32.75,73,73S303.04,192.19,262.79,192.19z
				 M262.79,52.19c-36.94,0-67,30.06-67,67s30.06,67,67,67s67-30.06,67-67S299.73,52.19,262.79,52.19z"/>
		</g>
		<g>
			<defs>
				<path id="SVGID_00000106845488870604667720000012502747837159804838_" d="M192.79-10.81v130c0,38.66,31.34,70,70,70
					s70-31.34,70-70v-130H192.79z"/>
			</defs>
			<clipPath id="SVGID_00000116205221252497915410000006408211145021977761_">
				<use xlink:href="#SVGID_00000106845488870604667720000012502747837159804838_"  style="overflow:visible;"/>
			</clipPath>
			<g style="clip-path:url(#SVGID_00000116205221252497915410000006408211145021977761_);">
				<g>
					<g>
						<g>
							<g>
								<path class="st16" d="M212.79,134.88c-1.66,0-3-1.34-3-3v-70c0-29.22,23.78-53,53-53s53,23.78,53,53v70c0,1.66-1.34,3-3,3
									H212.79z"/>
							</g>
						</g>
						<g>
							<g>
								<path class="st0" d="M262.79,11.88c27.61,0,50,22.39,50,50v70h-100v-70C212.79,34.26,235.18,11.88,262.79,11.88
									L262.79,11.88 M262.79,5.88c-30.88,0-56,25.12-56,56v70c0,3.31,2.69,6,6,6h100c3.31,0,6-2.69,6-6v-70
									C318.79,31,293.67,5.88,262.79,5.88L262.79,5.88z"/>
							</g>
						</g>
					</g>
					<g>
						<g>
							<g>
								<circle class="st17" cx="262.79" cy="51.88" r="43"/>
							</g>
						</g>
						<g>
							<g>
								<path class="st0" d="M262.79,11.88c22.09,0,40,17.91,40,40c0,22.09-17.91,40-40,40s-40-17.91-40-40
									C222.79,29.79,240.7,11.88,262.79,11.88 M262.79,5.88c-25.36,0-46,20.64-46,46s20.64,46,46,46s46-20.64,46-46
									S288.15,5.88,262.79,5.88L262.79,5.88z"/>
							</g>
						</g>
					</g>
					<g>
						<g>
							<g>
								<path class="st17" d="M192.79,226.88c-1.66,0-3-1.34-3-3v-32.64c0-18.88,12.1-35.36,30.11-41.02l41.99-13.2
									c0.29-0.09,0.6-0.14,0.9-0.14s0.61,0.05,0.9,0.14l41.99,13.2c18.01,5.66,30.11,22.15,30.11,41.02v32.64c0,1.66-1.34,3-3,3
									H192.79z"/>
							</g>
						</g>
						<g>
							<g>
								<g>
									<path class="st0" d="M262.79,139.88l41.99,13.2c16.67,5.24,28.01,20.69,28.01,38.16v32.64h-140v-32.64
										c0-17.47,11.34-32.92,28.01-38.16L262.79,139.88 M262.79,133.88c-0.61,0-1.21,0.09-1.8,0.28L219,147.35
										c-19.26,6.05-32.21,23.69-32.21,43.88v32.64c0,3.31,2.69,6,6,6h140c3.31,0,6-2.69,6-6v-32.64
										c0-20.19-12.94-37.83-32.21-43.88l-41.99-13.2C264,133.97,263.4,133.88,262.79,133.88L262.79,133.88z"/>
								</g>
							</g>
						</g>
					</g>
					<g>
						<g>
							<g>
								<path class="st18" d="M222.79,92.68c-6.07,0-11-4.93-11-11v-1.6c0-6.06,4.93-11,11-11c1.66,0,3,1.34,3,3v17.6
									C225.79,91.33,224.45,92.68,222.79,92.68z"/>
							</g>
						</g>
						<g>
							<g>
								<g>
									<path class="st0" d="M222.79,72.08v17.6c-4.42,0-8-3.58-8-8v-1.6C214.79,75.66,218.37,72.08,222.79,72.08 M222.79,66.08
										c-7.72,0-14,6.28-14,14v1.6c0,7.72,6.28,14,14,14c3.31,0,6-2.69,6-6v-17.6C228.79,68.76,226.1,66.08,222.79,66.08
										L222.79,66.08z"/>
								</g>
							</g>
						</g>
					</g>
					<g>
						<g>
							<g>
								<circle class="st8" cx="219.79" cy="95.88" r="6"/>
							</g>
						</g>
						<g>
							<g>
								<path class="st0" d="M219.79,92.88c1.66,0,3,1.34,3,3c0,1.66-1.34,3-3,3c-1.66,0-3-1.34-3-3
									C216.79,94.22,218.13,92.88,219.79,92.88 M219.79,86.88c-4.96,0-9,4.04-9,9s4.04,9,9,9s9-4.04,9-9
									S224.75,86.88,219.79,86.88L219.79,86.88z"/>
							</g>
						</g>
					</g>
					<g>
						<g>
							<g>
								<path class="st19" d="M262.79,179.88c-0.82,0-1.61-0.34-2.18-0.94c-1.42-1.49-13.82-14.85-13.82-24.06v-45
									c0-1.66,1.34-3,3-3h26c1.66,0,3,1.34,3,3v45c0,9.21-12.41,22.57-13.82,24.06C264.4,179.54,263.61,179.88,262.79,179.88z"/>
							</g>
						</g>
						<g>
							<g>
								<g>
									<path class="st0" d="M275.79,109.88v45c0,8.28-13,22-13,22s-13-13.72-13-22v-45H275.79 M275.79,103.88h-26
										c-3.31,0-6,2.69-6,6v45c0,4.8,2.5,10.57,7.65,17.64c3.44,4.72,6.85,8.34,7,8.49c1.13,1.2,2.71,1.87,4.35,1.87
										s3.22-0.68,4.35-1.87c0.14-0.15,3.56-3.77,7-8.49c5.15-7.07,7.65-12.84,7.65-17.64v-45
										C281.79,106.56,279.1,103.88,275.79,103.88L275.79,103.88z"/>
								</g>
							</g>
						</g>
					</g>
					<g>
						<g>
							<path class="st18" d="M249.79,113.88v29.93c4.09,1.33,8.46,2.07,13,2.07s8.91-0.73,13-2.07v-29.93H249.79z"/>
						</g>
					</g>
					<g>
						<g>
							<g>
								<path class="st19" d="M302.79,92.68c-1.66,0-3-1.34-3-3v-17.6c0-1.66,1.34-3,3-3c6.07,0,11,4.93,11,11v1.6
									C313.79,87.74,308.86,92.68,302.79,92.68z"/>
							</g>
						</g>
						<g>
							<g>
								<g>
									<path class="st0" d="M302.79,72.08c4.42,0,8,3.58,8,8v1.6c0,4.42-3.58,8-8,8V72.08 M302.79,66.08c-3.31,0-6,2.69-6,6v17.6
										c0,3.31,2.69,6,6,6c7.72,0,14-6.28,14-14v-1.6C316.79,72.36,310.51,66.08,302.79,66.08L302.79,66.08z"/>
								</g>
							</g>
						</g>
					</g>
					<g>
						<g>
							<g>
								<circle class="st8" cx="305.79" cy="95.88" r="6"/>
							</g>
						</g>
						<g>
							<g>
								<path class="st0" d="M305.79,92.88c1.66,0,3,1.34,3,3c0,1.66-1.34,3-3,3s-3-1.34-3-3
									C302.79,94.22,304.13,92.88,305.79,92.88 M305.79,86.88c-4.96,0-9,4.04-9,9s4.04,9,9,9s9-4.04,9-9
									S310.75,86.88,305.79,86.88L305.79,86.88z"/>
							</g>
						</g>
					</g>
					<g>
						<g>
							<g>
								<path class="st19" d="M262.79,126.88c-21.5,0-39-17.5-39-39v-28c0-21.5,17.5-39,39-39s39,17.5,39,39v28
									C301.79,109.38,284.29,126.88,262.79,126.88z"/>
							</g>
						</g>
						<g>
							<g>
								<g>
									<path class="st0" d="M262.79,23.88c19.88,0,36,16.12,36,36v28c0,19.88-16.12,36-36,36h0c-19.88,0-36-16.12-36-36v-28
										C226.79,39.99,242.91,23.88,262.79,23.88L262.79,23.88 M262.79,17.88c-23.16,0-42,18.84-42,42v28c0,23.16,18.84,42,42,42
										c23.16,0,42-18.84,42-42v-28C304.79,36.72,285.95,17.88,262.79,17.88L262.79,17.88z"/>
								</g>
							</g>
						</g>
					</g>
					<g>
						<g>
							<path class="st18" d="M234.79,87.88v-28c0-18.53,14-33.78,32-35.77c-1.31-0.15-2.65-0.23-4-0.23h0c-19.88,0-36,16.12-36,36
								v28c0,19.88,16.12,36,36,36h0c1.35,0,2.69-0.08,4-0.23C248.79,121.66,234.79,106.41,234.79,87.88z"/>
						</g>
					</g>
					<g>
						<g>
							<path class="st18" d="M269.79,82.88c0,3.87-3.13,7-7,7l0,0c-3.87,0-7-3.13-7-7L269.79,82.88z"/>
						</g>
					</g>
					<g>
						<g>
							<path class="st0" d="M263.12,100.89c-4.88,0-9.88-1.06-14.21-3.18c-0.99-0.49-1.4-1.68-0.92-2.68
								c0.49-0.99,1.68-1.4,2.68-0.92c7.49,3.67,17.64,3.68,24.14,0.02c0.96-0.54,2.18-0.2,2.72,0.76c0.54,0.96,0.2,2.18-0.76,2.72
								C272.9,99.8,268.07,100.89,263.12,100.89z"/>
						</g>
					</g>
					<g>
						<g>
							<g>
								<path class="st0" d="M259,103.65c2.47,0.57,5.1,0.59,7.57,0c1.27-0.35,2.15,1.33,1.18,2.18c-0.77,0.76-1.77,1.54-2.78,1.78
									c-2.16,0.62-4.6,0.39-6.39-1.11c0,0-0.74-0.66-0.74-0.66C256.85,104.98,257.75,103.31,259,103.65L259,103.65z"/>
							</g>
						</g>
					</g>
					<g>
						<g>
							<g>
								<circle class="st0" cx="280.79" cy="72.88" r="6"/>
							</g>
						</g>
						<g>
							<g>
								<circle class="st5" cx="282.79" cy="72.88" r="1.5"/>
							</g>
						</g>
						<g>
							<g>
								<path class="st0" d="M284.79,81.88c-0.35,0-0.71-0.09-1.03-0.29c-1.58-0.95-4.35-0.95-5.93,0
									c-0.95,0.57-2.18,0.27-2.75-0.68c-0.57-0.95-0.27-2.17,0.68-2.75c2.82-1.7,7.24-1.7,10.07,0c0.95,0.57,1.25,1.8,0.68,2.75
									C286.13,81.53,285.47,81.88,284.79,81.88z"/>
							</g>
						</g>
					</g>
					<g>
						<g>
							<g>
								<circle class="st0" cx="244.79" cy="72.88" r="6"/>
							</g>
						</g>
						<g>
							<g>
								<path class="st0" d="M248.79,81.88c-0.35,0-0.71-0.09-1.03-0.29c-1.58-0.95-4.35-0.95-5.93,0
									c-0.95,0.57-2.18,0.27-2.75-0.68c-0.57-0.95-0.27-2.17,0.68-2.75c2.82-1.7,7.24-1.7,10.07,0c0.95,0.57,1.25,1.8,0.68,2.75
									C250.13,81.53,249.47,81.88,248.79,81.88z"/>
							</g>
						</g>
						<g>
							<g>
								<circle class="st5" cx="246.79" cy="72.88" r="1.5"/>
							</g>
						</g>
					</g>
					<g>
						<g>
							<path class="st0" d="M273.67,66.21c3.78-5.24,13.46-5.1,15.84,1.35c0.21,0.55-0.06,1.17-0.62,1.39
								c-0.28,0.12-0.57,0.08-0.84-0.02c-3.38-1.2-6.08-1.8-9.61-1.41c-1.19,0.09-2.53,0.28-3.86,0.37
								C273.71,67.98,273.13,66.89,273.67,66.21L273.67,66.21z"/>
						</g>
					</g>
					<g>
						<g>
							<path class="st0" d="M249.8,67.87c-4.8-0.62-8.7-0.79-13.28,1.06c-0.85,0.39-1.82-0.5-1.46-1.37c1.68-4.77,8-6.29,12.26-4.18
								c1.13,0.53,5.03,2.85,3.37,4.3C250.43,67.89,250.11,67.91,249.8,67.87L249.8,67.87z"/>
						</g>
					</g>
					<g>
						<g>
							<g>
								<path class="st7" d="M227.14,57.88c-0.87,0-1.69-0.38-2.26-1.03c-0.57-0.65-0.83-1.52-0.71-2.38
									c2.66-19.15,19.26-33.59,38.62-33.59c19.35,0,35.96,14.44,38.62,33.59c0.12,0.86-0.14,1.73-0.71,2.38
									c-0.57,0.65-1.4,1.03-2.26,1.03H227.14z"/>
							</g>
						</g>
						<g>
							<g>
								<g>
									<path class="st0" d="M262.79,23.88c18.18,0,33.21,13.49,35.65,31h-71.29C229.58,37.36,244.61,23.88,262.79,23.88
										L262.79,23.88 M262.79,17.88c-20.84,0-38.72,15.55-41.59,36.17c-0.24,1.72,0.28,3.46,1.42,4.77
										c1.14,1.31,2.79,2.06,4.53,2.06h71.29c1.74,0,3.39-0.75,4.53-2.06s1.66-3.05,1.42-4.77
										C301.51,33.43,283.63,17.88,262.79,17.88L262.79,17.88z"/>
								</g>
							</g>
						</g>
					</g>
					<g>
						<g>
							<path class="st0" d="M236.79,57.38c-1.38,0-2.5-1.12-2.5-2.5v-10c0-1.38,1.12-2.5,2.5-2.5s2.5,1.12,2.5,2.5v10
								C239.29,56.26,238.17,57.38,236.79,57.38z"/>
						</g>
					</g>
					<g>
						<g>
							<path class="st0" d="M246.79,57.38c-1.38,0-2.5-1.12-2.5-2.5v-16c0-1.38,1.12-2.5,2.5-2.5s2.5,1.12,2.5,2.5v16
								C249.29,56.26,248.17,57.38,246.79,57.38z"/>
						</g>
					</g>
					<g>
						<g>
							<path class="st0" d="M222.79,134.38c-1.38,0-2.5-1.12-2.5-2.5v-28c0-1.38,1.12-2.5,2.5-2.5s2.5,1.12,2.5,2.5v28
								C225.29,133.26,224.17,134.38,222.79,134.38z"/>
						</g>
					</g>
					<g>
						<g>
							<path class="st0" d="M233.79,134.38c-1.38,0-2.5-1.12-2.5-2.5v-16c0-1.38,1.12-2.5,2.5-2.5s2.5,1.12,2.5,2.5v16
								C236.29,133.26,235.17,134.38,233.79,134.38z"/>
						</g>
					</g>
					<g>
						<g>
							<path class="st0" d="M302.79,134.38c-1.38,0-2.5-1.12-2.5-2.5v-28c0-1.38,1.12-2.5,2.5-2.5s2.5,1.12,2.5,2.5v28
								C305.29,133.26,304.17,134.38,302.79,134.38z"/>
						</g>
					</g>
					<g>
						<g>
							<path class="st0" d="M291.79,134.38c-1.38,0-2.5-1.12-2.5-2.5v-16c0-1.38,1.12-2.5,2.5-2.5s2.5,1.12,2.5,2.5v16
								C294.29,133.26,293.17,134.38,291.79,134.38z"/>
						</g>
					</g>
					<g>
						<g>
							<path class="st0" d="M262.79,92.38c-4.69,0-8.5-3.81-8.5-8.5v-12c0-1.38,1.12-2.5,2.5-2.5s2.5,1.12,2.5,2.5v12
								c0,1.93,1.57,3.5,3.5,3.5s3.5-1.57,3.5-3.5v-12c0-1.38,1.12-2.5,2.5-2.5s2.5,1.12,2.5,2.5v12
								C271.29,88.56,267.48,92.38,262.79,92.38z"/>
						</g>
					</g>
				</g>
			</g>
		</g>
		<g>
			<path class="st0" d="M262.79,192.19c-40.25,0-73-32.75-73-73h6c0,36.94,30.06,67,67,67s67-30.06,67-67h6
				C335.79,159.44,303.04,192.19,262.79,192.19z"/>
		</g>
	</g>
</g>
<g>
	<g>
		<rect x="-0.08" class="st20" width="400" height="400"/>
	</g>
</g>
<g>
	<g>
		<g>
			<path class="st16" d="M30.98,30.35c2.98,0,5.4-2.42,5.4-5.4c0-0.99,0.81-1.8,1.8-1.8s1.8,0.81,1.8,1.8c0,2.98,2.42,5.4,5.4,5.4
				c0.99,0,1.8,0.81,1.8,1.8c0,0.99-0.81,1.8-1.8,1.8c-2.98,0-5.4,2.42-5.4,5.4c0,0.99-0.81,1.8-1.8,1.8s-1.8-0.81-1.8-1.8
				c0-2.98-2.42-5.4-5.4-5.4c-0.99,0-1.8-0.81-1.8-1.8C29.18,31.16,29.99,30.35,30.98,30.35z"/>
		</g>
	</g>
</g>
<g>
	<g>
		<g>
			<circle class="st16" cx="92.18" cy="49.19" r="3"/>
		</g>
	</g>
</g>
<g>
	<g>
		<g>
			<circle class="st16" cx="359.3" cy="46.19" r="3"/>
		</g>
	</g>
</g>
<g>
	<g>
		<g>
			<circle class="st16" cx="212.47" cy="225.58" r="3"/>
		</g>
	</g>
</g>
<g>
	<g>
		<g>
			<circle class="st16" cx="55.18" cy="109.19" r="3"/>
		</g>
	</g>
</g>
<g>
	<g>
		<g>
			<circle class="st16" cx="365.3" cy="160.28" r="3"/>
		</g>
	</g>
</g>
<g>
	<g>
		<circle class="st16" cx="102.4" cy="93.69" r="4.5"/>
	</g>
</g>
<g>
	<g>
		<circle class="st16" cx="380.55" cy="98.19" r="4.5"/>
	</g>
</g>
<g>
	<g>
		<circle class="st16" cx="202.12" cy="278.03" r="4.5"/>
	</g>
</g>
<g>
	<path class="st16" d="M169.25,61.19h-6v-6c0-1.66-1.34-3-3-3c-1.66,0-3,1.34-3,3v6h-6c-1.66,0-3,1.34-3,3c0,1.66,1.34,3,3,3h6v6
		c0,1.66,1.34,3,3,3c1.66,0,3-1.34,3-3v-6h6c1.66,0,3-1.34,3-3C172.25,62.53,170.91,61.19,169.25,61.19z"/>
</g>
</svg>
