<?xml version="1.0" encoding="utf-8"?>
<!-- Generator: Adobe Illustrator 25.4.1, SVG Export Plug-In . SVG Version: 6.00 Build 0)  -->
<svg version="1.1" id="chapter-02" xmlns="http://www.w3.org/2000/svg" xmlns:xlink="http://www.w3.org/1999/xlink" x="0px" y="0px"
	 viewBox="0 0 300 300" style="enable-background:new 0 0 300 300;" xml:space="preserve">
<style type="text/css">
	.st0{opacity:0.2;fill:none;}
	.st1{fill:#FFD886;}
	.st2{fill:#FDE6DF;}
	.st3{fill:#515979;}
	.st4{fill:#F89D81;}
	.st5{fill:#EF7D7D;}
	.st6{fill:#667683;}
	.st7{fill:#FFFFFF;}
	.st8{fill:#FFE8A0;}
	.st9{fill:#7DDF96;}
	.st10{fill:#C4BDFF;}
	.st11{fill:#EEEBFF;}
	.st12{fill:#6ADAF7;}
	.st13{fill:#A6E9FA;}
	.st14{fill:#ACC9DB;}
	.st15{fill:#9E8271;}
</style>
<g>
	<rect class="st0" width="300" height="300"/>
	<path class="st1" d="M182,33h-6v-6c0-1.66-1.34-3-3-3s-3,1.34-3,3v6h-6c-1.66,0-3,1.34-3,3s1.34,3,3,3h6v6c0,1.66,1.34,3,3,3
		s3-1.34,3-3v-6h6c1.66,0,3-1.34,3-3S183.66,33,182,33z"/>
	<path class="st1" d="M127,247h-6v-6c0-1.66-1.34-3-3-3s-3,1.34-3,3v6h-6c-1.66,0-3,1.34-3,3s1.34,3,3,3h6v6c0,1.66,1.34,3,3,3
		s3-1.34,3-3v-6h6c1.66,0,3-1.34,3-3S128.66,247,127,247z"/>
	<g>
		<g>
			<path class="st1" d="M268.8,33.2c2.98,0,5.4-2.42,5.4-5.4c0-0.99,0.81-1.8,1.8-1.8s1.8,0.81,1.8,1.8c0,2.98,2.42,5.4,5.4,5.4
				c0.99,0,1.8,0.81,1.8,1.8s-0.81,1.8-1.8,1.8c-2.98,0-5.4,2.42-5.4,5.4c0,0.99-0.81,1.8-1.8,1.8s-1.8-0.81-1.8-1.8
				c0-2.98-2.42-5.4-5.4-5.4c-0.99,0-1.8-0.81-1.8-1.8S267.81,33.2,268.8,33.2z"/>
		</g>
	</g>
	<g>
		<g>
			<path class="st1" d="M224.4,282.6c2.32,0,4.2-1.88,4.2-4.2c0-0.77,0.63-1.4,1.4-1.4s1.4,0.63,1.4,1.4c0,2.32,1.88,4.2,4.2,4.2
				c0.77,0,1.4,0.63,1.4,1.4s-0.63,1.4-1.4,1.4c-2.32,0-4.2,1.88-4.2,4.2c0,0.77-0.63,1.4-1.4,1.4s-1.4-0.63-1.4-1.4
				c0-2.32-1.88-4.2-4.2-4.2c-0.77,0-1.4-0.63-1.4-1.4S223.63,282.6,224.4,282.6z"/>
		</g>
	</g>
	<g>
		<g>
			<circle class="st1" cx="84.5" cy="274.5" r="4.5"/>
		</g>
	</g>
	<g>
		<circle class="st1" cx="261" cy="294" r="3"/>
	</g>
	<g>
		<circle class="st1" cx="28" cy="241" r="3"/>
	</g>
	<g>
		<circle class="st1" cx="292.5" cy="60.5" r="4.5"/>
	</g>
	<g>
		<path class="st1" d="M71.2,246.2c-2.98,0-5.4-2.42-5.4-5.4c0-0.99-0.81-1.8-1.8-1.8c-0.99,0-1.8,0.81-1.8,1.8
			c0,2.98-2.42,5.4-5.4,5.4c-0.99,0-1.8,0.81-1.8,1.8s0.81,1.8,1.8,1.8c2.98,0,5.4,2.42,5.4,5.4c0,0.99,0.81,1.8,1.8,1.8
			c0.99,0,1.8-0.81,1.8-1.8c0-2.98,2.42-5.4,5.4-5.4c0.99,0,1.8-0.81,1.8-1.8S72.19,246.2,71.2,246.2z"/>
	</g>
	<g>
		<g>
			<circle class="st1" cx="249" cy="43" r="3"/>
		</g>
	</g>
	<g>
		<circle class="st1" cx="40.5" cy="6.5" r="4.5"/>
	</g>
	<g>
		<g>
			<circle class="st1" cx="7" cy="17" r="3"/>
		</g>
	</g>
	<g>
		<g>
			<path class="st2" d="M17,223c-7.17,0-13-5.83-13-13V42c0-7.17,5.83-13,13-13h111c7.17,0,13,5.83,13,13v168c0,7.17-5.83,13-13,13
				H17z"/>
		</g>
		<g>
			<path class="st3" d="M128,32c5.52,0,10,4.48,10,10v168c0,5.52-4.48,10-10,10H17c-5.52,0-10-4.48-10-10V42c0-5.52,4.48-10,10-10
				H128 M128,26H17C8.18,26,1,33.18,1,42v168c0,8.82,7.18,16,16,16h111c8.82,0,16-7.18,16-16V42C144,33.18,136.82,26,128,26L128,26z
				"/>
		</g>
	</g>
	<g>
		<rect x="7" y="109" class="st4" width="131" height="62"/>
	</g>
	<g>
		<rect x="7" y="109" class="st5" width="131" height="3"/>
	</g>
	<g>
		<g>
			<path class="st6" d="M7,61c-1.66,0-3-1.34-3-3V42c0-7.17,5.83-13,13-13h111c7.17,0,13,5.83,13,13v16c0,1.66-1.34,3-3,3H7z"/>
		</g>
		<g>
			<path class="st3" d="M128,32c5.52,0,10,4.48,10,10v16H7V42c0-5.52,4.48-10,10-10H128 M128,26H17C8.18,26,1,33.18,1,42v16
				c0,3.31,2.69,6,6,6h131c3.31,0,6-2.69,6-6V42C144,33.18,136.82,26,128,26L128,26z"/>
		</g>
	</g>
	<g>
		<g>
			<path class="st7" d="M82,51c-3.31,0-6-2.69-6-6s2.69-6,6-6h44c3.31,0,6,2.69,6,6s-2.69,6-6,6H82z"/>
		</g>
		<g>
			<g>
				<path class="st3" d="M126,42c1.66,0,3,1.34,3,3s-1.34,3-3,3H82c-1.66,0-3-1.34-3-3s1.34-3,3-3H126 M126,36H82
					c-4.96,0-9,4.04-9,9s4.04,9,9,9h44c4.96,0,9-4.04,9-9S130.96,36,126,36L126,36z"/>
			</g>
		</g>
	</g>
	<g>
		<g>
			<circle class="st5" cx="19" cy="45" r="6"/>
		</g>
		<g>
			<g>
				<path class="st3" d="M19,42c1.66,0,3,1.34,3,3s-1.34,3-3,3s-3-1.34-3-3S17.34,42,19,42 M19,36c-4.96,0-9,4.04-9,9s4.04,9,9,9
					s9-4.04,9-9S23.96,36,19,36L19,36z"/>
			</g>
		</g>
	</g>
	<g>
		<g>
			<circle class="st8" cx="40" cy="45" r="6"/>
		</g>
		<g>
			<g>
				<path class="st3" d="M40,42c1.66,0,3,1.34,3,3s-1.34,3-3,3s-3-1.34-3-3S38.34,42,40,42 M40,36c-4.96,0-9,4.04-9,9s4.04,9,9,9
					s9-4.04,9-9S44.96,36,40,36L40,36z"/>
			</g>
		</g>
	</g>
	<g>
		<g>
			<circle class="st9" cx="61" cy="45" r="6"/>
		</g>
		<g>
			<g>
				<path class="st3" d="M61,42c1.66,0,3,1.34,3,3s-1.34,3-3,3s-3-1.34-3-3S59.34,42,61,42 M61,36c-4.96,0-9,4.04-9,9s4.04,9,9,9
					s9-4.04,9-9S65.96,36,61,36L61,36z"/>
			</g>
		</g>
	</g>
	<g>
		<circle class="st2" cx="29.5" cy="134.5" r="16.5"/>
	</g>
	<g>
		<path class="st4" d="M38,177c-13.81,0-25,11.19-25,25c0,7.07,2.94,13.45,7.66,18h34.68c4.72-4.55,7.66-10.93,7.66-18
			C63,188.19,51.81,177,38,177z"/>
	</g>
	<g>
		<circle class="st2" cx="72.5" cy="134.5" r="16.5"/>
	</g>
	<g>
		<circle class="st2" cx="115.5" cy="134.5" r="16.5"/>
	</g>
	<g>
		<path class="st5" d="M44,158H15c-1.1,0-2-0.9-2-2l0,0c0-1.1,0.9-2,2-2h29c1.1,0,2,0.9,2,2l0,0C46,157.1,45.1,158,44,158z"/>
	</g>
	<g>
		<path class="st5" d="M37,165H15c-1.1,0-2-0.9-2-2l0,0c0-1.1,0.9-2,2-2h22c1.1,0,2,0.9,2,2l0,0C39,164.1,38.1,165,37,165z"/>
	</g>
	<g>
		<path class="st5" d="M87,158H58c-1.1,0-2-0.9-2-2l0,0c0-1.1,0.9-2,2-2h29c1.1,0,2,0.9,2,2l0,0C89,157.1,88.1,158,87,158z"/>
	</g>
	<g>
		<path class="st4" d="M130,204H71c-1.1,0-2-0.9-2-2l0,0c0-1.1,0.9-2,2-2h59c1.1,0,2,0.9,2,2l0,0C132,203.1,131.1,204,130,204z"/>
	</g>
	<g>
		<path class="st4" d="M109,211H71c-1.1,0-2-0.9-2-2l0,0c0-1.1,0.9-2,2-2h38c1.1,0,2,0.9,2,2l0,0C111,210.1,110.1,211,109,211z"/>
	</g>
	<g>
		<path class="st4" d="M130,197H71c-1.1,0-2-0.9-2-2l0,0c0-1.1,0.9-2,2-2h59c1.1,0,2,0.9,2,2l0,0C132,196.1,131.1,197,130,197z"/>
	</g>
	<g>
		<path class="st5" d="M80,165H58c-1.1,0-2-0.9-2-2l0,0c0-1.1,0.9-2,2-2h22c1.1,0,2,0.9,2,2l0,0C82,164.1,81.1,165,80,165z"/>
	</g>
	<g>
		<path class="st5" d="M130,158h-29c-1.1,0-2-0.9-2-2l0,0c0-1.1,0.9-2,2-2h29c1.1,0,2,0.9,2,2l0,0C132,157.1,131.1,158,130,158z"/>
	</g>
	<g>
		<path class="st5" d="M123,165h-22c-1.1,0-2-0.9-2-2l0,0c0-1.1,0.9-2,2-2h22c1.1,0,2,0.9,2,2l0,0C125,164.1,124.1,165,123,165z"/>
	</g>
	<g>
		<g>
			<path class="st3" d="M86.5,81c-1.1,0-2-0.9-2-2c0-1.1-0.9-2-2-2s-2,0.9-2,2c0,1.1-0.9,2-2,2s-2-0.9-2-2c0-3.31,2.69-6,6-6
				s6,2.69,6,6C88.5,80.1,87.6,81,86.5,81z"/>
		</g>
	</g>
	<g>
		<g>
			<path class="st3" d="M66.5,81c-1.1,0-2-0.9-2-2c0-1.1-0.9-2-2-2s-2,0.9-2,2c0,1.1-0.9,2-2,2s-2-0.9-2-2c0-3.31,2.69-6,6-6
				s6,2.69,6,6C68.5,80.1,67.6,81,66.5,81z"/>
		</g>
	</g>
	<g>
		<path class="st3" d="M68.76,101.52c0.61,0.17,1.23,0.29,1.86,0.35c0.63,0.07,1.26,0.12,1.89,0.14c0.63-0.02,1.26-0.06,1.89-0.14
			c0.63-0.06,1.24-0.18,1.85-0.36c0.7-0.2,1.44,0.2,1.64,0.91c0.14,0.49-0.01,0.99-0.35,1.32l-0.76,0.73
			c-0.62,0.6-1.33,0.95-2.05,1.18c-0.72,0.25-1.47,0.33-2.22,0.36c-0.75-0.02-1.49-0.1-2.21-0.35c-0.72-0.23-1.42-0.58-2.04-1.19
			l-0.77-0.75c-0.52-0.51-0.53-1.34-0.02-1.86C67.8,101.51,68.31,101.4,68.76,101.52z"/>
	</g>
	<g>
		<path class="st3" d="M79.03,67.85c0.98-0.6,1.87-0.9,2.89-1.1c0.99-0.2,2.03-0.24,3.08-0.13c1.04,0.1,2.1,0.42,3.07,0.92
			c0.98,0.49,1.85,1.25,2.47,2.16c0.53,0.79,0.33,1.86-0.46,2.39c-0.37,0.25-0.81,0.34-1.23,0.28l-0.39-0.06
			c-0.79-0.12-1.41-0.3-2.07-0.41c-0.66-0.1-1.3-0.24-2-0.32l-2.15-0.24c-0.73-0.08-1.57-0.13-2.28-0.28l-0.41-0.09
			c-0.92-0.2-1.5-1.11-1.3-2.03C78.37,68.47,78.66,68.08,79.03,67.85z"/>
	</g>
	<g>
		<path class="st3" d="M65.03,71.05c-0.71,0.16-1.55,0.21-2.28,0.28l-2.15,0.24c-0.69,0.08-1.33,0.22-2,0.32
			c-0.67,0.11-1.28,0.29-2.07,0.41l-0.39,0.06c-0.94,0.15-1.82-0.5-1.97-1.44c-0.07-0.45,0.04-0.88,0.27-1.23
			c0.62-0.91,1.49-1.67,2.47-2.16c0.97-0.5,2.03-0.82,3.07-0.92c1.04-0.11,2.08-0.08,3.08,0.13c1.01,0.2,1.91,0.5,2.89,1.1
			c0.8,0.49,1.05,1.54,0.56,2.34c-0.25,0.41-0.65,0.67-1.08,0.77L65.03,71.05z"/>
	</g>
	<g>
		<g>
			<path class="st10" d="M172,270c-7.17,0-13-5.83-13-13V87c0-7.17,5.83-13,13-13h111c7.17,0,13,5.83,13,13v170
				c0,7.17-5.83,13-13,13H172z"/>
		</g>
		<g>
			<g>
				<path class="st3" d="M283,77c5.52,0,10,4.48,10,10v170c0,5.52-4.48,10-10,10H172c-5.52,0-10-4.48-10-10V87c0-5.52,4.48-10,10-10
					H283 M283,71H172c-8.82,0-16,7.18-16,16v170c0,8.82,7.18,16,16,16h111c8.82,0,16-7.18,16-16V87C299,78.18,291.82,71,283,71
					L283,71z"/>
			</g>
		</g>
	</g>
	<g>
		<rect x="162" y="160" class="st11" width="131" height="62"/>
	</g>
	<g>
		<g>
			<path class="st6" d="M162,106c-1.66,0-3-1.34-3-3V87c0-7.17,5.83-13,13-13h111c7.17,0,13,5.83,13,13v16c0,1.66-1.34,3-3,3H162z"
				/>
		</g>
		<g>
			<path class="st3" d="M283,77c5.52,0,10,4.48,10,10v16H162V87c0-5.52,4.48-10,10-10H283 M283,71H172c-8.82,0-16,7.18-16,16v16
				c0,3.31,2.69,6,6,6h131c3.31,0,6-2.69,6-6V87C299,78.18,291.82,71,283,71L283,71z"/>
		</g>
	</g>
	<g>
		<g>
			<path class="st7" d="M237,96c-3.31,0-6-2.69-6-6s2.69-6,6-6h44c3.31,0,6,2.69,6,6s-2.69,6-6,6H237z"/>
		</g>
		<g>
			<g>
				<path class="st3" d="M281,87c1.66,0,3,1.34,3,3s-1.34,3-3,3h-44c-1.66,0-3-1.34-3-3s1.34-3,3-3H281 M281,81h-44
					c-4.96,0-9,4.04-9,9s4.04,9,9,9h44c4.96,0,9-4.04,9-9S285.96,81,281,81L281,81z"/>
			</g>
		</g>
	</g>
	<g>
		<g>
			<circle class="st5" cx="174" cy="90" r="6"/>
		</g>
		<g>
			<g>
				<path class="st3" d="M174,87c1.66,0,3,1.34,3,3s-1.34,3-3,3s-3-1.34-3-3S172.34,87,174,87 M174,81c-4.96,0-9,4.04-9,9
					s4.04,9,9,9s9-4.04,9-9S178.96,81,174,81L174,81z"/>
			</g>
		</g>
	</g>
	<g>
		<g>
			<circle class="st8" cx="195" cy="90" r="6"/>
		</g>
		<g>
			<g>
				<path class="st3" d="M195,87c1.66,0,3,1.34,3,3s-1.34,3-3,3s-3-1.34-3-3S193.34,87,195,87 M195,81c-4.96,0-9,4.04-9,9
					s4.04,9,9,9s9-4.04,9-9S199.96,81,195,81L195,81z"/>
			</g>
		</g>
	</g>
	<g>
		<g>
			<circle class="st9" cx="216" cy="90" r="6"/>
		</g>
		<g>
			<g>
				<path class="st3" d="M216,87c1.66,0,3,1.34,3,3s-1.34,3-3,3s-3-1.34-3-3S214.34,87,216,87 M216,81c-4.96,0-9,4.04-9,9
					s4.04,9,9,9s9-4.04,9-9S220.96,81,216,81L216,81z"/>
			</g>
		</g>
	</g>
	<g>
		<path class="st3" d="M237.8,113.26c0.92-0.68,1.79-1.06,2.78-1.35c0.97-0.29,2-0.41,3.05-0.39c1.05,0.01,2.13,0.23,3.14,0.65
			c1.02,0.4,1.96,1.08,2.65,1.93c0.6,0.74,0.49,1.82-0.25,2.42c-0.35,0.28-0.78,0.41-1.2,0.38l-0.39-0.03
			c-0.8-0.05-1.43-0.17-2.1-0.23c-0.67-0.04-1.32-0.12-2.02-0.14l-2.16-0.05c-0.73-0.01-1.57,0.01-2.29-0.08l-0.41-0.05
			c-0.93-0.12-1.59-0.98-1.47-1.91C237.19,113.93,237.45,113.53,237.8,113.26z"/>
	</g>
	<g>
		<path class="st3" d="M215.99,116.37c-0.72,0.09-1.56,0.07-2.29,0.08l-2.16,0.05c-0.7,0.02-1.35,0.1-2.02,0.14
			c-0.67,0.05-1.3,0.17-2.1,0.23l-0.39,0.03c-0.95,0.06-1.77-0.65-1.83-1.6c-0.03-0.45,0.12-0.88,0.38-1.2
			c0.69-0.85,1.63-1.53,2.65-1.93c1.01-0.42,2.1-0.64,3.14-0.65c1.05-0.02,2.08,0.1,3.05,0.39c0.99,0.29,1.86,0.67,2.78,1.35
			c0.75,0.56,0.91,1.63,0.35,2.38c-0.29,0.38-0.7,0.61-1.14,0.67L215.99,116.37z"/>
	</g>
	<g>
		<circle class="st11" cx="184.5" cy="244.5" r="16.5"/>
	</g>
	<g>
		<circle class="st11" cx="227.5" cy="244.5" r="16.5"/>
	</g>
	<g>
		<circle class="st11" cx="270.5" cy="244.5" r="16.5"/>
	</g>
	<g>
		<path class="st7" d="M283,215h-49c-2.21,0-4-1.79-4-4v-40c0-2.21,1.79-4,4-4h49c2.21,0,4,1.79,4,4v40
			C287,213.21,285.21,215,283,215z"/>
	</g>
	<g>
		<path class="st10" d="M279,201h-41c-1.1,0-2-0.9-2-2l0,0c0-1.1,0.9-2,2-2h41c1.1,0,2,0.9,2,2l0,0C281,200.1,280.1,201,279,201z"/>
	</g>
	<g>
		<path class="st10" d="M273,209h-35c-1.1,0-2-0.9-2-2l0,0c0-1.1,0.9-2,2-2h35c1.1,0,2,0.9,2,2l0,0C275,208.1,274.1,209,273,209z"/>
	</g>
	<g>
		<path class="st10" d="M279,193h-41c-1.1,0-2-0.9-2-2l0,0c0-1.1,0.9-2,2-2h41c1.1,0,2,0.9,2,2l0,0C281,192.1,280.1,193,279,193z"/>
	</g>
	<g>
		<circle class="st11" cx="242" cy="179" r="6"/>
	</g>
	<g>
		<path class="st7" d="M221,215h-49c-2.21,0-4-1.79-4-4v-40c0-2.21,1.79-4,4-4h49c2.21,0,4,1.79,4,4v40
			C225,213.21,223.21,215,221,215z"/>
	</g>
	<g>
		<path class="st10" d="M217,201h-41c-1.1,0-2-0.9-2-2l0,0c0-1.1,0.9-2,2-2h41c1.1,0,2,0.9,2,2l0,0C219,200.1,218.1,201,217,201z"/>
	</g>
	<g>
		<path class="st10" d="M211,209h-35c-1.1,0-2-0.9-2-2l0,0c0-1.1,0.9-2,2-2h35c1.1,0,2,0.9,2,2l0,0C213,208.1,212.1,209,211,209z"/>
	</g>
	<g>
		<path class="st10" d="M217,193h-41c-1.1,0-2-0.9-2-2l0,0c0-1.1,0.9-2,2-2h41c1.1,0,2,0.9,2,2l0,0C219,192.1,218.1,193,217,193z"/>
	</g>
	<g>
		<circle class="st11" cx="180" cy="179" r="6"/>
	</g>
	<g>
		<path class="st3" d="M245.5,119h16c2.21,0,4,1.79,4,4v0c0,2.21-1.79,4-4,4h-16V119z"/>
	</g>
	<g>
		<path class="st3" d="M209.5,119h-16c-2.21,0-4,1.79-4,4v0c0,2.21,1.79,4,4,4h16V119z"/>
	</g>
	<g>
		<path class="st12" d="M209.5,141L209.5,141c-5.52,0-10-4.48-10-10v-4c0-1.1,0.9-2,2-2h16c1.1,0,2,0.9,2,2v4
			C219.5,136.52,215.02,141,209.5,141z"/>
	</g>
	<g>
		<g>
			<polygon class="st13" points="217.5,124 213.64,124 207.52,142 211.38,142 			"/>
		</g>
	</g>
	<g>
		<g>
			<polygon class="st13" points="211.5,124 206.64,124 200.52,142 205.38,142 			"/>
		</g>
	</g>
	<g>
		<path class="st12" d="M245.5,141L245.5,141c-5.52,0-10-4.48-10-10v-4c0-1.1,0.9-2,2-2h16c1.1,0,2,0.9,2,2v4
			C255.5,136.52,251.02,141,245.5,141z"/>
	</g>
	<g>
		<g>
			<polygon class="st13" points="253.5,124 249.64,124 243.52,142 247.38,142 			"/>
		</g>
	</g>
	<g>
		<g>
			<polygon class="st13" points="247.5,124 242.64,124 236.52,142 241.38,142 			"/>
		</g>
	</g>
	<path class="st3" d="M253.5,119h-16c-2.83,0-5.31,1.48-6.74,3.7c-1-0.45-2.1-0.7-3.26-0.7s-2.27,0.26-3.26,0.7
		c-1.42-2.22-3.91-3.7-6.74-3.7h-16c-4.41,0-8,3.59-8,8v4c0,8.82,7.18,16,16,16s16-7.18,16-16v-1c0-1.1,0.9-2,2-2s2,0.9,2,2v1
		c0,8.82,7.18,16,16,16s16-7.18,16-16v-4C261.5,122.59,257.91,119,253.5,119z M219.5,131c0,5.52-4.48,10-10,10s-10-4.48-10-10v-4
		c0-1.1,0.9-2,2-2h16c1.1,0,2,0.9,2,2V131z M255.5,131c0,5.52-4.48,10-10,10s-10-4.48-10-10v-4c0-1.1,0.9-2,2-2h16c1.1,0,2,0.9,2,2
		V131z"/>
	<g>
		<path class="st14" d="M195.5,124h-2c-0.55,0-1-0.45-1-1l0,0c0-0.55,0.45-1,1-1h2c0.55,0,1,0.45,1,1l0,0
			C196.5,123.55,196.05,124,195.5,124z"/>
	</g>
	<g>
		<path class="st14" d="M259.5,124h2c0.55,0,1-0.45,1-1l0,0c0-0.55-0.45-1-1-1h-2c-0.55,0-1,0.45-1,1l0,0
			C258.5,123.55,258.95,124,259.5,124z"/>
	</g>
	<g>
		<g>
			<path class="st3" d="M227.78,148.01c-4.22,0-8.55-1.08-12.29-3.25c-0.96-0.55-1.28-1.78-0.73-2.73s1.78-1.28,2.73-0.73
				c6.17,3.58,14.54,3.59,19.89,0.03c0.92-0.61,2.16-0.36,2.77,0.56c0.61,0.92,0.36,2.16-0.56,2.77
				C236.25,146.89,232.07,148.01,227.78,148.01z"/>
		</g>
		<g>
			<path class="st3" d="M223.76,150.52c0.61,0.17,1.23,0.29,1.86,0.35c0.63,0.07,1.26,0.12,1.89,0.14c0.63-0.02,1.26-0.06,1.89-0.14
				c0.63-0.06,1.24-0.18,1.85-0.36c0.7-0.2,1.44,0.2,1.64,0.91c0.14,0.49-0.01,0.99-0.35,1.32l-0.76,0.73
				c-0.62,0.6-1.33,0.95-2.05,1.18c-0.72,0.25-1.47,0.33-2.22,0.36c-0.75-0.02-1.49-0.1-2.21-0.35c-0.72-0.23-1.42-0.58-2.04-1.19
				l-0.77-0.75c-0.52-0.51-0.53-1.34-0.02-1.86C222.8,150.51,223.31,150.4,223.76,150.52z"/>
		</g>
	</g>
	<g>
		<g>
			<circle class="st3" cx="243.5" cy="132" r="6"/>
		</g>
		<g>
			<circle class="st7" cx="245" cy="132" r="1.5"/>
		</g>
	</g>
	<g>
		<g>
			<circle class="st3" cx="211.5" cy="132" r="6"/>
		</g>
		<g>
			<circle class="st7" cx="213" cy="132" r="1.5"/>
		</g>
	</g>
	<g>
		<g>
			<path class="st15" d="M87.5,98c-1.12,0-2.16-0.37-3-1c-0.84,0.63-1.88,1-3,1s-2.16-0.37-3-1c-0.84,0.63-1.88,1-3,1
				s-2.16-0.37-3-1c-0.84,0.63-1.88,1-3,1s-2.16-0.37-3-1c-0.84,0.63-1.88,1-3,1s-2.16-0.37-3-1c-0.84,0.63-1.88,1-3,1
				c-2.76,0-5-2.24-5-5c0-4.96,4.04-9,9-9h7c1.46,0,2.84,0.45,4,1.26c1.16-0.82,2.54-1.26,4-1.26h7c4.96,0,9,4.04,9,9
				C92.5,95.76,90.26,98,87.5,98z"/>
		</g>
		<g>
			<path class="st3" d="M83.5,86c3.87,0,7,3.13,7,7c0,1.66-1.34,3-3,3s-3-1.34-3-3c0,1.66-1.34,3-3,3s-3-1.34-3-3c0,1.66-1.34,3-3,3
				s-3-1.34-3-3c0,1.66-1.34,3-3,3s-3-1.34-3-3c0,1.66-1.34,3-3,3s-3-1.34-3-3c0,1.66-1.34,3-3,3s-3-1.34-3-3c0-3.87,3.13-7,7-7h7
				c1.64,0,3.09,0.8,4,2.03c0.91-1.22,2.36-2.03,4-2.03H83.5 M83.5,82h-7c-1.4,0-2.77,0.34-4,0.95c-1.23-0.62-2.6-0.95-4-0.95h-7
				c-6.07,0-11,4.93-11,11c0,3.86,3.14,7,7,7c1.07,0,2.09-0.24,3-0.68c0.91,0.43,1.93,0.68,3,0.68s2.09-0.24,3-0.68
				c0.91,0.43,1.93,0.68,3,0.68s2.09-0.24,3-0.68c0.91,0.43,1.93,0.68,3,0.68s2.09-0.24,3-0.68c0.91,0.43,1.93,0.68,3,0.68
				s2.09-0.24,3-0.68c0.91,0.43,1.93,0.68,3,0.68c3.86,0,7-3.14,7-7C94.5,86.93,89.57,82,83.5,82L83.5,82z"/>
		</g>
	</g>
</g>
</svg>
