<?xml version="1.0" encoding="utf-8"?>
<!-- Generator: Adobe Illustrator 26.0.0, SVG Export Plug-In . SVG Version: 6.00 Build 0)  -->
<svg version="1.1" id="Google_x5F_Hub-Google_x5F_Keywords"
	 xmlns="http://www.w3.org/2000/svg" xmlns:xlink="http://www.w3.org/1999/xlink" x="0px" y="0px" viewBox="0 0 400 400"
	 style="enable-background:new 0 0 400 400;" xml:space="preserve">
<style type="text/css">
	.st0{fill:#FFD886;}
	.st1{fill:none;}
	.st2{fill:#FBBD04;}
	.st3{fill:#438EDC;}
	.st4{fill:#34A952;}
	.st5{fill:#DC9646;}
	.st6{fill:#515979;}
	.st7{fill:#FAC864;}
	.st8{fill:#FFFFFF;}
	.st9{fill:#7170B2;}
	.st10{fill:#AAA0FF;}
	.st11{fill:#EF7D7D;}
	.st12{fill:#F89D81;}
	.st13{fill:#329B87;}
	.st14{fill:#7DDF96;}
	.st15{fill:#5F87A5;}
	.st16{fill:#75A5C3;}
	.st17{fill:#2DA0D2;}
	.st18{fill:#6ADAF7;}
</style>
<path class="st0" d="M302.6,349.4c2.65,0,4.8-2.15,4.8-4.8c0-0.88,0.72-1.6,1.6-1.6s1.6,0.72,1.6,1.6c0,2.65,2.15,4.8,4.8,4.8
	c0.88,0,1.6,0.72,1.6,1.6s-0.72,1.6-1.6,1.6c-2.65,0-4.8,2.15-4.8,4.8c0,0.88-0.72,1.6-1.6,1.6s-1.6-0.72-1.6-1.6
	c0-2.65-2.15-4.8-4.8-4.8c-0.88,0-1.6-0.72-1.6-1.6S301.72,349.4,302.6,349.4z"/>
<circle class="st0" cx="37" cy="72" r="5"/>
<path class="st0" d="M94.6,193.4c2.65,0,4.8-2.15,4.8-4.8c0-0.88,0.72-1.6,1.6-1.6s1.6,0.72,1.6,1.6c0,2.65,2.15,4.8,4.8,4.8
	c0.88,0,1.6,0.72,1.6,1.6s-0.72,1.6-1.6,1.6c-2.65,0-4.8,2.15-4.8,4.8c0,0.88-0.72,1.6-1.6,1.6s-1.6-0.72-1.6-1.6
	c0-2.65-2.15-4.8-4.8-4.8c-0.88,0-1.6-0.72-1.6-1.6S93.72,193.4,94.6,193.4z"/>
<circle class="st0" cx="49" cy="188" r="3"/>
<circle class="st0" cx="79" cy="228" r="4"/>
<path class="st0" d="M41.6,368.4c2.65,0,4.8-2.15,4.8-4.8c0-0.88,0.72-1.6,1.6-1.6s1.6,0.72,1.6,1.6c0,2.65,2.15,4.8,4.8,4.8
	c0.88,0,1.6,0.72,1.6,1.6s-0.72,1.6-1.6,1.6c-2.65,0-4.8,2.15-4.8,4.8c0,0.88-0.72,1.6-1.6,1.6s-1.6-0.72-1.6-1.6
	c0-2.65-2.15-4.8-4.8-4.8c-0.88,0-1.6-0.72-1.6-1.6S40.72,368.4,41.6,368.4z"/>
<circle class="st0" cx="96" cy="353" r="4"/>
<path class="st0" d="M104,34h-7v-7c0-1.66-1.34-3-3-3s-3,1.34-3,3v7h-7c-1.66,0-3,1.34-3,3s1.34,3,3,3h7v7c0,1.66,1.34,3,3,3
	s3-1.34,3-3v-7h7c1.66,0,3-1.34,3-3S105.66,34,104,34z"/>
<path class="st0" d="M357.8,191.2c2.98,0,5.4-2.42,5.4-5.4c0-0.99,0.81-1.8,1.8-1.8s1.8,0.81,1.8,1.8c0,2.98,2.42,5.4,5.4,5.4
	c0.99,0,1.8,0.81,1.8,1.8s-0.81,1.8-1.8,1.8c-2.98,0-5.4,2.42-5.4,5.4c0,0.99-0.81,1.8-1.8,1.8s-1.8-0.81-1.8-1.8
	c0-2.98-2.42-5.4-5.4-5.4c-0.99,0-1.8-0.81-1.8-1.8S356.81,191.2,357.8,191.2z"/>
<path class="st0" d="M290.8,56.2c2.98,0,5.4-2.42,5.4-5.4c0-0.99,0.81-1.8,1.8-1.8s1.8,0.81,1.8,1.8c0,2.98,2.42,5.4,5.4,5.4
	c0.99,0,1.8,0.81,1.8,1.8s-0.81,1.8-1.8,1.8c-2.98,0-5.4,2.42-5.4,5.4c0,0.99-0.81,1.8-1.8,1.8s-1.8-0.81-1.8-1.8
	c0-2.98-2.42-5.4-5.4-5.4c-0.99,0-1.8-0.81-1.8-1.8S289.81,56.2,290.8,56.2z"/>
<circle class="st0" cx="317" cy="221" r="3"/>
<circle class="st0" cx="365" cy="38" r="4"/>
<rect class="st1" width="400" height="400"/>
<path class="st2" d="M144.58,254.02L144.58,254.02c-11.98-6.92-16.12-22.37-9.2-34.35l49.72-86.13c6.92-11.98,22.37-16.12,34.35-9.2
	l0,0c11.98,6.92,16.12,22.37,9.2,34.35l-49.72,86.13C172.02,256.79,156.57,260.94,144.58,254.02z"/>
<path class="st3" d="M269.45,253.66L269.45,253.66c-11.98,6.92-27.43,2.77-34.35-9.2l-49.72-86.13c-6.92-11.98-2.77-27.43,9.2-34.35
	l0,0c11.98-6.92,27.43-2.77,34.35,9.2l49.72,86.13C285.57,231.27,281.42,246.74,269.45,253.66z"/>
<circle class="st4" cx="157.5" cy="231.87" r="25.5"/>
<path class="st5" d="M292,147.27c-4.96,0-9-4.04-9-9v-34c0-4.96,4.04-9,9-9h88c4.96,0,9,4.04,9,9v34c0,4.96-4.04,9-9,9H292z"/>
<path class="st6" d="M380,98.27c3.31,0,6,2.69,6,6v34c0,3.31-2.69,6-6,6h-88c-3.31,0-6-2.69-6-6v-34c0-3.31,2.69-6,6-6H380
	 M380,92.27h-88c-6.62,0-12,5.38-12,12v34c0,6.62,5.38,12,12,12h88c6.62,0,12-5.38,12-12v-34C392,97.65,386.62,92.27,380,92.27
	L380,92.27z"/>
<path class="st7" d="M274,147.27c-4.96,0-9-4.04-9-9v-34c0-4.96,4.04-9,9-9h88c4.96,0,9,4.04,9,9v34c0,4.96-4.04,9-9,9H274z"/>
<path class="st6" d="M362,98.27c3.31,0,6,2.69,6,6v34c0,3.31-2.69,6-6,6h-88c-3.31,0-6-2.69-6-6v-34c0-3.31,2.69-6,6-6H362
	 M362,92.27h-88c-6.62,0-12,5.38-12,12v34c0,6.62,5.38,12,12,12h88c6.62,0,12-5.38,12-12v-34C374,97.65,368.62,92.27,362,92.27
	L362,92.27z"/>
<path class="st8" d="M287.7,134.3h0.32c0.3,0,0.52-0.09,0.65-0.28l1.97-2.86c0.12-0.15,0.24-0.26,0.38-0.32
	c0.13-0.06,0.3-0.09,0.5-0.09h1.76l-2.59,3.53c-0.18,0.24-0.38,0.42-0.59,0.53c0.15,0.06,0.29,0.13,0.41,0.23
	c0.12,0.1,0.24,0.23,0.35,0.39l2.64,4.06h-1.81c-0.12,0-0.22-0.01-0.3-0.02c-0.08-0.02-0.15-0.04-0.21-0.07
	c-0.06-0.03-0.11-0.07-0.16-0.12c-0.04-0.05-0.09-0.1-0.13-0.16l-1.98-3.04c-0.07-0.11-0.16-0.19-0.27-0.24
	c-0.11-0.05-0.26-0.07-0.45-0.07h-0.49v3.72h-2.03v-8.74h2.03V134.3z"/>
<path class="st8" d="M296.79,132.32v2.04h2.75v1.5h-2.75v2.08h3.59v1.56h-5.63v-8.74h5.63v1.56H296.79z"/>
<path class="st8" d="M306.41,136.17v3.32h-2.03v-3.32l-3.17-5.42H303c0.18,0,0.32,0.04,0.42,0.12s0.19,0.19,0.25,0.32l1.24,2.54
	c0.1,0.2,0.2,0.39,0.28,0.56s0.16,0.35,0.22,0.51c0.06-0.17,0.13-0.35,0.21-0.52s0.17-0.36,0.27-0.55l1.22-2.54
	c0.03-0.05,0.06-0.1,0.1-0.16s0.09-0.1,0.14-0.14c0.05-0.04,0.12-0.08,0.19-0.1c0.07-0.03,0.15-0.04,0.23-0.04h1.8L306.41,136.17z"
	/>
<path class="st8" d="M322.78,130.76l-2.7,8.74h-1.84l-1.64-5.42c-0.03-0.08-0.06-0.18-0.09-0.28c-0.03-0.1-0.06-0.21-0.08-0.32
	c-0.03,0.11-0.06,0.22-0.08,0.32c-0.03,0.1-0.06,0.2-0.09,0.28l-1.67,5.42h-1.84l-2.7-8.74h1.7c0.18,0,0.32,0.04,0.44,0.12
	s0.2,0.19,0.23,0.32l1.2,4.56c0.04,0.14,0.07,0.3,0.11,0.47c0.04,0.17,0.07,0.35,0.11,0.53c0.07-0.38,0.16-0.71,0.26-1l1.42-4.56
	c0.04-0.11,0.11-0.21,0.23-0.3c0.12-0.09,0.26-0.13,0.43-0.13h0.6c0.18,0,0.32,0.04,0.43,0.12c0.11,0.08,0.19,0.19,0.25,0.32
	l1.4,4.56c0.1,0.28,0.19,0.6,0.26,0.95c0.03-0.18,0.07-0.35,0.1-0.51c0.03-0.16,0.07-0.31,0.1-0.45l1.2-4.56
	c0.03-0.12,0.11-0.22,0.23-0.31c0.12-0.09,0.26-0.13,0.43-0.13H322.78z"/>
<path class="st8" d="M332.6,135.12c0,0.63-0.11,1.22-0.33,1.76c-0.22,0.54-0.52,1.02-0.92,1.42c-0.4,0.4-0.87,0.72-1.43,0.95
	c-0.56,0.23-1.18,0.34-1.86,0.34c-0.68,0-1.3-0.11-1.86-0.34c-0.56-0.23-1.04-0.54-1.44-0.95c-0.4-0.4-0.71-0.88-0.92-1.42
	s-0.33-1.13-0.33-1.76s0.11-1.22,0.33-1.76s0.53-1.02,0.92-1.42c0.4-0.4,0.88-0.71,1.44-0.94c0.56-0.23,1.18-0.34,1.86-0.34
	c0.68,0,1.3,0.12,1.86,0.34c0.56,0.23,1.04,0.54,1.43,0.95c0.4,0.4,0.7,0.87,0.92,1.42C332.49,133.91,332.6,134.5,332.6,135.12z
	 M330.53,135.12c0-0.43-0.06-0.82-0.17-1.17c-0.11-0.35-0.27-0.64-0.48-0.88s-0.47-0.42-0.77-0.55c-0.3-0.13-0.65-0.19-1.04-0.19
	c-0.39,0-0.74,0.06-1.05,0.19c-0.31,0.13-0.56,0.31-0.77,0.55s-0.37,0.53-0.48,0.88s-0.17,0.74-0.17,1.17
	c0,0.44,0.06,0.83,0.17,1.17c0.11,0.35,0.27,0.64,0.48,0.88c0.21,0.24,0.47,0.42,0.77,0.55c0.31,0.13,0.66,0.19,1.05,0.19
	c0.39,0,0.73-0.06,1.04-0.19c0.3-0.13,0.56-0.31,0.77-0.55c0.21-0.24,0.37-0.53,0.48-0.88
	C330.47,135.95,330.53,135.56,330.53,135.12z"/>
<path class="st8" d="M341.55,139.5h-1.84c-0.34,0-0.58-0.13-0.73-0.38l-1.45-2.54c-0.07-0.11-0.14-0.19-0.23-0.24
	s-0.2-0.08-0.36-0.08h-0.52v3.23h-2.03v-8.74h2.84c0.63,0,1.17,0.07,1.62,0.2c0.45,0.13,0.81,0.31,1.09,0.54
	c0.28,0.23,0.49,0.51,0.61,0.82c0.13,0.32,0.19,0.66,0.19,1.03c0,0.28-0.04,0.55-0.11,0.8s-0.19,0.48-0.34,0.7
	c-0.15,0.21-0.33,0.41-0.55,0.57s-0.47,0.31-0.75,0.41c0.13,0.07,0.26,0.15,0.37,0.25c0.12,0.1,0.22,0.22,0.31,0.36L341.55,139.5z
	 M337.24,134.87c0.28,0,0.51-0.04,0.7-0.11c0.19-0.07,0.35-0.17,0.48-0.29s0.21-0.27,0.27-0.43c0.06-0.17,0.08-0.34,0.08-0.54
	c0-0.38-0.12-0.68-0.38-0.9c-0.25-0.22-0.64-0.32-1.16-0.32h-0.82v2.59H337.24z"/>
<path class="st8" d="M350.82,135.12c0,0.63-0.11,1.21-0.33,1.75s-0.53,1-0.92,1.39c-0.4,0.39-0.87,0.69-1.43,0.91
	c-0.56,0.22-1.18,0.33-1.86,0.33h-3.4v-8.74h3.4c0.68,0,1.3,0.11,1.86,0.33c0.56,0.22,1.04,0.52,1.43,0.91
	c0.4,0.39,0.7,0.85,0.92,1.38S350.82,134.5,350.82,135.12z M348.74,135.12c0-0.43-0.06-0.82-0.17-1.17
	c-0.11-0.35-0.27-0.64-0.48-0.88s-0.47-0.43-0.77-0.56c-0.3-0.13-0.65-0.19-1.04-0.19h-1.36v5.62h1.36c0.39,0,0.73-0.07,1.04-0.2
	c0.3-0.13,0.56-0.32,0.77-0.56c0.21-0.24,0.37-0.54,0.48-0.88C348.69,135.95,348.74,135.56,348.74,135.12z"/>
<path class="st6" d="M318.26,123.38c-3.9,0-7.88-1.1-11.33-3.3c-0.93-0.59-1.21-1.83-0.61-2.76c0.59-0.93,1.83-1.21,2.76-0.61
	c5.51,3.51,12.97,3.53,17.75,0.04c0.89-0.65,2.14-0.46,2.79,0.43c0.65,0.89,0.46,2.14-0.44,2.79
	C326.08,122.25,322.22,123.38,318.26,123.38z"/>
<path class="st6" d="M331.5,114.12c-0.16,0-0.33-0.03-0.49-0.08c-1.6-0.55-4.42-0.55-6.02,0c-0.78,0.27-1.64-0.15-1.91-0.93
	c-0.27-0.78,0.15-1.64,0.93-1.91c2.24-0.77,5.74-0.77,7.98,0c0.78,0.27,1.2,1.12,0.93,1.91C332.7,113.73,332.12,114.12,331.5,114.12
	z"/>
<circle class="st6" cx="328" cy="105.92" r="6"/>
<circle class="st8" cx="329.5" cy="105.92" r="1.5"/>
<path class="st6" d="M311.5,114.12c-0.16,0-0.33-0.03-0.49-0.08c-1.6-0.55-4.42-0.55-6.02,0c-0.79,0.27-1.64-0.15-1.91-0.93
	c-0.27-0.78,0.15-1.64,0.93-1.91c2.24-0.77,5.74-0.77,7.98,0c0.78,0.27,1.2,1.12,0.93,1.91C312.7,113.73,312.12,114.12,311.5,114.12
	z"/>
<circle class="st6" cx="308" cy="105.92" r="6"/>
<circle class="st8" cx="309.5" cy="105.92" r="1.5"/>
<path class="st6" d="M323.21,87.54c2.59-1.89,6-2.29,8.96-1.07c1.6,0.63,4.2,2.71,2.31,4.39c-0.98,0.76-2.61,0.09-3.67,0.08
	c-1.14-0.13-2.92-0.2-4.1-0.22c-0.87-0.01-1.83,0.01-2.69-0.13C322.54,90.44,322.02,88.38,323.21,87.54L323.21,87.54z"/>
<path class="st6" d="M311.55,90.64c-1.27,0.13-3.1,0.07-4.39,0.14c-1.55,0.06-2.86,0.31-4.45,0.44c-0.95,0.08-1.78-0.63-1.85-1.58
	c-0.04-0.45,0.1-0.87,0.36-1.2c2.02-2.59,5.81-3.15,8.8-2.26c0.99,0.29,1.85,0.67,2.77,1.37C314.17,88.67,313.27,90.67,311.55,90.64
	L311.55,90.64z"/>
<path class="st9" d="M20,318.27c-4.96,0-9-4.04-9-9v-34c0-4.96,4.04-9,9-9h88c4.96,0,9,4.04,9,9v34c0,4.96-4.04,9-9,9H20z"/>
<path class="st6" d="M108,269.27c3.31,0,6,2.69,6,6v34c0,3.31-2.69,6-6,6H20c-3.31,0-6-2.69-6-6v-34c0-3.31,2.69-6,6-6H108
	 M108,263.27H20c-6.62,0-12,5.38-12,12v34c0,6.62,5.38,12,12,12h88c6.62,0,12-5.38,12-12v-34C120,268.65,114.62,263.27,108,263.27
	L108,263.27z"/>
<path class="st10" d="M38,318.27c-4.96,0-9-4.04-9-9v-34c0-4.96,4.04-9,9-9h88c4.96,0,9,4.04,9,9v34c0,4.96-4.04,9-9,9H38z"/>
<path class="st6" d="M126,269.27c3.31,0,6,2.69,6,6v34c0,3.31-2.69,6-6,6H38c-3.31,0-6-2.69-6-6v-34c0-3.31,2.69-6,6-6H126
	 M126,263.27H38c-6.62,0-12,5.38-12,12v34c0,6.62,5.38,12,12,12h88c6.62,0,12-5.38,12-12v-34C138,268.65,132.62,263.27,126,263.27
	L126,263.27z"/>
<path class="st8" d="M51.7,305.3h0.32c0.3,0,0.52-0.09,0.65-0.28l1.97-2.86c0.12-0.15,0.24-0.26,0.38-0.32
	c0.13-0.06,0.3-0.09,0.5-0.09h1.76l-2.59,3.53c-0.18,0.24-0.38,0.42-0.59,0.53c0.15,0.06,0.29,0.13,0.41,0.23
	c0.12,0.1,0.24,0.23,0.35,0.39l2.64,4.06h-1.81c-0.12,0-0.22-0.01-0.3-0.02c-0.08-0.02-0.15-0.04-0.21-0.07
	c-0.06-0.03-0.11-0.07-0.16-0.12c-0.04-0.05-0.09-0.1-0.13-0.16l-1.98-3.04c-0.07-0.11-0.16-0.19-0.27-0.24
	c-0.11-0.05-0.26-0.07-0.45-0.07H51.7v3.72h-2.03v-8.74h2.03V305.3z"/>
<path class="st8" d="M60.79,303.32v2.04h2.75v1.5h-2.75v2.08h3.59v1.56h-5.63v-8.74h5.63v1.56H60.79z"/>
<path class="st8" d="M70.41,307.17v3.32h-2.03v-3.32l-3.17-5.42H67c0.18,0,0.32,0.04,0.42,0.12s0.19,0.19,0.25,0.32l1.24,2.54
	c0.1,0.2,0.2,0.39,0.28,0.56s0.16,0.35,0.22,0.51c0.06-0.17,0.13-0.35,0.21-0.52s0.17-0.36,0.27-0.55l1.22-2.54
	c0.03-0.05,0.06-0.1,0.1-0.16s0.09-0.1,0.14-0.14c0.05-0.04,0.12-0.08,0.19-0.1c0.07-0.03,0.15-0.04,0.23-0.04h1.8L70.41,307.17z"/>
<path class="st8" d="M86.78,301.76l-2.7,8.74h-1.84l-1.64-5.42c-0.03-0.08-0.06-0.18-0.09-0.28c-0.03-0.1-0.06-0.21-0.08-0.32
	c-0.03,0.11-0.06,0.22-0.08,0.32c-0.03,0.1-0.06,0.2-0.09,0.28l-1.67,5.42h-1.84l-2.7-8.74h1.7c0.18,0,0.32,0.04,0.44,0.12
	s0.2,0.19,0.23,0.32l1.2,4.56c0.04,0.14,0.07,0.3,0.11,0.47c0.04,0.17,0.07,0.35,0.11,0.53c0.07-0.38,0.16-0.71,0.26-1l1.42-4.56
	c0.04-0.11,0.11-0.21,0.23-0.3c0.12-0.09,0.26-0.13,0.43-0.13h0.6c0.18,0,0.32,0.04,0.43,0.12c0.11,0.08,0.19,0.19,0.25,0.32
	l1.4,4.56c0.1,0.28,0.19,0.6,0.26,0.95c0.03-0.18,0.07-0.35,0.1-0.51c0.03-0.16,0.07-0.31,0.1-0.45l1.2-4.56
	c0.03-0.12,0.11-0.22,0.23-0.31c0.12-0.09,0.26-0.13,0.43-0.13H86.78z"/>
<path class="st8" d="M96.6,306.12c0,0.63-0.11,1.22-0.33,1.76c-0.22,0.54-0.52,1.02-0.92,1.42c-0.4,0.4-0.87,0.72-1.43,0.95
	c-0.56,0.23-1.18,0.34-1.86,0.34c-0.68,0-1.3-0.11-1.86-0.34c-0.56-0.23-1.04-0.54-1.44-0.95c-0.4-0.4-0.71-0.88-0.92-1.42
	s-0.33-1.13-0.33-1.76s0.11-1.22,0.33-1.76s0.53-1.02,0.92-1.42c0.4-0.4,0.88-0.71,1.44-0.94c0.56-0.23,1.18-0.34,1.86-0.34
	c0.68,0,1.3,0.12,1.86,0.34c0.56,0.23,1.04,0.54,1.43,0.95c0.4,0.4,0.7,0.87,0.92,1.42C96.49,304.91,96.6,305.5,96.6,306.12z
	 M94.53,306.12c0-0.43-0.06-0.82-0.17-1.17c-0.11-0.35-0.27-0.64-0.48-0.88s-0.47-0.42-0.77-0.55c-0.3-0.13-0.65-0.19-1.04-0.19
	c-0.39,0-0.74,0.06-1.05,0.19c-0.31,0.13-0.56,0.31-0.77,0.55s-0.37,0.53-0.48,0.88s-0.17,0.74-0.17,1.17
	c0,0.44,0.06,0.83,0.17,1.17c0.11,0.35,0.27,0.64,0.48,0.88c0.21,0.24,0.47,0.42,0.77,0.55c0.31,0.13,0.66,0.19,1.05,0.19
	c0.39,0,0.73-0.06,1.04-0.19c0.3-0.13,0.56-0.31,0.77-0.55c0.21-0.24,0.37-0.53,0.48-0.88C94.47,306.95,94.53,306.56,94.53,306.12z"
	/>
<path class="st8" d="M105.55,310.5h-1.84c-0.34,0-0.58-0.13-0.73-0.38l-1.45-2.54c-0.07-0.11-0.14-0.19-0.23-0.24
	s-0.2-0.08-0.36-0.08h-0.52v3.23H98.4v-8.74h2.84c0.63,0,1.17,0.07,1.62,0.2c0.45,0.13,0.81,0.31,1.09,0.54
	c0.28,0.23,0.49,0.51,0.61,0.82c0.13,0.32,0.19,0.66,0.19,1.03c0,0.28-0.04,0.55-0.11,0.8s-0.19,0.48-0.34,0.7
	c-0.15,0.21-0.33,0.41-0.55,0.57s-0.47,0.31-0.75,0.41c0.13,0.07,0.26,0.15,0.37,0.25c0.12,0.1,0.22,0.22,0.31,0.36L105.55,310.5z
	 M101.24,305.87c0.28,0,0.51-0.04,0.7-0.11c0.19-0.07,0.35-0.17,0.48-0.29s0.21-0.27,0.27-0.43c0.06-0.17,0.08-0.34,0.08-0.54
	c0-0.38-0.12-0.68-0.38-0.9c-0.25-0.22-0.64-0.32-1.16-0.32h-0.82v2.59H101.24z"/>
<path class="st8" d="M114.82,306.12c0,0.63-0.11,1.21-0.33,1.75s-0.53,1-0.92,1.39c-0.4,0.39-0.87,0.69-1.43,0.91
	c-0.56,0.22-1.18,0.33-1.86,0.33h-3.4v-8.74h3.4c0.68,0,1.3,0.11,1.86,0.33c0.56,0.22,1.04,0.52,1.43,0.91
	c0.4,0.39,0.7,0.85,0.92,1.38S114.82,305.5,114.82,306.12z M112.74,306.12c0-0.43-0.06-0.82-0.17-1.17
	c-0.11-0.35-0.27-0.64-0.48-0.88s-0.47-0.43-0.77-0.56c-0.3-0.13-0.65-0.19-1.04-0.19h-1.36v5.62h1.36c0.39,0,0.73-0.07,1.04-0.2
	c0.3-0.13,0.56-0.32,0.77-0.56c0.21-0.24,0.37-0.54,0.48-0.88C112.69,306.95,112.74,306.56,112.74,306.12z"/>
<path class="st6" d="M82.26,294.38c-3.9,0-7.88-1.1-11.33-3.29c-0.93-0.59-1.21-1.83-0.61-2.76c0.59-0.93,1.83-1.21,2.76-0.61
	c5.51,3.51,12.97,3.53,17.75,0.04c0.89-0.65,2.14-0.46,2.79,0.44c0.65,0.89,0.46,2.14-0.43,2.79
	C90.08,293.25,86.22,294.38,82.26,294.38z"/>
<path class="st6" d="M95.5,285.12c-0.16,0-0.33-0.03-0.49-0.08c-1.6-0.55-4.42-0.55-6.02,0c-0.78,0.27-1.64-0.15-1.91-0.93
	c-0.27-0.78,0.15-1.64,0.93-1.91c2.24-0.77,5.74-0.77,7.98,0c0.78,0.27,1.2,1.12,0.93,1.91C96.7,284.73,96.12,285.12,95.5,285.12z"
	/>
<circle class="st6" cx="92" cy="276.92" r="6"/>
<circle class="st8" cx="93.5" cy="276.92" r="1.5"/>
<path class="st6" d="M75.5,285.12c-0.16,0-0.33-0.03-0.49-0.08c-1.6-0.55-4.42-0.55-6.02,0c-0.78,0.27-1.64-0.15-1.91-0.93
	c-0.27-0.78,0.15-1.64,0.93-1.91c2.24-0.77,5.74-0.77,7.98,0c0.78,0.27,1.2,1.12,0.93,1.91C76.7,284.73,76.12,285.12,75.5,285.12z"
	/>
<circle class="st6" cx="72" cy="276.92" r="6"/>
<circle class="st8" cx="73.5" cy="276.92" r="1.5"/>
<path class="st6" d="M87.21,258.54c2.59-1.89,6-2.29,8.96-1.07c1.6,0.63,4.2,2.71,2.31,4.39c-0.98,0.76-2.61,0.09-3.67,0.08
	c-1.14-0.13-2.92-0.2-4.1-0.22c-0.87-0.01-1.83,0.01-2.69-0.13C86.54,261.44,86.02,259.38,87.21,258.54L87.21,258.54z"/>
<path class="st6" d="M75.55,261.64c-1.27,0.13-3.1,0.07-4.39,0.14c-1.55,0.06-2.86,0.31-4.45,0.44c-0.95,0.08-1.78-0.63-1.85-1.58
	c-0.04-0.45,0.1-0.87,0.36-1.2c2.02-2.59,5.81-3.15,8.8-2.26c0.99,0.29,1.85,0.67,2.77,1.37C78.17,259.67,77.27,261.67,75.55,261.64
	L75.55,261.64z"/>
<path class="st11" d="M149,379.27c-4.96,0-9-4.04-9-9v-34c0-4.96,4.04-9,9-9h88c4.96,0,9,4.04,9,9v34c0,4.96-4.04,9-9,9H149z"/>
<path class="st6" d="M237,330.27c3.31,0,6,2.69,6,6v34c0,3.31-2.69,6-6,6h-88c-3.31,0-6-2.69-6-6v-34c0-3.31,2.69-6,6-6H237
	 M237,324.27h-88c-6.62,0-12,5.38-12,12v34c0,6.62,5.38,12,12,12h88c6.62,0,12-5.38,12-12v-34C249,329.65,243.62,324.27,237,324.27
	L237,324.27z"/>
<path class="st12" d="M167,379.27c-4.96,0-9-4.04-9-9v-34c0-4.96,4.04-9,9-9h88c4.96,0,9,4.04,9,9v34c0,4.96-4.04,9-9,9H167z"/>
<path class="st6" d="M255,330.27c3.31,0,6,2.69,6,6v34c0,3.31-2.69,6-6,6h-88c-3.31,0-6-2.69-6-6v-34c0-3.31,2.69-6,6-6H255
	 M255,324.27h-88c-6.62,0-12,5.38-12,12v34c0,6.62,5.38,12,12,12h88c6.62,0,12-5.38,12-12v-34C267,329.65,261.62,324.27,255,324.27
	L255,324.27z"/>
<path class="st8" d="M180.7,366.3h0.32c0.3,0,0.52-0.09,0.65-0.28l1.97-2.86c0.12-0.15,0.24-0.26,0.38-0.32
	c0.13-0.06,0.3-0.09,0.5-0.09h1.76l-2.59,3.53c-0.18,0.24-0.38,0.42-0.59,0.53c0.15,0.06,0.29,0.13,0.41,0.23
	c0.12,0.1,0.24,0.23,0.35,0.39l2.64,4.06h-1.81c-0.12,0-0.22-0.01-0.3-0.02c-0.08-0.02-0.15-0.04-0.21-0.07
	c-0.06-0.03-0.11-0.07-0.16-0.12c-0.04-0.05-0.09-0.1-0.13-0.16l-1.98-3.04c-0.07-0.11-0.16-0.19-0.27-0.24
	c-0.11-0.05-0.26-0.07-0.45-0.07h-0.49v3.72h-2.03v-8.74h2.03V366.3z"/>
<path class="st8" d="M189.79,364.32v2.04h2.75v1.5h-2.75v2.08h3.59v1.56h-5.63v-8.74h5.63v1.56H189.79z"/>
<path class="st8" d="M199.41,368.17v3.32h-2.03v-3.32l-3.17-5.42H196c0.18,0,0.32,0.04,0.42,0.12s0.19,0.19,0.25,0.32l1.24,2.54
	c0.1,0.2,0.2,0.39,0.28,0.56s0.16,0.35,0.22,0.51c0.06-0.17,0.13-0.35,0.21-0.52s0.17-0.36,0.27-0.55l1.22-2.54
	c0.03-0.05,0.06-0.1,0.1-0.16s0.09-0.1,0.14-0.14c0.05-0.04,0.12-0.08,0.19-0.1c0.07-0.03,0.15-0.04,0.23-0.04h1.8L199.41,368.17z"
	/>
<path class="st8" d="M215.78,362.76l-2.7,8.74h-1.84l-1.64-5.42c-0.03-0.08-0.06-0.18-0.09-0.28c-0.03-0.1-0.06-0.21-0.08-0.32
	c-0.03,0.11-0.06,0.22-0.08,0.32c-0.03,0.1-0.06,0.2-0.09,0.28l-1.67,5.42h-1.84l-2.7-8.74h1.7c0.18,0,0.32,0.04,0.44,0.12
	s0.2,0.19,0.23,0.32l1.2,4.56c0.04,0.14,0.07,0.3,0.11,0.47c0.04,0.17,0.07,0.35,0.11,0.53c0.07-0.38,0.16-0.71,0.26-1l1.42-4.56
	c0.04-0.11,0.11-0.21,0.23-0.3c0.12-0.09,0.26-0.13,0.43-0.13h0.6c0.18,0,0.32,0.04,0.43,0.12c0.11,0.08,0.19,0.19,0.25,0.32
	l1.4,4.56c0.1,0.28,0.19,0.6,0.26,0.95c0.03-0.18,0.07-0.35,0.1-0.51c0.03-0.16,0.07-0.31,0.1-0.45l1.2-4.56
	c0.03-0.12,0.11-0.22,0.23-0.31c0.12-0.09,0.26-0.13,0.43-0.13H215.78z"/>
<path class="st8" d="M225.6,367.12c0,0.63-0.11,1.22-0.33,1.76c-0.22,0.54-0.52,1.02-0.92,1.42c-0.4,0.4-0.87,0.72-1.43,0.95
	c-0.56,0.23-1.18,0.34-1.86,0.34c-0.68,0-1.3-0.11-1.86-0.34c-0.56-0.23-1.04-0.54-1.44-0.95c-0.4-0.4-0.71-0.88-0.92-1.42
	s-0.33-1.13-0.33-1.76s0.11-1.22,0.33-1.76s0.53-1.02,0.92-1.42c0.4-0.4,0.88-0.71,1.44-0.94c0.56-0.23,1.18-0.34,1.86-0.34
	c0.68,0,1.3,0.12,1.86,0.34c0.56,0.23,1.04,0.54,1.43,0.95c0.4,0.4,0.7,0.87,0.92,1.42C225.49,365.91,225.6,366.5,225.6,367.12z
	 M223.53,367.12c0-0.43-0.06-0.82-0.17-1.17c-0.11-0.35-0.27-0.64-0.48-0.88s-0.47-0.42-0.77-0.55c-0.3-0.13-0.65-0.19-1.04-0.19
	c-0.39,0-0.74,0.06-1.05,0.19c-0.31,0.13-0.56,0.31-0.77,0.55s-0.37,0.53-0.48,0.88s-0.17,0.74-0.17,1.17
	c0,0.44,0.06,0.83,0.17,1.17c0.11,0.35,0.27,0.64,0.48,0.88c0.21,0.24,0.47,0.42,0.77,0.55c0.31,0.13,0.66,0.19,1.05,0.19
	c0.39,0,0.73-0.06,1.04-0.19c0.3-0.13,0.56-0.31,0.77-0.55c0.21-0.24,0.37-0.53,0.48-0.88
	C223.47,367.95,223.53,367.56,223.53,367.12z"/>
<path class="st8" d="M234.55,371.5h-1.84c-0.34,0-0.58-0.13-0.73-0.38l-1.45-2.54c-0.07-0.11-0.14-0.19-0.23-0.24
	s-0.2-0.08-0.36-0.08h-0.52v3.23h-2.03v-8.74h2.84c0.63,0,1.17,0.07,1.62,0.2c0.45,0.13,0.81,0.31,1.09,0.54
	c0.28,0.23,0.49,0.51,0.61,0.82c0.13,0.32,0.19,0.66,0.19,1.03c0,0.28-0.04,0.55-0.11,0.8s-0.19,0.48-0.34,0.7
	c-0.15,0.21-0.33,0.41-0.55,0.57s-0.47,0.31-0.75,0.41c0.13,0.07,0.26,0.15,0.37,0.25c0.12,0.1,0.22,0.22,0.31,0.36L234.55,371.5z
	 M230.24,366.87c0.28,0,0.51-0.04,0.7-0.11c0.19-0.07,0.35-0.17,0.48-0.29s0.21-0.27,0.27-0.43c0.06-0.17,0.08-0.34,0.08-0.54
	c0-0.38-0.12-0.68-0.38-0.9c-0.25-0.22-0.64-0.32-1.16-0.32h-0.82v2.59H230.24z"/>
<path class="st8" d="M243.82,367.12c0,0.63-0.11,1.21-0.33,1.75s-0.53,1-0.92,1.39c-0.4,0.39-0.87,0.69-1.43,0.91
	c-0.56,0.22-1.18,0.33-1.86,0.33h-3.4v-8.74h3.4c0.68,0,1.3,0.11,1.86,0.33c0.56,0.22,1.04,0.52,1.43,0.91
	c0.4,0.39,0.7,0.85,0.92,1.38S243.82,366.5,243.82,367.12z M241.74,367.12c0-0.43-0.06-0.82-0.17-1.17
	c-0.11-0.35-0.27-0.64-0.48-0.88s-0.47-0.43-0.77-0.56c-0.3-0.13-0.65-0.19-1.04-0.19h-1.36v5.62h1.36c0.39,0,0.73-0.07,1.04-0.2
	c0.3-0.13,0.56-0.32,0.77-0.56c0.21-0.24,0.37-0.54,0.48-0.88C241.69,367.95,241.74,367.56,241.74,367.12z"/>
<path class="st6" d="M211.26,355.38c-3.9,0-7.88-1.1-11.33-3.29c-0.93-0.59-1.21-1.83-0.61-2.76c0.59-0.93,1.83-1.2,2.76-0.61
	c5.51,3.51,12.97,3.53,17.75,0.04c0.89-0.65,2.14-0.46,2.79,0.44c0.65,0.89,0.46,2.14-0.44,2.79
	C219.08,354.25,215.22,355.38,211.26,355.38z"/>
<path class="st6" d="M224.5,346.12c-0.16,0-0.33-0.03-0.49-0.08c-1.61-0.55-4.42-0.55-6.02,0c-0.78,0.27-1.64-0.15-1.91-0.93
	c-0.27-0.78,0.15-1.64,0.93-1.91c2.24-0.77,5.74-0.77,7.98,0c0.78,0.27,1.2,1.12,0.93,1.91C225.7,345.73,225.12,346.12,224.5,346.12
	z"/>
<circle class="st6" cx="221" cy="337.92" r="6"/>
<circle class="st8" cx="222.5" cy="337.92" r="1.5"/>
<path class="st6" d="M197.5,346.12c-0.62,0-1.2-0.39-1.42-1.01c-0.27-0.78,0.15-1.64,0.93-1.91c2.24-0.77,5.74-0.77,7.98,0
	c0.78,0.27,1.2,1.12,0.93,1.91c-0.27,0.78-1.13,1.2-1.91,0.93c-1.61-0.55-4.42-0.55-6.02,0
	C197.83,346.09,197.66,346.12,197.5,346.12z"/>
<circle class="st6" cx="201" cy="337.92" r="6"/>
<circle class="st8" cx="202.5" cy="337.92" r="1.5"/>
<path class="st6" d="M216.21,319.54c2.59-1.89,6-2.29,8.96-1.07c1.6,0.63,4.2,2.71,2.31,4.39c-0.98,0.76-2.61,0.09-3.67,0.08
	c-1.14-0.13-2.92-0.2-4.1-0.22c-0.87-0.01-1.83,0.01-2.69-0.13C215.54,322.44,215.02,320.38,216.21,319.54L216.21,319.54z"/>
<path class="st6" d="M204.55,322.64c-1.27,0.13-3.1,0.07-4.39,0.14c-1.55,0.06-2.86,0.31-4.45,0.44c-0.95,0.08-1.78-0.63-1.85-1.58
	c-0.04-0.45,0.1-0.87,0.36-1.2c2.02-2.59,5.81-3.15,8.8-2.26c0.99,0.29,1.85,0.67,2.77,1.37
	C207.17,320.67,206.27,322.67,204.55,322.64L204.55,322.64z"/>
<path class="st13" d="M295,318.27c-4.96,0-9-4.04-9-9v-34c0-4.96,4.04-9,9-9h88c4.96,0,9,4.04,9,9v34c0,4.96-4.04,9-9,9H295z"/>
<path class="st6" d="M383,269.27c3.31,0,6,2.69,6,6v34c0,3.31-2.69,6-6,6h-88c-3.31,0-6-2.69-6-6v-34c0-3.31,2.69-6,6-6H383
	 M383,263.27h-88c-6.62,0-12,5.38-12,12v34c0,6.62,5.38,12,12,12h88c6.62,0,12-5.38,12-12v-34C395,268.65,389.62,263.27,383,263.27
	L383,263.27z"/>
<path class="st14" d="M277,318.27c-4.96,0-9-4.04-9-9v-34c0-4.96,4.04-9,9-9h88c4.96,0,9,4.04,9,9v34c0,4.96-4.04,9-9,9H277z"/>
<path class="st6" d="M365,269.27c3.31,0,6,2.69,6,6v34c0,3.31-2.69,6-6,6h-88c-3.31,0-6-2.69-6-6v-34c0-3.31,2.69-6,6-6H365
	 M365,263.27h-88c-6.62,0-12,5.38-12,12v34c0,6.62,5.38,12,12,12h88c6.62,0,12-5.38,12-12v-34C377,268.65,371.62,263.27,365,263.27
	L365,263.27z"/>
<path class="st8" d="M290.7,305.3h0.32c0.3,0,0.52-0.09,0.65-0.28l1.97-2.86c0.12-0.15,0.24-0.26,0.38-0.32
	c0.13-0.06,0.3-0.09,0.5-0.09h1.76l-2.59,3.53c-0.18,0.24-0.38,0.42-0.59,0.53c0.15,0.06,0.29,0.13,0.41,0.23
	c0.12,0.1,0.24,0.23,0.35,0.39l2.64,4.06h-1.81c-0.12,0-0.22-0.01-0.3-0.02c-0.08-0.02-0.15-0.04-0.21-0.07
	c-0.06-0.03-0.11-0.07-0.16-0.12c-0.04-0.05-0.09-0.1-0.13-0.16l-1.98-3.04c-0.07-0.11-0.16-0.19-0.27-0.24
	c-0.11-0.05-0.26-0.07-0.45-0.07h-0.49v3.72h-2.03v-8.74h2.03V305.3z"/>
<path class="st8" d="M299.79,303.32v2.04h2.75v1.5h-2.75v2.08h3.59v1.56h-5.63v-8.74h5.63v1.56H299.79z"/>
<path class="st8" d="M309.41,307.17v3.32h-2.03v-3.32l-3.17-5.42H306c0.18,0,0.32,0.04,0.42,0.12s0.19,0.19,0.25,0.32l1.24,2.54
	c0.1,0.2,0.2,0.39,0.28,0.56s0.16,0.35,0.22,0.51c0.06-0.17,0.13-0.35,0.21-0.52s0.17-0.36,0.27-0.55l1.22-2.54
	c0.03-0.05,0.06-0.1,0.1-0.16s0.09-0.1,0.14-0.14c0.05-0.04,0.12-0.08,0.19-0.1c0.07-0.03,0.15-0.04,0.23-0.04h1.8L309.41,307.17z"
	/>
<path class="st8" d="M325.78,301.76l-2.7,8.74h-1.84l-1.64-5.42c-0.03-0.08-0.06-0.18-0.09-0.28c-0.03-0.1-0.06-0.21-0.08-0.32
	c-0.03,0.11-0.06,0.22-0.08,0.32c-0.03,0.1-0.06,0.2-0.09,0.28l-1.67,5.42h-1.84l-2.7-8.74h1.7c0.18,0,0.32,0.04,0.44,0.12
	s0.2,0.19,0.23,0.32l1.2,4.56c0.04,0.14,0.07,0.3,0.11,0.47c0.04,0.17,0.07,0.35,0.11,0.53c0.07-0.38,0.16-0.71,0.26-1l1.42-4.56
	c0.04-0.11,0.11-0.21,0.23-0.3c0.12-0.09,0.26-0.13,0.43-0.13h0.6c0.18,0,0.32,0.04,0.43,0.12c0.11,0.08,0.19,0.19,0.25,0.32
	l1.4,4.56c0.1,0.28,0.19,0.6,0.26,0.95c0.03-0.18,0.07-0.35,0.1-0.51c0.03-0.16,0.07-0.31,0.1-0.45l1.2-4.56
	c0.03-0.12,0.11-0.22,0.23-0.31c0.12-0.09,0.26-0.13,0.43-0.13H325.78z"/>
<path class="st8" d="M335.6,306.12c0,0.63-0.11,1.22-0.33,1.76c-0.22,0.54-0.52,1.02-0.92,1.42c-0.4,0.4-0.87,0.72-1.43,0.95
	c-0.56,0.23-1.18,0.34-1.86,0.34c-0.68,0-1.3-0.11-1.86-0.34c-0.56-0.23-1.04-0.54-1.44-0.95c-0.4-0.4-0.71-0.88-0.92-1.42
	s-0.33-1.13-0.33-1.76s0.11-1.22,0.33-1.76s0.53-1.02,0.92-1.42c0.4-0.4,0.88-0.71,1.44-0.94c0.56-0.23,1.18-0.34,1.86-0.34
	c0.68,0,1.3,0.12,1.86,0.34c0.56,0.23,1.04,0.54,1.43,0.95c0.4,0.4,0.7,0.87,0.92,1.42C335.49,304.91,335.6,305.5,335.6,306.12z
	 M333.53,306.12c0-0.43-0.06-0.82-0.17-1.17c-0.11-0.35-0.27-0.64-0.48-0.88s-0.47-0.42-0.77-0.55c-0.3-0.13-0.65-0.19-1.04-0.19
	c-0.39,0-0.74,0.06-1.05,0.19c-0.31,0.13-0.56,0.31-0.77,0.55s-0.37,0.53-0.48,0.88s-0.17,0.74-0.17,1.17
	c0,0.44,0.06,0.83,0.17,1.17c0.11,0.35,0.27,0.64,0.48,0.88c0.21,0.24,0.47,0.42,0.77,0.55c0.31,0.13,0.66,0.19,1.05,0.19
	c0.39,0,0.73-0.06,1.04-0.19c0.3-0.13,0.56-0.31,0.77-0.55c0.21-0.24,0.37-0.53,0.48-0.88
	C333.47,306.95,333.53,306.56,333.53,306.12z"/>
<path class="st8" d="M344.55,310.5h-1.84c-0.34,0-0.58-0.13-0.73-0.38l-1.45-2.54c-0.07-0.11-0.14-0.19-0.23-0.24
	s-0.2-0.08-0.36-0.08h-0.52v3.23h-2.03v-8.74h2.84c0.63,0,1.17,0.07,1.62,0.2c0.45,0.13,0.81,0.31,1.09,0.54
	c0.28,0.23,0.49,0.51,0.61,0.82c0.13,0.32,0.19,0.66,0.19,1.03c0,0.28-0.04,0.55-0.11,0.8s-0.19,0.48-0.34,0.7
	c-0.15,0.21-0.33,0.41-0.55,0.57s-0.47,0.31-0.75,0.41c0.13,0.07,0.26,0.15,0.37,0.25c0.12,0.1,0.22,0.22,0.31,0.36L344.55,310.5z
	 M340.24,305.87c0.28,0,0.51-0.04,0.7-0.11c0.19-0.07,0.35-0.17,0.48-0.29s0.21-0.27,0.27-0.43c0.06-0.17,0.08-0.34,0.08-0.54
	c0-0.38-0.12-0.68-0.38-0.9c-0.25-0.22-0.64-0.32-1.16-0.32h-0.82v2.59H340.24z"/>
<path class="st8" d="M353.82,306.12c0,0.63-0.11,1.21-0.33,1.75s-0.53,1-0.92,1.39c-0.4,0.39-0.87,0.69-1.43,0.91
	c-0.56,0.22-1.18,0.33-1.86,0.33h-3.4v-8.74h3.4c0.68,0,1.3,0.11,1.86,0.33c0.56,0.22,1.04,0.52,1.43,0.91
	c0.4,0.39,0.7,0.85,0.92,1.38S353.82,305.5,353.82,306.12z M351.74,306.12c0-0.43-0.06-0.82-0.17-1.17
	c-0.11-0.35-0.27-0.64-0.48-0.88s-0.47-0.43-0.77-0.56c-0.3-0.13-0.65-0.19-1.04-0.19h-1.36v5.62h1.36c0.39,0,0.73-0.07,1.04-0.2
	c0.3-0.13,0.56-0.32,0.77-0.56c0.21-0.24,0.37-0.54,0.48-0.88C351.69,306.95,351.74,306.56,351.74,306.12z"/>
<path class="st6" d="M334,278.44c-1.1,0-2-0.9-2-2c0-1.1-0.9-2-2-2s-2,0.9-2,2c0,1.1-0.9,2-2,2s-2-0.9-2-2c0-3.31,2.69-6,6-6
	s6,2.69,6,6C336,277.54,335.11,278.44,334,278.44z"/>
<path class="st6" d="M316,278.44c-1.1,0-2-0.9-2-2c0-1.1-0.9-2-2-2s-2,0.9-2,2c0,1.1-0.9,2-2,2s-2-0.9-2-2c0-3.31,2.69-6,6-6
	s6,2.69,6,6C318,277.54,317.11,278.44,316,278.44z"/>
<path class="st6" d="M327.79,256.66c3.9-1.54,9.15-0.14,10.94,3.86c0.62,1.33-0.82,2.82-2.16,2.3c-1.5-0.54-2.7-1.12-4.19-1.58
	c-1.4-0.46-3.26-0.86-4.6-1.43C326.39,259.29,326.42,257.16,327.79,256.66L327.79,256.66z"/>
<path class="st6" d="M313.81,259.97c-2.68,0.86-5.41,1.55-8.01,2.71c-0.97,0.49-2.21,0.16-2.58-0.91c-0.15-0.42-0.12-0.87,0.04-1.25
	c1.28-3.03,4.8-4.55,7.91-4.46c1.03,0.03,1.96,0.17,3.03,0.6C315.84,257.39,315.48,259.56,313.81,259.97L313.81,259.97z"/>
<path class="st6" d="M331.01,280.7H311c-2.21,0-4,1.79-4,4c0,7.72,6.28,14,14,14c7.66,0,13.91-6.19,14-13.83c0-0.06,0-0.11,0-0.17
	C335,282.5,333.21,280.7,331.01,280.7z"/>
<ellipse class="st11" cx="321" cy="291.37" rx="7.44" ry="3.33"/>
<path class="st15" d="M156,82.27c-4.96,0-9-4.04-9-9v-34c0-4.96,4.04-9,9-9h88c4.96,0,9,4.04,9,9v34c0,4.96-4.04,9-9,9H156z"/>
<path class="st6" d="M244,33.27c3.31,0,6,2.69,6,6v34c0,3.31-2.69,6-6,6h-88c-3.31,0-6-2.69-6-6v-34c0-3.31,2.69-6,6-6H244
	 M244,27.27h-88c-6.62,0-12,5.38-12,12v34c0,6.62,5.38,12,12,12h88c6.62,0,12-5.38,12-12v-34C256,32.65,250.62,27.27,244,27.27
	L244,27.27z"/>
<path class="st16" d="M138,82.27c-4.96,0-9-4.04-9-9v-34c0-4.96,4.04-9,9-9h88c4.96,0,9,4.04,9,9v34c0,4.96-4.04,9-9,9H138z"/>
<path class="st6" d="M226,33.27c3.31,0,6,2.69,6,6v34c0,3.31-2.69,6-6,6h-88c-3.31,0-6-2.69-6-6v-34c0-3.31,2.69-6,6-6H226
	 M226,27.27h-88c-6.62,0-12,5.38-12,12v34c0,6.62,5.38,12,12,12h88c6.62,0,12-5.38,12-12v-34C238,32.65,232.62,27.27,226,27.27
	L226,27.27z"/>
<path class="st8" d="M151.7,69.3h0.32c0.3,0,0.52-0.09,0.65-0.28l1.97-2.86c0.12-0.15,0.24-0.26,0.38-0.32
	c0.13-0.06,0.3-0.09,0.5-0.09h1.76l-2.59,3.53c-0.18,0.24-0.38,0.42-0.59,0.53c0.15,0.06,0.29,0.13,0.41,0.23
	c0.12,0.1,0.24,0.23,0.35,0.39l2.64,4.06h-1.81c-0.12,0-0.22-0.01-0.3-0.02c-0.08-0.02-0.15-0.04-0.21-0.07
	c-0.06-0.03-0.11-0.07-0.16-0.12c-0.04-0.05-0.09-0.1-0.13-0.16l-1.98-3.04c-0.07-0.11-0.16-0.19-0.27-0.24
	c-0.11-0.05-0.26-0.07-0.45-0.07h-0.49v3.72h-2.03v-8.74h2.03V69.3z"/>
<path class="st8" d="M160.79,67.32v2.04h2.75v1.5h-2.75v2.08h3.59v1.56h-5.63v-8.74h5.63v1.56H160.79z"/>
<path class="st8" d="M170.41,71.17v3.32h-2.03v-3.32l-3.17-5.42H167c0.18,0,0.32,0.04,0.42,0.12s0.19,0.19,0.25,0.32l1.24,2.54
	c0.1,0.2,0.2,0.39,0.28,0.56s0.16,0.35,0.22,0.51c0.06-0.17,0.13-0.35,0.21-0.52s0.17-0.36,0.27-0.55l1.22-2.54
	c0.03-0.05,0.06-0.1,0.1-0.16s0.09-0.1,0.14-0.14c0.05-0.04,0.12-0.08,0.19-0.1c0.07-0.03,0.15-0.04,0.23-0.04h1.8L170.41,71.17z"/>
<path class="st8" d="M186.78,65.76l-2.7,8.74h-1.84l-1.64-5.42c-0.03-0.08-0.06-0.18-0.09-0.28c-0.03-0.1-0.06-0.21-0.08-0.32
	c-0.03,0.11-0.06,0.22-0.08,0.32c-0.03,0.1-0.06,0.2-0.09,0.28l-1.67,5.42h-1.84l-2.7-8.74h1.7c0.18,0,0.32,0.04,0.44,0.12
	s0.2,0.19,0.23,0.32l1.2,4.56c0.04,0.14,0.07,0.3,0.11,0.47c0.04,0.17,0.07,0.35,0.11,0.53c0.07-0.38,0.16-0.71,0.26-1l1.42-4.56
	c0.04-0.11,0.11-0.21,0.23-0.3c0.12-0.09,0.26-0.13,0.43-0.13h0.6c0.18,0,0.32,0.04,0.43,0.12c0.11,0.08,0.19,0.19,0.25,0.32
	l1.4,4.56c0.1,0.28,0.19,0.6,0.26,0.95c0.03-0.18,0.07-0.35,0.1-0.51c0.03-0.16,0.07-0.31,0.1-0.45l1.2-4.56
	c0.03-0.12,0.11-0.22,0.23-0.31c0.12-0.09,0.26-0.13,0.43-0.13H186.78z"/>
<path class="st8" d="M196.6,70.12c0,0.63-0.11,1.22-0.33,1.76c-0.22,0.54-0.52,1.02-0.92,1.42c-0.4,0.4-0.87,0.72-1.43,0.95
	c-0.56,0.23-1.18,0.34-1.86,0.34c-0.68,0-1.3-0.11-1.86-0.34c-0.56-0.23-1.04-0.54-1.44-0.95c-0.4-0.4-0.71-0.88-0.92-1.42
	s-0.33-1.13-0.33-1.76s0.11-1.22,0.33-1.76s0.53-1.02,0.92-1.42c0.4-0.4,0.88-0.71,1.44-0.94c0.56-0.23,1.18-0.34,1.86-0.34
	c0.68,0,1.3,0.12,1.86,0.34c0.56,0.23,1.04,0.54,1.43,0.95c0.4,0.4,0.7,0.87,0.92,1.42C196.49,68.91,196.6,69.5,196.6,70.12z
	 M194.53,70.12c0-0.43-0.06-0.82-0.17-1.17c-0.11-0.35-0.27-0.64-0.48-0.88s-0.47-0.42-0.77-0.55c-0.3-0.13-0.65-0.19-1.04-0.19
	c-0.39,0-0.74,0.06-1.05,0.19c-0.31,0.13-0.56,0.31-0.77,0.55s-0.37,0.53-0.48,0.88s-0.17,0.74-0.17,1.17
	c0,0.44,0.06,0.83,0.17,1.17c0.11,0.35,0.27,0.64,0.48,0.88c0.21,0.24,0.47,0.42,0.77,0.55c0.31,0.13,0.66,0.19,1.05,0.19
	c0.39,0,0.73-0.06,1.04-0.19c0.3-0.13,0.56-0.31,0.77-0.55c0.21-0.24,0.37-0.53,0.48-0.88C194.47,70.95,194.53,70.56,194.53,70.12z"
	/>
<path class="st8" d="M205.55,74.5h-1.84c-0.34,0-0.58-0.13-0.73-0.38l-1.45-2.54c-0.07-0.11-0.14-0.19-0.23-0.24
	s-0.2-0.08-0.36-0.08h-0.52v3.23h-2.03v-8.74h2.84c0.63,0,1.17,0.07,1.62,0.2c0.45,0.13,0.81,0.31,1.09,0.54
	c0.28,0.23,0.49,0.51,0.61,0.82c0.13,0.32,0.19,0.66,0.19,1.03c0,0.28-0.04,0.55-0.11,0.8s-0.19,0.48-0.34,0.7
	c-0.15,0.21-0.33,0.41-0.55,0.57s-0.47,0.31-0.75,0.41c0.13,0.07,0.26,0.15,0.37,0.25c0.12,0.1,0.22,0.22,0.31,0.36L205.55,74.5z
	 M201.24,69.87c0.28,0,0.51-0.04,0.7-0.11c0.19-0.07,0.35-0.17,0.48-0.29s0.21-0.27,0.27-0.43c0.06-0.17,0.08-0.34,0.08-0.54
	c0-0.38-0.12-0.68-0.38-0.9c-0.25-0.22-0.64-0.32-1.16-0.32h-0.82v2.59H201.24z"/>
<path class="st8" d="M214.82,70.12c0,0.63-0.11,1.21-0.33,1.75s-0.53,1-0.92,1.39c-0.4,0.39-0.87,0.69-1.43,0.91
	c-0.56,0.22-1.18,0.33-1.86,0.33h-3.4v-8.74h3.4c0.68,0,1.3,0.11,1.86,0.33c0.56,0.22,1.04,0.52,1.43,0.91
	c0.4,0.39,0.7,0.85,0.92,1.38S214.82,69.5,214.82,70.12z M212.74,70.12c0-0.43-0.06-0.82-0.17-1.17c-0.11-0.35-0.27-0.64-0.48-0.88
	s-0.47-0.43-0.77-0.56c-0.3-0.13-0.65-0.19-1.04-0.19h-1.36v5.62h1.36c0.39,0,0.73-0.07,1.04-0.2c0.3-0.13,0.56-0.32,0.77-0.56
	c0.21-0.24,0.37-0.54,0.48-0.88C212.69,70.95,212.74,70.56,212.74,70.12z"/>
<path class="st6" d="M195,42.44c-1.1,0-2-0.9-2-2c0-1.1-0.9-2-2-2s-2,0.9-2,2c0,1.1-0.9,2-2,2s-2-0.9-2-2c0-3.31,2.69-6,6-6
	s6,2.69,6,6C197,41.54,196.11,42.44,195,42.44z"/>
<path class="st6" d="M177,42.44c-1.1,0-2-0.9-2-2c0-1.1-0.9-2-2-2s-2,0.9-2,2c0,1.1-0.9,2-2,2s-2-0.9-2-2c0-3.31,2.69-6,6-6
	s6,2.69,6,6C179,41.54,178.11,42.44,177,42.44z"/>
<path class="st6" d="M188.79,20.66c3.9-1.54,9.15-0.14,10.94,3.86c0.62,1.33-0.82,2.82-2.16,2.3c-1.5-0.54-2.7-1.12-4.19-1.58
	c-1.4-0.46-3.26-0.86-4.6-1.43C187.39,23.29,187.42,21.16,188.79,20.66L188.79,20.66z"/>
<path class="st6" d="M174.81,23.97c-2.68,0.86-5.41,1.55-8.01,2.71c-0.97,0.49-2.21,0.16-2.58-0.91c-0.15-0.42-0.12-0.87,0.04-1.25
	c1.28-3.03,4.8-4.55,7.91-4.46c1.03,0.03,1.96,0.17,3.03,0.6C176.84,21.39,176.48,23.56,174.81,23.97L174.81,23.97z"/>
<path class="st6" d="M192.01,44.7H172c-2.21,0-4,1.79-4,4c0,7.72,6.28,14,14,14c7.66,0,13.91-6.19,14-13.83c0-0.06,0-0.11,0-0.17
	C196,46.5,194.21,44.7,192.01,44.7z"/>
<ellipse class="st11" cx="182" cy="55.37" rx="7.44" ry="3.33"/>
<path class="st17" d="M25,161.27c-4.96,0-9-4.04-9-9v-34c0-4.96,4.04-9,9-9h88c4.96,0,9,4.04,9,9v34c0,4.96-4.04,9-9,9H25z"/>
<path class="st6" d="M113,112.27c3.31,0,6,2.69,6,6v34c0,3.31-2.69,6-6,6H25c-3.31,0-6-2.69-6-6v-34c0-3.31,2.69-6,6-6H113
	 M113,106.27H25c-6.62,0-12,5.38-12,12v34c0,6.62,5.38,12,12,12h88c6.62,0,12-5.38,12-12v-34C125,111.65,119.62,106.27,113,106.27
	L113,106.27z"/>
<path class="st18" d="M43,161.27c-4.96,0-9-4.04-9-9v-34c0-4.96,4.04-9,9-9h88c4.96,0,9,4.04,9,9v34c0,4.96-4.04,9-9,9H43z"/>
<path class="st6" d="M131,112.27c3.31,0,6,2.69,6,6v34c0,3.31-2.69,6-6,6H43c-3.31,0-6-2.69-6-6v-34c0-3.31,2.69-6,6-6H131
	 M131,106.27H43c-6.62,0-12,5.38-12,12v34c0,6.62,5.38,12,12,12h88c6.62,0,12-5.38,12-12v-34C143,111.65,137.62,106.27,131,106.27
	L131,106.27z"/>
<path class="st8" d="M56.7,148.3h0.32c0.3,0,0.52-0.09,0.65-0.28l1.97-2.86c0.12-0.15,0.24-0.26,0.38-0.32
	c0.13-0.06,0.3-0.09,0.5-0.09h1.76l-2.59,3.53c-0.18,0.24-0.38,0.42-0.59,0.53c0.15,0.06,0.29,0.13,0.41,0.23
	c0.12,0.1,0.24,0.23,0.35,0.39l2.64,4.06h-1.81c-0.12,0-0.22-0.01-0.3-0.02c-0.08-0.02-0.15-0.04-0.21-0.07
	c-0.06-0.03-0.11-0.07-0.16-0.12c-0.04-0.05-0.09-0.1-0.13-0.16l-1.98-3.04c-0.07-0.11-0.16-0.19-0.27-0.24
	c-0.11-0.05-0.26-0.07-0.45-0.07H56.7v3.72h-2.03v-8.74h2.03V148.3z"/>
<path class="st8" d="M65.79,146.32v2.04h2.75v1.5h-2.75v2.08h3.59v1.56h-5.63v-8.74h5.63v1.56H65.79z"/>
<path class="st8" d="M75.41,150.17v3.32h-2.03v-3.32l-3.17-5.42H72c0.18,0,0.32,0.04,0.42,0.12s0.19,0.19,0.25,0.32l1.24,2.54
	c0.1,0.2,0.2,0.39,0.28,0.56s0.16,0.35,0.22,0.51c0.06-0.17,0.13-0.35,0.21-0.52s0.17-0.36,0.27-0.55l1.22-2.54
	c0.03-0.05,0.06-0.1,0.1-0.16s0.09-0.1,0.14-0.14c0.05-0.04,0.12-0.08,0.19-0.1c0.07-0.03,0.15-0.04,0.23-0.04h1.8L75.41,150.17z"/>
<path class="st8" d="M91.78,144.76l-2.7,8.74h-1.84l-1.64-5.42c-0.03-0.08-0.06-0.18-0.09-0.28c-0.03-0.1-0.06-0.21-0.08-0.32
	c-0.03,0.11-0.06,0.22-0.08,0.32c-0.03,0.1-0.06,0.2-0.09,0.28l-1.67,5.42h-1.84l-2.7-8.74h1.7c0.18,0,0.32,0.04,0.44,0.12
	s0.2,0.19,0.23,0.32l1.2,4.56c0.04,0.14,0.07,0.3,0.11,0.47c0.04,0.17,0.07,0.35,0.11,0.53c0.07-0.38,0.16-0.71,0.26-1l1.42-4.56
	c0.04-0.11,0.11-0.21,0.23-0.3c0.12-0.09,0.26-0.13,0.43-0.13h0.6c0.18,0,0.32,0.04,0.43,0.12c0.11,0.08,0.19,0.19,0.25,0.32
	l1.4,4.56c0.1,0.28,0.19,0.6,0.26,0.95c0.03-0.18,0.07-0.35,0.1-0.51c0.03-0.16,0.07-0.31,0.1-0.45l1.2-4.56
	c0.03-0.12,0.11-0.22,0.23-0.31c0.12-0.09,0.26-0.13,0.43-0.13H91.78z"/>
<path class="st8" d="M101.6,149.12c0,0.63-0.11,1.22-0.33,1.76c-0.22,0.54-0.52,1.02-0.92,1.42c-0.4,0.4-0.87,0.72-1.43,0.95
	c-0.56,0.23-1.18,0.34-1.86,0.34c-0.68,0-1.3-0.11-1.86-0.34c-0.56-0.23-1.04-0.54-1.44-0.95c-0.4-0.4-0.71-0.88-0.92-1.42
	s-0.33-1.13-0.33-1.76s0.11-1.22,0.33-1.76s0.53-1.02,0.92-1.42c0.4-0.4,0.88-0.71,1.44-0.94c0.56-0.23,1.18-0.34,1.86-0.34
	c0.68,0,1.3,0.12,1.86,0.34c0.56,0.23,1.04,0.54,1.43,0.95c0.4,0.4,0.7,0.87,0.92,1.42C101.49,147.91,101.6,148.5,101.6,149.12z
	 M99.53,149.12c0-0.43-0.06-0.82-0.17-1.17c-0.11-0.35-0.27-0.64-0.48-0.88s-0.47-0.42-0.77-0.55c-0.3-0.13-0.65-0.19-1.04-0.19
	c-0.39,0-0.74,0.06-1.05,0.19c-0.31,0.13-0.56,0.31-0.77,0.55s-0.37,0.53-0.48,0.88s-0.17,0.74-0.17,1.17
	c0,0.44,0.06,0.83,0.17,1.17c0.11,0.35,0.27,0.64,0.48,0.88c0.21,0.24,0.47,0.42,0.77,0.55c0.31,0.13,0.66,0.19,1.05,0.19
	c0.39,0,0.73-0.06,1.04-0.19c0.3-0.13,0.56-0.31,0.77-0.55c0.21-0.24,0.37-0.53,0.48-0.88C99.47,149.95,99.53,149.56,99.53,149.12z"
	/>
<path class="st8" d="M110.55,153.5h-1.84c-0.34,0-0.58-0.13-0.73-0.38l-1.45-2.54c-0.07-0.11-0.14-0.19-0.23-0.24
	s-0.2-0.08-0.36-0.08h-0.52v3.23h-2.03v-8.74h2.84c0.63,0,1.17,0.07,1.62,0.2c0.45,0.13,0.81,0.31,1.09,0.54
	c0.28,0.23,0.49,0.51,0.61,0.82c0.13,0.32,0.19,0.66,0.19,1.03c0,0.28-0.04,0.55-0.11,0.8s-0.19,0.48-0.34,0.7
	c-0.15,0.21-0.33,0.41-0.55,0.57s-0.47,0.31-0.75,0.41c0.13,0.07,0.26,0.15,0.37,0.25c0.12,0.1,0.22,0.22,0.31,0.36L110.55,153.5z
	 M106.24,148.87c0.28,0,0.51-0.04,0.7-0.11c0.19-0.07,0.35-0.17,0.48-0.29s0.21-0.27,0.27-0.43c0.06-0.17,0.08-0.34,0.08-0.54
	c0-0.38-0.12-0.68-0.38-0.9c-0.25-0.22-0.64-0.32-1.16-0.32h-0.82v2.59H106.24z"/>
<path class="st8" d="M119.82,149.12c0,0.63-0.11,1.21-0.33,1.75s-0.53,1-0.92,1.39c-0.4,0.39-0.87,0.69-1.43,0.91
	c-0.56,0.22-1.18,0.33-1.86,0.33h-3.4v-8.74h3.4c0.68,0,1.3,0.11,1.86,0.33c0.56,0.22,1.04,0.52,1.43,0.91
	c0.4,0.39,0.7,0.85,0.92,1.38S119.82,148.5,119.82,149.12z M117.74,149.12c0-0.43-0.06-0.82-0.17-1.17
	c-0.11-0.35-0.27-0.64-0.48-0.88s-0.47-0.43-0.77-0.56c-0.3-0.13-0.65-0.19-1.04-0.19h-1.36v5.62h1.36c0.39,0,0.73-0.07,1.04-0.2
	c0.3-0.13,0.56-0.32,0.77-0.56c0.21-0.24,0.37-0.54,0.48-0.88C117.69,149.95,117.74,149.56,117.74,149.12z"/>
<path class="st6" d="M100,121.44c-1.1,0-2-0.9-2-2c0-1.1-0.9-2-2-2s-2,0.9-2,2c0,1.1-0.9,2-2,2s-2-0.9-2-2c0-3.31,2.69-6,6-6
	s6,2.69,6,6C102,120.54,101.11,121.44,100,121.44z"/>
<path class="st6" d="M82,121.44c-1.1,0-2-0.9-2-2c0-1.1-0.9-2-2-2s-2,0.9-2,2c0,1.1-0.9,2-2,2s-2-0.9-2-2c0-3.31,2.69-6,6-6
	s6,2.69,6,6C84,120.54,83.11,121.44,82,121.44z"/>
<path class="st6" d="M93.79,99.66c3.9-1.54,9.15-0.14,10.94,3.86c0.62,1.33-0.82,2.82-2.16,2.3c-1.5-0.54-2.7-1.12-4.19-1.58
	c-1.4-0.46-3.26-0.86-4.6-1.43C92.39,102.29,92.42,100.16,93.79,99.66L93.79,99.66z"/>
<path class="st6" d="M79.81,102.97c-2.68,0.86-5.41,1.55-8.01,2.71c-0.97,0.49-2.21,0.16-2.58-0.91c-0.15-0.42-0.12-0.87,0.04-1.25
	c1.28-3.03,4.8-4.55,7.91-4.46c1.03,0.03,1.96,0.17,3.03,0.6C81.84,100.39,81.48,102.56,79.81,102.97L79.81,102.97z"/>
<path class="st6" d="M97.01,123.7H77c-2.21,0-4,1.79-4,4c0,7.72,6.28,14,14,14c7.66,0,13.91-6.19,14-13.83c0-0.06,0-0.11,0-0.17
	C101,125.5,99.21,123.7,97.01,123.7z"/>
<ellipse class="st11" cx="87" cy="134.37" rx="7.44" ry="3.33"/>
<path class="st0" d="M356,366h-7v-7c0-1.66-1.34-3-3-3s-3,1.34-3,3v7h-7c-1.66,0-3,1.34-3,3s1.34,3,3,3h7v7c0,1.66,1.34,3,3,3
	s3-1.34,3-3v-7h7c1.66,0,3-1.34,3-3S357.66,366,356,366z"/>
</svg>
