<?xml version="1.0" encoding="utf-8"?>
<!-- Generator: Adobe Illustrator 26.1.0, SVG Export Plug-In . SVG Version: 6.00 Build 0)  -->
<svg version="1.1" id="Facebook_x5F_Ads_x5F_Research"
	 xmlns="http://www.w3.org/2000/svg" xmlns:xlink="http://www.w3.org/1999/xlink" x="0px" y="0px" viewBox="0 0 400 400"
	 style="enable-background:new 0 0 400 400;" xml:space="preserve">
<style type="text/css">
	.st0{fill:#F89D81;}
	.st1{fill:#515979;}
	.st2{fill:#B29D90;}
	.st3{fill:#E1C3AA;}
	.st4{fill:#FFFFFF;}
	.st5{fill:none;}
	.st6{fill:#D8EBFB;}
	.st7{fill:#CCCCCC;}
	.st8{fill:#979BAF;}
	.st9{fill:#A0D2FF;}
	.st10{fill:#9E8271;}
	.st11{fill:#FFD886;}
	.st12{fill:#1877F2;}
	.st13{fill:#7D839B;}
	.st14{fill:#FFE3DC;}
	.st15{fill:#FFC8BE;}
	.st16{fill:#A0AAB4;}
	.st17{fill:#EF7D7D;stroke:#515979;stroke-width:4;stroke-linecap:round;stroke-linejoin:round;stroke-miterlimit:10;}
</style>
<g>
	<circle class="st0" cx="102" cy="221.05" r="80"/>
	<path class="st1" d="M102,304.05c-45.77,0-83-37.23-83-83s37.23-83,83-83s83,37.23,83,83S147.77,304.05,102,304.05z M102,144.05
		c-42.46,0-77,34.54-77,77s34.54,77,77,77s77-34.54,77-77S144.46,144.05,102,144.05z"/>
</g>
<path class="st1" d="M117.68,73.16c-1.91-1.29-4.09-1.55-6.12-0.73c-4.23,1.7-7.42,8.27-9.55,14.44
	c-2.14-6.17-5.32-12.74-9.55-14.44c-2.04-0.82-4.21-0.56-6.12,0.73c-1.75,1.18-2.77,2.98-2.86,5.06
	c-0.35,7.68,12.65,18.9,16.64,22.16c0.04,0.03,0.08,0.05,0.12,0.08c0.07,0.05,0.14,0.11,0.21,0.15c0.01,0.01,0.03,0.01,0.04,0.02
	c0.21,0.12,0.43,0.22,0.66,0.29c0.05,0.01,0.1,0.03,0.15,0.04c0.24,0.06,0.47,0.1,0.72,0.1c0,0,0,0,0,0c0,0,0,0,0,0s0,0,0,0
	c0,0,0,0,0,0c0.24,0,0.48-0.04,0.72-0.1c0.05-0.01,0.1-0.02,0.15-0.04c0.23-0.07,0.45-0.16,0.66-0.29c0.01-0.01,0.03-0.01,0.04-0.02
	c0.08-0.05,0.14-0.1,0.21-0.15c0.04-0.03,0.08-0.05,0.12-0.08c3.99-3.26,17-14.49,16.64-22.16
	C120.44,76.13,119.43,74.34,117.68,73.16z M89.45,78.49c0.01-0.17,0.01-0.21,0.22-0.36c0.2-0.14,0.31-0.18,0.39-0.18
	c0.05,0,0.09,0.02,0.14,0.04c1.8,0.72,4.07,5.15,5.99,10.59C92.27,84.45,89.36,80.46,89.45,78.49z M107.8,88.58
	c1.92-5.44,4.19-9.87,5.99-10.59c0.05-0.02,0.09-0.04,0.14-0.04c0.08,0,0.19,0.04,0.39,0.18c0.21,0.14,0.21,0.19,0.22,0.36
	C114.64,80.46,111.73,84.45,107.8,88.58z"/>
<path class="st2" d="M102,301.05c29.33,0,54.96-15.79,68.88-39.33c-4.88-4.45-10.82-7.82-17.48-9.65l-50.61-13.92
	c-0.26-0.07-0.53-0.11-0.8-0.11s-0.54,0.04-0.8,0.11L50.6,252.08c-6.66,1.83-12.6,5.2-17.48,9.65
	C47.04,285.26,72.67,301.05,102,301.05z"/>
<path class="st3" d="M102,247.05c-0.41,0-0.82,0.08-1.21,0.25c-0.78,0.34-19.25,8.53-38.04,22.06c-5.22,3.76-9.91,7.53-14.08,11.3
	c14.15,12.67,32.84,20.39,53.33,20.39c20.5,0,39.2-7.72,53.36-20.41c-21.72-19.76-50.22-32.49-52.15-33.34
	C102.82,247.14,102.41,247.05,102,247.05z"/>
<g>
	<path class="st4" d="M131.52,272.97c-13.85-12.64-27.5-20.23-28.07-20.55c-0.45-0.25-0.95-0.37-1.45-0.37s-1,0.12-1.45,0.37
		c-0.57,0.32-14.22,7.91-28.07,20.55c-5.45,4.98-10.15,10.04-14.07,15.14c12.54,8.17,27.51,12.94,43.59,12.94
		c16.09,0,31.05-4.77,43.6-12.94C141.67,283.01,136.98,277.95,131.52,272.97z"/>
</g>
<g>
	<path class="st1" d="M104.9,249.8c-0.9-0.5-1.9-0.75-2.9-0.75c-1,0-2,0.25-2.9,0.75c-1.57,0.87-26.52,14.86-43.21,36.61
		c1.64,1.16,3.32,2.27,5.04,3.3C77.23,268.73,102,255.05,102,255.05s24.77,13.68,41.07,34.66c1.73-1.04,3.4-2.14,5.04-3.3
		C131.42,264.66,106.47,250.67,104.9,249.8z"/>
</g>
<g>
	<path class="st5" d="M102,255.05c0,0-22.25,15.02-35.46,37.71c10.69,5.3,22.72,8.29,35.46,8.29c12.74,0,24.77-2.99,35.46-8.29
		C124.25,270.07,102,255.05,102,255.05z"/>
	<path class="st6" d="M102,255.05c0,0-24.77,13.68-41.07,34.66c1.82,1.09,3.69,2.11,5.61,3.06C79.75,270.07,102,255.05,102,255.05z"
		/>
	<path class="st6" d="M102,255.05c0,0,22.25,15.02,35.46,37.71c1.91-0.95,3.78-1.96,5.61-3.06C126.77,268.73,102,255.05,102,255.05z
		"/>
</g>
<g>
	<path class="st5" d="M50.96,282.66c13.85,11.49,31.64,18.4,51.04,18.4s37.18-6.91,51.04-18.4c-21.95-19.8-51.04-32.6-51.04-32.6
		S72.91,262.85,50.96,282.66z"/>
	<path class="st1" d="M102,250.05c0,0,29.09,12.8,51.04,32.6c1.54-1.28,3.02-2.63,4.47-4.02c-22.19-20.29-51.12-33.21-53.09-34.08
		c-0.77-0.34-1.59-0.51-2.42-0.51c-0.82,0-1.65,0.17-2.42,0.51c-1.96,0.86-30.89,13.79-53.09,34.08c1.44,1.39,2.92,2.74,4.47,4.02
		C72.91,262.85,102,250.05,102,250.05z"/>
</g>
<rect x="-0.63" y="0.79" class="st5" width="400" height="400"/>
<g>
	<path class="st7" d="M316.5,340.15c-0.8,0-1.56-0.32-2.12-0.88l-19.8-19.8c-0.56-0.56-0.88-1.33-0.88-2.12s0.32-1.56,0.88-2.12
		l5.66-5.66c0.56-0.56,1.33-0.88,2.12-0.88c0.8,0,1.56,0.32,2.12,0.88l19.8,19.8c1.17,1.17,1.17,3.07,0,4.24l-5.66,5.66
		C318.06,339.84,317.29,340.15,316.5,340.15z"/>
	<path class="st1" d="M302.36,311.7l19.8,19.8l-5.66,5.66l-19.8-19.8L302.36,311.7 M302.36,305.7c-1.59,0-3.12,0.63-4.24,1.76
		l-5.66,5.66c-2.34,2.34-2.34,6.14,0,8.49l19.8,19.8c1.17,1.17,2.71,1.76,4.24,1.76c1.54,0,3.07-0.59,4.24-1.76l5.66-5.66
		c1.13-1.13,1.76-2.65,1.76-4.24c0-1.59-0.63-3.12-1.76-4.24l-19.8-19.8C305.47,306.33,303.95,305.7,302.36,305.7L302.36,305.7z"/>
</g>
<rect x="304.37" y="319.87" transform="matrix(0.7071 -0.7071 0.7071 0.7071 -138.3359 312.7592)" class="st8" width="8" height="7"/>
<g>
	<path class="st7" d="M267,335c-14.16,0-27.47-5.51-37.48-15.52c-20.66-20.67-20.66-54.29,0-74.95C239.53,234.51,252.84,229,267,229
		s27.47,5.51,37.48,15.52c20.66,20.67,20.66,54.29,0,74.95C294.47,329.49,281.16,335,267,335z"/>
	<path class="st1" d="M267,232c12.8,0,25.59,4.88,35.36,14.64c19.53,19.53,19.53,51.18,0,70.71C292.59,327.12,279.8,332,267,332
		s-25.59-4.88-35.36-14.64c-19.53-19.53-19.53-51.18,0-70.71C241.41,236.88,254.2,232,267,232 M267,226
		c-14.96,0-29.02,5.83-39.6,16.4C216.83,252.98,211,267.04,211,282s5.83,29.02,16.4,39.6c10.58,10.58,24.64,16.4,39.6,16.4
		s29.02-5.83,39.6-16.4c10.58-10.58,16.4-24.64,16.4-39.6s-5.83-29.02-16.4-39.6C296.02,231.83,281.96,226,267,226L267,226z"/>
</g>
<g>
	<path class="st6" d="M267,320c-10.15,0-19.69-3.95-26.87-11.13c-14.82-14.82-14.82-38.92,0-53.74C247.31,247.95,256.85,244,267,244
		s19.69,3.95,26.87,11.13c14.82,14.82,14.82,38.92,0,53.74C286.69,316.05,277.15,320,267,320z"/>
	<path class="st1" d="M267,247c8.96,0,17.91,3.42,24.75,10.25c13.67,13.67,13.67,35.83,0,49.5C284.91,313.58,275.96,317,267,317
		s-17.91-3.42-24.75-10.25c-13.67-13.67-13.67-35.83,0-49.5C249.09,250.42,258.04,247,267,247 M267,241
		c-10.95,0-21.25,4.26-28.99,12.01c-15.99,15.99-15.99,42,0,57.98C245.75,318.74,256.05,323,267,323c10.95,0,21.25-4.26,28.99-12.01
		c15.99-15.99,15.99-42,0-57.98C288.25,245.26,277.95,241,267,241L267,241z"/>
</g>
<g>
	<path class="st9" d="M245.79,260.79c-13.07,13.07-13.63,33.91-1.7,47.66c-0.63-0.54-1.24-1.1-1.84-1.7
		c-13.67-13.67-13.67-35.83,0-49.5c13.67-13.67,35.83-13.67,49.5,0c0.6,0.6,1.15,1.21,1.7,1.84
		C279.7,247.15,258.86,247.71,245.79,260.79z"/>
</g>
<g>
	<path class="st10" d="M345.49,376.22c-0.77,0-1.54-0.29-2.12-0.88l-32.53-32.53c-0.56-0.56-0.88-1.33-0.88-2.12
		s0.32-1.56,0.88-2.12l12.73-12.73c0.59-0.59,1.35-0.88,2.12-0.88c0.77,0,1.54,0.29,2.12,0.88l32.53,32.53
		c0.56,0.56,0.88,1.33,0.88,2.12s-0.32,1.56-0.88,2.12l-12.73,12.73C347.02,375.92,346.26,376.22,345.49,376.22z"/>
	<path class="st1" d="M325.69,327.96l32.53,32.53l-12.73,12.73l-32.53-32.53L325.69,327.96 M325.69,321.96
		c-1.54,0-3.07,0.59-4.24,1.76l-12.73,12.73c-2.34,2.34-2.34,6.14,0,8.49l32.53,32.53c1.17,1.17,2.71,1.76,4.24,1.76
		c1.54,0,3.07-0.59,4.24-1.76l12.73-12.73c2.34-2.34,2.34-6.14,0-8.49l-32.53-32.53C328.76,322.55,327.23,321.96,325.69,321.96
		L325.69,321.96z"/>
</g>
<g>
	<path class="st11" d="M317.2,347.93c-0.8,0-1.56-0.32-2.12-0.88l-4.24-4.24c-1.17-1.17-1.17-3.07,0-4.24l12.73-12.73
		c0.59-0.59,1.35-0.88,2.12-0.88s1.54,0.29,2.12,0.88l4.24,4.24c0.56,0.56,0.88,1.33,0.88,2.12s-0.32,1.56-0.88,2.12l-12.73,12.73
		C318.76,347.62,318,347.93,317.2,347.93L317.2,347.93z"/>
	<path class="st1" d="M325.69,327.96l4.24,4.24l-12.73,12.73l-4.24-4.24L325.69,327.96 M325.69,321.96c-1.54,0-3.07,0.59-4.24,1.76
		l-12.73,12.73c-2.34,2.34-2.34,6.14,0,8.49l4.24,4.24c1.17,1.17,2.71,1.76,4.24,1.76c1.54,0,3.07-0.59,4.24-1.76l12.73-12.73
		c1.13-1.13,1.76-2.65,1.76-4.24s-0.63-3.12-1.76-4.24l-4.24-4.24C328.76,322.55,327.23,321.96,325.69,321.96L325.69,321.96z"/>
</g>
<g>
	<g>
		<path class="st1" d="M283.97,287.8c-0.32,0-0.64-0.08-0.94-0.24c-1.89-1.02-5.21-1.02-7.11,0c-0.98,0.52-2.19,0.16-2.71-0.82
			c-0.52-0.97-0.16-2.19,0.82-2.71c3.05-1.64,7.84-1.64,10.89,0c0.97,0.52,1.34,1.73,0.82,2.71
			C285.37,287.42,284.68,287.8,283.97,287.8z"/>
	</g>
	<g>
		<g>
			<circle class="st1" cx="279.47" cy="278.05" r="7"/>
		</g>
		<g>
			<circle class="st4" cx="281.22" cy="278.05" r="1.75"/>
		</g>
	</g>
	<g>
		<path class="st1" d="M274.49,263.04c3.24-2.9,8.49-3.41,12.08-0.78c1.81,1.28,4.35,4.61,1.57,6.06c-0.7,0.31-1.41,0.12-2.04-0.19
			c-1.67-0.77-2.8-1.34-4.5-1.56c-1.59-0.26-3.56-0.04-5.21-0.01c0,0-0.78-0.08-0.78-0.08C273.94,266.37,273.22,264.1,274.49,263.04
			L274.49,263.04z"/>
	</g>
	<g>
		<path class="st1" d="M257.97,287.8c-0.32,0-0.64-0.08-0.94-0.24c-1.89-1.02-5.21-1.02-7.11,0c-0.97,0.52-2.19,0.16-2.71-0.82
			c-0.52-0.97-0.16-2.19,0.82-2.71c3.05-1.64,7.84-1.64,10.89,0c0.97,0.52,1.34,1.73,0.82,2.71
			C259.37,287.42,258.68,287.8,257.97,287.8z"/>
	</g>
	<g>
		<g>
			<circle class="st1" cx="253.47" cy="278.05" r="7"/>
		</g>
		<g>
			<circle class="st4" cx="255.22" cy="278.05" r="1.75"/>
		</g>
	</g>
	<g>
		<path class="st1" d="M256.54,266.56c-1.64-0.03-3.62-0.25-5.21,0.01c-1.71,0.22-2.84,0.78-4.5,1.56c-1.13,0.65-2.6,0.36-3.13-0.9
			c-0.22-0.53-0.2-1.1,0-1.59c0.54-1.28,1.41-2.51,2.67-3.38c2.96-2.22,7.23-2.17,10.35-0.44c1.45,0.74,3.33,2.28,1.88,4.02
			C258.09,266.45,257.26,266.5,256.54,266.56L256.54,266.56z"/>
	</g>
</g>
<g>
	<path class="st1" d="M266.81,298.08c-4.96,0-10.04-1.43-14.43-4.31c-0.92-0.6-1.18-1.84-0.58-2.77c0.6-0.92,1.84-1.18,2.77-0.58
		c7.35,4.8,17.32,4.82,23.71,0.03c0.88-0.66,2.14-0.48,2.8,0.4c0.66,0.88,0.48,2.14-0.4,2.8
		C276.74,296.6,271.83,298.08,266.81,298.08z"/>
</g>
<g>
	<path class="st1" d="M262.29,300.73c2.7,0.79,5.66,0.86,8.34,0c1.29-0.47,2.34,1.21,1.39,2.17c0,0-0.72,0.76-0.72,0.76
		c-2.84,2.68-7.68,2.05-10.33-0.58C259.85,302.12,260.92,300.26,262.29,300.73L262.29,300.73z"/>
</g>
<path class="st12" d="M280,32c-44.18,0-80,35.82-80,80c0,39.93,29.25,73.03,67.5,79.03l0-55.9l-20.31,0l0-23.12l20.31,0V94.38
	c0-20.05,11.94-31.13,30.22-31.13c8.75,0,17.91,1.56,17.91,1.56l0,19.69l-10.09,0c-9.94,0-13.04,6.17-13.04,12.49V112l22.19,0
	l-3.55,23.12l-18.64,0l0,55.9c38.25-6,67.5-39.1,67.5-79.03C360,67.82,324.18,32,280,32z"/>
<path class="st1" d="M51.39,254.97L102,241.05l50.61,13.92c6.4,1.76,12.07,5.02,16.68,9.33c1.1-1.71,2.15-3.45,3.12-5.24
	c-5.13-4.54-11.31-7.97-18.21-9.87l-50.61-13.92c-0.52-0.14-1.06-0.21-1.59-0.21s-1.07,0.07-1.59,0.21L49.8,249.18
	c-6.9,1.9-13.08,5.34-18.21,9.87c0.97,1.79,2.02,3.53,3.12,5.24C39.33,259.99,45,256.73,51.39,254.97z"/>
<g>
	<g>
		<path class="st13" d="M146,172.05c-1.66,0-3-1.34-3-3v-24c0-0.96,0.46-1.87,1.25-2.43c0.52-0.37,1.13-0.57,1.75-0.57
			c0.32,0,0.64,0.05,0.95,0.15l6,2c1.23,0.41,2.05,1.55,2.05,2.85v16C155,168.02,150.96,172.05,146,172.05z"/>
	</g>
	<g>
		<g>
			<path class="st1" d="M146,145.05l6,2v16c0,3.31-2.69,6-6,6h0V145.05 M146,139.05c-1.24,0-2.47,0.39-3.51,1.13
				c-1.56,1.13-2.49,2.94-2.49,4.87v24c0,3.31,2.69,6,6,6c6.62,0,12-5.38,12-12v-16c0-2.58-1.65-4.88-4.1-5.69l-6-2
				C147.28,139.15,146.64,139.05,146,139.05L146,139.05z"/>
		</g>
	</g>
</g>
<g>
	<g>
		<path class="st13" d="M58,172.05c-4.96,0-9-4.04-9-9v-16c0-1.29,0.83-2.44,2.05-2.85l6-2c0.31-0.1,0.63-0.15,0.95-0.15
			c0.62,0,1.24,0.19,1.75,0.57c0.78,0.56,1.25,1.47,1.25,2.43v24C61,170.71,59.66,172.05,58,172.05z"/>
	</g>
	<g>
		<g>
			<path class="st1" d="M58,145.05v24c-3.31,0-6-2.69-6-6v-16L58,145.05 M58,139.05c-0.64,0-1.28,0.1-1.9,0.31l-6,2
				c-2.45,0.82-4.1,3.11-4.1,5.69v16c0,6.62,5.38,12,12,12c3.31,0,6-2.69,6-6v-24c0-1.93-0.93-3.74-2.49-4.87
				C60.47,139.44,59.24,139.05,58,139.05L58,139.05z"/>
		</g>
	</g>
</g>
<g>
	<path class="st14" d="M102,271.05c-9.92,0-18-8.08-18-18v-35c0-1.66,1.34-3,3-3h30c1.66,0,3,1.34,3,3v35
		C120,262.98,111.93,271.05,102,271.05z"/>
	<g>
		<path class="st1" d="M117,218.05v35c0,8.28-6.72,15-15,15h0c-8.28,0-15-6.72-15-15v-35H117 M117,212.05H87c-3.31,0-6,2.69-6,6v35
			c0,11.58,9.42,21,21,21s21-9.42,21-21v-35C123,214.74,120.31,212.05,117,212.05L117,212.05z"/>
	</g>
</g>
<path class="st15" d="M87,226.05v19.92c4.6,1.98,9.67,3.08,15,3.08c5.33,0,10.4-1.1,15-3.08v-19.92H87z"/>
<g>
	<path class="st1" d="M99,245.55c-1.38,0-2.5-1.12-2.5-2.5s1.12-2.5,2.5-2.5c1.93,0,3.5-1.57,3.5-3.5s-1.57-3.5-3.5-3.5
		c-1.38,0-2.5-1.12-2.5-2.5s1.12-2.5,2.5-2.5c4.69,0,8.5,3.81,8.5,8.5S103.69,245.55,99,245.55z"/>
</g>
<path class="st1" d="M102,268.05c-1.66,0-3,1.34-3,3v29.92c1,0.04,1.99,0.08,3,0.08s2-0.04,3-0.08v-29.92
	C105,269.4,103.66,268.05,102,268.05z"/>
<g>
	<g>
		<path class="st14" d="M146,198.05c-1.66,0-3-1.34-3-3v-22c0-1.66,1.34-3,3-3c7.17,0,13,5.83,13,13v2
			C159,192.22,153.17,198.05,146,198.05z"/>
	</g>
	<g>
		<g>
			<path class="st1" d="M146,173.05c5.52,0,10,4.48,10,10v2c0,5.52-4.48,10-10,10h0L146,173.05L146,173.05 M146,167.05
				c-3.31,0-6,2.69-6,6l0,22c0,1.59,0.63,3.12,1.76,4.24s2.65,1.76,4.24,1.76c8.82,0,16-7.18,16-16v-2
				C162,174.23,154.82,167.05,146,167.05L146,167.05z"/>
		</g>
	</g>
</g>
<g>
	<path class="st15" d="M58,198.05c-7.17,0-13-5.83-13-13v-2c0-7.17,5.83-13,13-13c1.66,0,3,1.34,3,3v22
		C61,196.71,59.66,198.05,58,198.05z"/>
	<g>
		<path class="st1" d="M58,173.05v22c-5.52,0-10-4.48-10-10v-2C48,177.53,52.48,173.05,58,173.05 M58,167.05c-8.82,0-16,7.18-16,16
			v2c0,8.82,7.18,16,16,16c3.31,0,6-2.69,6-6v-22C64,169.74,61.31,167.05,58,167.05L58,167.05z"/>
	</g>
</g>
<g>
	<g>
		<path class="st14" d="M102,234.05c-24.26,0-44-19.74-44-44v-30c0-24.26,19.74-44,44-44s44,19.74,44,44v30
			C146,214.31,126.26,234.05,102,234.05z"/>
	</g>
	<g>
		<g>
			<path class="st1" d="M102,119.05c22.64,0,41,18.36,41,41v30c0,22.64-18.36,41-41,41h0c-22.64,0-41-18.36-41-41v-30
				C61,137.41,79.36,119.05,102,119.05L102,119.05 M102,113.05c-25.92,0-47,21.08-47,47v30c0,25.92,21.08,47,47,47
				c25.92,0,47-21.08,47-47v-30C149,134.14,127.92,113.05,102,113.05L102,113.05z"/>
		</g>
	</g>
</g>
<g>
	<path class="st15" d="M69,190.05v-30c0-21.29,16.23-38.79,37-40.8c-1.32-0.13-2.65-0.2-4-0.2c-22.64,0-41,18.36-41,41v30
		c0,22.64,18.36,41,41,41c1.35,0,2.68-0.07,4-0.2C85.23,228.84,69,211.35,69,190.05z"/>
</g>
<g>
	<circle class="st1" cx="121" cy="174.05" r="6"/>
</g>
<g>
	<circle class="st4" cx="123.5" cy="173.55" r="1.5"/>
</g>
<g>
	<circle class="st1" cx="83" cy="174.05" r="6"/>
</g>
<g>
	<g>
		<path class="st1" d="M87,183.05c-0.35,0-0.71-0.09-1.03-0.29c-1.58-0.95-4.35-0.95-5.93,0c-0.95,0.57-2.17,0.27-2.75-0.68
			c-0.57-0.95-0.27-2.18,0.68-2.75c2.82-1.7,7.25-1.7,10.07,0c0.95,0.57,1.25,1.8,0.68,2.75C88.34,182.71,87.68,183.05,87,183.05z"
			/>
	</g>
</g>
<g>
	<g>
		<path class="st1" d="M125,183.05c-0.35,0-0.71-0.09-1.03-0.29c-1.58-0.95-4.35-0.95-5.93,0c-0.95,0.57-2.17,0.27-2.75-0.68
			c-0.57-0.95-0.27-2.18,0.68-2.75c2.82-1.7,7.25-1.7,10.07,0c0.95,0.57,1.25,1.8,0.68,2.75C126.34,182.71,125.68,183.05,125,183.05
			z"/>
	</g>
</g>
<g>
	<circle class="st4" cx="85.5" cy="173.55" r="1.5"/>
</g>
<g>
	<path class="st1" d="M97.81,210.19c2.76,0.55,5.62,0.57,8.37,0c1.33-0.31,2.21,1.46,1.18,2.33c-0.8,0.78-1.8,1.42-2.84,1.7
		c-2.46,0.7-5.29,0.44-7.32-1.22c0,0-0.54-0.47-0.54-0.47C95.6,211.66,96.49,209.89,97.81,210.19L97.81,210.19z"/>
</g>
<g>
	<path class="st1" d="M86.96,167.5c-2.92-0.26-6.02-0.72-8.81,0.23c-0.96,0.23-2.21,0.86-3.41,1.22c-1.34,0.44-2.78-0.28-3.22-1.61
		c-0.23-0.69-0.14-1.41,0.17-2.01c1.53-3.08,5.23-5.13,8.68-5.07c2.61-0.01,4.97,0.77,7,2.23c1.39,0.98,3.38,2.85,1.58,4.51
		C88.4,167.51,87.64,167.5,86.96,167.5L86.96,167.5z"/>
</g>
<g>
	<path class="st1" d="M114.88,164.17c3.32-3.89,9.45-5.17,13.95-2.51c2.38,1.31,5.71,5.08,2.5,7.12c-1.73,0.95-3.89-0.77-5.42-1.04
		c-3.03-1.08-6.38-0.29-9.54-0.25C114.71,167.5,113.78,165.37,114.88,164.17L114.88,164.17z"/>
</g>
<g>
	<path class="st4" d="M115.96,289.64c-0.91-0.01-1.77-0.44-2.33-1.16l-14-18c-0.7-0.9-0.83-2.13-0.33-3.16
		c0.5-1.03,1.55-1.68,2.7-1.68h10c0.5,0,0.99,0.12,1.42,0.36l13,7c0.79,0.42,1.35,1.18,1.52,2.06c0.17,0.88-0.05,1.79-0.62,2.48
		l-9,11c-0.57,0.7-1.42,1.1-2.32,1.1C115.99,289.64,115.98,289.64,115.96,289.64z"/>
	<path class="st1" d="M112,268.64l13,7l-9,11l-14-18H112 M112,262.64h-10c-2.29,0-4.38,1.31-5.39,3.36s-0.75,4.51,0.65,6.32l14,18
		c1.12,1.44,2.84,2.29,4.66,2.32c0.02,0,0.05,0,0.07,0c1.8,0,3.5-0.81,4.64-2.2l9-11c1.13-1.39,1.59-3.21,1.24-4.97
		c-0.35-1.76-1.46-3.27-3.04-4.12l-13-7C113.97,262.89,112.99,262.64,112,262.64L112,262.64z"/>
</g>
<g>
	<path class="st4" d="M88,289.64c-0.9,0-1.75-0.4-2.32-1.1l-9-11c-0.57-0.69-0.79-1.6-0.62-2.48c0.17-0.88,0.73-1.63,1.52-2.06l13-7
		c0.44-0.24,0.93-0.36,1.42-0.36h10c1.15,0,2.19,0.65,2.7,1.68c0.5,1.03,0.38,2.26-0.33,3.16l-14,18c-0.56,0.72-1.42,1.15-2.33,1.16
		C88.02,289.64,88.01,289.64,88,289.64z"/>
	<path class="st1" d="M102,268.64l-14,18l-9-11l13-7H102 M102,262.64H92c-0.99,0-1.97,0.25-2.84,0.72l-13,7
		c-1.58,0.85-2.69,2.36-3.04,4.12c-0.35,1.76,0.11,3.58,1.24,4.97l9,11c1.14,1.39,2.85,2.2,4.64,2.2c0.02,0,0.05,0,0.07,0
		c1.83-0.02,3.54-0.87,4.66-2.32l14-18c1.41-1.81,1.66-4.26,0.65-6.32C106.38,263.95,104.29,262.64,102,262.64L102,262.64z
		 M102,274.64L102,274.64L102,274.64L102,274.64z"/>
</g>
<g>
	<g>
		<path class="st2" d="M107.39,150.21c-1.77,0-3.58-0.03-5.39-0.09c-1.81,0.06-3.62,0.09-5.39,0.09c-13.13,0-25.95-1.67-40.34-5.25
			c-1.34-0.33-2.28-1.53-2.28-2.91c0-29.03,24.92-47,48-47s48,17.97,48,47c0,1.38-0.94,2.58-2.28,2.91
			C133.34,148.54,120.52,150.21,107.39,150.21C107.39,150.21,107.39,150.21,107.39,150.21z"/>
	</g>
	<g>
		<g>
			<path class="st1" d="M102,98.05c19.7,0,45,15.26,45,44c-14.28,3.55-26.73,5.16-39.61,5.16c-1.79,0-3.58-0.03-5.39-0.09
				c-1.81,0.06-3.6,0.09-5.39,0.09c-12.88,0-25.33-1.61-39.61-5.16C57,113.31,82.3,98.05,102,98.05 M102,92.05
				c-11.75,0-24.37,4.72-33.75,12.63C57.13,114.06,51,127.33,51,142.05c0,2.76,1.88,5.16,4.55,5.82
				c14.63,3.64,27.68,5.34,41.06,5.34c1.77,0,3.58-0.03,5.39-0.09c1.81,0.06,3.62,0.09,5.39,0.09c13.38,0,26.43-1.7,41.06-5.34
				c2.67-0.67,4.55-3.07,4.55-5.82c0-14.72-6.13-27.99-17.25-37.37C126.37,96.78,113.75,92.05,102,92.05L102,92.05z"/>
		</g>
	</g>
</g>
<g>
	<g>
		<path class="st3" d="M105.59,150.21c-1.18,0-2.39-0.03-3.59-0.09c-1.21,0.06-2.41,0.09-3.59,0.09c-8.96,0-17.68-1.7-27.46-5.35
			c-1.17-0.44-1.95-1.56-1.95-2.81c0-29.03,17.13-47,33-47s33,17.97,33,47c0,1.25-0.78,2.37-1.95,2.81
			C123.27,148.51,114.55,150.21,105.59,150.21L105.59,150.21z"/>
	</g>
	<g>
		<g>
			<path class="st1" d="M102,98.05c13.13,0,30,15.26,30,44c-9.52,3.55-17.82,5.16-26.41,5.16c-1.19,0-2.39-0.03-3.59-0.09
				c-1.21,0.06-2.4,0.09-3.59,0.09c-8.59,0-16.89-1.61-26.41-5.16C72,113.31,88.87,98.05,102,98.05 M102,92.05
				c-8.74,0-17.94,5.05-24.63,13.5C72.18,112.11,66,123.77,66,142.05c0,2.5,1.56,4.75,3.9,5.62c10.12,3.78,19.18,5.54,28.51,5.54
				c1.18,0,2.39-0.03,3.59-0.08c1.21,0.06,2.41,0.08,3.59,0.08c9.32,0,18.38-1.76,28.51-5.54c2.35-0.88,3.9-3.12,3.9-5.62
				c0-18.29-6.18-29.94-11.37-36.5C119.94,97.1,110.74,92.05,102,92.05L102,92.05z"/>
		</g>
	</g>
</g>
<g>
	<g>
		<path class="st2" d="M102,162.05c-44.98,0-52.54-5.94-54.11-11.1c-1.57-5.18,3.86-8.98,4.48-9.39c0.5-0.33,1.08-0.5,1.66-0.5
			c0.25,0,0.49,0.03,0.74,0.09c7.85,1.99,25.5,3.17,47.22,3.18c21.72,0,39.37-1.19,47.22-3.18c0.24-0.06,0.49-0.09,0.74-0.09
			c0.59,0,1.17,0.17,1.66,0.5c0.62,0.42,6.05,4.21,4.48,9.39C153.13,160.79,125.63,162.05,102,162.05L102,162.05z"/>
	</g>
	<g>
		<path class="st1" d="M149.96,144.05c0,0,22.51,14.99-47.96,15c-70.47-0.01-47.96-15-47.96-15c8.6,2.18,27.28,3.27,47.96,3.27
			C122.68,147.32,141.36,146.23,149.96,144.05 M149.96,138.05c-0.49,0-0.99,0.06-1.47,0.18c-7.62,1.93-25,3.08-46.49,3.08
			c-21.49,0-38.86-1.15-46.49-3.08c-0.49-0.12-0.98-0.18-1.47-0.18c-1.17,0-2.33,0.34-3.33,1.01c-0.29,0.2-1.83,1.26-3.25,2.92
			c-2.58,3.03-3.45,6.53-2.44,9.84c1.94,6.41,9.82,8.87,15.57,10.17c9.07,2.04,23,3.07,41.41,3.07c18.41,0,32.34-1.03,41.41-3.07
			c5.75-1.29,13.63-3.75,15.57-10.17c1-3.31,0.13-6.8-2.44-9.84c-1.41-1.66-2.95-2.73-3.25-2.92
			C152.29,138.4,151.13,138.05,149.96,138.05L149.96,138.05z"/>
	</g>
</g>
<path class="st2" d="M114,125.05c1.1,0,2-0.9,2-2s-0.9-2-2-2h-2v-4h2c1.1,0,2-0.9,2-2s-0.9-2-2-2h-2v-2c0-1.1-0.9-2-2-2s-2,0.9-2,2
	v2h-4v-2c0-1.1-0.9-2-2-2s-2,0.9-2,2v2h-4v-2c0-1.1-0.9-2-2-2s-2,0.9-2,2v2h-2c-1.1,0-2,0.9-2,2s0.9,2,2,2h2v4h-2c-1.1,0-2,0.9-2,2
	s0.9,2,2,2h2v4h-2c-1.1,0-2,0.9-2,2s0.9,2,2,2h2v2c0,1.1,0.9,2,2,2s2-0.9,2-2v-2h4v2c0,1.1,0.9,2,2,2s2-0.9,2-2v-2h4v2
	c0,1.1,0.9,2,2,2s2-0.9,2-2v-2h2c1.1,0,2-0.9,2-2s-0.9-2-2-2h-2v-4H114z M108,117.05v4h-4v-4H108z M96,117.05h4v4h-4V117.05z
	 M96,129.05v-4h4v4H96z M108,129.05h-4v-4h4V129.05z"/>
<g>
	<g>
		<g>
			<path class="st13" d="M75,209.05c-1.66,0-3-1.34-3-3c0-8.27,6.73-15,15-15h12c1.66,0,3,1.34,3,3c0,8.27-6.73,15-15,15H75z"/>
		</g>
		<g>
			<g>
				<path class="st1" d="M99,194.05L99,194.05c0,6.63-5.37,12-12,12H75c0-6.63,5.37-12,12-12H99 M99,188.05H87
					c-9.93,0-18,8.07-18,18c0,3.31,2.69,6,6,6h12c9.93,0,18-8.07,18-18C105,190.74,102.31,188.05,99,188.05L99,188.05z"/>
			</g>
		</g>
	</g>
	<g>
		<g>
			<path class="st13" d="M117,209.05c-8.27,0-15-6.73-15-15c0-1.66,1.34-3,3-3h12c8.27,0,15,6.73,15,15c0,1.66-1.34,3-3,3H117z"/>
		</g>
		<g>
			<g>
				<path class="st1" d="M117,194.05c6.63,0,12,5.37,12,12h-12c-6.63,0-12-5.37-12-12v0H117 M117,188.05h-12c-3.31,0-6,2.69-6,6
					c0,9.93,8.07,18,18,18h12c3.31,0,6-2.69,6-6C135,196.13,126.93,188.05,117,188.05L117,188.05z"/>
			</g>
		</g>
	</g>
</g>
<g>
	<g>
		<path class="st15" d="M109,185.05c0,3.87-3.13,7-7,7h0c-3.87,0-7-3.13-7-7H109z"/>
	</g>
	<g>
		<path class="st1" d="M102,194.55c-5.24,0-9.5-4.26-9.5-9.5v-15c0-1.38,1.12-2.5,2.5-2.5s2.5,1.12,2.5,2.5v15
			c0,2.48,2.02,4.5,4.5,4.5s4.5-2.02,4.5-4.5v-15c0-1.38,1.12-2.5,2.5-2.5s2.5,1.12,2.5,2.5v15
			C111.5,190.29,107.24,194.55,102,194.55z"/>
	</g>
</g>
<g>
	<path class="st1" d="M102,304.05c-45.77,0-83-37.23-83-83h6c0,42.46,34.54,77,77,77s77-34.54,77-77h6
		C185,266.82,147.77,304.05,102,304.05z"/>
</g>
<path class="st11" d="M38.8,85.2c2.98,0,5.4-2.42,5.4-5.4c0-0.99,0.81-1.8,1.8-1.8s1.8,0.81,1.8,1.8c0,2.98,2.42,5.4,5.4,5.4
	c0.99,0,1.8,0.81,1.8,1.8c0,0.99-0.81,1.8-1.8,1.8c-2.98,0-5.4,2.42-5.4,5.4c0,0.99-0.81,1.8-1.8,1.8s-1.8-0.81-1.8-1.8
	c0-2.98-2.42-5.4-5.4-5.4c-0.99,0-1.8-0.81-1.8-1.8C37,86.01,37.81,85.2,38.8,85.2z"/>
<circle class="st11" cx="323" cy="20" r="5"/>
<path class="st11" d="M195.6,234.4c2.65,0,4.8-2.15,4.8-4.8c0-0.88,0.72-1.6,1.6-1.6s1.6,0.72,1.6,1.6c0,2.65,2.15,4.8,4.8,4.8
	c0.88,0,1.6,0.72,1.6,1.6s-0.72,1.6-1.6,1.6c-2.65,0-4.8,2.15-4.8,4.8c0,0.88-0.72,1.6-1.6,1.6s-1.6-0.72-1.6-1.6
	c0-2.65-2.15-4.8-4.8-4.8c-0.88,0-1.6-0.72-1.6-1.6S194.72,234.4,195.6,234.4z"/>
<circle class="st11" cx="190" cy="275" r="3"/>
<circle class="st11" cx="17" cy="125" r="5"/>
<path class="st11" d="M348,186c3.31,0,6-2.69,6-6c0-1.1,0.9-2,2-2s2,0.9,2,2c0,3.31,2.69,6,6,6c1.1,0,2,0.9,2,2c0,1.1-0.9,2-2,2
	c-3.31,0-6,2.69-6,6c0,1.1-0.9,2-2,2c-1.1,0-2-0.9-2-2c0-3.31-2.69-6-6-6c-1.1,0-2-0.9-2-2C346,186.9,346.9,186,348,186z"/>
<circle class="st11" cx="314" cy="214" r="4"/>
<path class="st11" d="M387,45h-7v-7c0-1.66-1.34-3-3-3s-3,1.34-3,3v7h-7c-1.66,0-3,1.34-3,3s1.34,3,3,3h7v7c0,1.66,1.34,3,3,3
	s3-1.34,3-3v-7h7c1.66,0,3-1.34,3-3S388.66,45,387,45z"/>
<circle class="st11" cx="150" cy="94" r="4"/>
<circle class="st11" cx="242.5" cy="353.5" r="4.5"/>
<path class="st11" d="M293.8,362.8c-3.64,0-6.6-2.96-6.6-6.6c0-1.21-0.98-2.2-2.2-2.2c-1.21,0-2.2,0.98-2.2,2.2
	c0,3.64-2.96,6.6-6.6,6.6c-1.21,0-2.2,0.98-2.2,2.2s0.99,2.2,2.2,2.2c3.64,0,6.6,2.96,6.6,6.6c0,1.21,0.98,2.2,2.2,2.2
	c1.21,0,2.2-0.98,2.2-2.2c0-3.64,2.96-6.6,6.6-6.6c1.21,0,2.2-0.98,2.2-2.2S295.02,362.8,293.8,362.8z"/>
<g>
	<g>
		<path class="st16" d="M129,278.73c-0.72,0-1.43-0.13-2.11-0.38l-19.95-7.48c-1.17-0.44-1.95-1.56-1.95-2.81v-4
			c0-1.25,0.78-2.37,1.95-2.81l19.95-7.48c0.68-0.26,1.39-0.38,2.11-0.38c3.31,0,6,2.69,6,6v13.34
			C135,276.03,132.31,278.73,129,278.73z"/>
		<path class="st1" d="M129,256.38c1.59,0,3,1.28,3,3v13.34c0,1.72-1.41,3-3,3c-0.35,0-0.7-0.06-1.06-0.19L108,268.05v-4l19.95-7.48
			C128.3,256.44,128.66,256.38,129,256.38 M129,250.38C129,250.38,129,250.38,129,250.38c-1.08,0-2.15,0.19-3.16,0.58l-19.95,7.48
			c-2.34,0.88-3.89,3.12-3.89,5.62v4c0,2.5,1.55,4.74,3.89,5.62l19.95,7.48c1.02,0.38,2.08,0.58,3.16,0.58c4.96,0,9-4.04,9-9v-13.34
			C138,254.42,133.96,250.38,129,250.38L129,250.38z"/>
	</g>
	<g>
		<path class="st16" d="M75,278.73c-3.31,0-6-2.69-6-6v-13.34c0-3.31,2.69-6,6-6c0.72,0,1.43,0.13,2.11,0.38l19.95,7.48
			c1.17,0.44,1.95,1.56,1.95,2.81v4c0,1.25-0.78,2.37-1.95,2.81l-19.95,7.48C76.43,278.6,75.72,278.73,75,278.73z"/>
		<path class="st1" d="M75,256.38c0.35,0,0.7,0.06,1.06,0.19L96,264.05v4l-19.95,7.48c-0.35,0.13-0.71,0.19-1.06,0.19
			c-1.59,0-3-1.28-3-3v-13.34C72,257.66,73.41,256.38,75,256.38 M75,250.38C75,250.38,75,250.38,75,250.38c-4.96,0-9,4.04-9,9v13.34
			c0,4.96,4.04,9,9,9c1.08,0,2.14-0.19,3.16-0.58l19.95-7.48c2.34-0.88,3.89-3.12,3.89-5.62v-4c0-2.5-1.55-4.74-3.89-5.62
			l-19.95-7.48C77.14,250.57,76.08,250.38,75,250.38L75,250.38z"/>
	</g>
	<line class="st17" x1="106" y1="266.05" x2="118" y2="266.05"/>
	<line class="st17" x1="86" y1="266.05" x2="98" y2="266.05"/>
	<g>
		<path class="st16" d="M100,275.05c-3.86,0-7-3.14-7-7v-4c0-3.86,3.14-7,7-7h4c3.86,0,7,3.14,7,7v4c0,3.86-3.14,7-7,7H100z"/>
		<path class="st1" d="M104,260.05c2.21,0,4,1.79,4,4v4c0,2.21-1.79,4-4,4h-4c-2.21,0-4-1.79-4-4v-4c0-2.21,1.79-4,4-4H104
			 M104,254.05h-4c-5.51,0-10,4.49-10,10v4c0,5.51,4.49,10,10,10h4c5.51,0,10-4.49,10-10v-4C114,258.54,109.51,254.05,104,254.05
			L104,254.05z"/>
	</g>
</g>
</svg>
