<?xml version="1.0" encoding="utf-8"?>
<!-- Generator: Adobe Illustrator 25.3.1, SVG Export Plug-In . SVG Version: 6.00 Build 0)  -->
<svg version="1.1" id="search-engine-results-page" xmlns="http://www.w3.org/2000/svg" xmlns:xlink="http://www.w3.org/1999/xlink"
	 x="0px" y="0px" viewBox="0 0 400 400" style="enable-background:new 0 0 400 400;" xml:space="preserve">
<style type="text/css">
	.st0{fill:#E5F7E8;}
	.st1{fill:#C4E8DC;}
	.st2{fill:#FFFFFF;}
	.st3{fill:#515979;}
	.st4{fill:#F3F9FE;}
	.st5{fill:#667683;}
	.st6{fill:#EF7D7D;}
	.st7{fill:#FFE8A0;}
	.st8{fill:#7DDF96;}
	.st9{fill:#2196F3;}
	.st10{fill:#E06B52;}
	.st11{fill:#FFD886;}
	.st12{fill:#00C853;}
	.st13{fill:#E8F3FD;}
	.st14{fill:#6ADAF7;}
	.st15{fill:#F89D81;}
	.st16{fill:#FAC864;}
</style>
<g>
	<circle class="st0" cx="200" cy="200" r="170"/>
</g>
<g>
	<circle class="st1" cx="200" cy="200" r="140"/>
</g>
<g>
	<g>
		<g>
			<path class="st2" d="M90,312c-7.17,0-13-5.83-13-13V101c0-7.17,5.83-13,13-13h220c7.17,0,13,5.83,13,13v198c0,7.17-5.83,13-13,13
				H90z"/>
		</g>
		<g>
			<path class="st3" d="M310,91c5.52,0,10,4.48,10,10v198c0,5.52-4.48,10-10,10H90c-5.52,0-10-4.48-10-10V101c0-5.52,4.48-10,10-10
				H310 M310,85H90c-8.82,0-16,7.18-16,16v198c0,8.82,7.18,16,16,16h220c8.82,0,16-7.18,16-16V101C326,92.18,318.82,85,310,85
				L310,85z"/>
		</g>
	</g>
	<g>
		<g>
			<path class="st4" d="M80,168c-1.66,0-3-1.34-3-3v-40c0-1.66,1.34-3,3-3h240c1.66,0,3,1.34,3,3v40c0,1.66-1.34,3-3,3H80z"/>
		</g>
		<g>
			<path class="st3" d="M320,125v40H80v-40H320 M320,119H80c-3.31,0-6,2.69-6,6v40c0,3.31,2.69,6,6,6h240c3.31,0,6-2.69,6-6v-40
				C326,121.69,323.31,119,320,119L320,119z"/>
		</g>
	</g>
	<g>
		<g>
			<path class="st5" d="M80,122c-1.66,0-3-1.34-3-3v-18c0-7.17,5.83-13,13-13h220c7.17,0,13,5.83,13,13v18c0,1.66-1.34,3-3,3H80z"/>
		</g>
		<g>
			<path class="st3" d="M310,91c5.52,0,10,4.48,10,10v18H80v-18c0-5.52,4.48-10,10-10H310 M310,85H90c-8.82,0-16,7.18-16,16v18
				c0,3.31,2.69,6,6,6h240c3.31,0,6-2.69,6-6v-18C326,92.18,318.82,85,310,85L310,85z"/>
		</g>
	</g>
	<g>
		<g>
			<path class="st2" d="M170,112c-3.86,0-7-3.14-7-7s3.14-7,7-7h114c3.86,0,7,3.14,7,7s-3.14,7-7,7H170z"/>
		</g>
		<g>
			<g>
				<path class="st3" d="M284,101c2.21,0,4,1.79,4,4s-1.79,4-4,4H170c-2.21,0-4-1.79-4-4s1.79-4,4-4H284 M284,95H170
					c-5.51,0-10,4.49-10,10s4.49,10,10,10h114c5.51,0,10-4.49,10-10S289.51,95,284,95L284,95z"/>
			</g>
		</g>
	</g>
	<g>
		<g>
			<circle class="st6" cx="96" cy="105" r="7"/>
		</g>
		<g>
			<g>
				<path class="st3" d="M96,101c2.21,0,4,1.79,4,4s-1.79,4-4,4s-4-1.79-4-4S93.79,101,96,101 M96,95c-5.51,0-10,4.49-10,10
					s4.49,10,10,10s10-4.49,10-10S101.51,95,96,95L96,95z"/>
			</g>
		</g>
	</g>
	<g>
		<g>
			<circle class="st7" cx="120" cy="105" r="7"/>
		</g>
		<g>
			<g>
				<path class="st3" d="M120,101c2.21,0,4,1.79,4,4s-1.79,4-4,4s-4-1.79-4-4S117.79,101,120,101 M120,95c-5.51,0-10,4.49-10,10
					s4.49,10,10,10s10-4.49,10-10S125.51,95,120,95L120,95z"/>
			</g>
		</g>
	</g>
	<g>
		<g>
			<circle class="st8" cx="144" cy="105" r="7"/>
		</g>
		<g>
			<g>
				<path class="st3" d="M144,101c2.21,0,4,1.79,4,4s-1.79,4-4,4s-4-1.79-4-4S141.79,101,144,101 M144,95c-5.51,0-10,4.49-10,10
					s4.49,10,10,10s10-4.49,10-10S149.51,95,144,95L144,95z"/>
			</g>
		</g>
	</g>
	<g>
		<path class="st3" d="M120,185h-20c-1.1,0-2-0.9-2-2v0c0-1.1,0.9-2,2-2h20c1.1,0,2,0.9,2,2v0C122,184.1,121.1,185,120,185z"/>
	</g>
	<g>
		<path class="st3" d="M176,201h-76c-1.1,0-2-0.9-2-2v0c0-1.1,0.9-2,2-2h76c1.1,0,2,0.9,2,2v0C178,200.1,177.1,201,176,201z"/>
	</g>
	<g>
		<path class="st3" d="M156,209l-56,0c-1.1,0-2-0.9-2-2v0c0-1.1,0.9-2,2-2h56c1.1,0,2,0.9,2,2v0C158,208.1,157.1,209,156,209z"/>
	</g>
	<g>
		<path class="st9" d="M136,193h-36c-1.1,0-2-0.9-2-2v0c0-1.1,0.9-2,2-2h36c1.1,0,2,0.9,2,2v0C138,192.1,137.1,193,136,193z"/>
	</g>
	<g>
		<path class="st3" d="M128,275h-28c-1.1,0-2-0.9-2-2l0,0c0-1.1,0.9-2,2-2h28c1.1,0,2,0.9,2,2l0,0C130,274.1,129.1,275,128,275z"/>
	</g>
	<g>
		<path class="st3" d="M168,291h-68c-1.1,0-2-0.9-2-2l0,0c0-1.1,0.9-2,2-2h68c1.1,0,2,0.9,2,2l0,0C170,290.1,169.1,291,168,291z"/>
	</g>
	<g>
		<path class="st3" d="M156,299h-56c-1.1,0-2-0.9-2-2l0,0c0-1.1,0.9-2,2-2h56c1.1,0,2,0.9,2,2l0,0C158,298.1,157.1,299,156,299z"/>
	</g>
	<g>
		<path class="st9" d="M144,283h-44c-1.1,0-2-0.9-2-2l0,0c0-1.1,0.9-2,2-2h44c1.1,0,2,0.9,2,2l0,0C146,282.1,145.1,283,144,283z"/>
	</g>
	<g>
		<g id="svg_7_2_">
			<path class="st9" d="M108,141.48h-8.54v2.53h6.06c-0.3,3.55-3.26,5.07-6.05,5.07c-3.57,0-6.69-2.81-6.69-6.75
				c0-3.84,2.97-6.79,6.69-6.79c2.87,0,4.57,1.83,4.57,1.83l1.77-1.84c0,0-2.28-2.54-6.43-2.54c-5.29,0-9.38,4.46-9.38,9.29
				c0,4.73,3.85,9.33,9.52,9.33c4.98,0,8.63-3.41,8.63-8.46C108.15,142.09,108,141.48,108,141.48L108,141.48z"/>
		</g>
		<g id="svg_6_2_">
			<path class="st10" d="M121,145.65c0,3.46-2.69,5.96-5.96,5.96c-3.62,0-6.06-2.79-6.06-6.03c0-3.2,2.51-5.94,6.02-5.94
				C117.87,139.64,121,141.68,121,145.65z M115.03,141.99c-1.94,0-3.42,1.55-3.42,3.62c0,2.12,1.51,3.65,3.42,3.65
				c1.74,0,3.36-1.43,3.36-3.63C118.38,143.38,116.75,141.99,115.03,141.99L115.03,141.99z"/>
		</g>
		<g id="svg_5_2_">
			<path class="st11" d="M134.08,145.65c0,3.46-2.69,5.96-5.96,5.96c-3.62,0-6.06-2.79-6.06-6.03c0-3.2,2.51-5.94,6.02-5.94
				C130.96,139.64,134.08,141.68,134.08,145.65z M128.11,141.99c-1.94,0-3.42,1.55-3.42,3.62c0,2.12,1.51,3.65,3.42,3.65
				c1.74,0,3.36-1.43,3.36-3.63C131.47,143.38,129.84,141.99,128.11,141.99L128.11,141.99z"/>
		</g>
		<g id="svg_4_2_">
			<path class="st9" d="M140.91,139.65c1.4,0,2.46,0.54,3.23,1.37v-1.01h2.51v10.75c0,4.23-2.44,6.24-5.64,6.24
				c-2.92,0-4.57-1.8-5.38-3.52l2.3-0.96c0.32,0.77,1.24,2.13,3.06,2.13c1.89,0,3.15-1.24,3.15-3.3v-1.18
				c-0.67,0.78-1.58,1.45-3.28,1.45c-2.76,0-5.69-2.39-5.69-5.99C135.17,142.46,137.69,139.65,140.91,139.65L140.91,139.65z
				 M141.14,141.99c-1.69,0-3.35,1.37-3.35,3.67c0,2.21,1.6,3.6,3.31,3.6c1.62,0,3.23-1.29,3.23-3.63
				C144.34,143.34,142.72,141.99,141.14,141.99L141.14,141.99z"/>
		</g>
		<g id="svg_3_2_">
			<path class="st10" d="M157.8,139.63c2.39,0,4.2,1.6,4.98,3.51l0.42,0.98l-8.02,3.33c0.48,0.89,1.25,1.81,2.94,1.81
				c1.5,0,2.4-0.81,2.93-1.65l2.07,1.38c-0.93,1.24-2.48,2.63-5.01,2.63c-3.03,0-5.87-2.24-5.87-6.01
				C152.22,142.05,154.77,139.63,157.8,139.63L157.8,139.63z M154.76,145.45l5.36-2.24c-0.33-0.7-1.12-1.28-2.21-1.28
				C156.18,141.93,154.53,143.72,154.76,145.45z"/>
		</g>
		<g id="svg_2_2_">
			<path class="st12" d="M148.4,151.26h2.64v-17.64h-2.64V151.26z"/>
		</g>
	</g>
	<g>
		<rect x="118" y="220" class="st13" width="104" height="40"/>
	</g>
	<g>
		<path class="st3" d="M140,230h-14c-1.1,0-2-0.9-2-2v0c0-1.1,0.9-2,2-2h14c1.1,0,2,0.9,2,2v0C142,229.1,141.1,230,140,230z"/>
	</g>
	<g>
		<path class="st3" d="M186,246h-60c-1.1,0-2-0.9-2-2v0c0-1.1,0.9-2,2-2h60c1.1,0,2,0.9,2,2v0C188,245.1,187.1,246,186,246z"/>
	</g>
	<g>
		<path class="st3" d="M170,254h-44c-1.1,0-2-0.9-2-2v0c0-1.1,0.9-2,2-2h44c1.1,0,2,0.9,2,2v0C172,253.1,171.1,254,170,254z"/>
	</g>
	<g>
		<path class="st9" d="M166,238h-40c-1.1,0-2-0.9-2-2v0c0-1.1,0.9-2,2-2h40c1.1,0,2,0.9,2,2v0C168,237.1,167.1,238,166,238z"/>
	</g>
	<g>
		<g>
			<g>
				<path class="st14" d="M305.16,211.08c-1.42,0-2.84-0.59-3.87-1.63c-1.56-1.56-2.69-6.07-3.1-7.94
					c-0.15-0.67,0.06-1.36,0.54-1.85c0.38-0.38,0.89-0.59,1.41-0.59c0.14,0,0.29,0.02,0.43,0.05c1.87,0.41,6.38,1.54,7.94,3.1
					c0.99,0.99,1.57,2.29,1.62,3.66c0.06,1.43-0.45,2.76-1.44,3.74C307.76,210.56,306.5,211.08,305.16,211.08L305.16,211.08z"/>
			</g>
			<g>
				<path class="st3" d="M300.14,201.08c0,0,5.64,1.25,6.96,2.56c1.31,1.31,1.4,3.36,0.18,4.58c-0.57,0.57-1.34,0.86-2.12,0.86
					c-0.87,0-1.76-0.35-2.46-1.04C301.38,206.72,300.14,201.08,300.14,201.08 M300.14,197.08c-1.05,0-2.07,0.41-2.83,1.17
					c-0.97,0.97-1.37,2.36-1.08,3.69c0.68,3.09,1.87,7.15,3.64,8.92c1.41,1.41,3.33,2.21,5.29,2.21c1.88,0,3.64-0.72,4.95-2.03
					c1.37-1.37,2.1-3.28,2.02-5.24c-0.07-1.87-0.86-3.65-2.21-5c-1.77-1.77-5.83-2.96-8.92-3.64
					C300.71,197.11,300.42,197.08,300.14,197.08L300.14,197.08z"/>
			</g>
		</g>
		<g>
			<g>
				<g>
					<path class="st14" d="M247.12,211.08c-1.35,0-2.6-0.51-3.54-1.45c-1.99-1.99-1.91-5.31,0.18-7.41c1.56-1.56,6.07-2.69,7.94-3.1
						c0.14-0.03,0.29-0.05,0.43-0.05c0.52,0,1.04,0.21,1.41,0.59c0.48,0.48,0.69,1.18,0.54,1.85c-0.41,1.87-1.54,6.38-3.1,7.94
						C249.95,210.48,248.54,211.08,247.12,211.08z"/>
				</g>
				<g>
					<path class="st3" d="M252.14,201.08c0,0-1.25,5.64-2.56,6.96c-0.69,0.69-1.59,1.04-2.46,1.04c-0.78,0-1.55-0.28-2.12-0.86
						c-1.21-1.21-1.13-3.26,0.18-4.58S252.14,201.08,252.14,201.08 M252.14,197.08c-0.29,0-0.58,0.03-0.86,0.09
						c-3.09,0.68-7.15,1.87-8.92,3.64c-1.35,1.35-2.13,3.12-2.21,5c-0.08,1.96,0.66,3.87,2.02,5.24c1.31,1.31,3.07,2.03,4.95,2.03
						c1.95,0,3.88-0.81,5.29-2.21c1.77-1.77,2.96-5.83,3.64-8.92c0.3-1.33-0.11-2.73-1.08-3.69
						C254.21,197.49,253.18,197.08,252.14,197.08L252.14,197.08z M252.14,205.08L252.14,205.08L252.14,205.08L252.14,205.08z"/>
				</g>
			</g>
		</g>
		<g>
			<g>
				<g>
					<path class="st3" d="M294.13,198.3c-1.38,0-2.5-1.12-2.5-2.5c0-1.38-1.12-2.5-2.5-2.5s-2.5,1.12-2.5,2.5
						c0,1.38-1.12,2.5-2.5,2.5s-2.5-1.12-2.5-2.5c0-4.14,3.36-7.5,7.5-7.5s7.5,3.36,7.5,7.5
						C296.63,197.18,295.52,198.3,294.13,198.3z"/>
				</g>
			</g>
			<g>
				<path class="st3" d="M285.96,180.03c0.73-0.37,1.3-0.57,1.98-0.74c0.66-0.16,1.33-0.26,2.03-0.29c1.38-0.05,2.83,0.17,4.22,0.73
					c1.39,0.53,2.7,1.48,3.64,2.67c0.99,1.16,1.52,2.58,1.7,3.96c0.15,1.12-0.63,2.15-1.75,2.3c-0.57,0.08-1.11-0.09-1.53-0.41
					l-0.39-0.3c-0.81-0.63-1.37-1.22-2.03-1.61c-0.62-0.42-1.21-0.77-1.92-1.06c-0.69-0.29-1.47-0.54-2.33-0.75
					c-0.43-0.1-0.88-0.22-1.34-0.3c-0.44-0.11-0.99-0.17-1.36-0.31l-0.73-0.28c-1.02-0.39-1.54-1.53-1.15-2.55
					C285.18,180.62,285.54,180.25,285.96,180.03z"/>
			</g>
			<g>
				<g>
					<path class="st3" d="M268.13,198.3c-1.38,0-2.5-1.12-2.5-2.5c0-1.38-1.12-2.5-2.5-2.5s-2.5,1.12-2.5,2.5
						c0,1.38-1.12,2.5-2.5,2.5s-2.5-1.12-2.5-2.5c0-4.14,3.36-7.5,7.5-7.5s7.5,3.36,7.5,7.5
						C270.63,197.18,269.52,198.3,268.13,198.3z"/>
				</g>
			</g>
			<g>
				<path class="st3" d="M265.38,183.92c-0.37,0.14-0.92,0.2-1.36,0.31c-0.46,0.08-0.91,0.19-1.34,0.3
					c-0.86,0.21-1.63,0.46-2.33,0.75c-0.7,0.28-1.29,0.64-1.92,1.06c-0.66,0.39-1.22,0.98-2.03,1.61l-0.38,0.3
					c-0.89,0.69-2.18,0.53-2.87-0.36c-0.35-0.45-0.48-1.01-0.41-1.53c0.19-1.37,0.71-2.79,1.7-3.96c0.94-1.18,2.25-2.13,3.64-2.67
					c1.39-0.56,2.84-0.78,4.22-0.73c0.69,0.03,1.37,0.13,2.03,0.29c0.68,0.17,1.25,0.37,1.98,0.74c0.97,0.49,1.37,1.68,0.87,2.65
					c-0.23,0.46-0.62,0.79-1.06,0.96L265.38,183.92z"/>
			</g>
		</g>
		<g>
			<g>
				<g>
					<path class="st3" d="M264.14,217c-1.1,0-2-0.9-2-2c0-7.72,6.28-14,14-14s14,6.28,14,14c0,1.1-0.9,2-2,2H264.14z"/>
				</g>
				<g>
					<path class="st3" d="M276.14,203c6.63,0,12,5.37,12,12h-24C264.14,208.37,269.51,203,276.14,203 M276.14,199
						c-8.82,0-16,7.18-16,16c0,2.21,1.79,4,4,4h24c2.21,0,4-1.79,4-4C292.14,206.18,284.96,199,276.14,199L276.14,199z"/>
				</g>
			</g>
			<g>
				<path class="st6" d="M276.14,210c-3.58,0-6.78,1.94-9,5h18C282.92,211.94,279.71,210,276.14,210z"/>
			</g>
		</g>
	</g>
	<g>
		<path class="st3" d="M122,264h-6c-1.1,0-2-0.9-2-2v-44c0-1.1,0.9-2,2-2h6c1.1,0,2,0.9,2,2s-0.9,2-2,2h-4v40h4c1.1,0,2,0.9,2,2
			S123.1,264,122,264z"/>
	</g>
	<g>
		<path class="st3" d="M224,264h-6c-1.1,0-2-0.9-2-2s0.9-2,2-2h4v-40h-4c-1.1,0-2-0.9-2-2s0.9-2,2-2h6c1.1,0,2,0.9,2,2v44
			C226,263.1,225.1,264,224,264z"/>
	</g>
	<g>
		<g>
			<path class="st15" d="M205,254c-0.57,0-1.11-0.24-1.49-0.66l-9-10c-0.53-0.59-0.66-1.43-0.34-2.15S195.21,240,196,240h3v-10
				c0-1.1,0.9-2,2-2h8c1.1,0,2,0.9,2,2v10h3c0.79,0,1.51,0.46,1.83,1.19s0.19,1.56-0.34,2.15l-9,10
				C206.11,253.76,205.57,254,205,254z"/>
		</g>
		<g>
			<path class="st3" d="M209,230v12h5l-9,10l-9-10h5v-12H209 M214,242L214,242 M209,226h-8c-2.21,0-4,1.79-4,4v8h-1
				c-1.58,0-3.01,0.93-3.65,2.37c-0.64,1.44-0.38,3.13,0.68,4.3l9,10c0.76,0.84,1.84,1.32,2.97,1.32s2.21-0.48,2.97-1.32l8.94-9.93
				c0.67-0.72,1.09-1.68,1.09-2.74c0-2.21-1.79-4-4-4H214h-1v-8C213,227.79,211.21,226,209,226L209,226z"/>
		</g>
	</g>
</g>
<g>
	<path class="st16" d="M284.4,46.4c-2.65,0-4.8-2.15-4.8-4.8c0-0.88-0.72-1.6-1.6-1.6c-0.88,0-1.6,0.72-1.6,1.6
		c0,2.65-2.15,4.8-4.8,4.8c-0.88,0-1.6,0.72-1.6,1.6s0.72,1.6,1.6,1.6c2.65,0,4.8,2.15,4.8,4.8c0,0.88,0.72,1.6,1.6,1.6
		c0.88,0,1.6-0.72,1.6-1.6c0-2.65,2.15-4.8,4.8-4.8c0.88,0,1.6-0.72,1.6-1.6S285.28,46.4,284.4,46.4z"/>
</g>
<g>
	<circle class="st16" cx="309" cy="70" r="3"/>
</g>
<g>
	<circle class="st16" cx="360" cy="141" r="5"/>
</g>
<path class="st16" d="M371,83h-7v-7c0-1.66-1.34-3-3-3s-3,1.34-3,3v7h-7c-1.66,0-3,1.34-3,3s1.34,3,3,3h7v7c0,1.66,1.34,3,3,3
	s3-1.34,3-3v-7h7c1.66,0,3-1.34,3-3S372.66,83,371,83z"/>
<g>
	<path class="st16" d="M68.2,319.2c-2.98,0-5.4-2.42-5.4-5.4c0-0.99-0.81-1.8-1.8-1.8c-0.99,0-1.8,0.81-1.8,1.8
		c0,2.98-2.42,5.4-5.4,5.4c-0.99,0-1.8,0.81-1.8,1.8s0.81,1.8,1.8,1.8c2.98,0,5.4,2.42,5.4,5.4c0,0.99,0.81,1.8,1.8,1.8
		c0.99,0,1.8-0.81,1.8-1.8c0-2.98,2.42-5.4,5.4-5.4c0.99,0,1.8-0.81,1.8-1.8S69.19,319.2,68.2,319.2z"/>
</g>
<g>
	<circle class="st16" cx="58" cy="265" r="3"/>
</g>
<g>
	<circle class="st16" cx="36" cy="298" r="3"/>
</g>
<g>
	<circle class="st16" cx="119.5" cy="332.5" r="2.5"/>
</g>
<g>
	<circle class="st16" cx="84.5" cy="350.5" r="4.5"/>
</g>
<g>
	<circle class="st16" cx="30.5" cy="244.5" r="2.5"/>
</g>
<g>
	<circle class="st11" cx="88" cy="42" r="3"/>
</g>
<g>
	<circle class="st11" cx="59.5" cy="119.5" r="2.5"/>
</g>
<g>
	<circle class="st11" cx="100.5" cy="70.5" r="2.5"/>
</g>
<g>
	<path class="st16" d="M64.4,66.4c-2.65,0-4.8-2.15-4.8-4.8c0-0.88-0.72-1.6-1.6-1.6c-0.88,0-1.6,0.72-1.6,1.6
		c0,2.65-2.15,4.8-4.8,4.8c-0.88,0-1.6,0.72-1.6,1.6s0.72,1.6,1.6,1.6c2.65,0,4.8,2.15,4.8,4.8c0,0.88,0.72,1.6,1.6,1.6
		c0.88,0,1.6-0.72,1.6-1.6c0-2.65,2.15-4.8,4.8-4.8c0.88,0,1.6-0.72,1.6-1.6S65.28,66.4,64.4,66.4z"/>
</g>
<g>
	<path class="st16" d="M348.2,319.2c-2.98,0-5.4-2.42-5.4-5.4c0-0.99-0.81-1.8-1.8-1.8c-0.99,0-1.8,0.81-1.8,1.8
		c0,2.98-2.42,5.4-5.4,5.4c-0.99,0-1.8,0.81-1.8,1.8s0.81,1.8,1.8,1.8c2.98,0,5.4,2.42,5.4,5.4c0,0.99,0.81,1.8,1.8,1.8
		c0.99,0,1.8-0.81,1.8-1.8c0-2.98,2.42-5.4,5.4-5.4c0.99,0,1.8-0.81,1.8-1.8S349.19,319.2,348.2,319.2z"/>
</g>
<g>
	<circle class="st16" cx="309" cy="353" r="3"/>
</g>
<g>
	<circle class="st16" cx="382.5" cy="292.5" r="2.5"/>
</g>
</svg>
