<?xml version="1.0" encoding="utf-8"?>
<!-- Generator: Adobe Illustrator 26.2.1, SVG Export Plug-In . SVG Version: 6.00 Build 0)  -->
<svg version="1.1" id="PPC_x5F_Hub-PPC_x5F_Optimization"
	 xmlns="http://www.w3.org/2000/svg" xmlns:xlink="http://www.w3.org/1999/xlink" x="0px" y="0px" viewBox="0 0 400 400"
	 style="enable-background:new 0 0 400 400;" xml:space="preserve">
<style type="text/css">
	.st0{opacity:0.2;fill:none;}
	.st1{fill:#FFD886;}
	.st2{fill:#D2F4FD;}
	.st3{fill:#515979;}
	.st4{fill:#6ADAF7;}
	.st5{fill:#F5CBA2;}
	.st6{fill:#FAE5D0;}
	.st7{fill:#F0AF7D;}
	.st8{fill:#7DDF96;}
	.st9{fill:#3CB48C;}
	.st10{fill:#BAD2E1;}
	.st11{fill:#75A5C3;}
	.st12{fill:#BEEFCA;}
	.st13{fill:#00ACEE;}
	.st14{fill:#1877F2;}
	.st15{fill:#0072B1;}
	.st16{fill:#FFFFFF;}
	.st17{fill:#FBBD04;}
	.st18{fill:#438EDC;}
	.st19{fill:#34A952;}
	.st20{fill:#5F87A5;}
	.st21{fill:#507396;}
	.st22{fill:#D8EBFB;}
</style>
<rect class="st0" width="400" height="400"/>
<path class="st1" d="M101,72h-6v-6c0-1.66-1.34-3-3-3s-3,1.34-3,3v6h-6c-1.66,0-3,1.34-3,3s1.34,3,3,3h6v6c0,1.66,1.34,3,3,3
	s3-1.34,3-3v-6h6c1.66,0,3-1.34,3-3S102.66,72,101,72z"/>
<path class="st1" d="M381,235h-6v-6c0-1.66-1.34-3-3-3s-3,1.34-3,3v6h-6c-1.66,0-3,1.34-3,3s1.34,3,3,3h6v6c0,1.66,1.34,3,3,3
	s3-1.34,3-3v-6h6c1.66,0,3-1.34,3-3S382.66,235,381,235z"/>
<path class="st1" d="M358.8,32.2c2.98,0,5.4-2.42,5.4-5.4c0-0.99,0.81-1.8,1.8-1.8s1.8,0.81,1.8,1.8c0,2.98,2.42,5.4,5.4,5.4
	c0.99,0,1.8,0.81,1.8,1.8s-0.81,1.8-1.8,1.8c-2.98,0-5.4,2.42-5.4,5.4c0,0.99-0.81,1.8-1.8,1.8s-1.8-0.81-1.8-1.8
	c0-2.98-2.42-5.4-5.4-5.4c-0.99,0-1.8-0.81-1.8-1.8S357.81,32.2,358.8,32.2z"/>
<circle class="st1" cx="313.5" cy="52.5" r="2.5"/>
<circle class="st1" cx="26.5" cy="80.5" r="2.5"/>
<circle class="st1" cx="132.5" cy="29.5" r="4.5"/>
<circle class="st1" cx="312" cy="376" r="3"/>
<circle class="st1" cx="362.5" cy="381.5" r="4.5"/>
<path class="st1" d="M55.2,32.2c-2.98,0-5.4-2.42-5.4-5.4c0-0.99-0.81-1.8-1.8-1.8c-0.99,0-1.8,0.81-1.8,1.8
	c0,2.98-2.42,5.4-5.4,5.4c-0.99,0-1.8,0.81-1.8,1.8s0.81,1.8,1.8,1.8c2.98,0,5.4,2.42,5.4,5.4c0,0.99,0.81,1.8,1.8,1.8
	c0.99,0,1.8-0.81,1.8-1.8c0-2.98,2.42-5.4,5.4-5.4c0.99,0,1.8-0.81,1.8-1.8S56.19,32.2,55.2,32.2z"/>
<circle class="st1" cx="328" cy="199" r="3"/>
<circle class="st1" cx="241.5" cy="319.5" r="4.5"/>
<path class="st1" d="M377.2,339.2c-2.98,0-5.4-2.42-5.4-5.4c0-0.99-0.81-1.8-1.8-1.8c-0.99,0-1.8,0.81-1.8,1.8
	c0,2.98-2.42,5.4-5.4,5.4c-0.99,0-1.8,0.81-1.8,1.8s0.81,1.8,1.8,1.8c2.98,0,5.4,2.42,5.4,5.4c0,0.99,0.81,1.8,1.8,1.8
	c0.99,0,1.8-0.81,1.8-1.8c0-2.98,2.42-5.4,5.4-5.4c0.99,0,1.8-0.81,1.8-1.8S378.19,339.2,377.2,339.2z"/>
<path class="st2" d="M93,340c-9.37,0-17-7.63-17-17v-83h34v83C110,332.37,102.37,340,93,340z"/>
<path class="st3" d="M107,243v80c0,7.73-6.27,14-14,14h0c-7.73,0-14-6.27-14-14v-80H107 M113,237h-6H79h-6v6v80
	c0,11.03,8.97,20,20,20s20-8.97,20-20v-80V237L113,237z"/>
<polygon class="st4" points="79,243 107,243 107,243 107,248 79,253 "/>
<path class="st2" d="M77,240c-3.86,0-7-3.14-7-7s3.14-7,7-7h32c3.86,0,7,3.14,7,7s-3.14,7-7,7H77z"/>
<path class="st3" d="M109,229c2.21,0,4,1.79,4,4s-1.79,4-4,4H77c-2.21,0-4-1.79-4-4s1.79-4,4-4H109 M109,223H77
	c-5.51,0-10,4.49-10,10s4.49,10,10,10h32c5.51,0,10-4.49,10-10S114.51,223,109,223L109,223z"/>
<rect x="79" y="289" class="st4" width="28" height="12"/>
<path class="st5" d="M85,259h16v64c0,4.42-3.58,8-8,8h0c-4.42,0-8-3.58-8-8V259z"/>
<circle class="st6" cx="91" cy="320" r="2"/>
<circle class="st6" cx="95.5" cy="309.5" r="1.5"/>
<rect x="85" y="289" class="st7" width="16" height="12"/>
<circle class="st5" cx="89.5" cy="214.5" r="3.5"/>
<circle class="st5" cx="98" cy="200" r="3"/>
<path class="st4" d="M109,237H77c-2.21,0-4-1.79-4-4l0,0h40l0,0C113,235.21,111.21,237,109,237z"/>
<path class="st2" d="M151,340c-9.37,0-17-7.63-17-17v-83h34v83C168,332.37,160.37,340,151,340z"/>
<path class="st3" d="M165,243v80c0,7.73-6.27,14-14,14h0c-7.73,0-14-6.27-14-14v-80H165 M171,237h-6h-28h-6v6v80
	c0,11.03,8.97,20,20,20c11.03,0,20-8.97,20-20v-80V237L171,237z"/>
<polygon class="st4" points="137,243 165,243 165,243 165,248 137,253 "/>
<path class="st2" d="M135,240c-3.86,0-7-3.14-7-7s3.14-7,7-7h32c3.86,0,7,3.14,7,7s-3.14,7-7,7H135z"/>
<path class="st3" d="M167,229c2.21,0,4,1.79,4,4s-1.79,4-4,4h-32c-2.21,0-4-1.79-4-4s1.79-4,4-4H167 M167,223h-32
	c-5.51,0-10,4.49-10,10s4.49,10,10,10h32c5.51,0,10-4.49,10-10S172.51,223,167,223L167,223z"/>
<rect x="137" y="289" class="st4" width="28" height="12"/>
<path class="st8" d="M143,259h16v64c0,4.42-3.58,8-8,8h0c-4.42,0-8-3.58-8-8V259z"/>
<rect x="143" y="289" class="st9" width="16" height="12"/>
<path class="st4" d="M167,237h-32c-2.21,0-4-1.79-4-4l0,0h40l0,0C171,235.21,169.21,237,167,237z"/>
<path class="st10" d="M34,286c-3.31,0-6-2.69-6-6s2.69-6,6-6h176c3.31,0,6,2.69,6,6s-2.69,6-6,6H34z"/>
<path class="st3" d="M210,277c1.66,0,3,1.34,3,3v0c0,1.66-1.34,3-3,3l-176,0c-1.66,0-3-1.34-3-3v0c0-1.66,1.34-3,3-3H210 M210,271
	H34c-4.96,0-9,4.04-9,9c0,4.96,4.04,9,9,9l176,0c4.96,0,9-4.04,9-9S214.96,271,210,271L210,271z"/>
<path class="st11" d="M49,346c-1.66,0-3-1.34-3-3v-76.95c0-1.66,1.34-3,3-3h6c1.66,0,3,1.34,3,3V343c0,1.66-1.34,3-3,3H49z"/>
<path class="st3" d="M55,266.05V343h-6v-76.95H55 M55,260.05h-6c-3.31,0-6,2.69-6,6V343c0,3.31,2.69,6,6,6h6c3.31,0,6-2.69,6-6
	v-76.95C61,262.74,58.31,260.05,55,260.05L55,260.05z"/>
<path class="st11" d="M37,358c-1.66,0-3-1.34-3-3c0-4.96,4.04-9,9-9h18c4.96,0,9,4.04,9,9c0,1.66-1.34,3-3,3H37z"/>
<path class="st3" d="M61,349c3.31,0,6,2.69,6,6H37c0-3.31,2.69-6,6-6H61 M61,343H43c-6.62,0-12,5.38-12,12c0,3.31,2.69,6,6,6h30
	c3.31,0,6-2.69,6-6C73,348.38,67.62,343,61,343L61,343z"/>
<circle class="st8" cx="154" cy="210" r="3"/>
<circle class="st8" cx="146.5" cy="199.5" r="2.5"/>
<path class="st11" d="M189,346c-1.66,0-3-1.34-3-3v-78c0-1.66,1.34-3,3-3h6c1.66,0,3,1.34,3,3v78c0,1.66-1.34,3-3,3H189z"/>
<path class="st3" d="M195,265v78h-6v-78H195 M195,259h-6c-3.31,0-6,2.69-6,6v78c0,3.31,2.69,6,6,6h6c3.31,0,6-2.69,6-6v-78
	C201,261.69,198.31,259,195,259L195,259z"/>
<path class="st11" d="M177,358c-1.66,0-3-1.34-3-3c0-4.96,4.04-9,9-9h18c4.96,0,9,4.04,9,9c0,1.66-1.34,3-3,3H177z"/>
<path class="st3" d="M201,349c3.31,0,6,2.69,6,6h-30c0-3.31,2.69-6,6-6H201 M201,343h-18c-6.62,0-12,5.38-12,12c0,3.31,2.69,6,6,6
	h30c3.31,0,6-2.69,6-6C213,348.38,207.62,343,201,343L201,343z"/>
<circle class="st12" cx="153" cy="314" r="2"/>
<circle class="st12" cx="150.5" cy="323.5" r="1.5"/>
<circle class="st12" cx="149.5" cy="306.5" r="1.5"/>
<path class="st13" d="M50.98,185.58c33.96,0,52.54-28.14,52.54-52.54c0-0.8,0-1.59-0.05-2.39c3.61-2.61,6.73-5.85,9.21-9.56
	c-3.37,1.49-6.95,2.47-10.61,2.91c3.85-2.31,6.74-5.94,8.12-10.21c-3.62,2.15-7.59,3.67-11.73,4.48c-6.99-7.44-18.69-7.79-26.13-0.8
	c-4.8,4.51-6.83,11.23-5.34,17.64c-14.85-0.74-28.68-7.76-38.06-19.29c-4.9,8.44-2.4,19.23,5.72,24.65
	c-2.94-0.09-5.81-0.88-8.38-2.31c0,0.08,0,0.15,0,0.23c0,8.79,6.2,16.36,14.81,18.1c-2.72,0.74-5.57,0.85-8.34,0.32
	c2.42,7.52,9.35,12.67,17.25,12.82c-6.54,5.14-14.62,7.93-22.93,7.92c-1.47,0-2.94-0.09-4.4-0.27c8.44,5.42,18.27,8.29,28.3,8.28"/>
<path class="st14" d="M196.68,24.86c-24.85,0-45,20.15-45,45c0,22.46,16.46,41.08,37.97,44.45V82.87h-11.43V69.86h11.43v-9.91
	c0-11.28,6.72-17.51,17-17.51c4.92,0,10.07,0.88,10.07,0.88v11.07h-5.67c-5.59,0-7.33,3.47-7.33,7.03v8.44h12.48l-2,13.01h-10.49
	v31.45c21.51-3.38,37.97-21.99,37.97-44.45C241.68,45.01,221.53,24.86,196.68,24.86z"/>
<path class="st15" d="M338.82,273.53H274.9c-3.06,0-5.54,2.42-5.54,5.41v64.66c0,2.98,2.48,5.4,5.54,5.4h63.91
	c3.06,0,5.54-2.42,5.54-5.41v-64.66C344.36,275.95,341.88,273.53,338.82,273.53z"/>
<polygon class="st16" points="280.77,336.71 280.77,302.63 292.1,302.63 292.1,336.71 292.1,336.71 "/>
<path class="st16" d="M286.43,297.98h-0.07c-3.8,0-6.26-2.62-6.26-5.89c0-3.34,2.53-5.89,6.41-5.89c3.87,0,6.26,2.54,6.33,5.89
	C292.84,295.36,290.38,297.98,286.43,297.98z"/>
<path class="st16" d="M332.94,336.71h-11.33v-18.23c0-4.58-1.64-7.71-5.74-7.71c-3.13,0-4.99,2.11-5.81,4.14
	c-0.3,0.73-0.37,1.75-0.37,2.76v19.03h-11.33l0,0c0,0,0.15-30.88,0-34.08h11.33v4.83c1.51-2.32,4.2-5.63,10.21-5.63
	c7.45,0,13.04,4.87,13.04,15.34V336.71z"/>
<path class="st17" d="M293.23,157.07L293.23,157.07c-7.19-4.15-9.67-13.42-5.52-20.61l29.83-51.68c4.15-7.19,13.42-9.67,20.61-5.52
	l0,0c7.19,4.15,9.67,13.42,5.52,20.61l-29.83,51.68C309.69,158.73,300.41,161.22,293.23,157.07z"/>
<path class="st18" d="M368.15,156.84L368.15,156.84c-7.19,4.15-16.46,1.66-20.61-5.52L317.7,99.64c-4.15-7.19-1.66-16.46,5.52-20.61
	l0,0c7.19-4.15,16.46-1.66,20.61,5.52l29.83,51.68C377.82,143.42,375.33,152.69,368.15,156.84z"/>
<circle class="st19" cx="300.98" cy="143.78" r="15.3"/>
<path class="st20" d="M298.5,247.25c-0.59,0-1.19-0.18-1.72-0.54l-131.06-91.77c-0.7-0.49-2.26-1.98-1.52-5.15
	c0.32-1.35,1.03-2.87,2.01-4.27c0.72-1.03,3.31-4.39,6.42-4.39c0.83,0,1.61,0.24,2.27,0.7l131.07,91.77
	c0.65,0.46,1.1,1.15,1.23,1.94c0.14,0.78-0.04,1.59-0.5,2.24l-5.74,8.19C300.38,246.8,299.45,247.25,298.5,247.25z"/>
<path class="st3" d="M172.63,144.12c0.21,0,0.4,0.05,0.55,0.16l131.06,91.77l-5.74,8.19l-131.06-91.77
	c-0.9-0.63-0.35-2.98,1.23-5.24C169.99,145.35,171.6,144.12,172.63,144.12 M172.63,138.12c-4.43,0-7.68,3.96-8.87,5.67
	c-1.21,1.73-2.07,3.56-2.47,5.3c-0.81,3.44,0.21,6.54,2.72,8.3l131.06,91.77c1.05,0.73,2.25,1.09,3.44,1.09
	c1.89,0,3.75-0.89,4.92-2.56l5.74-8.19c0.91-1.3,1.27-2.92,0.99-4.48c-0.28-1.57-1.16-2.96-2.47-3.87l-131.06-91.77
	C175.46,138.56,174.08,138.12,172.63,138.12L172.63,138.12z"/>
<rect x="235.56" y="111.81" transform="matrix(0.5736 -0.8192 0.8192 0.5736 -55.8168 276.3928)" class="st21" width="4" height="160"/>
<path class="st21" d="M299.06,247.41c-0.83,0-1.61-0.24-2.27-0.7c-2.45-1.72-2.25-5.5,0.49-9.42c0.72-1.03,3.31-4.39,6.42-4.39
	c0.83,0,1.61,0.24,2.27,0.7c2.45,1.72,2.25,5.5-0.49,9.42C304.75,244.05,302.16,247.41,299.06,247.41z"/>
<path class="st3" d="M303.69,235.9c0.21,0,0.4,0.05,0.55,0.16c0.9,0.63,0.35,2.98-1.23,5.24c-1.32,1.88-2.93,3.11-3.96,3.11
	c-0.21,0-0.4-0.05-0.55-0.16c-0.9-0.63-0.35-2.98,1.23-5.24C301.05,237.13,302.67,235.9,303.69,235.9 M303.7,229.9
	C303.69,229.9,303.69,229.9,303.7,229.9c-4.43,0-7.68,3.96-8.87,5.67c-4.36,6.22-3.02,11.32,0.24,13.6
	c1.16,0.81,2.54,1.24,3.99,1.24c4.43,0,7.68-3.96,8.87-5.67c4.36-6.22,3.02-11.32-0.24-13.6C306.52,230.33,305.14,229.9,303.7,229.9
	L303.7,229.9z"/>
<path class="st16" d="M168.67,147.23c-1.58,2.26-2.13,4.61-1.23,5.24l19.66,13.77c-0.9-0.63-0.35-2.98,1.23-5.24
	c1.58-2.26,3.6-3.58,4.51-2.95l-19.66-13.77C172.27,143.65,170.26,144.97,168.67,147.23z"/>
<path class="st22" d="M169.28,146.44l19.66,13.77c1.46-1.76,3.11-2.71,3.9-2.15l-19.66-13.77
	C172.39,143.73,170.74,144.67,169.28,146.44z"/>
</svg>
