<?xml version="1.0" encoding="utf-8"?>
<!-- Generator: Adobe Illustrator 26.0.2, SVG Export Plug-In . SVG Version: 6.00 Build 0)  -->
<svg version="1.1" id="Google_x5F_Hub-Ad_x5F_Extensions"
	 xmlns="http://www.w3.org/2000/svg" xmlns:xlink="http://www.w3.org/1999/xlink" x="0px" y="0px" viewBox="0 0 400 400"
	 style="enable-background:new 0 0 400 400;" xml:space="preserve">
<style type="text/css">
	.st0{fill:#EDF5FF;}
	.st1{fill:#515979;}
	.st2{fill:#FBB040;}
	.st3{fill:#9DC8FA;}
	.st4{fill:#FFE8A0;}
	.st5{fill:#D8EBFB;}
	.st6{fill:#F3F9FE;}
	.st7{fill:#747A94;}
	.st8{fill:#FFFFFF;}
	.st9{fill:#2196F3;}
	.st10{fill:#00C853;}
	.st11{fill:#EF7D7D;}
	.st12{fill:#FDE1D9;}
	.st13{fill:#7DDF96;}
	.st14{fill:#75A5C3;}
	.st15{fill:#508CB4;}
	.st16{fill:none;}
	.st17{fill:#FFD886;}
</style>
<g>
	<g>
		<g>
			<path class="st0" d="M31.21,227.08c-12.68,0-23-10.32-23-23c0-12.68,10.32-23,23-23h80c12.68,0,23,10.32,23,23
				c0,12.68-10.32,23-23,23H31.21z"/>
		</g>
		<g>
			<path class="st1" d="M111.21,184.08c11.05,0,20,8.95,20,20v0c0,11.05-8.95,20-20,20h-80c-11.05,0-20-8.95-20-20v0
				c0-11.05,8.95-20,20-20H111.21 M111.21,178.08h-80c-14.34,0-26,11.66-26,26c0,14.34,11.66,26,26,26h80c14.34,0,26-11.66,26-26
				C137.21,189.75,125.54,178.08,111.21,178.08L111.21,178.08z"/>
		</g>
	</g>
	<g>
		<g>
			<polygon class="st2" points="31.21,196.47 33.68,201.48 39.21,202.29 35.21,206.19 36.15,211.69 31.21,209.09 26.26,211.69 
				27.21,206.19 23.21,202.29 28.74,201.48 			"/>
		</g>
		<g>
			<polygon class="st2" points="51.21,196.47 53.68,201.48 59.21,202.29 55.21,206.19 56.15,211.69 51.21,209.09 46.26,211.69 
				47.21,206.19 43.21,202.29 48.74,201.48 			"/>
		</g>
		<g>
			<polygon class="st2" points="71.21,196.47 73.68,201.48 79.21,202.29 75.21,206.19 76.15,211.69 71.21,209.09 66.26,211.69 
				67.21,206.19 63.21,202.29 68.74,201.48 			"/>
		</g>
		<g>
			<polygon class="st2" points="91.21,196.47 93.68,201.48 99.21,202.29 95.21,206.19 96.15,211.69 91.21,209.09 86.26,211.69 
				87.21,206.19 83.21,202.29 88.74,201.48 			"/>
		</g>
		<g>
			<polygon class="st3" points="111.21,196.47 113.68,201.48 119.21,202.29 115.21,206.19 116.15,211.69 111.21,209.09 
				106.26,211.69 107.21,206.19 103.21,202.29 108.74,201.48 			"/>
		</g>
		<g>
			<polygon class="st2" points="111.21,196.47 111.21,209.09 106.26,211.69 107.21,206.19 103.21,202.29 108.74,201.48 			"/>
		</g>
	</g>
</g>
<g>
	<g>
		<g>
			<circle class="st4" cx="319.21" cy="168.58" r="73"/>
		</g>
		<g>
			<path class="st1" d="M319.21,98.58c38.66,0,70,31.34,70,70s-31.34,70-70,70s-70-31.34-70-70S280.55,98.58,319.21,98.58
				 M319.21,92.58c-41.91,0-76,34.09-76,76s34.09,76,76,76s76-34.09,76-76S361.11,92.58,319.21,92.58L319.21,92.58z"/>
		</g>
	</g>
	<g>
		<g>
			<g>
				<path class="st5" d="M298.21,216.58c-3.86,0-7-3.14-7-7v-82c0-3.86,3.14-7,7-7h42c3.86,0,7,3.14,7,7v82c0,3.86-3.14,7-7,7
					H298.21z"/>
			</g>
			<g>
				<g>
					<path class="st1" d="M340.21,123.58c2.21,0,4,1.79,4,4v82c0,2.21-1.79,4-4,4h-42c-2.21,0-4-1.79-4-4v-82c0-2.21,1.79-4,4-4
						H340.21 M340.21,117.58h-42c-5.51,0-10,4.49-10,10v82c0,5.51,4.49,10,10,10h42c5.51,0,10-4.49,10-10v-82
						C350.21,122.07,345.72,117.58,340.21,117.58L340.21,117.58z"/>
				</g>
			</g>
		</g>
		<g>
			<g>
				<polygon class="st6" points="307.21,213.58 299.21,213.58 323.21,123.58 331.21,123.58 				"/>
			</g>
			<g>
				<polygon class="st6" points="315.21,213.58 310.21,213.58 334.21,123.58 339.21,123.58 				"/>
			</g>
		</g>
		<g>
			<g>
				<path class="st1" d="M288.21,150.58c-1.66,0-3-1.34-3-3v-10c0-1.66,1.34-3,3-3s3,1.34,3,3v10
					C291.21,149.24,289.87,150.58,288.21,150.58z"/>
			</g>
			<g>
				<path class="st1" d="M288.21,170.58c-1.66,0-3-1.34-3-3v-10c0-1.66,1.34-3,3-3s3,1.34,3,3v10
					C291.21,169.24,289.87,170.58,288.21,170.58z"/>
			</g>
		</g>
		<g>
			<path class="st1" d="M350.21,160.58c-1.66,0-3-1.34-3-3v-10c0-1.66,1.34-3,3-3s3,1.34,3,3v10
				C353.21,159.24,351.87,160.58,350.21,160.58z"/>
		</g>
		<g>
			<path class="st1" d="M329.21,210.58h-20c-1.1,0-2-0.9-2-2s0.9-2,2-2h20c1.1,0,2,0.9,2,2S330.31,210.58,329.21,210.58z"/>
		</g>
		<g>
			<g>
				<g>
					<path class="st7" d="M310.9,135.58c-1.66,0-3.16-1.04-3.75-2.59l-4.28-11.41h32.66l-4.28,11.4c-0.58,1.55-2.09,2.6-3.74,2.6
						H310.9z"/>
				</g>
				<g>
					<g>
						<path class="st1" d="M331.21,124.58l-2.76,7.35c-0.15,0.39-0.52,0.65-0.94,0.65H310.9c-0.42,0-0.79-0.26-0.94-0.65l-2.76-7.35
							H331.21 M339.87,118.58h-8.66h-24h-8.66l3.04,8.11l2.76,7.35c1.02,2.72,3.65,4.54,6.55,4.54h16.61c2.9,0,5.54-1.83,6.55-4.54
							l2.76-7.35L339.87,118.58L339.87,118.58z"/>
					</g>
				</g>
			</g>
			<g>
				<path class="st1" d="M323.21,130.58h-8c-1.1,0-2-0.9-2-2s0.9-2,2-2h8c1.1,0,2,0.9,2,2S324.31,130.58,323.21,130.58z"/>
			</g>
		</g>
		<g>
			<g>
				<path class="st1" d="M319.46,184.65c-3.89,0-7.88-1.1-11.33-3.3c-0.93-0.59-1.21-1.83-0.61-2.76c0.59-0.93,1.83-1.2,2.76-0.61
					c5.51,3.51,12.97,3.53,17.75,0.04c0.89-0.65,2.14-0.46,2.79,0.43c0.65,0.89,0.46,2.14-0.44,2.79
					C327.29,183.51,323.42,184.65,319.46,184.65z"/>
			</g>
			<g>
				<g>
					<path class="st1" d="M331.71,174.38c-0.16,0-0.33-0.03-0.49-0.08c-1.6-0.55-4.42-0.55-6.02,0c-0.78,0.27-1.64-0.15-1.91-0.93
						c-0.27-0.78,0.15-1.64,0.93-1.91c2.24-0.77,5.74-0.77,7.98,0c0.78,0.27,1.2,1.12,0.93,1.91
						C332.91,173.99,332.33,174.38,331.71,174.38z"/>
				</g>
				<g>
					<g>
						<circle class="st1" cx="328.21" cy="166.18" r="6"/>
					</g>
					<g>
						<circle class="st8" cx="329.71" cy="166.18" r="1.5"/>
					</g>
				</g>
				<g>
					<path class="st1" d="M313.71,174.38c-0.16,0-0.33-0.03-0.49-0.08c-1.6-0.55-4.42-0.55-6.02,0c-0.79,0.27-1.64-0.15-1.91-0.93
						c-0.27-0.78,0.15-1.64,0.93-1.91c2.24-0.77,5.74-0.77,7.98,0c0.78,0.27,1.2,1.12,0.93,1.91
						C314.91,173.99,314.33,174.38,313.71,174.38z"/>
				</g>
				<g>
					<g>
						<circle class="st1" cx="310.21" cy="166.18" r="6"/>
					</g>
					<g>
						<circle class="st8" cx="311.71" cy="166.18" r="1.5"/>
					</g>
				</g>
				<g>
					<path class="st1" d="M323.42,153.81c2.59-1.89,6-2.29,8.96-1.07c1.6,0.63,4.2,2.71,2.31,4.39c-0.98,0.76-2.61,0.09-3.67,0.08
						c-1.14-0.13-2.92-0.2-4.1-0.22c-0.87-0.01-1.83,0.01-2.69-0.13C322.75,156.7,322.23,154.65,323.42,153.81L323.42,153.81z"/>
				</g>
				<g>
					<path class="st1" d="M313.76,156.9c-1.27,0.13-3.1,0.07-4.39,0.14c-1.55,0.06-2.86,0.31-4.45,0.44
						c-0.95,0.08-1.78-0.63-1.85-1.58c-0.04-0.45,0.1-0.87,0.36-1.2c2.02-2.59,5.81-3.15,8.8-2.26c0.99,0.29,1.85,0.67,2.77,1.37
						C316.38,154.94,315.47,156.93,313.76,156.9L313.76,156.9z"/>
				</g>
			</g>
		</g>
	</g>
</g>
<g>
	<g>
		<g>
			<path class="st8" d="M143.21,382.58c-3.31,0-6-2.69-6-6v-114c0-3.31,2.69-6,6-6h114c3.31,0,6,2.69,6,6v97
				c0,0.8-0.32,1.56-0.88,2.12l-20,20c-0.56,0.56-1.33,0.88-2.12,0.88H143.21z"/>
		</g>
		<g>
			<path class="st1" d="M257.21,259.58c1.66,0,3,1.34,3,3v97l-20,20h-97c-1.66,0-3-1.34-3-3v-114c0-1.66,1.34-3,3-3H257.21
				 M257.21,253.58h-114c-4.96,0-9,4.04-9,9v114c0,4.96,4.04,9,9,9h97c1.59,0,3.12-0.63,4.24-1.76l20-20
				c1.13-1.13,1.76-2.65,1.76-4.24v-97C266.21,257.62,262.17,253.58,257.21,253.58L257.21,253.58z"/>
		</g>
	</g>
	<g>
		<path class="st9" d="M226.71,324.58h-69c-1.38,0-2.5-1.12-2.5-2.5l0,0c0-1.38,1.12-2.5,2.5-2.5h69c1.38,0,2.5,1.12,2.5,2.5l0,0
			C229.21,323.46,228.09,324.58,226.71,324.58z"/>
	</g>
	<g>
		<path class="st1" d="M212.71,344.58h-55c-1.38,0-2.5-1.12-2.5-2.5l0,0c0-1.38,1.12-2.5,2.5-2.5h55c1.38,0,2.5,1.12,2.5,2.5l0,0
			C215.21,343.46,214.09,344.58,212.71,344.58z"/>
	</g>
	<g>
		<path class="st1" d="M222.71,354.58h-65c-1.38,0-2.5-1.12-2.5-2.5l0,0c0-1.38,1.12-2.5,2.5-2.5h65c1.38,0,2.5,1.12,2.5,2.5l0,0
			C225.21,353.46,224.09,354.58,222.71,354.58z"/>
	</g>
	<g>
		<path class="st1" d="M202.71,364.58h-45c-1.38,0-2.5-1.12-2.5-2.5l0,0c0-1.38,1.12-2.5,2.5-2.5h45c1.38,0,2.5,1.12,2.5,2.5l0,0
			C205.21,363.46,204.09,364.58,202.71,364.58z"/>
	</g>
	<g>
		<path class="st10" d="M226.71,334.58h-69c-1.38,0-2.5-1.12-2.5-2.5l0,0c0-1.38,1.12-2.5,2.5-2.5h69c1.38,0,2.5,1.12,2.5,2.5l0,0
			C229.21,333.46,228.09,334.58,226.71,334.58z"/>
	</g>
	<g>
		<g>
			<path class="st5" d="M240.21,382.58c-0.39,0-0.78-0.07-1.15-0.23c-1.12-0.46-1.85-1.56-1.85-2.77v-17c0-3.31,2.69-6,6-6h17
				c1.21,0,2.31,0.73,2.77,1.85c0.46,1.12,0.21,2.41-0.65,3.27l-20,20C241.76,382.28,240.99,382.58,240.21,382.58z"/>
		</g>
		<g>
			<g>
				<path class="st1" d="M260.21,359.58l-20,20v-17c0-1.66,1.34-3,3-3H260.21 M260.21,353.58h-17c-4.96,0-9,4.04-9,9v17
					c0,2.43,1.46,4.61,3.7,5.54c0.74,0.31,1.52,0.46,2.29,0.46c1.56,0,3.1-0.61,4.24-1.76l20-20c1.72-1.72,2.23-4.3,1.3-6.54
					C264.82,355.04,262.63,353.58,260.21,353.58L260.21,353.58z M260.21,365.58L260.21,365.58L260.21,365.58L260.21,365.58z"/>
			</g>
		</g>
	</g>
	<g>
		<g>
			<g>
				<g>
					<path class="st1" d="M215.73,289.17c-1.1,0-2-0.9-2-2c0-1.65-1.35-3-3-3s-3,1.35-3,3c0,1.1-0.9,2-2,2s-2-0.9-2-2
						c0-3.86,3.14-7,7-7s7,3.14,7,7C217.73,288.27,216.84,289.17,215.73,289.17z"/>
				</g>
			</g>
			<g>
				<path class="st1" d="M208.3,271.23c2.75-1.66,6.18-1.76,9.02-0.29c1.54,0.76,3.95,3.07,1.92,4.57
					c-1.04,0.67-2.61-0.13-3.66-0.24c-1.13-0.23-2.89-0.45-4.07-0.57c-0.87-0.08-1.82-0.15-2.67-0.37
					C207.38,274.06,207.04,271.96,208.3,271.23L208.3,271.23z"/>
			</g>
		</g>
		<g>
			<g>
				<g>
					<path class="st1" d="M194.68,289.17c-1.1,0-2-0.9-2-2c0-1.65-1.35-3-3-3s-3,1.35-3,3c0,1.1-0.9,2-2,2s-2-0.9-2-2
						c0-3.86,3.14-7,7-7s7,3.14,7,7C196.68,288.27,195.79,289.17,194.68,289.17z"/>
				</g>
			</g>
			<g>
				<path class="st1" d="M191.15,274.42c-1.25,0.24-3.08,0.34-4.36,0.52c-1.54,0.19-2.82,0.55-4.39,0.82
					c-0.94,0.16-1.83-0.47-1.98-1.41c-0.07-0.44,0.03-0.88,0.25-1.22c1.79-2.76,5.51-3.65,8.57-3.02c1.01,0.21,1.9,0.51,2.88,1.12
					C193.6,272.23,192.87,274.3,191.15,274.42L191.15,274.42z"/>
			</g>
		</g>
		<g>
			<path class="st1" d="M212.21,292.58L212.21,292.58h-24c-2.21,0-4,1.79-4,4c0,8.82,7.18,16,16,16c8.77,0,15.91-7.09,16-15.84
				c0-0.05,0-0.11,0-0.16C216.21,294.37,214.42,292.58,212.21,292.58z"/>
			<g>
				<g>
					<ellipse class="st11" cx="200.21" cy="304.58" rx="8.93" ry="4"/>
				</g>
			</g>
		</g>
	</g>
	<g>
		<g>
			<circle class="st12" cx="226.21" cy="298.58" r="2"/>
		</g>
		<g>
			<circle class="st12" cx="234.21" cy="298.58" r="2"/>
		</g>
		<g>
			<circle class="st12" cx="230.21" cy="290.58" r="2"/>
		</g>
	</g>
	<g>
		<g>
			<circle class="st12" cx="166.21" cy="298.58" r="2"/>
		</g>
		<g>
			<circle class="st12" cx="174.21" cy="298.58" r="2"/>
		</g>
		<g>
			<circle class="st12" cx="170.21" cy="290.58" r="2"/>
		</g>
	</g>
</g>
<g>
	<g>
		<g>
			<circle class="st13" cx="165.21" cy="86.69" r="73"/>
		</g>
		<g>
			<path class="st1" d="M165.21,16.69c38.66,0,70,31.34,70,70s-31.34,70-70,70s-70-31.34-70-70S126.55,16.69,165.21,16.69
				 M165.21,10.69c-41.91,0-76,34.09-76,76s34.09,76,76,76s76-34.09,76-76S207.11,10.69,165.21,10.69L165.21,10.69z"/>
		</g>
	</g>
	<g>
		<g>
			<g>
				<path class="st14" d="M158.84,105.21c-7.21,0-13.99-2.81-19.09-7.91c-10.53-10.53-10.53-27.66,0-38.18l22.63-22.63
					c5.1-5.1,11.88-7.91,19.09-7.91s13.99,2.81,19.09,7.91c10.53,10.53,10.53,27.66,0,38.18L177.94,97.3
					C172.84,102.4,166.06,105.21,158.84,105.21z M181.47,40.58c-4.01,0-7.77,1.56-10.61,4.39L148.24,67.6
					c-5.85,5.85-5.85,15.36,0,21.21c2.83,2.83,6.6,4.39,10.61,4.39s7.77-1.56,10.61-4.39l22.63-22.63c2.83-2.83,4.39-6.6,4.39-10.61
					c0-4.01-1.56-7.77-4.39-10.61C189.25,42.14,185.48,40.58,181.47,40.58z"/>
			</g>
			<g>
				<path class="st1" d="M181.47,31.58c6.14,0,12.28,2.34,16.97,7.03c9.37,9.37,9.37,24.57,0,33.94l-22.63,22.63
					c-4.69,4.69-10.83,7.03-16.97,7.03c-6.14,0-12.28-2.34-16.97-7.03c-9.37-9.37-9.37-24.57,0-33.94l22.63-22.63
					C169.19,33.93,175.33,31.58,181.47,31.58 M158.84,96.21c4.61,0,9.21-1.76,12.73-5.27l22.63-22.63c7.03-7.03,7.03-18.43,0-25.46
					c-3.51-3.51-8.12-5.27-12.73-5.27s-9.21,1.76-12.73,5.27l-22.63,22.63c-7.03,7.03-7.03,18.43,0,25.46
					C149.63,94.45,154.24,96.21,158.84,96.21 M181.47,25.58c-8.01,0-15.55,3.12-21.21,8.79L137.63,57c-11.7,11.7-11.7,30.73,0,42.43
					c5.67,5.67,13.2,8.79,21.21,8.79s15.55-3.12,21.21-8.79l22.63-22.63c5.67-5.67,8.79-13.2,8.79-21.21
					c0-8.01-3.12-15.55-8.79-21.21C197.02,28.7,189.48,25.58,181.47,25.58L181.47,25.58z M158.84,90.21c-3.21,0-6.22-1.25-8.49-3.51
					c-2.27-2.27-3.51-5.28-3.51-8.49c0-3.21,1.25-6.22,3.51-8.49l22.63-22.63c2.27-2.27,5.28-3.51,8.49-3.51
					c3.21,0,6.22,1.25,8.49,3.51c2.27,2.27,3.51,5.28,3.51,8.49c0,3.21-1.25,6.22-3.51,8.49l-22.63,22.63
					C165.06,88.96,162.05,90.21,158.84,90.21L158.84,90.21z"/>
			</g>
		</g>
		<g>
			<g>
				<path class="st14" d="M148.94,144.81c-7.21,0-13.99-2.81-19.09-7.91c-10.53-10.53-10.53-27.66,0-38.18l22.63-22.63
					c5.1-5.1,11.88-7.91,19.09-7.91s13.99,2.81,19.09,7.91c10.53,10.53,10.53,27.66,0,38.18l-22.63,22.63
					C162.94,142,156.16,144.81,148.94,144.81z M171.57,80.18c-4.01,0-7.77,1.56-10.61,4.39l-22.63,22.63
					c-5.85,5.85-5.85,15.37,0,21.21c2.83,2.83,6.6,4.39,10.61,4.39c4.01,0,7.77-1.56,10.61-4.39l22.63-22.63
					c5.85-5.85,5.85-15.36,0-21.21C179.35,81.74,175.58,80.18,171.57,80.18z"/>
			</g>
			<g>
				<path class="st1" d="M171.57,71.18c6.14,0,12.28,2.34,16.97,7.03c9.37,9.37,9.37,24.57,0,33.94l-22.63,22.63
					c-4.69,4.69-10.83,7.03-16.97,7.03c-6.14,0-12.28-2.34-16.97-7.03c-9.37-9.37-9.37-24.57,0-33.94l22.63-22.63
					C159.29,73.52,165.43,71.18,171.57,71.18 M148.94,135.81c4.61,0,9.21-1.76,12.73-5.27l22.63-22.63c7.03-7.03,7.03-18.43,0-25.46
					c-3.51-3.51-8.12-5.27-12.73-5.27s-9.21,1.76-12.73,5.27l-22.63,22.63c-7.03,7.03-7.03,18.43,0,25.46
					C139.73,134.05,144.34,135.81,148.94,135.81 M171.57,65.18c-8.01,0-15.55,3.12-21.21,8.79l-22.63,22.63
					c-5.67,5.67-8.79,13.2-8.79,21.21c0,8.01,3.12,15.55,8.79,21.21c5.67,5.67,13.2,8.79,21.21,8.79c8.01,0,15.55-3.12,21.21-8.79
					l22.63-22.63c5.67-5.67,8.79-13.2,8.79-21.21c0-8.01-3.12-15.55-8.79-21.21C187.12,68.3,179.59,65.18,171.57,65.18L171.57,65.18
					z M148.94,129.81c-3.21,0-6.22-1.25-8.49-3.51c-4.68-4.68-4.68-12.29,0-16.97l22.63-22.63c2.27-2.27,5.28-3.51,8.49-3.51
					c3.21,0,6.22,1.25,8.49,3.51c2.27,2.27,3.51,5.28,3.51,8.49c0,3.21-1.25,6.22-3.51,8.49l-22.63,22.63
					C155.16,128.56,152.15,129.81,148.94,129.81L148.94,129.81z"/>
			</g>
		</g>
		<g>
			
				<rect x="182.01" y="70.75" transform="matrix(0.7071 0.7071 -0.7071 0.7071 111.99 -106.8772)" class="st14" width="6" height="22"/>
		</g>
		<g>
			
				<rect x="178.25" y="82.99" transform="matrix(0.7071 -0.7071 0.7071 0.7071 -5.3726 159.0051)" class="st1" width="22" height="6"/>
		</g>
		<g>
			<g>
				<path class="st15" d="M187.75,103.05l7.82-7.82c0.01-3.21-0.63-6.41-1.9-9.41l-4.72,4.72
					C190.05,94.68,189.65,99.13,187.75,103.05z"/>
			</g>
		</g>
		<g>
			<path class="st15" d="M154.2,95.58l-4.72,4.72c3,1.27,6.21,1.91,9.41,1.9l7.82-7.82C162.8,96.29,158.34,96.69,154.2,95.58z"/>
		</g>
		<g>
			
				<rect x="169.76" y="74.5" transform="matrix(0.7071 -0.7071 0.7071 0.7071 -1.8579 150.5198)" class="st1" width="22" height="6"/>
		</g>
	</g>
</g>
<g>
	<path class="st1" d="M134.21,304.62h-5c-0.83,0-1.5-0.67-1.5-1.5s0.67-1.5,1.5-1.5h5c0.83,0,1.5,0.67,1.5,1.5
		S135.04,304.62,134.21,304.62z M120.21,304.62h-5c-0.83,0-1.5-0.67-1.5-1.5s0.67-1.5,1.5-1.5h5c0.83,0,1.5,0.67,1.5,1.5
		S121.04,304.62,120.21,304.62z M106.21,304.62h-5c-0.83,0-1.5-0.67-1.5-1.5s0.67-1.5,1.5-1.5h5c0.83,0,1.5,0.67,1.5,1.5
		S107.04,304.62,106.21,304.62z M92.21,304.62h-5c-0.83,0-1.5-0.67-1.5-1.5s0.67-1.5,1.5-1.5h5c0.83,0,1.5,0.67,1.5,1.5
		S93.04,304.62,92.21,304.62z M78.31,303.83c-0.19,0-0.39-0.04-0.58-0.12c-1.76-0.75-3.33-1.94-4.53-3.44
		c-0.52-0.65-0.41-1.59,0.24-2.11c0.65-0.52,1.59-0.41,2.11,0.24c0.89,1.11,2.04,2,3.35,2.55c0.76,0.32,1.12,1.2,0.8,1.97
		C79.46,303.49,78.9,303.83,78.31,303.83z M72.21,292.33c-0.83,0-1.5-0.67-1.5-1.5v-5c0-0.83,0.67-1.5,1.5-1.5s1.5,0.67,1.5,1.5v5
		C73.71,291.66,73.04,292.33,72.21,292.33z M72.21,278.33c-0.83,0-1.5-0.67-1.5-1.5v-5c0-0.83,0.67-1.5,1.5-1.5s1.5,0.67,1.5,1.5v5
		C73.71,277.66,73.04,278.33,72.21,278.33z M72.21,264.33c-0.83,0-1.5-0.67-1.5-1.5v-5c0-0.83,0.67-1.5,1.5-1.5s1.5,0.67,1.5,1.5v5
		C73.71,263.66,73.04,264.33,72.21,264.33z M72.21,250.33c-0.83,0-1.5-0.67-1.5-1.5v-5c0-0.83,0.67-1.5,1.5-1.5s1.5,0.67,1.5,1.5v5
		C73.71,249.66,73.04,250.33,72.21,250.33z M72.21,236.33c-0.83,0-1.5-0.67-1.5-1.5v-5c0-0.83,0.67-1.5,1.5-1.5s1.5,0.67,1.5,1.5v5
		C73.71,235.66,73.04,236.33,72.21,236.33z"/>
</g>
<g>
	<path class="st1" d="M200.21,254.65c-0.83,0-1.5-0.67-1.5-1.5v-5c0-0.83,0.67-1.5,1.5-1.5c0.83,0,1.5,0.67,1.5,1.5v5
		C201.71,253.98,201.04,254.65,200.21,254.65z M200.21,240.65c-0.83,0-1.5-0.67-1.5-1.5v-5c0-0.83,0.67-1.5,1.5-1.5
		c0.83,0,1.5,0.67,1.5,1.5v5C201.71,239.98,201.04,240.65,200.21,240.65z M200.2,226.65c-0.8,0-1.46-0.63-1.5-1.44
		c-0.06-1.42-0.48-2.81-1.21-4.02c-0.43-0.71-0.2-1.63,0.51-2.06c0.71-0.43,1.63-0.2,2.06,0.51c0.99,1.64,1.56,3.53,1.64,5.45
		c0.04,0.83-0.61,1.53-1.44,1.56C200.24,226.65,200.22,226.65,200.2,226.65z M191.49,217.16c-0.06,0-0.13,0-0.19-0.01
		c-0.36-0.05-0.73-0.07-1.09-0.07h-3.71c-0.83,0-1.5-0.67-1.5-1.5s0.67-1.5,1.5-1.5h3.71c0.49,0,0.99,0.03,1.47,0.09
		c0.82,0.11,1.4,0.86,1.3,1.68C192.88,216.61,192.24,217.16,191.49,217.16z M177.49,217.08h-2.29c-1.05,0-2.08-0.14-3.08-0.42
		c-0.8-0.22-1.27-1.05-1.04-1.85c0.22-0.8,1.05-1.27,1.85-1.04c0.74,0.2,1.51,0.31,2.28,0.31h2.28c0.83,0,1.5,0.67,1.5,1.5
		S178.32,217.08,177.49,217.08z M165.99,210.98c-0.58,0-1.14-0.34-1.38-0.92c-0.6-1.42-0.9-2.93-0.9-4.48v-1
		c0-0.83,0.67-1.5,1.5-1.5s1.5,0.67,1.5,1.5v1c0,1.15,0.22,2.26,0.67,3.31c0.32,0.76-0.03,1.64-0.8,1.97
		C166.39,210.94,166.19,210.98,165.99,210.98z M165.21,197.08c-0.83,0-1.5-0.67-1.5-1.5v-5c0-0.83,0.67-1.5,1.5-1.5
		s1.5,0.67,1.5,1.5v5C166.71,196.41,166.04,197.08,165.21,197.08z M165.21,183.08c-0.83,0-1.5-0.67-1.5-1.5v-5
		c0-0.83,0.67-1.5,1.5-1.5s1.5,0.67,1.5,1.5v5C166.71,182.41,166.04,183.08,165.21,183.08z M165.21,169.08c-0.83,0-1.5-0.67-1.5-1.5
		v-5c0-0.83,0.67-1.5,1.5-1.5s1.5,0.67,1.5,1.5v5C166.71,168.41,166.04,169.08,165.21,169.08z"/>
</g>
<g>
	<path class="st1" d="M309.21,328.62h-1c-0.83,0-1.5-0.67-1.5-1.5s0.67-1.5,1.5-1.5h1c1.15,0,2.26-0.22,3.31-0.67
		c0.76-0.32,1.64,0.04,1.97,0.8c0.32,0.76-0.04,1.64-0.8,1.97C312.26,328.31,310.76,328.62,309.21,328.62z M299.21,328.62h-5
		c-0.83,0-1.5-0.67-1.5-1.5s0.67-1.5,1.5-1.5h5c0.83,0,1.5,0.67,1.5,1.5S300.04,328.62,299.21,328.62z M285.21,328.62h-5
		c-0.83,0-1.5-0.67-1.5-1.5s0.67-1.5,1.5-1.5h5c0.83,0,1.5,0.67,1.5,1.5S286.04,328.62,285.21,328.62z M271.21,328.62h-5
		c-0.83,0-1.5-0.67-1.5-1.5s0.67-1.5,1.5-1.5h5c0.83,0,1.5,0.67,1.5,1.5S272.04,328.62,271.21,328.62z M318.84,321.3
		c-0.13,0-0.27-0.02-0.4-0.05c-0.8-0.22-1.27-1.05-1.04-1.85c0.2-0.74,0.31-1.51,0.31-2.28v-2.28c0-0.83,0.67-1.5,1.5-1.5
		s1.5,0.67,1.5,1.5v2.29c0,1.04-0.14,2.08-0.42,3.08C320.11,320.86,319.5,321.3,318.84,321.3z M319.21,307.33
		c-0.83,0-1.5-0.67-1.5-1.5v-5c0-0.83,0.67-1.5,1.5-1.5s1.5,0.67,1.5,1.5v5C320.71,306.66,320.04,307.33,319.21,307.33z
		 M319.21,293.33c-0.83,0-1.5-0.67-1.5-1.5v-5c0-0.83,0.67-1.5,1.5-1.5s1.5,0.67,1.5,1.5v5
		C320.71,292.66,320.04,293.33,319.21,293.33z M319.21,279.33c-0.83,0-1.5-0.67-1.5-1.5v-5c0-0.83,0.67-1.5,1.5-1.5
		s1.5,0.67,1.5,1.5v5C320.71,278.66,320.04,279.33,319.21,279.33z M319.21,265.33c-0.83,0-1.5-0.67-1.5-1.5v-5
		c0-0.83,0.67-1.5,1.5-1.5s1.5,0.67,1.5,1.5v5C320.71,264.66,320.04,265.33,319.21,265.33z M319.21,251.33c-0.83,0-1.5-0.67-1.5-1.5
		v-5c0-0.83,0.67-1.5,1.5-1.5s1.5,0.67,1.5,1.5v5C320.71,250.66,320.04,251.33,319.21,251.33z"/>
</g>
<g>
	<rect x="0.03" y="0" class="st16" width="400" height="400"/>
</g>
<g>
	<g>
		<path class="st17" d="M359.47,272.61c2.98,0,5.4-2.42,5.4-5.4c0-0.99,0.81-1.8,1.8-1.8c0.99,0,1.8,0.81,1.8,1.8
			c0,2.98,2.42,5.4,5.4,5.4c0.99,0,1.8,0.81,1.8,1.8s-0.81,1.8-1.8,1.8c-2.98,0-5.4,2.42-5.4,5.4c0,0.99-0.81,1.8-1.8,1.8
			c-0.99,0-1.8-0.81-1.8-1.8c0-2.98-2.42-5.4-5.4-5.4c-0.99,0-1.8-0.81-1.8-1.8S358.48,272.61,359.47,272.61z"/>
	</g>
</g>
<g>
	<g>
		<path class="st17" d="M41.01,296.78c2.98,0,5.4-2.42,5.4-5.4c0-0.99,0.81-1.8,1.8-1.8s1.8,0.81,1.8,1.8c0,2.98,2.42,5.4,5.4,5.4
			c0.99,0,1.8,0.81,1.8,1.8s-0.81,1.8-1.8,1.8c-2.98,0-5.4,2.42-5.4,5.4c0,0.99-0.81,1.8-1.8,1.8s-1.8-0.81-1.8-1.8
			c0-2.98-2.42-5.4-5.4-5.4c-0.99,0-1.8-0.81-1.8-1.8S40.02,296.78,41.01,296.78z"/>
	</g>
</g>
<g>
	<g>
		<path class="st17" d="M23.01,145.78c2.98,0,5.4-2.42,5.4-5.4c0-0.99,0.81-1.8,1.8-1.8c0.99,0,1.8,0.81,1.8,1.8
			c0,2.98,2.42,5.4,5.4,5.4c0.99,0,1.8,0.81,1.8,1.8c0,0.99-0.81,1.8-1.8,1.8c-2.98,0-5.4,2.42-5.4,5.4c0,0.99-0.81,1.8-1.8,1.8
			c-0.99,0-1.8-0.81-1.8-1.8c0-2.98-2.42-5.4-5.4-5.4c-0.99,0-1.8-0.81-1.8-1.8C21.21,146.59,22.02,145.78,23.01,145.78z"/>
	</g>
</g>
<g>
	<g>
		<path class="st17" d="M322.51,362.78c2.98,0,5.4-2.42,5.4-5.4c0-0.99,0.81-1.8,1.8-1.8s1.8,0.81,1.8,1.8c0,2.98,2.42,5.4,5.4,5.4
			c0.99,0,1.8,0.81,1.8,1.8s-0.81,1.8-1.8,1.8c-2.98,0-5.4,2.42-5.4,5.4c0,0.99-0.81,1.8-1.8,1.8s-1.8-0.81-1.8-1.8
			c0-2.98-2.42-5.4-5.4-5.4c-0.99,0-1.8-0.81-1.8-1.8S321.52,362.78,322.51,362.78z"/>
	</g>
</g>
<g>
	<circle class="st17" cx="43.21" cy="81.75" r="4.5"/>
</g>
<g>
	<circle class="st17" cx="79.21" cy="369.58" r="4.5"/>
</g>
<g>
	<circle class="st17" cx="366.67" cy="354.58" r="4.5"/>
</g>
<g>
	<circle class="st17" cx="329.71" cy="66.9" r="4.5"/>
</g>
<g>
	<circle class="st17" cx="224.21" cy="208.58" r="4.5"/>
</g>
<g>
	<g>
		<circle class="st17" cx="63.21" cy="114.53" r="3"/>
	</g>
</g>
<g>
	<g>
		<circle class="st17" cx="48.21" cy="339.58" r="3"/>
	</g>
</g>
<g>
	<g>
		<circle class="st17" cx="362.17" cy="36.37" r="3"/>
	</g>
</g>
<g>
	<g>
		<circle class="st17" cx="344.21" cy="308.58" r="3"/>
	</g>
</g>
<g>
	<g>
		<circle class="st17" cx="294.21" cy="51.37" r="3"/>
	</g>
</g>
<g>
	<g>
		<circle class="st17" cx="199.47" cy="181.13" r="3"/>
	</g>
</g>
<path class="st17" d="M60.21,28.58h-6v-6c0-1.66-1.34-3-3-3s-3,1.34-3,3v6h-6c-1.66,0-3,1.34-3,3s1.34,3,3,3h6v6c0,1.66,1.34,3,3,3
	s3-1.34,3-3v-6h6c1.66,0,3-1.34,3-3S61.86,28.58,60.21,28.58z"/>
</svg>
