<?xml version="1.0" encoding="utf-8"?>
<!-- Generator: Adobe Illustrator 26.1.0, SVG Export Plug-In . SVG Version: 6.00 Build 0)  -->
<svg version="1.1" id="Layer_1" xmlns="http://www.w3.org/2000/svg" xmlns:xlink="http://www.w3.org/1999/xlink" x="0px" y="0px"
	 viewBox="0 0 260 260" style="enable-background:new 0 0 260 260;" xml:space="preserve">
<style type="text/css">
	.st0{fill:#7DDF96;}
	.st1{fill:#515979;}
	.st2{fill:#00C853;}
	.st3{fill:#D8EBFB;}
	.st4{fill:#F3F9FE;}
	.st5{fill:#FFFFFF;}
	.st6{fill:#EF7D7D;}
	.st7{fill:#747A94;}
</style>
<path class="st0" d="M200.9,191.9c-0.3,0-0.7-0.1-1-0.2l-100-32.9c-1.2-0.4-2.1-1.5-2.2-2.8c0-0.4,0-0.8,0.2-1.2l15.8-48
	c0.3-0.8,0.8-1.5,1.6-1.8c0.4-0.2,0.9-0.3,1.4-0.3c0.3,0,0.7,0.1,1,0.2l100,32.9c1.2,0.4,2.1,1.5,2.2,2.8c0,0.4,0,0.8-0.1,1.2
	l-15.8,48c-0.3,0.8-0.8,1.5-1.6,1.8C201.9,191.8,201.4,191.9,200.9,191.9L200.9,191.9z"/>
<path class="st1" d="M116.7,108l100,32.9l-15.8,48l-100-32.9C100.9,156,116.7,108,116.7,108z M116.7,101.6c-2.7,0-5.1,1.8-6,4.3
	l-15.8,48c-1.1,3.3,0.7,6.9,4,8l100,32.9c0.6,0.2,1.3,0.3,2,0.3c2.7,0,5.2-1.8,6-4.3l15.8-48c1.1-3.3-0.7-6.9-4-8c0,0,0,0,0,0
	l-100-32.9C118,101.8,117.3,101.6,116.7,101.6C116.7,101.6,116.7,101.6,116.7,101.6z"/>
<path class="st2" d="M140.4,142.3c2.8-8.4,9.1-14.5,16.1-16.3l-29.2-9.6c-0.7,2.1-2.2,3.8-4.2,4.8c-2,1-4.3,1.1-6.4,0.4l-7.6,23.2
	c4.4,1.5,6.7,6.2,5.3,10.5c0,0,0,0,0,0l29.2,9.6C139.1,159.4,137.6,150.8,140.4,142.3z M124.4,144.7c-3.9-0.9-6.3-4.8-5.3-8.7
	c0.1-0.5,0.3-1,0.6-1.5c1.8-3.6,6.1-5,9.7-3.2c3.2,1.6,4.7,5.3,3.6,8.7C131.9,143.6,128.1,145.7,124.4,144.7L124.4,144.7
	L124.4,144.7z M203.1,141.4l-29.2-9.6c4.5,5.6,6.1,14.2,3.3,22.7c-2.8,8.4-9.1,14.5-16.1,16.3l29.2,9.6c0.7-2.1,2.2-3.8,4.2-4.8
	c1-0.5,2-0.8,3.1-0.9c1.1-0.1,2.2,0.1,3.2,0.4l7.6-23.2c-3.2-1-5.5-3.9-5.7-7.3C202.6,143.6,202.7,142.5,203.1,141.4L203.1,141.4z
	 M188.6,165.8c-2.9-0.7-5.1-3.1-5.5-6c-0.4-2.9,1-5.8,3.6-7.3c2.6-1.4,5.8-1.2,8.1,0.7c2.3,1.9,3.2,5,2.3,7.8
	c-0.5,1.8-1.7,3.2-3.3,4.1C192.3,166.1,190.4,166.3,188.6,165.8L188.6,165.8L188.6,165.8z M161,152.7c0.4-1.2-0.7-2-2.9-3
	c-4-1.8-7-3.7-5.6-8.8c1.1-3.2,3.8-4.6,7.7-4l0.8-2.3l4.5,1.5l-0.8,2.3c2.2,1.1,3.7,3.2,3.9,5.6c0,0.1,0,0.2,0,0.3l0.1,0.8l-5,0.5
	l-0.2-1.1c-0.1-1.4-1.1-2.5-2.5-2.7c-2.1-0.7-3.2-0.5-3.6,0.7c-0.4,1.1,0.8,1.9,3,2.9c3.8,1.7,7.1,3.8,5.5,8.7
	c-1.1,3.2-3.9,4.7-7.8,4.2l-0.8,2.4l-4.5-1.5l0.8-2.3c-2.6-1.1-4.3-3.5-4.3-6.3v-1.1l5-0.1l0.1,1c0.1,1.4,1,2.4,2.7,2.9
	C159.2,154.3,160.6,154,161,152.7L161,152.7z"/>
<path class="st0" d="M111.7,168.7c-1.5,0-2.8-1-3.1-2.5l-10.3-49.5c-0.2-0.8,0-1.7,0.5-2.4c0.5-0.7,1.2-1.2,2-1.4l103-21.5
	c0.8-0.2,1.7,0,2.4,0.5c0.7,0.5,1.2,1.2,1.4,2l10.3,49.5c0.2,0.8,0,1.7-0.5,2.4c-0.5,0.7-1.2,1.2-2,1.4l-103,21.5
	C112.2,168.7,111.9,168.7,111.7,168.7z"/>
<path class="st1" d="M204.4,94.5l10.3,49.5l-103,21.5l-10.3-49.5L204.4,94.5L204.4,94.5z M204.4,88.2c-0.4,0-0.9,0-1.3,0.1
	l-103,21.5c-1.6,0.3-3.1,1.3-4,2.7c-0.9,1.4-1.2,3.1-0.9,4.8l10.3,49.5c0.6,2.9,3.2,5,6.2,5c0.4,0,0.9-0.1,1.3-0.1l103-21.5
	c1.6-0.3,3.1-1.3,4-2.7c0.9-1.4,1.2-3.1,0.9-4.8l-10.3-49.5C210,90.3,207.4,88.2,204.4,88.2C204.4,88.2,204.4,88.2,204.4,88.2z"/>
<path class="st2" d="M139.1,134c-1.8-8.7,0.7-17.1,5.8-22.1l-30.1,6.3c0.9,4.5-1.9,8.9-6.4,9.8c0,0,0,0,0,0l5,23.9
	c3.3-0.7,6.7,0.7,8.6,3.5c0.6,0.9,1,1.9,1.3,3l30.1-6.3C146.5,149.4,140.9,142.7,139.1,134z M126.5,144c-2.9,0.8-5.9-0.2-7.8-2.5
	c-1.8-2.4-2-5.6-0.5-8.1c2.1-3.4,6.5-4.5,9.9-2.5c0.5,0.3,0.9,0.6,1.3,1c1,1,1.8,2.3,2.1,3.7c0.4,1.8,0.1,3.7-0.8,5.2
	C129.8,142.4,128.2,143.5,126.5,144C126.5,144,126.5,144,126.5,144z M193,101.8l-30.1,6.3c6.8,2.6,12.4,9.3,14.2,18
	c1.8,8.7-0.7,17.1-5.8,22.1l30.1-6.3c-0.5-2.2,0-4.4,1.2-6.2c1.2-1.8,3.1-3.1,5.3-3.6l-5-23.9C198.3,109.1,194,106.3,193,101.8
	L193,101.8z M192.7,130.2c-3.8,1.1-7.8-1.1-9-4.9c-1.1-3.8,1.1-7.8,4.9-9c3.8-1.1,7.8,1.1,9,4.9c0.1,0.2,0.1,0.4,0.1,0.5
	C198.6,125.5,196.4,129.2,192.7,130.2L192.7,130.2z M162.2,132.7c-0.3-1.2-1.5-1.4-4-1.1c-4.3,0.4-7.9,0.3-9.2-4.8
	c-0.7-3.3,0.9-5.9,4.6-7.4L153,117l4.6-1l0.5,2.4c2.4-0.2,4.8,0.9,6.2,2.9c0.1,0.1,0.1,0.1,0.2,0.2l0.5,0.6l-4.1,3l-0.7-0.8
	c-0.8-1.1-2.2-1.6-3.5-1.1c-2.2,0.5-3,1.1-2.7,2.4c0.2,1.1,1.6,1.3,4.1,1.1c4.2-0.4,8.1-0.3,9.1,4.8c0.7,3.3-1.1,6-4.7,7.6l0.5,2.5
	l-4.6,1l-0.5-2.4c-2.7,0.3-5.4-0.9-6.9-3.3l-0.5-0.9l4.3-2.6l0.6,0.8c0.8,1.2,2,1.5,3.8,1.2C161.4,134.9,162.5,134,162.2,132.7
	L162.2,132.7z"/>
<path class="st0" d="M126.4,171.4c-0.9,0-1.8-0.4-2.4-1.1l-33.7-37.7c-1.2-1.3-1.1-3.3,0.2-4.5L169,58c1.3-1.2,3.3-1.1,4.5,0.2
	c0,0,0,0,0,0l33.7,37.7c0.6,0.6,0.8,1.4,0.8,2.3c-0.1,0.8-0.4,1.6-1.1,2.2l-78.5,70.2C127.9,171.1,127.1,171.4,126.4,171.4
	L126.4,171.4z"/>
<path class="st1" d="M171.1,60.4L204.8,98l-78.5,70.2l-33.7-37.7L171.1,60.4z M171.1,54c-1.6,0-3.1,0.6-4.2,1.6l-78.5,70.2
	c-2.6,2.3-2.8,6.3-0.5,8.9c0,0,0,0,0,0l33.7,37.7c2.3,2.6,6.3,2.8,8.9,0.5l78.5-70.2c2.6-2.3,2.8-6.3,0.5-8.9c0,0,0,0,0,0
	l-33.7-37.7C174.6,54.8,172.9,54,171.1,54L171.1,54L171.1,54z"/>
<path class="st2" d="M134.3,127.2c-5.9-6.6-8-15.1-6.1-22.1l-22.9,20.5c2.2,2.5,2.8,6.1,1.3,9.1c-0.5,1-1.1,1.9-2,2.6l16.3,18.2
	c2.5-2.2,6.1-2.8,9.1-1.3c1,0.5,1.9,1.1,2.6,2l22.9-20.5C148.4,136.8,140.2,133.8,134.3,127.2L134.3,127.2z M128.4,142.2
	c-1,1.1-2.3,1.8-3.7,2.1c-2.9,0.6-5.9-0.6-7.5-3.1c-2.2-3.3-1.3-7.8,2.1-10c0.5-0.3,0.9-0.5,1.4-0.7c2.8-1,5.9-0.3,7.9,2
	C131.2,135.1,131.1,139.5,128.4,142.2L128.4,142.2z M164.8,72.4l-22.9,20.5c7.1-1.1,15.4,1.9,21.3,8.5c5.9,6.6,8,15.1,6.1,22.1
	l22.9-20.5c-0.7-0.8-1.3-1.8-1.7-2.8c-0.7-2.1-0.6-4.4,0.4-6.4c0.5-1,1.1-1.9,2-2.6l-16.3-18.2c-2.5,2.2-6.1,2.7-9.1,1.3
	C166.4,73.9,165.5,73.3,164.8,72.4L164.8,72.4z M178.7,97.1c-2.8,2.9-7.3,3-10.2,0.2c-2.9-2.8-3-7.3-0.2-10.2
	c2.8-2.9,7.3-3,10.2-0.2c0.1,0.1,0.3,0.3,0.4,0.4C181.5,90.1,181.5,94.5,178.7,97.1z M153.6,114.6c-0.8-0.9-2-0.4-4.1,1.1
	c-3.6,2.5-6.7,4.2-10.4,0.5c-2.2-2.5-2.2-5.6,0.3-8.7l-1.6-1.8l3.5-3.2l1.6,1.8c2-1.4,4.6-1.6,6.8-0.6c0.1,0,0.2,0.1,0.3,0.1
	l0.7,0.3l-2,4.7l-1-0.4c-1.2-0.6-2.7-0.3-3.6,0.8c-1.7,1.5-2.1,2.5-1.2,3.5c0.9,1,2.1,0.3,4-1.1c3.4-2.4,6.9-4.2,10.3-0.4
	c2.3,2.5,2.1,5.7-0.3,8.9l1.7,1.9l-3.5,3.2l-1.6-1.8c-2.2,1.7-5.2,1.9-7.6,0.6l-0.9-0.5l2.4-4.4l0.9,0.4c1.2,0.6,2.5,0.3,3.9-0.9
	C154,116.9,154.5,115.6,153.6,114.6L153.6,114.6z"/>
<path class="st0" d="M140.4,167.5c-0.3,0-0.7-0.1-1-0.2l-48-15.8c-1.7-0.5-2.6-2.3-2-4l32.9-100c0.5-1.7,2.3-2.6,4-2c0,0,0,0,0,0
	l48,15.8c1.7,0.5,2.6,2.3,2,4c0,0,0,0,0,0l-32.9,100C142.9,166.6,141.7,167.5,140.4,167.5z"/>
<path class="st1" d="M125.3,48.6l48,15.8l-32.9,100l-48-15.8C92.4,148.6,125.3,48.6,125.3,48.6z M125.3,42.3c-1,0-2,0.2-2.8,0.7
	c-1.5,0.8-2.6,2.1-3.2,3.7l-32.9,100c-1.1,3.3,0.7,6.9,4,8l48,15.8c3.3,1.1,6.9-0.7,8-4c0,0,0,0,0,0l32.9-100c1.1-3.3-0.7-6.9-4-8
	c0,0,0,0,0,0l-48-15.8C126.6,42.4,125.9,42.3,125.3,42.3z"/>
<path class="st2" d="M126.8,124.9c-8.4-2.8-14.5-9.1-16.3-16.1l-9.6,29.2c1,0.3,2,0.9,2.8,1.6c2.5,2.2,3.5,5.7,2.4,8.9l23.2,7.6
	c0.7-2.1,2.2-3.8,4.2-4.8c2-1,4.3-1.2,6.4-0.4l9.6-29.2C143.8,126.1,135.2,127.7,126.8,124.9L126.8,124.9z M129.1,140.8
	c-0.9,3.9-4.8,6.3-8.7,5.3c-2-0.5-3.6-1.7-4.6-3.5c-1.9-3.5-0.7-7.9,2.8-9.8c0.5-0.3,1-0.5,1.5-0.6c1.4-0.4,2.9-0.4,4.3,0.1
	C128,133.3,130.2,137.1,129.1,140.8z M125.8,62.2l-9.6,29.2c5.6-4.5,14.2-6.1,22.7-3.3c8.4,2.8,14.5,9.1,16.3,16.1l9.6-29.2
	c-4.4-1.4-6.7-6.2-5.3-10.5c0,0,0,0,0,0l-23.2-7.6C134.9,61.2,130.2,63.6,125.8,62.2C125.8,62.2,125.8,62.2,125.8,62.2z M150.2,76.6
	c-0.9,3.9-4.8,6.3-8.7,5.3c-0.5-0.1-1-0.3-1.5-0.6c-2.7-1.3-4.2-4.2-4-7.1c0.4-4,3.9-6.9,7.8-6.5c0.5,0,1.1,0.2,1.6,0.3
	C149.1,69.1,151.3,72.9,150.2,76.6z M137.2,104.2c-1.2-0.4-2,0.6-3,2.9c-1.8,4-3.7,7-8.8,5.6c-3.2-1.1-4.7-3.8-4-7.7l-2.3-0.8
	l1.5-4.5l2.3,0.8c1.1-2.2,3.2-3.7,5.6-3.9c0.1,0,0.2,0,0.3,0l0.8-0.1l0.5,5l-1.1,0.2c-1.4,0.1-2.5,1.1-2.7,2.5
	c-0.7,2.1-0.5,3.2,0.7,3.6c1.1,0.4,1.9-0.8,2.9-3c1.7-3.8,3.8-7.1,8.7-5.5c3.2,1.1,4.7,3.9,4.2,7.8l2.4,0.8l-1.5,4.5l-2.3-0.8
	c-1.1,2.6-3.5,4.3-6.3,4.3h-1l-0.1-5l1-0.1c1.4-0.1,2.3-1,2.9-2.7C138.7,106,138.5,104.7,137.2,104.2L137.2,104.2z"/>
<path class="st3" d="M94.1,216.6c-3,0-5.7-1.8-6.8-4.5L36.5,89.5c-1.6-3.8,0.2-8.1,4-9.6l60.3-25c3.8-1.6,8.1,0.2,9.6,4l50.8,122.5
	c1.6,3.8-0.2,8.1-4,9.6l-60.3,25C96,216.4,95.1,216.6,94.1,216.6L94.1,216.6z"/>
<path class="st1" d="M103.6,57.5c1.7,0,3.2,1,3.9,2.6l50.7,122.5c0.9,2.1-0.1,4.6-2.3,5.5l-60.3,25c-1,0.4-2.2,0.4-3.2,0
	c-1-0.4-1.9-1.2-2.3-2.3L39.4,88.3c-0.9-2.1,0.1-4.6,2.3-5.5c0,0,0,0,0,0l60.3-25C102.5,57.6,103.1,57.5,103.6,57.5L103.6,57.5
	L103.6,57.5z M103.6,51.2c-1.4,0-2.8,0.3-4,0.8L39.3,77c-5.4,2.2-7.9,8.4-5.7,13.7l50.8,122.5c2.2,5.4,8.4,7.9,13.7,5.7l60.3-24.9
	c3.9-1.6,6.5-5.5,6.5-9.7c0-1.4-0.3-2.8-0.8-4L113.4,57.7C111.7,53.8,107.9,51.2,103.6,51.2C103.6,51.2,103.6,51.2,103.6,51.2z"/>
<path class="st4" d="M114.2,205.5l-15.6,6.4L68,72l15.6-6.4L114.2,205.5z M129.7,199l-9.7,4l-30.6-140l9.7-4L129.7,199L129.7,199z"
	/>
<path class="st1" d="M46.5,125c-1.3,0-2.4-0.8-2.9-2l-4.8-11.7c-0.7-1.6,0-3.5,1.6-4.2c0,0,0,0,0.1,0c0.8-0.3,1.7-0.3,2.5,0
	c0.8,0.3,1.4,1,1.7,1.8l4.8,11.7c0.7,1.6-0.1,3.5-1.7,4.1C47.3,124.9,46.9,125,46.5,125z M56.1,148.4c-1.3,0-2.4-0.8-2.9-1.9
	l-4.8-11.7c-0.5-1.2-0.2-2.5,0.7-3.4c0.9-0.9,2.3-1.2,3.4-0.7c0.8,0.3,1.4,0.9,1.7,1.7l4.8,11.7c0.7,1.6-0.1,3.5-1.7,4.1
	C57,148.3,56.6,148.4,56.1,148.4L56.1,148.4z M131.1,103.7c-1.3,0-2.4-0.8-2.9-1.9L123.3,90c-0.4-0.8-0.4-1.7-0.1-2.5
	c0.6-1.6,2.5-2.4,4.1-1.8c0.8,0.3,1.5,1,1.8,1.9l4.9,11.7c0.7,1.6-0.1,3.5-1.7,4.1c0,0,0,0,0,0C131.9,103.6,131.5,103.7,131.1,103.7
	z M108.9,203c-1,0-1.9-0.7-2.1-1.7c-0.2-1,0.3-2,1.3-2.4l29.1-12.1c1.1-0.4,2.3,0.1,2.8,1.1c0.4,1.1-0.1,2.3-1.1,2.8l-29.2,12.1
	C109.4,202.9,109.1,203,108.9,203L108.9,203z M105.9,134.7c-0.5,0-0.9-0.2-1.2-0.5c-0.3-0.3-0.4-0.7-0.4-1.1c0-0.4,0.2-0.8,0.5-1.1
	c2.2-1.8,4.9-2.9,7.8-3.2c0.4,0,0.8,0.1,1.1,0.4c0.7,0.6,0.7,1.6,0.1,2.2c0,0,0,0,0,0c-0.3,0.3-0.7,0.5-1.1,0.5
	c-2.1,0.3-4.2,1.1-5.9,2.4C106.7,134.6,106.3,134.7,105.9,134.7L105.9,134.7z"/>
<path class="st1" d="M106.6,131.6c3.5,0,6.3-2.8,6.3-6.3c0-3.5-2.8-6.3-6.3-6.3c-3.5,0-6.3,2.8-6.3,6.3
	C100.3,128.7,103.1,131.6,106.6,131.6z"/>
<path class="st5" d="M108.1,126.2c0.9,0,1.6-0.7,1.6-1.6c0-0.9-0.7-1.6-1.6-1.6c0,0,0,0,0,0c-0.9,0-1.6,0.7-1.6,1.6
	C106.5,125.5,107.2,126.2,108.1,126.2z"/>
<path class="st1" d="M98,113c2.3-2.9,5.8-4.4,9.5-3.9c2.1,0.2,5.8,2,3.9,4.6c-0.4,0.5-1,0.8-1.6,0.9c-3.3,0.9-6.8,1.4-10.3,1.2
	c-0.7,0-1.3-0.3-1.6-0.9c-0.2-0.3-0.2-0.6-0.2-0.9C97.7,113.6,97.8,113.3,98,113L98,113z M85.4,143.2c-0.5,0-0.9-0.2-1.2-0.5
	c-0.6-0.7-0.5-1.7,0.1-2.2c0,0,0,0,0,0c2.2-1.8,4.9-2.9,7.8-3.2c0.6,0,1.2,0.3,1.5,0.9c0.4,0.8,0.1,1.7-0.7,2.1
	c-0.2,0.1-0.4,0.1-0.6,0.2c-2.1,0.3-4.2,1.1-5.9,2.4C86.2,143.1,85.8,143.2,85.4,143.2L85.4,143.2z"/>
<path class="st1" d="M86.1,140c3.5,0,6.3-2.8,6.3-6.3c0-3.5-2.8-6.3-6.3-6.3c-3.5,0-6.3,2.8-6.3,6.3C79.8,137.2,82.6,140,86.1,140
	L86.1,140z"/>
<path class="st5" d="M87.6,134.7c0.9,0,1.6-0.7,1.6-1.6c0-0.9-0.7-1.6-1.6-1.6c-0.9,0-1.6,0.7-1.6,1.6C86,134,86.7,134.7,87.6,134.7
	L87.6,134.7z"/>
<path class="st1" d="M84.5,122c-2.4,2.5-5.1,4.7-8.1,6.4c-0.5,0.4-1.2,0.6-1.9,0.4c-0.7-0.1-1.2-0.6-1.6-1.2c-1.1-4,3.8-7.7,7.2-8.5
	c1.6-0.3,5.2-0.9,5,1.8C85,121.4,84.8,121.7,84.5,122C84.5,122,84.5,122,84.5,122z M103,160.2c-6,0-11.3-3.6-13.6-9.1
	c-0.3-0.8-0.1-1.7,0.5-2.3c0.2-0.2,0.4-0.3,0.7-0.5l23.3-9.7c0.3-0.1,0.5-0.2,0.8-0.2c0.3,0,0.6,0.1,0.8,0.2
	c0.5,0.2,0.9,0.6,1.1,1.1c3.1,7.5-0.5,16.1-8,19.3C106.8,159.8,104.9,160.2,103,160.2L103,160.2z"/>
<path class="st1" d="M114.6,140.6c2.7,6.4-0.4,13.8-6.8,16.5c-1.5,0.6-3.2,1-4.8,1c-5.1,0-9.7-3.1-11.7-7.8L114.6,140.6L114.6,140.6
	z M114.6,136.4c-0.6,0-1.1,0.1-1.6,0.3l-23.3,9.7c-1.6,0.7-2.6,2.2-2.6,3.9c0,0.6,0.1,1.1,0.3,1.6c3.6,8.6,13.4,12.7,22,9.1
	c8.6-3.6,12.7-13.4,9.1-22c0,0,0,0,0,0C117.9,137.4,116.4,136.4,114.6,136.4L114.6,136.4z"/>
<path class="st6" d="M107.8,157.1c4.8-2,8-5.3,7.1-7.5c-0.9-2.1-5.5-2.3-10.3-0.3c-4.8,2-8,5.3-7.1,7.5
	C98.4,159,103,159.1,107.8,157.1z"/>
<path class="st7" d="M62.7,86.3c-1.2,0-2.3-0.5-3.1-1.3l-8.7-9.4l39.5-16.4L90.9,72c0.1,1.8-1,3.4-2.6,4L64.4,86
	C63.8,86.2,63.3,86.3,62.7,86.3z"/>
<path class="st1" d="M87.4,63.9l0.3,8.3c0,0.5-0.2,0.9-0.6,1.1l-23.9,9.9c-0.3,0.1-0.6,0.1-0.8,0c-0.1-0.1-0.3-0.1-0.4-0.2l-5.6-6
	L87.4,63.9L87.4,63.9z M93.4,54.6L85,58.1L53.9,71l-8.4,3.5l6.2,6.7l5.6,6c2.1,2.2,5.4,3,8.2,1.8L89.5,79c2.9-1.2,4.7-4,4.6-7.1
	l-0.3-8.3L93.4,54.6L93.4,54.6L93.4,54.6z"/>
<path class="st1" d="M65.7,79.6c-1.2,0-2.1-0.9-2.1-2.1c0-0.9,0.5-1.6,1.3-2l15.6-6.4c1.1-0.4,2.3,0.1,2.8,1.1
	c0.4,1.1-0.1,2.3-1.1,2.8l-15.6,6.4C66.3,79.5,66,79.6,65.7,79.6z"/>
</svg>
