<?xml version="1.0" encoding="utf-8"?>
<!-- Generator: Adobe Illustrator 25.2.3, SVG Export Plug-In . SVG Version: 6.00 Build 0)  -->
<svg version="1.1" id="landing-page-optimization" xmlns="http://www.w3.org/2000/svg" xmlns:xlink="http://www.w3.org/1999/xlink"
	 x="0px" y="0px" viewBox="0 0 400 400" style="enable-background:new 0 0 400 400;" xml:space="preserve">
<style type="text/css">
	.st0{fill:#C7BCFF;}
	.st1{fill:#515979;}
	.st2{fill:#667683;}
	.st3{fill:#FFFFFF;}
	.st4{fill:#EF7D7D;}
	.st5{fill:#FFE8A0;}
	.st6{fill:#7DDF96;}
	.st7{fill:#AAA0FF;}
	.st8{fill:#E9E4FF;}
	.st9{fill:#D8EBFB;}
	.st10{fill:#FAC864;}
	.st11{fill:#FFD886;}
</style>
<g>
	<g>
		<path class="st0" d="M104,337c-7.17,0-13-5.83-13-13V50c0-7.17,5.83-13,13-13h192c7.17,0,13,5.83,13,13v274c0,7.17-5.83,13-13,13
			H104z"/>
	</g>
	<g>
		<path class="st1" d="M296,40c5.52,0,10,4.48,10,10v274c0,5.52-4.48,10-10,10H104c-5.52,0-10-4.48-10-10V50c0-5.52,4.48-10,10-10
			H296 M296,34H104c-8.82,0-16,7.18-16,16v274c0,8.82,7.18,16,16,16h192c8.82,0,16-7.18,16-16V50C312,41.18,304.82,34,296,34L296,34
			z"/>
	</g>
</g>
<g>
	<g>
		<path class="st2" d="M94,71c-1.66,0-3-1.34-3-3V50c0-7.17,5.83-13,13-13h192c7.17,0,13,5.83,13,13v18c0,1.66-1.34,3-3,3H94z"/>
	</g>
	<g>
		<path class="st1" d="M296,40c5.52,0,10,4.48,10,10v18H94V50c0-5.52,4.48-10,10-10H296 M296,34H104c-8.82,0-16,7.18-16,16v18
			c0,3.31,2.69,6,6,6h212c3.31,0,6-2.69,6-6V50C312,41.18,304.82,34,296,34L296,34z"/>
	</g>
</g>
<g>
	<g>
		<path class="st3" d="M184,61c-3.86,0-7-3.14-7-7s3.14-7,7-7h106c3.86,0,7,3.14,7,7s-3.14,7-7,7H184z"/>
	</g>
	<g>
		<g>
			<path class="st1" d="M290,50c2.21,0,4,1.79,4,4s-1.79,4-4,4H184c-2.21,0-4-1.79-4-4s1.79-4,4-4H290 M290,44H184
				c-5.51,0-10,4.49-10,10s4.49,10,10,10h106c5.51,0,10-4.49,10-10S295.51,44,290,44L290,44z"/>
		</g>
	</g>
</g>
<g>
	<g>
		<circle class="st4" cx="110" cy="54" r="7"/>
	</g>
	<g>
		<g>
			<path class="st1" d="M110,50c2.21,0,4,1.79,4,4s-1.79,4-4,4s-4-1.79-4-4S107.79,50,110,50 M110,44c-5.51,0-10,4.49-10,10
				s4.49,10,10,10c5.51,0,10-4.49,10-10S115.51,44,110,44L110,44z"/>
		</g>
	</g>
</g>
<g>
	<g>
		<circle class="st5" cx="134" cy="54" r="7"/>
	</g>
	<g>
		<g>
			<path class="st1" d="M134,50c2.21,0,4,1.79,4,4s-1.79,4-4,4s-4-1.79-4-4S131.79,50,134,50 M134,44c-5.51,0-10,4.49-10,10
				s4.49,10,10,10s10-4.49,10-10S139.51,44,134,44L134,44z"/>
		</g>
	</g>
</g>
<g>
	<g>
		<circle class="st6" cx="158" cy="54" r="7"/>
	</g>
	<g>
		<g>
			<path class="st1" d="M158,50c2.21,0,4,1.79,4,4s-1.79,4-4,4s-4-1.79-4-4S155.79,50,158,50 M158,44c-5.51,0-10,4.49-10,10
				s4.49,10,10,10s10-4.49,10-10S163.51,44,158,44L158,44z"/>
		</g>
	</g>
</g>
<g>
	<g>
		<circle class="st7" cx="159" cy="110.5" r="2.5"/>
	</g>
	<g>
		<circle class="st7" cx="164.5" cy="121.5" r="2.5"/>
	</g>
	<g>
		<circle class="st7" cx="153.5" cy="121.5" r="2.5"/>
	</g>
</g>
<g>
	<g>
		<circle class="st7" cx="241" cy="110.5" r="2.5"/>
	</g>
	<g>
		<circle class="st7" cx="246.5" cy="121.5" r="2.5"/>
	</g>
	<g>
		<circle class="st7" cx="235.5" cy="121.5" r="2.5"/>
	</g>
</g>
<g>
	<rect x="94" y="149" class="st8" width="212" height="148"/>
</g>
<g>
	<g>
		<path class="st6" d="M141,282c-2.76,0-5-2.24-5-5v-12c0-2.76,2.24-5,5-5h118c2.76,0,5,2.24,5,5v12c0,2.76-2.24,5-5,5H141z"/>
	</g>
	<g>
		<path class="st1" d="M259,263c1.1,0,2,0.9,2,2v12c0,1.1-0.9,2-2,2H141c-1.1,0-2-0.9-2-2v-12c0-1.1,0.9-2,2-2H259 M259,257H141
			c-4.41,0-8,3.59-8,8v12c0,4.41,3.59,8,8,8h118c4.41,0,8-3.59,8-8v-12C267,260.59,263.41,257,259,257L259,257z"/>
	</g>
</g>
<g>
	<g>
		<g>
			<g>
				<g>
					<path class="st1" d="M200,139.23c-11.3,0-20.5-9.2-20.5-20.5c0-1.38,1.12-2.5,2.5-2.5h36c1.38,0,2.5,1.12,2.5,2.5
						C220.5,130.03,211.3,139.23,200,139.23z"/>
				</g>
				<g>
					<path class="st1" d="M218,118.72L218,118.72 M218,118.72c0,9.94-8.06,18-18,18s-18-8.06-18-18H218 M218.01,113.72
						L218.01,113.72H182c-2.76,0-5,2.24-5,5c0,12.68,10.32,23,23,23c12.62,0,22.9-10.22,23-22.82c0-0.06,0-0.12,0-0.18
						C223,115.96,220.77,113.72,218.01,113.72L218.01,113.72z M218,123.72L218,123.72L218,123.72L218,123.72z"/>
				</g>
			</g>
			<g>
				<g>
					<ellipse class="st4" cx="200" cy="130.72" rx="13.39" ry="6"/>
				</g>
			</g>
		</g>
	</g>
	<g>
		<g>
			<path class="st1" d="M219.5,110.48c-0.32,0-0.64-0.08-0.94-0.24c-1.89-1.02-5.21-1.02-7.11,0c-0.97,0.52-2.18,0.16-2.71-0.82
				c-0.52-0.97-0.16-2.19,0.82-2.71c3.05-1.64,7.84-1.64,10.89,0c0.97,0.52,1.34,1.73,0.82,2.71
				C220.9,110.09,220.21,110.48,219.5,110.48z"/>
		</g>
		<g>
			<g>
				<circle class="st1" cx="215" cy="99.72" r="8"/>
			</g>
			<g>
				<circle class="st3" cx="217" cy="99.72" r="2"/>
			</g>
		</g>
		<g>
			<path class="st1" d="M209.11,84.34c0.68-0.6,1.26-0.97,1.95-1.35c0.68-0.36,1.39-0.66,2.14-0.88c1.49-0.46,3.14-0.63,4.81-0.42
				c0.84,0.09,1.66,0.34,2.47,0.62c0.4,0.16,0.77,0.38,1.15,0.57c0.39,0.18,0.74,0.42,1.07,0.69c1.4,0.97,2.36,2.35,2.98,3.77
				c0.45,1.03-0.01,2.23-1.04,2.69c-0.59,0.26-1.23,0.22-1.76-0.06l-0.37-0.2c-1.05-0.55-1.86-1.12-2.73-1.43
				c-0.84-0.36-1.66-0.59-2.56-0.71c-0.9-0.13-1.87-0.17-2.91-0.11c-0.52,0.04-1.06,0.07-1.61,0.14c-0.53,0.04-1.16,0.16-1.62,0.17
				l-0.62,0.01c-1.1,0.01-2-0.87-2.01-1.98C208.43,85.26,208.7,84.71,209.11,84.34z"/>
		</g>
		<g>
			<path class="st1" d="M189.5,110.48c-0.32,0-0.64-0.08-0.94-0.24c-1.89-1.02-5.22-1.02-7.11,0c-0.98,0.52-2.19,0.16-2.71-0.82
				c-0.52-0.97-0.16-2.19,0.82-2.71c3.05-1.64,7.84-1.64,10.89,0c0.97,0.52,1.34,1.73,0.82,2.71
				C190.9,110.09,190.21,110.48,189.5,110.48z"/>
		</g>
		<g>
			<g>
				<circle class="st1" cx="185" cy="99.72" r="8"/>
			</g>
			<g>
				<circle class="st3" cx="187" cy="99.72" r="2"/>
			</g>
		</g>
		<g>
			<path class="st1" d="M188.93,87.83c-0.46,0-1.08-0.13-1.62-0.17c-0.55-0.07-1.09-0.1-1.61-0.14c-1.05-0.05-2.02-0.02-2.91,0.11
				c-0.9,0.12-1.72,0.35-2.56,0.71c-0.87,0.31-1.69,0.88-2.73,1.43l-0.36,0.19c-1,0.52-2.23,0.14-2.75-0.86
				c-0.3-0.57-0.3-1.22-0.06-1.77c0.62-1.41,1.58-2.79,2.98-3.77c0.33-0.27,0.68-0.51,1.07-0.69c0.38-0.19,0.76-0.41,1.15-0.57
				c0.81-0.28,1.63-0.53,2.47-0.62c1.67-0.21,3.32-0.04,4.81,0.42c0.75,0.22,1.46,0.52,2.14,0.88c0.69,0.38,1.27,0.75,1.95,1.35
				c0.83,0.72,0.91,1.98,0.19,2.81c-0.4,0.45-0.95,0.68-1.51,0.68L188.93,87.83z"/>
		</g>
	</g>
</g>
<g>
	<path class="st3" d="M265,247H135c-1.1,0-2-0.9-2-2v-8c0-1.1,0.9-2,2-2h130c1.1,0,2,0.9,2,2v8C267,246.1,266.1,247,265,247z"/>
</g>
<g>
	<path class="st3" d="M265,213H135c-1.1,0-2-0.9-2-2v-8c0-1.1,0.9-2,2-2h130c1.1,0,2,0.9,2,2v8C267,212.1,266.1,213,265,213z"/>
</g>
<g>
	<path class="st1" d="M200,229h-64c-1.66,0-3-1.34-3-3v0c0-1.66,1.34-3,3-3h64c1.66,0,3,1.34,3,3v0C203,227.66,201.66,229,200,229z"
		/>
</g>
<g>
	<path class="st1" d="M200,195h-64c-1.66,0-3-1.34-3-3v0c0-1.66,1.34-3,3-3h64c1.66,0,3,1.34,3,3v0C203,193.66,201.66,195,200,195z"
		/>
</g>
<g>
	<path class="st1" d="M247,179H136c-1.66,0-3-1.34-3-3v0c0-1.66,1.34-3,3-3h111c1.66,0,3,1.34,3,3v0C250,177.66,248.66,179,247,179z
		"/>
</g>
<g>
	<path class="st1" d="M264,167H136c-1.66,0-3-1.34-3-3v0c0-1.66,1.34-3,3-3h128c1.66,0,3,1.34,3,3v0C267,165.66,265.66,167,264,167z
		"/>
</g>
<g>
	<g>
		<polygon class="st3" points="288.73,291.27 285.73,286.07 275.33,292.07 272.33,286.87 261.94,292.87 264.94,298.07 
			259.74,301.07 253.74,290.68 243.35,296.68 249.35,307.07 244.16,310.07 223.16,273.7 212.76,279.7 248.76,342.05 243.57,345.05 
			237.57,334.66 232.37,337.66 229.37,332.46 218.98,338.46 224.98,348.85 230.18,345.85 233.18,351.05 238.37,348.05 
			244.37,358.44 249.57,355.44 255.57,365.84 260.76,362.84 266.76,373.23 271.96,370.23 277.96,380.62 319.53,356.62 
			313.53,346.23 318.73,343.23 309.73,327.64 314.92,324.64 293.92,288.27 		"/>
	</g>
	<g>
		<rect x="263.36" y="360.53" transform="matrix(0.866 -0.5 0.5 0.866 -147.5801 182.2868)" class="st9" width="6" height="12"/>
	</g>
	<g>
		<rect x="252.17" y="353.14" transform="matrix(0.866 -0.5 0.5 0.866 -145.384 175.6983)" class="st9" width="6" height="12"/>
	</g>
	<g>
		<rect x="240.97" y="345.75" transform="matrix(0.866 -0.5 0.5 0.866 -143.1878 169.1099)" class="st9" width="6" height="12"/>
	</g>
	<g>
		<rect x="221.58" y="336.16" transform="matrix(0.866 -0.5 0.5 0.866 -140.9917 158.1291)" class="st9" width="6" height="12"/>
	</g>
	<g>
		<rect x="231.27" y="343.95" transform="matrix(0.866 -0.5 0.5 0.866 -142.0898 163.6195)" class="st9" width="6" height="6"/>
	</g>
	<g>
		<rect x="274.56" y="367.92" transform="matrix(0.866 -0.5 0.5 0.866 -149.7763 188.8753)" class="st9" width="6" height="12"/>
	</g>
	<g>
		<g>
			<rect x="210.46" y="271.1" transform="matrix(0.866 -0.5 0.5 0.866 -108.0494 144.9522)" class="st1" width="12" height="6"/>
		</g>
		<g>
			<polygon class="st1" points="255.35,317.46 243.35,296.68 253.74,290.68 250.74,285.48 240.35,291.48 228.35,270.7 223.16,273.7 
				250.16,320.46 			"/>
		</g>
		<g>
			<polygon class="st1" points="270.94,308.46 261.94,292.87 272.33,286.87 269.33,281.68 253.74,290.68 265.74,311.46 			"/>
		</g>
		<g>
			<polygon class="st1" points="289.53,304.66 280.53,289.07 285.73,286.07 282.73,280.87 272.33,286.87 284.33,307.66 			"/>
		</g>
		<g>
			<rect x="313.82" y="324.93" transform="matrix(0.866 -0.5 0.5 0.866 -124.5205 203.1502)" class="st1" width="6" height="18"/>
		</g>
		<g>
			<polygon class="st1" points="319.53,356.62 277.96,380.62 271.96,370.23 266.76,373.23 275.76,388.82 327.73,358.82 
				318.73,343.23 313.53,346.23 			"/>
		</g>
		<g>
			<rect x="258.17" y="363.53" transform="matrix(0.866 -0.5 0.5 0.866 -149.7763 180.0906)" class="st1" width="6" height="12"/>
		</g>
		<g>
			<rect x="246.97" y="356.14" transform="matrix(0.866 -0.5 0.5 0.866 -147.5801 173.5022)" class="st1" width="6" height="12"/>
		</g>
		<g>
			<rect x="235.77" y="348.75" transform="matrix(0.866 -0.5 0.5 0.866 -145.384 166.9137)" class="st1" width="6" height="12"/>
		</g>
		<g>
			<rect x="226.08" y="346.95" transform="matrix(0.866 -0.5 0.5 0.866 -144.2859 161.4233)" class="st1" width="6" height="6"/>
		</g>
		<g>
			<polygon class="st1" points="237.57,334.66 243.57,345.05 248.76,342.05 212.76,279.7 207.57,282.7 234.57,329.46 229.37,332.46 
				232.37,337.66 			"/>
		</g>
		<g>
			<polygon class="st1" points="229.37,332.46 226.37,327.27 210.78,336.27 219.78,351.85 224.98,348.85 218.98,338.46 			"/>
		</g>
		<g>
			<rect x="286.82" y="284.17" transform="matrix(0.866 -0.5 0.5 0.866 -104.7551 183.3849)" class="st1" width="6" height="6"/>
		</g>
		<g>
			<rect x="304.02" y="283.95" transform="matrix(0.866 -0.5 0.5 0.866 -111.3436 194.3656)" class="st1" width="6" height="42"/>
		</g>
	</g>
	<g>
		<rect x="265.49" y="330.21" transform="matrix(0.866 -0.5 0.5 0.866 -135.1353 180.0906)" class="st1" width="6" height="24"/>
	</g>
	<g>
		<rect x="275.88" y="324.21" transform="matrix(0.866 -0.5 0.5 0.866 -130.743 184.4829)" class="st1" width="6" height="24"/>
	</g>
	<g>
		<rect x="286.27" y="318.21" transform="matrix(0.866 -0.5 0.5 0.866 -126.3506 188.8752)" class="st1" width="6" height="24"/>
	</g>
</g>
<g>
	<path class="st10" d="M299.53,13.64c-2.65,0-4.8-2.15-4.8-4.8c0-0.88-0.72-1.6-1.6-1.6c-0.88,0-1.6,0.72-1.6,1.6
		c0,2.65-2.15,4.8-4.8,4.8c-0.88,0-1.6,0.72-1.6,1.6c0,0.88,0.72,1.6,1.6,1.6c2.65,0,4.8,2.15,4.8,4.8c0,0.88,0.72,1.6,1.6,1.6
		c0.88,0,1.6-0.72,1.6-1.6c0-2.65,2.15-4.8,4.8-4.8c0.88,0,1.6-0.72,1.6-1.6C301.13,14.36,300.42,13.64,299.53,13.64z"/>
</g>
<g>
	<path class="st10" d="M340.33,146.44c-2.98,0-5.4-2.42-5.4-5.4c0-0.99-0.81-1.8-1.8-1.8c-0.99,0-1.8,0.81-1.8,1.8
		c0,2.98-2.42,5.4-5.4,5.4c-0.99,0-1.8,0.81-1.8,1.8s0.81,1.8,1.8,1.8c2.98,0,5.4,2.42,5.4,5.4c0,0.99,0.81,1.8,1.8,1.8
		c0.99,0,1.8-0.81,1.8-1.8c0-2.98,2.42-5.4,5.4-5.4c0.99,0,1.8-0.81,1.8-1.8S341.33,146.44,340.33,146.44z"/>
</g>
<g>
	<path class="st10" d="M72.33,329.44c-2.98,0-5.4-2.42-5.4-5.4c0-0.99-0.81-1.8-1.8-1.8c-0.99,0-1.8,0.81-1.8,1.8
		c0,2.98-2.42,5.4-5.4,5.4c-0.99,0-1.8,0.81-1.8,1.8c0,0.99,0.81,1.8,1.8,1.8c2.98,0,5.4,2.42,5.4,5.4c0,0.99,0.81,1.8,1.8,1.8
		c0.99,0,1.8-0.81,1.8-1.8c0-2.98,2.42-5.4,5.4-5.4c0.99,0,1.8-0.81,1.8-1.8C74.13,330.25,73.33,329.44,72.33,329.44z"/>
</g>
<g>
	<circle class="st10" cx="28.63" cy="323.74" r="2.5"/>
</g>
<g>
	<circle class="st10" cx="90.63" cy="355.74" r="4.5"/>
</g>
<g>
	<circle class="st10" cx="338.13" cy="106.24" r="3"/>
</g>
<path class="st10" d="M356.13,55.24h-7v-7c0-1.66-1.34-3-3-3s-3,1.34-3,3v7h-7c-1.66,0-3,1.34-3,3s1.34,3,3,3h7v7c0,1.66,1.34,3,3,3
	s3-1.34,3-3v-7h7c1.66,0,3-1.34,3-3S357.79,55.24,356.13,55.24z"/>
<path class="st10" d="M56.13,285.24h-7v-7c0-1.66-1.34-3-3-3s-3,1.34-3,3v7h-7c-1.66,0-3,1.34-3,3s1.34,3,3,3h7v7c0,1.66,1.34,3,3,3
	s3-1.34,3-3v-7h7c1.66,0,3-1.34,3-3S57.79,285.24,56.13,285.24z"/>
<g>
	<path class="st11" d="M348.33,264.12c-2.98,0-5.4-2.42-5.4-5.4c0-0.99-0.81-1.8-1.8-1.8c-0.99,0-1.8,0.81-1.8,1.8
		c0,2.98-2.42,5.4-5.4,5.4c-0.99,0-1.8,0.81-1.8,1.8c0,0.99,0.81,1.8,1.8,1.8c2.98,0,5.4,2.42,5.4,5.4c0,0.99,0.81,1.8,1.8,1.8
		c0.99,0,1.8-0.81,1.8-1.8c0-2.98,2.42-5.4,5.4-5.4c0.99,0,1.8-0.81,1.8-1.8C350.13,264.92,349.33,264.12,348.33,264.12z"/>
</g>
<g>
	<path class="st11" d="M68.33,104.12c-2.98,0-5.4-2.42-5.4-5.4c0-0.99-0.81-1.8-1.8-1.8c-0.99,0-1.8,0.81-1.8,1.8
		c0,2.98-2.42,5.4-5.4,5.4c-0.99,0-1.8,0.81-1.8,1.8s0.81,1.8,1.8,1.8c2.98,0,5.4,2.42,5.4,5.4c0,0.99,0.81,1.8,1.8,1.8
		c0.99,0,1.8-0.81,1.8-1.8c0-2.98,2.42-5.4,5.4-5.4c0.99,0,1.8-0.81,1.8-1.8S69.33,104.12,68.33,104.12z"/>
</g>
<g>
	<circle class="st11" cx="118.13" cy="15.92" r="3"/>
</g>
<g>
	<circle class="st11" cx="61.13" cy="63.92" r="3"/>
</g>
<g>
	<circle class="st11" cx="330.63" cy="303.42" r="2.5"/>
</g>
<g>
	<circle class="st11" cx="70.63" cy="28.42" r="2.5"/>
</g>
<g>
	<circle class="st11" cx="70.63" cy="211.42" r="2.5"/>
</g>
</svg>
