<svg version="1.1" id="Layer_1" xmlns="http://www.w3.org/2000/svg" x="0" y="0" viewBox="0 0 911.5 275" xml:space="preserve"><style>.st0{fill:#ffd886}.st1{fill:#515979}.st2{fill:#ffefcf}.st3{fill:#fde4dd}.st4{fill:#ffd9d9}.st5{fill:#fbccbf}.st7{fill:#f89d81}.st8{fill:#ffebeb}.st9{fill:#ffe8a0}.st10{fill:#9e9e9e}.st14{fill:#fff}.st15{fill:#b29d90}.st16{fill:#a88f7f}</style><path class="st0" d="M620.5 38c-1.7 0-3-1.3-3-3V15c0-1.7 1.3-3 3-3h280c1.7 0 3 1.3 3 3v20c0 1.7-1.3 3-3 3h-280z"/><path class="st1" d="M900.5 15v20h-280V15h280m0-6h-280c-3.3 0-6 2.7-6 6v20c0 3.3 2.7 6 6 6h280c3.3 0 6-2.7 6-6V15c0-3.3-2.7-6-6-6z"/><path class="st2" d="M620.5 15h280v4h-280z"/><path class="st3" d="M209.9 249c-5.4 0-10.6-2.3-14.2-6.3-3.4-3.8-5.1-8.7-4.8-13.7.3-5.1 2.5-9.7 6.3-13.1l27.7-24.8 14-67.3c-5.2-1.6-11.7-4.5-16.9-11-4.3-5.4-8-11.7-2.5-16.6 1.4-1.3 3.1-1.9 5-1.9 4.7 0 9 4.2 9.8 5.2 1.9 1.7 4.5 3.3 5.6 3.6 3.3-2.1 6.7-3.2 10.3-3.2 5.5 0 9.7 2.6 11.6 4 1-.1 2.4-.2 4.1-.2 7 0 11.8 1.6 14.4 4.7 1.2 1.5 2.5 4 1.8 7.9-.6 3.2-2.7 7.3-9.1 9.4 0 .7-.1 1.4-.2 2.1l-11.9 76.7c-.6 4.1-2.7 7.8-5.7 10.6l-32.7 29.3c-3.5 2.9-8 4.6-12.6 4.6z"/><path class="st1" d="M224.4 97.2c3.8 0 7.7 4.3 7.7 4.3s5 4.5 7.9 4.5c.4 0 .8-.1 1.1-.3 3.2-2.2 6.3-2.9 9-2.9 6.3 0 10.7 4.1 10.7 4.1s2.2-.3 5-.3c5.9 0 14.7 1.3 13.2 9-.8 4.3-4.4 6.6-9.2 7.7.2 1.3.2 2.6 0 3.9l-11.9 76.7c-.5 3.5-2.3 6.6-4.8 8.8l-.3.3-32.3 29c-3.1 2.7-6.9 4.1-10.7 4.1-4.4 0-8.8-1.8-11.9-5.3-5.9-6.6-5.3-16.7 1.2-22.6l28.4-25.5 14.6-70.4c0-.2.1-.4.2-.6-6.5-1.6-13-4.3-18.1-10.7-6.2-7.8-5.2-10.4-2.9-12.5 1.1-1 2.1-1.3 3.1-1.3m0-6c-2.6 0-5 .9-7 2.7-8.3 7.4-.7 17.1 2.2 20.7 4.8 6.1 10.6 9.3 15.7 11.2L222 189.6l-27 24.2c-4.4 3.9-7 9.3-7.3 15.2s1.7 11.5 5.6 15.9c4.2 4.6 10.1 7.3 16.4 7.3 5.4 0 10.6-2 14.7-5.6l32.3-29 .3-.3c3.6-3.2 6-7.6 6.7-12.3l11.9-76.7c0-.2 0-.3.1-.5 3.9-1.7 8.1-5 9.2-11 .9-5-.8-8.4-2.4-10.3-3.2-3.8-8.8-5.8-16.7-5.8-1.2 0-2.3 0-3.3.1-2.5-1.7-6.9-3.9-12.5-3.9-3.6 0-7.1.9-10.5 2.8-.9-.5-2.2-1.5-3.3-2.4-1.3-1.6-6.1-6.1-11.8-6.1z"/><path class="st4" d="M219 200.3l14.6 29.9 16.1-14.4-26.3-19.4z"/><path class="st5" d="M242.4 121.5c-.1.2-.1.4-.2.6l-3.4 16.3 30.9-10.9.1-.4c.2-1.3.2-2.6 0-3.9-6.3 1.2-25.9-1.3-27.4-1.7z"/><path class="st3" d="M91.1 249c-4.7 0-9.2-1.7-12.7-4.9l-32.6-29.3c-3.1-2.7-5.1-6.5-5.7-10.6l-11.9-76.7c-.1-.7-.2-1.4-.2-2.1-6.4-2.2-8.5-6.2-9.1-9.4-.7-3.9.6-6.4 1.8-7.9 2.6-3.1 7.4-4.7 14.4-4.7 1.7 0 3.1.1 4.1.2 1.9-1.4 6.2-4 11.6-4 3.5 0 7 1.1 10.3 3.2 1.1-.2 3.6-1.9 5.6-3.6.9-.9 5.1-5.2 9.8-5.2 1.9 0 3.6.7 5 1.9 5.5 5.1 1.8 11.3-2.5 16.8-5.2 6.5-11.7 9.4-16.9 11l14 67.3 27.7 24.8c3.8 3.4 6 8 6.3 13.1s-1.4 9.9-4.8 13.7c-3.6 4.1-8.8 6.4-14.2 6.4z"/><path class="st1" d="M76.6 97.2c1 0 2.1.3 3 1.1 2.3 2 3.3 4.7-2.9 12.5-5.1 6.4-11.6 9.2-18.1 10.7.1.2.1.4.2.6l14.6 70.4 28.4 25.5c6.6 5.9 7.1 16 1.2 22.6-3.2 3.5-7.5 5.3-11.9 5.3-3.8 0-7.6-1.3-10.7-4.1l-32.3-29-.3-.3c-2.5-2.2-4.2-5.3-4.8-8.8L31.1 127c-.2-1.3-.2-2.6 0-3.9-4.8-1.1-8.4-3.4-9.2-7.7-1.4-7.7 7.3-9 13.2-9 2.9 0 5 .3 5 .3s4.4-4.1 10.7-4.1c2.7 0 5.8.8 9 2.9.3.2.7.3 1.1.3 2.9 0 7.9-4.5 7.9-4.5s4-4.1 7.8-4.1m0-6c-5.7 0-10.5 4.5-11.9 6-1 .9-2.3 1.8-3.3 2.4-3.3-1.9-6.9-2.8-10.5-2.8-5.6 0-10 2.2-12.5 3.9-.9-.1-2-.1-3.3-.1-7.9 0-13.5 1.9-16.7 5.8-1.6 2-3.4 5.3-2.4 10.3 1.1 6 5.2 9.2 9.2 11 0 .2 0 .3.1.5l11.9 76.7c.7 4.7 3.1 9.1 6.7 12.3l.3.3 32.3 29c4 3.6 9.3 5.6 14.7 5.6 6.2 0 12.2-2.7 16.4-7.3 3.9-4.4 5.9-10 5.6-15.9s-2.9-11.3-7.3-15.2l-27-24.2-13.3-63.8c5.1-1.9 10.9-5.1 15.7-11.2 2.9-3.6 10.5-13.2 2.2-20.7-1.9-1.7-4.3-2.6-6.9-2.6z"/><path class="st5" d="M82 200.3l-14.6 29.9-16.1-14.4 26.3-19.4zM58.6 121.5c.1.2.1.4.2.6l3.4 16.3-30.9-10.9-.1-.4c-.2-1.3-.2-2.6 0-3.9 6.3 1.2 25.9-1.3 27.4-1.7z"/><path d="M99.5 311c-1.7 0-3-1.3-3-3v-46.1l-35.2-26.4c-1.2-.9-1.6-2.6-.8-3.9l21-36c.6-1 1.6-1.5 2.6-1.5.5 0 1 .1 1.4.4l37.3 20.6H178l37.3-20.6c.5-.3 1-.4 1.4-.4 1 0 2 .5 2.6 1.5l21 36c.8 1.3.4 3-.8 3.9l-35.2 26.4V308c0 1.7-1.3 3-3 3H99.5z" fill="#75a5c3"/><path class="st1" d="M216.8 197l21 36-36.3 27.3V308h-102v-47.6L63.2 233l21-36 38 21h56.7l37.9-21m0-6c-1 0-2 .2-2.9.7L177.3 212h-53.6l-36.6-20.2c-.9-.5-1.9-.7-2.9-.7-2.1 0-4.1 1.1-5.2 3l-21 36c-1.5 2.6-.9 6 1.6 7.8l34 25.5V308c0 3.3 2.7 6 6 6h102c3.3 0 6-2.7 6-6v-44.6l34-25.5c2.4-1.8 3.1-5.2 1.6-7.8l-21-36c-1.3-2-3.3-3.1-5.4-3.1z"/><path class="st7" d="M709.5 219c-1.7 0-3-1.3-3-3V102c0-29.8 24.2-54 54-54s54 24.2 54 54v114c0 1.7-1.3 3-3 3h-102z"/><path class="st1" d="M760.5 51c28.2 0 51 22.8 51 51v114h-102V102c0-28.2 22.8-51 51-51m0-6c-31.4 0-57 25.6-57 57v114c0 3.3 2.7 6 6 6h102c3.3 0 6-2.7 6-6V102c0-31.4-25.6-57-57-57z"/><path class="st8" d="M823.5 194.9c-2.9 0-5.8-.8-8.4-2.2-8-4.6-10.9-14.9-6.5-23 4.9-8.9 10.3-18.3 16.4-28.6 2.9-4.8 5.7-9.6 8.5-14.1l.7-1.2.1-.2c0-.1.1-.2.2-.3.1-.2.1-.3.2-.4l.1-.3v-.1l1.8-8c2.6-11.6 5-22.1 7.4-32.1 2.2-9.4 4.4-18.6 6.6-27.4-5.8-1.4-11.9-3.9-16.6-9.9-3.7-4.7-6.8-10-2-14.3 1.2-1.1 2.8-1.7 4.4-1.7 4 0 7.5 3.4 8.4 4.4 1.4 1.2 3.2 2.4 4.1 2.7 2.7-1.7 5.6-2.6 8.5-2.6 4.5 0 8 2 9.7 3.3.8-.1 1.9-.1 3.2-.1 5.9 0 10 1.4 12.2 4 1.1 1.3 2.2 3.5 1.6 6.9-.6 3-2.6 6.8-9 8.5-1.1 9.7-2.3 20-3.8 31.2-1.3 10.1-2.7 20.8-4.3 32.6l-1.1 8.1c0 .2-.2 1-.3 1.6s-.2 1.2-.4 1.8c-.3 1.2-.7 2.4-1.1 3.5-.4 1.2-.9 2.3-1.4 3.4l-.7 1.4-.5.9c-2.4 4.7-5 9.6-7.6 14.6-5.6 10.6-10.8 20-15.8 28.9-2.8 5.4-8.5 8.7-14.6 8.7z"/><path class="st1" d="M836.6 34c3.1 0 6.3 3.5 6.3 3.5s4.1 3.6 6.4 3.6c.3 0 .6-.1.9-.2 2.6-1.8 5.1-2.4 7.3-2.4 5.2 0 8.8 3.4 8.8 3.4s1.8-.2 4.1-.2c4.8 0 12 1 10.8 7.4-.7 3.9-4.2 5.8-8.8 6.6v.6c-1.2 10.9-2.5 21.8-3.9 32.7s-2.8 21.7-4.3 32.6l-1.1 8.1c0 .2-.1.9-.2 1.5s-.2 1.1-.4 1.7c-.3 1.1-.6 2.2-1 3.2-.4 1.1-.8 2.1-1.3 3.1l-.7 1.4-.5.9c-2.5 4.9-5 9.7-7.6 14.6-5.1 9.7-10.3 19.3-15.8 28.8-2.6 4.5-7.3 7.1-12.2 7.1-2.3 0-4.7-.6-6.9-1.8-6.7-3.8-9-12.2-5.3-18.9 5.3-9.6 10.8-19.1 16.4-28.5 2.8-4.7 5.6-9.4 8.5-14.1l.5-.9.1-.2.1-.1.1-.1c.1-.2.2-.4.4-.6.1-.2.2-.4.3-.7l.1-.3c0-.1.1-.1.1-.6l1.8-8c2.4-10.7 4.8-21.4 7.4-32.1 2.4-10.1 4.8-20.3 7.4-30.4-6.3-1.2-12.9-3.2-17.9-9.5-5.1-6.4-4.2-8.6-2.4-10.2.8-.7 1.7-1 2.5-1m0-6c-2.4 0-4.6.9-6.4 2.5-7.6 6.8-.6 15.5 1.7 18.4 4.5 5.6 9.9 8.5 15.3 10.1-2 7.9-4 16.2-5.9 24.6-2.4 10-4.8 20.5-7.4 32.1l-1.8 8v.1c0 .1-.1.1-.1.1v.1c-.1.1-.1.2-.2.2l-.1.2-.5.9c-2.7 4.5-5.6 9.2-8.5 14.1-6.1 10.3-11.5 19.7-16.5 28.7-5.2 9.5-1.8 21.7 7.6 27 3 1.7 6.4 2.6 9.9 2.6 7.2 0 13.8-3.9 17.4-10.1 5.1-8.9 10.2-18.4 15.9-29 2.6-5 5.2-9.9 7.6-14.6l.5-.9.7-1.4s0-.1.1-.1c.6-1.2 1.1-2.4 1.6-3.7.4-1.2.8-2.5 1.2-3.8.2-.7.3-1.3.4-2 .1-.5.2-1.3.3-1.8l1.1-8.1c1.6-11.8 3.1-22.5 4.3-32.7 1.4-10.5 2.5-20.1 3.6-29.3 6.7-2.5 8.6-7.3 9.1-10.2.8-4.5-.8-7.6-2.2-9.4-2.8-3.4-7.7-5.1-14.5-5.1-.9 0-1.7 0-2.4.1-2.2-1.4-5.9-3.2-10.5-3.2-3 0-5.8.7-8.5 2.1-.6-.4-1.4-1-2-1.5-1.8-1.3-5.8-5-10.8-5z"/><path class="st4" d="M817.8 159.5l12.8 30.4c2.1-1.2 3.8-2.9 5.1-5.1 2.9-5 5.7-10.1 8.4-15.2l-23.9-14.4c-.7 1.5-1.6 2.9-2.4 4.3zM872.6 55.6c-8.3 1.2-18.2-1-18.2-1-1.1 4.3-2.2 8.6-3.2 12.9l20.6-5c.2-2.1.5-4.2.7-6.3 0-.2.1-.4.1-.6z"/><path class="st8" d="M699 194.9c-6.1 0-11.8-3.3-14.8-8.6-5-8.9-10.2-18.3-15.8-28.9-2.6-5-5.2-9.9-7.6-14.6l-.5-.9-.7-1.4c-.6-1.2-1-2.3-1.5-3.5-.4-1.1-.8-2.3-1.1-3.5-.1-.6-.3-1.2-.4-1.8-.1-.6-.2-1.4-.3-1.7l-1.1-8.1c-1.6-11.8-3.1-22.5-4.3-32.6-1.4-11.2-2.7-21.4-3.8-31.2-6.4-1.7-8.4-5.5-9-8.5-.6-3.4.5-5.6 1.6-6.9 2.2-2.7 6.3-4 12.2-4 1.3 0 2.4.1 3.2.1 1.7-1.2 5.2-3.3 9.7-3.3 2.9 0 5.8.9 8.5 2.6.9-.3 2.7-1.5 4.1-2.7.9-1 4.4-4.4 8.4-4.4 1.7 0 3.2.6 4.4 1.7 4.8 4.3 1.7 9.7-2 14.3-4.7 5.9-10.8 8.5-16.6 9.9 2.2 8.8 4.4 18 6.6 27.4 2.4 10 4.8 20.5 7.4 32.1l1.8 8.2.1.3c0 .1.1.2.2.3s.1.3.2.4c0 0 .2.2.2.3l.7 1.1c2.7 4.5 5.6 9.2 8.5 14.1 6.1 10.3 11.5 19.7 16.4 28.6 4.5 8.1 1.6 18.4-6.5 23-2.4 1.4-5.3 2.2-8.2 2.2z"/><path class="st1" d="M685.9 34c.8 0 1.7.3 2.4.9 1.9 1.7 2.7 3.8-2.4 10.2-5 6.3-11.6 8.3-17.9 9.5 2.6 10.1 5 20.2 7.4 30.4 2.5 10.7 5 21.4 7.4 32.1l1.8 8c.1.4.1.4.1.6l.1.3c.1.2.2.4.3.7.1.2.2.4.4.6l.1.1.1.1.1.2.5.9c2.9 4.7 5.7 9.4 8.5 14.1 5.6 9.4 11.1 18.9 16.4 28.5 3.7 6.7 1.3 15.1-5.3 18.9-2.2 1.2-4.6 1.8-6.9 1.8-4.9 0-9.6-2.5-12.2-7.1-5.4-9.5-10.6-19.1-15.8-28.8-2.6-4.8-5.1-9.7-7.6-14.6l-.5-.9-.7-1.4c-.5-1-.9-2.1-1.3-3.1-.4-1.1-.7-2.1-1-3.2-.1-.5-.3-1.1-.4-1.7-.1-.5-.2-1.2-.2-1.5l-1.1-8.1c-1.5-10.9-3-21.7-4.3-32.6-1.4-10.9-2.7-21.8-3.9-32.7v-.6c-4.6-.8-8.1-2.7-8.8-6.6-1.2-6.3 6-7.4 10.8-7.4 2.3 0 4.1.2 4.1.2s3.6-3.4 8.8-3.4c2.2 0 4.7.6 7.3 2.4.3.2.6.2.9.2 2.4 0 6.4-3.6 6.4-3.6s3.3-3.4 6.4-3.4m0-6c-5 0-9 3.7-10.5 5.2-.6.5-1.3 1.1-2 1.5-2.7-1.4-5.6-2.1-8.5-2.1-4.6 0-8.3 1.8-10.5 3.2-.7 0-1.5-.1-2.4-.1-6.8 0-11.7 1.7-14.5 5.1-1.5 1.8-3.1 4.8-2.2 9.4.5 2.9 2.5 7.7 9.1 10.2 1 9.2 2.2 18.9 3.6 29.3 1.3 10.2 2.7 20.8 4.3 32.7l1.1 8.1c.1.5.2 1.3.3 1.8.1.6.3 1.2.4 1.9.3 1.3.7 2.6 1.2 3.8.5 1.3 1 2.5 1.6 3.7 0 0 0 .1.1.1l.7 1.4.5.9c2.4 4.7 5 9.6 7.6 14.6 5.6 10.6 10.8 20.1 15.9 29 3.5 6.2 10.2 10.1 17.4 10.1 3.5 0 6.9-.9 9.9-2.6 9.4-5.4 12.9-17.5 7.6-27-4.9-8.9-10.3-18.3-16.5-28.7-2.9-4.9-5.8-9.6-8.5-14.1l-.5-.9-.1-.2c-.1-.1-.1-.2-.2-.2v-.1s0-.1-.1-.1c0-.1 0-.1-.1-.1l-1.8-8c-2.6-11.6-5-22.1-7.4-32.1-2-8.4-4-16.7-5.9-24.6 5.4-1.7 10.8-4.5 15.3-10.1 2.3-2.9 9.2-11.6 1.7-18.4-2-1.7-4.2-2.6-6.6-2.6z"/><path class="st4" d="M704.7 159.5L691.9 190c-2.1-1.2-3.8-2.9-5.1-5.1-2.9-5-5.7-10.1-8.4-15.2l23.9-14.4 2.4 4.2zM650 55.6c8.3 1.2 18.2-1 18.2-1 1.1 4.3 2.2 8.6 3.2 12.9l-20.6-5c-.2-2.1-.5-4.2-.7-6.3-.1-.2-.1-.4-.1-.6z"/><path class="st8" d="M719.5 137.8c-6.1 0-11-4.9-11-11v-1.6c0-6.1 4.9-11 11-11 1.7 0 3 1.3 3 3v17.6c0 1.7-1.3 3-3 3z"/><path class="st1" d="M719.5 117.2v17.6c-4.4 0-8-3.6-8-8v-1.6c0-4.4 3.6-8 8-8m0-6c-7.7 0-14 6.3-14 14v1.6c0 7.7 6.3 14 14 14 3.3 0 6-2.7 6-6v-17.6c0-3.3-2.7-6-6-6z"/><path class="st4" d="M719.5 134.8c-4.4 0-8-3.6-8-8v-1.6c0-4.4 3.6-8 8-8v17.6z"/><circle class="st9" cx="716.5" cy="141" r="6"/><path class="st1" d="M716.5 138c1.7 0 3 1.3 3 3s-1.3 3-3 3-3-1.3-3-3 1.3-3 3-3m0-6c-5 0-9 4-9 9s4 9 9 9 9-4 9-9-4-9-9-9zM55.8 210c-1.1 0-2-.9-2-2 0-5.3-3.5-5.9-4.2-6-1.1-.1-1.9-1.1-1.8-2.2s1-1.9 2.1-1.8c2.7.2 7.9 2.5 7.9 10 0 1.1-.9 2-2 2z"/><path class="st5" d="M245.5 210c-1.1 0-2-.9-2-2 0-3.3.8-5.9 2.6-7.7 2.3-2.3 5.1-2.4 5.4-2.4 1.1 0 2 .9 2 2s-.9 2-2 2c-.7 0-4.1.4-4 6 0 1.2-.9 2.1-2 2.1z"/><circle class="st10" cx="189.5" cy="120" r="20"/><path class="st1" d="M189.5 103c9.4 0 17 7.6 17 17s-7.6 17-17 17-17-7.6-17-17 7.6-17 17-17m0-6c-12.7 0-23 10.3-23 23s10.3 23 23 23 23-10.3 23-23-10.3-23-23-23z"/><circle class="st10" cx="111.5" cy="120" r="20"/><path class="st1" d="M111.5 103c9.4 0 17 7.6 17 17s-7.6 17-17 17-17-7.6-17-17 7.6-17 17-17m0-6c-12.7 0-23 10.3-23 23s10.3 23 23 23 23-10.3 23-23-10.3-23-23-23z"/><circle class="st10" cx="191.5" cy="141" r="20"/><path class="st1" d="M191.5 124c9.4 0 17 7.6 17 17s-7.6 17-17 17-17-7.6-17-17 7.6-17 17-17m0-6c-12.7 0-23 10.3-23 23s10.3 23 23 23 23-10.3 23-23-10.3-23-23-23z"/><circle class="st10" cx="109.5" cy="141" r="20"/><path class="st1" d="M109.5 124c9.4 0 17 7.6 17 17s-7.6 17-17 17-17-7.6-17-17 7.6-17 17-17m0-6c-12.7 0-23 10.3-23 23s10.3 23 23 23 23-10.3 23-23-10.3-23-23-23z"/><path d="M711.5 278c-1.6 0-3-1.3-3-2.9l-1-45.7-26.5-41.8c-.7-1.1-.6-2.5.2-3.5l23-29c.5-.7 1.4-1.1 2.2-1.1h.1c.8 0 1.6.3 2.2 1l24.9 27h53.8l24.9-27c.6-.6 1.4-1 2.2-1h.1c.9 0 1.7.4 2.2 1.1l24 29c.8 1 .9 2.5.2 3.6l-27.5 41.8-1 45.6c0 1.6-1.4 2.9-3 2.9h-98z" fill="#8988c9"/><path class="st1" d="M814.5 157l24 29-28 42.5-1 46.5h-98l-1-46.5-27-42.5 23-29 25.8 28h56.5l25.7-28m-108-6h-.2c-1.8.1-3.4.9-4.5 2.3l-23 29c-1.6 2-1.7 4.8-.4 6.9l26.1 41.1 1 44.8c.1 3.3 2.7 5.9 6 5.9h98c3.3 0 5.9-2.6 6-5.9l1-44.8 27-41.1c1.5-2.2 1.3-5.1-.4-7.1l-24-29c-1.1-1.3-2.7-2.1-4.5-2.2h-.2c-1.7 0-3.3.7-4.4 1.9l-24 26.1h-51.2l-24-26.1c-1-1.1-2.6-1.8-4.3-1.8z"/><path class="st3" d="M150.5 241c-9.9 0-18-8.1-18-18v-35c0-1.7 1.3-3 3-3h30c1.7 0 3 1.3 3 3v35c0 9.9-8.1 18-18 18z"/><path class="st1" d="M165.5 188v35c0 8.3-6.7 15-15 15s-15-6.7-15-15v-35h30m0-6h-30c-3.3 0-6 2.7-6 6v35c0 11.6 9.4 21 21 21s21-9.4 21-21v-35c0-3.3-2.7-6-6-6z"/><path class="st5" d="M135.5 193v29.2c4.7 1.8 9.7 2.8 15 2.8s10.3-1 15-2.8V193h-30z"/><path class="st1" d="M148.5 222c-1.1 0-2-.9-2-2s.9-2 2-2c2.2 0 4-1.8 4-4s-1.8-4-4-4c-1.1 0-2-.9-2-2s.9-2 2-2c4.4 0 8 3.6 8 8s-3.6 8-8 8z"/><path class="st3" d="M194.5 175c-1.7 0-3-1.3-3-3v-22c0-1.7 1.3-3 3-3 7.2 0 13 5.8 13 13v2c0 7.2-5.8 13-13 13z"/><path class="st1" d="M194.5 150c5.5 0 10 4.5 10 10v2c0 5.5-4.5 10-10 10v-22m0-6c-3.3 0-6 2.7-6 6v22c0 1.6.6 3.1 1.8 4.2 1.1 1.1 2.7 1.8 4.2 1.8 8.8 0 16-7.2 16-16v-2c0-8.8-7.2-16-16-16z"/><path class="st3" d="M106.5 175c-7.2 0-13-5.8-13-13v-2c0-7.2 5.8-13 13-13 1.7 0 3 1.3 3 3v22c0 1.7-1.3 3-3 3z"/><path class="st1" d="M106.5 150v22c-5.5 0-10-4.5-10-10v-2c0-5.5 4.5-10 10-10m0-6c-8.8 0-16 7.2-16 16v2c0 8.8 7.2 16 16 16 3.3 0 6-2.7 6-6v-22c0-1.6-.6-3.1-1.8-4.2s-2.6-1.8-4.2-1.8z"/><path class="st5" d="M106.5 172c-5.5 0-10-4.5-10-10v-2c0-5.5 4.5-10 10-10v22z"/><path class="st3" d="M150.5 211c-24.3 0-44-19.7-44-44v-30c0-24.3 19.7-44 44-44s44 19.7 44 44v30c0 24.3-19.7 44-44 44z"/><path class="st1" d="M150.5 96c22.6 0 41 18.4 41 41v30c0 22.6-18.4 41-41 41s-41-18.4-41-41v-30c0-22.6 18.4-41 41-41m0-6c-25.9 0-47 21.1-47 47v30c0 25.9 21.1 47 47 47s47-21.1 47-47v-30c0-25.9-21.1-47-47-47z"/><path class="st5" d="M117.5 167v-30c0-21.3 16.2-38.8 37-40.8-1.3-.1-2.6-.2-4-.2-22.6 0-41 18.4-41 41v30c0 22.6 18.4 41 41 41 1.4 0 2.7-.1 4-.2-20.8-2-37-19.5-37-40.8z"/><path class="st1" d="M134.5 149.5c-1.7 0-3-1.3-3-3 0-1.1-.9-2-2-2s-2 .9-2 2c0 1.7-1.3 3-3 3s-3-1.3-3-3c0-4.4 3.6-8 8-8s8 3.6 8 8c0 1.7-1.3 3-3 3zM176.5 148.5c-1.7 0-3-1.3-3-3 0-1.1-.9-2-2-2s-2 .9-2 2c0 1.7-1.3 3-3 3s-3-1.3-3-3c0-4.4 3.6-8 8-8s8 3.6 8 8c0 1.7-1.3 3-3 3zM150.5 190.5c-10.2 0-18.5-8.3-18.5-18.5 0-1.4 1.1-2.5 2.5-2.5h32c1.4 0 2.5 1.1 2.5 2.5 0 10.2-8.3 18.5-18.5 18.5z"/><path class="st1" d="M166.5 172c0 8.8-7.2 16-16 16s-16-7.2-16-16h32m0-5h-32c-2.8 0-5 2.2-5 5 0 11.6 9.4 21 21 21 11.5 0 20.9-9.3 21-20.8v-.2c0-2.8-2.2-5-5-5zm0 10z"/><ellipse cx="150.5" cy="182.7" rx="11.9" ry="5.3" fill="#ef7d7d"/><path class="st8" d="M760.5 225c-.8 0-1.6-.3-2.2-.9-1.4-1.5-13.8-14.8-13.8-24.1v-45c0-1.7 1.3-3 3-3h26c1.7 0 3 1.3 3 3v45c0 9.2-12.4 22.6-13.8 24.1-.6.6-1.4.9-2.2.9z"/><path class="st1" d="M773.5 155v45c0 8.3-13 22-13 22s-13-13.7-13-22v-45h26m0-6h-26c-3.3 0-6 2.7-6 6v45c0 4.8 2.5 10.6 7.6 17.6 3.4 4.7 6.9 8.3 7 8.5 1.1 1.2 2.7 1.9 4.4 1.9s3.2-.7 4.4-1.9c.1-.2 3.6-3.8 7-8.5 5.1-7.1 7.6-12.8 7.6-17.6v-45c0-3.3-2.7-6-6-6z"/><path class="st5" d="M158.5 153c0 4.4-3.6 8-8 8s-8-3.6-8-8h16z"/><path class="st1" d="M150.5 164c-6.1 0-11-4.9-11-11v-12c0-1.7 1.3-3 3-3s3 1.3 3 3v12c0 2.8 2.2 5 5 5s5-2.2 5-5v-12c0-1.7 1.3-3 3-3s3 1.3 3 3v12c0 6.1-4.9 11-11 11z"/><path d="M747.5 157v29.9c4.1 1.3 8.5 2.1 13 2.1s8.9-.7 13-2.1V157h-26z" fill="#ffe6e5"/><path class="st1" d="M164.3 128.4c.9-.6 1.6-.9 2.4-1.3.8-.3 1.6-.6 2.5-.8 1.7-.4 3.6-.5 5.4-.2 1.9.3 3.8 1 5.5 2.2 1.7 1.2 2.9 3 3.5 4.8.5 1.4-.3 3-1.8 3.4-.7.2-1.4.2-2-.1l-.7-.3c-1.2-.6-2-1-2.9-1.3-.9-.3-1.8-.5-2.8-.7-1.1-.2-2.2-.3-3.4-.3-.6 0-1.3-.1-1.9-.1-.6-.1-1.4 0-1.9-.1l-.8-.2c-1.5-.3-2.4-1.7-2.1-3.2 0-.8.4-1.4 1-1.8zM134.9 133.4c-.6.1-1.3.1-1.9.1-.6 0-1.3.1-1.9.1-1.2.1-2.4.2-3.4.3-1 .2-1.9.4-2.8.7-.9.3-1.7.8-2.9 1.3l-.7.3c-1.3.7-3 .1-3.6-1.2-.3-.7-.4-1.4-.1-2 .6-1.8 1.8-3.6 3.5-4.8 1.7-1.2 3.6-1.9 5.5-2.2 1.9-.3 3.7-.2 5.4.2.9.2 1.7.5 2.5.8.8.4 1.5.7 2.4 1.3 1.2.8 1.5 2.5.7 3.7-.4.6-1 1-1.7 1.1l-1 .3z"/><circle class="st10" cx="123.5" cy="102" r="19"/><path class="st1" d="M123.5 86c8.8 0 16 7.2 16 16s-7.2 16-16 16-16-7.2-16-16 7.2-16 16-16m0-6c-12.1 0-22 9.9-22 22s9.9 22 22 22 22-9.9 22-22-9.9-22-22-22z"/><g><circle class="st10" cx="177.5" cy="102" r="19"/><path class="st1" d="M177.5 86c8.8 0 16 7.2 16 16s-7.2 16-16 16-16-7.2-16-16 7.2-16 16-16m0-6c-12.1 0-22 9.9-22 22s9.9 22 22 22 22-9.9 22-22-9.9-22-22-22z"/></g><g><circle class="st10" cx="150.5" cy="96" r="20"/><path class="st1" d="M150.5 79c9.4 0 17 7.6 17 17s-7.6 17-17 17-17-7.6-17-17 7.6-17 17-17m0-6c-12.7 0-23 10.3-23 23s10.3 23 23 23 23-10.3 23-23-10.3-23-23-23z"/></g><g><path class="st7" d="M779.5 219c-1.7 0-3-1.3-3-3v-90c0-1.7 1.3-3 3-3h32c1.7 0 3 1.3 3 3v58c0 19.3-15.7 35-35 35z"/><path class="st1" d="M811.5 126v58c0 17.7-14.3 32-32 32v-90h32m0-6h-32c-3.3 0-6 2.7-6 6v90c0 3.3 2.7 6 6 6 21 0 38-17 38-38v-58c0-3.3-2.7-6-6-6z"/></g><g><path class="st8" d="M801.5 137.8c-1.7 0-3-1.3-3-3v-17.6c0-1.7 1.3-3 3-3 6.1 0 11 4.9 11 11v1.6c0 6.1-4.9 11-11 11z"/><path class="st1" d="M801.5 117.2c4.4 0 8 3.6 8 8v1.6c0 4.4-3.6 8-8 8v-17.6m0-6c-3.3 0-6 2.7-6 6v17.6c0 3.3 2.7 6 6 6 7.7 0 14-6.3 14-14v-1.6c0-7.7-6.3-14-14-14z"/></g><g><circle class="st9" cx="804.5" cy="141" r="6"/><path class="st1" d="M804.5 138c1.7 0 3 1.3 3 3s-1.3 3-3 3-3-1.3-3-3 1.3-3 3-3m0-6c-5 0-9 4-9 9s4 9 9 9 9-4 9-9-4-9-9-9z"/></g><g><path class="st8" d="M760.5 170c-22.6 0-41-18.4-41-41v-24c0-22.6 18.4-41 41-41s41 18.4 41 41v24c0 22.6-18.4 41-41 41z"/><path class="st1" d="M760.5 67c21 0 38 17 38 38v24c0 21-17 38-38 38s-38-17-38-38v-24c0-21 17-38 38-38m0-6c-24.3 0-44 19.7-44 44v24c0 24.3 19.7 44 44 44s44-19.7 44-44v-24c0-24.3-19.7-44-44-44z"/></g><g><path class="st4" d="M730.5 129v-24c0-19.6 14.9-35.8 34-37.8-1.3-.1-2.6-.2-4-.2-21 0-38 17-38 38v24c0 21 17 38 38 38 1.4 0 2.7-.1 4-.2-19.1-2-34-18.2-34-37.8z"/></g><g><path class="st5" d="M767.5 119c0 3.9-3.1 7-7 7s-7-3.1-7-7h14z"/></g><g><path class="st1" d="M773.3 96.1c.7-.5 1.3-.9 2-1.2.7-.3 1.4-.6 2.1-.8 1.5-.4 3.1-.6 4.7-.4.8.1 1.6.3 2.4.6.4.1.8.4 1.1.5.4.2.7.4 1.1.6 1.4.9 2.4 2.2 3.1 3.6.4.8.1 1.8-.7 2.3-.5.3-1.2.2-1.6-.1l-.3-.2c-1-.6-1.9-1.3-2.8-1.6-.9-.4-1.8-.7-2.9-.8-1-.1-2.1-.1-3.2-.1-1.1.1-2.3.3-3.4.5h-.3c-.9.1-1.8-.5-1.9-1.4-.1-.6.1-1.2.6-1.5z"/></g><g><path class="st1" d="M746.1 99c-1.1-.2-2.3-.4-3.4-.5s-2.2-.1-3.2.1c-1 .1-1.9.4-2.9.8s-1.8 1-2.8 1.6l-.2.1c-.8.5-1.8.2-2.3-.6-.3-.5-.3-1.1-.1-1.6.7-1.4 1.7-2.7 3.1-3.6.3-.3.7-.5 1.1-.6.4-.2.7-.4 1.1-.5.8-.3 1.6-.5 2.4-.6 1.6-.2 3.2-.1 4.7.4.7.2 1.5.5 2.1.8.7.3 1.3.7 2 1.2.7.6.8 1.6.3 2.4-.4.5-1 .7-1.6.6h-.3z"/></g><g><path class="st1" d="M760.8 137c-4.9 0-9.9-1.1-14.2-3.2-1-.5-1.4-1.7-.9-2.7s1.7-1.4 2.7-.9c7.5 3.7 17.6 3.7 24.1 0 1-.5 2.2-.2 2.7.8s.2 2.2-.8 2.7c-3.8 2.2-8.6 3.3-13.6 3.3z"/></g><g><path class="st1" d="M756.7 139.8c.6.2 1.2.3 1.9.3.6.1 1.3.1 1.9.1s1.3-.1 1.9-.1c.6-.1 1.3-.2 1.9-.3.7-.2 1.4.2 1.6.9.1.5 0 1-.4 1.3l-.7.7c-.6.6-1.3.9-2 1.1-.7.2-1.4.3-2.2.3-.7 0-1.5-.1-2.2-.3s-1.4-.5-2-1.1l-.7-.7c-.5-.5-.6-1.3-.1-1.8.2-.4.7-.5 1.1-.4z"/></g><g><path class="st7" d="M713.3 93.4c13.2 0 35.2-25.4 35.2-25.4s21.5 31 61 31l-4-18.9-9.2-11.9-15.1-10.7-21.2-4.6-21.5 4.9-14.6 10.4-7.8 10.7-2.8 14.5z"/></g><g><path class="st1" d="M807.5 102c-33.3 0-52.8-20.8-59.2-29.1-2.1 2.5-5.5 6.2-9.4 10-9.4 9-17.4 13.5-23.6 13.5-1.7 0-3-1.3-3-3s1.3-3 3-3c4.5 0 11.4-4.2 19.4-11.8 6.4-6.1 11.4-12.4 11.4-12.4.6-.8 1.5-1.2 2.5-1.1s1.9.6 2.4 1.4c.2.3 19.1 29.6 56.5 29.6 1.7 0 3 1.3 3 3s-1.3 2.9-3 2.9z"/></g><g><path class="st1" d="M798.5 90.5c-.2 0-.5 0-.7-.1-26.6-7.7-40.7-26.1-41.3-26.9-.8-1.1-.6-2.7.5-3.5s2.7-.6 3.5.5c.1.2 13.8 17.9 38.7 25.1 1.3.4 2.1 1.8 1.7 3.1-.3 1.1-1.3 1.8-2.4 1.8z"/></g><g><path class="st1" d="M760.5 128.5c-5.2 0-9.5-4.3-9.5-9.5v-15c0-1.4 1.1-2.5 2.5-2.5s2.5 1.1 2.5 2.5v15c0 2.5 2 4.5 4.5 4.5s4.5-2 4.5-4.5v-15c0-1.4 1.1-2.5 2.5-2.5s2.5 1.1 2.5 2.5v15c0 5.2-4.3 9.5-9.5 9.5z"/></g><g><circle class="st1" cx="779.5" cy="107" r="6"/><circle class="st14" cx="781.5" cy="107" r="1.5"/><path class="st1" d="M783.5 116c-.4 0-.7-.1-1-.3-1.6-1-4.4-1-5.9 0-.9.6-2.2.3-2.7-.7-.6-.9-.3-2.2.7-2.7 2.8-1.7 7.2-1.7 10.1 0 .9.6 1.2 1.8.7 2.7-.6.7-1.2 1-1.9 1z"/></g><g><circle class="st1" cx="741.5" cy="107" r="6"/><path class="st1" d="M745.5 116c-.4 0-.7-.1-1-.3-1.6-1-4.4-1-5.9 0-.9.6-2.2.3-2.7-.7-.6-.9-.3-2.2.7-2.7 2.8-1.7 7.2-1.7 10.1 0 .9.6 1.2 1.8.7 2.7-.6.7-1.2 1-1.9 1z"/><circle class="st14" cx="743.5" cy="107" r="1.5"/></g><g><path class="st1" d="M788.5 208.5c-1.4 0-2.5-1.1-2.5-2.5v-46c0-1.4 1.1-2.5 2.5-2.5s2.5 1.1 2.5 2.5v46c0 1.4-1.1 2.5-2.5 2.5z"/></g><g><path class="st1" d="M800.5 197.5c-1.4 0-2.5-1.1-2.5-2.5v-46c0-1.4 1.1-2.5 2.5-2.5s2.5 1.1 2.5 2.5v46c0 1.4-1.1 2.5-2.5 2.5z"/></g><g><path class="st0" d="M10.5 102c-1.7 0-3-1.3-3-3V79c0-1.7 1.3-3 3-3h280c1.7 0 3 1.3 3 3v20c0 1.7-1.3 3-3 3h-280z"/><path class="st1" d="M290.5 79v20h-280V79h280m0-6h-280c-3.3 0-6 2.7-6 6v20c0 3.3 2.7 6 6 6h280c3.3 0 6-2.7 6-6V79c0-3.3-2.7-6-6-6z"/></g><g><path class="st2" d="M10.5 79h280v4h-280z"/></g><g><path class="st3" d="M280.2 108.2c-2.6-3.1-7.4-4.7-14.4-4.7-1.7 0-3.1.1-4.1.2-1.9-1.4-6.2-4-11.6-4-3.5 0-7 1.1-10.3 3.2-1.1-.2-3.6-1.9-5.6-3.6-.9-.9-5.1-5.1-9.8-5.1-1.9 0-3.6.7-5 1.9-5.5 4.9-1.8 11.1 2.5 16.6l.3.3h59.9c-.2-2.2-1.1-3.8-1.9-4.8zM79 112.7c4.3-5.4 8-11.7 2.5-16.6-1.4-1.3-3.1-1.9-5-1.9-4.7 0-9 4.2-9.8 5.2-1.9 1.7-4.5 3.3-5.5 3.6-3.3-2.1-6.7-3.2-10.3-3.2-5.5 0-9.7 2.6-11.6 4-1-.1-2.4-.2-4.1-.2-7 0-11.8 1.6-14.4 4.7-.9 1-1.7 2.6-1.9 4.8h59.9c0-.2.1-.3.2-.4z"/></g><g><path class="st1" d="M224.3 110.8c-6.2-7.8-5.2-10.4-2.9-12.5.9-.8 1.9-1.1 3-1.1 3.8 0 7.7 4.3 7.7 4.3s5 4.5 7.9 4.5c.4 0 .8-.1 1.1-.3 3.2-2.2 6.3-2.9 9-2.9 6.3 0 10.7 4.1 10.7 4.1s2.2-.3 5-.3c5.2 0 12.6 1 13.3 6.5h6c-.2-3.1-1.5-5.3-2.7-6.7-3.2-3.8-8.8-5.8-16.7-5.8-1.2 0-2.3 0-3.3.1-2.5-1.7-6.9-3.9-12.5-3.9-3.6 0-7.1.9-10.5 2.8-.9-.5-2.2-1.5-3.3-2.4-1.4-1.5-6.2-6-11.9-6-2.6 0-5 .9-7 2.7-7.3 6.6-2.3 14.8 1 19.1h7.8c-.4-.7-1-1.4-1.7-2.2zM35.2 106.5c2.9 0 5 .3 5 .3s4.4-4.1 10.7-4.1c2.7 0 5.8.8 9 2.9.3.2.7.3 1.1.3 2.9 0 7.9-4.5 7.9-4.5s4-4.3 7.7-4.3c1 0 2.1.3 3 1.1 2.3 2 3.3 4.7-2.9 12.5-.6.8-1.3 1.5-1.9 2.2h7.8c3.3-4.3 8.3-12.6 1-19.1-2-1.8-4.4-2.7-7-2.7-5.7 0-10.5 4.5-11.9 6-1 .9-2.3 1.8-3.3 2.4-3.3-1.9-6.9-2.8-10.5-2.8-5.6 0-10 2.2-12.5 3.9-.9-.1-2-.1-3.3-.1-7.9 0-13.5 1.9-16.7 5.8-1.2 1.4-2.5 3.6-2.7 6.7h6c.9-5.5 8.3-6.5 13.5-6.5z"/></g><g><path class="st0" d="M314.5 70c-1.7 0-3-1.3-3-3V47c0-1.7 1.3-3 3-3h280c1.7 0 3 1.3 3 3v20c0 1.7-1.3 3-3 3h-280z"/><path class="st1" d="M594.5 47v20h-280V47h280m0-6h-280c-3.3 0-6 2.7-6 6v20c0 3.3 2.7 6 6 6h280c3.3 0 6-2.7 6-6V47c0-3.3-2.7-6-6-6z"/></g><g><path class="st2" d="M314.5 47h280v4h-280z"/></g><g><path class="st15" d="M403.8 224c-5.5 0-10.7-2.4-14.3-6.5l-32.7-37.4c-2.2-2.5-3.6-5.5-4-8.8l-10.9-76.9c-.1-.5-.1-1-.1-1.6-7.2-2-9.5-6.3-10.1-9.7-.7-3.9.6-6.4 1.8-7.9 2.6-3.1 7.4-4.7 14.4-4.7 1.7 0 3.1.1 4.1.2 1.9-1.4 6.2-4 11.6-4 3.5 0 7 1.1 10.3 3.2 1.1-.2 3.6-1.9 5.6-3.6.9-.9 5.1-5.2 9.8-5.2 1.9 0 3.6.7 5 1.9 5.5 4.9 1.8 11.1-2.5 16.6-5.3 6.7-12 9.7-17.8 11.3l15.1 68.2 29.2 33.4c6.9 7.9 6.1 19.9-1.8 26.8-3.7 3-8.1 4.7-12.7 4.7z"/><path class="st1" d="M389.2 64.2c1 0 2.1.3 3 1.1 2.3 2 3.3 4.7-2.9 12.5-5.4 6.7-12.2 9.4-19 11 .1.2.1.4.2.6l15.8 71.2 29.7 33.9c5.8 6.7 5.1 16.8-1.5 22.6-3 2.7-6.8 4-10.5 4-4.5 0-8.9-1.9-12.1-5.5l-32.3-37-.4-.4c-1.7-2-2.9-4.5-3.3-7.3L344.8 94c-.2-1.2-.2-2.4 0-3.5-5.3-1-9.4-3.3-10.2-7.9-1.4-7.7 7.3-9 13.2-9 2.9 0 5 .3 5 .3s4.4-4.1 10.7-4.1c2.7 0 5.8.8 9 2.9.3.2.7.3 1.1.3 2.9 0 7.9-4.5 7.9-4.5s4-4.3 7.7-4.3m0-6c-5.7 0-10.5 4.5-11.9 6-1 .9-2.3 1.8-3.3 2.4-3.3-1.9-6.9-2.8-10.5-2.8-5.6 0-10 2.2-12.5 3.9-.9-.1-2-.1-3.3-.1-7.9 0-13.5 1.9-16.7 5.8-1.6 2-3.4 5.3-2.4 10.3 1.2 6.4 5.9 9.7 10.2 11.4l10.8 76.7c.5 3.9 2.2 7.4 4.8 10.4l.4.4 32.3 37c4.2 4.8 10.2 7.5 16.6 7.5 5.3 0 10.5-1.9 14.5-5.4 9.1-8 10.1-21.9 2.1-31l-28.7-32.8L377.4 93c5.6-1.9 11.6-5.1 16.6-11.5 2.9-3.6 10.5-13.2 2.2-20.7-2-1.7-4.4-2.6-7-2.6z"/></g><g><path class="st16" d="M393.6 169l-11.8 35.1-14.6-16.7 25.4-19.5z"/></g><g><path class="st16" d="M344.8 90.4c6.3 1.2 14.4.4 21-.8 1.5-.3 2.9-.5 4.4-.9.1.2.1.4.2.6l3.5 15.7-29.1-11c-.1-1.2-.1-2.4 0-3.6z"/></g><g><path class="st1" d="M366.8 177c-1.1 0-2-.9-2-2 0-5.3-3.5-5.9-4.2-6-1.1-.1-1.9-1.1-1.8-2.2s1-1.9 2.1-1.8c2.7.2 7.9 2.5 7.9 10 0 1.1-.9 2-2 2z"/></g><g><path class="st15" d="M505.5 224c-4.6 0-9-1.7-12.5-4.7-7.9-6.9-8.7-18.9-1.8-26.8l29.2-33.4 15.1-68.2c-5.8-1.6-12.5-4.6-17.8-11.3-4.3-5.4-8-11.7-2.5-16.6 1.4-1.3 3.1-1.9 5-1.9 4.7 0 9 4.2 9.8 5.2 1.9 1.7 4.5 3.3 5.6 3.6 3.3-2.1 6.7-3.2 10.3-3.2 5.5 0 9.7 2.6 11.6 4 1-.1 2.4-.2 4.1-.2 7 0 11.8 1.6 14.4 4.7 1.2 1.5 2.5 4 1.8 7.9-.6 3.4-2.9 7.7-10.1 9.7 0 .5-.1 1.1-.1 1.6l-10.9 76.9c-.5 3.3-1.9 6.3-4 8.8L520 217.5c-3.8 4.1-9 6.5-14.5 6.5z"/><path class="st1" d="M520.1 64.2c3.8 0 7.7 4.3 7.7 4.3s5 4.5 7.9 4.5c.4 0 .8-.1 1.1-.3 3.2-2.2 6.3-2.9 9-2.9 6.3 0 10.7 4.1 10.7 4.1s2.2-.3 5-.3c5.9 0 14.7 1.3 13.2 9-.9 4.6-4.9 6.9-10.2 7.9.2 1.1.2 2.3 0 3.5l-10.9 76.9c-.4 2.8-1.6 5.3-3.3 7.3l-.4.4-32.3 37c-3.2 3.6-7.6 5.5-12.1 5.5-3.7 0-7.5-1.3-10.5-4-6.7-5.8-7.3-15.9-1.5-22.6l29.7-33.9L539 89.4c0-.2.1-.4.2-.6-6.8-1.6-13.7-4.2-19-11-6.2-7.8-5.2-10.4-2.9-12.5.7-.8 1.7-1.1 2.8-1.1m0-6c-2.6 0-5 .9-7 2.7-8.3 7.4-.7 17.1 2.2 20.7 5 6.3 11.1 9.6 16.6 11.5l-14.3 64.7-28.7 32.8c-8 9.1-7 23.1 2.1 31 4 3.5 9.2 5.4 14.5 5.4 6.4 0 12.4-2.7 16.6-7.5l32.3-37 .4-.4c2.6-2.9 4.2-6.5 4.8-10.4L570.4 95c4.4-1.7 9-5 10.2-11.4.9-5-.8-8.4-2.4-10.3-3.2-3.8-8.8-5.8-16.7-5.8-1.2 0-2.3 0-3.3.1-2.5-1.7-6.9-3.9-12.5-3.9-3.6 0-7.1.9-10.5 2.8-.9-.5-2.2-1.5-3.3-2.4-1.3-1.4-6.1-5.9-11.8-5.9z"/></g><g><path class="st16" d="M515.7 169l11.8 35.1 14.6-16.7-25.4-19.5z"/></g><g><path class="st16" d="M564.5 90.4c-6.3 1.2-14.4.4-21-.8-1.5-.3-2.9-.5-4.4-.9-.1.2-.1.4-.2.6l-3.5 15.7 29.1-11.1c.1-1.1.1-2.3 0-3.5z"/></g><g><path class="st1" d="M542.5 177c-1.1 0-2-.9-2-2 0-3.3.8-5.9 2.6-7.7 2.3-2.3 5.1-2.4 5.4-2.4 1.1 0 2 .9 2 2s-.9 2-2 2c-.7 0-4.1.4-4 6 0 1.2-.9 2.1-2 2.1z"/></g><g><path d="M402.5 290c-1.7 0-3-1.3-3-3v-52.3L372.3 205c-1-1.1-1.1-2.6-.2-3.8l24-33c.5-.7 1.3-1.2 2.2-1.2h.3c.8 0 1.5.3 2.1.8l26.9 26.2h54l26.9-26.2c.6-.5 1.3-.8 2.1-.8h.3c.9.1 1.7.5 2.2 1.2l24 33c.8 1.2.8 2.7-.2 3.8l-27.2 29.6V287c0 1.7-1.3 3-3 3H402.5z" fill="#7ddf96"/><path class="st1" d="M510.5 170l24 33-28 30.5V287h-104v-53.5l-28-30.5 24-33 27.8 27h56.5l27.7-27m0-6c-1.6 0-3.1.6-4.2 1.7l-26 25.3h-51.6l-26-25.3c-1.1-1.1-2.6-1.7-4.2-1.7h-.5c-1.7.1-3.3 1-4.3 2.4l-24 33c-1.7 2.3-1.5 5.5.4 7.6l26.4 28.8V287c0 3.3 2.7 6 6 6h104c3.3 0 6-2.7 6-6v-51.2l26.4-28.8c1.9-2.1 2.1-5.3.4-7.6l-24-33c-1-1.4-2.6-2.3-4.3-2.4h-.5z"/></g><g><path class="st15" d="M454.5 228c-9.9 0-18-8.1-18-18v-35c0-1.7 1.3-3 3-3h30c1.7 0 3 1.3 3 3v35c0 9.9-8.1 18-18 18z"/><path class="st1" d="M469.5 175v35c0 8.3-6.7 15-15 15s-15-6.7-15-15v-35h30m0-6h-30c-3.3 0-6 2.7-6 6v35c0 11.6 9.4 21 21 21s21-9.4 21-21v-35c0-3.3-2.7-6-6-6z"/></g><g><path class="st16" d="M439.5 173v29.2c4.7 1.8 9.7 2.8 15 2.8s10.3-1 15-2.8V173h-30z"/></g><g><path class="st1" d="M452.5 201c-1.1 0-2-.9-2-2s.9-2 2-2c2.2 0 4-1.8 4-4s-1.8-4-4-4c-1.1 0-2-.9-2-2s.9-2 2-2c4.4 0 8 3.6 8 8s-3.6 8-8 8z"/></g><g><path class="st15" d="M498.5 154c-1.7 0-3-1.3-3-3v-22c0-1.7 1.3-3 3-3 7.2 0 13 5.8 13 13v2c0 7.2-5.8 13-13 13z"/><path class="st1" d="M498.5 129c5.5 0 10 4.5 10 10v2c0 5.5-4.5 10-10 10v-22m0-6c-3.3 0-6 2.7-6 6v22c0 3.3 2.7 6 6 6 8.8 0 16-7.2 16-16v-2c0-8.8-7.2-16-16-16z"/></g><g><path class="st15" d="M410.5 154c-7.2 0-13-5.8-13-13v-2c0-7.2 5.8-13 13-13 1.7 0 3 1.3 3 3v22c0 1.7-1.3 3-3 3z"/><path class="st1" d="M410.5 129v22c-5.5 0-10-4.5-10-10v-2c0-5.5 4.5-10 10-10m0-6c-8.8 0-16 7.2-16 16v2c0 8.8 7.2 16 16 16 3.3 0 6-2.7 6-6v-22c0-3.3-2.7-6-6-6z"/></g><g><path class="st16" d="M410.5 151c-5.5 0-10-4.5-10-10v-2c0-5.5 4.5-10 10-10v22z"/></g><g><path class="st15" d="M454.5 190c-24.3 0-44-19.7-44-44v-30c0-24.3 19.7-44 44-44s44 19.7 44 44v30c0 24.3-19.7 44-44 44z"/><path class="st1" d="M454.5 75c22.6 0 41 18.4 41 41v30c0 22.6-18.4 41-41 41s-41-18.4-41-41v-30c0-22.6 18.4-41 41-41m0-6c-25.9 0-47 21.1-47 47v30c0 25.9 21.1 47 47 47s47-21.1 47-47v-30c0-25.9-21.1-47-47-47z"/></g><g><path class="st16" d="M421.5 146v-30c0-21.3 16.2-38.8 37-40.8-1.3-.1-2.6-.2-4-.2-22.6 0-41 18.4-41 41v30c0 22.6 18.4 41 41 41 1.4 0 2.7-.1 4-.2-20.8-2-37-19.5-37-40.8z"/></g><g><path class="st16" d="M462.5 132c0 4.4-3.6 8-8 8s-8-3.6-8-8h16z"/></g><g><path class="st1" d="M454.5 143c-6.1 0-11-4.9-11-11v-12c0-1.7 1.3-3 3-3s3 1.3 3 3v12c0 2.8 2.2 5 5 5s5-2.2 5-5v-12c0-1.7 1.3-3 3-3s3 1.3 3 3v12c0 6.1-4.9 11-11 11z"/></g><g><path class="st1" d="M468 109.5c.7-.6 1.3-1 2-1.4s1.4-.7 2.2-.9c1.6-.5 3.3-.7 5-.5s3.5.9 4.9 1.9c1.5 1 2.5 2.5 3.1 4 .5 1.2-.1 2.6-1.3 3.1-.6.3-1.3.2-1.9 0l-.5-.2c-1.1-.5-1.9-1-2.8-1.2-.8-.3-1.6-.5-2.5-.6s-1.8-.2-2.9-.1c-.5 0-1.1 0-1.6.1-.5 0-1.2.1-1.6.1l-.9-.1c-1.3-.1-2.2-1.2-2.1-2.5.2-.8.5-1.3.9-1.7z"/></g><g><path class="st1" d="M438.8 113.6c-.5 0-1.1-.1-1.6-.1-.6-.1-1.1-.1-1.6-.1-1 0-2 0-2.9.1s-1.7.3-2.5.6c-.9.3-1.7.8-2.8 1.2l-.5.2c-1.2.5-2.6 0-3.1-1.2-.3-.6-.3-1.3 0-1.9.6-1.5 1.7-3 3.1-4 1.4-1.1 3.2-1.8 4.9-1.9 1.7-.2 3.5 0 5 .5.8.2 1.5.6 2.2.9.7.4 1.3.8 2 1.4.9.9 1 2.3.2 3.3-.4.5-.9.7-1.5.8l-.9.2z"/></g><g><circle class="st1" cx="473.5" cy="122" r="6"/></g><g><circle class="st14" cx="475.5" cy="122" r="1.5"/></g><g><circle class="st1" cx="435.5" cy="122" r="6"/></g><g><path class="st1" d="M439.5 131c-.4 0-.7-.1-1-.3-1.6-1-4.4-1-5.9 0-.9.6-2.2.3-2.7-.7-.6-.9-.3-2.2.7-2.7 2.8-1.7 7.2-1.7 10.1 0 .9.6 1.2 1.8.7 2.7-.6.7-1.2 1-1.9 1z"/></g><g><path class="st1" d="M477.5 131c-.4 0-.7-.1-1-.3-1.6-1-4.4-1-5.9 0-.9.6-2.2.3-2.7-.7-.6-.9-.3-2.2.7-2.7 2.8-1.7 7.2-1.7 10.1 0 .9.6 1.2 1.8.7 2.7-.6.7-1.2 1-1.9 1z"/></g><g><circle class="st14" cx="437.5" cy="122" r="1.5"/></g><g><path class="st1" d="M454.9 152.5c-5.3 0-10.7-1.4-15.4-4.3-.9-.6-1.2-1.8-.7-2.7.6-.9 1.8-1.2 2.7-.7 8 4.9 18.9 4.9 25.8 0 .9-.6 2.2-.4 2.8.5s.4 2.2-.5 2.8c-4.1 2.9-9.4 4.4-14.7 4.4zM450.3 155.5c.7.2 1.4.4 2.1.5.7.1 1.4.2 2.1.2.7 0 1.4-.1 2.1-.2.7-.1 1.4-.2 2.1-.5.7-.2 1.5.2 1.7.9.2.5 0 1.1-.3 1.4l-.7.7c-.7.7-1.5 1-2.3 1.3s-1.7.4-2.5.4c-.9 0-1.7-.1-2.5-.4-.8-.3-1.6-.7-2.3-1.3l-.7-.7c-.5-.5-.6-1.4-.1-1.9.3-.4.8-.5 1.3-.4z"/></g></svg>