<?xml version="1.0" encoding="utf-8"?>
<!-- Generator: Adobe Illustrator 25.4.1, SVG Export Plug-In . SVG Version: 6.00 Build 0)  -->
<svg version="1.1" id="SEO_x5F_Hub-SEO_x5F_Keyword_x5F_Research_x5F_Tools"
	 xmlns="http://www.w3.org/2000/svg" xmlns:xlink="http://www.w3.org/1999/xlink" x="0px" y="0px" viewBox="0 0 400 400"
	 style="enable-background:new 0 0 400 400;" xml:space="preserve">
<style type="text/css">
	.st0{fill:#3CB48C;}
	.st1{fill:#515979;}
	.st2{fill:#7DDF96;}
	.st3{fill:#FFFFFF;}
	.st4{fill:#EF7D7D;}
	.st5{fill:#2DA0D2;}
	.st6{fill:#6ADAF7;}
	.st7{fill:#7170B2;}
	.st8{fill:#AAA0FF;}
	.st9{fill:#75A5C3;}
	.st10{fill:#F89D81;}
	.st11{fill:#508CB4;}
	.st12{fill:#ACC9DB;}
	.st13{fill:#FFD886;}
	.st14{fill:none;}
</style>
<g>
	<g>
		<g>
			<path class="st0" d="M43.22,110.75c-4.96,0-9-4.04-9-9v-58c0-4.96,4.04-9,9-9h148c4.96,0,9,4.04,9,9v58c0,4.96-4.04,9-9,9H43.22z
				"/>
		</g>
		<g>
			<g>
				<path class="st1" d="M191.22,37.75c3.31,0,6,2.69,6,6v58c0,3.31-2.69,6-6,6h-148c-3.31,0-6-2.69-6-6v-58c0-3.31,2.69-6,6-6
					H191.22 M191.22,31.75h-148c-6.62,0-12,5.38-12,12v58c0,6.62,5.38,12,12,12h148c6.62,0,12-5.38,12-12v-58
					C203.22,37.14,197.83,31.75,191.22,31.75L191.22,31.75z"/>
			</g>
		</g>
	</g>
	<g>
		<g>
			<path class="st2" d="M61.22,110.75c-4.96,0-9-4.04-9-9v-58c0-4.96,4.04-9,9-9h148c4.96,0,9,4.04,9,9v58c0,4.96-4.04,9-9,9H61.22z
				"/>
		</g>
		<g>
			<g>
				<path class="st1" d="M209.22,37.75c3.31,0,6,2.69,6,6v58c0,3.31-2.69,6-6,6h-148c-3.31,0-6-2.69-6-6v-58c0-3.31,2.69-6,6-6
					H209.22 M209.22,31.75h-148c-6.62,0-12,5.38-12,12v58c0,6.62,5.38,12,12,12h148c6.62,0,12-5.38,12-12v-58
					C221.22,37.14,215.83,31.75,209.22,31.75L209.22,31.75z"/>
			</g>
		</g>
	</g>
	<g>
		<g>
			<g>
				<path class="st1" d="M154.71,57.35c-0.32,0-0.64-0.08-0.94-0.24c-1.89-1.02-5.22-1.02-7.11,0c-0.98,0.52-2.19,0.16-2.71-0.82
					c-0.52-0.97-0.16-2.19,0.82-2.71c3.05-1.64,7.84-1.64,10.89,0c0.97,0.52,1.34,1.73,0.82,2.71
					C156.12,56.97,155.43,57.35,154.71,57.35z"/>
			</g>
			<g>
				<g>
					<circle class="st1" cx="150.22" cy="47.6" r="7"/>
				</g>
				<g>
					<circle class="st3" cx="151.97" cy="47.6" r="1.75"/>
				</g>
			</g>
			<g>
				<path class="st1" d="M145.24,24.59c0.61-0.55,1.11-0.88,1.72-1.22c0.6-0.32,1.22-0.59,1.88-0.8c1.32-0.41,2.78-0.57,4.26-0.39
					c1.48,0.15,2.99,0.73,4.21,1.63c1.26,0.87,2.13,2.1,2.67,3.38c0.44,1.04-0.05,2.24-1.1,2.68c-0.53,0.22-1.09,0.2-1.58,0
					l-0.45-0.19c-0.94-0.4-1.64-0.83-2.38-1.03c-0.71-0.25-1.37-0.43-2.13-0.52c-0.74-0.1-1.56-0.14-2.44-0.12
					c-0.44,0.01-0.91,0.02-1.37,0.06c-0.46,0.01-1,0.09-1.39,0.05l-0.78-0.08c-1.09-0.11-1.88-1.08-1.77-2.16
					C144.64,25.36,144.89,24.91,145.24,24.59z"/>
			</g>
			<g>
				<path class="st1" d="M124.71,57.35c-0.32,0-0.64-0.08-0.94-0.24c-1.89-1.02-5.22-1.02-7.11,0c-0.98,0.52-2.19,0.16-2.71-0.82
					c-0.52-0.97-0.16-2.19,0.82-2.71c3.05-1.64,7.84-1.64,10.89,0c0.97,0.52,1.34,1.73,0.82,2.71
					C126.12,56.97,125.43,57.35,124.71,57.35z"/>
			</g>
			<g>
				<g>
					<circle class="st1" cx="120.22" cy="47.6" r="7"/>
				</g>
				<g>
					<circle class="st3" cx="121.97" cy="47.6" r="1.75"/>
				</g>
			</g>
			<g>
				<path class="st1" d="M123.29,28.11c-0.39,0.04-0.94-0.05-1.39-0.05c-0.47-0.04-0.93-0.05-1.37-0.06
					c-0.89-0.02-1.7,0.02-2.44,0.12c-0.75,0.09-1.41,0.28-2.13,0.52c-0.74,0.21-1.43,0.64-2.38,1.03l-0.45,0.19
					c-1.04,0.44-2.24-0.05-2.68-1.09c-0.22-0.53-0.2-1.1,0-1.59c0.54-1.28,1.41-2.51,2.67-3.38c1.21-0.9,2.72-1.48,4.21-1.63
					c1.49-0.18,2.95-0.02,4.26,0.39c0.66,0.21,1.29,0.48,1.88,0.8c0.61,0.34,1.11,0.68,1.72,1.22c0.81,0.73,0.88,1.98,0.16,2.79
					c-0.34,0.38-0.8,0.6-1.27,0.65L123.29,28.11z"/>
			</g>
		</g>
		<g>
			<path class="st1" d="M149.22,59.75h-28.01c-2.21,0-4,1.79-4,4c0,9.93,8.07,18,18,18c9.87,0,17.91-7.99,18-17.84
				c0-0.05,0-0.11,0-0.16C153.22,61.54,151.43,59.75,149.22,59.75z"/>
			<g>
				<g>
					<ellipse class="st4" cx="135.22" cy="73.09" rx="10.41" ry="4.67"/>
				</g>
			</g>
		</g>
	</g>
	<g>
		<g>
			<path class="st3" d="M89.77,93.18h0.49c0.45,0,0.77-0.14,0.97-0.42l2.95-4.28c0.17-0.23,0.36-0.39,0.56-0.47s0.45-0.13,0.75-0.13
				h2.65l-3.89,5.3c-0.28,0.37-0.57,0.63-0.89,0.79c0.23,0.08,0.43,0.2,0.62,0.35c0.19,0.15,0.36,0.34,0.52,0.58l3.96,6.08h-2.72
				c-0.17,0-0.32-0.01-0.45-0.04c-0.12-0.02-0.23-0.06-0.32-0.11c-0.09-0.05-0.17-0.11-0.23-0.18c-0.07-0.07-0.13-0.15-0.19-0.24
				l-2.97-4.56c-0.11-0.17-0.24-0.29-0.41-0.36c-0.17-0.07-0.39-0.1-0.67-0.1h-0.74v5.58h-3.04V87.87h3.04V93.18z"/>
		</g>
		<g>
			<path class="st3" d="M103.4,90.21v3.06h4.12v2.25h-4.12v3.12h5.38v2.34h-8.44V87.87h8.44v2.34H103.4z"/>
		</g>
		<g>
			<path class="st3" d="M117.84,96v4.99h-3.04V96l-4.75-8.13h2.68c0.26,0,0.47,0.06,0.62,0.18s0.28,0.28,0.38,0.47l1.85,3.82
				c0.16,0.3,0.3,0.58,0.42,0.84c0.13,0.26,0.24,0.52,0.33,0.77c0.09-0.26,0.19-0.52,0.31-0.78c0.12-0.26,0.25-0.54,0.41-0.83
				l1.84-3.82c0.04-0.08,0.09-0.16,0.15-0.23c0.06-0.08,0.13-0.15,0.21-0.21c0.08-0.06,0.17-0.11,0.28-0.15
				c0.1-0.04,0.22-0.06,0.35-0.06h2.7L117.84,96z"/>
		</g>
		<g>
			<path class="st3" d="M142.38,87.87l-4.05,13.11h-2.75l-2.47-8.13c-0.05-0.13-0.09-0.27-0.14-0.42c-0.04-0.15-0.08-0.31-0.13-0.48
				c-0.04,0.17-0.08,0.33-0.13,0.48c-0.04,0.15-0.09,0.29-0.13,0.42l-2.5,8.13h-2.75l-4.05-13.11h2.56c0.26,0,0.48,0.06,0.66,0.18
				c0.18,0.12,0.29,0.28,0.35,0.48l1.8,6.84c0.05,0.22,0.11,0.45,0.16,0.71c0.05,0.25,0.11,0.52,0.16,0.8
				c0.11-0.56,0.24-1.06,0.4-1.5l2.12-6.84c0.05-0.17,0.17-0.32,0.35-0.45c0.18-0.14,0.39-0.2,0.64-0.2h0.9
				c0.26,0,0.48,0.06,0.64,0.18c0.16,0.12,0.28,0.28,0.37,0.47l2.11,6.84c0.16,0.42,0.29,0.9,0.4,1.43c0.05-0.27,0.1-0.52,0.15-0.76
				c0.05-0.24,0.1-0.46,0.16-0.67l1.8-6.84c0.05-0.17,0.16-0.33,0.34-0.46c0.18-0.13,0.4-0.2,0.65-0.2H142.38z"/>
		</g>
		<g>
			<path class="st3" d="M157.12,94.43c0,0.95-0.16,1.83-0.49,2.65c-0.33,0.82-0.79,1.53-1.38,2.13c-0.59,0.6-1.31,1.08-2.15,1.42
				s-1.77,0.51-2.79,0.51c-1.02,0-1.95-0.17-2.79-0.51s-1.56-0.81-2.16-1.42c-0.6-0.6-1.06-1.31-1.39-2.13
				c-0.33-0.82-0.49-1.7-0.49-2.65c0-0.95,0.16-1.83,0.49-2.65c0.33-0.82,0.79-1.52,1.39-2.12c0.6-0.6,1.32-1.07,2.16-1.41
				s1.77-0.51,2.79-0.51c1.02,0,1.95,0.17,2.79,0.52s1.55,0.82,2.15,1.42c0.59,0.6,1.05,1.31,1.38,2.12
				C156.96,92.6,157.12,93.48,157.12,94.43z M154.01,94.43c0-0.65-0.08-1.23-0.25-1.75c-0.17-0.52-0.41-0.96-0.72-1.32
				c-0.32-0.36-0.7-0.64-1.16-0.83s-0.97-0.29-1.56-0.29c-0.59,0-1.11,0.1-1.57,0.29s-0.85,0.47-1.16,0.83s-0.56,0.8-0.72,1.32
				c-0.17,0.52-0.25,1.1-0.25,1.75c0,0.65,0.08,1.24,0.25,1.76c0.17,0.52,0.41,0.96,0.72,1.32c0.32,0.36,0.7,0.63,1.16,0.82
				c0.46,0.19,0.98,0.28,1.57,0.28c0.58,0,1.1-0.09,1.56-0.28c0.46-0.19,0.84-0.46,1.16-0.82c0.31-0.36,0.56-0.8,0.72-1.32
				C153.92,95.67,154.01,95.08,154.01,94.43z"/>
		</g>
		<g>
			<path class="st3" d="M170.54,100.99h-2.75c-0.51,0-0.88-0.19-1.1-0.58l-2.18-3.81c-0.1-0.16-0.22-0.28-0.34-0.36
				s-0.31-0.11-0.54-0.11h-0.77v4.85h-3.04V87.87h4.27c0.95,0,1.76,0.1,2.43,0.29c0.67,0.2,1.21,0.47,1.64,0.81s0.73,0.76,0.92,1.23
				c0.19,0.47,0.29,0.99,0.29,1.55c0,0.43-0.06,0.83-0.17,1.21c-0.11,0.38-0.28,0.73-0.5,1.05c-0.22,0.32-0.5,0.61-0.82,0.86
				s-0.7,0.46-1.13,0.62c0.2,0.1,0.38,0.23,0.56,0.38c0.17,0.15,0.33,0.33,0.47,0.54L170.54,100.99z M164.08,94.04
				c0.41,0,0.77-0.05,1.06-0.16c0.29-0.1,0.53-0.25,0.71-0.44c0.19-0.19,0.32-0.4,0.41-0.65s0.13-0.52,0.13-0.81
				c0-0.58-0.19-1.03-0.56-1.35c-0.38-0.32-0.96-0.49-1.74-0.49h-1.22v3.89H164.08z"/>
		</g>
		<g>
			<path class="st3" d="M184.45,94.43c0,0.95-0.16,1.82-0.49,2.62s-0.79,1.49-1.38,2.08s-1.31,1.04-2.15,1.37s-1.77,0.49-2.79,0.49
				h-5.09V87.87h5.09c1.02,0,1.95,0.17,2.79,0.5s1.55,0.79,2.15,1.37s1.05,1.27,1.38,2.07C184.28,92.61,184.45,93.48,184.45,94.43z
				 M181.33,94.43c0-0.65-0.08-1.23-0.25-1.76c-0.17-0.52-0.41-0.96-0.72-1.33c-0.31-0.36-0.7-0.64-1.16-0.84s-0.97-0.29-1.56-0.29
				h-2.03v8.43h2.03c0.58,0,1.1-0.1,1.56-0.29c0.46-0.19,0.84-0.47,1.16-0.84c0.32-0.36,0.56-0.81,0.72-1.33
				C181.25,95.67,181.33,95.08,181.33,94.43z"/>
		</g>
	</g>
</g>
<g>
	<g>
		<g>
			<path class="st5" d="M108.22,237.75c-4.96,0-9-4.04-9-9v-58c0-4.96,4.04-9,9-9h148c4.96,0,9,4.04,9,9v58c0,4.96-4.04,9-9,9
				H108.22z"/>
		</g>
		<g>
			<g>
				<path class="st1" d="M256.22,164.75c3.31,0,6,2.69,6,6v58c0,3.31-2.69,6-6,6h-148c-3.31,0-6-2.69-6-6v-58c0-3.31,2.69-6,6-6
					H256.22 M256.22,158.75h-148c-6.62,0-12,5.38-12,12v58c0,6.62,5.38,12,12,12h148c6.62,0,12-5.38,12-12v-58
					C268.22,164.14,262.83,158.75,256.22,158.75L256.22,158.75z"/>
			</g>
		</g>
	</g>
	<g>
		<g>
			<path class="st6" d="M90.22,237.75c-4.96,0-9-4.04-9-9v-58c0-4.96,4.04-9,9-9h148c4.96,0,9,4.04,9,9v58c0,4.96-4.04,9-9,9H90.22z
				"/>
		</g>
		<g>
			<g>
				<path class="st1" d="M238.22,164.75c3.31,0,6,2.69,6,6v58c0,3.31-2.69,6-6,6h-148c-3.31,0-6-2.69-6-6v-58c0-3.31,2.69-6,6-6
					H238.22 M238.22,158.75h-148c-6.62,0-12,5.38-12,12v58c0,6.62,5.38,12,12,12h148c6.62,0,12-5.38,12-12v-58
					C250.22,164.14,244.83,158.75,238.22,158.75L238.22,158.75z"/>
			</g>
		</g>
	</g>
	<g>
		<g>
			<g>
				<path class="st1" d="M183.71,184.35c-0.32,0-0.64-0.08-0.94-0.24c-1.89-1.02-5.22-1.02-7.11,0c-0.98,0.52-2.19,0.16-2.71-0.82
					c-0.52-0.97-0.16-2.19,0.82-2.71c3.05-1.64,7.84-1.64,10.89,0c0.97,0.52,1.34,1.73,0.82,2.71
					C185.12,183.97,184.43,184.35,183.71,184.35z"/>
			</g>
			<g>
				<g>
					<circle class="st1" cx="179.22" cy="174.6" r="7"/>
				</g>
				<g>
					<circle class="st3" cx="180.97" cy="174.6" r="1.75"/>
				</g>
			</g>
			<g>
				<g>
					<path class="st1" d="M164.58,195.62c-5.29,0-10.71-1.42-15.4-4.27c-0.94-0.57-1.25-1.8-0.67-2.75c0.57-0.94,1.8-1.25,2.75-0.67
						c8,4.86,18.86,4.87,25.82,0.03c0.91-0.63,2.15-0.41,2.78,0.5s0.41,2.15-0.5,2.78C175.17,194.16,169.94,195.62,164.58,195.62z"
						/>
				</g>
				<g>
					<path class="st1" d="M160.04,198.73c1.35,0.43,2.77,0.57,4.18,0.62c0.71,0.03,1.41-0.07,2.11-0.15
						c0.7-0.09,1.39-0.24,2.05-0.47c0.69-0.24,1.45,0.13,1.68,0.82c0.17,0.48,0.04,1-0.29,1.34l-0.72,0.76
						c-0.67,0.71-1.48,1.09-2.3,1.37c-0.83,0.24-1.69,0.36-2.54,0.31c-0.43-0.02-0.85-0.04-1.27-0.13c-0.42-0.06-0.84-0.17-1.25-0.3
						c-0.81-0.27-1.6-0.64-2.3-1.25l-0.67-0.59c-0.57-0.5-0.63-1.37-0.13-1.94C158.96,198.72,159.53,198.57,160.04,198.73z"/>
				</g>
			</g>
			<g>
				<path class="st1" d="M174.24,151.59c0.61-0.55,1.11-0.88,1.72-1.22c0.6-0.32,1.22-0.59,1.88-0.8c1.32-0.41,2.78-0.57,4.26-0.39
					c1.48,0.15,2.99,0.73,4.21,1.63c1.26,0.87,2.13,2.1,2.67,3.38c0.44,1.04-0.05,2.24-1.1,2.68c-0.53,0.22-1.09,0.2-1.58,0
					l-0.45-0.19c-0.94-0.4-1.64-0.83-2.38-1.03c-0.71-0.25-1.37-0.43-2.13-0.52c-0.74-0.1-1.56-0.14-2.44-0.12
					c-0.44,0.01-0.91,0.02-1.37,0.06c-0.46,0.01-1,0.09-1.39,0.05l-0.78-0.08c-1.09-0.11-1.88-1.08-1.77-2.16
					C173.64,152.36,173.89,151.91,174.24,151.59z"/>
			</g>
			<g>
				<path class="st1" d="M153.71,184.35c-0.32,0-0.64-0.08-0.94-0.24c-1.89-1.02-5.22-1.02-7.11,0c-0.97,0.52-2.19,0.16-2.71-0.82
					c-0.52-0.97-0.16-2.19,0.82-2.71c3.05-1.64,7.84-1.64,10.89,0c0.97,0.52,1.34,1.73,0.82,2.71
					C155.12,183.97,154.43,184.35,153.71,184.35z"/>
			</g>
			<g>
				<g>
					<circle class="st1" cx="149.22" cy="174.6" r="7"/>
				</g>
				<g>
					<circle class="st3" cx="150.97" cy="174.6" r="1.75"/>
				</g>
			</g>
			<g>
				<path class="st1" d="M152.29,155.11c-0.39,0.04-0.94-0.05-1.39-0.05c-0.47-0.04-0.93-0.05-1.37-0.06
					c-0.89-0.02-1.7,0.02-2.44,0.12c-0.75,0.09-1.41,0.28-2.13,0.52c-0.74,0.21-1.43,0.64-2.38,1.03l-0.45,0.19
					c-1.04,0.44-2.24-0.05-2.68-1.09c-0.22-0.53-0.2-1.1,0-1.59c0.54-1.28,1.41-2.51,2.67-3.38c1.21-0.9,2.72-1.48,4.21-1.63
					c1.49-0.18,2.95-0.02,4.26,0.39c0.66,0.21,1.29,0.48,1.88,0.8c0.61,0.34,1.11,0.68,1.72,1.22c0.81,0.73,0.88,1.98,0.16,2.79
					c-0.34,0.38-0.8,0.6-1.27,0.65L152.29,155.11z"/>
			</g>
		</g>
	</g>
	<g>
		<g>
			<path class="st3" d="M118.77,220.18h0.49c0.45,0,0.77-0.14,0.97-0.42l2.95-4.28c0.17-0.23,0.36-0.39,0.56-0.47
				s0.45-0.13,0.75-0.13h2.65l-3.89,5.3c-0.28,0.37-0.57,0.63-0.89,0.79c0.23,0.08,0.43,0.2,0.62,0.35
				c0.19,0.15,0.36,0.34,0.52,0.58l3.96,6.08h-2.72c-0.17,0-0.32-0.01-0.45-0.04c-0.12-0.02-0.23-0.06-0.32-0.11
				c-0.09-0.05-0.17-0.11-0.23-0.18c-0.07-0.07-0.13-0.15-0.19-0.24l-2.97-4.56c-0.11-0.17-0.24-0.29-0.41-0.36
				c-0.17-0.07-0.39-0.1-0.67-0.1h-0.74v5.58h-3.04v-13.11h3.04V220.18z"/>
		</g>
		<g>
			<path class="st3" d="M132.4,217.21v3.06h4.12v2.25h-4.12v3.12h5.38v2.34h-8.44v-13.11h8.44v2.34H132.4z"/>
		</g>
		<g>
			<path class="st3" d="M146.84,223v4.99h-3.04V223l-4.75-8.13h2.68c0.26,0,0.47,0.06,0.62,0.18s0.28,0.28,0.38,0.47l1.85,3.82
				c0.16,0.3,0.3,0.58,0.42,0.84c0.13,0.26,0.24,0.52,0.33,0.77c0.09-0.26,0.19-0.52,0.31-0.78c0.12-0.26,0.25-0.54,0.41-0.83
				l1.84-3.82c0.04-0.08,0.09-0.16,0.15-0.23c0.06-0.08,0.13-0.15,0.21-0.21c0.08-0.06,0.17-0.11,0.28-0.15
				c0.1-0.04,0.22-0.06,0.35-0.06h2.7L146.84,223z"/>
		</g>
		<g>
			<path class="st3" d="M171.38,214.87l-4.05,13.11h-2.75l-2.47-8.13c-0.05-0.13-0.09-0.27-0.14-0.42
				c-0.04-0.15-0.08-0.31-0.13-0.48c-0.04,0.17-0.08,0.33-0.13,0.48c-0.04,0.15-0.09,0.29-0.13,0.42l-2.5,8.13h-2.75l-4.05-13.11
				h2.56c0.26,0,0.48,0.06,0.66,0.18c0.18,0.12,0.29,0.28,0.35,0.48l1.8,6.84c0.05,0.22,0.11,0.45,0.16,0.71
				c0.05,0.25,0.11,0.52,0.16,0.8c0.11-0.56,0.24-1.06,0.4-1.5l2.12-6.84c0.05-0.17,0.17-0.32,0.35-0.45
				c0.18-0.14,0.39-0.2,0.64-0.2h0.9c0.26,0,0.48,0.06,0.64,0.18c0.16,0.12,0.28,0.28,0.37,0.47l2.11,6.84
				c0.16,0.42,0.29,0.9,0.4,1.43c0.05-0.27,0.1-0.52,0.15-0.76c0.05-0.24,0.1-0.46,0.16-0.67l1.8-6.84
				c0.05-0.17,0.16-0.33,0.34-0.46c0.18-0.13,0.4-0.2,0.65-0.2H171.38z"/>
		</g>
		<g>
			<path class="st3" d="M186.12,221.43c0,0.95-0.16,1.83-0.49,2.65c-0.33,0.82-0.79,1.53-1.38,2.13c-0.59,0.6-1.31,1.08-2.15,1.42
				s-1.77,0.51-2.79,0.51c-1.02,0-1.95-0.17-2.79-0.51s-1.56-0.81-2.16-1.42c-0.6-0.6-1.06-1.31-1.39-2.13
				c-0.33-0.82-0.49-1.7-0.49-2.65c0-0.95,0.16-1.83,0.49-2.65c0.33-0.82,0.79-1.52,1.39-2.12c0.6-0.6,1.32-1.07,2.16-1.41
				s1.77-0.51,2.79-0.51c1.02,0,1.95,0.17,2.79,0.52s1.55,0.82,2.15,1.42c0.59,0.6,1.05,1.31,1.38,2.12
				C185.96,219.6,186.12,220.48,186.12,221.43z M183.01,221.43c0-0.65-0.08-1.23-0.25-1.75c-0.17-0.52-0.41-0.96-0.72-1.32
				c-0.32-0.36-0.7-0.64-1.16-0.83s-0.97-0.29-1.56-0.29c-0.59,0-1.11,0.1-1.57,0.29s-0.85,0.47-1.16,0.83s-0.56,0.8-0.72,1.32
				c-0.17,0.52-0.25,1.1-0.25,1.75c0,0.65,0.08,1.24,0.25,1.76c0.17,0.52,0.41,0.96,0.72,1.32c0.32,0.36,0.7,0.63,1.16,0.82
				c0.46,0.19,0.98,0.28,1.57,0.28c0.58,0,1.1-0.09,1.56-0.28c0.46-0.19,0.84-0.46,1.16-0.82c0.31-0.36,0.56-0.8,0.72-1.32
				C182.92,222.67,183.01,222.08,183.01,221.43z"/>
		</g>
		<g>
			<path class="st3" d="M199.54,227.99h-2.75c-0.51,0-0.88-0.19-1.1-0.58l-2.18-3.81c-0.1-0.16-0.22-0.28-0.34-0.36
				s-0.31-0.11-0.54-0.11h-0.77v4.85h-3.04v-13.11h4.27c0.95,0,1.76,0.1,2.43,0.29c0.67,0.2,1.21,0.47,1.64,0.81
				s0.73,0.76,0.92,1.23c0.19,0.47,0.29,0.99,0.29,1.55c0,0.43-0.06,0.83-0.17,1.21c-0.11,0.38-0.28,0.73-0.5,1.05
				c-0.22,0.32-0.5,0.61-0.82,0.86s-0.7,0.46-1.13,0.62c0.2,0.1,0.38,0.23,0.56,0.38c0.17,0.15,0.33,0.33,0.47,0.54L199.54,227.99z
				 M193.08,221.04c0.41,0,0.77-0.05,1.06-0.16c0.29-0.1,0.53-0.25,0.71-0.44c0.19-0.19,0.32-0.4,0.41-0.65s0.13-0.52,0.13-0.81
				c0-0.58-0.19-1.03-0.56-1.35c-0.38-0.32-0.96-0.49-1.74-0.49h-1.22v3.89H193.08z"/>
		</g>
		<g>
			<path class="st3" d="M213.45,221.43c0,0.95-0.16,1.82-0.49,2.62s-0.79,1.49-1.38,2.08s-1.31,1.04-2.15,1.37s-1.77,0.49-2.79,0.49
				h-5.09v-13.11h5.09c1.02,0,1.95,0.17,2.79,0.5s1.55,0.79,2.15,1.37s1.05,1.27,1.38,2.07
				C213.28,219.61,213.45,220.48,213.45,221.43z M210.33,221.43c0-0.65-0.08-1.23-0.25-1.76c-0.17-0.52-0.41-0.96-0.72-1.33
				c-0.31-0.36-0.7-0.64-1.16-0.84s-0.97-0.29-1.56-0.29h-2.03v8.43h2.03c0.58,0,1.1-0.1,1.56-0.29c0.46-0.19,0.84-0.47,1.16-0.84
				c0.32-0.36,0.56-0.81,0.72-1.33C210.25,222.67,210.33,222.08,210.33,221.43z"/>
		</g>
	</g>
</g>
<g>
	<g>
		<g>
			<path class="st7" d="M159.72,367.16c-4.96,0-9-4.04-9-9v-58c0-4.96,4.04-9,9-9h148c4.96,0,9,4.04,9,9v58c0,4.96-4.04,9-9,9
				H159.72z"/>
		</g>
		<g>
			<g>
				<path class="st1" d="M307.72,294.16c3.31,0,6,2.69,6,6v58c0,3.31-2.69,6-6,6h-148c-3.31,0-6-2.69-6-6v-58c0-3.31,2.69-6,6-6
					H307.72 M307.72,288.16h-148c-6.62,0-12,5.38-12,12v58c0,6.62,5.38,12,12,12h148c6.62,0,12-5.38,12-12v-58
					C319.72,293.55,314.33,288.16,307.72,288.16L307.72,288.16z"/>
			</g>
		</g>
	</g>
	<g>
		<g>
			<path class="st8" d="M177.72,367.16c-4.96,0-9-4.04-9-9v-58c0-4.96,4.04-9,9-9h148c4.96,0,9,4.04,9,9v58c0,4.96-4.04,9-9,9
				H177.72z"/>
		</g>
		<g>
			<g>
				<path class="st1" d="M325.72,294.16c3.31,0,6,2.69,6,6v58c0,3.31-2.69,6-6,6h-148c-3.31,0-6-2.69-6-6v-58c0-3.31,2.69-6,6-6
					H325.72 M325.72,288.16h-148c-6.62,0-12,5.38-12,12v58c0,6.62,5.38,12,12,12h148c6.62,0,12-5.38,12-12v-58
					C337.72,293.55,332.33,288.16,325.72,288.16L325.72,288.16z"/>
			</g>
		</g>
	</g>
	<g>
		<g>
			<path class="st1" d="M265.72,313.16h-28.01c-2.21,0-4,1.79-4,4c0,9.93,8.07,18,18,18c9.87,0,17.91-7.99,18-17.84
				c0-0.05,0-0.11,0-0.16C269.72,314.95,267.93,313.16,265.72,313.16z"/>
			<g>
				<g>
					<ellipse class="st4" cx="251.72" cy="326.5" rx="10.41" ry="4.67"/>
				</g>
			</g>
		</g>
		<g>
			<g>
				<g>
					<path class="st1" d="M261.93,281.19c0.6-0.51,1.09-0.82,1.69-1.14c0.58-0.3,1.18-0.55,1.82-0.74c1.27-0.37,2.65-0.52,4.06-0.39
						c1.41,0.11,2.85,0.62,4.07,1.42c1.25,0.77,2.18,1.94,2.76,3.17c0.48,1.02,0.04,2.24-0.98,2.72c-0.5,0.23-1.04,0.25-1.52,0.09
						l-0.51-0.17c-0.93-0.31-1.61-0.67-2.34-0.83c-0.71-0.19-1.37-0.36-2.13-0.44c-0.75-0.09-1.56-0.13-2.43-0.12
						c-0.44,0-0.89,0-1.35,0.02c-0.45-0.01-0.98,0.05-1.36,0l-0.77-0.11c-1.08-0.16-1.83-1.17-1.68-2.25
						C261.32,281.92,261.57,281.49,261.93,281.19z"/>
				</g>
				<g>
					<path class="st1" d="M239.75,284.78c-0.38,0.06-0.92-0.01-1.36,0c-0.46-0.02-0.92-0.02-1.35-0.02
						c-0.87-0.01-1.68,0.04-2.43,0.12c-0.76,0.07-1.42,0.25-2.13,0.44c-0.73,0.16-1.41,0.52-2.34,0.83l-0.5,0.17
						c-1.07,0.36-2.23-0.21-2.59-1.28c-0.18-0.52-0.13-1.06,0.09-1.52c0.58-1.23,1.5-2.4,2.76-3.17c1.22-0.8,2.66-1.31,4.07-1.42
						c1.41-0.14,2.79,0.01,4.06,0.39c0.63,0.19,1.24,0.44,1.82,0.74c0.59,0.32,1.08,0.63,1.69,1.14c0.84,0.71,0.94,1.96,0.24,2.8
						c-0.32,0.38-0.76,0.62-1.23,0.68L239.75,284.78z"/>
				</g>
				<g>
					<path class="st1" d="M241.74,307.66c-1.38,0-2.5-1.12-2.5-2.5c0-1.38-1.12-2.5-2.5-2.5s-2.5,1.12-2.5,2.5
						c0,1.38-1.12,2.5-2.5,2.5s-2.5-1.12-2.5-2.5c0-4.14,3.36-7.5,7.5-7.5s7.5,3.36,7.5,7.5
						C244.24,306.54,243.12,307.66,241.74,307.66z"/>
				</g>
				<g>
					<path class="st1" d="M271.69,307.66c-1.38,0-2.5-1.12-2.5-2.5c0-1.38-1.12-2.5-2.5-2.5s-2.5,1.12-2.5,2.5
						c0,1.38-1.12,2.5-2.5,2.5s-2.5-1.12-2.5-2.5c0-4.14,3.36-7.5,7.5-7.5s7.5,3.36,7.5,7.5
						C274.19,306.54,273.08,307.66,271.69,307.66z"/>
				</g>
			</g>
		</g>
	</g>
	<g>
		<g>
			<path class="st3" d="M206.27,349.59h0.49c0.45,0,0.77-0.14,0.97-0.42l2.95-4.28c0.17-0.23,0.36-0.39,0.56-0.47
				s0.45-0.13,0.75-0.13h2.65l-3.89,5.3c-0.28,0.37-0.57,0.63-0.89,0.79c0.23,0.08,0.43,0.2,0.62,0.35
				c0.19,0.15,0.36,0.34,0.52,0.58l3.96,6.08h-2.72c-0.17,0-0.32-0.01-0.45-0.04c-0.12-0.02-0.23-0.06-0.32-0.11
				c-0.09-0.05-0.17-0.11-0.23-0.18c-0.07-0.07-0.13-0.15-0.19-0.24l-2.97-4.56c-0.11-0.17-0.24-0.29-0.41-0.36
				c-0.17-0.07-0.39-0.1-0.67-0.1h-0.74v5.58h-3.04v-13.11h3.04V349.59z"/>
		</g>
		<g>
			<path class="st3" d="M219.9,346.62v3.06h4.12v2.25h-4.12v3.12h5.38v2.34h-8.44v-13.11h8.44v2.34H219.9z"/>
		</g>
		<g>
			<path class="st3" d="M234.34,352.41v4.99h-3.04v-4.99l-4.75-8.13h2.68c0.26,0,0.47,0.06,0.62,0.18s0.28,0.28,0.38,0.47l1.85,3.82
				c0.16,0.3,0.3,0.58,0.42,0.84c0.13,0.26,0.24,0.52,0.33,0.77c0.09-0.26,0.19-0.52,0.31-0.78c0.12-0.26,0.25-0.54,0.41-0.83
				l1.84-3.82c0.04-0.08,0.09-0.16,0.15-0.23c0.06-0.08,0.13-0.15,0.21-0.21c0.08-0.06,0.17-0.11,0.28-0.15
				c0.1-0.04,0.22-0.06,0.35-0.06h2.7L234.34,352.41z"/>
		</g>
		<g>
			<path class="st3" d="M258.88,344.28l-4.05,13.11h-2.75l-2.47-8.13c-0.05-0.13-0.09-0.27-0.14-0.42
				c-0.04-0.15-0.08-0.31-0.13-0.48c-0.04,0.17-0.08,0.33-0.13,0.48c-0.04,0.15-0.09,0.29-0.13,0.42l-2.5,8.13h-2.75l-4.05-13.11
				h2.56c0.26,0,0.48,0.06,0.66,0.18c0.18,0.12,0.29,0.28,0.35,0.48l1.8,6.84c0.05,0.22,0.11,0.45,0.16,0.71
				c0.05,0.25,0.11,0.52,0.16,0.8c0.11-0.56,0.24-1.06,0.4-1.5l2.12-6.84c0.05-0.17,0.17-0.32,0.35-0.45
				c0.18-0.14,0.39-0.2,0.64-0.2h0.9c0.26,0,0.48,0.06,0.64,0.18c0.16,0.12,0.28,0.28,0.37,0.47l2.11,6.84
				c0.16,0.42,0.29,0.9,0.4,1.43c0.05-0.27,0.1-0.52,0.15-0.76c0.05-0.24,0.1-0.46,0.16-0.67l1.8-6.84
				c0.05-0.17,0.16-0.33,0.34-0.46c0.18-0.13,0.4-0.2,0.65-0.2H258.88z"/>
		</g>
		<g>
			<path class="st3" d="M273.62,350.83c0,0.95-0.16,1.83-0.49,2.65c-0.33,0.82-0.79,1.53-1.38,2.13c-0.59,0.6-1.31,1.08-2.15,1.42
				s-1.77,0.51-2.79,0.51c-1.02,0-1.95-0.17-2.79-0.51s-1.56-0.81-2.16-1.42c-0.6-0.6-1.06-1.31-1.39-2.13
				c-0.33-0.82-0.49-1.7-0.49-2.65c0-0.95,0.16-1.83,0.49-2.65c0.33-0.82,0.79-1.52,1.39-2.12c0.6-0.6,1.32-1.07,2.16-1.41
				s1.77-0.51,2.79-0.51c1.02,0,1.95,0.17,2.79,0.52s1.55,0.82,2.15,1.42c0.59,0.6,1.05,1.31,1.38,2.12
				C273.46,349.01,273.62,349.89,273.62,350.83z M270.51,350.83c0-0.65-0.08-1.23-0.25-1.75c-0.17-0.52-0.41-0.96-0.72-1.32
				c-0.32-0.36-0.7-0.64-1.16-0.83s-0.97-0.29-1.56-0.29c-0.59,0-1.11,0.1-1.57,0.29s-0.85,0.47-1.16,0.83s-0.56,0.8-0.72,1.32
				c-0.17,0.52-0.25,1.1-0.25,1.75c0,0.65,0.08,1.24,0.25,1.76c0.17,0.52,0.41,0.96,0.72,1.32c0.32,0.36,0.7,0.63,1.16,0.82
				c0.46,0.19,0.98,0.28,1.57,0.28c0.58,0,1.1-0.09,1.56-0.28c0.46-0.19,0.84-0.46,1.16-0.82c0.31-0.36,0.56-0.8,0.72-1.32
				C270.42,352.07,270.51,351.49,270.51,350.83z"/>
		</g>
		<g>
			<path class="st3" d="M287.04,357.39h-2.75c-0.51,0-0.88-0.19-1.1-0.58l-2.18-3.81c-0.1-0.16-0.22-0.28-0.34-0.36
				s-0.31-0.11-0.54-0.11h-0.77v4.85h-3.04v-13.11h4.27c0.95,0,1.76,0.1,2.43,0.29c0.67,0.2,1.21,0.47,1.64,0.81
				s0.73,0.76,0.92,1.23c0.19,0.47,0.29,0.99,0.29,1.55c0,0.43-0.06,0.83-0.17,1.21c-0.11,0.38-0.28,0.73-0.5,1.05
				c-0.22,0.32-0.5,0.61-0.82,0.86s-0.7,0.46-1.13,0.62c0.2,0.1,0.38,0.23,0.56,0.38c0.17,0.15,0.33,0.33,0.47,0.54L287.04,357.39z
				 M280.58,350.45c0.41,0,0.77-0.05,1.06-0.16c0.29-0.1,0.53-0.25,0.71-0.44c0.19-0.19,0.32-0.4,0.41-0.65s0.13-0.52,0.13-0.81
				c0-0.58-0.19-1.03-0.56-1.35c-0.38-0.32-0.96-0.49-1.74-0.49h-1.22v3.89H280.58z"/>
		</g>
		<g>
			<path class="st3" d="M300.95,350.83c0,0.95-0.16,1.82-0.49,2.62s-0.79,1.49-1.38,2.08s-1.31,1.04-2.15,1.37s-1.77,0.49-2.79,0.49
				h-5.09v-13.11h5.09c1.02,0,1.95,0.17,2.79,0.5s1.55,0.79,2.15,1.37s1.05,1.27,1.38,2.07
				C300.78,349.02,300.95,349.89,300.95,350.83z M297.83,350.83c0-0.65-0.08-1.23-0.25-1.76c-0.17-0.52-0.41-0.96-0.72-1.33
				c-0.31-0.36-0.7-0.64-1.16-0.84s-0.97-0.29-1.56-0.29h-2.03v8.43h2.03c0.58,0,1.1-0.1,1.56-0.29c0.46-0.19,0.84-0.47,1.16-0.84
				c0.32-0.36,0.56-0.81,0.72-1.33C297.75,352.08,297.83,351.49,297.83,350.83z"/>
		</g>
	</g>
</g>
<g>
	<g>
		<g>
			<path class="st9" d="M99.62,380.44c-0.93,0-1.84-0.43-2.42-1.22l-12.08-16.44c-0.4-0.54-0.6-1.19-0.58-1.86l0.23-8.23
				l-25.9-55.55c-0.34-0.72-0.37-1.55-0.1-2.29c0.27-0.75,0.83-1.36,1.55-1.69l7.25-3.38c0.41-0.19,0.84-0.28,1.27-0.28
				c1.13,0,2.21,0.64,2.72,1.73l25.9,55.55l6.45,5.12c0.52,0.41,0.89,0.99,1.05,1.64l4.83,19.82c0.34,1.39-0.35,2.82-1.65,3.43
				l-7.25,3.38C100.48,380.35,100.05,380.44,99.62,380.44z"/>
		</g>
		<g>
			<path class="st1" d="M68.84,292.49l26.2,56.19l7.01,5.56l4.83,19.82l-7.25,3.38l-12.08-16.44l0.24-8.94l-26.2-56.19L68.84,292.49
				 M68.83,286.49c-0.85,0-1.71,0.18-2.53,0.56l-7.25,3.38c-1.44,0.67-2.56,1.89-3.1,3.39c-0.54,1.5-0.47,3.15,0.2,4.59l25.6,54.91
				l-0.21,7.53c-0.04,1.33,0.37,2.64,1.16,3.72L94.79,381c1.16,1.58,2.98,2.45,4.84,2.45c0.85,0,1.72-0.18,2.53-0.56l7.25-3.38
				c2.59-1.21,3.97-4.08,3.29-6.86l-4.83-19.82c-0.32-1.3-1.05-2.45-2.1-3.28l-5.9-4.68l-25.6-54.91
				C73.26,287.78,71.09,286.49,68.83,286.49L68.83,286.49z"/>
		</g>
	</g>
	<g>
		<g>
			<path class="st10" d="M34.11,273.07c-1.13,0-2.21-0.64-2.72-1.73L8.57,222.4c-2.37-5.08-2.62-10.79-0.7-16.06
				c1.92-5.27,5.77-9.48,10.86-11.85c2.81-1.31,5.79-1.97,8.86-1.97c8.13,0,15.61,4.76,19.04,12.13l22.82,48.94
				c0.34,0.72,0.37,1.55,0.1,2.29c-0.27,0.75-0.83,1.36-1.55,1.69l-32.63,15.21C34.96,272.98,34.53,273.07,34.11,273.07z"/>
		</g>
		<g>
			<g>
				<path class="st1" d="M27.59,195.52c6.78,0,13.27,3.85,16.33,10.4l22.82,48.94l-32.63,15.21l-22.82-48.94
					c-4.2-9.01-0.3-19.72,8.71-23.92l0,0C22.45,196.06,25.04,195.52,27.59,195.52 M27.59,189.52
					C27.59,189.52,27.59,189.52,27.59,189.52c-3.52,0-6.93,0.76-10.13,2.25c-11.99,5.59-17.2,19.9-11.61,31.89l22.82,48.94
					c1.02,2.18,3.18,3.47,5.44,3.47c0.85,0,1.71-0.18,2.53-0.56l32.63-15.21c1.44-0.67,2.56-1.89,3.1-3.39
					c0.54-1.5,0.47-3.15-0.2-4.59l-22.82-48.94C45.42,194.96,36.88,189.52,27.59,189.52L27.59,189.52z"/>
			</g>
		</g>
	</g>
	<g>
		<g>
			<g>
				<g>
					<g>
						<path class="st1" d="M41.58,236.04c-0.75,0-1.47-0.43-1.81-1.15c-0.68-1.45-0.75-3.08-0.2-4.59c0.55-1.51,1.65-2.71,3.1-3.39
							c1.45-0.68,3.08-0.75,4.59-0.2c1.51,0.55,2.71,1.65,3.39,3.1c0.47,1,0.03,2.19-0.97,2.66c-1,0.47-2.19,0.03-2.66-0.97
							c-0.23-0.48-0.63-0.85-1.13-1.03c-0.5-0.18-1.04-0.16-1.53,0.07c-0.48,0.23-0.85,0.63-1.03,1.13s-0.16,1.04,0.07,1.53
							c0.47,1,0.03,2.19-0.97,2.66C42.15,235.98,41.86,236.04,41.58,236.04z"/>
					</g>
				</g>
				<g>
					<g>
						<path class="st1" d="M27.08,242.8c-0.75,0-1.47-0.43-1.81-1.15c-0.68-1.45-0.75-3.08-0.2-4.59c0.55-1.51,1.65-2.71,3.1-3.39
							c3-1.4,6.57-0.1,7.97,2.9c0.47,1,0.03,2.19-0.97,2.66c-1,0.47-2.19,0.03-2.66-0.97c-0.47-1-1.66-1.43-2.66-0.97
							c-0.48,0.23-0.85,0.63-1.03,1.13c-0.18,0.5-0.16,1.04,0.07,1.53c0.47,1,0.03,2.19-0.97,2.66
							C27.65,242.74,27.36,242.8,27.08,242.8z"/>
					</g>
				</g>
				<g>
					<path class="st1" d="M36.34,222.02c0.78-0.84,1.56-1.37,2.49-1.83c0.9-0.46,1.9-0.76,2.94-0.91c1.04-0.17,2.14-0.12,3.21,0.13
						c1.07,0.23,2.1,0.76,2.91,1.49c0.71,0.64,0.76,1.72,0.13,2.43c-0.3,0.33-0.7,0.52-1.11,0.56l-0.4,0.04
						c-0.79,0.08-1.42,0.05-2.08,0.11c-0.65,0.07-1.29,0.09-1.97,0.19l-2.1,0.31c-0.71,0.11-1.52,0.28-2.24,0.32l-0.43,0.02
						c-0.94,0.04-1.73-0.68-1.77-1.62C35.86,222.78,36.04,222.34,36.34,222.02z"/>
				</g>
				<g>
					<path class="st1" d="M29.53,228.84c-0.49,0.53-1.14,1.04-1.68,1.51l-1.59,1.41c-0.51,0.46-0.94,0.93-1.41,1.39
						c-0.47,0.47-0.86,0.97-1.43,1.52l-0.29,0.28c-0.68,0.67-1.77,0.66-2.43-0.02c-0.31-0.32-0.48-0.73-0.49-1.15
						c-0.04-1.09,0.22-2.22,0.73-3.19c0.49-0.98,1.17-1.85,1.97-2.54c0.79-0.7,1.66-1.26,2.59-1.66c0.95-0.41,1.85-0.67,3-0.73
						c0.94-0.05,1.74,0.67,1.78,1.61c0.02,0.47-0.15,0.91-0.44,1.23L29.53,228.84z"/>
				</g>
			</g>
		</g>
	</g>
	<g>
		<g>
			<path class="st1" d="M35.29,246.68c-0.73,0-1.48-0.04-2.25-0.12c-1.1-0.11-1.9-1.09-1.79-2.19c0.11-1.1,1.1-1.91,2.19-1.79
				c3.92,0.4,9.29-0.28,12.56-5.81c0.56-0.95,1.79-1.26,2.74-0.7c0.95,0.56,1.27,1.79,0.7,2.74
				C46.43,243.93,41.45,246.68,35.29,246.68z"/>
		</g>
		<g>
			<path class="st1" d="M40.22,248.48c2.16-0.59,4.21-1.54,6.04-2.81c0.41-0.29,0.98-0.19,1.26,0.22c0.18,0.26,0.21,0.57,0.1,0.84
				l-0.22,0.57c-0.27,0.69-0.69,1.22-1.17,1.66c-0.47,0.46-1.03,0.79-1.6,1.08c-0.59,0.25-1.2,0.46-1.85,0.53
				c-0.65,0.08-1.32,0.07-2.02-0.17l-0.58-0.2c-0.47-0.16-0.73-0.68-0.57-1.15C39.7,248.76,39.94,248.55,40.22,248.48z"/>
		</g>
	</g>
	<g>
		<g>
			
				<rect x="39.22" y="264.62" transform="matrix(0.9063 -0.4226 0.4226 0.9063 -109.2858 48.2686)" class="st4" width="30" height="12"/>
		</g>
		<g>
			<g>
				<path class="st1" d="M63.83,262.83l2.54,5.44l-21.75,10.14l-2.54-5.44L63.83,262.83 M66.73,254.86l-5.44,2.54l-21.75,10.14
					l-5.44,2.54l2.54,5.44l2.54,5.44l2.54,5.44l5.44-2.54l21.75-10.14l5.44-2.54l-2.54-5.44l-2.54-5.44L66.73,254.86L66.73,254.86z"
					/>
			</g>
		</g>
	</g>
	<g>
		<g>
			<path class="st10" d="M44.13,299.29c-0.35,0-0.69-0.06-1.03-0.18c-0.75-0.27-1.36-0.83-1.69-1.55l-4.23-9.06
				c-0.7-1.5-0.05-3.29,1.45-3.99l36.25-16.9c0.41-0.19,0.84-0.28,1.27-0.28c1.13,0,2.21,0.64,2.72,1.73l4.23,9.06
				c0.34,0.72,0.37,1.55,0.1,2.29c-0.27,0.75-0.83,1.36-1.55,1.69L45.4,299.01C44.99,299.2,44.56,299.29,44.13,299.29z"/>
		</g>
		<g>
			<g>
				<path class="st1" d="M76.15,270.32l4.23,9.06l-36.25,16.9l-4.23-9.06L76.15,270.32 M76.15,264.32c-0.85,0-1.71,0.18-2.53,0.56
					l-36.25,16.9c-3,1.4-4.3,4.97-2.9,7.97l4.23,9.06c0.67,1.44,1.89,2.56,3.39,3.1c0.66,0.24,1.36,0.36,2.05,0.36
					c0.87,0,1.73-0.19,2.54-0.56l36.25-16.9c1.44-0.67,2.56-1.89,3.1-3.39c0.54-1.5,0.47-3.15-0.2-4.59l-4.23-9.06
					C80.57,265.61,78.41,264.32,76.15,264.32L76.15,264.32z"/>
			</g>
		</g>
	</g>
	<g>
		
			<rect x="63.32" y="293.72" transform="matrix(0.9063 -0.4226 0.4226 0.9063 -119.935 56.44)" class="st11" width="8" height="10"/>
	</g>
</g>
<g>
	<g>
		<g>
			<path class="st9" d="M322.84,187.47c-0.17,0-0.35-0.02-0.52-0.05l-11.82-2.08c-1.63-0.29-2.72-1.84-2.43-3.48l10.25-58.1
				c0.26-1.46,1.52-2.48,2.95-2.48c0.17,0,0.35,0.02,0.52,0.05l11.82,2.08c0.78,0.14,1.48,0.58,1.94,1.23
				c0.46,0.65,0.64,1.46,0.5,2.24l-10.25,58.1c-0.14,0.78-0.58,1.48-1.23,1.94C324.05,187.29,323.45,187.47,322.84,187.47z"/>
		</g>
		<g>
			<path class="st1" d="M321.27,124.29l11.82,2.08l-10.25,58.1l-11.82-2.08L321.27,124.29 M321.26,118.29
				c-2.86,0-5.39,2.05-5.9,4.96l-10.25,58.1c-0.28,1.57,0.08,3.18,0.99,4.48c0.91,1.3,2.31,2.19,3.87,2.47l11.82,2.08
				c0.35,0.06,0.7,0.09,1.05,0.09c2.86,0,5.39-2.05,5.9-4.96l10.25-58.1c0.28-1.57-0.08-3.18-0.99-4.48
				c-0.91-1.3-2.31-2.19-3.87-2.47l-11.82-2.08C321.96,118.32,321.61,118.29,321.26,118.29L321.26,118.29z"/>
		</g>
	</g>
	<g>
		
			<rect x="320.4" y="125.26" transform="matrix(0.9848 0.1736 -0.1736 0.9848 27.4912 -54.7069)" class="st11" width="12" height="9"/>
	</g>
	<g>
		<g>
			<path class="st9" d="M345.95,125.54c-0.17,0-0.35-0.02-0.52-0.05l-35.45-6.25c-1.63-0.29-2.72-1.84-2.43-3.48
				c1.46-8.26-4.08-16.16-12.34-17.62c-0.88-0.16-1.78-0.23-2.66-0.23c-7.38,0-13.67,5.29-14.96,12.57
				c-0.26,1.46-1.52,2.48-2.95,2.48c-0.17,0-0.35-0.02-0.52-0.05l-7.8-1.37c-0.78-0.14-1.48-0.58-1.94-1.23
				c-0.46-0.65-0.64-1.46-0.5-2.24c3.46-19.64,20.42-33.89,40.33-33.89c2.39,0,4.8,0.21,7.16,0.63l41.69,7.35
				c0.78,0.14,1.48,0.58,1.94,1.23c0.46,0.65,0.64,1.46,0.5,2.24l-6.6,37.42c-0.14,0.78-0.58,1.48-1.23,1.94
				C347.16,125.36,346.56,125.54,345.95,125.54z"/>
		</g>
		<g>
			<path class="st1" d="M304.21,77.19c2.19,0,4.41,0.19,6.64,0.58l41.69,7.35l-6.6,37.42l-35.45-6.25
				c1.75-9.9-4.87-19.35-14.77-21.09c-1.07-0.19-2.13-0.28-3.18-0.28c-8.67,0-16.35,6.22-17.91,15.05l-7.8-1.37v0
				C270.09,90.16,286.12,77.19,304.21,77.19 M304.21,71.19c-21.37,0-39.57,15.29-43.29,36.37c-0.58,3.26,1.6,6.38,4.87,6.95
				l7.8,1.37c0.35,0.06,0.7,0.09,1.04,0.09c1.22,0,2.43-0.37,3.44-1.09c1.3-0.91,2.19-2.31,2.47-3.87c1.03-5.85,6.08-10.09,12-10.09
				c0.71,0,1.43,0.06,2.14,0.19c6.63,1.17,11.07,7.51,9.9,14.14c-0.28,1.57,0.08,3.18,0.99,4.48c0.91,1.3,2.31,2.19,3.87,2.47
				l35.45,6.25c0.35,0.06,0.7,0.09,1.05,0.09c2.86,0,5.39-2.05,5.9-4.96l6.6-37.42c0.28-1.57-0.08-3.18-0.99-4.48
				c-0.91-1.3-2.31-2.19-3.87-2.47l-41.69-7.35C309.36,71.41,306.77,71.19,304.21,71.19L304.21,71.19z"/>
		</g>
	</g>
	<g>
		<path class="st12" d="M310.03,82.45l41.69,7.35l0.82-4.68l-41.69-7.35c-20.67-3.64-40.38,10.16-44.02,30.82v0l3.42,0.6
			C273.55,90.49,290.95,79.08,310.03,82.45z"/>
	</g>
	<g>
		<g>
			<path class="st10" d="M316.54,263.54c-0.17,0-0.35-0.02-0.52-0.05l-25.61-4.51c-0.78-0.14-1.48-0.58-1.94-1.23
				c-0.46-0.65-0.64-1.46-0.5-2.24l12.16-68.94c0.76-4.31,4.48-7.44,8.86-7.44c0.52,0,1.05,0.05,1.57,0.14l13.79,2.43
				c4.89,0.86,8.16,5.54,7.3,10.43l-12.16,68.94C319.24,262.51,317.97,263.54,316.54,263.54z"/>
		</g>
		<g>
			<g>
				<path class="st1" d="M308.99,182.12c0.35,0,0.7,0.03,1.05,0.09l13.79,2.43c3.26,0.58,5.44,3.69,4.87,6.95l-12.16,68.94
					l-25.6-4.51l12.16-68.94C303.6,184.17,306.13,182.12,308.99,182.12 M308.99,176.12C308.99,176.12,308.99,176.12,308.99,176.12
					c-5.83,0-10.8,4.17-11.81,9.92l-12.16,68.94c-0.58,3.26,1.6,6.38,4.87,6.95l25.6,4.51c0.35,0.06,0.69,0.09,1.04,0.09
					c1.22,0,2.43-0.37,3.44-1.09c1.3-0.91,2.19-2.31,2.47-3.87l12.16-68.94c0.56-3.16-0.15-6.34-1.99-8.97
					c-1.84-2.63-4.59-4.38-7.75-4.93l-13.79-2.43C310.39,176.19,309.69,176.12,308.99,176.12L308.99,176.12z"/>
			</g>
		</g>
	</g>
	<g>
		<g>
			<path class="st9" d="M383.08,128.03c-0.17,0-0.35-0.02-0.52-0.05l-15.76-2.78c-1.63-0.29-2.72-1.84-2.43-3.48l5.56-31.51
				c0.14-0.78,0.58-1.48,1.23-1.94c0.51-0.36,1.11-0.54,1.72-0.54c0.17,0,0.35,0.02,0.52,0.05l15.76,2.78
				c1.63,0.29,2.72,1.84,2.43,3.48l-5.56,31.51c-0.14,0.78-0.58,1.48-1.23,1.94C384.29,127.84,383.69,128.03,383.08,128.03z"/>
		</g>
		<g>
			<path class="st1" d="M372.88,90.74l15.76,2.78l-5.56,31.51l-15.76-2.78L372.88,90.74 M372.88,84.74c-1.22,0-2.43,0.37-3.44,1.09
				c-1.3,0.91-2.19,2.31-2.47,3.87l-5.56,31.51c-0.58,3.26,1.6,6.38,4.87,6.95l15.76,2.78c0.35,0.06,0.7,0.09,1.05,0.09
				c2.86,0,5.39-2.05,5.9-4.96l5.56-31.51c0.58-3.26-1.6-6.38-4.87-6.95l-15.76-2.78C373.57,84.77,373.23,84.74,372.88,84.74
				L372.88,84.74z"/>
		</g>
	</g>
	<g>
		
			<rect x="377.82" y="86.59" transform="matrix(0.1736 -0.9848 0.9848 0.1736 221.1292 452.7102)" class="st12" width="5" height="16"/>
	</g>
	<g>
		<g>
			<path class="st9" d="M362.72,116.82c-0.17,0-0.35-0.02-0.52-0.05l-8.86-1.56c-0.78-0.14-1.48-0.58-1.94-1.23
				c-0.46-0.65-0.64-1.46-0.5-2.24l2.61-14.77c0.26-1.46,1.52-2.48,2.95-2.48c0.17,0,0.35,0.02,0.52,0.05l8.86,1.56
				c0.78,0.14,1.48,0.58,1.94,1.23c0.46,0.65,0.64,1.46,0.5,2.24l-2.61,14.77C365.41,115.8,364.15,116.82,362.72,116.82z"/>
		</g>
		<g>
			<path class="st1" d="M356.46,97.49l8.86,1.56l-2.6,14.77l-8.86-1.56L356.46,97.49 M356.45,91.49c-2.86,0-5.39,2.05-5.9,4.96
				l-2.6,14.77c-0.28,1.57,0.08,3.18,0.99,4.48c0.91,1.3,2.31,2.19,3.87,2.47l8.86,1.56c0.35,0.06,0.7,0.09,1.05,0.09
				c2.86,0,5.39-2.05,5.9-4.96l2.6-14.77c0.28-1.57-0.08-3.18-0.99-4.48c-0.91-1.3-2.31-2.19-3.87-2.47l-8.86-1.56
				C357.15,91.52,356.8,91.49,356.45,91.49L356.45,91.49z"/>
		</g>
	</g>
	<g>
		
			<rect x="354.65" y="103.12" transform="matrix(0.9848 0.1736 -0.1736 0.9848 24.2307 -60.7232)" class="st11" width="9" height="10"/>
	</g>
	<g>
		<g>
			<g>
				<g>
					<g>
						<path class="st1" d="M341.63,102.97c-0.12,0-0.23-0.01-0.35-0.03c-1.09-0.19-1.81-1.23-1.62-2.32
							c0.19-1.09-0.54-2.12-1.62-2.32c-0.52-0.09-1.05,0.02-1.49,0.33c-0.44,0.31-0.73,0.77-0.82,1.29
							c-0.19,1.09-1.22,1.81-2.32,1.62c-1.09-0.19-1.81-1.23-1.62-2.32c0.28-1.58,1.16-2.95,2.47-3.87c1.31-0.92,2.9-1.27,4.48-0.99
							c1.58,0.28,2.95,1.15,3.87,2.47c0.92,1.31,1.27,2.91,0.99,4.48C343.43,102.28,342.58,102.97,341.63,102.97z"/>
					</g>
				</g>
				<g>
					<g>
						<path class="st1" d="M325.87,100.19c-0.12,0-0.23-0.01-0.35-0.03c-1.09-0.19-1.81-1.23-1.62-2.32
							c0.09-0.53-0.02-1.06-0.33-1.49s-0.77-0.73-1.29-0.82c-0.53-0.09-1.06,0.02-1.5,0.33c-0.44,0.31-0.73,0.77-0.82,1.29
							c-0.19,1.09-1.22,1.81-2.32,1.62c-1.09-0.19-1.81-1.23-1.62-2.32c0.58-3.26,3.69-5.44,6.95-4.87
							c1.58,0.28,2.95,1.15,3.87,2.47c0.92,1.31,1.27,2.91,0.99,4.48C327.67,99.5,326.83,100.19,325.87,100.19z"/>
					</g>
				</g>
				<g>
					<path class="st1" d="M336.35,86.73c1.12-0.24,2.06-0.22,3.09-0.07c1,0.15,1.99,0.47,2.93,0.94c0.94,0.46,1.83,1.13,2.56,1.94
						c0.75,0.8,1.28,1.82,1.53,2.89c0.21,0.93-0.36,1.85-1.29,2.06c-0.44,0.1-0.87,0.03-1.23-0.18l-0.35-0.2
						c-0.69-0.39-1.2-0.77-1.77-1.1c-0.58-0.32-1.11-0.67-1.73-0.98l-1.9-0.95c-0.65-0.32-1.41-0.64-2.02-1.03l-0.37-0.23
						c-0.79-0.5-1.03-1.55-0.52-2.34C335.53,87.08,335.92,86.82,336.35,86.73z"/>
				</g>
				<g>
					<path class="st1" d="M326.86,88.41c-0.7,0.15-1.53,0.2-2.25,0.28l-2.11,0.25c-0.68,0.08-1.3,0.22-1.96,0.33
						c-0.65,0.11-1.26,0.3-2.04,0.43l-0.39,0.07c-0.94,0.16-1.83-0.47-1.98-1.41c-0.07-0.44,0.03-0.87,0.25-1.22
						c0.59-0.92,1.45-1.69,2.42-2.19c0.96-0.52,2.02-0.84,3.07-0.95c1.05-0.12,2.08-0.08,3.08,0.12c1.01,0.21,1.9,0.51,2.88,1.12
						c0.79,0.5,1.03,1.55,0.54,2.34c-0.25,0.4-0.64,0.66-1.07,0.76L326.86,88.41z"/>
				</g>
			</g>
		</g>
	</g>
	<g>
		<g>
			<path class="st1" d="M330.82,109.49c-3.91,0-7.76-1.53-11.25-4.55c-0.83-0.72-0.93-1.99-0.2-2.82c0.72-0.84,1.98-0.93,2.82-0.2
				c2.98,2.58,7.77,5.1,13.63,2.44c1-0.46,2.19-0.01,2.65,0.99c0.46,1.01,0.01,2.19-1,2.65C335.28,109,333.04,109.49,330.82,109.49z
				"/>
		</g>
		<g>
			<path class="st1" d="M324.36,110.63c2.11,0.75,4.33,1.16,6.56,1.16c0.5,0,0.91,0.41,0.91,0.91c0,0.31-0.16,0.59-0.4,0.75
				l-0.51,0.34c-0.62,0.41-1.27,0.6-1.91,0.69c-0.65,0.1-1.3,0.06-1.93-0.03c-0.63-0.13-1.25-0.31-1.82-0.63
				c-0.58-0.3-1.12-0.7-1.56-1.3l-0.36-0.5c-0.3-0.4-0.21-0.97,0.2-1.27C323.77,110.57,324.08,110.53,324.36,110.63z"/>
		</g>
	</g>
</g>
<g>
	<g>
		<path class="st13" d="M122.6,275.4c2.65,0,4.8-2.15,4.8-4.8c0-0.88,0.72-1.6,1.6-1.6c0.88,0,1.6,0.72,1.6,1.6
			c0,2.65,2.15,4.8,4.8,4.8c0.88,0,1.6,0.72,1.6,1.6s-0.72,1.6-1.6,1.6c-2.65,0-4.8,2.15-4.8,4.8c0,0.88-0.72,1.6-1.6,1.6
			c-0.88,0-1.6-0.72-1.6-1.6c0-2.65-2.15-4.8-4.8-4.8c-0.88,0-1.6-0.72-1.6-1.6S121.72,275.4,122.6,275.4z"/>
	</g>
</g>
<g>
	<g>
		<circle class="st13" cx="267" cy="58" r="5"/>
	</g>
</g>
<g>
	<g>
		<path class="st13" d="M369.6,279.4c2.65,0,4.8-2.15,4.8-4.8c0-0.88,0.72-1.6,1.6-1.6s1.6,0.72,1.6,1.6c0,2.65,2.15,4.8,4.8,4.8
			c0.88,0,1.6,0.72,1.6,1.6s-0.72,1.6-1.6,1.6c-2.65,0-4.8,2.15-4.8,4.8c0,0.88-0.72,1.6-1.6,1.6s-1.6-0.72-1.6-1.6
			c0-2.65-2.15-4.8-4.8-4.8c-0.88,0-1.6-0.72-1.6-1.6S368.72,279.4,369.6,279.4z"/>
	</g>
</g>
<g>
	<g>
		<circle class="st13" cx="344" cy="270" r="3"/>
	</g>
</g>
<g>
	<g>
		<circle class="st13" cx="364" cy="310" r="4"/>
	</g>
</g>
<path class="st13" d="M344,40h-7v-7c0-1.66-1.34-3-3-3s-3,1.34-3,3v7h-7c-1.66,0-3,1.34-3,3s1.34,3,3,3h7v7c0,1.66,1.34,3,3,3
	s3-1.34,3-3v-7h7c1.66,0,3-1.34,3-3S345.66,40,344,40z"/>
<g>
	<g>
		<path class="st13" d="M67.8,137.2c2.98,0,5.4-2.42,5.4-5.4c0-0.99,0.81-1.8,1.8-1.8c0.99,0,1.8,0.81,1.8,1.8
			c0,2.98,2.42,5.4,5.4,5.4c0.99,0,1.8,0.81,1.8,1.8s-0.81,1.8-1.8,1.8c-2.98,0-5.4,2.42-5.4,5.4c0,0.99-0.81,1.8-1.8,1.8
			c-0.99,0-1.8-0.81-1.8-1.8c0-2.98-2.42-5.4-5.4-5.4c-0.99,0-1.8-0.81-1.8-1.8S66.81,137.2,67.8,137.2z"/>
	</g>
</g>
<g>
	<g>
		<circle class="st13" cx="37" cy="167" r="3"/>
	</g>
</g>
<g>
	<g>
		<circle class="st13" cx="113" cy="315" r="4"/>
	</g>
</g>
<rect class="st14" width="400" height="400"/>
</svg>
