<?xml version="1.0" encoding="utf-8"?>
<!-- Generator: Adobe Illustrator 26.0.1, SVG Export Plug-In . SVG Version: 6.00 Build 0)  -->
<svg version="1.1" id="Landing_x5F_Page_x5F_Hub-SaaS_x5F_Landing_x5F_Page"
	 xmlns="http://www.w3.org/2000/svg" xmlns:xlink="http://www.w3.org/1999/xlink" x="0px" y="0px" viewBox="0 0 400 400"
	 style="enable-background:new 0 0 400 400;" xml:space="preserve">
<style type="text/css">
	.st0{fill:#F89D81;}
	.st1{fill:#515979;}
	.st2{fill:#FDE1D9;}
	.st3{fill:#667683;}
	.st4{fill:#FFFFFF;}
	.st5{fill:#EF7D7D;}
	.st6{fill:#FFE8A0;}
	.st7{fill:#7DDF96;}
	.st8{fill:#3CB48C;}
	.st9{fill:#747A94;}
	.st10{fill:#D8EBFB;}
	.st11{fill:#F3F9FE;}
	.st12{fill:#96C8F0;}
	.st13{fill:none;}
	.st14{fill:#FFD886;}
</style>
<g>
	<g>
		<g>
			<path class="st0" d="M228,254.37c-7.17,0-13-5.83-13-13v-198c0-7.17,5.83-13,13-13h134c7.17,0,13,5.83,13,13v198
				c0,7.17-5.83,13-13,13H228z"/>
		</g>
		<g>
			<g>
				<path class="st1" d="M362,33.37c5.52,0,10,4.48,10,10v198c0,5.52-4.48,10-10,10H228c-5.52,0-10-4.48-10-10v-198
					c0-5.52,4.48-10,10-10H362 M362,27.37H228c-8.82,0-16,7.18-16,16v198c0,8.82,7.18,16,16,16h134c8.82,0,16-7.18,16-16v-198
					C378,34.55,370.82,27.37,362,27.37L362,27.37z"/>
			</g>
		</g>
	</g>
	<g>
		<rect x="218" y="125.37" class="st2" width="154" height="72"/>
	</g>
	<g>
		<g>
			<path class="st3" d="M218,64.37c-1.66,0-3-1.34-3-3v-18c0-7.17,5.83-13,13-13h134c7.17,0,13,5.83,13,13v18c0,1.66-1.34,3-3,3H218
				z"/>
		</g>
		<g>
			<path class="st1" d="M362,33.37c5.52,0,10,4.48,10,10v18H218v-18c0-5.52,4.48-10,10-10H362 M362,27.37H228c-8.82,0-16,7.18-16,16
				v18c0,3.31,2.69,6,6,6h154c3.31,0,6-2.69,6-6v-18C378,34.55,370.82,27.37,362,27.37L362,27.37z"/>
		</g>
	</g>
	<g>
		<g>
			<path class="st4" d="M299,52.37c-3.31,0-6-2.69-6-6s2.69-6,6-6h58c3.31,0,6,2.69,6,6s-2.69,6-6,6H299z"/>
		</g>
		<g>
			<g>
				<path class="st1" d="M357,43.37c1.66,0,3,1.34,3,3s-1.34,3-3,3h-58c-1.66,0-3-1.34-3-3s1.34-3,3-3H357 M357,37.37h-58
					c-4.96,0-9,4.04-9,9s4.04,9,9,9h58c4.96,0,9-4.04,9-9S361.96,37.37,357,37.37L357,37.37z"/>
			</g>
		</g>
	</g>
	<g>
		<g>
			<circle class="st5" cx="233" cy="46.37" r="6"/>
		</g>
		<g>
			<g>
				<path class="st1" d="M233,43.37c1.66,0,3,1.34,3,3c0,1.66-1.34,3-3,3c-1.66,0-3-1.34-3-3C230,44.71,231.34,43.37,233,43.37
					 M233,37.37c-4.96,0-9,4.04-9,9s4.04,9,9,9s9-4.04,9-9S237.96,37.37,233,37.37L233,37.37z"/>
			</g>
		</g>
	</g>
	<g>
		<g>
			<circle class="st6" cx="254" cy="46.37" r="6"/>
		</g>
		<g>
			<g>
				<path class="st1" d="M254,43.37c1.66,0,3,1.34,3,3c0,1.66-1.34,3-3,3c-1.66,0-3-1.34-3-3C251,44.71,252.34,43.37,254,43.37
					 M254,37.37c-4.96,0-9,4.04-9,9s4.04,9,9,9s9-4.04,9-9S258.96,37.37,254,37.37L254,37.37z"/>
			</g>
		</g>
	</g>
	<g>
		<g>
			<circle class="st7" cx="275" cy="46.37" r="6"/>
		</g>
		<g>
			<g>
				<path class="st1" d="M275,43.37c1.66,0,3,1.34,3,3c0,1.66-1.34,3-3,3s-3-1.34-3-3C272,44.71,273.34,43.37,275,43.37 M275,37.37
					c-4.96,0-9,4.04-9,9s4.04,9,9,9s9-4.04,9-9S279.96,37.37,275,37.37L275,37.37z"/>
			</g>
		</g>
	</g>
	<g>
		<g>
			<g>
				<circle class="st5" cx="325" cy="97.37" r="2"/>
			</g>
			<g>
				<circle class="st5" cx="321" cy="105.37" r="2"/>
			</g>
			<g>
				<circle class="st5" cx="329" cy="105.37" r="2"/>
			</g>
		</g>
		<g>
			<g>
				<circle class="st5" cx="265" cy="97.37" r="2"/>
			</g>
			<g>
				<circle class="st5" cx="261" cy="105.37" r="2"/>
			</g>
			<g>
				<circle class="st5" cx="269" cy="105.37" r="2"/>
			</g>
		</g>
	</g>
	<g>
		<g>
			<g>
				<path class="st1" d="M303.03,97.37c-0.62,0-1.2-0.39-1.42-1.01c-0.27-0.78,0.15-1.64,0.93-1.91c2.24-0.77,5.74-0.77,7.98,0
					c0.78,0.27,1.2,1.12,0.93,1.91c-0.27,0.78-1.12,1.2-1.91,0.93c-1.6-0.55-4.42-0.55-6.02,0
					C303.35,97.35,303.19,97.37,303.03,97.37z"/>
			</g>
			<g>
				<g>
					<circle class="st1" cx="306.53" cy="89.18" r="6"/>
				</g>
				<g>
					<circle class="st4" cx="308.03" cy="89.18" r="1.5"/>
				</g>
			</g>
			<g>
				<path class="st1" d="M303.09,75.24c3.57-2.19,8.99-1.73,11.44,1.9c0.84,1.2-0.31,2.92-1.73,2.64c-1.57-0.27-2.86-0.63-4.4-0.83
					c-1.46-0.21-3.36-0.28-4.78-0.61C302.17,78.07,301.83,75.97,303.09,75.24L303.09,75.24z"/>
			</g>
		</g>
		<g>
			<g>
				<path class="st1" d="M286.97,97.37c-0.16,0-0.33-0.03-0.49-0.08c-1.6-0.55-4.42-0.55-6.02,0c-0.79,0.27-1.64-0.15-1.91-0.93
					c-0.27-0.78,0.15-1.64,0.93-1.91c2.24-0.77,5.74-0.77,7.98,0c0.78,0.27,1.2,1.12,0.93,1.91
					C288.18,96.98,287.6,97.37,286.97,97.37z"/>
			</g>
			<g>
				<g>
					<circle class="st1" cx="283.47" cy="89.18" r="6"/>
				</g>
				<g>
					<circle class="st4" cx="284.97" cy="89.18" r="1.5"/>
				</g>
			</g>
			<g>
				<path class="st1" d="M285.94,78.43c-1.25,0.23-3.08,0.34-4.36,0.52c-1.54,0.19-2.82,0.55-4.39,0.82
					c-0.94,0.16-1.83-0.47-1.98-1.41c-0.07-0.44,0.03-0.88,0.25-1.22c1.78-2.76,5.51-3.65,8.57-3.02c1.01,0.21,1.9,0.51,2.88,1.12
					C288.39,76.24,287.66,78.31,285.94,78.43L285.94,78.43z"/>
			</g>
		</g>
		<g>
			<path class="st1" d="M307.01,100.59L307.01,100.59H283c-2.21,0-4,1.79-4,4c0,8.82,7.18,16,16,16c8.77,0,15.91-7.09,16-15.84
				c0-0.05,0-0.11,0-0.16C311,102.38,309.21,100.59,307.01,100.59z"/>
			<g>
				<g>
					<ellipse class="st5" cx="295" cy="112.59" rx="8.93" ry="4"/>
				</g>
			</g>
		</g>
	</g>
	<g>
		<circle class="st2" cx="248" cy="224.37" r="18"/>
	</g>
	<g>
		<circle class="st2" cx="295" cy="224.37" r="18"/>
	</g>
	<g>
		<circle class="st2" cx="342" cy="224.37" r="18"/>
	</g>
	<g>
		<path class="st4" d="M356,185.37h-51c-2.21,0-4-1.79-4-4v-40c0-2.21,1.79-4,4-4h51c2.21,0,4,1.79,4,4v40
			C360,183.58,358.21,185.37,356,185.37z"/>
	</g>
	<g>
		<path class="st0" d="M352,171.37h-43c-1.1,0-2-0.9-2-2v0c0-1.1,0.9-2,2-2h43c1.1,0,2,0.9,2,2v0
			C354,170.48,353.1,171.37,352,171.37z"/>
	</g>
	<g>
		<path class="st0" d="M346,179.37h-37c-1.1,0-2-0.9-2-2v0c0-1.1,0.9-2,2-2h37c1.1,0,2,0.9,2,2v0
			C348,178.48,347.1,179.37,346,179.37z"/>
	</g>
	<g>
		<path class="st0" d="M352,163.37h-43c-1.1,0-2-0.9-2-2v0c0-1.1,0.9-2,2-2h43c1.1,0,2,0.9,2,2v0
			C354,162.48,353.1,163.37,352,163.37z"/>
	</g>
	<g>
		<circle class="st2" cx="313" cy="149.37" r="6"/>
	</g>
	<g>
		<path class="st4" d="M285,185.37h-51c-2.21,0-4-1.79-4-4v-40c0-2.21,1.79-4,4-4h51c2.21,0,4,1.79,4,4v40
			C289,183.58,287.21,185.37,285,185.37z"/>
	</g>
	<g>
		<path class="st0" d="M281,171.37h-43c-1.1,0-2-0.9-2-2v0c0-1.1,0.9-2,2-2h43c1.1,0,2,0.9,2,2v0
			C283,170.48,282.1,171.37,281,171.37z"/>
	</g>
	<g>
		<path class="st0" d="M275,179.37h-37c-1.1,0-2-0.9-2-2v0c0-1.1,0.9-2,2-2h37c1.1,0,2,0.9,2,2v0
			C277,178.48,276.1,179.37,275,179.37z"/>
	</g>
	<g>
		<path class="st0" d="M281,163.37h-43c-1.1,0-2-0.9-2-2v0c0-1.1,0.9-2,2-2h43c1.1,0,2,0.9,2,2v0
			C283,162.48,282.1,163.37,281,163.37z"/>
	</g>
	<g>
		<circle class="st2" cx="242" cy="149.37" r="6"/>
	</g>
</g>
<g>
	<g>
		<g>
			<path class="st7" d="M169.44,99.95c-1.32,0-2.54-0.88-2.9-2.22l-5.18-19.32c-0.43-1.6,0.52-3.25,2.12-3.67l11.59-3.11
				c0.25-0.07,0.52-0.1,0.78-0.1c0.52,0,1.04,0.14,1.5,0.4c0.69,0.4,1.19,1.05,1.4,1.82l5.18,19.32c0.21,0.77,0.1,1.59-0.3,2.28
				c-0.4,0.69-1.05,1.19-1.82,1.4l-11.59,3.11C169.96,99.91,169.69,99.95,169.44,99.95z"/>
		</g>
		<g>
			<g>
				<path class="st1" d="M175.85,74.52l5.18,19.32l-11.59,3.11l-5.18-19.32L175.85,74.52 M175.86,68.52c-0.51,0-1.04,0.07-1.56,0.21
					l-11.59,3.11c-1.54,0.41-2.85,1.42-3.64,2.8c-0.8,1.38-1.01,3.02-0.6,4.55l5.18,19.32c0.72,2.68,3.14,4.45,5.79,4.45
					c0.51,0,1.04-0.07,1.56-0.21l11.59-3.11c1.54-0.41,2.85-1.42,3.64-2.8c0.8-1.38,1.01-3.02,0.6-4.55l-5.18-19.32
					C180.93,70.29,178.51,68.52,175.86,68.52L175.86,68.52z"/>
			</g>
		</g>
	</g>
	<g>
		<g>
			<path class="st7" d="M190.15,177.22c-0.52,0-1.04-0.14-1.5-0.4c-0.69-0.4-1.19-1.05-1.4-1.82l-5.18-19.32
				c-0.21-0.77-0.1-1.59,0.3-2.28c0.4-0.69,1.05-1.19,1.82-1.4l11.59-3.11c0.26-0.07,0.52-0.1,0.78-0.1c1.32,0,2.54,0.88,2.9,2.22
				l5.18,19.32c0.43,1.6-0.52,3.25-2.12,3.67l-11.59,3.11C190.67,177.19,190.41,177.22,190.15,177.22z"/>
		</g>
		<g>
			<g>
				<path class="st1" d="M196.56,151.8l5.18,19.32l-11.59,3.11l-5.18-19.32L196.56,151.8 M196.56,145.79
					c-0.51,0-1.04,0.07-1.56,0.21l-11.59,3.11c-1.54,0.41-2.85,1.42-3.64,2.8c-0.8,1.38-1.01,3.02-0.6,4.55l5.18,19.32
					c0.72,2.68,3.14,4.45,5.79,4.45c0.51,0,1.04-0.07,1.56-0.21l11.59-3.11c1.54-0.41,2.85-1.42,3.64-2.8
					c0.8-1.38,1.01-3.02,0.6-4.55l-5.18-19.32C201.64,147.56,199.21,145.79,196.56,145.79L196.56,145.79z"/>
			</g>
		</g>
	</g>
	<g>
		<g>
			<path class="st7" d="M136.25,146.11c-1.32,0-2.54-0.88-2.9-2.22l-3.11-11.59c-0.21-0.77-0.1-1.59,0.3-2.28s1.05-1.19,1.82-1.4
				l19.32-5.18c0.26-0.07,0.52-0.1,0.78-0.1c1.32,0,2.54,0.88,2.9,2.22l3.11,11.59c0.21,0.77,0.1,1.59-0.3,2.28s-1.05,1.19-1.82,1.4
				l-19.32,5.18C136.77,146.08,136.51,146.11,136.25,146.11z"/>
		</g>
		<g>
			<g>
				<path class="st1" d="M152.47,126.34l3.11,11.59l-19.32,5.18l-3.11-11.59L152.47,126.34 M152.47,120.34
					c-0.51,0-1.04,0.07-1.56,0.21l-19.32,5.18c-1.54,0.41-2.85,1.42-3.64,2.8c-0.8,1.38-1.01,3.02-0.6,4.55l3.11,11.59
					c0.72,2.68,3.14,4.45,5.79,4.45c0.51,0,1.04-0.07,1.56-0.21l19.32-5.18c1.54-0.41,2.85-1.42,3.64-2.8
					c0.8-1.38,1.01-3.02,0.6-4.55l-3.11-11.59C157.55,122.11,155.12,120.34,152.47,120.34L152.47,120.34z"/>
			</g>
		</g>
	</g>
	<g>
		<g>
			<path class="st7" d="M213.53,125.4c-0.52,0-1.04-0.14-1.5-0.4c-0.69-0.4-1.19-1.05-1.4-1.82l-3.11-11.59
				c-0.43-1.6,0.52-3.25,2.12-3.67l19.32-5.18c0.26-0.07,0.52-0.1,0.78-0.1c1.32,0,2.54,0.88,2.9,2.22l3.11,11.59
				c0.21,0.77,0.1,1.59-0.3,2.28c-0.4,0.69-1.05,1.19-1.82,1.4l-19.32,5.18C214.05,125.37,213.79,125.4,213.53,125.4z"/>
		</g>
		<g>
			<g>
				<path class="st1" d="M229.74,105.63l3.11,11.59l-19.32,5.18l-3.11-11.59L229.74,105.63 M229.75,99.63
					c-0.51,0-1.04,0.07-1.56,0.21l-19.32,5.18c-1.54,0.41-2.85,1.42-3.64,2.8c-0.8,1.38-1.01,3.02-0.6,4.55l3.11,11.59
					c0.72,2.68,3.14,4.45,5.79,4.45c0.51,0,1.04-0.07,1.56-0.21l19.32-5.18c1.54-0.41,2.85-1.42,3.64-2.8
					c0.8-1.38,1.01-3.02,0.6-4.55l-3.11-11.59C234.82,101.4,232.4,99.63,229.75,99.63L229.75,99.63z"/>
			</g>
		</g>
	</g>
	<g>
		<g>
			<path class="st7" d="M154.02,117.57c-0.51,0-1.02-0.13-1.5-0.4l-17.32-10c-0.69-0.4-1.19-1.05-1.4-1.82
				c-0.21-0.77-0.1-1.59,0.3-2.28l6-10.39c0.56-0.96,1.56-1.5,2.6-1.5c0.51,0,1.02,0.13,1.5,0.4l17.32,10
				c0.69,0.4,1.19,1.05,1.4,1.82c0.21,0.77,0.1,1.59-0.3,2.28l-6,10.39C156.06,117.03,155.05,117.57,154.02,117.57z"/>
		</g>
		<g>
			<g>
				<path class="st1" d="M142.7,94.18l17.32,10l-6,10.39l-17.32-10L142.7,94.18 M142.7,88.17c-2.07,0-4.09,1.08-5.2,3l-6,10.39
					c-0.8,1.38-1.01,3.02-0.6,4.55c0.41,1.54,1.42,2.85,2.8,3.64l17.32,10c0.94,0.55,1.98,0.8,2.99,0.8c2.07,0,4.09-1.08,5.2-3
					l6-10.39c0.8-1.38,1.01-3.02,0.6-4.55c-0.41-1.54-1.42-2.85-2.8-3.64l-17.32-10C144.75,88.43,143.72,88.17,142.7,88.17
					L142.7,88.17z"/>
			</g>
		</g>
	</g>
	<g>
		<g>
			<path class="st7" d="M223.3,157.57c-0.51,0-1.02-0.13-1.5-0.4l-17.32-10c-0.69-0.4-1.19-1.05-1.4-1.82s-0.1-1.59,0.3-2.28
				l6-10.39c0.56-0.96,1.56-1.5,2.6-1.5c0.51,0,1.02,0.13,1.5,0.4l17.32,10c0.69,0.4,1.19,1.05,1.4,1.82s0.1,1.59-0.3,2.28l-6,10.39
				C225.34,157.03,224.34,157.57,223.3,157.57z"/>
		</g>
		<g>
			<g>
				<path class="st1" d="M211.98,134.18l17.32,10l-6,10.39l-17.32-10L211.98,134.18 M211.98,128.18c-0.52,0-1.04,0.07-1.55,0.2
					c-1.54,0.41-2.85,1.42-3.64,2.8l-6,10.39c-1.66,2.87-0.67,6.54,2.2,8.2l17.32,10c0.92,0.53,1.96,0.8,3,0.8
					c0.52,0,1.04-0.07,1.55-0.2c1.54-0.41,2.85-1.42,3.64-2.8l6-10.39c1.66-2.87,0.67-6.54-2.2-8.2l-17.32-10
					C214.06,128.45,213.02,128.18,211.98,128.18L211.98,128.18z"/>
			</g>
		</g>
	</g>
	<g>
		<g>
			<path class="st7" d="M163.19,173.67c-0.51,0-1.02-0.13-1.5-0.4l-10.39-6c-0.69-0.4-1.19-1.05-1.4-1.82
				c-0.21-0.77-0.1-1.59,0.3-2.28l10-17.32c0.56-0.96,1.56-1.5,2.6-1.5c0.51,0,1.02,0.13,1.5,0.4l10.39,6
				c0.69,0.4,1.19,1.05,1.4,1.82s0.1,1.59-0.3,2.28l-10,17.32C165.24,173.13,164.23,173.67,163.19,173.67z"/>
		</g>
		<g>
			<g>
				<path class="st1" d="M162.8,147.35l10.39,6l-10,17.32l-10.39-6L162.8,147.35 M162.8,141.35c-0.52,0-1.04,0.07-1.55,0.2
					c-1.54,0.41-2.85,1.42-3.64,2.8l-10,17.32c-1.66,2.87-0.67,6.54,2.2,8.2l10.39,6c0.92,0.53,1.96,0.8,3,0.8
					c0.52,0,1.04-0.07,1.55-0.2c1.54-0.41,2.85-1.42,3.64-2.8l10-17.32c1.66-2.87,0.67-6.54-2.2-8.2l-10.39-6
					C164.88,141.62,163.85,141.35,162.8,141.35L162.8,141.35z"/>
			</g>
		</g>
	</g>
	<g>
		<g>
			<path class="st7" d="M203.19,104.39c-0.51,0-1.02-0.13-1.5-0.4l-10.39-6c-0.69-0.4-1.19-1.05-1.4-1.82s-0.1-1.59,0.3-2.28
				l10-17.32c0.56-0.96,1.56-1.5,2.6-1.5c0.51,0,1.02,0.13,1.5,0.4l10.39,6c0.69,0.4,1.19,1.05,1.4,1.82s0.1,1.59-0.3,2.28
				l-10,17.32C205.24,103.85,204.23,104.39,203.19,104.39z"/>
		</g>
		<g>
			<g>
				<path class="st1" d="M202.8,78.07l10.39,6l-10,17.32l-10.39-6L202.8,78.07 M202.8,72.07c-0.52,0-1.04,0.07-1.55,0.2
					c-1.54,0.41-2.85,1.42-3.64,2.8l-10,17.32c-1.66,2.87-0.67,6.54,2.2,8.2l10.39,6c0.92,0.53,1.96,0.8,3,0.8
					c0.52,0,1.04-0.07,1.55-0.2c1.54-0.41,2.85-1.42,3.64-2.8l10-17.32c1.66-2.87,0.67-6.54-2.2-8.2l-10.39-6
					C204.88,72.34,203.85,72.07,202.8,72.07L202.8,72.07z"/>
			</g>
		</g>
	</g>
	<g>
		<g>
			<g>
				<path class="st7" d="M182.97,167.38c-19.41,0-36.48-13.11-41.51-31.88c-6.14-22.9,7.5-46.53,30.41-52.66
					c3.65-0.98,7.41-1.48,11.15-1.48c19.41,0,36.48,13.11,41.51,31.88c2.97,11.09,1.45,22.68-4.29,32.63
					c-5.74,9.95-15.02,17.06-26.11,20.04C190.48,166.88,186.72,167.38,182.97,167.38C182.98,167.38,182.98,167.38,182.97,167.38z
					 M183.02,99.36c-2.18,0-4.36,0.29-6.49,0.86c-6.45,1.73-11.84,5.86-15.18,11.65s-4.23,12.52-2.5,18.97
					c2.92,10.91,12.85,18.54,24.13,18.54c2.18,0,4.36-0.29,6.49-0.86c13.31-3.57,21.25-17.3,17.68-30.62
					C204.22,106.99,194.3,99.36,183.02,99.36z"/>
			</g>
		</g>
		<g>
			<g>
				<path class="st1" d="M183.03,84.36c17.66,0,33.82,11.79,38.61,29.66c5.72,21.34-6.95,43.27-28.28,48.99
					c-3.47,0.93-6.95,1.37-10.38,1.37c-17.66,0-33.82-11.79-38.61-29.66c-5.72-21.34,6.95-43.27,28.28-48.99
					C176.12,84.8,179.6,84.36,183.03,84.36 M182.98,152.38c2.4,0,4.84-0.31,7.26-0.96c14.94-4,23.8-19.36,19.8-34.29
					c-3.35-12.51-14.67-20.76-27.03-20.76c-2.4,0-4.84,0.31-7.26,0.96c-14.94,4-23.8,19.36-19.8,34.29
					C159.31,144.13,170.62,152.38,182.98,152.38 M183.03,78.36c-4.01,0-8.02,0.53-11.93,1.58c-24.5,6.56-39.09,31.84-32.53,56.34
					c5.38,20.08,23.64,34.1,44.41,34.1c4.01,0,8.02-0.53,11.93-1.58c11.87-3.18,21.79-10.79,27.93-21.43
					c6.14-10.64,7.78-23.04,4.6-34.91C222.05,92.39,203.79,78.36,183.03,78.36L183.03,78.36z M182.98,146.38
					c-9.93,0-18.66-6.71-21.23-16.31c-1.52-5.68-0.74-11.6,2.2-16.69c2.94-5.09,7.68-8.73,13.36-10.25c1.87-0.5,3.79-0.76,5.71-0.76
					c9.93,0,18.66,6.71,21.23,16.31c1.52,5.68,0.74,11.6-2.2,16.69c-2.94,5.09-7.68,8.73-13.36,10.25
					C186.82,146.12,184.9,146.38,182.98,146.38L182.98,146.38z"/>
			</g>
		</g>
	</g>
	<g>
		<g>
			<g>
				<path class="st8" d="M182.98,155.38c-13.99,0-26.3-9.45-29.93-22.98c-2.14-8-1.04-16.35,3.1-23.52
					c4.14-7.17,10.82-12.3,18.82-14.44c2.63-0.71,5.34-1.06,8.04-1.06c13.99,0,26.3,9.45,29.93,22.98
					c4.42,16.51-5.41,33.54-21.92,37.97C188.39,155.02,185.69,155.38,182.98,155.38C182.98,155.38,182.98,155.38,182.98,155.38z
					 M183.01,105.37c-1.66,0-3.31,0.22-4.93,0.65c-10.12,2.71-16.15,13.15-13.43,23.27c2.22,8.29,9.76,14.09,18.34,14.09
					c1.66,0,3.31-0.22,4.93-0.65c4.9-1.31,9-4.46,11.54-8.85c2.54-4.4,3.21-9.52,1.9-14.42
					C199.13,111.16,191.59,105.37,183.01,105.37z"/>
			</g>
		</g>
		<g>
			<g>
				<path class="st1" d="M183.02,96.36c12.36,0,23.68,8.25,27.03,20.76c4,14.94-4.86,30.29-19.8,34.29
					c-2.43,0.65-4.87,0.96-7.26,0.96c-12.36,0-23.68-8.25-27.03-20.76c-4-14.94,4.86-30.29,19.8-34.29
					C178.18,96.67,180.62,96.36,183.02,96.36 M182.99,146.38c1.88,0,3.8-0.24,5.71-0.76c11.74-3.14,18.7-15.21,15.56-26.94
					c-2.63-9.83-11.52-16.31-21.24-16.31c-1.88,0-3.8,0.24-5.71,0.76c-11.74,3.14-18.7,15.21-15.56,26.94
					C164.38,139.89,173.27,146.38,182.99,146.38 M183.02,90.36c-2.96,0-5.93,0.39-8.82,1.17c-18.11,4.85-28.89,23.53-24.04,41.64
					c3.98,14.84,17.47,25.21,32.82,25.21c2.96,0,5.93-0.39,8.82-1.17c18.11-4.85,28.89-23.53,24.04-41.64
					C211.86,100.73,198.37,90.36,183.02,90.36L183.02,90.36z M182.99,140.38c-7.22,0-13.57-4.88-15.44-11.86
					c-1.11-4.13-0.54-8.44,1.6-12.14c2.14-3.7,5.59-6.35,9.72-7.45c1.36-0.37,2.76-0.55,4.16-0.55c7.22,0,13.57,4.88,15.44,11.86
					c1.11,4.13,0.54,8.44-1.6,12.14c-2.14,3.7-5.59,6.35-9.72,7.45C185.78,140.19,184.38,140.38,182.99,140.38L182.99,140.38z"/>
			</g>
		</g>
	</g>
</g>
<g>
	<g>
		<g>
			<path class="st9" d="M33.57,380.87c-4.96,0-9-4.04-9-9v-128c0-4.96,4.04-9,9-9h212c4.96,0,9,4.04,9,9v128c0,4.96-4.04,9-9,9
				H33.57z"/>
		</g>
		<g>
			<path class="st1" d="M245.57,237.87c3.31,0,6,2.69,6,6v128c0,3.31-2.69,6-6,6h-212c-3.31,0-6-2.69-6-6v-128c0-3.31,2.69-6,6-6
				H245.57 M245.57,231.87h-212c-6.62,0-12,5.38-12,12v128c0,6.62,5.38,12,12,12h212c6.62,0,12-5.38,12-12v-128
				C257.57,237.25,252.19,231.87,245.57,231.87L245.57,231.87z"/>
		</g>
	</g>
	<g>
		<g>
			<rect x="37.57" y="247.87" class="st10" width="204" height="120"/>
		</g>
		<g>
			<g>
				<path class="st1" d="M239.57,249.87v116h-200v-116H239.57 M243.57,245.87h-4h-200h-4v4v116v4h4h200h4v-4v-116V245.87
					L243.57,245.87z"/>
			</g>
		</g>
	</g>
	<g>
		<g>
			<polygon class="st11" points="121.07,365.87 95.07,365.87 135.07,249.87 161.07,249.87 			"/>
		</g>
		<g>
			<polygon class="st11" points="144.07,365.87 127.07,365.87 167.07,249.87 184.07,249.87 			"/>
		</g>
	</g>
	<g>
		<g>
			<path class="st9" d="M16.57,391.87c-6.07,0-11-4.93-11-11c0-1.66,1.34-3,3-3h262c1.66,0,3,1.34,3,3c0,6.07-4.93,11-11,11H16.57z"
				/>
		</g>
		<g>
			<path class="st1" d="M270.57,380.87c0,4.42-3.58,8-8,8h-246c-4.42,0-8-3.58-8-8H270.57 M270.57,374.87h-262c-3.31,0-6,2.69-6,6
				c0,7.72,6.28,14,14,14h246c7.72,0,14-6.28,14-14C276.57,377.55,273.89,374.87,270.57,374.87L270.57,374.87z M270.57,386.87
				L270.57,386.87L270.57,386.87L270.57,386.87z"/>
		</g>
	</g>
	<g>
		<path class="st1" d="M160.57,384.87h-42c-2.21,0-4-1.79-4-4l0,0h50l0,0C164.57,383.07,162.78,384.87,160.57,384.87z"/>
	</g>
	<g>
		<g>
			<g>
				<path class="st1" d="M161.07,308.06c-0.32,0-0.64-0.08-0.94-0.24c-1.89-1.02-5.22-1.02-7.11,0c-0.97,0.52-2.19,0.16-2.71-0.82
					s-0.16-2.19,0.82-2.71c3.05-1.64,7.84-1.64,10.89,0c0.97,0.52,1.34,1.73,0.82,2.71C162.48,307.67,161.79,308.06,161.07,308.06z"
					/>
			</g>
			<g>
				<g>
					<circle class="st1" cx="156.57" cy="297.31" r="8"/>
				</g>
				<g>
					<circle class="st4" cx="158.57" cy="297.31" r="2"/>
				</g>
			</g>
			<g>
				<path class="st1" d="M150.71,280.99c3.68-3.11,9.5-3.68,13.48-0.8c1.83,1.3,4.9,4.78,2.04,6.4c-0.73,0.35-1.49,0.16-2.13-0.21
					c-3.12-1.93-6.26-2.5-9.86-2.01c-0.77,0.07-1.51,0.18-2.23,0.14C150.18,284.54,149.32,282.12,150.71,280.99L150.71,280.99z"/>
			</g>
			<g>
				<path class="st1" d="M127.07,308.06c-0.32,0-0.64-0.08-0.94-0.24c-1.89-1.02-5.22-1.02-7.11,0c-0.97,0.52-2.19,0.16-2.71-0.82
					s-0.16-2.19,0.82-2.71c3.05-1.64,7.84-1.64,10.89,0c0.97,0.52,1.34,1.73,0.82,2.71C128.48,307.67,127.79,308.06,127.07,308.06z"
					/>
			</g>
			<g>
				<g>
					<circle class="st1" cx="122.57" cy="297.31" r="8"/>
				</g>
				<g>
					<circle class="st4" cx="124.57" cy="297.31" r="2"/>
				</g>
			</g>
			<g>
				<path class="st1" d="M126.53,284.51c-2.9-0.28-6.02-0.65-8.74,0.51c-0.95,0.32-2.01,1.02-3.12,1.54c-1.68,0.88-3.57-1-2.75-2.68
					c1.9-4.63,7.88-6.6,12.45-5.07c1.95,0.65,6.2,2.34,4.3,4.99C128.13,284.47,127.3,284.55,126.53,284.51L126.53,284.51z"/>
			</g>
		</g>
	</g>
	<g>
		<circle class="st12" cx="98.57" cy="304.96" r="2.5"/>
	</g>
	<g>
		<circle class="st12" cx="104.07" cy="315.96" r="2.5"/>
	</g>
	<g>
		<circle class="st12" cx="93.07" cy="315.96" r="2.5"/>
	</g>
	<g>
		<circle class="st12" cx="180.57" cy="304.96" r="2.5"/>
	</g>
	<g>
		<circle class="st12" cx="186.07" cy="315.96" r="2.5"/>
	</g>
	<g>
		<circle class="st12" cx="175.07" cy="315.96" r="2.5"/>
	</g>
	<g>
		<path class="st1" d="M157.58,311.46L157.58,311.46h-36.01c-2.76,0-5,2.24-5,5c0,12.68,10.32,23,23,23c12.62,0,22.9-10.22,23-22.82
			c0-0.06,0-0.12,0-0.18C162.58,313.7,160.34,311.46,157.58,311.46z"/>
		<g>
			<g>
				<ellipse class="st5" cx="139.57" cy="328.46" rx="13.39" ry="6"/>
			</g>
		</g>
	</g>
	<g>
		<circle class="st1" cx="139.57" cy="241.87" r="2"/>
	</g>
</g>
<g>
	<rect x="0" class="st13" width="400" height="400"/>
</g>
<g>
	<g>
		<path class="st14" d="M32.37,13.6c2.98,0,5.4-2.42,5.4-5.4c0-0.99,0.81-1.8,1.8-1.8c0.99,0,1.8,0.81,1.8,1.8
			c0,2.98,2.42,5.4,5.4,5.4c0.99,0,1.8,0.81,1.8,1.8s-0.81,1.8-1.8,1.8c-2.98,0-5.4,2.42-5.4,5.4c0,0.99-0.81,1.8-1.8,1.8
			c-0.99,0-1.8-0.81-1.8-1.8c0-2.98-2.42-5.4-5.4-5.4c-0.99,0-1.8-0.81-1.8-1.8S31.38,13.6,32.37,13.6z"/>
	</g>
</g>
<g>
	<g>
		<circle class="st14" cx="305.72" cy="301.49" r="3"/>
	</g>
</g>
<g>
	<g>
		<circle class="st14" cx="161.07" cy="32.02" r="3"/>
	</g>
</g>
<g>
	<g>
		<circle class="st14" cx="72.44" cy="159.37" r="3"/>
	</g>
</g>
<g>
	<g>
		<circle class="st14" cx="113.48" cy="90.68" r="3"/>
	</g>
</g>
<g>
	<g>
		<circle class="st14" cx="124.57" cy="181.44" r="3"/>
	</g>
</g>
<g>
	<g>
		<circle class="st14" cx="60.08" cy="104.59" r="3"/>
	</g>
</g>
<g>
	<circle class="st14" cx="319.72" cy="347.93" r="4.5"/>
</g>
<g>
	<circle class="st14" cx="96.07" cy="47.37" r="4.5"/>
</g>
<g>
	<circle class="st14" cx="165.67" cy="214.23" r="4.5"/>
</g>
</svg>
