<?xml version="1.0" encoding="utf-8"?>
<!-- Generator: Adobe Illustrator 26.0.2, SVG Export Plug-In . SVG Version: 6.00 Build 0)  -->
<svg version="1.1" id="CRO_x5F_Hub-CRO_x5F_Glossary"
	 xmlns="http://www.w3.org/2000/svg" xmlns:xlink="http://www.w3.org/1999/xlink" x="0px" y="0px" viewBox="0 0 400 400"
	 style="enable-background:new 0 0 400 400;" xml:space="preserve">
<style type="text/css">
	.st0{fill:#EEECFF;}
	.st1{fill:#DDD9FF;}
	.st2{fill:#CCC6FF;}
	.st3{fill:#EF7D7D;}
	.st4{fill:#515979;}
	.st5{fill:#D8EBFB;}
	.st6{fill:#F89D81;}
	.st7{fill:#FFD886;}
	.st8{fill:#FBB040;}
	.st9{fill:#CCCCCC;}
	.st10{fill:#979BAF;}
	.st11{fill:#A0D2FF;}
	.st12{fill:#9E8271;}
	.st13{fill:#FFFFFF;}
	.st14{fill:none;}
</style>
<g>
	<g>
		<circle class="st0" cx="196.05" cy="199.91" r="170"/>
	</g>
	<g>
		<circle class="st1" cx="196.05" cy="199.91" r="140"/>
	</g>
	<g>
		<circle class="st2" cx="196.05" cy="199.91" r="110"/>
	</g>
</g>
<g>
	<g>
		<g>
			<path class="st3" d="M128.17,278.28c-1.66,0-3-1.34-3-3v-192c0-1.66,1.34-3,3-3h161.65c1.66,0,3,1.34,3,3v192c0,1.66-1.34,3-3,3
				H128.17z"/>
		</g>
		<g>
			<path class="st4" d="M289.83,83.28v192H128.17v-192H289.83 M289.83,77.28H128.17c-3.31,0-6,2.69-6,6v192c0,3.31,2.69,6,6,6
				h161.65c3.31,0,6-2.69,6-6v-192C295.83,79.97,293.14,77.28,289.83,77.28L289.83,77.28z"/>
		</g>
	</g>
	<g>
		<g>
			<path class="st5" d="M115.74,286.59c-1.66,0-3-1.34-3-3V94.98c0-1.66,1.34-3,3-3h162.09c1.66,0,3,1.34,3,3v174.17
				c0,0.84-0.35,1.64-0.96,2.2l-15.65,14.45c-0.55,0.51-1.28,0.8-2.04,0.8H115.74z"/>
		</g>
		<g>
			<g>
				<path class="st4" d="M277.83,94.98v174.17l-15.65,14.45H115.74V94.98H277.83 M277.83,88.98H115.74c-3.31,0-6,2.69-6,6v188.62
					c0,3.31,2.69,6,6,6h146.43c1.51,0,2.96-0.57,4.07-1.59l15.65-14.45c1.23-1.14,1.93-2.73,1.93-4.41V94.98
					C283.83,91.66,281.14,88.98,277.83,88.98L277.83,88.98z"/>
			</g>
		</g>
	</g>
	<g>
		<path class="st4" d="M262.18,112.59c-0.81,0-1.61-0.32-2.21-0.97c-1.12-1.22-1.05-3.12,0.17-4.24l15.65-14.45
			c1.22-1.12,3.12-1.05,4.24,0.17c1.12,1.22,1.05,3.12-0.17,4.24l-15.65,14.45C263.63,112.33,262.9,112.59,262.18,112.59z"/>
	</g>
	<g>
		<g>
			<path class="st6" d="M102.17,298.28c-1.66,0-3-1.34-3-3v-186c0-1.66,1.34-3,3-3h160c1.66,0,3,1.34,3,3v186c0,1.66-1.34,3-3,3
				H102.17z"/>
		</g>
		<g>
			<path class="st4" d="M262.17,109.28v186h-160v-186H262.17 M262.17,103.28h-160c-3.31,0-6,2.69-6,6v186c0,3.31,2.69,6,6,6h160
				c3.31,0,6-2.69,6-6v-186C268.17,105.97,265.49,103.28,262.17,103.28L262.17,103.28z"/>
		</g>
	</g>
	<g>
		<g>
			<g>
				<path class="st4" d="M192.05,158.88c4.19-3.98,11.39-4.64,15.9-0.8c1.9,1.58,5.33,5.93,1.93,7.59
					c-0.64,0.26-1.33,0.22-1.91-0.07c-1.77-0.89-3.27-2.15-5.13-2.71c-3-1-6.07-0.2-9.14-0.01
					C191.61,163,190.5,160.27,192.05,158.88L192.05,158.88z"/>
			</g>
			<g>
				<path class="st4" d="M171.86,162.86c-3.86-0.65-7.89-0.89-11.24,1.41c-0.66,0.4-1.44,1-2.24,1.33
					c-1.88,0.98-4.04-1.06-3.21-2.98c2.78-7.86,13.43-9.26,19.13-3.74c1.57,1.37,0.39,4.14-1.65,4
					C172.65,162.89,171.86,162.86,171.86,162.86L171.86,162.86z"/>
			</g>
			<g>
				<path class="st4" d="M173.2,178.78c-1.38,0-2.5-1.12-2.5-2.5c0-2.48-2.02-4.5-4.5-4.5s-4.5,2.02-4.5,4.5
					c0,1.38-1.12,2.5-2.5,2.5s-2.5-1.12-2.5-2.5c0-5.24,4.26-9.5,9.5-9.5s9.5,4.26,9.5,9.5C175.7,177.67,174.58,178.78,173.2,178.78
					z"/>
			</g>
			<g>
				<path class="st4" d="M207.15,178.78c-1.38,0-2.5-1.12-2.5-2.5c0-2.48-2.02-4.5-4.5-4.5c-2.48,0-4.5,2.02-4.5,4.5
					c0,1.38-1.12,2.5-2.5,2.5s-2.5-1.12-2.5-2.5c0-5.24,4.26-9.5,9.5-9.5c5.24,0,9.5,4.26,9.5,9.5
					C209.65,177.67,208.53,178.78,207.15,178.78z"/>
			</g>
		</g>
		<g>
			<path class="st4" d="M203.18,183.28L203.18,183.28h-40.01c-2.76,0-5,2.24-5,5c0,13.79,11.21,25,25,25
				c13.73,0,24.9-11.12,25-24.82c0-0.06,0-0.12,0-0.18C208.18,185.52,205.94,183.28,203.18,183.28z"/>
			<g>
				<g>
					<ellipse class="st3" cx="183.17" cy="201.62" rx="14.88" ry="6.67"/>
				</g>
			</g>
		</g>
	</g>
	<g>
		<path class="st4" d="M138.4,239.1c0,1.11-0.19,2.13-0.57,3.06s-0.92,1.74-1.61,2.43c-0.69,0.68-1.53,1.21-2.5,1.6
			s-2.06,0.57-3.25,0.57h-5.94v-15.3h5.94c1.19,0,2.27,0.19,3.25,0.58s1.81,0.92,2.5,1.6c0.69,0.68,1.23,1.49,1.61,2.42
			S138.4,238,138.4,239.1z M134.77,239.1c0-0.76-0.1-1.44-0.29-2.05c-0.2-0.61-0.48-1.12-0.85-1.55c-0.37-0.42-0.82-0.75-1.35-0.98
			c-0.53-0.23-1.14-0.34-1.82-0.34h-2.37v9.84h2.37c0.68,0,1.28-0.11,1.82-0.34c0.53-0.23,0.98-0.55,1.35-0.98
			c0.37-0.42,0.65-0.94,0.85-1.55C134.67,240.55,134.77,239.87,134.77,239.1z"/>
		<path class="st4" d="M144.07,246.76h-3.57v-15.3h3.57V246.76z"/>
		<path class="st4" d="M157.34,242.8c0.08,0,0.17,0.02,0.25,0.05s0.16,0.09,0.24,0.16l1.41,1.48c-0.62,0.8-1.39,1.41-2.32,1.82
			c-0.93,0.41-2.03,0.61-3.29,0.61c-1.16,0-2.2-0.2-3.12-0.59c-0.92-0.4-1.7-0.94-2.34-1.64c-0.64-0.7-1.13-1.52-1.48-2.48
			c-0.34-0.96-0.51-1.99-0.51-3.11c0-1.14,0.19-2.19,0.56-3.14c0.37-0.96,0.89-1.78,1.56-2.47c0.67-0.69,1.48-1.23,2.42-1.62
			c0.94-0.38,1.97-0.58,3.1-0.58c0.57,0,1.11,0.05,1.62,0.15s0.98,0.24,1.42,0.42c0.44,0.18,0.85,0.39,1.22,0.65
			c0.37,0.25,0.7,0.52,0.99,0.82l-1.2,1.61c-0.08,0.1-0.17,0.19-0.27,0.27c-0.11,0.08-0.25,0.12-0.44,0.12
			c-0.13,0-0.25-0.03-0.36-0.08c-0.11-0.06-0.23-0.12-0.36-0.21c-0.13-0.08-0.26-0.17-0.42-0.26c-0.15-0.09-0.33-0.18-0.54-0.26
			c-0.21-0.08-0.45-0.15-0.72-0.21c-0.28-0.06-0.6-0.08-0.97-0.08c-0.59,0-1.12,0.11-1.61,0.33c-0.49,0.22-0.91,0.53-1.26,0.95
			c-0.35,0.42-0.63,0.93-0.82,1.53s-0.29,1.3-0.29,2.07c0,0.78,0.11,1.48,0.32,2.09c0.21,0.61,0.5,1.12,0.87,1.54
			c0.37,0.42,0.8,0.73,1.29,0.95c0.49,0.22,1.01,0.33,1.58,0.33c0.32,0,0.62-0.02,0.88-0.05c0.27-0.03,0.51-0.08,0.75-0.16
			c0.23-0.07,0.45-0.17,0.65-0.29c0.2-0.12,0.41-0.28,0.62-0.47c0.08-0.07,0.17-0.13,0.27-0.17
			C157.13,242.82,157.24,242.8,157.34,242.8z"/>
		<path class="st4" d="M171.79,234.27h-4.3v12.48h-3.55v-12.48h-4.3v-2.81h12.16V234.27z"/>
		<path class="st4" d="M177.15,246.76h-3.57v-15.3h3.57V246.76z"/>
		<path class="st4" d="M195.13,239.1c0,1.11-0.19,2.13-0.57,3.09c-0.38,0.95-0.92,1.78-1.61,2.48c-0.69,0.7-1.53,1.25-2.5,1.65
			c-0.98,0.4-2.06,0.6-3.25,0.6c-1.19,0-2.28-0.2-3.25-0.6c-0.98-0.4-1.82-0.95-2.51-1.65c-0.7-0.7-1.24-1.53-1.62-2.48
			c-0.38-0.95-0.57-1.98-0.57-3.09c0-1.11,0.19-2.13,0.57-3.09c0.38-0.95,0.92-1.78,1.62-2.48c0.7-0.7,1.53-1.25,2.51-1.65
			c0.98-0.4,2.06-0.6,3.25-0.6c1.19,0,2.27,0.2,3.25,0.6c0.98,0.4,1.81,0.95,2.5,1.65s1.23,1.53,1.61,2.48
			C194.94,236.98,195.13,238,195.13,239.1z M191.5,239.1c0-0.76-0.1-1.44-0.29-2.04s-0.48-1.12-0.84-1.54
			c-0.37-0.42-0.82-0.74-1.35-0.97c-0.53-0.22-1.14-0.34-1.82-0.34c-0.69,0-1.3,0.11-1.83,0.34c-0.54,0.22-0.99,0.55-1.35,0.97
			c-0.37,0.42-0.65,0.93-0.85,1.54s-0.29,1.29-0.29,2.04c0,0.76,0.1,1.45,0.29,2.05s0.48,1.12,0.85,1.54
			c0.37,0.42,0.82,0.74,1.35,0.96c0.54,0.22,1.15,0.33,1.83,0.33c0.68,0,1.28-0.11,1.82-0.33s0.98-0.54,1.35-0.96
			c0.37-0.42,0.65-0.93,0.84-1.54S191.5,239.87,191.5,239.1z"/>
		<path class="st4" d="M210.58,231.46v15.3h-1.85c-0.27,0-0.5-0.04-0.69-0.13c-0.19-0.09-0.37-0.24-0.55-0.46l-7.21-9.12
			c0.03,0.27,0.05,0.54,0.06,0.79c0.01,0.26,0.02,0.5,0.02,0.72v8.2h-3.13v-15.3h1.87c0.15,0,0.28,0.01,0.39,0.02
			c0.1,0.01,0.2,0.04,0.28,0.08c0.08,0.04,0.16,0.09,0.24,0.16c0.08,0.07,0.17,0.17,0.26,0.28l7.28,9.19
			c-0.04-0.29-0.06-0.58-0.07-0.86s-0.02-0.54-0.02-0.78v-8.1H210.58z"/>
		<path class="st4" d="M227.26,246.76h-2.75c-0.31,0-0.56-0.07-0.75-0.21c-0.19-0.14-0.33-0.33-0.43-0.55l-0.9-2.67h-5.82l-0.9,2.67
			c-0.08,0.2-0.22,0.37-0.42,0.53s-0.45,0.24-0.74,0.24h-2.77l5.92-15.3h3.63L227.26,246.76z M221.62,240.91l-1.42-4.19
			c-0.11-0.27-0.22-0.58-0.34-0.94c-0.12-0.36-0.24-0.75-0.36-1.17c-0.11,0.43-0.22,0.82-0.34,1.19s-0.23,0.68-0.34,0.95l-1.41,4.17
			H221.62z"/>
		<path class="st4" d="M240.98,246.76h-3.21c-0.59,0-1.02-0.22-1.28-0.67l-2.54-4.44c-0.12-0.19-0.25-0.33-0.4-0.42
			c-0.15-0.09-0.36-0.13-0.63-0.13h-0.9v5.66h-3.55v-15.3h4.98c1.11,0,2.05,0.11,2.83,0.34s1.42,0.54,1.91,0.95s0.85,0.89,1.08,1.44
			s0.34,1.16,0.34,1.81c0,0.5-0.07,0.97-0.2,1.41s-0.33,0.85-0.59,1.22c-0.26,0.37-0.58,0.71-0.96,1s-0.82,0.54-1.32,0.72
			c0.23,0.12,0.45,0.27,0.65,0.45s0.38,0.39,0.55,0.64L240.98,246.76z M233.44,238.65c0.48,0,0.89-0.06,1.23-0.18
			c0.34-0.12,0.62-0.29,0.83-0.51c0.22-0.22,0.37-0.47,0.47-0.76c0.1-0.29,0.15-0.6,0.15-0.94c0-0.67-0.22-1.2-0.66-1.58
			s-1.12-0.57-2.03-0.57h-1.43v4.54H233.44z"/>
		<path class="st4" d="M248.79,240.94v5.82h-3.55v-5.82l-5.54-9.48h3.13c0.31,0,0.55,0.07,0.73,0.22s0.33,0.33,0.45,0.55l2.16,4.45
			c0.18,0.35,0.35,0.68,0.49,0.98c0.15,0.3,0.28,0.6,0.39,0.9c0.11-0.3,0.23-0.6,0.36-0.91c0.14-0.3,0.3-0.63,0.48-0.97l2.14-4.45
			c0.05-0.09,0.11-0.18,0.18-0.27c0.07-0.09,0.15-0.17,0.25-0.25s0.2-0.13,0.33-0.18c0.12-0.04,0.26-0.07,0.4-0.07h3.15
			L248.79,240.94z"/>
	</g>
	<g>
		<g>
			<path class="st7" d="M102.17,298.28c-1.66,0-3-1.34-3-3v-186c0-1.66,1.34-3,3-3h8c1.66,0,3,1.34,3,3v186c0,1.66-1.34,3-3,3
				H102.17z"/>
		</g>
		<g>
			<g>
				<path class="st4" d="M110.17,109.28v186h-8v-186H110.17 M110.17,103.28h-8c-3.31,0-6,2.69-6,6v186c0,3.31,2.69,6,6,6h8
					c3.31,0,6-2.69,6-6v-186C116.17,105.97,113.49,103.28,110.17,103.28L110.17,103.28z"/>
			</g>
		</g>
	</g>
	<g>
		<g>
			<path class="st7" d="M102.17,298.28c-1.66,0-3-1.34-3-3v-191c0-1.66,1.34-3,3-3h8c1.66,0,3,1.34,3,3v191c0,1.66-1.34,3-3,3
				H102.17z"/>
		</g>
		<g>
			<g>
				<path class="st4" d="M110.17,104.28v191h-8v-191H110.17 M110.17,98.28h-8c-3.31,0-6,2.69-6,6v191c0,3.31,2.69,6,6,6h8
					c3.31,0,6-2.69,6-6v-191C116.17,100.97,113.49,98.28,110.17,98.28L110.17,98.28z"/>
			</g>
		</g>
	</g>
	<g>
		<g>
			<path class="st8" d="M102.17,178.28c-1.66,0-3-1.34-3-3v-40c0-1.66,1.34-3,3-3h8c1.66,0,3,1.34,3,3v40c0,1.66-1.34,3-3,3H102.17z
				"/>
		</g>
		<g>
			<g>
				<path class="st4" d="M110.17,135.28v40h-8v-40H110.17 M110.17,129.28h-8c-3.31,0-6,2.69-6,6v40c0,3.31,2.69,6,6,6h8
					c3.31,0,6-2.69,6-6v-40C116.17,131.97,113.49,129.28,110.17,129.28L110.17,129.28z"/>
			</g>
		</g>
	</g>
	<g>
		<g>
			<path class="st8" d="M102.17,276.28c-1.66,0-3-1.34-3-3v-10c0-1.66,1.34-3,3-3h8c1.66,0,3,1.34,3,3v10c0,1.66-1.34,3-3,3H102.17z
				"/>
		</g>
		<g>
			<g>
				<path class="st4" d="M110.17,263.28v10h-8v-10H110.17 M110.17,257.28h-8c-3.31,0-6,2.69-6,6v10c0,3.31,2.69,6,6,6h8
					c3.31,0,6-2.69,6-6v-10C116.17,259.97,113.49,257.28,110.17,257.28L110.17,257.28z"/>
			</g>
		</g>
	</g>
	<g>
		<g>
			<g>
				<polygon class="st8" points="108.34,96.28 125.67,80.28 139.51,80.28 122.18,96.28 				"/>
			</g>
			<g>
				<g>
					<path class="st4" d="M131.84,83.28l-10.83,10h-5l10.83-10H131.84 M147.19,77.28h-15.35h-5h-2.35l-1.72,1.59l-10.83,10
						l-11.28,10.41h15.35h5h2.35l1.72-1.59l10.83-10L147.19,77.28L147.19,77.28z"/>
				</g>
			</g>
		</g>
	</g>
	<g>
		<g>
			<path class="st7" d="M102.17,106.28c-1.24,0-2.34-0.76-2.79-1.91s-0.15-2.46,0.76-3.3l21.67-20c0.55-0.51,1.28-0.8,2.03-0.8h8
				c1.24,0,2.34,0.76,2.79,1.91s0.15,2.46-0.76,3.3l-21.67,20c-0.55,0.51-1.28,0.8-2.03,0.8H102.17z"/>
		</g>
		<g>
			<g>
				<path class="st4" d="M131.84,83.28L131.84,83.28 M131.84,83.28l-21.67,20h-8l21.67-20H131.84 M131.85,77.28L131.85,77.28h-8.01
					c-1.51,0-2.96,0.57-4.07,1.59l-21.67,20c-1.82,1.68-2.42,4.29-1.52,6.59c0.9,2.3,3.12,3.82,5.59,3.82h8
					c1.51,0,2.96-0.57,4.07-1.59l21.59-19.93c1.23-1.1,2.01-2.7,2.01-4.48C137.84,79.97,135.16,77.28,131.85,77.28L131.85,77.28z
					 M131.84,89.28L131.84,89.28L131.84,89.28L131.84,89.28z"/>
			</g>
		</g>
	</g>
</g>
<g>
	<g>
		<g>
			<path class="st9" d="M336.55,356.06c-0.8,0-1.56-0.32-2.12-0.88l-19.8-19.8c-1.17-1.17-1.17-3.07,0-4.24l5.66-5.66
				c0.56-0.56,1.33-0.88,2.12-0.88c0.8,0,1.56,0.32,2.12,0.88l19.8,19.8c1.17,1.17,1.17,3.07,0,4.24l-5.66,5.66
				C338.1,355.74,337.34,356.06,336.55,356.06z"/>
		</g>
		<g>
			<path class="st4" d="M322.4,327.6l19.8,19.8l-5.66,5.66l-19.8-19.8L322.4,327.6 M322.4,321.6c-1.59,0-3.12,0.63-4.24,1.76
				l-5.66,5.66c-1.13,1.13-1.76,2.65-1.76,4.24c0,1.59,0.63,3.12,1.76,4.24l19.8,19.8c1.17,1.17,2.71,1.76,4.24,1.76
				c1.54,0,3.07-0.59,4.24-1.76l5.66-5.66c1.13-1.13,1.76-2.65,1.76-4.24c0-1.59-0.63-3.12-1.76-4.24l-19.8-19.8
				C325.52,322.24,323.99,321.6,322.4,321.6L322.4,321.6z"/>
		</g>
	</g>
	<g>
		
			<rect x="324.41" y="335.77" transform="matrix(0.7071 -0.7071 0.7071 0.7071 -143.7104 331.5933)" class="st10" width="8" height="7"/>
	</g>
	<g>
		<g>
			<path class="st9" d="M287.05,350.9c-14.16,0-27.47-5.51-37.48-15.52c-10.01-10.01-15.52-23.32-15.52-37.48
				s5.51-27.47,15.52-37.48c10.01-10.01,23.32-15.52,37.48-15.52c14.16,0,27.47,5.51,37.48,15.52c20.67,20.66,20.67,54.29,0,74.95
				C314.51,345.39,301.2,350.9,287.05,350.9z"/>
		</g>
		<g>
			<path class="st4" d="M287.05,247.9c12.8,0,25.59,4.88,35.36,14.64c19.53,19.53,19.53,51.18,0,70.71
				c-9.76,9.76-22.56,14.64-35.36,14.64s-25.59-4.88-35.36-14.64c-19.53-19.53-19.53-51.18,0-70.71
				C261.46,252.79,274.25,247.9,287.05,247.9 M287.05,241.9c-14.96,0-29.02,5.83-39.6,16.4c-10.58,10.58-16.4,24.64-16.4,39.6
				c0,14.96,5.83,29.02,16.4,39.6c10.58,10.58,24.64,16.4,39.6,16.4c14.96,0,29.02-5.83,39.6-16.4s16.4-24.64,16.4-39.6
				c0-14.96-5.83-29.02-16.4-39.6C316.07,247.73,302.01,241.9,287.05,241.9L287.05,241.9z"/>
		</g>
	</g>
	<g>
		<g>
			<path class="st5" d="M287.05,335.91c-10.15,0-19.69-3.95-26.87-11.13c-7.18-7.18-11.13-16.72-11.13-26.87
				c0-10.15,3.95-19.69,11.13-26.87c7.18-7.18,16.72-11.13,26.87-11.13c10.15,0,19.69,3.95,26.87,11.13
				c7.18,7.18,11.13,16.72,11.13,26.87c0,10.15-3.95,19.69-11.13,26.87C306.74,331.95,297.2,335.91,287.05,335.91z"/>
		</g>
		<g>
			<path class="st4" d="M287.05,262.9c8.96,0,17.91,3.42,24.75,10.25c13.67,13.67,13.67,35.83,0,49.5
				c-6.83,6.83-15.79,10.25-24.75,10.25c-8.96,0-17.91-3.42-24.75-10.25c-13.67-13.67-13.67-35.83,0-49.5
				C269.13,266.32,278.09,262.9,287.05,262.9 M287.05,256.9c-10.95,0-21.25,4.26-28.99,12.01s-12.01,18.04-12.01,28.99
				s4.26,21.25,12.01,28.99c7.74,7.74,18.04,12.01,28.99,12.01s21.25-4.26,28.99-12.01c7.74-7.74,12.01-18.04,12.01-28.99
				s-4.26-21.25-12.01-28.99C308.3,261.17,298,256.9,287.05,256.9L287.05,256.9z"/>
		</g>
	</g>
	<g>
		<g>
			<path class="st11" d="M265.83,276.69c-13.07,13.07-13.63,33.91-1.7,47.66c-0.63-0.54-1.24-1.1-1.84-1.7
				c-13.67-13.67-13.67-35.83,0-49.5c13.67-13.67,35.83-13.67,49.5,0c0.6,0.6,1.15,1.21,1.7,1.84
				C299.74,263.06,278.91,263.62,265.83,276.69z"/>
		</g>
	</g>
	<g>
		<g>
			<path class="st12" d="M365.54,392.12c-0.8,0-1.56-0.32-2.12-0.88l-32.53-32.53c-0.56-0.56-0.88-1.33-0.88-2.12
				s0.32-1.56,0.88-2.12l12.73-12.73c0.59-0.59,1.35-0.88,2.12-0.88s1.54,0.29,2.12,0.88l32.53,32.53c1.17,1.17,1.17,3.07,0,4.24
				l-12.73,12.73C367.1,391.81,366.33,392.12,365.54,392.12z"/>
		</g>
		<g>
			<path class="st4" d="M345.74,343.87l32.53,32.53l-12.73,12.73l-32.53-32.53L345.74,343.87 M345.74,337.87
				c-1.59,0-3.12,0.63-4.24,1.76l-12.73,12.73c-2.34,2.34-2.34,6.14,0,8.49l32.53,32.53c1.13,1.13,2.65,1.76,4.24,1.76
				c1.59,0,3.12-0.63,4.24-1.76l12.73-12.73c2.34-2.34,2.34-6.14,0-8.49l-32.53-32.53C348.85,338.5,347.33,337.87,345.74,337.87
				L345.74,337.87z"/>
		</g>
	</g>
	<g>
		<g>
			<path class="st7" d="M337.25,363.84c-0.8,0-1.56-0.32-2.12-0.88l-4.24-4.24c-0.56-0.56-0.88-1.33-0.88-2.12s0.32-1.56,0.88-2.12
				l12.73-12.73c0.59-0.59,1.35-0.88,2.12-0.88s1.54,0.29,2.12,0.88l4.24,4.24c1.17,1.17,1.17,3.07,0,4.24l-12.73,12.73
				C338.81,363.52,338.05,363.84,337.25,363.84z"/>
		</g>
		<g>
			<path class="st4" d="M345.74,343.87l4.24,4.24l-12.73,12.73l-4.24-4.24L345.74,343.87 M345.74,337.87
				c-1.54,0-3.07,0.59-4.24,1.76l-12.73,12.73c-1.13,1.13-1.76,2.65-1.76,4.24s0.63,3.12,1.76,4.24l4.24,4.24
				c1.17,1.17,2.71,1.76,4.24,1.76c1.54,0,3.07-0.59,4.24-1.76l12.73-12.73c2.34-2.34,2.34-6.14,0-8.49l-4.24-4.24
				C348.81,338.45,347.27,337.87,345.74,337.87L345.74,337.87z"/>
		</g>
	</g>
	<g>
		<g>
			<path class="st4" d="M304.01,303.71c-0.32,0-0.64-0.08-0.94-0.24c-1.89-1.02-5.21-1.02-7.11,0c-0.97,0.52-2.19,0.16-2.71-0.82
				c-0.52-0.97-0.16-2.19,0.82-2.71c3.05-1.64,7.84-1.64,10.89,0c0.97,0.52,1.34,1.73,0.82,2.71
				C305.42,303.33,304.73,303.71,304.01,303.71z"/>
		</g>
		<g>
			<g>
				<circle class="st4" cx="299.52" cy="293.96" r="7"/>
			</g>
			<g>
				<circle class="st13" cx="301.27" cy="293.96" r="1.75"/>
			</g>
		</g>
		<g>
			<path class="st4" d="M294.54,278.94c3.24-2.9,8.49-3.41,12.08-0.78c1.81,1.28,4.35,4.61,1.57,6.06c-0.7,0.31-1.41,0.12-2.04-0.19
				c-1.67-0.77-2.8-1.34-4.5-1.56c-1.59-0.26-3.57-0.04-5.21-0.01l-0.78-0.08C293.98,282.28,293.27,280,294.54,278.94L294.54,278.94
				z"/>
		</g>
		<g>
			<path class="st4" d="M278.01,303.71c-0.32,0-0.64-0.08-0.94-0.24c-1.89-1.02-5.21-1.02-7.11,0c-0.97,0.52-2.19,0.16-2.71-0.82
				c-0.52-0.97-0.16-2.19,0.82-2.71c3.05-1.64,7.84-1.64,10.89,0c0.97,0.52,1.34,1.73,0.82,2.71
				C279.42,303.33,278.73,303.71,278.01,303.71z"/>
		</g>
		<g>
			<g>
				<circle class="st4" cx="273.52" cy="293.96" r="7"/>
			</g>
			<g>
				<circle class="st13" cx="275.27" cy="293.96" r="1.75"/>
			</g>
		</g>
		<g>
			<path class="st4" d="M276.59,282.46c-1.64-0.03-3.62-0.25-5.21,0.01c-1.71,0.22-2.84,0.78-4.5,1.56c-1.13,0.65-2.6,0.36-3.13-0.9
				c-0.22-0.53-0.2-1.1,0-1.59c0.54-1.28,1.41-2.51,2.67-3.38c2.96-2.22,7.23-2.17,10.35-0.44c1.45,0.74,3.33,2.28,1.88,4.02
				C278.14,282.36,277.31,282.41,276.59,282.46L276.59,282.46z"/>
		</g>
	</g>
	<g>
		<path class="st4" d="M286.85,313.98c-4.96,0-10.04-1.43-14.43-4.31c-0.92-0.6-1.18-1.84-0.58-2.77c0.6-0.92,1.84-1.18,2.77-0.58
			c7.35,4.8,17.32,4.82,23.71,0.03c0.88-0.66,2.14-0.48,2.8,0.4c0.66,0.88,0.48,2.14-0.4,2.8
			C296.78,312.5,291.88,313.98,286.85,313.98z"/>
	</g>
	<g>
		<path class="st4" d="M282.34,316.63c2.7,0.79,5.66,0.86,8.34,0c1.29-0.47,2.34,1.21,1.39,2.17c0,0-0.72,0.76-0.72,0.76
			c-2.84,2.68-7.68,2.05-10.33-0.58C279.9,318.03,280.97,316.17,282.34,316.63L282.34,316.63z"/>
	</g>
</g>
<g>
	<path class="st7" d="M348.76,31c-2.98,0-5.4-2.42-5.4-5.4c0-0.99-0.81-1.8-1.8-1.8c-0.99,0-1.8,0.81-1.8,1.8
		c0,2.98-2.42,5.4-5.4,5.4c-0.99,0-1.8,0.81-1.8,1.8c0,0.99,0.81,1.8,1.8,1.8c2.98,0,5.4,2.42,5.4,5.4c0,0.99,0.81,1.8,1.8,1.8
		c0.99,0,1.8-0.81,1.8-1.8c0-2.98,2.42-5.4,5.4-5.4c0.99,0,1.8-0.81,1.8-1.8C350.56,31.8,349.75,31,348.76,31z"/>
</g>
<g>
	<path class="st7" d="M124.21,368.11c-2.98,0-5.4-2.42-5.4-5.4c0-0.99-0.81-1.8-1.8-1.8c-0.99,0-1.8,0.81-1.8,1.8
		c0,2.98-2.42,5.4-5.4,5.4c-0.99,0-1.8,0.81-1.8,1.8s0.81,1.8,1.8,1.8c2.98,0,5.4,2.42,5.4,5.4c0,0.99,0.81,1.8,1.8,1.8
		c0.99,0,1.8-0.81,1.8-1.8c0-2.98,2.42-5.4,5.4-5.4c0.99,0,1.8-0.81,1.8-1.8S125.2,368.11,124.21,368.11z"/>
</g>
<g>
	<path class="st7" d="M79.12,40c-2.98,0-5.4-2.42-5.4-5.4c0-0.99-0.81-1.8-1.8-1.8c-0.99,0-1.8,0.81-1.8,1.8
		c0,2.98-2.42,5.4-5.4,5.4c-0.99,0-1.8,0.81-1.8,1.8c0,0.99,0.81,1.8,1.8,1.8c2.98,0,5.4,2.42,5.4,5.4c0,0.99,0.81,1.8,1.8,1.8
		c0.99,0,1.8-0.81,1.8-1.8c0-2.98,2.42-5.4,5.4-5.4c0.99,0,1.8-0.81,1.8-1.8C80.92,40.8,80.11,40,79.12,40z"/>
</g>
<g>
	<circle class="st7" cx="360.14" cy="83.28" r="4.5"/>
</g>
<g>
	<circle class="st7" cx="355.64" cy="263.28" r="4.5"/>
</g>
<g>
	<circle class="st7" cx="237.05" cy="48.3" r="4.5"/>
</g>
<g>
	<circle class="st7" cx="31.05" cy="95.15" r="4.5"/>
</g>
<g>
	<circle class="st7" cx="19.55" cy="273.28" r="4.5"/>
</g>
<g>
	<circle class="st7" cx="102.17" cy="29.91" r="2.5"/>
</g>
<g>
	<circle class="st7" cx="28.55" cy="50.8" r="2.5"/>
</g>
<g>
	<circle class="st7" cx="295.49" cy="41.8" r="2.5"/>
</g>
<g>
	<circle class="st7" cx="350.56" cy="188.28" r="2.5"/>
</g>
<g>
	<circle class="st7" cx="364.64" cy="324.35" r="2.5"/>
</g>
<g>
	<circle class="st7" cx="62.92" cy="340.33" r="2.5"/>
</g>
<g>
	<circle class="st7" cx="159.2" cy="378.91" r="2.5"/>
</g>
<g>
	<circle class="st7" cx="62.92" cy="286.96" r="2.5"/>
</g>
<g>
	<circle class="st7" cx="44.63" cy="169.28" r="2.5"/>
</g>
<g>
	<rect x="-0.72" y="0" class="st14" width="400" height="400"/>
</g>
<path class="st7" d="M37.55,363.49h-6v-6c0-1.66-1.34-3-3-3s-3,1.34-3,3v6h-6c-1.66,0-3,1.34-3,3s1.34,3,3,3h6v6c0,1.66,1.34,3,3,3
	s3-1.34,3-3v-6h6c1.66,0,3-1.34,3-3S39.2,363.49,37.55,363.49z"/>
</svg>
