<svg width="260" height="260" fill="none" xmlns="http://www.w3.org/2000/svg"><path d="M19.552 140.097a3.576 3.576 0 0 1-2.6-3.276V67.487a1.95 1.95 0 0 1 2.6-1.924c48.785 12.03 97.578-14.89 146.363-2.86a3.568 3.568 0 0 1 2.6 3.276v69.334a1.958 1.958 0 0 1-.788 1.653 1.952 1.952 0 0 1-1.812.271c-48.785-12.03-97.578 14.889-146.363 2.86z" fill="#7DDF96"/><path d="M165.915 65.303v69.334c-48.785-12.03-97.578 14.889-146.363 2.86V68.163c48.785 12.03 97.578-14.889 146.363-2.86zm0-5.2c-48.785-12.029-97.578 14.89-146.363 2.86-2.877-.702-5.2.867-5.2 3.77v69.334a7.242 7.242 0 0 0 5.2 6.63c48.785 12.029 97.578-14.89 146.363-2.86 2.877.702 5.2-.867 5.2-3.77V66.733a7.252 7.252 0 0 0-5.2-6.63z" fill="#515979"/><path d="M148.2 68.675c-14.231-1.092-28.461.329-42.692 2.322 8.45 4.334 14.187 14.413 14.187 26.772 0 12.358-5.746 23.616-14.204 30.246 14.239-2.002 28.47-3.466 42.709-2.34 0-6.361 5.2-11.266 11.553-10.079V81.701C153.4 80.539 148.2 75.07 148.2 68.675zm-8.476 38.133c-5.105-.061-9.239-4.333-9.239-9.845 0-5.512 4.134-10.253 9.239-10.192 5.105.06 9.247 4.922 9.247 10.452 0 5.529-4.142 9.654-9.247 9.602v-.017zM65.771 105.031c0-12.298 5.746-23.616 14.205-30.246-14.24 2.002-28.47 3.466-42.71 2.34 0 6.361-5.2 11.266-11.552 10.079v33.895c6.353 1.162 11.553 6.63 11.553 13.026 14.23 1.092 28.461-.329 42.692-2.322-8.45-4.308-14.188-14.413-14.188-26.772zm-20.028 10.981c-5.105-.052-9.248-4.923-9.248-10.452s4.143-9.629 9.248-9.585c5.104.043 9.238 4.333 9.238 9.845 0 5.512-4.134 10.253-9.238 10.192z" fill="#00C853"/><path d="M97.5 104a1.287 1.287 0 0 1-1.205-.815 1.299 1.299 0 0 1 .711-1.69 12.19 12.19 0 0 1 6.933-.364c.332.096.613.319.781.621a1.307 1.307 0 0 1-.509 1.771 1.302 1.302 0 0 1-.991.113 9.66 9.66 0 0 0-5.2.269 1.22 1.22 0 0 1-.52.095z" fill="#515979"/><path d="M100.221 101.903a5.2 5.2 0 1 0 0-10.4 5.2 5.2 0 0 0 0 10.4z" fill="#515979"/><path d="M101.521 97.933a1.3 1.3 0 1 0 0-2.6 1.3 1.3 0 0 0 0 2.6z" fill="#fff"/><path d="M80.184 104.867a1.314 1.314 0 0 1-1.205-.815 1.3 1.3 0 0 1 .72-1.69 12.182 12.182 0 0 1 6.933-.364 1.31 1.31 0 0 1 .818.61 1.306 1.306 0 0 1-.116 1.475 1.307 1.307 0 0 1-.904.474 1.296 1.296 0 0 1-.517-.063 9.69 9.69 0 0 0-5.2.277 1.426 1.426 0 0 1-.529.096z" fill="#515979"/><path d="M82.914 102.813a5.2 5.2 0 1 0-.001-10.401 5.2 5.2 0 0 0 .001 10.401z" fill="#515979"/><path d="M84.214 98.843a1.3 1.3 0 1 0 0-2.6 1.3 1.3 0 0 0 0 2.6z" fill="#fff"/><path d="M96.52 84.873c2.99-2.054 7.705-1.898 9.985 1.126.165.235.26.512.273.799a1.494 1.494 0 0 1-1.643 1.559c-1.378-.156-2.504-.416-3.839-.512-1.335-.095-2.93-.086-4.169-.312a1.482 1.482 0 0 1-.606-2.66zM84.673 88.261c-1.074.26-2.652.434-3.752.65-1.318.234-2.418.607-3.762.919a1.5 1.5 0 0 1-1.759-1.135 1.568 1.568 0 0 1 .165-1.075c1.421-2.461 4.61-3.406 7.28-2.999a7.02 7.02 0 0 1 2.539.867 1.5 1.5 0 0 1-.685 2.8l-.026-.027zM106.045 108.463a3.463 3.463 0 0 0-3.466-3.284h-.182l-20.8 1.083a3.462 3.462 0 0 0-3.092 2.308c-.152.43-.218.885-.193 1.341a13.867 13.867 0 0 0 13.867 13.138h.736a13.867 13.867 0 0 0 13.13-14.586z" fill="#515979"/><path d="M92.738 119.574c4.269-.223 7.648-1.955 7.548-3.867-.101-1.912-3.642-3.28-7.91-3.057-4.269.224-7.648 1.955-7.548 3.867.1 1.912 3.642 3.281 7.91 3.057z" fill="#EF7D7D"/><path d="M94.085 204.23a3.569 3.569 0 0 1-2.6-3.276v-69.333a1.95 1.95 0 0 1 2.6-1.924c48.785 12.029 97.578-14.89 146.363-2.86a3.569 3.569 0 0 1 2.6 3.276v69.333a1.944 1.944 0 0 1-.788 1.654 1.948 1.948 0 0 1-1.812.27c-48.785-12.029-97.578 14.889-146.363 2.86z" fill="#7DDF96"/><path d="M240.448 129.437v69.333c-48.785-12.029-97.578 14.889-146.363 2.86v-69.333c48.785 12.029 97.578-14.89 146.363-2.86zm0-5.2c-48.785-12.03-97.578 14.889-146.363 2.86-2.877-.702-5.2.866-5.2 3.77V200.2a7.248 7.248 0 0 0 5.2 6.63c48.785 12.029 97.578-14.889 146.363-2.86 2.877.702 5.2-.867 5.2-3.77v-69.333a7.246 7.246 0 0 0-5.2-6.63z" fill="#515979"/><path d="M140.305 169.165c0-12.298 5.746-23.617 14.204-30.247-14.239 2.002-28.47 3.467-42.709 2.34 0 6.361-5.2 11.267-11.553 10.079v33.896c6.379 1.161 11.553 6.63 11.553 13 14.231 1.092 28.461-.33 42.692-2.323-8.45-4.281-14.187-14.387-14.187-26.745zm-20.029 10.98c-5.105-.052-9.247-4.922-9.247-10.452 0-5.529 4.142-9.637 9.247-9.585 5.105.052 9.239 4.333 9.239 9.845 0 5.512-4.134 10.253-9.239 10.192zM222.733 132.808c-14.23-1.092-28.461.329-42.692 2.323 8.45 4.333 14.188 14.412 14.188 26.771s-5.746 23.617-14.205 30.247c14.239-2.002 28.47-3.467 42.709-2.34 0-6.362 5.2-11.267 11.553-10.08v-33.895c-6.353-1.161-11.553-6.63-11.553-13.026zm-8.476 38.133c-5.104-.069-9.238-4.333-9.238-9.845 0-5.512 4.134-10.253 9.238-10.192 5.105.061 9.248 4.923 9.248 10.452s-4.143 9.646-9.248 9.603v-.018z" fill="#00C853"/><path d="M171.288 165.403a1.734 1.734 0 0 1-1.733-1.646 5.204 5.204 0 0 1 4.927-5.473 5.206 5.206 0 0 1 5.473 4.927 1.737 1.737 0 0 1-3.467.182 1.735 1.735 0 1 0-3.467.182 1.73 1.73 0 0 1-1.638 1.82l-.095.008zM153.981 166.305a1.734 1.734 0 0 1-1.734-1.638 5.204 5.204 0 0 1 8.684-4.143 5.19 5.19 0 0 1 1.716 3.597 1.736 1.736 0 0 1-3.466.182 1.737 1.737 0 0 0-3.372-.489 1.719 1.719 0 0 0-.095.671 1.738 1.738 0 0 1-.446 1.251 1.721 1.721 0 0 1-1.201.569h-.086zM171.201 151.19c3.164-1.785 7.844-1.222 9.854 1.993a1.5 1.5 0 0 1-.726 2.152 1.497 1.497 0 0 1-.842.084c-1.361-.286-2.462-.641-3.788-.866-1.326-.226-2.903-.347-4.125-.676a1.479 1.479 0 0 1-1.082-1.229 1.48 1.48 0 0 1 .709-1.475v.017zM159.241 154.657a65.322 65.322 0 0 0-7.02 2.106 1.518 1.518 0 0 1-2.132-1.95c1.205-2.6 4.29-3.796 6.994-3.632a7.388 7.388 0 0 1 2.6.616 1.504 1.504 0 0 1 .85 1.595 1.51 1.51 0 0 1-1.292 1.265zM165.923 174.876a24.524 24.524 0 0 1-10.278-2.21 1.734 1.734 0 0 1 1.456-3.146c6.066 2.834 14.092 2.418 19.066-.971a1.746 1.746 0 0 1 1.329-.334 1.73 1.73 0 0 1 1.426 1.38 1.737 1.737 0 0 1-.805 1.814 21.773 21.773 0 0 1-12.194 3.467zM163.531 178.221a12.53 12.53 0 0 0 7.228-.381 1.155 1.155 0 0 1 1.564 1.116 1.148 1.148 0 0 1-.264.695l-.589.694c-2.34 2.444-6.561 2.114-8.97 0a1.198 1.198 0 0 1 .248-2.006c.245-.115.52-.144.783-.083v-.035z" fill="#515979"/></svg>