<svg width="260" height="260" fill="none" xmlns="http://www.w3.org/2000/svg"><path d="M87.143 215.471a74.98 74.98 0 0 1-15.062-1.465 3.653 3.653 0 0 1-2.912-3.952c3.848-39.737 4.116-70.33.866-96.261a3.798 3.798 0 0 0-4.411-3.258l-24.267 4.047a3.614 3.614 0 0 1-.606 0 3.687 3.687 0 0 1-3.623-3.137l-5.061-35.092a3.683 3.683 0 0 1 2.6-4.038l23.946-6.838a94.033 94.033 0 0 1 25.783-3.614h14.395c1.734 0 10.912.996 10.912.996 3.596 7.965 8.172 12.42 20.245 12.42s17.333-6.188 21.112-12.42c0 0 8.285-.996 10.045-.996H175.5a94.031 94.031 0 0 1 25.783 3.614l23.946 6.838a3.683 3.683 0 0 1 2.6 4.038l-5.018 35.135a3.678 3.678 0 0 1-3.622 3.137 3.619 3.619 0 0 1-.607 0l-24.596-4.099a4.055 4.055 0 0 0-.641-.052 3.783 3.783 0 0 0-2.438.869 3.784 3.784 0 0 0-1.306 2.234c-4.334 24.197-3.978 51.792 1.005 84.361a3.655 3.655 0 0 1-.839 2.936 3.664 3.664 0 0 1-2.775 1.276 3.867 3.867 0 0 1-.711-.069 69.274 69.274 0 0 0-13.494-1.257c-13.953 0-28.322 3.692-42.206 7.263-14.136 3.605-28.826 7.384-43.438 7.384z" fill="#6ADAF7"/><path d="M59.375 74.343a91.23 91.23 0 0 1 25.073-3.467h18.685a31.904 31.904 0 0 1-2.712-5.278 1.68 1.68 0 0 0-1.56-1.092H84.465a91.564 91.564 0 0 0-25.072 3.467l-23.938 6.846a1.066 1.066 0 0 0-.762 1.17l.745 5.2 23.937-6.846zm141.25 0 23.937 6.838.745-5.2a1.066 1.066 0 0 0-.762-1.17l-23.938-6.847a91.553 91.553 0 0 0-25.072-3.467H161.2a1.684 1.684 0 0 0-1.56 1.092 31.985 31.985 0 0 1-2.713 5.278h18.668a91.238 91.238 0 0 1 25.03 3.476z" fill="#A6E9FA"/><path d="m225.992 69.819-23.937-6.838a96.206 96.206 0 0 0-26.503-3.718H161.2a5.186 5.186 0 0 0-.529 0 5.036 5.036 0 0 0-.624 0h-6.864a5.199 5.199 0 0 0-4.723 3.033 20.256 20.256 0 0 1-29.36 8.614 20.247 20.247 0 0 1-7.473-8.614 5.199 5.199 0 0 0-4.724-3.033h-6.864a5.212 5.212 0 0 0-.632 0H84.49a96.2 96.2 0 0 0-26.5 3.717l-23.94 6.839a6.292 6.292 0 0 0-4.48 6.933l5.018 35.126a6.292 6.292 0 0 0 7.228 5.295l24.266-4.047h.208a1.206 1.206 0 0 1 1.196 1.031c3.242 25.74 2.973 56.152-.866 95.689a6.25 6.25 0 0 0 4.974 6.751 77.453 77.453 0 0 0 15.6 1.517c14.942 0 29.788-3.822 44.148-7.514 14.361-3.692 27.942-7.176 41.6-7.176a67.588 67.588 0 0 1 13 1.205c.397.079.8.12 1.205.121a6.257 6.257 0 0 0 6.179-7.202c-4.931-32.292-5.26-59.609-1.005-83.512a1.204 1.204 0 0 1 1.179-.971h.208l24.604 4.108c.342.052.686.079 1.032.078a6.289 6.289 0 0 0 6.196-5.373l5.018-35.126a6.29 6.29 0 0 0-4.567-6.933zM106.86 64.463A25.457 25.457 0 0 0 130 79.313a25.456 25.456 0 0 0 23.14-14.85h6.864l-.416 1.109c-.277.693-.581 1.378-.867 2.054l-.069.13c-.312.659-.659 1.3-1.023 1.924a1.08 1.08 0 0 1-.095.173 30.085 30.085 0 0 1-1.135 1.803l-.13.2a34.158 34.158 0 0 1-1.248 1.68l-.156.209a23.338 23.338 0 0 1-1.352 1.568l-.191.217c-.468.503-.945.98-1.447 1.456l-.217.2c-.494.467-1.014.91-1.543 1.343l-.234.19c-.537.425-1.074.867-1.638 1.222l-.251.182c-.563.382-1.135.754-1.733 1.1l-.26.157c-.598.347-1.205.667-1.82.98l-.26.13a47.64 47.64 0 0 1-1.907.866l-.26.104c-.659.26-1.326.503-2.002.72l-.234.069a34.12 34.12 0 0 1-2.097.58h-.208c-.72.165-1.456.312-2.193.434h-.165c-.762.12-1.525.208-2.305.268h-.095c-.798.06-1.612.096-2.427.096s-1.629 0-2.427-.096h-.095c-.78-.06-1.543-.147-2.305-.268h-.165a36.397 36.397 0 0 1-2.193-.434h-.208a34.12 34.12 0 0 1-2.097-.58l-.234-.07a32.451 32.451 0 0 1-2.002-.72l-.26-.103a23.524 23.524 0 0 1-1.907-.867l-.26-.13a36.966 36.966 0 0 1-1.82-.979l-.26-.156a36.667 36.667 0 0 1-1.733-1.1l-.251-.183a31.735 31.735 0 0 1-1.638-1.222l-.234-.19a25.084 25.084 0 0 1-1.543-1.344l-.217-.2a33.098 33.098 0 0 1-1.447-1.455l-.191-.217a29.54 29.54 0 0 1-1.352-1.568l-.164-.208c-.425-.546-.867-1.11-1.24-1.682l-.13-.2a29.476 29.476 0 0 1-1.135-1.802 1.053 1.053 0 0 1-.095-.173 25.458 25.458 0 0 1-1.023-1.924l-.069-.13a21.099 21.099 0 0 1-.867-2.054l-.416-1.11h6.812zm113.447 46.652a1.075 1.075 0 0 1-.368.623 1.072 1.072 0 0 1-.681.244h-.182l-6.743-1.049.772-4.81a2.604 2.604 0 0 0-5.14-.823l-.754 4.775-12.757-2.123a6.25 6.25 0 0 0-1.066-.095 6.407 6.407 0 0 0-6.301 5.26c-4.662 26.208-3.64 54.921.988 85.211a1.043 1.043 0 0 1-.243.844 1.057 1.057 0 0 1-.797.369h-.216a72.875 72.875 0 0 0-13.988-1.3c-28.6 0-57.148 14.69-85.714 14.69a72.53 72.53 0 0 1-14.542-1.412 1.078 1.078 0 0 1-.867-1.153c.165-1.655.312-3.311.46-4.957a73.65 73.65 0 0 0 13.554 1.438 2.602 2.602 0 0 0 2.6-2.6 2.599 2.599 0 0 0-2.6-2.6 67.909 67.909 0 0 1-13.173-1.447c2.6-31.131 3.206-60.545-.087-86.667a6.405 6.405 0 0 0-7.419-5.494l-14.014 2.34-.641-4.966a2.621 2.621 0 1 0-5.2.667l.667 5.148-5.104.867h-.018a1.064 1.064 0 0 1-1.048-.867l-5.018-35.239a1.066 1.066 0 0 1 .762-1.17l5.677-1.62v.086l1.37 10.582a2.6 2.6 0 0 0 2.6 2.262h.329a2.6 2.6 0 0 0 2.262-2.93l-1.37-10.581a2.41 2.41 0 0 0-.26-.823l13.364-3.822a91.564 91.564 0 0 1 25.073-3.467h10.4a5.2 5.2 0 0 0 .295 1.733 37.014 37.014 0 0 0 69.74.182 5.19 5.19 0 0 0 .364-1.915h10.348a91.568 91.568 0 0 1 25.073 3.467l12.749 3.648a1.3 1.3 0 0 0-.052.182l-1.95 12.22a2.605 2.605 0 0 0 1.213 2.623c.292.178.616.297.953.35.136.013.272.013.408 0a2.601 2.601 0 0 0 2.6-2.193l1.88-11.786 6.171 1.733a1.065 1.065 0 0 1 .763 1.17l-5.122 35.195z" fill="#515979"/><path d="M106.86 64.463h-6.864a31.51 31.51 0 0 0 3.103 6.36l6.621-1.602a25.151 25.151 0 0 1-2.86-4.758zm46.28 0a25.571 25.571 0 0 1-2.938 4.862l6.699 1.499a31.51 31.51 0 0 0 3.103-6.361h-6.864z" fill="#A6E9FA"/><path d="M95.541 205.738a2.601 2.601 0 1 1-.164-5.2 87.983 87.983 0 0 0 3.024-.243 2.615 2.615 0 0 1 2.847 2.353 2.607 2.607 0 0 1-2.353 2.847 97.302 97.302 0 0 1-3.18.26l-.174-.017z" fill="#515979"/><path d="M89.405 121.238a159.229 159.229 0 0 0-3.172-2.73c.399-1.265.867-2.539 1.257-3.796l.867-.243-.494-1.837-.416.113c-.971.26-1.942.528-2.904.806l-.416.121.53 1.829.424-.122a58.266 58.266 0 0 0-.867 2.817l-.477.147-.71-2.34.936-.286-.546-1.828-.416.121c-1.049.321-2.106.65-3.155.988l-.416.13.59 1.811.935-.294 2.046 6.482-.867.295.59 1.811.407-.13c.98-.32 1.967-.624 2.955-.918l.416-.122-.555-1.828-.866.268-.711-2.34.555-.164a226.16 226.16 0 0 1 2.244 1.889l-.398.113.528 1.837.416-.121c.867-.26 1.803-.512 2.713-.754l.416-.113-.485-1.837-.954.225zm6.656-3.189.32 1.482-2.001.45-1.577-6.612 1.092-.26-.425-1.855-.425.095c-1.118.26-2.227.529-3.336.806l-.425.104.468 1.855.953-.243 1.63 6.604-.867.234.468 1.846.416-.104c1.95-.494 3.935-.953 5.885-1.369l.424-.087-.702-3.345-1.898.399zm7.402.086-1.023.182-1.213-6.69 1.1-.2-.329-1.872-.425.07-3.466.65-.425.086.373 1.872.424-.086.676-.13 1.266 6.682-1.049.208.364 1.872.425-.087c1.092-.217 2.184-.416 3.276-.607l.433-.078-.26-1.447-.147-.425zm6.604-2.504.182 1.499-2.245.303-.347-2.426c.867-.13 1.812-.252 2.722-.356l.433-.06-.234-1.89-.433.052-2.756.364-.347-2.418 2.375-.32.182 1.499 1.958-.234-.39-3.397-.433.052c-2.227.26-4.472.563-6.656.866l-.433.07.303 1.889.962-.156 1.023 6.725-.928.148.304 1.88.424-.069a213.91 213.91 0 0 1 6.223-.867l.433-.052-.39-3.388-1.932.286zm13-8.286h-.434c-1.083 0-2.175.104-3.267.174h-.433l.121 1.898.971-.061.277 4.888a192.566 192.566 0 0 0-3.649-6.327l-.138-.225h-.269l-2.921.269h-.433l.191 1.898.97-.096.633 6.769-.927.095.19 1.898.425-.043a174.52 174.52 0 0 1 3.051-.277h.433l-.156-1.898-.927.078-.425-4.897a201.25 201.25 0 0 1 3.588 6.327l.13.242h.269l1.022-.06h1.214l-.416-8.667h.97l-.06-1.985zm1.646-.06h-.433l.095 3.414 1.916-.052v-1.508h1.187l.069 6.804h-1.3v1.906h4.706v-1.906h-1.334v-6.804h1.196v1.508h1.915l.061-3.414h-.434a202.557 202.557 0 0 0-7.644.052zm17.169 2.106-.113-.131c-.45-.52-.866-1.031-1.36-1.533l-.113-.139h-.182c-1.872-.121-3.77-.217-5.625-.277h-.433l-.061 1.906h.971l-.26 6.804h-.927l-.061 1.906h.433c1.82.052 3.675.148 5.521.278h.191l.13-.122 1.482-1.326.13-.112.242-3.155-.112-.139-.65-.745.598-.52.199-2.695zm-5.079 6.647.122-2.643c.762 0 1.516.078 2.279.13l.555.624-.104 1.534-.555.485c-.763-.035-1.534-.095-2.297-.13zm.208-4.55.096-2.089 2.158.113.502.555-.069 1.057-.572.485-2.115-.121zm13.13-2.799-.104-.139h-.173a151.852 151.852 0 0 0-3.961-.451h-.173l-.139.113c-.537.425-1.066.867-1.594 1.291l-.139.113-.676 7.211.113.138 1.23 1.552.113.147h.182c1.231.13 2.461.269 3.692.425h.182l.147-.113 1.552-1.239.138-.104.988-7.176-.112-.148-1.266-1.62zm-4.42 8.042-.381-.476.581-5.746.511-.39 2.461.286.399.494-.737 5.72-.494.381-2.34-.269zm13.824-6.543-.096-.147h-.173c-1.309-.252-2.6-.477-3.935-.694h-.173l-.139.104c-.563.39-1.118.789-1.672 1.188l-.148.104-1.1 7.158.104.148 1.135 1.62.113.156h.182c1.225.203 2.447.419 3.666.65h.182l.156-.112a104.1 104.1 0 0 1 1.62-1.136l.148-.104 1.404-7.106-.104-.156c-.382-.546-.772-1.11-1.17-1.673zm-4.897 7.8-.355-.494.927-5.703.529-.355c.814.139 1.629.277 2.452.433l.364.512-1.074 5.668-.52.346-2.323-.407zm13.598-5.902-.095-.147h-.174a134.033 134.033 0 0 0-3.198-.754h-.173l-.147.095c-.59.355-1.17.719-1.734 1.083l-.156.096-.615 2.851.104.147 1.066 1.656.095.147h.174c.866.191 1.733.399 2.6.607l.294.468-.381 1.525-.52.321-1.915-.451-.434-.667.304-1.361-1.95-.425-.468 2.202.095.147c.355.563.702 1.127 1.049 1.733l.095.156.182.044c1.083.242 2.167.494 3.25.762h.173l.156-.095 1.734-1.049.147-.095.754-2.946-.087-.157c-.338-.563-.667-1.118-1.014-1.681l-.095-.147h-.173c-.867-.214-1.734-.422-2.6-.624l-.312-.486.303-1.386.555-.33 1.733.408.433.676-.338 1.352 1.959.494.555-2.184-.096-.156-1.135-1.829zm10.651 2.912a151.997 151.997 0 0 0-7.366-2.184l-.425-.113-.867 3.294 1.855.511.399-1.456 1.17.338-1.898 6.526-.867-.251-.416-.113-.511 1.837.416.113c1.239.355 2.487.719 3.726 1.101l.408.13.563-1.82-.407-.13-.867-.269 1.95-6.517 1.17.364-.459 1.438 1.837.581 1.049-3.25-.46-.13z" fill="#fff"/><path d="M42.233 221.381a2.465 2.465 0 0 1-.668-.086 2.607 2.607 0 0 1-1.577-1.214l-7.47-12.939a2.6 2.6 0 0 1 .953-3.545l7.61-4.394a2.6 2.6 0 0 1 1.966-.26 2.593 2.593 0 0 1 1.586 1.214l7.462 12.93a2.605 2.605 0 0 1-.19 2.885 2.607 2.607 0 0 1-.763.669l-7.61 4.394a2.6 2.6 0 0 1-1.3.346z" fill="#7DDF96"/><path d="m42.38 201.457 7.462 12.93-7.61 4.394-7.461-12.939 7.609-4.385zm0-5.2a5.11 5.11 0 0 0-2.6.702l-7.61 4.394a5.199 5.199 0 0 0-1.906 7.098l7.47 12.939a5.193 5.193 0 0 0 3.155 2.427c.44.113.89.171 1.344.173a5.202 5.202 0 0 0 2.6-.693l7.609-4.394a5.211 5.211 0 0 0 2.426-3.158 5.207 5.207 0 0 0-.52-3.949l-7.47-12.931a5.203 5.203 0 0 0-4.507-2.6l.009-.008z" fill="#515979"/><path d="M213.833 229.953c-.457 0-.905-.119-1.3-.347l-7.61-4.394a2.6 2.6 0 0 1-.944-3.545l7.462-12.939a2.6 2.6 0 0 1 1.577-1.213 2.646 2.646 0 0 1 1.976.26l7.609 4.394a2.602 2.602 0 0 1 1.28 2.592 2.61 2.61 0 0 1-.326.961l-7.471 12.931a2.603 2.603 0 0 1-2.253 1.3z" fill="#F89D81"/><path d="m213.694 210.028 7.609 4.394-7.47 12.939-7.61-4.394 7.471-12.939zm0-5.2c-.453.002-.904.06-1.343.173a5.192 5.192 0 0 0-3.155 2.427l-7.471 12.939a5.201 5.201 0 0 0 1.898 7.098l7.61 4.394c.79.459 1.686.701 2.6.702.456 0 .911-.061 1.352-.182a5.195 5.195 0 0 0 3.154-2.418l7.471-12.939a5.195 5.195 0 0 0-.379-5.769 5.21 5.21 0 0 0-1.528-1.338l-7.609-4.394a5.204 5.204 0 0 0-2.6-.693z" fill="#515979"/><path d="M16.233 162.353c-.457 0-.905-.119-1.3-.347l-7.61-4.394a2.6 2.6 0 0 1-.944-3.545l7.462-12.939a2.59 2.59 0 0 1 2.253-1.3c.456.002.904.121 1.3.347l7.61 4.394a2.587 2.587 0 0 1 1.212 1.579 2.598 2.598 0 0 1-.26 1.974l-7.47 12.931a2.61 2.61 0 0 1-2.253 1.3z" fill="#FFE8A0"/><path d="m16.094 142.428 7.61 4.394-7.471 12.939-7.61-4.394 7.471-12.939zm0-5.2c-.453.002-.905.06-1.343.173a5.216 5.216 0 0 0-3.155 2.427l-7.47 12.939a5.201 5.201 0 0 0 1.897 7.098l7.61 4.394c.79.459 1.686.701 2.6.702.456 0 .911-.061 1.352-.182a5.198 5.198 0 0 0 3.154-2.418l7.471-12.939a5.202 5.202 0 0 0-1.907-7.107l-7.609-4.394a5.202 5.202 0 0 0-2.6-.693z" fill="#515979"/><path d="M120.129 46.323a2.601 2.601 0 0 1-2.436-1.733l-5.113-14.04a2.597 2.597 0 0 1 1.551-3.328l8.26-3.007a2.537 2.537 0 0 1 1.958.087 2.597 2.597 0 0 1 1.352 1.464l5.166 14.1a2.602 2.602 0 0 1-1.552 3.329l-8.259 3.007a2.648 2.648 0 0 1-.927.121z" fill="#FFE8A0"/><path d="m123.283 26.685 5.105 14.031-8.259 3.007-5.105-14.031 8.259-3.007zm0-5.2a5.27 5.27 0 0 0-1.785.312l-8.251 3.007a5.199 5.199 0 0 0-3.111 6.665l5.113 14.031a5.201 5.201 0 0 0 4.659 3.42 5.2 5.2 0 0 0 2.006-.309l8.251-3.007a5.202 5.202 0 0 0 3.111-6.665l-5.113-14.031a5.201 5.201 0 0 0-2.687-2.938 5.24 5.24 0 0 0-2.193-.485z" fill="#515979"/><path d="M16.761 66.794a2.6 2.6 0 0 1-1.672-.607l-6.726-5.65a2.6 2.6 0 0 1-.32-3.658l9.602-11.448a2.6 2.6 0 0 1 3.658-.32l6.734 5.65a2.6 2.6 0 0 1 .32 3.666l-9.602 11.44a2.6 2.6 0 0 1-1.734.918l-.26.01z" fill="#F9CBCB"/><path d="m19.639 47.103 6.725 5.651-9.603 11.44-6.725-5.642 9.603-11.449zm0-5.2a5.202 5.202 0 0 0-3.987 1.864l-9.585 11.44a5.2 5.2 0 0 0 .64 7.323l6.735 5.65a5.2 5.2 0 0 0 7.323-.64l9.603-11.44a5.2 5.2 0 0 0-.641-7.333l-6.734-5.642a5.14 5.14 0 0 0-3.337-1.222h-.017z" fill="#515979"/><path d="M245.31 157.733a2.617 2.617 0 0 1-.676-.086 2.598 2.598 0 0 1-1.577-1.214l-7.471-12.931a2.602 2.602 0 0 1 .953-3.553l7.61-4.394a2.602 2.602 0 0 1 3.553.954l7.471 12.93a2.591 2.591 0 0 1 .26 1.974 2.616 2.616 0 0 1-1.214 1.58l-7.609 4.394a2.656 2.656 0 0 1-1.3.346z" fill="#7DDF96"/><path d="m245.449 137.8 7.47 12.931-7.609 4.394-7.471-12.931 7.61-4.394zm0-5.2a5.199 5.199 0 0 0-2.6.693l-7.61 4.394a5.205 5.205 0 0 0-1.898 7.107l7.462 12.931a5.203 5.203 0 0 0 3.164 2.426c.438.114.89.172 1.343.174a5.192 5.192 0 0 0 2.6-.694l7.609-4.394a5.193 5.193 0 0 0 2.56-5.184 5.196 5.196 0 0 0-.653-1.922l-7.471-12.931a5.19 5.19 0 0 0-4.506-2.6z" fill="#515979"/><path d="M227.717 58.647a2.6 2.6 0 0 1-1.838-.762L215.315 47.32a2.6 2.6 0 0 1 0-3.675l6.214-6.214a2.6 2.6 0 0 1 1.837-.762 2.6 2.6 0 0 1 1.837.762l10.53 10.565a2.6 2.6 0 0 1 0 3.675l-6.214 6.214a2.598 2.598 0 0 1-1.802.762z" fill="#6ADAF7"/><path d="m223.366 39.269 10.565 10.564-6.214 6.214-10.565-10.564 6.214-6.214zm0-5.2c-1.379 0-2.7.55-3.675 1.525l-6.214 6.214a5.203 5.203 0 0 0 0 7.35l10.565 10.564a5.2 5.2 0 0 0 7.349 0l6.214-6.214a5.2 5.2 0 0 0 0-7.35l-10.538-10.564a5.202 5.202 0 0 0-3.675-1.525h-.026z" fill="#515979"/></svg>