<?xml version="1.0" encoding="utf-8"?>
<!-- Generator: Adobe Illustrator 26.0.1, SVG Export Plug-In . SVG Version: 6.00 Build 0)  -->
<svg version="1.1" id="CRO_x5F_Hub-Lead_x5F_Magnet_x5F_Ideas"
	 xmlns="http://www.w3.org/2000/svg" xmlns:xlink="http://www.w3.org/1999/xlink" x="0px" y="0px" viewBox="0 0 400 400"
	 style="enable-background:new 0 0 400 400;" xml:space="preserve">
<style type="text/css">
	.st0{fill:none;}
	.st1{fill:#747A94;}
	.st2{fill:#515979;}
	.st3{fill:#A38878;}
	.st4{fill:#75A5C3;}
	.st5{fill:#B29D90;}
	.st6{fill:#FFFFFF;}
	.st7{fill:#EF7D7D;}
	.st8{fill:#9E8271;}
	.st9{fill:#FDE4DD;}
	.st10{fill:#FFC8BE;}
	.st11{fill:#7D839B;}
	.st12{fill:#E6C3AF;}
	.st13{fill:#D2A5A0;}
	.st14{fill:#FFD886;}
	.st15{fill:#D8EBFB;}
	.st16{fill:#D26E78;}
	.st17{fill:#E0E0E0;}
	.st18{fill:#F4A4A4;}
</style>
<g>
	<rect class="st0" width="400" height="400"/>
</g>
<g>
	<g>
		<g>
			<path class="st1" d="M301.57,184.39c-4.07,0-7.84-1.94-10.26-5.04c-2.23,1.69-4.99,2.66-7.85,2.66c-1.13,0-2.27-0.15-3.37-0.45
				c-3.93-1.05-7.07-3.9-8.6-7.51c-1.55,0.63-3.22,0.96-4.93,0.96c-2.27,0-4.51-0.6-6.48-1.74c-3.53-2.04-5.82-5.6-6.37-9.49
				c-0.54,0.07-1.09,0.1-1.64,0.1c-3.47,0-6.73-1.35-9.18-3.8c-2.88-2.88-4.17-6.92-3.69-10.81c-3.94-0.54-7.48-2.88-9.5-6.38
				c-2.04-3.53-2.24-7.76-0.76-11.41c-3.62-1.53-6.47-4.67-7.53-8.61c-1.05-3.93-0.15-8.08,2.21-11.22
				c-3.1-2.42-5.04-6.19-5.04-10.26s1.94-7.84,5.04-10.26c-2.37-3.14-3.27-7.28-2.21-11.22c1.05-3.93,3.91-7.07,7.53-8.61
				c-1.48-3.64-1.27-7.88,0.77-11.41c2.02-3.49,5.55-5.83,9.5-6.37c-0.48-3.9,0.81-7.94,3.69-10.81c2.45-2.45,5.71-3.8,9.18-3.8
				c0.55,0,1.1,0.04,1.64,0.1c0.55-3.89,2.84-7.46,6.37-9.49c1.97-1.14,4.22-1.74,6.48-1.74c1.71,0,3.38,0.33,4.93,0.96
				c1.54-3.61,4.67-6.46,8.6-7.51c1.1-0.3,2.24-0.44,3.37-0.44c2.86,0,5.62,0.97,7.85,2.66c2.42-3.1,6.19-5.04,10.26-5.04
				s7.84,1.94,10.26,5.04c2.23-1.69,4.99-2.66,7.85-2.66c1.13,0,2.27,0.15,3.37,0.44c3.93,1.05,7.07,3.9,8.6,7.51
				c1.55-0.63,3.22-0.96,4.93-0.96c2.27,0,4.51,0.6,6.48,1.74c3.53,2.04,5.82,5.6,6.37,9.49c0.54-0.07,1.09-0.1,1.64-0.1
				c3.47,0,6.73,1.35,9.18,3.8c2.88,2.88,4.17,6.92,3.69,10.81c3.94,0.54,7.48,2.88,9.5,6.38c2.04,3.53,2.24,7.77,0.76,11.41
				c3.62,1.53,6.47,4.67,7.53,8.61c1.05,3.94,0.15,8.08-2.21,11.22c3.1,2.42,5.04,6.19,5.04,10.26s-1.94,7.84-5.04,10.26
				c2.37,3.14,3.27,7.28,2.21,11.22c-1.05,3.93-3.91,7.07-7.53,8.61c1.48,3.64,1.27,7.88-0.76,11.41c-2.02,3.49-5.55,5.83-9.5,6.38
				c0.48,3.9-0.81,7.94-3.69,10.81c-2.45,2.45-5.71,3.8-9.18,3.8c-0.55,0-1.1-0.04-1.64-0.1c-0.55,3.89-2.84,7.46-6.37,9.49
				c-1.97,1.14-4.22,1.74-6.48,1.74c-1.71,0-3.38-0.33-4.93-0.96c-1.54,3.61-4.67,6.46-8.6,7.51c-1.1,0.3-2.24,0.45-3.37,0.45
				c-2.86,0-5.62-0.97-7.85-2.66C309.42,182.45,305.65,184.39,301.57,184.39z"/>
		</g>
		<g>
			<path class="st2" d="M301.57,21.39c4.54,0,8.37,3.03,9.59,7.17c1.81-2.96,5.05-4.79,8.53-4.79c0.86,0,1.73,0.11,2.59,0.34
				c4.39,1.18,7.3,5.09,7.4,9.41c1.88-1.79,4.37-2.76,6.91-2.76c1.69,0,3.41,0.43,4.98,1.34c3.93,2.27,5.73,6.81,4.72,11.01
				c1.49-0.81,3.14-1.22,4.79-1.22c2.56,0,5.11,0.97,7.06,2.93c3.21,3.21,3.78,8.06,1.71,11.85c0.77-0.19,1.56-0.28,2.34-0.28
				c3.45,0,6.81,1.79,8.66,5c2.27,3.93,1.56,8.76-1.42,11.89c4.32,0.11,8.23,3.02,9.41,7.4c1.18,4.39-0.76,8.87-4.45,11.12
				c4.14,1.22,7.17,5.05,7.17,9.59c0,4.54-3.03,8.37-7.17,9.59c3.69,2.25,5.62,6.73,4.45,11.12c-1.17,4.39-5.09,7.3-9.41,7.4
				c2.98,3.13,3.69,7.96,1.42,11.89c-1.85,3.21-5.21,5-8.66,5c-0.78,0-1.57-0.09-2.34-0.28c2.07,3.79,1.5,8.64-1.71,11.85
				c-1.95,1.95-4.51,2.93-7.06,2.93c-1.65,0-3.3-0.41-4.79-1.22c1.02,4.2-0.79,8.74-4.72,11.01c-1.57,0.91-3.29,1.34-4.98,1.34
				c-2.54,0-5.03-0.97-6.91-2.76c-0.11,4.32-3.02,8.23-7.4,9.41c-0.87,0.23-1.74,0.34-2.59,0.34c-3.48,0-6.72-1.83-8.53-4.79
				c-1.22,4.14-5.05,7.17-9.59,7.17s-8.37-3.03-9.59-7.17c-1.81,2.96-5.05,4.79-8.53,4.79c-0.86,0-1.73-0.11-2.59-0.34
				c-4.39-1.17-7.3-5.09-7.4-9.41c-1.88,1.79-4.37,2.76-6.91,2.76c-1.69,0-3.41-0.43-4.98-1.34c-3.93-2.27-5.73-6.81-4.72-11.01
				c-1.49,0.81-3.14,1.22-4.79,1.22c-2.56,0-5.11-0.97-7.06-2.93c-3.21-3.21-3.78-8.06-1.71-11.85c-0.77,0.19-1.56,0.28-2.34,0.28
				c-3.45,0-6.81-1.79-8.66-5c-2.27-3.93-1.56-8.76,1.42-11.89c-4.32-0.11-8.23-3.02-9.41-7.4c-1.18-4.39,0.76-8.87,4.45-11.12
				c-4.14-1.22-7.17-5.05-7.17-9.59c0-4.54,3.03-8.37,7.17-9.59c-3.69-2.25-5.62-6.73-4.45-11.12c1.17-4.39,5.09-7.3,9.41-7.4
				c-2.98-3.13-3.69-7.96-1.42-11.89c1.85-3.21,5.21-5,8.66-5c0.78,0,1.57,0.09,2.34,0.28c-2.07-3.79-1.5-8.64,1.71-11.85
				c1.95-1.95,4.51-2.93,7.06-2.93c1.65,0,3.3,0.41,4.79,1.22c-1.02-4.2,0.79-8.74,4.72-11.01c1.57-0.91,3.29-1.34,4.98-1.34
				c2.54,0,5.03,0.97,6.91,2.76c0.11-4.32,3.02-8.23,7.4-9.41c0.87-0.23,1.74-0.34,2.59-0.34c3.48,0,6.72,1.83,8.53,4.79
				C293.21,24.42,297.03,21.39,301.57,21.39 M301.57,15.39c-4.06,0-7.88,1.57-10.76,4.19c-2.25-1.17-4.77-1.81-7.35-1.81
				c-1.39,0-2.79,0.18-4.14,0.55c-3.92,1.05-7.19,3.55-9.3,6.82c-1.12-0.25-2.28-0.37-3.46-0.37c-2.79,0-5.55,0.74-7.98,2.14
				c-3.51,2.03-6.03,5.29-7.22,9c-4,0.17-7.74,1.82-10.59,4.67c-2.87,2.87-4.46,6.67-4.65,10.57c-3.75,1.19-7,3.75-9.02,7.24
				c-2.03,3.52-2.58,7.61-1.75,11.43c-3.28,2.11-5.79,5.39-6.84,9.32c-1.05,3.93-0.52,8.02,1.27,11.49
				c-2.63,2.89-4.2,6.71-4.2,10.77c0,4.06,1.57,7.88,4.2,10.77c-1.79,3.47-2.32,7.56-1.27,11.49c1.05,3.92,3.56,7.21,6.84,9.32
				c-0.83,3.81-0.28,7.91,1.75,11.43c2.02,3.49,5.27,6.05,9.02,7.24c0.19,3.89,1.78,7.7,4.65,10.57c2.85,2.85,6.59,4.49,10.59,4.67
				c1.19,3.71,3.71,6.97,7.22,9c2.43,1.4,5.19,2.14,7.98,2.14c1.17,0,2.33-0.13,3.46-0.37c2.11,3.27,5.39,5.77,9.3,6.82
				c1.35,0.36,2.75,0.55,4.14,0.55c2.59,0,5.11-0.64,7.35-1.81c2.89,2.62,6.7,4.19,10.76,4.19s7.88-1.57,10.76-4.19
				c2.25,1.17,4.77,1.81,7.35,1.81c1.39,0,2.79-0.18,4.14-0.55c3.92-1.05,7.19-3.55,9.3-6.82c1.12,0.25,2.28,0.37,3.46,0.37
				c2.79,0,5.55-0.74,7.98-2.14c3.51-2.03,6.03-5.29,7.22-9c4-0.17,7.74-1.82,10.59-4.67c2.87-2.87,4.46-6.67,4.65-10.57
				c3.75-1.19,7-3.75,9.02-7.24c2.03-3.52,2.58-7.61,1.75-11.43c3.28-2.11,5.79-5.39,6.84-9.32c1.05-3.93,0.52-8.02-1.27-11.49
				c2.63-2.89,4.2-6.71,4.2-10.77c0-4.06-1.57-7.88-4.2-10.77c1.79-3.47,2.32-7.56,1.27-11.49c-1.05-3.93-3.56-7.21-6.84-9.32
				c0.83-3.81,0.28-7.91-1.75-11.43c-2.02-3.49-5.27-6.05-9.02-7.24c-0.19-3.89-1.78-7.7-4.65-10.57
				c-2.85-2.85-6.59-4.49-10.59-4.67c-1.19-3.71-3.71-6.97-7.22-9c-2.43-1.4-5.19-2.14-7.98-2.14c-1.17,0-2.33,0.13-3.46,0.37
				c-2.11-3.27-5.39-5.77-9.3-6.82c-1.36-0.36-2.75-0.55-4.14-0.55c-2.59,0-5.11,0.64-7.35,1.81
				C309.45,16.96,305.64,15.39,301.57,15.39L301.57,15.39z"/>
		</g>
	</g>
	<g>
		<g>
			<path class="st3" d="M260.57,134.19c-6.07,0-11-4.93-11-11v-1.6c0-6.07,4.93-11,11-11c1.66,0,3,1.34,3,3v17.6
				C263.57,132.85,262.23,134.19,260.57,134.19z"/>
		</g>
		<g>
			<g>
				<path class="st2" d="M260.57,113.59v17.6h0c-4.42,0-8-3.58-8-8v-1.6C252.57,117.17,256.16,113.59,260.57,113.59L260.57,113.59
					 M260.57,107.59c-7.72,0-14,6.28-14,14v1.6c0,7.72,6.28,14,14,14c3.31,0,6-2.69,6-6l0-17.6c0-1.59-0.63-3.12-1.76-4.24
					S262.17,107.59,260.57,107.59L260.57,107.59z"/>
			</g>
		</g>
	</g>
	<g>
		<g>
			<circle class="st4" cx="257.57" cy="138.39" r="6"/>
		</g>
		<g>
			<path class="st2" d="M257.57,135.39c1.66,0,3,1.34,3,3s-1.34,3-3,3c-1.66,0-3-1.34-3-3S255.92,135.39,257.57,135.39
				 M257.57,129.39c-4.96,0-9,4.04-9,9s4.04,9,9,9c4.96,0,9-4.04,9-9S262.54,129.39,257.57,129.39L257.57,129.39z"/>
		</g>
	</g>
	<g>
		<g>
			<path class="st5" d="M342.57,134.19c-1.66,0-3-1.34-3-3v-17.6c0-1.66,1.34-3,3-3c6.07,0,11,4.93,11,11v1.6
				C353.57,129.26,348.64,134.19,342.57,134.19z"/>
		</g>
		<g>
			<g>
				<path class="st2" d="M342.57,113.59c4.42,0,8,3.58,8,8v1.6c0,4.42-3.58,8-8,8V113.59 M342.57,107.59c-3.31,0-6,2.69-6,6v17.6
					c0,3.31,2.69,6,6,6c7.72,0,14-6.28,14-14v-1.6C356.57,113.87,350.29,107.59,342.57,107.59L342.57,107.59z"/>
			</g>
		</g>
	</g>
	<g>
		<g>
			<circle class="st4" cx="345.57" cy="138.39" r="6"/>
		</g>
		<g>
			<path class="st2" d="M345.57,135.39c1.66,0,3,1.34,3,3s-1.34,3-3,3c-1.66,0-3-1.34-3-3S343.92,135.39,345.57,135.39
				 M345.57,129.39c-4.96,0-9,4.04-9,9s4.04,9,9,9s9-4.04,9-9S350.54,129.39,345.57,129.39L345.57,129.39z"/>
		</g>
	</g>
	<g>
		<g>
			<path class="st5" d="M301.57,172.39c-21.5,0-39-17.5-39-39v-28c0-21.5,17.5-39,39-39s39,17.5,39,39v28
				C340.57,154.9,323.08,172.39,301.57,172.39z"/>
		</g>
		<g>
			<g>
				<path class="st2" d="M301.57,69.39c19.88,0,36,16.12,36,36v28c0,19.88-16.12,36-36,36h0c-19.88,0-36-16.12-36-36v-28
					C265.57,85.51,281.69,69.39,301.57,69.39L301.57,69.39 M301.57,63.39c-23.16,0-42,18.84-42,42v28c0,23.16,18.84,42,42,42
					c23.16,0,42-18.84,42-42v-28C343.57,82.23,324.73,63.39,301.57,63.39L301.57,63.39z"/>
			</g>
		</g>
	</g>
	<g>
		<path class="st3" d="M273.57,133.39v-28c0-18.53,14-33.78,32-35.77c-1.31-0.15-2.65-0.23-4-0.23h0c-19.88,0-36,16.12-36,36v28
			c0,19.88,16.12,36,36,36h0c1.35,0,2.69-0.08,4-0.23C287.58,167.17,273.57,151.92,273.57,133.39z"/>
	</g>
	<g>
		<path class="st3" d="M308.57,123.39c0,3.87-3.13,7-7,7l0,0c-3.87,0-7-3.13-7-7L308.57,123.39z"/>
	</g>
	<g>
		<path class="st2" d="M314.7,103.04c4.22-4.89,13.85-3.9,15.66,2.73c0.16,0.57-0.16,1.16-0.73,1.33c-0.29,0.09-0.58,0.03-0.84-0.09
			c-3.26-1.49-5.9-2.32-9.45-2.25c-1.19-0.02-2.54,0.06-3.88,0.03C314.59,104.81,314.1,103.67,314.7,103.04L314.7,103.04z"/>
	</g>
	<g>
		<path class="st2" d="M287.5,104.8c-4.84-0.2-8.73-0.03-13.14,2.21c-0.58,0.29-1.31,0.07-1.54-0.56c-0.02-3.42,3.92-6.14,7.13-6.43
			c3.19-0.34,6.32,0.65,8.51,3.02C289.12,103.78,288.45,104.92,287.5,104.8L287.5,104.8z"/>
	</g>
	<g>
		<g>
			<path class="st2" d="M297.79,157.17c2.47,0.57,5.1,0.59,7.57,0c1.27-0.35,2.15,1.33,1.18,2.18c-0.77,0.76-1.77,1.54-2.78,1.78
				c-2.16,0.62-4.6,0.39-6.39-1.11c0,0-0.74-0.66-0.74-0.66C295.63,158.5,296.54,156.83,297.79,157.17L297.79,157.17z"/>
		</g>
	</g>
	<g>
		<path class="st1" d="M254.36,96.78c13.19,0,35.22-25.39,35.22-25.39s21.46,31,61,31l-4-18.89l-9.2-11.88l-15.12-10.73l-21.23-4.64
			l-21.5,4.93l-14.59,10.41l-7.84,10.68L254.36,96.78z"/>
	</g>
	<g>
		<path class="st2" d="M348.58,105.39c-33.32,0-52.75-20.8-59.18-29.09c-2.14,2.5-5.48,6.21-9.42,9.96
			c-9.41,8.97-17.36,13.52-23.63,13.52c-1.66,0-3-1.34-3-3s1.34-3,3-3c4.53,0,11.44-4.2,19.44-11.82
			c6.43-6.13,11.38-12.37,11.42-12.43c0.6-0.77,1.54-1.19,2.52-1.14c0.97,0.05,1.86,0.57,2.38,1.4c0.18,0.29,19.13,29.6,56.46,29.6
			c1.66,0,3,1.34,3,3S350.23,105.39,348.58,105.39z"/>
	</g>
	<g>
		<path class="st2" d="M339.57,93.86c-0.23,0-0.46-0.03-0.7-0.1c-26.57-7.7-40.71-26.09-41.29-26.87c-0.83-1.1-0.62-2.67,0.49-3.5
			c1.1-0.83,2.67-0.62,3.5,0.49c0.13,0.18,13.79,17.86,38.7,25.08c1.33,0.38,2.09,1.77,1.71,3.1
			C341.66,93.15,340.66,93.86,339.57,93.86z"/>
	</g>
	<g>
		<path class="st2" d="M301.58,132.89c-5.24,0-9.5-4.26-9.5-9.5v-13c0-1.38,1.12-2.5,2.5-2.5s2.5,1.12,2.5,2.5v13
			c0,2.48,2.02,4.5,4.5,4.5s4.5-2.02,4.5-4.5v-13c0-1.38,1.12-2.5,2.5-2.5s2.5,1.12,2.5,2.5v13
			C311.08,128.63,306.81,132.89,301.58,132.89z"/>
	</g>
	<g>
		<g>
			<circle class="st2" cx="320.57" cy="113.39" r="6"/>
		</g>
		<g>
			<circle class="st6" cx="322.57" cy="113.39" r="1.5"/>
		</g>
		<g>
			<path class="st2" d="M324.57,122.39c-0.35,0-0.71-0.09-1.03-0.29c-1.58-0.95-4.35-0.95-5.93,0c-0.95,0.57-2.18,0.27-2.75-0.68
				c-0.57-0.95-0.27-2.17,0.68-2.75c2.82-1.7,7.24-1.7,10.07,0c0.95,0.57,1.25,1.8,0.68,2.75
				C325.91,122.05,325.25,122.39,324.57,122.39z"/>
		</g>
	</g>
	<g>
		<g>
			<circle class="st2" cx="282.57" cy="113.39" r="6"/>
		</g>
		<g>
			<path class="st2" d="M286.57,122.39c-0.35,0-0.71-0.09-1.03-0.29c-1.58-0.95-4.35-0.95-5.93,0c-0.95,0.57-2.18,0.27-2.75-0.68
				c-0.57-0.95-0.27-2.17,0.68-2.75c2.82-1.7,7.24-1.7,10.07,0c0.95,0.57,1.25,1.8,0.68,2.75
				C287.91,122.05,287.25,122.39,286.57,122.39z"/>
		</g>
		<g>
			<circle class="st6" cx="284.57" cy="113.39" r="1.5"/>
		</g>
	</g>
	<g>
		<path class="st2" d="M313.58,134.39L313.58,134.39h-24.01c-2.21,0-4,1.79-4,4c0,8.82,7.18,16,16,16c8.77,0,15.91-7.09,16-15.84
			c0-0.05,0-0.11,0-0.16C317.58,136.18,315.79,134.39,313.58,134.39z"/>
		<g>
			<ellipse class="st7" cx="301.57" cy="146.39" rx="8.93" ry="4"/>
		</g>
	</g>
</g>
<g>
	<g>
		<g>
			<path class="st8" d="M278.36,319.16c-0.28,0-0.57-0.04-0.85-0.12l-12.47-3.68c-0.65-0.19-1.22-0.6-1.61-1.16
				c-0.68-0.97-16.44-24-5.83-43.45c4.74-8.68,11.55-10.5,16.42-10.5c5.5,0,9.87,2.33,10.06,2.43c1.05,0.57,1.66,1.7,1.56,2.89
				l-4.29,50.85c-0.08,0.9-0.55,1.71-1.3,2.22C279.55,318.98,278.96,319.16,278.36,319.16z"/>
		</g>
		<g>
			<path class="st2" d="M274.02,263.25c4.8,0,8.63,2.07,8.63,2.07l-4.29,50.85l-12.47-3.68c0,0-15.51-22.25-5.66-40.29
				C264.11,265.08,269.5,263.25,274.02,263.25 M274.02,257.25c-8.04,0-14.81,4.28-19.06,12.06c-11.49,21.06,5.28,45.57,6,46.6
				c0.78,1.12,1.92,1.94,3.22,2.32l12.47,3.68c0.56,0.16,1.13,0.25,1.7,0.25c1.2,0,2.38-0.36,3.39-1.05
				c1.49-1.02,2.44-2.65,2.59-4.45l4.29-50.85c0.2-2.38-1.03-4.65-3.13-5.78C284.97,259.75,280.16,257.25,274.02,257.25
				L274.02,257.25z"/>
		</g>
	</g>
	<g>
		<g>
			<path class="st8" d="M339.24,319.16c-0.6,0-1.19-0.18-1.69-0.52c-0.74-0.51-1.22-1.33-1.3-2.22l-4.29-50.85
				c-0.1-1.19,0.51-2.32,1.56-2.89c0.18-0.1,4.56-2.43,10.06-2.43c4.88,0,11.69,1.82,16.42,10.5c4.44,8.13,4.81,18.27,1.07,29.31
				c-2.75,8.13-6.73,13.89-6.9,14.13c-0.39,0.56-0.96,0.97-1.61,1.16l-12.47,3.68C339.81,319.12,339.53,319.16,339.24,319.16z"/>
		</g>
		<g>
			<path class="st2" d="M343.58,263.25c4.52,0,9.91,1.83,13.79,8.94c9.85,18.04-5.66,40.29-5.66,40.29l-12.47,3.68l-4.29-50.85
				C334.95,265.32,338.78,263.25,343.58,263.25 M343.59,257.25C343.59,257.25,343.59,257.25,343.59,257.25
				c-6.14,0-10.95,2.5-11.48,2.79c-2.1,1.13-3.33,3.41-3.13,5.78l4.29,50.85c0.15,1.8,1.1,3.43,2.59,4.45
				c1.01,0.69,2.19,1.05,3.39,1.05c0.57,0,1.14-0.08,1.7-0.25l12.47-3.68c1.31-0.39,2.44-1.21,3.22-2.32
				c0.72-1.03,17.5-25.54,6-46.6C358.4,261.53,351.63,257.25,343.59,257.25L343.59,257.25z"/>
		</g>
	</g>
	<g>
		<g>
			<path class="st9" d="M353.23,331.48c-1.66,0-3-1.34-3-3v-22c0-1.66,1.34-3,3-3c7.17,0,13,5.83,13,13v2
				C366.23,325.65,360.4,331.48,353.23,331.48z"/>
		</g>
		<g>
			<g>
				<path class="st2" d="M353.23,306.48c5.52,0,10,4.48,10,10v2c0,5.52-4.48,10-10,10V306.48 M353.23,300.48c-3.31,0-6,2.69-6,6v22
					c0,3.31,2.69,6,6,6c8.82,0,16-7.18,16-16v-2C369.23,307.66,362.05,300.48,353.23,300.48L353.23,300.48z"/>
			</g>
		</g>
	</g>
	<g>
		<g>
			<path class="st10" d="M265.23,331.48c-7.17,0-13-5.83-13-13v-2c0-7.17,5.83-13,13-13c1.66,0,3,1.34,3,3v22
				C268.23,330.14,266.88,331.48,265.23,331.48z"/>
		</g>
		<g>
			<g>
				<path class="st2" d="M265.23,306.48v22h0c-5.52,0-10-4.48-10-10v-2C255.23,310.96,259.71,306.48,265.23,306.48L265.23,306.48
					 M265.23,300.48c-8.82,0-16,7.18-16,16v2c0,8.82,7.18,16,16,16c3.31,0,6-2.69,6-6l0-22c0-1.59-0.63-3.12-1.76-4.24
					C268.35,301.11,266.82,300.48,265.23,300.48L265.23,300.48z"/>
			</g>
		</g>
	</g>
	<g>
		<g>
			<path class="st9" d="M309.23,367.48c-24.26,0-44-19.74-44-44v-30c0-24.26,19.74-44,44-44s44,19.74,44,44v30
				C353.23,347.74,333.49,367.48,309.23,367.48z"/>
		</g>
		<g>
			<path class="st2" d="M309.23,252.48c22.64,0,41,18.36,41,41v30c0,22.64-18.36,41-41,41h0c-22.64,0-41-18.36-41-41v-30
				C268.23,270.84,286.58,252.48,309.23,252.48L309.23,252.48 M309.23,246.48c-25.92,0-47,21.08-47,47v30c0,25.92,21.08,47,47,47
				c25.92,0,47-21.08,47-47v-30C356.23,267.57,335.14,246.48,309.23,246.48L309.23,246.48z"/>
		</g>
	</g>
	<g>
		<path class="st10" d="M276.23,323.48v-30c0-21.29,16.23-38.79,37-40.8c-1.32-0.13-2.65-0.2-4-0.2c-22.64,0-41,18.36-41,41v30
			c0,22.64,18.36,41,41,41c1.35,0,2.68-0.07,4-0.2C292.46,362.27,276.23,344.78,276.23,323.48z"/>
	</g>
	<g>
		<path class="st2" d="M321.85,291.93c4.66-3.09,11.11-3.41,15.79-0.04c2.4,1.72,5.7,6.58,1.71,8.21c-0.97,0.34-1.89-0.03-2.71-0.48
			c-2.12-1.13-3.48-1.65-5.73-2.07c-2.5-0.47-5.51-0.25-8.06-0.75C320.54,296.4,319.91,293.2,321.85,291.93L321.85,291.93z"/>
	</g>
	<g>
		<path class="st2" d="M295.4,297.04c-4.56,0.34-8.95,0.22-13,2.67c0,0-0.69,0.34-0.69,0.34c-1.34,0.66-2.97,0.1-3.62-1.24
			c-1.02-2.38,1.44-5.38,3.32-6.82c3.15-2.34,7.29-2.83,10.93-2.03c2.56,0.62,7.65,2.32,5.56,5.82
			C297.33,296.65,296.34,296.9,295.4,297.04L295.4,297.04z"/>
	</g>
	<g>
		<g>
			<circle class="st2" cx="329.23" cy="305.48" r="6"/>
		</g>
		<g>
			<circle class="st6" cx="331.23" cy="305.48" r="1.5"/>
		</g>
		<g>
			<path class="st2" d="M333.23,314.48c-0.35,0-0.71-0.09-1.03-0.29c-1.58-0.95-4.35-0.95-5.93,0c-0.95,0.57-2.18,0.27-2.75-0.68
				c-0.57-0.95-0.27-2.17,0.68-2.75c2.82-1.71,7.24-1.71,10.07,0c0.95,0.57,1.25,1.8,0.68,2.75
				C334.57,314.14,333.9,314.48,333.23,314.48z"/>
		</g>
	</g>
	<g>
		<g>
			<circle class="st2" cx="289.23" cy="305.48" r="6"/>
		</g>
		<g>
			<path class="st2" d="M293.23,314.48c-0.35,0-0.71-0.09-1.03-0.29c-1.58-0.95-4.35-0.95-5.93,0c-0.95,0.57-2.18,0.27-2.75-0.68
				c-0.57-0.95-0.27-2.17,0.68-2.75c2.82-1.71,7.24-1.71,10.07,0c0.95,0.57,1.25,1.8,0.68,2.75
				C294.57,314.14,293.9,314.48,293.23,314.48z"/>
		</g>
		<g>
			<circle class="st6" cx="291.23" cy="305.48" r="1.5"/>
		</g>
	</g>
	<g>
		<g>
			<path class="st8" d="M309.23,372.48c-16.91,0-40.43-16.26-40.43-32.26c0-0.47,0.11-0.93,0.32-1.35
				c4.38-8.67,19.78-15.39,30.1-15.39c3.37,0,6.73,0.39,10,1.15c3.27-0.76,6.63-1.15,10-1.15c9.9,0,25.5,6.88,30.04,15.42
				c0.23,0.43,0.35,0.92,0.35,1.41c0,7.91-5.22,16.2-14.31,22.76C327.24,368.87,317.25,372.48,309.23,372.48z"/>
		</g>
		<g>
			<g>
				<path class="st2" d="M319.23,326.48c9.45,0,23.56,6.62,27.39,13.83c0,15.3-22.39,29.17-37.39,29.17c-15,0-37.43-15-37.43-29.26
					c3.77-7.45,17.94-13.74,27.43-13.74h0c3.45,0,6.8,0.43,10,1.23C312.43,326.91,315.78,326.48,319.23,326.48L319.23,326.48
					 M319.23,320.48c-3.36,0-6.72,0.36-10,1.07c-3.28-0.71-6.64-1.07-10-1.07c-5.57,0-12.3,1.7-18.46,4.67
					c-3.98,1.92-11.14,6.07-14.32,12.37c-0.42,0.84-0.64,1.77-0.64,2.71c0,8.47,5.66,17.51,15.52,24.8
					c8.86,6.55,19.29,10.46,27.91,10.46c8.61,0,19.28-3.83,27.83-9.98c10.03-7.23,15.56-16.17,15.56-25.19
					c0-0.98-0.24-1.95-0.7-2.81C346.74,327.76,330.39,320.48,319.23,320.48L319.23,320.48z"/>
			</g>
		</g>
	</g>
	<g>
		<path class="st10" d="M317.23,317.48c0,4.42-3.58,8-8,8h0c-4.42,0-8-3.58-8-8L317.23,317.48z"/>
	</g>
	<g>
		<path class="st2" d="M309.23,327.98c-5.79,0-10.5-4.71-10.5-10.5v-13c0-1.38,1.12-2.5,2.5-2.5s2.5,1.12,2.5,2.5v13
			c0,3.03,2.47,5.5,5.5,5.5s5.5-2.47,5.5-5.5v-13c0-1.38,1.12-2.5,2.5-2.5s2.5,1.12,2.5,2.5v13
			C319.73,323.27,315.02,327.98,309.23,327.98z"/>
	</g>
	<g>
		<path class="st8" d="M331.14,357.48c-1.01,11.21-10.43,20-21.91,20h0c-11.48,0-20.9-8.79-21.91-20"/>
		<path class="st2" d="M309.23,380.48c-13.03,0-23.73-9.77-24.9-22.73c-0.15-1.65,1.07-3.11,2.72-3.26
			c1.64-0.13,3.11,1.07,3.26,2.72c0.89,9.85,9.02,17.27,18.92,17.27c9.9,0,18.04-7.42,18.92-17.27c0.15-1.65,1.62-2.85,3.26-2.72
			c1.65,0.15,2.87,1.61,2.72,3.26C332.96,370.71,322.25,380.48,309.23,380.48z"/>
	</g>
	<g>
		<g>
			<path class="st8" d="M318.63,281.26c-22.71,0-37.09-16.84-37.7-17.56c-0.73-0.87-0.9-2.07-0.46-3.11
				c5.69-13.29,15.75-20.31,29.07-20.31c22.21,0,46.52,19.03,47.55,19.84c0.7,0.55,1.12,1.39,1.14,2.28
				c0.02,0.89-0.36,1.75-1.03,2.33C344.6,275.7,331.62,281.26,318.63,281.26C318.63,281.26,318.63,281.26,318.63,281.26z"/>
		</g>
		<g>
			<path class="st2" d="M309.54,243.29c21.42,0,45.69,19.19,45.69,19.19c-13.59,11.82-26.03,15.78-36.6,15.78
				c-21.57,0-35.4-16.48-35.4-16.48C289.16,247.93,299.01,243.29,309.54,243.29 M309.54,237.29c-14.62,0-25.63,7.65-31.83,22.13
				c-0.89,2.08-0.54,4.49,0.92,6.22c0.64,0.76,15.9,18.63,39.99,18.63c13.74,0,27.38-5.8,40.54-17.25c1.35-1.17,2.1-2.88,2.06-4.67
				c-0.04-1.78-0.88-3.46-2.28-4.57C357.89,256.94,332.78,237.29,309.54,237.29L309.54,237.29z"/>
		</g>
	</g>
	<g>
		<path class="st2" d="M319.75,270.72c-15.81,0-25.55-7.78-26.11-8.24c-1.07-0.88-1.22-2.45-0.35-3.52
			c0.88-1.07,2.45-1.22,3.51-0.35l0,0c0.69,0.56,17.26,13.62,42.53,2.87c1.27-0.54,2.74,0.05,3.28,1.32
			c0.54,1.27-0.05,2.74-1.32,3.28C333.29,269.49,326.04,270.72,319.75,270.72z"/>
	</g>
	<g>
		<g>
			<path class="st2" d="M309.23,353.48c-7.72,0-14-6.28-14-14c0-1.1,0.9-2,2-2h24c1.1,0,2,0.9,2,2
				C323.23,347.2,316.95,353.48,309.23,353.48z"/>
		</g>
		<g>
			<path class="st2" d="M321.23,339.48L321.23,339.48 M321.23,339.48c0,6.63-5.37,12-12,12s-12-5.37-12-12H321.23 M321.23,335.48
				L321.23,335.48h-24.01c-2.21,0-4,1.79-4,4c0,8.82,7.18,16,16,16c8.77,0,15.91-7.09,16-15.84c0-0.05,0-0.11,0-0.16
				C325.23,337.27,323.44,335.48,321.23,335.48L321.23,335.48z M321.23,343.48L321.23,343.48L321.23,343.48L321.23,343.48z"/>
		</g>
	</g>
	<g>
		<ellipse class="st7" cx="309.23" cy="347.48" rx="8.93" ry="4"/>
	</g>
	<g>
		<g>
			<g>
				<path class="st2" d="M305.05,360.02c2.02,0.62,4.2,0.77,6.29,0.46c1.26-0.04,3.12-1.32,3.76,0.4c0.33,0.91-0.46,1.53-1.04,2.06
					c-0.69,0.66-1.48,1.05-2.3,1.31c-2.47,0.75-5.35,0.46-7.35-1.31c0,0-0.69-0.65-0.69-0.65
					C302.66,361.34,303.72,359.57,305.05,360.02L305.05,360.02z"/>
			</g>
		</g>
	</g>
	<g>
		<path class="st8" d="M291.23,339.48c0,0,12.99-2.21,18-6c5.01,3.79,17.6,6.02,18,6v-7.01l-18-3.26l-18,3.42V339.48z"/>
	</g>
	<g>
		<path class="st2" d="M291.23,341.48c-0.96,0-1.8-0.69-1.97-1.66c-0.19-1.09,0.55-2.12,1.63-2.31c3.48-0.59,13.34-2.76,17.13-5.62
			c0.71-0.54,1.7-0.54,2.41,0c4.39,3.31,15.77,5.46,16.91,5.6c1.02,0.06,1.84,0.88,1.88,1.92c0.04,1.1-0.82,2.03-1.92,2.08
			c-0.01,0-0.01,0-0.02,0c-0.96,0-12.17-2.03-18.06-5.59c-5.87,3.52-17.15,5.48-17.66,5.57
			C291.45,341.47,291.34,341.48,291.23,341.48z"/>
	</g>
	<g>
		<path class="st2" d="M278.23,261.98c-0.99,0-1.93-0.59-2.32-1.57l-4-10c-0.51-1.28,0.11-2.74,1.39-3.25
			c1.28-0.52,2.74,0.11,3.25,1.39l4,10c0.51,1.28-0.11,2.74-1.39,3.25C278.85,261.92,278.54,261.98,278.23,261.98z"/>
	</g>
</g>
<g>
	<g>
		<g>
			<circle class="st11" cx="128.11" cy="67.89" r="20"/>
		</g>
		<g>
			<path class="st2" d="M128.11,50.89c9.39,0,17,7.61,17,17s-7.61,17-17,17s-17-7.61-17-17S118.72,50.89,128.11,50.89 M128.11,44.89
				c-12.68,0-23,10.32-23,23s10.32,23,23,23s23-10.32,23-23S140.79,44.89,128.11,44.89L128.11,44.89z"/>
		</g>
	</g>
	<g>
		<g>
			<circle class="st11" cx="50.11" cy="67.89" r="20"/>
		</g>
		<g>
			<path class="st2" d="M50.11,50.89c9.39,0,17,7.61,17,17s-7.61,17-17,17s-17-7.61-17-17S40.72,50.89,50.11,50.89 M50.11,44.89
				c-12.68,0-23,10.32-23,23s10.32,23,23,23s23-10.32,23-23S62.79,44.89,50.11,44.89L50.11,44.89z"/>
		</g>
	</g>
	<g>
		<g>
			<circle class="st11" cx="121.11" cy="125.89" r="20"/>
		</g>
		<g>
			<path class="st2" d="M121.11,108.89c9.39,0,17,7.61,17,17s-7.61,17-17,17s-17-7.61-17-17S111.72,108.89,121.11,108.89
				 M121.11,102.89c-12.68,0-23,10.32-23,23s10.32,23,23,23s23-10.32,23-23S133.79,102.89,121.11,102.89L121.11,102.89z"/>
		</g>
	</g>
	<g>
		<g>
			<circle class="st11" cx="57.11" cy="125.89" r="20"/>
		</g>
		<g>
			<path class="st2" d="M57.11,108.89c9.39,0,17,7.61,17,17s-7.61,17-17,17s-17-7.61-17-17S47.72,108.89,57.11,108.89 M57.11,102.89
				c-12.68,0-23,10.32-23,23s10.32,23,23,23s23-10.32,23-23S69.79,102.89,57.11,102.89L57.11,102.89z"/>
		</g>
	</g>
	<g>
		<g>
			<circle class="st11" cx="130.11" cy="88.89" r="20"/>
		</g>
		<g>
			<path class="st2" d="M130.11,71.89c9.39,0,17,7.61,17,17s-7.61,17-17,17s-17-7.61-17-17S120.72,71.89,130.11,71.89 M130.11,65.89
				c-12.68,0-23,10.32-23,23s10.32,23,23,23s23-10.32,23-23S142.79,65.89,130.11,65.89L130.11,65.89z"/>
		</g>
	</g>
	<g>
		<g>
			<circle class="st11" cx="48.11" cy="88.89" r="20"/>
		</g>
		<g>
			<path class="st2" d="M48.11,71.89c9.39,0,17,7.61,17,17s-7.61,17-17,17s-17-7.61-17-17S38.72,71.89,48.11,71.89 M48.11,65.89
				c-12.68,0-23,10.32-23,23s10.32,23,23,23s23-10.32,23-23S60.79,65.89,48.11,65.89L48.11,65.89z"/>
		</g>
	</g>
	<g>
		<g>
			<path class="st12" d="M133.11,122.89c-1.66,0-3-1.34-3-3v-22c0-1.66,1.34-3,3-3c7.17,0,13,5.83,13,13v2
				C146.11,117.06,140.28,122.89,133.11,122.89z"/>
		</g>
		<g>
			<g>
				<path class="st2" d="M133.11,97.89c5.52,0,10,4.48,10,10v2c0,5.52-4.48,10-10,10h0L133.11,97.89L133.11,97.89 M133.11,91.89
					c-3.31,0-6,2.69-6,6l0,22c0,1.59,0.63,3.12,1.76,4.24c1.13,1.13,2.65,1.76,4.24,1.76c8.82,0,16-7.18,16-16v-2
					C149.11,99.07,141.93,91.89,133.11,91.89L133.11,91.89z"/>
			</g>
		</g>
	</g>
	<g>
		<g>
			<path class="st13" d="M45.11,122.89c-7.17,0-13-5.83-13-13v-2c0-7.17,5.83-13,13-13c1.66,0,3,1.34,3,3v22
				C48.11,121.55,46.77,122.89,45.11,122.89z"/>
		</g>
		<g>
			<g>
				<path class="st2" d="M45.11,97.89v22h0c-5.52,0-10-4.48-10-10v-2C35.11,102.37,39.59,97.89,45.11,97.89L45.11,97.89
					 M45.11,91.89c-8.82,0-16,7.18-16,16v2c0,8.82,7.18,16,16,16c3.31,0,6-2.69,6-6l0-22c0-1.59-0.63-3.12-1.76-4.24
					C48.23,92.52,46.7,91.89,45.11,91.89L45.11,91.89z"/>
			</g>
		</g>
	</g>
	<g>
		<g>
			<path class="st12" d="M89.11,158.89c-24.26,0-44-19.74-44-44v-30c0-24.26,19.74-44,44-44s44,19.74,44,44v30
				C133.11,139.15,113.37,158.89,89.11,158.89z"/>
		</g>
		<g>
			<path class="st2" d="M89.11,43.89c22.64,0,41,18.36,41,41v30c0,22.64-18.36,41-41,41h0c-22.64,0-41-18.36-41-41v-30
				C48.11,62.25,66.47,43.89,89.11,43.89L89.11,43.89 M89.11,37.89c-25.92,0-47,21.08-47,47v30c0,25.92,21.08,47,47,47
				c25.92,0,47-21.08,47-47v-30C136.11,58.97,115.03,37.89,89.11,37.89L89.11,37.89z"/>
		</g>
	</g>
	<g>
		<path class="st13" d="M56.11,114.89v-30c0-21.29,16.23-38.79,37-40.8c-1.32-0.13-2.65-0.2-4-0.2c-22.64,0-41,18.36-41,41v30
			c0,22.64,18.36,41,41,41c1.35,0,2.68-0.07,4-0.2C72.34,153.68,56.11,136.18,56.11,114.89z"/>
	</g>
	<g>
		<path class="st13" d="M97.11,106.89c0,4.42-3.58,8-8,8h0c-4.42,0-8-3.58-8-8L97.11,106.89z"/>
	</g>
	<g>
		<path class="st2" d="M89.11,117.39c-5.79,0-10.5-4.71-10.5-10.5v-13c0-1.38,1.12-2.5,2.5-2.5s2.5,1.12,2.5,2.5v13
			c0,3.03,2.47,5.5,5.5,5.5s5.5-2.47,5.5-5.5v-13c0-1.38,1.12-2.5,2.5-2.5s2.5,1.12,2.5,2.5v13
			C99.61,112.68,94.9,117.39,89.11,117.39z"/>
	</g>
	<g>
		<g>
			<circle class="st11" cx="62.11" cy="49.89" r="19"/>
		</g>
		<g>
			<path class="st2" d="M62.11,33.89c8.84,0,16,7.16,16,16c0,8.84-7.16,16-16,16s-16-7.16-16-16
				C46.11,41.05,53.27,33.89,62.11,33.89 M62.11,27.89c-12.13,0-22,9.87-22,22s9.87,22,22,22c12.13,0,22-9.87,22-22
				S74.24,27.89,62.11,27.89L62.11,27.89z"/>
		</g>
	</g>
	<g>
		<g>
			<circle class="st11" cx="116.11" cy="49.89" r="19"/>
		</g>
		<g>
			<path class="st2" d="M116.11,33.89c8.84,0,16,7.16,16,16c0,8.84-7.16,16-16,16s-16-7.16-16-16
				C100.11,41.05,107.27,33.89,116.11,33.89 M116.11,27.89c-12.13,0-22,9.87-22,22s9.87,22,22,22c12.13,0,22-9.87,22-22
				S128.24,27.89,116.11,27.89L116.11,27.89z"/>
		</g>
	</g>
	<g>
		<g>
			<circle class="st11" cx="89.11" cy="43.89" r="20"/>
		</g>
		<g>
			<path class="st2" d="M89.11,26.89c9.39,0,17,7.61,17,17s-7.61,17-17,17s-17-7.61-17-17S79.72,26.89,89.11,26.89 M89.11,20.89
				c-12.68,0-23,10.32-23,23s10.32,23,23,23s23-10.32,23-23S101.79,20.89,89.11,20.89L89.11,20.89z"/>
		</g>
	</g>
	<g>
		<path class="st2" d="M87.11,54.39c-1.38,0-2.5-1.12-2.5-2.5s1.12-2.5,2.5-2.5c4.14,0,7.5-3.36,7.5-7.5c0-1.38,1.12-2.5,2.5-2.5
			s2.5,1.12,2.5,2.5C99.61,48.78,94,54.39,87.11,54.39z"/>
	</g>
	<g>
		<g>
			<circle class="st2" cx="109.11" cy="96.89" r="6"/>
		</g>
		<g>
			<circle class="st6" cx="111.11" cy="96.89" r="1.5"/>
		</g>
		<g>
			<path class="st2" d="M105.11,105.89c-0.68,0-1.34-0.34-1.71-0.97c-0.57-0.95-0.27-2.18,0.68-2.75c2.82-1.7,7.25-1.7,10.07,0
				c0.95,0.57,1.25,1.8,0.68,2.75c-0.57,0.95-1.8,1.25-2.75,0.68c-1.58-0.95-4.35-0.95-5.93,0
				C105.82,105.8,105.46,105.89,105.11,105.89z"/>
		</g>
	</g>
	<g>
		<g>
			<circle class="st2" cx="69.11" cy="96.89" r="6"/>
		</g>
		<g>
			<path class="st2" d="M65.11,105.89c-0.68,0-1.34-0.34-1.71-0.97c-0.57-0.95-0.27-2.18,0.68-2.75c2.82-1.7,7.25-1.7,10.07,0
				c0.95,0.57,1.25,1.8,0.68,2.75c-0.57,0.95-1.8,1.25-2.75,0.68c-1.58-0.95-4.35-0.95-5.93,0
				C65.82,105.8,65.46,105.89,65.11,105.89z"/>
		</g>
		<g>
			<circle class="st6" cx="71.11" cy="96.89" r="1.5"/>
		</g>
	</g>
	<g>
		<path class="st2" d="M89.44,127.9c-4.88,0-9.88-1.06-14.21-3.18c-0.99-0.49-1.4-1.68-0.92-2.68c0.49-0.99,1.68-1.4,2.68-0.92
			c7.48,3.67,17.64,3.68,24.14,0.02c0.96-0.54,2.18-0.2,2.72,0.76c0.54,0.96,0.2,2.18-0.76,2.72
			C99.22,126.81,94.39,127.9,89.44,127.9z"/>
	</g>
	<g>
		<path class="st2" d="M102.75,82.66c3.65-3.59,9.86-4.33,14.11-1.29c2.26,1.52,5.25,5.55,1.87,7.31c-1.81,0.8-3.81-1.11-5.31-1.51
			c-2.93-1.34-6.33-0.84-9.48-1.08C102.29,85.97,101.55,83.77,102.75,82.66L102.75,82.66z"/>
	</g>
	<g>
		<path class="st2" d="M73.55,86.18c-2.94,0-6.06-0.19-8.76,1c-0.94,0.31-2.12,1.05-3.29,1.51c-1.29,0.56-2.79-0.03-3.35-1.33
			c-0.29-0.67-0.27-1.4,0-2.02c1.25-3.2,4.76-5.57,8.21-5.8c2.6-0.24,5.01,0.34,7.17,1.61c1.46,0.84,3.62,2.57,1.97,4.36
			C74.99,86.06,74.23,86.12,73.55,86.18L73.55,86.18z"/>
	</g>
	<g>
		<g>
			<path class="st2" d="M84.92,130.48c2.76,0.55,5.62,0.57,8.37,0c1.33-0.31,2.21,1.46,1.18,2.33c-0.8,0.78-1.8,1.42-2.84,1.7
				c-2.46,0.7-5.29,0.44-7.32-1.22c0,0-0.54-0.47-0.54-0.47C82.71,131.95,83.6,130.18,84.92,130.48L84.92,130.48z"/>
		</g>
	</g>
</g>
<g>
	<circle class="st14" cx="193.61" cy="202.89" r="4.5"/>
</g>
<g>
	<circle class="st14" cx="89.61" cy="184.52" r="3.5"/>
</g>
<g>
	<circle class="st14" cx="165.41" cy="174.39" r="3.5"/>
</g>
<g>
	<circle class="st14" cx="273.8" cy="218.16" r="3.5"/>
</g>
<g>
	<circle class="st14" cx="228.98" cy="206.39" r="3.5"/>
</g>
<g>
	<circle class="st14" cx="193.61" cy="79.89" r="3.5"/>
</g>
<g>
	<path class="st14" d="M239.68,242.03c-2.98,0-5.4-2.42-5.4-5.4c0-0.99-0.81-1.8-1.8-1.8c-0.99,0-1.8,0.81-1.8,1.8
		c0,2.98-2.42,5.4-5.4,5.4c-0.99,0-1.8,0.81-1.8,1.8s0.81,1.8,1.8,1.8c2.98,0,5.4,2.42,5.4,5.4c0,0.99,0.81,1.8,1.8,1.8
		c0.99,0,1.8-0.81,1.8-1.8c0-2.98,2.42-5.4,5.4-5.4c0.99,0,1.8-0.81,1.8-1.8S240.67,242.03,239.68,242.03z"/>
</g>
<g>
	<path class="st14" d="M367.43,200.09c-2.98,0-5.4-2.42-5.4-5.4c0-0.99-0.81-1.8-1.8-1.8c-0.99,0-1.8,0.81-1.8,1.8
		c0,2.98-2.42,5.4-5.4,5.4c-0.99,0-1.8,0.81-1.8,1.8s0.81,1.8,1.8,1.8c2.98,0,5.4,2.42,5.4,5.4c0,0.99,0.81,1.8,1.8,1.8
		c0.99,0,1.8-0.81,1.8-1.8c0-2.98,2.42-5.4,5.4-5.4c0.99,0,1.8-0.81,1.8-1.8S368.42,200.09,367.43,200.09z"/>
</g>
<g>
	<path class="st14" d="M45.91,196.22c0-2.98,2.42-5.4,5.4-5.4c0.99,0,1.8-0.81,1.8-1.8c0-0.99-0.81-1.8-1.8-1.8
		c-2.98,0-5.4-2.42-5.4-5.4c0-0.99-0.81-1.8-1.8-1.8s-1.8,0.81-1.8,1.8c0,2.98-2.42,5.4-5.4,5.4c-0.99,0-1.8,0.81-1.8,1.8
		c0,0.99,0.81,1.8,1.8,1.8c2.98,0,5.4,2.42,5.4,5.4c0,0.99,0.81,1.8,1.8,1.8S45.91,197.22,45.91,196.22z"/>
</g>
<g>
	<circle class="st14" cx="181.11" cy="123.39" r="4.5"/>
</g>
<g>
	<circle class="st14" cx="130.61" cy="189.02" r="4.5"/>
</g>
<g>
	<circle class="st14" cx="314.17" cy="210.89" r="4.5"/>
</g>
<g>
	<circle class="st14" cx="198.61" cy="162.39" r="3.5"/>
</g>
<path class="st14" d="M183.11,27.89h-6v-6c0-1.66-1.34-3-3-3s-3,1.34-3,3v6h-6c-1.66,0-3,1.34-3,3s1.34,3,3,3h6v6c0,1.66,1.34,3,3,3
	s3-1.34,3-3v-6h6c1.66,0,3-1.34,3-3S184.77,27.89,183.11,27.89z"/>
<g>
	<g>
		<rect x="21.11" y="358.16" class="st15" width="60" height="4"/>
	</g>
	<g>
		<g>
			<path class="st7" d="M121.11,381.16c-1.66,0-3-1.34-3-3v-80c0-9.37-7.63-17-17-17s-17,7.63-17,17v80c0,1.66-1.34,3-3,3h-60
				c-1.66,0-3-1.34-3-3v-80c0-45.77,37.23-83,83-83h23c1.66,0,3,1.34,3,3v1.17c15.89,5.25,30.12,15.43,40.26,28.84
				c10.95,14.49,16.74,31.77,16.74,49.99v80c0,1.66-1.34,3-3,3H121.11z"/>
		</g>
		<g>
			<g>
				<path class="st2" d="M124.11,218.16v3.37c32.97,9.88,57,40.44,57,76.63v80h-60v-22.52v-57.48c0-11.05-8.95-20-20-20
					s-20,8.95-20,20v57.48v22.52h-60v-80c0-44.18,35.82-80,80-80H124.11 M124.11,212.16h-23c-47.42,0-86,38.58-86,86v80
					c0,3.31,2.69,6,6,6h60c3.31,0,6-2.69,6-6v-22.52v-57.48c0-7.72,6.28-14,14-14s14,6.28,14,14v57.48v22.52c0,3.31,2.69,6,6,6h60
					c3.31,0,6-2.69,6-6v-80c0-18.87-6-36.78-17.35-51.8c-10.08-13.34-24.07-23.59-39.73-29.2
					C129.55,214.32,127.08,212.16,124.11,212.16L124.11,212.16z"/>
			</g>
		</g>
	</g>
	<g>
		<path class="st16" d="M124.11,221.53v-3.37h-23c-44.18,0-80,35.82-80,80v80h60v-22.52v-57.48c0-11.05,8.95-20,20-20s20,8.95,20,20
			v57.48v22.52h60v-80C181.11,261.97,157.08,231.41,124.11,221.53z"/>
	</g>
	<g>
		<g>
			<path class="st6" d="M121.11,381.16c-1.66,0-3-1.34-3-3v-20c0-1.66,1.34-3,3-3h60c1.66,0,3,1.34,3,3v20c0,1.66-1.34,3-3,3H121.11
				z"/>
		</g>
		<g>
			<g>
				<path class="st2" d="M181.11,358.16v20h-60v-20H181.11 M181.11,352.16h-60c-3.31,0-6,2.69-6,6v20c0,3.31,2.69,6,6,6h60
					c3.31,0,6-2.69,6-6v-20C187.11,354.84,184.42,352.16,181.11,352.16L181.11,352.16z"/>
			</g>
		</g>
	</g>
	<g>
		<g>
			<path class="st6" d="M21.11,381.16c-1.66,0-3-1.34-3-3v-20c0-1.66,1.34-3,3-3h60c1.66,0,3,1.34,3,3v20c0,1.66-1.34,3-3,3H21.11z"
				/>
		</g>
		<g>
			<path class="st2" d="M81.11,358.16v20h-60v-20H81.11 M81.11,352.16h-60c-3.31,0-6,2.69-6,6v20c0,3.31,2.69,6,6,6h60
				c3.31,0,6-2.69,6-6v-20C87.11,354.84,84.42,352.16,81.11,352.16L81.11,352.16z"/>
		</g>
	</g>
	<g>
		<rect x="121.11" y="358.16" class="st17" width="30" height="20"/>
	</g>
	<g>
		<rect x="21.11" y="358.16" class="st17" width="30" height="20"/>
	</g>
	<g>
		<g>
			<path class="st7" d="M144.11,381.16c-1.66,0-3-1.34-3-3v-80c0-9.37-7.63-17-17-17s-17,7.63-17,17v80c0,1.66-1.34,3-3,3h-60
				c-1.66,0-3-1.34-3-3v-80c0-45.77,37.23-83,83-83s83,37.23,83,83v80c0,1.66-1.34,3-3,3H144.11z"/>
		</g>
		<g>
			<g>
				<path class="st2" d="M124.11,218.16c44.18,0,80,35.82,80,80v80h-60v-22.52v-57.48c0-11.05-8.95-20-20-20s-20,8.95-20,20v57.48
					v22.52h-60v-80C44.11,253.97,79.93,218.16,124.11,218.16 M124.11,212.16c-47.42,0-86,38.58-86,86v80c0,3.31,2.69,6,6,6h60
					c3.31,0,6-2.69,6-6v-22.52v-57.48c0-7.72,6.28-14,14-14s14,6.28,14,14v57.48v22.52c0,3.31,2.69,6,6,6h60c3.31,0,6-2.69,6-6v-80
					C210.11,250.74,171.53,212.16,124.11,212.16L124.11,212.16z"/>
			</g>
		</g>
	</g>
	<g>
		<path class="st18" d="M124.11,218.16c-1.01,0-2,0.04-3,0.08c42.79,1.58,77,36.75,77,79.92v80h6v-80
			C204.11,253.97,168.29,218.16,124.11,218.16z"/>
	</g>
	<g>
		<g>
			<path class="st6" d="M144.11,381.16c-1.66,0-3-1.34-3-3v-20c0-1.66,1.34-3,3-3h60c1.66,0,3,1.34,3,3v20c0,1.66-1.34,3-3,3H144.11
				z"/>
		</g>
		<g>
			<path class="st2" d="M204.11,358.16v20h-60v-20H204.11 M204.11,352.16h-60c-3.31,0-6,2.69-6,6v20c0,3.31,2.69,6,6,6h60
				c3.31,0,6-2.69,6-6v-20C210.11,354.84,207.42,352.16,204.11,352.16L204.11,352.16z"/>
		</g>
	</g>
	<g>
		<g>
			<path class="st6" d="M44.11,381.16c-1.66,0-3-1.34-3-3v-20c0-1.66,1.34-3,3-3h60c1.66,0,3,1.34,3,3v20c0,1.66-1.34,3-3,3H44.11z"
				/>
		</g>
		<g>
			<path class="st2" d="M104.11,358.16v20h-60v-20H104.11 M104.11,352.16h-60c-3.31,0-6,2.69-6,6v20c0,3.31,2.69,6,6,6h60
				c3.31,0,6-2.69,6-6v-20C110.11,354.84,107.42,352.16,104.11,352.16L104.11,352.16z"/>
		</g>
	</g>
	<g>
		<rect x="198.11" y="358.16" class="st15" width="6" height="20"/>
	</g>
	<g>
		<g>
			<g>
				<g>
					<path class="st2" d="M130.61,250.53c-0.62,0-1.2-0.39-1.42-1.01c-0.27-0.78,0.15-1.64,0.93-1.91c2.24-0.77,5.74-0.77,7.98,0
						c0.78,0.27,1.2,1.12,0.93,1.91c-0.27,0.78-1.12,1.2-1.91,0.93c-1.6-0.55-4.42-0.55-6.02,0
						C130.94,250.51,130.77,250.53,130.61,250.53z"/>
				</g>
				<g>
					<g>
						<circle class="st2" cx="134.11" cy="242.33" r="6"/>
					</g>
					<g>
						<circle class="st6" cx="135.61" cy="242.33" r="1.5"/>
					</g>
				</g>
				<g>
					<path class="st2" d="M110.61,250.53c-0.62,0-1.2-0.39-1.42-1.01c-0.27-0.78,0.15-1.64,0.93-1.91c2.24-0.77,5.74-0.77,7.98,0
						c0.78,0.27,1.2,1.12,0.93,1.91c-0.27,0.78-1.12,1.2-1.91,0.93c-1.6-0.55-4.42-0.55-6.02,0
						C110.94,250.51,110.77,250.53,110.61,250.53z"/>
				</g>
				<g>
					<g>
						<circle class="st2" cx="114.11" cy="242.33" r="6"/>
					</g>
					<g>
						<circle class="st6" cx="115.61" cy="242.33" r="1.5"/>
					</g>
				</g>
				<g>
					<path class="st2" d="M131.44,228.55c3.9-1.54,9.15-0.14,10.94,3.86c0.62,1.33-0.82,2.82-2.16,2.3c-1.5-0.54-2.7-1.12-4.19-1.58
						c-1.4-0.46-3.26-0.86-4.6-1.43C130.04,231.18,130.07,229.05,131.44,228.55L131.44,228.55z"/>
				</g>
				<g>
					<path class="st2" d="M116.39,231.86c-2.68,0.86-5.41,1.55-8.01,2.71c-0.97,0.49-2.21,0.16-2.58-0.91
						c-0.15-0.42-0.12-0.87,0.04-1.25c1.28-3.03,4.8-4.55,7.91-4.46c1.03,0.03,1.96,0.17,3.03,0.6
						C118.41,229.28,118.05,231.45,116.39,231.86L116.39,231.86z"/>
				</g>
			</g>
		</g>
		<g>
			<g>
				<g>
					<circle class="st16" cx="150.11" cy="250.68" r="2"/>
				</g>
			</g>
			<g>
				<g>
					<circle class="st16" cx="146.11" cy="256.68" r="2"/>
				</g>
			</g>
			<g>
				<g>
					<circle class="st16" cx="154.11" cy="256.68" r="2"/>
				</g>
			</g>
		</g>
		<g>
			<g>
				<g>
					<circle class="st16" cx="98.11" cy="250.68" r="2"/>
				</g>
			</g>
			<g>
				<g>
					<circle class="st16" cx="94.11" cy="256.68" r="2"/>
				</g>
			</g>
			<g>
				<g>
					<circle class="st16" cx="102.11" cy="256.68" r="2"/>
				</g>
			</g>
		</g>
		<g>
			<path class="st2" d="M136.11,252.68L136.11,252.68h-24.01c-2.21,0-4,1.79-4,4c0,8.82,7.18,16,16,16c8.77,0,15.91-7.09,16-15.84
				c0-0.05,0-0.11,0-0.16C140.11,254.47,138.32,252.68,136.11,252.68z"/>
			<g>
				<ellipse class="st7" cx="124.11" cy="264.68" rx="8.93" ry="4"/>
			</g>
		</g>
	</g>
</g>
</svg>
