<?xml version="1.0" encoding="utf-8"?>
<!-- Generator: Adobe Illustrator 26.0.2, SVG Export Plug-In . SVG Version: 6.00 Build 0)  -->
<svg version="1.1" id="Landing_x5F_Page_x5F_Hub-Landing_x5F_Page_x5F_Mistakes"
	 xmlns="http://www.w3.org/2000/svg" xmlns:xlink="http://www.w3.org/1999/xlink" x="0px" y="0px" viewBox="0 0 400 400"
	 style="enable-background:new 0 0 400 400;" xml:space="preserve">
<style type="text/css">
	.st0{fill:#EEECFF;}
	.st1{fill:#DDD9FF;}
	.st2{fill:#CCC6FF;}
	.st3{fill:none;}
	.st4{fill:#FFD886;}
	.st5{fill:#FFFFFF;}
	.st6{fill:#515979;}
	.st7{fill:#7DDF96;}
	.st8{fill:#667683;}
	.st9{fill:#EF7D7D;}
	.st10{fill:#FFE8A0;}
	.st11{fill:#CEEDD9;}
	.st12{fill:#6ADAF7;}
	.st13{fill:#3CC3F7;}
	.st14{fill:#A6E9FA;}
</style>
<g>
	<g>
		<circle class="st0" cx="200" cy="198.37" r="170"/>
	</g>
	<g>
		<circle class="st1" cx="200" cy="198.37" r="140"/>
	</g>
	<g>
		<circle class="st2" cx="200" cy="198.37" r="110"/>
	</g>
</g>
<g>
	<rect class="st3" width="400" height="400"/>
</g>
<g>
	<g>
		<path class="st4" d="M353.51,317.57c2.98,0,5.4-2.42,5.4-5.4c0-0.99,0.81-1.8,1.8-1.8s1.8,0.81,1.8,1.8c0,2.98,2.42,5.4,5.4,5.4
			c0.99,0,1.8,0.81,1.8,1.8s-0.81,1.8-1.8,1.8c-2.98,0-5.4,2.42-5.4,5.4c0,0.99-0.81,1.8-1.8,1.8s-1.8-0.81-1.8-1.8
			c0-2.98-2.42-5.4-5.4-5.4c-0.99,0-1.8-0.81-1.8-1.8S352.52,317.57,353.51,317.57z"/>
	</g>
</g>
<g>
	<g>
		<circle class="st4" cx="227.21" cy="384.58" r="3"/>
	</g>
</g>
<g>
	<g>
		<circle class="st4" cx="158.21" cy="376.75" r="3"/>
	</g>
</g>
<g>
	<g>
		<circle class="st4" cx="351.71" cy="368.37" r="3"/>
	</g>
</g>
<g>
	<g>
		<circle class="st4" cx="383.36" cy="262.62" r="3"/>
	</g>
</g>
<g>
	<g>
		<circle class="st4" cx="19.52" cy="167.87" r="3"/>
	</g>
</g>
<g>
	<g>
		<circle class="st4" cx="41.58" cy="121.15" r="3"/>
	</g>
</g>
<g>
	<g>
		<circle class="st4" cx="124.04" cy="44.45" r="3"/>
	</g>
</g>
<g>
	<g>
		<circle class="st4" cx="155.21" cy="19.99" r="3"/>
	</g>
</g>
<g>
	<g>
		<circle class="st4" cx="47.58" cy="230.37" r="3"/>
	</g>
</g>
<g>
	<circle class="st4" cx="73.78" cy="36.37" r="4"/>
</g>
<g>
	<circle class="st4" cx="281.71" cy="358.79" r="4.5"/>
</g>
<path class="st4" d="M44.58,69.37h-6v-6c0-1.66-1.34-3-3-3s-3,1.34-3,3v6h-6c-1.66,0-3,1.34-3,3s1.34,3,3,3h6v6c0,1.66,1.34,3,3,3
	s3-1.34,3-3v-6h6c1.66,0,3-1.34,3-3S46.24,69.37,44.58,69.37z"/>
<g>
	<g>
		<g>
			<path class="st5" d="M109.71,325.37c-7.17,0-13-5.83-13-13v-226c0-7.17,5.83-13,13-13h180c7.17,0,13,5.83,13,13v226
				c0,7.17-5.83,13-13,13H109.71z"/>
		</g>
		<g>
			<path class="st6" d="M289.71,76.37c5.52,0,10,4.48,10,10v226c0,5.52-4.48,10-10,10h-180c-5.52,0-10-4.48-10-10v-226
				c0-5.52,4.48-10,10-10H289.71 M289.71,70.37h-180c-8.82,0-16,7.18-16,16v226c0,8.82,7.18,16,16,16h180c8.82,0,16-7.18,16-16v-226
				C305.71,77.55,298.53,70.37,289.71,70.37L289.71,70.37z"/>
		</g>
	</g>
	<g>
		<path class="st7" d="M289.71,322.37h-180c-5.52,0-10-4.48-10-10v-54h200v54C299.71,317.89,295.23,322.37,289.71,322.37z"/>
	</g>
	<g>
		<rect x="99.71" y="110.37" class="st7" width="200" height="76"/>
	</g>
	<g>
		<g>
			<path class="st8" d="M99.71,107.37c-1.66,0-3-1.34-3-3v-18c0-7.17,5.83-13,13-13h180c7.17,0,13,5.83,13,13v18c0,1.66-1.34,3-3,3
				H99.71z"/>
		</g>
		<g>
			<path class="st6" d="M289.71,76.37c5.52,0,10,4.48,10,10v18h-200v-18c0-5.52,4.48-10,10-10H289.71 M289.71,70.37h-180
				c-8.82,0-16,7.18-16,16v18c0,3.31,2.69,6,6,6h200c3.31,0,6-2.69,6-6v-18C305.71,77.55,298.53,70.37,289.71,70.37L289.71,70.37z"
				/>
		</g>
	</g>
	<g>
		<g>
			<path class="st5" d="M189.71,97.37c-3.86,0-7-3.14-7-7s3.14-7,7-7h94c3.86,0,7,3.14,7,7s-3.14,7-7,7H189.71z"/>
		</g>
		<g>
			<g>
				<path class="st6" d="M283.71,86.37c2.21,0,4,1.79,4,4s-1.79,4-4,4h-94c-2.21,0-4-1.79-4-4s1.79-4,4-4H283.71 M283.71,80.37h-94
					c-5.51,0-10,4.49-10,10s4.49,10,10,10h94c5.51,0,10-4.49,10-10S289.22,80.37,283.71,80.37L283.71,80.37z"/>
			</g>
		</g>
	</g>
	<g>
		<g>
			<circle class="st9" cx="115.71" cy="90.37" r="7"/>
		</g>
		<g>
			<g>
				<path class="st6" d="M115.71,86.37c2.21,0,4,1.79,4,4c0,2.21-1.79,4-4,4c-2.21,0-4-1.79-4-4
					C111.71,88.16,113.5,86.37,115.71,86.37 M115.71,80.37c-5.51,0-10,4.49-10,10s4.49,10,10,10s10-4.49,10-10
					S121.22,80.37,115.71,80.37L115.71,80.37z"/>
			</g>
		</g>
	</g>
	<g>
		<g>
			<circle class="st10" cx="139.71" cy="90.37" r="7"/>
		</g>
		<g>
			<g>
				<path class="st6" d="M139.71,86.37c2.21,0,4,1.79,4,4c0,2.21-1.79,4-4,4s-4-1.79-4-4C135.71,88.16,137.5,86.37,139.71,86.37
					 M139.71,80.37c-5.51,0-10,4.49-10,10s4.49,10,10,10s10-4.49,10-10S145.22,80.37,139.71,80.37L139.71,80.37z"/>
			</g>
		</g>
	</g>
	<g>
		<g>
			<circle class="st7" cx="163.71" cy="90.37" r="7"/>
		</g>
		<g>
			<g>
				<path class="st6" d="M163.71,86.37c2.21,0,4,1.79,4,4c0,2.21-1.79,4-4,4s-4-1.79-4-4C159.71,88.16,161.5,86.37,163.71,86.37
					 M163.71,80.37c-5.51,0-10,4.49-10,10s4.49,10,10,10s10-4.49,10-10S169.22,80.37,163.71,80.37L163.71,80.37z"/>
			</g>
		</g>
	</g>
	<g>
		<rect x="99.71" y="185.37" class="st11" width="200" height="74"/>
	</g>
	<g>
		<g>
			<path class="st5" d="M118.71,244.37h42c2.21,0,4-1.79,4-4v-36c0-2.21-1.79-4-4-4h-42c-2.21,0-4,1.79-4,4v36
				C114.71,242.58,116.5,244.37,118.71,244.37z"/>
		</g>
		<g>
			<circle class="st11" cx="126.71" cy="212.37" r="6"/>
		</g>
		<g>
			<path class="st7" d="M156.71,226.37h-34c-1.1,0-2-0.9-2-2l0,0c0-1.1,0.9-2,2-2h34c1.1,0,2,0.9,2,2l0,0
				C158.71,225.48,157.81,226.37,156.71,226.37z"/>
		</g>
		<g>
			<path class="st7" d="M142.71,234.37h-20c-1.1,0-2-0.9-2-2l0,0c0-1.1,0.9-2,2-2h20c1.1,0,2,0.9,2,2l0,0
				C144.71,233.48,143.81,234.37,142.71,234.37z"/>
		</g>
	</g>
	<g>
		<g>
			<path class="st5" d="M238.71,244.37h42c2.21,0,4-1.79,4-4v-36c0-2.21-1.79-4-4-4h-42c-2.21,0-4,1.79-4,4v36
				C234.71,242.58,236.5,244.37,238.71,244.37z"/>
		</g>
		<g>
			<circle class="st11" cx="246.71" cy="212.37" r="6"/>
		</g>
		<g>
			<path class="st7" d="M276.71,226.37h-34c-1.1,0-2-0.9-2-2l0,0c0-1.1,0.9-2,2-2h34c1.1,0,2,0.9,2,2l0,0
				C278.71,225.48,277.81,226.37,276.71,226.37z"/>
		</g>
		<g>
			<path class="st7" d="M254.71,234.37h-12c-1.1,0-2-0.9-2-2l0,0c0-1.1,0.9-2,2-2h12c1.1,0,2,0.9,2,2l0,0
				C256.71,233.48,255.81,234.37,254.71,234.37z"/>
		</g>
	</g>
	<g>
		<g>
			<path class="st5" d="M178.71,244.37h42c2.21,0,4-1.79,4-4v-36c0-2.21-1.79-4-4-4h-42c-2.21,0-4,1.79-4,4v36
				C174.71,242.58,176.5,244.37,178.71,244.37z"/>
		</g>
		<g>
			<circle class="st11" cx="186.71" cy="212.37" r="6"/>
		</g>
		<g>
			<path class="st7" d="M216.71,226.37h-34c-1.1,0-2-0.9-2-2l0,0c0-1.1,0.9-2,2-2h34c1.1,0,2,0.9,2,2l0,0
				C218.71,225.48,217.81,226.37,216.71,226.37z"/>
		</g>
		<g>
			<path class="st7" d="M208.71,234.37h-26c-1.1,0-2-0.9-2-2l0,0c0-1.1,0.9-2,2-2h26c1.1,0,2,0.9,2,2l0,0
				C210.71,233.48,209.81,234.37,208.71,234.37z"/>
		</g>
	</g>
	<g>
		<circle class="st11" cx="139.71" cy="292.37" r="24"/>
	</g>
	<g>
		<circle class="st11" cx="199.71" cy="292.37" r="24"/>
	</g>
	<g>
		<circle class="st11" cx="259.71" cy="292.37" r="24"/>
	</g>
</g>
<g>
	<g>
		<g>
			<path class="st12" d="M228.53,158.78c-1.42,0-2.84-0.59-3.87-1.63c-1.56-1.56-2.69-6.07-3.1-7.94c-0.15-0.67,0.06-1.36,0.54-1.85
				c0.38-0.38,0.89-0.59,1.41-0.59c0.14,0,0.29,0.02,0.43,0.05c1.87,0.41,6.38,1.54,7.94,3.1c0.99,0.99,1.57,2.29,1.62,3.66
				c0.06,1.43-0.46,2.76-1.44,3.75C231.13,158.27,229.88,158.78,228.53,158.78L228.53,158.78z"/>
		</g>
		<g>
			<path class="st6" d="M223.51,148.78c0,0,5.64,1.25,6.96,2.56s1.4,3.36,0.18,4.58c-0.57,0.57-1.34,0.86-2.12,0.86
				c-0.87,0-1.77-0.35-2.46-1.04C224.76,154.43,223.51,148.78,223.51,148.78 M223.51,144.78c-1.05,0-2.07,0.41-2.83,1.17
				c-0.97,0.97-1.37,2.36-1.08,3.69c0.68,3.09,1.87,7.15,3.64,8.92c1.41,1.41,3.33,2.21,5.29,2.21c1.88,0,3.64-0.72,4.95-2.03
				c2.77-2.77,2.69-7.36-0.18-10.23c-1.77-1.77-5.83-2.96-8.92-3.64C224.09,144.81,223.8,144.78,223.51,144.78L223.51,144.78z"/>
		</g>
	</g>
	<g>
		<g>
			<g>
				<path class="st12" d="M170.49,158.78c-1.35,0-2.6-0.51-3.54-1.45c-0.99-0.99-1.5-2.32-1.44-3.74c0.05-1.37,0.63-2.67,1.62-3.66
					c1.56-1.56,6.07-2.69,7.94-3.1c0.14-0.03,0.29-0.05,0.43-0.05c0.52,0,1.04,0.21,1.41,0.59c0.48,0.48,0.69,1.18,0.54,1.85
					c-0.41,1.87-1.54,6.38-3.1,7.94C173.33,158.19,171.92,158.78,170.49,158.78z"/>
			</g>
			<g>
				<path class="st6" d="M175.51,148.78c0,0-1.25,5.64-2.56,6.96c-0.69,0.69-1.59,1.04-2.46,1.04c-0.78,0-1.55-0.28-2.12-0.86
					c-1.21-1.21-1.13-3.26,0.18-4.58S175.51,148.78,175.51,148.78 M175.51,144.78c-0.29,0-0.58,0.03-0.86,0.09
					c-3.09,0.68-7.15,1.87-8.92,3.64c-1.35,1.35-2.13,3.12-2.21,5c-0.08,1.96,0.66,3.87,2.02,5.24c1.31,1.31,3.07,2.03,4.95,2.03
					c1.95,0,3.88-0.81,5.29-2.21c1.77-1.77,2.96-5.83,3.64-8.92c0.3-1.33-0.11-2.73-1.08-3.69
					C177.58,145.2,176.56,144.78,175.51,144.78L175.51,144.78z M175.51,152.78L175.51,152.78L175.51,152.78L175.51,152.78z"/>
			</g>
		</g>
	</g>
	<g>
		<g>
			<g>
				<path class="st6" d="M217.51,146.01c-1.38,0-2.5-1.12-2.5-2.5c0-1.38-1.12-2.5-2.5-2.5s-2.5,1.12-2.5,2.5
					c0,1.38-1.12,2.5-2.5,2.5s-2.5-1.12-2.5-2.5c0-4.14,3.36-7.5,7.5-7.5s7.5,3.36,7.5,7.5
					C220.01,144.89,218.89,146.01,217.51,146.01z"/>
			</g>
		</g>
		<g>
			<path class="st6" d="M209.34,127.74c3.88-1.96,9.09-1.1,11.87,2.37c1.42,1.7,3.01,5.58-0.05,6.26c-0.76,0.12-1.39-0.25-1.92-0.71
				c-2.27-2.11-4.59-3.2-7.62-3.72c-0.73-0.14-1.45-0.3-2.09-0.59C207.93,130.81,207.83,128.43,209.34,127.74L209.34,127.74z"/>
		</g>
		<g>
			<g>
				<path class="st6" d="M191.51,146.01c-1.38,0-2.5-1.12-2.5-2.5c0-1.38-1.12-2.5-2.5-2.5s-2.5,1.12-2.5,2.5
					c0,1.38-1.12,2.5-2.5,2.5s-2.5-1.12-2.5-2.5c0-4.14,3.36-7.5,7.5-7.5s7.5,3.36,7.5,7.5
					C194.01,144.89,192.89,146.01,191.51,146.01z"/>
			</g>
		</g>
		<g>
			<path class="st6" d="M188.76,131.63c-1.59,0.4-3.56,0.69-5.03,1.36c-1.59,0.65-2.54,1.49-3.95,2.67
				c-0.91,0.92-2.43,1.02-3.26-0.06c-0.35-0.45-0.48-1.01-0.41-1.53c0.19-1.37,0.71-2.79,1.7-3.96c2.29-2.91,6.42-3.97,9.89-3.11
				c1.6,0.36,3.8,1.32,2.86,3.39C190.23,131.13,189.44,131.39,188.76,131.63L188.76,131.63z"/>
		</g>
	</g>
	<g>
		<path class="st6" d="M199.51,146.71c-4.27,0-8.29,1.66-11.31,4.69c-3.02,3.02-4.69,7.04-4.69,11.31c0,2.21,1.79,4,4,4h24
			c2.21,0,4-1.79,4-4C215.51,153.88,208.33,146.71,199.51,146.71z"/>
		<g>
			<path class="st9" d="M199.51,157.71c-3.58,0-6.78,1.94-9,5h18C206.3,159.64,203.09,157.71,199.51,157.71z"/>
		</g>
	</g>
</g>
<g>
	<g>
		<g>
			<path class="st12" d="M138.86,300.61c-11.29,0-21.21-7.62-24.13-18.54c-3.57-13.31,4.36-27.05,17.68-30.62l77.27-20.71
				c2.12-0.57,4.3-0.86,6.48-0.86c11.29,0,21.21,7.62,24.13,18.54c3.57,13.31-4.36,27.05-17.68,30.62l-77.27,20.71
				C143.22,300.32,141.04,300.61,138.86,300.61z"/>
		</g>
		<g>
			<g>
				<path class="st6" d="M216.16,232.89c9.71,0,18.6,6.48,21.24,16.31l0,0c3.14,11.74-3.82,23.8-15.56,26.94l-77.27,20.71
					c-1.91,0.51-3.82,0.76-5.71,0.76c-9.71,0-18.6-6.48-21.24-16.31l0,0c-3.14-11.74,3.82-23.8,15.56-26.94l77.27-20.71
					C212.36,233.13,214.28,232.89,216.16,232.89 M216.16,226.89C216.16,226.89,216.16,226.89,216.16,226.89
					c-2.44,0-4.89,0.32-7.26,0.96l-77.27,20.71c-7.22,1.94-13.26,6.57-17,13.05c-3.74,6.48-4.73,14.02-2.8,21.25
					c3.27,12.22,14.39,20.76,27.03,20.76c2.44,0,4.88-0.32,7.26-0.96l77.27-20.71c7.22-1.94,13.26-6.57,17-13.05
					c3.74-6.48,4.73-14.02,2.8-21.25C239.92,235.43,228.8,226.89,216.16,226.89L216.16,226.89z"/>
			</g>
		</g>
	</g>
	<g>
		<circle class="st13" cx="125.35" cy="279.22" r="3"/>
	</g>
	<g>
		<circle class="st13" cx="134.25" cy="289.26" r="3"/>
	</g>
	<g>
		<circle class="st13" cx="128.04" cy="266.08" r="3"/>
	</g>
	<g>
		<circle class="st13" cx="136.94" cy="276.12" r="3"/>
	</g>
	<g>
		<circle class="st13" cx="148.53" cy="273.01" r="3"/>
	</g>
	<g>
		<circle class="st13" cx="145.84" cy="286.16" r="3"/>
	</g>
	<g>
		<circle class="st13" cx="139.63" cy="262.97" r="3"/>
	</g>
	<g>
		<circle class="st13" cx="157.43" cy="283.05" r="3"/>
	</g>
	<g>
		<circle class="st13" cx="151.22" cy="259.87" r="3"/>
	</g>
	<g>
		<circle class="st13" cx="229.67" cy="251.27" r="3"/>
	</g>
	<g>
		<circle class="st13" cx="220.77" cy="241.23" r="3"/>
	</g>
	<g>
		<circle class="st13" cx="226.98" cy="264.42" r="3"/>
	</g>
	<g>
		<circle class="st13" cx="218.08" cy="254.38" r="3"/>
	</g>
	<g>
		<circle class="st13" cx="206.49" cy="257.48" r="3"/>
	</g>
	<g>
		<circle class="st13" cx="209.18" cy="244.34" r="3"/>
	</g>
	<g>
		<circle class="st13" cx="215.39" cy="267.52" r="3"/>
	</g>
	<g>
		<circle class="st13" cx="197.59" cy="247.44" r="3"/>
	</g>
	<g>
		<circle class="st13" cx="203.8" cy="270.63" r="3"/>
	</g>
	<g>
		<path class="st14" d="M192.79,279.79l-21.25,5.69c-3.2,0.86-6.49-1.04-7.35-4.24l-6.21-23.18c-0.86-3.2,1.04-6.49,4.24-7.35
			l21.25-5.69c3.2-0.86,6.49,1.04,7.35,4.24l6.21,23.18C197.89,275.64,196,278.93,192.79,279.79z"/>
	</g>
	<g>
		<g>
			<path class="st6" d="M180.62,267.28c-0.88,0-1.69-0.59-1.93-1.48c-0.71-2.66,0.87-5.41,3.54-6.12c2.66-0.71,5.41,0.87,6.12,3.54
				c0.29,1.07-0.35,2.16-1.41,2.45c-1.07,0.29-2.16-0.35-2.45-1.41c-0.09-0.35-0.33-0.53-0.47-0.61c-0.13-0.08-0.41-0.19-0.76-0.1
				c-0.53,0.14-0.85,0.69-0.71,1.22c0.29,1.07-0.35,2.16-1.41,2.45C180.97,267.26,180.79,267.28,180.62,267.28z"/>
		</g>
		<g>
			<path class="st6" d="M169.03,270.38c-0.88,0-1.69-0.59-1.93-1.48c-0.71-2.66,0.87-5.41,3.54-6.12c2.66-0.72,5.41,0.87,6.12,3.53
				c0.29,1.07-0.35,2.16-1.41,2.45c-1.06,0.29-2.16-0.35-2.45-1.41c-0.14-0.53-0.69-0.85-1.23-0.71c-0.53,0.14-0.85,0.69-0.71,1.23
				c0.29,1.07-0.35,2.16-1.41,2.45C169.38,270.36,169.2,270.38,169.03,270.38z"/>
		</g>
		<g>
			<path class="st6" d="M173.52,277.46c-0.43,0-0.87-0.14-1.24-0.43c-0.87-0.69-1.01-1.94-0.33-2.81c1.6-2.03,4.02-3.56,6.81-4.31
				c2.79-0.75,5.65-0.63,8.05,0.32c1.03,0.41,1.53,1.57,1.12,2.6c-0.41,1.03-1.57,1.53-2.6,1.12c-1.58-0.63-3.6-0.69-5.54-0.18
				c-1.93,0.52-3.65,1.58-4.71,2.92C174.69,277.2,174.11,277.46,173.52,277.46z"/>
		</g>
		<g>
			<path class="st6" d="M172.71,259.77c-1.99,1.33-4.23,2.17-6.59,2.48c-1.57,0.34-2.88-1.11-2.11-2.58
				c1.75-2.76,5.32-4.08,8.45-3.22C173.97,256.96,174.07,259.01,172.71,259.77L172.71,259.77z"/>
		</g>
		<g>
			<path class="st6" d="M185.88,256.96c-2.2,0.91-4.56,1.31-6.95,1.15c-1.57,0.02-2.5-1.81-1.44-3c2.27-2.31,6.03-2.96,8.92-1.44
				C187.82,254.56,187.4,256.47,185.88,256.96L185.88,256.96z"/>
		</g>
	</g>
</g>
</svg>
