<?xml version="1.0" encoding="utf-8"?>
<!-- Generator: Adobe Illustrator 26.0.3, SVG Export Plug-In . SVG Version: 6.00 Build 0)  -->
<svg version="1.1" id="Mobile_00000069386100806448118510000001095930312623511181_"
	 xmlns="http://www.w3.org/2000/svg" xmlns:xlink="http://www.w3.org/1999/xlink" x="0px" y="0px" viewBox="0 0 375 375"
	 style="enable-background:new 0 0 375 375;" xml:space="preserve">
<style type="text/css">
	.st0{fill:none;}
	.st1{fill:#0CAA41;}
	.st2{fill:#515979;}
	.st3{fill:#EF7D7D;}
	.st4{fill:#F29797;}
	.st5{fill:#FFFFFF;}
	.st6{fill:#FFD886;}
</style>
<rect class="st0" width="375" height="375"/>
<g>
	<g>
		<g id="wordmark_00000002367848560279598620000002899012782515417267_">
			<path class="st1" d="M42.69,320.3h-4.6c-0.28,0-0.49,0.21-0.49,0.49v2.44c-1.18-1.88-3.55-3.41-6.76-3.41
				c-5.16,0-9.61,3.9-9.61,10.8s4.25,10.73,9.82,10.73c3,0,5.36-1.25,6.69-3.2v1.32c0,3-1.46,5.36-6.13,5.36
				c-2.37,0-4.25-0.77-5.85-2.23c-0.21-0.21-0.56-0.14-0.7,0.07l-2.09,3.48c-0.28,0.42-0.21,0.7-0.07,0.84c2.16,1.88,4.88,3,8.92,3
				c8.78,0,11.36-4.88,11.36-10.24v-19.02C43.17,320.51,42.96,320.3,42.69,320.3z M32.37,336.33c-3.14,0-5.43-2.23-5.43-5.57
				s2.3-5.57,5.43-5.57c3.14,0,5.43,2.16,5.43,5.57C37.81,334.17,35.51,336.33,32.37,336.33z M53.21,312.5v28.22
				c0,0.28-0.21,0.49-0.49,0.49h-4.6c-0.28,0-0.49-0.21-0.49-0.49V312.5c0-0.28,0.21-0.49,0.49-0.49h4.6
				C53,312.01,53.21,312.22,53.21,312.5z M66.86,319.88c-4.39,0-7.66,1.46-9.13,4.32c-0.07,0.21,0,0.49,0.14,0.56l3.34,2.37
				c0.21,0.14,0.49,0.07,0.63-0.14c0.91-1.67,3-2.23,5.02-2.23c2.44,0,3.62,0.91,3.62,2.09v0.35c0,0.49-0.28,0.77-1.11,0.84
				l-5.71,0.49c-3.83,0.35-6.69,2.72-6.69,6.55c0,3.83,2.93,6.48,7.04,6.48c3.27,0,5.36-1.6,6.41-3.27v2.37
				c0,0.28,0.21,0.49,0.49,0.49h4.6c0.28,0,0.49-0.21,0.49-0.49v-12.4C75.99,322.53,72.92,319.88,66.86,319.88z M70.48,332.77
				c0,2.3-1.88,4.32-4.81,4.32c-1.95,0-2.93-0.91-2.93-2.23c0-1.18,0.91-2.02,2.58-2.3l5.16-0.63V332.77z M97.86,334.86
				c0,4.74-3.48,6.76-8.99,6.76c-3.83,0-7.11-1.05-8.99-3.14c-0.14-0.14-0.14-0.42,0-0.63l2.65-3.41c0.14-0.21,0.49-0.21,0.7,0
				c1.39,1.46,3.55,2.3,6.2,2.3c1.53,0,2.79-0.42,2.79-1.6c0-1.11-1.11-1.39-4.6-2.16c-3.07-0.63-6.9-2.02-6.9-6.55
				c0-4.18,3.34-6.62,8.78-6.62c3.62,0,6.2,1.11,8.01,2.79c0.21,0.14,0.21,0.42,0.07,0.63l-2.51,3.27
				c-0.14,0.21-0.49,0.28-0.63,0.07c-1.25-1.11-3.27-1.81-5.29-1.81c-1.74,0-2.65,0.56-2.65,1.46c0,1.05,1.11,1.32,4.81,2.09
				C94.8,329.15,97.86,330.47,97.86,334.86z M119.04,334.86c0,4.74-3.48,6.76-8.99,6.76c-3.83,0-7.11-1.05-8.99-3.14
				c-0.14-0.14-0.14-0.42,0-0.63l2.65-3.41c0.14-0.21,0.49-0.21,0.7,0c1.39,1.46,3.55,2.3,6.2,2.3c1.53,0,2.79-0.42,2.79-1.6
				c0-1.11-1.11-1.39-4.6-2.16c-3.07-0.63-6.9-2.02-6.9-6.55c0-4.18,3.34-6.62,8.78-6.62c3.62,0,6.2,1.11,8.01,2.79
				c0.21,0.14,0.21,0.42,0.07,0.63l-2.51,3.27c-0.14,0.21-0.49,0.28-0.63,0.07c-1.25-1.11-3.27-1.81-5.29-1.81
				c-1.74,0-2.65,0.56-2.65,1.46c0,1.05,1.11,1.32,4.81,2.09C115.98,329.15,119.04,330.47,119.04,334.86z M143.5,312.01h-4.6
				c-0.28,0-0.49,0.21-0.49,0.49v10.87c-1.39-2.02-3.76-3.55-6.97-3.55c-5.09,0-9.41,3.9-9.41,10.94s4.32,10.94,9.48,10.94
				c3.07,0,5.43-1.32,6.9-3.48v2.44c0,0.28,0.21,0.49,0.49,0.49h4.6c0.28,0,0.49-0.21,0.49-0.49v-28.22
				C143.99,312.22,143.78,312.01,143.5,312.01z M133.19,336.33c-3.14,0-5.43-2.23-5.43-5.57s2.3-5.57,5.43-5.57
				c3.07,0,5.43,2.16,5.43,5.57C138.62,334.17,136.25,336.33,133.19,336.33z M158.55,319.82c-6.41,0-11.22,4.39-11.22,10.94
				c0,6.48,4.81,10.94,11.22,10.94s11.22-4.39,11.22-10.94C169.76,324.27,165.03,319.82,158.55,319.82z M158.55,336.26
				c-3.14,0-5.57-2.23-5.57-5.57s2.44-5.57,5.57-5.57s5.57,2.23,5.57,5.57C164.12,334.1,161.68,336.26,158.55,336.26z
				 M184.05,319.82c-6.41,0-11.22,4.39-11.22,10.94c0,6.48,4.81,10.94,11.22,10.94s11.22-4.39,11.22-10.94
				C195.26,324.27,190.46,319.82,184.05,319.82z M184.05,336.26c-3.14,0-5.57-2.23-5.57-5.57s2.44-5.57,5.57-5.57
				s5.57,2.23,5.57,5.57C189.55,334.1,187.18,336.26,184.05,336.26z M213.24,320.79c0-0.21-0.14-0.42-0.35-0.56
				c-0.42-0.21-1.05-0.35-2.37-0.35c-2.93,0-5.5,1.46-6.62,3.83v-2.93c0-0.28-0.21-0.49-0.49-0.49h-4.39
				c-0.28,0-0.49,0.21-0.49,0.49v19.93c0,0.28,0.21,0.49,0.49,0.49h4.6c0.28,0,0.49-0.21,0.49-0.49v-8.92
				c0-3.97,2.79-5.99,6.41-5.99c0.84,0,1.67,0.21,2.09,0.35c0.28,0.07,0.56-0.14,0.56-0.42L213.24,320.79z"/>
		</g>
		<g id="icon_00000176761801455549926100000001534982583642575025_">
			<path class="st1" d="M136.46,199.98c7.04,0,12.82,5.71,12.82,12.82l0,0H98.07v52.53c0,0.28-0.21,0.49-0.49,0.49H85.74
				c-0.28,0-0.49-0.21-0.49-0.49V212.8l0,0c0-7.04,5.71-12.82,12.82-12.82l0,0H136.46z M136.46,276.83H85.25l0,0
				c0,7.04,5.71,12.82,12.82,12.82h38.39l0,0c7.04,0,12.82-5.71,12.82-12.82l0,0v-52.6c0-0.28-0.21-0.49-0.49-0.49h-11.84
				c-0.28,0-0.49,0.21-0.49,0.49V276.83L136.46,276.83z"/>
		</g>
	</g>
	<g>
		<g>
			<path class="st1" d="M150.57,287.93v0.27h-0.5v1.31h-0.36v-1.31h-0.5v-0.27H150.57z M151.66,288.83c0,0.05,0,0.05,0.05,0.09
				c0,0.05,0,0.05,0.05,0.09c0-0.05,0-0.05,0.05-0.09c0,0,0-0.05,0.05-0.09l0.45-0.82c0-0.05,0.05-0.05,0.05-0.05h0.05h0.27v1.63
				h-0.32v-1.04l0.05-0.23l-0.5,0.91c-0.05,0.05-0.05,0.09-0.14,0.09h-0.05c-0.05,0-0.09-0.05-0.14-0.09l-0.5-0.91v0.18v1h-0.32
				v-1.63h0.27c0.05,0,0.05,0,0.05,0l0.05,0.05L151.66,288.83z"/>
		</g>
	</g>
</g>
<g>
	<g>
		<g id="wordmark_00000042004371227809805100000017896215170025845632_">
			<path class="st1" d="M185.86,139.21h-4.6c-0.28,0-0.49,0.21-0.49,0.49v2.44c-1.18-1.88-3.55-3.41-6.76-3.41
				c-5.16,0-9.61,3.9-9.61,10.8c0,6.9,4.25,10.73,9.82,10.73c3,0,5.36-1.25,6.69-3.2v1.32c0,3-1.46,5.36-6.13,5.36
				c-2.37,0-4.25-0.77-5.85-2.23c-0.21-0.21-0.56-0.14-0.7,0.07l-2.09,3.48c-0.28,0.42-0.21,0.7-0.07,0.84c2.16,1.88,4.88,3,8.92,3
				c8.78,0,11.36-4.88,11.36-10.24v-19.02C186.34,139.42,186.13,139.21,185.86,139.21z M175.54,155.23c-3.14,0-5.43-2.23-5.43-5.57
				s2.3-5.57,5.43-5.57s5.43,2.16,5.43,5.57S178.68,155.23,175.54,155.23z M196.38,131.41v28.22c0,0.28-0.21,0.49-0.49,0.49h-4.6
				c-0.28,0-0.49-0.21-0.49-0.49v-28.22c0-0.28,0.21-0.49,0.49-0.49h4.6C196.17,130.92,196.38,131.13,196.38,131.41z M210.03,138.79
				c-4.39,0-7.66,1.46-9.13,4.32c-0.07,0.21,0,0.49,0.14,0.56l3.34,2.37c0.21,0.14,0.49,0.07,0.63-0.14c0.91-1.67,3-2.23,5.02-2.23
				c2.44,0,3.62,0.91,3.62,2.09v0.35c0,0.49-0.28,0.77-1.11,0.84l-5.71,0.49c-3.83,0.35-6.69,2.72-6.69,6.55s2.93,6.48,7.04,6.48
				c3.27,0,5.36-1.6,6.41-3.27v2.37c0,0.28,0.21,0.49,0.49,0.49h4.6c0.28,0,0.49-0.21,0.49-0.49v-12.4
				C219.16,141.44,216.09,138.79,210.03,138.79z M213.65,151.68c0,2.3-1.88,4.32-4.81,4.32c-1.95,0-2.93-0.91-2.93-2.23
				c0-1.18,0.91-2.02,2.58-2.3l5.16-0.63V151.68z M241.03,153.77c0,4.74-3.48,6.76-8.99,6.76c-3.83,0-7.11-1.05-8.99-3.14
				c-0.14-0.14-0.14-0.42,0-0.63l2.65-3.41c0.14-0.21,0.49-0.21,0.7,0c1.39,1.46,3.55,2.3,6.2,2.3c1.53,0,2.79-0.42,2.79-1.6
				c0-1.11-1.11-1.39-4.6-2.16c-3.07-0.63-6.9-2.02-6.9-6.55c0-4.18,3.34-6.62,8.78-6.62c3.62,0,6.2,1.11,8.01,2.79
				c0.21,0.14,0.21,0.42,0.07,0.63l-2.51,3.27c-0.14,0.21-0.49,0.28-0.63,0.07c-1.25-1.11-3.27-1.81-5.29-1.81
				c-1.74,0-2.65,0.56-2.65,1.46c0,1.05,1.11,1.32,4.81,2.09C237.97,148.06,241.03,149.38,241.03,153.77z M262.21,153.77
				c0,4.74-3.48,6.76-8.99,6.76c-3.83,0-7.11-1.05-8.99-3.14c-0.14-0.14-0.14-0.42,0-0.63l2.65-3.41c0.14-0.21,0.49-0.21,0.7,0
				c1.39,1.46,3.55,2.3,6.2,2.3c1.53,0,2.79-0.42,2.79-1.6c0-1.11-1.11-1.39-4.6-2.16c-3.07-0.63-6.9-2.02-6.9-6.55
				c0-4.18,3.34-6.62,8.78-6.62c3.62,0,6.2,1.11,8.01,2.79c0.21,0.14,0.21,0.42,0.07,0.63l-2.51,3.27
				c-0.14,0.21-0.49,0.28-0.63,0.07c-1.25-1.11-3.27-1.81-5.29-1.81c-1.74,0-2.65,0.56-2.65,1.46c0,1.05,1.11,1.32,4.81,2.09
				C259.15,148.06,262.21,149.38,262.21,153.77z M286.67,130.92h-4.6c-0.28,0-0.49,0.21-0.49,0.49v10.87
				c-1.39-2.02-3.76-3.55-6.97-3.55c-5.09,0-9.41,3.9-9.41,10.94c0,7.04,4.32,10.94,9.48,10.94c3.07,0,5.43-1.32,6.9-3.48v2.44
				c0,0.28,0.21,0.49,0.49,0.49h4.6c0.28,0,0.49-0.21,0.49-0.49v-28.22C287.16,131.13,286.95,130.92,286.67,130.92z M276.36,155.23
				c-3.14,0-5.43-2.23-5.43-5.57s2.3-5.57,5.43-5.57c3.07,0,5.43,2.16,5.43,5.57S279.42,155.23,276.36,155.23z M301.72,138.72
				c-6.41,0-11.22,4.39-11.22,10.94c0,6.48,4.81,10.94,11.22,10.94s11.22-4.39,11.22-10.94
				C312.93,143.18,308.2,138.72,301.72,138.72z M301.72,155.16c-3.14,0-5.57-2.23-5.57-5.57c0-3.34,2.44-5.57,5.57-5.57
				s5.57,2.23,5.57,5.57C307.29,153,304.85,155.16,301.72,155.16z M327.22,138.72c-6.41,0-11.22,4.39-11.22,10.94
				c0,6.48,4.81,10.94,11.22,10.94c6.41,0,11.22-4.39,11.22-10.94C338.43,143.18,333.63,138.72,327.22,138.72z M327.22,155.16
				c-3.14,0-5.57-2.23-5.57-5.57c0-3.34,2.44-5.57,5.57-5.57c3.14,0,5.57,2.23,5.57,5.57C332.72,153,330.35,155.16,327.22,155.16z
				 M356.41,139.7c0-0.21-0.14-0.42-0.35-0.56c-0.42-0.21-1.05-0.35-2.37-0.35c-2.93,0-5.5,1.46-6.62,3.83v-2.93
				c0-0.28-0.21-0.49-0.49-0.49h-4.39c-0.28,0-0.49,0.21-0.49,0.49v19.93c0,0.28,0.21,0.49,0.49,0.49h4.6
				c0.28,0,0.49-0.21,0.49-0.49v-8.92c0-3.97,2.79-5.99,6.41-5.99c0.84,0,1.67,0.21,2.09,0.35c0.28,0.07,0.56-0.14,0.56-0.42
				L356.41,139.7z"/>
		</g>
		<g id="icon_00000095308623125310180330000006821687785403564426_">
			<path class="st1" d="M279.63,18.89c7.04,0,12.82,5.71,12.82,12.82l0,0h-51.21v52.53c0,0.28-0.21,0.49-0.49,0.49h-11.84
				c-0.28,0-0.49-0.21-0.49-0.49V31.71l0,0c0-7.04,5.71-12.82,12.82-12.82l0,0L279.63,18.89z M279.63,95.73h-51.21l0,0
				c0,7.04,5.71,12.82,12.82,12.82h38.39l0,0c7.04,0,12.82-5.71,12.82-12.82l0,0v-52.6c0-0.28-0.21-0.49-0.49-0.49h-11.84
				c-0.28,0-0.49,0.21-0.49,0.49L279.63,95.73L279.63,95.73z"/>
		</g>
	</g>
	<g>
		<g>
			<path class="st1" d="M293.74,106.83v0.27h-0.5v1.31h-0.36v-1.31h-0.5v-0.27H293.74z M294.83,107.74c0,0.05,0,0.05,0.05,0.09
				c0,0.05,0,0.05,0.05,0.09c0-0.05,0-0.05,0.05-0.09c0,0,0-0.05,0.05-0.09l0.45-0.82c0-0.05,0.05-0.05,0.05-0.05h0.05h0.27v1.63
				h-0.32v-1.04l0.05-0.23l-0.5,0.91c-0.05,0.05-0.05,0.09-0.14,0.09h-0.05c-0.05,0-0.09-0.05-0.14-0.09l-0.5-0.91v0.18v1h-0.32
				v-1.63h0.27c0.05,0,0.05,0,0.05,0l0.05,0.05L294.83,107.74z"/>
		</g>
	</g>
</g>
<g>
	<g>
		<path class="st2" d="M260.52,319.51c-11.06-8.6-57.86-47.9-47.88-89.92l136.21,32.35c-9.98,42.02-69.45,56.08-83.2,58.79
			C263.85,321.09,261.98,320.64,260.52,319.51z"/>
	</g>
	<g>
		<circle class="st2" cx="253.4" cy="239.27" r="41.89"/>
	</g>
	<g>
		<circle class="st2" cx="308.09" cy="252.26" r="41.89"/>
	</g>
	<g>
		<circle class="st3" cx="308.09" cy="252.26" r="35.53"/>
	</g>
	<g>
		<circle class="st3" cx="253.4" cy="239.27" r="35.53"/>
	</g>
	<g>
		<path class="st3" d="M264.45,314.39c0,0-55.89-40.08-45.62-83.33l123.83,29.41C332.39,303.71,264.45,314.39,264.45,314.39z"/>
	</g>
	<g>
		<path class="st4" d="M227.93,238.67c4.53-19.09,23.69-30.89,42.78-26.36c3.5,0.83,6.75,2.16,9.71,3.88
			c-4.72-5.54-11.18-9.68-18.8-11.49c-19.09-4.53-38.24,7.27-42.78,26.36c-9.26,38.99,35.25,75.4,44.1,82.19
			C247.27,299.12,220.55,269.71,227.93,238.67z"/>
	</g>
	<g>
		<path class="st2" d="M290.32,269.74l-28.9-6.86c-2.28-0.54-4.57,0.87-5.11,3.15c-2.43,10.24,3.92,20.55,14.16,22.99
			c10.19,2.42,20.44-3.85,22.95-14c0.02-0.05,0.03-0.11,0.04-0.17C294.01,272.57,292.6,270.28,290.32,269.74z"/>
	</g>
	<g>
		<g>
			
				<ellipse transform="matrix(0.2311 -0.9729 0.9729 0.2311 -62.8736 480.5773)" class="st3" cx="272.6" cy="280.07" rx="4.95" ry="11.05"/>
		</g>
	</g>
	<g>
		<g>
			<g>
				<path class="st2" d="M290.46,242.55c3.95-1.97,9.11-1.28,12.21,1.98c1.63,1.64,3.55,5.59,0.39,6.51
					c-0.78,0.19-1.47-0.16-2.07-0.58c-2.23-1.6-4.11-2.55-6.78-3.13c-1.16-0.3-2.49-0.44-3.57-0.95
					C288.96,245.79,288.88,243.28,290.46,242.55L290.46,242.55z"/>
			</g>
			<g>
				<path class="st2" d="M270.82,241.8c-2.49-0.56-5.09-1.42-7.64-1.23c-0.89-0.01-2.07,0.27-3.18,0.34
					c-1.85,0.24-3.09-2.11-1.9-3.51c2.77-3.7,8.53-3.95,12.26-1.67c1.79,1.06,5.13,3.66,2.71,5.74
					C272.43,242,271.57,241.88,270.82,241.8L270.82,241.8z"/>
			</g>
			<g>
				<g>
					<path class="st2" d="M268.98,258.68c-1.42-0.34-2.31-1.77-1.97-3.19c0.34-1.42-0.54-2.85-1.97-3.19
						c-1.42-0.34-2.85,0.54-3.19,1.97c-0.34,1.42-1.77,2.31-3.19,1.97c-1.42-0.34-2.31-1.77-1.97-3.19c1.01-4.27,5.31-6.91,9.58-5.9
						s6.91,5.31,5.9,9.58C271.84,258.13,270.41,259.01,268.98,258.68z"/>
				</g>
			</g>
			<g>
				<g>
					<path class="st2" d="M295.77,265.04c-1.42-0.34-2.31-1.77-1.97-3.19c0.34-1.42-0.54-2.85-1.97-3.19s-2.85,0.54-3.19,1.97
						c-0.34,1.42-1.77,2.31-3.19,1.97c-1.42-0.34-2.31-1.77-1.97-3.19c1.01-4.27,5.31-6.91,9.58-5.9s6.91,5.31,5.9,9.58
						C298.62,264.49,297.19,265.38,295.77,265.04z"/>
				</g>
			</g>
		</g>
	</g>
</g>
<g>
	<g>
		<g>
			<path class="st2" d="M97.19,137.52c-13.88-1.92-74.06-12.56-86.42-53.94L144.9,43.5c12.36,41.38-32.11,83.29-42.66,92.51
				C100.86,137.23,99.02,137.78,97.19,137.52z"/>
		</g>
		<g>
			<circle class="st2" cx="50.91" cy="71.59" r="41.89"/>
		</g>
		<g>
			<circle class="st2" cx="104.76" cy="55.5" r="41.89"/>
		</g>
		<g>
			<circle class="st3" cx="104.76" cy="55.5" r="35.53"/>
		</g>
		<g>
			<circle class="st3" cx="50.91" cy="71.59" r="35.53"/>
		</g>
		<g>
			<path class="st3" d="M98.03,131.12c0,0-68.44-6.77-81.17-49.36l121.94-36.44C151.53,87.91,98.03,131.12,98.03,131.12z"/>
		</g>
		<g>
			<path class="st4" d="M28.54,83.81c-5.62-18.8,5.07-38.6,23.87-44.22c3.45-1.03,6.93-1.51,10.35-1.49
				c-6.86-2.43-14.52-2.8-22.03-0.55c-18.8,5.62-29.49,25.41-23.87,44.22c11.47,38.4,68.22,47.68,79.29,49.13
				C75.52,126.49,37.68,114.38,28.54,83.81z"/>
		</g>
	</g>
	<g>
		<g>
			<path class="st2" d="M91.46,81.46c-0.51,0-1.03-0.2-1.42-0.59c-0.78-0.78-0.78-2.05,0.01-2.83c2.46-2.44,7.04-3.81,10.44-3.12
				c1.08,0.22,1.78,1.28,1.56,2.36s-1.28,1.78-2.36,1.56c-2.1-0.43-5.29,0.52-6.81,2.04C92.48,81.27,91.97,81.46,91.46,81.46z"/>
		</g>
		<g>
			<circle class="st2" cx="93.56" cy="70.75" r="7"/>
		</g>
		<g>
			<circle class="st5" cx="95.23" cy="70.25" r="1.75"/>
		</g>
		<g>
			<path class="st2" d="M84.49,57.79c2.28-3.71,7.16-5.7,11.35-4.21c2.11,0.71,5.49,3.17,3.24,5.36c-0.58,0.5-1.31,0.52-2.01,0.4
				c-3.03-0.61-5.59-0.32-8.43,0.83c-0.69,0.27-1.39,0.5-2.09,0.6C84.91,61.14,83.58,59.17,84.49,57.79L84.49,57.79z"/>
		</g>
		<g>
			<path class="st2" d="M66.55,88.91c-0.51,0-1.03-0.2-1.42-0.59c-0.78-0.78-0.78-2.05,0.01-2.83c2.46-2.44,7.04-3.81,10.44-3.12
				c1.08,0.22,1.78,1.28,1.56,2.36c-0.22,1.08-1.28,1.78-2.36,1.56c-2.1-0.43-5.29,0.52-6.81,2.04
				C67.57,88.71,67.06,88.91,66.55,88.91z"/>
		</g>
		<g>
			<circle class="st2" cx="68.64" cy="78.19" r="7"/>
		</g>
		<g>
			<circle class="st5" cx="70.32" cy="77.69" r="1.75"/>
		</g>
		<g>
			<path class="st2" d="M68.3,66.3c-1.58,0.44-3.54,0.79-4.99,1.5c-1.57,0.7-2.49,1.56-3.87,2.78c-0.88,0.94-2.4,1.09-3.26,0.03
				c-0.36-0.44-0.51-0.99-0.46-1.52c0.15-1.38,0.63-2.81,1.59-4c2.21-2.97,6.31-4.15,9.79-3.39c1.61,0.31,3.84,1.21,2.95,3.31
				C69.76,65.75,68.97,66.04,68.3,66.3L68.3,66.3z"/>
		</g>
		<g>
			<path class="st2" d="M79.62,94.65c-2.51,0-5.04-0.35-7.52-1.09c-1.06-0.31-1.66-1.43-1.35-2.49c0.31-1.06,1.43-1.66,2.49-1.35
				c8.42,2.5,17.98-0.34,22.72-6.76c0.66-0.89,1.91-1.07,2.8-0.42c0.89,0.66,1.07,1.91,0.42,2.8
				C94.79,91.28,87.36,94.65,79.62,94.65z"/>
		</g>
		<g>
			<path class="st2" d="M83.59,97.39c2.81-0.02,5.67-0.8,8-2.39c1.1-0.82,2.59,0.49,1.95,1.68c-0.5,1.13-1.27,2.29-2.28,2.9
				c-2.44,1.56-5.67,1.84-8.26,0.43C81.65,99.43,82.14,97.34,83.59,97.39L83.59,97.39z"/>
		</g>
	</g>
</g>
<g>
	<path class="st6" d="M349.06,189.22c-2.65,0-4.8-2.15-4.8-4.8c0-0.88-0.72-1.6-1.6-1.6c-0.88,0-1.6,0.72-1.6,1.6
		c0,2.65-2.15,4.8-4.8,4.8c-0.88,0-1.6,0.72-1.6,1.6c0,0.88,0.72,1.6,1.6,1.6c2.65,0,4.8,2.15,4.8,4.8c0,0.88,0.72,1.6,1.6,1.6
		c0.88,0,1.6-0.72,1.6-1.6c0-2.65,2.15-4.8,4.8-4.8c0.88,0,1.6-0.72,1.6-1.6C350.66,189.94,349.95,189.22,349.06,189.22z"/>
</g>
<g>
	<g>
		<path class="st6" d="M188.29,45.63c2.11-2.11,5.53-2.11,7.64,0c0.7,0.7,1.84,0.7,2.55,0c0.7-0.7,0.7-1.84,0-2.55
			c-2.11-2.11-2.11-5.53,0-7.64c0.7-0.7,0.7-1.84,0-2.55s-1.84-0.7-2.55,0c-2.11,2.11-5.53,2.11-7.64,0c-0.7-0.7-1.84-0.7-2.55,0
			c-0.7,0.7-0.7,1.84,0,2.55c2.11,2.11,2.11,5.53,0,7.64c-0.7,0.7-0.7,1.84,0,2.55S187.59,46.34,188.29,45.63z"/>
	</g>
	<g>
		<circle class="st6" cx="176.55" cy="80.99" r="2.5"/>
	</g>
</g>
<g>
	<g>
		<path class="st6" d="M82.58,164.63c-2.17-2.03-2.29-5.46-0.25-7.63c0.68-0.73,0.64-1.87-0.08-2.54c-0.73-0.68-1.86-0.64-2.54,0.08
			c-2.03,2.17-5.46,2.29-7.63,0.25c-0.73-0.68-1.87-0.64-2.54,0.08c-0.68,0.73-0.64,1.87,0.08,2.54c2.17,2.03,2.29,5.46,0.25,7.63
			c-0.68,0.73-0.64,1.87,0.08,2.54c0.73,0.68,1.87,0.64,2.54-0.08c2.03-2.17,5.46-2.29,7.63-0.25c0.73,0.68,1.86,0.64,2.54-0.08
			C83.34,166.44,83.3,165.31,82.58,164.63z"/>
	</g>
	<g>
		<circle class="st6" cx="52.96" cy="209.9" r="2.5"/>
	</g>
	<g>
		<circle class="st6" cx="118.3" cy="175.18" r="2.5"/>
	</g>
</g>
<g>
	<circle class="st6" cx="338.43" cy="360.19" r="3"/>
</g>
<path class="st6" d="M258.99,344.62h-7v-7c0-1.66-1.34-3-3-3s-3,1.34-3,3v7h-7c-1.66,0-3,1.34-3,3s1.34,3,3,3h7v7c0,1.66,1.34,3,3,3
	s3-1.34,3-3v-7h7c1.66,0,3-1.34,3-3S260.65,344.62,258.99,344.62z"/>
<path class="st6" d="M36.94,250.28h-7v-7c0-1.66-1.34-3-3-3s-3,1.34-3,3v7h-7c-1.66,0-3,1.34-3,3s1.34,3,3,3h7v7c0,1.66,1.34,3,3,3
	s3-1.34,3-3v-7h7c1.66,0,3-1.34,3-3S38.6,250.28,36.94,250.28z"/>
<g>
	<path class="st6" d="M350.03,317.06c-2.65,0-4.8-2.15-4.8-4.8c0-0.88-0.72-1.6-1.6-1.6s-1.6,0.72-1.6,1.6c0,2.65-2.15,4.8-4.8,4.8
		c-0.88,0-1.6,0.72-1.6,1.6s0.72,1.6,1.6,1.6c2.65,0,4.8,2.15,4.8,4.8c0,0.88,0.72,1.6,1.6,1.6s1.6-0.72,1.6-1.6
		c0-2.65,2.15-4.8,4.8-4.8c0.88,0,1.6-0.72,1.6-1.6S350.92,317.06,350.03,317.06z"/>
</g>
<path class="st6" d="M351.71,42.32h-7v-7c0-1.66-1.34-3-3-3s-3,1.34-3,3v7h-7c-1.66,0-3,1.34-3,3s1.34,3,3,3h7v7c0,1.66,1.34,3,3,3
	s3-1.34,3-3v-7h7c1.66,0,3-1.34,3-3S353.37,42.32,351.71,42.32z"/>
</svg>
