<?xml version="1.0" encoding="utf-8"?>
<!-- Generator: Adobe Illustrator 25.4.1, SVG Export Plug-In . SVG Version: 6.00 Build 0)  -->
<svg version="1.1" id="SEO_x5F_Hub-SEO_x5F_Tracking"
	 xmlns="http://www.w3.org/2000/svg" xmlns:xlink="http://www.w3.org/1999/xlink" x="0px" y="0px" viewBox="0 0 400 400"
	 style="enable-background:new 0 0 400 400;" xml:space="preserve">
<style type="text/css">
	.st0{fill:#FFEFCF;}
	.st1{fill:#515979;}
	.st2{fill:#E1C3AA;}
	.st3{fill:#7DDF96;}
	.st4{fill:#3CB48C;}
	.st5{fill:#9E8271;}
	.st6{fill:#876969;}
	.st7{fill:#6ADAF7;}
	.st8{fill:#FFFFFF;}
	.st9{fill:#EF7D7D;}
	.st10{fill:#F89D81;}
	.st11{fill:#FABBA7;}
	.st12{fill:#FAC864;}
	.st13{fill:#DC9646;}
	.st14{fill:#D26E78;}
	.st15{fill:#FFE8A0;}
	.st16{fill:#FFF3CF;}
	.st17{fill:#8988C9;}
	.st18{fill:#C7BCFF;}
	.st19{fill:#CCCCCC;}
	.st20{fill:#979BAF;}
	.st21{fill:#D8EBFB;}
	.st22{fill:#A0D2FF;}
	.st23{fill:#FFD886;}
	.st24{opacity:0.2;}
	.st25{fill:none;}
</style>
<g>
	<g>
		<g>
			<path class="st0" d="M133.58,211.01c-0.73,0-1.43-0.26-1.99-0.75c-0.65-0.57-1.01-1.39-1.01-2.25v-170
				c0-1.51,1.13-2.79,2.63-2.98l80-10c0.12-0.02,0.25-0.02,0.37-0.02s0.25,0.01,0.37,0.02l79.63,9.95l79.63-9.95
				c0.12-0.02,0.25-0.02,0.37-0.02c0.73,0,1.43,0.26,1.99,0.75c0.65,0.57,1.01,1.39,1.01,2.25v170c0,1.51-1.13,2.79-2.63,2.98
				l-80,10c-0.12,0.02-0.25,0.02-0.37,0.02s-0.25-0.01-0.37-0.02l-79.63-9.95l-79.63,9.95C133.83,211,133.71,211.01,133.58,211.01z"
				/>
		</g>
		<g>
			<path class="st1" d="M373.58,28.01v170l-80,10l-80-10l-80,10v-170l80-10l80,10L373.58,28.01 M373.58,22.01
				c-0.25,0-0.5,0.02-0.74,0.05l-79.26,9.91l-79.26-9.91c-0.25-0.03-0.5-0.05-0.74-0.05s-0.5,0.02-0.74,0.05l-80,10
				c-3,0.38-5.26,2.93-5.26,5.95v170c0,1.72,0.74,3.36,2.03,4.5c1.1,0.97,2.52,1.5,3.97,1.5c0.25,0,0.5-0.02,0.74-0.05l79.26-9.91
				l79.26,9.91c0.25,0.03,0.5,0.05,0.74,0.05s0.5-0.02,0.74-0.05l80-10c3-0.38,5.26-2.93,5.26-5.95v-170c0-1.72-0.74-3.36-2.03-4.5
				C376.45,22.54,375.04,22.01,373.58,22.01L373.58,22.01z"/>
		</g>
	</g>
	<g>
		<polygon class="st2" points="293.58,208.01 213.58,198.01 213.58,28.01 293.58,38.01 		"/>
	</g>
	<g>
		<g>
			<polygon class="st3" points="293.58,194.01 359.58,186.01 359.58,44.01 293.58,52.01 213.58,42.01 147.58,50.01 147.58,192.01 
				213.58,184.01 			"/>
		</g>
		<g>
			<polygon class="st4" points="213.58,42.01 213.58,184.01 293.58,194.01 293.58,52.01 			"/>
		</g>
	</g>
	<g>
		<g>
			<path class="st5" d="M307.02,169.79c-12.52,0.51-21.7,14.68-25.07,20.76l11.63,1.45l37.48-4.68
				C328.25,182.21,319.85,169.27,307.02,169.79z"/>
		</g>
	</g>
	<g>
		<path class="st6" d="M281.96,190.56l11.63,1.45v-16.29C288,180.48,283.96,186.94,281.96,190.56z"/>
	</g>
	<g>
		<g>
			<g>
				<path class="st7" d="M147.58,50.24l41.26-5.16l0.15,2.11c0.75,10.7-0.82,21.01-4.8,31.52c-2.9,7.67-4.52,15.8-6.08,23.66
					c-3.76,18.99-7.32,36.93-27.57,48.06l-2.96,1.63V50.24z"/>
			</g>
			<g>
				<path class="st1" d="M187,47.33c0.69,9.84-0.58,19.87-4.67,30.68c-9.8,25.88-4.88,55.36-32.74,70.67V52.01L187,47.33
					 M190.69,42.84l-4.19,0.52l-37.41,4.68l-3.5,0.44v3.53v96.67v6.76l5.93-3.26c21.07-11.58,24.88-30.82,28.57-49.42
					c1.54-7.78,3.14-15.83,5.98-23.34c4.08-10.79,5.69-21.38,4.92-32.37L190.69,42.84L190.69,42.84z"/>
			</g>
		</g>
	</g>
	<g>
		<g>
			<path class="st1" d="M159.58,73.51c-0.83,0-1.5-0.67-1.5-1.5s0.67-1.5,1.5-1.5c1.38,0,2.5-1.12,2.5-2.5c0-0.83,0.67-1.5,1.5-1.5
				s1.5,0.67,1.5,1.5C165.08,71.04,162.62,73.51,159.58,73.51z"/>
		</g>
		<g>
			<path class="st1" d="M167.58,73.51c-3.03,0-5.5-2.47-5.5-5.5c0-0.83,0.67-1.5,1.5-1.5s1.5,0.67,1.5,1.5c0,1.38,1.12,2.5,2.5,2.5
				s2.5-1.12,2.5-2.5c0-0.83,0.67-1.5,1.5-1.5s1.5,0.67,1.5,1.5C173.08,71.04,170.62,73.51,167.58,73.51z"/>
		</g>
		<g>
			<path class="st1" d="M175.58,73.51c-3.03,0-5.5-2.47-5.5-5.5c0-0.83,0.67-1.5,1.5-1.5s1.5,0.67,1.5,1.5c0,1.38,1.12,2.5,2.5,2.5
				c0.83,0,1.5,0.67,1.5,1.5S176.41,73.51,175.58,73.51z"/>
		</g>
	</g>
	<g>
		<g>
			<path class="st1" d="M156.58,114.51c-0.83,0-1.5-0.67-1.5-1.5s0.67-1.5,1.5-1.5c1.38,0,2.5-1.12,2.5-2.5c0-0.83,0.67-1.5,1.5-1.5
				s1.5,0.67,1.5,1.5C162.08,112.04,159.62,114.51,156.58,114.51z"/>
		</g>
		<g>
			<path class="st1" d="M164.58,114.51c-3.03,0-5.5-2.47-5.5-5.5c0-0.83,0.67-1.5,1.5-1.5s1.5,0.67,1.5,1.5c0,1.38,1.12,2.5,2.5,2.5
				c0.83,0,1.5,0.67,1.5,1.5S165.41,114.51,164.58,114.51z"/>
		</g>
	</g>
	<g>
		<g>
			<g>
				<path class="st1" d="M270.61,111.79c-0.16,0-0.33-0.03-0.49-0.08c-1.6-0.55-4.42-0.55-6.02,0c-0.79,0.27-1.64-0.15-1.91-0.93
					c-0.27-0.78,0.15-1.64,0.93-1.91c2.24-0.77,5.74-0.77,7.98,0c0.78,0.27,1.2,1.12,0.93,1.91
					C271.81,111.4,271.23,111.79,270.61,111.79z"/>
			</g>
			<g>
				<g>
					<circle class="st1" cx="267.11" cy="103.59" r="6"/>
				</g>
				<g>
					<circle class="st8" cx="268.61" cy="103.59" r="1.5"/>
				</g>
			</g>
			<g>
				<path class="st1" d="M263.68,89.65c0.97-0.61,1.86-0.91,2.88-1.12c0.99-0.21,2.03-0.24,3.08-0.12c1.04,0.11,2.1,0.44,3.07,0.95
					c0.97,0.5,1.83,1.28,2.42,2.19c0.52,0.8,0.29,1.86-0.51,2.38c-0.38,0.24-0.81,0.32-1.22,0.25l-0.4-0.07
					c-0.78-0.13-1.39-0.32-2.04-0.43c-0.65-0.1-1.27-0.25-1.96-0.33l-2.11-0.25c-0.72-0.08-1.55-0.12-2.25-0.28l-0.42-0.09
					c-0.92-0.2-1.5-1.11-1.29-2.02C263.02,90.26,263.31,89.89,263.68,89.65z"/>
			</g>
		</g>
		<g>
			<g>
				<path class="st1" d="M238.56,111.79c-0.62,0-1.2-0.39-1.42-1.01c-0.27-0.78,0.15-1.64,0.93-1.91c2.24-0.77,5.74-0.77,7.98,0
					c0.78,0.27,1.2,1.12,0.93,1.91c-0.27,0.78-1.12,1.2-1.91,0.93c-1.6-0.55-4.42-0.55-6.02,0
					C238.88,111.76,238.72,111.79,238.56,111.79z"/>
			</g>
			<g>
				<g>
					<circle class="st1" cx="242.06" cy="103.59" r="6"/>
				</g>
				<g>
					<circle class="st8" cx="243.56" cy="103.59" r="1.5"/>
				</g>
			</g>
			<g>
				<path class="st1" d="M244.53,92.84c-0.7,0.15-1.53,0.2-2.25,0.28l-2.11,0.25c-0.68,0.08-1.3,0.22-1.96,0.33
					c-0.65,0.11-1.26,0.3-2.04,0.43l-0.39,0.07c-0.94,0.16-1.83-0.47-1.98-1.41c-0.07-0.44,0.03-0.88,0.25-1.22
					c0.59-0.92,1.45-1.69,2.42-2.19c0.96-0.52,2.02-0.84,3.07-0.95c1.05-0.12,2.08-0.08,3.08,0.12c1.01,0.21,1.9,0.51,2.88,1.12
					c0.79,0.5,1.03,1.55,0.54,2.34c-0.25,0.4-0.64,0.66-1.07,0.76L244.53,92.84z"/>
			</g>
		</g>
		<g>
			<path class="st1" d="M266.59,115.01h-24.01c-1.66,0-3,1.34-3,3c0,8.27,6.73,15,15,15c4.01,0,7.77-1.56,10.61-4.39
				c2.8-2.8,4.36-6.51,4.39-10.47c0-0.05,0-0.09,0-0.14C269.59,116.35,268.24,115.01,266.59,115.01z"/>
			<g>
				<g>
					<ellipse class="st9" cx="254.58" cy="126.01" rx="8.93" ry="4"/>
				</g>
			</g>
		</g>
	</g>
	<g>
		<g>
			<path class="st1" d="M307.78,169.78c12.4,0,20.53,12.54,23.28,17.55l-37.48,4.68l-11.63-1.45c3.37-6.08,12.54-20.25,25.07-20.76
				C307.28,169.78,307.53,169.78,307.78,169.78 M307.78,165.78c-0.3,0-0.61,0.01-0.92,0.02c-14.55,0.59-24.71,16.16-28.4,22.82
				l-2.87,5.17l5.87,0.73l11.63,1.45l0.5,0.06l0.5-0.06l37.48-4.68l5.85-0.73l-2.84-5.16C331.32,179.5,322.22,165.78,307.78,165.78
				L307.78,165.78z"/>
		</g>
	</g>
	<g>
		<g>
			<path class="st1" d="M251.58,72.51c-0.83,0-1.5-0.67-1.5-1.5c0-1.38-1.12-2.5-2.5-2.5s-2.5,1.12-2.5,2.5c0,0.83-0.67,1.5-1.5,1.5
				s-1.5-0.67-1.5-1.5c0-3.03,2.47-5.5,5.5-5.5s5.5,2.47,5.5,5.5C253.08,71.84,252.41,72.51,251.58,72.51z"/>
		</g>
		<g>
			<path class="st1" d="M259.58,72.51c-0.83,0-1.5-0.67-1.5-1.5c0-1.38-1.12-2.5-2.5-2.5s-2.5,1.12-2.5,2.5c0,0.83-0.67,1.5-1.5,1.5
				s-1.5-0.67-1.5-1.5c0-3.03,2.47-5.5,5.5-5.5s5.5,2.47,5.5,5.5C261.08,71.84,260.41,72.51,259.58,72.51z"/>
		</g>
		<g>
			<path class="st1" d="M267.58,72.51c-0.83,0-1.5-0.67-1.5-1.5c0-1.38-1.12-2.5-2.5-2.5s-2.5,1.12-2.5,2.5c0,0.83-0.67,1.5-1.5,1.5
				s-1.5-0.67-1.5-1.5c0-3.03,2.47-5.5,5.5-5.5s5.5,2.47,5.5,5.5C269.08,71.84,268.41,72.51,267.58,72.51z"/>
		</g>
	</g>
	<g>
		<g>
			<path class="st1" d="M340.58,159.51c-0.83,0-1.5-0.67-1.5-1.5c0-1.38-1.12-2.5-2.5-2.5s-2.5,1.12-2.5,2.5
				c0,0.83-0.67,1.5-1.5,1.5s-1.5-0.67-1.5-1.5c0-3.03,2.47-5.5,5.5-5.5s5.5,2.47,5.5,5.5
				C342.08,158.84,341.41,159.51,340.58,159.51z"/>
		</g>
		<g>
			<path class="st1" d="M348.58,159.51c-0.83,0-1.5-0.67-1.5-1.5c0-1.38-1.12-2.5-2.5-2.5s-2.5,1.12-2.5,2.5
				c0,0.83-0.67,1.5-1.5,1.5s-1.5-0.67-1.5-1.5c0-3.03,2.47-5.5,5.5-5.5s5.5,2.47,5.5,5.5
				C350.08,158.84,349.41,159.51,348.58,159.51z"/>
		</g>
	</g>
	<g>
		<g>
			<path class="st1" d="M237.58,172.51c-0.83,0-1.5-0.67-1.5-1.5c0-1.38-1.12-2.5-2.5-2.5s-2.5,1.12-2.5,2.5
				c0,0.83-0.67,1.5-1.5,1.5s-1.5-0.67-1.5-1.5c0-3.03,2.47-5.5,5.5-5.5s5.5,2.47,5.5,5.5
				C239.08,171.84,238.41,172.51,237.58,172.51z"/>
		</g>
		<g>
			<path class="st1" d="M245.58,172.51c-0.83,0-1.5-0.67-1.5-1.5c0-1.38-1.12-2.5-2.5-2.5s-2.5,1.12-2.5,2.5
				c0,0.83-0.67,1.5-1.5,1.5s-1.5-0.67-1.5-1.5c0-3.03,2.47-5.5,5.5-5.5s5.5,2.47,5.5,5.5
				C247.08,171.84,246.41,172.51,245.58,172.51z"/>
		</g>
	</g>
	<g>
		<path class="st1" d="M164.94,191.15l-3.97-0.51c0.4-3.15,1.01-6.2,1.8-9.09l3.86,1.05C165.89,185.31,165.32,188.19,164.94,191.15z
			 M169.56,174.46l-3.64-1.67c1.32-2.87,2.88-5.6,4.65-8.11l3.27,2.31C172.22,169.3,170.78,171.82,169.56,174.46z M179.46,160.48
			l-2.77-2.89c2.22-2.13,4.68-4.08,7.32-5.81l2.19,3.34C183.77,156.72,181.5,158.52,179.46,160.48z M281.64,152.63l-0.08-4
			c3.05-0.06,5.96-0.32,8.66-0.77l0.66,3.95C287.98,152.29,284.88,152.57,281.64,152.63z M272.43,152.29
			c-2.89-0.25-5.95-0.65-9.08-1.18l0.67-3.94c3.03,0.51,5.98,0.9,8.76,1.14L272.43,152.29z M193.81,151l-1.61-3.66
			c2.75-1.21,5.69-2.26,8.74-3.11l1.08,3.85C199.15,148.89,196.39,149.87,193.81,151z M299.93,149.41l-1.42-3.74
			c2.73-1.03,5.25-2.36,7.49-3.94l2.3,3.27C305.78,146.77,302.97,148.25,299.93,149.41z M254.41,149.3
			c-0.49-0.11-0.98-0.23-1.47-0.35c-2.41-0.59-4.85-1.11-7.24-1.56l0.74-3.93c2.46,0.46,4.96,1,7.44,1.61
			c0.48,0.12,0.96,0.23,1.43,0.34L254.41,149.3z M210.57,146.26l-0.61-3.95c2.94-0.45,6.02-0.76,9.16-0.91l0.2,4
			C216.32,145.53,213.38,145.83,210.57,146.26z M236.95,146.05c-2.97-0.35-5.94-0.58-8.81-0.7l0.16-4c2.98,0.12,6.05,0.36,9.12,0.72
			L236.95,146.05z M315.26,138.54l-3.09-2.54c1.73-2.11,3.27-4.52,4.56-7.17l3.6,1.75C318.9,133.51,317.2,136.19,315.26,138.54z
			 M323.61,121.83l-3.85-1.08c0.74-2.64,1.33-5.52,1.76-8.55l3.96,0.56C325.02,115.96,324.39,119.01,323.61,121.83z M326.32,103.61
			l-4-0.18c0.05-1.18,0.09-2.37,0.11-3.57l4,0.06C326.41,101.16,326.37,102.39,326.32,103.61z"/>
	</g>
	<g id="treasure-chest">
		<g>
			<g>
				<path class="st10" d="M305.43,94.39c-0.42,0-0.83-0.18-1.11-0.49c-0.28-0.31-0.42-0.73-0.38-1.16l2-20
					c0.08-0.77,0.72-1.35,1.49-1.35h36c0.77,0,1.42,0.58,1.49,1.35l2,20c0.04,0.42-0.1,0.84-0.38,1.16
					c-0.28,0.31-0.69,0.49-1.11,0.49H305.43z"/>
			</g>
			<g>
				<g>
					<path class="st1" d="M343.43,72.89l2,20h-40l2-20H343.43 M343.43,69.89h-36c-1.54,0-2.83,1.17-2.99,2.7l-2,20
						c-0.08,0.84,0.19,1.68,0.76,2.31c0.57,0.63,1.38,0.99,2.22,0.99h40c0.85,0,1.66-0.36,2.22-0.99c0.57-0.63,0.85-1.47,0.76-2.31
						l-2-20C346.26,71.06,344.97,69.89,343.43,69.89L343.43,69.89z"/>
				</g>
			</g>
		</g>
		<g>
			<polygon class="st9" points="306.43,82.89 305.43,92.89 345.43,92.89 344.43,82.89 			"/>
		</g>
		<g>
			<polygon class="st11" points="343.43,72.89 307.43,72.89 307.23,74.89 343.63,74.89 			"/>
		</g>
		<g>
			<g>
				<path class="st12" d="M307.43,112.39c-0.76,0-1.39-0.56-1.49-1.31l-2-16c-0.05-0.43,0.08-0.86,0.36-1.18
					c0.29-0.32,0.69-0.51,1.12-0.51h40c0.43,0,0.84,0.18,1.12,0.51c0.28,0.32,0.42,0.75,0.36,1.18l-2,16
					c-0.09,0.75-0.73,1.31-1.49,1.31H307.43z"/>
			</g>
			<g>
				<g>
					<path class="st1" d="M345.43,94.89L345.43,94.89 M345.43,94.89l-2,16h-36l-2-16H345.43 M345.43,91.89L345.43,91.89h-40.01
						c-0.86,0-1.68,0.37-2.25,1.01c-0.57,0.65-0.83,1.5-0.73,2.36l2,16c0.19,1.5,1.46,2.63,2.98,2.63h36c1.51,0,2.79-1.13,2.98-2.63
						l1.98-15.87c0.03-0.16,0.04-0.33,0.04-0.5C348.43,93.23,347.09,91.89,345.43,91.89L345.43,91.89z M345.43,97.89L345.43,97.89
						L345.43,97.89L345.43,97.89z"/>
				</g>
			</g>
		</g>
		<g>
			<polygon class="st13" points="305.8,97.89 306.3,101.89 344.55,101.89 345.05,97.89 			"/>
		</g>
		<g>
			<polygon class="st9" points="339.89,106.89 341.52,93.89 309.33,93.89 310.96,106.89 			"/>
		</g>
		<g>
			<polygon class="st14" points="310.83,97.89 311.33,101.89 339.52,101.89 340.02,97.89 			"/>
		</g>
		<g>
			<path class="st1" d="M338.12,96.89l-0.88,7h-23.64l-0.88-7H338.12 M341.52,93.89L341.52,93.89L341.52,93.89z M341.52,93.89
				h-32.19l1.62,13h28.94L341.52,93.89L341.52,93.89z"/>
		</g>
		<g>
			<g>
				<g>
					<path class="st15" d="M323.43,93.39c-0.83,0-1.5-0.67-1.5-1.5v-20c0-0.83,0.67-1.5,1.5-1.5h4c0.83,0,1.5,0.67,1.5,1.5v20
						c0,0.83-0.67,1.5-1.5,1.5H323.43z"/>
				</g>
				<g>
					<path class="st1" d="M327.43,71.89v20h-4v-20H327.43 M327.43,68.89h-4c-1.66,0-3,1.34-3,3v20c0,1.66,1.34,3,3,3h4
						c1.66,0,3-1.34,3-3v-20C330.43,70.23,329.08,68.89,327.43,68.89L327.43,68.89z"/>
				</g>
			</g>
			<g>
				<rect x="323.43" y="71.89" class="st16" width="4" height="2"/>
			</g>
			<g>
				<rect x="323.43" y="82.89" class="st12" width="4" height="9"/>
			</g>
		</g>
		<g>
			<g>
				<g>
					<path class="st15" d="M341.43,93.39c-0.77,0-1.42-0.58-1.49-1.35l-2-20c-0.04-0.42,0.1-0.84,0.38-1.16
						c0.28-0.31,0.69-0.49,1.11-0.49h4c0.77,0,1.42,0.58,1.49,1.35l2,20c0.04,0.42-0.1,0.84-0.38,1.16
						c-0.28,0.31-0.69,0.49-1.11,0.49H341.43z"/>
				</g>
				<g>
					<g>
						<path class="st1" d="M343.43,71.89l2,20h-4l-2-20H343.43 M343.43,68.89h-4c-0.85,0-1.66,0.36-2.22,0.99
							c-0.57,0.63-0.85,1.47-0.76,2.31l2,20c0.15,1.53,1.44,2.7,2.99,2.7h4c0.85,0,1.66-0.36,2.22-0.99
							c0.57-0.63,0.85-1.47,0.76-2.31l-2-20C346.26,70.06,344.97,68.89,343.43,68.89L343.43,68.89z"/>
					</g>
				</g>
			</g>
			<g>
				<polygon class="st16" points="339.43,71.89 339.63,73.89 343.63,73.89 343.43,71.89 				"/>
			</g>
			<g>
				<polygon class="st12" points="340.53,82.89 341.43,91.89 345.43,91.89 344.53,82.89 				"/>
			</g>
		</g>
		<g>
			<g>
				<g>
					<path class="st15" d="M305.43,93.39c-0.42,0-0.83-0.18-1.11-0.49c-0.28-0.31-0.42-0.73-0.38-1.16l2-20
						c0.08-0.77,0.72-1.35,1.49-1.35h4c0.42,0,0.83,0.18,1.11,0.49c0.28,0.31,0.42,0.73,0.38,1.16l-2,20
						c-0.08,0.77-0.72,1.35-1.49,1.35H305.43z"/>
				</g>
				<g>
					<g>
						<path class="st1" d="M311.43,71.89L311.43,71.89 M311.43,71.89l-2,20h-4l2-20H311.43 M311.43,68.89L311.43,68.89h-4.01
							c-1.54,0-2.83,1.17-2.99,2.7l-2,20c-0.08,0.84,0.19,1.68,0.76,2.31c0.57,0.63,1.38,0.99,2.22,0.99h4
							c1.54,0,2.83-1.17,2.99-2.7l1.99-19.87c0.02-0.14,0.03-0.28,0.03-0.43C314.43,70.23,313.09,68.89,311.43,68.89L311.43,68.89z
							 M311.43,74.89L311.43,74.89L311.43,74.89L311.43,74.89z"/>
					</g>
				</g>
			</g>
			<g>
				<polygon class="st16" points="307.43,71.89 307.23,73.89 311.23,73.89 311.43,71.89 				"/>
			</g>
			<g>
				<polygon class="st12" points="305.43,91.89 309.43,91.89 310.33,82.89 306.33,82.89 				"/>
			</g>
		</g>
		<g>
			<g>
				<path class="st15" d="M302.43,97.39c-0.83,0-1.5-0.67-1.5-1.5v-4c0-0.83,0.67-1.5,1.5-1.5h46c0.83,0,1.5,0.67,1.5,1.5v4
					c0,0.83-0.67,1.5-1.5,1.5H302.43z"/>
			</g>
			<g>
				<path class="st1" d="M348.43,91.89v4h-46v-4H348.43 M348.43,88.89h-46c-1.66,0-3,1.34-3,3v4c0,1.66,1.34,3,3,3h46
					c1.66,0,3-1.34,3-3v-4C351.43,90.23,350.08,88.89,348.43,88.89L348.43,88.89z"/>
			</g>
		</g>
		<g>
			<g>
				<circle class="st15" cx="325.43" cy="93.89" r="5.5"/>
			</g>
			<g>
				<path class="st1" d="M325.43,89.89c2.21,0,4,1.79,4,4c0,2.21-1.79,4-4,4s-4-1.79-4-4C321.43,91.68,323.22,89.89,325.43,89.89
					 M325.43,86.89c-3.86,0-7,3.14-7,7c0,3.86,3.14,7,7,7s7-3.14,7-7C332.43,90.03,329.29,86.89,325.43,86.89L325.43,86.89z"/>
			</g>
		</g>
		<g>
			<path class="st1" d="M326.31,94.1c0.37-0.27,0.62-0.71,0.62-1.21c0-0.83-0.67-1.5-1.5-1.5s-1.5,0.67-1.5,1.5
				c0,0.5,0.24,0.93,0.62,1.21l-0.12,1.79h2L326.31,94.1z"/>
		</g>
	</g>
	<g>
		<g>
			<g>
				<path class="st4" d="M353.58,60.01c-6.62,0-12-5.38-12-12c0-0.09,0-0.19,0.01-0.28l0.04-1.72l1.71-0.23l16.24-2.03v14.74
					l-1.2,0.52C356.86,59.67,355.24,60.01,353.58,60.01z"/>
			</g>
			<g>
				<path class="st1" d="M357.58,46.01v11.16c-1.23,0.54-2.58,0.84-4,0.84c-5.52,0-10-4.48-10-10c0-0.08,0.01-0.17,0.01-0.25
					L357.58,46.01 M361.58,41.48l-4.5,0.56l-13.99,1.75l-3.42,0.43l-0.08,3.39c-0.01,0.14-0.02,0.27-0.02,0.4c0,7.72,6.28,14,14,14
					c1.94,0,3.82-0.39,5.6-1.17l2.4-1.05v-2.62V46.01V41.48L361.58,41.48z"/>
			</g>
		</g>
		<g>
			<g>
				<path class="st4" d="M333.58,56.01c-3.51,0-6.66-2.35-7.66-5.71l-0.68-2.26l16.42-2.05l-0.1,2.36
					C341.39,52.64,337.88,56.01,333.58,56.01z"/>
			</g>
			<g>
				<path class="st1" d="M339.57,48.26L339.57,48.26 M339.57,48.26c-0.13,3.2-2.76,5.75-5.99,5.75c-2.72,0-5.01-1.81-5.75-4.28
					L339.57,48.26 M343.76,43.7l-4.69,0.59l-11.73,1.47l-4.69,0.59l1.35,4.53c1.25,4.2,5.19,7.14,9.58,7.14
					c5.38,0,9.76-4.21,9.98-9.58L343.76,43.7L343.76,43.7z M339.57,44.26L339.57,44.26L339.57,44.26L339.57,44.26z M339.57,52.26
					L339.57,52.26L339.57,52.26L339.57,52.26z"/>
			</g>
		</g>
		<g>
			<g>
				<path class="st4" d="M185.73,185.6c-0.1-0.55-0.15-1.07-0.15-1.59c0-4.96,4.04-9,9-9c4.7,0,8.64,3.67,8.97,8.36l0.13,1.89
					l-17.62,2.2L185.73,185.6z"/>
			</g>
			<g>
				<path class="st1" d="M194.58,177.01c3.7,0,6.72,2.87,6.97,6.5l-13.86,1.73c-0.07-0.4-0.12-0.81-0.12-1.24
					C187.58,180.14,190.72,177.01,194.58,177.01 M194.58,173.01c-6.07,0-11,4.93-11,11c0,0.63,0.06,1.27,0.18,1.94l0.67,3.74
					l3.77-0.47l13.86-1.73l3.76-0.47l-0.27-3.78C205.14,177.5,200.33,173.01,194.58,173.01L194.58,173.01z"/>
			</g>
		</g>
	</g>
	<g>
		<g>
			<circle class="st4" cx="191.58" cy="121.01" r="7"/>
		</g>
		<g>
			<path class="st1" d="M191.58,116.01c2.76,0,5,2.24,5,5c0,2.76-2.24,5-5,5c-2.76,0-5-2.24-5-5
				C186.58,118.25,188.82,116.01,191.58,116.01 M191.58,112.01c-4.96,0-9,4.04-9,9s4.04,9,9,9s9-4.04,9-9
				S196.55,112.01,191.58,112.01L191.58,112.01z"/>
		</g>
	</g>
	<g>
		<g>
			<circle class="st4" cx="201.58" cy="100.01" r="6"/>
		</g>
		<g>
			<path class="st1" d="M201.58,96.01c2.21,0,4,1.79,4,4c0,2.21-1.79,4-4,4s-4-1.79-4-4C197.58,97.8,199.37,96.01,201.58,96.01
				 M201.58,92.01c-4.41,0-8,3.59-8,8c0,4.41,3.59,8,8,8s8-3.59,8-8C209.58,95.6,205.99,92.01,201.58,92.01L201.58,92.01z"/>
		</g>
	</g>
	<g>
		<g>
			<path class="st1" d="M213.58,44.01l80,10l64-8v138l-64,8l-80-10l-64,8v-138L213.58,44.01 M213.58,37.96l-0.74,0.09l-64,8
				l-5.26,0.66v5.3v138v6.8l6.74-0.84l63.26-7.91l79.26,9.91l0.74,0.09l0.74-0.09l64-8l5.26-0.66v-5.3v-138v-6.8l-6.74,0.84
				l-63.26,7.91l-79.26-9.91L213.58,37.96L213.58,37.96z"/>
		</g>
	</g>
</g>
<g>
	<g>
		<g>
			<path class="st17" d="M189,314c-4.96,0-9-4.04-9-9v-58c0-4.96,4.04-9,9-9h148c4.96,0,9,4.04,9,9v58c0,4.96-4.04,9-9,9H189z"/>
		</g>
		<g>
			<g>
				<path class="st1" d="M337,241c3.31,0,6,2.69,6,6v58c0,3.31-2.69,6-6,6H189c-3.31,0-6-2.69-6-6v-58c0-3.31,2.69-6,6-6H337
					 M337,235H189c-6.62,0-12,5.38-12,12v58c0,6.62,5.38,12,12,12h148c6.62,0,12-5.38,12-12v-58C349,240.38,343.62,235,337,235
					L337,235z"/>
			</g>
		</g>
	</g>
	<g>
		<g>
			<path class="st18" d="M171,314c-4.96,0-9-4.04-9-9v-58c0-4.96,4.04-9,9-9h148c4.96,0,9,4.04,9,9v58c0,4.96-4.04,9-9,9H171z"/>
		</g>
		<g>
			<g>
				<path class="st1" d="M319,241c3.31,0,6,2.69,6,6v58c0,3.31-2.69,6-6,6H171c-3.31,0-6-2.69-6-6v-58c0-3.31,2.69-6,6-6H319
					 M319,235H171c-6.62,0-12,5.38-12,12v58c0,6.62,5.38,12,12,12h148c6.62,0,12-5.38,12-12v-58C331,240.38,325.62,235,319,235
					L319,235z"/>
			</g>
		</g>
	</g>
	<g>
		<g>
			<path class="st1" d="M259.01,260H231c-2.21,0-4,1.79-4,4c0,9.93,8.07,18,18,18c9.87,0,17.91-7.99,18-17.84c0-0.05,0-0.11,0-0.16
				C263,261.79,261.21,260,259.01,260z"/>
			<g>
				<g>
					<ellipse class="st9" cx="245" cy="273.33" rx="10.41" ry="4.67"/>
				</g>
			</g>
		</g>
		<g>
			<g>
				<g>
					<path class="st1" d="M255.21,228.03c0.6-0.51,1.09-0.82,1.69-1.14c0.58-0.3,1.18-0.55,1.82-0.74c1.27-0.37,2.65-0.52,4.06-0.39
						c1.41,0.11,2.85,0.62,4.07,1.42c1.25,0.77,2.18,1.94,2.76,3.17c0.48,1.02,0.04,2.24-0.98,2.72c-0.5,0.23-1.04,0.25-1.52,0.09
						l-0.51-0.17c-0.93-0.31-1.61-0.67-2.34-0.83c-0.71-0.19-1.37-0.36-2.13-0.44c-0.75-0.09-1.56-0.13-2.43-0.12
						c-0.44,0-0.89,0-1.35,0.02c-0.45-0.01-0.98,0.05-1.36,0l-0.77-0.11c-1.08-0.16-1.83-1.17-1.68-2.25
						C254.6,228.76,254.85,228.33,255.21,228.03z"/>
				</g>
				<g>
					<path class="st1" d="M233.03,231.62c-0.38,0.06-0.92-0.01-1.36,0c-0.46-0.02-0.92-0.02-1.35-0.02
						c-0.87-0.01-1.68,0.04-2.43,0.12c-0.76,0.07-1.42,0.25-2.13,0.44c-0.73,0.16-1.41,0.52-2.34,0.83l-0.5,0.17
						c-1.07,0.36-2.23-0.21-2.59-1.28c-0.18-0.52-0.13-1.06,0.09-1.52c0.58-1.23,1.5-2.4,2.76-3.17c1.22-0.8,2.66-1.31,4.07-1.42
						c1.41-0.14,2.79,0.01,4.06,0.39c0.63,0.19,1.24,0.44,1.82,0.74c0.59,0.32,1.08,0.63,1.69,1.14c0.84,0.71,0.94,1.96,0.24,2.8
						c-0.32,0.38-0.76,0.62-1.23,0.68L233.03,231.62z"/>
				</g>
				<g>
					<path class="st1" d="M235.02,254.5c-1.38,0-2.5-1.12-2.5-2.5c0-1.38-1.12-2.5-2.5-2.5s-2.5,1.12-2.5,2.5
						c0,1.38-1.12,2.5-2.5,2.5s-2.5-1.12-2.5-2.5c0-4.14,3.36-7.5,7.5-7.5s7.5,3.36,7.5,7.5C237.52,253.38,236.4,254.5,235.02,254.5
						z"/>
				</g>
				<g>
					<path class="st1" d="M264.98,254.5c-1.38,0-2.5-1.12-2.5-2.5c0-1.38-1.12-2.5-2.5-2.5s-2.5,1.12-2.5,2.5
						c0,1.38-1.12,2.5-2.5,2.5s-2.5-1.12-2.5-2.5c0-4.14,3.36-7.5,7.5-7.5s7.5,3.36,7.5,7.5
						C267.48,253.38,266.36,254.5,264.98,254.5z"/>
				</g>
			</g>
		</g>
	</g>
	<g>
		<g>
			<path class="st8" d="M199.55,296.43h0.49c0.45,0,0.77-0.14,0.97-0.42l2.95-4.28c0.17-0.23,0.36-0.39,0.56-0.47
				s0.45-0.13,0.75-0.13h2.65l-3.89,5.3c-0.28,0.37-0.57,0.63-0.89,0.79c0.23,0.08,0.43,0.2,0.62,0.35
				c0.19,0.15,0.36,0.34,0.52,0.58l3.96,6.08h-2.72c-0.17,0-0.32-0.01-0.45-0.04c-0.12-0.02-0.23-0.06-0.32-0.11
				c-0.09-0.05-0.17-0.11-0.23-0.18c-0.07-0.07-0.13-0.15-0.19-0.24l-2.97-4.56c-0.11-0.17-0.24-0.29-0.41-0.36
				c-0.17-0.07-0.39-0.1-0.67-0.1h-0.74v5.58h-3.04v-13.11h3.04V296.43z"/>
		</g>
		<g>
			<path class="st8" d="M213.18,293.46v3.06h4.12v2.25h-4.12v3.12h5.38v2.34h-8.44v-13.11h8.44v2.34H213.18z"/>
		</g>
		<g>
			<path class="st8" d="M227.62,299.25v4.99h-3.04v-4.99l-4.75-8.13h2.68c0.26,0,0.47,0.06,0.62,0.18s0.28,0.28,0.38,0.47l1.85,3.82
				c0.16,0.3,0.3,0.58,0.42,0.84c0.13,0.26,0.24,0.52,0.33,0.77c0.09-0.26,0.19-0.52,0.31-0.78c0.12-0.26,0.25-0.54,0.41-0.83
				l1.84-3.82c0.04-0.08,0.09-0.16,0.15-0.23c0.06-0.08,0.13-0.15,0.21-0.21c0.08-0.06,0.17-0.11,0.28-0.15
				c0.1-0.04,0.22-0.06,0.35-0.06h2.7L227.62,299.25z"/>
		</g>
		<g>
			<path class="st8" d="M252.16,291.12l-4.05,13.11h-2.75l-2.47-8.13c-0.05-0.13-0.09-0.27-0.14-0.42
				c-0.04-0.15-0.08-0.31-0.13-0.48c-0.04,0.17-0.08,0.33-0.13,0.48c-0.04,0.15-0.09,0.29-0.13,0.42l-2.5,8.13h-2.75l-4.05-13.11
				h2.56c0.26,0,0.48,0.06,0.66,0.18c0.18,0.12,0.29,0.28,0.35,0.48l1.8,6.84c0.05,0.22,0.11,0.45,0.16,0.71
				c0.05,0.25,0.11,0.52,0.16,0.8c0.11-0.56,0.24-1.06,0.4-1.5l2.12-6.84c0.05-0.17,0.17-0.32,0.35-0.45
				c0.18-0.14,0.39-0.2,0.64-0.2h0.9c0.26,0,0.48,0.06,0.64,0.18c0.16,0.12,0.28,0.28,0.37,0.47l2.11,6.84
				c0.16,0.42,0.29,0.9,0.4,1.43c0.05-0.27,0.1-0.52,0.15-0.76c0.05-0.24,0.1-0.46,0.16-0.67l1.8-6.84
				c0.05-0.17,0.16-0.33,0.34-0.46c0.18-0.13,0.4-0.2,0.65-0.2H252.16z"/>
		</g>
		<g>
			<path class="st8" d="M266.9,297.67c0,0.95-0.16,1.83-0.49,2.65c-0.33,0.82-0.79,1.53-1.38,2.13c-0.59,0.6-1.31,1.08-2.15,1.42
				s-1.77,0.51-2.79,0.51c-1.02,0-1.95-0.17-2.79-0.51s-1.56-0.81-2.16-1.42c-0.6-0.6-1.06-1.31-1.39-2.13
				c-0.33-0.82-0.49-1.7-0.49-2.65c0-0.95,0.16-1.83,0.49-2.65c0.33-0.82,0.79-1.52,1.39-2.12c0.6-0.6,1.32-1.07,2.16-1.41
				s1.77-0.51,2.79-0.51c1.02,0,1.95,0.17,2.79,0.52s1.55,0.82,2.15,1.42c0.59,0.6,1.05,1.31,1.38,2.12
				C266.74,295.85,266.9,296.73,266.9,297.67z M263.79,297.67c0-0.65-0.08-1.23-0.25-1.75c-0.17-0.52-0.41-0.96-0.72-1.32
				c-0.32-0.36-0.7-0.64-1.16-0.83s-0.97-0.29-1.56-0.29c-0.59,0-1.11,0.1-1.57,0.29s-0.85,0.47-1.16,0.83s-0.56,0.8-0.72,1.32
				c-0.17,0.52-0.25,1.1-0.25,1.75c0,0.65,0.08,1.24,0.25,1.76c0.17,0.52,0.41,0.96,0.72,1.32c0.32,0.36,0.7,0.63,1.16,0.82
				c0.46,0.19,0.98,0.28,1.57,0.28c0.58,0,1.1-0.09,1.56-0.28c0.46-0.19,0.84-0.46,1.16-0.82c0.31-0.36,0.56-0.8,0.72-1.32
				C263.71,298.91,263.79,298.33,263.79,297.67z"/>
		</g>
		<g>
			<path class="st8" d="M280.32,304.23h-2.75c-0.51,0-0.88-0.19-1.1-0.58l-2.18-3.81c-0.1-0.16-0.22-0.28-0.34-0.36
				s-0.31-0.11-0.54-0.11h-0.77v4.85h-3.04v-13.11h4.27c0.95,0,1.76,0.1,2.43,0.29c0.67,0.2,1.21,0.47,1.64,0.81
				s0.73,0.76,0.92,1.23c0.19,0.47,0.29,0.99,0.29,1.55c0,0.43-0.06,0.83-0.17,1.21c-0.11,0.38-0.28,0.73-0.5,1.05
				c-0.22,0.32-0.5,0.61-0.82,0.86s-0.7,0.46-1.13,0.62c0.2,0.1,0.38,0.23,0.56,0.38c0.17,0.15,0.33,0.33,0.47,0.54L280.32,304.23z
				 M273.86,297.28c0.41,0,0.77-0.05,1.06-0.16c0.29-0.1,0.53-0.25,0.71-0.44c0.19-0.19,0.32-0.4,0.41-0.65s0.13-0.52,0.13-0.81
				c0-0.58-0.19-1.03-0.56-1.35c-0.38-0.32-0.96-0.49-1.74-0.49h-1.22v3.89H273.86z"/>
		</g>
		<g>
			<path class="st8" d="M294.23,297.67c0,0.95-0.16,1.82-0.49,2.62s-0.79,1.49-1.38,2.08s-1.31,1.04-2.15,1.37s-1.77,0.49-2.79,0.49
				h-5.09v-13.11h5.09c1.02,0,1.95,0.17,2.79,0.5s1.55,0.79,2.15,1.37s1.05,1.27,1.38,2.07
				C294.07,295.86,294.23,296.73,294.23,297.67z M291.11,297.67c0-0.65-0.08-1.23-0.25-1.76c-0.17-0.52-0.41-0.96-0.72-1.33
				c-0.31-0.36-0.7-0.64-1.16-0.84s-0.97-0.29-1.56-0.29h-2.03v8.43h2.03c0.58,0,1.1-0.1,1.56-0.29c0.46-0.19,0.84-0.47,1.16-0.84
				c0.32-0.36,0.56-0.81,0.72-1.33C291.03,298.91,291.11,298.33,291.11,297.67z"/>
		</g>
	</g>
</g>
<g>
	<g>
		<g>
			<path class="st19" d="M120.5,341.15c-0.77,0-1.54-0.29-2.12-0.88l-19.8-19.8c-0.56-0.56-0.88-1.33-0.88-2.12s0.32-1.56,0.88-2.12
				l5.66-5.66c0.56-0.56,1.33-0.88,2.12-0.88s1.56,0.32,2.12,0.88l19.8,19.8c1.17,1.17,1.17,3.07,0,4.24l-5.66,5.66
				C122.03,340.86,121.26,341.15,120.5,341.15z"/>
		</g>
		<g>
			<path class="st1" d="M106.36,312.7l19.8,19.8l-5.66,5.66l-19.8-19.8L106.36,312.7 M106.36,306.7c-1.54,0-3.07,0.59-4.24,1.76
				l-5.66,5.66c-1.13,1.13-1.76,2.65-1.76,4.24c0,1.59,0.63,3.12,1.76,4.24l19.8,19.8c1.17,1.17,2.71,1.76,4.24,1.76
				c1.54,0,3.07-0.59,4.24-1.76l5.66-5.66c2.34-2.34,2.34-6.14,0-8.49l-19.8-19.8C109.43,307.28,107.89,306.7,106.36,306.7
				L106.36,306.7z"/>
		</g>
	</g>
	<g>
		
			<rect x="108.37" y="320.87" transform="matrix(0.7071 -0.7071 0.7071 0.7071 -196.45 174.4591)" class="st20" width="8" height="7"/>
	</g>
	<g>
		<g>
			<path class="st19" d="M71,336c-14.16,0-27.47-5.51-37.48-15.52c-20.66-20.67-20.66-54.29,0-74.95C43.53,235.51,56.84,230,71,230
				c14.16,0,27.47,5.51,37.48,15.52c20.67,20.66,20.67,54.29,0,74.95C98.47,330.49,85.16,336,71,336z"/>
		</g>
		<g>
			<path class="st1" d="M71,233c12.8,0,25.59,4.88,35.36,14.64c19.53,19.53,19.53,51.18,0,70.71C96.59,328.12,83.8,333,71,333
				s-25.59-4.88-35.36-14.64c-19.53-19.53-19.53-51.18,0-70.71C45.41,237.88,58.2,233,71,233 M71,227c-14.96,0-29.02,5.83-39.6,16.4
				C20.83,253.98,15,268.04,15,283c0,14.96,5.83,29.02,16.4,39.6C41.98,333.17,56.04,339,71,339c14.96,0,29.02-5.83,39.6-16.4
				c10.58-10.58,16.4-24.64,16.4-39.6c0-14.96-5.83-29.02-16.4-39.6C100.02,232.83,85.96,227,71,227L71,227z"/>
		</g>
	</g>
	<g>
		<g>
			<path class="st21" d="M71,321c-10.15,0-19.69-3.95-26.87-11.13c-14.82-14.82-14.82-38.92,0-53.74C51.31,248.95,60.85,245,71,245
				s19.69,3.95,26.87,11.13c14.82,14.82,14.82,38.92,0,53.74C90.69,317.05,81.15,321,71,321z"/>
		</g>
		<g>
			<path class="st1" d="M71,248c8.96,0,17.91,3.42,24.75,10.25c13.67,13.67,13.67,35.83,0,49.5C88.91,314.58,79.96,318,71,318
				s-17.91-3.42-24.75-10.25c-13.67-13.67-13.67-35.83,0-49.5C53.09,251.42,62.04,248,71,248 M71,242
				c-10.95,0-21.25,4.26-28.99,12.01C34.26,261.75,30,272.05,30,283c0,10.95,4.26,21.25,12.01,28.99C49.75,319.74,60.05,324,71,324
				c10.95,0,21.25-4.26,28.99-12.01C107.74,304.25,112,293.95,112,283c0-10.95-4.26-21.25-12.01-28.99
				C92.25,246.26,81.95,242,71,242L71,242z"/>
		</g>
	</g>
	<g>
		<g>
			<path class="st22" d="M49.79,261.79c-13.07,13.07-13.63,33.91-1.7,47.66c-0.63-0.54-1.24-1.1-1.84-1.7
				c-13.67-13.67-13.67-35.83,0-49.5s35.83-13.67,49.5,0c0.6,0.6,1.15,1.21,1.7,1.84C83.7,248.15,62.86,248.71,49.79,261.79z"/>
		</g>
	</g>
	<g>
		<g>
			<path class="st5" d="M149.49,377.22c-0.77,0-1.54-0.29-2.12-0.88l-32.53-32.53c-0.56-0.56-0.88-1.33-0.88-2.12
				s0.32-1.56,0.88-2.12l12.73-12.73c0.56-0.56,1.33-0.88,2.12-0.88s1.56,0.32,2.12,0.88l32.53,32.53c1.17,1.17,1.17,3.07,0,4.24
				l-12.73,12.73C151.02,376.92,150.26,377.22,149.49,377.22z"/>
		</g>
		<g>
			<path class="st1" d="M129.69,328.96l32.53,32.53l-12.73,12.73l-32.53-32.53L129.69,328.96 M129.69,322.96
				c-1.54,0-3.07,0.59-4.24,1.76l-12.73,12.73c-2.34,2.34-2.34,6.14,0,8.49l32.53,32.53c1.17,1.17,2.71,1.76,4.24,1.76
				c1.54,0,3.07-0.59,4.24-1.76l12.73-12.73c2.34-2.34,2.34-6.14,0-8.49l-32.53-32.53C132.76,323.55,131.23,322.96,129.69,322.96
				L129.69,322.96z"/>
		</g>
	</g>
	<g>
		<g>
			<path class="st23" d="M121.2,348.93c-0.8,0-1.56-0.32-2.12-0.88l-4.24-4.24c-1.17-1.17-1.17-3.07,0-4.24l12.73-12.73
				c0.59-0.59,1.35-0.88,2.12-0.88s1.54,0.29,2.12,0.88l4.24,4.24c0.56,0.56,0.88,1.33,0.88,2.12s-0.32,1.56-0.88,2.12l-12.73,12.73
				C122.76,348.62,122,348.93,121.2,348.93L121.2,348.93z"/>
		</g>
		<g>
			<path class="st1" d="M129.69,328.96l4.24,4.24l-12.73,12.73l-4.24-4.24L129.69,328.96 M129.69,322.96
				c-1.54,0-3.07,0.59-4.24,1.76l-12.73,12.73c-2.34,2.34-2.34,6.14,0,8.49l4.24,4.24c1.17,1.17,2.71,1.76,4.24,1.76
				c1.54,0,3.07-0.59,4.24-1.76l12.73-12.73c1.13-1.13,1.76-2.65,1.76-4.24s-0.63-3.12-1.76-4.24l-4.24-4.24
				C132.76,323.55,131.23,322.96,129.69,322.96L129.69,322.96z"/>
		</g>
	</g>
	<g>
		<g>
			<path class="st1" d="M87.97,288.8c-0.32,0-0.64-0.08-0.94-0.24c-1.89-1.02-5.22-1.02-7.11,0c-0.97,0.52-2.19,0.16-2.71-0.82
				c-0.52-0.97-0.16-2.19,0.82-2.71c3.05-1.64,7.84-1.64,10.89,0c0.97,0.52,1.34,1.73,0.82,2.71
				C89.37,288.42,88.68,288.8,87.97,288.8z"/>
		</g>
		<g>
			<g>
				<circle class="st1" cx="83.47" cy="279.05" r="7"/>
			</g>
			<g>
				<circle class="st8" cx="85.22" cy="279.05" r="1.75"/>
			</g>
		</g>
		<g>
			<path class="st1" d="M78.49,264.04c0.61-0.55,1.11-0.88,1.72-1.22c0.6-0.32,1.22-0.59,1.88-0.8c1.32-0.41,2.78-0.57,4.26-0.39
				c1.48,0.15,2.99,0.73,4.21,1.63c1.26,0.87,2.13,2.1,2.67,3.38c0.44,1.04-0.05,2.24-1.1,2.68c-0.53,0.22-1.09,0.2-1.58,0
				l-0.45-0.19c-0.94-0.4-1.64-0.83-2.38-1.03c-0.71-0.25-1.37-0.43-2.13-0.52c-0.74-0.1-1.56-0.14-2.44-0.12
				c-0.44,0.01-0.91,0.02-1.37,0.06c-0.46,0.01-1,0.09-1.39,0.05l-0.78-0.08c-1.09-0.11-1.88-1.08-1.77-2.16
				C77.89,264.81,78.14,264.36,78.49,264.04z"/>
		</g>
		<g>
			<path class="st1" d="M61.97,288.8c-0.32,0-0.64-0.08-0.94-0.24c-1.89-1.02-5.22-1.02-7.11,0c-0.97,0.52-2.19,0.16-2.71-0.82
				s-0.16-2.19,0.82-2.71c3.05-1.64,7.84-1.64,10.89,0c0.97,0.52,1.34,1.73,0.82,2.71C63.37,288.42,62.68,288.8,61.97,288.8z"/>
		</g>
		<g>
			<g>
				<circle class="st1" cx="57.47" cy="279.05" r="7"/>
			</g>
			<g>
				<circle class="st8" cx="59.22" cy="279.05" r="1.75"/>
			</g>
		</g>
		<g>
			<path class="st1" d="M60.54,267.56c-0.39,0.04-0.94-0.05-1.39-0.05c-0.47-0.04-0.93-0.05-1.37-0.06
				c-0.89-0.02-1.7,0.02-2.44,0.12c-0.75,0.09-1.41,0.28-2.13,0.52c-0.74,0.21-1.43,0.64-2.38,1.03l-0.45,0.19
				c-1.04,0.44-2.24-0.05-2.68-1.09c-0.22-0.53-0.2-1.1,0-1.59c0.54-1.28,1.41-2.51,2.67-3.38c1.21-0.9,2.72-1.48,4.21-1.63
				c1.49-0.18,2.95-0.02,4.26,0.39c0.66,0.21,1.29,0.48,1.88,0.8c0.61,0.34,1.11,0.68,1.72,1.22c0.81,0.73,0.88,1.98,0.16,2.79
				c-0.34,0.38-0.8,0.6-1.27,0.65L60.54,267.56z"/>
		</g>
	</g>
	<g>
		<path class="st1" d="M70.81,299.08c-4.96,0-10.04-1.43-14.43-4.31c-0.92-0.6-1.18-1.84-0.58-2.77c0.6-0.92,1.84-1.18,2.77-0.58
			c7.35,4.8,17.32,4.82,23.71,0.03c0.88-0.66,2.14-0.48,2.8,0.4c0.66,0.88,0.48,2.14-0.4,2.8C80.74,297.6,75.83,299.08,70.81,299.08
			z"/>
	</g>
	<g>
		<path class="st1" d="M66.29,301.73c1.35,0.43,2.77,0.57,4.18,0.62c0.71,0.03,1.41-0.07,2.11-0.15c0.7-0.09,1.39-0.24,2.05-0.47
			c0.69-0.24,1.45,0.13,1.68,0.82c0.17,0.48,0.04,1-0.29,1.34l-0.72,0.76c-0.67,0.71-1.48,1.09-2.3,1.37
			c-0.83,0.24-1.69,0.36-2.54,0.31c-0.43-0.02-0.85-0.04-1.27-0.13c-0.42-0.06-0.84-0.17-1.25-0.3c-0.81-0.27-1.6-0.64-2.3-1.25
			l-0.67-0.59c-0.57-0.5-0.63-1.37-0.13-1.94C65.21,301.71,65.79,301.57,66.29,301.73z"/>
	</g>
</g>
<g>
	<circle class="st23" cx="371" cy="319" r="4"/>
</g>
<path class="st23" d="M227,369h-6v-6c0-1.66-1.34-3-3-3s-3,1.34-3,3v6h-6c-1.66,0-3,1.34-3,3s1.34,3,3,3h6v6c0,1.66,1.34,3,3,3
	s3-1.34,3-3v-6h6c1.66,0,3-1.34,3-3S228.66,369,227,369z"/>
<path class="st23" d="M109,30h-6v-6c0-1.66-1.34-3-3-3s-3,1.34-3,3v6h-6c-1.66,0-3,1.34-3,3s1.34,3,3,3h6v6c0,1.66,1.34,3,3,3
	s3-1.34,3-3v-6h6c1.66,0,3-1.34,3-3S110.66,30,109,30z"/>
<g>
	<circle class="st23" cx="102" cy="209" r="5"/>
</g>
<g>
	<g>
		<path class="st23" d="M318,346c3.31,0,6-2.69,6-6c0-1.1,0.9-2,2-2s2,0.9,2,2c0,3.31,2.69,6,6,6c1.1,0,2,0.9,2,2s-0.9,2-2,2
			c-3.31,0-6,2.69-6,6c0,1.1-0.9,2-2,2s-2-0.9-2-2c0-3.31-2.69-6-6-6c-1.1,0-2-0.9-2-2S316.9,346,318,346z"/>
	</g>
</g>
<g>
	<circle class="st23" cx="190" cy="344" r="3"/>
</g>
<g>
	<g>
		<path class="st23" d="M46.2,185.8c3.64,0,6.6-2.96,6.6-6.6c0-1.21,0.99-2.2,2.2-2.2s2.2,0.99,2.2,2.2c0,3.64,2.96,6.6,6.6,6.6
			c1.21,0,2.2,0.99,2.2,2.2s-0.99,2.2-2.2,2.2c-3.64,0-6.6,2.96-6.6,6.6c0,1.21-0.99,2.2-2.2,2.2s-2.2-0.99-2.2-2.2
			c0-3.64-2.96-6.6-6.6-6.6c-1.21,0-2.2-0.99-2.2-2.2S44.99,185.8,46.2,185.8z"/>
	</g>
</g>
<g>
	<g>
		<circle class="st23" cx="66" cy="62" r="4"/>
	</g>
</g>
<g class="st24">
	<rect class="st25" width="400" height="400"/>
</g>
</svg>
