<?xml version="1.0" encoding="utf-8"?>
<!-- Generator: Adobe Illustrator 26.2.1, SVG Export Plug-In . SVG Version: 6.00 Build 0)  -->
<svg version="1.1" id="PPC_x5F_Hub-Decrease_x5F_CPC"
	 xmlns="http://www.w3.org/2000/svg" xmlns:xlink="http://www.w3.org/1999/xlink" x="0px" y="0px" viewBox="0 0 400 400"
	 style="enable-background:new 0 0 400 400;" xml:space="preserve">
<style type="text/css">
	.st0{fill:none;}
	.st1{fill:#FFD886;}
	.st2{fill:#FFFFFF;}
	.st3{fill:#515979;}
	.st4{fill:#667683;}
	.st5{fill:#EF7D7D;}
	.st6{fill:#FFE8A0;}
	.st7{fill:#7DDF96;}
	.st8{fill:#BEEFCA;}
	.st9{fill:#FAD8D8;}
	.st10{fill:#3CB48C;}
	.st11{fill:#F89D81;}
	.st12{fill:#FDE1D9;}
	.st13{fill:#2196F3;}
	.st14{fill:#00C853;}
	.st15{fill:#D8EBFB;}
</style>
<rect y="0" class="st0" width="400" height="400"/>
<path class="st1" d="M27.8,325.2c2.98,0,5.4-2.42,5.4-5.4c0-0.99,0.81-1.8,1.8-1.8s1.8,0.81,1.8,1.8c0,2.98,2.42,5.4,5.4,5.4
	c0.99,0,1.8,0.81,1.8,1.8s-0.81,1.8-1.8,1.8c-2.98,0-5.4,2.42-5.4,5.4c0,0.99-0.81,1.8-1.8,1.8s-1.8-0.81-1.8-1.8
	c0-2.98-2.42-5.4-5.4-5.4c-0.99,0-1.8-0.81-1.8-1.8S26.81,325.2,27.8,325.2z"/>
<path class="st1" d="M279.8,31.2c2.98,0,5.4-2.42,5.4-5.4c0-0.99,0.81-1.8,1.8-1.8s1.8,0.81,1.8,1.8c0,2.98,2.42,5.4,5.4,5.4
	c0.99,0,1.8,0.81,1.8,1.8s-0.81,1.8-1.8,1.8c-2.98,0-5.4,2.42-5.4,5.4c0,0.99-0.81,1.8-1.8,1.8s-1.8-0.81-1.8-1.8
	c0-2.98-2.42-5.4-5.4-5.4c-0.99,0-1.8-0.81-1.8-1.8S278.81,31.2,279.8,31.2z"/>
<circle class="st1" cx="80.5" cy="280.5" r="4.5"/>
<circle class="st1" cx="340.5" cy="56.5" r="4.5"/>
<circle class="st1" cx="295" cy="311" r="5"/>
<circle class="st1" cx="85" cy="339" r="3"/>
<circle class="st1" cx="343" cy="319" r="3"/>
<path class="st1" d="M358,262h-6v-6c0-1.66-1.34-3-3-3s-3,1.34-3,3v6h-6c-1.66,0-3,1.34-3,3s1.34,3,3,3h6v6c0,1.66,1.34,3,3,3
	s3-1.34,3-3v-6h6c1.66,0,3-1.34,3-3S359.66,262,358,262z"/>
<path class="st2" d="M28,234c-7.17,0-13-5.83-13-13V51c0-7.17,5.83-13,13-13h200c7.17,0,13,5.83,13,13v170c0,7.17-5.83,13-13,13H28z
	"/>
<path class="st3" d="M228,41c5.52,0,10,4.48,10,10v170c0,5.52-4.48,10-10,10H28c-5.52,0-10-4.48-10-10V51c0-5.52,4.48-10,10-10H228
	 M228,35H28c-8.82,0-16,7.18-16,16v170c0,8.82,7.18,16,16,16h200c8.82,0,16-7.18,16-16V51C244,42.18,236.82,35,228,35L228,35z"/>
<path class="st4" d="M18,72c-1.66,0-3-1.34-3-3V51c0-7.17,5.83-13,13-13h200c7.17,0,13,5.83,13,13v18c0,1.66-1.34,3-3,3H18z"/>
<path class="st3" d="M228,41c5.52,0,10,4.48,10,10v18H18V51c0-5.52,4.48-10,10-10H228 M228,35H28c-8.82,0-16,7.18-16,16v18
	c0,3.31,2.69,6,6,6h220c3.31,0,6-2.69,6-6V51C244,42.18,236.82,35,228,35L228,35z"/>
<path class="st2" d="M108,62c-3.86,0-7-3.14-7-7s3.14-7,7-7h114c3.86,0,7,3.14,7,7s-3.14,7-7,7H108z"/>
<path class="st3" d="M222,51c2.21,0,4,1.79,4,4s-1.79,4-4,4H108c-2.21,0-4-1.79-4-4s1.79-4,4-4H222 M222,45H108
	c-5.51,0-10,4.49-10,10s4.49,10,10,10h114c5.51,0,10-4.49,10-10S227.51,45,222,45L222,45z"/>
<circle class="st5" cx="34" cy="55" r="7"/>
<path class="st3" d="M34,51c2.21,0,4,1.79,4,4s-1.79,4-4,4s-4-1.79-4-4S31.79,51,34,51 M34,45c-5.51,0-10,4.49-10,10s4.49,10,10,10
	s10-4.49,10-10S39.51,45,34,45L34,45z"/>
<circle class="st6" cx="58" cy="55" r="7"/>
<path class="st3" d="M58,51c2.21,0,4,1.79,4,4s-1.79,4-4,4s-4-1.79-4-4S55.79,51,58,51 M58,45c-5.51,0-10,4.49-10,10s4.49,10,10,10
	s10-4.49,10-10S63.51,45,58,45L58,45z"/>
<circle class="st7" cx="82" cy="55" r="7"/>
<path class="st3" d="M82,51c2.21,0,4,1.79,4,4s-1.79,4-4,4s-4-1.79-4-4S79.79,51,82,51 M82,45c-5.51,0-10,4.49-10,10s4.49,10,10,10
	s10-4.49,10-10S87.51,45,82,45L82,45z"/>
<circle class="st8" cx="134" cy="166" r="20"/>
<polygon class="st9" points="226,184 215,167 209,171 203,162 197,166 191,158 185,162 176,151 176,184 "/>
<path class="st5" d="M226,186c-0.66,0-1.3-0.32-1.68-0.91l-9.9-15.3l-4.31,2.88c-0.92,0.61-2.16,0.36-2.77-0.55l-4.89-7.34
	l-4.34,2.89c-0.88,0.59-2.07,0.38-2.71-0.46l-4.86-6.49l-4.43,2.95c-0.86,0.57-2.01,0.4-2.66-0.4l-9-11
	c-0.7-0.85-0.57-2.12,0.28-2.81c0.85-0.7,2.11-0.57,2.81,0.28l7.85,9.6l4.49-2.99c0.88-0.59,2.07-0.38,2.71,0.46l4.86,6.49
	l4.43-2.95c0.92-0.61,2.16-0.36,2.77,0.55l4.89,7.34l4.34-2.89c0.45-0.3,1-0.4,1.51-0.29c0.52,0.11,0.98,0.42,1.27,0.87l11,17
	c0.6,0.93,0.33,2.17-0.59,2.77C226.75,185.9,226.37,186,226,186z"/>
<path class="st3" d="M176,180.5h-6c-0.83,0-1.5-0.67-1.5-1.5s0.67-1.5,1.5-1.5h6c0.83,0,1.5,0.67,1.5,1.5S176.83,180.5,176,180.5z"
	/>
<path class="st3" d="M176,170.5h-6c-0.83,0-1.5-0.67-1.5-1.5s0.67-1.5,1.5-1.5h6c0.83,0,1.5,0.67,1.5,1.5S176.83,170.5,176,170.5z"
	/>
<path class="st3" d="M176,160.5h-6c-0.83,0-1.5-0.67-1.5-1.5s0.67-1.5,1.5-1.5h6c0.83,0,1.5,0.67,1.5,1.5S176.83,160.5,176,160.5z"
	/>
<path class="st3" d="M176,150.5h-6c-0.83,0-1.5-0.67-1.5-1.5s0.67-1.5,1.5-1.5h6c0.83,0,1.5,0.67,1.5,1.5S176.83,150.5,176,150.5z"
	/>
<path class="st3" d="M221,191.5c-0.83,0-1.5-0.67-1.5-1.5v-6c0-0.83,0.67-1.5,1.5-1.5s1.5,0.67,1.5,1.5v6
	C222.5,190.83,221.83,191.5,221,191.5z"/>
<path class="st3" d="M211,191.5c-0.83,0-1.5-0.67-1.5-1.5v-6c0-0.83,0.67-1.5,1.5-1.5s1.5,0.67,1.5,1.5v6
	C212.5,190.83,211.83,191.5,211,191.5z"/>
<path class="st3" d="M201,191.5c-0.83,0-1.5-0.67-1.5-1.5v-6c0-0.83,0.67-1.5,1.5-1.5c0.83,0,1.5,0.67,1.5,1.5v6
	C202.5,190.83,201.83,191.5,201,191.5z"/>
<path class="st3" d="M191,191.5c-0.83,0-1.5-0.67-1.5-1.5v-6c0-0.83,0.67-1.5,1.5-1.5s1.5,0.67,1.5,1.5v6
	C192.5,190.83,191.83,191.5,191,191.5z"/>
<path class="st3" d="M181,191.5c-0.83,0-1.5-0.67-1.5-1.5v-6c0-0.83,0.67-1.5,1.5-1.5s1.5,0.67,1.5,1.5v6
	C182.5,190.83,181.83,191.5,181,191.5z"/>
<path class="st3" d="M226,186h-50c-1.1,0-2-0.9-2-2v-40c0-1.1,0.9-2,2-2s2,0.9,2,2v38h48c1.1,0,2,0.9,2,2S227.1,186,226,186z"/>
<path class="st3" d="M222,204h-36c-1.1,0-2-0.9-2-2v0c0-1.1,0.9-2,2-2h36c1.1,0,2,0.9,2,2v0C224,203.1,223.1,204,222,204z"/>
<circle class="st5" cx="177" cy="202" r="3"/>
<path class="st3" d="M208,212h-22c-1.1,0-2-0.9-2-2v0c0-1.1,0.9-2,2-2h22c1.1,0,2,0.9,2,2v0C210,211.1,209.1,212,208,212z"/>
<path class="st3" d="M154,204h-30c-1.1,0-2-0.9-2-2v0c0-1.1,0.9-2,2-2h30c1.1,0,2,0.9,2,2v0C156,203.1,155.1,204,154,204z"/>
<circle class="st10" cx="115" cy="202" r="3"/>
<path class="st3" d="M144,212h-20c-1.1,0-2-0.9-2-2v0c0-1.1,0.9-2,2-2h20c1.1,0,2,0.9,2,2v0C146,211.1,145.1,212,144,212z"/>
<circle class="st8" cx="115" cy="210" r="3"/>
<path class="st3" d="M35,174.5h-6c-0.83,0-1.5-0.67-1.5-1.5s0.67-1.5,1.5-1.5h6c0.83,0,1.5,0.67,1.5,1.5S35.83,174.5,35,174.5z"/>
<path class="st3" d="M35,162.5h-6c-0.83,0-1.5-0.67-1.5-1.5s0.67-1.5,1.5-1.5h6c0.83,0,1.5,0.67,1.5,1.5S35.83,162.5,35,162.5z"/>
<path class="st3" d="M35,150.5h-6c-0.83,0-1.5-0.67-1.5-1.5s0.67-1.5,1.5-1.5h6c0.83,0,1.5,0.67,1.5,1.5S35.83,150.5,35,150.5z"/>
<path class="st3" d="M61,191.5c-0.83,0-1.5-0.67-1.5-1.5v-6c0-0.83,0.67-1.5,1.5-1.5s1.5,0.67,1.5,1.5v6
	C62.5,190.83,61.83,191.5,61,191.5z"/>
<path class="st3" d="M46,191.5c-0.83,0-1.5-0.67-1.5-1.5v-6c0-0.83,0.67-1.5,1.5-1.5s1.5,0.67,1.5,1.5v6
	C47.5,190.83,46.83,191.5,46,191.5z"/>
<path class="st3" d="M81,204H45c-1.1,0-2-0.9-2-2v0c0-1.1,0.9-2,2-2h36c1.1,0,2,0.9,2,2v0C83,203.1,82.1,204,81,204z"/>
<circle class="st11" cx="36" cy="202" r="3"/>
<path class="st3" d="M61,212H45c-1.1,0-2-0.9-2-2v0c0-1.1,0.9-2,2-2h16c1.1,0,2,0.9,2,2v0C63,211.1,62.1,212,61,212z"/>
<circle class="st1" cx="36" cy="210" r="3"/>
<rect x="40" y="150" class="st11" width="6" height="34"/>
<rect x="46" y="148" class="st1" width="6" height="36"/>
<rect x="55" y="154" class="st11" width="6" height="30"/>
<rect x="61" y="159" class="st1" width="6" height="25"/>
<path class="st3" d="M76,191.5c-0.83,0-1.5-0.67-1.5-1.5v-6c0-0.83,0.67-1.5,1.5-1.5s1.5,0.67,1.5,1.5v6
	C77.5,190.83,76.83,191.5,76,191.5z"/>
<rect x="70" y="164" class="st11" width="6" height="20"/>
<rect x="76" y="168" class="st1" width="6" height="16"/>
<path class="st3" d="M91,191.5c-0.83,0-1.5-0.67-1.5-1.5v-6c0-0.83,0.67-1.5,1.5-1.5s1.5,0.67,1.5,1.5v6
	C92.5,190.83,91.83,191.5,91,191.5z"/>
<rect x="85" y="174" class="st11" width="6" height="10"/>
<rect x="91" y="172" class="st1" width="6" height="12"/>
<path class="st3" d="M100,186H35c-1.1,0-2-0.9-2-2v-40c0-1.1,0.9-2,2-2s2,0.9,2,2v38h63c1.1,0,2,0.9,2,2S101.1,186,100,186z"/>
<path class="st10" d="M134,143v23h23C157,153.3,146.7,143,134,143z"/>
<circle class="st12" cx="90" cy="110.69" r="2.5"/>
<circle class="st12" cx="95.5" cy="121.69" r="2.5"/>
<circle class="st12" cx="84.5" cy="121.69" r="2.5"/>
<circle class="st12" cx="166" cy="110.69" r="2.5"/>
<circle class="st12" cx="171.5" cy="121.69" r="2.5"/>
<circle class="st12" cx="160.5" cy="121.69" r="2.5"/>
<path class="st3" d="M127.91,123c-5.52,0-11.04-0.86-16.51-2.58c-1.05-0.33-1.64-1.45-1.31-2.51c0.33-1.05,1.45-1.64,2.51-1.31
	c10.22,3.21,20.58,3.19,30.79-0.05c1.05-0.33,2.18,0.25,2.51,1.3c0.33,1.05-0.25,2.18-1.3,2.51C139.07,122.12,133.49,123,127.91,123
	z"/>
<path class="st3" d="M123.82,126.59c2.7,0.79,5.66,0.86,8.34,0c1.29-0.47,2.34,1.21,1.39,2.17c0,0-0.72,0.76-0.72,0.76
	c-2.84,2.68-7.68,2.05-10.33-0.58C121.38,127.98,122.45,126.12,123.82,126.59L123.82,126.59z"/>
<path class="st3" d="M148.5,113.78c-0.32,0-0.64-0.08-0.94-0.24c-1.89-1.02-5.22-1.02-7.11,0c-0.97,0.52-2.19,0.16-2.71-0.82
	c-0.52-0.97-0.16-2.19,0.82-2.71c3.05-1.64,7.84-1.64,10.89,0c0.97,0.52,1.34,1.73,0.82,2.71
	C149.9,113.4,149.21,113.78,148.5,113.78z"/>
<circle class="st3" cx="144" cy="103.03" r="8"/>
<circle class="st2" cx="146" cy="103.03" r="2"/>
<path class="st3" d="M138.14,86.72c3.68-3.11,9.5-3.68,13.48-0.8c1.83,1.3,4.9,4.78,2.04,6.4c-0.73,0.35-1.49,0.16-2.13-0.21
	c-3.12-1.93-6.26-2.5-9.86-2.01c-0.77,0.07-1.51,0.18-2.23,0.14C137.6,90.27,136.74,87.85,138.14,86.72L138.14,86.72z"/>
<path class="st3" d="M116.5,113.78c-0.32,0-0.64-0.08-0.94-0.24c-1.89-1.02-5.22-1.02-7.11,0c-0.97,0.52-2.19,0.16-2.71-0.82
	c-0.52-0.97-0.16-2.19,0.82-2.71c3.05-1.64,7.84-1.64,10.89,0c0.97,0.52,1.34,1.73,0.82,2.71
	C117.9,113.4,117.21,113.78,116.5,113.78z"/>
<circle class="st3" cx="112" cy="103.03" r="8"/>
<circle class="st2" cx="114" cy="103.03" r="2"/>
<path class="st3" d="M115.96,90.24c-2.9-0.28-6.02-0.65-8.74,0.51c-0.95,0.32-2.01,1.02-3.12,1.54c-1.68,0.88-3.57-1-2.75-2.68
	c1.9-4.63,7.88-6.6,12.45-5.07c1.95,0.65,6.2,2.34,4.3,4.99C117.55,90.2,116.73,90.28,115.96,90.24L115.96,90.24z"/>
<path class="st2" d="M265,209c-3.31,0-6-2.69-6-6V89c0-3.31,2.69-6,6-6h114c3.31,0,6,2.69,6,6v97c0,0.8-0.32,1.56-0.88,2.12l-20,20
	c-0.56,0.56-1.33,0.88-2.12,0.88H265z"/>
<path class="st3" d="M379,86c1.66,0,3,1.34,3,3v97l-20,20h-97c-1.66,0-3-1.34-3-3V89c0-1.66,1.34-3,3-3H379 M379,80H265
	c-4.96,0-9,4.04-9,9v114c0,4.96,4.04,9,9,9h97c1.59,0,3.12-0.63,4.24-1.76l20-20c1.13-1.13,1.76-2.65,1.76-4.24V89
	C388,84.04,383.96,80,379,80L379,80z"/>
<path class="st13" d="M348.5,151h-69c-1.38,0-2.5-1.12-2.5-2.5l0,0c0-1.38,1.12-2.5,2.5-2.5h69c1.38,0,2.5,1.12,2.5,2.5l0,0
	C351,149.88,349.88,151,348.5,151z"/>
<path class="st3" d="M334.5,171h-55c-1.38,0-2.5-1.12-2.5-2.5l0,0c0-1.38,1.12-2.5,2.5-2.5h55c1.38,0,2.5,1.12,2.5,2.5l0,0
	C337,169.88,335.88,171,334.5,171z"/>
<path class="st3" d="M344.5,181h-65c-1.38,0-2.5-1.12-2.5-2.5l0,0c0-1.38,1.12-2.5,2.5-2.5h65c1.38,0,2.5,1.12,2.5,2.5l0,0
	C347,179.88,345.88,181,344.5,181z"/>
<path class="st3" d="M324.5,191h-45c-1.38,0-2.5-1.12-2.5-2.5l0,0c0-1.38,1.12-2.5,2.5-2.5h45c1.38,0,2.5,1.12,2.5,2.5l0,0
	C327,189.88,325.88,191,324.5,191z"/>
<path class="st14" d="M348.5,161h-69c-1.38,0-2.5-1.12-2.5-2.5l0,0c0-1.38,1.12-2.5,2.5-2.5h69c1.38,0,2.5,1.12,2.5,2.5l0,0
	C351,159.88,349.88,161,348.5,161z"/>
<path class="st15" d="M362,209c-0.39,0-0.78-0.07-1.15-0.23c-1.12-0.46-1.85-1.56-1.85-2.77v-17c0-3.31,2.69-6,6-6h17
	c1.21,0,2.31,0.73,2.77,1.85c0.46,1.12,0.21,2.41-0.65,3.27l-20,20C363.55,208.7,362.78,209,362,209z"/>
<path class="st3" d="M382,186l-20,20v-17c0-1.66,1.34-3,3-3H382 M382,180h-17c-4.96,0-9,4.04-9,9v17c0,2.43,1.46,4.61,3.7,5.54
	c0.74,0.31,1.52,0.46,2.29,0.46c1.56,0,3.1-0.61,4.24-1.76l20-20c1.72-1.72,2.23-4.3,1.3-6.54C386.61,181.46,384.43,180,382,180
	L382,180z M382,192L382,192L382,192L382,192z"/>
<path class="st3" d="M337.53,115.59c-1.1,0-2-0.9-2-2c0-1.65-1.35-3-3-3s-3,1.35-3,3c0,1.1-0.9,2-2,2s-2-0.9-2-2c0-3.86,3.14-7,7-7
	s7,3.14,7,7C339.53,114.69,338.63,115.59,337.53,115.59z"/>
<path class="st3" d="M330.09,97.65c3.57-2.19,8.99-1.73,11.44,1.9c0.84,1.2-0.31,2.92-1.73,2.64c-1.57-0.27-2.86-0.63-4.4-0.83
	c-1.46-0.21-3.36-0.28-4.78-0.61C329.17,100.48,328.83,98.38,330.09,97.65L330.09,97.65z"/>
<path class="st3" d="M316.47,115.59c-1.1,0-2-0.9-2-2c0-1.65-1.35-3-3-3s-3,1.35-3,3c0,1.1-0.9,2-2,2s-2-0.9-2-2c0-3.86,3.14-7,7-7
	s7,3.14,7,7C318.47,114.69,317.58,115.59,316.47,115.59z"/>
<path class="st3" d="M312.94,100.84c-1.25,0.24-3.08,0.34-4.36,0.52c-1.54,0.19-2.82,0.55-4.39,0.82c-0.94,0.16-1.83-0.47-1.98-1.41
	c-0.07-0.44,0.03-0.87,0.25-1.22c1.79-2.76,5.51-3.65,8.57-3.02c1.01,0.21,1.9,0.51,2.88,1.12
	C315.39,98.65,314.66,100.72,312.94,100.84L312.94,100.84z"/>
<path class="st3" d="M334,119l-24,0c-1.06,0-2.08,0.42-2.83,1.17c-0.75,0.75-1.17,1.77-1.17,2.83c0,8.82,7.18,16,16,16
	c8.82,0,16-7.18,16-16C338,120.79,336.21,119,334,119z"/>
<path class="st5" d="M322,135c3.55,0,6.73-1.55,8.93-4c-2.2-2.45-5.38-4-8.93-4c-3.55,0-6.73,1.55-8.93,4
	C315.27,133.45,318.45,135,322,135z"/>
<circle class="st12" cx="348" cy="125" r="2"/>
<circle class="st12" cx="356" cy="125" r="2"/>
<circle class="st12" cx="352" cy="117" r="2"/>
<circle class="st12" cx="288" cy="125" r="2"/>
<circle class="st12" cx="296" cy="125" r="2"/>
<circle class="st12" cx="292" cy="117" r="2"/>
<path class="st2" d="M131,378c-3.31,0-6-2.69-6-6V258c0-3.31,2.69-6,6-6h114c3.31,0,6,2.69,6,6v97c0,0.8-0.32,1.56-0.88,2.12l-20,20
	c-0.56,0.56-1.33,0.88-2.12,0.88H131z"/>
<path class="st3" d="M245,255c1.66,0,3,1.34,3,3v97l-20,20h-97c-1.66,0-3-1.34-3-3V258c0-1.66,1.34-3,3-3H245 M245,249H131
	c-4.96,0-9,4.04-9,9v114c0,4.96,4.04,9,9,9h97c1.59,0,3.12-0.63,4.24-1.76l20-20c1.13-1.13,1.76-2.65,1.76-4.24v-97
	C254,253.04,249.96,249,245,249L245,249z"/>
<path class="st13" d="M220.5,320h-75c-1.38,0-2.5-1.12-2.5-2.5l0,0c0-1.38,1.12-2.5,2.5-2.5h75c1.38,0,2.5,1.12,2.5,2.5l0,0
	C223,318.88,221.88,320,220.5,320z"/>
<path class="st3" d="M210.5,340h-65c-1.38,0-2.5-1.12-2.5-2.5l0,0c0-1.38,1.12-2.5,2.5-2.5h65c1.38,0,2.5,1.12,2.5,2.5l0,0
	C213,338.88,211.88,340,210.5,340z"/>
<path class="st3" d="M196.5,350h-51c-1.38,0-2.5-1.12-2.5-2.5l0,0c0-1.38,1.12-2.5,2.5-2.5h51c1.38,0,2.5,1.12,2.5,2.5l0,0
	C199,348.88,197.88,350,196.5,350z"/>
<path class="st3" d="M180.5,360h-35c-1.38,0-2.5-1.12-2.5-2.5l0,0c0-1.38,1.12-2.5,2.5-2.5h35c1.38,0,2.5,1.12,2.5,2.5l0,0
	C183,358.88,181.88,360,180.5,360z"/>
<path class="st14" d="M202.5,330h-57c-1.38,0-2.5-1.12-2.5-2.5l0,0c0-1.38,1.12-2.5,2.5-2.5h57c1.38,0,2.5,1.12,2.5,2.5l0,0
	C205,328.88,203.88,330,202.5,330z"/>
<path class="st15" d="M228,378c-0.39,0-0.78-0.07-1.15-0.23c-1.12-0.46-1.85-1.56-1.85-2.77v-17c0-3.31,2.69-6,6-6h17
	c1.21,0,2.31,0.73,2.77,1.85c0.46,1.12,0.21,2.41-0.65,3.27l-20,20C229.55,377.7,228.78,378,228,378z"/>
<path class="st3" d="M248,355l-20,20v-17c0-1.66,1.34-3,3-3H248 M248,349h-17c-4.96,0-9,4.04-9,9v17c0,2.43,1.46,4.61,3.7,5.54
	c0.74,0.31,1.52,0.46,2.29,0.46c1.56,0,3.1-0.61,4.24-1.76l20-20c1.72-1.72,2.23-4.3,1.3-6.54C252.61,350.46,250.43,349,248,349
	L248,349z M248,361L248,361L248,361L248,361z"/>
<circle class="st12" cx="214" cy="294" r="2"/>
<circle class="st12" cx="222" cy="294" r="2"/>
<circle class="st12" cx="218" cy="286" r="2"/>
<circle class="st12" cx="154" cy="294" r="2"/>
<circle class="st12" cx="162" cy="294" r="2"/>
<circle class="st12" cx="158" cy="286" r="2"/>
<path class="st3" d="M203.03,288.78c-0.16,0-0.33-0.03-0.49-0.08c-1.6-0.55-4.42-0.55-6.02,0c-0.79,0.27-1.64-0.15-1.91-0.93
	c-0.27-0.78,0.15-1.64,0.93-1.91c2.24-0.77,5.74-0.77,7.98,0c0.78,0.27,1.2,1.12,0.93,1.91
	C204.23,288.39,203.65,288.78,203.03,288.78z"/>
<circle class="st3" cx="199.53" cy="280.59" r="6"/>
<circle class="st2" cx="201.03" cy="280.59" r="1.5"/>
<path class="st3" d="M196.09,266.65c3.57-2.19,8.99-1.73,11.44,1.9c0.84,1.2-0.31,2.92-1.73,2.64c-1.57-0.27-2.86-0.63-4.4-0.83
	c-1.46-0.21-3.36-0.28-4.78-0.61C195.17,269.48,194.83,267.38,196.09,266.65L196.09,266.65z"/>
<path class="st3" d="M172.97,288.78c-0.62,0-1.2-0.39-1.42-1.01c-0.27-0.78,0.15-1.64,0.93-1.91c2.24-0.77,5.74-0.77,7.98,0
	c0.78,0.27,1.2,1.12,0.93,1.91c-0.27,0.78-1.12,1.2-1.91,0.93c-1.6-0.55-4.42-0.55-6.02,0C173.3,288.75,173.14,288.78,172.97,288.78
	z"/>
<circle class="st3" cx="176.47" cy="280.59" r="6"/>
<circle class="st2" cx="177.97" cy="280.59" r="1.5"/>
<path class="st3" d="M178.94,269.84c-1.25,0.24-3.08,0.34-4.36,0.52c-1.54,0.19-2.82,0.55-4.39,0.82c-0.94,0.16-1.83-0.47-1.98-1.41
	c-0.07-0.44,0.03-0.87,0.25-1.22c1.79-2.76,5.51-3.65,8.57-3.02c1.01,0.21,1.9,0.51,2.88,1.12
	C181.39,267.65,180.66,269.72,178.94,269.84L178.94,269.84z"/>
<path class="st3" d="M188.31,299.97c-4.55,0-9.21-1.07-13.25-3.21c-0.98-0.52-1.35-1.73-0.83-2.71c0.52-0.97,1.73-1.35,2.7-0.83
	c6.83,3.63,16.09,3.64,22.02,0.03c0.94-0.58,2.17-0.28,2.75,0.67c0.57,0.94,0.28,2.17-0.67,2.75
	C197.43,298.87,192.93,299.97,188.31,299.97z"/>
<path class="st3" d="M184.26,303.08c1.83,0.47,3.76,0.6,5.63,0.36c1.17-0.03,2.9-1.11,3.45,0.49c0.33,0.86-0.59,1.55-1.07,2.1
	c-0.61,0.66-1.32,1-2.04,1.25c-2.2,0.61-4.68,0.25-6.48-1.25c0,0-0.74-0.66-0.74-0.66C181.94,304.46,182.93,302.68,184.26,303.08
	L184.26,303.08z"/>
</svg>
