<svg id="Layer_1" data-name="Layer 1" xmlns="http://www.w3.org/2000/svg" viewBox="0 0 344 208"><defs><style>.cls-1{fill:#acc9db;}.cls-2{fill:#515979;}.cls-3{fill:#75a5c3;}.cls-4{fill:#d5e4ed;}.cls-5{fill:#f9cbcb;}.cls-6{fill:#fce5e5;}.cls-7{fill:#f5aaaa;}.cls-8{fill:#d8ebfb;}.cls-9{fill:#fff;}.cls-10{fill:#ef7d7d;}</style></defs><path class="cls-1" d="M169.4,157.71a46,46,0,0,1-45.91-45.91v-26a2.59,2.59,0,0,1,1.79-2.47,2.5,2.5,0,0,1,.81-.13,2.59,2.59,0,0,1,2.09,1.06l19.06,26a2.58,2.58,0,0,1,.22,2.71,2.61,2.61,0,0,1-2.31,1.43H134a35.52,35.52,0,0,0,70.94-2.6V35.56a2.6,2.6,0,0,1,2.6-2.6h5.2a2.6,2.6,0,0,1,2.59,2.6V111.8A46,46,0,0,1,169.4,157.71Z"/><path class="cls-2" d="M212.72,35.56V111.8a43.32,43.32,0,0,1-86.63,0v-26l19.06,26H131.28a38.12,38.12,0,0,0,76.24,0V35.56h5.2m0-5.19h-5.2a5.19,5.19,0,0,0-5.2,5.19V111.8A32.92,32.92,0,0,1,136.89,117h8.26a5.2,5.2,0,0,0,4.19-8.27l-19.06-26a5.2,5.2,0,0,0-4.19-2.12,5,5,0,0,0-1.62.26,5.19,5.19,0,0,0-3.58,4.94v26a48.51,48.51,0,1,0,97,0V35.56a5.19,5.19,0,0,0-5.19-5.19Z"/><rect class="cls-3" x="207.52" y="42.49" width="5.2" height="10.4"/><path class="cls-1" d="M210.12,40.76a17.33,17.33,0,1,1,17.32-17.32A17.34,17.34,0,0,1,210.12,40.76Zm0-24.25a6.93,6.93,0,1,0,6.93,6.93A6.93,6.93,0,0,0,210.12,16.51Z"/><path class="cls-2" d="M210.12,8.71a14.73,14.73,0,1,1-14.73,14.73A14.72,14.72,0,0,1,210.12,8.71m0,24.25a9.53,9.53,0,1,0-9.53-9.52A9.53,9.53,0,0,0,210.12,33m0-29.45A19.93,19.93,0,1,0,230,23.44,20,20,0,0,0,210.12,3.51Zm0,24.26a4.34,4.34,0,1,1,4.33-4.33,4.34,4.34,0,0,1-4.33,4.33Z"/><polygon class="cls-4" points="126.09 85.81 145.15 111.8 141.68 111.8 126.09 90.53 126.09 85.81"/><path class="cls-5" d="M138.21,201.89a26,26,0,0,1-26-26V169A10.4,10.4,0,0,1,133,169v6.93a5.2,5.2,0,1,0,10.39,0V152.51a26,26,0,1,1,52,0v4.33a5.2,5.2,0,1,0,10.4,0V119.59a10.4,10.4,0,0,1,20.79,0v37.25a26,26,0,0,1-52,0v-4.33a5.2,5.2,0,1,0-10.4,0V175.9A26,26,0,0,1,138.21,201.89Z"/><path class="cls-2" d="M216.18,111.8a7.8,7.8,0,0,1,7.8,7.79v37.25a23.39,23.39,0,1,1-46.78,0v-4.33a7.8,7.8,0,0,0-15.6,0V175.9a23.39,23.39,0,1,1-46.77,0V169a7.8,7.8,0,1,1,15.59,0v6.93a7.8,7.8,0,1,0,15.59,0V152.51a23.39,23.39,0,0,1,46.78,0v4.33a7.8,7.8,0,1,0,15.59,0V119.59a7.8,7.8,0,0,1,7.8-7.79m0-5.2a13,13,0,0,0-13,13v37.25a2.6,2.6,0,0,1-5.2,0v-4.33a28.59,28.59,0,0,0-57.18,0V175.9a2.6,2.6,0,1,1-5.19,0V169a13,13,0,0,0-26,0v6.93a28.59,28.59,0,1,0,57.17,0V152.51a2.6,2.6,0,1,1,5.2,0v4.33a28.59,28.59,0,1,0,57.17,0V119.59a13,13,0,0,0-13-13Z"/><path class="cls-6" d="M169.4,134.32c19.67,0,23.39,22.52,23.39,22.52v-4.33a23.39,23.39,0,0,0-45.73-6.95c-.68,2.2-.05,4.41,1.72,1.12A23.41,23.41,0,0,1,169.4,134.32Z"/><path class="cls-7" d="M146,143.62c0,.08,0,.15,0,.23v16.52c3.26,2.58,9.22,4.42,15.59,4.42V150.84A37.93,37.93,0,0,1,146,143.62Z"/><path class="cls-1" d="M145,137.6A28.37,28.37,0,0,0,141.18,148a45.66,45.66,0,0,0,25.62,9.66l5.2-1.39v-7.37l-5.2-1.66A35.4,35.4,0,0,1,145,137.6Z"/><path class="cls-2" d="M169.4,144.72v5.19a2.61,2.61,0,0,1,2.6,2.6v4.33h5.2v-4.33A7.8,7.8,0,0,0,169.4,144.72Z"/><circle class="cls-8" cx="224.41" cy="126.52" r="8.23"/><path class="cls-2" d="M224.41,120a6.5,6.5,0,1,1-6.5,6.49,6.5,6.5,0,0,1,6.5-6.49m0-3.47a10,10,0,1,0,10,10,10,10,0,0,0-10-10Z"/><circle class="cls-2" cx="223.54" cy="126.52" r="3.47"/><circle class="cls-9" cx="224.41" cy="125.66" r="0.87"/><circle class="cls-8" cx="207.95" cy="126.52" r="8.23"/><path class="cls-2" d="M208,120a6.5,6.5,0,1,1-6.5,6.49A6.5,6.5,0,0,1,208,120m0-3.47a10,10,0,1,0,10,10,10,10,0,0,0-10-10Z"/><circle class="cls-2" cx="208.82" cy="126.52" r="3.47"/><path class="cls-2" d="M216,153.17a24.13,24.13,0,0,1-9.22-1.68,1.73,1.73,0,0,1,1.41-3.16h0a23.58,23.58,0,0,0,16.05-.05,1.73,1.73,0,1,1,1.15,3.27A28.3,28.3,0,0,1,216,153.17Z"/><path class="cls-2" d="M218.81,174.38c-13,0-17.33-11.64-17.37-11.75a1.73,1.73,0,0,1,3.26-1.18,15.06,15.06,0,0,0,14.11,9.47,1.73,1.73,0,0,1,0,3.46Z"/><path class="cls-2" d="M185,176.78H185a1.72,1.72,0,0,1-1.68-1.78c.39-13,12.15-17,12.27-17a1.73,1.73,0,1,1,1.07,3.29,15.11,15.11,0,0,0-9.88,13.83A1.72,1.72,0,0,1,185,176.78Z"/><path class="cls-2" d="M175.68,155.69a1.74,1.74,0,0,1-1.53-2.56c6.18-11.45,18.48-9.73,18.6-9.71a1.73,1.73,0,1,1-.51,3.43,15.09,15.09,0,0,0-15,7.93A1.73,1.73,0,0,1,175.68,155.69Z"/><path class="cls-2" d="M167.78,148.41a1.72,1.72,0,0,1-1.62-1.11c-4.62-12.17,4.72-20.34,4.82-20.42a1.73,1.73,0,1,1,2.25,2.63,15.08,15.08,0,0,0-3.83,16.56,1.72,1.72,0,0,1-1.62,2.34Z"/><path class="cls-2" d="M155.21,170.74a19.11,19.11,0,0,1-12.3-4.38,1.73,1.73,0,0,1,2.34-2.56c.28.26,6.79,6,16.72,2.15a1.73,1.73,0,1,1,1.25,3.23A22.08,22.08,0,0,1,155.21,170.74Z"/><path class="cls-2" d="M154.77,195.44a1.48,1.48,0,0,1-.41-.05c-12.51-3-15-13.44-15.08-13.89a1.73,1.73,0,1,1,3.38-.76c.09.37,2.17,8.79,12.52,11.29a1.73,1.73,0,0,1-.41,3.41Z"/><path class="cls-2" d="M122.14,196.22l-.31,0a1.73,1.73,0,0,1-1.4-2c2.27-12.67,12.53-15.77,13-15.89a1.73,1.73,0,0,1,1,3.33c-.36.11-8.64,2.69-10.52,13.17A1.73,1.73,0,0,1,122.14,196.22Z"/><path class="cls-2" d="M173.4,157l-1.4-2c-.86.05-1.73.08-2.6.08s-1.74,0-2.6-.08a43.15,43.15,0,0,1-25-9.87,27.93,27.93,0,0,0-.92,5.83,48.33,48.33,0,0,0,25.94,9.25c.86,0,1.73.07,2.6.07s1.88,0,2.81-.09C173.77,159.42,173.4,158.15,173.4,157Z"/><path class="cls-2" d="M169.4,149.91c.88,0,1.74,0,2.6-.1l.8-2.61-3.4-2.48c-.87,0-1.74-.05-2.6-.11a32.86,32.86,0,0,1-20.3-9.19,28.73,28.73,0,0,0-2.78,4.54,37.91,37.91,0,0,0,23.08,9.85C167.66,149.87,168.53,149.91,169.4,149.91Z"/><path class="cls-2" d="M219.65,139.08a3.47,3.47,0,1,1-6.93,0Z"/><path class="cls-2" d="M216.18,145.15a6.07,6.07,0,0,1-6.06-6.07,2.59,2.59,0,0,1,2.6-2.59h6.93a2.59,2.59,0,0,1,2.59,2.59A6.07,6.07,0,0,1,216.18,145.15Z"/><path class="cls-10" d="M218.82,141.3a4.25,4.25,0,0,0-5.28,0,3.41,3.41,0,0,0,5.28,0Z"/><circle class="cls-9" cx="209.68" cy="125.66" r="0.87"/></svg>