<svg version="1.1" id="buildings" xmlns="http://www.w3.org/2000/svg" x="0" y="0" viewBox="0 0 900 300" style="enable-background:new 0 0 900 300" xml:space="preserve"><style>.st0{fill:#7ddf96}.st1{fill:#515979}.st2{fill:#e2e5e8}.st3{fill:#a0aab4}.st4{fill:#b3bbc3}.st6{fill:#f5f5f5}.st7{fill:#ccc}.st8{fill:#ef7d7d}.st9{fill:#d26e78}.st10{fill:#d8ebfb}.st12{fill:#75a5c3}.st13{fill:#9dc8fa}.st14{fill:#fff}.st15{fill:#d1c4bc}</style><path class="st0" d="M282.9 296c-1.7 0-3-1.3-3-3 0-5 4-9 9-9s9 4 9 9c0 1.7-1.3 3-3 3h-12z"/><path class="st1" d="M288.9 287c3.3 0 6 2.7 6 6h-12c0-3.3 2.7-6 6-6m0-6c-6.6 0-12 5.4-12 12 0 3.3 2.7 6 6 6h12c3.3 0 6-2.7 6-6 0-6.6-5.4-12-12-12z"/><circle class="st0" cx="303.9" cy="249" r="24"/><path class="st1" d="M303.9 276c-14.9 0-27-12.1-27-27s12.1-27 27-27 27 12.1 27 27-12.1 27-27 27zm0-48c-11.6 0-21 9.4-21 21s9.4 21 21 21 21-9.4 21-21-9.4-21-21-21z"/><path class="st2" d="M194.9 168c-1.7 0-3-1.3-3-3v-40c0-1.7 1.3-3 3-3h40c1.7 0 3 1.3 3 3v40c0 1.7-1.3 3-3 3h-40z"/><path class="st1" d="M234.9 125v40h-40v-40h40m0-6h-40c-3.3 0-6 2.7-6 6v40c0 3.3 2.7 6 6 6h40c3.3 0 6-2.7 6-6v-40c0-3.3-2.7-6-6-6z"/><path class="st3" d="M206.9 168c-1.7 0-3-1.3-3-3v-28c0-1.7 1.3-3 3-3h10c1.7 0 3 1.3 3 3v28c0 1.7-1.3 3-3 3h-10z"/><path class="st1" d="M216.9 137v28h-10v-28h10m0-6h-10c-3.3 0-6 2.7-6 6v28c0 3.3 2.7 6 6 6h10c3.3 0 6-2.7 6-6v-28c0-3.3-2.7-6-6-6z"/><path class="st4" d="M234.9 168c-1.7 0-3-1.3-3-3v-40c0-1.7 1.3-3 3-3h30c1.7 0 3 1.3 3 3v40c0 1.7-1.3 3-3 3h-30z"/><path class="st1" d="M264.9 125v40h-30v-40h30m0-6h-30c-3.3 0-6 2.7-6 6v40c0 3.3 2.7 6 6 6h30c3.3 0 6-2.7 6-6v-40c0-3.3-2.7-6-6-6z"/><path d="M84.9 296c-1.7 0-3-1.3-3-3V165c0-1.7 1.3-3 3-3h66c1.7 0 3 1.3 3 3v128c0 1.7-1.3 3-3 3h-66z" style="fill:#f89d81"/><path class="st1" d="M150.9 165v128h-66V165h66m0-6h-66c-3.3 0-6 2.7-6 6v128c0 3.3 2.7 6 6 6h66c3.3 0 6-2.7 6-6V165c0-3.3-2.7-6-6-6z"/><path class="st6" d="M777.9 64c-9.3 0-17.6-5.5-21.2-14h-24.8c-1.7 0-3-1.3-3-3 0-9.9 8.1-18 18-18 .7 0 1.3 0 2 .1V29c0-11.6 9.4-21 21-21 3.2 0 6.2.7 9.1 2.1 4.4-3.9 10-6.1 15.9-6.1 13.2 0 24 10.8 24 24 0 12-8.9 22.1-20.7 23.7-3.9 7.5-11.7 12.3-20.3 12.3z"/><path class="st1" d="M794.9 7c11.6 0 21 9.4 21 21 0 11.1-8.7 20.2-19.6 20.9C793.2 56 786.1 61 777.9 61c-9 0-16.5-5.9-19.1-14h-26.9c0-8.3 6.7-15 15-15 1.9 0 3.8.4 5.5 1-.3-1.3-.5-2.6-.5-4 0-9.9 8.1-18 18-18 3.5 0 6.8 1 9.6 2.8 3.8-4.2 9.3-6.8 15.4-6.8m0-6c-6 0-11.7 2-16.4 5.6-2.7-1-5.6-1.6-8.6-1.6-12.2 0-22.3 9.2-23.8 21-11.2.4-20.2 9.7-20.2 21 0 3.3 2.7 6 6 6h22.9c4.4 8.5 13.2 14 23.1 14 9.2 0 17.6-4.8 22.2-12.5C812.6 52 821.9 41 821.9 28c0-14.9-12.1-27-27-27z"/><path class="st7" d="M806.5 10.5c2.2 3.3 3.5 7.3 3.5 11.5 0 8.4-4.9 15.6-12 19-2.3 1.1-4.9 1.8-7.6 2-.7 1.7-1.7 3.3-2.8 4.7-3.7 4.5-9.2 7.4-15.5 7.4-4 0-7.7-1.2-10.8-3.2 3.6 5.5 9.8 9.2 16.8 9.2 8.2 0 15.3-5 18.4-12.1 11-.7 19.6-9.8 19.6-20.9-.2-7.4-4-13.9-9.6-17.6z"/><path class="st1" d="M760.9 32c-1.7 0-3-1.3-3-3 0-6.6 5.4-12 12-12 1.7 0 3 1.3 3 3s-1.3 3-3 3c-3.3 0-6 2.7-6 6 0 1.7-1.3 3-3 3z"/><path class="st8" d="M776.9 296c-.8 0-1.6-.3-2.2-.9s-.9-1.4-.8-2.2l6-240c0-1.6 1.4-2.9 3-2.9h24c1.6 0 3 1.3 3 2.9l6 240c0 .8-.3 1.6-.8 2.2s-1.3.9-2.2.9h-36z"/><path class="st1" d="m806.9 53 6 240h-36l6-240h24m0-6h-24c-3.3 0-5.9 2.6-6 5.8l-6 240c0 1.6.6 3.2 1.7 4.3s2.7 1.8 4.3 1.8h36c1.6 0 3.2-.6 4.3-1.8s1.7-2.7 1.7-4.3l-6-240c-.1-3.2-2.7-5.8-6-5.8z"/><path class="st9" d="m810.2 185.3 2.7 107.7h-36l3.4-137.6z"/><path class="st4" d="M456.9 296c-1.7 0-3-1.3-3-3V114c0-1.7 1.3-3 3-3h80c1.7 0 3 1.3 3 3v179c0 1.7-1.3 3-3 3h-80z"/><path class="st1" d="M536.9 114v179h-80V114h80m0-6h-80c-3.3 0-6 2.7-6 6v179c0 3.3 2.7 6 6 6h80c3.3 0 6-2.7 6-6V114c0-3.3-2.7-6-6-6z"/><path class="st8" d="M722.9 296c-.8 0-1.6-.3-2.2-.9s-.9-1.4-.8-2.2l6-240c0-1.6 1.4-2.9 3-2.9h24c1.6 0 3 1.3 3 2.9l6 240c0 .8-.3 1.6-.8 2.2s-1.3.9-2.2.9h-36z"/><path class="st1" d="m752.9 53 6 240h-36l6-240h24m0-6h-24c-3.3 0-5.9 2.6-6 5.8l-6 240c0 1.6.6 3.2 1.7 4.3s2.7 1.8 4.3 1.8h36c1.6 0 3.2-.6 4.3-1.8s1.7-2.7 1.7-4.3l-6-240c-.1-3.2-2.7-5.8-6-5.8z"/><path class="st2" d="M386.9 296c-1.7 0-3-1.3-3-3V114c0-1.7 1.3-3 3-3h80c1.7 0 3 1.3 3 3v179c0 1.7-1.3 3-3 3h-80z"/><path class="st1" d="M466.9 114v179h-80V114h80m0-6h-80c-3.3 0-6 2.7-6 6v179c0 3.3 2.7 6 6 6h80c3.3 0 6-2.7 6-6V114c0-3.3-2.7-6-6-6z"/><path class="st10" d="M398.9 144c-1.7 0-3-1.3-3-3v-6c0-1.7 1.3-3 3-3h56c1.7 0 3 1.3 3 3v6c0 1.7-1.3 3-3 3h-56z"/><path class="st1" d="M454.9 135v6h-56v-6h56m0-6h-56c-3.3 0-6 2.7-6 6v6c0 3.3 2.7 6 6 6h56c3.3 0 6-2.7 6-6v-6c0-3.3-2.7-6-6-6z"/><path d="M450.9 111c-1.7 0-3-1.3-3-3v-6c0-1.7 1.3-3 3-3h92c1.7 0 3 1.3 3 3v6c0 1.7-1.3 3-3 3h-92z" style="fill:#508cb4"/><path class="st1" d="M542.9 102v6h-92v-6h92m0-6h-92c-3.3 0-6 2.7-6 6v6c0 3.3 2.7 6 6 6h92c3.3 0 6-2.7 6-6v-6c0-3.3-2.7-6-6-6z"/><path class="st12" d="M380.9 111c-1.7 0-3-1.3-3-3v-6c0-1.7 1.3-3 3-3h92c1.7 0 3 1.3 3 3v6c0 1.7-1.3 3-3 3h-92z"/><path class="st1" d="M472.9 102v6h-92v-6h92m0-6h-92c-3.3 0-6 2.7-6 6v6c0 3.3 2.7 6 6 6h92c3.3 0 6-2.7 6-6v-6c0-3.3-2.7-6-6-6z"/><path class="st9" d="m754.3 107 .2 9h-27.2l.3-9zM808.3 107l.2 9h-27.2l.3-9zM728.2 82h25.4l.3 9H728zM782.2 82h25.4l.3 9H782z"/><path class="st10" d="M398.9 171c-1.7 0-3-1.3-3-3v-6c0-1.7 1.3-3 3-3h56c1.7 0 3 1.3 3 3v6c0 1.7-1.3 3-3 3h-56z"/><path class="st1" d="M454.9 162v6h-56v-6h56m0-6h-56c-3.3 0-6 2.7-6 6v6c0 3.3 2.7 6 6 6h56c3.3 0 6-2.7 6-6v-6c0-3.3-2.7-6-6-6z"/><path class="st10" d="M398.9 198c-1.7 0-3-1.3-3-3v-6c0-1.7 1.3-3 3-3h56c1.7 0 3 1.3 3 3v6c0 1.7-1.3 3-3 3h-56z"/><path class="st1" d="M454.9 189v6h-56v-6h56m0-6h-56c-3.3 0-6 2.7-6 6v6c0 3.3 2.7 6 6 6h56c3.3 0 6-2.7 6-6v-6c0-3.3-2.7-6-6-6z"/><path class="st10" d="M398.9 225c-1.7 0-3-1.3-3-3v-6c0-1.7 1.3-3 3-3h56c1.7 0 3 1.3 3 3v6c0 1.7-1.3 3-3 3h-56z"/><path class="st1" d="M454.9 216v6h-56v-6h56m0-6h-56c-3.3 0-6 2.7-6 6v6c0 3.3 2.7 6 6 6h56c3.3 0 6-2.7 6-6v-6c0-3.3-2.7-6-6-6z"/><path class="st10" d="M398.9 252c-1.7 0-3-1.3-3-3v-6c0-1.7 1.3-3 3-3h56c1.7 0 3 1.3 3 3v6c0 1.7-1.3 3-3 3h-56z"/><path class="st1" d="M454.9 243v6h-56v-6h56m0-6h-56c-3.3 0-6 2.7-6 6v6c0 3.3 2.7 6 6 6h56c3.3 0 6-2.7 6-6v-6c0-3.3-2.7-6-6-6z"/><path class="st13" d="M398.9 135h6v6h-6zM398.9 162h6v6h-6zM398.9 189h6v6h-6zM398.9 216h6v6h-6zM398.9 243h6v6h-6z"/><path class="st4" d="M469.9 296c-1.7 0-3-1.3-3-3V153c0-1.7 1.3-3 3-3h288c.8 0 1.6.3 2.1.9l40 40c.6.6.9 1.3.9 2.1v100c0 1.7-1.3 3-3 3h-328z"/><path class="st1" d="m757.9 153 40 40v100h-328V153h288m0-6h-288c-3.3 0-6 2.7-6 6v140c0 3.3 2.7 6 6 6h328c3.3 0 6-2.7 6-6V193c0-1.6-.6-3.1-1.8-4.2l-40-40c-1.1-1.2-2.6-1.8-4.2-1.8z"/><path class="st3" d="M469.9 195h328v6h-328z"/><path class="st12" d="M469.9 193h328l-40-40h-288z"/><path class="st2" d="M429.9 296c-1.7 0-3-1.3-3-3V193c0-.8.3-1.6.9-2.1l40-40c.6-.6 1.4-.9 2.1-.9s1.5.3 2.1.9l40 40c.6.6.9 1.3.9 2.1v100c0 1.7-1.3 3-3 3h-80z"/><path class="st1" d="m469.9 153 40 40v100h-80V193l40-40m0-6c-1.5 0-3.1.6-4.2 1.8l-40 40c-1.1 1.1-1.8 2.6-1.8 4.2v100c0 3.3 2.7 6 6 6h80c3.3 0 6-2.7 6-6V193c0-1.6-.6-3.1-1.8-4.2l-40-40c-1.1-1.2-2.7-1.8-4.2-1.8z"/><path class="st1" d="M797.9 195h-285c-1.7 0-3-1.3-3-3s1.3-3 3-3h285c1.7 0 3 1.3 3 3s-1.3 3-3 3z"/><path class="st4" d="M667.9 296c-1.7 0-3-1.3-3-3v-70c0-1.7 1.3-3 3-3h130c.8 0 1.6.3 2.1.9l20 20c.6.6.9 1.3.9 2.1v50c0 1.7-1.3 3-3 3h-150z"/><path class="st1" d="m797.9 223 20 20v50h-150v-70h130m0-6h-130c-3.3 0-6 2.7-6 6v70c0 3.3 2.7 6 6 6h150c3.3 0 6-2.7 6-6v-50c0-1.6-.6-3.1-1.8-4.2l-20-20c-1.1-1.2-2.6-1.8-4.2-1.8z"/><g><path class="st12" d="M817.9 243h-150v-20h130z"/></g><g><path class="st2" d="M667.9 296c-1.7 0-3-1.3-3-3v-70c0-1.2.7-2.3 1.8-2.8.4-.1.8-.2 1.2-.2.8 0 1.5.3 2.1.9l20 20c.6.6.9 1.3.9 2.1v50c0 1.7-1.3 3-3 3h-20z"/><path class="st1" d="m667.9 223 20 20v50h-20v-70m0-6c-.8 0-1.5.1-2.3.5-2.2.9-3.7 3.1-3.7 5.5v70c0 3.3 2.7 6 6 6h20c3.3 0 6-2.7 6-6v-50c0-1.6-.6-3.1-1.8-4.2l-20-20c-1.1-1.2-2.6-1.8-4.2-1.8z"/></g><g><path class="st1" d="M817.9 245h-126c-1.7 0-3-1.3-3-3s1.3-3 3-3h126c1.7 0 3 1.3 3 3s-1.3 3-3 3z"/></g><g><path class="st1" d="M458.4 225.2c-.3 0-.6-.1-.9-.2-1.9-1-5.2-1-7.1 0-1 .5-2.2.2-2.7-.8s-.2-2.2.8-2.7c3-1.6 7.8-1.6 10.9 0 1 .5 1.3 1.7.8 2.7-.4.7-1.1 1-1.8 1z"/><circle class="st1" cx="453.9" cy="215.5" r="7"/><circle class="st14" cx="452.2" cy="215.5" r="1.8"/><path class="st1" d="M457 204c-.4 0-.9-.1-1.4-.1-.5 0-.9-.1-1.4-.1-.9 0-1.7 0-2.4.1-.8.1-1.4.3-2.1.5-.7.2-1.4.6-2.4 1l-.5.2c-1 .4-2.2-.1-2.7-1.1-.2-.5-.2-1.1 0-1.6.5-1.3 1.4-2.5 2.7-3.4 1.2-.9 2.7-1.5 4.2-1.6 1.5-.2 3 0 4.3.4.7.2 1.3.5 1.9.8.6.3 1.1.7 1.7 1.2.8.7.9 2 .2 2.8-.3.4-.8.6-1.3.6l-.8.3zM484.4 225.2c-.3 0-.6-.1-.9-.2-1.9-1-5.2-1-7.1 0-1 .5-2.2.2-2.7-.8s-.2-2.2.8-2.7c3-1.6 7.8-1.6 10.9 0 1 .5 1.3 1.7.8 2.7-.4.7-1.1 1-1.8 1z"/><circle class="st1" cx="479.9" cy="215.5" r="7"/><circle class="st14" cx="478.2" cy="215.5" r="1.8"/><g><path class="st1" d="M474.9 200.5c.6-.6 1.1-.9 1.7-1.2.6-.3 1.2-.6 1.9-.8 1.3-.4 2.8-.6 4.3-.4 1.5.1 3 .7 4.2 1.6 1.3.9 2.1 2.1 2.7 3.4.4 1 0 2.2-1.1 2.7-.5.2-1.1.2-1.6 0l-.5-.2c-.9-.4-1.6-.8-2.4-1-.7-.2-1.4-.4-2.1-.5-.7-.1-1.6-.1-2.4-.1-.4 0-.9 0-1.4.1-.5 0-1 .1-1.4.1l-.8-.1c-1.1-.1-1.9-1.1-1.8-2.2.1-.7.4-1.1.7-1.4z"/></g><g><path class="st1" d="M466.6 235.5c-5 0-9.9-1.5-13.9-4.4-.9-.7-1.1-1.9-.4-2.8s1.9-1.1 2.8-.4c6.4 4.8 16.4 4.8 23.7 0 .9-.6 2.2-.4 2.8.6.6.9.3 2.2-.6 2.8-4.4 2.8-9.5 4.2-14.4 4.2z"/></g><g><path class="st1" d="M471.7 241.1c-1.6.2-3.2.4-4.8.4-.8 0-1.6 0-2.4-.1l-2.4-.3c-.7-.1-1.2-.7-1.1-1.4.1-.4.3-.8.7-1l1-.5c.8-.4 1.5-.5 2.2-.6.7-.1 1.3-.1 2-.1.3 0 .7 0 1 .1.3 0 .7.1 1 .1.7.1 1.4.2 2.2.5l.9.3c.7.2 1.1 1 .8 1.7-.2.5-.6.8-1.1.9z"/></g></g><g><path class="st10" d="M527.9 259c-1.7 0-3-1.3-3-3v-6c0-1.7 1.3-3 3-3h122c1.7 0 3 1.3 3 3v6c0 1.7-1.3 3-3 3h-122z"/><path class="st1" d="M649.9 250v6h-122v-6h122m0-6h-122c-3.3 0-6 2.7-6 6v6c0 3.3 2.7 6 6 6h122c3.3 0 6-2.7 6-6v-6c0-3.3-2.7-6-6-6z"/></g><g><path class="st8" d="M456.9 296c-1.7 0-3-1.3-3-3v-32c0-1.7 1.3-3 3-3h20c1.7 0 3 1.3 3 3v32c0 1.7-1.3 3-3 3h-20z"/><path class="st1" d="M476.9 261v32h-20v-32h20m0-6h-20c-3.3 0-6 2.7-6 6v32c0 3.3 2.7 6 6 6h20c3.3 0 6-2.7 6-6v-32c0-3.3-2.7-6-6-6z"/></g><g><path class="st13" d="M640.9 250h9v6h-9z"/></g><g><path class="st10" d="M527.9 232c-1.7 0-3-1.3-3-3v-6c0-1.7 1.3-3 3-3h122c1.7 0 3 1.3 3 3v6c0 1.7-1.3 3-3 3h-122z"/><path class="st1" d="M649.9 223v6h-122v-6h122m0-6h-122c-3.3 0-6 2.7-6 6v6c0 3.3 2.7 6 6 6h122c3.3 0 6-2.7 6-6v-6c0-3.3-2.7-6-6-6z"/></g><g><path class="st13" d="M640.9 223h9v6h-9z"/></g><g><path class="st10" d="M705.9 269c-1.7 0-3-1.3-3-3v-6c0-1.7 1.3-3 3-3h100c1.7 0 3 1.3 3 3v6c0 1.7-1.3 3-3 3h-100z"/><path class="st1" d="M805.9 260v6h-100v-6h100m0-6h-100c-3.3 0-6 2.7-6 6v6c0 3.3 2.7 6 6 6h100c3.3 0 6-2.7 6-6v-6c0-3.3-2.7-6-6-6z"/></g><g><path class="st13" d="M796.9 260h9v6h-9z"/></g><g><path class="st14" d="M776.9 80c-1.7 0-3-1.3-3-3v-6c0-1.7 1.3-3 3-3h36c1.7 0 3 1.3 3 3v6c0 1.7-1.3 3-3 3h-36z"/><path class="st1" d="M812.9 71v6h-36v-6h36m0-6h-36c-3.3 0-6 2.7-6 6v6c0 3.3 2.7 6 6 6h36c3.3 0 6-2.7 6-6v-6c0-3.3-2.7-6-6-6z"/></g><g><path class="st14" d="M776.4 104c-1.7 0-3-1.3-3-3v-6c0-1.7 1.3-3 3-3h37c1.7 0 3 1.3 3 3v6c0 1.7-1.3 3-3 3h-37z"/><path class="st1" d="M813.4 95v6h-37v-6h37m0-6h-37c-3.3 0-6 2.7-6 6v6c0 3.3 2.7 6 6 6h37c3.3 0 6-2.7 6-6v-6c0-3.3-2.7-6-6-6z"/></g><g><path class="st14" d="M722.9 80c-1.7 0-3-1.3-3-3v-6c0-1.7 1.3-3 3-3h36c1.7 0 3 1.3 3 3v6c0 1.7-1.3 3-3 3h-36z"/><path class="st1" d="M758.9 71v6h-36v-6h36m0-6h-36c-3.3 0-6 2.7-6 6v6c0 3.3 2.7 6 6 6h36c3.3 0 6-2.7 6-6v-6c0-3.3-2.7-6-6-6z"/></g><g><path class="st14" d="M722.4 104c-1.7 0-3-1.3-3-3v-6c0-1.7 1.3-3 3-3h37c1.7 0 3 1.3 3 3v6c0 1.7-1.3 3-3 3h-37z"/><path class="st1" d="M759.4 95v6h-37v-6h37m0-6h-37c-3.3 0-6 2.7-6 6v6c0 3.3 2.7 6 6 6h37c3.3 0 6-2.7 6-6v-6c0-3.3-2.7-6-6-6z"/></g><g><path class="st6" d="M830.9 64c-9.3 0-17.6-5.5-21.2-14h-24.8c-1.7 0-3-1.3-3-3 0-9.9 8.1-18 18-18 .7 0 1.3 0 2 .1V29c0-11.6 9.4-21 21-21 3.2 0 6.2.7 9.1 2.1 4.4-3.9 10-6.1 15.9-6.1 13.2 0 24 10.8 24 24 0 12-8.9 22.1-20.7 23.7-3.9 7.5-11.7 12.3-20.3 12.3z"/><path class="st1" d="M847.9 7c11.6 0 21 9.4 21 21 0 11.1-8.7 20.2-19.6 20.9C846.2 56 839.1 61 830.9 61c-9 0-16.5-5.9-19.1-14h-26.9c0-8.3 6.7-15 15-15 1.9 0 3.8.4 5.5 1-.3-1.3-.5-2.6-.5-4 0-9.9 8.1-18 18-18 3.5 0 6.8 1 9.6 2.8 3.8-4.2 9.3-6.8 15.4-6.8m0-6c-6 0-11.7 2-16.4 5.6-2.7-1-5.6-1.6-8.6-1.6-12.2 0-22.3 9.2-23.8 21-11.2.4-20.2 9.7-20.2 21 0 3.3 2.7 6 6 6h22.9c4.4 8.5 13.2 14 23.1 14 9.2 0 17.6-4.8 22.2-12.5C865.6 52 874.9 41 874.9 28c0-14.9-12.1-27-27-27z"/><path class="st7" d="M859.5 10.5c2.2 3.3 3.5 7.3 3.5 11.5 0 8.4-4.9 15.6-12 19-2.3 1.1-4.9 1.8-7.6 2-.7 1.7-1.7 3.3-2.8 4.7-3.7 4.5-9.2 7.4-15.5 7.4-4 0-7.7-1.2-10.8-3.2 3.6 5.5 9.8 9.2 16.8 9.2 8.2 0 15.3-5 18.4-12.1 11-.7 19.6-9.8 19.6-20.9-.2-7.4-4-13.9-9.6-17.6z"/><g><path class="st1" d="M813.9 32c-1.7 0-3-1.3-3-3 0-6.6 5.4-12 12-12 1.7 0 3 1.3 3 3s-1.3 3-3 3c-3.3 0-6 2.7-6 6 0 1.7-1.3 3-3 3z"/></g></g><g><path class="st1" d="M837.4 299h-470c-1.7 0-3-1.3-3-3s1.3-3 3-3h470c1.7 0 3 1.3 3 3s-1.3 3-3 3z"/></g><g><path class="st8" d="M156.9 296c-1.7 0-3-1.3-3-3V165c0-1.7 1.3-3 3-3h126c1.7 0 3 1.3 3 3v128c0 1.7-1.3 3-3 3h-126z"/><path class="st1" d="M282.9 165v128h-126V165h126m0-6h-126c-3.3 0-6 2.7-6 6v128c0 3.3 2.7 6 6 6h126c3.3 0 6-2.7 6-6V165c0-3.3-2.7-6-6-6z"/></g><g><path class="st15" d="M212.9 296c-1.7 0-3-1.3-3-3v-32c0-1.7 1.3-3 3-3h20c1.7 0 3 1.3 3 3v32c0 1.7-1.3 3-3 3h-20z"/><path class="st1" d="M232.9 261v32h-20v-32h20m0-6h-20c-3.3 0-6 2.7-6 6v32c0 3.3 2.7 6 6 6h20c3.3 0 6-2.7 6-6v-32c0-3.3-2.7-6-6-6z"/></g><g><path class="st15" d="M209.9 258v-3c0-7.2 5.8-13 13-13s13 5.8 13 13v3h-26z"/><path class="st1" d="M222.9 245c5.5 0 10 4.5 10 10h-20c0-5.5 4.5-10 10-10m0-6c-8.8 0-16 7.2-16 16v6h32v-6c0-8.8-7.2-16-16-16z"/></g><g><path class="st10" d="M174.9 278c-1.7 0-3-1.3-3-3v-18c0-1.7 1.3-3 3-3h18c1.7 0 3 1.3 3 3v18c0 1.7-1.3 3-3 3h-18z"/><path class="st1" d="M192.9 257v18h-18v-18h18m0-6h-18c-3.3 0-6 2.7-6 6v18c0 3.3 2.7 6 6 6h18c3.3 0 6-2.7 6-6v-18c0-3.3-2.7-6-6-6z"/><g><path class="st15" d="M174.9 266c-1.7 0-3-1.3-3-3v-6c0-1.7 1.3-3 3-3h18c1.7 0 3 1.3 3 3v6c0 1.7-1.3 3-3 3h-18z"/><path class="st1" d="M192.9 257v6h-18v-6h18m0-6h-18c-3.3 0-6 2.7-6 6v6c0 3.3 2.7 6 6 6h18c3.3 0 6-2.7 6-6v-6c0-3.3-2.7-6-6-6z"/></g></g><g><path class="st10" d="M252.9 278c-1.7 0-3-1.3-3-3v-18c0-1.7 1.3-3 3-3h18c1.7 0 3 1.3 3 3v18c0 1.7-1.3 3-3 3h-18z"/><path class="st1" d="M270.9 257v18h-18v-18h18m0-6h-18c-3.3 0-6 2.7-6 6v18c0 3.3 2.7 6 6 6h18c3.3 0 6-2.7 6-6v-18c0-3.3-2.7-6-6-6z"/><g><path class="st15" d="M252.9 266c-1.7 0-3-1.3-3-3v-6c0-1.7 1.3-3 3-3h18c1.7 0 3 1.3 3 3v6c0 1.7-1.3 3-3 3h-18z"/><path class="st1" d="M270.9 257v6h-18v-6h18m0-6h-18c-3.3 0-6 2.7-6 6v6c0 3.3 2.7 6 6 6h18c3.3 0 6-2.7 6-6v-6c0-3.3-2.7-6-6-6z"/></g></g><g><path class="st14" d="M78.9 162c-1.7 0-3-1.3-3-3v-6c0-1.7 1.3-3 3-3h132c1.7 0 3 1.3 3 3v6c0 1.7-1.3 3-3 3h-132z"/><path class="st1" d="M210.9 153v6h-132v-6h132m0-6h-132c-3.3 0-6 2.7-6 6v6c0 3.3 2.7 6 6 6h132c3.3 0 6-2.7 6-6v-6c0-3.3-2.7-6-6-6z"/></g><g><path class="st10" d="M150.9 162c-1.7 0-3-1.3-3-3v-6c0-1.7 1.3-3 3-3h138c1.7 0 3 1.3 3 3v6c0 1.7-1.3 3-3 3h-138z"/><path class="st1" d="M288.9 153v6h-138v-6h138m0-6h-138c-3.3 0-6 2.7-6 6v6c0 3.3 2.7 6 6 6h138c3.3 0 6-2.7 6-6v-6c0-3.3-2.7-6-6-6z"/></g><g><path class="st1" d="M214.4 205.7c-.3 0-.6-.1-.9-.2-1.9-1-5.2-1-7.1 0-1 .5-2.2.2-2.7-.8s-.2-2.2.8-2.7c3.1-1.6 7.8-1.6 10.9 0 1 .5 1.3 1.7.8 2.7-.4.6-1.1 1-1.8 1z"/><circle class="st1" cx="209.9" cy="195.9" r="7"/><circle class="st14" cx="208.2" cy="195.9" r="1.8"/><path class="st1" d="M213 184.5c-.4 0-.9-.1-1.4-.1-.5 0-.9-.1-1.4-.1-.9 0-1.7 0-2.4.1-.8.1-1.4.3-2.1.5-.7.2-1.4.6-2.4 1l-.4.2c-1 .4-2.2-.1-2.7-1.1-.2-.5-.2-1.1 0-1.6.5-1.3 1.4-2.5 2.7-3.4 1.2-.9 2.7-1.5 4.2-1.6 1.5-.2 2.9 0 4.3.4.7.2 1.3.5 1.9.8.6.3 1.1.7 1.7 1.2.8.7.9 2 .2 2.8-.3.4-.8.6-1.3.6l-.9.3zM240.4 205.7c-.3 0-.6-.1-.9-.2-1.9-1-5.2-1-7.1 0-1 .5-2.2.2-2.7-.8s-.2-2.2.8-2.7c3.1-1.6 7.8-1.6 10.9 0 1 .5 1.3 1.7.8 2.7-.4.6-1.1 1-1.8 1z"/><circle class="st1" cx="235.9" cy="195.9" r="7"/><circle class="st14" cx="234.2" cy="195.9" r="1.8"/><g><path class="st1" d="M230.9 180.9c.6-.6 1.1-.9 1.7-1.2.6-.3 1.2-.6 1.9-.8 1.3-.4 2.8-.6 4.3-.4 1.5.1 3 .7 4.2 1.6 1.3.9 2.1 2.1 2.7 3.4.4 1-.1 2.2-1.1 2.7-.5.2-1.1.2-1.6 0l-.4-.2c-.9-.4-1.6-.8-2.4-1-.7-.2-1.4-.4-2.1-.5-.7-.1-1.6-.1-2.4-.1-.4 0-.9 0-1.4.1-.5 0-1 .1-1.4.1l-.8-.1c-1.1-.1-1.9-1.1-1.8-2.2 0-.6.3-1 .6-1.4z"/></g><g><path class="st1" d="M222.6 216c-5 0-9.9-1.5-13.9-4.4-.9-.7-1.1-1.9-.4-2.8s1.9-1.1 2.8-.4c6.4 4.8 16.4 4.8 23.7 0 .9-.6 2.2-.4 2.8.6.6.9.3 2.2-.6 2.8-4.4 2.7-9.5 4.2-14.4 4.2z"/></g><g><path class="st1" d="M227.7 221.6c-1.6.2-3.2.4-4.8.4-.8 0-1.6 0-2.4-.1l-2.4-.3c-.7-.1-1.2-.7-1.1-1.4.1-.4.4-.8.7-1l1.1-.5c.8-.4 1.5-.5 2.2-.6.7-.1 1.3-.1 2-.1.3 0 .7 0 1 .1.3 0 .7.1 1 .1.7.1 1.4.2 2.2.5l.9.3c.7.2 1.1 1 .8 1.7-.3.5-.7.8-1.2.9z"/></g></g><g><path class="st1" d="M219.9 245h6v48h-6z"/></g><g><path class="st1" d="M209.9 274h26v6h-26z"/></g><g><path class="st10" d="M174.9 230c-1.7 0-3-1.3-3-3v-18c0-1.7 1.3-3 3-3h18c1.7 0 3 1.3 3 3v18c0 1.7-1.3 3-3 3h-18z"/><path class="st1" d="M192.9 209v18h-18v-18h18m0-6h-18c-3.3 0-6 2.7-6 6v18c0 3.3 2.7 6 6 6h18c3.3 0 6-2.7 6-6v-18c0-3.3-2.7-6-6-6z"/><g><path class="st15" d="M174.9 218c-1.7 0-3-1.3-3-3v-6c0-1.7 1.3-3 3-3h18c1.7 0 3 1.3 3 3v6c0 1.7-1.3 3-3 3h-18z"/><path class="st1" d="M192.9 209v6h-18v-6h18m0-6h-18c-3.3 0-6 2.7-6 6v6c0 3.3 2.7 6 6 6h18c3.3 0 6-2.7 6-6v-6c0-3.3-2.7-6-6-6z"/></g></g><g><path class="st10" d="M126.9 278c-1.7 0-3-1.3-3-3v-18c0-1.7 1.3-3 3-3h12c1.7 0 3 1.3 3 3v18c0 1.7-1.3 3-3 3h-12z"/><path class="st1" d="M138.9 257v18h-12v-18h12m0-6h-12c-3.3 0-6 2.7-6 6v18c0 3.3 2.7 6 6 6h12c3.3 0 6-2.7 6-6v-18c0-3.3-2.7-6-6-6z"/><g><path class="st15" d="M126.9 266c-1.7 0-3-1.3-3-3v-6c0-1.7 1.3-3 3-3h12c1.7 0 3 1.3 3 3v6c0 1.7-1.3 3-3 3h-12z"/><path class="st1" d="M138.9 257v6h-12v-6h12m0-6h-12c-3.3 0-6 2.7-6 6v6c0 3.3 2.7 6 6 6h12c3.3 0 6-2.7 6-6v-6c0-3.3-2.7-6-6-6z"/></g></g><g><path class="st10" d="M126.9 242c-1.7 0-3-1.3-3-3v-18c0-1.7 1.3-3 3-3h12c1.7 0 3 1.3 3 3v18c0 1.7-1.3 3-3 3h-12z"/><path class="st1" d="M138.9 221v18h-12v-18h12m0-6h-12c-3.3 0-6 2.7-6 6v18c0 3.3 2.7 6 6 6h12c3.3 0 6-2.7 6-6v-18c0-3.3-2.7-6-6-6z"/><g><path class="st15" d="M126.9 230c-1.7 0-3-1.3-3-3v-6c0-1.7 1.3-3 3-3h12c1.7 0 3 1.3 3 3v6c0 1.7-1.3 3-3 3h-12z"/><path class="st1" d="M138.9 221v6h-12v-6h12m0-6h-12c-3.3 0-6 2.7-6 6v6c0 3.3 2.7 6 6 6h12c3.3 0 6-2.7 6-6v-6c0-3.3-2.7-6-6-6z"/></g></g><g><path class="st10" d="M96.9 278c-1.7 0-3-1.3-3-3v-18c0-1.7 1.3-3 3-3h12c1.7 0 3 1.3 3 3v18c0 1.7-1.3 3-3 3h-12z"/><path class="st1" d="M108.9 257v18h-12v-18h12m0-6h-12c-3.3 0-6 2.7-6 6v18c0 3.3 2.7 6 6 6h12c3.3 0 6-2.7 6-6v-18c0-3.3-2.7-6-6-6z"/><g><path class="st15" d="M96.9 266c-1.7 0-3-1.3-3-3v-6c0-1.7 1.3-3 3-3h12c1.7 0 3 1.3 3 3v6c0 1.7-1.3 3-3 3h-12z"/><path class="st1" d="M108.9 257v6h-12v-6h12m0-6h-12c-3.3 0-6 2.7-6 6v6c0 3.3 2.7 6 6 6h12c3.3 0 6-2.7 6-6v-6c0-3.3-2.7-6-6-6z"/></g></g><g><path class="st10" d="M96.9 242c-1.7 0-3-1.3-3-3v-18c0-1.7 1.3-3 3-3h12c1.7 0 3 1.3 3 3v18c0 1.7-1.3 3-3 3h-12z"/><path class="st1" d="M108.9 221v18h-12v-18h12m0-6h-12c-3.3 0-6 2.7-6 6v18c0 3.3 2.7 6 6 6h12c3.3 0 6-2.7 6-6v-18c0-3.3-2.7-6-6-6z"/><g><path class="st15" d="M96.9 230c-1.7 0-3-1.3-3-3v-6c0-1.7 1.3-3 3-3h12c1.7 0 3 1.3 3 3v6c0 1.7-1.3 3-3 3h-12z"/><path class="st1" d="M108.9 221v6h-12v-6h12m0-6h-12c-3.3 0-6 2.7-6 6v6c0 3.3 2.7 6 6 6h12c3.3 0 6-2.7 6-6v-6c0-3.3-2.7-6-6-6z"/></g></g><g><path class="st10" d="M126.9 206c-1.7 0-3-1.3-3-3v-18c0-1.7 1.3-3 3-3h12c1.7 0 3 1.3 3 3v18c0 1.7-1.3 3-3 3h-12z"/><path class="st1" d="M138.9 185v18h-12v-18h12m0-6h-12c-3.3 0-6 2.7-6 6v18c0 3.3 2.7 6 6 6h12c3.3 0 6-2.7 6-6v-18c0-3.3-2.7-6-6-6z"/><g><path class="st15" d="M126.9 194c-1.7 0-3-1.3-3-3v-6c0-1.7 1.3-3 3-3h12c1.7 0 3 1.3 3 3v6c0 1.7-1.3 3-3 3h-12z"/><path class="st1" d="M138.9 185v6h-12v-6h12m0-6h-12c-3.3 0-6 2.7-6 6v6c0 3.3 2.7 6 6 6h12c3.3 0 6-2.7 6-6v-6c0-3.3-2.7-6-6-6z"/></g></g><g><path class="st10" d="M96.9 206c-1.7 0-3-1.3-3-3v-18c0-1.7 1.3-3 3-3h12c1.7 0 3 1.3 3 3v18c0 1.7-1.3 3-3 3h-12z"/><path class="st1" d="M108.9 185v18h-12v-18h12m0-6h-12c-3.3 0-6 2.7-6 6v18c0 3.3 2.7 6 6 6h12c3.3 0 6-2.7 6-6v-18c0-3.3-2.7-6-6-6z"/><g><path class="st15" d="M96.9 194c-1.7 0-3-1.3-3-3v-6c0-1.7 1.3-3 3-3h12c1.7 0 3 1.3 3 3v6c0 1.7-1.3 3-3 3h-12z"/><path class="st1" d="M108.9 185v6h-12v-6h12m0-6h-12c-3.3 0-6 2.7-6 6v6c0 3.3 2.7 6 6 6h12c3.3 0 6-2.7 6-6v-6c0-3.3-2.7-6-6-6z"/></g></g><g><path class="st10" d="M252.9 230c-1.7 0-3-1.3-3-3v-18c0-1.7 1.3-3 3-3h18c1.7 0 3 1.3 3 3v18c0 1.7-1.3 3-3 3h-18z"/><path class="st1" d="M270.9 209v18h-18v-18h18m0-6h-18c-3.3 0-6 2.7-6 6v18c0 3.3 2.7 6 6 6h18c3.3 0 6-2.7 6-6v-18c0-3.3-2.7-6-6-6z"/><g><path class="st15" d="M252.9 218c-1.7 0-3-1.3-3-3v-6c0-1.7 1.3-3 3-3h18c1.7 0 3 1.3 3 3v6c0 1.7-1.3 3-3 3h-18z"/><path class="st1" d="M270.9 209v6h-18v-6h18m0-6h-18c-3.3 0-6 2.7-6 6v6c0 3.3 2.7 6 6 6h18c3.3 0 6-2.7 6-6v-6c0-3.3-2.7-6-6-6z"/></g></g><g><path class="st1" d="M303.9 299c-1.7 0-3-1.3-3-3v-50c0-1.7 1.3-3 3-3s3 1.3 3 3v50c0 1.7-1.3 3-3 3z"/></g><g><path class="st1" d="M303.9 269c-.6 0-1.2-.2-1.8-.6-1.3-1-1.6-2.9-.6-4.2l11-15c1-1.3 2.9-1.6 4.2-.6 1.3 1 1.6 2.9.6 4.2l-11 15c-.6.8-1.5 1.2-2.4 1.2z"/></g><g><path class="st1" d="M323.9 299h-270c-1.7 0-3-1.3-3-3s1.3-3 3-3h270c1.7 0 3 1.3 3 3s-1.3 3-3 3z"/></g><g><path class="st0" d="M148.9 296c-1.7 0-3-1.3-3-3 0-5 4-9 9-9s9 4 9 9c0 1.7-1.3 3-3 3h-12z"/><path class="st1" d="M154.9 287c3.3 0 6 2.7 6 6h-12c0-3.3 2.7-6 6-6m0-6c-6.6 0-12 5.4-12 12 0 3.3 2.7 6 6 6h12c3.3 0 6-2.7 6-6 0-6.6-5.4-12-12-12z"/></g><g><path class="st0" d="M130.9 296c-1.7 0-3-1.3-3-3 0-5 4-9 9-9s9 4 9 9c0 1.7-1.3 3-3 3h-12z"/><path class="st1" d="M136.9 287c3.3 0 6 2.7 6 6h-12c0-3.3 2.7-6 6-6m0-6c-6.6 0-12 5.4-12 12 0 3.3 2.7 6 6 6h12c3.3 0 6-2.7 6-6 0-6.6-5.4-12-12-12z"/></g><g><path class="st0" d="M112.9 296c-1.7 0-3-1.3-3-3 0-5 4-9 9-9s9 4 9 9c0 1.7-1.3 3-3 3h-12z"/><path class="st1" d="M118.9 287c3.3 0 6 2.7 6 6h-12c0-3.3 2.7-6 6-6m0-6c-6.6 0-12 5.4-12 12 0 3.3 2.7 6 6 6h12c3.3 0 6-2.7 6-6 0-6.6-5.4-12-12-12z"/></g><g><path class="st0" d="M94.9 296c-1.7 0-3-1.3-3-3 0-5 4-9 9-9s9 4 9 9c0 1.7-1.3 3-3 3h-12z"/><path class="st1" d="M100.9 287c3.3 0 6 2.7 6 6h-12c0-3.3 2.7-6 6-6m0-6c-6.6 0-12 5.4-12 12 0 3.3 2.7 6 6 6h12c3.3 0 6-2.7 6-6 0-6.6-5.4-12-12-12z"/></g><g><path class="st0" d="M76.9 296c-1.7 0-3-1.3-3-3 0-5 4-9 9-9s9 4 9 9c0 1.7-1.3 3-3 3h-12z"/><path class="st1" d="M82.9 287c3.3 0 6 2.7 6 6h-12c0-3.3 2.7-6 6-6m0-6c-6.6 0-12 5.4-12 12 0 3.3 2.7 6 6 6h12c3.3 0 6-2.7 6-6 0-6.6-5.4-12-12-12z"/></g></svg>