<?xml version="1.0" encoding="utf-8"?>
<!-- Generator: Adobe Illustrator 26.0.1, SVG Export Plug-In . SVG Version: 6.00 Build 0)  -->
<svg version="1.1" id="CRO_x5F_Hub-Website_x5F_Optimization"
	 xmlns="http://www.w3.org/2000/svg" xmlns:xlink="http://www.w3.org/1999/xlink" x="0px" y="0px" viewBox="0 0 400 400"
	 style="enable-background:new 0 0 400 400;" xml:space="preserve">
<style type="text/css">
	.st0{fill:none;}
	.st1{fill:#FBEFFA;}
	.st2{fill:#F7DFF4;}
	.st3{fill:#FFFFFF;}
	.st4{fill:#515979;}
	.st5{fill:#7DDF96;}
	.st6{fill:#667683;}
	.st7{fill:#EF7D7D;}
	.st8{fill:#FFE8A0;}
	.st9{fill:#3CB48C;}
	.st10{fill:#D8F5DF;}
	.st11{fill:#5F87A5;}
	.st12{fill:#507396;}
	.st13{fill:#D8EBFB;}
	.st14{fill:#FFD886;}
</style>
<g>
	<rect class="st0" width="400" height="400"/>
</g>
<g>
	<g>
		<circle class="st1" cx="199.54" cy="199.58" r="179"/>
	</g>
	<g>
		<circle class="st2" cx="199.54" cy="199.58" r="141.21"/>
	</g>
</g>
<g>
	<g>
		<g>
			<path class="st3" d="M109.54,325.58c-7.17,0-13-5.83-13-13v-226c0-7.17,5.83-13,13-13h180c7.17,0,13,5.83,13,13v226
				c0,7.17-5.83,13-13,13H109.54z"/>
		</g>
		<g>
			<path class="st4" d="M289.54,76.58c5.52,0,10,4.48,10,10v226c0,5.52-4.48,10-10,10h-180c-5.52,0-10-4.48-10-10v-226
				c0-5.52,4.48-10,10-10H289.54 M289.54,70.58h-180c-8.82,0-16,7.18-16,16v226c0,8.82,7.18,16,16,16h180c8.82,0,16-7.18,16-16v-226
				C305.54,77.75,298.36,70.58,289.54,70.58L289.54,70.58z"/>
		</g>
	</g>
	<g>
		<path class="st5" d="M289.54,322.58h-180c-5.52,0-10-4.48-10-10v-54h200v54C299.54,318.1,295.06,322.58,289.54,322.58z"/>
	</g>
	<g>
		<rect x="99.54" y="110.58" class="st5" width="200" height="76"/>
	</g>
	<g>
		<g>
			<path class="st6" d="M99.54,107.58c-1.66,0-3-1.34-3-3v-18c0-7.17,5.83-13,13-13h180c7.17,0,13,5.83,13,13v18c0,1.66-1.34,3-3,3
				H99.54z"/>
		</g>
		<g>
			<path class="st4" d="M289.54,76.58c5.52,0,10,4.48,10,10v18h-200v-18c0-5.52,4.48-10,10-10H289.54 M289.54,70.58h-180
				c-8.82,0-16,7.18-16,16v18c0,3.31,2.69,6,6,6h200c3.31,0,6-2.69,6-6v-18C305.54,77.75,298.36,70.58,289.54,70.58L289.54,70.58z"
				/>
		</g>
	</g>
	<g>
		<g>
			<path class="st3" d="M189.54,97.58c-3.86,0-7-3.14-7-7s3.14-7,7-7h94c3.86,0,7,3.14,7,7s-3.14,7-7,7H189.54z"/>
		</g>
		<g>
			<g>
				<path class="st4" d="M283.54,86.58c2.21,0,4,1.79,4,4s-1.79,4-4,4h-94c-2.21,0-4-1.79-4-4s1.79-4,4-4H283.54 M283.54,80.58h-94
					c-5.51,0-10,4.49-10,10s4.49,10,10,10h94c5.51,0,10-4.49,10-10S289.06,80.58,283.54,80.58L283.54,80.58z"/>
			</g>
		</g>
	</g>
	<g>
		<g>
			<circle class="st7" cx="115.54" cy="90.58" r="7"/>
		</g>
		<g>
			<g>
				<path class="st4" d="M115.54,86.58c2.21,0,4,1.79,4,4s-1.79,4-4,4s-4-1.79-4-4S113.33,86.58,115.54,86.58 M115.54,80.58
					c-5.51,0-10,4.49-10,10s4.49,10,10,10s10-4.49,10-10S121.06,80.58,115.54,80.58L115.54,80.58z"/>
			</g>
		</g>
	</g>
	<g>
		<g>
			<circle class="st8" cx="139.54" cy="90.58" r="7"/>
		</g>
		<g>
			<g>
				<path class="st4" d="M139.54,86.58c2.21,0,4,1.79,4,4s-1.79,4-4,4c-2.21,0-4-1.79-4-4S137.33,86.58,139.54,86.58 M139.54,80.58
					c-5.51,0-10,4.49-10,10s4.49,10,10,10s10-4.49,10-10S145.05,80.58,139.54,80.58L139.54,80.58z"/>
			</g>
		</g>
	</g>
	<g>
		<g>
			<circle class="st5" cx="163.54" cy="90.58" r="7"/>
		</g>
		<g>
			<g>
				<path class="st4" d="M163.54,86.58c2.21,0,4,1.79,4,4s-1.79,4-4,4c-2.21,0-4-1.79-4-4S161.33,86.58,163.54,86.58 M163.54,80.58
					c-5.51,0-10,4.49-10,10s4.49,10,10,10s10-4.49,10-10S169.05,80.58,163.54,80.58L163.54,80.58z"/>
			</g>
		</g>
	</g>
	<g>
		<g>
			<circle class="st9" cx="164.54" cy="147.08" r="2.5"/>
		</g>
		<g>
			<circle class="st9" cx="170.04" cy="158.08" r="2.5"/>
		</g>
		<g>
			<circle class="st9" cx="159.04" cy="158.08" r="2.5"/>
		</g>
	</g>
	<g>
		<g>
			<circle class="st9" cx="234.54" cy="147.08" r="2.5"/>
		</g>
		<g>
			<circle class="st9" cx="240.04" cy="158.08" r="2.5"/>
		</g>
		<g>
			<circle class="st9" cx="229.04" cy="158.08" r="2.5"/>
		</g>
	</g>
	<g>
		<rect x="99.54" y="185.58" class="st10" width="200" height="74"/>
	</g>
	<g>
		<g>
			<path class="st3" d="M118.54,244.58h42c2.21,0,4-1.79,4-4v-36c0-2.21-1.79-4-4-4h-42c-2.21,0-4,1.79-4,4v36
				C114.54,242.79,116.33,244.58,118.54,244.58z"/>
		</g>
		<g>
			<circle class="st10" cx="126.54" cy="212.58" r="6"/>
		</g>
		<g>
			<path class="st5" d="M156.54,226.58h-34c-1.1,0-2-0.9-2-2v0c0-1.1,0.9-2,2-2h34c1.1,0,2,0.9,2,2v0
				C158.54,225.68,157.65,226.58,156.54,226.58z"/>
		</g>
		<g>
			<path class="st5" d="M142.54,234.58h-20c-1.1,0-2-0.9-2-2v0c0-1.1,0.9-2,2-2h20c1.1,0,2,0.9,2,2v0
				C144.54,233.68,143.65,234.58,142.54,234.58z"/>
		</g>
	</g>
	<g>
		<g>
			<path class="st3" d="M238.54,244.58h42c2.21,0,4-1.79,4-4v-36c0-2.21-1.79-4-4-4h-42c-2.21,0-4,1.79-4,4v36
				C234.54,242.79,236.33,244.58,238.54,244.58z"/>
		</g>
		<g>
			<circle class="st10" cx="246.54" cy="212.58" r="6"/>
		</g>
		<g>
			<path class="st5" d="M276.54,226.58h-34c-1.1,0-2-0.9-2-2v0c0-1.1,0.9-2,2-2h34c1.1,0,2,0.9,2,2v0
				C278.54,225.68,277.65,226.58,276.54,226.58z"/>
		</g>
		<g>
			<path class="st5" d="M254.54,234.58h-12c-1.1,0-2-0.9-2-2v0c0-1.1,0.9-2,2-2h12c1.1,0,2,0.9,2,2v0
				C256.54,233.68,255.65,234.58,254.54,234.58z"/>
		</g>
	</g>
	<g>
		<g>
			<path class="st3" d="M178.54,244.58h42c2.21,0,4-1.79,4-4v-36c0-2.21-1.79-4-4-4h-42c-2.21,0-4,1.79-4,4v36
				C174.54,242.79,176.33,244.58,178.54,244.58z"/>
		</g>
		<g>
			<circle class="st10" cx="186.54" cy="212.58" r="6"/>
		</g>
		<g>
			<path class="st5" d="M216.54,226.58h-34c-1.1,0-2-0.9-2-2v0c0-1.1,0.9-2,2-2h34c1.1,0,2,0.9,2,2v0
				C218.54,225.68,217.65,226.58,216.54,226.58z"/>
		</g>
		<g>
			<path class="st5" d="M208.54,234.58h-26c-1.1,0-2-0.9-2-2v0c0-1.1,0.9-2,2-2h26c1.1,0,2,0.9,2,2v0
				C210.54,233.68,209.65,234.58,208.54,234.58z"/>
		</g>
	</g>
	<g>
		<circle class="st10" cx="139.54" cy="292.58" r="24"/>
	</g>
	<g>
		<circle class="st10" cx="199.54" cy="292.58" r="24"/>
	</g>
	<g>
		<circle class="st10" cx="259.54" cy="292.58" r="24"/>
	</g>
	<g>
		<g>
			<g>
				<path class="st4" d="M219.04,149.05c-0.32,0-0.64-0.08-0.94-0.24c-1.89-1.02-5.21-1.02-7.11,0c-0.97,0.52-2.18,0.16-2.71-0.82
					c-0.52-0.97-0.16-2.19,0.82-2.71c3.05-1.64,7.84-1.64,10.89,0c0.97,0.52,1.34,1.73,0.82,2.71
					C220.44,148.67,219.75,149.05,219.04,149.05z"/>
			</g>
			<g>
				<g>
					<circle class="st4" cx="214.54" cy="138.3" r="8"/>
				</g>
				<g>
					<circle class="st3" cx="216.54" cy="138.3" r="2"/>
				</g>
			</g>
			<g>
				<path class="st4" d="M208.66,122.91c0.68-0.6,1.26-0.97,1.95-1.35c0.68-0.36,1.39-0.66,2.14-0.88c1.49-0.46,3.14-0.63,4.81-0.42
					c0.84,0.09,1.66,0.34,2.47,0.62c0.4,0.16,0.77,0.38,1.15,0.57c0.39,0.18,0.74,0.42,1.07,0.69c1.4,0.97,2.36,2.35,2.98,3.77
					c0.45,1.03-0.01,2.23-1.04,2.69c-0.59,0.26-1.23,0.22-1.76-0.06l-0.37-0.2c-1.05-0.55-1.86-1.12-2.73-1.43
					c-0.84-0.36-1.66-0.59-2.56-0.71c-0.9-0.13-1.87-0.17-2.91-0.11c-0.52,0.04-1.06,0.07-1.61,0.14c-0.53,0.04-1.16,0.16-1.62,0.17
					l-0.62,0.01c-1.1,0.01-2-0.87-2.01-1.98C207.97,123.83,208.24,123.28,208.66,122.91z"/>
			</g>
			<g>
				<path class="st4" d="M189.04,149.05c-0.32,0-0.64-0.08-0.94-0.24c-1.89-1.02-5.22-1.02-7.11,0c-0.98,0.52-2.19,0.16-2.71-0.82
					c-0.52-0.97-0.16-2.19,0.82-2.71c3.05-1.64,7.84-1.64,10.89,0c0.97,0.52,1.34,1.73,0.82,2.71
					C190.44,148.67,189.75,149.05,189.04,149.05z"/>
			</g>
			<g>
				<g>
					<circle class="st4" cx="184.54" cy="138.3" r="8"/>
				</g>
				<g>
					<circle class="st3" cx="186.54" cy="138.3" r="2"/>
				</g>
			</g>
			<g>
				<path class="st4" d="M188.47,126.4c-0.46,0-1.08-0.13-1.62-0.17c-0.55-0.07-1.09-0.1-1.61-0.14c-1.05-0.05-2.02-0.02-2.91,0.11
					c-0.9,0.12-1.72,0.35-2.56,0.71c-0.87,0.31-1.69,0.88-2.73,1.43l-0.36,0.19c-1,0.52-2.23,0.14-2.75-0.86
					c-0.3-0.57-0.3-1.22-0.06-1.77c0.62-1.41,1.58-2.79,2.98-3.77c0.33-0.27,0.68-0.51,1.07-0.69c0.38-0.19,0.76-0.41,1.15-0.57
					c0.81-0.28,1.63-0.53,2.47-0.62c1.67-0.21,3.32-0.04,4.81,0.42c0.75,0.22,1.46,0.52,2.14,0.88c0.69,0.38,1.27,0.75,1.95,1.35
					c0.83,0.72,0.91,1.98,0.19,2.81c-0.4,0.45-0.95,0.69-1.51,0.68L188.47,126.4z"/>
			</g>
		</g>
		<g>
			<path class="st4" d="M199.96,161.33c-6.02,0-12.19-1.77-17.52-5.31c-0.92-0.61-1.17-1.85-0.56-2.77
				c0.61-0.92,1.85-1.17,2.77-0.56c9.2,6.1,21.68,6.11,29.68,0.02c0.88-0.67,2.13-0.5,2.8,0.38c0.67,0.88,0.5,2.13-0.38,2.8
				C211.99,159.52,206.05,161.33,199.96,161.33z"/>
		</g>
		<g>
			<path class="st4" d="M195.36,164.43c1.35,0.43,2.77,0.57,4.18,0.62c0.71,0.03,1.41-0.07,2.11-0.15c0.7-0.09,1.39-0.24,2.05-0.47
				c0.69-0.24,1.45,0.13,1.68,0.82c0.17,0.48,0.04,1-0.29,1.34l-0.72,0.76c-0.67,0.71-1.48,1.09-2.3,1.37
				c-0.83,0.24-1.69,0.36-2.54,0.31c-0.43-0.02-0.85-0.04-1.27-0.13c-0.42-0.06-0.84-0.17-1.25-0.3c-0.81-0.27-1.6-0.64-2.3-1.25
				l-0.67-0.59c-0.57-0.5-0.63-1.37-0.13-1.94C194.28,164.41,194.86,164.27,195.36,164.43z"/>
		</g>
	</g>
</g>
<g>
	<g>
		<g>
			<path class="st11" d="M374.21,315.62c-0.61,0-1.21-0.19-1.72-0.54L241.42,223.3c-2.45-1.72-2.25-5.5,0.49-9.42
				c0.72-1.03,3.31-4.39,6.42-4.39c0.83,0,1.61,0.24,2.27,0.7l131.06,91.77c1.36,0.95,1.69,2.82,0.74,4.18l-5.74,8.19
				c-0.46,0.65-1.15,1.1-1.94,1.23C374.55,315.6,374.38,315.62,374.21,315.62z"/>
		</g>
		<g>
			<g>
				<path class="st4" d="M248.33,212.49c0.21,0,0.4,0.05,0.55,0.16l131.06,91.77l-5.74,8.19l-131.06-91.77
					c-0.9-0.63-0.35-2.98,1.23-5.24C245.69,213.72,247.3,212.49,248.33,212.49 M248.33,206.49c-4.43,0-7.68,3.96-8.87,5.67
					c-4.36,6.22-3.02,11.32,0.24,13.6l131.06,91.77c1.05,0.73,2.25,1.09,3.44,1.09c1.89,0,3.75-0.89,4.92-2.56l5.74-8.19
					c0.91-1.3,1.27-2.92,0.99-4.48s-1.16-2.96-2.47-3.87l-131.06-91.77C251.16,206.92,249.78,206.49,248.33,206.49L248.33,206.49z"
					/>
			</g>
		</g>
	</g>
	<g>
		
			<rect x="311.26" y="180.18" transform="matrix(0.5736 -0.8192 0.8192 0.5736 -79.5419 367.5544)" class="st12" width="4" height="160"/>
	</g>
	<g>
		<g>
			<path class="st12" d="M374.75,315.78c-0.83,0-1.62-0.24-2.27-0.7c-0.7-0.49-2.26-1.98-1.52-5.15c0.32-1.35,1.03-2.87,2.01-4.27
				c0.72-1.03,3.31-4.39,6.41-4.39c0.83,0,1.62,0.24,2.27,0.7c0.7,0.49,2.26,1.98,1.52,5.15c-0.32,1.35-1.03,2.87-2.01,4.27
				C380.45,312.42,377.86,315.78,374.75,315.78z"/>
		</g>
		<g>
			<path class="st4" d="M379.39,304.27c0.21,0,0.4,0.05,0.55,0.16c0.9,0.63,0.35,2.98-1.23,5.24c-1.32,1.88-2.93,3.11-3.96,3.11
				c-0.21,0-0.4-0.05-0.55-0.16c-0.9-0.63-0.35-2.98,1.23-5.24C376.75,305.49,378.36,304.27,379.39,304.27 M379.39,298.27
				C379.39,298.27,379.39,298.27,379.39,298.27c-4.43,0-7.68,3.96-8.87,5.67c-4.36,6.22-3.02,11.32,0.24,13.6
				c1.16,0.81,2.54,1.24,3.99,1.24c4.43,0,7.68-3.96,8.87-5.67c1.21-1.73,2.07-3.56,2.47-5.3c0.81-3.44-0.21-6.54-2.72-8.3
				C382.22,298.7,380.84,298.27,379.39,298.27L379.39,298.27z"/>
		</g>
	</g>
	<g>
		<path class="st3" d="M244.37,215.6c-1.58,2.26-2.13,4.61-1.23,5.24l19.66,13.77c-0.9-0.63-0.35-2.98,1.23-5.24
			c1.58-2.26,3.6-3.58,4.51-2.95l-19.66-13.77C247.97,212.02,245.95,213.34,244.37,215.6z"/>
	</g>
	<g>
		<path class="st13" d="M244.98,214.8l19.66,13.77c1.46-1.76,3.11-2.71,3.9-2.15l-19.66-13.77
			C248.08,212.1,246.44,213.04,244.98,214.8z"/>
	</g>
</g>
<g>
	<circle class="st14" cx="39.08" cy="66.07" r="3"/>
</g>
<path class="st14" d="M40.71,111.86h-6v-6c0-1.66-1.34-3-3-3s-3,1.34-3,3v6h-6c-1.66,0-3,1.34-3,3s1.34,3,3,3h6v6c0,1.66,1.34,3,3,3
	s3-1.34,3-3v-6h6c1.66,0,3-1.34,3-3S42.37,111.86,40.71,111.86z"/>
<g>
	<circle class="st14" cx="49.02" cy="157.3" r="4"/>
</g>
<g>
	<circle class="st14" cx="74.51" cy="99.97" r="4"/>
</g>
<g>
	<path class="st14" d="M78.71,35.78c-2.98,0-5.4-2.42-5.4-5.4c0-0.99-0.81-1.8-1.8-1.8c-0.99,0-1.8,0.81-1.8,1.8
		c0,2.98-2.42,5.4-5.4,5.4c-0.99,0-1.8,0.81-1.8,1.8c0,0.99,0.81,1.8,1.8,1.8c2.98,0,5.4,2.42,5.4,5.4c0,0.99,0.81,1.8,1.8,1.8
		c0.99,0,1.8-0.81,1.8-1.8c0-2.98,2.42-5.4,5.4-5.4c0.99,0,1.8-0.81,1.8-1.8C80.51,36.58,79.71,35.78,78.71,35.78z"/>
</g>
<g>
	<g>
		<circle class="st14" cx="264.54" cy="201.58" r="3"/>
	</g>
</g>
<g>
	<g>
		<circle class="st14" cx="237.04" cy="191.58" r="3"/>
	</g>
</g>
<g>
	<g>
		<circle class="st14" cx="231.54" cy="246.58" r="4"/>
	</g>
</g>
<g>
	<g>
		<path class="st14" d="M215.8,196.78c-2.98,0-5.4-2.42-5.4-5.4c0-0.99-0.81-1.8-1.8-1.8s-1.8,0.81-1.8,1.8c0,2.98-2.42,5.4-5.4,5.4
			c-0.99,0-1.8,0.81-1.8,1.8s0.81,1.8,1.8,1.8c2.98,0,5.4,2.42,5.4,5.4c0,0.99,0.81,1.8,1.8,1.8s1.8-0.81,1.8-1.8
			c0-2.98,2.42-5.4,5.4-5.4c0.99,0,1.8-0.81,1.8-1.8S216.79,196.78,215.8,196.78z"/>
	</g>
</g>
<g>
	<g>
		<path class="st14" d="M263.46,172.52c-2.98,0-5.4-2.42-5.4-5.4c0-0.99-0.81-1.8-1.8-1.8c-0.99,0-1.8,0.81-1.8,1.8
			c0,2.98-2.42,5.4-5.4,5.4c-0.99,0-1.8,0.81-1.8,1.8s0.81,1.8,1.8,1.8c2.98,0,5.4,2.42,5.4,5.4c0,0.99,0.81,1.8,1.8,1.8
			c0.99,0,1.8-0.81,1.8-1.8c0-2.98,2.42-5.4,5.4-5.4c0.99,0,1.8-0.81,1.8-1.8S264.45,172.52,263.46,172.52z"/>
	</g>
</g>
<g>
	<g>
		<circle class="st14" cx="373.07" cy="340.37" r="3"/>
	</g>
</g>
<g>
	<g>
		<circle class="st14" cx="362.13" cy="369.02" r="3"/>
	</g>
</g>
<g>
	<g>
		<path class="st14" d="M339.33,355.22c-2.98,0-5.4-2.42-5.4-5.4c0-0.99-0.81-1.8-1.8-1.8s-1.8,0.81-1.8,1.8
			c0,2.98-2.42,5.4-5.4,5.4c-0.99,0-1.8,0.81-1.8,1.8s0.81,1.8,1.8,1.8c2.98,0,5.4,2.42,5.4,5.4c0,0.99,0.81,1.8,1.8,1.8
			s1.8-0.81,1.8-1.8c0-2.98,2.42-5.4,5.4-5.4c0.99,0,1.8-0.81,1.8-1.8C341.13,356.03,340.32,355.22,339.33,355.22z"/>
	</g>
</g>
<g>
	<rect class="st0" width="400" height="400"/>
</g>
</svg>
