<?xml version="1.0" encoding="utf-8"?>
<!-- Generator: Adobe Illustrator 25.4.1, SVG Export Plug-In . SVG Version: 6.00 Build 0)  -->
<svg version="1.1" id="CRO_x5F_Hub-CRO_x5F_Copywriting"
	 xmlns="http://www.w3.org/2000/svg" xmlns:xlink="http://www.w3.org/1999/xlink" x="0px" y="0px" viewBox="0 0 400 400"
	 style="enable-background:new 0 0 400 400;" xml:space="preserve">
<style type="text/css">
	.st0{fill:#FFFFFF;}
	.st1{fill:#515979;}
	.st2{fill:#F89D81;}
	.st3{fill:#667683;}
	.st4{fill:#EF7D7D;}
	.st5{fill:#FFE8A0;}
	.st6{fill:#7DDF96;}
	.st7{fill:#FDE1D9;}
	.st8{fill:#2196F3;}
	.st9{fill:#D8EBFB;}
	.st10{fill:#FFD886;}
	.st11{fill:#FBB040;}
	.st12{fill:#1E78D2;}
	.st13{fill:#FFEBEB;}
	.st14{fill:#75A5C3;}
	.st15{opacity:0.2;}
	.st16{fill:none;}
</style>
<g>
	<g>
		<g>
			<path class="st0" d="M173.6,292.89c-7.17,0-13-5.83-13-13v-226c0-7.17,5.83-13,13-13h180c7.17,0,13,5.83,13,13v226
				c0,7.17-5.83,13-13,13H173.6z"/>
		</g>
		<g>
			<path class="st1" d="M353.6,43.89c5.52,0,10,4.48,10,10v226c0,5.52-4.48,10-10,10h-180c-5.52,0-10-4.48-10-10v-226
				c0-5.52,4.48-10,10-10H353.6 M353.6,37.89h-180c-8.82,0-16,7.18-16,16v226c0,8.82,7.18,16,16,16h180c8.82,0,16-7.18,16-16v-226
				C369.6,45.06,362.42,37.89,353.6,37.89L353.6,37.89z"/>
		</g>
	</g>
	<g>
		<path class="st2" d="M353.6,289.89h-180c-5.52,0-10-4.48-10-10v-54h200v54C363.6,285.41,359.12,289.89,353.6,289.89z"/>
	</g>
	<g>
		<rect x="163.6" y="77.89" class="st2" width="200" height="76"/>
	</g>
	<g>
		<g>
			<path class="st3" d="M163.6,74.89c-1.66,0-3-1.34-3-3v-18c0-7.17,5.83-13,13-13h180c7.17,0,13,5.83,13,13v18c0,1.66-1.34,3-3,3
				H163.6z"/>
		</g>
		<g>
			<path class="st1" d="M353.6,43.89c5.52,0,10,4.48,10,10v18h-200v-18c0-5.52,4.48-10,10-10H353.6 M353.6,37.89h-180
				c-8.82,0-16,7.18-16,16v18c0,3.31,2.69,6,6,6h200c3.31,0,6-2.69,6-6v-18C369.6,45.06,362.42,37.89,353.6,37.89L353.6,37.89z"/>
		</g>
	</g>
	<g>
		<g>
			<path class="st0" d="M253.6,64.89c-3.86,0-7-3.14-7-7s3.14-7,7-7h94c3.86,0,7,3.14,7,7s-3.14,7-7,7H253.6z"/>
		</g>
		<g>
			<g>
				<path class="st1" d="M347.6,53.89c2.21,0,4,1.79,4,4s-1.79,4-4,4h-94c-2.21,0-4-1.79-4-4s1.79-4,4-4H347.6 M347.6,47.89h-94
					c-5.51,0-10,4.49-10,10s4.49,10,10,10h94c5.51,0,10-4.49,10-10S353.11,47.89,347.6,47.89L347.6,47.89z"/>
			</g>
		</g>
	</g>
	<g>
		<g>
			<circle class="st4" cx="179.6" cy="57.89" r="7"/>
		</g>
		<g>
			<g>
				<path class="st1" d="M179.6,53.89c2.21,0,4,1.79,4,4c0,2.21-1.79,4-4,4s-4-1.79-4-4C175.6,55.68,177.39,53.89,179.6,53.89
					 M179.6,47.89c-5.51,0-10,4.49-10,10s4.49,10,10,10s10-4.49,10-10S185.11,47.89,179.6,47.89L179.6,47.89z"/>
			</g>
		</g>
	</g>
	<g>
		<g>
			<circle class="st5" cx="203.6" cy="57.89" r="7"/>
		</g>
		<g>
			<g>
				<path class="st1" d="M203.6,53.89c2.21,0,4,1.79,4,4c0,2.21-1.79,4-4,4s-4-1.79-4-4C199.6,55.68,201.39,53.89,203.6,53.89
					 M203.6,47.89c-5.51,0-10,4.49-10,10s4.49,10,10,10s10-4.49,10-10S209.11,47.89,203.6,47.89L203.6,47.89z"/>
			</g>
		</g>
	</g>
	<g>
		<g>
			<circle class="st6" cx="227.6" cy="57.89" r="7"/>
		</g>
		<g>
			<g>
				<path class="st1" d="M227.6,53.89c2.21,0,4,1.79,4,4c0,2.21-1.79,4-4,4s-4-1.79-4-4C223.6,55.68,225.39,53.89,227.6,53.89
					 M227.6,47.89c-5.51,0-10,4.49-10,10s4.49,10,10,10s10-4.49,10-10S233.11,47.89,227.6,47.89L227.6,47.89z"/>
			</g>
		</g>
	</g>
	<g>
		<g>
			<circle class="st4" cx="228.6" cy="114.39" r="2.5"/>
		</g>
		<g>
			<circle class="st4" cx="234.1" cy="125.39" r="2.5"/>
		</g>
		<g>
			<circle class="st4" cx="223.1" cy="125.39" r="2.5"/>
		</g>
	</g>
	<g>
		<g>
			<circle class="st4" cx="298.6" cy="114.39" r="2.5"/>
		</g>
		<g>
			<circle class="st4" cx="304.1" cy="125.39" r="2.5"/>
		</g>
		<g>
			<circle class="st4" cx="293.1" cy="125.39" r="2.5"/>
		</g>
	</g>
	<g>
		<rect x="163.6" y="152.89" class="st7" width="200" height="74"/>
	</g>
	<g>
		<g>
			<path class="st0" d="M182.6,211.89h42c2.21,0,4-1.79,4-4v-36c0-2.21-1.79-4-4-4h-42c-2.21,0-4,1.79-4,4v36
				C178.6,210.1,180.39,211.89,182.6,211.89z"/>
		</g>
		<g>
			<circle class="st7" cx="190.6" cy="179.89" r="6"/>
		</g>
		<g>
			<path class="st2" d="M220.6,193.89h-34c-1.1,0-2-0.9-2-2l0,0c0-1.1,0.9-2,2-2h34c1.1,0,2,0.9,2,2l0,0
				C222.6,192.99,221.71,193.89,220.6,193.89z"/>
		</g>
		<g>
			<path class="st2" d="M206.6,201.89h-20c-1.1,0-2-0.9-2-2l0,0c0-1.1,0.9-2,2-2h20c1.1,0,2,0.9,2,2l0,0
				C208.6,200.99,207.71,201.89,206.6,201.89z"/>
		</g>
	</g>
	<g>
		<g>
			<path class="st0" d="M302.6,211.89h42c2.21,0,4-1.79,4-4v-36c0-2.21-1.79-4-4-4h-42c-2.21,0-4,1.79-4,4v36
				C298.6,210.1,300.39,211.89,302.6,211.89z"/>
		</g>
		<g>
			<circle class="st7" cx="310.6" cy="179.89" r="6"/>
		</g>
		<g>
			<path class="st2" d="M340.6,193.89h-34c-1.1,0-2-0.9-2-2l0,0c0-1.1,0.9-2,2-2h34c1.1,0,2,0.9,2,2l0,0
				C342.6,192.99,341.71,193.89,340.6,193.89z"/>
		</g>
		<g>
			<path class="st2" d="M318.6,201.89h-12c-1.1,0-2-0.9-2-2l0,0c0-1.1,0.9-2,2-2h12c1.1,0,2,0.9,2,2l0,0
				C320.6,200.99,319.71,201.89,318.6,201.89z"/>
		</g>
	</g>
	<g>
		<g>
			<path class="st0" d="M242.6,211.89h42c2.21,0,4-1.79,4-4v-36c0-2.21-1.79-4-4-4h-42c-2.21,0-4,1.79-4,4v36
				C238.6,210.1,240.39,211.89,242.6,211.89z"/>
		</g>
		<g>
			<circle class="st7" cx="250.6" cy="179.89" r="6"/>
		</g>
		<g>
			<path class="st2" d="M280.6,193.89h-34c-1.1,0-2-0.9-2-2l0,0c0-1.1,0.9-2,2-2h34c1.1,0,2,0.9,2,2l0,0
				C282.6,192.99,281.71,193.89,280.6,193.89z"/>
		</g>
		<g>
			<path class="st2" d="M272.6,201.89h-26c-1.1,0-2-0.9-2-2l0,0c0-1.1,0.9-2,2-2h26c1.1,0,2,0.9,2,2l0,0
				C274.6,200.99,273.71,201.89,272.6,201.89z"/>
		</g>
	</g>
	<g>
		<circle class="st7" cx="203.6" cy="259.89" r="24"/>
	</g>
	<g>
		<circle class="st7" cx="263.6" cy="259.89" r="24"/>
	</g>
	<g>
		<circle class="st7" cx="323.6" cy="259.89" r="24"/>
	</g>
	<g>
		<g>
			<g>
				<path class="st1" d="M283.1,116.36c-0.32,0-0.64-0.08-0.94-0.24c-1.9-1.02-5.22-1.02-7.11,0c-0.98,0.52-2.19,0.16-2.71-0.82
					c-0.52-0.97-0.16-2.19,0.82-2.71c3.05-1.64,7.84-1.64,10.89,0c0.97,0.52,1.34,1.73,0.82,2.71
					C284.5,115.98,283.81,116.36,283.1,116.36z"/>
			</g>
			<g>
				<g>
					<circle class="st1" cx="278.6" cy="105.61" r="8"/>
				</g>
				<g>
					<circle class="st0" cx="280.6" cy="105.61" r="2"/>
				</g>
			</g>
			<g>
				<path class="st1" d="M272.71,90.22c0.68-0.6,1.26-0.97,1.95-1.35c0.68-0.36,1.39-0.66,2.14-0.88c1.49-0.46,3.14-0.63,4.81-0.42
					c0.84,0.09,1.66,0.34,2.47,0.62c0.4,0.16,0.77,0.38,1.15,0.57c0.39,0.18,0.74,0.42,1.07,0.69c1.4,0.97,2.36,2.35,2.98,3.77
					c0.45,1.03-0.01,2.23-1.04,2.69c-0.59,0.26-1.23,0.22-1.76-0.06l-0.37-0.2c-1.05-0.55-1.86-1.12-2.73-1.43
					c-0.84-0.36-1.66-0.59-2.56-0.71c-0.9-0.13-1.87-0.17-2.91-0.11c-0.52,0.04-1.06,0.07-1.61,0.14c-0.53,0.04-1.16,0.16-1.62,0.17
					l-0.62,0.01c-1.1,0.01-2-0.87-2.01-1.98C272.03,91.14,272.3,90.59,272.71,90.22z"/>
			</g>
			<g>
				<path class="st1" d="M253.1,116.36c-0.32,0-0.64-0.08-0.94-0.24c-1.9-1.02-5.22-1.02-7.11,0c-0.98,0.52-2.19,0.16-2.71-0.82
					c-0.52-0.97-0.16-2.19,0.82-2.71c3.05-1.64,7.84-1.64,10.89,0c0.97,0.52,1.34,1.73,0.82,2.71
					C254.5,115.98,253.81,116.36,253.1,116.36z"/>
			</g>
			<g>
				<g>
					<circle class="st1" cx="248.6" cy="105.61" r="8"/>
				</g>
				<g>
					<circle class="st0" cx="250.6" cy="105.61" r="2"/>
				</g>
			</g>
			<g>
				<path class="st1" d="M252.53,93.71c-0.46,0-1.08-0.13-1.62-0.17c-0.55-0.07-1.09-0.1-1.61-0.14c-1.05-0.05-2.02-0.02-2.91,0.11
					c-0.9,0.12-1.72,0.35-2.56,0.71c-0.87,0.31-1.69,0.88-2.73,1.43l-0.36,0.19c-1,0.52-2.23,0.14-2.75-0.86
					c-0.3-0.57-0.3-1.22-0.06-1.77c0.62-1.41,1.58-2.79,2.98-3.77c0.33-0.27,0.68-0.51,1.07-0.69c0.38-0.19,0.76-0.41,1.15-0.57
					c0.81-0.28,1.63-0.53,2.47-0.62c1.67-0.21,3.32-0.04,4.81,0.42c0.75,0.22,1.46,0.52,2.14,0.88c0.69,0.38,1.27,0.75,1.95,1.35
					c0.83,0.72,0.91,1.98,0.19,2.81c-0.4,0.45-0.95,0.69-1.51,0.68L252.53,93.71z"/>
			</g>
		</g>
		<g>
			<path class="st1" d="M264.02,128.64c-6.02,0-12.19-1.77-17.52-5.31c-0.92-0.61-1.17-1.85-0.56-2.77
				c0.61-0.92,1.85-1.17,2.77-0.56c9.2,6.1,21.68,6.11,29.68,0.02c0.88-0.67,2.13-0.5,2.8,0.38c0.67,0.88,0.5,2.13-0.38,2.8
				C276.05,126.83,270.11,128.64,264.02,128.64z"/>
		</g>
		<g>
			<path class="st1" d="M259.42,131.74c1.35,0.43,2.77,0.57,4.18,0.62c0.71,0.03,1.41-0.07,2.11-0.15c0.7-0.09,1.39-0.24,2.05-0.47
				c0.69-0.24,1.45,0.13,1.68,0.82c0.17,0.48,0.04,1-0.29,1.34l-0.72,0.76c-0.67,0.71-1.48,1.09-2.3,1.37
				c-0.83,0.24-1.69,0.36-2.54,0.31c-0.43-0.02-0.85-0.04-1.27-0.13c-0.42-0.06-0.84-0.17-1.25-0.3c-0.81-0.27-1.6-0.64-2.3-1.25
				l-0.67-0.59c-0.57-0.5-0.63-1.37-0.13-1.94C258.34,131.72,258.92,131.58,259.42,131.74z"/>
		</g>
	</g>
</g>
<g>
	<g>
		<g>
			<g>
				<path class="st8" d="M62.58,321.01c-1.66,0-3-1.34-3-3v-172c0-1.66,1.34-3,3-3h141.65c1.66,0,3,1.34,3,3v172c0,1.66-1.34,3-3,3
					H62.58z"/>
			</g>
			<g>
				<path class="st1" d="M204.23,146.01v172H62.58v-172H204.23 M204.23,140.01H62.58c-3.31,0-6,2.69-6,6v172c0,3.31,2.69,6,6,6
					h141.65c3.31,0,6-2.69,6-6v-172C210.23,142.69,207.55,140.01,204.23,140.01L204.23,140.01z"/>
			</g>
		</g>
		<g>
			<g>
				<path class="st9" d="M50.15,329.32c-1.66,0-3-1.34-3-3V157.7c0-1.66,1.34-3,3-3h142.08c1.66,0,3,1.34,3,3v154.17
					c0,0.84-0.35,1.64-0.96,2.2l-15.65,14.45c-0.55,0.51-1.28,0.8-2.04,0.8H50.15z"/>
			</g>
			<g>
				<g>
					<path class="st1" d="M192.23,157.7v154.17l-15.65,14.45H50.15V157.7H192.23 M192.23,151.7H50.15c-3.31,0-6,2.69-6,6v168.62
						c0,3.31,2.69,6,6,6h126.43c1.51,0,2.96-0.57,4.07-1.59l15.65-14.45c1.23-1.14,1.93-2.73,1.93-4.41V157.7
						C198.23,154.39,195.55,151.7,192.23,151.7L192.23,151.7z"/>
				</g>
			</g>
		</g>
		<g>
			<path class="st1" d="M176.58,175.32c-0.81,0-1.61-0.32-2.21-0.97c-1.12-1.22-1.05-3.12,0.17-4.24l15.65-14.45
				c1.22-1.12,3.12-1.05,4.24,0.17c1.12,1.22,1.05,3.12-0.17,4.24l-15.65,14.45C178.04,175.05,177.31,175.32,176.58,175.32z"/>
		</g>
		<g>
			<g>
				<path class="st8" d="M36.58,341.01c-1.66,0-3-1.34-3-3v-166c0-1.66,1.34-3,3-3h140c1.66,0,3,1.34,3,3v166c0,1.66-1.34,3-3,3
					H36.58z"/>
			</g>
			<g>
				<path class="st1" d="M176.58,172.01v166h-140v-166H176.58 M176.58,166.01h-140c-3.31,0-6,2.69-6,6v166c0,3.31,2.69,6,6,6h140
					c3.31,0,6-2.69,6-6v-166C182.58,168.69,179.9,166.01,176.58,166.01L176.58,166.01z"/>
			</g>
		</g>
		<g>
			<g>
				<path class="st10" d="M36.58,341.01c-1.66,0-3-1.34-3-3v-166c0-1.66,1.34-3,3-3h8c1.66,0,3,1.34,3,3v166c0,1.66-1.34,3-3,3
					H36.58z"/>
			</g>
			<g>
				<g>
					<path class="st1" d="M44.58,172.01v166h-8v-166H44.58 M44.58,166.01h-8c-3.31,0-6,2.69-6,6v166c0,3.31,2.69,6,6,6h8
						c3.31,0,6-2.69,6-6v-166C50.58,168.69,47.9,166.01,44.58,166.01L44.58,166.01z"/>
				</g>
			</g>
		</g>
		<g>
			<g>
				<path class="st10" d="M36.58,341.01c-1.66,0-3-1.34-3-3v-171c0-1.66,1.34-3,3-3h8c1.66,0,3,1.34,3,3v171c0,1.66-1.34,3-3,3
					H36.58z"/>
			</g>
			<g>
				<g>
					<path class="st1" d="M44.58,167.01v171h-8v-171H44.58 M44.58,161.01h-8c-3.31,0-6,2.69-6,6v171c0,3.31,2.69,6,6,6h8
						c3.31,0,6-2.69,6-6v-171C50.58,163.69,47.9,161.01,44.58,161.01L44.58,161.01z"/>
				</g>
			</g>
		</g>
		<g>
			<g>
				<path class="st11" d="M36.58,241.01c-1.66,0-3-1.34-3-3v-40c0-1.66,1.34-3,3-3h8c1.66,0,3,1.34,3,3v40c0,1.66-1.34,3-3,3H36.58z
					"/>
			</g>
			<g>
				<g>
					<path class="st1" d="M44.58,198.01v40h-8v-40H44.58 M44.58,192.01h-8c-3.31,0-6,2.69-6,6v40c0,3.31,2.69,6,6,6h8
						c3.31,0,6-2.69,6-6v-40C50.58,194.69,47.9,192.01,44.58,192.01L44.58,192.01z"/>
				</g>
			</g>
		</g>
		<g>
			<g>
				<path class="st11" d="M36.58,319.01c-1.66,0-3-1.34-3-3v-10c0-1.66,1.34-3,3-3h8c1.66,0,3,1.34,3,3v10c0,1.66-1.34,3-3,3H36.58z
					"/>
			</g>
			<g>
				<g>
					<path class="st1" d="M44.58,306.01v10h-8v-10H44.58 M44.58,300.01h-8c-3.31,0-6,2.69-6,6v10c0,3.31,2.69,6,6,6h8
						c3.31,0,6-2.69,6-6v-10C50.58,302.69,47.9,300.01,44.58,300.01L44.58,300.01z"/>
				</g>
			</g>
		</g>
		<g>
			<g>
				<polygon class="st11" points="42.74,159.01 60.08,143.01 73.92,143.01 56.59,159.01 				"/>
			</g>
			<g>
				<g>
					<path class="st1" d="M66.25,146.01l-10.83,10h-5l10.83-10H66.25 M81.6,140.01H66.25h-5H58.9l-1.72,1.59l-10.83,10l-11.28,10.41
						h15.35h5h2.35l1.72-1.59l10.83-10L81.6,140.01L81.6,140.01z"/>
				</g>
			</g>
		</g>
		<g>
			<g>
				<path class="st10" d="M36.58,169.01c-1.24,0-2.34-0.76-2.79-1.91s-0.15-2.46,0.76-3.3l21.67-20c0.55-0.51,1.28-0.8,2.04-0.8h8
					c1.24,0,2.34,0.76,2.79,1.91s0.15,2.46-0.76,3.3l-21.67,20c-0.55,0.51-1.28,0.8-2.04,0.8H36.58z"/>
			</g>
			<g>
				<g>
					<path class="st1" d="M66.25,146.01L66.25,146.01 M66.25,146.01l-21.67,20h-8l21.67-20H66.25 M66.25,140.01L66.25,140.01h-8.01
						c-1.51,0-2.96,0.57-4.07,1.59l-21.67,20c-1.82,1.68-2.42,4.29-1.52,6.59c0.9,2.3,3.12,3.82,5.59,3.82h8
						c1.51,0,2.96-0.57,4.07-1.59l21.59-19.93c1.23-1.1,2.01-2.7,2.01-4.48C72.25,142.69,69.57,140.01,66.25,140.01L66.25,140.01z
						 M66.25,152.01L66.25,152.01L66.25,152.01L66.25,152.01z"/>
				</g>
			</g>
		</g>
	</g>
	<g>
		<path class="st1" d="M118.46,226.61c0.78-0.73,1.44-1.19,2.24-1.66c0.78-0.44,1.61-0.82,2.5-1.09c1.75-0.58,3.73-0.77,5.72-0.48
			c1,0.12,1.97,0.46,2.91,0.82c0.9,0.47,1.81,0.93,2.54,1.6c0.81,0.59,1.38,1.37,1.96,2.11c0.54,0.77,0.92,1.6,1.26,2.43
			c0.49,1.2-0.09,2.57-1.29,3.05c-0.64,0.26-1.33,0.22-1.91-0.07l-0.62-0.31c-0.63-0.31-1.1-0.74-1.63-1.03
			c-0.52-0.29-0.99-0.61-1.48-0.79c-0.46-0.27-0.95-0.38-1.4-0.58c-0.48-0.1-0.94-0.27-1.44-0.33c-0.98-0.17-2.06-0.2-3.25-0.14
			c-0.59,0.06-1.2,0.1-1.83,0.2c-0.61,0.06-1.32,0.23-1.85,0.24l-0.78,0.02c-1.28,0.04-2.35-0.96-2.39-2.24
			C117.7,227.68,117.99,227.05,118.46,226.61z"/>
	</g>
	<g>
		<path class="st1" d="M98.27,230.59c-0.53-0.02-1.24-0.19-1.85-0.24c-0.62-0.1-1.24-0.14-1.83-0.2c-1.18-0.06-2.26-0.03-3.25,0.14
			c-0.5,0.06-0.95,0.23-1.44,0.33c-0.45,0.2-0.94,0.31-1.4,0.58c-0.49,0.19-0.96,0.51-1.48,0.79c-0.53,0.29-1,0.72-1.63,1.03
			l-0.61,0.3c-1.16,0.57-2.57,0.1-3.14-1.06c-0.31-0.62-0.31-1.32-0.07-1.92c0.34-0.83,0.72-1.66,1.26-2.43
			c0.58-0.74,1.16-1.51,1.96-2.11c0.73-0.67,1.64-1.13,2.54-1.6c0.94-0.36,1.92-0.71,2.91-0.82c1.99-0.3,3.96-0.1,5.72,0.48
			c0.88,0.27,1.71,0.65,2.5,1.09c0.8,0.47,1.46,0.93,2.24,1.66c0.93,0.88,0.98,2.34,0.1,3.28c-0.47,0.5-1.11,0.75-1.75,0.73
			L98.27,230.59z"/>
	</g>
	<g>
		<path class="st1" d="M99.6,246.51c-1.38,0-2.5-1.12-2.5-2.5c0-2.48-2.02-4.5-4.5-4.5s-4.5,2.02-4.5,4.5c0,1.38-1.12,2.5-2.5,2.5
			s-2.5-1.12-2.5-2.5c0-5.24,4.26-9.5,9.5-9.5s9.5,4.26,9.5,9.5C102.1,245.39,100.99,246.51,99.6,246.51z"/>
	</g>
	<g>
		<path class="st1" d="M133.56,246.51c-1.38,0-2.5-1.12-2.5-2.5c0-2.48-2.02-4.5-4.5-4.5s-4.5,2.02-4.5,4.5c0,1.38-1.12,2.5-2.5,2.5
			s-2.5-1.12-2.5-2.5c0-5.24,4.26-9.5,9.5-9.5s9.5,4.26,9.5,9.5C136.06,245.39,134.94,246.51,133.56,246.51z"/>
	</g>
	<g>
		<g>
			<path class="st1" d="M109.58,278.51c-12.41,0-22.5-10.09-22.5-22.5c0-1.38,1.12-2.5,2.5-2.5h40c1.38,0,2.5,1.12,2.5,2.5
				C132.08,268.42,121.99,278.51,109.58,278.51z"/>
		</g>
		<g>
			<path class="st1" d="M129.58,256.01L129.58,256.01 M129.58,256.01c0,11.05-8.95,20-20,20c-11.05,0-20-8.95-20-20H129.58
				 M129.59,251.01L129.59,251.01H89.58c-2.76,0-5,2.24-5,5c0,13.79,11.21,25,25,25c13.73,0,24.9-11.12,25-24.82
				c0-0.06,0-0.12,0-0.18C134.58,253.25,132.35,251.01,129.59,251.01L129.59,251.01z M129.58,261.01L129.58,261.01L129.58,261.01
				L129.58,261.01z"/>
		</g>
	</g>
	<g>
		<ellipse class="st4" cx="109.58" cy="269.34" rx="14.88" ry="6.67"/>
	</g>
	<g>
		<g>
			<circle class="st12" cx="149.58" cy="250.01" r="2"/>
		</g>
		<g>
			<circle class="st12" cx="145.58" cy="258.01" r="2"/>
		</g>
		<g>
			<circle class="st12" cx="153.58" cy="258.01" r="2"/>
		</g>
	</g>
	<g>
		<g>
			<circle class="st12" cx="69.58" cy="250.01" r="2"/>
		</g>
		<g>
			<circle class="st12" cx="65.58" cy="258.01" r="2"/>
		</g>
		<g>
			<circle class="st12" cx="73.58" cy="258.01" r="2"/>
		</g>
	</g>
</g>
<g>
	<g>
		<g>
			<path class="st13" d="M220.04,363.4c-0.65,0-1.29-0.25-1.77-0.73c-0.73-0.73-0.94-1.83-0.52-2.77l7.78-17.68
				c0.33-0.76,1.02-1.3,1.83-1.45c0.15-0.03,0.31-0.04,0.46-0.04c0.66,0,1.29,0.26,1.77,0.73l9.9,9.9c0.58,0.58,0.84,1.42,0.69,2.23
				c-0.15,0.81-0.69,1.5-1.45,1.83l-17.68,7.78C220.72,363.33,220.38,363.4,220.04,363.4z"/>
		</g>
		<g>
			<path class="st1" d="M227.81,343.23l9.9,9.9l-17.68,7.78L227.81,343.23 M227.81,338.23c-0.31,0-0.62,0.03-0.92,0.09
				c-1.62,0.3-2.99,1.39-3.65,2.9l-7.78,17.68c-0.83,1.89-0.42,4.09,1.04,5.55c0.96,0.96,2.24,1.46,3.54,1.46
				c0.68,0,1.36-0.14,2.01-0.42l17.68-7.78c1.51-0.66,2.6-2.03,2.9-3.65c0.3-1.62-0.21-3.29-1.38-4.46l-9.9-9.9
				C230.4,338.74,229.13,338.23,227.81,338.23L227.81,338.23z"/>
		</g>
	</g>
	<g>
		<polygon class="st1" points="220.04,360.9 222.16,354.54 226.4,358.78 		"/>
	</g>
	<g>
		<g>
			<path class="st10" d="M237.71,355.62c-0.64,0-1.28-0.24-1.77-0.73l-9.9-9.9c-0.98-0.98-0.98-2.56,0-3.54l60.1-60.1
				c0.49-0.49,1.13-0.73,1.77-0.73s1.28,0.24,1.77,0.73l9.9,9.9c0.98,0.98,0.98,2.56,0,3.54l-60.1,60.1
				C238.99,355.38,238.35,355.62,237.71,355.62z"/>
		</g>
		<g>
			<path class="st1" d="M287.92,283.12l9.9,9.9l-60.1,60.1l-9.9-9.9L287.92,283.12 M287.92,278.12c-1.33,0-2.6,0.53-3.54,1.46
				l-60.1,60.1c-1.95,1.95-1.95,5.12,0,7.07l9.9,9.9c0.94,0.94,2.21,1.46,3.54,1.46s2.6-0.53,3.54-1.46l60.1-60.1
				c1.95-1.95,1.95-5.12,0-7.07l-9.9-9.9C290.52,278.65,289.24,278.12,287.92,278.12L287.92,278.12z"/>
		</g>
	</g>
	<g>
		
			<rect x="261.79" y="278.1" transform="matrix(0.7071 0.7071 -0.7071 0.7071 304.3988 -93.6881)" class="st11" width="7" height="85"/>
	</g>
	<g>
		<g>
			
				<rect x="292.73" y="272.21" transform="matrix(0.7071 -0.7071 0.7071 0.7071 -111.5541 294.088)" class="st14" width="13" height="19"/>
		</g>
		<g>
			<path class="st1" d="M297.11,273.93l9.9,9.9l-5.66,5.66l-9.9-9.9L297.11,273.93 M297.11,266.86l-3.54,3.54l-5.66,5.66l-3.54,3.54
				l3.54,3.54l9.9,9.9l3.54,3.54l3.54-3.54l5.66-5.66l3.54-3.54l-3.54-3.54l-9.9-9.9L297.11,266.86L297.11,266.86z"/>
		</g>
	</g>
	<g>
		<g>
			<path class="st4" d="M297.82,270.39l6.36-6.36c0.95-0.94,2.2-1.46,3.54-1.46c1.34,0,2.59,0.52,3.54,1.46l5.66,5.66
				c1.95,1.95,1.95,5.12,0,7.07l-6.36,6.36L297.82,270.39z"/>
		</g>
		<g>
			<path class="st1" d="M307.72,265.56c0.51,0,1.02,0.2,1.41,0.59l5.66,5.66c0.78,0.78,0.78,2.05,0,2.83l-4.24,4.24l-8.49-8.49
				l4.24-4.24C306.69,265.76,307.21,265.56,307.72,265.56 M307.72,259.56c-2.14,0-4.15,0.83-5.66,2.34l-4.24,4.24l-4.24,4.24
				l4.24,4.24l8.49,8.49l4.24,4.24l4.24-4.24l4.24-4.24c1.51-1.51,2.34-3.52,2.34-5.66c0-2.14-0.83-4.15-2.34-5.66l-5.66-5.66
				C311.86,260.4,309.85,259.56,307.72,259.56L307.72,259.56z"/>
		</g>
	</g>
	<g>
		<path class="st1" d="M232.76,350.17c-0.51,0-1.02-0.2-1.41-0.59c-0.78-0.78-0.78-2.05,0-2.83l60.1-60.1
			c0.78-0.78,2.05-0.78,2.83,0s0.78,2.05,0,2.83l-60.1,60.1C233.79,349.98,233.28,350.17,232.76,350.17z"/>
	</g>
</g>
<g class="st15">
	<rect class="st16" width="400" height="400"/>
</g>
<g>
	<g>
		<path class="st10" d="M331.8,12.2c2.98,0,5.4-2.42,5.4-5.4c0-0.99,0.81-1.8,1.8-1.8s1.8,0.81,1.8,1.8c0,2.98,2.42,5.4,5.4,5.4
			c0.99,0,1.8,0.81,1.8,1.8s-0.81,1.8-1.8,1.8c-2.98,0-5.4,2.42-5.4,5.4c0,0.99-0.81,1.8-1.8,1.8s-1.8-0.81-1.8-1.8
			c0-2.98-2.42-5.4-5.4-5.4c-0.99,0-1.8-0.81-1.8-1.8S330.81,12.2,331.8,12.2z"/>
	</g>
</g>
<g>
	<g>
		<circle class="st10" cx="325" cy="312" r="3"/>
	</g>
</g>
<g>
	<circle class="st10" cx="208" cy="336" r="3"/>
</g>
<g>
	<circle class="st10" cx="66" cy="369" r="3"/>
</g>
<path class="st10" d="M38,362h-6v-6c0-1.66-1.34-3-3-3s-3,1.34-3,3v6h-6c-1.66,0-3,1.34-3,3s1.34,3,3,3h6v6c0,1.66,1.34,3,3,3
	s3-1.34,3-3v-6h6c1.66,0,3-1.34,3-3S39.66,362,38,362z"/>
<path class="st10" d="M393,37h-6v-6c0-1.66-1.34-3-3-3s-3,1.34-3,3v6h-6c-1.66,0-3,1.34-3,3s1.34,3,3,3h6v6c0,1.66,1.34,3,3,3
	s3-1.34,3-3v-6h6c1.66,0,3-1.34,3-3S394.66,37,393,37z"/>
<g>
	<circle class="st10" cx="387" cy="293" r="4"/>
</g>
<g>
	<path class="st10" d="M366.2,320.2c-2.98,0-5.4-2.42-5.4-5.4c0-0.99-0.81-1.8-1.8-1.8c-0.99,0-1.8,0.81-1.8,1.8
		c0,2.98-2.42,5.4-5.4,5.4c-0.99,0-1.8,0.81-1.8,1.8s0.81,1.8,1.8,1.8c2.98,0,5.4,2.42,5.4,5.4c0,0.99,0.81,1.8,1.8,1.8
		c0.99,0,1.8-0.81,1.8-1.8c0-2.98,2.42-5.4,5.4-5.4c0.99,0,1.8-0.81,1.8-1.8S367.19,320.2,366.2,320.2z"/>
</g>
<g>
	<g>
		<path class="st10" d="M182.8,360.2c2.98,0,5.4-2.42,5.4-5.4c0-0.99,0.81-1.8,1.8-1.8s1.8,0.81,1.8,1.8c0,2.98,2.42,5.4,5.4,5.4
			c0.99,0,1.8,0.81,1.8,1.8s-0.81,1.8-1.8,1.8c-2.98,0-5.4,2.42-5.4,5.4c0,0.99-0.81,1.8-1.8,1.8s-1.8-0.81-1.8-1.8
			c0-2.98-2.42-5.4-5.4-5.4c-0.99,0-1.8-0.81-1.8-1.8S181.81,360.2,182.8,360.2z"/>
	</g>
</g>
<g>
	<g>
		<path class="st10" d="M4.8,325.2c2.98,0,5.4-2.42,5.4-5.4c0-0.99,0.81-1.8,1.8-1.8s1.8,0.81,1.8,1.8c0,2.98,2.42,5.4,5.4,5.4
			c0.99,0,1.8,0.81,1.8,1.8s-0.81,1.8-1.8,1.8c-2.98,0-5.4,2.42-5.4,5.4c0,0.99-0.81,1.8-1.8,1.8s-1.8-0.81-1.8-1.8
			c0-2.98-2.42-5.4-5.4-5.4c-0.99,0-1.8-0.81-1.8-1.8S3.81,325.2,4.8,325.2z"/>
	</g>
</g>
<g>
	<g>
		<path class="st10" d="M53,116c3.31,0,6-2.69,6-6c0-1.1,0.9-2,2-2s2,0.9,2,2c0,3.31,2.69,6,6,6c1.1,0,2,0.9,2,2s-0.9,2-2,2
			c-3.31,0-6,2.69-6,6c0,1.1-0.9,2-2,2s-2-0.9-2-2c0-3.31-2.69-6-6-6c-1.1,0-2-0.9-2-2S51.9,116,53,116z"/>
	</g>
</g>
<g>
	<g>
		<circle class="st10" cx="26" cy="142" r="3"/>
	</g>
</g>
</svg>
