<?xml version="1.0" encoding="utf-8"?>
<!-- Generator: Adobe Illustrator 26.0.2, SVG Export Plug-In . SVG Version: 6.00 Build 0)  -->
<svg version="1.1" id="ppc-management-illustration-02"
	 xmlns="http://www.w3.org/2000/svg" xmlns:xlink="http://www.w3.org/1999/xlink" x="0px" y="0px" viewBox="0 0 400 400"
	 style="enable-background:new 0 0 400 400;" xml:space="preserve">
<style type="text/css">
	.st0{fill:none;}
	.st1{fill:#FFD886;}
	.st2{fill:#75A5C3;}
	.st3{fill:#515979;}
	.st4{fill:#508CB4;}
	.st5{fill:#ACC9DB;}
	.st6{fill:#F89D81;}
	.st7{fill:#EF7D7D;}
	.st8{fill:#D8EBFB;}
	.st9{fill:#F7FBFE;}
	.st10{fill:#FFFFFF;}
	.st11{fill:#9DC8FA;}
</style>
<g>
	<rect class="st0" width="400" height="400"/>
	<g>
		<g>
			<path class="st1" d="M202.53,245.87c-3.53,0-6.4-2.87-6.4-6.4c0-1.18-0.96-2.13-2.13-2.13c-1.18,0-2.13,0.96-2.13,2.13
				c0,3.53-2.87,6.4-6.4,6.4c-1.18,0-2.13,0.96-2.13,2.13s0.96,2.13,2.13,2.13c3.53,0,6.4,2.87,6.4,6.4c0,1.18,0.96,2.13,2.13,2.13
				c1.18,0,2.13-0.96,2.13-2.13c0-3.53,2.87-6.4,6.4-6.4c1.18,0,2.13-0.96,2.13-2.13S203.71,245.87,202.53,245.87z"/>
		</g>
		<g>
			<path class="st1" d="M199.6,117.6c-3.97,0-7.2-3.23-7.2-7.2c0-1.33-1.07-2.4-2.4-2.4c-1.33,0-2.4,1.07-2.4,2.4
				c0,3.97-3.23,7.2-7.2,7.2c-1.33,0-2.4,1.07-2.4,2.4s1.07,2.4,2.4,2.4c3.97,0,7.2,3.23,7.2,7.2c0,1.33,1.07,2.4,2.4,2.4
				c1.33,0,2.4-1.07,2.4-2.4c0-3.97,3.23-7.2,7.2-7.2c1.33,0,2.4-1.07,2.4-2.4S200.93,117.6,199.6,117.6z"/>
		</g>
		<g>
			<path class="st1" d="M375.6,60.27c-3.97,0-7.2-3.23-7.2-7.2c0-1.33-1.07-2.4-2.4-2.4c-1.33,0-2.4,1.07-2.4,2.4
				c0,3.97-3.23,7.2-7.2,7.2c-1.33,0-2.4,1.07-2.4,2.4c0,1.33,1.07,2.4,2.4,2.4c3.97,0,7.2,3.23,7.2,7.2c0,1.33,1.07,2.4,2.4,2.4
				c1.33,0,2.4-1.07,2.4-2.4c0-3.97,3.23-7.2,7.2-7.2c1.33,0,2.4-1.07,2.4-2.4C378,61.34,376.93,60.27,375.6,60.27z"/>
		</g>
		<g>
			<path class="st1" d="M56.93,141.6c-3.97,0-7.2-3.23-7.2-7.2c0-1.33-1.07-2.4-2.4-2.4c-1.33,0-2.4,1.07-2.4,2.4
				c0,3.97-3.23,7.2-7.2,7.2c-1.33,0-2.4,1.07-2.4,2.4s1.07,2.4,2.4,2.4c3.97,0,7.2,3.23,7.2,7.2c0,1.33,1.07,2.4,2.4,2.4
				c1.33,0,2.4-1.07,2.4-2.4c0-3.97,3.23-7.2,7.2-7.2c1.33,0,2.4-1.07,2.4-2.4S58.26,141.6,56.93,141.6z"/>
		</g>
		<g>
			<circle class="st1" cx="18" cy="190.67" r="4"/>
		</g>
		<g>
			<circle class="st1" cx="358.67" cy="359.33" r="3.33"/>
		</g>
		<g>
			<circle class="st1" cx="362.67" cy="167.33" r="3.33"/>
		</g>
		<g>
			<circle class="st1" cx="34.67" cy="378" r="6"/>
		</g>
		<g>
			<circle class="st1" cx="78" cy="229.33" r="5.33"/>
		</g>
		<g>
			<circle class="st1" cx="229.33" cy="51.33" r="3.33"/>
		</g>
		<g>
			<circle class="st1" cx="378" cy="248" r="4"/>
		</g>
		<path class="st1" d="M327.33,260H318v-9.33c0-2.21-1.79-4-4-4c-2.21,0-4,1.79-4,4V260h-9.33c-2.21,0-4,1.79-4,4c0,2.21,1.79,4,4,4
			H310v9.33c0,2.21,1.79,4,4,4c2.21,0,4-1.79,4-4V268h9.33c2.21,0,4-1.79,4-4C331.33,261.79,329.54,260,327.33,260z"/>
	</g>
	<g>
		<g>
			<g>
				<path class="st2" d="M111.92,162.41c-0.82,0-1.62-0.25-2.29-0.72c-0.87-0.61-1.46-1.54-1.64-2.58L96.64,94.76
					c-0.38-2.18,1.07-4.25,3.24-4.63l15.76-2.78c0.23-0.04,0.46-0.06,0.7-0.06c0.82,0,1.62,0.25,2.29,0.72
					c0.87,0.61,1.46,1.54,1.64,2.58l11.35,64.34c0.38,2.18-1.07,4.25-3.24,4.63l-15.76,2.78
					C112.39,162.39,112.16,162.41,111.92,162.41z"/>
			</g>
			<g>
				<path class="st3" d="M116.34,91.29l11.35,64.34l-15.76,2.78l-11.35-64.34L116.34,91.29 M116.35,83.29
					c-0.46,0-0.93,0.04-1.4,0.12l-15.76,2.78c-2.09,0.37-3.95,1.55-5.16,3.29c-1.22,1.74-1.69,3.89-1.33,5.98l11.35,64.34
					c0.68,3.88,4.06,6.61,7.87,6.61c0.46,0,0.93-0.04,1.4-0.12l15.76-2.78c2.09-0.37,3.95-1.55,5.16-3.29
					c1.22-1.74,1.69-3.89,1.33-5.98L124.21,89.9C123.53,86.02,120.15,83.29,116.35,83.29L116.35,83.29z"/>
			</g>
		</g>
		<g>
			
				<rect x="101.5" y="92.58" transform="matrix(0.9848 -0.1736 0.1736 0.9848 -15.4555 20.5121)" class="st4" width="16" height="12"/>
		</g>
		<g>
			<g>
				<path class="st2" d="M25.21,103.23c-1.9,0-3.59-1.37-3.93-3.31C16.05,70.24,35.94,41.83,65.62,36.6l55.59-9.8
					c0.23-0.04,0.47-0.06,0.7-0.06c1.9,0,3.59,1.37,3.93,3.31l8.8,49.9c0.38,2.18-1.07,4.25-3.24,4.63L84.13,92.9
					c-0.24,0.04-0.47,0.06-0.7,0.06c-1.9,0-3.59-1.37-3.93-3.31c-1.71-9.71-10.1-16.76-19.94-16.76c-1.18,0-2.38,0.11-3.55,0.31
					C44.99,75.15,37.61,85.69,39.55,96.7c0.18,1.04-0.05,2.12-0.66,2.99c-0.61,0.87-1.54,1.46-2.58,1.65l-10.4,1.83
					C25.68,103.21,25.45,103.23,25.21,103.23z"/>
			</g>
			<g>
				<path class="st3" d="M121.91,30.73l8.8,49.9l-47.27,8.34C81.36,77.19,71.11,68.9,59.55,68.9c-1.4,0-2.82,0.12-4.24,0.37
					C42.1,71.6,33.29,84.19,35.61,97.4l-10.4,1.83l0,0c-4.86-27.56,13.54-53.84,41.1-58.69L121.91,30.73 M121.91,22.73
					c-0.46,0-0.93,0.04-1.39,0.12l-55.59,9.8C49.5,35.38,36.05,43.95,27.06,56.78c-8.99,12.84-12.44,28.4-9.72,43.84
					c0.68,3.88,4.06,6.61,7.87,6.61c0.46,0,0.93-0.04,1.4-0.12l10.4-1.83c2.09-0.37,3.95-1.55,5.16-3.29
					c1.22-1.74,1.69-3.89,1.33-5.98c-0.76-4.28,0.2-8.6,2.7-12.16c2.49-3.56,6.23-5.94,10.51-6.69c0.95-0.17,1.91-0.25,2.86-0.25
					c7.9,0,14.63,5.66,16,13.46c0.37,2.09,1.55,3.95,3.29,5.16c1.35,0.95,2.96,1.45,4.59,1.45c0.46,0,0.93-0.04,1.39-0.12
					l47.27-8.34c4.35-0.77,7.26-4.92,6.49-9.27l-8.8-49.9c-0.37-2.09-1.55-3.95-3.29-5.16C125.14,23.23,123.54,22.73,121.91,22.73
					L121.91,22.73z"/>
			</g>
		</g>
		<g>
			<path class="st5" d="M67.42,46.77l55.59-9.8l-1.1-6.24l-55.59,9.8c-27.56,4.86-45.96,31.14-41.1,58.69l0,0l4.56-0.8
				C25.38,73.48,41.97,51.26,67.42,46.77z"/>
		</g>
		<g>
			<g>
				<path class="st6" d="M118.01,250.69c-1.9,0-3.59-1.37-3.93-3.31l-13.89-78.78c-1.15-6.52,3.22-12.75,9.73-13.9l18.38-3.24
					c0.69-0.12,1.39-0.18,2.09-0.18c5.83,0,10.79,4.17,11.81,9.92l13.89,78.79c0.18,1.04-0.05,2.12-0.66,2.99
					c-0.61,0.87-1.54,1.46-2.58,1.64l-34.14,6.02C118.47,250.67,118.24,250.69,118.01,250.69z"/>
			</g>
			<g>
				<g>
					<path class="st3" d="M130.39,155.27c3.81,0,7.18,2.73,7.87,6.61l13.89,78.78l-34.14,6.02l-13.89-78.78
						c-0.77-4.35,2.14-8.5,6.49-9.27l18.38-3.24C129.46,155.31,129.93,155.27,130.39,155.27 M130.39,147.27
						c-0.93,0-1.87,0.08-2.79,0.24l-18.38,3.24c-4.21,0.74-7.88,3.08-10.33,6.58c-2.45,3.5-3.39,7.75-2.65,11.96l13.89,78.78
						c0.68,3.88,4.06,6.61,7.87,6.61c0.46,0,0.93-0.04,1.4-0.12l34.14-6.02c4.35-0.77,7.26-4.92,6.49-9.27l-13.89-78.78
						C144.79,152.83,138.17,147.27,130.39,147.27L130.39,147.27z"/>
				</g>
			</g>
		</g>
		<g>
			<g>
				<path class="st2" d="M157.35,74.52c-0.82,0-1.62-0.25-2.29-0.72c-0.87-0.61-1.46-1.54-1.64-2.58L146,29.19
					c-0.38-2.18,1.07-4.25,3.24-4.63l21.01-3.7c0.23-0.04,0.46-0.06,0.69-0.06c0.82,0,1.62,0.25,2.29,0.72
					c0.87,0.61,1.46,1.54,1.64,2.58l7.41,42.02c0.38,2.18-1.07,4.25-3.24,4.63l-21.01,3.7C157.82,74.5,157.58,74.52,157.35,74.52z"
					/>
			</g>
			<g>
				<path class="st3" d="M170.95,24.79l7.41,42.02l-21.01,3.7l-7.41-42.02L170.95,24.79 M170.96,16.79c-0.46,0-0.93,0.04-1.4,0.12
					l-21.01,3.7c-2.09,0.37-3.95,1.55-5.16,3.29c-1.22,1.74-1.69,3.89-1.33,5.98l7.41,42.02c0.68,3.88,4.06,6.61,7.87,6.61
					c0.46,0,0.93-0.04,1.4-0.12l21.01-3.7c2.09-0.37,3.95-1.55,5.16-3.29c1.22-1.74,1.69-3.89,1.33-5.98l-7.41-42.02
					C178.15,19.52,174.77,16.79,170.96,16.79L170.96,16.79z"/>
			</g>
		</g>
		<g>
			
				<rect x="150.36" y="26.59" transform="matrix(0.9848 -0.1736 0.1736 0.9848 -2.7505 28.4168)" class="st5" width="21.33" height="6.67"/>
		</g>
		<g>
			<g>
				<path class="st2" d="M135.92,68.14c-0.82,0-1.62-0.25-2.29-0.72c-0.87-0.61-1.46-1.54-1.64-2.58l-3.47-19.7
					c-0.38-2.18,1.07-4.25,3.24-4.63l11.82-2.08c0.23-0.04,0.46-0.06,0.69-0.06c0.82,0,1.62,0.25,2.29,0.72
					c0.87,0.61,1.46,1.54,1.64,2.58l3.47,19.7c0.38,2.18-1.07,4.25-3.24,4.63l-11.82,2.08C136.38,68.12,136.15,68.14,135.92,68.14z"
					/>
			</g>
			<g>
				<path class="st3" d="M144.26,42.36l3.47,19.7l-11.82,2.08l-3.47-19.7L144.26,42.36 M144.27,34.36c-0.46,0-0.93,0.04-1.4,0.12
					l-11.82,2.08c-2.09,0.37-3.95,1.55-5.16,3.29c-1.22,1.74-1.69,3.89-1.33,5.98l3.47,19.7c0.68,3.88,4.06,6.61,7.87,6.61
					c0.46,0,0.93-0.04,1.4-0.12l11.82-2.08c2.09-0.37,3.95-1.55,5.16-3.29c1.22-1.74,1.69-3.89,1.33-5.98l-3.47-19.7
					C151.46,37.09,148.08,34.36,144.27,34.36L144.27,34.36z"/>
			</g>
		</g>
		<g>
			
				<rect x="134.67" y="49.87" transform="matrix(0.9848 -0.1736 0.1736 0.9848 -7.6798 25.2862)" class="st4" width="12" height="13.33"/>
		</g>
		<g>
			<g>
				<g>
					<g>
						<g>
							<path class="st3" d="M104.95,60.08c-1.27,0-2.4-0.91-2.62-2.2c-0.77-4.34,2.14-8.5,6.49-9.27c4.35-0.76,8.5,2.15,9.27,6.49
								c0.26,1.45-0.71,2.83-2.16,3.09c-1.46,0.25-2.83-0.71-3.09-2.16c-0.26-1.45-1.64-2.42-3.09-2.16
								c-1.45,0.26-2.42,1.64-2.16,3.09c0.26,1.45-0.71,2.83-2.16,3.09C105.25,60.07,105.1,60.08,104.95,60.08z"/>
						</g>
					</g>
					<g>
						<g>
							<path class="st3" d="M83.93,63.79c-1.27,0-2.39-0.91-2.62-2.2c-0.37-2.1,0.1-4.23,1.32-5.98c1.23-1.75,3.06-2.92,5.16-3.29
								c4.35-0.77,8.5,2.15,9.27,6.49c0.26,1.45-0.71,2.83-2.16,3.09c-1.46,0.26-2.83-0.71-3.09-2.16c-0.12-0.7-0.51-1.31-1.1-1.72
								c-0.58-0.41-1.29-0.57-1.99-0.44c-0.7,0.12-1.31,0.51-1.72,1.1s-0.57,1.29-0.44,1.99c0.26,1.45-0.71,2.83-2.16,3.09
								C84.24,63.77,84.09,63.79,83.93,63.79z"/>
						</g>
					</g>
					<g>
						<path class="st3" d="M102.35,40.13c4.77-2.92,11.99-2.3,15.26,2.53c1.12,1.6-0.42,3.89-2.3,3.51c-2.1-0.36-3.81-0.85-5.86-1.1
							c-1.94-0.29-4.49-0.37-6.38-0.82C101.11,43.9,100.66,41.11,102.35,40.13L102.35,40.13z"/>
					</g>
					<g>
						<path class="st3" d="M91.22,46.57c-3.32,1.75-6.74,3.29-9.89,5.41c-1.15,0.87-2.86,0.73-3.59-0.6
							c-0.29-0.52-0.36-1.11-0.24-1.65c0.98-4.27,5.24-7.09,9.36-7.69c1.36-0.2,2.62-0.23,4.11,0.09
							C93.29,42.72,93.32,45.64,91.22,46.57L91.22,46.57z"/>
					</g>
				</g>
			</g>
		</g>
		<g>
			<g>
				<path class="st3" d="M98.8,72.39c-2.94,0-6.02-0.59-9.16-1.79c-1.38-0.52-2.07-2.07-1.54-3.44c0.52-1.38,2.06-2.07,3.44-1.54
					c4.92,1.88,12.06,2.85,18.19-3.15c1.05-1.03,2.74-1.01,3.77,0.04c1.03,1.05,1.01,2.74-0.04,3.77
					C109.32,70.32,104.29,72.39,98.8,72.39z"/>
			</g>
			<g>
				<path class="st3" d="M98.22,75.54c2.98-0.02,5.96-0.53,8.74-1.54c1.08-0.44,2.1,0.94,1.4,1.85c0,0-0.48,0.66-0.48,0.66
					c-2.25,2.79-6.57,3.56-9.64,1.7c0,0-0.68-0.46-0.68-0.46C96.56,77.14,97.07,75.51,98.22,75.54L98.22,75.54z"/>
			</g>
		</g>
	</g>
	<g>
		<g>
			<g>
				<path class="st2" d="M255.41,266.39c-0.34,0-0.69-0.04-1.04-0.14l-10.3-2.76c-1.84-0.49-3.08-2.22-2.96-4.12l1.75-27.14
					c0.06-0.89,0.41-1.73,1-2.4l7.29-8.22l19.43-72.5c0.27-1.02,0.94-1.9,1.86-2.43c0.61-0.35,1.3-0.54,2-0.54
					c0.35,0,0.7,0.04,1.04,0.14l10.3,2.76c2.13,0.57,3.4,2.77,2.83,4.9l-19.42,72.5l2.2,10.76c0.18,0.87,0.06,1.78-0.33,2.58
					L259,264.16C258.31,265.55,256.9,266.39,255.41,266.39z"/>
			</g>
			<g>
				<path class="st3" d="M274.44,150.15l10.3,2.76l-19.67,73.41l2.39,11.68l-12.05,24.38l-10.3-2.76l1.75-27.14l7.91-8.92
					L274.44,150.15 M274.44,142.15c-1.39,0-2.77,0.36-4,1.07c-1.84,1.06-3.18,2.81-3.73,4.86l-19.18,71.59l-6.66,7.51
					c-1.18,1.33-1.88,3.02-2,4.79l-1.75,27.14c-0.25,3.81,2.23,7.26,5.91,8.24l10.3,2.76c0.69,0.18,1.39,0.27,2.07,0.27
					c2.98,0,5.8-1.68,7.17-4.46l12.05-24.38c0.79-1.59,1.02-3.41,0.67-5.15l-2.01-9.83l19.18-71.59c1.14-4.27-1.39-8.65-5.66-9.8
					l-10.3-2.76C275.83,142.24,275.13,142.15,274.44,142.15L274.44,142.15z"/>
			</g>
		</g>
		<g>
			<g>
				<path class="st6" d="M314.85,116.67c-0.34,0-0.69-0.04-1.04-0.14l-46.36-12.42c-1.02-0.27-1.9-0.95-2.43-1.86
					c-0.53-0.92-0.67-2.01-0.4-3.04l17.95-66.97c3.27-12.22,14.39-20.76,27.03-20.76c2.44,0,4.88,0.32,7.26,0.96
					c14.91,4,23.79,19.38,19.8,34.29l-17.95,66.97C318.24,115.49,316.62,116.67,314.85,116.67z"/>
			</g>
			<g>
				<g>
					<path class="st3" d="M309.6,15.48c2.06,0,4.15,0.27,6.23,0.82h0c12.8,3.43,20.4,16.59,16.97,29.39l-17.94,66.97l-46.36-12.42
						l17.94-66.97C289.3,22.55,299,15.48,309.6,15.48 M309.6,7.48c-14.45,0-27.15,9.76-30.89,23.72l-17.94,66.97
						c-1.14,4.27,1.39,8.65,5.66,9.8l46.36,12.42c0.68,0.18,1.38,0.27,2.07,0.27c1.39,0,2.77-0.36,4-1.07
						c1.84-1.06,3.18-2.81,3.73-4.86l17.94-66.97c4.57-17.04-5.58-34.62-22.63-39.19C315.18,7.85,312.39,7.48,309.6,7.48L309.6,7.48
						z"/>
				</g>
			</g>
		</g>
		<g>
			<g>
				<g>
					<g>
						<g>
							<path class="st3" d="M316.96,76.56c-0.23,0-0.46-0.03-0.69-0.09c-1.42-0.38-2.27-1.84-1.88-3.27
								c0.18-0.69,0.09-1.41-0.27-2.02c-0.36-0.62-0.93-1.06-1.62-1.24c-1.42-0.38-2.89,0.47-3.27,1.89
								c-0.38,1.42-1.84,2.27-3.27,1.88c-1.42-0.38-2.27-1.84-1.88-3.27c1.14-4.26,5.54-6.8,9.8-5.66c2.06,0.55,3.79,1.88,4.86,3.73
								c1.07,1.85,1.35,4.01,0.8,6.07C319.22,75.77,318.14,76.56,316.96,76.56z"/>
						</g>
					</g>
					<g>
						<g>
							<path class="st3" d="M296.36,71.04c-0.23,0-0.46-0.03-0.69-0.09c-1.42-0.38-2.27-1.84-1.89-3.27
								c0.38-1.42-0.47-2.89-1.89-3.27c-0.69-0.18-1.41-0.09-2.02,0.27c-0.62,0.36-1.06,0.93-1.24,1.62
								c-0.38,1.42-1.83,2.27-3.27,1.89c-1.42-0.38-2.27-1.84-1.89-3.27c0.55-2.06,1.88-3.79,3.73-4.86
								c1.85-1.07,4.01-1.35,6.07-0.8c4.26,1.14,6.8,5.54,5.66,9.8C298.61,70.25,297.53,71.04,296.36,71.04z"/>
						</g>
					</g>
					<g>
						<path class="st3" d="M311.61,54.37c5.55-0.63,11.84,2.98,12.76,8.74c0.34,1.92-2.02,3.35-3.57,2.21
							c-1.75-1.21-3.1-2.38-4.85-3.47c-1.64-1.08-3.91-2.23-5.43-3.44C308.89,57.26,309.66,54.54,311.61,54.37L311.61,54.37z"/>
					</g>
					<g>
						<path class="st3" d="M298.8,55.5c-2.69,0.2-5.81,0.05-8.49,0.39c-1.99,0.16-5.37,1.33-5.76-1.73c-0.05-0.6,0.14-1.16,0.48-1.6
							c2.69-3.46,7.75-4.21,11.73-3.02c1.32,0.39,2.47,0.9,3.69,1.82C302.3,52.88,301.09,55.55,298.8,55.5L298.8,55.5z"/>
					</g>
				</g>
			</g>
		</g>
		<g>
			<g>
				<path class="st3" d="M303.36,84.04c-5.83,0-11.39-2.52-16.15-7.43c-1.03-1.06-1-2.74,0.06-3.77c1.05-1.03,2.74-1,3.77,0.06
					c3.67,3.78,9.74,7.68,17.82,4.83c1.39-0.49,2.91,0.24,3.4,1.63c0.49,1.39-0.24,2.91-1.63,3.4
					C308.19,83.61,305.75,84.04,303.36,84.04z"/>
			</g>
			<g>
				<path class="st3" d="M292.89,84.72c2.71,1.24,5.62,2.04,8.58,2.3c1.16,0.06,1.5,1.74,0.48,2.26c0,0-0.72,0.39-0.72,0.39
					c-3.22,1.58-7.46,0.45-9.45-2.53c0,0-0.42-0.7-0.42-0.7C290.72,85.46,291.87,84.2,292.89,84.72L292.89,84.72z"/>
			</g>
		</g>
		<g>
			<g>
				
					<rect x="280.56" y="98.05" transform="matrix(0.2589 -0.9659 0.9659 0.2589 99.8214 366.2018)" class="st7" width="16" height="40"/>
			</g>
			<g>
				<g>
					<path class="st3" d="M274.14,110.04l30.91,8.28l-2.07,7.73l-30.91-8.28L274.14,110.04 M268.49,100.24l-2.07,7.73l-2.07,7.73
						l-2.07,7.73l7.73,2.07l30.91,8.28l7.73,2.07l2.07-7.73l2.07-7.73l2.07-7.73l-7.73-2.07l-30.91-8.28L268.49,100.24
						L268.49,100.24z"/>
				</g>
			</g>
		</g>
		<g>
			<g>
				<path class="st6" d="M307.77,153.42c-0.34,0-0.69-0.04-1.04-0.14l-51.52-13.8c-2.13-0.57-3.4-2.76-2.83-4.9l3.45-12.88
					c0.27-1.02,0.94-1.9,1.86-2.43c0.61-0.35,1.3-0.54,2-0.54c0.35,0,0.7,0.04,1.04,0.14l51.52,13.8c1.02,0.27,1.9,0.95,2.43,1.86
					c0.53,0.92,0.67,2.01,0.4,3.04l-3.45,12.88C311.15,152.24,309.53,153.42,307.77,153.42z"/>
			</g>
			<g>
				<g>
					<path class="st3" d="M259.7,122.74l51.52,13.8l-3.45,12.88l-51.52-13.8L259.7,122.74 M259.7,114.74c-1.39,0-2.77,0.36-4,1.07
						c-1.84,1.06-3.18,2.81-3.73,4.86l-3.45,12.88c-1.14,4.27,1.39,8.65,5.66,9.8l51.52,13.8c0.68,0.18,1.38,0.27,2.07,0.27
						c1.39,0,2.77-0.36,4-1.07c1.84-1.06,3.18-2.81,3.73-4.86l3.45-12.88c1.14-4.27-1.39-8.65-5.66-9.8l-51.52-13.8
						C261.09,114.83,260.39,114.74,259.7,114.74L259.7,114.74z"/>
				</g>
			</g>
		</g>
		<g>
			
				<rect x="271.2" y="152.64" transform="matrix(0.2588 -0.9659 0.9659 0.2588 53.3589 385.4839)" class="st4" width="13.33" height="10.67"/>
		</g>
	</g>
	<g>
		<g>
			<g>
				<path class="st8" d="M327.4,378.48c-0.71,0-1.41-0.19-2.04-0.56l-14.78-8.74l-12.42,8.23c-0.67,0.44-1.44,0.66-2.21,0.66
					c-0.92,0-1.83-0.32-2.58-0.94l-11.03-9.28l-12.02,7.96c-0.67,0.44-1.44,0.66-2.21,0.66c-0.92,0-1.83-0.32-2.58-0.94l-11.03-9.28
					l-12.02,7.95c-0.67,0.44-1.44,0.66-2.21,0.66c-0.92,0-1.83-0.32-2.58-0.94l-11.03-9.28l-12.02,7.96
					c-0.67,0.44-1.44,0.66-2.21,0.66c-0.92,0-1.83-0.32-2.58-0.94l-11.03-9.28l-12.02,7.95c-0.67,0.45-1.44,0.67-2.21,0.67
					c-0.92,0-1.83-0.32-2.58-0.94l-11.03-9.28l-12.02,7.95c-0.67,0.44-1.44,0.66-2.21,0.66c-0.92,0-1.83-0.32-2.57-0.94l-11.04-9.28
					l-12.02,7.96c-0.67,0.44-1.44,0.66-2.21,0.66c-0.92,0-1.83-0.32-2.57-0.94l-12.45-10.47l-18.14-2.61
					c-1.18-0.17-2.21-0.85-2.84-1.86c-0.62-1.01-0.76-2.25-0.38-3.37l22.7-67.31c0.56-1.65,2.1-2.72,3.79-2.72
					c0.23,0,0.46,0.02,0.7,0.06l217.66,38.38c1.05,0.18,1.97,0.78,2.58,1.64c0.61,0.87,0.85,1.94,0.66,2.99l-9.33,52.92
					c-0.23,1.29-1.08,2.39-2.27,2.94C328.54,378.36,327.97,378.48,327.4,378.48z"/>
			</g>
			<g>
				<path class="st3" d="M119.08,283.19l217.66,38.38l-9.33,52.92l-16.94-10.01l-14.51,9.61l-13.32-11.21l-14.51,9.61l-13.32-11.21
					l-14.51,9.61l-13.32-11.21l-14.51,9.61l-13.32-11.21l-14.51,9.61l-13.31-11.21l-14.51,9.61l-13.32-11.21l-14.51,9.61
					l-13.33-11.21l-19.27-2.77L119.08,283.19 M119.07,275.19c-3.38,0-6.46,2.15-7.58,5.44l-22.7,67.31
					c-0.76,2.25-0.48,4.72,0.77,6.75c1.24,2.02,3.32,3.39,5.67,3.73l17.01,2.45l11.58,9.74c1.48,1.24,3.31,1.88,5.15,1.88
					c1.53,0,3.07-0.44,4.41-1.33l9.53-6.31l8.75,7.36c1.48,1.25,3.31,1.88,5.15,1.88c1.53,0,3.07-0.44,4.41-1.33l9.53-6.3l8.74,7.35
					c1.48,1.25,3.31,1.88,5.15,1.88c1.53,0,3.07-0.44,4.41-1.33l9.52-6.3l8.74,7.35c1.48,1.25,3.31,1.88,5.15,1.88
					c1.53,0,3.07-0.44,4.41-1.33l9.52-6.3l8.74,7.35c1.48,1.25,3.31,1.88,5.15,1.88c1.53,0,3.07-0.44,4.41-1.33l9.52-6.3l8.74,7.35
					c1.48,1.25,3.31,1.88,5.15,1.88c1.53,0,3.07-0.44,4.41-1.33l9.52-6.3l8.74,7.35c1.48,1.25,3.31,1.88,5.15,1.88
					c1.53,0,3.07-0.44,4.41-1.33l10.33-6.84l12.63,7.47c1.25,0.74,2.66,1.11,4.07,1.11c1.14,0,2.28-0.24,3.34-0.73
					c2.38-1.1,4.08-3.29,4.54-5.88l9.33-52.92c0.77-4.35-2.14-8.5-6.49-9.27l-217.66-38.38C120,275.23,119.53,275.19,119.07,275.19
					L119.07,275.19z"/>
			</g>
		</g>
		<g>
			<g>
				<polygon class="st9" points="336.74,321.57 119.08,283.19 116.34,290.83 335.35,329.44 				"/>
			</g>
		</g>
		<g>
			<g>
				<g>
					<path class="st6" d="M104.81,365.9c-0.23,0-0.46-0.02-0.7-0.06l-57.78-10.19c-3.16-0.56-5.91-2.31-7.75-4.93
						c-1.84-2.63-2.54-5.81-1.99-8.97c1.01-5.75,5.98-9.92,11.81-9.92c0.7,0,1.4,0.06,2.09,0.18l1.86,0.33l14.57-43.46l-0.68-0.12
						c-3.16-0.56-5.91-2.31-7.75-4.93c-1.84-2.63-2.54-5.81-1.99-8.97c1.01-5.75,5.98-9.92,11.81-9.92c0.7,0,1.4,0.06,2.09,0.18
						l63.03,11.11c1.15,0.2,2.16,0.9,2.75,1.9c0.6,1.01,0.72,2.22,0.34,3.33l-27.95,81.72C108.03,364.84,106.49,365.9,104.81,365.9z
						 M93.13,339.54l14.44-43.49l-18.27-3.22l-14.44,43.49L93.13,339.54z"/>
				</g>
			</g>
			<g>
				<g>
					<path class="st3" d="M68.33,268.95c0.46,0,0.93,0.04,1.4,0.12l63.03,11.11l-27.95,81.72l-57.78-10.19
						c-4.35-0.77-7.26-4.92-6.49-9.27c0.68-3.88,4.06-6.61,7.87-6.61c0.46,0,0.93,0.04,1.4,0.12l5.25,0.93l17.14-51.13l-5.25-0.93
						c-4.35-0.77-7.26-4.92-6.49-9.27C61.15,271.68,64.52,268.95,68.33,268.95 M94.03,343.72c1.1,0,2.12-0.69,2.5-1.75l15.29-46.04
						c0.57-1.56-0.41-3.25-2.04-3.54l-20.93-3.69c-0.16-0.03-0.31-0.04-0.46-0.04c-1.1,0-2.12,0.69-2.5,1.75L70.6,336.45
						c-0.57,1.56,0.41,3.25,2.04,3.54l20.93,3.69C93.72,343.7,93.88,343.72,94.03,343.72 M68.33,260.95
						c-7.77,0-14.4,5.56-15.75,13.22c-1.3,7.37,2.69,14.47,9.24,17.39l-12.18,36.32c-0.41-0.03-0.82-0.05-1.23-0.05
						c-7.77,0-14.4,5.56-15.75,13.22c-1.53,8.69,4.29,17,12.98,18.54l57.78,10.19c0.47,0.08,0.93,0.12,1.39,0.12
						c3.37,0,6.44-2.13,7.56-5.41l27.95-81.72c0.76-2.21,0.51-4.64-0.68-6.66c-1.19-2.01-3.2-3.41-5.5-3.81l-63.03-11.11
						C70.2,261.03,69.26,260.95,68.33,260.95L68.33,260.95z M80.11,333.18L92,297.37l10.31,1.82L90.42,335L80.11,333.18
						L80.11,333.18z"/>
				</g>
			</g>
		</g>
		<g>
			<circle class="st3" cx="121.64" cy="285.67" r="3.33"/>
		</g>
		<g>
			<circle class="st3" cx="98.86" cy="353.41" r="3.33"/>
		</g>
		<g>
			<g>
				<g>
					<path class="st3" d="M192.16,330.3c-0.33,0-0.66-0.08-0.97-0.25c-1.68-0.93-4.83-1.49-6.73-1.19
						c-1.08,0.18-2.12-0.57-2.29-1.66c-0.17-1.09,0.57-2.12,1.66-2.29c2.81-0.45,6.81,0.26,9.3,1.64c0.96,0.54,1.31,1.75,0.78,2.72
						C193.54,329.93,192.86,330.3,192.16,330.3z"/>
				</g>
				<g>
					<g>
						<circle class="st3" cx="189.5" cy="319.92" r="6.97"/>
					</g>
					<g>
						<circle class="st10" cx="191.22" cy="320.23" r="1.74"/>
					</g>
				</g>
				<g>
					<path class="st3" d="M169.26,326.27c-0.33,0-0.66-0.08-0.97-0.25c-1.68-0.93-4.83-1.49-6.73-1.19
						c-1.1,0.17-2.12-0.57-2.29-1.66c-0.17-1.09,0.57-2.12,1.66-2.29c2.82-0.45,6.81,0.26,9.3,1.64c0.96,0.54,1.31,1.75,0.78,2.72
						C170.65,325.9,169.96,326.27,169.26,326.27z"/>
				</g>
				<g>
					<g>
						<circle class="st3" cx="166.61" cy="315.89" r="6.97"/>
					</g>
					<g>
						<circle class="st10" cx="168.33" cy="316.19" r="1.74"/>
					</g>
				</g>
				<g>
					<path class="st3" d="M188.56,304.56c4.89-1.18,10.87,1.63,11.97,6.77c0.4,1.8-1.63,3.35-3.26,2.52
						c-1.56-0.72-3.13-1.7-4.59-2.45c-1.54-0.86-3.59-1.71-4.95-2.83C186.22,307.49,186.77,304.94,188.56,304.56L188.56,304.56z"/>
				</g>
				<g>
					<path class="st3" d="M171.46,306.03c-1.41,0.39-3.47,0.52-4.93,0.76c-1.64,0.21-3.44,0.6-5.15,0.74
						c-1.27,0.12-2.4-0.82-2.51-2.09c-0.04-1.86,1.72-3.24,3.17-4.09c3.38-1.8,7.49-1.66,10.71,0.43c1.58,0.99,1.18,3.56-0.59,4.04
						C172.15,305.82,171.46,306.03,171.46,306.03L171.46,306.03z"/>
				</g>
			</g>
		</g>
		<g>
			<g>
				<g>
					<path class="st3" d="M174.95,347.62c-0.7,0-1.4-0.06-2.1-0.18c-6.51-1.15-10.88-7.38-9.73-13.9c0.12-0.7,0.52-1.32,1.1-1.72
						c0.45-0.32,0.99-0.48,1.53-0.48c0.15,0,0.31,0.01,0.46,0.04l18.38,3.24c1.45,0.26,2.42,1.64,2.16,3.09
						C185.74,343.45,180.77,347.62,174.95,347.62L174.95,347.62z"/>
				</g>
				<g>
					<path class="st3" d="M165.74,334l18.38,3.24c-0.8,4.53-4.74,7.71-9.18,7.71c-0.54,0-1.08-0.05-1.63-0.14
						C168.24,343.92,164.85,339.08,165.74,334 M165.74,328.66c-2.54,0-4.79,1.82-5.25,4.41c-0.68,3.86,0.18,7.75,2.43,10.96
						c2.25,3.21,5.61,5.35,9.47,6.03c0.84,0.15,1.7,0.22,2.56,0.22c7.12,0,13.19-5.1,14.43-12.12c0.51-2.9-1.43-5.67-4.33-6.18
						l-18.38-3.24C166.36,328.69,166.04,328.66,165.74,328.66L165.74,328.66z"/>
				</g>
			</g>
			<g>
				
					<ellipse transform="matrix(0.1736 -0.9848 0.9848 0.1736 -192.8913 453.6153)" class="st7" cx="173.85" cy="341.75" rx="3.11" ry="6.94"/>
			</g>
		</g>
		<g>
			<g>
				<g>
					<circle class="st11" cx="148.86" cy="322.22" r="2"/>
				</g>
			</g>
			<g>
				<g>
					<circle class="st11" cx="143.11" cy="327.98" r="2"/>
				</g>
			</g>
			<g>
				<g>
					<circle class="st11" cx="152.3" cy="329.6" r="2"/>
				</g>
			</g>
		</g>
		<g>
			<circle class="st11" cx="204.01" cy="331.95" r="2"/>
		</g>
		<g>
			<circle class="st11" cx="198.26" cy="337.7" r="2"/>
		</g>
		<g>
			<circle class="st11" cx="207.45" cy="339.32" r="2"/>
		</g>
	</g>
</g>
</svg>
