<?xml version="1.0" encoding="utf-8"?>
<!-- Generator: Adobe Illustrator 25.4.1, SVG Export Plug-In . SVG Version: 6.00 Build 0)  -->
<svg version="1.1" id="Facebook_x5F_Hub-Facebook_x5F_Campaign_x5F_Objective"
	 xmlns="http://www.w3.org/2000/svg" xmlns:xlink="http://www.w3.org/1999/xlink" x="0px" y="0px" viewBox="0 0 400 400"
	 style="enable-background:new 0 0 400 400;" xml:space="preserve">
<style type="text/css">
	.st0{fill:#EF7D7D;}
	.st1{fill:#515979;}
	.st2{fill:#D26E78;}
	.st3{fill:#F4A4A4;}
	.st4{fill:#1877F2;}
	.st5{fill:#FFFFFF;}
	.st6{fill:#D8EBFB;}
	.st7{fill-rule:evenodd;clip-rule:evenodd;fill:url(#bubble_00000005232762324605572970000004330544870718261376_);}
	.st8{fill-rule:evenodd;clip-rule:evenodd;fill:#FFFFFF;}
	.st9{fill:none;}
	.st10{fill:#FFD886;}
</style>
<g>
	<g>
		<g>
			<g>
				<path class="st0" d="M222.3,376c-4.53,0-8.37-3.39-8.93-7.88l-9.34-74.75c-0.11-0.85,0.16-1.71,0.73-2.36
					c0.57-0.65,1.39-1.01,2.25-1.01h166c0.86,0,1.68,0.37,2.25,1.01c0.57,0.64,0.83,1.5,0.73,2.36l-9.34,74.74
					c-0.56,4.5-4.4,7.88-8.93,7.88H222.3z M335,353.06c0.03,3.83,3.16,6.94,7,6.94c3.86,0,7-3.14,7-7c0-0.05,0-0.09,0-0.14l2-43.93
					c-0.03-3.83-3.16-6.94-7-6.94c-3.86,0-7,3.14-7,7c0,0.05,0,0.09,0,0.14L335,353.06z M310,302c-3.86,0-7,3.14-7,7l-1,44.07
					c0,3.79,3.14,6.93,7,6.93s7-3.14,7-7l1-44.07C317,305.14,313.86,302,310,302z M270,302c-3.86,0-7,3.14-7,7l1,43.93
					c0,3.93,3.14,7.07,7,7.07s7-3.14,7-7l-1-43.93C277,305.14,273.86,302,270,302z M231,352.86c0,0.04,0,0.09,0,0.14
					c0,3.86,3.14,7,7,7c3.84,0,6.97-3.11,7-6.94l-2-43.93c0-0.04,0-0.09,0-0.14c0-3.86-3.14-7-7-7c-3.84,0-6.97,3.11-7,6.94
					L231,352.86z"/>
			</g>
		</g>
		<g>
			<g>
				<path class="st1" d="M373,293L373,293 M373,293l-9.34,74.74c-0.38,3-2.93,5.26-5.95,5.26H222.3c-3.03,0-5.58-2.25-5.95-5.26
					L207,293H373 M342,363c5.52,0,10-4.48,10-10l2-44c0-5.52-4.48-10-10-10s-10,4.48-10,10l-2,44C332,358.52,336.48,363,342,363
					 M309,363c5.52,0,10-4.48,10-10l1-44c0-5.52-4.48-10-10-10s-10,4.48-10,10l-1,44C299,358.52,303.48,363,309,363 M271,363
					c5.52,0,10-4.48,10-10l-1-44c0-5.52-4.48-10-10-10s-10,4.48-10,10l1,44C261,358.52,265.48,363,271,363 M238,363
					c5.52,0,10-4.48,10-10l-2-44c0-5.52-4.48-10-10-10s-10,4.48-10,10l2,44C228,358.52,232.48,363,238,363 M373.01,287L373.01,287
					H207c-1.72,0-3.36,0.74-4.5,2.03c-1.14,1.29-1.67,3.01-1.46,4.72l9.34,74.74c0.75,5.99,5.87,10.51,11.91,10.51H357.7
					c6.04,0,11.16-4.52,11.91-10.51l9.32-74.55c0.05-0.31,0.07-0.62,0.07-0.94C379,289.69,376.32,287,373.01,287L373.01,287z
					 M373,299L373,299L373,299L373,299z M338,353.11l1.99-43.83c0-0.09,0.01-0.18,0.01-0.27c0-2.21,1.79-4,4-4
					c2.17,0,3.94,1.74,4,3.89l-1.99,43.83c0,0.09-0.01,0.18-0.01,0.27c0,2.21-1.79,4-4,4C339.83,357,338.06,355.26,338,353.11
					L338,353.11z M305,353.05l1-43.92c0-0.05,0-0.09,0-0.14c0-2.21,1.79-4,4-4c2.19,0,3.97,1.77,4,3.95l-1,43.92
					c0,0.05,0,0.09,0,0.14c0,2.21-1.79,4-4,4C306.81,357,305.03,355.23,305,353.05L305,353.05z M266,308.95
					c0.03-2.18,1.81-3.95,4-3.95c2.21,0,4,1.79,4,4c0,0.05,0,0.09,0,0.14l1,43.92c-0.03,2.18-1.81,3.95-4,3.95c-2.21,0-4-1.79-4-4
					c0-0.05,0-0.09,0-0.14L266,308.95L266,308.95z M232,308.89c0.06-2.16,1.83-3.89,4-3.89c2.21,0,4,1.79,4,4
					c0,0.09,0,0.18,0.01,0.27l1.99,43.83c-0.06,2.16-1.83,3.89-4,3.89c-2.21,0-4-1.79-4-4c0-0.09,0-0.18-0.01-0.27L232,308.89
					L232,308.89z"/>
			</g>
		</g>
	</g>
	<g>
		<path class="st2" d="M207,293l1.5,12h18.34c1.54-3.53,5.06-6,9.16-6s7.62,2.47,9.16,6h15.68c1.54-3.53,5.06-6,9.16-6
			s7.62,2.47,9.16,6h21.68c1.54-3.53,5.06-6,9.16-6s7.62,2.47,9.16,6h15.68c1.54-3.53,5.06-6,9.16-6s7.62,2.47,9.16,6h18.34l1.5-12
			H207z"/>
	</g>
	<g>
		<path class="st1" d="M360,274H220c-1.21,0-2.31-0.73-2.77-1.85c-0.46-1.12-0.21-2.41,0.65-3.27l70-70c1.17-1.17,3.07-1.17,4.24,0
			l70,70c0.86,0.86,1.12,2.15,0.65,3.27C362.31,273.27,361.21,274,360,274z M227.24,268h125.52L290,205.24L227.24,268z"/>
	</g>
	<g>
		<g>
			<path class="st0" d="M195,290c-1.66,0-3-1.34-3-3v-4c0-8.27,6.73-15,15-15h166c8.27,0,15,6.73,15,15v4c0,1.66-1.34,3-3,3H195z"/>
		</g>
		<g>
			<g>
				<path class="st1" d="M373,271c6.63,0,12,5.37,12,12v4H195v-4c0-6.63,5.37-12,12-12H373 M373,265H207c-9.93,0-18,8.07-18,18v4
					c0,3.31,2.69,6,6,6h190c3.31,0,6-2.69,6-6v-4C391,273.07,382.93,265,373,265L373,265z"/>
			</g>
		</g>
	</g>
	<g>
		<path class="st3" d="M373,271H207c-3.55,0-6.73,1.55-8.93,4h183.86C379.73,272.55,376.55,271,373,271z"/>
	</g>
	<g>
		<g>
			<circle class="st0" cx="290" cy="203" r="9"/>
		</g>
		<g>
			<g>
				<path class="st1" d="M290,197c3.31,0,6,2.69,6,6s-2.69,6-6,6s-6-2.69-6-6S286.69,197,290,197 M290,191c-6.62,0-12,5.38-12,12
					s5.38,12,12,12s12-5.38,12-12S296.62,191,290,191L290,191z"/>
			</g>
		</g>
	</g>
</g>
<path class="st4" d="M283.02,28.39c-35.9,0-65,29.1-65,65c0,32.44,23.77,59.33,54.84,64.21v-45.42l-16.5,0V93.39l16.5,0V79.07
	c0-16.29,9.7-25.29,24.55-25.29c7.11,0,14.55,1.27,14.55,1.27v16l-8.2,0c-8.07,0-10.59,5.01-10.59,10.15v12.19l18.03,0l-2.88,18.79
	l-15.15,0v45.42c31.07-4.88,54.84-31.77,54.84-64.21C348.02,57.5,318.92,28.39,283.02,28.39z"/>
<g>
	<g>
		<path class="st5" d="M19.64,157.82c-2.76,0-5-2.24-5-5v-116c0-2.76,2.24-5,5-5h140c2.76,0,5,2.24,5,5v116c0,2.76-2.24,5-5,5H19.64
			z"/>
		<g>
			<path class="st1" d="M159.64,34.82c1.1,0,2,0.9,2,2v116c0,1.1-0.9,2-2,2h-140c-1.1,0-2-0.9-2-2v-116c0-1.1,0.9-2,2-2H159.64
				 M159.64,28.82h-140c-4.41,0-8,3.59-8,8v116c0,4.41,3.59,8,8,8h140c4.41,0,8-3.59,8-8v-116
				C167.64,32.41,164.05,28.82,159.64,28.82L159.64,28.82z"/>
		</g>
	</g>
	<g>
		<path class="st0" d="M105.64,145.82c-2.76,0-5-2.24-5-5v-10c0-2.76,2.24-5,5-5h38c2.76,0,5,2.24,5,5v10c0,2.76-2.24,5-5,5H105.64z
			"/>
		<path class="st1" d="M143.64,128.82c1.1,0,2,0.9,2,2v10c0,1.1-0.9,2-2,2h-38c-1.1,0-2-0.9-2-2v-10c0-1.1,0.9-2,2-2H143.64
			 M143.64,122.82h-38c-4.41,0-8,3.59-8,8v10c0,4.41,3.59,8,8,8h38c4.41,0,8-3.59,8-8v-10
			C151.64,126.41,148.05,122.82,143.64,122.82L143.64,122.82z"/>
	</g>
	<path class="st1" d="M84.64,138.82h-54c-1.66,0-3,1.34-3,3l0,0c0,1.66,1.34,3,3,3h54c1.66,0,3-1.34,3-3l0,0
		C87.64,140.17,86.29,138.82,84.64,138.82z"/>
	<path class="st1" d="M84.64,126.82h-54c-1.66,0-3,1.34-3,3l0,0c0,1.66,1.34,3,3,3h54c1.66,0,3-1.34,3-3l0,0
		C87.64,128.17,86.29,126.82,84.64,126.82z"/>
	<g>
		<path class="st6" d="M17.64,113.82c-1.66,0-3-1.34-3-3v-76c0-1.66,1.34-3,3-3h144c1.66,0,3,1.34,3,3v76c0,1.66-1.34,3-3,3H17.64z"
			/>
		<g>
			<path class="st1" d="M161.64,34.82v76h-144v-76H161.64 M161.64,28.82h-144c-3.31,0-6,2.69-6,6v76c0,3.31,2.69,6,6,6h144
				c3.31,0,6-2.69,6-6v-76C167.64,31.51,164.95,28.82,161.64,28.82L161.64,28.82z"/>
		</g>
	</g>
	<g>
		<circle class="st0" cx="89.64" cy="74.82" r="17"/>
		<path class="st1" d="M89.64,60.82c7.73,0,14,6.27,14,14s-6.27,14-14,14s-14-6.27-14-14S81.91,60.82,89.64,60.82 M89.64,54.82
			c-11.03,0-20,8.97-20,20s8.97,20,20,20s20-8.97,20-20S100.67,54.82,89.64,54.82L89.64,54.82z"/>
	</g>
	<polygon class="st5" points="96.64,74.82 86.64,80.82 86.64,68.82 	"/>
</g>
<g id="logo_00000170269125674963637120000002966829412210569905_">
	
		<radialGradient id="bubble_00000163761475538691404990000013597123196545044881_" cx="12.7682" cy="606.2867" r="0.2425" gradientTransform="matrix(539.0873 0 0 -539.0873 -6836.0981 327200.8438)" gradientUnits="userSpaceOnUse">
		<stop  offset="0" style="stop-color:#0099FF"/>
		<stop  offset="0.6098" style="stop-color:#A033FF"/>
		<stop  offset="0.9348" style="stop-color:#FF5280"/>
		<stop  offset="1" style="stop-color:#FF7061"/>
	</radialGradient>
	
		<path id="bubble_00000011005932825831203120000010168450637788922008_" style="fill-rule:evenodd;clip-rule:evenodd;fill:url(#bubble_00000163761475538691404990000013597123196545044881_);" d="
		M83.98,240.04c-33.8,0-60,24.76-60,58.2c0,17.49,7.17,32.61,18.84,43.05c0.98,0.88,1.57,2.11,1.61,3.42l0.33,10.67
		c0.1,3.4,3.62,5.62,6.74,4.24l11.91-5.26c1.01-0.45,2.14-0.53,3.2-0.24c5.47,1.5,11.3,2.31,17.37,2.31c33.8,0,60-24.76,60-58.2
		S117.78,240.04,83.98,240.04z"/>
	<path id="bolt_00000146461620695889139320000009627837296185576876_" class="st8" d="M47.95,315.26l17.62-27.96
		c2.8-4.45,8.81-5.56,13.01-2.4l14.02,10.51c1.29,0.96,3.06,0.96,4.34-0.01l18.93-14.37c2.53-1.92,5.83,1.11,4.13,3.79l-17.62,27.96
		c-2.8,4.45-8.81,5.56-13.01,2.4l-14.02-10.51c-1.29-0.96-3.06-0.96-4.34,0.01l-18.93,14.37C49.55,320.97,46.26,317.94,47.95,315.26
		z"/>
</g>
<g>
	<polygon class="st5" points="200.99,153.96 197.99,148.76 187.6,154.76 184.6,149.57 174.21,155.57 177.21,160.76 172.01,163.76 
		166.01,153.37 155.62,159.37 161.62,169.76 156.43,172.76 135.43,136.39 125.03,142.39 161.03,204.74 155.84,207.74 149.84,197.35 
		144.64,200.35 141.64,195.15 131.25,201.15 137.25,211.55 142.44,208.55 145.44,213.74 150.64,210.74 156.64,221.14 161.84,218.14 
		167.84,228.53 173.03,225.53 179.03,235.92 184.23,232.92 190.23,243.31 231.8,219.31 225.8,208.92 230.99,205.92 221.99,190.33 
		227.19,187.33 206.19,150.96 	"/>
	<rect x="175.63" y="223.22" transform="matrix(0.866 -0.5 0.5 0.866 -90.6797 120.0256)" class="st6" width="6" height="12"/>
	<rect x="164.43" y="215.83" transform="matrix(0.866 -0.5 0.5 0.866 -88.4836 113.4372)" class="st6" width="6" height="12"/>
	<rect x="153.24" y="208.44" transform="matrix(0.866 -0.5 0.5 0.866 -86.2874 106.8487)" class="st6" width="6" height="12"/>
	<rect x="133.85" y="198.85" transform="matrix(0.866 -0.5 0.5 0.866 -84.0913 95.868)" class="st6" width="6" height="12"/>
	<rect x="143.54" y="206.64" transform="matrix(0.866 -0.5 0.5 0.866 -85.1894 101.3583)" class="st6" width="6" height="6"/>
	<rect x="186.83" y="230.62" transform="matrix(0.866 -0.5 0.5 0.866 -92.8759 126.6141)" class="st6" width="6" height="12"/>
	<g>
		<rect x="122.73" y="133.79" transform="matrix(0.866 -0.5 0.5 0.866 -51.149 82.691)" class="st1" width="12" height="6"/>
		<polygon class="st1" points="167.62,180.15 155.62,159.37 166.01,153.37 163.01,148.17 152.62,154.17 140.62,133.39 
			135.43,136.39 162.43,183.15 		"/>
		<polygon class="st1" points="183.21,171.15 174.21,155.57 184.6,149.57 181.6,144.37 166.01,153.37 178.01,174.15 		"/>
		<polygon class="st1" points="201.8,167.35 192.8,151.76 197.99,148.76 194.99,143.57 184.6,149.57 196.6,170.35 		"/>
		<rect x="226.09" y="187.63" transform="matrix(0.866 -0.5 0.5 0.866 -67.6201 140.8891)" class="st1" width="6" height="18"/>
		<polygon class="st1" points="231.8,219.31 190.23,243.31 184.23,232.92 179.03,235.92 188.03,251.51 239.99,221.51 230.99,205.92 
			225.8,208.92 		"/>
		<rect x="170.43" y="226.22" transform="matrix(0.866 -0.5 0.5 0.866 -92.8759 117.8295)" class="st1" width="6" height="12"/>
		<rect x="159.24" y="218.83" transform="matrix(0.866 -0.5 0.5 0.866 -90.6797 111.241)" class="st1" width="6" height="12"/>
		<rect x="148.04" y="211.44" transform="matrix(0.866 -0.5 0.5 0.866 -88.4836 104.6526)" class="st1" width="6" height="12"/>
		<rect x="138.35" y="209.64" transform="matrix(0.866 -0.5 0.5 0.866 -87.3855 99.1622)" class="st1" width="6" height="6"/>
		<polygon class="st1" points="149.84,197.35 155.84,207.74 161.03,204.74 125.03,142.39 119.84,145.39 146.84,192.15 
			141.64,195.15 144.64,200.35 		"/>
		<polygon class="st1" points="141.64,195.15 138.64,189.96 123.05,198.96 132.05,214.55 137.25,211.55 131.25,201.15 		"/>
		<rect x="199.09" y="146.86" transform="matrix(0.866 -0.5 0.5 0.866 -47.8548 121.1237)" class="st1" width="6" height="6"/>
		<rect x="216.29" y="146.64" transform="matrix(0.866 -0.5 0.5 0.866 -54.4432 132.1045)" class="st1" width="6" height="42"/>
	</g>
	<rect x="177.76" y="192.9" transform="matrix(0.866 -0.5 0.5 0.866 -78.2349 117.8295)" class="st1" width="6" height="24"/>
	<rect x="188.15" y="186.9" transform="matrix(0.866 -0.5 0.5 0.866 -73.8426 122.2218)" class="st1" width="6" height="24"/>
	<rect x="198.54" y="180.9" transform="matrix(0.866 -0.5 0.5 0.866 -69.4503 126.6141)" class="st1" width="6" height="24"/>
</g>
<rect class="st9" width="400" height="400"/>
<g>
	<path class="st10" d="M37.8,187.2c2.98,0,5.4-2.42,5.4-5.4c0-0.99,0.81-1.8,1.8-1.8s1.8,0.81,1.8,1.8c0,2.98,2.42,5.4,5.4,5.4
		c0.99,0,1.8,0.81,1.8,1.8c0,0.99-0.81,1.8-1.8,1.8c-2.98,0-5.4,2.42-5.4,5.4c0,0.99-0.81,1.8-1.8,1.8s-1.8-0.81-1.8-1.8
		c0-2.98-2.42-5.4-5.4-5.4c-0.99,0-1.8-0.81-1.8-1.8C36,188.01,36.81,187.2,37.8,187.2z"/>
</g>
<g>
	<circle class="st10" cx="332" cy="16" r="5"/>
</g>
<g>
	<path class="st10" d="M166.6,316.4c2.65,0,4.8-2.15,4.8-4.8c0-0.88,0.72-1.6,1.6-1.6s1.6,0.72,1.6,1.6c0,2.65,2.15,4.8,4.8,4.8
		c0.88,0,1.6,0.72,1.6,1.6s-0.72,1.6-1.6,1.6c-2.65,0-4.8,2.15-4.8,4.8c0,0.88-0.72,1.6-1.6,1.6s-1.6-0.72-1.6-1.6
		c0-2.65-2.15-4.8-4.8-4.8c-0.88,0-1.6-0.72-1.6-1.6S165.72,316.4,166.6,316.4z"/>
</g>
<g>
	<circle class="st10" cx="151" cy="357" r="3"/>
</g>
<g>
	<circle class="st10" cx="26" cy="227" r="5"/>
</g>
<g>
	<path class="st10" d="M363,158c3.31,0,6-2.69,6-6c0-1.1,0.9-2,2-2s2,0.9,2,2c0,3.31,2.69,6,6,6c1.1,0,2,0.9,2,2c0,1.1-0.9,2-2,2
		c-3.31,0-6,2.69-6,6c0,1.1-0.9,2-2,2c-1.1,0-2-0.9-2-2c0-3.31-2.69-6-6-6c-1.1,0-2-0.9-2-2C361,158.9,361.9,158,363,158z"/>
</g>
<g>
	<circle class="st10" cx="333" cy="196" r="4"/>
</g>
<path class="st10" d="M386,57h-7v-7c0-1.66-1.34-3-3-3s-3,1.34-3,3v7h-7c-1.66,0-3,1.34-3,3s1.34,3,3,3h7v7c0,1.66,1.34,3,3,3
	s3-1.34,3-3v-7h7c1.66,0,3-1.34,3-3S387.66,57,386,57z"/>
<g>
	<circle class="st10" cx="89" cy="206" r="4"/>
</g>
</svg>
