<?xml version="1.0" encoding="utf-8"?>
<!-- Generator: Adobe Illustrator 26.2.1, SVG Export Plug-In . SVG Version: 6.00 Build 0)  -->
<svg version="1.1" id="PPC_x5F_Hub-PPC_x5F_Funnel" xmlns="http://www.w3.org/2000/svg" xmlns:xlink="http://www.w3.org/1999/xlink"
	 x="0px" y="0px" viewBox="0 0 400 400" style="enable-background:new 0 0 400 400;" xml:space="preserve">
<style type="text/css">
	.st0{fill:#F89D81;}
	.st1{fill:#515979;}
	.st2{fill:#EF7D7D;}
	.st3{fill:#FABBA7;}
	.st4{fill:#FBB040;}
	.st5{fill:#F8D886;}
	.st6{clip-path:url(#SVGID_00000085941736317545547750000016483208163696710059_);}
	.st7{fill:#FCEBC2;}
	.st8{clip-path:url(#SVGID_00000176013350168780128430000012366594311024787117_);}
	.st9{fill:#E08380;}
	.st10{fill:none;}
	.st11{fill:#FFD886;}
	.st12{clip-path:url(#SVGID_00000176727541433580228090000007107260601625775523_);}
	.st13{fill:#00ACEE;}
	.st14{fill:#1877F2;}
	.st15{fill:#0072B1;}
	.st16{fill:#FBBD04;}
	.st17{fill:#438EDC;}
	.st18{fill:#34A952;}
</style>
<g>
	<g>
		<g>
			<path class="st0" d="M148,349c-0.63,0-1.25-0.2-1.77-0.58c-0.77-0.57-1.23-1.46-1.23-2.42v-50c0-1.66,1.34-3,3-3h38
				c1.66,0,3,1.34,3,3v38c0,1.31-0.85,2.47-2.1,2.86l-38,12C148.61,348.95,148.3,349,148,349z"/>
		</g>
		<g>
			<path class="st1" d="M186,296v38l-38,12v-50H186 M186,290h-38c-3.31,0-6,2.69-6,6v50c0,1.91,0.91,3.71,2.45,4.84
				c1.04,0.76,2.29,1.16,3.55,1.16c0.61,0,1.21-0.09,1.81-0.28l38-12c2.5-0.79,4.19-3.1,4.19-5.72v-38
				C192,292.69,189.31,290,186,290L186,290z"/>
		</g>
	</g>
	<g>
		<polygon class="st2" points="174,296 174,337.79 186,334 186,296 		"/>
	</g>
	<g>
		<g>
			<path class="st0" d="M148,299c-0.99,0-1.91-0.49-2.47-1.3l-99-144c-0.63-0.92-0.7-2.11-0.18-3.1c0.52-0.99,1.54-1.6,2.66-1.6h236
				c1.11,0,2.14,0.62,2.66,1.6c0.52,0.99,0.45,2.18-0.18,3.1l-99,144c-0.56,0.81-1.48,1.3-2.47,1.3H148z"/>
		</g>
		<path class="st1" d="M290.31,149.21c-1.04-1.97-3.08-3.21-5.31-3.21H49c-2.23,0-4.27,1.23-5.31,3.21
			c-1.04,1.97-0.9,4.36,0.37,6.19l99,144c1.12,1.63,2.97,2.6,4.94,2.6h38c1.98,0,3.82-0.97,4.94-2.6l99-144
			C291.21,153.56,291.35,151.18,290.31,149.21z M186,296h-38l-8.25-12H161c1.66,0,3-1.34,3-3s-1.34-3-3-3h-24
			c-0.43,0-0.83,0.09-1.2,0.25L127.38,266H136c1.66,0,3-1.34,3-3s-1.34-3-3-3h-12c-0.24,0-0.47,0.03-0.69,0.09L115,248h21
			c1.66,0,3-1.34,3-3s-1.34-3-3-3h-24c-0.35,0-0.69,0.07-1,0.18L102.62,230H111c1.66,0,3-1.34,3-3s-1.34-3-3-3H99
			c-0.16,0-0.31,0.02-0.47,0.05L90.25,212H110c1.66,0,3-1.34,3-3s-1.34-3-3-3H86.12l-8.25-12H85c1.66,0,3-1.34,3-3s-1.34-3-3-3
			H73.75l-8.25-12H85c1.66,0,3-1.34,3-3s-1.34-3-3-3H61.38L49,152h236L186,296z"/>
	</g>
	<g>
		<polygon class="st2" points="261,152 174,296 186,296 285,152 		"/>
	</g>
	<g>
		<g>
			<path class="st0" d="M42,155c-2.76,0-5-2.24-5-5v-34c0-2.76,2.24-5,5-5h250c2.76,0,5,2.24,5,5v34c0,2.76-2.24,5-5,5H42z"/>
		</g>
		<g>
			<path class="st1" d="M292,114c1.1,0,2,0.9,2,2v34c0,1.1-0.9,2-2,2H42c-1.1,0-2-0.9-2-2v-34c0-1.1,0.9-2,2-2H292 M292,108H42
				c-4.41,0-8,3.59-8,8v34c0,4.41,3.59,8,8,8h250c4.41,0,8-3.59,8-8v-34C300,111.59,296.41,108,292,108L292,108z"/>
		</g>
	</g>
	<g>
		<path class="st3" d="M58,152H42c-1.1,0-2-0.9-2-2v-34c0-1.1,0.9-2,2-2h16V152z"/>
	</g>
	<g>
		<path class="st2" d="M292,152h-22v-38h22c1.1,0,2,0.9,2,2v34C294,151.1,293.1,152,292,152z"/>
	</g>
</g>
<g>
	<g>
		<path class="st4" d="M214,388c-1.66,0-3-1.34-3-3v-80c0-1.66,1.34-3,3-3h16c23.71,0,43,19.29,43,43s-19.29,43-43,43H214z"/>
	</g>
	<path class="st1" d="M230,299h-16c-3.31,0-6,2.69-6,6v80c0,3.31,2.69,6,6,6h16c25.36,0,46-20.64,46-46
		C276,319.64,255.36,299,230,299z M214,385v-80h16c9.59,0,18.38,3.38,25.27,9h-12.12c-1.66,0-3,1.34-3,3s1.34,3,3,3h18.06
		c1.96,2.45,3.65,5.13,5,8h-17.06c-1.66,0-3,1.34-3,3s1.34,3,3,3H268c0.15,0,0.3-0.02,0.44-0.04c0.74,2.58,1.23,5.27,1.43,8.04
		h-16.73c-1.66,0-3,1.34-3,3s1.34,3,3,3h16.73c-0.21,2.77-0.69,5.46-1.43,8.04c-0.15-0.02-0.29-0.04-0.44-0.04h-18.85
		c-1.66,0-3,1.34-3,3s1.34,3,3,3h17.06c-1.35,2.87-3.03,5.55-5,8h-18.06c-1.66,0-3,1.34-3,3s1.34,3,3,3h12.12
		c-6.89,5.62-15.69,9-25.27,9H214z"/>
	<g>
		<g>
			<circle class="st5" cx="214" cy="345" r="43"/>
		</g>
		<g>
			<g>
				<path class="st1" d="M214,305c22.09,0,40,17.91,40,40s-17.91,40-40,40s-40-17.91-40-40S191.91,305,214,305 M214,299
					c-25.36,0-46,20.64-46,46s20.64,46,46,46s46-20.64,46-46S239.36,299,214,299L214,299z"/>
			</g>
		</g>
	</g>
	<g>
		<defs>
			<circle id="SVGID_1_" cx="214" cy="345" r="40"/>
		</defs>
		<clipPath id="SVGID_00000066505774255488792170000012122342440348523953_">
			<use xlink:href="#SVGID_1_"  style="overflow:visible;"/>
		</clipPath>
		<g style="clip-path:url(#SVGID_00000066505774255488792170000012122342440348523953_);">
			<rect x="136.94" y="333.5" transform="matrix(0.5 -0.866 0.866 0.5 -190.5467 348.9631)" class="st7" width="140" height="12"/>
		</g>
		<g style="clip-path:url(#SVGID_00000066505774255488792170000012122342440348523953_);">
			<rect x="150.79" y="343.5" transform="matrix(0.5 -0.866 0.866 0.5 -190.5467 364.9631)" class="st7" width="140" height="8"/>
		</g>
	</g>
	<g>
		<g>
			<circle class="st5" cx="214" cy="345" r="31"/>
		</g>
		<g>
			<path class="st1" d="M214,317c15.46,0,28,12.54,28,28s-12.54,28-28,28s-28-12.54-28-28S198.54,317,214,317 M214,311
				c-18.75,0-34,15.25-34,34s15.25,34,34,34s34-15.25,34-34S232.75,311,214,311L214,311z"/>
		</g>
	</g>
	<g>
		<defs>
			<circle id="SVGID_00000014600564804418623260000001800444933965413804_" cx="214" cy="345" r="28"/>
		</defs>
		<use xlink:href="#SVGID_00000014600564804418623260000001800444933965413804_"  style="overflow:visible;fill:#F8D886;"/>
		<clipPath id="SVGID_00000099624435730964718020000003072290480660868257_">
			<use xlink:href="#SVGID_00000014600564804418623260000001800444933965413804_"  style="overflow:visible;"/>
		</clipPath>
		<g style="clip-path:url(#SVGID_00000099624435730964718020000003072290480660868257_);">
			<rect x="140.94" y="337.5" transform="matrix(0.5 -0.866 0.866 0.5 -192.0108 354.4272)" class="st7" width="140" height="12"/>
		</g>
		<g style="clip-path:url(#SVGID_00000099624435730964718020000003072290480660868257_);">
			<rect x="154.79" y="347.5" transform="matrix(0.5 -0.866 0.866 0.5 -192.0108 370.4272)" class="st7" width="140" height="8"/>
		</g>
	</g>
	<g>
		<g>
			<path class="st1" d="M226,344.25c-1.66,0-3-1.34-3-3c0-0.55-0.45-1-1-1s-1,0.45-1,1c0,1.66-1.34,3-3,3s-3-1.34-3-3
				c0-3.86,3.14-7,7-7s7,3.14,7,7C229,342.91,227.66,344.25,226,344.25z"/>
		</g>
		<g>
			<path class="st1" d="M206,344.25c-1.66,0-3-1.34-3-3c0-0.55-0.45-1-1-1s-1,0.45-1,1c0,1.66-1.34,3-3,3s-3-1.34-3-3
				c0-3.86,3.14-7,7-7c3.86,0,7,3.14,7,7C209,342.91,207.66,344.25,206,344.25z"/>
		</g>
		<g>
			<path class="st1" d="M228.83,332.48c-3.69-0.64-6.63-0.86-10.43-0.79c-1.9-0.1-2.68-2.63-1.21-3.79
				c3.75-3.23,10.48-2.67,13.63,1.11C232.12,330.49,230.72,332.85,228.83,332.48L228.83,332.48z"/>
		</g>
		<g>
			<path class="st1" d="M193.18,329.02c3.13-3.76,9.82-4.34,13.57-1.16c0.95,0.74,1.11,2.12,0.35,3.05
				c-0.39,0.47-0.94,0.74-1.5,0.78c-2,0.11-3.48-0.1-5.27,0.09c-1.82,0.14-3.38,0.5-5.3,0.72
				C193.15,332.74,191.94,330.41,193.18,329.02L193.18,329.02z"/>
		</g>
		<path class="st1" d="M222.01,347.25H202c-2.21,0-4,1.79-4,4c0,7.72,6.28,14,14,14c7.66,0,13.91-6.19,14-13.83
			c0-0.06,0-0.11,0-0.17C226,349.04,224.21,347.25,222.01,347.25z"/>
		<g>
			<path class="st9" d="M212,361.25c2.96,0,5.61-1.29,7.44-3.33c-1.83-2.04-4.48-3.33-7.44-3.33s-5.61,1.29-7.44,3.33
				C206.39,359.96,209.04,361.25,212,361.25z"/>
		</g>
	</g>
</g>
<g>
	<rect y="0" class="st10" width="400" height="400"/>
</g>
<g>
	<g>
		<path class="st11" d="M37.8,325.2c2.98,0,5.4-2.42,5.4-5.4c0-0.99,0.81-1.8,1.8-1.8s1.8,0.81,1.8,1.8c0,2.98,2.42,5.4,5.4,5.4
			c0.99,0,1.8,0.81,1.8,1.8s-0.81,1.8-1.8,1.8c-2.98,0-5.4,2.42-5.4,5.4c0,0.99-0.81,1.8-1.8,1.8s-1.8-0.81-1.8-1.8
			c0-2.98-2.42-5.4-5.4-5.4c-0.99,0-1.8-0.81-1.8-1.8S36.81,325.2,37.8,325.2z"/>
	</g>
</g>
<g>
	<g>
		<path class="st11" d="M329.8,61.2c2.98,0,5.4-2.42,5.4-5.4c0-0.99,0.81-1.8,1.8-1.8s1.8,0.81,1.8,1.8c0,2.98,2.42,5.4,5.4,5.4
			c0.99,0,1.8,0.81,1.8,1.8s-0.81,1.8-1.8,1.8c-2.98,0-5.4,2.42-5.4,5.4c0,0.99-0.81,1.8-1.8,1.8s-1.8-0.81-1.8-1.8
			c0-2.98-2.42-5.4-5.4-5.4c-0.99,0-1.8-0.81-1.8-1.8S328.81,61.2,329.8,61.2z"/>
	</g>
</g>
<g>
	<g>
		<path class="st11" d="M19.4,24.6c2.32,0,4.2-1.88,4.2-4.2c0-0.77,0.63-1.4,1.4-1.4s1.4,0.63,1.4,1.4c0,2.32,1.88,4.2,4.2,4.2
			c0.77,0,1.4,0.63,1.4,1.4s-0.63,1.4-1.4,1.4c-2.32,0-4.2,1.88-4.2,4.2c0,0.77-0.63,1.4-1.4,1.4s-1.4-0.63-1.4-1.4
			c0-2.32-1.88-4.2-4.2-4.2c-0.77,0-1.4-0.63-1.4-1.4S18.63,24.6,19.4,24.6z"/>
	</g>
</g>
<g>
	<circle class="st11" cx="70.5" cy="270.5" r="4.5"/>
</g>
<g>
	<circle class="st11" cx="370.5" cy="106.5" r="4.5"/>
</g>
<g>
	<circle class="st11" cx="335" cy="231" r="5"/>
</g>
<g>
	<circle class="st11" cx="124" cy="83" r="4"/>
</g>
<g>
	<g>
		<circle class="st11" cx="105" cy="329" r="3"/>
	</g>
</g>
<g>
	<g>
		<circle class="st11" cx="253" cy="259" r="3"/>
	</g>
</g>
<path class="st11" d="M288,212h-6v-6c0-1.66-1.34-3-3-3s-3,1.34-3,3v6h-6c-1.66,0-3,1.34-3,3s1.34,3,3,3h6v6c0,1.66,1.34,3,3,3
	s3-1.34,3-3v-6h6c1.66,0,3-1.34,3-3S289.66,212,288,212z"/>
<g>
	<g>
		<path class="st4" d="M314,363c-1.66,0-3-1.34-3-3V260c0-1.66,1.34-3,3-3h16c29.22,0,53,23.78,53,53s-23.78,53-53,53H314z"/>
	</g>
	<path class="st1" d="M330,254h-16c-3.31,0-6,2.69-6,6v100c0,3.31,2.69,6,6,6h16c30.88,0,56-25.12,56-56
		C386,279.12,360.88,254,330,254z M314,360V260h16c11.84,0,22.71,4.12,31.27,11h-12.12c-1.66,0-3,1.34-3,3s1.34,3,3,3h18.4
		c3.15,3.58,5.8,7.62,7.83,12h-16.23c-1.66,0-3,1.34-3,3s1.34,3,3,3h18.56c1.2,3.82,1.95,7.84,2.19,12h-18.75c-1.66,0-3,1.34-3,3
		s1.34,3,3,3h18.75c-0.25,4.16-0.99,8.18-2.19,12h-18.56c-1.66,0-3,1.34-3,3s1.34,3,3,3h16.23c-2.03,4.38-4.68,8.42-7.83,12h-18.4
		c-1.66,0-3,1.34-3,3s1.34,3,3,3h12.12c-8.56,6.88-19.43,11-31.27,11H314z"/>
	<g>
		<g>
			<circle class="st5" cx="314" cy="310" r="53"/>
		</g>
		<g>
			<path class="st1" d="M314,260c27.61,0,50,22.39,50,50s-22.39,50-50,50s-50-22.39-50-50S286.39,260,314,260 M314,254
				c-30.88,0-56,25.12-56,56s25.12,56,56,56s56-25.12,56-56S344.88,254,314,254L314,254z"/>
		</g>
	</g>
	<g>
		<defs>
			<circle id="SVGID_00000047748022823578277190000014929116291647244181_" cx="314" cy="310" r="50"/>
		</defs>
		<clipPath id="SVGID_00000160165920487848437950000013730867309937306014_">
			<use xlink:href="#SVGID_00000047748022823578277190000014929116291647244181_"  style="overflow:visible;"/>
		</clipPath>
		<g style="clip-path:url(#SVGID_00000160165920487848437950000013730867309937306014_);">
			<rect x="232.94" y="294.5" transform="matrix(0.5 -0.866 0.866 0.5 -108.7718 412.6015)" class="st7" width="140" height="12"/>
		</g>
		<g style="clip-path:url(#SVGID_00000160165920487848437950000013730867309937306014_);">
			<rect x="246.79" y="304.5" transform="matrix(0.5 -0.866 0.866 0.5 -108.7718 428.6015)" class="st7" width="140" height="8"/>
		</g>
	</g>
	<g>
		<g>
			<circle class="st5" cx="314" cy="310" r="39"/>
		</g>
		<g>
			<path class="st1" d="M314,274c19.88,0,36,16.12,36,36s-16.12,36-36,36s-36-16.12-36-36S294.12,274,314,274 M314,268
				c-23.16,0-42,18.84-42,42s18.84,42,42,42s42-18.84,42-42S337.16,268,314,268L314,268z"/>
		</g>
	</g>
	<g>
		<g>
			<path class="st7" d="M320.44,274.58l-33.89,58.69c2.64,3.11,5.79,5.76,9.34,7.83l36-62.35
				C328.39,276.76,324.54,275.33,320.44,274.58z"/>
		</g>
		<g>
			<path class="st7" d="M336.84,282.17l-35.52,61.52c2.57,0.97,5.27,1.64,8.08,2l33.22-57.53
				C340.93,285.95,338.99,283.94,336.84,282.17z"/>
		</g>
		<g>
			<path class="st4" d="M284,310c0-18.87,14.53-34.32,33-35.85c-0.99-0.08-1.99-0.15-3-0.15c-19.88,0-36,16.12-36,36
				c0,19.88,16.12,36,36,36c1.01,0,2.01-0.07,3-0.15C298.53,344.32,284,328.87,284,310z"/>
		</g>
		<g>
			<g>
				<path class="st5" d="M289.22,328.65l-2.67,4.63c2.64,3.11,5.79,5.76,9.34,7.83l1.71-2.96
					C294.27,335.51,291.43,332.29,289.22,328.65z"/>
			</g>
			<g>
				<path class="st5" d="M302.59,341.49l-1.27,2.2c2.57,0.97,5.27,1.64,8.08,2l0.65-1.12C307.43,343.82,304.93,342.79,302.59,341.49
					z"/>
			</g>
		</g>
	</g>
	<g>
		<g>
			<path class="st1" d="M330,312.2c-1.66,0-3-1.34-3-3c0-1.65-1.35-3-3-3s-3,1.35-3,3c0,1.66-1.34,3-3,3s-3-1.34-3-3
				c0-4.96,4.04-9,9-9s9,4.04,9,9C333,310.86,331.66,312.2,330,312.2z"/>
		</g>
		<g>
			<path class="st1" d="M306,312.2c-1.66,0-3-1.34-3-3c0-1.65-1.35-3-3-3s-3,1.35-3,3c0,1.66-1.34,3-3,3s-3-1.34-3-3
				c0-4.96,4.04-9,9-9s9,4.04,9,9C309,310.86,307.66,312.2,306,312.2z"/>
		</g>
		<g>
			<path class="st1" d="M332.67,296.43c-3.75-0.3-6.37-0.98-9.99-1.1c-1.8-0.16-6.47,0.52-6.05-2.89c0.07-0.43,0.25-0.8,0.51-1.12
				c2.09-2.72,5.87-4.17,9.41-3.71c3.49,0.41,6.9,2.39,8.45,5.56C335.8,294.74,334.39,296.67,332.67,296.43L332.67,296.43z"/>
		</g>
		<g>
			<path class="st1" d="M289.01,293.17c2.38-4.86,9.1-6.93,13.95-4.8c2.3,1.01,6.21,3.78,3.56,6.23c-1.52,0.97-3.93,0.56-5.2,0.72
				c-3.63,0.12-6.24,0.8-9.99,1.1C289.59,296.68,288.21,294.73,289.01,293.17L289.01,293.17z"/>
		</g>
		<path class="st1" d="M324.01,316H300c-3.31,0-6,2.69-6,6c0,9.93,8.07,18,18,18c9.85,0,17.88-7.96,18-17.79c0-0.07,0-0.14,0-0.21
			C330,318.69,327.32,316,324.01,316z"/>
		<g>
			<path class="st9" d="M312,334c3.55,0,6.73-1.55,8.93-4c-2.2-2.45-5.38-4-8.93-4s-6.73,1.55-8.93,4
				C305.27,332.45,308.45,334,312,334z"/>
		</g>
	</g>
</g>
<g>
	<path class="st13" d="M114.32,61.44c24.15,0,37.36-20.01,37.36-37.36c0-0.57,0-1.13-0.04-1.7c2.57-1.86,4.79-4.16,6.55-6.8
		c-2.4,1.06-4.94,1.76-7.54,2.07c2.74-1.64,4.79-4.22,5.77-7.26c-2.58,1.53-5.4,2.61-8.34,3.19c-4.97-5.29-13.29-5.54-18.58-0.57
		c-3.41,3.21-4.86,7.99-3.8,12.55c-10.56-0.53-20.39-5.52-27.06-13.72c-3.49,6-1.7,13.68,4.07,17.53c-2.09-0.06-4.13-0.63-5.96-1.64
		c0,0.05,0,0.11,0,0.17c0,6.25,4.41,11.63,10.53,12.87c-1.93,0.53-3.96,0.6-5.93,0.23c1.72,5.35,6.65,9.01,12.27,9.12
		c-4.65,3.65-10.39,5.64-16.31,5.63c-1.04,0-2.09-0.07-3.13-0.19c6,3.85,12.99,5.9,20.13,5.89"/>
</g>
<g>
	<path class="st14" d="M189.2,39.58c-16.57,0-30,13.43-30,30c0,14.97,10.97,27.38,25.31,29.64V78.26h-7.62v-8.67h7.62v-6.61
		c0-7.52,4.48-11.67,11.33-11.67c3.28,0,6.72,0.59,6.72,0.59v7.38h-3.78c-3.73,0-4.89,2.31-4.89,4.68v5.63h8.32l-1.33,8.67h-6.99
		v20.96c14.34-2.25,25.31-14.66,25.31-29.64C219.2,53.02,205.77,39.58,189.2,39.58z"/>
</g>
<g>
	<path class="st15" d="M295.94,16.44h-51.13c-2.45,0-4.43,1.94-4.43,4.32v51.73c0,2.39,1.99,4.32,4.43,4.32h51.13
		c2.45,0,4.43-1.94,4.43-4.32V20.76C300.38,18.37,298.39,16.44,295.94,16.44z M249.5,66.98V39.72h9.06v27.26h0H249.5z M254.04,35.99
		h-0.06c-3.04,0-5.01-2.09-5.01-4.71c0-2.68,2.03-4.71,5.13-4.71c3.1,0,5.01,2.04,5.07,4.71C259.16,33.9,257.2,35.99,254.04,35.99z
		 M291.25,66.98h-9.06V52.4c0-3.67-1.31-6.17-4.59-6.17c-2.5,0-4,1.69-4.65,3.31c-0.24,0.58-0.3,1.4-0.3,2.21v15.22h-9.06v0
		c0,0,0.12-24.71,0-27.26h9.06v3.86c1.2-1.86,3.36-4.5,8.17-4.5c5.96,0,10.43,3.9,10.43,12.27V66.98z"/>
</g>
<g>
	<g>
		<path class="st16" d="M33.23,89.26L33.23,89.26c-4.79-2.77-6.45-8.95-3.68-13.74l19.89-34.45c2.77-4.79,8.95-6.45,13.74-3.68l0,0
			c4.79,2.77,6.45,8.95,3.68,13.74L46.97,85.58C44.2,90.37,38.02,92.02,33.23,89.26z"/>
	</g>
	<g>
		<path class="st17" d="M83.17,89.11L83.17,89.11c-4.79,2.77-10.98,1.11-13.74-3.68L49.54,50.98c-2.77-4.79-1.11-10.98,3.68-13.74
			l0,0c4.79-2.77,10.98-1.11,13.74,3.68l19.89,34.45C89.62,80.16,87.97,86.34,83.17,89.11z"/>
	</g>
	<g>
		<circle class="st18" cx="38.4" cy="80.4" r="10.2"/>
	</g>
</g>
</svg>
