<?xml version="1.0" encoding="UTF-8"?>
<svg xmlns="http://www.w3.org/2000/svg" xmlns:xlink="http://www.w3.org/1999/xlink" version="1.1" viewBox="0 0 300 300">
  <defs>
    <style>
      .cls-1, .cls-2, .cls-3, .cls-4, .cls-5 {
        fill: none;
      }

      .cls-6 {
        fill: #1877f2;
      }

      .cls-7 {
        fill: #7ddf96;
      }

      .cls-8 {
        fill: #ffd886;
      }

      .cls-9 {
        fill: #ffd886;
      }

      .cls-10 {
        fill: url(#linear-gradient);
      }

      .cls-11 {
        fill: #d8ebfb;
      }

      .cls-12 {
        fill: #515979;
      }

      .cls-2 {
        stroke-width: 3px;
      }

      .cls-2, .cls-3, .cls-4 {
        stroke: #515979;
      }

      .cls-2, .cls-3, .cls-4, .cls-5 {
        stroke-linecap: round;
        stroke-linejoin: round;
      }

      .cls-13 {
        fill: #fff;
      }

      .cls-3 {
        stroke-width: 4px;
      }

      .cls-4 {
        stroke-width: 5px;
      }

      .cls-14 {
        fill: #ef7d7d;
      }

      .cls-5 {
        stroke: #ffd886;
        stroke-width: 6px;
      }

      .cls-15 {
        clip-path: url(#clippath);
      }
    </style>
    <clipPath id="clippath">
      <path class="cls-1" d="M110,78.799988c7.5,0,8.400002,0,11.300003.200012,2.699997,0,4.199997.599976,5.199997,1,1.300003.5,2.199997,1.099976,3.199997,2.099976s1.600006,1.900024,2.100006,3.200012c.399994,1,.800003,2.5,1,5.200012.100006,3,.199997,3.799988.199997,11.299988s0,8.400024-.199997,11.299988c-.100006,2.700012-.600006,4.200012-1,5.200012-.5,1.299988-1.100006,2.200012-2.100006,3.200012s-1.900002,1.599976-3.199997,2.099976c-1,.400024-2.5.800049-5.199997,1-3,.100037-3.800003.200012-11.300003.200012s-8.400002,0-11.300003-.200012c-2.699997,0-4.199997-.599976-5.199997-1-1.300003-.5-2.199997-1.099976-3.199997-2.099976s-1.599998-1.900024-2.099998-3.200012c-.400002-1-.800003-2.5-1-5.200012,0-3-.199997-3.799988-.199997-11.299988s0-8.399963.199997-11.299988c0-2.700012.599998-4.200012,1-5.200012.5-1.299988,1.099998-2.200012,2.099998-3.200012s1.900002-1.599976,3.199997-2.099976c1-.400024,2.5-.799988,5.199997-1,3,0,3.800003-.200012,11.300003-.200012ZM110,73.799988c-7.599998,0-8.599998,0-11.5.200012-3,0-5,.599976-6.800003,1.299988s-3.400002,1.700012-5,3.200012c-1.599998,1.599976-2.5,3.099976-3.199997,5-.699997,1.799988-1.199997,3.799988-1.300003,6.799988,0,3-.199997,3.900024-.199997,11.5,0,7.600037,0,8.600037.199997,11.5,0,3,.599998,5,1.300003,6.799988.699997,1.800049,1.699997,3.400024,3.199997,5,1.599998,1.600037,3.099998,2.5,5,3.200012,1.800003.700012,3.800003,1.200012,6.800003,1.299988,3,.100037,3.900002.200012,11.5.200012s8.599998,0,11.5-.200012c3,0,5-.599976,6.800003-1.299988s3.399994-1.700012,5-3.200012c1.600006-1.599976,2.5-3.099976,3.199997-5,.699997-1.799988,1.199997-3.799988,1.300003-6.799988s.199997-3.899963.199997-11.5c0-7.599976,0-8.599976-.199997-11.5-.100006-3-.600006-5-1.300003-6.799988s-1.699997-3.400024-3.199997-5c-1.600006-1.599976-3.100006-2.5-5-3.200012-1.800003-.700012-3.800003-1.200012-6.800003-1.299988s-3.900002-.200012-11.5-.200012ZM110,87.400024c-7.900002,0-14.400002,6.399963-14.400002,14.399963s6.400002,14.400024,14.400002,14.400024,14.400002-6.400024,14.400002-14.400024-6.400002-14.399963-14.400002-14.399963ZM110,111.099976c-5.199997,0-9.300003-4.199951-9.300003-9.299988,0-5.099976,4.199997-9.299988,9.300003-9.299988s9.300003,4.200012,9.300003,9.299988c0,5.100037-4.199997,9.299988-9.300003,9.299988ZM124.900002,83.5c-1.900002,0-3.400002,1.5-3.400002,3.400024,0,1.899963,1.5,3.399963,3.400002,3.399963s3.400002-1.5,3.400002-3.399963c0-1.900024-1.5-3.400024-3.400002-3.400024Z"/>
    </clipPath>
    <linearGradient id="linear-gradient" x1="80" y1="909.800003" x2="140" y2="849.800003" gradientTransform="translate(0 -778)" gradientUnits="userSpaceOnUse">
      <stop offset=".15" stop-color="#ffd600"/>
      <stop offset=".3" stop-color="#ff7a00"/>
      <stop offset=".5" stop-color="#ff0069"/>
      <stop offset=".75" stop-color="#d300c5"/>
      <stop offset="1" stop-color="#7638fa"/>
    </linearGradient>
  </defs>
  <!-- Generator: Adobe Illustrator 28.7.1, SVG Export Plug-In . SVG Version: 1.2.0 Build 142)  -->
  <g>
    <g id="facebook-offer-creative">
      <path class="cls-12" d="M41,190.818359c-1.656738,0-3-1.343262-3-3v-5.272949c0-1.656738,1.343262-3,3-3s3,1.343262,3,3v5.272949c0,1.656738-1.343262,3-3,3Z"/>
      <path class="cls-12" d="M41,175c-1.656738,0-3-1.343262-3-3v-3c0-1.656738,1.343262-3,3-3h3c1.656738,0,3,1.343262,3,3s-1.343262,3-3,3c0,1.656738-1.343262,3-3,3Z"/>
      <path class="cls-12" d="M102.5,172h-6.5c-1.656738,0-3-1.343262-3-3s1.343262-3,3-3h6.5c1.656738,0,3,1.343262,3,3s-1.343262,3-3,3ZM83,172h-6.5c-1.656738,0-3-1.343262-3-3s1.343262-3,3-3h6.5c1.656738,0,3,1.343262,3,3s-1.343262,3-3,3ZM63.5,172h-6.5c-1.656738,0-3-1.343262-3-3s1.343262-3,3-3h6.5c1.656738,0,3,1.343262,3,3s-1.343262,3-3,3Z"/>
      <path class="cls-12" d="M257,128.286133c-1.656738,0-3-1.343262-3-3v-6.428711c0-1.656738,1.343262-3,3-3s3,1.343262,3,3v6.428711c0,1.656738-1.343262,3-3,3Z"/>
      <path class="cls-12" d="M257,109c-1.656738,0-3-1.343262-3-3-1.656738,0-3-1.343262-3-3s1.343262-3,3-3h3c1.656738,0,3,1.343262,3,3v3c0,1.656738-1.343262,3-3,3Z"/>
      <path class="cls-12" d="M242,106h-6c-1.656738,0-3-1.343262-3-3s1.343262-3,3-3h6c1.656738,0,3,1.343262,3,3s-1.343262,3-3,3Z"/>
      <path class="cls-12" d="M144,228.45459c-1.656738,0-3-1.343262-3-3v-5.272949c0-1.656738,1.343262-3,3-3s3,1.343262,3,3v5.272949c0,1.656738-1.343262,3-3,3ZM144,212.63623c-1.656738,0-3-1.343262-3-3v-5.272461c0-1.656738,1.343262-3,3-3s3,1.343262,3,3v5.272461c0,1.656738-1.343262,3-3,3Z"/>
      <path class="cls-12" d="M144,242h-3c-1.656738,0-3-1.343262-3-3s1.343262-3,3-3c0-1.656738,1.343262-3,3-3s3,1.343262,3,3v3c0,1.656738-1.343262,3-3,3Z"/>
      <path class="cls-12" d="M128,242h-6.5c-1.656738,0-3-1.343262-3-3s1.343262-3,3-3h6.5c1.656738,0,3,1.343262,3,3s-1.343262,3-3,3Z"/>
      <path class="cls-12" d="M50,91.45459c-1.656738,0-3-1.343262-3-3v-5.272949c0-1.656738,1.343262-3,3-3s3,1.343262,3,3v5.272949c0,1.656738-1.343262,3-3,3ZM50,75.63623c-1.656738,0-3-1.343262-3-3v-5.272461c0-1.656738,1.343262-3,3-3s3,1.343262,3,3v5.272461c0,1.656738-1.343262,3-3,3Z"/>
      <path class="cls-12" d="M53,105h-3c-1.656738,0-3-1.343262-3-3v-3c0-1.656738,1.343262-3,3-3s3,1.343262,3,3c1.656738,0,3,1.343262,3,3s-1.343262,3-3,3Z"/>
      <path class="cls-12" d="M72.5,105h-6.5c-1.656738,0-3-1.343262-3-3s1.343262-3,3-3h6.5c1.656738,0,3,1.343262,3,3s-1.343262,3-3,3Z"/>
      <path class="cls-12" d="M211,172h-6.5c-1.656738,0-3-1.343262-3-3s1.343262-3,3-3h6.5c1.656738,0,3,1.343262,3,3s-1.343262,3-3,3ZM191.5,172h-6.5c-1.656738,0-3-1.343262-3-3s1.343262-3,3-3h6.5c1.656738,0,3,1.343262,3,3s-1.343262,3-3,3Z"/>
      <circle class="cls-9" cx="242" cy="78" r="3"/>
      <circle class="cls-9" cx="209.5" cy="52.5" r="4.5"/>
      <circle class="cls-9" cx="30.5" cy="107.5" r="2.5"/>
      <line class="cls-5" x1="241" y1="36.12" x2="241" y2="52.12"/>
      <line class="cls-5" x1="249" y1="44.12" x2="233" y2="44.12"/>
      <circle class="cls-9" cx="60" cy="138" r="3"/>
      <circle class="cls-9" cx="174.5" cy="229.5" r="2.5"/>
      <circle class="cls-9" cx="140" cy="258" r="3"/>
      <rect class="cls-1" width="300" height="300"/>
      <rect class="cls-11" x="7" y="198" width="102" height="86" rx="5" ry="5"/>
      <path class="cls-12" d="M104,201c1.104576,0,2,.895416,2,2v76c0,1.104584-.895424,2-2,2H12c-1.104579,0-2-.895416-2-2v-76c0-1.104584.895421-2,2-2h92M104,195H12c-4.411211,0-8,3.588791-8,8v76c0,4.411224,3.588789,8,8,8h92c4.411209,0,8-3.588776,8-8v-76c0-4.411209-3.588791-8-8-8h0Z"/>
      <path class="cls-2" d="M85.667657,224.256867c1.68509-.581163,4.417158-.581167,6.102243-.000009"/>
      <circle class="cls-12" cx="88.718778" cy="218.412304" r="5.230494"/>
      <circle class="cls-13" cx="90.026402" cy="218.412304" r="1.307624"/>
      <path class="cls-2" d="M68.232676,224.256867c1.68509-.581163,4.417158-.581167,6.102243-.000009"/>
      <circle class="cls-12" cx="71.283798" cy="218.412304" r="5.230494"/>
      <circle class="cls-13" cx="72.591421" cy="218.412304" r="1.307624"/>
      <path class="cls-12" d="M86.024803,207.189255c3.457782-1.507834,8.240071-.209308,9.723252,3.437778.533357,1.278773-.769094,2.688688-2.076185,2.287665-1.245818-.326417-2.532388-.844909-3.710726-1.215421-1.249843-.433149-2.873273-.791917-4.024456-1.446991-1.261737-.59598-1.186755-2.547537.088115-3.063032h0Z"/>
      <path class="cls-12" d="M73.582062,210.499313c-1.535372.66692-3.532955,1.138375-5.108832,1.725888-.616274.210824-1.399423.50764-2.145038.689364-.922904.252473-1.875723-.291045-2.128172-1.213942-.258005-2.370219,2.362879-4.159229,4.358269-4.770382,1.88171-.637666,7.279293-.671537,6.282309,2.498764-.221533.560117-.76075.83307-1.258536,1.070308h0Z"/>
      <path class="cls-12" d="M87.006287,227.902954h-14.005005c-2.209106,0-4,1.790833-4,4,0,6.06543,4.93457,11,11,11,6.005432,0,10.902344-4.838013,10.998596-10.820984.002625-.059326.003906-.119019.003906-.179016,0-2.209167-1.78833-4-3.997498-4Z"/>
      <path class="cls-14" d="M80.001288,238.902961c2.070577,0,3.925395-.904338,5.206991-2.333333-1.281596-1.428996-3.136414-2.333333-5.206991-2.333333s-3.925395.904338-5.206991,2.333333c1.281596,1.428996,3.136414,2.333333,5.206991,2.333333Z"/>
      <rect class="cls-7" x="25" y="252" width="66" height="20" rx="5" ry="5"/>
      <path class="cls-12" d="M86,255c1.104568,0,2,.895432,2,2v10c0,1.104584-.895432,2-2,2H30c-1.104565,0-2-.895416-2-2v-10c0-1.104568.895435-2,2-2h56M86,249H30c-4.411217,0-8,3.588776-8,8v10c0,4.411224,3.588783,8,8,8h56c4.411217,0,8-3.588776,8-8v-10c0-4.411224-3.588783-8-8-8h0Z"/>
      <rect class="cls-12" x="22" y="237.000001" width="36" height="5.999998" rx="2.999996" ry="2.999996"/>
      <rect class="cls-12" x="22" y="225" width="36" height="6" rx="2.999997" ry="2.999997"/>
      <rect class="cls-12" x="22" y="213" width="36" height="6" rx="2.999997" ry="2.999997"/>
      <rect class="cls-11" x="16" y="16" width="136" height="41" rx="5" ry="5"/>
      <path class="cls-12" d="M147,19c1.104568,0,2,.895437,2,2v31c0,1.104561-.895432,2-2,2H21c-1.104563,0-2-.895439-2-2v-31c0-1.104563.895437-2,2-2h126M147,13H21c-4.411219,0-8,3.588781-8,8v31c0,4.411221,3.588781,8,8,8h126c4.411224,0,8-3.588779,8-8v-31c0-4.411219-3.588776-8-8-8h0Z"/>
      <rect class="cls-7" x="98" y="28" width="42" height="16" rx="5" ry="5"/>
      <path class="cls-12" d="M135,31c1.104553,0,2,.89542,2,2v6c0,1.104561-.895447,2-2,2h-32c-1.104561,0-2-.895439-2-2v-6c0-1.10458.895439-2,2-2h32M135,25h-32c-4.411217,0-8,3.588779-8,8v6c0,4.411221,3.588783,8,8,8h32c4.411224,0,8-3.588779,8-8v-6c0-4.411221-3.588776-8-8-8h0Z"/>
      <rect class="cls-12" x="25" y="39" width="30" height="5.999999" rx="2.999996" ry="2.999996"/>
      <rect class="cls-12" x="25" y="27.000002" width="30" height="5.999995" rx="2.999995" ry="2.999995"/>
      <path class="cls-4" d="M78.197908,35.842418c-.000001-2.209139,1.790859-4.000001,3.999998-4.000002,2.209139-.000001,4.000001,1.790859,4.000002,3.999998"/>
      <path class="cls-4" d="M62.762928,35.842418c-.000001-2.209139,1.790859-4.000001,3.999998-4.000002,2.209139-.000001,4.000001,1.790859,4.000002,3.999998"/>
      <path class="cls-12" d="M79.503929,23.38887c3.457783-1.507822,8.240071-.209307,9.723259,3.437776.533353,1.278784-.769096,2.688689-2.076193,2.287669-1.245806-.326427-2.532394-.844899-3.710726-1.215422-1.249839-.433153-2.873279-.791915-4.024456-1.446987-1.261729-.595989-1.186741-2.547523.088115-3.063036h0Z"/>
      <path class="cls-12" d="M69.061188,26.698938c-1.535369.666903-3.532956,1.138369-5.108824,1.725884-.61628.210818-1.39943.507632-2.145046.689356-.922896.252473-1.875716-.291036-2.128172-1.213942-.257994-2.370217,2.362886-4.159228,4.358276-4.770374,1.881697-.637671,7.27931-.671535,6.282301,2.498755-.22152.560137-.760753.833068-1.258536,1.070322h0Z"/>
      <path class="cls-3" d="M65.47913,42.283444c5.376515,3.806706,12.891081,4.116214,18-.031998"/>
      <path class="cls-13" d="M169.267657,165.17334c0,13.868442-2.422287,25.676329-14.760796,30.117595-3.384947,1.218417-7.034535,1.882405-10.839204,1.882405-3.767867,0-7.383637-.651204-10.740902-1.847203-12.389926-4.413813-14.859098-16.247552-14.859098-30.152797,0-17.673112,7.926888-29.44,25.6-29.44s25.6,11.766888,25.6,29.44Z"/>
      <path class="cls-6" d="M143.667657,133.17334c-17.673111,0-32,14.326885-32,32,0,15.972126,11.701939,29.210632,26.999975,31.611111v-22.361111h-8.124975v-9.25h8.124975v-7.049999c0-8.020012,4.777433-12.450001,12.086851-12.450001,3.501152,0,7.163174.625,7.163174.625v7.875h-4.035179c-3.975128,0-5.214846,2.466667-5.214846,4.99733v6.00267h8.875025l-1.418751,9.25h-7.456274v22.361111c15.298086-2.400478,27.000025-15.638985,27.000025-31.611111,0-17.673115-14.326889-32-32-32Z"/>
      <path class="cls-6" d="M203.999992,76.773604c-6.169557,0-10.992394,4.646799-15.358201,10.549656-5.999424-7.638893-11.016799-10.549657-17.021101-10.549657-12.241379,0-21.620689,15.931035-21.620689,32.793104,0,10.551723,5.104781,17.206896,13.655173,17.206896,6.154026,0,10.580019-2.901296,18.448275-16.655172,0,0,3.279868-5.792061,5.536248-9.781928.790677,1.276593,1.621558,2.650072,2.498235,4.126755l3.689654,6.206896c7.187359,12.027393,11.191932,16.103449,18.448278,16.103449,8.329792,0,12.965519-6.746164,12.965519-17.517242,0-17.655172-9.590789-32.482758-21.241389-32.482758ZM176.103449,106.394293c-6.379311,10.000001-8.586207,12.241378-12.137932,12.241378-3.655172,0-5.827586-3.208916-5.827586-8.931033,0-12.241379,6.103449-24.758621,13.379311-24.758621,3.940064,0,7.232691,2.275521,12.276116,9.495659-4.788961,7.345542-7.68991,11.952618-7.68991,11.952618ZM200.179866,105.13539l-4.411498-7.357402c-1.193838-1.941606-2.337866-3.725729-3.441916-5.361514,3.975986-6.136765,7.255672-9.194596,11.156305-9.194596,8.103452,0,14.586211,11.931034,14.586211,26.586206,0,5.586209-1.829671,8.827586-5.620692,8.827586-3.633529,0-5.369343-2.399698-12.26841-13.50028Z"/>
      <rect class="cls-11" x="224" y="135" width="68" height="138" rx="5" ry="5"/>
      <path class="cls-12" d="M287,138c1.104584,0,2,.895432,2,2v128c0,1.104584-.895416,2-2,2h-58c-1.104568,0-2-.895416-2-2v-128c0-1.104568.895432-2,2-2h58M287,132h-58c-4.411224,0-8,3.588776-8,8v128c0,4.411224,3.588776,8,8,8h58c4.411224,0,8-3.588776,8-8v-128c0-4.411224-3.588776-8-8-8h0Z"/>
      <path class="cls-4" d="M261.718778,185.791129c-.000001-2.209139,1.790859-4.000001,3.999998-4.000002,2.209139-.000001,4.000001,1.790859,4.000002,3.999998"/>
      <path class="cls-4" d="M246.283798,185.791129c-.000001-2.209139,1.790859-4.000001,3.999998-4.000002,2.209139-.000001,4.000001,1.790859,4.000002,3.999998"/>
      <path class="cls-12" d="M263.024811,173.337585c3.457783-1.507844,8.240067-.209293,9.723259,3.437778.533335,1.278788-.76912,2.68868-2.076216,2.287665-1.245818-.32643-2.532379-.844906-3.71071-1.21542-1.249837-.433138-2.873275-.791933-4.024464-1.446991-1.261729-.595988-1.186755-2.547546.088131-3.063032h0Z"/>
      <path class="cls-12" d="M252.582062,176.647644c-1.535376.666905-3.532955,1.138383-5.108832,1.725888-.616283.210824-1.399426.507645-2.145038.689364-.922904.252473-1.875723-.291045-2.12818-1.213942-.257986-2.370236,2.36288-4.159232,4.358284-4.770382,1.881685-.637684,7.279309-.671516,6.282301,2.498749-.221525.560136-.760747.83308-1.258536,1.070324h0Z"/>
      <path class="cls-12" d="M265.006287,190.05127h-14.005005c-2.209106,0-4,1.790894-4,4,0,6.06543,4.93457,11,11,11,6.005493,0,10.902344-4.838013,10.998596-10.820984.002625-.059326.003906-.119019.003906-.179016,0-2.209106-1.78833-4-3.997498-4Z"/>
      <path class="cls-14" d="M258.001288,201.051289c2.070577,0,3.925395-.904338,5.206991-2.333333-1.281596-1.428996-3.136414-2.333333-5.206991-2.333333s-3.925395.904338-5.206991,2.333333c1.281596,1.428996,3.136414,2.333333,5.206991,2.333333Z"/>
      <rect class="cls-7" x="236" y="241" width="44" height="20" rx="5" ry="5"/>
      <path class="cls-12" d="M275,244c1.104584,0,2,.895447,2,2v10c0,1.104584-.895416,2-2,2h-34c-1.104553,0-2-.895416-2-2v-10c0-1.104553.895447-2,2-2h34M275,238h-34c-4.411224,0-8,3.588776-8,8v10c0,4.411224,3.588776,8,8,8h34c4.411224,0,8-3.588776,8-8v-10c0-4.411224-3.588776-8-8-8h0Z"/>
      <rect class="cls-12" x="233" y="150" width="50" height="6.000001" rx="2.999997" ry="2.999997"/>
      <rect class="cls-12" x="233" y="162" width="50" height="6.000001" rx="2.999997" ry="2.999997"/>
      <rect class="cls-12" x="233" y="210" width="50" height="6.000001" rx="2.999997" ry="2.999997"/>
      <rect class="cls-12" x="233" y="222" width="50" height="6.000001" rx="2.999997" ry="2.999997"/>
      <g class="cls-15">
        <rect class="cls-10" x="80" y="71.800003" width="60" height="60"/>
      </g>
      <path class="cls-8" d="M180,258c-3.313721,0-6-2.686279-6-6,0-1.104553-.895447-2-2-2s-2,.895447-2,2c0,3.313721-2.686279,6-6,6-1.104553,0-2,.895447-2,2s.895447,2,2,2c3.313721,0,6,2.686279,6,6,0,1.104553.895447,2,2,2s2-.895447,2-2c0-3.313721,2.686279-6,6-6,1.104553,0,2-.895447,2-2s-.895447-2-2-2Z"/>
      <path class="cls-8" d="M37,134c-3.313721,0-6-2.686279-6-6,0-1.104553-.895447-2-2-2s-2,.895447-2,2c0,3.313721-2.686279,6-6,6-1.104553,0-2,.895447-2,2s.895447,2,2,2c3.313721,0,6,2.686279,6,6,0,1.104553.895447,2,2,2s2-.895447,2-2c0-3.313721,2.686279-6,6-6,1.104553,0,2-.895447,2-2s-.895447-2-2-2Z"/>
    </g>
  </g>
</svg>