<?xml version="1.0" encoding="utf-8"?>
<!-- Generator: Adobe Illustrator 26.0.2, SVG Export Plug-In . SVG Version: 6.00 Build 0)  -->
<svg version="1.1" id="Google_x5F_Hub-Google_x5F_Ads_x5F_Audit"
	 xmlns="http://www.w3.org/2000/svg" xmlns:xlink="http://www.w3.org/1999/xlink" x="0px" y="0px" viewBox="0 0 400 400"
	 style="enable-background:new 0 0 400 400;" xml:space="preserve">
<style type="text/css">
	.st0{fill:#FBBD04;}
	.st1{fill:#438EDC;}
	.st2{fill:#34A952;}
	.st3{fill:#FFFFFF;}
	.st4{fill:#515979;}
	.st5{fill:#D8EBFB;}
	.st6{fill:#2196F3;}
	.st7{fill:#1E78D2;}
	.st8{fill:#00C853;}
	.st9{fill:#329B87;}
	.st10{fill:#EF7D7D;}
	.st11{fill:#FDE1D9;}
	.st12{fill:#B29D90;}
	.st13{fill:#BAD2E1;}
	.st14{fill:#F89D81;}
	.st15{fill:none;}
	.st16{fill:#FFD886;}
</style>
<g>
	<g>
		<path class="st0" d="M228.94,347.07L228.94,347.07c-13.58-7.84-18.27-25.35-10.43-38.93l56.35-97.62
			c7.84-13.58,25.35-18.27,38.93-10.43l0,0c13.58,7.84,18.27,25.35,10.43,38.93l-56.35,97.62
			C260.04,350.2,242.53,354.91,228.94,347.07z"/>
	</g>
	<g>
		<path class="st1" d="M370.46,346.65L370.46,346.65c-13.58,7.84-31.09,3.14-38.93-10.43l-56.35-97.62
			c-7.84-13.58-3.14-31.09,10.43-38.93l0,0c13.58-7.84,31.09-3.14,38.93,10.43l56.35,97.62
			C388.73,321.28,384.02,338.81,370.46,346.65z"/>
	</g>
	<g>
		<circle class="st2" cx="243.58" cy="321.96" r="28.9"/>
	</g>
</g>
<g>
	<g>
		<g>
			<g>
				<g>
					<path class="st3" d="M230.68,163.37c-3.31,0-6-2.69-6-6v-114c0-3.31,2.69-6,6-6h114c3.31,0,6,2.69,6,6v97
						c0,0.8-0.32,1.56-0.88,2.12l-20,20c-0.56,0.56-1.33,0.88-2.12,0.88H230.68z"/>
				</g>
				<g>
					<path class="st4" d="M344.68,40.37c1.66,0,3,1.34,3,3v97l-20,20h-97c-1.66,0-3-1.34-3-3v-114c0-1.66,1.34-3,3-3H344.68
						 M344.68,34.37h-114c-4.96,0-9,4.04-9,9v114c0,4.96,4.04,9,9,9h97c1.59,0,3.12-0.63,4.24-1.76l20-20
						c1.13-1.13,1.76-2.65,1.76-4.24v-97C353.68,38.41,349.65,34.37,344.68,34.37L344.68,34.37z"/>
				</g>
			</g>
			<g>
				<path class="st5" d="M248.93,125.61c1.13-1.13,1.76-2.65,1.76-4.24v-81h-20c-1.66,0-3,1.34-3,3v103.19
					c0.45-0.26,0.87-0.57,1.24-0.95L248.93,125.61z"/>
			</g>
			<g>
				<path class="st6" d="M314.18,105.37h-69c-1.38,0-2.5-1.12-2.5-2.5v0c0-1.38,1.12-2.5,2.5-2.5h69c1.38,0,2.5,1.12,2.5,2.5v0
					C316.68,104.25,315.56,105.37,314.18,105.37z"/>
			</g>
			<g>
				<path class="st7" d="M250.68,105.37h-5.5c-1.38,0-2.5-1.12-2.5-2.5v0c0-1.38,1.12-2.5,2.5-2.5h5.5V105.37z"/>
			</g>
			<g>
				<path class="st4" d="M300.18,125.37h-55c-1.38,0-2.5-1.12-2.5-2.5v0c0-1.38,1.12-2.5,2.5-2.5h55c1.38,0,2.5,1.12,2.5,2.5v0
					C302.68,124.25,301.56,125.37,300.18,125.37z"/>
			</g>
			<g>
				<path class="st4" d="M310.18,135.37h-65c-1.38,0-2.5-1.12-2.5-2.5l0,0c0-1.38,1.12-2.5,2.5-2.5h65c1.38,0,2.5,1.12,2.5,2.5l0,0
					C312.68,134.25,311.56,135.37,310.18,135.37z"/>
			</g>
			<g>
				<path class="st4" d="M290.18,145.37h-45c-1.38,0-2.5-1.12-2.5-2.5l0,0c0-1.38,1.12-2.5,2.5-2.5h45c1.38,0,2.5,1.12,2.5,2.5l0,0
					C292.68,144.25,291.56,145.37,290.18,145.37z"/>
			</g>
			<g>
				<path class="st8" d="M308.18,115.37h-63c-1.38,0-2.5-1.12-2.5-2.5v0c0-1.38,1.12-2.5,2.5-2.5h63c1.38,0,2.5,1.12,2.5,2.5v0
					C310.68,114.25,309.56,115.37,308.18,115.37z"/>
			</g>
			<g>
				<path class="st9" d="M250.68,115.37h-5.5c-1.38,0-2.5-1.12-2.5-2.5v0c0-1.38,1.12-2.5,2.5-2.5h5.5V115.37z"/>
			</g>
			<g>
				<g>
					<path class="st5" d="M327.68,163.37c-0.39,0-0.78-0.07-1.15-0.23c-1.12-0.46-1.85-1.56-1.85-2.77v-17c0-3.31,2.69-6,6-6h17
						c1.21,0,2.31,0.73,2.77,1.85c0.46,1.12,0.21,2.41-0.65,3.27l-20,20C329.23,163.07,328.46,163.37,327.68,163.37z"/>
				</g>
				<g>
					<g>
						<path class="st4" d="M347.68,140.37l-20,20v-17c0-1.66,1.34-3,3-3H347.68 M347.68,134.37h-17c-4.96,0-9,4.04-9,9v17
							c0,2.43,1.46,4.61,3.7,5.54c0.74,0.31,1.52,0.46,2.29,0.46c1.56,0,3.1-0.61,4.24-1.76l20-20c1.72-1.72,2.23-4.3,1.3-6.54
							C352.3,135.83,350.11,134.37,347.68,134.37L347.68,134.37z M347.68,146.37L347.68,146.37L347.68,146.37L347.68,146.37z"/>
					</g>
				</g>
			</g>
			<g>
				<g>
					<g>
						<g>
							<path class="st4" d="M293.21,69.96c-1.1,0-2-0.9-2-2c0-3.86,3.14-7,7-7s7,3.14,7,7c0,1.1-0.9,2-2,2s-2-0.9-2-2
								c0-1.65-1.35-3-3-3s-3,1.35-3,3C295.21,69.06,294.31,69.96,293.21,69.96z"/>
						</g>
					</g>
					<g>
						<path class="st4" d="M295.78,52.02c0.97-0.61,1.86-0.91,2.88-1.12c0.99-0.21,2.03-0.24,3.08-0.12
							c1.04,0.11,2.1,0.44,3.07,0.95c0.97,0.5,1.83,1.28,2.42,2.19c0.52,0.8,0.29,1.86-0.51,2.38c-0.38,0.24-0.81,0.32-1.22,0.25
							l-0.4-0.07c-0.78-0.13-1.39-0.32-2.04-0.43c-0.65-0.1-1.27-0.25-1.96-0.33l-2.11-0.25c-0.72-0.08-1.55-0.12-2.25-0.28
							l-0.42-0.09c-0.92-0.2-1.5-1.11-1.29-2.02C295.12,52.63,295.41,52.25,295.78,52.02z"/>
					</g>
				</g>
				<g>
					<g>
						<g>
							<path class="st4" d="M272.16,69.96c-1.1,0-2-0.9-2-2c0-3.86,3.14-7,7-7s7,3.14,7,7c0,1.1-0.9,2-2,2s-2-0.9-2-2
								c0-1.65-1.35-3-3-3s-3,1.35-3,3C274.16,69.06,273.26,69.96,272.16,69.96z"/>
						</g>
					</g>
					<g>
						<path class="st4" d="M278.63,55.21c-0.7,0.15-1.53,0.2-2.25,0.28l-2.11,0.25c-0.68,0.08-1.3,0.22-1.96,0.33
							c-0.65,0.11-1.26,0.3-2.04,0.43l-0.39,0.07c-0.94,0.16-1.83-0.47-1.98-1.41c-0.07-0.44,0.03-0.87,0.25-1.22
							c0.59-0.92,1.45-1.69,2.42-2.19c0.96-0.52,2.02-0.84,3.07-0.95c1.05-0.12,2.08-0.08,3.08,0.12c1.01,0.21,1.9,0.51,2.88,1.12
							c0.79,0.5,1.03,1.55,0.54,2.34c-0.25,0.4-0.64,0.66-1.07,0.76L278.63,55.21z"/>
					</g>
				</g>
				<g>
					<path class="st4" d="M299.69,73.37L299.69,73.37h-24c-2.21,0-4,1.79-4,4c0,8.82,7.18,16,16,16c8.77,0,15.91-7.09,16-15.84
						c0-0.05,0-0.11,0-0.16C303.69,75.16,301.9,73.37,299.69,73.37z"/>
					<g>
						<g>
							<ellipse class="st10" cx="287.68" cy="85.37" rx="8.93" ry="4"/>
						</g>
					</g>
				</g>
			</g>
			<g>
				<g>
					<circle class="st11" cx="313.68" cy="79.37" r="2"/>
				</g>
				<g>
					<circle class="st11" cx="321.68" cy="79.37" r="2"/>
				</g>
				<g>
					<circle class="st11" cx="317.68" cy="71.37" r="2"/>
				</g>
			</g>
			<g>
				<g>
					<circle class="st11" cx="253.68" cy="79.37" r="2"/>
				</g>
				<g>
					<circle class="st11" cx="261.68" cy="79.37" r="2"/>
				</g>
				<g>
					<circle class="st11" cx="257.68" cy="71.37" r="2"/>
				</g>
			</g>
		</g>
		<g>
			<g>
				<g>
					<path class="st3" d="M116.68,143.37c-3.31,0-6-2.69-6-6v-114c0-3.31,2.69-6,6-6h114c3.31,0,6,2.69,6,6v97
						c0,0.8-0.32,1.56-0.88,2.12l-20,20c-0.56,0.56-1.33,0.88-2.12,0.88H116.68z"/>
				</g>
				<g>
					<path class="st4" d="M230.68,20.37c1.66,0,3,1.34,3,3v97l-20,20h-97c-1.66,0-3-1.34-3-3v-114c0-1.66,1.34-3,3-3H230.68
						 M230.68,14.37h-114c-4.96,0-9,4.04-9,9v114c0,4.96,4.04,9,9,9h97c1.59,0,3.12-0.63,4.24-1.76l20-20
						c1.13-1.13,1.76-2.65,1.76-4.24v-97C239.68,18.41,235.65,14.37,230.68,14.37L230.68,14.37z"/>
				</g>
			</g>
			<g>
				<path class="st6" d="M206.18,85.37h-75c-1.38,0-2.5-1.12-2.5-2.5v0c0-1.38,1.12-2.5,2.5-2.5h75c1.38,0,2.5,1.12,2.5,2.5v0
					C208.68,84.25,207.56,85.37,206.18,85.37z"/>
			</g>
			<g>
				<path class="st4" d="M196.18,105.37h-65c-1.38,0-2.5-1.12-2.5-2.5v0c0-1.38,1.12-2.5,2.5-2.5h65c1.38,0,2.5,1.12,2.5,2.5v0
					C198.68,104.25,197.56,105.37,196.18,105.37z"/>
			</g>
			<g>
				<path class="st4" d="M182.18,115.37h-51c-1.38,0-2.5-1.12-2.5-2.5v0c0-1.38,1.12-2.5,2.5-2.5h51c1.38,0,2.5,1.12,2.5,2.5v0
					C184.68,114.25,183.56,115.37,182.18,115.37z"/>
			</g>
			<g>
				<path class="st4" d="M166.18,125.37h-35c-1.38,0-2.5-1.12-2.5-2.5v0c0-1.38,1.12-2.5,2.5-2.5h35c1.38,0,2.5,1.12,2.5,2.5v0
					C168.68,124.25,167.56,125.37,166.18,125.37z"/>
			</g>
			<g>
				<path class="st8" d="M188.18,95.37h-57c-1.38,0-2.5-1.12-2.5-2.5v0c0-1.38,1.12-2.5,2.5-2.5h57c1.38,0,2.5,1.12,2.5,2.5v0
					C190.68,94.25,189.56,95.37,188.18,95.37z"/>
			</g>
			<g>
				<g>
					<path class="st5" d="M213.68,143.37c-0.39,0-0.78-0.07-1.15-0.23c-1.12-0.46-1.85-1.56-1.85-2.77v-17c0-3.31,2.69-6,6-6h17
						c1.21,0,2.31,0.73,2.77,1.85c0.46,1.12,0.21,2.41-0.65,3.27l-20,20C215.23,143.07,214.46,143.37,213.68,143.37z"/>
				</g>
				<g>
					<g>
						<path class="st4" d="M233.68,120.37l-20,20v-17c0-1.66,1.34-3,3-3H233.68 M233.68,114.37h-17c-4.96,0-9,4.04-9,9v17
							c0,2.43,1.46,4.61,3.7,5.54c0.74,0.31,1.52,0.46,2.29,0.46c1.56,0,3.1-0.61,4.24-1.76l20-20c1.72-1.72,2.23-4.3,1.3-6.54
							C238.3,115.83,236.11,114.37,233.68,114.37L233.68,114.37z M233.68,126.37L233.68,126.37L233.68,126.37L233.68,126.37z"/>
					</g>
				</g>
			</g>
			<g>
				<g>
					<circle class="st11" cx="199.68" cy="59.37" r="2"/>
				</g>
				<g>
					<circle class="st11" cx="207.68" cy="59.37" r="2"/>
				</g>
				<g>
					<circle class="st11" cx="203.68" cy="51.37" r="2"/>
				</g>
			</g>
			<g>
				<g>
					<circle class="st11" cx="139.68" cy="59.37" r="2"/>
				</g>
				<g>
					<circle class="st11" cx="147.68" cy="59.37" r="2"/>
				</g>
				<g>
					<circle class="st11" cx="143.68" cy="51.37" r="2"/>
				</g>
			</g>
			<g>
				<g>
					<g>
						<path class="st4" d="M188.71,54.15c-0.16,0-0.33-0.03-0.49-0.08c-1.6-0.55-4.42-0.55-6.02,0c-0.79,0.27-1.64-0.15-1.91-0.93
							c-0.27-0.78,0.15-1.64,0.93-1.91c2.24-0.77,5.74-0.77,7.98,0c0.78,0.27,1.2,1.12,0.93,1.91
							C189.91,53.76,189.33,54.15,188.71,54.15z"/>
					</g>
					<g>
						<g>
							<circle class="st4" cx="185.21" cy="45.96" r="6"/>
						</g>
						<g>
							<circle class="st3" cx="186.71" cy="45.96" r="1.5"/>
						</g>
					</g>
					<g>
						<path class="st4" d="M181.78,32.02c0.97-0.61,1.86-0.91,2.88-1.12c0.99-0.21,2.03-0.24,3.08-0.12
							c1.04,0.11,2.1,0.44,3.07,0.95c0.97,0.5,1.83,1.28,2.42,2.19c0.52,0.8,0.29,1.86-0.51,2.38c-0.38,0.24-0.81,0.32-1.22,0.25
							l-0.4-0.07c-0.78-0.13-1.39-0.32-2.04-0.43c-0.65-0.1-1.27-0.25-1.96-0.33l-2.11-0.25c-0.72-0.08-1.55-0.12-2.25-0.28
							l-0.42-0.09c-0.92-0.2-1.5-1.11-1.29-2.02C181.12,32.63,181.41,32.25,181.78,32.02z"/>
					</g>
				</g>
				<g>
					<g>
						<path class="st4" d="M165.66,54.15c-0.16,0-0.33-0.03-0.49-0.08c-1.6-0.55-4.42-0.55-6.02,0c-0.78,0.27-1.64-0.15-1.91-0.93
							c-0.27-0.78,0.15-1.64,0.93-1.91c2.24-0.77,5.74-0.77,7.98,0c0.78,0.27,1.2,1.12,0.93,1.91
							C166.86,53.76,166.28,54.15,165.66,54.15z"/>
					</g>
					<g>
						<g>
							<circle class="st4" cx="162.16" cy="45.96" r="6"/>
						</g>
						<g>
							<circle class="st3" cx="163.66" cy="45.96" r="1.5"/>
						</g>
					</g>
					<g>
						<path class="st4" d="M164.63,35.21c-0.7,0.15-1.53,0.2-2.25,0.28l-2.11,0.25c-0.68,0.08-1.3,0.22-1.96,0.33
							c-0.65,0.11-1.26,0.3-2.04,0.43l-0.39,0.07c-0.94,0.16-1.83-0.47-1.98-1.41c-0.07-0.44,0.03-0.88,0.25-1.22
							c0.59-0.92,1.45-1.69,2.42-2.19c0.96-0.52,2.02-0.84,3.07-0.95c1.04-0.12,2.08-0.08,3.08,0.12c1.01,0.21,1.9,0.51,2.88,1.12
							c0.79,0.5,1.03,1.55,0.54,2.34c-0.25,0.4-0.64,0.66-1.07,0.76L164.63,35.21z"/>
					</g>
				</g>
				<g>
					<path class="st4" d="M173.99,65.34c-4.55,0-9.21-1.07-13.25-3.21c-0.98-0.52-1.35-1.73-0.83-2.7c0.52-0.98,1.73-1.35,2.7-0.83
						c6.83,3.63,16.09,3.64,22.02,0.03c0.94-0.58,2.17-0.28,2.75,0.67c0.57,0.94,0.28,2.17-0.67,2.75
						C183.11,64.24,178.61,65.34,173.99,65.34z"/>
				</g>
				<g>
					<path class="st4" d="M169.94,68.45c1.22,0.34,2.49,0.43,3.75,0.48c0.63,0.03,1.26-0.05,1.89-0.12
						c0.63-0.07,1.25-0.18,1.85-0.36c0.68-0.21,1.4,0.17,1.61,0.85c0.14,0.45,0.01,0.92-0.29,1.25l-0.79,0.85
						c-0.61,0.66-1.32,1-2.04,1.25c-0.73,0.21-1.48,0.32-2.23,0.27c-0.37-0.02-0.75-0.04-1.12-0.11c-0.37-0.06-0.74-0.15-1.09-0.27
						c-0.72-0.24-1.42-0.57-2.04-1.13l-0.74-0.66c-0.55-0.49-0.6-1.34-0.11-1.89C168.93,68.46,169.46,68.32,169.94,68.45z"/>
				</g>
			</g>
		</g>
	</g>
</g>
<g>
	<g>
		<g>
			<path class="st12" d="M22.16,392.37c-8.27,0-15-6.73-15-15v-180c0-8.27,6.73-15,15-15h150c8.27,0,15,6.73,15,15v180
				c0,8.27-6.73,15-15,15H22.16z"/>
		</g>
		<g>
			<path class="st4" d="M172.16,185.37c6.63,0,12,5.37,12,12v180c0,6.63-5.37,12-12,12h-150c-6.63,0-12-5.37-12-12v-180
				c0-6.63,5.37-12,12-12H172.16 M172.16,179.37h-150c-9.93,0-18,8.07-18,18v180c0,9.93,8.07,18,18,18h150c9.93,0,18-8.07,18-18
				v-180C190.16,187.45,182.08,179.37,172.16,179.37L172.16,179.37z"/>
		</g>
	</g>
	<g>
		<g>
			<path class="st3" d="M26.16,380.37c-3.86,0-7-3.14-7-7v-172c0-3.86,3.14-7,7-7h142c3.86,0,7,3.14,7,7v152
				c0,0.8-0.32,1.56-0.88,2.12l-24,24c-0.56,0.56-1.33,0.88-2.12,0.88H26.16z"/>
		</g>
		<g>
			<path class="st4" d="M168.16,197.37c2.21,0,4,1.79,4,4v152l-24,24h-122c-2.21,0-4-1.79-4-4v-172c0-2.21,1.79-4,4-4H168.16
				 M168.16,191.37h-142c-5.51,0-10,4.49-10,10v172c0,5.51,4.49,10,10,10h122c1.59,0,3.12-0.63,4.24-1.76l24-24
				c1.13-1.13,1.76-2.65,1.76-4.24v-152C178.16,195.86,173.67,191.37,168.16,191.37L168.16,191.37z"/>
		</g>
	</g>
	<g>
		<g>
			<path class="st5" d="M148.16,380.37c-0.39,0-0.78-0.07-1.15-0.23c-1.12-0.46-1.85-1.56-1.85-2.77v-19.2c0-4.3,3.5-7.8,7.8-7.8
				h19.2c1.21,0,2.31,0.73,2.77,1.85c0.46,1.12,0.21,2.41-0.65,3.27l-24,24C149.71,380.07,148.94,380.37,148.16,380.37z"/>
		</g>
		<g>
			<path class="st4" d="M172.16,353.37l-24,24v-19.2c0-2.65,2.15-4.8,4.8-4.8H172.16 M172.16,347.37h-19.2
				c-5.96,0-10.8,4.84-10.8,10.8v19.2c0,2.43,1.46,4.61,3.7,5.54c0.74,0.31,1.52,0.46,2.29,0.46c1.56,0,3.1-0.61,4.24-1.76l24-24
				c1.72-1.72,2.23-4.3,1.3-6.54C176.77,348.83,174.58,347.37,172.16,347.37L172.16,347.37z M172.16,359.37L172.16,359.37
				L172.16,359.37L172.16,359.37z"/>
		</g>
	</g>
	<g>
		<path class="st4" d="M107.16,291.37h-26c-1.66,0-3-1.34-3-3l0,0c0-1.66,1.34-3,3-3h26c1.66,0,3,1.34,3,3l0,0
			C110.16,290.03,108.81,291.37,107.16,291.37z"/>
	</g>
	<g>
		<path class="st4" d="M149.16,279.37h-68c-1.66,0-3-1.34-3-3l0,0c0-1.66,1.34-3,3-3h68c1.66,0,3,1.34,3,3l0,0
			C152.16,278.03,150.81,279.37,149.16,279.37z"/>
	</g>
	<g>
		<g>
			<g>
				<path class="st13" d="M47.16,206.37c-1.66,0-3-1.34-3-3v-16c0-6.07,4.93-11,11-11h25.28c-1.48-2.74-2.28-5.83-2.28-9
					c0-10.48,8.52-19,19-19c0.72,0,1.45,0.04,2.17,0.12c8.56,0.95,15.58,7.85,16.67,16.39c0.52,4.02-0.26,8.03-2.12,11.49h25.28
					c6.07,0,11,4.93,11,11v16c0,1.66-1.34,3-3,3H47.16z M97.16,162.37c-0.33,0-0.67,0.03-1.01,0.1c-1.93,0.37-3.53,1.97-3.9,3.9
					c-0.29,1.53,0.08,3.02,1.05,4.19c0.95,1.15,2.36,1.81,3.85,1.81c0.33,0,0.67-0.03,1.01-0.1c1.93-0.37,3.53-1.97,3.9-3.9
					c0.29-1.54-0.08-3.02-1.05-4.19C100.06,163.03,98.65,162.37,97.16,162.37z"/>
			</g>
		</g>
		<g>
			<g>
				<path class="st4" d="M97.16,151.37c0.6,0,1.22,0.03,1.84,0.1c7.23,0.8,13.1,6.57,14.03,13.79c0.72,5.63-1.49,10.75-5.31,14.11
					h31.44c4.42,0,8,3.58,8,8v16h-100v-16c0-4.42,3.58-8,8-8H86.6c-3.33-2.93-5.44-7.21-5.44-12
					C81.16,158.53,88.32,151.37,97.16,151.37 M97.16,175.37c0.51,0,1.04-0.05,1.57-0.15c3.15-0.6,5.69-3.14,6.29-6.29
					c0.97-5.11-2.92-9.57-7.85-9.57c-0.51,0-1.04,0.05-1.57,0.15c-3.15,0.6-5.69,3.14-6.29,6.29
					C88.34,170.91,92.23,175.37,97.16,175.37 M97.16,145.37C97.16,145.37,97.16,145.37,97.16,145.37c-5.88,0-11.4,2.29-15.56,6.44
					c-4.16,4.16-6.44,9.68-6.44,15.56c0,2.05,0.29,4.07,0.84,6H55.16c-7.72,0-14,6.28-14,14v16c0,3.31,2.69,6,6,6h100
					c3.31,0,6-2.69,6-6v-16c0-7.72-6.28-14-14-14h-20.85c0.81-2.84,1.05-5.85,0.66-8.87c-1.27-9.9-9.39-17.88-19.32-18.99
					C98.83,145.42,97.99,145.37,97.16,145.37L97.16,145.37z M97.16,169.37c-0.82,0-1.32-0.46-1.54-0.73
					c-0.27-0.33-0.57-0.9-0.41-1.72c0.14-0.72,0.79-1.37,1.51-1.51c0.15-0.03,0.3-0.04,0.45-0.04c0.82,0,1.32,0.46,1.54,0.73
					c0.27,0.33,0.57,0.9,0.41,1.72c-0.14,0.72-0.79,1.37-1.51,1.51C97.45,169.36,97.3,169.37,97.16,169.37L97.16,169.37z"/>
			</g>
		</g>
	</g>
	<g>
		<line class="st13" x1="62.16" y1="191.37" x2="132.16" y2="191.37"/>
		<path class="st4" d="M132.16,194.37h-70c-1.66,0-3-1.34-3-3s1.34-3,3-3h70c1.66,0,3,1.34,3,3S133.81,194.37,132.16,194.37z"/>
	</g>
	<g>
		<g>
			<path class="st3" d="M48.16,294.37c-1.66,0-3-1.34-3-3v-18c0-1.66,1.34-3,3-3h18c1.66,0,3,1.34,3,3v18c0,1.66-1.34,3-3,3H48.16z"
				/>
		</g>
		<g>
			<path class="st4" d="M66.16,273.37v18h-18v-18H66.16 M66.16,267.37h-18c-3.31,0-6,2.69-6,6v18c0,3.31,2.69,6,6,6h18
				c3.31,0,6-2.69,6-6v-18C72.16,270.06,69.47,267.37,66.16,267.37L66.16,267.37z"/>
		</g>
	</g>
	<g>
		<path class="st14" d="M58.61,288.37c-0.85,0-1.65-0.36-2.22-0.98l-5.45-6c-1.11-1.23-1.02-3.12,0.2-4.24
			c1.23-1.12,3.12-1.02,4.24,0.2l3.23,3.56l12.33-13.56c1.11-1.23,3.01-1.32,4.24-0.2c1.23,1.11,1.32,3.01,0.2,4.24l-14.55,16
			C60.26,288.01,59.46,288.37,58.61,288.37z"/>
	</g>
	<g>
		<path class="st4" d="M127.16,327.37h-46c-1.66,0-3-1.34-3-3l0,0c0-1.66,1.34-3,3-3h46c1.66,0,3,1.34,3,3l0,0
			C130.16,326.03,128.81,327.37,127.16,327.37z"/>
	</g>
	<g>
		<path class="st4" d="M149.16,315.37h-68c-1.66,0-3-1.34-3-3l0,0c0-1.66,1.34-3,3-3h68c1.66,0,3,1.34,3,3l0,0
			C152.16,314.03,150.81,315.37,149.16,315.37z"/>
	</g>
	<g>
		<path class="st4" d="M91.16,361.37h-46c-1.66,0-3-1.34-3-3l0,0c0-1.66,1.34-3,3-3h46c1.66,0,3,1.34,3,3l0,0
			C94.16,360.03,92.81,361.37,91.16,361.37z"/>
	</g>
	<g>
		<path class="st4" d="M113.16,349.37h-68c-1.66,0-3-1.34-3-3l0,0c0-1.66,1.34-3,3-3h68c1.66,0,3,1.34,3,3l0,0
			C116.16,348.03,114.81,349.37,113.16,349.37z"/>
	</g>
	<g>
		<g>
			<path class="st3" d="M48.16,330.37c-1.66,0-3-1.34-3-3v-18c0-1.66,1.34-3,3-3h18c1.66,0,3,1.34,3,3v18c0,1.66-1.34,3-3,3H48.16z"
				/>
		</g>
		<g>
			<path class="st4" d="M66.16,309.37v18h-18v-18H66.16 M66.16,303.37h-18c-3.31,0-6,2.69-6,6v18c0,3.31,2.69,6,6,6h18
				c3.31,0,6-2.69,6-6v-18C72.16,306.06,69.47,303.37,66.16,303.37L66.16,303.37z"/>
		</g>
	</g>
	<g>
		<path class="st14" d="M58.61,324.37c-0.85,0-1.65-0.36-2.22-0.98l-5.45-6c-1.11-1.23-1.02-3.12,0.2-4.24
			c1.23-1.12,3.12-1.02,4.24,0.2l3.23,3.56l12.33-13.56c1.11-1.23,3.01-1.32,4.24-0.2c1.23,1.11,1.32,3.01,0.2,4.24l-14.55,16
			C60.26,324.01,59.46,324.37,58.61,324.37z"/>
	</g>
	<g>
		<g>
			<g>
				<path class="st4" d="M114.66,237.97c-0.32,0-0.64-0.08-0.94-0.24c-1.89-1.02-5.22-1.02-7.11,0c-0.97,0.52-2.19,0.16-2.71-0.82
					s-0.16-2.19,0.82-2.71c3.05-1.64,7.84-1.64,10.89,0c0.97,0.52,1.34,1.73,0.82,2.71C116.06,237.59,115.37,237.97,114.66,237.97z"
					/>
			</g>
			<g>
				<g>
					<circle class="st4" cx="110.16" cy="228.22" r="7"/>
				</g>
				<g>
					<circle class="st3" cx="111.91" cy="228.22" r="1.75"/>
				</g>
			</g>
			<g>
				<path class="st4" d="M105.93,214.03c3.7-2.29,8.96-1.89,12.03,1.33c1.57,1.57,3.49,5.3,0.49,6.24c-0.74,0.19-1.4-0.13-1.97-0.54
					c-2.44-1.9-4.85-2.79-7.91-3.04c-0.74-0.07-1.47-0.17-2.14-0.4C104.8,217.22,104.49,214.86,105.93,214.03L105.93,214.03z"/>
			</g>
			<g>
				<path class="st4" d="M88.66,237.97c-0.32,0-0.64-0.08-0.94-0.24c-1.89-1.02-5.22-1.02-7.11,0c-0.97,0.52-2.19,0.16-2.71-0.82
					s-0.16-2.19,0.82-2.71c3.05-1.64,7.84-1.64,10.89,0c0.97,0.52,1.34,1.73,0.82,2.71C90.06,237.59,89.37,237.97,88.66,237.97z"/>
			</g>
			<g>
				<g>
					<circle class="st4" cx="84.16" cy="228.22" r="7"/>
				</g>
				<g>
					<circle class="st3" cx="85.91" cy="228.22" r="1.75"/>
				</g>
			</g>
			<g>
				<path class="st4" d="M87.17,218.27c-1.64,0.12-3.63,0.06-5.19,0.46c-1.68,0.37-2.76,1.03-4.35,1.94
					c-1.07,0.75-2.56,0.59-3.2-0.62c-0.27-0.5-0.3-1.08-0.14-1.58c0.42-1.32,1.19-2.63,2.36-3.6c2.76-2.47,7.01-2.8,10.28-1.34
					c1.51,0.61,3.52,1.98,2.22,3.84C88.71,218.03,87.88,218.16,87.17,218.27L87.17,218.27z"/>
			</g>
		</g>
		<g>
			<path class="st4" d="M111.16,240.37L111.16,240.37H83.16c-2.76,0-5,2.24-5,5c0,10.48,8.52,19,19,19c10.41,0,18.9-8.42,19-18.81
				c0-0.06,0-0.12,0-0.19C116.16,242.61,113.92,240.37,111.16,240.37z"/>
			<g>
				<g>
					<ellipse class="st10" cx="97.16" cy="254.7" rx="10.41" ry="4.67"/>
				</g>
			</g>
		</g>
	</g>
</g>
<g>
	<rect x="0" class="st15" width="400" height="400"/>
</g>
<g>
	<g>
		<path class="st16" d="M65.96,29.16c2.98,0,5.4-2.42,5.4-5.4c0-0.99,0.81-1.8,1.8-1.8c0.99,0,1.8,0.81,1.8,1.8
			c0,2.98,2.42,5.4,5.4,5.4c0.99,0,1.8,0.81,1.8,1.8s-0.81,1.8-1.8,1.8c-2.98,0-5.4,2.42-5.4,5.4c0,0.99-0.81,1.8-1.8,1.8
			c-0.99,0-1.8-0.81-1.8-1.8c0-2.98-2.42-5.4-5.4-5.4c-0.99,0-1.8-0.81-1.8-1.8S64.97,29.16,65.96,29.16z"/>
	</g>
</g>
<g>
	<g>
		<path class="st16" d="M30.96,121.07c2.98,0,5.4-2.42,5.4-5.4c0-0.99,0.81-1.8,1.8-1.8s1.8,0.81,1.8,1.8c0,2.98,2.42,5.4,5.4,5.4
			c0.99,0,1.8,0.81,1.8,1.8c0,0.99-0.81,1.8-1.8,1.8c-2.98,0-5.4,2.42-5.4,5.4c0,0.99-0.81,1.8-1.8,1.8s-1.8-0.81-1.8-1.8
			c0-2.98-2.42-5.4-5.4-5.4c-0.99,0-1.8-0.81-1.8-1.8C29.16,121.88,29.97,121.07,30.96,121.07z"/>
	</g>
</g>
<g>
	<g>
		<path class="st16" d="M316.48,375.57c2.98,0,5.4-2.42,5.4-5.4c0-0.99,0.81-1.8,1.8-1.8s1.8,0.81,1.8,1.8c0,2.98,2.42,5.4,5.4,5.4
			c0.99,0,1.8,0.81,1.8,1.8c0,0.99-0.81,1.8-1.8,1.8c-2.98,0-5.4,2.42-5.4,5.4c0,0.99-0.81,1.8-1.8,1.8s-1.8-0.81-1.8-1.8
			c0-2.98-2.42-5.4-5.4-5.4c-0.99,0-1.8-0.81-1.8-1.8C314.68,376.38,315.49,375.57,316.48,375.57z"/>
	</g>
</g>
<g>
	<circle class="st16" cx="267.68" cy="381.87" r="4.5"/>
</g>
<g>
	<circle class="st16" cx="375.3" cy="146.56" r="4.5"/>
</g>
<g>
	<circle class="st16" cx="370.8" cy="377.37" r="4.5"/>
</g>
<path class="st16" d="M227.68,232.97h-6v-6c0-1.66-1.34-3-3-3s-3,1.34-3,3v6h-6c-1.66,0-3,1.34-3,3s1.34,3,3,3h6v6
	c0,1.66,1.34,3,3,3s3-1.34,3-3v-6h6c1.66,0,3-1.34,3-3S229.34,232.97,227.68,232.97z"/>
<g>
	<g>
		<circle class="st16" cx="47.16" cy="73.37" r="3"/>
	</g>
</g>
<g>
	<g>
		<circle class="st16" cx="73.16" cy="110.37" r="3"/>
	</g>
</g>
<g>
	<g>
		<circle class="st16" cx="298.21" cy="353.37" r="3"/>
	</g>
</g>
<g>
	<g>
		<circle class="st16" cx="239.18" cy="200" r="3"/>
	</g>
</g>
<g>
	<g>
		<circle class="st16" cx="350.68" cy="210.87" r="3"/>
	</g>
</g>
<g>
	<g>
		<circle class="st16" cx="378.3" cy="185.37" r="3"/>
	</g>
</g>
</svg>
