<svg width="260" height="260" fill="none" xmlns="http://www.w3.org/2000/svg"><path d="M74.343 181.645a54.66 54.66 0 0 1-54.6-54.6V60.311a2.6 2.6 0 0 1 2.6-2.6h130a2.599 2.599 0 0 1 2.6 2.6v66.734a54.66 54.66 0 0 1-54.6 54.6h-26z" fill="#F3F9FE"/><path d="M152.343 60.311v66.734a52 52 0 0 1-52 52h-26a52 52 0 0 1-52-52V60.311h130zm0-5.2h-130a5.2 5.2 0 0 0-5.2 5.2v66.734a57.259 57.259 0 0 0 57.2 57.2h26a57.257 57.257 0 0 0 40.428-16.772 57.257 57.257 0 0 0 16.772-40.428V60.311a5.2 5.2 0 0 0-5.2-5.2z" fill="#515979"/><path d="M87.343 71.578c-17.472 0-33.922-.91-46.306-2.6-18.72-2.496-21.294-5.66-21.294-8.667 0-3.007 2.6-6.205 21.294-8.666 12.384-1.656 28.834-2.6 46.306-2.6 17.472 0 33.912.866 46.306 2.6 18.711 2.496 21.294 5.659 21.294 8.666 0 3.008-2.6 6.214-21.294 8.667-12.394 1.69-28.834 2.6-46.306 2.6z" fill="#D8EBFB"/><path d="M157.543 60.311c0-5.572-6.353-7.574-8.745-8.328a92.662 92.662 0 0 0-14.811-2.947c-12.498-1.673-29.06-2.6-46.644-2.6-17.585 0-34.156.919-46.653 2.6a92.325 92.325 0 0 0-14.803 2.947c-2.392.754-8.744 2.756-8.744 8.328 0 5.573 6.274 7.558 8.666 8.32a1.569 1.569 0 0 0 0 .347v6.933a1.733 1.733 0 0 0 3.467 0v-6.335c1.075.251 2.227.503 3.467.745v6.457a1.733 1.733 0 1 0 3.466 0v-5.841c1.101.182 2.262.355 3.467.52v6.188a1.733 1.733 0 1 0 3.467 0v-5.712c1.118.139 2.288.269 3.466.39v6.214a1.733 1.733 0 1 0 3.467 0v-5.876c10.911 1.006 23.781 1.543 37.267 1.543 13.485 0 26.355-.537 37.266-1.543v5.876a1.734 1.734 0 0 0 3.467 0v-6.214a176.35 176.35 0 0 0 3.467-.39v5.738a1.733 1.733 0 1 0 3.466 0v-6.188c1.196-.165 2.366-.338 3.467-.52v5.841a1.734 1.734 0 0 0 3.467 0v-6.457a96.894 96.894 0 0 0 3.466-.745v6.335a1.734 1.734 0 0 0 3.467 0v-6.933a2.23 2.23 0 0 0 0-.347c2.383-.788 8.667-2.79 8.667-8.346zm-70.2 8.667c-35.898 0-65-3.874-65-8.667 0-4.792 29.102-8.666 65-8.666 35.897 0 65 3.882 65 8.666 0 4.784-29.103 8.667-65 8.667z" fill="#515979"/><path d="M43.151 110.535a5.717 5.717 0 0 1-.641 0c-15.297-1.586-21.407-3.71-22.767-4.767V82.013c4.038 1.56 11.214 3.137 23.963 4.333a6.067 6.067 0 0 1 5.503 6.067v12.046a6.068 6.068 0 0 1-6.066 6.067l.008.009z" fill="#D8EBFB"/><path d="M43.957 83.798c-16.25-1.577-26.814-4.134-26.814-7.02v29.467c0 2.782 9.828 5.26 25.133 6.846h.867a8.668 8.668 0 0 0 8.666-8.666V92.378a8.667 8.667 0 0 0-7.852-8.58zm-21.614 1.794c3.136.84 6.32 1.494 9.533 1.959v18.919a50.806 50.806 0 0 1-9.533-2.314V85.592zm24.266 18.876a3.467 3.467 0 0 1-3.466 3.467h-.373c-2.08-.217-3.97-.442-5.703-.676V88.287c1.976.243 4.091.477 6.379.702a3.467 3.467 0 0 1 3.155 3.467l.008 12.012z" fill="#515979"/><path d="M131.525 110.535a6.067 6.067 0 0 1-6.066-6.067V92.421a6.062 6.062 0 0 1 5.503-6.066c12.749-1.231 19.933-2.808 23.963-4.334v23.712c-1.369 1.058-7.479 3.181-22.776 4.767-.21.013-.422.013-.632 0l.008.035z" fill="#D8EBFB"/><path d="M130.728 83.798a8.668 8.668 0 0 0-7.852 8.623v12.047a8.667 8.667 0 0 0 8.667 8.667h.866c15.28-1.586 25.134-4.065 25.134-6.847V76.821c0 2.843-10.574 5.4-26.815 6.977zm1.17 24.119h-.373a3.467 3.467 0 0 1-3.466-3.466V92.404a3.466 3.466 0 0 1 3.146-3.467c2.288-.225 4.411-.46 6.387-.702v18.972c-1.725.26-3.614.494-5.694.71zm20.445-3.761a50.977 50.977 0 0 1-9.534 2.314V87.533a83.068 83.068 0 0 0 9.534-1.958v18.581z" fill="#515979"/><path d="M87.343 68.978c32.902 0 59.574-2.328 59.574-5.2 0-2.872-26.672-5.2-59.574-5.2-32.903 0-59.575 2.328-59.575 5.2 0 2.872 26.672 5.2 59.575 5.2z" fill="#BBD9FC"/><path d="M65.659 180.917c-.144.013-.29.013-.434 0a54.525 54.525 0 0 1-45.465-53.049 2.599 2.599 0 0 1 2.6-2.6c.144-.012.29-.012.433 0a54.53 54.53 0 0 1 45.466 53.049 2.599 2.599 0 0 1-2.6 2.6z" fill="#D8EBFB"/><path d="M22.36 127.781a52.001 52.001 0 0 1 43.333 50.536 52.002 52.002 0 0 1-43.333-50.536zm0-5.2a5.204 5.204 0 0 0-4.827 3.264 5.203 5.203 0 0 0-.373 2.014 57.124 57.124 0 0 0 47.667 55.58c.286.052.576.078.866.078a5.199 5.199 0 0 0 5.2-5.278 57.13 57.13 0 0 0-47.666-55.58 4.843 4.843 0 0 0-.867-.078z" fill="#515979"/><path d="M109.027 180.917a2.6 2.6 0 0 1-2.6-2.6 54.524 54.524 0 0 1 45.465-53.049c.144-.013.289-.013.433 0a2.6 2.6 0 0 1 2.6 2.6 54.53 54.53 0 0 1-45.465 53.049 2.609 2.609 0 0 1-.433 0z" fill="#D8EBFB"/><path d="M152.325 127.781a51.997 51.997 0 0 1-43.333 50.536 52.002 52.002 0 0 1 43.333-50.536zm0-5.2h-.147c-.291 0-.581.029-.867.087a57.12 57.12 0 0 0-47.528 55.562c-.01.689.117 1.374.373 2.014a5.214 5.214 0 0 0 2.819 2.861 5.206 5.206 0 0 0 2.008.403c.291 0 .581-.026.867-.078a57.123 57.123 0 0 0 47.667-55.467 2.283 2.283 0 0 0 0-.234 5.202 5.202 0 0 0-5.2-5.2l.008.052z" fill="#515979"/><path d="m64.775 178.143.866.174a52 52 0 0 0-43.333-50.536c.037 2.966.326 5.924.867 8.84a52.006 52.006 0 0 1 41.6 41.522zM151.441 136.621c.536-2.917.826-5.874.867-8.84a52 52 0 0 0-43.333 50.536l.866-.174a52.002 52.002 0 0 1 41.6-41.522z" fill="#BBD9FC"/><path d="M105.967 118.551a1.716 1.716 0 0 1-.814-.208 7.494 7.494 0 0 0-6.162 0 1.733 1.733 0 0 1-2.48-2.032c.133-.44.436-.81.842-1.027a11.05 11.05 0 0 1 9.438 0 1.735 1.735 0 0 1 .227 2.928 1.733 1.733 0 0 1-1.094.339h.043z" fill="#515979"/><path d="M102.076 116.168a6.933 6.933 0 1 0 0-13.868 6.933 6.933 0 0 0 0 13.868z" fill="#515979"/><path d="M103.809 110.968a1.733 1.733 0 1 0 .001-3.467 1.733 1.733 0 0 0-.001 3.467z" fill="#fff"/><path d="M96.997 95.09c3.181-2.695 8.225-3.189 11.683-.693 1.586 1.136 4.247 4.143 1.733 5.547a1.957 1.957 0 0 1-1.854-.182 12.257 12.257 0 0 0-8.546-1.733c-.643.09-1.292.133-1.941.13a1.733 1.733 0 0 1-1.11-3.051l.035-.017zM76.5 118.551a1.718 1.718 0 0 1-.814-.208 7.49 7.49 0 0 0-6.162 0 1.733 1.733 0 0 1-2.48-2.032c.133-.44.436-.81.842-1.027a11.048 11.048 0 0 1 9.438 0 1.737 1.737 0 0 1 .87 1.98 1.736 1.736 0 0 1-1.737 1.287h.044z" fill="#515979"/><path d="M72.61 116.168a6.933 6.933 0 1 0 0-13.866 6.933 6.933 0 0 0 0 13.866z" fill="#515979"/><path d="M74.343 110.968a1.733 1.733 0 1 0 0-3.466 1.733 1.733 0 0 0 0 3.466z" fill="#fff"/><path d="M76.033 98.141c-2.505-.242-5.2-.563-7.575.442-.867.278-1.733.867-2.704 1.335a1.738 1.738 0 0 1-2.054-.27 1.733 1.733 0 0 1-.33-2.044c1.647-4.013 6.83-5.72 10.79-4.394 1.682.563 5.365 2.028 3.719 4.333a2.062 2.062 0 0 1-1.846.616v-.018z" fill="#515979"/><path d="M53.543 119.765a2.167 2.167 0 1 0 0-4.333 2.167 2.167 0 0 0 0 4.333zM58.31 127.565a2.167 2.167 0 1 0 0-4.333 2.167 2.167 0 0 0 0 4.333zM48.776 127.565a2.167 2.167 0 1 0 0-4.333 2.167 2.167 0 0 0 0 4.333zM121.143 119.765a2.167 2.167 0 1 0-.001-4.333 2.167 2.167 0 0 0 .001 4.333zM125.909 127.565a2.167 2.167 0 1 0 0-4.333 2.167 2.167 0 0 0 0 4.333zM116.376 127.565a2.167 2.167 0 1 0 0-4.333 2.167 2.167 0 0 0 0 4.333z" fill="#CFE5FF"/><path d="M102.943 121.498h-31.2a4.336 4.336 0 0 0-4.334 4.333 19.933 19.933 0 1 0 39.867.156v-.156a4.337 4.337 0 0 0-4.333-4.333z" fill="#515979"/><path d="M87.343 141.431c6.409 0 11.604-2.328 11.604-5.2 0-2.872-5.195-5.2-11.604-5.2-6.41 0-11.605 2.328-11.605 5.2 0 2.872 5.196 5.2 11.605 5.2z" fill="#EF7D7D"/><path d="M172.909 235.222a12.952 12.952 0 0 1-6.483-1.733l-42.033-24.267a13.002 13.002 0 0 1-6.424-12.963 12.997 12.997 0 0 1 1.631-4.812l39-67.514a35.534 35.534 0 0 1 48.533-13l3.008 1.734a35.534 35.534 0 0 1 13 48.533l-39 67.548a13.07 13.07 0 0 1-11.232 6.474z" fill="#D8EBFB"/><path d="M189.436 108.723a32.869 32.869 0 0 1 16.467 4.42l2.998 1.734a32.926 32.926 0 0 1 16.186 32.82 32.928 32.928 0 0 1-4.13 12.168l-39 67.548a10.398 10.398 0 0 1-14.205 3.814l-42.033-24.267a10.4 10.4 0 0 1-3.805-14.213l39-67.548a32.938 32.938 0 0 1 28.548-16.467l-.026-.009zm.026-5.191a38.298 38.298 0 0 0-33.055 19.067l-39 67.548a15.6 15.6 0 0 0 5.66 21.32l42.033 24.266a15.598 15.598 0 0 0 21.303-5.711l39-67.548a38.131 38.131 0 0 0-13.954-52.087l-2.998-1.733a38.13 38.13 0 0 0-19.067-5.122h.078z" fill="#515979"/><path d="m148.252 160.94-18.633 32.275a6.92 6.92 0 0 0-.693 5.262 6.94 6.94 0 0 0 3.232 4.21l36.027 20.8a6.93 6.93 0 0 0 9.473-2.539l18.633-32.275c-9.516-20.54-38.558-7.228-48.039-27.733z" fill="#fff"/><path d="m208.867 114.877-2.999-1.734a32.948 32.948 0 0 0-14.921-4.373 32.944 32.944 0 0 0-15.265 2.961l49.495 28.6a32.87 32.87 0 0 0-16.31-25.454z" fill="#BBD9FC"/><path d="M232.059 63.423a7.8 7.8 0 0 1 3.917 14.63c-14.872 9.203 3.077 21.414-2.479 31.026L198.579 88.92c5.443-9.43 25.134-.173 25.636-17.654a7.732 7.732 0 0 1 1.049-3.917 7.8 7.8 0 0 1 6.795-3.926zm0-5.2a13 13 0 0 0-13 12.826v.018c-.174 5.668-2.436 6.274-9.534 7.358-5.295.806-11.89 1.802-15.392 7.86a5.205 5.205 0 0 0 1.907 7.107l34.918 20.159a5.248 5.248 0 0 0 2.6.693 5.2 5.2 0 0 0 4.507-2.6c3.562-6.162 1.1-12.402-.867-17.42-2.817-7.15-2.99-8.953 1.586-11.787a13.001 13.001 0 0 0-6.699-24.266l-.026.052z" fill="#515979"/><path d="M232.457 134.697a5.187 5.187 0 0 1-2.6-.702l-51.038-29.466a5.202 5.202 0 0 1-1.898-7.098l7.8-13.512a5.205 5.205 0 0 1 4.498-2.6c.912.002 1.808.241 2.6.694l51.038 29.466a5.21 5.21 0 0 1 2.427 3.158 5.207 5.207 0 0 1-.52 3.949l-7.8 13.511a5.2 5.2 0 0 1-4.507 2.6z" fill="#F89D81"/><path d="M189.228 83.92c.453 0 .899.12 1.291.346l51.038 29.467a2.588 2.588 0 0 1 1.214 1.579 2.602 2.602 0 0 1-.26 1.974l-7.8 13.511a2.606 2.606 0 0 1-2.592 1.28 2.626 2.626 0 0 1-.962-.326l-51.038-29.467a2.602 2.602 0 0 1-.953-3.553l7.8-13.512a2.601 2.601 0 0 1 2.262-1.3zm0-5.2a7.802 7.802 0 0 0-6.76 3.9l-7.8 13.51a7.8 7.8 0 0 0 2.851 10.652l51.038 29.467a7.795 7.795 0 0 0 5.921.783 7.795 7.795 0 0 0 4.739-3.635l7.8-13.511a7.801 7.801 0 0 0-2.86-10.651l-51.038-29.467a7.796 7.796 0 0 0-3.891-1.049z" fill="#515979"/><path d="M208.243 114.244a1.73 1.73 0 0 1-1.507-.864 1.738 1.738 0 0 1-.001-1.736l5.2-9.005a1.735 1.735 0 1 1 3.007 1.734l-5.2 9.004a1.729 1.729 0 0 1-1.499.867zM217.993 119.877a1.729 1.729 0 0 1-1.732-1.733c0-.305.08-.603.232-.867l5.2-9.004a1.738 1.738 0 0 1 2.371-.637 1.735 1.735 0 0 1 .637 2.37l-5.2 9.005a1.738 1.738 0 0 1-1.508.866zM227.751 125.511a1.733 1.733 0 0 1-1.499-2.6l5.2-9.005a1.734 1.734 0 0 1 2.37-.637 1.736 1.736 0 0 1 .637 2.37l-5.2 9.005a1.727 1.727 0 0 1-1.508.867zM188.725 102.977a1.73 1.73 0 0 1-1.499-2.6l5.2-9.004a1.734 1.734 0 0 1 2.999 1.733l-5.2 9.005a1.731 1.731 0 0 1-1.5.866zM198.467 108.611a1.743 1.743 0 0 1-1.5-.868 1.731 1.731 0 0 1 0-1.732l5.2-9.005a1.733 1.733 0 0 1 2.999 1.733l-5.2 9.005a1.736 1.736 0 0 1-1.499.867z" fill="#EF7D7D"/><path d="M195.962 159.467a3.466 3.466 0 0 0-1.612-2.106l-18.018-10.4a3.463 3.463 0 0 0-4.732 1.274 13.88 13.88 0 0 0-1.809 5.143 13.879 13.879 0 0 0 2.704 10.345 13.86 13.86 0 0 0 14.698 4.965 13.867 13.867 0 0 0 8.422-6.587 3.458 3.458 0 0 0 .347-2.634z" fill="#515979"/><path d="M186.845 165.046c.957-1.658-1.268-4.735-4.97-6.872-3.701-2.137-7.478-2.525-8.435-.867-.958 1.658 1.267 4.734 4.969 6.871 3.701 2.138 7.478 2.526 8.436.868z" fill="#EF7D7D"/><path d="M201.803 137.869a8.93 8.93 0 0 1 9.534 5.937c.563 1.733 1.118 5.495-1.63 5.33-1.178-.139-1.646-1.43-2.149-2.279a11.87 11.87 0 0 0-4.862-4.897 8.155 8.155 0 0 1-1.733-1.135 1.678 1.678 0 0 1-.539-.8 1.678 1.678 0 0 1 1.405-2.156h-.026zM186.602 132.678a17.009 17.009 0 0 0-4.333-2.019 18.607 18.607 0 0 0-4.836-.364 1.855 1.855 0 0 1-1.462-.528 1.84 1.84 0 0 1-.54-1.457 1.721 1.721 0 0 1 .676-1.222 8.129 8.129 0 0 1 3.466-1.595 8.997 8.997 0 0 1 8.918 3.467c.867 1.135 1.907 3.12.104 3.961a2.482 2.482 0 0 1-2.019-.278l.026.035zM182.477 145.479a2.13 2.13 0 0 1-1.084-.295 2.159 2.159 0 0 1-.797-2.955 2.18 2.18 0 0 0-.148-2.412 2.17 2.17 0 0 0-1.442-.833 2.162 2.162 0 0 0-1.607.436 2.196 2.196 0 0 0-.556.642 2.167 2.167 0 0 1-3.752-2.167 6.49 6.49 0 0 1 3.948-3.031 6.494 6.494 0 0 1 4.935.648 6.505 6.505 0 0 1 2.383 8.883c-.19.331-.464.605-.794.796-.33.19-.705.289-1.086.288zM201.933 156.719a2.1 2.1 0 0 1-1.074-.286 2.16 2.16 0 0 1-1.07-2.162 2.18 2.18 0 0 1 .272-.802 2.164 2.164 0 0 0-.8-2.947 2.163 2.163 0 0 0-2.952.781 2.171 2.171 0 0 1-2.163 1.077 2.16 2.16 0 0 1-1.442-.832 2.16 2.16 0 0 1-.148-2.412 6.505 6.505 0 1 1 11.267 6.5 2.171 2.171 0 0 1-1.89 1.083z" fill="#515979"/><path d="M201.119 168.177a1.733 1.733 0 1 0 0-3.467 1.733 1.733 0 0 0 0 3.467zM207.125 171.643a1.733 1.733 0 1 0 0-3.466 1.733 1.733 0 0 0 0 3.466zM207.593 163.904a1.733 1.733 0 1 0 0-3.466 1.733 1.733 0 0 0 0 3.466zM159.085 143.91a1.733 1.733 0 1 0 .001-3.467 1.733 1.733 0 0 0-.001 3.467zM165.091 147.377a1.734 1.734 0 1 0 0-3.467 1.734 1.734 0 0 0 0 3.467zM165.559 139.637a1.733 1.733 0 1 0 .001-3.467 1.733 1.733 0 0 0-.001 3.467z" fill="#BBD9FC"/><path d="m158.877 165.074-6.751-3.9 1.733-3.007a1.737 1.737 0 0 0-.637-2.371 1.736 1.736 0 0 0-2.37.637l-22.533 39a1.747 1.747 0 0 0-.173 1.318 1.734 1.734 0 0 0 2.734.925 1.74 1.74 0 0 0 .446-.509l1.733-3.008 6.752 3.9a1.723 1.723 0 0 0 1.92-.125 1.73 1.73 0 0 0-.187-2.873l-6.751-3.9 2.6-4.507 3.752 2.167a1.745 1.745 0 0 0 1.343.22 1.723 1.723 0 0 0 1.088-.816 1.726 1.726 0 0 0 .164-1.35 1.73 1.73 0 0 0-.861-1.053l-3.753-2.167 2.6-4.506 6.751 3.9c.264.152.563.233.867.234a1.736 1.736 0 0 0 1.599-2.395 1.734 1.734 0 0 0-.732-.838l-6.752-3.9 2.6-4.507 3.753 2.167a1.74 1.74 0 0 0 1.342.221 1.746 1.746 0 0 0 1.089-.816 1.74 1.74 0 0 0-.159-1.965 1.748 1.748 0 0 0-.539-.439l-3.752-2.166 2.6-4.507 6.751 3.9a1.724 1.724 0 0 0 1.92-.125 1.733 1.733 0 0 0-.187-2.874v.035z" fill="#515979"/></svg>