<?xml version="1.0" encoding="UTF-8"?>
<!-- Generator: Adobe Illustrator 27.0.0, SVG Export Plug-In . SVG Version: 6.00 Build 0)  -->
<svg xmlns="http://www.w3.org/2000/svg" xmlns:xlink="http://www.w3.org/1999/xlink" version="1.1" id="princig-illustration" x="0px" y="0px" viewBox="0 0 1000 680" style="enable-background:new 0 0 1000 680;" xml:space="preserve">
<style type="text/css">
	.st0{fill:#FBB040;}
	.st1{fill:#515979;}
	.st2{fill:#F8D886;}
	.st3{fill:#FCEBC2;}
	.st4{clip-path:url(#SVGID_00000074414678719649599310000001336309756758098354_);}
	.st5{clip-path:url(#SVGID_00000062179536632765974420000007631571043789627281_);}
	.st6{fill:#E08380;}
	.st7{fill:#FFD886;}
	.st8{fill:#FFC369;}
	.st9{fill:#FFFFFF;}
	.st10{fill:#EF7D7D;}
	.st11{fill:#9E8271;}
	.st12{fill:#FFE8B6;}
	.st13{fill:#D8EBFB;}
	.st14{fill:#6ADAF7;}
	.st15{fill:#F89D81;}
	.st16{fill:#C7BCFF;}
	.st17{fill:#CCCCCC;}
	.st18{fill:#515A78;}
	.st19{fill:#D8F5DF;}
	.st20{fill:#7DDF96;}
	.st21{fill:#FFF8E2;}
	.st22{fill:#FDE1D9;}
	.st23{fill:#FFE8A0;}
	.st24{fill:#FAD8D8;}
	.st25{fill:#B4ECFB;}
	.st26{fill:#3CC3F7;}
	.st27{fill:#66A7C6;}
	.st28{fill:#7D839B;}
	.st29{fill:#E6C3AF;}
	.st30{fill:#D2A5A0;}
	.st31{fill:#8988CE;}
	.st32{fill:#FFD4D7;}
	.st33{fill:#FFEAEB;}
	.st34{fill:#BEEFCA;}
	.st35{fill:#5F87A5;}
	.st36{fill:#3CB48C;}
	.st37{fill:#BEE7FA;}
	.st38{fill:#7799B2;}
	.st39{fill:#D2EEFC;}
</style>
<g>
	<g>
		<path class="st0" d="M860.3,299.4c-4.6,0-9.2-0.6-13.8-1.8l-15.5-4.1c-1.6-0.4-2.6-2.1-2.1-3.7l25.9-96.6c0.4-1.3,1.6-2.2,2.9-2.2    c0.3,0,0.5,0,0.8,0.1l15.5,4.1c28.2,7.6,45,36.7,37.5,64.9C905.3,283.2,884.2,299.4,860.3,299.4L860.3,299.4z"></path>
	</g>
	<g>
		<g>
			<path class="st1" d="M857.8,193.9l15.4,4.1c26.7,7.1,42.5,34.6,35.4,61.2c-6,22.3-26.2,37.1-48.3,37.1c-4.3,0-8.6-0.5-13-1.7     l-15.4-4.1L857.8,193.9 M857.8,187.9c-1,0-2.1,0.3-3,0.8c-1.4,0.8-2.4,2.1-2.8,3.6L826.1,289c-0.9,3.2,1,6.5,4.2,7.4l15.4,4.1     c4.8,1.3,9.6,1.9,14.5,1.9c25.3,0,47.5-17.1,54.1-41.5c8-29.8-9.8-60.6-39.6-68.6l-15.4-4.1C858.8,188,858.3,187.9,857.8,187.9     L857.8,187.9z"></path>
		</g>
	</g>
</g>
<g>
	<path class="st1" d="M908.6,262.3c-0.3,0-0.5,0-0.8-0.1l-18.2-4.9c-1.6-0.4-2.6-2.1-2.1-3.7c0.4-1.6,2.1-2.6,3.7-2.1l18.2,4.9   c1.6,0.4,2.6,2.1,2.1,3.7C911.1,261.4,909.9,262.3,908.6,262.3z"></path>
</g>
<g>
	<path class="st1" d="M911.3,244.4c-0.3,0-0.5,0-0.8-0.1l-18.2-4.9c-1.6-0.4-2.6-2.1-2.1-3.7c0.4-1.6,2.1-2.6,3.7-2.1l18.2,4.9   c1.6,0.4,2.6,2.1,2.1,3.7C913.8,243.5,912.6,244.4,911.3,244.4z"></path>
</g>
<g>
	<path class="st1" d="M902,279.2c-0.3,0-0.5,0-0.8-0.1l-18.2-4.9c-1.6-0.4-2.6-2.1-2.1-3.7s2.1-2.5,3.7-2.1l18.2,4.9   c1.6,0.4,2.6,2.1,2.1,3.7C904.5,278.3,903.3,279.2,902,279.2z"></path>
</g>
<g>
	<path class="st1" d="M887.7,294c-0.3,0-0.5,0-0.8-0.1l-18.2-4.9c-1.6-0.4-2.6-2.1-2.1-3.7s2.1-2.5,3.7-2.1l18.2,4.9   c1.6,0.4,2.6,2.1,2.1,3.7C890.2,293.1,889,294,887.7,294z"></path>
</g>
<g>
	<path class="st1" d="M906.3,224.4c-0.3,0-0.5,0-0.8-0.1l-18.2-4.9c-1.6-0.4-2.6-2.1-2.1-3.7s2.1-2.6,3.7-2.1l18.2,4.9   c1.6,0.4,2.6,2.1,2.1,3.7C908.8,223.6,907.6,224.4,906.3,224.4z"></path>
</g>
<g>
	<g>
		<path class="st2" d="M844.8,295.2c-4.6,0-9.2-0.6-13.8-1.8c-28.2-7.6-45-36.7-37.5-64.9c6.2-23.1,27.2-39.3,51.2-39.3    c4.6,0,9.2,0.6,13.8,1.8c13.7,3.7,25.1,12.4,32.2,24.7c7.1,12.3,9,26.5,5.3,40.2C889.8,279.1,868.8,295.2,844.8,295.2z"></path>
	</g>
	<g>
		<path class="st1" d="M844.8,192.2c4.3,0,8.6,0.6,13,1.7c26.7,7.1,42.5,34.6,35.4,61.2c-6,22.3-26.2,37.1-48.3,37.1    c-4.3,0-8.6-0.5-13-1.7c-26.7-7.1-42.5-34.6-35.4-61.2C802.5,207,822.7,192.2,844.8,192.2 M844.8,186.2v6V186.2    C844.8,186.2,844.8,186.2,844.8,186.2c-25.3,0-47.5,17.1-54.1,41.5c-3.9,14.4-1.9,29.5,5.6,42.5c7.5,13,19.6,22.2,34,26.1    c4.8,1.3,9.6,1.9,14.5,1.9c25.3,0,47.5-17.1,54.1-41.5c3.9-14.4,1.9-29.5-5.6-42.5c-7.5-12.9-19.6-22.2-34-26.1    C854.6,186.9,849.7,186.2,844.8,186.2L844.8,186.2z"></path>
	</g>
</g>
<path class="st3" d="M862.7,195.6l-64.6,64.6c1.5,3.9,3.5,7.6,5.9,11l69.7-69.7C870.4,199.1,866.7,197.1,862.7,195.6z"></path>
<path class="st3" d="M878.5,205.3l-70.6,70.6c1.8,2,3.7,3.8,5.8,5.5l70.3-70.3C882.3,209,880.5,207.1,878.5,205.3z"></path>
<g>
	<g>
		<path class="st2" d="M844.8,281.2c-3.4,0-6.8-0.5-10.1-1.3c-10.1-2.7-18.5-9.1-23.7-18.2s-6.6-19.5-3.9-29.6    c4.6-17,20-28.9,37.7-28.9c3.4,0,6.8,0.4,10.1,1.3c20.8,5.6,33.1,27,27.6,47.8C877.9,269.4,862.4,281.2,844.8,281.2z"></path>
	</g>
	<g>
		<path class="st1" d="M844.8,206.2c3.1,0,6.2,0.4,9.3,1.2c19.2,5.1,30.6,24.9,25.5,44.1c-4.3,16.1-18.9,26.7-34.8,26.7    c-3.1,0-6.2-0.4-9.3-1.2c-19.2-5.1-30.6-24.9-25.5-44.1C814.3,216.8,828.9,206.2,844.8,206.2 M844.8,200.2v6V200.2    C844.8,200.2,844.8,200.2,844.8,200.2c-19,0-35.6,12.8-40.6,31.1c-2.9,10.8-1.4,22.1,4.2,31.9s14.7,16.7,25.5,19.6    c3.6,1,7.2,1.4,10.9,1.4c19,0,35.6-12.8,40.6-31.1c6-22.4-7.3-45.4-29.7-51.4C852.1,200.7,848.5,200.2,844.8,200.2L844.8,200.2z"></path>
	</g>
</g>
<g>
	<path class="st3" d="M860.2,209.7l-47.9,47.9c1.7,3.7,4.1,7.1,7,10l50.9-50.9C867.3,213.9,864,211.5,860.2,209.7z"></path>
</g>
<g>
	<path class="st3" d="M874.1,221.3l-50.2,50.2c2.2,1.6,4.7,3,7.3,4l47-47C877.1,226,875.7,223.5,874.1,221.3z"></path>
</g>
<g>
	<path class="st0" d="M815.8,234.5c4.9-18.2,22.9-29.4,41.2-26.1c-0.9-0.3-1.9-0.7-2.9-0.9c-19.2-5.1-38.9,6.2-44.1,25.5   c-5.2,19.2,6.2,38.9,25.5,44.1c1,0.3,2,0.5,2.9,0.6C821,271.4,810.9,252.7,815.8,234.5z"></path>
</g>
<g>
	<path class="st2" d="M816.1,253.9l-3.8,3.8c1.7,3.7,4.1,7.1,7,10l2.4-2.4C819.2,261.8,817.2,257.9,816.1,253.9z"></path>
</g>
<g>
	<path class="st2" d="M825.7,269.7l-1.8,1.8c2.2,1.6,4.7,3,7.3,4l0.9-0.9C829.7,273.2,827.6,271.6,825.7,269.7z"></path>
</g>
<g>
	<path class="st1" d="M860.5,248.6c-0.3,0-0.5,0-0.8-0.1c-1.6-0.4-2.6-2.1-2.1-3.7c0.4-1.6-0.5-3.2-2.1-3.7   c-0.8-0.2-1.6-0.1-2.3,0.3c-0.7,0.4-1.2,1.1-1.4,1.8c-0.4,1.6-2.1,2.6-3.7,2.1c-1.6-0.4-2.6-2.1-2.1-3.7c0.6-2.3,2.1-4.3,4.2-5.5   c2.1-1.2,4.5-1.5,6.8-0.9c2.3,0.6,4.3,2.1,5.5,4.2s1.5,4.5,0.9,6.8C863,247.7,861.8,248.6,860.5,248.6z"></path>
</g>
<g>
	<path class="st1" d="M837.3,242.4c-0.3,0-0.5,0-0.8-0.1c-1.6-0.4-2.6-2.1-2.1-3.7c0.4-1.6-0.5-3.2-2.1-3.7   c-1.6-0.4-3.2,0.5-3.7,2.1c-0.4,1.6-2.1,2.6-3.7,2.1c-1.6-0.4-2.6-2.1-2.1-3.7c1.3-4.8,6.2-7.6,11-6.4c4.8,1.3,7.7,6.2,6.4,11   C839.8,241.5,838.6,242.4,837.3,242.4z"></path>
</g>
<g>
	<path class="st1" d="M866.4,234c-3.5-1.3-5.9-2.6-9.4-3.6c-1.7-0.6-6.4-1.2-5.1-4.4c0.2-0.4,0.4-0.7,0.8-0.9   c2.7-2.1,6.8-2.5,10.1-1.1c3.3,1.3,6,4.1,6.7,7.6C869.8,233.1,868,234.6,866.4,234L866.4,234z"></path>
</g>
<g>
	<path class="st1" d="M825,219.5c3.6-4.1,10.6-4.3,14.7-1c2,1.6,5,5.3,1.8,6.9c-1.7,0.5-3.9-0.5-5.2-0.6c-3.5-0.8-6.2-0.8-9.9-1.5   C824.7,223.1,823.9,220.8,825,219.5L825,219.5z"></path>
</g>
<g>
	<path class="st1" d="M846.7,255.9c-7.1,0-14.4-3.2-19.6-8.9c-0.9-1-0.8-2.6,0.2-3.5c1-0.9,2.6-0.8,3.5,0.2c5.7,6.4,15.1,8.9,22.3,6   c1.3-0.5,2.7,0.1,3.2,1.4s-0.1,2.7-1.4,3.2C852.3,255.4,849.5,255.9,846.7,255.9z"></path>
</g>
<g>
	<path class="st1" d="M835.4,255.7c2.3,1.5,5.2,2.3,7.9,2.1c1.5-0.2,2.3,1.9,1,2.8l-1.2,0.8c-2,1.4-4.4,1.1-6.5,0.1   c-1.2-0.6-2.3-1.4-3-2.6l-0.6-1C832.3,256.4,834,254.8,835.4,255.7L835.4,255.7z"></path>
</g>
<g>
	<g>
		<path class="st0" d="M907.3,349c-3.8,0-7.5-0.5-11.2-1.5l-15.5-4.1c-0.8-0.2-1.4-0.7-1.8-1.4c-0.4-0.7-0.5-1.5-0.3-2.3l20.7-77.3    c0.4-1.3,1.6-2.2,2.9-2.2c0.3,0,0.5,0,0.8,0.1l15.5,4.1c22.9,6.1,36.5,29.8,30.4,52.7C943.8,335.8,926.7,349,907.3,349L907.3,349z    "></path>
	</g>
	<g>
		<g>
			<path class="st1" d="M902.2,263.2l15.4,4.1c21.3,5.7,34,27.6,28.3,49c-4.8,17.9-20.9,29.7-38.6,29.7c-3.4,0-6.9-0.4-10.4-1.4     l-15.4-4.1L902.2,263.2 M902.2,257.2c-2.7,0-5.1,1.8-5.8,4.5l-20.7,77.3c-0.9,3.2,1,6.5,4.2,7.4l15.4,4.1c3.9,1,7.9,1.6,11.9,1.6     c20.8,0,39-14,44.4-34.1c6.6-24.5-8-49.8-32.5-56.3l-15.4-4.1C903.2,257.2,902.7,257.2,902.2,257.2L902.2,257.2z"></path>
		</g>
	</g>
</g>
<g>
	<path class="st1" d="M945.9,319.3c-0.3,0-0.5,0-0.8-0.1l-16.3-4.4c-1.6-0.4-2.6-2.1-2.1-3.7s2.1-2.5,3.7-2.1l16.3,4.4   c1.6,0.4,2.6,2.1,2.1,3.7C948.5,318.4,947.3,319.3,945.9,319.3z"></path>
</g>
<g>
	<path class="st1" d="M947.6,305.3c-0.3,0-0.5,0-0.8-0.1l-18.2-4.9c-1.6-0.4-2.6-2.1-2.1-3.7s2.1-2.5,3.7-2.1l18.2,4.9   c1.6,0.4,2.6,2.1,2.1,3.7C950.2,304.4,949,305.3,947.6,305.3z"></path>
</g>
<g>
	<path class="st1" d="M945.5,290.2c-0.3,0-0.5,0-0.8-0.1l-18.2-4.9c-1.6-0.4-2.6-2.1-2.1-3.7s2.1-2.5,3.7-2.1l18.2,4.9   c1.6,0.4,2.6,2.1,2.1,3.7C948,289.3,946.8,290.2,945.5,290.2z"></path>
</g>
<g>
	<path class="st1" d="M940.4,332.3c-0.3,0-0.5,0-0.8-0.1l-18.2-4.9c-1.6-0.4-2.6-2.1-2.1-3.7s2.1-2.5,3.7-2.1l18.2,4.9   c1.6,0.4,2.6,2.1,2.1,3.7C942.9,331.4,941.7,332.3,940.4,332.3z"></path>
</g>
<g>
	<path class="st1" d="M931,344.3c-0.3,0-0.5,0-0.8-0.1l-18.2-4.9c-1.6-0.4-2.6-2.1-2.1-3.7s2.1-2.5,3.7-2.1l18.2,4.9   c1.6,0.4,2.6,2.1,2.1,3.7C933.5,343.4,932.3,344.3,931,344.3z"></path>
</g>
<g>
	<g>
		<path class="st2" d="M891.9,344.8c-3.8,0-7.5-0.5-11.2-1.5c-22.9-6.1-36.5-29.8-30.4-52.7c5-18.8,22.1-31.9,41.5-31.9    c3.8,0,7.5,0.5,11.2,1.5c11.1,3,20.4,10.1,26.1,20c5.7,10,7.3,21.5,4.3,32.6C928.4,331.7,911.3,344.8,891.9,344.8z"></path>
	</g>
	<g>
		<g>
			<path class="st1" d="M891.8,261.8c3.4,0,6.9,0.4,10.4,1.4c21.3,5.7,34,27.6,28.3,49c-4.8,17.9-20.9,29.7-38.6,29.7     c-3.4,0-6.9-0.4-10.4-1.4c-21.3-5.7-34-27.6-28.3-49C858,273.6,874.2,261.8,891.8,261.8 M891.8,255.8v6V255.8L891.8,255.8     c-20.8,0-39,14-44.4,34.1c-6.6,24.5,8,49.8,32.5,56.3c3.9,1,7.9,1.6,11.9,1.6c20.8,0,39-14,44.4-34.1c6.6-24.5-8-49.8-32.5-56.3     C899.8,256.3,895.8,255.8,891.8,255.8L891.8,255.8z"></path>
		</g>
	</g>
</g>
<path class="st3" d="M907.6,265l-52.5,52.5c1.6,3.8,3.8,7.3,6.5,10.5l56.4-56.4C915,268.9,911.5,266.7,907.6,265z"></path>
<path class="st3" d="M922.3,275.8l-56.4,56.4c2,1.8,4.3,3.3,6.7,4.6l54.3-54.3C925.6,280.1,924,277.9,922.3,275.8z"></path>
<g>
	<g>
		<path class="st2" d="M891.9,332.8c-2.7,0-5.4-0.4-8-1.1c-16.5-4.4-26.3-21.5-21.9-38c3.6-13.5,15.9-23,29.9-23    c2.7,0,5.4,0.4,8,1.1c16.5,4.4,26.3,21.5,21.9,38C918.2,323.4,905.9,332.8,891.9,332.8z"></path>
	</g>
	<g>
		<path class="st1" d="M891.8,273.8c2.4,0,4.8,0.3,7.3,1c14.9,4,23.8,19.4,19.8,34.3c-3.3,12.5-14.7,20.8-27,20.8    c-2.4,0-4.8-0.3-7.3-1c-14.9-4-23.8-19.4-19.8-34.3C868.2,282,879.5,273.8,891.8,273.8 M891.8,267.8v6V267.8L891.8,267.8    c-15.3,0-28.8,10.4-32.8,25.2c-4.8,18.1,5.9,36.8,24,41.6c2.9,0.8,5.8,1.2,8.8,1.2c15.3,0,28.8-10.4,32.8-25.2    c2.3-8.8,1.1-17.9-3.4-25.8s-11.9-13.5-20.7-15.8C897.8,268.2,894.8,267.8,891.8,267.8L891.8,267.8z"></path>
	</g>
</g>
<g>
	<g>
		<circle id="SVGID_1_" class="st2" cx="891.8" cy="301.8" r="28"></circle>
	</g>
	<g>
		<g>
			<defs>
				<circle id="SVGID_00000109728795341900380850000011776032759652014729_" cx="891.8" cy="301.8" r="28"></circle>
			</defs>
			<clipPath id="SVGID_00000178910683276053502410000006840747725320586377_">
				<use xlink:href="#SVGID_00000109728795341900380850000011776032759652014729_" style="overflow:visible;"></use>
			</clipPath>
			<g style="clip-path:url(#SVGID_00000178910683276053502410000006840747725320586377_);">
				
					<rect x="819.3" y="293.6" transform="matrix(0.7071 -0.7071 0.7071 0.7071 48.6283 716.5473)" class="st3" width="140" height="12"></rect>
			</g>
		</g>
	</g>
	<g>
		<g>
			<defs>
				<circle id="SVGID_00000060748735836464178820000013648042082785258919_" cx="891.8" cy="301.8" r="28"></circle>
			</defs>
			<clipPath id="SVGID_00000156563553317301263850000003304534620957680045_">
				<use xlink:href="#SVGID_00000060748735836464178820000013648042082785258919_" style="overflow:visible;"></use>
			</clipPath>
			<g style="clip-path:url(#SVGID_00000156563553317301263850000003304534620957680045_);">
				
					<rect x="830.6" y="306.9" transform="matrix(0.7071 -0.7071 0.7071 0.7071 43.9426 727.855)" class="st3" width="140" height="8"></rect>
			</g>
		</g>
	</g>
</g>
<g>
	<path class="st1" d="M904.4,304.3c-0.3,0-0.5,0-0.8-0.1c-1.6-0.4-2.6-2.1-2.1-3.7c0.1-0.4,0-0.6-0.1-0.8s-0.3-0.4-0.6-0.5   c-0.5-0.1-1.1,0.2-1.2,0.7c-0.4,1.6-2.1,2.5-3.7,2.1c-1.6-0.4-2.6-2.1-2.1-3.7c1-3.7,4.8-6,8.6-5c1.8,0.5,3.3,1.6,4.2,3.3   s1.2,3.5,0.7,5.3C906.9,303.4,905.7,304.3,904.4,304.3z"></path>
</g>
<g>
	<path class="st1" d="M885.1,299.1c-0.3,0-0.5,0-0.8-0.1c-1.6-0.4-2.6-2.1-2.1-3.7c0.1-0.5-0.2-1.1-0.7-1.2   c-0.5-0.1-1.1,0.2-1.2,0.7c-0.4,1.6-2.1,2.5-3.7,2.1c-1.6-0.4-2.6-2.1-2.1-3.7c1-3.7,4.8-6,8.6-5s5.9,4.8,4.9,8.6   C887.6,298.2,886.4,299.1,885.1,299.1z"></path>
</g>
<g>
	<path class="st1" d="M909.4,293.5c-2.5-1-4.4-2.1-7-2.7c-1.7-0.5-5-0.7-4.2-3.5c1-2.5,6.2-2.4,8.5-1.5c2.6,0.8,8.2,5.4,4.5,7.6   C910.6,293.8,910,293.8,909.4,293.5L909.4,293.5z"></path>
</g>
<g>
	<path class="st1" d="M875.9,281c4-2.8,10.6-1.6,13.4,2.4c0.7,1,0.5,2.3-0.5,3c-0.5,0.4-1.1,0.5-1.7,0.4c-2-0.4-3.3-1-5.1-1.3   c-1.8-0.3-3.4-0.4-5.3-0.7C874.9,284.6,874.3,282,875.9,281L875.9,281z"></path>
</g>
<path class="st1" d="M901.4,307.9c-0.5-0.9-1.4-1.6-2.4-1.9l-19.3-5.2c-0.3-0.1-0.7-0.1-1-0.1c-1.8,0-3.4,1.2-3.9,3  c-2,7.5,2.4,15.1,9.9,17.1c1.2,0.3,2.4,0.5,3.6,0.5c6.3,0,11.9-4.3,13.5-10.4C902.1,309.9,901.9,308.8,901.4,307.9z"></path>
<g>
	<path class="st6" d="M885.7,317c2.9,0.8,5.8,0.2,8.1-1.3c-1.2-2.5-3.5-4.4-6.3-5.1c-2.9-0.8-5.8-0.2-8.1,1.3   C880.6,314.3,882.9,316.2,885.7,317z"></path>
</g>
<g>
	<path d="M877,161.7h5.2c2,0,3.6,0.3,4.5,0.9s1.5,1.6,1.5,2.8c0,0.8-0.2,1.6-0.7,2.1s-1,1-1.7,1.1v0.1c0.9,0.2,1.6,0.7,2,1.2   s0.6,1.3,0.6,2.2c0,1.4-0.5,2.4-1.5,3.2c-1,0.8-2.4,1.2-4.2,1.2H877V161.7z M881.1,167.4h1.2c0.6,0,1-0.1,1.3-0.4s0.5-0.6,0.5-1.1   c0-0.8-0.6-1.3-1.9-1.3h-1.1L881.1,167.4L881.1,167.4z M881.1,170.4v3.1h1.4c1.3,0,1.9-0.5,1.9-1.6c0-0.5-0.2-0.9-0.5-1.1   c-0.3-0.3-0.8-0.4-1.5-0.4H881.1z"></path>
	<path d="M903.7,161.7v9c0,2-0.6,3.5-1.7,4.6s-2.7,1.6-4.8,1.6c-2,0-3.6-0.5-4.7-1.6s-1.7-2.6-1.7-4.5v-9.1h4.1v8.8   c0,1.1,0.2,1.8,0.6,2.3s1,0.7,1.8,0.7c0.8,0,1.4-0.2,1.8-0.7c0.4-0.5,0.6-1.2,0.6-2.3v-8.8L903.7,161.7L903.7,161.7z"></path>
	<path d="M919.4,168.8c0,2.5-0.7,4.4-2.1,5.8s-3.3,2-5.8,2h-4.8v-15h5.2c2.4,0,4.3,0.6,5.6,1.9C918.7,164.7,919.4,166.5,919.4,168.8   z M915.2,169c0-1.4-0.3-2.4-0.8-3.1c-0.5-0.7-1.4-1-2.5-1h-1.2v8.4h0.9c1.2,0,2.1-0.4,2.7-1.1S915.2,170.4,915.2,169z"></path>
	<path d="M927.9,167.9h6.5v8.1c-1.8,0.6-3.7,0.9-5.8,0.9c-2.3,0-4.1-0.7-5.4-2s-1.9-3.2-1.9-5.7c0-2.4,0.7-4.3,2.1-5.6s3.3-2,5.8-2   c0.9,0,1.8,0.1,2.7,0.3c0.8,0.2,1.6,0.4,2.2,0.7l-1.3,3.2c-1.1-0.5-2.3-0.8-3.6-0.8c-1.2,0-2.1,0.4-2.7,1.1c-0.7,0.8-1,1.9-1,3.3   c0,1.4,0.3,2.5,0.9,3.2c0.6,0.7,1.4,1.1,2.5,1.1c0.6,0,1.2-0.1,1.7-0.2V171h-2.7L927.9,167.9L927.9,167.9z"></path>
	<path d="M946.1,176.6h-8.9v-15h8.9v3.2h-4.8v2.4h4.5v3.2h-4.5v2.8h4.8V176.6z"></path>
	<path d="M955.1,176.6h-4.1V165h-3.7v-3.3h11.4v3.3h-3.7L955.1,176.6L955.1,176.6z"></path>
</g>
<g>
	<path d="M74,167.9h6.5v8.1c-1.8,0.6-3.7,0.9-5.8,0.9c-2.3,0-4.1-0.7-5.4-2c-1.3-1.3-1.9-3.2-1.9-5.7c0-2.4,0.7-4.3,2.1-5.6   s3.3-2,5.8-2c0.9,0,1.8,0.1,2.7,0.3s1.6,0.4,2.2,0.7l-1.3,3.2c-1.1-0.5-2.3-0.8-3.6-0.8c-1.2,0-2.1,0.4-2.7,1.1   c-0.6,0.8-1,1.9-1,3.3c0,1.4,0.3,2.5,0.9,3.2c0.6,0.7,1.4,1.1,2.5,1.1c0.6,0,1.2-0.1,1.7-0.2V171H74L74,167.9L74,167.9z"></path>
	<path d="M97.3,169.1c0,2.5-0.6,4.4-1.9,5.8s-3,2-5.4,2c-2.4,0-4.1-0.7-5.4-2c-1.2-1.3-1.9-3.2-1.9-5.8c0-2.5,0.6-4.4,1.9-5.7   s3.1-2,5.4-2c2.4,0,4.2,0.6,5.4,2S97.3,166.6,97.3,169.1z M87,169.1c0,2.9,1,4.4,3,4.4c1,0,1.8-0.4,2.3-1.1   c0.5-0.7,0.7-1.8,0.7-3.3c0-1.5-0.2-2.6-0.8-3.3c-0.5-0.7-1.2-1.1-2.2-1.1C88,164.8,87,166.2,87,169.1z"></path>
	<path d="M109,176.6l-0.7-2.8h-4.9l-0.8,2.8h-4.5l4.9-15.1h5.4l5,15.1H109z M107.4,170.5l-0.6-2.5c-0.1-0.6-0.3-1.2-0.5-2.1   c-0.2-0.9-0.4-1.5-0.4-1.9c-0.1,0.4-0.2,0.9-0.4,1.7s-0.6,2.4-1.2,4.7H107.4z"></path>
	<path d="M114.8,176.6v-15h4v11.7h5.8v3.3H114.8z"></path>
	<path d="M136.6,172.1c0,0.9-0.2,1.8-0.7,2.5s-1.1,1.3-2,1.7s-1.9,0.6-3.1,0.6c-1,0-1.8-0.1-2.5-0.2c-0.7-0.1-1.4-0.4-2.1-0.7v-3.6   c0.8,0.4,1.6,0.7,2.4,0.9c0.8,0.2,1.6,0.3,2.3,0.3c0.6,0,1-0.1,1.3-0.3c0.3-0.2,0.4-0.5,0.4-0.8c0-0.2-0.1-0.4-0.2-0.5   c-0.1-0.1-0.3-0.3-0.5-0.5s-0.9-0.5-2-1c-1-0.4-1.7-0.9-2.2-1.3s-0.9-0.9-1.1-1.4c-0.2-0.5-0.4-1.2-0.4-1.9c0-1.4,0.5-2.5,1.5-3.2   s2.4-1.2,4.1-1.2c1.5,0,3.1,0.4,4.8,1.1l-1.2,3.1c-1.4-0.6-2.6-1-3.6-1c-0.5,0-0.9,0.1-1.1,0.3s-0.4,0.4-0.4,0.7   c0,0.3,0.1,0.6,0.5,0.8s1.1,0.7,2.5,1.3c1.3,0.6,2.2,1.2,2.7,1.9C136.4,170.2,136.6,171.1,136.6,172.1z"></path>
</g>
<g>
	<g>
		<path class="st0" d="M371,615c-2.2,0-4-1.8-4-4v-89c0-1.7,1.3-3,3-3h124c1.7,0,3,1.3,3,3v90c0,1.7-1.3,3-3,3H371z"></path>
	</g>
	<g>
		<g>
			<path class="st1" d="M494,522v90H371c-0.5,0-1-0.5-1-1v-89H494 M494,516H370c-3.3,0-6,2.7-6,6v89c0,3.9,3.1,7,7,7h123     c3.3,0,6-2.7,6-6v-90C500,518.7,497.3,516,494,516L494,516z"></path>
		</g>
	</g>
</g>
<g>
	<g>
		<polygon class="st7" points="367.4,519 343.4,483 484.6,483 508.6,519   "></polygon>
	</g>
	<g>
		<g>
			<path class="st1" d="M483,486l20,30H369l-20-30H483 M486.2,480H483H349h-11.2l6.2,9.3l20,30l1.8,2.7h3.2h134h11.2l-6.2-9.3     l-20-30L486.2,480L486.2,480z"></path>
		</g>
	</g>
</g>
<g>
	<g>
		<polygon class="st0" points="491.4,519 515.4,483 656.6,483 632.6,519   "></polygon>
	</g>
	<g>
		<g>
			<path class="st1" d="M651,486l-20,30H497l20-30H651 M662.2,480H651H517h-3.2l-1.8,2.7l-20,30l-6.2,9.3H497h134h3.2l1.8-2.7l20-30     L662.2,480L662.2,480z"></path>
		</g>
	</g>
</g>
<g>
	<g>
		<path class="st7" d="M491,615v-96h142v92c0,2.2-1.8,4-4,4H491z"></path>
	</g>
	<g>
		<path class="st1" d="M630,522v89c0,0.5-0.5,1-1,1H494v-90H630 M636,516h-6H494h-6v6v90v6h6h135c3.9,0,7-3.1,7-7v-89V516L636,516z"></path>
	</g>
</g>
<g>
	<polygon class="st7" points="415,522 415,546 419,542 423,546 427,542 431,546 435,542 439,546 439,522  "></polygon>
</g>
<g>
	<polygon class="st7" points="435,592 431,588 427,592 423,588 419,592 415,588 415,612 439,612 439,588  "></polygon>
</g>
<g>
	<circle class="st8" cx="526" cy="565.5" r="2.5"></circle>
</g>
<g>
	<circle class="st8" cx="531.5" cy="576.5" r="2.5"></circle>
</g>
<g>
	<circle class="st8" cx="520.5" cy="576.5" r="2.5"></circle>
</g>
<g>
	<circle class="st8" cx="604" cy="565.5" r="2.5"></circle>
</g>
<g>
	<circle class="st8" cx="609.5" cy="576.5" r="2.5"></circle>
</g>
<g>
	<circle class="st8" cx="598.5" cy="576.5" r="2.5"></circle>
</g>
<g>
	<path class="st1" d="M584.5,565.4c-0.3,0-0.6-0.1-0.9-0.2c-1.9-1-5.2-1-7.1,0c-1,0.5-2.2,0.2-2.7-0.8c-0.5-1-0.2-2.2,0.8-2.7   c3-1.6,7.8-1.6,10.9,0c1,0.5,1.3,1.7,0.8,2.7C585.9,565,585.2,565.4,584.5,565.4z"></path>
</g>
<g>
	<circle class="st1" cx="580" cy="555.7" r="7"></circle>
</g>
<g>
	<circle class="st9" cx="581.8" cy="555.7" r="1.8"></circle>
</g>
<g>
	<path class="st1" d="M554.5,565.4c-0.3,0-0.6-0.1-0.9-0.2c-1.9-1-5.2-1-7.1,0c-1,0.5-2.2,0.2-2.7-0.8c-0.5-1-0.2-2.2,0.8-2.7   c3-1.6,7.8-1.6,10.9,0c1,0.5,1.3,1.7,0.8,2.7C555.9,565,555.2,565.4,554.5,565.4z"></path>
</g>
<g>
	<circle class="st1" cx="550" cy="555.7" r="7"></circle>
</g>
<g>
	<circle class="st9" cx="551.8" cy="555.7" r="1.8"></circle>
</g>
<path class="st1" d="M579,569h-28c-2.8,0-5,2.2-5,5c0,10.5,8.5,19,19,19c10.4,0,18.9-8.4,19-18.8c0-0.1,0-0.1,0-0.2  C584,571.2,581.8,569,579,569z"></path>
<g>
	<path class="st10" d="M565,588c4.1,0,7.8-1.8,10.4-4.7c-2.6-2.9-6.3-4.7-10.4-4.7s-7.8,1.8-10.4,4.7C557.2,586.2,560.9,588,565,588   z"></path>
</g>
<g>
	<g>
		<path class="st7" d="M150.5,331.6c-1.1,0-2.2-0.6-2.7-1.7l-11.8-25.4c-0.7-1.5,0-3.3,1.5-4l9.1-4.2c0.4-0.2,0.8-0.3,1.3-0.3    c0.4,0,0.7,0.1,1,0.2c0.8,0.3,1.4,0.8,1.7,1.5l11.8,25.4c0.3,0.7,0.4,1.5,0.1,2.3c-0.3,0.8-0.8,1.4-1.5,1.7l-9.1,4.2    C151.3,331.5,150.9,331.6,150.5,331.6z"></path>
	</g>
	<g>
		<g>
			<path class="st1" d="M147.7,299l11.8,25.4l-9.1,4.2l-11.8-25.4L147.7,299 M147.7,293c-0.9,0-1.7,0.2-2.5,0.6l-9.1,4.2     c-3,1.4-4.3,5-2.9,8l11.8,25.4c0.7,1.4,1.9,2.6,3.4,3.1c0.7,0.2,1.4,0.4,2,0.4c0.9,0,1.7-0.2,2.5-0.6l9.1-4.2c3-1.4,4.3-5,2.9-8     l-11.8-25.4c-0.7-1.4-1.9-2.6-3.4-3.1C149.1,293.1,148.4,293,147.7,293L147.7,293z"></path>
		</g>
	</g>
</g>
<g>
	<rect x="138.6" y="297" transform="matrix(0.9063 -0.4226 0.4226 0.9063 -114.1805 88.9684)" class="st0" width="10" height="10"></rect>
</g>
<g>
	<g>
		<path class="st11" d="M138.5,376.9c-0.4,0-0.7-0.1-1-0.2c-0.8-0.3-1.4-0.8-1.7-1.5l-16.9-36.2c-0.7-1.5,0-3.3,1.5-4l63.4-29.6    c0.4-0.2,0.8-0.3,1.3-0.3c1.1,0,2.2,0.6,2.7,1.7l16.9,36.2c0.3,0.7,0.4,1.5,0.1,2.3c-0.3,0.8-0.8,1.4-1.5,1.7l-63.4,29.6    C139.4,376.8,138.9,376.9,138.5,376.9z"></path>
	</g>
	<g>
		<g>
			<path class="st1" d="M185,308.1l16.9,36.2l-63.4,29.6l-16.9-36.2L185,308.1 M185,302.1c-0.9,0-1.7,0.2-2.5,0.6L119,332.2     c-3,1.4-4.3,5-2.9,8l16.9,36.2c1,2.2,3.2,3.5,5.4,3.5c0.9,0,1.7-0.2,2.5-0.6l63.4-29.6c3-1.4,4.3-5,2.9-8l-16.9-36.2     c-0.7-1.4-1.9-2.6-3.4-3.1C186.4,302.2,185.7,302.1,185,302.1L185,302.1z"></path>
		</g>
	</g>
</g>
<g>
	<g>
		<path class="st7" d="M142.9,363.9c-0.2,0-0.5,0-0.7-0.1c-0.5-0.2-0.9-0.5-1.1-1l-9.3-19.9c-0.2-0.5-0.2-1-0.1-1.5s0.5-0.9,1-1.1    l47.1-22c0.3-0.1,0.6-0.2,0.8-0.2c0.8,0,1.5,0.4,1.8,1.1l9.3,19.9c0.2,0.5,0.2,1,0.1,1.5s-0.5,0.9-1,1.1l-47.1,22    C143.4,363.9,143.1,363.9,142.9,363.9z"></path>
	</g>
	<g>
		<g>
			<path class="st1" d="M180.7,320L190,340l-47.1,22l-9.3-19.9L180.7,320 M180.7,316c-0.6,0-1.2,0.1-1.7,0.4l-47.1,22     c-2,0.9-2.9,3.3-1.9,5.3l9.3,19.9c0.7,1.5,2.1,2.3,3.6,2.3c0.6,0,1.1-0.1,1.7-0.4l47.1-22c2-0.9,2.9-3.3,1.9-5.3l-9.3-19.9     c-0.5-1-1.3-1.7-2.3-2.1C181.6,316.1,181.1,316,180.7,316L180.7,316z"></path>
		</g>
	</g>
</g>
<g>
	<g>
		<path class="st7" d="M65.6,299.6c-8.9,0-17.1-5.2-20.9-13.3l-10.6-22.7c-0.7-1.5,0-3.3,1.5-4L62.8,247c0.4-0.2,0.8-0.3,1.3-0.3    c1.1,0,2.2,0.6,2.7,1.7l2.5,5.4c0.3,0.7,0.4,1.6,0.1,2.3c-0.3,0.8-0.8,1.4-1.5,1.7l-19,8.9l6.3,13.6c2,4.2,6.2,6.9,10.9,6.9    c1.8,0,3.5-0.4,5.1-1.1l8.2-3.8c0.4-0.2,0.8-0.3,1.3-0.3c0.4,0,0.7,0.1,1,0.2c0.8,0.3,1.4,0.8,1.7,1.5l2.5,5.4    c0.7,1.5,0,3.3-1.5,4l-9.1,4.2C72.2,298.9,68.9,299.6,65.6,299.6z"></path>
	</g>
	<g>
		<path class="st1" d="M64,249.7l2.5,5.4l-21.8,10.1l7.6,16.3c2.5,5.5,8,8.7,13.6,8.7c2.1,0,4.3-0.5,6.3-1.4l8.2-3.8l2.5,5.4    l-9.1,4.2c-2.7,1.3-5.6,1.9-8.4,1.9c-7.5,0-14.8-4.3-18.1-11.5l-10.6-22.7L64,249.7 M64,243.7c-0.9,0-1.7,0.2-2.5,0.6L34.3,257    c-1.4,0.7-2.6,1.9-3.1,3.4s-0.5,3.1,0.2,4.6L42,287.6c4.2,9.1,13.5,15,23.6,15c3.8,0,7.5-0.8,11-2.4l9.1-4.2    c1.4-0.7,2.6-1.9,3.1-3.4s0.5-3.1-0.2-4.6l-2.5-5.4c-1-2.2-3.2-3.5-5.4-3.5c-0.9,0-1.7,0.2-2.5,0.6l-8.2,3.8    c-1.2,0.6-2.5,0.9-3.8,0.9c-3.5,0-6.7-2-8.2-5.2l-5.1-10.9l16.3-7.6c3-1.4,4.3-5,2.9-8l-2.5-5.4C68.5,245,66.3,243.7,64,243.7    L64,243.7z"></path>
	</g>
</g>
<g>
	<g>
		<path class="st7" d="M173.7,251.2c-0.4,0-0.7-0.1-1-0.2c-0.8-0.3-1.4-0.8-1.7-1.6l-2.5-5.4c-0.7-1.5,0-3.3,1.5-4l8.2-3.8    c2.9-1.4,5.1-3.8,6.2-6.8s1-6.3-0.4-9.2l-6.3-13.6l-19,8.9c-0.4,0.2-0.8,0.3-1.3,0.3c-0.4,0-0.7-0.1-1-0.2    c-0.8-0.3-1.4-0.8-1.7-1.6l-2.5-5.4c-0.7-1.5,0-3.3,1.5-4l27.2-12.7c0.4-0.2,0.8-0.3,1.3-0.3c0.4,0,0.7,0.1,1,0.2    c0.8,0.3,1.4,0.8,1.7,1.6l10.6,22.7c5.4,11.5,0.4,25.2-11.1,30.6L175,251C174.6,251.2,174.1,251.2,173.7,251.2z"></path>
	</g>
	<g>
		<path class="st1" d="M181.9,194.8l10.6,22.7c4.7,10,0.3,21.9-9.7,26.6l-9.1,4.2l-2.5-5.4l8.2-3.8c7.5-3.5,10.8-12.4,7.3-19.9    l-7.6-16.3l-21.8,10.1l-2.5-5.4L181.9,194.8 M181.9,188.8c-0.9,0-1.7,0.2-2.5,0.6L152.1,202c-1.4,0.7-2.6,1.9-3.1,3.4    s-0.5,3.1,0.2,4.6l2.5,5.4c0.7,1.4,1.9,2.6,3.4,3.1c0.7,0.2,1.4,0.4,2,0.4c0.9,0,1.7-0.2,2.5-0.6l16.3-7.6l5.1,10.9    c1,2.2,1.1,4.6,0.3,6.9s-2.5,4.1-4.6,5.1l-8.2,3.8c-3,1.4-4.3,5-2.9,8l2.5,5.4c0.7,1.4,1.9,2.6,3.4,3.1c0.7,0.2,1.4,0.4,2,0.4    c0.9,0,1.7-0.2,2.5-0.6l9.1-4.2c13-6.1,18.6-21.6,12.6-34.6l-10.6-22.7C186.3,190.1,184.1,188.8,181.9,188.8L181.9,188.8z"></path>
	</g>
</g>
<g>
	<path class="st0" d="M179.3,239l-8.2,3.8l2.5,5.4l8.2-3.8c-0.1-2.1-0.5-4.2-0.9-6.3C180.5,238.4,179.9,238.7,179.3,239z"></path>
</g>
<g>
	<rect x="155.4" y="204.7" transform="matrix(0.9063 -0.4226 0.4226 0.9063 -72.641 87.6491)" class="st0" width="12" height="6"></rect>
</g>
<g>
	<path class="st0" d="M80.5,285.1l-8.2,3.8c-0.6,0.3-1.2,0.5-1.8,0.7c1.3,1.7,2.7,3.3,4.3,4.8l8.2-3.8L80.5,285.1z"></path>
</g>
<g>
	<rect x="53.9" y="252" transform="matrix(0.9063 -0.4226 0.4226 0.9063 -102.1522 49.1849)" class="st0" width="12" height="6"></rect>
</g>
<g>
	<g>
		<path class="st7" d="M119.5,303.4c-20.5,0-39.4-12-48.1-30.6l-16.9-36.2c-0.7-1.5,0-3.3,1.5-4l90.6-42.3c0.4-0.2,0.8-0.3,1.3-0.3    c1.1,0,2.2,0.6,2.7,1.7l16.9,36.2c6,12.8,6.6,27.2,1.8,40.5c-4.8,13.3-14.6,23.9-27.4,29.9C134.8,301.7,127.3,303.4,119.5,303.4z"></path>
	</g>
	<g>
		<path class="st1" d="M147.9,193l16.9,36.2c11.7,25,0.8,54.8-24.2,66.4l0,0c-6.8,3.2-14,4.7-21.1,4.7c-18.8,0-36.9-10.7-45.4-28.9    l-16.9-36.2L147.9,193 M147.9,187c-0.9,0-1.7,0.2-2.5,0.6l-90.6,42.3c-3,1.4-4.3,5-2.9,8L68.7,274c9.2,19.6,29.1,32.4,50.8,32.4    c8.2,0,16.1-1.8,23.6-5.3c28-13,40.1-46.4,27.1-74.4l-16.9-36.2c-0.7-1.4-1.9-2.6-3.4-3.1C149.3,187.1,148.6,187,147.9,187    L147.9,187z"></path>
	</g>
</g>
<g>
	<path class="st1" d="M148.6,343.2l1,7.5l-1.4,0.6l-3.1-3.5c0,0-0.1-0.1-0.2-0.2c-0.1-0.1-0.1-0.1-0.2-0.2c0,0.1,0,0.2,0,0.3   s0,0.2,0,0.2l0.6,4.7l-1.4,0.6l-5.1-5.6l1.3-0.6c0.1-0.1,0.3-0.1,0.4-0.1s0.2,0.1,0.3,0.2l2.5,3c0.1,0.1,0.2,0.2,0.2,0.3   s0.2,0.2,0.3,0.4c-0.1-0.3-0.1-0.6-0.1-0.9l-0.5-3.9c0-0.1,0-0.2,0.1-0.3s0.1-0.2,0.3-0.2l0.5-0.2c0.1-0.1,0.2-0.1,0.4-0.1   c0.1,0,0.2,0.1,0.3,0.1l2.7,3c0.2,0.2,0.4,0.4,0.5,0.6c0-0.1-0.1-0.3-0.1-0.4s-0.1-0.3-0.1-0.4l-0.7-3.9c0-0.1,0-0.2,0.1-0.3   c0.1-0.1,0.1-0.2,0.3-0.2L148.6,343.2z"></path>
	<path class="st1" d="M153.9,348.8l-1.5,0.7l-3.1-6.6l1.5-0.7L153.9,348.8z"></path>
	<path class="st1" d="M157.9,338.9l3.1,6.6l-0.8,0.4c-0.1,0-0.2,0.1-0.3,0.1c-0.1,0-0.2,0-0.3-0.1l-5-2.5c0.1,0.1,0.1,0.2,0.2,0.3   c0.1,0.1,0.1,0.2,0.1,0.3l1.6,3.5l-1.4,0.6l-3.1-6.6l0.8-0.4c0.1,0,0.1,0,0.2-0.1c0,0,0.1,0,0.1,0c0,0,0.1,0,0.1,0   c0,0,0.1,0,0.2,0.1l5,2.5c-0.1-0.1-0.1-0.2-0.2-0.4c-0.1-0.1-0.1-0.2-0.2-0.3l-1.6-3.5L157.9,338.9z"></path>
	<path class="st1" d="M166.6,337l0.2,0.6c0,0.1,0,0.3,0,0.4c-0.1,0.1-0.2,0.2-0.4,0.3l-0.3,0.1l0.3,1.2l0.5-0.2   c0.1-0.1,0.3-0.1,0.4,0c0.1,0.1,0.2,0.2,0.2,0.4l0.1,0.5l-0.9,0.4l0.5,1.9l-0.6,0.3c-0.1,0-0.1,0-0.2,0s-0.1,0-0.2-0.1   c-0.1,0-0.1-0.1-0.2-0.1c0-0.1-0.1-0.1-0.1-0.2l-0.4-1.3l-0.8,0.4l0.4,1.4c0,0.1,0,0.2,0,0.3c0,0.1,0,0.1-0.1,0.2   c0,0.1-0.1,0.1-0.1,0.2c-0.1,0-0.1,0.1-0.2,0.1l-0.6,0.3l-0.5-1.9l-0.4,0.2c-0.1,0.1-0.3,0.1-0.4,0c-0.1,0-0.2-0.2-0.2-0.4   l-0.1-0.5l0.8-0.4l-0.3-1.2l-0.9,0.4l-0.2-0.6c0-0.1,0-0.3,0-0.4c0.1-0.1,0.2-0.2,0.4-0.3l0.3-0.1l-0.4-1.4c0-0.1,0-0.3,0-0.4   c0.1-0.1,0.2-0.2,0.3-0.3l0.6-0.3l0.5,1.9l0.8-0.4l-0.5-1.9l0.6-0.3c0.1,0,0.1,0,0.2,0c0.1,0,0.1,0,0.2,0s0.1,0.1,0.2,0.1   s0.1,0.1,0.1,0.2l0.4,1.4L166.6,337z M164.9,338.9l-0.8,0.4l0.3,1.2l0.8-0.4L164.9,338.9z"></path>
	<path class="st1" d="M170.6,338c0-0.1,0-0.1,0-0.2c0-0.1,0-0.1,0-0.2c-0.2,0.3-0.5,0.5-0.8,0.7c-0.2,0.1-0.5,0.2-0.7,0.2   s-0.5,0-0.8-0.1s-0.5-0.2-0.7-0.4s-0.4-0.5-0.6-0.8c-0.1-0.3-0.2-0.6-0.2-0.9c0-0.3,0-0.6,0.1-0.9c0.1-0.3,0.3-0.6,0.5-0.8   c0.2-0.2,0.5-0.5,0.9-0.6c0.4-0.2,0.7-0.3,1-0.3s0.6,0,0.9,0.1c0.3,0.1,0.5,0.3,0.8,0.5s0.4,0.5,0.6,0.8c0.2,0.4,0.3,0.9,0.4,1.2   s0,0.8-0.1,1.2l-0.5,2.7c0,0.1-0.1,0.2-0.2,0.4c-0.1,0.1-0.2,0.2-0.4,0.3l-1.3,0.6L170.6,338z M168.5,336.4   c0.3,0.7,0.8,0.9,1.4,0.6c0.3-0.1,0.5-0.3,0.6-0.6c0.1-0.2,0-0.5-0.1-0.8c-0.1-0.2-0.2-0.3-0.3-0.4c-0.1-0.1-0.2-0.2-0.3-0.2   c-0.1,0-0.2-0.1-0.4,0s-0.3,0-0.4,0.1c-0.1,0.1-0.3,0.1-0.3,0.2c-0.1,0.1-0.1,0.2-0.2,0.3s0,0.2,0,0.4   C168.4,336.1,168.4,336.2,168.5,336.4z"></path>
	<path class="st1" d="M172.4,334.4c-0.1-0.4-0.1-0.7-0.1-1c0-0.3,0.1-0.6,0.2-0.9s0.3-0.5,0.5-0.7s0.5-0.4,0.8-0.5   c0.3-0.1,0.6-0.2,0.9-0.3s0.6,0,0.8,0.1s0.5,0.2,0.6,0.4c0.2,0.2,0.3,0.4,0.4,0.6c0.1,0.2,0.2,0.4,0.2,0.6s0,0.4,0,0.5   c0,0.2-0.1,0.3-0.2,0.4c-0.1,0.1-0.2,0.3-0.3,0.4c0.9-0.1,1.5,0.2,1.8,1c0.2,0.4,0.2,0.7,0.2,1c0,0.3-0.1,0.6-0.2,0.9   c-0.1,0.3-0.3,0.5-0.6,0.7c-0.2,0.2-0.5,0.4-0.8,0.5c-0.3,0.1-0.6,0.2-0.9,0.3c-0.3,0-0.5,0-0.8,0c-0.3-0.1-0.5-0.2-0.8-0.3   s-0.5-0.4-0.8-0.6l0.5-0.5c0.1-0.1,0.3-0.2,0.4-0.3s0.3,0,0.4,0.1c0.2,0.2,0.5,0.3,0.7,0.4c0.2,0,0.4,0,0.6-0.1   c0.2-0.1,0.3-0.2,0.4-0.3s0.2-0.2,0.2-0.3s0-0.2,0-0.4c0-0.1,0-0.2-0.1-0.4c-0.1-0.1-0.1-0.3-0.2-0.4c-0.1-0.1-0.2-0.2-0.3-0.2   c-0.1,0-0.3,0-0.5,0c-0.2,0-0.5,0.1-0.8,0.3l-0.5-1c0.3-0.1,0.5-0.2,0.6-0.4c0.1-0.1,0.2-0.2,0.3-0.4s0.1-0.2,0.1-0.4   c0-0.1-0.1-0.2-0.1-0.4c-0.1-0.3-0.3-0.4-0.5-0.5c-0.2-0.1-0.4-0.1-0.7,0.1c-0.2,0.1-0.4,0.2-0.5,0.4c-0.1,0.2-0.1,0.4-0.1,0.5   c0,0.2,0,0.3-0.1,0.5s-0.2,0.2-0.4,0.2L172.4,334.4z"></path>
	<path class="st1" d="M181.4,327.9l0.3,0.6c0.1,0.2,0.1,0.3,0.1,0.5c0,0.1,0,0.2,0,0.3l0,5.9c0,0.2,0,0.3-0.1,0.5   c-0.1,0.1-0.2,0.3-0.4,0.4l-1,0.5l0.1-5.8c0-0.2,0-0.3,0-0.5s0.1-0.3,0.1-0.4l-2.9,1.4c0,0-0.1,0-0.1,0c0,0-0.1,0-0.1,0   c0,0-0.1,0-0.1-0.1s-0.1-0.1-0.1-0.1l-0.4-0.9L181.4,327.9z"></path>
</g>
<g>
	<path class="st0" d="M138.5,291.1c-25,11.7-54.8,0.8-66.4-24.2l2.1,4.5c11.7,25,41.4,35.9,66.5,24.2c25-11.7,35.9-41.4,24.2-66.4   l-2.1-4.5C174.4,249.7,163.5,279.5,138.5,291.1z"></path>
</g>
<g>
	<rect x="53.4" y="213.9" transform="matrix(0.9063 -0.4226 0.4226 0.9063 -81.5571 63.941)" class="st12" width="100" height="4"></rect>
</g>
<path class="st1" d="M140.9,253.6c-0.5-1-1.3-1.7-2.3-2.1c-0.4-0.2-0.9-0.2-1.4-0.2c-0.6,0-1.2,0.1-1.7,0.4l-25.4,11.8  c-2,0.9-2.9,3.3-1.9,5.3c2.9,6.3,9.4,10.4,16.3,10.4c2.6,0,5.2-0.6,7.6-1.7C141.2,273.3,145.1,262.6,140.9,253.6z"></path>
<g>
	<path class="st10" d="M130.5,273.9c3.8-1.8,6.4-5,7.5-8.6c-3.5-1.5-7.7-1.6-11.4,0.2s-6.4,5-7.5,8.6   C122.6,275.6,126.7,275.7,130.5,273.9z"></path>
</g>
<g>
	<path class="st1" d="M129.9,249.7c-0.4,0-0.8-0.1-1.2-0.4c-0.9-0.7-1.1-1.9-0.4-2.8c2.1-2.8,6.4-4.8,9.9-4.6c1.1,0.1,2,1,1.9,2.1   c-0.1,1.1-1,1.9-2.1,1.9c-2.1-0.1-5.2,1.3-6.4,3C131.1,249.4,130.5,249.7,129.9,249.7z"></path>
</g>
<g>
	<circle class="st1" cx="130.7" cy="238.8" r="7"></circle>
</g>
<g>
	<circle class="st9" cx="132.2" cy="238" r="1.8"></circle>
</g>
<g>
	<path class="st1" d="M119.8,227.3c1.7-4,6.3-6.7,10.6-5.8c2.2,0.4,5.9,2.3,4,4.8c-0.5,0.6-1.2,0.7-1.9,0.7   c-3.1-0.2-5.6,0.5-8.2,2.1c-0.6,0.4-1.3,0.7-2,0.9C120.7,230.5,119.1,228.8,119.8,227.3L119.8,227.3z"></path>
</g>
<g>
	<path class="st1" d="M102.7,262.4c-0.4,0-0.8-0.1-1.2-0.4c-0.9-0.7-1.1-1.9-0.4-2.8c2.1-2.8,6.4-4.8,9.9-4.6c1.1,0.1,2,1,1.9,2.1   c-0.1,1.1-1,1.9-2.1,1.9c-2.1-0.1-5.2,1.3-6.4,3C103.9,262.1,103.3,262.4,102.7,262.4z"></path>
</g>
<g>
	<circle class="st1" cx="103.5" cy="251.4" r="7"></circle>
</g>
<g>
	<circle class="st9" cx="105" cy="250.7" r="1.8"></circle>
</g>
<g>
	<path class="st1" d="M101.4,239.7c-1.5,0.7-3.4,1.3-4.7,2.2c-1.5,0.9-2.2,1.9-3.4,3.3c-0.7,1.1-2.2,1.4-3.2,0.5   c-0.4-0.4-0.6-0.9-0.7-1.4c0-1.4,0.2-2.9,1-4.2c1.8-3.3,5.6-5,9.2-4.8c1.6,0.1,4,0.6,3.4,2.8C102.8,239,102,239.4,101.4,239.7   L101.4,239.7z"></path>
</g>
<g>
	<g>
		<path class="st9" d="M302,275.1c-3.9,0-7-3.1-7-7v-116c0-3.9,3.1-7,7-7h82c3.9,0,7,3.1,7,7v116c0,3.9-3.1,7-7,7H302z"></path>
	</g>
	<g>
		<path class="st1" d="M384,148.1c2.2,0,4,1.8,4,4v116c0,2.2-1.8,4-4,4h-82c-2.2,0-4-1.8-4-4v-116c0-2.2,1.8-4,4-4H384 M384,142.1    h-82c-5.5,0-10,4.5-10,10v116c0,5.5,4.5,10,10,10h82c5.5,0,10-4.5,10-10v-116C394,146.6,389.5,142.1,384,142.1L384,142.1z"></path>
	</g>
</g>
<g>
	<path class="st13" d="M388,217.5l-53.8,9.5l-18.6-64.8c-0.4-1.5-1.5-2.8-2.9-3.6l-14.5-8c-0.2,0.5-0.3,1-0.3,1.6v116   c0,2.2,1.8,4,4,4h36.1c4.5-2,7-7,5.6-11.9l-7.9-27.4l52.1-9.2L388,217.5L388,217.5z"></path>
</g>
<g>
	<path class="st1" d="M375,245.1h-15c-1.1,0-2-0.9-2-2s0.9-2,2-2h15c1.1,0,2,0.9,2,2S376.1,245.1,375,245.1z"></path>
</g>
<g>
	<path class="st1" d="M371,253.1h-11c-1.1,0-2-0.9-2-2s0.9-2,2-2h11c1.1,0,2,0.9,2,2S372.1,253.1,371,253.1z"></path>
</g>
<g>
	<path class="st1" d="M367,261.1h-7c-1.1,0-2-0.9-2-2s0.9-2,2-2h7c1.1,0,2,0.9,2,2S368.1,261.1,367,261.1z"></path>
</g>
<g>
	<path class="st14" d="M356,243.1c0,1.4-1.1,2.5-2.5,2.5s-2.5-1.1-2.5-2.5s1.1-2.5,2.5-2.5S356,241.7,356,243.1z"></path>
</g>
<g>
	<circle class="st15" cx="353.5" cy="251.1" r="2.5"></circle>
</g>
<g>
	<circle class="st16" cx="353.5" cy="259.1" r="2.5"></circle>
</g>
<g>
	<path class="st1" d="M332,249.1h-26c-1.1,0-2-0.9-2-2s0.9-2,2-2h26c1.1,0,2,0.9,2,2S333.1,249.1,332,249.1z"></path>
</g>
<g>
	<path class="st1" d="M342,241.1h-36c-1.1,0-2-0.9-2-2s0.9-2,2-2h36c1.1,0,2,0.9,2,2S343.1,241.1,342,241.1z"></path>
</g>
<g>
	<path class="st1" d="M330,229.1h-24c-1.1,0-2-0.9-2-2s0.9-2,2-2h24c1.1,0,2,0.9,2,2S331.1,229.1,330,229.1z"></path>
</g>
<g>
	<path class="st1" d="M336,221.1h-30c-1.1,0-2-0.9-2-2s0.9-2,2-2h30c1.1,0,2,0.9,2,2S337.1,221.1,336,221.1z"></path>
</g>
<g>
	<path class="st1" d="M342,213.1h-36c-1.1,0-2-0.9-2-2s0.9-2,2-2h36c1.1,0,2,0.9,2,2S343.1,213.1,342,213.1z"></path>
</g>
<g>
	<path class="st1" d="M326,257.1h-20c-1.1,0-2-0.9-2-2s0.9-2,2-2h20c1.1,0,2,0.9,2,2S327.1,257.1,326,257.1z"></path>
</g>
<g>
	<path class="st1" d="M356.5,182c-0.2,0-0.3,0-0.5-0.1c-1.6-0.6-4.4-0.6-6,0c-0.8,0.3-1.6-0.1-1.9-0.9c-0.3-0.8,0.2-1.6,0.9-1.9   c2.2-0.8,5.7-0.8,8,0c0.8,0.3,1.2,1.1,0.9,1.9C357.7,181.6,357.1,182,356.5,182z"></path>
</g>
<g>
	<circle class="st1" cx="353" cy="173.8" r="6"></circle>
</g>
<g>
	<circle class="st9" cx="354.5" cy="173.8" r="1.5"></circle>
</g>
<g>
	<path class="st1" d="M336.5,182c-0.2,0-0.3,0-0.5-0.1c-1.6-0.6-4.4-0.6-6,0c-0.8,0.3-1.6-0.1-1.9-0.9c-0.3-0.8,0.2-1.6,0.9-1.9   c2.2-0.8,5.7-0.8,8,0c0.8,0.3,1.2,1.1,0.9,1.9C337.7,181.6,337.1,182,336.5,182z"></path>
</g>
<g>
	<circle class="st1" cx="333" cy="173.8" r="6"></circle>
</g>
<g>
	<circle class="st9" cx="334.5" cy="173.8" r="1.5"></circle>
</g>
<g>
	<path class="st1" d="M348.2,161.4c2.6-1.9,6-2.3,9-1.1c1.6,0.6,4.2,2.7,2.3,4.4c-1,0.8-2.6,0.1-3.7,0.1c-1.1-0.1-2.9-0.2-4.1-0.2   c-0.9,0-1.8,0-2.7-0.1C347.5,164.3,347,162.2,348.2,161.4L348.2,161.4z"></path>
</g>
<g>
	<path class="st1" d="M336.5,164.5c-1.3,0.1-3.1,0.1-4.4,0.1c-1.5,0.1-2.9,0.3-4.5,0.4c-1,0.1-1.8-0.6-1.8-1.6   c0-0.4,0.1-0.9,0.4-1.2c2-2.6,5.8-3.1,8.8-2.3c1,0.3,1.8,0.7,2.8,1.4C339.1,162.5,338.2,164.5,336.5,164.5L336.5,164.5z"></path>
</g>
<path class="st1" d="M355,184.1h-24c-2.2,0-4,1.8-4,4c0,8.8,7.2,16,16,16c8.8,0,15.9-7.1,16-15.8c0-0.1,0-0.1,0-0.2  C359,185.9,357.2,184.1,355,184.1z"></path>
<g>
	<path class="st10" d="M343,200.1c3.5,0,6.7-1.6,8.9-4c-2.2-2.4-5.4-4-8.9-4s-6.7,1.6-8.9,4C336.2,198.6,339.4,200.1,343,200.1z"></path>
</g>
<g>
	<rect x="357" y="218.1" class="st14" width="6" height="14"></rect>
</g>
<g>
	<rect x="365" y="222.1" class="st15" width="6" height="10"></rect>
</g>
<g>
	<rect x="373" y="214.1" class="st16" width="6" height="18"></rect>
</g>
<g>
	<path class="st1" d="M353,226.6h-4c-0.8,0-1.5-0.7-1.5-1.5s0.7-1.5,1.5-1.5h4c0.8,0,1.5,0.7,1.5,1.5S353.8,226.6,353,226.6z"></path>
</g>
<g>
	<path class="st1" d="M353,218.6h-4c-0.8,0-1.5-0.7-1.5-1.5s0.7-1.5,1.5-1.5h4c0.8,0,1.5,0.7,1.5,1.5S353.8,218.6,353,218.6z"></path>
</g>
<g>
	<path class="st1" d="M376,237.6c-0.8,0-1.5-0.7-1.5-1.5v-4c0-0.8,0.7-1.5,1.5-1.5s1.5,0.7,1.5,1.5v4   C377.5,236.9,376.8,237.6,376,237.6z"></path>
</g>
<g>
	<path class="st1" d="M368,237.6c-0.8,0-1.5-0.7-1.5-1.5v-4c0-0.8,0.7-1.5,1.5-1.5s1.5,0.7,1.5,1.5v4   C369.5,236.9,368.8,237.6,368,237.6z"></path>
</g>
<g>
	<path class="st1" d="M360,237.6c-0.8,0-1.5-0.7-1.5-1.5v-4c0-0.8,0.7-1.5,1.5-1.5s1.5,0.7,1.5,1.5v4   C361.5,236.9,360.8,237.6,360,237.6z"></path>
</g>
<g>
	<path class="st1" d="M380,234.1h-27c-1.1,0-2-0.9-2-2v-21c0-1.1,0.9-2,2-2s2,0.9,2,2v19h25c1.1,0,2,0.9,2,2S381.1,234.1,380,234.1z   "></path>
</g>
<g>
	<g>
		<path class="st17" d="M372.5,166.1c-5,0-9-4-9-9v-2.5c0-1.4,0.9-2.6,2.3-2.9c0.3-0.1,0.5-0.1,0.7-0.1c1.7,0,3,1.4,3,3v2.5    c0,1.6,1.3,3,3,3s3-1.4,3-3v-16c0-1.6-1.3-3-3-3s-3,1.4-3,3v2.5h-6v-2.5c0-5,4-9,9-9s9,4,9,9v16    C381.5,162.1,377.4,166.1,372.5,166.1z"></path>
	</g>
	<g>
		<path class="st18" d="M372.5,133.6c4.1,0,7.5,3.4,7.5,7.5v16c0,4.1-3.4,7.5-7.5,7.5s-7.5-3.4-7.5-7.5v-2.5c0-0.7,0.5-1.3,1.1-1.4    c0.1,0,0.2-0.1,0.4-0.1c0.8,0,1.5,0.7,1.5,1.5v2.5c0,2.5,2,4.5,4.5,4.5s4.5-2,4.5-4.5v-16c0-2.5-2-4.5-4.5-4.5s-4.5,2-4.5,4.5v1    h-3v-1C365,137,368.3,133.6,372.5,133.6 M372.5,130.6c-5.8,0-10.5,4.7-10.5,10.5v1v3h3h3h3v-3v-1c0-0.8,0.7-1.5,1.5-1.5    s1.5,0.7,1.5,1.5v16c0,0.8-0.7,1.5-1.5,1.5s-1.5-0.7-1.5-1.5v-2.5c0-2.5-2-4.5-4.5-4.5c-0.4,0-0.7,0.1-1.1,0.1    c-2,0.5-3.4,2.3-3.4,4.4v2.5c0,5.8,4.7,10.5,10.5,10.5s10.5-4.7,10.5-10.5v-16C383,135.3,378.2,130.6,372.5,130.6L372.5,130.6z"></path>
	</g>
</g>
<g>
	<g>
		<path class="st9" d="M249.4,293.6c-3.1,0-5.9-2.1-6.7-5.1l-32-111.5c-0.5-1.8-0.3-3.7,0.6-5.3c0.9-1.6,2.4-2.8,4.2-3.3l65.4-18.7    c0.3-0.1,0.5-0.1,0.8-0.1c0.5,0,1,0.1,1.5,0.4l22.3,12.3c0.7,0.4,1.2,1,1.4,1.8l28.1,98.1c0.5,1.8,0.3,3.7-0.6,5.3    c-0.9,1.6-2.4,2.8-4.2,3.3l-78.8,22.6C250.7,293.5,250,293.6,249.4,293.6z"></path>
	</g>
	<g>
		<path class="st1" d="M281.7,152.5l22.3,12.3l28.1,98c0.6,2.1-0.6,4.3-2.7,5l-78.8,22.6c-0.4,0.1-0.7,0.2-1.1,0.2    c-1.7,0-3.3-1.1-3.8-2.9l-32-111.5c-0.6-2.1,0.6-4.3,2.7-4.9L281.7,152.5 M281.7,146.5c-0.5,0-1.1,0.1-1.7,0.2l-65.4,18.7    c-5.3,1.5-8.4,7.1-6.9,12.4l32,111.5c1.2,4.3,5.2,7.2,9.6,7.2c0.9,0,1.9-0.1,2.8-0.4l78.8-22.6c2.6-0.7,4.7-2.4,6-4.8    c1.3-2.3,1.6-5,0.9-7.6l-28.1-98.1c-0.4-1.5-1.5-2.8-2.9-3.6l-22.3-12.3C283.7,146.8,282.7,146.5,281.7,146.5L281.7,146.5z"></path>
	</g>
</g>
<g>
	<polygon class="st13" points="233.2,244.8 234.9,250.6 324,234.9 322.3,229.1  "></polygon>
</g>
<g>
	<polygon class="st19" points="247.3,253.9 248.5,225.5 255.1,226.7 259.2,219.3 266.1,221.5 270.5,215 279,244.8  "></polygon>
</g>
<g>
	<path class="st20" d="M247.3,255.9C247.2,255.9,247.2,255.9,247.3,255.9c-1.2-0.1-2-1-2-2.1l1.2-28.4c0-0.6,0.3-1.1,0.8-1.5   s1-0.5,1.6-0.4l5.2,1l3.4-6.2c0.5-0.8,1.5-1.2,2.4-0.9l5.5,1.7l3.5-5.2c0.6-0.9,1.9-1.1,2.8-0.5c0.9,0.6,1.1,1.9,0.5,2.8l-4.4,6.5   c-0.5,0.7-1.4,1.1-2.3,0.8l-5.3-1.7l-3.3,6c-0.4,0.8-1.3,1.2-2.1,1l-4.3-0.8l-1.1,26.1C249.2,255.1,248.3,255.9,247.3,255.9z"></path>
</g>
<g>
	<polygon class="st21" points="247.3,253.9 253.8,233.3 258.5,235.1 263.6,227.4 269.5,229.9 272.9,223.7 279,244.8  "></polygon>
</g>
<g>
	<g>
		<path class="st13" d="M289.1,172c-2.9,0-5.5-2-6.3-4.8l-4-13.8c-0.3-1.2,0.1-2.4,1-3.2c0.5-0.4,1.2-0.6,1.9-0.6    c0.5,0,1,0.1,1.5,0.4l22.3,12.3c1.1,0.6,1.7,1.8,1.5,3c-0.1,1.2-1,2.2-2.2,2.5l-13.8,4C290.3,171.9,289.7,172,289.1,172L289.1,172    z"></path>
	</g>
	<g>
		<path class="st1" d="M281.7,152.5l22.3,12.3l-13.8,4c-0.3,0.1-0.7,0.1-1,0.1c-1.6,0-3-1-3.5-2.6L281.7,152.5 M281.7,146.5    c-1.3,0-2.7,0.4-3.7,1.3c-1.9,1.5-2.7,4-2,6.4l4,13.8c1.2,4.1,5,6.9,9.2,6.9c0.9,0,1.8-0.1,2.7-0.4l13.8-4c2.3-0.7,4-2.7,4.3-5.1    s-0.9-4.8-3-5.9l-22.3-12.3C283.7,146.8,282.7,146.5,281.7,146.5L281.7,146.5z"></path>
	</g>
</g>
<g>
	<path class="st1" d="M262.4,203.5c-2,0-4-0.3-6-0.9c-1.1-0.3-1.7-1.4-1.4-2.5s1.4-1.7,2.5-1.4c6.3,1.9,13.4-0.2,17.1-4.9   c0.7-0.9,1.9-1,2.8-0.4s1,1.9,0.3,2.8C274.3,201,268.4,203.5,262.4,203.5z"></path>
</g>
<g>
	<path class="st1" d="M270,190.2c-0.9,0-1.7-0.6-1.9-1.4c-0.9-3.2,0.9-6.5,4.1-7.4c1.5-0.4,3.2-0.3,4.6,0.5c1.4,0.8,2.4,2.1,2.9,3.6   c0.3,1.1-0.3,2.2-1.4,2.5s-2.2-0.3-2.5-1.4c-0.1-0.5-0.5-0.9-1-1.2c-0.5-0.3-1-0.3-1.5-0.2c-1.1,0.3-1.7,1.4-1.4,2.5   c0.3,1.1-0.3,2.2-1.4,2.5C270.4,190.2,270.2,190.2,270,190.2z"></path>
</g>
<g>
	<path class="st1" d="M250.8,195.7c-0.9,0-1.7-0.6-1.9-1.4c-0.4-1.5-0.3-3.2,0.5-4.6s2-2.4,3.6-2.9s3.2-0.3,4.6,0.5s2.4,2.1,2.9,3.6   c0.3,1.1-0.3,2.2-1.4,2.5s-2.2-0.3-2.5-1.4c-0.1-0.5-0.5-0.9-1-1.2c-0.5-0.3-1-0.3-1.5-0.2c-0.5,0.1-0.9,0.5-1.2,0.9   c-0.3,0.5-0.3,1-0.2,1.5c0.3,1.1-0.3,2.2-1.4,2.5C251.2,195.7,251,195.7,250.8,195.7z"></path>
</g>
<g>
	<path class="st1" d="M266.7,173.8c2.6-1.9,6-2.4,8.9-1.2c1.6,0.6,4.3,2.6,2.4,4.4c-1,0.8-2.6,0.1-3.7,0.1c-1.1-0.1-2.9-0.1-4.1-0.1   c-0.9,0-1.8,0-2.7-0.1C266.1,176.7,265.5,174.6,266.7,173.8L266.7,173.8z"></path>
</g>
<g>
	<path class="st1" d="M254.2,180.8c-1.6,1.2-3.7,2.3-5.3,3.5c-0.6,0.4-1.3,1-2,1.5c-0.8,0.6-1.9,0.4-2.4-0.4   c-1.2-2.2,1.4-5.3,3.2-6.4c1.7-1.1,7.4-3.1,7.4,0.4C255.1,180,254.7,180.5,254.2,180.8L254.2,180.8z"></path>
</g>
<g>
	<circle class="st22" cx="289.5" cy="187.1" r="2"></circle>
</g>
<g>
	<circle class="st22" cx="287.3" cy="194" r="2"></circle>
</g>
<g>
	<circle class="st22" cx="295" cy="191.8" r="2"></circle>
</g>
<g>
	<circle class="st22" cx="241.4" cy="200.9" r="2"></circle>
</g>
<g>
	<circle class="st22" cx="239.2" cy="207.8" r="2"></circle>
</g>
<g>
	<circle class="st22" cx="246.9" cy="205.6" r="2"></circle>
</g>
<g>
	<path class="st1" d="M301.1,247.8c-0.9,0-1.7-0.6-1.9-1.4c-0.3-1.1,0.3-2.2,1.4-2.5l14.4-4.1c1.1-0.3,2.2,0.3,2.5,1.4   s-0.3,2.2-1.4,2.5l-14.4,4.1C301.5,247.8,301.3,247.8,301.1,247.8z"></path>
</g>
<g>
	<path class="st1" d="M303.3,255.5c-0.9,0-1.7-0.6-1.9-1.4c-0.3-1.1,0.3-2.2,1.4-2.5l10.6-3c1.1-0.3,2.2,0.3,2.5,1.4   s-0.3,2.2-1.4,2.5l-10.6,3C303.7,255.4,303.5,255.5,303.3,255.5z"></path>
</g>
<g>
	<path class="st1" d="M305.5,263.2c-0.9,0-1.7-0.6-1.9-1.5c-0.3-1.1,0.3-2.2,1.4-2.5l6.7-1.9c1.1-0.3,2.2,0.3,2.5,1.4   s-0.3,2.2-1.4,2.5l-6.7,1.9C305.9,263.1,305.7,263.2,305.5,263.2z"></path>
</g>
<g>
	<path class="st1" d="M240.9,247.9c-0.6,0-1.2-0.4-1.4-1.1c-0.2-0.8,0.2-1.6,1-1.9l3.9-1.1c0.8-0.2,1.6,0.2,1.9,1   c0.2,0.8-0.2,1.6-1,1.9l-3.9,1.1C241.2,247.9,241.1,247.9,240.9,247.9z"></path>
</g>
<g>
	<path class="st1" d="M238.5,239.2c-0.6,0-1.2-0.4-1.4-1.1c-0.2-0.8,0.2-1.6,1-1.9l3.9-1.1c0.8-0.2,1.6,0.2,1.9,1   c0.2,0.8-0.2,1.6-1,1.9l-3.9,1.1C238.7,239.2,238.6,239.2,238.5,239.2z"></path>
</g>
<g>
	<path class="st1" d="M236,230.6c-0.6,0-1.2-0.4-1.4-1.1c-0.2-0.8,0.2-1.6,1-1.9l3.9-1.1c0.8-0.2,1.6,0.2,1.9,1   c0.2,0.8-0.2,1.6-1,1.9l-3.9,1.1C236.3,230.6,236.1,230.6,236,230.6z"></path>
</g>
<g>
	<path class="st23" d="M247.3,255.9c-0.2,0-0.4,0-0.6-0.1c-1-0.3-1.6-1.5-1.3-2.5l6.6-20.6c0.2-0.5,0.5-1,1-1.2   c0.5-0.2,1.1-0.3,1.6-0.1l3.2,1.2l4.2-6.4c0.5-0.8,1.5-1.1,2.4-0.8l4.3,1.8l2.6-4.6c0.5-1,1.8-1.3,2.7-0.8c1,0.5,1.3,1.8,0.8,2.7   l-3.4,6.2c-0.5,0.9-1.6,1.3-2.5,0.9l-4.4-1.8l-4.2,6.3c-0.5,0.8-1.5,1.1-2.4,0.8l-2.7-1l-5.9,18.6   C248.9,255.4,248.1,255.9,247.3,255.9z"></path>
</g>
<g>
	<path class="st1" d="M274.3,251.8c-0.6,0-1.2-0.4-1.4-1.1l-1.1-3.8c-0.2-0.8,0.2-1.6,1-1.9c0.8-0.2,1.6,0.2,1.9,1l1.1,3.8   c0.2,0.8-0.2,1.6-1,1.9C274.6,251.8,274.5,251.8,274.3,251.8z"></path>
</g>
<g>
	<path class="st1" d="M265.7,254.3c-0.6,0-1.2-0.4-1.4-1.1l-1.1-3.8c-0.2-0.8,0.2-1.6,1-1.9c0.8-0.2,1.6,0.2,1.9,1l1.1,3.8   c0.2,0.8-0.2,1.6-1,1.9C266,254.3,265.8,254.3,265.7,254.3z"></path>
</g>
<g>
	<path class="st1" d="M257,256.8c-0.6,0-1.2-0.4-1.4-1.1l-1.1-3.8c-0.2-0.8,0.2-1.6,1-1.9c0.8-0.2,1.6,0.2,1.9,1l1.1,3.8   c0.2,0.8-0.2,1.6-1,1.9C257.3,256.8,257.2,256.8,257,256.8z"></path>
</g>
<g>
	<polygon class="st24" points="247.3,253.9 254.4,242.5 259.1,244.3 264.1,236.6 270.1,239.1 275.4,232.3 279,244.8  "></polygon>
</g>
<g>
	<path class="st10" d="M247.3,255.9c-0.4,0-0.7-0.1-1.1-0.3c-0.9-0.6-1.2-1.8-0.6-2.8l7.1-11.4c0.5-0.8,1.5-1.1,2.4-0.8l3.2,1.2   l4.2-6.4c0.5-0.8,1.5-1.1,2.4-0.8l4.5,1.9l4.4-5.6c0.7-0.9,2-1,2.8-0.3c0.9,0.7,1,1.9,0.3,2.8l-5.4,6.7c-0.6,0.7-1.5,0.9-2.3,0.6   l-4.4-1.8l-4.2,6.3c-0.5,0.8-1.5,1.1-2.4,0.8l-3.1-1.2l-6.3,10C248.6,255.6,247.9,255.9,247.3,255.9z"></path>
</g>
<g>
	<path class="st1" d="M247.3,255.9c-0.9,0-1.7-0.6-1.9-1.4l-9.1-31.7c-0.3-1.1,0.3-2.2,1.4-2.5s2.2,0.3,2.5,1.4l8.5,29.8l29.8-8.5   c1.1-0.3,2.2,0.3,2.5,1.4s-0.3,2.2-1.4,2.5l-31.7,9.1C247.6,255.9,247.5,255.9,247.3,255.9z"></path>
</g>
<g>
	<path class="st1" d="M297.9,237.8c-2.3,0-4.7-0.6-6.8-1.8c-3.3-1.8-5.6-4.8-6.7-8.4c-1-3.6-0.6-7.4,1.2-10.6   c1.8-3.3,4.8-5.6,8.4-6.7c3.6-1,7.4-0.6,10.7,1.2c3.3,1.8,5.6,4.8,6.7,8.4l0,0c2.1,7.4-2.2,15.2-9.6,17.3   C300.5,237.6,299.2,237.8,297.9,237.8z M297.9,213.8c-0.9,0-1.9,0.1-2.8,0.4c-2.6,0.7-4.7,2.4-6,4.8s-1.6,5-0.9,7.6   c0.7,2.6,2.4,4.7,4.8,6c2.3,1.3,5,1.6,7.6,0.9c5.3-1.5,8.4-7.1,6.9-12.4c-0.7-2.6-2.4-4.7-4.8-6   C301.3,214.2,299.6,213.8,297.9,213.8z"></path>
</g>
<g>
	<path class="st23" d="M305.6,221.6c-0.6-2.2-2.2-4-4.3-5l3.4-7.2c4.2,2,7.3,5.6,8.5,10.1L305.6,221.6z"></path>
</g>
<g>
	<path class="st20" d="M301.3,216.6c-1.8-0.8-3.8-1-5.6-0.5l-2.2-7.7c3.7-1.1,7.7-0.8,11.3,0.9L301.3,216.6z"></path>
</g>
<g>
	<path class="st10" d="M311.2,232.8l-6.6-4.5c1.3-2,1.7-4.4,1.1-6.7l7.7-2.2C314.6,224,313.8,228.9,311.2,232.8z"></path>
</g>
<g>
	<circle class="st20" cx="294.9" cy="247.6" r="2.5"></circle>
</g>
<g>
	<circle class="st23" cx="297.1" cy="255.3" r="2.5"></circle>
</g>
<g>
	<circle class="st10" cx="299.3" cy="263" r="2.5"></circle>
</g>
<g>
	<path class="st1" d="M257,264.6c-0.9,0-1.7-0.6-1.9-1.5c-0.3-1.1,0.3-2.2,1.4-2.5l5.8-1.6c1.1-0.3,2.2,0.3,2.5,1.4   s-0.3,2.2-1.4,2.5l-5.8,1.6C257.4,264.5,257.2,264.6,257,264.6z"></path>
</g>
<g>
	<circle class="st20" cx="250.8" cy="264.4" r="2.5"></circle>
</g>
<g>
	<path class="st1" d="M276.3,259.1c-0.9,0-1.7-0.6-1.9-1.5c-0.3-1.1,0.3-2.2,1.4-2.5l5.8-1.6c1.1-0.3,2.2,0.3,2.5,1.4   s-0.3,2.2-1.4,2.5l-5.8,1.6C276.6,259,276.4,259.1,276.3,259.1z"></path>
</g>
<g>
	<circle class="st23" cx="270" cy="258.9" r="2.5"></circle>
</g>
<g>
	<path class="st1" d="M259,271.3c-0.9,0-1.7-0.6-1.9-1.5c-0.3-1.1,0.3-2.2,1.4-2.5l5.8-1.6c1.1-0.3,2.2,0.3,2.5,1.4   s-0.3,2.2-1.4,2.5l-5.8,1.6C259.3,271.3,259.1,271.3,259,271.3z"></path>
</g>
<g>
	<circle class="st10" cx="252.7" cy="271.1" r="2.5"></circle>
</g>
<g>
	<g>
		<path class="st14" d="M253.3,341.7c-2.8,0-5.3-2-5.9-4.8l-22.9-74.6c-0.5-1.6-0.3-3.4,0.6-4.9s2.4-2.5,4.1-2.8l166.6-29.4    c0.3-0.1,0.7-0.1,1-0.1c3.2,0,5.8,2.5,6,5.7l4,78c0.4,3.2-1.7,6.2-4.9,6.7l-147.7,26C254,341.7,253.6,341.7,253.3,341.7z"></path>
	</g>
	<g>
		<g>
			<path class="st1" d="M396.9,228.2c1.6,0,2.9,1.2,3,2.9l4,78.1c0.3,1.6-0.8,3.2-2.4,3.5l-147.7,26c-0.2,0-0.4,0-0.5,0     c-1.4,0-2.7-1-3-2.5l-22.9-74.8c-0.5-1.7,0.6-3.5,2.4-3.8l166.6-29.4C396.6,228.2,396.7,228.2,396.9,228.2 M396.9,222.2     c-0.5,0-1,0.1-1.6,0.1l-166.6,29.4c-2.5,0.4-4.8,2-6.1,4.2c-1.4,2.2-1.7,4.9-0.9,7.3l22.8,74.5c0.9,4.1,4.5,7,8.8,7     c0.5,0,1,0,1.6-0.1l147.7-26c2.4-0.4,4.4-1.7,5.8-3.7c1.3-1.8,1.8-4,1.6-6.3l-4-77.8C405.7,225.9,401.7,222.2,396.9,222.2     L396.9,222.2z"></path>
		</g>
	</g>
</g>
<g>
	<path class="st25" d="M230.4,261.6l166.6-29.4c1.2-0.2,2.3,0.3,2.9,1.2l-0.1-2.4c-0.1-1.8-1.7-3.1-3.5-2.8l-166.6,29.4   c-1.8,0.3-2.9,2.1-2.4,3.8l0.7,2.2C228.4,262.6,229.2,261.8,230.4,261.6z"></path>
</g>
<g>
	<path class="st26" d="M401.5,306.5l-149.7,26.4c-1.1,0.2-2.1-0.2-2.8-1l1.3,4.3c0.3,1.6,1.8,2.7,3.5,2.4l147.7-26   c1.6-0.3,2.7-1.8,2.4-3.5l-0.2-4.5C403.3,305.6,402.5,306.4,401.5,306.5z"></path>
</g>
<g>
	<path class="st1" d="M330.1,281.1c-0.6,0-1.2-0.3-1.6-0.8c-0.7-0.9-0.5-2.1,0.3-2.8c2.7-2.1,7.4-3,10.7-1.9c1,0.3,1.6,1.5,1.3,2.5   c-0.3,1-1.5,1.6-2.5,1.3c-2-0.7-5.3-0.1-7,1.2C331,281,330.5,281.1,330.1,281.1z"></path>
</g>
<g>
	<circle class="st1" cx="333.2" cy="270.7" r="7"></circle>
</g>
<g>
	<circle class="st9" cx="334.9" cy="270.4" r="1.8"></circle>
</g>
<g>
	<path class="st1" d="M325.3,254.8c2.7-3.4,7.8-4.8,11.8-2.9c2,0.9,5.1,3.8,2.6,5.7c-0.6,0.4-1.4,0.4-2,0.2c-1.8-0.5-3-0.8-4.7-0.8   c-1.6,0-3.5,0.6-5.1,0.9L327,258C325.4,258.2,324.3,256.1,325.3,254.8L325.3,254.8z"></path>
</g>
<g>
	<path class="st1" d="M300.6,286.3c-0.6,0-1.2-0.3-1.6-0.8c-0.7-0.9-0.5-2.1,0.3-2.8c2.7-2.1,7.4-3,10.7-1.9c1,0.4,1.6,1.5,1.3,2.5   c-0.3,1-1.5,1.6-2.5,1.3c-2-0.7-5.3-0.1-7,1.2C301.4,286.2,301,286.3,300.6,286.3z"></path>
</g>
<g>
	<circle class="st1" cx="303.7" cy="275.9" r="7"></circle>
</g>
<g>
	<circle class="st9" cx="305.4" cy="275.6" r="1.8"></circle>
</g>
<g>
	<path class="st1" d="M304.3,262.1c-1.6,0.3-3.6,0.4-5.1,0.9c-1.6,0.5-2.7,1.3-4.2,2.3c-1,0.8-2.5,0.8-3.2-0.3   c-0.3-0.5-0.4-1-0.3-1.6c0.3-1.4,1-2.7,2-3.8c2.5-2.7,6.7-3.4,10.1-2.2c1.6,0.5,3.7,1.6,2.5,3.6C305.8,261.7,305,261.9,304.3,262.1   L304.3,262.1z"></path>
</g>
<path class="st1" d="M339.3,288.1c-0.2-1-0.8-2-1.6-2.6c-0.7-0.5-1.5-0.7-2.3-0.7c-0.2,0-0.5,0-0.7,0.1l-27.6,4.9  c-1,0.2-2,0.8-2.6,1.6c-0.6,0.9-0.8,1.9-0.7,3c1.5,8.6,9,14.9,17.7,14.9c1,0,2.1-0.1,3.1-0.3C334.5,307.2,341,297.8,339.3,288.1z"></path>
<g>
	<path class="st10" d="M324,305c4.1-0.7,7.4-3.1,9.5-6.4c-3-2.4-7-3.5-11.1-2.8s-7.4,3.1-9.5,6.4C316,304.5,319.9,305.7,324,305z"></path>
</g>
<g>
	<path class="st1" d="M574,539.7c3.2-2.9,8.5-3.4,12.1-0.8c1.8,1.3,4.3,4.6,1.6,6.1c-0.7,0.3-1.4,0.1-2-0.2   c-1.7-0.8-2.8-1.3-4.5-1.6c-1.6-0.3-3.6,0-5.2,0l-0.8-0.1C573.5,543,572.8,540.7,574,539.7L574,539.7z"></path>
</g>
<g>
	<path class="st1" d="M554.1,543.2c-1.6,0-3.6-0.2-5.2,0c-1.7,0.2-2.8,0.8-4.5,1.6c-1.1,0.7-2.6,0.4-3.1-0.9c-0.2-0.5-0.2-1.1,0-1.6   c0.5-1.3,1.4-2.5,2.7-3.4c3-2.2,7.2-2.2,10.3-0.4c1.5,0.7,3.3,2.3,1.9,4C555.6,543.1,554.8,543.1,554.1,543.2L554.1,543.2z"></path>
</g>
<g>
	<circle class="st16" cx="703" cy="263.4" r="65"></circle>
	<path class="st1" d="M703.1,331.4c-4,0-8-0.4-12-1c-36.9-6.5-61.7-41.9-55.2-78.8c6.5-36.9,41.8-61.7,78.8-55.2l0,0   c17.9,3.1,33.5,13.1,43.9,28c10.4,14.9,14.4,32.9,11.3,50.8c-3.2,17.9-13.1,33.5-28,43.9C730.4,327.2,716.9,331.4,703.1,331.4z    M702.9,201.4c-29.5,0-55.7,21.2-61,51.2c-5.9,33.7,16.6,65.9,50.3,71.8c16.3,2.9,32.8-0.8,46.3-10.3s22.6-23.7,25.5-40   s-0.8-32.8-10.3-46.3c-9.5-13.6-23.7-22.6-40-25.5C710.1,201.7,706.5,201.4,702.9,201.4z"></path>
</g>
<g>
	<path class="st27" d="M691.7,327.4c24.3,4.3,47.8-5.5,62.1-23.5c-1.7-1.1-3.4-2.1-5.3-3l-48.2-22.9l-53.1,5c-2,0.2-4,0.5-6,1   C648.7,305.9,667.4,323.1,691.7,327.4z"></path>
	<path class="st1" d="M647.6,286.1l52.2-4.9l47.4,22.5c1.6,0.8,3.2,1.6,4.6,2.6c1.3-1.5,2.6-3.1,3.8-4.7c-1.8-1.2-3.8-2.3-5.8-3.3   l-47.4-22.5l-1.5-0.7l-1.6,0.1l-52.2,4.9c-2.2,0.2-4.4,0.6-6.6,1.1c0.5,1.9,1.2,3.8,1.9,5.7C644,286.5,645.8,286.2,647.6,286.1z"></path>
	<g>
		<g>
			<path class="st28" d="M755.3,211.4c-1.2,0-2.3-0.1-3.5-0.3c-5.3-0.9-9.8-3.9-12.9-8.2c-3.1-4.4-4.2-9.7-3.3-14.9     c1.7-9.6,10-16.5,19.7-16.5c1.2,0,2.3,0.1,3.5,0.3c10.9,1.9,18.1,12.3,16.2,23.2C773.3,204.4,765,211.4,755.3,211.4z"></path>
		</g>
		<g>
			<path class="st1" d="M755.2,174.4c1,0,2,0.1,3,0.3c9.2,1.6,15.4,10.4,13.8,19.7c-1.5,8.2-8.6,14.1-16.7,14.1c-1,0-2-0.1-3-0.3     c-9.2-1.6-15.4-10.4-13.8-19.7C740,180.2,747.1,174.4,755.2,174.4 M755.2,168.4L755.2,168.4c-11.2,0-20.7,8-22.6,19     c-2.2,12.5,6.2,24.4,18.7,26.6c1.3,0.2,2.7,0.4,4,0.4c11.2,0,20.7-8,22.6-19c1.1-6.1-0.3-12.1-3.8-17.2s-8.8-8.4-14.8-9.5     C757.9,168.5,756.6,168.4,755.2,168.4L755.2,168.4z"></path>
		</g>
	</g>
	<g>
		<g>
			<path class="st28" d="M678.5,197.9c-1.2,0-2.3-0.1-3.5-0.3c-5.3-0.9-9.8-3.9-12.9-8.2c-3.1-4.4-4.2-9.7-3.3-14.9     c1.7-9.6,10-16.5,19.7-16.5c1.2,0,2.3,0.1,3.5,0.3c5.3,0.9,9.8,3.9,12.9,8.2c3.1,4.4,4.2,9.7,3.3,14.9     C696.4,190.9,688.2,197.9,678.5,197.9z"></path>
		</g>
		<g>
			<path class="st1" d="M678.4,160.9c1,0,2,0.1,3,0.3c9.2,1.6,15.4,10.4,13.8,19.7c-1.5,8.2-8.6,14.1-16.7,14.1c-1,0-2-0.1-3-0.3     c-9.2-1.6-15.4-10.4-13.8-19.7C663.2,166.7,670.3,160.9,678.4,160.9 M678.4,154.9L678.4,154.9c-11.2,0-20.7,8-22.6,19     c-2.2,12.5,6.2,24.4,18.7,26.6c1.3,0.2,2.7,0.4,4,0.4c11.2,0,20.7-8,22.6-19c1.1-6.1-0.3-12.1-3.8-17.2c-3.5-5-8.8-8.4-14.8-9.5     C681.1,155,679.8,154.9,678.4,154.9L678.4,154.9z"></path>
		</g>
	</g>
	<g>
		<g>
			<path class="st28" d="M738.3,267.3c-1.2,0-2.3-0.1-3.5-0.3c-10.9-1.9-18.1-12.3-16.2-23.2c1.7-9.6,10-16.5,19.7-16.5     c1.2,0,2.3,0.1,3.5,0.3c5.3,0.9,9.8,3.9,12.9,8.2c3.1,4.4,4.2,9.7,3.3,14.9C756.3,260.4,748,267.3,738.3,267.3z"></path>
		</g>
		<g>
			<path class="st1" d="M738.3,230.3c1,0,2,0.1,3,0.3c9.2,1.6,15.4,10.4,13.8,19.7c-1.5,8.2-8.6,14-16.7,14c-1,0-2-0.1-3-0.3     c-9.2-1.6-15.4-10.4-13.8-19.7C723,236.1,730.2,230.3,738.3,230.3 M738.3,224.3L738.3,224.3c-11.2,0-20.7,8-22.6,19     c-2.2,12.5,6.2,24.4,18.7,26.6c1.3,0.2,2.7,0.4,4,0.4c11.2,0,20.7-8,22.6-19c1.1-6.1-0.3-12.1-3.8-17.2c-3.5-5-8.8-8.4-14.8-9.5     C741,224.4,739.6,224.3,738.3,224.3L738.3,224.3z"></path>
		</g>
	</g>
	<g>
		<g>
			<path class="st28" d="M675.3,256.2c-1.2,0-2.3-0.1-3.5-0.3c-5.3-0.9-9.8-3.9-12.9-8.2s-4.2-9.7-3.3-14.9     c1.7-9.6,10-16.5,19.7-16.5c1.2,0,2.3,0.1,3.5,0.3c10.9,1.9,18.1,12.3,16.2,23.2C693.3,249.2,685,256.2,675.3,256.2z"></path>
		</g>
		<g>
			<path class="st1" d="M675.2,219.2c1,0,2,0.1,3,0.3c9.2,1.6,15.4,10.4,13.8,19.7c-1.5,8.2-8.6,14.1-16.7,14.1c-1,0-2-0.1-3-0.3     c-9.2-1.6-15.4-10.4-13.8-19.7C660,225,667.2,219.2,675.2,219.2 M675.2,213.2L675.2,213.2c-11.2,0-20.7,8-22.6,19     c-1.1,6.1,0.3,12.1,3.8,17.2c3.5,5,8.8,8.4,14.8,9.5c1.3,0.2,2.7,0.4,4,0.4c11.2,0,20.7-8,22.6-19c2.2-12.5-6.2-24.4-18.7-26.6     C677.9,213.3,676.6,213.2,675.2,213.2L675.2,213.2z"></path>
		</g>
	</g>
	<g>
		<g>
			<path class="st28" d="M753.6,232.4c-1.2,0-2.3-0.1-3.5-0.3c-10.9-1.9-18.1-12.3-16.2-23.2c1.7-9.6,10-16.5,19.7-16.5     c1.2,0,2.3,0.1,3.5,0.3c10.9,1.9,18.1,12.3,16.2,23.2C771.6,225.5,763.3,232.4,753.6,232.4z"></path>
		</g>
		<g>
			<path class="st1" d="M753.6,195.4c1,0,2,0.1,3,0.3c9.2,1.6,15.4,10.4,13.8,19.7c-1.5,8.2-8.6,14.1-16.7,14.1c-1,0-2-0.1-3-0.3     c-9.2-1.6-15.4-10.4-13.8-19.7C738.3,201.2,745.5,195.4,753.6,195.4 M753.6,189.4C753.6,189.4,753.5,189.4,753.6,189.4     c-11.2,0-20.7,8-22.6,19c-1.1,6.1,0.3,12.1,3.8,17.2s8.8,8.4,14.8,9.5c1.3,0.2,2.7,0.4,4,0.4c11.2,0,20.7-8,22.6-19     c1.1-6.1-0.3-12.1-3.8-17.2c-3.5-5-8.8-8.4-14.8-9.5C756.2,189.6,754.9,189.4,753.6,189.4L753.6,189.4z"></path>
		</g>
	</g>
	<g>
		<g>
			<path class="st28" d="M672.8,218.2c-1.2,0-2.3-0.1-3.5-0.3c-10.9-1.9-18.1-12.3-16.2-23.2c1.7-9.6,10-16.5,19.7-16.5     c1.2,0,2.3,0.1,3.5,0.3c5.3,0.9,9.8,3.9,12.9,8.2c3.1,4.4,4.2,9.7,3.3,14.9C690.8,211.2,682.5,218.2,672.8,218.2z"></path>
		</g>
		<g>
			<path class="st1" d="M672.8,181.2c1,0,2,0.1,3,0.3c9.2,1.6,15.4,10.4,13.8,19.7c-1.5,8.2-8.6,14.1-16.7,14.1c-1,0-2-0.1-3-0.3     c-9.2-1.6-15.4-10.4-13.8-19.7C657.5,187,664.7,181.2,672.8,181.2 M672.8,175.2L672.8,175.2c-11.2,0-20.7,8-22.6,19     c-2.2,12.5,6.2,24.4,18.7,26.6c1.3,0.2,2.7,0.4,4,0.4c11.2,0,20.7-8,22.6-19c1.1-6.1-0.3-12.1-3.8-17.2s-8.8-8.4-14.8-9.5     C675.5,175.3,674.1,175.2,672.8,175.2L672.8,175.2z"></path>
		</g>
	</g>
	<g>
		<g>
			<path class="st29" d="M698.3,308c-1,0-2.1-0.1-3.1-0.3c-9.8-1.7-16.3-11.1-14.6-20.9l6.1-34.5c0.1-0.8,0.6-1.5,1.2-1.9     c0.5-0.4,1.1-0.5,1.7-0.5c0.2,0,0.3,0,0.5,0.1l29.5,5.2c1.6,0.3,2.7,1.8,2.4,3.5l-6.1,34.5C714.5,301.8,707,308,698.3,308z"></path>
		</g>
		<g>
			<g>
				<path class="st1" d="M689.6,252.9l29.5,5.2l-6.1,34.5c-1.3,7.3-7.6,12.4-14.8,12.4c-0.9,0-1.7-0.1-2.6-0.2l0,0      c-8.2-1.4-13.6-9.2-12.2-17.4L689.6,252.9 M689.6,246.9c-1.2,0-2.4,0.4-3.4,1.1c-1.3,0.9-2.2,2.3-2.5,3.9l-6.1,34.5      c-1,5.5,0.3,11.1,3.5,15.7s8,7.7,13.6,8.6c1.2,0.2,2.4,0.3,3.7,0.3c10.2,0,18.9-7.3,20.7-17.4l6.1-34.5c0.3-1.6-0.1-3.2-1-4.5      s-2.3-2.2-3.9-2.5l-29.5-5.2C690.3,247,689.9,246.9,689.6,246.9L689.6,246.9z"></path>
			</g>
		</g>
	</g>
	<g>
		<path class="st30" d="M688.5,258.8l-4.4,24.8c4.3,2.6,9.1,4.5,14.3,5.4l0,0c5.2,0.9,10.4,0.8,15.3-0.2l4.4-24.8L688.5,258.8z"></path>
	</g>
	<g>
		<path class="st1" d="M698.6,285.4c-0.5,0-1,0-1.5-0.1c-1.4-0.2-2.3-1.5-2-2.9s1.5-2.3,2.9-2c1.9,0.3,3.7-0.9,4.1-2.8    c0.2-0.9,0-1.9-0.6-2.6s-1.3-1.3-2.3-1.4c-1.4-0.2-2.3-1.5-2-2.9s1.5-2.3,2.9-2c2.2,0.4,4.2,1.6,5.5,3.5s1.8,4.1,1.4,6.4    c-0.4,2.2-1.6,4.2-3.5,5.5C702,284.8,700.3,285.4,698.6,285.4z"></path>
	</g>
	<g>
		<g>
			<path class="st29" d="M752.9,246.6c-0.8,0-1.5-0.1-2.3-0.2c-1.6-0.3-2.7-1.8-2.4-3.5l3.8-21.7c0.1-0.8,0.6-1.5,1.2-1.9     c0.5-0.4,1.1-0.5,1.7-0.5c0.2,0,0.3,0,0.5,0.1c7.1,1.2,11.8,8,10.5,15.1l-0.3,2C764.6,242.1,759.2,246.6,752.9,246.6z"></path>
		</g>
		<g>
			<g>
				<path class="st1" d="M755,221.8c5.4,1,9.1,6.1,8.1,11.6l-0.3,2c-0.9,4.9-5.1,8.3-9.8,8.3c-0.6,0-1.2-0.1-1.8-0.1L755,221.8      L755,221.8 M755,215.8c-2.9,0-5.4,2.1-5.9,5l-3.8,21.7c-0.3,1.6,0.1,3.2,1,4.5s2.3,2.2,3.9,2.5c0.9,0.2,1.9,0.2,2.8,0.2      c7.8,0,14.4-5.6,15.8-13.2l0.3-2c1.5-8.7-4.3-17-13-18.5C755.7,215.9,755.3,215.8,755,215.8L755,215.8z"></path>
			</g>
		</g>
	</g>
	<g>
		<g>
			<path class="st30" d="M664.5,231.2c-0.2,0-0.3,0-0.5-0.1c-7.1-1.2-11.8-8-10.5-15.1l0.3-2c1.1-6.2,6.5-10.8,12.8-10.8     c0.8,0,1.5,0.1,2.3,0.2c0.8,0.1,1.5,0.6,1.9,1.2s0.6,1.5,0.5,2.2l-3.8,21.7c-0.1,0.8-0.6,1.5-1.2,1.9     C665.7,231,665.1,231.2,664.5,231.2z"></path>
		</g>
		<g>
			<g>
				<path class="st1" d="M666.6,206.4c0.6,0,1.2,0.1,1.8,0.1l-3.8,21.7c-5.4-1-9.1-6.1-8.1-11.6l0.3-2      C657.6,209.8,661.8,206.4,666.6,206.4 M666.6,200.4L666.6,200.4c-7.8,0-14.4,5.6-15.8,13.2l-0.3,2c-0.7,4.2,0.2,8.4,2.7,12      c2.5,3.5,6.1,5.8,10.3,6.6c0.3,0.1,0.7,0.1,1,0.1c1.2,0,2.4-0.4,3.4-1.1c1.3-0.9,2.2-2.3,2.5-3.9l3.8-21.7      c0.3-1.6-0.1-3.2-1-4.5s-2.3-2.2-3.9-2.5C668.4,200.5,667.5,200.4,666.6,200.4L666.6,200.4z"></path>
			</g>
		</g>
	</g>
	<g>
		<g>
			<path class="st29" d="M708.7,274.9c-2.6,0-5.2-0.2-7.7-0.7c-23.9-4.2-39.9-27.1-35.7-51l5.2-29.5c3.7-21.1,21.9-36.4,43.3-36.4     c2.6,0,5.2,0.2,7.7,0.7c11.6,2,21.7,8.5,28.4,18.1c6.7,9.6,9.3,21.3,7.3,32.9l-5.2,29.5C748.3,259.6,730.1,274.9,708.7,274.9z"></path>
		</g>
		<g>
			<path class="st1" d="M713.8,160.4c2.4,0,4.8,0.2,7.2,0.6l0,0c22.3,3.9,37.2,25.2,33.3,47.5l-5.2,29.5     c-3.5,19.9-20.8,33.9-40.3,33.9c-2.4,0-4.8-0.2-7.2-0.6l0,0c-22.3-3.9-37.2-25.2-33.3-47.5l5.2-29.5     C677,174.4,694.3,160.4,713.8,160.4 M713.8,154.4v6V154.4C713.8,154.4,713.8,154.4,713.8,154.4c-22.8,0-42.3,16.3-46.2,38.9     l-5.2,29.5c-2.2,12.4,0.6,24.8,7.8,35.1c7.2,10.3,18,17.1,30.3,19.3c2.7,0.5,5.5,0.7,8.2,0.7c22.8,0,42.3-16.3,46.2-38.9     l5.2-29.5c2.2-12.4-0.6-24.8-7.8-35.1c-7.2-10.3-18-17.1-30.3-19.3C719.3,154.6,716.6,154.4,713.8,154.4L713.8,154.4z"></path>
		</g>
	</g>
	<g>
		<path class="st30" d="M676.2,225.2l5.2-29.5c3.7-21,22.7-35.4,43.5-33.8c-1.3-0.4-2.6-0.6-3.9-0.9c-22.3-3.9-43.6,11-47.5,33.3    l-5.2,29.5c-3.9,22.3,11,43.6,33.3,47.5c1.3,0.2,2.7,0.4,4,0.5C685.4,266.2,672.5,246.2,676.2,225.2z"></path>
	</g>
	<g>
		<path class="st30" d="M718,224.4c-0.8,4.4-4.9,7.3-9.3,6.5l0,0c-4.3-0.8-7.3-4.9-6.5-9.3L718,224.4z"></path>
	</g>
	<g>
		<path class="st1" d="M710.1,233.5c-0.6,0-1.2-0.1-1.8-0.2c-2.8-0.5-5.2-2-6.8-4.3c-1.6-2.3-2.2-5.1-1.7-7.9l2.3-12.8    c0.2-1.4,1.5-2.3,2.9-2c1.4,0.2,2.3,1.5,2,2.9l-2.3,12.8c-0.2,1.4,0.1,2.9,0.9,4.1s2.1,2,3.5,2.3s2.9-0.1,4.1-0.9s2-2.1,2.3-3.6    l2.3-12.8c0.2-1.4,1.5-2.3,2.9-2c1.4,0.2,2.3,1.5,2,2.9l-2.3,12.8c-0.5,2.8-2,5.2-4.3,6.8C714.3,232.9,712.2,233.5,710.1,233.5z"></path>
	</g>
	<g>
		<g>
			<path class="st28" d="M693.4,181.2c-1.1,0-2.2-0.1-3.3-0.3c-5-0.9-9.3-3.7-12.3-7.8s-4-9.2-3.2-14.2c1.6-9.1,9.5-15.7,18.7-15.7     c1.1,0,2.2,0.1,3.3,0.3c5,0.9,9.3,3.7,12.3,7.8s4,9.2,3.2,14.2C710.5,174.6,702.6,181.2,693.4,181.2z"></path>
		</g>
		<g>
			<path class="st1" d="M693.4,146.2c0.9,0,1.9,0.1,2.8,0.2c8.7,1.5,14.5,9.8,13,18.5c-1.4,7.8-8.1,13.2-15.7,13.2     c-0.9,0-1.9-0.1-2.8-0.2c-8.7-1.5-14.5-9.8-13-18.5C679,151.7,685.7,146.2,693.4,146.2 M693.4,140.2L693.4,140.2     c-10.7,0-19.8,7.6-21.7,18.2c-1,5.8,0.3,11.6,3.6,16.4s8.4,8,14.2,9.1c1.3,0.2,2.6,0.3,3.8,0.3c10.7,0,19.8-7.6,21.7-18.2     c1-5.8-0.3-11.6-3.6-16.4s-8.4-8-14.2-9.1C695.9,140.3,694.6,140.2,693.4,140.2L693.4,140.2z"></path>
		</g>
	</g>
	<g>
		<g>
			<path class="st28" d="M746.6,190.6c-1.1,0-2.2-0.1-3.3-0.3c-5-0.9-9.3-3.7-12.3-7.8s-4-9.2-3.2-14.2c1.6-9.1,9.5-15.7,18.7-15.7     c1.1,0,2.2,0.1,3.3,0.3c10.3,1.8,17.2,11.7,15.4,22C763.7,184,755.8,190.6,746.6,190.6z"></path>
		</g>
		<g>
			<path class="st1" d="M746.5,155.6c0.9,0,1.9,0.1,2.8,0.2c8.7,1.5,14.5,9.8,13,18.5c-1.4,7.8-8.1,13.2-15.7,13.2     c-0.9,0-1.9-0.1-2.8-0.2c-8.7-1.5-14.5-9.8-13-18.5C732.2,161.1,738.9,155.6,746.5,155.6 M746.5,149.6L746.5,149.6     c-10.7,0-19.8,7.6-21.7,18.2c-1,5.8,0.3,11.6,3.6,16.4s8.4,8,14.2,9.1c1.3,0.2,2.6,0.3,3.8,0.3c10.7,0,19.8-7.6,21.7-18.2     c2.1-11.9-5.9-23.4-17.8-25.5C749.1,149.7,747.8,149.6,746.5,149.6L746.5,149.6z"></path>
		</g>
	</g>
	<g>
		<g>
			<path class="st28" d="M721,181c-1.2,0-2.3-0.1-3.5-0.3c-5.3-0.9-9.8-3.9-12.9-8.2c-3.1-4.4-4.2-9.7-3.3-14.9     c1.7-9.6,10-16.5,19.7-16.5c1.2,0,2.3,0.1,3.5,0.3c5.3,0.9,9.8,3.9,12.9,8.2s4.2,9.7,3.3,14.9C739,174.1,730.8,181,721,181z"></path>
		</g>
		<g>
			<path class="st1" d="M721,144c1,0,2,0.1,3,0.3c9.2,1.6,15.4,10.4,13.8,19.7c-1.5,8.2-8.6,14.1-16.7,14.1c-1,0-2-0.1-3-0.3     c-9.2-1.6-15.4-10.4-13.8-19.7C705.7,149.8,712.9,144,721,144 M721,138L721,138c-11.2,0-20.7,8-22.6,19     c-1.1,6.1,0.3,12.1,3.8,17.2c3.5,5,8.8,8.4,14.8,9.5c1.3,0.2,2.7,0.4,4,0.4c11.2,0,20.7-8,22.6-19c1.1-6.1-0.3-12.1-3.8-17.2     c-3.5-5-8.8-8.4-14.8-9.5C723.7,138.1,722.3,138,721,138L721,138z"></path>
		</g>
	</g>
	<g>
		<path class="st1" d="M719.4,171.2c-0.7,0-1.5-0.1-2.2-0.2c-1.4-0.2-2.3-1.5-2-2.9s1.5-2.3,2.9-2c4.1,0.7,8-2,8.7-6.1    c0.2-1.4,1.5-2.3,2.9-2c1.4,0.2,2.3,1.5,2,2.9C730.6,166.9,725.3,171.2,719.4,171.2z"></path>
	</g>
	<g>
		<circle class="st1" cx="731.5" cy="216.7" r="6"></circle>
	</g>
	<g>
		<circle class="st9" cx="733.5" cy="217" r="1.5"></circle>
	</g>
	<g>
		<path class="st1" d="M734.2,226.2c-0.5,0-0.9-0.2-1.3-0.5c-1.4-1.2-4.1-1.7-5.8-1c-1,0.4-2.2-0.1-2.6-1.1s0.1-2.2,1.1-2.6    c3.1-1.2,7.4-0.4,9.9,1.8c0.8,0.7,0.9,2,0.2,2.8C735.3,226,734.8,226.2,734.2,226.2z"></path>
	</g>
	<g>
		<circle class="st1" cx="692.1" cy="209.7" r="6"></circle>
	</g>
	<g>
		<path class="st1" d="M694.8,219.3c-0.5,0-0.9-0.2-1.3-0.5c-1.4-1.2-4.1-1.7-5.8-1c-1,0.4-2.2-0.1-2.6-1.1c-0.4-1,0.1-2.2,1.1-2.6    c3.1-1.2,7.4-0.4,9.9,1.8c0.8,0.7,0.9,2,0.2,2.8C696,219.1,695.4,219.3,694.8,219.3z"></path>
	</g>
	<g>
		<circle class="st9" cx="694.1" cy="210.1" r="1.5"></circle>
	</g>
	<g>
		<path class="st1" d="M712.3,244.3c-6.6,0-13.6-2.1-19-6.1c-0.9-0.6-1.1-1.9-0.4-2.8s1.9-1.1,2.8-0.4c6.7,4.9,16.7,6.7,23.8,4.2    c1-0.4,2.2,0.2,2.5,1.2c0.4,1-0.2,2.2-1.2,2.6C718.2,243.9,715.3,244.3,712.3,244.3z"></path>
	</g>
	<g>
		<path class="st1" d="M727.7,201.6c4.2-2.9,10.5-2.6,14.1,1.2c2,1.9,4.2,6.4,0.6,7.5c-1.9,0.5-3.6-1.8-5-2.4    c-2.7-1.8-6.1-1.9-9.2-2.7C726.7,204.7,726.3,202.4,727.7,201.6L727.7,201.6z"></path>
	</g>
	<g>
		<path class="st1" d="M698.3,199.9c-2.9-0.5-5.9-1.2-8.8-0.5c-1,0.1-2.3,0.7-3.5,0.9c-1.4,0.3-2.7-0.5-3.1-1.9    c-0.2-0.7,0-1.4,0.3-2c1.8-2.9,5.7-4.7,9.1-4.3c2.6,0.2,4.9,1.2,6.8,2.8c1.3,1.1,3.1,3.1,1.2,4.6C699.8,200.1,699,200,698.3,199.9    L698.3,199.9z"></path>
	</g>
	<g>
		<path class="st1" d="M701.8,245.6c2.6,1,5.4,1.5,8.2,1.5c1.4-0.1,1.9,1.8,0.8,2.5c-0.9,0.6-2,1.1-3.1,1.2c-2.5,0.3-5.3-0.5-7-2.5    l-0.5-0.6C699.4,246.6,700.6,245,701.8,245.6L701.8,245.6z"></path>
	</g>
</g>
<g>
	<path class="st1" d="M703.1,331.4c-4,0-8-0.4-12-1c-36.9-6.5-61.7-41.9-55.2-78.8l5.9,1c-5.9,33.7,16.6,65.9,50.3,71.8   c16.3,2.9,32.8-0.8,46.3-10.3s22.6-23.7,25.5-40l5.9,1c-3.2,17.9-13.1,33.5-28,43.9C730.4,327.2,716.9,331.4,703.1,331.4z"></path>
</g>
<g>
	<circle class="st13" cx="607.6" cy="274.3" r="65"></circle>
	<path class="st1" d="M607.8,342.3c-4,0-8-0.4-12-1c-36.9-6.5-61.7-41.9-55.2-78.8c6.5-36.9,41.9-61.7,78.8-55.2   c17.9,3.1,33.5,13.1,43.9,28s14.4,32.9,11.3,50.8c-3.2,17.9-13.1,33.5-28,43.9C635.1,338.1,621.6,342.3,607.8,342.3z M607.6,212.3   c-29.5,0-55.7,21.2-61,51.2c-5.9,33.7,16.6,65.9,50.3,71.8c16.3,2.9,32.8-0.8,46.3-10.3s22.6-23.7,25.5-40s-0.8-32.8-10.3-46.3   c-9.5-13.6-23.7-22.6-40-25.5l0,0C614.8,212.6,611.2,212.3,607.6,212.3z"></path>
</g>
<g>
	<g>
		<path class="st15" d="M659.8,283.5l10.8-61.1c5.1-28.8-14.2-56.3-43-61.4c-3.1-0.5-6.2-0.8-9.3-0.8c-25.7,0-47.7,18.4-52.1,43.8    l-17.3,98.1c2.3,4.9,5.2,9.4,8.6,13.5l100.2-29.8C658.8,285.5,659.6,284.6,659.8,283.5z"></path>
		<path class="st1" d="M662.8,284l10.8-61.1c5.4-30.4-15-59.5-45.4-64.9c-3.2-0.6-6.5-0.9-9.8-0.9v6v-6c-27.2,0-50.4,19.5-55.1,46.3    l-16.5,93.6c1.2,3.3,2.7,6.4,4.4,9.5l18-101.9c4.3-24.3,25.4-41.3,49.2-41.3c2.9,0,5.8,0.2,8.7,0.8l0,0    c27.2,4.8,45.3,30.7,40.6,57.9L656.9,283l-101.3,30.1c1.3,1.7,2.7,3.4,4.2,5l98.9-29.4C660.8,288.1,662.4,286.3,662.8,284z"></path>
	</g>
	<g>
		<path class="st1" d="M574.6,297.4c-0.1,0-0.3,0-0.4,0c-1.4-0.2-2.3-1.5-2-2.9l8-45.3c0.2-1.4,1.5-2.3,2.9-2c1.4,0.2,2.3,1.5,2,2.9    l-8,45.3C576.8,296.5,575.8,297.4,574.6,297.4z"></path>
	</g>
	<g>
		<path class="st1" d="M562.8,295.3c-0.1,0-0.3,0-0.4,0c-1.4-0.2-2.3-1.5-2-2.9l8-45.3c0.2-1.4,1.5-2.3,2.9-2c1.4,0.2,2.3,1.5,2,2.9    l-8,45.3C565,294.4,563.9,295.3,562.8,295.3z"></path>
	</g>
	<g>
		<path class="st31" d="M605.1,288.9l-44.6,5.8c-4.7,0.6-9.1,1.9-13.1,3.9c8.1,20.1,26.1,35.6,49,39.7c22.9,4,45.1-4.5,59.6-20.5    c-3.1-3.2-6.8-6-11-8.1L605.1,288.9z"></path>
		<path class="st1" d="M607.3,286.7l-1.7-0.9l-1.9,0.2l-43.7,5.7c-4.9,0.6-9.5,2-13.8,4c0.7,1.9,1.4,3.8,2.3,5.6    c3.8-1.9,7.9-3.1,12.3-3.7l43.7-5.7l39.1,20.3c3.9,2,7.3,4.6,10.3,7.7c1.4-1.4,2.8-2.9,4-4.5c-3.3-3.4-7.2-6.2-11.6-8.5    L607.3,286.7z"></path>
	</g>
	<g>
		<g>
			<path class="st32" d="M573.8,238.6c-0.2,0-0.3,0-0.5-0.1c-6-1.1-10-6.8-8.9-12.7l0.3-1.6c0.9-5.3,5.5-9.1,10.8-9.1     c0.6,0,1.3,0.1,1.9,0.2c0.8,0.1,1.5,0.6,1.9,1.2s0.6,1.5,0.5,2.2l-3.1,17.3C576.5,237.6,575.3,238.6,573.8,238.6z"></path>
		</g>
		<g>
			<g>
				<path class="st1" d="M575.5,218.2c0.5,0,0.9,0,1.4,0.1l-3.1,17.3c-4.3-0.8-7.3-4.9-6.5-9.3l0.3-1.6      C568.3,220.9,571.7,218.2,575.5,218.2 M575.5,212.2L575.5,212.2c-6.8,0-12.6,4.9-13.8,11.6l-0.3,1.6      c-1.3,7.6,3.8,14.9,11.4,16.2c0.3,0.1,0.7,0.1,1,0.1c2.9,0,5.4-2.1,5.9-5l3.1-17.3c0.3-1.6-0.1-3.2-1-4.5s-2.3-2.2-3.9-2.5      C577.1,212.3,576.3,212.2,575.5,212.2L575.5,212.2z"></path>
			</g>
		</g>
	</g>
	<g>
		<g>
			<path class="st23" d="M569.8,247.2c-0.3,0-0.7,0-1-0.1c-3.3-0.6-5.4-3.7-4.9-6.9c0.5-2.9,3-5,5.9-5c0.3,0,0.7,0,1,0.1     c3.3,0.6,5.4,3.7,4.9,6.9C575.2,245.1,572.7,247.2,569.8,247.2z"></path>
		</g>
		<g>
			<path class="st1" d="M569.8,238.2c0.2,0,0.3,0,0.5,0.1c1.6,0.3,2.7,1.8,2.4,3.5c-0.3,1.5-1.5,2.5-3,2.5c-0.2,0-0.3,0-0.5-0.1     c-1.6-0.3-2.7-1.8-2.4-3.5C567.1,239.3,568.4,238.2,569.8,238.2 M569.8,232.2L569.8,232.2c-4.4,0-8.1,3.1-8.9,7.4     c-0.9,4.9,2.4,9.6,7.3,10.4c0.5,0.1,1,0.1,1.6,0.1c4.4,0,8.1-3.1,8.9-7.4c0.4-2.4-0.1-4.8-1.5-6.7s-3.4-3.3-5.8-3.7     C570.8,232.3,570.3,232.2,569.8,232.2L569.8,232.2z"></path>
		</g>
	</g>
	<g>
		<g>
			<path class="st33" d="M598.1,331.5c-0.2,0-0.3,0-0.5,0c-0.8-0.1-1.5-0.6-2-1.3c-1.1-1.7-11-17-9.4-26.1l7.8-44.3     c0.1-0.8,0.6-1.5,1.2-1.9c0.5-0.4,1.1-0.5,1.7-0.5c0.2,0,0.3,0,0.5,0l25.6,4.5c0.8,0.1,1.5,0.6,1.9,1.2c0.5,0.6,0.6,1.5,0.5,2.2     l-7.8,44.3c-1.6,9.1-16.1,20.1-17.8,21.3C599.3,331.3,598.7,331.5,598.1,331.5z"></path>
		</g>
		<g>
			<g>
				<path class="st1" d="M596.9,260.2l25.6,4.5l-7.8,44.3c-1.4,8.2-16.6,19.4-16.6,19.4s-10.4-15.8-9-23.9L596.9,260.2 M596.9,254.2      c-2.9,0-5.4,2.1-5.9,5l-7.8,44.3c-0.8,4.7,0.6,10.8,4.5,18.7c2.6,5.2,5.3,9.4,5.4,9.6c0.9,1.4,2.3,2.3,4,2.6      c0.3,0.1,0.7,0.1,1,0.1c1.3,0,2.5-0.4,3.6-1.2c0.2-0.1,4.2-3.1,8.4-7.1c6.3-6.1,9.8-11.3,10.6-16l7.8-44.3      c0.6-3.3-1.6-6.4-4.9-7l-25.6-4.5C597.6,254.3,597.3,254.2,596.9,254.2L596.9,254.2z"></path>
			</g>
		</g>
	</g>
	<g>
		<path class="st32" d="M596.2,264.2l-5.2,29.5c3.8,2,8,3.5,12.4,4.3s8.9,0.8,13.2,0.2l5.2-29.5L596.2,264.2z"></path>
	</g>
	<g>
		<g>
			<path class="st15" d="M626.1,318c-1.9,0-3.9-0.2-5.8-0.5c-0.8-0.1-1.5-0.6-1.9-1.2c-0.5-0.6-0.6-1.5-0.5-2.2l13.6-77.2     c0.3-1.5,1.5-2.5,3-2.5c0.2,0,0.3,0,0.5,0.1l29.5,5.2c0.8,0.1,1.5,0.6,1.9,1.2s0.6,1.5,0.5,2.2l-8.4,47.6     C655.8,306.6,642.1,318,626.1,318L626.1,318z"></path>
		</g>
		<g>
			<path class="st1" d="M634.5,237.4l29.5,5.2l-8.4,47.6c-2.6,14.6-15.2,24.8-29.5,24.8c-1.7,0-3.5-0.1-5.2-0.5l0,0L634.5,237.4      M634.4,231.4c-2.9,0-5.4,2.1-5.9,5l-13.6,77.2c-0.6,3.3,1.6,6.4,4.9,7c2.1,0.4,4.2,0.5,6.3,0.5c17.5,0,32.4-12.5,35.4-29.8     l8.4-47.6c0.3-1.6-0.1-3.2-1-4.5s-2.3-2.2-3.9-2.5l-29.5-5.2C635.1,231.4,634.8,231.4,634.4,231.4L634.4,231.4z"></path>
		</g>
	</g>
	<g>
		<path class="st1" d="M631.5,308.4c-0.1,0-0.3,0-0.4,0c-1.4-0.2-2.3-1.5-2-2.9l7-39.4c0.2-1.4,1.5-2.3,2.9-2c1.4,0.2,2.3,1.5,2,2.9    l-7,39.4C633.8,307.6,632.7,308.4,631.5,308.4z"></path>
	</g>
	<g>
		<path class="st1" d="M644.2,299.5c-0.1,0-0.3,0-0.4,0c-1.4-0.2-2.3-1.5-2-2.9l7-39.4c0.2-1.4,1.5-2.3,2.9-2c1.4,0.2,2.3,1.5,2,2.9    l-7,39.4C646.5,298.7,645.4,299.5,644.2,299.5z"></path>
	</g>
	<g>
		<g>
			<path class="st33" d="M654,252.7c-0.6,0-1.3-0.1-1.9-0.2c-1.6-0.3-2.7-1.8-2.4-3.5l3.1-17.3c0.3-1.5,1.5-2.5,3-2.5     c0.2,0,0.3,0,0.5,0.1c2.9,0.5,5.4,2.1,7.1,4.5c1.7,2.4,2.3,5.3,1.8,8.2l-0.3,1.6C663.9,248.8,659.4,252.7,654,252.7z"></path>
		</g>
		<g>
			<g>
				<path class="st1" d="M655.7,232.2c4.3,0.8,7.3,4.9,6.5,9.3l-0.3,1.6c-0.7,3.9-4.1,6.6-7.9,6.6c-0.5,0-0.9,0-1.4-0.1L655.7,232.2      L655.7,232.2 M655.7,226.2c-2.9,0-5.4,2.1-5.9,5l-3.1,17.3c-0.3,1.6,0.1,3.2,1,4.5s2.3,2.2,3.9,2.5c0.8,0.1,1.6,0.2,2.4,0.2      c6.8,0,12.6-4.9,13.8-11.6l0.3-1.6c1.3-7.6-3.8-14.9-11.4-16.2C656.4,226.2,656,226.2,655.7,226.2L655.7,226.2z"></path>
			</g>
		</g>
	</g>
	<g>
		<g>
			<path class="st23" d="M654.5,262.2c-0.3,0-0.7,0-1-0.1c-3.3-0.6-5.4-3.7-4.9-6.9c0.5-2.9,3-5,5.9-5c0.3,0,0.7,0,1,0.1     c3.3,0.6,5.4,3.7,4.9,7C659.9,260.1,657.4,262.2,654.5,262.2z"></path>
		</g>
		<g>
			<path class="st1" d="M654.5,253.2c0.2,0,0.3,0,0.5,0.1c1.6,0.3,2.7,1.8,2.4,3.5c-0.3,1.5-1.5,2.5-3,2.5c-0.2,0-0.3,0-0.5,0     c-1.6-0.3-2.7-1.8-2.4-3.5C651.8,254.2,653.1,253.2,654.5,253.2 M654.5,247.2L654.5,247.2c-4.4,0-8.1,3.1-8.9,7.4     c-0.4,2.4,0.1,4.8,1.5,6.7s3.4,3.3,5.8,3.7c0.5,0.1,1,0.1,1.6,0.1c4.4,0,8.1-3.1,8.9-7.4c0.4-2.4-0.1-4.8-1.5-6.7     c-1.4-2-3.4-3.3-5.8-3.7C655.5,247.2,655,247.2,654.5,247.2L654.5,247.2z"></path>
		</g>
	</g>
	<g>
		<g>
			<path class="st33" d="M613.6,279.8c-2.3,0-4.6-0.2-6.8-0.6c-10.3-1.8-19.2-7.5-25.2-16c-6-8.5-8.3-18.9-6.5-29.1l4.9-27.6     c3.3-18.7,19.4-32.2,38.4-32.2c2.3,0,4.6,0.2,6.8,0.6c21.2,3.7,35.4,24,31.6,45.2l-4.9,27.6C648.7,266.3,632.5,279.8,613.6,279.8     z"></path>
		</g>
		<g>
			<g>
				<path class="st1" d="M618.4,177.2c2.1,0,4.2,0.2,6.3,0.6l0,0c19.6,3.4,32.7,22.1,29.2,41.7l-4.9,27.6      c-3.1,17.5-18.3,29.8-35.4,29.8c-2.1,0-4.2-0.2-6.3-0.5l0,0c-19.6-3.5-32.7-22.1-29.2-41.7L583,207      C586,189.5,601.2,177.2,618.4,177.2 M618.4,171.2v6V171.2L618.4,171.2c-20.4,0-37.8,14.6-41.3,34.7l-4.9,27.6      c-4,22.8,11.3,44.6,34.1,48.6c2.4,0.4,4.9,0.6,7.3,0.6c20.4,0,37.8-14.6,41.3-34.7l4.9-27.6c2-11.1-0.5-22.2-7-31.4      c-6.4-9.2-16.1-15.3-27.1-17.3C623.3,171.5,620.8,171.2,618.4,171.2L618.4,171.2z"></path>
			</g>
		</g>
	</g>
	<g>
		<path class="st32" d="M586,236l4.9-27.6c3.2-18.2,19.7-30.8,37.7-29.7c-1.3-0.4-2.6-0.7-3.9-0.9l0,0c-19.6-3.4-38.2,9.6-41.7,29.2    l-4.9,27.6c-3.5,19.6,9.6,38.2,29.2,41.7l0,0c1.3,0.2,2.7,0.4,4,0.5C593.9,271.7,582.8,254.2,586,236z"></path>
	</g>
	<g>
		<path class="st32" d="M621.7,235.1c-0.7,3.8-4.3,6.4-8.1,5.7l0,0c-3.8-0.7-6.3-4.3-5.7-8.1L621.7,235.1z"></path>
	</g>
	<g>
		<path class="st1" d="M617.2,254.2c-6.6,0-13.6-2.1-19-6.1c-0.9-0.6-1.1-1.9-0.4-2.8s1.9-1.1,2.8-0.4c6.7,4.9,16.7,6.7,23.8,4.2    c1-0.4,2.2,0.2,2.5,1.2c0.4,1-0.2,2.2-1.2,2.6C623,253.8,620.2,254.2,617.2,254.2z"></path>
	</g>
	<g>
		<path class="st1" d="M607.1,255.7c2.3,1,4.9,1.5,7.5,1.3c1.3-0.1,1.9,1.7,0.8,2.4c-0.9,0.6-2,1.2-3,1.3c-2.2,0.2-4.6-0.4-6.1-2.2    l-0.6-0.8C604.7,256.6,605.9,255.1,607.1,255.7L607.1,255.7z"></path>
	</g>
	<g>
		<path class="st15" d="M572.9,199.5c13,2.3,39.1-18.9,39.1-18.9s15.8,34.3,54.7,41.1l-0.7-19.3l-7-13.3L646,176l-20.1-8.3l-22,1.1    l-16.2,7.7l-9.6,9.2L572.9,199.5z"></path>
	</g>
	<g>
		<path class="st1" d="M664.7,224.4c-0.2,0-0.3,0-0.5-0.1c-32.8-5.8-48.3-29.6-53.2-38.9c-6.8,5.6-22.6,17.6-34.1,17.6    c-0.9,0-1.7-0.1-2.5-0.2c-1.6-0.3-2.7-1.8-2.4-3.5c0.3-1.6,1.8-2.7,3.5-2.4c4.5,0.8,12-2.1,21.2-8.3c7.4-4.9,13.3-10.2,13.4-10.3    c0.7-0.6,1.7-0.9,2.7-0.7s1.7,0.9,2.1,1.8c0.1,0.3,13.7,32.5,50.5,38.9c1.6,0.3,2.7,1.8,2.4,3.5    C667.4,223.4,666.1,224.4,664.7,224.4z"></path>
	</g>
	<g>
		<path class="st1" d="M657.7,211.5c-0.4,0-0.8-0.1-1.1-0.3c-24.8-12.2-35.6-32.8-36-33.6c-0.6-1.2-0.1-2.7,1.1-3.4    c1.2-0.6,2.7-0.1,3.4,1.1c0.1,0.2,10.5,20,33.8,31.4c1.2,0.6,1.8,2.1,1.1,3.4C659.5,211,658.7,211.5,657.7,211.5z"></path>
	</g>
	<g>
		<path class="st1" d="M614.8,243.4c-0.5,0-1.1-0.1-1.7-0.1c-2.5-0.4-4.7-1.8-6.1-3.9c-1.5-2.1-2-4.6-1.6-7.1l1.9-10.8    c0.2-1.4,1.5-2.3,2.9-2c1.4,0.2,2.3,1.5,2,2.9l-1.9,10.8c-0.2,1.2,0.1,2.4,0.8,3.4s1.7,1.6,2.9,1.9c2.4,0.4,4.8-1.2,5.2-3.6    l1.9-10.8c0.2-1.4,1.5-2.3,2.9-2c1.4,0.2,2.3,1.5,2,2.9l-1.9,10.8C623.3,240.2,619.3,243.4,614.8,243.4z"></path>
	</g>
	<g>
		<circle class="st1" cx="635.2" cy="227.4" r="6"></circle>
	</g>
	<g>
		<circle class="st9" cx="637.2" cy="227.7" r="1.5"></circle>
	</g>
	<g>
		<path class="st1" d="M637.9,237c-0.5,0-0.9-0.2-1.3-0.5c-1.4-1.2-4.1-1.7-5.8-1c-1,0.4-2.2-0.1-2.6-1.1s0.1-2.2,1.1-2.6    c3.1-1.2,7.4-0.4,9.9,1.8c0.8,0.7,0.9,2,0.2,2.8C639,236.7,638.5,237,637.9,237z"></path>
	</g>
	<g>
		<circle class="st1" cx="597.8" cy="220.8" r="6"></circle>
	</g>
	<g>
		<path class="st1" d="M600.5,230.4c-0.5,0-0.9-0.2-1.3-0.5c-1.4-1.2-4.1-1.7-5.8-1c-1,0.4-2.2-0.1-2.6-1.1s0.1-2.2,1.1-2.6    c3.1-1.2,7.4-0.4,9.9,1.8c0.8,0.7,0.9,2,0.2,2.8C601.6,230.1,601.1,230.4,600.5,230.4z"></path>
	</g>
	<g>
		<circle class="st9" cx="599.8" cy="221.1" r="1.5"></circle>
	</g>
	<g>
		<path class="st1" d="M631.4,215.2c5-4.1,14.3-1.4,15,5.4c0.1,0.6-0.4,1.1-1,1.2c-0.3,0-0.6-0.1-0.8-0.2c-2.1-1.4-3.6-2.4-5.8-3.1    c-2.2-0.7-4.6-0.9-7-1.4C631,216.9,630.7,215.7,631.4,215.2L631.4,215.2z"></path>
	</g>
	<g>
		<path class="st1" d="M604.3,212.2c-4.7-1-8.6-1.5-13.3-0.1c-0.9,0.3-1.8-0.7-1.3-1.5c2.1-4.6,8.5-5.6,12.6-3.1    c1.1,0.6,4.8,3.3,3,4.6C604.9,212.3,604.6,212.3,604.3,212.2L604.3,212.2z"></path>
	</g>
</g>
<g>
	<path class="st1" d="M607.8,342.3c-4,0-8-0.4-12-1c-36.9-6.5-61.7-41.9-55.2-78.8l5.9,1c-5.9,33.7,16.6,65.9,50.3,71.8   c16.3,2.9,32.8-0.8,46.3-10.3s22.6-23.7,25.5-40l5.9,1c-3.2,17.9-13.1,33.5-28,43.9C635.1,338.1,621.6,342.3,607.8,342.3z"></path>
</g>
<g>
	<path class="st10" d="M524.8,167.8c-1.6,0-3.1-0.6-4.2-1.8l-5.7-5.7c-2.3-2.3-2.3-6.1,0-8.5l12.7-12.7c1.1-1.1,2.6-1.8,4.2-1.8   s3.1,0.6,4.2,1.8l5.7,5.7c1.1,1.1,1.8,2.6,1.8,4.2s-0.6,3.1-1.8,4.2L529,166C527.9,167.1,526.4,167.8,524.8,167.8z"></path>
</g>
<g>
	<path class="st1" d="M531.8,140.4c0.8,0,1.5,0.3,2.1,0.9l5.7,5.7c1.2,1.2,1.2,3.1,0,4.2l-12.7,12.7c-0.6,0.6-1.3,0.9-2.1,0.9   s-1.5-0.3-2.1-0.9l-5.7-5.7c-1.2-1.2-1.2-3.1,0-4.2l12.7-12.7C530.3,140.7,531.1,140.4,531.8,140.4 M531.8,134.4   c-2.4,0-4.7,0.9-6.4,2.6l-12.7,12.7c-1.7,1.7-2.6,4-2.6,6.4s0.9,4.7,2.6,6.4l5.7,5.7c1.7,1.7,4,2.6,6.4,2.6s4.7-0.9,6.4-2.6   l12.7-12.7c3.5-3.5,3.5-9.2,0-12.7l-5.7-5.7C536.5,135.3,534.2,134.4,531.8,134.4L531.8,134.4z"></path>
</g>
<g>
	<path class="st20" d="M521.2,178.4c-1.6,0-3.1-0.6-4.2-1.8l-12.7-12.7c-2.3-2.3-2.3-6.1,0-8.5l12.7-12.7c1.1-1.1,2.6-1.8,4.2-1.8   s3.1,0.6,4.2,1.8l12.7,12.7c2.3,2.3,2.3,6.1,0,8.5l-12.7,12.7C524.3,177.7,522.8,178.4,521.2,178.4z"></path>
</g>
<g>
	<path class="st1" d="M521.2,143.9c0.8,0,1.5,0.3,2.1,0.9l12.7,12.7c1.2,1.2,1.2,3.1,0,4.2l-12.7,12.7c-0.6,0.6-1.3,0.9-2.1,0.9   s-1.5-0.3-2.1-0.9l-12.7-12.7c-1.2-1.2-1.2-3.1,0-4.2l12.7-12.7C519.7,144.2,520.5,143.9,521.2,143.9 M521.2,137.9   c-2.4,0-4.7,0.9-6.4,2.6l-12.7,12.7c-3.5,3.5-3.5,9.2,0,12.7l12.7,12.7c1.7,1.7,4,2.6,6.4,2.6c2.4,0,4.7-0.9,6.4-2.6l12.7-12.7   c3.5-3.5,3.5-9.2,0-12.7l-12.7-12.7C525.9,138.8,523.6,137.9,521.2,137.9L521.2,137.9z"></path>
</g>
<g>
	<path class="st34" d="M509.9,165.3l-3.5-3.5c-1.2-1.2-1.2-3.1,0-4.2l12.7-12.7c1.2-1.2,3.1-1.2,4.2,0l3.5,3.5L509.9,165.3z"></path>
</g>
<g>
	<path class="st35" d="M481,146.9c-3.3,0-6-2.7-6-6v-18c0-3.3,2.7-6,6-6h8c3.3,0,6,2.7,6,6v18c0,3.3-2.7,6-6,6H481z"></path>
</g>
<g>
	<path class="st1" d="M489,119.9c1.7,0,3,1.3,3,3v18c0,1.7-1.3,3-3,3h-8c-1.7,0-3-1.3-3-3v-18c0-1.7,1.3-3,3-3L489,119.9 M489,113.9   h-8c-5,0-9,4-9,9v18c0,5,4,9,9,9h8c5,0,9-4,9-9v-18C498,117.9,494,113.9,489,113.9L489,113.9z"></path>
</g>
<g>
	<path class="st20" d="M476,156.9c-3.3,0-6-2.7-6-6v-18c0-3.3,2.7-6,6-6h18c3.3,0,6,2.7,6,6v18c0,3.3-2.7,6-6,6H476z"></path>
</g>
<g>
	<path class="st1" d="M494,129.9c1.7,0,3,1.3,3,3v18c0,1.7-1.3,3-3,3h-18c-1.7,0-3-1.3-3-3v-18c0-1.7,1.3-3,3-3H494 M494,123.9h-18   c-5,0-9,4-9,9v18c0,5,4,9,9,9h18c5,0,9-4,9-9v-18C503,127.9,499,123.9,494,123.9L494,123.9z"></path>
</g>
<g>
	<path class="st36" d="M481,153.9h-5c-1.7,0-3-1.3-3-3v-18c0-1.7,1.3-3,3-3h5V153.9z"></path>
</g>
<g>
	<path class="st35" d="M445.2,167.8c-1.6,0-3.1-0.6-4.2-1.8l-12.7-12.7c-2.3-2.3-2.3-6.1,0-8.5l5.7-5.7c1.1-1.1,2.6-1.8,4.2-1.8   s3.1,0.6,4.2,1.8l12.7,12.7c1.1,1.1,1.8,2.6,1.8,4.2s-0.6,3.1-1.8,4.2l-5.7,5.7C448.3,167.1,446.8,167.8,445.2,167.8z"></path>
</g>
<g>
	<path class="st1" d="M438.2,140.4c0.8,0,1.5,0.3,2.1,0.9L453,154c1.2,1.2,1.2,3.1,0,4.2l-5.7,5.7c-0.6,0.6-1.3,0.9-2.1,0.9   s-1.5-0.3-2.1-0.9l-12.7-12.7c-1.2-1.2-1.2-3.1,0-4.2l5.7-5.7C436.6,140.7,437.4,140.4,438.2,140.4 M438.2,134.4   c-2.4,0-4.7,0.9-6.4,2.6l-5.7,5.7c-3.5,3.5-3.5,9.2,0,12.7l12.7,12.7c1.7,1.7,4,2.6,6.4,2.6s4.7-0.9,6.4-2.6l5.7-5.7   c1.7-1.7,2.6-4,2.6-6.4s-0.9-4.7-2.6-6.4L444.5,137C442.8,135.3,440.6,134.4,438.2,134.4L438.2,134.4z"></path>
</g>
<g>
	<path class="st34" d="M448.8,178.4c-1.6,0-3.1-0.6-4.2-1.8l-12.7-12.7c-2.3-2.3-2.3-6.1,0-8.5l12.7-12.7c1.1-1.1,2.6-1.8,4.2-1.8   s3.1,0.6,4.2,1.8l12.7,12.7c2.3,2.3,2.3,6.1,0,8.5L453,176.6C451.9,177.7,450.4,178.4,448.8,178.4z"></path>
</g>
<g>
	<path class="st1" d="M448.8,143.9c0.8,0,1.5,0.3,2.1,0.9l12.7,12.7c1.2,1.2,1.2,3.1,0,4.2l-12.7,12.7c-0.6,0.6-1.3,0.9-2.1,0.9   s-1.5-0.3-2.1-0.9l-12.7-12.7c-1.2-1.2-1.2-3.1,0-4.2l12.7-12.7C447.2,144.2,448,143.9,448.8,143.9 M448.8,137.9   c-2.4,0-4.7,0.9-6.4,2.6l-12.7,12.7c-3.5,3.5-3.5,9.2,0,12.7l12.7,12.7c1.7,1.7,4,2.6,6.4,2.6c2.4,0,4.7-0.9,6.4-2.6l12.7-12.7   c3.5-3.5,3.5-9.2,0-12.7l-12.7-12.7C453.4,138.8,451.2,137.9,448.8,137.9L448.8,137.9z"></path>
</g>
<g>
	<path class="st20" d="M485,264.9c-9.7,0-20.8-7-31.1-19.8c-9.3-11.5-16.8-26.2-20.1-39.5c-1-3.7-1.6-7.7-1.8-11.7c0-0.7,0-1.4,0-2   c0-29.2,23.8-53,53-53s53,23.8,53,53c0,0.7,0,1.4,0,2.1c-0.2,3.9-0.7,7.9-1.8,11.7c-3.2,13.2-10.7,28-20,39.4   C505.8,257.8,494.7,264.9,485,264.9z M485,240.9c-3.3,0-6,2.7-6,6s2.7,6,6,6s6-2.7,6-6S488.3,240.9,485,240.9z"></path>
</g>
<g>
	<path class="st1" d="M485,141.9c27.6,0,50,22.4,50,50c0,0.6,0,1.3,0,1.9c-0.1,3.8-0.7,7.5-1.7,11.1c-6.4,26.2-29.5,57-48.3,57   s-41.9-30.8-48.3-57c-1-3.6-1.5-7.2-1.7-11.1c0-0.6,0-1.3,0-1.9C435,164.2,457.4,141.9,485,141.9 M485,255.9c5,0,9-4,9-9s-4-9-9-9   s-9,4-9,9S480,255.9,485,255.9 M485,135.9c-30.9,0-56,25.1-56,56c0,0.7,0,1.4,0,2.2c0.2,4.1,0.8,8.3,1.8,12.3   c3.3,13.6,11,28.8,20.6,40.6c11,13.5,22.8,20.9,33.5,20.9s22.5-7.4,33.5-20.9c9.6-11.8,17.3-27,20.6-40.6c1.1-4,1.7-8.1,1.8-12.3   c0-0.8,0-1.5,0-2.2C541,161,515.9,135.9,485,135.9L485,135.9z M485,249.9c-1.7,0-3-1.4-3-3s1.3-3,3-3s3,1.4,3,3   S486.7,249.9,485,249.9L485,249.9z"></path>
</g>
<g>
	<path class="st34" d="M441,199.8c0-0.6,0-1.3,0-1.9c0-27.6,22.4-50,50-50c12.3,0,23.5,4.4,32.2,11.8c-9.2-10.9-22.9-17.8-38.2-17.8   c-27.6,0-50,22.4-50,50c0,0.6,0,1.3,0,1.9c0.1,3.8,0.7,7.5,1.7,11.1c4.2,17.2,15.6,36.4,28.2,47.5c-10.1-11.3-18.7-27.1-22.2-41.5   C441.8,207.3,441.2,203.6,441,199.8z"></path>
</g>
<g>
	<path class="st1" d="M497,153.9v10h2v-3h2v3h2v-10H497z M501,158.9h-2v-3h2V158.9z"></path>
</g>
<g>
	<polygon class="st1" points="471,161.9 469,161.9 469,153.9 467,153.9 467,163.9 473,163.9 473,153.9 471,153.9  "></polygon>
</g>
<g>
	<polygon class="st1" points="477,161.9 477,153.9 475,153.9 475,163.9 481,163.9 481,161.9  "></polygon>
</g>
<g>
	<polygon class="st1" points="491,155.9 493,155.9 493,153.9 489,153.9 489,163.9 491,163.9 491,161.9 493,161.9 493,159.9    491,159.9  "></polygon>
</g>
<g>
	<rect x="493" y="155.9" class="st1" width="2" height="4"></rect>
</g>
<g>
	<rect x="493" y="161.9" class="st1" width="2" height="2"></rect>
</g>
<g>
	<polygon class="st1" points="481,153.9 481,155.9 483,155.9 483,163.9 485,163.9 485,155.9 487,155.9 487,153.9  "></polygon>
</g>
<g>
	<path class="st36" d="M534.9,189.5c0-0.4,0-0.7-0.1-1.1c0-0.1,0-0.2,0-0.3c0-0.6-0.1-1.3-0.2-1.9c0-0.2-0.1-0.5-0.1-0.7   c-0.1-0.7-0.2-1.4-0.3-2.1l0,0c0,0,0,0,0,0c-0.1-0.3-0.1-0.7-0.2-1c-0.1-0.6-0.2-1.2-0.4-1.8c-0.1-0.3-0.1-0.6-0.2-0.9l0,0   c-0.2-0.7-0.4-1.4-0.6-2.1c0,0,0-0.1,0-0.1c-0.3-1-0.6-2-1-3l0,0c0-0.1,0-0.1-0.1-0.2c-0.1-0.1-0.1-0.3-0.2-0.4   c-0.2-0.6-0.5-1.3-0.8-1.9c-0.1-0.2-0.2-0.4-0.3-0.6c-0.3-0.6-0.6-1.2-0.9-1.9c-0.1-0.3-0.3-0.6-0.4-0.9c-0.3-0.7-0.7-1.3-1.1-2   c-0.1-0.1-0.1-0.3-0.2-0.4c-0.5-0.8-0.9-1.5-1.4-2.3c-0.5-0.8-1-1.5-1.6-2.2c0,0,0,0,0,0c-0.5-0.7-1.1-1.4-1.7-2.1   c-0.1-0.2-0.3-0.3-0.4-0.5c-0.5-0.5-0.9-1-1.4-1.5c-0.2-0.2-0.3-0.4-0.5-0.5c-0.5-0.5-1-1-1.4-1.4c-0.2-0.1-0.3-0.3-0.5-0.5   c-0.5-0.5-1.1-1-1.7-1.5c-0.1-0.1-0.2-0.2-0.3-0.3c-0.7-0.6-1.3-1.1-2-1.6c0,0,0,0,0,0c6.3,8.4,10,18.7,10,30c0,0.6,0,1.3,0,1.9   c-0.2,3.8-0.7,7.5-1.7,11.1c-4.4,17.9-16.6,38-29.8,48.9c0.4,1,0.6,2,0.6,3.1c0,5-4,9-9,9c-3.2,0-6-1.7-7.6-4.2   c-0.8,0.1-1.6,0.2-2.4,0.2c-5.8,0-12-2.9-18-7.8c0.1,0.2,0.3,0.3,0.4,0.5c0.2,0.3,0.5,0.6,0.8,0.9c0.4,0.5,0.8,0.9,1.2,1.4   c0.2,0.2,0.4,0.5,0.7,0.7c0.6,0.7,1.3,1.4,1.9,2c0,0,0,0.1,0.1,0.1c0.5,0.5,1.1,1.1,1.6,1.6c0,0,0,0,0.1,0.1c0.5,0.5,1.1,1,1.7,1.5   c0,0,0.1,0.1,0.1,0.1c0.5,0.5,1.1,0.9,1.6,1.3c0,0,0.1,0.1,0.1,0.1c0.6,0.4,1.1,0.9,1.7,1.3c0.1,0,0.1,0.1,0.2,0.1   c0.1,0.1,0.3,0.2,0.4,0.3c0.3,0.2,0.7,0.5,1,0.7c0.2,0.2,0.5,0.3,0.7,0.5c0.3,0.2,0.6,0.4,0.9,0.6c0.2,0.1,0.4,0.2,0.6,0.3   c0.1,0,0.2,0.1,0.3,0.2c0.4,0.2,0.8,0.5,1.3,0.7c0.2,0.1,0.4,0.2,0.7,0.3c0.4,0.2,0.8,0.4,1.1,0.5c0.1,0,0.2,0.1,0.3,0.1   c0.5,0.2,1,0.4,1.5,0.6c0.3,0.1,0.6,0.2,0.9,0.3c0.3,0.1,0.6,0.2,0.9,0.3c0.2,0.1,0.5,0.1,0.7,0.2c0.5,0.1,1,0.2,1.6,0.3   c0.2,0,0.5,0.1,0.7,0.1c0.2,0,0.4,0.1,0.6,0.1l0,0c0.6,0.1,1.2,0.1,1.8,0.1c18.8,0,41.9-30.8,48.3-57c1-3.6,1.5-7.2,1.7-11.1   c0-0.6,0-1.3,0-1.9C535,191.1,535,190.3,534.9,189.5z"></path>
</g>
<g>
	<path class="st35" d="M465,213.9c-12.1,0-22-9.9-22-22s9.9-22,22-22h40c12.1,0,22,9.9,22,22s-9.9,22-22,22H465z"></path>
</g>
<g>
	<path class="st1" d="M505,171.9c11,0,20,9,20,20s-9,20-20,20h-40c-11,0-20-9-20-20s9-20,20-20H505 M505,167.9h-40   c-13.2,0-24,10.8-24,24s10.8,24,24,24h40c13.2,0,24-10.8,24-24S518.2,167.9,505,167.9L505,167.9z"></path>
</g>
<g>
	<path class="st37" d="M466,205.4c-7.4,0-13.5-6.1-13.5-13.5s6.1-13.5,13.5-13.5h38c7.4,0,13.5,6.1,13.5,13.5s-6.1,13.5-13.5,13.5   H466z"></path>
</g>
<g>
	<path class="st1" d="M504,179.9c6.6,0,12,5.4,12,12s-5.4,12-12,12h-38c-6.6,0-12-5.4-12-12s5.4-12,12-12H504 M504,176.9h-38   c-8.3,0-15,6.7-15,15s6.7,15,15,15h38c8.3,0,15-6.7,15-15S512.3,176.9,504,176.9L504,176.9z"></path>
</g>
<g>
	<path class="st38" d="M451,191.9c0-8.3,6.7-15,15-15h38c2.6,0,5.1,0.7,7.2,1.9l5.7-2.9c-3.3-2.5-7.5-4-12-4h-40c-11,0-20,9-20,20   c0,6.6,3.2,12.3,8,16l5.7-2.9C454.1,202.4,451,197.5,451,191.9z"></path>
</g>
<g>
	<path class="st39" d="M466,176.9c-8.3,0-15,6.7-15,15c0,5.6,3.1,10.6,7.8,13.1l52.5-26.2c-2.2-1.2-4.6-1.9-7.2-1.9L466,176.9   L466,176.9z"></path>
</g>
<g>
	<path class="st1" d="M504,180.9c6.1,0,11,4.9,11,11s-4.9,11-11,11h-38c-6.1,0-11-4.9-11-11s4.9-11,11-11H504 M504,176.9h-38   c-8.3,0-15,6.7-15,15s6.7,15,15,15h38c8.3,0,15-6.7,15-15S512.3,176.9,504,176.9L504,176.9z"></path>
</g>
<g>
	<polygon class="st1" points="479,182.9 475,182.9 474,183.9 475,184.9 479,184.9 480,183.9  "></polygon>
</g>
<g>
	<polygon class="st1" points="479,190.9 475,190.9 474,191.9 475,192.9 479,192.9 480,191.9  "></polygon>
</g>
<g>
	<polygon class="st1" points="495,190.9 491,190.9 490,191.9 491,192.9 495,192.9 496,191.9  "></polygon>
</g>
<g>
	<polygon class="st1" points="507,190.9 503,190.9 502,191.9 503,192.9 507,192.9 508,191.9  "></polygon>
</g>
<g>
	<polygon class="st1" points="479,198.9 475,198.9 474,199.9 475,200.9 479,200.9 480,199.9  "></polygon>
</g>
<g>
	<polygon class="st1" points="480,185.9 480,189.9 481,190.9 482,189.9 482,185.9 481,184.9  "></polygon>
</g>
<g>
	<polygon class="st1" points="480,193.9 480,197.9 481,198.9 482,197.9 482,193.9 481,192.9  "></polygon>
</g>
<g>
	<polygon class="st1" points="461,190.9 462,189.9 462,185.9 461,184.9 460,185.9 460,189.9  "></polygon>
</g>
<g>
	<polygon class="st1" points="467,182.9 463,182.9 462,183.9 463,184.9 467,184.9 468,183.9  "></polygon>
</g>
<g>
	<polygon class="st1" points="467,198.9 463,198.9 462,199.9 463,200.9 467,200.9 468,199.9  "></polygon>
</g>
<g>
	<polygon class="st1" points="468,185.9 468,189.9 469,190.9 470,189.9 470,185.9 469,184.9  "></polygon>
</g>
<g>
	<polygon class="st1" points="468,193.9 468,197.9 469,198.9 470,197.9 470,193.9 469,192.9  "></polygon>
</g>
<g>
	<polygon class="st1" points="460,193.9 460,197.9 461,198.9 462,197.9 462,193.9 461,192.9  "></polygon>
</g>
<g>
	<rect x="484" y="187.9" class="st1" width="2" height="2"></rect>
</g>
<g>
	<rect x="484" y="193.9" class="st1" width="2" height="2"></rect>
</g>
<g>
	<rect x="478" y="223.9" class="st1" width="4" height="2"></rect>
</g>
<g>
	<polygon class="st1" points="483,219.9 483,221.9 485,221.9 485,229.9 487,229.9 487,221.9 489,221.9 489,219.9  "></polygon>
</g>
<g>
	<rect x="491" y="219.9" class="st1" width="2" height="10"></rect>
</g>
<g>
	<polygon class="st1" points="495,219.9 495,229.9 497,229.9 497,221.9 499,221.9 499,219.9  "></polygon>
</g>
<g>
	<rect x="499" y="221.9" class="st1" width="2" height="8"></rect>
</g>
<g>
	<polygon class="st1" points="501,219.9 501,221.9 503,221.9 503,229.9 505,229.9 505,219.9  "></polygon>
</g>
<g>
	<rect x="463" y="219.9" class="st1" width="2" height="4"></rect>
</g>
<g>
	<polygon class="st1" points="459,223.9 459,219.9 457,219.9 457,229.9 459,229.9 459,225.9 463,225.9 463,223.9  "></polygon>
</g>
<g>
	<rect x="463" y="225.9" class="st1" width="2" height="4"></rect>
</g>
<g>
	<rect x="473" y="221.9" class="st1" width="2" height="2"></rect>
</g>
<g>
	<polygon class="st1" points="469,223.9 469,221.9 473,221.9 473,219.9 467,219.9 467,229.9 473,229.9 473,227.9 469,227.9    469,225.9 473,225.9 473,223.9  "></polygon>
</g>
<g>
	<rect x="473" y="225.9" class="st1" width="2" height="2"></rect>
</g>
<g>
	<polygon class="st1" points="513,221.9 513,219.9 507,219.9 507,229.9 513,229.9 513,227.9 509,227.9 509,225.9 511,225.9    511,223.9 509,223.9 509,221.9  "></polygon>
</g>
<g>
	<path class="st1" d="M488,414.2c-5.8,0-12.7-4.5-14.9-17.4c-3.1-17.9-2.3-48.6,2.2-91.4c3.4-31.8,7.7-58.6,7.8-58.9   c0.2-1.1,1.2-1.8,2.3-1.6c1.1,0.2,1.8,1.2,1.7,2.3c-0.2,1.1-17.2,107.1-10,148.9c1.8,10.6,7,14.2,11.3,14c4.7-0.2,10-5,10.8-13.9   c2.3-23-0.3-48.3-3.3-77.6c-1.8-17.4-3.7-35.4-4.7-54.9c-0.1-1.1,0.8-2,1.9-2.1c1.1-0.1,2,0.8,2.1,1.9c1,19.3,2.9,37.3,4.7,54.7   c3.1,29.5,5.7,55,3.3,78.4c-0.8,8.4-6,17.2-14.6,17.5C488.2,414.2,488.1,414.2,488,414.2z"></path>
</g>
<g>
	<path d="M464.9,72.1c0,0.9-0.2,1.8-0.7,2.5s-1.2,1.3-2,1.7c-0.9,0.4-1.9,0.6-3.1,0.6c-1,0-1.8-0.1-2.5-0.2   c-0.7-0.1-1.4-0.4-2.1-0.7v-3.6c0.8,0.4,1.6,0.7,2.4,0.9c0.8,0.2,1.6,0.3,2.3,0.3c0.6,0,1-0.1,1.3-0.3s0.4-0.5,0.4-0.8   c0-0.2-0.1-0.4-0.2-0.5c-0.1-0.2-0.3-0.3-0.5-0.5s-0.9-0.5-2-1c-1-0.4-1.7-0.9-2.2-1.3s-0.8-0.9-1.1-1.4c-0.2-0.5-0.3-1.2-0.3-1.9   c0-1.4,0.5-2.5,1.5-3.2s2.4-1.2,4.1-1.2c1.5,0,3.1,0.4,4.8,1.1l-1.2,3.1c-1.4-0.6-2.6-1-3.6-1c-0.5,0-0.9,0.1-1.2,0.3   s-0.4,0.4-0.4,0.7c0,0.3,0.2,0.6,0.5,0.8s1.1,0.7,2.5,1.3c1.3,0.6,2.2,1.2,2.7,1.9C464.7,70.2,464.9,71.1,464.9,72.1z"></path>
</g>
<g>
	<path d="M477.9,66.4c0,1.7-0.5,3-1.5,3.9c-1,0.9-2.4,1.4-4.2,1.4h-1.1v5h-4v-15h5.2c1.9,0,3.3,0.4,4.3,1.2S477.9,64.9,477.9,66.4z    M471.1,68.4h0.7c0.6,0,1.1-0.2,1.5-0.5c0.4-0.3,0.5-0.8,0.5-1.4c0-1-0.6-1.5-1.7-1.5h-1V68.4z"></path>
</g>
<g>
	<path d="M489,76.6h-8.9v-15h8.9v3.2h-4.8v2.4h4.5v3.2h-4.5v2.8h4.8V76.6z"></path>
</g>
<g>
	<path d="M500.3,76.6h-8.9v-15h8.9v3.2h-4.8v2.4h4.5v3.2h-4.5v2.8h4.8V76.6z"></path>
</g>
<g>
	<path d="M515.4,68.8c0,2.5-0.7,4.4-2.1,5.8s-3.3,2-5.8,2h-4.8v-15h5.2c2.4,0,4.3,0.6,5.6,1.8C514.8,64.7,515.4,66.5,515.4,68.8z    M511.2,69c0-1.4-0.3-2.4-0.8-3.1c-0.5-0.7-1.4-1-2.5-1h-1.2v8.4h0.9c1.2,0,2.1-0.4,2.7-1.1S511.2,70.4,511.2,69z"></path>
</g>
<g>
	<path d="M446.7,97.6h-4V86H439v-3.3h11.4V86h-3.7V97.6z"></path>
</g>
<g>
	<path d="M466.3,90.1c0,2.5-0.6,4.4-1.9,5.8s-3,2-5.4,2c-2.3,0-4.2-0.7-5.4-2c-1.2-1.3-1.9-3.2-1.9-5.8c0-2.5,0.6-4.4,1.9-5.7   s3.1-2,5.4-2c2.4,0,4.2,0.7,5.4,2S466.3,87.6,466.3,90.1z M456,90.1c0,2.9,1,4.3,3,4.3c1,0,1.8-0.3,2.3-1.1   c0.5-0.7,0.7-1.8,0.7-3.3c0-1.5-0.2-2.6-0.8-3.3c-0.5-0.7-1.2-1.1-2.2-1.1C457,85.7,456,87.2,456,90.1z"></path>
</g>
<g>
	<path d="M480.1,88.9h6.5v8.1c-1.8,0.6-3.7,0.9-5.8,0.9c-2.3,0-4.1-0.7-5.4-2c-1.3-1.3-1.9-3.2-1.9-5.7c0-2.4,0.7-4.3,2.1-5.7   s3.3-2,5.8-2c0.9,0,1.8,0.1,2.7,0.3s1.6,0.4,2.2,0.7l-1.3,3.2c-1.1-0.5-2.3-0.8-3.6-0.8c-1.2,0-2.1,0.4-2.7,1.2   c-0.7,0.8-1,1.9-1,3.3c0,1.4,0.3,2.5,0.9,3.2c0.6,0.7,1.4,1.1,2.5,1.1c0.6,0,1.2-0.1,1.7-0.2V92h-2.7V88.9z"></path>
</g>
<g>
	<path d="M503.4,90.1c0,2.5-0.6,4.4-1.9,5.8s-3,2-5.4,2c-2.3,0-4.2-0.7-5.4-2s-1.9-3.2-1.9-5.8c0-2.5,0.6-4.4,1.9-5.7s3.1-2,5.4-2   c2.4,0,4.2,0.7,5.4,2S503.4,87.6,503.4,90.1z M493.1,90.1c0,2.9,1,4.3,3,4.3c1,0,1.8-0.3,2.3-1.1c0.5-0.7,0.7-1.8,0.7-3.3   c0-1.5-0.2-2.6-0.8-3.3c-0.5-0.7-1.2-1.1-2.2-1.1C494.1,85.7,493.1,87.2,493.1,90.1z"></path>
</g>
<g>
	<path d="M515.1,97.6l-0.7-2.8h-4.9l-0.8,2.8h-4.5l4.9-15.1h5.4l5,15.1H515.1z M513.5,91.5l-0.7-2.5c-0.2-0.6-0.3-1.2-0.5-2.1   c-0.2-0.9-0.4-1.5-0.4-1.9c-0.1,0.3-0.2,0.9-0.4,1.7s-0.6,2.4-1.2,4.7H513.5z"></path>
</g>
<g>
	<path d="M520.9,97.6v-15h4v11.7h5.8v3.3H520.9z"></path>
</g>
<g>
	<path d="M623.7,123.1h-4v-11.7H616v-3.3h11.4v3.3h-3.7V123.1z"></path>
</g>
<g>
	<path d="M638.2,123.1h-8.9v-15h8.9v3.2h-4.8v2.4h4.5v3.2h-4.5v2.8h4.8V123.1z"></path>
</g>
<g>
	<path d="M649.8,123.1l-0.7-2.8h-4.9l-0.8,2.8h-4.5l4.9-15.1h5.4l5,15.1H649.8z M648.2,117l-0.7-2.5c-0.2-0.6-0.3-1.2-0.5-2.1   c-0.2-0.9-0.4-1.5-0.4-1.9c-0.1,0.3-0.2,0.9-0.4,1.7s-0.6,2.4-1.2,4.7H648.2z"></path>
</g>
<g>
	<path d="M662.1,123.1l-3.1-10.8H659c0.1,1.8,0.2,3.3,0.2,4.3v6.5h-3.6v-15h5.4l3.1,10.6h0.1l3.1-10.6h5.4v15H669v-6.6   c0-0.3,0-0.7,0-1.1c0-0.4,0.1-1.4,0.1-3.1H669l-3,10.8H662.1z"></path>
</g>
<g>
	<path d="M690.7,118.6c0,0.9-0.2,1.8-0.7,2.5s-1.2,1.3-2,1.7c-0.9,0.4-1.9,0.6-3.1,0.6c-1,0-1.8-0.1-2.5-0.2s-1.4-0.4-2.1-0.7v-3.6   c0.8,0.4,1.6,0.7,2.4,0.9c0.8,0.2,1.6,0.3,2.3,0.3c0.6,0,1-0.1,1.3-0.3s0.4-0.5,0.4-0.8c0-0.2-0.1-0.4-0.2-0.5   c-0.1-0.2-0.3-0.3-0.5-0.5s-0.9-0.5-2-1c-1-0.4-1.7-0.9-2.2-1.3c-0.5-0.4-0.8-0.9-1.1-1.4c-0.2-0.5-0.3-1.2-0.3-1.9   c0-1.4,0.5-2.5,1.5-3.2s2.4-1.2,4.1-1.2c1.5,0,3.1,0.4,4.8,1.1l-1.2,3.1c-1.4-0.6-2.6-1-3.6-1c-0.5,0-0.9,0.1-1.2,0.3   s-0.4,0.4-0.4,0.7c0,0.3,0.2,0.6,0.5,0.8c0.3,0.2,1.1,0.7,2.5,1.3c1.3,0.6,2.2,1.2,2.7,1.9C690.5,116.7,690.7,117.6,690.7,118.6z"></path>
</g>
<g>
	<path d="M692.8,123.1v-15h4.1v15H692.8z"></path>
</g>
<g>
	<path d="M710.6,123.1H699v-2.5l6.5-9.2h-6.3v-3.3h11.4v2.5l-6.5,9.2h6.7L710.6,123.1L710.6,123.1z"></path>
</g>
<g>
	<path d="M721.5,123.1h-8.9v-15h8.9v3.2h-4.8v2.4h4.5v3.2h-4.5v2.8h4.8V123.1z"></path>
</g>
<g>
	<path d="M264.3,118.6c0,0.9-0.2,1.8-0.7,2.5s-1.1,1.3-2,1.7s-1.9,0.6-3.1,0.6c-1,0-1.8-0.1-2.5-0.2c-0.7-0.1-1.4-0.4-2.1-0.7v-3.6   c0.8,0.4,1.6,0.7,2.4,0.9c0.8,0.2,1.6,0.3,2.3,0.3c0.6,0,1-0.1,1.3-0.3s0.4-0.5,0.4-0.8c0-0.2-0.1-0.4-0.2-0.5   c-0.1-0.2-0.3-0.3-0.5-0.5s-0.9-0.5-2-1c-1-0.4-1.7-0.9-2.2-1.3s-0.9-0.9-1.1-1.4s-0.4-1.2-0.4-1.9c0-1.4,0.5-2.5,1.5-3.2   s2.4-1.2,4.1-1.2c1.5,0,3.1,0.4,4.8,1.1l-1.2,3.1c-1.4-0.6-2.6-1-3.6-1c-0.5,0-0.9,0.1-1.1,0.3s-0.4,0.4-0.4,0.7   c0,0.3,0.1,0.6,0.5,0.8s1.1,0.7,2.5,1.3c1.3,0.6,2.2,1.2,2.7,1.9C264,116.7,264.3,117.6,264.3,118.6z"></path>
	<path d="M275.3,123.1h-8.9v-15h8.9v3.2h-4.9v2.4h4.5v3.2h-4.5v2.8h4.9V123.1z"></path>
	<path d="M281.8,117.7v5.5h-4v-15h4.9c4.1,0,6.1,1.5,6.1,4.4c0,1.7-0.8,3.1-2.5,4l4.4,6.5H286l-3.2-5.5H281.8z M281.8,114.6h0.8   c1.4,0,2.1-0.6,2.1-1.9c0-1-0.7-1.6-2.1-1.6h-0.8V114.6z"></path>
	<path d="M300.2,108.2h4.5l-4.9,15H295l-4.9-15h4.5l2,7.6c0.4,1.7,0.7,2.9,0.7,3.5c0-0.5,0.1-1.1,0.3-1.8s0.3-1.3,0.4-1.7   L300.2,108.2z"></path>
	<path d="M306.1,123.1v-15h4.1v15H306.1z"></path>
	<path d="M319.9,111.2c-1,0-1.7,0.4-2.3,1.2c-0.5,0.8-0.8,1.9-0.8,3.3c0,2.9,1.1,4.3,3.3,4.3c0.7,0,1.3-0.1,1.9-0.3s1.2-0.4,1.9-0.7   v3.4c-1.2,0.6-2.7,0.8-4.2,0.8c-2.3,0-4-0.7-5.2-2s-1.8-3.2-1.8-5.7c0-1.6,0.3-2.9,0.9-4.1c0.6-1.2,1.4-2.1,2.5-2.7   c1.1-0.6,2.4-0.9,3.9-0.9c1.6,0,3.2,0.3,4.7,1.1l-1.2,3.2c-0.5-0.3-1.1-0.5-1.7-0.7S320.5,111.2,319.9,111.2z"></path>
	<path d="M335.5,123.1h-8.9v-15h8.9v3.2h-4.8v2.4h4.5v3.2h-4.5v2.8h4.8V123.1z"></path>
	<path d="M347.7,118.6c0,0.9-0.2,1.8-0.7,2.5s-1.2,1.3-2,1.7c-0.9,0.4-1.9,0.6-3.1,0.6c-1,0-1.8-0.1-2.5-0.2   c-0.7-0.1-1.4-0.4-2.1-0.7v-3.6c0.8,0.4,1.6,0.7,2.4,0.9c0.8,0.2,1.6,0.3,2.3,0.3c0.6,0,1-0.1,1.3-0.3s0.4-0.5,0.4-0.8   c0-0.2-0.1-0.4-0.2-0.5c-0.1-0.2-0.3-0.3-0.5-0.5s-0.9-0.5-2-1c-1-0.4-1.7-0.9-2.2-1.3s-0.8-0.9-1.1-1.4c-0.2-0.5-0.3-1.2-0.3-1.9   c0-1.4,0.5-2.5,1.5-3.2s2.4-1.2,4.1-1.2c1.5,0,3.1,0.4,4.8,1.1l-1.2,3.1c-1.4-0.6-2.6-1-3.6-1c-0.5,0-0.9,0.1-1.2,0.3   s-0.4,0.4-0.4,0.7c0,0.3,0.2,0.6,0.5,0.8s1.1,0.7,2.5,1.3c1.3,0.6,2.2,1.2,2.7,1.9C347.5,116.7,347.7,117.6,347.7,118.6z"></path>
</g>
<g>
	<rect x="324.5" y="153" class="st9" width="36" height="14"></rect>
</g>
<g>
	<polygon class="st1" points="489,190.9 490,189.9 490,185.9 489,184.9 488,185.9 488,189.9  "></polygon>
</g>
<g>
	<polygon class="st1" points="495,182.9 491,182.9 490,183.9 491,184.9 495,184.9 496,183.9  "></polygon>
</g>
<g>
	<polygon class="st1" points="495,198.9 491,198.9 490,199.9 491,200.9 495,200.9 496,199.9  "></polygon>
</g>
<g>
	<polygon class="st1" points="496,185.9 496,189.9 497,190.9 498,189.9 498,185.9 497,184.9  "></polygon>
</g>
<g>
	<polygon class="st1" points="496,193.9 496,197.9 497,198.9 498,197.9 498,193.9 497,192.9  "></polygon>
</g>
<g>
	<polygon class="st1" points="488,193.9 488,197.9 489,198.9 490,197.9 490,193.9 489,192.9  "></polygon>
</g>
<g>
	<polygon class="st1" points="501,190.9 502,189.9 502,185.9 501,184.9 500,185.9 500,189.9  "></polygon>
</g>
<g>
	<polygon class="st1" points="507,182.9 503,182.9 502,183.9 503,184.9 507,184.9 508,183.9  "></polygon>
</g>
<g>
	<polygon class="st1" points="507,198.9 503,198.9 502,199.9 503,200.9 507,200.9 508,199.9  "></polygon>
</g>
<g>
	<polygon class="st1" points="508,185.9 508,189.9 509,190.9 510,189.9 510,185.9 509,184.9  "></polygon>
</g>
<g>
	<polygon class="st1" points="508,193.9 508,197.9 509,198.9 510,197.9 510,193.9 509,192.9  "></polygon>
</g>
<g>
	<polygon class="st1" points="500,193.9 500,197.9 501,198.9 502,197.9 502,193.9 501,192.9  "></polygon>
</g>
</svg>
