<?xml version="1.0" encoding="utf-8"?>
<!-- Generator: Adobe Illustrator 25.3.1, SVG Export Plug-In . SVG Version: 6.00 Build 0)  -->
<svg version="1.1" id="remarketing-not-working" xmlns="http://www.w3.org/2000/svg" xmlns:xlink="http://www.w3.org/1999/xlink"
	 x="0px" y="0px" viewBox="0 0 400 400" style="enable-background:new 0 0 400 400;" xml:space="preserve">
<style type="text/css">
	.st0{fill:#FFFFFF;}
	.st1{fill:#515979;}
	.st2{fill:#AAA0FF;}
	.st3{fill:#667683;}
	.st4{fill:#EF7D7D;}
	.st5{fill:#FFE8A0;}
	.st6{fill:#7DDF96;}
	.st7{fill:#7170B2;}
	.st8{fill:#E3DDFF;}
	.st9{fill:#EEEBFF;}
	.st10{fill:#EBF5FD;}
	.st11{fill:#C3DEFF;}
	.st12{fill:#6ADAF7;}
</style>
<g>
	<g>
		<g>
			<g>
				<path class="st0" d="M59,309.5c-7.2,0-13-5.8-13-13v-226c0-7.2,5.8-13,13-13h180c7.2,0,13,5.8,13,13v226c0,7.2-5.8,13-13,13H59z
					"/>
			</g>
			<g>
				<path class="st1" d="M239,60.5c5.5,0,10,4.5,10,10v226c0,5.5-4.5,10-10,10H59c-5.5,0-10-4.5-10-10v-226c0-5.5,4.5-10,10-10H239
					 M239,54.5H59c-8.8,0-16,7.2-16,16v226c0,8.8,7.2,16,16,16h180c8.8,0,16-7.2,16-16v-226C255,61.7,247.8,54.5,239,54.5L239,54.5z
					"/>
			</g>
		</g>
		<g>
			<path class="st2" d="M239,306.5H59c-5.5,0-10-4.5-10-10v-54h200v54C249,302,244.5,306.5,239,306.5z"/>
		</g>
		<g>
			<rect x="49" y="94.5" class="st2" width="200" height="76"/>
		</g>
		<g>
			<g>
				<path class="st3" d="M49,91.5c-1.7,0-3-1.3-3-3v-18c0-7.2,5.8-13,13-13h180c7.2,0,13,5.8,13,13v18c0,1.7-1.3,3-3,3H49z"/>
			</g>
			<g>
				<path class="st1" d="M239,60.5c5.5,0,10,4.5,10,10v18H49v-18c0-5.5,4.5-10,10-10H239 M239,54.5H59c-8.8,0-16,7.2-16,16v18
					c0,3.3,2.7,6,6,6h200c3.3,0,6-2.7,6-6v-18C255,61.7,247.8,54.5,239,54.5L239,54.5z"/>
			</g>
		</g>
		<g>
			<g>
				<path class="st0" d="M139,81.5c-3.9,0-7-3.1-7-7s3.1-7,7-7h94c3.9,0,7,3.1,7,7s-3.1,7-7,7H139z"/>
			</g>
			<g>
				<g>
					<path class="st1" d="M233,70.5c2.2,0,4,1.8,4,4s-1.8,4-4,4h-94c-2.2,0-4-1.8-4-4s1.8-4,4-4H233 M233,64.5h-94
						c-5.5,0-10,4.5-10,10s4.5,10,10,10h94c5.5,0,10-4.5,10-10S238.5,64.5,233,64.5L233,64.5z"/>
				</g>
			</g>
		</g>
		<g>
			<g>
				<circle class="st4" cx="65" cy="74.5" r="7"/>
			</g>
			<g>
				<g>
					<path class="st1" d="M65,70.5c2.2,0,4,1.8,4,4s-1.8,4-4,4c-2.2,0-4-1.8-4-4S62.8,70.5,65,70.5 M65,64.5c-5.5,0-10,4.5-10,10
						s4.5,10,10,10s10-4.5,10-10S70.5,64.5,65,64.5L65,64.5z"/>
				</g>
			</g>
		</g>
		<g>
			<g>
				<circle class="st5" cx="89" cy="74.5" r="7"/>
			</g>
			<g>
				<g>
					<path class="st1" d="M89,70.5c2.2,0,4,1.8,4,4s-1.8,4-4,4c-2.2,0-4-1.8-4-4S86.8,70.5,89,70.5 M89,64.5c-5.5,0-10,4.5-10,10
						s4.5,10,10,10s10-4.5,10-10S94.5,64.5,89,64.5L89,64.5z"/>
				</g>
			</g>
		</g>
		<g>
			<g>
				<circle class="st6" cx="113" cy="74.5" r="7"/>
			</g>
			<g>
				<g>
					<path class="st1" d="M113,70.5c2.2,0,4,1.8,4,4s-1.8,4-4,4c-2.2,0-4-1.8-4-4S110.8,70.5,113,70.5 M113,64.5
						c-5.5,0-10,4.5-10,10s4.5,10,10,10s10-4.5,10-10S118.5,64.5,113,64.5L113,64.5z"/>
				</g>
			</g>
		</g>
		<g>
			<g>
				<circle class="st7" cx="125" cy="137" r="2.5"/>
			</g>
			<g>
				<circle class="st7" cx="130.5" cy="148" r="2.5"/>
			</g>
			<g>
				<circle class="st7" cx="119.5" cy="148" r="2.5"/>
			</g>
		</g>
		<g>
			<g>
				<circle class="st7" cx="195" cy="137" r="2.5"/>
			</g>
			<g>
				<circle class="st7" cx="200.5" cy="148" r="2.5"/>
			</g>
			<g>
				<circle class="st7" cx="189.5" cy="148" r="2.5"/>
			</g>
		</g>
		<g>
			<rect x="49" y="169.5" class="st8" width="200" height="74"/>
		</g>
		<g>
			<g>
				<path class="st0" d="M68,228.5h42c2.2,0,4-1.8,4-4v-36c0-2.2-1.8-4-4-4H68c-2.2,0-4,1.8-4,4v36C64,226.7,65.8,228.5,68,228.5z"
					/>
			</g>
			<g>
				<circle class="st9" cx="76" cy="196.5" r="6"/>
			</g>
			<g>
				<path class="st2" d="M106,210.5H72c-1.1,0-2-0.9-2-2l0,0c0-1.1,0.9-2,2-2h34c1.1,0,2,0.9,2,2l0,0
					C108,209.6,107.1,210.5,106,210.5z"/>
			</g>
			<g>
				<path class="st2" d="M92,218.5H72c-1.1,0-2-0.9-2-2l0,0c0-1.1,0.9-2,2-2h20c1.1,0,2,0.9,2,2l0,0C94,217.6,93.1,218.5,92,218.5z"
					/>
			</g>
		</g>
		<g>
			<g>
				<path class="st0" d="M188,228.5h42c2.2,0,4-1.8,4-4v-36c0-2.2-1.8-4-4-4h-42c-2.2,0-4,1.8-4,4v36
					C184,226.7,185.8,228.5,188,228.5z"/>
			</g>
			<g>
				<circle class="st9" cx="196" cy="196.5" r="6"/>
			</g>
			<g>
				<path class="st2" d="M226,210.5h-34c-1.1,0-2-0.9-2-2l0,0c0-1.1,0.9-2,2-2h34c1.1,0,2,0.9,2,2l0,0
					C228,209.6,227.1,210.5,226,210.5z"/>
			</g>
			<g>
				<path class="st2" d="M204,218.5h-12c-1.1,0-2-0.9-2-2l0,0c0-1.1,0.9-2,2-2h12c1.1,0,2,0.9,2,2l0,0
					C206,217.6,205.1,218.5,204,218.5z"/>
			</g>
		</g>
		<g>
			<g>
				<path class="st0" d="M128,228.5h42c2.2,0,4-1.8,4-4v-36c0-2.2-1.8-4-4-4h-42c-2.2,0-4,1.8-4,4v36
					C124,226.7,125.8,228.5,128,228.5z"/>
			</g>
			<g>
				<circle class="st9" cx="136" cy="196.5" r="6"/>
			</g>
			<g>
				<path class="st2" d="M166,210.5h-34c-1.1,0-2-0.9-2-2l0,0c0-1.1,0.9-2,2-2h34c1.1,0,2,0.9,2,2l0,0
					C168,209.6,167.1,210.5,166,210.5z"/>
			</g>
			<g>
				<path class="st2" d="M158,218.5h-26c-1.1,0-2-0.9-2-2l0,0c0-1.1,0.9-2,2-2h26c1.1,0,2,0.9,2,2l0,0
					C160,217.6,159.1,218.5,158,218.5z"/>
			</g>
		</g>
		<g>
			<circle class="st9" cx="89" cy="276.5" r="24"/>
		</g>
		<g>
			<circle class="st9" cx="149" cy="276.5" r="24"/>
		</g>
		<g>
			<circle class="st9" cx="209" cy="276.5" r="24"/>
		</g>
		<g>
			<g>
				<g>
					<path class="st1" d="M179.5,142c-0.3,0-0.6-0.1-0.9-0.2c-1.9-1-5.2-1-7.1,0c-1,0.5-2.2,0.2-2.7-0.8c-0.5-1-0.2-2.2,0.8-2.7
						c3.1-1.6,7.8-1.6,10.9,0c1,0.5,1.3,1.7,0.8,2.7C180.9,141.6,180.2,142,179.5,142z"/>
				</g>
				<g>
					<g>
						<circle class="st1" cx="175" cy="131.2" r="8"/>
					</g>
					<g>
						<circle class="st0" cx="177" cy="131.2" r="2"/>
					</g>
				</g>
				<g>
					<path class="st1" d="M169,115.7c0.7-0.5,1.3-0.9,2.1-1.2c0.7-0.3,1.4-0.5,2.2-0.7c1.5-0.3,3.2-0.4,4.8,0
						c0.8,0.2,1.6,0.5,2.4,0.8c0.4,0.2,0.7,0.4,1.1,0.7c0.4,0.2,0.7,0.5,1,0.8c1.3,1.1,2.1,2.5,2.6,4c0.4,1.1-0.2,2.2-1.3,2.6
						c-0.6,0.2-1.2,0.1-1.7-0.2l-0.4-0.2c-1-0.6-1.8-1.3-2.6-1.7c-0.8-0.4-1.6-0.7-2.5-0.9c-0.9-0.2-1.8-0.3-2.9-0.4
						c-0.5,0-1.1,0-1.6,0c-0.5,0-1.2,0.1-1.6,0l-0.6,0c-1.1-0.1-1.9-1-1.8-2.1C168.3,116.6,168.6,116.1,169,115.7z"/>
				</g>
				<g>
					<path class="st1" d="M149.5,142c-0.3,0-0.6-0.1-0.9-0.2c-1.9-1-5.2-1-7.1,0c-1,0.5-2.2,0.2-2.7-0.8c-0.5-1-0.2-2.2,0.8-2.7
						c3.1-1.6,7.8-1.6,10.9,0c1,0.5,1.3,1.7,0.8,2.7C150.9,141.6,150.2,142,149.5,142z"/>
				</g>
				<g>
					<g>
						<circle class="st1" cx="145" cy="131.2" r="8"/>
					</g>
					<g>
						<circle class="st0" cx="147" cy="131.2" r="2"/>
					</g>
				</g>
				<g>
					<path class="st1" d="M147.3,116c-0.5,0.1-1.1,0.1-1.6,0.1c-0.6,0-1.1,0.1-1.6,0.1c-1,0.1-2,0.3-2.8,0.6
						c-0.9,0.3-1.6,0.6-2.4,1.1c-0.8,0.5-1.5,1.2-2.4,1.9l-0.3,0.3c-0.9,0.7-2.2,0.5-2.9-0.4c-0.4-0.5-0.5-1.2-0.4-1.7
						c0.4-1.5,1.1-3,2.3-4.2c0.3-0.3,0.6-0.6,0.9-0.9c0.3-0.3,0.7-0.5,1-0.8c0.7-0.4,1.5-0.8,2.3-1c1.6-0.5,3.3-0.6,4.8-0.4
						c0.8,0.1,1.5,0.3,2.3,0.5c0.7,0.3,1.4,0.5,2.2,1c0.9,0.6,1.2,1.8,0.7,2.7c-0.3,0.5-0.8,0.8-1.4,0.9L147.3,116z"/>
				</g>
			</g>
			<g>
				<path class="st1" d="M144,149.3c-0.9,0-1.7-0.6-2-1.6c-0.2-1.1,0.4-2.1,1.5-2.4c10.9-2.4,22-2.4,32.9-0.1
					c1.1,0.2,1.8,1.3,1.5,2.4c-0.2,1.1-1.3,1.8-2.4,1.5c-10.3-2.2-20.8-2.2-31.1,0.1C144.3,149.3,144.1,149.3,144,149.3z"/>
			</g>
			<g>
				<path class="st1" d="M156.8,154.6c0.7,0.1,1.4,0.1,2.1,0.2c0.7,0,1.4,0.1,2.1,0.1c0.7,0,1.4,0,2.1-0.1c0.7,0,1.4-0.1,2.1-0.2
					c0.7-0.1,1.2,0.4,1.3,1.1c0,0.4-0.1,0.7-0.3,0.9l-0.4,0.4c-0.7,0.7-1.5,1.1-2.3,1.4c-0.8,0.3-1.7,0.4-2.5,0.4
					c-0.8,0-1.7-0.1-2.5-0.4c-0.8-0.3-1.6-0.7-2.3-1.4l-0.4-0.4c-0.5-0.5-0.5-1.2,0-1.7C156.1,154.7,156.4,154.6,156.8,154.6z"/>
			</g>
		</g>
	</g>
	<g>
		<g>
			<g>
				<path class="st10" d="M234,342.5c-3.3,0-6-2.7-6-6v-116c0-3.3,2.7-6,6-6h114c3.3,0,6,2.7,6,6v116c0,3.3-2.7,6-6,6H234z"/>
			</g>
			<g>
				<g>
					<path class="st1" d="M348,217.5c1.7,0,3,1.3,3,3v116c0,1.7-1.3,3-3,3H234c-1.7,0-3-1.3-3-3v-116c0-1.7,1.3-3,3-3H348
						 M348,211.5H234c-5,0-9,4-9,9v116c0,5,4,9,9,9h114c5,0,9-4,9-9v-116C357,215.5,353,211.5,348,211.5L348,211.5z"/>
				</g>
			</g>
		</g>
		<g>
			<g>
				<path class="st6" d="M254,328.5c-2.8,0-5-2.2-5-5v-8c0-2.8,2.2-5,5-5h74c2.8,0,5,2.2,5,5v8c0,2.8-2.2,5-5,5H254z"/>
			</g>
			<g>
				<g>
					<path class="st1" d="M328,313.5c1.1,0,2,0.9,2,2v8c0,1.1-0.9,2-2,2h-74c-1.1,0-2-0.9-2-2v-8c0-1.1,0.9-2,2-2H328 M328,307.5
						h-74c-4.4,0-8,3.6-8,8v8c0,4.4,3.6,8,8,8h74c4.4,0,8-3.6,8-8v-8C336,311.1,332.4,307.5,328,307.5L328,307.5z"/>
				</g>
			</g>
		</g>
		<g>
			<g>
				<circle class="st11" cx="257" cy="254.5" r="2"/>
			</g>
			<g>
				<circle class="st11" cx="265" cy="254.5" r="2"/>
			</g>
			<g>
				<circle class="st11" cx="261" cy="246.5" r="2"/>
			</g>
			<g>
				<circle class="st11" cx="317" cy="254.5" r="2"/>
			</g>
			<g>
				<circle class="st11" cx="325" cy="254.5" r="2"/>
			</g>
			<g>
				<circle class="st11" cx="321" cy="246.5" r="2"/>
			</g>
		</g>
		<g>
			<g>
				<g>
					<path class="st1" d="M306.1,247.3c-0.2,0-0.3,0-0.5-0.1c-1.6-0.6-4.4-0.6-6,0c-0.8,0.3-1.6-0.1-1.9-0.9
						c-0.3-0.8,0.1-1.6,0.9-1.9c2.2-0.8,5.7-0.8,8,0c0.8,0.3,1.2,1.1,0.9,1.9C307.3,246.9,306.7,247.3,306.1,247.3z"/>
				</g>
				<g>
					<g>
						<circle class="st1" cx="302.6" cy="239.1" r="6"/>
					</g>
					<g>
						<circle class="st0" cx="304.1" cy="239.1" r="1.5"/>
					</g>
				</g>
				<g>
					<path class="st1" d="M299.4,226.1c1.1-0.4,2-0.6,3-0.6c1,0,2,0.1,3,0.4c1,0.3,2,0.8,2.9,1.5c0.9,0.7,1.6,1.6,2,2.6
						c0.4,0.9,0,1.9-0.9,2.3c-0.4,0.2-0.9,0.2-1.2,0l-0.4-0.1c-0.7-0.3-1.3-0.6-1.9-0.8c-0.6-0.2-1.2-0.5-1.9-0.7l-2-0.6
						c-0.7-0.2-1.5-0.4-2.2-0.7l-0.4-0.2c-0.9-0.4-1.3-1.4-0.9-2.2C298.6,226.6,299,226.2,299.4,226.1z"/>
				</g>
			</g>
			<g>
				<g>
					<path class="st1" d="M276,247.3c-0.6,0-1.2-0.4-1.4-1c-0.3-0.8,0.1-1.6,0.9-1.9c2.2-0.8,5.7-0.8,8,0c0.8,0.3,1.2,1.1,0.9,1.9
						s-1.1,1.2-1.9,0.9c-1.6-0.6-4.4-0.6-6,0C276.4,247.3,276.2,247.3,276,247.3z"/>
				</g>
				<g>
					<g>
						<circle class="st1" cx="279.5" cy="239.1" r="6"/>
					</g>
					<g>
						<circle class="st0" cx="281" cy="239.1" r="1.5"/>
					</g>
				</g>
				<g>
					<path class="st1" d="M282.2,229.7c-0.7,0.3-1.5,0.5-2.2,0.7l-2,0.6c-0.7,0.2-1.2,0.4-1.9,0.7c-0.6,0.2-1.2,0.5-1.9,0.8
						l-0.4,0.1c-0.9,0.3-1.9-0.2-2.2-1c-0.1-0.4-0.1-0.9,0-1.2c0.4-1,1.1-1.9,2-2.6c0.9-0.7,1.8-1.2,2.9-1.5c1-0.3,2-0.4,3-0.4
						c1,0,2,0.2,3,0.6c0.9,0.4,1.3,1.3,0.9,2.2c-0.2,0.4-0.5,0.8-0.9,0.9L282.2,229.7z"/>
				</g>
			</g>
		</g>
		<g>
			<path class="st1" d="M333.5,279.5h-85c-1.4,0-2.5-1.1-2.5-2.5l0,0c0-1.4,1.1-2.5,2.5-2.5h85c1.4,0,2.5,1.1,2.5,2.5l0,0
				C336,278.4,334.9,279.5,333.5,279.5z"/>
		</g>
		<g>
			<path class="st1" d="M317.5,290.5h-69c-1.4,0-2.5-1.1-2.5-2.5l0,0c0-1.4,1.1-2.5,2.5-2.5h69c1.4,0,2.5,1.1,2.5,2.5l0,0
				C320,289.4,318.9,290.5,317.5,290.5z"/>
		</g>
		<g>
			<path class="st1" d="M299.5,301.5h-51c-1.4,0-2.5-1.1-2.5-2.5l0,0c0-1.4,1.1-2.5,2.5-2.5h51c1.4,0,2.5,1.1,2.5,2.5l0,0
				C302,300.4,300.9,301.5,299.5,301.5z"/>
		</g>
		<g>
			<g>
				<g>
					<path class="st1" d="M281,264.5c-1.1,0-2-0.9-2-2c0-6.6,5.4-12,12-12s12,5.4,12,12c0,1.1-0.9,2-2,2H281z"/>
				</g>
				<g>
					<path class="st1" d="M291,252.5c5.5,0,10,4.5,10,10h-20C281,256.9,285.5,252.5,291,252.5 M291,248.5c-7.7,0-14,6.3-14,14
						c0,2.2,1.8,4,4,4h20c2.2,0,4-1.8,4-4C305,254.7,298.7,248.5,291,248.5L291,248.5z"/>
				</g>
			</g>
			<g>
				<path class="st4" d="M291,258.3c-3,0-5.7,1.6-7.5,4.2h15C296.7,259.9,294,258.3,291,258.3z"/>
			</g>
		</g>
	</g>
	<g>
		<g>
			<g>
				<path class="st12" d="M339,239.5c-3.3,0-6-2.7-6-6c0-2.6,3-7.2,4.4-9.1c0.4-0.5,1-0.9,1.6-0.9s1.3,0.3,1.6,0.9
					c1.3,1.9,4.4,6.6,4.4,9.1C345,236.8,342.3,239.5,339,239.5z"/>
			</g>
			<g>
				<path class="st1" d="M339,225.5c0,0,4,5.8,4,8s-1.8,4-4,4c-2.2,0-4-1.8-4-4S339,225.5,339,225.5 M339,221.5
					c-1.3,0-2.5,0.6-3.3,1.7c-2.1,3.1-4.7,7.4-4.7,10.3c0,4.4,3.6,8,8,8c4.4,0,8-3.6,8-8c0-2.9-2.6-7.2-4.7-10.3
					C341.5,222.1,340.3,221.5,339,221.5L339,221.5z"/>
			</g>
		</g>
	</g>
	<g>
		<g>
			<g>
				<path class="st12" d="M243,265.5c-3.3,0-6-2.7-6-6c0-2.6,3-7.2,4.4-9.1c0.4-0.5,1-0.9,1.6-0.9s1.3,0.3,1.6,0.9
					c1.3,1.9,4.4,6.6,4.4,9.1C249,262.8,246.3,265.5,243,265.5z"/>
			</g>
			<g>
				<path class="st1" d="M243,251.5c0,0,4,5.8,4,8c0,2.2-1.8,4-4,4s-4-1.8-4-4C239,257.3,243,251.5,243,251.5 M243,247.5
					c-1.3,0-2.5,0.6-3.3,1.7c-2.1,3.1-4.7,7.4-4.7,10.3c0,4.4,3.6,8,8,8s8-3.6,8-8c0-2.9-2.6-7.2-4.7-10.3
					C245.5,248.1,244.3,247.5,243,247.5L243,247.5z"/>
			</g>
		</g>
	</g>
</g>
</svg>
