<svg id="Layer_1" data-name="Layer 1" xmlns="http://www.w3.org/2000/svg" viewBox="0 0 400 400"><defs><style>.cls-1{fill:#8988c9;}.cls-2{fill:#515979;}.cls-3{fill:#c7bcff;}.cls-4{fill:#fff;}.cls-5{fill:#ef7d7d;}.cls-6{fill:#f89d81;}.cls-7{fill:#00c853;}.cls-8{fill:#7ddf96;}</style></defs><path class="cls-1" d="M32.71,36.29H220.28A11.4,11.4,0,0,1,231.66,47.7h0v73.51a11.41,11.41,0,0,1-11.42,11.41H32.71a11.41,11.41,0,0,1-11.49-11.3V47.7A11.4,11.4,0,0,1,32.6,36.29Z"/><path class="cls-2" d="M220.28,40.09a7.61,7.61,0,0,1,7.65,7.58v73.54a7.59,7.59,0,0,1-7.59,7.59H32.71a7.61,7.61,0,0,1-7.61-7.59V47.7a7.61,7.61,0,0,1,7.61-7.61H220.28m0-7.6H32.71A15.21,15.21,0,0,0,17.5,47.7v73.51A15.21,15.21,0,0,0,32.71,136.4H220.28a15.23,15.23,0,0,0,15.21-15.19V47.7A15.23,15.23,0,0,0,220.28,32.49Z"/><path class="cls-3" d="M55.53,36.29H243.09A11.41,11.41,0,0,1,254.51,47.7h0v73.51a11.42,11.42,0,0,1-11.4,11.41H55.53a11.39,11.39,0,0,1-11.4-11.4h0V47.7A11.39,11.39,0,0,1,55.51,36.29Z"/><path class="cls-2" d="M243.09,40.09a7.61,7.61,0,0,1,7.6,7.61v73.51a7.59,7.59,0,0,1-7.6,7.59H55.53a7.61,7.61,0,0,1-7.62-7.59V47.7a7.62,7.62,0,0,1,7.62-7.61H243.09m0-7.6H55.53A15.21,15.21,0,0,0,40.31,47.7v73.51A15.21,15.21,0,0,0,55.53,136.4H243.09a15.23,15.23,0,0,0,15.22-15.19V47.7A15.24,15.24,0,0,0,243.09,32.49Z"/><path class="cls-2" d="M174,64.93a2.5,2.5,0,0,1-1.19-.3,11.05,11.05,0,0,0-9,0,2.54,2.54,0,0,1-2.41-4.47h0a16,16,0,0,1,13.8,0A2.53,2.53,0,0,1,174,64.93Z"/><circle class="cls-2" cx="168.32" cy="52.56" r="8.86"/><circle class="cls-4" cx="170.54" cy="52.56" r="2.22"/><path class="cls-2" d="M162,23.4a12.27,12.27,0,0,1,2.18-1.54,14.11,14.11,0,0,1,2.4-1,13.34,13.34,0,0,1,5.4-.48,11,11,0,0,1,5.33,2.06,9.85,9.85,0,0,1,3.39,4.29,2.61,2.61,0,0,1-3.41,3.39l-.58-.25a30.84,30.84,0,0,0-3-1.3,12.41,12.41,0,0,0-2.7-.67,17.73,17.73,0,0,0-3.09-.15h-1.75a9.28,9.28,0,0,1-1.75,0l-1-.11a2.52,2.52,0,0,1-2.23-2.78,2.55,2.55,0,0,1,.81-1.58Z"/><path class="cls-2" d="M136,64.93a2.5,2.5,0,0,1-1.19-.3,11.05,11.05,0,0,0-9,0,2.54,2.54,0,1,1-2.4-4.47h0a16.08,16.08,0,0,1,13.82,0A2.53,2.53,0,0,1,136,64.93Z"/><circle class="cls-2" cx="130.3" cy="52.56" r="8.86"/><circle class="cls-4" cx="132.51" cy="52.56" r="2.22"/><path class="cls-2" d="M134.19,27.87h-3.5a17.68,17.68,0,0,0-3.09.15,11.86,11.86,0,0,0-2.7.67,29.85,29.85,0,0,0-3,1.3l-.56.25a2.59,2.59,0,0,1-3.41-3.39,9.6,9.6,0,0,1,3.39-4.29,10.87,10.87,0,0,1,5.33-2.06A13.34,13.34,0,0,1,132,21a13.12,13.12,0,0,1,2.38,1,11.19,11.19,0,0,1,2.18,1.55,2.5,2.5,0,0,1,.22,3.52v0a2.49,2.49,0,0,1-1.62.82Z"/><path class="cls-2" d="M149.31,93.33A20.3,20.3,0,0,1,129,73.05a2.53,2.53,0,0,1,2.53-2.53h35.5a2.53,2.53,0,0,1,2.53,2.53h0A20.32,20.32,0,0,1,149.31,93.33Z"/><path class="cls-2" d="M167.06,73.05h0m0,0a17.75,17.75,0,0,1-35.5,0h35.5m0-5.09h-35.5A5.07,5.07,0,0,0,126.5,73v0a22.81,22.81,0,1,0,45.62.2v-.2a5.07,5.07,0,0,0-5-5.09Z"/><ellipse class="cls-5" cx="149.31" cy="84.87" rx="13.2" ry="5.92"/><path class="cls-4" d="M91.71,110.33h.62a1.39,1.39,0,0,0,1.22-.52l3.73-5.44a1.78,1.78,0,0,1,.71-.59,2.35,2.35,0,0,1,1-.17h3.35l-4.92,6.72a3.32,3.32,0,0,1-1.13,1,2.62,2.62,0,0,1,.78.44,3.33,3.33,0,0,1,.67.73l5,7.73H99.25a2.62,2.62,0,0,1-.56,0,3.24,3.24,0,0,1-.41-.13l-.29-.23-.25-.29L94,113.79a1.12,1.12,0,0,0-.52-.44,2,2,0,0,0-.84-.13h-.93v7.07H87.87V103.61h3.86Z"/><path class="cls-4" d="M109,106.57v3.89h5.22v2.85H109v4h6.82v3H105V103.61h10.7v3Z"/><path class="cls-4" d="M127.37,113.91v6.33h-3.85v-6.33l-6-10.3h3.39a1.2,1.2,0,0,1,.8.24,1.9,1.9,0,0,1,.49.6l2.34,4.84.54,1.06c.15.33.3.65.41,1,.11-.32.26-.65.39-1s.34-.67.53-1l2.32-4.84a1.61,1.61,0,0,1,.21-.3l.26-.28.35-.19a1.14,1.14,0,0,1,.45,0h3.41Z"/><path class="cls-4" d="M158.38,103.61l-5.12,16.63h-3.54l-3.13-10.32a2.23,2.23,0,0,0-.17-.52c-.06-.2-.11-.41-.15-.61a1.18,1.18,0,0,1-.16.61,1.67,1.67,0,0,1-.17.52l-3.17,10.32h-3.5l-5.12-16.63h3.22a1.62,1.62,0,0,1,.86.22,1.14,1.14,0,0,1,.43.62l2.29,8.66a4.84,4.84,0,0,0,.2.89c.08.32.13.67.21,1a11.12,11.12,0,0,1,.5-1.86l2.68-8.66a1.28,1.28,0,0,1,.45-.58,1.4,1.4,0,0,1,.82-.26h1.13a1.24,1.24,0,0,1,.81.25,1.34,1.34,0,0,1,.46.59l2.68,8.66a15.06,15.06,0,0,1,.51,1.86,4,4,0,0,1,.18-1c.08-.3.13-.58.19-.86l2.29-8.66a1,1,0,0,1,.43-.58,1.4,1.4,0,0,1,.82-.26Z"/><path class="cls-4" d="M177.06,111.91a9,9,0,0,1-.62,3.36,7.76,7.76,0,0,1-1.75,2.7,7.85,7.85,0,0,1-2.72,1.86,9.85,9.85,0,0,1-7.05,0,7.82,7.82,0,0,1-4.49-4.49,9.12,9.12,0,0,1,0-6.7,7.58,7.58,0,0,1,1.75-2.7,8,8,0,0,1,2.74-1.87,9.38,9.38,0,0,1,3.51-.65,9.1,9.1,0,0,1,3.54.67,7.85,7.85,0,0,1,2.72,1.86,7.76,7.76,0,0,1,1.75,2.7A8.9,8.9,0,0,1,177.06,111.91Zm-3.93,0a6.63,6.63,0,0,0-.34-2.21,4.51,4.51,0,0,0-.91-1.68,4,4,0,0,0-1.47-1,5.39,5.39,0,0,0-3.95,0,3.91,3.91,0,0,0-1.47,1,4.86,4.86,0,0,0-.93,1.68,7.53,7.53,0,0,0-.32,2.21,7.73,7.73,0,0,0,.32,2.24,4.7,4.7,0,0,0,.93,1.66,3.78,3.78,0,0,0,1.47,1.06,5.71,5.71,0,0,0,3.95,0,3.88,3.88,0,0,0,1.47-1.06,4.43,4.43,0,0,0,.91-1.66,7.08,7.08,0,0,0,.34-2.24Z"/><path class="cls-4" d="M194.08,120.24h-3.5a1.49,1.49,0,0,1-1.38-.75l-2.78-4.82a1.3,1.3,0,0,0-.42-.45,1.39,1.39,0,0,0-.69-.15h-1v6.17h-3.86V103.61h5.4A11.44,11.44,0,0,1,189,104a6,6,0,0,1,2.08,1,4.18,4.18,0,0,1,1.16,1.57,5.34,5.34,0,0,1,.37,2,5.24,5.24,0,0,1-.22,1.53,4.37,4.37,0,0,1-.64,1.32,5.23,5.23,0,0,1-1,1.08,5.29,5.29,0,0,1-1.44.78,2.9,2.9,0,0,1,.71.49,3,3,0,0,1,.6.69Zm-8.2-8.81a3.89,3.89,0,0,0,1.35-.21,2.37,2.37,0,0,0,.91-.55,2.32,2.32,0,0,0,.5-.82,3.18,3.18,0,0,0,.19-1.1,2.2,2.2,0,0,0-.71-1.72,3.37,3.37,0,0,0-2.22-.61h-1.54v4.94Z"/><path class="cls-4" d="M211.69,111.91a8.87,8.87,0,0,1-.61,3.34,8,8,0,0,1-1.77,2.62,7.79,7.79,0,0,1-2.72,1.73,9.73,9.73,0,0,1-3.54.64h-6.46V103.61h6.46a9.51,9.51,0,0,1,3.54.63,7.71,7.71,0,0,1,4.47,4.36A8.73,8.73,0,0,1,211.69,111.91Zm-3.94,0a7.53,7.53,0,0,0-.32-2.21,5,5,0,0,0-.91-1.7,4.29,4.29,0,0,0-1.47-1.06,5.16,5.16,0,0,0-2-.37H200.5v10.69h2.57a4.81,4.81,0,0,0,2-.37,4,4,0,0,0,1.47-1.07,4.39,4.39,0,0,0,.91-1.67A7.73,7.73,0,0,0,207.75,111.91Z"/><path class="cls-5" d="M179.72,158H367.29a11.41,11.41,0,0,1,11.49,11.3v73.58a11.41,11.41,0,0,1-11.4,11.4H179.72a11.42,11.42,0,0,1-11.38-11.4V169.36A11.41,11.41,0,0,1,179.72,158Z"/><path class="cls-2" d="M367.29,161.77a7.59,7.59,0,0,1,7.61,7.58h0v73.47a7.6,7.6,0,0,1-7.6,7.6H179.72a7.59,7.59,0,0,1-7.65-7.54V169.36a7.59,7.59,0,0,1,7.59-7.59H367.29m0-7.62H179.72a15.25,15.25,0,0,0-15.21,15.21v73.47A15.25,15.25,0,0,0,179.72,258H367.29a15.23,15.23,0,0,0,15.21-15.21V169.36A15.24,15.24,0,0,0,367.29,154.15Z"/><path class="cls-6" d="M156.91,158H344.47a11.39,11.39,0,0,1,11.4,11.4v73.48a11.4,11.4,0,0,1-11.4,11.4H156.91a11.42,11.42,0,0,1-11.42-11.42h0V169.36A11.41,11.41,0,0,1,156.91,158Z"/><path class="cls-2" d="M344.47,161.77a7.6,7.6,0,0,1,7.62,7.58h0v73.47a7.6,7.6,0,0,1-7.6,7.6H156.91a7.6,7.6,0,0,1-7.6-7.6h0V169.36a7.59,7.59,0,0,1,7.6-7.59H344.47m0-7.62H156.91a15.25,15.25,0,0,0-15.22,15.21v73.47A15.25,15.25,0,0,0,156.91,258H344.47a15.23,15.23,0,0,0,15.22-15.21V169.36A15.24,15.24,0,0,0,344.47,154.15Z"/><path class="cls-2" d="M275.4,186.59a2.5,2.5,0,0,1-1.19-.3,11.05,11.05,0,0,0-9,0,2.54,2.54,0,1,1-2.41-4.47,16.15,16.15,0,0,1,13.82,0,2.53,2.53,0,0,1-1.21,4.77Z"/><circle class="cls-2" cx="269.7" cy="174.24" r="8.86"/><circle class="cls-4" cx="271.92" cy="174.24" r="2.22"/><path class="cls-2" d="M251.16,200.87a37.7,37.7,0,0,1-19.52-5.4,2.54,2.54,0,1,1,2.63-4.34c10.14,6.17,23.91,6.17,32.71,0a2.54,2.54,0,0,1,2.91,4.16A32.78,32.78,0,0,1,251.16,200.87Z"/><path class="cls-2" d="M245.4,204.82a19.74,19.74,0,0,0,5.29.78,16,16,0,0,0,2.68-.18,13,13,0,0,0,2.61-.6,1.68,1.68,0,0,1,1.75,2.76l-.91.95a6.82,6.82,0,0,1-2.91,1.73,9.48,9.48,0,0,1-3.22.41,9.78,9.78,0,0,1-1.62-.17,7.77,7.77,0,0,1-1.58-.39,8.09,8.09,0,0,1-2.91-1.58l-.85-.75a1.7,1.7,0,0,1-.19-2.41l0,0A1.75,1.75,0,0,1,245.4,204.82Z"/><path class="cls-2" d="M263.41,145.08a9.86,9.86,0,0,1,2.18-1.56,12.42,12.42,0,0,1,2.38-1,13,13,0,0,1,5.4-.5,10.91,10.91,0,0,1,5.33,2.12,9.62,9.62,0,0,1,3.39,4.28,2.61,2.61,0,0,1-1.4,3.41,2.55,2.55,0,0,1-2,0l-.49-.24a26.9,26.9,0,0,0-3-1.32,12.65,12.65,0,0,0-2.7-.65,18.84,18.84,0,0,0-3.09-.17h-1.74a17.42,17.42,0,0,1-1.77,0l-1-.1a2.54,2.54,0,0,1-2.26-2.73A2.48,2.48,0,0,1,263.41,145.08Z"/><path class="cls-2" d="M237.38,186.59a2.51,2.51,0,0,1-1.2-.3,11.05,11.05,0,0,0-9,0,2.54,2.54,0,0,1-3.43-1,2.58,2.58,0,0,1,1-3.45,16.18,16.18,0,0,1,13.8,0,2.53,2.53,0,0,1-1.21,4.77Z"/><circle class="cls-2" cx="231.68" cy="174.24" r="8.86"/><circle class="cls-4" cx="233.89" cy="174.24" r="2.22"/><path class="cls-2" d="M235.57,149.53a12.78,12.78,0,0,1-1.75,0h-1.75a19.88,19.88,0,0,0-3.09.17,13.12,13.12,0,0,0-2.7.65,26.75,26.75,0,0,0-3,1.32l-.58.23a2.58,2.58,0,0,1-3.38-1.35v0a2.6,2.6,0,0,1,0-2,9.85,9.85,0,0,1,3.39-4.29,11,11,0,0,1,5.23-2.21,13.26,13.26,0,0,1,7.81,1.51,11.42,11.42,0,0,1,2.18,1.56,2.51,2.51,0,0,1,.2,3.52,2.57,2.57,0,0,1-1.62.84Z"/><path class="cls-4" d="M193.09,232h.62a1.35,1.35,0,0,0,1.22-.54l3.73-5.44a2,2,0,0,1,.71-.59,2.42,2.42,0,0,1,1-.17h3.38L198.79,232a3.45,3.45,0,0,1-1.14,1,3,3,0,0,1,.8.44,3.36,3.36,0,0,1,.66.75l5,7.71h-3.44a2.81,2.81,0,0,1-.58,0,1.28,1.28,0,0,1-.39-.13.93.93,0,0,1-.3-.23,2.17,2.17,0,0,1-.24-.29l-3.72-5.79a1.35,1.35,0,0,0-.53-.45,2,2,0,0,0-.85-.13h-.93V242h-3.86V225.32h3.86Z"/><path class="cls-4" d="M210.37,228.25v3.87h5.24V235h-5.24v4h6.82v3H206.5V225.27h10.69v3Z"/><path class="cls-4" d="M228.66,235.57v6.33h-3.85v-6.33l-6-10.3h3.41a1.29,1.29,0,0,1,.78.24,1.66,1.66,0,0,1,.48.6l2.35,4.84c.21.37.37.72.54,1.06s.3.65.43,1a9.82,9.82,0,0,1,.39-1c.15-.32.32-.69.52-1.06l2.33-4.84.19-.3a1.11,1.11,0,0,1,.27-.26,1,1,0,0,1,.36-.21,1.55,1.55,0,0,1,.43,0h3.42Z"/><path class="cls-4" d="M259.78,225.27l-5.14,16.63h-3.48L248,231.66a3.74,3.74,0,0,1-.17-.54,1.42,1.42,0,0,0-.17-.62,1.14,1.14,0,0,1-.17.62,2.76,2.76,0,0,1-.16.54L244.19,242h-3.48l-5.14-16.63h3.24a1.41,1.41,0,0,1,.84.25,1.08,1.08,0,0,1,.44.59l2.28,8.68a5.22,5.22,0,0,0,.2.89c.08.34.13.66.21,1a10.87,10.87,0,0,1,.5-1.86l2.7-8.68a1.08,1.08,0,0,1,.43-.58,1.38,1.38,0,0,1,.82-.26h1.19a1.41,1.41,0,0,1,.82.24,1.51,1.51,0,0,1,.46.6l2.67,8.68a10.87,10.87,0,0,1,.5,1.86,4.9,4.9,0,0,1,.19-1c.05-.3.13-.58.2-.84l2.27-8.67a1.09,1.09,0,0,1,.45-.58,1.28,1.28,0,0,1,.82-.26Z"/><path class="cls-4" d="M278.46,233.52a9,9,0,0,1-.62,3.35,8.23,8.23,0,0,1-4.49,4.56,9.85,9.85,0,0,1-7.05,0,8.27,8.27,0,0,1-2.74-1.86,7.91,7.91,0,0,1-1.75-2.7,9,9,0,0,1-.62-3.35,9.09,9.09,0,0,1,.62-3.35,8.12,8.12,0,0,1,1.75-2.69,8.58,8.58,0,0,1,2.74-1.86,9.23,9.23,0,0,1,3.53-.63,9,9,0,0,1,3.52.65,8.17,8.17,0,0,1,2.74,1.86,8.43,8.43,0,0,1,1.75,2.7A9,9,0,0,1,278.46,233.52Zm-4,0a7.27,7.27,0,0,0-.32-2.22,4.91,4.91,0,0,0-.91-1.66,4,4,0,0,0-1.47-1.06,5.54,5.54,0,0,0-4,0,3.88,3.88,0,0,0-1.47,1.06,4.81,4.81,0,0,0-.91,1.66,8,8,0,0,0,0,4.45,4.81,4.81,0,0,0,.91,1.68,4.11,4.11,0,0,0,1.47,1,5.77,5.77,0,0,0,4,0,4.11,4.11,0,0,0,1.47-1,5,5,0,0,0,.91-1.68A7.34,7.34,0,0,0,274.49,233.52Z"/><path class="cls-4" d="M295.46,241.9H292a1.5,1.5,0,0,1-1.4-.73l-2.76-4.82a1.71,1.71,0,0,0-.42-.47,1.52,1.52,0,0,0-.69-.13h-1v6.15h-3.72V225.27h5.4a11.52,11.52,0,0,1,3.09.37,6,6,0,0,1,2.07,1,3.72,3.72,0,0,1,1.17,1.57,5.12,5.12,0,0,1,.35,1.86,5.64,5.64,0,0,1-.2,1.53,4.92,4.92,0,0,1-.65,1.32,4.72,4.72,0,0,1-1,1.1,5.29,5.29,0,0,1-1.44.78,4,4,0,0,1,.73.48,4.18,4.18,0,0,1,.57.69Zm-8.2-8.81a4.13,4.13,0,0,0,1.35-.2,2.81,2.81,0,0,0,.91-.54,2.37,2.37,0,0,0,.52-.84,3.62,3.62,0,0,0,.15-1,2.19,2.19,0,0,0-.71-1.71,3.31,3.31,0,0,0-2.22-.61h-1.6v4.93Z"/><path class="cls-4" d="M313.08,233.52a8.83,8.83,0,0,1-.62,3.33,7.71,7.71,0,0,1-4.47,4.36,9.32,9.32,0,0,1-3.54.63H298V225.21h6.44a9.73,9.73,0,0,1,3.54.64,8.19,8.19,0,0,1,2.72,1.73,8,8,0,0,1,1.75,2.62A8.78,8.78,0,0,1,313.08,233.52Zm-3.93,0a7,7,0,0,0-.34-2.22,4.26,4.26,0,0,0-.91-1.67,3.91,3.91,0,0,0-1.47-1.07,4.81,4.81,0,0,0-2-.37h-2.57v10.69h2.57a5.16,5.16,0,0,0,2-.37,4.43,4.43,0,0,0,1.47-1.06,4.52,4.52,0,0,0,.91-1.7A6.75,6.75,0,0,0,309.15,233.52Z"/><path class="cls-7" d="M58.06,279.63H245.62A11.41,11.41,0,0,1,257,291h0v73.51a11.39,11.39,0,0,1-11.4,11.39H58.06a11.4,11.4,0,0,1-11.4-11.39V291a11.4,11.4,0,0,1,11.4-11.39Z"/><path class="cls-2" d="M245.62,283.43a7.59,7.59,0,0,1,7.6,7.59h0v73.51a7.59,7.59,0,0,1-7.58,7.61H58.06a7.62,7.62,0,0,1-7.62-7.61V291a7.62,7.62,0,0,1,7.62-7.59H245.62m0-7.6H58.06A15.21,15.21,0,0,0,42.85,291v73.51a15.21,15.21,0,0,0,15.21,15.21H245.62a15.23,15.23,0,0,0,15.22-15.21V291A15.23,15.23,0,0,0,245.62,275.83Z"/><path class="cls-8" d="M80.82,279.63H268.44A11.41,11.41,0,0,1,279.85,291h0v73.51a11.39,11.39,0,0,1-11.39,11.39H80.82a11.39,11.39,0,0,1-11.4-11.39V291a11.39,11.39,0,0,1,11.4-11.39Z"/><path class="cls-2" d="M268.44,283.43A7.6,7.6,0,0,1,276,291h0v73.51a7.6,7.6,0,0,1-7.58,7.61H80.82a7.62,7.62,0,0,1-7.62-7.61V291a7.62,7.62,0,0,1,7.62-7.59H268.44m0-7.6H80.82A15.21,15.21,0,0,0,65.6,291v73.51a15.21,15.21,0,0,0,15.22,15.21H268.44a15.22,15.22,0,0,0,15.21-15.21V291A15.23,15.23,0,0,0,268.44,275.83Z"/><path class="cls-2" d="M174.65,332.85a20.29,20.29,0,0,1-20.27-20.28,2.53,2.53,0,0,1,2.53-2.53H192.4a2.53,2.53,0,0,1,2.53,2.53h0A20.29,20.29,0,0,1,174.65,332.85Z"/><path class="cls-2" d="M192.4,312.57h0m0,0a17.75,17.75,0,0,1-35.49,0H192.4m0-5.06H156.91a5.06,5.06,0,0,0-5.07,5.06h0a22.82,22.82,0,1,0,45.63.21v-.21A5.06,5.06,0,0,0,192.4,307.51Z"/><ellipse class="cls-5" cx="174.65" cy="324.4" rx="13.2" ry="5.92"/><path class="cls-2" d="M187.6,267a10.29,10.29,0,0,1,2.14-1.44,12,12,0,0,1,2.29-.94,13.74,13.74,0,0,1,5.14-.49,11.14,11.14,0,0,1,5.16,1.86,9.5,9.5,0,0,1,3.5,4,2.6,2.6,0,0,1-1.25,3.44,2.55,2.55,0,0,1-1.86.11l-.65-.22c-1.18-.39-2-.86-3-1.06a16.82,16.82,0,0,0-2.7-.56c-.95,0-2-.15-3.1-.15h-3.42l-1-.13a2.53,2.53,0,0,1-2.12-2.85A2.57,2.57,0,0,1,187.6,267Z"/><path class="cls-2" d="M159.48,271.53H156a20,20,0,0,0-3.07.15,17.7,17.7,0,0,0-2.7.55,27.26,27.26,0,0,0-3,1.07l-.65.22a2.61,2.61,0,0,1-3.28-1.64,2.55,2.55,0,0,1,.11-1.86,9.29,9.29,0,0,1,3.5-4,11.27,11.27,0,0,1,5.16-1.87,14,14,0,0,1,5.14.49,12,12,0,0,1,2.29.95,10.65,10.65,0,0,1,2.14,1.43,2.52,2.52,0,0,1,.3,3.54,2.48,2.48,0,0,1-1.55.87Z"/><path class="cls-2" d="M162,300.56a3.19,3.19,0,0,1-3.17-3.19,3.18,3.18,0,0,0-6.35,0,3.17,3.17,0,1,1-6.33,0v0a9.52,9.52,0,0,1,19,0A3.19,3.19,0,0,1,162,300.56Z"/><path class="cls-2" d="M200,300.56a3.19,3.19,0,0,1-3.17-3.19,3.17,3.17,0,0,0-6.33,0h0a3.17,3.17,0,1,1-6.33,0v0a9.51,9.51,0,0,1,19,0A3.2,3.2,0,0,1,200,300.56Z"/><path class="cls-4" d="M117.06,353.67h.61a1.37,1.37,0,0,0,1.23-.54l3.72-5.42a1.76,1.76,0,0,1,.71-.59,2.39,2.39,0,0,1,1-.17h3.35l-4.91,6.72a3.39,3.39,0,0,1-1.14,1,2.62,2.62,0,0,1,.78.44,3.67,3.67,0,0,1,.67.75l5,7.71h-4a1.56,1.56,0,0,1-.41-.15,1.29,1.29,0,0,1-.3-.22,2.86,2.86,0,0,1-.22-.3l-3.73-5.77a1.08,1.08,0,0,0-.5-.47,2.63,2.63,0,0,0-.82-.22h-.93v7.07h-3.85V346.89h3.85Z"/><path class="cls-4" d="M134.34,349.91v3.87h5.21v2.85h-5.21v4h6.81v3h-10.7V347h10.7v3Z"/><path class="cls-4" d="M152.62,357.25v6.31h-3.85v-6.31l-6-10.3h3.39a1.25,1.25,0,0,1,.8.22,2,2,0,0,1,.49.62l2.29,4.91.54,1.06c.15.34.3.67.41,1,.13-.33.26-.65.41-1s.32-.69.5-1.06l2.33-4.82a2.23,2.23,0,0,1,.2-.3,1.2,1.2,0,0,1,.27-.28,1.06,1.06,0,0,1,.35-.18,1.14,1.14,0,0,1,.45,0h3.4Z"/><path class="cls-4" d="M183.72,347l-5.12,16.61h-3.5l-3-10.3a3.24,3.24,0,0,1-.19-.52,2.34,2.34,0,0,0-.15-.62l-.17.62a1.67,1.67,0,0,1-.16.52l-3.17,10.3h-3.61L159.5,347h3.26a1.44,1.44,0,0,1,.83.22,1,1,0,0,1,.43.62l2.29,8.66a4.2,4.2,0,0,0,.21.89c.07.32.13.65.2,1a13.44,13.44,0,0,1,.5-1.86l2.69-8.66a1.18,1.18,0,0,1,.44-.57,1.25,1.25,0,0,1,.82-.27h1.14a1.36,1.36,0,0,1,.8.23,1.38,1.38,0,0,1,.46.61l2.69,8.66a17,17,0,0,1,.5,1.86,3.73,3.73,0,0,1,.19-.95c.07-.29.13-.59.2-.85l2.27-8.66a1.12,1.12,0,0,1,.43-.6,1.41,1.41,0,0,1,.82-.24Z"/><path class="cls-4" d="M202.42,355.25a9.19,9.19,0,0,1-.63,3.36,8.16,8.16,0,0,1-1.75,2.7,8,8,0,0,1-2.72,1.86,9.87,9.87,0,0,1-7.06,0,8.27,8.27,0,0,1-2.74-1.86,8.16,8.16,0,0,1-1.75-2.7,8.79,8.79,0,0,1-.63-3.36,8.56,8.56,0,0,1,.63-3.35,7.91,7.91,0,0,1,1.75-2.7,8.12,8.12,0,0,1,2.74-1.86,9.87,9.87,0,0,1,7.06,0A8.19,8.19,0,0,1,200,349.2a8.07,8.07,0,0,1,1.75,2.68A9.08,9.08,0,0,1,202.42,355.25Zm-3.95,0a7.52,7.52,0,0,0-.31-2.21,4.7,4.7,0,0,0-.93-1.68,3.92,3.92,0,0,0-1.48-1.06,4.82,4.82,0,0,0-1.95-.35,5,5,0,0,0-2,.35,3.92,3.92,0,0,0-1.48,1.06,4.7,4.7,0,0,0-.93,1.68,8,8,0,0,0,0,4.43,4.7,4.7,0,0,0,.93,1.68,3.76,3.76,0,0,0,1.48,1,5.21,5.21,0,0,0,2,.37,5,5,0,0,0,1.95-.37,3.76,3.76,0,0,0,1.48-1,4.7,4.7,0,0,0,.93-1.68,7.58,7.58,0,0,0,.31-2.22Z"/><path class="cls-4" d="M219.42,363.56h-3.5a1.48,1.48,0,0,1-1.38-.73L211.77,358a1.16,1.16,0,0,0-.43-.45,1.37,1.37,0,0,0-.69-.15h-1v6.15h-3.85V347h5.34a10.32,10.32,0,0,1,3.08.37,5.54,5.54,0,0,1,2.08,1,4.18,4.18,0,0,1,1.16,1.57,5.37,5.37,0,0,1,.15,3.48,4.47,4.47,0,0,1-.64,1.34,4.85,4.85,0,0,1-1,1.08,5.38,5.38,0,0,1-1.43.78,3.48,3.48,0,0,1,.7.51,2.49,2.49,0,0,1,.6.69Zm-8.25-8.81a4,4,0,0,0,1.34-.19,2.33,2.33,0,0,0,.92-.55,2.48,2.48,0,0,0,.5-.82,3.27,3.27,0,0,0,.17-1,2.16,2.16,0,0,0-.71-1.71,3.37,3.37,0,0,0-2.22-.62h-1.54v4.92Z"/><path class="cls-4" d="M237,355.25a9,9,0,0,1-.61,3.32,7.84,7.84,0,0,1-1.76,2.64,8.15,8.15,0,0,1-2.71,1.73,9.54,9.54,0,0,1-3.54.62H222V347h6.46a9.74,9.74,0,0,1,3.54.61,8.36,8.36,0,0,1,2.71,1.75,7.65,7.65,0,0,1,1.76,2.63A8.91,8.91,0,0,1,237,355.25Zm-3.95,0a7.65,7.65,0,0,0-.31-2.23,4.76,4.76,0,0,0-.92-1.68,4,4,0,0,0-1.47-1.06,5.11,5.11,0,0,0-2-.37h-2.57V360.6h2.57a5.11,5.11,0,0,0,2-.37,3.91,3.91,0,0,0,1.47-1.07,4.72,4.72,0,0,0,.92-1.67A7.72,7.72,0,0,0,233.09,355.25Z"/></svg>