<?xml version="1.0" encoding="utf-8"?>
<!-- Generator: Adobe Illustrator 25.4.1, SVG Export Plug-In . SVG Version: 6.00 Build 0)  -->
<svg version="1.1" id="what-is-google-ads" xmlns="http://www.w3.org/2000/svg" xmlns:xlink="http://www.w3.org/1999/xlink" x="0px"
	 y="0px" viewBox="0 0 400 400" style="enable-background:new 0 0 400 400;" xml:space="preserve">
<style type="text/css">
	.st0{fill:#515979;}
	.st1{fill:#FFFFFF;}
	.st2{fill:#D8EBFB;}
	.st3{fill:#2196F3;}
	.st4{fill:#1E78D2;}
	.st5{fill:#00C853;}
	.st6{fill:#329B87;}
	.st7{fill:#FDE1D9;}
	.st8{fill:#EF7D7D;}
	.st9{fill:#FBBD04;}
	.st10{fill:#438EDC;}
	.st11{fill:#34A952;}
	.st12{fill:none;}
</style>
<path class="st0" d="M337.69,264.12c-0.2,0-0.4-0.04-0.59-0.12c-0.76-0.33-1.11-1.21-0.78-1.97c0.66-1.53,1.3-3.08,1.91-4.61
	c0.3-0.77,1.18-1.15,1.95-0.85c0.77,0.3,1.15,1.17,0.85,1.95c-0.61,1.56-1.27,3.14-1.94,4.7
	C338.82,263.78,338.27,264.12,337.69,264.12z M342.67,250.94c-0.15,0-0.31-0.02-0.46-0.07c-0.79-0.26-1.22-1.1-0.96-1.89
	c0.51-1.57,1-3.17,1.46-4.75c0.23-0.79,1.06-1.25,1.86-1.03c0.8,0.23,1.25,1.06,1.03,1.86c-0.46,1.61-0.97,3.24-1.49,4.85
	C343.89,250.54,343.31,250.94,342.67,250.94z M346.39,237.38c-0.11,0-0.22-0.01-0.33-0.04c-0.81-0.18-1.32-0.98-1.14-1.79
	c0.36-1.61,0.7-3.25,1-4.87c0.15-0.82,0.94-1.36,1.75-1.2c0.81,0.15,1.35,0.94,1.2,1.75c-0.31,1.66-0.66,3.33-1.02,4.97
	C347.69,236.91,347.07,237.38,346.39,237.38z M51.48,225.68c-0.74,0-1.38-0.54-1.48-1.29c-0.24-1.67-0.45-3.36-0.62-5.03
	c-0.09-0.82,0.51-1.56,1.33-1.65c0.82-0.09,1.56,0.51,1.65,1.33c0.18,1.64,0.38,3.3,0.61,4.93c0.12,0.82-0.46,1.58-1.28,1.7
	C51.62,225.67,51.55,225.68,51.48,225.68z M348.81,223.54c-0.06,0-0.13,0-0.19-0.01c-0.82-0.1-1.4-0.85-1.3-1.68
	c0.21-1.63,0.39-3.3,0.54-4.94c0.08-0.83,0.82-1.44,1.63-1.35c0.83,0.08,1.43,0.81,1.35,1.63c-0.16,1.68-0.34,3.38-0.55,5.04
	C350.2,222.98,349.55,223.54,348.81,223.54z M50.17,211.68c-0.8,0-1.46-0.63-1.5-1.43c-0.08-1.67-0.13-3.38-0.16-5.07
	c-0.01-0.83,0.65-1.51,1.48-1.52c0.83-0.03,1.51,0.65,1.52,1.48c0.02,1.66,0.07,3.33,0.15,4.97c0.04,0.83-0.6,1.53-1.43,1.57
	C50.22,211.68,50.19,211.68,50.17,211.68z M349.92,209.52c-0.02,0-0.03,0-0.05,0c-0.83-0.03-1.48-0.72-1.45-1.55
	c0.05-1.63,0.08-3.31,0.08-4.97v-0.32c0-0.83,0.67-1.5,1.5-1.5s1.5,0.67,1.5,1.5V203c0,1.7-0.03,3.41-0.08,5.07
	C351.39,208.88,350.72,209.52,349.92,209.52z M50.16,197.62c-0.02,0-0.05,0-0.07,0c-0.83-0.04-1.47-0.74-1.43-1.57
	c0.08-1.67,0.18-3.38,0.31-5.06c0.06-0.83,0.78-1.44,1.61-1.38c0.83,0.06,1.44,0.79,1.38,1.61c-0.13,1.65-0.23,3.32-0.31,4.96
	C51.62,197,50.95,197.62,50.16,197.62z M349.71,195.14c-0.79,0-1.45-0.61-1.5-1.41c-0.1-1.65-0.23-3.32-0.39-4.96
	c-0.08-0.82,0.53-1.56,1.35-1.64c0.83-0.09,1.56,0.53,1.64,1.35c0.16,1.67,0.29,3.37,0.4,5.06c0.05,0.83-0.58,1.54-1.4,1.59
	C349.77,195.14,349.74,195.14,349.71,195.14z M51.44,183.63c-0.07,0-0.14,0-0.21-0.01c-0.82-0.11-1.39-0.87-1.28-1.69
	c0.23-1.67,0.5-3.36,0.78-5.01c0.14-0.82,0.92-1.36,1.73-1.22c0.82,0.14,1.36,0.92,1.22,1.73c-0.28,1.62-0.54,3.28-0.77,4.91
	C52.82,183.08,52.18,183.63,51.44,183.63z M348.19,181.17c-0.73,0-1.36-0.53-1.48-1.27c-0.26-1.64-0.54-3.29-0.85-4.9
	c-0.16-0.81,0.38-1.6,1.19-1.75c0.81-0.15,1.6,0.38,1.75,1.19c0.31,1.65,0.61,3.33,0.87,5c0.13,0.82-0.43,1.59-1.25,1.71
	C348.35,181.16,348.27,181.17,348.19,181.17z M54.03,169.81c-0.11,0-0.23-0.01-0.35-0.04c-0.81-0.19-1.3-1-1.11-1.81
	c0.39-1.64,0.81-3.3,1.25-4.92c0.22-0.8,1.04-1.27,1.84-1.05c0.8,0.22,1.27,1.04,1.05,1.84c-0.43,1.59-0.85,3.21-1.23,4.82
	C55.33,169.35,54.71,169.81,54.03,169.81z M345.37,167.4c-0.67,0-1.28-0.45-1.45-1.13c-0.4-1.59-0.84-3.21-1.31-4.8
	c-0.23-0.8,0.23-1.63,1.02-1.86c0.79-0.23,1.63,0.23,1.86,1.02c0.47,1.62,0.92,3.27,1.33,4.9c0.2,0.8-0.28,1.62-1.08,1.82
	C345.62,167.38,345.5,167.4,345.37,167.4z M57.91,156.3c-0.16,0-0.32-0.03-0.48-0.08c-0.78-0.27-1.21-1.12-0.94-1.9
	c0.54-1.6,1.12-3.21,1.72-4.79c0.29-0.77,1.15-1.17,1.93-0.87c0.77,0.29,1.17,1.16,0.87,1.93c-0.59,1.55-1.15,3.13-1.68,4.69
	C59.12,155.9,58.54,156.3,57.91,156.3z M341.27,153.95c-0.62,0-1.19-0.38-1.41-1c-0.55-1.55-1.14-3.12-1.75-4.65
	c-0.31-0.77,0.07-1.64,0.84-1.95c0.77-0.3,1.64,0.07,1.95,0.84c0.62,1.57,1.22,3.17,1.79,4.75c0.28,0.78-0.13,1.64-0.91,1.92
	C341.61,153.92,341.44,153.95,341.27,153.95z M63.06,143.19c-0.21,0-0.41-0.04-0.61-0.13c-0.76-0.34-1.09-1.23-0.75-1.98
	c0.69-1.55,1.42-3.09,2.16-4.6c0.36-0.74,1.26-1.05,2.01-0.69c0.74,0.36,1.05,1.26,0.69,2.01c-0.72,1.48-1.44,3-2.12,4.51
	C64.18,142.86,63.64,143.19,63.06,143.19z M335.92,140.97c-0.56,0-1.1-0.32-1.36-0.86c-0.7-1.49-1.43-2.99-2.18-4.46
	c-0.38-0.74-0.08-1.64,0.65-2.02c0.74-0.38,1.64-0.08,2.02,0.66c0.76,1.49,1.51,3.02,2.22,4.55c0.35,0.75,0.03,1.64-0.72,1.99
	C336.35,140.92,336.13,140.97,335.92,140.97z M69.42,130.62c-0.25,0-0.5-0.06-0.74-0.2c-0.72-0.41-0.97-1.32-0.56-2.04
	c0.83-1.47,1.7-2.94,2.58-4.38c0.43-0.71,1.36-0.93,2.06-0.5c0.71,0.43,0.93,1.36,0.5,2.06c-0.86,1.41-1.71,2.85-2.53,4.29
	C70.45,130.35,69.94,130.62,69.42,130.62z M329.38,128.55c-0.51,0-1.01-0.26-1.29-0.74c-0.83-1.41-1.7-2.83-2.59-4.24
	c-0.44-0.7-0.24-1.63,0.46-2.07c0.7-0.44,1.63-0.24,2.07,0.46c0.91,1.43,1.8,2.89,2.64,4.32c0.42,0.71,0.18,1.63-0.53,2.05
	C329.9,128.48,329.64,128.55,329.38,128.55z M76.93,118.72c-0.3,0-0.6-0.09-0.86-0.27c-0.68-0.47-0.85-1.41-0.37-2.09
	c0.96-1.38,1.97-2.76,2.98-4.11c0.5-0.66,1.44-0.8,2.1-0.3c0.66,0.5,0.8,1.44,0.3,2.1c-0.99,1.32-1.97,2.68-2.92,4.03
	C77.87,118.5,77.4,118.72,76.93,118.72z M321.7,116.79c-0.46,0-0.92-0.22-1.22-0.62c-0.96-1.33-1.96-2.67-2.98-3.98
	c-0.51-0.65-0.39-1.6,0.27-2.1c0.66-0.51,1.6-0.39,2.1,0.27c1.03,1.33,2.05,2.7,3.03,4.06c0.49,0.67,0.33,1.61-0.34,2.09
	C322.31,116.7,322,116.79,321.7,116.79z M85.51,107.58c-0.34,0-0.69-0.12-0.97-0.36c-0.63-0.54-0.71-1.48-0.17-2.11
	c1.09-1.29,2.22-2.57,3.34-3.82c0.56-0.61,1.51-0.66,2.12-0.1c0.61,0.56,0.66,1.5,0.1,2.12c-1.11,1.22-2.21,2.48-3.28,3.74
	C86.36,107.4,85.94,107.58,85.51,107.58z M312.95,105.79c-0.42,0-0.83-0.17-1.13-0.51c-1.07-1.23-2.2-2.47-3.33-3.69
	c-0.57-0.6-0.53-1.55,0.07-2.12c0.6-0.56,1.55-0.53,2.12,0.07c1.16,1.24,2.3,2.51,3.4,3.76c0.54,0.62,0.48,1.57-0.14,2.12
	C313.65,105.67,313.3,105.79,312.95,105.79z M95.1,97.29c-0.39,0-0.78-0.15-1.07-0.45c-0.58-0.59-0.57-1.54,0.02-2.12
	c1.2-1.18,2.44-2.35,3.68-3.49c0.61-0.56,1.56-0.52,2.12,0.09c0.56,0.61,0.52,1.56-0.09,2.12c-1.22,1.11-2.43,2.26-3.61,3.42
	C95.85,97.14,95.47,97.29,95.1,97.29z M303.21,95.65c-0.37,0-0.74-0.14-1.03-0.41c-1.19-1.13-2.42-2.26-3.66-3.36
	c-0.62-0.55-0.68-1.5-0.13-2.12c0.55-0.62,1.5-0.68,2.12-0.13c1.26,1.12,2.52,2.28,3.74,3.43c0.6,0.57,0.62,1.52,0.05,2.12
	C304,95.5,303.61,95.65,303.21,95.65z M105.59,87.93c-0.44,0-0.87-0.19-1.17-0.56c-0.52-0.64-0.42-1.59,0.22-2.11
	c1.31-1.06,2.65-2.11,3.99-3.13c0.66-0.5,1.6-0.37,2.1,0.29c0.5,0.66,0.37,1.6-0.29,2.1c-1.31,0.99-2.63,2.02-3.91,3.06
	C106.26,87.82,105.92,87.93,105.59,87.93z M292.57,86.46c-0.32,0-0.65-0.1-0.93-0.32c-1.29-1.02-2.63-2.03-3.96-3.01
	c-0.67-0.49-0.81-1.43-0.32-2.1c0.49-0.67,1.43-0.81,2.1-0.32c1.36,1,2.72,2.03,4.04,3.07c0.65,0.51,0.76,1.45,0.25,2.11
	C293.45,86.27,293.01,86.46,292.57,86.46z M116.9,79.6c-0.48,0-0.96-0.23-1.25-0.67c-0.46-0.69-0.27-1.62,0.42-2.08
	c1.4-0.94,2.84-1.86,4.26-2.74c0.7-0.44,1.63-0.22,2.06,0.49c0.44,0.7,0.22,1.63-0.49,2.06c-1.39,0.86-2.8,1.77-4.18,2.68
	C117.48,79.52,117.19,79.6,116.9,79.6z M281.11,78.3c-0.28,0-0.56-0.08-0.81-0.24c-1.38-0.89-2.81-1.78-4.23-2.62
	c-0.71-0.42-0.94-1.35-0.52-2.06c0.42-0.71,1.35-0.94,2.06-0.52c1.45,0.87,2.9,1.77,4.32,2.68c0.7,0.45,0.9,1.38,0.45,2.07
	C282.08,78.06,281.6,78.3,281.11,78.3z M128.94,72.37c-0.53,0-1.05-0.29-1.32-0.79c-0.39-0.73-0.12-1.64,0.61-2.03
	c1.48-0.8,2.99-1.58,4.5-2.33c0.74-0.37,1.64-0.07,2.01,0.68c0.37,0.74,0.07,1.64-0.68,2.01c-1.47,0.73-2.95,1.5-4.41,2.28
	C129.42,72.31,129.18,72.37,128.94,72.37z M268.93,71.24c-0.23,0-0.47-0.05-0.69-0.17c-1.47-0.76-2.97-1.51-4.46-2.22
	c-0.75-0.36-1.07-1.25-0.71-2c0.36-0.75,1.25-1.07,2-0.71c1.52,0.72,3.05,1.49,4.55,2.26c0.74,0.38,1.02,1.29,0.64,2.02
	C270,70.95,269.47,71.24,268.93,71.24z M141.59,66.3c-0.58,0-1.14-0.34-1.38-0.92c-0.32-0.76,0.03-1.64,0.8-1.97
	c1.54-0.65,3.12-1.29,4.69-1.89c0.77-0.3,1.64,0.09,1.94,0.86c0.3,0.77-0.09,1.64-0.86,1.94c-1.54,0.59-3.09,1.22-4.6,1.85
	C141.98,66.26,141.79,66.3,141.59,66.3z M256.14,65.36c-0.19,0-0.38-0.04-0.56-0.11c-1.53-0.62-3.1-1.22-4.65-1.79
	c-0.78-0.28-1.18-1.15-0.89-1.92s1.14-1.18,1.92-0.9c1.59,0.58,3.19,1.19,4.75,1.83c0.77,0.31,1.14,1.18,0.83,1.95
	C257.29,65.01,256.73,65.36,256.14,65.36z M154.77,61.44c-0.64,0-1.23-0.41-1.43-1.05c-0.25-0.79,0.19-1.63,0.98-1.88
	c1.61-0.51,3.24-0.99,4.86-1.45c0.79-0.22,1.63,0.24,1.85,1.04c0.22,0.8-0.24,1.63-1.04,1.85c-1.59,0.44-3.19,0.92-4.77,1.42
	C155.07,61.42,154.92,61.44,154.77,61.44z M242.86,60.71c-0.14,0-0.29-0.02-0.43-0.06c-1.58-0.47-3.19-0.92-4.79-1.34
	c-0.8-0.21-1.28-1.03-1.07-1.83c0.21-0.8,1.03-1.28,1.83-1.07c1.63,0.43,3.27,0.88,4.88,1.37c0.79,0.24,1.25,1.07,1.01,1.87
	C244.1,60.29,243.5,60.71,242.86,60.71z M168.35,57.84c-0.69,0-1.31-0.48-1.47-1.19c-0.17-0.81,0.34-1.61,1.15-1.78
	c1.65-0.35,3.33-0.68,4.98-0.98c0.81-0.15,1.59,0.4,1.74,1.21c0.15,0.82-0.4,1.6-1.21,1.74c-1.62,0.29-3.26,0.61-4.88,0.96
	C168.57,57.83,168.46,57.84,168.35,57.84z M229.21,57.34c-0.1,0-0.19-0.01-0.29-0.03c-1.63-0.32-3.27-0.62-4.89-0.88
	c-0.82-0.13-1.37-0.9-1.24-1.72c0.13-0.82,0.9-1.37,1.72-1.24c1.65,0.27,3.33,0.57,4.99,0.9c0.81,0.16,1.34,0.95,1.18,1.76
	C230.54,56.85,229.91,57.34,229.21,57.34z M182.22,55.54c-0.75,0-1.4-0.56-1.49-1.32c-0.1-0.82,0.49-1.57,1.31-1.67
	c1.67-0.2,3.36-0.37,5.05-0.51c0.82-0.07,1.55,0.54,1.62,1.37c0.07,0.83-0.54,1.55-1.37,1.62c-1.65,0.14-3.31,0.31-4.95,0.5
	C182.34,55.54,182.28,55.54,182.22,55.54z M215.31,55.27c-0.05,0-0.1,0-0.15-0.01c-1.64-0.17-3.31-0.31-4.96-0.42
	c-0.83-0.06-1.45-0.77-1.39-1.6c0.06-0.83,0.77-1.46,1.6-1.4c1.68,0.11,3.38,0.26,5.05,0.43c0.82,0.08,1.42,0.82,1.34,1.64
	C216.72,54.69,216.07,55.27,215.31,55.27z M196.25,54.55c-0.81,0-1.48-0.65-1.5-1.46c-0.02-0.83,0.63-1.52,1.46-1.54
	c1.26-0.03,2.52-0.04,3.79-0.05c0.43,0,0.85,0,1.28,0.01c0.83,0.01,1.5,0.68,1.49,1.51c-0.01,0.82-0.68,1.49-1.5,1.49
	c0,0-0.01,0-0.01,0c-0.44,0-0.89-0.02-1.32-0.01c-1.22,0-2.44,0.02-3.66,0.05C196.27,54.55,196.26,54.55,196.25,54.55z"/>
<path class="st1" d="M258.5,372c-3.31,0-6-2.69-6-6V252c0-3.31,2.69-6,6-6h114c3.31,0,6,2.69,6,6v97c0,0.8-0.32,1.56-0.88,2.12
	l-20,20c-0.56,0.56-1.33,0.88-2.12,0.88H258.5z"/>
<path class="st0" d="M372.5,249c1.66,0,3,1.34,3,3v97l-20,20h-97c-1.66,0-3-1.34-3-3V252c0-1.66,1.34-3,3-3H372.5 M372.5,243h-114
	c-4.96,0-9,4.04-9,9v114c0,4.96,4.04,9,9,9h97c1.59,0,3.12-0.63,4.24-1.76l20-20c1.13-1.13,1.76-2.65,1.76-4.24v-97
	C381.5,247.04,377.46,243,372.5,243L372.5,243z"/>
<path class="st2" d="M276.74,334.24c1.13-1.13,1.76-2.65,1.76-4.24v-81h-20c-1.66,0-3,1.34-3,3v103.19
	c0.45-0.26,0.87-0.57,1.24-0.95L276.74,334.24z"/>
<path class="st3" d="M348,314h-75c-1.38,0-2.5-1.12-2.5-2.5l0,0c0-1.38,1.12-2.5,2.5-2.5h75c1.38,0,2.5,1.12,2.5,2.5l0,0
	C350.5,312.88,349.38,314,348,314z"/>
<path class="st4" d="M278.5,314H273c-1.38,0-2.5-1.12-2.5-2.5l0,0c0-1.38,1.12-2.5,2.5-2.5h5.5V314z"/>
<path class="st0" d="M332,334h-59c-1.38,0-2.5-1.12-2.5-2.5l0,0c0-1.38,1.12-2.5,2.5-2.5h59c1.38,0,2.5,1.12,2.5,2.5l0,0
	C334.5,332.88,333.38,334,332,334z"/>
<path class="st0" d="M318,344h-45c-1.38,0-2.5-1.12-2.5-2.5l0,0c0-1.38,1.12-2.5,2.5-2.5h45c1.38,0,2.5,1.12,2.5,2.5l0,0
	C320.5,342.88,319.38,344,318,344z"/>
<path class="st0" d="M298,354h-25c-1.38,0-2.5-1.12-2.5-2.5l0,0c0-1.38,1.12-2.5,2.5-2.5h25c1.38,0,2.5,1.12,2.5,2.5l0,0
	C300.5,352.88,299.38,354,298,354z"/>
<path class="st5" d="M318,324h-45c-1.38,0-2.5-1.12-2.5-2.5l0,0c0-1.38,1.12-2.5,2.5-2.5h45c1.38,0,2.5,1.12,2.5,2.5l0,0
	C320.5,322.88,319.38,324,318,324z"/>
<path class="st6" d="M278.5,324H273c-1.38,0-2.5-1.12-2.5-2.5l0,0c0-1.38,1.12-2.5,2.5-2.5h5.5V324z"/>
<path class="st2" d="M355.5,372c-0.39,0-0.78-0.07-1.15-0.23c-1.12-0.46-1.85-1.56-1.85-2.77v-17c0-3.31,2.69-6,6-6h17
	c1.21,0,2.31,0.73,2.77,1.85c0.46,1.12,0.21,2.41-0.65,3.27l-20,20C357.05,371.7,356.28,372,355.5,372z"/>
<path class="st0" d="M375.5,349l-20,20v-17c0-1.66,1.34-3,3-3H375.5 M375.5,343h-17c-4.96,0-9,4.04-9,9v17
	c0,2.43,1.46,4.61,3.7,5.54c0.74,0.31,1.52,0.46,2.29,0.46c1.56,0,3.1-0.61,4.24-1.76l20-20c1.72-1.72,2.23-4.3,1.3-6.54
	C380.11,344.46,377.93,343,375.5,343L375.5,343z M375.5,355L375.5,355L375.5,355L375.5,355z"/>
<circle class="st7" cx="341.5" cy="288" r="2"/>
<circle class="st7" cx="349.5" cy="288" r="2"/>
<circle class="st7" cx="345.5" cy="280" r="2"/>
<circle class="st7" cx="281.5" cy="288" r="2"/>
<circle class="st7" cx="289.5" cy="288" r="2"/>
<circle class="st7" cx="285.5" cy="280" r="2"/>
<path class="st0" d="M330.53,282.78c-0.16,0-0.33-0.03-0.49-0.08c-1.6-0.55-4.42-0.55-6.02,0c-0.79,0.27-1.64-0.15-1.91-0.93
	s0.15-1.64,0.93-1.91c2.24-0.77,5.74-0.77,7.98,0c0.78,0.27,1.2,1.12,0.93,1.91C331.73,282.39,331.15,282.78,330.53,282.78z"/>
<circle class="st0" cx="327.03" cy="274.59" r="6"/>
<circle class="st1" cx="328.53" cy="274.59" r="1.5"/>
<path class="st0" d="M323.59,260.65c0.97-0.61,1.86-0.91,2.88-1.12c0.99-0.21,2.03-0.24,3.08-0.12c1.04,0.11,2.1,0.44,3.07,0.95
	c0.97,0.5,1.83,1.28,2.42,2.19c0.52,0.8,0.29,1.86-0.51,2.38c-0.38,0.24-0.81,0.32-1.22,0.25l-0.4-0.07
	c-0.78-0.13-1.39-0.32-2.04-0.43c-0.65-0.1-1.27-0.25-1.96-0.33l-2.11-0.25c-0.72-0.08-1.55-0.12-2.25-0.28l-0.42-0.09
	c-0.92-0.2-1.5-1.11-1.29-2.02C322.94,261.26,323.22,260.88,323.59,260.65z"/>
<path class="st0" d="M300.47,282.78c-0.62,0-1.2-0.39-1.42-1.01c-0.27-0.78,0.15-1.64,0.93-1.91c2.24-0.77,5.74-0.77,7.98,0
	c0.78,0.27,1.2,1.12,0.93,1.91c-0.27,0.78-1.12,1.2-1.91,0.93c-1.6-0.55-4.42-0.55-6.02,0C300.8,282.75,300.64,282.78,300.47,282.78
	z"/>
<circle class="st0" cx="303.97" cy="274.59" r="6"/>
<circle class="st1" cx="305.47" cy="274.59" r="1.5"/>
<path class="st0" d="M306.44,263.84c-0.7,0.15-1.53,0.2-2.25,0.28l-2.11,0.25c-0.68,0.08-1.3,0.22-1.96,0.33
	c-0.65,0.11-1.26,0.3-2.04,0.43l-0.39,0.07c-0.94,0.16-1.83-0.47-1.98-1.41c-0.07-0.44,0.03-0.87,0.25-1.22
	c0.59-0.92,1.45-1.69,2.42-2.19c0.96-0.52,2.02-0.84,3.07-0.95c1.05-0.12,2.08-0.08,3.08,0.12c1.01,0.21,1.9,0.51,2.88,1.12
	c0.79,0.5,1.03,1.55,0.54,2.34c-0.25,0.4-0.64,0.66-1.07,0.76L306.44,263.84z"/>
<path class="st0" d="M315.81,293.97c-4.55,0-9.21-1.07-13.25-3.21c-0.98-0.52-1.35-1.73-0.83-2.7s1.73-1.35,2.7-0.83
	c6.83,3.63,16.09,3.64,22.02,0.03c0.94-0.58,2.17-0.28,2.75,0.67c0.57,0.94,0.28,2.17-0.67,2.75
	C324.93,292.87,320.43,293.97,315.81,293.97z"/>
<path class="st0" d="M311.76,297.08c1.22,0.34,2.49,0.43,3.75,0.48c0.63,0.03,1.26-0.05,1.89-0.12c0.63-0.07,1.25-0.18,1.85-0.36
	c0.68-0.21,1.4,0.17,1.61,0.85c0.14,0.45,0.01,0.92-0.29,1.25l-0.79,0.85c-0.61,0.66-1.32,1-2.04,1.25
	c-0.73,0.21-1.48,0.32-2.23,0.27c-0.37-0.02-0.75-0.04-1.12-0.11c-0.37-0.06-0.74-0.15-1.09-0.27c-0.72-0.24-1.42-0.57-2.04-1.13
	l-0.74-0.66c-0.55-0.49-0.6-1.34-0.11-1.89C310.74,297.08,311.28,296.95,311.76,297.08z"/>
<path class="st1" d="M144.5,352c-3.31,0-6-2.69-6-6V232c0-3.31,2.69-6,6-6h114c3.31,0,6,2.69,6,6v97c0,0.8-0.32,1.56-0.88,2.12
	l-20,20c-0.56,0.56-1.33,0.88-2.12,0.88H144.5z"/>
<path class="st0" d="M258.5,229c1.66,0,3,1.34,3,3v97l-20,20h-97c-1.66,0-3-1.34-3-3V232c0-1.66,1.34-3,3-3H258.5 M258.5,223h-114
	c-4.96,0-9,4.04-9,9v114c0,4.96,4.04,9,9,9h97c1.59,0,3.12-0.63,4.24-1.76l20-20c1.13-1.13,1.76-2.65,1.76-4.24v-97
	C267.5,227.04,263.46,223,258.5,223L258.5,223z"/>
<path class="st2" d="M162.74,314.24c1.13-1.13,1.76-2.65,1.76-4.24v-81h-20c-1.66,0-3,1.34-3,3v103.19
	c0.45-0.26,0.87-0.57,1.24-0.95L162.74,314.24z"/>
<path class="st3" d="M228,294h-69c-1.38,0-2.5-1.12-2.5-2.5l0,0c0-1.38,1.12-2.5,2.5-2.5h69c1.38,0,2.5,1.12,2.5,2.5l0,0
	C230.5,292.88,229.38,294,228,294z"/>
<path class="st4" d="M164.5,294H159c-1.38,0-2.5-1.12-2.5-2.5l0,0c0-1.38,1.12-2.5,2.5-2.5h5.5V294z"/>
<path class="st0" d="M214,314h-55c-1.38,0-2.5-1.12-2.5-2.5l0,0c0-1.38,1.12-2.5,2.5-2.5h55c1.38,0,2.5,1.12,2.5,2.5l0,0
	C216.5,312.88,215.38,314,214,314z"/>
<path class="st0" d="M224,324h-65c-1.38,0-2.5-1.12-2.5-2.5l0,0c0-1.38,1.12-2.5,2.5-2.5h65c1.38,0,2.5,1.12,2.5,2.5l0,0
	C226.5,322.88,225.38,324,224,324z"/>
<path class="st0" d="M204,334h-45c-1.38,0-2.5-1.12-2.5-2.5l0,0c0-1.38,1.12-2.5,2.5-2.5h45c1.38,0,2.5,1.12,2.5,2.5l0,0
	C206.5,332.88,205.38,334,204,334z"/>
<path class="st5" d="M222,304h-63c-1.38,0-2.5-1.12-2.5-2.5l0,0c0-1.38,1.12-2.5,2.5-2.5h63c1.38,0,2.5,1.12,2.5,2.5l0,0
	C224.5,302.88,223.38,304,222,304z"/>
<path class="st6" d="M164.5,304H159c-1.38,0-2.5-1.12-2.5-2.5l0,0c0-1.38,1.12-2.5,2.5-2.5h5.5V304z"/>
<path class="st2" d="M241.5,352c-0.39,0-0.78-0.07-1.15-0.23c-1.12-0.46-1.85-1.56-1.85-2.77v-17c0-3.31,2.69-6,6-6h17
	c1.21,0,2.31,0.73,2.77,1.85c0.46,1.12,0.21,2.41-0.65,3.27l-20,20C243.05,351.7,242.28,352,241.5,352z"/>
<path class="st0" d="M261.5,329l-20,20v-17c0-1.66,1.34-3,3-3H261.5 M261.5,323h-17c-4.96,0-9,4.04-9,9v17
	c0,2.43,1.46,4.61,3.7,5.54c0.74,0.31,1.52,0.46,2.29,0.46c1.56,0,3.1-0.61,4.24-1.76l20-20c1.72-1.72,2.23-4.3,1.3-6.54
	C266.11,324.46,263.93,323,261.5,323L261.5,323z M261.5,335L261.5,335L261.5,335L261.5,335z"/>
<path class="st0" d="M217.03,258.59c-1.1,0-2-0.9-2-2c0-1.65-1.35-3-3-3s-3,1.35-3,3c0,1.1-0.9,2-2,2s-2-0.9-2-2c0-3.86,3.14-7,7-7
	s7,3.14,7,7C219.03,257.69,218.13,258.59,217.03,258.59z"/>
<path class="st0" d="M209.59,240.65c0.97-0.61,1.86-0.91,2.88-1.12c0.99-0.21,2.03-0.24,3.08-0.12c1.04,0.11,2.1,0.44,3.07,0.95
	c0.97,0.5,1.83,1.28,2.42,2.19c0.52,0.8,0.29,1.86-0.51,2.38c-0.38,0.24-0.81,0.32-1.22,0.25l-0.4-0.07
	c-0.78-0.13-1.39-0.32-2.04-0.43c-0.65-0.1-1.27-0.25-1.96-0.33l-2.11-0.25c-0.72-0.08-1.55-0.12-2.25-0.28l-0.42-0.09
	c-0.92-0.2-1.5-1.11-1.29-2.02C208.94,241.26,209.22,240.88,209.59,240.65z"/>
<path class="st0" d="M195.97,258.59c-1.1,0-2-0.9-2-2c0-1.65-1.35-3-3-3s-3,1.35-3,3c0,1.1-0.9,2-2,2s-2-0.9-2-2c0-3.86,3.14-7,7-7
	s7,3.14,7,7C197.97,257.69,197.08,258.59,195.97,258.59z"/>
<path class="st0" d="M192.44,243.84c-0.7,0.15-1.53,0.2-2.25,0.28l-2.11,0.25c-0.68,0.08-1.3,0.22-1.96,0.33
	c-0.65,0.11-1.26,0.3-2.04,0.43l-0.39,0.07c-0.94,0.16-1.83-0.47-1.98-1.41c-0.07-0.44,0.03-0.87,0.25-1.22
	c0.59-0.92,1.45-1.69,2.42-2.19c0.96-0.52,2.02-0.84,3.07-0.95c1.04-0.12,2.08-0.08,3.08,0.12c1.01,0.21,1.9,0.51,2.88,1.12
	c0.79,0.5,1.03,1.55,0.54,2.34c-0.25,0.4-0.64,0.66-1.07,0.76L192.44,243.84z"/>
<path class="st0" d="M213.51,262h-24c-2.21,0-4,1.79-4,4c0,8.82,7.18,16,16,16c8.77,0,15.91-7.09,16-15.84c0-0.05,0-0.11,0-0.16
	C217.5,263.79,215.71,262,213.51,262z"/>
<ellipse class="st8" cx="201.5" cy="274" rx="8.93" ry="4"/>
<circle class="st7" cx="227.5" cy="268" r="2"/>
<circle class="st7" cx="235.5" cy="268" r="2"/>
<circle class="st7" cx="231.5" cy="260" r="2"/>
<circle class="st7" cx="167.5" cy="268" r="2"/>
<circle class="st7" cx="175.5" cy="268" r="2"/>
<circle class="st7" cx="171.5" cy="260" r="2"/>
<path class="st1" d="M30.5,332c-3.31,0-6-2.69-6-6V212c0-3.31,2.69-6,6-6h114c3.31,0,6,2.69,6,6v97c0,0.8-0.32,1.56-0.88,2.12
	l-20,20c-0.56,0.56-1.33,0.88-2.12,0.88H30.5z"/>
<path class="st0" d="M144.5,209c1.66,0,3,1.34,3,3v97l-20,20h-97c-1.66,0-3-1.34-3-3V212c0-1.66,1.34-3,3-3H144.5 M144.5,203h-114
	c-4.96,0-9,4.04-9,9v114c0,4.96,4.04,9,9,9h97c1.59,0,3.12-0.63,4.24-1.76l20-20c1.13-1.13,1.76-2.65,1.76-4.24v-97
	C153.5,207.04,149.46,203,144.5,203L144.5,203z"/>
<path class="st3" d="M120,274H45c-1.38,0-2.5-1.12-2.5-2.5l0,0c0-1.38,1.12-2.5,2.5-2.5h75c1.38,0,2.5,1.12,2.5,2.5l0,0
	C122.5,272.88,121.38,274,120,274z"/>
<path class="st0" d="M110,294H45c-1.38,0-2.5-1.12-2.5-2.5l0,0c0-1.38,1.12-2.5,2.5-2.5h65c1.38,0,2.5,1.12,2.5,2.5l0,0
	C112.5,292.88,111.38,294,110,294z"/>
<path class="st0" d="M96,304H45c-1.38,0-2.5-1.12-2.5-2.5l0,0c0-1.38,1.12-2.5,2.5-2.5h51c1.38,0,2.5,1.12,2.5,2.5l0,0
	C98.5,302.88,97.38,304,96,304z"/>
<path class="st0" d="M80,314H45c-1.38,0-2.5-1.12-2.5-2.5l0,0c0-1.38,1.12-2.5,2.5-2.5h35c1.38,0,2.5,1.12,2.5,2.5l0,0
	C82.5,312.88,81.38,314,80,314z"/>
<path class="st5" d="M102,284H45c-1.38,0-2.5-1.12-2.5-2.5l0,0c0-1.38,1.12-2.5,2.5-2.5h57c1.38,0,2.5,1.12,2.5,2.5l0,0
	C104.5,282.88,103.38,284,102,284z"/>
<path class="st2" d="M127.5,332c-0.39,0-0.78-0.07-1.15-0.23c-1.12-0.46-1.85-1.56-1.85-2.77v-17c0-3.31,2.69-6,6-6h17
	c1.21,0,2.31,0.73,2.77,1.85s0.21,2.41-0.65,3.27l-20,20C129.05,331.7,128.28,332,127.5,332z"/>
<path class="st0" d="M147.5,309l-20,20v-17c0-1.66,1.34-3,3-3H147.5 M147.5,303h-17c-4.96,0-9,4.04-9,9v17
	c0,2.43,1.46,4.61,3.7,5.54c0.74,0.31,1.52,0.46,2.29,0.46c1.56,0,3.1-0.61,4.24-1.76l20-20c1.72-1.72,2.23-4.3,1.3-6.54
	C152.11,304.46,149.93,303,147.5,303L147.5,303z M147.5,315L147.5,315L147.5,315L147.5,315z"/>
<circle class="st7" cx="113.5" cy="248" r="2"/>
<circle class="st7" cx="121.5" cy="248" r="2"/>
<circle class="st7" cx="117.5" cy="240" r="2"/>
<circle class="st7" cx="53.5" cy="248" r="2"/>
<circle class="st7" cx="61.5" cy="248" r="2"/>
<circle class="st7" cx="57.5" cy="240" r="2"/>
<path class="st0" d="M102.53,242.78c-0.16,0-0.33-0.03-0.49-0.08c-1.6-0.55-4.42-0.55-6.02,0c-0.79,0.27-1.64-0.15-1.91-0.93
	c-0.27-0.78,0.15-1.64,0.93-1.91c2.24-0.77,5.74-0.77,7.98,0c0.78,0.27,1.2,1.12,0.93,1.91
	C103.73,242.39,103.15,242.78,102.53,242.78z"/>
<circle class="st0" cx="99.03" cy="234.59" r="6"/>
<circle class="st1" cx="100.53" cy="234.59" r="1.5"/>
<path class="st0" d="M95.59,220.65c0.97-0.61,1.86-0.91,2.88-1.12c0.99-0.21,2.03-0.24,3.08-0.12c1.04,0.11,2.1,0.44,3.07,0.95
	c0.97,0.5,1.83,1.28,2.42,2.19c0.52,0.8,0.29,1.86-0.51,2.38c-0.38,0.24-0.81,0.32-1.22,0.25l-0.4-0.07
	c-0.78-0.13-1.39-0.32-2.04-0.43c-0.65-0.1-1.27-0.25-1.96-0.33l-2.11-0.25c-0.72-0.08-1.55-0.12-2.25-0.28l-0.42-0.09
	c-0.92-0.2-1.5-1.11-1.29-2.02C94.94,221.26,95.22,220.88,95.59,220.65z"/>
<path class="st0" d="M72.47,242.78c-0.62,0-1.2-0.39-1.42-1.01c-0.27-0.78,0.15-1.64,0.93-1.91c2.24-0.77,5.74-0.77,7.98,0
	c0.78,0.27,1.2,1.12,0.93,1.91c-0.27,0.78-1.12,1.2-1.91,0.93c-1.6-0.55-4.42-0.55-6.02,0C72.8,242.75,72.64,242.78,72.47,242.78z"
	/>
<circle class="st0" cx="75.97" cy="234.59" r="6"/>
<circle class="st1" cx="77.47" cy="234.59" r="1.5"/>
<path class="st0" d="M78.44,223.84c-0.7,0.15-1.53,0.2-2.25,0.28l-2.11,0.25c-0.68,0.08-1.3,0.22-1.96,0.33
	c-0.65,0.11-1.26,0.3-2.04,0.43l-0.39,0.07c-0.94,0.16-1.83-0.47-1.98-1.41c-0.07-0.44,0.03-0.88,0.25-1.22
	c0.59-0.92,1.45-1.69,2.42-2.19c0.96-0.52,2.02-0.84,3.07-0.95c1.04-0.12,2.08-0.08,3.08,0.12c1.01,0.21,1.9,0.51,2.88,1.12
	c0.79,0.5,1.03,1.55,0.54,2.34c-0.25,0.4-0.64,0.66-1.07,0.76L78.44,223.84z"/>
<path class="st0" d="M87.81,253.97c-4.55,0-9.21-1.07-13.25-3.21c-0.98-0.52-1.35-1.73-0.83-2.71c0.52-0.97,1.73-1.35,2.7-0.83
	c6.83,3.63,16.09,3.64,22.02,0.03c0.94-0.58,2.17-0.28,2.75,0.67c0.57,0.94,0.27,2.17-0.67,2.75
	C96.93,252.87,92.43,253.97,87.81,253.97z"/>
<path class="st0" d="M83.76,257.08c1.22,0.34,2.49,0.43,3.75,0.48c0.63,0.03,1.26-0.05,1.89-0.12c0.63-0.07,1.25-0.18,1.85-0.36
	c0.68-0.21,1.4,0.17,1.61,0.85c0.14,0.45,0.01,0.92-0.29,1.25l-0.79,0.85c-0.61,0.66-1.32,1-2.04,1.25
	c-0.73,0.21-1.48,0.32-2.23,0.27c-0.37-0.02-0.75-0.04-1.12-0.11c-0.37-0.06-0.74-0.15-1.09-0.27c-0.72-0.24-1.42-0.57-2.04-1.13
	l-0.74-0.66c-0.55-0.49-0.6-1.34-0.11-1.89C82.74,257.08,83.28,256.95,83.76,257.08z"/>
<path class="st9" d="M136.58,156.4L136.58,156.4c-11.98-6.92-16.12-22.37-9.2-34.35l49.72-86.13c6.92-11.98,22.37-16.12,34.35-9.2
	l0,0c11.98,6.92,16.12,22.37,9.2,34.35l-49.72,86.13C164.02,159.17,148.57,163.32,136.58,156.4z"/>
<path class="st10" d="M261.45,156.03L261.45,156.03c-11.98,6.92-27.43,2.77-34.35-9.2L177.38,60.7c-6.92-11.98-2.77-27.43,9.2-34.35
	l0,0c11.98-6.92,27.43-2.77,34.35,9.2l49.72,86.13C277.57,133.65,273.42,149.12,261.45,156.03z"/>
<circle class="st11" cx="149.5" cy="134.25" r="25.5"/>
<rect class="st12" width="400" height="400"/>
</svg>
