<?xml version="1.0" encoding="utf-8"?>
<!-- Generator: Adobe Illustrator 25.2.3, SVG Export Plug-In . SVG Version: 6.00 Build 0)  -->
<svg version="1.1" id="cro-trends" xmlns="http://www.w3.org/2000/svg" xmlns:xlink="http://www.w3.org/1999/xlink" x="0px" y="0px"
	 viewBox="0 0 400 400" style="enable-background:new 0 0 400 400;" xml:space="preserve">
<style type="text/css">
	.st0{fill:#FFFFFF;}
	.st1{fill:#515979;}
	.st2{fill:#F89D81;}
	.st3{fill:#667683;}
	.st4{fill:#EF7D7D;}
	.st5{fill:#FFE8A0;}
	.st6{fill:#7DDF96;}
	.st7{fill:#FDE1D9;}
	.st8{fill:#75A5C3;}
	.st9{opacity:0.5;}
	.st10{fill:#ACC9DB;}
	.st11{display:none;}
	.st12{display:inline;fill:#FFFFFF;}
	.st13{display:inline;fill:#515979;}
	.st14{display:inline;fill:#D8EBFB;}
	.st15{fill:#D8F5DF;}
	.st16{fill:#FFF8E2;}
	.st17{fill:#FAD8D8;}
	.st18{display:inline;}
	.st19{fill:none;stroke:#515979;stroke-width:4;stroke-linecap:round;stroke-linejoin:round;stroke-miterlimit:10;}
	.st20{display:none;fill:#FDE1D9;}
	.st21{fill:#6ADAF7;}
	.st22{fill:#C7BCFF;}
</style>
<g>
	<g>
		<g>
			<g>
				<path class="st0" d="M180,318c-7.17,0-13-5.83-13-13V79c0-7.17,5.83-13,13-13h180c7.17,0,13,5.83,13,13v226
					c0,7.17-5.83,13-13,13H180z"/>
			</g>
		</g>
		<g>
			<g>
				<path class="st1" d="M360,69c5.52,0,10,4.48,10,10v226c0,5.52-4.48,10-10,10H180c-5.52,0-10-4.48-10-10V79c0-5.52,4.48-10,10-10
					H360 M360,63H180c-8.82,0-16,7.18-16,16v226c0,8.82,7.18,16,16,16h180c8.82,0,16-7.18,16-16V79C376,70.18,368.82,63,360,63
					L360,63z"/>
			</g>
		</g>
	</g>
	<g>
		<g>
			<path class="st2" d="M360,315H180c-5.52,0-10-4.48-10-10v-54h200v54C370,310.52,365.52,315,360,315z"/>
		</g>
	</g>
	<g>
		<g>
			<rect x="170" y="103" class="st2" width="200" height="76"/>
		</g>
	</g>
	<g>
		<g>
			<g>
				<path class="st3" d="M170,100c-1.66,0-3-1.34-3-3V79c0-7.17,5.83-13,13-13h180c7.17,0,13,5.83,13,13v18c0,1.66-1.34,3-3,3H170z"
					/>
			</g>
		</g>
		<g>
			<g>
				<path class="st1" d="M360,69c5.52,0,10,4.48,10,10v18H170V79c0-5.52,4.48-10,10-10H360 M360,63H180c-8.82,0-16,7.18-16,16v18
					c0,3.31,2.69,6,6,6h200c3.31,0,6-2.69,6-6V79C376,70.18,368.82,63,360,63L360,63z"/>
			</g>
		</g>
	</g>
	<g>
		<g>
			<g>
				<path class="st0" d="M260,90c-3.86,0-7-3.14-7-7s3.14-7,7-7h94c3.86,0,7,3.14,7,7s-3.14,7-7,7H260z"/>
			</g>
		</g>
		<g>
			<g>
				<g>
					<path class="st1" d="M354,79c2.21,0,4,1.79,4,4s-1.79,4-4,4h-94c-2.21,0-4-1.79-4-4s1.79-4,4-4H354 M354,73h-94
						c-5.51,0-10,4.49-10,10s4.49,10,10,10h94c5.51,0,10-4.49,10-10S359.51,73,354,73L354,73z"/>
				</g>
			</g>
		</g>
	</g>
	<g>
		<g>
			<g>
				<circle class="st4" cx="186" cy="83" r="7"/>
			</g>
		</g>
		<g>
			<g>
				<g>
					<path class="st1" d="M186,79c2.21,0,4,1.79,4,4s-1.79,4-4,4c-2.21,0-4-1.79-4-4S183.79,79,186,79 M186,73
						c-5.51,0-10,4.49-10,10s4.49,10,10,10s10-4.49,10-10S191.51,73,186,73L186,73z"/>
				</g>
			</g>
		</g>
	</g>
	<g>
		<g>
			<g>
				<circle class="st5" cx="210" cy="83" r="7"/>
			</g>
		</g>
		<g>
			<g>
				<g>
					<path class="st1" d="M210,79c2.21,0,4,1.79,4,4s-1.79,4-4,4c-2.21,0-4-1.79-4-4S207.79,79,210,79 M210,73
						c-5.51,0-10,4.49-10,10s4.49,10,10,10s10-4.49,10-10S215.51,73,210,73L210,73z"/>
				</g>
			</g>
		</g>
	</g>
	<g>
		<g>
			<g>
				<circle class="st6" cx="234" cy="83" r="7"/>
			</g>
		</g>
		<g>
			<g>
				<g>
					<path class="st1" d="M234,79c2.21,0,4,1.79,4,4s-1.79,4-4,4s-4-1.79-4-4S231.79,79,234,79 M234,73c-5.51,0-10,4.49-10,10
						s4.49,10,10,10s10-4.49,10-10S239.51,73,234,73L234,73z"/>
				</g>
			</g>
		</g>
	</g>
	<g>
		<g>
			<g>
				<circle class="st4" cx="233" cy="145.5" r="2.5"/>
			</g>
		</g>
		<g>
			<g>
				<circle class="st4" cx="238.5" cy="156.5" r="2.5"/>
			</g>
		</g>
		<g>
			<g>
				<circle class="st4" cx="227.5" cy="156.5" r="2.5"/>
			</g>
		</g>
	</g>
	<g>
		<g>
			<g>
				<circle class="st4" cx="307" cy="145.5" r="2.5"/>
			</g>
		</g>
		<g>
			<g>
				<circle class="st4" cx="312.5" cy="156.5" r="2.5"/>
			</g>
		</g>
		<g>
			<g>
				<circle class="st4" cx="301.5" cy="156.5" r="2.5"/>
			</g>
		</g>
	</g>
	<g>
		<g>
			<rect x="170" y="178" class="st7" width="200" height="74"/>
		</g>
	</g>
	<g>
		<g>
			<g>
				<path class="st0" d="M189,237h42c2.21,0,4-1.79,4-4v-36c0-2.21-1.79-4-4-4h-42c-2.21,0-4,1.79-4,4v36
					C185,235.21,186.79,237,189,237z"/>
			</g>
		</g>
		<g>
			<g>
				<circle class="st7" cx="197" cy="205" r="6"/>
			</g>
		</g>
		<g>
			<g>
				<path class="st2" d="M227,219h-34c-1.1,0-2-0.9-2-2l0,0c0-1.1,0.9-2,2-2h34c1.1,0,2,0.9,2,2l0,0C229,218.1,228.1,219,227,219z"
					/>
			</g>
		</g>
		<g>
			<g>
				<path class="st2" d="M213,227h-20c-1.1,0-2-0.9-2-2l0,0c0-1.1,0.9-2,2-2h20c1.1,0,2,0.9,2,2l0,0C215,226.1,214.1,227,213,227z"
					/>
			</g>
		</g>
	</g>
	<g>
		<g>
			<g>
				<path class="st0" d="M309,237h42c2.21,0,4-1.79,4-4v-36c0-2.21-1.79-4-4-4h-42c-2.21,0-4,1.79-4,4v36
					C305,235.21,306.79,237,309,237z"/>
			</g>
		</g>
		<g>
			<g>
				<circle class="st7" cx="317" cy="205" r="6"/>
			</g>
		</g>
		<g>
			<g>
				<path class="st2" d="M347,219h-34c-1.1,0-2-0.9-2-2l0,0c0-1.1,0.9-2,2-2h34c1.1,0,2,0.9,2,2l0,0C349,218.1,348.1,219,347,219z"
					/>
			</g>
		</g>
		<g>
			<g>
				<path class="st2" d="M325,227h-12c-1.1,0-2-0.9-2-2l0,0c0-1.1,0.9-2,2-2h12c1.1,0,2,0.9,2,2l0,0C327,226.1,326.1,227,325,227z"
					/>
			</g>
		</g>
	</g>
	<g>
		<g>
			<g>
				<path class="st0" d="M249,237h42c2.21,0,4-1.79,4-4v-36c0-2.21-1.79-4-4-4h-42c-2.21,0-4,1.79-4,4v36
					C245,235.21,246.79,237,249,237z"/>
			</g>
		</g>
		<g>
			<g>
				<circle class="st7" cx="257" cy="205" r="6"/>
			</g>
		</g>
		<g>
			<g>
				<path class="st2" d="M287,219h-34c-1.1,0-2-0.9-2-2l0,0c0-1.1,0.9-2,2-2h34c1.1,0,2,0.9,2,2l0,0C289,218.1,288.1,219,287,219z"
					/>
			</g>
		</g>
		<g>
			<g>
				<path class="st2" d="M279,227h-26c-1.1,0-2-0.9-2-2l0,0c0-1.1,0.9-2,2-2h26c1.1,0,2,0.9,2,2l0,0C281,226.1,280.1,227,279,227z"
					/>
			</g>
		</g>
	</g>
	<g>
		<g>
			<circle class="st7" cx="210" cy="285" r="24"/>
		</g>
	</g>
	<g>
		<g>
			<circle class="st7" cx="270" cy="285" r="24"/>
		</g>
	</g>
	<g>
		<g>
			<circle class="st7" cx="330" cy="285" r="24"/>
		</g>
	</g>
	<g>
		<g>
			<g>
				<g>
					<path class="st1" d="M289.5,136.48c-0.32,0-0.64-0.08-0.94-0.24c-1.89-1.02-5.21-1.02-7.11,0c-0.97,0.52-2.18,0.16-2.71-0.82
						c-0.52-0.97-0.16-2.19,0.82-2.71c3.05-1.64,7.84-1.64,10.89,0c0.97,0.52,1.34,1.73,0.82,2.71
						C290.9,136.09,290.21,136.48,289.5,136.48z"/>
				</g>
			</g>
			<g>
				<g>
					<g>
						<circle class="st1" cx="285" cy="125.72" r="8"/>
					</g>
				</g>
				<g>
					<g>
						<circle class="st0" cx="287" cy="125.72" r="2"/>
					</g>
				</g>
			</g>
			<g>
				<g>
					<path class="st1" d="M280.8,108.45c0.63-0.65,1.17-1.08,1.83-1.52c0.64-0.41,1.32-0.78,2.05-1.06c1.45-0.58,3.07-0.9,4.76-0.83
						c0.84,0.01,1.69,0.19,2.51,0.4c0.41,0.13,0.8,0.31,1.2,0.47c0.4,0.15,0.77,0.36,1.12,0.59c1.48,0.85,2.55,2.14,3.3,3.49
						c0.54,0.99,0.18,2.22-0.81,2.77c-0.56,0.31-1.21,0.32-1.76,0.1l-0.39-0.16c-1.09-0.46-1.95-0.95-2.85-1.18
						c-0.87-0.29-1.71-0.44-2.62-0.48c-0.9-0.05-1.87,0-2.91,0.14c-0.51,0.09-1.05,0.16-1.59,0.28c-0.53,0.08-1.14,0.26-1.6,0.31
						l-0.62,0.06c-1.1,0.11-2.07-0.7-2.18-1.79C280.2,109.42,280.42,108.85,280.8,108.45z"/>
				</g>
			</g>
			<g>
				<g>
					<path class="st1" d="M259.5,136.48c-0.32,0-0.64-0.08-0.94-0.24c-1.89-1.02-5.21-1.02-7.11,0c-0.97,0.52-2.19,0.16-2.71-0.82
						c-0.52-0.97-0.16-2.19,0.82-2.71c3.05-1.64,7.84-1.64,10.89,0c0.97,0.52,1.34,1.73,0.82,2.71
						C260.9,136.09,260.21,136.48,259.5,136.48z"/>
				</g>
			</g>
			<g>
				<g>
					<g>
						<circle class="st1" cx="255" cy="125.72" r="8"/>
					</g>
				</g>
				<g>
					<g>
						<circle class="st0" cx="257" cy="125.72" r="2"/>
					</g>
				</g>
			</g>
			<g>
				<g>
					<path class="st1" d="M256.96,111.75c-0.46-0.04-1.07-0.22-1.6-0.31c-0.54-0.12-1.08-0.2-1.59-0.28
						c-1.04-0.15-2.01-0.2-2.91-0.14c-0.91,0.04-1.75,0.2-2.62,0.48c-0.89,0.23-1.76,0.73-2.85,1.18l-0.38,0.16
						c-1.04,0.43-2.23-0.05-2.67-1.09c-0.25-0.59-0.19-1.24,0.09-1.77c0.74-1.35,1.82-2.64,3.3-3.49c0.35-0.24,0.72-0.45,1.12-0.59
						c0.4-0.16,0.79-0.34,1.2-0.47c0.83-0.21,1.67-0.39,2.51-0.4c1.68-0.06,3.31,0.25,4.76,0.83c0.73,0.28,1.41,0.65,2.05,1.06
						c0.66,0.44,1.2,0.86,1.83,1.52c0.76,0.79,0.74,2.06-0.06,2.82c-0.43,0.42-1.01,0.6-1.57,0.55L256.96,111.75z"/>
				</g>
			</g>
		</g>
		<g>
			<g>
				<path class="st1" d="M270.42,158.76c-6.02,0-12.19-1.77-17.52-5.31c-0.92-0.61-1.17-1.85-0.56-2.77
					c0.61-0.92,1.85-1.17,2.77-0.56c9.2,6.1,21.68,6.11,29.68,0.02c0.88-0.67,2.13-0.5,2.8,0.38c0.67,0.88,0.5,2.13-0.38,2.8
					C282.45,156.94,276.51,158.76,270.42,158.76z"/>
			</g>
		</g>
		<g>
			<g>
				<path class="st1" d="M265.82,161.86c0.67,0.21,1.37,0.37,2.07,0.45c0.7,0.1,1.41,0.16,2.11,0.18c0.71-0.02,1.41-0.07,2.11-0.17
					c0.7-0.08,1.39-0.24,2.05-0.46c0.71-0.23,1.48,0.15,1.71,0.86c0.17,0.51,0.01,1.05-0.35,1.4l-0.69,0.66
					c-0.69,0.66-1.48,1.05-2.3,1.31c-0.82,0.28-1.68,0.37-2.53,0.39c-0.85-0.02-1.71-0.12-2.53-0.4c-0.82-0.26-1.61-0.65-2.29-1.3
					l-0.69-0.65c-0.55-0.51-0.57-1.37-0.06-1.91C264.79,161.83,265.34,161.7,265.82,161.86z"/>
			</g>
		</g>
	</g>
	<g>
		<g>
			<g>
				<path class="st1" d="M276,130.44c-1.66,0-3-1.34-3-3c0-1.65-1.35-3-3-3s-3,1.35-3,3c0,1.66-1.34,3-3,3s-3-1.34-3-3
					c0-4.96,4.04-9,9-9s9,4.04,9,9C279,129.1,277.66,130.44,276,130.44z"/>
			</g>
		</g>
		<g>
			<g>
				<path class="st1" d="M315,115.44h-16v8h16c2.21,0,4-1.79,4-4v0C319,117.23,317.21,115.44,315,115.44z"/>
			</g>
		</g>
		<g>
			<g>
				<path class="st8" d="M294,145.44L294,145.44c-8.28,0-15-6.72-15-15v-5c0-2.21,1.79-4,4-4h22c2.21,0,4,1.79,4,4v5
					C309,138.73,302.28,145.44,294,145.44z"/>
			</g>
		</g>
		<g>
			<g>
				<path class="st1" d="M241,115.44h-16c-2.21,0-4,1.79-4,4v0c0,2.21,1.79,4,4,4h16V115.44z"/>
			</g>
		</g>
		<g>
			<g>
				<path class="st8" d="M246,145.44L246,145.44c-8.28,0-15-6.72-15-15v-5c0-2.21,1.79-4,4-4h22c2.21,0,4,1.79,4,4v5
					C261,138.73,254.28,145.44,246,145.44z"/>
			</g>
		</g>
		<g class="st9">
			<g>
				<polygon class="st0" points="283,147.44 289,147.44 299,119.44 293,119.44 				"/>
			</g>
		</g>
		<g class="st9">
			<g>
				<polygon class="st0" points="292,147.44 296,147.44 306,119.44 302,119.44 				"/>
			</g>
		</g>
		<g class="st9">
			<g>
				<polygon class="st0" points="235,147.44 241,147.44 251,119.44 245,119.44 				"/>
			</g>
		</g>
		<g class="st9">
			<g>
				<polygon class="st0" points="244,147.44 248,147.44 258,119.44 254,119.44 				"/>
			</g>
		</g>
		<g>
			<g>
				<path class="st1" d="M305,121.44c2.21,0,4,1.79,4,4v5c0,8.28-6.72,15-15,15h0c-8.28,0-15-6.72-15-15v-5c0-2.21,1.79-4,4-4H305
					 M305,115.44h-22c-5.51,0-10,4.49-10,10v5c0,11.58,9.42,21,21,21s21-9.42,21-21v-5C315,119.93,310.51,115.44,305,115.44
					L305,115.44z"/>
			</g>
		</g>
		<g>
			<g>
				<path class="st10" d="M315,120.44h-2c-0.55,0-1-0.45-1-1l0,0c0-0.55,0.45-1,1-1h2c0.55,0,1,0.45,1,1l0,0
					C316,119.99,315.55,120.44,315,120.44z"/>
			</g>
		</g>
		<g>
			<g>
				<path class="st1" d="M257,121.44c2.21,0,4,1.79,4,4v5c0,8.28-6.72,15-15,15h0c-8.28,0-15-6.72-15-15v-5c0-2.21,1.79-4,4-4H257
					 M257,115.44h-22c-5.51,0-10,4.49-10,10v5c0,11.58,9.42,21,21,21c11.58,0,21-9.42,21-21v-5C267,119.93,262.51,115.44,257,115.44
					L257,115.44z"/>
			</g>
		</g>
		<g>
			<g>
				<path class="st10" d="M227,120.44h-2c-0.55,0-1-0.45-1-1l0,0c0-0.55,0.45-1,1-1h2c0.55,0,1,0.45,1,1l0,0
					C228,119.99,227.55,120.44,227,120.44z"/>
			</g>
		</g>
	</g>
</g>
<g class="st11">
	<path class="st12" d="M-330.59-528.5c-3.86,0-7-3.14-7-7v-182c0-3.86,3.14-7,7-7h122c0.8,0,1.56,0.32,2.12,0.88l24,24
		c0.56,0.56,0.88,1.33,0.88,2.12v162c0,3.86-3.14,7-7,7H-330.59z"/>
	<path class="st13" d="M-208.59-721.5l24,24v162c0,2.21-1.79,4-4,4h-142c-2.21,0-4-1.79-4-4v-182c0-2.21,1.79-4,4-4H-208.59
		 M-208.59-727.5h-122c-5.51,0-10,4.49-10,10v182c0,5.51,4.49,10,10,10h142c5.51,0,10-4.49,10-10v-162c0-1.59-0.63-3.12-1.76-4.24
		l-24-24C-205.48-726.87-207-727.5-208.59-727.5L-208.59-727.5z"/>
</g>
<g class="st11">
	<path class="st14" d="M-203.79-694.5c-4.3,0-7.8-3.5-7.8-7.8v-19.2c0-1.21,0.73-2.31,1.85-2.77c0.37-0.15,0.76-0.23,1.15-0.23
		c0.78,0,1.55,0.3,2.12,0.88l24,24c0.86,0.86,1.11,2.15,0.65,3.27s-1.56,1.85-2.77,1.85H-203.79z"/>
	<path class="st13" d="M-208.59-721.5l24,24h-19.2c-2.65,0-4.8-2.15-4.8-4.8V-721.5 M-208.6-727.5c-0.77,0-1.55,0.15-2.29,0.46
		c-2.24,0.93-3.7,3.12-3.7,5.54v19.2c0,5.96,4.84,10.8,10.8,10.8h19.2c2.43,0,4.61-1.46,5.54-3.7c0.93-2.24,0.42-4.82-1.3-6.54
		l-24-24C-205.5-726.89-207.03-727.5-208.6-727.5L-208.6-727.5z"/>
</g>
<g>
	<g>
		<polygon class="st15" points="22,343 34.16,311.91 42.91,317.89 55.82,305.48 70.07,310.12 82,300 82,343 		"/>
	</g>
	<g>
		<path class="st6" d="M22,345c-0.24,0-0.49-0.04-0.73-0.14c-1.03-0.4-1.54-1.56-1.13-2.59l12.16-31.09c0.22-0.57,0.69-1,1.27-1.18
			c0.58-0.18,1.21-0.08,1.72,0.26l7.41,5.06l11.75-11.28c0.53-0.51,1.3-0.69,2-0.46l13.19,4.29l11.08-9.4
			c0.84-0.71,2.1-0.61,2.82,0.23c0.71,0.84,0.61,2.1-0.23,2.82l-11.93,10.12c-0.53,0.45-1.25,0.59-1.91,0.38l-13.11-4.27
			l-12.05,11.58c-0.68,0.66-1.73,0.74-2.51,0.21l-6.67-4.56l-11.24,28.75C23.55,344.52,22.8,345,22,345z"/>
	</g>
	<g>
		<polygon class="st16" points="22,343 33.82,323.7 40.27,327.61 49.16,318.91 55.91,323.89 64.82,314.48 73.07,317.12 82,310 
			82,343 		"/>
	</g>
	<g>
		<path class="st5" d="M22,345c-0.36,0-0.72-0.09-1.04-0.29c-0.94-0.58-1.24-1.81-0.66-2.75l11.82-19.3
			c0.58-0.94,1.8-1.24,2.74-0.67l5.12,3.1l7.78-7.62c0.7-0.69,1.8-0.76,2.59-0.18l5.33,3.93l7.7-8.12c0.53-0.56,1.33-0.76,2.06-0.53
			l7.23,2.31l8.09-6.45c0.86-0.69,2.12-0.55,2.81,0.32c0.69,0.86,0.55,2.12-0.32,2.81l-8.93,7.12c-0.52,0.42-1.22,0.54-1.86,0.34
			l-7.05-2.25l-8.05,8.5c-0.7,0.73-1.83,0.83-2.64,0.23l-5.38-3.97l-7.67,7.51c-0.65,0.64-1.66,0.76-2.44,0.28l-4.74-2.88
			l-10.78,17.6C23.33,344.66,22.67,345,22,345z"/>
	</g>
	<g>
		<path class="st1" d="M22,339.5h-6c-0.83,0-1.5-0.67-1.5-1.5s0.67-1.5,1.5-1.5h6c0.83,0,1.5,0.67,1.5,1.5S22.83,339.5,22,339.5z"/>
	</g>
	<g>
		<path class="st1" d="M22,329.5h-6c-0.83,0-1.5-0.67-1.5-1.5s0.67-1.5,1.5-1.5h6c0.83,0,1.5,0.67,1.5,1.5S22.83,329.5,22,329.5z"/>
	</g>
	<g>
		<path class="st1" d="M22,319.5h-6c-0.83,0-1.5-0.67-1.5-1.5s0.67-1.5,1.5-1.5h6c0.83,0,1.5,0.67,1.5,1.5S22.83,319.5,22,319.5z"/>
	</g>
	<g>
		<path class="st1" d="M22,309.5h-6c-0.83,0-1.5-0.67-1.5-1.5s0.67-1.5,1.5-1.5h6c0.83,0,1.5,0.67,1.5,1.5S22.83,309.5,22,309.5z"/>
	</g>
	<g>
		<path class="st1" d="M67,350.5c-0.83,0-1.5-0.67-1.5-1.5v-6c0-0.83,0.67-1.5,1.5-1.5s1.5,0.67,1.5,1.5v6
			C68.5,349.83,67.83,350.5,67,350.5z"/>
	</g>
	<g>
		<path class="st1" d="M77,350.5c-0.83,0-1.5-0.67-1.5-1.5v-6c0-0.83,0.67-1.5,1.5-1.5s1.5,0.67,1.5,1.5v6
			C78.5,349.83,77.83,350.5,77,350.5z"/>
	</g>
	<g>
		<path class="st1" d="M57,350.5c-0.83,0-1.5-0.67-1.5-1.5v-6c0-0.83,0.67-1.5,1.5-1.5s1.5,0.67,1.5,1.5v6
			C58.5,349.83,57.83,350.5,57,350.5z"/>
	</g>
	<g>
		<path class="st1" d="M47,350.5c-0.83,0-1.5-0.67-1.5-1.5v-6c0-0.83,0.67-1.5,1.5-1.5s1.5,0.67,1.5,1.5v6
			C48.5,349.83,47.83,350.5,47,350.5z"/>
	</g>
	<g>
		<path class="st1" d="M37,350.5c-0.83,0-1.5-0.67-1.5-1.5v-6c0-0.83,0.67-1.5,1.5-1.5s1.5,0.67,1.5,1.5v6
			C38.5,349.83,37.83,350.5,37,350.5z"/>
	</g>
	<g>
		<path class="st1" d="M27,350.5c-0.83,0-1.5-0.67-1.5-1.5v-6c0-0.83,0.67-1.5,1.5-1.5s1.5,0.67,1.5,1.5v6
			C28.5,349.83,27.83,350.5,27,350.5z"/>
	</g>
	<g>
		<polygon class="st17" points="22,343 31.82,332.7 39.27,337.61 47.16,328.91 54.91,335.89 63.18,326.13 70.93,333.07 82,321 
			82,343 		"/>
	</g>
	<g>
		<path class="st4" d="M22,345c-0.5,0-0.99-0.18-1.38-0.55c-0.8-0.76-0.83-2.03-0.07-2.83l9.82-10.3c0.67-0.7,1.74-0.82,2.55-0.29
			l6.01,3.97l6.74-7.43c0.74-0.82,2-0.88,2.82-0.14l6.22,5.6l6.94-8.19c0.35-0.41,0.85-0.67,1.39-0.7c0.54-0.03,1.07,0.15,1.47,0.5
			l6.28,5.62l9.74-10.61c0.75-0.81,2.01-0.87,2.83-0.12c0.81,0.75,0.87,2.01,0.12,2.83L72.4,334.42c-0.74,0.81-1.99,0.87-2.81,0.14
			l-6.22-5.57l-6.94,8.2c-0.35,0.41-0.85,0.67-1.39,0.7c-0.55,0.03-1.07-0.15-1.47-0.51l-6.27-5.65l-6.55,7.23
			c-0.66,0.73-1.76,0.87-2.58,0.33l-6.05-3.99l-8.67,9.09C23.05,344.79,22.53,345,22,345z"/>
	</g>
	<g>
		<path class="st1" d="M82,345H22c-1.1,0-2-0.9-2-2v-40c0-1.1,0.9-2,2-2s2,0.9,2,2v38h58c1.1,0,2,0.9,2,2S83.1,345,82,345z"/>
	</g>
	<g>
		<path class="st1" d="M68,363H32c-1.1,0-2-0.9-2-2l0,0c0-1.1,0.9-2,2-2h36c1.1,0,2,0.9,2,2l0,0C70,362.1,69.1,363,68,363z"/>
	</g>
	<g>
		<circle class="st6" cx="23" cy="361" r="3"/>
	</g>
	<g>
		<path class="st1" d="M48,371H32c-1.1,0-2-0.9-2-2l0,0c0-1.1,0.9-2,2-2h16c1.1,0,2,0.9,2,2l0,0C50,370.1,49.1,371,48,371z"/>
	</g>
	<g>
		<circle class="st5" cx="23" cy="369" r="3"/>
	</g>
	<g>
		<path class="st1" d="M58,379H32c-1.1,0-2-0.9-2-2l0,0c0-1.1,0.9-2,2-2h26c1.1,0,2,0.9,2,2l0,0C60,378.1,59.1,379,58,379z"/>
	</g>
	<g>
		<circle class="st4" cx="23" cy="377" r="3"/>
	</g>
</g>
<g>
	<g>
		<path class="st1" d="M54,52c-11.03,0-20-8.97-20-20s8.97-20,20-20s20,8.97,20,20S65.03,52,54,52z M54,18c-7.72,0-14,6.28-14,14
			s6.28,14,14,14s14-6.28,14-14S61.72,18,54,18z"/>
	</g>
	<g>
		<path class="st4" d="M70.96,46.02l-7.7-6.38C65.05,37.47,66,34.83,66,32h10C76,37.11,74.21,42.09,70.96,46.02z"/>
	</g>
	<g>
		<path class="st5" d="M76,32H66c0-2.55-0.79-4.99-2.28-7.04l8.09-5.88C74.55,22.86,76,27.32,76,32z"/>
	</g>
	<g>
		<path class="st6" d="M63.72,24.96C61.46,21.85,57.83,20,54,20V10c7.02,0,13.68,3.4,17.81,9.08L63.72,24.96z"/>
	</g>
	<g>
		<path class="st1" d="M74,70H44c-1.1,0-2-0.9-2-2l0,0c0-1.1,0.9-2,2-2h30c1.1,0,2,0.9,2,2l0,0C76,69.1,75.1,70,74,70z"/>
	</g>
	<g>
		<circle class="st6" cx="35" cy="68" r="3"/>
	</g>
	<g>
		<path class="st1" d="M64,78H44c-1.1,0-2-0.9-2-2l0,0c0-1.1,0.9-2,2-2h20c1.1,0,2,0.9,2,2l0,0C66,77.1,65.1,78,64,78z"/>
	</g>
	<g>
		<circle class="st5" cx="35" cy="76" r="3"/>
	</g>
	<g>
		<path class="st1" d="M58,86H44c-1.1,0-2-0.9-2-2l0,0c0-1.1,0.9-2,2-2h14c1.1,0,2,0.9,2,2l0,0C60,85.1,59.1,86,58,86z"/>
	</g>
	<g>
		<circle class="st4" cx="35" cy="84" r="3"/>
	</g>
</g>
<g class="st11">
	<g class="st18">
		<path class="st19" d="M-247.1-668.9c2.49-1.33,6.51-1.33,9,0"/>
		<g>
			<circle class="st1" cx="-242.6" cy="-677.65" r="8"/>
			<circle class="st0" cx="-240.6" cy="-677.65" r="2"/>
		</g>
		<g>
			<path class="st1" d="M-248.45-693.97c0.68-0.58,1.26-0.95,1.95-1.32c0.67-0.35,1.38-0.64,2.12-0.86c1.48-0.44,3.1-0.61,4.75-0.42
				c0.41,0.06,0.82,0.11,1.23,0.22c0.41,0.11,0.81,0.24,1.21,0.37c0.4,0.15,0.77,0.36,1.15,0.54c0.38,0.18,0.74,0.4,1.07,0.66
				c1.41,0.94,2.39,2.3,3.04,3.7c0.47,1.02,0.02,2.23-1,2.7c-0.58,0.27-1.22,0.24-1.75-0.02l-0.39-0.19
				c-1.05-0.52-1.87-1.06-2.74-1.36c-0.85-0.34-1.67-0.56-2.59-0.68c-0.91-0.13-1.88-0.16-2.93-0.11c-0.52,0.04-1.06,0.06-1.61,0.13
				c-0.53,0.03-1.16,0.15-1.62,0.15l-0.62,0c-1.1,0-1.99-0.9-1.99-2C-249.15-693.06-248.88-693.6-248.45-693.97z"/>
		</g>
		<path class="st19" d="M-281.1-668.9c2.49-1.33,6.51-1.33,9,0"/>
		<g>
			<circle class="st1" cx="-276.6" cy="-677.65" r="8"/>
			<circle class="st0" cx="-274.6" cy="-677.65" r="2"/>
		</g>
		<g>
			<path class="st1" d="M-272.64-690.45c-0.46,0-1.08-0.11-1.62-0.15c-0.55-0.07-1.09-0.09-1.61-0.13
				c-1.05-0.05-2.02-0.02-2.93,0.11c-0.91,0.12-1.74,0.34-2.59,0.68c-0.88,0.29-1.69,0.84-2.74,1.36l-0.38,0.19
				c-1.01,0.5-2.23,0.09-2.73-0.92c-0.28-0.57-0.27-1.22-0.03-1.76c0.64-1.4,1.63-2.76,3.04-3.7c0.33-0.26,0.69-0.49,1.07-0.66
				c0.38-0.18,0.75-0.4,1.15-0.54c0.4-0.13,0.8-0.26,1.21-0.37c0.41-0.11,0.82-0.15,1.23-0.22c1.65-0.19,3.27-0.03,4.75,0.42
				c0.74,0.21,1.45,0.51,2.12,0.86c0.69,0.37,1.26,0.73,1.95,1.32c0.84,0.72,0.94,1.98,0.22,2.81c-0.39,0.46-0.94,0.7-1.5,0.7
				L-272.64-690.45z"/>
		</g>
	</g>
</g>
<g class="st11">
	<g class="st18">
		<path class="st1" d="M-259.59-638c-11.3,0-20.5-9.2-20.5-20.5c0-1.38,1.12-2.5,2.5-2.5h36c1.38,0,2.5,1.12,2.5,2.5
			C-239.09-647.2-248.29-638-259.59-638z"/>
		<path class="st1" d="M-241.59-658.5L-241.59-658.5 M-241.59-658.5c0,9.94-8.06,18-18,18c-9.94,0-18-8.06-18-18H-241.59
			 M-241.59-663.5L-241.59-663.5h-36.01c-2.76,0-5,2.24-5,5c0,12.68,10.32,23,23,23c12.62,0,22.9-10.22,23-22.82
			c0-0.06,0-0.12,0-0.18C-236.59-661.26-238.83-663.5-241.59-663.5L-241.59-663.5z M-241.59-653.5L-241.59-653.5L-241.59-653.5
			L-241.59-653.5z"/>
	</g>
	<g class="st18">
		<ellipse class="st4" cx="-259.59" cy="-646.5" rx="13.39" ry="6"/>
	</g>
</g>
<circle class="st20" cx="-300.59" cy="-667" r="2.5"/>
<circle class="st20" cx="-295.09" cy="-656" r="2.5"/>
<circle class="st20" cx="-306.09" cy="-656" r="2.5"/>
<circle class="st20" cx="-218.59" cy="-667" r="2.5"/>
<circle class="st20" cx="-213.09" cy="-656" r="2.5"/>
<circle class="st20" cx="-224.09" cy="-656" r="2.5"/>
<g>
	<g>
		<path class="st1" d="M80,210H41c-1.1,0-2-0.9-2-2v0c0-1.1,0.9-2,2-2h39c1.1,0,2,0.9,2,2v0C82,209.1,81.1,210,80,210z"/>
	</g>
	<g>
		<rect x="41" y="168" class="st21" width="10" height="22"/>
	</g>
	<g>
		<rect x="54" y="176" class="st2" width="10" height="14"/>
	</g>
	<g>
		<rect x="67" y="162" class="st22" width="10" height="28"/>
	</g>
	<g>
		<circle class="st21" cx="32" cy="208" r="3"/>
	</g>
	<g>
		<path class="st1" d="M65,218H41c-1.1,0-2-0.9-2-2v0c0-1.1,0.9-2,2-2h24c1.1,0,2,0.9,2,2v0C67,217.1,66.1,218,65,218z"/>
	</g>
	<g>
		<circle class="st2" cx="32" cy="216" r="3"/>
	</g>
	<g>
		<path class="st1" d="M59,226H41c-1.1,0-2-0.9-2-2v0c0-1.1,0.9-2,2-2h18c1.1,0,2,0.9,2,2v0C61,225.1,60.1,226,59,226z"/>
	</g>
	<g>
		<circle class="st22" cx="32" cy="224" r="3"/>
	</g>
	<g>
		<path class="st1" d="M36,188.5h-6c-0.83,0-1.5-0.67-1.5-1.5s0.67-1.5,1.5-1.5h6c0.83,0,1.5,0.67,1.5,1.5S36.83,188.5,36,188.5z"/>
	</g>
	<g>
		<path class="st1" d="M36,178.5h-6c-0.83,0-1.5-0.67-1.5-1.5s0.67-1.5,1.5-1.5h6c0.83,0,1.5,0.67,1.5,1.5S36.83,178.5,36,178.5z"/>
	</g>
	<g>
		<path class="st1" d="M36,168.5h-6c-0.83,0-1.5-0.67-1.5-1.5s0.67-1.5,1.5-1.5h6c0.83,0,1.5,0.67,1.5,1.5S36.83,168.5,36,168.5z"/>
	</g>
	<g>
		<path class="st1" d="M72,199.5c-0.83,0-1.5-0.67-1.5-1.5v-6c0-0.83,0.67-1.5,1.5-1.5s1.5,0.67,1.5,1.5v6
			C73.5,198.83,72.83,199.5,72,199.5z"/>
	</g>
	<g>
		<path class="st1" d="M59,199.5c-0.83,0-1.5-0.67-1.5-1.5v-6c0-0.83,0.67-1.5,1.5-1.5s1.5,0.67,1.5,1.5v6
			C60.5,198.83,59.83,199.5,59,199.5z"/>
	</g>
	<g>
		<path class="st1" d="M46,199.5c-0.83,0-1.5-0.67-1.5-1.5v-6c0-0.83,0.67-1.5,1.5-1.5s1.5,0.67,1.5,1.5v6
			C47.5,198.83,46.83,199.5,46,199.5z"/>
	</g>
	<g>
		<path class="st1" d="M80,194H36c-1.1,0-2-0.9-2-2v-30c0-1.1,0.9-2,2-2s2,0.9,2,2v28h42c1.1,0,2,0.9,2,2S81.1,194,80,194z"/>
	</g>
</g>
<g>
	<path class="st1" d="M155,196.5h-5c-0.83,0-1.5-0.67-1.5-1.5s0.67-1.5,1.5-1.5h5c0.83,0,1.5,0.67,1.5,1.5S155.83,196.5,155,196.5z
		 M141,196.5h-5c-0.83,0-1.5-0.67-1.5-1.5s0.67-1.5,1.5-1.5h5c0.83,0,1.5,0.67,1.5,1.5S141.83,196.5,141,196.5z M127,196.5h-5
		c-0.83,0-1.5-0.67-1.5-1.5s0.67-1.5,1.5-1.5h5c0.83,0,1.5,0.67,1.5,1.5S127.83,196.5,127,196.5z M113,196.5h-5
		c-0.83,0-1.5-0.67-1.5-1.5s0.67-1.5,1.5-1.5h5c0.83,0,1.5,0.67,1.5,1.5S113.83,196.5,113,196.5z M99,196.5h-5
		c-0.83,0-1.5-0.67-1.5-1.5s0.67-1.5,1.5-1.5h5c0.83,0,1.5,0.67,1.5,1.5S99.83,196.5,99,196.5z"/>
</g>
<g>
	<path class="st1" d="M151.14,116.5h-5c-0.83,0-1.5-0.67-1.5-1.5s0.67-1.5,1.5-1.5h5c0.83,0,1.5,0.67,1.5,1.5
		S151.97,116.5,151.14,116.5z M137.14,116.5h-5c-0.83,0-1.5-0.67-1.5-1.5s0.67-1.5,1.5-1.5h5c0.83,0,1.5,0.67,1.5,1.5
		S137.97,116.5,137.14,116.5z M123.25,115.83c-0.23,0-0.47-0.05-0.69-0.17c-1.88-0.97-3.26-2.69-3.81-4.73
		c-0.21-0.8,0.26-1.62,1.06-1.84c0.8-0.21,1.62,0.26,1.84,1.06c0.33,1.22,1.16,2.25,2.29,2.83c0.74,0.38,1.02,1.29,0.65,2.02
		C124.32,115.54,123.79,115.83,123.25,115.83z M120,103.07c-0.83,0-1.5-0.67-1.5-1.5v-5c0-0.83,0.67-1.5,1.5-1.5s1.5,0.67,1.5,1.5v5
		C121.5,102.4,120.83,103.07,120,103.07z M120,89.07c-0.83,0-1.5-0.67-1.5-1.5v-5c0-0.83,0.67-1.5,1.5-1.5s1.5,0.67,1.5,1.5v5
		C121.5,88.4,120.83,89.07,120,89.07z M120,75.07c-0.83,0-1.5-0.67-1.5-1.5v-5c0-0.83,0.67-1.5,1.5-1.5s1.5,0.67,1.5,1.5v5
		C121.5,74.4,120.83,75.07,120,75.07z M119.83,61.09c-0.68,0-1.29-0.46-1.46-1.15c-0.3-1.23-1.1-2.28-2.22-2.89
		c-0.73-0.4-0.99-1.31-0.6-2.04c0.4-0.73,1.31-0.99,2.04-0.6c1.85,1.01,3.2,2.77,3.69,4.82c0.19,0.81-0.3,1.62-1.11,1.81
		C120.07,61.07,119.95,61.09,119.83,61.09z M108,56.5h-5c-0.83,0-1.5-0.67-1.5-1.5s0.67-1.5,1.5-1.5h5c0.83,0,1.5,0.67,1.5,1.5
		S108.83,56.5,108,56.5z M94,56.5h-5c-0.83,0-1.5-0.67-1.5-1.5s0.67-1.5,1.5-1.5h5c0.83,0,1.5,0.67,1.5,1.5S94.83,56.5,94,56.5z"/>
</g>
<g>
	<path class="st1" d="M111.86,344.5h-5c-0.83,0-1.5-0.67-1.5-1.5s0.67-1.5,1.5-1.5h5c0.83,0,1.5,0.67,1.5,1.5
		S112.69,344.5,111.86,344.5z M97.86,344.5h-5c-0.83,0-1.5-0.67-1.5-1.5s0.67-1.5,1.5-1.5h5c0.83,0,1.5,0.67,1.5,1.5
		S98.69,344.5,97.86,344.5z M120.75,343.83c-0.54,0-1.07-0.3-1.33-0.81c-0.38-0.74-0.09-1.64,0.64-2.02
		c1.13-0.58,1.96-1.62,2.29-2.83c0.21-0.8,1.04-1.27,1.84-1.06c0.8,0.21,1.28,1.04,1.06,1.84c-0.54,2.03-1.93,3.76-3.81,4.73
		C121.22,343.78,120.98,343.83,120.75,343.83z M124,331.07c-0.83,0-1.5-0.67-1.5-1.5v-5c0-0.83,0.67-1.5,1.5-1.5s1.5,0.67,1.5,1.5v5
		C125.5,330.4,124.83,331.07,124,331.07z M124,317.07c-0.83,0-1.5-0.67-1.5-1.5v-5c0-0.83,0.67-1.5,1.5-1.5s1.5,0.67,1.5,1.5v5
		C125.5,316.4,124.83,317.07,124,317.07z M124,303.07c-0.83,0-1.5-0.67-1.5-1.5v-5c0-0.83,0.67-1.5,1.5-1.5s1.5,0.67,1.5,1.5v5
		C125.5,302.4,124.83,303.07,124,303.07z M124.17,289.08c-0.12,0-0.23-0.01-0.35-0.04c-0.81-0.19-1.3-1-1.11-1.81
		c0.49-2.05,1.84-3.8,3.69-4.82c0.73-0.4,1.64-0.13,2.04,0.6s0.13,1.64-0.6,2.04c-1.11,0.61-1.92,1.66-2.22,2.89
		C125.46,288.62,124.85,289.08,124.17,289.08z M155,284.5h-5c-0.83,0-1.5-0.67-1.5-1.5s0.67-1.5,1.5-1.5h5c0.83,0,1.5,0.67,1.5,1.5
		S155.83,284.5,155,284.5z M141,284.5h-5c-0.83,0-1.5-0.67-1.5-1.5s0.67-1.5,1.5-1.5h5c0.83,0,1.5,0.67,1.5,1.5
		S141.83,284.5,141,284.5z"/>
</g>
</svg>
